# vtk DataFile Version 3.0
SPH particles (WCSPH) - legacy PolyData
ASCII
DATASET POLYDATA
POINTS 681 float
0.050000000000000003 0.044651326959396921 0
0.050000000000000003 0.055339921210328553 0
0.050000000000000003 0.067138089922516547 0
0.050000000000000003 0.083162830963515871 0
0.050000000000000003 0.10189387186567692 0
0.050000000000000003 0.12157993091912689 0
0.050000000000000003 0.14151116858634571 0
0.050000000000000003 0.16149716139142353 0
0.050000000000000003 0.18149446617996348 0
0.050000000000000003 0.20149397598551741 0
0.050000000000000003 0.22149389178341869 0
0.050000000000000003 0.24149387813431575 0
0.050000000000000003 0.26149387613214908 0
0.050000000000000003 0.28149387646906993 0
0.050000000000000003 0.30149388056548154 0
0.050000000000000003 0.32149390557380403 0
0.050000000000000003 0.34149404652076937 0
0.050000000000000003 0.36149478284745357 0
0.050000000000000003 0.38149832601300065 0
0.050000000000000003 0.40151391152629212 0
0.050000000000000003 0.4215760782978118 0
0.050000000000000003 0.44179964241416519 0
0.050000000000000003 0.46252729782635127 0
0.050000000000000003 0.48474112258674662 0
0.050000000000000003 0.51282386807716229 0
0.070000000000000007 0.044367949657800936 0
0.070000000000000007 0.055490163375248494 0
0.070000000000000007 0.067533435288019542 0
0.070000000000000007 0.083368203674728414 0
0.070000000000000007 0.10194415064321216 0
0.070000000000000007 0.12159019672126657 0
0.070000000000000007 0.14151332540223605 0
0.070000000000000007 0.16149759959693263 0
0.070000000000000007 0.18149455011307913 0
0.070000000000000007 0.20149399109183533 0
0.070000000000000007 0.22149389433985328 0
0.070000000000000007 0.24149387854418253 0
0.070000000000000007 0.2614938762120898 0
0.070000000000000007 0.28149387660198077 0
0.070000000000000007 0.30149388133763799 0
0.070000000000000007 0.32149391003776978 0
0.070000000000000007 0.34149407052116698 0
0.070000000000000007 0.36149490216826702 0
0.070000000000000007 0.38149887279475392 0
0.070000000000000007 0.40151621931790293 0
0.070000000000000007 0.42158506529847417 0
0.070000000000000007 0.44183180510102188 0
0.070000000000000007 0.46262809278942868 0
0.070000000000000007 0.4849407822032194 0
0.070000000000000007 0.51254922082111809 0
0.090000000000000011 0.044389606767645758 0
0.090000000000000011 0.055554601837431133 0
0.090000000000000011 0.067630528142831228 0
0.090000000000000011 0.08343413783653747 0
0.090000000000000011 0.10196233338053473 0
0.090000000000000011 0.12159383181537289 0
0.090000000000000011 0.14151405760205324 0
0.090000000000000011 0.16149774847066781 0
0.090000000000000011 0.18149457925368126 0
0.090000000000000011 0.20149399647719224 0
0.090000000000000011 0.22149389527470195 0
0.090000000000000011 0.24149387869755426 0
0.090000000000000011 0.26149387624251114 0
0.090000000000000011 0.28149387665140513 0
0.090000000000000011 0.30149388161955848 0
0.090000000000000011 0.32149391164542274 0
0.090000000000000011 0.34149407908276064 0
0.090000000000000011 0.36149494464582271 0
0.090000000000000011 0.38149906919497856 0
0.090000000000000011 0.40151706477793248 0
0.090000000000000011 0.42158841604938402 0
0.090000000000000011 0.44184351956517659 0
0.090000000000000011 0.46265992513306919 0
0.090000000000000011 0.48498252034957989 0
0.090000000000000011 0.51253824420548533 0
0.11000000000000001 0.044395202581760308 0
0.11000000000000001 0.055569214388702916 0
0.11000000000000001 0.0676522856859917 0
0.11000000000000001 0.083451404598467241 0
0.11000000000000001 0.10196901798636071 0
0.11000000000000001 0.12159549289443142 0
0.11000000000000001 0.14151441364908199 0
0.11000000000000001 0.16149782192484402 0
0.11000000000000001 0.18149459384789665 0
0.11000000000000001 0.20149399923286812 0
0.11000000000000001 0.22149389576512993 0
0.11000000000000001 0.24149387878010156 0
0.11000000000000001 0.26149387625917775 0
0.11000000000000001 0.28149387667735531 0
0.11000000000000001 0.30149388176287317 0
0.11000000000000001 0.3214939124397988 0
0.11000000000000001 0.34149408318884938 0
0.11000000000000001 0.36149496434224787 0
0.11000000000000001 0.38149915635063875 0
0.11000000000000001 0.40151741542895969 0
0.11000000000000001 0.4215896557735756 0
0.11000000000000001 0.44184709494278929 0
0.11000000000000001 0.46266719095213482 0
0.11000000000000001 0.48499136728027104 0
0.11000000000000001 0.51254000182517545 0
0.13 0.044395763738170078 0
0.13 0.055572042431939792 0
0.13 0.067656932627497182 0
0.13 0.083455516454866902 0
0.13 0.10197092411487356 0
0.13 0.12159607024248023 0
0.13 0.14151455443210909 0
0.13 0.16149785286436311 0
0.13 0.18149460021669689 0
0.13 0.20149400047000435 0
0.13 0.2214938959915167 0
0.13 0.24149387881929088 0
0.13 0.26149387626720866 0
0.13 0.28149387668900294 0
0.13 0.30149388182424169 0
0.13 0.32149391276598865 0
0.13 0.34149408479808341 0
0.13 0.36149497164650729 0
0.13 0.38149918646729714 0
0.13 0.40151752547659031 0
0.13 0.42158999635196565 0
0.13 0.44184792515010657 0
0.13 0.46266866619585578 0
0.13 0.48499312053180604 0
0.13 0.51254080565747107 0
0.15000000000000002 0.044395812914010138 0
0.15000000000000002 0.055572543918448687 0
0.15000000000000002 0.067657844623088201 0
0.15000000000000002 0.083456406233299321 0
0.15000000000000002 0.1019713938457448 0
0.15000000000000002 0.12159623524686941 0
0.15000000000000002 0.14151460027191365 0
0.15000000000000002 0.16149786388201248 0
0.15000000000000002 0.18149460261712949 0
0.15000000000000002 0.2014940009552143 0
0.15000000000000002 0.22149389608329001 0
0.15000000000000002 0.2414938788356697 0
0.15000000000000002 0.2614938762705955 0
0.15000000000000002 0.2814938766934032 0
0.15000000000000002 0.30149388184595555 0
0.15000000000000002 0.32149391287507473 0
0.15000000000000002 0.34149408530356884 0
0.15000000000000002 0.36149497378026696 0
0.15000000000000002 0.38149919453234549 0
0.15000000000000002 0.40151755199835265 0
0.15000000000000002 0.42159006908003888 0
0.15000000000000002 0.44184808363552042 0
0.15000000000000002 0.46266892823724076 0
0.15000000000000002 0.48499343011414353 0
0.15000000000000002 0.51254099260701058 0
0.17000000000000004 0.044395823019435822 0
0.17000000000000004 0.055572631909631562 0
0.17000000000000004 0.067658011689349318 0
0.17000000000000004 0.083456581400451632 0
0.17000000000000004 0.1019714962242947 0
0.17000000000000004 0.12159627569121209 0
0.17000000000000004 0.14151461285390038 0
0.17000000000000004 0.16149786719928869 0
0.17000000000000004 0.18149460339029214 0
0.17000000000000004 0.20149400111924173 0
0.17000000000000004 0.22149389611549825 0
0.17000000000000004 0.24149387884160348 0
0.17000000000000004 0.26149387627182469 0
0.17000000000000004 0.28149387669477177 0
0.17000000000000004 0.3014938818521376 0
0.17000000000000004 0.32149391290396956 0
0.17000000000000004 0.34149408542732096 0
0.17000000000000004 0.361494974259017 0
0.17000000000000004 0.38149919617644035 0
0.17000000000000004 0.40151755688542679 0
0.17000000000000004 0.42159008128104647 0
0.17000000000000004 0.44184810844051725 0
0.17000000000000004 0.46266896789691553 0
0.17000000000000004 0.48499347711157742 0
0.17000000000000004 0.5125410247352179 0
0.19 0.044395824856908822 0
0.19 0.055572644772096155 0
0.19 0.067658036217004974 0
0.19 0.083456608137392682 0
0.19 0.10197151294622445 0
0.19 0.12159628285460991 0
0.19 0.14151461526848191 0
0.19 0.16149786788176757 0
0.19 0.18149460355825556 0
0.19 0.20149400115633875 0
0.19 0.22149389612300685 0
0.19 0.24149387884302137 0
0.19 0.26149387627211768 0
0.19 0.28149387669505255 0
0.19 0.30149388185329273 0
0.19 0.32149391290897722 0
0.19 0.34149408544706322 0
0.19 0.36149497432881417 0
0.19 0.38149919639495411 0
0.19 0.40151755748237627 0
0.19 0.42159008268150655 0
0.19 0.44184811120303458 0
0.19 0.46266897230897858 0
0.19 0.48499348241500406 0
0.19 0.51254102861312489 0
0.21000000000000002 0.044395823019435829 0
0.21000000000000002 0.055572631909631562 0
0.21000000000000002 0.067658011689349304 0
0.21000000000000002 0.083456581400451632 0
0.21000000000000002 0.10197149622429469 0
0.21000000000000002 0.12159627569121209 0
0.21000000000000002 0.14151461285390038 0
0.21000000000000002 0.16149786719928869 0
0.21000000000000002 0.18149460339029214 0
0.21000000000000002 0.20149400111924173 0
0.21000000000000002 0.22149389611549825 0
0.21000000000000002 0.24149387884160348 0
0.21000000000000002 0.26149387627182469 0
0.21000000000000002 0.28149387669477177 0
0.21000000000000002 0.3014938818521376 0
0.21000000000000002 0.32149391290396956 0
0.21000000000000002 0.34149408542732096 0
0.21000000000000002 0.361494974259017 0
0.21000000000000002 0.38149919617644035 0
0.21000000000000002 0.40151755688542679 0
0.21000000000000002 0.42159008128104647 0
0.21000000000000002 0.44184810844051725 0
0.21000000000000002 0.46266896789691553 0
0.21000000000000002 0.48499347711157742 0
0.21000000000000002 0.5125410247352179 0
0.23000000000000004 0.044395812914010138 0
0.23000000000000004 0.055572543918448687 0
0.23000000000000004 0.067657844623088201 0
0.23000000000000004 0.083456406233299321 0
0.23000000000000004 0.1019713938457448 0
0.23000000000000004 0.12159623524686941 0
0.23000000000000004 0.14151460027191365 0
0.23000000000000004 0.16149786388201248 0
0.23000000000000004 0.18149460261712949 0
0.23000000000000004 0.2014940009552143 0
0.23000000000000004 0.22149389608329001 0
0.23000000000000004 0.2414938788356697 0
0.23000000000000004 0.2614938762705955 0
0.23000000000000004 0.2814938766934032 0
0.23000000000000004 0.30149388184595555 0
0.23000000000000004 0.32149391287507473 0
0.23000000000000004 0.34149408530356884 0
0.23000000000000004 0.36149497378026696 0
0.23000000000000004 0.38149919453234549 0
0.23000000000000004 0.40151755199835265 0
0.23000000000000004 0.42159006908003888 0
0.23000000000000004 0.44184808363552042 0
0.23000000000000004 0.46266892823724076 0
0.23000000000000004 0.48499343011414353 0
0.23000000000000004 0.51254099260701058 0
0.25000000000000006 0.044395763738170078 0
0.25000000000000006 0.055572042431939792 0
0.25000000000000006 0.067656932627497182 0
0.25000000000000006 0.083455516454866902 0
0.25000000000000006 0.10197092411487356 0
0.25000000000000006 0.12159607024248023 0
0.25000000000000006 0.14151455443210909 0
0.25000000000000006 0.16149785286436311 0
0.25000000000000006 0.18149460021669689 0
0.25000000000000006 0.20149400047000435 0
0.25000000000000006 0.2214938959915167 0
0.25000000000000006 0.24149387881929088 0
0.25000000000000006 0.26149387626720866 0
0.25000000000000006 0.28149387668900294 0
0.25000000000000006 0.30149388182424169 0
0.25000000000000006 0.32149391276598865 0
0.25000000000000006 0.34149408479808341 0
0.25000000000000006 0.36149497164650729 0
0.25000000000000006 0.38149918646729714 0
0.25000000000000006 0.40151752547659031 0
0.25000000000000006 0.42158999635196565 0
0.25000000000000006 0.44184792515010657 0
0.25000000000000006 0.46266866619585578 0
0.25000000000000006 0.48499312053180604 0
0.25000000000000006 0.51254080565747107 0
0.27000000000000002 0.044395202581760308 0
0.27000000000000002 0.055569214388702909 0
0.27000000000000002 0.0676522856859917 0
0.27000000000000002 0.083451404598467241 0
0.27000000000000002 0.10196901798636071 0
0.27000000000000002 0.12159549289443142 0
0.27000000000000002 0.14151441364908199 0
0.27000000000000002 0.16149782192484402 0
0.27000000000000002 0.18149459384789665 0
0.27000000000000002 0.20149399923286812 0
0.27000000000000002 0.22149389576512993 0
0.27000000000000002 0.24149387878010156 0
0.27000000000000002 0.26149387625917775 0
0.27000000000000002 0.28149387667735531 0
0.27000000000000002 0.30149388176287317 0
0.27000000000000002 0.3214939124397988 0
0.27000000000000002 0.34149408318884938 0
0.27000000000000002 0.36149496434224787 0
0.27000000000000002 0.38149915635063875 0
0.27000000000000002 0.40151741542895969 0
0.27000000000000002 0.4215896557735756 0
0.27000000000000002 0.44184709494278929 0
0.27000000000000002 0.46266719095213482 0
0.27000000000000002 0.48499136728027104 0
0.27000000000000002 0.51254000182517545 0
0.29000000000000004 0.044389606767645765 0
0.29000000000000004 0.055554601837431133 0
0.29000000000000004 0.067630528142831228 0
0.29000000000000004 0.08343413783653747 0
0.29000000000000004 0.10196233338053473 0
0.29000000000000004 0.12159383181537289 0
0.29000000000000004 0.14151405760205324 0
0.29000000000000004 0.16149774847066781 0
0.29000000000000004 0.18149457925368126 0
0.29000000000000004 0.20149399647719224 0
0.29000000000000004 0.22149389527470195 0
0.29000000000000004 0.24149387869755426 0
0.29000000000000004 0.26149387624251114 0
0.29000000000000004 0.28149387665140513 0
0.29000000000000004 0.30149388161955848 0
0.29000000000000004 0.32149391164542274 0
0.29000000000000004 0.34149407908276064 0
0.29000000000000004 0.36149494464582271 0
0.29000000000000004 0.38149906919497856 0
0.29000000000000004 0.40151706477793248 0
0.29000000000000004 0.42158841604938402 0
0.29000000000000004 0.44184351956517659 0
0.29000000000000004 0.46265992513306919 0
0.29000000000000004 0.48498252034957989 0
0.29000000000000004 0.51253824420548533 0
0.31000000000000005 0.044367949657800929 0
0.31000000000000005 0.055490163375248494 0
0.31000000000000005 0.067533435288019542 0
0.31000000000000005 0.083368203674728414 0
0.31000000000000005 0.10194415064321216 0
0.31000000000000005 0.12159019672126657 0
0.31000000000000005 0.14151332540223605 0
0.31000000000000005 0.16149759959693263 0
0.31000000000000005 0.18149455011307913 0
0.31000000000000005 0.20149399109183533 0
0.31000000000000005 0.22149389433985328 0
0.31000000000000005 0.24149387854418253 0
0.31000000000000005 0.2614938762120898 0
0.31000000000000005 0.28149387660198077 0
0.31000000000000005 0.30149388133763799 0
0.31000000000000005 0.32149391003776978 0
0.31000000000000005 0.34149407052116698 0
0.31000000000000005 0.36149490216826702 0
0.31000000000000005 0.38149887279475392 0
0.31000000000000005 0.40151621931790293 0
0.31000000000000005 0.42158506529847417 0
0.31000000000000005 0.44183180510102188 0
0.31000000000000005 0.46262809278942868 0
0.31000000000000005 0.4849407822032194 0
0.31000000000000005 0.51254922082111809 0
0.33000000000000002 0.044651326959396914 0
0.33000000000000002 0.055339921210328553 0
0.33000000000000002 0.067138089922516547 0
0.33000000000000002 0.083162830963515871 0
0.33000000000000002 0.10189387186567692 0
0.33000000000000002 0.12157993091912689 0
0.33000000000000002 0.14151116858634571 0
0.33000000000000002 0.16149716139142353 0
0.33000000000000002 0.18149446617996348 0
0.33000000000000002 0.20149397598551741 0
0.33000000000000002 0.22149389178341869 0
0.33000000000000002 0.24149387813431575 0
0.33000000000000002 0.26149387613214908 0
0.33000000000000002 0.28149387646906993 0
0.33000000000000002 0.30149388056548154 0
0.33000000000000002 0.32149390557380403 0
0.33000000000000002 0.34149404652076937 0
0.33000000000000002 0.36149478284745357 0
0.33000000000000002 0.38149832601300065 0
0.33000000000000002 0.40151391152629212 0
0.33000000000000002 0.4215760782978118 0
0.33000000000000002 0.44179964241416519 0
0.33000000000000002 0.46252729782635127 0
0.33000000000000002 0.48474112258674662 0
0.33000000000000002 0.51282386807716229 0
0 0 0
0 0.020000000000000004 0
0 0.040000000000000001 0
0 0.54999999999999993 0
0 0.56000000000000005 0
0 0.58000000000000007 0
0.02 0 0
0.02 0.020000000000000004 0
0.02 0.040000000000000001 0
0.02 0.54999999999999993 0
0.02 0.56000000000000005 0
0.02 0.58000000000000007 0
0.040000000000000001 0 0
0.040000000000000001 0.020000000000000004 0
0.040000000000000001 0.040000000000000001 0
0.040000000000000001 0.54999999999999993 0
0.040000000000000001 0.56000000000000005 0
0.040000000000000001 0.58000000000000007 0
0.059999999999999998 0 0
0.059999999999999998 0.020000000000000004 0
0.059999999999999998 0.040000000000000001 0
0.059999999999999998 0.54999999999999993 0
0.059999999999999998 0.56000000000000005 0
0.059999999999999998 0.58000000000000007 0
0.080000000000000002 0 0
0.080000000000000002 0.020000000000000004 0
0.080000000000000002 0.040000000000000001 0
0.080000000000000002 0.54999999999999993 0
0.080000000000000002 0.56000000000000005 0
0.080000000000000002 0.58000000000000007 0
0.10000000000000001 0 0
0.10000000000000001 0.020000000000000004 0
0.10000000000000001 0.040000000000000001 0
0.10000000000000001 0.54999999999999993 0
0.10000000000000001 0.56000000000000005 0
0.10000000000000001 0.58000000000000007 0
0.12 0 0
0.12 0.020000000000000004 0
0.12 0.040000000000000001 0
0.12 0.54999999999999993 0
0.12 0.56000000000000005 0
0.12 0.58000000000000007 0
0.14000000000000001 0 0
0.14000000000000001 0.020000000000000004 0
0.14000000000000001 0.040000000000000001 0
0.14000000000000001 0.54999999999999993 0
0.14000000000000001 0.56000000000000005 0
0.14000000000000001 0.58000000000000007 0
0.16 0 0
0.16 0.020000000000000004 0
0.16 0.040000000000000001 0
0.16 0.54999999999999993 0
0.16 0.56000000000000005 0
0.16 0.58000000000000007 0
0.17999999999999999 0 0
0.17999999999999999 0.020000000000000004 0
0.17999999999999999 0.040000000000000001 0
0.17999999999999999 0.54999999999999993 0
0.17999999999999999 0.56000000000000005 0
0.17999999999999999 0.58000000000000007 0
0.20000000000000001 0 0
0.20000000000000001 0.020000000000000004 0
0.20000000000000001 0.040000000000000001 0
0.20000000000000001 0.54999999999999993 0
0.20000000000000001 0.56000000000000005 0
0.20000000000000001 0.58000000000000007 0
0.22 0 0
0.22 0.020000000000000004 0
0.22 0.040000000000000001 0
0.22 0.54999999999999993 0
0.22 0.56000000000000005 0
0.22 0.58000000000000007 0
0.23999999999999999 0 0
0.23999999999999999 0.020000000000000004 0
0.23999999999999999 0.040000000000000001 0
0.23999999999999999 0.54999999999999993 0
0.23999999999999999 0.56000000000000005 0
0.23999999999999999 0.58000000000000007 0
0.26000000000000001 0 0
0.26000000000000001 0.020000000000000004 0
0.26000000000000001 0.040000000000000001 0
0.26000000000000001 0.54999999999999993 0
0.26000000000000001 0.56000000000000005 0
0.26000000000000001 0.58000000000000007 0
0.28000000000000003 0 0
0.28000000000000003 0.020000000000000004 0
0.28000000000000003 0.040000000000000001 0
0.28000000000000003 0.54999999999999993 0
0.28000000000000003 0.56000000000000005 0
0.28000000000000003 0.58000000000000007 0
0.29999999999999999 0 0
0.29999999999999999 0.020000000000000004 0
0.29999999999999999 0.040000000000000001 0
0.29999999999999999 0.54999999999999993 0
0.29999999999999999 0.56000000000000005 0
0.29999999999999999 0.58000000000000007 0
0.32000000000000001 0 0
0.32000000000000001 0.020000000000000004 0
0.32000000000000001 0.040000000000000001 0
0.32000000000000001 0.54999999999999993 0
0.32000000000000001 0.56000000000000005 0
0.32000000000000001 0.58000000000000007 0
0.34000000000000002 0 0
0.34000000000000002 0.020000000000000004 0
0.34000000000000002 0.040000000000000001 0
0.34000000000000002 0.54999999999999993 0
0.34000000000000002 0.56000000000000005 0
0.34000000000000002 0.58000000000000007 0
0.35999999999999999 0 0
0.35999999999999999 0.020000000000000004 0
0.35999999999999999 0.040000000000000001 0
0.35999999999999999 0.54999999999999993 0
0.35999999999999999 0.56000000000000005 0
0.35999999999999999 0.58000000000000007 0
0.38 0 0
0.38 0.020000000000000004 0
0.38 0.040000000000000001 0
0.38 0.54999999999999993 0
0.38 0.56000000000000005 0
0.38 0.58000000000000007 0
0.40000000000000002 0 0
0.40000000000000002 0.020000000000000004 0
0.40000000000000002 0.040000000000000001 0
0.40000000000000002 0.54999999999999993 0
0.40000000000000002 0.56000000000000005 0
0.40000000000000002 0.58000000000000007 0
0.41999999999999998 0 0
0.41999999999999998 0.020000000000000004 0
0.41999999999999998 0.040000000000000001 0
0.41999999999999998 0.54999999999999993 0
0.41999999999999998 0.56000000000000005 0
0.41999999999999998 0.58000000000000007 0
0.44 0 0
0.44 0.020000000000000004 0
0.44 0.040000000000000001 0
0.44 0.54999999999999993 0
0.44 0.56000000000000005 0
0.44 0.58000000000000007 0
0.46000000000000002 0 0
0.46000000000000002 0.020000000000000004 0
0.46000000000000002 0.040000000000000001 0
0.46000000000000002 0.54999999999999993 0
0.46000000000000002 0.56000000000000005 0
0.46000000000000002 0.58000000000000007 0
0.47999999999999998 0 0
0.47999999999999998 0.020000000000000004 0
0.47999999999999998 0.040000000000000001 0
0.47999999999999998 0.54999999999999993 0
0.47999999999999998 0.56000000000000005 0
0.47999999999999998 0.58000000000000007 0
0.5 0 0
0.5 0.020000000000000004 0
0.5 0.040000000000000001 0
0.5 0.54999999999999993 0
0.5 0.56000000000000005 0
0.5 0.58000000000000007 0
0.52000000000000002 0 0
0.52000000000000002 0.020000000000000004 0
0.52000000000000002 0.040000000000000001 0
0.52000000000000002 0.54999999999999993 0
0.52000000000000002 0.56000000000000005 0
0.52000000000000002 0.58000000000000007 0
0.54000000000000004 0 0
0.54000000000000004 0.020000000000000004 0
0.54000000000000004 0.040000000000000001 0
0.54000000000000004 0.54999999999999993 0
0.54000000000000004 0.56000000000000005 0
0.54000000000000004 0.58000000000000007 0
0.56000000000000005 0 0
0.56000000000000005 0.020000000000000004 0
0.56000000000000005 0.040000000000000001 0
0.56000000000000005 0.54999999999999993 0
0.56000000000000005 0.56000000000000005 0
0.56000000000000005 0.58000000000000007 0
0.57999999999999996 0 0
0.57999999999999996 0.020000000000000004 0
0.57999999999999996 0.040000000000000001 0
0.57999999999999996 0.54999999999999993 0
0.57999999999999996 0.56000000000000005 0
0.57999999999999996 0.58000000000000007 0
0.59999999999999998 0 0
0.59999999999999998 0.020000000000000004 0
0.59999999999999998 0.040000000000000001 0
0.59999999999999998 0.54999999999999993 0
0.59999999999999998 0.56000000000000005 0
0.59999999999999998 0.58000000000000007 0
0.62 0 0
0.62 0.020000000000000004 0
0.62 0.040000000000000001 0
0.62 0.54999999999999993 0
0.62 0.56000000000000005 0
0.62 0.58000000000000007 0
0.64000000000000001 0 0
0.64000000000000001 0.020000000000000004 0
0.64000000000000001 0.040000000000000001 0
0.64000000000000001 0.54999999999999993 0
0.64000000000000001 0.56000000000000005 0
0.64000000000000001 0.58000000000000007 0
0.66000000000000003 0 0
0.66000000000000003 0.020000000000000004 0
0.66000000000000003 0.040000000000000001 0
0.66000000000000003 0.54999999999999993 0
0.66000000000000003 0.56000000000000005 0
0.66000000000000003 0.58000000000000007 0
0.68000000000000005 0 0
0.68000000000000005 0.020000000000000004 0
0.68000000000000005 0.040000000000000001 0
0.68000000000000005 0.54999999999999993 0
0.68000000000000005 0.56000000000000005 0
0.68000000000000005 0.58000000000000007 0
0.70000000000000007 0 0
0.70000000000000007 0.020000000000000004 0
0.70000000000000007 0.040000000000000001 0
0.70000000000000007 0.54999999999999993 0
0.70000000000000007 0.56000000000000005 0
0.70000000000000007 0.58000000000000007 0
0.71999999999999997 0 0
0.71999999999999997 0.020000000000000004 0
0.71999999999999997 0.040000000000000001 0
0.71999999999999997 0.54999999999999993 0
0.71999999999999997 0.56000000000000005 0
0.71999999999999997 0.58000000000000007 0
0.73999999999999999 0 0
0.73999999999999999 0.020000000000000004 0
0.73999999999999999 0.040000000000000001 0
0.73999999999999999 0.54999999999999993 0
0.73999999999999999 0.56000000000000005 0
0.73999999999999999 0.58000000000000007 0
0.76000000000000001 0 0
0.76000000000000001 0.020000000000000004 0
0.76000000000000001 0.040000000000000001 0
0.76000000000000001 0.54999999999999993 0
0.76000000000000001 0.56000000000000005 0
0.76000000000000001 0.58000000000000007 0
0.78000000000000003 0 0
0.78000000000000003 0.020000000000000004 0
0.78000000000000003 0.040000000000000001 0
0.78000000000000003 0.54999999999999993 0
0.78000000000000003 0.56000000000000005 0
0.78000000000000003 0.58000000000000007 0
0.80000000000000004 0 0
0.80000000000000004 0.020000000000000004 0
0.80000000000000004 0.040000000000000001 0
0.80000000000000004 0.54999999999999993 0
0.80000000000000004 0.56000000000000005 0
0.80000000000000004 0.58000000000000007 0
0.82000000000000006 0 0
0.82000000000000006 0.020000000000000004 0
0.82000000000000006 0.040000000000000001 0
0.82000000000000006 0.54999999999999993 0
0.82000000000000006 0.56000000000000005 0
0.82000000000000006 0.58000000000000007 0
0.83999999999999997 0 0
0.83999999999999997 0.020000000000000004 0
0.83999999999999997 0.040000000000000001 0
0.83999999999999997 0.54999999999999993 0
0.83999999999999997 0.56000000000000005 0
0.83999999999999997 0.58000000000000007 0
0.85999999999999999 0 0
0.85999999999999999 0.020000000000000004 0
0.85999999999999999 0.040000000000000001 0
0.85999999999999999 0.54999999999999993 0
0.85999999999999999 0.56000000000000005 0
0.85999999999999999 0.58000000000000007 0
0.88 0 0
0.88 0.020000000000000004 0
0.88 0.040000000000000001 0
0.88 0.54999999999999993 0
0.88 0.56000000000000005 0
0.88 0.58000000000000007 0
0.90000000000000002 0 0
0.90000000000000002 0.020000000000000004 0
0.90000000000000002 0.040000000000000001 0
0.90000000000000002 0.54999999999999993 0
0.90000000000000002 0.56000000000000005 0
0.90000000000000002 0.58000000000000007 0
0.92000000000000004 0 0
0.92000000000000004 0.020000000000000004 0
0.92000000000000004 0.040000000000000001 0
0.92000000000000004 0.54999999999999993 0
0.92000000000000004 0.56000000000000005 0
0.92000000000000004 0.58000000000000007 0
0.94000000000000006 0 0
0.94000000000000006 0.020000000000000004 0
0.94000000000000006 0.040000000000000001 0
0.94000000000000006 0.54999999999999993 0
0.94000000000000006 0.56000000000000005 0
0.94000000000000006 0.58000000000000007 0
0.95999999999999996 0 0
0.95999999999999996 0.020000000000000004 0
0.95999999999999996 0.040000000000000001 0
0.95999999999999996 0.54999999999999993 0
0.95999999999999996 0.56000000000000005 0
0.95999999999999996 0.58000000000000007 0
0.97999999999999998 0 0
0.97999999999999998 0.020000000000000004 0
0.97999999999999998 0.040000000000000001 0
0.97999999999999998 0.54999999999999993 0
0.97999999999999998 0.56000000000000005 0
0.97999999999999998 0.58000000000000007 0
1 0 0
1 0.020000000000000004 0
1 0.040000000000000001 0
1 0.54999999999999993 0
1 0.56000000000000005 0
1 0.58000000000000007 0
VERTICES 681 1362
1 0
1 1
1 2
1 3
1 4
1 5
1 6
1 7
1 8
1 9
1 10
1 11
1 12
1 13
1 14
1 15
1 16
1 17
1 18
1 19
1 20
1 21
1 22
1 23
1 24
1 25
1 26
1 27
1 28
1 29
1 30
1 31
1 32
1 33
1 34
1 35
1 36
1 37
1 38
1 39
1 40
1 41
1 42
1 43
1 44
1 45
1 46
1 47
1 48
1 49
1 50
1 51
1 52
1 53
1 54
1 55
1 56
1 57
1 58
1 59
1 60
1 61
1 62
1 63
1 64
1 65
1 66
1 67
1 68
1 69
1 70
1 71
1 72
1 73
1 74
1 75
1 76
1 77
1 78
1 79
1 80
1 81
1 82
1 83
1 84
1 85
1 86
1 87
1 88
1 89
1 90
1 91
1 92
1 93
1 94
1 95
1 96
1 97
1 98
1 99
1 100
1 101
1 102
1 103
1 104
1 105
1 106
1 107
1 108
1 109
1 110
1 111
1 112
1 113
1 114
1 115
1 116
1 117
1 118
1 119
1 120
1 121
1 122
1 123
1 124
1 125
1 126
1 127
1 128
1 129
1 130
1 131
1 132
1 133
1 134
1 135
1 136
1 137
1 138
1 139
1 140
1 141
1 142
1 143
1 144
1 145
1 146
1 147
1 148
1 149
1 150
1 151
1 152
1 153
1 154
1 155
1 156
1 157
1 158
1 159
1 160
1 161
1 162
1 163
1 164
1 165
1 166
1 167
1 168
1 169
1 170
1 171
1 172
1 173
1 174
1 175
1 176
1 177
1 178
1 179
1 180
1 181
1 182
1 183
1 184
1 185
1 186
1 187
1 188
1 189
1 190
1 191
1 192
1 193
1 194
1 195
1 196
1 197
1 198
1 199
1 200
1 201
1 202
1 203
1 204
1 205
1 206
1 207
1 208
1 209
1 210
1 211
1 212
1 213
1 214
1 215
1 216
1 217
1 218
1 219
1 220
1 221
1 222
1 223
1 224
1 225
1 226
1 227
1 228
1 229
1 230
1 231
1 232
1 233
1 234
1 235
1 236
1 237
1 238
1 239
1 240
1 241
1 242
1 243
1 244
1 245
1 246
1 247
1 248
1 249
1 250
1 251
1 252
1 253
1 254
1 255
1 256
1 257
1 258
1 259
1 260
1 261
1 262
1 263
1 264
1 265
1 266
1 267
1 268
1 269
1 270
1 271
1 272
1 273
1 274
1 275
1 276
1 277
1 278
1 279
1 280
1 281
1 282
1 283
1 284
1 285
1 286
1 287
1 288
1 289
1 290
1 291
1 292
1 293
1 294
1 295
1 296
1 297
1 298
1 299
1 300
1 301
1 302
1 303
1 304
1 305
1 306
1 307
1 308
1 309
1 310
1 311
1 312
1 313
1 314
1 315
1 316
1 317
1 318
1 319
1 320
1 321
1 322
1 323
1 324
1 325
1 326
1 327
1 328
1 329
1 330
1 331
1 332
1 333
1 334
1 335
1 336
1 337
1 338
1 339
1 340
1 341
1 342
1 343
1 344
1 345
1 346
1 347
1 348
1 349
1 350
1 351
1 352
1 353
1 354
1 355
1 356
1 357
1 358
1 359
1 360
1 361
1 362
1 363
1 364
1 365
1 366
1 367
1 368
1 369
1 370
1 371
1 372
1 373
1 374
1 375
1 376
1 377
1 378
1 379
1 380
1 381
1 382
1 383
1 384
1 385
1 386
1 387
1 388
1 389
1 390
1 391
1 392
1 393
1 394
1 395
1 396
1 397
1 398
1 399
1 400
1 401
1 402
1 403
1 404
1 405
1 406
1 407
1 408
1 409
1 410
1 411
1 412
1 413
1 414
1 415
1 416
1 417
1 418
1 419
1 420
1 421
1 422
1 423
1 424
1 425
1 426
1 427
1 428
1 429
1 430
1 431
1 432
1 433
1 434
1 435
1 436
1 437
1 438
1 439
1 440
1 441
1 442
1 443
1 444
1 445
1 446
1 447
1 448
1 449
1 450
1 451
1 452
1 453
1 454
1 455
1 456
1 457
1 458
1 459
1 460
1 461
1 462
1 463
1 464
1 465
1 466
1 467
1 468
1 469
1 470
1 471
1 472
1 473
1 474
1 475
1 476
1 477
1 478
1 479
1 480
1 481
1 482
1 483
1 484
1 485
1 486
1 487
1 488
1 489
1 490
1 491
1 492
1 493
1 494
1 495
1 496
1 497
1 498
1 499
1 500
1 501
1 502
1 503
1 504
1 505
1 506
1 507
1 508
1 509
1 510
1 511
1 512
1 513
1 514
1 515
1 516
1 517
1 518
1 519
1 520
1 521
1 522
1 523
1 524
1 525
1 526
1 527
1 528
1 529
1 530
1 531
1 532
1 533
1 534
1 535
1 536
1 537
1 538
1 539
1 540
1 541
1 542
1 543
1 544
1 545
1 546
1 547
1 548
1 549
1 550
1 551
1 552
1 553
1 554
1 555
1 556
1 557
1 558
1 559
1 560
1 561
1 562
1 563
1 564
1 565
1 566
1 567
1 568
1 569
1 570
1 571
1 572
1 573
1 574
1 575
1 576
1 577
1 578
1 579
1 580
1 581
1 582
1 583
1 584
1 585
1 586
1 587
1 588
1 589
1 590
1 591
1 592
1 593
1 594
1 595
1 596
1 597
1 598
1 599
1 600
1 601
1 602
1 603
1 604
1 605
1 606
1 607
1 608
1 609
1 610
1 611
1 612
1 613
1 614
1 615
1 616
1 617
1 618
1 619
1 620
1 621
1 622
1 623
1 624
1 625
1 626
1 627
1 628
1 629
1 630
1 631
1 632
1 633
1 634
1 635
1 636
1 637
1 638
1 639
1 640
1 641
1 642
1 643
1 644
1 645
1 646
1 647
1 648
1 649
1 650
1 651
1 652
1 653
1 654
1 655
1 656
1 657
1 658
1 659
1 660
1 661
1 662
1 663
1 664
1 665
1 666
1 667
1 668
1 669
1 670
1 671
1 672
1 673
1 674
1 675
1 676
1 677
1 678
1 679
1 680
POINT_DATA 681
SCALARS is_boundary int 1
LOOKUP_TABLE default
0
0
0
0
0
0
0
0
0
0
0
0
0
0
0
0
0
0
0
0
0
0
0
0
0
0
0
0
0
0
0
0
0
0
0
0
0
0
0
0
0
0
0
0
0
0
0
0
0
0
0
0
0
0
0
0
0
0
0
0
0
0
0
0
0
0
0
0
0
0
0
0
0
0
0
0
0
0
0
0
0
0
0
0
0
0
0
0
0
0
0
0
0
0
0
0
0
0
0
0
0
0
0
0
0
0
0
0
0
0
0
0
0
0
0
0
0
0
0
0
0
0
0
0
0
0
0
0
0
0
0
0
0
0
0
0
0
0
0
0
0
0
0
0
0
0
0
0
0
0
0
0
0
0
0
0
0
0
0
0
0
0
0
0
0
0
0
0
0
0
0
0
0
0
0
0
0
0
0
0
0
0
0
0
0
0
0
0
0
0
0
0
0
0
0
0
0
0
0
0
0
0
0
0
0
0
0
0
0
0
0
0
0
0
0
0
0
0
0
0
0
0
0
0
0
0
0
0
0
0
0
0
0
0
0
0
0
0
0
0
0
0
0
0
0
0
0
0
0
0
0
0
0
0
0
0
0
0
0
0
0
0
0
0
0
0
0
0
0
0
0
0
0
0
0
0
0
0
0
0
0
0
0
0
0
0
0
0
0
0
0
0
0
0
0
0
0
0
0
0
0
0
0
0
0
0
0
0
0
0
0
0
0
0
0
0
0
0
0
0
0
0
0
0
0
0
0
0
0
0
0
0
0
0
0
0
0
0
0
0
0
0
0
0
0
0
0
0
0
0
0
0
0
0
0
0
0
0
0
0
0
0
0
0
0
0
0
0
0
0
0
0
0
0
0
1
1
1
1
1
1
1
1
1
1
1
1
1
1
1
1
1
1
1
1
1
1
1
1
1
1
1
1
1
1
1
1
1
1
1
1
1
1
1
1
1
1
1
1
1
1
1
1
1
1
1
1
1
1
1
1
1
1
1
1
1
1
1
1
1
1
1
1
1
1
1
1
1
1
1
1
1
1
1
1
1
1
1
1
1
1
1
1
1
1
1
1
1
1
1
1
1
1
1
1
1
1
1
1
1
1
1
1
1
1
1
1
1
1
1
1
1
1
1
1
1
1
1
1
1
1
1
1
1
1
1
1
1
1
1
1
1
1
1
1
1
1
1
1
1
1
1
1
1
1
1
1
1
1
1
1
1
1
1
1
1
1
1
1
1
1
1
1
1
1
1
1
1
1
1
1
1
1
1
1
1
1
1
1
1
1
1
1
1
1
1
1
1
1
1
1
1
1
1
1
1
1
1
1
1
1
1
1
1
1
1
1
1
1
1
1
1
1
1
1
1
1
1
1
1
1
1
1
1
1
1
1
1
1
1
1
1
1
1
1
1
1
1
1
1
1
1
1
1
1
1
1
1
1
1
1
1
1
1
1
1
1
1
1
1
1
1
1
1
1
1
1
1
1
1
1
1
1
1
1
1
1
1
1
1
1
1
1
1
1
1
1
1
1
1
1
1
1
1
1
1
1
1
1
1
1
SCALARS rho float 1
LOOKUP_TABLE default
1020
1020
1020
962.97504365913665
862
862
862
862
862
862
862
862
862
862
862
862
862
862
862
862
862
862
862
862
850
1020
1020
1020
1020
1020
1010.6962139230654
1001.4586113257692
999.50876239292916
999.11048670321657
999.032750002081
999.01837214965576
999.01585704476906
999.01542280634408
999.01523309496451
999.01448176240001
999.01038365987893
998.98943101694908
998.89085751793618
998.46779394137707
996.82902300156297
991.1785847282024
974.12544168386148
929.15500678484409
862
850
1020
1020
1020
1020
1020
1012.2758488190022
1002.5594950706386
1000.5169100367903
1000.0998978972877
1000.0183145007747
1000.0031745822307
1000.000516592904
1000.0000559926157
999.99985460366452
999.99906053320228
999.99474375261752
999.97273991405405
999.86949676098197
999.42736908536676
997.71831167234859
991.84595038196471
974.27433392299645
929.03293385301254
862
850
1020
1020
1020
1020
1020
1012.4816328024024
1002.6058167649774
1000.5266947331888
1000.1019221115898
1000.0187184940555
1000.0032511638299
1000.0005301733613
1000.0000576150919
999.9998509619893
999.99903846572761
999.99463000484911
999.97219695446302
999.86710363697875
999.41774812698168
997.68405057420409
991.74450900695206
974.05762563759913
928.83784816491129
862
850
1020
1020
1020
1020
1020
1012.5447756283299
1002.6231443579118
1000.5307579709274
1000.1028068682372
1000.0189006037056
1000.0032865979092
1000.0005366218386
1000.0000584237573
999.99984935832435
999.99902897800575
999.99458296508305
999.97198248472364
999.86621190253527
999.41444079163443
997.67357087461255
991.71837146423491
974.01398745058555
928.80415304884809
862
850
1020
1020
1020
1020
1020
1012.5609261667446
1002.6284146639764
1000.5321599954607
1000.1031371145089
1000.0189720308806
1000.0033010021712
1000.0005393249803
1000.0000587851284
999.99984877113729
999.99902559770658
999.99456706222554
999.97191431467559
999.86594895832559
999.41355395389246
997.67108179310344
991.71301078803322
974.00616052881628
928.79850153290886
862
850
1020
1020
1020
1020
1020
1012.5645458234917
1002.6297703323853
1000.5325661726265
1000.1032415749398
1000.0189960408625
1000.0033060588862
1000.0005403073692
1000.0000589265685
999.99984859761457
999.99902462343061
999.99456276451906
999.97189720277879
999.86588830422602
999.41336830486148
997.67061352511814
991.71209888613316
974.00492264486638
928.79762848422956
862
850
1020
1020
1020
1020
1020
1012.5651480726908
1002.6300185107052
1000.5326471904591
1000.1032638879788
1000.0190014331642
1000.0033072362487
1000.0005405425513
1000.0000589624765
999.99984856413903
999.99902443830319
999.99456199708584
999.97189435569021
999.86587896296305
999.41334192898807
997.67055179693284
991.71198520459052
974.004772451299
928.79752221664421
862
850
1020
1020
1020
1020
1020
1012.5645458234901
1002.6297703323839
1000.5325661726251
1000.1032415749387
1000.0189960408611
1000.0033060588848
1000.0005403073681
1000.0000589265674
999.99984859761321
999.99902462342925
999.99456276451792
999.97189720277743
999.86588830422488
999.41336830486034
997.67061352511678
991.7120988861318
974.00492264486502
928.79762848422843
862
850
1020
1020
1020
1020
1020
1012.5609261667446
1002.6284146639762
1000.5321599954607
1000.1031371145089
1000.0189720308806
1000.0033010021712
1000.0005393249803
1000.0000587851282
999.99984877113729
999.99902559770658
999.99456706222531
999.97191431467559
999.86594895832559
999.41355395389246
997.67108179310344
991.71301078803276
974.00616052881651
928.79850153290886
862
850
1020
1020
1020
1020
1020
1012.5447756283304
1002.6231443579122
1000.5307579709279
1000.1028068682378
1000.0189006037062
1000.0032865979099
1000.0005366218393
1000.0000584237578
999.99984935832504
999.99902897800644
999.99458296508374
999.97198248472409
999.86621190253595
999.41444079163512
997.67357087461301
991.71837146423559
974.01398745058577
928.80415304884878
862
850
1020
1020
1020
1020
1020
1012.4816328024026
1002.6058167649778
1000.5266947331893
1000.1019221115901
1000.018718494056
1000.0032511638303
1000.0005301733615
1000.0000576150924
999.99985096198952
999.99903846572784
999.99463000484911
999.97219695446302
999.86710363697944
999.41774812698213
997.68405057420455
991.74450900695228
974.05762563759936
928.83784816491175
862
850
1020
1020
1020
1020
1020
1012.2758488190016
1002.5594950706381
1000.5169100367896
1000.0998978972873
1000.0183145007743
1000.00317458223
1000.0005165929033
1000.0000559926152
999.99985460366383
999.9990605332016
999.99474375261707
999.97273991405336
999.86949676098129
999.42736908536608
997.71831167234791
991.84595038196426
974.27433392299577
929.03293385301208
862
850
1020
1020
1020
1020
1020
1010.6962139230661
1001.4586113257699
999.50876239293007
999.11048670321725
999.03275000208168
999.01837214965667
999.01585704476997
999.01542280634476
999.0152330949652
999.01448176240069
999.01038365987961
998.98943101694999
998.89085751793687
998.46779394137752
996.82902300156366
991.17858472820285
974.12544168386194
929.15500678484477
862
850
1020
1020
1020
962.97504365913801
862
862
862
862
862
862
862
862
862
862
862
862
862
862
862
862
862
862
862
862
850
1000
1000
1000
1000
1000
1000
1000
1000
1000
1000
1000
1000
1000
1000
1000
1000
1000
1000
1000
1000
1000
1000
1000
1000
1000
1000
1000
1000
1000
1000
1000
1000
1000
1000
1000
1000
1000
1000
1000
1000
1000
1000
1000
1000
1000
1000
1000
1000
1000
1000
1000
1000
1000
1000
1000
1000
1000
1000
1000
1000
1000
1000
1000
1000
1000
1000
1000
1000
1000
1000
1000
1000
1000
1000
1000
1000
1000
1000
1000
1000
1000
1000
1000
1000
1000
1000
1000
1000
1000
1000
1000
1000
1000
1000
1000
1000
1000
1000
1000
1000
1000
1000
1000
1000
1000
1000
1000
1000
1000
1000
1000
1000
1000
1000
1000
1000
1000
1000
1000
1000
1000
1000
1000
1000
1000
1000
1000
1000
1000
1000
1000
1000
1000
1000
1000
1000
1000
1000
1000
1000
1000
1000
1000
1000
1000
1000
1000
1000
1000
1000
1000
1000
1000
1000
1000
1000
1000
1000
1000
1000
1000
1000
1000
1000
1000
1000
1000
1000
1000
1000
1000
1000
1000
1000
1000
1000
1000
1000
1000
1000
1000
1000
1000
1000
1000
1000
1000
1000
1000
1000
1000
1000
1000
1000
1000
1000
1000
1000
1000
1000
1000
1000
1000
1000
1000
1000
1000
1000
1000
1000
1000
1000
1000
1000
1000
1000
1000
1000
1000
1000
1000
1000
1000
1000
1000
1000
1000
1000
1000
1000
1000
1000
1000
1000
1000
1000
1000
1000
1000
1000
1000
1000
1000
1000
1000
1000
1000
1000
1000
1000
1000
1000
1000
1000
1000
1000
1000
1000
1000
1000
1000
1000
1000
1000
1000
1000
1000
1000
1000
1000
1000
1000
1000
1000
1000
1000
1000
1000
1000
1000
1000
1000
1000
1000
1000
1000
1000
1000
1000
1000
1000
1000
1000
1000
1000
1000
1000
1000
1000
1000
1000
1000
1000
1000
1000
1000
SCALARS p float 1
LOOKUP_TABLE default
25004.681136676067
25004.681136676067
25004.681136676067
0
0
0
0
0
0
0
0
0
0
0
0
0
0
0
0
0
0
0
0
0
0
25004.681136676067
25004.681136676067
25004.681136676067
25004.681136676067
25004.681136676067
13002.910319552544
1724.6091901584616
0
0
0
0
0
0
0
0
0
0
0
0
0
0
0
0
0
0
25004.681136676067
25004.681136676067
25004.681136676067
25004.681136676067
25004.681136676067
14994.352189426354
3036.272107051946
609.45093802701172
117.63505447528372
21.561014920866878
3.7371537934642367
0.60813410906372622
0.065914518239676825
0
0
0
0
0
0
0
0
0
0
0
0
25004.681136676067
25004.681136676067
25004.681136676067
25004.681136676067
25004.681136676067
15255.159611191833
3091.652472198105
621.00559212930796
120.01940266961729
22.0366486498116
3.8273073900551302
0.62412107350776791
0.067824497802299835
0
0
0
0
0
0
0
0
0
0
0
0
25004.681136676067
25004.681136676067
25004.681136676067
25004.681136676067
25004.681136676067
15335.249638842697
3112.3725950902062
625.80402982824478
121.06157805602747
22.251052325248253
3.869021206236591
0.63171224526638836
0.068776459257906861
0
0
0
0
0
0
0
0
0
0
0
0
25004.681136676067
25004.681136676067
25004.681136676067
25004.681136676067
25004.681136676067
15355.739709845699
3118.6751885193798
627.45976302738529
121.45058422089777
22.33514594964538
3.8859782386098174
0.63489439395688152
0.069201865269809468
0
0
0
0
0
0
0
0
0
0
0
0
25004.681136676067
25004.681136676067
25004.681136676067
25004.681136676067
25004.681136676067
15360.332211116711
3120.2964219162172
627.93944412330552
121.57363119554567
22.363413720047987
3.8919311215247658
0.63605086612862194
0.06936836870222253
0
0
0
0
0
0
0
0
0
0
0
0
25004.681136676067
25004.681136676067
25004.681136676067
25004.681136676067
25004.681136676067
15361.096334623853
3120.5932178799067
628.03512350362121
121.59991438198482
22.369762261270424
3.8933171400978219
0.63632772338825416
0.069410639570399724
0
0
0
0
0
0
0
0
0
0
0
0
25004.681136676067
25004.681136676067
25004.681136676067
25004.681136676067
25004.681136676067
15360.332211114732
3120.2964219146488
627.93944412173721
121.57363119423871
22.363413718479642
3.8919311199564204
0.63605086456027649
0.069368367395267985
0
0
0
0
0
0
0
0
0
0
0
0
25004.681136676067
25004.681136676067
25004.681136676067
25004.681136676067
25004.681136676067
15355.739709845699
3118.6751885191184
627.45976302738529
121.45058422089777
22.33514594964538
3.8859782386098174
0.63489439395688152
0.069201865008418559
0
0
0
0
0
0
0
0
0
0
0
0
25004.681136676067
25004.681136676067
25004.681136676067
25004.681136676067
25004.681136676067
15335.249638843257
3112.3725950909902
625.80402982876751
121.06157805681164
22.251052326293816
3.8690212070207637
0.63171224605056109
0.068776459780688678
0
0
0
0
0
0
0
0
0
0
0
0
25004.681136676067
25004.681136676067
25004.681136676067
25004.681136676067
25004.681136676067
15255.159611192132
3091.6524721986275
621.0055921298308
120.01940266987869
22.036648650334381
3.827307390577912
0.62412107376915882
0.067824498586472562
0
0
0
0
0
0
0
0
0
0
0
0
25004.681136676067
25004.681136676067
25004.681136676067
25004.681136676067
25004.681136676067
14994.352189425495
3036.2721070513858
609.4509380262275
117.63505447476095
21.561014920344096
3.737153792680064
0.6081341082795535
0.065914517716895007
0
0
0
0
0
0
0
0
0
0
0
0
25004.681136676067
25004.681136676067
25004.681136676067
25004.681136676067
25004.681136676067
13002.910319553366
1724.6091901592458
0
0
0
0
0
0
0
0
0
0
0
0
0
0
0
0
0
0
25004.681136676067
25004.681136676067
25004.681136676067
0
0
0
0
0
0
0
0
0
0
0
0
0
0
0
0
0
0
0
0
0
0
0
0
0
0
0
0
0
23643.816850331492
24932.788261648344
0
0
0
0
24956.878856411258
24998.904452939296
0
0
0
0
24980.72783161416
25001.668849495345
0
0
0
0
24981.454715558812
25001.88532186134
0
0
0
0
24981.422447156448
25001.879652290918
0
0
0
0
24981.405169274389
25001.878085180164
0
0
0
0
24981.402578283683
25001.877773914264
0
0
0
0
24981.402248177772
25001.87771770409
0
0
0
0
24981.402194946706
25001.877707999469
0
0
0
0
24981.402194946706
25001.877707999171
0
0
0
0
24981.40224817747
25001.877717704388
0
0
0
0
24981.402578283083
25001.877773914563
0
0
0
0
24981.405169274389
25001.878085180462
0
0
0
0
24981.422447157045
25001.879652290918
0
0
0
0
24981.454715558513
25001.885321861639
0
0
0
0
24980.72783161416
25001.668849494785
0
0
0
0
24956.878856411258
24998.904452939296
0
0
0
0
23643.816850331492
24932.788261647747
0
0
0
0
0
0
0
0
0
0
0
0
0
0
0
0
0
0
0
0
0
0
0
0
0
0
0
0
0
0
0
0
0
0
0
0
0
0
0
0
0
0
0
0
0
0
0
0
0
0
0
0
0
0
0
0
0
0
0
0
0
0
0
0
0
0
0
0
0
0
0
0
0
0
0
0
0
0
0
0
0
0
0
0
0
0
0
0
0
0
0
0
0
0
0
0
0
0
0
0
0
0
0
0
0
0
0
0
0
0
0
0
0
0
0
0
0
0
0
0
0
0
0
0
0
0
0
0
0
0
0
0
0
0
0
0
0
0
0
0
0
0
0
0
0
0
0
0
0
0
0
0
0
0
0
0
0
0
0
0
0
0
0
0
0
0
0
0
0
0
0
0
0
0
0
0
0
0
0
0
0
0
0
0
0
0
0
0
0
0
0
0
0
0
0
SCALARS m float 1
LOOKUP_TABLE default
0.39942306611962441
0.39942306611962441
0.39942306611962441
0.39942306611962441
0.39942306611962441
0.39942306611962441
0.39942306611962441
0.39942306611962441
0.39942306611962441
0.39942306611962441
0.39942306611962441
0.39942306611962441
0.39942306611962441
0.39942306611962441
0.39942306611962441
0.39942306611962441
0.39942306611962441
0.39942306611962441
0.39942306611962441
0.39942306611962441
0.39942306611962441
0.39942306611962441
0.39942306611962441
0.39942306611962441
0.39942306611962441
0.39942306611962441
0.39942306611962441
0.39942306611962441
0.39942306611962441
0.39942306611962441
0.39942306611962441
0.39942306611962441
0.39942306611962441
0.39942306611962441
0.39942306611962441
0.39942306611962441
0.39942306611962441
0.39942306611962441
0.39942306611962441
0.39942306611962441
0.39942306611962441
0.39942306611962441
0.39942306611962441
0.39942306611962441
0.39942306611962441
0.39942306611962441
0.39942306611962441
0.39942306611962441
0.39942306611962441
0.39942306611962441
0.39942306611962441
0.39942306611962441
0.39942306611962441
0.39942306611962441
0.39942306611962441
0.39942306611962441
0.39942306611962441
0.39942306611962441
0.39942306611962441
0.39942306611962441
0.39942306611962441
0.39942306611962441
0.39942306611962441
0.39942306611962441
0.39942306611962441
0.39942306611962441
0.39942306611962441
0.39942306611962441
0.39942306611962441
0.39942306611962441
0.39942306611962441
0.39942306611962441
0.39942306611962441
0.39942306611962441
0.39942306611962441
0.39942306611962441
0.39942306611962441
0.39942306611962441
0.39942306611962441
0.39942306611962441
0.39942306611962441
0.39942306611962441
0.39942306611962441
0.39942306611962441
0.39942306611962441
0.39942306611962441
0.39942306611962441
0.39942306611962441
0.39942306611962441
0.39942306611962441
0.39942306611962441
0.39942306611962441
0.39942306611962441
0.39942306611962441
0.39942306611962441
0.39942306611962441
0.39942306611962441
0.39942306611962441
0.39942306611962441
0.39942306611962441
0.39942306611962441
0.39942306611962441
0.39942306611962441
0.39942306611962441
0.39942306611962441
0.39942306611962441
0.39942306611962441
0.39942306611962441
0.39942306611962441
0.39942306611962441
0.39942306611962441
0.39942306611962441
0.39942306611962441
0.39942306611962441
0.39942306611962441
0.39942306611962441
0.39942306611962441
0.39942306611962441
0.39942306611962441
0.39942306611962441
0.39942306611962441
0.39942306611962441
0.39942306611962441
0.39942306611962441
0.39942306611962441
0.39942306611962441
0.39942306611962441
0.39942306611962441
0.39942306611962441
0.39942306611962441
0.39942306611962441
0.39942306611962441
0.39942306611962441
0.39942306611962441
0.39942306611962441
0.39942306611962441
0.39942306611962441
0.39942306611962441
0.39942306611962441
0.39942306611962441
0.39942306611962441
0.39942306611962441
0.39942306611962441
0.39942306611962441
0.39942306611962441
0.39942306611962441
0.39942306611962441
0.39942306611962441
0.39942306611962441
0.39942306611962441
0.39942306611962441
0.39942306611962441
0.39942306611962441
0.39942306611962441
0.39942306611962441
0.39942306611962441
0.39942306611962441
0.39942306611962441
0.39942306611962441
0.39942306611962441
0.39942306611962441
0.39942306611962441
0.39942306611962441
0.39942306611962441
0.39942306611962441
0.39942306611962441
0.39942306611962441
0.39942306611962441
0.39942306611962441
0.39942306611962441
0.39942306611962441
0.39942306611962441
0.39942306611962441
0.39942306611962441
0.39942306611962441
0.39942306611962441
0.39942306611962441
0.39942306611962441
0.39942306611962441
0.39942306611962441
0.39942306611962441
0.39942306611962441
0.39942306611962441
0.39942306611962441
0.39942306611962441
0.39942306611962441
0.39942306611962441
0.39942306611962441
0.39942306611962441
0.39942306611962441
0.39942306611962441
0.39942306611962441
0.39942306611962441
0.39942306611962441
0.39942306611962441
0.39942306611962441
0.39942306611962441
0.39942306611962441
0.39942306611962441
0.39942306611962441
0.39942306611962441
0.39942306611962441
0.39942306611962441
0.39942306611962441
0.39942306611962441
0.39942306611962441
0.39942306611962441
0.39942306611962441
0.39942306611962441
0.39942306611962441
0.39942306611962441
0.39942306611962441
0.39942306611962441
0.39942306611962441
0.39942306611962441
0.39942306611962441
0.39942306611962441
0.39942306611962441
0.39942306611962441
0.39942306611962441
0.39942306611962441
0.39942306611962441
0.39942306611962441
0.39942306611962441
0.39942306611962441
0.39942306611962441
0.39942306611962441
0.39942306611962441
0.39942306611962441
0.39942306611962441
0.39942306611962441
0.39942306611962441
0.39942306611962441
0.39942306611962441
0.39942306611962441
0.39942306611962441
0.39942306611962441
0.39942306611962441
0.39942306611962441
0.39942306611962441
0.39942306611962441
0.39942306611962441
0.39942306611962441
0.39942306611962441
0.39942306611962441
0.39942306611962441
0.39942306611962441
0.39942306611962441
0.39942306611962441
0.39942306611962441
0.39942306611962441
0.39942306611962441
0.39942306611962441
0.39942306611962441
0.39942306611962441
0.39942306611962441
0.39942306611962441
0.39942306611962441
0.39942306611962441
0.39942306611962441
0.39942306611962441
0.39942306611962441
0.39942306611962441
0.39942306611962441
0.39942306611962441
0.39942306611962441
0.39942306611962441
0.39942306611962441
0.39942306611962441
0.39942306611962441
0.39942306611962441
0.39942306611962441
0.39942306611962441
0.39942306611962441
0.39942306611962441
0.39942306611962441
0.39942306611962441
0.39942306611962441
0.39942306611962441
0.39942306611962441
0.39942306611962441
0.39942306611962441
0.39942306611962441
0.39942306611962441
0.39942306611962441
0.39942306611962441
0.39942306611962441
0.39942306611962441
0.39942306611962441
0.39942306611962441
0.39942306611962441
0.39942306611962441
0.39942306611962441
0.39942306611962441
0.39942306611962441
0.39942306611962441
0.39942306611962441
0.39942306611962441
0.39942306611962441
0.39942306611962441
0.39942306611962441
0.39942306611962441
0.39942306611962441
0.39942306611962441
0.39942306611962441
0.39942306611962441
0.39942306611962441
0.39942306611962441
0.39942306611962441
0.39942306611962441
0.39942306611962441
0.39942306611962441
0.39942306611962441
0.39942306611962441
0.39942306611962441
0.39942306611962441
0.39942306611962441
0.39942306611962441
0.39942306611962441
0.39942306611962441
0.39942306611962441
0.39942306611962441
0.39942306611962441
0.39942306611962441
0.39942306611962441
0.39942306611962441
0.39942306611962441
0.39942306611962441
0.39942306611962441
0.39942306611962441
0.39942306611962441
0.39942306611962441
0.39942306611962441
0.39942306611962441
0.39942306611962441
0.39942306611962441
0.39942306611962441
0.39942306611962441
0.39942306611962441
0.39942306611962441
0.39942306611962441
0.39942306611962441
0.39942306611962441
0.39942306611962441
0.39942306611962441
0.39942306611962441
0.39942306611962441
0.39942306611962441
0.39942306611962441
0.39942306611962441
0.39942306611962441
0.39942306611962441
0.39942306611962441
0.39942306611962441
0.39942306611962441
0.39942306611962441
0.39942306611962441
0.39942306611962441
0.39942306611962441
0.39942306611962441
0.39942306611962441
0.39942306611962441
0.39942306611962441
0.39942306611962441
0.39942306611962441
0.39942306611962441
0.39942306611962441
0.39942306611962441
0.39942306611962441
0.39942306611962441
0.39942306611962441
0.39942306611962441
0.39942306611962441
0.39942306611962441
0.39942306611962441
0.39942306611962441
0.39942306611962441
0.39942306611962441
0.39942306611962441
0.39942306611962441
0.39942306611962441
0.39942306611962441
0.39942306611962441
0.39942306611962441
0.39942306611962441
0.39942306611962441
0.39942306611962441
0.39942306611962441
0.39942306611962441
0.39942306611962441
0.39942306611962441
0.39942306611962441
0.39942306611962441
0.39942306611962441
0.39942306611962441
0.39942306611962441
0.39942306611962441
0.39942306611962441
0.39942306611962441
0.39942306611962441
0.39942306611962441
0.39942306611962441
0.39942306611962441
0.39942306611962441
0.39942306611962441
0.39942306611962441
0.39942306611962441
0.39942306611962441
0.39942306611962441
0.39942306611962441
0.39942306611962441
0.39942306611962441
0.39942306611962441
0.39942306611962441
0.39942306611962441
0.39942306611962441
0.39942306611962441
0.39942306611962441
0.39942306611962441
0.39942306611962441
0.39942306611962441
0.39942306611962441
0.39942306611962441
0.39942306611962441
0.39942306611962441
0.39942306611962441
0.39942306611962441
0.39942306611962441
0.39942306611962441
0.39942306611962441
0.39942306611962441
0.39942306611962441
0.39942306611962441
0.39942306611962441
0.39942306611962441
0.39942306611962441
0.39942306611962441
0.39942306611962441
0.39942306611962441
0.39942306611962441
0.39942306611962441
0.39942306611962441
0.39942306611962441
0.39942306611962441
0.39942306611962441
0.39942306611962441
0.39942306611962441
0.39942306611962441
0.39942306611962441
0.39942306611962441
0.39942306611962441
0.39942306611962441
0.39942306611962441
0.39942306611962441
0.39942306611962441
0.39942306611962441
0.39942306611962441
0.39942306611962441
0.39942306611962441
0.39942306611962441
0.39942306611962441
0.39942306611962441
0.39942306611962441
0.39942306611962441
0.39942306611962441
0.39942306611962441
0.39942306611962441
0.39942306611962441
0.39942306611962441
0.39942306611962441
0.39942306611962441
0.39942306611962441
0.39942306611962441
0.39942306611962441
0.39942306611962441
0.39942306611962441
0.39942306611962441
0.39942306611962441
0.39942306611962441
0.39942306611962441
0.39942306611962441
0.39942306611962441
0.39942306611962441
0.39942306611962441
0.39942306611962441
0.39942306611962441
0.39942306611962441
0.39942306611962441
0.39942306611962441
0.39942306611962441
0.39942306611962441
0.39942306611962441
0.39942306611962441
0.39942306611962441
0.39942306611962441
0.39942306611962441
0.39942306611962441
0.39942306611962441
0.39942306611962441
0.39942306611962441
0.39942306611962441
0.39942306611962441
0.39942306611962441
0.39942306611962441
0.39942306611962441
0.39942306611962441
0.39942306611962441
0.39942306611962441
0.39942306611962441
0.39942306611962441
0.39942306611962441
0.39942306611962441
0.39942306611962441
0.39942306611962441
0.39942306611962441
0.39942306611962441
0.39942306611962441
0.39942306611962441
0.39942306611962441
0.39942306611962441
0.39942306611962441
0.39942306611962441
0.39942306611962441
0.39942306611962441
0.39942306611962441
0.39942306611962441
0.39942306611962441
0.39942306611962441
0.39942306611962441
0.39942306611962441
0.39942306611962441
0.39942306611962441
0.39942306611962441
0.39942306611962441
0.39942306611962441
0.39942306611962441
0.39942306611962441
0.39942306611962441
0.39942306611962441
0.39942306611962441
0.39942306611962441
0.39942306611962441
0.39942306611962441
0.39942306611962441
0.39942306611962441
0.39942306611962441
0.39942306611962441
0.39942306611962441
0.39942306611962441
0.39942306611962441
0.39942306611962441
0.39942306611962441
0.39942306611962441
0.39942306611962441
0.39942306611962441
0.39942306611962441
0.39942306611962441
0.39942306611962441
0.39942306611962441
0.39942306611962441
0.39942306611962441
0.39942306611962441
0.39942306611962441
0.39942306611962441
0.39942306611962441
0.39942306611962441
0.39942306611962441
0.39942306611962441
0.39942306611962441
0.39942306611962441
0.39942306611962441
0.39942306611962441
0.39942306611962441
0.39942306611962441
0.39942306611962441
0.39942306611962441
0.39942306611962441
0.39942306611962441
0.39942306611962441
0.39942306611962441
0.39942306611962441
0.39942306611962441
0.39942306611962441
0.39942306611962441
0.39942306611962441
0.39942306611962441
0.39942306611962441
0.39942306611962441
0.39942306611962441
0.39942306611962441
0.39942306611962441
0.39942306611962441
0.39942306611962441
0.39942306611962441
0.39942306611962441
0.39942306611962441
0.39942306611962441
0.39942306611962441
0.39942306611962441
0.39942306611962441
0.39942306611962441
0.39942306611962441
0.39942306611962441
0.39942306611962441
0.39942306611962441
0.39942306611962441
0.39942306611962441
0.39942306611962441
0.39942306611962441
0.39942306611962441
0.39942306611962441
0.39942306611962441
0.39942306611962441
0.39942306611962441
0.39942306611962441
0.39942306611962441
0.39942306611962441
0.39942306611962441
0.39942306611962441
0.39942306611962441
0.39942306611962441
0.39942306611962441
0.39942306611962441
0.39942306611962441
0.39942306611962441
0.39942306611962441
0.39942306611962441
0.39942306611962441
0.39942306611962441
0.39942306611962441
0.39942306611962441
0.39942306611962441
0.39942306611962441
0.39942306611962441
0.39942306611962441
0.39942306611962441
0.39942306611962441
0.39942306611962441
0.39942306611962441
0.39942306611962441
0.39942306611962441
0.39942306611962441
0.39942306611962441
0.39942306611962441
0.39942306611962441
0.39942306611962441
0.39942306611962441
0.39942306611962441
0.39942306611962441
0.39942306611962441
0.39942306611962441
0.39942306611962441
0.39942306611962441
0.39942306611962441
0.39942306611962441
0.39942306611962441
0.39942306611962441
0.39942306611962441
0.39942306611962441
0.39942306611962441
0.39942306611962441
0.39942306611962441
0.39942306611962441
0.39942306611962441
0.39942306611962441
0.39942306611962441
0.39942306611962441
0.39942306611962441
0.39942306611962441
0.39942306611962441
0.39942306611962441
0.39942306611962441
0.39942306611962441
0.39942306611962441
0.39942306611962441
0.39942306611962441
0.39942306611962441
0.39942306611962441
0.39942306611962441
0.39942306611962441
0.39942306611962441
VECTORS v float
0 -0.080003119609285314 0
0 -0.21239486190953333 0
0 -0.41858002921690879 0
0 -0.62306943096020473 0
0 -0.71365815119811715 0
0 -0.73898873535090004 0
0 -0.74504933713279653 0
0 -0.74638137029356011 0
0 -0.74665909115831186 0
0 -0.74671402019016986 0
0 -0.74672428699700011 0
0 -0.7467260946478792 0
0 -0.74672638100018252 0
0 -0.74672633748119377 0
0 -0.74672581161932283 0
0 -0.7467229059512952 0
0 -0.74670828453200655 0
0 -0.74664100909597508 0
0 -0.74636078547533147 0
0 -0.74531779070133164 0
0 -0.74190245383470588 0
0 -0.73221425518320327 0
0 -0.70862353045117943 0
0 -0.65795228711883491 0
0 -0.5032237124792881 0
0 -0.088052624793987636 0
0 -0.21722881008333583 0
0 -0.40900392588400331 0
0 -0.60913967642443279 0
0 -0.70902339051050167 0
0 -0.73805281657156419 0
0 -0.74484961150468587 0
0 -0.74633797582891825 0
0 -0.74665007115327497 0
0 -0.74671225139612296 0
0 -0.74672396091490856 0
0 -0.74672603776850899 0
0 -0.74672636901591805 0
0 -0.74672631916085841 0
0 -0.74672571634218621 0
0 -0.74672241210519119 0
0 -0.7467059294206696 0
0 -0.74663076005157514 0
0 -0.74632029450758675 0
0 -0.74517295282936968 0
0 -0.74143442528060699 0
0 -0.73087301812389638 0
0 -0.70555357913560024 0
0 -0.65405121472680006 0
0 -0.51145334071578008 0
0 -0.087911115796021622 0
0 -0.21691958390450239 0
0 -0.40673169937047693 0
0 -0.60472780023397943 0
0 -0.70716873823824511 0
0 -0.73766543351535019 0
0 -0.7447727420094622 0
0 -0.74632190649162644 0
0 -0.7466467375827972 0
0 -0.7467115894097508 0
0 -0.74672383683449406 0
0 -0.74672601575629294 0
0 -0.74672636431231021 0
0 -0.74672631204560358 0
0 -0.74672567958892566 0
0 -0.74672222136603095 0
0 -0.74670500916892191 0
0 -0.7466266431613765 0
0 -0.7463032158015106 0
0 -0.74510751257764929 0
0 -0.74120743711039172 0
0 -0.73020051384444196 0
0 -0.70407039007035122 0
0 -0.65227036547622586 0
0 -0.51334362980705683 0
0 -0.087719448287760848 0
0 -0.21659395332709022 0
0 -0.40604406239611784 0
0 -0.60362963842830997 0
0 -0.70654919186206488 0
0 -0.73748684069791137 0
0 -0.74473288181737241 0
0 -0.74631341067276646 0
0 -0.74664496892138743 0
0 -0.7467112348319328 0
0 -0.74672376932776618 0
0 -0.74672600355352092 0
0 -0.74672636166697015 0
0 -0.74672630816229446 0
0 -0.7467256599587887 0
0 -0.74672212106728642 0
0 -0.74670453198629061 0
0 -0.74662454096484376 0
0 -0.74629470634799577 0
0 -0.74507644294147968 0
0 -0.7411090437597837 0
0 -0.729949294185544 0
0 -0.70360811856195515 0
0 -0.65175844110386616 0
0 -0.51355388933711676 0
0 -0.087677619569764498 0
0 -0.21649047622798406 0
0 -0.40584917064958864 0
0 -0.60335081403547419 0
0 -0.70637318211475397 0
0 -0.73742487252213718 0
0 -0.74471657846240713 0
0 -0.74630963476063406 0
0 -0.74664415229490655 0
0 -0.74671106732128334 0
0 -0.74672373677799597 0
0 -0.74672599754388547 0
0 -0.74672636034924411 0
0 -0.74672630632948256 0
0 -0.7467256510053053 0
0 -0.74672207656542233 0
0 -0.74670432651942376 0
0 -0.74662366858562679 0
0 -0.74629135018213766 0
0 -0.7450650578264072 0
0 -0.74107649475432569 0
0 -0.72987581581095162 0
0 -0.70348700916513751 0
0 -0.65162774661125444 0
0 -0.51354045737043363 0
0 -0.087670762375551353 0
0 -0.21646475681791241 0
0 -0.40580025076261855 0
0 -0.60328367363372648 0
0 -0.70632786428486816 0
0 -0.7374067152219288 0
0 -0.74471110102458926 0
0 -0.74630822920870776 0
0 -0.74664382831718534 0
0 -0.7467109981707134 0
0 -0.74672372294603773 0
0 -0.74672599492532743 0
0 -0.74672635977106294 0
0 -0.74672630559092545 0
0 -0.74672564756938375 0
0 -0.74672206014257803 0
0 -0.74670425390278716 0
0 -0.74662337575097626 0
0 -0.74629029378569667 0
0 -0.7450617505025775 0
0 -0.7410678811965038 0
0 -0.72985807489478272 0
0 -0.70345964034855391 0
0 -0.65159822813582347 0
0 -0.51352825171827909 0
0 -0.087669579706979889 0
0 -0.21645903993502666 0
0 -0.40578919087356957 0
0 -0.60326878925297778 0
0 -0.70631730395035641 0
0 -0.7374020632374062 0
0 -0.74470953830287756 0
0 -0.7463077881006277 0
0 -0.74664371908762672 0
0 -0.74671097366494443 0
0 -0.74672371786583203 0
0 -0.74672599393620143 0
0 -0.74672635955214883 0
0 -0.74672630534194051 0
0 -0.74672564648261064 0
0 -0.74672205519341817 0
0 -0.74670423313346745 0
0 -0.74662329680534523 0
0 -0.74629002762896213 0
0 -0.74506097751967404 0
0 -0.74106601522244409 0
0 -0.72985447296302908 0
0 -0.70345429949473737 0
0 -0.65159244977034492 0
0 -0.51352494673882887 0
0 -0.087669395420305704 0
0 -0.21645807320926125 0
0 -0.40578730776829275 0
0 -0.60326628543566152 0
0 -0.70631546936276834 0
0 -0.73740120276606025 0
0 -0.74470922767598191 0
0 -0.74630769434324662 0
0 -0.74664369456589164 0
0 -0.74671096793548131 0
0 -0.74672371664252979 0
0 -0.74672599369267245 0
0 -0.74672635949828126 0
0 -0.74672630528688089 0
0 -0.74672564625639948 0
0 -0.74672205420787041 0
0 -0.74670422918757862 0
0 -0.74662328255602217 0
0 -0.74628998216117981 0
0 -0.74506085265543875 0
0 -0.74106572884009991 0
0 -0.72985394140472226 0
0 -0.70345352767143932 0
0 -0.65159161406449695 0
0 -0.51352441274798877 0
0 -0.087669579706979903 0
0 -0.21645903993502663 0
0 -0.40578919087356946 0
0 -0.60326878925297778 0
0 -0.70631730395035652 0
0 -0.7374020632374062 0
0 -0.74470953830287756 0
0 -0.7463077881006277 0
0 -0.74664371908762672 0
0 -0.74671097366494443 0
0 -0.74672371786583203 0
0 -0.74672599393620143 0
0 -0.74672635955214883 0
0 -0.74672630534194051 0
0 -0.74672564648261064 0
0 -0.74672205519341817 0
0 -0.74670423313346745 0
0 -0.74662329680534523 0
0 -0.74629002762896213 0
0 -0.74506097751967404 0
0 -0.74106601522244409 0
0 -0.72985447296302908 0
0 -0.70345429949473737 0
0 -0.65159244977034492 0
0 -0.51352494673882876 0
0 -0.087670762375551367 0
0 -0.21646475681791241 0
0 -0.40580025076261855 0
0 -0.60328367363372648 0
0 -0.70632786428486816 0
0 -0.7374067152219288 0
0 -0.74471110102458926 0
0 -0.74630822920870776 0
0 -0.74664382831718534 0
0 -0.7467109981707134 0
0 -0.74672372294603773 0
0 -0.74672599492532743 0
0 -0.74672635977106294 0
0 -0.74672630559092545 0
0 -0.74672564756938375 0
0 -0.74672206014257803 0
0 -0.74670425390278716 0
0 -0.74662337575097626 0
0 -0.74629029378569667 0
0 -0.7450617505025775 0
0 -0.7410678811965038 0
0 -0.72985807489478272 0
0 -0.70345964034855391 0
0 -0.65159822813582347 0
0 -0.51352825171827909 0
0 -0.087677619569764567 0
0 -0.21649047622798409 0
0 -0.40584917064958864 0
0 -0.60335081403547419 0
0 -0.70637318211475397 0
0 -0.73742487252213718 0
0 -0.74471657846240713 0
0 -0.74630963476063406 0
0 -0.74664415229490655 0
0 -0.74671106732128334 0
0 -0.74672373677799597 0
0 -0.74672599754388547 0
0 -0.74672636034924411 0
0 -0.74672630632948256 0
0 -0.7467256510053053 0
0 -0.74672207656542233 0
0 -0.74670432651942376 0
0 -0.74662366858562679 0
0 -0.74629135018213766 0
0 -0.7450650578264072 0
0 -0.74107649475432569 0
0 -0.72987581581095162 0
0 -0.70348700916513751 0
0 -0.65162774661125444 0
0 -0.51354045737043363 0
0 -0.087719448287760904 0
0 -0.21659395332709017 0
0 -0.40604406239611779 0
0 -0.60362963842830974 0
0 -0.70654919186206488 0
0 -0.73748684069791137 0
0 -0.74473288181737241 0
0 -0.74631341067276646 0
0 -0.74664496892138743 0
0 -0.7467112348319328 0
0 -0.74672376932776618 0
0 -0.74672600355352092 0
0 -0.74672636166697015 0
0 -0.74672630816229446 0
0 -0.7467256599587887 0
0 -0.74672212106728642 0
0 -0.74670453198629061 0
0 -0.74662454096484376 0
0 -0.74629470634799577 0
0 -0.74507644294147968 0
0 -0.7411090437597837 0
0 -0.729949294185544 0
0 -0.70360811856195504 0
0 -0.65175844110386616 0
0 -0.51355388933711688 0
0 -0.087911115796021497 0
0 -0.21691958390450231 0
0 -0.40673169937047693 0
0 -0.60472780023397943 0
0 -0.70716873823824511 0
0 -0.73766543351535019 0
0 -0.7447727420094622 0
0 -0.74632190649162644 0
0 -0.7466467375827972 0
0 -0.7467115894097508 0
0 -0.74672383683449406 0
0 -0.74672601575629294 0
0 -0.74672636431231021 0
0 -0.74672631204560358 0
0 -0.74672567958892566 0
0 -0.74672222136603095 0
0 -0.74670500916892191 0
0 -0.7466266431613765 0
0 -0.7463032158015106 0
0 -0.74510751257764929 0
0 -0.74120743711039172 0
0 -0.73020051384444196 0
0 -0.70407039007035122 0
0 -0.65227036547622586 0
0 -0.51334362980705672 0
0 -0.088052624793987636 0
0 -0.21722881008333592 0
0 -0.40900392588400336 0
0 -0.60913967642443279 0
0 -0.70902339051050167 0
0 -0.73805281657156419 0
0 -0.74484961150468587 0
0 -0.74633797582891825 0
0 -0.74665007115327497 0
0 -0.74671225139612296 0
0 -0.74672396091490856 0
0 -0.74672603776850899 0
0 -0.74672636901591805 0
0 -0.74672631916085841 0
0 -0.74672571634218621 0
0 -0.74672241210519119 0
0 -0.7467059294206696 0
0 -0.74663076005157514 0
0 -0.74632029450758675 0
0 -0.74517295282936968 0
0 -0.74143442528060699 0
0 -0.73087301812389638 0
0 -0.70555357913560024 0
0 -0.65405121472680006 0
0 -0.51145334071578008 0
0 -0.08000311960928537 0
0 -0.21239486190953341 0
0 -0.41858002921690873 0
0 -0.62306943096020473 0
0 -0.71365815119811704 0
0 -0.73898873535089993 0
0 -0.74504933713279653 0
0 -0.74638137029356011 0
0 -0.74665909115831186 0
0 -0.74671402019016986 0
0 -0.74672428699700011 0
0 -0.7467260946478792 0
0 -0.74672638100018252 0
0 -0.74672633748119377 0
0 -0.74672581161932283 0
0 -0.7467229059512952 0
0 -0.74670828453200655 0
0 -0.74664100909597508 0
0 -0.74636078547533147 0
0 -0.74531779070133164 0
0 -0.74190245383470588 0
0 -0.73221425518320327 0
0 -0.70862353045117943 0
0 -0.65795228711883491 0
0 -0.50322371247928821 0
-0 -0 0
-0 -0 0
-0 -0 0
-0 -0 0
-0 -0 0
-0 -0 0
-0 -0 0
-0 0.075852020641663298 0
-0 0.12710335996690847 0
-0 -0 0
-0 -0 0
-0 -0 0
-0 -0 0
-0 0.090627819259041315 0
-0 0.1478142170616773 0
-0 0.47975927566710241 0
-0 -0 0
-0 -0 0
-0 -0 0
-0 0.094190043844085289 0
-0 0.15025748355707463 0
-0 0.49318809763888299 0
-0 -0 0
-0 -0 0
-0 -0 0
-0 0.09706107259586437 0
-0 0.15078835678288677 0
-0 0.49760403164545869 0
-0 -0 0
-0 -0 0
-0 -0 0
-0 0.096899236279442996 0
-0 0.15046585693094472 0
-0 0.49859474906691964 0
-0 -0 0
-0 -0 0
-0 -0 0
-0 0.096755308114121211 0
-0 0.15023475458391114 0
-0 0.49869456456183253 0
-0 -0 0
-0 -0 0
-0 -0 0
-0 0.096721342567704621 0
-0 0.15017128193077328 0
-0 0.49868436671338989 0
-0 -0 0
-0 -0 0
-0 -0 0
-0 0.096715133176576498 0
-0 0.1501574037946854 0
-0 0.49867742445690744 0
-0 -0 0
-0 -0 0
-0 -0 0
-0 0.09671404127099277 0
-0 0.15015466916826864 0
-0 0.49867567454456507 0
-0 -0 0
-0 -0 0
-0 -0 0
-0 0.096714041270992757 0
-0 0.15015466916826864 0
-0 0.49867567454456485 0
-0 -0 0
-0 -0 0
-0 -0 0
-0 0.096715133176576498 0
-0 0.15015740379468548 0
-0 0.49867742445690744 0
-0 -0 0
-0 -0 0
-0 -0 0
-0 0.096721342567704649 0
-0 0.15017128193077334 0
-0 0.49868436671338989 0
-0 -0 0
-0 -0 0
-0 -0 0
-0 0.096755308114121294 0
-0 0.15023475458391117 0
-0 0.49869456456183259 0
-0 -0 0
-0 -0 0
-0 -0 0
-0 0.09689923627944301 0
-0 0.15046585693094464 0
-0 0.49859474906691953 0
-0 -0 0
-0 -0 0
-0 -0 0
-0 0.097061072595864287 0
-0 0.1507883567828868 0
-0 0.49760403164545852 0
-0 -0 0
-0 -0 0
-0 -0 0
-0 0.094190043844085303 0
-0 0.15025748355707463 0
-0 0.49318809763888316 0
-0 -0 0
-0 -0 0
-0 -0 0
-0 0.090627819259041342 0
-0 0.14781421706167733 0
-0 0.47975927566710247 0
-0 -0 0
-0 -0 0
-0 -0 0
-0 0.075852020641663395 0
-0 0.12710335996690852 0
-0 -0 0
-0 -0 0
-0 -0 0
-0 -0 0
-0 -0 0
-0 -0 0
-0 -0 0
-0 -0 0
-0 -0 0
-0 -0 0
-0 -0 0
-0 -0 0
-0 -0 0
-0 -0 0
-0 -0 0
-0 -0 0
-0 -0 0
-0 -0 0
-0 -0 0
-0 -0 0
-0 -0 0
-0 -0 0
-0 -0 0
-0 -0 0
-0 -0 0
-0 -0 0
-0 -0 0
-0 -0 0
-0 -0 0
-0 -0 0
-0 -0 0
-0 -0 0
-0 -0 0
-0 -0 0
-0 -0 0
-0 -0 0
-0 -0 0
-0 -0 0
-0 -0 0
-0 -0 0
-0 -0 0
-0 -0 0
-0 -0 0
-0 -0 0
-0 -0 0
-0 -0 0
-0 -0 0
-0 -0 0
-0 -0 0
-0 -0 0
-0 -0 0
-0 -0 0
-0 -0 0
-0 -0 0
-0 -0 0
-0 -0 0
-0 -0 0
-0 -0 0
-0 -0 0
-0 -0 0
-0 -0 0
-0 -0 0
-0 -0 0
-0 -0 0
-0 -0 0
-0 -0 0
-0 -0 0
-0 -0 0
-0 -0 0
-0 -0 0
-0 -0 0
-0 -0 0
-0 -0 0
-0 -0 0
-0 -0 0
-0 -0 0
-0 -0 0
-0 -0 0
-0 -0 0
-0 -0 0
-0 -0 0
-0 -0 0
-0 -0 0
-0 -0 0
-0 -0 0
-0 -0 0
-0 -0 0
-0 -0 0
-0 -0 0
-0 -0 0
-0 -0 0
-0 -0 0
-0 -0 0
-0 -0 0
-0 -0 0
-0 -0 0
-0 -0 0
-0 -0 0
-0 -0 0
-0 -0 0
-0 -0 0
-0 -0 0
-0 -0 0
-0 -0 0
-0 -0 0
-0 -0 0
-0 -0 0
-0 -0 0
-0 -0 0
-0 -0 0
-0 -0 0
-0 -0 0
-0 -0 0
-0 -0 0
-0 -0 0
-0 -0 0
-0 -0 0
-0 -0 0
-0 -0 0
-0 -0 0
-0 -0 0
-0 -0 0
-0 -0 0
-0 -0 0
-0 -0 0
-0 -0 0
-0 -0 0
-0 -0 0
-0 -0 0
-0 -0 0
-0 -0 0
-0 -0 0
-0 -0 0
-0 -0 0
-0 -0 0
-0 -0 0
-0 -0 0
-0 -0 0
-0 -0 0
-0 -0 0
-0 -0 0
-0 -0 0
-0 -0 0
-0 -0 0
-0 -0 0
-0 -0 0
-0 -0 0
-0 -0 0
-0 -0 0
-0 -0 0
-0 -0 0
-0 -0 0
-0 -0 0
-0 -0 0
-0 -0 0
-0 -0 0
-0 -0 0
-0 -0 0
-0 -0 0
-0 -0 0
-0 -0 0
-0 -0 0
-0 -0 0
-0 -0 0
-0 -0 0
-0 -0 0
-0 -0 0
-0 -0 0
-0 -0 0
-0 -0 0
-0 -0 0
-0 -0 0
-0 -0 0
-0 -0 0
-0 -0 0
-0 -0 0
-0 -0 0
-0 -0 0
-0 -0 0
-0 -0 0
-0 -0 0
-0 -0 0
-0 -0 0
-0 -0 0
-0 -0 0
-0 -0 0
-0 -0 0
-0 -0 0
-0 -0 0
-0 -0 0
-0 -0 0
-0 -0 0
-0 -0 0
-0 -0 0
-0 -0 0
