# vtk DataFile Version 3.0
SPH particles (WCSPH) - legacy PolyData
ASCII
DATASET POLYDATA
POINTS 681 float
0.049991121793113893 0.024440871437090901 0
0.049989798454579862 0.026891027387585593 0
0.049988751378751535 0.028833388092589795 0
0.049987754944055059 0.030772420482815654 0
0.049986857341585866 0.032688210729036445 0
0.049986053110954859 0.034576261919431757 0
0.049985352613318414 0.036441758059049825 0
0.049984567081342711 0.038293766541975478 0
0.049983598314695753 0.040142733140031181 0
0.049982247636833267 0.041999834439438888 0
0.049980120350454682 0.043877079577744844 0
0.049977491870065664 0.045787666871534329 0
0.049976331899214986 0.047746043072737575 0
0.049977486027793033 0.0497680832969127 0
0.049979837494612413 0.051871381639438288 0
0.049982744430857887 0.054076455576078389 0
0.049985712091064775 0.056409575461935375 0
0.049988610377008399 0.058917875261692058 0
0.04999127533672288 0.061650433020773845 0
0.049993594411699524 0.064679521417913596 0
0.049995559935029715 0.068135314272376249 0
0.049997187858647062 0.072212620364110497 0
0.049998552762963853 0.077409295053461225 0
0.049999650030517796 0.087186005910824788 0
0.050000000000000003 0.14012173359422361 0
0.069995313292299827 0.022894766554451263 0
0.069994536508939692 0.02564335764661459 0
0.069993889721692321 0.027857641955434727 0
0.069993299006815932 0.030015433483315566 0
0.069992764313066891 0.03211091969130668 0
0.069992234829948582 0.034150725075615306 0
0.069991706914246027 0.036148235404479756 0
0.069991162936379497 0.038118625751501066 0
0.069990532125617178 0.040076466120482962 0
0.069989603777889209 0.042035955621241058 0
0.069987904024833791 0.044011434159271653 0
0.069985253753782686 0.04601805076064746 0
0.06998360526698337 0.048071937037956321 0
0.069983847862991222 0.050190797480326427 0
0.069985396589172674 0.052394664179468933 0
0.069987573136645817 0.054705725015002565 0
0.06998984732868499 0.057150107573326087 0
0.06999212268424479 0.059772920498456582 0
0.069994089807989962 0.0626263532969039 0
0.069995730948746476 0.06578766242807986 0
0.069997104479782371 0.069383761148386333 0
0.069998209082238305 0.073633002792270419 0
0.069999082799120677 0.079049836872578355 0
0.069999747347905844 0.088566543365429934 0
0.070000000000000007 0.13918564953049337 0
0.089998229786332734 0.022829691044350571 0
0.089997889974182288 0.025585379822176756 0
0.089997656222894393 0.027806799364223846 0
0.08999736590822785 0.029975077581089655 0
0.08999707744581481 0.032083377487812169 0
0.089996839348479352 0.034137662843876135 0
0.089996387333334246 0.036151203131733978 0
0.089996171969934077 0.038139004746713508 0
0.089995864124184907 0.040115716163141357 0
0.089995516162105244 0.042095614467003752 0
0.089995136210330062 0.044093153232291682 0
0.089994400072876748 0.046123706428774863 0
0.089993522945152518 0.048203520181420247 0
0.089993148602818096 0.050350540568570107 0
0.089993667894140636 0.052585536419251136 0
0.089994550697357928 0.05493319811707293 0
0.08999555279657169 0.057421165180837161 0
0.089996498294649438 0.060084689105650776 0
0.08999733417302995 0.062979047874593866 0
0.089998020664560585 0.066181702376538074 0
0.089998610165977794 0.069816884475038268 0
0.08999910934797159 0.074109736655576658 0
0.089999523569151196 0.079575941783445708 0
0.089999857939493735 0.089074380944798526 0
0.090000000000000011 0.1386340084266435 0
0.10999944655769135 0.02285222129201438 0
0.10999926906821766 0.025609898506176655 0
0.10999914772759428 0.027833345550199517 0
0.10999900915317425 0.030004105736157072 0
0.10999887580351339 0.032115335059749846 0
0.10999887243357657 0.034172952351414466 0
0.10999890313264471 0.036190280625820088 0
0.10999882235215785 0.038182266561947967 0
0.10999875827668194 0.04016355070295121 0
0.10999865297959478 0.04214853677683205 0
0.10999844984793843 0.04415175821243289 0
0.10999868086177124 0.04618865311490928 0
0.10999809398127912 0.048275504297575683 0
0.1099975696821737 0.050430389593480958 0
0.10999761576255686 0.052674133339746625 0
0.10999788716439564 0.055031698702009336 0
0.10999819247549093 0.05753220823836161 0
0.10999861393282455 0.06020771763466895 0
0.1099989266469607 0.063114502197740271 0
0.10999919121110006 0.066329779044020279 0
0.1099994200288559 0.06997987571000519 0
0.10999961853323799 0.074291351774669556 0
0.10999978457887495 0.079776985276329579 0
0.10999993139277581 0.089287079432581393 0
0.11000000000000001 0.13827928640062426 0
0.12999990694633157 0.022867902553860401 0
0.12999988981621594 0.02562738799265819 0
0.12999987678014788 0.027852253227678394 0
0.12999987052259704 0.030024419399303861 0
0.1299999260554589 0.032137024513289689 0
0.12999998861352549 0.03419608845737869 0
0.13000003853661299 0.036214983959369597 0
0.13000007810490802 0.038208570497790167 0
0.13000014628536274 0.04019160598545167 0
0.13000026793076333 0.042178450043139609 0
0.13000033886336865 0.04418368496470422 0
0.13000019979368793 0.046222799020074555 0
0.12999990816943083 0.048312234125908501 0
0.12999962644149995 0.050469828936766659 0
0.12999942696590128 0.052716684498142895 0
0.12999933300566405 0.055077684846875176 0
0.12999941698447093 0.057581962705978616 0
0.12999953448290746 0.060261567760394021 0
0.1299996351713206 0.063172864232257139 0
0.1299997202360072 0.066393064030643295 0
0.12999979158787975 0.070049209041745497 0
0.1299998502280173 0.074368137126616121 0
0.12999991351997739 0.079862199687926211 0
0.12999997346661285 0.089384989543492055 0
0.13 0.13806770569812798 0
0.15000018142667884 0.022875668162362247 0
0.1500002121683941 0.025636121179574586 0
0.15000025384569354 0.027861747436180719 0
0.15000030714873899 0.030034651418743237 0
0.15000047637452771 0.03214796996911231 0
0.15000051903559261 0.034207712230225312 0
0.1500005181221449 0.036227271138182998 0
0.15000054354859316 0.038221602766973985 0
0.15000059667754168 0.040205400002295673 0
0.15000065426759115 0.042193045551890664 0
0.15000073328429725 0.044199173217238978 0
0.15000060671685722 0.04623921221878146 0
0.15000055623565381 0.04832974332773407 0
0.15000033529001036 0.050488573171991749 0
0.15000013833028003 0.052736691857687014 0
0.14999999040077786 0.055099133695329476 0
0.14999993516458618 0.057604969562879617 0
0.14999993698497679 0.060286286836679824 0
0.14999994975910441 0.063199551087798109 0
0.14999995620359025 0.066421967708132093 0
0.14999994420323129 0.070080691393877348 0
0.14999995112992087 0.07440271168678006 0
0.14999997380299787 0.079900762620770907 0
0.14999999337795608 0.089432191691072652 0
0.15000000000000002 0.1379518635663409 0
0.17000032443242613 0.022879160162123716 0
0.17000039564443725 0.025640046889383844 0
0.17000043232425738 0.027866000483365384 0
0.17000055846704437 0.030039186792209776 0
0.17000063911764249 0.032152766866332685 0
0.17000077330444879 0.034212829818553364 0
0.17000096362505429 0.036232745494026559 0
0.17000101952548241 0.038227388641081966 0
0.17000105487725492 0.04021148807536061 0
0.17000108157815061 0.042199464549721726 0
0.17000107635049502 0.044205975686637734 0
0.17000097228740296 0.046246473109768205 0
0.17000096105337378 0.048337446052840835 0
0.17000095035618329 0.050496681695848665 0
0.1700004947471295 0.052745368885797311 0
0.17000034743940756 0.055108436525568946 0
0.17000024108885919 0.057614973480566462 0
0.17000017822913396 0.060297043743492353 0
0.17000013657597843 0.063211156012664027 0
0.17000010729653348 0.066434538376072466 0
0.17000005470067592 0.070094406699286571 0
0.17000002452192697 0.074417795747227469 0
0.17000000454836703 0.079917696695518972 0
0.16999999981520825 0.089453815199050685 0
0.17000000000000004 0.13789638539796467 0
0.19000024230164472 0.022880164358563864 0
0.19000027661262461 0.0256411390360167 0
0.1900004294250528 0.027867255233412273 0
0.1900004776086317 0.030040500645117221 0
0.19000057019010366 0.032154137150566864 0
0.19000077400597382 0.034214332046225954 0
0.19000097352078377 0.036234259538017302 0
0.19000095111303439 0.038228914702773967 0
0.19000100264868769 0.040213089470705413 0
0.19000103121584924 0.042201191172393737 0
0.19000089880446577 0.044207793487469317 0
0.19000095506556014 0.046248463357760013 0
0.19000066224879905 0.048339559950935244 0
0.19000057801527276 0.05049901090117076 0
0.19000052293756844 0.052747831216829584 0
0.19000033088565998 0.055111057540540687 0
0.19000028651928635 0.057617801017546384 0
0.19000027495113328 0.060300095582049559 0
0.19000020977818505 0.063214444057502539 0
0.19000025331329304 0.066438108228489459 0
0.19000019276477856 0.070098303489104744 0
0.19000012046793172 0.074422096553119446 0
0.19000004083182759 0.079922545842226217 0
0.19000000707618914 0.089460110739072077 0
0.19 0.13788019887949873 0
0.21000030138983053 0.022879197096093852 0
0.2100003763477917 0.025640064560064246 0
0.21000042912986089 0.027866014074762999 0
0.21000048751623937 0.030039224709181481 0
0.21000058457541426 0.032152812353250459 0
0.2100006086651473 0.034212892785797575 0
0.2100007007642043 0.036232789644697269 0
0.21000072740099593 0.038227428235359524 0
0.210000785865085 0.040211549783569833 0
0.21000081445130181 0.042199573346096093 0
0.21000078884662751 0.044206085211824828 0
0.21000074216383591 0.046246576475089334 0
0.21000057140357078 0.048337499176737443 0
0.21000042313444836 0.050496772420860092 0
0.2100004074955473 0.052745457931785415 0
0.21000031756858503 0.055108488920956773 0
0.2100002789232894 0.057615036850921918 0
0.21000032811974007 0.060297110222117464 0
0.21000016157047677 0.063211222306545009 0
0.21000013469132858 0.06643463540504925 0
0.21000009889403021 0.070094498168926433 0
0.21000008393071867 0.07441791339337557 0
0.21000003800943071 0.079917808015593214 0
0.21000001084347258 0.089453895763866045 0
0.21000000000000002 0.13789638539796467 0
0.23000036945610527 0.022875727117383185 0
0.23000044159156979 0.025636201470506655 0
0.23000051800025795 0.027861843299887227 0
0.23000059162764416 0.030034695567958968 0
0.23000071126903823 0.03214804198565805 0
0.23000079299634138 0.034207796940859764 0
0.23000088660773663 0.03622738763370377 0
0.23000091962946972 0.038221703402289274 0
0.2300010239956965 0.040205496085348694 0
0.23000109278403755 0.042193141831093899 0
0.23000110752405889 0.044199284661028494 0
0.23000095527069592 0.046239406435361813 0
0.23000078209636549 0.048329924339573387 0
0.23000069513242749 0.050488698654488469 0
0.23000068416009536 0.05273680130741 0
0.23000061059125884 0.055099244883503658 0
0.23000050892103513 0.057605115109340757 0
0.23000040549270653 0.060286455690289037 0
0.23000035783757491 0.063199702603358471 0
0.230000276069913 0.066422142750810848 0
0.23000020227757656 0.070080871811130013 0
0.23000013642772782 0.074402889814363687 0
0.23000007623684693 0.079900926329452823 0
0.23000002517853449 0.089432303355668707 0
0.23000000000000004 0.13795186356634095 0
0.2500005339779357 0.022867915161644964 0
0.250000643184219 0.025627421117423204 0
0.25000072096342296 0.027852341090477045 0
0.25000084784177845 0.030024553455440587 0
0.25000095332001121 0.032137164413051533 0
0.25000105978474241 0.034196239334897099 0
0.25000110256274333 0.03621516180973143 0
0.25000125096789166 0.038208766927161263 0
0.25000133748740955 0.040191803762141175 0
0.25000144602170643 0.042178627438377206 0
0.25000150355587325 0.044183879016334818 0
0.25000142485838633 0.046223005768937828 0
0.25000128840273722 0.048312508626047489 0
0.25000144258497109 0.050470069148888359 0
0.25000132087992966 0.05271691744119332 0
0.25000122656052082 0.055077952833424572 0
0.25000104207813484 0.057582252016710855 0
0.25000082431037152 0.060261841537431277 0
0.25000065540547672 0.063173119258472438 0
0.25000050452851769 0.066393322984500069 0
0.25000036787191832 0.070049471334675456 0
0.2500002421925866 0.074368381435542238 0
0.25000013385314368 0.07986242011521183 0
0.25000004273821391 0.089385127906264766 0
0.25000000000000006 0.13806770569812798 0
0.27000084486315312 0.02285224773892252 0
0.27000102370322532 0.025609939867401128 0
0.27000115504109601 0.027833403897836811 0
0.27000130622175034 0.030004201127725456 0
0.27000158752928466 0.032115484128542267 0
0.27000174447789044 0.03417313847091983 0
0.27000189813604475 0.03619056155581319 0
0.27000208240939549 0.038182562795146674 0
0.27000228891245648 0.04016387924945497 0
0.27000248428099055 0.042148866547268168 0
0.27000268875058397 0.044152072896522933 0
0.27000276375531135 0.046188940433940673 0
0.27000316055488033 0.048275840234485945 0
0.27000310666406668 0.050430687067294561 0
0.27000292489955696 0.052674447419083524 0
0.27000256379319598 0.055032056775737317 0
0.27000211161485627 0.057532614081323104 0
0.2700016622459217 0.060208116189868793 0
0.27000128712592342 0.063114844529229608 0
0.27000097760207165 0.066330096877331782 0
0.27000071019884864 0.069980187435629893 0
0.270000471917963 0.074291649109260435 0
0.27000025999980043 0.079777257379613581 0
0.2700000821269346 0.089287244887883796 0
0.27000000000000002 0.13827928640062417 0
0.29000197974341191 0.022829769451689592 0
0.29000234675263359 0.025585438581343913 0
0.29000263249551017 0.027806880846262282 0
0.29000292420463331 0.02997518792293179 0
0.2900032172241449 0.032083475663866018 0
0.29000355179937121 0.034137796178973993 0
0.29000388791015025 0.036151485813773351 0
0.29000427210305324 0.0381393485652178 0
0.29000470185514454 0.040116065564072163 0
0.29000518104813511 0.042095958431153893 0
0.29000573368305421 0.044093518007356662 0
0.29000633885784272 0.046124038578925962 0
0.29000697018439997 0.04820385297402352 0
0.29000712604861606 0.050350844695866613 0
0.29000662365283197 0.052585841784276943 0
0.2900057767068841 0.054933517392634204 0
0.29000474950630784 0.057421540411865188 0
0.29000376128865285 0.060085080182728186 0
0.29000287060198393 0.062979412513513258 0
0.29000212149977839 0.066182019774711068 0
0.29000149342467785 0.06981719476915528 0
0.29000096666715969 0.074110040385804557 0
0.29000052432367385 0.079576208839085061 0
0.29000015945387769 0.089074536124554862 0
0.29000000000000004 0.13863400842664345 0
0.31000490939473857 0.022894911714271906 0
0.31000571307767205 0.025643529198735124 0
0.31000630835355197 0.027857794400856641 0
0.31000687666808563 0.030015659452058575 0
0.31000743235877953 0.032111155144885252 0
0.31000799707210097 0.03415091594099836 0
0.31000856307824576 0.036148519690701826 0
0.31000912177844714 0.038118924042350517 0
0.31000980653745241 0.040076728608477816 0
0.31001072708575184 0.042036184144028273 0
0.31001250736395547 0.044011632381627711 0
0.31001516757316805 0.046018267593299106 0
0.31001665596045186 0.048072198684972901 0
0.31001622038497789 0.050191055549369305 0
0.31001473994510842 0.052394913666559469 0
0.31001267980072522 0.054705981561489959 0
0.31001038508173623 0.057150392223498186 0
0.310008129158589 0.059773246337167615 0
0.31000612911565595 0.062626707194612635 0
0.31000442741357265 0.065787998330327876 0
0.31000302680766045 0.069384083536349325 0
0.31000189688282309 0.073633279890305312 0
0.31000098320638231 0.079050047465199072 0
0.31000027502768368 0.088566623319314461 0
0.31000000000000005 0.13918564953049337 0
0.33000861076824656 0.024441202272605937 0
0.33000987818380118 0.026891344084122352 0
0.33001087022008618 0.028833685040612587 0
0.33001180300569288 0.030772689279652349 0
0.33001262766390066 0.032688447081501738 0
0.33001337719820489 0.034576455955365362 0
0.3300140862321343 0.036441921532881345 0
0.33001484235001716 0.038293891148177883 0
0.33001566414485067 0.04014281261038926 0
0.33001681104221653 0.041999872461754337 0
0.33001881842390479 0.04387708595686305 0
0.33002142739052981 0.045787663051422761 0
0.33002249185775384 0.047746032618931178 0
0.33002130498716431 0.049768029811740278 0
0.33001908587960394 0.051871321612861822 0
0.33001633263221369 0.054076380340230594 0
0.33001338806228153 0.056409497841738432 0
0.33001053030696276 0.058917773388381722 0
0.33000797670231163 0.061650327300101157 0
0.33000577727880637 0.064679405470422752 0
0.33000394782046 0.068135164444487875 0
0.33000244154442376 0.072212430992736693 0
0.3300012116907049 0.077409075419214601 0
0.3300002999079466 0.08718586633523942 0
0.33000000000000002 0.1401217335942235 0
0 0 0
0 0.020000000000000004 0
0 0.040000000000000001 0
0 0.54999999999999993 0
0 0.56000000000000005 0
0 0.58000000000000007 0
0.02 0 0
0.02 0.020000000000000004 0
0.02 0.040000000000000001 0
0.02 0.54999999999999993 0
0.02 0.56000000000000005 0
0.02 0.58000000000000007 0
0.040000000000000001 0 0
0.040000000000000001 0.020000000000000004 0
0.040000000000000001 0.040000000000000001 0
0.040000000000000001 0.54999999999999993 0
0.040000000000000001 0.56000000000000005 0
0.040000000000000001 0.58000000000000007 0
0.059999999999999998 0 0
0.059999999999999998 0.020000000000000004 0
0.059999999999999998 0.040000000000000001 0
0.059999999999999998 0.54999999999999993 0
0.059999999999999998 0.56000000000000005 0
0.059999999999999998 0.58000000000000007 0
0.080000000000000002 0 0
0.080000000000000002 0.020000000000000004 0
0.080000000000000002 0.040000000000000001 0
0.080000000000000002 0.54999999999999993 0
0.080000000000000002 0.56000000000000005 0
0.080000000000000002 0.58000000000000007 0
0.10000000000000001 0 0
0.10000000000000001 0.020000000000000004 0
0.10000000000000001 0.040000000000000001 0
0.10000000000000001 0.54999999999999993 0
0.10000000000000001 0.56000000000000005 0
0.10000000000000001 0.58000000000000007 0
0.12 0 0
0.12 0.020000000000000004 0
0.12 0.040000000000000001 0
0.12 0.54999999999999993 0
0.12 0.56000000000000005 0
0.12 0.58000000000000007 0
0.14000000000000001 0 0
0.14000000000000001 0.020000000000000004 0
0.14000000000000001 0.040000000000000001 0
0.14000000000000001 0.54999999999999993 0
0.14000000000000001 0.56000000000000005 0
0.14000000000000001 0.58000000000000007 0
0.16 0 0
0.16 0.020000000000000004 0
0.16 0.040000000000000001 0
0.16 0.54999999999999993 0
0.16 0.56000000000000005 0
0.16 0.58000000000000007 0
0.17999999999999999 0 0
0.17999999999999999 0.020000000000000004 0
0.17999999999999999 0.040000000000000001 0
0.17999999999999999 0.54999999999999993 0
0.17999999999999999 0.56000000000000005 0
0.17999999999999999 0.58000000000000007 0
0.20000000000000001 0 0
0.20000000000000001 0.020000000000000004 0
0.20000000000000001 0.040000000000000001 0
0.20000000000000001 0.54999999999999993 0
0.20000000000000001 0.56000000000000005 0
0.20000000000000001 0.58000000000000007 0
0.22 0 0
0.22 0.020000000000000004 0
0.22 0.040000000000000001 0
0.22 0.54999999999999993 0
0.22 0.56000000000000005 0
0.22 0.58000000000000007 0
0.23999999999999999 0 0
0.23999999999999999 0.020000000000000004 0
0.23999999999999999 0.040000000000000001 0
0.23999999999999999 0.54999999999999993 0
0.23999999999999999 0.56000000000000005 0
0.23999999999999999 0.58000000000000007 0
0.26000000000000001 0 0
0.26000000000000001 0.020000000000000004 0
0.26000000000000001 0.040000000000000001 0
0.26000000000000001 0.54999999999999993 0
0.26000000000000001 0.56000000000000005 0
0.26000000000000001 0.58000000000000007 0
0.28000000000000003 0 0
0.28000000000000003 0.020000000000000004 0
0.28000000000000003 0.040000000000000001 0
0.28000000000000003 0.54999999999999993 0
0.28000000000000003 0.56000000000000005 0
0.28000000000000003 0.58000000000000007 0
0.29999999999999999 0 0
0.29999999999999999 0.020000000000000004 0
0.29999999999999999 0.040000000000000001 0
0.29999999999999999 0.54999999999999993 0
0.29999999999999999 0.56000000000000005 0
0.29999999999999999 0.58000000000000007 0
0.32000000000000001 0 0
0.32000000000000001 0.020000000000000004 0
0.32000000000000001 0.040000000000000001 0
0.32000000000000001 0.54999999999999993 0
0.32000000000000001 0.56000000000000005 0
0.32000000000000001 0.58000000000000007 0
0.34000000000000002 0 0
0.34000000000000002 0.020000000000000004 0
0.34000000000000002 0.040000000000000001 0
0.34000000000000002 0.54999999999999993 0
0.34000000000000002 0.56000000000000005 0
0.34000000000000002 0.58000000000000007 0
0.35999999999999999 0 0
0.35999999999999999 0.020000000000000004 0
0.35999999999999999 0.040000000000000001 0
0.35999999999999999 0.54999999999999993 0
0.35999999999999999 0.56000000000000005 0
0.35999999999999999 0.58000000000000007 0
0.38 0 0
0.38 0.020000000000000004 0
0.38 0.040000000000000001 0
0.38 0.54999999999999993 0
0.38 0.56000000000000005 0
0.38 0.58000000000000007 0
0.40000000000000002 0 0
0.40000000000000002 0.020000000000000004 0
0.40000000000000002 0.040000000000000001 0
0.40000000000000002 0.54999999999999993 0
0.40000000000000002 0.56000000000000005 0
0.40000000000000002 0.58000000000000007 0
0.41999999999999998 0 0
0.41999999999999998 0.020000000000000004 0
0.41999999999999998 0.040000000000000001 0
0.41999999999999998 0.54999999999999993 0
0.41999999999999998 0.56000000000000005 0
0.41999999999999998 0.58000000000000007 0
0.44 0 0
0.44 0.020000000000000004 0
0.44 0.040000000000000001 0
0.44 0.54999999999999993 0
0.44 0.56000000000000005 0
0.44 0.58000000000000007 0
0.46000000000000002 0 0
0.46000000000000002 0.020000000000000004 0
0.46000000000000002 0.040000000000000001 0
0.46000000000000002 0.54999999999999993 0
0.46000000000000002 0.56000000000000005 0
0.46000000000000002 0.58000000000000007 0
0.47999999999999998 0 0
0.47999999999999998 0.020000000000000004 0
0.47999999999999998 0.040000000000000001 0
0.47999999999999998 0.54999999999999993 0
0.47999999999999998 0.56000000000000005 0
0.47999999999999998 0.58000000000000007 0
0.5 0 0
0.5 0.020000000000000004 0
0.5 0.040000000000000001 0
0.5 0.54999999999999993 0
0.5 0.56000000000000005 0
0.5 0.58000000000000007 0
0.52000000000000002 0 0
0.52000000000000002 0.020000000000000004 0
0.52000000000000002 0.040000000000000001 0
0.52000000000000002 0.54999999999999993 0
0.52000000000000002 0.56000000000000005 0
0.52000000000000002 0.58000000000000007 0
0.54000000000000004 0 0
0.54000000000000004 0.020000000000000004 0
0.54000000000000004 0.040000000000000001 0
0.54000000000000004 0.54999999999999993 0
0.54000000000000004 0.56000000000000005 0
0.54000000000000004 0.58000000000000007 0
0.56000000000000005 0 0
0.56000000000000005 0.020000000000000004 0
0.56000000000000005 0.040000000000000001 0
0.56000000000000005 0.54999999999999993 0
0.56000000000000005 0.56000000000000005 0
0.56000000000000005 0.58000000000000007 0
0.57999999999999996 0 0
0.57999999999999996 0.020000000000000004 0
0.57999999999999996 0.040000000000000001 0
0.57999999999999996 0.54999999999999993 0
0.57999999999999996 0.56000000000000005 0
0.57999999999999996 0.58000000000000007 0
0.59999999999999998 0 0
0.59999999999999998 0.020000000000000004 0
0.59999999999999998 0.040000000000000001 0
0.59999999999999998 0.54999999999999993 0
0.59999999999999998 0.56000000000000005 0
0.59999999999999998 0.58000000000000007 0
0.62 0 0
0.62 0.020000000000000004 0
0.62 0.040000000000000001 0
0.62 0.54999999999999993 0
0.62 0.56000000000000005 0
0.62 0.58000000000000007 0
0.64000000000000001 0 0
0.64000000000000001 0.020000000000000004 0
0.64000000000000001 0.040000000000000001 0
0.64000000000000001 0.54999999999999993 0
0.64000000000000001 0.56000000000000005 0
0.64000000000000001 0.58000000000000007 0
0.66000000000000003 0 0
0.66000000000000003 0.020000000000000004 0
0.66000000000000003 0.040000000000000001 0
0.66000000000000003 0.54999999999999993 0
0.66000000000000003 0.56000000000000005 0
0.66000000000000003 0.58000000000000007 0
0.68000000000000005 0 0
0.68000000000000005 0.020000000000000004 0
0.68000000000000005 0.040000000000000001 0
0.68000000000000005 0.54999999999999993 0
0.68000000000000005 0.56000000000000005 0
0.68000000000000005 0.58000000000000007 0
0.70000000000000007 0 0
0.70000000000000007 0.020000000000000004 0
0.70000000000000007 0.040000000000000001 0
0.70000000000000007 0.54999999999999993 0
0.70000000000000007 0.56000000000000005 0
0.70000000000000007 0.58000000000000007 0
0.71999999999999997 0 0
0.71999999999999997 0.020000000000000004 0
0.71999999999999997 0.040000000000000001 0
0.71999999999999997 0.54999999999999993 0
0.71999999999999997 0.56000000000000005 0
0.71999999999999997 0.58000000000000007 0
0.73999999999999999 0 0
0.73999999999999999 0.020000000000000004 0
0.73999999999999999 0.040000000000000001 0
0.73999999999999999 0.54999999999999993 0
0.73999999999999999 0.56000000000000005 0
0.73999999999999999 0.58000000000000007 0
0.76000000000000001 0 0
0.76000000000000001 0.020000000000000004 0
0.76000000000000001 0.040000000000000001 0
0.76000000000000001 0.54999999999999993 0
0.76000000000000001 0.56000000000000005 0
0.76000000000000001 0.58000000000000007 0
0.78000000000000003 0 0
0.78000000000000003 0.020000000000000004 0
0.78000000000000003 0.040000000000000001 0
0.78000000000000003 0.54999999999999993 0
0.78000000000000003 0.56000000000000005 0
0.78000000000000003 0.58000000000000007 0
0.80000000000000004 0 0
0.80000000000000004 0.020000000000000004 0
0.80000000000000004 0.040000000000000001 0
0.80000000000000004 0.54999999999999993 0
0.80000000000000004 0.56000000000000005 0
0.80000000000000004 0.58000000000000007 0
0.82000000000000006 0 0
0.82000000000000006 0.020000000000000004 0
0.82000000000000006 0.040000000000000001 0
0.82000000000000006 0.54999999999999993 0
0.82000000000000006 0.56000000000000005 0
0.82000000000000006 0.58000000000000007 0
0.83999999999999997 0 0
0.83999999999999997 0.020000000000000004 0
0.83999999999999997 0.040000000000000001 0
0.83999999999999997 0.54999999999999993 0
0.83999999999999997 0.56000000000000005 0
0.83999999999999997 0.58000000000000007 0
0.85999999999999999 0 0
0.85999999999999999 0.020000000000000004 0
0.85999999999999999 0.040000000000000001 0
0.85999999999999999 0.54999999999999993 0
0.85999999999999999 0.56000000000000005 0
0.85999999999999999 0.58000000000000007 0
0.88 0 0
0.88 0.020000000000000004 0
0.88 0.040000000000000001 0
0.88 0.54999999999999993 0
0.88 0.56000000000000005 0
0.88 0.58000000000000007 0
0.90000000000000002 0 0
0.90000000000000002 0.020000000000000004 0
0.90000000000000002 0.040000000000000001 0
0.90000000000000002 0.54999999999999993 0
0.90000000000000002 0.56000000000000005 0
0.90000000000000002 0.58000000000000007 0
0.92000000000000004 0 0
0.92000000000000004 0.020000000000000004 0
0.92000000000000004 0.040000000000000001 0
0.92000000000000004 0.54999999999999993 0
0.92000000000000004 0.56000000000000005 0
0.92000000000000004 0.58000000000000007 0
0.94000000000000006 0 0
0.94000000000000006 0.020000000000000004 0
0.94000000000000006 0.040000000000000001 0
0.94000000000000006 0.54999999999999993 0
0.94000000000000006 0.56000000000000005 0
0.94000000000000006 0.58000000000000007 0
0.95999999999999996 0 0
0.95999999999999996 0.020000000000000004 0
0.95999999999999996 0.040000000000000001 0
0.95999999999999996 0.54999999999999993 0
0.95999999999999996 0.56000000000000005 0
0.95999999999999996 0.58000000000000007 0
0.97999999999999998 0 0
0.97999999999999998 0.020000000000000004 0
0.97999999999999998 0.040000000000000001 0
0.97999999999999998 0.54999999999999993 0
0.97999999999999998 0.56000000000000005 0
0.97999999999999998 0.58000000000000007 0
1 0 0
1 0.020000000000000004 0
1 0.040000000000000001 0
1 0.54999999999999993 0
1 0.56000000000000005 0
1 0.58000000000000007 0
VERTICES 681 1362
1 0
1 1
1 2
1 3
1 4
1 5
1 6
1 7
1 8
1 9
1 10
1 11
1 12
1 13
1 14
1 15
1 16
1 17
1 18
1 19
1 20
1 21
1 22
1 23
1 24
1 25
1 26
1 27
1 28
1 29
1 30
1 31
1 32
1 33
1 34
1 35
1 36
1 37
1 38
1 39
1 40
1 41
1 42
1 43
1 44
1 45
1 46
1 47
1 48
1 49
1 50
1 51
1 52
1 53
1 54
1 55
1 56
1 57
1 58
1 59
1 60
1 61
1 62
1 63
1 64
1 65
1 66
1 67
1 68
1 69
1 70
1 71
1 72
1 73
1 74
1 75
1 76
1 77
1 78
1 79
1 80
1 81
1 82
1 83
1 84
1 85
1 86
1 87
1 88
1 89
1 90
1 91
1 92
1 93
1 94
1 95
1 96
1 97
1 98
1 99
1 100
1 101
1 102
1 103
1 104
1 105
1 106
1 107
1 108
1 109
1 110
1 111
1 112
1 113
1 114
1 115
1 116
1 117
1 118
1 119
1 120
1 121
1 122
1 123
1 124
1 125
1 126
1 127
1 128
1 129
1 130
1 131
1 132
1 133
1 134
1 135
1 136
1 137
1 138
1 139
1 140
1 141
1 142
1 143
1 144
1 145
1 146
1 147
1 148
1 149
1 150
1 151
1 152
1 153
1 154
1 155
1 156
1 157
1 158
1 159
1 160
1 161
1 162
1 163
1 164
1 165
1 166
1 167
1 168
1 169
1 170
1 171
1 172
1 173
1 174
1 175
1 176
1 177
1 178
1 179
1 180
1 181
1 182
1 183
1 184
1 185
1 186
1 187
1 188
1 189
1 190
1 191
1 192
1 193
1 194
1 195
1 196
1 197
1 198
1 199
1 200
1 201
1 202
1 203
1 204
1 205
1 206
1 207
1 208
1 209
1 210
1 211
1 212
1 213
1 214
1 215
1 216
1 217
1 218
1 219
1 220
1 221
1 222
1 223
1 224
1 225
1 226
1 227
1 228
1 229
1 230
1 231
1 232
1 233
1 234
1 235
1 236
1 237
1 238
1 239
1 240
1 241
1 242
1 243
1 244
1 245
1 246
1 247
1 248
1 249
1 250
1 251
1 252
1 253
1 254
1 255
1 256
1 257
1 258
1 259
1 260
1 261
1 262
1 263
1 264
1 265
1 266
1 267
1 268
1 269
1 270
1 271
1 272
1 273
1 274
1 275
1 276
1 277
1 278
1 279
1 280
1 281
1 282
1 283
1 284
1 285
1 286
1 287
1 288
1 289
1 290
1 291
1 292
1 293
1 294
1 295
1 296
1 297
1 298
1 299
1 300
1 301
1 302
1 303
1 304
1 305
1 306
1 307
1 308
1 309
1 310
1 311
1 312
1 313
1 314
1 315
1 316
1 317
1 318
1 319
1 320
1 321
1 322
1 323
1 324
1 325
1 326
1 327
1 328
1 329
1 330
1 331
1 332
1 333
1 334
1 335
1 336
1 337
1 338
1 339
1 340
1 341
1 342
1 343
1 344
1 345
1 346
1 347
1 348
1 349
1 350
1 351
1 352
1 353
1 354
1 355
1 356
1 357
1 358
1 359
1 360
1 361
1 362
1 363
1 364
1 365
1 366
1 367
1 368
1 369
1 370
1 371
1 372
1 373
1 374
1 375
1 376
1 377
1 378
1 379
1 380
1 381
1 382
1 383
1 384
1 385
1 386
1 387
1 388
1 389
1 390
1 391
1 392
1 393
1 394
1 395
1 396
1 397
1 398
1 399
1 400
1 401
1 402
1 403
1 404
1 405
1 406
1 407
1 408
1 409
1 410
1 411
1 412
1 413
1 414
1 415
1 416
1 417
1 418
1 419
1 420
1 421
1 422
1 423
1 424
1 425
1 426
1 427
1 428
1 429
1 430
1 431
1 432
1 433
1 434
1 435
1 436
1 437
1 438
1 439
1 440
1 441
1 442
1 443
1 444
1 445
1 446
1 447
1 448
1 449
1 450
1 451
1 452
1 453
1 454
1 455
1 456
1 457
1 458
1 459
1 460
1 461
1 462
1 463
1 464
1 465
1 466
1 467
1 468
1 469
1 470
1 471
1 472
1 473
1 474
1 475
1 476
1 477
1 478
1 479
1 480
1 481
1 482
1 483
1 484
1 485
1 486
1 487
1 488
1 489
1 490
1 491
1 492
1 493
1 494
1 495
1 496
1 497
1 498
1 499
1 500
1 501
1 502
1 503
1 504
1 505
1 506
1 507
1 508
1 509
1 510
1 511
1 512
1 513
1 514
1 515
1 516
1 517
1 518
1 519
1 520
1 521
1 522
1 523
1 524
1 525
1 526
1 527
1 528
1 529
1 530
1 531
1 532
1 533
1 534
1 535
1 536
1 537
1 538
1 539
1 540
1 541
1 542
1 543
1 544
1 545
1 546
1 547
1 548
1 549
1 550
1 551
1 552
1 553
1 554
1 555
1 556
1 557
1 558
1 559
1 560
1 561
1 562
1 563
1 564
1 565
1 566
1 567
1 568
1 569
1 570
1 571
1 572
1 573
1 574
1 575
1 576
1 577
1 578
1 579
1 580
1 581
1 582
1 583
1 584
1 585
1 586
1 587
1 588
1 589
1 590
1 591
1 592
1 593
1 594
1 595
1 596
1 597
1 598
1 599
1 600
1 601
1 602
1 603
1 604
1 605
1 606
1 607
1 608
1 609
1 610
1 611
1 612
1 613
1 614
1 615
1 616
1 617
1 618
1 619
1 620
1 621
1 622
1 623
1 624
1 625
1 626
1 627
1 628
1 629
1 630
1 631
1 632
1 633
1 634
1 635
1 636
1 637
1 638
1 639
1 640
1 641
1 642
1 643
1 644
1 645
1 646
1 647
1 648
1 649
1 650
1 651
1 652
1 653
1 654
1 655
1 656
1 657
1 658
1 659
1 660
1 661
1 662
1 663
1 664
1 665
1 666
1 667
1 668
1 669
1 670
1 671
1 672
1 673
1 674
1 675
1 676
1 677
1 678
1 679
1 680
POINT_DATA 681
SCALARS is_boundary int 1
LOOKUP_TABLE default
0
0
0
0
0
0
0
0
0
0
0
0
0
0
0
0
0
0
0
0
0
0
0
0
0
0
0
0
0
0
0
0
0
0
0
0
0
0
0
0
0
0
0
0
0
0
0
0
0
0
0
0
0
0
0
0
0
0
0
0
0
0
0
0
0
0
0
0
0
0
0
0
0
0
0
0
0
0
0
0
0
0
0
0
0
0
0
0
0
0
0
0
0
0
0
0
0
0
0
0
0
0
0
0
0
0
0
0
0
0
0
0
0
0
0
0
0
0
0
0
0
0
0
0
0
0
0
0
0
0
0
0
0
0
0
0
0
0
0
0
0
0
0
0
0
0
0
0
0
0
0
0
0
0
0
0
0
0
0
0
0
0
0
0
0
0
0
0
0
0
0
0
0
0
0
0
0
0
0
0
0
0
0
0
0
0
0
0
0
0
0
0
0
0
0
0
0
0
0
0
0
0
0
0
0
0
0
0
0
0
0
0
0
0
0
0
0
0
0
0
0
0
0
0
0
0
0
0
0
0
0
0
0
0
0
0
0
0
0
0
0
0
0
0
0
0
0
0
0
0
0
0
0
0
0
0
0
0
0
0
0
0
0
0
0
0
0
0
0
0
0
0
0
0
0
0
0
0
0
0
0
0
0
0
0
0
0
0
0
0
0
0
0
0
0
0
0
0
0
0
0
0
0
0
0
0
0
0
0
0
0
0
0
0
0
0
0
0
0
0
0
0
0
0
0
0
0
0
0
0
0
0
0
0
0
0
0
0
0
0
0
0
0
0
0
0
0
0
0
0
0
0
0
0
0
0
0
0
0
0
0
0
0
0
0
0
0
0
0
0
0
0
0
0
0
1
1
1
1
1
1
1
1
1
1
1
1
1
1
1
1
1
1
1
1
1
1
1
1
1
1
1
1
1
1
1
1
1
1
1
1
1
1
1
1
1
1
1
1
1
1
1
1
1
1
1
1
1
1
1
1
1
1
1
1
1
1
1
1
1
1
1
1
1
1
1
1
1
1
1
1
1
1
1
1
1
1
1
1
1
1
1
1
1
1
1
1
1
1
1
1
1
1
1
1
1
1
1
1
1
1
1
1
1
1
1
1
1
1
1
1
1
1
1
1
1
1
1
1
1
1
1
1
1
1
1
1
1
1
1
1
1
1
1
1
1
1
1
1
1
1
1
1
1
1
1
1
1
1
1
1
1
1
1
1
1
1
1
1
1
1
1
1
1
1
1
1
1
1
1
1
1
1
1
1
1
1
1
1
1
1
1
1
1
1
1
1
1
1
1
1
1
1
1
1
1
1
1
1
1
1
1
1
1
1
1
1
1
1
1
1
1
1
1
1
1
1
1
1
1
1
1
1
1
1
1
1
1
1
1
1
1
1
1
1
1
1
1
1
1
1
1
1
1
1
1
1
1
1
1
1
1
1
1
1
1
1
1
1
1
1
1
1
1
1
1
1
1
1
1
1
1
1
1
1
1
1
1
1
1
1
1
1
1
1
1
1
1
1
1
1
1
1
1
1
1
1
1
1
1
1
SCALARS rho float 1
LOOKUP_TABLE default
1020
1020
1020
1020
1020
1020
1020
1020
1020
1020
1020
1020
1020
1020
1020
1020
1020
1020
1020
1020
1020
1020
1020
1020
850
1020
1020
1020
1020
1020
1020
1020
1020
1020
1020
1020
1020
1020
1020
1020
1020
1020
1020
1020
1020
1020
1020
1020
1020
850
1020
1020
1020
1020
1020
1020
1020
1020
1020
1020
1020
1020
1020
1020
1020
1020
1020
1020
1020
1020
1020
1020
1020
1020
850
1020
1020
1020
1020
1020
1020
1020
1020
1020
1020
1020
1020
1020
1020
1020
1020
1020
1020
1020
1020
1020
1020
1020
1020
850
1020
1020
1020
1020
1020
1020
1020
1020
1020
1020
1020
1020
1020
1020
1020
1020
1020
1020
1020
1020
1020
1020
1020
1020
850
1020
1020
1020
1020
1020
1020
1020
1020
1020
1020
1020
1020
1020
1020
1020
1020
1020
1020
1020
1020
1020
1020
1020
1020
850
1020
1020
1020
1020
1020
1020
1020
1020
1020
1020
1020
1020
1020
1020
1020
1020
1020
1020
1020
1020
1020
1020
1020
1020
850
1020
1020
1020
1020
1020
1020
1020
1020
1020
1020
1020
1020
1020
1020
1020
1020
1020
1020
1020
1020
1020
1020
1020
1020
850
1020
1020
1020
1020
1020
1020
1020
1020
1020
1020
1020
1020
1020
1020
1020
1020
1020
1020
1020
1020
1020
1020
1020
1020
850
1020
1020
1020
1020
1020
1020
1020
1020
1020
1020
1020
1020
1020
1020
1020
1020
1020
1020
1020
1020
1020
1020
1020
1020
850
1020
1020
1020
1020
1020
1020
1020
1020
1020
1020
1020
1020
1020
1020
1020
1020
1020
1020
1020
1020
1020
1020
1020
1020
850
1020
1020
1020
1020
1020
1020
1020
1020
1020
1020
1020
1020
1020
1020
1020
1020
1020
1020
1020
1020
1020
1020
1020
1020
850
1020
1020
1020
1020
1020
1020
1020
1020
1020
1020
1020
1020
1020
1020
1020
1020
1020
1020
1020
1020
1020
1020
1020
1020
850
1020
1020
1020
1020
1020
1020
1020
1020
1020
1020
1020
1020
1020
1020
1020
1020
1020
1020
1020
1020
1020
1020
1020
1020
850
1020
1020
1020
1020
1020
1020
1020
1020
1020
1020
1020
1020
1020
1020
1020
1020
1020
1020
1020
1020
1020
1020
1020
1020
850
1000
1000
1000
1000
1000
1000
1000
1000
1000
1000
1000
1000
1000
1000
1000
1000
1000
1000
1000
1000
1000
1000
1000
1000
1000
1000
1000
1000
1000
1000
1000
1000
1000
1000
1000
1000
1000
1000
1000
1000
1000
1000
1000
1000
1000
1000
1000
1000
1000
1000
1000
1000
1000
1000
1000
1000
1000
1000
1000
1000
1000
1000
1000
1000
1000
1000
1000
1000
1000
1000
1000
1000
1000
1000
1000
1000
1000
1000
1000
1000
1000
1000
1000
1000
1000
1000
1000
1000
1000
1000
1000
1000
1000
1000
1000
1000
1000
1000
1000
1000
1000
1000
1000
1000
1000
1000
1000
1000
1000
1000
1000
1000
1000
1000
1000
1000
1000
1000
1000
1000
1000
1000
1000
1000
1000
1000
1000
1000
1000
1000
1000
1000
1000
1000
1000
1000
1000
1000
1000
1000
1000
1000
1000
1000
1000
1000
1000
1000
1000
1000
1000
1000
1000
1000
1000
1000
1000
1000
1000
1000
1000
1000
1000
1000
1000
1000
1000
1000
1000
1000
1000
1000
1000
1000
1000
1000
1000
1000
1000
1000
1000
1000
1000
1000
1000
1000
1000
1000
1000
1000
1000
1000
1000
1000
1000
1000
1000
1000
1000
1000
1000
1000
1000
1000
1000
1000
1000
1000
1000
1000
1000
1000
1000
1000
1000
1000
1000
1000
1000
1000
1000
1000
1000
1000
1000
1000
1000
1000
1000
1000
1000
1000
1000
1000
1000
1000
1000
1000
1000
1000
1000
1000
1000
1000
1000
1000
1000
1000
1000
1000
1000
1000
1000
1000
1000
1000
1000
1000
1000
1000
1000
1000
1000
1000
1000
1000
1000
1000
1000
1000
1000
1000
1000
1000
1000
1000
1000
1000
1000
1000
1000
1000
1000
1000
1000
1000
1000
1000
1000
1000
1000
1000
1000
1000
1000
1000
1000
1000
1000
1000
1000
1000
1000
1000
1000
1000
SCALARS p float 1
LOOKUP_TABLE default
25004.681136676067
25004.681136676067
25004.681136676067
25004.681136676067
25004.681136676067
25004.681136676067
25004.681136676067
25004.681136676067
25004.681136676067
25004.681136676067
25004.681136676067
25004.681136676067
25004.681136676067
25004.681136676067
25004.681136676067
25004.681136676067
25004.681136676067
25004.681136676067
25004.681136676067
25004.681136676067
25004.681136676067
25004.681136676067
25004.681136676067
25004.681136676067
0
25004.681136676067
25004.681136676067
25004.681136676067
25004.681136676067
25004.681136676067
25004.681136676067
25004.681136676067
25004.681136676067
25004.681136676067
25004.681136676067
25004.681136676067
25004.681136676067
25004.681136676067
25004.681136676067
25004.681136676067
25004.681136676067
25004.681136676067
25004.681136676067
25004.681136676067
25004.681136676067
25004.681136676067
25004.681136676067
25004.681136676067
25004.681136676067
0
25004.681136676067
25004.681136676067
25004.681136676067
25004.681136676067
25004.681136676067
25004.681136676067
25004.681136676067
25004.681136676067
25004.681136676067
25004.681136676067
25004.681136676067
25004.681136676067
25004.681136676067
25004.681136676067
25004.681136676067
25004.681136676067
25004.681136676067
25004.681136676067
25004.681136676067
25004.681136676067
25004.681136676067
25004.681136676067
25004.681136676067
25004.681136676067
0
25004.681136676067
25004.681136676067
25004.681136676067
25004.681136676067
25004.681136676067
25004.681136676067
25004.681136676067
25004.681136676067
25004.681136676067
25004.681136676067
25004.681136676067
25004.681136676067
25004.681136676067
25004.681136676067
25004.681136676067
25004.681136676067
25004.681136676067
25004.681136676067
25004.681136676067
25004.681136676067
25004.681136676067
25004.681136676067
25004.681136676067
25004.681136676067
0
25004.681136676067
25004.681136676067
25004.681136676067
25004.681136676067
25004.681136676067
25004.681136676067
25004.681136676067
25004.681136676067
25004.681136676067
25004.681136676067
25004.681136676067
25004.681136676067
25004.681136676067
25004.681136676067
25004.681136676067
25004.681136676067
25004.681136676067
25004.681136676067
25004.681136676067
25004.681136676067
25004.681136676067
25004.681136676067
25004.681136676067
25004.681136676067
0
25004.681136676067
25004.681136676067
25004.681136676067
25004.681136676067
25004.681136676067
25004.681136676067
25004.681136676067
25004.681136676067
25004.681136676067
25004.681136676067
25004.681136676067
25004.681136676067
25004.681136676067
25004.681136676067
25004.681136676067
25004.681136676067
25004.681136676067
25004.681136676067
25004.681136676067
25004.681136676067
25004.681136676067
25004.681136676067
25004.681136676067
25004.681136676067
0
25004.681136676067
25004.681136676067
25004.681136676067
25004.681136676067
25004.681136676067
25004.681136676067
25004.681136676067
25004.681136676067
25004.681136676067
25004.681136676067
25004.681136676067
25004.681136676067
25004.681136676067
25004.681136676067
25004.681136676067
25004.681136676067
25004.681136676067
25004.681136676067
25004.681136676067
25004.681136676067
25004.681136676067
25004.681136676067
25004.681136676067
25004.681136676067
0
25004.681136676067
25004.681136676067
25004.681136676067
25004.681136676067
25004.681136676067
25004.681136676067
25004.681136676067
25004.681136676067
25004.681136676067
25004.681136676067
25004.681136676067
25004.681136676067
25004.681136676067
25004.681136676067
25004.681136676067
25004.681136676067
25004.681136676067
25004.681136676067
25004.681136676067
25004.681136676067
25004.681136676067
25004.681136676067
25004.681136676067
25004.681136676067
0
25004.681136676067
25004.681136676067
25004.681136676067
25004.681136676067
25004.681136676067
25004.681136676067
25004.681136676067
25004.681136676067
25004.681136676067
25004.681136676067
25004.681136676067
25004.681136676067
25004.681136676067
25004.681136676067
25004.681136676067
25004.681136676067
25004.681136676067
25004.681136676067
25004.681136676067
25004.681136676067
25004.681136676067
25004.681136676067
25004.681136676067
25004.681136676067
0
25004.681136676067
25004.681136676067
25004.681136676067
25004.681136676067
25004.681136676067
25004.681136676067
25004.681136676067
25004.681136676067
25004.681136676067
25004.681136676067
25004.681136676067
25004.681136676067
25004.681136676067
25004.681136676067
25004.681136676067
25004.681136676067
25004.681136676067
25004.681136676067
25004.681136676067
25004.681136676067
25004.681136676067
25004.681136676067
25004.681136676067
25004.681136676067
0
25004.681136676067
25004.681136676067
25004.681136676067
25004.681136676067
25004.681136676067
25004.681136676067
25004.681136676067
25004.681136676067
25004.681136676067
25004.681136676067
25004.681136676067
25004.681136676067
25004.681136676067
25004.681136676067
25004.681136676067
25004.681136676067
25004.681136676067
25004.681136676067
25004.681136676067
25004.681136676067
25004.681136676067
25004.681136676067
25004.681136676067
25004.681136676067
0
25004.681136676067
25004.681136676067
25004.681136676067
25004.681136676067
25004.681136676067
25004.681136676067
25004.681136676067
25004.681136676067
25004.681136676067
25004.681136676067
25004.681136676067
25004.681136676067
25004.681136676067
25004.681136676067
25004.681136676067
25004.681136676067
25004.681136676067
25004.681136676067
25004.681136676067
25004.681136676067
25004.681136676067
25004.681136676067
25004.681136676067
25004.681136676067
0
25004.681136676067
25004.681136676067
25004.681136676067
25004.681136676067
25004.681136676067
25004.681136676067
25004.681136676067
25004.681136676067
25004.681136676067
25004.681136676067
25004.681136676067
25004.681136676067
25004.681136676067
25004.681136676067
25004.681136676067
25004.681136676067
25004.681136676067
25004.681136676067
25004.681136676067
25004.681136676067
25004.681136676067
25004.681136676067
25004.681136676067
25004.681136676067
0
25004.681136676067
25004.681136676067
25004.681136676067
25004.681136676067
25004.681136676067
25004.681136676067
25004.681136676067
25004.681136676067
25004.681136676067
25004.681136676067
25004.681136676067
25004.681136676067
25004.681136676067
25004.681136676067
25004.681136676067
25004.681136676067
25004.681136676067
25004.681136676067
25004.681136676067
25004.681136676067
25004.681136676067
25004.681136676067
25004.681136676067
25004.681136676067
0
25004.681136676067
25004.681136676067
25004.681136676067
25004.681136676067
25004.681136676067
25004.681136676067
25004.681136676067
25004.681136676067
25004.681136676067
25004.681136676067
25004.681136676067
25004.681136676067
25004.681136676067
25004.681136676067
25004.681136676067
25004.681136676067
25004.681136676067
25004.681136676067
25004.681136676067
25004.681136676067
25004.681136676067
25004.681136676067
25004.681136676067
25004.681136676067
0
0
0
0
0
0
0
24194.589932754443
24986.350190385307
24997.262543207966
0
0
0
24986.98415102921
25003.354823463484
25004.078982547417
0
0
0
24996.532315399349
25003.999402830348
25004.362274559364
0
0
0
24997.335143875782
25004.030418309423
25004.369353965809
0
0
0
24997.38394318389
25004.030012141931
25004.367504771209
0
0
0
24997.355963793903
25004.028553364227
25004.36697026683
0
0
0
24997.336815010261
25004.027666657559
25004.366759218654
0
0
0
24997.327424586929
25004.027235069687
25004.366665868307
0
0
0
24997.32373635269
25004.027070077729
25004.366632850786
0
0
0
24997.323695553379
25004.027069338554
25004.366633301463
0
0
0
24997.327381346749
25004.027235122077
25004.366667097293
0
0
0
24997.336769106732
25004.027666733509
25004.366760403202
0
0
0
24997.355934004787
25004.028554043321
25004.366972862856
0
0
0
24997.383851045648
25004.030008847698
25004.36750710319
0
0
0
24997.334980417032
25004.030415145848
25004.36935770986
0
0
0
24996.532136022601
25003.999409618784
25004.362284391882
0
0
0
24986.982787848065
25003.35477687608
25004.078966450219
0
0
0
24194.38957392285
24986.34782768651
24997.261404627032
0
0
0
0
0
0
0
0
0
0
0
0
0
0
0
0
0
0
0
0
0
0
0
0
0
0
0
0
0
0
0
0
0
0
0
0
0
0
0
0
0
0
0
0
0
0
0
0
0
0
0
0
0
0
0
0
0
0
0
0
0
0
0
0
0
0
0
0
0
0
0
0
0
0
0
0
0
0
0
0
0
0
0
0
0
0
0
0
0
0
0
0
0
0
0
0
0
0
0
0
0
0
0
0
0
0
0
0
0
0
0
0
0
0
0
0
0
0
0
0
0
0
0
0
0
0
0
0
0
0
0
0
0
0
0
0
0
0
0
0
0
0
0
0
0
0
0
0
0
0
0
0
0
0
0
0
0
0
0
0
0
0
0
0
0
0
0
0
0
0
0
0
0
0
0
0
0
0
0
0
0
0
0
0
0
0
0
0
0
0
0
0
0
0
0
SCALARS m float 1
LOOKUP_TABLE default
0.39942306611962441
0.39942306611962441
0.39942306611962441
0.39942306611962441
0.39942306611962441
0.39942306611962441
0.39942306611962441
0.39942306611962441
0.39942306611962441
0.39942306611962441
0.39942306611962441
0.39942306611962441
0.39942306611962441
0.39942306611962441
0.39942306611962441
0.39942306611962441
0.39942306611962441
0.39942306611962441
0.39942306611962441
0.39942306611962441
0.39942306611962441
0.39942306611962441
0.39942306611962441
0.39942306611962441
0.39942306611962441
0.39942306611962441
0.39942306611962441
0.39942306611962441
0.39942306611962441
0.39942306611962441
0.39942306611962441
0.39942306611962441
0.39942306611962441
0.39942306611962441
0.39942306611962441
0.39942306611962441
0.39942306611962441
0.39942306611962441
0.39942306611962441
0.39942306611962441
0.39942306611962441
0.39942306611962441
0.39942306611962441
0.39942306611962441
0.39942306611962441
0.39942306611962441
0.39942306611962441
0.39942306611962441
0.39942306611962441
0.39942306611962441
0.39942306611962441
0.39942306611962441
0.39942306611962441
0.39942306611962441
0.39942306611962441
0.39942306611962441
0.39942306611962441
0.39942306611962441
0.39942306611962441
0.39942306611962441
0.39942306611962441
0.39942306611962441
0.39942306611962441
0.39942306611962441
0.39942306611962441
0.39942306611962441
0.39942306611962441
0.39942306611962441
0.39942306611962441
0.39942306611962441
0.39942306611962441
0.39942306611962441
0.39942306611962441
0.39942306611962441
0.39942306611962441
0.39942306611962441
0.39942306611962441
0.39942306611962441
0.39942306611962441
0.39942306611962441
0.39942306611962441
0.39942306611962441
0.39942306611962441
0.39942306611962441
0.39942306611962441
0.39942306611962441
0.39942306611962441
0.39942306611962441
0.39942306611962441
0.39942306611962441
0.39942306611962441
0.39942306611962441
0.39942306611962441
0.39942306611962441
0.39942306611962441
0.39942306611962441
0.39942306611962441
0.39942306611962441
0.39942306611962441
0.39942306611962441
0.39942306611962441
0.39942306611962441
0.39942306611962441
0.39942306611962441
0.39942306611962441
0.39942306611962441
0.39942306611962441
0.39942306611962441
0.39942306611962441
0.39942306611962441
0.39942306611962441
0.39942306611962441
0.39942306611962441
0.39942306611962441
0.39942306611962441
0.39942306611962441
0.39942306611962441
0.39942306611962441
0.39942306611962441
0.39942306611962441
0.39942306611962441
0.39942306611962441
0.39942306611962441
0.39942306611962441
0.39942306611962441
0.39942306611962441
0.39942306611962441
0.39942306611962441
0.39942306611962441
0.39942306611962441
0.39942306611962441
0.39942306611962441
0.39942306611962441
0.39942306611962441
0.39942306611962441
0.39942306611962441
0.39942306611962441
0.39942306611962441
0.39942306611962441
0.39942306611962441
0.39942306611962441
0.39942306611962441
0.39942306611962441
0.39942306611962441
0.39942306611962441
0.39942306611962441
0.39942306611962441
0.39942306611962441
0.39942306611962441
0.39942306611962441
0.39942306611962441
0.39942306611962441
0.39942306611962441
0.39942306611962441
0.39942306611962441
0.39942306611962441
0.39942306611962441
0.39942306611962441
0.39942306611962441
0.39942306611962441
0.39942306611962441
0.39942306611962441
0.39942306611962441
0.39942306611962441
0.39942306611962441
0.39942306611962441
0.39942306611962441
0.39942306611962441
0.39942306611962441
0.39942306611962441
0.39942306611962441
0.39942306611962441
0.39942306611962441
0.39942306611962441
0.39942306611962441
0.39942306611962441
0.39942306611962441
0.39942306611962441
0.39942306611962441
0.39942306611962441
0.39942306611962441
0.39942306611962441
0.39942306611962441
0.39942306611962441
0.39942306611962441
0.39942306611962441
0.39942306611962441
0.39942306611962441
0.39942306611962441
0.39942306611962441
0.39942306611962441
0.39942306611962441
0.39942306611962441
0.39942306611962441
0.39942306611962441
0.39942306611962441
0.39942306611962441
0.39942306611962441
0.39942306611962441
0.39942306611962441
0.39942306611962441
0.39942306611962441
0.39942306611962441
0.39942306611962441
0.39942306611962441
0.39942306611962441
0.39942306611962441
0.39942306611962441
0.39942306611962441
0.39942306611962441
0.39942306611962441
0.39942306611962441
0.39942306611962441
0.39942306611962441
0.39942306611962441
0.39942306611962441
0.39942306611962441
0.39942306611962441
0.39942306611962441
0.39942306611962441
0.39942306611962441
0.39942306611962441
0.39942306611962441
0.39942306611962441
0.39942306611962441
0.39942306611962441
0.39942306611962441
0.39942306611962441
0.39942306611962441
0.39942306611962441
0.39942306611962441
0.39942306611962441
0.39942306611962441
0.39942306611962441
0.39942306611962441
0.39942306611962441
0.39942306611962441
0.39942306611962441
0.39942306611962441
0.39942306611962441
0.39942306611962441
0.39942306611962441
0.39942306611962441
0.39942306611962441
0.39942306611962441
0.39942306611962441
0.39942306611962441
0.39942306611962441
0.39942306611962441
0.39942306611962441
0.39942306611962441
0.39942306611962441
0.39942306611962441
0.39942306611962441
0.39942306611962441
0.39942306611962441
0.39942306611962441
0.39942306611962441
0.39942306611962441
0.39942306611962441
0.39942306611962441
0.39942306611962441
0.39942306611962441
0.39942306611962441
0.39942306611962441
0.39942306611962441
0.39942306611962441
0.39942306611962441
0.39942306611962441
0.39942306611962441
0.39942306611962441
0.39942306611962441
0.39942306611962441
0.39942306611962441
0.39942306611962441
0.39942306611962441
0.39942306611962441
0.39942306611962441
0.39942306611962441
0.39942306611962441
0.39942306611962441
0.39942306611962441
0.39942306611962441
0.39942306611962441
0.39942306611962441
0.39942306611962441
0.39942306611962441
0.39942306611962441
0.39942306611962441
0.39942306611962441
0.39942306611962441
0.39942306611962441
0.39942306611962441
0.39942306611962441
0.39942306611962441
0.39942306611962441
0.39942306611962441
0.39942306611962441
0.39942306611962441
0.39942306611962441
0.39942306611962441
0.39942306611962441
0.39942306611962441
0.39942306611962441
0.39942306611962441
0.39942306611962441
0.39942306611962441
0.39942306611962441
0.39942306611962441
0.39942306611962441
0.39942306611962441
0.39942306611962441
0.39942306611962441
0.39942306611962441
0.39942306611962441
0.39942306611962441
0.39942306611962441
0.39942306611962441
0.39942306611962441
0.39942306611962441
0.39942306611962441
0.39942306611962441
0.39942306611962441
0.39942306611962441
0.39942306611962441
0.39942306611962441
0.39942306611962441
0.39942306611962441
0.39942306611962441
0.39942306611962441
0.39942306611962441
0.39942306611962441
0.39942306611962441
0.39942306611962441
0.39942306611962441
0.39942306611962441
0.39942306611962441
0.39942306611962441
0.39942306611962441
0.39942306611962441
0.39942306611962441
0.39942306611962441
0.39942306611962441
0.39942306611962441
0.39942306611962441
0.39942306611962441
0.39942306611962441
0.39942306611962441
0.39942306611962441
0.39942306611962441
0.39942306611962441
0.39942306611962441
0.39942306611962441
0.39942306611962441
0.39942306611962441
0.39942306611962441
0.39942306611962441
0.39942306611962441
0.39942306611962441
0.39942306611962441
0.39942306611962441
0.39942306611962441
0.39942306611962441
0.39942306611962441
0.39942306611962441
0.39942306611962441
0.39942306611962441
0.39942306611962441
0.39942306611962441
0.39942306611962441
0.39942306611962441
0.39942306611962441
0.39942306611962441
0.39942306611962441
0.39942306611962441
0.39942306611962441
0.39942306611962441
0.39942306611962441
0.39942306611962441
0.39942306611962441
0.39942306611962441
0.39942306611962441
0.39942306611962441
0.39942306611962441
0.39942306611962441
0.39942306611962441
0.39942306611962441
0.39942306611962441
0.39942306611962441
0.39942306611962441
0.39942306611962441
0.39942306611962441
0.39942306611962441
0.39942306611962441
0.39942306611962441
0.39942306611962441
0.39942306611962441
0.39942306611962441
0.39942306611962441
0.39942306611962441
0.39942306611962441
0.39942306611962441
0.39942306611962441
0.39942306611962441
0.39942306611962441
0.39942306611962441
0.39942306611962441
0.39942306611962441
0.39942306611962441
0.39942306611962441
0.39942306611962441
0.39942306611962441
0.39942306611962441
0.39942306611962441
0.39942306611962441
0.39942306611962441
0.39942306611962441
0.39942306611962441
0.39942306611962441
0.39942306611962441
0.39942306611962441
0.39942306611962441
0.39942306611962441
0.39942306611962441
0.39942306611962441
0.39942306611962441
0.39942306611962441
0.39942306611962441
0.39942306611962441
0.39942306611962441
0.39942306611962441
0.39942306611962441
0.39942306611962441
0.39942306611962441
0.39942306611962441
0.39942306611962441
0.39942306611962441
0.39942306611962441
0.39942306611962441
0.39942306611962441
0.39942306611962441
0.39942306611962441
0.39942306611962441
0.39942306611962441
0.39942306611962441
0.39942306611962441
0.39942306611962441
0.39942306611962441
0.39942306611962441
0.39942306611962441
0.39942306611962441
0.39942306611962441
0.39942306611962441
0.39942306611962441
0.39942306611962441
0.39942306611962441
0.39942306611962441
0.39942306611962441
0.39942306611962441
0.39942306611962441
0.39942306611962441
0.39942306611962441
0.39942306611962441
0.39942306611962441
0.39942306611962441
0.39942306611962441
0.39942306611962441
0.39942306611962441
0.39942306611962441
0.39942306611962441
0.39942306611962441
0.39942306611962441
0.39942306611962441
0.39942306611962441
0.39942306611962441
0.39942306611962441
0.39942306611962441
0.39942306611962441
0.39942306611962441
0.39942306611962441
0.39942306611962441
0.39942306611962441
0.39942306611962441
0.39942306611962441
0.39942306611962441
0.39942306611962441
0.39942306611962441
0.39942306611962441
0.39942306611962441
0.39942306611962441
0.39942306611962441
0.39942306611962441
0.39942306611962441
0.39942306611962441
0.39942306611962441
0.39942306611962441
0.39942306611962441
0.39942306611962441
0.39942306611962441
0.39942306611962441
0.39942306611962441
0.39942306611962441
0.39942306611962441
0.39942306611962441
0.39942306611962441
0.39942306611962441
0.39942306611962441
0.39942306611962441
0.39942306611962441
0.39942306611962441
0.39942306611962441
0.39942306611962441
0.39942306611962441
0.39942306611962441
0.39942306611962441
0.39942306611962441
0.39942306611962441
0.39942306611962441
0.39942306611962441
0.39942306611962441
0.39942306611962441
0.39942306611962441
0.39942306611962441
0.39942306611962441
0.39942306611962441
0.39942306611962441
0.39942306611962441
0.39942306611962441
0.39942306611962441
0.39942306611962441
0.39942306611962441
0.39942306611962441
0.39942306611962441
0.39942306611962441
0.39942306611962441
0.39942306611962441
0.39942306611962441
0.39942306611962441
0.39942306611962441
0.39942306611962441
0.39942306611962441
0.39942306611962441
0.39942306611962441
0.39942306611962441
0.39942306611962441
0.39942306611962441
0.39942306611962441
0.39942306611962441
0.39942306611962441
0.39942306611962441
0.39942306611962441
0.39942306611962441
0.39942306611962441
0.39942306611962441
0.39942306611962441
0.39942306611962441
0.39942306611962441
0.39942306611962441
0.39942306611962441
0.39942306611962441
0.39942306611962441
0.39942306611962441
0.39942306611962441
0.39942306611962441
0.39942306611962441
0.39942306611962441
0.39942306611962441
0.39942306611962441
0.39942306611962441
0.39942306611962441
0.39942306611962441
0.39942306611962441
0.39942306611962441
0.39942306611962441
0.39942306611962441
0.39942306611962441
0.39942306611962441
0.39942306611962441
0.39942306611962441
0.39942306611962441
0.39942306611962441
0.39942306611962441
0.39942306611962441
0.39942306611962441
0.39942306611962441
0.39942306611962441
0.39942306611962441
0.39942306611962441
0.39942306611962441
0.39942306611962441
0.39942306611962441
0.39942306611962441
0.39942306611962441
0.39942306611962441
0.39942306611962441
0.39942306611962441
0.39942306611962441
0.39942306611962441
0.39942306611962441
0.39942306611962441
0.39942306611962441
0.39942306611962441
0.39942306611962441
0.39942306611962441
0.39942306611962441
0.39942306611962441
0.39942306611962441
0.39942306611962441
0.39942306611962441
0.39942306611962441
0.39942306611962441
0.39942306611962441
0.39942306611962441
0.39942306611962441
0.39942306611962441
0.39942306611962441
0.39942306611962441
0.39942306611962441
0.39942306611962441
0.39942306611962441
0.39942306611962441
0.39942306611962441
0.39942306611962441
0.39942306611962441
0.39942306611962441
0.39942306611962441
0.39942306611962441
0.39942306611962441
0.39942306611962441
0.39942306611962441
0.39942306611962441
0.39942306611962441
0.39942306611962441
0.39942306611962441
0.39942306611962441
0.39942306611962441
0.39942306611962441
0.39942306611962441
0.39942306611962441
0.39942306611962441
0.39942306611962441
0.39942306611962441
0.39942306611962441
0.39942306611962441
0.39942306611962441
0.39942306611962441
0.39942306611962441
0.39942306611962441
0.39942306611962441
0.39942306611962441
0.39942306611962441
0.39942306611962441
0.39942306611962441
0.39942306611962441
0.39942306611962441
0.39942306611962441
0.39942306611962441
0.39942306611962441
0.39942306611962441
0.39942306611962441
0.39942306611962441
0.39942306611962441
0.39942306611962441
0.39942306611962441
0.39942306611962441
0.39942306611962441
0.39942306611962441
0.39942306611962441
0.39942306611962441
0.39942306611962441
0.39942306611962441
0.39942306611962441
0.39942306611962441
0.39942306611962441
0.39942306611962441
0.39942306611962441
0.39942306611962441
0.39942306611962441
0.39942306611962441
0.39942306611962441
0.39942306611962441
VECTORS v float
-4.4939276661148138e-05 -0.07754332535111938 0
-4.8225186405364234e-05 -0.083340836813002986 0
-5.0658277216251048e-05 -0.088047773714135788 0
-5.3108063044643914e-05 -0.092952452194164092 0
-5.5404218676461901e-05 -0.098092540080138749 0
-5.7845465726262134e-05 -0.10352727915240668 0
-6.00481971853403e-05 -0.10934385362089864 0
-6.2157946886564337e-05 -0.11563796391445434 0
-6.4158524108625943e-05 -0.12250420270696531 0
-6.6293478919250757e-05 -0.13005485067292458 0
-6.7592787268711078e-05 -0.13845767756562158 0
-6.9362946082004843e-05 -0.14793414221760662 0
-7.1269348201826081e-05 -0.15876290512620317 0
-7.2938355127192652e-05 -0.17128023470576365 0
-7.4829550433749305e-05 -0.18594483620562172 0
-7.666829836993029e-05 -0.20337200204528721 0
-7.8691665138702345e-05 -0.22443505052611071 0
-8.0792140465099874e-05 -0.25046520992862414 0
-8.2163405863665463e-05 -0.28327072874511111 0
-8.4275268386878194e-05 -0.32617086582289251 0
-8.6342831192251076e-05 -0.38607638853489268 0
-8.877049964154742e-05 -0.47727719481726949 0
-8.7969291137491039e-05 -0.66309700434312135 0
-6.0687317670006643e-05 -1.5423538058368462 0
-1.3085556965948452e-17 -2.7651582905481176 0
-2.7507615741935845e-05 -0.080328229002260998 0
-2.9875110476968981e-05 -0.086523194943947723 0
-3.162144945784517e-05 -0.091602765367020347 0
-3.3244008656060835e-05 -0.09677844383473834 0
-3.4689547568359022e-05 -0.10213710132490623 0
-3.5985337044245522e-05 -0.1077743493588256 0
-3.7555507980196219e-05 -0.11379190130110008 0
-3.8881725820693468e-05 -0.120298241240836 0
-4.0029210735748004e-05 -0.12741057482523022 0
-4.1070169929973126e-05 -0.13525760290542033 0
-4.2713988224380964e-05 -0.14401569580000861 0
-4.3794941285556919e-05 -0.15389779112179583 0
-4.5331079387102818e-05 -0.16517073697860626 0
-4.664579857306002e-05 -0.17818584022944695 0
-4.7918759470274184e-05 -0.19343947729849495 0
-4.9173477638185397e-05 -0.21159860112552509 0
-5.0392976995687803e-05 -0.23354419193384357 0
-5.1593597748620572e-05 -0.26061180315911336 0
-5.2448995691239863e-05 -0.29464458977460295 0
-5.3172938375450455e-05 -0.33904673792587525 0
-5.3681776769620369e-05 -0.40049175327280473 0
-5.3827033829628922e-05 -0.49290329709539099 0
-5.233716436101072e-05 -0.6662551045579167 0
-3.8888188131525269e-05 -1.401559727787054 0
-1.6155178416230316e-17 -2.7657870949508085 0
-1.1300442507215471e-05 -0.080941619928494066 0
-1.2557052038665737e-05 -0.087169904104272139 0
-1.3514754405440134e-05 -0.09228144722688901 0
-1.429014022409074e-05 -0.097503527568652132 0
-1.5245182155625643e-05 -0.10291688376787357 0
-1.586164479950224e-05 -0.10862429174092297 0
-1.6796221436582554e-05 -0.1147238547790687 0
-1.7488728380023592e-05 -0.12133119629395715 0
-1.8259126711533274e-05 -0.12856112526775076 0
-1.9570806666757667e-05 -0.13654637527586597 0
-1.9285781538812653e-05 -0.14547123438906748 0
-2.0254980087245227e-05 -0.15555657273576648 0
-2.1476351280034367e-05 -0.16706972594949682 0
-2.2317286267593011e-05 -0.180357911433256 0
-2.306017977736654e-05 -0.19591344760372148 0
-2.3721431653441339e-05 -0.21442682758636383 0
-2.4627560743448013e-05 -0.23679331421772581 0
-2.5536281107285711e-05 -0.26423941895705011 0
-2.6748612322346021e-05 -0.29859759335559505 0
-2.7481650118362891e-05 -0.3432257921749195 0
-2.8063984204584881e-05 -0.40460031901385812 0
-2.8250833594117296e-05 -0.49645812755209701 0
-2.8251508789058262e-05 -0.66736595203290161 0
-2.2334650486102388e-05 -1.3783588017226005 0
-2.0361475244261759e-17 -2.7668400301300369 0
-4.2898062981451202e-06 -0.081051373353257614 0
-4.7988497573428329e-06 -0.087299233851318978 0
-5.4559781349783684e-06 -0.092427751125435345 0
-5.6836570807328796e-06 -0.097668159729220758 0
-6.2553305280015872e-06 -0.10310367121613037 0
-6.7006382599813426e-06 -0.10883510901349423 0
-7.1392836365448962e-06 -0.11496313068168777 0
-7.1439795929235414e-06 -0.12160273956209104 0
-7.7129671760051542e-06 -0.12887059553629518 0
-8.2829154707966255e-06 -0.13689839803739604 0
-8.0870355643696702e-06 -0.14587699539467625 0
-9.060345077873575e-06 -0.1560267845694443 0
-8.8200374910876069e-06 -0.16761575196512543 0
-9.3319692718037333e-06 -0.18099447541134833 0
-9.7447169504588944e-06 -0.19664896989378253 0
-1.0171949767919662e-05 -0.21527733069411495 0
-1.0781672697026427e-05 -0.23778352827240878 0
-1.0756748099040065e-05 -0.26536582486753402 0
-1.1343433104546193e-05 -0.299855614824726 0
-1.2039288945908261e-05 -0.3446013267504377 0
-1.2573348699913875e-05 -0.40608772099841511 0
-1.2750618884399989e-05 -0.49805613410338334 0
-1.3203655726337155e-05 -0.66882444563240062 0
-1.0841565810104703e-05 -1.3754764939052471 0
-2.2944377813073459e-17 -2.7680382023985031 0
-1.8303330766099935e-06 -0.081047283586796623 0
-2.0796121454964044e-06 -0.087304625111656348 0
-2.2641741190067823e-06 -0.09244115042130252 0
-2.6549375656264651e-06 -0.09768998557769476 0
-2.4203303395137665e-06 -0.10313421618303402 0
-2.4501205569889661e-06 -0.10887592940127971 0
-3.0601917474440081e-06 -0.11501518788629642 0
-3.5988983623409877e-06 -0.12166633414564267 0
-3.6918369685405136e-06 -0.12894789891138109 0
-3.2971232374984235e-06 -0.13699132217564741 0
-3.6553501154515276e-06 -0.14598848574919332 0
-3.5456785637260962e-06 -0.15616126319097393 0
-2.6082931499592349e-06 -0.16777853353918434 0
-2.9422117186691924e-06 -0.18118837894909684 0
-3.0031291676928413e-06 -0.19687956971533244 0
-3.8183886391443756e-06 -0.21554682912092765 0
-4.0668357729978043e-06 -0.23809694409853907 0
-4.3207738779130992e-06 -0.26572479550417871 0
-4.5021407890599929e-06 -0.30026707241973399 0
-4.5858666140032355e-06 -0.34507675778135627 0
-5.003548791476296e-06 -0.40665858292169849 0
-5.3144362905191546e-06 -0.49877665535602406 0
-5.2208846047092604e-06 -0.66981550626635522 0
-4.1615176354406143e-06 -1.3766832066859769 0
-2.1771990927728577e-17 -2.7691255337914029 0
-1.1099745251817487e-06 -0.08102755757444445 0
-1.1801152453338255e-06 -0.087287739180938073 0
-1.3991489128842277e-06 -0.092426983483835642 0
-1.4052581942497933e-06 -0.097678515871144067 0
-1.2102550861627129e-06 -0.10312596214218997 0
-1.3378240991421393e-06 -0.10887150807696003 0
-1.5101332121980286e-06 -0.11501406797062903 0
-1.3845182604820115e-06 -0.12166977565487301 0
-1.7582992557297285e-06 -0.12895585861303893 0
-1.566631410666256e-06 -0.13700510307808969 0
-2.0150020499910153e-06 -0.14600947782197898 0
-1.9849384260326359e-06 -0.15619090952957623 0
-1.8588942875357043e-06 -0.1678178117508137 0
-1.5885331268480164e-06 -0.18123889507248234 0
-1.8235650207446533e-06 -0.19694419602075017 0
-1.9985670088399378e-06 -0.2156259261918165 0
-1.9860679876197896e-06 -0.23819375082316518 0
-1.9440763394513046e-06 -0.26584226476596334 0
-2.0163260108060511e-06 -0.30041239004515968 0
-1.8360661075414765e-06 -0.34526003650388287 0
-1.6471233242850211e-06 -0.40689595994604283 0
-1.6416394484126783e-06 -0.49911481039296635 0
-1.6381316963915577e-06 -0.67039363758005144 0
-9.4031033899587161e-07 -1.3781119109302535 0
-1.6492402641590946e-17 -2.769944809321093 0
1.0053526581813956e-06 -0.081012691291768579 0
9.365383356390008e-07 -0.087274032578305447 0
1.1861295898637382e-06 -0.092414101633686879 0
1.2953849253542461e-06 -0.097666425464120479 0
1.2501215657075669e-06 -0.10311425792422052 0
1.2557285895588371e-06 -0.10886039102219404 0
1.3494588108989262e-06 -0.11500525034232682 0
1.4658961225176516e-06 -0.12166201566307482 0
1.2397935414618504e-06 -0.12895030714703637 0
1.1106821852664936e-06 -0.13700101844380891 0
1.3593403579979844e-06 -0.14600815371146589 0
1.3226432287105534e-06 -0.15619198307824506 0
1.1256016798268015e-06 -0.16782254559592066 0
1.1598431441173766e-06 -0.18124873654439003 0
1.752502978993187e-06 -0.19695833589168765 0
1.6469249958003383e-06 -0.21564621457594785 0
1.0406770873802986e-06 -0.23822241116748144 0
9.8925352056599563e-07 -0.26587811333684896 0
7.7333167730788059e-07 -0.30046029754897646 0
6.0490875812542486e-07 -0.34532601971053511 0
1.1880576356022235e-07 -0.40699134594764225 0
6.042316655027611e-08 -0.49926517794708075 0
-2.5029656394728301e-08 -0.6706855175815889 0
1.2736089609421428e-08 -1.3789968842632696 0
-8.2740661548603577e-18 -2.770437568796337 0
9.119005968986191e-07 -0.081006746390825765 0
9.4303797093732761e-07 -0.087268278095876464 0
1.6331923890071357e-06 -0.092408037035076024 0
1.6689914961876467e-06 -0.097660686874061597 0
1.9092138286688537e-06 -0.10310881461274507 0
1.7798614412717041e-06 -0.10885514107832223 0
2.1307405488053135e-06 -0.11499969626119469 0
2.6075299295611179e-06 -0.1216567150156927 0
3.0866968417820116e-06 -0.12894620853577113 0
3.5443122494796667e-06 -0.13699882624786733 0
2.719501000924388e-06 -0.14600748471332556 0
3.1797662160489126e-06 -0.15619255080760816 0
2.824670065604139e-06 -0.16782322411995781 0
2.7913565057970383e-06 -0.18125153276822242 0
2.938529686616954e-06 -0.19696163742083328 0
2.0176086400478764e-06 -0.21565219322449211 0
1.7130194745589683e-06 -0.23822929183876776 0
1.9427261867857721e-06 -0.26588790861052392 0
1.820477236509662e-06 -0.30047389179851614 0
1.7136306109135202e-06 -0.34534451866719867 0
1.5288738052845785e-06 -0.40701770613349447 0
1.5838060566793345e-06 -0.49930853600829406 0
1.5051963272005045e-06 -0.67077341445074157 0
1.0011416404857589e-06 -1.3792798033573821 0
1.2595053468215924e-18 -2.7706001539063889 0
2.4963810757526197e-07 -0.081012518666583933 0
2.1693878806487032e-08 -0.087274205410316871 0
-9.6815291074851303e-08 -0.092417250973000464 0
-2.7317201935690424e-07 -0.097665705006339573 0
-2.7595870161153613e-07 -0.10311386748849256 0
-4.5192543997712447e-07 -0.10886181797804485 0
-4.1333340102644703e-07 -0.11500652661080789 0
-2.9284727618938354e-07 -0.12166228193448744 0
-1.7706106575283777e-07 -0.12894985273460963 0
1.0718650668721112e-07 -0.13700108762741572 0
-2.3075655266403267e-07 -0.14600897978197488 0
9.643407664414022e-08 -0.15619276034243743 0
1.7457166026200261e-07 -0.16782222005516512 0
5.2425832611261983e-07 -0.18124910649195314 0
6.1995520894298085e-07 -0.19695876306379814 0
5.8815255446393592e-07 -0.21564657073621146 0
1.1267283245135076e-06 -0.23822271018789229 0
1.0088736242990613e-06 -0.26587902391165424 0
1.0068835057782031e-06 -0.30046132249604113 0
1.2277083564531693e-06 -0.34532704685639359 0
1.5483791794847561e-06 -0.40699100032889907 0
1.6738024520032388e-06 -0.49926490797171097 0
1.7538695077544047e-06 -0.67068370930957644 0
1.5076892890131472e-06 -1.3789878097084003 0
1.0655487834254754e-17 -2.770437568796337 0
1.2628912239110513e-06 -0.081027895127606997 0
1.6357635214267612e-06 -0.087288157385029125 0
1.7858937530263247e-06 -0.092427351513151554 0
1.6821484450728142e-06 -0.097679005673477606 0
1.8599085802730586e-06 -0.10312651642973443 0
1.9994739417908106e-06 -0.10887127130781199 0
2.0481591259544448e-06 -0.115013938886366 0
2.0572288880686149e-06 -0.12166915584514086 0
2.5107420706151097e-06 -0.12895530401407393 0
2.8976066012250013e-06 -0.13700453932035253 0
2.8032475279716631e-06 -0.14600880300903063 0
2.6815125515049379e-06 -0.15618992954671376 0
2.8136036487464801e-06 -0.16781667555342911 0
2.9822439897114313e-06 -0.18123856857040788 0
2.9994141352947054e-06 -0.1969423779536304 0
3.0980569446234884e-06 -0.21562485429403333 0
3.4634301820864903e-06 -0.23819284710980443 0
3.8283466861022652e-06 -0.26584103594970809 0
3.9732499946190559e-06 -0.30041077749189982 0
3.9359349566647803e-06 -0.34525878174565089 0
4.2446385801138884e-06 -0.40689323566655533 0
4.4370647543303218e-06 -0.49911179749003132 0
4.5410336888568607e-06 -0.67038959720648583 0
3.8480747973276429e-06 -1.3780996296889327 0
1.8493427655522909e-17 -2.769944809321093 0
3.0231893641092237e-06 -0.081047670114950038 0
3.1760166473001399e-06 -0.087306322347423096 0
3.4051830557695558e-06 -0.092442491832810628 0
3.6226588361089329e-06 -0.097690943775541675 0
3.5566275568113885e-06 -0.10313436653522437 0
3.9793675605283262e-06 -0.10887583418171416 0
3.9372236606950651e-06 -0.11501526766262984 0
3.8766775218299294e-06 -0.12166625055488953 0
4.2301164786225186e-06 -0.12894800063622963 0
4.7339883659116242e-06 -0.13699215439920834 0
4.7442498705428805e-06 -0.1459893322931223 0
5.1127850939262369e-06 -0.1561621977247977 0
6.8033245504913969e-06 -0.16777750663037602 0
7.237521578176314e-06 -0.1811869396660305 0
7.0488249881998724e-06 -0.19687751795326885 0
7.0409019322307458e-06 -0.21554500230944004 0
7.4458190903103058e-06 -0.23809583874379778 0
7.8237139320973489e-06 -0.26572293179885298 0
7.95670365557265e-06 -0.30026621464717601 0
8.59726999419079e-06 -0.34507710434387401 0
8.7060920539265128e-06 -0.40665517459603806 0
8.6660292705478925e-06 -0.49877284486785139 0
8.5418949721843901e-06 -0.66980971320630889 0
6.8036537721432047e-06 -1.3766665912632481 0
2.3244000654503703e-17 -2.7691255337914034 0
5.3487949462501276e-06 -0.081051088406981123 0
6.1350394863495078e-06 -0.087298810573726071 0
6.4908144048910244e-06 -0.09242757844800617 0
6.4476235605894145e-06 -0.09766784592550197 0
6.9908467179633933e-06 -0.10310398421477905 0
7.2712470750761547e-06 -0.10883628622356678 0
7.6785894904326181e-06 -0.11496383336627963 0
8.8963526731561808e-06 -0.12160281984328367 0
8.7848047362478583e-06 -0.12887036144936409 0
8.9349391833563122e-06 -0.13689823275712953 0
9.1912076715698132e-06 -0.14587780624326963 0
9.4924655267446909e-06 -0.15602784966724664 0
1.0646685455512362e-05 -0.16761613598672156 0
1.1120194016957755e-05 -0.18099483986457682 0
1.156572293748539e-05 -0.19665142634987115 0
1.1790886701168433e-05 -0.21527957643448664 0
1.2699325983603023e-05 -0.23778716428491897 0
1.3173859893888989e-05 -0.26536700320536044 0
1.3839714991352271e-05 -0.29985497494251362 0
1.4384314582126253e-05 -0.34460025876759987 0
1.5153490967914982e-05 -0.40608558132611394 0
1.5585629947616444e-05 -0.49805199612383355 0
1.5873123258683217e-05 -0.66881606344375677 0
1.2874119076886995e-05 -1.3754537822243511 0
2.3872185388345181e-17 -2.7680382023985035 0
1.2424523257436342e-05 -0.080941236573803407 0
1.3565764159548228e-05 -0.087169527464004623 0
1.4635147843611822e-05 -0.092281007584567129 0
1.5400542376700428e-05 -0.097502642210700277 0
1.6310567951422469e-05 -0.10291732588007996 0
1.6904370376388856e-05 -0.10862492891212969 0
1.7588357024007792e-05 -0.11472484216998852 0
1.8278687251219309e-05 -0.12133191521363332 0
1.887178365433258e-05 -0.12856185273592396 0
1.9724823094886664e-05 -0.13654638382118658 0
2.0573117082044605e-05 -0.1454713591414393 0
2.1213504197765327e-05 -0.15555802439664407 0
2.2515284396467019e-05 -0.16706959383424802 0
2.3159684959868142e-05 -0.18035715444246062 0
2.4210201055839299e-05 -0.19591260733896373 0
2.4996598999887254e-05 -0.2144272766149925 0
2.5913849903521893e-05 -0.23679377101876062 0
2.7085067080072798e-05 -0.26424030992802428 0
2.785352275586155e-05 -0.29859731188380761 0
2.8922230943137252e-05 -0.34322403187347966 0
2.9661137010766511e-05 -0.40459695907236248 0
3.0326351435658394e-05 -0.4964535956833433 0
3.0472947236262452e-05 -0.6673563973373341 0
2.4381748354767731e-05 -1.3783338276843788 0
2.0849714938461658e-17 -2.7668400301300373 0
2.7352635277539807e-05 -0.080326283643703519 0
2.9780810368444948e-05 -0.086521452425770654 0
3.1690991593614385e-05 -0.09160126506359717 0
3.3334752816441553e-05 -0.096777278432760822 0
3.4838667204613228e-05 -0.10213631667388712 0
3.6274009263610954e-05 -0.10777332872115969 0
3.7718949852041748e-05 -0.1137902164374703 0
3.8855655231017e-05 -0.12029684332094498 0
4.0055573263108453e-05 -0.12740902916516797 0
4.1281533917867187e-05 -0.1352563447243828 0
4.2575395986900528e-05 -0.14401455760043982 0
4.392816012848523e-05 -0.15389763031975168 0
4.495890528463021e-05 -0.16517043773065962 0
4.639096098708864e-05 -0.17818545691856064 0
4.7796655825267453e-05 -0.19343909717808566 0
4.9325648477085506e-05 -0.21159784559348072 0
5.0642010082231654e-05 -0.23354332100162772 0
5.2006540147012611e-05 -0.26061087919393849 0
5.3192098374157753e-05 -0.29464327841968174 0
5.4232980382738823e-05 -0.33904454027794345 0
5.5007955319167655e-05 -0.40048711355951838 0
5.5332825472266176e-05 -0.49289800861423561 0
5.4429122406576008e-05 -0.66624362463759201 0
4.1588810942065244e-05 -1.401536923440093 0
1.6364448089787307e-17 -2.765787094950809 0
4.2193207717691294e-05 -0.077541844154756304 0
4.5219204745703798e-05 -0.083339415121541263 0
4.7420956107715166e-05 -0.088046323782044841 0
4.969999275471322e-05 -0.092951003316731826 0
5.1907754652491501e-05 -0.098091164046229848 0
5.4024499171228789e-05 -0.10352573252279984 0
5.5843195454819275e-05 -0.10934232697441074 0
5.7742432736809816e-05 -0.11563654529243905 0
5.9523175426057679e-05 -0.1225025097435242 0
6.0978126434858681e-05 -0.13005336207524285 0
6.2738341187620319e-05 -0.13845609162930403 0
6.416300943440702e-05 -0.1479327473484508 0
6.6196903020689083e-05 -0.15876119228718627 0
6.7775314314501558e-05 -0.17127814113294521 0
6.9518709258220346e-05 -0.18594258225309762 0
7.1225800159948401e-05 -0.20336936344283338 0
7.308277820351762e-05 -0.22443216791841045 0
7.4947606895149342e-05 -0.25046178253550089 0
7.6882595489063523e-05 -0.2832664166520294 0
7.859517523455411e-05 -0.32616575046250434 0
8.0060840088531227e-05 -0.38607017316938158 0
8.0672901403387577e-05 -0.47727091478389161 0
7.7475056063597137e-05 -0.66309013399658556 0
5.109321492888729e-05 -1.5423596685532208 0
1.3167236215119181e-17 -2.765158290548118 0
-0 -0 0
-0 -0 0
-0 -0 0
-0 -0 0
-0 -0 0
-0 -0 0
4.5072620453946153e-05 0.078004121191891818 0
5.338701292063814e-05 0.095551470419795712 0
6.3953466842479309e-05 0.13467670378069882 0
-0 -0 0
-0 -0 0
-0 -0 0
4.856645595112978e-05 0.085835001949680481 0
5.3659814838420746e-05 0.10139469426219275 0
6.2690878037545623e-05 0.14108640985433252 0
-0 -0 0
-0 -0 0
-0 -0 0
3.8615600950193026e-05 0.087556051502177712 0
4.364075719953467e-05 0.10314136626942158 0
5.1468971352192531e-05 0.14322444468757919 0
-0 -0 0
-0 -0 0
-0 -0 0
2.1671654433601463e-05 0.089165752877024426 0
2.5089629166008656e-05 0.10473921746508696 0
3.0229483330409385e-05 0.14524530471254579 0
-0 -0 0
-0 -0 0
-0 -0 0
9.0945279619658581e-06 0.089537525213812488 0
1.1055001663380181e-05 0.10523009380538489 0
1.385942289049281e-05 0.14585891913110866 0
-0 -0 0
-0 -0 0
-0 -0 0
3.7596114809292787e-06 0.089594667603916933 0
4.7378956871198824e-06 0.10530564950794354 0
6.1155208797714676e-06 0.14592226840251746 0
-0 -0 0
-0 -0 0
-0 -0 0
1.9067255027565913e-06 0.08958058749504208 0
2.2831708210843953e-06 0.10529288959487396 0
2.8337851100812701e-06 0.14588840098492292 0
-0 -0 0
-0 -0 0
-0 -0 0
1.8919217512587359e-07 0.089560196802351721 0
2.2620007441720494e-07 0.10527013161483721 0
3.0594544867609547e-07 0.14585111197148518 0
-0 -0 0
-0 -0 0
-0 -0 0
-1.3506035875025561e-06 0.08954813140873559 0
-1.4998846882110971e-06 0.10525660464169703 0
-1.6563997426023773e-06 0.14583083529939456 0
-0 -0 0
-0 -0 0
-0 -0 0
-1.1926466921752556e-06 0.089547742972274205 0
-1.3913057246887688e-06 0.10525640888114142 0
-1.6393208226208441e-06 0.14583084411019664 0
-0 -0 0
-0 -0 0
-0 -0 0
-9.2132239006728542e-07 0.089559545807047392 0
-1.2037125246468514e-06 0.1052696623554049 0
-1.6850366210502804e-06 0.14585068410500432 0
-0 -0 0
-0 -0 0
-0 -0 0
-2.1710029877547953e-06 0.089580664045307984 0
-2.679773903015613e-06 0.10529276204113128 0
-3.6404385891731645e-06 0.14588762268945216 0
-0 -0 0
-0 -0 0
-0 -0 0
-4.7558651110530673e-06 0.089594988145304019 0
-5.639250054082727e-06 0.10530590678231933 0
-7.2653934348533048e-06 0.14592169332392069 0
-0 -0 0
-0 -0 0
-0 -0 0
-1.0230635980239008e-05 0.089537214782384911 0
-1.2099963430672472e-05 0.10523006054693614 0
-1.5064089237708379e-05 0.14585838232289139 0
-0 -0 0
-0 -0 0
-0 -0 0
-2.2033056636558759e-05 0.08916440777931843 0
-2.5372448644851864e-05 0.10473814879461313 0
-3.0570073369470723e-05 0.14524390186990455 0
-0 -0 0
-0 -0 0
-0 -0 0
-3.7050734230496788e-05 0.087554234949936388 0
-4.1757964206170995e-05 0.10313983962181802 0
-4.9146557750050179e-05 0.14322254810321763 0
-0 -0 0
-0 -0 0
-0 -0 0
-4.5530704140119692e-05 0.085833275590253305 0
-5.0202034276520314e-05 0.10139276244306489 0
-5.8428884554918838e-05 0.14108393081827938 0
-0 -0 0
-0 -0 0
-0 -0 0
-4.2274596828966594e-05 0.078001649921871447 0
-4.9866478715582542e-05 0.095548680127763505 0
-5.9406934632757696e-05 0.13467241790001522 0
-0 -0 0
-0 -0 0
-0 -0 0
-0 -0 0
-0 -0 0
-0 -0 0
-0 -0 0
-0 -0 0
-0 -0 0
-0 -0 0
-0 -0 0
-0 -0 0
-0 -0 0
-0 -0 0
-0 -0 0
-0 -0 0
-0 -0 0
-0 -0 0
-0 -0 0
-0 -0 0
-0 -0 0
-0 -0 0
-0 -0 0
-0 -0 0
-0 -0 0
-0 -0 0
-0 -0 0
-0 -0 0
-0 -0 0
-0 -0 0
-0 -0 0
-0 -0 0
-0 -0 0
-0 -0 0
-0 -0 0
-0 -0 0
-0 -0 0
-0 -0 0
-0 -0 0
-0 -0 0
-0 -0 0
-0 -0 0
-0 -0 0
-0 -0 0
-0 -0 0
-0 -0 0
-0 -0 0
-0 -0 0
-0 -0 0
-0 -0 0
-0 -0 0
-0 -0 0
-0 -0 0
-0 -0 0
-0 -0 0
-0 -0 0
-0 -0 0
-0 -0 0
-0 -0 0
-0 -0 0
-0 -0 0
-0 -0 0
-0 -0 0
-0 -0 0
-0 -0 0
-0 -0 0
-0 -0 0
-0 -0 0
-0 -0 0
-0 -0 0
-0 -0 0
-0 -0 0
-0 -0 0
-0 -0 0
-0 -0 0
-0 -0 0
-0 -0 0
-0 -0 0
-0 -0 0
-0 -0 0
-0 -0 0
-0 -0 0
-0 -0 0
-0 -0 0
-0 -0 0
-0 -0 0
-0 -0 0
-0 -0 0
-0 -0 0
-0 -0 0
-0 -0 0
-0 -0 0
-0 -0 0
-0 -0 0
-0 -0 0
-0 -0 0
-0 -0 0
-0 -0 0
-0 -0 0
-0 -0 0
-0 -0 0
-0 -0 0
-0 -0 0
-0 -0 0
-0 -0 0
-0 -0 0
-0 -0 0
-0 -0 0
-0 -0 0
-0 -0 0
-0 -0 0
-0 -0 0
-0 -0 0
-0 -0 0
-0 -0 0
-0 -0 0
-0 -0 0
-0 -0 0
-0 -0 0
-0 -0 0
-0 -0 0
-0 -0 0
-0 -0 0
-0 -0 0
-0 -0 0
-0 -0 0
-0 -0 0
-0 -0 0
-0 -0 0
-0 -0 0
-0 -0 0
-0 -0 0
-0 -0 0
-0 -0 0
-0 -0 0
-0 -0 0
-0 -0 0
-0 -0 0
-0 -0 0
-0 -0 0
-0 -0 0
-0 -0 0
-0 -0 0
-0 -0 0
-0 -0 0
-0 -0 0
-0 -0 0
-0 -0 0
-0 -0 0
-0 -0 0
-0 -0 0
-0 -0 0
-0 -0 0
-0 -0 0
-0 -0 0
-0 -0 0
-0 -0 0
-0 -0 0
-0 -0 0
-0 -0 0
-0 -0 0
-0 -0 0
-0 -0 0
-0 -0 0
-0 -0 0
-0 -0 0
-0 -0 0
-0 -0 0
-0 -0 0
-0 -0 0
-0 -0 0
-0 -0 0
-0 -0 0
-0 -0 0
-0 -0 0
-0 -0 0
-0 -0 0
-0 -0 0
-0 -0 0
-0 -0 0
-0 -0 0
-0 -0 0
-0 -0 0
-0 -0 0
-0 -0 0
-0 -0 0
-0 -0 0
-0 -0 0
-0 -0 0
-0 -0 0
-0 -0 0
-0 -0 0
-0 -0 0
-0 -0 0
-0 -0 0
