# vtk DataFile Version 3.0
SPH particles (WCSPH) - legacy PolyData
ASCII
DATASET POLYDATA
POINTS 681 float
0.049990416451268262 0.017995488787190206 0
0.049989383959134367 0.020121390188221535 0
0.049988552310021507 0.021836547534680281 0
0.049987734003157938 0.02352919771923646 0
0.049986998918808513 0.02517446622834936 0
0.049986349643527349 0.026770957957219042 0
0.049985753319286716 0.028324674551182014 0
0.049985170553851162 0.029843920390691871 0
0.04998454310317612 0.031337936612595277 0
0.049983777111978989 0.032814676708683065 0
0.04998242368837541 0.034282621386897395 0
0.049980626365747627 0.035750024150287676 0
0.049979925302635411 0.037225024948241862 0
0.049980674572925252 0.038715978636153996 0
0.049982160924772617 0.040232002466449077 0
0.049983918813135728 0.041783050836521132 0
0.049985738497661872 0.043381658979026294 0
0.049987451567550176 0.045042950776294916 0
0.049989048869064898 0.046787470842578005 0
0.049990471837631383 0.048629911276291474 0
0.049991671294140533 0.050611248007181302 0
0.04999264705298416 0.052781739168516487 0
0.049993428976432011 0.055221082665027683 0
0.049994055985053673 0.058078062478101745 0
0.049994852323008092 0.061751768652826701 0
0.069994958845855576 0.016779372880975685 0
0.069994356907080835 0.019125755168428807 0
0.06999390887995445 0.021031224442949571 0
0.069993506265808192 0.022875367970850363 0
0.06999312980213078 0.024644721381952315 0
0.069992754689601547 0.026346035371501781 0
0.069992382777235379 0.027991078329406296 0
0.069992006464602421 0.029592129026425346 0
0.069991609815184208 0.031161327860310666 0
0.06999114448756201 0.032708576210355486 0
0.069990234363312753 0.034243901285658754 0
0.069988383787936009 0.03577692634923868 0
0.069987290799803828 0.03731663048052937 0
0.069987478700974048 0.038872076083893398 0
0.069988382646819031 0.040453476107769164 0
0.069989524046139978 0.042071792374500511 0
0.069990748906478245 0.043741311986212943 0
0.069991954583511679 0.0454780427643246 0
0.069993083623513516 0.047301602799926235 0
0.069994065036306966 0.049236266855574563 0
0.06999487732304166 0.051322225652949735 0
0.069995527141646696 0.053614689555586126 0
0.069996018365756321 0.056206371840134606 0
0.069996404444248553 0.059271588706388489 0
0.069996903168822566 0.063286702447487339 0
0.089998208352084358 0.016726202543133395 0
0.089997985594238605 0.019074317123543603 0
0.089997822087060336 0.020983208140099831 0
0.08999766503061897 0.0228330353680406 0
0.089997504781139159 0.024609507792954472 0
0.089997337239404882 0.026318855324835085 0
0.089997161843745288 0.027972778952686791 0
0.089996985218065845 0.029583316864728416 0
0.089996784994816059 0.031162144907021582 0
0.089996560913952764 0.032719703195712234 0
0.089996291743246901 0.034265842848066337 0
0.089995911417773009 0.035810326926085552 0
0.089995542183073429 0.037361987767425664 0
0.089995491105269262 0.038929962094545446 0
0.089995731315305957 0.040524418852696233 0
0.089996060305229067 0.042156561532662395 0
0.089996446870481098 0.043840538087272486 0
0.089996839838102777 0.045591606631723458 0
0.089997213550713911 0.04743006614553668 0
0.089997525985502647 0.049382877953146075 0
0.089997782147013247 0.051488004731617056 0
0.08999797387616422 0.053801333994249599 0
0.089998143014226914 0.056415764705178909 0
0.089998279586885305 0.059505429564995424 0
0.089998497788951873 0.063552181213650777 0
0.10999935930402742 0.016733993343871725 0
0.10999927383584031 0.019083038818683236 0
0.10999920448314925 0.020992773000022349 0
0.10999913500248751 0.022843551531728776 0
0.10999906513747959 0.024621078145830064 0
0.10999900943460238 0.02633159138368946 0
0.10999894618030143 0.02798681130156002 0
0.10999886565989618 0.029598760586395313 0
0.1099987762683507 0.031178975647483734 0
0.10999867807350273 0.032738038990538135 0
0.10999858232656959 0.034285773544826356 0
0.10999845618465127 0.035832081432485265 0
0.10999835730436951 0.037385623967563016 0
0.10999834977479063 0.038955645014535759 0
0.10999839221396897 0.040552302256818287 0
0.10999849230702433 0.042187090497345946 0
0.10999861825369364 0.043873581498663314 0
0.10999875730233005 0.045627129409809758 0
0.1099988946016668 0.04746829108979176 0
0.10999900278606685 0.049424053522127066 0
0.10999908536337949 0.051532465741628689 0
0.10999914779806177 0.053849493044939703 0
0.10999920627370477 0.056468076107515121 0
0.1099992592590906 0.059562414462504674 0
0.10999935243484138 0.06361566384116546 0
0.12999973844620957 0.016739479312398109 0
0.12999970464848137 0.019089092831305443 0
0.12999968077290927 0.020999252106271085 0
0.12999965868625146 0.0228504130949139 0
0.12999964570457501 0.02462832170613137 0
0.12999961720127684 0.026339176063090913 0
0.12999959430381253 0.027994703946224244 0
0.12999955970199298 0.029606971592184943 0
0.12999952764784981 0.031187503562041041 0
0.12999948708678832 0.032746889248460864 0
0.12999942949965088 0.034294997743633787 0
0.12999936133413836 0.035841419850822669 0
0.12999934966240664 0.037395126793238066 0
0.12999934894769608 0.038965275818028229 0
0.12999932538905498 0.040562103541873035 0
0.12999937114706309 0.042197632904567177 0
0.12999942530362779 0.043885768451109926 0
0.12999948136129907 0.045640353092448065 0
0.12999952716713864 0.047482191611070278 0
0.12999956232578652 0.049437986189153175 0
0.12999959268326916 0.051547100147117109 0
0.12999961764399365 0.053864953700929481 0
0.12999963886460797 0.056484472392675865 0
0.12999966055513382 0.059579855338589179 0
0.12999970088131999 0.063634708275872059 0
0.14999989312530373 0.016741792617681304 0
0.14999988204103501 0.019091710408262567 0
0.14999987318686955 0.021002164062258865 0
0.14999986519228006 0.022853440977026844 0
0.14999985465865975 0.024631473293758886 0
0.14999984611378281 0.026342519566287557 0
0.14999984306663985 0.027998153802372042 0
0.14999983622817364 0.029610570900513476 0
0.14999982399547129 0.031191257305690008 0
0.14999979912944106 0.032750792301231214 0
0.14999977389942243 0.034299180126924025 0
0.14999975241482116 0.035845816237185198 0
0.14999973030472033 0.037399790750645291 0
0.14999971056602712 0.038970499075517639 0
0.14999970856713546 0.04056777936370197 0
0.14999972894231553 0.042203392724057549 0
0.14999975860111289 0.043890618114353457 0
0.14999979178527506 0.045644711635140077 0
0.14999978552344309 0.047486622597886587 0
0.14999978323045371 0.049443191582746175 0
0.14999979321439466 0.051552526263541495 0
0.14999980863088758 0.053870669108915817 0
0.14999981969878118 0.056490613419123897 0
0.14999982551848454 0.059586460477736143 0
0.14999984366798061 0.063641468981096891 0
0.16999994230077745 0.016742027657346673 0
0.16999993546267433 0.019092313553564916 0
0.16999992936115016 0.021003216127955967 0
0.16999992313712839 0.022854411685711326 0
0.16999991453928953 0.024632460969311758 0
0.16999990565050965 0.02634359174248533 0
0.16999989336103249 0.027999283367319598 0
0.16999988755754539 0.02961171642266321 0
0.16999987753365106 0.031192348297404183 0
0.16999986382180093 0.032751680207248085 0
0.16999984037532884 0.034300216139354286 0
0.16999980087363997 0.035846758809427434 0
0.16999977909417774 0.037400461281846549 0
0.16999974963374034 0.0389716950635461 0
0.16999976267993624 0.040569158573973377 0
0.1699998146397603 0.042205144386471952 0
0.16999983657051651 0.04389250127728863 0
0.16999983752647399 0.045645992607992458 0
0.16999981584115154 0.047487897137955246 0
0.16999983428295989 0.049444685558319428 0
0.16999985852679572 0.051554100628209802 0
0.16999987397083866 0.053872396856627515 0
0.16999987603299838 0.056492655515402709 0
0.1699998831941453 0.059589719573946362 0
0.16999989991698877 0.063643609008710814 0
0.18999995585892246 0.016742552241772735 0
0.1899999511961516 0.019092356868160468 0
0.18999995071632206 0.021002850625425212 0
0.18999994663566541 0.022854395355853013 0
0.18999994051562713 0.024632786606866987 0
0.1899999299299471 0.026343779110563521 0
0.18999992655678755 0.027999452902971917 0
0.18999991170215461 0.029611944197157229 0
0.18999989739985296 0.031192509635139216 0
0.18999988835359266 0.032751762215290997 0
0.18999988424386371 0.034300623661739298 0
0.18999989793471989 0.035847370796960439 0
0.18999991274915093 0.037401356756441906 0
0.18999990829420582 0.038972474336698856 0
0.18999991360260465 0.040569915504051715 0
0.18999991265829422 0.042205507234368028 0
0.18999990096758843 0.043892417129765701 0
0.18999987791625467 0.045646399678169657 0
0.18999985067177513 0.047488291770030715 0
0.18999990522607324 0.049444993319597071 0
0.18999991262516849 0.051554133663024249 0
0.18999992843092067 0.053871715403377964 0
0.1899999369678699 0.056490492840828521 0
0.18999994466427428 0.059588460885826047 0
0.18999995609942688 0.063643503947419147 0
0.20999999023122834 0.016742547725397634 0
0.20999998860302377 0.019092391738776842 0
0.2099999854462421 0.021002665860218862 0
0.20999998237272169 0.022853822665789832 0
0.20999997930638881 0.024632184233072372 0
0.20999997129847467 0.026343183762100965 0
0.20999997021998371 0.027998947312447651 0
0.20999996909751753 0.029611621662504778 0
0.20999996909148916 0.031192326999842129 0
0.20999995412625697 0.032751687276318123 0
0.20999994896361135 0.034299804887921094 0
0.20999994519586943 0.0358464779548546 0
0.20999995417968301 0.037401192087420675 0
0.20999994344834927 0.038972236483182009 0
0.20999994592560262 0.040569572012398164 0
0.20999995423912929 0.042205008835461993 0
0.20999995427001611 0.043891758621291563 0
0.20999995542136321 0.04564587633297431 0
0.20999998084216495 0.047487751783930027 0
0.20999997860238689 0.049444421283252153 0
0.20999997457236463 0.051553519502069323 0
0.20999996801776027 0.053871029557666775 0
0.20999997393913927 0.056489614602293479 0
0.20999998082536456 0.059587362439734004 0
0.20999998848964571 0.063642693966435626 0
0.23000006442652371 0.01674154640938107 0
0.23000006914822024 0.019091305633636813 0
0.23000007775440851 0.021001539582049977 0
0.23000007885018564 0.022852650952428794 0
0.23000007547619256 0.024630590637590034 0
0.23000008201194813 0.026341835927510351 0
0.23000009476774036 0.027997948090683056 0
0.23000010560533524 0.029610178437766047 0
0.23000011279009011 0.031190727239507606 0
0.2300001155190271 0.032750039226149212 0
0.23000011747155774 0.034297860336814728 0
0.23000013011781162 0.035844792252786133 0
0.23000019208630568 0.037399637422261253 0
0.23000013984759057 0.038970423898658929 0
0.23000011926837483 0.040567650462976675 0
0.23000014801313284 0.042202963797334868 0
0.2300001522252878 0.043889581146435874 0
0.23000015720638492 0.045643837571305738 0
0.23000019287407772 0.047485717666624315 0
0.23000014904392688 0.049442211617454157 0
0.23000013195797112 0.051551320162370275 0
0.23000011145556179 0.053869202732299504 0
0.23000010290020759 0.056489566962153931 0
0.2300000987402768 0.059585162351261746 0
0.23000009054631329 0.063640308571545554 0
0.25000019091087855 0.01673911408547725 0
0.25000021277488055 0.019088595833665369 0
0.25000023462315379 0.020998738268746844 0
0.25000025494572753 0.022849796266629033 0
0.25000027001681813 0.024627574106880643 0
0.25000028491465959 0.026338645822531197 0
0.25000030954920327 0.027994195517791413 0
0.25000033059286558 0.029606535376468773 0
0.25000034965619544 0.031187067322382456 0
0.25000038032933669 0.03274641682512295 0
0.25000042629115454 0.03429451087897941 0
0.25000051321593042 0.035841024675235811 0
0.25000054793997972 0.037394971752014672 0
0.25000059590831436 0.038965546961204842 0
0.25000059857984314 0.04056251731849992 0
0.25000055271780081 0.042197369781482384 0
0.2500005166509604 0.04388355978420104 0
0.25000046716674285 0.045638200595868025 0
0.25000042984501153 0.047480011900223336 0
0.25000039603508489 0.049435591623427359 0
0.2500003655311151 0.051544027853120886 0
0.25000033662062227 0.053861627579120962 0
0.25000031111810067 0.056485240953950445 0
0.25000028956550652 0.059578983191152748 0
0.25000025282442834 0.063633319704014507 0
0.27000054356696063 0.016733555622388912 0
0.27000061853694007 0.019082435566739775 0
0.27000067415467016 0.020992025397497529 0
0.27000072833293681 0.022842796625513948 0
0.27000077876059636 0.02462060492355618 0
0.27000083571016104 0.026331345125925904 0
0.27000089271748434 0.027985776026482834 0
0.27000095047524109 0.029598281501886602 0
0.2700010259179747 0.03117861837772332 0
0.27000111949223377 0.032737554053150424 0
0.27000122935586296 0.034285415877265045 0
0.27000133633498208 0.035831547826330377 0
0.27000149601076467 0.037385027248420008 0
0.27000162270589034 0.038955253371441234 0
0.27000158301192489 0.040551946691872252 0
0.27000144358023703 0.042186576930849977 0
0.27000130534792316 0.043872466390630298 0
0.2700011815505623 0.045625943261715603 0
0.27000105927321411 0.047466961406497199 0
0.27000095716453371 0.04942237837654171 0
0.27000087090089486 0.051530168638299734 0
0.27000079464907478 0.05384662666399144 0
0.2700007269252534 0.056467482637704319 0
0.27000067514359544 0.059561630936071065 0
0.27000059531510484 0.063614481910215903 0
0.29000170896357419 0.016726019011994012 0
0.2900019275404922 0.019074051342753588 0
0.29000208987209741 0.020982942282792367 0
0.29000224634433064 0.022832773664077294 0
0.29000240663915472 0.024609291001973971 0
0.29000256766171068 0.02631852325938069 0
0.29000273800220849 0.02797182587899898 0
0.29000292915171272 0.029583169631394474 0
0.29000315090370266 0.031162117028724099 0
0.29000339912155787 0.032719497738141985 0
0.2900037008452937 0.034265689531627667 0
0.29000409579477537 0.035810027016639136 0
0.29000447662393614 0.037361602848047078 0
0.29000452615929662 0.038929740578520139 0
0.29000429893962454 0.040524335981667374 0
0.29000393904527577 0.042156810916031927 0
0.2900035335892594 0.043840432090378051 0
0.29000312776329473 0.045591280497570198 0
0.29000275324203939 0.047429807014107643 0
0.2900024299866959 0.049382759945474995 0
0.2900021588661294 0.051487669383906538 0
0.29000194239622085 0.053800721371512421 0
0.29000176958623591 0.05641545273451895 0
0.29000163124578621 0.059505161476176259 0
0.29000142309603577 0.06355181831105694 0
0.31000509854750696 0.016779416838547178 0
0.31000570200150829 0.019125799114670307 0
0.31000615290582589 0.021031275028448603 0
0.3100065635061664 0.022875417481474487 0
0.31000694731093148 0.024644698681472295 0
0.31000733305198774 0.026345760640349714 0
0.31000771737560046 0.027990618905081716 0
0.31000810978157728 0.02959249914234131 0
0.31000853682813023 0.031161559073677573 0
0.31000905184636429 0.032708658280324363 0
0.31001000774533055 0.034244056010434641 0
0.31001184506000284 0.035777107138097931 0
0.31001288484520256 0.037316822068105042 0
0.31001265664190941 0.038872591188284331 0
0.31001174026155359 0.040454233808271407 0
0.31001059792729818 0.042073119302315852 0
0.31000935848278327 0.043742458959833086 0
0.31000811959863922 0.045478203565540908 0
0.31000696687147811 0.047301116769111397 0
0.31000596057502117 0.049237279387254251 0
0.31000512435154404 0.051323252309415403 0
0.31000445806770788 0.053615075337520142 0
0.31000395594519703 0.056206759863263192 0
0.31000354550542319 0.059271943655678651 0
0.31000302888964815 0.063286950027354197 0
0.33000942086716489 0.017995761693835901 0
0.33001041580278617 0.020121676388907019 0
0.33001122068330202 0.021836796662886866 0
0.330011998375496 0.023529342444892354 0
0.33001269619077134 0.025174324361125294 0
0.33001330120372258 0.026770354119945931 0
0.33001385100589758 0.028324563712639583 0
0.33001440432557727 0.029844641981207638 0
0.33001495891840404 0.03133829376229956 0
0.3300155956052192 0.03281493674193519 0
0.33001682049340486 0.034282951271894423 0
0.33001859790089805 0.035750438113145266 0
0.33001929629360482 0.037225549714680249 0
0.33001852737098764 0.038716733024637254 0
0.33001707620880383 0.040232945577499242 0
0.33001537507963791 0.041784436249949444 0
0.33001362529411027 0.043383232537262485 0
0.33001193684132546 0.045043651899460455 0
0.33001038618338924 0.046785980859859674 0
0.33000903232571677 0.048630305182791989 0
0.33000790187359685 0.050611778076176367 0
0.33000699937754052 0.05278210458609215 0
0.33000629142249227 0.05522143430607282 0
0.33000573658008792 0.058078340674318031 0
0.33000500124591753 0.061751613153444941 0
0 0 0
0 0.020000000000000004 0
0 0.040000000000000001 0
0 0.54999999999999993 0
0 0.56000000000000005 0
0 0.58000000000000007 0
0.02 0 0
0.02 0.020000000000000004 0
0.02 0.040000000000000001 0
0.02 0.54999999999999993 0
0.02 0.56000000000000005 0
0.02 0.58000000000000007 0
0.040000000000000001 0 0
0.040000000000000001 0.020000000000000004 0
0.040000000000000001 0.040000000000000001 0
0.040000000000000001 0.54999999999999993 0
0.040000000000000001 0.56000000000000005 0
0.040000000000000001 0.58000000000000007 0
0.059999999999999998 0 0
0.059999999999999998 0.020000000000000004 0
0.059999999999999998 0.040000000000000001 0
0.059999999999999998 0.54999999999999993 0
0.059999999999999998 0.56000000000000005 0
0.059999999999999998 0.58000000000000007 0
0.080000000000000002 0 0
0.080000000000000002 0.020000000000000004 0
0.080000000000000002 0.040000000000000001 0
0.080000000000000002 0.54999999999999993 0
0.080000000000000002 0.56000000000000005 0
0.080000000000000002 0.58000000000000007 0
0.10000000000000001 0 0
0.10000000000000001 0.020000000000000004 0
0.10000000000000001 0.040000000000000001 0
0.10000000000000001 0.54999999999999993 0
0.10000000000000001 0.56000000000000005 0
0.10000000000000001 0.58000000000000007 0
0.12 0 0
0.12 0.020000000000000004 0
0.12 0.040000000000000001 0
0.12 0.54999999999999993 0
0.12 0.56000000000000005 0
0.12 0.58000000000000007 0
0.14000000000000001 0 0
0.14000000000000001 0.020000000000000004 0
0.14000000000000001 0.040000000000000001 0
0.14000000000000001 0.54999999999999993 0
0.14000000000000001 0.56000000000000005 0
0.14000000000000001 0.58000000000000007 0
0.16 0 0
0.16 0.020000000000000004 0
0.16 0.040000000000000001 0
0.16 0.54999999999999993 0
0.16 0.56000000000000005 0
0.16 0.58000000000000007 0
0.17999999999999999 0 0
0.17999999999999999 0.020000000000000004 0
0.17999999999999999 0.040000000000000001 0
0.17999999999999999 0.54999999999999993 0
0.17999999999999999 0.56000000000000005 0
0.17999999999999999 0.58000000000000007 0
0.20000000000000001 0 0
0.20000000000000001 0.020000000000000004 0
0.20000000000000001 0.040000000000000001 0
0.20000000000000001 0.54999999999999993 0
0.20000000000000001 0.56000000000000005 0
0.20000000000000001 0.58000000000000007 0
0.22 0 0
0.22 0.020000000000000004 0
0.22 0.040000000000000001 0
0.22 0.54999999999999993 0
0.22 0.56000000000000005 0
0.22 0.58000000000000007 0
0.23999999999999999 0 0
0.23999999999999999 0.020000000000000004 0
0.23999999999999999 0.040000000000000001 0
0.23999999999999999 0.54999999999999993 0
0.23999999999999999 0.56000000000000005 0
0.23999999999999999 0.58000000000000007 0
0.26000000000000001 0 0
0.26000000000000001 0.020000000000000004 0
0.26000000000000001 0.040000000000000001 0
0.26000000000000001 0.54999999999999993 0
0.26000000000000001 0.56000000000000005 0
0.26000000000000001 0.58000000000000007 0
0.28000000000000003 0 0
0.28000000000000003 0.020000000000000004 0
0.28000000000000003 0.040000000000000001 0
0.28000000000000003 0.54999999999999993 0
0.28000000000000003 0.56000000000000005 0
0.28000000000000003 0.58000000000000007 0
0.29999999999999999 0 0
0.29999999999999999 0.020000000000000004 0
0.29999999999999999 0.040000000000000001 0
0.29999999999999999 0.54999999999999993 0
0.29999999999999999 0.56000000000000005 0
0.29999999999999999 0.58000000000000007 0
0.32000000000000001 0 0
0.32000000000000001 0.020000000000000004 0
0.32000000000000001 0.040000000000000001 0
0.32000000000000001 0.54999999999999993 0
0.32000000000000001 0.56000000000000005 0
0.32000000000000001 0.58000000000000007 0
0.34000000000000002 0 0
0.34000000000000002 0.020000000000000004 0
0.34000000000000002 0.040000000000000001 0
0.34000000000000002 0.54999999999999993 0
0.34000000000000002 0.56000000000000005 0
0.34000000000000002 0.58000000000000007 0
0.35999999999999999 0 0
0.35999999999999999 0.020000000000000004 0
0.35999999999999999 0.040000000000000001 0
0.35999999999999999 0.54999999999999993 0
0.35999999999999999 0.56000000000000005 0
0.35999999999999999 0.58000000000000007 0
0.38 0 0
0.38 0.020000000000000004 0
0.38 0.040000000000000001 0
0.38 0.54999999999999993 0
0.38 0.56000000000000005 0
0.38 0.58000000000000007 0
0.40000000000000002 0 0
0.40000000000000002 0.020000000000000004 0
0.40000000000000002 0.040000000000000001 0
0.40000000000000002 0.54999999999999993 0
0.40000000000000002 0.56000000000000005 0
0.40000000000000002 0.58000000000000007 0
0.41999999999999998 0 0
0.41999999999999998 0.020000000000000004 0
0.41999999999999998 0.040000000000000001 0
0.41999999999999998 0.54999999999999993 0
0.41999999999999998 0.56000000000000005 0
0.41999999999999998 0.58000000000000007 0
0.44 0 0
0.44 0.020000000000000004 0
0.44 0.040000000000000001 0
0.44 0.54999999999999993 0
0.44 0.56000000000000005 0
0.44 0.58000000000000007 0
0.46000000000000002 0 0
0.46000000000000002 0.020000000000000004 0
0.46000000000000002 0.040000000000000001 0
0.46000000000000002 0.54999999999999993 0
0.46000000000000002 0.56000000000000005 0
0.46000000000000002 0.58000000000000007 0
0.47999999999999998 0 0
0.47999999999999998 0.020000000000000004 0
0.47999999999999998 0.040000000000000001 0
0.47999999999999998 0.54999999999999993 0
0.47999999999999998 0.56000000000000005 0
0.47999999999999998 0.58000000000000007 0
0.5 0 0
0.5 0.020000000000000004 0
0.5 0.040000000000000001 0
0.5 0.54999999999999993 0
0.5 0.56000000000000005 0
0.5 0.58000000000000007 0
0.52000000000000002 0 0
0.52000000000000002 0.020000000000000004 0
0.52000000000000002 0.040000000000000001 0
0.52000000000000002 0.54999999999999993 0
0.52000000000000002 0.56000000000000005 0
0.52000000000000002 0.58000000000000007 0
0.54000000000000004 0 0
0.54000000000000004 0.020000000000000004 0
0.54000000000000004 0.040000000000000001 0
0.54000000000000004 0.54999999999999993 0
0.54000000000000004 0.56000000000000005 0
0.54000000000000004 0.58000000000000007 0
0.56000000000000005 0 0
0.56000000000000005 0.020000000000000004 0
0.56000000000000005 0.040000000000000001 0
0.56000000000000005 0.54999999999999993 0
0.56000000000000005 0.56000000000000005 0
0.56000000000000005 0.58000000000000007 0
0.57999999999999996 0 0
0.57999999999999996 0.020000000000000004 0
0.57999999999999996 0.040000000000000001 0
0.57999999999999996 0.54999999999999993 0
0.57999999999999996 0.56000000000000005 0
0.57999999999999996 0.58000000000000007 0
0.59999999999999998 0 0
0.59999999999999998 0.020000000000000004 0
0.59999999999999998 0.040000000000000001 0
0.59999999999999998 0.54999999999999993 0
0.59999999999999998 0.56000000000000005 0
0.59999999999999998 0.58000000000000007 0
0.62 0 0
0.62 0.020000000000000004 0
0.62 0.040000000000000001 0
0.62 0.54999999999999993 0
0.62 0.56000000000000005 0
0.62 0.58000000000000007 0
0.64000000000000001 0 0
0.64000000000000001 0.020000000000000004 0
0.64000000000000001 0.040000000000000001 0
0.64000000000000001 0.54999999999999993 0
0.64000000000000001 0.56000000000000005 0
0.64000000000000001 0.58000000000000007 0
0.66000000000000003 0 0
0.66000000000000003 0.020000000000000004 0
0.66000000000000003 0.040000000000000001 0
0.66000000000000003 0.54999999999999993 0
0.66000000000000003 0.56000000000000005 0
0.66000000000000003 0.58000000000000007 0
0.68000000000000005 0 0
0.68000000000000005 0.020000000000000004 0
0.68000000000000005 0.040000000000000001 0
0.68000000000000005 0.54999999999999993 0
0.68000000000000005 0.56000000000000005 0
0.68000000000000005 0.58000000000000007 0
0.70000000000000007 0 0
0.70000000000000007 0.020000000000000004 0
0.70000000000000007 0.040000000000000001 0
0.70000000000000007 0.54999999999999993 0
0.70000000000000007 0.56000000000000005 0
0.70000000000000007 0.58000000000000007 0
0.71999999999999997 0 0
0.71999999999999997 0.020000000000000004 0
0.71999999999999997 0.040000000000000001 0
0.71999999999999997 0.54999999999999993 0
0.71999999999999997 0.56000000000000005 0
0.71999999999999997 0.58000000000000007 0
0.73999999999999999 0 0
0.73999999999999999 0.020000000000000004 0
0.73999999999999999 0.040000000000000001 0
0.73999999999999999 0.54999999999999993 0
0.73999999999999999 0.56000000000000005 0
0.73999999999999999 0.58000000000000007 0
0.76000000000000001 0 0
0.76000000000000001 0.020000000000000004 0
0.76000000000000001 0.040000000000000001 0
0.76000000000000001 0.54999999999999993 0
0.76000000000000001 0.56000000000000005 0
0.76000000000000001 0.58000000000000007 0
0.78000000000000003 0 0
0.78000000000000003 0.020000000000000004 0
0.78000000000000003 0.040000000000000001 0
0.78000000000000003 0.54999999999999993 0
0.78000000000000003 0.56000000000000005 0
0.78000000000000003 0.58000000000000007 0
0.80000000000000004 0 0
0.80000000000000004 0.020000000000000004 0
0.80000000000000004 0.040000000000000001 0
0.80000000000000004 0.54999999999999993 0
0.80000000000000004 0.56000000000000005 0
0.80000000000000004 0.58000000000000007 0
0.82000000000000006 0 0
0.82000000000000006 0.020000000000000004 0
0.82000000000000006 0.040000000000000001 0
0.82000000000000006 0.54999999999999993 0
0.82000000000000006 0.56000000000000005 0
0.82000000000000006 0.58000000000000007 0
0.83999999999999997 0 0
0.83999999999999997 0.020000000000000004 0
0.83999999999999997 0.040000000000000001 0
0.83999999999999997 0.54999999999999993 0
0.83999999999999997 0.56000000000000005 0
0.83999999999999997 0.58000000000000007 0
0.85999999999999999 0 0
0.85999999999999999 0.020000000000000004 0
0.85999999999999999 0.040000000000000001 0
0.85999999999999999 0.54999999999999993 0
0.85999999999999999 0.56000000000000005 0
0.85999999999999999 0.58000000000000007 0
0.88 0 0
0.88 0.020000000000000004 0
0.88 0.040000000000000001 0
0.88 0.54999999999999993 0
0.88 0.56000000000000005 0
0.88 0.58000000000000007 0
0.90000000000000002 0 0
0.90000000000000002 0.020000000000000004 0
0.90000000000000002 0.040000000000000001 0
0.90000000000000002 0.54999999999999993 0
0.90000000000000002 0.56000000000000005 0
0.90000000000000002 0.58000000000000007 0
0.92000000000000004 0 0
0.92000000000000004 0.020000000000000004 0
0.92000000000000004 0.040000000000000001 0
0.92000000000000004 0.54999999999999993 0
0.92000000000000004 0.56000000000000005 0
0.92000000000000004 0.58000000000000007 0
0.94000000000000006 0 0
0.94000000000000006 0.020000000000000004 0
0.94000000000000006 0.040000000000000001 0
0.94000000000000006 0.54999999999999993 0
0.94000000000000006 0.56000000000000005 0
0.94000000000000006 0.58000000000000007 0
0.95999999999999996 0 0
0.95999999999999996 0.020000000000000004 0
0.95999999999999996 0.040000000000000001 0
0.95999999999999996 0.54999999999999993 0
0.95999999999999996 0.56000000000000005 0
0.95999999999999996 0.58000000000000007 0
0.97999999999999998 0 0
0.97999999999999998 0.020000000000000004 0
0.97999999999999998 0.040000000000000001 0
0.97999999999999998 0.54999999999999993 0
0.97999999999999998 0.56000000000000005 0
0.97999999999999998 0.58000000000000007 0
1 0 0
1 0.020000000000000004 0
1 0.040000000000000001 0
1 0.54999999999999993 0
1 0.56000000000000005 0
1 0.58000000000000007 0
VERTICES 681 1362
1 0
1 1
1 2
1 3
1 4
1 5
1 6
1 7
1 8
1 9
1 10
1 11
1 12
1 13
1 14
1 15
1 16
1 17
1 18
1 19
1 20
1 21
1 22
1 23
1 24
1 25
1 26
1 27
1 28
1 29
1 30
1 31
1 32
1 33
1 34
1 35
1 36
1 37
1 38
1 39
1 40
1 41
1 42
1 43
1 44
1 45
1 46
1 47
1 48
1 49
1 50
1 51
1 52
1 53
1 54
1 55
1 56
1 57
1 58
1 59
1 60
1 61
1 62
1 63
1 64
1 65
1 66
1 67
1 68
1 69
1 70
1 71
1 72
1 73
1 74
1 75
1 76
1 77
1 78
1 79
1 80
1 81
1 82
1 83
1 84
1 85
1 86
1 87
1 88
1 89
1 90
1 91
1 92
1 93
1 94
1 95
1 96
1 97
1 98
1 99
1 100
1 101
1 102
1 103
1 104
1 105
1 106
1 107
1 108
1 109
1 110
1 111
1 112
1 113
1 114
1 115
1 116
1 117
1 118
1 119
1 120
1 121
1 122
1 123
1 124
1 125
1 126
1 127
1 128
1 129
1 130
1 131
1 132
1 133
1 134
1 135
1 136
1 137
1 138
1 139
1 140
1 141
1 142
1 143
1 144
1 145
1 146
1 147
1 148
1 149
1 150
1 151
1 152
1 153
1 154
1 155
1 156
1 157
1 158
1 159
1 160
1 161
1 162
1 163
1 164
1 165
1 166
1 167
1 168
1 169
1 170
1 171
1 172
1 173
1 174
1 175
1 176
1 177
1 178
1 179
1 180
1 181
1 182
1 183
1 184
1 185
1 186
1 187
1 188
1 189
1 190
1 191
1 192
1 193
1 194
1 195
1 196
1 197
1 198
1 199
1 200
1 201
1 202
1 203
1 204
1 205
1 206
1 207
1 208
1 209
1 210
1 211
1 212
1 213
1 214
1 215
1 216
1 217
1 218
1 219
1 220
1 221
1 222
1 223
1 224
1 225
1 226
1 227
1 228
1 229
1 230
1 231
1 232
1 233
1 234
1 235
1 236
1 237
1 238
1 239
1 240
1 241
1 242
1 243
1 244
1 245
1 246
1 247
1 248
1 249
1 250
1 251
1 252
1 253
1 254
1 255
1 256
1 257
1 258
1 259
1 260
1 261
1 262
1 263
1 264
1 265
1 266
1 267
1 268
1 269
1 270
1 271
1 272
1 273
1 274
1 275
1 276
1 277
1 278
1 279
1 280
1 281
1 282
1 283
1 284
1 285
1 286
1 287
1 288
1 289
1 290
1 291
1 292
1 293
1 294
1 295
1 296
1 297
1 298
1 299
1 300
1 301
1 302
1 303
1 304
1 305
1 306
1 307
1 308
1 309
1 310
1 311
1 312
1 313
1 314
1 315
1 316
1 317
1 318
1 319
1 320
1 321
1 322
1 323
1 324
1 325
1 326
1 327
1 328
1 329
1 330
1 331
1 332
1 333
1 334
1 335
1 336
1 337
1 338
1 339
1 340
1 341
1 342
1 343
1 344
1 345
1 346
1 347
1 348
1 349
1 350
1 351
1 352
1 353
1 354
1 355
1 356
1 357
1 358
1 359
1 360
1 361
1 362
1 363
1 364
1 365
1 366
1 367
1 368
1 369
1 370
1 371
1 372
1 373
1 374
1 375
1 376
1 377
1 378
1 379
1 380
1 381
1 382
1 383
1 384
1 385
1 386
1 387
1 388
1 389
1 390
1 391
1 392
1 393
1 394
1 395
1 396
1 397
1 398
1 399
1 400
1 401
1 402
1 403
1 404
1 405
1 406
1 407
1 408
1 409
1 410
1 411
1 412
1 413
1 414
1 415
1 416
1 417
1 418
1 419
1 420
1 421
1 422
1 423
1 424
1 425
1 426
1 427
1 428
1 429
1 430
1 431
1 432
1 433
1 434
1 435
1 436
1 437
1 438
1 439
1 440
1 441
1 442
1 443
1 444
1 445
1 446
1 447
1 448
1 449
1 450
1 451
1 452
1 453
1 454
1 455
1 456
1 457
1 458
1 459
1 460
1 461
1 462
1 463
1 464
1 465
1 466
1 467
1 468
1 469
1 470
1 471
1 472
1 473
1 474
1 475
1 476
1 477
1 478
1 479
1 480
1 481
1 482
1 483
1 484
1 485
1 486
1 487
1 488
1 489
1 490
1 491
1 492
1 493
1 494
1 495
1 496
1 497
1 498
1 499
1 500
1 501
1 502
1 503
1 504
1 505
1 506
1 507
1 508
1 509
1 510
1 511
1 512
1 513
1 514
1 515
1 516
1 517
1 518
1 519
1 520
1 521
1 522
1 523
1 524
1 525
1 526
1 527
1 528
1 529
1 530
1 531
1 532
1 533
1 534
1 535
1 536
1 537
1 538
1 539
1 540
1 541
1 542
1 543
1 544
1 545
1 546
1 547
1 548
1 549
1 550
1 551
1 552
1 553
1 554
1 555
1 556
1 557
1 558
1 559
1 560
1 561
1 562
1 563
1 564
1 565
1 566
1 567
1 568
1 569
1 570
1 571
1 572
1 573
1 574
1 575
1 576
1 577
1 578
1 579
1 580
1 581
1 582
1 583
1 584
1 585
1 586
1 587
1 588
1 589
1 590
1 591
1 592
1 593
1 594
1 595
1 596
1 597
1 598
1 599
1 600
1 601
1 602
1 603
1 604
1 605
1 606
1 607
1 608
1 609
1 610
1 611
1 612
1 613
1 614
1 615
1 616
1 617
1 618
1 619
1 620
1 621
1 622
1 623
1 624
1 625
1 626
1 627
1 628
1 629
1 630
1 631
1 632
1 633
1 634
1 635
1 636
1 637
1 638
1 639
1 640
1 641
1 642
1 643
1 644
1 645
1 646
1 647
1 648
1 649
1 650
1 651
1 652
1 653
1 654
1 655
1 656
1 657
1 658
1 659
1 660
1 661
1 662
1 663
1 664
1 665
1 666
1 667
1 668
1 669
1 670
1 671
1 672
1 673
1 674
1 675
1 676
1 677
1 678
1 679
1 680
POINT_DATA 681
SCALARS is_boundary int 1
LOOKUP_TABLE default
0
0
0
0
0
0
0
0
0
0
0
0
0
0
0
0
0
0
0
0
0
0
0
0
0
0
0
0
0
0
0
0
0
0
0
0
0
0
0
0
0
0
0
0
0
0
0
0
0
0
0
0
0
0
0
0
0
0
0
0
0
0
0
0
0
0
0
0
0
0
0
0
0
0
0
0
0
0
0
0
0
0
0
0
0
0
0
0
0
0
0
0
0
0
0
0
0
0
0
0
0
0
0
0
0
0
0
0
0
0
0
0
0
0
0
0
0
0
0
0
0
0
0
0
0
0
0
0
0
0
0
0
0
0
0
0
0
0
0
0
0
0
0
0
0
0
0
0
0
0
0
0
0
0
0
0
0
0
0
0
0
0
0
0
0
0
0
0
0
0
0
0
0
0
0
0
0
0
0
0
0
0
0
0
0
0
0
0
0
0
0
0
0
0
0
0
0
0
0
0
0
0
0
0
0
0
0
0
0
0
0
0
0
0
0
0
0
0
0
0
0
0
0
0
0
0
0
0
0
0
0
0
0
0
0
0
0
0
0
0
0
0
0
0
0
0
0
0
0
0
0
0
0
0
0
0
0
0
0
0
0
0
0
0
0
0
0
0
0
0
0
0
0
0
0
0
0
0
0
0
0
0
0
0
0
0
0
0
0
0
0
0
0
0
0
0
0
0
0
0
0
0
0
0
0
0
0
0
0
0
0
0
0
0
0
0
0
0
0
0
0
0
0
0
0
0
0
0
0
0
0
0
0
0
0
0
0
0
0
0
0
0
0
0
0
0
0
0
0
0
0
0
0
0
0
0
0
0
0
0
0
0
0
0
0
0
0
0
0
0
0
0
0
0
0
1
1
1
1
1
1
1
1
1
1
1
1
1
1
1
1
1
1
1
1
1
1
1
1
1
1
1
1
1
1
1
1
1
1
1
1
1
1
1
1
1
1
1
1
1
1
1
1
1
1
1
1
1
1
1
1
1
1
1
1
1
1
1
1
1
1
1
1
1
1
1
1
1
1
1
1
1
1
1
1
1
1
1
1
1
1
1
1
1
1
1
1
1
1
1
1
1
1
1
1
1
1
1
1
1
1
1
1
1
1
1
1
1
1
1
1
1
1
1
1
1
1
1
1
1
1
1
1
1
1
1
1
1
1
1
1
1
1
1
1
1
1
1
1
1
1
1
1
1
1
1
1
1
1
1
1
1
1
1
1
1
1
1
1
1
1
1
1
1
1
1
1
1
1
1
1
1
1
1
1
1
1
1
1
1
1
1
1
1
1
1
1
1
1
1
1
1
1
1
1
1
1
1
1
1
1
1
1
1
1
1
1
1
1
1
1
1
1
1
1
1
1
1
1
1
1
1
1
1
1
1
1
1
1
1
1
1
1
1
1
1
1
1
1
1
1
1
1
1
1
1
1
1
1
1
1
1
1
1
1
1
1
1
1
1
1
1
1
1
1
1
1
1
1
1
1
1
1
1
1
1
1
1
1
1
1
1
1
1
1
1
1
1
1
1
1
1
1
1
1
1
1
1
1
1
1
SCALARS rho float 1
LOOKUP_TABLE default
1020
1020
1020
1020
1020
1020
1020
1020
1020
1020
1020
1020
1020
1020
1020
1020
1020
1020
1020
1020
1020
1020
1020
1020
1020
1020
1020
1020
1020
1020
1020
1020
1020
1020
1020
1020
1020
1020
1020
1020
1020
1020
1020
1020
1020
1020
1020
1020
1020
1020
1020
1020
1020
1020
1020
1020
1020
1020
1020
1020
1020
1020
1020
1020
1020
1020
1020
1020
1020
1020
1020
1020
1020
1020
1020
1020
1020
1020
1020
1020
1020
1020
1020
1020
1020
1020
1020
1020
1020
1020
1020
1020
1020
1020
1020
1020
1020
1020
1020
1020
1020
1020
1020
1020
1020
1020
1020
1020
1020
1020
1020
1020
1020
1020
1020
1020
1020
1020
1020
1020
1020
1020
1020
1020
1020
1020
1020
1020
1020
1020
1020
1020
1020
1020
1020
1020
1020
1020
1020
1020
1020
1020
1020
1020
1020
1020
1020
1020
1020
1020
1020
1020
1020
1020
1020
1020
1020
1020
1020
1020
1020
1020
1020
1020
1020
1020
1020
1020
1020
1020
1020
1020
1020
1020
1020
1020
1020
1020
1020
1020
1020
1020
1020
1020
1020
1020
1020
1020
1020
1020
1020
1020
1020
1020
1020
1020
1020
1020
1020
1020
1020
1020
1020
1020
1020
1020
1020
1020
1020
1020
1020
1020
1020
1020
1020
1020
1020
1020
1020
1020
1020
1020
1020
1020
1020
1020
1020
1020
1020
1020
1020
1020
1020
1020
1020
1020
1020
1020
1020
1020
1020
1020
1020
1020
1020
1020
1020
1020
1020
1020
1020
1020
1020
1020
1020
1020
1020
1020
1020
1020
1020
1020
1020
1020
1020
1020
1020
1020
1020
1020
1020
1020
1020
1020
1020
1020
1020
1020
1020
1020
1020
1020
1020
1020
1020
1020
1020
1020
1020
1020
1020
1020
1020
1020
1020
1020
1020
1020
1020
1020
1020
1020
1020
1020
1020
1020
1020
1020
1020
1020
1020
1020
1020
1020
1020
1020
1020
1020
1020
1020
1020
1020
1020
1020
1020
1020
1020
1020
1020
1020
1020
1020
1020
1020
1020
1020
1020
1020
1020
1020
1020
1020
1020
1020
1020
1020
1020
1020
1020
1020
1020
1020
1020
1020
1020
1020
1020
1020
1020
1020
1020
1020
1020
1020
1020
1020
1020
1020
1020
1020
1020
1020
1020
1020
1020
1000
1000
1000
1000
1000
1000
1000
1000
1000
1000
1000
1000
1000
1000
1000
1000
1000
1000
1000
1000
1000
1000
1000
1000
1000
1000
1000
1000
1000
1000
1000
1000
1000
1000
1000
1000
1000
1000
1000
1000
1000
1000
1000
1000
1000
1000
1000
1000
1000
1000
1000
1000
1000
1000
1000
1000
1000
1000
1000
1000
1000
1000
1000
1000
1000
1000
1000
1000
1000
1000
1000
1000
1000
1000
1000
1000
1000
1000
1000
1000
1000
1000
1000
1000
1000
1000
1000
1000
1000
1000
1000
1000
1000
1000
1000
1000
1000
1000
1000
1000
1000
1000
1000
1000
1000
1000
1000
1000
1000
1000
1000
1000
1000
1000
1000
1000
1000
1000
1000
1000
1000
1000
1000
1000
1000
1000
1000
1000
1000
1000
1000
1000
1000
1000
1000
1000
1000
1000
1000
1000
1000
1000
1000
1000
1000
1000
1000
1000
1000
1000
1000
1000
1000
1000
1000
1000
1000
1000
1000
1000
1000
1000
1000
1000
1000
1000
1000
1000
1000
1000
1000
1000
1000
1000
1000
1000
1000
1000
1000
1000
1000
1000
1000
1000
1000
1000
1000
1000
1000
1000
1000
1000
1000
1000
1000
1000
1000
1000
1000
1000
1000
1000
1000
1000
1000
1000
1000
1000
1000
1000
1000
1000
1000
1000
1000
1000
1000
1000
1000
1000
1000
1000
1000
1000
1000
1000
1000
1000
1000
1000
1000
1000
1000
1000
1000
1000
1000
1000
1000
1000
1000
1000
1000
1000
1000
1000
1000
1000
1000
1000
1000
1000
1000
1000
1000
1000
1000
1000
1000
1000
1000
1000
1000
1000
1000
1000
1000
1000
1000
1000
1000
1000
1000
1000
1000
1000
1000
1000
1000
1000
1000
1000
1000
1000
1000
1000
1000
1000
1000
1000
1000
1000
1000
1000
1000
1000
1000
1000
1000
1000
1000
1000
1000
1000
1000
1000
SCALARS p float 1
LOOKUP_TABLE default
25004.681136676067
25004.681136676067
25004.681136676067
25004.681136676067
25004.681136676067
25004.681136676067
25004.681136676067
25004.681136676067
25004.681136676067
25004.681136676067
25004.681136676067
25004.681136676067
25004.681136676067
25004.681136676067
25004.681136676067
25004.681136676067
25004.681136676067
25004.681136676067
25004.681136676067
25004.681136676067
25004.681136676067
25004.681136676067
25004.681136676067
25004.681136676067
25004.681136676067
25004.681136676067
25004.681136676067
25004.681136676067
25004.681136676067
25004.681136676067
25004.681136676067
25004.681136676067
25004.681136676067
25004.681136676067
25004.681136676067
25004.681136676067
25004.681136676067
25004.681136676067
25004.681136676067
25004.681136676067
25004.681136676067
25004.681136676067
25004.681136676067
25004.681136676067
25004.681136676067
25004.681136676067
25004.681136676067
25004.681136676067
25004.681136676067
25004.681136676067
25004.681136676067
25004.681136676067
25004.681136676067
25004.681136676067
25004.681136676067
25004.681136676067
25004.681136676067
25004.681136676067
25004.681136676067
25004.681136676067
25004.681136676067
25004.681136676067
25004.681136676067
25004.681136676067
25004.681136676067
25004.681136676067
25004.681136676067
25004.681136676067
25004.681136676067
25004.681136676067
25004.681136676067
25004.681136676067
25004.681136676067
25004.681136676067
25004.681136676067
25004.681136676067
25004.681136676067
25004.681136676067
25004.681136676067
25004.681136676067
25004.681136676067
25004.681136676067
25004.681136676067
25004.681136676067
25004.681136676067
25004.681136676067
25004.681136676067
25004.681136676067
25004.681136676067
25004.681136676067
25004.681136676067
25004.681136676067
25004.681136676067
25004.681136676067
25004.681136676067
25004.681136676067
25004.681136676067
25004.681136676067
25004.681136676067
25004.681136676067
25004.681136676067
25004.681136676067
25004.681136676067
25004.681136676067
25004.681136676067
25004.681136676067
25004.681136676067
25004.681136676067
25004.681136676067
25004.681136676067
25004.681136676067
25004.681136676067
25004.681136676067
25004.681136676067
25004.681136676067
25004.681136676067
25004.681136676067
25004.681136676067
25004.681136676067
25004.681136676067
25004.681136676067
25004.681136676067
25004.681136676067
25004.681136676067
25004.681136676067
25004.681136676067
25004.681136676067
25004.681136676067
25004.681136676067
25004.681136676067
25004.681136676067
25004.681136676067
25004.681136676067
25004.681136676067
25004.681136676067
25004.681136676067
25004.681136676067
25004.681136676067
25004.681136676067
25004.681136676067
25004.681136676067
25004.681136676067
25004.681136676067
25004.681136676067
25004.681136676067
25004.681136676067
25004.681136676067
25004.681136676067
25004.681136676067
25004.681136676067
25004.681136676067
25004.681136676067
25004.681136676067
25004.681136676067
25004.681136676067
25004.681136676067
25004.681136676067
25004.681136676067
25004.681136676067
25004.681136676067
25004.681136676067
25004.681136676067
25004.681136676067
25004.681136676067
25004.681136676067
25004.681136676067
25004.681136676067
25004.681136676067
25004.681136676067
25004.681136676067
25004.681136676067
25004.681136676067
25004.681136676067
25004.681136676067
25004.681136676067
25004.681136676067
25004.681136676067
25004.681136676067
25004.681136676067
25004.681136676067
25004.681136676067
25004.681136676067
25004.681136676067
25004.681136676067
25004.681136676067
25004.681136676067
25004.681136676067
25004.681136676067
25004.681136676067
25004.681136676067
25004.681136676067
25004.681136676067
25004.681136676067
25004.681136676067
25004.681136676067
25004.681136676067
25004.681136676067
25004.681136676067
25004.681136676067
25004.681136676067
25004.681136676067
25004.681136676067
25004.681136676067
25004.681136676067
25004.681136676067
25004.681136676067
25004.681136676067
25004.681136676067
25004.681136676067
25004.681136676067
25004.681136676067
25004.681136676067
25004.681136676067
25004.681136676067
25004.681136676067
25004.681136676067
25004.681136676067
25004.681136676067
25004.681136676067
25004.681136676067
25004.681136676067
25004.681136676067
25004.681136676067
25004.681136676067
25004.681136676067
25004.681136676067
25004.681136676067
25004.681136676067
25004.681136676067
25004.681136676067
25004.681136676067
25004.681136676067
25004.681136676067
25004.681136676067
25004.681136676067
25004.681136676067
25004.681136676067
25004.681136676067
25004.681136676067
25004.681136676067
25004.681136676067
25004.681136676067
25004.681136676067
25004.681136676067
25004.681136676067
25004.681136676067
25004.681136676067
25004.681136676067
25004.681136676067
25004.681136676067
25004.681136676067
25004.681136676067
25004.681136676067
25004.681136676067
25004.681136676067
25004.681136676067
25004.681136676067
25004.681136676067
25004.681136676067
25004.681136676067
25004.681136676067
25004.681136676067
25004.681136676067
25004.681136676067
25004.681136676067
25004.681136676067
25004.681136676067
25004.681136676067
25004.681136676067
25004.681136676067
25004.681136676067
25004.681136676067
25004.681136676067
25004.681136676067
25004.681136676067
25004.681136676067
25004.681136676067
25004.681136676067
25004.681136676067
25004.681136676067
25004.681136676067
25004.681136676067
25004.681136676067
25004.681136676067
25004.681136676067
25004.681136676067
25004.681136676067
25004.681136676067
25004.681136676067
25004.681136676067
25004.681136676067
25004.681136676067
25004.681136676067
25004.681136676067
25004.681136676067
25004.681136676067
25004.681136676067
25004.681136676067
25004.681136676067
25004.681136676067
25004.681136676067
25004.681136676067
25004.681136676067
25004.681136676067
25004.681136676067
25004.681136676067
25004.681136676067
25004.681136676067
25004.681136676067
25004.681136676067
25004.681136676067
25004.681136676067
25004.681136676067
25004.681136676067
25004.681136676067
25004.681136676067
25004.681136676067
25004.681136676067
25004.681136676067
25004.681136676067
25004.681136676067
25004.681136676067
25004.681136676067
25004.681136676067
25004.681136676067
25004.681136676067
25004.681136676067
25004.681136676067
25004.681136676067
25004.681136676067
25004.681136676067
25004.681136676067
25004.681136676067
25004.681136676067
25004.681136676067
25004.681136676067
25004.681136676067
25004.681136676067
25004.681136676067
25004.681136676067
25004.681136676067
25004.681136676067
25004.681136676067
25004.681136676067
25004.681136676067
25004.681136676067
25004.681136676067
25004.681136676067
25004.681136676067
25004.681136676067
25004.681136676067
25004.681136676067
25004.681136676067
25004.681136676067
25004.681136676067
25004.681136676067
25004.681136676067
25004.681136676067
25004.681136676067
25004.681136676067
25004.681136676067
25004.681136676067
25004.681136676067
25004.681136676067
25004.681136676067
25004.681136676067
25004.681136676067
25004.681136676067
25004.681136676067
25004.681136676067
25004.681136676067
25004.681136676067
25004.681136676067
25004.681136676067
25004.681136676067
0
0
0
0
0
0
24171.600276806857
24983.204534190994
24991.322222115115
0
0
0
24997.504150849454
25003.955029993562
25004.210243462036
0
0
0
25001.307766983962
25004.31142732533
25004.43761971813
0
0
0
25001.540838735415
25004.317381456982
25004.437717184377
0
0
0
25001.553977703039
25004.316956204519
25004.436986922552
0
0
0
25001.549745393109
25004.316671024499
25004.436897314201
0
0
0
25001.547155840984
25004.316538890012
25004.436886339256
0
0
0
25001.546143091615
25004.316486241663
25004.436885182116
0
0
0
25001.545883609608
25004.316470810005
25004.436885785257
0
0
0
25001.545915407736
25004.31647198955
25004.436887873511
0
0
0
25001.546314160689
25004.316492801379
25004.436887249456
0
0
0
25001.547441000726
25004.316551282594
25004.436890300301
0
0
0
25001.550045055603
25004.316683502479
25004.43690275972
0
0
0
25001.554201092451
25004.316963187539
25004.436987944591
0
0
0
25001.540893409769
25004.317379685763
25004.437715255386
0
0
0
25001.307766156511
25004.311427171371
25004.437623661808
0
0
0
24997.503810200753
25003.954994128973
25004.210226586227
0
0
0
24171.422922996142
24983.20132540851
24991.319661900761
0
0
0
0
0
0
0
0
0
0
0
0
0
0
0
0
0
0
0
0
0
0
0
0
0
0
0
0
0
0
0
0
0
0
0
0
0
0
0
0
0
0
0
0
0
0
0
0
0
0
0
0
0
0
0
0
0
0
0
0
0
0
0
0
0
0
0
0
0
0
0
0
0
0
0
0
0
0
0
0
0
0
0
0
0
0
0
0
0
0
0
0
0
0
0
0
0
0
0
0
0
0
0
0
0
0
0
0
0
0
0
0
0
0
0
0
0
0
0
0
0
0
0
0
0
0
0
0
0
0
0
0
0
0
0
0
0
0
0
0
0
0
0
0
0
0
0
0
0
0
0
0
0
0
0
0
0
0
0
0
0
0
0
0
0
0
0
0
0
0
0
0
0
0
0
0
0
0
0
0
0
0
0
0
0
0
0
0
0
0
0
0
0
0
0
SCALARS m float 1
LOOKUP_TABLE default
0.39965556373580352
0.39965556373580352
0.39965556373580352
0.39965556373580352
0.39965556373580352
0.39965556373580352
0.39965556373580352
0.39965556373580352
0.39965556373580352
0.39965556373580352
0.39965556373580352
0.39965556373580352
0.39965556373580352
0.39965556373580352
0.39965556373580352
0.39965556373580352
0.39965556373580352
0.39965556373580352
0.39965556373580352
0.39965556373580352
0.39965556373580352
0.39965556373580352
0.39965556373580352
0.39965556373580352
0.39965556373580352
0.39965556373580352
0.39965556373580352
0.39965556373580352
0.39965556373580352
0.39965556373580352
0.39965556373580352
0.39965556373580352
0.39965556373580352
0.39965556373580352
0.39965556373580352
0.39965556373580352
0.39965556373580352
0.39965556373580352
0.39965556373580352
0.39965556373580352
0.39965556373580352
0.39965556373580352
0.39965556373580352
0.39965556373580352
0.39965556373580352
0.39965556373580352
0.39965556373580352
0.39965556373580352
0.39965556373580352
0.39965556373580352
0.39965556373580352
0.39965556373580352
0.39965556373580352
0.39965556373580352
0.39965556373580352
0.39965556373580352
0.39965556373580352
0.39965556373580352
0.39965556373580352
0.39965556373580352
0.39965556373580352
0.39965556373580352
0.39965556373580352
0.39965556373580352
0.39965556373580352
0.39965556373580352
0.39965556373580352
0.39965556373580352
0.39965556373580352
0.39965556373580352
0.39965556373580352
0.39965556373580352
0.39965556373580352
0.39965556373580352
0.39965556373580352
0.39965556373580352
0.39965556373580352
0.39965556373580352
0.39965556373580352
0.39965556373580352
0.39965556373580352
0.39965556373580352
0.39965556373580352
0.39965556373580352
0.39965556373580352
0.39965556373580352
0.39965556373580352
0.39965556373580352
0.39965556373580352
0.39965556373580352
0.39965556373580352
0.39965556373580352
0.39965556373580352
0.39965556373580352
0.39965556373580352
0.39965556373580352
0.39965556373580352
0.39965556373580352
0.39965556373580352
0.39965556373580352
0.39965556373580352
0.39965556373580352
0.39965556373580352
0.39965556373580352
0.39965556373580352
0.39965556373580352
0.39965556373580352
0.39965556373580352
0.39965556373580352
0.39965556373580352
0.39965556373580352
0.39965556373580352
0.39965556373580352
0.39965556373580352
0.39965556373580352
0.39965556373580352
0.39965556373580352
0.39965556373580352
0.39965556373580352
0.39965556373580352
0.39965556373580352
0.39965556373580352
0.39965556373580352
0.39965556373580352
0.39965556373580352
0.39965556373580352
0.39965556373580352
0.39965556373580352
0.39965556373580352
0.39965556373580352
0.39965556373580352
0.39965556373580352
0.39965556373580352
0.39965556373580352
0.39965556373580352
0.39965556373580352
0.39965556373580352
0.39965556373580352
0.39965556373580352
0.39965556373580352
0.39965556373580352
0.39965556373580352
0.39965556373580352
0.39965556373580352
0.39965556373580352
0.39965556373580352
0.39965556373580352
0.39965556373580352
0.39965556373580352
0.39965556373580352
0.39965556373580352
0.39965556373580352
0.39965556373580352
0.39965556373580352
0.39965556373580352
0.39965556373580352
0.39965556373580352
0.39965556373580352
0.39965556373580352
0.39965556373580352
0.39965556373580352
0.39965556373580352
0.39965556373580352
0.39965556373580352
0.39965556373580352
0.39965556373580352
0.39965556373580352
0.39965556373580352
0.39965556373580352
0.39965556373580352
0.39965556373580352
0.39965556373580352
0.39965556373580352
0.39965556373580352
0.39965556373580352
0.39965556373580352
0.39965556373580352
0.39965556373580352
0.39965556373580352
0.39965556373580352
0.39965556373580352
0.39965556373580352
0.39965556373580352
0.39965556373580352
0.39965556373580352
0.39965556373580352
0.39965556373580352
0.39965556373580352
0.39965556373580352
0.39965556373580352
0.39965556373580352
0.39965556373580352
0.39965556373580352
0.39965556373580352
0.39965556373580352
0.39965556373580352
0.39965556373580352
0.39965556373580352
0.39965556373580352
0.39965556373580352
0.39965556373580352
0.39965556373580352
0.39965556373580352
0.39965556373580352
0.39965556373580352
0.39965556373580352
0.39965556373580352
0.39965556373580352
0.39965556373580352
0.39965556373580352
0.39965556373580352
0.39965556373580352
0.39965556373580352
0.39965556373580352
0.39965556373580352
0.39965556373580352
0.39965556373580352
0.39965556373580352
0.39965556373580352
0.39965556373580352
0.39965556373580352
0.39965556373580352
0.39965556373580352
0.39965556373580352
0.39965556373580352
0.39965556373580352
0.39965556373580352
0.39965556373580352
0.39965556373580352
0.39965556373580352
0.39965556373580352
0.39965556373580352
0.39965556373580352
0.39965556373580352
0.39965556373580352
0.39965556373580352
0.39965556373580352
0.39965556373580352
0.39965556373580352
0.39965556373580352
0.39965556373580352
0.39965556373580352
0.39965556373580352
0.39965556373580352
0.39965556373580352
0.39965556373580352
0.39965556373580352
0.39965556373580352
0.39965556373580352
0.39965556373580352
0.39965556373580352
0.39965556373580352
0.39965556373580352
0.39965556373580352
0.39965556373580352
0.39965556373580352
0.39965556373580352
0.39965556373580352
0.39965556373580352
0.39965556373580352
0.39965556373580352
0.39965556373580352
0.39965556373580352
0.39965556373580352
0.39965556373580352
0.39965556373580352
0.39965556373580352
0.39965556373580352
0.39965556373580352
0.39965556373580352
0.39965556373580352
0.39965556373580352
0.39965556373580352
0.39965556373580352
0.39965556373580352
0.39965556373580352
0.39965556373580352
0.39965556373580352
0.39965556373580352
0.39965556373580352
0.39965556373580352
0.39965556373580352
0.39965556373580352
0.39965556373580352
0.39965556373580352
0.39965556373580352
0.39965556373580352
0.39965556373580352
0.39965556373580352
0.39965556373580352
0.39965556373580352
0.39965556373580352
0.39965556373580352
0.39965556373580352
0.39965556373580352
0.39965556373580352
0.39965556373580352
0.39965556373580352
0.39965556373580352
0.39965556373580352
0.39965556373580352
0.39965556373580352
0.39965556373580352
0.39965556373580352
0.39965556373580352
0.39965556373580352
0.39965556373580352
0.39965556373580352
0.39965556373580352
0.39965556373580352
0.39965556373580352
0.39965556373580352
0.39965556373580352
0.39965556373580352
0.39965556373580352
0.39965556373580352
0.39965556373580352
0.39965556373580352
0.39965556373580352
0.39965556373580352
0.39965556373580352
0.39965556373580352
0.39965556373580352
0.39965556373580352
0.39965556373580352
0.39965556373580352
0.39965556373580352
0.39965556373580352
0.39965556373580352
0.39965556373580352
0.39965556373580352
0.39965556373580352
0.39965556373580352
0.39965556373580352
0.39965556373580352
0.39965556373580352
0.39965556373580352
0.39965556373580352
0.39965556373580352
0.39965556373580352
0.39965556373580352
0.39965556373580352
0.39965556373580352
0.39965556373580352
0.39965556373580352
0.39965556373580352
0.39965556373580352
0.39965556373580352
0.39965556373580352
0.39965556373580352
0.39965556373580352
0.39965556373580352
0.39965556373580352
0.39965556373580352
0.39965556373580352
0.39965556373580352
0.39965556373580352
0.39965556373580352
0.39965556373580352
0.39965556373580352
0.39965556373580352
0.39965556373580352
0.39965556373580352
0.39965556373580352
0.39965556373580352
0.39965556373580352
0.39965556373580352
0.39965556373580352
0.39965556373580352
0.39965556373580352
0.39965556373580352
0.39965556373580352
0.39965556373580352
0.39965556373580352
0.39965556373580352
0.39965556373580352
0.39965556373580352
0.39965556373580352
0.39965556373580352
0.39965556373580352
0.39965556373580352
0.39965556373580352
0.39965556373580352
0.39965556373580352
0.39965556373580352
0.39965556373580352
0.39965556373580352
0.39965556373580352
0.39965556373580352
0.39965556373580352
0.39965556373580352
0.39965556373580352
0.39965556373580352
0.39965556373580352
0.39965556373580352
0.39965556373580352
0.39965556373580352
0.39965556373580352
0.39965556373580352
0.39965556373580352
0.39965556373580352
0.39965556373580352
0.39965556373580352
0.39965556373580352
0.39965556373580352
0.39965556373580352
0.39965556373580352
0.39965556373580352
0.39965556373580352
0.39965556373580352
0.39965556373580352
0.39965556373580352
0.39965556373580352
0.39965556373580352
0.39965556373580352
0.39965556373580352
0.39965556373580352
0.39965556373580352
0.39965556373580352
0.39965556373580352
0.39965556373580352
0.39965556373580352
0.39965556373580352
0.39965556373580352
0.39965556373580352
0.39965556373580352
0.39965556373580352
0.39965556373580352
0.39965556373580352
0.39965556373580352
0.39965556373580352
0.39965556373580352
0.39965556373580352
0.39965556373580352
0.39965556373580352
0.39965556373580352
0.39965556373580352
0.39965556373580352
0.39965556373580352
0.39965556373580352
0.39965556373580352
0.39965556373580352
0.39965556373580352
0.39965556373580352
0.39965556373580352
0.39965556373580352
0.39965556373580352
0.39965556373580352
0.39965556373580352
0.39965556373580352
0.39965556373580352
0.39965556373580352
0.39965556373580352
0.39965556373580352
0.39965556373580352
0.39965556373580352
0.39965556373580352
0.39965556373580352
0.39965556373580352
0.39965556373580352
0.39965556373580352
0.39965556373580352
0.39965556373580352
0.39965556373580352
0.39965556373580352
0.39965556373580352
0.39965556373580352
0.39965556373580352
0.39965556373580352
0.39965556373580352
0.39965556373580352
0.39965556373580352
0.39965556373580352
0.39965556373580352
0.39965556373580352
0.39965556373580352
0.39965556373580352
0.39965556373580352
0.39965556373580352
0.39965556373580352
0.39965556373580352
0.39965556373580352
0.39965556373580352
0.39965556373580352
0.39965556373580352
0.39965556373580352
0.39965556373580352
0.39965556373580352
0.39965556373580352
0.39965556373580352
0.39965556373580352
0.39965556373580352
0.39965556373580352
0.39965556373580352
0.39965556373580352
0.39965556373580352
0.39965556373580352
0.39965556373580352
0.39965556373580352
0.39965556373580352
0.39965556373580352
0.39965556373580352
0.39965556373580352
0.39965556373580352
0.39965556373580352
0.39965556373580352
0.39965556373580352
0.39965556373580352
0.39965556373580352
0.39965556373580352
0.39965556373580352
0.39965556373580352
0.39965556373580352
0.39965556373580352
0.39965556373580352
0.39965556373580352
0.39965556373580352
0.39965556373580352
0.39965556373580352
0.39965556373580352
0.39965556373580352
0.39965556373580352
0.39965556373580352
0.39965556373580352
0.39965556373580352
0.39965556373580352
0.39965556373580352
0.39965556373580352
0.39965556373580352
0.39965556373580352
0.39965556373580352
0.39965556373580352
0.39965556373580352
0.39965556373580352
0.39965556373580352
0.39965556373580352
0.39965556373580352
0.39965556373580352
0.39965556373580352
0.39965556373580352
0.39965556373580352
0.39965556373580352
0.39965556373580352
0.39965556373580352
0.39965556373580352
0.39965556373580352
0.39965556373580352
0.39965556373580352
0.39965556373580352
0.39965556373580352
0.39965556373580352
0.39965556373580352
0.39965556373580352
0.39965556373580352
0.39965556373580352
0.39965556373580352
0.39965556373580352
0.39965556373580352
0.39965556373580352
0.39965556373580352
0.39965556373580352
0.39965556373580352
0.39965556373580352
0.39965556373580352
0.39965556373580352
0.39965556373580352
0.39965556373580352
0.39965556373580352
0.39965556373580352
0.39965556373580352
0.39965556373580352
0.39965556373580352
0.39965556373580352
0.39965556373580352
0.39965556373580352
0.39965556373580352
0.39965556373580352
0.39965556373580352
0.39965556373580352
0.39965556373580352
0.39965556373580352
0.39965556373580352
0.39965556373580352
0.39965556373580352
0.39965556373580352
0.39965556373580352
0.39965556373580352
0.39965556373580352
0.39965556373580352
0.39965556373580352
0.39965556373580352
0.39965556373580352
0.39965556373580352
0.39965556373580352
0.39965556373580352
0.39965556373580352
0.39965556373580352
0.39965556373580352
0.39965556373580352
0.39965556373580352
0.39965556373580352
0.39965556373580352
0.39965556373580352
0.39965556373580352
0.39965556373580352
0.39965556373580352
0.39965556373580352
0.39965556373580352
0.39965556373580352
0.39965556373580352
0.39965556373580352
0.39965556373580352
0.39965556373580352
0.39965556373580352
0.39965556373580352
0.39965556373580352
0.39965556373580352
0.39965556373580352
0.39965556373580352
0.39965556373580352
0.39965556373580352
0.39965556373580352
0.39965556373580352
0.39965556373580352
0.39965556373580352
0.39965556373580352
0.39965556373580352
0.39965556373580352
0.39965556373580352
0.39965556373580352
0.39965556373580352
0.39965556373580352
0.39965556373580352
0.39965556373580352
0.39965556373580352
0.39965556373580352
0.39965556373580352
0.39965556373580352
0.39965556373580352
0.39965556373580352
0.39965556373580352
0.39965556373580352
0.39965556373580352
0.39965556373580352
0.39965556373580352
0.39965556373580352
0.39965556373580352
0.39965556373580352
0.39965556373580352
0.39965556373580352
0.39965556373580352
0.39965556373580352
0.39965556373580352
0.39965556373580352
0.39965556373580352
0.39965556373580352
0.39965556373580352
0.39965556373580352
0.39965556373580352
0.39965556373580352
0.39965556373580352
0.39965556373580352
0.39965556373580352
0.39965556373580352
0.39965556373580352
0.39965556373580352
0.39965556373580352
0.39965556373580352
0.39965556373580352
0.39965556373580352
0.39965556373580352
0.39965556373580352
0.39965556373580352
0.39965556373580352
0.39965556373580352
0.39965556373580352
0.39965556373580352
0.39965556373580352
0.39965556373580352
0.39965556373580352
0.39965556373580352
VECTORS v float
-1.9903109528910605e-05 -0.036397255863190883 0
-2.0928332318607806e-05 -0.036835776179221874 0
-2.1659137723604833e-05 -0.037175681353344064 0
-2.2308942218691297e-05 -0.037505899023366235 0
-2.2902285801206051e-05 -0.037835315866463479 0
-2.3450158667656993e-05 -0.038179119844361648 0
-2.3964579865699405e-05 -0.038547457839469862 0
-2.4458294356075828e-05 -0.038946860499168956 0
-2.4908549112283373e-05 -0.03938322024866768 0
-2.5329745101464368e-05 -0.039862047157813559 0
-2.5710083228721799e-05 -0.040389327879562301 0
-2.6027639995938806e-05 -0.040971431855133994 0
-2.628439427498437e-05 -0.041615150503152877 0
-2.6493294416086592e-05 -0.042328952918703006 0
-2.6704653660035428e-05 -0.043129690913470409 0
-2.6860639518677378e-05 -0.044036585600456819 0
-2.7014779982112961e-05 -0.045073239397742541 0
-2.7224362479716607e-05 -0.046268523746124959 0
-2.7361827749317448e-05 -0.047663397464141881 0
-2.7596268469518065e-05 -0.049304902577899046 0
-2.8020158689420053e-05 -0.051279958910018367 0
-2.8203232813070323e-05 -0.053719855364165167 0
-2.8633791555860929e-05 -0.056848730667225331 0
-2.9224407553988608e-05 -0.061109243892613595 0
-3.0099558150290998e-05 -0.067844690237323327 0
-1.1573466305861074e-05 -0.036576645225713356 0
-1.2339523680431911e-05 -0.037054359124710418 0
-1.290760135941266e-05 -0.037424234157370756 0
-1.335796146162094e-05 -0.03777741413564123 0
-1.3743894919339458e-05 -0.038121654969497869 0
-1.4042561849188843e-05 -0.038475795809644282 0
-1.4351755047509406e-05 -0.038853263371944523 0
-1.4561152527886863e-05 -0.039262007358278665 0
-1.4802261969007649e-05 -0.039709205294188733 0
-1.4970531533992697e-05 -0.040200419922288823 0
-1.5087214566136851e-05 -0.04074207294681325 0
-1.5330480194959975e-05 -0.04134030408206326 0
-1.5482538559605351e-05 -0.042002343895572634 0
-1.5777563522547549e-05 -0.042737581837044812 0
-1.5968515696195061e-05 -0.04356323911763442 0
-1.611671643763231e-05 -0.044497548334717869 0
-1.6256165255814859e-05 -0.04556555579960847 0
-1.6416905713182774e-05 -0.046795366722805619 0
-1.6580047090576678e-05 -0.048226314460155038 0
-1.6694977996368372e-05 -0.049909309756981851 0
-1.6888943660560224e-05 -0.051929545027591097 0
-1.702216433572372e-05 -0.054412245530307088 0
-1.7227342089409506e-05 -0.057586001624748764 0
-1.7464158324433937e-05 -0.061911274562859137 0
-1.7704909032947039e-05 -0.068930275857961826 0
-4.2695046336814021e-06 -0.036648278890754359 0
-4.5875450423116575e-06 -0.037130690302057699 0
-4.804086898072606e-06 -0.037504722998665099 0
-4.995744847331394e-06 -0.037862371299070913 0
-5.1798624177920077e-06 -0.038211291656170474 0
-5.3254940809586471e-06 -0.038570213472236187 0
-5.4522518554989446e-06 -0.038953043871380245 0
-5.4695729372025303e-06 -0.039368260799272144 0
-5.6047890004295575e-06 -0.03982297652352236 0
-5.7114130649536516e-06 -0.04032351469701264 0
-5.7923644013793883e-06 -0.040876086274272638 0
-5.7688343679465741e-06 -0.041487435700338846 0
-5.9406340909895506e-06 -0.042165282423740603 0
-6.1626231657972182e-06 -0.042919291157992104 0
-6.2114960690262256e-06 -0.043766788616956237 0
-6.37599079685285e-06 -0.044727983037921561 0
-6.4248573797160492e-06 -0.045826683696176998 0
-6.6002474772202922e-06 -0.047093235032208892 0
-6.7298361083538442e-06 -0.048565786770531014 0
-6.8355869412155184e-06 -0.050299592234028273 0
-7.0018881602989798e-06 -0.052375748695923215 0
-7.2325651578372554e-06 -0.054924540846945556 0
-7.4509067837914047e-06 -0.058172669383398129 0
-7.639459451479584e-06 -0.062577898407121788 0
-7.882745931562439e-06 -0.069697526361771497 0
-1.3799978249722399e-06 -0.03668615618479891 0
-1.462835770130508e-06 -0.037172269291163726 0
-1.4770404976680126e-06 -0.037549220303551116 0
-1.5860801059977566e-06 -0.03790980815010813 0
-1.644128133818699e-06 -0.038261692827732265 0
-1.6990838394093231e-06 -0.038623742717071669 0
-1.733124587977398e-06 -0.039010029273282142 0
-1.7656598365642881e-06 -0.039429102276861333 0
-1.8138109958033066e-06 -0.039887884969634052 0
-1.8439934095698102e-06 -0.040392839411961604 0
-1.8677131750820603e-06 -0.040950482017032663 0
-1.9028141103410023e-06 -0.041567696670220852 0
-2.0371227906831823e-06 -0.042252261831164484 0
-2.0565131166669176e-06 -0.04301325043408484 0
-2.0171051859217444e-06 -0.043869174368754135 0
-2.1072985841144368e-06 -0.044839432512058873 0
-2.1443372195647575e-06 -0.045949253974464518 0
-2.3493050413656578e-06 -0.047228409597404382 0
-2.4241616725157282e-06 -0.048715234992094403 0
-2.5075382248518334e-06 -0.050464880935141641 0
-2.5589284280939872e-06 -0.052559278270313661 0
-2.769074171583753e-06 -0.055128594788680041 0
-2.901867185837539e-06 -0.058399359082147134 0
-3.0518988855640338e-06 -0.062829466999278855 0
-3.2255573451018805e-06 -0.06998079353609625 0
-6.8267170725991863e-07 -0.036705703477776346 0
-6.4147371648593239e-07 -0.037193682975967986 0
-6.8765575716602038e-07 -0.0375721321204339 0
-6.8048230489838152e-07 -0.037934086131211776 0
-7.5874222927817284e-07 -0.038287384033592164 0
-7.5160406029248359e-07 -0.038650890328684843 0
-6.8625695763967328e-07 -0.039038879127575442 0
-7.0058365485782882e-07 -0.039459532132006168 0
-7.6770995501935691e-07 -0.039920296730393871 0
-6.9709599454933542e-07 -0.040426772859747287 0
-7.7960434492917153e-07 -0.040986604069577437 0
-8.7786347736979252e-07 -0.041606096303139946 0
-9.5041236276652669e-07 -0.042292763368532528 0
-8.7205632721525887e-07 -0.04305644219303649 0
-8.8043079444863944e-07 -0.043915236273603268 0
-8.2204625365598307e-07 -0.044889473746218711 0
-9.0326940803469805e-07 -0.046003545686501869 0
-9.2518788910762872e-07 -0.047286415103648741 0
-9.9641885484691425e-07 -0.048777776772502147 0
-1.0147058156047411e-06 -0.050532021474346808 0
-1.1409862296434199e-06 -0.05263193751678355 0
-1.138372985111007e-06 -0.055207436931979041 0
-1.3035384626490713e-06 -0.058485170882372414 0
-1.4500633114243435e-06 -0.062922645099378782 0
-1.5800844325670619e-06 -0.070083189295371995 0
-7.1249310949516334e-07 -0.036714871796853676 0
-7.7665974941555734e-07 -0.037203711609732973 0
-7.9674959294970122e-07 -0.037582879700892122 0
-8.3095513160912558e-07 -0.037945573422451272 0
-8.3976877848652643e-07 -0.038299527612011303 0
-9.2653900213090689e-07 -0.038663717081028351 0
-9.6566198684011595e-07 -0.039052122660947229 0
-9.8803852512638536e-07 -0.03947351965168025 0
-9.4820201974868141e-07 -0.039934780524592463 0
-9.0416325067711798e-07 -0.0404424693009761 0
-1.0677569241923586e-06 -0.041002994394157284 0
-1.0331926796103911e-06 -0.041623376394099659 0
-1.1758002884490223e-06 -0.042310841892246306 0
-1.2911710741264617e-06 -0.043076017730848078 0
-1.1004884804232332e-06 -0.043935747892470157 0
-1.2286429921698492e-06 -0.044911378918336735 0
-1.3069809982332562e-06 -0.046025559759525561 0
-1.2994126280541217e-06 -0.047309344261697514 0
-1.2381376196986523e-06 -0.048802438681572066 0
-1.3646404449188001e-06 -0.050558954540884729 0
-1.2834658019783777e-06 -0.052660590067434045 0
-1.3582020726971196e-06 -0.055238319432061776 0
-1.3416521558521096e-06 -0.058518347262169354 0
-1.2377406721441258e-06 -0.062958595038273307 0
-1.1454333809904448e-06 -0.070122072176556111 0
-5.8139189093764331e-07 -0.036719336304413382 0
-6.6524208052392002e-07 -0.03720863068036926 0
-7.1587714262282532e-07 -0.037588059915814466 0
-7.6415908242202277e-07 -0.037950773377997217 0
-7.6396355719098862e-07 -0.03830495956423418 0
-8.4412101435066443e-07 -0.038669203635402362 0
-9.2674636215275879e-07 -0.039057857002908543 0
-9.3116907719530529e-07 -0.039479484824710462 0
-8.9948262134058674e-07 -0.039940851752379929 0
-8.2640315838215094e-07 -0.040448502118836785 0
-7.6302154663200777e-07 -0.0410093771327808 0
-1.2168697137448853e-06 -0.041629539546130967 0
-1.1284567303827651e-06 -0.042317116053643744 0
-1.2211581098310988e-06 -0.043082484618629353 0
-1.0938495163929713e-06 -0.043942847306254987 0
-1.1103637179850296e-06 -0.044918724224999186 0
-1.0814047344764998e-06 -0.04603385360882075 0
-9.9572270444191555e-07 -0.047317555924498773 0
-9.9259429969474553e-07 -0.048810662349658855 0
-9.4783737501963391e-07 -0.050567734447019889 0
-9.2275091289383978e-07 -0.052670131644212914 0
-9.683923155468939e-07 -0.055248353975073237 0
-9.2374333824258687e-07 -0.05852947328625676 0
-8.0654319419443801e-07 -0.062972334496281562 0
-7.1211845586761538e-07 -0.07013515059370494 0
-1.4575641407185838e-07 -0.036720498514105047 0
-1.5865880792115339e-07 -0.037209755128770276 0
-1.9335981158913138e-07 -0.037589222414622224 0
-1.9729361256739186e-07 -0.037952104168530246 0
-2.0170373128535115e-07 -0.038306282457917895 0
-1.7728052896579561e-07 -0.038670613677638521 0
-2.2075873669441301e-07 -0.039059360318307208 0
-2.3696575611525238e-07 -0.039480986922783658 0
-2.7075600638401026e-07 -0.039942337665756465 0
-2.9308274484938249e-07 -0.040450085183273067 0
-2.5416862989618167e-07 -0.041010956782646178 0
-2.4148989186469232e-07 -0.041631297188318463 0
-3.7887799356182064e-07 -0.042319308043917987 0
-1.7430852251075247e-07 -0.043084351554714344 0
-3.1213067876360904e-07 -0.043944975008587905 0
-1.9679454737226432e-07 -0.044920570727894599 0
-8.9869452730379087e-08 -0.046035297350351036 0
-7.1337821686664423e-08 -0.047319442173220295 0
-1.0553663092850894e-07 -0.048812521871582665 0
-5.0733605620492906e-08 -0.050569460985305056 0
-3.3704828128514599e-08 -0.052671498861989047 0
2.4708646531294242e-08 -0.055249184672948599 0
2.2665526512474945e-08 -0.058528225916059523 0
7.1827544063882378e-08 -0.062971880927737645 0
4.9981719220214144e-08 -0.070136574321349274 0
2.7625654092840553e-08 -0.036719551249737907 0
9.3764961105965063e-09 -0.037208754475275385 0
1.7038047602969964e-08 -0.037588099377698143 0
5.53075535931217e-08 -0.037950805685009144 0
2.0553230303875627e-08 -0.038304905163429825 0
9.1721290180628278e-08 -0.038669351447748614 0
5.2932866641693518e-10 -0.039057735995876725 0
5.2806083523908261e-09 -0.03947944217393564 0
1.1020444790721933e-07 -0.039940644828717994 0
-6.4373041054132307e-08 -0.04044805846049445 0
-6.0533971140321336e-08 -0.041008913608808449 0
5.6837286672257056e-08 -0.041629166358164077 0
2.3911529657159277e-08 -0.042316949228156424 0
8.4044700445596604e-08 -0.043082108418435024 0
3.5477454439174897e-08 -0.043942464340270396 0
8.6351195312365101e-08 -0.044917927914705419 0
2.4187245723304934e-08 -0.04603247145809021 0
-1.9224756725787536e-08 -0.047316601783393045 0
-3.9544528979599502e-08 -0.04880956247530456 0
-2.0039594313147216e-09 -0.05056630653517924 0
3.4908340173633641e-08 -0.052668199559873626 0
7.4974620156699553e-08 -0.055245312909171937 0
9.0306220812780687e-08 -0.058523906412799025 0
8.4562988277150594e-08 -0.062967089872845328 0
8.0677812656526935e-08 -0.07013195336881102 0
2.5296742974606621e-07 -0.036715506719746459 0
2.7557109966471629e-07 -0.037204276157391906 0
2.7930053467716075e-07 -0.037583326770098034 0
3.0968313141582783e-07 -0.03794578494116975 0
3.3380432703579509e-07 -0.038299568254009944 0
3.8213923684322849e-07 -0.038663621099042228 0
2.9653487478894408e-07 -0.03905205562033736 0
4.1613708220358196e-07 -0.039473286227103582 0
4.4230271369179381e-07 -0.039934276497108831 0
4.9223435588722575e-07 -0.040441628305813715 0
4.3096765357373539e-07 -0.041001872149523368 0
5.5665341614000798e-07 -0.04162188724780963 0
5.1214892542220734e-07 -0.042309695992627926 0
4.5909239583379533e-07 -0.043074379721936527 0
4.9161290510606694e-07 -0.043934256290108907 0
3.8590845314330235e-07 -0.044909381426608525 0
3.6739704786249601e-07 -0.046023362412610916 0
4.5077645520807382e-07 -0.047307052132393612 0
4.7028561337948514e-07 -0.048799481981575493 0
4.154774621294501e-07 -0.050555532744409354 0
4.1847716404584715e-07 -0.052656882296991045 0
4.0401753437982089e-07 -0.055233866308627796 0
3.7483675644923867e-07 -0.058514328786982782 0
3.5796560529592056e-07 -0.062954012622648825 0
3.583402062175202e-07 -0.070117877786757293 0
7.2286534773737561e-07 -0.036705923180552415 0
7.9420717448127749e-07 -0.037193890018922038 0
8.2371943584135236e-07 -0.037572275342882808 0
8.747317167568372e-07 -0.037934185377531141 0
9.4944279352989511e-07 -0.038287337676390941 0
1.0066416896873153e-06 -0.038650732473971466 0
9.8206613311935177e-07 -0.03903861777248481 0
9.8729723022261187e-07 -0.039459288666869645 0
9.8981739906485492e-07 -0.039919616016621383 0
1.0511284007866385e-06 -0.040426291462364337 0
1.0862813198091699e-06 -0.040985870286342166 0
1.1496110173524439e-06 -0.041605082860410446 0
1.1245767790824442e-06 -0.042291589436438647 0
1.1882896626403413e-06 -0.043055182004709494 0
1.1933913439835504e-06 -0.043914112784497229 0
1.2189768602109089e-06 -0.044887728944170063 0
1.2060375305786556e-06 -0.046000030325216844 0
1.1385547093518197e-06 -0.04728272796585354 0
1.1320497688876457e-06 -0.048773685932248997 0
1.186049987552914e-06 -0.050527273394686704 0
1.1974950885820541e-06 -0.052626075646059665 0
1.1743344037407829e-06 -0.055200678043317422 0
1.1611515878333858e-06 -0.058483303749930896 0
1.1826211394085899e-06 -0.062918690007693567 0
1.1785260402550696e-06 -0.070078753283079567 0
1.3630489778473868e-06 -0.0366857782807858 0
1.4601468583635124e-06 -0.037171750150287806 0
1.5377971723279115e-06 -0.037548683961670673 0
1.5216328390531119e-06 -0.037909182731551118 0
1.5423292317701834e-06 -0.038261081223610043 0
1.6203975921768246e-06 -0.038623148210773429 0
1.5898774973735159e-06 -0.039009264157707897 0
1.5894698470250571e-06 -0.039428450286205709 0
1.7108722620498811e-06 -0.039887269186769631 0
1.644374652716214e-06 -0.040392190304836373 0
1.6211160563004653e-06 -0.04094999333914507 0
1.8226143237681548e-06 -0.041567365491007847 0
1.8183882843745615e-06 -0.042251581924683396 0
2.0529733217967295e-06 -0.04301227457963424 0
2.1441143177928666e-06 -0.043868457443154589 0
2.1836625416716568e-06 -0.044839241999919122 0
2.1485319107125074e-06 -0.045948341839908938 0
2.2789756487224165e-06 -0.047226658945433 0
2.291158609475373e-06 -0.048712987041364071 0
2.3476664619302626e-06 -0.050462105934308957 0
2.4147738991526841e-06 -0.052555538198050859 0
2.4767099552706958e-06 -0.055123617667722918 0
2.4995894105977491e-06 -0.058396806606902621 0
2.6414577786322101e-06 -0.062826537124687387 0
2.8458062145765408e-06 -0.069977133835037633 0
3.968945489278836e-06 -0.03664839221537064 0
4.2232204886682246e-06 -0.037130784042259085 0
4.4073239830517677e-06 -0.037504745439490797 0
4.5686830395597685e-06 -0.037862368525367583 0
4.7106192680024203e-06 -0.038211320655189132 0
4.8168005389747522e-06 -0.038570104273215999 0
4.9363127821741047e-06 -0.038952832159887672 0
4.9919407532188889e-06 -0.039368416145638067 0
5.0866597341819255e-06 -0.039823099534903726 0
5.1720799134345451e-06 -0.040323462827095667 0
5.2598690500081336e-06 -0.040875953391188803 0
5.2171689501846269e-06 -0.041487316397739664 0
5.3930552539611667e-06 -0.042165240249971543 0
5.4232421283107463e-06 -0.04291899409300045 0
5.5926765400751181e-06 -0.043766803441423842 0
5.7118057279539618e-06 -0.044727167083915879 0
5.8668334093693003e-06 -0.045825979126646536 0
6.0024038075666899e-06 -0.047092163482499103 0
6.1536342403909637e-06 -0.048564569781694378 0
6.3223566628415742e-06 -0.050298430965100831 0
6.5168557833823037e-06 -0.052374463812582366 0
6.7342430740851285e-06 -0.054922744207962303 0
6.9643883964778753e-06 -0.058171052189376245 0
7.2515860060499796e-06 -0.06257614989508517 0
7.5824950081847221e-06 -0.069695491517183294 0
1.1520248877055217e-05 -0.036576729435072744 0
1.2281877154416024e-05 -0.037054470164815813 0
1.2800093199070578e-05 -0.037424435531050231 0
1.331578056820177e-05 -0.037777568397181729 0
1.3688559388098212e-05 -0.038121855825604956 0
1.4005752875884322e-05 -0.038475883473818147 0
1.4263724198696695e-05 -0.038853129807779309 0
1.4574425368189163e-05 -0.039262257080007051 0
1.4765295021066025e-05 -0.039709425594406794 0
1.4955880248566298e-05 -0.040200771399340668 0
1.5208234485371642e-05 -0.040742415202954324 0
1.5075999261326266e-05 -0.041340706925980526 0
1.5292239840495959e-05 -0.042002707521465218 0
1.5559944500276324e-05 -0.042737921609769788 0
1.5803423905105961e-05 -0.043563505463665185 0
1.6001263912233702e-05 -0.044498529109156283 0
1.6215807758116996e-05 -0.045566177633830356 0
1.6294710774131436e-05 -0.046795897419921781 0
1.6507788292432181e-05 -0.04822656382630184 0
1.6636718830650756e-05 -0.04991176328662765 0
1.6821766699056226e-05 -0.051930788791166076 0
1.7042575440266191e-05 -0.054412691566629971 0
1.7357917340964085e-05 -0.057586213301737493 0
1.7527157906589561e-05 -0.061911391372311692 0
1.7682199386333728e-05 -0.068930139208814883 0
1.9783209998933695e-05 -0.036397362512646872 0
2.0807910214846744e-05 -0.036835907061928796 0
2.1539141400660771e-05 -0.037175823161739126 0
2.2193104890456647e-05 -0.037506038740667769 0
2.2782545672867145e-05 -0.037835417226171363 0
2.3324822412623949e-05 -0.038179137234653028 0
2.383224365630622e-05 -0.038547605844398619 0
2.4308225497336988e-05 -0.038947252949401129 0
2.4757268758362343e-05 -0.039383546703235101 0
2.5166560913738385e-05 -0.039862378056016876 0
2.5527144461440089e-05 -0.040389722047152972 0
2.5830784145395543e-05 -0.040971894198986669 0
2.6066162014097421e-05 -0.041615707840167923 0
2.6262560056546848e-05 -0.042329665180286934 0
2.6419015961566828e-05 -0.043130587779477175 0
2.6560414042988788e-05 -0.04403782564554868 0
2.6701415765403162e-05 -0.045074703226009774 0
2.6851937280174912e-05 -0.046269480746261631 0
2.7007222970902125e-05 -0.047662476599498946 0
2.7214366391142531e-05 -0.049305621068043308 0
2.7460816591394735e-05 -0.051281075730488672 0
2.7767519044306071e-05 -0.053720578836945004 0
2.8155268421289465e-05 -0.056849432640248471 0
2.8681011381794899e-05 -0.061109912115095678 0
2.9438282440261461e-05 -0.067844564327662921 0
-0 -0 0
-0 -0 0
-0 -0 0
-0 -0 0
-0 -0 0
-0 -0 0
1.9843083948776051e-05 0.035494402363744175 0
2.2940396120547392e-05 0.0381296423779207 0
2.6163009209173026e-05 0.043583473679789979 0
-0 -0 0
-0 -0 0
-0 -0 0
2.1443914571278801e-05 0.037187922043463932 0
2.3193431256936899e-05 0.038876093642805309 0
2.5653216514062558e-05 0.043869086609384718 0
-0 -0 0
-0 -0 0
-0 -0 0
1.6767778545055976e-05 0.037310717490281642 0
1.8512904680643114e-05 0.039011254936005546 0
2.0625838289710505e-05 0.044025077321773125 0
-0 -0 0
-0 -0 0
-0 -0 0
8.6832391330280644e-06 0.037449181702251366 0
9.6862400387364666e-06 0.039168989312063862 0
1.0977236925942537e-05 0.044263590310344658 0
-0 -0 0
-0 -0 0
-0 -0 0
3.1210964832665292e-06 0.037510237904059197 0
3.5576434036656748e-06 0.039248605431622147 0
4.1909594884995307e-06 0.044406077384756146 0
-0 -0 0
-0 -0 0
-0 -0 0
1.1154312872417386e-06 0.037543190863914909 0
1.2477504204901022e-06 0.03929076701378717 0
1.5199619667785386e-06 0.044474676103027806 0
-0 -0 0
-0 -0 0
-0 -0 0
7.8024027128599594e-07 0.037559676893485619 0
8.8792170629545766e-07 0.039311418791275997 0
1.0779434905815428e-06 0.044505201823129538 0
-0 -0 0
-0 -0 0
-0 -0 0
7.8705768213774457e-07 0.037567508788913843 0
9.3100509495351527e-07 0.039320805795371346 0
1.0826126291509171e-06 0.044517796007134368 0
-0 -0 0
-0 -0 0
-0 -0 0
4.4213565485844838e-07 0.037570663644659476 0
5.0892031472924233e-07 0.039324335671621344 0
5.1051277103778156e-07 0.044522049529485651 0
-0 -0 0
-0 -0 0
-0 -0 0
6.8598307286199455e-08 0.037570738335484063 0
5.2665382078488281e-08 0.039324288787253858 0
-2.1539496704617302e-08 0.044521788485105858 0
-0 -0 0
-0 -0 0
-0 -0 0
-1.6681186686217076e-07 0.03756787219147141 0
-2.1843467009492267e-07 0.039320732987421753 0
-2.6829343962022713e-07 0.044516915732782186 0
-0 -0 0
-0 -0 0
-0 -0 0
-5.693915842259026e-07 0.03756010801505455 0
-6.6210476084751829e-07 0.039311357108258532 0
-7.6507414214147133e-07 0.04450384386361874 0
-0 -0 0
-0 -0 0
-0 -0 0
-1.1745416044420333e-06 0.037543119378241764 0
-1.3313697998491911e-06 0.039290505255969756 0
-1.5845302655052406e-06 0.044473470467542235 0
-0 -0 0
-0 -0 0
-0 -0 0
-2.9547012725964423e-06 0.037510068076319507 0
-3.3478127154965722e-06 0.039248373286748413 0
-3.9181767117793744e-06 0.044405445634831071 0
-0 -0 0
-0 -0 0
-0 -0 0
-8.4956662088405329e-06 0.03744931733605162 0
-9.4557021328254358e-06 0.039169085989671129 0
-1.0680918104918275e-05 0.044263610473949298 0
-0 -0 0
-0 -0 0
-0 -0 0
-1.6674384623944398e-05 0.037310886929349946 0
-1.8398887896988113e-05 0.039011486455993033 0
-2.0463493442419842e-05 0.044025492482324555 0
-0 -0 0
-0 -0 0
-0 -0 0
-2.129657446246617e-05 0.037188047965861802 0
-2.3025570433051645e-05 0.038876273951913759 0
-2.5423229773412069e-05 0.043869599722239999 0
-0 -0 0
-0 -0 0
-0 -0 0
-1.9703010530046789e-05 0.035494243660823335 0
-2.2778710380891058e-05 0.038129641745072544 0
-2.5929168994173116e-05 0.043584048924813351 0
-0 -0 0
-0 -0 0
-0 -0 0
-0 -0 0
-0 -0 0
-0 -0 0
-0 -0 0
-0 -0 0
-0 -0 0
-0 -0 0
-0 -0 0
-0 -0 0
-0 -0 0
-0 -0 0
-0 -0 0
-0 -0 0
-0 -0 0
-0 -0 0
-0 -0 0
-0 -0 0
-0 -0 0
-0 -0 0
-0 -0 0
-0 -0 0
-0 -0 0
-0 -0 0
-0 -0 0
-0 -0 0
-0 -0 0
-0 -0 0
-0 -0 0
-0 -0 0
-0 -0 0
-0 -0 0
-0 -0 0
-0 -0 0
-0 -0 0
-0 -0 0
-0 -0 0
-0 -0 0
-0 -0 0
-0 -0 0
-0 -0 0
-0 -0 0
-0 -0 0
-0 -0 0
-0 -0 0
-0 -0 0
-0 -0 0
-0 -0 0
-0 -0 0
-0 -0 0
-0 -0 0
-0 -0 0
-0 -0 0
-0 -0 0
-0 -0 0
-0 -0 0
-0 -0 0
-0 -0 0
-0 -0 0
-0 -0 0
-0 -0 0
-0 -0 0
-0 -0 0
-0 -0 0
-0 -0 0
-0 -0 0
-0 -0 0
-0 -0 0
-0 -0 0
-0 -0 0
-0 -0 0
-0 -0 0
-0 -0 0
-0 -0 0
-0 -0 0
-0 -0 0
-0 -0 0
-0 -0 0
-0 -0 0
-0 -0 0
-0 -0 0
-0 -0 0
-0 -0 0
-0 -0 0
-0 -0 0
-0 -0 0
-0 -0 0
-0 -0 0
-0 -0 0
-0 -0 0
-0 -0 0
-0 -0 0
-0 -0 0
-0 -0 0
-0 -0 0
-0 -0 0
-0 -0 0
-0 -0 0
-0 -0 0
-0 -0 0
-0 -0 0
-0 -0 0
-0 -0 0
-0 -0 0
-0 -0 0
-0 -0 0
-0 -0 0
-0 -0 0
-0 -0 0
-0 -0 0
-0 -0 0
-0 -0 0
-0 -0 0
-0 -0 0
-0 -0 0
-0 -0 0
-0 -0 0
-0 -0 0
-0 -0 0
-0 -0 0
-0 -0 0
-0 -0 0
-0 -0 0
-0 -0 0
-0 -0 0
-0 -0 0
-0 -0 0
-0 -0 0
-0 -0 0
-0 -0 0
-0 -0 0
-0 -0 0
-0 -0 0
-0 -0 0
-0 -0 0
-0 -0 0
-0 -0 0
-0 -0 0
-0 -0 0
-0 -0 0
-0 -0 0
-0 -0 0
-0 -0 0
-0 -0 0
-0 -0 0
-0 -0 0
-0 -0 0
-0 -0 0
-0 -0 0
-0 -0 0
-0 -0 0
-0 -0 0
-0 -0 0
-0 -0 0
-0 -0 0
-0 -0 0
-0 -0 0
-0 -0 0
-0 -0 0
-0 -0 0
-0 -0 0
-0 -0 0
-0 -0 0
-0 -0 0
-0 -0 0
-0 -0 0
-0 -0 0
-0 -0 0
-0 -0 0
-0 -0 0
-0 -0 0
-0 -0 0
-0 -0 0
-0 -0 0
-0 -0 0
-0 -0 0
-0 -0 0
-0 -0 0
-0 -0 0
-0 -0 0
-0 -0 0
-0 -0 0
-0 -0 0
-0 -0 0
-0 -0 0
-0 -0 0
-0 -0 0
-0 -0 0
-0 -0 0
-0 -0 0
-0 -0 0
-0 -0 0
-0 -0 0
