# vtk DataFile Version 3.0
SPH particles (WCSPH) - legacy PolyData
ASCII
DATASET POLYDATA
POINTS 681 float
0.049992201025100491 0.026244009093042441 0
0.049990968989207192 0.028840824572763255 0
0.049989990729883839 0.030902921140419308 0
0.049989061793965048 0.032967422290007299 0
0.049988233702043548 0.035015543981512555 0
0.049987495341681253 0.037044568803670422 0
0.049986857127932785 0.039061964719975688 0
0.049986129345541391 0.041079425546159586 0
0.049985213151614867 0.043110530038288679 0
0.049983911248036673 0.045170866648190519 0
0.049981827218557436 0.047278144871116735 0
0.049979242141086268 0.049452494662566175 0
0.049978124817476467 0.051717251959065118 0
0.049979315412724268 0.054100221934260118 0
0.049981708221737378 0.056635403691581834 0
0.049984662853677558 0.059366460593134517 0
0.049987683919918494 0.062353112080754169 0
0.049990640331090609 0.065701326929552564 0
0.049993358501891141 0.069567213675829492 0
0.049995751134057513 0.074265401166580133 0
0.049997781779877494 0.080829647508057142 0
0.049999321190992638 0.093441741995607203 0
0.049999911513320387 0.11535771912656914 0
0.049999995222995017 0.1421026626496277 0
0.050000000000000003 0.19757612957974913 0
0.069995958086345816 0.024763895305333603 0
0.069995246889842044 0.02766842782827825 0
0.069994648918900865 0.03001138702832876 0
0.069994101635801387 0.032301138514219563 0
0.069993607293198909 0.03453422226874827 0
0.069993117638618485 0.03671987260139338 0
0.069992624262758735 0.038874293651171697 0
0.069992114116300602 0.041015685957114308 0
0.069991518361937261 0.043162032348671317 0
0.069990616880563197 0.045332212478411932 0
0.069988955447213577 0.047546543329326035 0
0.069986337361967174 0.049827318313159827 0
0.069984727405729058 0.052199789435329415 0
0.069985009148653368 0.054694065337348545 0
0.069986589316218067 0.05734731873978352 0
0.069988798028235877 0.060205526986219976 0
0.069991102030577845 0.063328436516754696 0
0.069993403273670318 0.066820013035066239 0
0.069995391612673222 0.070840887934062707 0
0.06999705559131339 0.075704100705928992 0
0.069998433870626001 0.082284557633749256 0
0.069999459894025368 0.094236225697081386 0
0.069999919976324862 0.11570644959584404 0
0.069999995225042216 0.14242213824311056 0
0.070000000000000007 0.19665482209862042 0
0.089998478562902634 0.024711163227029032 0
0.089998167789792166 0.027623347187171736 0
0.089997953825786459 0.029974054601089543 0
0.089997681736795981 0.032275231122759283 0
0.089997412382980535 0.034522388591214662 0
0.089997189973226477 0.036724116842611655 0
0.089996755697054925 0.038896558085409406 0
0.089996554101758011 0.041057772757385397 0
0.089996265368495143 0.043225902549193451 0
0.089995938336392134 0.045420019930912131 0
0.089995579049741842 0.047660667541887566 0
0.089994865510852937 0.049970479030465448 0
0.08999401768237647 0.052374935768408432 0
0.089993676198880782 0.054904493904577946 0
0.08999421819865111 0.057597119570570968 0
0.089995128214536813 0.060501667908778603 0
0.089996157629713344 0.06367955231401827 0
0.089997128871883575 0.067221397507409214 0
0.089997993732730402 0.071290061421296028 0
0.089998710300023474 0.076193911193928113 0
0.08999931571057386 0.082777267119753278 0
0.08999977122678568 0.09459299326341597 0
0.089999963341870437 0.11594502977585054 0
0.089999997011603675 0.14265696269438699 0
0.090000000000000011 0.19612766111047369 0
0.10999953248373831 0.024734692268218651 0
0.10999936512685714 0.027649174371451576 0
0.1099992521574451 0.030002201213167885 0
0.10999911983876756 0.032306197961182927 0
0.109998993846031 0.034556680491867567 0
0.10999899411775738 0.036762224460950246 0
0.10999903572866716 0.038939035584131719 0
0.10999894621918702 0.041105132982351321 0
0.10999889084061699 0.043278680485944895 0
0.10999879951996212 0.045478908015684071 0
0.10999860770817789 0.047726499219540322 0
0.10999885487442687 0.050044202389491588 0
0.10999828009685994 0.052457558630903081 0
0.10999779096444792 0.054997226946609662 0
0.10999784663239634 0.05770124829687158 0
0.10999813227109013 0.060618753923864781 0
0.10999845017518604 0.063812913454609488 0
0.10999888240071989 0.067370178425680091 0
0.10999920194231153 0.071454235768601923 0
0.10999948432623635 0.076371802488703969 0
0.10999972697583696 0.082964493931797806 0
0.10999990977485756 0.094757925809101348 0
0.10999998423407094 0.11608698770978236 0
0.10999999851350722 0.14280817685657149 0
0.11000000000000001 0.19580034527719459 0
0.12999993604861201 0.024749458359886158 0
0.12999992231581708 0.027665892772896526 0
0.1299999119124812 0.030020450023658791 0
0.1299999080996018 0.032325978703629535 0
0.12999996735533229 0.034577993407766933 0
0.13000003271899122 0.036785150335481347 0
0.13000009057025408 0.038963719911445129 0
0.13000013463310717 0.041131630294367817 0
0.13000020707536872 0.043307181180019888 0
0.13000033527831839 0.045509587492426694 0
0.13000041063916534 0.047759589738360683 0
0.1300002718253063 0.050079983263927777 0
0.12999997453072987 0.052496526997974358 0
0.12999969908875036 0.05503959228910453 0
0.12999950641285624 0.057747536437534074 0
0.12999942422932612 0.060669372678483505 0
0.1299995159825092 0.063868253723010859 0
0.12999963654614094 0.067430559044369093 0
0.12999974083948088 0.071520059653465071 0
0.12999982964004553 0.076443248089402505 0
0.12999990798232733 0.083041921533019966 0
0.12999996557077262 0.094837347866254057 0
0.12999999382321176 0.11616931587172072 0
0.12999999935292131 0.1428990732657143 0
0.13 0.19561314022373441 0
0.15000018558386027 0.024756387723859755 0
0.1500002186605707 0.027673815897951759 0
0.15000026224682278 0.030029170045283236 0
0.15000031630509014 0.032335471327633147 0
0.15000048730658713 0.034588238599763274 0
0.15000053247651521 0.036796114551116775 0
0.15000053430033769 0.038975406334433686 0
0.15000056312486715 0.041144125888377119 0
0.15000061423806907 0.043320508437088075 0
0.15000067566856964 0.045523809324921255 0
0.15000075832246662 0.047774821895643631 0
0.15000062963677988 0.050096285295430844 0
0.15000058464389954 0.052514097991902819 0
0.15000036901415972 0.055058625096005759 0
0.15000017515845154 0.057768088126101139 0
0.15000002776354623 0.060691625699683158 0
0.1499999763577004 0.063892355741097445 0
0.14999997990950628 0.067456676512691674 0
0.14999999308901782 0.071548509288461043 0
0.14999999595542654 0.076474342179959215 0
0.14999998464588141 0.083076203881035204 0
0.14999998987378207 0.094876318374030336 0
0.14999999804842454 0.11621462818618251 0
0.14999999976602818 0.14294965562047982 0
0.15000000000000002 0.19551527832613549 0
0.17000029974086328 0.024759379563187588 0
0.17000036955372691 0.027677242479345023 0
0.17000040443908479 0.030032925060912898 0
0.17000052452536507 0.032339512369956205 0
0.1700006036677619 0.034592540671314377 0
0.17000073597775214 0.036800752001675242 0
0.17000092611531295 0.038980417116285984 0
0.17000098266724045 0.041149459548532809 0
0.17000101765377634 0.043326176002170529 0
0.17000105068525276 0.045529833769119725 0
0.17000104756079118 0.047781266300536647 0
0.17000094097752519 0.050103223098961473 0
0.170000933255571 0.052521530341993417 0
0.17000091641751192 0.055066507088124786 0
0.17000046836539731 0.057776618222889056 0
0.1700003228856001 0.060700884683854164 0
0.17000021719587 0.063902404007347993 0
0.17000015951828024 0.067467574579064077 0
0.17000012097237269 0.071560389118160775 0
0.1700000830704595 0.076487395201432801 0
0.17000003515194217 0.083090884096591267 0
0.17000001043799348 0.094894276451557569 0
0.17000000113233696 0.11623682585162141 0
0.16999999998440346 0.14297440303568429 0
0.17000000000000004 0.19547041595609979 0
0.19000020928648856 0.024760214721855415 0
0.19000024173395583 0.027678163561856081 0
0.19000037673501979 0.030033992556472454 0
0.19000042062124428 0.03234064030077282 0
0.190000510410824 0.034593727026901284 0
0.19000071120134757 0.036802078381801023 0
0.19000090342521886 0.038981756430107727 0
0.19000087528116738 0.041150818439947195 0
0.19000092603803972 0.043327617101779355 0
0.19000095052799826 0.04553141742813157 0
0.19000081107595806 0.047782951273469536 0
0.19000087180191089 0.050105103997795976 0
0.19000059069671582 0.052523542408793908 0
0.19000050441259991 0.055068756066891177 0
0.19000045102489041 0.057779013211238413 0
0.1900002669534949 0.060703437585829481 0
0.1900002287663024 0.06390517796647166 0
0.19000021554677718 0.067470601541524663 0
0.19000014970332868 0.071563686388739722 0
0.19000017431106783 0.076491030609639493 0
0.19000011180524728 0.083094998184755922 0
0.19000004119837002 0.094899486462286659 0
0.19000000257530891 0.11624342733461426 0
0.19000000009832776 0.14298174085141072 0
0.19 0.19545769350140565 0
0.21000027436797827 0.024759396687412779 0
0.21000034777814203 0.027677237138966138 0
0.21000039784949559 0.030032913645838242 0
0.21000045400701611 0.032339525403160638 0
0.21000055029363515 0.034592569103430892 0
0.21000057276943224 0.036800800661562195 0
0.2100006623387202 0.038980444209375971 0
0.21000068658252802 0.041149491393992238 0
0.21000073737247243 0.043326233459931002 0
0.21000076611102672 0.04552994548849925 0
0.21000073282950285 0.047781384000610244 0
0.21000068676396189 0.050103344652475248 0
0.21000052003433925 0.052521606285310718 0
0.21000036692126345 0.055066624789571479 0
0.21000034773097426 0.05777674246102997 0
0.21000025296180735 0.060700963741361157 0
0.21000020827881388 0.063902490074658369 0
0.210000251784832 0.067467657123015057 0
0.21000010101502103 0.071560468695288953 0
0.21000006871072208 0.076487495647527798 0
0.2100000323420034 0.083090954802740022 0
0.21000001504216076 0.094894313758985813 0
0.21000000198979391 0.11623682803120677 0
0.21000000016922191 0.14297440309042642 0
0.21000000000000002 0.19547041595609979 0
0.2300003395100981 0.024756437384117706 0
0.23000040759036039 0.027673882386436078 0
0.2300004801411141 0.030029255832840249 0
0.23000054924198557 0.032335504520959839 0
0.23000066370020097 0.034588301740649453 0
0.23000074570875448 0.036796196928841673 0
0.23000083446144917 0.03897552098001069 0
0.23000086571207284 0.041144230322913602 0
0.23000096304386294 0.04332061694152254 0
0.23000102385156934 0.045523926313204212 0
0.23000103558868557 0.047774960356597874 0
0.23000088317329023 0.050096506126044812 0
0.23000071907567041 0.052514314518565204 0
0.2300006250920896 0.055058765330908935 0
0.23000060761603788 0.057768208097028997 0
0.2300005264611899 0.060691760702328131 0
0.23000041744116881 0.063892515007740389 0
0.23000030778679831 0.067456842043558923 0
0.23000025298765267 0.071548641112601952 0
0.23000016993670305 0.076474472223630491 0
0.2300000895694902 0.083076320769598672 0
0.23000002764978514 0.094876367705849021 0
0.23000000394873912 0.11621463109402105 0
0.23000000035069593 0.14294965568457668 0
0.23000000000000004 0.19551527832613555 0
0.25000047571594003 0.024749471977394796 0
0.25000057744213966 0.027665915325382862 0
0.25000065044007036 0.030020527797012527 0
0.25000077193907749 0.032326100750490749 0
0.2500008729000201 0.034578118568520631 0
0.25000097290601658 0.036785284943915697 0
0.25000101085290738 0.038963882183034114 0
0.25000115616717089 0.041131816088432957 0
0.25000123646962891 0.043307370463949134 0
0.25000134320792 0.045509764331885708 0
0.25000139481801281 0.047759789362535866 0
0.25000131273012405 0.050080200060298674 0
0.25000115889650604 0.052496802477302748 0
0.25000130494181061 0.055039811864339434 0
0.25000117646627007 0.057747752579415425 0
0.2500010726381206 0.06066962253602786 0
0.25000087691730516 0.06386852172407341 0
0.25000064880506528 0.067430796430087619 0
0.25000046906040241 0.071520258255452468 0
0.2500003051606618 0.07644342632640698 0
0.25000016389012392 0.08304207816228909 0
0.25000005279552584 0.094837411185119472 0
0.25000000828866092 0.1161693185216254 0
0.25000000077673412 0.14289907325109705 0
0.25000000000000006 0.19561314022373441 0
0.27000073588470502 0.024734708317622065 0
0.27000089878774008 0.027649210838259299 0
0.27000102128859083 0.030002252100883919 0
0.27000116316273998 0.03230627924759813 0
0.27000143557471251 0.034556815088225445 0
0.27000158500411325 0.036762395597574805 0
0.27000173477435568 0.038939298707192503 0
0.27000190753221759 0.04110539575311184 0
0.27000210433393917 0.043278959983506629 0
0.27000229371353407 0.045479179354624054 0
0.27000248380204661 0.047726765463413888 0
0.27000255026579373 0.050044434098710226 0
0.27000292819995181 0.052457855233069499 0
0.27000286135485124 0.054997473279793062 0
0.2700026652391706 0.057701518653818125 0
0.27000228544808719 0.060619054894463391 0
0.2700018169348587 0.063813272878356531 0
0.27000135686237831 0.067370506179725995 0
0.27000096282678948 0.071454490806239945 0
0.27000063317739392 0.076372016873462262 0
0.27000034427533914 0.082964653622562362 0
0.27000011757880349 0.094757983726614037 0
0.27000001925808542 0.11608698666832096 0
0.27000000166052912 0.14280817658789152 0
0.27000000000000002 0.19580034527719453 0
0.29000170622822175 0.024711217401993456 0
0.29000204597091289 0.027623377884267036 0
0.29000231131318027 0.029974113875690194 0
0.29000258231677756 0.032275315129643656 0
0.29000285657994646 0.034522454195837535 0
0.29000317520083913 0.036724215730500699 0
0.29000349176921097 0.03889680457135173 0
0.29000385571964199 0.041058076733559233 0
0.29000426894744391 0.043226216776773366 0
0.29000472826129908 0.045420330444772672 0
0.29000525999635818 0.047660998106805817 0
0.29000584749985686 0.049970781285053209 0
0.29000645318655016 0.052375235854960393 0
0.29000658580522998 0.054904742963544306 0
0.29000605933224832 0.057597374962027395 0
0.29000518852157187 0.060501932648528454 0
0.29000413470914482 0.063679867457751851 0
0.29000311712949534 0.067221706303424902 0
0.29000219686292983 0.071290329506698127 0
0.29000141786629285 0.07619409954558358 0
0.29000076407440534 0.082777388813632238 0
0.29000026356146386 0.094593007899055101 0
0.29000004161489695 0.11594501794392469 0
0.29000000316408303 0.14265696194729804 0
0.29000000000000004 0.19612766111047364 0
0.31000425556196642 0.024764009813102464 0
0.31000499440129503 0.027668567747997887 0
0.31000554313942624 0.030011507000411178 0
0.31000606818913945 0.032301344543747043 0
0.31000658038086581 0.034534431701284098 0
0.31000710928371905 0.036720034377484653 0
0.31000764316343399 0.038874553602372575 0
0.31000816677729398 0.041015939572618988 0
0.3100088219097798 0.043162243262048552 0
0.31000970731687238 0.045332391813321722 0
0.3100114511685958 0.047546700676122391 0
0.3100140774749322 0.049827490288967165 0
0.31001553498357459 0.052200008444712696 0
0.31001506436802584 0.054694276909512132 0
0.31001354776839823 0.05734751231004967 0
0.31001145226274157 0.06020571587285968 0
0.3100091231179965 0.063328640780641834 0
0.31000683331300954 0.066820221011546124 0
0.31000479957513033 0.070841066195474187 0
0.31000306770733688 0.075704226758331675 0
0.31000164455263263 0.082284590585128728 0
0.31000056917235275 0.094236145087704781 0
0.31000008216341535 0.11570642228195729 0
0.3100000048006003 0.14242213701267803 0
0.31000000000000005 0.19665482209862042 0
0.330007565802516 0.026244310549861809 0
0.33000874376702843 0.02884111482899911 0
0.33000966817657845 0.030903195731573047 0
0.33001053343360442 0.03296767074573053 0
0.33001129247935923 0.035015758212878542 0
0.33001197939553689 0.037044737886171901 0
0.33001263401463776 0.039062095672114827 0
0.33001333302166952 0.041079514739269365 0
0.33001410456981878 0.043110570598842983 0
0.33001521050129673 0.045170862803751162 0
0.33001717486858873 0.047278102410533145 0
0.33001974544223189 0.049452438350514938 0
0.33002076830242427 0.051717181183501285 0
0.33001954260013111 0.054100102124798141 0
0.33001727942631953 0.056635255673279407 0
0.33001448428367836 0.059366279074987253 0
0.33001149250274886 0.062352903850323264 0
0.33000858816472595 0.065701065811551856 0
0.33000598361100741 0.06956690396414969 0
0.33000374675742761 0.07426505352419796 0
0.33000191651913025 0.080829247288771444 0
0.33000060658159469 0.093441503477577695 0
0.330000083041535 0.11535768578950953 0
0.33000000463831963 0.14210266144137615 0
0.33000000000000002 0.19757612957974902 0
0 0 0
0 0.020000000000000004 0
0 0.040000000000000001 0
0 0.54999999999999993 0
0 0.56000000000000005 0
0 0.58000000000000007 0
0.02 0 0
0.02 0.020000000000000004 0
0.02 0.040000000000000001 0
0.02 0.54999999999999993 0
0.02 0.56000000000000005 0
0.02 0.58000000000000007 0
0.040000000000000001 0 0
0.040000000000000001 0.020000000000000004 0
0.040000000000000001 0.040000000000000001 0
0.040000000000000001 0.54999999999999993 0
0.040000000000000001 0.56000000000000005 0
0.040000000000000001 0.58000000000000007 0
0.059999999999999998 0 0
0.059999999999999998 0.020000000000000004 0
0.059999999999999998 0.040000000000000001 0
0.059999999999999998 0.54999999999999993 0
0.059999999999999998 0.56000000000000005 0
0.059999999999999998 0.58000000000000007 0
0.080000000000000002 0 0
0.080000000000000002 0.020000000000000004 0
0.080000000000000002 0.040000000000000001 0
0.080000000000000002 0.54999999999999993 0
0.080000000000000002 0.56000000000000005 0
0.080000000000000002 0.58000000000000007 0
0.10000000000000001 0 0
0.10000000000000001 0.020000000000000004 0
0.10000000000000001 0.040000000000000001 0
0.10000000000000001 0.54999999999999993 0
0.10000000000000001 0.56000000000000005 0
0.10000000000000001 0.58000000000000007 0
0.12 0 0
0.12 0.020000000000000004 0
0.12 0.040000000000000001 0
0.12 0.54999999999999993 0
0.12 0.56000000000000005 0
0.12 0.58000000000000007 0
0.14000000000000001 0 0
0.14000000000000001 0.020000000000000004 0
0.14000000000000001 0.040000000000000001 0
0.14000000000000001 0.54999999999999993 0
0.14000000000000001 0.56000000000000005 0
0.14000000000000001 0.58000000000000007 0
0.16 0 0
0.16 0.020000000000000004 0
0.16 0.040000000000000001 0
0.16 0.54999999999999993 0
0.16 0.56000000000000005 0
0.16 0.58000000000000007 0
0.17999999999999999 0 0
0.17999999999999999 0.020000000000000004 0
0.17999999999999999 0.040000000000000001 0
0.17999999999999999 0.54999999999999993 0
0.17999999999999999 0.56000000000000005 0
0.17999999999999999 0.58000000000000007 0
0.20000000000000001 0 0
0.20000000000000001 0.020000000000000004 0
0.20000000000000001 0.040000000000000001 0
0.20000000000000001 0.54999999999999993 0
0.20000000000000001 0.56000000000000005 0
0.20000000000000001 0.58000000000000007 0
0.22 0 0
0.22 0.020000000000000004 0
0.22 0.040000000000000001 0
0.22 0.54999999999999993 0
0.22 0.56000000000000005 0
0.22 0.58000000000000007 0
0.23999999999999999 0 0
0.23999999999999999 0.020000000000000004 0
0.23999999999999999 0.040000000000000001 0
0.23999999999999999 0.54999999999999993 0
0.23999999999999999 0.56000000000000005 0
0.23999999999999999 0.58000000000000007 0
0.26000000000000001 0 0
0.26000000000000001 0.020000000000000004 0
0.26000000000000001 0.040000000000000001 0
0.26000000000000001 0.54999999999999993 0
0.26000000000000001 0.56000000000000005 0
0.26000000000000001 0.58000000000000007 0
0.28000000000000003 0 0
0.28000000000000003 0.020000000000000004 0
0.28000000000000003 0.040000000000000001 0
0.28000000000000003 0.54999999999999993 0
0.28000000000000003 0.56000000000000005 0
0.28000000000000003 0.58000000000000007 0
0.29999999999999999 0 0
0.29999999999999999 0.020000000000000004 0
0.29999999999999999 0.040000000000000001 0
0.29999999999999999 0.54999999999999993 0
0.29999999999999999 0.56000000000000005 0
0.29999999999999999 0.58000000000000007 0
0.32000000000000001 0 0
0.32000000000000001 0.020000000000000004 0
0.32000000000000001 0.040000000000000001 0
0.32000000000000001 0.54999999999999993 0
0.32000000000000001 0.56000000000000005 0
0.32000000000000001 0.58000000000000007 0
0.34000000000000002 0 0
0.34000000000000002 0.020000000000000004 0
0.34000000000000002 0.040000000000000001 0
0.34000000000000002 0.54999999999999993 0
0.34000000000000002 0.56000000000000005 0
0.34000000000000002 0.58000000000000007 0
0.35999999999999999 0 0
0.35999999999999999 0.020000000000000004 0
0.35999999999999999 0.040000000000000001 0
0.35999999999999999 0.54999999999999993 0
0.35999999999999999 0.56000000000000005 0
0.35999999999999999 0.58000000000000007 0
0.38 0 0
0.38 0.020000000000000004 0
0.38 0.040000000000000001 0
0.38 0.54999999999999993 0
0.38 0.56000000000000005 0
0.38 0.58000000000000007 0
0.40000000000000002 0 0
0.40000000000000002 0.020000000000000004 0
0.40000000000000002 0.040000000000000001 0
0.40000000000000002 0.54999999999999993 0
0.40000000000000002 0.56000000000000005 0
0.40000000000000002 0.58000000000000007 0
0.41999999999999998 0 0
0.41999999999999998 0.020000000000000004 0
0.41999999999999998 0.040000000000000001 0
0.41999999999999998 0.54999999999999993 0
0.41999999999999998 0.56000000000000005 0
0.41999999999999998 0.58000000000000007 0
0.44 0 0
0.44 0.020000000000000004 0
0.44 0.040000000000000001 0
0.44 0.54999999999999993 0
0.44 0.56000000000000005 0
0.44 0.58000000000000007 0
0.46000000000000002 0 0
0.46000000000000002 0.020000000000000004 0
0.46000000000000002 0.040000000000000001 0
0.46000000000000002 0.54999999999999993 0
0.46000000000000002 0.56000000000000005 0
0.46000000000000002 0.58000000000000007 0
0.47999999999999998 0 0
0.47999999999999998 0.020000000000000004 0
0.47999999999999998 0.040000000000000001 0
0.47999999999999998 0.54999999999999993 0
0.47999999999999998 0.56000000000000005 0
0.47999999999999998 0.58000000000000007 0
0.5 0 0
0.5 0.020000000000000004 0
0.5 0.040000000000000001 0
0.5 0.54999999999999993 0
0.5 0.56000000000000005 0
0.5 0.58000000000000007 0
0.52000000000000002 0 0
0.52000000000000002 0.020000000000000004 0
0.52000000000000002 0.040000000000000001 0
0.52000000000000002 0.54999999999999993 0
0.52000000000000002 0.56000000000000005 0
0.52000000000000002 0.58000000000000007 0
0.54000000000000004 0 0
0.54000000000000004 0.020000000000000004 0
0.54000000000000004 0.040000000000000001 0
0.54000000000000004 0.54999999999999993 0
0.54000000000000004 0.56000000000000005 0
0.54000000000000004 0.58000000000000007 0
0.56000000000000005 0 0
0.56000000000000005 0.020000000000000004 0
0.56000000000000005 0.040000000000000001 0
0.56000000000000005 0.54999999999999993 0
0.56000000000000005 0.56000000000000005 0
0.56000000000000005 0.58000000000000007 0
0.57999999999999996 0 0
0.57999999999999996 0.020000000000000004 0
0.57999999999999996 0.040000000000000001 0
0.57999999999999996 0.54999999999999993 0
0.57999999999999996 0.56000000000000005 0
0.57999999999999996 0.58000000000000007 0
0.59999999999999998 0 0
0.59999999999999998 0.020000000000000004 0
0.59999999999999998 0.040000000000000001 0
0.59999999999999998 0.54999999999999993 0
0.59999999999999998 0.56000000000000005 0
0.59999999999999998 0.58000000000000007 0
0.62 0 0
0.62 0.020000000000000004 0
0.62 0.040000000000000001 0
0.62 0.54999999999999993 0
0.62 0.56000000000000005 0
0.62 0.58000000000000007 0
0.64000000000000001 0 0
0.64000000000000001 0.020000000000000004 0
0.64000000000000001 0.040000000000000001 0
0.64000000000000001 0.54999999999999993 0
0.64000000000000001 0.56000000000000005 0
0.64000000000000001 0.58000000000000007 0
0.66000000000000003 0 0
0.66000000000000003 0.020000000000000004 0
0.66000000000000003 0.040000000000000001 0
0.66000000000000003 0.54999999999999993 0
0.66000000000000003 0.56000000000000005 0
0.66000000000000003 0.58000000000000007 0
0.68000000000000005 0 0
0.68000000000000005 0.020000000000000004 0
0.68000000000000005 0.040000000000000001 0
0.68000000000000005 0.54999999999999993 0
0.68000000000000005 0.56000000000000005 0
0.68000000000000005 0.58000000000000007 0
0.70000000000000007 0 0
0.70000000000000007 0.020000000000000004 0
0.70000000000000007 0.040000000000000001 0
0.70000000000000007 0.54999999999999993 0
0.70000000000000007 0.56000000000000005 0
0.70000000000000007 0.58000000000000007 0
0.71999999999999997 0 0
0.71999999999999997 0.020000000000000004 0
0.71999999999999997 0.040000000000000001 0
0.71999999999999997 0.54999999999999993 0
0.71999999999999997 0.56000000000000005 0
0.71999999999999997 0.58000000000000007 0
0.73999999999999999 0 0
0.73999999999999999 0.020000000000000004 0
0.73999999999999999 0.040000000000000001 0
0.73999999999999999 0.54999999999999993 0
0.73999999999999999 0.56000000000000005 0
0.73999999999999999 0.58000000000000007 0
0.76000000000000001 0 0
0.76000000000000001 0.020000000000000004 0
0.76000000000000001 0.040000000000000001 0
0.76000000000000001 0.54999999999999993 0
0.76000000000000001 0.56000000000000005 0
0.76000000000000001 0.58000000000000007 0
0.78000000000000003 0 0
0.78000000000000003 0.020000000000000004 0
0.78000000000000003 0.040000000000000001 0
0.78000000000000003 0.54999999999999993 0
0.78000000000000003 0.56000000000000005 0
0.78000000000000003 0.58000000000000007 0
0.80000000000000004 0 0
0.80000000000000004 0.020000000000000004 0
0.80000000000000004 0.040000000000000001 0
0.80000000000000004 0.54999999999999993 0
0.80000000000000004 0.56000000000000005 0
0.80000000000000004 0.58000000000000007 0
0.82000000000000006 0 0
0.82000000000000006 0.020000000000000004 0
0.82000000000000006 0.040000000000000001 0
0.82000000000000006 0.54999999999999993 0
0.82000000000000006 0.56000000000000005 0
0.82000000000000006 0.58000000000000007 0
0.83999999999999997 0 0
0.83999999999999997 0.020000000000000004 0
0.83999999999999997 0.040000000000000001 0
0.83999999999999997 0.54999999999999993 0
0.83999999999999997 0.56000000000000005 0
0.83999999999999997 0.58000000000000007 0
0.85999999999999999 0 0
0.85999999999999999 0.020000000000000004 0
0.85999999999999999 0.040000000000000001 0
0.85999999999999999 0.54999999999999993 0
0.85999999999999999 0.56000000000000005 0
0.85999999999999999 0.58000000000000007 0
0.88 0 0
0.88 0.020000000000000004 0
0.88 0.040000000000000001 0
0.88 0.54999999999999993 0
0.88 0.56000000000000005 0
0.88 0.58000000000000007 0
0.90000000000000002 0 0
0.90000000000000002 0.020000000000000004 0
0.90000000000000002 0.040000000000000001 0
0.90000000000000002 0.54999999999999993 0
0.90000000000000002 0.56000000000000005 0
0.90000000000000002 0.58000000000000007 0
0.92000000000000004 0 0
0.92000000000000004 0.020000000000000004 0
0.92000000000000004 0.040000000000000001 0
0.92000000000000004 0.54999999999999993 0
0.92000000000000004 0.56000000000000005 0
0.92000000000000004 0.58000000000000007 0
0.94000000000000006 0 0
0.94000000000000006 0.020000000000000004 0
0.94000000000000006 0.040000000000000001 0
0.94000000000000006 0.54999999999999993 0
0.94000000000000006 0.56000000000000005 0
0.94000000000000006 0.58000000000000007 0
0.95999999999999996 0 0
0.95999999999999996 0.020000000000000004 0
0.95999999999999996 0.040000000000000001 0
0.95999999999999996 0.54999999999999993 0
0.95999999999999996 0.56000000000000005 0
0.95999999999999996 0.58000000000000007 0
0.97999999999999998 0 0
0.97999999999999998 0.020000000000000004 0
0.97999999999999998 0.040000000000000001 0
0.97999999999999998 0.54999999999999993 0
0.97999999999999998 0.56000000000000005 0
0.97999999999999998 0.58000000000000007 0
1 0 0
1 0.020000000000000004 0
1 0.040000000000000001 0
1 0.54999999999999993 0
1 0.56000000000000005 0
1 0.58000000000000007 0
VERTICES 681 1362
1 0
1 1
1 2
1 3
1 4
1 5
1 6
1 7
1 8
1 9
1 10
1 11
1 12
1 13
1 14
1 15
1 16
1 17
1 18
1 19
1 20
1 21
1 22
1 23
1 24
1 25
1 26
1 27
1 28
1 29
1 30
1 31
1 32
1 33
1 34
1 35
1 36
1 37
1 38
1 39
1 40
1 41
1 42
1 43
1 44
1 45
1 46
1 47
1 48
1 49
1 50
1 51
1 52
1 53
1 54
1 55
1 56
1 57
1 58
1 59
1 60
1 61
1 62
1 63
1 64
1 65
1 66
1 67
1 68
1 69
1 70
1 71
1 72
1 73
1 74
1 75
1 76
1 77
1 78
1 79
1 80
1 81
1 82
1 83
1 84
1 85
1 86
1 87
1 88
1 89
1 90
1 91
1 92
1 93
1 94
1 95
1 96
1 97
1 98
1 99
1 100
1 101
1 102
1 103
1 104
1 105
1 106
1 107
1 108
1 109
1 110
1 111
1 112
1 113
1 114
1 115
1 116
1 117
1 118
1 119
1 120
1 121
1 122
1 123
1 124
1 125
1 126
1 127
1 128
1 129
1 130
1 131
1 132
1 133
1 134
1 135
1 136
1 137
1 138
1 139
1 140
1 141
1 142
1 143
1 144
1 145
1 146
1 147
1 148
1 149
1 150
1 151
1 152
1 153
1 154
1 155
1 156
1 157
1 158
1 159
1 160
1 161
1 162
1 163
1 164
1 165
1 166
1 167
1 168
1 169
1 170
1 171
1 172
1 173
1 174
1 175
1 176
1 177
1 178
1 179
1 180
1 181
1 182
1 183
1 184
1 185
1 186
1 187
1 188
1 189
1 190
1 191
1 192
1 193
1 194
1 195
1 196
1 197
1 198
1 199
1 200
1 201
1 202
1 203
1 204
1 205
1 206
1 207
1 208
1 209
1 210
1 211
1 212
1 213
1 214
1 215
1 216
1 217
1 218
1 219
1 220
1 221
1 222
1 223
1 224
1 225
1 226
1 227
1 228
1 229
1 230
1 231
1 232
1 233
1 234
1 235
1 236
1 237
1 238
1 239
1 240
1 241
1 242
1 243
1 244
1 245
1 246
1 247
1 248
1 249
1 250
1 251
1 252
1 253
1 254
1 255
1 256
1 257
1 258
1 259
1 260
1 261
1 262
1 263
1 264
1 265
1 266
1 267
1 268
1 269
1 270
1 271
1 272
1 273
1 274
1 275
1 276
1 277
1 278
1 279
1 280
1 281
1 282
1 283
1 284
1 285
1 286
1 287
1 288
1 289
1 290
1 291
1 292
1 293
1 294
1 295
1 296
1 297
1 298
1 299
1 300
1 301
1 302
1 303
1 304
1 305
1 306
1 307
1 308
1 309
1 310
1 311
1 312
1 313
1 314
1 315
1 316
1 317
1 318
1 319
1 320
1 321
1 322
1 323
1 324
1 325
1 326
1 327
1 328
1 329
1 330
1 331
1 332
1 333
1 334
1 335
1 336
1 337
1 338
1 339
1 340
1 341
1 342
1 343
1 344
1 345
1 346
1 347
1 348
1 349
1 350
1 351
1 352
1 353
1 354
1 355
1 356
1 357
1 358
1 359
1 360
1 361
1 362
1 363
1 364
1 365
1 366
1 367
1 368
1 369
1 370
1 371
1 372
1 373
1 374
1 375
1 376
1 377
1 378
1 379
1 380
1 381
1 382
1 383
1 384
1 385
1 386
1 387
1 388
1 389
1 390
1 391
1 392
1 393
1 394
1 395
1 396
1 397
1 398
1 399
1 400
1 401
1 402
1 403
1 404
1 405
1 406
1 407
1 408
1 409
1 410
1 411
1 412
1 413
1 414
1 415
1 416
1 417
1 418
1 419
1 420
1 421
1 422
1 423
1 424
1 425
1 426
1 427
1 428
1 429
1 430
1 431
1 432
1 433
1 434
1 435
1 436
1 437
1 438
1 439
1 440
1 441
1 442
1 443
1 444
1 445
1 446
1 447
1 448
1 449
1 450
1 451
1 452
1 453
1 454
1 455
1 456
1 457
1 458
1 459
1 460
1 461
1 462
1 463
1 464
1 465
1 466
1 467
1 468
1 469
1 470
1 471
1 472
1 473
1 474
1 475
1 476
1 477
1 478
1 479
1 480
1 481
1 482
1 483
1 484
1 485
1 486
1 487
1 488
1 489
1 490
1 491
1 492
1 493
1 494
1 495
1 496
1 497
1 498
1 499
1 500
1 501
1 502
1 503
1 504
1 505
1 506
1 507
1 508
1 509
1 510
1 511
1 512
1 513
1 514
1 515
1 516
1 517
1 518
1 519
1 520
1 521
1 522
1 523
1 524
1 525
1 526
1 527
1 528
1 529
1 530
1 531
1 532
1 533
1 534
1 535
1 536
1 537
1 538
1 539
1 540
1 541
1 542
1 543
1 544
1 545
1 546
1 547
1 548
1 549
1 550
1 551
1 552
1 553
1 554
1 555
1 556
1 557
1 558
1 559
1 560
1 561
1 562
1 563
1 564
1 565
1 566
1 567
1 568
1 569
1 570
1 571
1 572
1 573
1 574
1 575
1 576
1 577
1 578
1 579
1 580
1 581
1 582
1 583
1 584
1 585
1 586
1 587
1 588
1 589
1 590
1 591
1 592
1 593
1 594
1 595
1 596
1 597
1 598
1 599
1 600
1 601
1 602
1 603
1 604
1 605
1 606
1 607
1 608
1 609
1 610
1 611
1 612
1 613
1 614
1 615
1 616
1 617
1 618
1 619
1 620
1 621
1 622
1 623
1 624
1 625
1 626
1 627
1 628
1 629
1 630
1 631
1 632
1 633
1 634
1 635
1 636
1 637
1 638
1 639
1 640
1 641
1 642
1 643
1 644
1 645
1 646
1 647
1 648
1 649
1 650
1 651
1 652
1 653
1 654
1 655
1 656
1 657
1 658
1 659
1 660
1 661
1 662
1 663
1 664
1 665
1 666
1 667
1 668
1 669
1 670
1 671
1 672
1 673
1 674
1 675
1 676
1 677
1 678
1 679
1 680
POINT_DATA 681
SCALARS is_boundary int 1
LOOKUP_TABLE default
0
0
0
0
0
0
0
0
0
0
0
0
0
0
0
0
0
0
0
0
0
0
0
0
0
0
0
0
0
0
0
0
0
0
0
0
0
0
0
0
0
0
0
0
0
0
0
0
0
0
0
0
0
0
0
0
0
0
0
0
0
0
0
0
0
0
0
0
0
0
0
0
0
0
0
0
0
0
0
0
0
0
0
0
0
0
0
0
0
0
0
0
0
0
0
0
0
0
0
0
0
0
0
0
0
0
0
0
0
0
0
0
0
0
0
0
0
0
0
0
0
0
0
0
0
0
0
0
0
0
0
0
0
0
0
0
0
0
0
0
0
0
0
0
0
0
0
0
0
0
0
0
0
0
0
0
0
0
0
0
0
0
0
0
0
0
0
0
0
0
0
0
0
0
0
0
0
0
0
0
0
0
0
0
0
0
0
0
0
0
0
0
0
0
0
0
0
0
0
0
0
0
0
0
0
0
0
0
0
0
0
0
0
0
0
0
0
0
0
0
0
0
0
0
0
0
0
0
0
0
0
0
0
0
0
0
0
0
0
0
0
0
0
0
0
0
0
0
0
0
0
0
0
0
0
0
0
0
0
0
0
0
0
0
0
0
0
0
0
0
0
0
0
0
0
0
0
0
0
0
0
0
0
0
0
0
0
0
0
0
0
0
0
0
0
0
0
0
0
0
0
0
0
0
0
0
0
0
0
0
0
0
0
0
0
0
0
0
0
0
0
0
0
0
0
0
0
0
0
0
0
0
0
0
0
0
0
0
0
0
0
0
0
0
0
0
0
0
0
0
0
0
0
0
0
0
0
0
0
0
0
0
0
0
0
0
0
0
0
0
0
0
0
0
0
1
1
1
1
1
1
1
1
1
1
1
1
1
1
1
1
1
1
1
1
1
1
1
1
1
1
1
1
1
1
1
1
1
1
1
1
1
1
1
1
1
1
1
1
1
1
1
1
1
1
1
1
1
1
1
1
1
1
1
1
1
1
1
1
1
1
1
1
1
1
1
1
1
1
1
1
1
1
1
1
1
1
1
1
1
1
1
1
1
1
1
1
1
1
1
1
1
1
1
1
1
1
1
1
1
1
1
1
1
1
1
1
1
1
1
1
1
1
1
1
1
1
1
1
1
1
1
1
1
1
1
1
1
1
1
1
1
1
1
1
1
1
1
1
1
1
1
1
1
1
1
1
1
1
1
1
1
1
1
1
1
1
1
1
1
1
1
1
1
1
1
1
1
1
1
1
1
1
1
1
1
1
1
1
1
1
1
1
1
1
1
1
1
1
1
1
1
1
1
1
1
1
1
1
1
1
1
1
1
1
1
1
1
1
1
1
1
1
1
1
1
1
1
1
1
1
1
1
1
1
1
1
1
1
1
1
1
1
1
1
1
1
1
1
1
1
1
1
1
1
1
1
1
1
1
1
1
1
1
1
1
1
1
1
1
1
1
1
1
1
1
1
1
1
1
1
1
1
1
1
1
1
1
1
1
1
1
1
1
1
1
1
1
1
1
1
1
1
1
1
1
1
1
1
1
1
SCALARS rho float 1
LOOKUP_TABLE default
1020
1020
1020
1020
1020
1020
1020
1020
1020
1020
1020
1020
1020
1020
1020
1020
1020
1020
1020
1020
1020
880
850
850
850
1020
1020
1020
1020
1020
1020
1020
1020
1020
1020
1020
1020
1020
1020
1020
1020
1020
1020
1020
1020
1020
1020
865.23045950256596
850
850
1020
1020
1020
1020
1020
1020
1020
1020
1020
1020
1020
1020
1020
1020
1020
1020
1020
1020
1020
1020
1020
1020
868.93821702809782
850
850
1020
1020
1020
1020
1020
1020
1020
1020
1020
1020
1020
1020
1020
1020
1020
1020
1020
1020
1020
1020
1020
1020
869.62370856815107
850
850
1020
1020
1020
1020
1020
1020
1020
1020
1020
1020
1020
1020
1020
1020
1020
1020
1020
1020
1020
1020
1020
1020
869.61590136588859
850
850
1020
1020
1020
1020
1020
1020
1020
1020
1020
1020
1020
1020
1020
1020
1020
1020
1020
1020
1020
1020
1020
1020
869.4932946679105
850
850
1020
1020
1020
1020
1020
1020
1020
1020
1020
1020
1020
1020
1020
1020
1020
1020
1020
1020
1020
1020
1020
1020
869.40525074885147
850
850
1020
1020
1020
1020
1020
1020
1020
1020
1020
1020
1020
1020
1020
1020
1020
1020
1020
1020
1020
1020
1020
1020
869.37617391705589
850
850
1020
1020
1020
1020
1020
1020
1020
1020
1020
1020
1020
1020
1020
1020
1020
1020
1020
1020
1020
1020
1020
1020
869.40611495505357
850
850
1020
1020
1020
1020
1020
1020
1020
1020
1020
1020
1020
1020
1020
1020
1020
1020
1020
1020
1020
1020
1020
1020
869.49433473049521
850
850
1020
1020
1020
1020
1020
1020
1020
1020
1020
1020
1020
1020
1020
1020
1020
1020
1020
1020
1020
1020
1020
1020
869.61713398670088
850
850
1020
1020
1020
1020
1020
1020
1020
1020
1020
1020
1020
1020
1020
1020
1020
1020
1020
1020
1020
1020
1020
1020
869.6248516710973
850
850
1020
1020
1020
1020
1020
1020
1020
1020
1020
1020
1020
1020
1020
1020
1020
1020
1020
1020
1020
1020
1020
1020
868.93881058992349
850
850
1020
1020
1020
1020
1020
1020
1020
1020
1020
1020
1020
1020
1020
1020
1020
1020
1020
1020
1020
1020
1020
1020
865.22998488288908
850
850
1020
1020
1020
1020
1020
1020
1020
1020
1020
1020
1020
1020
1020
1020
1020
1020
1020
1020
1020
1020
1020
880
850
850
850
1000
1000
1000
1000
1000
1000
1000
1000
1000
1000
1000
1000
1000
1000
1000
1000
1000
1000
1000
1000
1000
1000
1000
1000
1000
1000
1000
1000
1000
1000
1000
1000
1000
1000
1000
1000
1000
1000
1000
1000
1000
1000
1000
1000
1000
1000
1000
1000
1000
1000
1000
1000
1000
1000
1000
1000
1000
1000
1000
1000
1000
1000
1000
1000
1000
1000
1000
1000
1000
1000
1000
1000
1000
1000
1000
1000
1000
1000
1000
1000
1000
1000
1000
1000
1000
1000
1000
1000
1000
1000
1000
1000
1000
1000
1000
1000
1000
1000
1000
1000
1000
1000
1000
1000
1000
1000
1000
1000
1000
1000
1000
1000
1000
1000
1000
1000
1000
1000
1000
1000
1000
1000
1000
1000
1000
1000
1000
1000
1000
1000
1000
1000
1000
1000
1000
1000
1000
1000
1000
1000
1000
1000
1000
1000
1000
1000
1000
1000
1000
1000
1000
1000
1000
1000
1000
1000
1000
1000
1000
1000
1000
1000
1000
1000
1000
1000
1000
1000
1000
1000
1000
1000
1000
1000
1000
1000
1000
1000
1000
1000
1000
1000
1000
1000
1000
1000
1000
1000
1000
1000
1000
1000
1000
1000
1000
1000
1000
1000
1000
1000
1000
1000
1000
1000
1000
1000
1000
1000
1000
1000
1000
1000
1000
1000
1000
1000
1000
1000
1000
1000
1000
1000
1000
1000
1000
1000
1000
1000
1000
1000
1000
1000
1000
1000
1000
1000
1000
1000
1000
1000
1000
1000
1000
1000
1000
1000
1000
1000
1000
1000
1000
1000
1000
1000
1000
1000
1000
1000
1000
1000
1000
1000
1000
1000
1000
1000
1000
1000
1000
1000
1000
1000
1000
1000
1000
1000
1000
1000
1000
1000
1000
1000
1000
1000
1000
1000
1000
1000
1000
1000
1000
1000
1000
1000
1000
1000
1000
1000
1000
1000
1000
1000
1000
1000
1000
1000
SCALARS p float 1
LOOKUP_TABLE default
25004.681136676067
25004.681136676067
25004.681136676067
25004.681136676067
25004.681136676067
25004.681136676067
25004.681136676067
25004.681136676067
25004.681136676067
25004.681136676067
25004.681136676067
25004.681136676067
25004.681136676067
25004.681136676067
25004.681136676067
25004.681136676067
25004.681136676067
25004.681136676067
25004.681136676067
25004.681136676067
25004.681136676067
0
0
0
0
25004.681136676067
25004.681136676067
25004.681136676067
25004.681136676067
25004.681136676067
25004.681136676067
25004.681136676067
25004.681136676067
25004.681136676067
25004.681136676067
25004.681136676067
25004.681136676067
25004.681136676067
25004.681136676067
25004.681136676067
25004.681136676067
25004.681136676067
25004.681136676067
25004.681136676067
25004.681136676067
25004.681136676067
25004.681136676067
0
0
0
25004.681136676067
25004.681136676067
25004.681136676067
25004.681136676067
25004.681136676067
25004.681136676067
25004.681136676067
25004.681136676067
25004.681136676067
25004.681136676067
25004.681136676067
25004.681136676067
25004.681136676067
25004.681136676067
25004.681136676067
25004.681136676067
25004.681136676067
25004.681136676067
25004.681136676067
25004.681136676067
25004.681136676067
25004.681136676067
0
0
0
25004.681136676067
25004.681136676067
25004.681136676067
25004.681136676067
25004.681136676067
25004.681136676067
25004.681136676067
25004.681136676067
25004.681136676067
25004.681136676067
25004.681136676067
25004.681136676067
25004.681136676067
25004.681136676067
25004.681136676067
25004.681136676067
25004.681136676067
25004.681136676067
25004.681136676067
25004.681136676067
25004.681136676067
25004.681136676067
0
0
0
25004.681136676067
25004.681136676067
25004.681136676067
25004.681136676067
25004.681136676067
25004.681136676067
25004.681136676067
25004.681136676067
25004.681136676067
25004.681136676067
25004.681136676067
25004.681136676067
25004.681136676067
25004.681136676067
25004.681136676067
25004.681136676067
25004.681136676067
25004.681136676067
25004.681136676067
25004.681136676067
25004.681136676067
25004.681136676067
0
0
0
25004.681136676067
25004.681136676067
25004.681136676067
25004.681136676067
25004.681136676067
25004.681136676067
25004.681136676067
25004.681136676067
25004.681136676067
25004.681136676067
25004.681136676067
25004.681136676067
25004.681136676067
25004.681136676067
25004.681136676067
25004.681136676067
25004.681136676067
25004.681136676067
25004.681136676067
25004.681136676067
25004.681136676067
25004.681136676067
0
0
0
25004.681136676067
25004.681136676067
25004.681136676067
25004.681136676067
25004.681136676067
25004.681136676067
25004.681136676067
25004.681136676067
25004.681136676067
25004.681136676067
25004.681136676067
25004.681136676067
25004.681136676067
25004.681136676067
25004.681136676067
25004.681136676067
25004.681136676067
25004.681136676067
25004.681136676067
25004.681136676067
25004.681136676067
25004.681136676067
0
0
0
25004.681136676067
25004.681136676067
25004.681136676067
25004.681136676067
25004.681136676067
25004.681136676067
25004.681136676067
25004.681136676067
25004.681136676067
25004.681136676067
25004.681136676067
25004.681136676067
25004.681136676067
25004.681136676067
25004.681136676067
25004.681136676067
25004.681136676067
25004.681136676067
25004.681136676067
25004.681136676067
25004.681136676067
25004.681136676067
0
0
0
25004.681136676067
25004.681136676067
25004.681136676067
25004.681136676067
25004.681136676067
25004.681136676067
25004.681136676067
25004.681136676067
25004.681136676067
25004.681136676067
25004.681136676067
25004.681136676067
25004.681136676067
25004.681136676067
25004.681136676067
25004.681136676067
25004.681136676067
25004.681136676067
25004.681136676067
25004.681136676067
25004.681136676067
25004.681136676067
0
0
0
25004.681136676067
25004.681136676067
25004.681136676067
25004.681136676067
25004.681136676067
25004.681136676067
25004.681136676067
25004.681136676067
25004.681136676067
25004.681136676067
25004.681136676067
25004.681136676067
25004.681136676067
25004.681136676067
25004.681136676067
25004.681136676067
25004.681136676067
25004.681136676067
25004.681136676067
25004.681136676067
25004.681136676067
25004.681136676067
0
0
0
25004.681136676067
25004.681136676067
25004.681136676067
25004.681136676067
25004.681136676067
25004.681136676067
25004.681136676067
25004.681136676067
25004.681136676067
25004.681136676067
25004.681136676067
25004.681136676067
25004.681136676067
25004.681136676067
25004.681136676067
25004.681136676067
25004.681136676067
25004.681136676067
25004.681136676067
25004.681136676067
25004.681136676067
25004.681136676067
0
0
0
25004.681136676067
25004.681136676067
25004.681136676067
25004.681136676067
25004.681136676067
25004.681136676067
25004.681136676067
25004.681136676067
25004.681136676067
25004.681136676067
25004.681136676067
25004.681136676067
25004.681136676067
25004.681136676067
25004.681136676067
25004.681136676067
25004.681136676067
25004.681136676067
25004.681136676067
25004.681136676067
25004.681136676067
25004.681136676067
0
0
0
25004.681136676067
25004.681136676067
25004.681136676067
25004.681136676067
25004.681136676067
25004.681136676067
25004.681136676067
25004.681136676067
25004.681136676067
25004.681136676067
25004.681136676067
25004.681136676067
25004.681136676067
25004.681136676067
25004.681136676067
25004.681136676067
25004.681136676067
25004.681136676067
25004.681136676067
25004.681136676067
25004.681136676067
25004.681136676067
0
0
0
25004.681136676067
25004.681136676067
25004.681136676067
25004.681136676067
25004.681136676067
25004.681136676067
25004.681136676067
25004.681136676067
25004.681136676067
25004.681136676067
25004.681136676067
25004.681136676067
25004.681136676067
25004.681136676067
25004.681136676067
25004.681136676067
25004.681136676067
25004.681136676067
25004.681136676067
25004.681136676067
25004.681136676067
25004.681136676067
0
0
0
25004.681136676067
25004.681136676067
25004.681136676067
25004.681136676067
25004.681136676067
25004.681136676067
25004.681136676067
25004.681136676067
25004.681136676067
25004.681136676067
25004.681136676067
25004.681136676067
25004.681136676067
25004.681136676067
25004.681136676067
25004.681136676067
25004.681136676067
25004.681136676067
25004.681136676067
25004.681136676067
25004.681136676067
0
0
0
0
0
0
0
0
0
0
23275.806444601167
24981.370680494379
24996.396657210626
0
0
0
24977.429630787439
25003.040923893252
25004.007001851827
0
0
0
24992.306001458834
25003.841179733474
25004.324422266225
0
0
0
24993.581037864056
25003.880682809195
25004.332717507019
0
0
0
24993.639569575575
25003.880316985931
25004.330729939949
0
0
0
24993.592992421149
25003.878442257173
25004.330133669871
0
0
0
24993.563940985903
25003.877347768554
25004.329896857475
0
0
0
24993.55040836574
25003.876837905682
25004.329795593629
0
0
0
24993.545271150913
25003.87664853342
25004.329760812281
0
0
0
24993.545210855424
25003.876646516117
25004.329760494355
0
0
0
24993.550357085434
25003.876836938685
25004.329796135004
0
0
0
24993.563887059354
25003.877348198319
25004.329898216558
0
0
0
24993.592973623112
25003.878444066373
25004.330136872319
0
0
0
24993.639473152201
25003.880313838861
25004.330732574286
0
0
0
24993.580831298397
25003.880678824924
25004.332721321756
0
0
0
24992.305726224589
25003.841186085047
25004.324432702146
0
0
0
24977.427529740347
25003.040871092438
25004.006987273569
0
0
0
23275.374944646108
24981.368026139229
24996.395564204802
0
0
0
0
0
0
0
0
0
0
0
0
0
0
0
0
0
0
0
0
0
0
0
0
0
0
0
0
0
0
0
0
0
0
0
0
0
0
0
0
0
0
0
0
0
0
0
0
0
0
0
0
0
0
0
0
0
0
0
0
0
0
0
0
0
0
0
0
0
0
0
0
0
0
0
0
0
0
0
0
0
0
0
0
0
0
0
0
0
0
0
0
0
0
0
0
0
0
0
0
0
0
0
0
0
0
0
0
0
0
0
0
0
0
0
0
0
0
0
0
0
0
0
0
0
0
0
0
0
0
0
0
0
0
0
0
0
0
0
0
0
0
0
0
0
0
0
0
0
0
0
0
0
0
0
0
0
0
0
0
0
0
0
0
0
0
0
0
0
0
0
0
0
0
0
0
0
0
0
0
0
0
0
0
0
0
0
0
0
0
0
0
0
0
0
SCALARS m float 1
LOOKUP_TABLE default
0.39942306611962441
0.39942306611962441
0.39942306611962441
0.39942306611962441
0.39942306611962441
0.39942306611962441
0.39942306611962441
0.39942306611962441
0.39942306611962441
0.39942306611962441
0.39942306611962441
0.39942306611962441
0.39942306611962441
0.39942306611962441
0.39942306611962441
0.39942306611962441
0.39942306611962441
0.39942306611962441
0.39942306611962441
0.39942306611962441
0.39942306611962441
0.39942306611962441
0.39942306611962441
0.39942306611962441
0.39942306611962441
0.39942306611962441
0.39942306611962441
0.39942306611962441
0.39942306611962441
0.39942306611962441
0.39942306611962441
0.39942306611962441
0.39942306611962441
0.39942306611962441
0.39942306611962441
0.39942306611962441
0.39942306611962441
0.39942306611962441
0.39942306611962441
0.39942306611962441
0.39942306611962441
0.39942306611962441
0.39942306611962441
0.39942306611962441
0.39942306611962441
0.39942306611962441
0.39942306611962441
0.39942306611962441
0.39942306611962441
0.39942306611962441
0.39942306611962441
0.39942306611962441
0.39942306611962441
0.39942306611962441
0.39942306611962441
0.39942306611962441
0.39942306611962441
0.39942306611962441
0.39942306611962441
0.39942306611962441
0.39942306611962441
0.39942306611962441
0.39942306611962441
0.39942306611962441
0.39942306611962441
0.39942306611962441
0.39942306611962441
0.39942306611962441
0.39942306611962441
0.39942306611962441
0.39942306611962441
0.39942306611962441
0.39942306611962441
0.39942306611962441
0.39942306611962441
0.39942306611962441
0.39942306611962441
0.39942306611962441
0.39942306611962441
0.39942306611962441
0.39942306611962441
0.39942306611962441
0.39942306611962441
0.39942306611962441
0.39942306611962441
0.39942306611962441
0.39942306611962441
0.39942306611962441
0.39942306611962441
0.39942306611962441
0.39942306611962441
0.39942306611962441
0.39942306611962441
0.39942306611962441
0.39942306611962441
0.39942306611962441
0.39942306611962441
0.39942306611962441
0.39942306611962441
0.39942306611962441
0.39942306611962441
0.39942306611962441
0.39942306611962441
0.39942306611962441
0.39942306611962441
0.39942306611962441
0.39942306611962441
0.39942306611962441
0.39942306611962441
0.39942306611962441
0.39942306611962441
0.39942306611962441
0.39942306611962441
0.39942306611962441
0.39942306611962441
0.39942306611962441
0.39942306611962441
0.39942306611962441
0.39942306611962441
0.39942306611962441
0.39942306611962441
0.39942306611962441
0.39942306611962441
0.39942306611962441
0.39942306611962441
0.39942306611962441
0.39942306611962441
0.39942306611962441
0.39942306611962441
0.39942306611962441
0.39942306611962441
0.39942306611962441
0.39942306611962441
0.39942306611962441
0.39942306611962441
0.39942306611962441
0.39942306611962441
0.39942306611962441
0.39942306611962441
0.39942306611962441
0.39942306611962441
0.39942306611962441
0.39942306611962441
0.39942306611962441
0.39942306611962441
0.39942306611962441
0.39942306611962441
0.39942306611962441
0.39942306611962441
0.39942306611962441
0.39942306611962441
0.39942306611962441
0.39942306611962441
0.39942306611962441
0.39942306611962441
0.39942306611962441
0.39942306611962441
0.39942306611962441
0.39942306611962441
0.39942306611962441
0.39942306611962441
0.39942306611962441
0.39942306611962441
0.39942306611962441
0.39942306611962441
0.39942306611962441
0.39942306611962441
0.39942306611962441
0.39942306611962441
0.39942306611962441
0.39942306611962441
0.39942306611962441
0.39942306611962441
0.39942306611962441
0.39942306611962441
0.39942306611962441
0.39942306611962441
0.39942306611962441
0.39942306611962441
0.39942306611962441
0.39942306611962441
0.39942306611962441
0.39942306611962441
0.39942306611962441
0.39942306611962441
0.39942306611962441
0.39942306611962441
0.39942306611962441
0.39942306611962441
0.39942306611962441
0.39942306611962441
0.39942306611962441
0.39942306611962441
0.39942306611962441
0.39942306611962441
0.39942306611962441
0.39942306611962441
0.39942306611962441
0.39942306611962441
0.39942306611962441
0.39942306611962441
0.39942306611962441
0.39942306611962441
0.39942306611962441
0.39942306611962441
0.39942306611962441
0.39942306611962441
0.39942306611962441
0.39942306611962441
0.39942306611962441
0.39942306611962441
0.39942306611962441
0.39942306611962441
0.39942306611962441
0.39942306611962441
0.39942306611962441
0.39942306611962441
0.39942306611962441
0.39942306611962441
0.39942306611962441
0.39942306611962441
0.39942306611962441
0.39942306611962441
0.39942306611962441
0.39942306611962441
0.39942306611962441
0.39942306611962441
0.39942306611962441
0.39942306611962441
0.39942306611962441
0.39942306611962441
0.39942306611962441
0.39942306611962441
0.39942306611962441
0.39942306611962441
0.39942306611962441
0.39942306611962441
0.39942306611962441
0.39942306611962441
0.39942306611962441
0.39942306611962441
0.39942306611962441
0.39942306611962441
0.39942306611962441
0.39942306611962441
0.39942306611962441
0.39942306611962441
0.39942306611962441
0.39942306611962441
0.39942306611962441
0.39942306611962441
0.39942306611962441
0.39942306611962441
0.39942306611962441
0.39942306611962441
0.39942306611962441
0.39942306611962441
0.39942306611962441
0.39942306611962441
0.39942306611962441
0.39942306611962441
0.39942306611962441
0.39942306611962441
0.39942306611962441
0.39942306611962441
0.39942306611962441
0.39942306611962441
0.39942306611962441
0.39942306611962441
0.39942306611962441
0.39942306611962441
0.39942306611962441
0.39942306611962441
0.39942306611962441
0.39942306611962441
0.39942306611962441
0.39942306611962441
0.39942306611962441
0.39942306611962441
0.39942306611962441
0.39942306611962441
0.39942306611962441
0.39942306611962441
0.39942306611962441
0.39942306611962441
0.39942306611962441
0.39942306611962441
0.39942306611962441
0.39942306611962441
0.39942306611962441
0.39942306611962441
0.39942306611962441
0.39942306611962441
0.39942306611962441
0.39942306611962441
0.39942306611962441
0.39942306611962441
0.39942306611962441
0.39942306611962441
0.39942306611962441
0.39942306611962441
0.39942306611962441
0.39942306611962441
0.39942306611962441
0.39942306611962441
0.39942306611962441
0.39942306611962441
0.39942306611962441
0.39942306611962441
0.39942306611962441
0.39942306611962441
0.39942306611962441
0.39942306611962441
0.39942306611962441
0.39942306611962441
0.39942306611962441
0.39942306611962441
0.39942306611962441
0.39942306611962441
0.39942306611962441
0.39942306611962441
0.39942306611962441
0.39942306611962441
0.39942306611962441
0.39942306611962441
0.39942306611962441
0.39942306611962441
0.39942306611962441
0.39942306611962441
0.39942306611962441
0.39942306611962441
0.39942306611962441
0.39942306611962441
0.39942306611962441
0.39942306611962441
0.39942306611962441
0.39942306611962441
0.39942306611962441
0.39942306611962441
0.39942306611962441
0.39942306611962441
0.39942306611962441
0.39942306611962441
0.39942306611962441
0.39942306611962441
0.39942306611962441
0.39942306611962441
0.39942306611962441
0.39942306611962441
0.39942306611962441
0.39942306611962441
0.39942306611962441
0.39942306611962441
0.39942306611962441
0.39942306611962441
0.39942306611962441
0.39942306611962441
0.39942306611962441
0.39942306611962441
0.39942306611962441
0.39942306611962441
0.39942306611962441
0.39942306611962441
0.39942306611962441
0.39942306611962441
0.39942306611962441
0.39942306611962441
0.39942306611962441
0.39942306611962441
0.39942306611962441
0.39942306611962441
0.39942306611962441
0.39942306611962441
0.39942306611962441
0.39942306611962441
0.39942306611962441
0.39942306611962441
0.39942306611962441
0.39942306611962441
0.39942306611962441
0.39942306611962441
0.39942306611962441
0.39942306611962441
0.39942306611962441
0.39942306611962441
0.39942306611962441
0.39942306611962441
0.39942306611962441
0.39942306611962441
0.39942306611962441
0.39942306611962441
0.39942306611962441
0.39942306611962441
0.39942306611962441
0.39942306611962441
0.39942306611962441
0.39942306611962441
0.39942306611962441
0.39942306611962441
0.39942306611962441
0.39942306611962441
0.39942306611962441
0.39942306611962441
0.39942306611962441
0.39942306611962441
0.39942306611962441
0.39942306611962441
0.39942306611962441
0.39942306611962441
0.39942306611962441
0.39942306611962441
0.39942306611962441
0.39942306611962441
0.39942306611962441
0.39942306611962441
0.39942306611962441
0.39942306611962441
0.39942306611962441
0.39942306611962441
0.39942306611962441
0.39942306611962441
0.39942306611962441
0.39942306611962441
0.39942306611962441
0.39942306611962441
0.39942306611962441
0.39942306611962441
0.39942306611962441
0.39942306611962441
0.39942306611962441
0.39942306611962441
0.39942306611962441
0.39942306611962441
0.39942306611962441
0.39942306611962441
0.39942306611962441
0.39942306611962441
0.39942306611962441
0.39942306611962441
0.39942306611962441
0.39942306611962441
0.39942306611962441
0.39942306611962441
0.39942306611962441
0.39942306611962441
0.39942306611962441
0.39942306611962441
0.39942306611962441
0.39942306611962441
0.39942306611962441
0.39942306611962441
0.39942306611962441
0.39942306611962441
0.39942306611962441
0.39942306611962441
0.39942306611962441
0.39942306611962441
0.39942306611962441
0.39942306611962441
0.39942306611962441
0.39942306611962441
0.39942306611962441
0.39942306611962441
0.39942306611962441
0.39942306611962441
0.39942306611962441
0.39942306611962441
0.39942306611962441
0.39942306611962441
0.39942306611962441
0.39942306611962441
0.39942306611962441
0.39942306611962441
0.39942306611962441
0.39942306611962441
0.39942306611962441
0.39942306611962441
0.39942306611962441
0.39942306611962441
0.39942306611962441
0.39942306611962441
0.39942306611962441
0.39942306611962441
0.39942306611962441
0.39942306611962441
0.39942306611962441
0.39942306611962441
0.39942306611962441
0.39942306611962441
0.39942306611962441
0.39942306611962441
0.39942306611962441
0.39942306611962441
0.39942306611962441
0.39942306611962441
0.39942306611962441
0.39942306611962441
0.39942306611962441
0.39942306611962441
0.39942306611962441
0.39942306611962441
0.39942306611962441
0.39942306611962441
0.39942306611962441
0.39942306611962441
0.39942306611962441
0.39942306611962441
0.39942306611962441
0.39942306611962441
0.39942306611962441
0.39942306611962441
0.39942306611962441
0.39942306611962441
0.39942306611962441
0.39942306611962441
0.39942306611962441
0.39942306611962441
0.39942306611962441
0.39942306611962441
0.39942306611962441
0.39942306611962441
0.39942306611962441
0.39942306611962441
0.39942306611962441
0.39942306611962441
0.39942306611962441
0.39942306611962441
0.39942306611962441
0.39942306611962441
0.39942306611962441
0.39942306611962441
0.39942306611962441
0.39942306611962441
0.39942306611962441
0.39942306611962441
0.39942306611962441
0.39942306611962441
0.39942306611962441
0.39942306611962441
0.39942306611962441
0.39942306611962441
0.39942306611962441
0.39942306611962441
0.39942306611962441
0.39942306611962441
0.39942306611962441
0.39942306611962441
0.39942306611962441
0.39942306611962441
0.39942306611962441
0.39942306611962441
0.39942306611962441
0.39942306611962441
0.39942306611962441
0.39942306611962441
0.39942306611962441
0.39942306611962441
0.39942306611962441
0.39942306611962441
0.39942306611962441
0.39942306611962441
0.39942306611962441
0.39942306611962441
0.39942306611962441
0.39942306611962441
0.39942306611962441
0.39942306611962441
0.39942306611962441
0.39942306611962441
0.39942306611962441
0.39942306611962441
0.39942306611962441
0.39942306611962441
0.39942306611962441
0.39942306611962441
0.39942306611962441
0.39942306611962441
0.39942306611962441
0.39942306611962441
0.39942306611962441
0.39942306611962441
0.39942306611962441
0.39942306611962441
0.39942306611962441
0.39942306611962441
0.39942306611962441
0.39942306611962441
0.39942306611962441
0.39942306611962441
0.39942306611962441
0.39942306611962441
0.39942306611962441
0.39942306611962441
0.39942306611962441
0.39942306611962441
0.39942306611962441
0.39942306611962441
0.39942306611962441
0.39942306611962441
0.39942306611962441
0.39942306611962441
0.39942306611962441
0.39942306611962441
0.39942306611962441
0.39942306611962441
0.39942306611962441
0.39942306611962441
0.39942306611962441
0.39942306611962441
0.39942306611962441
0.39942306611962441
0.39942306611962441
0.39942306611962441
0.39942306611962441
0.39942306611962441
0.39942306611962441
0.39942306611962441
0.39942306611962441
0.39942306611962441
0.39942306611962441
0.39942306611962441
0.39942306611962441
0.39942306611962441
0.39942306611962441
0.39942306611962441
0.39942306611962441
0.39942306611962441
0.39942306611962441
0.39942306611962441
0.39942306611962441
0.39942306611962441
0.39942306611962441
0.39942306611962441
0.39942306611962441
0.39942306611962441
0.39942306611962441
0.39942306611962441
0.39942306611962441
0.39942306611962441
0.39942306611962441
0.39942306611962441
0.39942306611962441
0.39942306611962441
0.39942306611962441
0.39942306611962441
0.39942306611962441
0.39942306611962441
0.39942306611962441
0.39942306611962441
0.39942306611962441
0.39942306611962441
0.39942306611962441
0.39942306611962441
0.39942306611962441
0.39942306611962441
0.39942306611962441
0.39942306611962441
0.39942306611962441
0.39942306611962441
0.39942306611962441
0.39942306611962441
0.39942306611962441
0.39942306611962441
0.39942306611962441
0.39942306611962441
0.39942306611962441
0.39942306611962441
0.39942306611962441
0.39942306611962441
0.39942306611962441
0.39942306611962441
0.39942306611962441
0.39942306611962441
0.39942306611962441
0.39942306611962441
0.39942306611962441
0.39942306611962441
0.39942306611962441
0.39942306611962441
0.39942306611962441
0.39942306611962441
VECTORS v float
-5.0978972380608005e-05 -0.084478595979857865 0
-5.5308787830837229e-05 -0.092289039626329422 0
-5.8626974641832252e-05 -0.098701270267107455 0
-6.1909211328322808e-05 -0.10546002480472938 0
-6.5090224247238077e-05 -0.11264079882487169 0
-6.8215277825357863e-05 -0.12033696406990566 0
-7.1158442585600166e-05 -0.1286842064972564 0
-7.417258570410843e-05 -0.13785459389880006 0
-7.6907532823504042e-05 -0.14806779312949186 0
-7.9547776585821002e-05 -0.15962552974565553 0
-8.206654168744083e-05 -0.17288584494529702 0
-8.4769146991182614e-05 -0.18829042064087681 0
-8.750102720997108e-05 -0.20642521527411073 0
-8.9856315435872289e-05 -0.22818206698484109 0
-9.2961659451568527e-05 -0.25479507701922199 0
-9.6544913195628981e-05 -0.2881371278973443 0
-0.0001003657350314117 -0.33110989308543981 0
-0.00010481144199125383 -0.38916310193015075 0
-0.00011046571891496209 -0.47349468343827994 0
-0.00011554243319421321 -0.61707681009277293 0
-0.00011922480813814209 -0.99720747231884155 0
-8.8987668701441232e-05 -2.0552558440363997 0
-1.5131067947105219e-05 -2.6563533814877305 0
-9.4324394409478329e-07 -2.6950606285764986 0
-1.1237253150280761e-17 -2.5529249004533074 0
-3.0790941523088899e-05 -0.087827339444948929 0
-3.3970102338421911e-05 -0.096109646670880233 0
-3.6388559898194781e-05 -0.10298909025983061 0
-3.8555950067399006e-05 -0.11008862089544197 0
-4.0508823403530999e-05 -0.11754711956521319 0
-4.2528573114478337e-05 -0.12551433522411073 0
-4.3898503923941257e-05 -0.1341477230272525 0
-4.5125669907908022e-05 -0.14362861209489891 0
-4.7101550616208168e-05 -0.15419646239526583 0
-4.9823019113106341e-05 -0.16617873170907979 0
-5.2240847981321054e-05 -0.1799636854879868 0
-5.4620501141262916e-05 -0.19600727467876206 0
-5.6277749430791164e-05 -0.21490523567478378 0
-5.9275977058042699e-05 -0.23753179349668427 0
-6.1476153251550128e-05 -0.26516390131438983 0
-6.3871921826776098e-05 -0.29971531871844798 0
-6.5681229084358942e-05 -0.34420048691805 0
-6.6719168360909696e-05 -0.40416549791186679 0
-6.8545936241176452e-05 -0.49063758594110973 0
-7.0896259063982689e-05 -0.63276150187683478 0
-7.0714087895242328e-05 -0.96298760406554829 0
-5.4491222754692415e-05 -1.9420430864108564 0
-1.1911154131130957e-05 -2.6401099150330167 0
-8.9672602935721212e-07 -2.6945986042157193 0
-1.5407146567702466e-17 -2.5536685509814796 0
-1.0873847751934286e-05 -0.088395308823441252 0
-1.2277697110268439e-05 -0.096707311167752039 0
-1.3146429097344129e-05 -0.10361979569762564 0
-1.4328240244124816e-05 -0.11077233101941654 0
-1.5184951437726163e-05 -0.11830067435283356 0
-1.6292421555213784e-05 -0.12635920000165135 0
-1.6698749462951198e-05 -0.13510550279729233 0
-1.739363228688909e-05 -0.14472586087813685 0
-1.9181027510819558e-05 -0.15546326823153589 0
-2.0344781892991427e-05 -0.16764788733014543 0
-2.1334569376339824e-05 -0.18167853277107143 0
-2.2528414463312315e-05 -0.1980246126603856 0
-2.3915385927216383e-05 -0.21729350296801372 0
-2.618184299374609e-05 -0.2403609685555837 0
-2.7793890104528915e-05 -0.26849600420708603 0
-2.9683925288208358e-05 -0.30360345832333629 0
-3.1558276434943985e-05 -0.34871746775434748 0
-3.3318721279516069e-05 -0.40914534828286275 0
-3.5054448151677667e-05 -0.49567770726034699 0
-3.7611112247820606e-05 -0.63651942731066435 0
-3.7789842577344687e-05 -0.95719104937880017 0
-2.572861455300995e-05 -1.9115971790637709 0
-5.3979726560681833e-06 -2.6338533079892783 0
-5.1043930609394165e-07 -2.6941718079567303 0
-2.1301775060042869e-17 -2.5548871674275024 0
-3.4737826202373794e-06 -0.088402961236535446 0
-3.9077025107962142e-06 -0.09672872087047614 0
-3.8923735301606319e-06 -0.1036542189103659 0
-4.3259697791432268e-06 -0.11082441248042391 0
-4.5167162090178607e-06 -0.11837171662017863 0
-4.1330706772568751e-06 -0.12645552466660576 0
-4.3005100486743828e-06 -0.13523213788410218 0
-4.1547646794668684e-06 -0.14488785256508838 0
-5.0772408493134476e-06 -0.15567296475777054 0
-5.0044961040189409e-06 -0.16791428133070807 0
-6.2972473746481053e-06 -0.18201500979318591 0
-7.1886490054047486e-06 -0.19845006710655275 0
-8.1298400205862522e-06 -0.21782973710491002 0
-1.1609334524458649e-05 -0.24103312786933262 0
-1.2077123608294269e-05 -0.26932825924700882 0
-1.2877185236870129e-05 -0.30460672697549107 0
-1.3385631115960499e-05 -0.34992855329721545 0
-1.3284163387362483e-05 -0.4105341796531824 0
-1.4620872173016586e-05 -0.49717012048081632 0
-1.6015057649886111e-05 -0.63780273712719038 0
-1.6721154218465758e-05 -0.95636681251754097 0
-1.0788845108090525e-05 -1.9035817539299382 0
-2.2769875772713386e-06 -2.6315128842573441 0
-2.3407874935413273e-07 -2.6937562709433349 0
-2.5171519081379853e-17 -2.5562288001703664 0
-8.7797134182981066e-07 -0.088333522783828111 0
-1.1151434348757791e-06 -0.096664345815343583 0
-1.1777057382419194e-06 -0.10359347793177819 0
-1.2384263537900756e-06 -0.11076756834654357 0
-1.134730900686506e-06 -0.11832063616902547 0
-1.6962237526150666e-06 -0.1264124211059981 0
-1.568094462772415e-06 -0.1351964404797453 0
-1.785721459888474e-06 -0.14486253191841464 0
-2.0385138932842168e-06 -0.15565861007654763 0
-1.9646557030976129e-06 -0.16791566788760098 0
-2.3442909783804802e-06 -0.18203492662944171 0
-2.2472600488364548e-06 -0.19849456548097791 0
-2.6505663398857466e-06 -0.21790649145016169 0
-2.3450583881085592e-06 -0.24114939608713121 0
-2.8237664234051154e-06 -0.26948337766471658 0
-3.1205940621712316e-06 -0.3048020164372951 0
-3.683221603659235e-06 -0.35016422235166755 0
-4.0941896492326941e-06 -0.41081056031908664 0
-4.6547499910569641e-06 -0.49747145898238293 0
-5.3984915214124323e-06 -0.6380690844690633 0
-5.728357500112733e-06 -0.95625819261981226 0
-4.4910318566105026e-06 -1.9018323291155321 0
-9.6661269515760211e-07 -2.6306965153492969 0
-9.7182681190607386e-08 -2.6933862995786946 0
-2.4133070212770783e-17 -2.5573974342342822 0
3.2905083600407377e-07 -0.088280235167402091 0
4.0172170235981759e-07 -0.09661049157600593 0
2.6618826940640911e-07 -0.10354040514661372 0
4.2739449488259432e-07 -0.11071503720979579 0
6.8434647237564405e-07 -0.11826904466049172 0
2.4042875977567867e-07 -0.1263622402427641 0
7.3745598484147983e-07 -0.1351469748070693 0
6.0084848515712625e-07 -0.14481433448608089 0
1.3909605767430665e-06 -0.15561398955619102 0
1.0984762481748183e-06 -0.16787373081523066 0
7.6181029806597808e-07 -0.18199745188119346 0
9.7709574201951918e-07 -0.19846213005722083 0
6.5663934129512457e-07 -0.21788167907810682 0
1.9382988682148399e-07 -0.24113546140567477 0
3.9567506202294992e-07 -0.26948166663197515 0
4.5476654048423967e-07 -0.30480551168309289 0
3.0529626568874464e-07 -0.35017553631966103 0
3.2690522063543928e-07 -0.41082737797517743 0
6.9950019658979368e-08 -0.49749154488313013 0
3.9235995249191696e-07 -0.63808919522767327 0
-3.6184498872456596e-07 -0.95625123330718997 0
-8.9085479078511222e-07 -1.901634596039125 0
-2.1987863219731489e-07 -2.6303986979468594 0
-3.0508917096336619e-08 -2.6931028855714554 0
-1.8070894314508071e-17 -2.5582403585561697 0
1.4897266187132965e-06 -0.088251161959541816 0
1.69269141023237e-06 -0.09658036032620336 0
1.7869433472014914e-06 -0.10350960377758085 0
1.9975107820710672e-06 -0.11068382375846125 0
2.1370027249617066e-06 -0.11823763672587287 0
1.9109719921817056e-06 -0.12632965944636229 0
1.9277562808839651e-06 -0.13511624099556299 0
2.0689998769721579e-06 -0.14478189317796164 0
2.1567712265278958e-06 -0.15558227807368649 0
1.3918256950099269e-06 -0.16784252300789063 0
1.6798306919668094e-06 -0.18196714724286128 0
2.1546790583676266e-06 -0.19843217153681317 0
2.5683953982901569e-06 -0.21785446909953457 0
2.4096781429803006e-06 -0.24110849067197992 0
2.6355981912595535e-06 -0.2694568431559905 0
2.9263463064415366e-06 -0.30478378843491816 0
3.1600706260057717e-06 -0.35015300349003875 0
3.3046823586490996e-06 -0.41080379086744645 0
3.7290603994845965e-06 -0.49746864357492776 0
4.4160898133353685e-06 -0.63807278096975206 0
4.0598097546275321e-06 -0.95627215183009051 0
2.676208335148499e-06 -1.9017233295173319 0
4.1451070754183098e-07 -2.6302760014175259 0
9.3339866106334813e-09 -2.692928411198114 0
-8.9162169315094674e-18 -2.5587282243608978 0
1.6590972150779191e-06 -0.088241332017783766 0
1.5784323021509488e-06 -0.096570641577636646 0
2.7378484749166952e-06 -0.10349959049489824 0
2.6024828155193181e-06 -0.1106741330446656 0
2.685459956991059e-06 -0.11822717071534049 0
3.0614059163110926e-06 -0.12631850338143802 0
3.1591165815412509e-06 -0.13510422877993264 0
3.4271730782277345e-06 -0.14477055154089979 0
3.6124676129316113e-06 -0.15557029938926964 0
3.4401231028587398e-06 -0.16783076999763125 0
3.6225182712089714e-06 -0.18195503901880472 0
3.477632169911017e-06 -0.19842083237749009 0
1.5993034294845633e-06 -0.21784418358589411 0
2.0052853404478698e-06 -0.24109938165529846 0
2.4348498302831166e-06 -0.26944746100106493 0
3.405262681303219e-06 -0.30477359043931218 0
2.7910073578499759e-06 -0.35014320653772502 0
3.2393462384571897e-06 -0.41079300309679395 0
3.2954759406154973e-06 -0.49745849179393159 0
5.0856947396635783e-06 -0.63806629634661105 0
5.8335187144469209e-06 -0.95628302837799384 0
5.9056683014207841e-06 -1.9017712716522033 0
6.1522571897562966e-07 -2.6302405721434465 0
2.79359089765167e-08 -2.6928699611975002 0
1.3354837918856902e-18 -2.5588855063512939 0
2.113822119934807e-06 -0.088249781165583394 0
2.2432989951348278e-06 -0.096578784316177252 0
2.1878858167468235e-06 -0.10350816541727607 0
2.1233601081667528e-06 -0.11068253882289331 0
2.1715307292775785e-06 -0.11823650324330141 0
2.6149783386123061e-06 -0.12632791012553518 0
2.4669065793574444e-06 -0.13511479360088982 0
2.2649638555469311e-06 -0.14478271064451098 0
2.4802195038846896e-06 -0.15558177738827872 0
2.8073335256795213e-06 -0.16784230790905846 0
2.8240700285117048e-06 -0.1819671520162795 0
3.0943304523953197e-06 -0.19843307943159433 0
2.4165860297397265e-06 -0.21785440335906084 0
2.6070912569012287e-06 -0.24110798545287768 0
2.8897445409877156e-06 -0.26945610828716821 0
3.0940142985141574e-06 -0.30478353671477987 0
3.4019291382888162e-06 -0.35015193311286996 0
3.8230765940069502e-06 -0.41080093028899511 0
2.4620779195835881e-06 -0.49746598221116684 0
2.6544064823836296e-06 -0.6380695082077994 0
2.0443641424354986e-06 -0.95626761079245426 0
2.2113700327874652e-06 -1.9017155212633061 0
4.0000115802776786e-07 -2.6302750514016204 0
3.3179787563179341e-08 -2.6929283867761855 0
1.1432750913285726e-17 -2.5587282243608978 0
1.9339154328540962e-06 -0.088278966761621225 0
2.1075798962118564e-06 -0.096609910846165575 0
2.4400269061605173e-06 -0.10353976376743852 0
2.6136393759101539e-06 -0.11071426898852442 0
3.1540823894796544e-06 -0.1182683014388419 0
2.7188852607192041e-06 -0.12636060039015282 0
3.1896835699653729e-06 -0.13514752193136559 0
3.3863160414859573e-06 -0.14481514489318026 0
3.8287735815256266e-06 -0.15561432857565616 0
4.9124564789620455e-06 -0.16787436677922166 0
4.6593634226335454e-06 -0.18199879976596825 0
4.7085776795865628e-06 -0.19846359531210528 0
4.1696008568574146e-06 -0.21788196537103996 0
4.5668512778502064e-06 -0.24113470739920184 0
5.2992008901492113e-06 -0.2694802974295229 0
5.7470326301471061e-06 -0.30480706840799321 0
6.1840697985692194e-06 -0.35017490167767884 0
6.4069084027156194e-06 -0.41082327796484908 0
7.1867457093803253e-06 -0.49748794095680016 0
7.1454575638897886e-06 -0.63808495827634815 0
6.8666006255738831e-06 -0.95624426495589099 0
4.2061807062076084e-06 -1.9016247668679986 0
7.1671840662635441e-07 -2.6303974975504896 0
6.0071737939761782e-08 -2.6931028514217252 0
2.0155336786461329e-17 -2.5582403585561697 0
3.487368723651027e-06 -0.088332779373662823 0
3.7913454344784541e-06 -0.096662704553720391 0
4.0158031811071964e-06 -0.10359212619798586 0
4.294610251876848e-06 -0.11076611640987205 0
4.7633728245565833e-06 -0.11831905275497415 0
5.2979757056346642e-06 -0.12641015474100875 0
5.566721409228607e-06 -0.13519494763766729 0
5.5314778311056013e-06 -0.14486071935597136 0
6.0777789177660949e-06 -0.15565709888921059 0
6.4521628770111848e-06 -0.16791372414122641 0
6.1653722808654226e-06 -0.18203451175067037 0
6.9296242145236837e-06 -0.19849308804799634 0
7.5613075943794701e-06 -0.21790329750907528 0
8.3566619389729518e-06 -0.24114587400757062 0
8.9530070706996171e-06 -0.26948254654671067 0
9.6916084497964254e-06 -0.30480106489340453 0
1.0254816980696941e-05 -0.35016338592265039 0
1.0882915761063411e-05 -0.41080923011612658 0
1.1805813524937095e-05 -0.49746768625325616 0
1.1992111536441078e-05 -0.63806453577953504 0
1.1589567722892284e-05 -0.95624853610831873 0
7.3467446831403321e-06 -1.9018177636392573 0
1.3740089146743103e-06 -2.6306950269697138 0
1.2768412723327211e-07 -2.6933862757317346 0
2.5611142156039542e-17 -2.5573974342342827 0
6.7286365333103432e-06 -0.088403533889840222 0
7.4081750105272546e-06 -0.096729319953816117 0
7.9181374760187004e-06 -0.10365634797027001 0
8.5960987776809847e-06 -0.11082294627414842 0
8.9372341082814134e-06 -0.11837075869365003 0
9.4541047737497903e-06 -0.1264538114435512 0
9.9731785687013592e-06 -0.13522941606670791 0
1.0002512674001674e-05 -0.14488591253427746 0
1.074505077936471e-05 -0.15566920546069429 0
1.1429469279076924e-05 -0.16790913109952785 0
1.2046619554188883e-05 -0.18200908125627691 0
1.2555230339272755e-05 -0.19844192523272647 0
1.2963886321334261e-05 -0.21782388914053832 0
1.3721294791656202e-05 -0.24102863714305178 0
1.4687236755095387e-05 -0.26932208976383093 0
1.5479703314753742e-05 -0.30459973753534686 0
1.6858654700912726e-05 -0.34992193089967083 0
1.7794070936403364e-05 -0.41053012433284469 0
1.8760547495559275e-05 -0.49716813963778439 0
2.0079045800665532e-05 -0.63779626660632804 0
2.0492675309443829e-05 -0.9563547199957988 0
1.4448711286238182e-05 -1.903564634545992 0
2.9950344295033501e-06 -2.6315118256608478 0
2.7816582050427258e-07 -2.6937563035310594 0
2.6035016216038796e-17 -2.5562288001703668 0
1.4465896594766638e-05 -0.088393933024398075 0
1.6099174097250918e-05 -0.096707235763369453 0
1.7290305201938374e-05 -0.10361951242941116 0
1.8431672445184161e-05 -0.11076961425000661 0
1.9443464206587544e-05 -0.11829759179446717 0
2.0324714285307213e-05 -0.12635622639154498 0
2.1589458853406168e-05 -0.13510201741251482 0
2.305006648157168e-05 -0.14472158918669409 0
2.4048474808390783e-05 -0.15546030705663519 0
2.4982108524401067e-05 -0.16764493624744975 0
2.5775424484755695e-05 -0.18167529637433172 0
2.670008263600863e-05 -0.19801920259775718 0
2.7720723084597121e-05 -0.21729033474121459 0
2.8963620410049107e-05 -0.24035799027984162 0
3.0488303420294925e-05 -0.2684924154735529 0
3.2082302259654387e-05 -0.30359896743043263 0
3.2981919608672654e-05 -0.34871208427143674 0
3.4686234069740268e-05 -0.40913666688954997 0
3.6586275794465558e-05 -0.49567186873850405 0
3.8703471654719999e-05 -0.63650919349835722 0
3.9980882192338868e-05 -0.95717459041333941 0
2.9776706295634426e-05 -1.9115813463932261 0
6.4778030617772942e-06 -2.6338543664120584 0
5.6222371031087562e-07 -2.6941719700422726 0
2.1696608707213085e-17 -2.5548871674275029 0
3.147092685028813e-05 -0.087824626392032173 0
3.4581329124646346e-05 -0.096107366130401536 0
3.6814222413332425e-05 -0.10298671065767212 0
3.906845688578419e-05 -0.1100867177490539 0
4.0846655130827085e-05 -0.11754528888707515 0
4.3025369222547219e-05 -0.12551245902654187 0
4.4677211811794001e-05 -0.13414543914159641 0
4.5949963269589416e-05 -0.14362569249428267 0
4.8221292489192695e-05 -0.1541936384022802 0
4.9869404155691877e-05 -0.16617656457826166 0
5.1508087863957567e-05 -0.17996274418802313 0
5.3351236009857421e-05 -0.19600556864697016 0
5.5564938253543291e-05 -0.21490397844961626 0
5.7775823906009561e-05 -0.23753058984010814 0
6.0165715484814595e-05 -0.26516050618563308 0
6.2565634901652067e-05 -0.29971209941645571 0
6.5027340793528691e-05 -0.34419645560686235 0
6.751308343170347e-05 -0.40415508106548031 0
7.0503412735657309e-05 -0.4906203138603154 0
7.3105747375292417e-05 -0.63274617401712663 0
7.5327727902496015e-05 -0.96296218837290348 0
6.0656590868017257e-05 -1.9420331977326126 0
1.3158022461390131e-05 -2.6401153939351838 0
9.1572270959882527e-07 -2.6945989272967812 0
1.5534782453559412e-17 -2.55366855098148 0
4.8828549330669027e-05 -0.084477644936920712 0
5.2811110997444763e-05 -0.092288172375731128 0
5.5900584286041957e-05 -0.098700713105162527 0
5.8914654369884646e-05 -0.10545945035585347 0
6.1739225747901085e-05 -0.11264008610863697 0
6.4532425172274e-05 -0.12033657652803297 0
6.8132746322462643e-05 -0.12868337412221748 0
7.0682267362118446e-05 -0.13785383998628381 0
7.3066607666919504e-05 -0.14806687569731972 0
7.5352108079618436e-05 -0.15962453479870886 0
7.8138991644970216e-05 -0.17288468771880963 0
8.0864911616559466e-05 -0.18828869307924609 0
8.328885875691491e-05 -0.20642269806920235 0
8.637070966402595e-05 -0.2281789611970427 0
8.9676842287190976e-05 -0.25479013297432623 0
9.2732014591771387e-05 -0.28813108333402004 0
9.6100460846854999e-05 -0.33110206528273955 0
9.96517643344604e-05 -0.3891529838699892 0
0.00010350356220557002 -0.47348204479544126 0
0.00010604486182516264 -0.61705956874297008 0
0.00010260519720032056 -0.9971946711252897 0
7.0308990933564918e-05 -2.0552838840545777 0
1.3751055498839436e-05 -2.6563635222762256 0
9.0477653287763201e-07 -2.6950609875736222 0
1.1257712252833165e-17 -2.5529249004533079 0
-0 -0 0
-0 -0 0
-0 -0 0
-0 -0 0
-0 -0 0
-0 -0 0
4.8896677429229785e-05 0.081090501502937382 0
6.0722581370171851e-05 0.10475126298223598 0
7.3496740796239268e-05 0.14947545238252785 0
-0 -0 0
-0 -0 0
-0 -0 0
5.5202116027134634e-05 0.093504584087977016 0
6.130431100246626e-05 0.11194937256895458 0
7.2319756691892993e-05 0.15742769166477949 0
-0 -0 0
-0 -0 0
-0 -0 0
4.3415720641512925e-05 0.095571098722379552 0
4.9462130054709876e-05 0.11395672076350212 0
5.9141001001071447e-05 0.15985468755273288 0
-0 -0 0
-0 -0 0
-0 -0 0
2.2924030452448583e-05 0.097402688188844164 0
2.6891610358424522e-05 0.11567181608990833 0
3.3330384126401173e-05 0.16196888985423302 0
-0 -0 0
-0 -0 0
-0 -0 0
8.1360908530242087e-06 0.097678535595450311 0
1.0052106854511775e-05 0.11605679741574799 0
1.3367409917829733e-05 0.16243746478893509 0
-0 -0 0
-0 -0 0
-0 -0 0
2.7545554621569538e-06 0.097636841982379471 0
3.4177414646449402e-06 0.11601777313836273 0
4.8209286142271477e-06 0.16234467260124494 0
-0 -0 0
-0 -0 0
-0 -0 0
3.4703271052375037e-07 0.097565113067085624 0
5.2344106289154233e-07 0.11593550953362222 0
9.2390825008935978e-07 0.16221428891665446 0
-0 -0 0
-0 -0 0
-0 -0 0
-1.2063564407272707e-06 0.097516798920665976 0
-1.4127685941571393e-06 0.11587840838259746 0
-1.6373267227906162e-06 0.1621282226434333 0
-0 -0 0
-0 -0 0
-0 -0 0
-1.7921331168291184e-06 0.097494214770634857 0
-2.2928340597057121e-06 0.11585149595335491 0
-2.8089915865175861e-06 0.16208826101643029 0
-0 -0 0
-0 -0 0
-0 -0 0
-2.1069072775041186e-06 0.097493437704526689 0
-2.5542693953415028e-06 0.1158508592646743 0
-3.0628114633399261e-06 0.16208780786252663 0
-0 -0 0
-0 -0 0
-0 -0 0
-2.225099655258967e-06 0.097515454674188914 0
-2.5525468889051237e-06 0.11587724733443638 0
-3.1920226350664397e-06 0.16212732370308292 0
-0 -0 0
-0 -0 0
-0 -0 0
-3.0396801646744241e-06 0.097564050634994931 0
-3.607636062542767e-06 0.11593431502325047 0
-4.706836922151792e-06 0.16221274608703845 0
-0 -0 0
-0 -0 0
-0 -0 0
-5.7580338608685325e-06 0.097636924549243331 0
-6.8326929595747383e-06 0.11601694987967985 0
-8.6623356432352624e-06 0.16234189885100561 0
-0 -0 0
-0 -0 0
-0 -0 0
-1.1857298465921701e-05 0.097678718943814746 0
-1.4120224295188512e-05 0.116055943031554 0
-1.7567569679471263e-05 0.16243430050825791 0
-0 -0 0
-0 -0 0
-0 -0 0
-2.5320322974496233e-05 0.097401361419218541 0
-2.9311042010004316e-05 0.11567032252248187 0
-3.5636618439999965e-05 0.16196629930679801 0
-0 -0 0
-0 -0 0
-0 -0 0
-4.284351530361183e-05 0.095569752904892377 0
-4.8714433702579541e-05 0.11395585704263061 0
-5.8159674478110478e-05 0.15985334239066259 0
-0 -0 0
-0 -0 0
-0 -0 0
-5.2907559365037579e-05 0.093503636325639142 0
-5.8882436037051243e-05 0.11194848367660541 0
-6.9668897446693035e-05 0.15742588014694947 0
-0 -0 0
-0 -0 0
-0 -0 0
-4.6896419406165226e-05 0.081087886921018495 0
-5.8103282101613461e-05 0.10474959159158921 0
-7.0622038445578565e-05 0.14947132164829344 0
-0 -0 0
-0 -0 0
-0 -0 0
-0 -0 0
-0 -0 0
-0 -0 0
-0 -0 0
-0 -0 0
-0 -0 0
-0 -0 0
-0 -0 0
-0 -0 0
-0 -0 0
-0 -0 0
-0 -0 0
-0 -0 0
-0 -0 0
-0 -0 0
-0 -0 0
-0 -0 0
-0 -0 0
-0 -0 0
-0 -0 0
-0 -0 0
-0 -0 0
-0 -0 0
-0 -0 0
-0 -0 0
-0 -0 0
-0 -0 0
-0 -0 0
-0 -0 0
-0 -0 0
-0 -0 0
-0 -0 0
-0 -0 0
-0 -0 0
-0 -0 0
-0 -0 0
-0 -0 0
-0 -0 0
-0 -0 0
-0 -0 0
-0 -0 0
-0 -0 0
-0 -0 0
-0 -0 0
-0 -0 0
-0 -0 0
-0 -0 0
-0 -0 0
-0 -0 0
-0 -0 0
-0 -0 0
-0 -0 0
-0 -0 0
-0 -0 0
-0 -0 0
-0 -0 0
-0 -0 0
-0 -0 0
-0 -0 0
-0 -0 0
-0 -0 0
-0 -0 0
-0 -0 0
-0 -0 0
-0 -0 0
-0 -0 0
-0 -0 0
-0 -0 0
-0 -0 0
-0 -0 0
-0 -0 0
-0 -0 0
-0 -0 0
-0 -0 0
-0 -0 0
-0 -0 0
-0 -0 0
-0 -0 0
-0 -0 0
-0 -0 0
-0 -0 0
-0 -0 0
-0 -0 0
-0 -0 0
-0 -0 0
-0 -0 0
-0 -0 0
-0 -0 0
-0 -0 0
-0 -0 0
-0 -0 0
-0 -0 0
-0 -0 0
-0 -0 0
-0 -0 0
-0 -0 0
-0 -0 0
-0 -0 0
-0 -0 0
-0 -0 0
-0 -0 0
-0 -0 0
-0 -0 0
-0 -0 0
-0 -0 0
-0 -0 0
-0 -0 0
-0 -0 0
-0 -0 0
-0 -0 0
-0 -0 0
-0 -0 0
-0 -0 0
-0 -0 0
-0 -0 0
-0 -0 0
-0 -0 0
-0 -0 0
-0 -0 0
-0 -0 0
-0 -0 0
-0 -0 0
-0 -0 0
-0 -0 0
-0 -0 0
-0 -0 0
-0 -0 0
-0 -0 0
-0 -0 0
-0 -0 0
-0 -0 0
-0 -0 0
-0 -0 0
-0 -0 0
-0 -0 0
-0 -0 0
-0 -0 0
-0 -0 0
-0 -0 0
-0 -0 0
-0 -0 0
-0 -0 0
-0 -0 0
-0 -0 0
-0 -0 0
-0 -0 0
-0 -0 0
-0 -0 0
-0 -0 0
-0 -0 0
-0 -0 0
-0 -0 0
-0 -0 0
-0 -0 0
-0 -0 0
-0 -0 0
-0 -0 0
-0 -0 0
-0 -0 0
-0 -0 0
-0 -0 0
-0 -0 0
-0 -0 0
-0 -0 0
-0 -0 0
-0 -0 0
-0 -0 0
-0 -0 0
-0 -0 0
-0 -0 0
-0 -0 0
-0 -0 0
-0 -0 0
-0 -0 0
-0 -0 0
-0 -0 0
-0 -0 0
-0 -0 0
-0 -0 0
-0 -0 0
-0 -0 0
-0 -0 0
-0 -0 0
-0 -0 0
-0 -0 0
-0 -0 0
-0 -0 0
-0 -0 0
-0 -0 0
-0 -0 0
-0 -0 0
-0 -0 0
