# vtk DataFile Version 3.0
SPH particles (WCSPH) - legacy PolyData
ASCII
DATASET POLYDATA
POINTS 681 float
0.050000000000000003 0.045767048949420727 0
0.050000000000000003 0.058459485575048764 0
0.050000000000000003 0.073189258109966349 0
0.050000000000000003 0.091408878560602744 0
0.050000000000000003 0.11095226716736661 0
0.050000000000000003 0.13085363260528809 0
0.050000000000000003 0.15083442022148802 0
0.050000000000000003 0.17083095198467357 0
0.050000000000000003 0.19083036845216422 0
0.050000000000000003 0.21083027677834781 0
0.050000000000000003 0.23083026330448039 0
0.050000000000000003 0.25083026144830556 0
0.050000000000000003 0.27083026121651954 0
0.050000000000000003 0.29083026126087397 0
0.050000000000000003 0.31083026183125578 0
0.050000000000000003 0.33083026600780918 0
0.050000000000000003 0.35083029432943852 0
0.050000000000000003 0.37083047220824739 0
0.050000000000000003 0.39083150030090619 0
0.050000000000000003 0.41083692623035745 0
0.050000000000000003 0.4308628448760573 0
0.050000000000000003 0.45097399748393069 0
0.050000000000000003 0.47140167400441924 0
0.050000000000000003 0.49291176002987019 0
0.050000000000000003 0.51879156742755272 0
0.070000000000000007 0.045588471375594894 0
0.070000000000000007 0.058645629609820088 0
0.070000000000000007 0.073422320676740357 0
0.070000000000000007 0.091478321902190796 0
0.070000000000000007 0.11096656698343459 0
0.070000000000000007 0.13085654066567251 0
0.070000000000000007 0.15083498500417941 0
0.070000000000000007 0.17083105338779961 0
0.070000000000000007 0.19083038528431442 0
0.070000000000000007 0.21083027937185669 0
0.070000000000000007 0.23083026367693371 0
0.070000000000000007 0.25083026149856075 0
0.070000000000000007 0.27083026122474035 0
0.070000000000000007 0.29083026127694961 0
0.070000000000000007 0.31083026194635094 0
0.070000000000000007 0.3308302668117461 0
0.070000000000000007 0.35083029953713096 0
0.070000000000000007 0.37083050330077594 0
0.070000000000000007 0.39083167052257811 0
0.070000000000000007 0.41083777772288643 0
0.070000000000000007 0.4308667343908773 0
0.070000000000000007 0.45099019568183385 0
0.070000000000000007 0.47146113158319281 0
0.070000000000000007 0.4930521419140183 0
0.070000000000000007 0.51862501796649541 0
0.090000000000000011 0.045607646782626236 0
0.090000000000000011 0.058701859178550524 0
0.090000000000000011 0.073479177830192061 0
0.090000000000000011 0.091498818571261173 0
0.090000000000000011 0.1109707434341239 0
0.090000000000000011 0.13085736309483018 0
0.090000000000000011 0.1508351480337258 0
0.090000000000000011 0.17083108395820557 0
0.090000000000000011 0.19083039059000148 0
0.090000000000000011 0.21083028022220376 0
0.090000000000000011 0.23083026380321739 0
0.090000000000000011 0.25083026151609278 0
0.090000000000000011 0.27083026122766002 0
0.090000000000000011 0.29083026128242301 0
0.090000000000000011 0.31083026198437586 0
0.090000000000000011 0.33083026706975349 0
0.090000000000000011 0.35083030115887748 0
0.090000000000000011 0.37083051270599454 0
0.090000000000000011 0.3908317207685863 0
0.090000000000000011 0.41083802496316535 0
0.090000000000000011 0.43086784964723152 0
0.090000000000000011 0.45099466281776357 0
0.090000000000000011 0.47147514247456002 0
0.090000000000000011 0.49307129479203649 0
0.090000000000000011 0.51863178063448923 0
0.11000000000000001 0.045610837302145303 0
0.11000000000000001 0.058711569302780563 0
0.11000000000000001 0.07349088030823743 0
0.11000000000000001 0.091504701323820811 0
0.11000000000000001 0.11097236242041185 0
0.11000000000000001 0.13085770990993206 0
0.11000000000000001 0.15083521802143246 0
0.11000000000000001 0.1708310973817424 0
0.11000000000000001 0.19083039299805851 0
0.11000000000000001 0.21083028062268833 0
0.11000000000000001 0.23083026386490207 0
0.11000000000000001 0.25083026152495386 0
0.11000000000000001 0.27083026122916659 0
0.11000000000000001 0.29083026128506928 0
0.11000000000000001 0.31083026200191838 0
0.11000000000000001 0.33083026718347508 0
0.11000000000000001 0.35083030183853403 0
0.11000000000000001 0.37083051643069664 0
0.11000000000000001 0.39083173938762039 0
0.11000000000000001 0.41083810897839429 0
0.11000000000000001 0.43086818232407281 0
0.11000000000000001 0.45099573415212352 0
0.11000000000000001 0.471477481717198 0
0.11000000000000001 0.49307446332847837 0
0.11000000000000001 0.51863436351962744 0
0.13 0.045610963458577236 0
0.13 0.058713067645059437 0
0.13 0.073493034313870262 0
0.13 0.091506028996386241 0
0.13 0.11097282206586707 0
0.13 0.13085782607381716 0
0.13 0.15083524331024853 0
0.13 0.17083110243620969 0
0.13 0.19083039393786952 0
0.13 0.21083028078496518 0
0.13 0.23083026389087768 0
0.13 0.25083026152882881 0
0.13 0.2708302612298375 0
0.13 0.29083026128612627 0
0.13 0.3108302620084622 0
0.13 0.33083026722316039 0
0.13 0.35083030205842908 0
0.13 0.37083051753486113 0
0.13 0.39083174436083118 0
0.13 0.41083812867107955 0
0.13 0.4308682479852583 0
0.13 0.45099590458418876 0
0.13 0.47147781166420877 0
0.13 0.49307493007500242 0
0.13 0.51863478554726239 0
0.15000000000000002 0.045610955949757087 0
0.15000000000000002 0.058713279262134765 0
0.15000000000000002 0.073493391075108827 0
0.15000000000000002 0.091506286727852909 0
0.15000000000000002 0.11097292818674036 0
0.15000000000000002 0.13085785745791551 0
0.15000000000000002 0.15083525092478556 0
0.15000000000000002 0.17083110406082255 0
0.15000000000000002 0.19083039425395132 0
0.15000000000000002 0.21083028084175318 0
0.15000000000000002 0.2308302639003299 0
0.15000000000000002 0.25083026153029397 0
0.15000000000000002 0.27083026123009341 0
0.15000000000000002 0.29083026128646328 0
0.15000000000000002 0.31083026201034086 0
0.15000000000000002 0.33083026723345788 0
0.15000000000000002 0.35083030210913801 0
0.15000000000000002 0.37083051775647358 0
0.15000000000000002 0.39083174520849212 0
0.15000000000000002 0.41083813144800146 0
0.15000000000000002 0.43086825555297326 0
0.15000000000000002 0.45099592179636394 0
0.15000000000000002 0.47147784542309568 0
0.15000000000000002 0.49307498304196817 0
0.15000000000000002 0.51863483576845804 0
0.17000000000000004 0.045610957370833587 0
0.17000000000000004 0.058713309626174728 0
0.17000000000000004 0.073493445608923388 0
0.17000000000000004 0.091506331074214992 0
0.17000000000000004 0.11097294914853105 0
0.17000000000000004 0.13085786455363635 0
0.17000000000000004 0.15083525284935134 0
0.17000000000000004 0.17083110450540989 0
0.17000000000000004 0.19083039434532656 0
0.17000000000000004 0.21083028085888267 0
0.17000000000000004 0.23083026390329248 0
0.17000000000000004 0.25083026153077054 0
0.17000000000000004 0.27083026123017584 0
0.17000000000000004 0.29083026128654393 0
0.17000000000000004 0.31083026201071307 0
0.17000000000000004 0.33083026723513187 0
0.17000000000000004 0.35083030211542432 0
0.17000000000000004 0.37083051777489662 0
0.17000000000000004 0.39083174524461189 0
0.17000000000000004 0.41083813146882059 0
0.17000000000000004 0.43086825545512569 0
0.17000000000000004 0.45099592168611213 0
0.17000000000000004 0.47147784634192114 0
0.17000000000000004 0.49307498627340446 0
0.17000000000000004 0.51863483987025838 0
0.19 0.045610957860525325 0
0.19 0.058713313475848863 0
0.19 0.073493452474726342 0
0.19 0.091506337050938372 0
0.19 0.11097295225809775 0
0.19 0.13085786571532679 0
0.19 0.15083525319297725 0
0.19 0.1708311045903288 0
0.19 0.19083039436364227 0
0.19 0.21083028086243963 0
0.19 0.23083026390392561 0
0.19 0.25083026153087545 0
0.19 0.27083026123019388 0
0.19 0.29083026128655565 0
0.19 0.31083026201074987 0
0.19 0.33083026723521103 0
0.19 0.35083030211522065 0
0.19 0.37083051777160131 0
0.19 0.39083174522457659 0
0.19 0.41083813138878328 0
0.19 0.43086825523404809 0
0.19 0.45099592127982252 0
0.19 0.4714778458961964 0
0.19 0.49307498605892675 0
0.19 0.51863483997657933 0
0.21000000000000002 0.045610957370833594 0
0.21000000000000002 0.058713309626174728 0
0.21000000000000002 0.073493445608923388 0
0.21000000000000002 0.091506331074214992 0
0.21000000000000002 0.11097294914853105 0
0.21000000000000002 0.13085786455363635 0
0.21000000000000002 0.15083525284935134 0
0.21000000000000002 0.17083110450540989 0
0.21000000000000002 0.19083039434532656 0
0.21000000000000002 0.21083028085888267 0
0.21000000000000002 0.23083026390329248 0
0.21000000000000002 0.25083026153077054 0
0.21000000000000002 0.27083026123017584 0
0.21000000000000002 0.29083026128654393 0
0.21000000000000002 0.31083026201071307 0
0.21000000000000002 0.33083026723513187 0
0.21000000000000002 0.35083030211542432 0
0.21000000000000002 0.37083051777489662 0
0.21000000000000002 0.39083174524461189 0
0.21000000000000002 0.41083813146882059 0
0.21000000000000002 0.43086825545512569 0
0.21000000000000002 0.45099592168611213 0
0.21000000000000002 0.47147784634192114 0
0.21000000000000002 0.49307498627340446 0
0.21000000000000002 0.51863483987025838 0
0.23000000000000004 0.045610955949757087 0
0.23000000000000004 0.058713279262134765 0
0.23000000000000004 0.073493391075108827 0
0.23000000000000004 0.091506286727852909 0
0.23000000000000004 0.11097292818674036 0
0.23000000000000004 0.13085785745791551 0
0.23000000000000004 0.15083525092478556 0
0.23000000000000004 0.17083110406082255 0
0.23000000000000004 0.19083039425395132 0
0.23000000000000004 0.21083028084175318 0
0.23000000000000004 0.2308302639003299 0
0.23000000000000004 0.25083026153029397 0
0.23000000000000004 0.27083026123009341 0
0.23000000000000004 0.29083026128646328 0
0.23000000000000004 0.31083026201034086 0
0.23000000000000004 0.33083026723345788 0
0.23000000000000004 0.35083030210913801 0
0.23000000000000004 0.37083051775647358 0
0.23000000000000004 0.39083174520849212 0
0.23000000000000004 0.41083813144800146 0
0.23000000000000004 0.43086825555297326 0
0.23000000000000004 0.45099592179636394 0
0.23000000000000004 0.47147784542309568 0
0.23000000000000004 0.49307498304196817 0
0.23000000000000004 0.51863483576845804 0
0.25000000000000006 0.045610963458577236 0
0.25000000000000006 0.058713067645059437 0
0.25000000000000006 0.073493034313870262 0
0.25000000000000006 0.091506028996386241 0
0.25000000000000006 0.11097282206586707 0
0.25000000000000006 0.13085782607381716 0
0.25000000000000006 0.15083524331024853 0
0.25000000000000006 0.17083110243620969 0
0.25000000000000006 0.19083039393786952 0
0.25000000000000006 0.21083028078496518 0
0.25000000000000006 0.23083026389087768 0
0.25000000000000006 0.25083026152882881 0
0.25000000000000006 0.2708302612298375 0
0.25000000000000006 0.29083026128612627 0
0.25000000000000006 0.3108302620084622 0
0.25000000000000006 0.33083026722316039 0
0.25000000000000006 0.35083030205842908 0
0.25000000000000006 0.37083051753486113 0
0.25000000000000006 0.39083174436083118 0
0.25000000000000006 0.41083812867107955 0
0.25000000000000006 0.4308682479852583 0
0.25000000000000006 0.45099590458418876 0
0.25000000000000006 0.47147781166420877 0
0.25000000000000006 0.49307493007500242 0
0.25000000000000006 0.51863478554726239 0
0.27000000000000002 0.045610837302145303 0
0.27000000000000002 0.058711569302780563 0
0.27000000000000002 0.07349088030823743 0
0.27000000000000002 0.091504701323820811 0
0.27000000000000002 0.11097236242041185 0
0.27000000000000002 0.13085770990993206 0
0.27000000000000002 0.15083521802143246 0
0.27000000000000002 0.1708310973817424 0
0.27000000000000002 0.19083039299805851 0
0.27000000000000002 0.21083028062268833 0
0.27000000000000002 0.23083026386490207 0
0.27000000000000002 0.25083026152495386 0
0.27000000000000002 0.27083026122916659 0
0.27000000000000002 0.29083026128506928 0
0.27000000000000002 0.31083026200191838 0
0.27000000000000002 0.33083026718347508 0
0.27000000000000002 0.35083030183853403 0
0.27000000000000002 0.37083051643069664 0
0.27000000000000002 0.39083173938762039 0
0.27000000000000002 0.41083810897839429 0
0.27000000000000002 0.43086818232407281 0
0.27000000000000002 0.45099573415212352 0
0.27000000000000002 0.471477481717198 0
0.27000000000000002 0.49307446332847837 0
0.27000000000000002 0.51863436351962744 0
0.29000000000000004 0.045607646782626236 0
0.29000000000000004 0.058701859178550524 0
0.29000000000000004 0.073479177830192061 0
0.29000000000000004 0.091498818571261173 0
0.29000000000000004 0.1109707434341239 0
0.29000000000000004 0.13085736309483018 0
0.29000000000000004 0.1508351480337258 0
0.29000000000000004 0.17083108395820557 0
0.29000000000000004 0.19083039059000148 0
0.29000000000000004 0.21083028022220376 0
0.29000000000000004 0.23083026380321739 0
0.29000000000000004 0.25083026151609278 0
0.29000000000000004 0.27083026122766002 0
0.29000000000000004 0.29083026128242301 0
0.29000000000000004 0.31083026198437586 0
0.29000000000000004 0.33083026706975349 0
0.29000000000000004 0.35083030115887748 0
0.29000000000000004 0.37083051270599454 0
0.29000000000000004 0.3908317207685863 0
0.29000000000000004 0.41083802496316535 0
0.29000000000000004 0.43086784964723152 0
0.29000000000000004 0.45099466281776357 0
0.29000000000000004 0.47147514247456002 0
0.29000000000000004 0.49307129479203649 0
0.29000000000000004 0.51863178063448923 0
0.31000000000000005 0.045588471375594887 0
0.31000000000000005 0.058645629609820088 0
0.31000000000000005 0.073422320676740357 0
0.31000000000000005 0.091478321902190796 0
0.31000000000000005 0.11096656698343459 0
0.31000000000000005 0.13085654066567251 0
0.31000000000000005 0.15083498500417941 0
0.31000000000000005 0.17083105338779961 0
0.31000000000000005 0.19083038528431442 0
0.31000000000000005 0.21083027937185669 0
0.31000000000000005 0.23083026367693371 0
0.31000000000000005 0.25083026149856075 0
0.31000000000000005 0.27083026122474035 0
0.31000000000000005 0.29083026127694961 0
0.31000000000000005 0.31083026194635094 0
0.31000000000000005 0.3308302668117461 0
0.31000000000000005 0.35083029953713096 0
0.31000000000000005 0.37083050330077594 0
0.31000000000000005 0.39083167052257811 0
0.31000000000000005 0.41083777772288643 0
0.31000000000000005 0.4308667343908773 0
0.31000000000000005 0.45099019568183385 0
0.31000000000000005 0.47146113158319281 0
0.31000000000000005 0.4930521419140183 0
0.31000000000000005 0.51862501796649541 0
0.33000000000000002 0.045767048949420727 0
0.33000000000000002 0.058459485575048764 0
0.33000000000000002 0.073189258109966349 0
0.33000000000000002 0.091408878560602744 0
0.33000000000000002 0.11095226716736661 0
0.33000000000000002 0.13085363260528809 0
0.33000000000000002 0.15083442022148802 0
0.33000000000000002 0.17083095198467357 0
0.33000000000000002 0.19083036845216422 0
0.33000000000000002 0.21083027677834781 0
0.33000000000000002 0.23083026330448039 0
0.33000000000000002 0.25083026144830556 0
0.33000000000000002 0.27083026121651954 0
0.33000000000000002 0.29083026126087397 0
0.33000000000000002 0.31083026183125578 0
0.33000000000000002 0.33083026600780918 0
0.33000000000000002 0.35083029432943852 0
0.33000000000000002 0.37083047220824739 0
0.33000000000000002 0.39083150030090619 0
0.33000000000000002 0.41083692623035745 0
0.33000000000000002 0.4308628448760573 0
0.33000000000000002 0.45097399748393069 0
0.33000000000000002 0.47140167400441924 0
0.33000000000000002 0.49291176002987019 0
0.33000000000000002 0.51879156742755272 0
0 0 0
0 0.020000000000000004 0
0 0.040000000000000001 0
0 0.54999999999999993 0
0 0.56000000000000005 0
0 0.58000000000000007 0
0.02 0 0
0.02 0.020000000000000004 0
0.02 0.040000000000000001 0
0.02 0.54999999999999993 0
0.02 0.56000000000000005 0
0.02 0.58000000000000007 0
0.040000000000000001 0 0
0.040000000000000001 0.020000000000000004 0
0.040000000000000001 0.040000000000000001 0
0.040000000000000001 0.54999999999999993 0
0.040000000000000001 0.56000000000000005 0
0.040000000000000001 0.58000000000000007 0
0.059999999999999998 0 0
0.059999999999999998 0.020000000000000004 0
0.059999999999999998 0.040000000000000001 0
0.059999999999999998 0.54999999999999993 0
0.059999999999999998 0.56000000000000005 0
0.059999999999999998 0.58000000000000007 0
0.080000000000000002 0 0
0.080000000000000002 0.020000000000000004 0
0.080000000000000002 0.040000000000000001 0
0.080000000000000002 0.54999999999999993 0
0.080000000000000002 0.56000000000000005 0
0.080000000000000002 0.58000000000000007 0
0.10000000000000001 0 0
0.10000000000000001 0.020000000000000004 0
0.10000000000000001 0.040000000000000001 0
0.10000000000000001 0.54999999999999993 0
0.10000000000000001 0.56000000000000005 0
0.10000000000000001 0.58000000000000007 0
0.12 0 0
0.12 0.020000000000000004 0
0.12 0.040000000000000001 0
0.12 0.54999999999999993 0
0.12 0.56000000000000005 0
0.12 0.58000000000000007 0
0.14000000000000001 0 0
0.14000000000000001 0.020000000000000004 0
0.14000000000000001 0.040000000000000001 0
0.14000000000000001 0.54999999999999993 0
0.14000000000000001 0.56000000000000005 0
0.14000000000000001 0.58000000000000007 0
0.16 0 0
0.16 0.020000000000000004 0
0.16 0.040000000000000001 0
0.16 0.54999999999999993 0
0.16 0.56000000000000005 0
0.16 0.58000000000000007 0
0.17999999999999999 0 0
0.17999999999999999 0.020000000000000004 0
0.17999999999999999 0.040000000000000001 0
0.17999999999999999 0.54999999999999993 0
0.17999999999999999 0.56000000000000005 0
0.17999999999999999 0.58000000000000007 0
0.20000000000000001 0 0
0.20000000000000001 0.020000000000000004 0
0.20000000000000001 0.040000000000000001 0
0.20000000000000001 0.54999999999999993 0
0.20000000000000001 0.56000000000000005 0
0.20000000000000001 0.58000000000000007 0
0.22 0 0
0.22 0.020000000000000004 0
0.22 0.040000000000000001 0
0.22 0.54999999999999993 0
0.22 0.56000000000000005 0
0.22 0.58000000000000007 0
0.23999999999999999 0 0
0.23999999999999999 0.020000000000000004 0
0.23999999999999999 0.040000000000000001 0
0.23999999999999999 0.54999999999999993 0
0.23999999999999999 0.56000000000000005 0
0.23999999999999999 0.58000000000000007 0
0.26000000000000001 0 0
0.26000000000000001 0.020000000000000004 0
0.26000000000000001 0.040000000000000001 0
0.26000000000000001 0.54999999999999993 0
0.26000000000000001 0.56000000000000005 0
0.26000000000000001 0.58000000000000007 0
0.28000000000000003 0 0
0.28000000000000003 0.020000000000000004 0
0.28000000000000003 0.040000000000000001 0
0.28000000000000003 0.54999999999999993 0
0.28000000000000003 0.56000000000000005 0
0.28000000000000003 0.58000000000000007 0
0.29999999999999999 0 0
0.29999999999999999 0.020000000000000004 0
0.29999999999999999 0.040000000000000001 0
0.29999999999999999 0.54999999999999993 0
0.29999999999999999 0.56000000000000005 0
0.29999999999999999 0.58000000000000007 0
0.32000000000000001 0 0
0.32000000000000001 0.020000000000000004 0
0.32000000000000001 0.040000000000000001 0
0.32000000000000001 0.54999999999999993 0
0.32000000000000001 0.56000000000000005 0
0.32000000000000001 0.58000000000000007 0
0.34000000000000002 0 0
0.34000000000000002 0.020000000000000004 0
0.34000000000000002 0.040000000000000001 0
0.34000000000000002 0.54999999999999993 0
0.34000000000000002 0.56000000000000005 0
0.34000000000000002 0.58000000000000007 0
0.35999999999999999 0 0
0.35999999999999999 0.020000000000000004 0
0.35999999999999999 0.040000000000000001 0
0.35999999999999999 0.54999999999999993 0
0.35999999999999999 0.56000000000000005 0
0.35999999999999999 0.58000000000000007 0
0.38 0 0
0.38 0.020000000000000004 0
0.38 0.040000000000000001 0
0.38 0.54999999999999993 0
0.38 0.56000000000000005 0
0.38 0.58000000000000007 0
0.40000000000000002 0 0
0.40000000000000002 0.020000000000000004 0
0.40000000000000002 0.040000000000000001 0
0.40000000000000002 0.54999999999999993 0
0.40000000000000002 0.56000000000000005 0
0.40000000000000002 0.58000000000000007 0
0.41999999999999998 0 0
0.41999999999999998 0.020000000000000004 0
0.41999999999999998 0.040000000000000001 0
0.41999999999999998 0.54999999999999993 0
0.41999999999999998 0.56000000000000005 0
0.41999999999999998 0.58000000000000007 0
0.44 0 0
0.44 0.020000000000000004 0
0.44 0.040000000000000001 0
0.44 0.54999999999999993 0
0.44 0.56000000000000005 0
0.44 0.58000000000000007 0
0.46000000000000002 0 0
0.46000000000000002 0.020000000000000004 0
0.46000000000000002 0.040000000000000001 0
0.46000000000000002 0.54999999999999993 0
0.46000000000000002 0.56000000000000005 0
0.46000000000000002 0.58000000000000007 0
0.47999999999999998 0 0
0.47999999999999998 0.020000000000000004 0
0.47999999999999998 0.040000000000000001 0
0.47999999999999998 0.54999999999999993 0
0.47999999999999998 0.56000000000000005 0
0.47999999999999998 0.58000000000000007 0
0.5 0 0
0.5 0.020000000000000004 0
0.5 0.040000000000000001 0
0.5 0.54999999999999993 0
0.5 0.56000000000000005 0
0.5 0.58000000000000007 0
0.52000000000000002 0 0
0.52000000000000002 0.020000000000000004 0
0.52000000000000002 0.040000000000000001 0
0.52000000000000002 0.54999999999999993 0
0.52000000000000002 0.56000000000000005 0
0.52000000000000002 0.58000000000000007 0
0.54000000000000004 0 0
0.54000000000000004 0.020000000000000004 0
0.54000000000000004 0.040000000000000001 0
0.54000000000000004 0.54999999999999993 0
0.54000000000000004 0.56000000000000005 0
0.54000000000000004 0.58000000000000007 0
0.56000000000000005 0 0
0.56000000000000005 0.020000000000000004 0
0.56000000000000005 0.040000000000000001 0
0.56000000000000005 0.54999999999999993 0
0.56000000000000005 0.56000000000000005 0
0.56000000000000005 0.58000000000000007 0
0.57999999999999996 0 0
0.57999999999999996 0.020000000000000004 0
0.57999999999999996 0.040000000000000001 0
0.57999999999999996 0.54999999999999993 0
0.57999999999999996 0.56000000000000005 0
0.57999999999999996 0.58000000000000007 0
0.59999999999999998 0 0
0.59999999999999998 0.020000000000000004 0
0.59999999999999998 0.040000000000000001 0
0.59999999999999998 0.54999999999999993 0
0.59999999999999998 0.56000000000000005 0
0.59999999999999998 0.58000000000000007 0
0.62 0 0
0.62 0.020000000000000004 0
0.62 0.040000000000000001 0
0.62 0.54999999999999993 0
0.62 0.56000000000000005 0
0.62 0.58000000000000007 0
0.64000000000000001 0 0
0.64000000000000001 0.020000000000000004 0
0.64000000000000001 0.040000000000000001 0
0.64000000000000001 0.54999999999999993 0
0.64000000000000001 0.56000000000000005 0
0.64000000000000001 0.58000000000000007 0
0.66000000000000003 0 0
0.66000000000000003 0.020000000000000004 0
0.66000000000000003 0.040000000000000001 0
0.66000000000000003 0.54999999999999993 0
0.66000000000000003 0.56000000000000005 0
0.66000000000000003 0.58000000000000007 0
0.68000000000000005 0 0
0.68000000000000005 0.020000000000000004 0
0.68000000000000005 0.040000000000000001 0
0.68000000000000005 0.54999999999999993 0
0.68000000000000005 0.56000000000000005 0
0.68000000000000005 0.58000000000000007 0
0.70000000000000007 0 0
0.70000000000000007 0.020000000000000004 0
0.70000000000000007 0.040000000000000001 0
0.70000000000000007 0.54999999999999993 0
0.70000000000000007 0.56000000000000005 0
0.70000000000000007 0.58000000000000007 0
0.71999999999999997 0 0
0.71999999999999997 0.020000000000000004 0
0.71999999999999997 0.040000000000000001 0
0.71999999999999997 0.54999999999999993 0
0.71999999999999997 0.56000000000000005 0
0.71999999999999997 0.58000000000000007 0
0.73999999999999999 0 0
0.73999999999999999 0.020000000000000004 0
0.73999999999999999 0.040000000000000001 0
0.73999999999999999 0.54999999999999993 0
0.73999999999999999 0.56000000000000005 0
0.73999999999999999 0.58000000000000007 0
0.76000000000000001 0 0
0.76000000000000001 0.020000000000000004 0
0.76000000000000001 0.040000000000000001 0
0.76000000000000001 0.54999999999999993 0
0.76000000000000001 0.56000000000000005 0
0.76000000000000001 0.58000000000000007 0
0.78000000000000003 0 0
0.78000000000000003 0.020000000000000004 0
0.78000000000000003 0.040000000000000001 0
0.78000000000000003 0.54999999999999993 0
0.78000000000000003 0.56000000000000005 0
0.78000000000000003 0.58000000000000007 0
0.80000000000000004 0 0
0.80000000000000004 0.020000000000000004 0
0.80000000000000004 0.040000000000000001 0
0.80000000000000004 0.54999999999999993 0
0.80000000000000004 0.56000000000000005 0
0.80000000000000004 0.58000000000000007 0
0.82000000000000006 0 0
0.82000000000000006 0.020000000000000004 0
0.82000000000000006 0.040000000000000001 0
0.82000000000000006 0.54999999999999993 0
0.82000000000000006 0.56000000000000005 0
0.82000000000000006 0.58000000000000007 0
0.83999999999999997 0 0
0.83999999999999997 0.020000000000000004 0
0.83999999999999997 0.040000000000000001 0
0.83999999999999997 0.54999999999999993 0
0.83999999999999997 0.56000000000000005 0
0.83999999999999997 0.58000000000000007 0
0.85999999999999999 0 0
0.85999999999999999 0.020000000000000004 0
0.85999999999999999 0.040000000000000001 0
0.85999999999999999 0.54999999999999993 0
0.85999999999999999 0.56000000000000005 0
0.85999999999999999 0.58000000000000007 0
0.88 0 0
0.88 0.020000000000000004 0
0.88 0.040000000000000001 0
0.88 0.54999999999999993 0
0.88 0.56000000000000005 0
0.88 0.58000000000000007 0
0.90000000000000002 0 0
0.90000000000000002 0.020000000000000004 0
0.90000000000000002 0.040000000000000001 0
0.90000000000000002 0.54999999999999993 0
0.90000000000000002 0.56000000000000005 0
0.90000000000000002 0.58000000000000007 0
0.92000000000000004 0 0
0.92000000000000004 0.020000000000000004 0
0.92000000000000004 0.040000000000000001 0
0.92000000000000004 0.54999999999999993 0
0.92000000000000004 0.56000000000000005 0
0.92000000000000004 0.58000000000000007 0
0.94000000000000006 0 0
0.94000000000000006 0.020000000000000004 0
0.94000000000000006 0.040000000000000001 0
0.94000000000000006 0.54999999999999993 0
0.94000000000000006 0.56000000000000005 0
0.94000000000000006 0.58000000000000007 0
0.95999999999999996 0 0
0.95999999999999996 0.020000000000000004 0
0.95999999999999996 0.040000000000000001 0
0.95999999999999996 0.54999999999999993 0
0.95999999999999996 0.56000000000000005 0
0.95999999999999996 0.58000000000000007 0
0.97999999999999998 0 0
0.97999999999999998 0.020000000000000004 0
0.97999999999999998 0.040000000000000001 0
0.97999999999999998 0.54999999999999993 0
0.97999999999999998 0.56000000000000005 0
0.97999999999999998 0.58000000000000007 0
1 0 0
1 0.020000000000000004 0
1 0.040000000000000001 0
1 0.54999999999999993 0
1 0.56000000000000005 0
1 0.58000000000000007 0
VERTICES 681 1362
1 0
1 1
1 2
1 3
1 4
1 5
1 6
1 7
1 8
1 9
1 10
1 11
1 12
1 13
1 14
1 15
1 16
1 17
1 18
1 19
1 20
1 21
1 22
1 23
1 24
1 25
1 26
1 27
1 28
1 29
1 30
1 31
1 32
1 33
1 34
1 35
1 36
1 37
1 38
1 39
1 40
1 41
1 42
1 43
1 44
1 45
1 46
1 47
1 48
1 49
1 50
1 51
1 52
1 53
1 54
1 55
1 56
1 57
1 58
1 59
1 60
1 61
1 62
1 63
1 64
1 65
1 66
1 67
1 68
1 69
1 70
1 71
1 72
1 73
1 74
1 75
1 76
1 77
1 78
1 79
1 80
1 81
1 82
1 83
1 84
1 85
1 86
1 87
1 88
1 89
1 90
1 91
1 92
1 93
1 94
1 95
1 96
1 97
1 98
1 99
1 100
1 101
1 102
1 103
1 104
1 105
1 106
1 107
1 108
1 109
1 110
1 111
1 112
1 113
1 114
1 115
1 116
1 117
1 118
1 119
1 120
1 121
1 122
1 123
1 124
1 125
1 126
1 127
1 128
1 129
1 130
1 131
1 132
1 133
1 134
1 135
1 136
1 137
1 138
1 139
1 140
1 141
1 142
1 143
1 144
1 145
1 146
1 147
1 148
1 149
1 150
1 151
1 152
1 153
1 154
1 155
1 156
1 157
1 158
1 159
1 160
1 161
1 162
1 163
1 164
1 165
1 166
1 167
1 168
1 169
1 170
1 171
1 172
1 173
1 174
1 175
1 176
1 177
1 178
1 179
1 180
1 181
1 182
1 183
1 184
1 185
1 186
1 187
1 188
1 189
1 190
1 191
1 192
1 193
1 194
1 195
1 196
1 197
1 198
1 199
1 200
1 201
1 202
1 203
1 204
1 205
1 206
1 207
1 208
1 209
1 210
1 211
1 212
1 213
1 214
1 215
1 216
1 217
1 218
1 219
1 220
1 221
1 222
1 223
1 224
1 225
1 226
1 227
1 228
1 229
1 230
1 231
1 232
1 233
1 234
1 235
1 236
1 237
1 238
1 239
1 240
1 241
1 242
1 243
1 244
1 245
1 246
1 247
1 248
1 249
1 250
1 251
1 252
1 253
1 254
1 255
1 256
1 257
1 258
1 259
1 260
1 261
1 262
1 263
1 264
1 265
1 266
1 267
1 268
1 269
1 270
1 271
1 272
1 273
1 274
1 275
1 276
1 277
1 278
1 279
1 280
1 281
1 282
1 283
1 284
1 285
1 286
1 287
1 288
1 289
1 290
1 291
1 292
1 293
1 294
1 295
1 296
1 297
1 298
1 299
1 300
1 301
1 302
1 303
1 304
1 305
1 306
1 307
1 308
1 309
1 310
1 311
1 312
1 313
1 314
1 315
1 316
1 317
1 318
1 319
1 320
1 321
1 322
1 323
1 324
1 325
1 326
1 327
1 328
1 329
1 330
1 331
1 332
1 333
1 334
1 335
1 336
1 337
1 338
1 339
1 340
1 341
1 342
1 343
1 344
1 345
1 346
1 347
1 348
1 349
1 350
1 351
1 352
1 353
1 354
1 355
1 356
1 357
1 358
1 359
1 360
1 361
1 362
1 363
1 364
1 365
1 366
1 367
1 368
1 369
1 370
1 371
1 372
1 373
1 374
1 375
1 376
1 377
1 378
1 379
1 380
1 381
1 382
1 383
1 384
1 385
1 386
1 387
1 388
1 389
1 390
1 391
1 392
1 393
1 394
1 395
1 396
1 397
1 398
1 399
1 400
1 401
1 402
1 403
1 404
1 405
1 406
1 407
1 408
1 409
1 410
1 411
1 412
1 413
1 414
1 415
1 416
1 417
1 418
1 419
1 420
1 421
1 422
1 423
1 424
1 425
1 426
1 427
1 428
1 429
1 430
1 431
1 432
1 433
1 434
1 435
1 436
1 437
1 438
1 439
1 440
1 441
1 442
1 443
1 444
1 445
1 446
1 447
1 448
1 449
1 450
1 451
1 452
1 453
1 454
1 455
1 456
1 457
1 458
1 459
1 460
1 461
1 462
1 463
1 464
1 465
1 466
1 467
1 468
1 469
1 470
1 471
1 472
1 473
1 474
1 475
1 476
1 477
1 478
1 479
1 480
1 481
1 482
1 483
1 484
1 485
1 486
1 487
1 488
1 489
1 490
1 491
1 492
1 493
1 494
1 495
1 496
1 497
1 498
1 499
1 500
1 501
1 502
1 503
1 504
1 505
1 506
1 507
1 508
1 509
1 510
1 511
1 512
1 513
1 514
1 515
1 516
1 517
1 518
1 519
1 520
1 521
1 522
1 523
1 524
1 525
1 526
1 527
1 528
1 529
1 530
1 531
1 532
1 533
1 534
1 535
1 536
1 537
1 538
1 539
1 540
1 541
1 542
1 543
1 544
1 545
1 546
1 547
1 548
1 549
1 550
1 551
1 552
1 553
1 554
1 555
1 556
1 557
1 558
1 559
1 560
1 561
1 562
1 563
1 564
1 565
1 566
1 567
1 568
1 569
1 570
1 571
1 572
1 573
1 574
1 575
1 576
1 577
1 578
1 579
1 580
1 581
1 582
1 583
1 584
1 585
1 586
1 587
1 588
1 589
1 590
1 591
1 592
1 593
1 594
1 595
1 596
1 597
1 598
1 599
1 600
1 601
1 602
1 603
1 604
1 605
1 606
1 607
1 608
1 609
1 610
1 611
1 612
1 613
1 614
1 615
1 616
1 617
1 618
1 619
1 620
1 621
1 622
1 623
1 624
1 625
1 626
1 627
1 628
1 629
1 630
1 631
1 632
1 633
1 634
1 635
1 636
1 637
1 638
1 639
1 640
1 641
1 642
1 643
1 644
1 645
1 646
1 647
1 648
1 649
1 650
1 651
1 652
1 653
1 654
1 655
1 656
1 657
1 658
1 659
1 660
1 661
1 662
1 663
1 664
1 665
1 666
1 667
1 668
1 669
1 670
1 671
1 672
1 673
1 674
1 675
1 676
1 677
1 678
1 679
1 680
POINT_DATA 681
SCALARS is_boundary int 1
LOOKUP_TABLE default
0
0
0
0
0
0
0
0
0
0
0
0
0
0
0
0
0
0
0
0
0
0
0
0
0
0
0
0
0
0
0
0
0
0
0
0
0
0
0
0
0
0
0
0
0
0
0
0
0
0
0
0
0
0
0
0
0
0
0
0
0
0
0
0
0
0
0
0
0
0
0
0
0
0
0
0
0
0
0
0
0
0
0
0
0
0
0
0
0
0
0
0
0
0
0
0
0
0
0
0
0
0
0
0
0
0
0
0
0
0
0
0
0
0
0
0
0
0
0
0
0
0
0
0
0
0
0
0
0
0
0
0
0
0
0
0
0
0
0
0
0
0
0
0
0
0
0
0
0
0
0
0
0
0
0
0
0
0
0
0
0
0
0
0
0
0
0
0
0
0
0
0
0
0
0
0
0
0
0
0
0
0
0
0
0
0
0
0
0
0
0
0
0
0
0
0
0
0
0
0
0
0
0
0
0
0
0
0
0
0
0
0
0
0
0
0
0
0
0
0
0
0
0
0
0
0
0
0
0
0
0
0
0
0
0
0
0
0
0
0
0
0
0
0
0
0
0
0
0
0
0
0
0
0
0
0
0
0
0
0
0
0
0
0
0
0
0
0
0
0
0
0
0
0
0
0
0
0
0
0
0
0
0
0
0
0
0
0
0
0
0
0
0
0
0
0
0
0
0
0
0
0
0
0
0
0
0
0
0
0
0
0
0
0
0
0
0
0
0
0
0
0
0
0
0
0
0
0
0
0
0
0
0
0
0
0
0
0
0
0
0
0
0
0
0
0
0
0
0
0
0
0
0
0
0
0
0
0
0
0
0
0
0
0
0
0
0
0
0
0
0
0
0
0
0
1
1
1
1
1
1
1
1
1
1
1
1
1
1
1
1
1
1
1
1
1
1
1
1
1
1
1
1
1
1
1
1
1
1
1
1
1
1
1
1
1
1
1
1
1
1
1
1
1
1
1
1
1
1
1
1
1
1
1
1
1
1
1
1
1
1
1
1
1
1
1
1
1
1
1
1
1
1
1
1
1
1
1
1
1
1
1
1
1
1
1
1
1
1
1
1
1
1
1
1
1
1
1
1
1
1
1
1
1
1
1
1
1
1
1
1
1
1
1
1
1
1
1
1
1
1
1
1
1
1
1
1
1
1
1
1
1
1
1
1
1
1
1
1
1
1
1
1
1
1
1
1
1
1
1
1
1
1
1
1
1
1
1
1
1
1
1
1
1
1
1
1
1
1
1
1
1
1
1
1
1
1
1
1
1
1
1
1
1
1
1
1
1
1
1
1
1
1
1
1
1
1
1
1
1
1
1
1
1
1
1
1
1
1
1
1
1
1
1
1
1
1
1
1
1
1
1
1
1
1
1
1
1
1
1
1
1
1
1
1
1
1
1
1
1
1
1
1
1
1
1
1
1
1
1
1
1
1
1
1
1
1
1
1
1
1
1
1
1
1
1
1
1
1
1
1
1
1
1
1
1
1
1
1
1
1
1
1
1
1
1
1
1
1
1
1
1
1
1
1
1
1
1
1
1
1
SCALARS rho float 1
LOOKUP_TABLE default
1020
1020
1019.0198746413919
869.89418431614035
862
862
862
862
862
862
862
862
862
862
862
862
862
862
862
862
862
862
862
862
850
1020
1020
1020
1020
1016.152058246596
1002.5091860999382
999.68856096452214
999.13737021024372
999.03605045889276
999.01864672597003
999.01585609666563
999.01543750249107
999.01537636847365
999.01535045033415
999.01521986770103
999.01435919449614
999.00907318851341
998.97923077404312
998.82562051685909
998.11206690471226
995.16198593413037
984.51607411056261
951.5698351012129
864.11173349754517
850
1020
1020
1020
1020
1017.8673077205342
1003.639061361049
1000.7017592471736
1000.1276089926214
1000.0217214703252
1000.0034560038375
1000.0005145406285
1000.0000715031192
1000.000006546346
999.99997900080916
999.99984088876363
999.99893401917552
999.99338497330336
999.96216962858284
999.8020181258114
999.06031013642428
996.00476879876919
985.05408747954971
951.81429599771127
865.14232138362638
850
1020
1020
1020
1020
1018.0693185360078
1003.6867045266565
1000.7117317595732
1000.1296259319445
1000.0221093880737
1000.0035256976148
1000.0005261514575
1000.0000732868691
1000.0000067301426
999.99997851979083
999.99983755129551
999.99891402765047
999.99327503748282
999.96161629850826
999.79948842894555
999.05001959318747
995.96948395246682
984.96544680344982
951.72231946564352
865.15764866104496
850
1020
1020
1020
1020
1018.1185456513301
1003.7017024127013
1000.7152967995567
1000.1303907394142
1000.0222619373903
1000.0035540455142
1000.0005310424879
1000.0000740653875
1000.0000068159266
999.99997833276575
999.99983630800193
999.99890702628613
999.99323913950911
999.96144973829973
999.79879974259438
999.04757011705783
995.96255883829781
984.95241352891821
951.70942409950817
865.15744066963475
850
1020
1020
1020
1020
1018.1284892203137
1003.7054451488973
1000.7163369593122
1000.1306354167464
1000.0223135461019
1000.0035640393858
1000.0005328322056
1000.0000743609626
1000.0000068514305
999.99997827571133
999.99983594883929
999.99890517774725
999.9932305876946
999.96141444536147
999.79867226567467
999.04718305201027
995.96164143065403
984.95083505554067
951.70771248917185
865.15730707010505
850
1020
1020
1020
1020
1018.1302408517506
1003.7062283478176
1000.7165888410907
1000.1307013006644
1000.0223284569443
1000.0035670721331
1000.0005333971578
1000.0000744577667
1000.0000068642892
999.99997826321737
999.99983587567544
999.99890485577521
999.99322935646524
999.96141037631378
999.79866070398657
999.04715460143643
995.96157755789159
984.9507035463289
951.70752210224077
865.15727474318521
850
1020
1020
1020
1020
1018.1304791287437
1003.7063490907663
1000.7166321647182
1000.130713658519
1000.022331432139
1000.0035677037629
1000.0005335186577
1000.0000744791776
1000.0000068673789
999.99997826169874
999.99983586771145
999.99890483234003
999.99322932196856
999.96141047199944
999.79866154881438
999.04715735755485
995.96158148600011
984.95070131488933
951.70750694384242
865.15726796273123
850
1020
1020
1020
1020
1018.130240851749
1003.7062283478165
1000.7165888410893
1000.1307013006631
1000.0223284569429
1000.003567072132
1000.0005333971565
1000.0000744577655
1000.0000068642878
999.99997826321601
999.99983587567431
999.99890485577384
999.99322935646387
999.96141037631219
999.79866070398521
999.04715460143507
995.96157755789022
984.95070354632776
951.70752210223964
865.15727474318464
850
1020
1020
1020
1020
1018.1284892203137
1003.7054451488973
1000.7163369593122
1000.1306354167461
1000.0223135461019
1000.0035640393858
1000.0005328322056
1000.0000743609626
1000.0000068514305
999.99997827571133
999.99983594883929
999.99890517774725
999.99323058769482
999.96141444536147
999.79867226567444
999.04718305201027
995.96164143065403
984.95083505554044
951.70771248917185
865.15730707010516
850
1020
1020
1020
1020
1018.1185456513308
1003.7017024127019
1000.7152967995571
1000.1303907394147
1000.0222619373908
1000.0035540455149
1000.0005310424885
1000.0000740653882
1000.000006815927
999.9999783327662
999.99983630800284
999.99890702628659
999.9932391395098
999.96144973830019
999.79879974259507
999.04757011705851
995.96255883829849
984.9524135289189
951.70942409950885
865.15744066963509
850
1020
1020
1020
1020
1018.069318536008
1003.686704526657
1000.7117317595735
1000.1296259319447
1000.0221093880741
1000.0035256976148
1000.0005261514577
1000.0000732868693
1000.000006730143
999.99997851979106
999.99983755129574
999.9989140276507
999.99327503748304
999.96161629850849
999.79948842894555
999.05001959318793
995.96948395246727
984.96544680345005
951.72231946564398
865.15764866104519
850
1020
1020
1020
1020
1017.8673077205335
1003.6390613610483
1000.7017592471727
1000.1276089926207
1000.0217214703246
1000.0034560038371
1000.0005145406276
1000.0000715031188
1000.0000065463455
999.99997900080848
999.99984088876295
999.99893401917507
999.99338497330268
999.96216962858239
999.80201812581072
999.06031013642382
996.00476879876828
985.05408747954903
951.81429599771081
865.14232138362615
850
1020
1020
1020
1020
1016.1520582465967
1002.5091860999389
999.68856096452259
999.1373702102444
999.03605045889344
999.01864672597071
999.01585609666608
999.01543750249175
999.01537636847434
999.01535045033484
999.01521986770149
999.01435919449659
999.00907318851409
998.9792307740438
998.82562051685954
998.11206690471295
995.16198593413105
984.51607411056352
951.56983510121358
864.11173349754552
850
1020
1020
1019.019874641393
869.89418431614104
862
862
862
862
862
862
862
862
862
862
862
862
862
862
862
862
862
862
862
862
850
1000
1000
1000
1000
1000
1000
1000
1000
1000
1000
1000
1000
1000
1000
1000
1000
1000
1000
1000
1000
1000
1000
1000
1000
1000
1000
1000
1000
1000
1000
1000
1000
1000
1000
1000
1000
1000
1000
1000
1000
1000
1000
1000
1000
1000
1000
1000
1000
1000
1000
1000
1000
1000
1000
1000
1000
1000
1000
1000
1000
1000
1000
1000
1000
1000
1000
1000
1000
1000
1000
1000
1000
1000
1000
1000
1000
1000
1000
1000
1000
1000
1000
1000
1000
1000
1000
1000
1000
1000
1000
1000
1000
1000
1000
1000
1000
1000
1000
1000
1000
1000
1000
1000
1000
1000
1000
1000
1000
1000
1000
1000
1000
1000
1000
1000
1000
1000
1000
1000
1000
1000
1000
1000
1000
1000
1000
1000
1000
1000
1000
1000
1000
1000
1000
1000
1000
1000
1000
1000
1000
1000
1000
1000
1000
1000
1000
1000
1000
1000
1000
1000
1000
1000
1000
1000
1000
1000
1000
1000
1000
1000
1000
1000
1000
1000
1000
1000
1000
1000
1000
1000
1000
1000
1000
1000
1000
1000
1000
1000
1000
1000
1000
1000
1000
1000
1000
1000
1000
1000
1000
1000
1000
1000
1000
1000
1000
1000
1000
1000
1000
1000
1000
1000
1000
1000
1000
1000
1000
1000
1000
1000
1000
1000
1000
1000
1000
1000
1000
1000
1000
1000
1000
1000
1000
1000
1000
1000
1000
1000
1000
1000
1000
1000
1000
1000
1000
1000
1000
1000
1000
1000
1000
1000
1000
1000
1000
1000
1000
1000
1000
1000
1000
1000
1000
1000
1000
1000
1000
1000
1000
1000
1000
1000
1000
1000
1000
1000
1000
1000
1000
1000
1000
1000
1000
1000
1000
1000
1000
1000
1000
1000
1000
1000
1000
1000
1000
1000
1000
1000
1000
1000
1000
1000
1000
1000
1000
1000
1000
1000
1000
1000
1000
1000
1000
1000
1000
SCALARS p float 1
LOOKUP_TABLE default
25004.681136676067
25004.681136676067
23709.050644107021
0
0
0
0
0
0
0
0
0
0
0
0
0
0
0
0
0
0
0
0
0
0
25004.681136676067
25004.681136676067
25004.681136676067
25004.681136676067
19960.76601269831
2976.1421029641697
0
0
0
0
0
0
0
0
0
0
0
0
0
0
0
0
0
0
0
25004.681136676067
25004.681136676067
25004.681136676067
25004.681136676067
22195.004967645564
4330.9558803969203
827.85221442929253
150.27882711520917
25.57218121480431
4.0684498991159481
0.60571816292309677
0.08417348999948869
0.0077063585543792256
0
0
0
0
0
0
0
0
0
0
0
0
25004.681136676067
25004.681136676067
25004.681136676067
25004.681136676067
22459.629713968094
4388.2853661271574
839.64172570139647
152.65500096589105
26.028898038450027
4.1504951320496559
0.61938647346203424
0.08627332117734049
0.0079227240950631647
0
0
0
0
0
0
0
0
0
0
0
0
25004.681136676067
25004.681136676067
25004.681136676067
25004.681136676067
22524.162696289288
4406.3358479541093
843.85648956006423
153.55603485087252
26.20850300021263
4.1838669879578232
0.62514421252938746
0.087189793402535951
0.0080237088132508114
0
0
0
0
0
0
0
0
0
0
0
0
25004.681136676067
25004.681136676067
25004.681136676067
25004.681136676067
22537.200227465604
4410.8406145476938
845.08623404815319
153.84429463326316
26.269264900235296
4.1956320249925891
0.62725107519737222
0.087537744583089869
0.0080655041740231234
0
0
0
0
0
0
0
0
0
0
0
0
25004.681136676067
25004.681136676067
25004.681136676067
25004.681136676067
22539.496961817029
4411.7832874678306
845.38402621613693
153.92191400820991
26.286820294786157
4.1992022515795293
0.62791613892043685
0.087651702430819559
0.0080806413215585501
0
0
0
0
0
0
0
0
0
0
0
0
25004.681136676067
25004.681136676067
25004.681136676067
25004.681136676067
22539.809391791074
4411.9286163398201
845.43524646903847
153.93647308721103
26.290323163325727
4.1999458219336185
0.62805916907581361
0.087676907347944422
0.0080842785760561406
0
0
0
0
0
0
0
0
0
0
0
0
25004.681136676067
25004.681136676067
25004.681136676067
25004.681136676067
22539.496961814977
4411.7832874664864
845.38402621456862
153.92191400664154
26.286820293217811
4.1992022500111839
0.6279161373520914
0.087651701123865014
0.0080806397532130966
0
0
0
0
0
0
0
0
0
0
0
0
25004.681136676067
25004.681136676067
25004.681136676067
25004.681136676067
22537.200227465604
4410.8406145476938
845.08623404815319
153.84429463300177
26.269264900235296
4.1956320249925891
0.62725107519737222
0.087537744583089869
0.0080655041740231234
0
0
0
0
0
0
0
0
0
0
0
0
25004.681136676067
25004.681136676067
25004.681136676067
25004.681136676067
22524.162696290146
4406.3358479549306
843.85648956058697
153.5560348516567
26.208503000735412
4.1838669887419959
0.62514421357495109
0.087189794448099586
0.0080237093360326292
0
0
0
0
0
0
0
0
0
0
0
0
25004.681136676067
25004.681136676067
25004.681136676067
25004.681136676067
22459.629713968356
4388.2853661277177
839.64172570165783
152.65500096615244
26.028898038972809
4.1504951320496559
0.61938647372342515
0.086273321438731398
0.0079227246178449826
0
0
0
0
0
0
0
0
0
0
0
0
25004.681136676067
25004.681136676067
25004.681136676067
25004.681136676067
22195.004967644705
4330.955880396099
827.85221442824695
150.27882711442498
25.572181214020137
4.0684498985931663
0.60571816187753313
0.084173489476706873
0.0077063580315974078
0
0
0
0
0
0
0
0
0
0
0
0
25004.681136676067
25004.681136676067
25004.681136676067
25004.681136676067
19960.766012699209
2976.1421029649541
0
0
0
0
0
0
0
0
0
0
0
0
0
0
0
0
0
0
0
25004.681136676067
25004.681136676067
23709.050644108513
0
0
0
0
0
0
0
0
0
0
0
0
0
0
0
0
0
0
0
0
0
0
0
0
0
0
0
0
0
23078.182947334706
24919.654878644214
0
0
0
0
24944.021680156762
24889.266366643402
0
0
0
0
24974.213927926408
24944.524968441066
0
0
0
0
24974.958840239578
25001.363908142648
0
0
0
0
24974.923660724457
25001.359499788778
0
0
0
0
24974.911162970879
25001.358388796456
0
0
0
0
24974.910090711503
25001.358221863073
0
0
0
0
24974.910041340321
25001.358199156679
0
0
0
0
24974.910032176966
25001.358195961962
0
0
0
0
24974.910032176966
25001.358195962261
0
0
0
0
24974.910041340321
25001.358199156981
0
0
0
0
24974.910090711503
25001.358221863371
0
0
0
0
24974.911162970879
25001.358388796456
0
0
0
0
24974.923660724195
25001.359499788778
0
0
0
0
24974.958840239578
25001.363908142946
0
0
0
0
24974.213927926408
24944.524968441066
0
0
0
0
24944.02168015706
24889.266366643104
0
0
0
0
23078.182947334706
24919.654878644513
0
0
0
0
0
0
0
0
0
0
0
0
0
0
0
0
0
0
0
0
0
0
0
0
0
0
0
0
0
0
0
0
0
0
0
0
0
0
0
0
0
0
0
0
0
0
0
0
0
0
0
0
0
0
0
0
0
0
0
0
0
0
0
0
0
0
0
0
0
0
0
0
0
0
0
0
0
0
0
0
0
0
0
0
0
0
0
0
0
0
0
0
0
0
0
0
0
0
0
0
0
0
0
0
0
0
0
0
0
0
0
0
0
0
0
0
0
0
0
0
0
0
0
0
0
0
0
0
0
0
0
0
0
0
0
0
0
0
0
0
0
0
0
0
0
0
0
0
0
0
0
0
0
0
0
0
0
0
0
0
0
0
0
0
0
0
0
0
0
0
0
0
0
0
0
0
0
0
0
0
0
0
0
0
0
0
0
0
0
0
0
0
0
0
0
SCALARS m float 1
LOOKUP_TABLE default
0.39942306611962441
0.39942306611962441
0.39942306611962441
0.39942306611962441
0.39942306611962441
0.39942306611962441
0.39942306611962441
0.39942306611962441
0.39942306611962441
0.39942306611962441
0.39942306611962441
0.39942306611962441
0.39942306611962441
0.39942306611962441
0.39942306611962441
0.39942306611962441
0.39942306611962441
0.39942306611962441
0.39942306611962441
0.39942306611962441
0.39942306611962441
0.39942306611962441
0.39942306611962441
0.39942306611962441
0.39942306611962441
0.39942306611962441
0.39942306611962441
0.39942306611962441
0.39942306611962441
0.39942306611962441
0.39942306611962441
0.39942306611962441
0.39942306611962441
0.39942306611962441
0.39942306611962441
0.39942306611962441
0.39942306611962441
0.39942306611962441
0.39942306611962441
0.39942306611962441
0.39942306611962441
0.39942306611962441
0.39942306611962441
0.39942306611962441
0.39942306611962441
0.39942306611962441
0.39942306611962441
0.39942306611962441
0.39942306611962441
0.39942306611962441
0.39942306611962441
0.39942306611962441
0.39942306611962441
0.39942306611962441
0.39942306611962441
0.39942306611962441
0.39942306611962441
0.39942306611962441
0.39942306611962441
0.39942306611962441
0.39942306611962441
0.39942306611962441
0.39942306611962441
0.39942306611962441
0.39942306611962441
0.39942306611962441
0.39942306611962441
0.39942306611962441
0.39942306611962441
0.39942306611962441
0.39942306611962441
0.39942306611962441
0.39942306611962441
0.39942306611962441
0.39942306611962441
0.39942306611962441
0.39942306611962441
0.39942306611962441
0.39942306611962441
0.39942306611962441
0.39942306611962441
0.39942306611962441
0.39942306611962441
0.39942306611962441
0.39942306611962441
0.39942306611962441
0.39942306611962441
0.39942306611962441
0.39942306611962441
0.39942306611962441
0.39942306611962441
0.39942306611962441
0.39942306611962441
0.39942306611962441
0.39942306611962441
0.39942306611962441
0.39942306611962441
0.39942306611962441
0.39942306611962441
0.39942306611962441
0.39942306611962441
0.39942306611962441
0.39942306611962441
0.39942306611962441
0.39942306611962441
0.39942306611962441
0.39942306611962441
0.39942306611962441
0.39942306611962441
0.39942306611962441
0.39942306611962441
0.39942306611962441
0.39942306611962441
0.39942306611962441
0.39942306611962441
0.39942306611962441
0.39942306611962441
0.39942306611962441
0.39942306611962441
0.39942306611962441
0.39942306611962441
0.39942306611962441
0.39942306611962441
0.39942306611962441
0.39942306611962441
0.39942306611962441
0.39942306611962441
0.39942306611962441
0.39942306611962441
0.39942306611962441
0.39942306611962441
0.39942306611962441
0.39942306611962441
0.39942306611962441
0.39942306611962441
0.39942306611962441
0.39942306611962441
0.39942306611962441
0.39942306611962441
0.39942306611962441
0.39942306611962441
0.39942306611962441
0.39942306611962441
0.39942306611962441
0.39942306611962441
0.39942306611962441
0.39942306611962441
0.39942306611962441
0.39942306611962441
0.39942306611962441
0.39942306611962441
0.39942306611962441
0.39942306611962441
0.39942306611962441
0.39942306611962441
0.39942306611962441
0.39942306611962441
0.39942306611962441
0.39942306611962441
0.39942306611962441
0.39942306611962441
0.39942306611962441
0.39942306611962441
0.39942306611962441
0.39942306611962441
0.39942306611962441
0.39942306611962441
0.39942306611962441
0.39942306611962441
0.39942306611962441
0.39942306611962441
0.39942306611962441
0.39942306611962441
0.39942306611962441
0.39942306611962441
0.39942306611962441
0.39942306611962441
0.39942306611962441
0.39942306611962441
0.39942306611962441
0.39942306611962441
0.39942306611962441
0.39942306611962441
0.39942306611962441
0.39942306611962441
0.39942306611962441
0.39942306611962441
0.39942306611962441
0.39942306611962441
0.39942306611962441
0.39942306611962441
0.39942306611962441
0.39942306611962441
0.39942306611962441
0.39942306611962441
0.39942306611962441
0.39942306611962441
0.39942306611962441
0.39942306611962441
0.39942306611962441
0.39942306611962441
0.39942306611962441
0.39942306611962441
0.39942306611962441
0.39942306611962441
0.39942306611962441
0.39942306611962441
0.39942306611962441
0.39942306611962441
0.39942306611962441
0.39942306611962441
0.39942306611962441
0.39942306611962441
0.39942306611962441
0.39942306611962441
0.39942306611962441
0.39942306611962441
0.39942306611962441
0.39942306611962441
0.39942306611962441
0.39942306611962441
0.39942306611962441
0.39942306611962441
0.39942306611962441
0.39942306611962441
0.39942306611962441
0.39942306611962441
0.39942306611962441
0.39942306611962441
0.39942306611962441
0.39942306611962441
0.39942306611962441
0.39942306611962441
0.39942306611962441
0.39942306611962441
0.39942306611962441
0.39942306611962441
0.39942306611962441
0.39942306611962441
0.39942306611962441
0.39942306611962441
0.39942306611962441
0.39942306611962441
0.39942306611962441
0.39942306611962441
0.39942306611962441
0.39942306611962441
0.39942306611962441
0.39942306611962441
0.39942306611962441
0.39942306611962441
0.39942306611962441
0.39942306611962441
0.39942306611962441
0.39942306611962441
0.39942306611962441
0.39942306611962441
0.39942306611962441
0.39942306611962441
0.39942306611962441
0.39942306611962441
0.39942306611962441
0.39942306611962441
0.39942306611962441
0.39942306611962441
0.39942306611962441
0.39942306611962441
0.39942306611962441
0.39942306611962441
0.39942306611962441
0.39942306611962441
0.39942306611962441
0.39942306611962441
0.39942306611962441
0.39942306611962441
0.39942306611962441
0.39942306611962441
0.39942306611962441
0.39942306611962441
0.39942306611962441
0.39942306611962441
0.39942306611962441
0.39942306611962441
0.39942306611962441
0.39942306611962441
0.39942306611962441
0.39942306611962441
0.39942306611962441
0.39942306611962441
0.39942306611962441
0.39942306611962441
0.39942306611962441
0.39942306611962441
0.39942306611962441
0.39942306611962441
0.39942306611962441
0.39942306611962441
0.39942306611962441
0.39942306611962441
0.39942306611962441
0.39942306611962441
0.39942306611962441
0.39942306611962441
0.39942306611962441
0.39942306611962441
0.39942306611962441
0.39942306611962441
0.39942306611962441
0.39942306611962441
0.39942306611962441
0.39942306611962441
0.39942306611962441
0.39942306611962441
0.39942306611962441
0.39942306611962441
0.39942306611962441
0.39942306611962441
0.39942306611962441
0.39942306611962441
0.39942306611962441
0.39942306611962441
0.39942306611962441
0.39942306611962441
0.39942306611962441
0.39942306611962441
0.39942306611962441
0.39942306611962441
0.39942306611962441
0.39942306611962441
0.39942306611962441
0.39942306611962441
0.39942306611962441
0.39942306611962441
0.39942306611962441
0.39942306611962441
0.39942306611962441
0.39942306611962441
0.39942306611962441
0.39942306611962441
0.39942306611962441
0.39942306611962441
0.39942306611962441
0.39942306611962441
0.39942306611962441
0.39942306611962441
0.39942306611962441
0.39942306611962441
0.39942306611962441
0.39942306611962441
0.39942306611962441
0.39942306611962441
0.39942306611962441
0.39942306611962441
0.39942306611962441
0.39942306611962441
0.39942306611962441
0.39942306611962441
0.39942306611962441
0.39942306611962441
0.39942306611962441
0.39942306611962441
0.39942306611962441
0.39942306611962441
0.39942306611962441
0.39942306611962441
0.39942306611962441
0.39942306611962441
0.39942306611962441
0.39942306611962441
0.39942306611962441
0.39942306611962441
0.39942306611962441
0.39942306611962441
0.39942306611962441
0.39942306611962441
0.39942306611962441
0.39942306611962441
0.39942306611962441
0.39942306611962441
0.39942306611962441
0.39942306611962441
0.39942306611962441
0.39942306611962441
0.39942306611962441
0.39942306611962441
0.39942306611962441
0.39942306611962441
0.39942306611962441
0.39942306611962441
0.39942306611962441
0.39942306611962441
0.39942306611962441
0.39942306611962441
0.39942306611962441
0.39942306611962441
0.39942306611962441
0.39942306611962441
0.39942306611962441
0.39942306611962441
0.39942306611962441
0.39942306611962441
0.39942306611962441
0.39942306611962441
0.39942306611962441
0.39942306611962441
0.39942306611962441
0.39942306611962441
0.39942306611962441
0.39942306611962441
0.39942306611962441
0.39942306611962441
0.39942306611962441
0.39942306611962441
0.39942306611962441
0.39942306611962441
0.39942306611962441
0.39942306611962441
0.39942306611962441
0.39942306611962441
0.39942306611962441
0.39942306611962441
0.39942306611962441
0.39942306611962441
0.39942306611962441
0.39942306611962441
0.39942306611962441
0.39942306611962441
0.39942306611962441
0.39942306611962441
0.39942306611962441
0.39942306611962441
0.39942306611962441
0.39942306611962441
0.39942306611962441
0.39942306611962441
0.39942306611962441
0.39942306611962441
0.39942306611962441
0.39942306611962441
0.39942306611962441
0.39942306611962441
0.39942306611962441
0.39942306611962441
0.39942306611962441
0.39942306611962441
0.39942306611962441
0.39942306611962441
0.39942306611962441
0.39942306611962441
0.39942306611962441
0.39942306611962441
0.39942306611962441
0.39942306611962441
0.39942306611962441
0.39942306611962441
0.39942306611962441
0.39942306611962441
0.39942306611962441
0.39942306611962441
0.39942306611962441
0.39942306611962441
0.39942306611962441
0.39942306611962441
0.39942306611962441
0.39942306611962441
0.39942306611962441
0.39942306611962441
0.39942306611962441
0.39942306611962441
0.39942306611962441
0.39942306611962441
0.39942306611962441
0.39942306611962441
0.39942306611962441
0.39942306611962441
0.39942306611962441
0.39942306611962441
0.39942306611962441
0.39942306611962441
0.39942306611962441
0.39942306611962441
0.39942306611962441
0.39942306611962441
0.39942306611962441
0.39942306611962441
0.39942306611962441
0.39942306611962441
0.39942306611962441
0.39942306611962441
0.39942306611962441
0.39942306611962441
0.39942306611962441
0.39942306611962441
0.39942306611962441
0.39942306611962441
0.39942306611962441
0.39942306611962441
0.39942306611962441
0.39942306611962441
0.39942306611962441
0.39942306611962441
0.39942306611962441
0.39942306611962441
0.39942306611962441
0.39942306611962441
0.39942306611962441
0.39942306611962441
0.39942306611962441
0.39942306611962441
0.39942306611962441
0.39942306611962441
0.39942306611962441
0.39942306611962441
0.39942306611962441
0.39942306611962441
0.39942306611962441
0.39942306611962441
0.39942306611962441
0.39942306611962441
0.39942306611962441
0.39942306611962441
0.39942306611962441
0.39942306611962441
0.39942306611962441
0.39942306611962441
0.39942306611962441
0.39942306611962441
0.39942306611962441
0.39942306611962441
0.39942306611962441
0.39942306611962441
0.39942306611962441
0.39942306611962441
0.39942306611962441
0.39942306611962441
0.39942306611962441
0.39942306611962441
0.39942306611962441
0.39942306611962441
0.39942306611962441
0.39942306611962441
0.39942306611962441
0.39942306611962441
0.39942306611962441
0.39942306611962441
0.39942306611962441
0.39942306611962441
0.39942306611962441
0.39942306611962441
0.39942306611962441
0.39942306611962441
0.39942306611962441
0.39942306611962441
0.39942306611962441
0.39942306611962441
0.39942306611962441
0.39942306611962441
0.39942306611962441
0.39942306611962441
0.39942306611962441
0.39942306611962441
0.39942306611962441
0.39942306611962441
0.39942306611962441
0.39942306611962441
0.39942306611962441
0.39942306611962441
0.39942306611962441
0.39942306611962441
0.39942306611962441
0.39942306611962441
0.39942306611962441
0.39942306611962441
0.39942306611962441
0.39942306611962441
0.39942306611962441
0.39942306611962441
0.39942306611962441
0.39942306611962441
0.39942306611962441
0.39942306611962441
0.39942306611962441
0.39942306611962441
0.39942306611962441
0.39942306611962441
0.39942306611962441
0.39942306611962441
0.39942306611962441
0.39942306611962441
0.39942306611962441
0.39942306611962441
0.39942306611962441
0.39942306611962441
0.39942306611962441
0.39942306611962441
0.39942306611962441
0.39942306611962441
0.39942306611962441
0.39942306611962441
0.39942306611962441
0.39942306611962441
0.39942306611962441
0.39942306611962441
0.39942306611962441
0.39942306611962441
0.39942306611962441
0.39942306611962441
0.39942306611962441
0.39942306611962441
0.39942306611962441
0.39942306611962441
0.39942306611962441
0.39942306611962441
0.39942306611962441
0.39942306611962441
0.39942306611962441
0.39942306611962441
0.39942306611962441
0.39942306611962441
0.39942306611962441
0.39942306611962441
0.39942306611962441
0.39942306611962441
0.39942306611962441
0.39942306611962441
0.39942306611962441
0.39942306611962441
0.39942306611962441
0.39942306611962441
0.39942306611962441
0.39942306611962441
0.39942306611962441
0.39942306611962441
0.39942306611962441
0.39942306611962441
0.39942306611962441
0.39942306611962441
0.39942306611962441
0.39942306611962441
0.39942306611962441
0.39942306611962441
0.39942306611962441
0.39942306611962441
0.39942306611962441
0.39942306611962441
0.39942306611962441
0.39942306611962441
0.39942306611962441
0.39942306611962441
0.39942306611962441
0.39942306611962441
0.39942306611962441
0.39942306611962441
0.39942306611962441
0.39942306611962441
0.39942306611962441
0.39942306611962441
0.39942306611962441
0.39942306611962441
0.39942306611962441
0.39942306611962441
0.39942306611962441
0.39942306611962441
0.39942306611962441
0.39942306611962441
0.39942306611962441
0.39942306611962441
0.39942306611962441
0.39942306611962441
0.39942306611962441
0.39942306611962441
0.39942306611962441
0.39942306611962441
0.39942306611962441
0.39942306611962441
0.39942306611962441
0.39942306611962441
0.39942306611962441
0.39942306611962441
0.39942306611962441
0.39942306611962441
VECTORS v float
0 -0.078349876400433255 0
0 -0.2370552429468924 0
0 -0.44740489332930378 0
0 -0.56448455394637798 0
0 -0.60075736368720067 0
0 -0.60972092020672575 0
0 -0.61166777455018395 0
0 -0.61205796364496201 0
0 -0.61213070475333109 0
0 -0.61214332217921208 0
0 -0.61214536011151599 0
0 -0.61214566701102247 0
0 -0.61214570854614192 0
0 -0.61214570086720077 0
0 -0.6121456063105305 0
0 -0.61214497793005462 0
0 -0.61214115437818895 0
0 -0.6121198666395028 0
0 -0.61201245338231147 0
0 -0.61152724879097586 0
0 -0.60959487927228806 0
0 -0.60292290260722414 0
0 -0.5831747782193466 0
0 -0.53226923054934294 0
0 -0.36900856912409075 0
0 -0.085309099950806877 0
0 -0.23700502282020997 0
0 -0.43522369790800153 0
0 -0.55829136685478276 0
0 -0.59941364518887319 0
0 -0.60943780635418598 0
0 -0.61160730218042625 0
0 -0.6120459043545482 0
0 -0.61212848477182535 0
0 -0.61214294450710871 0
0 -0.61214530054548399 0
0 -0.61214565822569267 0
0 -0.61214570698094439 0
0 -0.61214569800928742 0
0 -0.61214558783389106 0
0 -0.61214486159880399 0
0 -0.61214048195788551 0
0 -0.61211632712990416 0
0 -0.61199559943045578 0
0 -0.61145495686402429 0
0 -0.60931561432468295 0
0 -0.60195565518138427 0
0 -0.58033679745305244 0
0 -0.527642999114456 0
0 -0.3762338471202048 0
0 -0.085042353810890273 0
0 -0.23593823681158718 0
0 -0.43206660583581602 0
0 -0.55616842354219742 0
0 -0.59893360176423827 0
0 -0.6093438150371302 0
0 -0.61158789322397078 0
0 -0.61204198734077719 0
0 -0.61212774392571678 0
0 -0.61214281481284183 0
0 -0.61214527954698483 0
0 -0.61214565505618757 0
0 -0.61214570640798205 0
0 -0.61214569699646926 0
0 -0.61214558142051234 0
0 -0.61214482185679586 0
0 -0.61214025470445665 0
0 -0.61211513123966166 0
0 -0.61198980170188044 0
0 -0.61142900020899893 0
0 -0.60920897693773057 0
0 -0.60157009195222255 0
0 -0.57926250856817152 0
0 -0.5261715664073533 0
0 -0.37695668634869522 0
0 -0.084886651929295037 0
0 -0.23555278892302309 0
0 -0.43134955868982311 0
0 -0.55561236136724945 0
0 -0.59874477870820353 0
0 -0.60930056252345066 0
0 -0.61157876871802608 0
0 -0.6120401367988032 0
0 -0.61212738821699697 0
0 -0.61214275098719717 0
0 -0.6121452689221677 0
0 -0.61214565340720972 0
0 -0.61214570610466901 0
0 -0.61214569648872685 0
0 -0.61214557831996141 0
0 -0.61214480324296006 0
0 -0.61214015155447599 0
0 -0.6121146052202987 0
0 -0.6119873403338173 0
0 -0.6114185378439263 0
0 -0.60916980621810046 0
0 -0.60145032002852461 0
0 -0.57900572512511539 0
0 -0.52585685735693943 0
0 -0.37690858351622558 0
0 -0.084865902819326544 0
0 -0.23546614307476554 0
0 -0.4311934480473682 0
0 -0.55548104243918039 0
0 -0.598690359316573 0
0 -0.60928535115615168 0
0 -0.61157522700941891 0
0 -0.61203938707478289 0
0 -0.61212724013752629 0
0 -0.61214272369008793 0
0 -0.61214526424336635 0
0 -0.61214565265878917 0
0 -0.61214570596510964 0
0 -0.61214569627522963 0
0 -0.61214557708391759 0
0 -0.6121447961623292 0
0 -0.61214011420431569 0
0 -0.61211442471861055 0
0 -0.61198654775615624 0
0 -0.611415440567323 0
0 -0.60915950436399835 0
0 -0.6014233478909774 0
0 -0.57895520376836607 0
0 -0.52579635560839089 0
0 -0.37687684516208431 0
0 -0.084864142895355987 0
0 -0.23544995889617537 0
0 -0.43116296248325997 0
0 -0.55545336251167587 0
0 -0.59867717950944666 0
0 -0.60928105319996306 0
0 -0.61157409772875948 0
0 -0.61203912979962904 0
0 -0.61212718698842639 0
0 -0.61214271355379957 0
0 -0.61214526245015288 0
0 -0.61214565236278906 0
0 -0.61214570590961648 0
0 -0.6121456962018138 0
0 -0.61214557669080161 0
0 -0.61214479405490274 0
0 -0.61214010383979334 0
0 -0.61211437825666248 0
0 -0.61198636006892471 0
0 -0.61141477469245376 0
0 -0.60915752139238388 0
0 -0.60141867311161079 0
0 -0.57894701394756087 0
0 -0.52578642874358072 0
0 -0.37687004572187649 0
0 -0.084863908529467832 0
0 -0.23544714835977756 0
0 -0.43115753310944138 0
0 -0.55544813315764197 0
0 -0.59867440757235502 0
0 -0.6092800304793029 0
0 -0.61157379732616046 0
0 -0.61203905532215963 0
0 -0.61212717068780031 0
0 -0.61214271031430378 0
0 -0.61214526185728768 0
0 -0.61214565226183615 0
0 -0.61214570589079798 0
0 -0.61214569618192238 0
0 -0.61214557659646429 0
0 -0.61214479359713236 0
0 -0.61214010181189304 0
0 -0.61211437008082503 0
0 -0.61198633026326166 0
0 -0.61141467843175945 0
0 -0.60915725564615253 0
0 -0.60141807450835327 0
0 -0.57894597229983602 0
0 -0.52578512631169461 0
0 -0.37686907339698406 0
0 -0.084863866963100415 0
0 -0.23544675061194986 0
0 -0.43115676537202735 0
0 -0.55544736863772026 0
0 -0.59867397178393389 0
0 -0.60927985521561301 0
0 -0.61157374147501009 0
0 -0.61203904050977076 0
0 -0.61212716728026195 0
0 -0.61214270961255357 0
0 -0.61214526172528261 0
0 -0.61214565223882711 0
0 -0.61214570588655826 0
0 -0.61214569617845083 0
0 -0.6121455765825472 0
0 -0.61214479353904272 0
0 -0.61214010159595134 0
0 -0.61211436935873453 0
0 -0.6119863280248985 0
0 -0.61141467181925502 0
0 -0.60915723729551752 0
0 -0.60141803003950811 0
0 -0.57894588723860663 0
0 -0.52578501147853851 0
0 -0.37686898225737953 0
0 -0.084863908529467819 0
0 -0.23544714835977756 0
0 -0.43115753310944149 0
0 -0.55544813315764219 0
0 -0.59867440757235513 0
0 -0.6092800304793029 0
0 -0.61157379732616046 0
0 -0.61203905532215963 0
0 -0.61212717068780031 0
0 -0.61214271031430378 0
0 -0.61214526185728768 0
0 -0.61214565226183615 0
0 -0.61214570589079798 0
0 -0.61214569618192238 0
0 -0.61214557659646429 0
0 -0.61214479359713236 0
0 -0.61214010181189304 0
0 -0.61211437008082503 0
0 -0.61198633026326166 0
0 -0.61141467843175945 0
0 -0.60915725564615253 0
0 -0.60141807450835327 0
0 -0.57894597229983602 0
0 -0.52578512631169461 0
0 -0.376869073396984 0
0 -0.084864142895356001 0
0 -0.2354499588961754 0
0 -0.43116296248325997 0
0 -0.55545336251167587 0
0 -0.59867717950944666 0
0 -0.60928105319996306 0
0 -0.61157409772875948 0
0 -0.61203912979962904 0
0 -0.61212718698842639 0
0 -0.61214271355379957 0
0 -0.61214526245015288 0
0 -0.61214565236278906 0
0 -0.61214570590961648 0
0 -0.6121456962018138 0
0 -0.61214557669080161 0
0 -0.61214479405490274 0
0 -0.61214010383979334 0
0 -0.61211437825666248 0
0 -0.61198636006892471 0
0 -0.61141477469245376 0
0 -0.60915752139238388 0
0 -0.60141867311161079 0
0 -0.57894701394756087 0
0 -0.52578642874358072 0
0 -0.37687004572187649 0
0 -0.084865902819326614 0
0 -0.23546614307476554 0
0 -0.4311934480473682 0
0 -0.55548104243918039 0
0 -0.598690359316573 0
0 -0.60928535115615168 0
0 -0.61157522700941891 0
0 -0.61203938707478289 0
0 -0.61212724013752629 0
0 -0.61214272369008793 0
0 -0.61214526424336635 0
0 -0.61214565265878917 0
0 -0.61214570596510964 0
0 -0.61214569627522963 0
0 -0.61214557708391759 0
0 -0.6121447961623292 0
0 -0.61214011420431569 0
0 -0.61211442471861055 0
0 -0.61198654775615624 0
0 -0.611415440567323 0
0 -0.60915950436399835 0
0 -0.6014233478909774 0
0 -0.57895520376836607 0
0 -0.52579635560839078 0
0 -0.37687684516208431 0
0 -0.084886651929295107 0
0 -0.23555278892302314 0
0 -0.43134955868982311 0
0 -0.55561236136724934 0
0 -0.59874477870820353 0
0 -0.60930056252345066 0
0 -0.61157876871802608 0
0 -0.6120401367988032 0
0 -0.61212738821699697 0
0 -0.61214275098719717 0
0 -0.6121452689221677 0
0 -0.61214565340720972 0
0 -0.61214570610466901 0
0 -0.61214569648872685 0
0 -0.61214557831996141 0
0 -0.61214480324296006 0
0 -0.61214015155447599 0
0 -0.6121146052202987 0
0 -0.6119873403338173 0
0 -0.6114185378439263 0
0 -0.60916980621810046 0
0 -0.60145032002852461 0
0 -0.57900572512511539 0
0 -0.52585685735693943 0
0 -0.37690858351622558 0
0 -0.085042353810890148 0
0 -0.23593823681158713 0
0 -0.43206660583581602 0
0 -0.55616842354219742 0
0 -0.59893360176423827 0
0 -0.6093438150371302 0
0 -0.61158789322397078 0
0 -0.61204198734077719 0
0 -0.61212774392571678 0
0 -0.61214281481284183 0
0 -0.61214527954698483 0
0 -0.61214565505618757 0
0 -0.61214570640798205 0
0 -0.61214569699646926 0
0 -0.61214558142051234 0
0 -0.61214482185679586 0
0 -0.61214025470445665 0
0 -0.61211513123966166 0
0 -0.61198980170188044 0
0 -0.61142900020899893 0
0 -0.60920897693773057 0
0 -0.60157009195222255 0
0 -0.57926250856817152 0
0 -0.5261715664073533 0
0 -0.37695668634869511 0
0 -0.085309099950806849 0
0 -0.23700502282020999 0
0 -0.43522369790800153 0
0 -0.55829136685478264 0
0 -0.59941364518887319 0
0 -0.60943780635418598 0
0 -0.61160730218042625 0
0 -0.6120459043545482 0
0 -0.61212848477182535 0
0 -0.61214294450710871 0
0 -0.61214530054548399 0
0 -0.61214565822569267 0
0 -0.61214570698094439 0
0 -0.61214569800928742 0
0 -0.61214558783389106 0
0 -0.61214486159880399 0
0 -0.61214048195788551 0
0 -0.61211632712990416 0
0 -0.61199559943045578 0
0 -0.61145495686402429 0
0 -0.60931561432468295 0
0 -0.60195565518138427 0
0 -0.58033679745305244 0
0 -0.527642999114456 0
0 -0.37623384712020486 0
0 -0.078349876400433338 0
0 -0.23705524294689242 0
0 -0.44740489332930372 0
0 -0.56448455394637798 0
0 -0.60075736368720067 0
0 -0.60972092020672575 0
0 -0.61166777455018395 0
0 -0.61205796364496201 0
0 -0.61213070475333109 0
0 -0.61214332217921208 0
0 -0.61214536011151599 0
0 -0.61214566701102247 0
0 -0.61214570854614192 0
0 -0.61214570086720077 0
0 -0.6121456063105305 0
0 -0.61214497793005462 0
0 -0.61214115437818895 0
0 -0.6121198666395028 0
0 -0.61201245338231147 0
0 -0.61152724879097586 0
0 -0.60959487927228806 0
0 -0.60292290260722414 0
0 -0.5831747782193466 0
0 -0.53226923054934294 0
0 -0.36900856912409086 0
-0 -0 0
-0 -0 0
-0 -0 0
-0 -0 0
-0 -0 0
-0 -0 0
-0 -0 0
-0 0.072617190081088162 0
-0 0.11534304577819685 0
-0 0.11187311849413732 0
-0 -0 0
-0 -0 0
-0 -0 0
-0 0.082425022882172252 0
-0 0.13222677484861148 0
-0 0.36455739446434915 0
-0 0.22103334509829958 0
-0 -0 0
-0 -0 0
-0 0.08558245802764107 0
-0 0.13424525238363777 0
-0 0.36926782229948385 0
-0 0.27212286899963245 0
-0 -0 0
-0 -0 0
-0 0.088279550699531625 0
-0 0.13461249724497218 0
-0 0.37323398308023648 0
-0 0.26835051563495804 0
-0 -0 0
-0 -0 0
-0 0.088099551354096528 0
-0 0.13426231279199041 0
-0 0.37357118188621347 0
-0 0.26900091907905382 0
-0 -0 0
-0 -0 0
-0 0.087997925376209554 0
-0 0.13408373444858174 0
-0 0.37353178117500996 0
-0 0.26910233420066193 0
-0 -0 0
-0 -0 0
-0 0.087982522763566717 0
-0 0.13404755865130427 0
-0 0.37351277058716442 0
-0 0.26910889059144188 0
-0 -0 0
-0 -0 0
-0 0.087980880151863103 0
-0 0.13404184412810941 0
-0 0.37350895079089041 0
-0 0.2691084559143177 0
-0 -0 0
-0 -0 0
-0 0.087980664169875183 0
-0 0.13404096658205289 0
-0 0.37350843075791496 0
-0 0.26910825968525981 0
-0 -0 0
-0 -0 0
-0 0.08798066416987517 0
-0 0.13404096658205292 0
-0 0.37350843075791484 0
-0 0.26910825968525914 0
-0 -0 0
-0 -0 0
-0 0.087980880151863089 0
-0 0.13404184412810943 0
-0 0.37350895079089053 0
-0 0.26910845591431815 0
-0 -0 0
-0 -0 0
-0 0.087982522763566745 0
-0 0.13404755865130433 0
-0 0.37351277058716431 0
-0 0.26910889059144188 0
-0 -0 0
-0 -0 0
-0 0.087997925376209582 0
-0 0.13408373444858182 0
-0 0.37353178117500996 0
-0 0.26910233420066193 0
-0 -0 0
-0 -0 0
-0 0.088099551354096459 0
-0 0.13426231279199038 0
-0 0.37357118188621341 0
-0 0.2690009190790536 0
-0 -0 0
-0 -0 0
-0 0.088279550699531556 0
-0 0.13461249724497212 0
-0 0.37323398308023636 0
-0 0.2683505156349576 0
-0 -0 0
-0 -0 0
-0 0.085582458027641084 0
-0 0.13424525238363783 0
-0 0.36926782229948396 0
-0 0.27212286899963289 0
-0 -0 0
-0 -0 0
-0 0.082425022882172322 0
-0 0.13222677484861151 0
-0 0.36455739446434932 0
-0 0.22103334509829969 0
-0 -0 0
-0 -0 0
-0 0.072617190081088329 0
-0 0.11534304577819698 0
-0 0.11187311849414068 0
-0 -0 0
-0 -0 0
-0 -0 0
-0 -0 0
-0 -0 0
-0 -0 0
-0 -0 0
-0 -0 0
-0 -0 0
-0 -0 0
-0 -0 0
-0 -0 0
-0 -0 0
-0 -0 0
-0 -0 0
-0 -0 0
-0 -0 0
-0 -0 0
-0 -0 0
-0 -0 0
-0 -0 0
-0 -0 0
-0 -0 0
-0 -0 0
-0 -0 0
-0 -0 0
-0 -0 0
-0 -0 0
-0 -0 0
-0 -0 0
-0 -0 0
-0 -0 0
-0 -0 0
-0 -0 0
-0 -0 0
-0 -0 0
-0 -0 0
-0 -0 0
-0 -0 0
-0 -0 0
-0 -0 0
-0 -0 0
-0 -0 0
-0 -0 0
-0 -0 0
-0 -0 0
-0 -0 0
-0 -0 0
-0 -0 0
-0 -0 0
-0 -0 0
-0 -0 0
-0 -0 0
-0 -0 0
-0 -0 0
-0 -0 0
-0 -0 0
-0 -0 0
-0 -0 0
-0 -0 0
-0 -0 0
-0 -0 0
-0 -0 0
-0 -0 0
-0 -0 0
-0 -0 0
-0 -0 0
-0 -0 0
-0 -0 0
-0 -0 0
-0 -0 0
-0 -0 0
-0 -0 0
-0 -0 0
-0 -0 0
-0 -0 0
-0 -0 0
-0 -0 0
-0 -0 0
-0 -0 0
-0 -0 0
-0 -0 0
-0 -0 0
-0 -0 0
-0 -0 0
-0 -0 0
-0 -0 0
-0 -0 0
-0 -0 0
-0 -0 0
-0 -0 0
-0 -0 0
-0 -0 0
-0 -0 0
-0 -0 0
-0 -0 0
-0 -0 0
-0 -0 0
-0 -0 0
-0 -0 0
-0 -0 0
-0 -0 0
-0 -0 0
-0 -0 0
-0 -0 0
-0 -0 0
-0 -0 0
-0 -0 0
-0 -0 0
-0 -0 0
-0 -0 0
-0 -0 0
-0 -0 0
-0 -0 0
-0 -0 0
-0 -0 0
-0 -0 0
-0 -0 0
-0 -0 0
-0 -0 0
-0 -0 0
-0 -0 0
-0 -0 0
-0 -0 0
-0 -0 0
-0 -0 0
-0 -0 0
-0 -0 0
-0 -0 0
-0 -0 0
-0 -0 0
-0 -0 0
-0 -0 0
-0 -0 0
-0 -0 0
-0 -0 0
-0 -0 0
-0 -0 0
-0 -0 0
-0 -0 0
-0 -0 0
-0 -0 0
-0 -0 0
-0 -0 0
-0 -0 0
-0 -0 0
-0 -0 0
-0 -0 0
-0 -0 0
-0 -0 0
-0 -0 0
-0 -0 0
-0 -0 0
-0 -0 0
-0 -0 0
-0 -0 0
-0 -0 0
-0 -0 0
-0 -0 0
-0 -0 0
-0 -0 0
-0 -0 0
-0 -0 0
-0 -0 0
-0 -0 0
-0 -0 0
-0 -0 0
-0 -0 0
-0 -0 0
-0 -0 0
-0 -0 0
-0 -0 0
-0 -0 0
-0 -0 0
-0 -0 0
-0 -0 0
-0 -0 0
-0 -0 0
-0 -0 0
-0 -0 0
-0 -0 0
-0 -0 0
-0 -0 0
-0 -0 0
-0 -0 0
-0 -0 0
-0 -0 0
-0 -0 0
-0 -0 0
-0 -0 0
-0 -0 0
-0 -0 0
-0 -0 0
-0 -0 0
