# vtk DataFile Version 3.0
SPH particles (WCSPH) - legacy PolyData
ASCII
DATASET POLYDATA
POINTS 681 float
0.049990564238427043 0.01826624413672305 0
0.049989540445425466 0.020395273536384949 0
0.049988715239217822 0.022112855926423314 0
0.049987902871650378 0.023807863268031755 0
0.049987173329312927 0.025455490862584682 0
0.04998652927197389 0.027054448786651211 0
0.049985937902166218 0.028610808093720051 0
0.049985359854625502 0.030132918322453996 0
0.049984736716356441 0.031630062003327929 0
0.049983974608694498 0.033110231796079324 0
0.049982624450627448 0.034581950986049631 0
0.049980829660089293 0.036053518147850468 0
0.049980130262663645 0.037533121270561104 0
0.049980880538901332 0.039029179176455903 0
0.049982367334029373 0.040550931435129299 0
0.049984125339826158 0.042108467075113162 0
0.049985944978370035 0.043714488801621584 0
0.049987658009822397 0.045384325714181932 0
0.049989255199158644 0.047138811913124794 0
0.04999067841022347 0.048992971648377764 0
0.049991878468667476 0.050988396801339327 0
0.049992855128675143 0.05317626807573294 0
0.049993638625558591 0.055637866723453076 0
0.04999426803834639 0.058525086674436941 0
0.049995068741607647 0.062246602469410932 0
0.069995042798197724 0.01705141561260945 0
0.069994447025001544 0.019401205810872593 0
0.069994003641178415 0.021309314645590584 0
0.06999360491877582 0.023155977564601055 0
0.069993231701398609 0.024927793204837765 0
0.069992859382442971 0.026631644511147197 0
0.069992490155553241 0.028279392747391274 0
0.069992115872649627 0.029883373474485917 0
0.069991721031134088 0.03145577457878472 0
0.069991257052538072 0.033006538902155741 0
0.069990347696701732 0.03454573538451601 0
0.069988498600809801 0.036083032111760699 0
0.069987407041012278 0.037627460839549785 0
0.069987597273320573 0.039188157764948696 0
0.06998850245402341 0.040775458612849751 0
0.069989644769203191 0.042400456924065522 0
0.069990870506105654 0.044077608475936399 0
0.069992076848247251 0.045823130832000139 0
0.0699932065144067 0.047656911852770836 0
0.069994188335205099 0.049603591301151523 0
0.069995001373696311 0.051703942672755875 0
0.069995651132205586 0.054014080554843677 0
0.069996143172412401 0.056628314782589964 0
0.069996530206679786 0.059724205097363349 0
0.069997030074001099 0.063789098026276081 0
0.089998238048582133 0.016998751774070085 0
0.089998017302938979 0.019350307389151354 0
0.089997855110658498 0.021261867368213214 0
0.089997699218622371 0.023114245833219239 0
0.089997540013810398 0.024893213394867844 0
0.089997373369056027 0.02660513211215287 0
0.089997198777247073 0.028261799904222472 0
0.089997022143504121 0.029875313312434738 0
0.08999682285148862 0.031457396686630598 0
0.089996599349289469 0.033018535503891562 0
0.089996330603056021 0.034568624185876091 0
0.089995951022067852 0.036117473995991391 0
0.089995582632749177 0.037673972501088657 0
0.089995532461380187 0.039247331917481587 0
0.089995773120936137 0.040847847591130998 0
0.089996103484988418 0.042486860794670796 0
0.089996490726073422 0.044178689926247655 0
0.089996884878718694 0.045938805827194742 0
0.089997259482092501 0.047787781669384334 0
0.089997573003747777 0.049752965266285844 0
0.089997830402853057 0.051872892459599092 0
0.089998024560433293 0.054204365939095604 0
0.089998195174526327 0.056841873865591294 0
0.08999833337021626 0.059962776643551111 0
0.089998553684087074 0.064060015566464956 0
0.10999937013376083 0.017006810420002183 0
0.10999928540880019 0.019359322553752729 0
0.10999921648945002 0.021271746566109931 0
0.1099991477773824 0.023125097212897235 0
0.10999907838670031 0.024905139729259979 0
0.10999902295124095 0.026618246984912487 0
0.1099989600990371 0.028276235683716951 0
0.1099988802560182 0.029891187575019323 0
0.1099987909926973 0.031474687831904997 0
0.10999869342706708 0.033037364375568229 0
0.10999859754429402 0.034589084696085529 0
0.10999847188042465 0.036139800993902231 0
0.10999837273385171 0.037698227386290674 0
0.10999836556811331 0.039273685476883029 0
0.10999840840018832 0.04087646251424306 0
0.1099985090243918 0.042518191129601743 0
0.10999863511096283 0.044212613801139014 0
0.10999877500424135 0.045975297705651459 0
0.1099989126276706 0.047827076925233435 0
0.10999902121502785 0.0497953248085884 0
0.10999910433288319 0.051918667421181126 0
0.10999916789011289 0.054253984843937356 0
0.10999922702263354 0.056895807190940034 0
0.10999928071786572 0.060021561400878672 0
0.10999937482192898 0.064125524460993164 0
0.12999974437694756 0.01701243893325283 0
0.12999971090237483 0.019365533115961404 0
0.12999968745805324 0.021278392735685013 0
0.12999966581169281 0.023132135679776556 0
0.12999965334226157 0.024912570494960921 0
0.12999962489829819 0.026626029225996842 0
0.12999960206357936 0.028284336291914288 0
0.12999956763293988 0.029899618664727391 0
0.12999953544467033 0.031483448355886477 0
0.12999949562723725 0.033046459536832121 0
0.12999943820741044 0.034598568239973454 0
0.12999937062506023 0.03614941229762967 0
0.1299993590665566 0.037708019148238722 0
0.12999935783290936 0.039283622736466413 0
0.12999933508263983 0.040886589283238205 0
0.12999938082999862 0.042529083466745582 0
0.12999943511082981 0.044225181878076947 0
0.12999949124193397 0.045988932680399844 0
0.12999953723586533 0.047841421579593195 0
0.12999957256971265 0.049809734726551862 0
0.12999960323471377 0.051933818748187428 0
0.12999962835180282 0.054270008216494185 0
0.12999964975879752 0.056912815525767671 0
0.12999967157278489 0.060039668484732432 0
0.12999971201021096 0.064145304319802879 0
0.14999989650853068 0.017014819973240655 0
0.14999988578589851 0.019368225010528792 0
0.14999987715944074 0.021281383953614352 0
0.149999869383137 0.023135247213681504 0
0.14999985912289282 0.024915810306197519 0
0.14999985043493264 0.026629465738755929 0
0.14999984761402568 0.028287884361320438 0
0.14999984073930214 0.029903319712263367 0
0.14999982864493117 0.031487308021112742 0
0.14999980422155543 0.033050474343414148 0
0.14999977944576462 0.034602867795766198 0
0.149999757659567 0.036153932838930064 0
0.14999973532014069 0.03771281393338529 0
0.14999971610335519 0.039288984971959449 0
0.1499997145883564 0.04089241288141908 0
0.1499997346013866 0.042534997329699724 0
0.14999976455446135 0.04423018807683677 0
0.14999979802894489 0.045993454666326913 0
0.14999979152493523 0.047846027091289281 0
0.14999978929112365 0.049815130562918489 0
0.14999979946107811 0.051939448925433583 0
0.14999981496618039 0.054275942749886591 0
0.14999982601973175 0.056919193386178062 0
0.14999983181146825 0.06004653094879929 0
0.14999984953399725 0.064152342266675086 0
0.16999994399007928 0.017015083097610326 0
0.16999993732945456 0.019368859665439095 0
0.16999993146781914 0.02128247038638028 0
0.16999992529446759 0.02313625365049116 0
0.16999991700300665 0.02491683498424432 0
0.16999990820147778 0.02663057597693242 0
0.16999989608418595 0.028289052911836185 0
0.16999989030745546 0.02990450557681585 0
0.16999988020876858 0.031488440645839937 0
0.16999986641845261 0.033051404229704859 0
0.16999984300087739 0.034603948661163633 0
0.16999980638727091 0.036154920145367538 0
0.16999978423328288 0.037713529837043229 0
0.16999975478876284 0.039290230102237061 0
0.16999976708742331 0.040893843512502505 0
0.1699998187614519 0.04253680604048786 0
0.16999984070035296 0.044232133433619099 0
0.16999984155676809 0.045994797850394363 0
0.16999981947594414 0.04784736579782442 0
0.16999983800659732 0.049816693010539599 0
0.1699998620214711 0.051941096605980099 0
0.16999987791927923 0.054277749032130743 0
0.16999987983166809 0.05692132186736315 0
0.16999988669880128 0.060049894281142942 0
0.16999990301748899 0.06415458093567282 0
0.18999995582937382 0.017015613392654675 0
0.18999995124457447 0.019368907959016822 0
0.18999995084493423 0.021282109570029753 0
0.1899999466753437 0.023136243163338715 0
0.18999994064153175 0.024917167193096088 0
0.18999993003168184 0.026630770194061279 0
0.18999992654025713 0.028289230431652795 0
0.18999991223745985 0.029904743046688841 0
0.18999989854464491 0.031488611962847954 0
0.18999988982892618 0.033051497834524782 0
0.1899998850399546 0.034604368165038007 0
0.18999989775211448 0.036155545066349985 0
0.18999991305029409 0.037714440157923128 0
0.18999990842780831 0.039291023894123561 0
0.18999991449717518 0.040894617093108473 0
0.18999991317441434 0.042537184041086494 0
0.18999990142615419 0.044232061452026211 0
0.18999987845507738 0.045995219294319517 0
0.18999985112133355 0.047847775575161622 0
0.18999990556468352 0.049817014929994685 0
0.18999991309484862 0.051941141962833594 0
0.189999928627308 0.054277074501113055 0
0.18999993719372579 0.056919151175597371 0
0.18999994488882593 0.06004863381896506 0
0.18999995629581393 0.064154487169717681 0
0.20999999044515485 0.017015601122106587 0
0.20999998890636787 0.01936893459550159 0
0.2099999858074075 0.021281915633210816 0
0.20999998258417391 0.023135660725853376 0
0.20999997938388359 0.024916554070477527 0
0.20999997131098014 0.026630163617946161 0
0.20999997039386586 0.028288712527935325 0
0.20999996914967153 0.02990440857264183 0
0.20999996900418214 0.031488417299486975 0
0.20999995435083832 0.033051407814524106 0
0.20999994884260836 0.034603533137465406 0
0.20999994514370052 0.03615463590435939 0
0.20999995434222377 0.037714259873214313 0
0.20999994276969591 0.039290769600744568 0
0.20999994499530403 0.040894255509877103 0
0.2099999543589601 0.042536666312626231 0
0.20999995431026527 0.044231383458805909 0
0.20999995593829768 0.045994676123241846 0
0.20999998157103444 0.047847213940811872 0
0.20999997935863823 0.04981642029750448 0
0.20999997512467397 0.051940503619355614 0
0.2099999682119135 0.054276361406911472 0
0.20999997412416199 0.056918242133870527 0
0.20999998110915549 0.060047500183496756 0
0.20999998879388837 0.064153643479454056 0
0.23000006338074558 0.017014572021112159 0
0.23000006804227896 0.019367817634383586 0
0.23000007671512834 0.021280756391214097 0
0.23000007781755702 0.023134453652697007 0
0.23000007433909031 0.024914923111603079 0
0.23000008073804376 0.026628776772097656 0
0.23000009350825196 0.028287673630594944 0
0.23000010388005238 0.029902922179044694 0
0.230000110760954 0.031486772232604814 0
0.23000011346057161 0.033049714373576206 0
0.23000011553823321 0.034601538978618958 0
0.23000012813604911 0.036152898884291282 0
0.2300001902148619 0.037712651200273471 0
0.23000013939235692 0.039288901072487642 0
0.23000011821533919 0.04089227500262841 0
0.2300001471155412 0.042534559128673211 0
0.23000015138305091 0.044229138871341181 0
0.23000015597301868 0.045992567870326684 0
0.23000019170412356 0.047845106835974295 0
0.23000014773582231 0.049814132476097978 0
0.23000013065795183 0.051938221600911758 0
0.23000010993544326 0.0542744500778784 0
0.23000010138502078 0.05691812363478526 0
0.23000009697232246 0.060045203928066018 0
0.23000008858984058 0.06415115485179422 0
0.25000018707676719 0.01701207190861867 0
0.25000020885018565 0.019365034490424652 0
0.25000023038637809 0.021277877073475893 0
0.25000025052731656 0.023131516609375589 0
0.25000026539805908 0.024911820032238033 0
0.25000028011943987 0.026625495580242225 0
0.25000030456435884 0.028283824814588861 0
0.25000032549962153 0.029899178562893484 0
0.25000034486992811 0.031483007289863356 0
0.25000037528354613 0.033045981759521038 0
0.25000042135136419 0.034598075492293399 0
0.25000050777638549 0.036149010740651695 0
0.25000054212049344 0.037707857157097562 0
0.25000058995595625 0.039283886581100901 0
0.25000059143856385 0.04088699533139447 0
0.25000054532288801 0.04252880869199864 0
0.25000050930023648 0.044222949659532093 0
0.25000045993380865 0.045986755618125416 0
0.25000042228542885 0.047839214740621333 0
0.25000038825723991 0.049807308277763661 0
0.25000035768575973 0.0519307070770978 0
0.25000032863473198 0.054266636543158116 0
0.25000030310700277 0.056913574023025756 0
0.25000028124787105 0.060038770750963109 0
0.25000024422223238 0.064143885100282419 0
0.27000053397106044 0.017006371458624634 0
0.27000060812388416 0.019358717583857245 0
0.27000066327614497 0.021270996994304882 0
0.27000071720165109 0.0231243403108355 0
0.27000076748393115 0.024904664749166024 0
0.27000082398456993 0.026617998576859286 0
0.27000088073763723 0.02827519700325843 0
0.27000093854113094 0.029890706237114376 0
0.27000101376635838 0.031474328196383718 0
0.27000110723068382 0.033036876158451883 0
0.2700012165782642 0.034588723952683302 0
0.27000132323483639 0.036139262868687912 0
0.27000148255644052 0.037697623912036918 0
0.27000160692786063 0.03927328564368384 0
0.2700015668047257 0.040876098195746786 0
0.27000142707499841 0.042517667998656514 0
0.27000128852241234 0.044211485231934966 0
0.27000116409294889 0.045974095460655319 0
0.27000104170842903 0.047825728849453929 0
0.27000093900083677 0.049793627461560547 0
0.27000085208967878 0.051916340804837438 0
0.27000077528219324 0.054251081635294796 0
0.27000070735621323 0.056895194642413077 0
0.27000065486065999 0.060020757330015773 0
0.27000057391074128 0.064124318147141368 0
0.29000168027960338 0.016998567641716915 0
0.29000189687765743 0.019350040972765738 0
0.29000205786502509 0.021261600713896236 0
0.29000221315148794 0.023113983643757059 0
0.29000237226278974 0.024892996644473541 0
0.29000253234455886 0.02660479903273524 0
0.29000270171105763 0.028260846408829705 0
0.29000289273171742 0.02987516615558037 0
0.29000311397506384 0.031457369312359922 0
0.29000336168050483 0.033018330066228611 0
0.29000366258278953 0.034568470626818761 0
0.29000405724204648 0.036117173765131932 0
0.29000443757574956 0.037673586327178966 0
0.29000448631087711 0.039247109053108319 0
0.29000425812888897 0.040847762982230112 0
0.29000389728217263 0.042487107765178063 0
0.29000349087269733 0.044178580651765643 0
0.29000308415721265 0.045938474366530667 0
0.290002708725351 0.047787517131805651 0
0.29000238439625425 0.0497528419089266 0
0.29000211210851401 0.05187255004423133 0
0.29000189428143236 0.054203743087084019 0
0.29000172024129089 0.056841554124630669 0
0.2900015801687385 0.059962501355990551 0
0.2900013699518536 0.064059645238882634 0
0.31000501575593276 0.017051458308422123 0
0.31000561330377452 0.01940124862845832 0
0.31000605981316087 0.021309364335320598 0
0.31000646637458312 0.023156026403912931 0
0.31000684709490578 0.024927769931641496 0
0.31000723012151865 0.02663136943104516 0
0.31000761201548682 0.028278932678987463 0
0.31000800222961461 0.029883744636407691 0
0.31000842747235513 0.031456006782863873 0
0.31000894103959098 0.033006622120167847 0
0.31000989602512308 0.034545892176621726 0
0.31001173431594126 0.036083214747909348 0
0.31001277249927711 0.037627655004923405 0
0.31001254191424799 0.03918867635754221 0
0.31001162399552967 0.040776221000481915 0
0.31001048048827196 0.042401791734524789 0
0.31000923997772184 0.04407876296305302 0
0.310008000713003 0.045823294970127187 0
0.31000684740753959 0.047656425703752045 0
0.31000584076342719 0.049604613747602506 0
0.31000500403903924 0.051704979479926617 0
0.31000433715304798 0.054014471601549666 0
0.31000383372844154 0.056628706775551964 0
0.31000342279685739 0.059724563293970419 0
0.3100029055606871 0.063789346758420018 0
0.33000927550805748 0.018266516942172351 0
0.33001026190020638 0.02039555985162184 0
0.33001106048350698 0.022113105253969263 0
0.33001183232045528 0.023808008263490003 0
0.3300125247105607 0.025455349094172876 0
0.33001312460048282 0.027053844560675777 0
0.33001366955641942 0.028610697893438067 0
0.33001421834246919 0.030133642390788098 0
0.33001476864590856 0.031630421370016253 0
0.33001540153874881 0.033110494226260709 0
0.33001662325375458 0.034582283846733855 0
0.33001839830882296 0.036053935665352137 0
0.33001909513702415 0.037533650384832092 0
0.33001832523501884 0.039029939135193682 0
0.33001687370215088 0.040551881464465388 0
0.33001517258676316 0.042109861914613425 0
0.33001342288050028 0.0437160734974796 0
0.33001173460788952 0.045385034213205985 0
0.33001018424941303 0.047137316417824905 0
0.33000883029057726 0.048993371791151152 0
0.33000769947463943 0.050988934390219808 0
0.33000679620788564 0.053176639754220906 0
0.33000608690893524 0.055638224372865315 0
0.33000552986586251 0.058525369827606727 0
0.33000479055156151 0.06224644513840244 0
0 0 0
0 0.020000000000000004 0
0 0.040000000000000001 0
0 0.54999999999999993 0
0 0.56000000000000005 0
0 0.58000000000000007 0
0.02 0 0
0.02 0.020000000000000004 0
0.02 0.040000000000000001 0
0.02 0.54999999999999993 0
0.02 0.56000000000000005 0
0.02 0.58000000000000007 0
0.040000000000000001 0 0
0.040000000000000001 0.020000000000000004 0
0.040000000000000001 0.040000000000000001 0
0.040000000000000001 0.54999999999999993 0
0.040000000000000001 0.56000000000000005 0
0.040000000000000001 0.58000000000000007 0
0.059999999999999998 0 0
0.059999999999999998 0.020000000000000004 0
0.059999999999999998 0.040000000000000001 0
0.059999999999999998 0.54999999999999993 0
0.059999999999999998 0.56000000000000005 0
0.059999999999999998 0.58000000000000007 0
0.080000000000000002 0 0
0.080000000000000002 0.020000000000000004 0
0.080000000000000002 0.040000000000000001 0
0.080000000000000002 0.54999999999999993 0
0.080000000000000002 0.56000000000000005 0
0.080000000000000002 0.58000000000000007 0
0.10000000000000001 0 0
0.10000000000000001 0.020000000000000004 0
0.10000000000000001 0.040000000000000001 0
0.10000000000000001 0.54999999999999993 0
0.10000000000000001 0.56000000000000005 0
0.10000000000000001 0.58000000000000007 0
0.12 0 0
0.12 0.020000000000000004 0
0.12 0.040000000000000001 0
0.12 0.54999999999999993 0
0.12 0.56000000000000005 0
0.12 0.58000000000000007 0
0.14000000000000001 0 0
0.14000000000000001 0.020000000000000004 0
0.14000000000000001 0.040000000000000001 0
0.14000000000000001 0.54999999999999993 0
0.14000000000000001 0.56000000000000005 0
0.14000000000000001 0.58000000000000007 0
0.16 0 0
0.16 0.020000000000000004 0
0.16 0.040000000000000001 0
0.16 0.54999999999999993 0
0.16 0.56000000000000005 0
0.16 0.58000000000000007 0
0.17999999999999999 0 0
0.17999999999999999 0.020000000000000004 0
0.17999999999999999 0.040000000000000001 0
0.17999999999999999 0.54999999999999993 0
0.17999999999999999 0.56000000000000005 0
0.17999999999999999 0.58000000000000007 0
0.20000000000000001 0 0
0.20000000000000001 0.020000000000000004 0
0.20000000000000001 0.040000000000000001 0
0.20000000000000001 0.54999999999999993 0
0.20000000000000001 0.56000000000000005 0
0.20000000000000001 0.58000000000000007 0
0.22 0 0
0.22 0.020000000000000004 0
0.22 0.040000000000000001 0
0.22 0.54999999999999993 0
0.22 0.56000000000000005 0
0.22 0.58000000000000007 0
0.23999999999999999 0 0
0.23999999999999999 0.020000000000000004 0
0.23999999999999999 0.040000000000000001 0
0.23999999999999999 0.54999999999999993 0
0.23999999999999999 0.56000000000000005 0
0.23999999999999999 0.58000000000000007 0
0.26000000000000001 0 0
0.26000000000000001 0.020000000000000004 0
0.26000000000000001 0.040000000000000001 0
0.26000000000000001 0.54999999999999993 0
0.26000000000000001 0.56000000000000005 0
0.26000000000000001 0.58000000000000007 0
0.28000000000000003 0 0
0.28000000000000003 0.020000000000000004 0
0.28000000000000003 0.040000000000000001 0
0.28000000000000003 0.54999999999999993 0
0.28000000000000003 0.56000000000000005 0
0.28000000000000003 0.58000000000000007 0
0.29999999999999999 0 0
0.29999999999999999 0.020000000000000004 0
0.29999999999999999 0.040000000000000001 0
0.29999999999999999 0.54999999999999993 0
0.29999999999999999 0.56000000000000005 0
0.29999999999999999 0.58000000000000007 0
0.32000000000000001 0 0
0.32000000000000001 0.020000000000000004 0
0.32000000000000001 0.040000000000000001 0
0.32000000000000001 0.54999999999999993 0
0.32000000000000001 0.56000000000000005 0
0.32000000000000001 0.58000000000000007 0
0.34000000000000002 0 0
0.34000000000000002 0.020000000000000004 0
0.34000000000000002 0.040000000000000001 0
0.34000000000000002 0.54999999999999993 0
0.34000000000000002 0.56000000000000005 0
0.34000000000000002 0.58000000000000007 0
0.35999999999999999 0 0
0.35999999999999999 0.020000000000000004 0
0.35999999999999999 0.040000000000000001 0
0.35999999999999999 0.54999999999999993 0
0.35999999999999999 0.56000000000000005 0
0.35999999999999999 0.58000000000000007 0
0.38 0 0
0.38 0.020000000000000004 0
0.38 0.040000000000000001 0
0.38 0.54999999999999993 0
0.38 0.56000000000000005 0
0.38 0.58000000000000007 0
0.40000000000000002 0 0
0.40000000000000002 0.020000000000000004 0
0.40000000000000002 0.040000000000000001 0
0.40000000000000002 0.54999999999999993 0
0.40000000000000002 0.56000000000000005 0
0.40000000000000002 0.58000000000000007 0
0.41999999999999998 0 0
0.41999999999999998 0.020000000000000004 0
0.41999999999999998 0.040000000000000001 0
0.41999999999999998 0.54999999999999993 0
0.41999999999999998 0.56000000000000005 0
0.41999999999999998 0.58000000000000007 0
0.44 0 0
0.44 0.020000000000000004 0
0.44 0.040000000000000001 0
0.44 0.54999999999999993 0
0.44 0.56000000000000005 0
0.44 0.58000000000000007 0
0.46000000000000002 0 0
0.46000000000000002 0.020000000000000004 0
0.46000000000000002 0.040000000000000001 0
0.46000000000000002 0.54999999999999993 0
0.46000000000000002 0.56000000000000005 0
0.46000000000000002 0.58000000000000007 0
0.47999999999999998 0 0
0.47999999999999998 0.020000000000000004 0
0.47999999999999998 0.040000000000000001 0
0.47999999999999998 0.54999999999999993 0
0.47999999999999998 0.56000000000000005 0
0.47999999999999998 0.58000000000000007 0
0.5 0 0
0.5 0.020000000000000004 0
0.5 0.040000000000000001 0
0.5 0.54999999999999993 0
0.5 0.56000000000000005 0
0.5 0.58000000000000007 0
0.52000000000000002 0 0
0.52000000000000002 0.020000000000000004 0
0.52000000000000002 0.040000000000000001 0
0.52000000000000002 0.54999999999999993 0
0.52000000000000002 0.56000000000000005 0
0.52000000000000002 0.58000000000000007 0
0.54000000000000004 0 0
0.54000000000000004 0.020000000000000004 0
0.54000000000000004 0.040000000000000001 0
0.54000000000000004 0.54999999999999993 0
0.54000000000000004 0.56000000000000005 0
0.54000000000000004 0.58000000000000007 0
0.56000000000000005 0 0
0.56000000000000005 0.020000000000000004 0
0.56000000000000005 0.040000000000000001 0
0.56000000000000005 0.54999999999999993 0
0.56000000000000005 0.56000000000000005 0
0.56000000000000005 0.58000000000000007 0
0.57999999999999996 0 0
0.57999999999999996 0.020000000000000004 0
0.57999999999999996 0.040000000000000001 0
0.57999999999999996 0.54999999999999993 0
0.57999999999999996 0.56000000000000005 0
0.57999999999999996 0.58000000000000007 0
0.59999999999999998 0 0
0.59999999999999998 0.020000000000000004 0
0.59999999999999998 0.040000000000000001 0
0.59999999999999998 0.54999999999999993 0
0.59999999999999998 0.56000000000000005 0
0.59999999999999998 0.58000000000000007 0
0.62 0 0
0.62 0.020000000000000004 0
0.62 0.040000000000000001 0
0.62 0.54999999999999993 0
0.62 0.56000000000000005 0
0.62 0.58000000000000007 0
0.64000000000000001 0 0
0.64000000000000001 0.020000000000000004 0
0.64000000000000001 0.040000000000000001 0
0.64000000000000001 0.54999999999999993 0
0.64000000000000001 0.56000000000000005 0
0.64000000000000001 0.58000000000000007 0
0.66000000000000003 0 0
0.66000000000000003 0.020000000000000004 0
0.66000000000000003 0.040000000000000001 0
0.66000000000000003 0.54999999999999993 0
0.66000000000000003 0.56000000000000005 0
0.66000000000000003 0.58000000000000007 0
0.68000000000000005 0 0
0.68000000000000005 0.020000000000000004 0
0.68000000000000005 0.040000000000000001 0
0.68000000000000005 0.54999999999999993 0
0.68000000000000005 0.56000000000000005 0
0.68000000000000005 0.58000000000000007 0
0.70000000000000007 0 0
0.70000000000000007 0.020000000000000004 0
0.70000000000000007 0.040000000000000001 0
0.70000000000000007 0.54999999999999993 0
0.70000000000000007 0.56000000000000005 0
0.70000000000000007 0.58000000000000007 0
0.71999999999999997 0 0
0.71999999999999997 0.020000000000000004 0
0.71999999999999997 0.040000000000000001 0
0.71999999999999997 0.54999999999999993 0
0.71999999999999997 0.56000000000000005 0
0.71999999999999997 0.58000000000000007 0
0.73999999999999999 0 0
0.73999999999999999 0.020000000000000004 0
0.73999999999999999 0.040000000000000001 0
0.73999999999999999 0.54999999999999993 0
0.73999999999999999 0.56000000000000005 0
0.73999999999999999 0.58000000000000007 0
0.76000000000000001 0 0
0.76000000000000001 0.020000000000000004 0
0.76000000000000001 0.040000000000000001 0
0.76000000000000001 0.54999999999999993 0
0.76000000000000001 0.56000000000000005 0
0.76000000000000001 0.58000000000000007 0
0.78000000000000003 0 0
0.78000000000000003 0.020000000000000004 0
0.78000000000000003 0.040000000000000001 0
0.78000000000000003 0.54999999999999993 0
0.78000000000000003 0.56000000000000005 0
0.78000000000000003 0.58000000000000007 0
0.80000000000000004 0 0
0.80000000000000004 0.020000000000000004 0
0.80000000000000004 0.040000000000000001 0
0.80000000000000004 0.54999999999999993 0
0.80000000000000004 0.56000000000000005 0
0.80000000000000004 0.58000000000000007 0
0.82000000000000006 0 0
0.82000000000000006 0.020000000000000004 0
0.82000000000000006 0.040000000000000001 0
0.82000000000000006 0.54999999999999993 0
0.82000000000000006 0.56000000000000005 0
0.82000000000000006 0.58000000000000007 0
0.83999999999999997 0 0
0.83999999999999997 0.020000000000000004 0
0.83999999999999997 0.040000000000000001 0
0.83999999999999997 0.54999999999999993 0
0.83999999999999997 0.56000000000000005 0
0.83999999999999997 0.58000000000000007 0
0.85999999999999999 0 0
0.85999999999999999 0.020000000000000004 0
0.85999999999999999 0.040000000000000001 0
0.85999999999999999 0.54999999999999993 0
0.85999999999999999 0.56000000000000005 0
0.85999999999999999 0.58000000000000007 0
0.88 0 0
0.88 0.020000000000000004 0
0.88 0.040000000000000001 0
0.88 0.54999999999999993 0
0.88 0.56000000000000005 0
0.88 0.58000000000000007 0
0.90000000000000002 0 0
0.90000000000000002 0.020000000000000004 0
0.90000000000000002 0.040000000000000001 0
0.90000000000000002 0.54999999999999993 0
0.90000000000000002 0.56000000000000005 0
0.90000000000000002 0.58000000000000007 0
0.92000000000000004 0 0
0.92000000000000004 0.020000000000000004 0
0.92000000000000004 0.040000000000000001 0
0.92000000000000004 0.54999999999999993 0
0.92000000000000004 0.56000000000000005 0
0.92000000000000004 0.58000000000000007 0
0.94000000000000006 0 0
0.94000000000000006 0.020000000000000004 0
0.94000000000000006 0.040000000000000001 0
0.94000000000000006 0.54999999999999993 0
0.94000000000000006 0.56000000000000005 0
0.94000000000000006 0.58000000000000007 0
0.95999999999999996 0 0
0.95999999999999996 0.020000000000000004 0
0.95999999999999996 0.040000000000000001 0
0.95999999999999996 0.54999999999999993 0
0.95999999999999996 0.56000000000000005 0
0.95999999999999996 0.58000000000000007 0
0.97999999999999998 0 0
0.97999999999999998 0.020000000000000004 0
0.97999999999999998 0.040000000000000001 0
0.97999999999999998 0.54999999999999993 0
0.97999999999999998 0.56000000000000005 0
0.97999999999999998 0.58000000000000007 0
1 0 0
1 0.020000000000000004 0
1 0.040000000000000001 0
1 0.54999999999999993 0
1 0.56000000000000005 0
1 0.58000000000000007 0
VERTICES 681 1362
1 0
1 1
1 2
1 3
1 4
1 5
1 6
1 7
1 8
1 9
1 10
1 11
1 12
1 13
1 14
1 15
1 16
1 17
1 18
1 19
1 20
1 21
1 22
1 23
1 24
1 25
1 26
1 27
1 28
1 29
1 30
1 31
1 32
1 33
1 34
1 35
1 36
1 37
1 38
1 39
1 40
1 41
1 42
1 43
1 44
1 45
1 46
1 47
1 48
1 49
1 50
1 51
1 52
1 53
1 54
1 55
1 56
1 57
1 58
1 59
1 60
1 61
1 62
1 63
1 64
1 65
1 66
1 67
1 68
1 69
1 70
1 71
1 72
1 73
1 74
1 75
1 76
1 77
1 78
1 79
1 80
1 81
1 82
1 83
1 84
1 85
1 86
1 87
1 88
1 89
1 90
1 91
1 92
1 93
1 94
1 95
1 96
1 97
1 98
1 99
1 100
1 101
1 102
1 103
1 104
1 105
1 106
1 107
1 108
1 109
1 110
1 111
1 112
1 113
1 114
1 115
1 116
1 117
1 118
1 119
1 120
1 121
1 122
1 123
1 124
1 125
1 126
1 127
1 128
1 129
1 130
1 131
1 132
1 133
1 134
1 135
1 136
1 137
1 138
1 139
1 140
1 141
1 142
1 143
1 144
1 145
1 146
1 147
1 148
1 149
1 150
1 151
1 152
1 153
1 154
1 155
1 156
1 157
1 158
1 159
1 160
1 161
1 162
1 163
1 164
1 165
1 166
1 167
1 168
1 169
1 170
1 171
1 172
1 173
1 174
1 175
1 176
1 177
1 178
1 179
1 180
1 181
1 182
1 183
1 184
1 185
1 186
1 187
1 188
1 189
1 190
1 191
1 192
1 193
1 194
1 195
1 196
1 197
1 198
1 199
1 200
1 201
1 202
1 203
1 204
1 205
1 206
1 207
1 208
1 209
1 210
1 211
1 212
1 213
1 214
1 215
1 216
1 217
1 218
1 219
1 220
1 221
1 222
1 223
1 224
1 225
1 226
1 227
1 228
1 229
1 230
1 231
1 232
1 233
1 234
1 235
1 236
1 237
1 238
1 239
1 240
1 241
1 242
1 243
1 244
1 245
1 246
1 247
1 248
1 249
1 250
1 251
1 252
1 253
1 254
1 255
1 256
1 257
1 258
1 259
1 260
1 261
1 262
1 263
1 264
1 265
1 266
1 267
1 268
1 269
1 270
1 271
1 272
1 273
1 274
1 275
1 276
1 277
1 278
1 279
1 280
1 281
1 282
1 283
1 284
1 285
1 286
1 287
1 288
1 289
1 290
1 291
1 292
1 293
1 294
1 295
1 296
1 297
1 298
1 299
1 300
1 301
1 302
1 303
1 304
1 305
1 306
1 307
1 308
1 309
1 310
1 311
1 312
1 313
1 314
1 315
1 316
1 317
1 318
1 319
1 320
1 321
1 322
1 323
1 324
1 325
1 326
1 327
1 328
1 329
1 330
1 331
1 332
1 333
1 334
1 335
1 336
1 337
1 338
1 339
1 340
1 341
1 342
1 343
1 344
1 345
1 346
1 347
1 348
1 349
1 350
1 351
1 352
1 353
1 354
1 355
1 356
1 357
1 358
1 359
1 360
1 361
1 362
1 363
1 364
1 365
1 366
1 367
1 368
1 369
1 370
1 371
1 372
1 373
1 374
1 375
1 376
1 377
1 378
1 379
1 380
1 381
1 382
1 383
1 384
1 385
1 386
1 387
1 388
1 389
1 390
1 391
1 392
1 393
1 394
1 395
1 396
1 397
1 398
1 399
1 400
1 401
1 402
1 403
1 404
1 405
1 406
1 407
1 408
1 409
1 410
1 411
1 412
1 413
1 414
1 415
1 416
1 417
1 418
1 419
1 420
1 421
1 422
1 423
1 424
1 425
1 426
1 427
1 428
1 429
1 430
1 431
1 432
1 433
1 434
1 435
1 436
1 437
1 438
1 439
1 440
1 441
1 442
1 443
1 444
1 445
1 446
1 447
1 448
1 449
1 450
1 451
1 452
1 453
1 454
1 455
1 456
1 457
1 458
1 459
1 460
1 461
1 462
1 463
1 464
1 465
1 466
1 467
1 468
1 469
1 470
1 471
1 472
1 473
1 474
1 475
1 476
1 477
1 478
1 479
1 480
1 481
1 482
1 483
1 484
1 485
1 486
1 487
1 488
1 489
1 490
1 491
1 492
1 493
1 494
1 495
1 496
1 497
1 498
1 499
1 500
1 501
1 502
1 503
1 504
1 505
1 506
1 507
1 508
1 509
1 510
1 511
1 512
1 513
1 514
1 515
1 516
1 517
1 518
1 519
1 520
1 521
1 522
1 523
1 524
1 525
1 526
1 527
1 528
1 529
1 530
1 531
1 532
1 533
1 534
1 535
1 536
1 537
1 538
1 539
1 540
1 541
1 542
1 543
1 544
1 545
1 546
1 547
1 548
1 549
1 550
1 551
1 552
1 553
1 554
1 555
1 556
1 557
1 558
1 559
1 560
1 561
1 562
1 563
1 564
1 565
1 566
1 567
1 568
1 569
1 570
1 571
1 572
1 573
1 574
1 575
1 576
1 577
1 578
1 579
1 580
1 581
1 582
1 583
1 584
1 585
1 586
1 587
1 588
1 589
1 590
1 591
1 592
1 593
1 594
1 595
1 596
1 597
1 598
1 599
1 600
1 601
1 602
1 603
1 604
1 605
1 606
1 607
1 608
1 609
1 610
1 611
1 612
1 613
1 614
1 615
1 616
1 617
1 618
1 619
1 620
1 621
1 622
1 623
1 624
1 625
1 626
1 627
1 628
1 629
1 630
1 631
1 632
1 633
1 634
1 635
1 636
1 637
1 638
1 639
1 640
1 641
1 642
1 643
1 644
1 645
1 646
1 647
1 648
1 649
1 650
1 651
1 652
1 653
1 654
1 655
1 656
1 657
1 658
1 659
1 660
1 661
1 662
1 663
1 664
1 665
1 666
1 667
1 668
1 669
1 670
1 671
1 672
1 673
1 674
1 675
1 676
1 677
1 678
1 679
1 680
POINT_DATA 681
SCALARS is_boundary int 1
LOOKUP_TABLE default
0
0
0
0
0
0
0
0
0
0
0
0
0
0
0
0
0
0
0
0
0
0
0
0
0
0
0
0
0
0
0
0
0
0
0
0
0
0
0
0
0
0
0
0
0
0
0
0
0
0
0
0
0
0
0
0
0
0
0
0
0
0
0
0
0
0
0
0
0
0
0
0
0
0
0
0
0
0
0
0
0
0
0
0
0
0
0
0
0
0
0
0
0
0
0
0
0
0
0
0
0
0
0
0
0
0
0
0
0
0
0
0
0
0
0
0
0
0
0
0
0
0
0
0
0
0
0
0
0
0
0
0
0
0
0
0
0
0
0
0
0
0
0
0
0
0
0
0
0
0
0
0
0
0
0
0
0
0
0
0
0
0
0
0
0
0
0
0
0
0
0
0
0
0
0
0
0
0
0
0
0
0
0
0
0
0
0
0
0
0
0
0
0
0
0
0
0
0
0
0
0
0
0
0
0
0
0
0
0
0
0
0
0
0
0
0
0
0
0
0
0
0
0
0
0
0
0
0
0
0
0
0
0
0
0
0
0
0
0
0
0
0
0
0
0
0
0
0
0
0
0
0
0
0
0
0
0
0
0
0
0
0
0
0
0
0
0
0
0
0
0
0
0
0
0
0
0
0
0
0
0
0
0
0
0
0
0
0
0
0
0
0
0
0
0
0
0
0
0
0
0
0
0
0
0
0
0
0
0
0
0
0
0
0
0
0
0
0
0
0
0
0
0
0
0
0
0
0
0
0
0
0
0
0
0
0
0
0
0
0
0
0
0
0
0
0
0
0
0
0
0
0
0
0
0
0
0
0
0
0
0
0
0
0
0
0
0
0
0
0
0
0
0
0
0
1
1
1
1
1
1
1
1
1
1
1
1
1
1
1
1
1
1
1
1
1
1
1
1
1
1
1
1
1
1
1
1
1
1
1
1
1
1
1
1
1
1
1
1
1
1
1
1
1
1
1
1
1
1
1
1
1
1
1
1
1
1
1
1
1
1
1
1
1
1
1
1
1
1
1
1
1
1
1
1
1
1
1
1
1
1
1
1
1
1
1
1
1
1
1
1
1
1
1
1
1
1
1
1
1
1
1
1
1
1
1
1
1
1
1
1
1
1
1
1
1
1
1
1
1
1
1
1
1
1
1
1
1
1
1
1
1
1
1
1
1
1
1
1
1
1
1
1
1
1
1
1
1
1
1
1
1
1
1
1
1
1
1
1
1
1
1
1
1
1
1
1
1
1
1
1
1
1
1
1
1
1
1
1
1
1
1
1
1
1
1
1
1
1
1
1
1
1
1
1
1
1
1
1
1
1
1
1
1
1
1
1
1
1
1
1
1
1
1
1
1
1
1
1
1
1
1
1
1
1
1
1
1
1
1
1
1
1
1
1
1
1
1
1
1
1
1
1
1
1
1
1
1
1
1
1
1
1
1
1
1
1
1
1
1
1
1
1
1
1
1
1
1
1
1
1
1
1
1
1
1
1
1
1
1
1
1
1
1
1
1
1
1
1
1
1
1
1
1
1
1
1
1
1
1
1
SCALARS rho float 1
LOOKUP_TABLE default
1020
1020
1020
1020
1020
1020
1020
1020
1020
1020
1020
1020
1020
1020
1020
1020
1020
1020
1020
1020
1020
1020
1020
1020
1020
1020
1020
1020
1020
1020
1020
1020
1020
1020
1020
1020
1020
1020
1020
1020
1020
1020
1020
1020
1020
1020
1020
1020
1020
1020
1020
1020
1020
1020
1020
1020
1020
1020
1020
1020
1020
1020
1020
1020
1020
1020
1020
1020
1020
1020
1020
1020
1020
1020
1020
1020
1020
1020
1020
1020
1020
1020
1020
1020
1020
1020
1020
1020
1020
1020
1020
1020
1020
1020
1020
1020
1020
1020
1020
1020
1020
1020
1020
1020
1020
1020
1020
1020
1020
1020
1020
1020
1020
1020
1020
1020
1020
1020
1020
1020
1020
1020
1020
1020
1020
1020
1020
1020
1020
1020
1020
1020
1020
1020
1020
1020
1020
1020
1020
1020
1020
1020
1020
1020
1020
1020
1020
1020
1020
1020
1020
1020
1020
1020
1020
1020
1020
1020
1020
1020
1020
1020
1020
1020
1020
1020
1020
1020
1020
1020
1020
1020
1020
1020
1020
1020
1020
1020
1020
1020
1020
1020
1020
1020
1020
1020
1020
1020
1020
1020
1020
1020
1020
1020
1020
1020
1020
1020
1020
1020
1020
1020
1020
1020
1020
1020
1020
1020
1020
1020
1020
1020
1020
1020
1020
1020
1020
1020
1020
1020
1020
1020
1020
1020
1020
1020
1020
1020
1020
1020
1020
1020
1020
1020
1020
1020
1020
1020
1020
1020
1020
1020
1020
1020
1020
1020
1020
1020
1020
1020
1020
1020
1020
1020
1020
1020
1020
1020
1020
1020
1020
1020
1020
1020
1020
1020
1020
1020
1020
1020
1020
1020
1020
1020
1020
1020
1020
1020
1020
1020
1020
1020
1020
1020
1020
1020
1020
1020
1020
1020
1020
1020
1020
1020
1020
1020
1020
1020
1020
1020
1020
1020
1020
1020
1020
1020
1020
1020
1020
1020
1020
1020
1020
1020
1020
1020
1020
1020
1020
1020
1020
1020
1020
1020
1020
1020
1020
1020
1020
1020
1020
1020
1020
1020
1020
1020
1020
1020
1020
1020
1020
1020
1020
1020
1020
1020
1020
1020
1020
1020
1020
1020
1020
1020
1020
1020
1020
1020
1020
1020
1020
1020
1020
1020
1020
1020
1020
1020
1020
1020
1020
1020
1020
1020
1020
1000
1000
1000
1000
1000
1000
1000
1000
1000
1000
1000
1000
1000
1000
1000
1000
1000
1000
1000
1000
1000
1000
1000
1000
1000
1000
1000
1000
1000
1000
1000
1000
1000
1000
1000
1000
1000
1000
1000
1000
1000
1000
1000
1000
1000
1000
1000
1000
1000
1000
1000
1000
1000
1000
1000
1000
1000
1000
1000
1000
1000
1000
1000
1000
1000
1000
1000
1000
1000
1000
1000
1000
1000
1000
1000
1000
1000
1000
1000
1000
1000
1000
1000
1000
1000
1000
1000
1000
1000
1000
1000
1000
1000
1000
1000
1000
1000
1000
1000
1000
1000
1000
1000
1000
1000
1000
1000
1000
1000
1000
1000
1000
1000
1000
1000
1000
1000
1000
1000
1000
1000
1000
1000
1000
1000
1000
1000
1000
1000
1000
1000
1000
1000
1000
1000
1000
1000
1000
1000
1000
1000
1000
1000
1000
1000
1000
1000
1000
1000
1000
1000
1000
1000
1000
1000
1000
1000
1000
1000
1000
1000
1000
1000
1000
1000
1000
1000
1000
1000
1000
1000
1000
1000
1000
1000
1000
1000
1000
1000
1000
1000
1000
1000
1000
1000
1000
1000
1000
1000
1000
1000
1000
1000
1000
1000
1000
1000
1000
1000
1000
1000
1000
1000
1000
1000
1000
1000
1000
1000
1000
1000
1000
1000
1000
1000
1000
1000
1000
1000
1000
1000
1000
1000
1000
1000
1000
1000
1000
1000
1000
1000
1000
1000
1000
1000
1000
1000
1000
1000
1000
1000
1000
1000
1000
1000
1000
1000
1000
1000
1000
1000
1000
1000
1000
1000
1000
1000
1000
1000
1000
1000
1000
1000
1000
1000
1000
1000
1000
1000
1000
1000
1000
1000
1000
1000
1000
1000
1000
1000
1000
1000
1000
1000
1000
1000
1000
1000
1000
1000
1000
1000
1000
1000
1000
1000
1000
1000
1000
1000
1000
1000
1000
1000
1000
1000
1000
SCALARS p float 1
LOOKUP_TABLE default
25004.681136676067
25004.681136676067
25004.681136676067
25004.681136676067
25004.681136676067
25004.681136676067
25004.681136676067
25004.681136676067
25004.681136676067
25004.681136676067
25004.681136676067
25004.681136676067
25004.681136676067
25004.681136676067
25004.681136676067
25004.681136676067
25004.681136676067
25004.681136676067
25004.681136676067
25004.681136676067
25004.681136676067
25004.681136676067
25004.681136676067
25004.681136676067
25004.681136676067
25004.681136676067
25004.681136676067
25004.681136676067
25004.681136676067
25004.681136676067
25004.681136676067
25004.681136676067
25004.681136676067
25004.681136676067
25004.681136676067
25004.681136676067
25004.681136676067
25004.681136676067
25004.681136676067
25004.681136676067
25004.681136676067
25004.681136676067
25004.681136676067
25004.681136676067
25004.681136676067
25004.681136676067
25004.681136676067
25004.681136676067
25004.681136676067
25004.681136676067
25004.681136676067
25004.681136676067
25004.681136676067
25004.681136676067
25004.681136676067
25004.681136676067
25004.681136676067
25004.681136676067
25004.681136676067
25004.681136676067
25004.681136676067
25004.681136676067
25004.681136676067
25004.681136676067
25004.681136676067
25004.681136676067
25004.681136676067
25004.681136676067
25004.681136676067
25004.681136676067
25004.681136676067
25004.681136676067
25004.681136676067
25004.681136676067
25004.681136676067
25004.681136676067
25004.681136676067
25004.681136676067
25004.681136676067
25004.681136676067
25004.681136676067
25004.681136676067
25004.681136676067
25004.681136676067
25004.681136676067
25004.681136676067
25004.681136676067
25004.681136676067
25004.681136676067
25004.681136676067
25004.681136676067
25004.681136676067
25004.681136676067
25004.681136676067
25004.681136676067
25004.681136676067
25004.681136676067
25004.681136676067
25004.681136676067
25004.681136676067
25004.681136676067
25004.681136676067
25004.681136676067
25004.681136676067
25004.681136676067
25004.681136676067
25004.681136676067
25004.681136676067
25004.681136676067
25004.681136676067
25004.681136676067
25004.681136676067
25004.681136676067
25004.681136676067
25004.681136676067
25004.681136676067
25004.681136676067
25004.681136676067
25004.681136676067
25004.681136676067
25004.681136676067
25004.681136676067
25004.681136676067
25004.681136676067
25004.681136676067
25004.681136676067
25004.681136676067
25004.681136676067
25004.681136676067
25004.681136676067
25004.681136676067
25004.681136676067
25004.681136676067
25004.681136676067
25004.681136676067
25004.681136676067
25004.681136676067
25004.681136676067
25004.681136676067
25004.681136676067
25004.681136676067
25004.681136676067
25004.681136676067
25004.681136676067
25004.681136676067
25004.681136676067
25004.681136676067
25004.681136676067
25004.681136676067
25004.681136676067
25004.681136676067
25004.681136676067
25004.681136676067
25004.681136676067
25004.681136676067
25004.681136676067
25004.681136676067
25004.681136676067
25004.681136676067
25004.681136676067
25004.681136676067
25004.681136676067
25004.681136676067
25004.681136676067
25004.681136676067
25004.681136676067
25004.681136676067
25004.681136676067
25004.681136676067
25004.681136676067
25004.681136676067
25004.681136676067
25004.681136676067
25004.681136676067
25004.681136676067
25004.681136676067
25004.681136676067
25004.681136676067
25004.681136676067
25004.681136676067
25004.681136676067
25004.681136676067
25004.681136676067
25004.681136676067
25004.681136676067
25004.681136676067
25004.681136676067
25004.681136676067
25004.681136676067
25004.681136676067
25004.681136676067
25004.681136676067
25004.681136676067
25004.681136676067
25004.681136676067
25004.681136676067
25004.681136676067
25004.681136676067
25004.681136676067
25004.681136676067
25004.681136676067
25004.681136676067
25004.681136676067
25004.681136676067
25004.681136676067
25004.681136676067
25004.681136676067
25004.681136676067
25004.681136676067
25004.681136676067
25004.681136676067
25004.681136676067
25004.681136676067
25004.681136676067
25004.681136676067
25004.681136676067
25004.681136676067
25004.681136676067
25004.681136676067
25004.681136676067
25004.681136676067
25004.681136676067
25004.681136676067
25004.681136676067
25004.681136676067
25004.681136676067
25004.681136676067
25004.681136676067
25004.681136676067
25004.681136676067
25004.681136676067
25004.681136676067
25004.681136676067
25004.681136676067
25004.681136676067
25004.681136676067
25004.681136676067
25004.681136676067
25004.681136676067
25004.681136676067
25004.681136676067
25004.681136676067
25004.681136676067
25004.681136676067
25004.681136676067
25004.681136676067
25004.681136676067
25004.681136676067
25004.681136676067
25004.681136676067
25004.681136676067
25004.681136676067
25004.681136676067
25004.681136676067
25004.681136676067
25004.681136676067
25004.681136676067
25004.681136676067
25004.681136676067
25004.681136676067
25004.681136676067
25004.681136676067
25004.681136676067
25004.681136676067
25004.681136676067
25004.681136676067
25004.681136676067
25004.681136676067
25004.681136676067
25004.681136676067
25004.681136676067
25004.681136676067
25004.681136676067
25004.681136676067
25004.681136676067
25004.681136676067
25004.681136676067
25004.681136676067
25004.681136676067
25004.681136676067
25004.681136676067
25004.681136676067
25004.681136676067
25004.681136676067
25004.681136676067
25004.681136676067
25004.681136676067
25004.681136676067
25004.681136676067
25004.681136676067
25004.681136676067
25004.681136676067
25004.681136676067
25004.681136676067
25004.681136676067
25004.681136676067
25004.681136676067
25004.681136676067
25004.681136676067
25004.681136676067
25004.681136676067
25004.681136676067
25004.681136676067
25004.681136676067
25004.681136676067
25004.681136676067
25004.681136676067
25004.681136676067
25004.681136676067
25004.681136676067
25004.681136676067
25004.681136676067
25004.681136676067
25004.681136676067
25004.681136676067
25004.681136676067
25004.681136676067
25004.681136676067
25004.681136676067
25004.681136676067
25004.681136676067
25004.681136676067
25004.681136676067
25004.681136676067
25004.681136676067
25004.681136676067
25004.681136676067
25004.681136676067
25004.681136676067
25004.681136676067
25004.681136676067
25004.681136676067
25004.681136676067
25004.681136676067
25004.681136676067
25004.681136676067
25004.681136676067
25004.681136676067
25004.681136676067
25004.681136676067
25004.681136676067
25004.681136676067
25004.681136676067
25004.681136676067
25004.681136676067
25004.681136676067
25004.681136676067
25004.681136676067
25004.681136676067
25004.681136676067
25004.681136676067
25004.681136676067
25004.681136676067
25004.681136676067
25004.681136676067
25004.681136676067
25004.681136676067
25004.681136676067
25004.681136676067
25004.681136676067
25004.681136676067
25004.681136676067
25004.681136676067
25004.681136676067
25004.681136676067
25004.681136676067
25004.681136676067
25004.681136676067
25004.681136676067
25004.681136676067
25004.681136676067
25004.681136676067
25004.681136676067
25004.681136676067
25004.681136676067
0
0
0
0
0
0
24076.985833181752
24982.727323126317
24991.328376570153
0
0
0
24997.120241820005
25003.941814526941
25004.210351400907
0
0
0
25001.133376249472
25004.30489838028
25004.437656556285
0
0
0
25001.382008955356
25004.311109617338
25004.437723942188
0
0
0
25001.395697469285
25004.310686667432
25004.436978225742
0
0
0
25001.391052535953
25004.310386709523
25004.436882460963
0
0
0
25001.388227974021
25004.310246544661
25004.436869177898
0
0
0
25001.387119555471
25004.310190508164
25004.436867165001
0
0
0
25001.38683290617
25004.310174027094
25004.436867508244
0
0
0
25001.386866771903
25004.310175271687
25004.436869544668
0
0
0
25001.387302437844
25004.310197444658
25004.436869273864
0
0
0
25001.388532678749
25004.3102594542
25004.436873367918
0
0
0
25001.391373016853
25004.310399650542
25004.436888179636
0
0
0
25001.395936361831
25004.310693996009
25004.436979372316
0
0
0
25001.382067671035
25004.311107901158
25004.437721928098
0
0
0
25001.13337478826
25004.304898179831
25004.437660333013
0
0
0
24997.119882058287
25003.941778211676
25004.21033431371
0
0
0
24076.784884014363
24982.724101810254
24991.32581852833
0
0
0
0
0
0
0
0
0
0
0
0
0
0
0
0
0
0
0
0
0
0
0
0
0
0
0
0
0
0
0
0
0
0
0
0
0
0
0
0
0
0
0
0
0
0
0
0
0
0
0
0
0
0
0
0
0
0
0
0
0
0
0
0
0
0
0
0
0
0
0
0
0
0
0
0
0
0
0
0
0
0
0
0
0
0
0
0
0
0
0
0
0
0
0
0
0
0
0
0
0
0
0
0
0
0
0
0
0
0
0
0
0
0
0
0
0
0
0
0
0
0
0
0
0
0
0
0
0
0
0
0
0
0
0
0
0
0
0
0
0
0
0
0
0
0
0
0
0
0
0
0
0
0
0
0
0
0
0
0
0
0
0
0
0
0
0
0
0
0
0
0
0
0
0
0
0
0
0
0
0
0
0
0
0
0
0
0
0
0
0
0
0
0
0
SCALARS m float 1
LOOKUP_TABLE default
0.39965556373580352
0.39965556373580352
0.39965556373580352
0.39965556373580352
0.39965556373580352
0.39965556373580352
0.39965556373580352
0.39965556373580352
0.39965556373580352
0.39965556373580352
0.39965556373580352
0.39965556373580352
0.39965556373580352
0.39965556373580352
0.39965556373580352
0.39965556373580352
0.39965556373580352
0.39965556373580352
0.39965556373580352
0.39965556373580352
0.39965556373580352
0.39965556373580352
0.39965556373580352
0.39965556373580352
0.39965556373580352
0.39965556373580352
0.39965556373580352
0.39965556373580352
0.39965556373580352
0.39965556373580352
0.39965556373580352
0.39965556373580352
0.39965556373580352
0.39965556373580352
0.39965556373580352
0.39965556373580352
0.39965556373580352
0.39965556373580352
0.39965556373580352
0.39965556373580352
0.39965556373580352
0.39965556373580352
0.39965556373580352
0.39965556373580352
0.39965556373580352
0.39965556373580352
0.39965556373580352
0.39965556373580352
0.39965556373580352
0.39965556373580352
0.39965556373580352
0.39965556373580352
0.39965556373580352
0.39965556373580352
0.39965556373580352
0.39965556373580352
0.39965556373580352
0.39965556373580352
0.39965556373580352
0.39965556373580352
0.39965556373580352
0.39965556373580352
0.39965556373580352
0.39965556373580352
0.39965556373580352
0.39965556373580352
0.39965556373580352
0.39965556373580352
0.39965556373580352
0.39965556373580352
0.39965556373580352
0.39965556373580352
0.39965556373580352
0.39965556373580352
0.39965556373580352
0.39965556373580352
0.39965556373580352
0.39965556373580352
0.39965556373580352
0.39965556373580352
0.39965556373580352
0.39965556373580352
0.39965556373580352
0.39965556373580352
0.39965556373580352
0.39965556373580352
0.39965556373580352
0.39965556373580352
0.39965556373580352
0.39965556373580352
0.39965556373580352
0.39965556373580352
0.39965556373580352
0.39965556373580352
0.39965556373580352
0.39965556373580352
0.39965556373580352
0.39965556373580352
0.39965556373580352
0.39965556373580352
0.39965556373580352
0.39965556373580352
0.39965556373580352
0.39965556373580352
0.39965556373580352
0.39965556373580352
0.39965556373580352
0.39965556373580352
0.39965556373580352
0.39965556373580352
0.39965556373580352
0.39965556373580352
0.39965556373580352
0.39965556373580352
0.39965556373580352
0.39965556373580352
0.39965556373580352
0.39965556373580352
0.39965556373580352
0.39965556373580352
0.39965556373580352
0.39965556373580352
0.39965556373580352
0.39965556373580352
0.39965556373580352
0.39965556373580352
0.39965556373580352
0.39965556373580352
0.39965556373580352
0.39965556373580352
0.39965556373580352
0.39965556373580352
0.39965556373580352
0.39965556373580352
0.39965556373580352
0.39965556373580352
0.39965556373580352
0.39965556373580352
0.39965556373580352
0.39965556373580352
0.39965556373580352
0.39965556373580352
0.39965556373580352
0.39965556373580352
0.39965556373580352
0.39965556373580352
0.39965556373580352
0.39965556373580352
0.39965556373580352
0.39965556373580352
0.39965556373580352
0.39965556373580352
0.39965556373580352
0.39965556373580352
0.39965556373580352
0.39965556373580352
0.39965556373580352
0.39965556373580352
0.39965556373580352
0.39965556373580352
0.39965556373580352
0.39965556373580352
0.39965556373580352
0.39965556373580352
0.39965556373580352
0.39965556373580352
0.39965556373580352
0.39965556373580352
0.39965556373580352
0.39965556373580352
0.39965556373580352
0.39965556373580352
0.39965556373580352
0.39965556373580352
0.39965556373580352
0.39965556373580352
0.39965556373580352
0.39965556373580352
0.39965556373580352
0.39965556373580352
0.39965556373580352
0.39965556373580352
0.39965556373580352
0.39965556373580352
0.39965556373580352
0.39965556373580352
0.39965556373580352
0.39965556373580352
0.39965556373580352
0.39965556373580352
0.39965556373580352
0.39965556373580352
0.39965556373580352
0.39965556373580352
0.39965556373580352
0.39965556373580352
0.39965556373580352
0.39965556373580352
0.39965556373580352
0.39965556373580352
0.39965556373580352
0.39965556373580352
0.39965556373580352
0.39965556373580352
0.39965556373580352
0.39965556373580352
0.39965556373580352
0.39965556373580352
0.39965556373580352
0.39965556373580352
0.39965556373580352
0.39965556373580352
0.39965556373580352
0.39965556373580352
0.39965556373580352
0.39965556373580352
0.39965556373580352
0.39965556373580352
0.39965556373580352
0.39965556373580352
0.39965556373580352
0.39965556373580352
0.39965556373580352
0.39965556373580352
0.39965556373580352
0.39965556373580352
0.39965556373580352
0.39965556373580352
0.39965556373580352
0.39965556373580352
0.39965556373580352
0.39965556373580352
0.39965556373580352
0.39965556373580352
0.39965556373580352
0.39965556373580352
0.39965556373580352
0.39965556373580352
0.39965556373580352
0.39965556373580352
0.39965556373580352
0.39965556373580352
0.39965556373580352
0.39965556373580352
0.39965556373580352
0.39965556373580352
0.39965556373580352
0.39965556373580352
0.39965556373580352
0.39965556373580352
0.39965556373580352
0.39965556373580352
0.39965556373580352
0.39965556373580352
0.39965556373580352
0.39965556373580352
0.39965556373580352
0.39965556373580352
0.39965556373580352
0.39965556373580352
0.39965556373580352
0.39965556373580352
0.39965556373580352
0.39965556373580352
0.39965556373580352
0.39965556373580352
0.39965556373580352
0.39965556373580352
0.39965556373580352
0.39965556373580352
0.39965556373580352
0.39965556373580352
0.39965556373580352
0.39965556373580352
0.39965556373580352
0.39965556373580352
0.39965556373580352
0.39965556373580352
0.39965556373580352
0.39965556373580352
0.39965556373580352
0.39965556373580352
0.39965556373580352
0.39965556373580352
0.39965556373580352
0.39965556373580352
0.39965556373580352
0.39965556373580352
0.39965556373580352
0.39965556373580352
0.39965556373580352
0.39965556373580352
0.39965556373580352
0.39965556373580352
0.39965556373580352
0.39965556373580352
0.39965556373580352
0.39965556373580352
0.39965556373580352
0.39965556373580352
0.39965556373580352
0.39965556373580352
0.39965556373580352
0.39965556373580352
0.39965556373580352
0.39965556373580352
0.39965556373580352
0.39965556373580352
0.39965556373580352
0.39965556373580352
0.39965556373580352
0.39965556373580352
0.39965556373580352
0.39965556373580352
0.39965556373580352
0.39965556373580352
0.39965556373580352
0.39965556373580352
0.39965556373580352
0.39965556373580352
0.39965556373580352
0.39965556373580352
0.39965556373580352
0.39965556373580352
0.39965556373580352
0.39965556373580352
0.39965556373580352
0.39965556373580352
0.39965556373580352
0.39965556373580352
0.39965556373580352
0.39965556373580352
0.39965556373580352
0.39965556373580352
0.39965556373580352
0.39965556373580352
0.39965556373580352
0.39965556373580352
0.39965556373580352
0.39965556373580352
0.39965556373580352
0.39965556373580352
0.39965556373580352
0.39965556373580352
0.39965556373580352
0.39965556373580352
0.39965556373580352
0.39965556373580352
0.39965556373580352
0.39965556373580352
0.39965556373580352
0.39965556373580352
0.39965556373580352
0.39965556373580352
0.39965556373580352
0.39965556373580352
0.39965556373580352
0.39965556373580352
0.39965556373580352
0.39965556373580352
0.39965556373580352
0.39965556373580352
0.39965556373580352
0.39965556373580352
0.39965556373580352
0.39965556373580352
0.39965556373580352
0.39965556373580352
0.39965556373580352
0.39965556373580352
0.39965556373580352
0.39965556373580352
0.39965556373580352
0.39965556373580352
0.39965556373580352
0.39965556373580352
0.39965556373580352
0.39965556373580352
0.39965556373580352
0.39965556373580352
0.39965556373580352
0.39965556373580352
0.39965556373580352
0.39965556373580352
0.39965556373580352
0.39965556373580352
0.39965556373580352
0.39965556373580352
0.39965556373580352
0.39965556373580352
0.39965556373580352
0.39965556373580352
0.39965556373580352
0.39965556373580352
0.39965556373580352
0.39965556373580352
0.39965556373580352
0.39965556373580352
0.39965556373580352
0.39965556373580352
0.39965556373580352
0.39965556373580352
0.39965556373580352
0.39965556373580352
0.39965556373580352
0.39965556373580352
0.39965556373580352
0.39965556373580352
0.39965556373580352
0.39965556373580352
0.39965556373580352
0.39965556373580352
0.39965556373580352
0.39965556373580352
0.39965556373580352
0.39965556373580352
0.39965556373580352
0.39965556373580352
0.39965556373580352
0.39965556373580352
0.39965556373580352
0.39965556373580352
0.39965556373580352
0.39965556373580352
0.39965556373580352
0.39965556373580352
0.39965556373580352
0.39965556373580352
0.39965556373580352
0.39965556373580352
0.39965556373580352
0.39965556373580352
0.39965556373580352
0.39965556373580352
0.39965556373580352
0.39965556373580352
0.39965556373580352
0.39965556373580352
0.39965556373580352
0.39965556373580352
0.39965556373580352
0.39965556373580352
0.39965556373580352
0.39965556373580352
0.39965556373580352
0.39965556373580352
0.39965556373580352
0.39965556373580352
0.39965556373580352
0.39965556373580352
0.39965556373580352
0.39965556373580352
0.39965556373580352
0.39965556373580352
0.39965556373580352
0.39965556373580352
0.39965556373580352
0.39965556373580352
0.39965556373580352
0.39965556373580352
0.39965556373580352
0.39965556373580352
0.39965556373580352
0.39965556373580352
0.39965556373580352
0.39965556373580352
0.39965556373580352
0.39965556373580352
0.39965556373580352
0.39965556373580352
0.39965556373580352
0.39965556373580352
0.39965556373580352
0.39965556373580352
0.39965556373580352
0.39965556373580352
0.39965556373580352
0.39965556373580352
0.39965556373580352
0.39965556373580352
0.39965556373580352
0.39965556373580352
0.39965556373580352
0.39965556373580352
0.39965556373580352
0.39965556373580352
0.39965556373580352
0.39965556373580352
0.39965556373580352
0.39965556373580352
0.39965556373580352
0.39965556373580352
0.39965556373580352
0.39965556373580352
0.39965556373580352
0.39965556373580352
0.39965556373580352
0.39965556373580352
0.39965556373580352
0.39965556373580352
0.39965556373580352
0.39965556373580352
0.39965556373580352
0.39965556373580352
0.39965556373580352
0.39965556373580352
0.39965556373580352
0.39965556373580352
0.39965556373580352
0.39965556373580352
0.39965556373580352
0.39965556373580352
0.39965556373580352
0.39965556373580352
0.39965556373580352
0.39965556373580352
0.39965556373580352
0.39965556373580352
0.39965556373580352
0.39965556373580352
0.39965556373580352
0.39965556373580352
0.39965556373580352
0.39965556373580352
0.39965556373580352
0.39965556373580352
0.39965556373580352
0.39965556373580352
0.39965556373580352
0.39965556373580352
0.39965556373580352
0.39965556373580352
0.39965556373580352
0.39965556373580352
0.39965556373580352
0.39965556373580352
0.39965556373580352
0.39965556373580352
0.39965556373580352
0.39965556373580352
0.39965556373580352
0.39965556373580352
0.39965556373580352
0.39965556373580352
0.39965556373580352
0.39965556373580352
0.39965556373580352
0.39965556373580352
0.39965556373580352
0.39965556373580352
0.39965556373580352
0.39965556373580352
0.39965556373580352
0.39965556373580352
0.39965556373580352
0.39965556373580352
0.39965556373580352
0.39965556373580352
0.39965556373580352
0.39965556373580352
0.39965556373580352
0.39965556373580352
0.39965556373580352
0.39965556373580352
0.39965556373580352
0.39965556373580352
0.39965556373580352
0.39965556373580352
0.39965556373580352
0.39965556373580352
0.39965556373580352
0.39965556373580352
0.39965556373580352
0.39965556373580352
0.39965556373580352
0.39965556373580352
0.39965556373580352
0.39965556373580352
0.39965556373580352
0.39965556373580352
0.39965556373580352
0.39965556373580352
0.39965556373580352
0.39965556373580352
0.39965556373580352
0.39965556373580352
0.39965556373580352
0.39965556373580352
0.39965556373580352
0.39965556373580352
0.39965556373580352
0.39965556373580352
0.39965556373580352
0.39965556373580352
0.39965556373580352
0.39965556373580352
0.39965556373580352
0.39965556373580352
0.39965556373580352
0.39965556373580352
0.39965556373580352
0.39965556373580352
0.39965556373580352
0.39965556373580352
0.39965556373580352
0.39965556373580352
0.39965556373580352
0.39965556373580352
0.39965556373580352
0.39965556373580352
0.39965556373580352
0.39965556373580352
0.39965556373580352
0.39965556373580352
0.39965556373580352
0.39965556373580352
0.39965556373580352
0.39965556373580352
0.39965556373580352
0.39965556373580352
0.39965556373580352
0.39965556373580352
0.39965556373580352
0.39965556373580352
0.39965556373580352
0.39965556373580352
0.39965556373580352
0.39965556373580352
0.39965556373580352
0.39965556373580352
0.39965556373580352
0.39965556373580352
0.39965556373580352
0.39965556373580352
0.39965556373580352
0.39965556373580352
0.39965556373580352
0.39965556373580352
0.39965556373580352
0.39965556373580352
0.39965556373580352
0.39965556373580352
0.39965556373580352
0.39965556373580352
0.39965556373580352
0.39965556373580352
0.39965556373580352
0.39965556373580352
0.39965556373580352
0.39965556373580352
0.39965556373580352
0.39965556373580352
0.39965556373580352
0.39965556373580352
0.39965556373580352
0.39965556373580352
0.39965556373580352
0.39965556373580352
0.39965556373580352
0.39965556373580352
0.39965556373580352
0.39965556373580352
0.39965556373580352
0.39965556373580352
0.39965556373580352
0.39965556373580352
0.39965556373580352
0.39965556373580352
0.39965556373580352
0.39965556373580352
0.39965556373580352
0.39965556373580352
0.39965556373580352
0.39965556373580352
0.39965556373580352
0.39965556373580352
0.39965556373580352
0.39965556373580352
0.39965556373580352
0.39965556373580352
0.39965556373580352
VECTORS v float
-2.0309843492069812e-05 -0.03660260122358841 0
-2.1393022038735013e-05 -0.037059784017334764 0
-2.2170583183465877e-05 -0.03741433608011141 0
-2.2870044155481232e-05 -0.037759246198892545 0
-2.3504612532562514e-05 -0.038105533806745896 0
-2.4090115549497391e-05 -0.03846812498322609 0
-2.4639593697572071e-05 -0.038856777667153349 0
-2.5157919328691834e-05 -0.03927792424461192 0
-2.5642316929555353e-05 -0.039737532254609902 0
-2.6085498940147531e-05 -0.040241303382030143 0
-2.6475591635201303e-05 -0.04079542327849188 0
-2.6805171934942153e-05 -0.041406418425426056 0
-2.706964068491166e-05 -0.042081195877313654 0
-2.7281108926114282e-05 -0.042829636864094543 0
-2.7453920458426994e-05 -0.043669794380266837 0
-2.7614489404965959e-05 -0.04462099519527251 0
-2.7766115511826915e-05 -0.045707618335725952 0
-2.7918229306633841e-05 -0.046959530343062945 0
-2.8116221876991958e-05 -0.048418741514659927 0
-2.8339957277361002e-05 -0.050133323059683585 0
-2.8609374678873905e-05 -0.052192510815911121 0
-2.8944052282179192e-05 -0.054729878129023163 0
-2.936950655276863e-05 -0.057974087782463039 0
-2.9921448826358851e-05 -0.062373553393101487 0
-3.0746670993515857e-05 -0.069329833832405291 0
-1.1754776603802868e-05 -0.036789311654606978 0
-1.2540681546058111e-05 -0.037286993885614711 0
-1.3090941696679143e-05 -0.037672777103021936 0
-1.352283040989485e-05 -0.038041040197430702 0
-1.3941252965933712e-05 -0.038401971611359151 0
-1.427198252770439e-05 -0.038774616459826487 0
-1.4553670184099301e-05 -0.039172192724150803 0
-1.4806925269957453e-05 -0.039602763262992308 0
-1.5087417761166121e-05 -0.040073084389443334 0
-1.5227820543003922e-05 -0.040589472085376707 0
-1.5325031497474645e-05 -0.041157954868864394 0
-1.5508978229231446e-05 -0.041785343671268578 0
-1.5787555481990815e-05 -0.042478595843999746 0
-1.6055521821156738e-05 -0.043248623944819209 0
-1.631930092368835e-05 -0.044114052175739778 0
-1.6464545298965833e-05 -0.045093626822116865 0
-1.6703927981996424e-05 -0.046211795419442217 0
-1.6857605707373192e-05 -0.047499266477953557 0
-1.7054692514121605e-05 -0.04899520516735973 0
-1.724610379149613e-05 -0.050752286103285985 0
-1.7446753774315164e-05 -0.052854622704395435 0
-1.7639121181758155e-05 -0.05543294584108454 0
-1.7870254692732369e-05 -0.058717001397270527 0
-1.8133718079668729e-05 -0.063175556995970342 0
-1.8442681091293642e-05 -0.070411891500983176 0
-4.276180894193565e-06 -0.036862156264680312 0
-4.5402619233956173e-06 -0.037364524013796988 0
-4.7061325392660388e-06 -0.037754494260614085 0
-4.8452434408475173e-06 -0.038127364298725645 0
-4.9673528865399806e-06 -0.038493006830229909 0
-5.0582342401173545e-06 -0.038870730617033562 0
-5.138679317443464e-06 -0.039273967137022005 0
-5.1753600550768912e-06 -0.039711222276529998 0
-5.239236190016141e-06 -0.040189363751123398 0
-5.2778540136005166e-06 -0.040715230301858578 0
-5.3976461245031179e-06 -0.04129503353199613 0
-5.4552021442245773e-06 -0.041936089978749681 0
-5.5554697236012079e-06 -0.042646161374156021 0
-5.6408527523210604e-06 -0.043436441474507988 0
-5.8102059609732928e-06 -0.044325002485259626 0
-5.9674792416692683e-06 -0.045332133629519926 0
-6.2331329822383755e-06 -0.046482606890481198 0
-6.322861868591856e-06 -0.047807540499388408 0
-6.4621508452617002e-06 -0.049346539450756913 0
-6.6563080340115267e-06 -0.051155560210363854 0
-6.8912648304273596e-06 -0.053317331832088151 0
-7.2715686226007495e-06 -0.055964116251765249 0
-7.5476564034868035e-06 -0.059324009538141154 0
-7.8361686640598567e-06 -0.063863989371972421 0
-8.1369603499769503e-06 -0.071202159925746134 0
-1.6211538596498793e-06 -0.036901066103617736 0
-1.747741040133106e-06 -0.037407109024473424 0
-1.8088644999634907e-06 -0.03780011774952529 0
-1.8947319288388085e-06 -0.038175920293195331 0
-1.9430345100489859e-06 -0.038544632424021494 0
-1.9815730977396867e-06 -0.038925651008109852 0
-2.0247340281092089e-06 -0.039332562564917732 0
-2.1484701123189734e-06 -0.039773833848600282 0
-2.1778321219795988e-06 -0.040256330726739675 0
-2.2520168761162193e-06 -0.040787027520666319 0
-2.3307788357748092e-06 -0.041372297398220431 0
-2.3137753612435741e-06 -0.042019588555569476 0
-2.3563113807784461e-06 -0.042736400528085514 0
-2.2973385281360119e-06 -0.043534303711705566 0
-2.3442969493165942e-06 -0.044431764315104295 0
-2.4408546475012653e-06 -0.045449158478711636 0
-2.4655646884546792e-06 -0.046611299053057602 0
-2.507336447142691e-06 -0.047949218269303449 0
-2.6287258442307429e-06 -0.04950315894464552 0
-2.6725509507873559e-06 -0.0513288974625105 0
-2.7387042630896161e-06 -0.053509796807894423 0
-2.9023622861006865e-06 -0.056177842395732654 0
-2.993460329602471e-06 -0.059561471465434203 0
-3.1006342060794201e-06 -0.064127687825635923 0
-3.2174784130289101e-06 -0.071499272285702506 0
-7.4081628804735176e-07 -0.036921711649576729 0
-7.8938612729318519e-07 -0.037429809218567249 0
-8.4177675633590732e-07 -0.037824298150343633 0
-9.0134143266920336e-07 -0.038201759690443926 0
-9.2499450452728035e-07 -0.038571863388670712 0
-9.9270533129419064e-07 -0.038954695389862036 0
-9.5839357722324813e-07 -0.039362938457814307 0
-1.0238753677237941e-06 -0.03980591041332078 0
-9.9203460598873378e-07 -0.040290226679322853 0
-1.0288957215381078e-06 -0.040822894968294554 0
-1.0930033674841725e-06 -0.041410228195142479 0
-1.1742842844200526e-06 -0.04205977329087239 0
-1.168294666309602e-06 -0.042778988467749628 0
-1.1049359445538487e-06 -0.043579032709763203 0
-1.1206570577313586e-06 -0.044479303314363124 0
-1.1285317042978671e-06 -0.045500305009722103 0
-1.1379727467514118e-06 -0.04666731892153779 0
-1.1637192126074492e-06 -0.048009610279526028 0
-1.1765740712049216e-06 -0.049568456165658518 0
-1.1737383192011069e-06 -0.051399026794541017 0
-1.2158736431433596e-06 -0.053585918593712506 0
-1.2219981405666139e-06 -0.056260682076538976 0
-1.2316612218416016e-06 -0.059651493190086086 0
-1.2966133186334913e-06 -0.064225743274762354 0
-1.3776068178730953e-06 -0.071607489300953842 0
-1.8549334885610639e-07 -0.03693147196301088 0
-2.2654203129949743e-07 -0.03744055192260895 0
-2.3482793731644156e-07 -0.037835788091694036 0
-2.4787440602401958e-07 -0.038213777242193457 0
-2.8212276335119125e-07 -0.03858466333250285 0
-3.0019609405147506e-07 -0.038967824266894373 0
-3.163601506010024e-07 -0.039377020330709021 0
-2.9468454771222312e-07 -0.039820700666359635 0
-3.0750157756474002e-07 -0.040305910958294139 0
-4.2542954347250097e-07 -0.040839251506454233 0
-4.5426228301413033e-07 -0.041427533683712214 0
-4.6726935351106517e-07 -0.042077937203410049 0
-3.7724141079905874e-07 -0.042798099503126033 0
-3.592934912950609e-07 -0.043599479114082414 0
-4.5140955801512327e-07 -0.044501258917140574 0
-4.4847671654355904e-07 -0.045523533403617734 0
-5.2315425345377989e-07 -0.046690877232632093 0
-5.5717917637747313e-07 -0.048034364530948656 0
-5.148197001974595e-07 -0.049594619855468834 0
-4.8909661832566651e-07 -0.051427635491533868 0
-5.5763989674340583e-07 -0.053616445901530092 0
-5.8716013743161865e-07 -0.056293541904466803 0
-6.349902439744658e-07 -0.059687118286198902 0
-6.8443401656561536e-07 -0.06426434113518463 0
-7.0741800439611843e-07 -0.071648892369223005 0
-1.022922803876462e-07 -0.03693524600853542 0
-7.6704245853461754e-08 -0.037444769286706994 0
-1.4728093814425897e-07 -0.037840291424448266 0
-1.5375153629922751e-07 -0.038218474399631865 0
-1.9408022251491685e-07 -0.038589650615112242 0
-1.4273571137066932e-07 -0.038973095265688602 0
-1.7426569286210587e-07 -0.039382632898610298 0
-2.009264395582389e-07 -0.039826521082964729 0
-1.7829792551456377e-07 -0.040311914029492593 0
-2.9112853747561125e-07 -0.040845470504232782 0
-4.4026281142454332e-07 -0.041434086619337646 0
-6.5146954257815375e-07 -0.042084651458056004 0
-6.4086197685385644e-07 -0.042804963385818857 0
-6.1831343231168228e-07 -0.043606920662868059 0
-5.0885434068001899e-07 -0.044509106943796339 0
-4.9945220270868884e-07 -0.045531919169192026 0
-5.0105232931958609e-07 -0.046699891016370336 0
-5.7535141303170525e-07 -0.048043378963605332 0
-4.6631156349530919e-07 -0.049604129274217659 0
-4.9972533557359944e-07 -0.051437582417503909 0
-4.3844359014844729e-07 -0.053627217664022633 0
-5.3815398018530563e-07 -0.056305164248837372 0
-4.9824102014950099e-07 -0.05969970816574232 0
-4.7165270322950774e-07 -0.064279370092874377 0
-4.2304436566749951e-07 -0.07166285186753972 0
-9.8959858972927463e-08 -0.036936070458598334 0
-1.0034669589600276e-07 -0.037445627956677052 0
-1.0417303668636623e-07 -0.037841310239735249 0
-1.3006004153753384e-07 -0.038219640294905786 0
-1.0273926493614945e-07 -0.038590871374563407 0
-9.780384393196635e-08 -0.038974407397280392 0
-9.488990468424062e-08 -0.039383872882555161 0
-2.758447206804063e-07 -0.039827968500469893 0
-2.9890035776970819e-07 -0.040313334933630679 0
-3.9191312030758335e-07 -0.040846989075596682 0
-1.6507570272527479e-07 -0.04143579682071246 0
2.8000551573764911e-08 -0.042086598278134074 0
7.1501512593468291e-08 -0.042806953260915312 0
8.6841474088721145e-08 -0.04360892538810076 0
-1.1273079039617863e-07 -0.044511213811552944 0
-7.5676055256878659e-08 -0.045533940160759297 0
-9.8704150474898799e-09 -0.046701395326247938 0
5.813032400770513e-09 -0.048045359363928064 0
4.7271662992501823e-09 -0.049606192622228179 0
5.5982901030240364e-08 -0.051439736022824908 0
9.0130472135298126e-08 -0.053629164875704273 0
5.3278967248184435e-08 -0.05630619801793519 0
7.0357889472751529e-08 -0.059698651404465813 0
1.0400289796810641e-07 -0.064279438777354939 0
1.058676560967084e-07 -0.071665166438982186 0
-1.3245795464176462e-07 -0.036935002360766744 0
-1.3018091884679566e-07 -0.037444403738951353 0
-1.3968862789825435e-07 -0.037839933607886997 0
-1.0141162943988144e-07 -0.038218113597096509 0
-4.6744610889964469e-08 -0.038589264897729625 0
-7.4477193513335144e-08 -0.038972627820644964 0
-6.5804086968595508e-08 -0.039382122183144741 0
-1.212116103419264e-07 -0.039826185028621529 0
5.5586496383965539e-08 -0.040311464503299317 0
6.4393177905100093e-08 -0.040844896285545891 0
1.599375684808425e-08 -0.041433470674652868 0
8.8304870369986639e-08 -0.042084072753092006 0
-2.3507459591197754e-08 -0.042804658871901241 0
1.3057514539364714e-07 -0.043606758823278476 0
1.6953654981043387e-07 -0.044508815149022343 0
1.7021459393991057e-08 -0.045531264632707742 0
-2.1219680755105757e-11 -0.046698704313694925 0
-8.7946409650347331e-08 -0.048042255234631126 0
-9.314851823541651e-08 -0.049603019204321738 0
-1.3177775577417683e-07 -0.051436442668318955 0
-7.9301566999090123e-08 -0.053625495506920903 0
-1.0100796785462764e-07 -0.056302115183548017 0
-1.154427145882646e-07 -0.059694119514120701 0
-1.1142838148129433e-07 -0.064274321179252594 0
-1.0622029859222328e-07 -0.071660344642339835 0
1.198305306336213e-07 -0.03693077955535623 0
1.3643476060895294e-07 -0.037439887747322327 0
1.2971103408079419e-07 -0.037835125738790443 0
7.2418187919397272e-08 -0.038213013011665069 0
9.3917188752916258e-08 -0.038583867793422433 0
1.4971463661937086e-07 -0.038966988444261663 0
1.6090552686374319e-07 -0.039376316519852836 0
2.1501592062548372e-07 -0.03981984528045996 0
2.3701395621764912e-07 -0.040304839569637589 0
2.9369755601084961e-07 -0.040837939346968548 0
4.4265659976721938e-07 -0.041426128107802412 0
4.3126170868031761e-07 -0.042076384370730587 0
2.8929924364528837e-07 -0.042796837071915977 0
-2.6009222724368744e-07 -0.043598184546307955 0
-6.3396173795756577e-08 -0.044499748172952568 0
-9.5012632527814308e-08 -0.045521773276865678 0
-1.428752307893999e-07 -0.046688651263183181 0
-3.3073365239661562e-08 -0.048032079342458595 0
-7.7778487194896368e-08 -0.049592216921749081 0
2.2140088487885935e-08 -0.051424847244688966 0
1.2242059544102381e-08 -0.053613282926778187 0
7.5336553570105638e-08 -0.056289737758960928 0
4.0499645207584212e-08 -0.059683575278387781 0
1.658460573424527e-07 -0.064260028002372863 0
2.1929359509694209e-07 -0.071644983765126874 0
6.4331253758089985e-07 -0.03692104830799578 0
7.2636108590508172e-07 -0.037429306156591242 0
7.7887194948248179e-07 -0.037823888356776726 0
8.4115697681759282e-07 -0.038200971765386012 0
8.7627991883015505e-07 -0.03857111219040555 0
9.4057739490646384e-07 -0.038953636538923114 0
9.7153032277459365e-07 -0.039362162643948442 0
1.0003563107375744e-06 -0.039805166153657361 0
9.7503061413131157e-07 -0.040289566881499067 0
1.0113208188707572e-06 -0.040822015699126857 0
1.0823716663088372e-06 -0.041409390996673699 0
1.0124730883278693e-06 -0.042058740670033602 0
1.2003290192742276e-06 -0.04277780664338092 0
1.1375012464874539e-06 -0.043578107422497514 0
1.1524554323970326e-06 -0.044478466630967231 0
1.306426756739889e-06 -0.045498988646340492 0
1.2859395431582533e-06 -0.046664159869723672 0
1.2938399203911361e-06 -0.048006407904636582 0
1.2673237316078998e-06 -0.049564866102647438 0
1.263733270839998e-06 -0.051394912376729773 0
1.2457182642488991e-06 -0.053580620466364325 0
1.2771736707894506e-06 -0.05625459902550168 0
1.2325646604393685e-06 -0.05965060223391469 0
1.2934784333313112e-06 -0.064222626193691512 0
1.258206752570504e-06 -0.071603841323442149 0
1.5252920804806223e-06 -0.036899845693821022 0
1.6705893342400917e-06 -0.037405910967696847 0
1.778837369751553e-06 -0.037798801390672321 0
1.8303098973329529e-06 -0.038174798160699422 0
1.8794691230822398e-06 -0.038543597191447197 0
1.9438783958063667e-06 -0.038924606776193568 0
2.0104839814545758e-06 -0.039331418385109396 0
2.0646451339083232e-06 -0.039772807090067128 0
2.1694040488693283e-06 -0.04025542267556486 0
2.2133356825666084e-06 -0.040786078668359711 0
2.2655878875601003e-06 -0.04137160828722123 0
2.3382128591800407e-06 -0.0420189238329432 0
2.3869420553086221e-06 -0.042735714578797962 0
2.5160067650748692e-06 -0.043533402701018777 0
2.557307946065124e-06 -0.0444309195095524 0
2.5812577454910763e-06 -0.045448304004396312 0
2.6502637550658778e-06 -0.046609956235247635 0
2.6643934628660891e-06 -0.047947525759794593 0
2.7245945895716573e-06 -0.049501185675090348 0
2.7695084851221287e-06 -0.051326477239747523 0
2.8535554901428375e-06 -0.05350636516614761 0
2.8968648720543505e-06 -0.056173543258818182 0
2.8698542961723387e-06 -0.059559663895287794 0
2.9123459914991444e-06 -0.064125596070421578 0
3.055262379466031e-06 -0.071496545862713062 0
4.0400755719627657e-06 -0.036861024980540877 0
4.3074115459213011e-06 -0.037363385995104179 0
4.5218623744266581e-06 -0.03775331540808477 0
4.6656801584205276e-06 -0.038126210846291413 0
4.7988409152252438e-06 -0.038491935283262821 0
4.9432133219306274e-06 -0.038869792269765994 0
5.0623699006928574e-06 -0.039272943522834322 0
5.1194121937697049e-06 -0.039710464559545897 0
5.2874202922887467e-06 -0.04018876231791281 0
5.309753155924085e-06 -0.040714654996179683 0
5.4282862668469306e-06 -0.041294850094560825 0
5.4603373000785024e-06 -0.041936195149787504 0
5.5353428429530725e-06 -0.042646159458131827 0
5.6648931709492971e-06 -0.043436414120453772 0
5.7538349127295752e-06 -0.044325093173063518 0
5.9091105949453557e-06 -0.045332496721979615 0
6.0375392146065725e-06 -0.046482941104100908 0
6.1781190832022326e-06 -0.047807528714165541 0
6.3177605153265387e-06 -0.049346650206958428 0
6.4815090260434799e-06 -0.051155741917035813 0
6.658940545154137e-06 -0.053317367021468658 0
6.8587072899782813e-06 -0.055963590447862969 0
7.0375514547048047e-06 -0.059323778198573464 0
7.2891234925858075e-06 -0.063863979149660965 0
7.5904707751497164e-06 -0.071202209808090208 0
1.1473067517128837e-05 -0.036788182739588435 0
1.2149780045794306e-05 -0.037285869865293163 0
1.2707423323167582e-05 -0.037671617807580868 0
1.3133783686629906e-05 -0.038039957864178381 0
1.3464174937994482e-05 -0.038401008827729864 0
1.3759612998487279e-05 -0.038773765583761818 0
1.4041125419277065e-05 -0.039171389296511913 0
1.4291991607567114e-05 -0.03960239213431764 0
1.4420226620346938e-05 -0.040072720609883879 0
1.4771983102731548e-05 -0.040589145270209542 0
1.4881983484993133e-05 -0.04115793208612497 0
1.4834205374269698e-05 -0.041785315136816263 0
1.5083080331983737e-05 -0.042479029803781654 0
1.5342646097427526e-05 -0.043249710339658846 0
1.5564487799891756e-05 -0.044115305807536115 0
1.571195028831516e-05 -0.04509527802219309 0
1.5941458024642108e-05 -0.046213594991554578 0
1.6131895292054358e-05 -0.04750058639934545 0
1.6304304584240277e-05 -0.048996101629246523 0
1.6471844113150314e-05 -0.050754647036260689 0
1.6674549768285201e-05 -0.052857117129976143 0
1.6904721481672805e-05 -0.055434780626618371 0
1.7164998758846616e-05 -0.058718501944940382 0
1.7389843299937956e-05 -0.063176820702197267 0
1.7635901339725844e-05 -0.070412668160477615 0
1.970412974197587e-05 -0.036602347580242722 0
2.0706662142371323e-05 -0.037059545003945621 0
2.1415078633699914e-05 -0.037414106479407072 0
2.2053555558323473e-05 -0.037759030415646176 0
2.2629510441906353e-05 -0.038105302434312288 0
2.3166670493255652e-05 -0.038467840689633381 0
2.3669961425588217e-05 -0.038856666123198783 0
2.4143164355414426e-05 -0.039278120311666297 0
2.458652970797226e-05 -0.039737710952230922 0
2.4995103062077824e-05 -0.040241541433182204 0
2.535683568655027e-05 -0.040795776527465591 0
2.5663803918913764e-05 -0.041406905573278169 0
2.5913118354285798e-05 -0.042081837330267428 0
2.6113099277822029e-05 -0.042830503238820108 0
2.6280538376374947e-05 -0.04367088358793051 0
2.6435109453436115e-05 -0.044622496785969273 0
2.6594635573925127e-05 -0.045709407180186783 0
2.6768459983313475e-05 -0.046960793761465378 0
2.6915805427404654e-05 -0.048418174156927341 0
2.7187194130935749e-05 -0.050134441936253715 0
2.7487214875189357e-05 -0.052193821268721109 0
2.7845478352713311e-05 -0.054731014203626145 0
2.8299839611346494e-05 -0.057975184771409755 0
2.8887681972041992e-05 -0.062374446604329344 0
2.9741500426094137e-05 -0.069329701817937725 0
-0 -0 0
-0 -0 0
-0 -0 0
-0 -0 0
-0 -0 0
-0 -0 0
1.9992909314810275e-05 0.035557585270914564 0
2.3225178126109232e-05 0.038378116147038392 0
2.6580042784345443e-05 0.043963512466533475 0
-0 -0 0
-0 -0 0
-0 -0 0
2.1711965377168551e-05 0.037412802180806143 0
2.3503189568258025e-05 0.039153974857945695 0
2.6073213169385493e-05 0.044288221106646805 0
-0 -0 0
-0 -0 0
-0 -0 0
1.6973123799827958e-05 0.037540096537968443 0
1.8753984660515631e-05 0.039292807020417889 0
2.0963244223515505e-05 0.044446242395108616 0
-0 -0 0
-0 -0 0
-0 -0 0
8.8516633004505001e-06 0.037682739998586838 0
9.8473804305626089e-06 0.039453841167789085 0
1.1169819788594902e-05 0.044686338930296512 0
-0 -0 0
-0 -0 0
-0 -0 0
3.4016347720020694e-06 0.037745100185980741 0
3.8658531661360397e-06 0.039534898105690733 0
4.4879570470404329e-06 0.044830970050347183 0
-0 -0 0
-0 -0 0
-0 -0 0
1.3726448540858539e-06 0.03777934153679597 0
1.5726542658133431e-06 0.03957847385908058 0
1.814272008160967e-06 0.044901447008232849 0
-0 -0 0
-0 -0 0
-0 -0 0
5.1929971910664874e-07 0.037796751836071285 0
5.9702097158420255e-07 0.039600071659312105 0
7.1162677889175897e-07 0.044933167750587234 0
-0 -0 0
-0 -0 0
-0 -0 0
1.50416022961724e-07 0.037804522969907814 0
2.1190006626383344e-07 0.039609633360468716 0
3.2682098079051443e-07 0.044946471192529341 0
-0 -0 0
-0 -0 0
-0 -0 0
6.3014661608222807e-08 0.037807137147543517 0
7.4980331761119147e-08 0.039612909305875792 0
9.0653706540044349e-08 0.044951007979846386 0
-0 -0 0
-0 -0 0
-0 -0 0
1.0177523378929836e-07 0.037806828246069908 0
5.2316490936358753e-08 0.039612578547137081 0
-1.1283921981624891e-08 0.044950756508570791 0
-0 -0 0
-0 -0 0
-0 -0 0
9.2302307660767481e-08 0.037803844005133515 0
7.0174192553230979e-08 0.039608849141556025 0
7.8233435965545773e-08 0.04494556718452504 0
-0 -0 0
-0 -0 0
-0 -0 0
-3.838980255334609e-07 0.037796031355852751 0
-4.6076249288169792e-07 0.039599237008909882 0
-5.4022791574694824e-07 0.044931855278244746 0
-0 -0 0
-0 -0 0
-0 -0 0
-1.254793062069962e-06 0.037778331199320038 0
-1.4837814714363896e-06 0.039577537346372905 0
-1.800126574580067e-06 0.044900358688623479 0
-0 -0 0
-0 -0 0
-0 -0 0
-3.1115229136076968e-06 0.037743909057396101 0
-3.5629445345764485e-06 0.039533960221636494 0
-4.179914340475412e-06 0.044830528246028137 0
-0 -0 0
-0 -0 0
-0 -0 0
-8.4630860072772755e-06 0.037681812334611625 0
-9.377855859357711e-06 0.039453211125796195 0
-1.0592922310217303e-05 0.044686531662363763 0
-0 -0 0
-0 -0 0
-0 -0 0
-1.6512225691871679e-05 0.037539623015881013 0
-1.815816869291446e-05 0.039292581895698349 0
-2.0213421096744061e-05 0.044446689728303838 0
-0 -0 0
-0 -0 0
-0 -0 0
-2.1147310328820945e-05 0.037412667341281777 0
-2.2814435860599791e-05 0.039153947866263313 0
-2.5227099566127252e-05 0.044288752443245677 0
-0 -0 0
-0 -0 0
-0 -0 0
-1.9510862439021272e-05 0.035557141346922047 0
-2.2567629518145704e-05 0.038377894046696046 0
-2.5713240159535649e-05 0.043964100642520661 0
-0 -0 0
-0 -0 0
-0 -0 0
-0 -0 0
-0 -0 0
-0 -0 0
-0 -0 0
-0 -0 0
-0 -0 0
-0 -0 0
-0 -0 0
-0 -0 0
-0 -0 0
-0 -0 0
-0 -0 0
-0 -0 0
-0 -0 0
-0 -0 0
-0 -0 0
-0 -0 0
-0 -0 0
-0 -0 0
-0 -0 0
-0 -0 0
-0 -0 0
-0 -0 0
-0 -0 0
-0 -0 0
-0 -0 0
-0 -0 0
-0 -0 0
-0 -0 0
-0 -0 0
-0 -0 0
-0 -0 0
-0 -0 0
-0 -0 0
-0 -0 0
-0 -0 0
-0 -0 0
-0 -0 0
-0 -0 0
-0 -0 0
-0 -0 0
-0 -0 0
-0 -0 0
-0 -0 0
-0 -0 0
-0 -0 0
-0 -0 0
-0 -0 0
-0 -0 0
-0 -0 0
-0 -0 0
-0 -0 0
-0 -0 0
-0 -0 0
-0 -0 0
-0 -0 0
-0 -0 0
-0 -0 0
-0 -0 0
-0 -0 0
-0 -0 0
-0 -0 0
-0 -0 0
-0 -0 0
-0 -0 0
-0 -0 0
-0 -0 0
-0 -0 0
-0 -0 0
-0 -0 0
-0 -0 0
-0 -0 0
-0 -0 0
-0 -0 0
-0 -0 0
-0 -0 0
-0 -0 0
-0 -0 0
-0 -0 0
-0 -0 0
-0 -0 0
-0 -0 0
-0 -0 0
-0 -0 0
-0 -0 0
-0 -0 0
-0 -0 0
-0 -0 0
-0 -0 0
-0 -0 0
-0 -0 0
-0 -0 0
-0 -0 0
-0 -0 0
-0 -0 0
-0 -0 0
-0 -0 0
-0 -0 0
-0 -0 0
-0 -0 0
-0 -0 0
-0 -0 0
-0 -0 0
-0 -0 0
-0 -0 0
-0 -0 0
-0 -0 0
-0 -0 0
-0 -0 0
-0 -0 0
-0 -0 0
-0 -0 0
-0 -0 0
-0 -0 0
-0 -0 0
-0 -0 0
-0 -0 0
-0 -0 0
-0 -0 0
-0 -0 0
-0 -0 0
-0 -0 0
-0 -0 0
-0 -0 0
-0 -0 0
-0 -0 0
-0 -0 0
-0 -0 0
-0 -0 0
-0 -0 0
-0 -0 0
-0 -0 0
-0 -0 0
-0 -0 0
-0 -0 0
-0 -0 0
-0 -0 0
-0 -0 0
-0 -0 0
-0 -0 0
-0 -0 0
-0 -0 0
-0 -0 0
-0 -0 0
-0 -0 0
-0 -0 0
-0 -0 0
-0 -0 0
-0 -0 0
-0 -0 0
-0 -0 0
-0 -0 0
-0 -0 0
-0 -0 0
-0 -0 0
-0 -0 0
-0 -0 0
-0 -0 0
-0 -0 0
-0 -0 0
-0 -0 0
-0 -0 0
-0 -0 0
-0 -0 0
-0 -0 0
-0 -0 0
-0 -0 0
-0 -0 0
-0 -0 0
-0 -0 0
-0 -0 0
-0 -0 0
-0 -0 0
-0 -0 0
-0 -0 0
-0 -0 0
-0 -0 0
-0 -0 0
-0 -0 0
-0 -0 0
-0 -0 0
-0 -0 0
-0 -0 0
-0 -0 0
-0 -0 0
-0 -0 0
-0 -0 0
-0 -0 0
-0 -0 0
-0 -0 0
-0 -0 0
-0 -0 0
