# vtk DataFile Version 3.0
SPH particles (WCSPH) - legacy PolyData
ASCII
DATASET POLYDATA
POINTS 681 float
0.049990824296392178 0.023935589041527271 0
0.049989478099194962 0.02635062426750772 0
0.049988413534540671 0.028264602106115765 0
0.049987399880400504 0.030174180506524893 0
0.049986485458402799 0.03205924390921603 0
0.049985664738264581 0.033914923961256976 0
0.049984948125473112 0.035745918646847549 0
0.049984147412657214 0.037560802143261178 0
0.049983164799905416 0.039369474554791395 0
0.049981801956406627 0.041182445529013567 0
0.049979663784001392 0.043010741724983467 0
0.04997702495049313 0.044866317177802824 0
0.049975855059848875 0.046762168162292277 0
0.049976999894908766 0.048712399401570933 0
0.049979342272384583 0.050732319898119702 0
0.049982240564297578 0.052839474002220041 0
0.04998519859115301 0.055056031942487885 0
0.049988087016831009 0.05742293282191141 0
0.049990748679117882 0.05998090199854076 0
0.049993057111004414 0.062788179332347913 0
0.04999501278224127 0.065947604406706398 0
0.049996629073028993 0.069600217204355497 0
0.04999799132724133 0.074039720399236453 0
0.04999917295096077 0.080490304699384244 0
0.049999999999407942 0.12202713631445708 0
0.069995130179967308 0.022372746087491829 0
0.069994336800694196 0.025083975130807443 0
0.069993677242420477 0.02726780610231604 0
0.069993074809632932 0.029394722203179891 0
0.069992530349616278 0.031458393684189179 0
0.069991990277321656 0.033464900221091644 0
0.069991453027540965 0.035427020745254598 0
0.069990900289687241 0.037359321537088701 0
0.06999026134612521 0.039275762380015955 0
0.069989327326454839 0.041189869858198364 0
0.069987618286127568 0.04311502635457657 0
0.069984959465210453 0.045065133481666006 0
0.0699833023424659 0.047054841390524696 0
0.069983538008965174 0.04910001462038547 0
0.069985079738760156 0.051218259538861867 0
0.06998724948449643 0.053428714953740006 0
0.069989517015907041 0.055753498311458573 0
0.06999178646540935 0.058231857639816482 0
0.069993750433581456 0.060908095217290112 0
0.069995387130529829 0.063845536163912198 0
0.069996757047331368 0.067145359564507331 0
0.069997859174201774 0.07097419401868918 0
0.069998736642204865 0.075678447440354402 0
0.069999443031476205 0.082498230722686153 0
0.069999999992632983 0.12108736710491484 0
0.089998154588289983 0.022304181913423 0
0.089997807336102562 0.025022416790540257 0
0.089997568205454029 0.027213282804433921 0
0.08999727258502109 0.029350522213982714 0
0.089996979740318644 0.031426775779932033 0
0.089996736923563664 0.033447469650076923 0
0.089996280745298474 0.0354252585172532 0
0.08999606233811229 0.037374521979825159 0
0.089995748986399282 0.039309293264044816 0
0.089995396642143066 0.041243161712672671 0
0.089995010802130404 0.043189590569744578 0
0.089994270951567368 0.045162712743811284 0
0.089993384577893742 0.047177316203005887 0
0.089993005256414516 0.049249505058581972 0
0.089993519694078469 0.051397588694397936 0
0.08999439693200019 0.053643090860142323 0
0.089995393719453379 0.056009572827240395 0
0.089996333489587119 0.05852702843808677 0
0.089997161020133901 0.061242986153585005 0
0.089997841828635988 0.06422110836762504 0
0.089998426852236565 0.067560630719775458 0
0.08999892330329215 0.071435566019100658 0
0.089999335020603005 0.07619723508481463 0
0.089999684867024393 0.083078219178762361 0
0.089999999990410445 0.12052944096051781 0
0.10999942412568496 0.022326111680043188 0
0.10999924462348609 0.025046247119405028 0
0.10999911746442849 0.027239063500077758 0
0.10999897748698415 0.029378695531778517 0
0.10999884146747034 0.031457781224573121 0
0.10999883563728009 0.033481685371085645 0
0.10999886420141078 0.035463120587215277 0
0.10999878323678368 0.037416398164861545 0
0.10999871580709891 0.039355548214688056 0
0.10999860797455563 0.041294271115895204 0
0.10999840402276959 0.043246097872054433 0
0.10999862978973746 0.045225218613633177 0
0.10999803742586145 0.04724645098151177 0
0.1099975124177691 0.049326034322060071 0
0.10999755354033358 0.051482326694014431 0
0.10999782356152107 0.053737080312929113 0
0.10999812465182875 0.056115283923092153 0
0.10999854992600265 0.058643881173626726 0
0.10999885934804134 0.061371419754755706 0
0.10999911886082307 0.064361325191564289 0
0.10999934045762402 0.067714814379641927 0
0.10999953673535272 0.071607288066778393 0
0.10999969875440298 0.076387798106049593 0
0.10999984911636643 0.083290823932023431 0
0.10999999999328083 0.12016741221860554 0
0.12999990149777901 0.022341784083482377 0
0.12999988365990564 0.025063673944012783 0
0.1299998694349391 0.027257856224698136 0
0.12999986340868303 0.029398839176727722 0
0.12999991896413987 0.031479238968554112 0
0.12999998201238305 0.033504523867268252 0
0.13000002757225168 0.035487450274719563 0
0.13000006346117371 0.037442244103525306 0
0.13000013052089354 0.039383048423358394 0
0.13000025109214519 0.041323520159742895 0
0.13000031936148126 0.043277229157363865 0
0.13000018398255522 0.045258410929955806 0
0.12999989786144159 0.047282045960751737 0
0.12999961682470229 0.049364133726175687 0
0.12999941704532034 0.051523287118919625 0
0.12999931143805396 0.053781188593880258 0
0.12999939408501993 0.056162820041711005 0
0.12999951116404571 0.058695131421152222 0
0.12999961101620414 0.061426738163472348 0
0.12999969545675022 0.06442101876816192 0
0.12999976705685742 0.067779825490163759 0
0.12999982346011871 0.071678701115774707 0
0.12999988556544026 0.076466055351092785 0
0.12999994625793512 0.0833782764189617 0
0.12999999999742981 0.11994909190391428 0
0.15000017643850999 0.022349623207752901 0
0.15000020685420709 0.025072445766910537 0
0.15000024773773402 0.027267368022337236 0
0.15000030031814679 0.029409061217734195 0
0.15000046932993741 0.031490148366562054 0
0.15000051166694575 0.033516076926477158 0
0.15000050903984799 0.035499634416570343 0
0.15000053595828677 0.037455133781780746 0
0.15000058802627991 0.039396657004566557 0
0.15000064449575029 0.041337878579139176 0
0.15000072438880138 0.043292418123644635 0
0.15000059832722321 0.045274455468748712 0
0.15000054880440936 0.047299103116510394 0
0.15000032795437923 0.049382324742166889 0
0.15000013267886472 0.051542624446869106 0
0.14999998729114256 0.053801827802418441 0
0.14999993307546694 0.056184849563361776 0
0.14999993617563223 0.058718678944686881 0
0.14999994860669266 0.061452009324217877 0
0.14999995617822046 0.064448186646601124 0
0.14999994492478427 0.067809126178542872 0
0.14999995089998067 0.071710436714323783 0
0.14999997180835833 0.076500589666938623 0
0.14999999029881095 0.083416995741464217 0
0.14999999999977451 0.11982810833226221 0
0.17000033000521239 0.022353167767220398 0
0.1700004006491079 0.025076408455205763 0
0.170000437774356 0.02727164776509906 0
0.17000056411476577 0.029413611130409821 0
0.17000064567810211 0.031494951139442624 0
0.17000077956688145 0.033521187929019598 0
0.17000096968899145 0.035505085707810156 0
0.17000102699230066 0.037460882741861247 0
0.17000106224085984 0.039402689321225821 0
0.1700010898518394 0.041344220516740235 0
0.1700010843761636 0.043299119714795407 0
0.17000097857691834 0.045281581424318311 0
0.17000096704654966 0.047306634777513075 0
0.17000095629315676 0.04939021790277786 0
0.17000050783328233 0.051551031866684346 0
0.17000035957147983 0.053810798387490873 0
0.17000025198916874 0.056194446533383964 0
0.1700001884899284 0.058728935978835037 0
0.17000014538734567 0.061462992584747321 0
0.17000011563872833 0.064459972500789581 0
0.17000006062826914 0.06782182945220129 0
0.1700000295172665 0.071724161028163785 0
0.17000000906468907 0.076515499768240763 0
0.17000000257779654 0.083433791078131925 0
0.17000000000043691 0.11976951027339952 0
0.19000025369921436 0.022354191148303327 0
0.19000028964606236 0.025077519911122344 0
0.19000044690951348 0.027272924179923875 0
0.19000049627513191 0.029414946797519954 0
0.19000059041182094 0.031496336804227816 0
0.19000079575020321 0.033522701066088442 0
0.19000099630609438 0.035506604315757917 0
0.19000097886182157 0.037462403577822045 0
0.19000102998420024 0.039404273782532612 0
0.19000106215477436 0.041345918017188947 0
0.19000093021142525 0.04330089835970468 0
0.19000098592205975 0.045283523092383829 0
0.19000068978333612 0.047308686353350692 0
0.19000060533183599 0.049392468599782871 0
0.19000054948924752 0.051553403690596661 0
0.19000035023486428 0.053813320953740418 0
0.19000030573899535 0.056197148661834694 0
0.19000029360330842 0.058731834251285739 0
0.1900002271407418 0.061466092850035063 0
0.19000027050119528 0.064463308335905939 0
0.19000020825308245 0.067825426180500289 0
0.19000013440157831 0.071728054219969306 0
0.19000005391697655 0.076519732292641335 0
0.19000001726388777 0.083438572029451721 0
0.1900000000013618 0.1197522894541196 0
0.21000030797230626 0.022353210007129688 0
0.21000038432707252 0.025076430491110181 0
0.21000043743700242 0.0272716585826797 0
0.21000049725879177 0.029413652890340335 0
0.2100005952668858 0.03149499792500398 0
0.21000061923867225 0.033521248926109692 0
0.2100007117948898 0.035505129217967273 0
0.21000073913064934 0.037460922783630217 0
0.21000079776274877 0.039402750657082167 0
0.21000082620815111 0.041344325000486702 0
0.21000080152420555 0.043299220473253609 0
0.21000075629312681 0.0452816744215691 0
0.21000057921480941 0.04730667468999733 0
0.21000043201461158 0.049390293477909193 0
0.21000041665369157 0.05155110986572102 0
0.21000032713302322 0.053810834922594773 0
0.21000029115165977 0.056194491619585202 0
0.21000033889286002 0.058728983786017958 0
0.21000017106995156 0.06146304377833875 0
0.21000014419361054 0.06446005822697809 0
0.2100001094266766 0.067821913239203599 0
0.21000009514982063 0.071724274082019188 0
0.21000005000902985 0.076515610261389866 0
0.21000002192560716 0.083433904355924279 0
0.21000000000138838 0.11976951037185195 0
0.23000037769819071 0.022349680077022441 0
0.23000045041727565 0.02507252291223468 0
0.23000052733100368 0.027267458653260305 0
0.23000060101796119 0.029409103434736749 0
0.23000072102590691 0.03149021921159921 0
0.2300008024496559 0.033516162732699098 0
0.2300008956600148 0.035499748363391564 0
0.23000092986139159 0.037455234176681777 0
0.23000103724762291 0.039396755329123095 0
0.23000110532185269 0.041337975648073851 0
0.23000112184478555 0.043292531670196976 0
0.23000096938150957 0.04527464900980669 0
0.23000079463777334 0.047299285105918007 0
0.23000070919932888 0.049382451346846747 0
0.23000069857558794 0.051542737103159104 0
0.23000062648765501 0.053801942827799036 0
0.23000052587648365 0.056185000703983717 0
0.23000042411857333 0.058718853356740763 0
0.23000037797622838 0.061452166987208526 0
0.23000029712124592 0.064448371166349064 0
0.23000022504259474 0.067809321762868774 0
0.23000016128308326 0.071710633970821086 0
0.23000010342661653 0.07650077270569236 0
0.2300000523671076 0.083417160451434449 0
0.23000000000274248 0.11982810846457254 0
0.25000055160379947 0.022341796467751439 0
0.25000066186778463 0.025063696343229164 0
0.250000740984194 0.027257937861656797 0
0.25000086919136993 0.029398969367436238 0
0.25000097659045911 0.03147937891518595 0
0.2500010842008254 0.033504676437516465 0
0.25000112799552571 0.035487629125922432 0
0.25000127798243188 0.03744244489121374 0
0.2500013643060861 0.039383251816313324 0
0.25000147400903183 0.041323699416836876 0
0.25000153587329804 0.043277424972070599 0
0.25000145958266423 0.045258621819300099 0
0.25000132851568613 0.047282326806025871 0
0.25000148317794929 0.049364381339474038 0
0.25000136369102355 0.05152353260369099 0
0.25000126951935137 0.05378146900208626 0
0.25000108784114838 0.056163119022216948 0
0.25000087192032006 0.058695419771291057 0
0.25000070564951876 0.061427012307825768 0
0.25000055868984172 0.064421292800048838 0
0.25000042375538123 0.067780105539775024 0
0.25000029930010054 0.071678965936342709 0
0.25000019095752973 0.076466307594505206 0
0.25000009555100194 0.083378484130446656 0
0.25000000000507716 0.11994909205034819 0
0.27000087929423239 0.02232614362603361 0
0.27000106326195428 0.025046297721598988 0
0.27000119727027788 0.027239132154205207 0
0.27000135066262931 0.029378798067179451 0
0.27000163400509802 0.031457936430793518 0
0.27000179273313518 0.033481875156832819 0
0.27000194933348465 0.035463405088515601 0
0.27000213882713953 0.037416700684374332 0
0.27000234513148696 0.03935587812854708 0
0.27000254443480892 0.041294603017721809 0
0.27000275059505741 0.043246410067824627 0
0.27000282941147463 0.045225496775851227 0
0.27000323663296882 0.047246774460230241 0
0.27000318596177131 0.049326320593602764 0
0.27000300697712443 0.051482620690074317 0
0.27000264934938739 0.053737421244321418 0
0.27000220095137795 0.056115665822625643 0
0.27000175321904812 0.058644267426502909 0
0.27000138238449656 0.061371757762137824 0
0.2700010760085586 0.064361639570970311 0
0.27000081314372015 0.067715134680609121 0
0.27000057766503216 0.071607601756247835 0
0.27000036681806977 0.076388105291861783 0
0.2700001807792502 0.08329109142955278 0
0.27000000000806063 0.12016741238394449 0
0.29000205620162017 0.022304273493176971 0
0.29000243044117097 0.0250224881128987 0
0.290002721041484 0.027213376873996751 0
0.29000301759105979 0.029350644722307941 0
0.29000331497762122 0.031426890114808467 0
0.29000365380809145 0.033447612258557476 0
0.29000399371482083 0.035425548474304958 0
0.29000438083186242 0.037374872015304678 0
0.29000481321131655 0.039309649306678206 0
0.2900052973631308 0.041243509233004079 0
0.29000585558034542 0.043189957662483423 0
0.29000646608654712 0.045163043540492935 0
0.2900071076171058 0.047177641170680518 0
0.29000726821000045 0.049249799949945737 0
0.29000677150732795 0.051397881928215011 0
0.29000592905634104 0.053643393988471906 0
0.29000490852567379 0.056009929755192776 0
0.29000392630468402 0.058527401388233938 0
0.29000304128113719 0.06124334042264358 0
0.29000229972685371 0.064221428553309076 0
0.29000167873610921 0.067560949046556282 0
0.29000115848600894 0.071435886873073007 0
0.29000072116299119 0.076197544848720405 0
0.29000034217199006 0.083078496213638331 0
0.29000000001006532 0.12052944108617661 0
0.31000508491666207 0.022372899277487288 0
0.31000590463281097 0.025084155299734019 0
0.31000651177198668 0.027267964941346687 0
0.31000709095187695 0.02939495365946862 0
0.31000765657528095 0.03145863381557433 0
0.31000823022906876 0.033465093517429954 0
0.31000880689591503 0.035427311112556377 0
0.31000937275700896 0.037359627073246769 0
0.31001006249503982 0.039276035658330037 0
0.31001099244721075 0.041190108399348571 0
0.31001277980530917 0.043115228983829308 0
0.31001544929942676 0.045065351363361553 0
0.3100169428794029 0.04705510323766899 0
0.31001651538334546 0.049100274102893686 0
0.31001504292241561 0.051218511608328854 0
0.31001299114189673 0.053428973762781662 0
0.31001070417116811 0.055753786110066962 0
0.31000845602236032 0.058232191519277859 0
0.31000646223890671 0.060908468378415251 0
0.31000476740305627 0.063845895019720392 0
0.31000337299375064 0.067145717738219854 0
0.31000224792773201 0.070974510107046487 0
0.31000133508217226 0.075678724098960454 0
0.31000059142270897 0.082498444936091667 0
0.31000000000751698 0.12108736715447961 0
0.33000889539895045 0.02393592340816951 0
0.33001018372446578 0.026350945756821554 0
0.33001119284546099 0.028264903094839016 0
0.33001214459415978 0.030174450611374852 0
0.33001298316600874 0.032059484412502587 0
0.33001374779642156 0.033915123103073763 0
0.33001447000961281 0.035746089357321376 0
0.33001524023194212 0.037560934719450524 0
0.33001607152273743 0.039369562651705881 0
0.33001722900933761 0.041182491960377071 0
0.33001924683914674 0.043010757464565355 0
0.33002186481918216 0.044866321986771408 0
0.33002294063748394 0.046762167943352244 0
0.33002176159255681 0.048712358021973566 0
0.33001955045739256 0.050732273269997033 0
0.33001680565074776 0.052839414908295849 0
0.33001386972260743 0.055055972573522072 0
0.33001102124340215 0.057422853140076939 0
0.3300084762651046 0.059980825408300013 0
0.33000628476985444 0.062788096774378008 0
0.33000446217729862 0.065947494868587614 0
0.33000295948209757 0.069600069679924881 0
0.33000172190260696 0.074039545835872161 0
0.33000071336890902 0.080490161498013524 0
0.33000000000053425 0.12202713631111409 0
0 0 0
0 0.020000000000000004 0
0 0.040000000000000001 0
0 0.54999999999999993 0
0 0.56000000000000005 0
0 0.58000000000000007 0
0.02 0 0
0.02 0.020000000000000004 0
0.02 0.040000000000000001 0
0.02 0.54999999999999993 0
0.02 0.56000000000000005 0
0.02 0.58000000000000007 0
0.040000000000000001 0 0
0.040000000000000001 0.020000000000000004 0
0.040000000000000001 0.040000000000000001 0
0.040000000000000001 0.54999999999999993 0
0.040000000000000001 0.56000000000000005 0
0.040000000000000001 0.58000000000000007 0
0.059999999999999998 0 0
0.059999999999999998 0.020000000000000004 0
0.059999999999999998 0.040000000000000001 0
0.059999999999999998 0.54999999999999993 0
0.059999999999999998 0.56000000000000005 0
0.059999999999999998 0.58000000000000007 0
0.080000000000000002 0 0
0.080000000000000002 0.020000000000000004 0
0.080000000000000002 0.040000000000000001 0
0.080000000000000002 0.54999999999999993 0
0.080000000000000002 0.56000000000000005 0
0.080000000000000002 0.58000000000000007 0
0.10000000000000001 0 0
0.10000000000000001 0.020000000000000004 0
0.10000000000000001 0.040000000000000001 0
0.10000000000000001 0.54999999999999993 0
0.10000000000000001 0.56000000000000005 0
0.10000000000000001 0.58000000000000007 0
0.12 0 0
0.12 0.020000000000000004 0
0.12 0.040000000000000001 0
0.12 0.54999999999999993 0
0.12 0.56000000000000005 0
0.12 0.58000000000000007 0
0.14000000000000001 0 0
0.14000000000000001 0.020000000000000004 0
0.14000000000000001 0.040000000000000001 0
0.14000000000000001 0.54999999999999993 0
0.14000000000000001 0.56000000000000005 0
0.14000000000000001 0.58000000000000007 0
0.16 0 0
0.16 0.020000000000000004 0
0.16 0.040000000000000001 0
0.16 0.54999999999999993 0
0.16 0.56000000000000005 0
0.16 0.58000000000000007 0
0.17999999999999999 0 0
0.17999999999999999 0.020000000000000004 0
0.17999999999999999 0.040000000000000001 0
0.17999999999999999 0.54999999999999993 0
0.17999999999999999 0.56000000000000005 0
0.17999999999999999 0.58000000000000007 0
0.20000000000000001 0 0
0.20000000000000001 0.020000000000000004 0
0.20000000000000001 0.040000000000000001 0
0.20000000000000001 0.54999999999999993 0
0.20000000000000001 0.56000000000000005 0
0.20000000000000001 0.58000000000000007 0
0.22 0 0
0.22 0.020000000000000004 0
0.22 0.040000000000000001 0
0.22 0.54999999999999993 0
0.22 0.56000000000000005 0
0.22 0.58000000000000007 0
0.23999999999999999 0 0
0.23999999999999999 0.020000000000000004 0
0.23999999999999999 0.040000000000000001 0
0.23999999999999999 0.54999999999999993 0
0.23999999999999999 0.56000000000000005 0
0.23999999999999999 0.58000000000000007 0
0.26000000000000001 0 0
0.26000000000000001 0.020000000000000004 0
0.26000000000000001 0.040000000000000001 0
0.26000000000000001 0.54999999999999993 0
0.26000000000000001 0.56000000000000005 0
0.26000000000000001 0.58000000000000007 0
0.28000000000000003 0 0
0.28000000000000003 0.020000000000000004 0
0.28000000000000003 0.040000000000000001 0
0.28000000000000003 0.54999999999999993 0
0.28000000000000003 0.56000000000000005 0
0.28000000000000003 0.58000000000000007 0
0.29999999999999999 0 0
0.29999999999999999 0.020000000000000004 0
0.29999999999999999 0.040000000000000001 0
0.29999999999999999 0.54999999999999993 0
0.29999999999999999 0.56000000000000005 0
0.29999999999999999 0.58000000000000007 0
0.32000000000000001 0 0
0.32000000000000001 0.020000000000000004 0
0.32000000000000001 0.040000000000000001 0
0.32000000000000001 0.54999999999999993 0
0.32000000000000001 0.56000000000000005 0
0.32000000000000001 0.58000000000000007 0
0.34000000000000002 0 0
0.34000000000000002 0.020000000000000004 0
0.34000000000000002 0.040000000000000001 0
0.34000000000000002 0.54999999999999993 0
0.34000000000000002 0.56000000000000005 0
0.34000000000000002 0.58000000000000007 0
0.35999999999999999 0 0
0.35999999999999999 0.020000000000000004 0
0.35999999999999999 0.040000000000000001 0
0.35999999999999999 0.54999999999999993 0
0.35999999999999999 0.56000000000000005 0
0.35999999999999999 0.58000000000000007 0
0.38 0 0
0.38 0.020000000000000004 0
0.38 0.040000000000000001 0
0.38 0.54999999999999993 0
0.38 0.56000000000000005 0
0.38 0.58000000000000007 0
0.40000000000000002 0 0
0.40000000000000002 0.020000000000000004 0
0.40000000000000002 0.040000000000000001 0
0.40000000000000002 0.54999999999999993 0
0.40000000000000002 0.56000000000000005 0
0.40000000000000002 0.58000000000000007 0
0.41999999999999998 0 0
0.41999999999999998 0.020000000000000004 0
0.41999999999999998 0.040000000000000001 0
0.41999999999999998 0.54999999999999993 0
0.41999999999999998 0.56000000000000005 0
0.41999999999999998 0.58000000000000007 0
0.44 0 0
0.44 0.020000000000000004 0
0.44 0.040000000000000001 0
0.44 0.54999999999999993 0
0.44 0.56000000000000005 0
0.44 0.58000000000000007 0
0.46000000000000002 0 0
0.46000000000000002 0.020000000000000004 0
0.46000000000000002 0.040000000000000001 0
0.46000000000000002 0.54999999999999993 0
0.46000000000000002 0.56000000000000005 0
0.46000000000000002 0.58000000000000007 0
0.47999999999999998 0 0
0.47999999999999998 0.020000000000000004 0
0.47999999999999998 0.040000000000000001 0
0.47999999999999998 0.54999999999999993 0
0.47999999999999998 0.56000000000000005 0
0.47999999999999998 0.58000000000000007 0
0.5 0 0
0.5 0.020000000000000004 0
0.5 0.040000000000000001 0
0.5 0.54999999999999993 0
0.5 0.56000000000000005 0
0.5 0.58000000000000007 0
0.52000000000000002 0 0
0.52000000000000002 0.020000000000000004 0
0.52000000000000002 0.040000000000000001 0
0.52000000000000002 0.54999999999999993 0
0.52000000000000002 0.56000000000000005 0
0.52000000000000002 0.58000000000000007 0
0.54000000000000004 0 0
0.54000000000000004 0.020000000000000004 0
0.54000000000000004 0.040000000000000001 0
0.54000000000000004 0.54999999999999993 0
0.54000000000000004 0.56000000000000005 0
0.54000000000000004 0.58000000000000007 0
0.56000000000000005 0 0
0.56000000000000005 0.020000000000000004 0
0.56000000000000005 0.040000000000000001 0
0.56000000000000005 0.54999999999999993 0
0.56000000000000005 0.56000000000000005 0
0.56000000000000005 0.58000000000000007 0
0.57999999999999996 0 0
0.57999999999999996 0.020000000000000004 0
0.57999999999999996 0.040000000000000001 0
0.57999999999999996 0.54999999999999993 0
0.57999999999999996 0.56000000000000005 0
0.57999999999999996 0.58000000000000007 0
0.59999999999999998 0 0
0.59999999999999998 0.020000000000000004 0
0.59999999999999998 0.040000000000000001 0
0.59999999999999998 0.54999999999999993 0
0.59999999999999998 0.56000000000000005 0
0.59999999999999998 0.58000000000000007 0
0.62 0 0
0.62 0.020000000000000004 0
0.62 0.040000000000000001 0
0.62 0.54999999999999993 0
0.62 0.56000000000000005 0
0.62 0.58000000000000007 0
0.64000000000000001 0 0
0.64000000000000001 0.020000000000000004 0
0.64000000000000001 0.040000000000000001 0
0.64000000000000001 0.54999999999999993 0
0.64000000000000001 0.56000000000000005 0
0.64000000000000001 0.58000000000000007 0
0.66000000000000003 0 0
0.66000000000000003 0.020000000000000004 0
0.66000000000000003 0.040000000000000001 0
0.66000000000000003 0.54999999999999993 0
0.66000000000000003 0.56000000000000005 0
0.66000000000000003 0.58000000000000007 0
0.68000000000000005 0 0
0.68000000000000005 0.020000000000000004 0
0.68000000000000005 0.040000000000000001 0
0.68000000000000005 0.54999999999999993 0
0.68000000000000005 0.56000000000000005 0
0.68000000000000005 0.58000000000000007 0
0.70000000000000007 0 0
0.70000000000000007 0.020000000000000004 0
0.70000000000000007 0.040000000000000001 0
0.70000000000000007 0.54999999999999993 0
0.70000000000000007 0.56000000000000005 0
0.70000000000000007 0.58000000000000007 0
0.71999999999999997 0 0
0.71999999999999997 0.020000000000000004 0
0.71999999999999997 0.040000000000000001 0
0.71999999999999997 0.54999999999999993 0
0.71999999999999997 0.56000000000000005 0
0.71999999999999997 0.58000000000000007 0
0.73999999999999999 0 0
0.73999999999999999 0.020000000000000004 0
0.73999999999999999 0.040000000000000001 0
0.73999999999999999 0.54999999999999993 0
0.73999999999999999 0.56000000000000005 0
0.73999999999999999 0.58000000000000007 0
0.76000000000000001 0 0
0.76000000000000001 0.020000000000000004 0
0.76000000000000001 0.040000000000000001 0
0.76000000000000001 0.54999999999999993 0
0.76000000000000001 0.56000000000000005 0
0.76000000000000001 0.58000000000000007 0
0.78000000000000003 0 0
0.78000000000000003 0.020000000000000004 0
0.78000000000000003 0.040000000000000001 0
0.78000000000000003 0.54999999999999993 0
0.78000000000000003 0.56000000000000005 0
0.78000000000000003 0.58000000000000007 0
0.80000000000000004 0 0
0.80000000000000004 0.020000000000000004 0
0.80000000000000004 0.040000000000000001 0
0.80000000000000004 0.54999999999999993 0
0.80000000000000004 0.56000000000000005 0
0.80000000000000004 0.58000000000000007 0
0.82000000000000006 0 0
0.82000000000000006 0.020000000000000004 0
0.82000000000000006 0.040000000000000001 0
0.82000000000000006 0.54999999999999993 0
0.82000000000000006 0.56000000000000005 0
0.82000000000000006 0.58000000000000007 0
0.83999999999999997 0 0
0.83999999999999997 0.020000000000000004 0
0.83999999999999997 0.040000000000000001 0
0.83999999999999997 0.54999999999999993 0
0.83999999999999997 0.56000000000000005 0
0.83999999999999997 0.58000000000000007 0
0.85999999999999999 0 0
0.85999999999999999 0.020000000000000004 0
0.85999999999999999 0.040000000000000001 0
0.85999999999999999 0.54999999999999993 0
0.85999999999999999 0.56000000000000005 0
0.85999999999999999 0.58000000000000007 0
0.88 0 0
0.88 0.020000000000000004 0
0.88 0.040000000000000001 0
0.88 0.54999999999999993 0
0.88 0.56000000000000005 0
0.88 0.58000000000000007 0
0.90000000000000002 0 0
0.90000000000000002 0.020000000000000004 0
0.90000000000000002 0.040000000000000001 0
0.90000000000000002 0.54999999999999993 0
0.90000000000000002 0.56000000000000005 0
0.90000000000000002 0.58000000000000007 0
0.92000000000000004 0 0
0.92000000000000004 0.020000000000000004 0
0.92000000000000004 0.040000000000000001 0
0.92000000000000004 0.54999999999999993 0
0.92000000000000004 0.56000000000000005 0
0.92000000000000004 0.58000000000000007 0
0.94000000000000006 0 0
0.94000000000000006 0.020000000000000004 0
0.94000000000000006 0.040000000000000001 0
0.94000000000000006 0.54999999999999993 0
0.94000000000000006 0.56000000000000005 0
0.94000000000000006 0.58000000000000007 0
0.95999999999999996 0 0
0.95999999999999996 0.020000000000000004 0
0.95999999999999996 0.040000000000000001 0
0.95999999999999996 0.54999999999999993 0
0.95999999999999996 0.56000000000000005 0
0.95999999999999996 0.58000000000000007 0
0.97999999999999998 0 0
0.97999999999999998 0.020000000000000004 0
0.97999999999999998 0.040000000000000001 0
0.97999999999999998 0.54999999999999993 0
0.97999999999999998 0.56000000000000005 0
0.97999999999999998 0.58000000000000007 0
1 0 0
1 0.020000000000000004 0
1 0.040000000000000001 0
1 0.54999999999999993 0
1 0.56000000000000005 0
1 0.58000000000000007 0
VERTICES 681 1362
1 0
1 1
1 2
1 3
1 4
1 5
1 6
1 7
1 8
1 9
1 10
1 11
1 12
1 13
1 14
1 15
1 16
1 17
1 18
1 19
1 20
1 21
1 22
1 23
1 24
1 25
1 26
1 27
1 28
1 29
1 30
1 31
1 32
1 33
1 34
1 35
1 36
1 37
1 38
1 39
1 40
1 41
1 42
1 43
1 44
1 45
1 46
1 47
1 48
1 49
1 50
1 51
1 52
1 53
1 54
1 55
1 56
1 57
1 58
1 59
1 60
1 61
1 62
1 63
1 64
1 65
1 66
1 67
1 68
1 69
1 70
1 71
1 72
1 73
1 74
1 75
1 76
1 77
1 78
1 79
1 80
1 81
1 82
1 83
1 84
1 85
1 86
1 87
1 88
1 89
1 90
1 91
1 92
1 93
1 94
1 95
1 96
1 97
1 98
1 99
1 100
1 101
1 102
1 103
1 104
1 105
1 106
1 107
1 108
1 109
1 110
1 111
1 112
1 113
1 114
1 115
1 116
1 117
1 118
1 119
1 120
1 121
1 122
1 123
1 124
1 125
1 126
1 127
1 128
1 129
1 130
1 131
1 132
1 133
1 134
1 135
1 136
1 137
1 138
1 139
1 140
1 141
1 142
1 143
1 144
1 145
1 146
1 147
1 148
1 149
1 150
1 151
1 152
1 153
1 154
1 155
1 156
1 157
1 158
1 159
1 160
1 161
1 162
1 163
1 164
1 165
1 166
1 167
1 168
1 169
1 170
1 171
1 172
1 173
1 174
1 175
1 176
1 177
1 178
1 179
1 180
1 181
1 182
1 183
1 184
1 185
1 186
1 187
1 188
1 189
1 190
1 191
1 192
1 193
1 194
1 195
1 196
1 197
1 198
1 199
1 200
1 201
1 202
1 203
1 204
1 205
1 206
1 207
1 208
1 209
1 210
1 211
1 212
1 213
1 214
1 215
1 216
1 217
1 218
1 219
1 220
1 221
1 222
1 223
1 224
1 225
1 226
1 227
1 228
1 229
1 230
1 231
1 232
1 233
1 234
1 235
1 236
1 237
1 238
1 239
1 240
1 241
1 242
1 243
1 244
1 245
1 246
1 247
1 248
1 249
1 250
1 251
1 252
1 253
1 254
1 255
1 256
1 257
1 258
1 259
1 260
1 261
1 262
1 263
1 264
1 265
1 266
1 267
1 268
1 269
1 270
1 271
1 272
1 273
1 274
1 275
1 276
1 277
1 278
1 279
1 280
1 281
1 282
1 283
1 284
1 285
1 286
1 287
1 288
1 289
1 290
1 291
1 292
1 293
1 294
1 295
1 296
1 297
1 298
1 299
1 300
1 301
1 302
1 303
1 304
1 305
1 306
1 307
1 308
1 309
1 310
1 311
1 312
1 313
1 314
1 315
1 316
1 317
1 318
1 319
1 320
1 321
1 322
1 323
1 324
1 325
1 326
1 327
1 328
1 329
1 330
1 331
1 332
1 333
1 334
1 335
1 336
1 337
1 338
1 339
1 340
1 341
1 342
1 343
1 344
1 345
1 346
1 347
1 348
1 349
1 350
1 351
1 352
1 353
1 354
1 355
1 356
1 357
1 358
1 359
1 360
1 361
1 362
1 363
1 364
1 365
1 366
1 367
1 368
1 369
1 370
1 371
1 372
1 373
1 374
1 375
1 376
1 377
1 378
1 379
1 380
1 381
1 382
1 383
1 384
1 385
1 386
1 387
1 388
1 389
1 390
1 391
1 392
1 393
1 394
1 395
1 396
1 397
1 398
1 399
1 400
1 401
1 402
1 403
1 404
1 405
1 406
1 407
1 408
1 409
1 410
1 411
1 412
1 413
1 414
1 415
1 416
1 417
1 418
1 419
1 420
1 421
1 422
1 423
1 424
1 425
1 426
1 427
1 428
1 429
1 430
1 431
1 432
1 433
1 434
1 435
1 436
1 437
1 438
1 439
1 440
1 441
1 442
1 443
1 444
1 445
1 446
1 447
1 448
1 449
1 450
1 451
1 452
1 453
1 454
1 455
1 456
1 457
1 458
1 459
1 460
1 461
1 462
1 463
1 464
1 465
1 466
1 467
1 468
1 469
1 470
1 471
1 472
1 473
1 474
1 475
1 476
1 477
1 478
1 479
1 480
1 481
1 482
1 483
1 484
1 485
1 486
1 487
1 488
1 489
1 490
1 491
1 492
1 493
1 494
1 495
1 496
1 497
1 498
1 499
1 500
1 501
1 502
1 503
1 504
1 505
1 506
1 507
1 508
1 509
1 510
1 511
1 512
1 513
1 514
1 515
1 516
1 517
1 518
1 519
1 520
1 521
1 522
1 523
1 524
1 525
1 526
1 527
1 528
1 529
1 530
1 531
1 532
1 533
1 534
1 535
1 536
1 537
1 538
1 539
1 540
1 541
1 542
1 543
1 544
1 545
1 546
1 547
1 548
1 549
1 550
1 551
1 552
1 553
1 554
1 555
1 556
1 557
1 558
1 559
1 560
1 561
1 562
1 563
1 564
1 565
1 566
1 567
1 568
1 569
1 570
1 571
1 572
1 573
1 574
1 575
1 576
1 577
1 578
1 579
1 580
1 581
1 582
1 583
1 584
1 585
1 586
1 587
1 588
1 589
1 590
1 591
1 592
1 593
1 594
1 595
1 596
1 597
1 598
1 599
1 600
1 601
1 602
1 603
1 604
1 605
1 606
1 607
1 608
1 609
1 610
1 611
1 612
1 613
1 614
1 615
1 616
1 617
1 618
1 619
1 620
1 621
1 622
1 623
1 624
1 625
1 626
1 627
1 628
1 629
1 630
1 631
1 632
1 633
1 634
1 635
1 636
1 637
1 638
1 639
1 640
1 641
1 642
1 643
1 644
1 645
1 646
1 647
1 648
1 649
1 650
1 651
1 652
1 653
1 654
1 655
1 656
1 657
1 658
1 659
1 660
1 661
1 662
1 663
1 664
1 665
1 666
1 667
1 668
1 669
1 670
1 671
1 672
1 673
1 674
1 675
1 676
1 677
1 678
1 679
1 680
POINT_DATA 681
SCALARS is_boundary int 1
LOOKUP_TABLE default
0
0
0
0
0
0
0
0
0
0
0
0
0
0
0
0
0
0
0
0
0
0
0
0
0
0
0
0
0
0
0
0
0
0
0
0
0
0
0
0
0
0
0
0
0
0
0
0
0
0
0
0
0
0
0
0
0
0
0
0
0
0
0
0
0
0
0
0
0
0
0
0
0
0
0
0
0
0
0
0
0
0
0
0
0
0
0
0
0
0
0
0
0
0
0
0
0
0
0
0
0
0
0
0
0
0
0
0
0
0
0
0
0
0
0
0
0
0
0
0
0
0
0
0
0
0
0
0
0
0
0
0
0
0
0
0
0
0
0
0
0
0
0
0
0
0
0
0
0
0
0
0
0
0
0
0
0
0
0
0
0
0
0
0
0
0
0
0
0
0
0
0
0
0
0
0
0
0
0
0
0
0
0
0
0
0
0
0
0
0
0
0
0
0
0
0
0
0
0
0
0
0
0
0
0
0
0
0
0
0
0
0
0
0
0
0
0
0
0
0
0
0
0
0
0
0
0
0
0
0
0
0
0
0
0
0
0
0
0
0
0
0
0
0
0
0
0
0
0
0
0
0
0
0
0
0
0
0
0
0
0
0
0
0
0
0
0
0
0
0
0
0
0
0
0
0
0
0
0
0
0
0
0
0
0
0
0
0
0
0
0
0
0
0
0
0
0
0
0
0
0
0
0
0
0
0
0
0
0
0
0
0
0
0
0
0
0
0
0
0
0
0
0
0
0
0
0
0
0
0
0
0
0
0
0
0
0
0
0
0
0
0
0
0
0
0
0
0
0
0
0
0
0
0
0
0
0
0
0
0
0
0
0
0
0
0
0
0
0
0
0
0
0
0
0
1
1
1
1
1
1
1
1
1
1
1
1
1
1
1
1
1
1
1
1
1
1
1
1
1
1
1
1
1
1
1
1
1
1
1
1
1
1
1
1
1
1
1
1
1
1
1
1
1
1
1
1
1
1
1
1
1
1
1
1
1
1
1
1
1
1
1
1
1
1
1
1
1
1
1
1
1
1
1
1
1
1
1
1
1
1
1
1
1
1
1
1
1
1
1
1
1
1
1
1
1
1
1
1
1
1
1
1
1
1
1
1
1
1
1
1
1
1
1
1
1
1
1
1
1
1
1
1
1
1
1
1
1
1
1
1
1
1
1
1
1
1
1
1
1
1
1
1
1
1
1
1
1
1
1
1
1
1
1
1
1
1
1
1
1
1
1
1
1
1
1
1
1
1
1
1
1
1
1
1
1
1
1
1
1
1
1
1
1
1
1
1
1
1
1
1
1
1
1
1
1
1
1
1
1
1
1
1
1
1
1
1
1
1
1
1
1
1
1
1
1
1
1
1
1
1
1
1
1
1
1
1
1
1
1
1
1
1
1
1
1
1
1
1
1
1
1
1
1
1
1
1
1
1
1
1
1
1
1
1
1
1
1
1
1
1
1
1
1
1
1
1
1
1
1
1
1
1
1
1
1
1
1
1
1
1
1
1
1
1
1
1
1
1
1
1
1
1
1
1
1
1
1
1
1
1
SCALARS rho float 1
LOOKUP_TABLE default
1020
1020
1020
1020
1020
1020
1020
1020
1020
1020
1020
1020
1020
1020
1020
1020
1020
1020
1020
1020
1020
1020
1020
1020
850
1020
1020
1020
1020
1020
1020
1020
1020
1020
1020
1020
1020
1020
1020
1020
1020
1020
1020
1020
1020
1020
1020
1020
1020
850
1020
1020
1020
1020
1020
1020
1020
1020
1020
1020
1020
1020
1020
1020
1020
1020
1020
1020
1020
1020
1020
1020
1020
1020
850
1020
1020
1020
1020
1020
1020
1020
1020
1020
1020
1020
1020
1020
1020
1020
1020
1020
1020
1020
1020
1020
1020
1020
1020
850
1020
1020
1020
1020
1020
1020
1020
1020
1020
1020
1020
1020
1020
1020
1020
1020
1020
1020
1020
1020
1020
1020
1020
1020
850
1020
1020
1020
1020
1020
1020
1020
1020
1020
1020
1020
1020
1020
1020
1020
1020
1020
1020
1020
1020
1020
1020
1020
1020
850
1020
1020
1020
1020
1020
1020
1020
1020
1020
1020
1020
1020
1020
1020
1020
1020
1020
1020
1020
1020
1020
1020
1020
1020
850
1020
1020
1020
1020
1020
1020
1020
1020
1020
1020
1020
1020
1020
1020
1020
1020
1020
1020
1020
1020
1020
1020
1020
1020
850
1020
1020
1020
1020
1020
1020
1020
1020
1020
1020
1020
1020
1020
1020
1020
1020
1020
1020
1020
1020
1020
1020
1020
1020
850
1020
1020
1020
1020
1020
1020
1020
1020
1020
1020
1020
1020
1020
1020
1020
1020
1020
1020
1020
1020
1020
1020
1020
1020
850
1020
1020
1020
1020
1020
1020
1020
1020
1020
1020
1020
1020
1020
1020
1020
1020
1020
1020
1020
1020
1020
1020
1020
1020
850
1020
1020
1020
1020
1020
1020
1020
1020
1020
1020
1020
1020
1020
1020
1020
1020
1020
1020
1020
1020
1020
1020
1020
1020
850
1020
1020
1020
1020
1020
1020
1020
1020
1020
1020
1020
1020
1020
1020
1020
1020
1020
1020
1020
1020
1020
1020
1020
1020
850
1020
1020
1020
1020
1020
1020
1020
1020
1020
1020
1020
1020
1020
1020
1020
1020
1020
1020
1020
1020
1020
1020
1020
1020
850
1020
1020
1020
1020
1020
1020
1020
1020
1020
1020
1020
1020
1020
1020
1020
1020
1020
1020
1020
1020
1020
1020
1020
1020
850
1000
1000
1000
1000
1000
1000
1000
1000
1000
1000
1000
1000
1000
1000
1000
1000
1000
1000
1000
1000
1000
1000
1000
1000
1000
1000
1000
1000
1000
1000
1000
1000
1000
1000
1000
1000
1000
1000
1000
1000
1000
1000
1000
1000
1000
1000
1000
1000
1000
1000
1000
1000
1000
1000
1000
1000
1000
1000
1000
1000
1000
1000
1000
1000
1000
1000
1000
1000
1000
1000
1000
1000
1000
1000
1000
1000
1000
1000
1000
1000
1000
1000
1000
1000
1000
1000
1000
1000
1000
1000
1000
1000
1000
1000
1000
1000
1000
1000
1000
1000
1000
1000
1000
1000
1000
1000
1000
1000
1000
1000
1000
1000
1000
1000
1000
1000
1000
1000
1000
1000
1000
1000
1000
1000
1000
1000
1000
1000
1000
1000
1000
1000
1000
1000
1000
1000
1000
1000
1000
1000
1000
1000
1000
1000
1000
1000
1000
1000
1000
1000
1000
1000
1000
1000
1000
1000
1000
1000
1000
1000
1000
1000
1000
1000
1000
1000
1000
1000
1000
1000
1000
1000
1000
1000
1000
1000
1000
1000
1000
1000
1000
1000
1000
1000
1000
1000
1000
1000
1000
1000
1000
1000
1000
1000
1000
1000
1000
1000
1000
1000
1000
1000
1000
1000
1000
1000
1000
1000
1000
1000
1000
1000
1000
1000
1000
1000
1000
1000
1000
1000
1000
1000
1000
1000
1000
1000
1000
1000
1000
1000
1000
1000
1000
1000
1000
1000
1000
1000
1000
1000
1000
1000
1000
1000
1000
1000
1000
1000
1000
1000
1000
1000
1000
1000
1000
1000
1000
1000
1000
1000
1000
1000
1000
1000
1000
1000
1000
1000
1000
1000
1000
1000
1000
1000
1000
1000
1000
1000
1000
1000
1000
1000
1000
1000
1000
1000
1000
1000
1000
1000
1000
1000
1000
1000
1000
1000
1000
1000
1000
1000
1000
1000
1000
1000
1000
1000
SCALARS p float 1
LOOKUP_TABLE default
25004.681136676067
25004.681136676067
25004.681136676067
25004.681136676067
25004.681136676067
25004.681136676067
25004.681136676067
25004.681136676067
25004.681136676067
25004.681136676067
25004.681136676067
25004.681136676067
25004.681136676067
25004.681136676067
25004.681136676067
25004.681136676067
25004.681136676067
25004.681136676067
25004.681136676067
25004.681136676067
25004.681136676067
25004.681136676067
25004.681136676067
25004.681136676067
0
25004.681136676067
25004.681136676067
25004.681136676067
25004.681136676067
25004.681136676067
25004.681136676067
25004.681136676067
25004.681136676067
25004.681136676067
25004.681136676067
25004.681136676067
25004.681136676067
25004.681136676067
25004.681136676067
25004.681136676067
25004.681136676067
25004.681136676067
25004.681136676067
25004.681136676067
25004.681136676067
25004.681136676067
25004.681136676067
25004.681136676067
25004.681136676067
0
25004.681136676067
25004.681136676067
25004.681136676067
25004.681136676067
25004.681136676067
25004.681136676067
25004.681136676067
25004.681136676067
25004.681136676067
25004.681136676067
25004.681136676067
25004.681136676067
25004.681136676067
25004.681136676067
25004.681136676067
25004.681136676067
25004.681136676067
25004.681136676067
25004.681136676067
25004.681136676067
25004.681136676067
25004.681136676067
25004.681136676067
25004.681136676067
0
25004.681136676067
25004.681136676067
25004.681136676067
25004.681136676067
25004.681136676067
25004.681136676067
25004.681136676067
25004.681136676067
25004.681136676067
25004.681136676067
25004.681136676067
25004.681136676067
25004.681136676067
25004.681136676067
25004.681136676067
25004.681136676067
25004.681136676067
25004.681136676067
25004.681136676067
25004.681136676067
25004.681136676067
25004.681136676067
25004.681136676067
25004.681136676067
0
25004.681136676067
25004.681136676067
25004.681136676067
25004.681136676067
25004.681136676067
25004.681136676067
25004.681136676067
25004.681136676067
25004.681136676067
25004.681136676067
25004.681136676067
25004.681136676067
25004.681136676067
25004.681136676067
25004.681136676067
25004.681136676067
25004.681136676067
25004.681136676067
25004.681136676067
25004.681136676067
25004.681136676067
25004.681136676067
25004.681136676067
25004.681136676067
0
25004.681136676067
25004.681136676067
25004.681136676067
25004.681136676067
25004.681136676067
25004.681136676067
25004.681136676067
25004.681136676067
25004.681136676067
25004.681136676067
25004.681136676067
25004.681136676067
25004.681136676067
25004.681136676067
25004.681136676067
25004.681136676067
25004.681136676067
25004.681136676067
25004.681136676067
25004.681136676067
25004.681136676067
25004.681136676067
25004.681136676067
25004.681136676067
0
25004.681136676067
25004.681136676067
25004.681136676067
25004.681136676067
25004.681136676067
25004.681136676067
25004.681136676067
25004.681136676067
25004.681136676067
25004.681136676067
25004.681136676067
25004.681136676067
25004.681136676067
25004.681136676067
25004.681136676067
25004.681136676067
25004.681136676067
25004.681136676067
25004.681136676067
25004.681136676067
25004.681136676067
25004.681136676067
25004.681136676067
25004.681136676067
0
25004.681136676067
25004.681136676067
25004.681136676067
25004.681136676067
25004.681136676067
25004.681136676067
25004.681136676067
25004.681136676067
25004.681136676067
25004.681136676067
25004.681136676067
25004.681136676067
25004.681136676067
25004.681136676067
25004.681136676067
25004.681136676067
25004.681136676067
25004.681136676067
25004.681136676067
25004.681136676067
25004.681136676067
25004.681136676067
25004.681136676067
25004.681136676067
0
25004.681136676067
25004.681136676067
25004.681136676067
25004.681136676067
25004.681136676067
25004.681136676067
25004.681136676067
25004.681136676067
25004.681136676067
25004.681136676067
25004.681136676067
25004.681136676067
25004.681136676067
25004.681136676067
25004.681136676067
25004.681136676067
25004.681136676067
25004.681136676067
25004.681136676067
25004.681136676067
25004.681136676067
25004.681136676067
25004.681136676067
25004.681136676067
0
25004.681136676067
25004.681136676067
25004.681136676067
25004.681136676067
25004.681136676067
25004.681136676067
25004.681136676067
25004.681136676067
25004.681136676067
25004.681136676067
25004.681136676067
25004.681136676067
25004.681136676067
25004.681136676067
25004.681136676067
25004.681136676067
25004.681136676067
25004.681136676067
25004.681136676067
25004.681136676067
25004.681136676067
25004.681136676067
25004.681136676067
25004.681136676067
0
25004.681136676067
25004.681136676067
25004.681136676067
25004.681136676067
25004.681136676067
25004.681136676067
25004.681136676067
25004.681136676067
25004.681136676067
25004.681136676067
25004.681136676067
25004.681136676067
25004.681136676067
25004.681136676067
25004.681136676067
25004.681136676067
25004.681136676067
25004.681136676067
25004.681136676067
25004.681136676067
25004.681136676067
25004.681136676067
25004.681136676067
25004.681136676067
0
25004.681136676067
25004.681136676067
25004.681136676067
25004.681136676067
25004.681136676067
25004.681136676067
25004.681136676067
25004.681136676067
25004.681136676067
25004.681136676067
25004.681136676067
25004.681136676067
25004.681136676067
25004.681136676067
25004.681136676067
25004.681136676067
25004.681136676067
25004.681136676067
25004.681136676067
25004.681136676067
25004.681136676067
25004.681136676067
25004.681136676067
25004.681136676067
0
25004.681136676067
25004.681136676067
25004.681136676067
25004.681136676067
25004.681136676067
25004.681136676067
25004.681136676067
25004.681136676067
25004.681136676067
25004.681136676067
25004.681136676067
25004.681136676067
25004.681136676067
25004.681136676067
25004.681136676067
25004.681136676067
25004.681136676067
25004.681136676067
25004.681136676067
25004.681136676067
25004.681136676067
25004.681136676067
25004.681136676067
25004.681136676067
0
25004.681136676067
25004.681136676067
25004.681136676067
25004.681136676067
25004.681136676067
25004.681136676067
25004.681136676067
25004.681136676067
25004.681136676067
25004.681136676067
25004.681136676067
25004.681136676067
25004.681136676067
25004.681136676067
25004.681136676067
25004.681136676067
25004.681136676067
25004.681136676067
25004.681136676067
25004.681136676067
25004.681136676067
25004.681136676067
25004.681136676067
25004.681136676067
0
25004.681136676067
25004.681136676067
25004.681136676067
25004.681136676067
25004.681136676067
25004.681136676067
25004.681136676067
25004.681136676067
25004.681136676067
25004.681136676067
25004.681136676067
25004.681136676067
25004.681136676067
25004.681136676067
25004.681136676067
25004.681136676067
25004.681136676067
25004.681136676067
25004.681136676067
25004.681136676067
25004.681136676067
25004.681136676067
25004.681136676067
25004.681136676067
0
0
0
0
0
0
0
24336.624020568881
24987.459687085073
24997.460216057229
0
0
0
24988.890232911519
25003.426259080126
25004.095326289542
0
0
0
24997.382911287787
25004.035427911676
25004.370842157536
0
0
0
24998.093522965759
25004.064464192485
25004.377618674913
0
0
0
24998.139517450272
25004.064041449412
25004.375798415764
0
0
0
24998.115478584958
25004.062692841853
25004.375286024009
0
0
0
24998.098652225261
25004.061870974878
25004.375088792622
0
0
0
24998.090325484809
25004.061468615888
25004.375002225963
0
0
0
24998.087039701233
25004.061314533454
25004.374971888374
0
0
0
24998.087007605714
25004.061314397455
25004.374972646969
0
0
0
24998.090291180688
25004.061469096585
25004.375003605397
0
0
0
24998.098613285259
25004.061870831785
25004.375089754612
0
0
0
24998.115449228742
25004.062693454143
25004.375288571788
0
0
0
24998.139426645197
25004.064038626726
25004.375801038299
0
0
0
24998.093369919141
25004.064461540824
25004.377622619453
0
0
0
24997.382752312376
25004.03543479339
25004.370851849311
0
0
0
24988.88901698203
25003.42621349034
25004.095309555592
0
0
0
24336.459076971445
24987.457371086788
24997.459056130141
0
0
0
0
0
0
0
0
0
0
0
0
0
0
0
0
0
0
0
0
0
0
0
0
0
0
0
0
0
0
0
0
0
0
0
0
0
0
0
0
0
0
0
0
0
0
0
0
0
0
0
0
0
0
0
0
0
0
0
0
0
0
0
0
0
0
0
0
0
0
0
0
0
0
0
0
0
0
0
0
0
0
0
0
0
0
0
0
0
0
0
0
0
0
0
0
0
0
0
0
0
0
0
0
0
0
0
0
0
0
0
0
0
0
0
0
0
0
0
0
0
0
0
0
0
0
0
0
0
0
0
0
0
0
0
0
0
0
0
0
0
0
0
0
0
0
0
0
0
0
0
0
0
0
0
0
0
0
0
0
0
0
0
0
0
0
0
0
0
0
0
0
0
0
0
0
0
0
0
0
0
0
0
0
0
0
0
0
0
0
0
0
0
0
0
SCALARS m float 1
LOOKUP_TABLE default
0.39942306611962441
0.39942306611962441
0.39942306611962441
0.39942306611962441
0.39942306611962441
0.39942306611962441
0.39942306611962441
0.39942306611962441
0.39942306611962441
0.39942306611962441
0.39942306611962441
0.39942306611962441
0.39942306611962441
0.39942306611962441
0.39942306611962441
0.39942306611962441
0.39942306611962441
0.39942306611962441
0.39942306611962441
0.39942306611962441
0.39942306611962441
0.39942306611962441
0.39942306611962441
0.39942306611962441
0.39942306611962441
0.39942306611962441
0.39942306611962441
0.39942306611962441
0.39942306611962441
0.39942306611962441
0.39942306611962441
0.39942306611962441
0.39942306611962441
0.39942306611962441
0.39942306611962441
0.39942306611962441
0.39942306611962441
0.39942306611962441
0.39942306611962441
0.39942306611962441
0.39942306611962441
0.39942306611962441
0.39942306611962441
0.39942306611962441
0.39942306611962441
0.39942306611962441
0.39942306611962441
0.39942306611962441
0.39942306611962441
0.39942306611962441
0.39942306611962441
0.39942306611962441
0.39942306611962441
0.39942306611962441
0.39942306611962441
0.39942306611962441
0.39942306611962441
0.39942306611962441
0.39942306611962441
0.39942306611962441
0.39942306611962441
0.39942306611962441
0.39942306611962441
0.39942306611962441
0.39942306611962441
0.39942306611962441
0.39942306611962441
0.39942306611962441
0.39942306611962441
0.39942306611962441
0.39942306611962441
0.39942306611962441
0.39942306611962441
0.39942306611962441
0.39942306611962441
0.39942306611962441
0.39942306611962441
0.39942306611962441
0.39942306611962441
0.39942306611962441
0.39942306611962441
0.39942306611962441
0.39942306611962441
0.39942306611962441
0.39942306611962441
0.39942306611962441
0.39942306611962441
0.39942306611962441
0.39942306611962441
0.39942306611962441
0.39942306611962441
0.39942306611962441
0.39942306611962441
0.39942306611962441
0.39942306611962441
0.39942306611962441
0.39942306611962441
0.39942306611962441
0.39942306611962441
0.39942306611962441
0.39942306611962441
0.39942306611962441
0.39942306611962441
0.39942306611962441
0.39942306611962441
0.39942306611962441
0.39942306611962441
0.39942306611962441
0.39942306611962441
0.39942306611962441
0.39942306611962441
0.39942306611962441
0.39942306611962441
0.39942306611962441
0.39942306611962441
0.39942306611962441
0.39942306611962441
0.39942306611962441
0.39942306611962441
0.39942306611962441
0.39942306611962441
0.39942306611962441
0.39942306611962441
0.39942306611962441
0.39942306611962441
0.39942306611962441
0.39942306611962441
0.39942306611962441
0.39942306611962441
0.39942306611962441
0.39942306611962441
0.39942306611962441
0.39942306611962441
0.39942306611962441
0.39942306611962441
0.39942306611962441
0.39942306611962441
0.39942306611962441
0.39942306611962441
0.39942306611962441
0.39942306611962441
0.39942306611962441
0.39942306611962441
0.39942306611962441
0.39942306611962441
0.39942306611962441
0.39942306611962441
0.39942306611962441
0.39942306611962441
0.39942306611962441
0.39942306611962441
0.39942306611962441
0.39942306611962441
0.39942306611962441
0.39942306611962441
0.39942306611962441
0.39942306611962441
0.39942306611962441
0.39942306611962441
0.39942306611962441
0.39942306611962441
0.39942306611962441
0.39942306611962441
0.39942306611962441
0.39942306611962441
0.39942306611962441
0.39942306611962441
0.39942306611962441
0.39942306611962441
0.39942306611962441
0.39942306611962441
0.39942306611962441
0.39942306611962441
0.39942306611962441
0.39942306611962441
0.39942306611962441
0.39942306611962441
0.39942306611962441
0.39942306611962441
0.39942306611962441
0.39942306611962441
0.39942306611962441
0.39942306611962441
0.39942306611962441
0.39942306611962441
0.39942306611962441
0.39942306611962441
0.39942306611962441
0.39942306611962441
0.39942306611962441
0.39942306611962441
0.39942306611962441
0.39942306611962441
0.39942306611962441
0.39942306611962441
0.39942306611962441
0.39942306611962441
0.39942306611962441
0.39942306611962441
0.39942306611962441
0.39942306611962441
0.39942306611962441
0.39942306611962441
0.39942306611962441
0.39942306611962441
0.39942306611962441
0.39942306611962441
0.39942306611962441
0.39942306611962441
0.39942306611962441
0.39942306611962441
0.39942306611962441
0.39942306611962441
0.39942306611962441
0.39942306611962441
0.39942306611962441
0.39942306611962441
0.39942306611962441
0.39942306611962441
0.39942306611962441
0.39942306611962441
0.39942306611962441
0.39942306611962441
0.39942306611962441
0.39942306611962441
0.39942306611962441
0.39942306611962441
0.39942306611962441
0.39942306611962441
0.39942306611962441
0.39942306611962441
0.39942306611962441
0.39942306611962441
0.39942306611962441
0.39942306611962441
0.39942306611962441
0.39942306611962441
0.39942306611962441
0.39942306611962441
0.39942306611962441
0.39942306611962441
0.39942306611962441
0.39942306611962441
0.39942306611962441
0.39942306611962441
0.39942306611962441
0.39942306611962441
0.39942306611962441
0.39942306611962441
0.39942306611962441
0.39942306611962441
0.39942306611962441
0.39942306611962441
0.39942306611962441
0.39942306611962441
0.39942306611962441
0.39942306611962441
0.39942306611962441
0.39942306611962441
0.39942306611962441
0.39942306611962441
0.39942306611962441
0.39942306611962441
0.39942306611962441
0.39942306611962441
0.39942306611962441
0.39942306611962441
0.39942306611962441
0.39942306611962441
0.39942306611962441
0.39942306611962441
0.39942306611962441
0.39942306611962441
0.39942306611962441
0.39942306611962441
0.39942306611962441
0.39942306611962441
0.39942306611962441
0.39942306611962441
0.39942306611962441
0.39942306611962441
0.39942306611962441
0.39942306611962441
0.39942306611962441
0.39942306611962441
0.39942306611962441
0.39942306611962441
0.39942306611962441
0.39942306611962441
0.39942306611962441
0.39942306611962441
0.39942306611962441
0.39942306611962441
0.39942306611962441
0.39942306611962441
0.39942306611962441
0.39942306611962441
0.39942306611962441
0.39942306611962441
0.39942306611962441
0.39942306611962441
0.39942306611962441
0.39942306611962441
0.39942306611962441
0.39942306611962441
0.39942306611962441
0.39942306611962441
0.39942306611962441
0.39942306611962441
0.39942306611962441
0.39942306611962441
0.39942306611962441
0.39942306611962441
0.39942306611962441
0.39942306611962441
0.39942306611962441
0.39942306611962441
0.39942306611962441
0.39942306611962441
0.39942306611962441
0.39942306611962441
0.39942306611962441
0.39942306611962441
0.39942306611962441
0.39942306611962441
0.39942306611962441
0.39942306611962441
0.39942306611962441
0.39942306611962441
0.39942306611962441
0.39942306611962441
0.39942306611962441
0.39942306611962441
0.39942306611962441
0.39942306611962441
0.39942306611962441
0.39942306611962441
0.39942306611962441
0.39942306611962441
0.39942306611962441
0.39942306611962441
0.39942306611962441
0.39942306611962441
0.39942306611962441
0.39942306611962441
0.39942306611962441
0.39942306611962441
0.39942306611962441
0.39942306611962441
0.39942306611962441
0.39942306611962441
0.39942306611962441
0.39942306611962441
0.39942306611962441
0.39942306611962441
0.39942306611962441
0.39942306611962441
0.39942306611962441
0.39942306611962441
0.39942306611962441
0.39942306611962441
0.39942306611962441
0.39942306611962441
0.39942306611962441
0.39942306611962441
0.39942306611962441
0.39942306611962441
0.39942306611962441
0.39942306611962441
0.39942306611962441
0.39942306611962441
0.39942306611962441
0.39942306611962441
0.39942306611962441
0.39942306611962441
0.39942306611962441
0.39942306611962441
0.39942306611962441
0.39942306611962441
0.39942306611962441
0.39942306611962441
0.39942306611962441
0.39942306611962441
0.39942306611962441
0.39942306611962441
0.39942306611962441
0.39942306611962441
0.39942306611962441
0.39942306611962441
0.39942306611962441
0.39942306611962441
0.39942306611962441
0.39942306611962441
0.39942306611962441
0.39942306611962441
0.39942306611962441
0.39942306611962441
0.39942306611962441
0.39942306611962441
0.39942306611962441
0.39942306611962441
0.39942306611962441
0.39942306611962441
0.39942306611962441
0.39942306611962441
0.39942306611962441
0.39942306611962441
0.39942306611962441
0.39942306611962441
0.39942306611962441
0.39942306611962441
0.39942306611962441
0.39942306611962441
0.39942306611962441
0.39942306611962441
0.39942306611962441
0.39942306611962441
0.39942306611962441
0.39942306611962441
0.39942306611962441
0.39942306611962441
0.39942306611962441
0.39942306611962441
0.39942306611962441
0.39942306611962441
0.39942306611962441
0.39942306611962441
0.39942306611962441
0.39942306611962441
0.39942306611962441
0.39942306611962441
0.39942306611962441
0.39942306611962441
0.39942306611962441
0.39942306611962441
0.39942306611962441
0.39942306611962441
0.39942306611962441
0.39942306611962441
0.39942306611962441
0.39942306611962441
0.39942306611962441
0.39942306611962441
0.39942306611962441
0.39942306611962441
0.39942306611962441
0.39942306611962441
0.39942306611962441
0.39942306611962441
0.39942306611962441
0.39942306611962441
0.39942306611962441
0.39942306611962441
0.39942306611962441
0.39942306611962441
0.39942306611962441
0.39942306611962441
0.39942306611962441
0.39942306611962441
0.39942306611962441
0.39942306611962441
0.39942306611962441
0.39942306611962441
0.39942306611962441
0.39942306611962441
0.39942306611962441
0.39942306611962441
0.39942306611962441
0.39942306611962441
0.39942306611962441
0.39942306611962441
0.39942306611962441
0.39942306611962441
0.39942306611962441
0.39942306611962441
0.39942306611962441
0.39942306611962441
0.39942306611962441
0.39942306611962441
0.39942306611962441
0.39942306611962441
0.39942306611962441
0.39942306611962441
0.39942306611962441
0.39942306611962441
0.39942306611962441
0.39942306611962441
0.39942306611962441
0.39942306611962441
0.39942306611962441
0.39942306611962441
0.39942306611962441
0.39942306611962441
0.39942306611962441
0.39942306611962441
0.39942306611962441
0.39942306611962441
0.39942306611962441
0.39942306611962441
0.39942306611962441
0.39942306611962441
0.39942306611962441
0.39942306611962441
0.39942306611962441
0.39942306611962441
0.39942306611962441
0.39942306611962441
0.39942306611962441
0.39942306611962441
0.39942306611962441
0.39942306611962441
0.39942306611962441
0.39942306611962441
0.39942306611962441
0.39942306611962441
0.39942306611962441
0.39942306611962441
0.39942306611962441
0.39942306611962441
0.39942306611962441
0.39942306611962441
0.39942306611962441
0.39942306611962441
0.39942306611962441
0.39942306611962441
0.39942306611962441
0.39942306611962441
0.39942306611962441
0.39942306611962441
0.39942306611962441
0.39942306611962441
0.39942306611962441
0.39942306611962441
0.39942306611962441
0.39942306611962441
0.39942306611962441
0.39942306611962441
0.39942306611962441
0.39942306611962441
0.39942306611962441
0.39942306611962441
0.39942306611962441
0.39942306611962441
0.39942306611962441
0.39942306611962441
0.39942306611962441
0.39942306611962441
0.39942306611962441
0.39942306611962441
0.39942306611962441
0.39942306611962441
0.39942306611962441
0.39942306611962441
0.39942306611962441
0.39942306611962441
0.39942306611962441
0.39942306611962441
0.39942306611962441
0.39942306611962441
0.39942306611962441
0.39942306611962441
0.39942306611962441
0.39942306611962441
0.39942306611962441
0.39942306611962441
0.39942306611962441
0.39942306611962441
0.39942306611962441
0.39942306611962441
0.39942306611962441
0.39942306611962441
0.39942306611962441
0.39942306611962441
0.39942306611962441
0.39942306611962441
0.39942306611962441
0.39942306611962441
0.39942306611962441
0.39942306611962441
0.39942306611962441
0.39942306611962441
0.39942306611962441
0.39942306611962441
0.39942306611962441
0.39942306611962441
0.39942306611962441
0.39942306611962441
0.39942306611962441
0.39942306611962441
0.39942306611962441
0.39942306611962441
0.39942306611962441
0.39942306611962441
0.39942306611962441
0.39942306611962441
0.39942306611962441
0.39942306611962441
0.39942306611962441
0.39942306611962441
0.39942306611962441
0.39942306611962441
0.39942306611962441
0.39942306611962441
0.39942306611962441
0.39942306611962441
0.39942306611962441
0.39942306611962441
0.39942306611962441
0.39942306611962441
0.39942306611962441
0.39942306611962441
0.39942306611962441
0.39942306611962441
0.39942306611962441
0.39942306611962441
0.39942306611962441
0.39942306611962441
0.39942306611962441
0.39942306611962441
0.39942306611962441
0.39942306611962441
0.39942306611962441
0.39942306611962441
0.39942306611962441
0.39942306611962441
0.39942306611962441
0.39942306611962441
0.39942306611962441
0.39942306611962441
0.39942306611962441
0.39942306611962441
0.39942306611962441
0.39942306611962441
0.39942306611962441
0.39942306611962441
0.39942306611962441
0.39942306611962441
0.39942306611962441
0.39942306611962441
0.39942306611962441
0.39942306611962441
0.39942306611962441
0.39942306611962441
0.39942306611962441
0.39942306611962441
0.39942306611962441
0.39942306611962441
0.39942306611962441
0.39942306611962441
0.39942306611962441
0.39942306611962441
0.39942306611962441
0.39942306611962441
0.39942306611962441
0.39942306611962441
0.39942306611962441
0.39942306611962441
0.39942306611962441
0.39942306611962441
0.39942306611962441
0.39942306611962441
0.39942306611962441
0.39942306611962441
0.39942306611962441
0.39942306611962441
0.39942306611962441
0.39942306611962441
0.39942306611962441
0.39942306611962441
0.39942306611962441
0.39942306611962441
0.39942306611962441
0.39942306611962441
0.39942306611962441
0.39942306611962441
0.39942306611962441
0.39942306611962441
0.39942306611962441
0.39942306611962441
0.39942306611962441
0.39942306611962441
VECTORS v float
-4.2763987065083325e-05 -0.073109928971360899 0
-4.5826171249401369e-05 -0.077909974021043382 0
-4.7994569800291614e-05 -0.081759239328882405 0
-5.0261700691201125e-05 -0.085727881343799953 0
-5.2308867329754934e-05 -0.089843201141233522 0
-5.4259922287972458e-05 -0.094155689569729042 0
-5.6377651543300254e-05 -0.098723536169060627 0
-5.8246317515956572e-05 -0.10360757481214997 0
-5.999303092271148e-05 -0.10888648298693517 0
-6.1708868511268749e-05 -0.11464247378204345 0
-6.3148299881610456e-05 -0.12098375899405565 0
-6.4752384042588508e-05 -0.12805468991932054 0
-6.6315834776529061e-05 -0.13602090802349937 0
-6.7792503877576549e-05 -0.14507457208558885 0
-6.9355540318664948e-05 -0.15544643657698365 0
-7.0908270602545288e-05 -0.16743779683864224 0
-7.2566053983182449e-05 -0.18144295822500769 0
-7.4321980558523411e-05 -0.19807492183733322 0
-7.5310547645368408e-05 -0.21812500796943493 0
-7.7306949646008133e-05 -0.24269367207096981 0
-7.9199329809732867e-05 -0.27398938916356463 0
-8.1332298557989705e-05 -0.31630202791297402 0
-8.3259463791991544e-05 -0.38263699693896691 0
-8.1298716257712856e-05 -0.61504300695752789 0
-2.3544652523274924e-09 -2.8286293903020736 0
-2.7104462531891433e-05 -0.075332284124290466 0
-2.9396630210805556e-05 -0.08039791295316491 0
-3.0962540689418503e-05 -0.08448855575320946 0
-3.258767055794718e-05 -0.088607266007817653 0
-3.3839810806005675e-05 -0.092823185173434158 0
-3.5167690437597581e-05 -0.097208868237053853 0
-3.665293917140046e-05 -0.101843315201055 0
-3.7860783435900958e-05 -0.10680028013578111 0
-3.9090390246341156e-05 -0.11215281884942128 0
-4.0370743763288088e-05 -0.11798209929829843 0
-4.114977634221625e-05 -0.12440095038536297 0
-4.2329377262923308e-05 -0.13155867679615557 0
-4.3517423205974873e-05 -0.13962336740604933 0
-4.4704752971071118e-05 -0.14878660497577026 0
-4.5881513977963289e-05 -0.15928592977022377 0
-4.7043845262146487e-05 -0.17141185437291337 0
-4.8195359222275158e-05 -0.18553709889999684 0
-4.9409081814485363e-05 -0.2021947970255033 0
-5.0172946985423048e-05 -0.22207693640877363 0
-5.1242718537980663e-05 -0.24626291899191613 0
-5.2256514630809012e-05 -0.27674909057651825 0
-5.3195663261677292e-05 -0.31755196187607843 0
-5.3748649943493693e-05 -0.38017310046364339 0
-5.2442361239946007e-05 -0.5669159698972176 0
-1.4776610228695883e-08 -2.8286727480008773 0
-1.1330399310172291e-05 -0.075732752745193185 0
-1.2466460687632272e-05 -0.080793200777798821 0
-1.3278032514044133e-05 -0.084883565058750707 0
-1.4273941387451431e-05 -0.089009914772636173 0
-1.4631999404460694e-05 -0.093242747661837377 0
-1.550638443705985e-05 -0.097652577554981607 0
-1.5954661899940775e-05 -0.10232131508689177 0
-1.6709691101978354e-05 -0.10732279202041795 0
-1.7722126989029749e-05 -0.1127310500948224 0
-1.8406069183047257e-05 -0.1186285875264726 0
-1.9339100405454176e-05 -0.12512833647176294 0
-1.9827076186103811e-05 -0.13237702017728367 0
-2.1293603554112556e-05 -0.14054629062024865 0
-2.1905810165851121e-05 -0.14983014410287973 0
-2.2520237344137733e-05 -0.16047286774899922 0
-2.3333483539641204e-05 -0.17277803906353151 0
-2.4210829642388013e-05 -0.18712878206484582 0
-2.5073544619586535e-05 -0.20398824668594803 0
-2.6525855456384757e-05 -0.22403197100562183 0
-2.7462040483515499e-05 -0.24834438537016729 0
-2.8196941560128292e-05 -0.27887068005776089 0
-2.88986357984619e-05 -0.3196044531352672 0
-2.9560126757743009e-05 -0.3819189559105951 0
-2.9577568342222428e-05 -0.56572577851856687 0
-1.6185492684129536e-08 -2.829122622030793 0
-3.8357764352976058e-06 -0.075795061640074005 0
-4.1615714295476582e-06 -0.080863771874387091 0
-4.764654715219216e-06 -0.084962356844112213 0
-5.1460706106744818e-06 -0.089099242237114629 0
-5.310164265429947e-06 -0.093345185229753852 0
-5.8917416230540091e-06 -0.097770981233255283 0
-5.8979950633484707e-06 -0.10245905719213209 0
-5.8849169797322245e-06 -0.10748380689385716 0
-6.6034696510036885e-06 -0.11291934417874433 0
-7.2201765682289941e-06 -0.11884921949404507 0
-7.4846840858462701e-06 -0.12538913004193114 0
-8.1608303556233696e-06 -0.13268604999243339 0
-8.8923718017106558e-06 -0.14091113199291139 0
-9.1289078940576762e-06 -0.1502627388378798 0
-9.5616353992556839e-06 -0.1609866977408996 0
-9.8376847358156072e-06 -0.17339060015024996 0
-1.0510870636110616e-05 -0.18786845153888276 0
-1.099958348328132e-05 -0.20486509552954096 0
-1.145002683514474e-05 -0.22505268680201268 0
-1.2087937704601631e-05 -0.24952173974946237 0
-1.2832992845663295e-05 -0.28023367785478703 0
-1.3218983767169784e-05 -0.32119326203045534 0
-1.3950852981797074e-05 -0.38375437168478915 0
-1.4108545191703018e-05 -0.56797540053118156 0
-1.0604183812511194e-08 -2.8298629414212413 0
-9.2243805851957101e-07 -0.075803165714364504 0
-1.0274483274923927e-06 -0.080882051825631754 0
-1.10071778188761e-06 -0.084990086976045945 0
-1.2611517672874988e-06 -0.089136599812223841 0
-1.3441161078891424e-06 -0.093394548224408042 0
-1.2081827644948145e-06 -0.097830305796410624 0
-1.7422017427264684e-06 -0.10253172327806331 0
-2.2031396219836367e-06 -0.1075711611549952 0
-2.4085942340891334e-06 -0.11302385415519763 0
-2.6071832712174958e-06 -0.11897302023118052 0
-2.878774705380061e-06 -0.12553553933957248 0
-2.5434174905003078e-06 -0.13285809758652059 0
-1.6253419119547929e-06 -0.1411143517120943 0
-1.487129829232213e-06 -0.15050101547198935 0
-1.7645212837653006e-06 -0.16126812434005741 0
-2.2195518494785292e-06 -0.17372398548728901 0
-2.5029112132699207e-06 -0.18826226150223169 0
-2.6034990841838966e-06 -0.20532676999028457 0
-2.7557584570528721e-06 -0.22559429432932601 0
-3.0144969165618555e-06 -0.25015921003720071 0
-2.9921200727040115e-06 -0.28099294502045791 0
-3.3200489446475686e-06 -0.32211037200364295 0
-3.7513909233795029e-06 -0.38488328687923584 0
-4.0630733912273215e-06 -0.56984799720019985 0
-3.8089864727775285e-09 -2.8306560706120352 0
-2.5045392168398843e-07 -0.075806255460486333 0
-2.3469378245863277e-07 -0.080891882682882679 0
-2.6648537848224007e-07 -0.085005258237029355 0
-1.8309842398662704e-07 -0.08915735787914017 0
-2.3406007481609901e-08 -0.093419689458775462 0
1.0531639124638926e-07 -0.097864570355488692 0
-3.3540648961786435e-07 -0.10257260787395017 0
-1.739261446956308e-07 -0.10762057101891818 0
7.7050920911975023e-08 -0.11308178600201944 0
-7.3237306783251665e-08 -0.11904167271281824 0
-2.306600285577029e-07 -0.12561653670314948 0
2.2456182710614792e-07 -0.13295343417167074 0
1.9877260912038542e-07 -0.14122471370227316 0
5.8987698202294633e-07 -0.15063096366093384 0
8.3597957674182589e-07 -0.16142018375781556 0
9.3316106932103093e-07 -0.17390272748970326 0
1.3404394376063897e-06 -0.18847251595561124 0
1.3095469578883805e-06 -0.20557363084031596 0
1.5156911967630627e-06 -0.2258840554217105 0
1.7114775431032343e-06 -0.25050204768615347 0
1.5748134704528349e-06 -0.28140359541285181 0
1.6834292602557221e-06 -0.32260970071902889 0
1.3639582014088906e-06 -0.38551454672738333 0
2.4208268337933841e-07 -0.57101788700567191 0
-1.6381521758671676e-10 -2.8313106112416202 0
8.7559059278121711e-07 -0.075807417384503348 0
9.8317128024804425e-07 -0.080896194887033507 0
1.0664421421861019e-06 -0.085012154614689667 0
1.146854509190268e-06 -0.089167244427543729 0
1.1669535433450966e-06 -0.093432543007802293 0
1.1809429525228869e-06 -0.097880067474268931 0
1.6099049616540127e-06 -0.10259254140296482 0
1.6903144087528906e-06 -0.10764472283136409 0
1.8024309272188324e-06 -0.11311046542890232 0
2.2254764725301087e-06 -0.11907507835310147 0
1.8516187811058656e-06 -0.12565589030996921 0
1.6581178313447829e-06 -0.13299916884626564 0
1.609288144349144e-06 -0.14127862147707757 0
1.6885975397161601e-06 -0.15069322118663436 0
1.9803665247031507e-06 -0.16149323862897891 0
2.1100618036661418e-06 -0.17398773013246044 0
1.9714079605218946e-06 -0.18857281418153796 0
2.0142235245448043e-06 -0.20569205845341243 0
1.6947901478507317e-06 -0.22602261563795947 0
1.6615724570613102e-06 -0.25066764948973075 0
1.3436261480316023e-06 -0.28160242947296399 0
1.3673798284913146e-06 -0.32285333677021 0
1.2608262723132742e-06 -0.38582693741652624 0
9.6975304168747632e-07 -0.57162697724472755 0
7.5256582230476684e-10 -2.8317254127017404 0
1.8815479594241565e-06 -0.075808163239609566 0
2.0313994930170659e-06 -0.080897830676359847 0
2.4292294471167776e-06 -0.085013709608187757 0
2.6798892713144585e-06 -0.089169594254059598 0
2.5144115606960947e-06 -0.093436448939692704 0
2.6214859140532222e-06 -0.097885091067309429 0
2.605844457713313e-06 -0.1025986308040451 0
3.3400558958909751e-06 -0.10765159454910925 0
2.9124046799030748e-06 -0.11311983277641142 0
3.6539137172405586e-06 -0.11908610065778835 0
4.1523991679541414e-06 -0.12566789214339996 0
3.5284922632788887e-06 -0.13301382491678357 0
2.5553852510763216e-06 -0.14129667879820731 0
2.9048238057950446e-06 -0.15071441756004278 0
2.7264372312957135e-06 -0.16151758930083729 0
2.3594554552209501e-06 -0.17401473569851406 0
2.2296636561984263e-06 -0.18860352353479243 0
2.0477619411843224e-06 -0.20572821896155319 0
1.9340667363574994e-06 -0.2260653332209058 0
2.0387067622164841e-06 -0.2507166309498734 0
1.8947830807182105e-06 -0.2816620569471433 0
1.7419404727190089e-06 -0.32292619622569263 0
1.7050207615079047e-06 -0.38592139401695746 0
1.5922593019454968e-06 -0.57181298807966885 0
1.5894857612331673e-09 -2.8318656766761205 0
1.53194595651079e-06 -0.075806870479505864 0
1.8170011866042293e-06 -0.080896033683800217 0
1.8347484606320687e-06 -0.085011929420699864 0
1.7509286407084748e-06 -0.089167257256310778 0
2.1103219337456293e-06 -0.093432585666718471 0
2.0613975523837456e-06 -0.097880239256163903 0
1.8318798043723436e-06 -0.10259258055887419 0
2.2813062125640534e-06 -0.10764476312072593 0
2.0702830695386835e-06 -0.11311156150687662 0
2.3319276725229625e-06 -0.11907640389789065 0
2.121494154427925e-06 -0.12565733873657448 0
2.044427541722241e-06 -0.13300036051511724 0
1.1001431598060336e-06 -0.14128067425991919 0
1.1349047092282692e-06 -0.15069565463922402 0
1.2555160290130982e-06 -0.16149485027556865 0
1.2301819971203535e-06 -0.17399025135708129 0
1.3231413738725677e-06 -0.18857472939004316 0
1.5557384287878004e-06 -0.20569258448799627 0
1.5698220286753127e-06 -0.22602420115991712 0
1.1745241397695372e-06 -0.25066805946792303 0
1.1763450808882666e-06 -0.28160135517827456 0
1.3727002918429438e-06 -0.32284985858466547 0
1.577881812445385e-06 -0.38582273162726094 0
1.6351566947794807e-06 -0.57162415760159635 0
1.9244588672864509e-09 -2.8317252958994703 0
1.2196447544265337e-06 -0.075805525495322837 0
1.3240656940867569e-06 -0.08089120115025801 0
1.3344024762775011e-06 -0.08500458827012318 0
1.4977141723155497e-06 -0.089156654916822037 0
1.6361727313813977e-06 -0.09341956526290511 0
1.6145080655831325e-06 -0.09786371749837125 0
1.5466533962742643e-06 -0.10257241060767751 0
1.6805444486389952e-06 -0.10762071963925204 0
1.8125854059905503e-06 -0.11308230232302788 0
1.6301670166389255e-06 -0.11904234988730848 0
2.405456580832462e-06 -0.12561699706999463 0
2.2917267742145784e-06 -0.13295439229881534 0
2.6326667831801932e-06 -0.1412257119923653 0
2.8583589266026181e-06 -0.15063142579516595 0
2.9265821934009026e-06 -0.1614203422367389 0
3.0762634847335053e-06 -0.17390237176020856 0
3.2458678966479452e-06 -0.1884720240107042 0
3.4276857927323844e-06 -0.20557272137698773 0
4.1394947955560346e-06 -0.22588280296095339 0
4.0358711405899937e-06 -0.25049870458752516 0
4.1556900932451214e-06 -0.28139898089886439 0
4.3004991846852947e-06 -0.32260663228434405 0
4.6066985296094245e-06 -0.3855102856672491 0
4.7090811066115936e-06 -0.57101265785203825 0
4.401597594926679e-09 -2.8313104471673833 0
2.3211029754187549e-06 -0.075802140271248625 0
2.4759396486338912e-06 -0.080881658801412668 0
2.8037046877538277e-06 -0.084989299604791055 0
2.8938887251164433e-06 -0.089135654143487175 0
3.1202307044470977e-06 -0.093391826276833026 0
3.2358648416555904e-06 -0.09782938271424918 0
3.4414978029873959e-06 -0.10253095837875152 0
3.8343496153795918e-06 -0.10757075878030742 0
4.1232179662363297e-06 -0.11302290133012423 0
4.4649253529896452e-06 -0.11897291419579963 0
4.6632496721903769e-06 -0.12553566371697836 0
5.0696794871877971e-06 -0.13285892976171318 0
4.8034409878133314e-06 -0.14111407151589828 0
5.2077260823919303e-06 -0.15050084274609682 0
5.394982456040306e-06 -0.16126732862671256 0
5.9024217146037331e-06 -0.17372350054701866 0
6.0331771392993095e-06 -0.1882619171175399 0
6.9926603594359118e-06 -0.20532670853221149 0
7.5888872924877931e-06 -0.22559356968164546 0
8.0483031859178658e-06 -0.25015798825015884 0
8.446100056203064e-06 -0.28099042747355452 0
8.8252024060853846e-06 -0.32210755345306574 0
9.0146128933567467e-06 -0.38487923429817894 0
8.9780921252832315e-06 -0.56984157134174929 0
7.7353628617963699e-09 -2.8306558777773061 0
5.1066824605409907e-06 -0.075792795539168775 0
5.5952837405008374e-06 -0.0808620005400143 0
5.9397615562426819e-06 -0.084961391669912595 0
6.2386727585304406e-06 -0.089098411207828729 0
6.5287818792072123e-06 -0.093344817174668471 0
6.7987168092096755e-06 -0.097770621872261529 0
7.3547923181709132e-06 -0.10245838180891445 0
7.7741796285557182e-06 -0.10748335105153839 0
8.0922898841660775e-06 -0.11291949485833168 0
8.72100601386104e-06 -0.11885007716614415 0
9.0385361011848941e-06 -0.12538985325039007 0
9.4655640335729195e-06 -0.13268653726189078 0
1.0819857897950111e-05 -0.14091253714718635 0
1.1316814619198323e-05 -0.15026405153560776 0
1.190132809746942e-05 -0.16098874390234366 0
1.2473148648351605e-05 -0.17339371114780672 0
1.305493641754022e-05 -0.187872489635771 0
1.3566878711687128e-05 -0.20486697182816346 0
1.4193752712954035e-05 -0.22505407646577846 0
1.4941225578865018e-05 -0.24952259087952186 0
1.5460263329415488e-05 -0.2802322681560161 0
1.6149273442384418e-05 -0.32119156617654976 0
1.6650087605009037e-05 -0.38375082124307036 0
1.684111460454022e-05 -0.5679663988878928 0
1.2636820666004055e-08 -2.8298627261873346 0
1.1241689813660323e-05 -0.075731392377689208 0
1.2268767300958385e-05 -0.080791961043076316 0
1.2918372614250121e-05 -0.084882724392691788 0
1.3589224850179677e-05 -0.089009351918921509 0
1.4154857355816459e-05 -0.093242360799042467 0
1.485380380186912e-05 -0.097652900887516547 0
1.520026456347378e-05 -0.10232173702815411 0
1.5496405599160641e-05 -0.1073233517605163 0
1.599765269601813e-05 -0.11273196389353027 0
1.7090629324840159e-05 -0.11862958848831881 0
1.7879320387430524e-05 -0.1251296046223333 0
1.8371384750555608e-05 -0.13237795483229375 0
1.9903692408486638e-05 -0.14054677980984812 0
2.0893019034752247e-05 -0.14983042167438823 0
2.165285967366357e-05 -0.1604734615770001 0
2.2568025330822903e-05 -0.17277875836148784 0
2.3224745820665988e-05 -0.18713040249336238 0
2.4193591568424035e-05 -0.20398957503849635 0
2.531517972333808e-05 -0.22403273838195598 0
2.6495432686801566e-05 -0.24834360221912405 0
2.7692836030537915e-05 -0.27886918992847171 0
2.8903502948997446e-05 -0.31960192829974271 0
3.0171795308568998e-05 -0.38191443628150618 0
3.064244331678167e-05 -0.5657148459204725 0
1.6882621750253538e-08 -2.8291224470654202 0
2.5881948491804905e-05 -0.075332211251051565 0
2.8066066896101535e-05 -0.080397663007334114 0
2.9670557213046065e-05 -0.084488356585651764 0
3.0987476935292129e-05 -0.088607267391688616 0
3.2388646336086745e-05 -0.092823327307827552 0
3.3615257976923002e-05 -0.097209019555542869 0
3.4865087355178849e-05 -0.10184291250377686 0
3.5811402852690368e-05 -0.1067998753743889 0
3.6793241670546054e-05 -0.11215162147408793 0
3.7834086120943761e-05 -0.11798102862548382 0
3.9455057923881275e-05 -0.12440104073169111 0
4.0484745970936146e-05 -0.13155858870857548 0
4.1525351272846734e-05 -0.13962290787128523 0
4.2677243223156139e-05 -0.14878588343178262 0
4.3893626696186829e-05 -0.15928478961039669 0
4.511878729273747e-05 -0.1714105763342762 0
4.6342397613324709e-05 -0.1855358497666795 0
4.7659322116712405e-05 -0.20219279790039013 0
4.8650937015757889e-05 -0.22207301411035266 0
4.9916793013217736e-05 -0.24625814833016396 0
5.119843495357633e-05 -0.27674320799319474 0
5.2417478677474438e-05 -0.31754564156792792 0
5.3420184027227288e-05 -0.38016459471782732 0
5.2932655119020414e-05 -0.5669007382162341 0
1.5016739224961903e-08 -2.8286726646008722 0
4.1148302192495778e-05 -0.073109914010531699 0
4.3924415844974092e-05 -0.077909782592567853 0
4.607879386020575e-05 -0.081759160093973757 0
4.8234760343820328e-05 -0.085727729018296187 0
5.0183352236750215e-05 -0.089843102311983947 0
5.2234885742696238e-05 -0.094155636633660583 0
5.3619607020758274e-05 -0.098722763765167726 0
5.5560581697262072e-05 -0.10360692043802563 0
5.6978133291639854e-05 -0.10888571356755503 0
5.849610043382951e-05 -0.11464161795546172 0
6.0181449291394018e-05 -0.12098259212099229 0
6.1557756321227211e-05 -0.12805360637319674 0
6.3152382962982419e-05 -0.13601960695742829 0
6.4567950299744217e-05 -0.14507286366348796 0
6.5954966768612497e-05 -0.15544441896012315 0
6.7397890277363148e-05 -0.16743539325837939 0
6.900482025753772e-05 -0.18144017129746706 0
7.0594978974392459e-05 -0.19807157628868219 0
7.2414784521673429e-05 -0.21812048453081484 0
7.4017597229640681e-05 -0.24268841153559617 0
7.554558897584441e-05 -0.27398319425144213 0
7.6929363687172793e-05 -0.31629529416639801 0
7.7877555438274313e-05 -0.38262956470025816 0
7.2919188662665335e-05 -0.61503896836473682 0
2.1198839310389825e-09 -2.8286293997789547 0
-0 -0 0
-0 -0 0
-0 -0 0
-0 -0 0
-0 -0 0
-0 -0 0
4.3360213518308806e-05 0.074163096845798346 0
5.0852919561263642e-05 0.088801496584715783 0
6.050478894470636e-05 0.12083755858596797 0
-0 -0 0
-0 -0 0
-0 -0 0
4.6347426194410488e-05 0.080569843215481496 0
5.1077807811858224e-05 0.093544292932105574 0
5.9317853070730004e-05 0.12535747039937203 0
-0 -0 0
-0 -0 0
-0 -0 0
3.7299925616278364e-05 0.08191009171224066 0
4.1958198186067764e-05 0.09480613855838535 0
4.9207737874172304e-05 0.12658658732978112 0
-0 -0 0
-0 -0 0
-0 -0 0
2.1359932983394274e-05 0.083100547134658448 0
2.4548227798200627e-05 0.095859937558546979 0
2.9543192178105367e-05 0.12761381402154162 0
-0 -0 0
-0 -0 0
-0 -0 0
8.8338756608487986e-06 0.08332370394927037 0
1.0672482647587231e-05 0.096136113924319672 0
1.3576323830515797e-05 0.12790374562981682 0
-0 -0 0
-0 -0 0
-0 -0 0
2.8946905884383558e-06 0.083360797533509279 0
3.7742713337387255e-06 0.096186846591086034 0
5.0495106721903421e-06 0.12797675461040592 0
-0 -0 0
-0 -0 0
-0 -0 0
6.4988885552751669e-07 0.083368422657284807 0
8.4594272245508994e-07 0.096205754564753693 0
9.4291968820973823e-07 0.12802171531853332 0
-0 -0 0
-0 -0 0
-0 -0 0
-4.0982502169091885e-07 0.083371626900418785 0
-5.8522814062736875e-07 0.09621591291640029 0
-9.0014045098867597e-07 0.12804967632485387 0
-0 -0 0
-0 -0 0
-0 -0 0
-1.5450161414709766e-06 0.083373063005081696 0
-1.7791422974610918e-06 0.096220709132667004 0
-2.0138907955512093e-06 0.12806289108709737 0
-0 -0 0
-0 -0 0
-0 -0 0
-1.9430860796499535e-06 0.083373019518841782 0
-2.1064789985536723e-06 0.096220854536370609 0
-2.175587647398109e-06 0.12806324114110859 0
-0 -0 0
-0 -0 0
-0 -0 0
-1.5662731960380516e-06 0.083371356468175992 0
-1.7702304107088382e-06 0.096215833003901644 0
-2.0109795480737489e-06 0.12804965889710493 0
-0 -0 0
-0 -0 0
-0 -0 0
-2.0481938321923237e-06 0.083367729274235289 0
-2.5537148933850094e-06 0.096204969020631637 0
-3.4444893279213437e-06 0.12802071441214286 0
-0 -0 0
-0 -0 0
-0 -0 0
-4.2969363586668278e-06 0.083359423954497455 0
-5.2671373387958599e-06 0.096185664754818864 0
-7.0566177724929817e-06 0.12797580696812996 0
-0 -0 0
-0 -0 0
-0 -0 0
-9.3319087327816719e-06 0.083321969656067169 0
-1.1008712523202326e-05 0.096134932223436512 0
-1.3895993677208558e-05 0.12790307910758875 0
-0 -0 0
-0 -0 0
-0 -0 0
-2.0548897101719459e-05 0.08309946165128862 0
-2.3494752243566519e-05 0.095859086119502696 0
-2.8193354479299896e-05 0.12761276900322668 0
-0 -0 0
-0 -0 0
-0 -0 0
-3.5703356911509902e-05 0.081909795618254164 0
-4.0073202122604746e-05 0.094805833720157509 0
-4.6907005292458552e-05 0.12658543182107387 0
-0 -0 0
-0 -0 0
-0 -0 0
-4.4448184427397384e-05 0.080569551474241441 0
-4.8797194136907715e-05 0.093543652331371865 0
-5.6464962364343062e-05 0.12535589617793644 0
-0 -0 0
-0 -0 0
-0 -0 0
-4.1629303750298071e-05 0.074162182352600955 0
-4.8644358947144723e-05 0.088800145888806345 0
-5.75748304766441e-05 0.12083469562052324 0
-0 -0 0
-0 -0 0
-0 -0 0
-0 -0 0
-0 -0 0
-0 -0 0
-0 -0 0
-0 -0 0
-0 -0 0
-0 -0 0
-0 -0 0
-0 -0 0
-0 -0 0
-0 -0 0
-0 -0 0
-0 -0 0
-0 -0 0
-0 -0 0
-0 -0 0
-0 -0 0
-0 -0 0
-0 -0 0
-0 -0 0
-0 -0 0
-0 -0 0
-0 -0 0
-0 -0 0
-0 -0 0
-0 -0 0
-0 -0 0
-0 -0 0
-0 -0 0
-0 -0 0
-0 -0 0
-0 -0 0
-0 -0 0
-0 -0 0
-0 -0 0
-0 -0 0
-0 -0 0
-0 -0 0
-0 -0 0
-0 -0 0
-0 -0 0
-0 -0 0
-0 -0 0
-0 -0 0
-0 -0 0
-0 -0 0
-0 -0 0
-0 -0 0
-0 -0 0
-0 -0 0
-0 -0 0
-0 -0 0
-0 -0 0
-0 -0 0
-0 -0 0
-0 -0 0
-0 -0 0
-0 -0 0
-0 -0 0
-0 -0 0
-0 -0 0
-0 -0 0
-0 -0 0
-0 -0 0
-0 -0 0
-0 -0 0
-0 -0 0
-0 -0 0
-0 -0 0
-0 -0 0
-0 -0 0
-0 -0 0
-0 -0 0
-0 -0 0
-0 -0 0
-0 -0 0
-0 -0 0
-0 -0 0
-0 -0 0
-0 -0 0
-0 -0 0
-0 -0 0
-0 -0 0
-0 -0 0
-0 -0 0
-0 -0 0
-0 -0 0
-0 -0 0
-0 -0 0
-0 -0 0
-0 -0 0
-0 -0 0
-0 -0 0
-0 -0 0
-0 -0 0
-0 -0 0
-0 -0 0
-0 -0 0
-0 -0 0
-0 -0 0
-0 -0 0
-0 -0 0
-0 -0 0
-0 -0 0
-0 -0 0
-0 -0 0
-0 -0 0
-0 -0 0
-0 -0 0
-0 -0 0
-0 -0 0
-0 -0 0
-0 -0 0
-0 -0 0
-0 -0 0
-0 -0 0
-0 -0 0
-0 -0 0
-0 -0 0
-0 -0 0
-0 -0 0
-0 -0 0
-0 -0 0
-0 -0 0
-0 -0 0
-0 -0 0
-0 -0 0
-0 -0 0
-0 -0 0
-0 -0 0
-0 -0 0
-0 -0 0
-0 -0 0
-0 -0 0
-0 -0 0
-0 -0 0
-0 -0 0
-0 -0 0
-0 -0 0
-0 -0 0
-0 -0 0
-0 -0 0
-0 -0 0
-0 -0 0
-0 -0 0
-0 -0 0
-0 -0 0
-0 -0 0
-0 -0 0
-0 -0 0
-0 -0 0
-0 -0 0
-0 -0 0
-0 -0 0
-0 -0 0
-0 -0 0
-0 -0 0
-0 -0 0
-0 -0 0
-0 -0 0
-0 -0 0
-0 -0 0
-0 -0 0
-0 -0 0
-0 -0 0
-0 -0 0
-0 -0 0
-0 -0 0
-0 -0 0
-0 -0 0
-0 -0 0
-0 -0 0
-0 -0 0
-0 -0 0
-0 -0 0
-0 -0 0
-0 -0 0
-0 -0 0
-0 -0 0
-0 -0 0
-0 -0 0
-0 -0 0
-0 -0 0
-0 -0 0
-0 -0 0
-0 -0 0
-0 -0 0
-0 -0 0
-0 -0 0
-0 -0 0
-0 -0 0
-0 -0 0
