# vtk DataFile Version 3.0
SPH particles (WCSPH) - legacy PolyData
ASCII
DATASET POLYDATA
POINTS 681 float
0.049990319966783735 0.017815762335320864 0
0.049989281867977901 0.019939649290691069 0
0.049988446087532924 0.021653245729490678 0
0.049987623935806427 0.023344379959626117 0
0.049986885259740467 0.024988139389674688 0
0.049986232638200082 0.026583058234095604 0
0.049985633037090131 0.028135090068184408 0
0.049985047262633066 0.029652508974578176 0
0.049984417044621747 0.031144528684690437 0
0.049983648544978214 0.032619077199663227 0
0.049982292969030395 0.034084607602373369 0
0.049980494033785669 0.035549344031737894 0
0.049979791823547885 0.037021394871327933 0
0.049980540498000298 0.038509076977127257 0
0.049982026574877492 0.040021431331142492 0
0.049983784396210228 0.041568323093365875 0
0.049985604138706792 0.043162178678870462 0
0.049987317309741201 0.044817988677066073 0
0.049988914638793701 0.046556109431198846 0
0.049990337540432951 0.048391014550596093 0
0.049991536569974501 0.050363278341398671 0
0.04999251185898386 0.052522554766573762 0
0.049993292759083173 0.05494750213272586 0
0.049993918046734941 0.057784853509280906 0
0.049994711355386141 0.06142752855018941 0
0.069994903654574711 0.016598815814134433 0
0.069994297531103672 0.018943001910116487 0
0.069993846578345509 0.020846771678764503 0
0.069993441345044385 0.022689293355092437 0
0.069993062726175725 0.024457067899734494 0
0.069992685678970185 0.026156760918954063 0
0.069992312011515706 0.027800076953153147 0
0.069991934349320675 0.029399256799066072 0
0.069991536636453466 0.030966409330529607 0
0.069991070451816365 0.032511408177658609 0
0.069990159918318834 0.034044255158089426 0
0.069988308316411479 0.035574543161283639 0
0.06998721420761736 0.037111216447173107 0
0.069987400943719344 0.038663294693432729 0
0.069988303856265185 0.040240912479641608 0
0.069989444732899656 0.04185494422047939 0
0.069990669071405567 0.043519567717174933 0
0.069991874287368944 0.045250655104555386 0
0.069993003016126293 0.047067646786386766 0
0.069993984230869791 0.048994579231588037 0
0.069994796146070404 0.051071259676892182 0
0.069995445704182702 0.053352305957277725 0
0.069995936544000242 0.055929375423200457 0
0.069996322158070223 0.058974652105395681 0
0.069996820296852807 0.062957409168448247 0
0.089998187610119643 0.016545311729389108 0
0.089997963294826844 0.018891208355417959 0
0.089997798787388172 0.020798380757976909 0
0.089997640926716915 0.022646565193408789 0
0.089997479808151856 0.024421437850056633 0
0.089997311542882943 0.026129141831427172 0
0.089997135596157143 0.027781313757583824 0
0.089996958728647297 0.029389951784894234 0
0.089996758221225395 0.030966698981242761 0
0.089996533766850698 0.032521967032218026 0
0.089996263636077989 0.034065578830041604 0
0.089995883075587924 0.03560726522888287 0
0.089995513089613455 0.037155823447274437 0
0.089995461191419809 0.038720343898450034 0
0.089995700985754545 0.040310916633846332 0
0.089996029444155481 0.041938653741381275 0
0.089996415562375934 0.043617592210025855 0
0.089996807831109929 0.045362852152661157 0
0.0899971808749329 0.047194553358217671 0
0.089997492869046541 0.049139403640835425 0
0.089997748155240462 0.051234989038430941 0
0.089997938960734297 0.053536595769828194 0
0.089998107138020256 0.056136069772678571 0
0.089998242760812447 0.059205424767952146 0
0.089998460080806655 0.063219353973412301 0
0.10999935209289342 0.01655292676985054 0
0.10999926605967728 0.018899737415395742 0
0.10999919641146816 0.020807739424139226 0
0.10999912620081509 0.022656861514738013 0
0.10999905590851089 0.024432774432654118 0
0.10999899984814676 0.026141630428839439 0
0.10999893632893259 0.027795083109747681 0
0.10999885522769109 0.029405114765029605 0
0.10999876556363584 0.030983230397182388 0
0.10999866730234084 0.032539982610274777 0
0.10999857124531358 0.034085165966307382 0
0.10999844480807287 0.03562864955277454 0
0.10999834548067625 0.037179059661172166 0
0.10999833852978988 0.038745594314899275 0
0.10999838106790286 0.040338329092469496 0
0.10999848054329699 0.041968667822913044 0
0.10999860593173481 0.043650070043194579 0
0.10999874483869461 0.045397753835377509 0
0.10999888180456568 0.047232093072194579 0
0.10999898967084826 0.049179820667822116 0
0.10999907184751066 0.051278609076403886 0
0.10999913359254843 0.05358382088899083 0
0.10999919164680301 0.056187343023555533 0
0.10999924415664565 0.059261257188126484 0
0.10999933681487463 0.063281538680603128 0
0.12999973475089957 0.016558320779794411 0
0.12999970081472992 0.018905690425019082 0
0.12999967663191986 0.020814110606379589 0
0.1299996545023851 0.022663608886003966 0
0.12999964119299282 0.02443989738919795 0
0.12999961253107717 0.026149087572146179 0
0.12999958987918941 0.027802841228121364 0
0.1299995550990766 0.029413184032425078 0
0.12999952264786671 0.030991608652393379 0
0.12999948186470137 0.032548675122858362 0
0.12999942426268743 0.034094222445441406 0
0.12999935536879703 0.035637811186331136 0
0.12999934362991464 0.037188375842639232 0
0.12999934344162387 0.038755027785716323 0
0.12999931950764715 0.040347921624814181 0
0.12999936543339674 0.041978985621288045 0
0.12999941934644299 0.043662013549031944 0
0.1299994753802762 0.04541071437945074 0
0.12999952105376053 0.047245708509073177 0
0.12999955606536592 0.049193448502453128 0
0.12999958623894695 0.05129291349080875 0
0.12999961103780461 0.053598922119241159 0
0.12999963215502219 0.056203348654390882 0
0.12999965353082588 0.059278273405597125 0
0.12999969357582442 0.063300114906752608 0
0.14999989093350649 0.016560591304166292 0
0.14999987968649289 0.018908261260912832 0
0.14999987081671656 0.020816972663845582 0
0.14999986288978293 0.022666583921654868 0
0.14999985220991655 0.024442993150471652 0
0.14999984361771646 0.026152372811679234 0
0.14999984042227837 0.027806229842159871 0
0.14999983372721964 0.029416718863831213 0
0.14999982146394589 0.03099529496157823 0
0.14999979643549602 0.032552506920113196 0
0.14999977120070176 0.034098330138272036 0
0.14999974973791894 0.035642128979929737 0
0.14999972755152771 0.037192956785951171 0
0.1499997076864156 0.038760162138890004 0
0.14999970558605391 0.040353501386140085 0
0.14999972575172266 0.041984646036615995 0
0.14999975533218568 0.043666760067580919 0
0.14999978816029022 0.045414965180875878 0
0.14999978195968028 0.047250026813012949 0
0.14999977936369144 0.049198531335962505 0
0.14999978921610055 0.051298209022844363 0
0.14999980437070803 0.0536044971453883 0
0.14999981514300806 0.056209337204048596 0
0.1499998210122705 0.059284714248805791 0
0.14999983904599909 0.063306697923443345 0
0.16999994042862998 0.016560809327328944 0
0.16999993338836189 0.018908845383174361 0
0.16999992717625023 0.020818004340853419 0
0.16999992091657723 0.022667533647341937 0
0.16999991230733674 0.024443959080428471 0
0.16999990327173092 0.026153421937317768 0
0.16999989086259687 0.027807335285871107 0
0.1699998850598812 0.02941783923660134 0
0.1699998748080499 0.030996359826815971 0
0.16999986105219111 0.032553368227000716 0
0.16999983787537315 0.034099338280126269 0
0.16999979609431487 0.035643043248394721 0
0.16999977495480881 0.037193598277611324 0
0.16999974527744549 0.038761327292755755 0
0.16999975870463158 0.040354848384084277 0
0.16999981070220663 0.041986361434250996 0
0.16999983279362854 0.043668605711334768 0
0.16999983395630164 0.045416208983395469 0
0.16999981226847105 0.047251261518251139 0
0.16999983073758318 0.049199982791864889 0
0.16999985506254731 0.05129973675653017 0
0.16999987036849365 0.053606175315297211 0
0.16999987242871778 0.056211325424683274 0
0.16999987975295436 0.05928790675660265 0
0.16999989669808596 0.063308775598315284 0
0.18999995425959923 0.016561328437582446 0
0.1899999494711864 0.018908883456593858 0
0.18999994893013597 0.020817633585928426 0
0.1899999447682735 0.022667511433539678 0
0.18999993860339975 0.024444278482228486 0
0.18999992822028819 0.026153603099821465 0
0.18999992480649558 0.027807498499388138 0
0.18999990953887191 0.029418060510438895 0
0.18999989528385036 0.030996514558234226 0
0.18999988635994219 0.032553443694507057 0
0.18999988254563732 0.034099738427261501 0
0.18999989670326109 0.035643647181328397 0
0.18999991176513711 0.037194485061861772 0
0.18999990732432509 0.038762098068541702 0
0.18999991216942413 0.040355596375317403 0
0.1899999115826051 0.041986717384302485 0
0.1899998999062078 0.043668515935256426 0
0.18999987689982847 0.045416607557998818 0
0.18999984979389931 0.047251647945927719 0
0.18999990443055023 0.049200282350168385 0
0.18999991194383001 0.051299763097963059 0
0.18999992788407233 0.053605490940986683 0
0.18999993651328503 0.056209169715933364 0
0.18999994438734949 0.059286651108995773 0
0.18999995579921342 0.063308665830332275 0
0.20999998970601608 0.016561327665715258 0
0.20999998802422085 0.018908922744659495 0
0.20999998485617599 0.0208174540721979 0
0.20999998190363073 0.022666944962649149 0
0.20999997877133278 0.02444368273387916 0
0.20999997084406685 0.026153014110617153 0
0.20999996972432086 0.027806998577972485 0
0.20999996872089963 0.029417744415976249 0
0.20999996874785909 0.030996339213041547 0
0.20999995361867285 0.032553377950898688 0
0.20999994849972917 0.034098930737374807 0
0.20999994454166426 0.035642765622828913 0
0.20999995354423642 0.037194331011191441 0
0.20999994309152434 0.038761870394059435 0
0.20999994556653617 0.040355263720196578 0
0.2099999536263637 0.041986229049738373 0
0.20999995360319049 0.043667868793387132 0
0.20999995464346771 0.04541609621550776 0
0.20999998004327489 0.047251120618577974 0
0.20999997796144429 0.049199723921316836 0
0.20999997399289583 0.051299163942049593 0
0.20999996743607077 0.053604821789758617 0
0.20999997359285955 0.056208310300807238 0
0.20999998040077439 0.059285574812703669 0
0.20999998815505555 0.063307876106431377 0
0.2300000662055442 0.016560344886613544 0
0.23000007098207345 0.018907856320604034 0
0.23000007960976065 0.020816348325789099 0
0.23000008084860793 0.022665795159010158 0
0.23000007742470743 0.024442112808391661 0
0.23000008404513508 0.026151691641625195 0
0.23000009658625414 0.027806025060386159 0
0.23000010796469134 0.029416330257544917 0
0.23000011530468339 0.030994769455787594 0
0.23000011803138887 0.032551759533731725 0
0.23000012011176715 0.034097017542724005 0
0.23000013288847354 0.035641112582891619 0
0.23000019452013942 0.037192809616981688 0
0.23000014106489175 0.038760093621159286 0
0.23000012043957108 0.040353380062832109 0
0.23000014893507831 0.041984224413346725 0
0.23000015345246 0.043665733887881045 0
0.2300001582813552 0.045414102006279725 0
0.23000019381752904 0.047249133339339298 0
0.23000015016363923 0.049197564102884998 0
0.23000013319441931 0.051297016779966897 0
0.23000011268914422 0.053603047738009509 0
0.2300001042722114 0.056208306709562519 0
0.23000010005887872 0.059283436685333084 0
0.23000009197747312 0.063305556232464255 0
0.25000019437283888 0.01655795739593028 0
0.25000021633685776 0.018905195738094131 0
0.25000023827320306 0.020813599224209906 0
0.25000025888304594 0.022662994979272027 0
0.25000027394592467 0.024439153064544642 0
0.25000028911408195 0.026148561097836181 0
0.25000031369435122 0.027802336385265077 0
0.25000033472727429 0.0294127511949763 0
0.25000035374691715 0.030991176708018466 0
0.25000038443792133 0.032548206973580539 0
0.25000043016051821 0.034093740662415592 0
0.25000051679411667 0.035637420721106434 0
0.25000055181983194 0.037188225900419564 0
0.2500006013411134 0.03875530333362151 0
0.25000060451687955 0.040348338821557778 0
0.25000055868786758 0.041978728751551314 0
0.25000052237475717 0.043659818226048273 0
0.25000047270257009 0.045408576534503524 0
0.25000043541121053 0.047243546684898066 0
0.25000040172521676 0.04919107340035276 0
0.25000037120173946 0.051289865830837687 0
0.25000034220530859 0.053595624657491577 0
0.25000031668661166 0.056204122886856701 0
0.25000029522943418 0.059277417078638477 0
0.25000025858239866 0.063298745069638465 0
0.27000054970414378 0.016552490521872208 0
0.27000062518122747 0.018899135985108145 0
0.27000068110710013 0.0208069933233451 0
0.27000073534602992 0.022656108690647065 0
0.27000078596427318 0.024432303342429313 0
0.27000084307493039 0.026141385879303126 0
0.27000090010656225 0.027794050224574825 0
0.27000095771537419 0.029404638532424525 0
0.27000103315748053 0.030982875906540818 0
0.27000112689857886 0.032539500730006596 0
0.27000123717372337 0.034084810379220384 0
0.27000134444092982 0.035628118153293538 0
0.27000150418959484 0.037178466438300209 0
0.27000163256758697 0.038745206373379824 0
0.27000159329360679 0.040337978117759653 0
0.27000145364187833 0.041968159326324465 0
0.27000131529796362 0.043648962851633707 0
0.27000119197212274 0.045396577175742692 0
0.2700010698603944 0.04723077395393805 0
0.2700009681493844 0.049178159514380516 0
0.27000088217066354 0.05127633050059982 0
0.27000080638531648 0.053580977570568337 0
0.27000073877393904 0.056186761954180355 0
0.27000068732118127 0.059260487270850981 0
0.27000060832986217 0.063280373248812555 0
0.29000172839085403 0.016545127976354958 0
0.29000194844262206 0.018890942443181059 0
0.29000211172051599 0.020798114635945639 0
0.29000226899901377 0.022646303264468492 0
0.29000243008332 0.024421220260153566 0
0.29000259181249671 0.026128809162176751 0
0.29000276271381381 0.027780360693627253 0
0.290002954482314 0.029389803927189991 0
0.29000317639309187 0.030966671157624501 0
0.29000342532170137 0.0325217615783817 0
0.29000372721987461 0.034065424246198593 0
0.29000412222602645 0.035606964589666154 0
0.29000450355036456 0.037155438659608103 0
0.29000455371347628 0.038720123383578407 0
0.2900043270025926 0.040310835625828663 0
0.29000396772420162 0.041938906569314191 0
0.2900035627832086 0.043617490909505084 0
0.2900031575855434 0.045362531433861784 0
0.29000278370486587 0.047194299638847546 0
0.2900024611423514 0.049139291104279142 0
0.2900021907622603 0.051234661206310747 0
0.29000197516229315 0.05353599297365836 0
0.29000180328003006 0.056135766916608966 0
0.29000166597535249 0.059205166643118201 0
0.29000145914313674 0.063219002576653277 0
0.31000515399481843 0.016598859677851661 0
0.31000576147831521 0.018943045548310562 0
0.31000621524482197 0.020846821782495136 0
0.3100066286159987 0.022689341806878878 0
0.31000701447802942 0.024457044524973912 0
0.31000740218164169 0.026156485813024152 0
0.31000778820978131 0.027799618235034556 0
0.31000818236447919 0.029399626450095813 0
0.31000861027405141 0.030966639563936846 0
0.31000912664647862 0.032511490467351203 0
0.31001008338989194 0.034044409000023576 0
0.31001191981010873 0.035574722767716095 0
0.31001296050626265 0.037111406448632721 0
0.31001273381941763 0.038663807810175373 0
0.31001181844642789 0.040241667615798574 0
0.31001067699530338 0.041856266934380514 0
0.31000943817173532 0.043520710641433674 0
0.31000819959121179 0.045250813367153912 0
0.31000704727114009 0.047067160990574966 0
0.31000604134308657 0.048995585546070496 0
0.31000520541383741 0.05107228117915967 0
0.3100045395151238 0.053352690001704568 0
0.31000403842512125 0.055929762842879163 0
0.31000362830396039 0.058975007272079986 0
0.31000311199341252 0.062957658564703131 0
0.33000951696947273 0.017816034929940099 0
0.33001051746688509 0.019939935052011637 0
0.33001132646118664 0.021653494320743705 0
0.33001210795138691 0.023344524114212652 0
0.3300128092856196 0.024987997137235565 0
0.33001341761106273 0.02658245429188158 0
0.33001397052591269 0.028134978619744261 0
0.33001452678230886 0.029653228783920078 0
0.33001508419634218 0.031144884191257379 0
0.33001572328117851 0.032619335558458473 0
0.33001695024459993 0.034084935532864936 0
0.33001872921019598 0.035549755666162398 0
0.33001942863288902 0.037021916859320145 0
0.33001866036442129 0.038509827820084934 0
0.33001720956900849 0.040022370221476741 0
0.33001550843532518 0.041569702712898234 0
0.33001375848626918 0.043163745375376435 0
0.33001206983087411 0.044818685331774508 0
0.33001051898461908 0.0465546232126232 0
0.33000916519951667 0.048391404902473546 0
0.33000803499367398 0.050363803946163237 0
0.33000713303182266 0.052522916718882408 0
0.33000642600182073 0.054947850547333338 0
0.33000587269850823 0.057785128972246018 0
0.33000514004766068 0.061427374462964278 0
0 0 0
0 0.020000000000000004 0
0 0.040000000000000001 0
0 0.54999999999999993 0
0 0.56000000000000005 0
0 0.58000000000000007 0
0.02 0 0
0.02 0.020000000000000004 0
0.02 0.040000000000000001 0
0.02 0.54999999999999993 0
0.02 0.56000000000000005 0
0.02 0.58000000000000007 0
0.040000000000000001 0 0
0.040000000000000001 0.020000000000000004 0
0.040000000000000001 0.040000000000000001 0
0.040000000000000001 0.54999999999999993 0
0.040000000000000001 0.56000000000000005 0
0.040000000000000001 0.58000000000000007 0
0.059999999999999998 0 0
0.059999999999999998 0.020000000000000004 0
0.059999999999999998 0.040000000000000001 0
0.059999999999999998 0.54999999999999993 0
0.059999999999999998 0.56000000000000005 0
0.059999999999999998 0.58000000000000007 0
0.080000000000000002 0 0
0.080000000000000002 0.020000000000000004 0
0.080000000000000002 0.040000000000000001 0
0.080000000000000002 0.54999999999999993 0
0.080000000000000002 0.56000000000000005 0
0.080000000000000002 0.58000000000000007 0
0.10000000000000001 0 0
0.10000000000000001 0.020000000000000004 0
0.10000000000000001 0.040000000000000001 0
0.10000000000000001 0.54999999999999993 0
0.10000000000000001 0.56000000000000005 0
0.10000000000000001 0.58000000000000007 0
0.12 0 0
0.12 0.020000000000000004 0
0.12 0.040000000000000001 0
0.12 0.54999999999999993 0
0.12 0.56000000000000005 0
0.12 0.58000000000000007 0
0.14000000000000001 0 0
0.14000000000000001 0.020000000000000004 0
0.14000000000000001 0.040000000000000001 0
0.14000000000000001 0.54999999999999993 0
0.14000000000000001 0.56000000000000005 0
0.14000000000000001 0.58000000000000007 0
0.16 0 0
0.16 0.020000000000000004 0
0.16 0.040000000000000001 0
0.16 0.54999999999999993 0
0.16 0.56000000000000005 0
0.16 0.58000000000000007 0
0.17999999999999999 0 0
0.17999999999999999 0.020000000000000004 0
0.17999999999999999 0.040000000000000001 0
0.17999999999999999 0.54999999999999993 0
0.17999999999999999 0.56000000000000005 0
0.17999999999999999 0.58000000000000007 0
0.20000000000000001 0 0
0.20000000000000001 0.020000000000000004 0
0.20000000000000001 0.040000000000000001 0
0.20000000000000001 0.54999999999999993 0
0.20000000000000001 0.56000000000000005 0
0.20000000000000001 0.58000000000000007 0
0.22 0 0
0.22 0.020000000000000004 0
0.22 0.040000000000000001 0
0.22 0.54999999999999993 0
0.22 0.56000000000000005 0
0.22 0.58000000000000007 0
0.23999999999999999 0 0
0.23999999999999999 0.020000000000000004 0
0.23999999999999999 0.040000000000000001 0
0.23999999999999999 0.54999999999999993 0
0.23999999999999999 0.56000000000000005 0
0.23999999999999999 0.58000000000000007 0
0.26000000000000001 0 0
0.26000000000000001 0.020000000000000004 0
0.26000000000000001 0.040000000000000001 0
0.26000000000000001 0.54999999999999993 0
0.26000000000000001 0.56000000000000005 0
0.26000000000000001 0.58000000000000007 0
0.28000000000000003 0 0
0.28000000000000003 0.020000000000000004 0
0.28000000000000003 0.040000000000000001 0
0.28000000000000003 0.54999999999999993 0
0.28000000000000003 0.56000000000000005 0
0.28000000000000003 0.58000000000000007 0
0.29999999999999999 0 0
0.29999999999999999 0.020000000000000004 0
0.29999999999999999 0.040000000000000001 0
0.29999999999999999 0.54999999999999993 0
0.29999999999999999 0.56000000000000005 0
0.29999999999999999 0.58000000000000007 0
0.32000000000000001 0 0
0.32000000000000001 0.020000000000000004 0
0.32000000000000001 0.040000000000000001 0
0.32000000000000001 0.54999999999999993 0
0.32000000000000001 0.56000000000000005 0
0.32000000000000001 0.58000000000000007 0
0.34000000000000002 0 0
0.34000000000000002 0.020000000000000004 0
0.34000000000000002 0.040000000000000001 0
0.34000000000000002 0.54999999999999993 0
0.34000000000000002 0.56000000000000005 0
0.34000000000000002 0.58000000000000007 0
0.35999999999999999 0 0
0.35999999999999999 0.020000000000000004 0
0.35999999999999999 0.040000000000000001 0
0.35999999999999999 0.54999999999999993 0
0.35999999999999999 0.56000000000000005 0
0.35999999999999999 0.58000000000000007 0
0.38 0 0
0.38 0.020000000000000004 0
0.38 0.040000000000000001 0
0.38 0.54999999999999993 0
0.38 0.56000000000000005 0
0.38 0.58000000000000007 0
0.40000000000000002 0 0
0.40000000000000002 0.020000000000000004 0
0.40000000000000002 0.040000000000000001 0
0.40000000000000002 0.54999999999999993 0
0.40000000000000002 0.56000000000000005 0
0.40000000000000002 0.58000000000000007 0
0.41999999999999998 0 0
0.41999999999999998 0.020000000000000004 0
0.41999999999999998 0.040000000000000001 0
0.41999999999999998 0.54999999999999993 0
0.41999999999999998 0.56000000000000005 0
0.41999999999999998 0.58000000000000007 0
0.44 0 0
0.44 0.020000000000000004 0
0.44 0.040000000000000001 0
0.44 0.54999999999999993 0
0.44 0.56000000000000005 0
0.44 0.58000000000000007 0
0.46000000000000002 0 0
0.46000000000000002 0.020000000000000004 0
0.46000000000000002 0.040000000000000001 0
0.46000000000000002 0.54999999999999993 0
0.46000000000000002 0.56000000000000005 0
0.46000000000000002 0.58000000000000007 0
0.47999999999999998 0 0
0.47999999999999998 0.020000000000000004 0
0.47999999999999998 0.040000000000000001 0
0.47999999999999998 0.54999999999999993 0
0.47999999999999998 0.56000000000000005 0
0.47999999999999998 0.58000000000000007 0
0.5 0 0
0.5 0.020000000000000004 0
0.5 0.040000000000000001 0
0.5 0.54999999999999993 0
0.5 0.56000000000000005 0
0.5 0.58000000000000007 0
0.52000000000000002 0 0
0.52000000000000002 0.020000000000000004 0
0.52000000000000002 0.040000000000000001 0
0.52000000000000002 0.54999999999999993 0
0.52000000000000002 0.56000000000000005 0
0.52000000000000002 0.58000000000000007 0
0.54000000000000004 0 0
0.54000000000000004 0.020000000000000004 0
0.54000000000000004 0.040000000000000001 0
0.54000000000000004 0.54999999999999993 0
0.54000000000000004 0.56000000000000005 0
0.54000000000000004 0.58000000000000007 0
0.56000000000000005 0 0
0.56000000000000005 0.020000000000000004 0
0.56000000000000005 0.040000000000000001 0
0.56000000000000005 0.54999999999999993 0
0.56000000000000005 0.56000000000000005 0
0.56000000000000005 0.58000000000000007 0
0.57999999999999996 0 0
0.57999999999999996 0.020000000000000004 0
0.57999999999999996 0.040000000000000001 0
0.57999999999999996 0.54999999999999993 0
0.57999999999999996 0.56000000000000005 0
0.57999999999999996 0.58000000000000007 0
0.59999999999999998 0 0
0.59999999999999998 0.020000000000000004 0
0.59999999999999998 0.040000000000000001 0
0.59999999999999998 0.54999999999999993 0
0.59999999999999998 0.56000000000000005 0
0.59999999999999998 0.58000000000000007 0
0.62 0 0
0.62 0.020000000000000004 0
0.62 0.040000000000000001 0
0.62 0.54999999999999993 0
0.62 0.56000000000000005 0
0.62 0.58000000000000007 0
0.64000000000000001 0 0
0.64000000000000001 0.020000000000000004 0
0.64000000000000001 0.040000000000000001 0
0.64000000000000001 0.54999999999999993 0
0.64000000000000001 0.56000000000000005 0
0.64000000000000001 0.58000000000000007 0
0.66000000000000003 0 0
0.66000000000000003 0.020000000000000004 0
0.66000000000000003 0.040000000000000001 0
0.66000000000000003 0.54999999999999993 0
0.66000000000000003 0.56000000000000005 0
0.66000000000000003 0.58000000000000007 0
0.68000000000000005 0 0
0.68000000000000005 0.020000000000000004 0
0.68000000000000005 0.040000000000000001 0
0.68000000000000005 0.54999999999999993 0
0.68000000000000005 0.56000000000000005 0
0.68000000000000005 0.58000000000000007 0
0.70000000000000007 0 0
0.70000000000000007 0.020000000000000004 0
0.70000000000000007 0.040000000000000001 0
0.70000000000000007 0.54999999999999993 0
0.70000000000000007 0.56000000000000005 0
0.70000000000000007 0.58000000000000007 0
0.71999999999999997 0 0
0.71999999999999997 0.020000000000000004 0
0.71999999999999997 0.040000000000000001 0
0.71999999999999997 0.54999999999999993 0
0.71999999999999997 0.56000000000000005 0
0.71999999999999997 0.58000000000000007 0
0.73999999999999999 0 0
0.73999999999999999 0.020000000000000004 0
0.73999999999999999 0.040000000000000001 0
0.73999999999999999 0.54999999999999993 0
0.73999999999999999 0.56000000000000005 0
0.73999999999999999 0.58000000000000007 0
0.76000000000000001 0 0
0.76000000000000001 0.020000000000000004 0
0.76000000000000001 0.040000000000000001 0
0.76000000000000001 0.54999999999999993 0
0.76000000000000001 0.56000000000000005 0
0.76000000000000001 0.58000000000000007 0
0.78000000000000003 0 0
0.78000000000000003 0.020000000000000004 0
0.78000000000000003 0.040000000000000001 0
0.78000000000000003 0.54999999999999993 0
0.78000000000000003 0.56000000000000005 0
0.78000000000000003 0.58000000000000007 0
0.80000000000000004 0 0
0.80000000000000004 0.020000000000000004 0
0.80000000000000004 0.040000000000000001 0
0.80000000000000004 0.54999999999999993 0
0.80000000000000004 0.56000000000000005 0
0.80000000000000004 0.58000000000000007 0
0.82000000000000006 0 0
0.82000000000000006 0.020000000000000004 0
0.82000000000000006 0.040000000000000001 0
0.82000000000000006 0.54999999999999993 0
0.82000000000000006 0.56000000000000005 0
0.82000000000000006 0.58000000000000007 0
0.83999999999999997 0 0
0.83999999999999997 0.020000000000000004 0
0.83999999999999997 0.040000000000000001 0
0.83999999999999997 0.54999999999999993 0
0.83999999999999997 0.56000000000000005 0
0.83999999999999997 0.58000000000000007 0
0.85999999999999999 0 0
0.85999999999999999 0.020000000000000004 0
0.85999999999999999 0.040000000000000001 0
0.85999999999999999 0.54999999999999993 0
0.85999999999999999 0.56000000000000005 0
0.85999999999999999 0.58000000000000007 0
0.88 0 0
0.88 0.020000000000000004 0
0.88 0.040000000000000001 0
0.88 0.54999999999999993 0
0.88 0.56000000000000005 0
0.88 0.58000000000000007 0
0.90000000000000002 0 0
0.90000000000000002 0.020000000000000004 0
0.90000000000000002 0.040000000000000001 0
0.90000000000000002 0.54999999999999993 0
0.90000000000000002 0.56000000000000005 0
0.90000000000000002 0.58000000000000007 0
0.92000000000000004 0 0
0.92000000000000004 0.020000000000000004 0
0.92000000000000004 0.040000000000000001 0
0.92000000000000004 0.54999999999999993 0
0.92000000000000004 0.56000000000000005 0
0.92000000000000004 0.58000000000000007 0
0.94000000000000006 0 0
0.94000000000000006 0.020000000000000004 0
0.94000000000000006 0.040000000000000001 0
0.94000000000000006 0.54999999999999993 0
0.94000000000000006 0.56000000000000005 0
0.94000000000000006 0.58000000000000007 0
0.95999999999999996 0 0
0.95999999999999996 0.020000000000000004 0
0.95999999999999996 0.040000000000000001 0
0.95999999999999996 0.54999999999999993 0
0.95999999999999996 0.56000000000000005 0
0.95999999999999996 0.58000000000000007 0
0.97999999999999998 0 0
0.97999999999999998 0.020000000000000004 0
0.97999999999999998 0.040000000000000001 0
0.97999999999999998 0.54999999999999993 0
0.97999999999999998 0.56000000000000005 0
0.97999999999999998 0.58000000000000007 0
1 0 0
1 0.020000000000000004 0
1 0.040000000000000001 0
1 0.54999999999999993 0
1 0.56000000000000005 0
1 0.58000000000000007 0
VERTICES 681 1362
1 0
1 1
1 2
1 3
1 4
1 5
1 6
1 7
1 8
1 9
1 10
1 11
1 12
1 13
1 14
1 15
1 16
1 17
1 18
1 19
1 20
1 21
1 22
1 23
1 24
1 25
1 26
1 27
1 28
1 29
1 30
1 31
1 32
1 33
1 34
1 35
1 36
1 37
1 38
1 39
1 40
1 41
1 42
1 43
1 44
1 45
1 46
1 47
1 48
1 49
1 50
1 51
1 52
1 53
1 54
1 55
1 56
1 57
1 58
1 59
1 60
1 61
1 62
1 63
1 64
1 65
1 66
1 67
1 68
1 69
1 70
1 71
1 72
1 73
1 74
1 75
1 76
1 77
1 78
1 79
1 80
1 81
1 82
1 83
1 84
1 85
1 86
1 87
1 88
1 89
1 90
1 91
1 92
1 93
1 94
1 95
1 96
1 97
1 98
1 99
1 100
1 101
1 102
1 103
1 104
1 105
1 106
1 107
1 108
1 109
1 110
1 111
1 112
1 113
1 114
1 115
1 116
1 117
1 118
1 119
1 120
1 121
1 122
1 123
1 124
1 125
1 126
1 127
1 128
1 129
1 130
1 131
1 132
1 133
1 134
1 135
1 136
1 137
1 138
1 139
1 140
1 141
1 142
1 143
1 144
1 145
1 146
1 147
1 148
1 149
1 150
1 151
1 152
1 153
1 154
1 155
1 156
1 157
1 158
1 159
1 160
1 161
1 162
1 163
1 164
1 165
1 166
1 167
1 168
1 169
1 170
1 171
1 172
1 173
1 174
1 175
1 176
1 177
1 178
1 179
1 180
1 181
1 182
1 183
1 184
1 185
1 186
1 187
1 188
1 189
1 190
1 191
1 192
1 193
1 194
1 195
1 196
1 197
1 198
1 199
1 200
1 201
1 202
1 203
1 204
1 205
1 206
1 207
1 208
1 209
1 210
1 211
1 212
1 213
1 214
1 215
1 216
1 217
1 218
1 219
1 220
1 221
1 222
1 223
1 224
1 225
1 226
1 227
1 228
1 229
1 230
1 231
1 232
1 233
1 234
1 235
1 236
1 237
1 238
1 239
1 240
1 241
1 242
1 243
1 244
1 245
1 246
1 247
1 248
1 249
1 250
1 251
1 252
1 253
1 254
1 255
1 256
1 257
1 258
1 259
1 260
1 261
1 262
1 263
1 264
1 265
1 266
1 267
1 268
1 269
1 270
1 271
1 272
1 273
1 274
1 275
1 276
1 277
1 278
1 279
1 280
1 281
1 282
1 283
1 284
1 285
1 286
1 287
1 288
1 289
1 290
1 291
1 292
1 293
1 294
1 295
1 296
1 297
1 298
1 299
1 300
1 301
1 302
1 303
1 304
1 305
1 306
1 307
1 308
1 309
1 310
1 311
1 312
1 313
1 314
1 315
1 316
1 317
1 318
1 319
1 320
1 321
1 322
1 323
1 324
1 325
1 326
1 327
1 328
1 329
1 330
1 331
1 332
1 333
1 334
1 335
1 336
1 337
1 338
1 339
1 340
1 341
1 342
1 343
1 344
1 345
1 346
1 347
1 348
1 349
1 350
1 351
1 352
1 353
1 354
1 355
1 356
1 357
1 358
1 359
1 360
1 361
1 362
1 363
1 364
1 365
1 366
1 367
1 368
1 369
1 370
1 371
1 372
1 373
1 374
1 375
1 376
1 377
1 378
1 379
1 380
1 381
1 382
1 383
1 384
1 385
1 386
1 387
1 388
1 389
1 390
1 391
1 392
1 393
1 394
1 395
1 396
1 397
1 398
1 399
1 400
1 401
1 402
1 403
1 404
1 405
1 406
1 407
1 408
1 409
1 410
1 411
1 412
1 413
1 414
1 415
1 416
1 417
1 418
1 419
1 420
1 421
1 422
1 423
1 424
1 425
1 426
1 427
1 428
1 429
1 430
1 431
1 432
1 433
1 434
1 435
1 436
1 437
1 438
1 439
1 440
1 441
1 442
1 443
1 444
1 445
1 446
1 447
1 448
1 449
1 450
1 451
1 452
1 453
1 454
1 455
1 456
1 457
1 458
1 459
1 460
1 461
1 462
1 463
1 464
1 465
1 466
1 467
1 468
1 469
1 470
1 471
1 472
1 473
1 474
1 475
1 476
1 477
1 478
1 479
1 480
1 481
1 482
1 483
1 484
1 485
1 486
1 487
1 488
1 489
1 490
1 491
1 492
1 493
1 494
1 495
1 496
1 497
1 498
1 499
1 500
1 501
1 502
1 503
1 504
1 505
1 506
1 507
1 508
1 509
1 510
1 511
1 512
1 513
1 514
1 515
1 516
1 517
1 518
1 519
1 520
1 521
1 522
1 523
1 524
1 525
1 526
1 527
1 528
1 529
1 530
1 531
1 532
1 533
1 534
1 535
1 536
1 537
1 538
1 539
1 540
1 541
1 542
1 543
1 544
1 545
1 546
1 547
1 548
1 549
1 550
1 551
1 552
1 553
1 554
1 555
1 556
1 557
1 558
1 559
1 560
1 561
1 562
1 563
1 564
1 565
1 566
1 567
1 568
1 569
1 570
1 571
1 572
1 573
1 574
1 575
1 576
1 577
1 578
1 579
1 580
1 581
1 582
1 583
1 584
1 585
1 586
1 587
1 588
1 589
1 590
1 591
1 592
1 593
1 594
1 595
1 596
1 597
1 598
1 599
1 600
1 601
1 602
1 603
1 604
1 605
1 606
1 607
1 608
1 609
1 610
1 611
1 612
1 613
1 614
1 615
1 616
1 617
1 618
1 619
1 620
1 621
1 622
1 623
1 624
1 625
1 626
1 627
1 628
1 629
1 630
1 631
1 632
1 633
1 634
1 635
1 636
1 637
1 638
1 639
1 640
1 641
1 642
1 643
1 644
1 645
1 646
1 647
1 648
1 649
1 650
1 651
1 652
1 653
1 654
1 655
1 656
1 657
1 658
1 659
1 660
1 661
1 662
1 663
1 664
1 665
1 666
1 667
1 668
1 669
1 670
1 671
1 672
1 673
1 674
1 675
1 676
1 677
1 678
1 679
1 680
POINT_DATA 681
SCALARS is_boundary int 1
LOOKUP_TABLE default
0
0
0
0
0
0
0
0
0
0
0
0
0
0
0
0
0
0
0
0
0
0
0
0
0
0
0
0
0
0
0
0
0
0
0
0
0
0
0
0
0
0
0
0
0
0
0
0
0
0
0
0
0
0
0
0
0
0
0
0
0
0
0
0
0
0
0
0
0
0
0
0
0
0
0
0
0
0
0
0
0
0
0
0
0
0
0
0
0
0
0
0
0
0
0
0
0
0
0
0
0
0
0
0
0
0
0
0
0
0
0
0
0
0
0
0
0
0
0
0
0
0
0
0
0
0
0
0
0
0
0
0
0
0
0
0
0
0
0
0
0
0
0
0
0
0
0
0
0
0
0
0
0
0
0
0
0
0
0
0
0
0
0
0
0
0
0
0
0
0
0
0
0
0
0
0
0
0
0
0
0
0
0
0
0
0
0
0
0
0
0
0
0
0
0
0
0
0
0
0
0
0
0
0
0
0
0
0
0
0
0
0
0
0
0
0
0
0
0
0
0
0
0
0
0
0
0
0
0
0
0
0
0
0
0
0
0
0
0
0
0
0
0
0
0
0
0
0
0
0
0
0
0
0
0
0
0
0
0
0
0
0
0
0
0
0
0
0
0
0
0
0
0
0
0
0
0
0
0
0
0
0
0
0
0
0
0
0
0
0
0
0
0
0
0
0
0
0
0
0
0
0
0
0
0
0
0
0
0
0
0
0
0
0
0
0
0
0
0
0
0
0
0
0
0
0
0
0
0
0
0
0
0
0
0
0
0
0
0
0
0
0
0
0
0
0
0
0
0
0
0
0
0
0
0
0
0
0
0
0
0
0
0
0
0
0
0
0
0
0
0
0
0
0
0
1
1
1
1
1
1
1
1
1
1
1
1
1
1
1
1
1
1
1
1
1
1
1
1
1
1
1
1
1
1
1
1
1
1
1
1
1
1
1
1
1
1
1
1
1
1
1
1
1
1
1
1
1
1
1
1
1
1
1
1
1
1
1
1
1
1
1
1
1
1
1
1
1
1
1
1
1
1
1
1
1
1
1
1
1
1
1
1
1
1
1
1
1
1
1
1
1
1
1
1
1
1
1
1
1
1
1
1
1
1
1
1
1
1
1
1
1
1
1
1
1
1
1
1
1
1
1
1
1
1
1
1
1
1
1
1
1
1
1
1
1
1
1
1
1
1
1
1
1
1
1
1
1
1
1
1
1
1
1
1
1
1
1
1
1
1
1
1
1
1
1
1
1
1
1
1
1
1
1
1
1
1
1
1
1
1
1
1
1
1
1
1
1
1
1
1
1
1
1
1
1
1
1
1
1
1
1
1
1
1
1
1
1
1
1
1
1
1
1
1
1
1
1
1
1
1
1
1
1
1
1
1
1
1
1
1
1
1
1
1
1
1
1
1
1
1
1
1
1
1
1
1
1
1
1
1
1
1
1
1
1
1
1
1
1
1
1
1
1
1
1
1
1
1
1
1
1
1
1
1
1
1
1
1
1
1
1
1
1
1
1
1
1
1
1
1
1
1
1
1
1
1
1
1
1
1
SCALARS rho float 1
LOOKUP_TABLE default
1020
1020
1020
1020
1020
1020
1020
1020
1020
1020
1020
1020
1020
1020
1020
1020
1020
1020
1020
1020
1020
1020
1020
1020
1020
1020
1020
1020
1020
1020
1020
1020
1020
1020
1020
1020
1020
1020
1020
1020
1020
1020
1020
1020
1020
1020
1020
1020
1020
1020
1020
1020
1020
1020
1020
1020
1020
1020
1020
1020
1020
1020
1020
1020
1020
1020
1020
1020
1020
1020
1020
1020
1020
1020
1020
1020
1020
1020
1020
1020
1020
1020
1020
1020
1020
1020
1020
1020
1020
1020
1020
1020
1020
1020
1020
1020
1020
1020
1020
1020
1020
1020
1020
1020
1020
1020
1020
1020
1020
1020
1020
1020
1020
1020
1020
1020
1020
1020
1020
1020
1020
1020
1020
1020
1020
1020
1020
1020
1020
1020
1020
1020
1020
1020
1020
1020
1020
1020
1020
1020
1020
1020
1020
1020
1020
1020
1020
1020
1020
1020
1020
1020
1020
1020
1020
1020
1020
1020
1020
1020
1020
1020
1020
1020
1020
1020
1020
1020
1020
1020
1020
1020
1020
1020
1020
1020
1020
1020
1020
1020
1020
1020
1020
1020
1020
1020
1020
1020
1020
1020
1020
1020
1020
1020
1020
1020
1020
1020
1020
1020
1020
1020
1020
1020
1020
1020
1020
1020
1020
1020
1020
1020
1020
1020
1020
1020
1020
1020
1020
1020
1020
1020
1020
1020
1020
1020
1020
1020
1020
1020
1020
1020
1020
1020
1020
1020
1020
1020
1020
1020
1020
1020
1020
1020
1020
1020
1020
1020
1020
1020
1020
1020
1020
1020
1020
1020
1020
1020
1020
1020
1020
1020
1020
1020
1020
1020
1020
1020
1020
1020
1020
1020
1020
1020
1020
1020
1020
1020
1020
1020
1020
1020
1020
1020
1020
1020
1020
1020
1020
1020
1020
1020
1020
1020
1020
1020
1020
1020
1020
1020
1020
1020
1020
1020
1020
1020
1020
1020
1020
1020
1020
1020
1020
1020
1020
1020
1020
1020
1020
1020
1020
1020
1020
1020
1020
1020
1020
1020
1020
1020
1020
1020
1020
1020
1020
1020
1020
1020
1020
1020
1020
1020
1020
1020
1020
1020
1020
1020
1020
1020
1020
1020
1020
1020
1020
1020
1020
1020
1020
1020
1020
1020
1020
1020
1020
1020
1020
1020
1020
1020
1020
1020
1020
1020
1020
1000
1000
1000
1000
1000
1000
1000
1000
1000
1000
1000
1000
1000
1000
1000
1000
1000
1000
1000
1000
1000
1000
1000
1000
1000
1000
1000
1000
1000
1000
1000
1000
1000
1000
1000
1000
1000
1000
1000
1000
1000
1000
1000
1000
1000
1000
1000
1000
1000
1000
1000
1000
1000
1000
1000
1000
1000
1000
1000
1000
1000
1000
1000
1000
1000
1000
1000
1000
1000
1000
1000
1000
1000
1000
1000
1000
1000
1000
1000
1000
1000
1000
1000
1000
1000
1000
1000
1000
1000
1000
1000
1000
1000
1000
1000
1000
1000
1000
1000
1000
1000
1000
1000
1000
1000
1000
1000
1000
1000
1000
1000
1000
1000
1000
1000
1000
1000
1000
1000
1000
1000
1000
1000
1000
1000
1000
1000
1000
1000
1000
1000
1000
1000
1000
1000
1000
1000
1000
1000
1000
1000
1000
1000
1000
1000
1000
1000
1000
1000
1000
1000
1000
1000
1000
1000
1000
1000
1000
1000
1000
1000
1000
1000
1000
1000
1000
1000
1000
1000
1000
1000
1000
1000
1000
1000
1000
1000
1000
1000
1000
1000
1000
1000
1000
1000
1000
1000
1000
1000
1000
1000
1000
1000
1000
1000
1000
1000
1000
1000
1000
1000
1000
1000
1000
1000
1000
1000
1000
1000
1000
1000
1000
1000
1000
1000
1000
1000
1000
1000
1000
1000
1000
1000
1000
1000
1000
1000
1000
1000
1000
1000
1000
1000
1000
1000
1000
1000
1000
1000
1000
1000
1000
1000
1000
1000
1000
1000
1000
1000
1000
1000
1000
1000
1000
1000
1000
1000
1000
1000
1000
1000
1000
1000
1000
1000
1000
1000
1000
1000
1000
1000
1000
1000
1000
1000
1000
1000
1000
1000
1000
1000
1000
1000
1000
1000
1000
1000
1000
1000
1000
1000
1000
1000
1000
1000
1000
1000
1000
1000
1000
1000
1000
1000
1000
1000
1000
SCALARS p float 1
LOOKUP_TABLE default
25004.681136676067
25004.681136676067
25004.681136676067
25004.681136676067
25004.681136676067
25004.681136676067
25004.681136676067
25004.681136676067
25004.681136676067
25004.681136676067
25004.681136676067
25004.681136676067
25004.681136676067
25004.681136676067
25004.681136676067
25004.681136676067
25004.681136676067
25004.681136676067
25004.681136676067
25004.681136676067
25004.681136676067
25004.681136676067
25004.681136676067
25004.681136676067
25004.681136676067
25004.681136676067
25004.681136676067
25004.681136676067
25004.681136676067
25004.681136676067
25004.681136676067
25004.681136676067
25004.681136676067
25004.681136676067
25004.681136676067
25004.681136676067
25004.681136676067
25004.681136676067
25004.681136676067
25004.681136676067
25004.681136676067
25004.681136676067
25004.681136676067
25004.681136676067
25004.681136676067
25004.681136676067
25004.681136676067
25004.681136676067
25004.681136676067
25004.681136676067
25004.681136676067
25004.681136676067
25004.681136676067
25004.681136676067
25004.681136676067
25004.681136676067
25004.681136676067
25004.681136676067
25004.681136676067
25004.681136676067
25004.681136676067
25004.681136676067
25004.681136676067
25004.681136676067
25004.681136676067
25004.681136676067
25004.681136676067
25004.681136676067
25004.681136676067
25004.681136676067
25004.681136676067
25004.681136676067
25004.681136676067
25004.681136676067
25004.681136676067
25004.681136676067
25004.681136676067
25004.681136676067
25004.681136676067
25004.681136676067
25004.681136676067
25004.681136676067
25004.681136676067
25004.681136676067
25004.681136676067
25004.681136676067
25004.681136676067
25004.681136676067
25004.681136676067
25004.681136676067
25004.681136676067
25004.681136676067
25004.681136676067
25004.681136676067
25004.681136676067
25004.681136676067
25004.681136676067
25004.681136676067
25004.681136676067
25004.681136676067
25004.681136676067
25004.681136676067
25004.681136676067
25004.681136676067
25004.681136676067
25004.681136676067
25004.681136676067
25004.681136676067
25004.681136676067
25004.681136676067
25004.681136676067
25004.681136676067
25004.681136676067
25004.681136676067
25004.681136676067
25004.681136676067
25004.681136676067
25004.681136676067
25004.681136676067
25004.681136676067
25004.681136676067
25004.681136676067
25004.681136676067
25004.681136676067
25004.681136676067
25004.681136676067
25004.681136676067
25004.681136676067
25004.681136676067
25004.681136676067
25004.681136676067
25004.681136676067
25004.681136676067
25004.681136676067
25004.681136676067
25004.681136676067
25004.681136676067
25004.681136676067
25004.681136676067
25004.681136676067
25004.681136676067
25004.681136676067
25004.681136676067
25004.681136676067
25004.681136676067
25004.681136676067
25004.681136676067
25004.681136676067
25004.681136676067
25004.681136676067
25004.681136676067
25004.681136676067
25004.681136676067
25004.681136676067
25004.681136676067
25004.681136676067
25004.681136676067
25004.681136676067
25004.681136676067
25004.681136676067
25004.681136676067
25004.681136676067
25004.681136676067
25004.681136676067
25004.681136676067
25004.681136676067
25004.681136676067
25004.681136676067
25004.681136676067
25004.681136676067
25004.681136676067
25004.681136676067
25004.681136676067
25004.681136676067
25004.681136676067
25004.681136676067
25004.681136676067
25004.681136676067
25004.681136676067
25004.681136676067
25004.681136676067
25004.681136676067
25004.681136676067
25004.681136676067
25004.681136676067
25004.681136676067
25004.681136676067
25004.681136676067
25004.681136676067
25004.681136676067
25004.681136676067
25004.681136676067
25004.681136676067
25004.681136676067
25004.681136676067
25004.681136676067
25004.681136676067
25004.681136676067
25004.681136676067
25004.681136676067
25004.681136676067
25004.681136676067
25004.681136676067
25004.681136676067
25004.681136676067
25004.681136676067
25004.681136676067
25004.681136676067
25004.681136676067
25004.681136676067
25004.681136676067
25004.681136676067
25004.681136676067
25004.681136676067
25004.681136676067
25004.681136676067
25004.681136676067
25004.681136676067
25004.681136676067
25004.681136676067
25004.681136676067
25004.681136676067
25004.681136676067
25004.681136676067
25004.681136676067
25004.681136676067
25004.681136676067
25004.681136676067
25004.681136676067
25004.681136676067
25004.681136676067
25004.681136676067
25004.681136676067
25004.681136676067
25004.681136676067
25004.681136676067
25004.681136676067
25004.681136676067
25004.681136676067
25004.681136676067
25004.681136676067
25004.681136676067
25004.681136676067
25004.681136676067
25004.681136676067
25004.681136676067
25004.681136676067
25004.681136676067
25004.681136676067
25004.681136676067
25004.681136676067
25004.681136676067
25004.681136676067
25004.681136676067
25004.681136676067
25004.681136676067
25004.681136676067
25004.681136676067
25004.681136676067
25004.681136676067
25004.681136676067
25004.681136676067
25004.681136676067
25004.681136676067
25004.681136676067
25004.681136676067
25004.681136676067
25004.681136676067
25004.681136676067
25004.681136676067
25004.681136676067
25004.681136676067
25004.681136676067
25004.681136676067
25004.681136676067
25004.681136676067
25004.681136676067
25004.681136676067
25004.681136676067
25004.681136676067
25004.681136676067
25004.681136676067
25004.681136676067
25004.681136676067
25004.681136676067
25004.681136676067
25004.681136676067
25004.681136676067
25004.681136676067
25004.681136676067
25004.681136676067
25004.681136676067
25004.681136676067
25004.681136676067
25004.681136676067
25004.681136676067
25004.681136676067
25004.681136676067
25004.681136676067
25004.681136676067
25004.681136676067
25004.681136676067
25004.681136676067
25004.681136676067
25004.681136676067
25004.681136676067
25004.681136676067
25004.681136676067
25004.681136676067
25004.681136676067
25004.681136676067
25004.681136676067
25004.681136676067
25004.681136676067
25004.681136676067
25004.681136676067
25004.681136676067
25004.681136676067
25004.681136676067
25004.681136676067
25004.681136676067
25004.681136676067
25004.681136676067
25004.681136676067
25004.681136676067
25004.681136676067
25004.681136676067
25004.681136676067
25004.681136676067
25004.681136676067
25004.681136676067
25004.681136676067
25004.681136676067
25004.681136676067
25004.681136676067
25004.681136676067
25004.681136676067
25004.681136676067
25004.681136676067
25004.681136676067
25004.681136676067
25004.681136676067
25004.681136676067
25004.681136676067
25004.681136676067
25004.681136676067
25004.681136676067
25004.681136676067
25004.681136676067
25004.681136676067
25004.681136676067
25004.681136676067
25004.681136676067
25004.681136676067
25004.681136676067
25004.681136676067
25004.681136676067
25004.681136676067
25004.681136676067
25004.681136676067
25004.681136676067
25004.681136676067
25004.681136676067
25004.681136676067
25004.681136676067
25004.681136676067
25004.681136676067
25004.681136676067
25004.681136676067
25004.681136676067
25004.681136676067
25004.681136676067
25004.681136676067
25004.681136676067
25004.681136676067
0
0
0
0
0
0
24227.727796723524
24983.509346274797
24991.316109619966
0
0
0
24997.745416799848
25003.963521415364
25004.210088735159
0
0
0
25001.417517496022
25004.315623886952
25004.437553635707
0
0
0
25001.640892574782
25004.321413223479
25004.437672788026
0
0
0
25001.653674971411
25004.320986362301
25004.436952788485
0
0
0
25001.649695779626
25004.320710514909
25004.436867178258
0
0
0
25001.647250135371
25004.320583453569
25004.436857709297
0
0
0
25001.646295427781
25004.320532937611
25004.436857115867
0
0
0
25001.646052611981
25004.320518141805
25004.436857863257
0
0
0
25001.64608353057
25004.320519257159
25004.436859968871
0
0
0
25001.646459873991
25004.320539209722
25004.436859115209
0
0
0
25001.647523272219
25004.320595506455
25004.436861515485
0
0
0
25001.649982370411
25004.320722729146
25004.43687247482
0
0
0
25001.653888842051
25004.320993127771
25004.436953716347
0
0
0
25001.640944986124
25004.321411377798
25004.437670869342
0
0
0
25001.417517476268
25004.315623762719
25004.43755768297
0
0
0
24997.74508944642
25003.963485929049
25004.210072044491
0
0
0
24227.565060087058
24983.506156303982
24991.31355455389
0
0
0
0
0
0
0
0
0
0
0
0
0
0
0
0
0
0
0
0
0
0
0
0
0
0
0
0
0
0
0
0
0
0
0
0
0
0
0
0
0
0
0
0
0
0
0
0
0
0
0
0
0
0
0
0
0
0
0
0
0
0
0
0
0
0
0
0
0
0
0
0
0
0
0
0
0
0
0
0
0
0
0
0
0
0
0
0
0
0
0
0
0
0
0
0
0
0
0
0
0
0
0
0
0
0
0
0
0
0
0
0
0
0
0
0
0
0
0
0
0
0
0
0
0
0
0
0
0
0
0
0
0
0
0
0
0
0
0
0
0
0
0
0
0
0
0
0
0
0
0
0
0
0
0
0
0
0
0
0
0
0
0
0
0
0
0
0
0
0
0
0
0
0
0
0
0
0
0
0
0
0
0
0
0
0
0
0
0
0
0
0
0
0
0
SCALARS m float 1
LOOKUP_TABLE default
0.39965556373580352
0.39965556373580352
0.39965556373580352
0.39965556373580352
0.39965556373580352
0.39965556373580352
0.39965556373580352
0.39965556373580352
0.39965556373580352
0.39965556373580352
0.39965556373580352
0.39965556373580352
0.39965556373580352
0.39965556373580352
0.39965556373580352
0.39965556373580352
0.39965556373580352
0.39965556373580352
0.39965556373580352
0.39965556373580352
0.39965556373580352
0.39965556373580352
0.39965556373580352
0.39965556373580352
0.39965556373580352
0.39965556373580352
0.39965556373580352
0.39965556373580352
0.39965556373580352
0.39965556373580352
0.39965556373580352
0.39965556373580352
0.39965556373580352
0.39965556373580352
0.39965556373580352
0.39965556373580352
0.39965556373580352
0.39965556373580352
0.39965556373580352
0.39965556373580352
0.39965556373580352
0.39965556373580352
0.39965556373580352
0.39965556373580352
0.39965556373580352
0.39965556373580352
0.39965556373580352
0.39965556373580352
0.39965556373580352
0.39965556373580352
0.39965556373580352
0.39965556373580352
0.39965556373580352
0.39965556373580352
0.39965556373580352
0.39965556373580352
0.39965556373580352
0.39965556373580352
0.39965556373580352
0.39965556373580352
0.39965556373580352
0.39965556373580352
0.39965556373580352
0.39965556373580352
0.39965556373580352
0.39965556373580352
0.39965556373580352
0.39965556373580352
0.39965556373580352
0.39965556373580352
0.39965556373580352
0.39965556373580352
0.39965556373580352
0.39965556373580352
0.39965556373580352
0.39965556373580352
0.39965556373580352
0.39965556373580352
0.39965556373580352
0.39965556373580352
0.39965556373580352
0.39965556373580352
0.39965556373580352
0.39965556373580352
0.39965556373580352
0.39965556373580352
0.39965556373580352
0.39965556373580352
0.39965556373580352
0.39965556373580352
0.39965556373580352
0.39965556373580352
0.39965556373580352
0.39965556373580352
0.39965556373580352
0.39965556373580352
0.39965556373580352
0.39965556373580352
0.39965556373580352
0.39965556373580352
0.39965556373580352
0.39965556373580352
0.39965556373580352
0.39965556373580352
0.39965556373580352
0.39965556373580352
0.39965556373580352
0.39965556373580352
0.39965556373580352
0.39965556373580352
0.39965556373580352
0.39965556373580352
0.39965556373580352
0.39965556373580352
0.39965556373580352
0.39965556373580352
0.39965556373580352
0.39965556373580352
0.39965556373580352
0.39965556373580352
0.39965556373580352
0.39965556373580352
0.39965556373580352
0.39965556373580352
0.39965556373580352
0.39965556373580352
0.39965556373580352
0.39965556373580352
0.39965556373580352
0.39965556373580352
0.39965556373580352
0.39965556373580352
0.39965556373580352
0.39965556373580352
0.39965556373580352
0.39965556373580352
0.39965556373580352
0.39965556373580352
0.39965556373580352
0.39965556373580352
0.39965556373580352
0.39965556373580352
0.39965556373580352
0.39965556373580352
0.39965556373580352
0.39965556373580352
0.39965556373580352
0.39965556373580352
0.39965556373580352
0.39965556373580352
0.39965556373580352
0.39965556373580352
0.39965556373580352
0.39965556373580352
0.39965556373580352
0.39965556373580352
0.39965556373580352
0.39965556373580352
0.39965556373580352
0.39965556373580352
0.39965556373580352
0.39965556373580352
0.39965556373580352
0.39965556373580352
0.39965556373580352
0.39965556373580352
0.39965556373580352
0.39965556373580352
0.39965556373580352
0.39965556373580352
0.39965556373580352
0.39965556373580352
0.39965556373580352
0.39965556373580352
0.39965556373580352
0.39965556373580352
0.39965556373580352
0.39965556373580352
0.39965556373580352
0.39965556373580352
0.39965556373580352
0.39965556373580352
0.39965556373580352
0.39965556373580352
0.39965556373580352
0.39965556373580352
0.39965556373580352
0.39965556373580352
0.39965556373580352
0.39965556373580352
0.39965556373580352
0.39965556373580352
0.39965556373580352
0.39965556373580352
0.39965556373580352
0.39965556373580352
0.39965556373580352
0.39965556373580352
0.39965556373580352
0.39965556373580352
0.39965556373580352
0.39965556373580352
0.39965556373580352
0.39965556373580352
0.39965556373580352
0.39965556373580352
0.39965556373580352
0.39965556373580352
0.39965556373580352
0.39965556373580352
0.39965556373580352
0.39965556373580352
0.39965556373580352
0.39965556373580352
0.39965556373580352
0.39965556373580352
0.39965556373580352
0.39965556373580352
0.39965556373580352
0.39965556373580352
0.39965556373580352
0.39965556373580352
0.39965556373580352
0.39965556373580352
0.39965556373580352
0.39965556373580352
0.39965556373580352
0.39965556373580352
0.39965556373580352
0.39965556373580352
0.39965556373580352
0.39965556373580352
0.39965556373580352
0.39965556373580352
0.39965556373580352
0.39965556373580352
0.39965556373580352
0.39965556373580352
0.39965556373580352
0.39965556373580352
0.39965556373580352
0.39965556373580352
0.39965556373580352
0.39965556373580352
0.39965556373580352
0.39965556373580352
0.39965556373580352
0.39965556373580352
0.39965556373580352
0.39965556373580352
0.39965556373580352
0.39965556373580352
0.39965556373580352
0.39965556373580352
0.39965556373580352
0.39965556373580352
0.39965556373580352
0.39965556373580352
0.39965556373580352
0.39965556373580352
0.39965556373580352
0.39965556373580352
0.39965556373580352
0.39965556373580352
0.39965556373580352
0.39965556373580352
0.39965556373580352
0.39965556373580352
0.39965556373580352
0.39965556373580352
0.39965556373580352
0.39965556373580352
0.39965556373580352
0.39965556373580352
0.39965556373580352
0.39965556373580352
0.39965556373580352
0.39965556373580352
0.39965556373580352
0.39965556373580352
0.39965556373580352
0.39965556373580352
0.39965556373580352
0.39965556373580352
0.39965556373580352
0.39965556373580352
0.39965556373580352
0.39965556373580352
0.39965556373580352
0.39965556373580352
0.39965556373580352
0.39965556373580352
0.39965556373580352
0.39965556373580352
0.39965556373580352
0.39965556373580352
0.39965556373580352
0.39965556373580352
0.39965556373580352
0.39965556373580352
0.39965556373580352
0.39965556373580352
0.39965556373580352
0.39965556373580352
0.39965556373580352
0.39965556373580352
0.39965556373580352
0.39965556373580352
0.39965556373580352
0.39965556373580352
0.39965556373580352
0.39965556373580352
0.39965556373580352
0.39965556373580352
0.39965556373580352
0.39965556373580352
0.39965556373580352
0.39965556373580352
0.39965556373580352
0.39965556373580352
0.39965556373580352
0.39965556373580352
0.39965556373580352
0.39965556373580352
0.39965556373580352
0.39965556373580352
0.39965556373580352
0.39965556373580352
0.39965556373580352
0.39965556373580352
0.39965556373580352
0.39965556373580352
0.39965556373580352
0.39965556373580352
0.39965556373580352
0.39965556373580352
0.39965556373580352
0.39965556373580352
0.39965556373580352
0.39965556373580352
0.39965556373580352
0.39965556373580352
0.39965556373580352
0.39965556373580352
0.39965556373580352
0.39965556373580352
0.39965556373580352
0.39965556373580352
0.39965556373580352
0.39965556373580352
0.39965556373580352
0.39965556373580352
0.39965556373580352
0.39965556373580352
0.39965556373580352
0.39965556373580352
0.39965556373580352
0.39965556373580352
0.39965556373580352
0.39965556373580352
0.39965556373580352
0.39965556373580352
0.39965556373580352
0.39965556373580352
0.39965556373580352
0.39965556373580352
0.39965556373580352
0.39965556373580352
0.39965556373580352
0.39965556373580352
0.39965556373580352
0.39965556373580352
0.39965556373580352
0.39965556373580352
0.39965556373580352
0.39965556373580352
0.39965556373580352
0.39965556373580352
0.39965556373580352
0.39965556373580352
0.39965556373580352
0.39965556373580352
0.39965556373580352
0.39965556373580352
0.39965556373580352
0.39965556373580352
0.39965556373580352
0.39965556373580352
0.39965556373580352
0.39965556373580352
0.39965556373580352
0.39965556373580352
0.39965556373580352
0.39965556373580352
0.39965556373580352
0.39965556373580352
0.39965556373580352
0.39965556373580352
0.39965556373580352
0.39965556373580352
0.39965556373580352
0.39965556373580352
0.39965556373580352
0.39965556373580352
0.39965556373580352
0.39965556373580352
0.39965556373580352
0.39965556373580352
0.39965556373580352
0.39965556373580352
0.39965556373580352
0.39965556373580352
0.39965556373580352
0.39965556373580352
0.39965556373580352
0.39965556373580352
0.39965556373580352
0.39965556373580352
0.39965556373580352
0.39965556373580352
0.39965556373580352
0.39965556373580352
0.39965556373580352
0.39965556373580352
0.39965556373580352
0.39965556373580352
0.39965556373580352
0.39965556373580352
0.39965556373580352
0.39965556373580352
0.39965556373580352
0.39965556373580352
0.39965556373580352
0.39965556373580352
0.39965556373580352
0.39965556373580352
0.39965556373580352
0.39965556373580352
0.39965556373580352
0.39965556373580352
0.39965556373580352
0.39965556373580352
0.39965556373580352
0.39965556373580352
0.39965556373580352
0.39965556373580352
0.39965556373580352
0.39965556373580352
0.39965556373580352
0.39965556373580352
0.39965556373580352
0.39965556373580352
0.39965556373580352
0.39965556373580352
0.39965556373580352
0.39965556373580352
0.39965556373580352
0.39965556373580352
0.39965556373580352
0.39965556373580352
0.39965556373580352
0.39965556373580352
0.39965556373580352
0.39965556373580352
0.39965556373580352
0.39965556373580352
0.39965556373580352
0.39965556373580352
0.39965556373580352
0.39965556373580352
0.39965556373580352
0.39965556373580352
0.39965556373580352
0.39965556373580352
0.39965556373580352
0.39965556373580352
0.39965556373580352
0.39965556373580352
0.39965556373580352
0.39965556373580352
0.39965556373580352
0.39965556373580352
0.39965556373580352
0.39965556373580352
0.39965556373580352
0.39965556373580352
0.39965556373580352
0.39965556373580352
0.39965556373580352
0.39965556373580352
0.39965556373580352
0.39965556373580352
0.39965556373580352
0.39965556373580352
0.39965556373580352
0.39965556373580352
0.39965556373580352
0.39965556373580352
0.39965556373580352
0.39965556373580352
0.39965556373580352
0.39965556373580352
0.39965556373580352
0.39965556373580352
0.39965556373580352
0.39965556373580352
0.39965556373580352
0.39965556373580352
0.39965556373580352
0.39965556373580352
0.39965556373580352
0.39965556373580352
0.39965556373580352
0.39965556373580352
0.39965556373580352
0.39965556373580352
0.39965556373580352
0.39965556373580352
0.39965556373580352
0.39965556373580352
0.39965556373580352
0.39965556373580352
0.39965556373580352
0.39965556373580352
0.39965556373580352
0.39965556373580352
0.39965556373580352
0.39965556373580352
0.39965556373580352
0.39965556373580352
0.39965556373580352
0.39965556373580352
0.39965556373580352
0.39965556373580352
0.39965556373580352
0.39965556373580352
0.39965556373580352
0.39965556373580352
0.39965556373580352
0.39965556373580352
0.39965556373580352
0.39965556373580352
0.39965556373580352
0.39965556373580352
0.39965556373580352
0.39965556373580352
0.39965556373580352
0.39965556373580352
0.39965556373580352
0.39965556373580352
0.39965556373580352
0.39965556373580352
0.39965556373580352
0.39965556373580352
0.39965556373580352
0.39965556373580352
0.39965556373580352
0.39965556373580352
0.39965556373580352
0.39965556373580352
0.39965556373580352
0.39965556373580352
0.39965556373580352
0.39965556373580352
0.39965556373580352
0.39965556373580352
0.39965556373580352
0.39965556373580352
0.39965556373580352
0.39965556373580352
0.39965556373580352
0.39965556373580352
0.39965556373580352
0.39965556373580352
0.39965556373580352
0.39965556373580352
0.39965556373580352
0.39965556373580352
0.39965556373580352
0.39965556373580352
0.39965556373580352
0.39965556373580352
0.39965556373580352
0.39965556373580352
0.39965556373580352
0.39965556373580352
0.39965556373580352
0.39965556373580352
0.39965556373580352
0.39965556373580352
0.39965556373580352
0.39965556373580352
0.39965556373580352
0.39965556373580352
0.39965556373580352
0.39965556373580352
0.39965556373580352
0.39965556373580352
0.39965556373580352
0.39965556373580352
0.39965556373580352
0.39965556373580352
0.39965556373580352
0.39965556373580352
0.39965556373580352
0.39965556373580352
0.39965556373580352
0.39965556373580352
0.39965556373580352
0.39965556373580352
0.39965556373580352
0.39965556373580352
0.39965556373580352
0.39965556373580352
0.39965556373580352
0.39965556373580352
0.39965556373580352
0.39965556373580352
0.39965556373580352
0.39965556373580352
0.39965556373580352
0.39965556373580352
0.39965556373580352
0.39965556373580352
0.39965556373580352
0.39965556373580352
0.39965556373580352
0.39965556373580352
0.39965556373580352
0.39965556373580352
0.39965556373580352
0.39965556373580352
0.39965556373580352
0.39965556373580352
0.39965556373580352
0.39965556373580352
0.39965556373580352
0.39965556373580352
0.39965556373580352
0.39965556373580352
0.39965556373580352
0.39965556373580352
0.39965556373580352
0.39965556373580352
0.39965556373580352
0.39965556373580352
0.39965556373580352
0.39965556373580352
0.39965556373580352
0.39965556373580352
0.39965556373580352
0.39965556373580352
0.39965556373580352
0.39965556373580352
0.39965556373580352
0.39965556373580352
0.39965556373580352
0.39965556373580352
0.39965556373580352
0.39965556373580352
0.39965556373580352
0.39965556373580352
0.39965556373580352
0.39965556373580352
0.39965556373580352
0.39965556373580352
0.39965556373580352
0.39965556373580352
0.39965556373580352
0.39965556373580352
0.39965556373580352
0.39965556373580352
0.39965556373580352
0.39965556373580352
0.39965556373580352
0.39965556373580352
0.39965556373580352
0.39965556373580352
0.39965556373580352
0.39965556373580352
0.39965556373580352
VECTORS v float
-1.9851691845993476e-05 -0.036265268548828271 0
-2.0897267674151958e-05 -0.03669188933909303 0
-2.1646792786000129e-05 -0.037022408162619237 0
-2.231667403357343e-05 -0.037343354750315305 0
-2.2916154677544057e-05 -0.037662148615337093 0
-2.3470776916541575e-05 -0.037994018702997123 0
-2.3985719052443711e-05 -0.038349384513995992 0
-2.4467691641703909e-05 -0.038734874658530316 0
-2.4917497909507944e-05 -0.039156340391697575 0
-2.5327143887330798e-05 -0.039619181955901056 0
-2.568605064505761e-05 -0.040129259533845565 0
-2.5985319439037568e-05 -0.040692836122313003 0
-2.6206810574417021e-05 -0.041316617370652418 0
-2.6390501964148287e-05 -0.042008442782599832 0
-2.6552701970118913e-05 -0.042784106032225426 0
-2.6677347793578742e-05 -0.043662761666692099 0
-2.6799143644952641e-05 -0.044667524213549345 0
-2.6927094547124583e-05 -0.045826749440366597 0
-2.7078236238076238e-05 -0.047180470040188272 0
-2.7256811191135691e-05 -0.048775318087880951 0
-2.7480992859099069e-05 -0.050696906700863784 0
-2.7766951755687481e-05 -0.053073864419747804 0
-2.8133297530628048e-05 -0.05612823042069856 0
-2.8638643760329908e-05 -0.060298660776822312 0
-2.9403676175024243e-05 -0.066892193369136585 0
-1.1624382792516261e-05 -0.036440484432623738 0
-1.2445086422207895e-05 -0.036905474204227233 0
-1.3016055296180128e-05 -0.037265215326285808 0
-1.3495695912637573e-05 -0.03760859991896541 0
-1.3832312467358754e-05 -0.037942540702647944 0
-1.4165118279806582e-05 -0.038284791787883486 0
-1.4510802183921475e-05 -0.038649164614384571 0
-1.4709138156112541e-05 -0.039044288997191909 0
-1.4943348054217391e-05 -0.039476106713632816 0
-1.5139493123632259e-05 -0.039951747552338893 0
-1.5203782575941442e-05 -0.040475790443171525 0
-1.5428484426263906e-05 -0.041055251239166216 0
-1.5715699475845576e-05 -0.041697065620534934 0
-1.5941188547546695e-05 -0.042409683421888701 0
-1.6130741408455615e-05 -0.043209694089956528 0
-1.6273789517270247e-05 -0.044115639002500415 0
-1.6447880656585244e-05 -0.045151075097748405 0
-1.6560708358579662e-05 -0.046345087783402787 0
-1.6703785245862006e-05 -0.047734921228729535 0
-1.6866391870536696e-05 -0.049371964541654177 0
-1.702565647866367e-05 -0.051337428025963923 0
-1.7136414316976889e-05 -0.053758469611784744 0
-1.7289875785384751e-05 -0.05686067866003313 0
-1.7438318979950453e-05 -0.061099966017382261 0
-1.7640397221336573e-05 -0.067978895000802009 0
-4.4581518216504565e-06 -0.036511377464561512 0
-4.7865047824082517e-06 -0.036980987330498725 0
-4.9720796658208237e-06 -0.037344737277376111 0
-5.1498822895049545e-06 -0.037692570937121507 0
-5.3279130666111267e-06 -0.038030799367636252 0
-5.4802828121175324e-06 -0.038377886060820036 0
-5.6687996275495756e-06 -0.038747757259299173 0
-5.6769861100260393e-06 -0.039148811463684569 0
-5.8690379984838142e-06 -0.039588411896062582 0
-5.9544191163160759e-06 -0.040072665575756027 0
-6.0942737600589873e-06 -0.040607352405086145 0
-6.1041091516971348e-06 -0.041200057258283032 0
-6.2385711533593416e-06 -0.041857023419474192 0
-6.4954500944563376e-06 -0.042587848129020014 0
-6.5906830105187241e-06 -0.043409404420917772 0
-6.653189869079171e-06 -0.04434104369307787 0
-6.7576709116508327e-06 -0.045406649850098693 0
-6.8492499707573163e-06 -0.046635376092134452 0
-6.9737710806926165e-06 -0.048065546789877518 0
-7.0998712300071587e-06 -0.049751138953191755 0
-7.2387839754476434e-06 -0.051772662930649992 0
-7.4316971760635599e-06 -0.054258453910688433 0
-7.648024679724046e-06 -0.057433949782380457 0
-7.8748066678717427e-06 -0.061751960207673116 0
-8.1160910905709499e-06 -0.068730197981441435 0
-1.5750238828548153e-06 -0.036548940188435748 0
-1.6765656890244387e-06 -0.037022103984362641 0
-1.762187911381169e-06 -0.037388786271368858 0
-1.899994595529957e-06 -0.037739405683009507 0
-1.9268043148544488e-06 -0.038080706570267568 0
-1.9753859480175167e-06 -0.038430619231318401 0
-2.0558058654700248e-06 -0.038803592804691103 0
-2.1646953336813102e-06 -0.039208530116723914 0
-2.2318674723591906e-06 -0.03965204207762537 0
-2.240426851612968e-06 -0.04014069733631348 0
-2.3869846709881231e-06 -0.040680416869830816 0
-2.3505773164409724e-06 -0.04127831020108684 0
-2.4191652637033587e-06 -0.041941528912182446 0
-2.3857567253617916e-06 -0.042679706640793243 0
-2.344551338454469e-06 -0.043509396353821096 0
-2.5025462974134659e-06 -0.044450432444086911 0
-2.6078379053806134e-06 -0.045526655518473166 0
-2.6656987708383142e-06 -0.046767255918246244 0
-2.7356625277407113e-06 -0.048210760659351384 0
-2.7913885601385865e-06 -0.049911773906781476 0
-2.9024150605432877e-06 -0.05195058587357642 0
-3.0901019895825653e-06 -0.054456160354237837 0
-3.2000606039753131e-06 -0.057653598843035933 0
-3.3304114917173325e-06 -0.061995854146912374 0
-3.4765877138613187e-06 -0.069004854597513945 0
-5.3890643534198191e-07 -0.036568145049068912 0
-5.1463403777684211e-07 -0.037043202612549286 0
-5.4602098490671853e-07 -0.037411338419562054 0
-5.2044518816694876e-07 -0.037763371259477194 0
-5.1228007072834454e-07 -0.038105961407874589 0
-5.5895048536709341e-07 -0.038457311881138739 0
-4.9720711797337952e-07 -0.038831889235255303 0
-4.4204871936955336e-07 -0.039238286714907727 0
-4.698900836069185e-07 -0.039683432231394616 0
-5.4557886298489454e-07 -0.040173790454350301 0
-4.6507810478097331e-07 -0.040715610356723039 0
-4.9008099243480748e-07 -0.041315538766741704 0
-6.4497077916910923e-07 -0.041981082416447255 0
-7.0153244577952096e-07 -0.042721332621613331 0
-7.5708028856554154e-07 -0.043553513359183241 0
-7.6011167734959108e-07 -0.044497751096804428 0
-7.8579952444169806e-07 -0.045578084371949344 0
-8.2649130623590742e-07 -0.046822859707250461 0
-8.9200661439697602e-07 -0.048270916241340986 0
-9.4460273344770105e-07 -0.049976241928548978 0
-9.5528272818112107e-07 -0.052020455708517946 0
-1.1535057493980611e-06 -0.054531900718599265 0
-1.2767820201396327e-06 -0.057736043189854057 0
-1.404739267535405e-06 -0.062085192006776715 0
-1.5147602265344719e-06 -0.069103060632337968 0
-3.2082179608685734e-07 -0.036576909570146615 0
-3.3653714459286762e-07 -0.03705281815866239 0
-3.0944425086136761e-07 -0.037421592891269166 0
-3.0625795637733803e-07 -0.037774230001404743 0
-3.1451909010865746e-07 -0.038117372544538661 0
-3.0004334606538162e-07 -0.038469375798746736 0
-2.8017591742938156e-07 -0.038844525267335957 0
-2.9088946996047465e-07 -0.039251663524636451 0
-3.308492369334453e-07 -0.039697479989125033 0
-3.884117851899008e-07 -0.040188564938986079 0
-3.5742849020350239e-07 -0.040731248047809206 0
-4.1946491080532753e-07 -0.041331904982991649 0
-4.3415512062289813e-07 -0.041998452708256098 0
-4.1287451989813148e-07 -0.042740048335135526 0
-4.9618039820966665e-07 -0.043573849660256861 0
-5.0270276060964913e-07 -0.044519158266155476 0
-4.6822823205306285e-07 -0.045600112874029063 0
-5.4052325426076907e-07 -0.046845683564669692 0
-5.4537344271232296e-07 -0.048295135038068995 0
-5.7405629636367529e-07 -0.050002429882778796 0
-5.7053105781057526e-07 -0.052048222108397817 0
-5.7655288874102974e-07 -0.054561477797270462 0
-6.6704058227896889e-07 -0.057768499496208943 0
-6.8240418727214e-07 -0.062119846663226556 0
-7.5809709510629103e-07 -0.069141278012790935 0
-4.0856731310836548e-07 -0.036580467761529747 0
-4.6692914620717302e-07 -0.03705682271250723 0
-4.9155246105173827e-07 -0.037425921320952266 0
-4.9651915059464491e-07 -0.037778695558706492 0
-5.1130328201040953e-07 -0.03812210065978084 0
-5.5906460123343158e-07 -0.038474295492331063 0
-5.7364535197427368e-07 -0.038849689539101236 0
-5.0102825957920374e-07 -0.039257017452884804 0
-4.3234012969449265e-07 -0.039703178723872704 0
-6.5902658494528246e-07 -0.040194193880062963 0
-5.6535582592034436e-07 -0.040736957850721137 0
-6.8337196335608761e-07 -0.041338061197353712 0
-7.6856228767027531e-07 -0.042004744100750217 0
-7.9840387592451945e-07 -0.042746630495740831 0
-7.4526344639383861e-07 -0.043580526332203315 0
-6.9173050508519107e-07 -0.044526555483425406 0
-7.1088068411749762e-07 -0.045607869722063772 0
-6.752366192967406e-07 -0.046853505457432713 0
-6.8679543498236996e-07 -0.048303386043747926 0
-7.8435759499268934e-07 -0.050011456821416778 0
-7.3353060790504307e-07 -0.052058104801570498 0
-7.1555171174494773e-07 -0.05457234082437621 0
-7.3739525114740274e-07 -0.057779965967111456 0
-7.4884470735982002e-07 -0.062134535114432572 0
-6.4914760719477011e-07 -0.069154601491111772 0
-2.9235100464292292e-07 -0.03658162906989651 0
-2.6588731221191965e-07 -0.037057919138969268 0
-2.9020961607506722e-07 -0.037427001732776854 0
-3.2071407666687013e-07 -0.037779970031046842 0
-3.1563835564055157e-07 -0.03812346366231608 0
-3.0367551685969505e-07 -0.038475653102972823 0
-2.9144839235098274e-07 -0.038851088687499015 0
-4.1225635416115582e-07 -0.039258433329614754 0
-3.9820382850098745e-07 -0.0397044823036522 0
-4.128640303371465e-07 -0.040195599940695256 0
-1.6052454476103595e-07 -0.040738749904803237 0
-2.3351994201588109e-07 -0.041339886878543272 0
-1.7014934870938659e-07 -0.04200642639240592 0
-2.8395442248424307e-07 -0.042748415106518708 0
-4.1326617259355016e-07 -0.043582504824030865 0
-2.6621721916691979e-07 -0.044528113662021071 0
-2.458754301506496e-07 -0.045609213768429968 0
-3.0594832888506142e-07 -0.046855137545679618 0
-2.2843334255822374e-07 -0.048304982213643807 0
-2.8174638213859338e-07 -0.050012887223215209 0
-3.1488332602455783e-07 -0.052059301880131865 0
-2.9212771407839854e-07 -0.054572670892990616 0
-2.5869676954117474e-07 -0.057778136269594917 0
-2.3102146469442864e-07 -0.062133502432196196 0
-1.8337797635226555e-07 -0.069155270765670698 0
3.2497571310271763e-09 -0.036580800472596424 0
1.0165064317455909e-08 -0.037057081816751145 0
4.0645435087390554e-08 -0.037426055953522053 0
2.2860385240616356e-08 -0.037778653492472988 0
-2.7541824803202148e-08 -0.038122048430231641 0
-3.1875332792049166e-08 -0.038474139548253149 0
-3.0892285965522174e-08 -0.038849535075098772 0
-2.6777641333612011e-08 -0.039256889466512998 0
-9.1401343959860514e-08 -0.039702848970785333 0
-4.6551149488472342e-08 -0.040194001290059574 0
-7.0015107260623117e-08 -0.040736669111996943 0
-1.2865639465711795e-07 -0.041337582813069595 0
-2.3689866468233714e-07 -0.042004686949849782 0
-1.4531843042370301e-07 -0.042746517132847842 0
-1.2007813875832797e-07 -0.043580177500535208 0
-5.1765815060969318e-08 -0.044525772310721939 0
-9.1586350651243303e-08 -0.045606580259317596 0
-1.0249311256527167e-07 -0.046852583729174571 0
-8.1355149096481699e-08 -0.048302219456749874 0
-9.7225041262546877e-08 -0.050009926240973772 0
-8.3036132097216214e-08 -0.052055991378035099 0
-9.9132233578427671e-08 -0.054569096121635421 0
-7.8297936141197239e-08 -0.057774083740556856 0
-8.647403413602182e-08 -0.062128818861298847 0
-8.4277551230397165e-08 -0.069150835317463702 0
3.1282515195279392e-07 -0.036576701517032413 0
3.1459605359053597e-07 -0.037052615168288769 0
3.0546218893816923e-07 -0.037421446383652537 0
3.2468905178643793e-07 -0.037773857068285413 0
2.3726948532653236e-07 -0.038116932995084181 0
3.0314336248200512e-07 -0.038468858221389318 0
2.2114502233468298e-07 -0.03884416181397736 0
3.0676714445186572e-07 -0.039251082944729197 0
3.3694041901379365e-07 -0.039696793631185244 0
3.338159816913459e-07 -0.040187683654552338 0
3.7013325164495633e-07 -0.040729939905163021 0
4.1757605138600083e-07 -0.041330727393390332 0
2.9681418833848042e-07 -0.041997633523643808 0
1.6798399830479999e-07 -0.042738926026657152 0
1.8246207210689011e-07 -0.043572282625030129 0
1.9612704395809092e-07 -0.0445174303757176 0
1.8395699762102942e-07 -0.045597716684142475 0
2.2464957831561784e-07 -0.046843289378558667 0
2.213370010323445e-07 -0.048292477649604676 0
2.1928540810999506e-07 -0.049999552179979895 0
2.6374457033150081e-07 -0.052045121212668133 0
2.5718305095425194e-07 -0.054558093030630771 0
2.9515070482595973e-07 -0.05776493049314288 0
2.9418140086982936e-07 -0.062116137887147226 0
2.9949848727605949e-07 -0.069137195509647503 0
4.3512894010320162e-07 -0.036567669549970309 0
4.1259888329041425e-07 -0.037042590997464014 0
4.1262066609806866e-07 -0.037410696265743434 0
4.7095257644069281e-07 -0.037762748923169401 0
4.6226091054513175e-07 -0.038105144039420891 0
5.6344396694158735e-07 -0.038456530990037076 0
5.4099939125857078e-07 -0.038831072967868127 0
5.4340247300055082e-07 -0.039237549949897109 0
5.483857393849688e-07 -0.039682590611657138 0
6.9911733993263686e-07 -0.040172850700329069 0
5.4140714709324393e-07 -0.040714673644314081 0
4.7277581885968592e-07 -0.041314612519803666 0
4.5166497376592684e-07 -0.041980020459909048 0
7.8096679414134317e-07 -0.042720415160161389 0
7.6333404545946657e-07 -0.043552542243728086 0
8.6169941033991371e-07 -0.044496332359020334 0
7.9757805008473283e-07 -0.04557511448076184 0
8.3877650960993417e-07 -0.046819632562726858 0
8.9377970346865082e-07 -0.048267348586610394 0
9.2557935288662299e-07 -0.049972090786303582 0
9.2110155408122621e-07 -0.052015196978485279 0
9.6868165996448084e-07 -0.05452590842473639 0
1.0250325013295674e-06 -0.057734932032309526 0
1.0852753995820097e-06 -0.062082113726495559 0
1.1590548474873104e-06 -0.06909971791982078 0
1.2916569434506694e-06 -0.036548483192665938 0
1.395390898415879e-06 -0.037021551387981806 0
1.4634115582662422e-06 -0.037388187898297995 0
1.5222264024404089e-06 -0.037738814002136425 0
1.5816261212205462e-06 -0.038080098319272032 0
1.5920942181869969e-06 -0.038430076089974737 0
1.6224353239244889e-06 -0.038802935282287364 0
1.7605016031489216e-06 -0.039207785212104614 0
1.7345674301839744e-06 -0.039651365490560593 0
1.7756677785945422e-06 -0.040139872331685478 0
1.7797062649022063e-06 -0.040679771749064716 0
1.8506769854194028e-06 -0.041277556873039155 0
1.888569748637528e-06 -0.041940743516368235 0
1.9402814104514863e-06 -0.042678914215818306 0
2.0035300690872402e-06 -0.043508259809856453 0
2.0228776625864613e-06 -0.0444491156596011 0
2.0514154564615992e-06 -0.045524633883165216 0
2.1384893477707487e-06 -0.046764706784515914 0
2.1545646786784472e-06 -0.048208402566313951 0
2.2079136385710008e-06 -0.049908835470750548 0
2.2483452013300592e-06 -0.051946670931361419 0
2.3548680161804266e-06 -0.054451102576379244 0
2.3823903844669355e-06 -0.057651041637841884 0
2.4463624640928473e-06 -0.061992829148696277 0
2.5892927451304157e-06 -0.069001214724652135 0
4.2630103459265188e-06 -0.036511154762218501 0
4.600967346866538e-06 -0.036980721327576099 0
4.7866161910347089e-06 -0.037344570582408962 0
4.9588361389455059e-06 -0.037692392160071718 0
5.1216364123923056e-06 -0.038030812844486339 0
5.2790935050230033e-06 -0.03837783443530228 0
5.3594525180638561e-06 -0.038747494202141922 0
5.4540670043265187e-06 -0.039148921911464636 0
5.4537037159174697e-06 -0.039588388998828966 0
5.6603421163424204e-06 -0.040072559758583051 0
5.6220425779519662e-06 -0.040607554322463789 0
5.7115306287310182e-06 -0.041199799957445507 0
5.7775633864993872e-06 -0.041856942928989685 0
6.0270167010101868e-06 -0.042587883000374187 0
6.0643388930730177e-06 -0.043409283162880279 0
6.169095337336806e-06 -0.044340835036331509 0
6.2813109453415056e-06 -0.045405940971587282 0
6.3925967773285692e-06 -0.046634272325155823 0
6.5212932907508038e-06 -0.048064533609345164 0
6.6594363395710289e-06 -0.049749916822951955 0
6.8069487415747446e-06 -0.051771029965843519 0
6.9769541109163101e-06 -0.054256352818407558 0
7.1762489775335877e-06 -0.057432017954310105 0
7.3997792923781872e-06 -0.061748823618940483 0
7.7170249638230865e-06 -0.068726187614169862 0
1.1581786315920385e-05 -0.036440382937968481 0
1.2376164992664276e-05 -0.036905401376109176 0
1.2923088318753915e-05 -0.037265137526275596 0
1.3365365465111194e-05 -0.037608634950407012 0
1.3723093845733633e-05 -0.037942410447918976 0
1.4088562117733355e-05 -0.038284643586513817 0
1.4386561415442968e-05 -0.038648999235786276 0
1.467476811158194e-05 -0.039044222798226641 0
1.4813063558162702e-05 -0.039476487422258753 0
1.5041351151385034e-05 -0.039951796991365432 0
1.5189443821362701e-05 -0.040476083876438362 0
1.5317442078549361e-05 -0.041055651676303505 0
1.5510531139293211e-05 -0.041697535532785726 0
1.579651457327951e-05 -0.042410452340521251 0
1.6045368454169322e-05 -0.043210438503872933 0
1.6222638366728532e-05 -0.044116781619519721 0
1.6430452302670161e-05 -0.045152196085514171 0
1.6513022574266725e-05 -0.046345617003602096 0
1.6693322783144066e-05 -0.047734893915266224 0
1.6878947233844228e-05 -0.049373142355723591 0
1.7025065279353551e-05 -0.05133858195681211 0
1.7216256316269691e-05 -0.05375882146210309 0
1.7473085994297532e-05 -0.056860797995174656 0
1.7651501756286213e-05 -0.061099838554750971 0
1.7825074968688778e-05 -0.067978346181652258 0
1.9707922765784837e-05 -0.036265330005469422 0
2.0731867712677876e-05 -0.036691981329443568 0
2.1463782591806562e-05 -0.037022516952456619 0
2.2117727052181147e-05 -0.037343472727717965 0
2.2705760206230367e-05 -0.037662243375622954 0
2.3246230166916045e-05 -0.037994044965041794 0
2.3751544738099609e-05 -0.038349549861241124 0
2.4213267111900114e-05 -0.038735288638103098 0
2.4663843087942301e-05 -0.039156716914596365 0
2.5067042094617579e-05 -0.039619568983257178 0
2.5435800786668776e-05 -0.040129721737365134 0
2.5730042755836106e-05 -0.04069337559773293 0
2.5967893154394875e-05 -0.041317255882788152 0
2.6160585298443721e-05 -0.042009236738499038 0
2.6348056294899761e-05 -0.042785029132569631 0
2.6476435186826817e-05 -0.043664012516395304 0
2.6590128881181133e-05 -0.04466899428509772 0
2.6728671271468159e-05 -0.045827686644676749 0
2.6853732846336846e-05 -0.047179649217809178 0
2.7056714820381055e-05 -0.048776035397927936 0
2.7289478523939538e-05 -0.0506977543013582 0
2.7581202395544554e-05 -0.053074505378211928 0
2.7947374786009317e-05 -0.056128791201285028 0
2.8430251387720459e-05 -0.060299047974899378 0
2.9149330398435456e-05 -0.066891605413228403 0
-0 -0 0
-0 -0 0
-0 -0 0
-0 -0 0
-0 -0 0
-0 -0 0
1.9763245906075122e-05 0.035446161701643546 0
2.2844494600207717e-05 0.03796949008861656 0
2.6000598141395268e-05 0.043337742054758037 0
-0 -0 0
-0 -0 0
-0 -0 0
2.1326136365231815e-05 0.037043064766164438 0
2.3088121445333495e-05 0.038697055156802974 0
2.5482863564011228e-05 0.043597965527274345 0
-0 -0 0
-0 -0 0
-0 -0 0
1.6719288843637499e-05 0.037163114122598102 0
1.8459443900598429e-05 0.038829917343885426 0
2.0516922974990298e-05 0.043752653347026452 0
-0 -0 0
-0 -0 0
-0 -0 0
8.7499157124148243e-06 0.037298929944881778 0
9.7475177108530015e-06 0.038985495344060851 0
1.1023249056276673e-05 0.043990060651998911 0
-0 -0 0
-0 -0 0
-0 -0 0
3.3605654991209537e-06 0.037359265142999004 0
3.8550031929013329e-06 0.03906423778024732 0
4.5307412397490159e-06 0.044131072005989612 0
-0 -0 0
-0 -0 0
-0 -0 0
1.3181468221201378e-06 0.037392042208663406 0
1.5244008146644787e-06 0.03910593153661493 0
1.8324930472297589e-06 0.044198357035256472 0
-0 -0 0
-0 -0 0
-0 -0 0
5.4001602039540028e-07 0.037408351905522864 0
6.0276389832353322e-07 0.039126212166064489 0
7.4433780237269484e-07 0.044228116336593196 0
-0 -0 0
-0 -0 0
-0 -0 0
4.1418381237298178e-07 0.037415527494295567 0
4.7616865906423973e-07 0.039135033031510301 0
5.8361259027187708e-07 0.044240405912337841 0
-0 -0 0
-0 -0 0
-0 -0 0
4.1723453129855472e-07 0.037418242569335021 0
4.6609900850390474e-07 0.039138222750554015 0
5.2103855281570771e-07 0.044244464723106794 0
-0 -0 0
-0 -0 0
-0 -0 0
1.521553443665047e-07 0.037418365746771036 0
1.7482197153378225e-07 0.039138187017127117 0
2.0093517324672559e-07 0.04424418325770043 0
-0 -0 0
-0 -0 0
-0 -0 0
-1.6353760929739586e-07 0.037415570191530807 0
-1.3956721831653732e-07 0.039134734445275182 0
-1.0293152240472089e-07 0.044239460753431097 0
-0 -0 0
-0 -0 0
-0 -0 0
-3.8139838771974204e-07 0.037408091756415775 0
-4.079188757964436e-07 0.039125692868920724 0
-4.8951563095582595e-07 0.044226711526701344 0
-0 -0 0
-0 -0 0
-0 -0 0
-9.9514584002209386e-07 0.03739188445743858 0
-1.1856638254816224e-06 0.0391055481052828 0
-1.4962965745711436e-06 0.044196991597141348 0
-0 -0 0
-0 -0 0
-0 -0 0
-3.1610842857500377e-06 0.037359292267448545 0
-3.6323624016436197e-06 0.039064052434548011 0
-4.2431146521837912e-06 0.044130233179471831 0
-0 -0 0
-0 -0 0
-0 -0 0
-8.7069357102217106e-06 0.037298936292602392 0
-9.6599499853769271e-06 0.03898544170790208 0
-1.083769270834459e-05 0.043989949434719157 0
-0 -0 0
-0 -0 0
-0 -0 0
-1.6657605606384312e-05 0.03716318368983592 0
-1.8354204926081069e-05 0.038830042572898758 0
-2.0358637403549488e-05 0.043752964012470773 0
-0 -0 0
-0 -0 0
-0 -0 0
-2.1226870135991204e-05 0.03704318586613 0
-2.2958322579811291e-05 0.038697224777378705 0
-2.5327199592671824e-05 0.043598435725429298 0
-0 -0 0
-0 -0 0
-0 -0 0
-1.968455354617117e-05 0.035446022854138517 0
-2.2718284992118492e-05 0.037969489810670047 0
-2.5844560695371299e-05 0.043338288138271015 0
-0 -0 0
-0 -0 0
-0 -0 0
-0 -0 0
-0 -0 0
-0 -0 0
-0 -0 0
-0 -0 0
-0 -0 0
-0 -0 0
-0 -0 0
-0 -0 0
-0 -0 0
-0 -0 0
-0 -0 0
-0 -0 0
-0 -0 0
-0 -0 0
-0 -0 0
-0 -0 0
-0 -0 0
-0 -0 0
-0 -0 0
-0 -0 0
-0 -0 0
-0 -0 0
-0 -0 0
-0 -0 0
-0 -0 0
-0 -0 0
-0 -0 0
-0 -0 0
-0 -0 0
-0 -0 0
-0 -0 0
-0 -0 0
-0 -0 0
-0 -0 0
-0 -0 0
-0 -0 0
-0 -0 0
-0 -0 0
-0 -0 0
-0 -0 0
-0 -0 0
-0 -0 0
-0 -0 0
-0 -0 0
-0 -0 0
-0 -0 0
-0 -0 0
-0 -0 0
-0 -0 0
-0 -0 0
-0 -0 0
-0 -0 0
-0 -0 0
-0 -0 0
-0 -0 0
-0 -0 0
-0 -0 0
-0 -0 0
-0 -0 0
-0 -0 0
-0 -0 0
-0 -0 0
-0 -0 0
-0 -0 0
-0 -0 0
-0 -0 0
-0 -0 0
-0 -0 0
-0 -0 0
-0 -0 0
-0 -0 0
-0 -0 0
-0 -0 0
-0 -0 0
-0 -0 0
-0 -0 0
-0 -0 0
-0 -0 0
-0 -0 0
-0 -0 0
-0 -0 0
-0 -0 0
-0 -0 0
-0 -0 0
-0 -0 0
-0 -0 0
-0 -0 0
-0 -0 0
-0 -0 0
-0 -0 0
-0 -0 0
-0 -0 0
-0 -0 0
-0 -0 0
-0 -0 0
-0 -0 0
-0 -0 0
-0 -0 0
-0 -0 0
-0 -0 0
-0 -0 0
-0 -0 0
-0 -0 0
-0 -0 0
-0 -0 0
-0 -0 0
-0 -0 0
-0 -0 0
-0 -0 0
-0 -0 0
-0 -0 0
-0 -0 0
-0 -0 0
-0 -0 0
-0 -0 0
-0 -0 0
-0 -0 0
-0 -0 0
-0 -0 0
-0 -0 0
-0 -0 0
-0 -0 0
-0 -0 0
-0 -0 0
-0 -0 0
-0 -0 0
-0 -0 0
-0 -0 0
-0 -0 0
-0 -0 0
-0 -0 0
-0 -0 0
-0 -0 0
-0 -0 0
-0 -0 0
-0 -0 0
-0 -0 0
-0 -0 0
-0 -0 0
-0 -0 0
-0 -0 0
-0 -0 0
-0 -0 0
-0 -0 0
-0 -0 0
-0 -0 0
-0 -0 0
-0 -0 0
-0 -0 0
-0 -0 0
-0 -0 0
-0 -0 0
-0 -0 0
-0 -0 0
-0 -0 0
-0 -0 0
-0 -0 0
-0 -0 0
-0 -0 0
-0 -0 0
-0 -0 0
-0 -0 0
-0 -0 0
-0 -0 0
-0 -0 0
-0 -0 0
-0 -0 0
-0 -0 0
-0 -0 0
-0 -0 0
-0 -0 0
-0 -0 0
-0 -0 0
-0 -0 0
-0 -0 0
-0 -0 0
-0 -0 0
-0 -0 0
-0 -0 0
-0 -0 0
-0 -0 0
-0 -0 0
-0 -0 0
-0 -0 0
-0 -0 0
-0 -0 0
-0 -0 0
-0 -0 0
-0 -0 0
-0 -0 0
-0 -0 0
