# vtk DataFile Version 3.0
SPH particles (WCSPH) - legacy PolyData
ASCII
DATASET POLYDATA
POINTS 681 float
0.049993844752967538 0.028750588867887478 0
0.049992781388044014 0.031608964048189303 0
0.049991937688910977 0.033888187115354809 0
0.049991139159755123 0.036184223058513133 0
0.049990442642104969 0.038481257092187755 0
0.049989834408826081 0.040780809213444166 0
0.049989313453424847 0.04309602962540178 0
0.049988694692453144 0.045446874819698051 0
0.049987876044412724 0.047858288666721781 0
0.049986679092870093 0.050360390516123746 0
0.049984687683114579 0.052990011082688089 0
0.049982214303734639 0.055793934760296232 0
0.049981218417623582 0.058834128335153196 0
0.049982539749739402 0.062196401829029552 0
0.049985100120402789 0.066009046278223321 0
0.049988253302488544 0.070496660530656105 0
0.049991547669631653 0.076180765798647257 0
0.049994946517523058 0.084888818923897658 0
0.049998005841980608 0.10004690641737989 0
0.049999563763749609 0.11996365605110788 0
0.049999951283500266 0.14132144730470453 0
0.049999995273211778 0.16371231431299768 0
0.049999999601585736 0.18762096837157341 0
0.049999999975493127 0.21423605873207807 0
0.050000000000000003 0.26569299512476979 0
0.069996911444283313 0.027374179205772342 0
0.069996312285263124 0.030555015212754062 0
0.06999579991711366 0.033130124310974486 0
0.069995335957466695 0.035662552720252982 0
0.069994917525434686 0.038153994044009466 0
0.069994493633838625 0.040619397159288015 0
0.069994070076815476 0.043081628118902607 0
0.069993622573039496 0.045567831840465367 0
0.069993099410142062 0.04810810289474262 0
0.069992277254595142 0.050736547682849333 0
0.069990699459193131 0.053493091578331535 0
0.069988163610316428 0.056427468797032428 0
0.069986638067041196 0.059604270194096767 0
0.069987029822834071 0.06311198823074067 0
0.069988712040764595 0.067082900669516207 0
0.069991039387460971 0.071739331406552045 0
0.069993492751738939 0.077547993281897917 0
0.069995995347113468 0.085980793376335171 0
0.069998227794001902 0.10039588528503135 0
0.069999588967206927 0.12007103957789854 0
0.069999951977218047 0.14145084812580766 0
0.069999995139827645 0.16391832503755652 0
0.06999999957022536 0.18791588042970947 0
0.069999999972315444 0.2145605075108781 0
0.070000000000000007 0.26479546479851684 0
0.08999881073031725 0.027337436914107002 0
0.089998545596056412 0.030526779949199199 0
0.08999836740000916 0.03311066435377464 0
0.089998124643251021 0.035656171896973093 0
0.089997878909980872 0.038163993190896535 0
0.089997700982344164 0.040648434525406077 0
0.089997306515250397 0.04313242937362835 0
0.089997132043172001 0.045643138268849547 0
0.089996900720431885 0.048211019600500532 0
0.089996625458008558 0.05087055373281945 0
0.089996325508086381 0.053662144310875771 0
0.089995668028631196 0.056636027056574029 0
0.089994878360940944 0.05985695103542741 0
0.089994659222317516 0.063412920104549172 0
0.089995274503074874 0.067435664902095654 0
0.089996264389506503 0.072147859164803485 0
0.089997387517097238 0.078006164711506593 0
0.089998465860074039 0.086380659166661641 0
0.08999935839643812 0.10055816786863506 0
0.089999832700042734 0.12014546418704636 0
0.089999971711018159 0.14155323377092657 0
0.089999996586949474 0.16407457383019292 0
0.089999999668919431 0.18812592562803154 0
0.089999999977191034 0.21478971552183579 0
0.090000000000000011 0.2643065172432898 0
0.1099996428569715 0.027360762160272341 0
0.10999949116193179 0.030552734731709285 0
0.10999939497776927 0.033139268097543507 0
0.10999927366929818 0.035688000749167469 0
0.10999913140233078 0.038199625163887703 0
0.10999916907122045 0.040688568871682602 0
0.10999922622596792 0.043177731757613344 0
0.10999912385281223 0.045694381565172137 0
0.10999908313550438 0.048269013038476062 0
0.10999902852480664 0.050936364098874039 0
0.10999887715493638 0.053737020473567425 0
0.10999915276282854 0.056721479939972168 0
0.10999861600501457 0.059954515078471493 0
0.10999821910266284 0.063524129690162065 0
0.10999831465590061 0.067561800813769418 0
0.10999864418747086 0.072289607828423794 0
0.10999901413433608 0.078163972357233144 0
0.10999945683575398 0.08652535971330462 0
0.1099997737049572 0.10063218951978907 0
0.10999993579419753 0.12019365024956806 0
0.1099999873256688 0.1416202304851682 0
0.10999999815924985 0.16417105246813885 0
0.10999999979776177 0.188250140540375 0
0.10999999998479663 0.21493061586822429 0
0.11000000000000001 0.26402006990285926 0
0.12999994562790079 0.027373402015377916 0
0.12999993215807659 0.030567426118671526 0
0.12999992457248041 0.033155574740642756 0
0.12999992336547919 0.035705941964786853 0
0.12999998513186781 0.038219255570165783 0
0.13000004549198238 0.040709923329844667 0
0.13000011368502662 0.043201052900672353 0
0.13000016232504161 0.045719734060710678 0
0.13000024054321876 0.048296671742988004 0
0.1300003696040726 0.050966619463712212 0
0.13000045904384833 0.0537702283897128 0
0.13000033849590337 0.056758038265891125 0
0.13000006763075037 0.059995064031556564 0
0.12999983265318241 0.063568939369765709 0
0.12999965399197966 0.067611239974882928 0
0.12999959127815824 0.072343679829968532 0
0.12999969917866325 0.078221389173339151 0
0.1299998342278321 0.086578499645814516 0
0.12999992893976223 0.100666000338443 0
0.1299999773757696 0.12022253364104891 0
0.12999999505583679 0.14166026265371301 0
0.12999999917527988 0.1642269935251531 0
0.12999999989709218 0.1883206412019873 0
0.12999999999146966 0.21501091167012756 0
0.13 0.26386723148278485 0
0.1500001312013983 0.027378803766816454 0
0.15000015895883281 0.030573818936267205 0
0.15000019724941235 0.033162747692887087 0
0.15000024460139716 0.035713894597635666 0
0.15000040663243236 0.038227974383725855 0
0.15000044625398024 0.040719396863881929 0
0.15000044230086781 0.043211280004616923 0
0.15000045919056371 0.045730825795358622 0
0.15000051213011203 0.048308679031892336 0
0.15000059024286974 0.05097962472929108 0
0.15000067323630858 0.053784379015814329 0
0.15000055005540316 0.056773399869770994 0
0.15000051110209262 0.060011872160102897 0
0.15000034400053178 0.063587322140846919 0
0.15000014861617197 0.067631196864674364 0
0.15000000483549394 0.072365196513547128 0
0.14999995964441865 0.078243978525466815 0
0.14999996871714788 0.086599592812169099 0
0.14999998435277526 0.10068161858634195 0
0.14999999421105042 0.12023861238988878 0
0.14999999841527253 0.1416825405177834 0
0.14999999968758695 0.16425730690320117 0
0.14999999995561067 0.18835814792099942 0
0.14999999999593619 0.21505314441714327 0
0.15000000000000002 0.26379325483009336 0
0.17000021135223969 0.027381007649660009 0
0.17000027140650747 0.030576416582820547 0
0.17000030518239975 0.03316567033951287 0
0.17000039278696374 0.035717087575764868 0
0.17000046581128661 0.03823139837786213 0
0.17000058874674617 0.040723141909721011 0
0.17000077067258995 0.043215398154341132 0
0.17000082152173671 0.045735258467052425 0
0.17000085966803949 0.048313467471588087 0
0.17000089840751317 0.050984789088298496 0
0.17000090381886065 0.053789975874879242 0
0.17000080266048181 0.05677950498934517 0
0.17000078863580753 0.060018527028242126 0
0.17000075955081256 0.06359444414335956 0
0.17000030893096282 0.067638948338232488 0
0.17000017047055035 0.072373539957203067 0
0.17000007192185479 0.078252733332385471 0
0.17000002952059676 0.086607932379370936 0
0.17000001488309255 0.1006884981323285 0
0.17000000235008658 0.12024649120282187 0
0.16999999991076284 0.1416934650518015 0
0.169999999921539 0.16427183888982497 0
0.16999999998552193 0.18837584653024472 0
0.16999999999852086 0.21507278257930118 0
0.17000000000000004 0.26376177171476162 0
0.19000012477068989 0.02738163251859578 0
0.19000014788050801 0.03057711506312286 0
0.19000024215398492 0.033166479462347673 0
0.19000027057372634 0.035717941651700738 0
0.19000035799462103 0.038232320596839758 0
0.19000053281662016 0.040724204487167751 0
0.19000069379293377 0.043216471381082255 0
0.19000066226872062 0.04573635977587099 0
0.19000070745591702 0.048314651319300066 0
0.19000073904459194 0.050986113625581912 0
0.19000059330708141 0.053791407121670187 0
0.19000066239699118 0.05678117019588521 0
0.19000041706393792 0.06002029664848936 0
0.19000032453627244 0.063596444219722909 0
0.19000026583410304 0.067641076826570445 0
0.19000008608336535 0.07237578766068864 0
0.19000005320164268 0.078255100838717395 0
0.19000004952617428 0.086610181716305787 0
0.19000001806710001 0.10069042983478101 0
0.19000000759535737 0.12024882174246064 0
0.19000000051169647 0.14169670625811834 0
0.19000000003052697 0.16427609575326521 0
0.19000000000183023 0.18838098131543124 0
0.19000000000011938 0.21507842416666564 0
0.19 0.26375327760806994 0
0.21000020574447145 0.027381032226757161 0
0.21000026606982239 0.030576422938534652 0
0.21000031260496577 0.03316567451315304 0
0.21000036311875639 0.035717117359336546 0
0.21000045465925365 0.03823146226089371 0
0.21000046735563921 0.040723217548953174 0
0.21000054296874643 0.04321545316080249 0
0.21000056034193829 0.045735326622400339 0
0.2100006049890715 0.048313552520703781 0
0.21000061669929615 0.05098492057068079 0
0.21000057975002373 0.053790128882157041 0
0.21000052958611651 0.056779687692895348 0
0.21000037132273638 0.06001866775085176 0
0.21000020676558084 0.063594630430517551 0
0.21000017912125249 0.067639139861961961 0
0.21000007163462994 0.072373682604028475 0
0.21000002148137661 0.07825288195154452 0
0.21000005999024202 0.086607999693371795 0
0.20999998341410581 0.10068849292226374 0
0.2099999994996222 0.12024648743369883 0
0.21000000058237314 0.14169346442583 0
0.21000000012257794 0.16427183881188753 0
0.21000000001777158 0.18837584652238198 0
0.21000000000171326 0.21507278257872051 0
0.21000000000000002 0.26376177171476162 0
0.23000026590805131 0.027378874907049443 0
0.23000031597694282 0.030573885328728588 0
0.23000037652391986 0.033162845113555432 0
0.23000044118073792 0.03571393275425893 0
0.23000053978797974 0.0382280454376204 0
0.23000061478206119 0.040719477667703376 0
0.23000069004266216 0.043211384218131609 0
0.23000071556848861 0.045730917549623877 0
0.23000080000990528 0.04830878230997919 0
0.23000085768233 0.050979733871058794 0
0.23000085747424995 0.053784512033400317 0
0.23000069757807554 0.056773630669221774 0
0.23000055295656385 0.060012114861760876 0
0.23000043844771553 0.063587491860477463 0
0.23000040361680316 0.067631365044784203 0
0.23000030670011065 0.072365354762892312 0
0.23000018266786454 0.078244157802340425 0
0.23000006921982266 0.086599715619453371 0
0.23000002853721591 0.10068163541077431 0
0.23000000778203275 0.12023860725522362 0
0.23000000182918812 0.14168253956047011 0
0.23000000034261475 0.16425730677522327 0
0.23000000004730853 0.18835814790698885 0
0.23000000000428414 0.21505314441605372 0
0.23000000000000004 0.26379325483009342 0
0.25000034698812518 0.027373417581028812 0
0.25000043354052398 0.030567447066210639 0
0.25000049300578286 0.033155646567457314 0
0.25000059725695378 0.035706056945100061 0
0.25000068152774824 0.038219367586029368 0
0.25000076822016049 0.040710057924057061 0
0.25000078942550308 0.043201194718388208 0
0.2500009147417101 0.045719889217371676 0
0.25000098997695852 0.04829683013858932 0
0.25000108949913857 0.050966765833575622 0
0.25000112875814212 0.053770405768082445 0
0.2500010390190367 0.056758227810025895 0
0.25000087697026835 0.059995340338492922 0
0.25000099927844588 0.063569102856654111 0
0.25000084409222917 0.067611412868978177 0
0.25000071415580966 0.072343873021618141 0
0.25000049817704445 0.078221598609316698 0
0.25000025400714493 0.086578607885601302 0
0.25000009172239152 0.10066601499760484 0
0.25000002490127987 0.12022253058870072 0
0.25000000526758082 0.14166026162258952 0
0.25000000085870067 0.16422699336084123 0
0.25000000010575119 0.18832064118287209 0
0.25000000000871364 0.21501091166860464 0
0.25000000000000006 0.26386723148278485 0
0.27000051594181623 0.027360782398094766 0
0.27000064672672164 0.030552765357097077 0
0.27000075164355625 0.033139323276423202 0
0.27000086913498061 0.035688077280132513 0
0.27000112665221759 0.038199795467865325 0
0.2700012567288046 0.040688726274865486 0
0.27000137274220992 0.043177982433164785 0
0.27000152208817568 0.045694592853783071 0
0.27000170603852425 0.048269213003962419 0
0.27000187185924035 0.050936544054049362 0
0.27000203263276379 0.053737197955703683 0
0.27000207012421845 0.056721602396742031 0
0.2700024146723356 0.05995473928436923 0
0.27000230670795727 0.063524325563080575 0
0.27000206531297966 0.06756199235057489 0
0.27000163986973424 0.072289840155829746 0
0.27000113338020643 0.078164198445430766 0
0.27000062874585518 0.086525484563202637 0
0.27000024827741942 0.1006322013874099 0
0.27000006839070101 0.12019364500041949 0
0.2700000131806875 0.14162022890046574 0
0.27000000187919659 0.1641710522367413 0
0.27000000020443327 0.18825014051549244 0
0.27000000001529373 0.21493061586633291 0
0.27000000000000002 0.26402006990285926 0
0.29000125337381172 0.027337507847376923 0
0.29000153516043498 0.030526831746981283 0
0.29000175783186655 0.033110741559690342 0
0.29000198382947784 0.035656265967482094 0
0.29000221555660877 0.038164055808555218 0
0.29000249719679616 0.040648530588409386 0
0.29000275558072269 0.043132680826945484 0
0.29000306551959254 0.045643444146860397 0
0.29000342416543817 0.048211317112080786 0
0.29000384939086066 0.050870846921467372 0
0.29000434018196075 0.053662435101842328 0
0.29000488320210105 0.056636277238963556 0
0.29000544580686588 0.059857209390013329 0
0.29000550679043052 0.063413140403250606 0
0.29000490256156863 0.067435837628446432 0
0.29000393699011273 0.072148018366750333 0
0.29000278918537287 0.078006336736226395 0
0.29000164665089995 0.086380745449046725 0
0.29000069147158553 0.10055813396520731 0
0.29000017682565515 0.12014544385376098 0
0.29000002881483822 0.14155323071875578 0
0.29000000343339105 0.16407457349643909 0
0.29000000033113882 0.18812592559732685 0
0.29000000002274201 0.21478971551969925 0
0.29000000000000004 0.26430651724328974 0
0.31000324795657525 0.02737427592032067 0
0.31000386859053314 0.030555140438286148 0
0.31000432793549587 0.033130224543534662 0
0.31000477017692013 0.035662748265470383 0
0.31000520197286713 0.038154179296441749 0
0.31000565697849991 0.040619532606449266 0
0.3100061168504224 0.043081859320487317 0
0.31000657297023737 0.045568054428902952 0
0.31000715342826801 0.04810827984265173 0
0.31000796925932383 0.050736692056007511 0
0.31000963265259018 0.053493217809039997 0
0.31001217579830204 0.056427609215944703 0
0.3100135549836755 0.059604482381318116 0
0.31001298597666532 0.063112172640594863 0
0.31001135812553293 0.067083023337658296 0
0.3100091346042495 0.071739431099419687 0
0.3100066423427712 0.077548045104839189 0
0.31000410236283921 0.085980704922235598 0
0.31000179817630935 0.10039574295727997 0
0.31000041108635706 0.12007099693784572 0
0.31000004783144325 0.14145084357296289 0
0.31000000483177653 0.16391832463831996 0
0.31000000042674369 0.18791588039689577 0
0.31000000002745615 0.21456050750876093 0
0.31000000000000005 0.26479546479851684 0
0.33000595675884792 0.028750853950240383 0
0.33000697267514773 0.031609219377784686 0
0.33000777028251993 0.033888427733628254 0
0.33000850741872034 0.036184443872629556 0
0.33000914796754471 0.038481438923604214 0
0.33000971714869459 0.040780942774798615 0
0.3300102598749261 0.043096123876890845 0
0.33001085511299311 0.045446930821522277 0
0.33001153726495241 0.047858297503269857 0
0.33001255949090219 0.050360358778877186 0
0.33001443174888806 0.052989928447665896 0
0.33001690745382189 0.055793830389756757 0
0.3300178397953899 0.058834004980426756 0
0.33001649529163674 0.06219621768591041 0
0.3300140948688437 0.066008800068764154 0
0.330011138333486 0.070496335487078648 0
0.33000793892747837 0.076180364243979656 0
0.33000473911501299 0.084888364677358288 0
0.33000192720332155 0.10004668908091033 0
0.33000042534064089 0.11996361740195709 0
0.33000004791560517 0.14132144348924147 0
0.33000000466784601 0.16371231397707645 0
0.33000000039402128 0.18762096834479217 0
0.33000000002423541 0.21423605873041038 0
0.33000000000000002 0.26569299512476968 0
0 0 0
0 0.020000000000000004 0
0 0.040000000000000001 0
0 0.54999999999999993 0
0 0.56000000000000005 0
0 0.58000000000000007 0
0.02 0 0
0.02 0.020000000000000004 0
0.02 0.040000000000000001 0
0.02 0.54999999999999993 0
0.02 0.56000000000000005 0
0.02 0.58000000000000007 0
0.040000000000000001 0 0
0.040000000000000001 0.020000000000000004 0
0.040000000000000001 0.040000000000000001 0
0.040000000000000001 0.54999999999999993 0
0.040000000000000001 0.56000000000000005 0
0.040000000000000001 0.58000000000000007 0
0.059999999999999998 0 0
0.059999999999999998 0.020000000000000004 0
0.059999999999999998 0.040000000000000001 0
0.059999999999999998 0.54999999999999993 0
0.059999999999999998 0.56000000000000005 0
0.059999999999999998 0.58000000000000007 0
0.080000000000000002 0 0
0.080000000000000002 0.020000000000000004 0
0.080000000000000002 0.040000000000000001 0
0.080000000000000002 0.54999999999999993 0
0.080000000000000002 0.56000000000000005 0
0.080000000000000002 0.58000000000000007 0
0.10000000000000001 0 0
0.10000000000000001 0.020000000000000004 0
0.10000000000000001 0.040000000000000001 0
0.10000000000000001 0.54999999999999993 0
0.10000000000000001 0.56000000000000005 0
0.10000000000000001 0.58000000000000007 0
0.12 0 0
0.12 0.020000000000000004 0
0.12 0.040000000000000001 0
0.12 0.54999999999999993 0
0.12 0.56000000000000005 0
0.12 0.58000000000000007 0
0.14000000000000001 0 0
0.14000000000000001 0.020000000000000004 0
0.14000000000000001 0.040000000000000001 0
0.14000000000000001 0.54999999999999993 0
0.14000000000000001 0.56000000000000005 0
0.14000000000000001 0.58000000000000007 0
0.16 0 0
0.16 0.020000000000000004 0
0.16 0.040000000000000001 0
0.16 0.54999999999999993 0
0.16 0.56000000000000005 0
0.16 0.58000000000000007 0
0.17999999999999999 0 0
0.17999999999999999 0.020000000000000004 0
0.17999999999999999 0.040000000000000001 0
0.17999999999999999 0.54999999999999993 0
0.17999999999999999 0.56000000000000005 0
0.17999999999999999 0.58000000000000007 0
0.20000000000000001 0 0
0.20000000000000001 0.020000000000000004 0
0.20000000000000001 0.040000000000000001 0
0.20000000000000001 0.54999999999999993 0
0.20000000000000001 0.56000000000000005 0
0.20000000000000001 0.58000000000000007 0
0.22 0 0
0.22 0.020000000000000004 0
0.22 0.040000000000000001 0
0.22 0.54999999999999993 0
0.22 0.56000000000000005 0
0.22 0.58000000000000007 0
0.23999999999999999 0 0
0.23999999999999999 0.020000000000000004 0
0.23999999999999999 0.040000000000000001 0
0.23999999999999999 0.54999999999999993 0
0.23999999999999999 0.56000000000000005 0
0.23999999999999999 0.58000000000000007 0
0.26000000000000001 0 0
0.26000000000000001 0.020000000000000004 0
0.26000000000000001 0.040000000000000001 0
0.26000000000000001 0.54999999999999993 0
0.26000000000000001 0.56000000000000005 0
0.26000000000000001 0.58000000000000007 0
0.28000000000000003 0 0
0.28000000000000003 0.020000000000000004 0
0.28000000000000003 0.040000000000000001 0
0.28000000000000003 0.54999999999999993 0
0.28000000000000003 0.56000000000000005 0
0.28000000000000003 0.58000000000000007 0
0.29999999999999999 0 0
0.29999999999999999 0.020000000000000004 0
0.29999999999999999 0.040000000000000001 0
0.29999999999999999 0.54999999999999993 0
0.29999999999999999 0.56000000000000005 0
0.29999999999999999 0.58000000000000007 0
0.32000000000000001 0 0
0.32000000000000001 0.020000000000000004 0
0.32000000000000001 0.040000000000000001 0
0.32000000000000001 0.54999999999999993 0
0.32000000000000001 0.56000000000000005 0
0.32000000000000001 0.58000000000000007 0
0.34000000000000002 0 0
0.34000000000000002 0.020000000000000004 0
0.34000000000000002 0.040000000000000001 0
0.34000000000000002 0.54999999999999993 0
0.34000000000000002 0.56000000000000005 0
0.34000000000000002 0.58000000000000007 0
0.35999999999999999 0 0
0.35999999999999999 0.020000000000000004 0
0.35999999999999999 0.040000000000000001 0
0.35999999999999999 0.54999999999999993 0
0.35999999999999999 0.56000000000000005 0
0.35999999999999999 0.58000000000000007 0
0.38 0 0
0.38 0.020000000000000004 0
0.38 0.040000000000000001 0
0.38 0.54999999999999993 0
0.38 0.56000000000000005 0
0.38 0.58000000000000007 0
0.40000000000000002 0 0
0.40000000000000002 0.020000000000000004 0
0.40000000000000002 0.040000000000000001 0
0.40000000000000002 0.54999999999999993 0
0.40000000000000002 0.56000000000000005 0
0.40000000000000002 0.58000000000000007 0
0.41999999999999998 0 0
0.41999999999999998 0.020000000000000004 0
0.41999999999999998 0.040000000000000001 0
0.41999999999999998 0.54999999999999993 0
0.41999999999999998 0.56000000000000005 0
0.41999999999999998 0.58000000000000007 0
0.44 0 0
0.44 0.020000000000000004 0
0.44 0.040000000000000001 0
0.44 0.54999999999999993 0
0.44 0.56000000000000005 0
0.44 0.58000000000000007 0
0.46000000000000002 0 0
0.46000000000000002 0.020000000000000004 0
0.46000000000000002 0.040000000000000001 0
0.46000000000000002 0.54999999999999993 0
0.46000000000000002 0.56000000000000005 0
0.46000000000000002 0.58000000000000007 0
0.47999999999999998 0 0
0.47999999999999998 0.020000000000000004 0
0.47999999999999998 0.040000000000000001 0
0.47999999999999998 0.54999999999999993 0
0.47999999999999998 0.56000000000000005 0
0.47999999999999998 0.58000000000000007 0
0.5 0 0
0.5 0.020000000000000004 0
0.5 0.040000000000000001 0
0.5 0.54999999999999993 0
0.5 0.56000000000000005 0
0.5 0.58000000000000007 0
0.52000000000000002 0 0
0.52000000000000002 0.020000000000000004 0
0.52000000000000002 0.040000000000000001 0
0.52000000000000002 0.54999999999999993 0
0.52000000000000002 0.56000000000000005 0
0.52000000000000002 0.58000000000000007 0
0.54000000000000004 0 0
0.54000000000000004 0.020000000000000004 0
0.54000000000000004 0.040000000000000001 0
0.54000000000000004 0.54999999999999993 0
0.54000000000000004 0.56000000000000005 0
0.54000000000000004 0.58000000000000007 0
0.56000000000000005 0 0
0.56000000000000005 0.020000000000000004 0
0.56000000000000005 0.040000000000000001 0
0.56000000000000005 0.54999999999999993 0
0.56000000000000005 0.56000000000000005 0
0.56000000000000005 0.58000000000000007 0
0.57999999999999996 0 0
0.57999999999999996 0.020000000000000004 0
0.57999999999999996 0.040000000000000001 0
0.57999999999999996 0.54999999999999993 0
0.57999999999999996 0.56000000000000005 0
0.57999999999999996 0.58000000000000007 0
0.59999999999999998 0 0
0.59999999999999998 0.020000000000000004 0
0.59999999999999998 0.040000000000000001 0
0.59999999999999998 0.54999999999999993 0
0.59999999999999998 0.56000000000000005 0
0.59999999999999998 0.58000000000000007 0
0.62 0 0
0.62 0.020000000000000004 0
0.62 0.040000000000000001 0
0.62 0.54999999999999993 0
0.62 0.56000000000000005 0
0.62 0.58000000000000007 0
0.64000000000000001 0 0
0.64000000000000001 0.020000000000000004 0
0.64000000000000001 0.040000000000000001 0
0.64000000000000001 0.54999999999999993 0
0.64000000000000001 0.56000000000000005 0
0.64000000000000001 0.58000000000000007 0
0.66000000000000003 0 0
0.66000000000000003 0.020000000000000004 0
0.66000000000000003 0.040000000000000001 0
0.66000000000000003 0.54999999999999993 0
0.66000000000000003 0.56000000000000005 0
0.66000000000000003 0.58000000000000007 0
0.68000000000000005 0 0
0.68000000000000005 0.020000000000000004 0
0.68000000000000005 0.040000000000000001 0
0.68000000000000005 0.54999999999999993 0
0.68000000000000005 0.56000000000000005 0
0.68000000000000005 0.58000000000000007 0
0.70000000000000007 0 0
0.70000000000000007 0.020000000000000004 0
0.70000000000000007 0.040000000000000001 0
0.70000000000000007 0.54999999999999993 0
0.70000000000000007 0.56000000000000005 0
0.70000000000000007 0.58000000000000007 0
0.71999999999999997 0 0
0.71999999999999997 0.020000000000000004 0
0.71999999999999997 0.040000000000000001 0
0.71999999999999997 0.54999999999999993 0
0.71999999999999997 0.56000000000000005 0
0.71999999999999997 0.58000000000000007 0
0.73999999999999999 0 0
0.73999999999999999 0.020000000000000004 0
0.73999999999999999 0.040000000000000001 0
0.73999999999999999 0.54999999999999993 0
0.73999999999999999 0.56000000000000005 0
0.73999999999999999 0.58000000000000007 0
0.76000000000000001 0 0
0.76000000000000001 0.020000000000000004 0
0.76000000000000001 0.040000000000000001 0
0.76000000000000001 0.54999999999999993 0
0.76000000000000001 0.56000000000000005 0
0.76000000000000001 0.58000000000000007 0
0.78000000000000003 0 0
0.78000000000000003 0.020000000000000004 0
0.78000000000000003 0.040000000000000001 0
0.78000000000000003 0.54999999999999993 0
0.78000000000000003 0.56000000000000005 0
0.78000000000000003 0.58000000000000007 0
0.80000000000000004 0 0
0.80000000000000004 0.020000000000000004 0
0.80000000000000004 0.040000000000000001 0
0.80000000000000004 0.54999999999999993 0
0.80000000000000004 0.56000000000000005 0
0.80000000000000004 0.58000000000000007 0
0.82000000000000006 0 0
0.82000000000000006 0.020000000000000004 0
0.82000000000000006 0.040000000000000001 0
0.82000000000000006 0.54999999999999993 0
0.82000000000000006 0.56000000000000005 0
0.82000000000000006 0.58000000000000007 0
0.83999999999999997 0 0
0.83999999999999997 0.020000000000000004 0
0.83999999999999997 0.040000000000000001 0
0.83999999999999997 0.54999999999999993 0
0.83999999999999997 0.56000000000000005 0
0.83999999999999997 0.58000000000000007 0
0.85999999999999999 0 0
0.85999999999999999 0.020000000000000004 0
0.85999999999999999 0.040000000000000001 0
0.85999999999999999 0.54999999999999993 0
0.85999999999999999 0.56000000000000005 0
0.85999999999999999 0.58000000000000007 0
0.88 0 0
0.88 0.020000000000000004 0
0.88 0.040000000000000001 0
0.88 0.54999999999999993 0
0.88 0.56000000000000005 0
0.88 0.58000000000000007 0
0.90000000000000002 0 0
0.90000000000000002 0.020000000000000004 0
0.90000000000000002 0.040000000000000001 0
0.90000000000000002 0.54999999999999993 0
0.90000000000000002 0.56000000000000005 0
0.90000000000000002 0.58000000000000007 0
0.92000000000000004 0 0
0.92000000000000004 0.020000000000000004 0
0.92000000000000004 0.040000000000000001 0
0.92000000000000004 0.54999999999999993 0
0.92000000000000004 0.56000000000000005 0
0.92000000000000004 0.58000000000000007 0
0.94000000000000006 0 0
0.94000000000000006 0.020000000000000004 0
0.94000000000000006 0.040000000000000001 0
0.94000000000000006 0.54999999999999993 0
0.94000000000000006 0.56000000000000005 0
0.94000000000000006 0.58000000000000007 0
0.95999999999999996 0 0
0.95999999999999996 0.020000000000000004 0
0.95999999999999996 0.040000000000000001 0
0.95999999999999996 0.54999999999999993 0
0.95999999999999996 0.56000000000000005 0
0.95999999999999996 0.58000000000000007 0
0.97999999999999998 0 0
0.97999999999999998 0.020000000000000004 0
0.97999999999999998 0.040000000000000001 0
0.97999999999999998 0.54999999999999993 0
0.97999999999999998 0.56000000000000005 0
0.97999999999999998 0.58000000000000007 0
1 0 0
1 0.020000000000000004 0
1 0.040000000000000001 0
1 0.54999999999999993 0
1 0.56000000000000005 0
1 0.58000000000000007 0
VERTICES 681 1362
1 0
1 1
1 2
1 3
1 4
1 5
1 6
1 7
1 8
1 9
1 10
1 11
1 12
1 13
1 14
1 15
1 16
1 17
1 18
1 19
1 20
1 21
1 22
1 23
1 24
1 25
1 26
1 27
1 28
1 29
1 30
1 31
1 32
1 33
1 34
1 35
1 36
1 37
1 38
1 39
1 40
1 41
1 42
1 43
1 44
1 45
1 46
1 47
1 48
1 49
1 50
1 51
1 52
1 53
1 54
1 55
1 56
1 57
1 58
1 59
1 60
1 61
1 62
1 63
1 64
1 65
1 66
1 67
1 68
1 69
1 70
1 71
1 72
1 73
1 74
1 75
1 76
1 77
1 78
1 79
1 80
1 81
1 82
1 83
1 84
1 85
1 86
1 87
1 88
1 89
1 90
1 91
1 92
1 93
1 94
1 95
1 96
1 97
1 98
1 99
1 100
1 101
1 102
1 103
1 104
1 105
1 106
1 107
1 108
1 109
1 110
1 111
1 112
1 113
1 114
1 115
1 116
1 117
1 118
1 119
1 120
1 121
1 122
1 123
1 124
1 125
1 126
1 127
1 128
1 129
1 130
1 131
1 132
1 133
1 134
1 135
1 136
1 137
1 138
1 139
1 140
1 141
1 142
1 143
1 144
1 145
1 146
1 147
1 148
1 149
1 150
1 151
1 152
1 153
1 154
1 155
1 156
1 157
1 158
1 159
1 160
1 161
1 162
1 163
1 164
1 165
1 166
1 167
1 168
1 169
1 170
1 171
1 172
1 173
1 174
1 175
1 176
1 177
1 178
1 179
1 180
1 181
1 182
1 183
1 184
1 185
1 186
1 187
1 188
1 189
1 190
1 191
1 192
1 193
1 194
1 195
1 196
1 197
1 198
1 199
1 200
1 201
1 202
1 203
1 204
1 205
1 206
1 207
1 208
1 209
1 210
1 211
1 212
1 213
1 214
1 215
1 216
1 217
1 218
1 219
1 220
1 221
1 222
1 223
1 224
1 225
1 226
1 227
1 228
1 229
1 230
1 231
1 232
1 233
1 234
1 235
1 236
1 237
1 238
1 239
1 240
1 241
1 242
1 243
1 244
1 245
1 246
1 247
1 248
1 249
1 250
1 251
1 252
1 253
1 254
1 255
1 256
1 257
1 258
1 259
1 260
1 261
1 262
1 263
1 264
1 265
1 266
1 267
1 268
1 269
1 270
1 271
1 272
1 273
1 274
1 275
1 276
1 277
1 278
1 279
1 280
1 281
1 282
1 283
1 284
1 285
1 286
1 287
1 288
1 289
1 290
1 291
1 292
1 293
1 294
1 295
1 296
1 297
1 298
1 299
1 300
1 301
1 302
1 303
1 304
1 305
1 306
1 307
1 308
1 309
1 310
1 311
1 312
1 313
1 314
1 315
1 316
1 317
1 318
1 319
1 320
1 321
1 322
1 323
1 324
1 325
1 326
1 327
1 328
1 329
1 330
1 331
1 332
1 333
1 334
1 335
1 336
1 337
1 338
1 339
1 340
1 341
1 342
1 343
1 344
1 345
1 346
1 347
1 348
1 349
1 350
1 351
1 352
1 353
1 354
1 355
1 356
1 357
1 358
1 359
1 360
1 361
1 362
1 363
1 364
1 365
1 366
1 367
1 368
1 369
1 370
1 371
1 372
1 373
1 374
1 375
1 376
1 377
1 378
1 379
1 380
1 381
1 382
1 383
1 384
1 385
1 386
1 387
1 388
1 389
1 390
1 391
1 392
1 393
1 394
1 395
1 396
1 397
1 398
1 399
1 400
1 401
1 402
1 403
1 404
1 405
1 406
1 407
1 408
1 409
1 410
1 411
1 412
1 413
1 414
1 415
1 416
1 417
1 418
1 419
1 420
1 421
1 422
1 423
1 424
1 425
1 426
1 427
1 428
1 429
1 430
1 431
1 432
1 433
1 434
1 435
1 436
1 437
1 438
1 439
1 440
1 441
1 442
1 443
1 444
1 445
1 446
1 447
1 448
1 449
1 450
1 451
1 452
1 453
1 454
1 455
1 456
1 457
1 458
1 459
1 460
1 461
1 462
1 463
1 464
1 465
1 466
1 467
1 468
1 469
1 470
1 471
1 472
1 473
1 474
1 475
1 476
1 477
1 478
1 479
1 480
1 481
1 482
1 483
1 484
1 485
1 486
1 487
1 488
1 489
1 490
1 491
1 492
1 493
1 494
1 495
1 496
1 497
1 498
1 499
1 500
1 501
1 502
1 503
1 504
1 505
1 506
1 507
1 508
1 509
1 510
1 511
1 512
1 513
1 514
1 515
1 516
1 517
1 518
1 519
1 520
1 521
1 522
1 523
1 524
1 525
1 526
1 527
1 528
1 529
1 530
1 531
1 532
1 533
1 534
1 535
1 536
1 537
1 538
1 539
1 540
1 541
1 542
1 543
1 544
1 545
1 546
1 547
1 548
1 549
1 550
1 551
1 552
1 553
1 554
1 555
1 556
1 557
1 558
1 559
1 560
1 561
1 562
1 563
1 564
1 565
1 566
1 567
1 568
1 569
1 570
1 571
1 572
1 573
1 574
1 575
1 576
1 577
1 578
1 579
1 580
1 581
1 582
1 583
1 584
1 585
1 586
1 587
1 588
1 589
1 590
1 591
1 592
1 593
1 594
1 595
1 596
1 597
1 598
1 599
1 600
1 601
1 602
1 603
1 604
1 605
1 606
1 607
1 608
1 609
1 610
1 611
1 612
1 613
1 614
1 615
1 616
1 617
1 618
1 619
1 620
1 621
1 622
1 623
1 624
1 625
1 626
1 627
1 628
1 629
1 630
1 631
1 632
1 633
1 634
1 635
1 636
1 637
1 638
1 639
1 640
1 641
1 642
1 643
1 644
1 645
1 646
1 647
1 648
1 649
1 650
1 651
1 652
1 653
1 654
1 655
1 656
1 657
1 658
1 659
1 660
1 661
1 662
1 663
1 664
1 665
1 666
1 667
1 668
1 669
1 670
1 671
1 672
1 673
1 674
1 675
1 676
1 677
1 678
1 679
1 680
POINT_DATA 681
SCALARS is_boundary int 1
LOOKUP_TABLE default
0
0
0
0
0
0
0
0
0
0
0
0
0
0
0
0
0
0
0
0
0
0
0
0
0
0
0
0
0
0
0
0
0
0
0
0
0
0
0
0
0
0
0
0
0
0
0
0
0
0
0
0
0
0
0
0
0
0
0
0
0
0
0
0
0
0
0
0
0
0
0
0
0
0
0
0
0
0
0
0
0
0
0
0
0
0
0
0
0
0
0
0
0
0
0
0
0
0
0
0
0
0
0
0
0
0
0
0
0
0
0
0
0
0
0
0
0
0
0
0
0
0
0
0
0
0
0
0
0
0
0
0
0
0
0
0
0
0
0
0
0
0
0
0
0
0
0
0
0
0
0
0
0
0
0
0
0
0
0
0
0
0
0
0
0
0
0
0
0
0
0
0
0
0
0
0
0
0
0
0
0
0
0
0
0
0
0
0
0
0
0
0
0
0
0
0
0
0
0
0
0
0
0
0
0
0
0
0
0
0
0
0
0
0
0
0
0
0
0
0
0
0
0
0
0
0
0
0
0
0
0
0
0
0
0
0
0
0
0
0
0
0
0
0
0
0
0
0
0
0
0
0
0
0
0
0
0
0
0
0
0
0
0
0
0
0
0
0
0
0
0
0
0
0
0
0
0
0
0
0
0
0
0
0
0
0
0
0
0
0
0
0
0
0
0
0
0
0
0
0
0
0
0
0
0
0
0
0
0
0
0
0
0
0
0
0
0
0
0
0
0
0
0
0
0
0
0
0
0
0
0
0
0
0
0
0
0
0
0
0
0
0
0
0
0
0
0
0
0
0
0
0
0
0
0
0
0
0
0
0
0
0
0
0
0
0
0
0
0
0
0
0
0
0
0
1
1
1
1
1
1
1
1
1
1
1
1
1
1
1
1
1
1
1
1
1
1
1
1
1
1
1
1
1
1
1
1
1
1
1
1
1
1
1
1
1
1
1
1
1
1
1
1
1
1
1
1
1
1
1
1
1
1
1
1
1
1
1
1
1
1
1
1
1
1
1
1
1
1
1
1
1
1
1
1
1
1
1
1
1
1
1
1
1
1
1
1
1
1
1
1
1
1
1
1
1
1
1
1
1
1
1
1
1
1
1
1
1
1
1
1
1
1
1
1
1
1
1
1
1
1
1
1
1
1
1
1
1
1
1
1
1
1
1
1
1
1
1
1
1
1
1
1
1
1
1
1
1
1
1
1
1
1
1
1
1
1
1
1
1
1
1
1
1
1
1
1
1
1
1
1
1
1
1
1
1
1
1
1
1
1
1
1
1
1
1
1
1
1
1
1
1
1
1
1
1
1
1
1
1
1
1
1
1
1
1
1
1
1
1
1
1
1
1
1
1
1
1
1
1
1
1
1
1
1
1
1
1
1
1
1
1
1
1
1
1
1
1
1
1
1
1
1
1
1
1
1
1
1
1
1
1
1
1
1
1
1
1
1
1
1
1
1
1
1
1
1
1
1
1
1
1
1
1
1
1
1
1
1
1
1
1
1
1
1
1
1
1
1
1
1
1
1
1
1
1
1
1
1
1
1
SCALARS rho float 1
LOOKUP_TABLE default
1020
1020
1020
1020
1020
1020
1020
1020
1020
1020
1020
1020
1020
1020
1020
1020
1020
1020
880
862
850
850
850
850
850
1020
1020
1020
1020
1020
1020
1020
1020
1020
1020
1020
1020
1020
1020
1020
1020
1020
1020
1020
880
912.72437955288751
861.42342101249278
850
850
850
1020
1020
1020
1020
1020
1020
1020
1020
1020
1020
1020
1020
1020
1020
1020
1020
1020
1020
1020
880
880
868.22659821859111
850
850
850
1020
1020
1020
1020
1020
1020
1020
1020
1020
1020
1020
1020
1020
1020
1020
1020
1020
1020
1020
880
880
867.54485685821862
850
850
850
1020
1020
1020
1020
1020
1020
1020
1020
1020
1020
1020
1020
1020
1020
1020
1020
1020
1020
1020
880
880
867.18608323791102
850
850
850
1020
1020
1020
1020
1020
1020
1020
1020
1020
1020
1020
1020
1020
1020
1020
1020
1020
1020
1020
880
880
867.00523632747809
850
850
850
1020
1020
1020
1020
1020
1020
1020
1020
1020
1020
1020
1020
1020
1020
1020
1020
1020
1020
1020
880
880
866.92388083394337
850
850
850
1020
1020
1020
1020
1020
1020
1020
1020
1020
1020
1020
1020
1020
1020
1020
1020
1020
1020
1020
880
880
866.90099021912727
850
850
850
1020
1020
1020
1020
1020
1020
1020
1020
1020
1020
1020
1020
1020
1020
1020
1020
1020
1020
1020
880
880
866.92387616570682
850
850
850
1020
1020
1020
1020
1020
1020
1020
1020
1020
1020
1020
1020
1020
1020
1020
1020
1020
1020
1020
880
880
867.00522635225013
850
850
850
1020
1020
1020
1020
1020
1020
1020
1020
1020
1020
1020
1020
1020
1020
1020
1020
1020
1020
1020
880
880
867.18606975629996
850
850
850
1020
1020
1020
1020
1020
1020
1020
1020
1020
1020
1020
1020
1020
1020
1020
1020
1020
1020
1020
880
880
867.54483627157128
850
850
850
1020
1020
1020
1020
1020
1020
1020
1020
1020
1020
1020
1020
1020
1020
1020
1020
1020
1020
1020
880
880
868.22656457419043
850
850
850
1020
1020
1020
1020
1020
1020
1020
1020
1020
1020
1020
1020
1020
1020
1020
1020
1020
1020
1020
880
912.72363715559118
861.42334550227554
850
850
850
1020
1020
1020
1020
1020
1020
1020
1020
1020
1020
1020
1020
1020
1020
1020
1020
1020
1020
880
862
850
850
850
850
850
1000
1000
1000
1000
1000
1000
1000
1000
1000
1000
1000
1000
1000
1000
1000
1000
1000
1000
1000
1000
1000
1000
1000
1000
1000
1000
1000
1000
1000
1000
1000
1000
1000
1000
1000
1000
1000
1000
1000
1000
1000
1000
1000
1000
1000
1000
1000
1000
1000
1000
1000
1000
1000
1000
1000
1000
1000
1000
1000
1000
1000
1000
1000
1000
1000
1000
1000
1000
1000
1000
1000
1000
1000
1000
1000
1000
1000
1000
1000
1000
1000
1000
1000
1000
1000
1000
1000
1000
1000
1000
1000
1000
1000
1000
1000
1000
1000
1000
1000
1000
1000
1000
1000
1000
1000
1000
1000
1000
1000
1000
1000
1000
1000
1000
1000
1000
1000
1000
1000
1000
1000
1000
1000
1000
1000
1000
1000
1000
1000
1000
1000
1000
1000
1000
1000
1000
1000
1000
1000
1000
1000
1000
1000
1000
1000
1000
1000
1000
1000
1000
1000
1000
1000
1000
1000
1000
1000
1000
1000
1000
1000
1000
1000
1000
1000
1000
1000
1000
1000
1000
1000
1000
1000
1000
1000
1000
1000
1000
1000
1000
1000
1000
1000
1000
1000
1000
1000
1000
1000
1000
1000
1000
1000
1000
1000
1000
1000
1000
1000
1000
1000
1000
1000
1000
1000
1000
1000
1000
1000
1000
1000
1000
1000
1000
1000
1000
1000
1000
1000
1000
1000
1000
1000
1000
1000
1000
1000
1000
1000
1000
1000
1000
1000
1000
1000
1000
1000
1000
1000
1000
1000
1000
1000
1000
1000
1000
1000
1000
1000
1000
1000
1000
1000
1000
1000
1000
1000
1000
1000
1000
1000
1000
1000
1000
1000
1000
1000
1000
1000
1000
1000
1000
1000
1000
1000
1000
1000
1000
1000
1000
1000
1000
1000
1000
1000
1000
1000
1000
1000
1000
1000
1000
1000
1000
1000
1000
1000
1000
1000
1000
1000
1000
1000
1000
1000
1000
SCALARS p float 1
LOOKUP_TABLE default
25004.681136676067
25004.681136676067
25004.681136676067
25004.681136676067
25004.681136676067
25004.681136676067
25004.681136676067
25004.681136676067
25004.681136676067
25004.681136676067
25004.681136676067
25004.681136676067
25004.681136676067
25004.681136676067
25004.681136676067
25004.681136676067
25004.681136676067
25004.681136676067
0
0
0
0
0
0
0
25004.681136676067
25004.681136676067
25004.681136676067
25004.681136676067
25004.681136676067
25004.681136676067
25004.681136676067
25004.681136676067
25004.681136676067
25004.681136676067
25004.681136676067
25004.681136676067
25004.681136676067
25004.681136676067
25004.681136676067
25004.681136676067
25004.681136676067
25004.681136676067
25004.681136676067
0
0
0
0
0
0
25004.681136676067
25004.681136676067
25004.681136676067
25004.681136676067
25004.681136676067
25004.681136676067
25004.681136676067
25004.681136676067
25004.681136676067
25004.681136676067
25004.681136676067
25004.681136676067
25004.681136676067
25004.681136676067
25004.681136676067
25004.681136676067
25004.681136676067
25004.681136676067
25004.681136676067
0
0
0
0
0
0
25004.681136676067
25004.681136676067
25004.681136676067
25004.681136676067
25004.681136676067
25004.681136676067
25004.681136676067
25004.681136676067
25004.681136676067
25004.681136676067
25004.681136676067
25004.681136676067
25004.681136676067
25004.681136676067
25004.681136676067
25004.681136676067
25004.681136676067
25004.681136676067
25004.681136676067
0
0
0
0
0
0
25004.681136676067
25004.681136676067
25004.681136676067
25004.681136676067
25004.681136676067
25004.681136676067
25004.681136676067
25004.681136676067
25004.681136676067
25004.681136676067
25004.681136676067
25004.681136676067
25004.681136676067
25004.681136676067
25004.681136676067
25004.681136676067
25004.681136676067
25004.681136676067
25004.681136676067
0
0
0
0
0
0
25004.681136676067
25004.681136676067
25004.681136676067
25004.681136676067
25004.681136676067
25004.681136676067
25004.681136676067
25004.681136676067
25004.681136676067
25004.681136676067
25004.681136676067
25004.681136676067
25004.681136676067
25004.681136676067
25004.681136676067
25004.681136676067
25004.681136676067
25004.681136676067
25004.681136676067
0
0
0
0
0
0
25004.681136676067
25004.681136676067
25004.681136676067
25004.681136676067
25004.681136676067
25004.681136676067
25004.681136676067
25004.681136676067
25004.681136676067
25004.681136676067
25004.681136676067
25004.681136676067
25004.681136676067
25004.681136676067
25004.681136676067
25004.681136676067
25004.681136676067
25004.681136676067
25004.681136676067
0
0
0
0
0
0
25004.681136676067
25004.681136676067
25004.681136676067
25004.681136676067
25004.681136676067
25004.681136676067
25004.681136676067
25004.681136676067
25004.681136676067
25004.681136676067
25004.681136676067
25004.681136676067
25004.681136676067
25004.681136676067
25004.681136676067
25004.681136676067
25004.681136676067
25004.681136676067
25004.681136676067
0
0
0
0
0
0
25004.681136676067
25004.681136676067
25004.681136676067
25004.681136676067
25004.681136676067
25004.681136676067
25004.681136676067
25004.681136676067
25004.681136676067
25004.681136676067
25004.681136676067
25004.681136676067
25004.681136676067
25004.681136676067
25004.681136676067
25004.681136676067
25004.681136676067
25004.681136676067
25004.681136676067
0
0
0
0
0
0
25004.681136676067
25004.681136676067
25004.681136676067
25004.681136676067
25004.681136676067
25004.681136676067
25004.681136676067
25004.681136676067
25004.681136676067
25004.681136676067
25004.681136676067
25004.681136676067
25004.681136676067
25004.681136676067
25004.681136676067
25004.681136676067
25004.681136676067
25004.681136676067
25004.681136676067
0
0
0
0
0
0
25004.681136676067
25004.681136676067
25004.681136676067
25004.681136676067
25004.681136676067
25004.681136676067
25004.681136676067
25004.681136676067
25004.681136676067
25004.681136676067
25004.681136676067
25004.681136676067
25004.681136676067
25004.681136676067
25004.681136676067
25004.681136676067
25004.681136676067
25004.681136676067
25004.681136676067
0
0
0
0
0
0
25004.681136676067
25004.681136676067
25004.681136676067
25004.681136676067
25004.681136676067
25004.681136676067
25004.681136676067
25004.681136676067
25004.681136676067
25004.681136676067
25004.681136676067
25004.681136676067
25004.681136676067
25004.681136676067
25004.681136676067
25004.681136676067
25004.681136676067
25004.681136676067
25004.681136676067
0
0
0
0
0
0
25004.681136676067
25004.681136676067
25004.681136676067
25004.681136676067
25004.681136676067
25004.681136676067
25004.681136676067
25004.681136676067
25004.681136676067
25004.681136676067
25004.681136676067
25004.681136676067
25004.681136676067
25004.681136676067
25004.681136676067
25004.681136676067
25004.681136676067
25004.681136676067
25004.681136676067
0
0
0
0
0
0
25004.681136676067
25004.681136676067
25004.681136676067
25004.681136676067
25004.681136676067
25004.681136676067
25004.681136676067
25004.681136676067
25004.681136676067
25004.681136676067
25004.681136676067
25004.681136676067
25004.681136676067
25004.681136676067
25004.681136676067
25004.681136676067
25004.681136676067
25004.681136676067
25004.681136676067
0
0
0
0
0
0
25004.681136676067
25004.681136676067
25004.681136676067
25004.681136676067
25004.681136676067
25004.681136676067
25004.681136676067
25004.681136676067
25004.681136676067
25004.681136676067
25004.681136676067
25004.681136676067
25004.681136676067
25004.681136676067
25004.681136676067
25004.681136676067
25004.681136676067
25004.681136676067
0
0
0
0
0
0
0
0
0
0
0
0
0
19094.313890216832
24970.675251636738
24994.76133432184
0
0
0
24951.445825264218
25002.39970059301
25003.872023295709
0
0
0
24981.02115892385
25003.519064247455
25004.253566448337
0
0
0
24983.654184992491
25003.575778841147
25004.264252113062
0
0
0
24983.716370809856
25003.575558656834
25004.262096307895
0
0
0
24983.621541870947
25003.572978706681
25004.261435892822
0
0
0
24983.570028758026
25003.571575010352
25004.261176250173
0
0
0
24983.547934187263
25003.570964477814
25004.261070038643
0
0
0
24983.539915603167
25003.570747651069
25004.261035187843
0
0
0
24983.539723909194
25003.570741415813
25004.26103348051
0
0
0
24983.547743057221
25003.570960191526
25004.261069487893
0
0
0
24983.56987325646
25003.571574996797
25004.261177644916
0
0
0
24983.621516010724
25003.572981582056
25004.261440051367
0
0
0
24983.71616202129
25003.575553772109
25004.262099161799
0
0
0
24983.653692856442
25003.575768414339
25004.264254173941
0
0
0
24981.020525449068
25003.519064763779
25004.253575225805
0
0
0
24951.441631348691
25002.399631089727
25003.872009738632
0
0
0
19092.890082619226
24970.671939569151
24994.760358997301
0
0
0
0
0
0
0
0
0
0
0
0
0
0
0
0
0
0
0
0
0
0
0
0
0
0
0
0
0
0
0
0
0
0
0
0
0
0
0
0
0
0
0
0
0
0
0
0
0
0
0
0
0
0
0
0
0
0
0
0
0
0
0
0
0
0
0
0
0
0
0
0
0
0
0
0
0
0
0
0
0
0
0
0
0
0
0
0
0
0
0
0
0
0
0
0
0
0
0
0
0
0
0
0
0
0
0
0
0
0
0
0
0
0
0
0
0
0
0
0
0
0
0
0
0
0
0
0
0
0
0
0
0
0
0
0
0
0
0
0
0
0
0
0
0
0
0
0
0
0
0
0
0
0
0
0
0
0
0
0
0
0
0
0
0
0
0
0
0
0
0
0
0
0
0
0
0
0
0
0
0
0
0
0
0
0
0
0
0
0
0
0
0
0
0
SCALARS m float 1
LOOKUP_TABLE default
0.39942306611962441
0.39942306611962441
0.39942306611962441
0.39942306611962441
0.39942306611962441
0.39942306611962441
0.39942306611962441
0.39942306611962441
0.39942306611962441
0.39942306611962441
0.39942306611962441
0.39942306611962441
0.39942306611962441
0.39942306611962441
0.39942306611962441
0.39942306611962441
0.39942306611962441
0.39942306611962441
0.39942306611962441
0.39942306611962441
0.39942306611962441
0.39942306611962441
0.39942306611962441
0.39942306611962441
0.39942306611962441
0.39942306611962441
0.39942306611962441
0.39942306611962441
0.39942306611962441
0.39942306611962441
0.39942306611962441
0.39942306611962441
0.39942306611962441
0.39942306611962441
0.39942306611962441
0.39942306611962441
0.39942306611962441
0.39942306611962441
0.39942306611962441
0.39942306611962441
0.39942306611962441
0.39942306611962441
0.39942306611962441
0.39942306611962441
0.39942306611962441
0.39942306611962441
0.39942306611962441
0.39942306611962441
0.39942306611962441
0.39942306611962441
0.39942306611962441
0.39942306611962441
0.39942306611962441
0.39942306611962441
0.39942306611962441
0.39942306611962441
0.39942306611962441
0.39942306611962441
0.39942306611962441
0.39942306611962441
0.39942306611962441
0.39942306611962441
0.39942306611962441
0.39942306611962441
0.39942306611962441
0.39942306611962441
0.39942306611962441
0.39942306611962441
0.39942306611962441
0.39942306611962441
0.39942306611962441
0.39942306611962441
0.39942306611962441
0.39942306611962441
0.39942306611962441
0.39942306611962441
0.39942306611962441
0.39942306611962441
0.39942306611962441
0.39942306611962441
0.39942306611962441
0.39942306611962441
0.39942306611962441
0.39942306611962441
0.39942306611962441
0.39942306611962441
0.39942306611962441
0.39942306611962441
0.39942306611962441
0.39942306611962441
0.39942306611962441
0.39942306611962441
0.39942306611962441
0.39942306611962441
0.39942306611962441
0.39942306611962441
0.39942306611962441
0.39942306611962441
0.39942306611962441
0.39942306611962441
0.39942306611962441
0.39942306611962441
0.39942306611962441
0.39942306611962441
0.39942306611962441
0.39942306611962441
0.39942306611962441
0.39942306611962441
0.39942306611962441
0.39942306611962441
0.39942306611962441
0.39942306611962441
0.39942306611962441
0.39942306611962441
0.39942306611962441
0.39942306611962441
0.39942306611962441
0.39942306611962441
0.39942306611962441
0.39942306611962441
0.39942306611962441
0.39942306611962441
0.39942306611962441
0.39942306611962441
0.39942306611962441
0.39942306611962441
0.39942306611962441
0.39942306611962441
0.39942306611962441
0.39942306611962441
0.39942306611962441
0.39942306611962441
0.39942306611962441
0.39942306611962441
0.39942306611962441
0.39942306611962441
0.39942306611962441
0.39942306611962441
0.39942306611962441
0.39942306611962441
0.39942306611962441
0.39942306611962441
0.39942306611962441
0.39942306611962441
0.39942306611962441
0.39942306611962441
0.39942306611962441
0.39942306611962441
0.39942306611962441
0.39942306611962441
0.39942306611962441
0.39942306611962441
0.39942306611962441
0.39942306611962441
0.39942306611962441
0.39942306611962441
0.39942306611962441
0.39942306611962441
0.39942306611962441
0.39942306611962441
0.39942306611962441
0.39942306611962441
0.39942306611962441
0.39942306611962441
0.39942306611962441
0.39942306611962441
0.39942306611962441
0.39942306611962441
0.39942306611962441
0.39942306611962441
0.39942306611962441
0.39942306611962441
0.39942306611962441
0.39942306611962441
0.39942306611962441
0.39942306611962441
0.39942306611962441
0.39942306611962441
0.39942306611962441
0.39942306611962441
0.39942306611962441
0.39942306611962441
0.39942306611962441
0.39942306611962441
0.39942306611962441
0.39942306611962441
0.39942306611962441
0.39942306611962441
0.39942306611962441
0.39942306611962441
0.39942306611962441
0.39942306611962441
0.39942306611962441
0.39942306611962441
0.39942306611962441
0.39942306611962441
0.39942306611962441
0.39942306611962441
0.39942306611962441
0.39942306611962441
0.39942306611962441
0.39942306611962441
0.39942306611962441
0.39942306611962441
0.39942306611962441
0.39942306611962441
0.39942306611962441
0.39942306611962441
0.39942306611962441
0.39942306611962441
0.39942306611962441
0.39942306611962441
0.39942306611962441
0.39942306611962441
0.39942306611962441
0.39942306611962441
0.39942306611962441
0.39942306611962441
0.39942306611962441
0.39942306611962441
0.39942306611962441
0.39942306611962441
0.39942306611962441
0.39942306611962441
0.39942306611962441
0.39942306611962441
0.39942306611962441
0.39942306611962441
0.39942306611962441
0.39942306611962441
0.39942306611962441
0.39942306611962441
0.39942306611962441
0.39942306611962441
0.39942306611962441
0.39942306611962441
0.39942306611962441
0.39942306611962441
0.39942306611962441
0.39942306611962441
0.39942306611962441
0.39942306611962441
0.39942306611962441
0.39942306611962441
0.39942306611962441
0.39942306611962441
0.39942306611962441
0.39942306611962441
0.39942306611962441
0.39942306611962441
0.39942306611962441
0.39942306611962441
0.39942306611962441
0.39942306611962441
0.39942306611962441
0.39942306611962441
0.39942306611962441
0.39942306611962441
0.39942306611962441
0.39942306611962441
0.39942306611962441
0.39942306611962441
0.39942306611962441
0.39942306611962441
0.39942306611962441
0.39942306611962441
0.39942306611962441
0.39942306611962441
0.39942306611962441
0.39942306611962441
0.39942306611962441
0.39942306611962441
0.39942306611962441
0.39942306611962441
0.39942306611962441
0.39942306611962441
0.39942306611962441
0.39942306611962441
0.39942306611962441
0.39942306611962441
0.39942306611962441
0.39942306611962441
0.39942306611962441
0.39942306611962441
0.39942306611962441
0.39942306611962441
0.39942306611962441
0.39942306611962441
0.39942306611962441
0.39942306611962441
0.39942306611962441
0.39942306611962441
0.39942306611962441
0.39942306611962441
0.39942306611962441
0.39942306611962441
0.39942306611962441
0.39942306611962441
0.39942306611962441
0.39942306611962441
0.39942306611962441
0.39942306611962441
0.39942306611962441
0.39942306611962441
0.39942306611962441
0.39942306611962441
0.39942306611962441
0.39942306611962441
0.39942306611962441
0.39942306611962441
0.39942306611962441
0.39942306611962441
0.39942306611962441
0.39942306611962441
0.39942306611962441
0.39942306611962441
0.39942306611962441
0.39942306611962441
0.39942306611962441
0.39942306611962441
0.39942306611962441
0.39942306611962441
0.39942306611962441
0.39942306611962441
0.39942306611962441
0.39942306611962441
0.39942306611962441
0.39942306611962441
0.39942306611962441
0.39942306611962441
0.39942306611962441
0.39942306611962441
0.39942306611962441
0.39942306611962441
0.39942306611962441
0.39942306611962441
0.39942306611962441
0.39942306611962441
0.39942306611962441
0.39942306611962441
0.39942306611962441
0.39942306611962441
0.39942306611962441
0.39942306611962441
0.39942306611962441
0.39942306611962441
0.39942306611962441
0.39942306611962441
0.39942306611962441
0.39942306611962441
0.39942306611962441
0.39942306611962441
0.39942306611962441
0.39942306611962441
0.39942306611962441
0.39942306611962441
0.39942306611962441
0.39942306611962441
0.39942306611962441
0.39942306611962441
0.39942306611962441
0.39942306611962441
0.39942306611962441
0.39942306611962441
0.39942306611962441
0.39942306611962441
0.39942306611962441
0.39942306611962441
0.39942306611962441
0.39942306611962441
0.39942306611962441
0.39942306611962441
0.39942306611962441
0.39942306611962441
0.39942306611962441
0.39942306611962441
0.39942306611962441
0.39942306611962441
0.39942306611962441
0.39942306611962441
0.39942306611962441
0.39942306611962441
0.39942306611962441
0.39942306611962441
0.39942306611962441
0.39942306611962441
0.39942306611962441
0.39942306611962441
0.39942306611962441
0.39942306611962441
0.39942306611962441
0.39942306611962441
0.39942306611962441
0.39942306611962441
0.39942306611962441
0.39942306611962441
0.39942306611962441
0.39942306611962441
0.39942306611962441
0.39942306611962441
0.39942306611962441
0.39942306611962441
0.39942306611962441
0.39942306611962441
0.39942306611962441
0.39942306611962441
0.39942306611962441
0.39942306611962441
0.39942306611962441
0.39942306611962441
0.39942306611962441
0.39942306611962441
0.39942306611962441
0.39942306611962441
0.39942306611962441
0.39942306611962441
0.39942306611962441
0.39942306611962441
0.39942306611962441
0.39942306611962441
0.39942306611962441
0.39942306611962441
0.39942306611962441
0.39942306611962441
0.39942306611962441
0.39942306611962441
0.39942306611962441
0.39942306611962441
0.39942306611962441
0.39942306611962441
0.39942306611962441
0.39942306611962441
0.39942306611962441
0.39942306611962441
0.39942306611962441
0.39942306611962441
0.39942306611962441
0.39942306611962441
0.39942306611962441
0.39942306611962441
0.39942306611962441
0.39942306611962441
0.39942306611962441
0.39942306611962441
0.39942306611962441
0.39942306611962441
0.39942306611962441
0.39942306611962441
0.39942306611962441
0.39942306611962441
0.39942306611962441
0.39942306611962441
0.39942306611962441
0.39942306611962441
0.39942306611962441
0.39942306611962441
0.39942306611962441
0.39942306611962441
0.39942306611962441
0.39942306611962441
0.39942306611962441
0.39942306611962441
0.39942306611962441
0.39942306611962441
0.39942306611962441
0.39942306611962441
0.39942306611962441
0.39942306611962441
0.39942306611962441
0.39942306611962441
0.39942306611962441
0.39942306611962441
0.39942306611962441
0.39942306611962441
0.39942306611962441
0.39942306611962441
0.39942306611962441
0.39942306611962441
0.39942306611962441
0.39942306611962441
0.39942306611962441
0.39942306611962441
0.39942306611962441
0.39942306611962441
0.39942306611962441
0.39942306611962441
0.39942306611962441
0.39942306611962441
0.39942306611962441
0.39942306611962441
0.39942306611962441
0.39942306611962441
0.39942306611962441
0.39942306611962441
0.39942306611962441
0.39942306611962441
0.39942306611962441
0.39942306611962441
0.39942306611962441
0.39942306611962441
0.39942306611962441
0.39942306611962441
0.39942306611962441
0.39942306611962441
0.39942306611962441
0.39942306611962441
0.39942306611962441
0.39942306611962441
0.39942306611962441
0.39942306611962441
0.39942306611962441
0.39942306611962441
0.39942306611962441
0.39942306611962441
0.39942306611962441
0.39942306611962441
0.39942306611962441
0.39942306611962441
0.39942306611962441
0.39942306611962441
0.39942306611962441
0.39942306611962441
0.39942306611962441
0.39942306611962441
0.39942306611962441
0.39942306611962441
0.39942306611962441
0.39942306611962441
0.39942306611962441
0.39942306611962441
0.39942306611962441
0.39942306611962441
0.39942306611962441
0.39942306611962441
0.39942306611962441
0.39942306611962441
0.39942306611962441
0.39942306611962441
0.39942306611962441
0.39942306611962441
0.39942306611962441
0.39942306611962441
0.39942306611962441
0.39942306611962441
0.39942306611962441
0.39942306611962441
0.39942306611962441
0.39942306611962441
0.39942306611962441
0.39942306611962441
0.39942306611962441
0.39942306611962441
0.39942306611962441
0.39942306611962441
0.39942306611962441
0.39942306611962441
0.39942306611962441
0.39942306611962441
0.39942306611962441
0.39942306611962441
0.39942306611962441
0.39942306611962441
0.39942306611962441
0.39942306611962441
0.39942306611962441
0.39942306611962441
0.39942306611962441
0.39942306611962441
0.39942306611962441
0.39942306611962441
0.39942306611962441
0.39942306611962441
0.39942306611962441
0.39942306611962441
0.39942306611962441
0.39942306611962441
0.39942306611962441
0.39942306611962441
0.39942306611962441
0.39942306611962441
0.39942306611962441
0.39942306611962441
0.39942306611962441
0.39942306611962441
0.39942306611962441
0.39942306611962441
0.39942306611962441
0.39942306611962441
0.39942306611962441
0.39942306611962441
0.39942306611962441
0.39942306611962441
0.39942306611962441
0.39942306611962441
0.39942306611962441
0.39942306611962441
0.39942306611962441
0.39942306611962441
0.39942306611962441
0.39942306611962441
0.39942306611962441
0.39942306611962441
0.39942306611962441
0.39942306611962441
0.39942306611962441
0.39942306611962441
0.39942306611962441
0.39942306611962441
0.39942306611962441
0.39942306611962441
0.39942306611962441
0.39942306611962441
0.39942306611962441
0.39942306611962441
0.39942306611962441
0.39942306611962441
0.39942306611962441
0.39942306611962441
0.39942306611962441
0.39942306611962441
0.39942306611962441
0.39942306611962441
0.39942306611962441
0.39942306611962441
0.39942306611962441
0.39942306611962441
0.39942306611962441
0.39942306611962441
0.39942306611962441
0.39942306611962441
0.39942306611962441
0.39942306611962441
0.39942306611962441
0.39942306611962441
0.39942306611962441
0.39942306611962441
0.39942306611962441
0.39942306611962441
0.39942306611962441
0.39942306611962441
0.39942306611962441
0.39942306611962441
0.39942306611962441
0.39942306611962441
0.39942306611962441
0.39942306611962441
0.39942306611962441
0.39942306611962441
0.39942306611962441
0.39942306611962441
0.39942306611962441
0.39942306611962441
0.39942306611962441
0.39942306611962441
0.39942306611962441
0.39942306611962441
0.39942306611962441
0.39942306611962441
0.39942306611962441
0.39942306611962441
0.39942306611962441
0.39942306611962441
0.39942306611962441
0.39942306611962441
0.39942306611962441
0.39942306611962441
0.39942306611962441
0.39942306611962441
0.39942306611962441
0.39942306611962441
0.39942306611962441
0.39942306611962441
0.39942306611962441
0.39942306611962441
0.39942306611962441
0.39942306611962441
0.39942306611962441
0.39942306611962441
0.39942306611962441
0.39942306611962441
0.39942306611962441
VECTORS v float
-6.0300248611156701e-05 -0.088197229263637558 0
-6.6789791667552897e-05 -0.098989945890596037 0
-7.1832818413688381e-05 -0.10803246194576323 0
-7.7032167998775607e-05 -0.11778696964713553 0
-8.1976452365575001e-05 -0.12840217239027718 0
-8.7189570849074047e-05 -0.14006374218287018 0
-9.2400121665279139e-05 -0.1530823288588124 0
-9.7132062256149974e-05 -0.16797630924233856 0
-0.00010107272383337434 -0.18537947494056514 0
-0.00010606986432732246 -0.2061581884498839 0
-0.00011150131760824233 -0.23149008395639006 0
-0.00012161754939224606 -0.26309889304062994 0
-0.00012584939185824158 -0.30348313756966133 0
-0.00013385586777814518 -0.35673970037357661 0
-0.00014561604819003017 -0.43147661686944827 0
-0.00016134914203405759 -0.54703709128341849 0
-0.00018929950749645787 -0.77092909728065184 0
-0.00023842879602764498 -1.3640139954749806 0
-0.00019404084844288876 -2.1830485739177896 0
-6.1892689755139882e-05 -2.426108323647997 0
-8.7278820582890032e-06 -2.4452428083561535 0
-8.9670021720648151e-07 -2.4379856022872106 0
-7.5311796892523441e-08 -2.427505019606524 0
-4.6011557177520654e-09 -2.4169114910570784 0
-7.8812364860711346e-18 -2.2757081643907848 0
-3.475846962830999e-05 -0.09218667408681952 0
-3.9178474434249885e-05 -0.10355152839634427 0
-4.2612299698035308e-05 -0.11320715490439595 0
-4.5960273458702094e-05 -0.12341316362273891 0
-4.8910096237737605e-05 -0.13442042531629436 0
-5.153658182714033e-05 -0.14649316405534898 0
-5.4802061056160394e-05 -0.15997888592278503 0
-5.689079031117259e-05 -0.17539737509583672 0
-6.0952104876348574e-05 -0.19342106884564714 0
-6.5418804036804519e-05 -0.21495594939406659 0
-6.9543617722754575e-05 -0.24124480917690475 0
-7.4181701986790596e-05 -0.27402523360909931 0
-7.9125937909579482e-05 -0.31579403044342846 0
-8.6043353260501664e-05 -0.37053889335764512 0
-9.3063396896361141e-05 -0.44672530205838307 0
-0.00010211038776615393 -0.56210872527665012 0
-0.00011630411291155092 -0.76924017230852226 0
-0.00014263335593209857 -1.2796110673313181 0
-0.00014647581474291107 -2.1123117524877886 0
-5.2631369163191808e-05 -2.4169209360639021 0
-8.1938272166060146e-06 -2.4440852003756826 0
-8.9075401555677557e-07 -2.4376453334541468 0
-7.9722781746367652e-08 -2.4274243435259768 0
-5.137775997548527e-09 -2.4171647898493469 0
-1.3789635331614974e-17 -2.2766637647098582 0
-1.4152697902018856e-05 -0.092777834532708478 0
-1.6470148078828509e-05 -0.10418476013341947 0
-1.7839013781097252e-05 -0.11389130968932762 0
-1.9031530803658044e-05 -0.12417567516314065 0
-2.0210995183802219e-05 -0.13529119885226742 0
-2.0353832195842473e-05 -0.14749837636567886 0
-2.1051162803803362e-05 -0.16115881426482481 0
-2.4205376278607379e-05 -0.17680139509732898 0
-2.5909827579935501e-05 -0.19510034796795003 0
-2.8872343692630204e-05 -0.21696332349315325 0
-3.2022354203976221e-05 -0.24364664769227767 0
-3.4674655464646752e-05 -0.2768842554351193 0
-3.8859124432083108e-05 -0.31914802473776049 0
-4.3257521727074489e-05 -0.37433615034548195 0
-4.7684315153686513e-05 -0.45074831187538572 0
-5.316575466082165e-05 -0.56563551299561032 0
-5.9813061314513625e-05 -0.76886256055502 0
-6.6955557542329686e-05 -1.2576710046048036 0
-5.2793008432332958e-05 -2.0852877259524729 0
-1.9360550008677519e-05 -2.4127226902229251 0
-4.3549059746762655e-06 -2.4433362793646611 0
-5.8804465781477361e-07 -2.4372550580438639 0
-5.9143229429314956e-08 -2.4270835150184991 0
-4.1481671345896149e-09 -2.416945914066714 0
-2.2891310180021882e-17 -2.2781686934927343 0
-5.1011010140096967e-06 -0.092779656886506426 0
-5.9280982864688166e-06 -0.10420275856264852 0
-6.7873140620702501e-06 -0.11392574218013901 0
-7.403142711517371e-06 -0.12422930479449595 0
-8.0442013184258203e-06 -0.13536753101354543 0
-9.1247797539473759e-06 -0.14760546761404325 0
-9.7073800303591074e-06 -0.16130073170834014 0
-9.7271549324490386e-06 -0.17699157339862087 0
-1.1454574142702057e-05 -0.19535336895372452 0
-1.2564852834438105e-05 -0.21728908859963728 0
-1.3545009693128509e-05 -0.2440633092962366 0
-1.5654840600422717e-05 -0.27741417856311645 0
-1.6990633305982287e-05 -0.31980086706190752 0
-1.9181881931557753e-05 -0.3751030201267852 0
-2.189904070427574e-05 -0.45158773300340399 0
-2.3792424374851685e-05 -0.56636745493816043 0
-2.7011387987667103e-05 -0.76869265772823148 0
-2.8259243348526275e-05 -1.2514691070084403 0
-1.9402122845658035e-05 -2.0759876955846672 0
-7.152197450033909e-06 -2.4107607460095282 0
-1.7751323863278383e-06 -2.442828259104675 0
-2.9454199262145115e-07 -2.4368667667493598 0
-3.4416640908874149e-08 -2.4266748500418762 0
-2.6855267091470907e-09 -2.4165365047673757 0
-2.9281227153649861e-17 -2.2797299576401535 0
-7.3343144963476584e-07 -0.092712044531237991 0
-1.0030261685570817e-06 -0.10414123209499977 0
-1.2724498151589922e-06 -0.11386872240674598 0
-1.4338025613635538e-06 -0.12417693759158427 0
-1.5964379062852069e-06 -0.13532222705446526 0
-1.2722896059730242e-06 -0.14756547679733464 0
-2.2247263331365478e-06 -0.16127011995574986 0
-2.1099212939995281e-06 -0.17697223703267312 0
-2.7230319844862071e-06 -0.19534939314756658 0
-2.5069258340694338e-06 -0.21730368277966952 0
-3.3790905002195215e-06 -0.24410173924266818 0
-4.2776791920571134e-06 -0.27747672014092523 0
-5.5386730257697495e-06 -0.31988932044868179 0
-8.3851189340550672e-06 -0.37521282095499725 0
-9.237669758836165e-06 -0.45169927056400183 0
-1.0277297292962312e-05 -0.56641351594276468 0
-1.0702079332274052e-05 -0.76836519266474035 0
-9.9305474251719346e-06 -1.2492830437720006 0
-6.7445872749033064e-06 -2.0728251288258197 0
-2.5389691195964451e-06 -2.4099069172147947 0
-6.5867599801044964e-07 -2.4424809396085569 0
-1.2331366569499248e-07 -2.4365345194398897 0
-1.6636923325557302e-08 -2.4263040111355538 0
-1.4579945358827782e-09 -2.416126536649537 0
-2.8068316454841373e-17 -2.2809945523021673 0
2.1086849129942826e-06 -0.092665926909323099 0
2.151353372492385e-06 -0.10409525686222072 0
2.1640619497358282e-06 -0.11382270333968997 0
2.288087233734862e-06 -0.12413209183043408 0
3.1056431699824047e-06 -0.13527745793568069 0
3.7732894591288086e-06 -0.14752232200423787 0
3.1873576372743342e-06 -0.16122906418836061 0
4.3812538347538482e-06 -0.17693404469163374 0
3.482941714683609e-06 -0.19531551237265887 0
1.1117893568403308e-06 -0.21727667674192083 0
1.4671778274716761e-06 -0.24407933664334713 0
1.2390289236190948e-06 -0.27746008894290358 0
1.4357500333928914e-06 -0.319879569835953 0
-7.2180590907338001e-07 -0.37520127788730462 0
-7.870082938519297e-07 -0.4516778411102888 0
-9.2395666257312217e-07 -0.56635241822221238 0
-8.9803401221806794e-07 -0.76815906793807232 0
-7.0250073147726395e-07 -1.2484452889450774 0
-9.3988123824504485e-07 -2.071722934388164 0
-5.4675303195587602e-07 -2.4095427094323938 0
-1.8429342014231279e-07 -2.4422607205261531 0
-4.2533363404755496e-08 -2.4362961942752617 0
-6.7769652991112165e-09 -2.4260279728354139 0
-6.7235922895658148e-10 -2.4158133199217717 0
-2.0100594975036102e-17 -2.2818386341023387 0
3.8606061483344507e-06 -0.092641537700971069 0
4.1594578432819224e-06 -0.10407026484464088 0
3.5017143636327878e-06 -0.11379902994386783 0
4.2400671516974777e-06 -0.12410871199507229 0
4.6573975295191112e-06 -0.13525428810433401 0
4.4140674716059641e-06 -0.14749916298820728 0
5.1336167051985693e-06 -0.16120666751773938 0
5.3717683447150173e-06 -0.17691245140913803 0
6.05672775039457e-06 -0.19529391278775554 0
5.4356470261712237e-06 -0.2172532072539641 0
4.2284455461125646e-06 -0.24405830625033698 0
4.2870231801595052e-06 -0.27743904638527966 0
3.9536579244330509e-06 -0.31985890830163649 0
4.8293041969409029e-06 -0.37518144107849666 0
5.0851114440789556e-06 -0.45165229421515252 0
5.4495037137670522e-06 -0.56631445712519013 0
4.6416295399943246e-06 -0.76806159032469956 0
2.9829108392439178e-06 -1.2481285720912048 0
8.5344266378513974e-07 -2.0713357808704194 0
2.0769273894443462e-08 -2.4093900019126315 0
3.5967077803077901e-08 -2.4421402065563917 0
-6.1593927432831894e-09 -2.4361570509280113 0
-1.9564105519814806e-09 -2.4258642273438706 0
-2.363193953635737e-10 -2.4156267775344946 0
-9.3994485933748935e-18 -2.2822943811074761 0
3.7695070073472155e-06 -0.092636354918908648 0
4.6454186898869138e-06 -0.1040643701330458 0
6.2361997568297984e-06 -0.1137925298452329 0
7.063045892915009e-06 -0.12410121914379568 0
8.1934192095267815e-06 -0.13524665355426518 0
9.1805678930842274e-06 -0.14749216764566048 0
1.1099572090375545e-05 -0.16119934896431778 0
9.6971690512340324e-06 -0.17690629074827027 0
9.2343505833747969e-06 -0.19528912845256613 0
1.0294183417443892e-05 -0.21724884608941653 0
9.608185618573736e-06 -0.24405314278203935 0
9.9357768010280705e-06 -0.27743573476916 0
7.4870051592557839e-06 -0.3198482197178395 0
7.1321995284836508e-06 -0.37516887325089965 0
6.6980172899866566e-06 -0.45163950278366904 0
6.600107753014199e-06 -0.56629801245360645 0
5.6467572687461948e-06 -0.76802969825696477 0
4.3864343510417772e-06 -1.248042057541499 0
1.9299825127036733e-06 -2.0712347369798603 0
1.0299547482396303e-06 -2.4093477855942091 0
1.1269884045761916e-07 -2.4421020150201085 0
8.8669358719659941e-09 -2.436111745952346 0
5.0316333219515329e-10 -2.4258106517857891 0
2.2799202077016098e-11 -2.4155658390896044 0
1.4462153538683882e-18 -2.2824351411874639 0
3.7654300297615537e-06 -0.092643085953195439 0
4.399952086033342e-06 -0.10407150771550082 0
4.7234373849838174e-06 -0.11380022983315484 0
5.0235952031826458e-06 -0.12411005288926516 0
5.3877943805318315e-06 -0.13525616653996472 0
6.3095968325611662e-06 -0.14750058899821944 0
7.5570429271973657e-06 -0.16120744604610551 0
7.6311633968984492e-06 -0.17691363844010038 0
8.3422446612347997e-06 -0.19529734354361217 0
8.1525816133876622e-06 -0.21725436804142378 0
9.1679212867114775e-06 -0.24405815348769497 0
9.2362497711307692e-06 -0.27744203309517634 0
9.0541410096200961e-06 -0.31986116168745532 0
9.5146234847478788e-06 -0.37518330095897501 0
8.9064518051587549e-06 -0.45165403315422514 0
8.9509520150354767e-06 -0.56631349922889451 0
7.7037716723666759e-06 -0.76806048296565377 0
6.4245477474076555e-06 -1.2481162290863987 0
-1.1155385728252832e-07 -2.0713292181400695 0
2.5555940062267471e-07 -2.409389708217835 0
7.286980266129179e-08 -2.4421402570976913 0
1.8227628938423316e-08 -2.4361570614361754 0
2.7779143985548052e-09 -2.4258642285613017 0
2.7865107671558773e-10 -2.4156267776288338 0
1.2121100898970472e-17 -2.2822943811074761 0
2.5260644858707402e-06 -0.092665932584858918 0
3.1526093902283216e-06 -0.10409449469236201 0
3.7113989274138706e-06 -0.11382291028071898 0
3.96094981652519e-06 -0.12413208097893282 0
5.1152813555721777e-06 -0.13527796783051593 0
4.9974768573962194e-06 -0.1475226377089465 0
4.7020381891812841e-06 -0.16122914275889905 0
5.3455376544147551e-06 -0.17693395403596424 0
5.8448514866033205e-06 -0.19531643123408415 0
5.2231844027385867e-06 -0.21727535645432933 0
6.0219915852738639e-06 -0.24407566336277822 0
8.2337715815184688e-06 -0.2774565648076488 0
6.8102195357015778e-06 -0.31987912637856963 0
8.1578385381819485e-06 -0.37520143968365605 0
9.1309542474249277e-06 -0.45167830711326118 0
9.8814567741767075e-06 -0.56635320018899571 0
1.0412327208471892e-05 -0.76815664398839056 0
9.058751104168757e-06 -1.2484330630283951 0
4.4436048882007985e-06 -2.0717142617711093 0
9.9906405887848895e-07 -2.4095422339530441 0
2.3962449157764895e-07 -2.4422607987978808 0
4.9425825319028523e-08 -2.4362962115528863 0
7.3835556807123219e-09 -2.4260279749614972 0
7.1005221936581594e-10 -2.4158133200949461 0
2.2321368237224309e-17 -2.2818386341023387 0
4.3958439074672111e-06 -0.092712887842433644 0
5.2170798507128739e-06 -0.10414141986430532 0
5.8980418600086973e-06 -0.11386932635744754 0
6.3953598376551915e-06 -0.12417799231527356 0
7.1106641962524993e-06 -0.13532291270526589 0
7.9457239255292832e-06 -0.14756590889058807 0
8.8619859130217078e-06 -0.161269444948337 0
9.2418248997811981e-06 -0.17697183525916763 0
9.7052100715400018e-06 -0.19534803681524929 0
1.0568054774052794e-05 -0.21730182783614738 0
1.1242273585961028e-05 -0.24409944099468708 0
1.2121606483497051e-05 -0.27747397747449032 0
1.3586827355996806e-05 -0.31988902652171991 0
1.476936552474474e-05 -0.3752101552521116 0
1.6343227719497768e-05 -0.45169474970989559 0
1.7989369721481187e-05 -0.56640706417215647 0
1.9563933954550926e-05 -0.76835774162461501 0
1.8098149176855126e-05 -1.2492700470784741 0
1.0015760814581388e-05 -2.072816626234177 0
3.0270712912686779e-06 -2.4099062629217642 0
7.2130856236171686e-07 -2.4424810149695007 0
1.3060646864671736e-07 -2.4365345415085971 0
1.7239914861399549e-08 -2.4263040140568282 0
1.492335866588129e-09 -2.4161265368911473 0
2.9550318551256767e-17 -2.2809945523021677 0
9.0325472332016371e-06 -0.092779219500382051 0
1.082560418995829e-05 -0.10420080371165152 0
1.1688428565751349e-05 -0.11392485292384204 0
1.2849479016788278e-05 -0.12422766263793684 0
1.3379497572684586e-05 -0.13536783123483329 0
1.5150710328319045e-05 -0.14760451102147573 0
1.5816432611030263e-05 -0.16130052658924293 0
1.7043710313636651e-05 -0.17699145365047589 0
1.7541047596181635e-05 -0.19535425379113427 0
1.8468844227527157e-05 -0.21729018123802837 0
1.9651855588222783e-05 -0.24406510321427333 0
2.1437986510265941e-05 -0.27741195727098156 0
2.2875821850660769e-05 -0.31980053147985055 0
2.5839697135002575e-05 -0.37510247059425766 0
2.8944651743739804e-05 -0.45158527998524689 0
3.1140187872985652e-05 -0.56636430857680564 0
3.4162285602047406e-05 -0.76868470178122239 0
3.4535768405075118e-05 -1.2514524389681105 0
2.3057055594468089e-05 -2.0759773743658694 0
7.9434558651803771e-06 -2.4107602534094554 0
1.8879711495449654e-06 -2.4428284170299639 0
3.0452601706719977e-07 -2.4368668021227089 0
3.5026251105282737e-08 -2.4266748541727559 0
2.7098853240603019e-09 -2.4165365050806038 0
3.0018109227919781e-17 -2.279729957640154 0
1.736394535892944e-05 -0.092778553309736431 0
2.0096700931856961e-05 -0.10418579137035375 0
2.1492513240044746e-05 -0.1138916858890823 0
2.3723671142624165e-05 -0.12417668937141101 0
2.6225124606797185e-05 -0.13529109202513756 0
2.7876051389689828e-05 -0.14750031321531457 0
2.9784346200141202e-05 -0.16115936568010353 0
3.1633061932282667e-05 -0.17680190368756779 0
3.3096002085323386e-05 -0.19510177757040781 0
3.5439472040136258e-05 -0.21696352025877316 0
3.797090419116525e-05 -0.24364567352511693 0
4.1465618618505241e-05 -0.27688363777857816 0
4.4293815738409822e-05 -0.31914843446233415 0
4.8533541897686647e-05 -0.37433737749402513 0
5.3052390474528104e-05 -0.45074535586034353 0
5.9758592513788284e-05 -0.56563146787317675 0
6.748810488851896e-05 -0.76885354871375555 0
7.5482491734067941e-05 -1.2576512788604257 0
5.9977452941314296e-05 -2.0852813289272851 0
2.1319370811457888e-05 -2.412724819863036 0
4.5140923268908263e-06 -2.4433367759215936 0
5.9654446780439508e-07 -2.4372551203188229 0
5.9432992016506625e-08 -2.4270835207591333 0
4.1479073698237808e-09 -2.4169459144456638 0
2.3123228404987145e-17 -2.2781686934927348 0
3.6963482263507095e-05 -0.09218792500723115 0
4.1655950976996193e-05 -0.10355251928744869 0
4.525275234180594e-05 -0.11320700577152459 0
4.860584108547583e-05 -0.12341408846926766 0
5.1974854367776532e-05 -0.13442096485430866 0
5.5155758163095384e-05 -0.14649432555823072 0
5.8965787398733423e-05 -0.15997856180938888 0
6.2489603011219196e-05 -0.17539792647435803 0
6.561284472239393e-05 -0.19342173213487682 0
6.9545787463430088e-05 -0.21495645595342538 0
7.3993436582006517e-05 -0.24124460563025552 0
7.8668782561965898e-05 -0.2740241422821969 0
8.3533877591798685e-05 -0.31579308364002551 0
9.0064517290984594e-05 -0.37053789924934472 0
9.7814469356685729e-05 -0.44672165240490058 0
0.00010797935105901269 -0.56210306725087689 0
0.00012381265612968709 -0.76922870716184044 0
0.0001533330533359701 -1.2795926017388692 0
0.00015334826641501362 -2.1123196940215263 0
5.3533780303425753e-05 -2.4169282082931214 0
8.2001624489075526e-06 -2.4440861299263315 0
8.8799336969953888e-07 -2.4376454187948173 0
7.9336606240147106e-08 -2.4274243502435762 0
5.1058002985633399e-09 -2.4171647902471363 0
1.3806518618921682e-17 -2.2766637647098587 0
6.0550186512131472e-05 -0.088197125748222499 0
6.7056811416166736e-05 -0.098989962758653002 0
7.1398666219923572e-05 -0.10803168812325888 0
7.6444139680329818e-05 -0.11778636845261992 0
8.1171213157188812e-05 -0.12840149634648415 0
8.6514165996460222e-05 -0.14006324313058419 0
9.0643072351292064e-05 -0.15308146632657543 0
9.4856350934588275e-05 -0.16797593651590306 0
9.9187928552648276e-05 -0.18537889021101378 0
0.00010385965261049202 -0.20615757966999418 0
0.00010953862471770455 -0.2314884990480735 0
0.00011501400645381152 -0.26310063370877734 0
0.00012169771902858512 -0.30348144831987101 0
0.00012970553845896731 -0.35673513100929266 0
0.00013957296598487062 -0.43147075735497759 0
0.00015234834724782935 -0.54702786452399255 0
0.00017204146234452066 -0.77092001932694498 0
0.00020537607709926033 -1.3640299111270358 0
0.00018100553940885944 -2.1830780904231992 0
5.9879599404450276e-05 -2.4261175412069904 0
8.5621276636317483e-06 -2.4452437099316175 0
8.8487986033102481e-07 -2.4379856784776788 0
7.4527360722312572e-08 -2.4275050252799595 0
4.5565957273565048e-09 -2.4169114913784124 0
7.8458678405842359e-18 -2.2757081643907853 0
-0 -0 0
-0 -0 0
-0 -0 0
-0 -0 0
-0 -0 0
-0 -0 0
4.7018821522924771e-05 0.068823932308731822 0
7.1693047635906172e-05 0.10937279554118245 0
8.9577725774551501e-05 0.15798418770336534 0
-0 -0 0
-0 -0 0
-0 -0 0
6.4861006384900829e-05 0.096830589943503756 0
7.3113272545421903e-05 0.11808337996085069 0
8.8839418374910597e-05 0.16775012910156978 0
-0 -0 0
-0 -0 0
-0 -0 0
5.0151732177805155e-05 0.099331591101109604 0
5.8331686504794914e-05 0.12036364345379688 0
7.1836821473522514e-05 0.17043101241357508 0
-0 -0 0
-0 -0 0
-0 -0 0
2.7167737654097909e-05 0.10147207264767967 0
3.2040333021648775e-05 0.12225584540562708 0
4.048632318682514e-05 0.1726100048128561 0
-0 -0 0
-0 -0 0
-0 -0 0
1.0652989325909238e-05 0.10175123749122662 0
1.3096565371510106e-05 0.12263928569601462 0
1.7361950685567384e-05 0.17302400218817979 0
-0 -0 0
-0 -0 0
-0 -0 0
3.1674097546145114e-06 0.1017032239221709 0
4.2196952851915779e-06 0.1225918007177529 0
6.1691815646083693e-06 0.17289537971342522 0
-0 -0 0
-0 -0 0
-0 -0 0
-6.408217704874581e-07 0.10163574390867212 0
-4.6706307874021304e-07 0.12251407326820374 0
1.5835994398598643e-07 0.1727669887897641 0
-0 -0 0
-0 -0 0
-0 -0 0
-3.2904209281018879e-06 0.10159473456937025 0
-3.5817693941202883e-06 0.1224657956699443 0
-3.879007700525523e-06 0.17269362728904553 0
-0 -0 0
-0 -0 0
-0 -0 0
-4.5102543481181863e-06 0.10157730956702969 0
-5.6449802619923427e-06 0.122445094557823 0
-6.9042517640987751e-06 0.1726628251999073 0
-0 -0 0
-0 -0 0
-0 -0 0
-4.2092257736845336e-06 0.10157815405547889 0
-5.5025666096048094e-06 0.12244569219673485 0
-7.0951113261642251e-06 0.17266305875388968 0
-0 -0 0
-0 -0 0
-0 -0 0
-3.4395292898991002e-06 0.10159591261863561 0
-4.2262068216696138e-06 0.12246667393053627 0
-5.4923166632733569e-06 0.17269349490956723 0
-0 -0 0
-0 -0 0
-0 -0 0
-4.2460482363565286e-06 0.10163653660021897 0
-5.3443556918785514e-06 0.12251449446325229 0
-7.0549487463109064e-06 0.17276600235840558 0
-0 -0 0
-0 -0 0
-0 -0 0
-7.5492628309525613e-06 0.10170339854901597 0
-9.4588325588355443e-06 0.12259173568063106 0
-1.2527443753228413e-05 0.17289457350363827 0
-0 -0 0
-0 -0 0
-0 -0 0
-1.4491451394094516e-05 0.10175109765823555 0
-1.7929345559359536e-05 0.12263919263525067 0
-2.3298974169307796e-05 0.17302399729806445 0
-0 -0 0
-0 -0 0
-0 -0 0
-2.9761872330836104e-05 0.1014726776218612 0
-3.5443764795617948e-05 0.12225614612293151 0
-4.4797783258360885e-05 0.17261019780218614 0
-0 -0 0
-0 -0 0
-0 -0 0
-5.1399044123302255e-05 0.099331973994268866 0
-5.9546754157679179e-05 0.12036386077065526 0
-7.2854612184035646e-05 0.17043122949790362 0
-0 -0 0
-0 -0 0
-0 -0 0
-6.5158219167242421e-05 0.096830134262154074 0
-7.2989990237947225e-05 0.11808277510500138 0
-8.7668174895336266e-05 0.16774897018479193 0
-0 -0 0
-0 -0 0
-0 -0 0
-4.7360049090401741e-05 0.068818747089378629 0
-7.1620263689496638e-05 0.10937146673198528 0
-8.8247905120735046e-05 0.15798030011435765 0
-0 -0 0
-0 -0 0
-0 -0 0
-0 -0 0
-0 -0 0
-0 -0 0
-0 -0 0
-0 -0 0
-0 -0 0
-0 -0 0
-0 -0 0
-0 -0 0
-0 -0 0
-0 -0 0
-0 -0 0
-0 -0 0
-0 -0 0
-0 -0 0
-0 -0 0
-0 -0 0
-0 -0 0
-0 -0 0
-0 -0 0
-0 -0 0
-0 -0 0
-0 -0 0
-0 -0 0
-0 -0 0
-0 -0 0
-0 -0 0
-0 -0 0
-0 -0 0
-0 -0 0
-0 -0 0
-0 -0 0
-0 -0 0
-0 -0 0
-0 -0 0
-0 -0 0
-0 -0 0
-0 -0 0
-0 -0 0
-0 -0 0
-0 -0 0
-0 -0 0
-0 -0 0
-0 -0 0
-0 -0 0
-0 -0 0
-0 -0 0
-0 -0 0
-0 -0 0
-0 -0 0
-0 -0 0
-0 -0 0
-0 -0 0
-0 -0 0
-0 -0 0
-0 -0 0
-0 -0 0
-0 -0 0
-0 -0 0
-0 -0 0
-0 -0 0
-0 -0 0
-0 -0 0
-0 -0 0
-0 -0 0
-0 -0 0
-0 -0 0
-0 -0 0
-0 -0 0
-0 -0 0
-0 -0 0
-0 -0 0
-0 -0 0
-0 -0 0
-0 -0 0
-0 -0 0
-0 -0 0
-0 -0 0
-0 -0 0
-0 -0 0
-0 -0 0
-0 -0 0
-0 -0 0
-0 -0 0
-0 -0 0
-0 -0 0
-0 -0 0
-0 -0 0
-0 -0 0
-0 -0 0
-0 -0 0
-0 -0 0
-0 -0 0
-0 -0 0
-0 -0 0
-0 -0 0
-0 -0 0
-0 -0 0
-0 -0 0
-0 -0 0
-0 -0 0
-0 -0 0
-0 -0 0
-0 -0 0
-0 -0 0
-0 -0 0
-0 -0 0
-0 -0 0
-0 -0 0
-0 -0 0
-0 -0 0
-0 -0 0
-0 -0 0
-0 -0 0
-0 -0 0
-0 -0 0
-0 -0 0
-0 -0 0
-0 -0 0
-0 -0 0
-0 -0 0
-0 -0 0
-0 -0 0
-0 -0 0
-0 -0 0
-0 -0 0
-0 -0 0
-0 -0 0
-0 -0 0
-0 -0 0
-0 -0 0
-0 -0 0
-0 -0 0
-0 -0 0
-0 -0 0
-0 -0 0
-0 -0 0
-0 -0 0
-0 -0 0
-0 -0 0
-0 -0 0
-0 -0 0
-0 -0 0
-0 -0 0
-0 -0 0
-0 -0 0
-0 -0 0
-0 -0 0
-0 -0 0
-0 -0 0
-0 -0 0
-0 -0 0
-0 -0 0
-0 -0 0
-0 -0 0
-0 -0 0
-0 -0 0
-0 -0 0
-0 -0 0
-0 -0 0
-0 -0 0
-0 -0 0
-0 -0 0
-0 -0 0
-0 -0 0
-0 -0 0
-0 -0 0
-0 -0 0
-0 -0 0
-0 -0 0
-0 -0 0
-0 -0 0
-0 -0 0
-0 -0 0
-0 -0 0
-0 -0 0
-0 -0 0
-0 -0 0
-0 -0 0
-0 -0 0
-0 -0 0
-0 -0 0
-0 -0 0
-0 -0 0
-0 -0 0
-0 -0 0
-0 -0 0
-0 -0 0
-0 -0 0
-0 -0 0
-0 -0 0
-0 -0 0
