# vtk DataFile Version 3.0
SPH particles (WCSPH) - legacy PolyData
ASCII
DATASET POLYDATA
POINTS 681 float
0.050000000000000003 0.042340626680773555 0
0.050000000000000003 0.050121076248599641 0
0.050000000000000003 0.057545591450171373 0
0.050000000000000003 0.067259502345850583 0
0.050000000000000003 0.080834642569855591 0
0.050000000000000003 0.09830842336175119 0
0.050000000000000003 0.11763852153514047 0
0.050000000000000003 0.13748416378029374 0
0.050000000000000003 0.15745067558177359 0
0.050000000000000003 0.17744360787115013 0
0.050000000000000003 0.19744215604694543 0
0.050000000000000003 0.21744186784418029 0
0.050000000000000003 0.23744181531108771 0
0.050000000000000003 0.25744181944517708 0
0.050000000000000003 0.27744188713869794 0
0.050000000000000003 0.2974422032792382 0
0.050000000000000003 0.31744354837709154 0
0.050000000000000003 0.33744885690794851 0
0.050000000000000003 0.3574681872607382 0
0.050000000000000003 0.3775327239719713 0
0.050000000000000003 0.39772930747540458 0
0.050000000000000003 0.41827561655092471 0
0.050000000000000003 0.43967516462019374 0
0.050000000000000003 0.46314558359605379 0
0.050000000000000003 0.49504797481022023 0
0.070000000000000007 0.04183439242324536 0
0.070000000000000007 0.050067115806927673 0
0.070000000000000007 0.057943648340247192 0
0.070000000000000007 0.067861416394218471 0
0.070000000000000007 0.081256032792485972 0
0.070000000000000007 0.09844133071367632 0
0.070000000000000007 0.11766483071868444 0
0.070000000000000007 0.13748947278631013 0
0.070000000000000007 0.1574518043546817 0
0.070000000000000007 0.17744384565427226 0
0.070000000000000007 0.19744220477174118 0
0.070000000000000007 0.2174418775637236 0
0.070000000000000007 0.23744181762653935 0
0.070000000000000007 0.25744182219471567 0
0.070000000000000007 0.27744189843795952 0
0.070000000000000007 0.29744225218515158 0
0.070000000000000007 0.31744374663314229 0
0.070000000000000007 0.33744960451517053 0
0.070000000000000007 0.35747080869670955 0
0.070000000000000007 0.37754129027475503 0
0.070000000000000007 0.39775543650675715 0
0.070000000000000007 0.41834923300406579 0
0.070000000000000007 0.43985136960949495 0
0.070000000000000007 0.46342465663978544 0
0.070000000000000007 0.49457180284418956 0
0.090000000000000011 0.04185776726605428 0
0.090000000000000011 0.050127575209189972 0
0.090000000000000011 0.058050665518165644 0
0.090000000000000011 0.068023521031651948 0
0.090000000000000011 0.081401949306590268 0
0.090000000000000011 0.09849792784993891 0
0.090000000000000011 0.11767686767763705 0
0.090000000000000011 0.13749179933034281 0
0.090000000000000011 0.15745227849956295 0
0.090000000000000011 0.17744394419822646 0
0.090000000000000011 0.1974422250017194 0
0.090000000000000011 0.21744188163265402 0
0.090000000000000011 0.23744181860844826 0
0.090000000000000011 0.25744182337235866 0
0.090000000000000011 0.27744190329451368 0
0.090000000000000011 0.29744227340459278 0
0.090000000000000011 0.31744383424685252 0
0.090000000000000011 0.33744994476032802 0
0.090000000000000011 0.35747204987596914 0
0.090000000000000011 0.37754551665859043 0
0.090000000000000011 0.39776861226960791 0
0.090000000000000011 0.41838509804658991 0
0.090000000000000011 0.43992690541230928 0
0.090000000000000011 0.46351610138380667 0
0.090000000000000011 0.4944872981784138 0
0.11000000000000001 0.041868893893031368 0
0.11000000000000001 0.050148955934725251 0
0.11000000000000001 0.05808357847281289 0
0.11000000000000001 0.068068284109952013 0
0.11000000000000001 0.081444228216545234 0
0.11000000000000001 0.098518648306139323 0
0.11000000000000001 0.1176827151659062 0
0.11000000000000001 0.13749309590269509 0
0.11000000000000001 0.15745255326727148 0
0.11000000000000001 0.17744400190065143 0
0.11000000000000001 0.19744223693749263 0
0.11000000000000001 0.21744188405807041 0
0.11000000000000001 0.23744181920034577 0
0.11000000000000001 0.25744182407476779 0
0.11000000000000001 0.27744190615251441 0
0.11000000000000001 0.29744228575944925 0
0.11000000000000001 0.3174438846117153 0
0.11000000000000001 0.33745013646755445 0
0.11000000000000001 0.35747272443591949 0
0.11000000000000001 0.37754767010651658 0
0.11000000000000001 0.39777464094330672 0
0.11000000000000001 0.41839903372549442 0
0.11000000000000001 0.4399510022642934 0
0.11000000000000001 0.4635430278536255 0
0.11000000000000001 0.49447220571305461 0
0.13 0.041871085938222891 0
0.13 0.05015462284662929 0
0.13 0.058092694899917141 0
0.13 0.068080732408896491 0
0.13 0.081456363675591684 0
0.13 0.098525307610055762 0
0.13 0.11768494740560993 0
0.13 0.13749367395699233 0
0.13 0.15745268754735101 0
0.13 0.17744403146977739 0
0.13 0.19744224321951059 0
0.13 0.21744188535940476 0
0.13 0.23744181952192478 0
0.13 0.2574418244462392 0
0.13 0.27744190762525511 0
0.13 0.2974422919786423 0
0.13 0.31744390923074944 0
0.13 0.33745022646774836 0
0.13 0.35747302344639875 0
0.13 0.37754855068919868 0
0.13 0.3977768553833062 0
0.13 0.41840354967966648 0
0.13 0.43995798280369663 0
0.13 0.46355046760791108 0
0.13 0.49447066047543697 0
0.15000000000000002 0.041871517090798054 0
0.15000000000000002 0.050155998757374004 0
0.15000000000000002 0.058095032964739099 0
0.15000000000000002 0.068084021188736216 0
0.15000000000000002 0.081459691345952837 0
0.15000000000000002 0.098527277314182329 0
0.15000000000000002 0.11768568809746574 0
0.15000000000000002 0.13749389107393192 0
0.15000000000000002 0.15745274328970518 0
0.15000000000000002 0.17744404460365673 0
0.15000000000000002 0.19744224613453204 0
0.15000000000000002 0.21744188598164468 0
0.15000000000000002 0.23744181967803443 0
0.15000000000000002 0.2574418246188015 0
0.15000000000000002 0.27744190828371046 0
0.15000000000000002 0.29744229466665184 0
0.15000000000000002 0.31744391944446854 0
0.15000000000000002 0.33745026191763594 0
0.15000000000000002 0.35747313371588602 0
0.15000000000000002 0.37754885019470974 0
0.15000000000000002 0.39777754285540379 0
0.15000000000000002 0.41840484060493438 0
0.15000000000000002 0.43995982346687668 0
0.15000000000000002 0.46355236319260468 0
0.15000000000000002 0.49447082872356246 0
0.17000000000000004 0.041871615389071283 0
0.17000000000000004 0.050156324819610174 0
0.17000000000000004 0.058095600853815606 0
0.17000000000000004 0.068084837182902494 0
0.17000000000000004 0.081460543161321702 0
0.17000000000000004 0.098527811202316157 0
0.17000000000000004 0.11768590644459766 0
0.17000000000000004 0.1374939614982818 0
0.17000000000000004 0.15745276302878186 0
0.17000000000000004 0.17744404958809079 0
0.17000000000000004 0.19744224729770501 0
0.17000000000000004 0.21744188623897306 0
0.17000000000000004 0.23744181974366332 0
0.17000000000000004 0.25744182468744553 0
0.17000000000000004 0.2774419085337882 0
0.17000000000000004 0.29744229564822872 0
0.17000000000000004 0.31744392300724206 0
0.17000000000000004 0.33745027362320817 0
0.17000000000000004 0.35747316785297478 0
0.17000000000000004 0.3775489364771849 0
0.17000000000000004 0.39777772705737546 0
0.17000000000000004 0.41840516543183065 0
0.17000000000000004 0.43996026313439096 0
0.17000000000000004 0.46355280678944455 0
0.17000000000000004 0.49447096323186052 0
0.19 0.041871633394143723 0
0.19 0.050156384719493047 0
0.19 0.058095706019293702 0
0.19 0.068084989679373029 0
0.19 0.081460705233991182 0
0.19 0.098527916523477282 0
0.19 0.11768595186727111 0
0.19 0.13749397706864269 0
0.19 0.15745276765404212 0
0.19 0.17744405081438913 0
0.19 0.19744224759476192 0
0.19 0.21744188630651304 0
0.19 0.23744181976109791 0
0.19 0.25744182470488625 0
0.19 0.27744190859498413 0
0.19 0.29744229588107557 0
0.19 0.31744392382277165 0
0.19 0.33745027619335299 0
0.19 0.35747317500364856 0
0.19 0.37754895367006724 0
0.19 0.39777776201921033 0
0.19 0.41840522397404473 0
0.19 0.43996034100830278 0
0.19 0.46355288535431571 0
0.19 0.49447099623286622 0
0.21000000000000002 0.04187161538907129 0
0.21000000000000002 0.050156324819610174 0
0.21000000000000002 0.058095600853815592 0
0.21000000000000002 0.068084837182902494 0
0.21000000000000002 0.081460543161321688 0
0.21000000000000002 0.098527811202316157 0
0.21000000000000002 0.11768590644459766 0
0.21000000000000002 0.1374939614982818 0
0.21000000000000002 0.15745276302878186 0
0.21000000000000002 0.17744404958809079 0
0.21000000000000002 0.19744224729770501 0
0.21000000000000002 0.21744188623897306 0
0.21000000000000002 0.23744181974366332 0
0.21000000000000002 0.25744182468744553 0
0.21000000000000002 0.2774419085337882 0
0.21000000000000002 0.29744229564822872 0
0.21000000000000002 0.31744392300724206 0
0.21000000000000002 0.33745027362320817 0
0.21000000000000002 0.35747316785297478 0
0.21000000000000002 0.3775489364771849 0
0.21000000000000002 0.39777772705737546 0
0.21000000000000002 0.41840516543183065 0
0.21000000000000002 0.43996026313439096 0
0.21000000000000002 0.46355280678944455 0
0.21000000000000002 0.49447096323186052 0
0.23000000000000004 0.041871517090798054 0
0.23000000000000004 0.050155998757374004 0
0.23000000000000004 0.058095032964739099 0
0.23000000000000004 0.068084021188736216 0
0.23000000000000004 0.08145969134595285 0
0.23000000000000004 0.098527277314182329 0
0.23000000000000004 0.11768568809746574 0
0.23000000000000004 0.13749389107393192 0
0.23000000000000004 0.15745274328970518 0
0.23000000000000004 0.17744404460365673 0
0.23000000000000004 0.19744224613453204 0
0.23000000000000004 0.21744188598164468 0
0.23000000000000004 0.23744181967803443 0
0.23000000000000004 0.2574418246188015 0
0.23000000000000004 0.27744190828371046 0
0.23000000000000004 0.29744229466665184 0
0.23000000000000004 0.31744391944446854 0
0.23000000000000004 0.33745026191763594 0
0.23000000000000004 0.35747313371588602 0
0.23000000000000004 0.37754885019470974 0
0.23000000000000004 0.39777754285540379 0
0.23000000000000004 0.41840484060493438 0
0.23000000000000004 0.43995982346687668 0
0.23000000000000004 0.46355236319260468 0
0.23000000000000004 0.49447082872356246 0
0.25000000000000006 0.041871085938222891 0
0.25000000000000006 0.05015462284662929 0
0.25000000000000006 0.058092694899917141 0
0.25000000000000006 0.068080732408896491 0
0.25000000000000006 0.081456363675591684 0
0.25000000000000006 0.098525307610055762 0
0.25000000000000006 0.11768494740560993 0
0.25000000000000006 0.13749367395699233 0
0.25000000000000006 0.15745268754735101 0
0.25000000000000006 0.17744403146977739 0
0.25000000000000006 0.19744224321951059 0
0.25000000000000006 0.21744188535940476 0
0.25000000000000006 0.23744181952192478 0
0.25000000000000006 0.2574418244462392 0
0.25000000000000006 0.27744190762525511 0
0.25000000000000006 0.2974422919786423 0
0.25000000000000006 0.31744390923074944 0
0.25000000000000006 0.33745022646774836 0
0.25000000000000006 0.35747302344639875 0
0.25000000000000006 0.37754855068919868 0
0.25000000000000006 0.3977768553833062 0
0.25000000000000006 0.41840354967966648 0
0.25000000000000006 0.43995798280369663 0
0.25000000000000006 0.46355046760791108 0
0.25000000000000006 0.49447066047543697 0
0.27000000000000002 0.041868893893031368 0
0.27000000000000002 0.050148955934725244 0
0.27000000000000002 0.05808357847281289 0
0.27000000000000002 0.068068284109952013 0
0.27000000000000002 0.081444228216545234 0
0.27000000000000002 0.098518648306139323 0
0.27000000000000002 0.1176827151659062 0
0.27000000000000002 0.13749309590269509 0
0.27000000000000002 0.15745255326727148 0
0.27000000000000002 0.17744400190065143 0
0.27000000000000002 0.19744223693749263 0
0.27000000000000002 0.21744188405807041 0
0.27000000000000002 0.23744181920034577 0
0.27000000000000002 0.25744182407476779 0
0.27000000000000002 0.27744190615251441 0
0.27000000000000002 0.29744228575944925 0
0.27000000000000002 0.3174438846117153 0
0.27000000000000002 0.33745013646755445 0
0.27000000000000002 0.35747272443591949 0
0.27000000000000002 0.37754767010651658 0
0.27000000000000002 0.39777464094330672 0
0.27000000000000002 0.41839903372549442 0
0.27000000000000002 0.4399510022642934 0
0.27000000000000002 0.4635430278536255 0
0.27000000000000002 0.49447220571305461 0
0.29000000000000004 0.041857767266054287 0
0.29000000000000004 0.050127575209189978 0
0.29000000000000004 0.058050665518165644 0
0.29000000000000004 0.068023521031651948 0
0.29000000000000004 0.081401949306590268 0
0.29000000000000004 0.09849792784993891 0
0.29000000000000004 0.11767686767763705 0
0.29000000000000004 0.13749179933034281 0
0.29000000000000004 0.15745227849956295 0
0.29000000000000004 0.17744394419822646 0
0.29000000000000004 0.1974422250017194 0
0.29000000000000004 0.21744188163265402 0
0.29000000000000004 0.23744181860844826 0
0.29000000000000004 0.25744182337235866 0
0.29000000000000004 0.27744190329451368 0
0.29000000000000004 0.29744227340459278 0
0.29000000000000004 0.31744383424685252 0
0.29000000000000004 0.33744994476032802 0
0.29000000000000004 0.35747204987596914 0
0.29000000000000004 0.37754551665859043 0
0.29000000000000004 0.39776861226960791 0
0.29000000000000004 0.41838509804658991 0
0.29000000000000004 0.43992690541230928 0
0.29000000000000004 0.46351610138380667 0
0.29000000000000004 0.4944872981784138 0
0.31000000000000005 0.041834392423245353 0
0.31000000000000005 0.050067115806927673 0
0.31000000000000005 0.057943648340247192 0
0.31000000000000005 0.067861416394218471 0
0.31000000000000005 0.081256032792485972 0
0.31000000000000005 0.09844133071367632 0
0.31000000000000005 0.11766483071868444 0
0.31000000000000005 0.13748947278631013 0
0.31000000000000005 0.1574518043546817 0
0.31000000000000005 0.17744384565427226 0
0.31000000000000005 0.19744220477174118 0
0.31000000000000005 0.2174418775637236 0
0.31000000000000005 0.23744181762653935 0
0.31000000000000005 0.25744182219471567 0
0.31000000000000005 0.27744189843795952 0
0.31000000000000005 0.29744225218515158 0
0.31000000000000005 0.31744374663314229 0
0.31000000000000005 0.33744960451517053 0
0.31000000000000005 0.35747080869670955 0
0.31000000000000005 0.37754129027475503 0
0.31000000000000005 0.39775543650675715 0
0.31000000000000005 0.41834923300406579 0
0.31000000000000005 0.43985136960949495 0
0.31000000000000005 0.46342465663978544 0
0.31000000000000005 0.49457180284418956 0
0.33000000000000002 0.042340626680773541 0
0.33000000000000002 0.050121076248599628 0
0.33000000000000002 0.057545591450171373 0
0.33000000000000002 0.067259502345850583 0
0.33000000000000002 0.080834642569855605 0
0.33000000000000002 0.09830842336175119 0
0.33000000000000002 0.11763852153514047 0
0.33000000000000002 0.13748416378029374 0
0.33000000000000002 0.15745067558177359 0
0.33000000000000002 0.17744360787115013 0
0.33000000000000002 0.19744215604694543 0
0.33000000000000002 0.21744186784418029 0
0.33000000000000002 0.23744181531108771 0
0.33000000000000002 0.25744181944517708 0
0.33000000000000002 0.27744188713869794 0
0.33000000000000002 0.2974422032792382 0
0.33000000000000002 0.31744354837709154 0
0.33000000000000002 0.33744885690794851 0
0.33000000000000002 0.3574681872607382 0
0.33000000000000002 0.3775327239719713 0
0.33000000000000002 0.39772930747540458 0
0.33000000000000002 0.41827561655092471 0
0.33000000000000002 0.43967516462019374 0
0.33000000000000002 0.46314558359605379 0
0.33000000000000002 0.49504797481022023 0
0 0 0
0 0.020000000000000004 0
0 0.040000000000000001 0
0 0.54999999999999993 0
0 0.56000000000000005 0
0 0.58000000000000007 0
0.02 0 0
0.02 0.020000000000000004 0
0.02 0.040000000000000001 0
0.02 0.54999999999999993 0
0.02 0.56000000000000005 0
0.02 0.58000000000000007 0
0.040000000000000001 0 0
0.040000000000000001 0.020000000000000004 0
0.040000000000000001 0.040000000000000001 0
0.040000000000000001 0.54999999999999993 0
0.040000000000000001 0.56000000000000005 0
0.040000000000000001 0.58000000000000007 0
0.059999999999999998 0 0
0.059999999999999998 0.020000000000000004 0
0.059999999999999998 0.040000000000000001 0
0.059999999999999998 0.54999999999999993 0
0.059999999999999998 0.56000000000000005 0
0.059999999999999998 0.58000000000000007 0
0.080000000000000002 0 0
0.080000000000000002 0.020000000000000004 0
0.080000000000000002 0.040000000000000001 0
0.080000000000000002 0.54999999999999993 0
0.080000000000000002 0.56000000000000005 0
0.080000000000000002 0.58000000000000007 0
0.10000000000000001 0 0
0.10000000000000001 0.020000000000000004 0
0.10000000000000001 0.040000000000000001 0
0.10000000000000001 0.54999999999999993 0
0.10000000000000001 0.56000000000000005 0
0.10000000000000001 0.58000000000000007 0
0.12 0 0
0.12 0.020000000000000004 0
0.12 0.040000000000000001 0
0.12 0.54999999999999993 0
0.12 0.56000000000000005 0
0.12 0.58000000000000007 0
0.14000000000000001 0 0
0.14000000000000001 0.020000000000000004 0
0.14000000000000001 0.040000000000000001 0
0.14000000000000001 0.54999999999999993 0
0.14000000000000001 0.56000000000000005 0
0.14000000000000001 0.58000000000000007 0
0.16 0 0
0.16 0.020000000000000004 0
0.16 0.040000000000000001 0
0.16 0.54999999999999993 0
0.16 0.56000000000000005 0
0.16 0.58000000000000007 0
0.17999999999999999 0 0
0.17999999999999999 0.020000000000000004 0
0.17999999999999999 0.040000000000000001 0
0.17999999999999999 0.54999999999999993 0
0.17999999999999999 0.56000000000000005 0
0.17999999999999999 0.58000000000000007 0
0.20000000000000001 0 0
0.20000000000000001 0.020000000000000004 0
0.20000000000000001 0.040000000000000001 0
0.20000000000000001 0.54999999999999993 0
0.20000000000000001 0.56000000000000005 0
0.20000000000000001 0.58000000000000007 0
0.22 0 0
0.22 0.020000000000000004 0
0.22 0.040000000000000001 0
0.22 0.54999999999999993 0
0.22 0.56000000000000005 0
0.22 0.58000000000000007 0
0.23999999999999999 0 0
0.23999999999999999 0.020000000000000004 0
0.23999999999999999 0.040000000000000001 0
0.23999999999999999 0.54999999999999993 0
0.23999999999999999 0.56000000000000005 0
0.23999999999999999 0.58000000000000007 0
0.26000000000000001 0 0
0.26000000000000001 0.020000000000000004 0
0.26000000000000001 0.040000000000000001 0
0.26000000000000001 0.54999999999999993 0
0.26000000000000001 0.56000000000000005 0
0.26000000000000001 0.58000000000000007 0
0.28000000000000003 0 0
0.28000000000000003 0.020000000000000004 0
0.28000000000000003 0.040000000000000001 0
0.28000000000000003 0.54999999999999993 0
0.28000000000000003 0.56000000000000005 0
0.28000000000000003 0.58000000000000007 0
0.29999999999999999 0 0
0.29999999999999999 0.020000000000000004 0
0.29999999999999999 0.040000000000000001 0
0.29999999999999999 0.54999999999999993 0
0.29999999999999999 0.56000000000000005 0
0.29999999999999999 0.58000000000000007 0
0.32000000000000001 0 0
0.32000000000000001 0.020000000000000004 0
0.32000000000000001 0.040000000000000001 0
0.32000000000000001 0.54999999999999993 0
0.32000000000000001 0.56000000000000005 0
0.32000000000000001 0.58000000000000007 0
0.34000000000000002 0 0
0.34000000000000002 0.020000000000000004 0
0.34000000000000002 0.040000000000000001 0
0.34000000000000002 0.54999999999999993 0
0.34000000000000002 0.56000000000000005 0
0.34000000000000002 0.58000000000000007 0
0.35999999999999999 0 0
0.35999999999999999 0.020000000000000004 0
0.35999999999999999 0.040000000000000001 0
0.35999999999999999 0.54999999999999993 0
0.35999999999999999 0.56000000000000005 0
0.35999999999999999 0.58000000000000007 0
0.38 0 0
0.38 0.020000000000000004 0
0.38 0.040000000000000001 0
0.38 0.54999999999999993 0
0.38 0.56000000000000005 0
0.38 0.58000000000000007 0
0.40000000000000002 0 0
0.40000000000000002 0.020000000000000004 0
0.40000000000000002 0.040000000000000001 0
0.40000000000000002 0.54999999999999993 0
0.40000000000000002 0.56000000000000005 0
0.40000000000000002 0.58000000000000007 0
0.41999999999999998 0 0
0.41999999999999998 0.020000000000000004 0
0.41999999999999998 0.040000000000000001 0
0.41999999999999998 0.54999999999999993 0
0.41999999999999998 0.56000000000000005 0
0.41999999999999998 0.58000000000000007 0
0.44 0 0
0.44 0.020000000000000004 0
0.44 0.040000000000000001 0
0.44 0.54999999999999993 0
0.44 0.56000000000000005 0
0.44 0.58000000000000007 0
0.46000000000000002 0 0
0.46000000000000002 0.020000000000000004 0
0.46000000000000002 0.040000000000000001 0
0.46000000000000002 0.54999999999999993 0
0.46000000000000002 0.56000000000000005 0
0.46000000000000002 0.58000000000000007 0
0.47999999999999998 0 0
0.47999999999999998 0.020000000000000004 0
0.47999999999999998 0.040000000000000001 0
0.47999999999999998 0.54999999999999993 0
0.47999999999999998 0.56000000000000005 0
0.47999999999999998 0.58000000000000007 0
0.5 0 0
0.5 0.020000000000000004 0
0.5 0.040000000000000001 0
0.5 0.54999999999999993 0
0.5 0.56000000000000005 0
0.5 0.58000000000000007 0
0.52000000000000002 0 0
0.52000000000000002 0.020000000000000004 0
0.52000000000000002 0.040000000000000001 0
0.52000000000000002 0.54999999999999993 0
0.52000000000000002 0.56000000000000005 0
0.52000000000000002 0.58000000000000007 0
0.54000000000000004 0 0
0.54000000000000004 0.020000000000000004 0
0.54000000000000004 0.040000000000000001 0
0.54000000000000004 0.54999999999999993 0
0.54000000000000004 0.56000000000000005 0
0.54000000000000004 0.58000000000000007 0
0.56000000000000005 0 0
0.56000000000000005 0.020000000000000004 0
0.56000000000000005 0.040000000000000001 0
0.56000000000000005 0.54999999999999993 0
0.56000000000000005 0.56000000000000005 0
0.56000000000000005 0.58000000000000007 0
0.57999999999999996 0 0
0.57999999999999996 0.020000000000000004 0
0.57999999999999996 0.040000000000000001 0
0.57999999999999996 0.54999999999999993 0
0.57999999999999996 0.56000000000000005 0
0.57999999999999996 0.58000000000000007 0
0.59999999999999998 0 0
0.59999999999999998 0.020000000000000004 0
0.59999999999999998 0.040000000000000001 0
0.59999999999999998 0.54999999999999993 0
0.59999999999999998 0.56000000000000005 0
0.59999999999999998 0.58000000000000007 0
0.62 0 0
0.62 0.020000000000000004 0
0.62 0.040000000000000001 0
0.62 0.54999999999999993 0
0.62 0.56000000000000005 0
0.62 0.58000000000000007 0
0.64000000000000001 0 0
0.64000000000000001 0.020000000000000004 0
0.64000000000000001 0.040000000000000001 0
0.64000000000000001 0.54999999999999993 0
0.64000000000000001 0.56000000000000005 0
0.64000000000000001 0.58000000000000007 0
0.66000000000000003 0 0
0.66000000000000003 0.020000000000000004 0
0.66000000000000003 0.040000000000000001 0
0.66000000000000003 0.54999999999999993 0
0.66000000000000003 0.56000000000000005 0
0.66000000000000003 0.58000000000000007 0
0.68000000000000005 0 0
0.68000000000000005 0.020000000000000004 0
0.68000000000000005 0.040000000000000001 0
0.68000000000000005 0.54999999999999993 0
0.68000000000000005 0.56000000000000005 0
0.68000000000000005 0.58000000000000007 0
0.70000000000000007 0 0
0.70000000000000007 0.020000000000000004 0
0.70000000000000007 0.040000000000000001 0
0.70000000000000007 0.54999999999999993 0
0.70000000000000007 0.56000000000000005 0
0.70000000000000007 0.58000000000000007 0
0.71999999999999997 0 0
0.71999999999999997 0.020000000000000004 0
0.71999999999999997 0.040000000000000001 0
0.71999999999999997 0.54999999999999993 0
0.71999999999999997 0.56000000000000005 0
0.71999999999999997 0.58000000000000007 0
0.73999999999999999 0 0
0.73999999999999999 0.020000000000000004 0
0.73999999999999999 0.040000000000000001 0
0.73999999999999999 0.54999999999999993 0
0.73999999999999999 0.56000000000000005 0
0.73999999999999999 0.58000000000000007 0
0.76000000000000001 0 0
0.76000000000000001 0.020000000000000004 0
0.76000000000000001 0.040000000000000001 0
0.76000000000000001 0.54999999999999993 0
0.76000000000000001 0.56000000000000005 0
0.76000000000000001 0.58000000000000007 0
0.78000000000000003 0 0
0.78000000000000003 0.020000000000000004 0
0.78000000000000003 0.040000000000000001 0
0.78000000000000003 0.54999999999999993 0
0.78000000000000003 0.56000000000000005 0
0.78000000000000003 0.58000000000000007 0
0.80000000000000004 0 0
0.80000000000000004 0.020000000000000004 0
0.80000000000000004 0.040000000000000001 0
0.80000000000000004 0.54999999999999993 0
0.80000000000000004 0.56000000000000005 0
0.80000000000000004 0.58000000000000007 0
0.82000000000000006 0 0
0.82000000000000006 0.020000000000000004 0
0.82000000000000006 0.040000000000000001 0
0.82000000000000006 0.54999999999999993 0
0.82000000000000006 0.56000000000000005 0
0.82000000000000006 0.58000000000000007 0
0.83999999999999997 0 0
0.83999999999999997 0.020000000000000004 0
0.83999999999999997 0.040000000000000001 0
0.83999999999999997 0.54999999999999993 0
0.83999999999999997 0.56000000000000005 0
0.83999999999999997 0.58000000000000007 0
0.85999999999999999 0 0
0.85999999999999999 0.020000000000000004 0
0.85999999999999999 0.040000000000000001 0
0.85999999999999999 0.54999999999999993 0
0.85999999999999999 0.56000000000000005 0
0.85999999999999999 0.58000000000000007 0
0.88 0 0
0.88 0.020000000000000004 0
0.88 0.040000000000000001 0
0.88 0.54999999999999993 0
0.88 0.56000000000000005 0
0.88 0.58000000000000007 0
0.90000000000000002 0 0
0.90000000000000002 0.020000000000000004 0
0.90000000000000002 0.040000000000000001 0
0.90000000000000002 0.54999999999999993 0
0.90000000000000002 0.56000000000000005 0
0.90000000000000002 0.58000000000000007 0
0.92000000000000004 0 0
0.92000000000000004 0.020000000000000004 0
0.92000000000000004 0.040000000000000001 0
0.92000000000000004 0.54999999999999993 0
0.92000000000000004 0.56000000000000005 0
0.92000000000000004 0.58000000000000007 0
0.94000000000000006 0 0
0.94000000000000006 0.020000000000000004 0
0.94000000000000006 0.040000000000000001 0
0.94000000000000006 0.54999999999999993 0
0.94000000000000006 0.56000000000000005 0
0.94000000000000006 0.58000000000000007 0
0.95999999999999996 0 0
0.95999999999999996 0.020000000000000004 0
0.95999999999999996 0.040000000000000001 0
0.95999999999999996 0.54999999999999993 0
0.95999999999999996 0.56000000000000005 0
0.95999999999999996 0.58000000000000007 0
0.97999999999999998 0 0
0.97999999999999998 0.020000000000000004 0
0.97999999999999998 0.040000000000000001 0
0.97999999999999998 0.54999999999999993 0
0.97999999999999998 0.56000000000000005 0
0.97999999999999998 0.58000000000000007 0
1 0 0
1 0.020000000000000004 0
1 0.040000000000000001 0
1 0.54999999999999993 0
1 0.56000000000000005 0
1 0.58000000000000007 0
VERTICES 681 1362
1 0
1 1
1 2
1 3
1 4
1 5
1 6
1 7
1 8
1 9
1 10
1 11
1 12
1 13
1 14
1 15
1 16
1 17
1 18
1 19
1 20
1 21
1 22
1 23
1 24
1 25
1 26
1 27
1 28
1 29
1 30
1 31
1 32
1 33
1 34
1 35
1 36
1 37
1 38
1 39
1 40
1 41
1 42
1 43
1 44
1 45
1 46
1 47
1 48
1 49
1 50
1 51
1 52
1 53
1 54
1 55
1 56
1 57
1 58
1 59
1 60
1 61
1 62
1 63
1 64
1 65
1 66
1 67
1 68
1 69
1 70
1 71
1 72
1 73
1 74
1 75
1 76
1 77
1 78
1 79
1 80
1 81
1 82
1 83
1 84
1 85
1 86
1 87
1 88
1 89
1 90
1 91
1 92
1 93
1 94
1 95
1 96
1 97
1 98
1 99
1 100
1 101
1 102
1 103
1 104
1 105
1 106
1 107
1 108
1 109
1 110
1 111
1 112
1 113
1 114
1 115
1 116
1 117
1 118
1 119
1 120
1 121
1 122
1 123
1 124
1 125
1 126
1 127
1 128
1 129
1 130
1 131
1 132
1 133
1 134
1 135
1 136
1 137
1 138
1 139
1 140
1 141
1 142
1 143
1 144
1 145
1 146
1 147
1 148
1 149
1 150
1 151
1 152
1 153
1 154
1 155
1 156
1 157
1 158
1 159
1 160
1 161
1 162
1 163
1 164
1 165
1 166
1 167
1 168
1 169
1 170
1 171
1 172
1 173
1 174
1 175
1 176
1 177
1 178
1 179
1 180
1 181
1 182
1 183
1 184
1 185
1 186
1 187
1 188
1 189
1 190
1 191
1 192
1 193
1 194
1 195
1 196
1 197
1 198
1 199
1 200
1 201
1 202
1 203
1 204
1 205
1 206
1 207
1 208
1 209
1 210
1 211
1 212
1 213
1 214
1 215
1 216
1 217
1 218
1 219
1 220
1 221
1 222
1 223
1 224
1 225
1 226
1 227
1 228
1 229
1 230
1 231
1 232
1 233
1 234
1 235
1 236
1 237
1 238
1 239
1 240
1 241
1 242
1 243
1 244
1 245
1 246
1 247
1 248
1 249
1 250
1 251
1 252
1 253
1 254
1 255
1 256
1 257
1 258
1 259
1 260
1 261
1 262
1 263
1 264
1 265
1 266
1 267
1 268
1 269
1 270
1 271
1 272
1 273
1 274
1 275
1 276
1 277
1 278
1 279
1 280
1 281
1 282
1 283
1 284
1 285
1 286
1 287
1 288
1 289
1 290
1 291
1 292
1 293
1 294
1 295
1 296
1 297
1 298
1 299
1 300
1 301
1 302
1 303
1 304
1 305
1 306
1 307
1 308
1 309
1 310
1 311
1 312
1 313
1 314
1 315
1 316
1 317
1 318
1 319
1 320
1 321
1 322
1 323
1 324
1 325
1 326
1 327
1 328
1 329
1 330
1 331
1 332
1 333
1 334
1 335
1 336
1 337
1 338
1 339
1 340
1 341
1 342
1 343
1 344
1 345
1 346
1 347
1 348
1 349
1 350
1 351
1 352
1 353
1 354
1 355
1 356
1 357
1 358
1 359
1 360
1 361
1 362
1 363
1 364
1 365
1 366
1 367
1 368
1 369
1 370
1 371
1 372
1 373
1 374
1 375
1 376
1 377
1 378
1 379
1 380
1 381
1 382
1 383
1 384
1 385
1 386
1 387
1 388
1 389
1 390
1 391
1 392
1 393
1 394
1 395
1 396
1 397
1 398
1 399
1 400
1 401
1 402
1 403
1 404
1 405
1 406
1 407
1 408
1 409
1 410
1 411
1 412
1 413
1 414
1 415
1 416
1 417
1 418
1 419
1 420
1 421
1 422
1 423
1 424
1 425
1 426
1 427
1 428
1 429
1 430
1 431
1 432
1 433
1 434
1 435
1 436
1 437
1 438
1 439
1 440
1 441
1 442
1 443
1 444
1 445
1 446
1 447
1 448
1 449
1 450
1 451
1 452
1 453
1 454
1 455
1 456
1 457
1 458
1 459
1 460
1 461
1 462
1 463
1 464
1 465
1 466
1 467
1 468
1 469
1 470
1 471
1 472
1 473
1 474
1 475
1 476
1 477
1 478
1 479
1 480
1 481
1 482
1 483
1 484
1 485
1 486
1 487
1 488
1 489
1 490
1 491
1 492
1 493
1 494
1 495
1 496
1 497
1 498
1 499
1 500
1 501
1 502
1 503
1 504
1 505
1 506
1 507
1 508
1 509
1 510
1 511
1 512
1 513
1 514
1 515
1 516
1 517
1 518
1 519
1 520
1 521
1 522
1 523
1 524
1 525
1 526
1 527
1 528
1 529
1 530
1 531
1 532
1 533
1 534
1 535
1 536
1 537
1 538
1 539
1 540
1 541
1 542
1 543
1 544
1 545
1 546
1 547
1 548
1 549
1 550
1 551
1 552
1 553
1 554
1 555
1 556
1 557
1 558
1 559
1 560
1 561
1 562
1 563
1 564
1 565
1 566
1 567
1 568
1 569
1 570
1 571
1 572
1 573
1 574
1 575
1 576
1 577
1 578
1 579
1 580
1 581
1 582
1 583
1 584
1 585
1 586
1 587
1 588
1 589
1 590
1 591
1 592
1 593
1 594
1 595
1 596
1 597
1 598
1 599
1 600
1 601
1 602
1 603
1 604
1 605
1 606
1 607
1 608
1 609
1 610
1 611
1 612
1 613
1 614
1 615
1 616
1 617
1 618
1 619
1 620
1 621
1 622
1 623
1 624
1 625
1 626
1 627
1 628
1 629
1 630
1 631
1 632
1 633
1 634
1 635
1 636
1 637
1 638
1 639
1 640
1 641
1 642
1 643
1 644
1 645
1 646
1 647
1 648
1 649
1 650
1 651
1 652
1 653
1 654
1 655
1 656
1 657
1 658
1 659
1 660
1 661
1 662
1 663
1 664
1 665
1 666
1 667
1 668
1 669
1 670
1 671
1 672
1 673
1 674
1 675
1 676
1 677
1 678
1 679
1 680
POINT_DATA 681
SCALARS is_boundary int 1
LOOKUP_TABLE default
0
0
0
0
0
0
0
0
0
0
0
0
0
0
0
0
0
0
0
0
0
0
0
0
0
0
0
0
0
0
0
0
0
0
0
0
0
0
0
0
0
0
0
0
0
0
0
0
0
0
0
0
0
0
0
0
0
0
0
0
0
0
0
0
0
0
0
0
0
0
0
0
0
0
0
0
0
0
0
0
0
0
0
0
0
0
0
0
0
0
0
0
0
0
0
0
0
0
0
0
0
0
0
0
0
0
0
0
0
0
0
0
0
0
0
0
0
0
0
0
0
0
0
0
0
0
0
0
0
0
0
0
0
0
0
0
0
0
0
0
0
0
0
0
0
0
0
0
0
0
0
0
0
0
0
0
0
0
0
0
0
0
0
0
0
0
0
0
0
0
0
0
0
0
0
0
0
0
0
0
0
0
0
0
0
0
0
0
0
0
0
0
0
0
0
0
0
0
0
0
0
0
0
0
0
0
0
0
0
0
0
0
0
0
0
0
0
0
0
0
0
0
0
0
0
0
0
0
0
0
0
0
0
0
0
0
0
0
0
0
0
0
0
0
0
0
0
0
0
0
0
0
0
0
0
0
0
0
0
0
0
0
0
0
0
0
0
0
0
0
0
0
0
0
0
0
0
0
0
0
0
0
0
0
0
0
0
0
0
0
0
0
0
0
0
0
0
0
0
0
0
0
0
0
0
0
0
0
0
0
0
0
0
0
0
0
0
0
0
0
0
0
0
0
0
0
0
0
0
0
0
0
0
0
0
0
0
0
0
0
0
0
0
0
0
0
0
0
0
0
0
0
0
0
0
0
0
0
0
0
0
0
0
0
0
0
0
0
0
0
0
0
0
0
0
1
1
1
1
1
1
1
1
1
1
1
1
1
1
1
1
1
1
1
1
1
1
1
1
1
1
1
1
1
1
1
1
1
1
1
1
1
1
1
1
1
1
1
1
1
1
1
1
1
1
1
1
1
1
1
1
1
1
1
1
1
1
1
1
1
1
1
1
1
1
1
1
1
1
1
1
1
1
1
1
1
1
1
1
1
1
1
1
1
1
1
1
1
1
1
1
1
1
1
1
1
1
1
1
1
1
1
1
1
1
1
1
1
1
1
1
1
1
1
1
1
1
1
1
1
1
1
1
1
1
1
1
1
1
1
1
1
1
1
1
1
1
1
1
1
1
1
1
1
1
1
1
1
1
1
1
1
1
1
1
1
1
1
1
1
1
1
1
1
1
1
1
1
1
1
1
1
1
1
1
1
1
1
1
1
1
1
1
1
1
1
1
1
1
1
1
1
1
1
1
1
1
1
1
1
1
1
1
1
1
1
1
1
1
1
1
1
1
1
1
1
1
1
1
1
1
1
1
1
1
1
1
1
1
1
1
1
1
1
1
1
1
1
1
1
1
1
1
1
1
1
1
1
1
1
1
1
1
1
1
1
1
1
1
1
1
1
1
1
1
1
1
1
1
1
1
1
1
1
1
1
1
1
1
1
1
1
1
1
1
1
1
1
1
1
1
1
1
1
1
1
1
1
1
1
1
SCALARS rho float 1
LOOKUP_TABLE default
1020
1020
1020
1020
1020
880
862
862
862
862
862
862
862
862
862
862
862
862
862
862
862
862
862
862
862
1020
1020
1020
1020
1020
1020
1020
1004.7035324066176
1000.2138569407516
999.26669671440936
999.06695835773735
999.02554696623997
999.01683478974451
999.01327185167861
999.00423848420564
998.96779425149907
998.82724433734256
998.32764862206318
996.7066043028201
991.95192688905991
979.4800302321064
950.48339785741746
880
862
862
1020
1020
1020
1020
1020
1020
1020
1006.0491973566625
1001.267513304768
1000.265450210625
1000.0545342269315
1000.0107774282999
1000.0015553073688
999.99778392560575
999.98826253451989
999.94995435154033
999.80252388140184
999.2793082675737
997.58384162356879
992.62030524836518
979.66139619945466
949.90588570162549
880
862
862
1020
1020
1020
1020
1020
1020
1020
1006.2122583578973
1001.3019123256738
1000.2726798028191
1000.0560545137589
1000.0110898155967
1000.0016029651817
999.9977224428319
999.98794695288279
999.94867349308333
999.79770781651177
999.26258592455997
997.53120910720781
992.47528797264727
979.33315243704283
949.37473942019642
880
862
862
1020
1020
1020
1020
1020
1020
1020
1006.2779276249978
1001.3179141226331
1000.2763193681899
1000.0568517119043
1000.0112575130822
1000.0016291476206
999.99769027873344
999.98778349226745
999.94802593928171
999.79535577871206
999.25482301380771
997.50852849354214
992.41910854959383
979.2234473371991
949.22830210798543
880
862
862
1020
1020
1020
1020
1020
1020
1020
1006.3003795743653
1001.3241692500071
1000.2778847374659
1000.0572163494332
1000.0113372877263
1000.0016420857607
999.99767569409573
999.98771029588761
999.94774606222541
999.79438596239311
999.25181410266714
997.50041507317792
992.40092771841478
979.19179020336333
949.19133922225728
880
862
862
1020
1020
1020
1020
1020
1020
1020
1006.3071377488595
1001.3262634012679
1000.2784578399703
1000.0573589584808
1000.0113699602243
1000.0016476369667
999.99767009874722
999.9876825249064
999.94764406832724
999.79405021388607
999.25083611018772
997.49796939493831
992.39589262697336
979.18372407862171
949.18281679229199
880
862
862
1020
1020
1020
1020
1020
1020
1020
1006.3085631602448
1001.3267359888753
1000.2785952137754
1000.0573948048323
1000.0113784632208
1000.0016491345423
999.99766872307896
999.98767573965574
999.94761991520363
999.7939737671561
999.25062362764629
997.49746580057626
992.39491363929983
979.18224435485513
949.18134123970481
880
862
862
1020
1020
1020
1020
1020
1020
1020
1006.3071377488584
1001.3262634012665
1000.2784578399692
1000.0573589584794
1000.011369960223
1000.0016476369658
999.99767009874608
999.98768252490504
999.9476440683261
999.7940502138847
999.25083611018658
997.49796939493694
992.39589262697177
979.18372407862057
949.18281679229085
880
862
862
1020
1020
1020
1020
1020
1020
1020
1006.300379574365
1001.3241692500071
1000.2778847374661
1000.057216349433
1000.0113372877263
1000.001642085761
999.99767569409573
999.98771029588761
999.94774606222563
999.79438596239311
999.25181410266737
997.50041507317815
992.40092771841455
979.19179020336333
949.19133922225728
880
862
862
1020
1020
1020
1020
1020
1020
1020
1006.2779276249983
1001.3179141226337
1000.2763193681908
1000.056851711905
1000.0112575130829
1000.0016291476211
999.99769027873413
999.98778349226791
999.94802593928216
999.79535577871275
999.25482301380816
997.50852849354283
992.41910854959451
979.22344733719956
949.22830210798611
880
862
862
1020
1020
1020
1020
1020
1020
1020
1006.2122583578976
1001.301912325674
1000.2726798028193
1000.0560545137594
1000.011089815597
1000.0016029651822
999.99772244283236
999.98794695288325
999.94867349308356
999.797707816512
999.26258592456043
997.53120910720804
992.47528797264772
979.33315243704305
949.37473942019687
880
862
862
1020
1020
1020
1020
1020
1020
1020
1006.0491973566618
1001.2675133047669
1000.2654502106245
1000.0545342269311
1000.0107774282994
1000.0015553073681
999.99778392560529
999.98826253451921
999.94995435153987
999.80252388140116
999.27930826757301
997.58384162356811
992.6203052483645
979.6613961994542
949.90588570162481
880
862
862
1020
1020
1020
1020
1020
1020
1020
1004.7035324066183
1000.2138569407521
999.26669671441005
999.0669583577378
999.02554696624065
999.01683478974519
999.01327185167929
999.00423848420633
998.96779425149998
998.82724433734325
998.32764862206386
996.70660430282078
991.95192688906059
979.48003023210708
950.48339785741814
880
862
862
1020
1020
1020
1020
1020
880
862
862
862
862
862
862
862
862
862
862
862
862
862
862
862
862
862
862
862
1000
1000
1000
1000
1000
1000
1000
1000
1000
1000
1000
1000
1000
1000
1000
1000
1000
1000
1000
1000
1000
1000
1000
1000
1000
1000
1000
1000
1000
1000
1000
1000
1000
1000
1000
1000
1000
1000
1000
1000
1000
1000
1000
1000
1000
1000
1000
1000
1000
1000
1000
1000
1000
1000
1000
1000
1000
1000
1000
1000
1000
1000
1000
1000
1000
1000
1000
1000
1000
1000
1000
1000
1000
1000
1000
1000
1000
1000
1000
1000
1000
1000
1000
1000
1000
1000
1000
1000
1000
1000
1000
1000
1000
1000
1000
1000
1000
1000
1000
1000
1000
1000
1000
1000
1000
1000
1000
1000
1000
1000
1000
1000
1000
1000
1000
1000
1000
1000
1000
1000
1000
1000
1000
1000
1000
1000
1000
1000
1000
1000
1000
1000
1000
1000
1000
1000
1000
1000
1000
1000
1000
1000
1000
1000
1000
1000
1000
1000
1000
1000
1000
1000
1000
1000
1000
1000
1000
1000
1000
1000
1000
1000
1000
1000
1000
1000
1000
1000
1000
1000
1000
1000
1000
1000
1000
1000
1000
1000
1000
1000
1000
1000
1000
1000
1000
1000
1000
1000
1000
1000
1000
1000
1000
1000
1000
1000
1000
1000
1000
1000
1000
1000
1000
1000
1000
1000
1000
1000
1000
1000
1000
1000
1000
1000
1000
1000
1000
1000
1000
1000
1000
1000
1000
1000
1000
1000
1000
1000
1000
1000
1000
1000
1000
1000
1000
1000
1000
1000
1000
1000
1000
1000
1000
1000
1000
1000
1000
1000
1000
1000
1000
1000
1000
1000
1000
1000
1000
1000
1000
1000
1000
1000
1000
1000
1000
1000
1000
1000
1000
1000
1000
1000
1000
1000
1000
1000
1000
1000
1000
1000
1000
1000
1000
1000
1000
1000
1000
1000
1000
1000
1000
1000
1000
1000
1000
1000
1000
1000
1000
1000
1000
1000
1000
1000
1000
1000
SCALARS p float 1
LOOKUP_TABLE default
25004.681136676067
25004.681136676067
25004.681136676067
25004.681136676067
25004.681136676067
0
0
0
0
0
0
0
0
0
0
0
0
0
0
0
0
0
0
0
0
25004.681136676067
25004.681136676067
25004.681136676067
25004.681136676067
25004.681136676067
25004.681136676067
25004.681136676067
5615.7440726311288
251.91396522273209
0
0
0
0
0
0
0
0
0
0
0
0
0
0
0
0
25004.681136676067
25004.681136676067
25004.681136676067
25004.681136676067
25004.681136676067
25004.681136676067
25004.681136676067
7251.6570382062
1497.8024968410268
312.73694807904985
64.208195813033626
12.68759880767754
1.8309163775523529
0
0
0
0
0
0
0
0
0
0
0
0
25004.681136676067
25004.681136676067
25004.681136676067
25004.681136676067
25004.681136676067
25004.681136676067
25004.681136676067
7450.7825244501164
1538.6101715956288
321.26137280626449
65.998471304137354
13.055365258833973
1.8870196863461253
0
0
0
0
0
0
0
0
0
0
0
0
25004.681136676067
25004.681136676067
25004.681136676067
25004.681136676067
25004.681136676067
25004.681136676067
25004.681136676067
7531.0306835154443
1557.5960241574282
325.55293056010697
66.937250880397784
13.252791974051968
1.9178419522817769
0
0
0
0
0
0
0
0
0
0
0
0
25004.681136676067
25004.681136676067
25004.681136676067
25004.681136676067
25004.681136676067
25004.681136676067
25004.681136676067
7558.4742820544061
1565.0181184272874
327.3987491783754
67.36664909186571
13.346709051109102
1.9330728803032089
0
0
0
0
0
0
0
0
0
0
0
0
25004.681136676067
25004.681136676067
25004.681136676067
25004.681136676067
25004.681136676067
25004.681136676067
25004.681136676067
7566.7356929559601
1567.5030201647498
328.0745322501183
67.534586175295658
13.385173735984729
1.9396078244239057
0
0
0
0
0
0
0
0
0
0
0
0
25004.681136676067
25004.681136676067
25004.681136676067
25004.681136676067
25004.681136676067
25004.681136676067
25004.681136676067
7568.4782044089061
1568.06379283658
328.23651913552868
67.57679902981441
13.395184146363867
1.9413707878811821
0
0
0
0
0
0
0
0
0
0
0
0
25004.681136676067
25004.681136676067
25004.681136676067
25004.681136676067
25004.681136676067
25004.681136676067
25004.681136676067
7566.7356929546158
1567.5030201631441
328.07453224881135
67.53458617372732
13.385173734154993
1.939607823378342
0
0
0
0
0
0
0
0
0
0
0
0
25004.681136676067
25004.681136676067
25004.681136676067
25004.681136676067
25004.681136676067
25004.681136676067
25004.681136676067
7558.4742820541451
1565.0181184272874
327.39874917863682
67.366649091604316
13.346709051109102
1.9330728805645998
0
0
0
0
0
0
0
0
0
0
0
0
25004.681136676067
25004.681136676067
25004.681136676067
25004.681136676067
25004.681136676067
25004.681136676067
25004.681136676067
7531.0306835160036
1557.5960241582125
325.55293056115255
66.937250881181953
13.252791974836141
1.9178419528045587
0
0
0
0
0
0
0
0
0
0
0
0
25004.681136676067
25004.681136676067
25004.681136676067
25004.681136676067
25004.681136676067
25004.681136676067
25004.681136676067
7450.7825244503783
1538.6101715959276
321.26137280678728
65.998471304660129
13.055365259095364
1.8870196868689071
0
0
0
0
0
0
0
0
0
0
0
0
25004.681136676067
25004.681136676067
25004.681136676067
25004.681136676067
25004.681136676067
25004.681136676067
25004.681136676067
7251.6570382053778
1497.8024968394213
312.73694807852706
64.208195812510837
12.687598807154759
1.8309163765067893
0
0
0
0
0
0
0
0
0
0
0
0
25004.681136676067
25004.681136676067
25004.681136676067
25004.681136676067
25004.681136676067
25004.681136676067
25004.681136676067
5615.744072631951
251.91396522325488
0
0
0
0
0
0
0
0
0
0
0
0
0
0
0
0
25004.681136676067
25004.681136676067
25004.681136676067
25004.681136676067
25004.681136676067
0
0
0
0
0
0
0
0
0
0
0
0
0
0
0
0
0
0
0
0
0
0
0
0
0
0
0
24280.768908050148
24955.544817716353
0
0
0
4815.2875803333036
24975.892071726994
25000.829631041852
0
0
0
11138.364563984878
24990.321229726531
25002.667825893808
0
0
0
13154.675983230134
24990.886730891791
25002.734091268554
0
0
0
12992.958032355653
24990.863519356528
25002.72804770969
0
0
0
12930.387553536993
24990.842787618069
25002.726022891507
0
0
0
12918.102966538394
24990.837598227452
25002.725462329628
0
0
0
12915.631557899353
24990.836438796596
25002.725319706045
0
0
0
12915.089644401614
24990.836183532876
25002.725286577774
0
0
0
12915.089644401614
24990.836183532876
25002.725286577475
0
0
0
12915.631557899353
24990.836438796596
25002.725319706307
0
0
0
12918.102966538096
24990.83759822775
25002.72546232933
0
0
0
12930.387553536993
24990.842787618367
25002.726022892402
0
0
0
12992.958032355393
24990.863519356528
25002.728047709988
0
0
0
13154.675983230432
24990.886730892351
25002.734091268852
0
0
0
11138.364563984878
24990.321229726233
25002.667825893212
0
0
0
4815.2875803330044
24975.892071726394
25000.829631041852
0
0
0
0
24280.768908050148
24955.544817716353
0
0
0
0
0
0
0
0
0
0
0
0
0
0
0
0
0
0
0
0
0
0
0
0
0
0
0
0
0
0
0
0
0
0
0
0
0
0
0
0
0
0
0
0
0
0
0
0
0
0
0
0
0
0
0
0
0
0
0
0
0
0
0
0
0
0
0
0
0
0
0
0
0
0
0
0
0
0
0
0
0
0
0
0
0
0
0
0
0
0
0
0
0
0
0
0
0
0
0
0
0
0
0
0
0
0
0
0
0
0
0
0
0
0
0
0
0
0
0
0
0
0
0
0
0
0
0
0
0
0
0
0
0
0
0
0
0
0
0
0
0
0
0
0
0
0
0
0
0
0
0
0
0
0
0
0
0
0
0
0
0
0
0
0
0
0
0
0
0
0
0
0
0
0
0
0
0
0
0
0
0
0
0
0
0
0
0
0
0
0
0
0
0
0
0
SCALARS m float 1
LOOKUP_TABLE default
0.39942306611962441
0.39942306611962441
0.39942306611962441
0.39942306611962441
0.39942306611962441
0.39942306611962441
0.39942306611962441
0.39942306611962441
0.39942306611962441
0.39942306611962441
0.39942306611962441
0.39942306611962441
0.39942306611962441
0.39942306611962441
0.39942306611962441
0.39942306611962441
0.39942306611962441
0.39942306611962441
0.39942306611962441
0.39942306611962441
0.39942306611962441
0.39942306611962441
0.39942306611962441
0.39942306611962441
0.39942306611962441
0.39942306611962441
0.39942306611962441
0.39942306611962441
0.39942306611962441
0.39942306611962441
0.39942306611962441
0.39942306611962441
0.39942306611962441
0.39942306611962441
0.39942306611962441
0.39942306611962441
0.39942306611962441
0.39942306611962441
0.39942306611962441
0.39942306611962441
0.39942306611962441
0.39942306611962441
0.39942306611962441
0.39942306611962441
0.39942306611962441
0.39942306611962441
0.39942306611962441
0.39942306611962441
0.39942306611962441
0.39942306611962441
0.39942306611962441
0.39942306611962441
0.39942306611962441
0.39942306611962441
0.39942306611962441
0.39942306611962441
0.39942306611962441
0.39942306611962441
0.39942306611962441
0.39942306611962441
0.39942306611962441
0.39942306611962441
0.39942306611962441
0.39942306611962441
0.39942306611962441
0.39942306611962441
0.39942306611962441
0.39942306611962441
0.39942306611962441
0.39942306611962441
0.39942306611962441
0.39942306611962441
0.39942306611962441
0.39942306611962441
0.39942306611962441
0.39942306611962441
0.39942306611962441
0.39942306611962441
0.39942306611962441
0.39942306611962441
0.39942306611962441
0.39942306611962441
0.39942306611962441
0.39942306611962441
0.39942306611962441
0.39942306611962441
0.39942306611962441
0.39942306611962441
0.39942306611962441
0.39942306611962441
0.39942306611962441
0.39942306611962441
0.39942306611962441
0.39942306611962441
0.39942306611962441
0.39942306611962441
0.39942306611962441
0.39942306611962441
0.39942306611962441
0.39942306611962441
0.39942306611962441
0.39942306611962441
0.39942306611962441
0.39942306611962441
0.39942306611962441
0.39942306611962441
0.39942306611962441
0.39942306611962441
0.39942306611962441
0.39942306611962441
0.39942306611962441
0.39942306611962441
0.39942306611962441
0.39942306611962441
0.39942306611962441
0.39942306611962441
0.39942306611962441
0.39942306611962441
0.39942306611962441
0.39942306611962441
0.39942306611962441
0.39942306611962441
0.39942306611962441
0.39942306611962441
0.39942306611962441
0.39942306611962441
0.39942306611962441
0.39942306611962441
0.39942306611962441
0.39942306611962441
0.39942306611962441
0.39942306611962441
0.39942306611962441
0.39942306611962441
0.39942306611962441
0.39942306611962441
0.39942306611962441
0.39942306611962441
0.39942306611962441
0.39942306611962441
0.39942306611962441
0.39942306611962441
0.39942306611962441
0.39942306611962441
0.39942306611962441
0.39942306611962441
0.39942306611962441
0.39942306611962441
0.39942306611962441
0.39942306611962441
0.39942306611962441
0.39942306611962441
0.39942306611962441
0.39942306611962441
0.39942306611962441
0.39942306611962441
0.39942306611962441
0.39942306611962441
0.39942306611962441
0.39942306611962441
0.39942306611962441
0.39942306611962441
0.39942306611962441
0.39942306611962441
0.39942306611962441
0.39942306611962441
0.39942306611962441
0.39942306611962441
0.39942306611962441
0.39942306611962441
0.39942306611962441
0.39942306611962441
0.39942306611962441
0.39942306611962441
0.39942306611962441
0.39942306611962441
0.39942306611962441
0.39942306611962441
0.39942306611962441
0.39942306611962441
0.39942306611962441
0.39942306611962441
0.39942306611962441
0.39942306611962441
0.39942306611962441
0.39942306611962441
0.39942306611962441
0.39942306611962441
0.39942306611962441
0.39942306611962441
0.39942306611962441
0.39942306611962441
0.39942306611962441
0.39942306611962441
0.39942306611962441
0.39942306611962441
0.39942306611962441
0.39942306611962441
0.39942306611962441
0.39942306611962441
0.39942306611962441
0.39942306611962441
0.39942306611962441
0.39942306611962441
0.39942306611962441
0.39942306611962441
0.39942306611962441
0.39942306611962441
0.39942306611962441
0.39942306611962441
0.39942306611962441
0.39942306611962441
0.39942306611962441
0.39942306611962441
0.39942306611962441
0.39942306611962441
0.39942306611962441
0.39942306611962441
0.39942306611962441
0.39942306611962441
0.39942306611962441
0.39942306611962441
0.39942306611962441
0.39942306611962441
0.39942306611962441
0.39942306611962441
0.39942306611962441
0.39942306611962441
0.39942306611962441
0.39942306611962441
0.39942306611962441
0.39942306611962441
0.39942306611962441
0.39942306611962441
0.39942306611962441
0.39942306611962441
0.39942306611962441
0.39942306611962441
0.39942306611962441
0.39942306611962441
0.39942306611962441
0.39942306611962441
0.39942306611962441
0.39942306611962441
0.39942306611962441
0.39942306611962441
0.39942306611962441
0.39942306611962441
0.39942306611962441
0.39942306611962441
0.39942306611962441
0.39942306611962441
0.39942306611962441
0.39942306611962441
0.39942306611962441
0.39942306611962441
0.39942306611962441
0.39942306611962441
0.39942306611962441
0.39942306611962441
0.39942306611962441
0.39942306611962441
0.39942306611962441
0.39942306611962441
0.39942306611962441
0.39942306611962441
0.39942306611962441
0.39942306611962441
0.39942306611962441
0.39942306611962441
0.39942306611962441
0.39942306611962441
0.39942306611962441
0.39942306611962441
0.39942306611962441
0.39942306611962441
0.39942306611962441
0.39942306611962441
0.39942306611962441
0.39942306611962441
0.39942306611962441
0.39942306611962441
0.39942306611962441
0.39942306611962441
0.39942306611962441
0.39942306611962441
0.39942306611962441
0.39942306611962441
0.39942306611962441
0.39942306611962441
0.39942306611962441
0.39942306611962441
0.39942306611962441
0.39942306611962441
0.39942306611962441
0.39942306611962441
0.39942306611962441
0.39942306611962441
0.39942306611962441
0.39942306611962441
0.39942306611962441
0.39942306611962441
0.39942306611962441
0.39942306611962441
0.39942306611962441
0.39942306611962441
0.39942306611962441
0.39942306611962441
0.39942306611962441
0.39942306611962441
0.39942306611962441
0.39942306611962441
0.39942306611962441
0.39942306611962441
0.39942306611962441
0.39942306611962441
0.39942306611962441
0.39942306611962441
0.39942306611962441
0.39942306611962441
0.39942306611962441
0.39942306611962441
0.39942306611962441
0.39942306611962441
0.39942306611962441
0.39942306611962441
0.39942306611962441
0.39942306611962441
0.39942306611962441
0.39942306611962441
0.39942306611962441
0.39942306611962441
0.39942306611962441
0.39942306611962441
0.39942306611962441
0.39942306611962441
0.39942306611962441
0.39942306611962441
0.39942306611962441
0.39942306611962441
0.39942306611962441
0.39942306611962441
0.39942306611962441
0.39942306611962441
0.39942306611962441
0.39942306611962441
0.39942306611962441
0.39942306611962441
0.39942306611962441
0.39942306611962441
0.39942306611962441
0.39942306611962441
0.39942306611962441
0.39942306611962441
0.39942306611962441
0.39942306611962441
0.39942306611962441
0.39942306611962441
0.39942306611962441
0.39942306611962441
0.39942306611962441
0.39942306611962441
0.39942306611962441
0.39942306611962441
0.39942306611962441
0.39942306611962441
0.39942306611962441
0.39942306611962441
0.39942306611962441
0.39942306611962441
0.39942306611962441
0.39942306611962441
0.39942306611962441
0.39942306611962441
0.39942306611962441
0.39942306611962441
0.39942306611962441
0.39942306611962441
0.39942306611962441
0.39942306611962441
0.39942306611962441
0.39942306611962441
0.39942306611962441
0.39942306611962441
0.39942306611962441
0.39942306611962441
0.39942306611962441
0.39942306611962441
0.39942306611962441
0.39942306611962441
0.39942306611962441
0.39942306611962441
0.39942306611962441
0.39942306611962441
0.39942306611962441
0.39942306611962441
0.39942306611962441
0.39942306611962441
0.39942306611962441
0.39942306611962441
0.39942306611962441
0.39942306611962441
0.39942306611962441
0.39942306611962441
0.39942306611962441
0.39942306611962441
0.39942306611962441
0.39942306611962441
0.39942306611962441
0.39942306611962441
0.39942306611962441
0.39942306611962441
0.39942306611962441
0.39942306611962441
0.39942306611962441
0.39942306611962441
0.39942306611962441
0.39942306611962441
0.39942306611962441
0.39942306611962441
0.39942306611962441
0.39942306611962441
0.39942306611962441
0.39942306611962441
0.39942306611962441
0.39942306611962441
0.39942306611962441
0.39942306611962441
0.39942306611962441
0.39942306611962441
0.39942306611962441
0.39942306611962441
0.39942306611962441
0.39942306611962441
0.39942306611962441
0.39942306611962441
0.39942306611962441
0.39942306611962441
0.39942306611962441
0.39942306611962441
0.39942306611962441
0.39942306611962441
0.39942306611962441
0.39942306611962441
0.39942306611962441
0.39942306611962441
0.39942306611962441
0.39942306611962441
0.39942306611962441
0.39942306611962441
0.39942306611962441
0.39942306611962441
0.39942306611962441
0.39942306611962441
0.39942306611962441
0.39942306611962441
0.39942306611962441
0.39942306611962441
0.39942306611962441
0.39942306611962441
0.39942306611962441
0.39942306611962441
0.39942306611962441
0.39942306611962441
0.39942306611962441
0.39942306611962441
0.39942306611962441
0.39942306611962441
0.39942306611962441
0.39942306611962441
0.39942306611962441
0.39942306611962441
0.39942306611962441
0.39942306611962441
0.39942306611962441
0.39942306611962441
0.39942306611962441
0.39942306611962441
0.39942306611962441
0.39942306611962441
0.39942306611962441
0.39942306611962441
0.39942306611962441
0.39942306611962441
0.39942306611962441
0.39942306611962441
0.39942306611962441
0.39942306611962441
0.39942306611962441
0.39942306611962441
0.39942306611962441
0.39942306611962441
0.39942306611962441
0.39942306611962441
0.39942306611962441
0.39942306611962441
0.39942306611962441
0.39942306611962441
0.39942306611962441
0.39942306611962441
0.39942306611962441
0.39942306611962441
0.39942306611962441
0.39942306611962441
0.39942306611962441
0.39942306611962441
0.39942306611962441
0.39942306611962441
0.39942306611962441
0.39942306611962441
0.39942306611962441
0.39942306611962441
0.39942306611962441
0.39942306611962441
0.39942306611962441
0.39942306611962441
0.39942306611962441
0.39942306611962441
0.39942306611962441
0.39942306611962441
0.39942306611962441
0.39942306611962441
0.39942306611962441
0.39942306611962441
0.39942306611962441
0.39942306611962441
0.39942306611962441
0.39942306611962441
0.39942306611962441
0.39942306611962441
0.39942306611962441
0.39942306611962441
0.39942306611962441
0.39942306611962441
0.39942306611962441
0.39942306611962441
0.39942306611962441
0.39942306611962441
0.39942306611962441
0.39942306611962441
0.39942306611962441
0.39942306611962441
0.39942306611962441
0.39942306611962441
0.39942306611962441
0.39942306611962441
0.39942306611962441
0.39942306611962441
0.39942306611962441
0.39942306611962441
0.39942306611962441
0.39942306611962441
0.39942306611962441
0.39942306611962441
0.39942306611962441
0.39942306611962441
0.39942306611962441
0.39942306611962441
0.39942306611962441
0.39942306611962441
0.39942306611962441
0.39942306611962441
0.39942306611962441
0.39942306611962441
0.39942306611962441
0.39942306611962441
0.39942306611962441
0.39942306611962441
0.39942306611962441
0.39942306611962441
0.39942306611962441
0.39942306611962441
0.39942306611962441
0.39942306611962441
0.39942306611962441
0.39942306611962441
0.39942306611962441
0.39942306611962441
0.39942306611962441
0.39942306611962441
0.39942306611962441
0.39942306611962441
0.39942306611962441
0.39942306611962441
0.39942306611962441
0.39942306611962441
0.39942306611962441
0.39942306611962441
0.39942306611962441
0.39942306611962441
0.39942306611962441
0.39942306611962441
0.39942306611962441
0.39942306611962441
0.39942306611962441
0.39942306611962441
0.39942306611962441
0.39942306611962441
0.39942306611962441
0.39942306611962441
0.39942306611962441
0.39942306611962441
0.39942306611962441
0.39942306611962441
0.39942306611962441
0.39942306611962441
0.39942306611962441
0.39942306611962441
0.39942306611962441
0.39942306611962441
0.39942306611962441
0.39942306611962441
0.39942306611962441
0.39942306611962441
0.39942306611962441
0.39942306611962441
0.39942306611962441
0.39942306611962441
0.39942306611962441
0.39942306611962441
0.39942306611962441
0.39942306611962441
0.39942306611962441
0.39942306611962441
0.39942306611962441
0.39942306611962441
0.39942306611962441
0.39942306611962441
0.39942306611962441
0.39942306611962441
0.39942306611962441
0.39942306611962441
0.39942306611962441
0.39942306611962441
0.39942306611962441
0.39942306611962441
0.39942306611962441
0.39942306611962441
0.39942306611962441
0.39942306611962441
0.39942306611962441
0.39942306611962441
0.39942306611962441
0.39942306611962441
0.39942306611962441
0.39942306611962441
0.39942306611962441
0.39942306611962441
0.39942306611962441
0.39942306611962441
0.39942306611962441
0.39942306611962441
0.39942306611962441
0.39942306611962441
0.39942306611962441
0.39942306611962441
0.39942306611962441
0.39942306611962441
0.39942306611962441
0.39942306611962441
0.39942306611962441
0.39942306611962441
0.39942306611962441
0.39942306611962441
0.39942306611962441
0.39942306611962441
0.39942306611962441
0.39942306611962441
0.39942306611962441
0.39942306611962441
0.39942306611962441
0.39942306611962441
0.39942306611962441
0.39942306611962441
0.39942306611962441
0.39942306611962441
0.39942306611962441
0.39942306611962441
0.39942306611962441
0.39942306611962441
0.39942306611962441
VECTORS v float
0 -0.084798690835434162 0
0 -0.16888752686204314 0
0 -0.28148560922615723 0
0 -0.48123641636443376 0
0 -0.75915416611188802 0
0 -0.94058176752420997 0
0 -0.9970335500361458 0
0 -1.0105552636998822 0
0 -1.0135333613239108 0
0 -1.0141766063689215 0
0 -1.0143138041799096 0
0 -1.0143424057071002 0
0 -1.014347929327986 0
0 -1.0143477215646375 0
0 -1.0143420424637586 0
0 -1.0143181019927978 0
0 -1.0142282247642163 0
0 -1.0139206461378103 0
0 -1.0129702245921033 0
0 -1.0103513663102048 0
0 -1.0039967328567931 0
0 -0.99055724172632076 0
0 -0.96600980886672838 0
0 -0.92540476567032659 0
0 -0.79576921611273155 0
0 -0.093046180291584457 0
0 -0.17756280684424877 0
0 -0.28917912971915605 0
0 -0.47546689348007742 0
0 -0.73645686012973832 0
0 -0.92804734252548693 0
0 -0.99440599931306084 0
0 -1.0100639170022778 0
0 -1.0134305842636677 0
0 -1.0141545004514076 0
0 -1.0143090886806401 0
0 -1.0143414145088687 0
0 -1.0143476838978669 0
0 -1.0143474685752671 0
0 -1.0143411400355158 0
0 -1.0143146507191008 0
0 -1.0142160067420249 0
0 -1.013881073690716 0
0 -1.0128533640895101 0
0 -1.0100373710420603 0
0 -1.0032347125031433 0
0 -0.98893614916233252 0
0 -0.96367539529169866 0
0 -0.92344517513282443 0
0 -0.80208581981563487 0
0 -0.093092066496597958 0
0 -0.17798524338061725 0
0 -0.29004674956773518 0
0 -0.47503908935841266 0
0 -0.73012953367683653 0
0 -0.92294287256119067 0
0 -0.99313025242130348 0
0 -1.0098249396179837 0
0 -1.0133837329465609 0
0 -1.0141447667948078 0
0 -1.0143070368018019 0
0 -1.0143409835176158 0
0 -1.0143475762486021 0
0 -1.0143473548198241 0
0 -1.014340726242299 0
0 -1.0143130257234378 0
0 -1.0142100156093758 0
0 -1.013860514998614 0
0 -1.0127880405749614 0
0 -1.0098476992695729 0
0 -1.0027460723389874 0
0 -0.98788575786132127 0
0 -0.96207060582470028 0
0 -0.92168954960410199 0
0 -0.80531172472978785 0
0 -0.092890644686359145 0
0 -0.17781389688830745 0
0 -0.289901477876298 0
0 -0.47456273316275832 0
0 -0.72848057950661482 0
0 -0.92136277440585268 0
0 -0.99256178184474453 0
0 -1.0096921361472253 0
0 -1.0133556245929578 0
0 -1.014138823021226 0
0 -1.0143057787262881 0
0 -1.0143407180807438 0
0 -1.0143475094468539 0
0 -1.0143472841472454 0
0 -1.0143404698101892 0
0 -1.0143120190693913 0
0 -1.0142063105043873 0
0 -1.0138479114651846 0
0 -1.0127489618535093 0
0 -1.0097397506362464 0
0 -1.0024897843960869 0
0 -0.98739091634142284 0
0 -0.96133405412077855 0
0 -0.92090107944145672 0
0 -0.80634509806112187 0
0 -0.092815948736008638 0
0 -0.17771570599579967 0
0 -0.28978376654049576 0
0 -0.47434365544777379 0
0 -0.72797741267492977 0
0 -0.92087842462637071 0
0 -0.99235746327267305 0
0 -1.0096345163308817 0
0 -1.0133417625308492 0
0 -1.0141356903218739 0
0 -1.0143050934297948 0
0 -1.0143405707526678 0
0 -1.014347471924461 0
0 -1.014347244939876 0
0 -1.0143403297146572 0
0 -1.0143114767072055 0
0 -1.0142043518885588 0
0 -1.0138414365918123 0
0 -1.0127297180078589 0
0 -1.0096896053536417 0
0 -1.0023788990830496 0
0 -0.98719081155992772 0
0 -0.96105182909137377 0
0 -0.92061256381312095 0
0 -0.80657223169970027 0
0 -0.092794510099977939 0
0 -0.17767945058514528 0
0 -0.28973472129049627 0
0 -0.47426267499893288 0
0 -0.72782434838057319 0
0 -0.92073325638020387 0
0 -0.99229068015680744 0
0 -1.0096131479250505 0
0 -1.0133359813460441 0
0 -1.0141342701910507 0
0 -1.0143047659722735 0
0 -1.014340497988401 0
0 -1.0143474530563148 0
0 -1.0143472257215589 0
0 -1.0143402628998641 0
0 -1.0143112242753147 0
0 -1.0142034674428229 0
0 -1.0138386243626583 0
0 -1.0127217577143341 0
0 -1.0096700115343031 0
0 -1.0023380113131455 0
0 -0.98712036624795896 0
0 -0.96095817447525489 0
0 -0.92052093204649843 0
0 -0.80660235400606983 0
0 -0.092788746727420268 0
0 -0.17766800973846977 0
0 -0.28971809187883485 0
0 -0.47423642136099181 0
0 -0.72778027988992255 0
0 -0.92069219540388847 0
0 -0.99227071981138404 0
0 -1.0096061745905169 0
0 -1.0133339128021073 0
0 -1.0141337212075681 0
0 -1.0143046319975981 0
0 -1.0143404670271357 0
0 -1.0143474448567626 0
0 -1.0143472176470605 0
0 -1.0143402357861016 0
0 -1.0143111248223158 0
0 -1.0142031308584625 0
0 -1.0138375975399869 0
0 -1.0127189863795869 0
0 -1.0096635279345896 0
0 -1.0023251127381556 0
0 -0.98709905817315924 0
0 -0.96093099004998417 0
0 -0.92049497354433163 0
0 -0.80660179225118556 0
0 -0.092787588364478396 0
0 -0.17766550816803964 0
0 -0.28971431414719417 0
0 -0.47423055701411698 0
0 -0.72777106940855318 0
0 -0.92068373828725558 0
0 -0.99226647674886548 0
0 -1.0096046123766536 0
0 -1.0133334222504105 0
0 -1.0141335842208197 0
0 -1.0143045972001978 0
0 -1.0143404587474483 0
0 -1.0143474426293113 0
0 -1.0143472155124489 0
0 -1.0143402288151919 0
0 -1.0143110998383735 0
0 -1.0142030485148574 0
0 -1.0138373539273569 0
0 -1.0127183509051583 0
0 -1.0096620926533055 0
0 -1.0023223540071067 0
0 -0.98709467041488796 0
0 -0.96092545541949159 0
0 -0.92048967238538615 0
0 -0.80660062048190462 0
0 -0.092788746727420227 0
0 -0.17766800973846972 0
0 -0.28971809187883463 0
0 -0.47423642136099187 0
0 -0.72778027988992244 0
0 -0.92069219540388858 0
0 -0.99227071981138404 0
0 -1.0096061745905169 0
0 -1.0133339128021073 0
0 -1.0141337212075681 0
0 -1.0143046319975981 0
0 -1.0143404670271357 0
0 -1.0143474448567626 0
0 -1.0143472176470605 0
0 -1.0143402357861016 0
0 -1.0143111248223158 0
0 -1.0142031308584625 0
0 -1.0138375975399869 0
0 -1.0127189863795869 0
0 -1.0096635279345896 0
0 -1.0023251127381556 0
0 -0.98709905817315924 0
0 -0.96093099004998428 0
0 -0.92049497354433163 0
0 -0.80660179225118545 0
0 -0.092794510099977953 0
0 -0.17767945058514525 0
0 -0.28973472129049627 0
0 -0.47426267499893282 0
0 -0.72782434838057342 0
0 -0.92073325638020387 0
0 -0.99229068015680744 0
0 -1.0096131479250505 0
0 -1.0133359813460441 0
0 -1.0141342701910507 0
0 -1.0143047659722735 0
0 -1.014340497988401 0
0 -1.0143474530563148 0
0 -1.0143472257215589 0
0 -1.0143402628998641 0
0 -1.0143112242753147 0
0 -1.0142034674428229 0
0 -1.0138386243626583 0
0 -1.0127217577143341 0
0 -1.0096700115343031 0
0 -1.0023380113131455 0
0 -0.98712036624795896 0
0 -0.96095817447525489 0
0 -0.92052093204649843 0
0 -0.80660235400606972 0
0 -0.092815948736008694 0
0 -0.17771570599579972 0
0 -0.28978376654049581 0
0 -0.47434365544777374 0
0 -0.72797741267492966 0
0 -0.9208784246263706 0
0 -0.99235746327267305 0
0 -1.0096345163308817 0
0 -1.0133417625308492 0
0 -1.0141356903218739 0
0 -1.0143050934297948 0
0 -1.0143405707526678 0
0 -1.014347471924461 0
0 -1.014347244939876 0
0 -1.0143403297146572 0
0 -1.0143114767072055 0
0 -1.0142043518885588 0
0 -1.0138414365918123 0
0 -1.0127297180078589 0
0 -1.0096896053536417 0
0 -1.0023788990830496 0
0 -0.98719081155992772 0
0 -0.96105182909137377 0
0 -0.92061256381312095 0
0 -0.80657223169970027 0
0 -0.0928906446863592 0
0 -0.1778138968883074 0
0 -0.289901477876298 0
0 -0.47456273316275832 0
0 -0.72848057950661471 0
0 -0.92136277440585268 0
0 -0.99256178184474453 0
0 -1.0096921361472253 0
0 -1.0133556245929578 0
0 -1.014138823021226 0
0 -1.0143057787262881 0
0 -1.0143407180807438 0
0 -1.0143475094468539 0
0 -1.0143472841472454 0
0 -1.0143404698101892 0
0 -1.0143120190693913 0
0 -1.0142063105043873 0
0 -1.0138479114651846 0
0 -1.0127489618535093 0
0 -1.0097397506362464 0
0 -1.0024897843960869 0
0 -0.98739091634142295 0
0 -0.96133405412077855 0
0 -0.92090107944145672 0
0 -0.80634509806112198 0
0 -0.093092066496597861 0
0 -0.17798524338061714 0
0 -0.29004674956773507 0
0 -0.4750390893584126 0
0 -0.73012953367683653 0
0 -0.92294287256119067 0
0 -0.99313025242130348 0
0 -1.0098249396179837 0
0 -1.0133837329465609 0
0 -1.0141447667948078 0
0 -1.0143070368018019 0
0 -1.0143409835176158 0
0 -1.0143475762486021 0
0 -1.0143473548198241 0
0 -1.014340726242299 0
0 -1.0143130257234378 0
0 -1.0142100156093758 0
0 -1.013860514998614 0
0 -1.0127880405749614 0
0 -1.0098476992695729 0
0 -1.0027460723389874 0
0 -0.98788575786132138 0
0 -0.96207060582470039 0
0 -0.92168954960410199 0
0 -0.80531172472978785 0
0 -0.093046180291584485 0
0 -0.17756280684424883 0
0 -0.28917912971915605 0
0 -0.47546689348007742 0
0 -0.73645686012973821 0
0 -0.92804734252548693 0
0 -0.99440599931306084 0
0 -1.0100639170022778 0
0 -1.0134305842636677 0
0 -1.0141545004514076 0
0 -1.0143090886806401 0
0 -1.0143414145088687 0
0 -1.0143476838978669 0
0 -1.0143474685752671 0
0 -1.0143411400355158 0
0 -1.0143146507191008 0
0 -1.0142160067420249 0
0 -1.013881073690716 0
0 -1.0128533640895101 0
0 -1.0100373710420603 0
0 -1.0032347125031433 0
0 -0.98893614916233252 0
0 -0.96367539529169866 0
0 -0.92344517513282443 0
0 -0.80208581981563498 0
0 -0.084798690835434176 0
0 -0.16888752686204306 0
0 -0.28148560922615729 0
0 -0.48123641636443365 0
0 -0.75915416611188802 0
0 -0.94058176752420974 0
0 -0.9970335500361458 0
0 -1.0105552636998822 0
0 -1.0135333613239108 0
0 -1.0141766063689215 0
0 -1.0143138041799096 0
0 -1.0143424057071002 0
0 -1.014347929327986 0
0 -1.0143477215646375 0
0 -1.0143420424637586 0
0 -1.0143181019927978 0
0 -1.0142282247642163 0
0 -1.0139206461378103 0
0 -1.0129702245921033 0
0 -1.0103513663102048 0
0 -1.0039967328567931 0
0 -0.99055724172632076 0
0 -0.96600980886672827 0
0 -0.92540476567032659 0
0 -0.79576921611273166 0
-0 -0 0
-0 -0 0
-0 -0 0
-0 -0 0
-0 -0 0
-0 -0 0
-0 -0 0
-0 0.085161832938830326 0
-0 0.14951551282173817 0
-0 -0 0
-0 -0 0
-0 -0 0
-0 0.017128216143064968 0
-0 0.10567538602991355 0
-0 0.16878168527678378 0
-0 -0 0
-0 -0 0
-0 -0 0
-0 0.04167880472955688 0
-0 0.10936049766404085 0
-0 0.17165247294002858 0
-0 -0 0
-0 -0 0
-0 -0 0
-0 0.050322326997396319 0
-0 0.11206457623606028 0
-0 0.17286781475974153 0
-0 -0 0
-0 -0 0
-0 -0 0
-0 0.049681179276209318 0
-0 0.11197215356511864 0
-0 0.17274815801240545 0
-0 -0 0
-0 -0 0
-0 -0 0
-0 0.049375394528800326 0
-0 0.11178875512895592 0
-0 0.17249261347291056 0
-0 -0 0
-0 -0 0
-0 -0 0
-0 0.049304422973960274 0
-0 0.11171996708582882 0
-0 0.17238834870273784 0
-0 -0 0
-0 -0 0
-0 -0 0
-0 0.049288093244821578 0
-0 0.11169949959282979 0
-0 0.17235475042526935 0
-0 -0 0
-0 -0 0
-0 -0 0
-0 0.049284264578331509 0
-0 0.11169416527728482 0
-0 0.17234548927007565 0
-0 -0 0
-0 -0 0
-0 -0 0
-0 0.049284264578331058 0
-0 0.1116941652772848 0
-0 0.17234548927007565 0
-0 -0 0
-0 -0 0
-0 -0 0
-0 0.049288093244821481 0
-0 0.11169949959282978 0
-0 0.17235475042526932 0
-0 -0 0
-0 -0 0
-0 -0 0
-0 0.049304422973960288 0
-0 0.11171996708582885 0
-0 0.17238834870273784 0
-0 -0 0
-0 -0 0
-0 -0 0
-0 0.049375394528800444 0
-0 0.11178875512895599 0
-0 0.17249261347291067 0
-0 -0 0
-0 -0 0
-0 -0 0
-0 0.049681179276209034 0
-0 0.11197215356511858 0
-0 0.17274815801240537 0
-0 -0 0
-0 -0 0
-0 -0 0
-0 0.050322326997396381 0
-0 0.11206457623606028 0
-0 0.17286781475974153 0
-0 -0 0
-0 -0 0
-0 -0 0
-0 0.041678804729557588 0
-0 0.10936049766404086 0
-0 0.17165247294002853 0
-0 -0 0
-0 -0 0
-0 -0 0
-0 0.017128216143065381 0
-0 0.10567538602991353 0
-0 0.16878168527678378 0
-0 -0 0
-0 -0 0
-0 -0 0
-0 -0 0
-0 0.085161832938830437 0
-0 0.14951551282173822 0
-0 -0 0
-0 -0 0
-0 -0 0
-0 -0 0
-0 -0 0
-0 -0 0
-0 -0 0
-0 -0 0
-0 -0 0
-0 -0 0
-0 -0 0
-0 -0 0
-0 -0 0
-0 -0 0
-0 -0 0
-0 -0 0
-0 -0 0
-0 -0 0
-0 -0 0
-0 -0 0
-0 -0 0
-0 -0 0
-0 -0 0
-0 -0 0
-0 -0 0
-0 -0 0
-0 -0 0
-0 -0 0
-0 -0 0
-0 -0 0
-0 -0 0
-0 -0 0
-0 -0 0
-0 -0 0
-0 -0 0
-0 -0 0
-0 -0 0
-0 -0 0
-0 -0 0
-0 -0 0
-0 -0 0
-0 -0 0
-0 -0 0
-0 -0 0
-0 -0 0
-0 -0 0
-0 -0 0
-0 -0 0
-0 -0 0
-0 -0 0
-0 -0 0
-0 -0 0
-0 -0 0
-0 -0 0
-0 -0 0
-0 -0 0
-0 -0 0
-0 -0 0
-0 -0 0
-0 -0 0
-0 -0 0
-0 -0 0
-0 -0 0
-0 -0 0
-0 -0 0
-0 -0 0
-0 -0 0
-0 -0 0
-0 -0 0
-0 -0 0
-0 -0 0
-0 -0 0
-0 -0 0
-0 -0 0
-0 -0 0
-0 -0 0
-0 -0 0
-0 -0 0
-0 -0 0
-0 -0 0
-0 -0 0
-0 -0 0
-0 -0 0
-0 -0 0
-0 -0 0
-0 -0 0
-0 -0 0
-0 -0 0
-0 -0 0
-0 -0 0
-0 -0 0
-0 -0 0
-0 -0 0
-0 -0 0
-0 -0 0
-0 -0 0
-0 -0 0
-0 -0 0
-0 -0 0
-0 -0 0
-0 -0 0
-0 -0 0
-0 -0 0
-0 -0 0
-0 -0 0
-0 -0 0
-0 -0 0
-0 -0 0
-0 -0 0
-0 -0 0
-0 -0 0
-0 -0 0
-0 -0 0
-0 -0 0
-0 -0 0
-0 -0 0
-0 -0 0
-0 -0 0
-0 -0 0
-0 -0 0
-0 -0 0
-0 -0 0
-0 -0 0
-0 -0 0
-0 -0 0
-0 -0 0
-0 -0 0
-0 -0 0
-0 -0 0
-0 -0 0
-0 -0 0
-0 -0 0
-0 -0 0
-0 -0 0
-0 -0 0
-0 -0 0
-0 -0 0
-0 -0 0
-0 -0 0
-0 -0 0
-0 -0 0
-0 -0 0
-0 -0 0
-0 -0 0
-0 -0 0
-0 -0 0
-0 -0 0
-0 -0 0
-0 -0 0
-0 -0 0
-0 -0 0
-0 -0 0
-0 -0 0
-0 -0 0
-0 -0 0
-0 -0 0
-0 -0 0
-0 -0 0
-0 -0 0
-0 -0 0
-0 -0 0
-0 -0 0
-0 -0 0
-0 -0 0
-0 -0 0
-0 -0 0
-0 -0 0
-0 -0 0
-0 -0 0
-0 -0 0
-0 -0 0
-0 -0 0
-0 -0 0
-0 -0 0
-0 -0 0
-0 -0 0
-0 -0 0
-0 -0 0
-0 -0 0
-0 -0 0
-0 -0 0
-0 -0 0
-0 -0 0
-0 -0 0
-0 -0 0
-0 -0 0
-0 -0 0
-0 -0 0
-0 -0 0
-0 -0 0
-0 -0 0
-0 -0 0
-0 -0 0
-0 -0 0
-0 -0 0
