# vtk DataFile Version 3.0
SPH particles (WCSPH) - legacy PolyData
ASCII
DATASET POLYDATA
POINTS 681 float
0.049990913550206968 0.01890376066185254 0
0.049989910358834648 0.021040621295627164 0
0.049989100465990283 0.022764278143665478 0
0.049988302293125071 0.024465213651552777 0
0.049987586369986112 0.026118836258975767 0
0.049986954856653706 0.027724089473822103 0
0.049986375501649333 0.02928719652614491 0
0.049985808072001751 0.030816611310766625 0
0.049985196013327855 0.032321716721026419 0
0.04998444270693634 0.033810600818259644 0
0.049983100960476923 0.03529189248622476 0
0.049981312136962622 0.036773999525198074 0
0.049980616758522618 0.038265227764107478 0
0.049981370042477956 0.039774193299643219 0
0.049982858786747124 0.041310441198233246 0
0.049984617514996985 0.042884382484446558 0
0.049986437017788446 0.04450913184639823 0
0.049988150191817779 0.046200525216324603 0
0.049989747746911929 0.047980104229743442 0
0.049991172339621255 0.049863690909958062 0
0.049992374400211342 0.05189437458099886 0
0.049993354216007591 0.054125564876051226 0
0.049994142746342105 0.05664232718462546 0
0.049994778434673988 0.059603999870218069 0
0.049995590597405916 0.063443292605426915 0
0.06999524324879064 0.017692132361426537 0
0.069994662265541421 0.02005044271416765 0
0.069994229886732276 0.021965162302537044 0
0.069993840568842072 0.023818139269806738 0
0.069993475419098033 0.025596184150772489 0
0.069993110017124771 0.027306495806114772 0
0.069992746650383741 0.028961135219471423 0
0.069992377774999601 0.030572573329700876 0
0.069991987733855218 0.032153108996893519 0
0.069991526772852794 0.033712789544878816 0
0.069990620312964116 0.035261787125029434 0
0.069988774990939293 0.036809882172592817 0
0.069987687294449319 0.038366233641126152 0
0.069987883082578875 0.039940196528221797 0
0.069988791803567957 0.041542408420234947 0
0.069989936217214763 0.043184279539548849 0
0.069991164907343209 0.044880685370929534 0
0.06999237333708086 0.046648351544596574 0
0.069993505131734537 0.048507827496748562 0
0.069994488656017081 0.050484627587600452 0
0.06999530371732042 0.052620927117077984 0
0.069995954290001397 0.05497500866244822 0
0.069996448699240058 0.057644941348024441 0
0.069996838323010638 0.060816153643167489 0
0.069997341127553722 0.065003308206561583 0
0.089998311331408717 0.017640695751539995 0
0.089998095915089976 0.020000849015217873 0
0.089997937313864337 0.021919090294151705 0
0.089997784517687335 0.023777859071272715 0
0.089997628037149252 0.025563135118333517 0
0.089997463623800913 0.027281596282479687 0
0.089997291108832547 0.028945253508535308 0
0.089997115507715303 0.030566341825324753 0
0.089996917838022092 0.032156690609694602 0
0.089996695990006481 0.033726906452372078 0
0.089996428229569506 0.035286991132488905 0
0.089996050373247344 0.036846872879007148 0
0.089995683137109053 0.038415572409133333 0
0.089995637752361246 0.040002533396411868 0
0.089995880184849386 0.041618355150946244 0
0.089996212515087756 0.043274715119059844 0
0.089996602167489073 0.044986347907265092 0
0.08999699901497292 0.046769243914694232 0
0.089997376125796641 0.048644651286407319 0
0.089997691970560081 0.050640840733618721 0
0.089997953115784762 0.052797728455856362 0
0.089998152416212077 0.0551742983269932 0
0.089998326708470397 0.057868771768321094 0
0.089998469071252432 0.061066367527508825 0
0.089998693768963342 0.065287566797369745 0
0.10999939471773676 0.01764940579275464 0
0.10999931202269465 0.020010578981134255 0
0.10999924429308505 0.021929735569298933 0
0.10999917765886114 0.023789527879240012 0
0.10999910920543041 0.025575932178964898 0
0.10999905461769519 0.027295639408274307 0
0.1099989932710671 0.028960680136624378 0
0.10999891391533306 0.030583271536668018 0
0.10999882610131791 0.032175115552832645 0
0.10999872918730549 0.033746952716623695 0
0.1099986335599859 0.035308760790837675 0
0.10999850879837758 0.036870614957448811 0
0.10999841143463135 0.038441360772737014 0
0.10999840251379561 0.040030553414408789 0
0.10999844615906872 0.041648792724675941 0
0.1099985479685304 0.043308048051446391 0
0.10999867499527856 0.045022475702859978 0
0.10999881592158077 0.046808167416332848 0
0.109998954439498 0.048686634362741593 0
0.10999906438910786 0.050686179806881754 0
0.10999914880310523 0.052846812674091054 0
0.1099992151793741 0.055227599741883029 0
0.10999927597893884 0.057926790233944515 0
0.10999933161577508 0.061129685532482443 0
0.1099994280653027 0.065358174974631172 0
0.1299997568965611 0.017655382743768842 0
0.12999972424351638 0.020017174000765695 0
0.12999970179487791 0.021936793317528062 0
0.12999968111217919 0.023797003232473378 0
0.12999966949066241 0.025583826213337421 0
0.12999964152025945 0.027303911312460231 0
0.12999961833555962 0.02896929663159362 0
0.12999958463679406 0.030592249146855335 0
0.12999955294675131 0.032184454281914764 0
0.12999951359014383 0.03375665943893269 0
0.12999945753241204 0.035318893666711142 0
0.12999939110236958 0.036880912912945873 0
0.12999937968890704 0.038451879337552154 0
0.12999937829909614 0.040041262246403232 0
0.12999935701374984 0.041659741409142227 0
0.12999940316365088 0.043319825127065309 0
0.12999945768014506 0.045036009974328557 0
0.12999951408068977 0.04682284973802317 0
0.1299995608944218 0.048702113930655461 0
0.12999959608978237 0.050701809302802041 0
0.12999962749851218 0.052863288901308009 0
0.12999965306323322 0.05524506172369878 0
0.12999967483587282 0.057945363753499353 0
0.12999969736812125 0.06114949685573897 0
0.12999973829916364 0.065379837914309 0
0.14999990003846897 0.017657933606460258 0
0.14999988945209797 0.020020051566711265 0
0.14999988125105013 0.021939982228487063 0
0.14999987331986825 0.023800323917565105 0
0.14999986322698852 0.025587286018478855 0
0.14999985444568534 0.027307580070466277 0
0.14999985182704409 0.028973089407761176 0
0.14999984490539955 0.030596206357192395 0
0.14999983197136688 0.032188583340880005 0
0.14999980835811408 0.03376095761654458 0
0.14999978370594239 0.035323490842972455 0
0.14999976210751814 0.036885746237183339 0
0.14999973986143725 0.038457006312931252 0
0.14999972049922691 0.040046978524210998 0
0.14999972108610229 0.041665941982450064 0
0.14999974129749413 0.04332613608128643 0
0.14999977199238443 0.045041423619483364 0
0.14999980605409036 0.046827796495095768 0
0.14999979979640468 0.048707170908573752 0
0.14999979777661765 0.050707698322325065 0
0.14999980866522611 0.052869449837983092 0
0.1499998250008866 0.055251565180837195 0
0.14999983639709266 0.057952358200394821 0
0.14999984336437613 0.061157027950033561 0
0.14999986156687253 0.065387593242320852 0
0.16999994560675719 0.017658256710476869 0
0.16999993904635072 0.020020754293701294 0
0.16999993326697435 0.021941143464140039 0
0.16999992703831968 0.023801409106799596 0
0.16999991884523483 0.02558839332243662 0
0.16999991011863019 0.027308777496723679 0
0.16999989824237149 0.028974351308017614 0
0.16999989243368585 0.030597489750556747 0
0.16999988230094557 0.032189817300108642 0
0.16999986820348556 0.033761992317006558 0
0.16999984526522491 0.035324683162988389 0
0.16999981434388201 0.036886849125866907 0
0.16999979233295506 0.038457842351805105 0
0.16999976215735585 0.040048354942615168 0
0.1699997737523149 0.041667514143936324 0
0.16999982545489617 0.043328098975755805 0
0.16999984720984895 0.045043535133043912 0
0.16999984815238847 0.046829307251605272 0
0.16999982539420577 0.048708686502898425 0
0.16999984395663365 0.050709448504340809 0
0.16999986796570071 0.052871296211881295 0
0.16999988475338204 0.055253588810057597 0
0.16999988655345563 0.057954721837748996 0
0.16999989340615895 0.061160672830501632 0
0.16999990967100517 0.065390101603829756 0
0.18999995971166744 0.017658805623305046 0
0.18999995561757035 0.020020820139368654 0
0.18999995520437687 0.021940800158621737 0
0.18999995124519387 0.023801418092405484 0
0.18999994556251726 0.025588747968024871 0
0.18999993512566377 0.027308993980876412 0
0.18999993168922638 0.028974551383351629 0
0.18999991874668568 0.030597752598003944 0
0.18999990555796303 0.032190015452403423 0
0.18999989732110734 0.033762113904942007 0
0.18999989225384398 0.035325133520419695 0
0.18999990191206037 0.036887507772424687 0
0.18999991668796465 0.038458790110445493 0
0.18999991196594312 0.040049184998951118 0
0.18999992036879151 0.041668325406054668 0
0.18999991886570058 0.04332851196851225 0
0.18999990601250899 0.045043489172469781 0
0.18999988366167792 0.046829762867541119 0
0.18999985587491419 0.04870913191151191 0
0.18999991013326967 0.05070980627550991 0
0.18999991755592038 0.052871373668402673 0
0.18999993248769581 0.055252931972078416 0
0.18999994079649249 0.057952531716728505 0
0.18999994856007449 0.061159409204015788 0
0.18999995963490188 0.065390037334769321 0
0.20999999233725389 0.017658775071543745 0
0.20999999118868543 0.020020826791035319 0
0.20999998816223372 0.021940583670961675 0
0.20999998501486453 0.02380081094354421 0
0.20999998197002473 0.025588108268452734 0
0.20999997324434408 0.027308359287105871 0
0.20999997244117266 0.028974003623215595 0
0.20999997165945192 0.030597389419194345 0
0.20999997149629052 0.032189788647158907 0
0.20999995864457446 0.033761986739154003 0
0.20999995164983051 0.035324256031157956 0
0.20999994831425262 0.036886553368696756 0
0.20999995871087182 0.038458567475278482 0
0.20999994562834365 0.040048887997369484 0
0.20999994734480568 0.041667916686890467 0
0.20999995874101363 0.043327945092315592 0
0.20999995874976926 0.045042761113468367 0
0.20999996183539058 0.046829167527601814 0
0.2099999876381495 0.04870851440773518 0
0.2099999850418455 0.050709152375980053 0
0.20999998066383296 0.052870669932167019 0
0.20999997330840303 0.055252145315802678 0
0.20999997901812062 0.057951540640306623 0
0.20999998593544603 0.061158181552612059 0
0.20999999350559803 0.065389101246293921 0
0.23000006143379764 0.01765767415973241 0
0.23000006637047993 0.020019631491906144 0
0.23000007496410674 0.021939341231720214 0
0.23000007615026336 0.023799515778787486 0
0.23000007264695127 0.025586383130171017 0
0.23000007860909899 0.027306874731734876 0
0.23000009052732789 0.028972863261565108 0
0.23000010045465827 0.03059579178948919 0
0.23000010678222108 0.032188029350763835 0
0.23000010892371681 0.033760175594485395 0
0.23000011077533247 0.035322134963353666 0
0.23000012255631794 0.036884685246768661 0
0.23000018516522652 0.038456821668203585 0
0.23000013786558751 0.040046876264112859 0
0.23000011621537969 0.041665783218356275 0
0.23000014491835866 0.043325673365620911 0
0.23000014911693117 0.045040339873812278 0
0.2300001533991938 0.046826875424994446 0
0.23000018908569558 0.048706212488186372 0
0.2300001443874789 0.050706656881488441 0
0.2300001268156312 0.05286816995187324 0
0.23000010583369068 0.055250011223647512 0
0.23000009702833676 0.057951230889977015 0
0.23000009214187425 0.061155631928398159 0
0.23000008309788925 0.065386339904440288 0
0.25000017924964463 0.017655006495436987 0
0.25000020035892145 0.020016665371735957 0
0.25000022162124408 0.021936265963835407 0
0.25000024088242284 0.023796371245281576 0
0.25000025525256692 0.025583062284920917 0
0.25000026977918705 0.027303362938244397 0
0.2500002938327659 0.028968770798239604 0
0.25000031478361207 0.030591796734797189 0
0.25000033399704585 0.032183996492796046 0
0.2500003643713794 0.03375616454547678 0
0.25000041016359048 0.035318381105377293 0
0.25000049604840507 0.036880491348252574 0
0.25000052893753971 0.038451697865446159 0
0.25000057564062927 0.040041509271508728 0
0.25000057212145327 0.04166012963473812 0
0.2500005255612488 0.043319523279396657 0
0.25000049026669313 0.045033722758672956 0
0.25000044035547375 0.046820613495125937 0
0.25000040275696178 0.048699842180010527 0
0.25000036797776726 0.050699308394325134 0
0.25000033685314071 0.052860083557744388 0
0.25000030728646155 0.05524158370052943 0
0.25000028151289966 0.057946102978882287 0
0.25000025842409995 0.06114854249363591 0
0.25000022094567986 0.065378350749102671 0
0.27000051116601664 0.017648955893163676 0
0.27000058353597001 0.020009961978788168 0
0.27000063742318237 0.021928973706198861 0
0.27000069106309205 0.023788757989024863 0
0.27000074048076472 0.025575444711673462 0
0.27000079613105077 0.027295378714683592 0
0.27000085229496834 0.028959624337435732 0
0.27000091059160519 0.030582776873184721 0
0.27000098556156821 0.032174741927286692 0
0.2700010786339353 0.033746449518753489 0
0.2700011871256861 0.035308385033606365 0
0.27000129254551053 0.036870059821450786 0
0.27000145114499891 0.038440739540091418 0
0.2700015696672094 0.040030131648254766 0
0.27000152822415174 0.041648406725729469 0
0.27000138796907797 0.043307502315955593 0
0.27000124842652112 0.045021315737316499 0
0.27000112262358217 0.046806929480683636 0
0.2700009990657733 0.048685246803110462 0
0.27000089489441265 0.050684432972331959 0
0.27000080661910109 0.052844421498913004 0
0.27000072798837027 0.055224611705635862 0
0.27000065970846931 0.057926138329123585 0
0.27000060547865096 0.061128836582875767 0
0.27000052181459994 0.065356915557347572 0
0.29000161039752947 0.017640501986161409 0
0.29000182202196295 0.020000572875303518 0
0.29000197997875116 0.021918813899054486 0
0.2900021319919161 0.023777587400557392 0
0.29000228892908736 0.02556290947774954 0
0.29000244685765181 0.027281254462211153 0
0.29000261413831768 0.028944288631527461 0
0.29000280359221536 0.030566184040871674 0
0.29000302353978574 0.032156657204053953 0
0.29000327033212642 0.033726695122553045 0
0.29000356905090607 0.035286830627944354 0
0.2900039631519552 0.036846564941791407 0
0.2900043418897425 0.038415179015945253 0
0.290004389538976 0.040002305239954301 0
0.29000415915812877 0.041618266963871747 0
0.2900037961434454 0.043274962383115505 0
0.29000338759623528 0.044986233133717697 0
0.29000297839859707 0.046768903438837328 0
0.29000260039003167 0.048644377581773743 0
0.29000227333797435 0.050640709361435138 0
0.29000199788547604 0.052797374349809266 0
0.29000177637520791 0.05517365647918563 0
0.29000159886862353 0.057868439434036398 0
0.29000145427009244 0.061066078143130892 0
0.29000123865011623 0.065287183071928337 0
0.31000482005471797 0.017692169134609203 0
0.31000540342110661 0.020050478683424695 0
0.31000583962393258 0.021965206442615771 0
0.31000623724732324 0.023818182408840077 0
0.31000661000817159 0.025596155652034491 0
0.31000698618172562 0.02730621360874565 0
0.31000736238538268 0.028960668607801301 0
0.31000774776445772 0.030572942345480844 0
0.31000816882331017 0.032153340768099434 0
0.31000867835500601 0.03371287162475381 0
0.31000963232279183 0.035261944924460192 0
0.3100114711369733 0.036810067550843144 0
0.310012506376943 0.038366433044609093 0
0.31001227035165918 0.039940723348881976 0
0.310011348698294 0.041543183629441621 0
0.31001020169787147 0.043185638795775146 0
0.31000895858636235 0.044881860550399839 0
0.31000771789409737 0.046648525722176003 0
0.31000656268951177 0.048507342156614744 0
0.31000555456915446 0.050485674993852384 0
0.31000471599887458 0.052621991689071348 0
0.31000404712945245 0.05497541456891078 0
0.31000353974332451 0.057645345147531661 0
0.31000312675983771 0.060816521956042542 0
0.31000260695047005 0.065003561666425222 0
0.3300089338840273 0.018904031624576795 0
0.33000990020299747 0.021040906361245275 0
0.33001068395906136 0.022764526512176829 0
0.33001144210251337 0.024465357807929359 0
0.33001212164992172 0.026118692774587737 0
0.33001270939371397 0.027723482475229707 0
0.33001324274375887 0.029287086438374129 0
0.33001378062973552 0.030817340999758993 0
0.33001432082689136 0.03232208061384257 0
0.33001494469188569 0.033810868571657889 0
0.33001615866033557 0.035292232271310155 0
0.33001792804240115 0.036774425791796211 0
0.33001862084076211 0.038265767890681639 0
0.33001784851082527 0.039774967591831967 0
0.33001639577260627 0.041311409362896859 0
0.33001469411366374 0.042885802225905149 0
0.33001294414189764 0.044510745692920156 0
0.33001125562374711 0.046201253245204438 0
0.33000970491492659 0.047978595852830805 0
0.33000834998449136 0.049864107353094295 0
0.3300072174636392 0.05189493142577295 0
0.33000631147243442 0.054125953010723774 0
0.33000559793056611 0.056642701628568819 0
0.33000503455040675 0.059604295995762467 0
0.33000428428044248 0.063443131134306566 0
0 0 0
0 0.020000000000000004 0
0 0.040000000000000001 0
0 0.54999999999999993 0
0 0.56000000000000005 0
0 0.58000000000000007 0
0.02 0 0
0.02 0.020000000000000004 0
0.02 0.040000000000000001 0
0.02 0.54999999999999993 0
0.02 0.56000000000000005 0
0.02 0.58000000000000007 0
0.040000000000000001 0 0
0.040000000000000001 0.020000000000000004 0
0.040000000000000001 0.040000000000000001 0
0.040000000000000001 0.54999999999999993 0
0.040000000000000001 0.56000000000000005 0
0.040000000000000001 0.58000000000000007 0
0.059999999999999998 0 0
0.059999999999999998 0.020000000000000004 0
0.059999999999999998 0.040000000000000001 0
0.059999999999999998 0.54999999999999993 0
0.059999999999999998 0.56000000000000005 0
0.059999999999999998 0.58000000000000007 0
0.080000000000000002 0 0
0.080000000000000002 0.020000000000000004 0
0.080000000000000002 0.040000000000000001 0
0.080000000000000002 0.54999999999999993 0
0.080000000000000002 0.56000000000000005 0
0.080000000000000002 0.58000000000000007 0
0.10000000000000001 0 0
0.10000000000000001 0.020000000000000004 0
0.10000000000000001 0.040000000000000001 0
0.10000000000000001 0.54999999999999993 0
0.10000000000000001 0.56000000000000005 0
0.10000000000000001 0.58000000000000007 0
0.12 0 0
0.12 0.020000000000000004 0
0.12 0.040000000000000001 0
0.12 0.54999999999999993 0
0.12 0.56000000000000005 0
0.12 0.58000000000000007 0
0.14000000000000001 0 0
0.14000000000000001 0.020000000000000004 0
0.14000000000000001 0.040000000000000001 0
0.14000000000000001 0.54999999999999993 0
0.14000000000000001 0.56000000000000005 0
0.14000000000000001 0.58000000000000007 0
0.16 0 0
0.16 0.020000000000000004 0
0.16 0.040000000000000001 0
0.16 0.54999999999999993 0
0.16 0.56000000000000005 0
0.16 0.58000000000000007 0
0.17999999999999999 0 0
0.17999999999999999 0.020000000000000004 0
0.17999999999999999 0.040000000000000001 0
0.17999999999999999 0.54999999999999993 0
0.17999999999999999 0.56000000000000005 0
0.17999999999999999 0.58000000000000007 0
0.20000000000000001 0 0
0.20000000000000001 0.020000000000000004 0
0.20000000000000001 0.040000000000000001 0
0.20000000000000001 0.54999999999999993 0
0.20000000000000001 0.56000000000000005 0
0.20000000000000001 0.58000000000000007 0
0.22 0 0
0.22 0.020000000000000004 0
0.22 0.040000000000000001 0
0.22 0.54999999999999993 0
0.22 0.56000000000000005 0
0.22 0.58000000000000007 0
0.23999999999999999 0 0
0.23999999999999999 0.020000000000000004 0
0.23999999999999999 0.040000000000000001 0
0.23999999999999999 0.54999999999999993 0
0.23999999999999999 0.56000000000000005 0
0.23999999999999999 0.58000000000000007 0
0.26000000000000001 0 0
0.26000000000000001 0.020000000000000004 0
0.26000000000000001 0.040000000000000001 0
0.26000000000000001 0.54999999999999993 0
0.26000000000000001 0.56000000000000005 0
0.26000000000000001 0.58000000000000007 0
0.28000000000000003 0 0
0.28000000000000003 0.020000000000000004 0
0.28000000000000003 0.040000000000000001 0
0.28000000000000003 0.54999999999999993 0
0.28000000000000003 0.56000000000000005 0
0.28000000000000003 0.58000000000000007 0
0.29999999999999999 0 0
0.29999999999999999 0.020000000000000004 0
0.29999999999999999 0.040000000000000001 0
0.29999999999999999 0.54999999999999993 0
0.29999999999999999 0.56000000000000005 0
0.29999999999999999 0.58000000000000007 0
0.32000000000000001 0 0
0.32000000000000001 0.020000000000000004 0
0.32000000000000001 0.040000000000000001 0
0.32000000000000001 0.54999999999999993 0
0.32000000000000001 0.56000000000000005 0
0.32000000000000001 0.58000000000000007 0
0.34000000000000002 0 0
0.34000000000000002 0.020000000000000004 0
0.34000000000000002 0.040000000000000001 0
0.34000000000000002 0.54999999999999993 0
0.34000000000000002 0.56000000000000005 0
0.34000000000000002 0.58000000000000007 0
0.35999999999999999 0 0
0.35999999999999999 0.020000000000000004 0
0.35999999999999999 0.040000000000000001 0
0.35999999999999999 0.54999999999999993 0
0.35999999999999999 0.56000000000000005 0
0.35999999999999999 0.58000000000000007 0
0.38 0 0
0.38 0.020000000000000004 0
0.38 0.040000000000000001 0
0.38 0.54999999999999993 0
0.38 0.56000000000000005 0
0.38 0.58000000000000007 0
0.40000000000000002 0 0
0.40000000000000002 0.020000000000000004 0
0.40000000000000002 0.040000000000000001 0
0.40000000000000002 0.54999999999999993 0
0.40000000000000002 0.56000000000000005 0
0.40000000000000002 0.58000000000000007 0
0.41999999999999998 0 0
0.41999999999999998 0.020000000000000004 0
0.41999999999999998 0.040000000000000001 0
0.41999999999999998 0.54999999999999993 0
0.41999999999999998 0.56000000000000005 0
0.41999999999999998 0.58000000000000007 0
0.44 0 0
0.44 0.020000000000000004 0
0.44 0.040000000000000001 0
0.44 0.54999999999999993 0
0.44 0.56000000000000005 0
0.44 0.58000000000000007 0
0.46000000000000002 0 0
0.46000000000000002 0.020000000000000004 0
0.46000000000000002 0.040000000000000001 0
0.46000000000000002 0.54999999999999993 0
0.46000000000000002 0.56000000000000005 0
0.46000000000000002 0.58000000000000007 0
0.47999999999999998 0 0
0.47999999999999998 0.020000000000000004 0
0.47999999999999998 0.040000000000000001 0
0.47999999999999998 0.54999999999999993 0
0.47999999999999998 0.56000000000000005 0
0.47999999999999998 0.58000000000000007 0
0.5 0 0
0.5 0.020000000000000004 0
0.5 0.040000000000000001 0
0.5 0.54999999999999993 0
0.5 0.56000000000000005 0
0.5 0.58000000000000007 0
0.52000000000000002 0 0
0.52000000000000002 0.020000000000000004 0
0.52000000000000002 0.040000000000000001 0
0.52000000000000002 0.54999999999999993 0
0.52000000000000002 0.56000000000000005 0
0.52000000000000002 0.58000000000000007 0
0.54000000000000004 0 0
0.54000000000000004 0.020000000000000004 0
0.54000000000000004 0.040000000000000001 0
0.54000000000000004 0.54999999999999993 0
0.54000000000000004 0.56000000000000005 0
0.54000000000000004 0.58000000000000007 0
0.56000000000000005 0 0
0.56000000000000005 0.020000000000000004 0
0.56000000000000005 0.040000000000000001 0
0.56000000000000005 0.54999999999999993 0
0.56000000000000005 0.56000000000000005 0
0.56000000000000005 0.58000000000000007 0
0.57999999999999996 0 0
0.57999999999999996 0.020000000000000004 0
0.57999999999999996 0.040000000000000001 0
0.57999999999999996 0.54999999999999993 0
0.57999999999999996 0.56000000000000005 0
0.57999999999999996 0.58000000000000007 0
0.59999999999999998 0 0
0.59999999999999998 0.020000000000000004 0
0.59999999999999998 0.040000000000000001 0
0.59999999999999998 0.54999999999999993 0
0.59999999999999998 0.56000000000000005 0
0.59999999999999998 0.58000000000000007 0
0.62 0 0
0.62 0.020000000000000004 0
0.62 0.040000000000000001 0
0.62 0.54999999999999993 0
0.62 0.56000000000000005 0
0.62 0.58000000000000007 0
0.64000000000000001 0 0
0.64000000000000001 0.020000000000000004 0
0.64000000000000001 0.040000000000000001 0
0.64000000000000001 0.54999999999999993 0
0.64000000000000001 0.56000000000000005 0
0.64000000000000001 0.58000000000000007 0
0.66000000000000003 0 0
0.66000000000000003 0.020000000000000004 0
0.66000000000000003 0.040000000000000001 0
0.66000000000000003 0.54999999999999993 0
0.66000000000000003 0.56000000000000005 0
0.66000000000000003 0.58000000000000007 0
0.68000000000000005 0 0
0.68000000000000005 0.020000000000000004 0
0.68000000000000005 0.040000000000000001 0
0.68000000000000005 0.54999999999999993 0
0.68000000000000005 0.56000000000000005 0
0.68000000000000005 0.58000000000000007 0
0.70000000000000007 0 0
0.70000000000000007 0.020000000000000004 0
0.70000000000000007 0.040000000000000001 0
0.70000000000000007 0.54999999999999993 0
0.70000000000000007 0.56000000000000005 0
0.70000000000000007 0.58000000000000007 0
0.71999999999999997 0 0
0.71999999999999997 0.020000000000000004 0
0.71999999999999997 0.040000000000000001 0
0.71999999999999997 0.54999999999999993 0
0.71999999999999997 0.56000000000000005 0
0.71999999999999997 0.58000000000000007 0
0.73999999999999999 0 0
0.73999999999999999 0.020000000000000004 0
0.73999999999999999 0.040000000000000001 0
0.73999999999999999 0.54999999999999993 0
0.73999999999999999 0.56000000000000005 0
0.73999999999999999 0.58000000000000007 0
0.76000000000000001 0 0
0.76000000000000001 0.020000000000000004 0
0.76000000000000001 0.040000000000000001 0
0.76000000000000001 0.54999999999999993 0
0.76000000000000001 0.56000000000000005 0
0.76000000000000001 0.58000000000000007 0
0.78000000000000003 0 0
0.78000000000000003 0.020000000000000004 0
0.78000000000000003 0.040000000000000001 0
0.78000000000000003 0.54999999999999993 0
0.78000000000000003 0.56000000000000005 0
0.78000000000000003 0.58000000000000007 0
0.80000000000000004 0 0
0.80000000000000004 0.020000000000000004 0
0.80000000000000004 0.040000000000000001 0
0.80000000000000004 0.54999999999999993 0
0.80000000000000004 0.56000000000000005 0
0.80000000000000004 0.58000000000000007 0
0.82000000000000006 0 0
0.82000000000000006 0.020000000000000004 0
0.82000000000000006 0.040000000000000001 0
0.82000000000000006 0.54999999999999993 0
0.82000000000000006 0.56000000000000005 0
0.82000000000000006 0.58000000000000007 0
0.83999999999999997 0 0
0.83999999999999997 0.020000000000000004 0
0.83999999999999997 0.040000000000000001 0
0.83999999999999997 0.54999999999999993 0
0.83999999999999997 0.56000000000000005 0
0.83999999999999997 0.58000000000000007 0
0.85999999999999999 0 0
0.85999999999999999 0.020000000000000004 0
0.85999999999999999 0.040000000000000001 0
0.85999999999999999 0.54999999999999993 0
0.85999999999999999 0.56000000000000005 0
0.85999999999999999 0.58000000000000007 0
0.88 0 0
0.88 0.020000000000000004 0
0.88 0.040000000000000001 0
0.88 0.54999999999999993 0
0.88 0.56000000000000005 0
0.88 0.58000000000000007 0
0.90000000000000002 0 0
0.90000000000000002 0.020000000000000004 0
0.90000000000000002 0.040000000000000001 0
0.90000000000000002 0.54999999999999993 0
0.90000000000000002 0.56000000000000005 0
0.90000000000000002 0.58000000000000007 0
0.92000000000000004 0 0
0.92000000000000004 0.020000000000000004 0
0.92000000000000004 0.040000000000000001 0
0.92000000000000004 0.54999999999999993 0
0.92000000000000004 0.56000000000000005 0
0.92000000000000004 0.58000000000000007 0
0.94000000000000006 0 0
0.94000000000000006 0.020000000000000004 0
0.94000000000000006 0.040000000000000001 0
0.94000000000000006 0.54999999999999993 0
0.94000000000000006 0.56000000000000005 0
0.94000000000000006 0.58000000000000007 0
0.95999999999999996 0 0
0.95999999999999996 0.020000000000000004 0
0.95999999999999996 0.040000000000000001 0
0.95999999999999996 0.54999999999999993 0
0.95999999999999996 0.56000000000000005 0
0.95999999999999996 0.58000000000000007 0
0.97999999999999998 0 0
0.97999999999999998 0.020000000000000004 0
0.97999999999999998 0.040000000000000001 0
0.97999999999999998 0.54999999999999993 0
0.97999999999999998 0.56000000000000005 0
0.97999999999999998 0.58000000000000007 0
1 0 0
1 0.020000000000000004 0
1 0.040000000000000001 0
1 0.54999999999999993 0
1 0.56000000000000005 0
1 0.58000000000000007 0
VERTICES 681 1362
1 0
1 1
1 2
1 3
1 4
1 5
1 6
1 7
1 8
1 9
1 10
1 11
1 12
1 13
1 14
1 15
1 16
1 17
1 18
1 19
1 20
1 21
1 22
1 23
1 24
1 25
1 26
1 27
1 28
1 29
1 30
1 31
1 32
1 33
1 34
1 35
1 36
1 37
1 38
1 39
1 40
1 41
1 42
1 43
1 44
1 45
1 46
1 47
1 48
1 49
1 50
1 51
1 52
1 53
1 54
1 55
1 56
1 57
1 58
1 59
1 60
1 61
1 62
1 63
1 64
1 65
1 66
1 67
1 68
1 69
1 70
1 71
1 72
1 73
1 74
1 75
1 76
1 77
1 78
1 79
1 80
1 81
1 82
1 83
1 84
1 85
1 86
1 87
1 88
1 89
1 90
1 91
1 92
1 93
1 94
1 95
1 96
1 97
1 98
1 99
1 100
1 101
1 102
1 103
1 104
1 105
1 106
1 107
1 108
1 109
1 110
1 111
1 112
1 113
1 114
1 115
1 116
1 117
1 118
1 119
1 120
1 121
1 122
1 123
1 124
1 125
1 126
1 127
1 128
1 129
1 130
1 131
1 132
1 133
1 134
1 135
1 136
1 137
1 138
1 139
1 140
1 141
1 142
1 143
1 144
1 145
1 146
1 147
1 148
1 149
1 150
1 151
1 152
1 153
1 154
1 155
1 156
1 157
1 158
1 159
1 160
1 161
1 162
1 163
1 164
1 165
1 166
1 167
1 168
1 169
1 170
1 171
1 172
1 173
1 174
1 175
1 176
1 177
1 178
1 179
1 180
1 181
1 182
1 183
1 184
1 185
1 186
1 187
1 188
1 189
1 190
1 191
1 192
1 193
1 194
1 195
1 196
1 197
1 198
1 199
1 200
1 201
1 202
1 203
1 204
1 205
1 206
1 207
1 208
1 209
1 210
1 211
1 212
1 213
1 214
1 215
1 216
1 217
1 218
1 219
1 220
1 221
1 222
1 223
1 224
1 225
1 226
1 227
1 228
1 229
1 230
1 231
1 232
1 233
1 234
1 235
1 236
1 237
1 238
1 239
1 240
1 241
1 242
1 243
1 244
1 245
1 246
1 247
1 248
1 249
1 250
1 251
1 252
1 253
1 254
1 255
1 256
1 257
1 258
1 259
1 260
1 261
1 262
1 263
1 264
1 265
1 266
1 267
1 268
1 269
1 270
1 271
1 272
1 273
1 274
1 275
1 276
1 277
1 278
1 279
1 280
1 281
1 282
1 283
1 284
1 285
1 286
1 287
1 288
1 289
1 290
1 291
1 292
1 293
1 294
1 295
1 296
1 297
1 298
1 299
1 300
1 301
1 302
1 303
1 304
1 305
1 306
1 307
1 308
1 309
1 310
1 311
1 312
1 313
1 314
1 315
1 316
1 317
1 318
1 319
1 320
1 321
1 322
1 323
1 324
1 325
1 326
1 327
1 328
1 329
1 330
1 331
1 332
1 333
1 334
1 335
1 336
1 337
1 338
1 339
1 340
1 341
1 342
1 343
1 344
1 345
1 346
1 347
1 348
1 349
1 350
1 351
1 352
1 353
1 354
1 355
1 356
1 357
1 358
1 359
1 360
1 361
1 362
1 363
1 364
1 365
1 366
1 367
1 368
1 369
1 370
1 371
1 372
1 373
1 374
1 375
1 376
1 377
1 378
1 379
1 380
1 381
1 382
1 383
1 384
1 385
1 386
1 387
1 388
1 389
1 390
1 391
1 392
1 393
1 394
1 395
1 396
1 397
1 398
1 399
1 400
1 401
1 402
1 403
1 404
1 405
1 406
1 407
1 408
1 409
1 410
1 411
1 412
1 413
1 414
1 415
1 416
1 417
1 418
1 419
1 420
1 421
1 422
1 423
1 424
1 425
1 426
1 427
1 428
1 429
1 430
1 431
1 432
1 433
1 434
1 435
1 436
1 437
1 438
1 439
1 440
1 441
1 442
1 443
1 444
1 445
1 446
1 447
1 448
1 449
1 450
1 451
1 452
1 453
1 454
1 455
1 456
1 457
1 458
1 459
1 460
1 461
1 462
1 463
1 464
1 465
1 466
1 467
1 468
1 469
1 470
1 471
1 472
1 473
1 474
1 475
1 476
1 477
1 478
1 479
1 480
1 481
1 482
1 483
1 484
1 485
1 486
1 487
1 488
1 489
1 490
1 491
1 492
1 493
1 494
1 495
1 496
1 497
1 498
1 499
1 500
1 501
1 502
1 503
1 504
1 505
1 506
1 507
1 508
1 509
1 510
1 511
1 512
1 513
1 514
1 515
1 516
1 517
1 518
1 519
1 520
1 521
1 522
1 523
1 524
1 525
1 526
1 527
1 528
1 529
1 530
1 531
1 532
1 533
1 534
1 535
1 536
1 537
1 538
1 539
1 540
1 541
1 542
1 543
1 544
1 545
1 546
1 547
1 548
1 549
1 550
1 551
1 552
1 553
1 554
1 555
1 556
1 557
1 558
1 559
1 560
1 561
1 562
1 563
1 564
1 565
1 566
1 567
1 568
1 569
1 570
1 571
1 572
1 573
1 574
1 575
1 576
1 577
1 578
1 579
1 580
1 581
1 582
1 583
1 584
1 585
1 586
1 587
1 588
1 589
1 590
1 591
1 592
1 593
1 594
1 595
1 596
1 597
1 598
1 599
1 600
1 601
1 602
1 603
1 604
1 605
1 606
1 607
1 608
1 609
1 610
1 611
1 612
1 613
1 614
1 615
1 616
1 617
1 618
1 619
1 620
1 621
1 622
1 623
1 624
1 625
1 626
1 627
1 628
1 629
1 630
1 631
1 632
1 633
1 634
1 635
1 636
1 637
1 638
1 639
1 640
1 641
1 642
1 643
1 644
1 645
1 646
1 647
1 648
1 649
1 650
1 651
1 652
1 653
1 654
1 655
1 656
1 657
1 658
1 659
1 660
1 661
1 662
1 663
1 664
1 665
1 666
1 667
1 668
1 669
1 670
1 671
1 672
1 673
1 674
1 675
1 676
1 677
1 678
1 679
1 680
POINT_DATA 681
SCALARS is_boundary int 1
LOOKUP_TABLE default
0
0
0
0
0
0
0
0
0
0
0
0
0
0
0
0
0
0
0
0
0
0
0
0
0
0
0
0
0
0
0
0
0
0
0
0
0
0
0
0
0
0
0
0
0
0
0
0
0
0
0
0
0
0
0
0
0
0
0
0
0
0
0
0
0
0
0
0
0
0
0
0
0
0
0
0
0
0
0
0
0
0
0
0
0
0
0
0
0
0
0
0
0
0
0
0
0
0
0
0
0
0
0
0
0
0
0
0
0
0
0
0
0
0
0
0
0
0
0
0
0
0
0
0
0
0
0
0
0
0
0
0
0
0
0
0
0
0
0
0
0
0
0
0
0
0
0
0
0
0
0
0
0
0
0
0
0
0
0
0
0
0
0
0
0
0
0
0
0
0
0
0
0
0
0
0
0
0
0
0
0
0
0
0
0
0
0
0
0
0
0
0
0
0
0
0
0
0
0
0
0
0
0
0
0
0
0
0
0
0
0
0
0
0
0
0
0
0
0
0
0
0
0
0
0
0
0
0
0
0
0
0
0
0
0
0
0
0
0
0
0
0
0
0
0
0
0
0
0
0
0
0
0
0
0
0
0
0
0
0
0
0
0
0
0
0
0
0
0
0
0
0
0
0
0
0
0
0
0
0
0
0
0
0
0
0
0
0
0
0
0
0
0
0
0
0
0
0
0
0
0
0
0
0
0
0
0
0
0
0
0
0
0
0
0
0
0
0
0
0
0
0
0
0
0
0
0
0
0
0
0
0
0
0
0
0
0
0
0
0
0
0
0
0
0
0
0
0
0
0
0
0
0
0
0
0
0
0
0
0
0
0
0
0
0
0
0
0
0
0
0
0
0
0
0
1
1
1
1
1
1
1
1
1
1
1
1
1
1
1
1
1
1
1
1
1
1
1
1
1
1
1
1
1
1
1
1
1
1
1
1
1
1
1
1
1
1
1
1
1
1
1
1
1
1
1
1
1
1
1
1
1
1
1
1
1
1
1
1
1
1
1
1
1
1
1
1
1
1
1
1
1
1
1
1
1
1
1
1
1
1
1
1
1
1
1
1
1
1
1
1
1
1
1
1
1
1
1
1
1
1
1
1
1
1
1
1
1
1
1
1
1
1
1
1
1
1
1
1
1
1
1
1
1
1
1
1
1
1
1
1
1
1
1
1
1
1
1
1
1
1
1
1
1
1
1
1
1
1
1
1
1
1
1
1
1
1
1
1
1
1
1
1
1
1
1
1
1
1
1
1
1
1
1
1
1
1
1
1
1
1
1
1
1
1
1
1
1
1
1
1
1
1
1
1
1
1
1
1
1
1
1
1
1
1
1
1
1
1
1
1
1
1
1
1
1
1
1
1
1
1
1
1
1
1
1
1
1
1
1
1
1
1
1
1
1
1
1
1
1
1
1
1
1
1
1
1
1
1
1
1
1
1
1
1
1
1
1
1
1
1
1
1
1
1
1
1
1
1
1
1
1
1
1
1
1
1
1
1
1
1
1
1
1
1
1
1
1
1
1
1
1
1
1
1
1
1
1
1
1
1
SCALARS rho float 1
LOOKUP_TABLE default
1020
1020
1020
1020
1020
1020
1020
1020
1020
1020
1020
1020
1020
1020
1020
1020
1020
1020
1020
1020
1020
1020
1020
1020
1020
1020
1020
1020
1020
1020
1020
1020
1020
1020
1020
1020
1020
1020
1020
1020
1020
1020
1020
1020
1020
1020
1020
1020
1020
1020
1020
1020
1020
1020
1020
1020
1020
1020
1020
1020
1020
1020
1020
1020
1020
1020
1020
1020
1020
1020
1020
1020
1020
1020
1020
1020
1020
1020
1020
1020
1020
1020
1020
1020
1020
1020
1020
1020
1020
1020
1020
1020
1020
1020
1020
1020
1020
1020
1020
1020
1020
1020
1020
1020
1020
1020
1020
1020
1020
1020
1020
1020
1020
1020
1020
1020
1020
1020
1020
1020
1020
1020
1020
1020
1020
1020
1020
1020
1020
1020
1020
1020
1020
1020
1020
1020
1020
1020
1020
1020
1020
1020
1020
1020
1020
1020
1020
1020
1020
1020
1020
1020
1020
1020
1020
1020
1020
1020
1020
1020
1020
1020
1020
1020
1020
1020
1020
1020
1020
1020
1020
1020
1020
1020
1020
1020
1020
1020
1020
1020
1020
1020
1020
1020
1020
1020
1020
1020
1020
1020
1020
1020
1020
1020
1020
1020
1020
1020
1020
1020
1020
1020
1020
1020
1020
1020
1020
1020
1020
1020
1020
1020
1020
1020
1020
1020
1020
1020
1020
1020
1020
1020
1020
1020
1020
1020
1020
1020
1020
1020
1020
1020
1020
1020
1020
1020
1020
1020
1020
1020
1020
1020
1020
1020
1020
1020
1020
1020
1020
1020
1020
1020
1020
1020
1020
1020
1020
1020
1020
1020
1020
1020
1020
1020
1020
1020
1020
1020
1020
1020
1020
1020
1020
1020
1020
1020
1020
1020
1020
1020
1020
1020
1020
1020
1020
1020
1020
1020
1020
1020
1020
1020
1020
1020
1020
1020
1020
1020
1020
1020
1020
1020
1020
1020
1020
1020
1020
1020
1020
1020
1020
1020
1020
1020
1020
1020
1020
1020
1020
1020
1020
1020
1020
1020
1020
1020
1020
1020
1020
1020
1020
1020
1020
1020
1020
1020
1020
1020
1020
1020
1020
1020
1020
1020
1020
1020
1020
1020
1020
1020
1020
1020
1020
1020
1020
1020
1020
1020
1020
1020
1020
1020
1020
1020
1020
1020
1020
1020
1020
1020
1020
1020
1020
1020
1020
1000
1000
1000
1000
1000
1000
1000
1000
1000
1000
1000
1000
1000
1000
1000
1000
1000
1000
1000
1000
1000
1000
1000
1000
1000
1000
1000
1000
1000
1000
1000
1000
1000
1000
1000
1000
1000
1000
1000
1000
1000
1000
1000
1000
1000
1000
1000
1000
1000
1000
1000
1000
1000
1000
1000
1000
1000
1000
1000
1000
1000
1000
1000
1000
1000
1000
1000
1000
1000
1000
1000
1000
1000
1000
1000
1000
1000
1000
1000
1000
1000
1000
1000
1000
1000
1000
1000
1000
1000
1000
1000
1000
1000
1000
1000
1000
1000
1000
1000
1000
1000
1000
1000
1000
1000
1000
1000
1000
1000
1000
1000
1000
1000
1000
1000
1000
1000
1000
1000
1000
1000
1000
1000
1000
1000
1000
1000
1000
1000
1000
1000
1000
1000
1000
1000
1000
1000
1000
1000
1000
1000
1000
1000
1000
1000
1000
1000
1000
1000
1000
1000
1000
1000
1000
1000
1000
1000
1000
1000
1000
1000
1000
1000
1000
1000
1000
1000
1000
1000
1000
1000
1000
1000
1000
1000
1000
1000
1000
1000
1000
1000
1000
1000
1000
1000
1000
1000
1000
1000
1000
1000
1000
1000
1000
1000
1000
1000
1000
1000
1000
1000
1000
1000
1000
1000
1000
1000
1000
1000
1000
1000
1000
1000
1000
1000
1000
1000
1000
1000
1000
1000
1000
1000
1000
1000
1000
1000
1000
1000
1000
1000
1000
1000
1000
1000
1000
1000
1000
1000
1000
1000
1000
1000
1000
1000
1000
1000
1000
1000
1000
1000
1000
1000
1000
1000
1000
1000
1000
1000
1000
1000
1000
1000
1000
1000
1000
1000
1000
1000
1000
1000
1000
1000
1000
1000
1000
1000
1000
1000
1000
1000
1000
1000
1000
1000
1000
1000
1000
1000
1000
1000
1000
1000
1000
1000
1000
1000
1000
1000
1000
1000
1000
1000
1000
1000
1000
SCALARS p float 1
LOOKUP_TABLE default
25004.681136676067
25004.681136676067
25004.681136676067
25004.681136676067
25004.681136676067
25004.681136676067
25004.681136676067
25004.681136676067
25004.681136676067
25004.681136676067
25004.681136676067
25004.681136676067
25004.681136676067
25004.681136676067
25004.681136676067
25004.681136676067
25004.681136676067
25004.681136676067
25004.681136676067
25004.681136676067
25004.681136676067
25004.681136676067
25004.681136676067
25004.681136676067
25004.681136676067
25004.681136676067
25004.681136676067
25004.681136676067
25004.681136676067
25004.681136676067
25004.681136676067
25004.681136676067
25004.681136676067
25004.681136676067
25004.681136676067
25004.681136676067
25004.681136676067
25004.681136676067
25004.681136676067
25004.681136676067
25004.681136676067
25004.681136676067
25004.681136676067
25004.681136676067
25004.681136676067
25004.681136676067
25004.681136676067
25004.681136676067
25004.681136676067
25004.681136676067
25004.681136676067
25004.681136676067
25004.681136676067
25004.681136676067
25004.681136676067
25004.681136676067
25004.681136676067
25004.681136676067
25004.681136676067
25004.681136676067
25004.681136676067
25004.681136676067
25004.681136676067
25004.681136676067
25004.681136676067
25004.681136676067
25004.681136676067
25004.681136676067
25004.681136676067
25004.681136676067
25004.681136676067
25004.681136676067
25004.681136676067
25004.681136676067
25004.681136676067
25004.681136676067
25004.681136676067
25004.681136676067
25004.681136676067
25004.681136676067
25004.681136676067
25004.681136676067
25004.681136676067
25004.681136676067
25004.681136676067
25004.681136676067
25004.681136676067
25004.681136676067
25004.681136676067
25004.681136676067
25004.681136676067
25004.681136676067
25004.681136676067
25004.681136676067
25004.681136676067
25004.681136676067
25004.681136676067
25004.681136676067
25004.681136676067
25004.681136676067
25004.681136676067
25004.681136676067
25004.681136676067
25004.681136676067
25004.681136676067
25004.681136676067
25004.681136676067
25004.681136676067
25004.681136676067
25004.681136676067
25004.681136676067
25004.681136676067
25004.681136676067
25004.681136676067
25004.681136676067
25004.681136676067
25004.681136676067
25004.681136676067
25004.681136676067
25004.681136676067
25004.681136676067
25004.681136676067
25004.681136676067
25004.681136676067
25004.681136676067
25004.681136676067
25004.681136676067
25004.681136676067
25004.681136676067
25004.681136676067
25004.681136676067
25004.681136676067
25004.681136676067
25004.681136676067
25004.681136676067
25004.681136676067
25004.681136676067
25004.681136676067
25004.681136676067
25004.681136676067
25004.681136676067
25004.681136676067
25004.681136676067
25004.681136676067
25004.681136676067
25004.681136676067
25004.681136676067
25004.681136676067
25004.681136676067
25004.681136676067
25004.681136676067
25004.681136676067
25004.681136676067
25004.681136676067
25004.681136676067
25004.681136676067
25004.681136676067
25004.681136676067
25004.681136676067
25004.681136676067
25004.681136676067
25004.681136676067
25004.681136676067
25004.681136676067
25004.681136676067
25004.681136676067
25004.681136676067
25004.681136676067
25004.681136676067
25004.681136676067
25004.681136676067
25004.681136676067
25004.681136676067
25004.681136676067
25004.681136676067
25004.681136676067
25004.681136676067
25004.681136676067
25004.681136676067
25004.681136676067
25004.681136676067
25004.681136676067
25004.681136676067
25004.681136676067
25004.681136676067
25004.681136676067
25004.681136676067
25004.681136676067
25004.681136676067
25004.681136676067
25004.681136676067
25004.681136676067
25004.681136676067
25004.681136676067
25004.681136676067
25004.681136676067
25004.681136676067
25004.681136676067
25004.681136676067
25004.681136676067
25004.681136676067
25004.681136676067
25004.681136676067
25004.681136676067
25004.681136676067
25004.681136676067
25004.681136676067
25004.681136676067
25004.681136676067
25004.681136676067
25004.681136676067
25004.681136676067
25004.681136676067
25004.681136676067
25004.681136676067
25004.681136676067
25004.681136676067
25004.681136676067
25004.681136676067
25004.681136676067
25004.681136676067
25004.681136676067
25004.681136676067
25004.681136676067
25004.681136676067
25004.681136676067
25004.681136676067
25004.681136676067
25004.681136676067
25004.681136676067
25004.681136676067
25004.681136676067
25004.681136676067
25004.681136676067
25004.681136676067
25004.681136676067
25004.681136676067
25004.681136676067
25004.681136676067
25004.681136676067
25004.681136676067
25004.681136676067
25004.681136676067
25004.681136676067
25004.681136676067
25004.681136676067
25004.681136676067
25004.681136676067
25004.681136676067
25004.681136676067
25004.681136676067
25004.681136676067
25004.681136676067
25004.681136676067
25004.681136676067
25004.681136676067
25004.681136676067
25004.681136676067
25004.681136676067
25004.681136676067
25004.681136676067
25004.681136676067
25004.681136676067
25004.681136676067
25004.681136676067
25004.681136676067
25004.681136676067
25004.681136676067
25004.681136676067
25004.681136676067
25004.681136676067
25004.681136676067
25004.681136676067
25004.681136676067
25004.681136676067
25004.681136676067
25004.681136676067
25004.681136676067
25004.681136676067
25004.681136676067
25004.681136676067
25004.681136676067
25004.681136676067
25004.681136676067
25004.681136676067
25004.681136676067
25004.681136676067
25004.681136676067
25004.681136676067
25004.681136676067
25004.681136676067
25004.681136676067
25004.681136676067
25004.681136676067
25004.681136676067
25004.681136676067
25004.681136676067
25004.681136676067
25004.681136676067
25004.681136676067
25004.681136676067
25004.681136676067
25004.681136676067
25004.681136676067
25004.681136676067
25004.681136676067
25004.681136676067
25004.681136676067
25004.681136676067
25004.681136676067
25004.681136676067
25004.681136676067
25004.681136676067
25004.681136676067
25004.681136676067
25004.681136676067
25004.681136676067
25004.681136676067
25004.681136676067
25004.681136676067
25004.681136676067
25004.681136676067
25004.681136676067
25004.681136676067
25004.681136676067
25004.681136676067
25004.681136676067
25004.681136676067
25004.681136676067
25004.681136676067
25004.681136676067
25004.681136676067
25004.681136676067
25004.681136676067
25004.681136676067
25004.681136676067
25004.681136676067
25004.681136676067
25004.681136676067
25004.681136676067
25004.681136676067
25004.681136676067
25004.681136676067
25004.681136676067
25004.681136676067
25004.681136676067
25004.681136676067
25004.681136676067
25004.681136676067
25004.681136676067
25004.681136676067
25004.681136676067
25004.681136676067
25004.681136676067
25004.681136676067
25004.681136676067
25004.681136676067
25004.681136676067
25004.681136676067
25004.681136676067
25004.681136676067
25004.681136676067
25004.681136676067
25004.681136676067
25004.681136676067
25004.681136676067
25004.681136676067
25004.681136676067
25004.681136676067
25004.681136676067
25004.681136676067
25004.681136676067
25004.681136676067
25004.681136676067
25004.681136676067
0
0
0
0
0
0
23794.879978068555
24981.512061246722
24991.328595361101
0
0
0
24996.1083700329
25003.908562746998
25004.210009123926
0
0
0
25000.675178935351
25004.288482966709
25004.437444490402
0
0
0
25000.965626254419
25004.295345186325
25004.437454031169
0
0
0
25000.980659973491
25004.294927258969
25004.436672430045
0
0
0
25000.974870097831
25004.294588668236
25004.436561480583
0
0
0
25000.97139619611
25004.29442743956
25004.436542363423
0
0
0
25000.970023150741
25004.294362323573
25004.43653802239
0
0
0
25000.96966070887
25004.294342973291
25004.436537599944
0
0
0
25000.969700009067
25004.294344545222
25004.43653960108
0
0
0
25000.970238289723
25004.294370346855
25004.436540289622
0
0
0
25000.971756090279
25004.294441657843
25004.436547006808
0
0
0
25000.975250629857
25004.294602849699
25004.436567735629
0
0
0
25000.980944954707
25004.294935521575
25004.436673734981
0
0
0
25000.965699398243
25004.295343695354
25004.437451750982
0
0
0
25000.675177447923
25004.288482694454
25004.437447864173
0
0
0
24996.107962722908
25003.908525478888
25004.209991582244
0
0
0
23794.609342239106
24981.508827185833
24991.326052864533
0
0
0
0
0
0
0
0
0
0
0
0
0
0
0
0
0
0
0
0
0
0
0
0
0
0
0
0
0
0
0
0
0
0
0
0
0
0
0
0
0
0
0
0
0
0
0
0
0
0
0
0
0
0
0
0
0
0
0
0
0
0
0
0
0
0
0
0
0
0
0
0
0
0
0
0
0
0
0
0
0
0
0
0
0
0
0
0
0
0
0
0
0
0
0
0
0
0
0
0
0
0
0
0
0
0
0
0
0
0
0
0
0
0
0
0
0
0
0
0
0
0
0
0
0
0
0
0
0
0
0
0
0
0
0
0
0
0
0
0
0
0
0
0
0
0
0
0
0
0
0
0
0
0
0
0
0
0
0
0
0
0
0
0
0
0
0
0
0
0
0
0
0
0
0
0
0
0
0
0
0
0
0
0
0
0
0
0
0
0
0
0
0
0
0
SCALARS m float 1
LOOKUP_TABLE default
0.39965556373580352
0.39965556373580352
0.39965556373580352
0.39965556373580352
0.39965556373580352
0.39965556373580352
0.39965556373580352
0.39965556373580352
0.39965556373580352
0.39965556373580352
0.39965556373580352
0.39965556373580352
0.39965556373580352
0.39965556373580352
0.39965556373580352
0.39965556373580352
0.39965556373580352
0.39965556373580352
0.39965556373580352
0.39965556373580352
0.39965556373580352
0.39965556373580352
0.39965556373580352
0.39965556373580352
0.39965556373580352
0.39965556373580352
0.39965556373580352
0.39965556373580352
0.39965556373580352
0.39965556373580352
0.39965556373580352
0.39965556373580352
0.39965556373580352
0.39965556373580352
0.39965556373580352
0.39965556373580352
0.39965556373580352
0.39965556373580352
0.39965556373580352
0.39965556373580352
0.39965556373580352
0.39965556373580352
0.39965556373580352
0.39965556373580352
0.39965556373580352
0.39965556373580352
0.39965556373580352
0.39965556373580352
0.39965556373580352
0.39965556373580352
0.39965556373580352
0.39965556373580352
0.39965556373580352
0.39965556373580352
0.39965556373580352
0.39965556373580352
0.39965556373580352
0.39965556373580352
0.39965556373580352
0.39965556373580352
0.39965556373580352
0.39965556373580352
0.39965556373580352
0.39965556373580352
0.39965556373580352
0.39965556373580352
0.39965556373580352
0.39965556373580352
0.39965556373580352
0.39965556373580352
0.39965556373580352
0.39965556373580352
0.39965556373580352
0.39965556373580352
0.39965556373580352
0.39965556373580352
0.39965556373580352
0.39965556373580352
0.39965556373580352
0.39965556373580352
0.39965556373580352
0.39965556373580352
0.39965556373580352
0.39965556373580352
0.39965556373580352
0.39965556373580352
0.39965556373580352
0.39965556373580352
0.39965556373580352
0.39965556373580352
0.39965556373580352
0.39965556373580352
0.39965556373580352
0.39965556373580352
0.39965556373580352
0.39965556373580352
0.39965556373580352
0.39965556373580352
0.39965556373580352
0.39965556373580352
0.39965556373580352
0.39965556373580352
0.39965556373580352
0.39965556373580352
0.39965556373580352
0.39965556373580352
0.39965556373580352
0.39965556373580352
0.39965556373580352
0.39965556373580352
0.39965556373580352
0.39965556373580352
0.39965556373580352
0.39965556373580352
0.39965556373580352
0.39965556373580352
0.39965556373580352
0.39965556373580352
0.39965556373580352
0.39965556373580352
0.39965556373580352
0.39965556373580352
0.39965556373580352
0.39965556373580352
0.39965556373580352
0.39965556373580352
0.39965556373580352
0.39965556373580352
0.39965556373580352
0.39965556373580352
0.39965556373580352
0.39965556373580352
0.39965556373580352
0.39965556373580352
0.39965556373580352
0.39965556373580352
0.39965556373580352
0.39965556373580352
0.39965556373580352
0.39965556373580352
0.39965556373580352
0.39965556373580352
0.39965556373580352
0.39965556373580352
0.39965556373580352
0.39965556373580352
0.39965556373580352
0.39965556373580352
0.39965556373580352
0.39965556373580352
0.39965556373580352
0.39965556373580352
0.39965556373580352
0.39965556373580352
0.39965556373580352
0.39965556373580352
0.39965556373580352
0.39965556373580352
0.39965556373580352
0.39965556373580352
0.39965556373580352
0.39965556373580352
0.39965556373580352
0.39965556373580352
0.39965556373580352
0.39965556373580352
0.39965556373580352
0.39965556373580352
0.39965556373580352
0.39965556373580352
0.39965556373580352
0.39965556373580352
0.39965556373580352
0.39965556373580352
0.39965556373580352
0.39965556373580352
0.39965556373580352
0.39965556373580352
0.39965556373580352
0.39965556373580352
0.39965556373580352
0.39965556373580352
0.39965556373580352
0.39965556373580352
0.39965556373580352
0.39965556373580352
0.39965556373580352
0.39965556373580352
0.39965556373580352
0.39965556373580352
0.39965556373580352
0.39965556373580352
0.39965556373580352
0.39965556373580352
0.39965556373580352
0.39965556373580352
0.39965556373580352
0.39965556373580352
0.39965556373580352
0.39965556373580352
0.39965556373580352
0.39965556373580352
0.39965556373580352
0.39965556373580352
0.39965556373580352
0.39965556373580352
0.39965556373580352
0.39965556373580352
0.39965556373580352
0.39965556373580352
0.39965556373580352
0.39965556373580352
0.39965556373580352
0.39965556373580352
0.39965556373580352
0.39965556373580352
0.39965556373580352
0.39965556373580352
0.39965556373580352
0.39965556373580352
0.39965556373580352
0.39965556373580352
0.39965556373580352
0.39965556373580352
0.39965556373580352
0.39965556373580352
0.39965556373580352
0.39965556373580352
0.39965556373580352
0.39965556373580352
0.39965556373580352
0.39965556373580352
0.39965556373580352
0.39965556373580352
0.39965556373580352
0.39965556373580352
0.39965556373580352
0.39965556373580352
0.39965556373580352
0.39965556373580352
0.39965556373580352
0.39965556373580352
0.39965556373580352
0.39965556373580352
0.39965556373580352
0.39965556373580352
0.39965556373580352
0.39965556373580352
0.39965556373580352
0.39965556373580352
0.39965556373580352
0.39965556373580352
0.39965556373580352
0.39965556373580352
0.39965556373580352
0.39965556373580352
0.39965556373580352
0.39965556373580352
0.39965556373580352
0.39965556373580352
0.39965556373580352
0.39965556373580352
0.39965556373580352
0.39965556373580352
0.39965556373580352
0.39965556373580352
0.39965556373580352
0.39965556373580352
0.39965556373580352
0.39965556373580352
0.39965556373580352
0.39965556373580352
0.39965556373580352
0.39965556373580352
0.39965556373580352
0.39965556373580352
0.39965556373580352
0.39965556373580352
0.39965556373580352
0.39965556373580352
0.39965556373580352
0.39965556373580352
0.39965556373580352
0.39965556373580352
0.39965556373580352
0.39965556373580352
0.39965556373580352
0.39965556373580352
0.39965556373580352
0.39965556373580352
0.39965556373580352
0.39965556373580352
0.39965556373580352
0.39965556373580352
0.39965556373580352
0.39965556373580352
0.39965556373580352
0.39965556373580352
0.39965556373580352
0.39965556373580352
0.39965556373580352
0.39965556373580352
0.39965556373580352
0.39965556373580352
0.39965556373580352
0.39965556373580352
0.39965556373580352
0.39965556373580352
0.39965556373580352
0.39965556373580352
0.39965556373580352
0.39965556373580352
0.39965556373580352
0.39965556373580352
0.39965556373580352
0.39965556373580352
0.39965556373580352
0.39965556373580352
0.39965556373580352
0.39965556373580352
0.39965556373580352
0.39965556373580352
0.39965556373580352
0.39965556373580352
0.39965556373580352
0.39965556373580352
0.39965556373580352
0.39965556373580352
0.39965556373580352
0.39965556373580352
0.39965556373580352
0.39965556373580352
0.39965556373580352
0.39965556373580352
0.39965556373580352
0.39965556373580352
0.39965556373580352
0.39965556373580352
0.39965556373580352
0.39965556373580352
0.39965556373580352
0.39965556373580352
0.39965556373580352
0.39965556373580352
0.39965556373580352
0.39965556373580352
0.39965556373580352
0.39965556373580352
0.39965556373580352
0.39965556373580352
0.39965556373580352
0.39965556373580352
0.39965556373580352
0.39965556373580352
0.39965556373580352
0.39965556373580352
0.39965556373580352
0.39965556373580352
0.39965556373580352
0.39965556373580352
0.39965556373580352
0.39965556373580352
0.39965556373580352
0.39965556373580352
0.39965556373580352
0.39965556373580352
0.39965556373580352
0.39965556373580352
0.39965556373580352
0.39965556373580352
0.39965556373580352
0.39965556373580352
0.39965556373580352
0.39965556373580352
0.39965556373580352
0.39965556373580352
0.39965556373580352
0.39965556373580352
0.39965556373580352
0.39965556373580352
0.39965556373580352
0.39965556373580352
0.39965556373580352
0.39965556373580352
0.39965556373580352
0.39965556373580352
0.39965556373580352
0.39965556373580352
0.39965556373580352
0.39965556373580352
0.39965556373580352
0.39965556373580352
0.39965556373580352
0.39965556373580352
0.39965556373580352
0.39965556373580352
0.39965556373580352
0.39965556373580352
0.39965556373580352
0.39965556373580352
0.39965556373580352
0.39965556373580352
0.39965556373580352
0.39965556373580352
0.39965556373580352
0.39965556373580352
0.39965556373580352
0.39965556373580352
0.39965556373580352
0.39965556373580352
0.39965556373580352
0.39965556373580352
0.39965556373580352
0.39965556373580352
0.39965556373580352
0.39965556373580352
0.39965556373580352
0.39965556373580352
0.39965556373580352
0.39965556373580352
0.39965556373580352
0.39965556373580352
0.39965556373580352
0.39965556373580352
0.39965556373580352
0.39965556373580352
0.39965556373580352
0.39965556373580352
0.39965556373580352
0.39965556373580352
0.39965556373580352
0.39965556373580352
0.39965556373580352
0.39965556373580352
0.39965556373580352
0.39965556373580352
0.39965556373580352
0.39965556373580352
0.39965556373580352
0.39965556373580352
0.39965556373580352
0.39965556373580352
0.39965556373580352
0.39965556373580352
0.39965556373580352
0.39965556373580352
0.39965556373580352
0.39965556373580352
0.39965556373580352
0.39965556373580352
0.39965556373580352
0.39965556373580352
0.39965556373580352
0.39965556373580352
0.39965556373580352
0.39965556373580352
0.39965556373580352
0.39965556373580352
0.39965556373580352
0.39965556373580352
0.39965556373580352
0.39965556373580352
0.39965556373580352
0.39965556373580352
0.39965556373580352
0.39965556373580352
0.39965556373580352
0.39965556373580352
0.39965556373580352
0.39965556373580352
0.39965556373580352
0.39965556373580352
0.39965556373580352
0.39965556373580352
0.39965556373580352
0.39965556373580352
0.39965556373580352
0.39965556373580352
0.39965556373580352
0.39965556373580352
0.39965556373580352
0.39965556373580352
0.39965556373580352
0.39965556373580352
0.39965556373580352
0.39965556373580352
0.39965556373580352
0.39965556373580352
0.39965556373580352
0.39965556373580352
0.39965556373580352
0.39965556373580352
0.39965556373580352
0.39965556373580352
0.39965556373580352
0.39965556373580352
0.39965556373580352
0.39965556373580352
0.39965556373580352
0.39965556373580352
0.39965556373580352
0.39965556373580352
0.39965556373580352
0.39965556373580352
0.39965556373580352
0.39965556373580352
0.39965556373580352
0.39965556373580352
0.39965556373580352
0.39965556373580352
0.39965556373580352
0.39965556373580352
0.39965556373580352
0.39965556373580352
0.39965556373580352
0.39965556373580352
0.39965556373580352
0.39965556373580352
0.39965556373580352
0.39965556373580352
0.39965556373580352
0.39965556373580352
0.39965556373580352
0.39965556373580352
0.39965556373580352
0.39965556373580352
0.39965556373580352
0.39965556373580352
0.39965556373580352
0.39965556373580352
0.39965556373580352
0.39965556373580352
0.39965556373580352
0.39965556373580352
0.39965556373580352
0.39965556373580352
0.39965556373580352
0.39965556373580352
0.39965556373580352
0.39965556373580352
0.39965556373580352
0.39965556373580352
0.39965556373580352
0.39965556373580352
0.39965556373580352
0.39965556373580352
0.39965556373580352
0.39965556373580352
0.39965556373580352
0.39965556373580352
0.39965556373580352
0.39965556373580352
0.39965556373580352
0.39965556373580352
0.39965556373580352
0.39965556373580352
0.39965556373580352
0.39965556373580352
0.39965556373580352
0.39965556373580352
0.39965556373580352
0.39965556373580352
0.39965556373580352
0.39965556373580352
0.39965556373580352
0.39965556373580352
0.39965556373580352
0.39965556373580352
0.39965556373580352
0.39965556373580352
0.39965556373580352
0.39965556373580352
0.39965556373580352
0.39965556373580352
0.39965556373580352
0.39965556373580352
0.39965556373580352
0.39965556373580352
0.39965556373580352
0.39965556373580352
0.39965556373580352
0.39965556373580352
0.39965556373580352
0.39965556373580352
0.39965556373580352
0.39965556373580352
0.39965556373580352
0.39965556373580352
0.39965556373580352
0.39965556373580352
0.39965556373580352
0.39965556373580352
0.39965556373580352
0.39965556373580352
0.39965556373580352
0.39965556373580352
0.39965556373580352
0.39965556373580352
0.39965556373580352
0.39965556373580352
0.39965556373580352
0.39965556373580352
0.39965556373580352
0.39965556373580352
0.39965556373580352
0.39965556373580352
0.39965556373580352
0.39965556373580352
0.39965556373580352
0.39965556373580352
0.39965556373580352
0.39965556373580352
0.39965556373580352
0.39965556373580352
0.39965556373580352
0.39965556373580352
0.39965556373580352
0.39965556373580352
0.39965556373580352
0.39965556373580352
0.39965556373580352
0.39965556373580352
0.39965556373580352
0.39965556373580352
0.39965556373580352
0.39965556373580352
0.39965556373580352
0.39965556373580352
0.39965556373580352
0.39965556373580352
0.39965556373580352
0.39965556373580352
0.39965556373580352
0.39965556373580352
0.39965556373580352
0.39965556373580352
0.39965556373580352
0.39965556373580352
0.39965556373580352
0.39965556373580352
0.39965556373580352
0.39965556373580352
0.39965556373580352
0.39965556373580352
0.39965556373580352
0.39965556373580352
0.39965556373580352
0.39965556373580352
0.39965556373580352
0.39965556373580352
0.39965556373580352
0.39965556373580352
0.39965556373580352
0.39965556373580352
0.39965556373580352
0.39965556373580352
0.39965556373580352
0.39965556373580352
0.39965556373580352
0.39965556373580352
0.39965556373580352
0.39965556373580352
0.39965556373580352
0.39965556373580352
0.39965556373580352
0.39965556373580352
0.39965556373580352
0.39965556373580352
0.39965556373580352
0.39965556373580352
0.39965556373580352
0.39965556373580352
0.39965556373580352
0.39965556373580352
0.39965556373580352
0.39965556373580352
0.39965556373580352
0.39965556373580352
0.39965556373580352
0.39965556373580352
0.39965556373580352
VECTORS v float
-2.0594722093635313e-05 -0.037116926870424012 0
-2.1694197430026608e-05 -0.037621683449493952 0
-2.2481252043493946e-05 -0.038013277032152092 0
-2.3191053759324431e-05 -0.038397050466703719 0
-2.3838316836440176e-05 -0.0387875946109651 0
-2.4439465439887763e-05 -0.039198734881570954 0
-2.5005900998579465e-05 -0.039639387031865314 0
-2.5543578969251257e-05 -0.040116054659178564 0
-2.6049495713554265e-05 -0.040634957708696351 0
-2.6515756202142333e-05 -0.041202262863007932 0
-2.6933009569715376e-05 -0.041824646933599212 0
-2.729731621180557e-05 -0.042509009971555822 0
-2.7577568688909366e-05 -0.043263005231473958 0
-2.7830440568068697e-05 -0.044101098792832541 0
-2.804875607368791e-05 -0.045042406591461241 0
-2.825568462500259e-05 -0.046107174887225537 0
-2.8468796626108276e-05 -0.047321580275722273 0
-2.8698032093067067e-05 -0.048718115405953444 0
-2.8954331505676707e-05 -0.050341592389341244 0
-2.9261837775441641e-05 -0.052241900812834433 0
-2.9619630082295013e-05 -0.054513592049124052 0
-3.0038978727812309e-05 -0.057296580154986274 0
-3.0560836429963322e-05 -0.060826250893412336 0
-3.1218977936182722e-05 -0.065569489641776169 0
-3.2188538732705884e-05 -0.073076869553173912 0
-1.2348950416140688e-05 -0.037320954150612817 0
-1.3187598602369109e-05 -0.037869380804138507 0
-1.3752153538536848e-05 -0.038295373725064787 0
-1.425052876284114e-05 -0.038702832313637733 0
-1.4699206504733882e-05 -0.039107648701503253 0
-1.5068629636802227e-05 -0.039528714220348711 0
-1.5437625734254797e-05 -0.039978205845548981 0
-1.5761577356046344e-05 -0.040464188357215103 0
-1.598136047579927e-05 -0.040993806563102406 0
-1.6178337797835415e-05 -0.041573715632287213 0
-1.6422812080681695e-05 -0.042210766709054923 0
-1.661345827211829e-05 -0.042912011281934975 0
-1.6861875126770526e-05 -0.043685671871387249 0
-1.7177757137826466e-05 -0.044546798066549237 0
-1.745574210777278e-05 -0.045514353781440503 0
-1.7685234880317694e-05 -0.046608797137549327 0
-1.7892256819246727e-05 -0.047855935646806493 0
-1.8132490085720506e-05 -0.049289067623326299 0
-1.8358253283073544e-05 -0.050949610567049802 0
-1.8580379405759714e-05 -0.052892406471938908 0
-1.8804595624071483e-05 -0.055205345167210595 0
-1.8981077694262479e-05 -0.058023220950755384 0
-1.9199495231410717e-05 -0.061577683392894572 0
-1.9403784672918584e-05 -0.066368706101031863 0
-1.96281716149208e-05 -0.074145679876581536 0
-4.5234164639478026e-06 -0.037397813274263614 0
-4.8403397529990104e-06 -0.037951020864446343 0
-5.0839013464519651e-06 -0.038381388049392846 0
-5.2587565365484253e-06 -0.03879360095995843 0
-5.4161931790233483e-06 -0.039203362354003811 0
-5.5168290961113229e-06 -0.03962974783337591 0
-5.6606369604993182e-06 -0.040085659201066617 0
-5.7450229416094158e-06 -0.04057905076549978 0
-5.785305986963471e-06 -0.041117365918602135 0
-5.8937850009804127e-06 -0.041707697882983216 0
-6.0513580675462573e-06 -0.04235715953697404 0
-6.1583762667484174e-06 -0.043073619545130795 0
-6.3225931498036435e-06 -0.043865292038917876 0
-6.5667533404744936e-06 -0.044747720497605954 0
-6.6506285148489034e-06 -0.045740755563936253 0
-6.842142614414238e-06 -0.046865323868134037 0
-7.0051040723628583e-06 -0.048147921480535039 0
-7.2537954305227867e-06 -0.0496218561494794 0
-7.4212632254828667e-06 -0.051330425634845973 0
-7.6171643696228821e-06 -0.053329621262748025 0
-7.8729295705959452e-06 -0.055707496020505558 0
-8.1087934810626692e-06 -0.058598419588302371 0
-8.3460255093305549e-06 -0.062232121798028582 0
-8.6239481578458164e-06 -0.067109795764805635 0
-8.8771273292205077e-06 -0.074993233430192055 0
-1.1720621102902629e-06 -0.037438560083519812 0
-1.2367289826940921e-06 -0.037995771378529927 0
-1.2866447558069015e-06 -0.038429355340557796 0
-1.3210092713033572e-06 -0.038844759744941552 0
-1.3345744897234508e-06 -0.039257920009459123 0
-1.3521915786103951e-06 -0.039688092813969754 0
-1.3526303907274943e-06 -0.040148014043502156 0
-1.369795373475882e-06 -0.040646001477613131 0
-1.4385524160302736e-06 -0.041189214036159306 0
-1.4578974555246262e-06 -0.041784795810206728 0
-1.46131753470037e-06 -0.042440614529064592 0
-1.6084061145131496e-06 -0.043164260634575534 0
-1.6410741399815474e-06 -0.043963721608415531 0
-1.4826371927843854e-06 -0.044854688676633364 0
-1.6393531195503366e-06 -0.045858276418259424 0
-1.71265575642271e-06 -0.046994868181123466 0
-1.7499269165670621e-06 -0.048290880226371395 0
-1.8272656075960369e-06 -0.049779720412171477 0
-1.9501375314859213e-06 -0.051504457359044541 0
-2.1151507765473779e-06 -0.053523165399549745 0
-2.2500856400768541e-06 -0.055922282938639933 0
-2.4720414195963974e-06 -0.058837322675840055 0
-2.6865135961067979e-06 -0.06249693790533694 0
-2.8999698795494041e-06 -0.067403271481029384 0
-3.1671712546441241e-06 -0.075322731297717646 0
-7.9890409936094131e-07 -0.037460175318640876 0
-8.7918620317401203e-07 -0.038019662230353773 0
-9.3294126319698436e-07 -0.038455054598623299 0
-9.4819767556395106e-07 -0.038872293883058504 0
-9.9103707227634591e-07 -0.039287253929666144 0
-1.0267053737694349e-06 -0.03971906477927778 0
-1.0382043879899947e-06 -0.040180891729142403 0
-1.0827989912597082e-06 -0.040680605642321857 0
-1.1683425079427831e-06 -0.041225790693944817 0
-1.0541571416745987e-06 -0.04182384580987631 0
-1.1112855467020924e-06 -0.042482167184077789 0
-1.1137003820708004e-06 -0.04320832899681927 0
-1.06458372313813e-06 -0.044010689217584061 0
-1.1347761417141893e-06 -0.044905425556362955 0
-1.1766881005152153e-06 -0.045911851398243442 0
-1.1893679661584373e-06 -0.047052645569856263 0
-1.2037777935885622e-06 -0.048354156780810807 0
-1.1424759520363001e-06 -0.049848551509120827 0
-1.2248623113519493e-06 -0.051579197757706641 0
-1.1675290630038476e-06 -0.053603500924947506 0
-1.177823096423128e-06 -0.056009553953678314 0
-1.1975431803092413e-06 -0.05893237435822999 0
-1.1602732302859499e-06 -0.062600160682828421 0
-1.2374187260568399e-06 -0.067515734501718341 0
-1.301586295113836e-06 -0.075446776926671177 0
-6.592934813184387e-07 -0.037471581200908766 0
-7.5098052822204331e-07 -0.038032157428265906 0
-8.3368420272296023e-07 -0.038468332013409469 0
-8.8177137922025261e-07 -0.038886120176244134 0
-9.3869399065652001e-07 -0.039301735624712508 0
-9.7517623877399794e-07 -0.039734434852389144 0
-1.064611686156225e-06 -0.040196842050597176 0
-1.0971016655440394e-06 -0.04069753698443529 0
-1.1024458695010251e-06 -0.041243596524758383 0
-1.1531894605356815e-06 -0.041842522831365143 0
-1.1740252551371797e-06 -0.042501681499378774 0
-1.197390784149996e-06 -0.043228649315077063 0
-1.1773287407713163e-06 -0.0440317192578005 0
-1.1537311163060642e-06 -0.044927878626505199 0
-1.2741671562542707e-06 -0.045936109228462266 0
-1.2723262001747499e-06 -0.047078540217774488 0
-1.2236200142803383e-06 -0.048380760363888595 0
-1.1779091432803897e-06 -0.049876295710768195 0
-1.1860281734565573e-06 -0.051608605995761135 0
-1.1704715938181261e-06 -0.053635607678799616 0
-1.1280249773007881e-06 -0.056044085687125073 0
-1.0538872837757826e-06 -0.058969679190644025 0
-1.0708670222626359e-06 -0.062640609694584251 0
-1.0311150839808717e-06 -0.067559683808345303 0
-9.3712152386403188e-07 -0.075494355216032469 0
-2.5374516310626408e-07 -0.037476079960560175 0
-3.0405161141350538e-07 -0.038037103721293257 0
-3.5392263841798548e-07 -0.038473747412232931 0
-3.5994828642426691e-07 -0.038891834700096536 0
-3.5810941552722895e-07 -0.03930770658099951 0
-3.9611546881019983e-07 -0.039740654703608214 0
-4.3282015644770172e-07 -0.040203307177458167 0
-3.881189503239943e-07 -0.04070441948567087 0
-4.3431681076372795e-07 -0.041250683162377844 0
-4.2701936833608463e-07 -0.041849798676615882 0
-4.0475565585789349e-07 -0.042509222069888476 0
-5.568622793594922e-07 -0.043236351309204307 0
-5.2380898412250611e-07 -0.044039799897212378 0
-6.1083914679491465e-07 -0.044936384490247977 0
-5.9236037545982716e-07 -0.045945119688127416 0
-5.8994584580882544e-07 -0.047088057806487442 0
-5.9161723232392892e-07 -0.048390909693266704 0
-6.3487089873339685e-07 -0.049886534748908452 0
-6.5651471272455409e-07 -0.051619360120362695 0
-6.6490572452827358e-07 -0.053647248701161498 0
-6.8737977363943722e-07 -0.056056589523587691 0
-7.4638912400771118e-07 -0.058983084964087135 0
-7.762541344329891e-07 -0.062655305180432871 0
-7.9346135628075797e-07 -0.067577464924296685 0
-7.7325447500978567e-07 -0.075511400981391252 0
-2.1542985677361229e-07 -0.037477115388659457 0
-2.3120813896565783e-07 -0.038038189130727693 0
-2.2142919506211331e-07 -0.038474807240665591 0
-2.5190295465609959e-07 -0.038893070970042243 0
-2.648298319194578e-07 -0.039309116922979517 0
-2.9918025629194138e-07 -0.039742122983775226 0
-2.660125958617281e-07 -0.040204889696534386 0
-2.9450042461725938e-07 -0.040705953256401944 0
-3.1830062135992279e-07 -0.041252388798903132 0
-2.8303736228173543e-07 -0.041851577071976967 0
-3.2709074497643772e-07 -0.042511220542352242 0
-2.948056054693729e-07 -0.04323856662288475 0
-2.5359130927746938e-07 -0.044042069343354209 0
-2.5464444271616072e-07 -0.044938814809165582 0
-2.3995099101823352e-07 -0.045947667339459805 0
-2.5088233526615393e-07 -0.047090377996281192 0
-3.284685327330897e-07 -0.048392885731496138 0
-3.1590356562936748e-07 -0.049888998761918255 0
-3.1563641176723211e-07 -0.051621895568642592 0
-3.4237625525005095e-07 -0.053649655370266808 0
-3.837308179318218e-07 -0.056058718865846097 0
-3.2147848254670925e-07 -0.058984252138361268 0
-3.4521119835452337e-07 -0.062654110999815646 0
-3.71531754766568e-07 -0.067577173304384439 0
-4.3154063516524203e-07 -0.075513100482240733 0
-1.6621071853151295e-07 -0.037475938849254264 0
-2.1909266268406514e-07 -0.03803683278337204 0
-2.1730114365234588e-07 -0.03847335581886116 0
-2.5022302062261588e-07 -0.038891341929000608 0
-2.5907566789686857e-07 -0.039307281761314337 0
-1.9875824075452256e-07 -0.039740182780026265 0
-2.1632837432543399e-07 -0.040202835847396583 0
-2.2038719104958169e-07 -0.04070385652392082 0
-2.1609453953731943e-07 -0.041250269402536559 0
-3.9289632402882923e-07 -0.041849321722451406 0
-3.7535320464156902e-07 -0.042508449093495153 0
-3.8033942232422923e-07 -0.043235626769276767 0
-3.928703004282602e-07 -0.044039418614849495 0
-3.5214804897067355e-07 -0.044936025477608992 0
-2.808860907738074e-07 -0.045944699537701042 0
-2.9867803666743835e-07 -0.047087121472485893 0
-3.4493404546724816e-07 -0.048389442510928263 0
-3.5590452463782132e-07 -0.04988534172986954 0
-3.3152179055626742e-07 -0.051618066810264963 0
-3.0600395522821123e-07 -0.053645562027224328 0
-3.0093635997625531e-07 -0.056054207687734441 0
-2.8469868516708566e-07 -0.058979295033904554 0
-2.6373868100941126e-07 -0.062648541317094047 0
-2.5089739175931926e-07 -0.067570761409078278 0
-2.4305943286018966e-07 -0.075506493826860671 0
4.986271558606694e-08 -0.037471314799956953 0
2.7651514396868561e-08 -0.03803181159312613 0
-7.0079230038831076e-11 -0.038467949266104355 0
2.7685931822899462e-08 -0.038885752308090958 0
-2.0735890564373777e-08 -0.039301229964530143 0
7.8055527802368704e-09 -0.039733925749834607 0
1.0664781322948509e-08 -0.040196389486043586 0
6.3469318666072113e-08 -0.040696816889108901 0
5.828825121579639e-08 -0.041243180784514832 0
3.9188206861378111e-08 -0.041841745608607296 0
4.6831213015873049e-08 -0.042500277439412128 0
3.1586521365322636e-08 -0.043227155083522255 0
8.6804501677198611e-08 -0.044030596964487467 0
8.8318392848819237e-10 -0.044926556023047431 0
3.6404940891204281e-08 -0.045934707941003801 0
3.7305916266264188e-08 -0.047076647149464843 0
4.5269582704857944e-08 -0.048378170704574924 0
8.2263988928990939e-08 -0.049873640762790404 0
1.0564755986375627e-07 -0.051605636984631414 0
1.3052594003580234e-07 -0.053632261414673928 0
2.031276170564826e-07 -0.056039948323226153 0
2.3170478402207228e-07 -0.058964676414060682 0
2.6921184103100227e-07 -0.06263627220608424 0
3.1414650621633287e-07 -0.067554503184336812 0
3.9890883958050698e-07 -0.075489238971018238 0
5.3123296862657255e-07 -0.03746057794103963 0
5.4631999785022073e-07 -0.038019986554791795 0
5.7118461153644228e-07 -0.038455408278542547 0
6.2796081056785554e-07 -0.038872461399615317 0
6.0865884784080302e-07 -0.039287265508822999 0
5.7942694714581157e-07 -0.03971900009875029 0
6.401582416418018e-07 -0.040180477630148995 0
7.0635984699183509e-07 -0.040680306333968977 0
7.2610357949104362e-07 -0.041225466888523694 0
6.7165491146985181e-07 -0.041823413360804883 0
6.7826263958082662e-07 -0.042481385814177527 0
6.0156501671090854e-07 -0.043207001190712052 0
8.191453412778688e-07 -0.044009043049431082 0
7.7362581312818619e-07 -0.044903520668382886 0
9.0956284072244936e-07 -0.045910150483601572 0
1.077629248843603e-06 -0.04705023245339697 0
1.0225312410450529e-06 -0.048349802392940573 0
1.0248913833389694e-06 -0.049843829161836002 0
1.0695364335293615e-06 -0.051573904744422062 0
1.0937210136978564e-06 -0.053597486499175374 0
1.1367483651006007e-06 -0.056002314520692639 0
1.1421245690256299e-06 -0.058924346803735185 0
1.1643879389163843e-06 -0.062597829612224376 0
1.2614947288298977e-06 -0.067510381597528105 0
1.3035748261457547e-06 -0.075441600302198417 0
1.5404181225004713e-06 -0.037438078383296935 0
1.6839254226718354e-06 -0.037995201264907748 0
1.7656824769333889e-06 -0.038428859529734863 0
1.7780399386912106e-06 -0.038844327309215006 0
1.8554503767109396e-06 -0.039257522911102023 0
1.9465910757420733e-06 -0.039687719274048183 0
1.9911354849523681e-06 -0.040147216504204164 0
2.0290827154284317e-06 -0.04064528855042928 0
2.1172633739213042e-06 -0.041188567868398251 0
2.1787932507346584e-06 -0.04178423523743445 0
2.1965279717091987e-06 -0.04243971625604448 0
2.2954311249917637e-06 -0.04316292101544221 0
2.2608708316412607e-06 -0.043962142195391615 0
2.4918131881578501e-06 -0.04485341098905244 0
2.534628853313045e-06 -0.045856831907918054 0
2.5923885707055418e-06 -0.046992969905334962 0
2.6834946315333901e-06 -0.04828833517456247 0
2.7854751817644992e-06 -0.049777024961205257 0
2.8437752138801506e-06 -0.051501419761563721 0
2.886659146227262e-06 -0.05351943133214454 0
2.9816945160940852e-06 -0.055917497008144884 0
3.0571470126009502e-06 -0.058831554420357576 0
3.111857395087825e-06 -0.062494203829376198 0
3.1973099382665775e-06 -0.067400489234716074 0
3.2966246477669139e-06 -0.075319426172100468 0
4.5224068824898276e-06 -0.037396808040814376 0
4.8423891482553631e-06 -0.037949892266845503 0
5.1285760854956446e-06 -0.03838028515925624 0
5.3600136593751416e-06 -0.038792462360632586 0
5.5049934832032422e-06 -0.039202181187055436 0
5.6561146052019262e-06 -0.039628637666552766 0
5.8555576124209748e-06 -0.040084274059759832 0
6.030261951097265e-06 -0.040578031526816133 0
6.1048581352296968e-06 -0.041116470836372841 0
6.2131778847181212e-06 -0.041706845562972529 0
6.3354659149220618e-06 -0.042356392563237651 0
6.4600801907917849e-06 -0.043072808244647466 0
6.5808194823784585e-06 -0.043864403231689622 0
6.6817589434851288e-06 -0.044747281235078387 0
6.8311254286359397e-06 -0.045740653180611213 0
6.9642923180181628e-06 -0.046865729882937177 0
7.1072902194980731e-06 -0.04814833577810123 0
7.2524392963633556e-06 -0.049622216958710753 0
7.4055816411269462e-06 -0.051330051505366056 0
7.5607063140249215e-06 -0.05332985810025135 0
7.7256665711952161e-06 -0.055707246135353716 0
7.9102731769244174e-06 -0.058597997916239215 0
8.1079356572492555e-06 -0.062232014185062898 0
8.2772661983084072e-06 -0.067109151952470789 0
8.5250367751010568e-06 -0.074992639495738728 0
1.1740655925715292e-05 -0.037320112531522766 0
1.2552112861080332e-05 -0.037868397691627129 0
1.3088649906205552e-05 -0.038294408835040282 0
1.3547608204528813e-05 -0.038701853696637416 0
1.3952674233925736e-05 -0.03910667320116689 0
1.4301256819629618e-05 -0.039527808665997893 0
1.4588193189465124e-05 -0.039977270694742807 0
1.4808982115471744e-05 -0.040463556375196212 0
1.5019992369470798e-05 -0.040993235865796486 0
1.5310261324418875e-05 -0.041573284344060567 0
1.5335776162712187e-05 -0.042210515922592326 0
1.5553532844242049e-05 -0.042912000795303225 0
1.5697852016209567e-05 -0.043686030760986073 0
1.60402632627668e-05 -0.044547569805374616 0
1.6279421119973248e-05 -0.045515520128965231 0
1.6542675344836235e-05 -0.046610553677002668 0
1.6759790024557231e-05 -0.047857763527948231 0
1.6945887910791127e-05 -0.049290046500912746 0
1.7211745667285766e-05 -0.050950139270425548 0
1.7456806353984699e-05 -0.052894543938857098 0
1.7653936989278706e-05 -0.055207753010374859 0
1.7925014010319525e-05 -0.058024860816297569 0
1.823252169346053e-05 -0.061579140317273837 0
1.8499879568069197e-05 -0.066369869024793041 0
1.8808229564799184e-05 -0.07414626400279048 0
2.0006951179728783e-05 -0.037116730776556354 0
2.1017459640345437e-05 -0.037621493328604899 0
2.1736290623605676e-05 -0.038013088525968942 0
2.2386988441698427e-05 -0.038396872056592354 0
2.2975403128929638e-05 -0.038787380943108678 0
2.3520696026095061e-05 -0.039198439779509528 0
2.4040296916429171e-05 -0.0396392757056745 0
2.4535559877853322e-05 -0.040116275246950696 0
2.499094406598005e-05 -0.04063513359160436 0
2.5416762239312916e-05 -0.041202482589608784 0
2.5808551593757158e-05 -0.041824986811596229 0
2.6136619886847187e-05 -0.042509474647172925 0
2.6407082410498039e-05 -0.043263637382007065 0
2.6637960934458086e-05 -0.044101947741574561 0
2.6840209847216227e-05 -0.045043492368837659 0
2.7036120270185883e-05 -0.046108692784613887 0
2.7251175580831128e-05 -0.047323421026530213 0
2.7484553362978333e-05 -0.048719359981888796 0
2.7725980555241539e-05 -0.050340782799878518 0
2.8055637428594942e-05 -0.052242980319712945 0
2.8422129723495658e-05 -0.054514868914848601 0
2.8888739636627903e-05 -0.057297639948761976 0
2.9465121937797052e-05 -0.060827236118580763 0
3.0198836735770919e-05 -0.065570227751440141 0
3.1258778724449783e-05 -0.073076412539932578 0
-0 -0 0
-0 -0 0
-0 -0 0
-0 -0 0
-0 -0 0
-0 -0 0
2.0111188425752134e-05 0.035644059451514963 0
2.3685718265544702e-05 0.038998853564224632 0
2.7321810816775095e-05 0.044908471552198979 0
-0 -0 0
-0 -0 0
-0 -0 0
2.2147055463598469e-05 0.03797503636948376 0
2.4043280792805867e-05 0.039848641667039914 0
2.6847997578033524e-05 0.045328507259563035 0
-0 -0 0
-0 -0 0
-0 -0 0
1.7532006324014687e-05 0.038113639785361149 0
1.9436475094313416e-05 0.039996578156799432 0
2.1891119423347341e-05 0.045491677621290826 0
-0 -0 0
-0 -0 0
-0 -0 0
9.3345539926815705e-06 0.03826685765489906 0
1.0447451612669856e-05 0.040165936805885018 0
1.1977893414565995e-05 0.045735594310860432 0
-0 -0 0
-0 -0 0
-0 -0 0
3.3755701841820818e-06 0.038332093853130973 0
3.8911172923844195e-06 0.040250209239074478 0
4.5852676463631617e-06 0.045885039332041327 0
-0 -0 0
-0 -0 0
-0 -0 0
1.1768179973755766e-06 0.038368067547702278 0
1.3618447691508751e-06 0.040296164745811977 0
1.5835920852265146e-06 0.045960043449683213 0
-0 -0 0
-0 -0 0
-0 -0 0
6.2665606069255111e-07 0.038386754522244715 0
6.9838936175448624e-07 0.040319441134915743 0
8.1753020356040217e-07 0.045994634657275296 0
-0 -0 0
-0 -0 0
-0 -0 0
3.8487649088635853e-07 0.038395378253349793 0
4.5706983543573856e-07 0.040330012025012761 0
5.9506286120739547e-07 0.046009410963348582 0
-0 -0 0
-0 -0 0
-0 -0 0
2.4902368325303215e-07 0.038398446600026878 0
2.983249570411708e-07 0.04033380348087931 0
3.893998684214193e-07 0.046014579070918209 0
-0 -0 0
-0 -0 0
-0 -0 0
1.7400563364536896e-07 0.03839826858030615 0
1.8663309198315102e-07 0.040333547085326035 0
2.0261780605474086e-07 0.04601425690875785 0
-0 -0 0
-0 -0 0
-0 -0 0
8.4164668619700147e-09 0.038394807487210282 0
-1.2835740535615912e-08 0.040329308730887393 0
-4.78037706040439e-08 0.046008475779697966 0
-0 -0 0
-0 -0 0
-0 -0 0
-3.3005842918982485e-07 0.038385989319749327 0
-3.8069253288892326e-07 0.040318561623938681 0
-4.9700848331528062e-07 0.045993244080524756 0
-0 -0 0
-0 -0 0
-0 -0 0
-1.0826529120510836e-06 0.03836715774832232 0
-1.2354875235687416e-06 0.040295217983857129 0
-1.5514744711189708e-06 0.045958693522690601 0
-0 -0 0
-0 -0 0
-0 -0 0
-3.340827902691433e-06 0.038330896495930925 0
-3.8476317807747157e-06 0.040249130947226923 0
-4.5806451022218423e-06 0.045884324146812573 0
-0 -0 0
-0 -0 0
-0 -0 0
-8.92772042697678e-06 0.03826569431002369 0
-9.9775378354261566e-06 0.040164983455792294 0
-1.1383133673036384e-05 0.045735602238714659 0
-0 -0 0
-0 -0 0
-0 -0 0
-1.6832308397409495e-05 0.038113022419529435 0
-1.8553236650603942e-05 0.039996166473047691 0
-2.0795289857971081e-05 0.045492053348900705 0
-0 -0 0
-0 -0 0
-0 -0 0
-2.1437936527355051e-05 0.03797483968936162 0
-2.31336208791745e-05 0.039848522404286817 0
-2.5730725373349872e-05 0.045328998445300681 0
-0 -0 0
-0 -0 0
-0 -0 0
-1.9538730545497802e-05 0.035643469263374451 0
-2.2834931761175718e-05 0.03899854369895156 0
-2.6173372512776242e-05 0.044908995034055495 0
-0 -0 0
-0 -0 0
-0 -0 0
-0 -0 0
-0 -0 0
-0 -0 0
-0 -0 0
-0 -0 0
-0 -0 0
-0 -0 0
-0 -0 0
-0 -0 0
-0 -0 0
-0 -0 0
-0 -0 0
-0 -0 0
-0 -0 0
-0 -0 0
-0 -0 0
-0 -0 0
-0 -0 0
-0 -0 0
-0 -0 0
-0 -0 0
-0 -0 0
-0 -0 0
-0 -0 0
-0 -0 0
-0 -0 0
-0 -0 0
-0 -0 0
-0 -0 0
-0 -0 0
-0 -0 0
-0 -0 0
-0 -0 0
-0 -0 0
-0 -0 0
-0 -0 0
-0 -0 0
-0 -0 0
-0 -0 0
-0 -0 0
-0 -0 0
-0 -0 0
-0 -0 0
-0 -0 0
-0 -0 0
-0 -0 0
-0 -0 0
-0 -0 0
-0 -0 0
-0 -0 0
-0 -0 0
-0 -0 0
-0 -0 0
-0 -0 0
-0 -0 0
-0 -0 0
-0 -0 0
-0 -0 0
-0 -0 0
-0 -0 0
-0 -0 0
-0 -0 0
-0 -0 0
-0 -0 0
-0 -0 0
-0 -0 0
-0 -0 0
-0 -0 0
-0 -0 0
-0 -0 0
-0 -0 0
-0 -0 0
-0 -0 0
-0 -0 0
-0 -0 0
-0 -0 0
-0 -0 0
-0 -0 0
-0 -0 0
-0 -0 0
-0 -0 0
-0 -0 0
-0 -0 0
-0 -0 0
-0 -0 0
-0 -0 0
-0 -0 0
-0 -0 0
-0 -0 0
-0 -0 0
-0 -0 0
-0 -0 0
-0 -0 0
-0 -0 0
-0 -0 0
-0 -0 0
-0 -0 0
-0 -0 0
-0 -0 0
-0 -0 0
-0 -0 0
-0 -0 0
-0 -0 0
-0 -0 0
-0 -0 0
-0 -0 0
-0 -0 0
-0 -0 0
-0 -0 0
-0 -0 0
-0 -0 0
-0 -0 0
-0 -0 0
-0 -0 0
-0 -0 0
-0 -0 0
-0 -0 0
-0 -0 0
-0 -0 0
-0 -0 0
-0 -0 0
-0 -0 0
-0 -0 0
-0 -0 0
-0 -0 0
-0 -0 0
-0 -0 0
-0 -0 0
-0 -0 0
-0 -0 0
-0 -0 0
-0 -0 0
-0 -0 0
-0 -0 0
-0 -0 0
-0 -0 0
-0 -0 0
-0 -0 0
-0 -0 0
-0 -0 0
-0 -0 0
-0 -0 0
-0 -0 0
-0 -0 0
-0 -0 0
-0 -0 0
-0 -0 0
-0 -0 0
-0 -0 0
-0 -0 0
-0 -0 0
-0 -0 0
-0 -0 0
-0 -0 0
-0 -0 0
-0 -0 0
-0 -0 0
-0 -0 0
-0 -0 0
-0 -0 0
-0 -0 0
-0 -0 0
-0 -0 0
-0 -0 0
-0 -0 0
-0 -0 0
-0 -0 0
-0 -0 0
-0 -0 0
-0 -0 0
-0 -0 0
-0 -0 0
-0 -0 0
-0 -0 0
-0 -0 0
-0 -0 0
-0 -0 0
-0 -0 0
-0 -0 0
-0 -0 0
-0 -0 0
-0 -0 0
-0 -0 0
-0 -0 0
-0 -0 0
-0 -0 0
-0 -0 0
-0 -0 0
-0 -0 0
-0 -0 0
-0 -0 0
-0 -0 0
