# vtk DataFile Version 3.0
SPH particles (WCSPH) - legacy PolyData
ASCII
DATASET POLYDATA
POINTS 681 float
0.049997103282188683 0.032748507171179927 0
0.049996513059080157 0.0362163517813303 0
0.049996049536678779 0.039017981447594087 0
0.049995633377815943 0.041889813836910858 0
0.049995310251029969 0.044830513852792624 0
0.049995053491533867 0.047866558080784327 0
0.049994861307146282 0.051048698843979355 0
0.049994575729011906 0.0544517155988078 0
0.049994130031474175 0.05818375836550442 0
0.049993381853141575 0.062407373455479705 0
0.049991954094708115 0.067393174686401019 0
0.049990279149449292 0.07373243409571964 0
0.04999062513792675 0.083109988681187505 0
0.049993927209256668 0.098125430207557068 0
0.049997503447230592 0.11709133082414171 0
0.049999438778245163 0.13697752651855416 0
0.049999929918632162 0.15702331826232685 0
0.049999991909852493 0.17716253851466662 0
0.049999999123009321 0.19745762852708273 0
0.049999999911642765 0.21804005884843669 0
0.049999999992056579 0.23912814408865934 0
0.04999999999938428 0.26107161447490429 0
0.049999999999961617 0.28445524978788345 0
0.049999999999998414 0.31053278730723372 0
0.050000000000000003 0.35592470276590915 0
0.069998701234467872 0.031566011527543493 0
0.069998398754834865 0.035385109097591433 0
0.069998162653498494 0.038515106698939816 0
0.069997956481669787 0.041649069940050659 0
0.069997759533000067 0.044807734253417955 0
0.06999755805742279 0.048034639889712322 0
0.069997371859191873 0.051393324548997962 0
0.069997171173237088 0.054968476330293059 0
0.069996947593296943 0.05887453259984976 0
0.06999647711486065 0.063277811387529859 0
0.069995302162496345 0.068447414221115166 0
0.069993287217598246 0.074920818946163717 0
0.06999257115241013 0.08408305913935446 0
0.069994410045424296 0.098456933393561846 0
0.069997478638714111 0.11713940114675023 0
0.069999403916171113 0.13698586194622733 0
0.069999925044869044 0.15703004994575095 0
0.069999991562022426 0.17717590214033266 0
0.069999999078493108 0.1974855458327035 0
0.069999999904560392 0.21809701202614029 0
0.069999999991229023 0.2392367609626766 0
0.069999999999290893 0.26126186216864189 0
0.069999999999954335 0.28474306761444051 0
0.06999999999999805 0.31086709319540007 0
0.070000000000000007 0.35508070863871949 0
0.089999635256471242 0.031554926473653974 0
0.089999527526978096 0.035385701653284606 0
0.089999458991235334 0.038528237115526887 0
0.089999365790324609 0.041680799932466969 0
0.089999260171965703 0.044863489532573672 0
0.089999130493539303 0.048119466342013702 0
0.089998971680054982 0.051513011000940009 0
0.08999890911962348 0.055129492871146143 0
0.089998847388937861 0.059084084486757359 0
0.089998772144093117 0.063542530969031272 0
0.089998704164230989 0.068770565369762574 0
0.089998307283889883 0.075290730277819157 0
0.089997885349166085 0.084420060584111264 0
0.089998142625476105 0.098601569930847843 0
0.089999028615575266 0.11716491819511005 0
0.089999713385947935 0.13699091310891978 0
0.089999951906620954 0.15703456863914986 0
0.089999994043963166 0.17718526021522019 0
0.089999999308465015 0.19750593366126259 0
0.089999999926443711 0.21813919045151289 0
0.089999999993026047 0.23931715845591744 0
0.089999999999408303 0.26139678228905938 0
0.08999999999996057 0.2849335435202624 0
0.089999999999998304 0.31108117565525129 0
0.090000000000000011 0.35467162392102669 0
0.10999987684703262 0.031578341379123478 0
0.10999977665018928 0.035413092361157895 0
0.10999971553597801 0.038559575553287886 0
0.1099996488345595 0.041716934519651284 0
0.10999959052294953 0.044905330257306204 0
0.1099996383212016 0.048168219866645316 0
0.1099997254168301 0.051570176236933891 0
0.10999970708226078 0.055196675235959163 0
0.10999970333228032 0.059163261064717143 0
0.10999977204015736 0.063635643047778703 0
0.10999969179970978 0.068878898747370437 0
0.1100000824543249 0.075411708290668261 0
0.10999971708998205 0.084531737870381665 0
0.10999952599695685 0.098655403829657054 0
0.10999971709332719 0.11717679263212805 0
0.10999990535694067 0.13699399909582588 0
0.10999998044256085 0.15703791552883181 0
0.10999999701799389 0.17719215651183165 0
0.10999999961167962 0.19752036832942685 0
0.10999999995567525 0.21816706351978654 0
0.10999999999551129 0.23936639830770634 0
0.10999999999960107 0.26147325057387344 0
0.10999999999997231 0.28503609684718156 0
0.10999999999999878 0.31119899851080413 0
0.11000000000000001 0.35446214171377644 0
0.12999993893770151 0.031588516029318586 0
0.12999992701622656 0.035425816627992525 0
0.12999992077944075 0.038574350354684588 0
0.1299999177455482 0.041733809119076544 0
0.12999995728408562 0.044924451304334014 0
0.13000001911521933 0.048189837611824278 0
0.13000008611080713 0.051594651195907011 0
0.13000015077119387 0.055224382742188743 0
0.13000023589841769 0.059194706814533357 0
0.13000037076948712 0.063671251109722354 0
0.13000047934038586 0.068918806880959069 0
0.13000038898341004 0.075454811051815104 0
0.13000017847987824 0.084571014561125271 0
0.13000001171171091 0.098674962231326074 0
0.12999994668527828 0.11718166863375029 0
0.1299999744727105 0.13699567997177262 0
0.1299999939458033 0.15704011063090281 0
0.1299999989049839 0.17719664618916756 0
0.12999999983575114 0.19752941249671571 0
0.12999999997909253 0.21818352734397622 0
0.12999999999767278 0.23939366194797718 0
0.12999999999978062 0.2615135024889445 0
0.1299999999999841 0.28508832664430173 0
0.12999999999999937 0.31125846102300531 0
0.13 0.35436663720007872 0
0.15000003867816222 0.031592362427739711 0
0.15000005704231356 0.0354307758914022 0
0.15000008299979881 0.038580195290927564 0
0.15000011528340476 0.041740586713836389 0
0.15000020874702599 0.044932160664907787 0
0.15000020861694757 0.048198490242292419 0
0.15000020844460993 0.051604340752802597 0
0.15000022015912617 0.055235280167584271 0
0.15000028059014783 0.059206934038714833 0
0.15000033854649752 0.063684918623971271 0
0.15000040978570003 0.068933917862308972 0
0.15000028197126358 0.075470721280956263 0
0.1500002655565216 0.084585348817008049 0
0.15000013312142005 0.098682061772089866 0
0.15000002446487801 0.11718354706851883 0
0.14999999848158097 0.13699653271772907 0
0.14999999886748794 0.15704139516660218 0
0.14999999971499381 0.17719923228868112 0
0.14999999994841112 0.19753442570298854 0
0.14999999999245817 0.21819228005349514 0
0.14999999999906055 0.23940752558819056 0
0.14999999999990393 0.26153322038127541 0
0.14999999999999261 0.28511314661616116 0
0.14999999999999974 0.3112860684376757 0
0.15000000000000002 0.35432780632862215 0
0.17000006541912049 0.031593797924952254 0
0.17000009915973274 0.035432622351571179 0
0.17000011787028194 0.038582382427188602 0
0.17000015672395566 0.041743064052333523 0
0.17000020350258555 0.044934928566612853 0
0.17000028211742046 0.048201645363858674 0
0.17000039977809353 0.051607938915207964 0
0.17000042612721691 0.055239292245142443 0
0.17000046385825343 0.059211407195348939 0
0.17000048381628549 0.063689871514747268 0
0.17000047461447421 0.068939361444826958 0
0.170000373688457 0.075476522860615861 0
0.17000039188985958 0.084590572674183573 0
0.17000036180712547 0.09868448378291865 0
0.17000006037409021 0.11718422156016581 0
0.17000000571764165 0.13699692131617611 0
0.17000000022952289 0.15704203855365015 0
0.1699999999724631 0.17720050577355154 0
0.16999999999054807 0.19753681042815818 0
0.16999999999826146 0.21819633436802979 0
0.16999999999974938 0.23941375786420366 0
0.16999999999997162 0.26154182601289511 0
0.16999999999999776 0.28512371857106872 0
0.17000000000000004 0.311297542905698 0
0.17000000000000004 0.35431392702400571 0
0.19000000977512907 0.03159418655224263 0
0.19000001051860593 0.035433081376497137 0
0.19000002904990154 0.038582905094625683 0
0.1900000299400611 0.041743637899449321 0
0.19000007146619113 0.044935577839551662 0
0.19000019380064667 0.048202461944895372 0
0.19000028748953479 0.051608783015180112 0
0.19000027284328558 0.055240222291077105 0
0.19000032119975624 0.05921248907017191 0
0.19000032839338149 0.063691121262078057 0
0.1900001624080887 0.068940759680885727 0
0.19000022810669295 0.075478198402665536 0
0.19000007028460472 0.084591917988681639 0
0.19000003145009345 0.098685359407876594 0
0.19000001862025581 0.11718446484721531 0
0.19000000281566473 0.13699703980791147 0
0.19000000028574163 0.15704223143097581 0
0.19000000004464013 0.17720088202118139 0
0.19000000000606776 0.19753750120883223 0
0.19000000000076997 0.218197490747678 0
0.19000000000008807 0.23941550575298973 0
0.1900000000000083 0.26154419830544312 0
0.19000000000000047 0.28512659193085571 0
0.19 0.31130061270352527 0
0.19 0.35431062185270495 0
0.21000007958861311 0.031593794905999922 0
0.21000011049715589 0.035432621796993809 0
0.21000013511726634 0.03858238387458298 0
0.21000016819089024 0.041743070955055986 0
0.21000020125921895 0.044934954300110165 0
0.21000019071379677 0.048201666008206953 0
0.21000023001957485 0.051607919899562822 0
0.21000023446305635 0.055239290801210643 0
0.21000024901952358 0.05921142738273015 0
0.21000024679067208 0.063689948241344399 0
0.21000020010771514 0.068939504557212136 0
0.21000014879446391 0.075476790484411513 0
0.21000002781516403 0.0845907777818279 0
0.20999992782553378 0.09868479609465218 0
0.20999998966191766 0.1171843349086642 0
0.21000000287692713 0.1369969392644293 0
0.2100000007535858 0.15704204018231099 0
0.21000000014847411 0.17720050593046227 0
0.21000000002443142 0.19753681044225432 0
0.21000000000348576 0.21819633436913935 0
0.21000000000043809 0.23941375786427288 0
0.21000000000004554 0.26154182601289777 0
0.21000000000000357 0.28512371857106866 0
0.21000000000000002 0.311297542905698 0
0.21000000000000002 0.35431392702400571 0
0.23000007507199119 0.031592419802371742 0
0.23000009009718062 0.035430824735015104 0
0.23000012246543053 0.038580261489121123 0
0.23000015429413689 0.041740571944425577 0
0.23000019138714251 0.04493218067911272 0
0.23000022516559235 0.048198520742118764 0
0.23000027186848843 0.051604369685333752 0
0.23000029674851008 0.055235290133498337 0
0.23000034846709247 0.059206941219037364 0
0.23000039317734666 0.06368492399549483 0
0.23000036143380528 0.068933961594647278 0
0.23000019015459258 0.075471004785588838 0
0.2300000595521636 0.084585724787778663 0
0.22999999649799427 0.09868217259661527 0
0.23000003933795377 0.11718355133211335 0
0.23000001221091906 0.13699651462612933 0
0.23000000249673569 0.15704139284344557 0
0.2300000004501791 0.17719923206051277 0
0.2300000000706553 0.19753442568123461 0
0.23000000000956139 0.21819228005149793 0
0.23000000000113613 0.23940752558800282 0
0.23000000000011256 0.26153322038125837 0
0.2300000000000085 0.28511314661616011 0
0.23000000000000034 0.31128606843767564 0
0.23000000000000004 0.35432780632862221 0
0.25000010342701218 0.031588572271832441 0
0.25000013930299114 0.035425890249353741 0
0.25000016226993227 0.038574450748061942 0
0.25000020807068396 0.041733931585428159 0
0.25000024594164655 0.044924586605819099 0
0.25000026634749983 0.048189940032356354 0
0.2500002720559158 0.051594754984031453 0
0.25000033816899847 0.055224490412013931 0
0.25000037426872729 0.059194817452741938 0
0.25000042993909283 0.06367134655723182 0
0.2500004118461342 0.068918959217759299 0
0.25000027354266319 0.075454965138410185 0
0.25000006291691401 0.084571388422120919 0
0.25000013704709984 0.098674846565372357 0
0.25000008107901373 0.11718146379772623 0
0.25000003027870754 0.13699562387567077 0
0.2500000071086963 0.1570401034150482 0
0.25000000123877819 0.17719664537447632 0
0.25000000018122309 0.19752941241348218 0
0.25000000002265499 0.21818352733621499 0
0.25000000000248768 0.23939366194730072 0
0.25000000000023209 0.26151350248889166 0
0.25000000000001676 0.2850883266442984 0
0.25000000000000061 0.3112584610230052 0
0.25000000000000006 0.35436663720007872 0
0.27000013687591545 0.03157838192645291 0
0.27000018343043403 0.035413126118778976 0
0.27000020717740175 0.038559621408471717 0
0.27000026339528771 0.041716996659403163 0
0.27000042695329751 0.044905500787602665 0
0.27000048701592183 0.048168406745077316 0
0.27000052729357166 0.051570396895933568 0
0.27000061379715345 0.055196911127912612 0
0.27000070728809705 0.059163493888935582 0
0.27000074600245166 0.063635848306920206 0
0.27000079017198458 0.06887906074599015 0
0.27000068406187794 0.075411766415749398 0
0.27000087062082323 0.084531814688130161 0
0.27000058418036649 0.098655229093848523 0
0.27000030306776196 0.11717659862862424 0
0.27000009772962408 0.13699394597405756 0
0.27000001997595846 0.1570379071660658 0
0.27000000303920252 0.1771921554462815 0
0.27000000039545091 0.19752036821083582 0
0.2700000000450799 0.21816706350808554 0
0.27000000000455615 0.23936639830666534 0
0.27000000000040392 0.26147325057379101 0
0.27000000000002783 0.28503609684717635 0
0.27000000000000102 0.31119899851080385 0
0.27000000000000002 0.35446214171377644 0
0.29000042066180415 0.031555059988142183 0
0.29000054354871596 0.035385836371079941 0
0.29000064524090452 0.038528377209415716 0
0.29000073735720627 0.041680967341939275 0
0.29000084360244627 0.044863590563830026 0
0.29000096065454933 0.048119589387844421 0
0.29000107402766451 0.051513319244733215 0
0.29000121312019378 0.055129850384301154 0
0.29000138501839989 0.059084446682213979 0
0.29000158386890706 0.063542888215812568 0
0.29000184005809237 0.068770907638534162 0
0.29000204737264945 0.075291046710427301 0
0.29000221651405456 0.084420269460447145 0
0.29000181661044672 0.098601559407175951 0
0.29000093778586006 0.11716474725925294 0
0.29000028121532856 0.1369908652359797 0
0.29000004744337643 0.15703456106052952 0
0.29000000588478086 0.17718525922958883 0
0.29000000068484366 0.19750593354698026 0
0.29000000007297311 0.21813919043965693 0
0.29000000000692622 0.23931715845482532 0
0.29000000000058795 0.26139678228896956 0
0.29000000000003917 0.28493354352025663 0
0.29000000000000153 0.31108117565525101 0
0.29000000000000004 0.35467162392102669 0
0.31000135608193768 0.031566178445497937 0
0.31000167033151171 0.035385297107208766 0
0.31000189435884196 0.03851528721524676 0
0.31000210395272665 0.04164927882788122 0
0.31000230886285751 0.044807937362271948 0
0.31000253077049222 0.048034815455585474 0
0.31000276127791182 0.051393693887692306 0
0.31000297472679794 0.054968886972306931 0
0.31000325975940796 0.058874919693432774 0
0.31000372439531648 0.063278139899137165 0
0.31000495817094503 0.068447700451648191 0
0.310006949115393 0.074921073351554027 0
0.31000746923072697 0.084083316941330283 0
0.31000543864675023 0.098457008957318307 0
0.31000243899476354 0.11713927593362232 0
0.31000058275355552 0.13698582925072159 0
0.31000007334050006 0.1570300446869112 0
0.31000000826443508 0.17717590143863809 0
0.31000000090425145 0.19748554574763461 0
0.31000000009382894 0.21809701201671075 0
0.31000000000863626 0.23923676096176391 0
0.31000000000069877 0.26126186216856501 0
0.31000000000004491 0.28474306761443535 0
0.31000000000000177 0.31086709319539974 0
0.31000000000000005 0.35508070863871949 0
0.33000280306566121 0.032748713393176296 0
0.3300033672319751 0.036216561293247296 0
0.33000380706947041 0.039018190755848912 0
0.33000419050871999 0.041890008925233368 0
0.33000448458970028 0.044830682247581882 0
0.33000472869705344 0.047866696012831014 0
0.33000496541210356 0.051048814286105457 0
0.33000525039154399 0.054451813538389945 0
0.33000557776015516 0.058183807603966207 0
0.33000617873061655 0.062407359771176792 0
0.33000752496663749 0.0673930369703621 0
0.3300092876040473 0.073732197936298052 0
0.33000905797102464 0.083109708971425514 0
0.3300058827561661 0.098125275742747625 0
0.33000242722645706 0.11709126950417235 0
0.33000054869210144 0.13697751107450201 0
0.33000006845228269 0.15702331546637646 0
0.33000000790801365 0.17716253809718407 0
0.33000000085846909 0.1974576284727928 0
0.33000000008663422 0.21804005884218466 0
0.33000000000779939 0.23912814408803559 0
0.3300000000006052 0.261071614474851 0
0.33000000000003754 0.28445524978788 0
0.3300000000000014 0.31053278730723355 0
0.33000000000000002 0.3559247027659091 0
0 0 0
0 0.020000000000000004 0
0 0.040000000000000001 0
0 0.54999999999999993 0
0 0.56000000000000005 0
0 0.58000000000000007 0
0.02 0 0
0.02 0.020000000000000004 0
0.02 0.040000000000000001 0
0.02 0.54999999999999993 0
0.02 0.56000000000000005 0
0.02 0.58000000000000007 0
0.040000000000000001 0 0
0.040000000000000001 0.020000000000000004 0
0.040000000000000001 0.040000000000000001 0
0.040000000000000001 0.54999999999999993 0
0.040000000000000001 0.56000000000000005 0
0.040000000000000001 0.58000000000000007 0
0.059999999999999998 0 0
0.059999999999999998 0.020000000000000004 0
0.059999999999999998 0.040000000000000001 0
0.059999999999999998 0.54999999999999993 0
0.059999999999999998 0.56000000000000005 0
0.059999999999999998 0.58000000000000007 0
0.080000000000000002 0 0
0.080000000000000002 0.020000000000000004 0
0.080000000000000002 0.040000000000000001 0
0.080000000000000002 0.54999999999999993 0
0.080000000000000002 0.56000000000000005 0
0.080000000000000002 0.58000000000000007 0
0.10000000000000001 0 0
0.10000000000000001 0.020000000000000004 0
0.10000000000000001 0.040000000000000001 0
0.10000000000000001 0.54999999999999993 0
0.10000000000000001 0.56000000000000005 0
0.10000000000000001 0.58000000000000007 0
0.12 0 0
0.12 0.020000000000000004 0
0.12 0.040000000000000001 0
0.12 0.54999999999999993 0
0.12 0.56000000000000005 0
0.12 0.58000000000000007 0
0.14000000000000001 0 0
0.14000000000000001 0.020000000000000004 0
0.14000000000000001 0.040000000000000001 0
0.14000000000000001 0.54999999999999993 0
0.14000000000000001 0.56000000000000005 0
0.14000000000000001 0.58000000000000007 0
0.16 0 0
0.16 0.020000000000000004 0
0.16 0.040000000000000001 0
0.16 0.54999999999999993 0
0.16 0.56000000000000005 0
0.16 0.58000000000000007 0
0.17999999999999999 0 0
0.17999999999999999 0.020000000000000004 0
0.17999999999999999 0.040000000000000001 0
0.17999999999999999 0.54999999999999993 0
0.17999999999999999 0.56000000000000005 0
0.17999999999999999 0.58000000000000007 0
0.20000000000000001 0 0
0.20000000000000001 0.020000000000000004 0
0.20000000000000001 0.040000000000000001 0
0.20000000000000001 0.54999999999999993 0
0.20000000000000001 0.56000000000000005 0
0.20000000000000001 0.58000000000000007 0
0.22 0 0
0.22 0.020000000000000004 0
0.22 0.040000000000000001 0
0.22 0.54999999999999993 0
0.22 0.56000000000000005 0
0.22 0.58000000000000007 0
0.23999999999999999 0 0
0.23999999999999999 0.020000000000000004 0
0.23999999999999999 0.040000000000000001 0
0.23999999999999999 0.54999999999999993 0
0.23999999999999999 0.56000000000000005 0
0.23999999999999999 0.58000000000000007 0
0.26000000000000001 0 0
0.26000000000000001 0.020000000000000004 0
0.26000000000000001 0.040000000000000001 0
0.26000000000000001 0.54999999999999993 0
0.26000000000000001 0.56000000000000005 0
0.26000000000000001 0.58000000000000007 0
0.28000000000000003 0 0
0.28000000000000003 0.020000000000000004 0
0.28000000000000003 0.040000000000000001 0
0.28000000000000003 0.54999999999999993 0
0.28000000000000003 0.56000000000000005 0
0.28000000000000003 0.58000000000000007 0
0.29999999999999999 0 0
0.29999999999999999 0.020000000000000004 0
0.29999999999999999 0.040000000000000001 0
0.29999999999999999 0.54999999999999993 0
0.29999999999999999 0.56000000000000005 0
0.29999999999999999 0.58000000000000007 0
0.32000000000000001 0 0
0.32000000000000001 0.020000000000000004 0
0.32000000000000001 0.040000000000000001 0
0.32000000000000001 0.54999999999999993 0
0.32000000000000001 0.56000000000000005 0
0.32000000000000001 0.58000000000000007 0
0.34000000000000002 0 0
0.34000000000000002 0.020000000000000004 0
0.34000000000000002 0.040000000000000001 0
0.34000000000000002 0.54999999999999993 0
0.34000000000000002 0.56000000000000005 0
0.34000000000000002 0.58000000000000007 0
0.35999999999999999 0 0
0.35999999999999999 0.020000000000000004 0
0.35999999999999999 0.040000000000000001 0
0.35999999999999999 0.54999999999999993 0
0.35999999999999999 0.56000000000000005 0
0.35999999999999999 0.58000000000000007 0
0.38 0 0
0.38 0.020000000000000004 0
0.38 0.040000000000000001 0
0.38 0.54999999999999993 0
0.38 0.56000000000000005 0
0.38 0.58000000000000007 0
0.40000000000000002 0 0
0.40000000000000002 0.020000000000000004 0
0.40000000000000002 0.040000000000000001 0
0.40000000000000002 0.54999999999999993 0
0.40000000000000002 0.56000000000000005 0
0.40000000000000002 0.58000000000000007 0
0.41999999999999998 0 0
0.41999999999999998 0.020000000000000004 0
0.41999999999999998 0.040000000000000001 0
0.41999999999999998 0.54999999999999993 0
0.41999999999999998 0.56000000000000005 0
0.41999999999999998 0.58000000000000007 0
0.44 0 0
0.44 0.020000000000000004 0
0.44 0.040000000000000001 0
0.44 0.54999999999999993 0
0.44 0.56000000000000005 0
0.44 0.58000000000000007 0
0.46000000000000002 0 0
0.46000000000000002 0.020000000000000004 0
0.46000000000000002 0.040000000000000001 0
0.46000000000000002 0.54999999999999993 0
0.46000000000000002 0.56000000000000005 0
0.46000000000000002 0.58000000000000007 0
0.47999999999999998 0 0
0.47999999999999998 0.020000000000000004 0
0.47999999999999998 0.040000000000000001 0
0.47999999999999998 0.54999999999999993 0
0.47999999999999998 0.56000000000000005 0
0.47999999999999998 0.58000000000000007 0
0.5 0 0
0.5 0.020000000000000004 0
0.5 0.040000000000000001 0
0.5 0.54999999999999993 0
0.5 0.56000000000000005 0
0.5 0.58000000000000007 0
0.52000000000000002 0 0
0.52000000000000002 0.020000000000000004 0
0.52000000000000002 0.040000000000000001 0
0.52000000000000002 0.54999999999999993 0
0.52000000000000002 0.56000000000000005 0
0.52000000000000002 0.58000000000000007 0
0.54000000000000004 0 0
0.54000000000000004 0.020000000000000004 0
0.54000000000000004 0.040000000000000001 0
0.54000000000000004 0.54999999999999993 0
0.54000000000000004 0.56000000000000005 0
0.54000000000000004 0.58000000000000007 0
0.56000000000000005 0 0
0.56000000000000005 0.020000000000000004 0
0.56000000000000005 0.040000000000000001 0
0.56000000000000005 0.54999999999999993 0
0.56000000000000005 0.56000000000000005 0
0.56000000000000005 0.58000000000000007 0
0.57999999999999996 0 0
0.57999999999999996 0.020000000000000004 0
0.57999999999999996 0.040000000000000001 0
0.57999999999999996 0.54999999999999993 0
0.57999999999999996 0.56000000000000005 0
0.57999999999999996 0.58000000000000007 0
0.59999999999999998 0 0
0.59999999999999998 0.020000000000000004 0
0.59999999999999998 0.040000000000000001 0
0.59999999999999998 0.54999999999999993 0
0.59999999999999998 0.56000000000000005 0
0.59999999999999998 0.58000000000000007 0
0.62 0 0
0.62 0.020000000000000004 0
0.62 0.040000000000000001 0
0.62 0.54999999999999993 0
0.62 0.56000000000000005 0
0.62 0.58000000000000007 0
0.64000000000000001 0 0
0.64000000000000001 0.020000000000000004 0
0.64000000000000001 0.040000000000000001 0
0.64000000000000001 0.54999999999999993 0
0.64000000000000001 0.56000000000000005 0
0.64000000000000001 0.58000000000000007 0
0.66000000000000003 0 0
0.66000000000000003 0.020000000000000004 0
0.66000000000000003 0.040000000000000001 0
0.66000000000000003 0.54999999999999993 0
0.66000000000000003 0.56000000000000005 0
0.66000000000000003 0.58000000000000007 0
0.68000000000000005 0 0
0.68000000000000005 0.020000000000000004 0
0.68000000000000005 0.040000000000000001 0
0.68000000000000005 0.54999999999999993 0
0.68000000000000005 0.56000000000000005 0
0.68000000000000005 0.58000000000000007 0
0.70000000000000007 0 0
0.70000000000000007 0.020000000000000004 0
0.70000000000000007 0.040000000000000001 0
0.70000000000000007 0.54999999999999993 0
0.70000000000000007 0.56000000000000005 0
0.70000000000000007 0.58000000000000007 0
0.71999999999999997 0 0
0.71999999999999997 0.020000000000000004 0
0.71999999999999997 0.040000000000000001 0
0.71999999999999997 0.54999999999999993 0
0.71999999999999997 0.56000000000000005 0
0.71999999999999997 0.58000000000000007 0
0.73999999999999999 0 0
0.73999999999999999 0.020000000000000004 0
0.73999999999999999 0.040000000000000001 0
0.73999999999999999 0.54999999999999993 0
0.73999999999999999 0.56000000000000005 0
0.73999999999999999 0.58000000000000007 0
0.76000000000000001 0 0
0.76000000000000001 0.020000000000000004 0
0.76000000000000001 0.040000000000000001 0
0.76000000000000001 0.54999999999999993 0
0.76000000000000001 0.56000000000000005 0
0.76000000000000001 0.58000000000000007 0
0.78000000000000003 0 0
0.78000000000000003 0.020000000000000004 0
0.78000000000000003 0.040000000000000001 0
0.78000000000000003 0.54999999999999993 0
0.78000000000000003 0.56000000000000005 0
0.78000000000000003 0.58000000000000007 0
0.80000000000000004 0 0
0.80000000000000004 0.020000000000000004 0
0.80000000000000004 0.040000000000000001 0
0.80000000000000004 0.54999999999999993 0
0.80000000000000004 0.56000000000000005 0
0.80000000000000004 0.58000000000000007 0
0.82000000000000006 0 0
0.82000000000000006 0.020000000000000004 0
0.82000000000000006 0.040000000000000001 0
0.82000000000000006 0.54999999999999993 0
0.82000000000000006 0.56000000000000005 0
0.82000000000000006 0.58000000000000007 0
0.83999999999999997 0 0
0.83999999999999997 0.020000000000000004 0
0.83999999999999997 0.040000000000000001 0
0.83999999999999997 0.54999999999999993 0
0.83999999999999997 0.56000000000000005 0
0.83999999999999997 0.58000000000000007 0
0.85999999999999999 0 0
0.85999999999999999 0.020000000000000004 0
0.85999999999999999 0.040000000000000001 0
0.85999999999999999 0.54999999999999993 0
0.85999999999999999 0.56000000000000005 0
0.85999999999999999 0.58000000000000007 0
0.88 0 0
0.88 0.020000000000000004 0
0.88 0.040000000000000001 0
0.88 0.54999999999999993 0
0.88 0.56000000000000005 0
0.88 0.58000000000000007 0
0.90000000000000002 0 0
0.90000000000000002 0.020000000000000004 0
0.90000000000000002 0.040000000000000001 0
0.90000000000000002 0.54999999999999993 0
0.90000000000000002 0.56000000000000005 0
0.90000000000000002 0.58000000000000007 0
0.92000000000000004 0 0
0.92000000000000004 0.020000000000000004 0
0.92000000000000004 0.040000000000000001 0
0.92000000000000004 0.54999999999999993 0
0.92000000000000004 0.56000000000000005 0
0.92000000000000004 0.58000000000000007 0
0.94000000000000006 0 0
0.94000000000000006 0.020000000000000004 0
0.94000000000000006 0.040000000000000001 0
0.94000000000000006 0.54999999999999993 0
0.94000000000000006 0.56000000000000005 0
0.94000000000000006 0.58000000000000007 0
0.95999999999999996 0 0
0.95999999999999996 0.020000000000000004 0
0.95999999999999996 0.040000000000000001 0
0.95999999999999996 0.54999999999999993 0
0.95999999999999996 0.56000000000000005 0
0.95999999999999996 0.58000000000000007 0
0.97999999999999998 0 0
0.97999999999999998 0.020000000000000004 0
0.97999999999999998 0.040000000000000001 0
0.97999999999999998 0.54999999999999993 0
0.97999999999999998 0.56000000000000005 0
0.97999999999999998 0.58000000000000007 0
1 0 0
1 0.020000000000000004 0
1 0.040000000000000001 0
1 0.54999999999999993 0
1 0.56000000000000005 0
1 0.58000000000000007 0
VERTICES 681 1362
1 0
1 1
1 2
1 3
1 4
1 5
1 6
1 7
1 8
1 9
1 10
1 11
1 12
1 13
1 14
1 15
1 16
1 17
1 18
1 19
1 20
1 21
1 22
1 23
1 24
1 25
1 26
1 27
1 28
1 29
1 30
1 31
1 32
1 33
1 34
1 35
1 36
1 37
1 38
1 39
1 40
1 41
1 42
1 43
1 44
1 45
1 46
1 47
1 48
1 49
1 50
1 51
1 52
1 53
1 54
1 55
1 56
1 57
1 58
1 59
1 60
1 61
1 62
1 63
1 64
1 65
1 66
1 67
1 68
1 69
1 70
1 71
1 72
1 73
1 74
1 75
1 76
1 77
1 78
1 79
1 80
1 81
1 82
1 83
1 84
1 85
1 86
1 87
1 88
1 89
1 90
1 91
1 92
1 93
1 94
1 95
1 96
1 97
1 98
1 99
1 100
1 101
1 102
1 103
1 104
1 105
1 106
1 107
1 108
1 109
1 110
1 111
1 112
1 113
1 114
1 115
1 116
1 117
1 118
1 119
1 120
1 121
1 122
1 123
1 124
1 125
1 126
1 127
1 128
1 129
1 130
1 131
1 132
1 133
1 134
1 135
1 136
1 137
1 138
1 139
1 140
1 141
1 142
1 143
1 144
1 145
1 146
1 147
1 148
1 149
1 150
1 151
1 152
1 153
1 154
1 155
1 156
1 157
1 158
1 159
1 160
1 161
1 162
1 163
1 164
1 165
1 166
1 167
1 168
1 169
1 170
1 171
1 172
1 173
1 174
1 175
1 176
1 177
1 178
1 179
1 180
1 181
1 182
1 183
1 184
1 185
1 186
1 187
1 188
1 189
1 190
1 191
1 192
1 193
1 194
1 195
1 196
1 197
1 198
1 199
1 200
1 201
1 202
1 203
1 204
1 205
1 206
1 207
1 208
1 209
1 210
1 211
1 212
1 213
1 214
1 215
1 216
1 217
1 218
1 219
1 220
1 221
1 222
1 223
1 224
1 225
1 226
1 227
1 228
1 229
1 230
1 231
1 232
1 233
1 234
1 235
1 236
1 237
1 238
1 239
1 240
1 241
1 242
1 243
1 244
1 245
1 246
1 247
1 248
1 249
1 250
1 251
1 252
1 253
1 254
1 255
1 256
1 257
1 258
1 259
1 260
1 261
1 262
1 263
1 264
1 265
1 266
1 267
1 268
1 269
1 270
1 271
1 272
1 273
1 274
1 275
1 276
1 277
1 278
1 279
1 280
1 281
1 282
1 283
1 284
1 285
1 286
1 287
1 288
1 289
1 290
1 291
1 292
1 293
1 294
1 295
1 296
1 297
1 298
1 299
1 300
1 301
1 302
1 303
1 304
1 305
1 306
1 307
1 308
1 309
1 310
1 311
1 312
1 313
1 314
1 315
1 316
1 317
1 318
1 319
1 320
1 321
1 322
1 323
1 324
1 325
1 326
1 327
1 328
1 329
1 330
1 331
1 332
1 333
1 334
1 335
1 336
1 337
1 338
1 339
1 340
1 341
1 342
1 343
1 344
1 345
1 346
1 347
1 348
1 349
1 350
1 351
1 352
1 353
1 354
1 355
1 356
1 357
1 358
1 359
1 360
1 361
1 362
1 363
1 364
1 365
1 366
1 367
1 368
1 369
1 370
1 371
1 372
1 373
1 374
1 375
1 376
1 377
1 378
1 379
1 380
1 381
1 382
1 383
1 384
1 385
1 386
1 387
1 388
1 389
1 390
1 391
1 392
1 393
1 394
1 395
1 396
1 397
1 398
1 399
1 400
1 401
1 402
1 403
1 404
1 405
1 406
1 407
1 408
1 409
1 410
1 411
1 412
1 413
1 414
1 415
1 416
1 417
1 418
1 419
1 420
1 421
1 422
1 423
1 424
1 425
1 426
1 427
1 428
1 429
1 430
1 431
1 432
1 433
1 434
1 435
1 436
1 437
1 438
1 439
1 440
1 441
1 442
1 443
1 444
1 445
1 446
1 447
1 448
1 449
1 450
1 451
1 452
1 453
1 454
1 455
1 456
1 457
1 458
1 459
1 460
1 461
1 462
1 463
1 464
1 465
1 466
1 467
1 468
1 469
1 470
1 471
1 472
1 473
1 474
1 475
1 476
1 477
1 478
1 479
1 480
1 481
1 482
1 483
1 484
1 485
1 486
1 487
1 488
1 489
1 490
1 491
1 492
1 493
1 494
1 495
1 496
1 497
1 498
1 499
1 500
1 501
1 502
1 503
1 504
1 505
1 506
1 507
1 508
1 509
1 510
1 511
1 512
1 513
1 514
1 515
1 516
1 517
1 518
1 519
1 520
1 521
1 522
1 523
1 524
1 525
1 526
1 527
1 528
1 529
1 530
1 531
1 532
1 533
1 534
1 535
1 536
1 537
1 538
1 539
1 540
1 541
1 542
1 543
1 544
1 545
1 546
1 547
1 548
1 549
1 550
1 551
1 552
1 553
1 554
1 555
1 556
1 557
1 558
1 559
1 560
1 561
1 562
1 563
1 564
1 565
1 566
1 567
1 568
1 569
1 570
1 571
1 572
1 573
1 574
1 575
1 576
1 577
1 578
1 579
1 580
1 581
1 582
1 583
1 584
1 585
1 586
1 587
1 588
1 589
1 590
1 591
1 592
1 593
1 594
1 595
1 596
1 597
1 598
1 599
1 600
1 601
1 602
1 603
1 604
1 605
1 606
1 607
1 608
1 609
1 610
1 611
1 612
1 613
1 614
1 615
1 616
1 617
1 618
1 619
1 620
1 621
1 622
1 623
1 624
1 625
1 626
1 627
1 628
1 629
1 630
1 631
1 632
1 633
1 634
1 635
1 636
1 637
1 638
1 639
1 640
1 641
1 642
1 643
1 644
1 645
1 646
1 647
1 648
1 649
1 650
1 651
1 652
1 653
1 654
1 655
1 656
1 657
1 658
1 659
1 660
1 661
1 662
1 663
1 664
1 665
1 666
1 667
1 668
1 669
1 670
1 671
1 672
1 673
1 674
1 675
1 676
1 677
1 678
1 679
1 680
POINT_DATA 681
SCALARS is_boundary int 1
LOOKUP_TABLE default
0
0
0
0
0
0
0
0
0
0
0
0
0
0
0
0
0
0
0
0
0
0
0
0
0
0
0
0
0
0
0
0
0
0
0
0
0
0
0
0
0
0
0
0
0
0
0
0
0
0
0
0
0
0
0
0
0
0
0
0
0
0
0
0
0
0
0
0
0
0
0
0
0
0
0
0
0
0
0
0
0
0
0
0
0
0
0
0
0
0
0
0
0
0
0
0
0
0
0
0
0
0
0
0
0
0
0
0
0
0
0
0
0
0
0
0
0
0
0
0
0
0
0
0
0
0
0
0
0
0
0
0
0
0
0
0
0
0
0
0
0
0
0
0
0
0
0
0
0
0
0
0
0
0
0
0
0
0
0
0
0
0
0
0
0
0
0
0
0
0
0
0
0
0
0
0
0
0
0
0
0
0
0
0
0
0
0
0
0
0
0
0
0
0
0
0
0
0
0
0
0
0
0
0
0
0
0
0
0
0
0
0
0
0
0
0
0
0
0
0
0
0
0
0
0
0
0
0
0
0
0
0
0
0
0
0
0
0
0
0
0
0
0
0
0
0
0
0
0
0
0
0
0
0
0
0
0
0
0
0
0
0
0
0
0
0
0
0
0
0
0
0
0
0
0
0
0
0
0
0
0
0
0
0
0
0
0
0
0
0
0
0
0
0
0
0
0
0
0
0
0
0
0
0
0
0
0
0
0
0
0
0
0
0
0
0
0
0
0
0
0
0
0
0
0
0
0
0
0
0
0
0
0
0
0
0
0
0
0
0
0
0
0
0
0
0
0
0
0
0
0
0
0
0
0
0
0
0
0
0
0
0
0
0
0
0
0
0
0
0
0
0
0
0
0
1
1
1
1
1
1
1
1
1
1
1
1
1
1
1
1
1
1
1
1
1
1
1
1
1
1
1
1
1
1
1
1
1
1
1
1
1
1
1
1
1
1
1
1
1
1
1
1
1
1
1
1
1
1
1
1
1
1
1
1
1
1
1
1
1
1
1
1
1
1
1
1
1
1
1
1
1
1
1
1
1
1
1
1
1
1
1
1
1
1
1
1
1
1
1
1
1
1
1
1
1
1
1
1
1
1
1
1
1
1
1
1
1
1
1
1
1
1
1
1
1
1
1
1
1
1
1
1
1
1
1
1
1
1
1
1
1
1
1
1
1
1
1
1
1
1
1
1
1
1
1
1
1
1
1
1
1
1
1
1
1
1
1
1
1
1
1
1
1
1
1
1
1
1
1
1
1
1
1
1
1
1
1
1
1
1
1
1
1
1
1
1
1
1
1
1
1
1
1
1
1
1
1
1
1
1
1
1
1
1
1
1
1
1
1
1
1
1
1
1
1
1
1
1
1
1
1
1
1
1
1
1
1
1
1
1
1
1
1
1
1
1
1
1
1
1
1
1
1
1
1
1
1
1
1
1
1
1
1
1
1
1
1
1
1
1
1
1
1
1
1
1
1
1
1
1
1
1
1
1
1
1
1
1
1
1
1
1
1
1
1
1
1
1
1
1
1
1
1
1
1
1
1
1
1
1
SCALARS rho float 1
LOOKUP_TABLE default
1020
1020
1020
1020
1020
1020
1020
1020
1020
1020
1020
1020
1020
1020
862
862
862
862
862
862
850
850
850
850
850
1020
1020
1020
1020
1020
1020
1020
1020
1020
1020
1020
1020
1020
1020
1020
1002.5929582881995
994.38499537576399
987.84782469146103
880
880
880
879.76282587098967
862
850
850
1020
1020
1020
1020
1020
1020
1020
1020
1020
1020
1020
1020
1020
1020
1020
1004.2613814551466
995.27198928137022
988.44675165997455
976.97184187565313
957.31140189281064
880
879.04408660025069
862
862
850
1020
1020
1020
1020
1020
1020
1020
1020
1020
1020
1020
1020
1020
1020
1020
1004.5646265909443
995.18679092595767
988.17735045704717
976.46675085472316
880
880
878.36672472603539
862
862
850
1020
1020
1020
1020
1020
1020
1020
1020
1020
1020
1020
1020
1020
1020
1020
1004.6726917188089
995.12114652931609
988.0076620127877
976.17172758023162
880
880
878.04885590271704
862
862
850
1020
1020
1020
1020
1020
1020
1020
1020
1020
1020
1020
1020
1020
1020
1020
1004.7030869181838
995.07871751559492
987.91293709781075
976.01641866613727
880
880
877.90743314140502
862
862
850
1020
1020
1020
1020
1020
1020
1020
1020
1020
1020
1020
1020
1020
1020
1020
1004.7098352333792
995.05643086861437
987.86771579665333
975.94509896396426
880
880
877.85057060056488
862
862
850
1020
1020
1020
1020
1020
1020
1020
1020
1020
1020
1020
1020
1020
1020
1020
1004.712221648482
995.04982228338076
987.85463404420511
975.92486319647742
880
880
877.83568509284112
862
862
850
1020
1020
1020
1020
1020
1020
1020
1020
1020
1020
1020
1020
1020
1020
1020
1004.7115825509047
995.05663442863829
987.86773278588475
975.94510042819888
880
880
877.85057060062252
862
862
850
1020
1020
1020
1020
1020
1020
1020
1020
1020
1020
1020
1020
1020
1020
1020
1004.7030888564095
995.0783102422613
987.91286882948816
976.01641131005226
880
880
877.90743313861003
862
862
850
1020
1020
1020
1020
1020
1020
1020
1020
1020
1020
1020
1020
1020
1020
1020
1004.6692747639686
995.11996305699586
988.00748877584988
976.17170774516035
880
880
878.04885589492949
862
862
850
1020
1020
1020
1020
1020
1020
1020
1020
1020
1020
1020
1020
1020
1020
1020
1004.5605891180337
995.18553333136106
988.17714963838444
976.46672540391501
880
880
878.36672471433837
862
862
850
1020
1020
1020
1020
1020
1020
1020
1020
1020
1020
1020
1020
1020
1020
1020
1004.2583747288395
995.27093746478158
988.44657173230871
976.97181812524173
957.31139921069575
880
879.04408658765328
862
862
850
1020
1020
1020
1020
1020
1020
1020
1020
1020
1020
1020
1020
1020
1020
1020
1002.5905786935739
994.38422671926332
987.84769328605216
880
880
880
879.76282585997478
862
850
850
1020
1020
1020
1020
1020
1020
1020
1020
1020
1020
1020
1020
1020
1020
862
862
862
862
862
862
850
850
850
850
850
1000
1000
1000
1000
1000
1000
1000
1000
1000
1000
1000
1000
1000
1000
1000
1000
1000
1000
1000
1000
1000
1000
1000
1000
1000
1000
1000
1000
1000
1000
1000
1000
1000
1000
1000
1000
1000
1000
1000
1000
1000
1000
1000
1000
1000
1000
1000
1000
1000
1000
1000
1000
1000
1000
1000
1000
1000
1000
1000
1000
1000
1000
1000
1000
1000
1000
1000
1000
1000
1000
1000
1000
1000
1000
1000
1000
1000
1000
1000
1000
1000
1000
1000
1000
1000
1000
1000
1000
1000
1000
1000
1000
1000
1000
1000
1000
1000
1000
1000
1000
1000
1000
1000
1000
1000
1000
1000
1000
1000
1000
1000
1000
1000
1000
1000
1000
1000
1000
1000
1000
1000
1000
1000
1000
1000
1000
1000
1000
1000
1000
1000
1000
1000
1000
1000
1000
1000
1000
1000
1000
1000
1000
1000
1000
1000
1000
1000
1000
1000
1000
1000
1000
1000
1000
1000
1000
1000
1000
1000
1000
1000
1000
1000
1000
1000
1000
1000
1000
1000
1000
1000
1000
1000
1000
1000
1000
1000
1000
1000
1000
1000
1000
1000
1000
1000
1000
1000
1000
1000
1000
1000
1000
1000
1000
1000
1000
1000
1000
1000
1000
1000
1000
1000
1000
1000
1000
1000
1000
1000
1000
1000
1000
1000
1000
1000
1000
1000
1000
1000
1000
1000
1000
1000
1000
1000
1000
1000
1000
1000
1000
1000
1000
1000
1000
1000
1000
1000
1000
1000
1000
1000
1000
1000
1000
1000
1000
1000
1000
1000
1000
1000
1000
1000
1000
1000
1000
1000
1000
1000
1000
1000
1000
1000
1000
1000
1000
1000
1000
1000
1000
1000
1000
1000
1000
1000
1000
1000
1000
1000
1000
1000
1000
1000
1000
1000
1000
1000
1000
1000
1000
1000
1000
1000
1000
1000
1000
1000
1000
1000
1000
1000
1000
1000
1000
1000
1000
SCALARS p float 1
LOOKUP_TABLE default
25004.681136676067
25004.681136676067
25004.681136676067
25004.681136676067
25004.681136676067
25004.681136676067
25004.681136676067
25004.681136676067
25004.681136676067
25004.681136676067
25004.681136676067
25004.681136676067
25004.681136676067
25004.681136676067
0
0
0
0
0
0
0
0
0
0
0
25004.681136676067
25004.681136676067
25004.681136676067
25004.681136676067
25004.681136676067
25004.681136676067
25004.681136676067
25004.681136676067
25004.681136676067
25004.681136676067
25004.681136676067
25004.681136676067
25004.681136676067
25004.681136676067
25004.681136676067
3076.2778522794779
0
0
0
0
0
0
0
0
0
25004.681136676067
25004.681136676067
25004.681136676067
25004.681136676067
25004.681136676067
25004.681136676067
25004.681136676067
25004.681136676067
25004.681136676067
25004.681136676067
25004.681136676067
25004.681136676067
25004.681136676067
25004.681136676067
25004.681136676067
5081.0873150632542
0
0
0
0
0
0
0
0
0
25004.681136676067
25004.681136676067
25004.681136676067
25004.681136676067
25004.681136676067
25004.681136676067
25004.681136676067
25004.681136676067
25004.681136676067
25004.681136676067
25004.681136676067
25004.681136676067
25004.681136676067
25004.681136676067
25004.681136676067
5447.624556685756
0
0
0
0
0
0
0
0
0
25004.681136676067
25004.681136676067
25004.681136676067
25004.681136676067
25004.681136676067
25004.681136676067
25004.681136676067
25004.681136676067
25004.681136676067
25004.681136676067
25004.681136676067
25004.681136676067
25004.681136676067
25004.681136676067
25004.681136676067
5578.4051407669504
0
0
0
0
0
0
0
0
0
25004.681136676067
25004.681136676067
25004.681136676067
25004.681136676067
25004.681136676067
25004.681136676067
25004.681136676067
25004.681136676067
25004.681136676067
25004.681136676067
25004.681136676067
25004.681136676067
25004.681136676067
25004.681136676067
25004.681136676067
5615.2046692258155
0
0
0
0
0
0
0
0
0
25004.681136676067
25004.681136676067
25004.681136676067
25004.681136676067
25004.681136676067
25004.681136676067
25004.681136676067
25004.681136676067
25004.681136676067
25004.681136676067
25004.681136676067
25004.681136676067
25004.681136676067
25004.681136676067
25004.681136676067
5623.3757740766969
0
0
0
0
0
0
0
0
0
25004.681136676067
25004.681136676067
25004.681136676067
25004.681136676067
25004.681136676067
25004.681136676067
25004.681136676067
25004.681136676067
25004.681136676067
25004.681136676067
25004.681136676067
25004.681136676067
25004.681136676067
25004.681136676067
25004.681136676067
5626.2654108723036
0
0
0
0
0
0
0
0
0
25004.681136676067
25004.681136676067
25004.681136676067
25004.681136676067
25004.681136676067
25004.681136676067
25004.681136676067
25004.681136676067
25004.681136676067
25004.681136676067
25004.681136676067
25004.681136676067
25004.681136676067
25004.681136676067
25004.681136676067
5625.4915431958743
0
0
0
0
0
0
0
0
0
25004.681136676067
25004.681136676067
25004.681136676067
25004.681136676067
25004.681136676067
25004.681136676067
25004.681136676067
25004.681136676067
25004.681136676067
25004.681136676067
25004.681136676067
25004.681136676067
25004.681136676067
25004.681136676067
25004.681136676067
5615.20701605262
0
0
0
0
0
0
0
0
0
25004.681136676067
25004.681136676067
25004.681136676067
25004.681136676067
25004.681136676067
25004.681136676067
25004.681136676067
25004.681136676067
25004.681136676067
25004.681136676067
25004.681136676067
25004.681136676067
25004.681136676067
25004.681136676067
25004.681136676067
5574.2686443948933
0
0
0
0
0
0
0
0
0
25004.681136676067
25004.681136676067
25004.681136676067
25004.681136676067
25004.681136676067
25004.681136676067
25004.681136676067
25004.681136676067
25004.681136676067
25004.681136676067
25004.681136676067
25004.681136676067
25004.681136676067
25004.681136676067
25004.681136676067
5442.7400362948956
0
0
0
0
0
0
0
0
0
25004.681136676067
25004.681136676067
25004.681136676067
25004.681136676067
25004.681136676067
25004.681136676067
25004.681136676067
25004.681136676067
25004.681136676067
25004.681136676067
25004.681136676067
25004.681136676067
25004.681136676067
25004.681136676067
25004.681136676067
5077.4563604171153
0
0
0
0
0
0
0
0
0
25004.681136676067
25004.681136676067
25004.681136676067
25004.681136676067
25004.681136676067
25004.681136676067
25004.681136676067
25004.681136676067
25004.681136676067
25004.681136676067
25004.681136676067
25004.681136676067
25004.681136676067
25004.681136676067
25004.681136676067
3073.4327489713974
0
0
0
0
0
0
0
0
0
25004.681136676067
25004.681136676067
25004.681136676067
25004.681136676067
25004.681136676067
25004.681136676067
25004.681136676067
25004.681136676067
25004.681136676067
25004.681136676067
25004.681136676067
25004.681136676067
25004.681136676067
25004.681136676067
0
0
0
0
0
0
0
0
0
0
0
0
0
0
0
0
0
347.24771867421327
24935.124131970631
24990.607547441421
0
0
0
24814.921955411937
25000.475229735464
25003.534329369293
0
0
0
24923.535325574638
25002.557693002738
25004.076679776783
0
0
0
24934.101376963736
25002.663907405957
25004.093304166967
0
0
0
24933.924694710102
25002.662901333671
25004.090559645996
0
0
0
24933.544239326595
25002.657778375407
25004.089633682481
0
0
0
24933.378241160157
25002.655336826883
25004.089268133866
0
0
0
24933.31506491367
25002.654381846551
25004.089128325315
0
0
0
24933.293706727363
25002.654065144092
25004.089083684714
0
0
0
24933.293259741331
25002.654055430619
25004.089081371294
0
0
0
24933.314641531386
25002.654379035965
25004.089128715648
0
0
0
24933.377235707369
25002.655333177045
25004.089270077569
0
0
0
24933.54332763928
25002.657767261888
25004.089634178785
0
0
0
24933.922662248588
25002.662871171739
25004.09055559873
0
0
0
24934.098236940394
25002.663872771438
25004.093300729342
0
0
0
24923.531265457241
25002.557662812313
25004.07668159009
0
0
0
24814.907563040924
25000.475115173169
25003.534319000511
0
0
0
346.86480690959473
24935.119786137842
24990.606999793112
0
0
0
0
0
0
0
0
0
0
0
0
0
0
0
0
0
0
0
0
0
0
0
0
0
0
0
0
0
0
0
0
0
0
0
0
0
0
0
0
0
0
0
0
0
0
0
0
0
0
0
0
0
0
0
0
0
0
0
0
0
0
0
0
0
0
0
0
0
0
0
0
0
0
0
0
0
0
0
0
0
0
0
0
0
0
0
0
0
0
0
0
0
0
0
0
0
0
0
0
0
0
0
0
0
0
0
0
0
0
0
0
0
0
0
0
0
0
0
0
0
0
0
0
0
0
0
0
0
0
0
0
0
0
0
0
0
0
0
0
0
0
0
0
0
0
0
0
0
0
0
0
0
0
0
0
0
0
0
0
0
0
0
0
0
0
0
0
0
0
0
0
0
0
0
0
0
0
0
0
0
0
0
0
0
0
0
0
0
0
0
0
0
0
0
SCALARS m float 1
LOOKUP_TABLE default
0.39942306611962441
0.39942306611962441
0.39942306611962441
0.39942306611962441
0.39942306611962441
0.39942306611962441
0.39942306611962441
0.39942306611962441
0.39942306611962441
0.39942306611962441
0.39942306611962441
0.39942306611962441
0.39942306611962441
0.39942306611962441
0.39942306611962441
0.39942306611962441
0.39942306611962441
0.39942306611962441
0.39942306611962441
0.39942306611962441
0.39942306611962441
0.39942306611962441
0.39942306611962441
0.39942306611962441
0.39942306611962441
0.39942306611962441
0.39942306611962441
0.39942306611962441
0.39942306611962441
0.39942306611962441
0.39942306611962441
0.39942306611962441
0.39942306611962441
0.39942306611962441
0.39942306611962441
0.39942306611962441
0.39942306611962441
0.39942306611962441
0.39942306611962441
0.39942306611962441
0.39942306611962441
0.39942306611962441
0.39942306611962441
0.39942306611962441
0.39942306611962441
0.39942306611962441
0.39942306611962441
0.39942306611962441
0.39942306611962441
0.39942306611962441
0.39942306611962441
0.39942306611962441
0.39942306611962441
0.39942306611962441
0.39942306611962441
0.39942306611962441
0.39942306611962441
0.39942306611962441
0.39942306611962441
0.39942306611962441
0.39942306611962441
0.39942306611962441
0.39942306611962441
0.39942306611962441
0.39942306611962441
0.39942306611962441
0.39942306611962441
0.39942306611962441
0.39942306611962441
0.39942306611962441
0.39942306611962441
0.39942306611962441
0.39942306611962441
0.39942306611962441
0.39942306611962441
0.39942306611962441
0.39942306611962441
0.39942306611962441
0.39942306611962441
0.39942306611962441
0.39942306611962441
0.39942306611962441
0.39942306611962441
0.39942306611962441
0.39942306611962441
0.39942306611962441
0.39942306611962441
0.39942306611962441
0.39942306611962441
0.39942306611962441
0.39942306611962441
0.39942306611962441
0.39942306611962441
0.39942306611962441
0.39942306611962441
0.39942306611962441
0.39942306611962441
0.39942306611962441
0.39942306611962441
0.39942306611962441
0.39942306611962441
0.39942306611962441
0.39942306611962441
0.39942306611962441
0.39942306611962441
0.39942306611962441
0.39942306611962441
0.39942306611962441
0.39942306611962441
0.39942306611962441
0.39942306611962441
0.39942306611962441
0.39942306611962441
0.39942306611962441
0.39942306611962441
0.39942306611962441
0.39942306611962441
0.39942306611962441
0.39942306611962441
0.39942306611962441
0.39942306611962441
0.39942306611962441
0.39942306611962441
0.39942306611962441
0.39942306611962441
0.39942306611962441
0.39942306611962441
0.39942306611962441
0.39942306611962441
0.39942306611962441
0.39942306611962441
0.39942306611962441
0.39942306611962441
0.39942306611962441
0.39942306611962441
0.39942306611962441
0.39942306611962441
0.39942306611962441
0.39942306611962441
0.39942306611962441
0.39942306611962441
0.39942306611962441
0.39942306611962441
0.39942306611962441
0.39942306611962441
0.39942306611962441
0.39942306611962441
0.39942306611962441
0.39942306611962441
0.39942306611962441
0.39942306611962441
0.39942306611962441
0.39942306611962441
0.39942306611962441
0.39942306611962441
0.39942306611962441
0.39942306611962441
0.39942306611962441
0.39942306611962441
0.39942306611962441
0.39942306611962441
0.39942306611962441
0.39942306611962441
0.39942306611962441
0.39942306611962441
0.39942306611962441
0.39942306611962441
0.39942306611962441
0.39942306611962441
0.39942306611962441
0.39942306611962441
0.39942306611962441
0.39942306611962441
0.39942306611962441
0.39942306611962441
0.39942306611962441
0.39942306611962441
0.39942306611962441
0.39942306611962441
0.39942306611962441
0.39942306611962441
0.39942306611962441
0.39942306611962441
0.39942306611962441
0.39942306611962441
0.39942306611962441
0.39942306611962441
0.39942306611962441
0.39942306611962441
0.39942306611962441
0.39942306611962441
0.39942306611962441
0.39942306611962441
0.39942306611962441
0.39942306611962441
0.39942306611962441
0.39942306611962441
0.39942306611962441
0.39942306611962441
0.39942306611962441
0.39942306611962441
0.39942306611962441
0.39942306611962441
0.39942306611962441
0.39942306611962441
0.39942306611962441
0.39942306611962441
0.39942306611962441
0.39942306611962441
0.39942306611962441
0.39942306611962441
0.39942306611962441
0.39942306611962441
0.39942306611962441
0.39942306611962441
0.39942306611962441
0.39942306611962441
0.39942306611962441
0.39942306611962441
0.39942306611962441
0.39942306611962441
0.39942306611962441
0.39942306611962441
0.39942306611962441
0.39942306611962441
0.39942306611962441
0.39942306611962441
0.39942306611962441
0.39942306611962441
0.39942306611962441
0.39942306611962441
0.39942306611962441
0.39942306611962441
0.39942306611962441
0.39942306611962441
0.39942306611962441
0.39942306611962441
0.39942306611962441
0.39942306611962441
0.39942306611962441
0.39942306611962441
0.39942306611962441
0.39942306611962441
0.39942306611962441
0.39942306611962441
0.39942306611962441
0.39942306611962441
0.39942306611962441
0.39942306611962441
0.39942306611962441
0.39942306611962441
0.39942306611962441
0.39942306611962441
0.39942306611962441
0.39942306611962441
0.39942306611962441
0.39942306611962441
0.39942306611962441
0.39942306611962441
0.39942306611962441
0.39942306611962441
0.39942306611962441
0.39942306611962441
0.39942306611962441
0.39942306611962441
0.39942306611962441
0.39942306611962441
0.39942306611962441
0.39942306611962441
0.39942306611962441
0.39942306611962441
0.39942306611962441
0.39942306611962441
0.39942306611962441
0.39942306611962441
0.39942306611962441
0.39942306611962441
0.39942306611962441
0.39942306611962441
0.39942306611962441
0.39942306611962441
0.39942306611962441
0.39942306611962441
0.39942306611962441
0.39942306611962441
0.39942306611962441
0.39942306611962441
0.39942306611962441
0.39942306611962441
0.39942306611962441
0.39942306611962441
0.39942306611962441
0.39942306611962441
0.39942306611962441
0.39942306611962441
0.39942306611962441
0.39942306611962441
0.39942306611962441
0.39942306611962441
0.39942306611962441
0.39942306611962441
0.39942306611962441
0.39942306611962441
0.39942306611962441
0.39942306611962441
0.39942306611962441
0.39942306611962441
0.39942306611962441
0.39942306611962441
0.39942306611962441
0.39942306611962441
0.39942306611962441
0.39942306611962441
0.39942306611962441
0.39942306611962441
0.39942306611962441
0.39942306611962441
0.39942306611962441
0.39942306611962441
0.39942306611962441
0.39942306611962441
0.39942306611962441
0.39942306611962441
0.39942306611962441
0.39942306611962441
0.39942306611962441
0.39942306611962441
0.39942306611962441
0.39942306611962441
0.39942306611962441
0.39942306611962441
0.39942306611962441
0.39942306611962441
0.39942306611962441
0.39942306611962441
0.39942306611962441
0.39942306611962441
0.39942306611962441
0.39942306611962441
0.39942306611962441
0.39942306611962441
0.39942306611962441
0.39942306611962441
0.39942306611962441
0.39942306611962441
0.39942306611962441
0.39942306611962441
0.39942306611962441
0.39942306611962441
0.39942306611962441
0.39942306611962441
0.39942306611962441
0.39942306611962441
0.39942306611962441
0.39942306611962441
0.39942306611962441
0.39942306611962441
0.39942306611962441
0.39942306611962441
0.39942306611962441
0.39942306611962441
0.39942306611962441
0.39942306611962441
0.39942306611962441
0.39942306611962441
0.39942306611962441
0.39942306611962441
0.39942306611962441
0.39942306611962441
0.39942306611962441
0.39942306611962441
0.39942306611962441
0.39942306611962441
0.39942306611962441
0.39942306611962441
0.39942306611962441
0.39942306611962441
0.39942306611962441
0.39942306611962441
0.39942306611962441
0.39942306611962441
0.39942306611962441
0.39942306611962441
0.39942306611962441
0.39942306611962441
0.39942306611962441
0.39942306611962441
0.39942306611962441
0.39942306611962441
0.39942306611962441
0.39942306611962441
0.39942306611962441
0.39942306611962441
0.39942306611962441
0.39942306611962441
0.39942306611962441
0.39942306611962441
0.39942306611962441
0.39942306611962441
0.39942306611962441
0.39942306611962441
0.39942306611962441
0.39942306611962441
0.39942306611962441
0.39942306611962441
0.39942306611962441
0.39942306611962441
0.39942306611962441
0.39942306611962441
0.39942306611962441
0.39942306611962441
0.39942306611962441
0.39942306611962441
0.39942306611962441
0.39942306611962441
0.39942306611962441
0.39942306611962441
0.39942306611962441
0.39942306611962441
0.39942306611962441
0.39942306611962441
0.39942306611962441
0.39942306611962441
0.39942306611962441
0.39942306611962441
0.39942306611962441
0.39942306611962441
0.39942306611962441
0.39942306611962441
0.39942306611962441
0.39942306611962441
0.39942306611962441
0.39942306611962441
0.39942306611962441
0.39942306611962441
0.39942306611962441
0.39942306611962441
0.39942306611962441
0.39942306611962441
0.39942306611962441
0.39942306611962441
0.39942306611962441
0.39942306611962441
0.39942306611962441
0.39942306611962441
0.39942306611962441
0.39942306611962441
0.39942306611962441
0.39942306611962441
0.39942306611962441
0.39942306611962441
0.39942306611962441
0.39942306611962441
0.39942306611962441
0.39942306611962441
0.39942306611962441
0.39942306611962441
0.39942306611962441
0.39942306611962441
0.39942306611962441
0.39942306611962441
0.39942306611962441
0.39942306611962441
0.39942306611962441
0.39942306611962441
0.39942306611962441
0.39942306611962441
0.39942306611962441
0.39942306611962441
0.39942306611962441
0.39942306611962441
0.39942306611962441
0.39942306611962441
0.39942306611962441
0.39942306611962441
0.39942306611962441
0.39942306611962441
0.39942306611962441
0.39942306611962441
0.39942306611962441
0.39942306611962441
0.39942306611962441
0.39942306611962441
0.39942306611962441
0.39942306611962441
0.39942306611962441
0.39942306611962441
0.39942306611962441
0.39942306611962441
0.39942306611962441
0.39942306611962441
0.39942306611962441
0.39942306611962441
0.39942306611962441
0.39942306611962441
0.39942306611962441
0.39942306611962441
0.39942306611962441
0.39942306611962441
0.39942306611962441
0.39942306611962441
0.39942306611962441
0.39942306611962441
0.39942306611962441
0.39942306611962441
0.39942306611962441
0.39942306611962441
0.39942306611962441
0.39942306611962441
0.39942306611962441
0.39942306611962441
0.39942306611962441
0.39942306611962441
0.39942306611962441
0.39942306611962441
0.39942306611962441
0.39942306611962441
0.39942306611962441
0.39942306611962441
0.39942306611962441
0.39942306611962441
0.39942306611962441
0.39942306611962441
0.39942306611962441
0.39942306611962441
0.39942306611962441
0.39942306611962441
0.39942306611962441
0.39942306611962441
0.39942306611962441
0.39942306611962441
0.39942306611962441
0.39942306611962441
0.39942306611962441
0.39942306611962441
0.39942306611962441
0.39942306611962441
0.39942306611962441
0.39942306611962441
0.39942306611962441
0.39942306611962441
0.39942306611962441
0.39942306611962441
0.39942306611962441
0.39942306611962441
0.39942306611962441
0.39942306611962441
0.39942306611962441
0.39942306611962441
0.39942306611962441
0.39942306611962441
0.39942306611962441
0.39942306611962441
0.39942306611962441
0.39942306611962441
0.39942306611962441
0.39942306611962441
0.39942306611962441
0.39942306611962441
0.39942306611962441
0.39942306611962441
0.39942306611962441
0.39942306611962441
0.39942306611962441
0.39942306611962441
0.39942306611962441
0.39942306611962441
0.39942306611962441
0.39942306611962441
0.39942306611962441
0.39942306611962441
0.39942306611962441
0.39942306611962441
0.39942306611962441
0.39942306611962441
0.39942306611962441
0.39942306611962441
0.39942306611962441
0.39942306611962441
0.39942306611962441
0.39942306611962441
0.39942306611962441
0.39942306611962441
0.39942306611962441
0.39942306611962441
0.39942306611962441
0.39942306611962441
0.39942306611962441
0.39942306611962441
0.39942306611962441
0.39942306611962441
0.39942306611962441
0.39942306611962441
0.39942306611962441
0.39942306611962441
0.39942306611962441
0.39942306611962441
0.39942306611962441
0.39942306611962441
0.39942306611962441
0.39942306611962441
0.39942306611962441
0.39942306611962441
0.39942306611962441
0.39942306611962441
0.39942306611962441
0.39942306611962441
0.39942306611962441
0.39942306611962441
0.39942306611962441
0.39942306611962441
0.39942306611962441
0.39942306611962441
0.39942306611962441
0.39942306611962441
0.39942306611962441
0.39942306611962441
0.39942306611962441
0.39942306611962441
0.39942306611962441
0.39942306611962441
0.39942306611962441
0.39942306611962441
0.39942306611962441
0.39942306611962441
0.39942306611962441
0.39942306611962441
0.39942306611962441
0.39942306611962441
0.39942306611962441
0.39942306611962441
0.39942306611962441
0.39942306611962441
0.39942306611962441
0.39942306611962441
0.39942306611962441
0.39942306611962441
0.39942306611962441
0.39942306611962441
0.39942306611962441
0.39942306611962441
0.39942306611962441
0.39942306611962441
0.39942306611962441
0.39942306611962441
0.39942306611962441
0.39942306611962441
0.39942306611962441
0.39942306611962441
0.39942306611962441
0.39942306611962441
0.39942306611962441
0.39942306611962441
0.39942306611962441
0.39942306611962441
0.39942306611962441
0.39942306611962441
0.39942306611962441
0.39942306611962441
0.39942306611962441
0.39942306611962441
0.39942306611962441
0.39942306611962441
0.39942306611962441
0.39942306611962441
0.39942306611962441
0.39942306611962441
0.39942306611962441
0.39942306611962441
0.39942306611962441
0.39942306611962441
0.39942306611962441
0.39942306611962441
0.39942306611962441
0.39942306611962441
0.39942306611962441
0.39942306611962441
0.39942306611962441
0.39942306611962441
0.39942306611962441
0.39942306611962441
VECTORS v float
-8.0267761680993284e-05 -0.089968783197171123 0
-9.408055608275964e-05 -0.10777443663400213 0
-0.0001052182204285846 -0.12334482600090864 0
-0.00011635593053643914 -0.14084091028396703 0
-0.00012708376649532091 -0.16103284447026942 0
-0.00013718684559353239 -0.18517865997478769 0
-0.00014744798672658129 -0.21507221849727412 0
-0.00015932393732731299 -0.25359169257434122 0
-0.00017391202868727936 -0.30518966288785571 0
-0.00019336396906691466 -0.37806202387986904 0
-0.00022031956563561478 -0.49160965650520505 0
-0.00026673099417693871 -0.70442090267000723 0
-0.00036552467972138046 -1.1888678506787416 0
-0.00041234957503702424 -1.8010218734565864 0
-0.00028169017341872629 -2.0093667847391403 0
-9.1450265955131074e-05 -2.0382225012294288 0
-1.3751589985051232e-05 -2.0406413794063951 0
-1.6591744607836925e-06 -2.0387463912627659 0
-1.901151663011555e-07 -2.0348270706560796 0
-2.060815827262066e-08 -2.028659241848322 0
-1.9982001743576641e-09 -2.0199132639744342 0
-1.6614318013314416e-10 -2.0085551221667455 0
-1.1101137477452856e-11 -1.9950318512614307 0
-4.9992962733208221e-13 -1.9807388132346357 0
-1.0682140341139285e-18 -1.845072038113085 0
-4.3055644967039961e-05 -0.09486425746346748 0
-5.14785201368778e-05 -0.11339850695538289 0
-5.9620550281944986e-05 -0.12987973356134938 0
-6.582135133433709e-05 -0.14814269979467434 0
-7.254824458771702e-05 -0.16903348311502656 0
-8.02208819455138e-05 -0.1939266568887125 0
-8.8233283039357082e-05 -0.22479710802663871 0
-9.7506400329328902e-05 -0.26456050641061296 0
-0.0001076591227618522 -0.31762122167059387 0
-0.00012194450281216984 -0.39184284239759082 0
-0.00013994898049040722 -0.50532342908443251 0
-0.00016754079984995749 -0.70456732528458998 0
-0.0002285339272205154 -1.1311519496832638 0
-0.00031626761317614773 -1.7446149738518646 0
-0.00025947910715442879 -1.9986299344511311 0
-9.0893169862859386e-05 -2.0369823116633223 0
-1.4762372545522267e-05 -2.0404017476259422 0
-1.6952430786789004e-06 -2.0385252636483853 0
-1.9500950435937705e-07 -2.0344869906662262 0
-2.2131342433893274e-08 -2.0281586890927548 0
-2.2077483099778283e-09 -2.0193262535385506 0
-1.8967399552515057e-10 -2.0080616950998671 0
-1.3055898205747221e-11 -1.9947731876083048 0
-6.0788803189287042e-13 -1.9809123228199625 0
-6.6947752515409305e-18 -1.8466455002984457 0
-1.7210831224780816e-05 -0.095410005426421543 0
-2.1710352081642057e-05 -0.11405001202332447 0
-2.4578968875732391e-05 -0.13065090236026655 0
-2.9553219257089413e-05 -0.14909573138475885 0
-3.4399534100237955e-05 -0.17025122763445377 0
-4.2560416035555736e-05 -0.19548733725071574 0
-4.6405823180556557e-05 -0.22680736331734672 0
-5.033487041484971e-05 -0.26714516492829488 0
-5.6684933672914219e-05 -0.3208982927581952 0
-6.2931250240240934e-05 -0.39575267606857828 0
-7.0592020532656471e-05 -0.50935516743226339 0
-7.9700804257741838e-05 -0.70582663222242514 0
-9.6511039834336145e-05 -1.1178384081595807 0
-0.00011184546462924084 -1.7237057872421393 0
-8.4742833589876877e-05 -1.9933591499008692 0
-3.679680839504351e-05 -2.0362798055744227 0
-8.8079125086677203e-06 -2.0402407368334239 0
-1.1513534885542081e-06 -2.0383904646246025 0
-1.4245583910100644e-07 -2.0342382441454143 0
-1.6530196954413841e-08 -2.0276734781167169 0
-1.7136110658503908e-09 -2.0187073522582737 0
-1.564275827130366e-10 -2.0074341958431763 0
-1.1224356345135438e-11 -1.9941877789093929 0
-5.4102635232408316e-13 -1.9803940178579311 0
-1.621193820944624e-17 -1.8488519696068495 0
-5.3373172592249912e-06 -0.095386671235856202 0
-6.4840303630283123e-06 -0.11406832408767863 0
-7.2492296066406085e-06 -0.13071010025585364 0
-8.6947880962479987e-06 -0.14920372580798696 0
-1.0335761907851787e-05 -0.17042536669552569 0
-8.3664739162869249e-06 -0.19574618235180991 0
-1.4019051075999298e-05 -0.22717947903029181 0
-1.424311287166668e-05 -0.26765925664707402 0
-1.5078620103090125e-05 -0.32158663066223481 0
-1.8630511116212779e-05 -0.39661042339847491 0
-2.0122268249573902e-05 -0.51027180129809246 0
-2.3569178340671069e-05 -0.7060197354198976 0
-2.891680695995692e-05 -1.113920213312471 0
-3.5758355761440244e-05 -1.7168426589970327 0
-2.6922200348288416e-05 -1.9912311669433556 0
-1.1889141200005009e-05 -2.0359153856164123 0
-3.2055971326271987e-06 -2.0401304314193256 0
-5.5143451407093496e-07 -2.0382766866323965 0
-7.8000491740062974e-08 -2.0340111779558629 0
-9.7199608580350954e-09 -2.0273345839650503 0
-1.0960274875758184e-09 -2.0182884903898244 0
-1.0470091309664902e-10 -2.0068965769961973 0
-7.854651005845353e-12 -1.9935920020525859 0
-3.9282480689670487e-13 -1.9797277252660113 0
-1.8736940519618496e-17 -1.8508099706753824 0
4.256457414497626e-07 -0.095326833259128413 0
1.141935189461041e-06 -0.11402177057021777 0
1.4746832730208343e-06 -0.13067571861397936 0
2.2939593572933087e-06 -0.14918433728796224 0
3.9306296803476988e-06 -0.17042627691915072 0
6.6831209873397564e-06 -0.19577286066702493 0
7.7055542311648462e-06 -0.22723461240523968 0
8.7137230081408731e-06 -0.26775650783882676 0
9.5321442646585379e-06 -0.32173028075283117 0
1.0507919219693724e-05 -0.39679411605756137 0
1.1250150084985236e-05 -0.5104503343131811 0
1.105355069540775e-05 -0.70594577498104838 0
9.1559500531772841e-06 -1.1125174962652113 0
9.5613261355508999e-06 -1.7144710416095892 0
-3.8236238511052213e-06 -1.9904355839778849 0
-3.1460023657625567e-06 -2.0357533467225948 0
-9.8231424077706558e-07 -2.0400629995411661 0
-1.9906464363560671e-07 -2.0381884892161657 0
-3.280960100968051e-08 -2.033843833467925 0
-4.5845016923961746e-09 -2.0271179699898543 0
-5.7127824196216478e-10 -2.0180169626155626 0
-5.7781047777858298e-11 -2.0065111509918694 0
-4.556614623018096e-12 -1.9931313612396144 0
-2.3782921073405124e-13 -1.9791879732702933 0
-1.406794124715519e-17 -1.8521358224415096 0
3.1928309952747763e-06 -0.09529267073789216 0
4.1904125283382781e-06 -0.11399115338955018 0
4.2548505765381234e-06 -0.13064833869430811 0
6.2881652277387156e-06 -0.14916030839372754 0
8.943136669944312e-06 -0.17040727650258017 0
8.4202158395959172e-06 -0.19576243227494342 0
8.7274327874869339e-06 -0.22723202507075579 0
9.0123710755212485e-06 -0.26776552662183639 0
1.0099008919170623e-05 -0.32175141023919174 0
1.101869150611952e-05 -0.39682255787396897 0
1.2747269052202914e-05 -0.51046836582272992 0
1.4855844525922201e-05 -0.70585973364408094 0
1.4999414215461232e-05 -1.1119754618043742 0
1.1782821937982457e-05 -1.7136114218045584 0
3.2154288551662699e-06 -1.9901439447778633 0
1.6406168146189577e-08 -2.0356857438231946 0
-1.6340559468972732e-07 -2.040024785108026 0
-5.1197697011266384e-08 -2.0381328990200496 0
-1.0426661770365336e-08 -2.0337457984733667 0
-1.681108634646001e-09 -2.0269831959695463 0
-2.3371384388770458e-10 -2.0178397362296181 0
-2.5657522041007659e-11 -2.0062684100749189 0
-2.1519741735591929e-12 -1.9928354875755836 0
-1.1810954237383364e-13 -1.9788424083460558 0
-7.7071302574318531e-18 -1.8528701268124284 0
4.3697721234404646e-06 -0.09527636402399306 0
5.9422230539618086e-06 -0.11397601400593751 0
6.9671674683336286e-06 -0.13063409503440523 0
8.256027366176103e-06 -0.14914798773278817 0
1.0100729026340377e-05 -0.17039644747509974 0
1.2941798502275388e-05 -0.19575184169920934 0
1.3900556296235477e-05 -0.2272250986567928 0
1.4538954009459701e-05 -0.267761477223878 0
1.4509856852741569e-05 -0.3217503113524679 0
1.6017518433107027e-05 -0.39682318159773605 0
1.7316386251423422e-05 -0.51046605007091761 0
1.8913099037392541e-05 -0.70582295206231782 0
2.0675685852965866e-05 -1.1117743632720196 0
2.4521806582569674e-05 -1.7133030687895268 0
7.8708491602607478e-06 -1.9900406859351771 0
1.3649971989139939e-06 -2.0356595012062444 0
8.4705013671067501e-08 -2.0400057560354843 0
-2.2105293866159787e-09 -2.0381035746112266 0
-1.8940035691052014e-09 -2.0336968064504588 0
-4.063618931728897e-10 -2.0269115096878063 0
-6.5148591054807705e-11 -2.0177419252009035 0
-7.8891497884400217e-12 -2.006139745248936 0
-7.1186355007777617e-13 -1.9926792846543397 0
-4.135288371254907e-14 -1.9786631981591611 0
-2.8071736123212457e-18 -1.8532043393786635 0
2.5782847056114073e-06 -0.095272051604519251 0
3.4493181510386374e-06 -0.11397194470501285 0
4.1286460242916282e-06 -0.13062940496452397 0
5.8447051522952166e-06 -0.14914273068186096 0
6.9789638609750529e-06 -0.17039393285284868 0
8.930463147902094e-06 -0.19574865943778269 0
1.1222104621950462e-05 -0.22722095187845279 0
1.1457501187939561e-05 -0.26775867290987199 0
1.0897034131195623e-05 -0.32174935363416485 0
1.1989488041599838e-05 -0.39682179569150366 0
1.2218253803484211e-05 -0.51046169669747343 0
1.218150990644626e-05 -0.70580950956749411 0
1.0269436283241887e-05 -1.1117128863148558 0
5.1608108889899531e-06 -1.7132282352257566 0
3.9270182648492912e-06 -1.9900120048490542 0
2.7628110777553111e-07 -2.0356535861741998 0
3.3624354167588226e-08 -2.0400003237991369 0
9.6279763102265755e-09 -2.0380945435307547 0
1.2720429396724085e-09 -2.0336820008073428 0
1.5956256026579039e-10 -2.0268893167363289 0
1.97449498875016e-11 -2.0177112657626024 0
2.0467753628579629e-12 -2.0061000958987329 0
1.646645660593858e-13 -1.9926314784876056 0
8.69944099684641e-15 -1.9786091168858684 0
6.1596293932087983e-19 -1.8532967588444711 0
4.0538363475096232e-06 -0.095275497732792216 0
4.8578607406651606e-06 -0.11397627287564113 0
5.0943694576958007e-06 -0.13063311743246292 0
5.4983512610631131e-06 -0.14914732273052828 0
6.7331562650625418e-06 -0.17039484307560457 0
6.5098147876583414e-06 -0.19575241769142157 0
8.1951267724246725e-06 -0.22722378196900928 0
8.3656180289801778e-06 -0.26776061529679057 0
8.702201125758164e-06 -0.32175113196590766 0
9.2829062726801094e-06 -0.39682303250154716 0
1.0242400874628478e-05 -0.51046519733472118 0
9.2392793333313043e-06 -0.70582163894589667 0
6.2805871182099944e-06 -1.1117624297525108 0
-1.6532776326214167e-06 -1.7132989941518737 0
-1.6476549259372568e-06 -1.9900357298339808 0
4.2999685377654104e-07 -2.0356594471297327 0
1.2292547974573597e-07 -2.0400058503746181 0
2.6708383507261112e-08 -2.0381035767003906 0
4.8954970660269997e-09 -2.0336968064385874 0
7.6767402859529663e-10 -2.0269115096912325 0
1.0782658402953572e-10 -2.0177419252025914 0
1.2122095337666447e-11 -2.0061397452493095 0
1.0405610788703833e-12 -1.9926792846543944 0
5.8270920573012215e-14 -1.978663198159166 0
3.9720134805414582e-18 -1.8532043393786635 0
2.0893561276450254e-06 -0.095291335844262415 0
3.6415200807524005e-06 -0.11399037239088992 0
2.6151746041801925e-06 -0.13064888168570071 0
3.0331392792794613e-06 -0.149161111690537 0
6.0257733987307423e-06 -0.1704057805602042 0
6.6717663839227797e-06 -0.19576049527061537 0
7.3230128475853224e-06 -0.22723337861365475 0
7.3131132430657681e-06 -0.26776800937260692 0
8.301357059419499e-06 -0.32175366562941338 0
9.2992747947149812e-06 -0.3968230293947681 0
1.024058582297862e-05 -0.51047036741379914 0
1.0147350049642076e-05 -0.70586550030577555 0
6.4529044173820744e-06 -1.111974141029421 0
-3.7719529189743371e-06 -1.7136013611228966 0
1.8218048726865077e-06 -1.9901459022974992 0
1.3002668982983778e-06 -2.035688958983052 0
3.8698556401254032e-07 -2.0400253672780995 0
7.9687882041990322e-08 -2.0381329692829606 0
1.3971203090221026e-08 -2.0337458060555256 0
2.0961538181612483e-09 -2.0269831967194274 0
2.7978200729780256e-10 -2.0178397363004215 0
2.9901241115803697e-11 -2.006268410080728 0
2.4593785213535834e-12 -1.992835487575995 0
1.3302904295122332e-13 -1.9788424083460767 0
8.651987394695134e-18 -1.8528701268124284 0
3.2899935060835812e-06 -0.095327055251371473 0
4.5820890748657817e-06 -0.11402253639856573 0
5.8312298826520561e-06 -0.13067547396590348 0
7.4123486896088109e-06 -0.1491823317224821 0
8.7186180910778418e-06 -0.17042439775743795 0
8.6869020283121206e-06 -0.19577177000766577 0
8.3753894850349903e-06 -0.22723260289480923 0
9.1141563817402424e-06 -0.26775380526798565 0
1.042672909226898e-05 -0.32172556758696774 0
1.2437113443096555e-05 -0.39678961904648352 0
1.4408262130073207e-05 -0.51044357115012373 0
1.5419542589656242e-05 -0.70593883475992703 0
1.0904324802227507e-05 -1.1125213922570394 0
1.208476265980054e-05 -1.7144701855030358 0
4.5848556550466831e-06 -1.9904437211263821 0
3.5764946465470188e-06 -2.0357592829134772 0
1.1243828498606796e-06 -2.0400641061239226 0
2.2056424767469651e-07 -2.0381886440371981 0
3.5763771467927693e-08 -2.033843851696254 0
4.939244878089845e-09 -2.0271179718926366 0
6.0979917248542465e-10 -2.0180169627992677 0
6.1169390268400338e-11 -2.0065111510068285 0
4.7878711005483675e-12 -1.9931313612406227 0
2.483369044348443e-13 -1.9791879732703419 0
1.4632940019543555e-17 -1.8521358224415096 0
7.3376729154058967e-06 -0.095387193509495441 0
9.926482445565222e-06 -0.11406805005215909 0
1.1505294641178921e-05 -0.13070722329797413 0
1.2137198753866927e-05 -0.14920133116420825 0
1.6866062255707778e-05 -0.170423373154312 0
1.7994586119845035e-05 -0.19574568863164687 0
1.9994038418615462e-05 -0.22717539912562018 0
2.2668216805667478e-05 -0.26765727635074826 0
2.5433939725742234e-05 -0.3215852988281781 0
2.9688751441695216e-05 -0.39660856551372548 0
3.3395141145474697e-05 -0.51026739265808041 0
3.8576890749144107e-05 -0.70601699553710884 0
4.2589557751254973e-05 -1.1139127814373884 0
4.0366055016757954e-05 -1.716830697261128 0
2.7895137978694781e-05 -1.9912367040467276 0
1.2216398473572646e-05 -2.0359210948159827 0
3.252646747233778e-06 -2.0401316693521729 0
5.5807186433235975e-07 -2.0382768729445297 0
7.9050889178429335e-08 -2.0340112016846739 0
9.8642542772921136e-09 -2.0273345865960226 0
1.1126416191325677e-09 -2.0182884906520346 0
1.0616670544783805e-10 -2.0068965770183134 0
7.9498992045403886e-12 -1.9935920020540965 0
3.9670686825102192e-13 -1.9797277252660823 0
1.8868834115797494e-17 -1.8508099706753829 0
1.7922399440471925e-05 -0.095406679333307418 0
2.2232697569507322e-05 -0.11404683199147393 0
2.5325051345908254e-05 -0.13064843622507458 0
2.9146116381992058e-05 -0.14909235009823907 0
3.336064495407469e-05 -0.17024918232545067 0
3.7089161117970308e-05 -0.19548596792263934 0
4.1882101655974813e-05 -0.22680679307882967 0
4.9194714271217385e-05 -0.26714489499873556 0
5.6203424372634266e-05 -0.3208983254650562 0
6.532017630966319e-05 -0.39575191101835022 0
7.5868586943728198e-05 -0.50935386855417597 0
9.0735022919126481e-05 -0.70582630737807739 0
0.0001089968802524681 -1.1178326448595841 0
0.0001138130466491054 -1.7236866175241352 0
8.2815945656076882e-05 -1.9933625441329854 0
3.599150346318175e-05 -2.0362848698005553 0
8.6982159188644957e-06 -2.040241875936633 0
1.1359634183328925e-06 -2.0383906364780406 0
1.4080910094642911e-07 -2.0342382666765411 0
1.6377436053756518e-08 -2.0276734807450443 0
1.7014091771577047e-09 -2.0187073525266248 0
1.555203044592402e-10 -2.0074341958669017 0
1.116395305868738e-11 -1.9941877789110551 0
5.3789549695562647e-13 -1.9803940178580093 0
1.6087573126478922e-17 -1.8488519696068499 0
4.4243603772523795e-05 -0.094861565572296608 0
5.2939861207447941e-05 -0.11339687111350796 0
6.0229005899784983e-05 -0.12987793764921829 0
6.7455520283765368e-05 -0.14813992819010569 0
7.3637882451830467e-05 -0.16903224655860216 0
8.1604983659829561e-05 -0.19392576644233386 0
8.9495159860600624e-05 -0.22479961871716375 0
9.7111783689972264e-05 -0.26456400628907856 0
0.00010913626194945626 -0.31762408381170287 0
0.00012284398178206461 -0.39184212580433975 0
0.00014225325655296432 -0.50531955185770994 0
0.0001721703005497897 -0.704556948320195 0
0.00023459418532163705 -1.1311406908207073 0
0.00031403806483899029 -1.744607298387173 0
0.00025276220099034429 -1.9986365381801228 0
8.9023258167070409e-05 -2.0369861819216091 0
1.4471509458248512e-05 -2.0404026073642387 0
1.6602807835193484e-06 -2.0385253914017278 0
1.9115419540211575e-07 -2.0344870078142936 0
2.1733581325413588e-08 -2.0281586912396552 0
2.1725428785995919e-09 -2.0193262537669421 0
1.8698017172533794e-10 -2.0080616951203916 0
1.2884022670825024e-11 -1.9947731876097705 0
6.0002983600530203e-13 -1.9809123228200334 0
6.5984117245227082e-18 -1.8466455002984461 0
7.7231599207264298e-05 -0.089965335162900603 0
9.0570565976212411e-05 -0.10777148523527948 0
0.00010137218974370206 -0.12334242504154908 0
0.00011219845194049596 -0.1408390086896853 0
0.00012266437345911365 -0.1610314578877709 0
0.00013232958978632323 -0.18517758083843891 0
0.00014215435769961995 -0.21507135056744675 0
0.00015340061214741906 -0.25359079536187645 0
0.00016750688448530376 -0.3051882565639164 0
0.00018565873947611782 -0.37805886320054277 0
0.00021057653678208929 -0.49160161378953326 0
0.00025161264293012533 -0.7044092169824212 0
0.00033881350581184085 -1.1888680684885147 0
0.00039365364841634177 -1.801036786586405 0
0.00027434712046455877 -2.0093753407697355 0
8.9523260747193195e-05 -2.0382247905035662 0
1.3443499929182382e-05 -2.0406418565323605 0
1.6214998775219448e-06 -2.038746470205981 0
1.8591359614196846e-07 -2.0348270820434364 0
2.0183807224505846e-08 -2.0286592433014108 0
1.9606491293029786e-09 -2.0199132641323305 0
1.6328292199108834e-10 -2.0085551221810571 0
1.0921413751747139e-11 -1.9950318512624587 0
4.9199949351473056e-13 -1.9807388132346861 0
1.0496242626913307e-18 -1.8450720381130854 0
-0 -0 0
-0 -0 0
-0 -0 0
-0 -0 0
-0 -0 0
-0 -0 0
1.1841691212104281e-06 0.001325834280848699 0
9.4850585377586344e-05 0.1101783910658357 0
0.00012119360740521462 0.16222462291052067 0
-0 -0 0
-0 -0 0
-0 -0 0
8.4501502348379768e-05 0.095586685409104172 0
9.830285085524563e-05 0.12140230643149137 0
0.00012097278161501233 0.17427412651341351 0
-0 -0 0
-0 -0 0
-0 -0 0
6.2407409494399246e-05 0.098959579592359584 0
7.6378476848785982e-05 0.12398161352425524 0
9.6467893277615109e-05 0.17717869179949375 0
-0 -0 0
-0 -0 0
-0 -0 0
3.2169879725660635e-05 0.10147728711446326 0
4.0795167926672518e-05 0.12603114813074492 0
5.4650291604995271e-05 0.17937062210523463 0
-0 -0 0
-0 -0 0
-0 -0 0
1.2047346903364426e-05 0.10172375156023124 0
1.6370787259280587e-05 0.12638519943231058 0
2.3094852206407415e-05 0.17980080216125674 0
-0 -0 0
-0 -0 0
-0 -0 0
2.3261856363410183e-06 0.1016617038283415 0
2.8936549816356897e-06 0.12633917740119063 0
3.3980077793506211e-06 0.17970968799883133 0
-0 -0 0
-0 -0 0
-0 -0 0
-2.0415184542879828e-06 0.10160366278105369 0
-3.1698339983046163e-06 0.12627767188454622 0
-5.2645095890721029e-06 0.17961913576933525 0
-0 -0 0
-0 -0 0
-0 -0 0
-3.968690587502784e-06 0.10157388918040271 0
-5.3929052129957443e-06 0.12624388478645282 0
-7.8619617761762512e-06 0.17957058162955006 0
-0 -0 0
-0 -0 0
-0 -0 0
-3.7246468638232963e-06 0.10156207990984303 0
-5.2073198063470287e-06 0.12623031283283068 0
-7.8313986764605885e-06 0.17955134159473632 0
-0 -0 0
-0 -0 0
-0 -0 0
-3.590749474230555e-06 0.1015613812713738 0
-4.5268366637902048e-06 0.12622968869987414 0
-6.3179844427219774e-06 0.17955078591245283 0
-0 -0 0
-0 -0 0
-0 -0 0
-3.4156160008661272e-06 0.10157258304379096 0
-4.0946433586539862e-06 0.1262428979349868 0
-5.4458567221516326e-06 0.17956969386398619 0
-0 -0 0
-0 -0 0
-0 -0 0
-2.9515244153710256e-06 0.10160298008258746 0
-4.281938937934388e-06 0.12627688535117276 0
-6.1047400880089429e-06 0.17961770906929714 0
-0 -0 0
-0 -0 0
-0 -0 0
-5.6938826441921782e-06 0.10166193979446117 0
-8.0229539631518527e-06 0.12633830780013261 0
-1.141442240720669e-05 0.17970769650843124 0
-0 -0 0
-0 -0 0
-0 -0 0
-1.3737453313999936e-05 0.10172278494476117 0
-1.8313632558548489e-05 0.12638344326657938 0
-2.5625529442383587e-05 0.17979833881574786 0
-0 -0 0
-0 -0 0
-0 -0 0
-3.3383867226516194e-05 0.10147487748724586 0
-4.1460749612246387e-05 0.12602873953421795 0
-5.4726760209042463e-05 0.17936808601175808 0
-0 -0 0
-0 -0 0
-0 -0 0
-6.1841980135550758e-05 0.098956663817606566 0
-7.5159450812607178e-05 0.12397919424420815 0
-9.4538575541428259e-05 0.17717691991935658 0
-0 -0 0
-0 -0 0
-0 -0 0
-8.1229203506506844e-05 0.095583040263319624 0
-9.4826198591848007e-05 0.12139944622385497 0
-0.00011674133829516305 0.17427168868052673 0
-0 -0 0
-0 -0 0
-0 -0 0
-1.1366861654336169e-06 0.0013243217092148481 0
-9.1248749980958011e-05 0.11017482637742444 0
-0.00011672865181819929 0.16222112514278769 0
-0 -0 0
-0 -0 0
-0 -0 0
-0 -0 0
-0 -0 0
-0 -0 0
-0 -0 0
-0 -0 0
-0 -0 0
-0 -0 0
-0 -0 0
-0 -0 0
-0 -0 0
-0 -0 0
-0 -0 0
-0 -0 0
-0 -0 0
-0 -0 0
-0 -0 0
-0 -0 0
-0 -0 0
-0 -0 0
-0 -0 0
-0 -0 0
-0 -0 0
-0 -0 0
-0 -0 0
-0 -0 0
-0 -0 0
-0 -0 0
-0 -0 0
-0 -0 0
-0 -0 0
-0 -0 0
-0 -0 0
-0 -0 0
-0 -0 0
-0 -0 0
-0 -0 0
-0 -0 0
-0 -0 0
-0 -0 0
-0 -0 0
-0 -0 0
-0 -0 0
-0 -0 0
-0 -0 0
-0 -0 0
-0 -0 0
-0 -0 0
-0 -0 0
-0 -0 0
-0 -0 0
-0 -0 0
-0 -0 0
-0 -0 0
-0 -0 0
-0 -0 0
-0 -0 0
-0 -0 0
-0 -0 0
-0 -0 0
-0 -0 0
-0 -0 0
-0 -0 0
-0 -0 0
-0 -0 0
-0 -0 0
-0 -0 0
-0 -0 0
-0 -0 0
-0 -0 0
-0 -0 0
-0 -0 0
-0 -0 0
-0 -0 0
-0 -0 0
-0 -0 0
-0 -0 0
-0 -0 0
-0 -0 0
-0 -0 0
-0 -0 0
-0 -0 0
-0 -0 0
-0 -0 0
-0 -0 0
-0 -0 0
-0 -0 0
-0 -0 0
-0 -0 0
-0 -0 0
-0 -0 0
-0 -0 0
-0 -0 0
-0 -0 0
-0 -0 0
-0 -0 0
-0 -0 0
-0 -0 0
-0 -0 0
-0 -0 0
-0 -0 0
-0 -0 0
-0 -0 0
-0 -0 0
-0 -0 0
-0 -0 0
-0 -0 0
-0 -0 0
-0 -0 0
-0 -0 0
-0 -0 0
-0 -0 0
-0 -0 0
-0 -0 0
-0 -0 0
-0 -0 0
-0 -0 0
-0 -0 0
-0 -0 0
-0 -0 0
-0 -0 0
-0 -0 0
-0 -0 0
-0 -0 0
-0 -0 0
-0 -0 0
-0 -0 0
-0 -0 0
-0 -0 0
-0 -0 0
-0 -0 0
-0 -0 0
-0 -0 0
-0 -0 0
-0 -0 0
-0 -0 0
-0 -0 0
-0 -0 0
-0 -0 0
-0 -0 0
-0 -0 0
-0 -0 0
-0 -0 0
-0 -0 0
-0 -0 0
-0 -0 0
-0 -0 0
-0 -0 0
-0 -0 0
-0 -0 0
-0 -0 0
-0 -0 0
-0 -0 0
-0 -0 0
-0 -0 0
-0 -0 0
-0 -0 0
-0 -0 0
-0 -0 0
-0 -0 0
-0 -0 0
-0 -0 0
-0 -0 0
-0 -0 0
-0 -0 0
-0 -0 0
-0 -0 0
-0 -0 0
-0 -0 0
-0 -0 0
-0 -0 0
-0 -0 0
-0 -0 0
-0 -0 0
-0 -0 0
-0 -0 0
-0 -0 0
-0 -0 0
-0 -0 0
-0 -0 0
-0 -0 0
-0 -0 0
-0 -0 0
-0 -0 0
-0 -0 0
-0 -0 0
-0 -0 0
-0 -0 0
-0 -0 0
-0 -0 0
-0 -0 0
-0 -0 0
-0 -0 0
