# vtk DataFile Version 3.0
SPH particles (WCSPH) - legacy PolyData
ASCII
DATASET POLYDATA
POINTS 681 float
0.049990663412699601 0.018447550141456118 0
0.049989645478064296 0.020578738751199737 0
0.049988824587149171 0.022297995651721188 0
0.049988016264427559 0.023994633101922565 0
0.049987290500057686 0.025643900778057921 0
0.049986649986655911 0.027244577545752189 0
0.049986061984830313 0.02880277920219464 0
0.049985487125933731 0.030326885192732096 0
0.049984866933183256 0.031826205961066459 0
0.049984107464427004 0.033308760991765676 0
0.04998275957604028 0.034783102777575757 0
0.049980966509640345 0.03625756051232288 0
0.049980268368534864 0.037740354732089344 0
0.049981019356868946 0.039239953134990173 0
0.049982506938631759 0.040765680461272776 0
0.049984265125846049 0.042327716474483766 0
0.049986084370177986 0.043938878794505802 0
0.049987797399698823 0.045614636543671594 0
0.049989394670688955 0.047376021621455384 0
0.049990818142722188 0.049238283212672054 0
0.049992018641225898 0.051243432127558004 0
0.049992996052748401 0.053443275343726102 0
0.049993781059461687 0.055920163165215919 0
0.049994411856753899 0.058828088762056939 0
0.049995215550957858 0.06258234635742374 0
0.069995099196504609 0.01723360721706579 0
0.069994507633949724 0.019585748145769709 0
0.06999406728482932 0.021495680136399926 0
0.06999367107115799 0.023344082232991614 0
0.069993300209193698 0.025117606012593337 0
0.069992929885184699 0.026823222990891953 0
0.069992562285651469 0.028472854746841081 0
0.069992189573283042 0.030078875066595179 0
0.069991795976253934 0.031653503170682551 0
0.069991332779234791 0.033206710368301195 0
0.06999042402342695 0.03474859464784244 0
0.069988576041843567 0.036288854679333855 0
0.069987485853643838 0.037836557904807791 0
0.069987677307896221 0.039400895012219009 0
0.069988583524924999 0.040992287682081317 0
0.069989726414845868 0.042621917053127602 0
0.069990953117419152 0.04430435826852832 0
0.069992160017011418 0.046055967868059142 0
0.069993290208444581 0.047896819096255101 0
0.069994272463848581 0.049851798384934899 0
0.069995086049164809 0.05196207314863218 0
0.069995736095936262 0.054284371544155191 0
0.069996228886703191 0.056914072574992508 0
0.06999661662289712 0.060030935229145592 0
0.069997117323870275 0.064129868212865551 0
0.08999825831666533 0.017181287636525846 0
0.089998038958874482 0.019535216229858491 0
0.089997877726188669 0.021448618659725652 0
0.089997722664142077 0.023302758466867683 0
0.089997564103422037 0.025083456141724612 0
0.089997398035077086 0.026797163870319846 0
0.089997223978731777 0.028455742639315999 0
0.089997047568716737 0.030071328575496215 0
0.089996848684280553 0.031655673540323788 0
0.089996625553234441 0.033219299347664467 0
0.089996356992505785 0.034772129355160115 0
0.089995977751038556 0.036324007135467164 0
0.089995609850047134 0.037883857554110278 0
0.089995561439709063 0.039460950651021807 0
0.089995802404958511 0.041065667416141656 0
0.089996133223154487 0.042709443022804119 0
0.089996521186668219 0.044406712164060697 0
0.089996915927171711 0.046173090743216329 0
0.089997291220553957 0.048029339790160649 0
0.089997605466667227 0.050003068589403836 0
0.08999786378414773 0.052133199837239387 0
0.089998059236312045 0.054477155802240058 0
0.089998230972396592 0.057130486407702866 0
0.089998370433073779 0.060272744389730834 0
0.089998592062763491 0.064404500182023899 0
0.10999937771204235 0.017189528517177435 0
0.10999929364072088 0.019544431137371299 0
0.10999922503613564 0.021458711888986539 0
0.10999915696921157 0.023313837890000279 0
0.10999908789187762 0.025095625122061638 0
0.10999903266413327 0.026810537836310291 0
0.10999897036753103 0.028470455166540683 0
0.10999889052022392 0.030087495799421635 0
0.10999880170921161 0.031673279621148201 0
0.10999870419567662 0.033238466241945486 0
0.10999860839617008 0.034792952923195057 0
0.10999848299795231 0.036346726405673685 0
0.10999838426112697 0.037908537248986435 0
0.1099983768934969 0.039487764465683785 0
0.10999841970312065 0.041094785768662469 0
0.10999852061968335 0.042741325854517113 0
0.10999864699574358 0.044441243691697628 0
0.10999878710017863 0.046210252900522095 0
0.10999892494814606 0.048069376193721675 0
0.1099990337429778 0.050046248496834839 0
0.10999911708801642 0.052179885892006332 0
0.1099991814558938 0.054527787035974953 0
0.10999924093951823 0.05718554413235076 0
0.10999929508340524 0.060332777829623478 0
0.10999938981963972 0.064471416149092201 0
0.12999974814964327 0.01719525542463296 0
0.1299997149472974 0.019550749795186489 0
0.12999969184774585 0.021465473281220192 0
0.12999967040566229 0.023320998601343752 0
0.12999965823939574 0.025103185501608678 0
0.12999962988085151 0.026818456256352572 0
0.12999960697289742 0.028478698504674264 0
0.12999957263617437 0.030096078122511461 0
0.12999954046668194 0.031682200596219671 0
0.1299995010165601 0.033247731172035229 0
0.12999944358168353 0.034802616370778292 0
0.1299993768809653 0.036356527191268188 0
0.12999936537467274 0.037918528475162923 0
0.12999936357399863 0.0394979136851141 0
0.12999934107950045 0.041105137612652241 0
0.12999938693774196 0.042752460258443335 0
0.12999944120171433 0.044454076444595605 0
0.12999949751860915 0.046224173844549764 0
0.12999954353324661 0.048084029983910842 0
0.12999957896169254 0.050060990026348604 0
0.1299996098743823 0.052195397410429036 0
0.12999963507300172 0.054544201543606965 0
0.12999965665615398 0.057202977744180421 0
0.12999967885899805 0.060351347402914028 0
0.1299997197007734 0.064491706991628706 0
0.14999989684347931 0.017197682250940548 0
0.14999988609276071 0.019553492012795333 0
0.14999987749229707 0.021468518214916993 0
0.14999986967404522 0.023324166946655126 0
0.14999985946098726 0.025106484766802366 0
0.14999985061088103 0.026821956002538064 0
0.14999984784763065 0.028482313157149913 0
0.14999984090072502 0.030099848846157108 0
0.14999982848188209 0.031686133561185714 0
0.14999980440106547 0.033251823029990392 0
0.14999977962776043 0.034806996345457177 0
0.14999975734713472 0.036361133347832544 0
0.14999973558917584 0.037923414555949463 0
0.14999971619325633 0.039503373522063748 0
0.1499997152892725 0.041111065304783784 0
0.14999973499236699 0.042758483532171147 0
0.14999976545351387 0.044459195478367186 0
0.14999979925762696 0.046228813273782775 0
0.14999979285710976 0.048088759310745605 0
0.14999979076793041 0.050066521607606822 0
0.14999980143851685 0.052201173408768266 0
0.14999981724677841 0.054550291689014714 0
0.14999982850339885 0.057209525064627918 0
0.14999983483547022 0.060358393350551598 0
0.14999985266576221 0.064498941103651702 0
0.16999994399374729 0.017197962175357146 0
0.16999993734863691 0.019554145711965537 0
0.1699999316104196 0.021469624951189179 0
0.16999992546910381 0.023325194824781306 0
0.16999991710285084 0.025107532173563121 0
0.16999990830583256 0.02682309021859694 0
0.16999989630316706 0.028483508085805867 0
0.16999989073556529 0.030101061648367015 0
0.16999988046836012 0.03168729468999229 0
0.1699998668915734 0.033252781724344031 0
0.16999984391743295 0.034808108477530249 0
0.16999980862195443 0.036362152503949863 0
0.16999978667707552 0.037924163587525636 0
0.16999975709087214 0.03950465450730388 0
0.16999976901667563 0.041112534162228133 0
0.16999982075624614 0.042760333642918806 0
0.16999984261550258 0.044461184488682304 0
0.16999984339707319 0.046230200209254252 0
0.16999982120383131 0.048090145035508271 0
0.16999983976022176 0.050068132445593383 0
0.16999986354918556 0.052202872138571617 0
0.16999987946027495 0.054552155220733568 0
0.16999988130305915 0.057211714708666435 0
0.16999988801002572 0.060361830483906545 0
0.16999990419131078 0.064501249695594079 0
0.18999995681318163 0.017198496605436556 0
0.18999995237013326 0.019554197924230299 0
0.18999995192926394 0.021469268888636116 0
0.18999994793814784 0.023325189222464859 0
0.18999994199486653 0.025107870012058692 0
0.18999993126027898 0.026823290036279993 0
0.18999992800012871 0.028483690282298742 0
0.18999991377066347 0.030101306148474182 0
0.18999990021111493 0.031687472597532025 0
0.18999989163727585 0.033252882626423855 0
0.18999988675687646 0.034808536135491293 0
0.18999989877832479 0.036362786325173473 0
0.18999991396900576 0.037925084426302678 0
0.18999990929228991 0.039505458528269845 0
0.18999991593709023 0.041113317689691849 0
0.18999991450445389 0.042760721317911518 0
0.18999990239465522 0.044461118695959312 0
0.18999987946445504 0.04623063127715437 0
0.18999985200420427 0.048090564677290823 0
0.18999990616846113 0.050068465815382796 0
0.18999991369156705 0.052202928412600109 0
0.18999992900542076 0.054551486671873275 0
0.18999993730072912 0.057209540125220316 0
0.18999994492053221 0.060360571234300449 0
0.18999995617803217 0.064501166819882536 0
0.20999999128297459 0.017198479701161319 0
0.20999998991896474 0.019554219422911429 0
0.20999998678099757 0.021469068903143391 0
0.20999998373312737 0.023324600778964193 0
0.20999998048293661 0.02510725027241854 0
0.20999997211823854 0.02682267570056807 0
0.20999997123236949 0.028483164485867223 0
0.20999997027682477 0.030100964348412994 0
0.20999996986949429 0.031687269104324747 0
0.20999995551317102 0.033252782598250624 0
0.20999994959870805 0.03480768950721623 0
0.20999994593575178 0.036361864685228749 0
0.20999995551577549 0.037924891697522271 0
0.20999994351151122 0.039505191312109528 0
0.20999994558301666 0.04111294249670365 0
0.20999995538820077 0.042760189639978623 0
0.20999995549849679 0.044460427396591951 0
0.2099999572373934 0.046230073316411949 0
0.20999998280709029 0.048089987591142191 0
0.20999998042530812 0.050067854851220561 0
0.20999997616637961 0.05220227176869071 0
0.20999996906524587 0.054550753375951895 0
0.20999997495411479 0.057208608895990255 0
0.20999998178450602 0.060359412678063204 0
0.2099999894274075 0.064500299611905662 0
0.2300000632448812 0.017197430728819449 0
0.23000006796901681 0.019553080965708222 0
0.23000007653113586 0.021467886899214729 0
0.23000007792152233 0.023323369465296361 0
0.23000007434475866 0.025105593442064911 0
0.23000008073021525 0.026821262162837457 0
0.23000009335470914 0.02848209781711036 0
0.23000010344062097 0.030099446938849212 0
0.23000011015802371 0.031685592580759821 0
0.23000011259175834 0.033251056552149362 0
0.23000011474325519 0.034805660865452406 0
0.230000127026499 0.036360091828719597 0
0.23000018933237529 0.037923245733056839 0
0.23000014037640759 0.039503283827115522 0
0.23000011873696335 0.041110920520119977 0
0.23000014732448523 0.042758038213129325 0
0.23000015169645749 0.044458135530560737 0
0.23000015603846938 0.046227915694802169 0
0.23000019176766254 0.048087828671531385 0
0.23000014755774617 0.050065511392128795 0
0.23000013029553543 0.052199931195710543 0
0.23000010940208046 0.054548782588069743 0
0.23000010078888766 0.057208439530644327 0
0.23000009593797213 0.060357048470644291 0
0.23000008738389158 0.064497737696367297 0
0.2500001846133465 0.017194884842607151 0
0.25000020617073582 0.019550248540101779 0
0.25000022759501922 0.021464954248724809 0
0.25000024748581884 0.023320375634598409 0
0.25000026206795106 0.025102431174493164 0
0.25000027680682463 0.026817918258841771 0
0.25000030123261285 0.028478182244803647 0
0.25000032205618178 0.030095634890206172 0
0.25000034148780603 0.031681754981973995 0
0.25000037173953038 0.033247248499166361 0
0.25000041793196187 0.034802118255905949 0
0.25000050409504215 0.036356120219040465 0
0.25000053825000884 0.037918361854801602 0
0.25000058571683564 0.039498173528752054 0
0.25000058571810158 0.041105539491990174 0
0.25000053960097224 0.04275217887677444 0
0.25000050387741135 0.044451829249614279 0
0.25000045448025726 0.046221981094705086 0
0.25000041685613306 0.048081806025242091 0
0.25000038273055225 0.050058544303684442 0
0.25000035212272748 0.052192261143118077 0
0.25000032302795511 0.054540801709707522 0
0.25000029750434444 0.057203732871419194 0
0.25000027551293835 0.060350436770606843 0
0.25000023851021097 0.064490271927071144 0
0.27000052739940078 0.017189085986635658 0
0.27000060108672697 0.019543822454756877 0
0.27000065584452815 0.02145795839300103 0
0.2700007097986481 0.023313077286248218 0
0.27000075979985261 0.025095146484793648 0
0.2700008161042482 0.026810285168992344 0
0.27000087272878387 0.028469410420104743 0
0.27000093060397262 0.030087010273279181 0
0.27000100572287478 0.031672916496606626 0
0.27000109903806052 0.033237974336537253 0
0.27000120827292184 0.034792588915492938 0
0.27000131432350843 0.036346184601293838 0
0.27000147357368526 0.037907929662574176 0
0.27000159646054417 0.039487359319932989 0
0.27000155588395419 0.041094415826269486 0
0.27000141612914424 0.042740797041707704 0
0.27000127725354739 0.044440107128426977 0
0.2700011524520658 0.046209041249995593 0
0.27000103000407516 0.048068017530638302 0
0.27000092682596938 0.050044538055250103 0
0.27000083973929895 0.052177541978115825 0
0.27000076238250525 0.05452486103269074 0
0.27000069434704027 0.057184921178061343 0
0.27000064150121877 0.06033196060906279 0
0.27000055987534427 0.064470195040289668 0
0.29000166149379603 0.017181101161548147 0
0.29000187690496343 0.019534947391097741 0
0.29000203701159677 0.021448349312636297 0
0.29000219144932576 0.023302493887101018 0
0.29000234995470753 0.025083237051137037 0
0.29000250931949817 0.026796828632568138 0
0.29000267806036406 0.028454786008769779 0
0.29000286864801078 0.030071177415812087 0
0.29000308955817594 0.031655644892030571 0
0.29000333718518417 0.033219093320773441 0
0.29000363737577828 0.034771974850213203 0
0.29000403221115245 0.036323705514512292 0
0.29000441205311395 0.037883469890687423 0
0.29000446045395134 0.039460726340209307 0
0.29000423161250716 0.041065581712516619 0
0.29000387019315438 0.042709690142539086 0
0.29000346309513958 0.044406602008794586 0
0.29000305572544549 0.046172757326647884 0
0.29000267959232806 0.048029073838610895 0
0.29000235454435036 0.0500029438093769 0
0.29000208141095651 0.052132855176457334 0
0.29000186256652732 0.054476527607428445 0
0.29000168750394978 0.057130163584187842 0
0.29000154619902596 0.060272466706367107 0
0.2900013343448159 0.064404128323124282 0
0.31000496045665743 0.017233648389391388 0
0.31000555388392093 0.019585789305617222 0
0.31000599751947722 0.021495727557580824 0
0.31000640173659666 0.023344129499560742 0
0.31000678008350124 0.025117581070018016 0
0.31000716117820587 0.026822946332772546 0
0.31000754136571085 0.028472393187553131 0
0.3100079300390699 0.030079246133166627 0
0.31000835413000338 0.031653734888919843 0
0.31000886670022015 0.03320679294040909 0
0.31000982148524286 0.034748751306116113 0
0.31001165996390212 0.036289037505979269 0
0.31001269754657923 0.03783675295441033 0
0.31001246525817944 0.039401415900531402 0
0.31001154649673013 0.040993053820069819 0
0.31001040201725893 0.042623259521948127 0
0.31000916077940177 0.044305518478283089 0
0.31000792117122944 0.046056134569558066 0
0.31000676742003269 0.047896333127270013 0
0.31000576049865025 0.049852827748495268 0
0.31000492330442825 0.051963117978411688 0
0.3100042559541531 0.054284766558717411 0
0.31000375141362574 0.056914467629144545 0
0.3100033399635479 0.060031296118873652 0
0.31000282203810486 0.064130118227560443 0
0.33000917812225161 0.018447822643918192 0
0.33001015880725815 0.020579024865270329 0
0.33001095321147367 0.022298244791941136 0
0.33001172114408434 0.023994777935726394 0
0.33001240990169128 0.025643758668503495 0
0.33001300636384445 0.027243972630427164 0
0.3300135480402544 0.028802669067660241 0
0.33001409377142032 0.030327610669152769 0
0.33001464121459334 0.031826566530306515 0
0.33001527154706911 0.033309024786467134 0
0.33001649118041693 0.034783437370228015 0
0.33001826453636579 0.036257980286243219 0
0.33001896032849165 0.037740886735775254 0
0.33001818977854097 0.03924071685642247 0
0.33001673796010961 0.040766635400352927 0
0.33001503674437976 0.042329118160391907 0
0.33001328701407456 0.043940471303455901 0
0.33001159875295061 0.045615350289008934 0
0.33001004835907038 0.047374522468948209 0
0.33000869419983986 0.049238687721254379 0
0.33000756299484157 0.051243974931807802 0
0.33000665907628091 0.053443651458729355 0
0.33000594868626154 0.055920525860109163 0
0.33000538996796541 0.058828375417747318 0
0.33000464776621091 0.062582187727372326 0
0 0 0
0 0.020000000000000004 0
0 0.040000000000000001 0
0 0.54999999999999993 0
0 0.56000000000000005 0
0 0.58000000000000007 0
0.02 0 0
0.02 0.020000000000000004 0
0.02 0.040000000000000001 0
0.02 0.54999999999999993 0
0.02 0.56000000000000005 0
0.02 0.58000000000000007 0
0.040000000000000001 0 0
0.040000000000000001 0.020000000000000004 0
0.040000000000000001 0.040000000000000001 0
0.040000000000000001 0.54999999999999993 0
0.040000000000000001 0.56000000000000005 0
0.040000000000000001 0.58000000000000007 0
0.059999999999999998 0 0
0.059999999999999998 0.020000000000000004 0
0.059999999999999998 0.040000000000000001 0
0.059999999999999998 0.54999999999999993 0
0.059999999999999998 0.56000000000000005 0
0.059999999999999998 0.58000000000000007 0
0.080000000000000002 0 0
0.080000000000000002 0.020000000000000004 0
0.080000000000000002 0.040000000000000001 0
0.080000000000000002 0.54999999999999993 0
0.080000000000000002 0.56000000000000005 0
0.080000000000000002 0.58000000000000007 0
0.10000000000000001 0 0
0.10000000000000001 0.020000000000000004 0
0.10000000000000001 0.040000000000000001 0
0.10000000000000001 0.54999999999999993 0
0.10000000000000001 0.56000000000000005 0
0.10000000000000001 0.58000000000000007 0
0.12 0 0
0.12 0.020000000000000004 0
0.12 0.040000000000000001 0
0.12 0.54999999999999993 0
0.12 0.56000000000000005 0
0.12 0.58000000000000007 0
0.14000000000000001 0 0
0.14000000000000001 0.020000000000000004 0
0.14000000000000001 0.040000000000000001 0
0.14000000000000001 0.54999999999999993 0
0.14000000000000001 0.56000000000000005 0
0.14000000000000001 0.58000000000000007 0
0.16 0 0
0.16 0.020000000000000004 0
0.16 0.040000000000000001 0
0.16 0.54999999999999993 0
0.16 0.56000000000000005 0
0.16 0.58000000000000007 0
0.17999999999999999 0 0
0.17999999999999999 0.020000000000000004 0
0.17999999999999999 0.040000000000000001 0
0.17999999999999999 0.54999999999999993 0
0.17999999999999999 0.56000000000000005 0
0.17999999999999999 0.58000000000000007 0
0.20000000000000001 0 0
0.20000000000000001 0.020000000000000004 0
0.20000000000000001 0.040000000000000001 0
0.20000000000000001 0.54999999999999993 0
0.20000000000000001 0.56000000000000005 0
0.20000000000000001 0.58000000000000007 0
0.22 0 0
0.22 0.020000000000000004 0
0.22 0.040000000000000001 0
0.22 0.54999999999999993 0
0.22 0.56000000000000005 0
0.22 0.58000000000000007 0
0.23999999999999999 0 0
0.23999999999999999 0.020000000000000004 0
0.23999999999999999 0.040000000000000001 0
0.23999999999999999 0.54999999999999993 0
0.23999999999999999 0.56000000000000005 0
0.23999999999999999 0.58000000000000007 0
0.26000000000000001 0 0
0.26000000000000001 0.020000000000000004 0
0.26000000000000001 0.040000000000000001 0
0.26000000000000001 0.54999999999999993 0
0.26000000000000001 0.56000000000000005 0
0.26000000000000001 0.58000000000000007 0
0.28000000000000003 0 0
0.28000000000000003 0.020000000000000004 0
0.28000000000000003 0.040000000000000001 0
0.28000000000000003 0.54999999999999993 0
0.28000000000000003 0.56000000000000005 0
0.28000000000000003 0.58000000000000007 0
0.29999999999999999 0 0
0.29999999999999999 0.020000000000000004 0
0.29999999999999999 0.040000000000000001 0
0.29999999999999999 0.54999999999999993 0
0.29999999999999999 0.56000000000000005 0
0.29999999999999999 0.58000000000000007 0
0.32000000000000001 0 0
0.32000000000000001 0.020000000000000004 0
0.32000000000000001 0.040000000000000001 0
0.32000000000000001 0.54999999999999993 0
0.32000000000000001 0.56000000000000005 0
0.32000000000000001 0.58000000000000007 0
0.34000000000000002 0 0
0.34000000000000002 0.020000000000000004 0
0.34000000000000002 0.040000000000000001 0
0.34000000000000002 0.54999999999999993 0
0.34000000000000002 0.56000000000000005 0
0.34000000000000002 0.58000000000000007 0
0.35999999999999999 0 0
0.35999999999999999 0.020000000000000004 0
0.35999999999999999 0.040000000000000001 0
0.35999999999999999 0.54999999999999993 0
0.35999999999999999 0.56000000000000005 0
0.35999999999999999 0.58000000000000007 0
0.38 0 0
0.38 0.020000000000000004 0
0.38 0.040000000000000001 0
0.38 0.54999999999999993 0
0.38 0.56000000000000005 0
0.38 0.58000000000000007 0
0.40000000000000002 0 0
0.40000000000000002 0.020000000000000004 0
0.40000000000000002 0.040000000000000001 0
0.40000000000000002 0.54999999999999993 0
0.40000000000000002 0.56000000000000005 0
0.40000000000000002 0.58000000000000007 0
0.41999999999999998 0 0
0.41999999999999998 0.020000000000000004 0
0.41999999999999998 0.040000000000000001 0
0.41999999999999998 0.54999999999999993 0
0.41999999999999998 0.56000000000000005 0
0.41999999999999998 0.58000000000000007 0
0.44 0 0
0.44 0.020000000000000004 0
0.44 0.040000000000000001 0
0.44 0.54999999999999993 0
0.44 0.56000000000000005 0
0.44 0.58000000000000007 0
0.46000000000000002 0 0
0.46000000000000002 0.020000000000000004 0
0.46000000000000002 0.040000000000000001 0
0.46000000000000002 0.54999999999999993 0
0.46000000000000002 0.56000000000000005 0
0.46000000000000002 0.58000000000000007 0
0.47999999999999998 0 0
0.47999999999999998 0.020000000000000004 0
0.47999999999999998 0.040000000000000001 0
0.47999999999999998 0.54999999999999993 0
0.47999999999999998 0.56000000000000005 0
0.47999999999999998 0.58000000000000007 0
0.5 0 0
0.5 0.020000000000000004 0
0.5 0.040000000000000001 0
0.5 0.54999999999999993 0
0.5 0.56000000000000005 0
0.5 0.58000000000000007 0
0.52000000000000002 0 0
0.52000000000000002 0.020000000000000004 0
0.52000000000000002 0.040000000000000001 0
0.52000000000000002 0.54999999999999993 0
0.52000000000000002 0.56000000000000005 0
0.52000000000000002 0.58000000000000007 0
0.54000000000000004 0 0
0.54000000000000004 0.020000000000000004 0
0.54000000000000004 0.040000000000000001 0
0.54000000000000004 0.54999999999999993 0
0.54000000000000004 0.56000000000000005 0
0.54000000000000004 0.58000000000000007 0
0.56000000000000005 0 0
0.56000000000000005 0.020000000000000004 0
0.56000000000000005 0.040000000000000001 0
0.56000000000000005 0.54999999999999993 0
0.56000000000000005 0.56000000000000005 0
0.56000000000000005 0.58000000000000007 0
0.57999999999999996 0 0
0.57999999999999996 0.020000000000000004 0
0.57999999999999996 0.040000000000000001 0
0.57999999999999996 0.54999999999999993 0
0.57999999999999996 0.56000000000000005 0
0.57999999999999996 0.58000000000000007 0
0.59999999999999998 0 0
0.59999999999999998 0.020000000000000004 0
0.59999999999999998 0.040000000000000001 0
0.59999999999999998 0.54999999999999993 0
0.59999999999999998 0.56000000000000005 0
0.59999999999999998 0.58000000000000007 0
0.62 0 0
0.62 0.020000000000000004 0
0.62 0.040000000000000001 0
0.62 0.54999999999999993 0
0.62 0.56000000000000005 0
0.62 0.58000000000000007 0
0.64000000000000001 0 0
0.64000000000000001 0.020000000000000004 0
0.64000000000000001 0.040000000000000001 0
0.64000000000000001 0.54999999999999993 0
0.64000000000000001 0.56000000000000005 0
0.64000000000000001 0.58000000000000007 0
0.66000000000000003 0 0
0.66000000000000003 0.020000000000000004 0
0.66000000000000003 0.040000000000000001 0
0.66000000000000003 0.54999999999999993 0
0.66000000000000003 0.56000000000000005 0
0.66000000000000003 0.58000000000000007 0
0.68000000000000005 0 0
0.68000000000000005 0.020000000000000004 0
0.68000000000000005 0.040000000000000001 0
0.68000000000000005 0.54999999999999993 0
0.68000000000000005 0.56000000000000005 0
0.68000000000000005 0.58000000000000007 0
0.70000000000000007 0 0
0.70000000000000007 0.020000000000000004 0
0.70000000000000007 0.040000000000000001 0
0.70000000000000007 0.54999999999999993 0
0.70000000000000007 0.56000000000000005 0
0.70000000000000007 0.58000000000000007 0
0.71999999999999997 0 0
0.71999999999999997 0.020000000000000004 0
0.71999999999999997 0.040000000000000001 0
0.71999999999999997 0.54999999999999993 0
0.71999999999999997 0.56000000000000005 0
0.71999999999999997 0.58000000000000007 0
0.73999999999999999 0 0
0.73999999999999999 0.020000000000000004 0
0.73999999999999999 0.040000000000000001 0
0.73999999999999999 0.54999999999999993 0
0.73999999999999999 0.56000000000000005 0
0.73999999999999999 0.58000000000000007 0
0.76000000000000001 0 0
0.76000000000000001 0.020000000000000004 0
0.76000000000000001 0.040000000000000001 0
0.76000000000000001 0.54999999999999993 0
0.76000000000000001 0.56000000000000005 0
0.76000000000000001 0.58000000000000007 0
0.78000000000000003 0 0
0.78000000000000003 0.020000000000000004 0
0.78000000000000003 0.040000000000000001 0
0.78000000000000003 0.54999999999999993 0
0.78000000000000003 0.56000000000000005 0
0.78000000000000003 0.58000000000000007 0
0.80000000000000004 0 0
0.80000000000000004 0.020000000000000004 0
0.80000000000000004 0.040000000000000001 0
0.80000000000000004 0.54999999999999993 0
0.80000000000000004 0.56000000000000005 0
0.80000000000000004 0.58000000000000007 0
0.82000000000000006 0 0
0.82000000000000006 0.020000000000000004 0
0.82000000000000006 0.040000000000000001 0
0.82000000000000006 0.54999999999999993 0
0.82000000000000006 0.56000000000000005 0
0.82000000000000006 0.58000000000000007 0
0.83999999999999997 0 0
0.83999999999999997 0.020000000000000004 0
0.83999999999999997 0.040000000000000001 0
0.83999999999999997 0.54999999999999993 0
0.83999999999999997 0.56000000000000005 0
0.83999999999999997 0.58000000000000007 0
0.85999999999999999 0 0
0.85999999999999999 0.020000000000000004 0
0.85999999999999999 0.040000000000000001 0
0.85999999999999999 0.54999999999999993 0
0.85999999999999999 0.56000000000000005 0
0.85999999999999999 0.58000000000000007 0
0.88 0 0
0.88 0.020000000000000004 0
0.88 0.040000000000000001 0
0.88 0.54999999999999993 0
0.88 0.56000000000000005 0
0.88 0.58000000000000007 0
0.90000000000000002 0 0
0.90000000000000002 0.020000000000000004 0
0.90000000000000002 0.040000000000000001 0
0.90000000000000002 0.54999999999999993 0
0.90000000000000002 0.56000000000000005 0
0.90000000000000002 0.58000000000000007 0
0.92000000000000004 0 0
0.92000000000000004 0.020000000000000004 0
0.92000000000000004 0.040000000000000001 0
0.92000000000000004 0.54999999999999993 0
0.92000000000000004 0.56000000000000005 0
0.92000000000000004 0.58000000000000007 0
0.94000000000000006 0 0
0.94000000000000006 0.020000000000000004 0
0.94000000000000006 0.040000000000000001 0
0.94000000000000006 0.54999999999999993 0
0.94000000000000006 0.56000000000000005 0
0.94000000000000006 0.58000000000000007 0
0.95999999999999996 0 0
0.95999999999999996 0.020000000000000004 0
0.95999999999999996 0.040000000000000001 0
0.95999999999999996 0.54999999999999993 0
0.95999999999999996 0.56000000000000005 0
0.95999999999999996 0.58000000000000007 0
0.97999999999999998 0 0
0.97999999999999998 0.020000000000000004 0
0.97999999999999998 0.040000000000000001 0
0.97999999999999998 0.54999999999999993 0
0.97999999999999998 0.56000000000000005 0
0.97999999999999998 0.58000000000000007 0
1 0 0
1 0.020000000000000004 0
1 0.040000000000000001 0
1 0.54999999999999993 0
1 0.56000000000000005 0
1 0.58000000000000007 0
VERTICES 681 1362
1 0
1 1
1 2
1 3
1 4
1 5
1 6
1 7
1 8
1 9
1 10
1 11
1 12
1 13
1 14
1 15
1 16
1 17
1 18
1 19
1 20
1 21
1 22
1 23
1 24
1 25
1 26
1 27
1 28
1 29
1 30
1 31
1 32
1 33
1 34
1 35
1 36
1 37
1 38
1 39
1 40
1 41
1 42
1 43
1 44
1 45
1 46
1 47
1 48
1 49
1 50
1 51
1 52
1 53
1 54
1 55
1 56
1 57
1 58
1 59
1 60
1 61
1 62
1 63
1 64
1 65
1 66
1 67
1 68
1 69
1 70
1 71
1 72
1 73
1 74
1 75
1 76
1 77
1 78
1 79
1 80
1 81
1 82
1 83
1 84
1 85
1 86
1 87
1 88
1 89
1 90
1 91
1 92
1 93
1 94
1 95
1 96
1 97
1 98
1 99
1 100
1 101
1 102
1 103
1 104
1 105
1 106
1 107
1 108
1 109
1 110
1 111
1 112
1 113
1 114
1 115
1 116
1 117
1 118
1 119
1 120
1 121
1 122
1 123
1 124
1 125
1 126
1 127
1 128
1 129
1 130
1 131
1 132
1 133
1 134
1 135
1 136
1 137
1 138
1 139
1 140
1 141
1 142
1 143
1 144
1 145
1 146
1 147
1 148
1 149
1 150
1 151
1 152
1 153
1 154
1 155
1 156
1 157
1 158
1 159
1 160
1 161
1 162
1 163
1 164
1 165
1 166
1 167
1 168
1 169
1 170
1 171
1 172
1 173
1 174
1 175
1 176
1 177
1 178
1 179
1 180
1 181
1 182
1 183
1 184
1 185
1 186
1 187
1 188
1 189
1 190
1 191
1 192
1 193
1 194
1 195
1 196
1 197
1 198
1 199
1 200
1 201
1 202
1 203
1 204
1 205
1 206
1 207
1 208
1 209
1 210
1 211
1 212
1 213
1 214
1 215
1 216
1 217
1 218
1 219
1 220
1 221
1 222
1 223
1 224
1 225
1 226
1 227
1 228
1 229
1 230
1 231
1 232
1 233
1 234
1 235
1 236
1 237
1 238
1 239
1 240
1 241
1 242
1 243
1 244
1 245
1 246
1 247
1 248
1 249
1 250
1 251
1 252
1 253
1 254
1 255
1 256
1 257
1 258
1 259
1 260
1 261
1 262
1 263
1 264
1 265
1 266
1 267
1 268
1 269
1 270
1 271
1 272
1 273
1 274
1 275
1 276
1 277
1 278
1 279
1 280
1 281
1 282
1 283
1 284
1 285
1 286
1 287
1 288
1 289
1 290
1 291
1 292
1 293
1 294
1 295
1 296
1 297
1 298
1 299
1 300
1 301
1 302
1 303
1 304
1 305
1 306
1 307
1 308
1 309
1 310
1 311
1 312
1 313
1 314
1 315
1 316
1 317
1 318
1 319
1 320
1 321
1 322
1 323
1 324
1 325
1 326
1 327
1 328
1 329
1 330
1 331
1 332
1 333
1 334
1 335
1 336
1 337
1 338
1 339
1 340
1 341
1 342
1 343
1 344
1 345
1 346
1 347
1 348
1 349
1 350
1 351
1 352
1 353
1 354
1 355
1 356
1 357
1 358
1 359
1 360
1 361
1 362
1 363
1 364
1 365
1 366
1 367
1 368
1 369
1 370
1 371
1 372
1 373
1 374
1 375
1 376
1 377
1 378
1 379
1 380
1 381
1 382
1 383
1 384
1 385
1 386
1 387
1 388
1 389
1 390
1 391
1 392
1 393
1 394
1 395
1 396
1 397
1 398
1 399
1 400
1 401
1 402
1 403
1 404
1 405
1 406
1 407
1 408
1 409
1 410
1 411
1 412
1 413
1 414
1 415
1 416
1 417
1 418
1 419
1 420
1 421
1 422
1 423
1 424
1 425
1 426
1 427
1 428
1 429
1 430
1 431
1 432
1 433
1 434
1 435
1 436
1 437
1 438
1 439
1 440
1 441
1 442
1 443
1 444
1 445
1 446
1 447
1 448
1 449
1 450
1 451
1 452
1 453
1 454
1 455
1 456
1 457
1 458
1 459
1 460
1 461
1 462
1 463
1 464
1 465
1 466
1 467
1 468
1 469
1 470
1 471
1 472
1 473
1 474
1 475
1 476
1 477
1 478
1 479
1 480
1 481
1 482
1 483
1 484
1 485
1 486
1 487
1 488
1 489
1 490
1 491
1 492
1 493
1 494
1 495
1 496
1 497
1 498
1 499
1 500
1 501
1 502
1 503
1 504
1 505
1 506
1 507
1 508
1 509
1 510
1 511
1 512
1 513
1 514
1 515
1 516
1 517
1 518
1 519
1 520
1 521
1 522
1 523
1 524
1 525
1 526
1 527
1 528
1 529
1 530
1 531
1 532
1 533
1 534
1 535
1 536
1 537
1 538
1 539
1 540
1 541
1 542
1 543
1 544
1 545
1 546
1 547
1 548
1 549
1 550
1 551
1 552
1 553
1 554
1 555
1 556
1 557
1 558
1 559
1 560
1 561
1 562
1 563
1 564
1 565
1 566
1 567
1 568
1 569
1 570
1 571
1 572
1 573
1 574
1 575
1 576
1 577
1 578
1 579
1 580
1 581
1 582
1 583
1 584
1 585
1 586
1 587
1 588
1 589
1 590
1 591
1 592
1 593
1 594
1 595
1 596
1 597
1 598
1 599
1 600
1 601
1 602
1 603
1 604
1 605
1 606
1 607
1 608
1 609
1 610
1 611
1 612
1 613
1 614
1 615
1 616
1 617
1 618
1 619
1 620
1 621
1 622
1 623
1 624
1 625
1 626
1 627
1 628
1 629
1 630
1 631
1 632
1 633
1 634
1 635
1 636
1 637
1 638
1 639
1 640
1 641
1 642
1 643
1 644
1 645
1 646
1 647
1 648
1 649
1 650
1 651
1 652
1 653
1 654
1 655
1 656
1 657
1 658
1 659
1 660
1 661
1 662
1 663
1 664
1 665
1 666
1 667
1 668
1 669
1 670
1 671
1 672
1 673
1 674
1 675
1 676
1 677
1 678
1 679
1 680
POINT_DATA 681
SCALARS is_boundary int 1
LOOKUP_TABLE default
0
0
0
0
0
0
0
0
0
0
0
0
0
0
0
0
0
0
0
0
0
0
0
0
0
0
0
0
0
0
0
0
0
0
0
0
0
0
0
0
0
0
0
0
0
0
0
0
0
0
0
0
0
0
0
0
0
0
0
0
0
0
0
0
0
0
0
0
0
0
0
0
0
0
0
0
0
0
0
0
0
0
0
0
0
0
0
0
0
0
0
0
0
0
0
0
0
0
0
0
0
0
0
0
0
0
0
0
0
0
0
0
0
0
0
0
0
0
0
0
0
0
0
0
0
0
0
0
0
0
0
0
0
0
0
0
0
0
0
0
0
0
0
0
0
0
0
0
0
0
0
0
0
0
0
0
0
0
0
0
0
0
0
0
0
0
0
0
0
0
0
0
0
0
0
0
0
0
0
0
0
0
0
0
0
0
0
0
0
0
0
0
0
0
0
0
0
0
0
0
0
0
0
0
0
0
0
0
0
0
0
0
0
0
0
0
0
0
0
0
0
0
0
0
0
0
0
0
0
0
0
0
0
0
0
0
0
0
0
0
0
0
0
0
0
0
0
0
0
0
0
0
0
0
0
0
0
0
0
0
0
0
0
0
0
0
0
0
0
0
0
0
0
0
0
0
0
0
0
0
0
0
0
0
0
0
0
0
0
0
0
0
0
0
0
0
0
0
0
0
0
0
0
0
0
0
0
0
0
0
0
0
0
0
0
0
0
0
0
0
0
0
0
0
0
0
0
0
0
0
0
0
0
0
0
0
0
0
0
0
0
0
0
0
0
0
0
0
0
0
0
0
0
0
0
0
0
0
0
0
0
0
0
0
0
0
0
0
0
0
0
0
0
0
0
1
1
1
1
1
1
1
1
1
1
1
1
1
1
1
1
1
1
1
1
1
1
1
1
1
1
1
1
1
1
1
1
1
1
1
1
1
1
1
1
1
1
1
1
1
1
1
1
1
1
1
1
1
1
1
1
1
1
1
1
1
1
1
1
1
1
1
1
1
1
1
1
1
1
1
1
1
1
1
1
1
1
1
1
1
1
1
1
1
1
1
1
1
1
1
1
1
1
1
1
1
1
1
1
1
1
1
1
1
1
1
1
1
1
1
1
1
1
1
1
1
1
1
1
1
1
1
1
1
1
1
1
1
1
1
1
1
1
1
1
1
1
1
1
1
1
1
1
1
1
1
1
1
1
1
1
1
1
1
1
1
1
1
1
1
1
1
1
1
1
1
1
1
1
1
1
1
1
1
1
1
1
1
1
1
1
1
1
1
1
1
1
1
1
1
1
1
1
1
1
1
1
1
1
1
1
1
1
1
1
1
1
1
1
1
1
1
1
1
1
1
1
1
1
1
1
1
1
1
1
1
1
1
1
1
1
1
1
1
1
1
1
1
1
1
1
1
1
1
1
1
1
1
1
1
1
1
1
1
1
1
1
1
1
1
1
1
1
1
1
1
1
1
1
1
1
1
1
1
1
1
1
1
1
1
1
1
1
1
1
1
1
1
1
1
1
1
1
1
1
1
1
1
1
1
1
SCALARS rho float 1
LOOKUP_TABLE default
1020
1020
1020
1020
1020
1020
1020
1020
1020
1020
1020
1020
1020
1020
1020
1020
1020
1020
1020
1020
1020
1020
1020
1020
1020
1020
1020
1020
1020
1020
1020
1020
1020
1020
1020
1020
1020
1020
1020
1020
1020
1020
1020
1020
1020
1020
1020
1020
1020
1020
1020
1020
1020
1020
1020
1020
1020
1020
1020
1020
1020
1020
1020
1020
1020
1020
1020
1020
1020
1020
1020
1020
1020
1020
1020
1020
1020
1020
1020
1020
1020
1020
1020
1020
1020
1020
1020
1020
1020
1020
1020
1020
1020
1020
1020
1020
1020
1020
1020
1020
1020
1020
1020
1020
1020
1020
1020
1020
1020
1020
1020
1020
1020
1020
1020
1020
1020
1020
1020
1020
1020
1020
1020
1020
1020
1020
1020
1020
1020
1020
1020
1020
1020
1020
1020
1020
1020
1020
1020
1020
1020
1020
1020
1020
1020
1020
1020
1020
1020
1020
1020
1020
1020
1020
1020
1020
1020
1020
1020
1020
1020
1020
1020
1020
1020
1020
1020
1020
1020
1020
1020
1020
1020
1020
1020
1020
1020
1020
1020
1020
1020
1020
1020
1020
1020
1020
1020
1020
1020
1020
1020
1020
1020
1020
1020
1020
1020
1020
1020
1020
1020
1020
1020
1020
1020
1020
1020
1020
1020
1020
1020
1020
1020
1020
1020
1020
1020
1020
1020
1020
1020
1020
1020
1020
1020
1020
1020
1020
1020
1020
1020
1020
1020
1020
1020
1020
1020
1020
1020
1020
1020
1020
1020
1020
1020
1020
1020
1020
1020
1020
1020
1020
1020
1020
1020
1020
1020
1020
1020
1020
1020
1020
1020
1020
1020
1020
1020
1020
1020
1020
1020
1020
1020
1020
1020
1020
1020
1020
1020
1020
1020
1020
1020
1020
1020
1020
1020
1020
1020
1020
1020
1020
1020
1020
1020
1020
1020
1020
1020
1020
1020
1020
1020
1020
1020
1020
1020
1020
1020
1020
1020
1020
1020
1020
1020
1020
1020
1020
1020
1020
1020
1020
1020
1020
1020
1020
1020
1020
1020
1020
1020
1020
1020
1020
1020
1020
1020
1020
1020
1020
1020
1020
1020
1020
1020
1020
1020
1020
1020
1020
1020
1020
1020
1020
1020
1020
1020
1020
1020
1020
1020
1020
1020
1020
1020
1020
1020
1020
1020
1020
1020
1020
1020
1020
1020
1000
1000
1000
1000
1000
1000
1000
1000
1000
1000
1000
1000
1000
1000
1000
1000
1000
1000
1000
1000
1000
1000
1000
1000
1000
1000
1000
1000
1000
1000
1000
1000
1000
1000
1000
1000
1000
1000
1000
1000
1000
1000
1000
1000
1000
1000
1000
1000
1000
1000
1000
1000
1000
1000
1000
1000
1000
1000
1000
1000
1000
1000
1000
1000
1000
1000
1000
1000
1000
1000
1000
1000
1000
1000
1000
1000
1000
1000
1000
1000
1000
1000
1000
1000
1000
1000
1000
1000
1000
1000
1000
1000
1000
1000
1000
1000
1000
1000
1000
1000
1000
1000
1000
1000
1000
1000
1000
1000
1000
1000
1000
1000
1000
1000
1000
1000
1000
1000
1000
1000
1000
1000
1000
1000
1000
1000
1000
1000
1000
1000
1000
1000
1000
1000
1000
1000
1000
1000
1000
1000
1000
1000
1000
1000
1000
1000
1000
1000
1000
1000
1000
1000
1000
1000
1000
1000
1000
1000
1000
1000
1000
1000
1000
1000
1000
1000
1000
1000
1000
1000
1000
1000
1000
1000
1000
1000
1000
1000
1000
1000
1000
1000
1000
1000
1000
1000
1000
1000
1000
1000
1000
1000
1000
1000
1000
1000
1000
1000
1000
1000
1000
1000
1000
1000
1000
1000
1000
1000
1000
1000
1000
1000
1000
1000
1000
1000
1000
1000
1000
1000
1000
1000
1000
1000
1000
1000
1000
1000
1000
1000
1000
1000
1000
1000
1000
1000
1000
1000
1000
1000
1000
1000
1000
1000
1000
1000
1000
1000
1000
1000
1000
1000
1000
1000
1000
1000
1000
1000
1000
1000
1000
1000
1000
1000
1000
1000
1000
1000
1000
1000
1000
1000
1000
1000
1000
1000
1000
1000
1000
1000
1000
1000
1000
1000
1000
1000
1000
1000
1000
1000
1000
1000
1000
1000
1000
1000
1000
1000
1000
1000
1000
1000
1000
1000
1000
1000
SCALARS p float 1
LOOKUP_TABLE default
25004.681136676067
25004.681136676067
25004.681136676067
25004.681136676067
25004.681136676067
25004.681136676067
25004.681136676067
25004.681136676067
25004.681136676067
25004.681136676067
25004.681136676067
25004.681136676067
25004.681136676067
25004.681136676067
25004.681136676067
25004.681136676067
25004.681136676067
25004.681136676067
25004.681136676067
25004.681136676067
25004.681136676067
25004.681136676067
25004.681136676067
25004.681136676067
25004.681136676067
25004.681136676067
25004.681136676067
25004.681136676067
25004.681136676067
25004.681136676067
25004.681136676067
25004.681136676067
25004.681136676067
25004.681136676067
25004.681136676067
25004.681136676067
25004.681136676067
25004.681136676067
25004.681136676067
25004.681136676067
25004.681136676067
25004.681136676067
25004.681136676067
25004.681136676067
25004.681136676067
25004.681136676067
25004.681136676067
25004.681136676067
25004.681136676067
25004.681136676067
25004.681136676067
25004.681136676067
25004.681136676067
25004.681136676067
25004.681136676067
25004.681136676067
25004.681136676067
25004.681136676067
25004.681136676067
25004.681136676067
25004.681136676067
25004.681136676067
25004.681136676067
25004.681136676067
25004.681136676067
25004.681136676067
25004.681136676067
25004.681136676067
25004.681136676067
25004.681136676067
25004.681136676067
25004.681136676067
25004.681136676067
25004.681136676067
25004.681136676067
25004.681136676067
25004.681136676067
25004.681136676067
25004.681136676067
25004.681136676067
25004.681136676067
25004.681136676067
25004.681136676067
25004.681136676067
25004.681136676067
25004.681136676067
25004.681136676067
25004.681136676067
25004.681136676067
25004.681136676067
25004.681136676067
25004.681136676067
25004.681136676067
25004.681136676067
25004.681136676067
25004.681136676067
25004.681136676067
25004.681136676067
25004.681136676067
25004.681136676067
25004.681136676067
25004.681136676067
25004.681136676067
25004.681136676067
25004.681136676067
25004.681136676067
25004.681136676067
25004.681136676067
25004.681136676067
25004.681136676067
25004.681136676067
25004.681136676067
25004.681136676067
25004.681136676067
25004.681136676067
25004.681136676067
25004.681136676067
25004.681136676067
25004.681136676067
25004.681136676067
25004.681136676067
25004.681136676067
25004.681136676067
25004.681136676067
25004.681136676067
25004.681136676067
25004.681136676067
25004.681136676067
25004.681136676067
25004.681136676067
25004.681136676067
25004.681136676067
25004.681136676067
25004.681136676067
25004.681136676067
25004.681136676067
25004.681136676067
25004.681136676067
25004.681136676067
25004.681136676067
25004.681136676067
25004.681136676067
25004.681136676067
25004.681136676067
25004.681136676067
25004.681136676067
25004.681136676067
25004.681136676067
25004.681136676067
25004.681136676067
25004.681136676067
25004.681136676067
25004.681136676067
25004.681136676067
25004.681136676067
25004.681136676067
25004.681136676067
25004.681136676067
25004.681136676067
25004.681136676067
25004.681136676067
25004.681136676067
25004.681136676067
25004.681136676067
25004.681136676067
25004.681136676067
25004.681136676067
25004.681136676067
25004.681136676067
25004.681136676067
25004.681136676067
25004.681136676067
25004.681136676067
25004.681136676067
25004.681136676067
25004.681136676067
25004.681136676067
25004.681136676067
25004.681136676067
25004.681136676067
25004.681136676067
25004.681136676067
25004.681136676067
25004.681136676067
25004.681136676067
25004.681136676067
25004.681136676067
25004.681136676067
25004.681136676067
25004.681136676067
25004.681136676067
25004.681136676067
25004.681136676067
25004.681136676067
25004.681136676067
25004.681136676067
25004.681136676067
25004.681136676067
25004.681136676067
25004.681136676067
25004.681136676067
25004.681136676067
25004.681136676067
25004.681136676067
25004.681136676067
25004.681136676067
25004.681136676067
25004.681136676067
25004.681136676067
25004.681136676067
25004.681136676067
25004.681136676067
25004.681136676067
25004.681136676067
25004.681136676067
25004.681136676067
25004.681136676067
25004.681136676067
25004.681136676067
25004.681136676067
25004.681136676067
25004.681136676067
25004.681136676067
25004.681136676067
25004.681136676067
25004.681136676067
25004.681136676067
25004.681136676067
25004.681136676067
25004.681136676067
25004.681136676067
25004.681136676067
25004.681136676067
25004.681136676067
25004.681136676067
25004.681136676067
25004.681136676067
25004.681136676067
25004.681136676067
25004.681136676067
25004.681136676067
25004.681136676067
25004.681136676067
25004.681136676067
25004.681136676067
25004.681136676067
25004.681136676067
25004.681136676067
25004.681136676067
25004.681136676067
25004.681136676067
25004.681136676067
25004.681136676067
25004.681136676067
25004.681136676067
25004.681136676067
25004.681136676067
25004.681136676067
25004.681136676067
25004.681136676067
25004.681136676067
25004.681136676067
25004.681136676067
25004.681136676067
25004.681136676067
25004.681136676067
25004.681136676067
25004.681136676067
25004.681136676067
25004.681136676067
25004.681136676067
25004.681136676067
25004.681136676067
25004.681136676067
25004.681136676067
25004.681136676067
25004.681136676067
25004.681136676067
25004.681136676067
25004.681136676067
25004.681136676067
25004.681136676067
25004.681136676067
25004.681136676067
25004.681136676067
25004.681136676067
25004.681136676067
25004.681136676067
25004.681136676067
25004.681136676067
25004.681136676067
25004.681136676067
25004.681136676067
25004.681136676067
25004.681136676067
25004.681136676067
25004.681136676067
25004.681136676067
25004.681136676067
25004.681136676067
25004.681136676067
25004.681136676067
25004.681136676067
25004.681136676067
25004.681136676067
25004.681136676067
25004.681136676067
25004.681136676067
25004.681136676067
25004.681136676067
25004.681136676067
25004.681136676067
25004.681136676067
25004.681136676067
25004.681136676067
25004.681136676067
25004.681136676067
25004.681136676067
25004.681136676067
25004.681136676067
25004.681136676067
25004.681136676067
25004.681136676067
25004.681136676067
25004.681136676067
25004.681136676067
25004.681136676067
25004.681136676067
25004.681136676067
25004.681136676067
25004.681136676067
25004.681136676067
25004.681136676067
25004.681136676067
25004.681136676067
25004.681136676067
25004.681136676067
25004.681136676067
25004.681136676067
25004.681136676067
25004.681136676067
25004.681136676067
25004.681136676067
25004.681136676067
25004.681136676067
25004.681136676067
25004.681136676067
25004.681136676067
25004.681136676067
25004.681136676067
25004.681136676067
25004.681136676067
25004.681136676067
25004.681136676067
25004.681136676067
25004.681136676067
25004.681136676067
25004.681136676067
25004.681136676067
25004.681136676067
25004.681136676067
25004.681136676067
25004.681136676067
25004.681136676067
25004.681136676067
25004.681136676067
25004.681136676067
25004.681136676067
25004.681136676067
25004.681136676067
25004.681136676067
25004.681136676067
25004.681136676067
25004.681136676067
25004.681136676067
0
0
0
0
0
0
24005.995143649685
24982.395185954454
24991.330470097888
0
0
0
24996.848567550122
25003.932670529703
25004.210339396566
0
0
0
25001.010151633971
25004.300382508936
25004.437638972482
0
0
0
25001.269895637706
25004.306772145588
25004.437688019236
0
0
0
25001.283959265176
25004.306350686653
25004.43693203375
0
0
0
25001.279014976371
25004.306040329349
25004.436832068044
0
0
0
25001.276020482343
25004.305894509966
25004.436817193931
0
0
0
25001.274843058643
25004.3058360143
25004.436814531367
0
0
0
25001.274536932586
25004.30581877023
25004.436814671772
0
0
0
25001.274572357812
25004.305820101345
25004.436816689671
0
0
0
25001.27503472476
25004.305843252514
25004.436816676116
0
0
0
25001.27633993635
25004.305907769205
25004.436821503743
0
0
0
25001.279351464666
25004.306053591801
25004.436837930109
0
0
0
25001.284210353399
25004.306358264861
25004.436933224759
0
0
0
25001.269958084442
25004.306770497406
25004.437685938341
0
0
0
25001.01015004707
25004.300382288173
25004.437642637371
0
0
0
24996.848194532115
25003.932633925975
25004.210322172512
0
0
0
24005.776417261786
24982.391957614291
24991.327914945108
0
0
0
0
0
0
0
0
0
0
0
0
0
0
0
0
0
0
0
0
0
0
0
0
0
0
0
0
0
0
0
0
0
0
0
0
0
0
0
0
0
0
0
0
0
0
0
0
0
0
0
0
0
0
0
0
0
0
0
0
0
0
0
0
0
0
0
0
0
0
0
0
0
0
0
0
0
0
0
0
0
0
0
0
0
0
0
0
0
0
0
0
0
0
0
0
0
0
0
0
0
0
0
0
0
0
0
0
0
0
0
0
0
0
0
0
0
0
0
0
0
0
0
0
0
0
0
0
0
0
0
0
0
0
0
0
0
0
0
0
0
0
0
0
0
0
0
0
0
0
0
0
0
0
0
0
0
0
0
0
0
0
0
0
0
0
0
0
0
0
0
0
0
0
0
0
0
0
0
0
0
0
0
0
0
0
0
0
0
0
0
0
0
0
0
SCALARS m float 1
LOOKUP_TABLE default
0.39965556373580352
0.39965556373580352
0.39965556373580352
0.39965556373580352
0.39965556373580352
0.39965556373580352
0.39965556373580352
0.39965556373580352
0.39965556373580352
0.39965556373580352
0.39965556373580352
0.39965556373580352
0.39965556373580352
0.39965556373580352
0.39965556373580352
0.39965556373580352
0.39965556373580352
0.39965556373580352
0.39965556373580352
0.39965556373580352
0.39965556373580352
0.39965556373580352
0.39965556373580352
0.39965556373580352
0.39965556373580352
0.39965556373580352
0.39965556373580352
0.39965556373580352
0.39965556373580352
0.39965556373580352
0.39965556373580352
0.39965556373580352
0.39965556373580352
0.39965556373580352
0.39965556373580352
0.39965556373580352
0.39965556373580352
0.39965556373580352
0.39965556373580352
0.39965556373580352
0.39965556373580352
0.39965556373580352
0.39965556373580352
0.39965556373580352
0.39965556373580352
0.39965556373580352
0.39965556373580352
0.39965556373580352
0.39965556373580352
0.39965556373580352
0.39965556373580352
0.39965556373580352
0.39965556373580352
0.39965556373580352
0.39965556373580352
0.39965556373580352
0.39965556373580352
0.39965556373580352
0.39965556373580352
0.39965556373580352
0.39965556373580352
0.39965556373580352
0.39965556373580352
0.39965556373580352
0.39965556373580352
0.39965556373580352
0.39965556373580352
0.39965556373580352
0.39965556373580352
0.39965556373580352
0.39965556373580352
0.39965556373580352
0.39965556373580352
0.39965556373580352
0.39965556373580352
0.39965556373580352
0.39965556373580352
0.39965556373580352
0.39965556373580352
0.39965556373580352
0.39965556373580352
0.39965556373580352
0.39965556373580352
0.39965556373580352
0.39965556373580352
0.39965556373580352
0.39965556373580352
0.39965556373580352
0.39965556373580352
0.39965556373580352
0.39965556373580352
0.39965556373580352
0.39965556373580352
0.39965556373580352
0.39965556373580352
0.39965556373580352
0.39965556373580352
0.39965556373580352
0.39965556373580352
0.39965556373580352
0.39965556373580352
0.39965556373580352
0.39965556373580352
0.39965556373580352
0.39965556373580352
0.39965556373580352
0.39965556373580352
0.39965556373580352
0.39965556373580352
0.39965556373580352
0.39965556373580352
0.39965556373580352
0.39965556373580352
0.39965556373580352
0.39965556373580352
0.39965556373580352
0.39965556373580352
0.39965556373580352
0.39965556373580352
0.39965556373580352
0.39965556373580352
0.39965556373580352
0.39965556373580352
0.39965556373580352
0.39965556373580352
0.39965556373580352
0.39965556373580352
0.39965556373580352
0.39965556373580352
0.39965556373580352
0.39965556373580352
0.39965556373580352
0.39965556373580352
0.39965556373580352
0.39965556373580352
0.39965556373580352
0.39965556373580352
0.39965556373580352
0.39965556373580352
0.39965556373580352
0.39965556373580352
0.39965556373580352
0.39965556373580352
0.39965556373580352
0.39965556373580352
0.39965556373580352
0.39965556373580352
0.39965556373580352
0.39965556373580352
0.39965556373580352
0.39965556373580352
0.39965556373580352
0.39965556373580352
0.39965556373580352
0.39965556373580352
0.39965556373580352
0.39965556373580352
0.39965556373580352
0.39965556373580352
0.39965556373580352
0.39965556373580352
0.39965556373580352
0.39965556373580352
0.39965556373580352
0.39965556373580352
0.39965556373580352
0.39965556373580352
0.39965556373580352
0.39965556373580352
0.39965556373580352
0.39965556373580352
0.39965556373580352
0.39965556373580352
0.39965556373580352
0.39965556373580352
0.39965556373580352
0.39965556373580352
0.39965556373580352
0.39965556373580352
0.39965556373580352
0.39965556373580352
0.39965556373580352
0.39965556373580352
0.39965556373580352
0.39965556373580352
0.39965556373580352
0.39965556373580352
0.39965556373580352
0.39965556373580352
0.39965556373580352
0.39965556373580352
0.39965556373580352
0.39965556373580352
0.39965556373580352
0.39965556373580352
0.39965556373580352
0.39965556373580352
0.39965556373580352
0.39965556373580352
0.39965556373580352
0.39965556373580352
0.39965556373580352
0.39965556373580352
0.39965556373580352
0.39965556373580352
0.39965556373580352
0.39965556373580352
0.39965556373580352
0.39965556373580352
0.39965556373580352
0.39965556373580352
0.39965556373580352
0.39965556373580352
0.39965556373580352
0.39965556373580352
0.39965556373580352
0.39965556373580352
0.39965556373580352
0.39965556373580352
0.39965556373580352
0.39965556373580352
0.39965556373580352
0.39965556373580352
0.39965556373580352
0.39965556373580352
0.39965556373580352
0.39965556373580352
0.39965556373580352
0.39965556373580352
0.39965556373580352
0.39965556373580352
0.39965556373580352
0.39965556373580352
0.39965556373580352
0.39965556373580352
0.39965556373580352
0.39965556373580352
0.39965556373580352
0.39965556373580352
0.39965556373580352
0.39965556373580352
0.39965556373580352
0.39965556373580352
0.39965556373580352
0.39965556373580352
0.39965556373580352
0.39965556373580352
0.39965556373580352
0.39965556373580352
0.39965556373580352
0.39965556373580352
0.39965556373580352
0.39965556373580352
0.39965556373580352
0.39965556373580352
0.39965556373580352
0.39965556373580352
0.39965556373580352
0.39965556373580352
0.39965556373580352
0.39965556373580352
0.39965556373580352
0.39965556373580352
0.39965556373580352
0.39965556373580352
0.39965556373580352
0.39965556373580352
0.39965556373580352
0.39965556373580352
0.39965556373580352
0.39965556373580352
0.39965556373580352
0.39965556373580352
0.39965556373580352
0.39965556373580352
0.39965556373580352
0.39965556373580352
0.39965556373580352
0.39965556373580352
0.39965556373580352
0.39965556373580352
0.39965556373580352
0.39965556373580352
0.39965556373580352
0.39965556373580352
0.39965556373580352
0.39965556373580352
0.39965556373580352
0.39965556373580352
0.39965556373580352
0.39965556373580352
0.39965556373580352
0.39965556373580352
0.39965556373580352
0.39965556373580352
0.39965556373580352
0.39965556373580352
0.39965556373580352
0.39965556373580352
0.39965556373580352
0.39965556373580352
0.39965556373580352
0.39965556373580352
0.39965556373580352
0.39965556373580352
0.39965556373580352
0.39965556373580352
0.39965556373580352
0.39965556373580352
0.39965556373580352
0.39965556373580352
0.39965556373580352
0.39965556373580352
0.39965556373580352
0.39965556373580352
0.39965556373580352
0.39965556373580352
0.39965556373580352
0.39965556373580352
0.39965556373580352
0.39965556373580352
0.39965556373580352
0.39965556373580352
0.39965556373580352
0.39965556373580352
0.39965556373580352
0.39965556373580352
0.39965556373580352
0.39965556373580352
0.39965556373580352
0.39965556373580352
0.39965556373580352
0.39965556373580352
0.39965556373580352
0.39965556373580352
0.39965556373580352
0.39965556373580352
0.39965556373580352
0.39965556373580352
0.39965556373580352
0.39965556373580352
0.39965556373580352
0.39965556373580352
0.39965556373580352
0.39965556373580352
0.39965556373580352
0.39965556373580352
0.39965556373580352
0.39965556373580352
0.39965556373580352
0.39965556373580352
0.39965556373580352
0.39965556373580352
0.39965556373580352
0.39965556373580352
0.39965556373580352
0.39965556373580352
0.39965556373580352
0.39965556373580352
0.39965556373580352
0.39965556373580352
0.39965556373580352
0.39965556373580352
0.39965556373580352
0.39965556373580352
0.39965556373580352
0.39965556373580352
0.39965556373580352
0.39965556373580352
0.39965556373580352
0.39965556373580352
0.39965556373580352
0.39965556373580352
0.39965556373580352
0.39965556373580352
0.39965556373580352
0.39965556373580352
0.39965556373580352
0.39965556373580352
0.39965556373580352
0.39965556373580352
0.39965556373580352
0.39965556373580352
0.39965556373580352
0.39965556373580352
0.39965556373580352
0.39965556373580352
0.39965556373580352
0.39965556373580352
0.39965556373580352
0.39965556373580352
0.39965556373580352
0.39965556373580352
0.39965556373580352
0.39965556373580352
0.39965556373580352
0.39965556373580352
0.39965556373580352
0.39965556373580352
0.39965556373580352
0.39965556373580352
0.39965556373580352
0.39965556373580352
0.39965556373580352
0.39965556373580352
0.39965556373580352
0.39965556373580352
0.39965556373580352
0.39965556373580352
0.39965556373580352
0.39965556373580352
0.39965556373580352
0.39965556373580352
0.39965556373580352
0.39965556373580352
0.39965556373580352
0.39965556373580352
0.39965556373580352
0.39965556373580352
0.39965556373580352
0.39965556373580352
0.39965556373580352
0.39965556373580352
0.39965556373580352
0.39965556373580352
0.39965556373580352
0.39965556373580352
0.39965556373580352
0.39965556373580352
0.39965556373580352
0.39965556373580352
0.39965556373580352
0.39965556373580352
0.39965556373580352
0.39965556373580352
0.39965556373580352
0.39965556373580352
0.39965556373580352
0.39965556373580352
0.39965556373580352
0.39965556373580352
0.39965556373580352
0.39965556373580352
0.39965556373580352
0.39965556373580352
0.39965556373580352
0.39965556373580352
0.39965556373580352
0.39965556373580352
0.39965556373580352
0.39965556373580352
0.39965556373580352
0.39965556373580352
0.39965556373580352
0.39965556373580352
0.39965556373580352
0.39965556373580352
0.39965556373580352
0.39965556373580352
0.39965556373580352
0.39965556373580352
0.39965556373580352
0.39965556373580352
0.39965556373580352
0.39965556373580352
0.39965556373580352
0.39965556373580352
0.39965556373580352
0.39965556373580352
0.39965556373580352
0.39965556373580352
0.39965556373580352
0.39965556373580352
0.39965556373580352
0.39965556373580352
0.39965556373580352
0.39965556373580352
0.39965556373580352
0.39965556373580352
0.39965556373580352
0.39965556373580352
0.39965556373580352
0.39965556373580352
0.39965556373580352
0.39965556373580352
0.39965556373580352
0.39965556373580352
0.39965556373580352
0.39965556373580352
0.39965556373580352
0.39965556373580352
0.39965556373580352
0.39965556373580352
0.39965556373580352
0.39965556373580352
0.39965556373580352
0.39965556373580352
0.39965556373580352
0.39965556373580352
0.39965556373580352
0.39965556373580352
0.39965556373580352
0.39965556373580352
0.39965556373580352
0.39965556373580352
0.39965556373580352
0.39965556373580352
0.39965556373580352
0.39965556373580352
0.39965556373580352
0.39965556373580352
0.39965556373580352
0.39965556373580352
0.39965556373580352
0.39965556373580352
0.39965556373580352
0.39965556373580352
0.39965556373580352
0.39965556373580352
0.39965556373580352
0.39965556373580352
0.39965556373580352
0.39965556373580352
0.39965556373580352
0.39965556373580352
0.39965556373580352
0.39965556373580352
0.39965556373580352
0.39965556373580352
0.39965556373580352
0.39965556373580352
0.39965556373580352
0.39965556373580352
0.39965556373580352
0.39965556373580352
0.39965556373580352
0.39965556373580352
0.39965556373580352
0.39965556373580352
0.39965556373580352
0.39965556373580352
0.39965556373580352
0.39965556373580352
0.39965556373580352
0.39965556373580352
0.39965556373580352
0.39965556373580352
0.39965556373580352
0.39965556373580352
0.39965556373580352
0.39965556373580352
0.39965556373580352
0.39965556373580352
0.39965556373580352
0.39965556373580352
0.39965556373580352
0.39965556373580352
0.39965556373580352
0.39965556373580352
0.39965556373580352
0.39965556373580352
0.39965556373580352
0.39965556373580352
0.39965556373580352
0.39965556373580352
0.39965556373580352
0.39965556373580352
0.39965556373580352
0.39965556373580352
0.39965556373580352
0.39965556373580352
0.39965556373580352
0.39965556373580352
0.39965556373580352
0.39965556373580352
0.39965556373580352
0.39965556373580352
0.39965556373580352
0.39965556373580352
0.39965556373580352
0.39965556373580352
0.39965556373580352
0.39965556373580352
0.39965556373580352
0.39965556373580352
0.39965556373580352
0.39965556373580352
0.39965556373580352
0.39965556373580352
0.39965556373580352
0.39965556373580352
0.39965556373580352
0.39965556373580352
0.39965556373580352
0.39965556373580352
0.39965556373580352
0.39965556373580352
0.39965556373580352
0.39965556373580352
0.39965556373580352
0.39965556373580352
0.39965556373580352
0.39965556373580352
0.39965556373580352
0.39965556373580352
0.39965556373580352
0.39965556373580352
0.39965556373580352
0.39965556373580352
0.39965556373580352
0.39965556373580352
0.39965556373580352
0.39965556373580352
0.39965556373580352
0.39965556373580352
0.39965556373580352
0.39965556373580352
0.39965556373580352
0.39965556373580352
0.39965556373580352
0.39965556373580352
0.39965556373580352
0.39965556373580352
0.39965556373580352
0.39965556373580352
0.39965556373580352
0.39965556373580352
0.39965556373580352
0.39965556373580352
0.39965556373580352
0.39965556373580352
0.39965556373580352
0.39965556373580352
0.39965556373580352
0.39965556373580352
0.39965556373580352
0.39965556373580352
0.39965556373580352
0.39965556373580352
0.39965556373580352
0.39965556373580352
0.39965556373580352
0.39965556373580352
0.39965556373580352
0.39965556373580352
0.39965556373580352
0.39965556373580352
0.39965556373580352
0.39965556373580352
0.39965556373580352
0.39965556373580352
0.39965556373580352
0.39965556373580352
0.39965556373580352
0.39965556373580352
0.39965556373580352
0.39965556373580352
0.39965556373580352
0.39965556373580352
0.39965556373580352
0.39965556373580352
0.39965556373580352
0.39965556373580352
0.39965556373580352
0.39965556373580352
0.39965556373580352
0.39965556373580352
0.39965556373580352
0.39965556373580352
0.39965556373580352
0.39965556373580352
0.39965556373580352
0.39965556373580352
0.39965556373580352
0.39965556373580352
0.39965556373580352
0.39965556373580352
0.39965556373580352
0.39965556373580352
0.39965556373580352
0.39965556373580352
VECTORS v float
-2.0383907975182709e-05 -0.036744241613748563 0
-2.1446155348530126e-05 -0.03721441288354288 0
-2.220942349965466e-05 -0.037579128671759443 0
-2.289041102323655e-05 -0.037934443239096498 0
-2.3507263121697035e-05 -0.038292666934245753 0
-2.4078346256488565e-05 -0.038668458630698066 0
-2.4613740414302202e-05 -0.039071305799410386 0
-2.5119185693586692e-05 -0.039507628500647006 0
-2.5600522037081825e-05 -0.039983469313194589 0
-2.604008407670991e-05 -0.040504633881082316 0
-2.6429012734725157e-05 -0.041077455430304118 0
-2.6761233601049861e-05 -0.041708562604494931 0
-2.703093217681848e-05 -0.04240496135477733 0
-2.7260203887415689e-05 -0.043177769835214888 0
-2.748563422942838e-05 -0.044045470452377437 0
-2.7654984061082946e-05 -0.045027632583992699 0
-2.7823664874492296e-05 -0.046149118672441224 0
-2.8007840056044717e-05 -0.047440498009180369 0
-2.8192693732690834e-05 -0.048944583770108512 0
-2.8472704145571947e-05 -0.050709951308408691 0
-2.8770236741773582e-05 -0.052827365497742751 0
-2.9140569119435341e-05 -0.055432299327459987 0
-2.9928260409393382e-05 -0.058755061940459895 0
-3.0178671557779253e-05 -0.063250341065938076 0
-3.1034726971800427e-05 -0.070358783572145894 0
-1.1844719533695208e-05 -0.036935565045056955 0
-1.2655888260848201e-05 -0.037447041163640414 0
-1.3168111452290685e-05 -0.037843850899821244 0
-1.3642259016220565e-05 -0.038222770398738136 0
-1.4113743466000593e-05 -0.038595447101626636 0
-1.4465161452419965e-05 -0.038981419825279168 0
-1.4660004724450478e-05 -0.039393035595924913 0
-1.5029621394260838e-05 -0.039838829372516205 0
-1.5211058963623881e-05 -0.040325483119168677 0
-1.5331927050052232e-05 -0.040859159311343513 0
-1.5398130726035795e-05 -0.041446494801733805 0
-1.5741994333323856e-05 -0.042094164672782652 0
-1.5970997659009609e-05 -0.042809436086212078 0
-1.6247471951422769e-05 -0.043604841910371887 0
-1.6408194119733572e-05 -0.044497686834248665 0
-1.6538448626949747e-05 -0.045507473491346172 0
-1.6810789787989514e-05 -0.046662298371023946 0
-1.7018531125256387e-05 -0.04798962594208088 0
-1.7187040920840636e-05 -0.049530490780649944 0
-1.7404682539898242e-05 -0.051338329301177543 0
-1.7551556371438008e-05 -0.053497740532452806 0
-1.7776358189464851e-05 -0.056142843899089204 0
-1.805615996867875e-05 -0.059502271691743762 0
-1.8288068018369805e-05 -0.064052482049763465 0
-1.8566825629848107e-05 -0.071438340023876154 0
-4.3529999688775265e-06 -0.037009692749353347 0
-4.6592768312889119e-06 -0.037525917795044633 0
-4.8873948697600011e-06 -0.037926947591424363 0
-5.0647360698650953e-06 -0.038310486603145143 0
-5.1879586306280878e-06 -0.03868796253776103 0
-5.3643452306284523e-06 -0.039078844746079908 0
-5.4676150499139975e-06 -0.039496504361485663 0
-5.56629248753359e-06 -0.039949329648660201 0
-5.5648421932423003e-06 -0.040443976253067594 0
-5.7001804703537664e-06 -0.04098752824136187 0
-5.8154890095511312e-06 -0.041586655156467082 0
-5.9091524234022441e-06 -0.042248510932743982 0
-5.9695060963429614e-06 -0.042980644865421913 0
-6.3027866004022988e-06 -0.043795556048158324 0
-6.3820922086545836e-06 -0.044712729953841519 0
-6.4509233283928643e-06 -0.04575205841998934 0
-6.6934527936063296e-06 -0.046938823495260601 0
-6.806548915005363e-06 -0.048304419436800271 0
-6.9457832289995338e-06 -0.049889764025476319 0
-7.0665181505940716e-06 -0.051750985802529514 0
-7.2288711604810189e-06 -0.05397219342273394 0
-7.5926128078197275e-06 -0.05668640252662549 0
-7.8133480258057734e-06 -0.060122756117521617 0
-8.1251780344799614e-06 -0.064756085120169643 0
-8.4109506201751296e-06 -0.072245381576385395 0
-1.4025006531199202e-06 -0.037049161995852675 0
-1.5051078395833507e-06 -0.037569158334648939 0
-1.5741754961389934e-06 -0.037973303757900576 0
-1.7011294075030488e-06 -0.038359898470757318 0
-1.7528426389430135e-06 -0.038740646057683563 0
-1.8347957764714731e-06 -0.039134955663675211 0
-1.8441820820658779e-06 -0.039556303019166864 0
-1.9330021365392704e-06 -0.040013132353884151 0
-1.9253405098334638e-06 -0.040512236789276242 0
-2.0556039350491959e-06 -0.041060798064385416 0
-2.062696081707554e-06 -0.041665448877318559 0
-2.0831470292158425e-06 -0.042333650733880519 0
-2.3223988885995026e-06 -0.043072773408153464 0
-2.300247476307181e-06 -0.043896144489554 0
-2.2475678692494907e-06 -0.044822395438337735 0
-2.3821714034243952e-06 -0.045872464816355471 0
-2.4342775726718916e-06 -0.047071218298226969 0
-2.541495025051643e-06 -0.048450338809804434 0
-2.6241470044236167e-06 -0.050050994899371815 0
-2.6723092593213542e-06 -0.05192970112615479 0
-2.8154631850271654e-06 -0.054170548740218996 0
-2.9587714517955167e-06 -0.056907056668986045 0
-3.089751681346785e-06 -0.060367606174211615 0
-3.2244998745529515e-06 -0.065027675223821996 0
-3.395531130926026e-06 -0.07255078384768486 0
-7.2881664968177815e-07 -0.037070007539724337 0
-7.8986282886325383e-07 -0.037592242332051232 0
-8.9076650682861173e-07 -0.037997971440873843 0
-9.2940147253944118e-07 -0.038386141116512659 0
-1.0031341595773717e-06 -0.038768411574924992 0
-1.0272088450613397e-06 -0.03916439251995165 0
-1.0438732194395792e-06 -0.039587330894012701 0
-1.0146498010506832e-06 -0.040046028454167229 0
-1.1127886209665571e-06 -0.0405470524333661 0
-1.1145622472896601e-06 -0.04109742546407686 0
-1.0788267632208358e-06 -0.041704472607973317 0
-1.2683005954826497e-06 -0.042374856769555463 0
-1.3149395869162086e-06 -0.043116573947519526 0
-1.2106201727180025e-06 -0.043942546017199366 0
-1.40162724890143e-06 -0.044871674803404191 0
-1.3977313131496908e-06 -0.045925451778862134 0
-1.5010641575368677e-06 -0.047129004267443111 0
-1.5944648021079424e-06 -0.048512970820149708 0
-1.6619301001247301e-06 -0.0501187988630412 0
-1.6714922886784621e-06 -0.05200243795232351 0
-1.7368572258797229e-06 -0.054249520639221227 0
-1.7293923176039395e-06 -0.056992745555759471 0
-1.7909651696134599e-06 -0.060460593459192205 0
-1.8161845304533366e-06 -0.065128923065178243 0
-1.8470232397280123e-06 -0.072662482304633777 0
-3.584967279143434e-07 -0.037080455999616783 0
-3.6860511097723204e-07 -0.037603580202006139 0
-4.2154707457030568e-07 -0.03801010885705787 0
-4.4969949737446388e-07 -0.038398954473897629 0
-4.3726346151625456e-07 -0.038781873455645599 0
-4.3999055002092684e-07 -0.039178502232895304 0
-4.7472842360306545e-07 -0.039602166197426618 0
-4.9536870440198429e-07 -0.040061498129641944 0
-6.0644911422749822e-07 -0.04056330409350889 0
-6.2188579621318217e-07 -0.041114496373987466 0
-6.6219223312904396e-07 -0.041722187131230937 0
-7.8043968348955448e-07 -0.042393683738882929 0
-6.0439268207717806e-07 -0.043136228007914501 0
-5.9300456462456526e-07 -0.043963528748808392 0
-8.1592379583858371e-07 -0.044894265431889409 0
-7.1286571378694858e-07 -0.045948925520699652 0
-7.5962381833761685e-07 -0.047153192112881187 0
-7.3414935164267012e-07 -0.048538114021736196 0
-7.1974551893641739e-07 -0.050145217961167034 0
-7.0720378254802093e-07 -0.052031197028595003 0
-7.2147673490098491e-07 -0.05428044148573339 0
-7.4059229273755705e-07 -0.057025784222191102 0
-7.1708409219745956e-07 -0.060496810425293548 0
-7.122317989913091e-07 -0.065167981273457187 0
-6.9706580546475682e-07 -0.072704943790919588 0
9.8546053857336608e-08 -0.037084128778003343 0
1.334169534089208e-07 -0.03760782932226385 0
1.4190265739220026e-07 -0.038014717514068146 0
1.7981210027131152e-07 -0.038403758023428984 0
2.2616082129793245e-07 -0.038786924000354495 0
2.728929493145467e-07 -0.039183796797651278 0
2.6623900281060419e-07 -0.039607850137195491 0
2.0124871701721813e-07 -0.040067376458735725 0
2.8324574713971425e-07 -0.040569311367018156 0
3.6800804437179968e-07 -0.041120793349510486 0
3.4698467999782327e-07 -0.041728817300367607 0
1.7613600383063182e-07 -0.042400357175121792 0
1.3949088214597084e-07 -0.043143234161066094 0
1.5648178243594535e-07 -0.043971003219931519 0
2.359411766376421e-07 -0.044902168275036534 0
1.1362194246558951e-07 -0.045957970342823805 0
1.3478529135406893e-07 -0.047162763042092284 0
1.2927418742872037e-07 -0.048547938067750526 0
1.6866496351540486e-07 -0.050155830853627577 0
1.5390794219112778e-07 -0.052042561026782057 0
1.3198514677516742e-07 -0.054292475415506546 0
8.5195637926167263e-08 -0.05703895900710395 0
3.2702231959517667e-08 -0.060511021588607918 0
-2.4881816373563362e-08 -0.065185213971545072 0
-7.2930222194255548e-08 -0.072721205600355776 0
2.9096166175615054e-08 -0.037084713260844261 0
4.9623482995510943e-08 -0.037608296865859113 0
1.2596038446249686e-07 -0.038015191995554053 0
1.4956233288908026e-07 -0.038404345561193071 0
1.4050401405292029e-07 -0.038787785924202858 0
1.7055631916404948e-07 -0.039184741550554895 0
1.8022115339178835e-07 -0.03960872668439859 0
2.096045245407539e-07 -0.040068552675973271 0
1.7762709574362799e-07 -0.040570722380329681 0
2.0713686829827933e-07 -0.04112236045883249 0
2.6315767026734123e-07 -0.041730686846996864 0
1.4806588215436831e-07 -0.042402482667595429 0
-1.7171491899970875e-08 -0.043146049192290675 0
1.3284045365797392e-07 -0.043973921348592904 0
1.860595781229936e-07 -0.044905192519912956 0
2.0633430501287709e-07 -0.045960490493790321 0
1.8229413979365077e-07 -0.047164873977473626 0
1.9527568562379713e-07 -0.048550310733471956 0
2.2149543361654572e-07 -0.050158526856126089 0
1.3751699889228885e-07 -0.05204546289985422 0
1.5734281028610331e-07 -0.054295178459659151 0
1.5440870903523527e-07 -0.057040863671940077 0
1.5765882926536551e-07 -0.060510557619397366 0
9.9832081949605679e-08 -0.065185599164067992 0
2.9266006024916941e-08 -0.072723259952416811 0
-1.4567358351306695e-07 -0.037083412401187205 0
-1.9955083919729585e-07 -0.037606924594628076 0
-2.1649508169679083e-07 -0.038013657561397053 0
-2.6393822547173159e-07 -0.038402737687015652 0
-3.0053489815355435e-07 -0.038785996551885665 0
-3.0502184359035732e-07 -0.039182864961418852 0
-3.1037341647419948e-07 -0.039606901032847891 0
-3.3568154865152419e-07 -0.040066601265426841 0
-3.3354823404623812e-07 -0.040568679829877809 0
-1.6469778322626242e-07 -0.041120024407567887 0
-3.0133248191318819e-07 -0.041728114126777648 0
-3.6459769698306737e-07 -0.042399891305680837 0
-2.6248377787319033e-07 -0.043143313619090115 0
-6.5929435576074543e-08 -0.04397117143033883 0
-2.746441168873852e-07 -0.044902402948463191 0
-4.0095879174910569e-07 -0.045957727159088649 0
-4.3098453861874117e-07 -0.047162022477722373 0
-4.0582699042211618e-07 -0.048547475209057188 0
-4.354989933465566e-07 -0.050155292788170408 0
-3.8875406477293367e-07 -0.052041934908441001 0
-3.1948015759388973e-07 -0.054291347914792655 0
-2.7605814314443694e-07 -0.057036638603484971 0
-1.9338332546969231e-07 -0.060505946692817641 0
-1.5111298642254841e-07 -0.065180301613961364 0
-1.491378057851736e-07 -0.072718202719797745 0
-1.5169910102781967e-07 -0.037079480906959887 0
-2.0653051041636731e-07 -0.037602574100878215 0
-2.6915372526009323e-07 -0.038009051656966705 0
-2.4126710971241113e-07 -0.038397800475468945 0
-3.285069791953994e-07 -0.038780665509971467 0
-2.8433556992555945e-07 -0.039177286625984728 0
-3.1196357372817997e-07 -0.039601097294981041 0
-3.1048943694056613e-07 -0.040060241365725738 0
-3.2034128272838133e-07 -0.040561956344230612 0
-3.3147930089395741e-07 -0.041113228647286844 0
-2.8138317747615156e-07 -0.041720548796669622 0
-3.2563999648454121e-07 -0.042391982208700496 0
-3.1298477748241486e-07 -0.043135066431296991 0
-3.2119570124757139e-07 -0.043962519652198419 0
-3.6700273467094868e-07 -0.044893168922674399 0
-2.98911313644504e-07 -0.045947895508258133 0
-2.5696117774278874e-07 -0.047151511456843306 0
-2.4721115483143786e-07 -0.048536372066450589 0
-2.5278808027932282e-07 -0.050143629491155417 0
-1.6862435397853113e-07 -0.052029444087973782 0
-9.7851243842327681e-08 -0.05427812755408129 0
-4.441459581314536e-08 -0.057023291639894953 0
3.3614848165162244e-08 -0.060494455970377982 0
1.4677571864594388e-07 -0.065165187280424614 0
2.5198179302701268e-07 -0.072701860307662167 0
4.7714341329212852e-07 -0.037069793104521701 0
5.3361041407364024e-07 -0.037591896736131496 0
5.6291657971059716e-07 -0.037997675020896765 0
5.9691570469127275e-07 -0.038385757786696152 0
6.4449063948957664e-07 -0.03876790455056367 0
6.3302629182957252e-07 -0.03916381000322873 0
6.3727801123550733e-07 -0.039586894035447656 0
6.3053275593858573e-07 -0.040045483011991713 0
6.9956105200994883e-07 -0.040546192865129879 0
7.3747285787797796e-07 -0.041096681551732892 0
8.3943578328799486e-07 -0.041703308611945114 0
7.8412218304015406e-07 -0.042373631016378664 0
8.6224495756466467e-07 -0.043115129111069975 0
9.5378747681374325e-07 -0.043941097720247888 0
9.9658862630119427e-07 -0.044870482572325981 0
1.0123379613671888e-06 -0.045923598114591603 0
8.9278513348769533e-07 -0.047125463429175327 0
9.9706123552240698e-07 -0.048509181199044224 0
9.4582960598217763e-07 -0.050114643527280525 0
9.9150220752934457e-07 -0.051997728549115482 0
1.0343255425284163e-06 -0.05424364195830942 0
1.0658918740546429e-06 -0.056986188821326923 0
1.0833480275280968e-06 -0.060459632728219082 0
1.1534034355620689e-06 -0.065125839904376939 0
1.2077388146954067e-06 -0.07265895039015266 0
1.4122234012636469e-06 -0.03704834908893042 0
1.5562022386547426e-06 -0.03756830447503063 0
1.688762395124057e-06 -0.037972403035663002 0
1.7466299641852575e-06 -0.038359004152910367 0
1.8496065924194988e-06 -0.038739826684840648 0
1.9272293583236987e-06 -0.039134175288389056 0
2.0306879760949201e-06 -0.039555241306553461 0
2.1193925236885481e-06 -0.040012118518317805 0
2.2147266922173359e-06 -0.040511372076993651 0
2.2791121566157074e-06 -0.041059850258507134 0
2.2816947407234386e-06 -0.041664390303458219 0
2.3608100361212256e-06 -0.042332535086830762 0
2.4744573338770335e-06 -0.043071726236520093 0
2.4825867582157314e-06 -0.043895031986543043 0
2.5879392454450076e-06 -0.04482125878846082 0
2.5738846795527962e-06 -0.045871340833340123 0
2.5079681970726599e-06 -0.047068988385938468 0
2.5476876946156869e-06 -0.048448152844836598 0
2.6194339694135208e-06 -0.05004853223606491 0
2.6775512716509346e-06 -0.051926573894365856 0
2.6795051260961036e-06 -0.054166549882314056 0
2.7399487986894903e-06 -0.05690177402407625 0
2.6990775766295235e-06 -0.06036524202985518 0
2.7652440136615735e-06 -0.0650249662575971 0
2.9129328115343518e-06 -0.072547379386620078 0
4.0002551861368165e-06 -0.037009201296090387 0
4.2639745197734018e-06 -0.037525370206064848 0
4.4633748766271401e-06 -0.037926362078128134 0
4.6195124996896094e-06 -0.038310158489687871 0
4.6839060057494783e-06 -0.038687731657411302 0
4.8273226824727717e-06 -0.039078694036775441 0
4.935690300276181e-06 -0.039496154604125568 0
5.0951872083122851e-06 -0.039948510687626893 0
5.1029231883892732e-06 -0.040443240549042241 0
5.2202402030696844e-06 -0.040986878509426429 0
5.3830936881099323e-06 -0.041585889308928127 0
5.3280657087395872e-06 -0.042247948346761863 0
5.5697989629982527e-06 -0.042980208026984303 0
5.5037451232285327e-06 -0.043795407463398675 0
5.6266247700224416e-06 -0.044712623027279699 0
5.7212560856940863e-06 -0.045752167800470755 0
5.8502656738376809e-06 -0.04693864742249855 0
5.9890627948385307e-06 -0.048303861096425822 0
6.1427626857865132e-06 -0.04988927478266806 0
6.3163046854062683e-06 -0.051750562944414116 0
6.4999761097969929e-06 -0.053971326947657612 0
6.732331496424221e-06 -0.056684906701866863 0
6.9977122451460092e-06 -0.060121596533490265 0
7.3018380319364937e-06 -0.064754214066415752 0
7.6972936868125682e-06 -0.072242749514643531 0
1.1500382221486729e-05 -0.036935330803943824 0
1.2237709018309514e-05 -0.037446744302409095 0
1.2660904891001948e-05 -0.037843591206955053 0
1.3084603233547604e-05 -0.038222490633373164 0
1.3559734878282142e-05 -0.038595297077276887 0
1.387510312220574e-05 -0.038981134028233166 0
1.4072601218557729e-05 -0.039392831159557148 0
1.4269808561502674e-05 -0.039838847967821937 0
1.442286652428384e-05 -0.040325449857223257 0
1.4615747543354337e-05 -0.040859127047251476 0
1.4544892185498991e-05 -0.041446463677179184 0
1.4848663946835774e-05 -0.042094167411984885 0
1.5039799216825864e-05 -0.042809694672834936 0
1.5310277385043694e-05 -0.043604890817698985 0
1.5580137928285577e-05 -0.044498331142360022 0
1.582456169525431e-05 -0.045509702562684412 0
1.6004811951262879e-05 -0.046663112611847364 0
1.6268536684900257e-05 -0.04798975975568661 0
1.6504059041590728e-05 -0.049530190239672735 0
1.6735963745370477e-05 -0.051339556169340647 0
1.694907848260787e-05 -0.053499824099888141 0
1.7196390064174109e-05 -0.056143508612914172 0
1.7524447621117767e-05 -0.059502737783301028 0
1.7783215710129177e-05 -0.064052756902742411 0
1.806009599953551e-05 -0.071438166888329893 0
1.9985916738727698e-05 -0.036744243397336264 0
2.1025616369218038e-05 -0.037214448254681821 0
2.176805744984373e-05 -0.037579175130740945 0
2.2432627681724079e-05 -0.037934495111933142 0
2.303423504984219e-05 -0.038292686588560741 0
2.3591887275381421e-05 -0.038668394652267145 0
2.4115802373887478e-05 -0.039071386502264507 0
2.4611875320830445e-05 -0.03950800183350793 0
2.5076050783147207e-05 -0.039983774256601066 0
2.5500597737709518e-05 -0.040504955876056292 0
2.5875445026227683e-05 -0.041077856937784117 0
2.6192156018855092e-05 -0.041709048913873482 0
2.6451515320168906e-05 -0.042405582467140171 0
2.6669497297743138e-05 -0.04317854409128738 0
2.6848890117054087e-05 -0.044046450471601634 0
2.701496264498159e-05 -0.045028992943707956 0
2.7183207361119006e-05 -0.046150739358485904 0
2.7365177037939755e-05 -0.047441540772136352 0
2.7570304275969287e-05 -0.048943685113727306 0
2.7815377552299148e-05 -0.050710807536656535 0
2.8104641612413451e-05 -0.0528283956398325 0
2.8462543830232382e-05 -0.055433151208190923 0
2.8897357031653297e-05 -0.058756528686471361 0
2.9456616373306236e-05 -0.063250972720496929 0
3.0276657126812752e-05 -0.070358379425878553 0
-0 -0 0
-0 -0 0
-0 -0 0
-0 -0 0
-0 -0 0
-0 -0 0
2.0150890276406454e-05 0.035592207617617527 0
2.3468776175971483e-05 0.038549434031861715 0
2.6849027859292638e-05 0.044224883014711704 0
-0 -0 0
-0 -0 0
-0 -0 0
2.1953808148911667e-05 0.037567923330318505 0
2.3755492149776006e-05 0.039345635351915265 0
2.6342485249811805e-05 0.044576281094404917 0
-0 -0 0
-0 -0 0
-0 -0 0
1.7159843995138266e-05 0.037698357264741661 0
1.8953935056676303e-05 0.039487012839880743 0
2.1182369729407509e-05 0.044735731002024201 0
-0 -0 0
-0 -0 0
-0 -0 0
8.8845862602807492e-06 0.037843876263022311 0
9.9069851889659363e-06 0.039650362650050848 0
1.1261790540752434e-05 0.04497701293356994 0
-0 -0 0
-0 -0 0
-0 -0 0
3.2181310483398611e-06 0.037906905432996955 0
3.7052936769328783e-06 0.039732244519794901 0
4.3856455992140739e-06 0.04512312351311 0
-0 -0 0
-0 -0 0
-0 -0 0
1.232438345618144e-06 0.037941491716738975 0
1.4762921394690146e-06 0.039776406137101261 0
1.8575756764771196e-06 0.045194843778190032 0
-0 -0 0
-0 -0 0
-0 -0 0
6.3373879498511687e-07 0.037959404499452565 0
7.6901434663365975e-07 0.039798604215574955 0
9.8785794344323996e-07 0.045227252584825343 0
-0 -0 0
-0 -0 0
-0 -0 0
1.259057358590694e-07 0.03796748841589094 0
1.4212644241539642e-07 0.039808489370490294 0
2.045615433357149e-07 0.045240965095824467 0
-0 -0 0
-0 -0 0
-0 -0 0
-1.430233739578202e-07 0.037969931930774463 0
-1.9924764409075621e-07 0.039811704246086571 0
-2.1727994931927117e-07 0.045245842238974376 0
-0 -0 0
-0 -0 0
-0 -0 0
6.2655859672486833e-08 0.037969477867104424 0
6.6184081185142551e-08 0.039811271373398779 0
7.1826258635663585e-08 0.045245623813004066 0
-0 -0 0
-0 -0 0
-0 -0 0
2.4728314280639997e-07 0.037966503904955498 0
3.1356619187706971e-07 0.039807477067288981 0
3.4429454692814238e-07 0.045240202373197771 0
-0 -0 0
-0 -0 0
-0 -0 0
-1.5321231632483818e-07 0.037958744840352401 0
-1.87876641469611e-07 0.039797760316722448 0
-2.9855543230705526e-07 0.04522594676651312 0
-0 -0 0
-0 -0 0
-0 -0 0
-1.103230641633293e-06 0.037940914592567279 0
-1.3463280805994352e-06 0.039775710568712937 0
-1.6680655515561519e-06 0.045193515739871751 0
-0 -0 0
-0 -0 0
-0 -0 0
-3.0165659990104927e-06 0.037906249155972793 0
-3.4755012389104897e-06 0.039731617751967867 0
-4.0683198464291415e-06 0.045122427744395496 0
-0 -0 0
-0 -0 0
-0 -0 0
-8.4357949238347426e-06 0.037843532035531598 0
-9.3267551866320383e-06 0.039650082267213463 0
-1.0543475666635904e-05 0.04497702370523031 0
-0 -0 0
-0 -0 0
-0 -0 0
-1.6699945283476458e-05 0.037698246181700645 0
-1.839791610986478e-05 0.039487026852669374 0
-2.0541401150893328e-05 0.044736117728492189 0
-0 -0 0
-0 -0 0
-0 -0 0
-2.1502167751863383e-05 0.037567968107560225 0
-2.3256717546274445e-05 0.039345756318738406 0
-2.5783932624460254e-05 0.044576822056733217 0
-0 -0 0
-0 -0 0
-0 -0 0
-1.9740626747481656e-05 0.035591898070148557 0
-2.2985669357255347e-05 0.038549371645175565 0
-2.629611028909919e-05 0.044225478614565585 0
-0 -0 0
-0 -0 0
-0 -0 0
-0 -0 0
-0 -0 0
-0 -0 0
-0 -0 0
-0 -0 0
-0 -0 0
-0 -0 0
-0 -0 0
-0 -0 0
-0 -0 0
-0 -0 0
-0 -0 0
-0 -0 0
-0 -0 0
-0 -0 0
-0 -0 0
-0 -0 0
-0 -0 0
-0 -0 0
-0 -0 0
-0 -0 0
-0 -0 0
-0 -0 0
-0 -0 0
-0 -0 0
-0 -0 0
-0 -0 0
-0 -0 0
-0 -0 0
-0 -0 0
-0 -0 0
-0 -0 0
-0 -0 0
-0 -0 0
-0 -0 0
-0 -0 0
-0 -0 0
-0 -0 0
-0 -0 0
-0 -0 0
-0 -0 0
-0 -0 0
-0 -0 0
-0 -0 0
-0 -0 0
-0 -0 0
-0 -0 0
-0 -0 0
-0 -0 0
-0 -0 0
-0 -0 0
-0 -0 0
-0 -0 0
-0 -0 0
-0 -0 0
-0 -0 0
-0 -0 0
-0 -0 0
-0 -0 0
-0 -0 0
-0 -0 0
-0 -0 0
-0 -0 0
-0 -0 0
-0 -0 0
-0 -0 0
-0 -0 0
-0 -0 0
-0 -0 0
-0 -0 0
-0 -0 0
-0 -0 0
-0 -0 0
-0 -0 0
-0 -0 0
-0 -0 0
-0 -0 0
-0 -0 0
-0 -0 0
-0 -0 0
-0 -0 0
-0 -0 0
-0 -0 0
-0 -0 0
-0 -0 0
-0 -0 0
-0 -0 0
-0 -0 0
-0 -0 0
-0 -0 0
-0 -0 0
-0 -0 0
-0 -0 0
-0 -0 0
-0 -0 0
-0 -0 0
-0 -0 0
-0 -0 0
-0 -0 0
-0 -0 0
-0 -0 0
-0 -0 0
-0 -0 0
-0 -0 0
-0 -0 0
-0 -0 0
-0 -0 0
-0 -0 0
-0 -0 0
-0 -0 0
-0 -0 0
-0 -0 0
-0 -0 0
-0 -0 0
-0 -0 0
-0 -0 0
-0 -0 0
-0 -0 0
-0 -0 0
-0 -0 0
-0 -0 0
-0 -0 0
-0 -0 0
-0 -0 0
-0 -0 0
-0 -0 0
-0 -0 0
-0 -0 0
-0 -0 0
-0 -0 0
-0 -0 0
-0 -0 0
-0 -0 0
-0 -0 0
-0 -0 0
-0 -0 0
-0 -0 0
-0 -0 0
-0 -0 0
-0 -0 0
-0 -0 0
-0 -0 0
-0 -0 0
-0 -0 0
-0 -0 0
-0 -0 0
-0 -0 0
-0 -0 0
-0 -0 0
-0 -0 0
-0 -0 0
-0 -0 0
-0 -0 0
-0 -0 0
-0 -0 0
-0 -0 0
-0 -0 0
-0 -0 0
-0 -0 0
-0 -0 0
-0 -0 0
-0 -0 0
-0 -0 0
-0 -0 0
-0 -0 0
-0 -0 0
-0 -0 0
-0 -0 0
-0 -0 0
-0 -0 0
-0 -0 0
-0 -0 0
-0 -0 0
-0 -0 0
-0 -0 0
-0 -0 0
-0 -0 0
-0 -0 0
-0 -0 0
-0 -0 0
-0 -0 0
-0 -0 0
-0 -0 0
-0 -0 0
-0 -0 0
-0 -0 0
-0 -0 0
-0 -0 0
-0 -0 0
-0 -0 0
-0 -0 0
-0 -0 0
