# vtk DataFile Version 3.0
SPH particles (WCSPH) - legacy PolyData
ASCII
DATASET POLYDATA
POINTS 681 float
0.049989886544266886 0.017014196112418417 0
0.049988823245361663 0.019129664257053196 0
0.049987968755513562 0.020836749050400404 0
0.049987129454820776 0.02252156146917975 0
0.049986374754432815 0.02415909439637396 0
0.049985707289536108 0.025747576558363856 0
0.049985093563510975 0.02729273082559866 0
0.049984494632990727 0.028802684594602612 0
0.049983851340885017 0.0302865300216821 0
0.049983072125244013 0.031752087551881227 0
0.049981707816821777 0.033207692322810407 0
0.049979902076706016 0.034661441583645654 0
0.049979195270610358 0.036121307096282307 0
0.049979941494925649 0.037595456008052655 0
0.049981426618035348 0.039092657022539341 0
0.049983184885523044 0.040622377462879791 0
0.049985005634827953 0.042196580384157661 0
0.049986719920102292 0.043829686690069661 0
0.049988318349272608 0.045541248052863921 0
0.049989741431037155 0.047344793324318971 0
0.049990940354001617 0.04927916449978987 0
0.049991913923515083 0.051391418024564636 0
0.049992691944075809 0.053755701930095448 0
0.04999331059565857 0.0565097702514199 0
0.049994093470141492 0.060020617747167354 0
0.069994657481624145 0.015793741587298196 0
0.069994033102830588 0.01812875035648015 0
0.069993568860186858 0.020025425488121782 0
0.069993152620063295 0.021861178917911686 0
0.069992764582272604 0.023622404852094523 0
0.069992378992023707 0.025315439448707025 0
0.069991998333746891 0.026951685354989617 0
0.069991615067568236 0.028543198572262216 0
0.069991212314901324 0.030101954481717774 0
0.069990742391691063 0.03163770653293034 0
0.069989829498535994 0.033160342554704493 0
0.069987972662090031 0.03467933307705004 0
0.069986874575623081 0.03620347279025115 0
0.06998705573035556 0.037741609830166417 0
0.069987955255829154 0.039303588807974493 0
0.069989093692018209 0.04089989878555618 0
0.069990315281627372 0.042544244330462833 0
0.069991519558030388 0.04425191998728905 0
0.069992646682451268 0.046041612927248336 0
0.069993626615612231 0.047936309210767102 0
0.069994438059833353 0.04997417167676018 0
0.069995086848892663 0.052207228800707384 0
0.069995576598156542 0.054722513599166508 0
0.069995960547117153 0.057682841323589418 0
0.069996456503033433 0.061527743497339728 0
0.089998097029450996 0.015738794240145418 0
0.089997866440177376 0.018075418962651735 0
0.089997697867005705 0.019975413328789916 0
0.089997536326384131 0.021816739053452494 0
0.08999737166138673 0.023584970150287151 0
0.089997200824184054 0.025285920278126775 0
0.089997022347040018 0.026930914638606619 0
0.089996844015044056 0.02853176559035504 0
0.089996642435223928 0.030099972199713325 0
0.089996416481084654 0.031645822616182158 0
0.089996144542042467 0.033179014776263338 0
0.089995762811274499 0.034709150696369012 0
0.089995390581992532 0.036244870833283364 0
0.08999533574914402 0.037795092485800846 0
0.089995571569108201 0.039369601463787034 0
0.089995897069106545 0.040979111665933106 0
0.089996281094086944 0.042637181621464466 0
0.08999667089450801 0.044358343580759026 0
0.089997041298303007 0.046161948674254785 0
0.089997350828812134 0.048073603522239799 0
0.089997603099197396 0.05012926043518199 0
0.089997790016142026 0.052381585620013271 0
0.089997953499823535 0.054917795231962802 0
0.089998084860911015 0.057900599657973804 0
0.089998296642309641 0.061774652995905267 0
0.10999932036532971 0.015745654368690631 0
0.10999923178454074 0.018083121783682925 0
0.10999916082121355 0.019983888564496465 0
0.10999908905299637 0.021826095356345297 0
0.10999901632791957 0.02359531038595709 0
0.10999895903062992 0.025297353172916853 0
0.10999889415384699 0.026943566432760673 0
0.10999881212611176 0.028545737815434204 0
0.10999872100160958 0.030115236412244256 0
0.10999862216963183 0.0316624827684409 0
0.10999852507618639 0.033197150508377189 0
0.10999839694593708 0.034728972633134667 0
0.10999829630773995 0.036266422907319434 0
0.10999829212816332 0.037818522535119324 0
0.10999833398670465 0.039395037516236082 0
0.10999843099808067 0.04100696951933188 0
0.10999855474998495 0.04266729739080978 0
0.10999869304330487 0.044390652637755157 0
0.10999882907186333 0.046196634038727667 0
0.10999893527002691 0.048110870516320986 0
0.10999901590352887 0.050169391813275205 0
0.10999907528757379 0.052424938436186105 0
0.10999913067742166 0.054964763468173326 0
0.10999918106551076 0.057951650275152207 0
0.1099992710226623 0.06183144663621977 0
0.12999972021960177 0.015750660793741201 0
0.12999968480092977 0.018088649460667988 0
0.12999965955297857 0.019989806148517499 0
0.12999963633798628 0.021832363014644585 0
0.12999962246386398 0.023601927005759488 0
0.12999959325216595 0.025304277660719774 0
0.12999956988026637 0.0269507621731187 0
0.12999953525291025 0.028553214954436558 0
0.12999950218923387 0.030122991269111245 0
0.1299994601973711 0.03167051890377244 0
0.12999940258356688 0.03320551351772133 0
0.1299993321022837 0.034737404833901774 0
0.12999932026146246 0.036274969881923268 0
0.12999932071304193 0.037827143266440252 0
0.12999929453712578 0.039403769619970129 0
0.12999934088803669 0.041016363993730459 0
0.12999939431331387 0.042678239441090469 0
0.12999945019872516 0.044402533094546684 0
0.12999949543354958 0.046209085744893338 0
0.1299995303404135 0.048123252409261803 0
0.12999956061736456 0.050182348318835127 0
0.12999958474123871 0.052438576919243605 0
0.12999960624136622 0.054979176106089267 0
0.12999962681850233 0.057966934079103513 0
0.12999966622143344 0.061848108016230155 0
0.14999988523736829 0.015752751263480917 0
0.14999987341051949 0.018091023072266448 0
0.14999986481935629 0.019992458573320944 0
0.14999985673644931 0.021835117185963256 0
0.14999984601515429 0.023604790793308107 0
0.14999983761908631 0.025307319468519263 0
0.14999983437876424 0.026953897410740668 0
0.14999982817942212 0.028556485287047552 0
0.14999981634987195 0.030126400072182345 0
0.14999979048405918 0.031674060726980688 0
0.14999976415197336 0.033209318326427442 0
0.14999974375630856 0.034741402506766557 0
0.14999972186507279 0.036279213627615388 0
0.14999970304895621 0.037831918858060899 0
0.14999969807718153 0.039408966216946457 0
0.14999971789181241 0.04102162331390416 0
0.1499997471598572 0.042682574838853196 0
0.14999977966284492 0.044406354789728909 0
0.14999977355758587 0.046212951579180477 0
0.14999977111137183 0.048127843101513773 0
0.14999978087631308 0.050187116430885234 0
0.14999979546420636 0.052443584800962624 0
0.14999980544581309 0.054984551025773744 0
0.14999981104316643 0.05797271133364524 0
0.1499998285126769 0.061853978019214897 0
0.16999993833734714 0.015752902330931726 0
0.16999993146614042 0.018091532357300311 0
0.16999992491724134 0.019993408731889255 0
0.16999991862490541 0.021835981064545647 0
0.16999990953074093 0.023605668462758678 0
0.16999990068677773 0.025308274297870293 0
0.16999988794749191 0.026954904781065676 0
0.16999988231529481 0.028557500391942887 0
0.16999987264061778 0.030127361585449649 0
0.16999985871390141 0.031674816134546091 0
0.16999983711852881 0.033210214388284982 0
0.16999978818366873 0.034742203231912974 0
0.16999976668513775 0.036279736999073019 0
0.16999973763528636 0.03783295539280622 0
0.16999975223027472 0.039410176759828781 0
0.16999980440362741 0.041023188074461828 0
0.169999826272628 0.042684259327356373 0
0.16999982794563628 0.044407440266821849 0
0.16999980681746846 0.046214018699753091 0
0.16999982562885257 0.048129113011161392 0
0.16999984970114709 0.050188451914513696 0
0.16999986522919189 0.052445055889621076 0
0.16999986634040004 0.054986312879285702 0
0.16999987397539132 0.057975624671028778 0
0.1699998908571613 0.061855794793570971 0
0.18999995377787757 0.015753405453779769 0
0.18999994880553661 0.018091556562068414 0
0.18999994835150893 0.019993024118114541 0
0.18999994391718195 0.021835942941695528 0
0.18999993755993774 0.023605968730803277 0
0.18999992682921252 0.025308437244640963 0
0.18999992330485208 0.026955046998577772 0
0.18999990610701187 0.028557703388041106 0
0.18999989140765861 0.030127491294327065 0
0.18999988203688262 0.031674863190997417 0
0.18999988643081425 0.033210583325238269 0
0.18999989982337981 0.034742774878175189 0
0.18999990922953594 0.036280585430868421 0
0.18999990832589134 0.037833689412130896 0
0.18999990930056893 0.039410886417086531 0
0.18999990935829519 0.041023509270267412 0
0.1899998986993823 0.042684142336910182 0
0.18999987529724433 0.044407804042423941 0
0.18999984804019571 0.046214369783021111 0
0.18999990233916686 0.048129379128903284 0
0.18999990913475964 0.050188449901637677 0
0.18999992465999962 0.052444360198554488 0
0.18999993331949852 0.054984187211887518 0
0.18999994144722263 0.057974381908330701 0
0.1899999529685743 0.061855663866848279 0
0.20999998630538849 0.01575342135486817 0
0.20999998471493977 0.018091615125081912 0
0.20999998129821978 0.019992866313599044 0
0.20999997826945813 0.021835401595977744 0
0.20999997495981079 0.023605398888020671 0
0.20999996617351163 0.025307876784817575 0
0.20999996484461972 0.026954576952206211 0
0.20999996384478276 0.028557418044542027 0
0.20999996378582325 0.030127346449093324 0
0.20999994698675178 0.031674833294131011 0
0.20999994356600885 0.033209816499056508 0
0.20999993958365229 0.034741934612898491 0
0.20999994665330038 0.036280472326002837 0
0.2099999380956265 0.037833501479056564 0
0.2099999413053055 0.039410597978502611 0
0.20999994703726707 0.041023069537914555 0
0.20999994691373577 0.042683546141535543 0
0.20999994695564192 0.044407344394840995 0
0.2099999720348239 0.046213897232238288 0
0.20999996967952156 0.048128879698336818 0
0.20999996608195243 0.050187916284622582 0
0.20999996024120271 0.052443762533915632 0
0.20999996641995991 0.054983409325552998 0
0.20999997351573854 0.057973401324515873 0
0.20999998146792975 0.061854964538695219 0
0.23000006882807361 0.015752511323694537 0
0.2300000736981464 0.018090626034175668 0
0.2300000821173899 0.019991843559682837 0
0.2300000836166807 0.021834338285874184 0
0.23000008002345573 0.023603922498711006 0
0.23000008670015157 0.025306649820799904 0
0.23000009915386649 0.026953698203327596 0
0.23000011158864858 0.028556108603636617 0
0.23000011958757885 0.030125891203413569 0
0.23000012246684345 0.031673333550233412 0
0.2300001258933945 0.03320803137205848 0
0.23000013844111977 0.034740414735635917 0
0.2300002018596492 0.036279087066915704 0
0.230000139549456 0.037831869459456956 0
0.23000011939227694 0.039408868072129968 0
0.23000014818173481 0.041021228992206893 0
0.23000015307098176 0.042681585567098897 0
0.23000015793284709 0.044405531433171337 0
0.23000019381542552 0.046212100015429899 0
0.23000015079995373 0.04812692208890848 0
0.23000013433175523 0.05018598006753891 0
0.23000011411883367 0.052442202373990214 0
0.23000010657877909 0.054983584138641614 0
0.23000010325781342 0.057971508366565803 0
0.23000009564470933 0.061852908506445044 0
0.25000020913429988 0.015750306896966978 0
0.25000023222321521 0.01808816619152703 0
0.25000025496900075 0.019989305535672443 0
0.2500002763623429 0.021831762587108536 0
0.25000029232911963 0.023601197538472996 0
0.25000030815311031 0.025303766099101822 0
0.25000033329779858 0.02695027281558264 0
0.25000035467215781 0.028552800974942096 0
0.25000037358378902 0.030122578743846298 0
0.25000040370362703 0.031670070597633104 0
0.25000044986130338 0.033205053399082494 0
0.25000053546244599 0.034737035437972255 0
0.25000057232662837 0.036274840826328772 0
0.25000062782902915 0.037827437534609161 0
0.25000063125600747 0.039404204597175377 0
0.2500005853371578 0.041016136201976049 0
0.25000054832594248 0.04267610055773978 0
0.25000049888859766 0.044400455266947074 0
0.25000046173301604 0.046206991667827754 0
0.25000042843547293 0.048120954555746186 0
0.25000039782045086 0.050179399994721222 0
0.25000036883744398 0.05243539237660795 0
0.25000034315986291 0.054979967137029045 0
0.25000032233805847 0.057966135262009617 0
0.25000028558696707 0.061846810830804837 0
0.2700005797700612 0.015745234092016488 0
0.27000065753339975 0.018082537581913655 0
0.27000071512442431 0.019983160650745711 0
0.27000077085918534 0.021825361738859482 0
0.27000082196211406 0.023594855121533212 0
0.27000087996290734 0.025297123860086899 0
0.27000093786053392 0.026942549903792919 0
0.27000099541764566 0.028545280864492668 0
0.27000107148615282 0.030114899207486334 0
0.27000116587495326 0.031662017938491466 0
0.27000127704494853 0.03319681035304272 0
0.27000138605672791 0.03472845825174066 0
0.27000154711980257 0.036265847947026655 0
0.2700016831283259 0.03781815593927057 0
0.27000164431206986 0.039394705456096343 0
0.27000150499912168 0.041006478902503293 0
0.27000136757237092 0.042666218429880769 0
0.2700012452251217 0.044389508071313123 0
0.27000112385421093 0.046195352737254024 0
0.27000102370991619 0.048109255991066358 0
0.2700009390156175 0.050167178192798381 0
0.27000086526620731 0.052422180332321489 0
0.27000079912344116 0.054964218336632981 0
0.27000074706316501 0.057950920444796453 0
0.27000067021088014 0.061830340035061979 0
0.29000181298906219 0.015738620278721551 0
0.29000203912199218 0.018075163935358796 0
0.29000220605734583 0.019975158314497598 0
0.29000236654662265 0.021816485627321639 0
0.29000253087926903 0.02358475992588336 0
0.2900026955707099 0.025285597170067273 0
0.29000286843420137 0.026929976753914439 0
0.29000306245123891 0.028531627550853648 0
0.29000328677949072 0.030099952684804164 0
0.29000353785734706 0.03164562580149187 0
0.29000384146930441 0.033178868171338187 0
0.29000423860668112 0.034708856774337042 0
0.29000461959211132 0.036244492004349996 0
0.29000467203923269 0.037794877607111615 0
0.2900044454192991 0.039369522625280318 0
0.2900040887641579 0.040979365331378921 0
0.29000368643288293 0.042637084216401756 0
0.29000328375659323 0.044358030684698672 0
0.29000291278293661 0.046161701953939288 0
0.29000259317158533 0.048073496751507572 0
0.29000232602953274 0.050128942411094751 0
0.29000211420906252 0.052381000686281931 0
0.29000194631677306 0.054917505690159185 0
0.29000181400460556 0.057900354198958309 0
0.29000161360341148 0.061774320625594882 0
0.31000539706125568 0.015793792136205298 0
0.31000602212494005 0.018128799926457089 0
0.31000648813649395 0.020025483145283639 0
0.31000691253660179 0.021861234657355941 0
0.31000730725533937 0.023622388943026349 0
0.31000770333483196 0.02531517050782953 0
0.31000809703326165 0.026951233431737099 0
0.31000849704491912 0.028543570347611642 0
0.31000892888663956 0.030102185060658964 0
0.3100094491096993 0.031637790396331744 0
0.31001040859934115 0.033160497824647937 0
0.31001223826099983 0.034679512262930902 0
0.31001328404821876 0.036203659257515508 0
0.3100130629507119 0.037742113153126325 0
0.31001215187912085 0.039304329419325656 0
0.31001101422047472 0.040901198513027405 0
0.31000977838630661 0.04254536451641408 0
0.31000854077524292 0.044252066318694924 0
0.31000739028607166 0.046041122131043867 0
0.31000638532141933 0.047937286613183965 0
0.31000555028057669 0.04997516128294182 0
0.31000488587875058 0.052207593655360041 0
0.31000438919743134 0.054722884894883313 0
0.31000398069234253 0.057683182557481907 0
0.31000346664278683 0.061527984319733213 0
0.33000994410095758 0.017014470043003195 0
0.33001096905290134 0.019129950967074129 0
0.33001179607501069 0.020836998532533121 0
0.33001259418981355 0.022521706349812567 0
0.33001331082207719 0.02415895352177564 0
0.33001393338420726 0.025746975422488032 0
0.33001449987136883 0.027292619369369109 0
0.33001506902261307 0.028803399111672585 0
0.3300156382342509 0.030286881538296402 0
0.33001628781537673 0.031752341139177589 0
0.33001752383882871 0.033208013709981034 0
0.33001930952312253 0.034661844846866637 0
0.3300200126350803 0.036121818602938081 0
0.33001924614140399 0.03759619285180292 0
0.33001779619708149 0.03909357863535113 0
0.33001609442556989 0.040623732931485676 0
0.3300143432330338 0.04219811817012438 0
0.33001265314638684 0.043830364373078017 0
0.3300111004461056 0.045539776373049186 0
0.33000974597152499 0.047345166722537989 0
0.33000861592352693 0.049279669897972021 0
0.33000771524349293 0.051391762278333281 0
0.33000701124193865 0.053756033698432105 0
0.3300064635643214 0.05651003009449701 0
0.3300057417356963 0.060020468030738322 0
0 0 0
0 0.020000000000000004 0
0 0.040000000000000001 0
0 0.54999999999999993 0
0 0.56000000000000005 0
0 0.58000000000000007 0
0.02 0 0
0.02 0.020000000000000004 0
0.02 0.040000000000000001 0
0.02 0.54999999999999993 0
0.02 0.56000000000000005 0
0.02 0.58000000000000007 0
0.040000000000000001 0 0
0.040000000000000001 0.020000000000000004 0
0.040000000000000001 0.040000000000000001 0
0.040000000000000001 0.54999999999999993 0
0.040000000000000001 0.56000000000000005 0
0.040000000000000001 0.58000000000000007 0
0.059999999999999998 0 0
0.059999999999999998 0.020000000000000004 0
0.059999999999999998 0.040000000000000001 0
0.059999999999999998 0.54999999999999993 0
0.059999999999999998 0.56000000000000005 0
0.059999999999999998 0.58000000000000007 0
0.080000000000000002 0 0
0.080000000000000002 0.020000000000000004 0
0.080000000000000002 0.040000000000000001 0
0.080000000000000002 0.54999999999999993 0
0.080000000000000002 0.56000000000000005 0
0.080000000000000002 0.58000000000000007 0
0.10000000000000001 0 0
0.10000000000000001 0.020000000000000004 0
0.10000000000000001 0.040000000000000001 0
0.10000000000000001 0.54999999999999993 0
0.10000000000000001 0.56000000000000005 0
0.10000000000000001 0.58000000000000007 0
0.12 0 0
0.12 0.020000000000000004 0
0.12 0.040000000000000001 0
0.12 0.54999999999999993 0
0.12 0.56000000000000005 0
0.12 0.58000000000000007 0
0.14000000000000001 0 0
0.14000000000000001 0.020000000000000004 0
0.14000000000000001 0.040000000000000001 0
0.14000000000000001 0.54999999999999993 0
0.14000000000000001 0.56000000000000005 0
0.14000000000000001 0.58000000000000007 0
0.16 0 0
0.16 0.020000000000000004 0
0.16 0.040000000000000001 0
0.16 0.54999999999999993 0
0.16 0.56000000000000005 0
0.16 0.58000000000000007 0
0.17999999999999999 0 0
0.17999999999999999 0.020000000000000004 0
0.17999999999999999 0.040000000000000001 0
0.17999999999999999 0.54999999999999993 0
0.17999999999999999 0.56000000000000005 0
0.17999999999999999 0.58000000000000007 0
0.20000000000000001 0 0
0.20000000000000001 0.020000000000000004 0
0.20000000000000001 0.040000000000000001 0
0.20000000000000001 0.54999999999999993 0
0.20000000000000001 0.56000000000000005 0
0.20000000000000001 0.58000000000000007 0
0.22 0 0
0.22 0.020000000000000004 0
0.22 0.040000000000000001 0
0.22 0.54999999999999993 0
0.22 0.56000000000000005 0
0.22 0.58000000000000007 0
0.23999999999999999 0 0
0.23999999999999999 0.020000000000000004 0
0.23999999999999999 0.040000000000000001 0
0.23999999999999999 0.54999999999999993 0
0.23999999999999999 0.56000000000000005 0
0.23999999999999999 0.58000000000000007 0
0.26000000000000001 0 0
0.26000000000000001 0.020000000000000004 0
0.26000000000000001 0.040000000000000001 0
0.26000000000000001 0.54999999999999993 0
0.26000000000000001 0.56000000000000005 0
0.26000000000000001 0.58000000000000007 0
0.28000000000000003 0 0
0.28000000000000003 0.020000000000000004 0
0.28000000000000003 0.040000000000000001 0
0.28000000000000003 0.54999999999999993 0
0.28000000000000003 0.56000000000000005 0
0.28000000000000003 0.58000000000000007 0
0.29999999999999999 0 0
0.29999999999999999 0.020000000000000004 0
0.29999999999999999 0.040000000000000001 0
0.29999999999999999 0.54999999999999993 0
0.29999999999999999 0.56000000000000005 0
0.29999999999999999 0.58000000000000007 0
0.32000000000000001 0 0
0.32000000000000001 0.020000000000000004 0
0.32000000000000001 0.040000000000000001 0
0.32000000000000001 0.54999999999999993 0
0.32000000000000001 0.56000000000000005 0
0.32000000000000001 0.58000000000000007 0
0.34000000000000002 0 0
0.34000000000000002 0.020000000000000004 0
0.34000000000000002 0.040000000000000001 0
0.34000000000000002 0.54999999999999993 0
0.34000000000000002 0.56000000000000005 0
0.34000000000000002 0.58000000000000007 0
0.35999999999999999 0 0
0.35999999999999999 0.020000000000000004 0
0.35999999999999999 0.040000000000000001 0
0.35999999999999999 0.54999999999999993 0
0.35999999999999999 0.56000000000000005 0
0.35999999999999999 0.58000000000000007 0
0.38 0 0
0.38 0.020000000000000004 0
0.38 0.040000000000000001 0
0.38 0.54999999999999993 0
0.38 0.56000000000000005 0
0.38 0.58000000000000007 0
0.40000000000000002 0 0
0.40000000000000002 0.020000000000000004 0
0.40000000000000002 0.040000000000000001 0
0.40000000000000002 0.54999999999999993 0
0.40000000000000002 0.56000000000000005 0
0.40000000000000002 0.58000000000000007 0
0.41999999999999998 0 0
0.41999999999999998 0.020000000000000004 0
0.41999999999999998 0.040000000000000001 0
0.41999999999999998 0.54999999999999993 0
0.41999999999999998 0.56000000000000005 0
0.41999999999999998 0.58000000000000007 0
0.44 0 0
0.44 0.020000000000000004 0
0.44 0.040000000000000001 0
0.44 0.54999999999999993 0
0.44 0.56000000000000005 0
0.44 0.58000000000000007 0
0.46000000000000002 0 0
0.46000000000000002 0.020000000000000004 0
0.46000000000000002 0.040000000000000001 0
0.46000000000000002 0.54999999999999993 0
0.46000000000000002 0.56000000000000005 0
0.46000000000000002 0.58000000000000007 0
0.47999999999999998 0 0
0.47999999999999998 0.020000000000000004 0
0.47999999999999998 0.040000000000000001 0
0.47999999999999998 0.54999999999999993 0
0.47999999999999998 0.56000000000000005 0
0.47999999999999998 0.58000000000000007 0
0.5 0 0
0.5 0.020000000000000004 0
0.5 0.040000000000000001 0
0.5 0.54999999999999993 0
0.5 0.56000000000000005 0
0.5 0.58000000000000007 0
0.52000000000000002 0 0
0.52000000000000002 0.020000000000000004 0
0.52000000000000002 0.040000000000000001 0
0.52000000000000002 0.54999999999999993 0
0.52000000000000002 0.56000000000000005 0
0.52000000000000002 0.58000000000000007 0
0.54000000000000004 0 0
0.54000000000000004 0.020000000000000004 0
0.54000000000000004 0.040000000000000001 0
0.54000000000000004 0.54999999999999993 0
0.54000000000000004 0.56000000000000005 0
0.54000000000000004 0.58000000000000007 0
0.56000000000000005 0 0
0.56000000000000005 0.020000000000000004 0
0.56000000000000005 0.040000000000000001 0
0.56000000000000005 0.54999999999999993 0
0.56000000000000005 0.56000000000000005 0
0.56000000000000005 0.58000000000000007 0
0.57999999999999996 0 0
0.57999999999999996 0.020000000000000004 0
0.57999999999999996 0.040000000000000001 0
0.57999999999999996 0.54999999999999993 0
0.57999999999999996 0.56000000000000005 0
0.57999999999999996 0.58000000000000007 0
0.59999999999999998 0 0
0.59999999999999998 0.020000000000000004 0
0.59999999999999998 0.040000000000000001 0
0.59999999999999998 0.54999999999999993 0
0.59999999999999998 0.56000000000000005 0
0.59999999999999998 0.58000000000000007 0
0.62 0 0
0.62 0.020000000000000004 0
0.62 0.040000000000000001 0
0.62 0.54999999999999993 0
0.62 0.56000000000000005 0
0.62 0.58000000000000007 0
0.64000000000000001 0 0
0.64000000000000001 0.020000000000000004 0
0.64000000000000001 0.040000000000000001 0
0.64000000000000001 0.54999999999999993 0
0.64000000000000001 0.56000000000000005 0
0.64000000000000001 0.58000000000000007 0
0.66000000000000003 0 0
0.66000000000000003 0.020000000000000004 0
0.66000000000000003 0.040000000000000001 0
0.66000000000000003 0.54999999999999993 0
0.66000000000000003 0.56000000000000005 0
0.66000000000000003 0.58000000000000007 0
0.68000000000000005 0 0
0.68000000000000005 0.020000000000000004 0
0.68000000000000005 0.040000000000000001 0
0.68000000000000005 0.54999999999999993 0
0.68000000000000005 0.56000000000000005 0
0.68000000000000005 0.58000000000000007 0
0.70000000000000007 0 0
0.70000000000000007 0.020000000000000004 0
0.70000000000000007 0.040000000000000001 0
0.70000000000000007 0.54999999999999993 0
0.70000000000000007 0.56000000000000005 0
0.70000000000000007 0.58000000000000007 0
0.71999999999999997 0 0
0.71999999999999997 0.020000000000000004 0
0.71999999999999997 0.040000000000000001 0
0.71999999999999997 0.54999999999999993 0
0.71999999999999997 0.56000000000000005 0
0.71999999999999997 0.58000000000000007 0
0.73999999999999999 0 0
0.73999999999999999 0.020000000000000004 0
0.73999999999999999 0.040000000000000001 0
0.73999999999999999 0.54999999999999993 0
0.73999999999999999 0.56000000000000005 0
0.73999999999999999 0.58000000000000007 0
0.76000000000000001 0 0
0.76000000000000001 0.020000000000000004 0
0.76000000000000001 0.040000000000000001 0
0.76000000000000001 0.54999999999999993 0
0.76000000000000001 0.56000000000000005 0
0.76000000000000001 0.58000000000000007 0
0.78000000000000003 0 0
0.78000000000000003 0.020000000000000004 0
0.78000000000000003 0.040000000000000001 0
0.78000000000000003 0.54999999999999993 0
0.78000000000000003 0.56000000000000005 0
0.78000000000000003 0.58000000000000007 0
0.80000000000000004 0 0
0.80000000000000004 0.020000000000000004 0
0.80000000000000004 0.040000000000000001 0
0.80000000000000004 0.54999999999999993 0
0.80000000000000004 0.56000000000000005 0
0.80000000000000004 0.58000000000000007 0
0.82000000000000006 0 0
0.82000000000000006 0.020000000000000004 0
0.82000000000000006 0.040000000000000001 0
0.82000000000000006 0.54999999999999993 0
0.82000000000000006 0.56000000000000005 0
0.82000000000000006 0.58000000000000007 0
0.83999999999999997 0 0
0.83999999999999997 0.020000000000000004 0
0.83999999999999997 0.040000000000000001 0
0.83999999999999997 0.54999999999999993 0
0.83999999999999997 0.56000000000000005 0
0.83999999999999997 0.58000000000000007 0
0.85999999999999999 0 0
0.85999999999999999 0.020000000000000004 0
0.85999999999999999 0.040000000000000001 0
0.85999999999999999 0.54999999999999993 0
0.85999999999999999 0.56000000000000005 0
0.85999999999999999 0.58000000000000007 0
0.88 0 0
0.88 0.020000000000000004 0
0.88 0.040000000000000001 0
0.88 0.54999999999999993 0
0.88 0.56000000000000005 0
0.88 0.58000000000000007 0
0.90000000000000002 0 0
0.90000000000000002 0.020000000000000004 0
0.90000000000000002 0.040000000000000001 0
0.90000000000000002 0.54999999999999993 0
0.90000000000000002 0.56000000000000005 0
0.90000000000000002 0.58000000000000007 0
0.92000000000000004 0 0
0.92000000000000004 0.020000000000000004 0
0.92000000000000004 0.040000000000000001 0
0.92000000000000004 0.54999999999999993 0
0.92000000000000004 0.56000000000000005 0
0.92000000000000004 0.58000000000000007 0
0.94000000000000006 0 0
0.94000000000000006 0.020000000000000004 0
0.94000000000000006 0.040000000000000001 0
0.94000000000000006 0.54999999999999993 0
0.94000000000000006 0.56000000000000005 0
0.94000000000000006 0.58000000000000007 0
0.95999999999999996 0 0
0.95999999999999996 0.020000000000000004 0
0.95999999999999996 0.040000000000000001 0
0.95999999999999996 0.54999999999999993 0
0.95999999999999996 0.56000000000000005 0
0.95999999999999996 0.58000000000000007 0
0.97999999999999998 0 0
0.97999999999999998 0.020000000000000004 0
0.97999999999999998 0.040000000000000001 0
0.97999999999999998 0.54999999999999993 0
0.97999999999999998 0.56000000000000005 0
0.97999999999999998 0.58000000000000007 0
1 0 0
1 0.020000000000000004 0
1 0.040000000000000001 0
1 0.54999999999999993 0
1 0.56000000000000005 0
1 0.58000000000000007 0
VERTICES 681 1362
1 0
1 1
1 2
1 3
1 4
1 5
1 6
1 7
1 8
1 9
1 10
1 11
1 12
1 13
1 14
1 15
1 16
1 17
1 18
1 19
1 20
1 21
1 22
1 23
1 24
1 25
1 26
1 27
1 28
1 29
1 30
1 31
1 32
1 33
1 34
1 35
1 36
1 37
1 38
1 39
1 40
1 41
1 42
1 43
1 44
1 45
1 46
1 47
1 48
1 49
1 50
1 51
1 52
1 53
1 54
1 55
1 56
1 57
1 58
1 59
1 60
1 61
1 62
1 63
1 64
1 65
1 66
1 67
1 68
1 69
1 70
1 71
1 72
1 73
1 74
1 75
1 76
1 77
1 78
1 79
1 80
1 81
1 82
1 83
1 84
1 85
1 86
1 87
1 88
1 89
1 90
1 91
1 92
1 93
1 94
1 95
1 96
1 97
1 98
1 99
1 100
1 101
1 102
1 103
1 104
1 105
1 106
1 107
1 108
1 109
1 110
1 111
1 112
1 113
1 114
1 115
1 116
1 117
1 118
1 119
1 120
1 121
1 122
1 123
1 124
1 125
1 126
1 127
1 128
1 129
1 130
1 131
1 132
1 133
1 134
1 135
1 136
1 137
1 138
1 139
1 140
1 141
1 142
1 143
1 144
1 145
1 146
1 147
1 148
1 149
1 150
1 151
1 152
1 153
1 154
1 155
1 156
1 157
1 158
1 159
1 160
1 161
1 162
1 163
1 164
1 165
1 166
1 167
1 168
1 169
1 170
1 171
1 172
1 173
1 174
1 175
1 176
1 177
1 178
1 179
1 180
1 181
1 182
1 183
1 184
1 185
1 186
1 187
1 188
1 189
1 190
1 191
1 192
1 193
1 194
1 195
1 196
1 197
1 198
1 199
1 200
1 201
1 202
1 203
1 204
1 205
1 206
1 207
1 208
1 209
1 210
1 211
1 212
1 213
1 214
1 215
1 216
1 217
1 218
1 219
1 220
1 221
1 222
1 223
1 224
1 225
1 226
1 227
1 228
1 229
1 230
1 231
1 232
1 233
1 234
1 235
1 236
1 237
1 238
1 239
1 240
1 241
1 242
1 243
1 244
1 245
1 246
1 247
1 248
1 249
1 250
1 251
1 252
1 253
1 254
1 255
1 256
1 257
1 258
1 259
1 260
1 261
1 262
1 263
1 264
1 265
1 266
1 267
1 268
1 269
1 270
1 271
1 272
1 273
1 274
1 275
1 276
1 277
1 278
1 279
1 280
1 281
1 282
1 283
1 284
1 285
1 286
1 287
1 288
1 289
1 290
1 291
1 292
1 293
1 294
1 295
1 296
1 297
1 298
1 299
1 300
1 301
1 302
1 303
1 304
1 305
1 306
1 307
1 308
1 309
1 310
1 311
1 312
1 313
1 314
1 315
1 316
1 317
1 318
1 319
1 320
1 321
1 322
1 323
1 324
1 325
1 326
1 327
1 328
1 329
1 330
1 331
1 332
1 333
1 334
1 335
1 336
1 337
1 338
1 339
1 340
1 341
1 342
1 343
1 344
1 345
1 346
1 347
1 348
1 349
1 350
1 351
1 352
1 353
1 354
1 355
1 356
1 357
1 358
1 359
1 360
1 361
1 362
1 363
1 364
1 365
1 366
1 367
1 368
1 369
1 370
1 371
1 372
1 373
1 374
1 375
1 376
1 377
1 378
1 379
1 380
1 381
1 382
1 383
1 384
1 385
1 386
1 387
1 388
1 389
1 390
1 391
1 392
1 393
1 394
1 395
1 396
1 397
1 398
1 399
1 400
1 401
1 402
1 403
1 404
1 405
1 406
1 407
1 408
1 409
1 410
1 411
1 412
1 413
1 414
1 415
1 416
1 417
1 418
1 419
1 420
1 421
1 422
1 423
1 424
1 425
1 426
1 427
1 428
1 429
1 430
1 431
1 432
1 433
1 434
1 435
1 436
1 437
1 438
1 439
1 440
1 441
1 442
1 443
1 444
1 445
1 446
1 447
1 448
1 449
1 450
1 451
1 452
1 453
1 454
1 455
1 456
1 457
1 458
1 459
1 460
1 461
1 462
1 463
1 464
1 465
1 466
1 467
1 468
1 469
1 470
1 471
1 472
1 473
1 474
1 475
1 476
1 477
1 478
1 479
1 480
1 481
1 482
1 483
1 484
1 485
1 486
1 487
1 488
1 489
1 490
1 491
1 492
1 493
1 494
1 495
1 496
1 497
1 498
1 499
1 500
1 501
1 502
1 503
1 504
1 505
1 506
1 507
1 508
1 509
1 510
1 511
1 512
1 513
1 514
1 515
1 516
1 517
1 518
1 519
1 520
1 521
1 522
1 523
1 524
1 525
1 526
1 527
1 528
1 529
1 530
1 531
1 532
1 533
1 534
1 535
1 536
1 537
1 538
1 539
1 540
1 541
1 542
1 543
1 544
1 545
1 546
1 547
1 548
1 549
1 550
1 551
1 552
1 553
1 554
1 555
1 556
1 557
1 558
1 559
1 560
1 561
1 562
1 563
1 564
1 565
1 566
1 567
1 568
1 569
1 570
1 571
1 572
1 573
1 574
1 575
1 576
1 577
1 578
1 579
1 580
1 581
1 582
1 583
1 584
1 585
1 586
1 587
1 588
1 589
1 590
1 591
1 592
1 593
1 594
1 595
1 596
1 597
1 598
1 599
1 600
1 601
1 602
1 603
1 604
1 605
1 606
1 607
1 608
1 609
1 610
1 611
1 612
1 613
1 614
1 615
1 616
1 617
1 618
1 619
1 620
1 621
1 622
1 623
1 624
1 625
1 626
1 627
1 628
1 629
1 630
1 631
1 632
1 633
1 634
1 635
1 636
1 637
1 638
1 639
1 640
1 641
1 642
1 643
1 644
1 645
1 646
1 647
1 648
1 649
1 650
1 651
1 652
1 653
1 654
1 655
1 656
1 657
1 658
1 659
1 660
1 661
1 662
1 663
1 664
1 665
1 666
1 667
1 668
1 669
1 670
1 671
1 672
1 673
1 674
1 675
1 676
1 677
1 678
1 679
1 680
POINT_DATA 681
SCALARS is_boundary int 1
LOOKUP_TABLE default
0
0
0
0
0
0
0
0
0
0
0
0
0
0
0
0
0
0
0
0
0
0
0
0
0
0
0
0
0
0
0
0
0
0
0
0
0
0
0
0
0
0
0
0
0
0
0
0
0
0
0
0
0
0
0
0
0
0
0
0
0
0
0
0
0
0
0
0
0
0
0
0
0
0
0
0
0
0
0
0
0
0
0
0
0
0
0
0
0
0
0
0
0
0
0
0
0
0
0
0
0
0
0
0
0
0
0
0
0
0
0
0
0
0
0
0
0
0
0
0
0
0
0
0
0
0
0
0
0
0
0
0
0
0
0
0
0
0
0
0
0
0
0
0
0
0
0
0
0
0
0
0
0
0
0
0
0
0
0
0
0
0
0
0
0
0
0
0
0
0
0
0
0
0
0
0
0
0
0
0
0
0
0
0
0
0
0
0
0
0
0
0
0
0
0
0
0
0
0
0
0
0
0
0
0
0
0
0
0
0
0
0
0
0
0
0
0
0
0
0
0
0
0
0
0
0
0
0
0
0
0
0
0
0
0
0
0
0
0
0
0
0
0
0
0
0
0
0
0
0
0
0
0
0
0
0
0
0
0
0
0
0
0
0
0
0
0
0
0
0
0
0
0
0
0
0
0
0
0
0
0
0
0
0
0
0
0
0
0
0
0
0
0
0
0
0
0
0
0
0
0
0
0
0
0
0
0
0
0
0
0
0
0
0
0
0
0
0
0
0
0
0
0
0
0
0
0
0
0
0
0
0
0
0
0
0
0
0
0
0
0
0
0
0
0
0
0
0
0
0
0
0
0
0
0
0
0
0
0
0
0
0
0
0
0
0
0
0
0
0
0
0
0
0
0
1
1
1
1
1
1
1
1
1
1
1
1
1
1
1
1
1
1
1
1
1
1
1
1
1
1
1
1
1
1
1
1
1
1
1
1
1
1
1
1
1
1
1
1
1
1
1
1
1
1
1
1
1
1
1
1
1
1
1
1
1
1
1
1
1
1
1
1
1
1
1
1
1
1
1
1
1
1
1
1
1
1
1
1
1
1
1
1
1
1
1
1
1
1
1
1
1
1
1
1
1
1
1
1
1
1
1
1
1
1
1
1
1
1
1
1
1
1
1
1
1
1
1
1
1
1
1
1
1
1
1
1
1
1
1
1
1
1
1
1
1
1
1
1
1
1
1
1
1
1
1
1
1
1
1
1
1
1
1
1
1
1
1
1
1
1
1
1
1
1
1
1
1
1
1
1
1
1
1
1
1
1
1
1
1
1
1
1
1
1
1
1
1
1
1
1
1
1
1
1
1
1
1
1
1
1
1
1
1
1
1
1
1
1
1
1
1
1
1
1
1
1
1
1
1
1
1
1
1
1
1
1
1
1
1
1
1
1
1
1
1
1
1
1
1
1
1
1
1
1
1
1
1
1
1
1
1
1
1
1
1
1
1
1
1
1
1
1
1
1
1
1
1
1
1
1
1
1
1
1
1
1
1
1
1
1
1
1
1
1
1
1
1
1
1
1
1
1
1
1
1
1
1
1
1
1
SCALARS rho float 1
LOOKUP_TABLE default
1020
1020
1020
1020
1020
1020
1020
1020
1020
1020
1020
1020
1020
1020
1020
1020
1020
1020
1020
1020
1020
1020
1020
1020
1020
1020
1020
1020
1020
1020
1020
1020
1020
1020
1020
1020
1020
1020
1020
1020
1020
1020
1020
1020
1020
1020
1020
1020
1020
1020
1020
1020
1020
1020
1020
1020
1020
1020
1020
1020
1020
1020
1020
1020
1020
1020
1020
1020
1020
1020
1020
1020
1020
1020
1020
1020
1020
1020
1020
1020
1020
1020
1020
1020
1020
1020
1020
1020
1020
1020
1020
1020
1020
1020
1020
1020
1020
1020
1020
1020
1020
1020
1020
1020
1020
1020
1020
1020
1020
1020
1020
1020
1020
1020
1020
1020
1020
1020
1020
1020
1020
1020
1020
1020
1020
1020
1020
1020
1020
1020
1020
1020
1020
1020
1020
1020
1020
1020
1020
1020
1020
1020
1020
1020
1020
1020
1020
1020
1020
1020
1020
1020
1020
1020
1020
1020
1020
1020
1020
1020
1020
1020
1020
1020
1020
1020
1020
1020
1020
1020
1020
1020
1020
1020
1020
1020
1020
1020
1020
1020
1020
1020
1020
1020
1020
1020
1020
1020
1020
1020
1020
1020
1020
1020
1020
1020
1020
1020
1020
1020
1020
1020
1020
1020
1020
1020
1020
1020
1020
1020
1020
1020
1020
1020
1020
1020
1020
1020
1020
1020
1020
1020
1020
1020
1020
1020
1020
1020
1020
1020
1020
1020
1020
1020
1020
1020
1020
1020
1020
1020
1020
1020
1020
1020
1020
1020
1020
1020
1020
1020
1020
1020
1020
1020
1020
1020
1020
1020
1020
1020
1020
1020
1020
1020
1020
1020
1020
1020
1020
1020
1020
1020
1020
1020
1020
1020
1020
1020
1020
1020
1020
1020
1020
1020
1020
1020
1020
1020
1020
1020
1020
1020
1020
1020
1020
1020
1020
1020
1020
1020
1020
1020
1020
1020
1020
1020
1020
1020
1020
1020
1020
1020
1020
1020
1020
1020
1020
1020
1020
1020
1020
1020
1020
1020
1020
1020
1020
1020
1020
1020
1020
1020
1020
1020
1020
1020
1020
1020
1020
1020
1020
1020
1020
1020
1020
1020
1020
1020
1020
1020
1020
1020
1020
1020
1020
1020
1020
1020
1020
1020
1020
1020
1020
1020
1020
1020
1020
1020
1020
1020
1020
1020
1020
1020
1020
1000
1000
1000
1000
1000
1000
1000
1000
1000
1000
1000
1000
1000
1000
1000
1000
1000
1000
1000
1000
1000
1000
1000
1000
1000
1000
1000
1000
1000
1000
1000
1000
1000
1000
1000
1000
1000
1000
1000
1000
1000
1000
1000
1000
1000
1000
1000
1000
1000
1000
1000
1000
1000
1000
1000
1000
1000
1000
1000
1000
1000
1000
1000
1000
1000
1000
1000
1000
1000
1000
1000
1000
1000
1000
1000
1000
1000
1000
1000
1000
1000
1000
1000
1000
1000
1000
1000
1000
1000
1000
1000
1000
1000
1000
1000
1000
1000
1000
1000
1000
1000
1000
1000
1000
1000
1000
1000
1000
1000
1000
1000
1000
1000
1000
1000
1000
1000
1000
1000
1000
1000
1000
1000
1000
1000
1000
1000
1000
1000
1000
1000
1000
1000
1000
1000
1000
1000
1000
1000
1000
1000
1000
1000
1000
1000
1000
1000
1000
1000
1000
1000
1000
1000
1000
1000
1000
1000
1000
1000
1000
1000
1000
1000
1000
1000
1000
1000
1000
1000
1000
1000
1000
1000
1000
1000
1000
1000
1000
1000
1000
1000
1000
1000
1000
1000
1000
1000
1000
1000
1000
1000
1000
1000
1000
1000
1000
1000
1000
1000
1000
1000
1000
1000
1000
1000
1000
1000
1000
1000
1000
1000
1000
1000
1000
1000
1000
1000
1000
1000
1000
1000
1000
1000
1000
1000
1000
1000
1000
1000
1000
1000
1000
1000
1000
1000
1000
1000
1000
1000
1000
1000
1000
1000
1000
1000
1000
1000
1000
1000
1000
1000
1000
1000
1000
1000
1000
1000
1000
1000
1000
1000
1000
1000
1000
1000
1000
1000
1000
1000
1000
1000
1000
1000
1000
1000
1000
1000
1000
1000
1000
1000
1000
1000
1000
1000
1000
1000
1000
1000
1000
1000
1000
1000
1000
1000
1000
1000
1000
1000
1000
1000
1000
1000
1000
1000
1000
SCALARS p float 1
LOOKUP_TABLE default
25004.681136676067
25004.681136676067
25004.681136676067
25004.681136676067
25004.681136676067
25004.681136676067
25004.681136676067
25004.681136676067
25004.681136676067
25004.681136676067
25004.681136676067
25004.681136676067
25004.681136676067
25004.681136676067
25004.681136676067
25004.681136676067
25004.681136676067
25004.681136676067
25004.681136676067
25004.681136676067
25004.681136676067
25004.681136676067
25004.681136676067
25004.681136676067
25004.681136676067
25004.681136676067
25004.681136676067
25004.681136676067
25004.681136676067
25004.681136676067
25004.681136676067
25004.681136676067
25004.681136676067
25004.681136676067
25004.681136676067
25004.681136676067
25004.681136676067
25004.681136676067
25004.681136676067
25004.681136676067
25004.681136676067
25004.681136676067
25004.681136676067
25004.681136676067
25004.681136676067
25004.681136676067
25004.681136676067
25004.681136676067
25004.681136676067
25004.681136676067
25004.681136676067
25004.681136676067
25004.681136676067
25004.681136676067
25004.681136676067
25004.681136676067
25004.681136676067
25004.681136676067
25004.681136676067
25004.681136676067
25004.681136676067
25004.681136676067
25004.681136676067
25004.681136676067
25004.681136676067
25004.681136676067
25004.681136676067
25004.681136676067
25004.681136676067
25004.681136676067
25004.681136676067
25004.681136676067
25004.681136676067
25004.681136676067
25004.681136676067
25004.681136676067
25004.681136676067
25004.681136676067
25004.681136676067
25004.681136676067
25004.681136676067
25004.681136676067
25004.681136676067
25004.681136676067
25004.681136676067
25004.681136676067
25004.681136676067
25004.681136676067
25004.681136676067
25004.681136676067
25004.681136676067
25004.681136676067
25004.681136676067
25004.681136676067
25004.681136676067
25004.681136676067
25004.681136676067
25004.681136676067
25004.681136676067
25004.681136676067
25004.681136676067
25004.681136676067
25004.681136676067
25004.681136676067
25004.681136676067
25004.681136676067
25004.681136676067
25004.681136676067
25004.681136676067
25004.681136676067
25004.681136676067
25004.681136676067
25004.681136676067
25004.681136676067
25004.681136676067
25004.681136676067
25004.681136676067
25004.681136676067
25004.681136676067
25004.681136676067
25004.681136676067
25004.681136676067
25004.681136676067
25004.681136676067
25004.681136676067
25004.681136676067
25004.681136676067
25004.681136676067
25004.681136676067
25004.681136676067
25004.681136676067
25004.681136676067
25004.681136676067
25004.681136676067
25004.681136676067
25004.681136676067
25004.681136676067
25004.681136676067
25004.681136676067
25004.681136676067
25004.681136676067
25004.681136676067
25004.681136676067
25004.681136676067
25004.681136676067
25004.681136676067
25004.681136676067
25004.681136676067
25004.681136676067
25004.681136676067
25004.681136676067
25004.681136676067
25004.681136676067
25004.681136676067
25004.681136676067
25004.681136676067
25004.681136676067
25004.681136676067
25004.681136676067
25004.681136676067
25004.681136676067
25004.681136676067
25004.681136676067
25004.681136676067
25004.681136676067
25004.681136676067
25004.681136676067
25004.681136676067
25004.681136676067
25004.681136676067
25004.681136676067
25004.681136676067
25004.681136676067
25004.681136676067
25004.681136676067
25004.681136676067
25004.681136676067
25004.681136676067
25004.681136676067
25004.681136676067
25004.681136676067
25004.681136676067
25004.681136676067
25004.681136676067
25004.681136676067
25004.681136676067
25004.681136676067
25004.681136676067
25004.681136676067
25004.681136676067
25004.681136676067
25004.681136676067
25004.681136676067
25004.681136676067
25004.681136676067
25004.681136676067
25004.681136676067
25004.681136676067
25004.681136676067
25004.681136676067
25004.681136676067
25004.681136676067
25004.681136676067
25004.681136676067
25004.681136676067
25004.681136676067
25004.681136676067
25004.681136676067
25004.681136676067
25004.681136676067
25004.681136676067
25004.681136676067
25004.681136676067
25004.681136676067
25004.681136676067
25004.681136676067
25004.681136676067
25004.681136676067
25004.681136676067
25004.681136676067
25004.681136676067
25004.681136676067
25004.681136676067
25004.681136676067
25004.681136676067
25004.681136676067
25004.681136676067
25004.681136676067
25004.681136676067
25004.681136676067
25004.681136676067
25004.681136676067
25004.681136676067
25004.681136676067
25004.681136676067
25004.681136676067
25004.681136676067
25004.681136676067
25004.681136676067
25004.681136676067
25004.681136676067
25004.681136676067
25004.681136676067
25004.681136676067
25004.681136676067
25004.681136676067
25004.681136676067
25004.681136676067
25004.681136676067
25004.681136676067
25004.681136676067
25004.681136676067
25004.681136676067
25004.681136676067
25004.681136676067
25004.681136676067
25004.681136676067
25004.681136676067
25004.681136676067
25004.681136676067
25004.681136676067
25004.681136676067
25004.681136676067
25004.681136676067
25004.681136676067
25004.681136676067
25004.681136676067
25004.681136676067
25004.681136676067
25004.681136676067
25004.681136676067
25004.681136676067
25004.681136676067
25004.681136676067
25004.681136676067
25004.681136676067
25004.681136676067
25004.681136676067
25004.681136676067
25004.681136676067
25004.681136676067
25004.681136676067
25004.681136676067
25004.681136676067
25004.681136676067
25004.681136676067
25004.681136676067
25004.681136676067
25004.681136676067
25004.681136676067
25004.681136676067
25004.681136676067
25004.681136676067
25004.681136676067
25004.681136676067
25004.681136676067
25004.681136676067
25004.681136676067
25004.681136676067
25004.681136676067
25004.681136676067
25004.681136676067
25004.681136676067
25004.681136676067
25004.681136676067
25004.681136676067
25004.681136676067
25004.681136676067
25004.681136676067
25004.681136676067
25004.681136676067
25004.681136676067
25004.681136676067
25004.681136676067
25004.681136676067
25004.681136676067
25004.681136676067
25004.681136676067
25004.681136676067
25004.681136676067
25004.681136676067
25004.681136676067
25004.681136676067
25004.681136676067
25004.681136676067
25004.681136676067
25004.681136676067
25004.681136676067
25004.681136676067
25004.681136676067
25004.681136676067
25004.681136676067
25004.681136676067
25004.681136676067
25004.681136676067
25004.681136676067
25004.681136676067
25004.681136676067
25004.681136676067
25004.681136676067
25004.681136676067
25004.681136676067
25004.681136676067
25004.681136676067
25004.681136676067
25004.681136676067
25004.681136676067
25004.681136676067
25004.681136676067
25004.681136676067
25004.681136676067
25004.681136676067
25004.681136676067
25004.681136676067
25004.681136676067
25004.681136676067
25004.681136676067
25004.681136676067
25004.681136676067
25004.681136676067
25004.681136676067
25004.681136676067
25004.681136676067
25004.681136676067
25004.681136676067
25004.681136676067
25004.681136676067
25004.681136676067
25004.681136676067
25004.681136676067
25004.681136676067
25004.681136676067
25004.681136676067
25004.681136676067
25004.681136676067
0
0
0
0
0
0
24426.670562081679
24984.761539714185
24991.268797510744
0
0
0
24998.704308608219
25003.998837724113
25004.208595436601
0
0
0
25001.854899693884
25004.333088653468
25004.436855359952
0
0
0
25002.040334081619
25004.338194771062
25004.437086754315
0
0
0
25002.051609531576
25004.337760445236
25004.436412903786
0
0
0
25002.048579812694
25004.337521963746
25004.436344357753
0
0
0
25002.046675817193
25004.337414990376
25004.436341102952
0
0
0
25002.045937740677
25004.337372903079
25004.436342883586
0
0
0
25002.04575463937
25004.337360692687
25004.436344338934
0
0
0
25002.045780983281
25004.337361639969
25004.436346540519
0
0
0
25002.046073808051
25004.337378140197
25004.436344648606
0
0
0
25002.046900025729
25004.337425657664
25004.436344248566
0
0
0
25002.04881283806
25004.337533018454
25004.43634902556
0
0
0
25002.051782351631
25004.337766346136
25004.436413647669
0
0
0
25002.040373848286
25004.338192704283
25004.437085133839
0
0
0
25001.854899699782
25004.333088625797
25004.436859913232
0
0
0
24998.70402644073
25003.998803410544
25004.208579302584
0
0
0
24426.555992435347
24984.758383467317
24991.266231229805
0
0
0
0
0
0
0
0
0
0
0
0
0
0
0
0
0
0
0
0
0
0
0
0
0
0
0
0
0
0
0
0
0
0
0
0
0
0
0
0
0
0
0
0
0
0
0
0
0
0
0
0
0
0
0
0
0
0
0
0
0
0
0
0
0
0
0
0
0
0
0
0
0
0
0
0
0
0
0
0
0
0
0
0
0
0
0
0
0
0
0
0
0
0
0
0
0
0
0
0
0
0
0
0
0
0
0
0
0
0
0
0
0
0
0
0
0
0
0
0
0
0
0
0
0
0
0
0
0
0
0
0
0
0
0
0
0
0
0
0
0
0
0
0
0
0
0
0
0
0
0
0
0
0
0
0
0
0
0
0
0
0
0
0
0
0
0
0
0
0
0
0
0
0
0
0
0
0
0
0
0
0
0
0
0
0
0
0
0
0
0
0
0
0
0
SCALARS m float 1
LOOKUP_TABLE default
0.39965556373580352
0.39965556373580352
0.39965556373580352
0.39965556373580352
0.39965556373580352
0.39965556373580352
0.39965556373580352
0.39965556373580352
0.39965556373580352
0.39965556373580352
0.39965556373580352
0.39965556373580352
0.39965556373580352
0.39965556373580352
0.39965556373580352
0.39965556373580352
0.39965556373580352
0.39965556373580352
0.39965556373580352
0.39965556373580352
0.39965556373580352
0.39965556373580352
0.39965556373580352
0.39965556373580352
0.39965556373580352
0.39965556373580352
0.39965556373580352
0.39965556373580352
0.39965556373580352
0.39965556373580352
0.39965556373580352
0.39965556373580352
0.39965556373580352
0.39965556373580352
0.39965556373580352
0.39965556373580352
0.39965556373580352
0.39965556373580352
0.39965556373580352
0.39965556373580352
0.39965556373580352
0.39965556373580352
0.39965556373580352
0.39965556373580352
0.39965556373580352
0.39965556373580352
0.39965556373580352
0.39965556373580352
0.39965556373580352
0.39965556373580352
0.39965556373580352
0.39965556373580352
0.39965556373580352
0.39965556373580352
0.39965556373580352
0.39965556373580352
0.39965556373580352
0.39965556373580352
0.39965556373580352
0.39965556373580352
0.39965556373580352
0.39965556373580352
0.39965556373580352
0.39965556373580352
0.39965556373580352
0.39965556373580352
0.39965556373580352
0.39965556373580352
0.39965556373580352
0.39965556373580352
0.39965556373580352
0.39965556373580352
0.39965556373580352
0.39965556373580352
0.39965556373580352
0.39965556373580352
0.39965556373580352
0.39965556373580352
0.39965556373580352
0.39965556373580352
0.39965556373580352
0.39965556373580352
0.39965556373580352
0.39965556373580352
0.39965556373580352
0.39965556373580352
0.39965556373580352
0.39965556373580352
0.39965556373580352
0.39965556373580352
0.39965556373580352
0.39965556373580352
0.39965556373580352
0.39965556373580352
0.39965556373580352
0.39965556373580352
0.39965556373580352
0.39965556373580352
0.39965556373580352
0.39965556373580352
0.39965556373580352
0.39965556373580352
0.39965556373580352
0.39965556373580352
0.39965556373580352
0.39965556373580352
0.39965556373580352
0.39965556373580352
0.39965556373580352
0.39965556373580352
0.39965556373580352
0.39965556373580352
0.39965556373580352
0.39965556373580352
0.39965556373580352
0.39965556373580352
0.39965556373580352
0.39965556373580352
0.39965556373580352
0.39965556373580352
0.39965556373580352
0.39965556373580352
0.39965556373580352
0.39965556373580352
0.39965556373580352
0.39965556373580352
0.39965556373580352
0.39965556373580352
0.39965556373580352
0.39965556373580352
0.39965556373580352
0.39965556373580352
0.39965556373580352
0.39965556373580352
0.39965556373580352
0.39965556373580352
0.39965556373580352
0.39965556373580352
0.39965556373580352
0.39965556373580352
0.39965556373580352
0.39965556373580352
0.39965556373580352
0.39965556373580352
0.39965556373580352
0.39965556373580352
0.39965556373580352
0.39965556373580352
0.39965556373580352
0.39965556373580352
0.39965556373580352
0.39965556373580352
0.39965556373580352
0.39965556373580352
0.39965556373580352
0.39965556373580352
0.39965556373580352
0.39965556373580352
0.39965556373580352
0.39965556373580352
0.39965556373580352
0.39965556373580352
0.39965556373580352
0.39965556373580352
0.39965556373580352
0.39965556373580352
0.39965556373580352
0.39965556373580352
0.39965556373580352
0.39965556373580352
0.39965556373580352
0.39965556373580352
0.39965556373580352
0.39965556373580352
0.39965556373580352
0.39965556373580352
0.39965556373580352
0.39965556373580352
0.39965556373580352
0.39965556373580352
0.39965556373580352
0.39965556373580352
0.39965556373580352
0.39965556373580352
0.39965556373580352
0.39965556373580352
0.39965556373580352
0.39965556373580352
0.39965556373580352
0.39965556373580352
0.39965556373580352
0.39965556373580352
0.39965556373580352
0.39965556373580352
0.39965556373580352
0.39965556373580352
0.39965556373580352
0.39965556373580352
0.39965556373580352
0.39965556373580352
0.39965556373580352
0.39965556373580352
0.39965556373580352
0.39965556373580352
0.39965556373580352
0.39965556373580352
0.39965556373580352
0.39965556373580352
0.39965556373580352
0.39965556373580352
0.39965556373580352
0.39965556373580352
0.39965556373580352
0.39965556373580352
0.39965556373580352
0.39965556373580352
0.39965556373580352
0.39965556373580352
0.39965556373580352
0.39965556373580352
0.39965556373580352
0.39965556373580352
0.39965556373580352
0.39965556373580352
0.39965556373580352
0.39965556373580352
0.39965556373580352
0.39965556373580352
0.39965556373580352
0.39965556373580352
0.39965556373580352
0.39965556373580352
0.39965556373580352
0.39965556373580352
0.39965556373580352
0.39965556373580352
0.39965556373580352
0.39965556373580352
0.39965556373580352
0.39965556373580352
0.39965556373580352
0.39965556373580352
0.39965556373580352
0.39965556373580352
0.39965556373580352
0.39965556373580352
0.39965556373580352
0.39965556373580352
0.39965556373580352
0.39965556373580352
0.39965556373580352
0.39965556373580352
0.39965556373580352
0.39965556373580352
0.39965556373580352
0.39965556373580352
0.39965556373580352
0.39965556373580352
0.39965556373580352
0.39965556373580352
0.39965556373580352
0.39965556373580352
0.39965556373580352
0.39965556373580352
0.39965556373580352
0.39965556373580352
0.39965556373580352
0.39965556373580352
0.39965556373580352
0.39965556373580352
0.39965556373580352
0.39965556373580352
0.39965556373580352
0.39965556373580352
0.39965556373580352
0.39965556373580352
0.39965556373580352
0.39965556373580352
0.39965556373580352
0.39965556373580352
0.39965556373580352
0.39965556373580352
0.39965556373580352
0.39965556373580352
0.39965556373580352
0.39965556373580352
0.39965556373580352
0.39965556373580352
0.39965556373580352
0.39965556373580352
0.39965556373580352
0.39965556373580352
0.39965556373580352
0.39965556373580352
0.39965556373580352
0.39965556373580352
0.39965556373580352
0.39965556373580352
0.39965556373580352
0.39965556373580352
0.39965556373580352
0.39965556373580352
0.39965556373580352
0.39965556373580352
0.39965556373580352
0.39965556373580352
0.39965556373580352
0.39965556373580352
0.39965556373580352
0.39965556373580352
0.39965556373580352
0.39965556373580352
0.39965556373580352
0.39965556373580352
0.39965556373580352
0.39965556373580352
0.39965556373580352
0.39965556373580352
0.39965556373580352
0.39965556373580352
0.39965556373580352
0.39965556373580352
0.39965556373580352
0.39965556373580352
0.39965556373580352
0.39965556373580352
0.39965556373580352
0.39965556373580352
0.39965556373580352
0.39965556373580352
0.39965556373580352
0.39965556373580352
0.39965556373580352
0.39965556373580352
0.39965556373580352
0.39965556373580352
0.39965556373580352
0.39965556373580352
0.39965556373580352
0.39965556373580352
0.39965556373580352
0.39965556373580352
0.39965556373580352
0.39965556373580352
0.39965556373580352
0.39965556373580352
0.39965556373580352
0.39965556373580352
0.39965556373580352
0.39965556373580352
0.39965556373580352
0.39965556373580352
0.39965556373580352
0.39965556373580352
0.39965556373580352
0.39965556373580352
0.39965556373580352
0.39965556373580352
0.39965556373580352
0.39965556373580352
0.39965556373580352
0.39965556373580352
0.39965556373580352
0.39965556373580352
0.39965556373580352
0.39965556373580352
0.39965556373580352
0.39965556373580352
0.39965556373580352
0.39965556373580352
0.39965556373580352
0.39965556373580352
0.39965556373580352
0.39965556373580352
0.39965556373580352
0.39965556373580352
0.39965556373580352
0.39965556373580352
0.39965556373580352
0.39965556373580352
0.39965556373580352
0.39965556373580352
0.39965556373580352
0.39965556373580352
0.39965556373580352
0.39965556373580352
0.39965556373580352
0.39965556373580352
0.39965556373580352
0.39965556373580352
0.39965556373580352
0.39965556373580352
0.39965556373580352
0.39965556373580352
0.39965556373580352
0.39965556373580352
0.39965556373580352
0.39965556373580352
0.39965556373580352
0.39965556373580352
0.39965556373580352
0.39965556373580352
0.39965556373580352
0.39965556373580352
0.39965556373580352
0.39965556373580352
0.39965556373580352
0.39965556373580352
0.39965556373580352
0.39965556373580352
0.39965556373580352
0.39965556373580352
0.39965556373580352
0.39965556373580352
0.39965556373580352
0.39965556373580352
0.39965556373580352
0.39965556373580352
0.39965556373580352
0.39965556373580352
0.39965556373580352
0.39965556373580352
0.39965556373580352
0.39965556373580352
0.39965556373580352
0.39965556373580352
0.39965556373580352
0.39965556373580352
0.39965556373580352
0.39965556373580352
0.39965556373580352
0.39965556373580352
0.39965556373580352
0.39965556373580352
0.39965556373580352
0.39965556373580352
0.39965556373580352
0.39965556373580352
0.39965556373580352
0.39965556373580352
0.39965556373580352
0.39965556373580352
0.39965556373580352
0.39965556373580352
0.39965556373580352
0.39965556373580352
0.39965556373580352
0.39965556373580352
0.39965556373580352
0.39965556373580352
0.39965556373580352
0.39965556373580352
0.39965556373580352
0.39965556373580352
0.39965556373580352
0.39965556373580352
0.39965556373580352
0.39965556373580352
0.39965556373580352
0.39965556373580352
0.39965556373580352
0.39965556373580352
0.39965556373580352
0.39965556373580352
0.39965556373580352
0.39965556373580352
0.39965556373580352
0.39965556373580352
0.39965556373580352
0.39965556373580352
0.39965556373580352
0.39965556373580352
0.39965556373580352
0.39965556373580352
0.39965556373580352
0.39965556373580352
0.39965556373580352
0.39965556373580352
0.39965556373580352
0.39965556373580352
0.39965556373580352
0.39965556373580352
0.39965556373580352
0.39965556373580352
0.39965556373580352
0.39965556373580352
0.39965556373580352
0.39965556373580352
0.39965556373580352
0.39965556373580352
0.39965556373580352
0.39965556373580352
0.39965556373580352
0.39965556373580352
0.39965556373580352
0.39965556373580352
0.39965556373580352
0.39965556373580352
0.39965556373580352
0.39965556373580352
0.39965556373580352
0.39965556373580352
0.39965556373580352
0.39965556373580352
0.39965556373580352
0.39965556373580352
0.39965556373580352
0.39965556373580352
0.39965556373580352
0.39965556373580352
0.39965556373580352
0.39965556373580352
0.39965556373580352
0.39965556373580352
0.39965556373580352
0.39965556373580352
0.39965556373580352
0.39965556373580352
0.39965556373580352
0.39965556373580352
0.39965556373580352
0.39965556373580352
0.39965556373580352
0.39965556373580352
0.39965556373580352
0.39965556373580352
0.39965556373580352
0.39965556373580352
0.39965556373580352
0.39965556373580352
0.39965556373580352
0.39965556373580352
0.39965556373580352
0.39965556373580352
0.39965556373580352
0.39965556373580352
0.39965556373580352
0.39965556373580352
0.39965556373580352
0.39965556373580352
0.39965556373580352
0.39965556373580352
0.39965556373580352
0.39965556373580352
0.39965556373580352
0.39965556373580352
0.39965556373580352
0.39965556373580352
0.39965556373580352
0.39965556373580352
0.39965556373580352
0.39965556373580352
0.39965556373580352
0.39965556373580352
0.39965556373580352
0.39965556373580352
0.39965556373580352
0.39965556373580352
0.39965556373580352
0.39965556373580352
0.39965556373580352
0.39965556373580352
0.39965556373580352
0.39965556373580352
0.39965556373580352
0.39965556373580352
0.39965556373580352
0.39965556373580352
0.39965556373580352
0.39965556373580352
0.39965556373580352
0.39965556373580352
0.39965556373580352
0.39965556373580352
0.39965556373580352
0.39965556373580352
0.39965556373580352
0.39965556373580352
0.39965556373580352
0.39965556373580352
0.39965556373580352
0.39965556373580352
0.39965556373580352
0.39965556373580352
0.39965556373580352
0.39965556373580352
0.39965556373580352
0.39965556373580352
0.39965556373580352
0.39965556373580352
0.39965556373580352
0.39965556373580352
0.39965556373580352
0.39965556373580352
0.39965556373580352
0.39965556373580352
0.39965556373580352
0.39965556373580352
0.39965556373580352
0.39965556373580352
0.39965556373580352
0.39965556373580352
0.39965556373580352
0.39965556373580352
0.39965556373580352
0.39965556373580352
0.39965556373580352
0.39965556373580352
0.39965556373580352
0.39965556373580352
0.39965556373580352
0.39965556373580352
0.39965556373580352
0.39965556373580352
0.39965556373580352
0.39965556373580352
0.39965556373580352
0.39965556373580352
0.39965556373580352
0.39965556373580352
0.39965556373580352
0.39965556373580352
0.39965556373580352
0.39965556373580352
0.39965556373580352
0.39965556373580352
0.39965556373580352
0.39965556373580352
0.39965556373580352
0.39965556373580352
0.39965556373580352
0.39965556373580352
0.39965556373580352
0.39965556373580352
0.39965556373580352
0.39965556373580352
0.39965556373580352
0.39965556373580352
0.39965556373580352
0.39965556373580352
0.39965556373580352
0.39965556373580352
0.39965556373580352
0.39965556373580352
0.39965556373580352
0.39965556373580352
0.39965556373580352
0.39965556373580352
0.39965556373580352
0.39965556373580352
0.39965556373580352
0.39965556373580352
0.39965556373580352
0.39965556373580352
0.39965556373580352
0.39965556373580352
0.39965556373580352
0.39965556373580352
0.39965556373580352
0.39965556373580352
0.39965556373580352
0.39965556373580352
0.39965556373580352
0.39965556373580352
0.39965556373580352
0.39965556373580352
0.39965556373580352
0.39965556373580352
0.39965556373580352
0.39965556373580352
0.39965556373580352
0.39965556373580352
0.39965556373580352
0.39965556373580352
0.39965556373580352
0.39965556373580352
0.39965556373580352
0.39965556373580352
0.39965556373580352
0.39965556373580352
0.39965556373580352
VECTORS v float
-1.9462624902825176e-05 -0.035714318911826644 0
-2.0444793773143006e-05 -0.036092330637105353 0
-2.1142039884146186e-05 -0.036384140211216921 0
-2.1760220090711398e-05 -0.036667540911472146 0
-2.2307405788698797e-05 -0.036944589046930702 0
-2.280359329652632e-05 -0.037228587699065167 0
-2.3262473806491364e-05 -0.037531149204554179 0
-2.3690011835191368e-05 -0.037859766053341549 0
-2.4087956591901236e-05 -0.038220174620202649 0
-2.4448336158795736e-05 -0.038617377122858808 0
-2.4761905063285909e-05 -0.039056711429389018 0
-2.5018507570160706e-05 -0.039543986425676712 0
-2.5218058948952583e-05 -0.040085513467998241 0
-2.5364985601914725e-05 -0.04068805760817145 0
-2.5462945252101663e-05 -0.041361798626919091 0
-2.5549751309319075e-05 -0.042125211702897535 0
-2.5626414999285067e-05 -0.042999539664132516 0
-2.5718353999594287e-05 -0.044010895446875482 0
-2.5824393056740213e-05 -0.045196125987717148 0
-2.5959076688173183e-05 -0.046598751921620177 0
-2.6137867432865921e-05 -0.048298487570544238 0
-2.6373909994877225e-05 -0.050414804584749021 0
-2.6705377742861106e-05 -0.053155770550928946 0
-2.7155532052203246e-05 -0.056938869582059064 0
-2.7864892738388788e-05 -0.062939187009297515 0
-1.1168972291874724e-05 -0.035872293068706679 0
-1.1914838367610931e-05 -0.036283549565548211 0
-1.2450475634159336e-05 -0.036601566713834799 0
-1.289327397776487e-05 -0.036905410534402737 0
-1.3257412229254909e-05 -0.037197965470003549 0
-1.3596538668320466e-05 -0.037492349995282372 0
-1.3841451511032459e-05 -0.037804798380913357 0
-1.4078666891853277e-05 -0.038142700412338332 0
-1.4289501922971737e-05 -0.038513843263611965 0
-1.4417007973624832e-05 -0.038923329695572197 0
-1.4533238418512173e-05 -0.03937641183541192 0
-1.4909890770806259e-05 -0.039878988864368595 0
-1.5080880221768328e-05 -0.040437557684164682 0
-1.5342789109317562e-05 -0.041059584952728302 0
-1.5484991368481193e-05 -0.041755823719394791 0
-1.568180359769269e-05 -0.042544756699128848 0
-1.5820096541190065e-05 -0.043448048391106414 0
-1.596519285962029e-05 -0.044492395838031606 0
-1.6110927318797769e-05 -0.045712214020320469 0
-1.6243273789747059e-05 -0.047155863810259387 0
-1.6324260610129825e-05 -0.048899776064252207 0
-1.6489687097572107e-05 -0.051063762745908438 0
-1.6616816949980624e-05 -0.053863003768386347 0
-1.6754457162478157e-05 -0.057736315193931291 0
-1.6883623199019232e-05 -0.06402533632031826 0
-3.9124069024345303e-06 -0.0359386686421235 0
-4.174936533045195e-06 -0.03635425624478681 0
-4.3540177289988468e-06 -0.036676243507428069 0
-4.517371336997064e-06 -0.036983755343697758 0
-4.6226308683601044e-06 -0.037280739151942598 0
-4.7625240144299596e-06 -0.037580024883684442 0
-4.8750541720889083e-06 -0.037896847243390194 0
-4.9994977087250796e-06 -0.038240633991134254 0
-5.0845940467908054e-06 -0.038618187173131847 0
-5.1515507232104394e-06 -0.039035529645896891 0
-5.2408752291692769e-06 -0.039498272887270348 0
-5.2656275922264273e-06 -0.040012363782929529 0
-5.3408382069471561e-06 -0.040584510615131825 0
-5.464877548337221e-06 -0.041222382247608561 0
-5.7367677645275425e-06 -0.041937576042762131 0
-5.8451578947940649e-06 -0.042748888780144663 0
-6.0012370845718426e-06 -0.043678762596076955 0
-6.0938605013153029e-06 -0.044753731885909941 0
-6.2501219105306388e-06 -0.046009441520928458 0
-6.4062914928591049e-06 -0.0474961728723454 0
-6.5477417009357242e-06 -0.049290241660617747 0
-6.7471301034821758e-06 -0.05151286696399885 0
-6.9754339431844348e-06 -0.05437938263286269 0
-7.2188004912904887e-06 -0.058327215900355521 0
-7.4820316731210102e-06 -0.0647096026214702 0
-1.4396492571002965e-06 -0.035972871260925549 0
-1.5120776482573531e-06 -0.036391710711014318 0
-1.5860609317941806e-06 -0.036716221661742376 0
-1.614695283069463e-06 -0.037026317115278519 0
-1.7152744692313594e-06 -0.03732582495817735 0
-1.7073255208097196e-06 -0.037627799989316209 0
-1.7508006269055887e-06 -0.037947583432009019 0
-1.7575347548181667e-06 -0.038294445627673257 0
-1.8215483096561435e-06 -0.038675520107091195 0
-1.8115711888276738e-06 -0.039096649315349515 0
-1.9059687900786476e-06 -0.039563693090479322 0
-1.7678691381403461e-06 -0.040082647057187927 0
-1.7699016135523714e-06 -0.040660433097757111 0
-1.8378534927593537e-06 -0.041304453954253653 0
-1.8808910848999284e-06 -0.042026691807012545 0
-1.9395037480560205e-06 -0.042846190247957383 0
-1.971822558419401e-06 -0.043785218248046966 0
-1.9813729371570185e-06 -0.044870470602326691 0
-2.0383841898570457e-06 -0.046137545804953453 0
-2.1690864959628829e-06 -0.047637502203601585 0
-2.2282194424141552e-06 -0.049446458347338108 0
-2.3664150980473532e-06 -0.051685902099866954 0
-2.4926426343965291e-06 -0.054571886030554823 0
-2.6480632287331995e-06 -0.0585411624541715 0
-2.831473107039245e-06 -0.064950762511922708 0
-8.3570850186701882e-07 -0.035990564770148045 0
-8.7778012991282984e-07 -0.036411063215997345 0
-9.3342050131646164e-07 -0.036736842018537726 0
-9.2733205801421367e-07 -0.037048097497545597 0
-9.74074026993534e-07 -0.037348780112749252 0
-9.9966300947691333e-07 -0.037651837810806159 0
-1.0046118940094874e-06 -0.037972781201376329 0
-1.0742486139855566e-06 -0.038321059864525372 0
-1.057130101435502e-06 -0.03870356966959141 0
-1.1824852445026901e-06 -0.039125962274478142 0
-1.1217303851497431e-06 -0.039594697668142352 0
-1.1953724643214986e-06 -0.040115182329090539 0
-1.1281548884183999e-06 -0.040694625668214746 0
-1.178099344624915e-06 -0.041340564028713375 0
-1.258082096392901e-06 -0.042064863776020388 0
-1.1863531474212614e-06 -0.042887081942696234 0
-1.2323175352780049e-06 -0.043829439649002863 0
-1.3030004319117103e-06 -0.044918127478394902 0
-1.3311784013542768e-06 -0.046188821249799041 0
-1.3220398353021184e-06 -0.047692303414423008 0
-1.3398730596469588e-06 -0.049505683312809655 0
-1.4140098866404975e-06 -0.051750104996015803 0
-1.3947266057254077e-06 -0.054642028334441324 0
-1.4502827342818339e-06 -0.058617219518519018 0
-1.4604315829346316e-06 -0.065034786549176563 0
-4.2567267261712309e-07 -0.035998495889123051 0
-4.9006148238653471e-07 -0.036419770301838288 0
-5.1802922169597009e-07 -0.036746132359214721 0
-5.3479548169988201e-07 -0.037057894232473354 0
-5.8755585639574836e-07 -0.0373590216547919 0
-5.8693769917113433e-07 -0.037662927215677502 0
-6.1462069362212485e-07 -0.037984043259335139 0
-5.943598715009122e-07 -0.038332815132583256 0
-6.3437307714353458e-07 -0.038715837814209085 0
-6.921645588931381e-07 -0.039139038315209027 0
-6.8990292345115777e-07 -0.039608080701054184 0
-7.7172271573861758e-07 -0.040129305485510552 0
-6.8173479255572156e-07 -0.040709707181167558 0
-6.8073218703674395e-07 -0.041356355870591242 0
-7.1054186200111188e-07 -0.042081870771341547 0
-6.8923185025514191e-07 -0.042904668788063635 0
-6.6942580679256715e-07 -0.043847372628928634 0
-6.5976006656769525e-07 -0.044936785801256374 0
-6.7177416252377113e-07 -0.04620847872701285 0
-6.8442741084086228e-07 -0.04771351152355624 0
-6.9109193632501142e-07 -0.049528391553435941 0
-6.8713914465737355e-07 -0.051774590931600271 0
-6.9424611356277043e-07 -0.054668510424215506 0
-6.8705777954989782e-07 -0.058645872462480916 0
-6.7933359163241458e-07 -0.065065755003188647 0
-5.6080596073802967e-07 -0.036002012519188414 0
-6.0612652251010449e-07 -0.036423563636669973 0
-6.6544646847618564e-07 -0.036750208713342128 0
-6.8728468522693484e-07 -0.037062073187450618 0
-7.3824526522958803e-07 -0.037363343965175752 0
-7.6897728375513563e-07 -0.03766709280468724 0
-7.7953505940322974e-07 -0.037988615917129001 0
-7.9007423153777992e-07 -0.038337535317660501 0
-8.1339076990267199e-07 -0.038720657833759144 0
-8.3157149486600304e-07 -0.039143936856161451 0
-8.9436247849738422e-07 -0.039613236693084891 0
-9.5444228840362031e-07 -0.040134504907511089 0
-9.5430853874441296e-07 -0.040714738703243034 0
-9.4679179484775046e-07 -0.041361868086818902 0
-9.2178430036260254e-07 -0.042087484056081211 0
-9.1628518806213174e-07 -0.042910979509715216 0
-9.0570329299495311e-07 -0.043854160317647994 0
-8.6472518319361017e-07 -0.044943367749881689 0
-8.1183677292217799e-07 -0.046215380804207187 0
-7.5637812505633873e-07 -0.047721104023352501 0
-7.45298510830988e-07 -0.049536374249834883 0
-6.9299407791472759e-07 -0.051783134825421809 0
-6.2010821676885832e-07 -0.054677932719255029 0
-5.3642065092072355e-07 -0.058657773830776576 0
-4.4364903182234682e-07 -0.065076785892522832 0
-9.3556859694470084e-08 -0.036003125559333243 0
-9.854403134081868e-08 -0.036424665681231712 0
-1.0730128558055807e-07 -0.036751310827284708 0
-1.1407071839267317e-07 -0.037063254670484505 0
-1.1937274682086534e-07 -0.037364609808059619 0
-1.1944101638308367e-07 -0.037668345373057216 0
-1.3085754141807606e-07 -0.037989880737794912 0
-1.8803737057570545e-07 -0.038338786663487452 0
-1.7662763878239668e-07 -0.038721865036336033 0
-1.6418471458497914e-07 -0.03914513626402337 0
2.7156872059431691e-09 -0.03961468386806552 0
-3.0108978382720688e-08 -0.040135909958050914 0
-1.4839347268643459e-07 -0.040716133803666787 0
-1.2661549959145718e-07 -0.041363274034650871 0
-1.2275629567913699e-07 -0.042088902794099339 0
-1.6992527418104641e-07 -0.042912196209329012 0
-1.156407994868373e-07 -0.043855058514566524 0
-1.741778108288681e-07 -0.044944520626690763 0
-1.2570581212188257e-07 -0.046216501854444828 0
-1.5733898103146509e-07 -0.047722133758073909 0
-1.231674416902644e-07 -0.049537138081078805 0
-9.3445128818203256e-08 -0.051783063118471272 0
-1.1131173884998553e-07 -0.054675951758146053 0
-1.049342696563573e-07 -0.058656562474982507 0
-9.6810408934975987e-08 -0.065077185934102721 0
1.7630385322029232e-07 -0.036002027414839127 0
2.1451626589490346e-07 -0.036423474914406818 0
2.25920552862125e-07 -0.03674998220988495 0
2.4966553071647512e-07 -0.037061811517214646 0
2.5343012449217012e-07 -0.037363100943702897 0
2.3539505835201958e-07 -0.037666799573580698 0
2.5447590380494711e-07 -0.037988320050386729 0
2.6061926706714504e-07 -0.038337242154272033 0
2.4292015499988421e-07 -0.038720363467795629 0
1.6611846656435511e-07 -0.039143517365840062 0
2.3810420648418826e-07 -0.039612789079486559 0
2.185919704045617e-07 -0.040134019882709676 0
1.7798835871743444e-07 -0.040714558062967095 0
2.3411031127188404e-07 -0.04136160529224886 0
2.368203313726597e-07 -0.042087121113990211 0
1.8104920647445023e-07 -0.042910259359744879 0
1.8600347685074775e-07 -0.043852970224889383 0
1.6476720813263175e-07 -0.044942363680430031 0
1.3191282015348614e-07 -0.046214108164487684 0
1.1539762756578516e-07 -0.047719692866325283 0
1.0088258068355231e-07 -0.049534429724488446 0
8.3546757089972798e-08 -0.051780215854602199 0
5.3187993179017013e-08 -0.054672657995489204 0
1.3522953453195441e-08 -0.058652685583686956 0
-4.010236080955651e-08 -0.065073357895515702 0
3.2146162083594097e-07 -0.035998543955576071 0
3.6988313752400123e-07 -0.036419680677902973 0
3.7747211272223465e-07 -0.036745977574031224 0
3.9317012801913252e-07 -0.03705759015348957 0
4.1083489719651197e-07 -0.037358656315468267 0
4.263329916365905e-07 -0.037662213302599015 0
4.5845993082765463e-07 -0.037983629949926344 0
4.6519998010390695e-07 -0.038332264710978198 0
4.8820343403418975e-07 -0.038715145172571082 0
4.7957420074068186e-07 -0.039138233077541953 0
5.3944535417591875e-07 -0.039607108464530819 0
6.3662513904177535e-07 -0.040128245601673579 0
5.3742091521522958e-07 -0.040708619633129745 0
4.7365566487310374e-07 -0.041355323570457111 0
5.2803632306844716e-07 -0.042080546104731595 0
5.1059506677506249e-07 -0.04290335437209486 0
5.0320307660248177e-07 -0.043845700179117833 0
5.2423121738949746e-07 -0.044934921511265546 0
4.7983289405224885e-07 -0.046206435386654005 0
5.1175993478469741e-07 -0.047711408998201657 0
5.0607542530558833e-07 -0.049525817362785732 0
4.8768074975629163e-07 -0.051771480538408882 0
4.9204334638902732e-07 -0.054665637408865715 0
4.5656189418163896e-07 -0.058642503002563552 0
4.1506688048774437e-07 -0.065062507833794997 0
7.2711382634909877e-07 -0.035990214500671837 0
7.7446360256787286e-07 -0.036410600393211347 0
8.0232636582235004e-07 -0.036736388073191711 0
8.4856071401192275e-07 -0.037047572352906386 0
8.8387765405005749e-07 -0.037348096841977457 0
9.0053739609863309e-07 -0.037651260837885676 0
9.1107185960423067e-07 -0.037972045750369651 0
9.0960526346101332e-07 -0.038320395226797373 0
9.5379867563063259e-07 -0.038702580277292717 0
9.8273250168894841e-07 -0.039125165451713885 0
1.0308769538253285e-06 -0.03959367926222139 0
1.0407334178554792e-06 -0.040114151282512604 0
9.5062514222439268e-07 -0.040693657053059926 0
1.1313386931443155e-06 -0.041339653087196337 0
1.2188510679782889e-06 -0.042063991508943063 0
1.1182130023234113e-06 -0.042885741318061173 0
1.1724302341181361e-06 -0.043826894826075991 0
1.1656707445637213e-06 -0.044915362537962571 0
1.1823544198018749e-06 -0.046185737257901004 0
1.2068492869635308e-06 -0.047688793730349906 0
1.2253654902827969e-06 -0.049501241654410118 0
1.2613470522306859e-06 -0.051745083204261876 0
1.2772288999358631e-06 -0.054641403830592988 0
1.3494088648864032e-06 -0.058614825659040935 0
1.3326362730189373e-06 -0.065031790150319277 0
1.3728631885388416e-06 -0.035972495502578243 0
1.4696958338228045e-06 -0.03639130738448048 0
1.5422103433195336e-06 -0.036715738103997107 0
1.5909244673330455e-06 -0.037025709308654592 0
1.6045127808545489e-06 -0.037325316439300545 0
1.6592909477965083e-06 -0.037627287879689435 0
1.7036003483881614e-06 -0.037946794111687915 0
1.777616005028292e-06 -0.038293773519755124 0
1.7371092192175493e-06 -0.038674976614483103 0
1.718016399173827e-06 -0.039096084162836837 0
1.7549079770082005e-06 -0.039563015386329468 0
1.768130985373721e-06 -0.040081798320411713 0
1.8473355410988487e-06 -0.040659396834623607 0
2.0186938416308882e-06 -0.041303421908005226 0
2.1045893488809109e-06 -0.042025592883191951 0
2.133182765904559e-06 -0.04284503411116846 0
2.1961075340197486e-06 -0.043783578040032058 0
2.2244668373150928e-06 -0.044868644714926811 0
2.2938795018621807e-06 -0.046135441516088178 0
2.3728983714168621e-06 -0.047635024251457339 0
2.456502627641323e-06 -0.049443232529265892 0
2.5443146551155851e-06 -0.051681886533029124 0
2.6361993388945297e-06 -0.054570473460049042 0
2.7404271581078841e-06 -0.05853930549871067 0
2.8569996997135272e-06 -0.064948330207893659 0
3.8703313945125398e-06 -0.035938252278871735 0
4.1300677883930607e-06 -0.036353785627162134 0
4.2775176670714387e-06 -0.036675725404560704 0
4.432086943748634e-06 -0.036983189475354498 0
4.5415000117852696e-06 -0.037280191382886949 0
4.6434405965606466e-06 -0.03757943672448319 0
4.7512148068889925e-06 -0.03789607919068979 0
4.8268933526963965e-06 -0.038240112068325262 0
4.8173258875342186e-06 -0.038617768285160593 0
4.9395031665915684e-06 -0.039035127387617947 0
5.0267267665090401e-06 -0.039497795628588309 0
5.0733442025459994e-06 -0.040011730111336949 0
5.1672465757069086e-06 -0.040583997029791097 0
5.2428486232273342e-06 -0.041221910149060556 0
5.3176028561850741e-06 -0.041937392832529008 0
5.4212304195649966e-06 -0.042749086192024548 0
5.5319473826402659e-06 -0.043678890735226274 0
5.6447713525855327e-06 -0.044753845814374034 0
5.7156147604230474e-06 -0.046009374488445137 0
5.8744862259772682e-06 -0.04749639893399786 0
6.0247025454945863e-06 -0.049290251743852195 0
6.1762969958247914e-06 -0.05151235609176974 0
6.3799936485653586e-06 -0.054379568797910068 0
6.6419856150639562e-06 -0.05832726666371825 0
6.9542789626763619e-06 -0.064709442450609347 0
1.0901210530928887e-05 -0.035872068705293157 0
1.1618931486902383e-05 -0.036283386055109376 0
1.2091776190443814e-05 -0.036601495087620728 0
1.249299900819957e-05 -0.036904794448166189 0
1.2852747193378813e-05 -0.037197436681330222 0
1.3137887668627376e-05 -0.037492380639392371 0
1.3382842168176792e-05 -0.037804297540033949 0
1.3582315360835012e-05 -0.038142806493477815 0
1.3771496435020424e-05 -0.038514014602862065 0
1.3876806162991923e-05 -0.038923485012918396 0
1.4030437671541012e-05 -0.039376685024046246 0
1.3983087833120852e-05 -0.039879240713534186 0
1.41615555144155e-05 -0.040437787557533467 0
1.4306314890503023e-05 -0.041059715653268207 0
1.4507893128441716e-05 -0.041756159649529376 0
1.4676526783685822e-05 -0.042545398425133191 0
1.4817490042749047e-05 -0.043448766862849639 0
1.4846576614006012e-05 -0.044492558767295853 0
1.4971657109975256e-05 -0.045711964569097915 0
1.5088151110995604e-05 -0.047156774010387953 0
1.520453962176267e-05 -0.048900821606528727 0
1.53370610537731e-05 -0.051064182369898993 0
1.5646197341905301e-05 -0.053863328321643235 0
1.5810959516475883e-05 -0.057736606881307301 0
1.6004946290246159e-05 -0.064025438327847156 0
1.9024467132472125e-05 -0.035714330483982551 0
1.9990367811420335e-05 -0.036092389321896755 0
2.0674819278156485e-05 -0.036384223018930399 0
2.1289050634923408e-05 -0.036667647685425658 0
2.1837963315089279e-05 -0.036944694184836306 0
2.2336560079866519e-05 -0.037228646319686844 0
2.279968548653333e-05 -0.037531329423383636 0
2.3233091017779742e-05 -0.03786017324081227 0
2.363604808141288e-05 -0.038220540757424766 0
2.4001856280905837e-05 -0.038617755468464715 0
2.4314158208181884e-05 -0.039057141957614998 0
2.458244325484696e-05 -0.039544484236200744 0
2.4773417585929246e-05 -0.040086081652636815 0
2.4911982512816188e-05 -0.040688754518687933 0
2.5028417536705797e-05 -0.041362616794737461 0
2.5108185750336147e-05 -0.042126308162285228 0
2.5176362939963579e-05 -0.04300081778738913 0
2.5254149258551833e-05 -0.044011703906853376 0
2.5329002786784405e-05 -0.045195376112804581 0
2.5444042510493131e-05 -0.046599353839398019 0
2.559631385134137e-05 -0.048299217259772403 0
2.5801036479905708e-05 -0.050415384376612547 0
2.6079683251053156e-05 -0.053156318462142603 0
2.6476992400939978e-05 -0.056939282706291304 0
2.71126223702678e-05 -0.062938727134233527 0
-0 -0 0
-0 -0 0
-0 -0 0
-0 -0 0
-0 -0 0
-0 -0 0
1.9682538420108058e-05 0.035188491113417535 0
2.2425791385736297e-05 0.037298606592397823 0
2.5129106516245503e-05 0.042300851624505566 0
-0 -0 0
-0 -0 0
-0 -0 0
2.0979309376204519e-05 0.036437064333015114 0
2.2575283856927682e-05 0.037947818723757784 0
2.4631611536650209e-05 0.042454303217569649 0
-0 -0 0
-0 -0 0
-0 -0 0
1.6379745773003286e-05 0.036545479142238053 0
1.8030507969264777e-05 0.038070648665279705 0
1.9906760562398928e-05 0.042603586145725535 0
-0 -0 0
-0 -0 0
-0 -0 0
8.3239801444684222e-06 0.036670089155445375 0
9.3015019964755919e-06 0.038216807279617571 0
1.0555068481685632e-05 0.042835992650846769 0
-0 -0 0
-0 -0 0
-0 -0 0
2.9868377707857068e-06 0.03672659412715646 0
3.3771057768882703e-06 0.038291273107185511 0
3.9322944105923872e-06 0.042970344026141589 0
-0 -0 0
-0 -0 0
-0 -0 0
1.2887349248889707e-06 0.036756610679095525 0
1.4307484098629755e-06 0.03832959920277422 0
1.6243135703612036e-06 0.043032297409363478 0
-0 -0 0
-0 -0 0
-0 -0 0
7.2529807644956567e-07 0.036771408396238402 0
8.4078481617687704e-07 0.038347862930946372 0
9.6034210657641672e-07 0.043058680314607994 0
-0 -0 0
-0 -0 0
-0 -0 0
5.8720873670657656e-07 0.036777988558850214 0
6.9682166755087982e-07 0.038355767538308196 0
7.6364890577760678e-07 0.043069305873244867 0
-0 -0 0
-0 -0 0
-0 -0 0
3.9114132518397284e-07 0.036780590348572478 0
4.504516473394185e-07 0.038358665004044917 0
4.7892568674759857e-07 0.043072769613794012 0
-0 -0 0
-0 -0 0
-0 -0 0
-6.3512503822252513e-08 0.03678053773270195 0
-6.2259449252586935e-08 0.0383585241981639 0
-3.5232345286842031e-08 0.043072425831907492 0
-0 -0 0
-0 -0 0
-0 -0 0
-3.045934423915613e-07 0.036777885173911361 0
-3.4976741979987258e-07 0.038355389279637137 0
-3.5483099202743477e-07 0.043068412217536052 0
-0 -0 0
-0 -0 0
-0 -0 0
-6.1069171162357161e-07 0.036771120295898123 0
-7.1453499916835967e-07 0.038347309431735928 0
-8.365297837915453e-07 0.043057454683268492 0
-0 -0 0
-0 -0 0
-0 -0 0
-1.1927464450129637e-06 0.036756150498188596 0
-1.3547034167220357e-06 0.038329004800423373 0
-1.6329947496259688e-06 0.043031127614318702 0
-0 -0 0
-0 -0 0
-0 -0 0
-2.9199049561769667e-06 0.036726114314793862 0
-3.284559545341749e-06 0.038290753899372733 0
-3.81395527335322e-06 0.042969794744228802 0
-0 -0 0
-0 -0 0
-0 -0 0
-8.0989213638434451e-06 0.036669679792165642 0
-8.9313722237316225e-06 0.038216471751302522 0
-9.922895666878632e-06 0.04283601902003608 0
-0 -0 0
-0 -0 0
-0 -0 0
-1.5945031400339483e-05 0.036545358935275635 0
-1.7495127909041558e-05 0.038070664538555746 0
-1.9191531042118631e-05 0.042603866175658735 0
-0 -0 0
-0 -0 0
-0 -0 0
-2.0498835699147117e-05 0.036437128840162786 0
-2.2099069277954297e-05 0.037947979932168072 0
-2.4129060254781039e-05 0.042454762637582688 0
-0 -0 0
-0 -0 0
-0 -0 0
-1.921839147206678e-05 0.035188344407358942 0
-2.1947495334144339e-05 0.037298606523576062 0
-2.465469246461969e-05 0.042301414695711588 0
-0 -0 0
-0 -0 0
-0 -0 0
-0 -0 0
-0 -0 0
-0 -0 0
-0 -0 0
-0 -0 0
-0 -0 0
-0 -0 0
-0 -0 0
-0 -0 0
-0 -0 0
-0 -0 0
-0 -0 0
-0 -0 0
-0 -0 0
-0 -0 0
-0 -0 0
-0 -0 0
-0 -0 0
-0 -0 0
-0 -0 0
-0 -0 0
-0 -0 0
-0 -0 0
-0 -0 0
-0 -0 0
-0 -0 0
-0 -0 0
-0 -0 0
-0 -0 0
-0 -0 0
-0 -0 0
-0 -0 0
-0 -0 0
-0 -0 0
-0 -0 0
-0 -0 0
-0 -0 0
-0 -0 0
-0 -0 0
-0 -0 0
-0 -0 0
-0 -0 0
-0 -0 0
-0 -0 0
-0 -0 0
-0 -0 0
-0 -0 0
-0 -0 0
-0 -0 0
-0 -0 0
-0 -0 0
-0 -0 0
-0 -0 0
-0 -0 0
-0 -0 0
-0 -0 0
-0 -0 0
-0 -0 0
-0 -0 0
-0 -0 0
-0 -0 0
-0 -0 0
-0 -0 0
-0 -0 0
-0 -0 0
-0 -0 0
-0 -0 0
-0 -0 0
-0 -0 0
-0 -0 0
-0 -0 0
-0 -0 0
-0 -0 0
-0 -0 0
-0 -0 0
-0 -0 0
-0 -0 0
-0 -0 0
-0 -0 0
-0 -0 0
-0 -0 0
-0 -0 0
-0 -0 0
-0 -0 0
-0 -0 0
-0 -0 0
-0 -0 0
-0 -0 0
-0 -0 0
-0 -0 0
-0 -0 0
-0 -0 0
-0 -0 0
-0 -0 0
-0 -0 0
-0 -0 0
-0 -0 0
-0 -0 0
-0 -0 0
-0 -0 0
-0 -0 0
-0 -0 0
-0 -0 0
-0 -0 0
-0 -0 0
-0 -0 0
-0 -0 0
-0 -0 0
-0 -0 0
-0 -0 0
-0 -0 0
-0 -0 0
-0 -0 0
-0 -0 0
-0 -0 0
-0 -0 0
-0 -0 0
-0 -0 0
-0 -0 0
-0 -0 0
-0 -0 0
-0 -0 0
-0 -0 0
-0 -0 0
-0 -0 0
-0 -0 0
-0 -0 0
-0 -0 0
-0 -0 0
-0 -0 0
-0 -0 0
-0 -0 0
-0 -0 0
-0 -0 0
-0 -0 0
-0 -0 0
-0 -0 0
-0 -0 0
-0 -0 0
-0 -0 0
-0 -0 0
-0 -0 0
-0 -0 0
-0 -0 0
-0 -0 0
-0 -0 0
-0 -0 0
-0 -0 0
-0 -0 0
-0 -0 0
-0 -0 0
-0 -0 0
-0 -0 0
-0 -0 0
-0 -0 0
-0 -0 0
-0 -0 0
-0 -0 0
-0 -0 0
-0 -0 0
-0 -0 0
-0 -0 0
-0 -0 0
-0 -0 0
-0 -0 0
-0 -0 0
-0 -0 0
-0 -0 0
-0 -0 0
-0 -0 0
-0 -0 0
-0 -0 0
-0 -0 0
-0 -0 0
-0 -0 0
-0 -0 0
-0 -0 0
-0 -0 0
-0 -0 0
-0 -0 0
-0 -0 0
-0 -0 0
-0 -0 0
-0 -0 0
-0 -0 0
-0 -0 0
-0 -0 0
-0 -0 0
-0 -0 0
-0 -0 0
-0 -0 0
-0 -0 0
