# vtk DataFile Version 3.0
SPH particles (WCSPH) - legacy PolyData
ASCII
DATASET POLYDATA
POINTS 681 float
0.049989171116786663 0.021419765499174587 0
0.049987709240570451 0.023722075301033665 0
0.049986556625161181 0.025545543856088357 0
0.049985457060604567 0.027361652976370485 0
0.049984459516523042 0.029149675278229755 0
0.049983558747157583 0.030903724280912839 0
0.049982761866308019 0.032627156965192791 0
0.049981888549171946 0.034327047976383397 0
0.049980839063132332 0.036011721715715997 0
0.049979413825063511 0.037690030791558783 0
0.049977219142259055 0.039371067188788571 0
0.049974530267427382 0.041064104303641505 0
0.04997331572200734 0.042778665780222561 0
0.049974420997212554 0.044524852539870097 0
0.049976717499158579 0.04631328452290813 0
0.049979576561671471 0.048155553252792624 0
0.049982493985683656 0.050065880758203826 0
0.049985336696862656 0.052072250528025707 0
0.049987957094804206 0.054198871424391663 0
0.049990215317360018 0.056479608524651066 0
0.04999211338429984 0.058972574380725923 0
0.0499936746669606 0.061736850972972428 0
0.049994972431390589 0.064869301210696367 0
0.049996087605669828 0.068626801839598989 0
0.049998025179344652 0.073845731040382626 0
0.069994112057870192 0.019801808226867106 0
0.06999323373968569 0.022392927932991191 0
0.069992512367439683 0.024479820342119582 0
0.069991852885539677 0.026509014409626479 0
0.069991256339967597 0.028472577596431625 0
0.069990668858181143 0.030374941582864457 0
0.069990083814105528 0.032227142515237193 0
0.069989491301285012 0.034042025847596871 0
0.069988817062122288 0.035831826557573436 0
0.069987844826721865 0.0376082804446509 0
0.069986102412360918 0.03938272102896459 0
0.06998339149137045 0.041166218662618513 0
0.069981692269049794 0.042969848014106547 0
0.06998189027691952 0.044805374796916653 0
0.069983402425867147 0.046685471609222477 0
0.069985538717377338 0.048623103747098211 0
0.069987778874981102 0.050632397454927876 0
0.069990018554175415 0.052740105948341956 0
0.069991954732608747 0.054973822732467433 0
0.069993560068492625 0.057371640919119379 0
0.069994901252085726 0.059989266266218796 0
0.069995982712371646 0.062902178441107334 0
0.069996842615064919 0.066234776888982619 0
0.069997541633916735 0.070277967731718224 0
0.069998718032352081 0.075982535175063981 0
0.089997740970885268 0.019720009764294499 0
0.089997359589882975 0.02231763706969964 0
0.089997095758741402 0.024411067974133532 0
0.08999677555603329 0.026449862098293177 0
0.089996461359250143 0.028425046566755513 0
0.089996199439871319 0.03034039264181352 0
0.089995724307653194 0.032206786834438186 0
0.089995480069712974 0.034036855440767629 0
0.089995144828628512 0.035842838738535596 0
0.089994778323300051 0.037636527903435101 0
0.089994370649864125 0.039429278612852697 0
0.089993605831409654 0.041232310934635419 0
0.089992694405395063 0.043056758974320902 0
0.089992303837721749 0.044914511412508233 0
0.089992795230009498 0.046818776992558556 0
0.089993644175583837 0.048784531655188416 0
0.089994614113764415 0.050826996786875717 0
0.089995528760447516 0.052964943692255587 0
0.089996319618251067 0.055229020841761928 0
0.089996972066244227 0.057657780191846281 0
0.089997527549394551 0.060305416492124647 0
0.089997988380389679 0.063253110668995749 0
0.089998371213683231 0.066628287317337054 0
0.089998700344123578 0.070718749006621381 0
0.089999315954528425 0.076505132158527805 0
0.10999928463024956 0.019736930634578816 0
0.1099990935025511 0.022335844431133595 0
0.10999893754273303 0.024430673127104927 0
0.10999878768692105 0.026471257581819958 0
0.10999864338235621 0.028448604089849887 0
0.10999862632784441 0.030366417731531651 0
0.10999864943741808 0.032235612973356996 0
0.10999855881835327 0.0340687406930828 0
0.10999848121796547 0.035878022179629432 0
0.10999835617099539 0.037675322053226733 0
0.10999814013436478 0.039472054720524563 0
0.10999835756854648 0.041279434749673993 0
0.10999772056533506 0.043108582994628906 0
0.10999719097859494 0.044971489319043711 0
0.10999722356945868 0.046881368700647436 0
0.1099974832923036 0.048853371210228515 0
0.10999777553532065 0.050903873506486612 0
0.10999819249260902 0.053049007479493246 0
0.10999849260016639 0.055320341852014822 0
0.10999874324577315 0.057756278563617321 0
0.10999893552192228 0.060412524047548717 0
0.10999911800817627 0.063371006529813131 0
0.10999926224551847 0.06675686327423852 0
0.10999939918205297 0.070858314970160929 0
0.1099996824036092 0.076668810845321372 0
0.12999986066813388 0.01974980823814448 0
0.12999983784548585 0.022350003745785246 0
0.12999981823042919 0.024445809917833326 0
0.12999981119286561 0.026487338317510673 0
0.12999986441479094 0.028465573232640439 0
0.12999991138710859 0.030384321876906119 0
0.12999995051688418 0.032254523465970977 0
0.12999997871669181 0.034088626776423547 0
0.13000003601782154 0.035898986366363392 0
0.13000014683538585 0.037697403643372533 0
0.13000021391814992 0.039495292243472903 0
0.13000006992237306 0.041303927718876095 0
0.12999981889333181 0.043134567387514866 0
0.12999953308006715 0.044998943159632286 0
0.1299993215791227 0.04691051318872913 0
0.12999921427107922 0.048884308371341258 0
0.12999930292489023 0.050936686709700231 0
0.12999941549424546 0.053083806204377047 0
0.12999950501087845 0.05535727307375881 0
0.12999957965934533 0.057795419205914376 0
0.12999964462602229 0.060454368412385349 0
0.12999969206384718 0.06341597670983691 0
0.12999974428048883 0.066804535165244039 0
0.12999979558193608 0.070908377622092303 0
0.12999988453101086 0.076727854555134117 0
0.15000019075273166 0.019755949877910621 0
0.15000022051565604 0.022356802578863726 0
0.15000025794514799 0.024453120596504892 0
0.1500003120097532 0.02649513779786038 0
0.15000048519445341 0.028473837375375975 0
0.15000052622505675 0.030392982044743652 0
0.15000052575551068 0.032263561104440064 0
0.15000055391645234 0.034098096375534251 0
0.15000060588968864 0.035908876256143411 0
0.15000065639449847 0.037707722301081603 0
0.15000073722591342 0.039506090674981252 0
0.15000061278597679 0.041315187763643159 0
0.15000057362100336 0.043146387826079054 0
0.15000038400482027 0.045011382867976013 0
0.15000016151181378 0.046923539493553525 0
0.15000006035587551 0.048897955686972652 0
0.15000000474985545 0.050951015251596073 0
0.15000000371311908 0.053098834330167932 0
0.15000001696311543 0.055373080247330904 0
0.15000002673842511 0.057812054610976563 0
0.15000000959334309 0.060471888861862985 0
0.150000012993869 0.063434366445182605 0
0.15000002741999313 0.066823659102075522 0
0.15000003089857536 0.070927965143966529 0
0.1500000218141771 0.076751209993766931 0
0.17000040340885347 0.019758600115293217 0
0.17000048153390823 0.022359743871058942 0
0.17000052538742455 0.024456274158558767 0
0.17000065840977277 0.026498454360690444 0
0.17000074421395486 0.028477297906411542 0
0.17000088210145795 0.03039663706942787 0
0.17000108147946108 0.032267426776384535 0
0.17000114766069765 0.034102137241450711 0
0.17000118718919213 0.035913069951298449 0
0.17000121754017861 0.037712079226695325 0
0.17000122399319662 0.039510643303347817 0
0.17000112144685739 0.041319980413779774 0
0.17000109813415912 0.043151352418414307 0
0.17000108908318384 0.045016493371176636 0
0.1700006738133337 0.046928879814343412 0
0.17000052444765182 0.048903594026698999 0
0.17000042080840189 0.050956925338997996 0
0.17000035026149896 0.053105017155798434 0
0.17000030796206406 0.055379555100118084 0
0.17000027754158548 0.057818836272314732 0
0.17000021936297638 0.060478988657020553 0
0.17000018484088555 0.063441760989366991 0
0.17000015989281692 0.066831259993309286 0
0.17000014573788982 0.070935591977719439 0
0.17000011615610872 0.076760426782162397 0
0.19000035958520267 0.019759357659736659 0
0.19000040526127804 0.022360544419320175 0
0.19000058494286221 0.024457222574711834 0
0.19000064141558398 0.026499423290931363 0
0.19000074775034675 0.028478288551923348 0
0.19000096186369658 0.030397718910696783 0
0.19000117823911428 0.032268484987762434 0
0.19000117613568135 0.034103155152485548 0
0.19000123928600132 0.035914091667595273 0
0.19000127490259877 0.037713149238370297 0
0.19000116074300064 0.039511738729853238 0
0.19000116713379209 0.041321159226972673 0
0.19000085895207547 0.043152616341742708 0
0.19000077852395283 0.045017886260526628 0
0.19000072805758556 0.046930336677527433 0
0.19000057033031451 0.048905109043268322 0
0.19000051999229545 0.050958520819333539 0
0.19000051931650799 0.053106695810909411 0
0.19000044961004434 0.055381319664350295 0
0.19000049223273946 0.057820698217774365 0
0.19000041907420956 0.060480935361642084 0
0.19000033980304704 0.063443794353976707 0
0.19000025857690214 0.066833335247471717 0
0.19000022034566094 0.070937652925785605 0
0.19000016975944206 0.076762913316498843 0
0.21000040969685013 0.019758678820125677 0
0.21000049884173672 0.02235979488094908 0
0.21000056830276614 0.024456322386056158 0
0.21000063584934445 0.02649852857306682 0
0.21000074415683118 0.028477368645613427 0
0.21000077651898363 0.030396716837490713 0
0.21000087551623145 0.032267491319230797 0
0.21000091384958836 0.034102195074834661 0
0.21000098361033651 0.035913140055015141 0
0.21000102187813299 0.037712177269453591 0
0.21000100687511583 0.039510727694695824 0
0.21000096695257781 0.041320045090493022 0
0.21000079040884517 0.043151385602118605 0
0.21000064165599719 0.045016559489062108 0
0.21000063016329637 0.046928954948138688 0
0.21000054031645271 0.04890363415412298 0
0.21000051759636293 0.050956986116628127 0
0.21000055662929215 0.053105080761842866 0
0.21000040031574616 0.055379631199695079 0
0.21000036508563144 0.057818944745591475 0
0.2100003329349158 0.060479094027167703 0
0.21000031994020896 0.063441895575350488 0
0.21000027240400318 0.06683139464882551 0
0.21000023864509429 0.070935729486781646 0
0.21000018209689911 0.076760528969075092 0
0.23000050263834632 0.019756049159949843 0
0.23000059094534475 0.022356939751861631 0
0.23000068765907275 0.024453284784614955 0
0.23000077666351398 0.02649526077888659 0
0.23000090903798764 0.028473985810312727 0
0.23000100300650259 0.030393146926615912 0
0.23000109527665316 0.032263745057048238 0
0.23000115445403879 0.034098271003810639 0
0.23000129270764644 0.035909053623040491 0
0.23000138799057113 0.037707883496507132 0
0.23000140824444101 0.03950624310825359 0
0.23000121883462207 0.041315394839114616 0
0.23000103430377963 0.04314656105389434 0
0.23000094618523004 0.045011510313779993 0
0.23000093373338168 0.046923635163006537 0
0.23000086578482742 0.048898086204680995 0
0.23000076918657855 0.050951165442088761 0
0.23000066928048729 0.053099009020450207 0
0.23000062158471959 0.055373269713730938 0
0.23000054497274597 0.057812272122707481 0
0.23000048192967079 0.060472097390364472 0
0.23000042215050687 0.063434590054255779 0
0.23000036629161305 0.066823876790385206 0
0.23000031742425775 0.070928163535637356 0
0.23000020446968641 0.076751397181138964 0
0.25000068899023459 0.019749840233870438 0
0.25000081101462707 0.022350035833555239 0
0.25000089906464701 0.024445906840481924 0
0.25000103722464306 0.026487484613308115 0
0.25000115392406613 0.028465732713468576 0
0.25000126787054655 0.030384488385559055 0
0.25000132116194335 0.03225471604201649 0
0.25000148235144809 0.034088847622203496 0
0.25000157982470972 0.035899219323734875 0
0.25000170174028052 0.037697604031634135 0
0.25000178065560341 0.039495511838458827 0
0.25000170919303483 0.041304151828732795 0
0.25000159520045612 0.043134834681254987 0
0.25000175939344299 0.044999181229631799 0
0.25000164068837966 0.046910744714918177 0
0.2500015589729892 0.048884574603394772 0
0.25000138753237722 0.050936978165760205 0
0.25000117977353281 0.053084084684780923 0
0.25000102048684714 0.055357534742966598 0
0.25000089255406849 0.057795679752421496 0
0.25000077306363 0.060454627868880333 0
0.25000066044662322 0.063416218354167053 0
0.25000056117656921 0.066804776724643106 0
0.25000047168342759 0.070908603472364523 0
0.25000028116430034 0.0767281199085416 0
0.2700011089299813 0.019736975773911227 0
0.27000131691568496 0.02233589913454917 0
0.27000146790161839 0.024430741226590627 0
0.27000163496183727 0.026471353616882853 0
0.27000193117552401 0.028448748906113305 0
0.27000210245926071 0.030366592376529226 0
0.27000227449907388 0.032235882728755334 0
0.27000247722434306 0.034069019438729496 0
0.27000268956928303 0.035878327969510168 0
0.27000290283285328 0.03767563330446129 0
0.27000312588096231 0.039472332824602954 0
0.27000322374050123 0.041279670237513333 0
0.27000375499853235 0.0431088502152994 0
0.27000370990117206 0.044971717309270638 0
0.27000353686947504 0.046881600751899281 0
0.27000319198135753 0.048853644118396468 0
0.27000275108563243 0.050904173722097434 0
0.27000230580700402 0.053049318673909461 0
0.27000195346847333 0.055320616433827512 0
0.27000166414155957 0.057756547699883275 0
0.27000139275757273 0.060412832885607289 0
0.27000116947132646 0.063371336968714206 0
0.27000097986727961 0.066757203001663976 0
0.27000080957249734 0.070858659878637056 0
0.27000046211590306 0.076669174561507084 0
0.29000251972677493 0.019720125958092461 0
0.2900029338689063 0.022317734843400938 0
0.29000325432338198 0.024411182466456058 0
0.29000357841848262 0.026450000595298197 0
0.29000390579868462 0.028425174541727383 0
0.29000426582509409 0.030340538615329392 0
0.29000463342264915 0.03220707921639504 0
0.29000505517919661 0.034037200318718291 0
0.29000551542252784 0.035843199287725357 0
0.29000603641209133 0.037636874761640522 0
0.29000662359793572 0.039429640863991595 0
0.29000725889402723 0.041232621891110807 0
0.29000789751961548 0.043057057651503722 0
0.29000807887433799 0.044914777168540573 0
0.29000760616939075 0.046819049396287525 0
0.29000679529528556 0.048784814627800308 0
0.29000580775938167 0.050827336367209743 0
0.29000486049821472 0.052965309434331809 0
0.290004006028589 0.055229374049316077 0
0.29000330390227563 0.05765812456849792 0
0.29000271910797865 0.060305767205973471 0
0.29000224062146046 0.063253491838496267 0
0.29000184102453325 0.066628676576657025 0
0.29000148910577367 0.070719126145011135 0
0.29000081825334673 0.076505514201309924 0
0.31000611297466174 0.019801997347185404 0
0.31000701904360894 0.022393142712307211 0
0.3100076904335578 0.024480015044197338 0
0.31000832763192493 0.026509278915567272 0
0.3100089497335432 0.02847284600289126 0
0.31000957317181621 0.030375156037390664 0
0.31001019687552617 0.03222746289533146 0
0.31001080605907622 0.034042369199554737 0
0.31001153838172241 0.035832145367086191 0
0.31001251083767944 0.037608567230863532 0
0.31001434130938377 0.039382960605048319 0
0.31001702663452496 0.04116645732901468 0
0.31001854322869282 0.042970118220591075 0
0.31001815916517711 0.044805645395060795 0
0.31001672463990199 0.046685729475034 0
0.31001471298166849 0.048623369573735614 0
0.31001246191304238 0.050632693160284209 0
0.31001024412342049 0.052740441733241862 0
0.3100082842171521 0.054974207542719387 0
0.31000662692152092 0.057372023307936636 0
0.3100052682265656 0.059989660525064763 0
0.31000417671777297 0.062902558018974472 0
0.31000329921930481 0.066235149566513538 0
0.3100025698386491 0.070278339876079537 0
0.31000135314963251 0.075982905179525842 0
0.33001051870254239 0.021420125741728909 0
0.33001191807216629 0.02372242612534587 0
0.33001301609978589 0.025545870090225253 0
0.33001405048080201 0.027361951409033698 0
0.33001496953599152 0.029149946009101247 0
0.33001580832364752 0.03090395716479356 0
0.33001660115388814 0.032627367864199036 0
0.3300174400240854 0.034327223597192896 0
0.33001833689979704 0.036011852962935569 0
0.33001955276084033 0.037690121968075814 0
0.33002162246048283 0.039371129388514683 0
0.33002428536521949 0.041064155900111386 0
0.33002541355949888 0.042778706202479685 0
0.33002427629715475 0.044524858085895888 0
0.330022104256745 0.046313285758290572 0
0.33001939882077919 0.04815554788989547 0
0.33001650344293249 0.05006587716466987 0
0.33001369622000964 0.052072232426448414 0
0.33001119810620622 0.054198863437506059 0
0.33000905366053152 0.056479600217395259 0
0.33000728055112427 0.05897254406979674 0
0.33000582907612469 0.061736795760303949 0
0.33000464334979018 0.064869227010711669 0
0.33000366788941543 0.068626731142929734 0
0.33000190678047853 0.073845727993692684 0
0 0 0
0 0.020000000000000004 0
0 0.040000000000000001 0
0 0.54999999999999993 0
0 0.56000000000000005 0
0 0.58000000000000007 0
0.02 0 0
0.02 0.020000000000000004 0
0.02 0.040000000000000001 0
0.02 0.54999999999999993 0
0.02 0.56000000000000005 0
0.02 0.58000000000000007 0
0.040000000000000001 0 0
0.040000000000000001 0.020000000000000004 0
0.040000000000000001 0.040000000000000001 0
0.040000000000000001 0.54999999999999993 0
0.040000000000000001 0.56000000000000005 0
0.040000000000000001 0.58000000000000007 0
0.059999999999999998 0 0
0.059999999999999998 0.020000000000000004 0
0.059999999999999998 0.040000000000000001 0
0.059999999999999998 0.54999999999999993 0
0.059999999999999998 0.56000000000000005 0
0.059999999999999998 0.58000000000000007 0
0.080000000000000002 0 0
0.080000000000000002 0.020000000000000004 0
0.080000000000000002 0.040000000000000001 0
0.080000000000000002 0.54999999999999993 0
0.080000000000000002 0.56000000000000005 0
0.080000000000000002 0.58000000000000007 0
0.10000000000000001 0 0
0.10000000000000001 0.020000000000000004 0
0.10000000000000001 0.040000000000000001 0
0.10000000000000001 0.54999999999999993 0
0.10000000000000001 0.56000000000000005 0
0.10000000000000001 0.58000000000000007 0
0.12 0 0
0.12 0.020000000000000004 0
0.12 0.040000000000000001 0
0.12 0.54999999999999993 0
0.12 0.56000000000000005 0
0.12 0.58000000000000007 0
0.14000000000000001 0 0
0.14000000000000001 0.020000000000000004 0
0.14000000000000001 0.040000000000000001 0
0.14000000000000001 0.54999999999999993 0
0.14000000000000001 0.56000000000000005 0
0.14000000000000001 0.58000000000000007 0
0.16 0 0
0.16 0.020000000000000004 0
0.16 0.040000000000000001 0
0.16 0.54999999999999993 0
0.16 0.56000000000000005 0
0.16 0.58000000000000007 0
0.17999999999999999 0 0
0.17999999999999999 0.020000000000000004 0
0.17999999999999999 0.040000000000000001 0
0.17999999999999999 0.54999999999999993 0
0.17999999999999999 0.56000000000000005 0
0.17999999999999999 0.58000000000000007 0
0.20000000000000001 0 0
0.20000000000000001 0.020000000000000004 0
0.20000000000000001 0.040000000000000001 0
0.20000000000000001 0.54999999999999993 0
0.20000000000000001 0.56000000000000005 0
0.20000000000000001 0.58000000000000007 0
0.22 0 0
0.22 0.020000000000000004 0
0.22 0.040000000000000001 0
0.22 0.54999999999999993 0
0.22 0.56000000000000005 0
0.22 0.58000000000000007 0
0.23999999999999999 0 0
0.23999999999999999 0.020000000000000004 0
0.23999999999999999 0.040000000000000001 0
0.23999999999999999 0.54999999999999993 0
0.23999999999999999 0.56000000000000005 0
0.23999999999999999 0.58000000000000007 0
0.26000000000000001 0 0
0.26000000000000001 0.020000000000000004 0
0.26000000000000001 0.040000000000000001 0
0.26000000000000001 0.54999999999999993 0
0.26000000000000001 0.56000000000000005 0
0.26000000000000001 0.58000000000000007 0
0.28000000000000003 0 0
0.28000000000000003 0.020000000000000004 0
0.28000000000000003 0.040000000000000001 0
0.28000000000000003 0.54999999999999993 0
0.28000000000000003 0.56000000000000005 0
0.28000000000000003 0.58000000000000007 0
0.29999999999999999 0 0
0.29999999999999999 0.020000000000000004 0
0.29999999999999999 0.040000000000000001 0
0.29999999999999999 0.54999999999999993 0
0.29999999999999999 0.56000000000000005 0
0.29999999999999999 0.58000000000000007 0
0.32000000000000001 0 0
0.32000000000000001 0.020000000000000004 0
0.32000000000000001 0.040000000000000001 0
0.32000000000000001 0.54999999999999993 0
0.32000000000000001 0.56000000000000005 0
0.32000000000000001 0.58000000000000007 0
0.34000000000000002 0 0
0.34000000000000002 0.020000000000000004 0
0.34000000000000002 0.040000000000000001 0
0.34000000000000002 0.54999999999999993 0
0.34000000000000002 0.56000000000000005 0
0.34000000000000002 0.58000000000000007 0
0.35999999999999999 0 0
0.35999999999999999 0.020000000000000004 0
0.35999999999999999 0.040000000000000001 0
0.35999999999999999 0.54999999999999993 0
0.35999999999999999 0.56000000000000005 0
0.35999999999999999 0.58000000000000007 0
0.38 0 0
0.38 0.020000000000000004 0
0.38 0.040000000000000001 0
0.38 0.54999999999999993 0
0.38 0.56000000000000005 0
0.38 0.58000000000000007 0
0.40000000000000002 0 0
0.40000000000000002 0.020000000000000004 0
0.40000000000000002 0.040000000000000001 0
0.40000000000000002 0.54999999999999993 0
0.40000000000000002 0.56000000000000005 0
0.40000000000000002 0.58000000000000007 0
0.41999999999999998 0 0
0.41999999999999998 0.020000000000000004 0
0.41999999999999998 0.040000000000000001 0
0.41999999999999998 0.54999999999999993 0
0.41999999999999998 0.56000000000000005 0
0.41999999999999998 0.58000000000000007 0
0.44 0 0
0.44 0.020000000000000004 0
0.44 0.040000000000000001 0
0.44 0.54999999999999993 0
0.44 0.56000000000000005 0
0.44 0.58000000000000007 0
0.46000000000000002 0 0
0.46000000000000002 0.020000000000000004 0
0.46000000000000002 0.040000000000000001 0
0.46000000000000002 0.54999999999999993 0
0.46000000000000002 0.56000000000000005 0
0.46000000000000002 0.58000000000000007 0
0.47999999999999998 0 0
0.47999999999999998 0.020000000000000004 0
0.47999999999999998 0.040000000000000001 0
0.47999999999999998 0.54999999999999993 0
0.47999999999999998 0.56000000000000005 0
0.47999999999999998 0.58000000000000007 0
0.5 0 0
0.5 0.020000000000000004 0
0.5 0.040000000000000001 0
0.5 0.54999999999999993 0
0.5 0.56000000000000005 0
0.5 0.58000000000000007 0
0.52000000000000002 0 0
0.52000000000000002 0.020000000000000004 0
0.52000000000000002 0.040000000000000001 0
0.52000000000000002 0.54999999999999993 0
0.52000000000000002 0.56000000000000005 0
0.52000000000000002 0.58000000000000007 0
0.54000000000000004 0 0
0.54000000000000004 0.020000000000000004 0
0.54000000000000004 0.040000000000000001 0
0.54000000000000004 0.54999999999999993 0
0.54000000000000004 0.56000000000000005 0
0.54000000000000004 0.58000000000000007 0
0.56000000000000005 0 0
0.56000000000000005 0.020000000000000004 0
0.56000000000000005 0.040000000000000001 0
0.56000000000000005 0.54999999999999993 0
0.56000000000000005 0.56000000000000005 0
0.56000000000000005 0.58000000000000007 0
0.57999999999999996 0 0
0.57999999999999996 0.020000000000000004 0
0.57999999999999996 0.040000000000000001 0
0.57999999999999996 0.54999999999999993 0
0.57999999999999996 0.56000000000000005 0
0.57999999999999996 0.58000000000000007 0
0.59999999999999998 0 0
0.59999999999999998 0.020000000000000004 0
0.59999999999999998 0.040000000000000001 0
0.59999999999999998 0.54999999999999993 0
0.59999999999999998 0.56000000000000005 0
0.59999999999999998 0.58000000000000007 0
0.62 0 0
0.62 0.020000000000000004 0
0.62 0.040000000000000001 0
0.62 0.54999999999999993 0
0.62 0.56000000000000005 0
0.62 0.58000000000000007 0
0.64000000000000001 0 0
0.64000000000000001 0.020000000000000004 0
0.64000000000000001 0.040000000000000001 0
0.64000000000000001 0.54999999999999993 0
0.64000000000000001 0.56000000000000005 0
0.64000000000000001 0.58000000000000007 0
0.66000000000000003 0 0
0.66000000000000003 0.020000000000000004 0
0.66000000000000003 0.040000000000000001 0
0.66000000000000003 0.54999999999999993 0
0.66000000000000003 0.56000000000000005 0
0.66000000000000003 0.58000000000000007 0
0.68000000000000005 0 0
0.68000000000000005 0.020000000000000004 0
0.68000000000000005 0.040000000000000001 0
0.68000000000000005 0.54999999999999993 0
0.68000000000000005 0.56000000000000005 0
0.68000000000000005 0.58000000000000007 0
0.70000000000000007 0 0
0.70000000000000007 0.020000000000000004 0
0.70000000000000007 0.040000000000000001 0
0.70000000000000007 0.54999999999999993 0
0.70000000000000007 0.56000000000000005 0
0.70000000000000007 0.58000000000000007 0
0.71999999999999997 0 0
0.71999999999999997 0.020000000000000004 0
0.71999999999999997 0.040000000000000001 0
0.71999999999999997 0.54999999999999993 0
0.71999999999999997 0.56000000000000005 0
0.71999999999999997 0.58000000000000007 0
0.73999999999999999 0 0
0.73999999999999999 0.020000000000000004 0
0.73999999999999999 0.040000000000000001 0
0.73999999999999999 0.54999999999999993 0
0.73999999999999999 0.56000000000000005 0
0.73999999999999999 0.58000000000000007 0
0.76000000000000001 0 0
0.76000000000000001 0.020000000000000004 0
0.76000000000000001 0.040000000000000001 0
0.76000000000000001 0.54999999999999993 0
0.76000000000000001 0.56000000000000005 0
0.76000000000000001 0.58000000000000007 0
0.78000000000000003 0 0
0.78000000000000003 0.020000000000000004 0
0.78000000000000003 0.040000000000000001 0
0.78000000000000003 0.54999999999999993 0
0.78000000000000003 0.56000000000000005 0
0.78000000000000003 0.58000000000000007 0
0.80000000000000004 0 0
0.80000000000000004 0.020000000000000004 0
0.80000000000000004 0.040000000000000001 0
0.80000000000000004 0.54999999999999993 0
0.80000000000000004 0.56000000000000005 0
0.80000000000000004 0.58000000000000007 0
0.82000000000000006 0 0
0.82000000000000006 0.020000000000000004 0
0.82000000000000006 0.040000000000000001 0
0.82000000000000006 0.54999999999999993 0
0.82000000000000006 0.56000000000000005 0
0.82000000000000006 0.58000000000000007 0
0.83999999999999997 0 0
0.83999999999999997 0.020000000000000004 0
0.83999999999999997 0.040000000000000001 0
0.83999999999999997 0.54999999999999993 0
0.83999999999999997 0.56000000000000005 0
0.83999999999999997 0.58000000000000007 0
0.85999999999999999 0 0
0.85999999999999999 0.020000000000000004 0
0.85999999999999999 0.040000000000000001 0
0.85999999999999999 0.54999999999999993 0
0.85999999999999999 0.56000000000000005 0
0.85999999999999999 0.58000000000000007 0
0.88 0 0
0.88 0.020000000000000004 0
0.88 0.040000000000000001 0
0.88 0.54999999999999993 0
0.88 0.56000000000000005 0
0.88 0.58000000000000007 0
0.90000000000000002 0 0
0.90000000000000002 0.020000000000000004 0
0.90000000000000002 0.040000000000000001 0
0.90000000000000002 0.54999999999999993 0
0.90000000000000002 0.56000000000000005 0
0.90000000000000002 0.58000000000000007 0
0.92000000000000004 0 0
0.92000000000000004 0.020000000000000004 0
0.92000000000000004 0.040000000000000001 0
0.92000000000000004 0.54999999999999993 0
0.92000000000000004 0.56000000000000005 0
0.92000000000000004 0.58000000000000007 0
0.94000000000000006 0 0
0.94000000000000006 0.020000000000000004 0
0.94000000000000006 0.040000000000000001 0
0.94000000000000006 0.54999999999999993 0
0.94000000000000006 0.56000000000000005 0
0.94000000000000006 0.58000000000000007 0
0.95999999999999996 0 0
0.95999999999999996 0.020000000000000004 0
0.95999999999999996 0.040000000000000001 0
0.95999999999999996 0.54999999999999993 0
0.95999999999999996 0.56000000000000005 0
0.95999999999999996 0.58000000000000007 0
0.97999999999999998 0 0
0.97999999999999998 0.020000000000000004 0
0.97999999999999998 0.040000000000000001 0
0.97999999999999998 0.54999999999999993 0
0.97999999999999998 0.56000000000000005 0
0.97999999999999998 0.58000000000000007 0
1 0 0
1 0.020000000000000004 0
1 0.040000000000000001 0
1 0.54999999999999993 0
1 0.56000000000000005 0
1 0.58000000000000007 0
VERTICES 681 1362
1 0
1 1
1 2
1 3
1 4
1 5
1 6
1 7
1 8
1 9
1 10
1 11
1 12
1 13
1 14
1 15
1 16
1 17
1 18
1 19
1 20
1 21
1 22
1 23
1 24
1 25
1 26
1 27
1 28
1 29
1 30
1 31
1 32
1 33
1 34
1 35
1 36
1 37
1 38
1 39
1 40
1 41
1 42
1 43
1 44
1 45
1 46
1 47
1 48
1 49
1 50
1 51
1 52
1 53
1 54
1 55
1 56
1 57
1 58
1 59
1 60
1 61
1 62
1 63
1 64
1 65
1 66
1 67
1 68
1 69
1 70
1 71
1 72
1 73
1 74
1 75
1 76
1 77
1 78
1 79
1 80
1 81
1 82
1 83
1 84
1 85
1 86
1 87
1 88
1 89
1 90
1 91
1 92
1 93
1 94
1 95
1 96
1 97
1 98
1 99
1 100
1 101
1 102
1 103
1 104
1 105
1 106
1 107
1 108
1 109
1 110
1 111
1 112
1 113
1 114
1 115
1 116
1 117
1 118
1 119
1 120
1 121
1 122
1 123
1 124
1 125
1 126
1 127
1 128
1 129
1 130
1 131
1 132
1 133
1 134
1 135
1 136
1 137
1 138
1 139
1 140
1 141
1 142
1 143
1 144
1 145
1 146
1 147
1 148
1 149
1 150
1 151
1 152
1 153
1 154
1 155
1 156
1 157
1 158
1 159
1 160
1 161
1 162
1 163
1 164
1 165
1 166
1 167
1 168
1 169
1 170
1 171
1 172
1 173
1 174
1 175
1 176
1 177
1 178
1 179
1 180
1 181
1 182
1 183
1 184
1 185
1 186
1 187
1 188
1 189
1 190
1 191
1 192
1 193
1 194
1 195
1 196
1 197
1 198
1 199
1 200
1 201
1 202
1 203
1 204
1 205
1 206
1 207
1 208
1 209
1 210
1 211
1 212
1 213
1 214
1 215
1 216
1 217
1 218
1 219
1 220
1 221
1 222
1 223
1 224
1 225
1 226
1 227
1 228
1 229
1 230
1 231
1 232
1 233
1 234
1 235
1 236
1 237
1 238
1 239
1 240
1 241
1 242
1 243
1 244
1 245
1 246
1 247
1 248
1 249
1 250
1 251
1 252
1 253
1 254
1 255
1 256
1 257
1 258
1 259
1 260
1 261
1 262
1 263
1 264
1 265
1 266
1 267
1 268
1 269
1 270
1 271
1 272
1 273
1 274
1 275
1 276
1 277
1 278
1 279
1 280
1 281
1 282
1 283
1 284
1 285
1 286
1 287
1 288
1 289
1 290
1 291
1 292
1 293
1 294
1 295
1 296
1 297
1 298
1 299
1 300
1 301
1 302
1 303
1 304
1 305
1 306
1 307
1 308
1 309
1 310
1 311
1 312
1 313
1 314
1 315
1 316
1 317
1 318
1 319
1 320
1 321
1 322
1 323
1 324
1 325
1 326
1 327
1 328
1 329
1 330
1 331
1 332
1 333
1 334
1 335
1 336
1 337
1 338
1 339
1 340
1 341
1 342
1 343
1 344
1 345
1 346
1 347
1 348
1 349
1 350
1 351
1 352
1 353
1 354
1 355
1 356
1 357
1 358
1 359
1 360
1 361
1 362
1 363
1 364
1 365
1 366
1 367
1 368
1 369
1 370
1 371
1 372
1 373
1 374
1 375
1 376
1 377
1 378
1 379
1 380
1 381
1 382
1 383
1 384
1 385
1 386
1 387
1 388
1 389
1 390
1 391
1 392
1 393
1 394
1 395
1 396
1 397
1 398
1 399
1 400
1 401
1 402
1 403
1 404
1 405
1 406
1 407
1 408
1 409
1 410
1 411
1 412
1 413
1 414
1 415
1 416
1 417
1 418
1 419
1 420
1 421
1 422
1 423
1 424
1 425
1 426
1 427
1 428
1 429
1 430
1 431
1 432
1 433
1 434
1 435
1 436
1 437
1 438
1 439
1 440
1 441
1 442
1 443
1 444
1 445
1 446
1 447
1 448
1 449
1 450
1 451
1 452
1 453
1 454
1 455
1 456
1 457
1 458
1 459
1 460
1 461
1 462
1 463
1 464
1 465
1 466
1 467
1 468
1 469
1 470
1 471
1 472
1 473
1 474
1 475
1 476
1 477
1 478
1 479
1 480
1 481
1 482
1 483
1 484
1 485
1 486
1 487
1 488
1 489
1 490
1 491
1 492
1 493
1 494
1 495
1 496
1 497
1 498
1 499
1 500
1 501
1 502
1 503
1 504
1 505
1 506
1 507
1 508
1 509
1 510
1 511
1 512
1 513
1 514
1 515
1 516
1 517
1 518
1 519
1 520
1 521
1 522
1 523
1 524
1 525
1 526
1 527
1 528
1 529
1 530
1 531
1 532
1 533
1 534
1 535
1 536
1 537
1 538
1 539
1 540
1 541
1 542
1 543
1 544
1 545
1 546
1 547
1 548
1 549
1 550
1 551
1 552
1 553
1 554
1 555
1 556
1 557
1 558
1 559
1 560
1 561
1 562
1 563
1 564
1 565
1 566
1 567
1 568
1 569
1 570
1 571
1 572
1 573
1 574
1 575
1 576
1 577
1 578
1 579
1 580
1 581
1 582
1 583
1 584
1 585
1 586
1 587
1 588
1 589
1 590
1 591
1 592
1 593
1 594
1 595
1 596
1 597
1 598
1 599
1 600
1 601
1 602
1 603
1 604
1 605
1 606
1 607
1 608
1 609
1 610
1 611
1 612
1 613
1 614
1 615
1 616
1 617
1 618
1 619
1 620
1 621
1 622
1 623
1 624
1 625
1 626
1 627
1 628
1 629
1 630
1 631
1 632
1 633
1 634
1 635
1 636
1 637
1 638
1 639
1 640
1 641
1 642
1 643
1 644
1 645
1 646
1 647
1 648
1 649
1 650
1 651
1 652
1 653
1 654
1 655
1 656
1 657
1 658
1 659
1 660
1 661
1 662
1 663
1 664
1 665
1 666
1 667
1 668
1 669
1 670
1 671
1 672
1 673
1 674
1 675
1 676
1 677
1 678
1 679
1 680
POINT_DATA 681
SCALARS is_boundary int 1
LOOKUP_TABLE default
0
0
0
0
0
0
0
0
0
0
0
0
0
0
0
0
0
0
0
0
0
0
0
0
0
0
0
0
0
0
0
0
0
0
0
0
0
0
0
0
0
0
0
0
0
0
0
0
0
0
0
0
0
0
0
0
0
0
0
0
0
0
0
0
0
0
0
0
0
0
0
0
0
0
0
0
0
0
0
0
0
0
0
0
0
0
0
0
0
0
0
0
0
0
0
0
0
0
0
0
0
0
0
0
0
0
0
0
0
0
0
0
0
0
0
0
0
0
0
0
0
0
0
0
0
0
0
0
0
0
0
0
0
0
0
0
0
0
0
0
0
0
0
0
0
0
0
0
0
0
0
0
0
0
0
0
0
0
0
0
0
0
0
0
0
0
0
0
0
0
0
0
0
0
0
0
0
0
0
0
0
0
0
0
0
0
0
0
0
0
0
0
0
0
0
0
0
0
0
0
0
0
0
0
0
0
0
0
0
0
0
0
0
0
0
0
0
0
0
0
0
0
0
0
0
0
0
0
0
0
0
0
0
0
0
0
0
0
0
0
0
0
0
0
0
0
0
0
0
0
0
0
0
0
0
0
0
0
0
0
0
0
0
0
0
0
0
0
0
0
0
0
0
0
0
0
0
0
0
0
0
0
0
0
0
0
0
0
0
0
0
0
0
0
0
0
0
0
0
0
0
0
0
0
0
0
0
0
0
0
0
0
0
0
0
0
0
0
0
0
0
0
0
0
0
0
0
0
0
0
0
0
0
0
0
0
0
0
0
0
0
0
0
0
0
0
0
0
0
0
0
0
0
0
0
0
0
0
0
0
0
0
0
0
0
0
0
0
0
0
0
0
0
0
0
1
1
1
1
1
1
1
1
1
1
1
1
1
1
1
1
1
1
1
1
1
1
1
1
1
1
1
1
1
1
1
1
1
1
1
1
1
1
1
1
1
1
1
1
1
1
1
1
1
1
1
1
1
1
1
1
1
1
1
1
1
1
1
1
1
1
1
1
1
1
1
1
1
1
1
1
1
1
1
1
1
1
1
1
1
1
1
1
1
1
1
1
1
1
1
1
1
1
1
1
1
1
1
1
1
1
1
1
1
1
1
1
1
1
1
1
1
1
1
1
1
1
1
1
1
1
1
1
1
1
1
1
1
1
1
1
1
1
1
1
1
1
1
1
1
1
1
1
1
1
1
1
1
1
1
1
1
1
1
1
1
1
1
1
1
1
1
1
1
1
1
1
1
1
1
1
1
1
1
1
1
1
1
1
1
1
1
1
1
1
1
1
1
1
1
1
1
1
1
1
1
1
1
1
1
1
1
1
1
1
1
1
1
1
1
1
1
1
1
1
1
1
1
1
1
1
1
1
1
1
1
1
1
1
1
1
1
1
1
1
1
1
1
1
1
1
1
1
1
1
1
1
1
1
1
1
1
1
1
1
1
1
1
1
1
1
1
1
1
1
1
1
1
1
1
1
1
1
1
1
1
1
1
1
1
1
1
1
1
1
1
1
1
1
1
1
1
1
1
1
1
1
1
1
1
1
SCALARS rho float 1
LOOKUP_TABLE default
1020
1020
1020
1020
1020
1020
1020
1020
1020
1020
1020
1020
1020
1020
1020
1020
1020
1020
1020
1020
1020
1020
1020
1020
1020
1020
1020
1020
1020
1020
1020
1020
1020
1020
1020
1020
1020
1020
1020
1020
1020
1020
1020
1020
1020
1020
1020
1020
1020
1020
1020
1020
1020
1020
1020
1020
1020
1020
1020
1020
1020
1020
1020
1020
1020
1020
1020
1020
1020
1020
1020
1020
1020
1020
1020
1020
1020
1020
1020
1020
1020
1020
1020
1020
1020
1020
1020
1020
1020
1020
1020
1020
1020
1020
1020
1020
1020
1020
1020
1020
1020
1020
1020
1020
1020
1020
1020
1020
1020
1020
1020
1020
1020
1020
1020
1020
1020
1020
1020
1020
1020
1020
1020
1020
1020
1020
1020
1020
1020
1020
1020
1020
1020
1020
1020
1020
1020
1020
1020
1020
1020
1020
1020
1020
1020
1020
1020
1020
1020
1020
1020
1020
1020
1020
1020
1020
1020
1020
1020
1020
1020
1020
1020
1020
1020
1020
1020
1020
1020
1020
1020
1020
1020
1020
1020
1020
1020
1020
1020
1020
1020
1020
1020
1020
1020
1020
1020
1020
1020
1020
1020
1020
1020
1020
1020
1020
1020
1020
1020
1020
1020
1020
1020
1020
1020
1020
1020
1020
1020
1020
1020
1020
1020
1020
1020
1020
1020
1020
1020
1020
1020
1020
1020
1020
1020
1020
1020
1020
1020
1020
1020
1020
1020
1020
1020
1020
1020
1020
1020
1020
1020
1020
1020
1020
1020
1020
1020
1020
1020
1020
1020
1020
1020
1020
1020
1020
1020
1020
1020
1020
1020
1020
1020
1020
1020
1020
1020
1020
1020
1020
1020
1020
1020
1020
1020
1020
1020
1020
1020
1020
1020
1020
1020
1020
1020
1020
1020
1020
1020
1020
1020
1020
1020
1020
1020
1020
1020
1020
1020
1020
1020
1020
1020
1020
1020
1020
1020
1020
1020
1020
1020
1020
1020
1020
1020
1020
1020
1020
1020
1020
1020
1020
1020
1020
1020
1020
1020
1020
1020
1020
1020
1020
1020
1020
1020
1020
1020
1020
1020
1020
1020
1020
1020
1020
1020
1020
1020
1020
1020
1020
1020
1020
1020
1020
1020
1020
1020
1020
1020
1020
1020
1020
1020
1020
1020
1020
1020
1020
1020
1020
1020
1020
1020
1020
1020
1000
1000
1000
1000
1000
1000
1000
1000
1000
1000
1000
1000
1000
1000
1000
1000
1000
1000
1000
1000
1000
1000
1000
1000
1000
1000
1000
1000
1000
1000
1000
1000
1000
1000
1000
1000
1000
1000
1000
1000
1000
1000
1000
1000
1000
1000
1000
1000
1000
1000
1000
1000
1000
1000
1000
1000
1000
1000
1000
1000
1000
1000
1000
1000
1000
1000
1000
1000
1000
1000
1000
1000
1000
1000
1000
1000
1000
1000
1000
1000
1000
1000
1000
1000
1000
1000
1000
1000
1000
1000
1000
1000
1000
1000
1000
1000
1000
1000
1000
1000
1000
1000
1000
1000
1000
1000
1000
1000
1000
1000
1000
1000
1000
1000
1000
1000
1000
1000
1000
1000
1000
1000
1000
1000
1000
1000
1000
1000
1000
1000
1000
1000
1000
1000
1000
1000
1000
1000
1000
1000
1000
1000
1000
1000
1000
1000
1000
1000
1000
1000
1000
1000
1000
1000
1000
1000
1000
1000
1000
1000
1000
1000
1000
1000
1000
1000
1000
1000
1000
1000
1000
1000
1000
1000
1000
1000
1000
1000
1000
1000
1000
1000
1000
1000
1000
1000
1000
1000
1000
1000
1000
1000
1000
1000
1000
1000
1000
1000
1000
1000
1000
1000
1000
1000
1000
1000
1000
1000
1000
1000
1000
1000
1000
1000
1000
1000
1000
1000
1000
1000
1000
1000
1000
1000
1000
1000
1000
1000
1000
1000
1000
1000
1000
1000
1000
1000
1000
1000
1000
1000
1000
1000
1000
1000
1000
1000
1000
1000
1000
1000
1000
1000
1000
1000
1000
1000
1000
1000
1000
1000
1000
1000
1000
1000
1000
1000
1000
1000
1000
1000
1000
1000
1000
1000
1000
1000
1000
1000
1000
1000
1000
1000
1000
1000
1000
1000
1000
1000
1000
1000
1000
1000
1000
1000
1000
1000
1000
1000
1000
1000
1000
1000
1000
1000
1000
1000
SCALARS p float 1
LOOKUP_TABLE default
25004.681136676067
25004.681136676067
25004.681136676067
25004.681136676067
25004.681136676067
25004.681136676067
25004.681136676067
25004.681136676067
25004.681136676067
25004.681136676067
25004.681136676067
25004.681136676067
25004.681136676067
25004.681136676067
25004.681136676067
25004.681136676067
25004.681136676067
25004.681136676067
25004.681136676067
25004.681136676067
25004.681136676067
25004.681136676067
25004.681136676067
25004.681136676067
25004.681136676067
25004.681136676067
25004.681136676067
25004.681136676067
25004.681136676067
25004.681136676067
25004.681136676067
25004.681136676067
25004.681136676067
25004.681136676067
25004.681136676067
25004.681136676067
25004.681136676067
25004.681136676067
25004.681136676067
25004.681136676067
25004.681136676067
25004.681136676067
25004.681136676067
25004.681136676067
25004.681136676067
25004.681136676067
25004.681136676067
25004.681136676067
25004.681136676067
25004.681136676067
25004.681136676067
25004.681136676067
25004.681136676067
25004.681136676067
25004.681136676067
25004.681136676067
25004.681136676067
25004.681136676067
25004.681136676067
25004.681136676067
25004.681136676067
25004.681136676067
25004.681136676067
25004.681136676067
25004.681136676067
25004.681136676067
25004.681136676067
25004.681136676067
25004.681136676067
25004.681136676067
25004.681136676067
25004.681136676067
25004.681136676067
25004.681136676067
25004.681136676067
25004.681136676067
25004.681136676067
25004.681136676067
25004.681136676067
25004.681136676067
25004.681136676067
25004.681136676067
25004.681136676067
25004.681136676067
25004.681136676067
25004.681136676067
25004.681136676067
25004.681136676067
25004.681136676067
25004.681136676067
25004.681136676067
25004.681136676067
25004.681136676067
25004.681136676067
25004.681136676067
25004.681136676067
25004.681136676067
25004.681136676067
25004.681136676067
25004.681136676067
25004.681136676067
25004.681136676067
25004.681136676067
25004.681136676067
25004.681136676067
25004.681136676067
25004.681136676067
25004.681136676067
25004.681136676067
25004.681136676067
25004.681136676067
25004.681136676067
25004.681136676067
25004.681136676067
25004.681136676067
25004.681136676067
25004.681136676067
25004.681136676067
25004.681136676067
25004.681136676067
25004.681136676067
25004.681136676067
25004.681136676067
25004.681136676067
25004.681136676067
25004.681136676067
25004.681136676067
25004.681136676067
25004.681136676067
25004.681136676067
25004.681136676067
25004.681136676067
25004.681136676067
25004.681136676067
25004.681136676067
25004.681136676067
25004.681136676067
25004.681136676067
25004.681136676067
25004.681136676067
25004.681136676067
25004.681136676067
25004.681136676067
25004.681136676067
25004.681136676067
25004.681136676067
25004.681136676067
25004.681136676067
25004.681136676067
25004.681136676067
25004.681136676067
25004.681136676067
25004.681136676067
25004.681136676067
25004.681136676067
25004.681136676067
25004.681136676067
25004.681136676067
25004.681136676067
25004.681136676067
25004.681136676067
25004.681136676067
25004.681136676067
25004.681136676067
25004.681136676067
25004.681136676067
25004.681136676067
25004.681136676067
25004.681136676067
25004.681136676067
25004.681136676067
25004.681136676067
25004.681136676067
25004.681136676067
25004.681136676067
25004.681136676067
25004.681136676067
25004.681136676067
25004.681136676067
25004.681136676067
25004.681136676067
25004.681136676067
25004.681136676067
25004.681136676067
25004.681136676067
25004.681136676067
25004.681136676067
25004.681136676067
25004.681136676067
25004.681136676067
25004.681136676067
25004.681136676067
25004.681136676067
25004.681136676067
25004.681136676067
25004.681136676067
25004.681136676067
25004.681136676067
25004.681136676067
25004.681136676067
25004.681136676067
25004.681136676067
25004.681136676067
25004.681136676067
25004.681136676067
25004.681136676067
25004.681136676067
25004.681136676067
25004.681136676067
25004.681136676067
25004.681136676067
25004.681136676067
25004.681136676067
25004.681136676067
25004.681136676067
25004.681136676067
25004.681136676067
25004.681136676067
25004.681136676067
25004.681136676067
25004.681136676067
25004.681136676067
25004.681136676067
25004.681136676067
25004.681136676067
25004.681136676067
25004.681136676067
25004.681136676067
25004.681136676067
25004.681136676067
25004.681136676067
25004.681136676067
25004.681136676067
25004.681136676067
25004.681136676067
25004.681136676067
25004.681136676067
25004.681136676067
25004.681136676067
25004.681136676067
25004.681136676067
25004.681136676067
25004.681136676067
25004.681136676067
25004.681136676067
25004.681136676067
25004.681136676067
25004.681136676067
25004.681136676067
25004.681136676067
25004.681136676067
25004.681136676067
25004.681136676067
25004.681136676067
25004.681136676067
25004.681136676067
25004.681136676067
25004.681136676067
25004.681136676067
25004.681136676067
25004.681136676067
25004.681136676067
25004.681136676067
25004.681136676067
25004.681136676067
25004.681136676067
25004.681136676067
25004.681136676067
25004.681136676067
25004.681136676067
25004.681136676067
25004.681136676067
25004.681136676067
25004.681136676067
25004.681136676067
25004.681136676067
25004.681136676067
25004.681136676067
25004.681136676067
25004.681136676067
25004.681136676067
25004.681136676067
25004.681136676067
25004.681136676067
25004.681136676067
25004.681136676067
25004.681136676067
25004.681136676067
25004.681136676067
25004.681136676067
25004.681136676067
25004.681136676067
25004.681136676067
25004.681136676067
25004.681136676067
25004.681136676067
25004.681136676067
25004.681136676067
25004.681136676067
25004.681136676067
25004.681136676067
25004.681136676067
25004.681136676067
25004.681136676067
25004.681136676067
25004.681136676067
25004.681136676067
25004.681136676067
25004.681136676067
25004.681136676067
25004.681136676067
25004.681136676067
25004.681136676067
25004.681136676067
25004.681136676067
25004.681136676067
25004.681136676067
25004.681136676067
25004.681136676067
25004.681136676067
25004.681136676067
25004.681136676067
25004.681136676067
25004.681136676067
25004.681136676067
25004.681136676067
25004.681136676067
25004.681136676067
25004.681136676067
25004.681136676067
25004.681136676067
25004.681136676067
25004.681136676067
25004.681136676067
25004.681136676067
25004.681136676067
25004.681136676067
25004.681136676067
25004.681136676067
25004.681136676067
25004.681136676067
25004.681136676067
25004.681136676067
25004.681136676067
25004.681136676067
25004.681136676067
25004.681136676067
25004.681136676067
25004.681136676067
25004.681136676067
25004.681136676067
25004.681136676067
25004.681136676067
25004.681136676067
25004.681136676067
25004.681136676067
25004.681136676067
25004.681136676067
25004.681136676067
25004.681136676067
25004.681136676067
25004.681136676067
25004.681136676067
25004.681136676067
25004.681136676067
25004.681136676067
25004.681136676067
25004.681136676067
25004.681136676067
25004.681136676067
25004.681136676067
25004.681136676067
25004.681136676067
25004.681136676067
25004.681136676067
0
0
0
0
0
0
24715.246733599946
24991.46687310929
24998.065708940958
0
0
0
24995.221513736597
25003.687046012226
25004.145618321068
0
0
0
25000.227353703722
25004.166682057239
25004.397161637804
0
0
0
25000.632627078481
25004.188160107667
25004.403032616228
0
0
0
25000.665487122922
25004.187696317709
25004.401428569443
0
0
0
25000.655416164402
25004.186885305066
25004.401071845165
0
0
0
25000.647918386832
25004.1864202611
25004.400965277397
0
0
0
25000.644334939316
25004.186203721958
25004.400925064048
0
0
0
25000.642985445567
25004.186126751483
25004.400913839476
0
0
0
25000.642967895034
25004.186127689652
25004.400915163533
0
0
0
25000.644297094168
25004.186204958896
25004.400927437517
0
0
0
25000.647882283443
25004.186421069135
25004.400967530473
0
0
0
25000.655395548391
25004.186886821954
25004.401074886297
0
0
0
25000.665432869373
25004.187695899109
25004.401431952028
0
0
0
25000.632534075856
25004.188160210993
25004.403037598415
0
0
0
25000.227267633221
25004.166689811474
25004.397171456727
0
0
0
24995.220796959373
25003.687007179582
25004.145601204782
0
0
0
24715.17931129138
24991.464865892645
24998.064528205399
0
0
0
0
0
0
0
0
0
0
0
0
0
0
0
0
0
0
0
0
0
0
0
0
0
0
0
0
0
0
0
0
0
0
0
0
0
0
0
0
0
0
0
0
0
0
0
0
0
0
0
0
0
0
0
0
0
0
0
0
0
0
0
0
0
0
0
0
0
0
0
0
0
0
0
0
0
0
0
0
0
0
0
0
0
0
0
0
0
0
0
0
0
0
0
0
0
0
0
0
0
0
0
0
0
0
0
0
0
0
0
0
0
0
0
0
0
0
0
0
0
0
0
0
0
0
0
0
0
0
0
0
0
0
0
0
0
0
0
0
0
0
0
0
0
0
0
0
0
0
0
0
0
0
0
0
0
0
0
0
0
0
0
0
0
0
0
0
0
0
0
0
0
0
0
0
0
0
0
0
0
0
0
0
0
0
0
0
0
0
0
0
0
0
0
SCALARS m float 1
LOOKUP_TABLE default
0.39942306611962441
0.39942306611962441
0.39942306611962441
0.39942306611962441
0.39942306611962441
0.39942306611962441
0.39942306611962441
0.39942306611962441
0.39942306611962441
0.39942306611962441
0.39942306611962441
0.39942306611962441
0.39942306611962441
0.39942306611962441
0.39942306611962441
0.39942306611962441
0.39942306611962441
0.39942306611962441
0.39942306611962441
0.39942306611962441
0.39942306611962441
0.39942306611962441
0.39942306611962441
0.39942306611962441
0.39942306611962441
0.39942306611962441
0.39942306611962441
0.39942306611962441
0.39942306611962441
0.39942306611962441
0.39942306611962441
0.39942306611962441
0.39942306611962441
0.39942306611962441
0.39942306611962441
0.39942306611962441
0.39942306611962441
0.39942306611962441
0.39942306611962441
0.39942306611962441
0.39942306611962441
0.39942306611962441
0.39942306611962441
0.39942306611962441
0.39942306611962441
0.39942306611962441
0.39942306611962441
0.39942306611962441
0.39942306611962441
0.39942306611962441
0.39942306611962441
0.39942306611962441
0.39942306611962441
0.39942306611962441
0.39942306611962441
0.39942306611962441
0.39942306611962441
0.39942306611962441
0.39942306611962441
0.39942306611962441
0.39942306611962441
0.39942306611962441
0.39942306611962441
0.39942306611962441
0.39942306611962441
0.39942306611962441
0.39942306611962441
0.39942306611962441
0.39942306611962441
0.39942306611962441
0.39942306611962441
0.39942306611962441
0.39942306611962441
0.39942306611962441
0.39942306611962441
0.39942306611962441
0.39942306611962441
0.39942306611962441
0.39942306611962441
0.39942306611962441
0.39942306611962441
0.39942306611962441
0.39942306611962441
0.39942306611962441
0.39942306611962441
0.39942306611962441
0.39942306611962441
0.39942306611962441
0.39942306611962441
0.39942306611962441
0.39942306611962441
0.39942306611962441
0.39942306611962441
0.39942306611962441
0.39942306611962441
0.39942306611962441
0.39942306611962441
0.39942306611962441
0.39942306611962441
0.39942306611962441
0.39942306611962441
0.39942306611962441
0.39942306611962441
0.39942306611962441
0.39942306611962441
0.39942306611962441
0.39942306611962441
0.39942306611962441
0.39942306611962441
0.39942306611962441
0.39942306611962441
0.39942306611962441
0.39942306611962441
0.39942306611962441
0.39942306611962441
0.39942306611962441
0.39942306611962441
0.39942306611962441
0.39942306611962441
0.39942306611962441
0.39942306611962441
0.39942306611962441
0.39942306611962441
0.39942306611962441
0.39942306611962441
0.39942306611962441
0.39942306611962441
0.39942306611962441
0.39942306611962441
0.39942306611962441
0.39942306611962441
0.39942306611962441
0.39942306611962441
0.39942306611962441
0.39942306611962441
0.39942306611962441
0.39942306611962441
0.39942306611962441
0.39942306611962441
0.39942306611962441
0.39942306611962441
0.39942306611962441
0.39942306611962441
0.39942306611962441
0.39942306611962441
0.39942306611962441
0.39942306611962441
0.39942306611962441
0.39942306611962441
0.39942306611962441
0.39942306611962441
0.39942306611962441
0.39942306611962441
0.39942306611962441
0.39942306611962441
0.39942306611962441
0.39942306611962441
0.39942306611962441
0.39942306611962441
0.39942306611962441
0.39942306611962441
0.39942306611962441
0.39942306611962441
0.39942306611962441
0.39942306611962441
0.39942306611962441
0.39942306611962441
0.39942306611962441
0.39942306611962441
0.39942306611962441
0.39942306611962441
0.39942306611962441
0.39942306611962441
0.39942306611962441
0.39942306611962441
0.39942306611962441
0.39942306611962441
0.39942306611962441
0.39942306611962441
0.39942306611962441
0.39942306611962441
0.39942306611962441
0.39942306611962441
0.39942306611962441
0.39942306611962441
0.39942306611962441
0.39942306611962441
0.39942306611962441
0.39942306611962441
0.39942306611962441
0.39942306611962441
0.39942306611962441
0.39942306611962441
0.39942306611962441
0.39942306611962441
0.39942306611962441
0.39942306611962441
0.39942306611962441
0.39942306611962441
0.39942306611962441
0.39942306611962441
0.39942306611962441
0.39942306611962441
0.39942306611962441
0.39942306611962441
0.39942306611962441
0.39942306611962441
0.39942306611962441
0.39942306611962441
0.39942306611962441
0.39942306611962441
0.39942306611962441
0.39942306611962441
0.39942306611962441
0.39942306611962441
0.39942306611962441
0.39942306611962441
0.39942306611962441
0.39942306611962441
0.39942306611962441
0.39942306611962441
0.39942306611962441
0.39942306611962441
0.39942306611962441
0.39942306611962441
0.39942306611962441
0.39942306611962441
0.39942306611962441
0.39942306611962441
0.39942306611962441
0.39942306611962441
0.39942306611962441
0.39942306611962441
0.39942306611962441
0.39942306611962441
0.39942306611962441
0.39942306611962441
0.39942306611962441
0.39942306611962441
0.39942306611962441
0.39942306611962441
0.39942306611962441
0.39942306611962441
0.39942306611962441
0.39942306611962441
0.39942306611962441
0.39942306611962441
0.39942306611962441
0.39942306611962441
0.39942306611962441
0.39942306611962441
0.39942306611962441
0.39942306611962441
0.39942306611962441
0.39942306611962441
0.39942306611962441
0.39942306611962441
0.39942306611962441
0.39942306611962441
0.39942306611962441
0.39942306611962441
0.39942306611962441
0.39942306611962441
0.39942306611962441
0.39942306611962441
0.39942306611962441
0.39942306611962441
0.39942306611962441
0.39942306611962441
0.39942306611962441
0.39942306611962441
0.39942306611962441
0.39942306611962441
0.39942306611962441
0.39942306611962441
0.39942306611962441
0.39942306611962441
0.39942306611962441
0.39942306611962441
0.39942306611962441
0.39942306611962441
0.39942306611962441
0.39942306611962441
0.39942306611962441
0.39942306611962441
0.39942306611962441
0.39942306611962441
0.39942306611962441
0.39942306611962441
0.39942306611962441
0.39942306611962441
0.39942306611962441
0.39942306611962441
0.39942306611962441
0.39942306611962441
0.39942306611962441
0.39942306611962441
0.39942306611962441
0.39942306611962441
0.39942306611962441
0.39942306611962441
0.39942306611962441
0.39942306611962441
0.39942306611962441
0.39942306611962441
0.39942306611962441
0.39942306611962441
0.39942306611962441
0.39942306611962441
0.39942306611962441
0.39942306611962441
0.39942306611962441
0.39942306611962441
0.39942306611962441
0.39942306611962441
0.39942306611962441
0.39942306611962441
0.39942306611962441
0.39942306611962441
0.39942306611962441
0.39942306611962441
0.39942306611962441
0.39942306611962441
0.39942306611962441
0.39942306611962441
0.39942306611962441
0.39942306611962441
0.39942306611962441
0.39942306611962441
0.39942306611962441
0.39942306611962441
0.39942306611962441
0.39942306611962441
0.39942306611962441
0.39942306611962441
0.39942306611962441
0.39942306611962441
0.39942306611962441
0.39942306611962441
0.39942306611962441
0.39942306611962441
0.39942306611962441
0.39942306611962441
0.39942306611962441
0.39942306611962441
0.39942306611962441
0.39942306611962441
0.39942306611962441
0.39942306611962441
0.39942306611962441
0.39942306611962441
0.39942306611962441
0.39942306611962441
0.39942306611962441
0.39942306611962441
0.39942306611962441
0.39942306611962441
0.39942306611962441
0.39942306611962441
0.39942306611962441
0.39942306611962441
0.39942306611962441
0.39942306611962441
0.39942306611962441
0.39942306611962441
0.39942306611962441
0.39942306611962441
0.39942306611962441
0.39942306611962441
0.39942306611962441
0.39942306611962441
0.39942306611962441
0.39942306611962441
0.39942306611962441
0.39942306611962441
0.39942306611962441
0.39942306611962441
0.39942306611962441
0.39942306611962441
0.39942306611962441
0.39942306611962441
0.39942306611962441
0.39942306611962441
0.39942306611962441
0.39942306611962441
0.39942306611962441
0.39942306611962441
0.39942306611962441
0.39942306611962441
0.39942306611962441
0.39942306611962441
0.39942306611962441
0.39942306611962441
0.39942306611962441
0.39942306611962441
0.39942306611962441
0.39942306611962441
0.39942306611962441
0.39942306611962441
0.39942306611962441
0.39942306611962441
0.39942306611962441
0.39942306611962441
0.39942306611962441
0.39942306611962441
0.39942306611962441
0.39942306611962441
0.39942306611962441
0.39942306611962441
0.39942306611962441
0.39942306611962441
0.39942306611962441
0.39942306611962441
0.39942306611962441
0.39942306611962441
0.39942306611962441
0.39942306611962441
0.39942306611962441
0.39942306611962441
0.39942306611962441
0.39942306611962441
0.39942306611962441
0.39942306611962441
0.39942306611962441
0.39942306611962441
0.39942306611962441
0.39942306611962441
0.39942306611962441
0.39942306611962441
0.39942306611962441
0.39942306611962441
0.39942306611962441
0.39942306611962441
0.39942306611962441
0.39942306611962441
0.39942306611962441
0.39942306611962441
0.39942306611962441
0.39942306611962441
0.39942306611962441
0.39942306611962441
0.39942306611962441
0.39942306611962441
0.39942306611962441
0.39942306611962441
0.39942306611962441
0.39942306611962441
0.39942306611962441
0.39942306611962441
0.39942306611962441
0.39942306611962441
0.39942306611962441
0.39942306611962441
0.39942306611962441
0.39942306611962441
0.39942306611962441
0.39942306611962441
0.39942306611962441
0.39942306611962441
0.39942306611962441
0.39942306611962441
0.39942306611962441
0.39942306611962441
0.39942306611962441
0.39942306611962441
0.39942306611962441
0.39942306611962441
0.39942306611962441
0.39942306611962441
0.39942306611962441
0.39942306611962441
0.39942306611962441
0.39942306611962441
0.39942306611962441
0.39942306611962441
0.39942306611962441
0.39942306611962441
0.39942306611962441
0.39942306611962441
0.39942306611962441
0.39942306611962441
0.39942306611962441
0.39942306611962441
0.39942306611962441
0.39942306611962441
0.39942306611962441
0.39942306611962441
0.39942306611962441
0.39942306611962441
0.39942306611962441
0.39942306611962441
0.39942306611962441
0.39942306611962441
0.39942306611962441
0.39942306611962441
0.39942306611962441
0.39942306611962441
0.39942306611962441
0.39942306611962441
0.39942306611962441
0.39942306611962441
0.39942306611962441
0.39942306611962441
0.39942306611962441
0.39942306611962441
0.39942306611962441
0.39942306611962441
0.39942306611962441
0.39942306611962441
0.39942306611962441
0.39942306611962441
0.39942306611962441
0.39942306611962441
0.39942306611962441
0.39942306611962441
0.39942306611962441
0.39942306611962441
0.39942306611962441
0.39942306611962441
0.39942306611962441
0.39942306611962441
0.39942306611962441
0.39942306611962441
0.39942306611962441
0.39942306611962441
0.39942306611962441
0.39942306611962441
0.39942306611962441
0.39942306611962441
0.39942306611962441
0.39942306611962441
0.39942306611962441
0.39942306611962441
0.39942306611962441
0.39942306611962441
0.39942306611962441
0.39942306611962441
0.39942306611962441
0.39942306611962441
0.39942306611962441
0.39942306611962441
0.39942306611962441
0.39942306611962441
0.39942306611962441
0.39942306611962441
0.39942306611962441
0.39942306611962441
0.39942306611962441
0.39942306611962441
0.39942306611962441
0.39942306611962441
0.39942306611962441
0.39942306611962441
0.39942306611962441
0.39942306611962441
0.39942306611962441
0.39942306611962441
0.39942306611962441
0.39942306611962441
0.39942306611962441
0.39942306611962441
0.39942306611962441
0.39942306611962441
0.39942306611962441
0.39942306611962441
0.39942306611962441
0.39942306611962441
0.39942306611962441
0.39942306611962441
0.39942306611962441
0.39942306611962441
0.39942306611962441
0.39942306611962441
0.39942306611962441
0.39942306611962441
0.39942306611962441
0.39942306611962441
0.39942306611962441
0.39942306611962441
0.39942306611962441
0.39942306611962441
0.39942306611962441
0.39942306611962441
0.39942306611962441
0.39942306611962441
0.39942306611962441
0.39942306611962441
0.39942306611962441
0.39942306611962441
0.39942306611962441
0.39942306611962441
0.39942306611962441
0.39942306611962441
0.39942306611962441
0.39942306611962441
0.39942306611962441
0.39942306611962441
0.39942306611962441
0.39942306611962441
0.39942306611962441
0.39942306611962441
0.39942306611962441
0.39942306611962441
0.39942306611962441
0.39942306611962441
0.39942306611962441
0.39942306611962441
0.39942306611962441
0.39942306611962441
0.39942306611962441
0.39942306611962441
0.39942306611962441
0.39942306611962441
0.39942306611962441
0.39942306611962441
0.39942306611962441
0.39942306611962441
0.39942306611962441
0.39942306611962441
0.39942306611962441
0.39942306611962441
0.39942306611962441
0.39942306611962441
0.39942306611962441
0.39942306611962441
0.39942306611962441
0.39942306611962441
0.39942306611962441
0.39942306611962441
0.39942306611962441
0.39942306611962441
0.39942306611962441
0.39942306611962441
0.39942306611962441
0.39942306611962441
0.39942306611962441
0.39942306611962441
0.39942306611962441
0.39942306611962441
0.39942306611962441
0.39942306611962441
0.39942306611962441
0.39942306611962441
0.39942306611962441
0.39942306611962441
0.39942306611962441
0.39942306611962441
0.39942306611962441
0.39942306611962441
0.39942306611962441
0.39942306611962441
0.39942306611962441
0.39942306611962441
0.39942306611962441
0.39942306611962441
0.39942306611962441
0.39942306611962441
0.39942306611962441
0.39942306611962441
0.39942306611962441
0.39942306611962441
0.39942306611962441
0.39942306611962441
0.39942306611962441
0.39942306611962441
0.39942306611962441
0.39942306611962441
0.39942306611962441
0.39942306611962441
0.39942306611962441
0.39942306611962441
0.39942306611962441
0.39942306611962441
0.39942306611962441
0.39942306611962441
0.39942306611962441
0.39942306611962441
0.39942306611962441
0.39942306611962441
0.39942306611962441
0.39942306611962441
VECTORS v float
-3.1988857134582826e-05 -0.043757341145222714 0
-3.388809008144189e-05 -0.044889720623423397 0
-3.5298424757421062e-05 -0.045799782669298905 0
-3.6645349511833862e-05 -0.046743458370160668 0
-3.7930249552288865e-05 -0.047726547939009913 0
-3.9083223891785718e-05 -0.048757447421233585 0
-4.0318079485082344e-05 -0.049848648417472698 0
-4.1406214708062374e-05 -0.051013602482811365 0
-4.2432588787107512e-05 -0.052265290646961879 0
-4.3462576581969891e-05 -0.053616563136938265 0
-4.4344803030065032e-05 -0.055080725636690593 0
-4.5194281646241127e-05 -0.05667164615621452 0
-4.607480683574762e-05 -0.058410895036807381 0
-4.6861670573327014e-05 -0.060329342493218578 0
-4.7656146133148746e-05 -0.062458485382741791 0
-4.8469909949752714e-05 -0.064832241332685822 0
-4.9296920191558785e-05 -0.067491127186256827 0
-5.0167467734749975e-05 -0.070505612934348552 0
-5.1156293902531628e-05 -0.073952224338549519 0
-5.2207651604860946e-05 -0.077930458521411242 0
-5.3364707299232508e-05 -0.082593354166370078 0
-5.4671403165931621e-05 -0.088108188854441188 0
-5.6122780439451606e-05 -0.094833719741436812 0
-5.7955074010623642e-05 -0.10384265696088682 0
-6.0902014511107492e-05 -0.11934771099406867 0
-2.0130623616419387e-05 -0.044273323985214358 0
-2.1626693700259554e-05 -0.045482606157301708 0
-2.2700599354774696e-05 -0.046451713476105799 0
-2.3661488171550997e-05 -0.047429307019943703 0
-2.4510056894545184e-05 -0.048432702938655196 0
-2.5304908479786818e-05 -0.049476969674724529 0
-2.6028812699217329e-05 -0.050577061593020174 0
-2.6655787975152651e-05 -0.051748586676282918 0
-2.7410596174943343e-05 -0.05300705047355226 0
-2.7776847392074858e-05 -0.054366020664064374 0
-2.8465823772467089e-05 -0.055839237206970066 0
-2.9284166908151975e-05 -0.057441829900112533 0
-2.9755811039963202e-05 -0.059195894208992163 0
-3.0577214827393859e-05 -0.061132193572656826 0
-3.1143632682865065e-05 -0.063281862089886801 0
-3.1758903388097513e-05 -0.065677514363217254 0
-3.2359787238752986e-05 -0.068357064567452289 0
-3.2924745214668164e-05 -0.071381708418411197 0
-3.3517313489684892e-05 -0.074824732276330269 0
-3.4253695310523864e-05 -0.078777773176378615 0
-3.4918207866123775e-05 -0.083359254607417083 0
-3.5289990329931715e-05 -0.088736293890883319 0
-3.6021239994419709e-05 -0.095312587257909281 0
-3.6823000752332417e-05 -0.10415372045051455 0
-3.7862972733859591e-05 -0.11961009913081919 0
-7.577584105621316e-06 -0.044382369488566713 0
-8.1829127442761959e-06 -0.045595283576335022 0
-8.624096414277721e-06 -0.046567519405759213 0
-9.0822345818927804e-06 -0.047550956739751064 0
-9.4307299282885607e-06 -0.048561786779229864 0
-9.7868175872410008e-06 -0.049617595375624227 0
-1.0162221666241115e-05 -0.050731182977886362 0
-1.0692613226789415e-05 -0.05191979160363748 0
-1.1134836877338581e-05 -0.053199092760187791 0
-1.1520176221709618e-05 -0.054582558473149793 0
-1.1798588535167718e-05 -0.056085546363689322 0
-1.2174617452510337e-05 -0.057723054777216412 0
-1.2748088611100845e-05 -0.059518603720546112 0
-1.2725734198014548e-05 -0.061503652955433613 0
-1.3005157143426645e-05 -0.063712029042309076 0
-1.3460596711456844e-05 -0.066178865476210214 0
-1.4001645789287833e-05 -0.068945307696939254 0
-1.4360831665666398e-05 -0.072060889907339026 0
-1.5011080026626448e-05 -0.075602575029341854 0
-1.5510135319608155e-05 -0.079660581080183437 0
-1.6116868607673258e-05 -0.084344618480615599 0
-1.6784795107050581e-05 -0.089830800054325227 0
-1.7578867244651953e-05 -0.096532847870852853 0
-1.851432508117369e-05 -0.10550245321490294 0
-1.929986082539679e-05 -0.12116409124513466 0
-2.5395850460131408e-06 -0.044431696179438179 0
-2.9006538432656308e-06 -0.045651320880218949 0
-3.1422817455095802e-06 -0.046630146853386525 0
-3.4631820393245046e-06 -0.047620277216034124 0
-3.6686284779606075e-06 -0.048639532486793403 0
-3.706353899428026e-06 -0.04970439804921617 0
-3.950910181124342e-06 -0.050828010218659923 0
-4.3239965570755559e-06 -0.052028419969403071 0
-4.510453715016475e-06 -0.053320919832359176 0
-5.1510744562745456e-06 -0.054719294178751446 0
-5.2348800305342866e-06 -0.05623882147301424 0
-5.3180611007365628e-06 -0.057895470579993155 0
-5.6947208166693068e-06 -0.059713050867707007 0
-5.9594265061269705e-06 -0.061723369873427414 0
-5.8773653320530614e-06 -0.06396060641870982 0
-5.9417419374366296e-06 -0.066460341858309638 0
-6.1374712480157785e-06 -0.06926549783724481 0
-6.3431881715096208e-06 -0.072422833180838656 0
-6.4286983845286697e-06 -0.076010097031372278 0
-6.7459933113737942e-06 -0.080116129408445175 0
-7.1839991282241609e-06 -0.084851546658165827 0
-7.6432956910943695e-06 -0.090394553161867855 0
-8.0170165905684708e-06 -0.097156278044002189 0
-8.3127392662490853e-06 -0.10618619391724987 0
-8.7398475075239892e-06 -0.12193842408998232 0
-1.446246539869388e-06 -0.044460422017746436 0
-1.5598763083752956e-06 -0.045686073397965501 0
-1.6992930166839546e-06 -0.046669735192697563 0
-1.8877988699185562e-06 -0.047664169018243469 0
-1.9999470868985283e-06 -0.048688301105685027 0
-2.1888969008556232e-06 -0.04975740563898956 0
-2.3683444732749237e-06 -0.050887020913993164 0
-2.6008187003440091e-06 -0.052093063154305813 0
-2.6317123014854581e-06 -0.053391824456555707 0
-2.9033370657846218e-06 -0.054797409296890046 0
-3.0170267823327192e-06 -0.056324510502524898 0
-3.0145083120888404e-06 -0.057989159858228709 0
-2.746966484680666e-06 -0.05981631136364117 0
-2.9829697133123779e-06 -0.061837067421544441 0
-3.1543993387098311e-06 -0.064085515643038576 0
-3.2589417145971978e-06 -0.06659777825648569 0
-3.296585031959432e-06 -0.069417024815768377 0
-3.325989522933736e-06 -0.072589615231775192 0
-3.5021025822096755e-06 -0.076193648000891859 0
-3.6643006925061642e-06 -0.080317591421998624 0
-3.6978544028122302e-06 -0.085072513172773853 0
-3.591157519038674e-06 -0.090635501468032939 0
-3.6388830241195454e-06 -0.09741677774481898 0
-3.5579497757637278e-06 -0.10646384384841699 0
-3.3606643204914507e-06 -0.12224349631367305 0
4.4246701137538846e-07 -0.04447533314400446 0
6.1457143076557371e-07 -0.045703016891678154 0
5.4432126484342763e-07 -0.046688406719260167 0
5.1891093872576196e-07 -0.047685816344926933 0
4.8560076989363637e-07 -0.048712201328160114 0
4.0144452372096334e-07 -0.04978400960339039 0
5.4652985077280337e-07 -0.050916042180815482 0
5.5643825696118318e-07 -0.052124613085919522 0
5.2935183151622268e-07 -0.053426105463559768 0
5.1034277296179601e-07 -0.054834567278173867 0
3.1323437873263099e-07 -0.056364737917323979 0
8.2551436070795657e-07 -0.058032321586611604 0
7.8122972108440393e-07 -0.059862736980152077 0
1.4594092490524215e-06 -0.061887841191818914 0
1.166589676346705e-06 -0.06414041041286922 0
1.8179421602156923e-06 -0.066658382505863797 0
2.089472925975145e-06 -0.069480554282961376 0
2.0936656184987308e-06 -0.072658922219077438 0
1.9687373676438895e-06 -0.076269665478157639 0
1.6539738039753484e-06 -0.080399771290756636 0
1.7716820262113599e-06 -0.085160456082958899 0
1.7716849771968959e-06 -0.09072926263304544 0
1.6498438959545953e-06 -0.097515572969441841 0
1.6978999739694683e-06 -0.10656451892096054 0
1.4227237384041873e-06 -0.12234850309302683 0
2.085328501612792e-06 -0.044479437527780989 0
2.2765877708659339e-06 -0.045708367245095374 0
2.4848424604590404e-06 -0.046694627494459816 0
2.7658247855513942e-06 -0.047692818166644939 0
2.9755204726917365e-06 -0.04872043483467689 0
3.0942024179530092e-06 -0.049792611677071538 0
3.3888373065881929e-06 -0.05092561714825812 0
3.5870173238045945e-06 -0.052135315949599116 0
3.7522806166163681e-06 -0.053437762720163151 0
4.0352743448903496e-06 -0.054847125595565753 0
4.1861923828812568e-06 -0.056378824862807264 0
4.743464585772927e-06 -0.058047768230187077 0
3.9565664795636466e-06 -0.059879780308827457 0
4.066036677237373e-06 -0.061906423655950185 0
4.5770450135426035e-06 -0.064160703292230684 0
4.6908781898356359e-06 -0.066679522189763474 0
4.6918646890223702e-06 -0.069506064820132954 0
4.6685752752097422e-06 -0.072686023829928836 0
4.8666318488471249e-06 -0.076298113673354317 0
5.0321170428902963e-06 -0.080430325905303315 0
5.0176805653449761e-06 -0.08519287753208428 0
5.005028394081686e-06 -0.090762757893911222 0
4.8324674023563857e-06 -0.09754931436364217 0
4.8920586992721004e-06 -0.1065973348650313 0
4.7185550218431157e-06 -0.12237786001325164 0
2.0939167475319302e-06 -0.044480277245312075 0
2.3779816568074285e-06 -0.045709418552733333 0
2.7384131706577093e-06 -0.046696257433880776 0
2.9502848004096127e-06 -0.04769446673098144 0
3.0616267508725133e-06 -0.048722065391857951 0
3.315242445004229e-06 -0.049794852026804726 0
3.3688379333882588e-06 -0.05092800184294765 0
3.434838947784533e-06 -0.052137732448219204 0
3.6924806981506345e-06 -0.053440588490619834 0
3.9594550340055592e-06 -0.054850274774254526 0
4.2598008347450262e-06 -0.056382300460765034 0
2.8986345743152546e-06 -0.058051705796527686 0
3.1280974564520596e-06 -0.059883506974973064 0
3.1634918070920584e-06 -0.061910524149851119 0
3.4463629834756685e-06 -0.064165238439731084 0
4.4210334584288898e-06 -0.066683449308870615 0
4.3923422329613012e-06 -0.069512252937453833 0
4.6559931552735728e-06 -0.072692046508128577 0
4.6322695168935034e-06 -0.076304616022649263 0
4.8537100482374401e-06 -0.080437099597462244 0
4.9359238490406348e-06 -0.085199618782426906 0
4.9337985736742669e-06 -0.090769818688928194 0
5.1445703070907636e-06 -0.097556474409387528 0
5.4479095857666905e-06 -0.10660405717624717 0
5.6873245626665672e-06 -0.12238413855596884 0
2.0064141384913568e-06 -0.044479751659999553 0
2.3092122979436378e-06 -0.04570814218048859 0
2.4797924201369601e-06 -0.046694383324682155 0
2.6212474588302926e-06 -0.047692582326063056 0
2.6991464067477494e-06 -0.048719918306290723 0
2.7925887111859106e-06 -0.049792503126368258 0
2.8378062694859106e-06 -0.050925333921837422 0
3.0532798601731639e-06 -0.052134861135860612 0
3.3107260266453697e-06 -0.053437552150599275 0
3.2798317976827776e-06 -0.054847286981157761 0
3.488354751937484e-06 -0.056378551428358785 0
3.6880594993274892e-06 -0.058047928760225437 0
3.3990245020211218e-06 -0.059879024351652557 0
3.4747989031102423e-06 -0.061905304088852357 0
3.6934157018077045e-06 -0.06415965379251698 0
3.7943559368115726e-06 -0.066678504560723301 0
4.2006720652432815e-06 -0.069504812185822093 0
4.1107281159870161e-06 -0.072685083138194898 0
4.6608889519084081e-06 -0.076297194509314659 0
4.6084256135471683e-06 -0.080429281955515783 0
4.8039806081871359e-06 -0.085191820909542387 0
5.0332537500896456e-06 -0.090761739253235552 0
5.2575320627474969e-06 -0.097548776273017598 0
5.4073072477443408e-06 -0.10659713128740386 0
5.6938113707106809e-06 -0.12237876226171736 0
2.3659667828984189e-06 -0.044474445419891512 0
2.5522768917705279e-06 -0.045702251721698117 0
2.7724387544569727e-06 -0.046687972301564296 0
3.0317287388893973e-06 -0.047685150620262913 0
3.052966054280396e-06 -0.048711324440181801 0
3.3106515670195881e-06 -0.049782777845301211 0
3.5905070962910393e-06 -0.050914677395446632 0
3.8323520496278259e-06 -0.052123347090260466 0
3.949113660367564e-06 -0.053424749808775845 0
4.6950574865255572e-06 -0.054833055097420209 0
4.3606662685765953e-06 -0.056363685580119942 0
4.6036090009073678e-06 -0.058031737912681007 0
5.1494516325556243e-06 -0.05986192762173146 0
5.0535263496903985e-06 -0.061886911191738739 0
5.1708229471995415e-06 -0.064139184015262377 0
5.1419480515552968e-06 -0.066656714855539326 0
5.2610866169159434e-06 -0.069481303685493989 0
5.3068174661718335e-06 -0.072659620799718744 0
5.1355480352676574e-06 -0.076268140185758115 0
5.2563555940036514e-06 -0.080398537451260577 0
5.506914827136237e-06 -0.085159622338379273 0
5.7206684090546863e-06 -0.090728751203514341 0
5.8543776175245893e-06 -0.097514642838317706 0
6.0705122438574262e-06 -0.10656427791686174 0
6.4257129484922152e-06 -0.12234772742467256 0
3.2950981005611325e-06 -0.044461905325570997 0
3.5420896141307367e-06 -0.045686390811251927 0
3.7677084005033848e-06 -0.046670457709983917 0
4.0271607573995666e-06 -0.047665295754332614 0
4.3694834900173255e-06 -0.048689825609951005 0
4.428063311184729e-06 -0.049758907664133115 0
4.5513276028208494e-06 -0.050888853449892413 0
4.8433415469060368e-06 -0.05209493664571118 0
5.3313532248134312e-06 -0.053392237704960606 0
5.7602245318834584e-06 -0.054797248986215574 0
5.7962292880661465e-06 -0.05632468769098007 0
6.0950630436719641e-06 -0.057989398884958535 0
6.7695355084855064e-06 -0.059816388944696285 0
6.9654501104387319e-06 -0.061837343541903705 0
7.0947034189650233e-06 -0.0640856058205128 0
7.0593106782621036e-06 -0.066597831897006951 0
7.0646671257346549e-06 -0.0694171052022408 0
7.2453944328697726e-06 -0.07258979219182074 0
7.641216576131954e-06 -0.076193967359455897 0
7.8477699842331535e-06 -0.080317599585206775 0
8.4268686832135495e-06 -0.085072397997574004 0
8.5815859519313217e-06 -0.090635662002841538 0
8.8440232798971873e-06 -0.0974170174790292 0
8.990545099671066e-06 -0.10646390936862936 0
9.2729013862194513e-06 -0.12224343055054694 0
5.5468134514108616e-06 -0.044433019325237369 0
6.0563615711967486e-06 -0.045652794844923877 0
6.5794163047575946e-06 -0.046631424172477696 0
6.8048617784353172e-06 -0.047622037780596899 0
7.1661401689507859e-06 -0.048641647797029307 0
7.4234327565144884e-06 -0.049705504974529503 0
7.3827705369387646e-06 -0.050829804423129198 0
7.7441101473876274e-06 -0.052030572574728394 0
7.9360330040828396e-06 -0.053322196112988988 0
8.1612996536330297e-06 -0.054720882530510356 0
8.381854198496819e-06 -0.056240162939853497 0
8.8207111838636294e-06 -0.057896702223058392 0
1.1736681805199703e-05 -0.059713273227732615 0
1.1704598854282307e-05 -0.061724609905109078 0
1.1813374421410353e-05 -0.063962146914843296 0
1.2124012358060224e-05 -0.066461868378392713 0
1.2339444978161082e-05 -0.069267349500679115 0
1.2489170882114889e-05 -0.072424910275421417 0
1.273385969268122e-05 -0.076012122556085332 0
1.3094336241772213e-05 -0.080118027015793125 0
1.3283914197538241e-05 -0.084853351822426773 0
1.2672518269097616e-05 -0.090393991886022818 0
1.3123192593773852e-05 -0.097155563887668134 0
1.3465676257740974e-05 -0.10618549620374022 0
1.4210778477484283e-05 -0.12193695215868268 0
9.8157332991688303e-06 -0.044382557460699433 0
1.0580350826687436e-05 -0.045595516576931144 0
1.1142696504428019e-05 -0.046567673671267809 0
1.1737353376626675e-05 -0.047550740989824536 0
1.2378052624247725e-05 -0.048562114658842213 0
1.2790131193740329e-05 -0.049617366488491597 0
1.3424006999133475e-05 -0.050731352086671205 0
1.3814699780048937e-05 -0.051919980023869258 0
1.4540900547189367e-05 -0.053199385508203467 0
1.5335454175117326e-05 -0.054583225041096292 0
1.591274181571675e-05 -0.056086338885769159 0
1.615615291935703e-05 -0.057723984555211424 0
1.6526175225921122e-05 -0.059519908324815435 0
1.6606656328735507e-05 -0.061505235393310036 0
1.6603499129836851e-05 -0.06371366010250748 0
1.7424649343629896e-05 -0.06618043542217715 0
1.7696004924669747e-05 -0.068946604354154756 0
1.8387192041435253e-05 -0.072062309248276418 0
1.900717450890292e-05 -0.075603853168788357 0
1.9793617949269952e-05 -0.079661298361949393 0
2.0528920029136389e-05 -0.08434523167807817 0
2.1250360625954566e-05 -0.089829560802706973 0
2.2362672044250785e-05 -0.096532090709033749 0
2.2802286490998838e-05 -0.10550131042934488 0
2.4002568366557982e-05 -0.12116275065232557 0
2.0485765555808428e-05 -0.044272469636338921 0
2.193662376947268e-05 -0.045481832495599034 0
2.2979881704454823e-05 -0.046450981846303113 0
2.3971853276887635e-05 -0.047428744218566368 0
2.5024364108916052e-05 -0.048432068591840044 0
2.578917027230911e-05 -0.049476520315562794 0
2.6664440910808956e-05 -0.050576796036667912 0
2.7415458959646117e-05 -0.051748618664817822 0
2.8090018390982537e-05 -0.053007164577501542 0
2.8785856221168832e-05 -0.054366152038772111 0
2.9537941430246712e-05 -0.055839532564692859 0
2.9056322060549498e-05 -0.057442874808956733 0
2.9934984797181816e-05 -0.059196949217605342 0
3.0681913281049527e-05 -0.061133424078792027 0
3.1495797540927474e-05 -0.063283298257593254 0
3.2256523901881415e-05 -0.065678935725993148 0
3.3036548480367501e-05 -0.068358812006737865 0
3.3367014791295536e-05 -0.071383469542418129 0
3.4247062447539746e-05 -0.07482653757796652 0
3.5196060661692717e-05 -0.078779375348580788 0
3.6122567639861104e-05 -0.083360760927299965 0
3.7012827505257016e-05 -0.088737042813718386 0
3.8334596910983114e-05 -0.095312814319695585 0
3.9210488814288911e-05 -0.10415329611971295 0
4.0381927726436707e-05 -0.11960830474885062 0
3.1489136130031973e-05 -0.043757303507185069 0
3.3164745173703927e-05 -0.044889388296265792 0
3.4517926459030771e-05 -0.045799553272604293 0
3.5832324511179198e-05 -0.046743236728744426 0
3.7075855505898131e-05 -0.047726389067820375 0
3.8119728808386212e-05 -0.048757344890452838 0
3.9171063551002116e-05 -0.049848506252729435 0
4.0407276946257588e-05 -0.051013610957629685 0
4.1369564077748476e-05 -0.052265459856768573 0
4.2325567275760036e-05 -0.053616819360864626 0
4.3411969210558444e-05 -0.055081039612534015 0
4.4350381601030777e-05 -0.056671950876629393 0
4.5396448532333295e-05 -0.058411255760103656 0
4.6259228137791074e-05 -0.060329703726511426 0
4.707920634565601e-05 -0.062458842100040532 0
4.794069179298848e-05 -0.064832595260063935 0
4.8841402805576033e-05 -0.067491537108625335 0
4.9735382070446404e-05 -0.070506014569933925 0
5.0842262824623114e-05 -0.073952649157520464 0
5.1969400215593125e-05 -0.077930839220405682 0
5.3213287525092047e-05 -0.082593687997259899 0
5.4587817179153851e-05 -0.088108475595411281 0
5.6156246046441443e-05 -0.094833953695074941 0
5.8032339560710946e-05 -0.10384296218903581 0
6.1002340841722654e-05 -0.11934843234695484 0
-0 -0 0
-0 -0 0
-0 -0 0
-0 -0 0
-0 -0 0
-0 -0 0
3.3229031879118523e-05 0.044335539877368699 0
3.7842336023170465e-05 0.04838357143864757 0
4.4134919708994897e-05 0.057666004097661781 0
-0 -0 0
-0 -0 0
-0 -0 0
3.4557429998373925e-05 0.045954338136036291 0
3.7732549381832606e-05 0.049641560075308969 0
4.3105166120781656e-05 0.058569242467737974 0
-0 -0 0
-0 -0 0
-0 -0 0
2.7843257136937069e-05 0.046266230470801778 0
3.0958540608991273e-05 0.049936324346392065 0
3.5646712988537741e-05 0.058834922760471232 0
-0 -0 0
-0 -0 0
-0 -0 0
1.5459194889912868e-05 0.046546349582358176 0
1.7638336715181341e-05 0.050194080529158316 0
2.0766303944401373e-05 0.059140341537400248 0
-0 -0 0
-0 -0 0
-0 -0 0
5.9905476831085497e-06 0.046632145160660471 0
7.2668819278298585e-06 0.050314074085197801 0
9.0448242402639982e-06 0.059344688230331344 0
-0 -0 0
-0 -0 0
-0 -0 0
2.358769202587827e-06 0.046679003901460799 0
2.9421614575388551e-06 0.050378639732999053 0
3.7813479143642907e-06 0.059458223353318108 0
-0 -0 0
-0 -0 0
-0 -0 0
5.428993771314145e-07 0.046705308482640831 0
6.0215428109222833e-07 0.050414349349434812 0
5.8217137048673925e-07 0.059515757848974983 0
-0 -0 0
-0 -0 0
-0 -0 0
-1.3065131379527327e-06 0.046716724674986214 0
-1.5628111843752633e-06 0.050430033790359118 0
-2.1472985323169186e-06 0.05954006019421422 0
-0 -0 0
-0 -0 0
-0 -0 0
-2.2155138106656901e-06 0.046720206699761464 0
-2.6050012847798489e-06 0.050435070998384117 0
-3.2937429971331891e-06 0.059547757896091222 0
-0 -0 0
-0 -0 0
-0 -0 0
-2.4335830548838429e-06 0.046720496338733916 0
-2.8973849932688644e-06 0.050435206883300873 0
-3.552958862412526e-06 0.059547541427013004 0
-0 -0 0
-0 -0 0
-0 -0 0
-2.9768881736213423e-06 0.04671687764542666 0
-3.4992846770477222e-06 0.050430015687932907 0
-4.2203661528009852e-06 0.059539439753068753 0
-0 -0 0
-0 -0 0
-0 -0 0
-3.7117698369700582e-06 0.046705528039049649 0
-4.4150651223484259e-06 0.050414480703750111 0
-5.4892418659193954e-06 0.05951552825557984 0
-0 -0 0
-0 -0 0
-0 -0 0
-5.1283554760697334e-06 0.046679941077395343 0
-6.1531969067898983e-06 0.050379524977408767 0
-7.9288500762810813e-06 0.059458944528066028 0
-0 -0 0
-0 -0 0
-0 -0 0
-8.7331906680990538e-06 0.046632692508605106 0
-1.0291999394529866e-05 0.050314735104319698 0
-1.2793157928296306e-05 0.059345454586400094 0
-0 -0 0
-0 -0 0
-0 -0 0
-1.6850225812337124e-05 0.046546011877873758 0
-1.9213673327373296e-05 0.05019402592945095 0
-2.2698513515387695e-05 0.059140703310525775 0
-0 -0 0
-0 -0 0
-0 -0 0
-2.7735850400502178e-05 0.046265854823964468 0
-3.0870928322907045e-05 0.049936225452144253 0
-3.5694880775807364e-05 0.05883514757388144 0
-0 -0 0
-0 -0 0
-0 -0 0
-3.3881932338695752e-05 0.045954159139583436 0
-3.6980198001479594e-05 0.049641415639667973 0
-4.2436452755632781e-05 0.058569319811485492 0
-0 -0 0
-0 -0 0
-0 -0 0
-3.2622050265772908e-05 0.044335234082896351 0
-3.699622568771523e-05 0.048383137534260282 0
-4.3331733190013106e-05 0.057665839212289821 0
-0 -0 0
-0 -0 0
-0 -0 0
-0 -0 0
-0 -0 0
-0 -0 0
-0 -0 0
-0 -0 0
-0 -0 0
-0 -0 0
-0 -0 0
-0 -0 0
-0 -0 0
-0 -0 0
-0 -0 0
-0 -0 0
-0 -0 0
-0 -0 0
-0 -0 0
-0 -0 0
-0 -0 0
-0 -0 0
-0 -0 0
-0 -0 0
-0 -0 0
-0 -0 0
-0 -0 0
-0 -0 0
-0 -0 0
-0 -0 0
-0 -0 0
-0 -0 0
-0 -0 0
-0 -0 0
-0 -0 0
-0 -0 0
-0 -0 0
-0 -0 0
-0 -0 0
-0 -0 0
-0 -0 0
-0 -0 0
-0 -0 0
-0 -0 0
-0 -0 0
-0 -0 0
-0 -0 0
-0 -0 0
-0 -0 0
-0 -0 0
-0 -0 0
-0 -0 0
-0 -0 0
-0 -0 0
-0 -0 0
-0 -0 0
-0 -0 0
-0 -0 0
-0 -0 0
-0 -0 0
-0 -0 0
-0 -0 0
-0 -0 0
-0 -0 0
-0 -0 0
-0 -0 0
-0 -0 0
-0 -0 0
-0 -0 0
-0 -0 0
-0 -0 0
-0 -0 0
-0 -0 0
-0 -0 0
-0 -0 0
-0 -0 0
-0 -0 0
-0 -0 0
-0 -0 0
-0 -0 0
-0 -0 0
-0 -0 0
-0 -0 0
-0 -0 0
-0 -0 0
-0 -0 0
-0 -0 0
-0 -0 0
-0 -0 0
-0 -0 0
-0 -0 0
-0 -0 0
-0 -0 0
-0 -0 0
-0 -0 0
-0 -0 0
-0 -0 0
-0 -0 0
-0 -0 0
-0 -0 0
-0 -0 0
-0 -0 0
-0 -0 0
-0 -0 0
-0 -0 0
-0 -0 0
-0 -0 0
-0 -0 0
-0 -0 0
-0 -0 0
-0 -0 0
-0 -0 0
-0 -0 0
-0 -0 0
-0 -0 0
-0 -0 0
-0 -0 0
-0 -0 0
-0 -0 0
-0 -0 0
-0 -0 0
-0 -0 0
-0 -0 0
-0 -0 0
-0 -0 0
-0 -0 0
-0 -0 0
-0 -0 0
-0 -0 0
-0 -0 0
-0 -0 0
-0 -0 0
-0 -0 0
-0 -0 0
-0 -0 0
-0 -0 0
-0 -0 0
-0 -0 0
-0 -0 0
-0 -0 0
-0 -0 0
-0 -0 0
-0 -0 0
-0 -0 0
-0 -0 0
-0 -0 0
-0 -0 0
-0 -0 0
-0 -0 0
-0 -0 0
-0 -0 0
-0 -0 0
-0 -0 0
-0 -0 0
-0 -0 0
-0 -0 0
-0 -0 0
-0 -0 0
-0 -0 0
-0 -0 0
-0 -0 0
-0 -0 0
-0 -0 0
-0 -0 0
-0 -0 0
-0 -0 0
-0 -0 0
-0 -0 0
-0 -0 0
-0 -0 0
-0 -0 0
-0 -0 0
-0 -0 0
-0 -0 0
-0 -0 0
-0 -0 0
-0 -0 0
-0 -0 0
-0 -0 0
-0 -0 0
-0 -0 0
-0 -0 0
-0 -0 0
-0 -0 0
-0 -0 0
-0 -0 0
-0 -0 0
-0 -0 0
-0 -0 0
-0 -0 0
-0 -0 0
-0 -0 0
-0 -0 0
-0 -0 0
-0 -0 0
