# vtk DataFile Version 3.0
SPH particles (WCSPH) - legacy PolyData
ASCII
DATASET POLYDATA
POINTS 681 float
0.049991423186673697 0.019829902532720586 0
0.049990450641700213 0.021979406829589609 0
0.049989663437721835 0.023712874396643071 0
0.049988886581749596 0.025423515926439027 0
0.049988190581334392 0.027087087778663903 0
0.049987577981949985 0.028702834543054861 0
0.049987016723396338 0.030277178579035526 0
0.049986466495392866 0.031818730790938748 0
0.049985870540821931 0.033337025223743558 0
0.049985131618675509 0.034840301619964952 0
0.049983802005834188 0.036337353389922736 0
0.049982022835295771 0.03783675554691053 0
0.049981334403337817 0.039347039263637432 0
0.049982092432855244 0.040877219370083047 0
0.049983584352633947 0.04243729421548105 0
0.049985345328446264 0.044038170158614574 0
0.049987166853340759 0.045693602283735708 0
0.049988882120075649 0.04742023588121317 0
0.049990482568402626 0.049240698881031768 0
0.0499919107532742 0.051172006723791651 0
0.049993117368361095 0.053259534623609731 0
0.049994103643442186 0.055560029709683642 0
0.049994900838155401 0.058164067458794294 0
0.049995549158840337 0.061242433570038717 0
0.049996382182718888 0.065266545927148728 0
0.069995538096356696 0.018623366685205037 0
0.069994979120980877 0.020995405832925168 0
0.069994563352723749 0.022920795223485058 0
0.069994188168190447 0.024784018209182558 0
0.069993835041054192 0.026572342003227903 0
0.069993479906163322 0.028293378238661297 0
0.069993125509678206 0.02995945914894493 0
0.069992765218542724 0.031583248583897099 0
0.069992382201742198 0.033177219317473111 0
0.069991926388466352 0.034751580799484538 0
0.069991023617641049 0.036316671936590286 0
0.069989185463046666 0.037882446471479869 0
0.069988103502108739 0.039458305448696732 0
0.069988307768974647 0.041054025694612008 0
0.069989222118570796 0.042680688751869339 0
0.069990371478410071 0.044350201916470246 0
0.06999160402891666 0.04607806856406936 0
0.069992816324994059 0.047881836458001335 0
0.069993952092787262 0.049783057768080001 0
0.069994938626716366 0.051808554703646009 0
0.069995757375981835 0.054002607747981754 0
0.069996410162077097 0.056426665948101341 0
0.069996908273303973 0.059184179839956018 0
0.069997301766300937 0.06247301398605478 0
0.069997809318802423 0.066851047575006983 0
0.089998422398604713 0.018573780424989625 0
0.089998215064008361 0.020947775541770616 0
0.089998062032382711 0.022876792497113402 0
0.089997914155189859 0.024745920250542161 0
0.08999776202326655 0.026541592866740456 0
0.089997600721381771 0.028270912587495967 0
0.089997432005638187 0.029946168248240049 0
0.089997257952701457 0.031579795794573963 0
0.089997061502330999 0.033183795946865623 0
0.089996842682490849 0.034768952349074081 0
0.089996577039983996 0.036345439993126859 0
0.089996202754076188 0.037923374481983442 0
0.089995839310193435 0.039512028758026882 0
0.089995799361545323 0.041121287089918926 0
0.089996045573552341 0.042762197749260808 0
0.089996381069867348 0.044446956655623072 0
0.089996774442933178 0.046190941287683619 0
0.089997175281115879 0.048010959583921757 0
0.089997556504040233 0.049929288974860493 0
0.089997876681680564 0.051975586572882371 0
0.089998143033083081 0.054191825648731679 0
0.089998349425539151 0.05664016003894598 0
0.089998529532478846 0.059424126717568242 0
0.089998678167812984 0.062741442814994122 0
0.089998910328073792 0.067156069162468704 0
0.10999943461475317 0.018583488084410692 0
0.10999935487420676 0.020958603190817143 0
0.10999928916561785 0.022888615594740216 0
0.10999922531168525 0.024758847479378166 0
0.10999915808275577 0.026555734745590573 0
0.1099991055204206 0.028286393968310682 0
0.10999904531943522 0.029963132533336718 0
0.10999896779254789 0.031598375718183913 0
0.10999888184522663 0.033203993572044607 0
0.10999878730826448 0.034790908783689199 0
0.10999869214465258 0.036369273205967091 0
0.10999856912701395 0.037949355837766915 0
0.1099984733292842 0.039540252699110053 0
0.10999846092765762 0.041151961629807783 0
0.10999850750804674 0.042795549603480074 0
0.10999861108119542 0.044483504379328527 0
0.10999873994667433 0.04623062367460351 0
0.10999888191456526 0.048053815585124109 0
0.10999902242009132 0.049975635878149044 0
0.10999913517528175 0.05202577508412163 0
0.10999922183955972 0.054246304642552021 0
0.10999929293352381 0.056699464584745542 0
0.10999935649994057 0.059488797727708813 0
0.10999941550848263 0.062812136650220715 0
0.10999951607283537 0.067234952038445345 0
0.12999977472776927 0.018590014551727586 0
0.12999974344370258 0.020965803804967473 0
0.12999972220058728 0.022896324106999429 0
0.12999970263040905 0.024767015692514969 0
0.12999969213893303 0.026564364484249623 0
0.12999966491348008 0.028295445695791011 0
0.12999964112809442 0.029972576822487725 0
0.12999960865847546 0.031608229025402057 0
0.12999957824832448 0.033214263854359202 0
0.12999953812978801 0.034801603498043683 0
0.12999948367223688 0.036380457375681123 0
0.12999941762123643 0.037960765332836703 0
0.12999940703620039 0.03955195268648426 0
0.12999940666378038 0.041163934985227787 0
0.12999938771916097 0.042807848910013734 0
0.12999943457458304 0.0444967405196285 0
0.12999948945977183 0.046245755267999768 0
0.12999954634447222 0.048070238101615613 0
0.12999959422958654 0.049993004575333247 0
0.12999962921070352 0.052043439506617391 0
0.12999966126019913 0.054264996770345533 0
0.12999968872106363 0.056719336257358463 0
0.1299997107797248 0.059509992377579542 0
0.12999973498382919 0.062834805517022252 0
0.12999977781408567 0.067259770381009359 0
0.14999990597459587 0.018592833243075608 0
0.1499998959215077 0.020968977010042467 0
0.14999988801699468 0.022899828663069104 0
0.14999988016819973 0.024770672046404599 0
0.14999987038472004 0.02656817896710132 0
0.14999986171393387 0.028299489942379547 0
0.14999985973291591 0.029976764171032549 0
0.14999985307780689 0.031612602328744722 0
0.14999983933626415 0.033218834376447091 0
0.14999981705827733 0.034806364043713678 0
0.1499997908570366 0.036385545038215394 0
0.14999977135835926 0.037966116270824052 0
0.1499997480606986 0.039557630895807383 0
0.14999972945412229 0.041170240941924154 0
0.14999973264647984 0.042814678323939474 0
0.14999975507206204 0.044503721467606012 0
0.14999978569831743 0.046251860824945631 0
0.14999982021925024 0.048075909423806462 0
0.14999981486676231 0.049998836062019263 0
0.14999981340454427 0.052050175549504078 0
0.14999982446328147 0.054272067992030652 0
0.14999984152912155 0.05672682012644998 0
0.14999985386046058 0.059518044269218133 0
0.14999986219229355 0.062843482416147581 0
0.14999988131625869 0.067268759944702827 0
0.16999995162647077 0.018593262514172031 0
0.16999994565691412 0.020969798838712032 0
0.16999994029502405 0.022901119788401782 0
0.16999993429572421 0.024771893676444671 0
0.1699999267764194 0.026569430488187176 0
0.16999991864147432 0.028300841530016357 0
0.1699999072754734 0.029978188107906666 0
0.16999990112324018 0.031614056814214607 0
0.16999989059849155 0.033220242201720207 0
0.16999987704676009 0.034807579577825612 0
0.16999985408713747 0.03638692527368987 0
0.16999983126427434 0.037967417476403344 0
0.16999981003808762 0.039558670593027923 0
0.16999977902259863 0.041171840153453383 0
0.16999979067484131 0.042816491011370521 0
0.16999984136198995 0.044505943724017595 0
0.16999986251767069 0.046254249713963129 0
0.16999986383724583 0.048077700290618947 0
0.16999984074396043 0.050000646307201725 0
0.16999985933444409 0.05205224493847159 0
0.16999988290716833 0.054274255830206161 0
0.16999990064174408 0.056729209628000786 0
0.16999990259989345 0.059520808820759788 0
0.16999990923852609 0.062847604622160352 0
0.16999992473379336 0.067271730695937032 0
0.18999996580531064 0.018593843559105927 0
0.18999996206191908 0.020969896569713611 0
0.18999996189051901 0.022900807927835592 0
0.18999995801532732 0.024771938272456551 0
0.1899999527758014 0.026569825081374128 0
0.18999994243592422 0.028301097592013342 0
0.18999993919706887 0.029978429643546453 0
0.18999992834170706 0.031614362534813624 0
0.18999991610070072 0.033220486242707584 0
0.18999990866394359 0.034807751108008253 0
0.18999990424946786 0.036387432054254848 0
0.18999991044337178 0.037968134923344006 0
0.18999992558829421 0.0395596844402187 0
0.1899999204872399 0.041172735518974456 0
0.18999993195904175 0.042817369346627436 0
0.18999992962026357 0.044506414934848727 0
0.18999991594275673 0.046254255931067426 0
0.18999989405636997 0.048078218785530896 0
0.18999986608899616 0.050001155489823569 0
0.18999992086099612 0.052052664210724721 0
0.18999992852324846 0.054274386011788626 0
0.18999994288819555 0.056728583493342241 0
0.18999995060258254 0.059518590853687499 0
0.18999995834141348 0.062846336447650197 0
0.18999996883484405 0.067271709797708815 0
0.20999999502548369 0.018593782072672455 0
0.20999999399423347 0.020969869858951717 0
0.20999999131891564 0.022900555114692793 0
0.20999998844008122 0.024771290451797941 0
0.20999998547597953 0.026569140705084142 0
0.20999997642985657 0.028300414342721101 0
0.20999997601241513 0.029977831088840015 0
0.20999997522633529 0.03161394752431413 0
0.20999997530785497 0.033220207471800829 0
0.20999996489500786 0.03480756691769054 0
0.20999995779282199 0.0363864858045823 0
0.20999995394635132 0.037967107194299757 0
0.20999996488754719 0.039559393515079783 0
0.20999994989078494 0.041172367043533005 0
0.20999995025699 0.04281688274514632 0
0.20999996499338058 0.044505766078110298 0
0.20999996491642864 0.04625343734602335 0
0.20999996896243747 0.048077530288488261 0
0.20999999491730223 0.050000439833514258 0
0.20999999221655821 0.052051905148658047 0
0.20999998699811082 0.054273568174377416 0
0.20999997881225249 0.056727670133664185 0
0.20999998416396626 0.059517457527551026 0
0.20999999049184592 0.062844946229138055 0
0.20999999753928053 0.06727061058967182 0
0.23000005525769782 0.01859256225249217 0
0.23000006032945158 0.020968543657679025 0
0.2300000685941504 0.022899172604710395 0
0.2300000692834932 0.024769846162410049 0
0.23000006562225445 0.026567257515178026 0
0.23000007100974726 0.028298766478341491 0
0.23000008297618879 0.029976522502104686 0
0.23000009110542921 0.031612170465891508 0
0.23000009701828159 0.033218255765906535 0
0.23000009882222378 0.034805553329221528 0
0.23000010026627976 0.036384148911523639 0
0.23000011232060588 0.037965015873751791 0
0.2300001741227351 0.039557414557217688 0
0.23000013133647504 0.041170109185625893 0
0.23000010913032071 0.04281448873771599 0
0.23000013788480339 0.044503218294046035 0
0.23000014181570119 0.046250721571470602 0
0.23000014558132939 0.048074929827202996 0
0.23000018101571998 0.049997810704400979 0
0.2300001356910997 0.052049056224557251 0
0.2300001173428835 0.054270697197087804 0
0.23000009587043063 0.056725157233947283 0
0.23000008670199909 0.059516816376719697 0
0.23000008090274376 0.062841965253185153 0
0.23000007088359617 0.067267389757320106 0
0.25000016459244767 0.018589619268347155 0
0.25000018508821398 0.02096527513354263 0
0.2500002054112529 0.022895775885665798 0
0.25000022402980182 0.024766361991071351 0
0.25000023738058469 0.026563578904208764 0
0.25000025143913701 0.028294874561275909 0
0.25000027540637526 0.029972026494868222 0
0.25000029593478257 0.031607751649329177 0
0.25000031525787453 0.033213779293662413 0
0.25000034577157565 0.034801080112852406 0
0.2500003925236754 0.036379914641905008 0
0.25000047645258067 0.037960314198308337 0
0.25000050724729489 0.039551742405078597 0
0.25000055319736103 0.04116415560793419 0
0.25000054383377623 0.042808208555397916 0
0.25000049696528948 0.044496394995415467 0
0.25000046169827483 0.046243379497339997 0
0.25000041177670429 0.048067905043998688 0
0.2500003734522383 0.049990625783706069 0
0.25000033762043566 0.052040816410549355 0
0.2500003061767424 0.054261637474383402 0
0.250000276454378 0.056715683709877195 0
0.25000025004903248 0.05951069455590613 0
0.25000022580041342 0.062833753363198921 0
0.25000018737604901 0.067258169022325467 0
0.27000047831294527 0.018583018225120814 0
0.27000054787644745 0.020957963975535156 0
0.27000060006391602 0.022887831225240813 0
0.2700006534288748 0.024758057037207015 0
0.27000070154220496 0.026555228836514191 0
0.27000075593712802 0.028286115314631589 0
0.27000081168316981 0.029962051722841061 0
0.27000087012233676 0.031597857238729807 0
0.27000094491176158 0.033203598119287706 0
0.27000103733974401 0.034790382688835206 0
0.27000114533370129 0.03636887651417213 0
0.27000124881841825 0.037948775431472064 0
0.2700014051343318 0.039539602346094029 0
0.27000151475201434 0.041151507546276112 0
0.27000147148057951 0.042795128854963053 0
0.27000133012678895 0.044482921557081757 0
0.270001189014001 0.046229411881475627 0
0.27000106067685553 0.04805252056525286 0
0.27000093550265497 0.049974181042637629 0
0.27000082920554419 0.052023944169436259 0
0.27000073833602684 0.05424380266238335 0
0.27000065669417778 0.056696333992766079 0
0.27000058853095293 0.059488072253992302 0
0.27000053067682284 0.062811206074331272 0
0.27000044283030972 0.067233596103075388 0
0.2900015085383853 0.01857357749834947 0
0.29000171289614646 0.020947488636428233 0
0.29000186558951796 0.022876505652284326 0
0.2900020134641797 0.024745636789016954 0
0.29000216670368084 0.026541356118873798 0
0.29000232106144169 0.028270559826063423 0
0.29000248487029384 0.02994518587142574 0
0.29000267205892694 0.031579624163367903 0
0.29000288944658509 0.033183752192273819 0
0.29000313314884835 0.034768730167992298 0
0.2900034292750065 0.036345270172435301 0
0.2900038214953497 0.037923055306616549 0
0.29000419888701584 0.039511622171541548 0
0.29000424356791399 0.041121049031731895 0
0.29000400960823725 0.042762097485092396 0
0.29000364286141883 0.04444719603350282 0
0.29000323037721132 0.04619081465022444 0
0.29000281676853279 0.048010600164578858 0
0.29000243453980717 0.049928996151606016 0
0.29000210272128463 0.051975436631945128 0
0.29000182205407721 0.054191444297934106 0
0.29000159479487475 0.056639479755324351 0
0.29000141147422581 0.059423764533489021 0
0.29000126003438997 0.062741114856963195 0
0.29000103538991184 0.067155647315932918 0
0.31000453106800463 0.018623403467920411 0
0.3100050925438354 0.020995438818293997 0
0.3100055134356568 0.022920837676960525 0
0.3100058975635705 0.024784059499845759 0
0.31000625908099433 0.026572310219091445 0
0.3100066243594603 0.028293092045457185 0
0.31000699181392832 0.029958987751183788 0
0.3100073694806556 0.031583619555006721 0
0.31000778292104397 0.033177452953656296 0
0.31000828682165205 0.034751666652296072 0
0.31000923924829171 0.036316834858386986 0
0.31001107756021162 0.037882638778908767 0
0.3100121068505311 0.039458514584441114 0
0.31001186273684544 0.041054567448989755 0
0.31001093456165163 0.042681483260898039 0
0.31000978174875155 0.044351590932377775 0
0.31000853399064576 0.046079274614538035 0
0.31000728984479098 0.04788202319491542 0
0.31000613106724484 0.049782568376839809 0
0.31000511968888694 0.051809636318559969 0
0.31000427754337218 0.054003707097832913 0
0.31000360506425029 0.056427085126255022 0
0.31000309120766734 0.059184594061341821 0
0.31000267485949984 0.062473388754680191 0
0.31000215083879817 0.06685129932632819 0
0.33000842962802895 0.019830175511245468 0
0.33000936583764084 0.02197969457037801 0
0.33001012727409873 0.023713125770711684 0
0.33001086460603668 0.025423663112960179 0
0.33001152454917754 0.027086946422941589 0
0.33001209362081868 0.028702227536608508 0
0.33001260930476306 0.030277072644007211 0
0.33001313003636096 0.031819472636351508 0
0.33001365446208819 0.033337399528746377 0
0.33001426439158843 0.034840580185455675 0
0.3300154665835468 0.036337706071573828 0
0.3300172270555381 0.037837197025059471 0
0.33001791355830162 0.039347597575932751 0
0.330017136737214 0.040878016766133049 0
0.33001568109113005 0.042438290588332268 0
0.3300139774057792 0.044039628271536992 0
0.33001222562376642 0.045695261201370935 0
0.33001053518670609 0.047420992966271641 0
0.33000898238194165 0.049239167316118534 0
0.33000762430352526 0.051172446395218223 0
0.33000648747295769 0.053260118760226773 0
0.33000557546132109 0.055560439575735816 0
0.33000485371865163 0.058164461492886781 0
0.33000427923445158 0.061242745497005972 0
0.33000351079756401 0.065266377037202061 0
0 0 0
0 0.020000000000000004 0
0 0.040000000000000001 0
0 0.54999999999999993 0
0 0.56000000000000005 0
0 0.58000000000000007 0
0.02 0 0
0.02 0.020000000000000004 0
0.02 0.040000000000000001 0
0.02 0.54999999999999993 0
0.02 0.56000000000000005 0
0.02 0.58000000000000007 0
0.040000000000000001 0 0
0.040000000000000001 0.020000000000000004 0
0.040000000000000001 0.040000000000000001 0
0.040000000000000001 0.54999999999999993 0
0.040000000000000001 0.56000000000000005 0
0.040000000000000001 0.58000000000000007 0
0.059999999999999998 0 0
0.059999999999999998 0.020000000000000004 0
0.059999999999999998 0.040000000000000001 0
0.059999999999999998 0.54999999999999993 0
0.059999999999999998 0.56000000000000005 0
0.059999999999999998 0.58000000000000007 0
0.080000000000000002 0 0
0.080000000000000002 0.020000000000000004 0
0.080000000000000002 0.040000000000000001 0
0.080000000000000002 0.54999999999999993 0
0.080000000000000002 0.56000000000000005 0
0.080000000000000002 0.58000000000000007 0
0.10000000000000001 0 0
0.10000000000000001 0.020000000000000004 0
0.10000000000000001 0.040000000000000001 0
0.10000000000000001 0.54999999999999993 0
0.10000000000000001 0.56000000000000005 0
0.10000000000000001 0.58000000000000007 0
0.12 0 0
0.12 0.020000000000000004 0
0.12 0.040000000000000001 0
0.12 0.54999999999999993 0
0.12 0.56000000000000005 0
0.12 0.58000000000000007 0
0.14000000000000001 0 0
0.14000000000000001 0.020000000000000004 0
0.14000000000000001 0.040000000000000001 0
0.14000000000000001 0.54999999999999993 0
0.14000000000000001 0.56000000000000005 0
0.14000000000000001 0.58000000000000007 0
0.16 0 0
0.16 0.020000000000000004 0
0.16 0.040000000000000001 0
0.16 0.54999999999999993 0
0.16 0.56000000000000005 0
0.16 0.58000000000000007 0
0.17999999999999999 0 0
0.17999999999999999 0.020000000000000004 0
0.17999999999999999 0.040000000000000001 0
0.17999999999999999 0.54999999999999993 0
0.17999999999999999 0.56000000000000005 0
0.17999999999999999 0.58000000000000007 0
0.20000000000000001 0 0
0.20000000000000001 0.020000000000000004 0
0.20000000000000001 0.040000000000000001 0
0.20000000000000001 0.54999999999999993 0
0.20000000000000001 0.56000000000000005 0
0.20000000000000001 0.58000000000000007 0
0.22 0 0
0.22 0.020000000000000004 0
0.22 0.040000000000000001 0
0.22 0.54999999999999993 0
0.22 0.56000000000000005 0
0.22 0.58000000000000007 0
0.23999999999999999 0 0
0.23999999999999999 0.020000000000000004 0
0.23999999999999999 0.040000000000000001 0
0.23999999999999999 0.54999999999999993 0
0.23999999999999999 0.56000000000000005 0
0.23999999999999999 0.58000000000000007 0
0.26000000000000001 0 0
0.26000000000000001 0.020000000000000004 0
0.26000000000000001 0.040000000000000001 0
0.26000000000000001 0.54999999999999993 0
0.26000000000000001 0.56000000000000005 0
0.26000000000000001 0.58000000000000007 0
0.28000000000000003 0 0
0.28000000000000003 0.020000000000000004 0
0.28000000000000003 0.040000000000000001 0
0.28000000000000003 0.54999999999999993 0
0.28000000000000003 0.56000000000000005 0
0.28000000000000003 0.58000000000000007 0
0.29999999999999999 0 0
0.29999999999999999 0.020000000000000004 0
0.29999999999999999 0.040000000000000001 0
0.29999999999999999 0.54999999999999993 0
0.29999999999999999 0.56000000000000005 0
0.29999999999999999 0.58000000000000007 0
0.32000000000000001 0 0
0.32000000000000001 0.020000000000000004 0
0.32000000000000001 0.040000000000000001 0
0.32000000000000001 0.54999999999999993 0
0.32000000000000001 0.56000000000000005 0
0.32000000000000001 0.58000000000000007 0
0.34000000000000002 0 0
0.34000000000000002 0.020000000000000004 0
0.34000000000000002 0.040000000000000001 0
0.34000000000000002 0.54999999999999993 0
0.34000000000000002 0.56000000000000005 0
0.34000000000000002 0.58000000000000007 0
0.35999999999999999 0 0
0.35999999999999999 0.020000000000000004 0
0.35999999999999999 0.040000000000000001 0
0.35999999999999999 0.54999999999999993 0
0.35999999999999999 0.56000000000000005 0
0.35999999999999999 0.58000000000000007 0
0.38 0 0
0.38 0.020000000000000004 0
0.38 0.040000000000000001 0
0.38 0.54999999999999993 0
0.38 0.56000000000000005 0
0.38 0.58000000000000007 0
0.40000000000000002 0 0
0.40000000000000002 0.020000000000000004 0
0.40000000000000002 0.040000000000000001 0
0.40000000000000002 0.54999999999999993 0
0.40000000000000002 0.56000000000000005 0
0.40000000000000002 0.58000000000000007 0
0.41999999999999998 0 0
0.41999999999999998 0.020000000000000004 0
0.41999999999999998 0.040000000000000001 0
0.41999999999999998 0.54999999999999993 0
0.41999999999999998 0.56000000000000005 0
0.41999999999999998 0.58000000000000007 0
0.44 0 0
0.44 0.020000000000000004 0
0.44 0.040000000000000001 0
0.44 0.54999999999999993 0
0.44 0.56000000000000005 0
0.44 0.58000000000000007 0
0.46000000000000002 0 0
0.46000000000000002 0.020000000000000004 0
0.46000000000000002 0.040000000000000001 0
0.46000000000000002 0.54999999999999993 0
0.46000000000000002 0.56000000000000005 0
0.46000000000000002 0.58000000000000007 0
0.47999999999999998 0 0
0.47999999999999998 0.020000000000000004 0
0.47999999999999998 0.040000000000000001 0
0.47999999999999998 0.54999999999999993 0
0.47999999999999998 0.56000000000000005 0
0.47999999999999998 0.58000000000000007 0
0.5 0 0
0.5 0.020000000000000004 0
0.5 0.040000000000000001 0
0.5 0.54999999999999993 0
0.5 0.56000000000000005 0
0.5 0.58000000000000007 0
0.52000000000000002 0 0
0.52000000000000002 0.020000000000000004 0
0.52000000000000002 0.040000000000000001 0
0.52000000000000002 0.54999999999999993 0
0.52000000000000002 0.56000000000000005 0
0.52000000000000002 0.58000000000000007 0
0.54000000000000004 0 0
0.54000000000000004 0.020000000000000004 0
0.54000000000000004 0.040000000000000001 0
0.54000000000000004 0.54999999999999993 0
0.54000000000000004 0.56000000000000005 0
0.54000000000000004 0.58000000000000007 0
0.56000000000000005 0 0
0.56000000000000005 0.020000000000000004 0
0.56000000000000005 0.040000000000000001 0
0.56000000000000005 0.54999999999999993 0
0.56000000000000005 0.56000000000000005 0
0.56000000000000005 0.58000000000000007 0
0.57999999999999996 0 0
0.57999999999999996 0.020000000000000004 0
0.57999999999999996 0.040000000000000001 0
0.57999999999999996 0.54999999999999993 0
0.57999999999999996 0.56000000000000005 0
0.57999999999999996 0.58000000000000007 0
0.59999999999999998 0 0
0.59999999999999998 0.020000000000000004 0
0.59999999999999998 0.040000000000000001 0
0.59999999999999998 0.54999999999999993 0
0.59999999999999998 0.56000000000000005 0
0.59999999999999998 0.58000000000000007 0
0.62 0 0
0.62 0.020000000000000004 0
0.62 0.040000000000000001 0
0.62 0.54999999999999993 0
0.62 0.56000000000000005 0
0.62 0.58000000000000007 0
0.64000000000000001 0 0
0.64000000000000001 0.020000000000000004 0
0.64000000000000001 0.040000000000000001 0
0.64000000000000001 0.54999999999999993 0
0.64000000000000001 0.56000000000000005 0
0.64000000000000001 0.58000000000000007 0
0.66000000000000003 0 0
0.66000000000000003 0.020000000000000004 0
0.66000000000000003 0.040000000000000001 0
0.66000000000000003 0.54999999999999993 0
0.66000000000000003 0.56000000000000005 0
0.66000000000000003 0.58000000000000007 0
0.68000000000000005 0 0
0.68000000000000005 0.020000000000000004 0
0.68000000000000005 0.040000000000000001 0
0.68000000000000005 0.54999999999999993 0
0.68000000000000005 0.56000000000000005 0
0.68000000000000005 0.58000000000000007 0
0.70000000000000007 0 0
0.70000000000000007 0.020000000000000004 0
0.70000000000000007 0.040000000000000001 0
0.70000000000000007 0.54999999999999993 0
0.70000000000000007 0.56000000000000005 0
0.70000000000000007 0.58000000000000007 0
0.71999999999999997 0 0
0.71999999999999997 0.020000000000000004 0
0.71999999999999997 0.040000000000000001 0
0.71999999999999997 0.54999999999999993 0
0.71999999999999997 0.56000000000000005 0
0.71999999999999997 0.58000000000000007 0
0.73999999999999999 0 0
0.73999999999999999 0.020000000000000004 0
0.73999999999999999 0.040000000000000001 0
0.73999999999999999 0.54999999999999993 0
0.73999999999999999 0.56000000000000005 0
0.73999999999999999 0.58000000000000007 0
0.76000000000000001 0 0
0.76000000000000001 0.020000000000000004 0
0.76000000000000001 0.040000000000000001 0
0.76000000000000001 0.54999999999999993 0
0.76000000000000001 0.56000000000000005 0
0.76000000000000001 0.58000000000000007 0
0.78000000000000003 0 0
0.78000000000000003 0.020000000000000004 0
0.78000000000000003 0.040000000000000001 0
0.78000000000000003 0.54999999999999993 0
0.78000000000000003 0.56000000000000005 0
0.78000000000000003 0.58000000000000007 0
0.80000000000000004 0 0
0.80000000000000004 0.020000000000000004 0
0.80000000000000004 0.040000000000000001 0
0.80000000000000004 0.54999999999999993 0
0.80000000000000004 0.56000000000000005 0
0.80000000000000004 0.58000000000000007 0
0.82000000000000006 0 0
0.82000000000000006 0.020000000000000004 0
0.82000000000000006 0.040000000000000001 0
0.82000000000000006 0.54999999999999993 0
0.82000000000000006 0.56000000000000005 0
0.82000000000000006 0.58000000000000007 0
0.83999999999999997 0 0
0.83999999999999997 0.020000000000000004 0
0.83999999999999997 0.040000000000000001 0
0.83999999999999997 0.54999999999999993 0
0.83999999999999997 0.56000000000000005 0
0.83999999999999997 0.58000000000000007 0
0.85999999999999999 0 0
0.85999999999999999 0.020000000000000004 0
0.85999999999999999 0.040000000000000001 0
0.85999999999999999 0.54999999999999993 0
0.85999999999999999 0.56000000000000005 0
0.85999999999999999 0.58000000000000007 0
0.88 0 0
0.88 0.020000000000000004 0
0.88 0.040000000000000001 0
0.88 0.54999999999999993 0
0.88 0.56000000000000005 0
0.88 0.58000000000000007 0
0.90000000000000002 0 0
0.90000000000000002 0.020000000000000004 0
0.90000000000000002 0.040000000000000001 0
0.90000000000000002 0.54999999999999993 0
0.90000000000000002 0.56000000000000005 0
0.90000000000000002 0.58000000000000007 0
0.92000000000000004 0 0
0.92000000000000004 0.020000000000000004 0
0.92000000000000004 0.040000000000000001 0
0.92000000000000004 0.54999999999999993 0
0.92000000000000004 0.56000000000000005 0
0.92000000000000004 0.58000000000000007 0
0.94000000000000006 0 0
0.94000000000000006 0.020000000000000004 0
0.94000000000000006 0.040000000000000001 0
0.94000000000000006 0.54999999999999993 0
0.94000000000000006 0.56000000000000005 0
0.94000000000000006 0.58000000000000007 0
0.95999999999999996 0 0
0.95999999999999996 0.020000000000000004 0
0.95999999999999996 0.040000000000000001 0
0.95999999999999996 0.54999999999999993 0
0.95999999999999996 0.56000000000000005 0
0.95999999999999996 0.58000000000000007 0
0.97999999999999998 0 0
0.97999999999999998 0.020000000000000004 0
0.97999999999999998 0.040000000000000001 0
0.97999999999999998 0.54999999999999993 0
0.97999999999999998 0.56000000000000005 0
0.97999999999999998 0.58000000000000007 0
1 0 0
1 0.020000000000000004 0
1 0.040000000000000001 0
1 0.54999999999999993 0
1 0.56000000000000005 0
1 0.58000000000000007 0
VERTICES 681 1362
1 0
1 1
1 2
1 3
1 4
1 5
1 6
1 7
1 8
1 9
1 10
1 11
1 12
1 13
1 14
1 15
1 16
1 17
1 18
1 19
1 20
1 21
1 22
1 23
1 24
1 25
1 26
1 27
1 28
1 29
1 30
1 31
1 32
1 33
1 34
1 35
1 36
1 37
1 38
1 39
1 40
1 41
1 42
1 43
1 44
1 45
1 46
1 47
1 48
1 49
1 50
1 51
1 52
1 53
1 54
1 55
1 56
1 57
1 58
1 59
1 60
1 61
1 62
1 63
1 64
1 65
1 66
1 67
1 68
1 69
1 70
1 71
1 72
1 73
1 74
1 75
1 76
1 77
1 78
1 79
1 80
1 81
1 82
1 83
1 84
1 85
1 86
1 87
1 88
1 89
1 90
1 91
1 92
1 93
1 94
1 95
1 96
1 97
1 98
1 99
1 100
1 101
1 102
1 103
1 104
1 105
1 106
1 107
1 108
1 109
1 110
1 111
1 112
1 113
1 114
1 115
1 116
1 117
1 118
1 119
1 120
1 121
1 122
1 123
1 124
1 125
1 126
1 127
1 128
1 129
1 130
1 131
1 132
1 133
1 134
1 135
1 136
1 137
1 138
1 139
1 140
1 141
1 142
1 143
1 144
1 145
1 146
1 147
1 148
1 149
1 150
1 151
1 152
1 153
1 154
1 155
1 156
1 157
1 158
1 159
1 160
1 161
1 162
1 163
1 164
1 165
1 166
1 167
1 168
1 169
1 170
1 171
1 172
1 173
1 174
1 175
1 176
1 177
1 178
1 179
1 180
1 181
1 182
1 183
1 184
1 185
1 186
1 187
1 188
1 189
1 190
1 191
1 192
1 193
1 194
1 195
1 196
1 197
1 198
1 199
1 200
1 201
1 202
1 203
1 204
1 205
1 206
1 207
1 208
1 209
1 210
1 211
1 212
1 213
1 214
1 215
1 216
1 217
1 218
1 219
1 220
1 221
1 222
1 223
1 224
1 225
1 226
1 227
1 228
1 229
1 230
1 231
1 232
1 233
1 234
1 235
1 236
1 237
1 238
1 239
1 240
1 241
1 242
1 243
1 244
1 245
1 246
1 247
1 248
1 249
1 250
1 251
1 252
1 253
1 254
1 255
1 256
1 257
1 258
1 259
1 260
1 261
1 262
1 263
1 264
1 265
1 266
1 267
1 268
1 269
1 270
1 271
1 272
1 273
1 274
1 275
1 276
1 277
1 278
1 279
1 280
1 281
1 282
1 283
1 284
1 285
1 286
1 287
1 288
1 289
1 290
1 291
1 292
1 293
1 294
1 295
1 296
1 297
1 298
1 299
1 300
1 301
1 302
1 303
1 304
1 305
1 306
1 307
1 308
1 309
1 310
1 311
1 312
1 313
1 314
1 315
1 316
1 317
1 318
1 319
1 320
1 321
1 322
1 323
1 324
1 325
1 326
1 327
1 328
1 329
1 330
1 331
1 332
1 333
1 334
1 335
1 336
1 337
1 338
1 339
1 340
1 341
1 342
1 343
1 344
1 345
1 346
1 347
1 348
1 349
1 350
1 351
1 352
1 353
1 354
1 355
1 356
1 357
1 358
1 359
1 360
1 361
1 362
1 363
1 364
1 365
1 366
1 367
1 368
1 369
1 370
1 371
1 372
1 373
1 374
1 375
1 376
1 377
1 378
1 379
1 380
1 381
1 382
1 383
1 384
1 385
1 386
1 387
1 388
1 389
1 390
1 391
1 392
1 393
1 394
1 395
1 396
1 397
1 398
1 399
1 400
1 401
1 402
1 403
1 404
1 405
1 406
1 407
1 408
1 409
1 410
1 411
1 412
1 413
1 414
1 415
1 416
1 417
1 418
1 419
1 420
1 421
1 422
1 423
1 424
1 425
1 426
1 427
1 428
1 429
1 430
1 431
1 432
1 433
1 434
1 435
1 436
1 437
1 438
1 439
1 440
1 441
1 442
1 443
1 444
1 445
1 446
1 447
1 448
1 449
1 450
1 451
1 452
1 453
1 454
1 455
1 456
1 457
1 458
1 459
1 460
1 461
1 462
1 463
1 464
1 465
1 466
1 467
1 468
1 469
1 470
1 471
1 472
1 473
1 474
1 475
1 476
1 477
1 478
1 479
1 480
1 481
1 482
1 483
1 484
1 485
1 486
1 487
1 488
1 489
1 490
1 491
1 492
1 493
1 494
1 495
1 496
1 497
1 498
1 499
1 500
1 501
1 502
1 503
1 504
1 505
1 506
1 507
1 508
1 509
1 510
1 511
1 512
1 513
1 514
1 515
1 516
1 517
1 518
1 519
1 520
1 521
1 522
1 523
1 524
1 525
1 526
1 527
1 528
1 529
1 530
1 531
1 532
1 533
1 534
1 535
1 536
1 537
1 538
1 539
1 540
1 541
1 542
1 543
1 544
1 545
1 546
1 547
1 548
1 549
1 550
1 551
1 552
1 553
1 554
1 555
1 556
1 557
1 558
1 559
1 560
1 561
1 562
1 563
1 564
1 565
1 566
1 567
1 568
1 569
1 570
1 571
1 572
1 573
1 574
1 575
1 576
1 577
1 578
1 579
1 580
1 581
1 582
1 583
1 584
1 585
1 586
1 587
1 588
1 589
1 590
1 591
1 592
1 593
1 594
1 595
1 596
1 597
1 598
1 599
1 600
1 601
1 602
1 603
1 604
1 605
1 606
1 607
1 608
1 609
1 610
1 611
1 612
1 613
1 614
1 615
1 616
1 617
1 618
1 619
1 620
1 621
1 622
1 623
1 624
1 625
1 626
1 627
1 628
1 629
1 630
1 631
1 632
1 633
1 634
1 635
1 636
1 637
1 638
1 639
1 640
1 641
1 642
1 643
1 644
1 645
1 646
1 647
1 648
1 649
1 650
1 651
1 652
1 653
1 654
1 655
1 656
1 657
1 658
1 659
1 660
1 661
1 662
1 663
1 664
1 665
1 666
1 667
1 668
1 669
1 670
1 671
1 672
1 673
1 674
1 675
1 676
1 677
1 678
1 679
1 680
POINT_DATA 681
SCALARS is_boundary int 1
LOOKUP_TABLE default
0
0
0
0
0
0
0
0
0
0
0
0
0
0
0
0
0
0
0
0
0
0
0
0
0
0
0
0
0
0
0
0
0
0
0
0
0
0
0
0
0
0
0
0
0
0
0
0
0
0
0
0
0
0
0
0
0
0
0
0
0
0
0
0
0
0
0
0
0
0
0
0
0
0
0
0
0
0
0
0
0
0
0
0
0
0
0
0
0
0
0
0
0
0
0
0
0
0
0
0
0
0
0
0
0
0
0
0
0
0
0
0
0
0
0
0
0
0
0
0
0
0
0
0
0
0
0
0
0
0
0
0
0
0
0
0
0
0
0
0
0
0
0
0
0
0
0
0
0
0
0
0
0
0
0
0
0
0
0
0
0
0
0
0
0
0
0
0
0
0
0
0
0
0
0
0
0
0
0
0
0
0
0
0
0
0
0
0
0
0
0
0
0
0
0
0
0
0
0
0
0
0
0
0
0
0
0
0
0
0
0
0
0
0
0
0
0
0
0
0
0
0
0
0
0
0
0
0
0
0
0
0
0
0
0
0
0
0
0
0
0
0
0
0
0
0
0
0
0
0
0
0
0
0
0
0
0
0
0
0
0
0
0
0
0
0
0
0
0
0
0
0
0
0
0
0
0
0
0
0
0
0
0
0
0
0
0
0
0
0
0
0
0
0
0
0
0
0
0
0
0
0
0
0
0
0
0
0
0
0
0
0
0
0
0
0
0
0
0
0
0
0
0
0
0
0
0
0
0
0
0
0
0
0
0
0
0
0
0
0
0
0
0
0
0
0
0
0
0
0
0
0
0
0
0
0
0
0
0
0
0
0
0
0
0
0
0
0
0
0
0
0
0
0
0
1
1
1
1
1
1
1
1
1
1
1
1
1
1
1
1
1
1
1
1
1
1
1
1
1
1
1
1
1
1
1
1
1
1
1
1
1
1
1
1
1
1
1
1
1
1
1
1
1
1
1
1
1
1
1
1
1
1
1
1
1
1
1
1
1
1
1
1
1
1
1
1
1
1
1
1
1
1
1
1
1
1
1
1
1
1
1
1
1
1
1
1
1
1
1
1
1
1
1
1
1
1
1
1
1
1
1
1
1
1
1
1
1
1
1
1
1
1
1
1
1
1
1
1
1
1
1
1
1
1
1
1
1
1
1
1
1
1
1
1
1
1
1
1
1
1
1
1
1
1
1
1
1
1
1
1
1
1
1
1
1
1
1
1
1
1
1
1
1
1
1
1
1
1
1
1
1
1
1
1
1
1
1
1
1
1
1
1
1
1
1
1
1
1
1
1
1
1
1
1
1
1
1
1
1
1
1
1
1
1
1
1
1
1
1
1
1
1
1
1
1
1
1
1
1
1
1
1
1
1
1
1
1
1
1
1
1
1
1
1
1
1
1
1
1
1
1
1
1
1
1
1
1
1
1
1
1
1
1
1
1
1
1
1
1
1
1
1
1
1
1
1
1
1
1
1
1
1
1
1
1
1
1
1
1
1
1
1
1
1
1
1
1
1
1
1
1
1
1
1
1
1
1
1
1
1
SCALARS rho float 1
LOOKUP_TABLE default
1020
1020
1020
1020
1020
1020
1020
1020
1020
1020
1020
1020
1020
1020
1020
1020
1020
1020
1020
1020
1020
1020
1020
1020
1020
1020
1020
1020
1020
1020
1020
1020
1020
1020
1020
1020
1020
1020
1020
1020
1020
1020
1020
1020
1020
1020
1020
1020
1020
1020
1020
1020
1020
1020
1020
1020
1020
1020
1020
1020
1020
1020
1020
1020
1020
1020
1020
1020
1020
1020
1020
1020
1020
1020
1020
1020
1020
1020
1020
1020
1020
1020
1020
1020
1020
1020
1020
1020
1020
1020
1020
1020
1020
1020
1020
1020
1020
1020
1020
1020
1020
1020
1020
1020
1020
1020
1020
1020
1020
1020
1020
1020
1020
1020
1020
1020
1020
1020
1020
1020
1020
1020
1020
1020
1020
1020
1020
1020
1020
1020
1020
1020
1020
1020
1020
1020
1020
1020
1020
1020
1020
1020
1020
1020
1020
1020
1020
1020
1020
1020
1020
1020
1020
1020
1020
1020
1020
1020
1020
1020
1020
1020
1020
1020
1020
1020
1020
1020
1020
1020
1020
1020
1020
1020
1020
1020
1020
1020
1020
1020
1020
1020
1020
1020
1020
1020
1020
1020
1020
1020
1020
1020
1020
1020
1020
1020
1020
1020
1020
1020
1020
1020
1020
1020
1020
1020
1020
1020
1020
1020
1020
1020
1020
1020
1020
1020
1020
1020
1020
1020
1020
1020
1020
1020
1020
1020
1020
1020
1020
1020
1020
1020
1020
1020
1020
1020
1020
1020
1020
1020
1020
1020
1020
1020
1020
1020
1020
1020
1020
1020
1020
1020
1020
1020
1020
1020
1020
1020
1020
1020
1020
1020
1020
1020
1020
1020
1020
1020
1020
1020
1020
1020
1020
1020
1020
1020
1020
1020
1020
1020
1020
1020
1020
1020
1020
1020
1020
1020
1020
1020
1020
1020
1020
1020
1020
1020
1020
1020
1020
1020
1020
1020
1020
1020
1020
1020
1020
1020
1020
1020
1020
1020
1020
1020
1020
1020
1020
1020
1020
1020
1020
1020
1020
1020
1020
1020
1020
1020
1020
1020
1020
1020
1020
1020
1020
1020
1020
1020
1020
1020
1020
1020
1020
1020
1020
1020
1020
1020
1020
1020
1020
1020
1020
1020
1020
1020
1020
1020
1020
1020
1020
1020
1020
1020
1020
1020
1020
1020
1020
1020
1020
1020
1020
1020
1020
1000
1000
1000
1000
1000
1000
1000
1000
1000
1000
1000
1000
1000
1000
1000
1000
1000
1000
1000
1000
1000
1000
1000
1000
1000
1000
1000
1000
1000
1000
1000
1000
1000
1000
1000
1000
1000
1000
1000
1000
1000
1000
1000
1000
1000
1000
1000
1000
1000
1000
1000
1000
1000
1000
1000
1000
1000
1000
1000
1000
1000
1000
1000
1000
1000
1000
1000
1000
1000
1000
1000
1000
1000
1000
1000
1000
1000
1000
1000
1000
1000
1000
1000
1000
1000
1000
1000
1000
1000
1000
1000
1000
1000
1000
1000
1000
1000
1000
1000
1000
1000
1000
1000
1000
1000
1000
1000
1000
1000
1000
1000
1000
1000
1000
1000
1000
1000
1000
1000
1000
1000
1000
1000
1000
1000
1000
1000
1000
1000
1000
1000
1000
1000
1000
1000
1000
1000
1000
1000
1000
1000
1000
1000
1000
1000
1000
1000
1000
1000
1000
1000
1000
1000
1000
1000
1000
1000
1000
1000
1000
1000
1000
1000
1000
1000
1000
1000
1000
1000
1000
1000
1000
1000
1000
1000
1000
1000
1000
1000
1000
1000
1000
1000
1000
1000
1000
1000
1000
1000
1000
1000
1000
1000
1000
1000
1000
1000
1000
1000
1000
1000
1000
1000
1000
1000
1000
1000
1000
1000
1000
1000
1000
1000
1000
1000
1000
1000
1000
1000
1000
1000
1000
1000
1000
1000
1000
1000
1000
1000
1000
1000
1000
1000
1000
1000
1000
1000
1000
1000
1000
1000
1000
1000
1000
1000
1000
1000
1000
1000
1000
1000
1000
1000
1000
1000
1000
1000
1000
1000
1000
1000
1000
1000
1000
1000
1000
1000
1000
1000
1000
1000
1000
1000
1000
1000
1000
1000
1000
1000
1000
1000
1000
1000
1000
1000
1000
1000
1000
1000
1000
1000
1000
1000
1000
1000
1000
1000
1000
1000
1000
1000
1000
1000
1000
1000
1000
SCALARS p float 1
LOOKUP_TABLE default
25004.681136676067
25004.681136676067
25004.681136676067
25004.681136676067
25004.681136676067
25004.681136676067
25004.681136676067
25004.681136676067
25004.681136676067
25004.681136676067
25004.681136676067
25004.681136676067
25004.681136676067
25004.681136676067
25004.681136676067
25004.681136676067
25004.681136676067
25004.681136676067
25004.681136676067
25004.681136676067
25004.681136676067
25004.681136676067
25004.681136676067
25004.681136676067
25004.681136676067
25004.681136676067
25004.681136676067
25004.681136676067
25004.681136676067
25004.681136676067
25004.681136676067
25004.681136676067
25004.681136676067
25004.681136676067
25004.681136676067
25004.681136676067
25004.681136676067
25004.681136676067
25004.681136676067
25004.681136676067
25004.681136676067
25004.681136676067
25004.681136676067
25004.681136676067
25004.681136676067
25004.681136676067
25004.681136676067
25004.681136676067
25004.681136676067
25004.681136676067
25004.681136676067
25004.681136676067
25004.681136676067
25004.681136676067
25004.681136676067
25004.681136676067
25004.681136676067
25004.681136676067
25004.681136676067
25004.681136676067
25004.681136676067
25004.681136676067
25004.681136676067
25004.681136676067
25004.681136676067
25004.681136676067
25004.681136676067
25004.681136676067
25004.681136676067
25004.681136676067
25004.681136676067
25004.681136676067
25004.681136676067
25004.681136676067
25004.681136676067
25004.681136676067
25004.681136676067
25004.681136676067
25004.681136676067
25004.681136676067
25004.681136676067
25004.681136676067
25004.681136676067
25004.681136676067
25004.681136676067
25004.681136676067
25004.681136676067
25004.681136676067
25004.681136676067
25004.681136676067
25004.681136676067
25004.681136676067
25004.681136676067
25004.681136676067
25004.681136676067
25004.681136676067
25004.681136676067
25004.681136676067
25004.681136676067
25004.681136676067
25004.681136676067
25004.681136676067
25004.681136676067
25004.681136676067
25004.681136676067
25004.681136676067
25004.681136676067
25004.681136676067
25004.681136676067
25004.681136676067
25004.681136676067
25004.681136676067
25004.681136676067
25004.681136676067
25004.681136676067
25004.681136676067
25004.681136676067
25004.681136676067
25004.681136676067
25004.681136676067
25004.681136676067
25004.681136676067
25004.681136676067
25004.681136676067
25004.681136676067
25004.681136676067
25004.681136676067
25004.681136676067
25004.681136676067
25004.681136676067
25004.681136676067
25004.681136676067
25004.681136676067
25004.681136676067
25004.681136676067
25004.681136676067
25004.681136676067
25004.681136676067
25004.681136676067
25004.681136676067
25004.681136676067
25004.681136676067
25004.681136676067
25004.681136676067
25004.681136676067
25004.681136676067
25004.681136676067
25004.681136676067
25004.681136676067
25004.681136676067
25004.681136676067
25004.681136676067
25004.681136676067
25004.681136676067
25004.681136676067
25004.681136676067
25004.681136676067
25004.681136676067
25004.681136676067
25004.681136676067
25004.681136676067
25004.681136676067
25004.681136676067
25004.681136676067
25004.681136676067
25004.681136676067
25004.681136676067
25004.681136676067
25004.681136676067
25004.681136676067
25004.681136676067
25004.681136676067
25004.681136676067
25004.681136676067
25004.681136676067
25004.681136676067
25004.681136676067
25004.681136676067
25004.681136676067
25004.681136676067
25004.681136676067
25004.681136676067
25004.681136676067
25004.681136676067
25004.681136676067
25004.681136676067
25004.681136676067
25004.681136676067
25004.681136676067
25004.681136676067
25004.681136676067
25004.681136676067
25004.681136676067
25004.681136676067
25004.681136676067
25004.681136676067
25004.681136676067
25004.681136676067
25004.681136676067
25004.681136676067
25004.681136676067
25004.681136676067
25004.681136676067
25004.681136676067
25004.681136676067
25004.681136676067
25004.681136676067
25004.681136676067
25004.681136676067
25004.681136676067
25004.681136676067
25004.681136676067
25004.681136676067
25004.681136676067
25004.681136676067
25004.681136676067
25004.681136676067
25004.681136676067
25004.681136676067
25004.681136676067
25004.681136676067
25004.681136676067
25004.681136676067
25004.681136676067
25004.681136676067
25004.681136676067
25004.681136676067
25004.681136676067
25004.681136676067
25004.681136676067
25004.681136676067
25004.681136676067
25004.681136676067
25004.681136676067
25004.681136676067
25004.681136676067
25004.681136676067
25004.681136676067
25004.681136676067
25004.681136676067
25004.681136676067
25004.681136676067
25004.681136676067
25004.681136676067
25004.681136676067
25004.681136676067
25004.681136676067
25004.681136676067
25004.681136676067
25004.681136676067
25004.681136676067
25004.681136676067
25004.681136676067
25004.681136676067
25004.681136676067
25004.681136676067
25004.681136676067
25004.681136676067
25004.681136676067
25004.681136676067
25004.681136676067
25004.681136676067
25004.681136676067
25004.681136676067
25004.681136676067
25004.681136676067
25004.681136676067
25004.681136676067
25004.681136676067
25004.681136676067
25004.681136676067
25004.681136676067
25004.681136676067
25004.681136676067
25004.681136676067
25004.681136676067
25004.681136676067
25004.681136676067
25004.681136676067
25004.681136676067
25004.681136676067
25004.681136676067
25004.681136676067
25004.681136676067
25004.681136676067
25004.681136676067
25004.681136676067
25004.681136676067
25004.681136676067
25004.681136676067
25004.681136676067
25004.681136676067
25004.681136676067
25004.681136676067
25004.681136676067
25004.681136676067
25004.681136676067
25004.681136676067
25004.681136676067
25004.681136676067
25004.681136676067
25004.681136676067
25004.681136676067
25004.681136676067
25004.681136676067
25004.681136676067
25004.681136676067
25004.681136676067
25004.681136676067
25004.681136676067
25004.681136676067
25004.681136676067
25004.681136676067
25004.681136676067
25004.681136676067
25004.681136676067
25004.681136676067
25004.681136676067
25004.681136676067
25004.681136676067
25004.681136676067
25004.681136676067
25004.681136676067
25004.681136676067
25004.681136676067
25004.681136676067
25004.681136676067
25004.681136676067
25004.681136676067
25004.681136676067
25004.681136676067
25004.681136676067
25004.681136676067
25004.681136676067
25004.681136676067
25004.681136676067
25004.681136676067
25004.681136676067
25004.681136676067
25004.681136676067
25004.681136676067
25004.681136676067
25004.681136676067
25004.681136676067
25004.681136676067
25004.681136676067
25004.681136676067
25004.681136676067
25004.681136676067
25004.681136676067
25004.681136676067
25004.681136676067
25004.681136676067
25004.681136676067
25004.681136676067
25004.681136676067
25004.681136676067
25004.681136676067
25004.681136676067
25004.681136676067
25004.681136676067
25004.681136676067
25004.681136676067
25004.681136676067
25004.681136676067
25004.681136676067
25004.681136676067
25004.681136676067
25004.681136676067
25004.681136676067
25004.681136676067
25004.681136676067
25004.681136676067
25004.681136676067
25004.681136676067
0
0
0
0
0
0
23165.302782070983
24979.486709589743
24991.293035778297
0
0
0
24994.313491765181
25003.854348396821
25004.208008654903
0
0
0
24999.867130961411
25004.261753822997
25004.436382812277
0
0
0
25000.234472997414
25004.26968810886
25004.436339108575
0
0
0
25000.251601348598
25004.26927566795
25004.435504864705
0
0
0
25000.243588667046
25004.268870082611
25004.435369844163
0
0
0
25000.238855363237
25004.268671704725
25004.435340905988
0
0
0
25000.236961203576
25004.268590376716
25004.435332605706
0
0
0
25000.236444448798
25004.268565906194
25004.435330963126
0
0
0
25000.236491531537
25004.268567981788
25004.4353329283
0
0
0
25000.237233583397
25004.268600289852
25004.435335224993
0
0
0
25000.239316866438
25004.26868812224
25004.435346231414
0
0
0
25000.244081680623
25004.268886248447
25004.435376770052
0
0
0
25000.251971935821
25004.26928557433
25004.435506449292
0
0
0
25000.23457060313
25004.26968714302
25004.436336583803
0
0
0
24999.867124875444
25004.261753496259
25004.436385694149
0
0
0
24994.312982086441
25003.854309084898
25004.207990189203
0
0
0
23164.861913980429
24979.483383264251
24991.290481960812
0
0
0
0
0
0
0
0
0
0
0
0
0
0
0
0
0
0
0
0
0
0
0
0
0
0
0
0
0
0
0
0
0
0
0
0
0
0
0
0
0
0
0
0
0
0
0
0
0
0
0
0
0
0
0
0
0
0
0
0
0
0
0
0
0
0
0
0
0
0
0
0
0
0
0
0
0
0
0
0
0
0
0
0
0
0
0
0
0
0
0
0
0
0
0
0
0
0
0
0
0
0
0
0
0
0
0
0
0
0
0
0
0
0
0
0
0
0
0
0
0
0
0
0
0
0
0
0
0
0
0
0
0
0
0
0
0
0
0
0
0
0
0
0
0
0
0
0
0
0
0
0
0
0
0
0
0
0
0
0
0
0
0
0
0
0
0
0
0
0
0
0
0
0
0
0
0
0
0
0
0
0
0
0
0
0
0
0
0
0
0
0
0
0
0
SCALARS m float 1
LOOKUP_TABLE default
0.39965556373580352
0.39965556373580352
0.39965556373580352
0.39965556373580352
0.39965556373580352
0.39965556373580352
0.39965556373580352
0.39965556373580352
0.39965556373580352
0.39965556373580352
0.39965556373580352
0.39965556373580352
0.39965556373580352
0.39965556373580352
0.39965556373580352
0.39965556373580352
0.39965556373580352
0.39965556373580352
0.39965556373580352
0.39965556373580352
0.39965556373580352
0.39965556373580352
0.39965556373580352
0.39965556373580352
0.39965556373580352
0.39965556373580352
0.39965556373580352
0.39965556373580352
0.39965556373580352
0.39965556373580352
0.39965556373580352
0.39965556373580352
0.39965556373580352
0.39965556373580352
0.39965556373580352
0.39965556373580352
0.39965556373580352
0.39965556373580352
0.39965556373580352
0.39965556373580352
0.39965556373580352
0.39965556373580352
0.39965556373580352
0.39965556373580352
0.39965556373580352
0.39965556373580352
0.39965556373580352
0.39965556373580352
0.39965556373580352
0.39965556373580352
0.39965556373580352
0.39965556373580352
0.39965556373580352
0.39965556373580352
0.39965556373580352
0.39965556373580352
0.39965556373580352
0.39965556373580352
0.39965556373580352
0.39965556373580352
0.39965556373580352
0.39965556373580352
0.39965556373580352
0.39965556373580352
0.39965556373580352
0.39965556373580352
0.39965556373580352
0.39965556373580352
0.39965556373580352
0.39965556373580352
0.39965556373580352
0.39965556373580352
0.39965556373580352
0.39965556373580352
0.39965556373580352
0.39965556373580352
0.39965556373580352
0.39965556373580352
0.39965556373580352
0.39965556373580352
0.39965556373580352
0.39965556373580352
0.39965556373580352
0.39965556373580352
0.39965556373580352
0.39965556373580352
0.39965556373580352
0.39965556373580352
0.39965556373580352
0.39965556373580352
0.39965556373580352
0.39965556373580352
0.39965556373580352
0.39965556373580352
0.39965556373580352
0.39965556373580352
0.39965556373580352
0.39965556373580352
0.39965556373580352
0.39965556373580352
0.39965556373580352
0.39965556373580352
0.39965556373580352
0.39965556373580352
0.39965556373580352
0.39965556373580352
0.39965556373580352
0.39965556373580352
0.39965556373580352
0.39965556373580352
0.39965556373580352
0.39965556373580352
0.39965556373580352
0.39965556373580352
0.39965556373580352
0.39965556373580352
0.39965556373580352
0.39965556373580352
0.39965556373580352
0.39965556373580352
0.39965556373580352
0.39965556373580352
0.39965556373580352
0.39965556373580352
0.39965556373580352
0.39965556373580352
0.39965556373580352
0.39965556373580352
0.39965556373580352
0.39965556373580352
0.39965556373580352
0.39965556373580352
0.39965556373580352
0.39965556373580352
0.39965556373580352
0.39965556373580352
0.39965556373580352
0.39965556373580352
0.39965556373580352
0.39965556373580352
0.39965556373580352
0.39965556373580352
0.39965556373580352
0.39965556373580352
0.39965556373580352
0.39965556373580352
0.39965556373580352
0.39965556373580352
0.39965556373580352
0.39965556373580352
0.39965556373580352
0.39965556373580352
0.39965556373580352
0.39965556373580352
0.39965556373580352
0.39965556373580352
0.39965556373580352
0.39965556373580352
0.39965556373580352
0.39965556373580352
0.39965556373580352
0.39965556373580352
0.39965556373580352
0.39965556373580352
0.39965556373580352
0.39965556373580352
0.39965556373580352
0.39965556373580352
0.39965556373580352
0.39965556373580352
0.39965556373580352
0.39965556373580352
0.39965556373580352
0.39965556373580352
0.39965556373580352
0.39965556373580352
0.39965556373580352
0.39965556373580352
0.39965556373580352
0.39965556373580352
0.39965556373580352
0.39965556373580352
0.39965556373580352
0.39965556373580352
0.39965556373580352
0.39965556373580352
0.39965556373580352
0.39965556373580352
0.39965556373580352
0.39965556373580352
0.39965556373580352
0.39965556373580352
0.39965556373580352
0.39965556373580352
0.39965556373580352
0.39965556373580352
0.39965556373580352
0.39965556373580352
0.39965556373580352
0.39965556373580352
0.39965556373580352
0.39965556373580352
0.39965556373580352
0.39965556373580352
0.39965556373580352
0.39965556373580352
0.39965556373580352
0.39965556373580352
0.39965556373580352
0.39965556373580352
0.39965556373580352
0.39965556373580352
0.39965556373580352
0.39965556373580352
0.39965556373580352
0.39965556373580352
0.39965556373580352
0.39965556373580352
0.39965556373580352
0.39965556373580352
0.39965556373580352
0.39965556373580352
0.39965556373580352
0.39965556373580352
0.39965556373580352
0.39965556373580352
0.39965556373580352
0.39965556373580352
0.39965556373580352
0.39965556373580352
0.39965556373580352
0.39965556373580352
0.39965556373580352
0.39965556373580352
0.39965556373580352
0.39965556373580352
0.39965556373580352
0.39965556373580352
0.39965556373580352
0.39965556373580352
0.39965556373580352
0.39965556373580352
0.39965556373580352
0.39965556373580352
0.39965556373580352
0.39965556373580352
0.39965556373580352
0.39965556373580352
0.39965556373580352
0.39965556373580352
0.39965556373580352
0.39965556373580352
0.39965556373580352
0.39965556373580352
0.39965556373580352
0.39965556373580352
0.39965556373580352
0.39965556373580352
0.39965556373580352
0.39965556373580352
0.39965556373580352
0.39965556373580352
0.39965556373580352
0.39965556373580352
0.39965556373580352
0.39965556373580352
0.39965556373580352
0.39965556373580352
0.39965556373580352
0.39965556373580352
0.39965556373580352
0.39965556373580352
0.39965556373580352
0.39965556373580352
0.39965556373580352
0.39965556373580352
0.39965556373580352
0.39965556373580352
0.39965556373580352
0.39965556373580352
0.39965556373580352
0.39965556373580352
0.39965556373580352
0.39965556373580352
0.39965556373580352
0.39965556373580352
0.39965556373580352
0.39965556373580352
0.39965556373580352
0.39965556373580352
0.39965556373580352
0.39965556373580352
0.39965556373580352
0.39965556373580352
0.39965556373580352
0.39965556373580352
0.39965556373580352
0.39965556373580352
0.39965556373580352
0.39965556373580352
0.39965556373580352
0.39965556373580352
0.39965556373580352
0.39965556373580352
0.39965556373580352
0.39965556373580352
0.39965556373580352
0.39965556373580352
0.39965556373580352
0.39965556373580352
0.39965556373580352
0.39965556373580352
0.39965556373580352
0.39965556373580352
0.39965556373580352
0.39965556373580352
0.39965556373580352
0.39965556373580352
0.39965556373580352
0.39965556373580352
0.39965556373580352
0.39965556373580352
0.39965556373580352
0.39965556373580352
0.39965556373580352
0.39965556373580352
0.39965556373580352
0.39965556373580352
0.39965556373580352
0.39965556373580352
0.39965556373580352
0.39965556373580352
0.39965556373580352
0.39965556373580352
0.39965556373580352
0.39965556373580352
0.39965556373580352
0.39965556373580352
0.39965556373580352
0.39965556373580352
0.39965556373580352
0.39965556373580352
0.39965556373580352
0.39965556373580352
0.39965556373580352
0.39965556373580352
0.39965556373580352
0.39965556373580352
0.39965556373580352
0.39965556373580352
0.39965556373580352
0.39965556373580352
0.39965556373580352
0.39965556373580352
0.39965556373580352
0.39965556373580352
0.39965556373580352
0.39965556373580352
0.39965556373580352
0.39965556373580352
0.39965556373580352
0.39965556373580352
0.39965556373580352
0.39965556373580352
0.39965556373580352
0.39965556373580352
0.39965556373580352
0.39965556373580352
0.39965556373580352
0.39965556373580352
0.39965556373580352
0.39965556373580352
0.39965556373580352
0.39965556373580352
0.39965556373580352
0.39965556373580352
0.39965556373580352
0.39965556373580352
0.39965556373580352
0.39965556373580352
0.39965556373580352
0.39965556373580352
0.39965556373580352
0.39965556373580352
0.39965556373580352
0.39965556373580352
0.39965556373580352
0.39965556373580352
0.39965556373580352
0.39965556373580352
0.39965556373580352
0.39965556373580352
0.39965556373580352
0.39965556373580352
0.39965556373580352
0.39965556373580352
0.39965556373580352
0.39965556373580352
0.39965556373580352
0.39965556373580352
0.39965556373580352
0.39965556373580352
0.39965556373580352
0.39965556373580352
0.39965556373580352
0.39965556373580352
0.39965556373580352
0.39965556373580352
0.39965556373580352
0.39965556373580352
0.39965556373580352
0.39965556373580352
0.39965556373580352
0.39965556373580352
0.39965556373580352
0.39965556373580352
0.39965556373580352
0.39965556373580352
0.39965556373580352
0.39965556373580352
0.39965556373580352
0.39965556373580352
0.39965556373580352
0.39965556373580352
0.39965556373580352
0.39965556373580352
0.39965556373580352
0.39965556373580352
0.39965556373580352
0.39965556373580352
0.39965556373580352
0.39965556373580352
0.39965556373580352
0.39965556373580352
0.39965556373580352
0.39965556373580352
0.39965556373580352
0.39965556373580352
0.39965556373580352
0.39965556373580352
0.39965556373580352
0.39965556373580352
0.39965556373580352
0.39965556373580352
0.39965556373580352
0.39965556373580352
0.39965556373580352
0.39965556373580352
0.39965556373580352
0.39965556373580352
0.39965556373580352
0.39965556373580352
0.39965556373580352
0.39965556373580352
0.39965556373580352
0.39965556373580352
0.39965556373580352
0.39965556373580352
0.39965556373580352
0.39965556373580352
0.39965556373580352
0.39965556373580352
0.39965556373580352
0.39965556373580352
0.39965556373580352
0.39965556373580352
0.39965556373580352
0.39965556373580352
0.39965556373580352
0.39965556373580352
0.39965556373580352
0.39965556373580352
0.39965556373580352
0.39965556373580352
0.39965556373580352
0.39965556373580352
0.39965556373580352
0.39965556373580352
0.39965556373580352
0.39965556373580352
0.39965556373580352
0.39965556373580352
0.39965556373580352
0.39965556373580352
0.39965556373580352
0.39965556373580352
0.39965556373580352
0.39965556373580352
0.39965556373580352
0.39965556373580352
0.39965556373580352
0.39965556373580352
0.39965556373580352
0.39965556373580352
0.39965556373580352
0.39965556373580352
0.39965556373580352
0.39965556373580352
0.39965556373580352
0.39965556373580352
0.39965556373580352
0.39965556373580352
0.39965556373580352
0.39965556373580352
0.39965556373580352
0.39965556373580352
0.39965556373580352
0.39965556373580352
0.39965556373580352
0.39965556373580352
0.39965556373580352
0.39965556373580352
0.39965556373580352
0.39965556373580352
0.39965556373580352
0.39965556373580352
0.39965556373580352
0.39965556373580352
0.39965556373580352
0.39965556373580352
0.39965556373580352
0.39965556373580352
0.39965556373580352
0.39965556373580352
0.39965556373580352
0.39965556373580352
0.39965556373580352
0.39965556373580352
0.39965556373580352
0.39965556373580352
0.39965556373580352
0.39965556373580352
0.39965556373580352
0.39965556373580352
0.39965556373580352
0.39965556373580352
0.39965556373580352
0.39965556373580352
0.39965556373580352
0.39965556373580352
0.39965556373580352
0.39965556373580352
0.39965556373580352
0.39965556373580352
0.39965556373580352
0.39965556373580352
0.39965556373580352
0.39965556373580352
0.39965556373580352
0.39965556373580352
0.39965556373580352
0.39965556373580352
0.39965556373580352
0.39965556373580352
0.39965556373580352
0.39965556373580352
0.39965556373580352
0.39965556373580352
0.39965556373580352
0.39965556373580352
0.39965556373580352
0.39965556373580352
0.39965556373580352
0.39965556373580352
0.39965556373580352
0.39965556373580352
0.39965556373580352
0.39965556373580352
0.39965556373580352
0.39965556373580352
0.39965556373580352
0.39965556373580352
0.39965556373580352
0.39965556373580352
0.39965556373580352
0.39965556373580352
0.39965556373580352
0.39965556373580352
0.39965556373580352
0.39965556373580352
0.39965556373580352
0.39965556373580352
0.39965556373580352
0.39965556373580352
0.39965556373580352
0.39965556373580352
0.39965556373580352
0.39965556373580352
0.39965556373580352
0.39965556373580352
0.39965556373580352
0.39965556373580352
0.39965556373580352
0.39965556373580352
0.39965556373580352
0.39965556373580352
0.39965556373580352
0.39965556373580352
0.39965556373580352
0.39965556373580352
0.39965556373580352
0.39965556373580352
0.39965556373580352
0.39965556373580352
0.39965556373580352
0.39965556373580352
0.39965556373580352
0.39965556373580352
0.39965556373580352
0.39965556373580352
0.39965556373580352
0.39965556373580352
0.39965556373580352
0.39965556373580352
0.39965556373580352
0.39965556373580352
0.39965556373580352
0.39965556373580352
0.39965556373580352
0.39965556373580352
0.39965556373580352
0.39965556373580352
0.39965556373580352
0.39965556373580352
0.39965556373580352
0.39965556373580352
0.39965556373580352
0.39965556373580352
0.39965556373580352
0.39965556373580352
0.39965556373580352
0.39965556373580352
0.39965556373580352
0.39965556373580352
0.39965556373580352
0.39965556373580352
0.39965556373580352
0.39965556373580352
0.39965556373580352
0.39965556373580352
0.39965556373580352
0.39965556373580352
0.39965556373580352
0.39965556373580352
0.39965556373580352
0.39965556373580352
0.39965556373580352
0.39965556373580352
0.39965556373580352
0.39965556373580352
0.39965556373580352
0.39965556373580352
0.39965556373580352
0.39965556373580352
0.39965556373580352
0.39965556373580352
0.39965556373580352
0.39965556373580352
0.39965556373580352
0.39965556373580352
0.39965556373580352
0.39965556373580352
0.39965556373580352
0.39965556373580352
0.39965556373580352
0.39965556373580352
0.39965556373580352
0.39965556373580352
0.39965556373580352
0.39965556373580352
0.39965556373580352
0.39965556373580352
0.39965556373580352
0.39965556373580352
0.39965556373580352
0.39965556373580352
0.39965556373580352
0.39965556373580352
0.39965556373580352
0.39965556373580352
0.39965556373580352
VECTORS v float
-2.1135992355617246e-05 -0.037950167233688305 0
-2.2283797429711249e-05 -0.038533893376578934 0
-2.3108466199688977e-05 -0.038987291913861827 0
-2.3861330054903815e-05 -0.039440264440041325 0
-2.4552613622644194e-05 -0.039907285267227664 0
-2.5203514566327633e-05 -0.040400401051787355 0
-2.5817890758723906e-05 -0.040927975188805539 0
-2.6410346433121769e-05 -0.041497092397153802 0
-2.6965475710041238e-05 -0.042114581666073826 0
-2.7482803991290094e-05 -0.042787310622176541 0
-2.7942805698538544e-05 -0.043522701508345314 0
-2.8346229973933793e-05 -0.044328282840126423 0
-2.8692633896182655e-05 -0.045216635946329534 0
-2.8993942259074787e-05 -0.04620661339662438 0
-2.9275772028063779e-05 -0.047318205197769143 0
-2.9552954003414902e-05 -0.048573842661444648 0
-2.9844089955134532e-05 -0.05000243121014001 0
-3.0160019148199911e-05 -0.051641168285697724 0
-3.0507512520157974e-05 -0.053538562009231905 0
-3.0900806592636749e-05 -0.055747298309026853 0
-3.1368752272312743e-05 -0.058369114689843127 0
-3.1919381751118161e-05 -0.061550238925522312 0
-3.2556716033087692e-05 -0.065527349575455529 0
-3.3326301550555094e-05 -0.070825287804854906 0
-3.447018385028441e-05 -0.079219787514653653 0
-1.2480179641474489e-05 -0.038181632431333469 0
-1.3341228877430185e-05 -0.03881471516859427 0
-1.3964894642935882e-05 -0.039307085777959536 0
-1.4487030705167386e-05 -0.039782650459414079 0
-1.4909854262049941e-05 -0.040263619907297689 0
-1.5248706536782715e-05 -0.04076680743434917 0
-1.5578094640240796e-05 -0.04130318632963146 0
-1.5851292047305411e-05 -0.041881469172236119 0
-1.615989707613561e-05 -0.042509602279123121 0
-1.640327508496469e-05 -0.043195004290965504 0
-1.6707956599352263e-05 -0.043945437747159748 0
-1.6871125587012579e-05 -0.044768907856957571 0
-1.7099530711304469e-05 -0.045678083751439606 0
-1.7459215582362895e-05 -0.046692642659956658 0
-1.7741350206963721e-05 -0.047831966174550461 0
-1.8065604312398314e-05 -0.049118900834962384 0
-1.8311226198518081e-05 -0.050581914492764141 0
-1.8659542971329121e-05 -0.05225792916263123 0
-1.8927384031976907e-05 -0.054191936891399312 0
-1.9188203761411183e-05 -0.056441758381585008 0
-1.9511549576254791e-05 -0.059099693225086521 0
-1.9794937078398104e-05 -0.062302422510336845 0
-2.009545394259192e-05 -0.066281717681095725 0
-2.0387928793506047e-05 -0.071609698545656977 0
-2.0724245814500326e-05 -0.080253886739022826 0
-4.7664925957617363e-06 -0.038263218446234586 0
-5.1099353181034257e-06 -0.038901194579488672 0
-5.3486216166846783e-06 -0.039398149564572944 0
-5.5594254238257183e-06 -0.039878576330271864 0
-5.7484892439532942e-06 -0.04036477356397291 0
-5.8920297277316319e-06 -0.040874168342258967 0
-6.0368015464524213e-06 -0.041417693192890473 0
-6.1583772789539634e-06 -0.04200477713946929 0
-6.2843245730039305e-06 -0.042643139348931929 0
-6.3945322142770803e-06 -0.043340651486743445 0
-6.5256201607732895e-06 -0.044105490168142109 0
-6.6603990121773594e-06 -0.044946098334541197 0
-6.8156481859594488e-06 -0.045876008301557428 0
-7.0087976823081264e-06 -0.04691535090696991 0
-7.2065226450465811e-06 -0.048084260295604704 0
-7.36376894093763e-06 -0.049406169073730778 0
-7.5083711099515645e-06 -0.050910299953560785 0
-7.7017493493255169e-06 -0.052633251354430831 0
-7.9118306857277364e-06 -0.054621264497937479 0
-8.1344737671215543e-06 -0.056935546811279117 0
-8.4335333345517291e-06 -0.05966614671796365 0
-8.6468125558780224e-06 -0.062948963837411956 0
-8.9389155548964467e-06 -0.067013640237893982 0
-9.2760127437492531e-06 -0.072434867465427724 0
-9.6557734653388332e-06 -0.081191197158891323 0
-1.7723056697175048e-06 -0.038307610312605135 0
-1.8989962679667181e-06 -0.038950071235573265 0
-1.9981942133766945e-06 -0.039450740381312369 0
-2.1216420531334265e-06 -0.039934955780956932 0
-2.1758877363323708e-06 -0.04042520935817609 0
-2.2942539660393141e-06 -0.040938867551087922 0
-2.366073776502503e-06 -0.041487048639725778 0
-2.3878184580359579e-06 -0.042079350921733594 0
-2.3948299906503668e-06 -0.04272353296942235 0
-2.3954217225155214e-06 -0.043427394280063925 0
-2.4008549658816327e-06 -0.044199377315277552 0
-2.4160385084992732e-06 -0.045048148680755282 0
-2.6358173007417314e-06 -0.045987261823972621 0
-2.6807404878239623e-06 -0.047037122752078865 0
-2.725103710520689e-06 -0.048218222938718733 0
-2.8353060166739943e-06 -0.049554375257158591 0
-2.9473344836447547e-06 -0.051074433738812458 0
-3.043449605693422e-06 -0.052815251876510087 0
-3.1688598191302913e-06 -0.054823514597415461 0
-3.3266301175434431e-06 -0.057160714563734005 0
-3.4381925650694393e-06 -0.059916781771242482 0
-3.6049177967053321e-06 -0.063227578319305366 0
-3.7711170409663627e-06 -0.067322282411455131 0
-3.9317122766678449e-06 -0.072776821380776943 0
-4.1362275043214136e-06 -0.08157418735810068 0
-9.9652034639103087e-07 -0.038332536838703739 0
-1.0952269132517774e-06 -0.038977635315549208 0
-1.1242700517998963e-06 -0.039480308257850878 0
-1.1705568433554962e-06 -0.039966477765835298 0
-1.160767045167409e-06 -0.040458757593988752 0
-1.1990891362761781e-06 -0.040974579734668989 0
-1.1129253743297657e-06 -0.041525179075265768 0
-1.2728992270621356e-06 -0.042119556405622087 0
-1.2353657308036221e-06 -0.042766268896788556 0
-1.3063643044465753e-06 -0.043472902029385661 0
-1.3995553447805634e-06 -0.044247830948061874 0
-1.3428940347269114e-06 -0.045099576636280857 0
-1.4625394955553694e-06 -0.046042219184011635 0
-1.3830146574703966e-06 -0.047096030593188301 0
-1.4591501156696587e-06 -0.048281222452228843 0
-1.5421870428458725e-06 -0.049622474073094607 0
-1.5983167224782713e-06 -0.051149188795104238 0
-1.6428935714048833e-06 -0.052896793096593543 0
-1.7148928621802885e-06 -0.054912259247987885 0
-1.7731817557898388e-06 -0.057256436259796525 0
-1.8239793927259473e-06 -0.060021111745081603 0
-1.930201841842237e-06 -0.063341120671039683 0
-2.0233620373309728e-06 -0.067445715874862228 0
-2.1147057002259416e-06 -0.072911406310799565 0
-2.2415608894323872e-06 -0.081722894878046778 0
-4.5666632024842742e-07 -0.038345195841022632 0
-5.158638691819913e-07 -0.038991540817503653 0
-5.4488953891982095e-07 -0.03949512505669002 0
-5.2806074268391671e-07 -0.039982225391832084 0
-5.5011850513332291e-07 -0.040475427222414234 0
-5.6402911676820412e-07 -0.040992161427558522 0
-5.6626358223868024e-07 -0.041543615488321028 0
-6.3700698674048291e-07 -0.042139165545656054 0
-6.2015370235254908e-07 -0.0427868474613479 0
-6.8942736843985593e-07 -0.043494529902785538 0
-7.4088990817471367e-07 -0.044270622739615677 0
-6.2977967535347548e-07 -0.045123758864362346 0
-6.7850480256330391e-07 -0.04606786326448014 0
-7.4225474899011051e-07 -0.047123582068033597 0
-7.0726422552551578e-07 -0.048310794782299986 0
-7.2244479642469134e-07 -0.049653972718236537 0
-7.1005929991854904e-07 -0.051181859455081136 0
-7.3552040361314893e-07 -0.052931072707095683 0
-7.8896114669231144e-07 -0.054948844659770776 0
-8.1791642106569778e-07 -0.057296453383874728 0
-8.6170063107694406e-07 -0.060064183917473472 0
-9.1664949817931341e-07 -0.063387551768311068 0
-9.5941198568835047e-07 -0.067495603702696402 0
-1.0671368407975678e-06 -0.072964918313130428 0
-1.08144862693947e-06 -0.081780514519759803 0
-2.4310569840258245e-07 -0.038350277033125213 0
-2.5866067512327593e-07 -0.038997269833452086 0
-2.8059667235062527e-07 -0.039501348673592382 0
-3.1527408658665956e-07 -0.039988733704180358 0
-3.4642797342260731e-07 -0.040482270096690781 0
-3.4642779050482077e-07 -0.040999401682154685 0
-3.8171535706092718e-07 -0.041551269393094385 0
-3.9184746252813268e-07 -0.042147229934589116 0
-4.166292273060943e-07 -0.042795236802568706 0
-4.1559271688871373e-07 -0.043503267143512353 0
-3.8875362962077543e-07 -0.044279986792949783 0
-4.672326773995104e-07 -0.045133396962234909 0
-5.013891586214067e-07 -0.046077799293933186 0
-5.2354700455852896e-07 -0.047134322600357714 0
-5.1301280829556874e-07 -0.048322265955854996 0
-5.2118971764896864e-07 -0.049666360135010329 0
-4.9648846356104117e-07 -0.051195031739824204 0
-5.257634347923318e-07 -0.052944402600230964 0
-5.4002697050031411e-07 -0.054962996581182665 0
-5.0932822435014302e-07 -0.057311734204482573 0
-5.2909045655401497e-07 -0.060080510694389376 0
-5.6063845411802496e-07 -0.063405046137639906 0
-5.6161489817120981e-07 -0.067515065602331906 0
-4.7764167926520049e-07 -0.072988511218464142 0
-4.3203277411840217e-07 -0.081803624336411473 0
-5.4749045948961478e-08 -0.038351749191186182 0
-6.4154975031889993e-08 -0.038998735959954012 0
-7.1814723206718139e-08 -0.039502828479947349 0
-8.9261849903721121e-08 -0.039990457286592576 0
-1.1508759007295294e-07 -0.040484221308893384 0
-7.0970664371734365e-08 -0.041001405864679097 0
-8.9817189599122974e-08 -0.04155332878134705 0
-1.0770150248157105e-07 -0.042149446282392769 0
-1.8207642863103432e-07 -0.042797539203085003 0
-1.9510015664636542e-07 -0.043505625141842204 0
-1.2905557110436999e-07 -0.044282482858994866 0
-1.0361497877065951e-07 -0.045136195048977139 0
-1.0718399957314434e-07 -0.046080848607460791 0
2.3132329122075487e-08 -0.047137338248938662 0
-2.3115123710000006e-07 -0.048325257270742349 0
-2.4034364438302446e-07 -0.049668776582072617 0
-1.5026594452724808e-07 -0.051197526344394312 0
-1.6472470309904642e-07 -0.052947407606214816 0
-1.7252370067728126e-07 -0.054965982474985221 0
-1.7076163070469924e-07 -0.057314660118501497 0
-1.7283322967971017e-07 -0.06008311379852467 0
-1.7920244706377848e-07 -0.06340647694800236 0
-1.4587155338263587e-07 -0.067513957025549645 0
-1.1999323271021315e-07 -0.072988632509424667 0
-7.7277903871616931e-08 -0.081806193595449578 0
4.8255123698400066e-08 -0.038350056571583295 0
5.3695731057972388e-08 -0.038996895305168928 0
3.8154975297914949e-08 -0.039500843210700132 0
3.8022792301553532e-08 -0.039988235885173827 0
2.1386812899319296e-08 -0.040481859381952486 0
5.5132209352435848e-08 -0.040998920630772949 0
4.3402992520182778e-08 -0.041550768893138884 0
5.6605873133978047e-08 -0.042146833276724839 0
1.185079036350155e-07 -0.042794912716433355 0
1.3295322839078725e-07 -0.043502769977397278 0
1.4077540290360862e-07 -0.044279275150344639 0
1.4341278187892031e-07 -0.045132856495023591 0
2.0126046390843765e-07 -0.046077875425364991 0
1.8866058578715394e-07 -0.047134160478811284 0
1.8374183037749521e-07 -0.048321872943543592 0
6.9538617355992475e-08 -0.049665617398038181 0
9.2315149778178963e-08 -0.051193488091473768 0
9.0209811234564203e-08 -0.052943302787852836 0
6.1871219378397185e-08 -0.054961635532593422 0
5.0128867465896343e-08 -0.057309967669211821 0
5.7437848225400582e-08 -0.060077982981819461 0
7.510712277350316e-08 -0.063401006063405083 0
5.1579944305000852e-08 -0.067507643867289469 0
2.4511983173775092e-08 -0.072981355299307493 0
-1.7303417662529875e-09 -0.081798833889443506 0
3.11421932588726e-07 -0.038344629669013516 0
2.976112123356641e-07 -0.038990913500160297 0
3.3112195711914934e-07 -0.039494452593839158 0
3.1481208640819984e-07 -0.039981449421543337 0
3.1936088373184324e-07 -0.040474575962382381 0
3.4057703666150541e-07 -0.04099133112458328 0
3.6419668201120389e-07 -0.041542888851441931 0
3.3208666409320128e-07 -0.042138348247161291 0
3.3472516527577695e-07 -0.042785914253447688 0
2.5826701087147038e-07 -0.04349347594406594 0
2.6293232275280137e-07 -0.044269107223933818 0
2.9964231903220927e-07 -0.045122239118143982 0
3.9557894741370226e-07 -0.046066695260239106 0
2.9600124852905379e-07 -0.047122336501646586 0
3.2668530687204238e-07 -0.048309375636379784 0
2.780673758534297e-07 -0.049652122565665639 0
2.9631795950123689e-07 -0.051179153824695865 0
3.1543179642282007e-07 -0.052928218598893267 0
3.515057883203247e-07 -0.054945670419446424 0
3.7961404869928861e-07 -0.057292822755959524 0
4.2530355209939773e-07 -0.060059876150279821 0
4.6849772649865878e-07 -0.063382445604325502 0
4.8422307580880467e-07 -0.067491085405463544 0
5.6432652407234732e-07 -0.072960219796101775 0
6.2240891625053383e-07 -0.081776093862939131 0
5.9576234035133069e-07 -0.038332001196767426 0
6.4110519009912654e-07 -0.038977090212706671 0
6.7893062308618199e-07 -0.039479723304766831 0
7.0975053367233514e-07 -0.039965862926977021 0
7.3378530074134399e-07 -0.040458048188808451 0
7.3391352417897013e-07 -0.040973864877604703 0
7.5071552322832255e-07 -0.041524354739761085 0
7.8965219034624826e-07 -0.042118805356032185 0
7.8015011091177171e-07 -0.042765221959627099 0
8.0404476691180187e-07 -0.04347179136606464 0
8.751796266094545e-07 -0.044246570529297105 0
9.001805036885736e-07 -0.045098268593517232 0
9.6333814382303813e-07 -0.046040780417584609 0
8.6522226835113177e-07 -0.047094638551135506 0
1.089420482643945e-06 -0.048279852056771627 0
1.1003968865746392e-06 -0.049620322957692128 0
1.1274256929099692e-06 -0.051144881662372674 0
1.1462955327642783e-06 -0.052892072711068834 0
1.1797848018361767e-06 -0.054907021847599366 0
1.2265691220629922e-06 -0.057250363447777938 0
1.2776304727100055e-06 -0.060013532856746134 0
1.3349921867356532e-06 -0.063332557630839489 0
1.4245447086995572e-06 -0.067443572935424786 0
1.5122306411010053e-06 -0.072906585034159421 0
1.6629575093424905e-06 -0.081717371501481451 0
1.3750154124265626e-06 -0.038307298924542758 0
1.5090211597989389e-06 -0.038949769571099691 0
1.6060008464439006e-06 -0.039450298343211287 0
1.6841403503832984e-06 -0.03993443032997946 0
1.769514918125463e-06 -0.040424712026645139 0
1.8441192376321736e-06 -0.040938408351842148 0
1.8693929220161948e-06 -0.041486384769091458 0
1.8793387551156899e-06 -0.042078766650425793 0
1.9132994231907536e-06 -0.042722829256305453 0
1.9172233362799118e-06 -0.043426603426038483 0
2.0606736606215551e-06 -0.044198568599596165 0
1.9915479456604198e-06 -0.045047005512784538 0
2.1046656830721262e-06 -0.045985973802321486 0
2.3304306940146642e-06 -0.047035719701942799 0
2.4186352813132811e-06 -0.048216584762840631 0
2.4952893165695664e-06 -0.049552322846484073 0
2.5797585065158095e-06 -0.051071775263853196 0
2.6545916637569644e-06 -0.052812187055281068 0
2.789707856116793e-06 -0.054819742985698264 0
2.8887561882895003e-06 -0.057156033739531896 0
3.0008920739853016e-06 -0.059910732819278542 0
3.1448134246386149e-06 -0.063220434818088631 0
3.2880811746675357e-06 -0.067318332808633044 0
3.4584108238446466e-06 -0.072772587903109018 0
3.7455212096744315e-06 -0.081569490892247867 0
4.5009333307820841e-06 -0.038263291952668491 0
4.8629413536335468e-06 -0.038900939165245479 0
5.0545125335881484e-06 -0.039397761149900033 0
5.2542083102835581e-06 -0.039878146045196856 0
5.4642631128294904e-06 -0.040364506322818967 0
5.6621990499336599e-06 -0.040873842855040254 0
5.8251908658494605e-06 -0.041417199630040022 0
5.9526715937567379e-06 -0.042004331371694119 0
6.0668983100249683e-06 -0.042642570407229602 0
6.2006733667398773e-06 -0.043340252087607015 0
6.3397485404210549e-06 -0.044105109575418869 0
6.4504135269701723e-06 -0.044945690170827904 0
6.6207633908243644e-06 -0.045875727289269107 0
6.6310066015225933e-06 -0.046915086054313625 0
6.7615294539381419e-06 -0.048083605333803361 0
6.9528534996680091e-06 -0.049405721724592573 0
7.1390401026302194e-06 -0.0509096293783282 0
7.3331356882909906e-06 -0.052632545789790604 0
7.5402490498886364e-06 -0.054620525689382381 0
7.7582737518043358e-06 -0.056934796805487804 0
7.9905680495789375e-06 -0.059664879690240785 0
8.2389325660410284e-06 -0.062947107599087615 0
8.5276305993821754e-06 -0.067011886929994366 0
8.8241201546993604e-06 -0.072433115680395233 0
9.179042880085011e-06 -0.081189314918170358 0
1.2271574733637711e-05 -0.038181616380368835 0
1.3114750270133008e-05 -0.038814769189353629 0
1.3703883769668628e-05 -0.039307058354541333 0
1.4187075197901516e-05 -0.03978274025605031 0
1.4596824750412015e-05 -0.040263772672126212 0
1.4956863988897609e-05 -0.040766892758630074 0
1.5295148864880728e-05 -0.041303206571484861 0
1.5582467724158423e-05 -0.041881788781999621 0
1.5871275458800041e-05 -0.042509948876443465 0
1.6170506580856811e-05 -0.043195379378638571 0
1.6278046826113573e-05 -0.043945955837879996 0
1.6364560218650489e-05 -0.044769433873485261 0
1.6603611942982269e-05 -0.045678682391039727 0
1.6931593941886343e-05 -0.046693353803496145 0
1.7233229579340198e-05 -0.047832944493155151 0
1.7544917306441818e-05 -0.049120322259767792 0
1.7827518798807531e-05 -0.050583293912783871 0
1.8112790499252847e-05 -0.052258602828342389 0
1.8407935666991784e-05 -0.054191946433228999 0
1.867819766672285e-05 -0.056443453904831985 0
1.8953520062531091e-05 -0.059101388966146737 0
1.9236663715915873e-05 -0.062303135338169086 0
1.9616999360338447e-05 -0.066282176723320582 0
1.9865040182308463e-05 -0.071609940742352871 0
2.0122227464095809e-05 -0.080253726494384822 0
2.0942362848500731e-05 -0.037950325514930557 0
2.2070520516132614e-05 -0.038534087905684009 0
2.2878553772160052e-05 -0.038987506709305772 0
2.3614520152832578e-05 -0.039440488686580816 0
2.4291606930458784e-05 -0.039907470460048625 0
2.4912353413216103e-05 -0.040400466963271389 0
2.5526661781399773e-05 -0.040928253426103657 0
2.6094587430927721e-05 -0.041497707614334946 0
2.664164872527103e-05 -0.042115152050493002 0
2.7142998415205219e-05 -0.04278790285832746 0
2.7591066307062899e-05 -0.04352339523792921 0
2.7983501020662515e-05 -0.044329087817141261 0
2.8321555549478791e-05 -0.045217575475089998 0
2.8609167278538924e-05 -0.046207786901874312 0
2.8881568040875297e-05 -0.04731960261084605 0
2.9148621965342198e-05 -0.048575715441043964 0
2.9422651503352915e-05 -0.050004615680628237 0
2.9726337545764763e-05 -0.05164259337688424 0
3.0035980356197436e-05 -0.053537554620091819 0
3.0425023689224326e-05 -0.055748423931221286 0
3.0858857092025752e-05 -0.058370416938853552 0
3.1369196706925106e-05 -0.061551289527630705 0
3.1956203043531753e-05 -0.065528280440428965 0
3.2672782040490974e-05 -0.070825938758568713 0
3.3699503901045473e-05 -0.079219176825957152 0
-0 -0 0
-0 -0 0
-0 -0 0
-0 -0 0
-0 -0 0
-0 -0 0
2.0034963179810776e-05 0.035504556822997912 0
2.4256809313280925e-05 0.039998015958184828 0
2.8289155116802252e-05 0.04641997721982051 0
-0 -0 0
-0 -0 0
-0 -0 0
2.2695286030339752e-05 0.038881269847142436 0
2.4696341827916672e-05 0.040968385690664376 0
2.7834042153439713e-05 0.046984777933058809 0
-0 -0 0
-0 -0 0
-0 -0 0
1.7804060849403855e-05 0.039037857343995272 0
1.9794736812765203e-05 0.041130342393002409 0
2.2491138828840715e-05 0.047156575366924594 0
-0 -0 0
-0 -0 0
-0 -0 0
9.4168777994034766e-06 0.039206691385120715 0
1.0547538141443149e-05 0.041311628616753172 0
1.2168722940657633e-05 0.047406571896286956 0
-0 -0 0
-0 -0 0
-0 -0 0
3.6439667283420562e-06 0.039275710454335838 0
4.1794249573819364e-06 0.041400162694318933 0
4.9734712796838262e-06 0.047562510871056819 0
-0 -0 0
-0 -0 0
-0 -0 0
1.5588036779773296e-06 0.039315024739183815 0
1.7820704036784102e-06 0.041450271465237831 0
2.1638742040856314e-06 0.047644164939862364 0
-0 -0 0
-0 -0 0
-0 -0 0
8.2508098976366925e-07 0.039336310167093012 0
9.3532636644407851e-07 0.041476721973227507 0
1.1395755222716151e-06 0.047683385433864113 0
-0 -0 0
-0 -0 0
-0 -0 0
4.0275323413439724e-07 0.039346382958804757 0
4.7682347942472686e-07 0.041489060800300494 0
5.9208706592424561e-07 0.047700700378389416 0
-0 -0 0
-0 -0 0
-0 -0 0
1.6955064932875813e-07 0.039350088777623055 0
2.0473835125506816e-07 0.041493602316692087 0
2.5667845514080806e-07 0.047706964858974028 0
-0 -0 0
-0 -0 0
-0 -0 0
3.3756433597510486e-09 0.039349929452518022 0
1.4908351632579468e-08 0.041493372279032201 0
3.9035648268516254e-08 0.047706705659334075 0
-0 -0 0
-0 -0 0
-0 -0 0
-2.5256202762726625e-07 0.039345845093125734 0
-2.6354805995834075e-07 0.041488366171330483 0
-2.6546678061515442e-07 0.047699758013227227 0
-0 -0 0
-0 -0 0
-0 -0 0
-5.4688438313388637e-07 0.039335585334949366 0
-6.1416846735340951e-07 0.041475844326767472 0
-7.3072782849554169e-07 0.047681857732348031 0
-0 -0 0
-0 -0 0
-0 -0 0
-1.0421817838399518e-06 0.039314476738601792 0
-1.2289726386997069e-06 0.041449571163120244 0
-1.5696435664822112e-06 0.047642688543630476 0
-0 -0 0
-0 -0 0
-0 -0 0
-3.1445424766079236e-06 0.039275517714591798 0
-3.6437482774256684e-06 0.041399828522536923 0
-4.4139857860703769e-06 0.04756168037185482 0
-0 -0 0
-0 -0 0
-0 -0 0
-9.1634364145763064e-06 0.039206833337047449 0
-1.0268250403600213e-05 0.041311703291901057 0
-1.1822856502530627e-05 0.047406592560337468 0
-0 -0 0
-0 -0 0
-0 -0 0
-1.7671583336946388e-05 0.039038120031970262 0
-1.962462202238033e-05 0.041130643203798549 0
-2.2211592501364216e-05 0.047157132274308199 0
-0 -0 0
-0 -0 0
-0 -0 0
-2.2536529427360248e-05 0.038881495820248288 0
-2.4493662327251188e-05 0.040968646198659669 0
-2.7514860554321587e-05 0.046985478790603941 0
-0 -0 0
-0 -0 0
-0 -0 0
-1.9900486127998241e-05 0.035504078465772214 0
-2.4071808210390195e-05 0.039998090978521493 0
-2.7973456074504288e-05 0.046420660488931932 0
-0 -0 0
-0 -0 0
-0 -0 0
-0 -0 0
-0 -0 0
-0 -0 0
-0 -0 0
-0 -0 0
-0 -0 0
-0 -0 0
-0 -0 0
-0 -0 0
-0 -0 0
-0 -0 0
-0 -0 0
-0 -0 0
-0 -0 0
-0 -0 0
-0 -0 0
-0 -0 0
-0 -0 0
-0 -0 0
-0 -0 0
-0 -0 0
-0 -0 0
-0 -0 0
-0 -0 0
-0 -0 0
-0 -0 0
-0 -0 0
-0 -0 0
-0 -0 0
-0 -0 0
-0 -0 0
-0 -0 0
-0 -0 0
-0 -0 0
-0 -0 0
-0 -0 0
-0 -0 0
-0 -0 0
-0 -0 0
-0 -0 0
-0 -0 0
-0 -0 0
-0 -0 0
-0 -0 0
-0 -0 0
-0 -0 0
-0 -0 0
-0 -0 0
-0 -0 0
-0 -0 0
-0 -0 0
-0 -0 0
-0 -0 0
-0 -0 0
-0 -0 0
-0 -0 0
-0 -0 0
-0 -0 0
-0 -0 0
-0 -0 0
-0 -0 0
-0 -0 0
-0 -0 0
-0 -0 0
-0 -0 0
-0 -0 0
-0 -0 0
-0 -0 0
-0 -0 0
-0 -0 0
-0 -0 0
-0 -0 0
-0 -0 0
-0 -0 0
-0 -0 0
-0 -0 0
-0 -0 0
-0 -0 0
-0 -0 0
-0 -0 0
-0 -0 0
-0 -0 0
-0 -0 0
-0 -0 0
-0 -0 0
-0 -0 0
-0 -0 0
-0 -0 0
-0 -0 0
-0 -0 0
-0 -0 0
-0 -0 0
-0 -0 0
-0 -0 0
-0 -0 0
-0 -0 0
-0 -0 0
-0 -0 0
-0 -0 0
-0 -0 0
-0 -0 0
-0 -0 0
-0 -0 0
-0 -0 0
-0 -0 0
-0 -0 0
-0 -0 0
-0 -0 0
-0 -0 0
-0 -0 0
-0 -0 0
-0 -0 0
-0 -0 0
-0 -0 0
-0 -0 0
-0 -0 0
-0 -0 0
-0 -0 0
-0 -0 0
-0 -0 0
-0 -0 0
-0 -0 0
-0 -0 0
-0 -0 0
-0 -0 0
-0 -0 0
-0 -0 0
-0 -0 0
-0 -0 0
-0 -0 0
-0 -0 0
-0 -0 0
-0 -0 0
-0 -0 0
-0 -0 0
-0 -0 0
-0 -0 0
-0 -0 0
-0 -0 0
-0 -0 0
-0 -0 0
-0 -0 0
-0 -0 0
-0 -0 0
-0 -0 0
-0 -0 0
-0 -0 0
-0 -0 0
-0 -0 0
-0 -0 0
-0 -0 0
-0 -0 0
-0 -0 0
-0 -0 0
-0 -0 0
-0 -0 0
-0 -0 0
-0 -0 0
-0 -0 0
-0 -0 0
-0 -0 0
-0 -0 0
-0 -0 0
-0 -0 0
-0 -0 0
-0 -0 0
-0 -0 0
-0 -0 0
-0 -0 0
-0 -0 0
-0 -0 0
-0 -0 0
-0 -0 0
-0 -0 0
-0 -0 0
-0 -0 0
-0 -0 0
-0 -0 0
-0 -0 0
-0 -0 0
-0 -0 0
-0 -0 0
-0 -0 0
-0 -0 0
-0 -0 0
-0 -0 0
-0 -0 0
-0 -0 0
-0 -0 0
-0 -0 0
-0 -0 0
-0 -0 0
