# vtk DataFile Version 3.0
SPH particles (WCSPH) - legacy PolyData
ASCII
DATASET POLYDATA
POINTS 681 float
0.049991320125839164 0.019643114126481519 0
0.049990341336662414 0.021789940248608069 0
0.049989549495640682 0.023521328449170563 0
0.049988768285596709 0.025229896804206529 0
0.049988068181702379 0.026891333410241611 0
0.049987451680453619 0.02850482600413743 0
0.049986886693105574 0.030076757978374082 0
0.049986332906993475 0.031615707644789409 0
0.049985733640316249 0.033131177602075262 0
0.049984991740265959 0.034631375994890606 0
0.04998365963100336 0.036125061906732335 0
0.04998187848144342 0.037620775722372914 0
0.049981188603412892 0.039126993214368237 0
0.049981945522526348 0.040652642259031549 0
0.049983436712554848 0.042207628874712855 0
0.049985197098295901 0.043802756046149152 0
0.049987018081992428 0.045451645694287446 0
0.049988732773504366 0.047170772285191523 0
0.04999033241996801 0.048982539836823005 0
0.049991759617528504 0.050903719776565721 0
0.04999296525299507 0.052979216668783156 0
0.049993949942560983 0.055265099663974832 0
0.049994745240271511 0.057850841966501185 0
0.049995390229060369 0.060904823931453494 0
0.049996218140645012 0.064890301898033506 0
0.069995478371155495 0.018435507556261398 0
0.069994914838666822 0.020804640059114459 0
0.069994495781910929 0.022727770799517748 0
0.069994117665451647 0.024588814627206263 0
0.069993762085894085 0.026374938040375859 0
0.069993404910006232 0.028093673498791688 0
0.069993048637061128 0.029757301442786693 0
0.069992686606732357 0.031378445619627035 0
0.069992302082960089 0.032969542686502387 0
0.069991845285212378 0.0345407685452414 0
0.069990941267324663 0.036102426715595493 0
0.069989101633456369 0.037664434568081565 0
0.069988018625612769 0.039236134578840016 0
0.069988221258527397 0.040827212605835793 0
0.069989134461878114 0.042448659708254774 0
0.069990282534682646 0.044112279584880669 0
0.069991514305201147 0.045833444911116017 0
0.069992725686854676 0.04762953298874021 0
0.069993860714360548 0.049521887628516226 0
0.069994846523174364 0.051537064226928143 0
0.069995664459437695 0.053718914866777365 0
0.069996316743791351 0.056128252440571236 0
0.069996814098856511 0.058867450489472006 0
0.069997206744895402 0.062131748689855604 0
0.069997713318847743 0.066469972744236577 0
0.089998399125012576 0.018385542045690744 0
0.089998189972738479 0.020756608162746548 0
0.089998035623807246 0.022683344136305798 0
0.089997886542315372 0.024550270082482714 0
0.089997733446094616 0.026343718094237082 0
0.089997571468962589 0.028070708641064059 0
0.089997401871560009 0.029743478570177114 0
0.089997227299353486 0.031374421812834563 0
0.089997030685775956 0.032975502130997709 0
0.089996811303724875 0.034557467579969053 0
0.089996544907476425 0.036130456800513196 0
0.089996169936711473 0.037704546076010793 0
0.0899958053301297 0.039288947281614521 0
0.089995764722199278 0.040893448236395277 0
0.089996010106007968 0.042529008768272772 0
0.089996344847727255 0.044207714275250179 0
0.089996737498847693 0.04594480888523314 0
0.08999713753776635 0.047756931599858339 0
0.089997517939381738 0.04966614668549315 0
0.089997837151255172 0.051701827649844004 0
0.089998102506144442 0.053905529971209259 0
0.08999830751498139 0.056338773753256348 0
0.089998486622981863 0.059104030396852678 0
0.089998634109137915 0.062396378102171357 0
0.089998864920801572 0.066770674169647465 0
0.10999942607222976 0.018395042741513688 0
0.10999934564308206 0.020767208038809971 0
0.10999927948697769 0.022694922429863835 0
0.10999921502874795 0.024562935309358862 0
0.10999914752080242 0.026357579573333213 0
0.10999909451645318 0.028085890096410365 0
0.10999903402467084 0.029760121908859079 0
0.10999895609243057 0.031392656457157476 0
0.10999886981051672 0.032995328031170459 0
0.10999877420381052 0.034579023396992328 0
0.10999867894285507 0.036153857044816134 0
0.10999855601899182 0.037730057821841842 0
0.1099984601218299 0.039316659822494444 0
0.10999844856221132 0.040923565019735673 0
0.10999849446684634 0.04256174700475044 0
0.10999859769125299 0.044243584094673813 0
0.10999872609142919 0.045983740745632773 0
0.10999886787533213 0.047798955948363371 0
0.10999900789325558 0.049711568751716839 0
0.10999912003841408 0.051750986985946726 0
0.10999920623806679 0.053958863317049667 0
0.10999927644987727 0.056396803740304861 0
0.10999933943999222 0.059167289153354403 0
0.10999939776286648 0.062465506278087807 0
0.10999949741105489 0.066847801989460151 0
0.12999977152566719 0.018401455296012854 0
0.12999974020746483 0.020774282679010447 0
0.129999718809096 0.022702495272222321 0
0.1299996991689058 0.024570959155067455 0
0.12999968866384187 0.026366055686223085 0
0.12999966143383276 0.028094778333369805 0
0.12999963764937297 0.029769392559177914 0
0.12999960490160575 0.031402325276330148 0
0.12999957459477351 0.033005402613684745 0
0.12999953457695762 0.034589509882674611 0
0.12999947980156973 0.036164818817833649 0
0.12999941357978553 0.037741231402892136 0
0.1299994029966223 0.039328107820703388 0
0.12999940269059745 0.040935268499230452 0
0.12999938301837105 0.042573756922234272 0
0.12999942974383608 0.044256507015013706 0
0.12999948443125639 0.04599852893073135 0
0.12999954118768636 0.047815003628764681 0
0.1299995887209052 0.049728530240362827 0
0.12999962361433048 0.051768211780876067 0
0.12999965548221817 0.053977076322163163 0
0.12999968230138334 0.056416154323371201 0
0.12999970407668029 0.059187917347425061 0
0.12999972773264767 0.062487557618538525 0
0.12999976956291942 0.06687193869295692 0
0.14999990471406741 0.018404218351674145 0
0.1499998945054927 0.020777394357343659 0
0.14999988660465732 0.022705934465837577 0
0.14999987883761617 0.024574545704415109 0
0.14999986890466058 0.026369795858091117 0
0.1499998603441397 0.028098743974742501 0
0.14999985828338122 0.02977349637742966 0
0.14999985150758491 0.031406610584886585 0
0.14999983785139612 0.033009879572752109 0
0.14999981496771234 0.034594172282110487 0
0.14999978881246201 0.036169802190582863 0
0.14999976883656838 0.037746471611080502 0
0.14999974608535349 0.039333667556907502 0
0.14999972685201465 0.040941447471903307 0
0.14999972998716984 0.0425804498859279 0
0.14999975210677952 0.044263342813236954 0
0.14999978283321391 0.046004483778571865 0
0.14999981700775483 0.047820517013679696 0
0.14999981150738398 0.049734192929340719 0
0.14999980988549214 0.051774763191724846 0
0.14999982087760222 0.053983948801693736 0
0.14999983763307795 0.056423424096158886 0
0.14999984969569979 0.059195738013166729 0
0.14999985769361981 0.062495985119215988 0
0.14999987648217517 0.066880660351502558 0
0.16999995025979683 0.018404624504451884 0
0.16999994414214326 0.020778190535809489 0
0.16999993863814308 0.022707197466084517 0
0.16999993256864257 0.024575737518063998 0
0.16999992491082425 0.026371016308290814 0
0.16999991658554836 0.028100062737927152 0
0.16999990503972892 0.029774885708345959 0
0.16999989901341364 0.031408028556565687 0
0.16999988843823982 0.033011249447801497 0
0.16999987487898613 0.034595347985459671 0
0.16999985189023706 0.036171140693610992 0
0.16999982708842545 0.037747729185362282 0
0.16999980583839011 0.039334662744332616 0
0.16999977486291615 0.040942998081068334 0
0.16999978667003598 0.042582211054209569 0
0.16999983743965205 0.044265508847611913 0
0.16999985862851097 0.04600681270662417 0
0.16999986001023543 0.047822247171859664 0
0.16999983707824437 0.049735939016204683 0
0.16999985566436987 0.051776763330604915 0
0.16999987940437616 0.053986062530759112 0
0.16999989711299957 0.056425734117591463 0
0.16999989909490443 0.059198415642381284 0
0.16999990594191286 0.062500003344253263 0
0.16999992173967265 0.066883529284343907 0
0.18999996483634587 0.018405198558588708 0
0.1899999609817411 0.020778281096427601 0
0.1899999607402065 0.022706878555213309 0
0.18999995680413242 0.02457577423750423 0
0.18999995160145883 0.026371401913790532 0
0.18999994106174928 0.0281003096592349 0
0.18999993789502778 0.029775117647184924 0
0.18999992647813804 0.031408324265654049 0
0.18999991433009095 0.033011482956425135 0
0.18999990649909965 0.034595508742940727 0
0.18999990208112391 0.03617163579223593 0
0.18999990958967586 0.037748434039447151 0
0.18999992438545205 0.03933566278135596 0
0.18999991951789269 0.040943879536433435 0
0.18999993011411206 0.042583074630974022 0
0.18999992779222158 0.044265967060334213 0
0.18999991443986508 0.04600680748241779 0
0.189999892580758 0.047822752100984703 0
0.18999986456495541 0.049736434512151428 0
0.18999991953971609 0.051777169255894692 0
0.18999992703793123 0.053986180969680761 0
0.18999994132648346 0.05642510100360984 0
0.18999994918306412 0.059196202822855933 0
0.18999995696720168 0.062498735112646642 0
0.18999996779320105 0.066883497872409756 0
0.20999999461661778 0.018405143556187897 0
0.20999999349690096 0.020778261623706894 0
0.20999999074039685 0.02270663373009173 0
0.20999998786056412 0.024575135394925885 0
0.20999998485891225 0.026370727104022596 0
0.20999997587581989 0.028099636349568861 0
0.20999997538049139 0.029774529771887367 0
0.2099999746618938 0.03140792021512414 0
0.20999997458144587 0.033011215833253615 0
0.20999996387286499 0.034595336493215938 0
0.20999995717173583 0.036170704505359107 0
0.20999995356326401 0.037747421610741745 0
0.20999996359595671 0.039335385797906526 0
0.20999994954652504 0.040943526485656537 0
0.20999994986473314 0.042582604930469295 0
0.20999996392403661 0.044265335483506717 0
0.20999996398679902 0.046006008392832996 0
0.20999996764217796 0.047822083156072101 0
0.2099999935570607 0.04973573967033737 0
0.20999999087213775 0.051776432834156109 0
0.20999998576674084 0.053985387922896928 0
0.20999997790691866 0.056424214857251909 0
0.20999998326224223 0.059195100138448552 0
0.209999989722434 0.062497379804090286 0
0.20999999692467575 0.066882433246530329 0
0.2300000566191745 0.018403948689440775 0
0.23000006165164677 0.020776962817314018 0
0.23000007003738676 0.022705280395578498 0
0.23000007089290145 0.024573722125484601 0
0.23000006725018737 0.026368877182011953 0
0.23000007266662886 0.028098023323822559 0
0.23000008468270017 0.029773257139121694 0
0.23000009318511913 0.031406180524756994 0
0.23000009913621394 0.033009304379300719 0
0.23000010069646556 0.034593366336009269 0
0.23000010241173874 0.036168413332505221 0
0.23000011428505854 0.037745378349725196 0
0.23000017643738149 0.039333456809440087 0
0.2300001325623178 0.040941321788651681 0
0.23000011042553767 0.042580268051546924 0
0.23000013920855061 0.044262849432063871 0
0.23000014333343524 0.046003357916935633 0
0.2300001470416346 0.047819551335349895 0
0.23000018253957147 0.049733183299674237 0
0.23000013722520199 0.051773661902626153 0
0.23000011907555051 0.053982599248405656 0
0.2300000975669258 0.056421786393506534 0
0.23000008844254971 0.059194534125171908 0
0.23000008299382976 0.062494495257585089 0
0.23000007317397431 0.066879316174890638 0
0.25000016796980801 0.018401064158918255 0
0.25000018874062757 0.020773758374590487 0
0.25000020933984712 0.022701952167493322 0
0.25000022829787999 0.024570310369130006 0
0.25000024173458313 0.026365275331056825 0
0.25000025589036312 0.028094212478689595 0
0.25000028007123709 0.029768847271608709 0
0.25000030090963321 0.031401853566981761 0
0.25000032027143776 0.033004923765276688 0
0.25000035072905513 0.034588992369849081 0
0.25000039742373298 0.036164282327901344 0
0.25000048162641691 0.037740785902591889 0
0.25000051322131844 0.039327903746850662 0
0.25000055885895356 0.040935494540017575 0
0.25000055022607331 0.042574121965609522 0
0.2500005034548855 0.044256169993453713 0
0.25000046822962918 0.045996171799555619 0
0.25000041819130053 0.047812691020925016 0
0.25000038006370395 0.049726174191842186 0
0.25000034440698421 0.051765615266199057 0
0.25000031316082133 0.053973750229019797 0
0.25000028346384401 0.056412539332385894 0
0.25000025705664591 0.059188628508804568 0
0.25000023306488806 0.062486527286852764 0
0.25000019492343373 0.066870363109478109 0
0.27000048555541473 0.018394578537050593 0
0.27000055568713704 0.020766574975623689 0
0.27000060824813149 0.022694144831866291 0
0.27000066172706666 0.024562150459575209 0
0.27000071007576942 0.026357078745733016 0
0.27000076469900886 0.028085616398474907 0
0.27000082054417951 0.029759047314302806 0
0.27000087863201377 0.031392143506462626 0
0.27000095330015439 0.032994938878920813 0
0.27000104578343181 0.034578503576874677 0
0.27000115397450342 0.036153465418046649 0
0.27000125741435332 0.037729482324746384 0
0.27000141436990949 0.039316013889174745 0
0.27000152614047301 0.040923116397157538 0
0.27000148320680589 0.042561331690661258 0
0.27000134228613309 0.044243007218248302 0
0.27000120158383706 0.045982537955737049 0
0.27000107364010911 0.047797671033966697 0
0.27000094893098825 0.049710126447526405 0
0.27000084308938321 0.051749172135423654 0
0.27000075288586578 0.053956382653433596 0
0.27000067173227371 0.056393700668041648 0
0.27000060390459385 0.05916657749572124 0
0.27000054678230273 0.062464591439855749 0
0.27000045994615346 0.066846465611837769 0
0.29000152942521618 0.018385341914973818 0
0.29000173529847673 0.020756324580629485 0
0.29000188903955965 0.022683060382918077 0
0.2900020377194566 0.024549989758210846 0
0.29000219176617698 0.026343484074558065 0
0.29000234675092018 0.028070359054747744 0
0.29000251131349397 0.029742500150713981 0
0.29000269901691966 0.031374252639814422 0
0.29000291706907932 0.032975460489209484 0
0.29000316120754788 0.034557247044141891 0
0.29000345804446492 0.036130288617495093 0
0.29000385059947348 0.037704228410425054 0
0.29000422844147428 0.039288542321665766 0
0.29000427357600661 0.040893212010778168 0
0.29000404016840181 0.042528910387922197 0
0.29000367428313989 0.044207954430792021 0
0.29000326266083859 0.045944684447502257 0
0.29000285002642956 0.0477565755479466 0
0.29000246866920654 0.049665857065390159 0
0.2900021379156858 0.051701680626276496 0
0.29000185836308656 0.053905153395718559 0
0.29000163236287102 0.056338100694396175 0
0.29000145030896812 0.059103674117537398 0
0.29000130031489812 0.062396056577243307 0
0.29000107762760591 0.066770260461190764 0
0.31000458921445784 0.018435545376414599 0
0.31000515502892012 0.02080467453445909 0
0.31000557902070047 0.022727813614345012 0
0.31000596587000562 0.024588856274302396 0
0.31000632955452023 0.026374906289352729 0
0.31000669723196134 0.028093387723784179 0
0.31000706643754644 0.029756830565427984 0
0.31000744552875742 0.031378815694021317 0
0.31000786063640345 0.03296977525773951 0
0.31000836568585749 0.034540853209250995 0
0.31000931870278575 0.036102588040561094 0
0.31001115733487061 0.037664624750812933 0
0.31001218799997193 0.039236341180607578 0
0.31001194530374721 0.04082775098567068 0
0.31001101873795622 0.042449449987580941 0
0.31000986723556573 0.044113662218516286 0
0.31000862046090905 0.045834644630135188 0
0.31000737686391505 0.047629716665459045 0
0.31000621889180729 0.049521399034525945 0
0.31000520828866107 0.051538139356738795 0
0.31000436700354428 0.05372000776704753 0
0.31000369533145672 0.056128669790709289 0
0.31000318312597847 0.058867863015461958 0
0.31000276751614514 0.062132121924166318 0
0.31000224439881702 0.066470224315518758 0
0.33000853139537051 0.019643386720546597 0
0.33000947375543704 0.021790227433693896 0
0.3300102397626945 0.023521579168483443 0
0.33001098132531748 0.025230043395349778 0
0.33001164532068983 0.026891191630758191 0
0.33001221820376764 0.028504219057273569 0
0.33001273758865929 0.030076651119786475 0
0.33001326178177925 0.031616446924915817 0
0.33001378948559934 0.033131549639993776 0
0.33001440232441559 0.034631652184229741 0
0.33001560693959309 0.036125411744720892 0
0.33001736938829668 0.037621213828363066 0
0.33001805734792022 0.039127547502034697 0
0.33001728153781629 0.040653434579521926 0
0.33001582659860351 0.042208619066181188 0
0.33001412345864312 0.043804205820049763 0
0.33001237217678825 0.045453294882936833 0
0.33001068229062408 0.047171523097802891 0
0.3300091300193338 0.048981012986329051 0
0.33000777275220411 0.050904154198693978 0
0.33000663696804788 0.052979794867646902 0
0.3300057263325209 0.055265504683196714 0
0.3300050063716764 0.057851231602396705 0
0.33000443423414449 0.06090513080656175 0
0.33000366964620953 0.064890131060092934 0
0 0 0
0 0.020000000000000004 0
0 0.040000000000000001 0
0 0.54999999999999993 0
0 0.56000000000000005 0
0 0.58000000000000007 0
0.02 0 0
0.02 0.020000000000000004 0
0.02 0.040000000000000001 0
0.02 0.54999999999999993 0
0.02 0.56000000000000005 0
0.02 0.58000000000000007 0
0.040000000000000001 0 0
0.040000000000000001 0.020000000000000004 0
0.040000000000000001 0.040000000000000001 0
0.040000000000000001 0.54999999999999993 0
0.040000000000000001 0.56000000000000005 0
0.040000000000000001 0.58000000000000007 0
0.059999999999999998 0 0
0.059999999999999998 0.020000000000000004 0
0.059999999999999998 0.040000000000000001 0
0.059999999999999998 0.54999999999999993 0
0.059999999999999998 0.56000000000000005 0
0.059999999999999998 0.58000000000000007 0
0.080000000000000002 0 0
0.080000000000000002 0.020000000000000004 0
0.080000000000000002 0.040000000000000001 0
0.080000000000000002 0.54999999999999993 0
0.080000000000000002 0.56000000000000005 0
0.080000000000000002 0.58000000000000007 0
0.10000000000000001 0 0
0.10000000000000001 0.020000000000000004 0
0.10000000000000001 0.040000000000000001 0
0.10000000000000001 0.54999999999999993 0
0.10000000000000001 0.56000000000000005 0
0.10000000000000001 0.58000000000000007 0
0.12 0 0
0.12 0.020000000000000004 0
0.12 0.040000000000000001 0
0.12 0.54999999999999993 0
0.12 0.56000000000000005 0
0.12 0.58000000000000007 0
0.14000000000000001 0 0
0.14000000000000001 0.020000000000000004 0
0.14000000000000001 0.040000000000000001 0
0.14000000000000001 0.54999999999999993 0
0.14000000000000001 0.56000000000000005 0
0.14000000000000001 0.58000000000000007 0
0.16 0 0
0.16 0.020000000000000004 0
0.16 0.040000000000000001 0
0.16 0.54999999999999993 0
0.16 0.56000000000000005 0
0.16 0.58000000000000007 0
0.17999999999999999 0 0
0.17999999999999999 0.020000000000000004 0
0.17999999999999999 0.040000000000000001 0
0.17999999999999999 0.54999999999999993 0
0.17999999999999999 0.56000000000000005 0
0.17999999999999999 0.58000000000000007 0
0.20000000000000001 0 0
0.20000000000000001 0.020000000000000004 0
0.20000000000000001 0.040000000000000001 0
0.20000000000000001 0.54999999999999993 0
0.20000000000000001 0.56000000000000005 0
0.20000000000000001 0.58000000000000007 0
0.22 0 0
0.22 0.020000000000000004 0
0.22 0.040000000000000001 0
0.22 0.54999999999999993 0
0.22 0.56000000000000005 0
0.22 0.58000000000000007 0
0.23999999999999999 0 0
0.23999999999999999 0.020000000000000004 0
0.23999999999999999 0.040000000000000001 0
0.23999999999999999 0.54999999999999993 0
0.23999999999999999 0.56000000000000005 0
0.23999999999999999 0.58000000000000007 0
0.26000000000000001 0 0
0.26000000000000001 0.020000000000000004 0
0.26000000000000001 0.040000000000000001 0
0.26000000000000001 0.54999999999999993 0
0.26000000000000001 0.56000000000000005 0
0.26000000000000001 0.58000000000000007 0
0.28000000000000003 0 0
0.28000000000000003 0.020000000000000004 0
0.28000000000000003 0.040000000000000001 0
0.28000000000000003 0.54999999999999993 0
0.28000000000000003 0.56000000000000005 0
0.28000000000000003 0.58000000000000007 0
0.29999999999999999 0 0
0.29999999999999999 0.020000000000000004 0
0.29999999999999999 0.040000000000000001 0
0.29999999999999999 0.54999999999999993 0
0.29999999999999999 0.56000000000000005 0
0.29999999999999999 0.58000000000000007 0
0.32000000000000001 0 0
0.32000000000000001 0.020000000000000004 0
0.32000000000000001 0.040000000000000001 0
0.32000000000000001 0.54999999999999993 0
0.32000000000000001 0.56000000000000005 0
0.32000000000000001 0.58000000000000007 0
0.34000000000000002 0 0
0.34000000000000002 0.020000000000000004 0
0.34000000000000002 0.040000000000000001 0
0.34000000000000002 0.54999999999999993 0
0.34000000000000002 0.56000000000000005 0
0.34000000000000002 0.58000000000000007 0
0.35999999999999999 0 0
0.35999999999999999 0.020000000000000004 0
0.35999999999999999 0.040000000000000001 0
0.35999999999999999 0.54999999999999993 0
0.35999999999999999 0.56000000000000005 0
0.35999999999999999 0.58000000000000007 0
0.38 0 0
0.38 0.020000000000000004 0
0.38 0.040000000000000001 0
0.38 0.54999999999999993 0
0.38 0.56000000000000005 0
0.38 0.58000000000000007 0
0.40000000000000002 0 0
0.40000000000000002 0.020000000000000004 0
0.40000000000000002 0.040000000000000001 0
0.40000000000000002 0.54999999999999993 0
0.40000000000000002 0.56000000000000005 0
0.40000000000000002 0.58000000000000007 0
0.41999999999999998 0 0
0.41999999999999998 0.020000000000000004 0
0.41999999999999998 0.040000000000000001 0
0.41999999999999998 0.54999999999999993 0
0.41999999999999998 0.56000000000000005 0
0.41999999999999998 0.58000000000000007 0
0.44 0 0
0.44 0.020000000000000004 0
0.44 0.040000000000000001 0
0.44 0.54999999999999993 0
0.44 0.56000000000000005 0
0.44 0.58000000000000007 0
0.46000000000000002 0 0
0.46000000000000002 0.020000000000000004 0
0.46000000000000002 0.040000000000000001 0
0.46000000000000002 0.54999999999999993 0
0.46000000000000002 0.56000000000000005 0
0.46000000000000002 0.58000000000000007 0
0.47999999999999998 0 0
0.47999999999999998 0.020000000000000004 0
0.47999999999999998 0.040000000000000001 0
0.47999999999999998 0.54999999999999993 0
0.47999999999999998 0.56000000000000005 0
0.47999999999999998 0.58000000000000007 0
0.5 0 0
0.5 0.020000000000000004 0
0.5 0.040000000000000001 0
0.5 0.54999999999999993 0
0.5 0.56000000000000005 0
0.5 0.58000000000000007 0
0.52000000000000002 0 0
0.52000000000000002 0.020000000000000004 0
0.52000000000000002 0.040000000000000001 0
0.52000000000000002 0.54999999999999993 0
0.52000000000000002 0.56000000000000005 0
0.52000000000000002 0.58000000000000007 0
0.54000000000000004 0 0
0.54000000000000004 0.020000000000000004 0
0.54000000000000004 0.040000000000000001 0
0.54000000000000004 0.54999999999999993 0
0.54000000000000004 0.56000000000000005 0
0.54000000000000004 0.58000000000000007 0
0.56000000000000005 0 0
0.56000000000000005 0.020000000000000004 0
0.56000000000000005 0.040000000000000001 0
0.56000000000000005 0.54999999999999993 0
0.56000000000000005 0.56000000000000005 0
0.56000000000000005 0.58000000000000007 0
0.57999999999999996 0 0
0.57999999999999996 0.020000000000000004 0
0.57999999999999996 0.040000000000000001 0
0.57999999999999996 0.54999999999999993 0
0.57999999999999996 0.56000000000000005 0
0.57999999999999996 0.58000000000000007 0
0.59999999999999998 0 0
0.59999999999999998 0.020000000000000004 0
0.59999999999999998 0.040000000000000001 0
0.59999999999999998 0.54999999999999993 0
0.59999999999999998 0.56000000000000005 0
0.59999999999999998 0.58000000000000007 0
0.62 0 0
0.62 0.020000000000000004 0
0.62 0.040000000000000001 0
0.62 0.54999999999999993 0
0.62 0.56000000000000005 0
0.62 0.58000000000000007 0
0.64000000000000001 0 0
0.64000000000000001 0.020000000000000004 0
0.64000000000000001 0.040000000000000001 0
0.64000000000000001 0.54999999999999993 0
0.64000000000000001 0.56000000000000005 0
0.64000000000000001 0.58000000000000007 0
0.66000000000000003 0 0
0.66000000000000003 0.020000000000000004 0
0.66000000000000003 0.040000000000000001 0
0.66000000000000003 0.54999999999999993 0
0.66000000000000003 0.56000000000000005 0
0.66000000000000003 0.58000000000000007 0
0.68000000000000005 0 0
0.68000000000000005 0.020000000000000004 0
0.68000000000000005 0.040000000000000001 0
0.68000000000000005 0.54999999999999993 0
0.68000000000000005 0.56000000000000005 0
0.68000000000000005 0.58000000000000007 0
0.70000000000000007 0 0
0.70000000000000007 0.020000000000000004 0
0.70000000000000007 0.040000000000000001 0
0.70000000000000007 0.54999999999999993 0
0.70000000000000007 0.56000000000000005 0
0.70000000000000007 0.58000000000000007 0
0.71999999999999997 0 0
0.71999999999999997 0.020000000000000004 0
0.71999999999999997 0.040000000000000001 0
0.71999999999999997 0.54999999999999993 0
0.71999999999999997 0.56000000000000005 0
0.71999999999999997 0.58000000000000007 0
0.73999999999999999 0 0
0.73999999999999999 0.020000000000000004 0
0.73999999999999999 0.040000000000000001 0
0.73999999999999999 0.54999999999999993 0
0.73999999999999999 0.56000000000000005 0
0.73999999999999999 0.58000000000000007 0
0.76000000000000001 0 0
0.76000000000000001 0.020000000000000004 0
0.76000000000000001 0.040000000000000001 0
0.76000000000000001 0.54999999999999993 0
0.76000000000000001 0.56000000000000005 0
0.76000000000000001 0.58000000000000007 0
0.78000000000000003 0 0
0.78000000000000003 0.020000000000000004 0
0.78000000000000003 0.040000000000000001 0
0.78000000000000003 0.54999999999999993 0
0.78000000000000003 0.56000000000000005 0
0.78000000000000003 0.58000000000000007 0
0.80000000000000004 0 0
0.80000000000000004 0.020000000000000004 0
0.80000000000000004 0.040000000000000001 0
0.80000000000000004 0.54999999999999993 0
0.80000000000000004 0.56000000000000005 0
0.80000000000000004 0.58000000000000007 0
0.82000000000000006 0 0
0.82000000000000006 0.020000000000000004 0
0.82000000000000006 0.040000000000000001 0
0.82000000000000006 0.54999999999999993 0
0.82000000000000006 0.56000000000000005 0
0.82000000000000006 0.58000000000000007 0
0.83999999999999997 0 0
0.83999999999999997 0.020000000000000004 0
0.83999999999999997 0.040000000000000001 0
0.83999999999999997 0.54999999999999993 0
0.83999999999999997 0.56000000000000005 0
0.83999999999999997 0.58000000000000007 0
0.85999999999999999 0 0
0.85999999999999999 0.020000000000000004 0
0.85999999999999999 0.040000000000000001 0
0.85999999999999999 0.54999999999999993 0
0.85999999999999999 0.56000000000000005 0
0.85999999999999999 0.58000000000000007 0
0.88 0 0
0.88 0.020000000000000004 0
0.88 0.040000000000000001 0
0.88 0.54999999999999993 0
0.88 0.56000000000000005 0
0.88 0.58000000000000007 0
0.90000000000000002 0 0
0.90000000000000002 0.020000000000000004 0
0.90000000000000002 0.040000000000000001 0
0.90000000000000002 0.54999999999999993 0
0.90000000000000002 0.56000000000000005 0
0.90000000000000002 0.58000000000000007 0
0.92000000000000004 0 0
0.92000000000000004 0.020000000000000004 0
0.92000000000000004 0.040000000000000001 0
0.92000000000000004 0.54999999999999993 0
0.92000000000000004 0.56000000000000005 0
0.92000000000000004 0.58000000000000007 0
0.94000000000000006 0 0
0.94000000000000006 0.020000000000000004 0
0.94000000000000006 0.040000000000000001 0
0.94000000000000006 0.54999999999999993 0
0.94000000000000006 0.56000000000000005 0
0.94000000000000006 0.58000000000000007 0
0.95999999999999996 0 0
0.95999999999999996 0.020000000000000004 0
0.95999999999999996 0.040000000000000001 0
0.95999999999999996 0.54999999999999993 0
0.95999999999999996 0.56000000000000005 0
0.95999999999999996 0.58000000000000007 0
0.97999999999999998 0 0
0.97999999999999998 0.020000000000000004 0
0.97999999999999998 0.040000000000000001 0
0.97999999999999998 0.54999999999999993 0
0.97999999999999998 0.56000000000000005 0
0.97999999999999998 0.58000000000000007 0
1 0 0
1 0.020000000000000004 0
1 0.040000000000000001 0
1 0.54999999999999993 0
1 0.56000000000000005 0
1 0.58000000000000007 0
VERTICES 681 1362
1 0
1 1
1 2
1 3
1 4
1 5
1 6
1 7
1 8
1 9
1 10
1 11
1 12
1 13
1 14
1 15
1 16
1 17
1 18
1 19
1 20
1 21
1 22
1 23
1 24
1 25
1 26
1 27
1 28
1 29
1 30
1 31
1 32
1 33
1 34
1 35
1 36
1 37
1 38
1 39
1 40
1 41
1 42
1 43
1 44
1 45
1 46
1 47
1 48
1 49
1 50
1 51
1 52
1 53
1 54
1 55
1 56
1 57
1 58
1 59
1 60
1 61
1 62
1 63
1 64
1 65
1 66
1 67
1 68
1 69
1 70
1 71
1 72
1 73
1 74
1 75
1 76
1 77
1 78
1 79
1 80
1 81
1 82
1 83
1 84
1 85
1 86
1 87
1 88
1 89
1 90
1 91
1 92
1 93
1 94
1 95
1 96
1 97
1 98
1 99
1 100
1 101
1 102
1 103
1 104
1 105
1 106
1 107
1 108
1 109
1 110
1 111
1 112
1 113
1 114
1 115
1 116
1 117
1 118
1 119
1 120
1 121
1 122
1 123
1 124
1 125
1 126
1 127
1 128
1 129
1 130
1 131
1 132
1 133
1 134
1 135
1 136
1 137
1 138
1 139
1 140
1 141
1 142
1 143
1 144
1 145
1 146
1 147
1 148
1 149
1 150
1 151
1 152
1 153
1 154
1 155
1 156
1 157
1 158
1 159
1 160
1 161
1 162
1 163
1 164
1 165
1 166
1 167
1 168
1 169
1 170
1 171
1 172
1 173
1 174
1 175
1 176
1 177
1 178
1 179
1 180
1 181
1 182
1 183
1 184
1 185
1 186
1 187
1 188
1 189
1 190
1 191
1 192
1 193
1 194
1 195
1 196
1 197
1 198
1 199
1 200
1 201
1 202
1 203
1 204
1 205
1 206
1 207
1 208
1 209
1 210
1 211
1 212
1 213
1 214
1 215
1 216
1 217
1 218
1 219
1 220
1 221
1 222
1 223
1 224
1 225
1 226
1 227
1 228
1 229
1 230
1 231
1 232
1 233
1 234
1 235
1 236
1 237
1 238
1 239
1 240
1 241
1 242
1 243
1 244
1 245
1 246
1 247
1 248
1 249
1 250
1 251
1 252
1 253
1 254
1 255
1 256
1 257
1 258
1 259
1 260
1 261
1 262
1 263
1 264
1 265
1 266
1 267
1 268
1 269
1 270
1 271
1 272
1 273
1 274
1 275
1 276
1 277
1 278
1 279
1 280
1 281
1 282
1 283
1 284
1 285
1 286
1 287
1 288
1 289
1 290
1 291
1 292
1 293
1 294
1 295
1 296
1 297
1 298
1 299
1 300
1 301
1 302
1 303
1 304
1 305
1 306
1 307
1 308
1 309
1 310
1 311
1 312
1 313
1 314
1 315
1 316
1 317
1 318
1 319
1 320
1 321
1 322
1 323
1 324
1 325
1 326
1 327
1 328
1 329
1 330
1 331
1 332
1 333
1 334
1 335
1 336
1 337
1 338
1 339
1 340
1 341
1 342
1 343
1 344
1 345
1 346
1 347
1 348
1 349
1 350
1 351
1 352
1 353
1 354
1 355
1 356
1 357
1 358
1 359
1 360
1 361
1 362
1 363
1 364
1 365
1 366
1 367
1 368
1 369
1 370
1 371
1 372
1 373
1 374
1 375
1 376
1 377
1 378
1 379
1 380
1 381
1 382
1 383
1 384
1 385
1 386
1 387
1 388
1 389
1 390
1 391
1 392
1 393
1 394
1 395
1 396
1 397
1 398
1 399
1 400
1 401
1 402
1 403
1 404
1 405
1 406
1 407
1 408
1 409
1 410
1 411
1 412
1 413
1 414
1 415
1 416
1 417
1 418
1 419
1 420
1 421
1 422
1 423
1 424
1 425
1 426
1 427
1 428
1 429
1 430
1 431
1 432
1 433
1 434
1 435
1 436
1 437
1 438
1 439
1 440
1 441
1 442
1 443
1 444
1 445
1 446
1 447
1 448
1 449
1 450
1 451
1 452
1 453
1 454
1 455
1 456
1 457
1 458
1 459
1 460
1 461
1 462
1 463
1 464
1 465
1 466
1 467
1 468
1 469
1 470
1 471
1 472
1 473
1 474
1 475
1 476
1 477
1 478
1 479
1 480
1 481
1 482
1 483
1 484
1 485
1 486
1 487
1 488
1 489
1 490
1 491
1 492
1 493
1 494
1 495
1 496
1 497
1 498
1 499
1 500
1 501
1 502
1 503
1 504
1 505
1 506
1 507
1 508
1 509
1 510
1 511
1 512
1 513
1 514
1 515
1 516
1 517
1 518
1 519
1 520
1 521
1 522
1 523
1 524
1 525
1 526
1 527
1 528
1 529
1 530
1 531
1 532
1 533
1 534
1 535
1 536
1 537
1 538
1 539
1 540
1 541
1 542
1 543
1 544
1 545
1 546
1 547
1 548
1 549
1 550
1 551
1 552
1 553
1 554
1 555
1 556
1 557
1 558
1 559
1 560
1 561
1 562
1 563
1 564
1 565
1 566
1 567
1 568
1 569
1 570
1 571
1 572
1 573
1 574
1 575
1 576
1 577
1 578
1 579
1 580
1 581
1 582
1 583
1 584
1 585
1 586
1 587
1 588
1 589
1 590
1 591
1 592
1 593
1 594
1 595
1 596
1 597
1 598
1 599
1 600
1 601
1 602
1 603
1 604
1 605
1 606
1 607
1 608
1 609
1 610
1 611
1 612
1 613
1 614
1 615
1 616
1 617
1 618
1 619
1 620
1 621
1 622
1 623
1 624
1 625
1 626
1 627
1 628
1 629
1 630
1 631
1 632
1 633
1 634
1 635
1 636
1 637
1 638
1 639
1 640
1 641
1 642
1 643
1 644
1 645
1 646
1 647
1 648
1 649
1 650
1 651
1 652
1 653
1 654
1 655
1 656
1 657
1 658
1 659
1 660
1 661
1 662
1 663
1 664
1 665
1 666
1 667
1 668
1 669
1 670
1 671
1 672
1 673
1 674
1 675
1 676
1 677
1 678
1 679
1 680
POINT_DATA 681
SCALARS is_boundary int 1
LOOKUP_TABLE default
0
0
0
0
0
0
0
0
0
0
0
0
0
0
0
0
0
0
0
0
0
0
0
0
0
0
0
0
0
0
0
0
0
0
0
0
0
0
0
0
0
0
0
0
0
0
0
0
0
0
0
0
0
0
0
0
0
0
0
0
0
0
0
0
0
0
0
0
0
0
0
0
0
0
0
0
0
0
0
0
0
0
0
0
0
0
0
0
0
0
0
0
0
0
0
0
0
0
0
0
0
0
0
0
0
0
0
0
0
0
0
0
0
0
0
0
0
0
0
0
0
0
0
0
0
0
0
0
0
0
0
0
0
0
0
0
0
0
0
0
0
0
0
0
0
0
0
0
0
0
0
0
0
0
0
0
0
0
0
0
0
0
0
0
0
0
0
0
0
0
0
0
0
0
0
0
0
0
0
0
0
0
0
0
0
0
0
0
0
0
0
0
0
0
0
0
0
0
0
0
0
0
0
0
0
0
0
0
0
0
0
0
0
0
0
0
0
0
0
0
0
0
0
0
0
0
0
0
0
0
0
0
0
0
0
0
0
0
0
0
0
0
0
0
0
0
0
0
0
0
0
0
0
0
0
0
0
0
0
0
0
0
0
0
0
0
0
0
0
0
0
0
0
0
0
0
0
0
0
0
0
0
0
0
0
0
0
0
0
0
0
0
0
0
0
0
0
0
0
0
0
0
0
0
0
0
0
0
0
0
0
0
0
0
0
0
0
0
0
0
0
0
0
0
0
0
0
0
0
0
0
0
0
0
0
0
0
0
0
0
0
0
0
0
0
0
0
0
0
0
0
0
0
0
0
0
0
0
0
0
0
0
0
0
0
0
0
0
0
0
0
0
0
0
0
1
1
1
1
1
1
1
1
1
1
1
1
1
1
1
1
1
1
1
1
1
1
1
1
1
1
1
1
1
1
1
1
1
1
1
1
1
1
1
1
1
1
1
1
1
1
1
1
1
1
1
1
1
1
1
1
1
1
1
1
1
1
1
1
1
1
1
1
1
1
1
1
1
1
1
1
1
1
1
1
1
1
1
1
1
1
1
1
1
1
1
1
1
1
1
1
1
1
1
1
1
1
1
1
1
1
1
1
1
1
1
1
1
1
1
1
1
1
1
1
1
1
1
1
1
1
1
1
1
1
1
1
1
1
1
1
1
1
1
1
1
1
1
1
1
1
1
1
1
1
1
1
1
1
1
1
1
1
1
1
1
1
1
1
1
1
1
1
1
1
1
1
1
1
1
1
1
1
1
1
1
1
1
1
1
1
1
1
1
1
1
1
1
1
1
1
1
1
1
1
1
1
1
1
1
1
1
1
1
1
1
1
1
1
1
1
1
1
1
1
1
1
1
1
1
1
1
1
1
1
1
1
1
1
1
1
1
1
1
1
1
1
1
1
1
1
1
1
1
1
1
1
1
1
1
1
1
1
1
1
1
1
1
1
1
1
1
1
1
1
1
1
1
1
1
1
1
1
1
1
1
1
1
1
1
1
1
1
1
1
1
1
1
1
1
1
1
1
1
1
1
1
1
1
1
1
SCALARS rho float 1
LOOKUP_TABLE default
1020
1020
1020
1020
1020
1020
1020
1020
1020
1020
1020
1020
1020
1020
1020
1020
1020
1020
1020
1020
1020
1020
1020
1020
1020
1020
1020
1020
1020
1020
1020
1020
1020
1020
1020
1020
1020
1020
1020
1020
1020
1020
1020
1020
1020
1020
1020
1020
1020
1020
1020
1020
1020
1020
1020
1020
1020
1020
1020
1020
1020
1020
1020
1020
1020
1020
1020
1020
1020
1020
1020
1020
1020
1020
1020
1020
1020
1020
1020
1020
1020
1020
1020
1020
1020
1020
1020
1020
1020
1020
1020
1020
1020
1020
1020
1020
1020
1020
1020
1020
1020
1020
1020
1020
1020
1020
1020
1020
1020
1020
1020
1020
1020
1020
1020
1020
1020
1020
1020
1020
1020
1020
1020
1020
1020
1020
1020
1020
1020
1020
1020
1020
1020
1020
1020
1020
1020
1020
1020
1020
1020
1020
1020
1020
1020
1020
1020
1020
1020
1020
1020
1020
1020
1020
1020
1020
1020
1020
1020
1020
1020
1020
1020
1020
1020
1020
1020
1020
1020
1020
1020
1020
1020
1020
1020
1020
1020
1020
1020
1020
1020
1020
1020
1020
1020
1020
1020
1020
1020
1020
1020
1020
1020
1020
1020
1020
1020
1020
1020
1020
1020
1020
1020
1020
1020
1020
1020
1020
1020
1020
1020
1020
1020
1020
1020
1020
1020
1020
1020
1020
1020
1020
1020
1020
1020
1020
1020
1020
1020
1020
1020
1020
1020
1020
1020
1020
1020
1020
1020
1020
1020
1020
1020
1020
1020
1020
1020
1020
1020
1020
1020
1020
1020
1020
1020
1020
1020
1020
1020
1020
1020
1020
1020
1020
1020
1020
1020
1020
1020
1020
1020
1020
1020
1020
1020
1020
1020
1020
1020
1020
1020
1020
1020
1020
1020
1020
1020
1020
1020
1020
1020
1020
1020
1020
1020
1020
1020
1020
1020
1020
1020
1020
1020
1020
1020
1020
1020
1020
1020
1020
1020
1020
1020
1020
1020
1020
1020
1020
1020
1020
1020
1020
1020
1020
1020
1020
1020
1020
1020
1020
1020
1020
1020
1020
1020
1020
1020
1020
1020
1020
1020
1020
1020
1020
1020
1020
1020
1020
1020
1020
1020
1020
1020
1020
1020
1020
1020
1020
1020
1020
1020
1020
1020
1020
1020
1020
1020
1020
1020
1020
1020
1020
1020
1020
1020
1000
1000
1000
1000
1000
1000
1000
1000
1000
1000
1000
1000
1000
1000
1000
1000
1000
1000
1000
1000
1000
1000
1000
1000
1000
1000
1000
1000
1000
1000
1000
1000
1000
1000
1000
1000
1000
1000
1000
1000
1000
1000
1000
1000
1000
1000
1000
1000
1000
1000
1000
1000
1000
1000
1000
1000
1000
1000
1000
1000
1000
1000
1000
1000
1000
1000
1000
1000
1000
1000
1000
1000
1000
1000
1000
1000
1000
1000
1000
1000
1000
1000
1000
1000
1000
1000
1000
1000
1000
1000
1000
1000
1000
1000
1000
1000
1000
1000
1000
1000
1000
1000
1000
1000
1000
1000
1000
1000
1000
1000
1000
1000
1000
1000
1000
1000
1000
1000
1000
1000
1000
1000
1000
1000
1000
1000
1000
1000
1000
1000
1000
1000
1000
1000
1000
1000
1000
1000
1000
1000
1000
1000
1000
1000
1000
1000
1000
1000
1000
1000
1000
1000
1000
1000
1000
1000
1000
1000
1000
1000
1000
1000
1000
1000
1000
1000
1000
1000
1000
1000
1000
1000
1000
1000
1000
1000
1000
1000
1000
1000
1000
1000
1000
1000
1000
1000
1000
1000
1000
1000
1000
1000
1000
1000
1000
1000
1000
1000
1000
1000
1000
1000
1000
1000
1000
1000
1000
1000
1000
1000
1000
1000
1000
1000
1000
1000
1000
1000
1000
1000
1000
1000
1000
1000
1000
1000
1000
1000
1000
1000
1000
1000
1000
1000
1000
1000
1000
1000
1000
1000
1000
1000
1000
1000
1000
1000
1000
1000
1000
1000
1000
1000
1000
1000
1000
1000
1000
1000
1000
1000
1000
1000
1000
1000
1000
1000
1000
1000
1000
1000
1000
1000
1000
1000
1000
1000
1000
1000
1000
1000
1000
1000
1000
1000
1000
1000
1000
1000
1000
1000
1000
1000
1000
1000
1000
1000
1000
1000
1000
1000
1000
1000
1000
1000
1000
1000
SCALARS p float 1
LOOKUP_TABLE default
25004.681136676067
25004.681136676067
25004.681136676067
25004.681136676067
25004.681136676067
25004.681136676067
25004.681136676067
25004.681136676067
25004.681136676067
25004.681136676067
25004.681136676067
25004.681136676067
25004.681136676067
25004.681136676067
25004.681136676067
25004.681136676067
25004.681136676067
25004.681136676067
25004.681136676067
25004.681136676067
25004.681136676067
25004.681136676067
25004.681136676067
25004.681136676067
25004.681136676067
25004.681136676067
25004.681136676067
25004.681136676067
25004.681136676067
25004.681136676067
25004.681136676067
25004.681136676067
25004.681136676067
25004.681136676067
25004.681136676067
25004.681136676067
25004.681136676067
25004.681136676067
25004.681136676067
25004.681136676067
25004.681136676067
25004.681136676067
25004.681136676067
25004.681136676067
25004.681136676067
25004.681136676067
25004.681136676067
25004.681136676067
25004.681136676067
25004.681136676067
25004.681136676067
25004.681136676067
25004.681136676067
25004.681136676067
25004.681136676067
25004.681136676067
25004.681136676067
25004.681136676067
25004.681136676067
25004.681136676067
25004.681136676067
25004.681136676067
25004.681136676067
25004.681136676067
25004.681136676067
25004.681136676067
25004.681136676067
25004.681136676067
25004.681136676067
25004.681136676067
25004.681136676067
25004.681136676067
25004.681136676067
25004.681136676067
25004.681136676067
25004.681136676067
25004.681136676067
25004.681136676067
25004.681136676067
25004.681136676067
25004.681136676067
25004.681136676067
25004.681136676067
25004.681136676067
25004.681136676067
25004.681136676067
25004.681136676067
25004.681136676067
25004.681136676067
25004.681136676067
25004.681136676067
25004.681136676067
25004.681136676067
25004.681136676067
25004.681136676067
25004.681136676067
25004.681136676067
25004.681136676067
25004.681136676067
25004.681136676067
25004.681136676067
25004.681136676067
25004.681136676067
25004.681136676067
25004.681136676067
25004.681136676067
25004.681136676067
25004.681136676067
25004.681136676067
25004.681136676067
25004.681136676067
25004.681136676067
25004.681136676067
25004.681136676067
25004.681136676067
25004.681136676067
25004.681136676067
25004.681136676067
25004.681136676067
25004.681136676067
25004.681136676067
25004.681136676067
25004.681136676067
25004.681136676067
25004.681136676067
25004.681136676067
25004.681136676067
25004.681136676067
25004.681136676067
25004.681136676067
25004.681136676067
25004.681136676067
25004.681136676067
25004.681136676067
25004.681136676067
25004.681136676067
25004.681136676067
25004.681136676067
25004.681136676067
25004.681136676067
25004.681136676067
25004.681136676067
25004.681136676067
25004.681136676067
25004.681136676067
25004.681136676067
25004.681136676067
25004.681136676067
25004.681136676067
25004.681136676067
25004.681136676067
25004.681136676067
25004.681136676067
25004.681136676067
25004.681136676067
25004.681136676067
25004.681136676067
25004.681136676067
25004.681136676067
25004.681136676067
25004.681136676067
25004.681136676067
25004.681136676067
25004.681136676067
25004.681136676067
25004.681136676067
25004.681136676067
25004.681136676067
25004.681136676067
25004.681136676067
25004.681136676067
25004.681136676067
25004.681136676067
25004.681136676067
25004.681136676067
25004.681136676067
25004.681136676067
25004.681136676067
25004.681136676067
25004.681136676067
25004.681136676067
25004.681136676067
25004.681136676067
25004.681136676067
25004.681136676067
25004.681136676067
25004.681136676067
25004.681136676067
25004.681136676067
25004.681136676067
25004.681136676067
25004.681136676067
25004.681136676067
25004.681136676067
25004.681136676067
25004.681136676067
25004.681136676067
25004.681136676067
25004.681136676067
25004.681136676067
25004.681136676067
25004.681136676067
25004.681136676067
25004.681136676067
25004.681136676067
25004.681136676067
25004.681136676067
25004.681136676067
25004.681136676067
25004.681136676067
25004.681136676067
25004.681136676067
25004.681136676067
25004.681136676067
25004.681136676067
25004.681136676067
25004.681136676067
25004.681136676067
25004.681136676067
25004.681136676067
25004.681136676067
25004.681136676067
25004.681136676067
25004.681136676067
25004.681136676067
25004.681136676067
25004.681136676067
25004.681136676067
25004.681136676067
25004.681136676067
25004.681136676067
25004.681136676067
25004.681136676067
25004.681136676067
25004.681136676067
25004.681136676067
25004.681136676067
25004.681136676067
25004.681136676067
25004.681136676067
25004.681136676067
25004.681136676067
25004.681136676067
25004.681136676067
25004.681136676067
25004.681136676067
25004.681136676067
25004.681136676067
25004.681136676067
25004.681136676067
25004.681136676067
25004.681136676067
25004.681136676067
25004.681136676067
25004.681136676067
25004.681136676067
25004.681136676067
25004.681136676067
25004.681136676067
25004.681136676067
25004.681136676067
25004.681136676067
25004.681136676067
25004.681136676067
25004.681136676067
25004.681136676067
25004.681136676067
25004.681136676067
25004.681136676067
25004.681136676067
25004.681136676067
25004.681136676067
25004.681136676067
25004.681136676067
25004.681136676067
25004.681136676067
25004.681136676067
25004.681136676067
25004.681136676067
25004.681136676067
25004.681136676067
25004.681136676067
25004.681136676067
25004.681136676067
25004.681136676067
25004.681136676067
25004.681136676067
25004.681136676067
25004.681136676067
25004.681136676067
25004.681136676067
25004.681136676067
25004.681136676067
25004.681136676067
25004.681136676067
25004.681136676067
25004.681136676067
25004.681136676067
25004.681136676067
25004.681136676067
25004.681136676067
25004.681136676067
25004.681136676067
25004.681136676067
25004.681136676067
25004.681136676067
25004.681136676067
25004.681136676067
25004.681136676067
25004.681136676067
25004.681136676067
25004.681136676067
25004.681136676067
25004.681136676067
25004.681136676067
25004.681136676067
25004.681136676067
25004.681136676067
25004.681136676067
25004.681136676067
25004.681136676067
25004.681136676067
25004.681136676067
25004.681136676067
25004.681136676067
25004.681136676067
25004.681136676067
25004.681136676067
25004.681136676067
25004.681136676067
25004.681136676067
25004.681136676067
25004.681136676067
25004.681136676067
25004.681136676067
25004.681136676067
25004.681136676067
25004.681136676067
25004.681136676067
25004.681136676067
25004.681136676067
25004.681136676067
25004.681136676067
25004.681136676067
25004.681136676067
25004.681136676067
25004.681136676067
25004.681136676067
25004.681136676067
25004.681136676067
25004.681136676067
25004.681136676067
25004.681136676067
25004.681136676067
25004.681136676067
25004.681136676067
25004.681136676067
25004.681136676067
25004.681136676067
25004.681136676067
25004.681136676067
25004.681136676067
25004.681136676067
25004.681136676067
25004.681136676067
25004.681136676067
25004.681136676067
25004.681136676067
25004.681136676067
25004.681136676067
25004.681136676067
25004.681136676067
25004.681136676067
25004.681136676067
25004.681136676067
0
0
0
0
0
0
23319.975172933639
24979.922366648345
24991.303709302909
0
0
0
24994.711023151642
25003.865890132343
25004.208556935329
0
0
0
25000.045617463737
25004.267440920612
25004.436669606461
0
0
0
25000.395646414188
25004.275146031061
25004.436633798035
0
0
0
25000.412339869454
25004.274732626403
25004.435810203828
0
0
0
25000.404838585247
25004.274341699122
25004.435680225517
0
0
0
25000.400394875083
25004.274151535294
25004.43565343093
0
0
0
25000.398621046428
25004.274073787368
25004.435645979574
0
0
0
25000.398140559413
25004.274050454569
25004.435644593119
0
0
0
25000.398186184822
25004.27405243539
25004.435646576552
0
0
0
25000.398881118508
25004.274083304274
25004.435648520554
0
0
0
25000.400833558109
25004.274167457657
25004.435658590304
0
0
0
25000.405305709959
25004.27435745722
25004.435687048081
0
0
0
25000.412690361052
25004.274742190733
25004.435811760148
0
0
0
25000.395738000519
25004.275144948679
25004.436631319753
0
0
0
25000.045612275277
25004.267440603246
25004.436672584899
0
0
0
24994.71053640846
25003.865851244322
25004.208538664177
0
0
0
23319.576399143345
24979.919058752741
24991.301157473939
0
0
0
0
0
0
0
0
0
0
0
0
0
0
0
0
0
0
0
0
0
0
0
0
0
0
0
0
0
0
0
0
0
0
0
0
0
0
0
0
0
0
0
0
0
0
0
0
0
0
0
0
0
0
0
0
0
0
0
0
0
0
0
0
0
0
0
0
0
0
0
0
0
0
0
0
0
0
0
0
0
0
0
0
0
0
0
0
0
0
0
0
0
0
0
0
0
0
0
0
0
0
0
0
0
0
0
0
0
0
0
0
0
0
0
0
0
0
0
0
0
0
0
0
0
0
0
0
0
0
0
0
0
0
0
0
0
0
0
0
0
0
0
0
0
0
0
0
0
0
0
0
0
0
0
0
0
0
0
0
0
0
0
0
0
0
0
0
0
0
0
0
0
0
0
0
0
0
0
0
0
0
0
0
0
0
0
0
0
0
0
0
0
0
0
SCALARS m float 1
LOOKUP_TABLE default
0.39965556373580352
0.39965556373580352
0.39965556373580352
0.39965556373580352
0.39965556373580352
0.39965556373580352
0.39965556373580352
0.39965556373580352
0.39965556373580352
0.39965556373580352
0.39965556373580352
0.39965556373580352
0.39965556373580352
0.39965556373580352
0.39965556373580352
0.39965556373580352
0.39965556373580352
0.39965556373580352
0.39965556373580352
0.39965556373580352
0.39965556373580352
0.39965556373580352
0.39965556373580352
0.39965556373580352
0.39965556373580352
0.39965556373580352
0.39965556373580352
0.39965556373580352
0.39965556373580352
0.39965556373580352
0.39965556373580352
0.39965556373580352
0.39965556373580352
0.39965556373580352
0.39965556373580352
0.39965556373580352
0.39965556373580352
0.39965556373580352
0.39965556373580352
0.39965556373580352
0.39965556373580352
0.39965556373580352
0.39965556373580352
0.39965556373580352
0.39965556373580352
0.39965556373580352
0.39965556373580352
0.39965556373580352
0.39965556373580352
0.39965556373580352
0.39965556373580352
0.39965556373580352
0.39965556373580352
0.39965556373580352
0.39965556373580352
0.39965556373580352
0.39965556373580352
0.39965556373580352
0.39965556373580352
0.39965556373580352
0.39965556373580352
0.39965556373580352
0.39965556373580352
0.39965556373580352
0.39965556373580352
0.39965556373580352
0.39965556373580352
0.39965556373580352
0.39965556373580352
0.39965556373580352
0.39965556373580352
0.39965556373580352
0.39965556373580352
0.39965556373580352
0.39965556373580352
0.39965556373580352
0.39965556373580352
0.39965556373580352
0.39965556373580352
0.39965556373580352
0.39965556373580352
0.39965556373580352
0.39965556373580352
0.39965556373580352
0.39965556373580352
0.39965556373580352
0.39965556373580352
0.39965556373580352
0.39965556373580352
0.39965556373580352
0.39965556373580352
0.39965556373580352
0.39965556373580352
0.39965556373580352
0.39965556373580352
0.39965556373580352
0.39965556373580352
0.39965556373580352
0.39965556373580352
0.39965556373580352
0.39965556373580352
0.39965556373580352
0.39965556373580352
0.39965556373580352
0.39965556373580352
0.39965556373580352
0.39965556373580352
0.39965556373580352
0.39965556373580352
0.39965556373580352
0.39965556373580352
0.39965556373580352
0.39965556373580352
0.39965556373580352
0.39965556373580352
0.39965556373580352
0.39965556373580352
0.39965556373580352
0.39965556373580352
0.39965556373580352
0.39965556373580352
0.39965556373580352
0.39965556373580352
0.39965556373580352
0.39965556373580352
0.39965556373580352
0.39965556373580352
0.39965556373580352
0.39965556373580352
0.39965556373580352
0.39965556373580352
0.39965556373580352
0.39965556373580352
0.39965556373580352
0.39965556373580352
0.39965556373580352
0.39965556373580352
0.39965556373580352
0.39965556373580352
0.39965556373580352
0.39965556373580352
0.39965556373580352
0.39965556373580352
0.39965556373580352
0.39965556373580352
0.39965556373580352
0.39965556373580352
0.39965556373580352
0.39965556373580352
0.39965556373580352
0.39965556373580352
0.39965556373580352
0.39965556373580352
0.39965556373580352
0.39965556373580352
0.39965556373580352
0.39965556373580352
0.39965556373580352
0.39965556373580352
0.39965556373580352
0.39965556373580352
0.39965556373580352
0.39965556373580352
0.39965556373580352
0.39965556373580352
0.39965556373580352
0.39965556373580352
0.39965556373580352
0.39965556373580352
0.39965556373580352
0.39965556373580352
0.39965556373580352
0.39965556373580352
0.39965556373580352
0.39965556373580352
0.39965556373580352
0.39965556373580352
0.39965556373580352
0.39965556373580352
0.39965556373580352
0.39965556373580352
0.39965556373580352
0.39965556373580352
0.39965556373580352
0.39965556373580352
0.39965556373580352
0.39965556373580352
0.39965556373580352
0.39965556373580352
0.39965556373580352
0.39965556373580352
0.39965556373580352
0.39965556373580352
0.39965556373580352
0.39965556373580352
0.39965556373580352
0.39965556373580352
0.39965556373580352
0.39965556373580352
0.39965556373580352
0.39965556373580352
0.39965556373580352
0.39965556373580352
0.39965556373580352
0.39965556373580352
0.39965556373580352
0.39965556373580352
0.39965556373580352
0.39965556373580352
0.39965556373580352
0.39965556373580352
0.39965556373580352
0.39965556373580352
0.39965556373580352
0.39965556373580352
0.39965556373580352
0.39965556373580352
0.39965556373580352
0.39965556373580352
0.39965556373580352
0.39965556373580352
0.39965556373580352
0.39965556373580352
0.39965556373580352
0.39965556373580352
0.39965556373580352
0.39965556373580352
0.39965556373580352
0.39965556373580352
0.39965556373580352
0.39965556373580352
0.39965556373580352
0.39965556373580352
0.39965556373580352
0.39965556373580352
0.39965556373580352
0.39965556373580352
0.39965556373580352
0.39965556373580352
0.39965556373580352
0.39965556373580352
0.39965556373580352
0.39965556373580352
0.39965556373580352
0.39965556373580352
0.39965556373580352
0.39965556373580352
0.39965556373580352
0.39965556373580352
0.39965556373580352
0.39965556373580352
0.39965556373580352
0.39965556373580352
0.39965556373580352
0.39965556373580352
0.39965556373580352
0.39965556373580352
0.39965556373580352
0.39965556373580352
0.39965556373580352
0.39965556373580352
0.39965556373580352
0.39965556373580352
0.39965556373580352
0.39965556373580352
0.39965556373580352
0.39965556373580352
0.39965556373580352
0.39965556373580352
0.39965556373580352
0.39965556373580352
0.39965556373580352
0.39965556373580352
0.39965556373580352
0.39965556373580352
0.39965556373580352
0.39965556373580352
0.39965556373580352
0.39965556373580352
0.39965556373580352
0.39965556373580352
0.39965556373580352
0.39965556373580352
0.39965556373580352
0.39965556373580352
0.39965556373580352
0.39965556373580352
0.39965556373580352
0.39965556373580352
0.39965556373580352
0.39965556373580352
0.39965556373580352
0.39965556373580352
0.39965556373580352
0.39965556373580352
0.39965556373580352
0.39965556373580352
0.39965556373580352
0.39965556373580352
0.39965556373580352
0.39965556373580352
0.39965556373580352
0.39965556373580352
0.39965556373580352
0.39965556373580352
0.39965556373580352
0.39965556373580352
0.39965556373580352
0.39965556373580352
0.39965556373580352
0.39965556373580352
0.39965556373580352
0.39965556373580352
0.39965556373580352
0.39965556373580352
0.39965556373580352
0.39965556373580352
0.39965556373580352
0.39965556373580352
0.39965556373580352
0.39965556373580352
0.39965556373580352
0.39965556373580352
0.39965556373580352
0.39965556373580352
0.39965556373580352
0.39965556373580352
0.39965556373580352
0.39965556373580352
0.39965556373580352
0.39965556373580352
0.39965556373580352
0.39965556373580352
0.39965556373580352
0.39965556373580352
0.39965556373580352
0.39965556373580352
0.39965556373580352
0.39965556373580352
0.39965556373580352
0.39965556373580352
0.39965556373580352
0.39965556373580352
0.39965556373580352
0.39965556373580352
0.39965556373580352
0.39965556373580352
0.39965556373580352
0.39965556373580352
0.39965556373580352
0.39965556373580352
0.39965556373580352
0.39965556373580352
0.39965556373580352
0.39965556373580352
0.39965556373580352
0.39965556373580352
0.39965556373580352
0.39965556373580352
0.39965556373580352
0.39965556373580352
0.39965556373580352
0.39965556373580352
0.39965556373580352
0.39965556373580352
0.39965556373580352
0.39965556373580352
0.39965556373580352
0.39965556373580352
0.39965556373580352
0.39965556373580352
0.39965556373580352
0.39965556373580352
0.39965556373580352
0.39965556373580352
0.39965556373580352
0.39965556373580352
0.39965556373580352
0.39965556373580352
0.39965556373580352
0.39965556373580352
0.39965556373580352
0.39965556373580352
0.39965556373580352
0.39965556373580352
0.39965556373580352
0.39965556373580352
0.39965556373580352
0.39965556373580352
0.39965556373580352
0.39965556373580352
0.39965556373580352
0.39965556373580352
0.39965556373580352
0.39965556373580352
0.39965556373580352
0.39965556373580352
0.39965556373580352
0.39965556373580352
0.39965556373580352
0.39965556373580352
0.39965556373580352
0.39965556373580352
0.39965556373580352
0.39965556373580352
0.39965556373580352
0.39965556373580352
0.39965556373580352
0.39965556373580352
0.39965556373580352
0.39965556373580352
0.39965556373580352
0.39965556373580352
0.39965556373580352
0.39965556373580352
0.39965556373580352
0.39965556373580352
0.39965556373580352
0.39965556373580352
0.39965556373580352
0.39965556373580352
0.39965556373580352
0.39965556373580352
0.39965556373580352
0.39965556373580352
0.39965556373580352
0.39965556373580352
0.39965556373580352
0.39965556373580352
0.39965556373580352
0.39965556373580352
0.39965556373580352
0.39965556373580352
0.39965556373580352
0.39965556373580352
0.39965556373580352
0.39965556373580352
0.39965556373580352
0.39965556373580352
0.39965556373580352
0.39965556373580352
0.39965556373580352
0.39965556373580352
0.39965556373580352
0.39965556373580352
0.39965556373580352
0.39965556373580352
0.39965556373580352
0.39965556373580352
0.39965556373580352
0.39965556373580352
0.39965556373580352
0.39965556373580352
0.39965556373580352
0.39965556373580352
0.39965556373580352
0.39965556373580352
0.39965556373580352
0.39965556373580352
0.39965556373580352
0.39965556373580352
0.39965556373580352
0.39965556373580352
0.39965556373580352
0.39965556373580352
0.39965556373580352
0.39965556373580352
0.39965556373580352
0.39965556373580352
0.39965556373580352
0.39965556373580352
0.39965556373580352
0.39965556373580352
0.39965556373580352
0.39965556373580352
0.39965556373580352
0.39965556373580352
0.39965556373580352
0.39965556373580352
0.39965556373580352
0.39965556373580352
0.39965556373580352
0.39965556373580352
0.39965556373580352
0.39965556373580352
0.39965556373580352
0.39965556373580352
0.39965556373580352
0.39965556373580352
0.39965556373580352
0.39965556373580352
0.39965556373580352
0.39965556373580352
0.39965556373580352
0.39965556373580352
0.39965556373580352
0.39965556373580352
0.39965556373580352
0.39965556373580352
0.39965556373580352
0.39965556373580352
0.39965556373580352
0.39965556373580352
0.39965556373580352
0.39965556373580352
0.39965556373580352
0.39965556373580352
0.39965556373580352
0.39965556373580352
0.39965556373580352
0.39965556373580352
0.39965556373580352
0.39965556373580352
0.39965556373580352
0.39965556373580352
0.39965556373580352
0.39965556373580352
0.39965556373580352
0.39965556373580352
0.39965556373580352
0.39965556373580352
0.39965556373580352
0.39965556373580352
0.39965556373580352
0.39965556373580352
0.39965556373580352
0.39965556373580352
0.39965556373580352
0.39965556373580352
0.39965556373580352
0.39965556373580352
0.39965556373580352
0.39965556373580352
0.39965556373580352
0.39965556373580352
0.39965556373580352
0.39965556373580352
0.39965556373580352
0.39965556373580352
0.39965556373580352
0.39965556373580352
0.39965556373580352
0.39965556373580352
0.39965556373580352
0.39965556373580352
0.39965556373580352
0.39965556373580352
0.39965556373580352
0.39965556373580352
0.39965556373580352
0.39965556373580352
0.39965556373580352
0.39965556373580352
0.39965556373580352
0.39965556373580352
0.39965556373580352
0.39965556373580352
0.39965556373580352
0.39965556373580352
0.39965556373580352
0.39965556373580352
0.39965556373580352
0.39965556373580352
0.39965556373580352
0.39965556373580352
0.39965556373580352
0.39965556373580352
0.39965556373580352
0.39965556373580352
0.39965556373580352
0.39965556373580352
0.39965556373580352
0.39965556373580352
0.39965556373580352
0.39965556373580352
0.39965556373580352
0.39965556373580352
0.39965556373580352
0.39965556373580352
0.39965556373580352
0.39965556373580352
0.39965556373580352
0.39965556373580352
0.39965556373580352
0.39965556373580352
0.39965556373580352
0.39965556373580352
0.39965556373580352
0.39965556373580352
0.39965556373580352
0.39965556373580352
0.39965556373580352
0.39965556373580352
0.39965556373580352
0.39965556373580352
0.39965556373580352
0.39965556373580352
0.39965556373580352
0.39965556373580352
0.39965556373580352
0.39965556373580352
0.39965556373580352
0.39965556373580352
0.39965556373580352
0.39965556373580352
0.39965556373580352
0.39965556373580352
0.39965556373580352
0.39965556373580352
0.39965556373580352
0.39965556373580352
0.39965556373580352
0.39965556373580352
0.39965556373580352
0.39965556373580352
0.39965556373580352
0.39965556373580352
0.39965556373580352
0.39965556373580352
0.39965556373580352
0.39965556373580352
0.39965556373580352
0.39965556373580352
0.39965556373580352
0.39965556373580352
0.39965556373580352
0.39965556373580352
0.39965556373580352
0.39965556373580352
0.39965556373580352
0.39965556373580352
0.39965556373580352
0.39965556373580352
0.39965556373580352
0.39965556373580352
0.39965556373580352
0.39965556373580352
0.39965556373580352
0.39965556373580352
0.39965556373580352
0.39965556373580352
0.39965556373580352
0.39965556373580352
0.39965556373580352
0.39965556373580352
0.39965556373580352
0.39965556373580352
0.39965556373580352
0.39965556373580352
0.39965556373580352
0.39965556373580352
0.39965556373580352
0.39965556373580352
0.39965556373580352
0.39965556373580352
0.39965556373580352
0.39965556373580352
0.39965556373580352
0.39965556373580352
0.39965556373580352
0.39965556373580352
0.39965556373580352
0.39965556373580352
0.39965556373580352
0.39965556373580352
0.39965556373580352
0.39965556373580352
0.39965556373580352
0.39965556373580352
0.39965556373580352
0.39965556373580352
0.39965556373580352
0.39965556373580352
0.39965556373580352
0.39965556373580352
0.39965556373580352
0.39965556373580352
0.39965556373580352
0.39965556373580352
0.39965556373580352
0.39965556373580352
VECTORS v float
-2.1048586098130992e-05 -0.037773350946003606 0
-2.2186224698659226e-05 -0.038340152457169471 0
-2.3002704148428755e-05 -0.038780110818854456 0
-2.3746634101026101e-05 -0.0392178297763612 0
-2.4430878923156852e-05 -0.039668184889505201 0
-2.5071057234909799e-05 -0.040143595663766615 0
-2.5677933496531992e-05 -0.040652457631570396 0
-2.6256322786657284e-05 -0.041201704091099162 0
-2.6802965349336084e-05 -0.041798009416479806 0
-2.7309433529292488e-05 -0.042448104689951395 0
-2.7762808477847569e-05 -0.043159264615921872 0
-2.8156156896984462e-05 -0.043938831973122046 0
-2.8443147695809845e-05 -0.044797914751271165 0
-2.8782429203245725e-05 -0.045755062355597252 0
-2.9052606777828011e-05 -0.046829859453288568 0
-2.9316816344280699e-05 -0.048044278567119868 0
-2.9593600923885565e-05 -0.049426653150351323 0
-2.9891709468369201e-05 -0.051013180971733324 0
-3.0270404084672071e-05 -0.052851593432406502 0
-3.063557350038315e-05 -0.054994099322254728 0
-3.1066324894452748e-05 -0.057541049948240275 0
-3.1599878173472878e-05 -0.060637784571548829 0
-3.221261308599878e-05 -0.064521384695671424 0
-3.3052303357983124e-05 -0.069701162691654758 0
-3.4333849571798306e-05 -0.077907276686586868 0
-1.2501662021989772e-05 -0.037999130538260185 0
-1.3374705547997081e-05 -0.038614009647439627 0
-1.3996080115529531e-05 -0.039092150009332721 0
-1.4513254363416862e-05 -0.039552653341185066 0
-1.4923061687663562e-05 -0.040017010737949263 0
-1.5313804466484598e-05 -0.040502389019754871 0
-1.5614414191571577e-05 -0.041020065556062975 0
-1.5915127017675169e-05 -0.04157852791026715 0
-1.6215495728994516e-05 -0.042185468200181937 0
-1.6414342132661007e-05 -0.042848294637364892 0
-1.6592546958888794e-05 -0.043574326063971033 0
-1.7016049248775943e-05 -0.044371396180928335 0
-1.7244538475020825e-05 -0.04525124828057852 0
-1.7541271503875582e-05 -0.0462327529103361 0
-1.7814419759741847e-05 -0.047334979261617761 0
-1.8041405579406782e-05 -0.048580428810384844 0
-1.8325369074026232e-05 -0.049996895309571715 0
-1.8581285977180471e-05 -0.051620653785158219 0
-1.8837205525538618e-05 -0.053495926155060512 0
-1.9101548264705909e-05 -0.055680002231121163 0
-1.9356381864281707e-05 -0.058264336627298921 0
-1.9595029715680022e-05 -0.06138596506492533 0
-1.9875329860433485e-05 -0.06527570208221567 0
-2.013435315741471e-05 -0.070490005406393816 0
-2.043611723760241e-05 -0.078950667387496481 0
-5.0397674613892532e-06 -0.038079732673026674 0
-5.3973450471496669e-06 -0.038699471021803759 0
-5.6401520633308579e-06 -0.039182184229069189 0
-5.8295238386641307e-06 -0.039647545180445956 0
-6.0252020107190088e-06 -0.040117058229112643 0
-6.1735327777695981e-06 -0.04060846884583557 0
-6.287868626163429e-06 -0.041133125154484099 0
-6.4730776655297256e-06 -0.041699968012053973 0
-6.4864989545935277e-06 -0.042316757864060389 0
-6.6776523807958934e-06 -0.042991303973860806 0
-6.7668258763644491e-06 -0.043731398827116415 0
-6.9862924791323733e-06 -0.044545397428367765 0
-7.2091303001640452e-06 -0.045445264160436767 0
-7.2163755749656792e-06 -0.046451018930852836 0
-7.3111828101729663e-06 -0.047581933660508301 0
-7.5323670659701546e-06 -0.048861396293193179 0
-7.7264363221016623e-06 -0.050317905679561847 0
-7.9051557722795728e-06 -0.051987288248465907 0
-8.0900513581844294e-06 -0.053915212134304003 0
-8.282499752489352e-06 -0.056162101039639117 0
-8.5490687048320955e-06 -0.05881743478772123 0
-8.9016728864328507e-06 -0.062017696463375675 0
-9.1637260261574001e-06 -0.065991416742561121 0
-9.449947025027995e-06 -0.071297700130359548 0
-9.7690994064613517e-06 -0.079869493331137395 0
-1.8735832723304068e-06 -0.038123850476258478 0
-2.0041651210962723e-06 -0.038747988817199631 0
-2.1033206577401324e-06 -0.039234249229798353 0
-2.237383701695179e-06 -0.03970322974342326 0
-2.2954429431960789e-06 -0.040176598552838963 0
-2.367542953803631e-06 -0.040672144752257708 0
-2.4429600718752517e-06 -0.04120131271603307 0
-2.4847059637662538e-06 -0.041773215638721287 0
-2.5506946610171706e-06 -0.042395586552932109 0
-2.6485378587084143e-06 -0.043076257005628317 0
-2.6425530471325212e-06 -0.043823098131874558 0
-2.733166575394608e-06 -0.044644936942391848 0
-2.7456779435713152e-06 -0.045553663343326146 0
-2.8449606498036078e-06 -0.046569440287226947 0
-2.8579607700994008e-06 -0.047712001466655704 0
-2.9821410627925068e-06 -0.049004983001427027 0
-3.0693372973686826e-06 -0.050476778175964514 0
-3.1330584957711185e-06 -0.052163365634424919 0
-3.1931892004582499e-06 -0.054110776840133816 0
-3.2577386332144145e-06 -0.056379636010415415 0
-3.3702389276060874e-06 -0.059059648812464713 0
-3.5938536573965985e-06 -0.062287286222846905 0
-3.6893808337748636e-06 -0.066290046276719056 0
-3.8117282659774369e-06 -0.071628777802364166 0
-3.9645134078889305e-06 -0.080240758901828135 0
-5.6230457381957105e-07 -0.038148244023252544 0
-6.2517989029995572e-07 -0.038774945892740761 0
-6.4015421990881191e-07 -0.039263202572526947 0
-7.2334073490148868e-07 -0.039734079782852164 0
-7.213653129508444e-07 -0.040209416621319084 0
-6.8702365737326508e-07 -0.040707041077555524 0
-7.0801378225818587e-07 -0.041238311061902205 0
-8.0078622824080092e-07 -0.041812512490916318 0
-8.0967387840583409e-07 -0.042437278284509453 0
-7.5843232522844591e-07 -0.04312057594385281 0
-8.6512317903993135e-07 -0.043870370676709292 0
-8.6884254017185832e-07 -0.044695047666698962 0
-9.218417042912834e-07 -0.045606955592699422 0
-8.85106119750272e-07 -0.046626327854847292 0
-1.0142504582150575e-06 -0.047772873992265555 0
-1.0816715606259064e-06 -0.049070812115743594 0
-1.0980190323299555e-06 -0.050548999068049369 0
-1.1167002081563017e-06 -0.052241998997583312 0
-1.1745634879308487e-06 -0.054196309354323437 0
-1.1847182404022423e-06 -0.056471998043319788 0
-1.232119708197132e-06 -0.059160229873648704 0
-1.2894537206161554e-06 -0.062396603274877213 0
-1.3016814637547743e-06 -0.066409065966760147 0
-1.3803990645772622e-06 -0.071758609345474691 0
-1.5242053247535182e-06 -0.080384242976454981 0
-9.3712198868041696e-08 -0.038159785307612562 0
-8.4664652602993761e-08 -0.038787752476602523 0
-5.2926039204956386e-08 -0.03927698647408729 0
-9.3587405947096102e-08 -0.039748740229789629 0
-2.5911049502971107e-08 -0.04022505085593929 0
-2.2995715124976603e-08 -0.040723604578685846 0
-5.0183599983600648e-08 -0.041255883730387355 0
-9.0460522385612112e-08 -0.041831083021749468 0
-8.076314888585984e-08 -0.042456745867281216 0
-1.0952381310530143e-07 -0.043141310701938912 0
-8.9993390079774982e-08 -0.043892372029767431 0
-2.0080670272806742e-07 -0.044718175836531246 0
-1.3163267669297167e-07 -0.045631866451807557 0
-1.4681603056641113e-07 -0.046653083350570453 0
-2.8381913025649479e-07 -0.04780179488362675 0
-3.5039191081813991e-07 -0.049101463864122702 0
-3.9315933901143049e-07 -0.050580755422117374 0
-4.1706120775220257e-07 -0.052275377031136362 0
-4.3260347770275471e-07 -0.054231965786903806 0
-4.6769148433611571e-07 -0.056510975048805791 0
-5.1762021698523515e-07 -0.059202207291504723 0
-6.0954005114478616e-07 -0.062441890920274794 0
-6.5286756424455938e-07 -0.066457981291631621 0
-7.2156364771374041e-07 -0.071811653008789098 0
-8.7457852221741851e-07 -0.080441219390095284 0
-2.9198336590109226e-07 -0.03816447068880021 0
-3.186585282123694e-07 -0.038793012971059859 0
-3.7527491176415286e-07 -0.039282674882540038 0
-3.918865900567859e-07 -0.039754780138270863 0
-3.3769312517360825e-07 -0.0402314385551992 0
-3.2228640514909595e-07 -0.04073036799711241 0
-3.4907921809806219e-07 -0.041263006814461232 0
-3.8647636277508564e-07 -0.041838586827960267 0
-3.7589481352056501e-07 -0.042464846783128563 0
-3.4707943628599694e-07 -0.043149494709825188 0
-3.5792640172489286e-07 -0.043901171612857198 0
-9.1785160933923494e-07 -0.044727335277571632 0
-9.123780117969119e-07 -0.045641289426723256 0
-8.4254723193530585e-07 -0.046663378255924225 0
-8.9726492864691539e-07 -0.047812774113010617 0
-8.4285801525703539e-07 -0.049113561912761797 0
-7.7832068059785965e-07 -0.050593615365495483 0
-8.7829929900276018e-07 -0.052288388830660192 0
-8.4743135532614882e-07 -0.05424565079552951 0
-8.4183515837382051e-07 -0.056525813610706438 0
-8.2399617610609518e-07 -0.059218066475967612 0
-7.8585176018356961e-07 -0.062458929263583929 0
-7.8815319719057265e-07 -0.066476438902420984 0
-8.0796998854932809e-07 -0.071833404472064877 0
-7.8525097482427651e-07 -0.080462388287479286 0
-3.5592051992630978e-07 -0.038165945916629293 0
-3.8378365556062568e-07 -0.038794449829376458 0
-3.9521251749068129e-07 -0.039284121289360097 0
-3.5245045187769639e-07 -0.039756498122160623 0
-3.6635799834665194e-07 -0.040233308203929168 0
-3.9479995449467487e-07 -0.040732186492218991 0
-3.9510034746775788e-07 -0.041265105359793101 0
-5.8974579816394889e-07 -0.041840552517149555 0
-5.6684783690192958e-07 -0.042467102995996271 0
-6.789585054986625e-07 -0.043151653094339111 0
-5.8748524936946926e-07 -0.04390362758066927 0
-3.9770022615437503e-07 -0.044729926947097334 0
-4.3963474072663771e-07 -0.045644298370611597 0
-4.719903133964786e-07 -0.046666555976680027 0
-6.0225727319520769e-07 -0.047815769912622624 0
-5.9645705397632669e-07 -0.049116378561132497 0
-4.6011318061831823e-07 -0.050596133171716837 0
-4.620813604886653e-07 -0.052290920601389707 0
-4.5763389398349656e-07 -0.054248242180709831 0
-4.9105622341442375e-07 -0.056528428553045025 0
-4.9070685743564134e-07 -0.05922050627891523 0
-4.8797054370061399e-07 -0.062460354855053829 0
-4.2594209553065941e-07 -0.066475309232803065 0
-4.3691515935500298e-07 -0.071833370120585577 0
-3.5922785544992428e-07 -0.080464459271803748 0
-1.0945173777292754e-07 -0.038164687818222062 0
-1.3330939372318955e-07 -0.038793087965290754 0
-1.3125326534566777e-07 -0.039282578201617548 0
-1.7566308009911059e-07 -0.039754614699327985 0
-1.9675450357728145e-07 -0.0402313587731985 0
-2.2110044356786323e-07 -0.040730243556453535 0
-2.4494927728466242e-07 -0.041262857960230694 0
-1.8869210873511176e-07 -0.04183845700549637 0
-3.1119973674969952e-07 -0.042464635656104692 0
-3.4857575353784344e-07 -0.043149187669844637 0
-4.0404842252120496e-07 -0.04390049554570314 0
-3.0393449454839443e-07 -0.044726881088495256 0
-4.1502321770796484e-07 -0.045641325525875902 0
-3.3027335929638484e-07 -0.046663064518558547 0
-2.1470759159944796e-07 -0.047812274258283549 0
-3.7514706352947157e-07 -0.049112460280985933 0
-3.2798890672054003e-07 -0.050591736926194099 0
-3.6194983935069433e-07 -0.052286942884280298 0
-3.7974456755534051e-07 -0.05424402217657058 0
-3.5623694679706219e-07 -0.05652360251460993 0
-3.2409954580809801e-07 -0.059215079035417076 0
-2.7217421844618766e-07 -0.062454370439923135 0
-2.476984304918013e-07 -0.066468586111597353 0
-2.3115557614682051e-07 -0.071825740621956319 0
-1.9590328483859552e-07 -0.080456986916234499 0
4.2087484615999773e-07 -0.038159332181148801 0
4.0161212409191306e-07 -0.038787214646420813 0
4.7451657812143463e-07 -0.039276305646747195 0
5.0598920085773204e-07 -0.039747886719810353 0
5.3334005878264212e-07 -0.040224184139652917 0
5.5398598240261634e-07 -0.040722683587545404 0
5.2027803035770418e-07 -0.041255063528764215 0
5.5986952129730434e-07 -0.041830215864212567 0
5.7121311360251238e-07 -0.042455968345542883 0
5.7716545065197649e-07 -0.043140148865281183 0
5.9540358280743577e-07 -0.043890863709111924 0
6.0942400839941446e-07 -0.044716862747075078 0
6.1624896323435864e-07 -0.045630744256847745 0
6.352362214325816e-07 -0.046652045925863223 0
6.2274491082974474e-07 -0.047800456259722145 0
6.1658642209511644e-07 -0.04909986434813772 0
6.2060437055815216e-07 -0.050578302121648253 0
6.8058175580611849e-07 -0.052272853607398452 0
6.2461419925734149e-07 -0.054229019460580577 0
6.2194900406479995e-07 -0.056507534493300475 0
6.4338515714614357e-07 -0.059198058103006226 0
6.2092887202490539e-07 -0.062436887833748178 0
5.7949360128381427e-07 -0.066453128465702532 0
5.5737839742011187e-07 -0.071805720505637244 0
5.2872788015875201e-07 -0.080435342451162739 0
5.228624344240933e-07 -0.038146920786313078 0
5.4054594015213024e-07 -0.038773567678107849 0
5.9456337934798424e-07 -0.039261796596598023 0
6.1542023161299772e-07 -0.039732626133374763 0
6.4768002921074215e-07 -0.040208024961578291 0
6.9528836523030294e-07 -0.040705590651692616 0
7.0143510844853111e-07 -0.041236977994608563 0
8.2251488220107943e-07 -0.041811039373091066 0
9.0010552955718792e-07 -0.042435759688799826 0
9.7258530137554408e-07 -0.043119008420458106 0
1.0216969702544287e-06 -0.043868825287227575 0
1.0548861285138762e-06 -0.044693579759647648 0
9.8237813133595665e-07 -0.04560570356468302 0
1.1054458751842499e-06 -0.046625153934899043 0
1.07139308572113e-06 -0.047772108730190825 0
1.1216484327519989e-06 -0.049069319783922871 0
1.1521200433424215e-06 -0.050545338246942899 0
1.1683609301175809e-06 -0.052238140597473087 0
1.2521836387570361e-06 -0.054192057447782105 0
1.3060675400332984e-06 -0.056466972186198693 0
1.3389642441083608e-06 -0.059153807641674945 0
1.3613626488888766e-06 -0.062389379884697622 0
1.3704105889588289e-06 -0.066407936694697148 0
1.4451331136125557e-06 -0.071754708179242427 0
1.4612785534961744e-06 -0.080379199891138148 0
1.3362042281362686e-06 -0.038122894490394167 0
1.4191321362223212e-06 -0.03874694330073393 0
1.5010511760640169e-06 -0.039233116860346917 0
1.5118856715759738e-06 -0.039702534502609139 0
1.5642502701569523e-06 -0.040177093200296249 0
1.624784510503109e-06 -0.040672214252585354 0
1.665480645831204e-06 -0.041200659238489389 0
1.6713521917389639e-06 -0.041772455208511146 0
1.7718951525924175e-06 -0.042394232250427016 0
1.8551986423156102e-06 -0.043074801819834717 0
1.8199391694821454e-06 -0.043821928652569994 0
2.0027921500470152e-06 -0.044643678716691081 0
1.97205018655143e-06 -0.045552340511152832 0
2.0988105858812411e-06 -0.046567958309059659 0
2.1667605532554187e-06 -0.047710624560318028 0
2.2453636102990057e-06 -0.049003493425685947 0
2.3542234782084498e-06 -0.050474604794423311 0
2.449414901894936e-06 -0.052160971827839672 0
2.5622731016843702e-06 -0.054108033024527331 0
2.6767166579243581e-06 -0.056376231112185808 0
2.8244909799139407e-06 -0.059055145712274944 0
3.001571811833439e-06 -0.062281412926094543 0
3.1155775729578505e-06 -0.06628651881614063 0
3.2912363511324698e-06 -0.071624971784344418 0
3.5202825187672029e-06 -0.080235630108755895 0
4.517247278488674e-06 -0.038079319895211426 0
4.8212227059737857e-06 -0.038699041195129943 0
5.0392540364393423e-06 -0.039181749542550881 0
5.1987405317857133e-06 -0.039647102729218453 0
5.3403813213919442e-06 -0.040116646113239125 0
5.4591462985207516e-06 -0.040608012868224991 0
5.5969130665456564e-06 -0.041132463732047667 0
5.6780374300763915e-06 -0.041699470141222945 0
5.7913498412720363e-06 -0.042316355892591494 0
5.8348474430441701e-06 -0.042990761308075498 0
5.9706000231198762e-06 -0.043730887481866126 0
6.0386815298961106e-06 -0.044544824634671118 0
6.183699759037368e-06 -0.045444641103917931 0
6.3251643363371151e-06 -0.046450289342846007 0
6.4498227473222267e-06 -0.047581313292791388 0
6.6233572437795219e-06 -0.048861017472317948 0
6.8192395222297118e-06 -0.050317148630699485 0
7.0030968030225347e-06 -0.051986302716555265 0
7.2008684407473285e-06 -0.053914210374081312 0
7.425730277713452e-06 -0.056161167306707394 0
7.6742534803700756e-06 -0.058816206168590041 0
7.9538697509793183e-06 -0.062016052587166824 0
8.2392790169691498e-06 -0.065990158935803234 0
8.6052013139805459e-06 -0.071296389255947348 0
9.0476498869617588e-06 -0.079867854091997079 0
1.2108430404539749e-05 -0.037999184232128794 0
1.2950872695263153e-05 -0.038614044362026631 0
1.3519625369531271e-05 -0.039092255843875101 0
1.4026792723712617e-05 -0.039552680846754125 0
1.4413619125193152e-05 -0.040016979125440985 0
1.4838432310662421e-05 -0.040502287426107619 0
1.5159406394055196e-05 -0.041019983117879633 0
1.5465763788339574e-05 -0.041578644015617706 0
1.5714932806375046e-05 -0.042185581717345752 0
1.5840725435024071e-05 -0.042848411776792286 0
1.6082706426200502e-05 -0.043574483640531653 0
1.6216397395498085e-05 -0.044371702043972894 0
1.6503116734874311e-05 -0.045251498765397344 0
1.6779812763372175e-05 -0.046233088387527967 0
1.7073852757878303e-05 -0.047335616261332196 0
1.7350135219203545e-05 -0.048581499724050951 0
1.7562328101906069e-05 -0.049997983562645988 0
1.7737962855920513e-05 -0.051620948895385509 0
1.7969318621037611e-05 -0.05349551546415833 0
1.8281844857587688e-05 -0.055681166410504176 0
1.8539255671859687e-05 -0.058265605338868133 0
1.8827526807069973e-05 -0.06138628180365252 0
1.9225876124224442e-05 -0.065275910002131607 0
1.9501823608163046e-05 -0.070490079857493559 0
1.9812142348673067e-05 -0.078950435861067217 0
2.0852945638652971e-05 -0.037773487971361222 0
2.1988790165547031e-05 -0.038340326042030727 0
2.280423379858594e-05 -0.038780302650449225 0
2.3544101549321297e-05 -0.039218022998906289 0
2.422535132530097e-05 -0.039668332753897972 0
2.4853813774643822e-05 -0.040143628383087444 0
2.5451571290032954e-05 -0.040652676152883427 0
2.6022794949686742e-05 -0.04120226813101447 0
2.6557024445352792e-05 -0.041798491879408123 0
2.7052372128826839e-05 -0.042448599695430834 0
2.7495343510844888e-05 -0.043159845468072645 0
2.7871409501141914e-05 -0.043939505720615384 0
2.8208750629278859e-05 -0.044798752862743665 0
2.8487338223608023e-05 -0.045756076488273109 0
2.8739738181458956e-05 -0.04683109322362744 0
2.8982995038216714e-05 -0.048045965303108042 0
2.9238465159905261e-05 -0.049428636268373627 0
2.9513412670753492e-05 -0.051014433946649847 0
2.9814188068529604e-05 -0.052850531125886169 0
3.0159262814347302e-05 -0.05499511823771884 0
3.0561662869797349e-05 -0.057542247022567786 0
3.1035684432516017e-05 -0.060638754534269423 0
3.1595643932790145e-05 -0.064522293368620531 0
3.2273835148364236e-05 -0.069702084835009254 0
3.328338805645844e-05 -0.077907564042660221 0
-0 -0 0
-0 -0 0
-0 -0 0
-0 -0 0
-0 -0 0
-0 -0 0
2.0097054965528755e-05 0.035568593354697586 0
2.4166684013233372e-05 0.039786570879829328 0
2.8130778970812482e-05 0.046100900595053965 0
-0 -0 0
-0 -0 0
-0 -0 0
2.2608943784692214e-05 0.038689405162122457 0
2.4590912528840784e-05 0.040731253763546513 0
2.7674105926305331e-05 0.046635910744515487 0
-0 -0 0
-0 -0 0
-0 -0 0
1.7795653797703847e-05 0.038842196139528842 0
1.9758906075735369e-05 0.04089029288371912 0
2.2404006611289022e-05 0.046805836516001072 0
-0 -0 0
-0 -0 0
-0 -0 0
9.5815473166255167e-06 0.039007776988371788 0
1.0697739583335717e-05 0.041069107216998982 0
1.229485188893103e-05 0.047054543593267134 0
-0 -0 0
-0 -0 0
-0 -0 0
3.8213282274558767e-06 0.039076206491891627 0
4.3566668686538991e-06 0.041156879500665558 0
5.1293501576807671e-06 0.047209162819205765 0
-0 -0 0
-0 -0 0
-0 -0 0
1.3588169036581745e-06 0.039115075435016779 0
1.5856829112533455e-06 0.04120629599730103 0
1.9240557875046421e-06 0.047289419964972795 0
-0 -0 0
-0 -0 0
-0 -0 0
3.7598474304152988e-07 0.039135560334107811 0
4.7279861718997187e-07 0.04123194562906362 0
6.6760372734313891e-07 0.047327721225953301 0
-0 -0 0
-0 -0 0
-0 -0 0
2.7117026393640473e-07 0.039144944085639587 0
3.4620282559772573e-07 0.041243670553121191 0
5.2686073103049387e-07 0.047344536829861679 0
-0 -0 0
-0 -0 0
-0 -0 0
3.628472014167877e-07 0.039148512618477772 0
4.3062303314543859e-07 0.041248043798525341 0
5.4632572128269077e-07 0.047350568317701111 0
-0 -0 0
-0 -0 0
-0 -0 0
2.0094334480214034e-07 0.039148485137294749 0
2.2825772448328834e-07 0.041247912820219841 0
2.7134791390344736e-07 0.04735032067253863 0
-0 -0 0
-0 -0 0
-0 -0 0
-1.9887589300210241e-07 0.039144614410961738 0
-2.2816413061720763e-07 0.04124312568631424 0
-2.4676840010981126e-07 0.04734364478402258 0
-0 -0 0
-0 -0 0
-0 -0 0
-5.3812849197559666e-07 0.039134526922370974 0
-6.5223346306722713e-07 0.041230861578459163 0
-8.28585696362226e-07 0.047326288584940049 0
-0 -0 0
-0 -0 0
-0 -0 0
-1.0147144909867778e-06 0.03911396038485529 0
-1.2075233181346371e-06 0.04120528918861175 0
-1.5655263955614545e-06 0.047288113444337018 0
-0 -0 0
-0 -0 0
-0 -0 0
-3.2014454912936628e-06 0.039075609732674793 0
-3.6187964453976257e-06 0.041156329191575913 0
-4.2906248391462284e-06 0.047208441960131069 0
-0 -0 0
-0 -0 0
-0 -0 0
-9.0624216702768433e-06 0.039007639195183352 0
-1.0082094021759146e-05 0.041068946300996667 0
-1.1515827528319714e-05 0.047054459983088909 0
-0 -0 0
-0 -0 0
-0 -0 0
-1.7459072616947852e-05 0.038842374247693476 0
-1.9387747333686992e-05 0.040890493496648132 0
-2.1917293536015539e-05 0.046806254224309292 0
-0 -0 0
-0 -0 0
-0 -0 0
-2.2412498356768997e-05 0.038689582195369623 0
-2.4372289114677189e-05 0.040731456410104533 0
-2.7360758431184706e-05 0.046636536978839474 0
-0 -0 0
-0 -0 0
-0 -0 0
-1.9913242016797615e-05 0.035568136394638947 0
-2.3967883790337581e-05 0.03978659486240501 0
-2.7844976519618856e-05 0.046101511380011631 0
-0 -0 0
-0 -0 0
-0 -0 0
-0 -0 0
-0 -0 0
-0 -0 0
-0 -0 0
-0 -0 0
-0 -0 0
-0 -0 0
-0 -0 0
-0 -0 0
-0 -0 0
-0 -0 0
-0 -0 0
-0 -0 0
-0 -0 0
-0 -0 0
-0 -0 0
-0 -0 0
-0 -0 0
-0 -0 0
-0 -0 0
-0 -0 0
-0 -0 0
-0 -0 0
-0 -0 0
-0 -0 0
-0 -0 0
-0 -0 0
-0 -0 0
-0 -0 0
-0 -0 0
-0 -0 0
-0 -0 0
-0 -0 0
-0 -0 0
-0 -0 0
-0 -0 0
-0 -0 0
-0 -0 0
-0 -0 0
-0 -0 0
-0 -0 0
-0 -0 0
-0 -0 0
-0 -0 0
-0 -0 0
-0 -0 0
-0 -0 0
-0 -0 0
-0 -0 0
-0 -0 0
-0 -0 0
-0 -0 0
-0 -0 0
-0 -0 0
-0 -0 0
-0 -0 0
-0 -0 0
-0 -0 0
-0 -0 0
-0 -0 0
-0 -0 0
-0 -0 0
-0 -0 0
-0 -0 0
-0 -0 0
-0 -0 0
-0 -0 0
-0 -0 0
-0 -0 0
-0 -0 0
-0 -0 0
-0 -0 0
-0 -0 0
-0 -0 0
-0 -0 0
-0 -0 0
-0 -0 0
-0 -0 0
-0 -0 0
-0 -0 0
-0 -0 0
-0 -0 0
-0 -0 0
-0 -0 0
-0 -0 0
-0 -0 0
-0 -0 0
-0 -0 0
-0 -0 0
-0 -0 0
-0 -0 0
-0 -0 0
-0 -0 0
-0 -0 0
-0 -0 0
-0 -0 0
-0 -0 0
-0 -0 0
-0 -0 0
-0 -0 0
-0 -0 0
-0 -0 0
-0 -0 0
-0 -0 0
-0 -0 0
-0 -0 0
-0 -0 0
-0 -0 0
-0 -0 0
-0 -0 0
-0 -0 0
-0 -0 0
-0 -0 0
-0 -0 0
-0 -0 0
-0 -0 0
-0 -0 0
-0 -0 0
-0 -0 0
-0 -0 0
-0 -0 0
-0 -0 0
-0 -0 0
-0 -0 0
-0 -0 0
-0 -0 0
-0 -0 0
-0 -0 0
-0 -0 0
-0 -0 0
-0 -0 0
-0 -0 0
-0 -0 0
-0 -0 0
-0 -0 0
-0 -0 0
-0 -0 0
-0 -0 0
-0 -0 0
-0 -0 0
-0 -0 0
-0 -0 0
-0 -0 0
-0 -0 0
-0 -0 0
-0 -0 0
-0 -0 0
-0 -0 0
-0 -0 0
-0 -0 0
-0 -0 0
-0 -0 0
-0 -0 0
-0 -0 0
-0 -0 0
-0 -0 0
-0 -0 0
-0 -0 0
-0 -0 0
-0 -0 0
-0 -0 0
-0 -0 0
-0 -0 0
-0 -0 0
-0 -0 0
-0 -0 0
-0 -0 0
-0 -0 0
-0 -0 0
-0 -0 0
-0 -0 0
-0 -0 0
-0 -0 0
-0 -0 0
-0 -0 0
-0 -0 0
-0 -0 0
-0 -0 0
-0 -0 0
-0 -0 0
-0 -0 0
-0 -0 0
-0 -0 0
-0 -0 0
-0 -0 0
-0 -0 0
-0 -0 0
-0 -0 0
-0 -0 0
-0 -0 0
-0 -0 0
-0 -0 0
