# vtk DataFile Version 3.0
SPH particles (WCSPH) - legacy PolyData
ASCII
DATASET POLYDATA
POINTS 681 float
0.050000000000000003 0.037465529206867555 0
0.050000000000000003 0.042229141961458258 0
0.050000000000000003 0.0462175910871859 0
0.050000000000000003 0.050518038644500607 0
0.050000000000000003 0.055268211096384856 0
0.050000000000000003 0.060745374968943451 0
0.050000000000000003 0.06748963742807855 0
0.050000000000000003 0.076772058361808684 0
0.050000000000000003 0.090679050947745893 0
0.050000000000000003 0.10882281677697517 0
0.050000000000000003 0.12846043158788387 0
0.050000000000000003 0.1483955056291836 0
0.050000000000000003 0.16838389406525003 0
0.050000000000000003 0.18838224228295877 0
0.050000000000000003 0.20838369130386478 0
0.050000000000000003 0.22838948668281822 0
0.050000000000000003 0.24840670399810821 0
0.050000000000000003 0.26845386965186546 0
0.050000000000000003 0.28857408858721262 0
0.050000000000000003 0.30885906753834952 0
0.050000000000000003 0.32948849932320856 0
0.050000000000000003 0.35079212690856248 0
0.050000000000000003 0.37336559316792622 0
0.050000000000000003 0.398516874077679 0
0.050000000000000003 0.4372092056387924 0
0.070000000000000007 0.036566236102858835 0
0.070000000000000007 0.04172689029111 0
0.070000000000000007 0.046104126598440931 0
0.070000000000000007 0.050716392259409895 0
0.070000000000000007 0.055733786077941598 0
0.070000000000000007 0.061452253030408681 0
0.070000000000000007 0.068392347204159432 0
0.070000000000000007 0.077656190478316817 0
0.070000000000000007 0.091121196022718468 0
0.070000000000000007 0.10891733540423619 0
0.070000000000000007 0.12847439053792498 0
0.070000000000000007 0.14839778228199069 0
0.070000000000000007 0.16838432261713376 0
0.070000000000000007 0.18838239343330931 0
0.070000000000000007 0.20838394139633723 0
0.070000000000000007 0.22839019073104236 0
0.070000000000000007 0.24840867433365996 0
0.070000000000000007 0.26845909388828521 0
0.070000000000000007 0.28858721858612968 0
0.070000000000000007 0.30889043960286533 0
0.070000000000000007 0.32955953276516425 0
0.070000000000000007 0.35094104414992733 0
0.070000000000000007 0.3736256320744259 0
0.070000000000000007 0.39884917579240764 0
0.070000000000000007 0.43648273099770063 0
0.090000000000000011 0.036578540925338333 0
0.090000000000000011 0.041759083372967118 0
0.090000000000000011 0.046158951623250837 0
0.090000000000000011 0.050805692283026789 0
0.090000000000000011 0.055870396840812762 0
0.090000000000000011 0.061649154716341047 0
0.090000000000000011 0.068655229010909244 0
0.090000000000000011 0.077945446565217291 0
0.090000000000000011 0.091300834595347893 0
0.090000000000000011 0.10896424486478051 0
0.090000000000000011 0.12848189494856915 0
0.090000000000000011 0.14839897988149867 0
0.090000000000000011 0.16838454148344006 0
0.090000000000000011 0.18838247100438166 0
0.090000000000000011 0.20838407543940324 0
0.090000000000000011 0.2283905823451218 0
0.090000000000000011 0.24840981744115692 0
0.090000000000000011 0.26846227366223041 0
0.090000000000000011 0.28859559338057045 0
0.090000000000000011 0.30891111783751191 0
0.090000000000000011 0.32960639504293482 0
0.090000000000000011 0.35103431905530469 0
0.090000000000000011 0.37377444976528368 0
0.090000000000000011 0.39902070033411746 0
0.090000000000000011 0.43621413573863826 0
0.11000000000000001 0.036598484656855328 0
0.11000000000000001 0.041785857704721895 0
0.11000000000000001 0.046192649362683386 0
0.11000000000000001 0.050848214242507773 0
0.11000000000000001 0.055924259140740784 0
0.11000000000000001 0.061717256677535255 0
0.11000000000000001 0.068739113658837919 0
0.11000000000000001 0.07803643210944855 0
0.11000000000000001 0.091363527671459971 0
0.11000000000000001 0.10898480306293225 0
0.11000000000000001 0.12848610440881827 0
0.11000000000000001 0.14839974128212413 0
0.11000000000000001 0.16838468856856573 0
0.11000000000000001 0.18838252473615091 0
0.11000000000000001 0.20838416922839753 0
0.11000000000000001 0.22839085585484364 0
0.11000000000000001 0.24841060843689683 0
0.11000000000000001 0.26846442698834627 0
0.11000000000000001 0.2886010417250931 0
0.11000000000000001 0.30892372991157091 0
0.11000000000000001 0.32963244119546403 0
0.11000000000000001 0.35108043453290955 0
0.11000000000000001 0.37384148239871839 0
0.11000000000000001 0.3990963888919401 0
0.11000000000000001 0.43611060365659943 0
0.13 0.036605110646504638 0
0.13 0.041795856220379193 0
0.13 0.04620552981725571 0
0.13 0.050864292357679482 0
0.13 0.055944086683288999 0
0.13 0.061741497883467153 0
0.13 0.068767976718966561 0
0.13 0.078067110537405948 0
0.13 0.091385327006765701 0
0.13 0.10899279643682624 0
0.13 0.12848802635463261 0
0.13 0.14840014246887426 0
0.13 0.16838477396953286 0
0.13 0.18838255815537588 0
0.13 0.20838422812369606 0
0.13 0.22839102500419825 0
0.13 0.24841108622141889 0
0.13 0.26846568337635257 0
0.13 0.28860407009376154 0
0.13 0.30893030696451723 0
0.13 0.32964502118882449 0
0.13 0.35110102795376014 0
0.13 0.37386958812005699 0
0.13 0.39912701671367257 0
0.13 0.43607635812138157 0
0.15000000000000002 0.036607186195106334 0
0.15000000000000002 0.041799180317092871 0
0.15000000000000002 0.046209922033501355 0
0.15000000000000002 0.050869845190715676 0
0.15000000000000002 0.055950959918909152 0
0.15000000000000002 0.061749879478131646 0
0.15000000000000002 0.06877788945414072 0
0.15000000000000002 0.078077589082491489 0
0.15000000000000002 0.091392886678356322 0
0.15000000000000002 0.10899574472293612 0
0.15000000000000002 0.12848881299312925 0
0.15000000000000002 0.14840032664591246 0
0.15000000000000002 0.16838481736311603 0
0.15000000000000002 0.18838257665425404 0
0.15000000000000002 0.20838426099790688 0
0.15000000000000002 0.22839111726882508 0
0.15000000000000002 0.24841133903602744 0
0.15000000000000002 0.26846632279282939 0
0.15000000000000002 0.28860553872177847 0
0.15000000000000002 0.30893332137350732 0
0.15000000000000002 0.32965044924332987 0
0.15000000000000002 0.35110943560942726 0
0.15000000000000002 0.37388049812844748 0
0.15000000000000002 0.39913845463273478 0
0.15000000000000002 0.43606670554563254 0
0.17000000000000004 0.036607839989629631 0
0.17000000000000004 0.041800241769972032 0
0.17000000000000004 0.04621133825830627 0
0.17000000000000004 0.050871650032822319 0
0.17000000000000004 0.055953205755926348 0
0.17000000000000004 0.061752625917683789 0
0.17000000000000004 0.068781140814788214 0
0.17000000000000004 0.078081031240687354 0
0.17000000000000004 0.0913954002971573 0
0.17000000000000004 0.10899676416045036 0
0.17000000000000004 0.128489104430589 0
0.17000000000000004 0.14840040082496231 0
0.17000000000000004 0.16838483638485319 0
0.17000000000000004 0.18838258542721262 0
0.17000000000000004 0.20838427666334514 0
0.17000000000000004 0.22839116017314157 0
0.17000000000000004 0.2484114531166482 0
0.17000000000000004 0.26846660111314358 0
0.17000000000000004 0.28860615184537958 0
0.17000000000000004 0.30893452372254759 0
0.17000000000000004 0.3296525171243942 0
0.17000000000000004 0.35111250548671585 0
0.17000000000000004 0.37388433560421758 0
0.17000000000000004 0.39914235177143204 0
0.17000000000000004 0.43606442148654967 0
0.19 0.036607988958695652 0
0.19 0.041800484583514576 0
0.19 0.04621166335840135 0
0.19 0.050872065821408873 0
0.19 0.055953724599832839 0
0.19 0.061753261658050583 0
0.19 0.068781894442880534 0
0.19 0.078081830671954899 0
0.19 0.091395988635843209 0
0.19 0.10899700805771932 0
0.19 0.12848917687762704 0
0.19 0.14840042016280719 0
0.19 0.16838484160265282 0
0.19 0.1883825879537023 0
0.19 0.20838428118118557 0
0.19 0.22839117234068532 0
0.19 0.24841148482816602 0
0.19 0.26846667669485469 0
0.19 0.28860631403598963 0
0.19 0.30893483303709246 0
0.19 0.32965303454073097 0
0.19 0.35111325313921599 0
0.19 0.37388525118391974 0
0.19 0.39914326517635534 0
0.19 0.43606404442280339 0
0.21000000000000002 0.036607839989629638 0
0.21000000000000002 0.041800241769972039 0
0.21000000000000002 0.04621133825830627 0
0.21000000000000002 0.050871650032822319 0
0.21000000000000002 0.055953205755926348 0
0.21000000000000002 0.061752625917683789 0
0.21000000000000002 0.068781140814788214 0
0.21000000000000002 0.078081031240687354 0
0.21000000000000002 0.0913954002971573 0
0.21000000000000002 0.10899676416045036 0
0.21000000000000002 0.128489104430589 0
0.21000000000000002 0.14840040082496231 0
0.21000000000000002 0.16838483638485319 0
0.21000000000000002 0.18838258542721262 0
0.21000000000000002 0.20838427666334514 0
0.21000000000000002 0.22839116017314157 0
0.21000000000000002 0.2484114531166482 0
0.21000000000000002 0.26846660111314358 0
0.21000000000000002 0.28860615184537958 0
0.21000000000000002 0.30893452372254759 0
0.21000000000000002 0.3296525171243942 0
0.21000000000000002 0.35111250548671585 0
0.21000000000000002 0.37388433560421758 0
0.21000000000000002 0.39914235177143204 0
0.21000000000000002 0.43606442148654967 0
0.23000000000000004 0.036607186195106341 0
0.23000000000000004 0.041799180317092871 0
0.23000000000000004 0.046209922033501355 0
0.23000000000000004 0.050869845190715676 0
0.23000000000000004 0.055950959918909152 0
0.23000000000000004 0.061749879478131646 0
0.23000000000000004 0.068777889454140734 0
0.23000000000000004 0.078077589082491475 0
0.23000000000000004 0.091392886678356322 0
0.23000000000000004 0.10899574472293612 0
0.23000000000000004 0.12848881299312925 0
0.23000000000000004 0.14840032664591246 0
0.23000000000000004 0.16838481736311603 0
0.23000000000000004 0.18838257665425404 0
0.23000000000000004 0.20838426099790688 0
0.23000000000000004 0.22839111726882508 0
0.23000000000000004 0.24841133903602744 0
0.23000000000000004 0.26846632279282939 0
0.23000000000000004 0.28860553872177847 0
0.23000000000000004 0.30893332137350732 0
0.23000000000000004 0.32965044924332987 0
0.23000000000000004 0.35110943560942726 0
0.23000000000000004 0.37388049812844748 0
0.23000000000000004 0.39913845463273478 0
0.23000000000000004 0.43606670554563259 0
0.25000000000000006 0.036605110646504631 0
0.25000000000000006 0.041795856220379193 0
0.25000000000000006 0.04620552981725571 0
0.25000000000000006 0.050864292357679482 0
0.25000000000000006 0.055944086683288999 0
0.25000000000000006 0.061741497883467153 0
0.25000000000000006 0.068767976718966561 0
0.25000000000000006 0.078067110537405948 0
0.25000000000000006 0.091385327006765701 0
0.25000000000000006 0.10899279643682624 0
0.25000000000000006 0.12848802635463261 0
0.25000000000000006 0.14840014246887426 0
0.25000000000000006 0.16838477396953286 0
0.25000000000000006 0.18838255815537588 0
0.25000000000000006 0.20838422812369606 0
0.25000000000000006 0.22839102500419825 0
0.25000000000000006 0.24841108622141889 0
0.25000000000000006 0.26846568337635257 0
0.25000000000000006 0.28860407009376154 0
0.25000000000000006 0.30893030696451723 0
0.25000000000000006 0.32964502118882449 0
0.25000000000000006 0.35110102795376014 0
0.25000000000000006 0.37386958812005699 0
0.25000000000000006 0.39912701671367257 0
0.25000000000000006 0.43607635812138157 0
0.27000000000000002 0.036598484656855321 0
0.27000000000000002 0.041785857704721881 0
0.27000000000000002 0.046192649362683379 0
0.27000000000000002 0.050848214242507773 0
0.27000000000000002 0.055924259140740784 0
0.27000000000000002 0.061717256677535255 0
0.27000000000000002 0.068739113658837919 0
0.27000000000000002 0.078036432109448564 0
0.27000000000000002 0.091363527671459985 0
0.27000000000000002 0.10898480306293225 0
0.27000000000000002 0.12848610440881827 0
0.27000000000000002 0.14839974128212413 0
0.27000000000000002 0.16838468856856573 0
0.27000000000000002 0.18838252473615091 0
0.27000000000000002 0.20838416922839753 0
0.27000000000000002 0.22839085585484364 0
0.27000000000000002 0.24841060843689683 0
0.27000000000000002 0.26846442698834627 0
0.27000000000000002 0.2886010417250931 0
0.27000000000000002 0.30892372991157091 0
0.27000000000000002 0.32963244119546403 0
0.27000000000000002 0.35108043453290955 0
0.27000000000000002 0.37384148239871839 0
0.27000000000000002 0.3990963888919401 0
0.27000000000000002 0.43611060365659943 0
0.29000000000000004 0.036578540925338347 0
0.29000000000000004 0.041759083372967132 0
0.29000000000000004 0.04615895162325085 0
0.29000000000000004 0.050805692283026796 0
0.29000000000000004 0.055870396840812762 0
0.29000000000000004 0.061649154716341047 0
0.29000000000000004 0.068655229010909244 0
0.29000000000000004 0.077945446565217291 0
0.29000000000000004 0.091300834595347893 0
0.29000000000000004 0.10896424486478051 0
0.29000000000000004 0.12848189494856915 0
0.29000000000000004 0.14839897988149867 0
0.29000000000000004 0.16838454148344006 0
0.29000000000000004 0.18838247100438166 0
0.29000000000000004 0.20838407543940324 0
0.29000000000000004 0.2283905823451218 0
0.29000000000000004 0.24840981744115692 0
0.29000000000000004 0.26846227366223041 0
0.29000000000000004 0.28859559338057045 0
0.29000000000000004 0.30891111783751191 0
0.29000000000000004 0.32960639504293482 0
0.29000000000000004 0.35103431905530469 0
0.29000000000000004 0.37377444976528368 0
0.29000000000000004 0.39902070033411746 0
0.29000000000000004 0.43621413573863826 0
0.31000000000000005 0.036566236102858828 0
0.31000000000000005 0.04172689029111 0
0.31000000000000005 0.046104126598440924 0
0.31000000000000005 0.050716392259409895 0
0.31000000000000005 0.055733786077941612 0
0.31000000000000005 0.061452253030408681 0
0.31000000000000005 0.068392347204159432 0
0.31000000000000005 0.077656190478316817 0
0.31000000000000005 0.091121196022718481 0
0.31000000000000005 0.10891733540423619 0
0.31000000000000005 0.12847439053792498 0
0.31000000000000005 0.14839778228199069 0
0.31000000000000005 0.16838432261713376 0
0.31000000000000005 0.18838239343330931 0
0.31000000000000005 0.20838394139633723 0
0.31000000000000005 0.22839019073104236 0
0.31000000000000005 0.24840867433365996 0
0.31000000000000005 0.26845909388828521 0
0.31000000000000005 0.28858721858612968 0
0.31000000000000005 0.30889043960286533 0
0.31000000000000005 0.32955953276516425 0
0.31000000000000005 0.35094104414992733 0
0.31000000000000005 0.3736256320744259 0
0.31000000000000005 0.39884917579240764 0
0.31000000000000005 0.43648273099770063 0
0.33000000000000002 0.037465529206867541 0
0.33000000000000002 0.042229141961458244 0
0.33000000000000002 0.046217591087185893 0
0.33000000000000002 0.0505180386445006 0
0.33000000000000002 0.055268211096384856 0
0.33000000000000002 0.060745374968943458 0
0.33000000000000002 0.06748963742807855 0
0.33000000000000002 0.076772058361808698 0
0.33000000000000002 0.090679050947745893 0
0.33000000000000002 0.10882281677697517 0
0.33000000000000002 0.12846043158788387 0
0.33000000000000002 0.1483955056291836 0
0.33000000000000002 0.16838389406525003 0
0.33000000000000002 0.18838224228295877 0
0.33000000000000002 0.20838369130386478 0
0.33000000000000002 0.22838948668281822 0
0.33000000000000002 0.24840670399810821 0
0.33000000000000002 0.26845386965186546 0
0.33000000000000002 0.28857408858721262 0
0.33000000000000002 0.30885906753834952 0
0.33000000000000002 0.32948849932320856 0
0.33000000000000002 0.35079212690856248 0
0.33000000000000002 0.37336559316792622 0
0.33000000000000002 0.398516874077679 0
0.33000000000000002 0.4372092056387924 0
0 0 0
0 0.020000000000000004 0
0 0.040000000000000001 0
0 0.54999999999999993 0
0 0.56000000000000005 0
0 0.58000000000000007 0
0.02 0 0
0.02 0.020000000000000004 0
0.02 0.040000000000000001 0
0.02 0.54999999999999993 0
0.02 0.56000000000000005 0
0.02 0.58000000000000007 0
0.040000000000000001 0 0
0.040000000000000001 0.020000000000000004 0
0.040000000000000001 0.040000000000000001 0
0.040000000000000001 0.54999999999999993 0
0.040000000000000001 0.56000000000000005 0
0.040000000000000001 0.58000000000000007 0
0.059999999999999998 0 0
0.059999999999999998 0.020000000000000004 0
0.059999999999999998 0.040000000000000001 0
0.059999999999999998 0.54999999999999993 0
0.059999999999999998 0.56000000000000005 0
0.059999999999999998 0.58000000000000007 0
0.080000000000000002 0 0
0.080000000000000002 0.020000000000000004 0
0.080000000000000002 0.040000000000000001 0
0.080000000000000002 0.54999999999999993 0
0.080000000000000002 0.56000000000000005 0
0.080000000000000002 0.58000000000000007 0
0.10000000000000001 0 0
0.10000000000000001 0.020000000000000004 0
0.10000000000000001 0.040000000000000001 0
0.10000000000000001 0.54999999999999993 0
0.10000000000000001 0.56000000000000005 0
0.10000000000000001 0.58000000000000007 0
0.12 0 0
0.12 0.020000000000000004 0
0.12 0.040000000000000001 0
0.12 0.54999999999999993 0
0.12 0.56000000000000005 0
0.12 0.58000000000000007 0
0.14000000000000001 0 0
0.14000000000000001 0.020000000000000004 0
0.14000000000000001 0.040000000000000001 0
0.14000000000000001 0.54999999999999993 0
0.14000000000000001 0.56000000000000005 0
0.14000000000000001 0.58000000000000007 0
0.16 0 0
0.16 0.020000000000000004 0
0.16 0.040000000000000001 0
0.16 0.54999999999999993 0
0.16 0.56000000000000005 0
0.16 0.58000000000000007 0
0.17999999999999999 0 0
0.17999999999999999 0.020000000000000004 0
0.17999999999999999 0.040000000000000001 0
0.17999999999999999 0.54999999999999993 0
0.17999999999999999 0.56000000000000005 0
0.17999999999999999 0.58000000000000007 0
0.20000000000000001 0 0
0.20000000000000001 0.020000000000000004 0
0.20000000000000001 0.040000000000000001 0
0.20000000000000001 0.54999999999999993 0
0.20000000000000001 0.56000000000000005 0
0.20000000000000001 0.58000000000000007 0
0.22 0 0
0.22 0.020000000000000004 0
0.22 0.040000000000000001 0
0.22 0.54999999999999993 0
0.22 0.56000000000000005 0
0.22 0.58000000000000007 0
0.23999999999999999 0 0
0.23999999999999999 0.020000000000000004 0
0.23999999999999999 0.040000000000000001 0
0.23999999999999999 0.54999999999999993 0
0.23999999999999999 0.56000000000000005 0
0.23999999999999999 0.58000000000000007 0
0.26000000000000001 0 0
0.26000000000000001 0.020000000000000004 0
0.26000000000000001 0.040000000000000001 0
0.26000000000000001 0.54999999999999993 0
0.26000000000000001 0.56000000000000005 0
0.26000000000000001 0.58000000000000007 0
0.28000000000000003 0 0
0.28000000000000003 0.020000000000000004 0
0.28000000000000003 0.040000000000000001 0
0.28000000000000003 0.54999999999999993 0
0.28000000000000003 0.56000000000000005 0
0.28000000000000003 0.58000000000000007 0
0.29999999999999999 0 0
0.29999999999999999 0.020000000000000004 0
0.29999999999999999 0.040000000000000001 0
0.29999999999999999 0.54999999999999993 0
0.29999999999999999 0.56000000000000005 0
0.29999999999999999 0.58000000000000007 0
0.32000000000000001 0 0
0.32000000000000001 0.020000000000000004 0
0.32000000000000001 0.040000000000000001 0
0.32000000000000001 0.54999999999999993 0
0.32000000000000001 0.56000000000000005 0
0.32000000000000001 0.58000000000000007 0
0.34000000000000002 0 0
0.34000000000000002 0.020000000000000004 0
0.34000000000000002 0.040000000000000001 0
0.34000000000000002 0.54999999999999993 0
0.34000000000000002 0.56000000000000005 0
0.34000000000000002 0.58000000000000007 0
0.35999999999999999 0 0
0.35999999999999999 0.020000000000000004 0
0.35999999999999999 0.040000000000000001 0
0.35999999999999999 0.54999999999999993 0
0.35999999999999999 0.56000000000000005 0
0.35999999999999999 0.58000000000000007 0
0.38 0 0
0.38 0.020000000000000004 0
0.38 0.040000000000000001 0
0.38 0.54999999999999993 0
0.38 0.56000000000000005 0
0.38 0.58000000000000007 0
0.40000000000000002 0 0
0.40000000000000002 0.020000000000000004 0
0.40000000000000002 0.040000000000000001 0
0.40000000000000002 0.54999999999999993 0
0.40000000000000002 0.56000000000000005 0
0.40000000000000002 0.58000000000000007 0
0.41999999999999998 0 0
0.41999999999999998 0.020000000000000004 0
0.41999999999999998 0.040000000000000001 0
0.41999999999999998 0.54999999999999993 0
0.41999999999999998 0.56000000000000005 0
0.41999999999999998 0.58000000000000007 0
0.44 0 0
0.44 0.020000000000000004 0
0.44 0.040000000000000001 0
0.44 0.54999999999999993 0
0.44 0.56000000000000005 0
0.44 0.58000000000000007 0
0.46000000000000002 0 0
0.46000000000000002 0.020000000000000004 0
0.46000000000000002 0.040000000000000001 0
0.46000000000000002 0.54999999999999993 0
0.46000000000000002 0.56000000000000005 0
0.46000000000000002 0.58000000000000007 0
0.47999999999999998 0 0
0.47999999999999998 0.020000000000000004 0
0.47999999999999998 0.040000000000000001 0
0.47999999999999998 0.54999999999999993 0
0.47999999999999998 0.56000000000000005 0
0.47999999999999998 0.58000000000000007 0
0.5 0 0
0.5 0.020000000000000004 0
0.5 0.040000000000000001 0
0.5 0.54999999999999993 0
0.5 0.56000000000000005 0
0.5 0.58000000000000007 0
0.52000000000000002 0 0
0.52000000000000002 0.020000000000000004 0
0.52000000000000002 0.040000000000000001 0
0.52000000000000002 0.54999999999999993 0
0.52000000000000002 0.56000000000000005 0
0.52000000000000002 0.58000000000000007 0
0.54000000000000004 0 0
0.54000000000000004 0.020000000000000004 0
0.54000000000000004 0.040000000000000001 0
0.54000000000000004 0.54999999999999993 0
0.54000000000000004 0.56000000000000005 0
0.54000000000000004 0.58000000000000007 0
0.56000000000000005 0 0
0.56000000000000005 0.020000000000000004 0
0.56000000000000005 0.040000000000000001 0
0.56000000000000005 0.54999999999999993 0
0.56000000000000005 0.56000000000000005 0
0.56000000000000005 0.58000000000000007 0
0.57999999999999996 0 0
0.57999999999999996 0.020000000000000004 0
0.57999999999999996 0.040000000000000001 0
0.57999999999999996 0.54999999999999993 0
0.57999999999999996 0.56000000000000005 0
0.57999999999999996 0.58000000000000007 0
0.59999999999999998 0 0
0.59999999999999998 0.020000000000000004 0
0.59999999999999998 0.040000000000000001 0
0.59999999999999998 0.54999999999999993 0
0.59999999999999998 0.56000000000000005 0
0.59999999999999998 0.58000000000000007 0
0.62 0 0
0.62 0.020000000000000004 0
0.62 0.040000000000000001 0
0.62 0.54999999999999993 0
0.62 0.56000000000000005 0
0.62 0.58000000000000007 0
0.64000000000000001 0 0
0.64000000000000001 0.020000000000000004 0
0.64000000000000001 0.040000000000000001 0
0.64000000000000001 0.54999999999999993 0
0.64000000000000001 0.56000000000000005 0
0.64000000000000001 0.58000000000000007 0
0.66000000000000003 0 0
0.66000000000000003 0.020000000000000004 0
0.66000000000000003 0.040000000000000001 0
0.66000000000000003 0.54999999999999993 0
0.66000000000000003 0.56000000000000005 0
0.66000000000000003 0.58000000000000007 0
0.68000000000000005 0 0
0.68000000000000005 0.020000000000000004 0
0.68000000000000005 0.040000000000000001 0
0.68000000000000005 0.54999999999999993 0
0.68000000000000005 0.56000000000000005 0
0.68000000000000005 0.58000000000000007 0
0.70000000000000007 0 0
0.70000000000000007 0.020000000000000004 0
0.70000000000000007 0.040000000000000001 0
0.70000000000000007 0.54999999999999993 0
0.70000000000000007 0.56000000000000005 0
0.70000000000000007 0.58000000000000007 0
0.71999999999999997 0 0
0.71999999999999997 0.020000000000000004 0
0.71999999999999997 0.040000000000000001 0
0.71999999999999997 0.54999999999999993 0
0.71999999999999997 0.56000000000000005 0
0.71999999999999997 0.58000000000000007 0
0.73999999999999999 0 0
0.73999999999999999 0.020000000000000004 0
0.73999999999999999 0.040000000000000001 0
0.73999999999999999 0.54999999999999993 0
0.73999999999999999 0.56000000000000005 0
0.73999999999999999 0.58000000000000007 0
0.76000000000000001 0 0
0.76000000000000001 0.020000000000000004 0
0.76000000000000001 0.040000000000000001 0
0.76000000000000001 0.54999999999999993 0
0.76000000000000001 0.56000000000000005 0
0.76000000000000001 0.58000000000000007 0
0.78000000000000003 0 0
0.78000000000000003 0.020000000000000004 0
0.78000000000000003 0.040000000000000001 0
0.78000000000000003 0.54999999999999993 0
0.78000000000000003 0.56000000000000005 0
0.78000000000000003 0.58000000000000007 0
0.80000000000000004 0 0
0.80000000000000004 0.020000000000000004 0
0.80000000000000004 0.040000000000000001 0
0.80000000000000004 0.54999999999999993 0
0.80000000000000004 0.56000000000000005 0
0.80000000000000004 0.58000000000000007 0
0.82000000000000006 0 0
0.82000000000000006 0.020000000000000004 0
0.82000000000000006 0.040000000000000001 0
0.82000000000000006 0.54999999999999993 0
0.82000000000000006 0.56000000000000005 0
0.82000000000000006 0.58000000000000007 0
0.83999999999999997 0 0
0.83999999999999997 0.020000000000000004 0
0.83999999999999997 0.040000000000000001 0
0.83999999999999997 0.54999999999999993 0
0.83999999999999997 0.56000000000000005 0
0.83999999999999997 0.58000000000000007 0
0.85999999999999999 0 0
0.85999999999999999 0.020000000000000004 0
0.85999999999999999 0.040000000000000001 0
0.85999999999999999 0.54999999999999993 0
0.85999999999999999 0.56000000000000005 0
0.85999999999999999 0.58000000000000007 0
0.88 0 0
0.88 0.020000000000000004 0
0.88 0.040000000000000001 0
0.88 0.54999999999999993 0
0.88 0.56000000000000005 0
0.88 0.58000000000000007 0
0.90000000000000002 0 0
0.90000000000000002 0.020000000000000004 0
0.90000000000000002 0.040000000000000001 0
0.90000000000000002 0.54999999999999993 0
0.90000000000000002 0.56000000000000005 0
0.90000000000000002 0.58000000000000007 0
0.92000000000000004 0 0
0.92000000000000004 0.020000000000000004 0
0.92000000000000004 0.040000000000000001 0
0.92000000000000004 0.54999999999999993 0
0.92000000000000004 0.56000000000000005 0
0.92000000000000004 0.58000000000000007 0
0.94000000000000006 0 0
0.94000000000000006 0.020000000000000004 0
0.94000000000000006 0.040000000000000001 0
0.94000000000000006 0.54999999999999993 0
0.94000000000000006 0.56000000000000005 0
0.94000000000000006 0.58000000000000007 0
0.95999999999999996 0 0
0.95999999999999996 0.020000000000000004 0
0.95999999999999996 0.040000000000000001 0
0.95999999999999996 0.54999999999999993 0
0.95999999999999996 0.56000000000000005 0
0.95999999999999996 0.58000000000000007 0
0.97999999999999998 0 0
0.97999999999999998 0.020000000000000004 0
0.97999999999999998 0.040000000000000001 0
0.97999999999999998 0.54999999999999993 0
0.97999999999999998 0.56000000000000005 0
0.97999999999999998 0.58000000000000007 0
1 0 0
1 0.020000000000000004 0
1 0.040000000000000001 0
1 0.54999999999999993 0
1 0.56000000000000005 0
1 0.58000000000000007 0
VERTICES 681 1362
1 0
1 1
1 2
1 3
1 4
1 5
1 6
1 7
1 8
1 9
1 10
1 11
1 12
1 13
1 14
1 15
1 16
1 17
1 18
1 19
1 20
1 21
1 22
1 23
1 24
1 25
1 26
1 27
1 28
1 29
1 30
1 31
1 32
1 33
1 34
1 35
1 36
1 37
1 38
1 39
1 40
1 41
1 42
1 43
1 44
1 45
1 46
1 47
1 48
1 49
1 50
1 51
1 52
1 53
1 54
1 55
1 56
1 57
1 58
1 59
1 60
1 61
1 62
1 63
1 64
1 65
1 66
1 67
1 68
1 69
1 70
1 71
1 72
1 73
1 74
1 75
1 76
1 77
1 78
1 79
1 80
1 81
1 82
1 83
1 84
1 85
1 86
1 87
1 88
1 89
1 90
1 91
1 92
1 93
1 94
1 95
1 96
1 97
1 98
1 99
1 100
1 101
1 102
1 103
1 104
1 105
1 106
1 107
1 108
1 109
1 110
1 111
1 112
1 113
1 114
1 115
1 116
1 117
1 118
1 119
1 120
1 121
1 122
1 123
1 124
1 125
1 126
1 127
1 128
1 129
1 130
1 131
1 132
1 133
1 134
1 135
1 136
1 137
1 138
1 139
1 140
1 141
1 142
1 143
1 144
1 145
1 146
1 147
1 148
1 149
1 150
1 151
1 152
1 153
1 154
1 155
1 156
1 157
1 158
1 159
1 160
1 161
1 162
1 163
1 164
1 165
1 166
1 167
1 168
1 169
1 170
1 171
1 172
1 173
1 174
1 175
1 176
1 177
1 178
1 179
1 180
1 181
1 182
1 183
1 184
1 185
1 186
1 187
1 188
1 189
1 190
1 191
1 192
1 193
1 194
1 195
1 196
1 197
1 198
1 199
1 200
1 201
1 202
1 203
1 204
1 205
1 206
1 207
1 208
1 209
1 210
1 211
1 212
1 213
1 214
1 215
1 216
1 217
1 218
1 219
1 220
1 221
1 222
1 223
1 224
1 225
1 226
1 227
1 228
1 229
1 230
1 231
1 232
1 233
1 234
1 235
1 236
1 237
1 238
1 239
1 240
1 241
1 242
1 243
1 244
1 245
1 246
1 247
1 248
1 249
1 250
1 251
1 252
1 253
1 254
1 255
1 256
1 257
1 258
1 259
1 260
1 261
1 262
1 263
1 264
1 265
1 266
1 267
1 268
1 269
1 270
1 271
1 272
1 273
1 274
1 275
1 276
1 277
1 278
1 279
1 280
1 281
1 282
1 283
1 284
1 285
1 286
1 287
1 288
1 289
1 290
1 291
1 292
1 293
1 294
1 295
1 296
1 297
1 298
1 299
1 300
1 301
1 302
1 303
1 304
1 305
1 306
1 307
1 308
1 309
1 310
1 311
1 312
1 313
1 314
1 315
1 316
1 317
1 318
1 319
1 320
1 321
1 322
1 323
1 324
1 325
1 326
1 327
1 328
1 329
1 330
1 331
1 332
1 333
1 334
1 335
1 336
1 337
1 338
1 339
1 340
1 341
1 342
1 343
1 344
1 345
1 346
1 347
1 348
1 349
1 350
1 351
1 352
1 353
1 354
1 355
1 356
1 357
1 358
1 359
1 360
1 361
1 362
1 363
1 364
1 365
1 366
1 367
1 368
1 369
1 370
1 371
1 372
1 373
1 374
1 375
1 376
1 377
1 378
1 379
1 380
1 381
1 382
1 383
1 384
1 385
1 386
1 387
1 388
1 389
1 390
1 391
1 392
1 393
1 394
1 395
1 396
1 397
1 398
1 399
1 400
1 401
1 402
1 403
1 404
1 405
1 406
1 407
1 408
1 409
1 410
1 411
1 412
1 413
1 414
1 415
1 416
1 417
1 418
1 419
1 420
1 421
1 422
1 423
1 424
1 425
1 426
1 427
1 428
1 429
1 430
1 431
1 432
1 433
1 434
1 435
1 436
1 437
1 438
1 439
1 440
1 441
1 442
1 443
1 444
1 445
1 446
1 447
1 448
1 449
1 450
1 451
1 452
1 453
1 454
1 455
1 456
1 457
1 458
1 459
1 460
1 461
1 462
1 463
1 464
1 465
1 466
1 467
1 468
1 469
1 470
1 471
1 472
1 473
1 474
1 475
1 476
1 477
1 478
1 479
1 480
1 481
1 482
1 483
1 484
1 485
1 486
1 487
1 488
1 489
1 490
1 491
1 492
1 493
1 494
1 495
1 496
1 497
1 498
1 499
1 500
1 501
1 502
1 503
1 504
1 505
1 506
1 507
1 508
1 509
1 510
1 511
1 512
1 513
1 514
1 515
1 516
1 517
1 518
1 519
1 520
1 521
1 522
1 523
1 524
1 525
1 526
1 527
1 528
1 529
1 530
1 531
1 532
1 533
1 534
1 535
1 536
1 537
1 538
1 539
1 540
1 541
1 542
1 543
1 544
1 545
1 546
1 547
1 548
1 549
1 550
1 551
1 552
1 553
1 554
1 555
1 556
1 557
1 558
1 559
1 560
1 561
1 562
1 563
1 564
1 565
1 566
1 567
1 568
1 569
1 570
1 571
1 572
1 573
1 574
1 575
1 576
1 577
1 578
1 579
1 580
1 581
1 582
1 583
1 584
1 585
1 586
1 587
1 588
1 589
1 590
1 591
1 592
1 593
1 594
1 595
1 596
1 597
1 598
1 599
1 600
1 601
1 602
1 603
1 604
1 605
1 606
1 607
1 608
1 609
1 610
1 611
1 612
1 613
1 614
1 615
1 616
1 617
1 618
1 619
1 620
1 621
1 622
1 623
1 624
1 625
1 626
1 627
1 628
1 629
1 630
1 631
1 632
1 633
1 634
1 635
1 636
1 637
1 638
1 639
1 640
1 641
1 642
1 643
1 644
1 645
1 646
1 647
1 648
1 649
1 650
1 651
1 652
1 653
1 654
1 655
1 656
1 657
1 658
1 659
1 660
1 661
1 662
1 663
1 664
1 665
1 666
1 667
1 668
1 669
1 670
1 671
1 672
1 673
1 674
1 675
1 676
1 677
1 678
1 679
1 680
POINT_DATA 681
SCALARS is_boundary int 1
LOOKUP_TABLE default
0
0
0
0
0
0
0
0
0
0
0
0
0
0
0
0
0
0
0
0
0
0
0
0
0
0
0
0
0
0
0
0
0
0
0
0
0
0
0
0
0
0
0
0
0
0
0
0
0
0
0
0
0
0
0
0
0
0
0
0
0
0
0
0
0
0
0
0
0
0
0
0
0
0
0
0
0
0
0
0
0
0
0
0
0
0
0
0
0
0
0
0
0
0
0
0
0
0
0
0
0
0
0
0
0
0
0
0
0
0
0
0
0
0
0
0
0
0
0
0
0
0
0
0
0
0
0
0
0
0
0
0
0
0
0
0
0
0
0
0
0
0
0
0
0
0
0
0
0
0
0
0
0
0
0
0
0
0
0
0
0
0
0
0
0
0
0
0
0
0
0
0
0
0
0
0
0
0
0
0
0
0
0
0
0
0
0
0
0
0
0
0
0
0
0
0
0
0
0
0
0
0
0
0
0
0
0
0
0
0
0
0
0
0
0
0
0
0
0
0
0
0
0
0
0
0
0
0
0
0
0
0
0
0
0
0
0
0
0
0
0
0
0
0
0
0
0
0
0
0
0
0
0
0
0
0
0
0
0
0
0
0
0
0
0
0
0
0
0
0
0
0
0
0
0
0
0
0
0
0
0
0
0
0
0
0
0
0
0
0
0
0
0
0
0
0
0
0
0
0
0
0
0
0
0
0
0
0
0
0
0
0
0
0
0
0
0
0
0
0
0
0
0
0
0
0
0
0
0
0
0
0
0
0
0
0
0
0
0
0
0
0
0
0
0
0
0
0
0
0
0
0
0
0
0
0
0
0
0
0
0
0
0
0
0
0
0
0
0
0
0
0
0
0
0
1
1
1
1
1
1
1
1
1
1
1
1
1
1
1
1
1
1
1
1
1
1
1
1
1
1
1
1
1
1
1
1
1
1
1
1
1
1
1
1
1
1
1
1
1
1
1
1
1
1
1
1
1
1
1
1
1
1
1
1
1
1
1
1
1
1
1
1
1
1
1
1
1
1
1
1
1
1
1
1
1
1
1
1
1
1
1
1
1
1
1
1
1
1
1
1
1
1
1
1
1
1
1
1
1
1
1
1
1
1
1
1
1
1
1
1
1
1
1
1
1
1
1
1
1
1
1
1
1
1
1
1
1
1
1
1
1
1
1
1
1
1
1
1
1
1
1
1
1
1
1
1
1
1
1
1
1
1
1
1
1
1
1
1
1
1
1
1
1
1
1
1
1
1
1
1
1
1
1
1
1
1
1
1
1
1
1
1
1
1
1
1
1
1
1
1
1
1
1
1
1
1
1
1
1
1
1
1
1
1
1
1
1
1
1
1
1
1
1
1
1
1
1
1
1
1
1
1
1
1
1
1
1
1
1
1
1
1
1
1
1
1
1
1
1
1
1
1
1
1
1
1
1
1
1
1
1
1
1
1
1
1
1
1
1
1
1
1
1
1
1
1
1
1
1
1
1
1
1
1
1
1
1
1
1
1
1
1
1
1
1
1
1
1
1
1
1
1
1
1
1
1
1
1
1
1
SCALARS rho float 1
LOOKUP_TABLE default
1020
1020
1020
1020
1020
1020
1020
1020
1020
873.58528002453886
862
862
862
862
862
862
862
862
862
862
862
862
862
862
850
1020
1020
1020
1020
1020
1020
1020
1020
1020
1020
1013.9835789421352
1001.462083910186
999.42732880513313
999.02844448619203
998.81881960011174
998.39253847922305
997.28875185915672
994.57414791079032
988.41180324975448
975.57945948392603
951.13113408757886
908.41011271672096
862
862
862
1020
1020
1020
1020
1020
1020
1020
1020
1020
1020
1016.4741151002197
1002.6679090932139
1000.4456508273429
1000.0158436575437
999.79484550576126
999.34979305458774
998.19953986404039
995.37317551833053
988.96462689118107
975.65729812408563
950.48004315651633
907.19567072249356
862
862
862
1020
1020
1020
1020
1020
1020
1020
1020
1020
1020
1017.1325331535311
1002.7840940545159
1000.4651915687427
1000.0174125521203
999.78925449055509
999.33204708556946
998.1519502566448
995.25598255663658
988.70327986145298
975.14625581406676
949.65332384255566
906.21843268598013
862
862
862
1020
1020
1020
1020
1020
1020
1020
1020
1020
1020
1017.3916371435946
1002.8388829940511
1000.4756471559574
1000.0182263254858
999.78573111622973
999.32113160417839
998.12363486169011
995.18959463003148
988.56502399692067
974.89932541403437
949.29630896628464
905.84177882784297
862
862
862
1020
1020
1020
1020
1020
1020
1020
1020
1020
1020
1017.4867950229134
1002.8616100910244
1000.4804907911328
1000.0185706117127
999.78377024424412
999.31524582907741
998.10894625214269
995.15685689722091
988.50103358392789
974.79331721434505
949.15509722713637
905.70570085534973
862
862
862
1020
1020
1020
1020
1020
1020
1020
1020
1020
1020
1017.5195215721778
1002.8700681417999
1000.4824432534131
1000.0186896420962
999.78284154165044
999.31254385881243
998.10244436087646
995.14300082461637
988.47533807415903
974.75316873321412
949.10481263458996
905.66077226723701
862
862
862
1020
1020
1020
1020
1020
1020
1020
1020
1020
1020
1017.5273297202748
1002.8721736079706
1000.4829511802893
1000.0187163586113
999.7825750730135
999.31178438495613
998.10065964569139
995.13930416950598
988.46870203511821
974.74316146574574
949.09275734694916
905.65050865421517
862
862
862
1020
1020
1020
1020
1020
1020
1020
1020
1020
1020
1017.5195215721762
1002.8700681417986
1000.4824432534115
1000.0186896420948
999.78284154164908
999.3125438588113
998.10244436087532
995.14300082461523
988.47533807415766
974.75316873321299
949.10481263458882
905.66077226723587
862
862
862
1020
1020
1020
1020
1020
1020
1020
1020
1020
1020
1017.4867950229132
1002.8616100910244
1000.4804907911328
1000.0185706117127
999.78377024424435
999.31524582907741
998.10894625214291
995.15685689722091
988.50103358392789
974.79331721434482
949.15509722713614
905.70570085534973
862
862
862
1020
1020
1020
1020
1020
1020
1020
1020
1020
1020
1017.3916371435955
1002.838882994052
1000.4756471559579
1000.0182263254865
999.78573111623041
999.32113160417907
998.12363486169079
995.18959463003216
988.56502399692135
974.89932541403505
949.29630896628532
905.84177882784365
862
862
862
1020
1020
1020
1020
1020
1020
1020
1020
1020
1020
1017.1325331535315
1002.7840940545163
1000.465191568743
1000.0174125521207
999.78925449055532
999.33204708556991
998.15195025664525
995.25598255663704
988.70327986145321
975.14625581406699
949.65332384255589
906.21843268598036
862
862
862
1020
1020
1020
1020
1020
1020
1020
1020
1020
1020
1016.474115100219
1002.6679090932134
1000.4456508273422
1000.015843657543
999.7948455057608
999.34979305458728
998.19953986403971
995.37317551832984
988.96462689118039
975.65729812408495
950.48004315651542
907.19567072249288
862
862
862
1020
1020
1020
1020
1020
1020
1020
1020
1020
1020
1013.9835789421359
1001.4620839101869
999.42732880513381
999.02844448619271
998.81881960011265
998.39253847922373
997.28875185915717
994.574147910791
988.41180324975539
975.57945948392671
951.13113408757977
908.41011271672141
862
862
862
1020
1020
1020
1020
1020
1020
1020
1020
1020
873.58528002453954
862
862
862
862
862
862
862
862
862
862
862
862
862
862
850
1000
1000
1000
1000
1000
1000
1000
1000
1000
1000
1000
1000
1000
1000
1000
1000
1000
1000
1000
1000
1000
1000
1000
1000
1000
1000
1000
1000
1000
1000
1000
1000
1000
1000
1000
1000
1000
1000
1000
1000
1000
1000
1000
1000
1000
1000
1000
1000
1000
1000
1000
1000
1000
1000
1000
1000
1000
1000
1000
1000
1000
1000
1000
1000
1000
1000
1000
1000
1000
1000
1000
1000
1000
1000
1000
1000
1000
1000
1000
1000
1000
1000
1000
1000
1000
1000
1000
1000
1000
1000
1000
1000
1000
1000
1000
1000
1000
1000
1000
1000
1000
1000
1000
1000
1000
1000
1000
1000
1000
1000
1000
1000
1000
1000
1000
1000
1000
1000
1000
1000
1000
1000
1000
1000
1000
1000
1000
1000
1000
1000
1000
1000
1000
1000
1000
1000
1000
1000
1000
1000
1000
1000
1000
1000
1000
1000
1000
1000
1000
1000
1000
1000
1000
1000
1000
1000
1000
1000
1000
1000
1000
1000
1000
1000
1000
1000
1000
1000
1000
1000
1000
1000
1000
1000
1000
1000
1000
1000
1000
1000
1000
1000
1000
1000
1000
1000
1000
1000
1000
1000
1000
1000
1000
1000
1000
1000
1000
1000
1000
1000
1000
1000
1000
1000
1000
1000
1000
1000
1000
1000
1000
1000
1000
1000
1000
1000
1000
1000
1000
1000
1000
1000
1000
1000
1000
1000
1000
1000
1000
1000
1000
1000
1000
1000
1000
1000
1000
1000
1000
1000
1000
1000
1000
1000
1000
1000
1000
1000
1000
1000
1000
1000
1000
1000
1000
1000
1000
1000
1000
1000
1000
1000
1000
1000
1000
1000
1000
1000
1000
1000
1000
1000
1000
1000
1000
1000
1000
1000
1000
1000
1000
1000
1000
1000
1000
1000
1000
1000
1000
1000
1000
1000
1000
1000
1000
1000
1000
1000
1000
1000
1000
1000
1000
1000
1000
1000
SCALARS p float 1
LOOKUP_TABLE default
25004.681136676067
25004.681136676067
25004.681136676067
25004.681136676067
25004.681136676067
25004.681136676067
25004.681136676067
25004.681136676067
25004.681136676067
0
0
0
0
0
0
0
0
0
0
0
0
0
0
0
0
25004.681136676067
25004.681136676067
25004.681136676067
25004.681136676067
25004.681136676067
25004.681136676067
25004.681136676067
25004.681136676067
25004.681136676067
25004.681136676067
17168.361262486149
1728.7330663196301
0
0
0
0
0
0
0
0
0
0
0
0
0
25004.681136676067
25004.681136676067
25004.681136676067
25004.681136676067
25004.681136676067
25004.681136676067
25004.681136676067
25004.681136676067
25004.681136676067
25004.681136676067
20378.546315959782
3165.9116620924606
525.32206735731756
18.652040191312913
0
0
0
0
0
0
0
0
0
0
0
25004.681136676067
25004.681136676067
25004.681136676067
25004.681136676067
25004.681136676067
25004.681136676067
25004.681136676067
25004.681136676067
25004.681136676067
25004.681136676067
21235.138200432895
3304.9369614053271
548.38835706282055
20.499127157360814
0
0
0
0
0
0
0
0
0
0
0
25004.681136676067
25004.681136676067
25004.681136676067
25004.681136676067
25004.681136676067
25004.681136676067
25004.681136676067
25004.681136676067
25004.681136676067
25004.681136676067
21573.141965235605
3370.5301818342255
560.73145564027459
21.457203591256249
0
0
0
0
0
0
0
0
0
0
0
25004.681136676067
25004.681136676067
25004.681136676067
25004.681136676067
25004.681136676067
25004.681136676067
25004.681136676067
25004.681136676067
25004.681136676067
25004.681136676067
21697.40611456706
3397.7453318366925
566.44975801601197
21.862542080284342
0
0
0
0
0
0
0
0
0
0
0
25004.681136676067
25004.681136676067
25004.681136676067
25004.681136676067
25004.681136676067
25004.681136676067
25004.681136676067
25004.681136676067
25004.681136676067
25004.681136676067
21740.158963937974
3407.8745883631414
568.75484434387465
22.002680311537191
0
0
0
0
0
0
0
0
0
0
0
25004.681136676067
25004.681136676067
25004.681136676067
25004.681136676067
25004.681136676067
25004.681136676067
25004.681136676067
25004.681136676067
25004.681136676067
25004.681136676067
21750.360481793923
3410.3961481705992
569.35450967304041
22.034134522743695
0
0
0
0
0
0
0
0
0
0
0
25004.681136676067
25004.681136676067
25004.681136676067
25004.681136676067
25004.681136676067
25004.681136676067
25004.681136676067
25004.681136676067
25004.681136676067
25004.681136676067
21740.158963935919
3407.8745883615356
568.75484434204498
22.002680309968845
0
0
0
0
0
0
0
0
0
0
0
25004.681136676067
25004.681136676067
25004.681136676067
25004.681136676067
25004.681136676067
25004.681136676067
25004.681136676067
25004.681136676067
25004.681136676067
25004.681136676067
21697.406114566798
3397.7453318366925
566.44975801601197
21.862542080284342
0
0
0
0
0
0
0
0
0
0
0
25004.681136676067
25004.681136676067
25004.681136676067
25004.681136676067
25004.681136676067
25004.681136676067
25004.681136676067
25004.681136676067
25004.681136676067
25004.681136676067
21573.141965236762
3370.5301818353082
560.73145564079732
21.457203592040422
0
0
0
0
0
0
0
0
0
0
0
25004.681136676067
25004.681136676067
25004.681136676067
25004.681136676067
25004.681136676067
25004.681136676067
25004.681136676067
25004.681136676067
25004.681136676067
25004.681136676067
21235.138200433492
3304.9369614058874
548.38835706308191
20.499127157883596
0
0
0
0
0
0
0
0
0
0
0
25004.681136676067
25004.681136676067
25004.681136676067
25004.681136676067
25004.681136676067
25004.681136676067
25004.681136676067
25004.681136676067
25004.681136676067
25004.681136676067
20378.546315958924
3165.9116620919376
525.32206735653347
18.652040190528741
0
0
0
0
0
0
0
0
0
0
0
25004.681136676067
25004.681136676067
25004.681136676067
25004.681136676067
25004.681136676067
25004.681136676067
25004.681136676067
25004.681136676067
25004.681136676067
25004.681136676067
17168.361262486971
1728.7330663206756
0
0
0
0
0
0
0
0
0
0
0
0
0
25004.681136676067
25004.681136676067
25004.681136676067
25004.681136676067
25004.681136676067
25004.681136676067
25004.681136676067
25004.681136676067
25004.681136676067
0
0
0
0
0
0
0
0
0
0
0
0
0
0
0
0
0
0
0
0
0
0
0
24805.831699140545
24980.705009987534
0
0
0
23691.287756642199
24994.639851083204
25002.750688945187
0
0
0
24460.7301231499
24999.659974569349
25003.667424201369
0
0
0
24547.532991709842
24999.902361927783
25003.698028344097
0
0
0
24544.17431558729
24999.89631143228
25003.693917442812
0
0
0
24541.481587721199
24999.884431831342
25003.692413520694
0
0
0
24540.588159582461
24999.879852672628
25003.691863636373
0
0
0
24540.306372173964
24999.878327844468
25003.691674245441
0
0
0
24540.223416957087
24999.877873308978
25003.691616595639
0
0
0
24540.223416957087
24999.877873309575
25003.691616595937
0
0
0
24540.306372173665
24999.87832784417
25003.691674245441
0
0
0
24540.588159582461
24999.879852672926
25003.691863636075
0
0
0
24541.481587721199
24999.884431831044
25003.692413521891
0
0
0
24544.17431558729
24999.896311431679
25003.69391744311
0
0
0
24547.532991710141
24999.902361928082
25003.698028344694
0
0
0
24460.730123149602
24999.659974569087
25003.667424201667
0
0
0
23691.287756642461
24994.639851083204
25002.750688945485
0
0
0
0
24805.831699140545
24980.705009987236
0
0
0
0
0
0
0
0
0
0
0
0
0
0
0
0
0
0
0
0
0
0
0
0
0
0
0
0
0
0
0
0
0
0
0
0
0
0
0
0
0
0
0
0
0
0
0
0
0
0
0
0
0
0
0
0
0
0
0
0
0
0
0
0
0
0
0
0
0
0
0
0
0
0
0
0
0
0
0
0
0
0
0
0
0
0
0
0
0
0
0
0
0
0
0
0
0
0
0
0
0
0
0
0
0
0
0
0
0
0
0
0
0
0
0
0
0
0
0
0
0
0
0
0
0
0
0
0
0
0
0
0
0
0
0
0
0
0
0
0
0
0
0
0
0
0
0
0
0
0
0
0
0
0
0
0
0
0
0
0
0
0
0
0
0
0
0
0
0
0
0
0
0
0
0
0
0
0
0
0
0
0
0
0
0
0
0
0
0
0
0
0
0
0
0
SCALARS m float 1
LOOKUP_TABLE default
0.39942306611962441
0.39942306611962441
0.39942306611962441
0.39942306611962441
0.39942306611962441
0.39942306611962441
0.39942306611962441
0.39942306611962441
0.39942306611962441
0.39942306611962441
0.39942306611962441
0.39942306611962441
0.39942306611962441
0.39942306611962441
0.39942306611962441
0.39942306611962441
0.39942306611962441
0.39942306611962441
0.39942306611962441
0.39942306611962441
0.39942306611962441
0.39942306611962441
0.39942306611962441
0.39942306611962441
0.39942306611962441
0.39942306611962441
0.39942306611962441
0.39942306611962441
0.39942306611962441
0.39942306611962441
0.39942306611962441
0.39942306611962441
0.39942306611962441
0.39942306611962441
0.39942306611962441
0.39942306611962441
0.39942306611962441
0.39942306611962441
0.39942306611962441
0.39942306611962441
0.39942306611962441
0.39942306611962441
0.39942306611962441
0.39942306611962441
0.39942306611962441
0.39942306611962441
0.39942306611962441
0.39942306611962441
0.39942306611962441
0.39942306611962441
0.39942306611962441
0.39942306611962441
0.39942306611962441
0.39942306611962441
0.39942306611962441
0.39942306611962441
0.39942306611962441
0.39942306611962441
0.39942306611962441
0.39942306611962441
0.39942306611962441
0.39942306611962441
0.39942306611962441
0.39942306611962441
0.39942306611962441
0.39942306611962441
0.39942306611962441
0.39942306611962441
0.39942306611962441
0.39942306611962441
0.39942306611962441
0.39942306611962441
0.39942306611962441
0.39942306611962441
0.39942306611962441
0.39942306611962441
0.39942306611962441
0.39942306611962441
0.39942306611962441
0.39942306611962441
0.39942306611962441
0.39942306611962441
0.39942306611962441
0.39942306611962441
0.39942306611962441
0.39942306611962441
0.39942306611962441
0.39942306611962441
0.39942306611962441
0.39942306611962441
0.39942306611962441
0.39942306611962441
0.39942306611962441
0.39942306611962441
0.39942306611962441
0.39942306611962441
0.39942306611962441
0.39942306611962441
0.39942306611962441
0.39942306611962441
0.39942306611962441
0.39942306611962441
0.39942306611962441
0.39942306611962441
0.39942306611962441
0.39942306611962441
0.39942306611962441
0.39942306611962441
0.39942306611962441
0.39942306611962441
0.39942306611962441
0.39942306611962441
0.39942306611962441
0.39942306611962441
0.39942306611962441
0.39942306611962441
0.39942306611962441
0.39942306611962441
0.39942306611962441
0.39942306611962441
0.39942306611962441
0.39942306611962441
0.39942306611962441
0.39942306611962441
0.39942306611962441
0.39942306611962441
0.39942306611962441
0.39942306611962441
0.39942306611962441
0.39942306611962441
0.39942306611962441
0.39942306611962441
0.39942306611962441
0.39942306611962441
0.39942306611962441
0.39942306611962441
0.39942306611962441
0.39942306611962441
0.39942306611962441
0.39942306611962441
0.39942306611962441
0.39942306611962441
0.39942306611962441
0.39942306611962441
0.39942306611962441
0.39942306611962441
0.39942306611962441
0.39942306611962441
0.39942306611962441
0.39942306611962441
0.39942306611962441
0.39942306611962441
0.39942306611962441
0.39942306611962441
0.39942306611962441
0.39942306611962441
0.39942306611962441
0.39942306611962441
0.39942306611962441
0.39942306611962441
0.39942306611962441
0.39942306611962441
0.39942306611962441
0.39942306611962441
0.39942306611962441
0.39942306611962441
0.39942306611962441
0.39942306611962441
0.39942306611962441
0.39942306611962441
0.39942306611962441
0.39942306611962441
0.39942306611962441
0.39942306611962441
0.39942306611962441
0.39942306611962441
0.39942306611962441
0.39942306611962441
0.39942306611962441
0.39942306611962441
0.39942306611962441
0.39942306611962441
0.39942306611962441
0.39942306611962441
0.39942306611962441
0.39942306611962441
0.39942306611962441
0.39942306611962441
0.39942306611962441
0.39942306611962441
0.39942306611962441
0.39942306611962441
0.39942306611962441
0.39942306611962441
0.39942306611962441
0.39942306611962441
0.39942306611962441
0.39942306611962441
0.39942306611962441
0.39942306611962441
0.39942306611962441
0.39942306611962441
0.39942306611962441
0.39942306611962441
0.39942306611962441
0.39942306611962441
0.39942306611962441
0.39942306611962441
0.39942306611962441
0.39942306611962441
0.39942306611962441
0.39942306611962441
0.39942306611962441
0.39942306611962441
0.39942306611962441
0.39942306611962441
0.39942306611962441
0.39942306611962441
0.39942306611962441
0.39942306611962441
0.39942306611962441
0.39942306611962441
0.39942306611962441
0.39942306611962441
0.39942306611962441
0.39942306611962441
0.39942306611962441
0.39942306611962441
0.39942306611962441
0.39942306611962441
0.39942306611962441
0.39942306611962441
0.39942306611962441
0.39942306611962441
0.39942306611962441
0.39942306611962441
0.39942306611962441
0.39942306611962441
0.39942306611962441
0.39942306611962441
0.39942306611962441
0.39942306611962441
0.39942306611962441
0.39942306611962441
0.39942306611962441
0.39942306611962441
0.39942306611962441
0.39942306611962441
0.39942306611962441
0.39942306611962441
0.39942306611962441
0.39942306611962441
0.39942306611962441
0.39942306611962441
0.39942306611962441
0.39942306611962441
0.39942306611962441
0.39942306611962441
0.39942306611962441
0.39942306611962441
0.39942306611962441
0.39942306611962441
0.39942306611962441
0.39942306611962441
0.39942306611962441
0.39942306611962441
0.39942306611962441
0.39942306611962441
0.39942306611962441
0.39942306611962441
0.39942306611962441
0.39942306611962441
0.39942306611962441
0.39942306611962441
0.39942306611962441
0.39942306611962441
0.39942306611962441
0.39942306611962441
0.39942306611962441
0.39942306611962441
0.39942306611962441
0.39942306611962441
0.39942306611962441
0.39942306611962441
0.39942306611962441
0.39942306611962441
0.39942306611962441
0.39942306611962441
0.39942306611962441
0.39942306611962441
0.39942306611962441
0.39942306611962441
0.39942306611962441
0.39942306611962441
0.39942306611962441
0.39942306611962441
0.39942306611962441
0.39942306611962441
0.39942306611962441
0.39942306611962441
0.39942306611962441
0.39942306611962441
0.39942306611962441
0.39942306611962441
0.39942306611962441
0.39942306611962441
0.39942306611962441
0.39942306611962441
0.39942306611962441
0.39942306611962441
0.39942306611962441
0.39942306611962441
0.39942306611962441
0.39942306611962441
0.39942306611962441
0.39942306611962441
0.39942306611962441
0.39942306611962441
0.39942306611962441
0.39942306611962441
0.39942306611962441
0.39942306611962441
0.39942306611962441
0.39942306611962441
0.39942306611962441
0.39942306611962441
0.39942306611962441
0.39942306611962441
0.39942306611962441
0.39942306611962441
0.39942306611962441
0.39942306611962441
0.39942306611962441
0.39942306611962441
0.39942306611962441
0.39942306611962441
0.39942306611962441
0.39942306611962441
0.39942306611962441
0.39942306611962441
0.39942306611962441
0.39942306611962441
0.39942306611962441
0.39942306611962441
0.39942306611962441
0.39942306611962441
0.39942306611962441
0.39942306611962441
0.39942306611962441
0.39942306611962441
0.39942306611962441
0.39942306611962441
0.39942306611962441
0.39942306611962441
0.39942306611962441
0.39942306611962441
0.39942306611962441
0.39942306611962441
0.39942306611962441
0.39942306611962441
0.39942306611962441
0.39942306611962441
0.39942306611962441
0.39942306611962441
0.39942306611962441
0.39942306611962441
0.39942306611962441
0.39942306611962441
0.39942306611962441
0.39942306611962441
0.39942306611962441
0.39942306611962441
0.39942306611962441
0.39942306611962441
0.39942306611962441
0.39942306611962441
0.39942306611962441
0.39942306611962441
0.39942306611962441
0.39942306611962441
0.39942306611962441
0.39942306611962441
0.39942306611962441
0.39942306611962441
0.39942306611962441
0.39942306611962441
0.39942306611962441
0.39942306611962441
0.39942306611962441
0.39942306611962441
0.39942306611962441
0.39942306611962441
0.39942306611962441
0.39942306611962441
0.39942306611962441
0.39942306611962441
0.39942306611962441
0.39942306611962441
0.39942306611962441
0.39942306611962441
0.39942306611962441
0.39942306611962441
0.39942306611962441
0.39942306611962441
0.39942306611962441
0.39942306611962441
0.39942306611962441
0.39942306611962441
0.39942306611962441
0.39942306611962441
0.39942306611962441
0.39942306611962441
0.39942306611962441
0.39942306611962441
0.39942306611962441
0.39942306611962441
0.39942306611962441
0.39942306611962441
0.39942306611962441
0.39942306611962441
0.39942306611962441
0.39942306611962441
0.39942306611962441
0.39942306611962441
0.39942306611962441
0.39942306611962441
0.39942306611962441
0.39942306611962441
0.39942306611962441
0.39942306611962441
0.39942306611962441
0.39942306611962441
0.39942306611962441
0.39942306611962441
0.39942306611962441
0.39942306611962441
0.39942306611962441
0.39942306611962441
0.39942306611962441
0.39942306611962441
0.39942306611962441
0.39942306611962441
0.39942306611962441
0.39942306611962441
0.39942306611962441
0.39942306611962441
0.39942306611962441
0.39942306611962441
0.39942306611962441
0.39942306611962441
0.39942306611962441
0.39942306611962441
0.39942306611962441
0.39942306611962441
0.39942306611962441
0.39942306611962441
0.39942306611962441
0.39942306611962441
0.39942306611962441
0.39942306611962441
0.39942306611962441
0.39942306611962441
0.39942306611962441
0.39942306611962441
0.39942306611962441
0.39942306611962441
0.39942306611962441
0.39942306611962441
0.39942306611962441
0.39942306611962441
0.39942306611962441
0.39942306611962441
0.39942306611962441
0.39942306611962441
0.39942306611962441
0.39942306611962441
0.39942306611962441
0.39942306611962441
0.39942306611962441
0.39942306611962441
0.39942306611962441
0.39942306611962441
0.39942306611962441
0.39942306611962441
0.39942306611962441
0.39942306611962441
0.39942306611962441
0.39942306611962441
0.39942306611962441
0.39942306611962441
0.39942306611962441
0.39942306611962441
0.39942306611962441
0.39942306611962441
0.39942306611962441
0.39942306611962441
0.39942306611962441
0.39942306611962441
0.39942306611962441
0.39942306611962441
0.39942306611962441
0.39942306611962441
0.39942306611962441
0.39942306611962441
0.39942306611962441
0.39942306611962441
0.39942306611962441
0.39942306611962441
0.39942306611962441
0.39942306611962441
0.39942306611962441
0.39942306611962441
0.39942306611962441
0.39942306611962441
0.39942306611962441
0.39942306611962441
0.39942306611962441
0.39942306611962441
0.39942306611962441
0.39942306611962441
0.39942306611962441
0.39942306611962441
0.39942306611962441
0.39942306611962441
0.39942306611962441
0.39942306611962441
0.39942306611962441
0.39942306611962441
0.39942306611962441
0.39942306611962441
0.39942306611962441
0.39942306611962441
0.39942306611962441
0.39942306611962441
0.39942306611962441
0.39942306611962441
0.39942306611962441
0.39942306611962441
0.39942306611962441
0.39942306611962441
0.39942306611962441
0.39942306611962441
0.39942306611962441
0.39942306611962441
0.39942306611962441
0.39942306611962441
0.39942306611962441
0.39942306611962441
0.39942306611962441
0.39942306611962441
0.39942306611962441
0.39942306611962441
0.39942306611962441
0.39942306611962441
0.39942306611962441
0.39942306611962441
0.39942306611962441
0.39942306611962441
0.39942306611962441
0.39942306611962441
0.39942306611962441
0.39942306611962441
0.39942306611962441
0.39942306611962441
0.39942306611962441
0.39942306611962441
0.39942306611962441
0.39942306611962441
0.39942306611962441
0.39942306611962441
0.39942306611962441
0.39942306611962441
0.39942306611962441
0.39942306611962441
0.39942306611962441
0.39942306611962441
0.39942306611962441
0.39942306611962441
0.39942306611962441
0.39942306611962441
0.39942306611962441
0.39942306611962441
0.39942306611962441
0.39942306611962441
0.39942306611962441
0.39942306611962441
0.39942306611962441
0.39942306611962441
0.39942306611962441
0.39942306611962441
0.39942306611962441
0.39942306611962441
0.39942306611962441
0.39942306611962441
0.39942306611962441
0.39942306611962441
0.39942306611962441
0.39942306611962441
0.39942306611962441
0.39942306611962441
0.39942306611962441
0.39942306611962441
0.39942306611962441
0.39942306611962441
0.39942306611962441
0.39942306611962441
0.39942306611962441
0.39942306611962441
0.39942306611962441
0.39942306611962441
0.39942306611962441
0.39942306611962441
0.39942306611962441
0.39942306611962441
0.39942306611962441
0.39942306611962441
0.39942306611962441
0.39942306611962441
0.39942306611962441
0.39942306611962441
0.39942306611962441
0.39942306611962441
0.39942306611962441
0.39942306611962441
0.39942306611962441
0.39942306611962441
0.39942306611962441
0.39942306611962441
0.39942306611962441
0.39942306611962441
0.39942306611962441
0.39942306611962441
0.39942306611962441
0.39942306611962441
0.39942306611962441
0.39942306611962441
0.39942306611962441
0.39942306611962441
0.39942306611962441
0.39942306611962441
0.39942306611962441
0.39942306611962441
0.39942306611962441
0.39942306611962441
0.39942306611962441
0.39942306611962441
0.39942306611962441
0.39942306611962441
0.39942306611962441
0.39942306611962441
0.39942306611962441
0.39942306611962441
0.39942306611962441
0.39942306611962441
0.39942306611962441
0.39942306611962441
0.39942306611962441
0.39942306611962441
0.39942306611962441
0.39942306611962441
0.39942306611962441
0.39942306611962441
0.39942306611962441
0.39942306611962441
0.39942306611962441
0.39942306611962441
0.39942306611962441
0.39942306611962441
0.39942306611962441
0.39942306611962441
0.39942306611962441
0.39942306611962441
0.39942306611962441
0.39942306611962441
0.39942306611962441
0.39942306611962441
0.39942306611962441
0.39942306611962441
0.39942306611962441
0.39942306611962441
0.39942306611962441
VECTORS v float
0 -0.090234841209009251 0
0 -0.12576960990897437 0
0 -0.16017356351481601 0
0 -0.20444041223632931 0
0 -0.2655747002996936 0
0 -0.35860830726456322 0
0 -0.5164557651262548 0
0 -0.82663848568603515 0
0 -1.2613820015980322 0
0 -1.4856364533835116 0
0 -1.533592054140678 0
0 -1.5418948198130338 0
0 -1.5432884985399125 0
0 -1.5435065605713607 0
0 -1.5434686414185208 0
0 -1.5432493193930477 0
0 -1.542675837324635 0
0 -1.5413484381082607 0
0 -1.5385636460610757 0
0 -1.5332887342884971 0
0 -1.5243095609290365 0
0 -1.5106453265057691 0
0 -1.4920679050521459 0
0 -1.4689620122895155 0
0 -1.3418212790287884 0
0 -0.096569670542614935 0
0 -0.13310478202148851 0
0 -0.16898505237233569 0
0 -0.2145327223915052 0
0 -0.27670009029153636 0
0 -0.36973778685015535 0
0 -0.52214682355276931 0
0 -0.80303443090358195 0
0 -1.2185933712447652 0
0 -1.4713563495040816 0
0 -1.5315385442843077 0
0 -1.5415995629034154 0
0 -1.5432393182038568 0
0 -1.5434947429579082 0
0 -1.5434577225372919 0
0 -1.5432249584765705 0
0 -1.5426184352165451 0
0 -1.5412218575573029 0
0 -1.5383050508491083 0
0 -1.532803275466412 0
0 -1.5234958307528927 0
0 -1.5095437528334732 0
0 -1.4911398120452746 0
0 -1.4686241813979746 0
0 -1.3450407996734377 0
0 -0.096918595387150017 0
0 -0.13368726062269631 0
0 -0.16985209405780144 0
0 -0.21589678841804247 0
0 -0.27881550480294554 0
0 -0.37266240145729185 0
0 -0.52484735362505996 0
0 -0.79920403814261376 0
0 -1.2046944321725455 0
0 -1.464828047446483 0
0 -1.5304321837296824 0
0 -1.5414386415501753 0
0 -1.5432133172055278 0
0 -1.5434884912124083 0
0 -1.543451465054217 0
0 -1.5432100074730655 0
0 -1.5425807675946195 0
0 -1.5411324274514762 0
0 -1.5381085231501412 0
0 -1.5324116080611125 0
0 -1.5228133771003916 0
0 -1.5085713318884391 0
0 -1.4900626302900737 0
0 -1.4674519197746327 0
0 -1.3483004048453864 0
0 -0.096802727994803009 0
0 -0.13364078933474374 0
0 -0.16988040718464048 0
0 -0.21604127751630126 0
0 -0.27913059091643022 0
0 -0.3731548810360148 0
0 -0.52528576306963159 0
0 -0.79806680626604165 0
0 -1.2006541299072986 0
0 -1.4624521869385489 0
0 -1.5298753418455056 0
0 -1.5413410602008124 0
0 -1.543196067548583 0
0 -1.5434841044339573 0
0 -1.5434468768274552 0
0 -1.543198924500562 0
0 -1.5425528865475624 0
0 -1.5410671212210187 0
0 -1.5379690341778371 0
0 -1.5321450603647866 0
0 -1.5223688437411582 0
0 -1.5079400724394758 0
0 -1.4892782117015473 0
0 -1.4665104732466918 0
0 -1.3503576147114436 0
0 -0.096723059943684603 0
0 -0.1335768826613038 0
0 -0.16983444977172643 0
0 -0.21602438467966575 0
0 -0.27915684197047047 0
0 -0.37322029102826654 0
0 -0.52531736243925553 0
0 -0.79762640663777917 0
0 -1.1993456756723477 0
0 -1.4616181731827831 0
0 -1.5296464772873331 0
0 -1.5412932419504859 0
0 -1.5431864470739725 0
0 -1.5434813820084767 0
0 -1.5434438526801113 0
0 -1.5431916278514337 0
0 -1.5425347770757798 0
0 -1.5410256013621728 0
0 -1.5378828586452844 0
0 -1.5319855780030966 0
0 -1.5221094511776274 0
0 -1.5075724607237733 0
0 -1.4888127951267218 0
0 -1.4659646169074476 0
0 -1.3513412877424986 0
0 -0.096688134871273423 0
0 -0.13354327620949411 0
0 -0.16980387799399477 0
0 -0.21600046286082822 0
0 -0.27914376726219592 0
0 -0.37321580359043149 0
0 -0.52529718153349325 0
0 -0.79745274882218453 0
0 -1.1989001804631587 0
0 -1.4613274357445274 0
0 -1.5295594361177665 0
0 -1.5412727148489818 0
0 -1.5431817831657251 0
0 -1.5434798868572119 0
0 -1.5434420790216656 0
0 -1.5431873803579412 0
0 -1.5425244291173605 0
0 -1.5410024224239565 0
0 -1.5378360045202 0
0 -1.5319010989195605 0
0 -1.5219748117694358 0
0 -1.507383634589224 0
0 -1.4885768920602702 0
0 -1.4657004649832939 0
0 -1.3517218207177557 0
0 -0.096674797386749237 0
0 -0.13352906822788291 0
0 -0.16978961721765959 0
0 -0.21598729629000249 0
0 -0.27913294670601124 0
0 -0.37320645318650641 0
0 -0.52528155907701113 0
0 -0.79738798265428223 0
0 -1.1987511709079752 0
0 -1.4612296603863384 0
0 -1.5295286459852715 0
0 -1.5412648409210188 0
0 -1.5431798169786439 0
0 -1.5434791818010134 0
0 -1.5434411945153288 0
0 -1.5431852826644388 0
0 -1.5425194114116394 0
0 -1.5409914162968052 0
0 -1.5378142443970528 0
0 -1.5318626860291102 0
0 -1.5219146736208617 0
0 -1.5073005105804285 0
0 -1.4884751686226405 0
0 -1.4655913392076216 0
0 -1.3518430974151432 0
0 -0.096671408821945762 0
0 -0.13352527343635581 0
0 -0.16978563694441581 0
0 -0.21598338484445057 0
0 -0.27912937132862287 0
0 -0.37320298741982916 0
0 -0.52527643854863859 0
0 -0.79737158364719307 0
0 -1.1987158865490239 0
0 -1.4612065058842323 0
0 -1.5295211623207083 0
0 -1.5412628409421103 0
0 -1.543179289407101 0
0 -1.5434789791068124 0
0 -1.5434409318202431 0
0 -1.5431846640504339 0
0 -1.5425179492829957 0
0 -1.540988251302349 0
0 -1.5378080716834446 0
0 -1.5318519303671183 0
0 -1.5218980295134923 0
0 -1.5072777537894775 0
0 -1.4884477297322098 0
0 -1.465562672096669 0
0 -1.3518687844040487 0
0 -0.096674797386749181 0
0 -0.13352906822788288 0
0 -0.16978961721765951 0
0 -0.21598729629000243 0
0 -0.27913294670601119 0
0 -0.37320645318650647 0
0 -0.52528155907701124 0
0 -0.79738798265428257 0
0 -1.1987511709079757 0
0 -1.4612296603863388 0
0 -1.5295286459852715 0
0 -1.5412648409210188 0
0 -1.5431798169786439 0
0 -1.5434791818010134 0
0 -1.5434411945153288 0
0 -1.5431852826644388 0
0 -1.5425194114116394 0
0 -1.5409914162968052 0
0 -1.5378142443970528 0
0 -1.5318626860291102 0
0 -1.5219146736208617 0
0 -1.5073005105804285 0
0 -1.4884751686226405 0
0 -1.4655913392076216 0
0 -1.3518430974151432 0
0 -0.096688134871273465 0
0 -0.13354327620949411 0
0 -0.16980387799399477 0
0 -0.21600046286082827 0
0 -0.27914376726219597 0
0 -0.37321580359043161 0
0 -0.52529718153349358 0
0 -0.7974527488221842 0
0 -1.1989001804631589 0
0 -1.4613274357445276 0
0 -1.5295594361177665 0
0 -1.5412727148489818 0
0 -1.5431817831657251 0
0 -1.5434798868572119 0
0 -1.5434420790216656 0
0 -1.5431873803579412 0
0 -1.5425244291173605 0
0 -1.5410024224239565 0
0 -1.5378360045202 0
0 -1.5319010989195605 0
0 -1.5219748117694358 0
0 -1.507383634589224 0
0 -1.4885768920602704 0
0 -1.4657004649832939 0
0 -1.3517218207177557 0
0 -0.096723059943684631 0
0 -0.13357688266130385 0
0 -0.16983444977172649 0
0 -0.21602438467966581 0
0 -0.27915684197047053 0
0 -0.37322029102826654 0
0 -0.52531736243925553 0
0 -0.79762640663777906 0
0 -1.1993456756723475 0
0 -1.4616181731827831 0
0 -1.5296464772873331 0
0 -1.5412932419504859 0
0 -1.5431864470739725 0
0 -1.5434813820084767 0
0 -1.5434438526801113 0
0 -1.5431916278514337 0
0 -1.5425347770757798 0
0 -1.5410256013621728 0
0 -1.5378828586452844 0
0 -1.5319855780030966 0
0 -1.5221094511776274 0
0 -1.5075724607237733 0
0 -1.4888127951267218 0
0 -1.4659646169074476 0
0 -1.3513412877424986 0
0 -0.096802727994803037 0
0 -0.13364078933474374 0
0 -0.16988040718464048 0
0 -0.21604127751630131 0
0 -0.27913059091643028 0
0 -0.3731548810360148 0
0 -0.52528576306963159 0
0 -0.79806680626604209 0
0 -1.2006541299072986 0
0 -1.4624521869385487 0
0 -1.5298753418455056 0
0 -1.5413410602008124 0
0 -1.543196067548583 0
0 -1.5434841044339573 0
0 -1.5434468768274552 0
0 -1.543198924500562 0
0 -1.5425528865475624 0
0 -1.5410671212210187 0
0 -1.5379690341778371 0
0 -1.5321450603647866 0
0 -1.5223688437411582 0
0 -1.5079400724394758 0
0 -1.4892782117015473 0
0 -1.4665104732466918 0
0 -1.3503576147114438 0
0 -0.096918595387149989 0
0 -0.13368726062269631 0
0 -0.16985209405780149 0
0 -0.21589678841804244 0
0 -0.27881550480294548 0
0 -0.37266240145729185 0
0 -0.52484735362505985 0
0 -0.79920403814261387 0
0 -1.2046944321725455 0
0 -1.464828047446483 0
0 -1.5304321837296824 0
0 -1.5414386415501753 0
0 -1.5432133172055278 0
0 -1.5434884912124083 0
0 -1.543451465054217 0
0 -1.5432100074730655 0
0 -1.5425807675946195 0
0 -1.5411324274514762 0
0 -1.5381085231501412 0
0 -1.5324116080611125 0
0 -1.5228133771003916 0
0 -1.5085713318884391 0
0 -1.4900626302900737 0
0 -1.4674519197746327 0
0 -1.3483004048453866 0
0 -0.096569670542614949 0
0 -0.13310478202148857 0
0 -0.16898505237233569 0
0 -0.21453272239150525 0
0 -0.27670009029153658 0
0 -0.36973778685015529 0
0 -0.5221468235527692 0
0 -0.80303443090358184 0
0 -1.2185933712447652 0
0 -1.4713563495040816 0
0 -1.5315385442843077 0
0 -1.5415995629034154 0
0 -1.5432393182038568 0
0 -1.5434947429579082 0
0 -1.5434577225372919 0
0 -1.5432249584765705 0
0 -1.5426184352165451 0
0 -1.5412218575573029 0
0 -1.5383050508491083 0
0 -1.532803275466412 0
0 -1.5234958307528927 0
0 -1.5095437528334732 0
0 -1.4911398120452746 0
0 -1.4686241813979746 0
0 -1.3450407996734379 0
0 -0.090234841209009278 0
0 -0.12576960990897432 0
0 -0.16017356351481604 0
0 -0.20444041223632931 0
0 -0.26557470029969366 0
0 -0.35860830726456333 0
0 -0.51645576512625457 0
0 -0.82663848568603482 0
0 -1.2613820015980317 0
0 -1.4856364533835116 0
0 -1.533592054140678 0
0 -1.5418948198130338 0
0 -1.5432884985399125 0
0 -1.5435065605713607 0
0 -1.5434686414185208 0
0 -1.5432493193930477 0
0 -1.542675837324635 0
0 -1.5413484381082607 0
0 -1.5385636460610757 0
0 -1.5332887342884971 0
0 -1.5243095609290365 0
0 -1.5106453265057691 0
0 -1.4920679050521459 0
0 -1.4689620122895155 0
0 -1.3418212790287889 0
-0 -0 0
-0 -0 0
-0 -0 0
-0 -0 0
-0 -0 0
-0 -0 0
-0 -0 0
-0 0.10529300080154544 0
-0 0.1644206652935481 0
-0 -0 0
-0 -0 0
-0 -0 0
-0 0.086292501069069494 0
-0 0.1213258861099374 0
-0 0.17965452185166667 0
-0 -0 0
-0 -0 0
-0 -0 0
-0 0.092842767172464702 0
-0 0.12433554141991897 0
-0 0.18264704254612713 0
-0 -0 0
-0 -0 0
-0 -0 0
-0 0.095933531239758604 0
-0 0.12654078995092627 0
-0 0.1845157487333022 0
-0 -0 0
-0 -0 0
-0 -0 0
-0 0.09600921902224073 0
-0 0.12670349673058459 0
-0 0.18473480039609566 0
-0 -0 0
-0 -0 0
-0 -0 0
-0 0.095886458113975601 0
-0 0.12658091500408844 0
-0 0.18456668188390085 0
-0 -0 0
-0 -0 0
-0 -0 0
-0 0.095820632070132833 0
-0 0.12650322463203889 0
-0 0.18446150307281831 0
-0 -0 0
-0 -0 0
-0 -0 0
-0 0.095793790608193624 0
-0 0.1264692304842549 0
-0 0.1844147334877492 0
-0 -0 0
-0 -0 0
-0 -0 0
-0 0.095784636448323565 0
-0 0.1264572300846753 0
-0 0.18439794501220477 0
-0 -0 0
-0 -0 0
-0 -0 0
-0 0.095784636448323524 0
-0 0.12645723008467527 0
-0 0.1843979450122048 0
-0 -0 0
-0 -0 0
-0 -0 0
-0 0.095793790608193652 0
-0 0.1264692304842549 0
-0 0.18441473348774923 0
-0 -0 0
-0 -0 0
-0 -0 0
-0 0.095820632070132888 0
-0 0.12650322463203892 0
-0 0.18446150307281825 0
-0 -0 0
-0 -0 0
-0 -0 0
-0 0.095886458113975614 0
-0 0.12658091500408847 0
-0 0.18456668188390102 0
-0 -0 0
-0 -0 0
-0 -0 0
-0 0.09600921902224073 0
-0 0.12670349673058459 0
-0 0.18473480039609566 0
-0 -0 0
-0 -0 0
-0 -0 0
-0 0.09593353123975859 0
-0 0.12654078995092627 0
-0 0.18451574873330231 0
-0 -0 0
-0 -0 0
-0 -0 0
-0 0.09284276717246473 0
-0 0.12433554141991897 0
-0 0.18264704254612718 0
-0 -0 0
-0 -0 0
-0 -0 0
-0 0.086292501069069563 0
-0 0.12132588610993739 0
-0 0.17965452185166667 0
-0 -0 0
-0 -0 0
-0 -0 0
-0 -0 0
-0 0.10529300080154551 0
-0 0.16442066529354815 0
-0 -0 0
-0 -0 0
-0 -0 0
-0 -0 0
-0 -0 0
-0 -0 0
-0 -0 0
-0 -0 0
-0 -0 0
-0 -0 0
-0 -0 0
-0 -0 0
-0 -0 0
-0 -0 0
-0 -0 0
-0 -0 0
-0 -0 0
-0 -0 0
-0 -0 0
-0 -0 0
-0 -0 0
-0 -0 0
-0 -0 0
-0 -0 0
-0 -0 0
-0 -0 0
-0 -0 0
-0 -0 0
-0 -0 0
-0 -0 0
-0 -0 0
-0 -0 0
-0 -0 0
-0 -0 0
-0 -0 0
-0 -0 0
-0 -0 0
-0 -0 0
-0 -0 0
-0 -0 0
-0 -0 0
-0 -0 0
-0 -0 0
-0 -0 0
-0 -0 0
-0 -0 0
-0 -0 0
-0 -0 0
-0 -0 0
-0 -0 0
-0 -0 0
-0 -0 0
-0 -0 0
-0 -0 0
-0 -0 0
-0 -0 0
-0 -0 0
-0 -0 0
-0 -0 0
-0 -0 0
-0 -0 0
-0 -0 0
-0 -0 0
-0 -0 0
-0 -0 0
-0 -0 0
-0 -0 0
-0 -0 0
-0 -0 0
-0 -0 0
-0 -0 0
-0 -0 0
-0 -0 0
-0 -0 0
-0 -0 0
-0 -0 0
-0 -0 0
-0 -0 0
-0 -0 0
-0 -0 0
-0 -0 0
-0 -0 0
-0 -0 0
-0 -0 0
-0 -0 0
-0 -0 0
-0 -0 0
-0 -0 0
-0 -0 0
-0 -0 0
-0 -0 0
-0 -0 0
-0 -0 0
-0 -0 0
-0 -0 0
-0 -0 0
-0 -0 0
-0 -0 0
-0 -0 0
-0 -0 0
-0 -0 0
-0 -0 0
-0 -0 0
-0 -0 0
-0 -0 0
-0 -0 0
-0 -0 0
-0 -0 0
-0 -0 0
-0 -0 0
-0 -0 0
-0 -0 0
-0 -0 0
-0 -0 0
-0 -0 0
-0 -0 0
-0 -0 0
-0 -0 0
-0 -0 0
-0 -0 0
-0 -0 0
-0 -0 0
-0 -0 0
-0 -0 0
-0 -0 0
-0 -0 0
-0 -0 0
-0 -0 0
-0 -0 0
-0 -0 0
-0 -0 0
-0 -0 0
-0 -0 0
-0 -0 0
-0 -0 0
-0 -0 0
-0 -0 0
-0 -0 0
-0 -0 0
-0 -0 0
-0 -0 0
-0 -0 0
-0 -0 0
-0 -0 0
-0 -0 0
-0 -0 0
-0 -0 0
-0 -0 0
-0 -0 0
-0 -0 0
-0 -0 0
-0 -0 0
-0 -0 0
-0 -0 0
-0 -0 0
-0 -0 0
-0 -0 0
-0 -0 0
-0 -0 0
-0 -0 0
-0 -0 0
-0 -0 0
-0 -0 0
-0 -0 0
-0 -0 0
-0 -0 0
-0 -0 0
-0 -0 0
-0 -0 0
-0 -0 0
-0 -0 0
-0 -0 0
-0 -0 0
-0 -0 0
-0 -0 0
-0 -0 0
-0 -0 0
-0 -0 0
-0 -0 0
-0 -0 0
-0 -0 0
-0 -0 0
-0 -0 0
-0 -0 0
-0 -0 0
-0 -0 0
-0 -0 0
-0 -0 0
-0 -0 0
-0 -0 0
-0 -0 0
-0 -0 0
-0 -0 0
-0 -0 0
-0 -0 0
