# vtk DataFile Version 3.0
SPH particles (WCSPH) - legacy PolyData
ASCII
DATASET POLYDATA
POINTS 681 float
0.050000000000000003 0.038084041531698178 0
0.050000000000000003 0.043097952444146201 0
0.050000000000000003 0.047331752831255389 0
0.050000000000000003 0.051954677930200137 0
0.050000000000000003 0.057159537185036823 0
0.050000000000000003 0.063344604069274627 0
0.050000000000000003 0.071352451838935863 0
0.050000000000000003 0.083009338450596271 0
0.050000000000000003 0.099522367001561293 0
0.050000000000000003 0.11870278831967744 0
0.050000000000000003 0.13854647777725654 0
0.050000000000000003 0.15851744635180021 0
0.050000000000000003 0.17851200367863324 0
0.050000000000000003 0.19851131085427864 0
0.050000000000000003 0.21851247578465402 0
0.050000000000000003 0.23851692654173198 0
0.050000000000000003 0.25853058617032043 0
0.050000000000000003 0.27856936136549598 0
0.050000000000000003 0.29867164706019245 0
0.050000000000000003 0.31892205522588951 0
0.050000000000000003 0.33949168120688383 0
0.050000000000000003 0.36070295068306762 0
0.050000000000000003 0.38314921278040154 0
0.050000000000000003 0.40813990254935129 0
0.050000000000000003 0.44598381542192178 0
0.070000000000000007 0.03722785554859339 0
0.070000000000000007 0.042646101641517456 0
0.070000000000000007 0.047278603777464907 0
0.070000000000000007 0.052221625946927176 0
0.070000000000000007 0.057700366480738327 0
0.070000000000000007 0.06412045165076323 0
0.070000000000000007 0.072256015077524924 0
0.070000000000000007 0.083672876556194348 0
0.070000000000000007 0.099733520770868583 0
0.070000000000000007 0.11873797267358686 0
0.070000000000000007 0.13855210251625508 0
0.070000000000000007 0.15851846013200802 0
0.070000000000000007 0.1785122120663338 0
0.070000000000000007 0.19851140320902613 0
0.070000000000000007 0.21851266177067796 0
0.070000000000000007 0.23851748022180375 0
0.070000000000000007 0.2585321943320506 0
0.070000000000000007 0.27857377193228744 0
0.070000000000000007 0.29868308544572958 0
0.070000000000000007 0.31895019690528081 0
0.070000000000000007 0.33955720065932443 0
0.070000000000000007 0.3608442141867686 0
0.070000000000000007 0.38340261112383711 0
0.070000000000000007 0.40846956413144248 0
0.070000000000000007 0.44527994893477146 0
0.090000000000000011 0.037242384141560531 0
0.090000000000000011 0.042682213251593798 0
0.090000000000000011 0.047339470784858201 0
0.090000000000000011 0.052320397966484106 0
0.090000000000000011 0.05785165598587641 0
0.090000000000000011 0.06433663370338924 0
0.090000000000000011 0.072529862951471041 0
0.090000000000000011 0.0839137552218608 0
0.090000000000000011 0.099829766491665348 0
0.090000000000000011 0.11875641162418206 0
0.090000000000000011 0.13855507431087233 0
0.090000000000000011 0.15851897662124406 0
0.090000000000000011 0.17851231581908281 0
0.090000000000000011 0.19851144983624802 0
0.090000000000000011 0.21851275937083947 0
0.090000000000000011 0.23851778073160607 0
0.090000000000000011 0.25853310313452416 0
0.090000000000000011 0.27857638507230759 0
0.090000000000000011 0.29869019208772046 0
0.090000000000000011 0.3189683007939586 0
0.090000000000000011 0.3395994917822962 0
0.090000000000000011 0.3609308448924648 0
0.090000000000000011 0.38354397081108071 0
0.090000000000000011 0.40863293691806474 0
0.090000000000000011 0.44503352936668594 0
0.11000000000000001 0.037261511459897659 0
0.11000000000000001 0.042708656284844174 0
0.11000000000000001 0.047373389215439807 0
0.11000000000000001 0.05236392226208695 0
0.11000000000000001 0.057907659205379949 0
0.11000000000000001 0.064407877771531105 0
0.11000000000000001 0.072615113012768531 0
0.11000000000000001 0.083991653795775431 0
0.11000000000000001 0.099866914351017813 0
0.11000000000000001 0.11876576138998621 0
0.11000000000000001 0.13855687281666615 0
0.11000000000000001 0.1585193139608127 0
0.11000000000000001 0.17851238575201647 0
0.11000000000000001 0.19851148181423292 0
0.11000000000000001 0.21851282660004095 0
0.11000000000000001 0.23851798723168885 0
0.11000000000000001 0.25853372202867014 0
0.11000000000000001 0.27857812765333839 0
0.11000000000000001 0.29869474692963016 0
0.11000000000000001 0.31897917519247726 0
0.11000000000000001 0.33962259231865027 0
0.11000000000000001 0.36097272060287766 0
0.11000000000000001 0.38360569843192061 0
0.11000000000000001 0.40870228600729913 0
0.11000000000000001 0.44494358088798919 0
0.13 0.037267596355122098 0
0.13 0.042718218142029266 0
0.13 0.047385962983070143 0
0.13 0.052379882942347029 0
0.13 0.057927649933723034 0
0.13 0.064432485630320502 0
0.13 0.072643719182126532 0
0.13 0.084017842327953521 0
0.13 0.099880388798835401 0
0.13 0.11876968910099041 0
0.13 0.13855775949245197 0
0.13 0.15851950026124648 0
0.13 0.17851242722522795 0
0.13 0.19851150161426859 0
0.13 0.21851286809759141 0
0.13 0.23851811264744102 0
0.13 0.25853408904074482 0
0.13 0.27857912538514568 0
0.13 0.29869722902352353 0
0.13 0.31898472492342395 0
0.13 0.33963347819306644 0
0.13 0.36099088853067224 0
0.13 0.38363072264971132 0
0.13 0.40872932770365533 0
0.13 0.4449156348551313 0
0.15000000000000002 0.037269438446033934 0
0.15000000000000002 0.042721314823326889 0
0.15000000000000002 0.047390149156482 0
0.15000000000000002 0.052385269915553985 0
0.15000000000000002 0.057934424463035136 0
0.15000000000000002 0.064440804788515743 0
0.15000000000000002 0.072653340616423853 0
0.15000000000000002 0.084026688120900681 0
0.15000000000000002 0.099885130749319387 0
0.15000000000000002 0.11877120036692519 0
0.15000000000000002 0.13855814210509859 0
0.15000000000000002 0.15851958960018636 0
0.15000000000000002 0.1785124488533486 0
0.15000000000000002 0.19851151255117147 0
0.15000000000000002 0.21851289083455822 0
0.15000000000000002 0.23851817969697664 0
0.15000000000000002 0.2585342792087057 0
0.15000000000000002 0.27857962201156244 0
0.15000000000000002 0.29869840430075556 0
0.15000000000000002 0.31898720272894415 0
0.15000000000000002 0.33963804088399607 0
0.15000000000000002 0.36099807277647439 0
0.15000000000000002 0.38364010164575085 0
0.15000000000000002 0.40873906644595143 0
0.15000000000000002 0.44490834096267012 0
0.17000000000000004 0.037270004174187056 0
0.17000000000000004 0.042722280934513315 0
0.17000000000000004 0.047391469461676154 0
0.17000000000000004 0.052386983999044054 0
0.17000000000000004 0.057936592634507803 0
0.17000000000000004 0.064443476023825719 0
0.17000000000000004 0.072656436683876502 0
0.17000000000000004 0.084029554951644062 0
0.17000000000000004 0.099886710434728049 0
0.17000000000000004 0.11877173407267995 0
0.17000000000000004 0.1385582884963987 0
0.17000000000000004 0.15851962671173622 0
0.17000000000000004 0.17851245853888384 0
0.17000000000000004 0.19851151772582828 0
0.17000000000000004 0.21851290147655372 0
0.17000000000000004 0.23851821026265579 0
0.17000000000000004 0.25853436321767959 0
0.17000000000000004 0.27857983328007668 0
0.17000000000000004 0.2986988828572415 0
0.17000000000000004 0.31898816442136502 0
0.17000000000000004 0.33963972812245236 0
0.17000000000000004 0.36100061306586584 0
0.17000000000000004 0.38364329054138635 0
0.17000000000000004 0.4087422740278433 0
0.17000000000000004 0.44490678268923339 0
0.19 0.037270130941011372 0
0.19 0.042722498429856828 0
0.19 0.047391767875092312 0
0.19 0.052387372949475465 0
0.19 0.057937086151012014 0
0.19 0.064444085381862887 0
0.19 0.072657144361262999 0
0.19 0.084030213570706142 0
0.19 0.099887079225850411 0
0.19 0.11877186281346236 0
0.19 0.13855832544729155 0
0.19 0.15851963654239615 0
0.19 0.17851246122724052 0
0.19 0.19851151921277163 0
0.19 0.21851290450877364 0
0.19 0.23851821881361074 0
0.19 0.25853438622562719 0
0.19 0.27857988972428227 0
0.19 0.29869900719337039 0
0.19 0.31898840697645908 0
0.19 0.33964014126740683 0
0.19 0.36100121733844226 0
0.19 0.38364403318999629 0
0.19 0.40874300835261457 0
0.19 0.44490655482114261 0
0.21000000000000002 0.037270004174187063 0
0.21000000000000002 0.042722280934513322 0
0.21000000000000002 0.047391469461676154 0
0.21000000000000002 0.052386983999044054 0
0.21000000000000002 0.057936592634507803 0
0.21000000000000002 0.064443476023825719 0
0.21000000000000002 0.072656436683876502 0
0.21000000000000002 0.084029554951644062 0
0.21000000000000002 0.099886710434728049 0
0.21000000000000002 0.11877173407267995 0
0.21000000000000002 0.1385582884963987 0
0.21000000000000002 0.15851962671173622 0
0.21000000000000002 0.17851245853888384 0
0.21000000000000002 0.19851151772582828 0
0.21000000000000002 0.21851290147655372 0
0.21000000000000002 0.23851821026265579 0
0.21000000000000002 0.25853436321767959 0
0.21000000000000002 0.27857983328007668 0
0.21000000000000002 0.2986988828572415 0
0.21000000000000002 0.31898816442136502 0
0.21000000000000002 0.33963972812245236 0
0.21000000000000002 0.36100061306586584 0
0.21000000000000002 0.38364329054138635 0
0.21000000000000002 0.4087422740278433 0
0.21000000000000002 0.44490678268923339 0
0.23000000000000004 0.037269438446033941 0
0.23000000000000004 0.042721314823326889 0
0.23000000000000004 0.047390149156482 0
0.23000000000000004 0.052385269915553985 0
0.23000000000000004 0.057934424463035143 0
0.23000000000000004 0.064440804788515743 0
0.23000000000000004 0.072653340616423867 0
0.23000000000000004 0.084026688120900681 0
0.23000000000000004 0.099885130749319387 0
0.23000000000000004 0.11877120036692519 0
0.23000000000000004 0.13855814210509859 0
0.23000000000000004 0.15851958960018636 0
0.23000000000000004 0.1785124488533486 0
0.23000000000000004 0.19851151255117147 0
0.23000000000000004 0.21851289083455822 0
0.23000000000000004 0.23851817969697664 0
0.23000000000000004 0.2585342792087057 0
0.23000000000000004 0.27857962201156244 0
0.23000000000000004 0.29869840430075556 0
0.23000000000000004 0.31898720272894415 0
0.23000000000000004 0.33963804088399607 0
0.23000000000000004 0.36099807277647439 0
0.23000000000000004 0.38364010164575085 0
0.23000000000000004 0.40873906644595143 0
0.23000000000000004 0.44490834096267018 0
0.25000000000000006 0.037267596355122092 0
0.25000000000000006 0.042718218142029266 0
0.25000000000000006 0.047385962983070143 0
0.25000000000000006 0.052379882942347029 0
0.25000000000000006 0.057927649933723034 0
0.25000000000000006 0.064432485630320502 0
0.25000000000000006 0.072643719182126532 0
0.25000000000000006 0.084017842327953521 0
0.25000000000000006 0.099880388798835401 0
0.25000000000000006 0.11876968910099041 0
0.25000000000000006 0.13855775949245197 0
0.25000000000000006 0.15851950026124648 0
0.25000000000000006 0.17851242722522795 0
0.25000000000000006 0.19851150161426859 0
0.25000000000000006 0.21851286809759141 0
0.25000000000000006 0.23851811264744102 0
0.25000000000000006 0.25853408904074482 0
0.25000000000000006 0.27857912538514568 0
0.25000000000000006 0.29869722902352353 0
0.25000000000000006 0.31898472492342395 0
0.25000000000000006 0.33963347819306644 0
0.25000000000000006 0.36099088853067224 0
0.25000000000000006 0.38363072264971132 0
0.25000000000000006 0.40872932770365533 0
0.25000000000000006 0.4449156348551313 0
0.27000000000000002 0.037261511459897652 0
0.27000000000000002 0.042708656284844167 0
0.27000000000000002 0.047373389215439807 0
0.27000000000000002 0.05236392226208695 0
0.27000000000000002 0.057907659205379949 0
0.27000000000000002 0.064407877771531105 0
0.27000000000000002 0.072615113012768531 0
0.27000000000000002 0.083991653795775445 0
0.27000000000000002 0.099866914351017827 0
0.27000000000000002 0.11876576138998621 0
0.27000000000000002 0.13855687281666615 0
0.27000000000000002 0.1585193139608127 0
0.27000000000000002 0.17851238575201647 0
0.27000000000000002 0.19851148181423292 0
0.27000000000000002 0.21851282660004095 0
0.27000000000000002 0.23851798723168885 0
0.27000000000000002 0.25853372202867014 0
0.27000000000000002 0.27857812765333839 0
0.27000000000000002 0.29869474692963016 0
0.27000000000000002 0.31897917519247726 0
0.27000000000000002 0.33962259231865027 0
0.27000000000000002 0.36097272060287766 0
0.27000000000000002 0.38360569843192061 0
0.27000000000000002 0.40870228600729913 0
0.27000000000000002 0.44494358088798919 0
0.29000000000000004 0.037242384141560544 0
0.29000000000000004 0.042682213251593812 0
0.29000000000000004 0.047339470784858215 0
0.29000000000000004 0.052320397966484113 0
0.29000000000000004 0.05785165598587641 0
0.29000000000000004 0.064336633703389254 0
0.29000000000000004 0.072529862951471041 0
0.29000000000000004 0.0839137552218608 0
0.29000000000000004 0.099829766491665348 0
0.29000000000000004 0.11875641162418206 0
0.29000000000000004 0.13855507431087233 0
0.29000000000000004 0.15851897662124406 0
0.29000000000000004 0.17851231581908281 0
0.29000000000000004 0.19851144983624802 0
0.29000000000000004 0.21851275937083947 0
0.29000000000000004 0.23851778073160607 0
0.29000000000000004 0.25853310313452416 0
0.29000000000000004 0.27857638507230759 0
0.29000000000000004 0.29869019208772046 0
0.29000000000000004 0.3189683007939586 0
0.29000000000000004 0.3395994917822962 0
0.29000000000000004 0.3609308448924648 0
0.29000000000000004 0.38354397081108071 0
0.29000000000000004 0.40863293691806474 0
0.29000000000000004 0.44503352936668594 0
0.31000000000000005 0.037227855548593383 0
0.31000000000000005 0.042646101641517456 0
0.31000000000000005 0.0472786037774649 0
0.31000000000000005 0.052221625946927176 0
0.31000000000000005 0.057700366480738341 0
0.31000000000000005 0.06412045165076323 0
0.31000000000000005 0.072256015077524924 0
0.31000000000000005 0.083672876556194348 0
0.31000000000000005 0.099733520770868583 0
0.31000000000000005 0.11873797267358686 0
0.31000000000000005 0.13855210251625508 0
0.31000000000000005 0.15851846013200802 0
0.31000000000000005 0.1785122120663338 0
0.31000000000000005 0.19851140320902613 0
0.31000000000000005 0.21851266177067796 0
0.31000000000000005 0.23851748022180375 0
0.31000000000000005 0.2585321943320506 0
0.31000000000000005 0.27857377193228744 0
0.31000000000000005 0.29868308544572958 0
0.31000000000000005 0.31895019690528081 0
0.31000000000000005 0.33955720065932443 0
0.31000000000000005 0.3608442141867686 0
0.31000000000000005 0.38340261112383711 0
0.31000000000000005 0.40846956413144248 0
0.31000000000000005 0.44527994893477146 0
0.33000000000000002 0.038084041531698164 0
0.33000000000000002 0.043097952444146187 0
0.33000000000000002 0.047331752831255382 0
0.33000000000000002 0.05195467793020013 0
0.33000000000000002 0.057159537185036823 0
0.33000000000000002 0.063344604069274613 0
0.33000000000000002 0.071352451838935863 0
0.33000000000000002 0.083009338450596271 0
0.33000000000000002 0.099522367001561293 0
0.33000000000000002 0.11870278831967744 0
0.33000000000000002 0.13854647777725654 0
0.33000000000000002 0.15851744635180021 0
0.33000000000000002 0.17851200367863324 0
0.33000000000000002 0.19851131085427864 0
0.33000000000000002 0.21851247578465402 0
0.33000000000000002 0.23851692654173198 0
0.33000000000000002 0.25853058617032043 0
0.33000000000000002 0.27856936136549598 0
0.33000000000000002 0.29867164706019245 0
0.33000000000000002 0.31892205522588951 0
0.33000000000000002 0.33949168120688383 0
0.33000000000000002 0.36070295068306762 0
0.33000000000000002 0.38314921278040154 0
0.33000000000000002 0.40813990254935129 0
0.33000000000000002 0.44598381542192178 0
0 0 0
0 0.020000000000000004 0
0 0.040000000000000001 0
0 0.54999999999999993 0
0 0.56000000000000005 0
0 0.58000000000000007 0
0.02 0 0
0.02 0.020000000000000004 0
0.02 0.040000000000000001 0
0.02 0.54999999999999993 0
0.02 0.56000000000000005 0
0.02 0.58000000000000007 0
0.040000000000000001 0 0
0.040000000000000001 0.020000000000000004 0
0.040000000000000001 0.040000000000000001 0
0.040000000000000001 0.54999999999999993 0
0.040000000000000001 0.56000000000000005 0
0.040000000000000001 0.58000000000000007 0
0.059999999999999998 0 0
0.059999999999999998 0.020000000000000004 0
0.059999999999999998 0.040000000000000001 0
0.059999999999999998 0.54999999999999993 0
0.059999999999999998 0.56000000000000005 0
0.059999999999999998 0.58000000000000007 0
0.080000000000000002 0 0
0.080000000000000002 0.020000000000000004 0
0.080000000000000002 0.040000000000000001 0
0.080000000000000002 0.54999999999999993 0
0.080000000000000002 0.56000000000000005 0
0.080000000000000002 0.58000000000000007 0
0.10000000000000001 0 0
0.10000000000000001 0.020000000000000004 0
0.10000000000000001 0.040000000000000001 0
0.10000000000000001 0.54999999999999993 0
0.10000000000000001 0.56000000000000005 0
0.10000000000000001 0.58000000000000007 0
0.12 0 0
0.12 0.020000000000000004 0
0.12 0.040000000000000001 0
0.12 0.54999999999999993 0
0.12 0.56000000000000005 0
0.12 0.58000000000000007 0
0.14000000000000001 0 0
0.14000000000000001 0.020000000000000004 0
0.14000000000000001 0.040000000000000001 0
0.14000000000000001 0.54999999999999993 0
0.14000000000000001 0.56000000000000005 0
0.14000000000000001 0.58000000000000007 0
0.16 0 0
0.16 0.020000000000000004 0
0.16 0.040000000000000001 0
0.16 0.54999999999999993 0
0.16 0.56000000000000005 0
0.16 0.58000000000000007 0
0.17999999999999999 0 0
0.17999999999999999 0.020000000000000004 0
0.17999999999999999 0.040000000000000001 0
0.17999999999999999 0.54999999999999993 0
0.17999999999999999 0.56000000000000005 0
0.17999999999999999 0.58000000000000007 0
0.20000000000000001 0 0
0.20000000000000001 0.020000000000000004 0
0.20000000000000001 0.040000000000000001 0
0.20000000000000001 0.54999999999999993 0
0.20000000000000001 0.56000000000000005 0
0.20000000000000001 0.58000000000000007 0
0.22 0 0
0.22 0.020000000000000004 0
0.22 0.040000000000000001 0
0.22 0.54999999999999993 0
0.22 0.56000000000000005 0
0.22 0.58000000000000007 0
0.23999999999999999 0 0
0.23999999999999999 0.020000000000000004 0
0.23999999999999999 0.040000000000000001 0
0.23999999999999999 0.54999999999999993 0
0.23999999999999999 0.56000000000000005 0
0.23999999999999999 0.58000000000000007 0
0.26000000000000001 0 0
0.26000000000000001 0.020000000000000004 0
0.26000000000000001 0.040000000000000001 0
0.26000000000000001 0.54999999999999993 0
0.26000000000000001 0.56000000000000005 0
0.26000000000000001 0.58000000000000007 0
0.28000000000000003 0 0
0.28000000000000003 0.020000000000000004 0
0.28000000000000003 0.040000000000000001 0
0.28000000000000003 0.54999999999999993 0
0.28000000000000003 0.56000000000000005 0
0.28000000000000003 0.58000000000000007 0
0.29999999999999999 0 0
0.29999999999999999 0.020000000000000004 0
0.29999999999999999 0.040000000000000001 0
0.29999999999999999 0.54999999999999993 0
0.29999999999999999 0.56000000000000005 0
0.29999999999999999 0.58000000000000007 0
0.32000000000000001 0 0
0.32000000000000001 0.020000000000000004 0
0.32000000000000001 0.040000000000000001 0
0.32000000000000001 0.54999999999999993 0
0.32000000000000001 0.56000000000000005 0
0.32000000000000001 0.58000000000000007 0
0.34000000000000002 0 0
0.34000000000000002 0.020000000000000004 0
0.34000000000000002 0.040000000000000001 0
0.34000000000000002 0.54999999999999993 0
0.34000000000000002 0.56000000000000005 0
0.34000000000000002 0.58000000000000007 0
0.35999999999999999 0 0
0.35999999999999999 0.020000000000000004 0
0.35999999999999999 0.040000000000000001 0
0.35999999999999999 0.54999999999999993 0
0.35999999999999999 0.56000000000000005 0
0.35999999999999999 0.58000000000000007 0
0.38 0 0
0.38 0.020000000000000004 0
0.38 0.040000000000000001 0
0.38 0.54999999999999993 0
0.38 0.56000000000000005 0
0.38 0.58000000000000007 0
0.40000000000000002 0 0
0.40000000000000002 0.020000000000000004 0
0.40000000000000002 0.040000000000000001 0
0.40000000000000002 0.54999999999999993 0
0.40000000000000002 0.56000000000000005 0
0.40000000000000002 0.58000000000000007 0
0.41999999999999998 0 0
0.41999999999999998 0.020000000000000004 0
0.41999999999999998 0.040000000000000001 0
0.41999999999999998 0.54999999999999993 0
0.41999999999999998 0.56000000000000005 0
0.41999999999999998 0.58000000000000007 0
0.44 0 0
0.44 0.020000000000000004 0
0.44 0.040000000000000001 0
0.44 0.54999999999999993 0
0.44 0.56000000000000005 0
0.44 0.58000000000000007 0
0.46000000000000002 0 0
0.46000000000000002 0.020000000000000004 0
0.46000000000000002 0.040000000000000001 0
0.46000000000000002 0.54999999999999993 0
0.46000000000000002 0.56000000000000005 0
0.46000000000000002 0.58000000000000007 0
0.47999999999999998 0 0
0.47999999999999998 0.020000000000000004 0
0.47999999999999998 0.040000000000000001 0
0.47999999999999998 0.54999999999999993 0
0.47999999999999998 0.56000000000000005 0
0.47999999999999998 0.58000000000000007 0
0.5 0 0
0.5 0.020000000000000004 0
0.5 0.040000000000000001 0
0.5 0.54999999999999993 0
0.5 0.56000000000000005 0
0.5 0.58000000000000007 0
0.52000000000000002 0 0
0.52000000000000002 0.020000000000000004 0
0.52000000000000002 0.040000000000000001 0
0.52000000000000002 0.54999999999999993 0
0.52000000000000002 0.56000000000000005 0
0.52000000000000002 0.58000000000000007 0
0.54000000000000004 0 0
0.54000000000000004 0.020000000000000004 0
0.54000000000000004 0.040000000000000001 0
0.54000000000000004 0.54999999999999993 0
0.54000000000000004 0.56000000000000005 0
0.54000000000000004 0.58000000000000007 0
0.56000000000000005 0 0
0.56000000000000005 0.020000000000000004 0
0.56000000000000005 0.040000000000000001 0
0.56000000000000005 0.54999999999999993 0
0.56000000000000005 0.56000000000000005 0
0.56000000000000005 0.58000000000000007 0
0.57999999999999996 0 0
0.57999999999999996 0.020000000000000004 0
0.57999999999999996 0.040000000000000001 0
0.57999999999999996 0.54999999999999993 0
0.57999999999999996 0.56000000000000005 0
0.57999999999999996 0.58000000000000007 0
0.59999999999999998 0 0
0.59999999999999998 0.020000000000000004 0
0.59999999999999998 0.040000000000000001 0
0.59999999999999998 0.54999999999999993 0
0.59999999999999998 0.56000000000000005 0
0.59999999999999998 0.58000000000000007 0
0.62 0 0
0.62 0.020000000000000004 0
0.62 0.040000000000000001 0
0.62 0.54999999999999993 0
0.62 0.56000000000000005 0
0.62 0.58000000000000007 0
0.64000000000000001 0 0
0.64000000000000001 0.020000000000000004 0
0.64000000000000001 0.040000000000000001 0
0.64000000000000001 0.54999999999999993 0
0.64000000000000001 0.56000000000000005 0
0.64000000000000001 0.58000000000000007 0
0.66000000000000003 0 0
0.66000000000000003 0.020000000000000004 0
0.66000000000000003 0.040000000000000001 0
0.66000000000000003 0.54999999999999993 0
0.66000000000000003 0.56000000000000005 0
0.66000000000000003 0.58000000000000007 0
0.68000000000000005 0 0
0.68000000000000005 0.020000000000000004 0
0.68000000000000005 0.040000000000000001 0
0.68000000000000005 0.54999999999999993 0
0.68000000000000005 0.56000000000000005 0
0.68000000000000005 0.58000000000000007 0
0.70000000000000007 0 0
0.70000000000000007 0.020000000000000004 0
0.70000000000000007 0.040000000000000001 0
0.70000000000000007 0.54999999999999993 0
0.70000000000000007 0.56000000000000005 0
0.70000000000000007 0.58000000000000007 0
0.71999999999999997 0 0
0.71999999999999997 0.020000000000000004 0
0.71999999999999997 0.040000000000000001 0
0.71999999999999997 0.54999999999999993 0
0.71999999999999997 0.56000000000000005 0
0.71999999999999997 0.58000000000000007 0
0.73999999999999999 0 0
0.73999999999999999 0.020000000000000004 0
0.73999999999999999 0.040000000000000001 0
0.73999999999999999 0.54999999999999993 0
0.73999999999999999 0.56000000000000005 0
0.73999999999999999 0.58000000000000007 0
0.76000000000000001 0 0
0.76000000000000001 0.020000000000000004 0
0.76000000000000001 0.040000000000000001 0
0.76000000000000001 0.54999999999999993 0
0.76000000000000001 0.56000000000000005 0
0.76000000000000001 0.58000000000000007 0
0.78000000000000003 0 0
0.78000000000000003 0.020000000000000004 0
0.78000000000000003 0.040000000000000001 0
0.78000000000000003 0.54999999999999993 0
0.78000000000000003 0.56000000000000005 0
0.78000000000000003 0.58000000000000007 0
0.80000000000000004 0 0
0.80000000000000004 0.020000000000000004 0
0.80000000000000004 0.040000000000000001 0
0.80000000000000004 0.54999999999999993 0
0.80000000000000004 0.56000000000000005 0
0.80000000000000004 0.58000000000000007 0
0.82000000000000006 0 0
0.82000000000000006 0.020000000000000004 0
0.82000000000000006 0.040000000000000001 0
0.82000000000000006 0.54999999999999993 0
0.82000000000000006 0.56000000000000005 0
0.82000000000000006 0.58000000000000007 0
0.83999999999999997 0 0
0.83999999999999997 0.020000000000000004 0
0.83999999999999997 0.040000000000000001 0
0.83999999999999997 0.54999999999999993 0
0.83999999999999997 0.56000000000000005 0
0.83999999999999997 0.58000000000000007 0
0.85999999999999999 0 0
0.85999999999999999 0.020000000000000004 0
0.85999999999999999 0.040000000000000001 0
0.85999999999999999 0.54999999999999993 0
0.85999999999999999 0.56000000000000005 0
0.85999999999999999 0.58000000000000007 0
0.88 0 0
0.88 0.020000000000000004 0
0.88 0.040000000000000001 0
0.88 0.54999999999999993 0
0.88 0.56000000000000005 0
0.88 0.58000000000000007 0
0.90000000000000002 0 0
0.90000000000000002 0.020000000000000004 0
0.90000000000000002 0.040000000000000001 0
0.90000000000000002 0.54999999999999993 0
0.90000000000000002 0.56000000000000005 0
0.90000000000000002 0.58000000000000007 0
0.92000000000000004 0 0
0.92000000000000004 0.020000000000000004 0
0.92000000000000004 0.040000000000000001 0
0.92000000000000004 0.54999999999999993 0
0.92000000000000004 0.56000000000000005 0
0.92000000000000004 0.58000000000000007 0
0.94000000000000006 0 0
0.94000000000000006 0.020000000000000004 0
0.94000000000000006 0.040000000000000001 0
0.94000000000000006 0.54999999999999993 0
0.94000000000000006 0.56000000000000005 0
0.94000000000000006 0.58000000000000007 0
0.95999999999999996 0 0
0.95999999999999996 0.020000000000000004 0
0.95999999999999996 0.040000000000000001 0
0.95999999999999996 0.54999999999999993 0
0.95999999999999996 0.56000000000000005 0
0.95999999999999996 0.58000000000000007 0
0.97999999999999998 0 0
0.97999999999999998 0.020000000000000004 0
0.97999999999999998 0.040000000000000001 0
0.97999999999999998 0.54999999999999993 0
0.97999999999999998 0.56000000000000005 0
0.97999999999999998 0.58000000000000007 0
1 0 0
1 0.020000000000000004 0
1 0.040000000000000001 0
1 0.54999999999999993 0
1 0.56000000000000005 0
1 0.58000000000000007 0
VERTICES 681 1362
1 0
1 1
1 2
1 3
1 4
1 5
1 6
1 7
1 8
1 9
1 10
1 11
1 12
1 13
1 14
1 15
1 16
1 17
1 18
1 19
1 20
1 21
1 22
1 23
1 24
1 25
1 26
1 27
1 28
1 29
1 30
1 31
1 32
1 33
1 34
1 35
1 36
1 37
1 38
1 39
1 40
1 41
1 42
1 43
1 44
1 45
1 46
1 47
1 48
1 49
1 50
1 51
1 52
1 53
1 54
1 55
1 56
1 57
1 58
1 59
1 60
1 61
1 62
1 63
1 64
1 65
1 66
1 67
1 68
1 69
1 70
1 71
1 72
1 73
1 74
1 75
1 76
1 77
1 78
1 79
1 80
1 81
1 82
1 83
1 84
1 85
1 86
1 87
1 88
1 89
1 90
1 91
1 92
1 93
1 94
1 95
1 96
1 97
1 98
1 99
1 100
1 101
1 102
1 103
1 104
1 105
1 106
1 107
1 108
1 109
1 110
1 111
1 112
1 113
1 114
1 115
1 116
1 117
1 118
1 119
1 120
1 121
1 122
1 123
1 124
1 125
1 126
1 127
1 128
1 129
1 130
1 131
1 132
1 133
1 134
1 135
1 136
1 137
1 138
1 139
1 140
1 141
1 142
1 143
1 144
1 145
1 146
1 147
1 148
1 149
1 150
1 151
1 152
1 153
1 154
1 155
1 156
1 157
1 158
1 159
1 160
1 161
1 162
1 163
1 164
1 165
1 166
1 167
1 168
1 169
1 170
1 171
1 172
1 173
1 174
1 175
1 176
1 177
1 178
1 179
1 180
1 181
1 182
1 183
1 184
1 185
1 186
1 187
1 188
1 189
1 190
1 191
1 192
1 193
1 194
1 195
1 196
1 197
1 198
1 199
1 200
1 201
1 202
1 203
1 204
1 205
1 206
1 207
1 208
1 209
1 210
1 211
1 212
1 213
1 214
1 215
1 216
1 217
1 218
1 219
1 220
1 221
1 222
1 223
1 224
1 225
1 226
1 227
1 228
1 229
1 230
1 231
1 232
1 233
1 234
1 235
1 236
1 237
1 238
1 239
1 240
1 241
1 242
1 243
1 244
1 245
1 246
1 247
1 248
1 249
1 250
1 251
1 252
1 253
1 254
1 255
1 256
1 257
1 258
1 259
1 260
1 261
1 262
1 263
1 264
1 265
1 266
1 267
1 268
1 269
1 270
1 271
1 272
1 273
1 274
1 275
1 276
1 277
1 278
1 279
1 280
1 281
1 282
1 283
1 284
1 285
1 286
1 287
1 288
1 289
1 290
1 291
1 292
1 293
1 294
1 295
1 296
1 297
1 298
1 299
1 300
1 301
1 302
1 303
1 304
1 305
1 306
1 307
1 308
1 309
1 310
1 311
1 312
1 313
1 314
1 315
1 316
1 317
1 318
1 319
1 320
1 321
1 322
1 323
1 324
1 325
1 326
1 327
1 328
1 329
1 330
1 331
1 332
1 333
1 334
1 335
1 336
1 337
1 338
1 339
1 340
1 341
1 342
1 343
1 344
1 345
1 346
1 347
1 348
1 349
1 350
1 351
1 352
1 353
1 354
1 355
1 356
1 357
1 358
1 359
1 360
1 361
1 362
1 363
1 364
1 365
1 366
1 367
1 368
1 369
1 370
1 371
1 372
1 373
1 374
1 375
1 376
1 377
1 378
1 379
1 380
1 381
1 382
1 383
1 384
1 385
1 386
1 387
1 388
1 389
1 390
1 391
1 392
1 393
1 394
1 395
1 396
1 397
1 398
1 399
1 400
1 401
1 402
1 403
1 404
1 405
1 406
1 407
1 408
1 409
1 410
1 411
1 412
1 413
1 414
1 415
1 416
1 417
1 418
1 419
1 420
1 421
1 422
1 423
1 424
1 425
1 426
1 427
1 428
1 429
1 430
1 431
1 432
1 433
1 434
1 435
1 436
1 437
1 438
1 439
1 440
1 441
1 442
1 443
1 444
1 445
1 446
1 447
1 448
1 449
1 450
1 451
1 452
1 453
1 454
1 455
1 456
1 457
1 458
1 459
1 460
1 461
1 462
1 463
1 464
1 465
1 466
1 467
1 468
1 469
1 470
1 471
1 472
1 473
1 474
1 475
1 476
1 477
1 478
1 479
1 480
1 481
1 482
1 483
1 484
1 485
1 486
1 487
1 488
1 489
1 490
1 491
1 492
1 493
1 494
1 495
1 496
1 497
1 498
1 499
1 500
1 501
1 502
1 503
1 504
1 505
1 506
1 507
1 508
1 509
1 510
1 511
1 512
1 513
1 514
1 515
1 516
1 517
1 518
1 519
1 520
1 521
1 522
1 523
1 524
1 525
1 526
1 527
1 528
1 529
1 530
1 531
1 532
1 533
1 534
1 535
1 536
1 537
1 538
1 539
1 540
1 541
1 542
1 543
1 544
1 545
1 546
1 547
1 548
1 549
1 550
1 551
1 552
1 553
1 554
1 555
1 556
1 557
1 558
1 559
1 560
1 561
1 562
1 563
1 564
1 565
1 566
1 567
1 568
1 569
1 570
1 571
1 572
1 573
1 574
1 575
1 576
1 577
1 578
1 579
1 580
1 581
1 582
1 583
1 584
1 585
1 586
1 587
1 588
1 589
1 590
1 591
1 592
1 593
1 594
1 595
1 596
1 597
1 598
1 599
1 600
1 601
1 602
1 603
1 604
1 605
1 606
1 607
1 608
1 609
1 610
1 611
1 612
1 613
1 614
1 615
1 616
1 617
1 618
1 619
1 620
1 621
1 622
1 623
1 624
1 625
1 626
1 627
1 628
1 629
1 630
1 631
1 632
1 633
1 634
1 635
1 636
1 637
1 638
1 639
1 640
1 641
1 642
1 643
1 644
1 645
1 646
1 647
1 648
1 649
1 650
1 651
1 652
1 653
1 654
1 655
1 656
1 657
1 658
1 659
1 660
1 661
1 662
1 663
1 664
1 665
1 666
1 667
1 668
1 669
1 670
1 671
1 672
1 673
1 674
1 675
1 676
1 677
1 678
1 679
1 680
POINT_DATA 681
SCALARS is_boundary int 1
LOOKUP_TABLE default
0
0
0
0
0
0
0
0
0
0
0
0
0
0
0
0
0
0
0
0
0
0
0
0
0
0
0
0
0
0
0
0
0
0
0
0
0
0
0
0
0
0
0
0
0
0
0
0
0
0
0
0
0
0
0
0
0
0
0
0
0
0
0
0
0
0
0
0
0
0
0
0
0
0
0
0
0
0
0
0
0
0
0
0
0
0
0
0
0
0
0
0
0
0
0
0
0
0
0
0
0
0
0
0
0
0
0
0
0
0
0
0
0
0
0
0
0
0
0
0
0
0
0
0
0
0
0
0
0
0
0
0
0
0
0
0
0
0
0
0
0
0
0
0
0
0
0
0
0
0
0
0
0
0
0
0
0
0
0
0
0
0
0
0
0
0
0
0
0
0
0
0
0
0
0
0
0
0
0
0
0
0
0
0
0
0
0
0
0
0
0
0
0
0
0
0
0
0
0
0
0
0
0
0
0
0
0
0
0
0
0
0
0
0
0
0
0
0
0
0
0
0
0
0
0
0
0
0
0
0
0
0
0
0
0
0
0
0
0
0
0
0
0
0
0
0
0
0
0
0
0
0
0
0
0
0
0
0
0
0
0
0
0
0
0
0
0
0
0
0
0
0
0
0
0
0
0
0
0
0
0
0
0
0
0
0
0
0
0
0
0
0
0
0
0
0
0
0
0
0
0
0
0
0
0
0
0
0
0
0
0
0
0
0
0
0
0
0
0
0
0
0
0
0
0
0
0
0
0
0
0
0
0
0
0
0
0
0
0
0
0
0
0
0
0
0
0
0
0
0
0
0
0
0
0
0
0
0
0
0
0
0
0
0
0
0
0
0
0
0
0
0
0
0
0
1
1
1
1
1
1
1
1
1
1
1
1
1
1
1
1
1
1
1
1
1
1
1
1
1
1
1
1
1
1
1
1
1
1
1
1
1
1
1
1
1
1
1
1
1
1
1
1
1
1
1
1
1
1
1
1
1
1
1
1
1
1
1
1
1
1
1
1
1
1
1
1
1
1
1
1
1
1
1
1
1
1
1
1
1
1
1
1
1
1
1
1
1
1
1
1
1
1
1
1
1
1
1
1
1
1
1
1
1
1
1
1
1
1
1
1
1
1
1
1
1
1
1
1
1
1
1
1
1
1
1
1
1
1
1
1
1
1
1
1
1
1
1
1
1
1
1
1
1
1
1
1
1
1
1
1
1
1
1
1
1
1
1
1
1
1
1
1
1
1
1
1
1
1
1
1
1
1
1
1
1
1
1
1
1
1
1
1
1
1
1
1
1
1
1
1
1
1
1
1
1
1
1
1
1
1
1
1
1
1
1
1
1
1
1
1
1
1
1
1
1
1
1
1
1
1
1
1
1
1
1
1
1
1
1
1
1
1
1
1
1
1
1
1
1
1
1
1
1
1
1
1
1
1
1
1
1
1
1
1
1
1
1
1
1
1
1
1
1
1
1
1
1
1
1
1
1
1
1
1
1
1
1
1
1
1
1
1
1
1
1
1
1
1
1
1
1
1
1
1
1
1
1
1
1
1
SCALARS rho float 1
LOOKUP_TABLE default
1020
1020
1020
1020
1020
1020
1020
1020
947.20105518024707
862
862
862
862
862
862
862
862
862
862
862
862
862
862
862
850
1020
1020
1020
1020
1020
1020
1020
1020
1020
1020
1005.0552651583685
1000.0828875092056
999.20281365386745
999.00531619646745
998.86167069391786
998.52254732208189
997.60212386902026
995.25422680009956
989.73883512604652
977.88158899964037
954.6292581266016
912.97388848149217
862
862
862
1020
1020
1020
1020
1020
1020
1020
1020
1020
1020
1006.5950874148641
1001.1537204881745
1000.2015784225568
999.9902799642673
999.83925669242035
999.4849749596508
998.52495174012961
996.0782864667608
990.337443040788
978.02891911035022
954.05388291562281
911.79135778943646
862
862
862
1020
1020
1020
1020
1020
1020
1020
1020
1020
1020
1006.8644917669396
1001.2017683824185
1000.2099280456753
999.99042562705222
999.8347825601868
999.47086558759088
998.48587558495751
995.9787179504915
990.10779399644116
977.56500245431948
953.27989179328779
910.85191788135626
862
862
862
1020
1020
1020
1020
1020
1020
1020
1020
1020
1020
1006.9813409003473
1001.2261301153642
1000.2145935656879
999.99046952732147
999.83201786446898
999.4623331070859
998.46301566188185
995.92327039970542
989.98846173920447
977.34523843673628
952.95350087915722
910.50116921303197
862
862
862
1020
1020
1020
1020
1020
1020
1020
1020
1020
1020
1007.0266531104317
1001.2368442006432
1000.2168505013833
999.99046280981588
999.83051201897365
999.45781901332339
998.45138978091722
995.89649502359475
989.93446830821176
977.25323874368996
952.82804504709179
910.37869272716489
862
862
862
1020
1020
1020
1020
1020
1020
1020
1020
1020
1020
1007.0426836231836
1001.2409851816437
1000.217790979541
999.99044650885912
999.82981355816332
999.45578595329357
998.44634789783959
995.88541119979391
989.91330751910732
977.21931666848695
952.78467087231297
910.33957975291901
862
862
862
1020
1020
1020
1020
1020
1020
1020
1020
1020
1020
1007.0465531244097
1001.2420354386327
1000.2180401038565
999.99043957587151
999.82961594230119
999.45522203212136
998.44498392610808
995.88250129661628
989.90793915224117
977.2110267848077
952.77449751103495
910.33085774365713
862
862
862
1020
1020
1020
1020
1020
1020
1020
1020
1020
1020
1007.0426836231823
1001.2409851816424
1000.2177909795396
999.99044650885776
999.82981355816196
999.45578595329243
998.44634789783822
995.88541119979254
989.91330751910596
977.21931666848536
952.78467087231161
910.33957975291764
862
862
862
1020
1020
1020
1020
1020
1020
1020
1020
1020
1020
1007.0266531104317
1001.2368442006432
1000.2168505013831
999.99046280981588
999.83051201897342
999.45781901332339
998.45138978091722
995.89649502359475
989.93446830821154
977.25323874368974
952.82804504709202
910.37869272716489
862
862
862
1020
1020
1020
1020
1020
1020
1020
1020
1020
1020
1006.9813409003482
1001.2261301153649
1000.2145935656883
999.99046952732215
999.83201786446966
999.46233310708681
998.46301566188254
995.9232703997061
989.98846173920515
977.34523843673674
952.9535008791579
910.50116921303243
862
862
862
1020
1020
1020
1020
1020
1020
1020
1020
1020
1020
1006.8644917669399
1001.201768382419
1000.2099280456755
999.99042562705267
999.83478256018702
999.47086558759133
998.48587558495774
995.97871795049195
990.10779399644139
977.56500245431971
953.27989179328802
910.85191788135648
862
862
862
1020
1020
1020
1020
1020
1020
1020
1020
1020
1020
1006.5950874148637
1001.153720488174
1000.2015784225564
999.99027996426662
999.83925669241967
999.48497495965034
998.52495174012893
996.07828646676035
990.33744304078755
978.02891911034999
954.05388291562235
911.79135778943601
862
862
862
1020
1020
1020
1020
1020
1020
1020
1020
1020
1020
1005.0552651583691
1000.0828875092063
999.20281365386813
999.00531619646836
998.86167069391831
998.5225473220828
997.60212386902117
995.25422680010047
989.73883512604721
977.88158899964105
954.62925812660228
912.97388848149285
862
862
862
1020
1020
1020
1020
1020
1020
1020
1020
947.2010551802482
862
862
862
862
862
862
862
862
862
862
862
862
862
862
862
850
1000
1000
1000
1000
1000
1000
1000
1000
1000
1000
1000
1000
1000
1000
1000
1000
1000
1000
1000
1000
1000
1000
1000
1000
1000
1000
1000
1000
1000
1000
1000
1000
1000
1000
1000
1000
1000
1000
1000
1000
1000
1000
1000
1000
1000
1000
1000
1000
1000
1000
1000
1000
1000
1000
1000
1000
1000
1000
1000
1000
1000
1000
1000
1000
1000
1000
1000
1000
1000
1000
1000
1000
1000
1000
1000
1000
1000
1000
1000
1000
1000
1000
1000
1000
1000
1000
1000
1000
1000
1000
1000
1000
1000
1000
1000
1000
1000
1000
1000
1000
1000
1000
1000
1000
1000
1000
1000
1000
1000
1000
1000
1000
1000
1000
1000
1000
1000
1000
1000
1000
1000
1000
1000
1000
1000
1000
1000
1000
1000
1000
1000
1000
1000
1000
1000
1000
1000
1000
1000
1000
1000
1000
1000
1000
1000
1000
1000
1000
1000
1000
1000
1000
1000
1000
1000
1000
1000
1000
1000
1000
1000
1000
1000
1000
1000
1000
1000
1000
1000
1000
1000
1000
1000
1000
1000
1000
1000
1000
1000
1000
1000
1000
1000
1000
1000
1000
1000
1000
1000
1000
1000
1000
1000
1000
1000
1000
1000
1000
1000
1000
1000
1000
1000
1000
1000
1000
1000
1000
1000
1000
1000
1000
1000
1000
1000
1000
1000
1000
1000
1000
1000
1000
1000
1000
1000
1000
1000
1000
1000
1000
1000
1000
1000
1000
1000
1000
1000
1000
1000
1000
1000
1000
1000
1000
1000
1000
1000
1000
1000
1000
1000
1000
1000
1000
1000
1000
1000
1000
1000
1000
1000
1000
1000
1000
1000
1000
1000
1000
1000
1000
1000
1000
1000
1000
1000
1000
1000
1000
1000
1000
1000
1000
1000
1000
1000
1000
1000
1000
1000
1000
1000
1000
1000
1000
1000
1000
1000
1000
1000
1000
1000
1000
1000
1000
1000
1000
SCALARS p float 1
LOOKUP_TABLE default
25004.681136676067
25004.681136676067
25004.681136676067
25004.681136676067
25004.681136676067
25004.681136676067
25004.681136676067
25004.681136676067
0
0
0
0
0
0
0
0
0
0
0
0
0
0
0
0
0
25004.681136676067
25004.681136676067
25004.681136676067
25004.681136676067
25004.681136676067
25004.681136676067
25004.681136676067
25004.681136676067
25004.681136676067
25004.681136676067
6042.0749483578538
97.599442478852609
0
0
0
0
0
0
0
0
0
0
0
0
0
25004.681136676067
25004.681136676067
25004.681136676067
25004.681136676067
25004.681136676067
25004.681136676067
25004.681136676067
25004.681136676067
25004.681136676067
25004.681136676067
7919.0440805049457
1362.8696183691529
237.44166979687867
0
0
0
0
0
0
0
0
0
0
0
0
25004.681136676067
25004.681136676067
25004.681136676067
25004.681136676067
25004.681136676067
25004.681136676067
25004.681136676067
25004.681136676067
25004.681136676067
25004.681136676067
8249.2101336666638
1419.8324716795851
247.28298668509117
0
0
0
0
0
0
0
0
0
0
0
0
25004.681136676067
25004.681136676067
25004.681136676067
25004.681136676067
25004.681136676067
25004.681136676067
25004.681136676067
25004.681136676067
25004.681136676067
25004.681136676067
8392.5784240582143
1448.7206251182022
252.78223529351243
0
0
0
0
0
0
0
0
0
0
0
0
25004.681136676067
25004.681136676067
25004.681136676067
25004.681136676067
25004.681136676067
25004.681136676067
25004.681136676067
25004.681136676067
25004.681136676067
25004.681136676067
8448.2012008591646
1461.4267273851824
255.44254071487407
0
0
0
0
0
0
0
0
0
0
0
0
25004.681136676067
25004.681136676067
25004.681136676067
25004.681136676067
25004.681136676067
25004.681136676067
25004.681136676067
25004.681136676067
25004.681136676067
25004.681136676067
8467.8829729716235
1466.3378391312738
256.55111600153049
0
0
0
0
0
0
0
0
0
0
0
0
25004.681136676067
25004.681136676067
25004.681136676067
25004.681136676067
25004.681136676067
25004.681136676067
25004.681136676067
25004.681136676067
25004.681136676067
25004.681136676067
8472.6341096009983
1467.5834400319306
256.84476880227419
0
0
0
0
0
0
0
0
0
0
0
0
25004.681136676067
25004.681136676067
25004.681136676067
25004.681136676067
25004.681136676067
25004.681136676067
25004.681136676067
25004.681136676067
25004.681136676067
25004.681136676067
8467.8829729700192
1466.3378391296681
256.55111599996218
0
0
0
0
0
0
0
0
0
0
0
0
25004.681136676067
25004.681136676067
25004.681136676067
25004.681136676067
25004.681136676067
25004.681136676067
25004.681136676067
25004.681136676067
25004.681136676067
25004.681136676067
8448.2012008591646
1461.4267273851824
255.44254071461268
0
0
0
0
0
0
0
0
0
0
0
0
25004.681136676067
25004.681136676067
25004.681136676067
25004.681136676067
25004.681136676067
25004.681136676067
25004.681136676067
25004.681136676067
25004.681136676067
25004.681136676067
8392.5784240592966
1448.7206251189864
252.78223529403522
0
0
0
0
0
0
0
0
0
0
0
0
25004.681136676067
25004.681136676067
25004.681136676067
25004.681136676067
25004.681136676067
25004.681136676067
25004.681136676067
25004.681136676067
25004.681136676067
25004.681136676067
8249.2101336669239
1419.8324716801078
247.28298668535254
0
0
0
0
0
0
0
0
0
0
0
0
25004.681136676067
25004.681136676067
25004.681136676067
25004.681136676067
25004.681136676067
25004.681136676067
25004.681136676067
25004.681136676067
25004.681136676067
25004.681136676067
7919.0440805044227
1362.86961836863
237.44166979635591
0
0
0
0
0
0
0
0
0
0
0
0
25004.681136676067
25004.681136676067
25004.681136676067
25004.681136676067
25004.681136676067
25004.681136676067
25004.681136676067
25004.681136676067
25004.681136676067
25004.681136676067
6042.0749483586751
97.599442479636778
0
0
0
0
0
0
0
0
0
0
0
0
0
25004.681136676067
25004.681136676067
25004.681136676067
25004.681136676067
25004.681136676067
25004.681136676067
25004.681136676067
25004.681136676067
0
0
0
0
0
0
0
0
0
0
0
0
0
0
0
0
0
0
0
0
0
0
0
0
24772.581810674634
24978.672861670169
0
0
0
23234.135531354776
24993.290056510778
25002.593183777037
0
0
0
24269.71489914355
24998.990689672242
25003.58529201895
0
0
0
24389.655954487316
24999.262177189037
25003.61872269263
0
0
0
24384.83204635515
24999.254793426931
25003.614379132563
0
0
0
24381.244124968027
24999.241640994092
25003.61278349323
0
0
0
24380.10821929984
24999.236748820327
25003.61221080416
0
0
0
24379.762348802273
24999.235167632436
25003.612017939493
0
0
0
24379.662863825106
24999.234706704447
25003.611960382146
0
0
0
24379.662863825404
24999.234706704447
25003.611960382146
0
0
0
24379.762348802273
24999.235167631879
25003.612017939195
0
0
0
24380.108219299542
24999.236748820884
25003.6122108036
0
0
0
24381.244124968325
24999.241640994391
25003.61278349323
0
0
0
24384.83204635515
24999.254793426931
25003.614379132265
0
0
0
24389.655954487018
24999.262177189335
25003.618722692034
0
0
0
24269.71489914355
24998.990689672541
25003.58529201895
0
0
0
23234.135531354776
24993.290056510479
25002.593183777335
0
0
0
0
24772.581810674634
24978.672861669907
0
0
0
0
0
0
0
0
0
0
0
0
0
0
0
0
0
0
0
0
0
0
0
0
0
0
0
0
0
0
0
0
0
0
0
0
0
0
0
0
0
0
0
0
0
0
0
0
0
0
0
0
0
0
0
0
0
0
0
0
0
0
0
0
0
0
0
0
0
0
0
0
0
0
0
0
0
0
0
0
0
0
0
0
0
0
0
0
0
0
0
0
0
0
0
0
0
0
0
0
0
0
0
0
0
0
0
0
0
0
0
0
0
0
0
0
0
0
0
0
0
0
0
0
0
0
0
0
0
0
0
0
0
0
0
0
0
0
0
0
0
0
0
0
0
0
0
0
0
0
0
0
0
0
0
0
0
0
0
0
0
0
0
0
0
0
0
0
0
0
0
0
0
0
0
0
0
0
0
0
0
0
0
0
0
0
0
0
0
0
0
0
0
0
0
SCALARS m float 1
LOOKUP_TABLE default
0.39942306611962441
0.39942306611962441
0.39942306611962441
0.39942306611962441
0.39942306611962441
0.39942306611962441
0.39942306611962441
0.39942306611962441
0.39942306611962441
0.39942306611962441
0.39942306611962441
0.39942306611962441
0.39942306611962441
0.39942306611962441
0.39942306611962441
0.39942306611962441
0.39942306611962441
0.39942306611962441
0.39942306611962441
0.39942306611962441
0.39942306611962441
0.39942306611962441
0.39942306611962441
0.39942306611962441
0.39942306611962441
0.39942306611962441
0.39942306611962441
0.39942306611962441
0.39942306611962441
0.39942306611962441
0.39942306611962441
0.39942306611962441
0.39942306611962441
0.39942306611962441
0.39942306611962441
0.39942306611962441
0.39942306611962441
0.39942306611962441
0.39942306611962441
0.39942306611962441
0.39942306611962441
0.39942306611962441
0.39942306611962441
0.39942306611962441
0.39942306611962441
0.39942306611962441
0.39942306611962441
0.39942306611962441
0.39942306611962441
0.39942306611962441
0.39942306611962441
0.39942306611962441
0.39942306611962441
0.39942306611962441
0.39942306611962441
0.39942306611962441
0.39942306611962441
0.39942306611962441
0.39942306611962441
0.39942306611962441
0.39942306611962441
0.39942306611962441
0.39942306611962441
0.39942306611962441
0.39942306611962441
0.39942306611962441
0.39942306611962441
0.39942306611962441
0.39942306611962441
0.39942306611962441
0.39942306611962441
0.39942306611962441
0.39942306611962441
0.39942306611962441
0.39942306611962441
0.39942306611962441
0.39942306611962441
0.39942306611962441
0.39942306611962441
0.39942306611962441
0.39942306611962441
0.39942306611962441
0.39942306611962441
0.39942306611962441
0.39942306611962441
0.39942306611962441
0.39942306611962441
0.39942306611962441
0.39942306611962441
0.39942306611962441
0.39942306611962441
0.39942306611962441
0.39942306611962441
0.39942306611962441
0.39942306611962441
0.39942306611962441
0.39942306611962441
0.39942306611962441
0.39942306611962441
0.39942306611962441
0.39942306611962441
0.39942306611962441
0.39942306611962441
0.39942306611962441
0.39942306611962441
0.39942306611962441
0.39942306611962441
0.39942306611962441
0.39942306611962441
0.39942306611962441
0.39942306611962441
0.39942306611962441
0.39942306611962441
0.39942306611962441
0.39942306611962441
0.39942306611962441
0.39942306611962441
0.39942306611962441
0.39942306611962441
0.39942306611962441
0.39942306611962441
0.39942306611962441
0.39942306611962441
0.39942306611962441
0.39942306611962441
0.39942306611962441
0.39942306611962441
0.39942306611962441
0.39942306611962441
0.39942306611962441
0.39942306611962441
0.39942306611962441
0.39942306611962441
0.39942306611962441
0.39942306611962441
0.39942306611962441
0.39942306611962441
0.39942306611962441
0.39942306611962441
0.39942306611962441
0.39942306611962441
0.39942306611962441
0.39942306611962441
0.39942306611962441
0.39942306611962441
0.39942306611962441
0.39942306611962441
0.39942306611962441
0.39942306611962441
0.39942306611962441
0.39942306611962441
0.39942306611962441
0.39942306611962441
0.39942306611962441
0.39942306611962441
0.39942306611962441
0.39942306611962441
0.39942306611962441
0.39942306611962441
0.39942306611962441
0.39942306611962441
0.39942306611962441
0.39942306611962441
0.39942306611962441
0.39942306611962441
0.39942306611962441
0.39942306611962441
0.39942306611962441
0.39942306611962441
0.39942306611962441
0.39942306611962441
0.39942306611962441
0.39942306611962441
0.39942306611962441
0.39942306611962441
0.39942306611962441
0.39942306611962441
0.39942306611962441
0.39942306611962441
0.39942306611962441
0.39942306611962441
0.39942306611962441
0.39942306611962441
0.39942306611962441
0.39942306611962441
0.39942306611962441
0.39942306611962441
0.39942306611962441
0.39942306611962441
0.39942306611962441
0.39942306611962441
0.39942306611962441
0.39942306611962441
0.39942306611962441
0.39942306611962441
0.39942306611962441
0.39942306611962441
0.39942306611962441
0.39942306611962441
0.39942306611962441
0.39942306611962441
0.39942306611962441
0.39942306611962441
0.39942306611962441
0.39942306611962441
0.39942306611962441
0.39942306611962441
0.39942306611962441
0.39942306611962441
0.39942306611962441
0.39942306611962441
0.39942306611962441
0.39942306611962441
0.39942306611962441
0.39942306611962441
0.39942306611962441
0.39942306611962441
0.39942306611962441
0.39942306611962441
0.39942306611962441
0.39942306611962441
0.39942306611962441
0.39942306611962441
0.39942306611962441
0.39942306611962441
0.39942306611962441
0.39942306611962441
0.39942306611962441
0.39942306611962441
0.39942306611962441
0.39942306611962441
0.39942306611962441
0.39942306611962441
0.39942306611962441
0.39942306611962441
0.39942306611962441
0.39942306611962441
0.39942306611962441
0.39942306611962441
0.39942306611962441
0.39942306611962441
0.39942306611962441
0.39942306611962441
0.39942306611962441
0.39942306611962441
0.39942306611962441
0.39942306611962441
0.39942306611962441
0.39942306611962441
0.39942306611962441
0.39942306611962441
0.39942306611962441
0.39942306611962441
0.39942306611962441
0.39942306611962441
0.39942306611962441
0.39942306611962441
0.39942306611962441
0.39942306611962441
0.39942306611962441
0.39942306611962441
0.39942306611962441
0.39942306611962441
0.39942306611962441
0.39942306611962441
0.39942306611962441
0.39942306611962441
0.39942306611962441
0.39942306611962441
0.39942306611962441
0.39942306611962441
0.39942306611962441
0.39942306611962441
0.39942306611962441
0.39942306611962441
0.39942306611962441
0.39942306611962441
0.39942306611962441
0.39942306611962441
0.39942306611962441
0.39942306611962441
0.39942306611962441
0.39942306611962441
0.39942306611962441
0.39942306611962441
0.39942306611962441
0.39942306611962441
0.39942306611962441
0.39942306611962441
0.39942306611962441
0.39942306611962441
0.39942306611962441
0.39942306611962441
0.39942306611962441
0.39942306611962441
0.39942306611962441
0.39942306611962441
0.39942306611962441
0.39942306611962441
0.39942306611962441
0.39942306611962441
0.39942306611962441
0.39942306611962441
0.39942306611962441
0.39942306611962441
0.39942306611962441
0.39942306611962441
0.39942306611962441
0.39942306611962441
0.39942306611962441
0.39942306611962441
0.39942306611962441
0.39942306611962441
0.39942306611962441
0.39942306611962441
0.39942306611962441
0.39942306611962441
0.39942306611962441
0.39942306611962441
0.39942306611962441
0.39942306611962441
0.39942306611962441
0.39942306611962441
0.39942306611962441
0.39942306611962441
0.39942306611962441
0.39942306611962441
0.39942306611962441
0.39942306611962441
0.39942306611962441
0.39942306611962441
0.39942306611962441
0.39942306611962441
0.39942306611962441
0.39942306611962441
0.39942306611962441
0.39942306611962441
0.39942306611962441
0.39942306611962441
0.39942306611962441
0.39942306611962441
0.39942306611962441
0.39942306611962441
0.39942306611962441
0.39942306611962441
0.39942306611962441
0.39942306611962441
0.39942306611962441
0.39942306611962441
0.39942306611962441
0.39942306611962441
0.39942306611962441
0.39942306611962441
0.39942306611962441
0.39942306611962441
0.39942306611962441
0.39942306611962441
0.39942306611962441
0.39942306611962441
0.39942306611962441
0.39942306611962441
0.39942306611962441
0.39942306611962441
0.39942306611962441
0.39942306611962441
0.39942306611962441
0.39942306611962441
0.39942306611962441
0.39942306611962441
0.39942306611962441
0.39942306611962441
0.39942306611962441
0.39942306611962441
0.39942306611962441
0.39942306611962441
0.39942306611962441
0.39942306611962441
0.39942306611962441
0.39942306611962441
0.39942306611962441
0.39942306611962441
0.39942306611962441
0.39942306611962441
0.39942306611962441
0.39942306611962441
0.39942306611962441
0.39942306611962441
0.39942306611962441
0.39942306611962441
0.39942306611962441
0.39942306611962441
0.39942306611962441
0.39942306611962441
0.39942306611962441
0.39942306611962441
0.39942306611962441
0.39942306611962441
0.39942306611962441
0.39942306611962441
0.39942306611962441
0.39942306611962441
0.39942306611962441
0.39942306611962441
0.39942306611962441
0.39942306611962441
0.39942306611962441
0.39942306611962441
0.39942306611962441
0.39942306611962441
0.39942306611962441
0.39942306611962441
0.39942306611962441
0.39942306611962441
0.39942306611962441
0.39942306611962441
0.39942306611962441
0.39942306611962441
0.39942306611962441
0.39942306611962441
0.39942306611962441
0.39942306611962441
0.39942306611962441
0.39942306611962441
0.39942306611962441
0.39942306611962441
0.39942306611962441
0.39942306611962441
0.39942306611962441
0.39942306611962441
0.39942306611962441
0.39942306611962441
0.39942306611962441
0.39942306611962441
0.39942306611962441
0.39942306611962441
0.39942306611962441
0.39942306611962441
0.39942306611962441
0.39942306611962441
0.39942306611962441
0.39942306611962441
0.39942306611962441
0.39942306611962441
0.39942306611962441
0.39942306611962441
0.39942306611962441
0.39942306611962441
0.39942306611962441
0.39942306611962441
0.39942306611962441
0.39942306611962441
0.39942306611962441
0.39942306611962441
0.39942306611962441
0.39942306611962441
0.39942306611962441
0.39942306611962441
0.39942306611962441
0.39942306611962441
0.39942306611962441
0.39942306611962441
0.39942306611962441
0.39942306611962441
0.39942306611962441
0.39942306611962441
0.39942306611962441
0.39942306611962441
0.39942306611962441
0.39942306611962441
0.39942306611962441
0.39942306611962441
0.39942306611962441
0.39942306611962441
0.39942306611962441
0.39942306611962441
0.39942306611962441
0.39942306611962441
0.39942306611962441
0.39942306611962441
0.39942306611962441
0.39942306611962441
0.39942306611962441
0.39942306611962441
0.39942306611962441
0.39942306611962441
0.39942306611962441
0.39942306611962441
0.39942306611962441
0.39942306611962441
0.39942306611962441
0.39942306611962441
0.39942306611962441
0.39942306611962441
0.39942306611962441
0.39942306611962441
0.39942306611962441
0.39942306611962441
0.39942306611962441
0.39942306611962441
0.39942306611962441
0.39942306611962441
0.39942306611962441
0.39942306611962441
0.39942306611962441
0.39942306611962441
0.39942306611962441
0.39942306611962441
0.39942306611962441
0.39942306611962441
0.39942306611962441
0.39942306611962441
0.39942306611962441
0.39942306611962441
0.39942306611962441
0.39942306611962441
0.39942306611962441
0.39942306611962441
0.39942306611962441
0.39942306611962441
0.39942306611962441
0.39942306611962441
0.39942306611962441
0.39942306611962441
0.39942306611962441
0.39942306611962441
0.39942306611962441
0.39942306611962441
0.39942306611962441
0.39942306611962441
0.39942306611962441
0.39942306611962441
0.39942306611962441
0.39942306611962441
0.39942306611962441
0.39942306611962441
0.39942306611962441
0.39942306611962441
0.39942306611962441
0.39942306611962441
0.39942306611962441
0.39942306611962441
0.39942306611962441
0.39942306611962441
0.39942306611962441
0.39942306611962441
0.39942306611962441
0.39942306611962441
0.39942306611962441
0.39942306611962441
0.39942306611962441
0.39942306611962441
0.39942306611962441
0.39942306611962441
0.39942306611962441
0.39942306611962441
0.39942306611962441
0.39942306611962441
0.39942306611962441
0.39942306611962441
0.39942306611962441
0.39942306611962441
0.39942306611962441
0.39942306611962441
0.39942306611962441
0.39942306611962441
0.39942306611962441
0.39942306611962441
0.39942306611962441
0.39942306611962441
0.39942306611962441
0.39942306611962441
0.39942306611962441
0.39942306611962441
0.39942306611962441
0.39942306611962441
0.39942306611962441
0.39942306611962441
0.39942306611962441
0.39942306611962441
0.39942306611962441
0.39942306611962441
0.39942306611962441
0.39942306611962441
0.39942306611962441
0.39942306611962441
0.39942306611962441
0.39942306611962441
0.39942306611962441
0.39942306611962441
0.39942306611962441
0.39942306611962441
0.39942306611962441
0.39942306611962441
0.39942306611962441
0.39942306611962441
0.39942306611962441
0.39942306611962441
0.39942306611962441
0.39942306611962441
0.39942306611962441
0.39942306611962441
0.39942306611962441
0.39942306611962441
0.39942306611962441
0.39942306611962441
0.39942306611962441
0.39942306611962441
0.39942306611962441
0.39942306611962441
0.39942306611962441
0.39942306611962441
0.39942306611962441
0.39942306611962441
0.39942306611962441
0.39942306611962441
0.39942306611962441
0.39942306611962441
0.39942306611962441
0.39942306611962441
0.39942306611962441
0.39942306611962441
0.39942306611962441
0.39942306611962441
0.39942306611962441
0.39942306611962441
0.39942306611962441
0.39942306611962441
0.39942306611962441
0.39942306611962441
0.39942306611962441
0.39942306611962441
0.39942306611962441
0.39942306611962441
0.39942306611962441
0.39942306611962441
0.39942306611962441
0.39942306611962441
0.39942306611962441
0.39942306611962441
0.39942306611962441
0.39942306611962441
0.39942306611962441
0.39942306611962441
0.39942306611962441
0.39942306611962441
0.39942306611962441
0.39942306611962441
0.39942306611962441
0.39942306611962441
0.39942306611962441
0.39942306611962441
0.39942306611962441
0.39942306611962441
0.39942306611962441
0.39942306611962441
0.39942306611962441
0.39942306611962441
0.39942306611962441
0.39942306611962441
0.39942306611962441
0.39942306611962441
0.39942306611962441
0.39942306611962441
0.39942306611962441
0.39942306611962441
0.39942306611962441
0.39942306611962441
0.39942306611962441
0.39942306611962441
0.39942306611962441
0.39942306611962441
0.39942306611962441
0.39942306611962441
0.39942306611962441
0.39942306611962441
0.39942306611962441
0.39942306611962441
0.39942306611962441
0.39942306611962441
0.39942306611962441
0.39942306611962441
VECTORS v float
0 -0.089986817787622159 0
0 -0.12917169538923209 0
0 -0.16793582816371086 0
0 -0.21974431427101834 0
0 -0.2946291834958501 0
0 -0.41351429497657721 0
0 -0.6343312672847482 0
0 -1.0222520229709693 0
0 -1.3530815836381493 0
0 -1.454542470866099 0
0 -1.4737513144656327 0
0 -1.4771277297885779 0
0 -1.4777255393986128 0
0 -1.4778169932277807 0
0 -1.4777730173863557 0
0 -1.4775896251200276 0
0 -1.4770977732757824 0
0 -1.475915727389415 0
0 -1.4733423354456314 0
0 -1.4682953773579932 0
0 -1.4594264947229543 0
0 -1.4455354452648512 0
0 -1.4261656622610195 0
0 -1.4013689195146353 0
0 -1.2752003671965195 0
0 -0.096497012306311955 0
0 -0.13685792219753776 0
0 -0.17715446758915848 0
0 -0.23013096488305743 0
0 -0.30588398112837173 0
0 -0.42287418845870739 0
0 -0.62828357764194609 0
0 -0.9829025325651829 0
0 -1.3270326598441275 0
0 -1.4494472446708559 0
0 -1.4730259278105842 0
0 -1.4770100488274003 0
0 -1.4777038534313602 0
0 -1.47781042279803 0
0 -1.4777645842053715 0
0 -1.4775689312788121 0
0 -1.4770468498659297 0
0 -1.4757991947319156 0
0 -1.4730958744182094 0
0 -1.4678168752882577 0
0 -1.4585955040423315 0
0 -1.4443548919749312 0
0 -1.4251136526321286 0
0 -1.400919800169844 0
0 -1.2787227039857214 0
0 -0.096820349684037285 0
0 -0.13744073763002537 0
0 -0.17809738162294614 0
0 -0.23162458718527418 0
0 -0.30818387771713784 0
0 -0.42572629629718223 0
0 -0.62868476774960469 0
0 -0.97272727494635181 0
0 -1.3166115443894284 0
0 -1.4468610543262908 0
0 -1.4726289965028641 0
0 -1.476947528631722 0
0 -1.4776926664747463 0
0 -1.4778069854530997 0
0 -1.4777598339901274 0
0 -1.4775565567879805 0
0 -1.4770143702459957 0
0 -1.4757191926871416 0
0 -1.4729135734933521 0
0 -1.4674400970606365 0
0 -1.4579142091266015 0
0 -1.443345788622963 0
0 -1.4239667197334389 0
0 -1.399662227770597 0
0 -1.282076079014536 0
0 -0.096694980099567326 0
0 -0.13738756560098225 0
0 -0.17813699646249281 0
0 -0.23178824621216418 0
0 -0.30851737017723718 0
0 -0.42617216557892368 0
0 -0.62860380363647839 0
0 -0.97004397719424573 0
0 -1.3132520857253933 0
0 -1.4457292806357165 0
0 -1.4724041453736194 0
0 -1.476907510440884 0
0 -1.477685100081902 0
0 -1.4778045686189583 0
0 -1.4777563956964967 0
0 -1.4775475279181829 0
0 -1.4769906988250672 0
0 -1.4756616279591732 0
0 -1.4727860613326043 0
0 -1.4671877934417543 0
0 -1.4574796865068835 0
0 -1.442712150273477 0
0 -1.4231686533203831 0
0 -1.398713057183963 0
0 -1.2840722047281738 0
0 -0.09661384934205719 0
0 -0.13732078301641371 0
0 -0.17809159132292851 0
0 -0.23177179049918784 0
0 -0.30854065676737114 0
0 -0.42621329664708041 0
0 -0.62847825213373509 0
0 -0.96916612836511817 0
0 -1.3121424915512188 0
0 -1.4453015792062707 0
0 -1.4723023870792964 0
0 -1.4768864592644242 0
0 -1.4776806985420246 0
0 -1.477803045359076 0
0 -1.4777541597562529 0
0 -1.4775416882294636 0
0 -1.4769756031479366 0
0 -1.4756257243151722 0
0 -1.4727089040641252 0
0 -1.4670403687992837 0
0 -1.457233253707946 0
0 -1.4423557865708272 0
0 -1.4227143855861129 0
0 -1.3981885427982577 0
0 -1.2849705716008462 0
0 -0.096579350472695627 0
0 -0.13728642261753346 0
0 -0.17806071867600204 0
0 -0.23174669558710145 0
0 -0.30852436723928661 0
0 -0.42619807134184529 0
0 -0.62840628452855296 0
0 -0.96886013691045547 0
0 -1.3117672893859349 0
0 -1.4451474946467184 0
0 -1.4722613876899973 0
0 -1.4768768675357802 0
0 -1.4776784660133673 0
0 -1.4778021919643389 0
0 -1.4777528669692896 0
0 -1.4775383547605239 0
0 -1.4769671556610349 0
0 -1.4756061270356811 0
0 -1.4726679810566847 0
0 -1.4669644246696183 0
0 -1.4571093368601737 0
0 -1.4421791968050162 0
0 -1.4224930196949812 0
0 -1.3979450259368036 0
0 -1.2852960510764164 0
0 -0.096566491159225526 0
0 -0.13727216074115095 0
0 -0.17804638876270007 0
0 -0.23173295456674467 0
0 -0.30851205924321856 0
0 -0.42618468700875672 0
0 -0.62837411654614228 0
0 -0.96875594558770495 0
0 -1.3116436790546999 0
0 -1.445094995657719 0
0 -1.4722463922656062 0
0 -1.4768730358772406 0
0 -1.4776774902754592 0
0 -1.4778017828792309 0
0 -1.4777522310948632 0
0 -1.4775367393095336 0
0 -1.4769631428900458 0
0 -1.4755970284910775 0
0 -1.4726494416224432 0
0 -1.4669308320199568 0
0 -1.4570556549302101 0
0 -1.4421040154617222 0
0 -1.422400868880531 0
0 -1.3978479182852099 0
0 -1.285392598402729 0
0 -0.09656327269524155 0
0 -0.137268396611504 0
0 -0.17804241471751031 0
0 -0.23172890053075879 0
0 -0.3085080907052305 0
0 -0.42618022135812905 0
0 -0.62836522809175377 0
0 -0.96873099939116336 0
0 -1.3116147823092352 0
0 -1.4450825190653938 0
0 -1.4722426904058021 0
0 -1.4768720419503123 0
0 -1.4776772231517585 0
0 -1.4778016642332767 0
0 -1.4777520439766998 0
0 -1.4775362688546705 0
0 -1.476961989669678 0
0 -1.4755944517318638 0
0 -1.4726442708737928 0
0 -1.466921600892068 0
0 -1.457041101084946 0
0 -1.4420838871263026 0
0 -1.4223765823146783 0
0 -1.3978229861762073 0
0 -1.28541180834377 0
0 -0.096566491159225498 0
0 -0.13727216074115089 0
0 -0.17804638876270001 0
0 -0.23173295456674461 0
0 -0.30851205924321856 0
0 -0.42618468700875678 0
0 -0.6283741165461425 0
0 -0.96875594558770539 0
0 -1.3116436790547001 0
0 -1.445094995657719 0
0 -1.4722463922656064 0
0 -1.4768730358772406 0
0 -1.4776774902754592 0
0 -1.4778017828792309 0
0 -1.4777522310948632 0
0 -1.4775367393095336 0
0 -1.4769631428900458 0
0 -1.4755970284910775 0
0 -1.4726494416224432 0
0 -1.4669308320199568 0
0 -1.4570556549302101 0
0 -1.4421040154617222 0
0 -1.422400868880531 0
0 -1.3978479182852099 0
0 -1.285392598402729 0
0 -0.096579350472695669 0
0 -0.13728642261753346 0
0 -0.17806071867600204 0
0 -0.23174669558710145 0
0 -0.30852436723928672 0
0 -0.42619807134184534 0
0 -0.62840628452855329 0
0 -0.96886013691045547 0
0 -1.3117672893859349 0
0 -1.4451474946467184 0
0 -1.4722613876899973 0
0 -1.4768768675357802 0
0 -1.4776784660133673 0
0 -1.4778021919643389 0
0 -1.4777528669692896 0
0 -1.4775383547605239 0
0 -1.4769671556610349 0
0 -1.4756061270356811 0
0 -1.4726679810566847 0
0 -1.4669644246696183 0
0 -1.4571093368601737 0
0 -1.4421791968050162 0
0 -1.4224930196949814 0
0 -1.3979450259368038 0
0 -1.2852960510764164 0
0 -0.096613849342057204 0
0 -0.13732078301641379 0
0 -0.17809159132292854 0
0 -0.23177179049918786 0
0 -0.30854065676737119 0
0 -0.42621329664708041 0
0 -0.62847825213373498 0
0 -0.96916612836511817 0
0 -1.3121424915512188 0
0 -1.4453015792062707 0
0 -1.4723023870792964 0
0 -1.4768864592644242 0
0 -1.4776806985420246 0
0 -1.477803045359076 0
0 -1.4777541597562529 0
0 -1.4775416882294636 0
0 -1.4769756031479366 0
0 -1.4756257243151722 0
0 -1.4727089040641252 0
0 -1.4670403687992837 0
0 -1.457233253707946 0
0 -1.4423557865708272 0
0 -1.4227143855861129 0
0 -1.3981885427982577 0
0 -1.2849705716008462 0
0 -0.09669498009956734 0
0 -0.13738756560098225 0
0 -0.17813699646249287 0
0 -0.23178824621216423 0
0 -0.30851737017723724 0
0 -0.42617216557892362 0
0 -0.62860380363647828 0
0 -0.97004397719424595 0
0 -1.3132520857253933 0
0 -1.4457292806357165 0
0 -1.4724041453736194 0
0 -1.476907510440884 0
0 -1.477685100081902 0
0 -1.4778045686189583 0
0 -1.4777563956964967 0
0 -1.4775475279181829 0
0 -1.4769906988250672 0
0 -1.4756616279591732 0
0 -1.4727860613326043 0
0 -1.4671877934417543 0
0 -1.4574796865068835 0
0 -1.442712150273477 0
0 -1.4231686533203831 0
0 -1.398713057183963 0
0 -1.2840722047281741 0
0 -0.096820349684037257 0
0 -0.1374407376300254 0
0 -0.17809738162294617 0
0 -0.23162458718527415 0
0 -0.30818387771713779 0
0 -0.42572629629718245 0
0 -0.62868476774960469 0
0 -0.97272727494635181 0
0 -1.3166115443894284 0
0 -1.4468610543262908 0
0 -1.4726289965028641 0
0 -1.476947528631722 0
0 -1.4776926664747463 0
0 -1.4778069854530997 0
0 -1.4777598339901274 0
0 -1.4775565567879805 0
0 -1.4770143702459957 0
0 -1.4757191926871416 0
0 -1.4729135734933521 0
0 -1.4674400970606365 0
0 -1.4579142091266015 0
0 -1.443345788622963 0
0 -1.4239667197334389 0
0 -1.399662227770597 0
0 -1.2820760790145362 0
0 -0.096497012306311969 0
0 -0.13685792219753784 0
0 -0.17715446758915851 0
0 -0.23013096488305748 0
0 -0.30588398112837201 0
0 -0.42287418845870739 0
0 -0.62828357764194587 0
0 -0.98290253256518267 0
0 -1.3270326598441273 0
0 -1.4494472446708559 0
0 -1.4730259278105842 0
0 -1.4770100488274003 0
0 -1.4777038534313602 0
0 -1.47781042279803 0
0 -1.4777645842053715 0
0 -1.4775689312788121 0
0 -1.4770468498659297 0
0 -1.4757991947319156 0
0 -1.4730958744182094 0
0 -1.4678168752882577 0
0 -1.4585955040423315 0
0 -1.4443548919749312 0
0 -1.4251136526321286 0
0 -1.400919800169844 0
0 -1.2787227039857216 0
0 -0.089986817787622214 0
0 -0.12917169538923212 0
0 -0.16793582816371092 0
0 -0.21974431427101837 0
0 -0.29462918349585027 0
0 -0.41351429497657688 0
0 -0.63433126728474798 0
0 -1.0222520229709688 0
0 -1.3530815836381491 0
0 -1.454542470866099 0
0 -1.4737513144656327 0
0 -1.4771277297885779 0
0 -1.4777255393986128 0
0 -1.4778169932277807 0
0 -1.4777730173863557 0
0 -1.4775896251200276 0
0 -1.4770977732757824 0
0 -1.475915727389415 0
0 -1.4733423354456314 0
0 -1.4682953773579932 0
0 -1.4594264947229543 0
0 -1.4455354452648512 0
0 -1.4261656622610195 0
0 -1.4013689195146353 0
0 -1.27520036719652 0
-0 -0 0
-0 -0 0
-0 -0 0
-0 -0 0
-0 -0 0
-0 -0 0
-0 -0 0
-0 0.10369657010320105 0
-0 0.16386707412610166 0
-0 -0 0
-0 -0 0
-0 -0 0
-0 0.084023776884655413 0
-0 0.12054864721147009 0
-0 0.17984839043319692 0
-0 -0 0
-0 -0 0
-0 -0 0
-0 0.091469106336880782 0
-0 0.1236384340136012 0
-0 0.18286632255931651 0
-0 -0 0
-0 -0 0
-0 -0 0
-0 0.094633783446459813 0
-0 0.12589065407074707 0
-0 0.18469107700345805 0
-0 -0 0
-0 -0 0
-0 -0 0
-0 0.094698235740884026 0
-0 0.12603203943214281 0
-0 0.18489455080303183 0
-0 -0 0
-0 -0 0
-0 -0 0
-0 0.094575506948875745 0
-0 0.12590161304994585 0
-0 0.18472026076145076 0
-0 -0 0
-0 -0 0
-0 -0 0
-0 0.094511883996479432 0
-0 0.12582269394292725 0
-0 0.18461397566722032 0
-0 -0 0
-0 -0 0
-0 -0 0
-0 0.094486553843621618 0
-0 0.12578906936137355 0
-0 0.18456755685252826 0
-0 -0 0
-0 -0 0
-0 -0 0
-0 0.094478070489853488 0
-0 0.12577743389305748 0
-0 0.18455114844206333 0
-0 -0 0
-0 -0 0
-0 -0 0
-0 0.094478070489853461 0
-0 0.12577743389305746 0
-0 0.18455114844206327 0
-0 -0 0
-0 -0 0
-0 -0 0
-0 0.094486553843621618 0
-0 0.12578906936137352 0
-0 0.18456755685252832 0
-0 -0 0
-0 -0 0
-0 -0 0
-0 0.094511883996479432 0
-0 0.12582269394292733 0
-0 0.18461397566722029 0
-0 -0 0
-0 -0 0
-0 -0 0
-0 0.094575506948875759 0
-0 0.12590161304994588 0
-0 0.18472026076145082 0
-0 -0 0
-0 -0 0
-0 -0 0
-0 0.094698235740883985 0
-0 0.12603203943214283 0
-0 0.1848945508030318 0
-0 -0 0
-0 -0 0
-0 -0 0
-0 0.094633783446459785 0
-0 0.12589065407074707 0
-0 0.18469107700345797 0
-0 -0 0
-0 -0 0
-0 -0 0
-0 0.091469106336880837 0
-0 0.12363843401360125 0
-0 0.18286632255931645 0
-0 -0 0
-0 -0 0
-0 -0 0
-0 0.084023776884655538 0
-0 0.12054864721147013 0
-0 0.17984839043319698 0
-0 -0 0
-0 -0 0
-0 -0 0
-0 -0 0
-0 0.1036965701032012 0
-0 0.1638670741261018 0
-0 -0 0
-0 -0 0
-0 -0 0
-0 -0 0
-0 -0 0
-0 -0 0
-0 -0 0
-0 -0 0
-0 -0 0
-0 -0 0
-0 -0 0
-0 -0 0
-0 -0 0
-0 -0 0
-0 -0 0
-0 -0 0
-0 -0 0
-0 -0 0
-0 -0 0
-0 -0 0
-0 -0 0
-0 -0 0
-0 -0 0
-0 -0 0
-0 -0 0
-0 -0 0
-0 -0 0
-0 -0 0
-0 -0 0
-0 -0 0
-0 -0 0
-0 -0 0
-0 -0 0
-0 -0 0
-0 -0 0
-0 -0 0
-0 -0 0
-0 -0 0
-0 -0 0
-0 -0 0
-0 -0 0
-0 -0 0
-0 -0 0
-0 -0 0
-0 -0 0
-0 -0 0
-0 -0 0
-0 -0 0
-0 -0 0
-0 -0 0
-0 -0 0
-0 -0 0
-0 -0 0
-0 -0 0
-0 -0 0
-0 -0 0
-0 -0 0
-0 -0 0
-0 -0 0
-0 -0 0
-0 -0 0
-0 -0 0
-0 -0 0
-0 -0 0
-0 -0 0
-0 -0 0
-0 -0 0
-0 -0 0
-0 -0 0
-0 -0 0
-0 -0 0
-0 -0 0
-0 -0 0
-0 -0 0
-0 -0 0
-0 -0 0
-0 -0 0
-0 -0 0
-0 -0 0
-0 -0 0
-0 -0 0
-0 -0 0
-0 -0 0
-0 -0 0
-0 -0 0
-0 -0 0
-0 -0 0
-0 -0 0
-0 -0 0
-0 -0 0
-0 -0 0
-0 -0 0
-0 -0 0
-0 -0 0
-0 -0 0
-0 -0 0
-0 -0 0
-0 -0 0
-0 -0 0
-0 -0 0
-0 -0 0
-0 -0 0
-0 -0 0
-0 -0 0
-0 -0 0
-0 -0 0
-0 -0 0
-0 -0 0
-0 -0 0
-0 -0 0
-0 -0 0
-0 -0 0
-0 -0 0
-0 -0 0
-0 -0 0
-0 -0 0
-0 -0 0
-0 -0 0
-0 -0 0
-0 -0 0
-0 -0 0
-0 -0 0
-0 -0 0
-0 -0 0
-0 -0 0
-0 -0 0
-0 -0 0
-0 -0 0
-0 -0 0
-0 -0 0
-0 -0 0
-0 -0 0
-0 -0 0
-0 -0 0
-0 -0 0
-0 -0 0
-0 -0 0
-0 -0 0
-0 -0 0
-0 -0 0
-0 -0 0
-0 -0 0
-0 -0 0
-0 -0 0
-0 -0 0
-0 -0 0
-0 -0 0
-0 -0 0
-0 -0 0
-0 -0 0
-0 -0 0
-0 -0 0
-0 -0 0
-0 -0 0
-0 -0 0
-0 -0 0
-0 -0 0
-0 -0 0
-0 -0 0
-0 -0 0
-0 -0 0
-0 -0 0
-0 -0 0
-0 -0 0
-0 -0 0
-0 -0 0
-0 -0 0
-0 -0 0
-0 -0 0
-0 -0 0
-0 -0 0
-0 -0 0
-0 -0 0
-0 -0 0
-0 -0 0
-0 -0 0
-0 -0 0
-0 -0 0
-0 -0 0
-0 -0 0
-0 -0 0
-0 -0 0
-0 -0 0
-0 -0 0
-0 -0 0
-0 -0 0
-0 -0 0
-0 -0 0
-0 -0 0
-0 -0 0
-0 -0 0
-0 -0 0
-0 -0 0
-0 -0 0
-0 -0 0
