# vtk DataFile Version 3.0
SPH particles (WCSPH) - legacy PolyData
ASCII
DATASET POLYDATA
POINTS 681 float
0.049991371590424924 0.019736406389994628 0
0.049990395913319198 0.021884561765945269 0
0.049989606382171634 0.02361698184054193 0
0.049988827343204145 0.025326577917277916 0
0.049988129283314919 0.026989072464307946 0
0.049987514725492461 0.028603681854243727 0
0.049986951596228686 0.030176808986830676 0
0.049986399582878281 0.031717048383141905 0
0.04998580196320733 0.033233918263223361 0
0.049985061548234781 0.034735642511938447 0
0.049983730691932619 0.036230997276985796 0
0.049981950532934229 0.037728540142935758 0
0.049981261339700787 0.039236773742583983 0
0.049982018832379439 0.04076466921578293 0
0.049983510373095424 0.042322178560954125 0
0.049985271051592131 0.043920156153700658 0
0.049987092297576176 0.045572290164726921 0
0.049988807246139702 0.047295139913306417 0
0.049990407386698903 0.049111220839014848 0
0.049991835077967325 0.05103742622827636 0
0.049993041147633144 0.053118895158014615 0
0.049994026625619997 0.05541203511111107 0
0.049994822853892687 0.058006870799324747 0
0.049995469757060776 0.061072975722087752 0
0.049996300494671866 0.065077660778034715 0
0.069995508349517038 0.018529331881990407 0
0.069994947092315449 0.020899907149713098 0
0.069994529721212007 0.022824159015764713 0
0.069994153059321759 0.024686283660321169 0
0.069993798734508436 0.026473497543556147 0
0.069993442598830224 0.028193373078087714 0
0.069993087203100685 0.029858216653582747 0
0.069992726058988514 0.031480671914180872 0
0.069992342288626053 0.033073193439044524 0
0.069991886018013316 0.034645973992376469 0
0.069990982435984783 0.036209334498071941 0
0.069989143742154342 0.037773210384371168 0
0.069988061199639254 0.039346972805188479 0
0.069988264682564694 0.0409403527524334 0
0.06998917849225969 0.042564386319704661 0
0.069990327056526219 0.044230928677743211 0
0.069991559320950344 0.045955417519096937 0
0.069992771081960226 0.047755315070800927 0
0.069993906472329392 0.049652068866949603 0
0.069994892644444057 0.051672367447377902 0
0.069995710928855898 0.053860276550613512 0
0.069996363417491936 0.056276927386719418 0
0.069996861085649398 0.059025231288607344 0
0.069997254136686296 0.062301731511155443 0
0.069997761137742823 0.066659753654975729 0
0.089998411025379629 0.01847955567476435 0
0.089998202794150522 0.020852075687871795 0
0.089998049117848131 0.022779943880606942 0
0.089997900609480569 0.024647961956289571 0
0.089997747975919917 0.026442512563926504 0
0.089997586325857248 0.028170657195735103 0
0.089997417146675085 0.029844659001128832 0
0.089997242938397864 0.031476932555953491 0
0.089997046358092039 0.033079460230872319 0
0.089996827370026289 0.034663007809038304 0
0.089996561293528191 0.036237731961082646 0
0.089996186621275023 0.0378137283643828 0
0.089995822608615175 0.039400238621602107 0
0.089995782414167197 0.04100709830746771 0
0.089996028021926772 0.042645311884545775 0
0.089996363127090612 0.044327019374934766 0
0.089996756167600139 0.046067531378076065 0
0.089997156558019334 0.047883570643098776 0
0.08999753741912897 0.049797307987206801 0
0.089997857085578475 0.05183825823026348 0
0.089998122930740124 0.054048184954252419 0
0.089998328631898106 0.056488926189911672 0
0.089998508219545872 0.059263484987697679 0
0.089998656246808126 0.062568250123428537 0
0.089998887717013559 0.066962604184920033 0
0.10999943029043727 0.01848915963378581 0
0.10999935021982489 0.020862789157842735 0
0.10999928429321186 0.022791644181270897 0
0.10999922015281487 0.024660757689870274 0
0.10999915276265744 0.026456513634460263 0
0.10999909994269723 0.028185987929571943 0
0.10999903966087347 0.029861462092171179 0
0.10999896190534847 0.031495339005070074 0
0.10999887585367731 0.033099471030413302 0
0.10999878061137007 0.03468476287655916 0
0.10999868532600035 0.036261347318113375 0
0.1099985625424215 0.037839473219974627 0
0.10999846660580502 0.039428204784790567 0
0.10999845484338729 0.041037492521474046 0
0.10999850084852705 0.042678355162733363 0
0.10999860424701211 0.044363225559041056 0
0.10999873292836955 0.046106835431419101 0
0.10999887486014126 0.047926007618013154 0
0.10999901502469063 0.049843188733572824 0
0.10999912738885559 0.051887927747379659 0
0.10999921383588755 0.054102086583185265 0
0.10999928455292378 0.056547588627871563 0
0.10999934778584421 0.059327444348968618 0
0.10999940643319255 0.062638155059680775 0
0.10999950654563809 0.067040602884553838 0
0.12999977278547961 0.018495628645256435 0
0.12999974144874177 0.020869926361520526 0
0.12999972011234387 0.022799284197438038 0
0.12999970050266774 0.024668853240607566 0
0.12999968999017525 0.026465066075841627 0
0.12999966277982158 0.028194957380817082 0
0.12999963895040997 0.029870818935030283 0
0.12999960637019864 0.031505099456673333 0
0.1299995761185592 0.033109642956994617 0
0.12999953592703561 0.034695352851387855 0
0.12999948131242858 0.03627241976297553 0
0.12999941499125411 0.037850764133853576 0
0.12999940464385273 0.039439778209729187 0
0.12999940425657647 0.041049329611263945 0
0.1299993850549197 0.042690508153740245 0
0.12999943192419935 0.044376303821544852 0
0.12999948669195435 0.0461217939369616 0
0.12999954353131557 0.047942240879337621 0
0.12999959121555166 0.049860351793769166 0
0.12999962608581098 0.051905370423029042 0
0.12999965799505445 0.054120536886861421 0
0.12999968511237817 0.056567196978472914 0
0.12999970702500643 0.059348353146464312 0
0.12999973090834549 0.062660512372266386 0
0.1299997732555507 0.067065077439241269 0
0.14999990514176811 0.018498418846609049 0
0.14999989500233332 0.020873068065460403 0
0.14999988708518114 0.022802755607166884 0
0.14999987929025674 0.0246724740458386 0
0.14999986943169996 0.026468842778505485 0
0.14999986072700147 0.028198961753851119 0
0.14999985873901997 0.029874963992509759 0
0.14999985197576648 0.03150942823317214 0
0.14999983832446456 0.033114165744374861 0
0.14999981584840746 0.034700063702997462 0
0.1499997895142402 0.036277454680982972 0
0.14999977011797339 0.037856058914566962 0
0.14999974682193162 0.039445396489412754 0
0.14999972786494675 0.041055571489423889 0
0.14999973102874009 0.042697269198298041 0
0.14999975335002122 0.044383211789052746 0
0.14999978407084572 0.046127823691171202 0
0.14999981846340199 0.047947832817840423 0
0.14999981303540652 0.049866098447867949 0
0.14999981145487715 0.051912013505154661 0
0.14999982252703326 0.054127508132875111 0
0.14999983946723003 0.056574573231837129 0
0.14999985157913315 0.059356288772299953 0
0.14999985974114424 0.06266906425700404 0
0.14999987873300641 0.067073932613481047 0
0.16999995102071092 0.018498836444708969 0
0.16999994498895055 0.020873876882169646 0
0.16999993958419204 0.022804032503080818 0
0.16999993354820775 0.024673680590621458 0
0.16999992597485258 0.026470078587251838 0
0.16999991779318821 0.028200296711728398 0
0.16999990631771267 0.029876370284861314 0
0.16999990010857233 0.031510864226102282 0
0.16999988950347905 0.033115554637690274 0
0.16999987592608545 0.03470125898329509 0
0.16999985292569408 0.036278813474262428 0
0.16999982977035255 0.03785733799261095 0
0.16999980826692454 0.039446413676167066 0
0.16999977728626675 0.041057146035363534 0
0.16999978892146156 0.042699055548949608 0
0.16999983964743232 0.044385405633385 0
0.16999986085567709 0.046130182306702822 0
0.16999986217114049 0.047949593079621509 0
0.16999983917874553 0.049867876410811571 0
0.16999985772263776 0.051914047962348886 0
0.1699998813788576 0.054129658537089932 0
0.16999989900257512 0.056576922631983134 0
0.16999990100829893 0.059359009270763263 0
0.16999990776925825 0.062673133389941404 0
0.16999992344345355 0.067076851359225836 0
0.18999996552218665 0.018499413911175048 0
0.18999996173611924 0.020873971005634765 0
0.18999996149556217 0.022803717052598281 0
0.18999995757498742 0.02467372114844894 0
0.18999995230517869 0.026470468524688696 0
0.1899999419338437 0.028200548038182578 0
0.18999993866935611 0.029876606922400805 0
0.18999992758978229 0.031511164799076827 0
0.18999991536695826 0.033115793553592093 0
0.18999990774882469 0.034701425049931726 0
0.18999990337779599 0.036279314554657452 0
0.18999991021565787 0.037858049068136439 0
0.18999992510790401 0.039447420438640808 0
0.18999992024917564 0.041058034304577794 0
0.18999993114210786 0.042699926639002343 0
0.1899999287798973 0.044385870446026425 0
0.18999991532300525 0.046130182627500377 0
0.1899998934628355 0.047950104609637514 0
0.18999986550084338 0.049868378520141116 0
0.18999992035235816 0.051914460427662658 0
0.18999992792430345 0.054129782761002408 0
0.18999994229721867 0.056576292912098758 0
0.18999995007468767 0.059356793824642588 0
0.18999995786610108 0.062671865063211915 0
0.18999996851793774 0.067076824866778573 0
0.20999999493833946 0.018499355883328617 0
0.20999999386805729 0.020873948132201881 0
0.20999999112764881 0.022803468411301295 0
0.2099999882947034 0.024673077962247488 0
0.20999998524606231 0.026469789086771334 0
0.20999997623958772 0.028199869955973372 0
0.20999997576493873 0.029876013871201569 0
0.20999997507112311 0.031510755306017928 0
0.20999997513355545 0.033115520403890861 0
0.20999996460272488 0.034701246965620422 0
0.20999995774342842 0.036278375689482376 0
0.209999953999679 0.03785702920577777 0
0.20999996464224485 0.039447136814224341 0
0.20999994984934667 0.041057673778565638 0
0.20999995008326644 0.042699448324850224 0
0.20999996468592222 0.044385230058181575 0
0.20999996460706782 0.046129373839457054 0
0.20999996846908098 0.047949425979998399 0
0.20999999438506831 0.049867673402239611 0
0.2099999917138323 0.051913712705680404 0
0.20999998653700649 0.05412897723122554 0
0.20999997849092297 0.056575393065732192 0
0.20999998384615493 0.05935567568452662 0
0.20999999025669361 0.062670492140763048 0
0.20999999737319189 0.067075742859614637 0
0.23000005574504906 0.018498148657339234 0
0.23000006074974924 0.020872635726858359 0
0.23000006902336637 0.022802100621659018 0
0.23000006973783177 0.0246716493028411 0
0.2300000660422005 0.026467922677319483 0
0.23000007143027831 0.028198239594299814 0
0.23000008340759859 0.029874723366878738 0
0.23000009173773897 0.031508996772447867 0
0.23000009764794177 0.033113588886837964 0
0.23000009930026741 0.034699255413557825 0
0.23000010078345712 0.036276062081033546 0
0.23000011285589606 0.037854962217392416 0
0.23000017486806054 0.03944518285023494 0
0.23000013138844944 0.041055442753236124 0
0.23000010927950582 0.042697083461529992 0
0.23000013808179109 0.044382713827112764 0
0.23000014216730813 0.046126691323495651 0
0.23000014588695927 0.047946860434370672 0
0.23000018142269638 0.049865081191724586 0
0.23000013616456202 0.051910903314857725 0
0.23000011794170125 0.054126147962675661 0
0.23000009651944828 0.056572922872073571 0
0.23000008746156017 0.059355072631372484 0
0.23000008195197491 0.062667559991993207 0
0.230000072100353 0.067072574516936947 0
0.25000016613130566 0.018495234493331538 0
0.250000186744747 0.020869398858588642 0
0.25000020721261995 0.022798737823509777 0
0.25000022598396021 0.02466820101045265 0
0.25000023935559568 0.026464282266348896 0
0.25000025342471094 0.028194388157365028 0
0.25000027748425174 0.029870270409763165 0
0.25000029818039021 0.031504624206938538 0
0.2500003174153142 0.03310916041550048 0
0.25000034791885489 0.034694831681576811 0
0.25000039468825841 0.036271879569031253 0
0.25000047888666022 0.037850315752900515 0
0.25000050999010093 0.039439571206339216 0
0.25000055567441343 0.041049553088078915 0
0.25000054689785239 0.042690871307430128 0
0.25000050005775659 0.044375963542888322 0
0.2500004648205626 0.046119428261075193 0
0.25000041488329378 0.047939919114661333 0
0.2500003766601227 0.049857985610775042 0
0.25000034088231132 0.051902761643708883 0
0.25000030953425689 0.054117195319551142 0
0.25000027982795164 0.056563564503302112 0
0.25000025347251709 0.059349060696684504 0
0.25000022933074589 0.062659471852143184 0
0.25000019114787086 0.067063489286181652 0
0.27000048197651916 0.018488691700477539 0
0.27000055189869027 0.020862152094937532 0
0.27000060430587536 0.022790862176498016 0
0.27000065785168326 0.024659969764409789 0
0.27000070613930832 0.026456010199037257 0
0.27000076066270101 0.028185711686529339 0
0.27000081652269714 0.029860383946096282 0
0.27000087504770653 0.031494823248279312 0
0.27000094977385791 0.033099078321176569 0
0.27000104225837862 0.034684239504840106 0
0.2700011504578812 0.036260952957926564 0
0.27000125375170342 0.037838895457496864 0
0.27000141047025145 0.039427557115419093 0
0.27000152104178332 0.041037041195485763 0
0.27000147781613665 0.042677937023005971 0
0.27000133673559223 0.044362646271642013 0
0.27000119574341841 0.046105628729816647 0
0.27000106748223002 0.047924718246832421 0
0.2700009425809376 0.049841741042515715 0
0.27000083647763784 0.051886105827491612 0
0.27000074589032991 0.054099596230931149 0
0.27000066437643266 0.056544472522244524 0
0.27000059638288565 0.059326726318260886 0
0.27000053885487002 0.062637232919525984 0
0.27000045152860142 0.067039256962037455 0
0.29000151902746046 0.018479353508323793 0
0.29000172418395281 0.020851789978895533 0
0.2900018773941796 0.022779658155185085 0
0.29000202569894112 0.024647679692444684 0
0.29000217940177059 0.026442276778805528 0
0.29000233406087755 0.028170305739804592 0
0.29000249827999108 0.029843678401886294 0
0.29000268568305698 0.031476762090594801 0
0.29000290349397734 0.033079417558299323 0
0.29000314761943852 0.034662786443616082 0
0.2900034440628696 0.036237562803418638 0
0.29000383641243138 0.037813409893502306 0
0.29000421398550325 0.039399832534171064 0
0.29000425885926856 0.041006861181077325 0
0.29000402508582618 0.042645212660629969 0
0.29000365882230789 0.044327259294707107 0
0.29000324675306632 0.046067405879736768 0
0.29000283362399343 0.047883212995936016 0
0.29000245183662937 0.049797016850771154 0
0.29000212053387198 0.051838109762942439 0
0.29000184043691724 0.054047806338721124 0
0.2900016138005585 0.056488249838247608 0
0.290001431104976 0.059263126217118781 0
0.29000128036448591 0.062567925780738401 0
0.29000105665922477 0.066962186454385605 0
0.31000456032082035 0.018529369136590292 0
0.31000512394636087 0.020899940792192834 0
0.31000554639581906 0.02282420161584179 0
0.31000593181379282 0.024686324973913695 0
0.31000629447283068 0.026473465634667338 0
0.31000666085262246 0.028193086951582409 0
0.31000702914621481 0.029857745421018562 0
0.31000740743153343 0.031481042286134048 0
0.31000782181103631 0.03307342639409161 0
0.31000832640546233 0.034646059173897369 0
0.31000927899311215 0.036209496317164504 0
0.31001111769900275 0.037773401475544172 0
0.310012147669326 0.039347180303131855 0
0.3100119041044273 0.040940892456429075 0
0.31001097685177176 0.042565178355219398 0
0.31000982467100496 0.044232314156616714 0
0.3100085774711015 0.045956620214703849 0
0.31000733347442222 0.0477555001851157 0
0.31000617513778811 0.049651579854196541 0
0.31000516415729551 0.051673445701974297 0
0.3100043224597816 0.053861372521971679 0
0.31000365036620464 0.056277345422386091 0
0.31000313735493951 0.059025644511656108 0
0.31000272135944085 0.062302105319809897 0
0.31000219776650473 0.066660005196242794 0
0.33000848065855481 0.019736679118298312 0
0.33000941994619876 0.021884849173347196 0
0.33001018366748242 0.023617232832587841 0
0.33001092311038954 0.025326724756323474 0
0.33001158508679063 0.026988930838292857 0
0.33001215606205481 0.028603074814604237 0
0.33001267361355924 0.030176702499357989 0
0.33001319606699109 0.03171778885182918 0
0.33001372214483882 0.033234291330944785 0
0.33001433353092502 0.034735919780978321 0
0.330015536917734 0.036231348420341911 0
0.3300172984052715 0.037728979796632714 0
0.33001798560524259 0.039237329932582089 0
0.33001720930461392 0.040765463943798048 0
0.33001575401650074 0.042323171705831615 0
0.33001405061975186 0.043921609952388842 0
0.33001229910299001 0.045573944079128681 0
0.33001060895904655 0.047295893740659699 0
0.33000905642289363 0.049109691645113987 0
0.33000769877131197 0.051037863265887481 0
0.33000656247453658 0.053119476275690899 0
0.33000565116551456 0.055412442569760446 0
0.33000493031284994 0.058007262692323751 0
0.33000435700561698 0.061073285822038553 0
0.33000359047554617 0.065077492625272251 0
0 0 0
0 0.020000000000000004 0
0 0.040000000000000001 0
0 0.54999999999999993 0
0 0.56000000000000005 0
0 0.58000000000000007 0
0.02 0 0
0.02 0.020000000000000004 0
0.02 0.040000000000000001 0
0.02 0.54999999999999993 0
0.02 0.56000000000000005 0
0.02 0.58000000000000007 0
0.040000000000000001 0 0
0.040000000000000001 0.020000000000000004 0
0.040000000000000001 0.040000000000000001 0
0.040000000000000001 0.54999999999999993 0
0.040000000000000001 0.56000000000000005 0
0.040000000000000001 0.58000000000000007 0
0.059999999999999998 0 0
0.059999999999999998 0.020000000000000004 0
0.059999999999999998 0.040000000000000001 0
0.059999999999999998 0.54999999999999993 0
0.059999999999999998 0.56000000000000005 0
0.059999999999999998 0.58000000000000007 0
0.080000000000000002 0 0
0.080000000000000002 0.020000000000000004 0
0.080000000000000002 0.040000000000000001 0
0.080000000000000002 0.54999999999999993 0
0.080000000000000002 0.56000000000000005 0
0.080000000000000002 0.58000000000000007 0
0.10000000000000001 0 0
0.10000000000000001 0.020000000000000004 0
0.10000000000000001 0.040000000000000001 0
0.10000000000000001 0.54999999999999993 0
0.10000000000000001 0.56000000000000005 0
0.10000000000000001 0.58000000000000007 0
0.12 0 0
0.12 0.020000000000000004 0
0.12 0.040000000000000001 0
0.12 0.54999999999999993 0
0.12 0.56000000000000005 0
0.12 0.58000000000000007 0
0.14000000000000001 0 0
0.14000000000000001 0.020000000000000004 0
0.14000000000000001 0.040000000000000001 0
0.14000000000000001 0.54999999999999993 0
0.14000000000000001 0.56000000000000005 0
0.14000000000000001 0.58000000000000007 0
0.16 0 0
0.16 0.020000000000000004 0
0.16 0.040000000000000001 0
0.16 0.54999999999999993 0
0.16 0.56000000000000005 0
0.16 0.58000000000000007 0
0.17999999999999999 0 0
0.17999999999999999 0.020000000000000004 0
0.17999999999999999 0.040000000000000001 0
0.17999999999999999 0.54999999999999993 0
0.17999999999999999 0.56000000000000005 0
0.17999999999999999 0.58000000000000007 0
0.20000000000000001 0 0
0.20000000000000001 0.020000000000000004 0
0.20000000000000001 0.040000000000000001 0
0.20000000000000001 0.54999999999999993 0
0.20000000000000001 0.56000000000000005 0
0.20000000000000001 0.58000000000000007 0
0.22 0 0
0.22 0.020000000000000004 0
0.22 0.040000000000000001 0
0.22 0.54999999999999993 0
0.22 0.56000000000000005 0
0.22 0.58000000000000007 0
0.23999999999999999 0 0
0.23999999999999999 0.020000000000000004 0
0.23999999999999999 0.040000000000000001 0
0.23999999999999999 0.54999999999999993 0
0.23999999999999999 0.56000000000000005 0
0.23999999999999999 0.58000000000000007 0
0.26000000000000001 0 0
0.26000000000000001 0.020000000000000004 0
0.26000000000000001 0.040000000000000001 0
0.26000000000000001 0.54999999999999993 0
0.26000000000000001 0.56000000000000005 0
0.26000000000000001 0.58000000000000007 0
0.28000000000000003 0 0
0.28000000000000003 0.020000000000000004 0
0.28000000000000003 0.040000000000000001 0
0.28000000000000003 0.54999999999999993 0
0.28000000000000003 0.56000000000000005 0
0.28000000000000003 0.58000000000000007 0
0.29999999999999999 0 0
0.29999999999999999 0.020000000000000004 0
0.29999999999999999 0.040000000000000001 0
0.29999999999999999 0.54999999999999993 0
0.29999999999999999 0.56000000000000005 0
0.29999999999999999 0.58000000000000007 0
0.32000000000000001 0 0
0.32000000000000001 0.020000000000000004 0
0.32000000000000001 0.040000000000000001 0
0.32000000000000001 0.54999999999999993 0
0.32000000000000001 0.56000000000000005 0
0.32000000000000001 0.58000000000000007 0
0.34000000000000002 0 0
0.34000000000000002 0.020000000000000004 0
0.34000000000000002 0.040000000000000001 0
0.34000000000000002 0.54999999999999993 0
0.34000000000000002 0.56000000000000005 0
0.34000000000000002 0.58000000000000007 0
0.35999999999999999 0 0
0.35999999999999999 0.020000000000000004 0
0.35999999999999999 0.040000000000000001 0
0.35999999999999999 0.54999999999999993 0
0.35999999999999999 0.56000000000000005 0
0.35999999999999999 0.58000000000000007 0
0.38 0 0
0.38 0.020000000000000004 0
0.38 0.040000000000000001 0
0.38 0.54999999999999993 0
0.38 0.56000000000000005 0
0.38 0.58000000000000007 0
0.40000000000000002 0 0
0.40000000000000002 0.020000000000000004 0
0.40000000000000002 0.040000000000000001 0
0.40000000000000002 0.54999999999999993 0
0.40000000000000002 0.56000000000000005 0
0.40000000000000002 0.58000000000000007 0
0.41999999999999998 0 0
0.41999999999999998 0.020000000000000004 0
0.41999999999999998 0.040000000000000001 0
0.41999999999999998 0.54999999999999993 0
0.41999999999999998 0.56000000000000005 0
0.41999999999999998 0.58000000000000007 0
0.44 0 0
0.44 0.020000000000000004 0
0.44 0.040000000000000001 0
0.44 0.54999999999999993 0
0.44 0.56000000000000005 0
0.44 0.58000000000000007 0
0.46000000000000002 0 0
0.46000000000000002 0.020000000000000004 0
0.46000000000000002 0.040000000000000001 0
0.46000000000000002 0.54999999999999993 0
0.46000000000000002 0.56000000000000005 0
0.46000000000000002 0.58000000000000007 0
0.47999999999999998 0 0
0.47999999999999998 0.020000000000000004 0
0.47999999999999998 0.040000000000000001 0
0.47999999999999998 0.54999999999999993 0
0.47999999999999998 0.56000000000000005 0
0.47999999999999998 0.58000000000000007 0
0.5 0 0
0.5 0.020000000000000004 0
0.5 0.040000000000000001 0
0.5 0.54999999999999993 0
0.5 0.56000000000000005 0
0.5 0.58000000000000007 0
0.52000000000000002 0 0
0.52000000000000002 0.020000000000000004 0
0.52000000000000002 0.040000000000000001 0
0.52000000000000002 0.54999999999999993 0
0.52000000000000002 0.56000000000000005 0
0.52000000000000002 0.58000000000000007 0
0.54000000000000004 0 0
0.54000000000000004 0.020000000000000004 0
0.54000000000000004 0.040000000000000001 0
0.54000000000000004 0.54999999999999993 0
0.54000000000000004 0.56000000000000005 0
0.54000000000000004 0.58000000000000007 0
0.56000000000000005 0 0
0.56000000000000005 0.020000000000000004 0
0.56000000000000005 0.040000000000000001 0
0.56000000000000005 0.54999999999999993 0
0.56000000000000005 0.56000000000000005 0
0.56000000000000005 0.58000000000000007 0
0.57999999999999996 0 0
0.57999999999999996 0.020000000000000004 0
0.57999999999999996 0.040000000000000001 0
0.57999999999999996 0.54999999999999993 0
0.57999999999999996 0.56000000000000005 0
0.57999999999999996 0.58000000000000007 0
0.59999999999999998 0 0
0.59999999999999998 0.020000000000000004 0
0.59999999999999998 0.040000000000000001 0
0.59999999999999998 0.54999999999999993 0
0.59999999999999998 0.56000000000000005 0
0.59999999999999998 0.58000000000000007 0
0.62 0 0
0.62 0.020000000000000004 0
0.62 0.040000000000000001 0
0.62 0.54999999999999993 0
0.62 0.56000000000000005 0
0.62 0.58000000000000007 0
0.64000000000000001 0 0
0.64000000000000001 0.020000000000000004 0
0.64000000000000001 0.040000000000000001 0
0.64000000000000001 0.54999999999999993 0
0.64000000000000001 0.56000000000000005 0
0.64000000000000001 0.58000000000000007 0
0.66000000000000003 0 0
0.66000000000000003 0.020000000000000004 0
0.66000000000000003 0.040000000000000001 0
0.66000000000000003 0.54999999999999993 0
0.66000000000000003 0.56000000000000005 0
0.66000000000000003 0.58000000000000007 0
0.68000000000000005 0 0
0.68000000000000005 0.020000000000000004 0
0.68000000000000005 0.040000000000000001 0
0.68000000000000005 0.54999999999999993 0
0.68000000000000005 0.56000000000000005 0
0.68000000000000005 0.58000000000000007 0
0.70000000000000007 0 0
0.70000000000000007 0.020000000000000004 0
0.70000000000000007 0.040000000000000001 0
0.70000000000000007 0.54999999999999993 0
0.70000000000000007 0.56000000000000005 0
0.70000000000000007 0.58000000000000007 0
0.71999999999999997 0 0
0.71999999999999997 0.020000000000000004 0
0.71999999999999997 0.040000000000000001 0
0.71999999999999997 0.54999999999999993 0
0.71999999999999997 0.56000000000000005 0
0.71999999999999997 0.58000000000000007 0
0.73999999999999999 0 0
0.73999999999999999 0.020000000000000004 0
0.73999999999999999 0.040000000000000001 0
0.73999999999999999 0.54999999999999993 0
0.73999999999999999 0.56000000000000005 0
0.73999999999999999 0.58000000000000007 0
0.76000000000000001 0 0
0.76000000000000001 0.020000000000000004 0
0.76000000000000001 0.040000000000000001 0
0.76000000000000001 0.54999999999999993 0
0.76000000000000001 0.56000000000000005 0
0.76000000000000001 0.58000000000000007 0
0.78000000000000003 0 0
0.78000000000000003 0.020000000000000004 0
0.78000000000000003 0.040000000000000001 0
0.78000000000000003 0.54999999999999993 0
0.78000000000000003 0.56000000000000005 0
0.78000000000000003 0.58000000000000007 0
0.80000000000000004 0 0
0.80000000000000004 0.020000000000000004 0
0.80000000000000004 0.040000000000000001 0
0.80000000000000004 0.54999999999999993 0
0.80000000000000004 0.56000000000000005 0
0.80000000000000004 0.58000000000000007 0
0.82000000000000006 0 0
0.82000000000000006 0.020000000000000004 0
0.82000000000000006 0.040000000000000001 0
0.82000000000000006 0.54999999999999993 0
0.82000000000000006 0.56000000000000005 0
0.82000000000000006 0.58000000000000007 0
0.83999999999999997 0 0
0.83999999999999997 0.020000000000000004 0
0.83999999999999997 0.040000000000000001 0
0.83999999999999997 0.54999999999999993 0
0.83999999999999997 0.56000000000000005 0
0.83999999999999997 0.58000000000000007 0
0.85999999999999999 0 0
0.85999999999999999 0.020000000000000004 0
0.85999999999999999 0.040000000000000001 0
0.85999999999999999 0.54999999999999993 0
0.85999999999999999 0.56000000000000005 0
0.85999999999999999 0.58000000000000007 0
0.88 0 0
0.88 0.020000000000000004 0
0.88 0.040000000000000001 0
0.88 0.54999999999999993 0
0.88 0.56000000000000005 0
0.88 0.58000000000000007 0
0.90000000000000002 0 0
0.90000000000000002 0.020000000000000004 0
0.90000000000000002 0.040000000000000001 0
0.90000000000000002 0.54999999999999993 0
0.90000000000000002 0.56000000000000005 0
0.90000000000000002 0.58000000000000007 0
0.92000000000000004 0 0
0.92000000000000004 0.020000000000000004 0
0.92000000000000004 0.040000000000000001 0
0.92000000000000004 0.54999999999999993 0
0.92000000000000004 0.56000000000000005 0
0.92000000000000004 0.58000000000000007 0
0.94000000000000006 0 0
0.94000000000000006 0.020000000000000004 0
0.94000000000000006 0.040000000000000001 0
0.94000000000000006 0.54999999999999993 0
0.94000000000000006 0.56000000000000005 0
0.94000000000000006 0.58000000000000007 0
0.95999999999999996 0 0
0.95999999999999996 0.020000000000000004 0
0.95999999999999996 0.040000000000000001 0
0.95999999999999996 0.54999999999999993 0
0.95999999999999996 0.56000000000000005 0
0.95999999999999996 0.58000000000000007 0
0.97999999999999998 0 0
0.97999999999999998 0.020000000000000004 0
0.97999999999999998 0.040000000000000001 0
0.97999999999999998 0.54999999999999993 0
0.97999999999999998 0.56000000000000005 0
0.97999999999999998 0.58000000000000007 0
1 0 0
1 0.020000000000000004 0
1 0.040000000000000001 0
1 0.54999999999999993 0
1 0.56000000000000005 0
1 0.58000000000000007 0
VERTICES 681 1362
1 0
1 1
1 2
1 3
1 4
1 5
1 6
1 7
1 8
1 9
1 10
1 11
1 12
1 13
1 14
1 15
1 16
1 17
1 18
1 19
1 20
1 21
1 22
1 23
1 24
1 25
1 26
1 27
1 28
1 29
1 30
1 31
1 32
1 33
1 34
1 35
1 36
1 37
1 38
1 39
1 40
1 41
1 42
1 43
1 44
1 45
1 46
1 47
1 48
1 49
1 50
1 51
1 52
1 53
1 54
1 55
1 56
1 57
1 58
1 59
1 60
1 61
1 62
1 63
1 64
1 65
1 66
1 67
1 68
1 69
1 70
1 71
1 72
1 73
1 74
1 75
1 76
1 77
1 78
1 79
1 80
1 81
1 82
1 83
1 84
1 85
1 86
1 87
1 88
1 89
1 90
1 91
1 92
1 93
1 94
1 95
1 96
1 97
1 98
1 99
1 100
1 101
1 102
1 103
1 104
1 105
1 106
1 107
1 108
1 109
1 110
1 111
1 112
1 113
1 114
1 115
1 116
1 117
1 118
1 119
1 120
1 121
1 122
1 123
1 124
1 125
1 126
1 127
1 128
1 129
1 130
1 131
1 132
1 133
1 134
1 135
1 136
1 137
1 138
1 139
1 140
1 141
1 142
1 143
1 144
1 145
1 146
1 147
1 148
1 149
1 150
1 151
1 152
1 153
1 154
1 155
1 156
1 157
1 158
1 159
1 160
1 161
1 162
1 163
1 164
1 165
1 166
1 167
1 168
1 169
1 170
1 171
1 172
1 173
1 174
1 175
1 176
1 177
1 178
1 179
1 180
1 181
1 182
1 183
1 184
1 185
1 186
1 187
1 188
1 189
1 190
1 191
1 192
1 193
1 194
1 195
1 196
1 197
1 198
1 199
1 200
1 201
1 202
1 203
1 204
1 205
1 206
1 207
1 208
1 209
1 210
1 211
1 212
1 213
1 214
1 215
1 216
1 217
1 218
1 219
1 220
1 221
1 222
1 223
1 224
1 225
1 226
1 227
1 228
1 229
1 230
1 231
1 232
1 233
1 234
1 235
1 236
1 237
1 238
1 239
1 240
1 241
1 242
1 243
1 244
1 245
1 246
1 247
1 248
1 249
1 250
1 251
1 252
1 253
1 254
1 255
1 256
1 257
1 258
1 259
1 260
1 261
1 262
1 263
1 264
1 265
1 266
1 267
1 268
1 269
1 270
1 271
1 272
1 273
1 274
1 275
1 276
1 277
1 278
1 279
1 280
1 281
1 282
1 283
1 284
1 285
1 286
1 287
1 288
1 289
1 290
1 291
1 292
1 293
1 294
1 295
1 296
1 297
1 298
1 299
1 300
1 301
1 302
1 303
1 304
1 305
1 306
1 307
1 308
1 309
1 310
1 311
1 312
1 313
1 314
1 315
1 316
1 317
1 318
1 319
1 320
1 321
1 322
1 323
1 324
1 325
1 326
1 327
1 328
1 329
1 330
1 331
1 332
1 333
1 334
1 335
1 336
1 337
1 338
1 339
1 340
1 341
1 342
1 343
1 344
1 345
1 346
1 347
1 348
1 349
1 350
1 351
1 352
1 353
1 354
1 355
1 356
1 357
1 358
1 359
1 360
1 361
1 362
1 363
1 364
1 365
1 366
1 367
1 368
1 369
1 370
1 371
1 372
1 373
1 374
1 375
1 376
1 377
1 378
1 379
1 380
1 381
1 382
1 383
1 384
1 385
1 386
1 387
1 388
1 389
1 390
1 391
1 392
1 393
1 394
1 395
1 396
1 397
1 398
1 399
1 400
1 401
1 402
1 403
1 404
1 405
1 406
1 407
1 408
1 409
1 410
1 411
1 412
1 413
1 414
1 415
1 416
1 417
1 418
1 419
1 420
1 421
1 422
1 423
1 424
1 425
1 426
1 427
1 428
1 429
1 430
1 431
1 432
1 433
1 434
1 435
1 436
1 437
1 438
1 439
1 440
1 441
1 442
1 443
1 444
1 445
1 446
1 447
1 448
1 449
1 450
1 451
1 452
1 453
1 454
1 455
1 456
1 457
1 458
1 459
1 460
1 461
1 462
1 463
1 464
1 465
1 466
1 467
1 468
1 469
1 470
1 471
1 472
1 473
1 474
1 475
1 476
1 477
1 478
1 479
1 480
1 481
1 482
1 483
1 484
1 485
1 486
1 487
1 488
1 489
1 490
1 491
1 492
1 493
1 494
1 495
1 496
1 497
1 498
1 499
1 500
1 501
1 502
1 503
1 504
1 505
1 506
1 507
1 508
1 509
1 510
1 511
1 512
1 513
1 514
1 515
1 516
1 517
1 518
1 519
1 520
1 521
1 522
1 523
1 524
1 525
1 526
1 527
1 528
1 529
1 530
1 531
1 532
1 533
1 534
1 535
1 536
1 537
1 538
1 539
1 540
1 541
1 542
1 543
1 544
1 545
1 546
1 547
1 548
1 549
1 550
1 551
1 552
1 553
1 554
1 555
1 556
1 557
1 558
1 559
1 560
1 561
1 562
1 563
1 564
1 565
1 566
1 567
1 568
1 569
1 570
1 571
1 572
1 573
1 574
1 575
1 576
1 577
1 578
1 579
1 580
1 581
1 582
1 583
1 584
1 585
1 586
1 587
1 588
1 589
1 590
1 591
1 592
1 593
1 594
1 595
1 596
1 597
1 598
1 599
1 600
1 601
1 602
1 603
1 604
1 605
1 606
1 607
1 608
1 609
1 610
1 611
1 612
1 613
1 614
1 615
1 616
1 617
1 618
1 619
1 620
1 621
1 622
1 623
1 624
1 625
1 626
1 627
1 628
1 629
1 630
1 631
1 632
1 633
1 634
1 635
1 636
1 637
1 638
1 639
1 640
1 641
1 642
1 643
1 644
1 645
1 646
1 647
1 648
1 649
1 650
1 651
1 652
1 653
1 654
1 655
1 656
1 657
1 658
1 659
1 660
1 661
1 662
1 663
1 664
1 665
1 666
1 667
1 668
1 669
1 670
1 671
1 672
1 673
1 674
1 675
1 676
1 677
1 678
1 679
1 680
POINT_DATA 681
SCALARS is_boundary int 1
LOOKUP_TABLE default
0
0
0
0
0
0
0
0
0
0
0
0
0
0
0
0
0
0
0
0
0
0
0
0
0
0
0
0
0
0
0
0
0
0
0
0
0
0
0
0
0
0
0
0
0
0
0
0
0
0
0
0
0
0
0
0
0
0
0
0
0
0
0
0
0
0
0
0
0
0
0
0
0
0
0
0
0
0
0
0
0
0
0
0
0
0
0
0
0
0
0
0
0
0
0
0
0
0
0
0
0
0
0
0
0
0
0
0
0
0
0
0
0
0
0
0
0
0
0
0
0
0
0
0
0
0
0
0
0
0
0
0
0
0
0
0
0
0
0
0
0
0
0
0
0
0
0
0
0
0
0
0
0
0
0
0
0
0
0
0
0
0
0
0
0
0
0
0
0
0
0
0
0
0
0
0
0
0
0
0
0
0
0
0
0
0
0
0
0
0
0
0
0
0
0
0
0
0
0
0
0
0
0
0
0
0
0
0
0
0
0
0
0
0
0
0
0
0
0
0
0
0
0
0
0
0
0
0
0
0
0
0
0
0
0
0
0
0
0
0
0
0
0
0
0
0
0
0
0
0
0
0
0
0
0
0
0
0
0
0
0
0
0
0
0
0
0
0
0
0
0
0
0
0
0
0
0
0
0
0
0
0
0
0
0
0
0
0
0
0
0
0
0
0
0
0
0
0
0
0
0
0
0
0
0
0
0
0
0
0
0
0
0
0
0
0
0
0
0
0
0
0
0
0
0
0
0
0
0
0
0
0
0
0
0
0
0
0
0
0
0
0
0
0
0
0
0
0
0
0
0
0
0
0
0
0
0
0
0
0
0
0
0
0
0
0
0
0
0
0
0
0
0
0
0
1
1
1
1
1
1
1
1
1
1
1
1
1
1
1
1
1
1
1
1
1
1
1
1
1
1
1
1
1
1
1
1
1
1
1
1
1
1
1
1
1
1
1
1
1
1
1
1
1
1
1
1
1
1
1
1
1
1
1
1
1
1
1
1
1
1
1
1
1
1
1
1
1
1
1
1
1
1
1
1
1
1
1
1
1
1
1
1
1
1
1
1
1
1
1
1
1
1
1
1
1
1
1
1
1
1
1
1
1
1
1
1
1
1
1
1
1
1
1
1
1
1
1
1
1
1
1
1
1
1
1
1
1
1
1
1
1
1
1
1
1
1
1
1
1
1
1
1
1
1
1
1
1
1
1
1
1
1
1
1
1
1
1
1
1
1
1
1
1
1
1
1
1
1
1
1
1
1
1
1
1
1
1
1
1
1
1
1
1
1
1
1
1
1
1
1
1
1
1
1
1
1
1
1
1
1
1
1
1
1
1
1
1
1
1
1
1
1
1
1
1
1
1
1
1
1
1
1
1
1
1
1
1
1
1
1
1
1
1
1
1
1
1
1
1
1
1
1
1
1
1
1
1
1
1
1
1
1
1
1
1
1
1
1
1
1
1
1
1
1
1
1
1
1
1
1
1
1
1
1
1
1
1
1
1
1
1
1
1
1
1
1
1
1
1
1
1
1
1
1
1
1
1
1
1
1
SCALARS rho float 1
LOOKUP_TABLE default
1020
1020
1020
1020
1020
1020
1020
1020
1020
1020
1020
1020
1020
1020
1020
1020
1020
1020
1020
1020
1020
1020
1020
1020
1020
1020
1020
1020
1020
1020
1020
1020
1020
1020
1020
1020
1020
1020
1020
1020
1020
1020
1020
1020
1020
1020
1020
1020
1020
1020
1020
1020
1020
1020
1020
1020
1020
1020
1020
1020
1020
1020
1020
1020
1020
1020
1020
1020
1020
1020
1020
1020
1020
1020
1020
1020
1020
1020
1020
1020
1020
1020
1020
1020
1020
1020
1020
1020
1020
1020
1020
1020
1020
1020
1020
1020
1020
1020
1020
1020
1020
1020
1020
1020
1020
1020
1020
1020
1020
1020
1020
1020
1020
1020
1020
1020
1020
1020
1020
1020
1020
1020
1020
1020
1020
1020
1020
1020
1020
1020
1020
1020
1020
1020
1020
1020
1020
1020
1020
1020
1020
1020
1020
1020
1020
1020
1020
1020
1020
1020
1020
1020
1020
1020
1020
1020
1020
1020
1020
1020
1020
1020
1020
1020
1020
1020
1020
1020
1020
1020
1020
1020
1020
1020
1020
1020
1020
1020
1020
1020
1020
1020
1020
1020
1020
1020
1020
1020
1020
1020
1020
1020
1020
1020
1020
1020
1020
1020
1020
1020
1020
1020
1020
1020
1020
1020
1020
1020
1020
1020
1020
1020
1020
1020
1020
1020
1020
1020
1020
1020
1020
1020
1020
1020
1020
1020
1020
1020
1020
1020
1020
1020
1020
1020
1020
1020
1020
1020
1020
1020
1020
1020
1020
1020
1020
1020
1020
1020
1020
1020
1020
1020
1020
1020
1020
1020
1020
1020
1020
1020
1020
1020
1020
1020
1020
1020
1020
1020
1020
1020
1020
1020
1020
1020
1020
1020
1020
1020
1020
1020
1020
1020
1020
1020
1020
1020
1020
1020
1020
1020
1020
1020
1020
1020
1020
1020
1020
1020
1020
1020
1020
1020
1020
1020
1020
1020
1020
1020
1020
1020
1020
1020
1020
1020
1020
1020
1020
1020
1020
1020
1020
1020
1020
1020
1020
1020
1020
1020
1020
1020
1020
1020
1020
1020
1020
1020
1020
1020
1020
1020
1020
1020
1020
1020
1020
1020
1020
1020
1020
1020
1020
1020
1020
1020
1020
1020
1020
1020
1020
1020
1020
1020
1020
1020
1020
1020
1020
1020
1020
1020
1020
1020
1020
1020
1020
1000
1000
1000
1000
1000
1000
1000
1000
1000
1000
1000
1000
1000
1000
1000
1000
1000
1000
1000
1000
1000
1000
1000
1000
1000
1000
1000
1000
1000
1000
1000
1000
1000
1000
1000
1000
1000
1000
1000
1000
1000
1000
1000
1000
1000
1000
1000
1000
1000
1000
1000
1000
1000
1000
1000
1000
1000
1000
1000
1000
1000
1000
1000
1000
1000
1000
1000
1000
1000
1000
1000
1000
1000
1000
1000
1000
1000
1000
1000
1000
1000
1000
1000
1000
1000
1000
1000
1000
1000
1000
1000
1000
1000
1000
1000
1000
1000
1000
1000
1000
1000
1000
1000
1000
1000
1000
1000
1000
1000
1000
1000
1000
1000
1000
1000
1000
1000
1000
1000
1000
1000
1000
1000
1000
1000
1000
1000
1000
1000
1000
1000
1000
1000
1000
1000
1000
1000
1000
1000
1000
1000
1000
1000
1000
1000
1000
1000
1000
1000
1000
1000
1000
1000
1000
1000
1000
1000
1000
1000
1000
1000
1000
1000
1000
1000
1000
1000
1000
1000
1000
1000
1000
1000
1000
1000
1000
1000
1000
1000
1000
1000
1000
1000
1000
1000
1000
1000
1000
1000
1000
1000
1000
1000
1000
1000
1000
1000
1000
1000
1000
1000
1000
1000
1000
1000
1000
1000
1000
1000
1000
1000
1000
1000
1000
1000
1000
1000
1000
1000
1000
1000
1000
1000
1000
1000
1000
1000
1000
1000
1000
1000
1000
1000
1000
1000
1000
1000
1000
1000
1000
1000
1000
1000
1000
1000
1000
1000
1000
1000
1000
1000
1000
1000
1000
1000
1000
1000
1000
1000
1000
1000
1000
1000
1000
1000
1000
1000
1000
1000
1000
1000
1000
1000
1000
1000
1000
1000
1000
1000
1000
1000
1000
1000
1000
1000
1000
1000
1000
1000
1000
1000
1000
1000
1000
1000
1000
1000
1000
1000
1000
1000
1000
1000
1000
1000
1000
SCALARS p float 1
LOOKUP_TABLE default
25004.681136676067
25004.681136676067
25004.681136676067
25004.681136676067
25004.681136676067
25004.681136676067
25004.681136676067
25004.681136676067
25004.681136676067
25004.681136676067
25004.681136676067
25004.681136676067
25004.681136676067
25004.681136676067
25004.681136676067
25004.681136676067
25004.681136676067
25004.681136676067
25004.681136676067
25004.681136676067
25004.681136676067
25004.681136676067
25004.681136676067
25004.681136676067
25004.681136676067
25004.681136676067
25004.681136676067
25004.681136676067
25004.681136676067
25004.681136676067
25004.681136676067
25004.681136676067
25004.681136676067
25004.681136676067
25004.681136676067
25004.681136676067
25004.681136676067
25004.681136676067
25004.681136676067
25004.681136676067
25004.681136676067
25004.681136676067
25004.681136676067
25004.681136676067
25004.681136676067
25004.681136676067
25004.681136676067
25004.681136676067
25004.681136676067
25004.681136676067
25004.681136676067
25004.681136676067
25004.681136676067
25004.681136676067
25004.681136676067
25004.681136676067
25004.681136676067
25004.681136676067
25004.681136676067
25004.681136676067
25004.681136676067
25004.681136676067
25004.681136676067
25004.681136676067
25004.681136676067
25004.681136676067
25004.681136676067
25004.681136676067
25004.681136676067
25004.681136676067
25004.681136676067
25004.681136676067
25004.681136676067
25004.681136676067
25004.681136676067
25004.681136676067
25004.681136676067
25004.681136676067
25004.681136676067
25004.681136676067
25004.681136676067
25004.681136676067
25004.681136676067
25004.681136676067
25004.681136676067
25004.681136676067
25004.681136676067
25004.681136676067
25004.681136676067
25004.681136676067
25004.681136676067
25004.681136676067
25004.681136676067
25004.681136676067
25004.681136676067
25004.681136676067
25004.681136676067
25004.681136676067
25004.681136676067
25004.681136676067
25004.681136676067
25004.681136676067
25004.681136676067
25004.681136676067
25004.681136676067
25004.681136676067
25004.681136676067
25004.681136676067
25004.681136676067
25004.681136676067
25004.681136676067
25004.681136676067
25004.681136676067
25004.681136676067
25004.681136676067
25004.681136676067
25004.681136676067
25004.681136676067
25004.681136676067
25004.681136676067
25004.681136676067
25004.681136676067
25004.681136676067
25004.681136676067
25004.681136676067
25004.681136676067
25004.681136676067
25004.681136676067
25004.681136676067
25004.681136676067
25004.681136676067
25004.681136676067
25004.681136676067
25004.681136676067
25004.681136676067
25004.681136676067
25004.681136676067
25004.681136676067
25004.681136676067
25004.681136676067
25004.681136676067
25004.681136676067
25004.681136676067
25004.681136676067
25004.681136676067
25004.681136676067
25004.681136676067
25004.681136676067
25004.681136676067
25004.681136676067
25004.681136676067
25004.681136676067
25004.681136676067
25004.681136676067
25004.681136676067
25004.681136676067
25004.681136676067
25004.681136676067
25004.681136676067
25004.681136676067
25004.681136676067
25004.681136676067
25004.681136676067
25004.681136676067
25004.681136676067
25004.681136676067
25004.681136676067
25004.681136676067
25004.681136676067
25004.681136676067
25004.681136676067
25004.681136676067
25004.681136676067
25004.681136676067
25004.681136676067
25004.681136676067
25004.681136676067
25004.681136676067
25004.681136676067
25004.681136676067
25004.681136676067
25004.681136676067
25004.681136676067
25004.681136676067
25004.681136676067
25004.681136676067
25004.681136676067
25004.681136676067
25004.681136676067
25004.681136676067
25004.681136676067
25004.681136676067
25004.681136676067
25004.681136676067
25004.681136676067
25004.681136676067
25004.681136676067
25004.681136676067
25004.681136676067
25004.681136676067
25004.681136676067
25004.681136676067
25004.681136676067
25004.681136676067
25004.681136676067
25004.681136676067
25004.681136676067
25004.681136676067
25004.681136676067
25004.681136676067
25004.681136676067
25004.681136676067
25004.681136676067
25004.681136676067
25004.681136676067
25004.681136676067
25004.681136676067
25004.681136676067
25004.681136676067
25004.681136676067
25004.681136676067
25004.681136676067
25004.681136676067
25004.681136676067
25004.681136676067
25004.681136676067
25004.681136676067
25004.681136676067
25004.681136676067
25004.681136676067
25004.681136676067
25004.681136676067
25004.681136676067
25004.681136676067
25004.681136676067
25004.681136676067
25004.681136676067
25004.681136676067
25004.681136676067
25004.681136676067
25004.681136676067
25004.681136676067
25004.681136676067
25004.681136676067
25004.681136676067
25004.681136676067
25004.681136676067
25004.681136676067
25004.681136676067
25004.681136676067
25004.681136676067
25004.681136676067
25004.681136676067
25004.681136676067
25004.681136676067
25004.681136676067
25004.681136676067
25004.681136676067
25004.681136676067
25004.681136676067
25004.681136676067
25004.681136676067
25004.681136676067
25004.681136676067
25004.681136676067
25004.681136676067
25004.681136676067
25004.681136676067
25004.681136676067
25004.681136676067
25004.681136676067
25004.681136676067
25004.681136676067
25004.681136676067
25004.681136676067
25004.681136676067
25004.681136676067
25004.681136676067
25004.681136676067
25004.681136676067
25004.681136676067
25004.681136676067
25004.681136676067
25004.681136676067
25004.681136676067
25004.681136676067
25004.681136676067
25004.681136676067
25004.681136676067
25004.681136676067
25004.681136676067
25004.681136676067
25004.681136676067
25004.681136676067
25004.681136676067
25004.681136676067
25004.681136676067
25004.681136676067
25004.681136676067
25004.681136676067
25004.681136676067
25004.681136676067
25004.681136676067
25004.681136676067
25004.681136676067
25004.681136676067
25004.681136676067
25004.681136676067
25004.681136676067
25004.681136676067
25004.681136676067
25004.681136676067
25004.681136676067
25004.681136676067
25004.681136676067
25004.681136676067
25004.681136676067
25004.681136676067
25004.681136676067
25004.681136676067
25004.681136676067
25004.681136676067
25004.681136676067
25004.681136676067
25004.681136676067
25004.681136676067
25004.681136676067
25004.681136676067
25004.681136676067
25004.681136676067
25004.681136676067
25004.681136676067
25004.681136676067
25004.681136676067
25004.681136676067
25004.681136676067
25004.681136676067
25004.681136676067
25004.681136676067
25004.681136676067
25004.681136676067
25004.681136676067
25004.681136676067
25004.681136676067
25004.681136676067
25004.681136676067
25004.681136676067
25004.681136676067
25004.681136676067
25004.681136676067
25004.681136676067
25004.681136676067
25004.681136676067
25004.681136676067
25004.681136676067
25004.681136676067
25004.681136676067
25004.681136676067
25004.681136676067
25004.681136676067
25004.681136676067
25004.681136676067
25004.681136676067
25004.681136676067
25004.681136676067
25004.681136676067
25004.681136676067
25004.681136676067
25004.681136676067
25004.681136676067
25004.681136676067
25004.681136676067
25004.681136676067
25004.681136676067
25004.681136676067
0
0
0
0
0
0
23244.7909229508
24979.706589936279
24991.298605503402
0
0
0
24994.514914733056
25003.860165799444
25004.208292340289
0
0
0
24999.957534627436
25004.264620077265
25004.436530996391
0
0
0
25000.316085002472
25004.272438780175
25004.436491058284
0
0
0
25000.332995041765
25004.272025871822
25004.435662153657
0
0
0
25000.325242814331
25004.271627700728
25004.435529666705
0
0
0
25000.320657107364
25004.271433471076
25004.435501799744
0
0
0
25000.318824421505
25004.271353957567
25004.435493923327
0
0
0
25000.318326246692
25004.271330071628
25004.435492414992
0
0
0
25000.318372575581
25004.271332101587
25004.435494390211
0
0
0
25000.319090600351
25004.271363686723
25004.435496514943
0
0
0
25000.321107362841
25004.271449645719
25004.435507038615
0
0
0
25000.325723239657
25004.27164364871
25004.435536521683
0
0
0
25000.333355968687
25004.27203560307
25004.435663712033
0
0
0
25000.31617992714
25004.272437761087
25004.436488556737
0
0
0
24999.957529220599
25004.264619762886
25004.436533928001
0
0
0
24994.514417010858
25003.860126715379
25004.208273974964
0
0
0
23244.371924487888
24979.703274106152
24991.296053074017
0
0
0
0
0
0
0
0
0
0
0
0
0
0
0
0
0
0
0
0
0
0
0
0
0
0
0
0
0
0
0
0
0
0
0
0
0
0
0
0
0
0
0
0
0
0
0
0
0
0
0
0
0
0
0
0
0
0
0
0
0
0
0
0
0
0
0
0
0
0
0
0
0
0
0
0
0
0
0
0
0
0
0
0
0
0
0
0
0
0
0
0
0
0
0
0
0
0
0
0
0
0
0
0
0
0
0
0
0
0
0
0
0
0
0
0
0
0
0
0
0
0
0
0
0
0
0
0
0
0
0
0
0
0
0
0
0
0
0
0
0
0
0
0
0
0
0
0
0
0
0
0
0
0
0
0
0
0
0
0
0
0
0
0
0
0
0
0
0
0
0
0
0
0
0
0
0
0
0
0
0
0
0
0
0
0
0
0
0
0
0
0
0
0
0
SCALARS m float 1
LOOKUP_TABLE default
0.39965556373580352
0.39965556373580352
0.39965556373580352
0.39965556373580352
0.39965556373580352
0.39965556373580352
0.39965556373580352
0.39965556373580352
0.39965556373580352
0.39965556373580352
0.39965556373580352
0.39965556373580352
0.39965556373580352
0.39965556373580352
0.39965556373580352
0.39965556373580352
0.39965556373580352
0.39965556373580352
0.39965556373580352
0.39965556373580352
0.39965556373580352
0.39965556373580352
0.39965556373580352
0.39965556373580352
0.39965556373580352
0.39965556373580352
0.39965556373580352
0.39965556373580352
0.39965556373580352
0.39965556373580352
0.39965556373580352
0.39965556373580352
0.39965556373580352
0.39965556373580352
0.39965556373580352
0.39965556373580352
0.39965556373580352
0.39965556373580352
0.39965556373580352
0.39965556373580352
0.39965556373580352
0.39965556373580352
0.39965556373580352
0.39965556373580352
0.39965556373580352
0.39965556373580352
0.39965556373580352
0.39965556373580352
0.39965556373580352
0.39965556373580352
0.39965556373580352
0.39965556373580352
0.39965556373580352
0.39965556373580352
0.39965556373580352
0.39965556373580352
0.39965556373580352
0.39965556373580352
0.39965556373580352
0.39965556373580352
0.39965556373580352
0.39965556373580352
0.39965556373580352
0.39965556373580352
0.39965556373580352
0.39965556373580352
0.39965556373580352
0.39965556373580352
0.39965556373580352
0.39965556373580352
0.39965556373580352
0.39965556373580352
0.39965556373580352
0.39965556373580352
0.39965556373580352
0.39965556373580352
0.39965556373580352
0.39965556373580352
0.39965556373580352
0.39965556373580352
0.39965556373580352
0.39965556373580352
0.39965556373580352
0.39965556373580352
0.39965556373580352
0.39965556373580352
0.39965556373580352
0.39965556373580352
0.39965556373580352
0.39965556373580352
0.39965556373580352
0.39965556373580352
0.39965556373580352
0.39965556373580352
0.39965556373580352
0.39965556373580352
0.39965556373580352
0.39965556373580352
0.39965556373580352
0.39965556373580352
0.39965556373580352
0.39965556373580352
0.39965556373580352
0.39965556373580352
0.39965556373580352
0.39965556373580352
0.39965556373580352
0.39965556373580352
0.39965556373580352
0.39965556373580352
0.39965556373580352
0.39965556373580352
0.39965556373580352
0.39965556373580352
0.39965556373580352
0.39965556373580352
0.39965556373580352
0.39965556373580352
0.39965556373580352
0.39965556373580352
0.39965556373580352
0.39965556373580352
0.39965556373580352
0.39965556373580352
0.39965556373580352
0.39965556373580352
0.39965556373580352
0.39965556373580352
0.39965556373580352
0.39965556373580352
0.39965556373580352
0.39965556373580352
0.39965556373580352
0.39965556373580352
0.39965556373580352
0.39965556373580352
0.39965556373580352
0.39965556373580352
0.39965556373580352
0.39965556373580352
0.39965556373580352
0.39965556373580352
0.39965556373580352
0.39965556373580352
0.39965556373580352
0.39965556373580352
0.39965556373580352
0.39965556373580352
0.39965556373580352
0.39965556373580352
0.39965556373580352
0.39965556373580352
0.39965556373580352
0.39965556373580352
0.39965556373580352
0.39965556373580352
0.39965556373580352
0.39965556373580352
0.39965556373580352
0.39965556373580352
0.39965556373580352
0.39965556373580352
0.39965556373580352
0.39965556373580352
0.39965556373580352
0.39965556373580352
0.39965556373580352
0.39965556373580352
0.39965556373580352
0.39965556373580352
0.39965556373580352
0.39965556373580352
0.39965556373580352
0.39965556373580352
0.39965556373580352
0.39965556373580352
0.39965556373580352
0.39965556373580352
0.39965556373580352
0.39965556373580352
0.39965556373580352
0.39965556373580352
0.39965556373580352
0.39965556373580352
0.39965556373580352
0.39965556373580352
0.39965556373580352
0.39965556373580352
0.39965556373580352
0.39965556373580352
0.39965556373580352
0.39965556373580352
0.39965556373580352
0.39965556373580352
0.39965556373580352
0.39965556373580352
0.39965556373580352
0.39965556373580352
0.39965556373580352
0.39965556373580352
0.39965556373580352
0.39965556373580352
0.39965556373580352
0.39965556373580352
0.39965556373580352
0.39965556373580352
0.39965556373580352
0.39965556373580352
0.39965556373580352
0.39965556373580352
0.39965556373580352
0.39965556373580352
0.39965556373580352
0.39965556373580352
0.39965556373580352
0.39965556373580352
0.39965556373580352
0.39965556373580352
0.39965556373580352
0.39965556373580352
0.39965556373580352
0.39965556373580352
0.39965556373580352
0.39965556373580352
0.39965556373580352
0.39965556373580352
0.39965556373580352
0.39965556373580352
0.39965556373580352
0.39965556373580352
0.39965556373580352
0.39965556373580352
0.39965556373580352
0.39965556373580352
0.39965556373580352
0.39965556373580352
0.39965556373580352
0.39965556373580352
0.39965556373580352
0.39965556373580352
0.39965556373580352
0.39965556373580352
0.39965556373580352
0.39965556373580352
0.39965556373580352
0.39965556373580352
0.39965556373580352
0.39965556373580352
0.39965556373580352
0.39965556373580352
0.39965556373580352
0.39965556373580352
0.39965556373580352
0.39965556373580352
0.39965556373580352
0.39965556373580352
0.39965556373580352
0.39965556373580352
0.39965556373580352
0.39965556373580352
0.39965556373580352
0.39965556373580352
0.39965556373580352
0.39965556373580352
0.39965556373580352
0.39965556373580352
0.39965556373580352
0.39965556373580352
0.39965556373580352
0.39965556373580352
0.39965556373580352
0.39965556373580352
0.39965556373580352
0.39965556373580352
0.39965556373580352
0.39965556373580352
0.39965556373580352
0.39965556373580352
0.39965556373580352
0.39965556373580352
0.39965556373580352
0.39965556373580352
0.39965556373580352
0.39965556373580352
0.39965556373580352
0.39965556373580352
0.39965556373580352
0.39965556373580352
0.39965556373580352
0.39965556373580352
0.39965556373580352
0.39965556373580352
0.39965556373580352
0.39965556373580352
0.39965556373580352
0.39965556373580352
0.39965556373580352
0.39965556373580352
0.39965556373580352
0.39965556373580352
0.39965556373580352
0.39965556373580352
0.39965556373580352
0.39965556373580352
0.39965556373580352
0.39965556373580352
0.39965556373580352
0.39965556373580352
0.39965556373580352
0.39965556373580352
0.39965556373580352
0.39965556373580352
0.39965556373580352
0.39965556373580352
0.39965556373580352
0.39965556373580352
0.39965556373580352
0.39965556373580352
0.39965556373580352
0.39965556373580352
0.39965556373580352
0.39965556373580352
0.39965556373580352
0.39965556373580352
0.39965556373580352
0.39965556373580352
0.39965556373580352
0.39965556373580352
0.39965556373580352
0.39965556373580352
0.39965556373580352
0.39965556373580352
0.39965556373580352
0.39965556373580352
0.39965556373580352
0.39965556373580352
0.39965556373580352
0.39965556373580352
0.39965556373580352
0.39965556373580352
0.39965556373580352
0.39965556373580352
0.39965556373580352
0.39965556373580352
0.39965556373580352
0.39965556373580352
0.39965556373580352
0.39965556373580352
0.39965556373580352
0.39965556373580352
0.39965556373580352
0.39965556373580352
0.39965556373580352
0.39965556373580352
0.39965556373580352
0.39965556373580352
0.39965556373580352
0.39965556373580352
0.39965556373580352
0.39965556373580352
0.39965556373580352
0.39965556373580352
0.39965556373580352
0.39965556373580352
0.39965556373580352
0.39965556373580352
0.39965556373580352
0.39965556373580352
0.39965556373580352
0.39965556373580352
0.39965556373580352
0.39965556373580352
0.39965556373580352
0.39965556373580352
0.39965556373580352
0.39965556373580352
0.39965556373580352
0.39965556373580352
0.39965556373580352
0.39965556373580352
0.39965556373580352
0.39965556373580352
0.39965556373580352
0.39965556373580352
0.39965556373580352
0.39965556373580352
0.39965556373580352
0.39965556373580352
0.39965556373580352
0.39965556373580352
0.39965556373580352
0.39965556373580352
0.39965556373580352
0.39965556373580352
0.39965556373580352
0.39965556373580352
0.39965556373580352
0.39965556373580352
0.39965556373580352
0.39965556373580352
0.39965556373580352
0.39965556373580352
0.39965556373580352
0.39965556373580352
0.39965556373580352
0.39965556373580352
0.39965556373580352
0.39965556373580352
0.39965556373580352
0.39965556373580352
0.39965556373580352
0.39965556373580352
0.39965556373580352
0.39965556373580352
0.39965556373580352
0.39965556373580352
0.39965556373580352
0.39965556373580352
0.39965556373580352
0.39965556373580352
0.39965556373580352
0.39965556373580352
0.39965556373580352
0.39965556373580352
0.39965556373580352
0.39965556373580352
0.39965556373580352
0.39965556373580352
0.39965556373580352
0.39965556373580352
0.39965556373580352
0.39965556373580352
0.39965556373580352
0.39965556373580352
0.39965556373580352
0.39965556373580352
0.39965556373580352
0.39965556373580352
0.39965556373580352
0.39965556373580352
0.39965556373580352
0.39965556373580352
0.39965556373580352
0.39965556373580352
0.39965556373580352
0.39965556373580352
0.39965556373580352
0.39965556373580352
0.39965556373580352
0.39965556373580352
0.39965556373580352
0.39965556373580352
0.39965556373580352
0.39965556373580352
0.39965556373580352
0.39965556373580352
0.39965556373580352
0.39965556373580352
0.39965556373580352
0.39965556373580352
0.39965556373580352
0.39965556373580352
0.39965556373580352
0.39965556373580352
0.39965556373580352
0.39965556373580352
0.39965556373580352
0.39965556373580352
0.39965556373580352
0.39965556373580352
0.39965556373580352
0.39965556373580352
0.39965556373580352
0.39965556373580352
0.39965556373580352
0.39965556373580352
0.39965556373580352
0.39965556373580352
0.39965556373580352
0.39965556373580352
0.39965556373580352
0.39965556373580352
0.39965556373580352
0.39965556373580352
0.39965556373580352
0.39965556373580352
0.39965556373580352
0.39965556373580352
0.39965556373580352
0.39965556373580352
0.39965556373580352
0.39965556373580352
0.39965556373580352
0.39965556373580352
0.39965556373580352
0.39965556373580352
0.39965556373580352
0.39965556373580352
0.39965556373580352
0.39965556373580352
0.39965556373580352
0.39965556373580352
0.39965556373580352
0.39965556373580352
0.39965556373580352
0.39965556373580352
0.39965556373580352
0.39965556373580352
0.39965556373580352
0.39965556373580352
0.39965556373580352
0.39965556373580352
0.39965556373580352
0.39965556373580352
0.39965556373580352
0.39965556373580352
0.39965556373580352
0.39965556373580352
0.39965556373580352
0.39965556373580352
0.39965556373580352
0.39965556373580352
0.39965556373580352
0.39965556373580352
0.39965556373580352
0.39965556373580352
0.39965556373580352
0.39965556373580352
0.39965556373580352
0.39965556373580352
0.39965556373580352
0.39965556373580352
0.39965556373580352
0.39965556373580352
0.39965556373580352
0.39965556373580352
0.39965556373580352
0.39965556373580352
0.39965556373580352
0.39965556373580352
0.39965556373580352
0.39965556373580352
0.39965556373580352
0.39965556373580352
0.39965556373580352
0.39965556373580352
0.39965556373580352
0.39965556373580352
0.39965556373580352
0.39965556373580352
0.39965556373580352
0.39965556373580352
0.39965556373580352
0.39965556373580352
0.39965556373580352
0.39965556373580352
0.39965556373580352
0.39965556373580352
0.39965556373580352
0.39965556373580352
0.39965556373580352
0.39965556373580352
0.39965556373580352
0.39965556373580352
0.39965556373580352
0.39965556373580352
0.39965556373580352
0.39965556373580352
0.39965556373580352
0.39965556373580352
0.39965556373580352
0.39965556373580352
0.39965556373580352
0.39965556373580352
0.39965556373580352
0.39965556373580352
0.39965556373580352
0.39965556373580352
0.39965556373580352
0.39965556373580352
0.39965556373580352
0.39965556373580352
0.39965556373580352
0.39965556373580352
0.39965556373580352
0.39965556373580352
0.39965556373580352
0.39965556373580352
0.39965556373580352
0.39965556373580352
0.39965556373580352
0.39965556373580352
0.39965556373580352
0.39965556373580352
0.39965556373580352
0.39965556373580352
0.39965556373580352
0.39965556373580352
0.39965556373580352
0.39965556373580352
0.39965556373580352
0.39965556373580352
0.39965556373580352
0.39965556373580352
0.39965556373580352
0.39965556373580352
0.39965556373580352
0.39965556373580352
0.39965556373580352
0.39965556373580352
0.39965556373580352
0.39965556373580352
0.39965556373580352
0.39965556373580352
0.39965556373580352
0.39965556373580352
0.39965556373580352
0.39965556373580352
0.39965556373580352
0.39965556373580352
0.39965556373580352
0.39965556373580352
0.39965556373580352
0.39965556373580352
0.39965556373580352
0.39965556373580352
0.39965556373580352
0.39965556373580352
0.39965556373580352
0.39965556373580352
0.39965556373580352
0.39965556373580352
0.39965556373580352
0.39965556373580352
0.39965556373580352
0.39965556373580352
0.39965556373580352
0.39965556373580352
0.39965556373580352
0.39965556373580352
0.39965556373580352
0.39965556373580352
0.39965556373580352
0.39965556373580352
0.39965556373580352
0.39965556373580352
0.39965556373580352
0.39965556373580352
0.39965556373580352
0.39965556373580352
0.39965556373580352
0.39965556373580352
0.39965556373580352
0.39965556373580352
0.39965556373580352
0.39965556373580352
0.39965556373580352
0.39965556373580352
0.39965556373580352
0.39965556373580352
0.39965556373580352
0.39965556373580352
0.39965556373580352
0.39965556373580352
0.39965556373580352
0.39965556373580352
0.39965556373580352
0.39965556373580352
0.39965556373580352
0.39965556373580352
0.39965556373580352
0.39965556373580352
0.39965556373580352
0.39965556373580352
0.39965556373580352
0.39965556373580352
0.39965556373580352
0.39965556373580352
0.39965556373580352
0.39965556373580352
0.39965556373580352
VECTORS v float
-2.109884795006242e-05 -0.03786105989117898 0
-2.2233205614438909e-05 -0.038436246462142123 0
-2.3046419571822079e-05 -0.038882847235625941 0
-2.3786898887888127e-05 -0.03932810333238039 0
-2.4469071291969868e-05 -0.039786708849391582 0
-2.5106576586954248e-05 -0.040270887942608725 0
-2.5712147202684097e-05 -0.040789029993621273 0
-2.6289761547498096e-05 -0.041348131007530306 0
-2.6838480462139715e-05 -0.041954956053295488 0
-2.7343385124861359e-05 -0.042616271991249954 0
-2.7799836174119579e-05 -0.043339468959759347 0
-2.819456336515084e-05 -0.044131940725180736 0
-2.8486711104450949e-05 -0.045005534783989255 0
-2.8857123298386405e-05 -0.045978943727288071 0
-2.9113012177014521e-05 -0.047071969472028428 0
-2.9387778319489894e-05 -0.048306824231849455 0
-2.9666552747860877e-05 -0.049712109950886881 0
-2.9979964738987162e-05 -0.051324499928677388 0
-3.0315975313444072e-05 -0.05319217664349913 0
-3.0846377394209656e-05 -0.055367318755555173 0
-3.1183042542059572e-05 -0.057951505850323944 0
-3.1718655387922234e-05 -0.061090134641567234 0
-3.2370378058040525e-05 -0.065020131185094976 0
-3.3638271353945165e-05 -0.070257443123312752 0
-3.5149135617155179e-05 -0.078556004181242312 0
-1.2494608923045793e-05 -0.038089771908923403 0
-1.3350722894741435e-05 -0.038714165008112103 0
-1.3984156230925597e-05 -0.03919882828919552 0
-1.453209627147664e-05 -0.03966675539570251 0
-1.4979256115581178e-05 -0.040139300482695157 0
-1.5370149628946125e-05 -0.040633425370128984 0
-1.570207073970187e-05 -0.041160471538801618 0
-1.6020197556116932e-05 -0.041728876136514853 0
-1.6283310237423712e-05 -0.042346368651175949 0
-1.6487871224333948e-05 -0.043020131407031065 0
-1.6778108916146695e-05 -0.043758180200390899 0
-1.7108489865457832e-05 -0.044568525168981382 0
-1.7305997790959097e-05 -0.045462912353243554 0
-1.7644887305093992e-05 -0.046460379513830488 0
-1.7952063201907785e-05 -0.047581283164536914 0
-1.8230001683277497e-05 -0.048847532369776028 0
-1.8464006695157579e-05 -0.050286886689667673 0
-1.8706946031707158e-05 -0.051936426693013404 0
-1.8965342283331516e-05 -0.053841085201764768 0
-1.9216038148646294e-05 -0.05605755996254317 0
-1.9482998924375537e-05 -0.058678462792923214 0
-1.9654285494524568e-05 -0.061840105404514775 0
-1.9902833840365652e-05 -0.065774424486091554 0
-2.0150843362198808e-05 -0.071044777397059194 0
-2.0424105015804059e-05 -0.079596278505017076 0
-4.9768490508211614e-06 -0.038170914857844691 0
-5.3617738653682811e-06 -0.03879971905157819 0
-5.6474099979917308e-06 -0.039289476295593047 0
-5.9031017775235683e-06 -0.039762325939139961 0
-6.0779159828814467e-06 -0.040240119527771352 0
-6.2324386772653172e-06 -0.040740445800580838 0
-6.4138245355187739e-06 -0.04127445728162378 0
-6.5456515821783366e-06 -0.041851345156376715 0
-6.590414022387204e-06 -0.042478853118020618 0
-6.6900030724021014e-06 -0.043164741571422562 0
-6.8707651338504346e-06 -0.043916999160670024 0
-7.0289149984080617e-06 -0.044744171020986226 0
-7.2094372785456255e-06 -0.045658850544757629 0
-7.3239661767403252e-06 -0.046681368219147895 0
-7.5509647328991667e-06 -0.047830540996745857 0
-7.6493438448407793e-06 -0.049130961143059058 0
-7.8581637189403128e-06 -0.05061106167696227 0
-8.0234067041804814e-06 -0.052307010957548056 0
-8.2227518766721763e-06 -0.054264529545698596 0
-8.5076752501209788e-06 -0.056544940176390307 0
-8.6552374274447169e-06 -0.05923732493852462 0
-8.9932854149383437e-06 -0.062478939966051777 0
-9.2204259842420753e-06 -0.066497807969634698 0
-9.4705489176058197e-06 -0.071861144532405774 0
-9.749549181827602e-06 -0.080524633234877865 0
-1.8240516050349479e-06 -0.038215280083372362 0
-1.9603525910354928e-06 -0.038848503984864342 0
-2.026316938185107e-06 -0.039341913415827427 0
-2.1090072312193753e-06 -0.039818439270776051 0
-2.1598650101671833e-06 -0.040300151340570106 0
-2.2283710289142468e-06 -0.04080463459922487 0
-2.2851145144063521e-06 -0.041343168459300986 0
-2.352038223045276e-06 -0.041925191831137187 0
-2.3432405941200279e-06 -0.042558352761167775 0
-2.5506911783735711e-06 -0.043250461240539988 0
-2.534931496488345e-06 -0.044009727820840207 0
-2.44703956820066e-06 -0.044844758198736186 0
-2.6017922130885444e-06 -0.0457685090723104 0
-2.5070046552127306e-06 -0.046801193944368782 0
-2.6651797625174965e-06 -0.047962772834158091 0
-2.7268335904558235e-06 -0.049277146671298233 0
-2.7972657310265526e-06 -0.05077279479647661 0
-2.7924284861239162e-06 -0.052486118989950217 0
-2.9207165523188356e-06 -0.054463733530980663 0
-3.0936987789640909e-06 -0.056766328926379173 0
-3.2038300693996787e-06 -0.059484014391306003 0
-3.3819820750249958e-06 -0.062752895469849565 0
-3.5454043785681588e-06 -0.066801266216328883 0
-3.7359706655844016e-06 -0.072197533359020377 0
-3.9736296864542856e-06 -0.080901633043829871 0
-6.352380785119388e-07 -0.03823961156838239 0
-6.4749730102484146e-07 -0.038875439308793766 0
-6.7393048667032267e-07 -0.039370865702194321 0
-6.8967106042330608e-07 -0.039849307419527566 0
-6.7516316236032443e-07 -0.040333061279869846 0
-6.7893572533188061e-07 -0.040839689400258956 0
-7.0598225953043968e-07 -0.041380442746192951 0
-7.8964516534726653e-07 -0.041964747655722202 0
-7.3921875787918432e-07 -0.042600379620681285 0
-7.468275746169164e-07 -0.043295181766288805 0
-8.2107361820620506e-07 -0.044057459978564084 0
-8.1185588461892397e-07 -0.044895441464647398 0
-7.9449443946437398e-07 -0.045822591427617125 0
-8.3416044471985865e-07 -0.046859042308858512 0
-1.0532826766465688e-06 -0.048024894033417802 0
-1.0593042630405757e-06 -0.049344325290568467 0
-1.0821165944946927e-06 -0.050846470501136394 0
-1.1192835677409396e-06 -0.052566550500851912 0
-1.1505037837156794e-06 -0.054551148566333509 0
-1.0744435784640069e-06 -0.056860769553625713 0
-1.1397141317376054e-06 -0.059586952706269347 0
-1.313061941611441e-06 -0.062864920305962357 0
-1.3394237645315537e-06 -0.066923075198226545 0
-1.4799288481057851e-06 -0.072330276406573107 0
-1.7184874650217458e-06 -0.081048136611117635 0
-3.1917910963842438e-07 -0.038251625409352952 0
-3.5477371759125359e-07 -0.038888783356761256 0
-3.61738979808011e-07 -0.039385126858016088 0
-3.489594645920937e-07 -0.039864462226016015 0
-3.614796489370874e-07 -0.04034912391192861 0
-3.8448370335568554e-07 -0.04085670046583019 0
-4.0598237904819119e-07 -0.041398472914740456 0
-4.5406175525416319e-07 -0.041983769823388674 0
-3.14899287067969e-07 -0.042620492609269131 0
-3.8065681025647977e-07 -0.043316384773308764 0
-4.5388044570886473e-07 -0.044079895383618756 0
-5.6128799215051086e-07 -0.044919342653104967 0
-5.5929982740884363e-07 -0.045848070551710092 0
-5.6110898112771212e-07 -0.04688631480727825 0
-6.0862936848304553e-07 -0.048054098612090188 0
-6.6359350045218136e-07 -0.049375449798996225 0
-6.5938837712380177e-07 -0.050878711437756956 0
-6.9617593371439621e-07 -0.052600389363011847 0
-7.6023811270611156e-07 -0.054587356984175259 0
-7.922506383683219e-07 -0.056900400601505509 0
-7.9512241345345264e-07 -0.059629556256139297 0
-8.3612706506672677e-07 -0.062910768304389117 0
-8.9998910574180439e-07 -0.066972681391086031 0
-9.3994622029058497e-07 -0.072383890567498929 0
-1.0200268761693999e-06 -0.081105780598949476 0
-3.0582877771483799e-07 -0.038256665403380179 0
-3.3650198745587777e-07 -0.038894347053523723 0
-3.7856762698762707e-07 -0.0393911750510696 0
-3.8924891574567842e-07 -0.039870880312585268 0
-3.7692878986688907e-07 -0.040355865412544795 0
-4.18974012835689e-07 -0.040863806352364286 0
-4.2514495904466044e-07 -0.041405968497900757 0
-4.6339076369996281e-07 -0.041991627684914629 0
-4.6161744824481167e-07 -0.042628687121077216 0
-5.3721714579195152e-07 -0.043324891900019452 0
-5.0854404378217921e-07 -0.044088979052042093 0
-6.3771420782494468e-07 -0.044928670040238684 0
-6.7691934036830675e-07 -0.045857618925118866 0
-6.722377211704813e-07 -0.046896649981058837 0
-6.863139568017906e-07 -0.048065131373777041 0
-7.0233463752319807e-07 -0.049387398125700741 0
-7.2175966550134168e-07 -0.050891512628618366 0
-7.1827301257520621e-07 -0.052613352958411796 0
-6.7802759023419427e-07 -0.054601037280232731 0
-7.2296885889517312e-07 -0.056915158901395244 0
-6.6142366384943206e-07 -0.059645377205988212 0
-7.1306708753730321e-07 -0.062927817910613276 0
-7.2194292159036002e-07 -0.066991285294930022 0
-6.8354390701038836e-07 -0.07240611665543184 0
-6.3122906100425364e-07 -0.081127503016007185 0
-2.4761521453864916e-07 -0.038258190719652981 0
-3.0684578703932339e-07 -0.038895879934726457 0
-3.1461141196131645e-07 -0.039392696944939139 0
-3.2896152945583098e-07 -0.039872570487061131 0
-3.5413452235512534e-07 -0.0403577565566893 0
-3.4670596364504929e-07 -0.040865712762346566 0
-3.8385059546597302e-07 -0.041407941387594245 0
-3.8876569490235447e-07 -0.041993756518452705 0
-3.8520803439795483e-07 -0.0426307987466907 0
-4.0315229957370646e-07 -0.043327128815926576 0
-4.2985107085551468e-07 -0.044091363493833281 0
-2.9147346382238992e-07 -0.044931334387879364 0
-4.5021591311619483e-07 -0.045860521221042436 0
-2.7812172417455254e-07 -0.046899557536525562 0
-3.2247550402499193e-07 -0.048068169429368521 0
-3.2172608821455435e-07 -0.049390150842743244 0
-3.9795068625494356e-07 -0.050893947505965743 0
-4.1239845097410377e-07 -0.052616332289619705 0
-4.0687948035328804e-07 -0.054603964825801703 0
-3.6144093978860589e-07 -0.056918017886452954 0
-3.6859490251515044e-07 -0.05964784327908252 0
-3.7686734851418164e-07 -0.06292926600233828 0
-3.5225707598758942e-07 -0.066990120608825046 0
-3.2129992820088948e-07 -0.072406042760357517 0
-2.4296321206199551e-07 -0.081129692151977933 0
-8.3691388534846563e-08 -0.038256878153798704 0
-1.0238792379725773e-07 -0.038894416346998556 0
-1.1090212704976813e-07 -0.039391074985260316 0
-1.0671659600643724e-07 -0.039870714189707737 0
-1.3906924001754924e-07 -0.040355776325347731 0
-1.0591264599199938e-07 -0.040863626564540526 0
-1.0640757594947573e-07 -0.041405738157173529 0
-8.3225781457726698e-08 -0.041991430292123814 0
-8.1508433823770207e-08 -0.042628481845055043 0
-2.6016448045975547e-07 -0.043324649198087296 0
1.3599581781402039e-07 -0.044088282027594197 0
1.6516737882478704e-07 -0.044928064269743828 0
-1.8727625461034498e-07 -0.045857476974935814 0
4.9542900897141766e-08 -0.046896345439757889 0
7.3611588616211452e-08 -0.048064645180906938 0
1.0569384647475449e-08 -0.049386320359740693 0
-1.1316911221387632e-07 -0.050889679078808293 0
-2.5012286741348691e-07 -0.052611915510929419 0
-2.4045082186675682e-07 -0.054599323833001381 0
-2.7106627746743407e-07 -0.056912946343624878 0
-2.7904110057551046e-07 -0.059642353950404084 0
-2.1632333510275144e-07 -0.062923234807982883 0
-2.3749289680638533e-07 -0.066983402787526625 0
-2.0026314153164823e-07 -0.072398460467652137 0
-1.496703863880896e-07 -0.081122229316896374 0
2.6539256901891824e-07 -0.03825140260207803 0
2.5624887103406186e-07 -0.038888426336508096 0
2.5670716722140363e-07 -0.039384745765226263 0
2.9967104384197696e-07 -0.039864011608028375 0
3.175638244818593e-07 -0.040348588043580248 0
3.3118230557111125e-07 -0.040856131544522951 0
3.1047194514405353e-07 -0.04139798407874528 0
3.9956511911491161e-07 -0.041983425132461401 0
4.0224395813754454e-07 -0.042619786108339927 0
3.6978881750661589e-07 -0.043315278240255918 0
3.8189238679385856e-07 -0.04407846085124973 0
3.9820742126301229e-07 -0.044917808434332462 0
4.012962919448369e-07 -0.045846924702333994 0
2.8715665269754854e-07 -0.046884971060086732 0
3.1223083792763428e-07 -0.04805235524093384 0
3.2418890386734033e-07 -0.049373170894243673 0
3.5241484364981584e-07 -0.050875730661872773 0
3.393810751370738e-07 -0.052597279515761729 0
3.4302956958690086e-07 -0.054583824707351979 0
3.3473952652243739e-07 -0.056896355972450401 0
3.6088014893322971e-07 -0.059624852441516975 0
3.381720658029246e-07 -0.06290528081627686 0
3.556587887142069e-07 -0.06696738931596781 0
4.295553906601735e-07 -0.072377806159707014 0
4.6879376509220277e-07 -0.081099968435467337 0
8.714488620341685e-07 -0.038238983022922488 0
9.5762549125914209e-07 -0.038874734172618018 0
1.0145133675212667e-06 -0.039370028868133532 0
1.1052084015770542e-06 -0.039848503545559029 0
1.1346901694725211e-06 -0.040332102855949466 0
1.1208510164097468e-06 -0.040838766361259986 0
1.1415959531063105e-06 -0.041379534343937922 0
1.1819528701975901e-06 -0.041963785812866444 0
1.1693281193975414e-06 -0.042599347720639238 0
1.1278526240441765e-06 -0.043294098185392496 0
1.1101921981894119e-06 -0.044056297665249405 0
1.2140125222328801e-06 -0.044894316948848427 0
1.3267637091217152e-06 -0.045821343794633318 0
1.3012927437716203e-06 -0.046857908098951954 0
1.4115484351371639e-06 -0.048023566313997804 0
1.4111274879710132e-06 -0.049342254298805677 0
1.4997633500164209e-06 -0.05084235004694769 0
1.4365271204785951e-06 -0.052562050123862551 0
1.5011461467687826e-06 -0.05454611112604435 0
1.5435647067509369e-06 -0.056854943024585991 0
1.5839040670352671e-06 -0.0595796961680874 0
1.5725601745686479e-06 -0.062856666181161203 0
1.5524792521542137e-06 -0.066920914677578436 0
1.5699880412722283e-06 -0.072325428834215374 0
1.6437992466197997e-06 -0.081042469230697578 0
1.7404573542469069e-06 -0.038213752428250244 0
1.9164749728648059e-06 -0.038846886943075171 0
1.9817825067411586e-06 -0.039340252807122306 0
2.0518955342059856e-06 -0.039816861364801628 0
2.0998696168694424e-06 -0.040298652293481493 0
2.1139741460901286e-06 -0.040803283947280944 0
2.1527494400824607e-06 -0.041341784022556213 0
2.1766562171384274e-06 -0.041923889526212683 0
2.1872207264619942e-06 -0.042557088200297806 0
2.190223448021234e-06 -0.043249225386614021 0
2.1039690930861264e-06 -0.044008831429645533 0
2.2812803175460552e-06 -0.044843882702688381 0
2.3816117648130988e-06 -0.045767698523862074 0
2.58895153649705e-06 -0.046800289752866334 0
2.601750986417661e-06 -0.04796156957090035 0
2.7435143434824637e-06 -0.049275697285379456 0
2.7844194679421708e-06 -0.050770661401671399 0
2.8478622887795819e-06 -0.052483753801356156 0
2.8720620690900243e-06 -0.05446096178831588 0
2.9604855616031242e-06 -0.056762791031758783 0
3.1035063341343419e-06 -0.059479378798104596 0
3.2418227454536559e-06 -0.062746975354376469 0
3.2739498481882985e-06 -0.066798486413146146 0
3.4218006097942297e-06 -0.072194314872990342 0
3.6533392648693514e-06 -0.080897638066695157 0
4.4598893071603337e-06 -0.038169845079873164 0
4.7803892791115294e-06 -0.038798524345459044 0
5.0054127371265894e-06 -0.039288436721035998 0
5.1940640045115649e-06 -0.039761296353817623 0
5.3620086271877429e-06 -0.040239216095416711 0
5.5161720304355759e-06 -0.040739417721858066 0
5.646948600199069e-06 -0.041273314276992476 0
5.7543181906727299e-06 -0.041850518754132614 0
5.9179234068375099e-06 -0.042478029376368708 0
6.0988612468621554e-06 -0.04316428406835067 0
6.1737822837762103e-06 -0.04391658423380651 0
6.2451680743896749e-06 -0.044743941965181701 0
6.3504866892112059e-06 -0.045658508421376635 0
6.4997221065669566e-06 -0.046681114194042972 0
6.5710212381585244e-06 -0.047830292412088776 0
6.7503691736584534e-06 -0.049130848592659988 0
6.920832506621124e-06 -0.050610692090378502 0
7.1059117905854885e-06 -0.052306510720537588 0
7.2935295113276371e-06 -0.054264252872684188 0
7.503706500820648e-06 -0.056544604710305861 0
7.7361015811878567e-06 -0.059236851089361324 0
8.0010492862756224e-06 -0.06247752698730568 0
8.2724618308493638e-06 -0.066496709300992579 0
8.5781879853163831e-06 -0.071859853529293957 0
9.0021430195403952e-06 -0.080522644637765053 0
1.2022886340294671e-05 -0.038089169403749436 0
1.279790157694633e-05 -0.03871313871685958 0
1.339637594723174e-05 -0.039198351337491007 0
1.3832748746370868e-05 -0.039666358754588106 0
1.4189768917874761e-05 -0.040139071891161324 0
1.4631757889360509e-05 -0.040633209507035306 0
1.4923708092765643e-05 -0.041160206803386924 0
1.5177290209278393e-05 -0.041728908092630038 0
1.551457955577265e-05 -0.04234648307624074 0
1.5653998608572519e-05 -0.043020470105582319 0
1.5799839103260923e-05 -0.043758700038892345 0
1.6077104794751092e-05 -0.044569327918478521 0
1.6472950962174269e-05 -0.045464015206116815 0
1.6733070336615114e-05 -0.046461803846284164 0
1.7111348409082363e-05 -0.047582681413071745 0
1.7464249390041449e-05 -0.048849193076279357 0
1.7757461847699559e-05 -0.050288505850829654 0
1.7905472851040636e-05 -0.051937535906214666 0
1.8139177672643847e-05 -0.053840969805396675 0
1.83888107484159e-05 -0.056058839271841313 0
1.8708724819177952e-05 -0.058679532031153628 0
1.8976463409068076e-05 -0.061840150197009482 0
1.9516787621256112e-05 -0.06577486609009639 0
1.9775885216705235e-05 -0.071045235468023771 0
2.005131778870887e-05 -0.079596479744484638 0
2.0730568124947467e-05 -0.037861101085401715 0
2.1831167963374293e-05 -0.038436325210958876 0
2.2620101964708754e-05 -0.03888295008415351 0
2.3329351673571438e-05 -0.039328200609252247 0
2.3989263119428765e-05 -0.039786770696264968 0
2.4598509014549962e-05 -0.04027085438854057 0
2.5198799922084387e-05 -0.040789216784305055 0
2.5763524746382374e-05 -0.041348689376495898 0
2.6299207419158611e-05 -0.041955436077971413 0
2.6795554419096583e-05 -0.042616777810551155 0
2.7246980479966131e-05 -0.043340070470908765 0
2.7640479524782915e-05 -0.044132648261862792 0
2.7970964182364535e-05 -0.045006387595757515 0
2.8262709543691822e-05 -0.045980011343560535 0
2.8548255863820926e-05 -0.047073267665895084 0
2.8829211170203148e-05 -0.048308572232872347 0
2.9124917649715775e-05 -0.049714140384485926 0
2.9448440730214981e-05 -0.051325784765099837 0
2.9779278154572679e-05 -0.053191032637767179 0
3.0182493945248483e-05 -0.055368452946101342 0
3.0639889532685144e-05 -0.057952665359366717 0
3.1175568193406576e-05 -0.061091017242621642 0
3.1786063079277082e-05 -0.065020970260483174 0
3.2527639844282154e-05 -0.070259191809577695 0
3.3568344394344478e-05 -0.078557802736620483 0
-0 -0 0
-0 -0 0
-0 -0 0
-0 -0 0
-0 -0 0
-0 -0 0
2.0060790821077539e-05 0.035539322584367636 0
2.4161033389018521e-05 0.039891448411891191 0
2.8101307787107915e-05 0.046259312351517888 0
-0 -0 0
-0 -0 0
-0 -0 0
2.2626106795979364e-05 0.038784564889356853 0
2.4583636502586076e-05 0.040848882068375059 0
2.7653429906253813e-05 0.046809166187499522 0
-0 -0 0
-0 -0 0
-0 -0 0
1.7788435052886911e-05 0.038939338402213509 0
1.976264659546616e-05 0.041009412083774809 0
2.2410582919434419e-05 0.046980024317026192 0
-0 -0 0
-0 -0 0
-0 -0 0
9.5869119908422008e-06 0.039106610301434981 0
1.075563830443762e-05 0.041189528368264748 0
1.2394423746375196e-05 0.04722937533830162 0
-0 -0 0
-0 -0 0
-0 -0 0
3.7964474930932431e-06 0.039175445753451527 0
4.363383935786406e-06 0.041277787313927894 0
5.1654288100122843e-06 0.047384621346477376 0
-0 -0 0
-0 -0 0
-0 -0 0
1.3398673504760188e-06 0.039214451770205078 0
1.5371565464631125e-06 0.041327486759968633 0
1.8425542587171475e-06 0.047465578444603369 0
-0 -0 0
-0 -0 0
-0 -0 0
5.1012189092581007e-07 0.03923506254724269 0
5.8215970186756126e-07 0.041353347593959262 0
7.4278239660084769e-07 0.047504373394125853 0
-0 -0 0
-0 -0 0
-0 -0 0
3.4543655242101819e-07 0.039244746094659194 0
4.3164572893882601e-07 0.041365347476798521 0
6.0149685904355265e-07 0.047521452150097968 0
-0 -0 0
-0 -0 0
-0 -0 0
3.0679597542610917e-07 0.039248484809398812 0
3.8874436604948301e-07 0.041369876256867173 0
5.0508354834281199e-07 0.047527604000170601 0
-0 -0 0
-0 -0 0
-0 -0 0
1.9277139286912136e-07 0.039248564285160346 0
2.1813312633547904e-07 0.041369814043303081 0
2.5563878935206488e-07 0.047527326052891235 0
-0 -0 0
-0 -0 0
-0 -0 0
-8.319276411150445e-08 0.039244742141379893 0
-1.1712130142323809e-07 0.041365053055726735 0
-1.1935632374559308e-07 0.047520520171582939 0
-0 -0 0
-0 -0 0
-0 -0 0
-6.2054219272306066e-07 0.039234616974134676 0
-7.2452631642331591e-07 0.041352692647975857 0
-8.5918930371358367e-07 0.047502913057796019 0
-0 -0 0
-0 -0 0
-0 -0 0
-1.4721930368973755e-06 0.039213257071727507 0
-1.7038958729326809e-06 0.0413263577105146 0
-2.0711485114057612e-06 0.047464229506416142 0
-0 -0 0
-0 -0 0
-0 -0 0
-3.4576252440576773e-06 0.039174018999728985 0
-3.968123753185027e-06 0.041276597800606225 0
-4.6962815335901406e-06 0.047383937361617334 0
-0 -0 0
-0 -0 0
-0 -0 0
-8.9784681208643845e-06 0.039105707147500057 0
-1.0021027696580448e-05 0.041188926018690647 0
-1.1500318650611971e-05 0.047229459213090512 0
-0 -0 0
-0 -0 0
-0 -0 0
-1.7299781926471727e-05 0.038939071649165602 0
-1.9177897442895662e-05 0.041009433743979237 0
-2.1746767314279296e-05 0.046980602330817585 0
-0 -0 0
-0 -0 0
-0 -0 0
-2.2235637098146574e-05 0.038784672789947891 0
-2.4142361785704056e-05 0.04084907507102202 0
-2.7184268378260217e-05 0.046809899482908902 0
-0 -0 0
-0 -0 0
-0 -0 0
-1.972925516847641e-05 0.035538763592191554 0
-2.3737856411095787e-05 0.039891450133947938 0
-2.7644574339267539e-05 0.046260044683486802 0
-0 -0 0
-0 -0 0
-0 -0 0
-0 -0 0
-0 -0 0
-0 -0 0
-0 -0 0
-0 -0 0
-0 -0 0
-0 -0 0
-0 -0 0
-0 -0 0
-0 -0 0
-0 -0 0
-0 -0 0
-0 -0 0
-0 -0 0
-0 -0 0
-0 -0 0
-0 -0 0
-0 -0 0
-0 -0 0
-0 -0 0
-0 -0 0
-0 -0 0
-0 -0 0
-0 -0 0
-0 -0 0
-0 -0 0
-0 -0 0
-0 -0 0
-0 -0 0
-0 -0 0
-0 -0 0
-0 -0 0
-0 -0 0
-0 -0 0
-0 -0 0
-0 -0 0
-0 -0 0
-0 -0 0
-0 -0 0
-0 -0 0
-0 -0 0
-0 -0 0
-0 -0 0
-0 -0 0
-0 -0 0
-0 -0 0
-0 -0 0
-0 -0 0
-0 -0 0
-0 -0 0
-0 -0 0
-0 -0 0
-0 -0 0
-0 -0 0
-0 -0 0
-0 -0 0
-0 -0 0
-0 -0 0
-0 -0 0
-0 -0 0
-0 -0 0
-0 -0 0
-0 -0 0
-0 -0 0
-0 -0 0
-0 -0 0
-0 -0 0
-0 -0 0
-0 -0 0
-0 -0 0
-0 -0 0
-0 -0 0
-0 -0 0
-0 -0 0
-0 -0 0
-0 -0 0
-0 -0 0
-0 -0 0
-0 -0 0
-0 -0 0
-0 -0 0
-0 -0 0
-0 -0 0
-0 -0 0
-0 -0 0
-0 -0 0
-0 -0 0
-0 -0 0
-0 -0 0
-0 -0 0
-0 -0 0
-0 -0 0
-0 -0 0
-0 -0 0
-0 -0 0
-0 -0 0
-0 -0 0
-0 -0 0
-0 -0 0
-0 -0 0
-0 -0 0
-0 -0 0
-0 -0 0
-0 -0 0
-0 -0 0
-0 -0 0
-0 -0 0
-0 -0 0
-0 -0 0
-0 -0 0
-0 -0 0
-0 -0 0
-0 -0 0
-0 -0 0
-0 -0 0
-0 -0 0
-0 -0 0
-0 -0 0
-0 -0 0
-0 -0 0
-0 -0 0
-0 -0 0
-0 -0 0
-0 -0 0
-0 -0 0
-0 -0 0
-0 -0 0
-0 -0 0
-0 -0 0
-0 -0 0
-0 -0 0
-0 -0 0
-0 -0 0
-0 -0 0
-0 -0 0
-0 -0 0
-0 -0 0
-0 -0 0
-0 -0 0
-0 -0 0
-0 -0 0
-0 -0 0
-0 -0 0
-0 -0 0
-0 -0 0
-0 -0 0
-0 -0 0
-0 -0 0
-0 -0 0
-0 -0 0
-0 -0 0
-0 -0 0
-0 -0 0
-0 -0 0
-0 -0 0
-0 -0 0
-0 -0 0
-0 -0 0
-0 -0 0
-0 -0 0
-0 -0 0
-0 -0 0
-0 -0 0
-0 -0 0
-0 -0 0
-0 -0 0
-0 -0 0
-0 -0 0
-0 -0 0
-0 -0 0
-0 -0 0
-0 -0 0
-0 -0 0
-0 -0 0
-0 -0 0
-0 -0 0
-0 -0 0
-0 -0 0
-0 -0 0
-0 -0 0
-0 -0 0
-0 -0 0
-0 -0 0
-0 -0 0
-0 -0 0
-0 -0 0
-0 -0 0
-0 -0 0
-0 -0 0
-0 -0 0
-0 -0 0
-0 -0 0
