# vtk DataFile Version 3.0
SPH particles (WCSPH) - legacy PolyData
ASCII
DATASET POLYDATA
POINTS 681 float
0.050000000000000003 0.04351158805045445 0
0.050000000000000003 0.052577538367257433 0
0.050000000000000003 0.06185174245470907 0
0.050000000000000003 0.074685785182556252 0
0.050000000000000003 0.09154461041232527 0
0.050000000000000003 0.11063573975565276 0
0.050000000000000003 0.13041778171786725 0
0.050000000000000003 0.15037000802713493 0
0.050000000000000003 0.17036002691844787 0
0.050000000000000003 0.19035802591116427 0
0.050000000000000003 0.21035764204244217 0
0.050000000000000003 0.23035757186666367 0
0.050000000000000003 0.25035756021493805 0
0.050000000000000003 0.27035756173171149 0
0.050000000000000003 0.29035758106526544 0
0.050000000000000003 0.31035768294992028 0
0.050000000000000003 0.33035817608520862 0
0.050000000000000003 0.35036038951550053 0
0.050000000000000003 0.37036954748065604 0
0.050000000000000003 0.39040422513217377 0
0.050000000000000003 0.41052359414529427 0
0.050000000000000003 0.4308960290615626 0
0.050000000000000003 0.4519574352609867 0
0.050000000000000003 0.47483641114588099 0
0.050000000000000003 0.50491961999265011 0
0.070000000000000007 0.043117257452975143 0
0.070000000000000007 0.052637378393647863 0
0.070000000000000007 0.062309450952042884 0
0.070000000000000007 0.075117446478985633 0
0.070000000000000007 0.091711906027347037 0
0.070000000000000007 0.11067172673756938 0
0.070000000000000007 0.13042511861045894 0
0.070000000000000007 0.15037157156038439 0
0.070000000000000007 0.17036035282018275 0
0.070000000000000007 0.19035809099973464 0
0.070000000000000007 0.2103576544311265 0
0.070000000000000007 0.23035757412635302 0
0.070000000000000007 0.25035756071354087 0
0.070000000000000007 0.27035756243672182 0
0.070000000000000007 0.29035758448408744 0
0.070000000000000007 0.3103576998582433 0
0.070000000000000007 0.33035825410243164 0
0.070000000000000007 0.35036072338936231 0
0.070000000000000007 0.37037087040814032 0
0.070000000000000007 0.39040908348018294 0
0.070000000000000007 0.41054016158557521 0
0.070000000000000007 0.43094805460806596 0
0.070000000000000007 0.45209864886384504 0
0.070000000000000007 0.47508257128979925 0
0.070000000000000007 0.50453675901471218 0
0.090000000000000011 0.043140342129883651 0
0.090000000000000011 0.052701944808725761 0
0.090000000000000011 0.062421563130376091 0
0.090000000000000011 0.07524702449132703 0
0.090000000000000011 0.091775561650350473 0
0.090000000000000011 0.11068671375276455 0
0.090000000000000011 0.13042806586571945 0
0.090000000000000011 0.15037217220060237 0
0.090000000000000011 0.17036047692547301 0
0.090000000000000011 0.19035811601879518 0
0.090000000000000011 0.21035765926655015 0
0.090000000000000011 0.23035757502304374 0
0.090000000000000011 0.25035756091452915 0
0.090000000000000011 0.27035756271949835 0
0.090000000000000011 0.29035758584574239 0
0.090000000000000011 0.31035770658663936 0
0.090000000000000011 0.33035828534993167 0
0.090000000000000011 0.35036085938399814 0
0.090000000000000011 0.37037142495624564 0
0.090000000000000011 0.39041119388302009 0
0.090000000000000011 0.41054753231002761 0
0.090000000000000011 0.43097058190076115 0
0.090000000000000011 0.45215200013090001 0
0.090000000000000011 0.47514932873612037 0
0.090000000000000011 0.5044933809707296 0
0.11000000000000001 0.043148644876415183 0
0.11000000000000001 0.052720436866713703 0
0.11000000000000001 0.062450821968688591 0
0.11000000000000001 0.075280465652191597 0
0.11000000000000001 0.091795724656433902 0
0.11000000000000001 0.11069321565261922 0
0.11000000000000001 0.13042957843197778 0
0.11000000000000001 0.15037249532534355 0
0.11000000000000001 0.17036054447669619 0
0.11000000000000001 0.19035812977784972 0
0.11000000000000001 0.21035766196463354 0
0.11000000000000001 0.23035757553220115 0
0.11000000000000001 0.25035756103035678 0
0.11000000000000001 0.27035756287860913 0
0.11000000000000001 0.29035758659563432 0
0.11000000000000001 0.31035771022819147 0
0.11000000000000001 0.33035830195052834 0
0.11000000000000001 0.35036092993313006 0
0.11000000000000001 0.37037170212895315 0
0.11000000000000001 0.39041218291265151 0
0.11000000000000001 0.41055062550263821 0
0.11000000000000001 0.43097850281151512 0
0.11000000000000001 0.45216675849192944 0
0.11000000000000001 0.47516629325748277 0
0.11000000000000001 0.50448955622849301 0
0.13 0.043149901587171684 0
0.13 0.05272470526137156 0
0.13 0.062457997699872758 0
0.13 0.075288996602524985 0
0.13 0.09180143468476662 0
0.13 0.11069540995719551 0
0.13 0.13043018561988293 0
0.13 0.15037263959229685 0
0.13 0.17036057629838122 0
0.13 0.19035813645847371 0
0.13 0.21035766330498201 0
0.13 0.23035757579060875 0
0.13 0.25035756108991369 0
0.13 0.27035756295683433 0
0.13 0.29035758695196229 0
0.13 0.31035771190789579 0
0.13 0.33035830934635224 0
0.13 0.35036095999031058 0
0.13 0.37037181317350271 0
0.13 0.39041254625673572 0
0.13 0.41055163480927187 0
0.13 0.4309807396064127 0
0.13 0.45217043620573905 0
0.13 0.47517035724296175 0
0.13 0.50449001537679705 0
0.15000000000000002 0.043150089551502652 0
0.15000000000000002 0.052725608506075938 0
0.15000000000000002 0.062459628049673178 0
0.15000000000000002 0.075291040084463398 0
0.15000000000000002 0.091802917012730939 0
0.15000000000000002 0.11069605177558541 0
0.15000000000000002 0.13043038864309661 0
0.15000000000000002 0.15037269356269942 0
0.15000000000000002 0.17036058914819052 0
0.15000000000000002 0.19035813929214865 0
0.15000000000000002 0.21035766389330374 0
0.15000000000000002 0.2303575759071694 0
0.15000000000000002 0.25035756111707369 0
0.15000000000000002 0.27035756299009778 0
0.15000000000000002 0.29035758709642401 0
0.15000000000000002 0.31035771256165057 0
0.15000000000000002 0.33035831209172423 0
0.15000000000000002 0.35036097051757892 0
0.15000000000000002 0.37037184932878692 0
0.15000000000000002 0.39041265433066707 0
0.15000000000000002 0.41055190520746643 0
0.15000000000000002 0.43098128066544644 0
0.15000000000000002 0.45217126125972407 0
0.15000000000000002 0.4751712532881357 0
0.15000000000000002 0.50449033322424064 0
0.17000000000000004 0.043150127555976629 0
0.17000000000000004 0.052725795881153378 0
0.17000000000000004 0.062459976937733017 0
0.17000000000000004 0.075291494489902605 0
0.17000000000000004 0.091803268141961616 0
0.17000000000000004 0.1106962182105528 0
0.17000000000000004 0.13043044708136012 0
0.17000000000000004 0.15037271070102959 0
0.17000000000000004 0.1703605935634975 0
0.17000000000000004 0.19035814032342865 0
0.17000000000000004 0.21035766411646092 0
0.17000000000000004 0.23035757595278947 0
0.17000000000000004 0.25035756112779517 0
0.17000000000000004 0.27035756300208641 0
0.17000000000000004 0.29035758714549553 0
0.17000000000000004 0.31035771277325858 0
0.17000000000000004 0.33035831293315882 0
0.17000000000000004 0.35036097354475759 0
0.17000000000000004 0.37037185898303682 0
0.17000000000000004 0.39041268090417186 0
0.17000000000000004 0.410551966378638 0
0.17000000000000004 0.43098139458561124 0
0.17000000000000004 0.45217142688686124 0
0.17000000000000004 0.47517143135971118 0
0.17000000000000004 0.50449042322258575 0
0.19 0.043150134076403002 0
0.19 0.052725826973193952 0
0.19 0.062460035242059488 0
0.19 0.075291571832878434 0
0.19 0.091803330330619479 0
0.19 0.11069624949940109 0
0.19 0.13043045885492224 0
0.19 0.15037271439396369 0
0.19 0.17036059457105929 0
0.19 0.19035814056946521 0
0.19 0.21035766417148283 0
0.19 0.23035757596431755 0
0.19 0.25035756113051838 0
0.19 0.27035756300490182 0
0.19 0.29035758715643561 0
0.19 0.31035771281853736 0
0.19 0.33035831310513897 0
0.19 0.35036097413205702 0
0.19 0.37037186075107315 0
0.19 0.39041268548815566 0
0.19 0.41055197635829876 0
0.19 0.43098141236181248 0
0.19 0.45217145202278775 0
0.19 0.47517145818272377 0
0.19 0.50449043886379374 0
0.21000000000000002 0.043150127555976636 0
0.21000000000000002 0.052725795881153378 0
0.21000000000000002 0.062459976937733003 0
0.21000000000000002 0.075291494489902605 0
0.21000000000000002 0.091803268141961603 0
0.21000000000000002 0.1106962182105528 0
0.21000000000000002 0.13043044708136012 0
0.21000000000000002 0.15037271070102959 0
0.21000000000000002 0.1703605935634975 0
0.21000000000000002 0.19035814032342865 0
0.21000000000000002 0.21035766411646092 0
0.21000000000000002 0.23035757595278947 0
0.21000000000000002 0.25035756112779517 0
0.21000000000000002 0.27035756300208641 0
0.21000000000000002 0.29035758714549553 0
0.21000000000000002 0.31035771277325858 0
0.21000000000000002 0.33035831293315882 0
0.21000000000000002 0.35036097354475759 0
0.21000000000000002 0.37037185898303682 0
0.21000000000000002 0.39041268090417186 0
0.21000000000000002 0.410551966378638 0
0.21000000000000002 0.43098139458561124 0
0.21000000000000002 0.45217142688686124 0
0.21000000000000002 0.47517143135971118 0
0.21000000000000002 0.50449042322258575 0
0.23000000000000004 0.043150089551502652 0
0.23000000000000004 0.052725608506075938 0
0.23000000000000004 0.062459628049673178 0
0.23000000000000004 0.075291040084463398 0
0.23000000000000004 0.091802917012730939 0
0.23000000000000004 0.11069605177558541 0
0.23000000000000004 0.13043038864309661 0
0.23000000000000004 0.15037269356269942 0
0.23000000000000004 0.17036058914819052 0
0.23000000000000004 0.19035813929214865 0
0.23000000000000004 0.21035766389330374 0
0.23000000000000004 0.2303575759071694 0
0.23000000000000004 0.25035756111707369 0
0.23000000000000004 0.27035756299009778 0
0.23000000000000004 0.29035758709642401 0
0.23000000000000004 0.31035771256165057 0
0.23000000000000004 0.33035831209172423 0
0.23000000000000004 0.35036097051757892 0
0.23000000000000004 0.37037184932878692 0
0.23000000000000004 0.39041265433066707 0
0.23000000000000004 0.41055190520746643 0
0.23000000000000004 0.43098128066544644 0
0.23000000000000004 0.45217126125972407 0
0.23000000000000004 0.4751712532881357 0
0.23000000000000004 0.50449033322424064 0
0.25000000000000006 0.043149901587171684 0
0.25000000000000006 0.05272470526137156 0
0.25000000000000006 0.062457997699872758 0
0.25000000000000006 0.075288996602524985 0
0.25000000000000006 0.09180143468476662 0
0.25000000000000006 0.11069540995719551 0
0.25000000000000006 0.13043018561988293 0
0.25000000000000006 0.15037263959229685 0
0.25000000000000006 0.17036057629838122 0
0.25000000000000006 0.19035813645847371 0
0.25000000000000006 0.21035766330498201 0
0.25000000000000006 0.23035757579060875 0
0.25000000000000006 0.25035756108991369 0
0.25000000000000006 0.27035756295683433 0
0.25000000000000006 0.29035758695196229 0
0.25000000000000006 0.31035771190789579 0
0.25000000000000006 0.33035830934635224 0
0.25000000000000006 0.35036095999031058 0
0.25000000000000006 0.37037181317350271 0
0.25000000000000006 0.39041254625673572 0
0.25000000000000006 0.41055163480927187 0
0.25000000000000006 0.4309807396064127 0
0.25000000000000006 0.45217043620573905 0
0.25000000000000006 0.47517035724296175 0
0.25000000000000006 0.50449001537679705 0
0.27000000000000002 0.043148644876415183 0
0.27000000000000002 0.052720436866713696 0
0.27000000000000002 0.062450821968688591 0
0.27000000000000002 0.075280465652191597 0
0.27000000000000002 0.091795724656433902 0
0.27000000000000002 0.11069321565261922 0
0.27000000000000002 0.13042957843197778 0
0.27000000000000002 0.15037249532534355 0
0.27000000000000002 0.17036054447669619 0
0.27000000000000002 0.19035812977784972 0
0.27000000000000002 0.21035766196463354 0
0.27000000000000002 0.23035757553220115 0
0.27000000000000002 0.25035756103035678 0
0.27000000000000002 0.27035756287860913 0
0.27000000000000002 0.29035758659563432 0
0.27000000000000002 0.31035771022819147 0
0.27000000000000002 0.33035830195052834 0
0.27000000000000002 0.35036092993313006 0
0.27000000000000002 0.37037170212895315 0
0.27000000000000002 0.39041218291265151 0
0.27000000000000002 0.41055062550263821 0
0.27000000000000002 0.43097850281151512 0
0.27000000000000002 0.45216675849192944 0
0.27000000000000002 0.47516629325748277 0
0.27000000000000002 0.50448955622849301 0
0.29000000000000004 0.043140342129883658 0
0.29000000000000004 0.052701944808725761 0
0.29000000000000004 0.062421563130376091 0
0.29000000000000004 0.07524702449132703 0
0.29000000000000004 0.091775561650350473 0
0.29000000000000004 0.11068671375276455 0
0.29000000000000004 0.13042806586571945 0
0.29000000000000004 0.15037217220060237 0
0.29000000000000004 0.17036047692547301 0
0.29000000000000004 0.19035811601879518 0
0.29000000000000004 0.21035765926655015 0
0.29000000000000004 0.23035757502304374 0
0.29000000000000004 0.25035756091452915 0
0.29000000000000004 0.27035756271949835 0
0.29000000000000004 0.29035758584574239 0
0.29000000000000004 0.31035770658663936 0
0.29000000000000004 0.33035828534993167 0
0.29000000000000004 0.35036085938399814 0
0.29000000000000004 0.37037142495624564 0
0.29000000000000004 0.39041119388302009 0
0.29000000000000004 0.41054753231002761 0
0.29000000000000004 0.43097058190076115 0
0.29000000000000004 0.45215200013090001 0
0.29000000000000004 0.47514932873612037 0
0.29000000000000004 0.5044933809707296 0
0.31000000000000005 0.043117257452975136 0
0.31000000000000005 0.052637378393647863 0
0.31000000000000005 0.062309450952042884 0
0.31000000000000005 0.075117446478985633 0
0.31000000000000005 0.091711906027347037 0
0.31000000000000005 0.11067172673756938 0
0.31000000000000005 0.13042511861045894 0
0.31000000000000005 0.15037157156038439 0
0.31000000000000005 0.17036035282018275 0
0.31000000000000005 0.19035809099973464 0
0.31000000000000005 0.2103576544311265 0
0.31000000000000005 0.23035757412635302 0
0.31000000000000005 0.25035756071354087 0
0.31000000000000005 0.27035756243672182 0
0.31000000000000005 0.29035758448408744 0
0.31000000000000005 0.3103576998582433 0
0.31000000000000005 0.33035825410243164 0
0.31000000000000005 0.35036072338936231 0
0.31000000000000005 0.37037087040814032 0
0.31000000000000005 0.39040908348018294 0
0.31000000000000005 0.41054016158557521 0
0.31000000000000005 0.43094805460806596 0
0.31000000000000005 0.45209864886384504 0
0.31000000000000005 0.47508257128979925 0
0.31000000000000005 0.50453675901471218 0
0.33000000000000002 0.043511588050454436 0
0.33000000000000002 0.052577538367257419 0
0.33000000000000002 0.06185174245470907 0
0.33000000000000002 0.074685785182556252 0
0.33000000000000002 0.091544610412325284 0
0.33000000000000002 0.11063573975565276 0
0.33000000000000002 0.13041778171786725 0
0.33000000000000002 0.15037000802713493 0
0.33000000000000002 0.17036002691844787 0
0.33000000000000002 0.19035802591116427 0
0.33000000000000002 0.21035764204244217 0
0.33000000000000002 0.23035757186666367 0
0.33000000000000002 0.25035756021493805 0
0.33000000000000002 0.27035756173171149 0
0.33000000000000002 0.29035758106526544 0
0.33000000000000002 0.31035768294992028 0
0.33000000000000002 0.33035817608520862 0
0.33000000000000002 0.35036038951550053 0
0.33000000000000002 0.37036954748065604 0
0.33000000000000002 0.39040422513217377 0
0.33000000000000002 0.41052359414529427 0
0.33000000000000002 0.4308960290615626 0
0.33000000000000002 0.4519574352609867 0
0.33000000000000002 0.47483641114588099 0
0.33000000000000002 0.50491961999265011 0
0 0 0
0 0.020000000000000004 0
0 0.040000000000000001 0
0 0.54999999999999993 0
0 0.56000000000000005 0
0 0.58000000000000007 0
0.02 0 0
0.02 0.020000000000000004 0
0.02 0.040000000000000001 0
0.02 0.54999999999999993 0
0.02 0.56000000000000005 0
0.02 0.58000000000000007 0
0.040000000000000001 0 0
0.040000000000000001 0.020000000000000004 0
0.040000000000000001 0.040000000000000001 0
0.040000000000000001 0.54999999999999993 0
0.040000000000000001 0.56000000000000005 0
0.040000000000000001 0.58000000000000007 0
0.059999999999999998 0 0
0.059999999999999998 0.020000000000000004 0
0.059999999999999998 0.040000000000000001 0
0.059999999999999998 0.54999999999999993 0
0.059999999999999998 0.56000000000000005 0
0.059999999999999998 0.58000000000000007 0
0.080000000000000002 0 0
0.080000000000000002 0.020000000000000004 0
0.080000000000000002 0.040000000000000001 0
0.080000000000000002 0.54999999999999993 0
0.080000000000000002 0.56000000000000005 0
0.080000000000000002 0.58000000000000007 0
0.10000000000000001 0 0
0.10000000000000001 0.020000000000000004 0
0.10000000000000001 0.040000000000000001 0
0.10000000000000001 0.54999999999999993 0
0.10000000000000001 0.56000000000000005 0
0.10000000000000001 0.58000000000000007 0
0.12 0 0
0.12 0.020000000000000004 0
0.12 0.040000000000000001 0
0.12 0.54999999999999993 0
0.12 0.56000000000000005 0
0.12 0.58000000000000007 0
0.14000000000000001 0 0
0.14000000000000001 0.020000000000000004 0
0.14000000000000001 0.040000000000000001 0
0.14000000000000001 0.54999999999999993 0
0.14000000000000001 0.56000000000000005 0
0.14000000000000001 0.58000000000000007 0
0.16 0 0
0.16 0.020000000000000004 0
0.16 0.040000000000000001 0
0.16 0.54999999999999993 0
0.16 0.56000000000000005 0
0.16 0.58000000000000007 0
0.17999999999999999 0 0
0.17999999999999999 0.020000000000000004 0
0.17999999999999999 0.040000000000000001 0
0.17999999999999999 0.54999999999999993 0
0.17999999999999999 0.56000000000000005 0
0.17999999999999999 0.58000000000000007 0
0.20000000000000001 0 0
0.20000000000000001 0.020000000000000004 0
0.20000000000000001 0.040000000000000001 0
0.20000000000000001 0.54999999999999993 0
0.20000000000000001 0.56000000000000005 0
0.20000000000000001 0.58000000000000007 0
0.22 0 0
0.22 0.020000000000000004 0
0.22 0.040000000000000001 0
0.22 0.54999999999999993 0
0.22 0.56000000000000005 0
0.22 0.58000000000000007 0
0.23999999999999999 0 0
0.23999999999999999 0.020000000000000004 0
0.23999999999999999 0.040000000000000001 0
0.23999999999999999 0.54999999999999993 0
0.23999999999999999 0.56000000000000005 0
0.23999999999999999 0.58000000000000007 0
0.26000000000000001 0 0
0.26000000000000001 0.020000000000000004 0
0.26000000000000001 0.040000000000000001 0
0.26000000000000001 0.54999999999999993 0
0.26000000000000001 0.56000000000000005 0
0.26000000000000001 0.58000000000000007 0
0.28000000000000003 0 0
0.28000000000000003 0.020000000000000004 0
0.28000000000000003 0.040000000000000001 0
0.28000000000000003 0.54999999999999993 0
0.28000000000000003 0.56000000000000005 0
0.28000000000000003 0.58000000000000007 0
0.29999999999999999 0 0
0.29999999999999999 0.020000000000000004 0
0.29999999999999999 0.040000000000000001 0
0.29999999999999999 0.54999999999999993 0
0.29999999999999999 0.56000000000000005 0
0.29999999999999999 0.58000000000000007 0
0.32000000000000001 0 0
0.32000000000000001 0.020000000000000004 0
0.32000000000000001 0.040000000000000001 0
0.32000000000000001 0.54999999999999993 0
0.32000000000000001 0.56000000000000005 0
0.32000000000000001 0.58000000000000007 0
0.34000000000000002 0 0
0.34000000000000002 0.020000000000000004 0
0.34000000000000002 0.040000000000000001 0
0.34000000000000002 0.54999999999999993 0
0.34000000000000002 0.56000000000000005 0
0.34000000000000002 0.58000000000000007 0
0.35999999999999999 0 0
0.35999999999999999 0.020000000000000004 0
0.35999999999999999 0.040000000000000001 0
0.35999999999999999 0.54999999999999993 0
0.35999999999999999 0.56000000000000005 0
0.35999999999999999 0.58000000000000007 0
0.38 0 0
0.38 0.020000000000000004 0
0.38 0.040000000000000001 0
0.38 0.54999999999999993 0
0.38 0.56000000000000005 0
0.38 0.58000000000000007 0
0.40000000000000002 0 0
0.40000000000000002 0.020000000000000004 0
0.40000000000000002 0.040000000000000001 0
0.40000000000000002 0.54999999999999993 0
0.40000000000000002 0.56000000000000005 0
0.40000000000000002 0.58000000000000007 0
0.41999999999999998 0 0
0.41999999999999998 0.020000000000000004 0
0.41999999999999998 0.040000000000000001 0
0.41999999999999998 0.54999999999999993 0
0.41999999999999998 0.56000000000000005 0
0.41999999999999998 0.58000000000000007 0
0.44 0 0
0.44 0.020000000000000004 0
0.44 0.040000000000000001 0
0.44 0.54999999999999993 0
0.44 0.56000000000000005 0
0.44 0.58000000000000007 0
0.46000000000000002 0 0
0.46000000000000002 0.020000000000000004 0
0.46000000000000002 0.040000000000000001 0
0.46000000000000002 0.54999999999999993 0
0.46000000000000002 0.56000000000000005 0
0.46000000000000002 0.58000000000000007 0
0.47999999999999998 0 0
0.47999999999999998 0.020000000000000004 0
0.47999999999999998 0.040000000000000001 0
0.47999999999999998 0.54999999999999993 0
0.47999999999999998 0.56000000000000005 0
0.47999999999999998 0.58000000000000007 0
0.5 0 0
0.5 0.020000000000000004 0
0.5 0.040000000000000001 0
0.5 0.54999999999999993 0
0.5 0.56000000000000005 0
0.5 0.58000000000000007 0
0.52000000000000002 0 0
0.52000000000000002 0.020000000000000004 0
0.52000000000000002 0.040000000000000001 0
0.52000000000000002 0.54999999999999993 0
0.52000000000000002 0.56000000000000005 0
0.52000000000000002 0.58000000000000007 0
0.54000000000000004 0 0
0.54000000000000004 0.020000000000000004 0
0.54000000000000004 0.040000000000000001 0
0.54000000000000004 0.54999999999999993 0
0.54000000000000004 0.56000000000000005 0
0.54000000000000004 0.58000000000000007 0
0.56000000000000005 0 0
0.56000000000000005 0.020000000000000004 0
0.56000000000000005 0.040000000000000001 0
0.56000000000000005 0.54999999999999993 0
0.56000000000000005 0.56000000000000005 0
0.56000000000000005 0.58000000000000007 0
0.57999999999999996 0 0
0.57999999999999996 0.020000000000000004 0
0.57999999999999996 0.040000000000000001 0
0.57999999999999996 0.54999999999999993 0
0.57999999999999996 0.56000000000000005 0
0.57999999999999996 0.58000000000000007 0
0.59999999999999998 0 0
0.59999999999999998 0.020000000000000004 0
0.59999999999999998 0.040000000000000001 0
0.59999999999999998 0.54999999999999993 0
0.59999999999999998 0.56000000000000005 0
0.59999999999999998 0.58000000000000007 0
0.62 0 0
0.62 0.020000000000000004 0
0.62 0.040000000000000001 0
0.62 0.54999999999999993 0
0.62 0.56000000000000005 0
0.62 0.58000000000000007 0
0.64000000000000001 0 0
0.64000000000000001 0.020000000000000004 0
0.64000000000000001 0.040000000000000001 0
0.64000000000000001 0.54999999999999993 0
0.64000000000000001 0.56000000000000005 0
0.64000000000000001 0.58000000000000007 0
0.66000000000000003 0 0
0.66000000000000003 0.020000000000000004 0
0.66000000000000003 0.040000000000000001 0
0.66000000000000003 0.54999999999999993 0
0.66000000000000003 0.56000000000000005 0
0.66000000000000003 0.58000000000000007 0
0.68000000000000005 0 0
0.68000000000000005 0.020000000000000004 0
0.68000000000000005 0.040000000000000001 0
0.68000000000000005 0.54999999999999993 0
0.68000000000000005 0.56000000000000005 0
0.68000000000000005 0.58000000000000007 0
0.70000000000000007 0 0
0.70000000000000007 0.020000000000000004 0
0.70000000000000007 0.040000000000000001 0
0.70000000000000007 0.54999999999999993 0
0.70000000000000007 0.56000000000000005 0
0.70000000000000007 0.58000000000000007 0
0.71999999999999997 0 0
0.71999999999999997 0.020000000000000004 0
0.71999999999999997 0.040000000000000001 0
0.71999999999999997 0.54999999999999993 0
0.71999999999999997 0.56000000000000005 0
0.71999999999999997 0.58000000000000007 0
0.73999999999999999 0 0
0.73999999999999999 0.020000000000000004 0
0.73999999999999999 0.040000000000000001 0
0.73999999999999999 0.54999999999999993 0
0.73999999999999999 0.56000000000000005 0
0.73999999999999999 0.58000000000000007 0
0.76000000000000001 0 0
0.76000000000000001 0.020000000000000004 0
0.76000000000000001 0.040000000000000001 0
0.76000000000000001 0.54999999999999993 0
0.76000000000000001 0.56000000000000005 0
0.76000000000000001 0.58000000000000007 0
0.78000000000000003 0 0
0.78000000000000003 0.020000000000000004 0
0.78000000000000003 0.040000000000000001 0
0.78000000000000003 0.54999999999999993 0
0.78000000000000003 0.56000000000000005 0
0.78000000000000003 0.58000000000000007 0
0.80000000000000004 0 0
0.80000000000000004 0.020000000000000004 0
0.80000000000000004 0.040000000000000001 0
0.80000000000000004 0.54999999999999993 0
0.80000000000000004 0.56000000000000005 0
0.80000000000000004 0.58000000000000007 0
0.82000000000000006 0 0
0.82000000000000006 0.020000000000000004 0
0.82000000000000006 0.040000000000000001 0
0.82000000000000006 0.54999999999999993 0
0.82000000000000006 0.56000000000000005 0
0.82000000000000006 0.58000000000000007 0
0.83999999999999997 0 0
0.83999999999999997 0.020000000000000004 0
0.83999999999999997 0.040000000000000001 0
0.83999999999999997 0.54999999999999993 0
0.83999999999999997 0.56000000000000005 0
0.83999999999999997 0.58000000000000007 0
0.85999999999999999 0 0
0.85999999999999999 0.020000000000000004 0
0.85999999999999999 0.040000000000000001 0
0.85999999999999999 0.54999999999999993 0
0.85999999999999999 0.56000000000000005 0
0.85999999999999999 0.58000000000000007 0
0.88 0 0
0.88 0.020000000000000004 0
0.88 0.040000000000000001 0
0.88 0.54999999999999993 0
0.88 0.56000000000000005 0
0.88 0.58000000000000007 0
0.90000000000000002 0 0
0.90000000000000002 0.020000000000000004 0
0.90000000000000002 0.040000000000000001 0
0.90000000000000002 0.54999999999999993 0
0.90000000000000002 0.56000000000000005 0
0.90000000000000002 0.58000000000000007 0
0.92000000000000004 0 0
0.92000000000000004 0.020000000000000004 0
0.92000000000000004 0.040000000000000001 0
0.92000000000000004 0.54999999999999993 0
0.92000000000000004 0.56000000000000005 0
0.92000000000000004 0.58000000000000007 0
0.94000000000000006 0 0
0.94000000000000006 0.020000000000000004 0
0.94000000000000006 0.040000000000000001 0
0.94000000000000006 0.54999999999999993 0
0.94000000000000006 0.56000000000000005 0
0.94000000000000006 0.58000000000000007 0
0.95999999999999996 0 0
0.95999999999999996 0.020000000000000004 0
0.95999999999999996 0.040000000000000001 0
0.95999999999999996 0.54999999999999993 0
0.95999999999999996 0.56000000000000005 0
0.95999999999999996 0.58000000000000007 0
0.97999999999999998 0 0
0.97999999999999998 0.020000000000000004 0
0.97999999999999998 0.040000000000000001 0
0.97999999999999998 0.54999999999999993 0
0.97999999999999998 0.56000000000000005 0
0.97999999999999998 0.58000000000000007 0
1 0 0
1 0.020000000000000004 0
1 0.040000000000000001 0
1 0.54999999999999993 0
1 0.56000000000000005 0
1 0.58000000000000007 0
VERTICES 681 1362
1 0
1 1
1 2
1 3
1 4
1 5
1 6
1 7
1 8
1 9
1 10
1 11
1 12
1 13
1 14
1 15
1 16
1 17
1 18
1 19
1 20
1 21
1 22
1 23
1 24
1 25
1 26
1 27
1 28
1 29
1 30
1 31
1 32
1 33
1 34
1 35
1 36
1 37
1 38
1 39
1 40
1 41
1 42
1 43
1 44
1 45
1 46
1 47
1 48
1 49
1 50
1 51
1 52
1 53
1 54
1 55
1 56
1 57
1 58
1 59
1 60
1 61
1 62
1 63
1 64
1 65
1 66
1 67
1 68
1 69
1 70
1 71
1 72
1 73
1 74
1 75
1 76
1 77
1 78
1 79
1 80
1 81
1 82
1 83
1 84
1 85
1 86
1 87
1 88
1 89
1 90
1 91
1 92
1 93
1 94
1 95
1 96
1 97
1 98
1 99
1 100
1 101
1 102
1 103
1 104
1 105
1 106
1 107
1 108
1 109
1 110
1 111
1 112
1 113
1 114
1 115
1 116
1 117
1 118
1 119
1 120
1 121
1 122
1 123
1 124
1 125
1 126
1 127
1 128
1 129
1 130
1 131
1 132
1 133
1 134
1 135
1 136
1 137
1 138
1 139
1 140
1 141
1 142
1 143
1 144
1 145
1 146
1 147
1 148
1 149
1 150
1 151
1 152
1 153
1 154
1 155
1 156
1 157
1 158
1 159
1 160
1 161
1 162
1 163
1 164
1 165
1 166
1 167
1 168
1 169
1 170
1 171
1 172
1 173
1 174
1 175
1 176
1 177
1 178
1 179
1 180
1 181
1 182
1 183
1 184
1 185
1 186
1 187
1 188
1 189
1 190
1 191
1 192
1 193
1 194
1 195
1 196
1 197
1 198
1 199
1 200
1 201
1 202
1 203
1 204
1 205
1 206
1 207
1 208
1 209
1 210
1 211
1 212
1 213
1 214
1 215
1 216
1 217
1 218
1 219
1 220
1 221
1 222
1 223
1 224
1 225
1 226
1 227
1 228
1 229
1 230
1 231
1 232
1 233
1 234
1 235
1 236
1 237
1 238
1 239
1 240
1 241
1 242
1 243
1 244
1 245
1 246
1 247
1 248
1 249
1 250
1 251
1 252
1 253
1 254
1 255
1 256
1 257
1 258
1 259
1 260
1 261
1 262
1 263
1 264
1 265
1 266
1 267
1 268
1 269
1 270
1 271
1 272
1 273
1 274
1 275
1 276
1 277
1 278
1 279
1 280
1 281
1 282
1 283
1 284
1 285
1 286
1 287
1 288
1 289
1 290
1 291
1 292
1 293
1 294
1 295
1 296
1 297
1 298
1 299
1 300
1 301
1 302
1 303
1 304
1 305
1 306
1 307
1 308
1 309
1 310
1 311
1 312
1 313
1 314
1 315
1 316
1 317
1 318
1 319
1 320
1 321
1 322
1 323
1 324
1 325
1 326
1 327
1 328
1 329
1 330
1 331
1 332
1 333
1 334
1 335
1 336
1 337
1 338
1 339
1 340
1 341
1 342
1 343
1 344
1 345
1 346
1 347
1 348
1 349
1 350
1 351
1 352
1 353
1 354
1 355
1 356
1 357
1 358
1 359
1 360
1 361
1 362
1 363
1 364
1 365
1 366
1 367
1 368
1 369
1 370
1 371
1 372
1 373
1 374
1 375
1 376
1 377
1 378
1 379
1 380
1 381
1 382
1 383
1 384
1 385
1 386
1 387
1 388
1 389
1 390
1 391
1 392
1 393
1 394
1 395
1 396
1 397
1 398
1 399
1 400
1 401
1 402
1 403
1 404
1 405
1 406
1 407
1 408
1 409
1 410
1 411
1 412
1 413
1 414
1 415
1 416
1 417
1 418
1 419
1 420
1 421
1 422
1 423
1 424
1 425
1 426
1 427
1 428
1 429
1 430
1 431
1 432
1 433
1 434
1 435
1 436
1 437
1 438
1 439
1 440
1 441
1 442
1 443
1 444
1 445
1 446
1 447
1 448
1 449
1 450
1 451
1 452
1 453
1 454
1 455
1 456
1 457
1 458
1 459
1 460
1 461
1 462
1 463
1 464
1 465
1 466
1 467
1 468
1 469
1 470
1 471
1 472
1 473
1 474
1 475
1 476
1 477
1 478
1 479
1 480
1 481
1 482
1 483
1 484
1 485
1 486
1 487
1 488
1 489
1 490
1 491
1 492
1 493
1 494
1 495
1 496
1 497
1 498
1 499
1 500
1 501
1 502
1 503
1 504
1 505
1 506
1 507
1 508
1 509
1 510
1 511
1 512
1 513
1 514
1 515
1 516
1 517
1 518
1 519
1 520
1 521
1 522
1 523
1 524
1 525
1 526
1 527
1 528
1 529
1 530
1 531
1 532
1 533
1 534
1 535
1 536
1 537
1 538
1 539
1 540
1 541
1 542
1 543
1 544
1 545
1 546
1 547
1 548
1 549
1 550
1 551
1 552
1 553
1 554
1 555
1 556
1 557
1 558
1 559
1 560
1 561
1 562
1 563
1 564
1 565
1 566
1 567
1 568
1 569
1 570
1 571
1 572
1 573
1 574
1 575
1 576
1 577
1 578
1 579
1 580
1 581
1 582
1 583
1 584
1 585
1 586
1 587
1 588
1 589
1 590
1 591
1 592
1 593
1 594
1 595
1 596
1 597
1 598
1 599
1 600
1 601
1 602
1 603
1 604
1 605
1 606
1 607
1 608
1 609
1 610
1 611
1 612
1 613
1 614
1 615
1 616
1 617
1 618
1 619
1 620
1 621
1 622
1 623
1 624
1 625
1 626
1 627
1 628
1 629
1 630
1 631
1 632
1 633
1 634
1 635
1 636
1 637
1 638
1 639
1 640
1 641
1 642
1 643
1 644
1 645
1 646
1 647
1 648
1 649
1 650
1 651
1 652
1 653
1 654
1 655
1 656
1 657
1 658
1 659
1 660
1 661
1 662
1 663
1 664
1 665
1 666
1 667
1 668
1 669
1 670
1 671
1 672
1 673
1 674
1 675
1 676
1 677
1 678
1 679
1 680
POINT_DATA 681
SCALARS is_boundary int 1
LOOKUP_TABLE default
0
0
0
0
0
0
0
0
0
0
0
0
0
0
0
0
0
0
0
0
0
0
0
0
0
0
0
0
0
0
0
0
0
0
0
0
0
0
0
0
0
0
0
0
0
0
0
0
0
0
0
0
0
0
0
0
0
0
0
0
0
0
0
0
0
0
0
0
0
0
0
0
0
0
0
0
0
0
0
0
0
0
0
0
0
0
0
0
0
0
0
0
0
0
0
0
0
0
0
0
0
0
0
0
0
0
0
0
0
0
0
0
0
0
0
0
0
0
0
0
0
0
0
0
0
0
0
0
0
0
0
0
0
0
0
0
0
0
0
0
0
0
0
0
0
0
0
0
0
0
0
0
0
0
0
0
0
0
0
0
0
0
0
0
0
0
0
0
0
0
0
0
0
0
0
0
0
0
0
0
0
0
0
0
0
0
0
0
0
0
0
0
0
0
0
0
0
0
0
0
0
0
0
0
0
0
0
0
0
0
0
0
0
0
0
0
0
0
0
0
0
0
0
0
0
0
0
0
0
0
0
0
0
0
0
0
0
0
0
0
0
0
0
0
0
0
0
0
0
0
0
0
0
0
0
0
0
0
0
0
0
0
0
0
0
0
0
0
0
0
0
0
0
0
0
0
0
0
0
0
0
0
0
0
0
0
0
0
0
0
0
0
0
0
0
0
0
0
0
0
0
0
0
0
0
0
0
0
0
0
0
0
0
0
0
0
0
0
0
0
0
0
0
0
0
0
0
0
0
0
0
0
0
0
0
0
0
0
0
0
0
0
0
0
0
0
0
0
0
0
0
0
0
0
0
0
0
0
0
0
0
0
0
0
0
0
0
0
0
0
0
0
0
0
0
1
1
1
1
1
1
1
1
1
1
1
1
1
1
1
1
1
1
1
1
1
1
1
1
1
1
1
1
1
1
1
1
1
1
1
1
1
1
1
1
1
1
1
1
1
1
1
1
1
1
1
1
1
1
1
1
1
1
1
1
1
1
1
1
1
1
1
1
1
1
1
1
1
1
1
1
1
1
1
1
1
1
1
1
1
1
1
1
1
1
1
1
1
1
1
1
1
1
1
1
1
1
1
1
1
1
1
1
1
1
1
1
1
1
1
1
1
1
1
1
1
1
1
1
1
1
1
1
1
1
1
1
1
1
1
1
1
1
1
1
1
1
1
1
1
1
1
1
1
1
1
1
1
1
1
1
1
1
1
1
1
1
1
1
1
1
1
1
1
1
1
1
1
1
1
1
1
1
1
1
1
1
1
1
1
1
1
1
1
1
1
1
1
1
1
1
1
1
1
1
1
1
1
1
1
1
1
1
1
1
1
1
1
1
1
1
1
1
1
1
1
1
1
1
1
1
1
1
1
1
1
1
1
1
1
1
1
1
1
1
1
1
1
1
1
1
1
1
1
1
1
1
1
1
1
1
1
1
1
1
1
1
1
1
1
1
1
1
1
1
1
1
1
1
1
1
1
1
1
1
1
1
1
1
1
1
1
1
1
1
1
1
1
1
1
1
1
1
1
1
1
1
1
1
1
1
SCALARS rho float 1
LOOKUP_TABLE default
1020
1020
1020
1020
922.58731943539556
862
862
862
862
862
862
862
862
862
862
862
862
862
862
862
862
862
862
862
862
1020
1020
1020
1020
1020
1020
1007.0700012229706
1000.7185252531372
999.36866177997626
999.08623837620712
999.02899974964703
999.01785346989936
999.01568218955299
999.01474496800233
999.01177345988822
998.99796119823918
998.93730083726859
998.69199360153107
997.78691882804719
994.7724004195104
985.82430193998653
962.44451646262519
908.0178507607809
862
862
1020
1020
1020
1020
1020
1020
1008.5189806423205
1001.7930587970857
1000.371709895089
1000.0746863887584
1000.0144008055875
1000.0026312789018
1000.0003316247085
999.99933820330102
999.99620140302659
999.98166403771279
999.91797740979246
999.66095088487691
998.71415319673861
995.56642767517246
986.26075432815514
962.20146867622475
907.6331822984157
862
862
1020
1020
1020
1020
1020
1020
1008.7069184750439
1001.8339237195953
1000.38035279683
1000.0764978880895
1000.0147713585402
1000.0027035831001
1000.0003414517914
999.99932054971873
999.99610467636717
999.98122519132971
999.91612980255968
999.65375979168721
998.68870106376494
995.48722331946465
986.0577831568869
961.82841353147364
907.33894562451223
862
862
1020
1020
1020
1020
1020
1020
1008.7745171789336
1001.8512557850961
1000.3843594990526
1000.0773762281221
1000.0149558460896
1000.0027403392942
1000.0003466138489
999.99931199016373
999.99605845962378
999.98102146216479
999.91530369935094
999.65070878467282
998.6786963861141
995.45936576430836
985.99690124235622
961.73836205809152
907.28009580495063
862
862
1020
1020
1020
1020
1020
1020
1008.7949664739835
1001.8573450216406
1000.3859270615105
1000.0777442154642
1000.0150365872369
1000.0027569314489
1000.000349056769
999.99930844307801
999.99603963760296
999.98094178960082
999.91499680605807
999.64964795655601
998.67550507508849
995.45140635387679
985.98166090201926
961.71866001464605
907.26866728557434
862
862
1020
1020
1020
1020
1020
1020
1008.8004027927668
1001.8591677848005
1000.3864463164712
1000.0778756003488
1000.0150669669335
1000.0027634138341
1000.0003500666539
999.99930721448482
999.99603321759309
999.98091586662122
999.914902573679
999.64934432337623
998.67466523962457
995.44950290194379
985.97835741719427
961.71475236947867
907.26657304100036
862
862
1020
1020
1020
1020
1020
1020
1008.8014424241512
1001.8595448043345
1000.3865615677614
1000.0779064419639
1000.0150743980325
1000.0027650477589
1000.0003503327391
999.99930693716738
999.99603178087864
999.98091028748354
999.91488323206454
999.64928537247511
998.67451213581376
995.44917813917777
985.9778279106431
961.71415822859831
907.26627105631292
862
862
1020
1020
1020
1020
1020
1020
1008.8004027927655
1001.859167784799
1000.3864463164698
1000.0778756003476
1000.0150669669324
1000.0027634138328
1000.0003500666528
999.99930721448368
999.99603321759173
999.98091586662008
999.91490257367786
999.64934432337486
998.67466523962321
995.44950290194242
985.97835741719291
961.71475236947731
907.26657304099922
862
862
1020
1020
1020
1020
1020
1020
1008.7949664739833
1001.8573450216404
1000.3859270615105
1000.0777442154645
1000.0150365872369
1000.0027569314491
1000.000349056769
999.99930844307778
999.99603963760319
999.98094178960082
999.91499680605807
999.64964795655578
998.67550507508849
995.45140635387679
985.98166090201903
961.71866001464605
907.26866728557457
862
862
1020
1020
1020
1020
1020
1020
1008.7745171789345
1001.851255785097
1000.3843594990533
1000.0773762281228
1000.0149558460903
1000.0027403392949
1000.0003466138496
999.99931199016441
999.99605845962469
999.98102146216524
999.91530369935163
999.65070878467327
998.67869638611478
995.45936576430904
985.99690124235667
961.73836205809221
907.28009580495109
862
862
1020
1020
1020
1020
1020
1020
1008.7069184750442
1001.8339237195958
1000.3803527968305
1000.07649788809
1000.0147713585404
1000.0027035831006
1000.0003414517917
999.99932054971896
999.99610467636739
999.9812251913304
999.91612980255991
999.65375979168743
998.68870106376517
995.4872233194651
986.05778315688713
961.8284135314741
907.33894562451269
862
862
1020
1020
1020
1020
1020
1020
1008.5189806423198
1001.7930587970852
1000.3717098950885
1000.0746863887575
1000.014400805587
1000.0026312789012
1000.0003316247078
999.99933820330057
999.99620140302613
999.98166403771233
999.917977409792
999.66095088487646
998.71415319673793
995.56642767517178
986.26075432815469
962.20146867622429
907.63318229841502
862
862
1020
1020
1020
1020
1020
1020
1007.0700012229713
1000.7185252531374
999.36866177997672
999.08623837620803
999.02899974964794
999.01785346990005
999.01568218955367
999.01474496800301
999.01177345988867
998.99796119823986
998.93730083726928
998.69199360153175
997.7869188280481
994.77240041951131
985.82430193998698
962.44451646262587
908.01785076078158
862
862
1020
1020
1020
1020
922.58731943539669
862
862
862
862
862
862
862
862
862
862
862
862
862
862
862
862
862
862
862
862
1000
1000
1000
1000
1000
1000
1000
1000
1000
1000
1000
1000
1000
1000
1000
1000
1000
1000
1000
1000
1000
1000
1000
1000
1000
1000
1000
1000
1000
1000
1000
1000
1000
1000
1000
1000
1000
1000
1000
1000
1000
1000
1000
1000
1000
1000
1000
1000
1000
1000
1000
1000
1000
1000
1000
1000
1000
1000
1000
1000
1000
1000
1000
1000
1000
1000
1000
1000
1000
1000
1000
1000
1000
1000
1000
1000
1000
1000
1000
1000
1000
1000
1000
1000
1000
1000
1000
1000
1000
1000
1000
1000
1000
1000
1000
1000
1000
1000
1000
1000
1000
1000
1000
1000
1000
1000
1000
1000
1000
1000
1000
1000
1000
1000
1000
1000
1000
1000
1000
1000
1000
1000
1000
1000
1000
1000
1000
1000
1000
1000
1000
1000
1000
1000
1000
1000
1000
1000
1000
1000
1000
1000
1000
1000
1000
1000
1000
1000
1000
1000
1000
1000
1000
1000
1000
1000
1000
1000
1000
1000
1000
1000
1000
1000
1000
1000
1000
1000
1000
1000
1000
1000
1000
1000
1000
1000
1000
1000
1000
1000
1000
1000
1000
1000
1000
1000
1000
1000
1000
1000
1000
1000
1000
1000
1000
1000
1000
1000
1000
1000
1000
1000
1000
1000
1000
1000
1000
1000
1000
1000
1000
1000
1000
1000
1000
1000
1000
1000
1000
1000
1000
1000
1000
1000
1000
1000
1000
1000
1000
1000
1000
1000
1000
1000
1000
1000
1000
1000
1000
1000
1000
1000
1000
1000
1000
1000
1000
1000
1000
1000
1000
1000
1000
1000
1000
1000
1000
1000
1000
1000
1000
1000
1000
1000
1000
1000
1000
1000
1000
1000
1000
1000
1000
1000
1000
1000
1000
1000
1000
1000
1000
1000
1000
1000
1000
1000
1000
1000
1000
1000
1000
1000
1000
1000
1000
1000
1000
1000
1000
1000
1000
1000
1000
1000
1000
1000
SCALARS p float 1
LOOKUP_TABLE default
25004.681136676067
25004.681136676067
25004.681136676067
25004.681136676067
0
0
0
0
0
0
0
0
0
0
0
0
0
0
0
0
0
0
0
0
0
25004.681136676067
25004.681136676067
25004.681136676067
25004.681136676067
25004.681136676067
25004.681136676067
8501.4270159541193
847.67340231806918
0
0
0
0
0
0
0
0
0
0
0
0
0
0
0
0
0
25004.681136676067
25004.681136676067
25004.681136676067
25004.681136676067
25004.681136676067
25004.681136676067
10288.513097812222
2122.1771137633773
438.06514588533366
87.940518763634117
16.953360749782398
3.097565974877841
0.39038899507173958
0
0
0
0
0
0
0
0
0
0
0
0
25004.681136676067
25004.681136676067
25004.681136676067
25004.681136676067
25004.681136676067
25004.681136676067
10521.435749218592
2170.8091204228026
448.26254682039166
90.073983159213924
17.389613862892187
3.1826838392377561
0.40195746072847327
0
0
0
0
0
0
0
0
0
0
0
0
25004.681136676067
25004.681136676067
25004.681136676067
25004.681136676067
25004.681136676067
25004.681136676067
10605.278580162516
2191.439039126737
452.99006775792498
91.10844244641217
17.606811975182183
3.2259539376075939
0.40803424726586968
0
0
0
0
0
0
0
0
0
0
0
0
25004.681136676067
25004.681136676067
25004.681136676067
25004.681136676067
25004.681136676067
25004.681136676067
10630.648530873152
2198.6874115404539
454.83967070049346
91.541838776754588
17.701869006372689
3.2454865443008099
0.41091005880597364
0
0
0
0
0
0
0
0
0
0
0
0
25004.681136676067
25004.681136676067
25004.681136676067
25004.681136676067
25004.681136676067
25004.681136676067
10637.393494776077
2200.8572039491846
455.45235538719169
91.696577284269594
17.737635215291917
3.2531177346715117
0.41209889774435232
0
0
0
0
0
0
0
0
0
0
0
0
25004.681136676067
25004.681136676067
25004.681136676067
25004.681136676067
25004.681136676067
25004.681136676067
10638.683413834389
2201.3060058173851
455.58834414108952
91.73290100485913
17.746383895898621
3.2550412228042829
0.41241213385968378
0
0
0
0
0
0
0
0
0
0
0
0
25004.681136676067
25004.681136676067
25004.681136676067
25004.681136676067
25004.681136676067
25004.681136676067
10637.393494774435
2200.8572039473174
455.45235538562332
91.696577282962636
17.737635213723571
3.2531177331031662
0.41209889643739778
0
0
0
0
0
0
0
0
0
0
0
0
25004.681136676067
25004.681136676067
25004.681136676067
25004.681136676067
25004.681136676067
25004.681136676067
10630.648530872892
2198.6874115401924
454.83967070049346
91.541838777015968
17.701869006372689
3.2454865445622008
0.41091005880597364
0
0
0
0
0
0
0
0
0
0
0
0
25004.681136676067
25004.681136676067
25004.681136676067
25004.681136676067
25004.681136676067
25004.681136676067
10605.278580163598
2191.439039127783
452.99006775870913
91.108442447196339
17.606811975966355
3.2259539383917666
0.4080342480500424
0
0
0
0
0
0
0
0
0
0
0
0
25004.681136676067
25004.681136676067
25004.681136676067
25004.681136676067
25004.681136676067
25004.681136676067
10521.435749218854
2170.8091204233251
448.26254682091445
90.073983159736699
17.389613863153578
3.1826838397605379
0.40195746098986418
0
0
0
0
0
0
0
0
0
0
0
0
25004.681136676067
25004.681136676067
25004.681136676067
25004.681136676067
25004.681136676067
25004.681136676067
10288.513097811401
2122.1771137628548
438.06514588481087
87.940518762588553
16.953360748998225
3.0975659740936683
0.39038899428756685
0
0
0
0
0
0
0
0
0
0
0
0
25004.681136676067
25004.681136676067
25004.681136676067
25004.681136676067
25004.681136676067
25004.681136676067
8501.4270159552016
847.67340231833055
0
0
0
0
0
0
0
0
0
0
0
0
0
0
0
0
0
25004.681136676067
25004.681136676067
25004.681136676067
25004.681136676067
0
0
0
0
0
0
0
0
0
0
0
0
0
0
0
0
0
0
0
0
0
0
0
0
0
0
0
0
24010.939043311562
24945.3123154442
0
0
0
69.79726095812822
24967.349511282195
25000.04172015049
0
0
0
734.266976065368
24986.031785685478
25002.258614467359
0
0
0
1245.2578368741097
24986.698839246164
25002.340897017471
0
0
0
1169.2557740860273
24986.672777219548
25002.334778273733
0
0
0
1146.8909046007313
24986.653335591345
25002.332884090585
0
0
0
1143.565844494781
24986.649409580921
25002.332427664118
0
0
0
1143.0494535538985
24986.648708689692
25002.332327141539
0
0
0
1142.9478822226438
24986.648575646574
25002.332306609245
0
0
0
1142.9478822229053
24986.648575646312
25002.332306608947
0
0
0
1143.04945355416
24986.648708689954
25002.332327141838
0
0
0
1143.565844494781
24986.649409580921
25002.332427664416
0
0
0
1146.8909046007313
24986.653335591043
25002.332884090585
0
0
0
1169.2557740857658
24986.672777219548
25002.334778274631
0
0
0
1245.2578368741097
24986.698839246463
25002.340897017471
0
0
0
734.26697606562936
24986.03178568518
25002.258614466762
0
0
0
69.79726095812822
24967.349511282195
25000.041720151086
0
0
0
0
24010.939043311562
24945.312315443938
0
0
0
0
0
0
0
0
0
0
0
0
0
0
0
0
0
0
0
0
0
0
0
0
0
0
0
0
0
0
0
0
0
0
0
0
0
0
0
0
0
0
0
0
0
0
0
0
0
0
0
0
0
0
0
0
0
0
0
0
0
0
0
0
0
0
0
0
0
0
0
0
0
0
0
0
0
0
0
0
0
0
0
0
0
0
0
0
0
0
0
0
0
0
0
0
0
0
0
0
0
0
0
0
0
0
0
0
0
0
0
0
0
0
0
0
0
0
0
0
0
0
0
0
0
0
0
0
0
0
0
0
0
0
0
0
0
0
0
0
0
0
0
0
0
0
0
0
0
0
0
0
0
0
0
0
0
0
0
0
0
0
0
0
0
0
0
0
0
0
0
0
0
0
0
0
0
0
0
0
0
0
0
0
0
0
0
0
0
0
0
0
0
0
0
SCALARS m float 1
LOOKUP_TABLE default
0.39942306611962441
0.39942306611962441
0.39942306611962441
0.39942306611962441
0.39942306611962441
0.39942306611962441
0.39942306611962441
0.39942306611962441
0.39942306611962441
0.39942306611962441
0.39942306611962441
0.39942306611962441
0.39942306611962441
0.39942306611962441
0.39942306611962441
0.39942306611962441
0.39942306611962441
0.39942306611962441
0.39942306611962441
0.39942306611962441
0.39942306611962441
0.39942306611962441
0.39942306611962441
0.39942306611962441
0.39942306611962441
0.39942306611962441
0.39942306611962441
0.39942306611962441
0.39942306611962441
0.39942306611962441
0.39942306611962441
0.39942306611962441
0.39942306611962441
0.39942306611962441
0.39942306611962441
0.39942306611962441
0.39942306611962441
0.39942306611962441
0.39942306611962441
0.39942306611962441
0.39942306611962441
0.39942306611962441
0.39942306611962441
0.39942306611962441
0.39942306611962441
0.39942306611962441
0.39942306611962441
0.39942306611962441
0.39942306611962441
0.39942306611962441
0.39942306611962441
0.39942306611962441
0.39942306611962441
0.39942306611962441
0.39942306611962441
0.39942306611962441
0.39942306611962441
0.39942306611962441
0.39942306611962441
0.39942306611962441
0.39942306611962441
0.39942306611962441
0.39942306611962441
0.39942306611962441
0.39942306611962441
0.39942306611962441
0.39942306611962441
0.39942306611962441
0.39942306611962441
0.39942306611962441
0.39942306611962441
0.39942306611962441
0.39942306611962441
0.39942306611962441
0.39942306611962441
0.39942306611962441
0.39942306611962441
0.39942306611962441
0.39942306611962441
0.39942306611962441
0.39942306611962441
0.39942306611962441
0.39942306611962441
0.39942306611962441
0.39942306611962441
0.39942306611962441
0.39942306611962441
0.39942306611962441
0.39942306611962441
0.39942306611962441
0.39942306611962441
0.39942306611962441
0.39942306611962441
0.39942306611962441
0.39942306611962441
0.39942306611962441
0.39942306611962441
0.39942306611962441
0.39942306611962441
0.39942306611962441
0.39942306611962441
0.39942306611962441
0.39942306611962441
0.39942306611962441
0.39942306611962441
0.39942306611962441
0.39942306611962441
0.39942306611962441
0.39942306611962441
0.39942306611962441
0.39942306611962441
0.39942306611962441
0.39942306611962441
0.39942306611962441
0.39942306611962441
0.39942306611962441
0.39942306611962441
0.39942306611962441
0.39942306611962441
0.39942306611962441
0.39942306611962441
0.39942306611962441
0.39942306611962441
0.39942306611962441
0.39942306611962441
0.39942306611962441
0.39942306611962441
0.39942306611962441
0.39942306611962441
0.39942306611962441
0.39942306611962441
0.39942306611962441
0.39942306611962441
0.39942306611962441
0.39942306611962441
0.39942306611962441
0.39942306611962441
0.39942306611962441
0.39942306611962441
0.39942306611962441
0.39942306611962441
0.39942306611962441
0.39942306611962441
0.39942306611962441
0.39942306611962441
0.39942306611962441
0.39942306611962441
0.39942306611962441
0.39942306611962441
0.39942306611962441
0.39942306611962441
0.39942306611962441
0.39942306611962441
0.39942306611962441
0.39942306611962441
0.39942306611962441
0.39942306611962441
0.39942306611962441
0.39942306611962441
0.39942306611962441
0.39942306611962441
0.39942306611962441
0.39942306611962441
0.39942306611962441
0.39942306611962441
0.39942306611962441
0.39942306611962441
0.39942306611962441
0.39942306611962441
0.39942306611962441
0.39942306611962441
0.39942306611962441
0.39942306611962441
0.39942306611962441
0.39942306611962441
0.39942306611962441
0.39942306611962441
0.39942306611962441
0.39942306611962441
0.39942306611962441
0.39942306611962441
0.39942306611962441
0.39942306611962441
0.39942306611962441
0.39942306611962441
0.39942306611962441
0.39942306611962441
0.39942306611962441
0.39942306611962441
0.39942306611962441
0.39942306611962441
0.39942306611962441
0.39942306611962441
0.39942306611962441
0.39942306611962441
0.39942306611962441
0.39942306611962441
0.39942306611962441
0.39942306611962441
0.39942306611962441
0.39942306611962441
0.39942306611962441
0.39942306611962441
0.39942306611962441
0.39942306611962441
0.39942306611962441
0.39942306611962441
0.39942306611962441
0.39942306611962441
0.39942306611962441
0.39942306611962441
0.39942306611962441
0.39942306611962441
0.39942306611962441
0.39942306611962441
0.39942306611962441
0.39942306611962441
0.39942306611962441
0.39942306611962441
0.39942306611962441
0.39942306611962441
0.39942306611962441
0.39942306611962441
0.39942306611962441
0.39942306611962441
0.39942306611962441
0.39942306611962441
0.39942306611962441
0.39942306611962441
0.39942306611962441
0.39942306611962441
0.39942306611962441
0.39942306611962441
0.39942306611962441
0.39942306611962441
0.39942306611962441
0.39942306611962441
0.39942306611962441
0.39942306611962441
0.39942306611962441
0.39942306611962441
0.39942306611962441
0.39942306611962441
0.39942306611962441
0.39942306611962441
0.39942306611962441
0.39942306611962441
0.39942306611962441
0.39942306611962441
0.39942306611962441
0.39942306611962441
0.39942306611962441
0.39942306611962441
0.39942306611962441
0.39942306611962441
0.39942306611962441
0.39942306611962441
0.39942306611962441
0.39942306611962441
0.39942306611962441
0.39942306611962441
0.39942306611962441
0.39942306611962441
0.39942306611962441
0.39942306611962441
0.39942306611962441
0.39942306611962441
0.39942306611962441
0.39942306611962441
0.39942306611962441
0.39942306611962441
0.39942306611962441
0.39942306611962441
0.39942306611962441
0.39942306611962441
0.39942306611962441
0.39942306611962441
0.39942306611962441
0.39942306611962441
0.39942306611962441
0.39942306611962441
0.39942306611962441
0.39942306611962441
0.39942306611962441
0.39942306611962441
0.39942306611962441
0.39942306611962441
0.39942306611962441
0.39942306611962441
0.39942306611962441
0.39942306611962441
0.39942306611962441
0.39942306611962441
0.39942306611962441
0.39942306611962441
0.39942306611962441
0.39942306611962441
0.39942306611962441
0.39942306611962441
0.39942306611962441
0.39942306611962441
0.39942306611962441
0.39942306611962441
0.39942306611962441
0.39942306611962441
0.39942306611962441
0.39942306611962441
0.39942306611962441
0.39942306611962441
0.39942306611962441
0.39942306611962441
0.39942306611962441
0.39942306611962441
0.39942306611962441
0.39942306611962441
0.39942306611962441
0.39942306611962441
0.39942306611962441
0.39942306611962441
0.39942306611962441
0.39942306611962441
0.39942306611962441
0.39942306611962441
0.39942306611962441
0.39942306611962441
0.39942306611962441
0.39942306611962441
0.39942306611962441
0.39942306611962441
0.39942306611962441
0.39942306611962441
0.39942306611962441
0.39942306611962441
0.39942306611962441
0.39942306611962441
0.39942306611962441
0.39942306611962441
0.39942306611962441
0.39942306611962441
0.39942306611962441
0.39942306611962441
0.39942306611962441
0.39942306611962441
0.39942306611962441
0.39942306611962441
0.39942306611962441
0.39942306611962441
0.39942306611962441
0.39942306611962441
0.39942306611962441
0.39942306611962441
0.39942306611962441
0.39942306611962441
0.39942306611962441
0.39942306611962441
0.39942306611962441
0.39942306611962441
0.39942306611962441
0.39942306611962441
0.39942306611962441
0.39942306611962441
0.39942306611962441
0.39942306611962441
0.39942306611962441
0.39942306611962441
0.39942306611962441
0.39942306611962441
0.39942306611962441
0.39942306611962441
0.39942306611962441
0.39942306611962441
0.39942306611962441
0.39942306611962441
0.39942306611962441
0.39942306611962441
0.39942306611962441
0.39942306611962441
0.39942306611962441
0.39942306611962441
0.39942306611962441
0.39942306611962441
0.39942306611962441
0.39942306611962441
0.39942306611962441
0.39942306611962441
0.39942306611962441
0.39942306611962441
0.39942306611962441
0.39942306611962441
0.39942306611962441
0.39942306611962441
0.39942306611962441
0.39942306611962441
0.39942306611962441
0.39942306611962441
0.39942306611962441
0.39942306611962441
0.39942306611962441
0.39942306611962441
0.39942306611962441
0.39942306611962441
0.39942306611962441
0.39942306611962441
0.39942306611962441
0.39942306611962441
0.39942306611962441
0.39942306611962441
0.39942306611962441
0.39942306611962441
0.39942306611962441
0.39942306611962441
0.39942306611962441
0.39942306611962441
0.39942306611962441
0.39942306611962441
0.39942306611962441
0.39942306611962441
0.39942306611962441
0.39942306611962441
0.39942306611962441
0.39942306611962441
0.39942306611962441
0.39942306611962441
0.39942306611962441
0.39942306611962441
0.39942306611962441
0.39942306611962441
0.39942306611962441
0.39942306611962441
0.39942306611962441
0.39942306611962441
0.39942306611962441
0.39942306611962441
0.39942306611962441
0.39942306611962441
0.39942306611962441
0.39942306611962441
0.39942306611962441
0.39942306611962441
0.39942306611962441
0.39942306611962441
0.39942306611962441
0.39942306611962441
0.39942306611962441
0.39942306611962441
0.39942306611962441
0.39942306611962441
0.39942306611962441
0.39942306611962441
0.39942306611962441
0.39942306611962441
0.39942306611962441
0.39942306611962441
0.39942306611962441
0.39942306611962441
0.39942306611962441
0.39942306611962441
0.39942306611962441
0.39942306611962441
0.39942306611962441
0.39942306611962441
0.39942306611962441
0.39942306611962441
0.39942306611962441
0.39942306611962441
0.39942306611962441
0.39942306611962441
0.39942306611962441
0.39942306611962441
0.39942306611962441
0.39942306611962441
0.39942306611962441
0.39942306611962441
0.39942306611962441
0.39942306611962441
0.39942306611962441
0.39942306611962441
0.39942306611962441
0.39942306611962441
0.39942306611962441
0.39942306611962441
0.39942306611962441
0.39942306611962441
0.39942306611962441
0.39942306611962441
0.39942306611962441
0.39942306611962441
0.39942306611962441
0.39942306611962441
0.39942306611962441
0.39942306611962441
0.39942306611962441
0.39942306611962441
0.39942306611962441
0.39942306611962441
0.39942306611962441
0.39942306611962441
0.39942306611962441
0.39942306611962441
0.39942306611962441
0.39942306611962441
0.39942306611962441
0.39942306611962441
0.39942306611962441
0.39942306611962441
0.39942306611962441
0.39942306611962441
0.39942306611962441
0.39942306611962441
0.39942306611962441
0.39942306611962441
0.39942306611962441
0.39942306611962441
0.39942306611962441
0.39942306611962441
0.39942306611962441
0.39942306611962441
0.39942306611962441
0.39942306611962441
0.39942306611962441
0.39942306611962441
0.39942306611962441
0.39942306611962441
0.39942306611962441
0.39942306611962441
0.39942306611962441
0.39942306611962441
0.39942306611962441
0.39942306611962441
0.39942306611962441
0.39942306611962441
0.39942306611962441
0.39942306611962441
0.39942306611962441
0.39942306611962441
0.39942306611962441
0.39942306611962441
0.39942306611962441
0.39942306611962441
0.39942306611962441
0.39942306611962441
0.39942306611962441
0.39942306611962441
0.39942306611962441
0.39942306611962441
0.39942306611962441
0.39942306611962441
0.39942306611962441
0.39942306611962441
0.39942306611962441
0.39942306611962441
0.39942306611962441
0.39942306611962441
0.39942306611962441
0.39942306611962441
0.39942306611962441
0.39942306611962441
0.39942306611962441
0.39942306611962441
0.39942306611962441
0.39942306611962441
0.39942306611962441
0.39942306611962441
0.39942306611962441
0.39942306611962441
0.39942306611962441
0.39942306611962441
0.39942306611962441
0.39942306611962441
0.39942306611962441
0.39942306611962441
0.39942306611962441
0.39942306611962441
0.39942306611962441
0.39942306611962441
0.39942306611962441
0.39942306611962441
0.39942306611962441
0.39942306611962441
0.39942306611962441
0.39942306611962441
0.39942306611962441
0.39942306611962441
0.39942306611962441
0.39942306611962441
0.39942306611962441
0.39942306611962441
0.39942306611962441
0.39942306611962441
0.39942306611962441
0.39942306611962441
0.39942306611962441
0.39942306611962441
0.39942306611962441
0.39942306611962441
0.39942306611962441
0.39942306611962441
0.39942306611962441
0.39942306611962441
0.39942306611962441
0.39942306611962441
0.39942306611962441
0.39942306611962441
0.39942306611962441
0.39942306611962441
0.39942306611962441
0.39942306611962441
0.39942306611962441
0.39942306611962441
0.39942306611962441
0.39942306611962441
0.39942306611962441
0.39942306611962441
0.39942306611962441
0.39942306611962441
0.39942306611962441
0.39942306611962441
0.39942306611962441
0.39942306611962441
0.39942306611962441
0.39942306611962441
0.39942306611962441
0.39942306611962441
0.39942306611962441
0.39942306611962441
0.39942306611962441
0.39942306611962441
0.39942306611962441
0.39942306611962441
0.39942306611962441
0.39942306611962441
0.39942306611962441
0.39942306611962441
0.39942306611962441
0.39942306611962441
0.39942306611962441
0.39942306611962441
0.39942306611962441
0.39942306611962441
0.39942306611962441
0.39942306611962441
0.39942306611962441
0.39942306611962441
0.39942306611962441
0.39942306611962441
0.39942306611962441
0.39942306611962441
0.39942306611962441
0.39942306611962441
0.39942306611962441
0.39942306611962441
0.39942306611962441
0.39942306611962441
0.39942306611962441
0.39942306611962441
0.39942306611962441
0.39942306611962441
0.39942306611962441
0.39942306611962441
0.39942306611962441
0.39942306611962441
0.39942306611962441
0.39942306611962441
0.39942306611962441
0.39942306611962441
0.39942306611962441
0.39942306611962441
0.39942306611962441
0.39942306611962441
0.39942306611962441
0.39942306611962441
0.39942306611962441
0.39942306611962441
0.39942306611962441
0.39942306611962441
0.39942306611962441
0.39942306611962441
0.39942306611962441
0.39942306611962441
0.39942306611962441
0.39942306611962441
VECTORS v float
0 -0.082536844157181821 0
0 -0.18787499607518857 0
0 -0.3477619382245774 0
0 -0.59535629275309343 0
0 -0.78693269804568911 0
0 -0.85728173056934853 0
0 -0.87544662150219521 0
0 -0.87963027895828327 0
0 -0.88054781825051665 0
0 -0.88074286067418728 0
0 -0.88078284337418611 0
0 -0.8807906839814359 0
0 -0.88079208031367284 0
0 -0.88079193827967317 0
0 -0.88078995274778649 0
0 -0.88078050317530721 0
0 -0.88073989947066622 0
0 -0.88058058574576148 0
0 -0.88001557196326108 0
0 -0.8782280836009545 0
0 -0.87325720172137156 0
0 -0.86126408584911729 0
0 -0.8363485211242333 0
0 -0.79016501824900365 0
0 -0.65163144269834361 0
0 -0.090693123356314395 0
0 -0.19583583497367282 0
0 -0.34826702134045523 0
0 -0.5780611522661786 0
0 -0.77340579955164357 0
0 -0.8538547107994735 0
0 -0.87478143893272031 0
0 -0.87948850525016431 0
0 -0.88051694919894596 0
0 -0.88073631005342057 0
0 -0.88078150778488296 0
0 -0.88079042188593915 0
0 -0.88079201875779833 0
0 -0.88079186005637178 0
0 -0.88078961729791549 0
0 -0.88077902543566222 0
0 -0.88073389542307068 0
0 -0.8805582966383575 0
0 -0.87994029444483923 0
0 -0.87799736952866925 0
0 -0.87261957683081537 0
0 -0.85972523182325566 0
0 -0.83355997817396854 0
0 -0.78728034776974654 0
0 -0.65902595246678342 0
0 -0.090634582161552402 0
0 -0.1960531873938258 0
0 -0.34810511808655403 0
0 -0.57385224261936374 0
0 -0.76840066672577478 0
0 -0.85231375962304734 0
0 -0.87447784589517397 0
0 -0.87942824491230598 0
0 -0.88050431845442922 0
0 -0.88073365295904726 0
0 -0.88078096377479087 0
0 -0.88079031414955022 0
0 -0.88079199313310463 0
0 -0.88079182718592064 0
0 -0.88078947539817454 0
0 -0.88077839070439246 0
0 -0.88073124221554455 0
0 -0.88054798340592833 0
0 -0.87990311878088734 0
0 -0.87787433255514424 0
0 -0.8722560852170741 0
0 -0.85882600699577538 0
0 -0.831928062064201 0
0 -0.78543195195889659 0
0 -0.66180056042952828 0
0 -0.090431165325755375 0
0 -0.19580991906722586 0
0 -0.34771081212739841 0
0 -0.57272769404805135 0
0 -0.76700687522575683 0
0 -0.8517021162652747 0
0 -0.87432136305674868 0
0 -0.8793942183430894 0
0 -0.88049706294497077 0
0 -0.88073212168191539 0
0 -0.88078064835993142 0
0 -0.88079025103371689 0
0 -0.88079197795191799 0
0 -0.88079180793190037 0
0 -0.88078939316177496 0
0 -0.88077802502957914 0
0 -0.88072972201700661 0
0 -0.88054213229049383 0
0 -0.87988251291301733 0
0 -0.8778094130531946 0
0 -0.87208023128897416 0
0 -0.85844156936057481 0
0 -0.83130021686628808 0
0 -0.78476048329825632 0
0 -0.66242390018851893 0
0 -0.090370402706221917 0
0 -0.19570420236535355 0
0 -0.34754432138959168 0
0 -0.57239124391642604 0
0 -0.76661365334269282 0
0 -0.85150337997145997 0
0 -0.87425951858556761 0
0 -0.87937871008359547 0
0 -0.88049350668845705 0
0 -0.88073134462434011 0
0 -0.8807804850450518 0
0 -0.88079021781520039 0
0 -0.88079196987804598 0
0 -0.88079179798861018 0
0 -0.88078935164616223 0
0 -0.88077784381032564 0
0 -0.88072898538353817 0
0 -0.8805393846344356 0
0 -0.87987327290603246 0
0 -0.8777821619468924 0
0 -0.87201250338709224 0
0 -0.85830669898550349 0
0 -0.83109713865689039 0
0 -0.78455105047081497 0
0 -0.66250152408099028 0
0 -0.090356359963923008 0
0 -0.19567139084861696 0
0 -0.34749027261774518 0
0 -0.57229535249865759 0
0 -0.76650593847594128 0
0 -0.8514446348035567 0
0 -0.87423875852502619 0
0 -0.87937280791079342 0
0 -0.88049202437839835 0
0 -0.88073100177102392 0
0 -0.88078041037515142 0
0 -0.88079020224301885 0
0 -0.88079196605307819 0
0 -0.88079179350725811 0
0 -0.88078933358300537 0
0 -0.88077776723589862 0
0 -0.88072868476225952 0
0 -0.88053831167323748 0
0 -0.87986986159956115 0
0 -0.87777276775620616 0
0 -0.87199087150197829 0
0 -0.85826666264229712 0
0 -0.83104012590315912 0
0 -0.78449295720335632 0
0 -0.66249833666418523 0
0 -0.090353226363755118 0
0 -0.19566251324084072 0
0 -0.34747506651106846 0
0 -0.57227011151613294 0
0 -0.76647835524045871 0
0 -0.85142880440777635 0
0 -0.8742326374971302 0
0 -0.87937088814907838 0
0 -0.88049149970372054 0
0 -0.88073087256688953 0
0 -0.88078038098448974 0
0 -0.88079019592301955 0
0 -0.88079196448447661 0
0 -0.88079179178588984 0
0 -0.88078932694703105 0
0 -0.88077774009005605 0
0 -0.88072858246898411 0
0 -0.88053796393851624 0
0 -0.8798688172502922 0
0 -0.87777006761710774 0
0 -0.87198503700100294 0
0 -0.85825644685433788 0
0 -0.83102611523190983 0
0 -0.78447872351227632 0
0 -0.66249368903194483 0
0 -0.090352670017020353 0
0 -0.19566077763613438 0
0 -0.34747202542238587 0
0 -0.57226523276483221 0
0 -0.76647312059064632 0
0 -0.85142570567220177 0
0 -0.87423136999010342 0
0 -0.87937046484270776 0
0 -0.88049137719035275 0
0 -0.88073084098073362 0
0 -0.88078037355270589 0
0 -0.88079019428586403 0
0 -0.88079196407512805 0
0 -0.88079179136070784 0
0 -0.88078932536868537 0
0 -0.88077773382077829 0
0 -0.88072855961620133 0
0 -0.88053788917427023 0
0 -0.87986860214566276 0
0 -0.87776953601653196 0
0 -0.8719839367038813 0
0 -0.85825458735960103 0
0 -0.83102362154808296 0
0 -0.78447619548346548 0
0 -0.66249251226740147 0
0 -0.090353226363755118 0
0 -0.19566251324084061 0
0 -0.34747506651106819 0
0 -0.57227011151613305 0
0 -0.7664783552404586 0
0 -0.85142880440777635 0
0 -0.8742326374971302 0
0 -0.87937088814907838 0
0 -0.88049149970372054 0
0 -0.88073087256688953 0
0 -0.88078038098448974 0
0 -0.88079019592301955 0
0 -0.88079196448447661 0
0 -0.88079179178588984 0
0 -0.88078932694703105 0
0 -0.88077774009005605 0
0 -0.88072858246898411 0
0 -0.88053796393851624 0
0 -0.8798688172502922 0
0 -0.87777006761710774 0
0 -0.87198503700100294 0
0 -0.85825644685433788 0
0 -0.83102611523190983 0
0 -0.78447872351227632 0
0 -0.66249368903194483 0
0 -0.090356359963922994 0
0 -0.19567139084861696 0
0 -0.34749027261774518 0
0 -0.57229535249865759 0
0 -0.76650593847594128 0
0 -0.8514446348035567 0
0 -0.87423875852502619 0
0 -0.87937280791079342 0
0 -0.88049202437839835 0
0 -0.88073100177102392 0
0 -0.88078041037515142 0
0 -0.88079020224301885 0
0 -0.88079196605307819 0
0 -0.88079179350725811 0
0 -0.88078933358300537 0
0 -0.88077776723589862 0
0 -0.88072868476225952 0
0 -0.88053831167323748 0
0 -0.87986986159956115 0
0 -0.87777276775620616 0
0 -0.87199087150197829 0
0 -0.85826666264229712 0
0 -0.83104012590315912 0
0 -0.78449295720335632 0
0 -0.66249833666418512 0
0 -0.090370402706221958 0
0 -0.19570420236535355 0
0 -0.34754432138959168 0
0 -0.57239124391642593 0
0 -0.76661365334269271 0
0 -0.85150337997145997 0
0 -0.87425951858556761 0
0 -0.87937871008359547 0
0 -0.88049350668845705 0
0 -0.88073134462434011 0
0 -0.8807804850450518 0
0 -0.88079021781520039 0
0 -0.88079196987804598 0
0 -0.88079179798861018 0
0 -0.88078935164616223 0
0 -0.88077784381032564 0
0 -0.88072898538353817 0
0 -0.8805393846344356 0
0 -0.87987327290603246 0
0 -0.8777821619468924 0
0 -0.87201250338709224 0
0 -0.85830669898550349 0
0 -0.83109713865689039 0
0 -0.78455105047081497 0
0 -0.66250152408099028 0
0 -0.090431165325755458 0
0 -0.19580991906722575 0
0 -0.34771081212739835 0
0 -0.57272769404805135 0
0 -0.76700687522575672 0
0 -0.8517021162652747 0
0 -0.87432136305674868 0
0 -0.8793942183430894 0
0 -0.88049706294497077 0
0 -0.88073212168191539 0
0 -0.88078064835993142 0
0 -0.88079025103371689 0
0 -0.88079197795191799 0
0 -0.88079180793190037 0
0 -0.88078939316177496 0
0 -0.88077802502957914 0
0 -0.88072972201700661 0
0 -0.88054213229049383 0
0 -0.87988251291301733 0
0 -0.8778094130531946 0
0 -0.87208023128897416 0
0 -0.85844156936057481 0
0 -0.83130021686628808 0
0 -0.78476048329825632 0
0 -0.66242390018851893 0
0 -0.090634582161552318 0
0 -0.19605318739382566 0
0 -0.34810511808655392 0
0 -0.57385224261936374 0
0 -0.76840066672577478 0
0 -0.85231375962304734 0
0 -0.87447784589517397 0
0 -0.87942824491230598 0
0 -0.88050431845442922 0
0 -0.88073365295904726 0
0 -0.88078096377479087 0
0 -0.88079031414955022 0
0 -0.88079199313310463 0
0 -0.88079182718592064 0
0 -0.88078947539817454 0
0 -0.88077839070439246 0
0 -0.88073124221554455 0
0 -0.88054798340592833 0
0 -0.87990311878088734 0
0 -0.87787433255514424 0
0 -0.8722560852170741 0
0 -0.85882600699577538 0
0 -0.831928062064201 0
0 -0.78543195195889659 0
0 -0.66180056042952828 0
0 -0.090693123356314409 0
0 -0.19583583497367282 0
0 -0.34826702134045523 0
0 -0.57806115226617849 0
0 -0.77340579955164346 0
0 -0.8538547107994735 0
0 -0.87478143893272031 0
0 -0.87948850525016431 0
0 -0.88051694919894596 0
0 -0.88073631005342057 0
0 -0.88078150778488296 0
0 -0.88079042188593915 0
0 -0.88079201875779833 0
0 -0.88079186005637178 0
0 -0.88078961729791549 0
0 -0.88077902543566222 0
0 -0.88073389542307068 0
0 -0.8805582966383575 0
0 -0.87994029444483923 0
0 -0.87799736952866925 0
0 -0.87261957683081537 0
0 -0.85972523182325566 0
0 -0.83355997817396854 0
0 -0.78728034776974654 0
0 -0.65902595246678353 0
0 -0.082536844157181821 0
0 -0.18787499607518846 0
0 -0.3477619382245774 0
0 -0.59535629275309332 0
0 -0.78693269804568899 0
0 -0.85728173056934853 0
0 -0.87544662150219521 0
0 -0.87963027895828327 0
0 -0.88054781825051665 0
0 -0.88074286067418728 0
0 -0.88078284337418611 0
0 -0.8807906839814359 0
0 -0.88079208031367284 0
0 -0.88079193827967317 0
0 -0.88078995274778649 0
0 -0.88078050317530721 0
0 -0.88073989947066622 0
0 -0.88058058574576148 0
0 -0.88001557196326108 0
0 -0.8782280836009545 0
0 -0.87325720172137156 0
0 -0.86126408584911718 0
0 -0.8363485211242333 0
0 -0.79016501824900365 0
0 -0.65163144269834383 0
-0 -0 0
-0 -0 0
-0 -0 0
-0 -0 0
-0 -0 0
-0 -0 0
-0 -0 0
-0 0.079488159930387312 0
-0 0.1410283729366959 0
-0 -0 0
-0 -0 0
-0 -0 0
-0 0.00024449412747255865 0
-0 0.098026284485703136 0
-0 0.15946422025961721 0
-0 -0 0
-0 -0 0
-0 -0 0
-0 0.0027981058238321305 0
-0 0.10179126230754908 0
-0 0.16208937204452725 0
-0 -0 0
-0 -0 0
-0 -0 0
-0 0.0047775069250288729 0
-0 0.10468593593063102 0
-0 0.16303981601288284 0
-0 -0 0
-0 -0 0
-0 -0 0
-0 0.0044802990916287481 0
-0 0.10456861666520344 0
-0 0.16280138345277265 0
-0 -0 0
-0 -0 0
-0 -0 0
-0 0.00438836795051407 0
-0 0.10440437663782265 0
-0 0.1625438995520227 0
-0 -0 0
-0 -0 0
-0 -0 0
-0 0.0043738780470189637 0
-0 0.10435314052482317 0
-0 0.16245542484289088 0
-0 -0 0
-0 -0 0
-0 -0 0
-0 0.0043714971648843469 0
-0 0.10434053340621133 0
-0 0.16243119034172271 0
-0 -0 0
-0 -0 0
-0 -0 0
-0 0.0043710217541523934 0
-0 0.10433773535936036 0
-0 0.16242539807504738 0
-0 -0 0
-0 -0 0
-0 -0 0
-0 0.0043710217541522572 0
-0 0.10433773535936035 0
-0 0.16242539807504736 0
-0 -0 0
-0 -0 0
-0 -0 0
-0 0.0043714971648842107 0
-0 0.10434053340621133 0
-0 0.16243119034172274 0
-0 -0 0
-0 -0 0
-0 -0 0
-0 0.0043738780470189177 0
-0 0.10435314052482318 0
-0 0.16245542484289094 0
-0 -0 0
-0 -0 0
-0 -0 0
-0 0.0043883679505141646 0
-0 0.1044043766378227 0
-0 0.16254389955202267 0
-0 -0 0
-0 -0 0
-0 -0 0
-0 0.0044802990916287012 0
-0 0.10456861666520348 0
-0 0.16280138345277265 0
-0 -0 0
-0 -0 0
-0 -0 0
-0 0.0047775069250289631 0
-0 0.10468593593063098 0
-0 0.16303981601288278 0
-0 -0 0
-0 -0 0
-0 -0 0
-0 0.0027981058238323491 0
-0 0.10179126230754908 0
-0 0.16208937204452722 0
-0 -0 0
-0 -0 0
-0 -0 0
-0 0.00024449412747256955 0
-0 0.09802628448570315 0
-0 0.15946422025961718 0
-0 -0 0
-0 -0 0
-0 -0 0
-0 -0 0
-0 0.079488159930387353 0
-0 0.14102837293669593 0
-0 -0 0
-0 -0 0
-0 -0 0
-0 -0 0
-0 -0 0
-0 -0 0
-0 -0 0
-0 -0 0
-0 -0 0
-0 -0 0
-0 -0 0
-0 -0 0
-0 -0 0
-0 -0 0
-0 -0 0
-0 -0 0
-0 -0 0
-0 -0 0
-0 -0 0
-0 -0 0
-0 -0 0
-0 -0 0
-0 -0 0
-0 -0 0
-0 -0 0
-0 -0 0
-0 -0 0
-0 -0 0
-0 -0 0
-0 -0 0
-0 -0 0
-0 -0 0
-0 -0 0
-0 -0 0
-0 -0 0
-0 -0 0
-0 -0 0
-0 -0 0
-0 -0 0
-0 -0 0
-0 -0 0
-0 -0 0
-0 -0 0
-0 -0 0
-0 -0 0
-0 -0 0
-0 -0 0
-0 -0 0
-0 -0 0
-0 -0 0
-0 -0 0
-0 -0 0
-0 -0 0
-0 -0 0
-0 -0 0
-0 -0 0
-0 -0 0
-0 -0 0
-0 -0 0
-0 -0 0
-0 -0 0
-0 -0 0
-0 -0 0
-0 -0 0
-0 -0 0
-0 -0 0
-0 -0 0
-0 -0 0
-0 -0 0
-0 -0 0
-0 -0 0
-0 -0 0
-0 -0 0
-0 -0 0
-0 -0 0
-0 -0 0
-0 -0 0
-0 -0 0
-0 -0 0
-0 -0 0
-0 -0 0
-0 -0 0
-0 -0 0
-0 -0 0
-0 -0 0
-0 -0 0
-0 -0 0
-0 -0 0
-0 -0 0
-0 -0 0
-0 -0 0
-0 -0 0
-0 -0 0
-0 -0 0
-0 -0 0
-0 -0 0
-0 -0 0
-0 -0 0
-0 -0 0
-0 -0 0
-0 -0 0
-0 -0 0
-0 -0 0
-0 -0 0
-0 -0 0
-0 -0 0
-0 -0 0
-0 -0 0
-0 -0 0
-0 -0 0
-0 -0 0
-0 -0 0
-0 -0 0
-0 -0 0
-0 -0 0
-0 -0 0
-0 -0 0
-0 -0 0
-0 -0 0
-0 -0 0
-0 -0 0
-0 -0 0
-0 -0 0
-0 -0 0
-0 -0 0
-0 -0 0
-0 -0 0
-0 -0 0
-0 -0 0
-0 -0 0
-0 -0 0
-0 -0 0
-0 -0 0
-0 -0 0
-0 -0 0
-0 -0 0
-0 -0 0
-0 -0 0
-0 -0 0
-0 -0 0
-0 -0 0
-0 -0 0
-0 -0 0
-0 -0 0
-0 -0 0
-0 -0 0
-0 -0 0
-0 -0 0
-0 -0 0
-0 -0 0
-0 -0 0
-0 -0 0
-0 -0 0
-0 -0 0
-0 -0 0
-0 -0 0
-0 -0 0
-0 -0 0
-0 -0 0
-0 -0 0
-0 -0 0
-0 -0 0
-0 -0 0
-0 -0 0
-0 -0 0
-0 -0 0
-0 -0 0
-0 -0 0
-0 -0 0
-0 -0 0
-0 -0 0
-0 -0 0
-0 -0 0
-0 -0 0
-0 -0 0
-0 -0 0
-0 -0 0
-0 -0 0
-0 -0 0
-0 -0 0
-0 -0 0
-0 -0 0
-0 -0 0
-0 -0 0
-0 -0 0
-0 -0 0
-0 -0 0
-0 -0 0
-0 -0 0
-0 -0 0
-0 -0 0
-0 -0 0
-0 -0 0
-0 -0 0
-0 -0 0
