# vtk DataFile Version 3.0
SPH particles (WCSPH) - legacy PolyData
ASCII
DATASET POLYDATA
POINTS 681 float
0.04999519241074106 0.030534431431787648 0
0.049994300252883143 0.033629128356242759 0
0.049993593109310869 0.036108307286664879 0
0.049992931043731197 0.038621795931859521 0
0.049992370736486977 0.041157621238332227 0
0.049991893207917207 0.04372314684716383 0
0.049991492187227642 0.046341473651034505 0
0.049990988957962168 0.049046314544998977 0
0.04999028398399858 0.051881118919009123 0
0.049989212838047588 0.054902656368629468 0
0.049987370101674512 0.058187622911230516 0
0.049985079765043697 0.061844060848363747 0
0.049984309016003522 0.066040289843582706 0
0.049985901182351231 0.071090357317796865 0
0.049988924617695288 0.077790799601856281 0
0.049992949647939218 0.088559693418233998 0
0.049996947297789494 0.10543032617719161 0
0.049999262911974526 0.12515187646809708 0
0.049999906141880865 0.14549380529917183 0
0.049999989068337039 0.16621948354337598 0
0.049999998804883657 0.18751223731921476 0
0.049999999881595862 0.20971656322017318 0
0.049999999990124049 0.2334053421445158 0
0.049999999999425622 0.25979888149183661 0
0.050000000000000003 0.30850511592540103 0
0.069997677825284488 0.029240261496352605 0
0.06999719368765045 0.032669454983017952 0
0.069996765409850392 0.035457481768487321 0
0.06999639728555708 0.038217367306198936 0
0.069996057824635888 0.040956599708964821 0
0.069995711505470348 0.043697252384793085 0
0.069995364104298838 0.046473037414956099 0
0.069994982585404958 0.049325858582630243 0
0.069994558007658469 0.052305200691513301 0
0.069993845727167173 0.055472352235188822 0
0.069992381292646885 0.058907807605887368 0
0.069989973713811424 0.062722663400872153 0
0.069988598444936018 0.067087213887813441 0
0.069989197167574776 0.07230543763347555 0
0.069991160348638989 0.079063617186737184 0
0.069994002982575215 0.089368854932637923 0
0.069997139647753726 0.10561218150038543 0
0.069999296808679418 0.12518838589281242 0
0.06999990859610887 0.14553251091413985 0
0.069999988877963285 0.16628727963519696 0
0.069999998731602647 0.18763196599884763 0
0.069999999870185986 0.20991656303597783 0
0.069999999988878431 0.23369804900200761 0
0.069999999999330931 0.26012812749697728 0
0.070000000000000007 0.30762836696813156 0
0.089999161799085486 0.029215322211629494 0
0.089998950488213006 0.032654133743809141 0
0.089998814183143663 0.035452228013259778 0
0.089998603860270754 0.038227141356391769 0
0.089998394543391952 0.040985406100050477 0
0.089998166569383434 0.043748501750312953 0
0.089997815426440017 0.046550431811446087 0
0.089997679296928201 0.049433308688410206 0
0.089997524060878409 0.052447186223543989 0
0.089997313639736939 0.055653963064358887 0
0.08999710736839131 0.059134573439150587 0
0.089996527350873767 0.062999762261658959 0
0.089995847388414471 0.067418008623414225 0
0.08999577007711855 0.072687453315611633 0
0.089996550712149126 0.079470396872583268 0
0.089997750499300352 0.089671045422550402 0
0.089998964054409783 0.10570204869032609 0
0.089999707959659225 0.12521070815167401 0
0.089999947424447571 0.14556096380764791 0
0.089999992598506329 0.16634109278514325 0
0.089999999062607083 0.18772500445069989 0
0.089999999897309918 0.21006461672864665 0
0.089999999990764162 0.23390059535713817 0
0.089999999999420779 0.26035207218591599 0
0.090000000000000011 0.30717150586208369 0
0.10999972958714242 0.029238858878520124 0
0.1099995968956009 0.032680769229453357 0
0.10999951404053424 0.0354819596820833 0
0.1099994035462822 0.038260641471109684 0
0.10999929092084892 0.041023351472038332 0
0.10999934567609113 0.043791764593001645 0
0.10999939248447253 0.046599875099458336 0
0.10999934472660358 0.049489992671536268 0
0.10999932884192846 0.052512293779191123 0
0.10999930814704463 0.055728967839839764 0
0.10999919100110662 0.059221152617868734 0
0.10999949813625522 0.063099644271303282 0
0.10999902884287213 0.067532434265674096 0
0.1099986990020396 0.072816221278813653 0
0.1099988789783516 0.07960605955344939 0
0.1099992756663829 0.089775790347226062 0
0.10999965720656071 0.10574001205778338 0
0.10999989443968038 0.12522540661868933 0
0.10999997772858364 0.14558157454493351 0
0.10999999621987251 0.16637718321348335 0
0.10999999945724562 0.18778414937344853 0
0.10999999993507775 0.21015295807325735 0
0.10999999999376839 0.23401608554109496 0
0.10999999999958893 0.26048399890524526 0
0.11000000000000001 0.30691741758365215 0
0.12999994000559134 0.02925037303882554 0
0.12999992420501319 0.032694515574905263 0
0.12999991772962091 0.035497466363208538 0
0.12999991705040698 0.038277950156652508 0
0.129999982052658 0.041042534270600138 0
0.13000005877258711 0.043812894006463515 0
0.13000012974434111 0.046623279450384573 0
0.13000020082347771 0.049515795336525704 0
0.13000029100534949 0.052540860011458253 0
0.13000043149632037 0.055760683089287465 0
0.13000054082388146 0.059256463512293113 0
0.13000043789723892 0.063138917999620514 0
0.13000018744403566 0.067576143554112081 0
0.13000000504643722 0.072864014919943376 0
0.12999984876489526 0.079655321569732707 0
0.1299998076907303 0.089813993799147757 0
0.12999989392486277 0.10575535649875485 0
0.1299999655768137 0.12523419530093338 0
0.12999999186416358 0.14559485290069127 0
0.12999999840454768 0.1663990094439915 0
0.12999999974135465 0.18781830639188529 0
0.12999999996598044 0.21020216475002573 0
0.12999999999648321 0.2340788869465969 0
0.12999999999975412 0.26055566897414029 0
0.13 0.30678992794911375 0
0.15000009417275659 0.029255034530638001 0
0.15000012029916515 0.032700209168654362 0
0.15000015380766893 0.035503975120367404 0
0.15000020102450387 0.038285279409722497 0
0.1500003573961162 0.04105068479213992 0
0.1500003992379792 0.043821855738398814 0
0.15000039926353542 0.046633081247572511 0
0.15000040274512616 0.049526553543230031 0
0.15000047188779991 0.052552665003068808 0
0.15000054090853615 0.055773658607628687 0
0.15000063167685082 0.059270758221482159 0
0.1500005112170768 0.063154543231221896 0
0.15000048116231979 0.067593322144523044 0
0.15000033789572073 0.072882489430064812 0
0.15000015052894572 0.079673997344651332 0
0.15000002461746192 0.0898284329847895 0
0.1499999880329119 0.10576181364894247 0
0.1499999922173377 0.12523901463074846 0
0.14999999764807667 0.14560244264013958 0
0.1499999994512794 0.1664111946178892 0
0.14999999989874652 0.18783666451677364 0
0.14999999998524363 0.21022775721129194 0
0.14999999999834635 0.23411082043483938 0
0.1499999999998767 0.26059152948286107 0
0.15000000000000002 0.30673228926180052 0
0.17000012802540423 0.029256838261141581 0
0.17000017482583932 0.032702391782961929 0
0.17000020877700908 0.035506512996735975 0
0.17000026096155524 0.038288092992244963 0
0.17000032598610312 0.041053735255810513 0
0.17000044803129594 0.043825246919125808 0
0.17000061192913871 0.04663688099251373 0
0.17000066416494672 0.049530709496571443 0
0.17000071181683368 0.05255721603916054 0
0.1700007555788165 0.055778613682645473 0
0.17000076697870586 0.059276187434595791 0
0.1700006743907054 0.063160519564857479 0
0.17000066299020131 0.067599839524904434 0
0.17000061172557393 0.072889366345743917 0
0.17000017792397962 0.079680944493427233 0
0.17000006688550609 0.08983380664026587 0
0.17000001304196322 0.10576443274895668 0
0.17000000038360086 0.12524135222229632 0
0.16999999958937276 0.14560617144577442 0
0.16999999986631267 0.16641711253596644 0
0.1699999999712698 0.18784538572795498 0
0.16999999999532853 0.21023957832152904 0
0.1699999999994308 0.23412528629111637 0
0.16999999999995491 0.26060747201540163 0
0.17000000000000004 0.30670935523877868 0
0.19000006534848007 0.029257365638028911 0
0.19000007988730488 0.032702999079454495 0
0.19000011287921004 0.035507157805787323 0
0.1900001234597164 0.038288789560048685 0
0.19000019369638499 0.041054499954913469 0
0.19000033563048122 0.043826159810743164 0
0.19000046163835904 0.046637819241442391 0
0.19000045992181203 0.049531724801081492 0
0.19000051325735609 0.05255834709457214 0
0.19000054090515922 0.055779906898866263 0
0.19000038932412497 0.059277620158268846 0
0.19000046209909213 0.063162214989949603 0
0.19000026547830373 0.067601593942516358 0
0.19000016631941308 0.072891311000206044 0
0.19000011085223509 0.079682874403681811 0
0.18999997087213155 0.089835236327572884 0
0.1899999930054824 0.10576510951999055 0
0.18999999854068481 0.12524202688887304 0
0.18999999988319427 0.14560727482460795 0
0.1900000000136946 0.1664188539749081 0
0.19000000000491055 0.1878479215039098 0
0.19000000000080827 0.21024296054291214 0
0.19000000000009096 0.23412937673881967 0
0.1900000000000065 0.26061192438578551 0
0.19 0.30670345032094154 0
0.21000016291839152 0.029256874577733887 0
0.21000021346765296 0.032702442556504327 0
0.21000025380857515 0.035506533244158429 0
0.2100003021816918 0.038288128374786012 0
0.21000039496949971 0.041053804452398028 0
0.21000039873100973 0.043825321591406279 0
0.21000047046193121 0.046636917402432539 0
0.2100004833198133 0.049530764040692773 0
0.21000051170872852 0.052557290560035642 0
0.21000051668016048 0.055778743803980339 0
0.21000046503121486 0.059276356807827342 0
0.21000040563576342 0.063160737885286505 0
0.2100002347934144 0.067600039441391091 0
0.21000005762297416 0.072889594550979528 0
0.21000003388432475 0.079681209402059971 0
0.20999994595070565 0.089833946674616874 0
0.20999995414536071 0.10576439840324084 0
0.20999999646748782 0.12524133512004573 0
0.21000000034019536 0.14560616946854479 0
0.21000000017487275 0.16641711229625578 0
0.21000000003935773 0.18784538569963677 0
0.21000000000630797 0.21023957831853002 0
0.21000000000074956 0.2341252862908477 0
0.21000000000005811 0.26060747201538464 0
0.21000000000000002 0.30670935523877868 0
0.23000018679275153 0.029255113150654904 0
0.23000021963007775 0.032700276521103931 0
0.23000026947152163 0.035504079262708849 0
0.23000032367876808 0.038285319707419746 0
0.23000040452478876 0.041050757397117867 0
0.23000045843424002 0.043821926299112378 0
0.23000052410938415 0.04663316746207654 0
0.23000054741390721 0.049526633624775045 0
0.23000062836216734 0.052552763044760198 0
0.23000068080768801 0.055773743214726369 0
0.23000066554723358 0.059270868267673707 0
0.23000049635645584 0.063154790355046855 0
0.23000035140383948 0.067593614286476714 0
0.2300002158192915 0.072882685234416766 0
0.23000016498703688 0.079674156602508331 0
0.23000007594572347 0.089828484049732038 0
0.2300000289574935 0.10576178852681248 0
0.23000000939073492 0.125239002676934 0
0.23000000270482895 0.14560244032918251 0
0.2300000006170014 0.1664111942373252 0
0.23000000011281699 0.18783666446403668 0
0.23000000001632526 0.21022775720517495 0
0.23000000000181853 0.23411082043426554 0
0.23000000000013487 0.26059152948282477 0
0.23000000000000004 0.30673228926180057 0
0.25000024377765506 0.029250422685691894 0
0.25000031788141747 0.032694558341587458 0
0.25000036305824852 0.03549756931446401 0
0.25000044989047254 0.038278092338177604 0
0.25000051698838366 0.041042669218398005 0
0.25000057317270546 0.04381303621311252 0
0.25000058626729293 0.046623425838946388 0
0.250000682080948 0.049515948694416938 0
0.25000074363377517 0.052541018814630046 0
0.25000082617962616 0.055760827535998259 0
0.2500008403422207 0.059256648433769182 0
0.25000073612513651 0.063139094533722809 0
0.25000053291033048 0.067576454854846368 0
0.25000062160009667 0.072864095460961703 0
0.25000043068705569 0.079655356135602359 0
0.25000027952253573 0.089813973683525741 0
0.25000012379020614 0.10575531784041442 0
0.25000003821252748 0.12523418199116926 0
0.25000000865973293 0.14559485011019951 0
0.25000000166742142 0.16639900895260865 0
0.25000000026833186 0.18781830631821675 0
0.25000000003519052 0.21020216474098838 0
0.25000000000363393 0.23407888694571966 0
0.2500000000002538 0.26055566897408305 0
0.25000000000000006 0.30678992794911375 0
0.27000035366368896 0.029238876408424475 0
0.27000043988409261 0.032680786655201861 0
0.27000051402498987 0.035481993428449883 0
0.27000061107768125 0.038260708563945207 0
0.27000084290604215 0.041023524528634954 0
0.27000095346013037 0.043791917175154585 0
0.27000105493412102 0.046600133051351536 0
0.27000117728347839 0.049490208762593794 0
0.27000133237394031 0.05251251248169031 0
0.27000145252466873 0.055729169723857733 0
0.27000156958703142 0.059221349300691131 0
0.2700015615395065 0.063099760032779575 0
0.27000184263570592 0.067532648268824838 0
0.27000166142729221 0.0728163780573335 0
0.27000133550107069 0.07960615917151985 0
0.27000083281706688 0.089775798601259255 0
0.27000037103082714 0.10573997393756017 0
0.27000011081037323 0.12522538936614608 0
0.27000002278989593 0.14558157105432004 0
0.27000000382330519 0.16637718262533252 0
0.27000000054638418 0.18778414928542353 0
0.27000000006525277 0.21015295806227755 0
0.27000000000626367 0.23401608554000872 0
0.2700000000004133 0.26048399890517338 0
0.27000000000000002 0.30691741758365215 0
0.29000090055504441 0.029215416435996004 0
0.29000112410831408 0.03265420891555882 0
0.2900013036688841 0.035452328592811645 0
0.29000148429404471 0.038227270747735347 0
0.29000166989109583 0.040985490479941739 0
0.29000190412787941 0.043748617673287235 0
0.29000210708793961 0.046550698423749357 0
0.29000234599674984 0.049433633379981551 0
0.29000264236270795 0.05244752274700603 0
0.29000300175327226 0.055654292417784676 0
0.29000343024311603 0.059134897552466488 0
0.2900038792822805 0.063000043728907426 0
0.29000436335661062 0.067418253179177046 0
0.29000429249105175 0.07268771490878588 0
0.29000351973848565 0.079470507080932951 0
0.29000232125274827 0.089670973863751446 0
0.29000106703750866 0.10570197004918667 0
0.29000029737976274 0.12521067869008334 0
0.29000005270617224 0.14556095923670678 0
0.29000000737460496 0.16634109212669118 0
0.29000000093120343 0.1877250043582108 0
0.29000000010188626 0.21006461671725565 0
0.29000000000916398 0.23390059535600419 0
0.29000000000057496 0.26035207218583994 0
0.29000000000000004 0.30717150586208364 0
0.31000245031699752 0.029240374830793767 0
0.31000295513139842 0.032669592143678948 0
0.31000332666257008 0.035457592858963362 0
0.31000368441143944 0.038217571034733298 0
0.31000403498602602 0.040956795137628482 0
0.310004408244692 0.04369740334331048 0
0.31000479586619367 0.046473312578255148 0
0.31000516565506536 0.049326138813324698 0
0.31000565839202687 0.052305449076817785 0
0.31000636652640284 0.055472566408684344 0
0.31000791177846437 0.058908005641894412 0
0.3100103204658512 0.062722873823113381 0
0.31001153922341507 0.06708745875813063 0
0.31001076105097541 0.072305647976850046 0
0.31000882284759457 0.079063646163909068 0
0.310006033552923 0.089368686239410772 0
0.31000284715974008 0.10561205350371085 0
0.3100006975796889 0.12518834836904927 0
0.31000009053028243 0.14553250570727397 0
0.31000001099796465 0.16628727898122087 0
0.31000000125226768 0.18763196591346265 0
0.31000000012803858 0.20991656302570527 0
0.31000000001096817 0.2336980490009872 0
0.31000000000066003 0.26012812749690856 0
0.31000000000000005 0.30762836696813156 0
0.33000463808367392 0.030534695374177263 0
0.33000548963111292 0.0336293846461371 0
0.33000616146906875 0.036108548770267375 0
0.33000677512571108 0.038622017479332874 0
0.33000728911980998 0.041157804836530407 0
0.33000773754381152 0.043723288516772658 0
0.33000816915434394 0.046341579838378159 0
0.33000865453370182 0.049046391768468714 0
0.33000922607473709 0.051881148650410554 0
0.33001012872841673 0.054902641550206729 0
0.33001186009022915 0.058187542756819206 0
0.33001417325991561 0.061843945526580894 0
0.33001490709675918 0.06604012613518126 0
0.3300132953162091 0.07109009826278484 0
0.33001049509035718 0.077790415370665347 0
0.33000680842498814 0.088559290380382946 0
0.33000299481326878 0.10543017413614809 0
0.33000072484715248 0.12515184806026719 0
0.33000009246883344 0.14549380157230068 0
0.33000001077168739 0.16621948304730907 0
0.33000000117666789 0.18751223725426966 0
0.33000000011649139 0.20971656321241602 0
0.33000000000971474 0.23340534214375269 0
0.33000000000056501 0.2597988814917862 0
0.33000000000000002 0.30850511592540097 0
0 0 0
0 0.020000000000000004 0
0 0.040000000000000001 0
0 0.54999999999999993 0
0 0.56000000000000005 0
0 0.58000000000000007 0
0.02 0 0
0.02 0.020000000000000004 0
0.02 0.040000000000000001 0
0.02 0.54999999999999993 0
0.02 0.56000000000000005 0
0.02 0.58000000000000007 0
0.040000000000000001 0 0
0.040000000000000001 0.020000000000000004 0
0.040000000000000001 0.040000000000000001 0
0.040000000000000001 0.54999999999999993 0
0.040000000000000001 0.56000000000000005 0
0.040000000000000001 0.58000000000000007 0
0.059999999999999998 0 0
0.059999999999999998 0.020000000000000004 0
0.059999999999999998 0.040000000000000001 0
0.059999999999999998 0.54999999999999993 0
0.059999999999999998 0.56000000000000005 0
0.059999999999999998 0.58000000000000007 0
0.080000000000000002 0 0
0.080000000000000002 0.020000000000000004 0
0.080000000000000002 0.040000000000000001 0
0.080000000000000002 0.54999999999999993 0
0.080000000000000002 0.56000000000000005 0
0.080000000000000002 0.58000000000000007 0
0.10000000000000001 0 0
0.10000000000000001 0.020000000000000004 0
0.10000000000000001 0.040000000000000001 0
0.10000000000000001 0.54999999999999993 0
0.10000000000000001 0.56000000000000005 0
0.10000000000000001 0.58000000000000007 0
0.12 0 0
0.12 0.020000000000000004 0
0.12 0.040000000000000001 0
0.12 0.54999999999999993 0
0.12 0.56000000000000005 0
0.12 0.58000000000000007 0
0.14000000000000001 0 0
0.14000000000000001 0.020000000000000004 0
0.14000000000000001 0.040000000000000001 0
0.14000000000000001 0.54999999999999993 0
0.14000000000000001 0.56000000000000005 0
0.14000000000000001 0.58000000000000007 0
0.16 0 0
0.16 0.020000000000000004 0
0.16 0.040000000000000001 0
0.16 0.54999999999999993 0
0.16 0.56000000000000005 0
0.16 0.58000000000000007 0
0.17999999999999999 0 0
0.17999999999999999 0.020000000000000004 0
0.17999999999999999 0.040000000000000001 0
0.17999999999999999 0.54999999999999993 0
0.17999999999999999 0.56000000000000005 0
0.17999999999999999 0.58000000000000007 0
0.20000000000000001 0 0
0.20000000000000001 0.020000000000000004 0
0.20000000000000001 0.040000000000000001 0
0.20000000000000001 0.54999999999999993 0
0.20000000000000001 0.56000000000000005 0
0.20000000000000001 0.58000000000000007 0
0.22 0 0
0.22 0.020000000000000004 0
0.22 0.040000000000000001 0
0.22 0.54999999999999993 0
0.22 0.56000000000000005 0
0.22 0.58000000000000007 0
0.23999999999999999 0 0
0.23999999999999999 0.020000000000000004 0
0.23999999999999999 0.040000000000000001 0
0.23999999999999999 0.54999999999999993 0
0.23999999999999999 0.56000000000000005 0
0.23999999999999999 0.58000000000000007 0
0.26000000000000001 0 0
0.26000000000000001 0.020000000000000004 0
0.26000000000000001 0.040000000000000001 0
0.26000000000000001 0.54999999999999993 0
0.26000000000000001 0.56000000000000005 0
0.26000000000000001 0.58000000000000007 0
0.28000000000000003 0 0
0.28000000000000003 0.020000000000000004 0
0.28000000000000003 0.040000000000000001 0
0.28000000000000003 0.54999999999999993 0
0.28000000000000003 0.56000000000000005 0
0.28000000000000003 0.58000000000000007 0
0.29999999999999999 0 0
0.29999999999999999 0.020000000000000004 0
0.29999999999999999 0.040000000000000001 0
0.29999999999999999 0.54999999999999993 0
0.29999999999999999 0.56000000000000005 0
0.29999999999999999 0.58000000000000007 0
0.32000000000000001 0 0
0.32000000000000001 0.020000000000000004 0
0.32000000000000001 0.040000000000000001 0
0.32000000000000001 0.54999999999999993 0
0.32000000000000001 0.56000000000000005 0
0.32000000000000001 0.58000000000000007 0
0.34000000000000002 0 0
0.34000000000000002 0.020000000000000004 0
0.34000000000000002 0.040000000000000001 0
0.34000000000000002 0.54999999999999993 0
0.34000000000000002 0.56000000000000005 0
0.34000000000000002 0.58000000000000007 0
0.35999999999999999 0 0
0.35999999999999999 0.020000000000000004 0
0.35999999999999999 0.040000000000000001 0
0.35999999999999999 0.54999999999999993 0
0.35999999999999999 0.56000000000000005 0
0.35999999999999999 0.58000000000000007 0
0.38 0 0
0.38 0.020000000000000004 0
0.38 0.040000000000000001 0
0.38 0.54999999999999993 0
0.38 0.56000000000000005 0
0.38 0.58000000000000007 0
0.40000000000000002 0 0
0.40000000000000002 0.020000000000000004 0
0.40000000000000002 0.040000000000000001 0
0.40000000000000002 0.54999999999999993 0
0.40000000000000002 0.56000000000000005 0
0.40000000000000002 0.58000000000000007 0
0.41999999999999998 0 0
0.41999999999999998 0.020000000000000004 0
0.41999999999999998 0.040000000000000001 0
0.41999999999999998 0.54999999999999993 0
0.41999999999999998 0.56000000000000005 0
0.41999999999999998 0.58000000000000007 0
0.44 0 0
0.44 0.020000000000000004 0
0.44 0.040000000000000001 0
0.44 0.54999999999999993 0
0.44 0.56000000000000005 0
0.44 0.58000000000000007 0
0.46000000000000002 0 0
0.46000000000000002 0.020000000000000004 0
0.46000000000000002 0.040000000000000001 0
0.46000000000000002 0.54999999999999993 0
0.46000000000000002 0.56000000000000005 0
0.46000000000000002 0.58000000000000007 0
0.47999999999999998 0 0
0.47999999999999998 0.020000000000000004 0
0.47999999999999998 0.040000000000000001 0
0.47999999999999998 0.54999999999999993 0
0.47999999999999998 0.56000000000000005 0
0.47999999999999998 0.58000000000000007 0
0.5 0 0
0.5 0.020000000000000004 0
0.5 0.040000000000000001 0
0.5 0.54999999999999993 0
0.5 0.56000000000000005 0
0.5 0.58000000000000007 0
0.52000000000000002 0 0
0.52000000000000002 0.020000000000000004 0
0.52000000000000002 0.040000000000000001 0
0.52000000000000002 0.54999999999999993 0
0.52000000000000002 0.56000000000000005 0
0.52000000000000002 0.58000000000000007 0
0.54000000000000004 0 0
0.54000000000000004 0.020000000000000004 0
0.54000000000000004 0.040000000000000001 0
0.54000000000000004 0.54999999999999993 0
0.54000000000000004 0.56000000000000005 0
0.54000000000000004 0.58000000000000007 0
0.56000000000000005 0 0
0.56000000000000005 0.020000000000000004 0
0.56000000000000005 0.040000000000000001 0
0.56000000000000005 0.54999999999999993 0
0.56000000000000005 0.56000000000000005 0
0.56000000000000005 0.58000000000000007 0
0.57999999999999996 0 0
0.57999999999999996 0.020000000000000004 0
0.57999999999999996 0.040000000000000001 0
0.57999999999999996 0.54999999999999993 0
0.57999999999999996 0.56000000000000005 0
0.57999999999999996 0.58000000000000007 0
0.59999999999999998 0 0
0.59999999999999998 0.020000000000000004 0
0.59999999999999998 0.040000000000000001 0
0.59999999999999998 0.54999999999999993 0
0.59999999999999998 0.56000000000000005 0
0.59999999999999998 0.58000000000000007 0
0.62 0 0
0.62 0.020000000000000004 0
0.62 0.040000000000000001 0
0.62 0.54999999999999993 0
0.62 0.56000000000000005 0
0.62 0.58000000000000007 0
0.64000000000000001 0 0
0.64000000000000001 0.020000000000000004 0
0.64000000000000001 0.040000000000000001 0
0.64000000000000001 0.54999999999999993 0
0.64000000000000001 0.56000000000000005 0
0.64000000000000001 0.58000000000000007 0
0.66000000000000003 0 0
0.66000000000000003 0.020000000000000004 0
0.66000000000000003 0.040000000000000001 0
0.66000000000000003 0.54999999999999993 0
0.66000000000000003 0.56000000000000005 0
0.66000000000000003 0.58000000000000007 0
0.68000000000000005 0 0
0.68000000000000005 0.020000000000000004 0
0.68000000000000005 0.040000000000000001 0
0.68000000000000005 0.54999999999999993 0
0.68000000000000005 0.56000000000000005 0
0.68000000000000005 0.58000000000000007 0
0.70000000000000007 0 0
0.70000000000000007 0.020000000000000004 0
0.70000000000000007 0.040000000000000001 0
0.70000000000000007 0.54999999999999993 0
0.70000000000000007 0.56000000000000005 0
0.70000000000000007 0.58000000000000007 0
0.71999999999999997 0 0
0.71999999999999997 0.020000000000000004 0
0.71999999999999997 0.040000000000000001 0
0.71999999999999997 0.54999999999999993 0
0.71999999999999997 0.56000000000000005 0
0.71999999999999997 0.58000000000000007 0
0.73999999999999999 0 0
0.73999999999999999 0.020000000000000004 0
0.73999999999999999 0.040000000000000001 0
0.73999999999999999 0.54999999999999993 0
0.73999999999999999 0.56000000000000005 0
0.73999999999999999 0.58000000000000007 0
0.76000000000000001 0 0
0.76000000000000001 0.020000000000000004 0
0.76000000000000001 0.040000000000000001 0
0.76000000000000001 0.54999999999999993 0
0.76000000000000001 0.56000000000000005 0
0.76000000000000001 0.58000000000000007 0
0.78000000000000003 0 0
0.78000000000000003 0.020000000000000004 0
0.78000000000000003 0.040000000000000001 0
0.78000000000000003 0.54999999999999993 0
0.78000000000000003 0.56000000000000005 0
0.78000000000000003 0.58000000000000007 0
0.80000000000000004 0 0
0.80000000000000004 0.020000000000000004 0
0.80000000000000004 0.040000000000000001 0
0.80000000000000004 0.54999999999999993 0
0.80000000000000004 0.56000000000000005 0
0.80000000000000004 0.58000000000000007 0
0.82000000000000006 0 0
0.82000000000000006 0.020000000000000004 0
0.82000000000000006 0.040000000000000001 0
0.82000000000000006 0.54999999999999993 0
0.82000000000000006 0.56000000000000005 0
0.82000000000000006 0.58000000000000007 0
0.83999999999999997 0 0
0.83999999999999997 0.020000000000000004 0
0.83999999999999997 0.040000000000000001 0
0.83999999999999997 0.54999999999999993 0
0.83999999999999997 0.56000000000000005 0
0.83999999999999997 0.58000000000000007 0
0.85999999999999999 0 0
0.85999999999999999 0.020000000000000004 0
0.85999999999999999 0.040000000000000001 0
0.85999999999999999 0.54999999999999993 0
0.85999999999999999 0.56000000000000005 0
0.85999999999999999 0.58000000000000007 0
0.88 0 0
0.88 0.020000000000000004 0
0.88 0.040000000000000001 0
0.88 0.54999999999999993 0
0.88 0.56000000000000005 0
0.88 0.58000000000000007 0
0.90000000000000002 0 0
0.90000000000000002 0.020000000000000004 0
0.90000000000000002 0.040000000000000001 0
0.90000000000000002 0.54999999999999993 0
0.90000000000000002 0.56000000000000005 0
0.90000000000000002 0.58000000000000007 0
0.92000000000000004 0 0
0.92000000000000004 0.020000000000000004 0
0.92000000000000004 0.040000000000000001 0
0.92000000000000004 0.54999999999999993 0
0.92000000000000004 0.56000000000000005 0
0.92000000000000004 0.58000000000000007 0
0.94000000000000006 0 0
0.94000000000000006 0.020000000000000004 0
0.94000000000000006 0.040000000000000001 0
0.94000000000000006 0.54999999999999993 0
0.94000000000000006 0.56000000000000005 0
0.94000000000000006 0.58000000000000007 0
0.95999999999999996 0 0
0.95999999999999996 0.020000000000000004 0
0.95999999999999996 0.040000000000000001 0
0.95999999999999996 0.54999999999999993 0
0.95999999999999996 0.56000000000000005 0
0.95999999999999996 0.58000000000000007 0
0.97999999999999998 0 0
0.97999999999999998 0.020000000000000004 0
0.97999999999999998 0.040000000000000001 0
0.97999999999999998 0.54999999999999993 0
0.97999999999999998 0.56000000000000005 0
0.97999999999999998 0.58000000000000007 0
1 0 0
1 0.020000000000000004 0
1 0.040000000000000001 0
1 0.54999999999999993 0
1 0.56000000000000005 0
1 0.58000000000000007 0
VERTICES 681 1362
1 0
1 1
1 2
1 3
1 4
1 5
1 6
1 7
1 8
1 9
1 10
1 11
1 12
1 13
1 14
1 15
1 16
1 17
1 18
1 19
1 20
1 21
1 22
1 23
1 24
1 25
1 26
1 27
1 28
1 29
1 30
1 31
1 32
1 33
1 34
1 35
1 36
1 37
1 38
1 39
1 40
1 41
1 42
1 43
1 44
1 45
1 46
1 47
1 48
1 49
1 50
1 51
1 52
1 53
1 54
1 55
1 56
1 57
1 58
1 59
1 60
1 61
1 62
1 63
1 64
1 65
1 66
1 67
1 68
1 69
1 70
1 71
1 72
1 73
1 74
1 75
1 76
1 77
1 78
1 79
1 80
1 81
1 82
1 83
1 84
1 85
1 86
1 87
1 88
1 89
1 90
1 91
1 92
1 93
1 94
1 95
1 96
1 97
1 98
1 99
1 100
1 101
1 102
1 103
1 104
1 105
1 106
1 107
1 108
1 109
1 110
1 111
1 112
1 113
1 114
1 115
1 116
1 117
1 118
1 119
1 120
1 121
1 122
1 123
1 124
1 125
1 126
1 127
1 128
1 129
1 130
1 131
1 132
1 133
1 134
1 135
1 136
1 137
1 138
1 139
1 140
1 141
1 142
1 143
1 144
1 145
1 146
1 147
1 148
1 149
1 150
1 151
1 152
1 153
1 154
1 155
1 156
1 157
1 158
1 159
1 160
1 161
1 162
1 163
1 164
1 165
1 166
1 167
1 168
1 169
1 170
1 171
1 172
1 173
1 174
1 175
1 176
1 177
1 178
1 179
1 180
1 181
1 182
1 183
1 184
1 185
1 186
1 187
1 188
1 189
1 190
1 191
1 192
1 193
1 194
1 195
1 196
1 197
1 198
1 199
1 200
1 201
1 202
1 203
1 204
1 205
1 206
1 207
1 208
1 209
1 210
1 211
1 212
1 213
1 214
1 215
1 216
1 217
1 218
1 219
1 220
1 221
1 222
1 223
1 224
1 225
1 226
1 227
1 228
1 229
1 230
1 231
1 232
1 233
1 234
1 235
1 236
1 237
1 238
1 239
1 240
1 241
1 242
1 243
1 244
1 245
1 246
1 247
1 248
1 249
1 250
1 251
1 252
1 253
1 254
1 255
1 256
1 257
1 258
1 259
1 260
1 261
1 262
1 263
1 264
1 265
1 266
1 267
1 268
1 269
1 270
1 271
1 272
1 273
1 274
1 275
1 276
1 277
1 278
1 279
1 280
1 281
1 282
1 283
1 284
1 285
1 286
1 287
1 288
1 289
1 290
1 291
1 292
1 293
1 294
1 295
1 296
1 297
1 298
1 299
1 300
1 301
1 302
1 303
1 304
1 305
1 306
1 307
1 308
1 309
1 310
1 311
1 312
1 313
1 314
1 315
1 316
1 317
1 318
1 319
1 320
1 321
1 322
1 323
1 324
1 325
1 326
1 327
1 328
1 329
1 330
1 331
1 332
1 333
1 334
1 335
1 336
1 337
1 338
1 339
1 340
1 341
1 342
1 343
1 344
1 345
1 346
1 347
1 348
1 349
1 350
1 351
1 352
1 353
1 354
1 355
1 356
1 357
1 358
1 359
1 360
1 361
1 362
1 363
1 364
1 365
1 366
1 367
1 368
1 369
1 370
1 371
1 372
1 373
1 374
1 375
1 376
1 377
1 378
1 379
1 380
1 381
1 382
1 383
1 384
1 385
1 386
1 387
1 388
1 389
1 390
1 391
1 392
1 393
1 394
1 395
1 396
1 397
1 398
1 399
1 400
1 401
1 402
1 403
1 404
1 405
1 406
1 407
1 408
1 409
1 410
1 411
1 412
1 413
1 414
1 415
1 416
1 417
1 418
1 419
1 420
1 421
1 422
1 423
1 424
1 425
1 426
1 427
1 428
1 429
1 430
1 431
1 432
1 433
1 434
1 435
1 436
1 437
1 438
1 439
1 440
1 441
1 442
1 443
1 444
1 445
1 446
1 447
1 448
1 449
1 450
1 451
1 452
1 453
1 454
1 455
1 456
1 457
1 458
1 459
1 460
1 461
1 462
1 463
1 464
1 465
1 466
1 467
1 468
1 469
1 470
1 471
1 472
1 473
1 474
1 475
1 476
1 477
1 478
1 479
1 480
1 481
1 482
1 483
1 484
1 485
1 486
1 487
1 488
1 489
1 490
1 491
1 492
1 493
1 494
1 495
1 496
1 497
1 498
1 499
1 500
1 501
1 502
1 503
1 504
1 505
1 506
1 507
1 508
1 509
1 510
1 511
1 512
1 513
1 514
1 515
1 516
1 517
1 518
1 519
1 520
1 521
1 522
1 523
1 524
1 525
1 526
1 527
1 528
1 529
1 530
1 531
1 532
1 533
1 534
1 535
1 536
1 537
1 538
1 539
1 540
1 541
1 542
1 543
1 544
1 545
1 546
1 547
1 548
1 549
1 550
1 551
1 552
1 553
1 554
1 555
1 556
1 557
1 558
1 559
1 560
1 561
1 562
1 563
1 564
1 565
1 566
1 567
1 568
1 569
1 570
1 571
1 572
1 573
1 574
1 575
1 576
1 577
1 578
1 579
1 580
1 581
1 582
1 583
1 584
1 585
1 586
1 587
1 588
1 589
1 590
1 591
1 592
1 593
1 594
1 595
1 596
1 597
1 598
1 599
1 600
1 601
1 602
1 603
1 604
1 605
1 606
1 607
1 608
1 609
1 610
1 611
1 612
1 613
1 614
1 615
1 616
1 617
1 618
1 619
1 620
1 621
1 622
1 623
1 624
1 625
1 626
1 627
1 628
1 629
1 630
1 631
1 632
1 633
1 634
1 635
1 636
1 637
1 638
1 639
1 640
1 641
1 642
1 643
1 644
1 645
1 646
1 647
1 648
1 649
1 650
1 651
1 652
1 653
1 654
1 655
1 656
1 657
1 658
1 659
1 660
1 661
1 662
1 663
1 664
1 665
1 666
1 667
1 668
1 669
1 670
1 671
1 672
1 673
1 674
1 675
1 676
1 677
1 678
1 679
1 680
POINT_DATA 681
SCALARS is_boundary int 1
LOOKUP_TABLE default
0
0
0
0
0
0
0
0
0
0
0
0
0
0
0
0
0
0
0
0
0
0
0
0
0
0
0
0
0
0
0
0
0
0
0
0
0
0
0
0
0
0
0
0
0
0
0
0
0
0
0
0
0
0
0
0
0
0
0
0
0
0
0
0
0
0
0
0
0
0
0
0
0
0
0
0
0
0
0
0
0
0
0
0
0
0
0
0
0
0
0
0
0
0
0
0
0
0
0
0
0
0
0
0
0
0
0
0
0
0
0
0
0
0
0
0
0
0
0
0
0
0
0
0
0
0
0
0
0
0
0
0
0
0
0
0
0
0
0
0
0
0
0
0
0
0
0
0
0
0
0
0
0
0
0
0
0
0
0
0
0
0
0
0
0
0
0
0
0
0
0
0
0
0
0
0
0
0
0
0
0
0
0
0
0
0
0
0
0
0
0
0
0
0
0
0
0
0
0
0
0
0
0
0
0
0
0
0
0
0
0
0
0
0
0
0
0
0
0
0
0
0
0
0
0
0
0
0
0
0
0
0
0
0
0
0
0
0
0
0
0
0
0
0
0
0
0
0
0
0
0
0
0
0
0
0
0
0
0
0
0
0
0
0
0
0
0
0
0
0
0
0
0
0
0
0
0
0
0
0
0
0
0
0
0
0
0
0
0
0
0
0
0
0
0
0
0
0
0
0
0
0
0
0
0
0
0
0
0
0
0
0
0
0
0
0
0
0
0
0
0
0
0
0
0
0
0
0
0
0
0
0
0
0
0
0
0
0
0
0
0
0
0
0
0
0
0
0
0
0
0
0
0
0
0
0
0
0
0
0
0
0
0
0
0
0
0
0
0
0
0
0
0
0
0
1
1
1
1
1
1
1
1
1
1
1
1
1
1
1
1
1
1
1
1
1
1
1
1
1
1
1
1
1
1
1
1
1
1
1
1
1
1
1
1
1
1
1
1
1
1
1
1
1
1
1
1
1
1
1
1
1
1
1
1
1
1
1
1
1
1
1
1
1
1
1
1
1
1
1
1
1
1
1
1
1
1
1
1
1
1
1
1
1
1
1
1
1
1
1
1
1
1
1
1
1
1
1
1
1
1
1
1
1
1
1
1
1
1
1
1
1
1
1
1
1
1
1
1
1
1
1
1
1
1
1
1
1
1
1
1
1
1
1
1
1
1
1
1
1
1
1
1
1
1
1
1
1
1
1
1
1
1
1
1
1
1
1
1
1
1
1
1
1
1
1
1
1
1
1
1
1
1
1
1
1
1
1
1
1
1
1
1
1
1
1
1
1
1
1
1
1
1
1
1
1
1
1
1
1
1
1
1
1
1
1
1
1
1
1
1
1
1
1
1
1
1
1
1
1
1
1
1
1
1
1
1
1
1
1
1
1
1
1
1
1
1
1
1
1
1
1
1
1
1
1
1
1
1
1
1
1
1
1
1
1
1
1
1
1
1
1
1
1
1
1
1
1
1
1
1
1
1
1
1
1
1
1
1
1
1
1
1
1
1
1
1
1
1
1
1
1
1
1
1
1
1
1
1
1
1
SCALARS rho float 1
LOOKUP_TABLE default
1020
1020
1020
1020
1020
1020
1020
1020
1020
1020
1020
1020
1020
1020
1020
1020
941.89918144992635
862
862
850
850
850
850
850
850
1020
1020
1020
1020
1020
1020
1020
1020
1020
1020
1020
1020
1020
1020
1020
1020
1020
880
880
880
880
873.3336305735462
862
850
850
1020
1020
1020
1020
1020
1020
1020
1020
1020
1020
1020
1020
1020
1020
1020
1020
1020
1009.5829736129201
880
880
880
872.65657000716033
862
850
850
1020
1020
1020
1020
1020
1020
1020
1020
1020
1020
1020
1020
1020
1020
1020
1020
1020
1010.4508393440162
880
880
880
871.96800131320015
862
850
850
1020
1020
1020
1020
1020
1020
1020
1020
1020
1020
1020
1020
1020
1020
1020
1020
1020
1010.666789808203
880
880
880
871.62047737505964
862
850
850
1020
1020
1020
1020
1020
1020
1020
1020
1020
1020
1020
1020
1020
1020
1020
1020
1020
1010.6919566714059
880
880
880
871.45368613340713
862
850
850
1020
1020
1020
1020
1020
1020
1020
1020
1020
1020
1020
1020
1020
1020
1020
1020
1020
1010.6809707257244
880
880
880
871.38210920752761
862
850
850
1020
1020
1020
1020
1020
1020
1020
1020
1020
1020
1020
1020
1020
1020
1020
1020
1020
1010.6747337509612
880
880
880
871.36258148255865
862
850
850
1020
1020
1020
1020
1020
1020
1020
1020
1020
1020
1020
1020
1020
1020
1020
1020
1020
1010.6805179855924
880
880
880
871.38210887714729
862
850
850
1020
1020
1020
1020
1020
1020
1020
1020
1020
1020
1020
1020
1020
1020
1020
1020
1020
1010.6911246415636
880
880
880
871.45368552399248
862
850
850
1020
1020
1020
1020
1020
1020
1020
1020
1020
1020
1020
1020
1020
1020
1020
1020
1020
1010.6659036327283
880
880
880
871.62047654860976
862
850
850
1020
1020
1020
1020
1020
1020
1020
1020
1020
1020
1020
1020
1020
1020
1020
1020
1020
1010.449774401957
880
880
880
871.96800034725084
862
850
850
1020
1020
1020
1020
1020
1020
1020
1020
1020
1020
1020
1020
1020
1020
1020
1020
1020
1009.5814321769515
880
880
880
872.6565689964707
862
850
850
1020
1020
1020
1020
1020
1020
1020
1020
1020
1020
1020
1020
1020
1020
1020
1020
1020
880
880
880
880
873.33362961735224
862
850
850
1020
1020
1020
1020
1020
1020
1020
1020
1020
1020
1020
1020
1020
1020
1020
1020
941.89329795031745
862
862
850
850
850
850
850
850
1000
1000
1000
1000
1000
1000
1000
1000
1000
1000
1000
1000
1000
1000
1000
1000
1000
1000
1000
1000
1000
1000
1000
1000
1000
1000
1000
1000
1000
1000
1000
1000
1000
1000
1000
1000
1000
1000
1000
1000
1000
1000
1000
1000
1000
1000
1000
1000
1000
1000
1000
1000
1000
1000
1000
1000
1000
1000
1000
1000
1000
1000
1000
1000
1000
1000
1000
1000
1000
1000
1000
1000
1000
1000
1000
1000
1000
1000
1000
1000
1000
1000
1000
1000
1000
1000
1000
1000
1000
1000
1000
1000
1000
1000
1000
1000
1000
1000
1000
1000
1000
1000
1000
1000
1000
1000
1000
1000
1000
1000
1000
1000
1000
1000
1000
1000
1000
1000
1000
1000
1000
1000
1000
1000
1000
1000
1000
1000
1000
1000
1000
1000
1000
1000
1000
1000
1000
1000
1000
1000
1000
1000
1000
1000
1000
1000
1000
1000
1000
1000
1000
1000
1000
1000
1000
1000
1000
1000
1000
1000
1000
1000
1000
1000
1000
1000
1000
1000
1000
1000
1000
1000
1000
1000
1000
1000
1000
1000
1000
1000
1000
1000
1000
1000
1000
1000
1000
1000
1000
1000
1000
1000
1000
1000
1000
1000
1000
1000
1000
1000
1000
1000
1000
1000
1000
1000
1000
1000
1000
1000
1000
1000
1000
1000
1000
1000
1000
1000
1000
1000
1000
1000
1000
1000
1000
1000
1000
1000
1000
1000
1000
1000
1000
1000
1000
1000
1000
1000
1000
1000
1000
1000
1000
1000
1000
1000
1000
1000
1000
1000
1000
1000
1000
1000
1000
1000
1000
1000
1000
1000
1000
1000
1000
1000
1000
1000
1000
1000
1000
1000
1000
1000
1000
1000
1000
1000
1000
1000
1000
1000
1000
1000
1000
1000
1000
1000
1000
1000
1000
1000
1000
1000
1000
1000
1000
1000
1000
1000
1000
1000
1000
1000
1000
1000
1000
1000
SCALARS p float 1
LOOKUP_TABLE default
25004.681136676067
25004.681136676067
25004.681136676067
25004.681136676067
25004.681136676067
25004.681136676067
25004.681136676067
25004.681136676067
25004.681136676067
25004.681136676067
25004.681136676067
25004.681136676067
25004.681136676067
25004.681136676067
25004.681136676067
25004.681136676067
0
0
0
0
0
0
0
0
0
25004.681136676067
25004.681136676067
25004.681136676067
25004.681136676067
25004.681136676067
25004.681136676067
25004.681136676067
25004.681136676067
25004.681136676067
25004.681136676067
25004.681136676067
25004.681136676067
25004.681136676067
25004.681136676067
25004.681136676067
25004.681136676067
25004.681136676067
0
0
0
0
0
0
0
0
25004.681136676067
25004.681136676067
25004.681136676067
25004.681136676067
25004.681136676067
25004.681136676067
25004.681136676067
25004.681136676067
25004.681136676067
25004.681136676067
25004.681136676067
25004.681136676067
25004.681136676067
25004.681136676067
25004.681136676067
25004.681136676067
25004.681136676067
11610.625135740762
0
0
0
0
0
0
0
25004.681136676067
25004.681136676067
25004.681136676067
25004.681136676067
25004.681136676067
25004.681136676067
25004.681136676067
25004.681136676067
25004.681136676067
25004.681136676067
25004.681136676067
25004.681136676067
25004.681136676067
25004.681136676067
25004.681136676067
25004.681136676067
25004.681136676067
12695.238758075044
0
0
0
0
0
0
0
25004.681136676067
25004.681136676067
25004.681136676067
25004.681136676067
25004.681136676067
25004.681136676067
25004.681136676067
25004.681136676067
25004.681136676067
25004.681136676067
25004.681136676067
25004.681136676067
25004.681136676067
25004.681136676067
25004.681136676067
25004.681136676067
25004.681136676067
12965.99220072107
0
0
0
0
0
0
0
25004.681136676067
25004.681136676067
25004.681136676067
25004.681136676067
25004.681136676067
25004.681136676067
25004.681136676067
25004.681136676067
25004.681136676067
25004.681136676067
25004.681136676067
25004.681136676067
25004.681136676067
25004.681136676067
25004.681136676067
25004.681136676067
25004.681136676067
12997.568392884601
0
0
0
0
0
0
0
25004.681136676067
25004.681136676067
25004.681136676067
25004.681136676067
25004.681136676067
25004.681136676067
25004.681136676067
25004.681136676067
25004.681136676067
25004.681136676067
25004.681136676067
25004.681136676067
25004.681136676067
25004.681136676067
25004.681136676067
25004.681136676067
25004.681136676067
12983.784039582992
0
0
0
0
0
0
0
25004.681136676067
25004.681136676067
25004.681136676067
25004.681136676067
25004.681136676067
25004.681136676067
25004.681136676067
25004.681136676067
25004.681136676067
25004.681136676067
25004.681136676067
25004.681136676067
25004.681136676067
25004.681136676067
25004.681136676067
25004.681136676067
25004.681136676067
12975.958744327463
0
0
0
0
0
0
0
25004.681136676067
25004.681136676067
25004.681136676067
25004.681136676067
25004.681136676067
25004.681136676067
25004.681136676067
25004.681136676067
25004.681136676067
25004.681136676067
25004.681136676067
25004.681136676067
25004.681136676067
25004.681136676067
25004.681136676067
25004.681136676067
25004.681136676067
12983.215993989032
0
0
0
0
0
0
0
25004.681136676067
25004.681136676067
25004.681136676067
25004.681136676067
25004.681136676067
25004.681136676067
25004.681136676067
25004.681136676067
25004.681136676067
25004.681136676067
25004.681136676067
25004.681136676067
25004.681136676067
25004.681136676067
25004.681136676067
25004.681136676067
25004.681136676067
12996.524391821044
0
0
0
0
0
0
0
25004.681136676067
25004.681136676067
25004.681136676067
25004.681136676067
25004.681136676067
25004.681136676067
25004.681136676067
25004.681136676067
25004.681136676067
25004.681136676067
25004.681136676067
25004.681136676067
25004.681136676067
25004.681136676067
25004.681136676067
25004.681136676067
25004.681136676067
12964.880425965401
0
0
0
0
0
0
0
25004.681136676067
25004.681136676067
25004.681136676067
25004.681136676067
25004.681136676067
25004.681136676067
25004.681136676067
25004.681136676067
25004.681136676067
25004.681136676067
25004.681136676067
25004.681136676067
25004.681136676067
25004.681136676067
25004.681136676067
25004.681136676067
25004.681136676067
12693.90441964654
0
0
0
0
0
0
0
25004.681136676067
25004.681136676067
25004.681136676067
25004.681136676067
25004.681136676067
25004.681136676067
25004.681136676067
25004.681136676067
25004.681136676067
25004.681136676067
25004.681136676067
25004.681136676067
25004.681136676067
25004.681136676067
25004.681136676067
25004.681136676067
25004.681136676067
11608.703700025135
0
0
0
0
0
0
0
25004.681136676067
25004.681136676067
25004.681136676067
25004.681136676067
25004.681136676067
25004.681136676067
25004.681136676067
25004.681136676067
25004.681136676067
25004.681136676067
25004.681136676067
25004.681136676067
25004.681136676067
25004.681136676067
25004.681136676067
25004.681136676067
25004.681136676067
0
0
0
0
0
0
0
0
25004.681136676067
25004.681136676067
25004.681136676067
25004.681136676067
25004.681136676067
25004.681136676067
25004.681136676067
25004.681136676067
25004.681136676067
25004.681136676067
25004.681136676067
25004.681136676067
25004.681136676067
25004.681136676067
25004.681136676067
25004.681136676067
0
0
0
0
0
0
0
0
0
0
0
0
0
0
0
10902.642201660698
24958.73044378305
24993.200882220975
0
0
0
24913.994018991187
25001.72391010094
25003.744310082246
0
0
0
24965.044102391454
25003.180712809721
25004.186608014865
0
0
0
24969.74986492232
25003.255110291528
25004.199540121608
0
0
0
24969.773607896968
25003.254748360228
25004.197179790153
0
0
0
24969.602740162074
25003.251303781748
25004.196431228578
0
0
0
24969.518691255351
25003.249532776004
25004.196136565035
0
0
0
24969.484644450888
25003.248800204641
25004.196019725987
0
0
0
24969.472654296085
25003.248546272374
25004.195980973589
0
0
0
24969.472207593808
25003.248534679948
25004.195977623116
0
0
0
24969.484170317988
25003.248792546376
25004.196018605031
0
0
0
24969.518237398581
25003.249530415495
25004.196138148429
0
0
0
24969.602576176581
25003.25130328253
25004.196434910529
0
0
0
24969.773053203167
25003.2547359936
25004.197180791616
0
0
0
24969.748831975201
25003.255091138559
25004.199539372126
0
0
0
24965.042687922349
25003.180703438262
25004.186614278726
0
0
0
24913.986227760164
25001.723817572667
25003.744297224872
0
0
0
10900.039322565146
24958.726383476627
24993.200039576634
0
0
0
0
0
0
0
0
0
0
0
0
0
0
0
0
0
0
0
0
0
0
0
0
0
0
0
0
0
0
0
0
0
0
0
0
0
0
0
0
0
0
0
0
0
0
0
0
0
0
0
0
0
0
0
0
0
0
0
0
0
0
0
0
0
0
0
0
0
0
0
0
0
0
0
0
0
0
0
0
0
0
0
0
0
0
0
0
0
0
0
0
0
0
0
0
0
0
0
0
0
0
0
0
0
0
0
0
0
0
0
0
0
0
0
0
0
0
0
0
0
0
0
0
0
0
0
0
0
0
0
0
0
0
0
0
0
0
0
0
0
0
0
0
0
0
0
0
0
0
0
0
0
0
0
0
0
0
0
0
0
0
0
0
0
0
0
0
0
0
0
0
0
0
0
0
0
0
0
0
0
0
0
0
0
0
0
0
0
0
0
0
0
0
0
SCALARS m float 1
LOOKUP_TABLE default
0.39942306611962441
0.39942306611962441
0.39942306611962441
0.39942306611962441
0.39942306611962441
0.39942306611962441
0.39942306611962441
0.39942306611962441
0.39942306611962441
0.39942306611962441
0.39942306611962441
0.39942306611962441
0.39942306611962441
0.39942306611962441
0.39942306611962441
0.39942306611962441
0.39942306611962441
0.39942306611962441
0.39942306611962441
0.39942306611962441
0.39942306611962441
0.39942306611962441
0.39942306611962441
0.39942306611962441
0.39942306611962441
0.39942306611962441
0.39942306611962441
0.39942306611962441
0.39942306611962441
0.39942306611962441
0.39942306611962441
0.39942306611962441
0.39942306611962441
0.39942306611962441
0.39942306611962441
0.39942306611962441
0.39942306611962441
0.39942306611962441
0.39942306611962441
0.39942306611962441
0.39942306611962441
0.39942306611962441
0.39942306611962441
0.39942306611962441
0.39942306611962441
0.39942306611962441
0.39942306611962441
0.39942306611962441
0.39942306611962441
0.39942306611962441
0.39942306611962441
0.39942306611962441
0.39942306611962441
0.39942306611962441
0.39942306611962441
0.39942306611962441
0.39942306611962441
0.39942306611962441
0.39942306611962441
0.39942306611962441
0.39942306611962441
0.39942306611962441
0.39942306611962441
0.39942306611962441
0.39942306611962441
0.39942306611962441
0.39942306611962441
0.39942306611962441
0.39942306611962441
0.39942306611962441
0.39942306611962441
0.39942306611962441
0.39942306611962441
0.39942306611962441
0.39942306611962441
0.39942306611962441
0.39942306611962441
0.39942306611962441
0.39942306611962441
0.39942306611962441
0.39942306611962441
0.39942306611962441
0.39942306611962441
0.39942306611962441
0.39942306611962441
0.39942306611962441
0.39942306611962441
0.39942306611962441
0.39942306611962441
0.39942306611962441
0.39942306611962441
0.39942306611962441
0.39942306611962441
0.39942306611962441
0.39942306611962441
0.39942306611962441
0.39942306611962441
0.39942306611962441
0.39942306611962441
0.39942306611962441
0.39942306611962441
0.39942306611962441
0.39942306611962441
0.39942306611962441
0.39942306611962441
0.39942306611962441
0.39942306611962441
0.39942306611962441
0.39942306611962441
0.39942306611962441
0.39942306611962441
0.39942306611962441
0.39942306611962441
0.39942306611962441
0.39942306611962441
0.39942306611962441
0.39942306611962441
0.39942306611962441
0.39942306611962441
0.39942306611962441
0.39942306611962441
0.39942306611962441
0.39942306611962441
0.39942306611962441
0.39942306611962441
0.39942306611962441
0.39942306611962441
0.39942306611962441
0.39942306611962441
0.39942306611962441
0.39942306611962441
0.39942306611962441
0.39942306611962441
0.39942306611962441
0.39942306611962441
0.39942306611962441
0.39942306611962441
0.39942306611962441
0.39942306611962441
0.39942306611962441
0.39942306611962441
0.39942306611962441
0.39942306611962441
0.39942306611962441
0.39942306611962441
0.39942306611962441
0.39942306611962441
0.39942306611962441
0.39942306611962441
0.39942306611962441
0.39942306611962441
0.39942306611962441
0.39942306611962441
0.39942306611962441
0.39942306611962441
0.39942306611962441
0.39942306611962441
0.39942306611962441
0.39942306611962441
0.39942306611962441
0.39942306611962441
0.39942306611962441
0.39942306611962441
0.39942306611962441
0.39942306611962441
0.39942306611962441
0.39942306611962441
0.39942306611962441
0.39942306611962441
0.39942306611962441
0.39942306611962441
0.39942306611962441
0.39942306611962441
0.39942306611962441
0.39942306611962441
0.39942306611962441
0.39942306611962441
0.39942306611962441
0.39942306611962441
0.39942306611962441
0.39942306611962441
0.39942306611962441
0.39942306611962441
0.39942306611962441
0.39942306611962441
0.39942306611962441
0.39942306611962441
0.39942306611962441
0.39942306611962441
0.39942306611962441
0.39942306611962441
0.39942306611962441
0.39942306611962441
0.39942306611962441
0.39942306611962441
0.39942306611962441
0.39942306611962441
0.39942306611962441
0.39942306611962441
0.39942306611962441
0.39942306611962441
0.39942306611962441
0.39942306611962441
0.39942306611962441
0.39942306611962441
0.39942306611962441
0.39942306611962441
0.39942306611962441
0.39942306611962441
0.39942306611962441
0.39942306611962441
0.39942306611962441
0.39942306611962441
0.39942306611962441
0.39942306611962441
0.39942306611962441
0.39942306611962441
0.39942306611962441
0.39942306611962441
0.39942306611962441
0.39942306611962441
0.39942306611962441
0.39942306611962441
0.39942306611962441
0.39942306611962441
0.39942306611962441
0.39942306611962441
0.39942306611962441
0.39942306611962441
0.39942306611962441
0.39942306611962441
0.39942306611962441
0.39942306611962441
0.39942306611962441
0.39942306611962441
0.39942306611962441
0.39942306611962441
0.39942306611962441
0.39942306611962441
0.39942306611962441
0.39942306611962441
0.39942306611962441
0.39942306611962441
0.39942306611962441
0.39942306611962441
0.39942306611962441
0.39942306611962441
0.39942306611962441
0.39942306611962441
0.39942306611962441
0.39942306611962441
0.39942306611962441
0.39942306611962441
0.39942306611962441
0.39942306611962441
0.39942306611962441
0.39942306611962441
0.39942306611962441
0.39942306611962441
0.39942306611962441
0.39942306611962441
0.39942306611962441
0.39942306611962441
0.39942306611962441
0.39942306611962441
0.39942306611962441
0.39942306611962441
0.39942306611962441
0.39942306611962441
0.39942306611962441
0.39942306611962441
0.39942306611962441
0.39942306611962441
0.39942306611962441
0.39942306611962441
0.39942306611962441
0.39942306611962441
0.39942306611962441
0.39942306611962441
0.39942306611962441
0.39942306611962441
0.39942306611962441
0.39942306611962441
0.39942306611962441
0.39942306611962441
0.39942306611962441
0.39942306611962441
0.39942306611962441
0.39942306611962441
0.39942306611962441
0.39942306611962441
0.39942306611962441
0.39942306611962441
0.39942306611962441
0.39942306611962441
0.39942306611962441
0.39942306611962441
0.39942306611962441
0.39942306611962441
0.39942306611962441
0.39942306611962441
0.39942306611962441
0.39942306611962441
0.39942306611962441
0.39942306611962441
0.39942306611962441
0.39942306611962441
0.39942306611962441
0.39942306611962441
0.39942306611962441
0.39942306611962441
0.39942306611962441
0.39942306611962441
0.39942306611962441
0.39942306611962441
0.39942306611962441
0.39942306611962441
0.39942306611962441
0.39942306611962441
0.39942306611962441
0.39942306611962441
0.39942306611962441
0.39942306611962441
0.39942306611962441
0.39942306611962441
0.39942306611962441
0.39942306611962441
0.39942306611962441
0.39942306611962441
0.39942306611962441
0.39942306611962441
0.39942306611962441
0.39942306611962441
0.39942306611962441
0.39942306611962441
0.39942306611962441
0.39942306611962441
0.39942306611962441
0.39942306611962441
0.39942306611962441
0.39942306611962441
0.39942306611962441
0.39942306611962441
0.39942306611962441
0.39942306611962441
0.39942306611962441
0.39942306611962441
0.39942306611962441
0.39942306611962441
0.39942306611962441
0.39942306611962441
0.39942306611962441
0.39942306611962441
0.39942306611962441
0.39942306611962441
0.39942306611962441
0.39942306611962441
0.39942306611962441
0.39942306611962441
0.39942306611962441
0.39942306611962441
0.39942306611962441
0.39942306611962441
0.39942306611962441
0.39942306611962441
0.39942306611962441
0.39942306611962441
0.39942306611962441
0.39942306611962441
0.39942306611962441
0.39942306611962441
0.39942306611962441
0.39942306611962441
0.39942306611962441
0.39942306611962441
0.39942306611962441
0.39942306611962441
0.39942306611962441
0.39942306611962441
0.39942306611962441
0.39942306611962441
0.39942306611962441
0.39942306611962441
0.39942306611962441
0.39942306611962441
0.39942306611962441
0.39942306611962441
0.39942306611962441
0.39942306611962441
0.39942306611962441
0.39942306611962441
0.39942306611962441
0.39942306611962441
0.39942306611962441
0.39942306611962441
0.39942306611962441
0.39942306611962441
0.39942306611962441
0.39942306611962441
0.39942306611962441
0.39942306611962441
0.39942306611962441
0.39942306611962441
0.39942306611962441
0.39942306611962441
0.39942306611962441
0.39942306611962441
0.39942306611962441
0.39942306611962441
0.39942306611962441
0.39942306611962441
0.39942306611962441
0.39942306611962441
0.39942306611962441
0.39942306611962441
0.39942306611962441
0.39942306611962441
0.39942306611962441
0.39942306611962441
0.39942306611962441
0.39942306611962441
0.39942306611962441
0.39942306611962441
0.39942306611962441
0.39942306611962441
0.39942306611962441
0.39942306611962441
0.39942306611962441
0.39942306611962441
0.39942306611962441
0.39942306611962441
0.39942306611962441
0.39942306611962441
0.39942306611962441
0.39942306611962441
0.39942306611962441
0.39942306611962441
0.39942306611962441
0.39942306611962441
0.39942306611962441
0.39942306611962441
0.39942306611962441
0.39942306611962441
0.39942306611962441
0.39942306611962441
0.39942306611962441
0.39942306611962441
0.39942306611962441
0.39942306611962441
0.39942306611962441
0.39942306611962441
0.39942306611962441
0.39942306611962441
0.39942306611962441
0.39942306611962441
0.39942306611962441
0.39942306611962441
0.39942306611962441
0.39942306611962441
0.39942306611962441
0.39942306611962441
0.39942306611962441
0.39942306611962441
0.39942306611962441
0.39942306611962441
0.39942306611962441
0.39942306611962441
0.39942306611962441
0.39942306611962441
0.39942306611962441
0.39942306611962441
0.39942306611962441
0.39942306611962441
0.39942306611962441
0.39942306611962441
0.39942306611962441
0.39942306611962441
0.39942306611962441
0.39942306611962441
0.39942306611962441
0.39942306611962441
0.39942306611962441
0.39942306611962441
0.39942306611962441
0.39942306611962441
0.39942306611962441
0.39942306611962441
0.39942306611962441
0.39942306611962441
0.39942306611962441
0.39942306611962441
0.39942306611962441
0.39942306611962441
0.39942306611962441
0.39942306611962441
0.39942306611962441
0.39942306611962441
0.39942306611962441
0.39942306611962441
0.39942306611962441
0.39942306611962441
0.39942306611962441
0.39942306611962441
0.39942306611962441
0.39942306611962441
0.39942306611962441
0.39942306611962441
0.39942306611962441
0.39942306611962441
0.39942306611962441
0.39942306611962441
0.39942306611962441
0.39942306611962441
0.39942306611962441
0.39942306611962441
0.39942306611962441
0.39942306611962441
0.39942306611962441
0.39942306611962441
0.39942306611962441
0.39942306611962441
0.39942306611962441
0.39942306611962441
0.39942306611962441
0.39942306611962441
0.39942306611962441
0.39942306611962441
0.39942306611962441
0.39942306611962441
0.39942306611962441
0.39942306611962441
0.39942306611962441
0.39942306611962441
0.39942306611962441
0.39942306611962441
0.39942306611962441
0.39942306611962441
0.39942306611962441
0.39942306611962441
0.39942306611962441
0.39942306611962441
0.39942306611962441
0.39942306611962441
0.39942306611962441
0.39942306611962441
0.39942306611962441
0.39942306611962441
0.39942306611962441
0.39942306611962441
0.39942306611962441
0.39942306611962441
0.39942306611962441
0.39942306611962441
0.39942306611962441
0.39942306611962441
0.39942306611962441
0.39942306611962441
0.39942306611962441
0.39942306611962441
0.39942306611962441
0.39942306611962441
0.39942306611962441
0.39942306611962441
0.39942306611962441
0.39942306611962441
0.39942306611962441
0.39942306611962441
0.39942306611962441
0.39942306611962441
0.39942306611962441
0.39942306611962441
0.39942306611962441
0.39942306611962441
0.39942306611962441
0.39942306611962441
0.39942306611962441
0.39942306611962441
0.39942306611962441
0.39942306611962441
0.39942306611962441
0.39942306611962441
0.39942306611962441
0.39942306611962441
0.39942306611962441
0.39942306611962441
0.39942306611962441
0.39942306611962441
0.39942306611962441
0.39942306611962441
0.39942306611962441
0.39942306611962441
0.39942306611962441
0.39942306611962441
0.39942306611962441
0.39942306611962441
0.39942306611962441
0.39942306611962441
0.39942306611962441
0.39942306611962441
0.39942306611962441
0.39942306611962441
0.39942306611962441
0.39942306611962441
0.39942306611962441
0.39942306611962441
0.39942306611962441
0.39942306611962441
0.39942306611962441
0.39942306611962441
0.39942306611962441
0.39942306611962441
0.39942306611962441
0.39942306611962441
0.39942306611962441
0.39942306611962441
0.39942306611962441
0.39942306611962441
0.39942306611962441
0.39942306611962441
0.39942306611962441
0.39942306611962441
0.39942306611962441
0.39942306611962441
0.39942306611962441
0.39942306611962441
0.39942306611962441
0.39942306611962441
0.39942306611962441
0.39942306611962441
0.39942306611962441
0.39942306611962441
0.39942306611962441
0.39942306611962441
0.39942306611962441
0.39942306611962441
0.39942306611962441
0.39942306611962441
0.39942306611962441
0.39942306611962441
0.39942306611962441
0.39942306611962441
0.39942306611962441
0.39942306611962441
0.39942306611962441
0.39942306611962441
0.39942306611962441
0.39942306611962441
0.39942306611962441
0.39942306611962441
0.39942306611962441
0.39942306611962441
0.39942306611962441
0.39942306611962441
0.39942306611962441
0.39942306611962441
0.39942306611962441
0.39942306611962441
0.39942306611962441
0.39942306611962441
0.39942306611962441
0.39942306611962441
0.39942306611962441
0.39942306611962441
0.39942306611962441
0.39942306611962441
0.39942306611962441
0.39942306611962441
0.39942306611962441
0.39942306611962441
0.39942306611962441
0.39942306611962441
0.39942306611962441
0.39942306611962441
0.39942306611962441
0.39942306611962441
0.39942306611962441
0.39942306611962441
0.39942306611962441
0.39942306611962441
0.39942306611962441
0.39942306611962441
VECTORS v float
-7.0508086523189177e-05 -0.089129785480797544 0
-8.0076300839394693e-05 -0.1025009970758866 0
-8.7696485798966737e-05 -0.11389517405324646 0
-9.5451116834491183e-05 -0.12640980226656912 0
-0.00010304980545098811 -0.14029567694664902 0
-0.00011047078052510896 -0.15597581897967835 0
-0.00011759301747421154 -0.17414498818883364 0
-0.00012471765382986456 -0.19575745986538623 0
-0.00013239923753788474 -0.22224340205240781 0
-0.00014173265797290253 -0.25571932350632387 0
-0.0001529818757704415 -0.29957936399372964 0
-0.00016712643697366282 -0.35890538679917017 0
-0.00018545686891535481 -0.44405259904304617 0
-0.00021276882409544543 -0.58347228356211822 0
-0.00026345501019928418 -0.88207945726306758 0
-0.0003498726055429413 -1.5650415539297819 0
-0.00027863584232058075 -2.1412643347567584 0
-0.00010025574920581008 -2.2591729982230047 0
-1.6630231105532198e-05 -2.2684332660373445 0
-2.0505410733519688e-06 -2.2637067657159671 0
-2.304762777470338e-07 -2.2556104777386414 0
-2.3175019653374438e-08 -2.2453341897579393 0
-1.9788482017619351e-09 -2.2335204962002493 0
-1.1946179064812817e-10 -2.2215160771164784 0
-4.8905288995900192e-18 -2.0825840461031033 0
-3.9837027415907704e-05 -0.093505444001592025 0
-4.6523816261773812e-05 -0.10752326910975499 0
-5.2375294166664571e-05 -0.11964704427442938 0
-5.8482572109672767e-05 -0.13272136150636032 0
-6.3267790731924372e-05 -0.14711065221492559 0
-6.8228179922809763e-05 -0.1633412379633368 0
-7.3256444094572956e-05 -0.18217080030656357 0
-7.858018336090946e-05 -0.20458084228637322 0
-8.4871305157856376e-05 -0.23201719628698717 0
-9.2014360685359269e-05 -0.26668589696793943 0
-9.9927060113818322e-05 -0.31200201813013173 0
-0.00010977029990473138 -0.37304756338003342 0
-0.00012189221322388277 -0.45985599240414293 0
-0.00013856183244036278 -0.59712475013585775 0
-0.00016777035528010449 -0.86442693944089222 0
-0.00022797492742788301 -1.4749430036065121 0
-0.00023698583770521498 -2.1005905365548916 0
-9.2413945883185563e-05 -2.2542897647085756 0
-1.6718972843080753e-05 -2.2675943888762626 0
-2.0604239654356682e-06 -2.2632763180672639 0
-2.408512290648418e-07 -2.2552293573230378 0
-2.510385676290338e-08 -2.2450072081519745 0
-2.2072181340261729e-09 -2.2333721947626306 0
-1.3794579274604342e-10 -2.2217481217823125 0
-1.1797663979122188e-17 -2.083754831601687 0
-2.2160481351304882e-05 -0.094106983842212805 0
-2.5606417963878448e-05 -0.10819520680434364 0
-2.8215449916944602e-05 -0.12040233825525529 0
-3.1265504427418577e-05 -0.13359764832202262 0
-3.4571840096217768e-05 -0.14815348753509985 0
-3.3747253368963126e-05 -0.16459442068574626 0
-3.6867712492136794e-05 -0.18370317380137577 0
-3.935185765914513e-05 -0.20648040380611796 0
-4.2311542618385386e-05 -0.23437489761339952 0
-4.7527372238140228e-05 -0.26959837197962944 0
-5.3223256495830267e-05 -0.31552937609958082 0
-5.8304447505213417e-05 -0.37715364111914335 0
-6.6362751825164298e-05 -0.46427705489077642 0
-7.5467593721120771e-05 -0.60076364422854789 0
-8.8201273291167587e-05 -0.86144760116843833 0
-0.00010065862542378954 -1.4492446914746941 0
-8.1229096061879294e-05 -2.0824690162828241 0
-3.6184988814279261e-05 -2.2516564508872214 0
-9.1543044345382737e-06 -2.2670818005599842 0
-1.3121277515983679e-06 -2.2628343073698596 0
-1.7263416044873387e-07 -2.2547788021604629 0
-1.9495950198233607e-08 -2.2445387075412571 0
-1.8121194622540546e-09 -2.2329430301765694 0
-1.1852521822906032e-10 -2.2214320000842425 0
-2.4263400357704152e-17 -2.0855260714909849 0
-6.5200367615658732e-06 -0.094121224817223931 0
-7.8567625013050252e-06 -0.10824102819183774 0
-8.7710090511418156e-06 -0.12047903752108254 0
-9.4443389571229114e-06 -0.13370981362175724 0
-1.223836195891245e-05 -0.14830922560809465 0
-1.3685016883824166e-05 -0.1648022590956221 0
-1.2208441201502899e-05 -0.1839808052423178 0
-1.5746563497377985e-05 -0.20684908996305476 0
-1.8129364360438802e-05 -0.23486075062698522 0
-1.9884925240956667e-05 -0.27022804004348172 0
-2.2460067749485992e-05 -0.31631933729035033 0
-2.3583762245575179e-05 -0.37809604714066586 0
-2.8267702468657518e-05 -0.46530673598871924 0
-3.086122950675115e-05 -0.60158737227379255 0
-3.5814046817225125e-05 -0.86041611179834199 0
-3.6924410684437583e-05 -1.4415328119588828 0
-2.7887335705391887e-05 -2.0759184213154662 0
-1.1944737360699206e-05 -2.2503590897009018 0
-3.3427119159817318e-06 -2.266730771641277 0
-6.19493088801649e-07 -2.2624961785216628 0
-9.5529272529108397e-08 -2.2543863323046578 0
-1.202087287721639e-08 -2.2440903726678583 0
-1.2053189534454943e-09 -2.2324616130956367 0
-8.3418807891766019e-11 -2.2209259064727473 0
-3.3603474353743024e-17 -2.0872611585191483 0
-1.1623078081375697e-07 -0.094069870463220878 0
-6.8602668750583882e-08 -0.10820093239591778 0
-7.6130401762958358e-07 -0.1204490510245433 0
1.3267805846646744e-07 -0.13369120703469198 0
-1.7136528626309223e-06 -0.14830600746435224 0
-9.9337316917057556e-07 -0.16481427110963512 0
-2.8219350496730215e-06 -0.18401385810156176 0
-2.7710214401263486e-06 -0.20691041300473209 0
-3.1734233595428055e-06 -0.23495621871056399 0
-3.9508453403041603e-06 -0.27036132923188921 0
-4.8464488455321424e-06 -0.31649308998918851 0
-5.9687153648596499e-06 -0.37829990310162548 0
-6.7921651724881242e-06 -0.46552072714237269 0
-8.1327335837790404e-06 -0.60170506258160039 0
-9.5091969175280701e-06 -0.85989601284920236 0
-1.0745093356706276e-05 -1.4388172170611304 0
-6.5841845161839185e-06 -2.0736940011021874 0
-3.5989783045101657e-06 -2.2498212573129499 0
-1.0982389024501466e-06 -2.2665079590059154 0
-2.4377721523563942e-07 -2.2622634270277833 0
-4.3593543984739034e-08 -2.2540956017070246 0
-6.1405600777380408e-09 -2.2437343663550968 0
-6.7043849688334884e-10 -2.2320488075908314 0
-4.9520359435011959e-11 -2.2204571698905062 0
-3.1608192771241918e-17 -2.0885740278224878 0
1.0438070293978292e-06 -0.094036795203748191 0
1.5972839745190927e-06 -0.10817131935497777 0
1.1137303869942161e-06 -0.12042294316431068 0
1.9899638003834145e-06 -0.13366891943874143 0
3.3464795635450612e-06 -0.14828594114010224 0
5.3136151428035246e-06 -0.16479818855557571 0
4.526643787159391e-06 -0.18400403048321848 0
3.8382572932773628e-06 -0.20690803211200665 0
3.0771381422155998e-06 -0.23496332161852845 0
2.4905826680881695e-06 -0.27038008214559994 0
2.9237496735891315e-06 -0.31652207961545697 0
2.6038879067854466e-06 -0.37833316786505966 0
8.6839817690232384e-07 -0.46554895957641768 0
6.1479342587577743e-07 -0.60168618598601098 0
7.7382716300669534e-07 -0.85963239315112661 0
-4.2452818066416655e-07 -1.4377810160701257 0
-7.8884799331912877e-07 -2.072875804956348 0
-7.1250600250195545e-07 -2.2495970867647248 0
-2.8563980237697326e-07 -2.2663787489366118 0
-8.1214605185651834e-08 -2.2621130504339746 0
-1.6674275704892907e-08 -2.2539028206761156 0
-2.6198916519664232e-09 -2.243491514148158 0
-3.1216979436995052e-10 -2.2317583665325453 0
-2.4699248986058096e-11 -2.2201227474621099 0
-2.1154645358960408e-17 -2.089389474468073 0
2.0573996220788373e-06 -0.094019926368453424 0
2.8634415798282713e-06 -0.10815551396288386 0
3.0872233263704342e-06 -0.12040769090280733 0
3.5489283363122463e-06 -0.13365486394852263 0
3.7395096897113567e-06 -0.14827213431273617 0
4.1232875880102943e-06 -0.16478702615323412 0
4.9673550276076975e-06 -0.18399378733663138 0
4.9913477726665608e-06 -0.20689909438151838 0
4.6849130755706375e-06 -0.23495617690656898 0
4.5289161229633558e-06 -0.2703756184656822 0
5.0818273150291213e-06 -0.31651853405257369 0
4.9865365029075332e-06 -0.37832979737201877 0
4.161687217879869e-06 -0.46554376567148903 0
5.6004038505842003e-06 -0.6016596707637023 0
5.2374787974153167e-06 -0.8595142180982418 0
4.1459381260347123e-06 -1.437391365688496 0
1.3882283792763217e-06 -2.0725783119540635 0
7.9286679864855659e-08 -2.249505551600647 0
-5.1121151181275013e-08 -2.2663122782789111 0
-2.152714491090006e-08 -2.2620302778107471 0
-4.9182411940511418e-09 -2.2537948606595557 0
-8.4106198840734713e-10 -2.2433547524623365 0
-1.0806484840211353e-10 -2.2315937877162684 0
-9.1017440673074181e-12 -2.2199341312106826 0
-9.1692760879857493e-18 -2.0898018849050812 0
2.5477524857850186e-06 -0.094016067804098671 0
2.9799766499113182e-06 -0.10815181262135115 0
4.5598887577471923e-06 -0.12040270467040931 0
4.5438729895761891e-06 -0.13364923140508858 0
5.1275205968838782e-06 -0.14826756488279941 0
9.4659216148888443e-06 -0.16478195459510386 0
1.1380792629374146e-05 -0.18399069058777398 0
9.0465916675682967e-06 -0.20689888801150894 0
9.6960459739971787e-06 -0.2349577608722454 0
8.6450271402860269e-06 -0.27037892224965071 0
8.8439787203532697e-06 -0.31652453589597906 0
8.8128154948471941e-06 -0.37833863411600277 0
6.9971335935083296e-06 -0.46554596407955873 0
6.8448202100326857e-06 -0.60165835120675026 0
5.155401086387037e-06 -0.85948903229517315 0
1.740173974078533e-06 -1.4372892618016926 0
-8.6485224019235286e-08 -2.0725006878274739 0
-7.6302181824981211e-08 -2.2494813662741278 0
-5.4888240007843987e-08 -2.2662920658352359 0
-3.2338036691685773e-09 -2.2620040495362548 0
2.482426731805604e-10 -2.2537603801022836 0
9.7153378248885715e-11 -2.2433110977595083 0
1.419580915802613e-11 -2.2315413328456688 0
1.1919906649301846e-12 -2.2198743993184737 0
1.5263430852052912e-18 -2.0899240887804176 0
2.1296169221714751e-06 -0.09401772669676331 0
2.7438213557999739e-06 -0.10815431776330271 0
2.801846725792315e-06 -0.12040682940524031 0
3.9586193188269486e-06 -0.13365309543367648 0
3.5946697786919945e-06 -0.14827159123986494 0
3.4671457255604215e-06 -0.16478751599184019 0
2.6332532877247908e-06 -0.1839958628232348 0
4.3439316865008243e-06 -0.20690149416041495 0
4.9110427396740436e-06 -0.23495967418100008 0
5.0785388344079114e-06 -0.27037975039289264 0
6.248694790626363e-06 -0.31652455917293493 0
7.0240133625762916e-06 -0.37833784949663535 0
8.0259769519857454e-06 -0.46555126377325373 0
8.154603502843572e-06 -0.6016677676219554 0
6.611056309579273e-06 -0.8595212725794904 0
1.5878833614609284e-06 -1.4373854652543943 0
-4.184938874560384e-06 -2.0725755277792834 0
-1.6223242405433507e-07 -2.2495071314504829 0
-1.4676747982187257e-08 -2.2663125229160888 0
1.8626961757726786e-08 -2.2620303133414827 0
5.6733056504480453e-09 -2.2537948657036799 0
1.0454883939412953e-09 -2.243354753049164 0
1.3623334885643928e-10 -2.2315937877723711 0
1.1425463711618729e-11 -2.219934131214389 0
1.2054165150254627e-17 -2.0898018849050812 0
3.3921080381285854e-06 -0.094035438091582213 0
4.3731667917740062e-06 -0.10817026144241011 0
4.8603142464643732e-06 -0.12042199352933136 0
5.2852763703959003e-06 -0.1336679689755261 0
9.4725298076217482e-06 -0.14828371947763452 0
1.0168178838869029e-05 -0.16479775842800398 0
9.8680989352990988e-06 -0.18400308609365831 0
9.5425185154850323e-06 -0.20690683045672387 0
1.0135550731362446e-05 -0.23496189354660674 0
1.1526227434343808e-05 -0.27038081393095564 0
1.1621437964741995e-05 -0.31652213488092995 0
1.2367315232526902e-05 -0.378334646278502 0
1.2271338025154018e-05 -0.46555440747849047 0
1.307483529026462e-05 -0.60168499343523962 0
1.2547075167708878e-05 -0.85962625035573503 0
8.6908550779394795e-06 -1.4377699185846828 0
2.8210701642691957e-06 -2.0728729256273599 0
6.1066584676816997e-07 -2.2495978027524983 0
3.0281414337002432e-07 -2.2663790085226383 0
8.6482936116989054e-08 -2.2621131022997969 0
1.7925525720443842e-08 -2.2539028290179646 0
2.8319964647764276e-09 -2.2434915152256942 0
3.3807166901732577e-10 -2.2317583666426661 0
2.6754255516684985e-11 -2.2201227474696807 0
2.3505368815919933e-17 -2.0893894744680734 0
5.2726361832451269e-06 -0.094070687176913526 0
6.8374005406788484e-06 -0.10820130524706005 0
7.1735386616816976e-06 -0.12045013690735261 0
8.5273837616926423e-06 -0.13369276871092367 0
8.8404514261812617e-06 -0.14830573122786572 0
9.4194562639957309e-06 -0.1648145432299114 0
1.0032418929776994e-05 -0.18401368611677371 0
1.163817151760597e-05 -0.20690956183079945 0
1.2978010385439001e-05 -0.23495348976838151 0
1.4167429157396222e-05 -0.27035776068600453 0
1.5327093556181839e-05 -0.31648963358444476 0
1.6818802605737338e-05 -0.37829610952126025 0
1.8891616895639707e-05 -0.46551883933638927 0
2.1016016930614185e-05 -0.60169594650982094 0
2.3022531911024003e-05 -0.85987977296844953 0
2.2443543713849861e-05 -1.4388025529247179 0
1.1681898131736419e-05 -2.0736913870752356 0
4.2790613321690247e-06 -2.249821980258973 0
1.1875088280060094e-06 -2.2665082578322893 0
2.5456039691169976e-07 -2.2622634886950488 0
4.4973025951774116e-08 -2.2540956122793223 0
6.3121964256700368e-09 -2.2437343678149104 0
6.8890586733499825e-10 -2.23204880774776 0
5.0934544089919416e-11 -2.2204571699016866 0
3.309664188982357e-17 -2.0885740278224882 0
9.676778418226548e-06 -0.094122883183357958 0
1.1373957849713328e-05 -0.10824282831821117 0
1.2722731728623751e-05 -0.12048010367640261 0
1.453021761997048e-05 -0.13371170467073473 0
1.8940565828387079e-05 -0.14830871610705859 0
2.152534976723813e-05 -0.16480216939097198 0
2.254365571644253e-05 -0.1839808676168512 0
2.2778546330727241e-05 -0.20685083613898653 0
2.4398288750922074e-05 -0.23486401609174759 0
2.6359401270326225e-05 -0.27022877428154385 0
2.9610809724899794e-05 -0.31632044153862759 0
3.2185793499143106e-05 -0.37809325407408051 0
3.4204506933341258e-05 -0.46530385255731521 0
3.9022352200104998e-05 -0.60158030500028714 0
4.4295411267469843e-05 -0.8604046580595226 0
4.6126037291155839e-05 -1.4415183003027467 0
3.0395173031029899e-05 -2.0759177516960827 0
1.3080471765294946e-05 -2.2503607795628153 0
3.4839334005891007e-06 -2.2667312501981232 0
6.3050691483811806e-07 -2.2624962580942958 0
9.6328768300025086e-08 -2.2543863448893551 0
1.2077077303186544e-08 -2.2440903743895615 0
1.2098031045677082e-09 -2.2324616132834345 0
8.3784566014354498e-11 -2.2209259064863938 0
3.4202099646908587e-17 -2.0872611585191487 0
1.9068612605067678e-05 -0.094111214300863888 0
2.2681821672052106e-05 -0.1081992640960672 0
2.5285429704116513e-05 -0.12040683843067375 0
2.7968401279194695e-05 -0.13360222967940508 0
3.1133363952858602e-05 -0.14815808635793259 0
3.4011301576141335e-05 -0.16459823512829855 0
3.8128615414159579e-05 -0.18370650034253541 0
4.1643426948793473e-05 -0.20648377790716749 0
4.5225668789659335e-05 -0.23437910207233256 0
5.0200971969508419e-05 -0.26960073239279564 0
5.4764918200795371e-05 -0.31553139394733343 0
6.0861106763216519e-05 -0.37715351045623252 0
6.8538984451440628e-05 -0.46427458000710697 0
7.7434689992983936e-05 -0.60076339431818448 0
9.1724978015067036e-05 -0.8614375546691877 0
0.0001072182324526233 -1.449230564753222 0
8.6352201547623605e-05 -2.0824720740337632 0
3.7676351733922461e-05 -2.2516607419654271 0
9.2728269473336166e-06 -2.267082650810226 0
1.3138876103304388e-06 -2.2628344138663796 0
1.7201051378732951e-07 -2.2547788163696718 0
1.937335723950819e-08 -2.2445387093611751 0
1.7986848425268836e-09 -2.2329430303722066 0
1.1766628586286246e-10 -2.2214320000985284 0
2.4337261845104287e-17 -2.0855260714909853 0
4.1891949837413321e-05 -0.093511389560476957 0
4.8243556652165475e-05 -0.10752927752095377 0
5.3594751135036849e-05 -0.11965027309866927 0
5.8958636433366281e-05 -0.13272442548517907 0
6.3425439734408307e-05 -0.1471114417195685 0
6.8310790390199201e-05 -0.16334279951161057 0
7.261467337358826e-05 -0.18217559175301765 0
7.7108750897923059e-05 -0.20458653975072061 0
8.37181349902102e-05 -0.23202387937859753 0
9.0478819257300072e-05 -0.26669266878427295 0
9.8883970307822461e-05 -0.31200848743048976 0
0.00010926779331021535 -0.37305506915105963 0
0.00012237239840223212 -0.45986295436454649 0
0.00014092063218956781 -0.59712618866451683 0
0.00017278516647767066 -0.86441383972697372 0
0.0002354756566123003 -1.474929573019254 0
0.00023862726589558619 -2.1006027947535744 0
9.1784297397742664e-05 -2.2542963300394083 0
1.6585442368912387e-05 -2.2675955307256257 0
2.0430930021292714e-06 -2.2632764391312379 0
2.3843908669342842e-07 -2.2552293714794054 0
2.4810361701858688e-08 -2.2450072098544744 0
2.1790700570315257e-09 -2.2333721949414178 0
1.3616686429025127e-10 -2.2217481217952821 0
1.1742066123399507e-17 -2.0837548316016874 0
7.1074267371208416e-05 -0.089133909377374851 0
8.0258113300933295e-05 -0.10250410670904035 0
8.4815900357870027e-05 -0.11389529907613548 0
9.1728741397571536e-05 -0.12640955600097548 0
9.8786414534630701e-05 -0.14029552833919615 0
0.00010574940798450811 -0.15597584405376472 0
0.00011266653418320882 -0.17414545172967086 0
0.00011908574898763255 -0.19575831275179731 0
0.00012648792070176458 -0.22224417902757657 0
0.00013486527175046481 -0.25572052933950967 0
0.00014551358878314911 -0.29957934427475968 0
0.00015833863947065338 -0.35890443260471838 0
0.000174888485517215 -0.44404953144291498 0
0.00019872397109277216 -0.58346602600833586 0
0.00024279989490941548 -0.88207123897983852 0
0.00032156037378980464 -1.5650638911456016 0
0.00027068750451020833 -2.1412865623337622 0
9.8038614889012468e-05 -2.2591785352772042 0
1.6349685496005115e-05 -2.2684340441219173 0
2.023778620154985e-06 -2.2637068570348355 0
2.2744371387681023e-07 -2.2556104888829944 0
2.2845128953076183e-08 -2.2453341910831366 0
1.948890486271704e-09 -2.2335204963368946 0
1.1762578731401259e-10 -2.2215160771262061 0
4.8441932108541964e-18 -2.0825840461031038 0
-0 -0 0
-0 -0 0
-0 -0 0
-0 -0 0
-0 -0 0
-0 -0 0
3.1823033670780109e-05 0.040175516383316644 0
8.427293210744442e-05 0.11007763631863855 0
0.0001069516760842264 0.15999545748509678 0
-0 -0 0
-0 -0 0
-0 -0 0
7.5638610686543973e-05 0.096780909953953248 0
8.6682059229561517e-05 0.11978380902048809 0
0.00010673143205071192 0.17074434660474452 0
-0 -0 0
-0 -0 0
-0 -0 0
5.756057852924921e-05 0.099599371472753953 0
6.9277518756480746e-05 0.1222035259354243 0
8.7176507278209571e-05 0.17355858007183239 0
-0 -0 0
-0 -0 0
-0 -0 0
3.390648674064092e-05 0.10192166628678745 0
4.1098316379913748e-05 0.12419585802983432 0
5.2688654757117178e-05 0.17582699595799131 0
-0 -0 0
-0 -0 0
-0 -0 0
1.5913427382977097e-05 0.10221629765626157 0
1.9394705361821351e-05 0.12460885980399951 0
2.5191040464931146e-05 0.17632911357718986 0
-0 -0 0
-0 -0 0
-0 -0 0
3.7852585751741192e-06 0.10218354063184598 0
5.3955279272779865e-06 0.12459151850343254 0
7.9351918050998259e-06 0.17626715432396067 0
-0 -0 0
-0 -0 0
-0 -0 0
-6.4050508559536005e-07 0.10213196115832177 0
-5.0315298250651588e-07 0.12453726359058248 0
-1.9762106551441451e-07 0.17618153514360499 0
-0 -0 0
-0 -0 0
-0 -0 0
-1.7125912606218943e-06 0.10210259441576895 0
-2.2488408205354271e-06 0.12450392723351739 0
-3.0377911696283019e-06 0.1761312578931212 0
-0 -0 0
-0 -0 0
-0 -0 0
-2.4127294893642042e-06 0.10209061008462877 0
-3.2801606034156754e-06 0.12448986158838803 0
-4.7610082946273893e-06 0.17611071169479886 0
-0 -0 0
-0 -0 0
-0 -0 0
-2.8186174524282762e-06 0.10208954958747647 0
-3.6419580864582019e-06 0.12448907100709783 0
-5.132400408705492e-06 0.17611055276260409 0
-0 -0 0
-0 -0 0
-0 -0 0
-3.3348188765362893e-06 0.10210079834555966 0
-4.4733826208449792e-06 0.12450236737126449 0
-6.14813692039593e-06 0.17613028923510959 0
-0 -0 0
-0 -0 0
-0 -0 0
-4.8792914260089701e-06 0.10213114310507745 0
-6.4878547442762982e-06 0.12453633416478155 0
-8.9417771601336608e-06 0.17618000384884405 0
-0 -0 0
-0 -0 0
-0 -0 0
-8.2525902964277067e-06 0.10218419514283696 0
-1.0812075862110594e-05 0.12459186503266646 0
-1.4841188533543428e-05 0.17626698295861107 0
-0 -0 0
-0 -0 0
-0 -0 0
-1.6102013324197258e-05 0.10221904507600292 0
-2.0715580650949293e-05 0.12461114374864384 0
-2.7922689368256511e-05 0.17633111947470648 0
-0 -0 0
-0 -0 0
-0 -0 0
-3.3907315690671411e-05 0.10192581285741767 0
-4.0963770485106062e-05 0.12419905908663054 0
-5.2691687985603499e-05 0.17583016648732874 0
-0 -0 0
-0 -0 0
-0 -0 0
-5.7790227748473178e-05 0.099601197512895007 0
-6.8335919621451745e-05 0.12220509689654091 0
-8.4988863605189036e-05 0.17356112820693129 0
-0 -0 0
-0 -0 0
-0 -0 0
-7.2571453826271912e-05 0.096779569509496663 0
-8.3205246989112472e-05 0.1197834432604606 0
-0.00010195230737669925 0.17074442250678817 0
-0 -0 0
-0 -0 0
-0 -0 0
-3.0549167708167593e-05 0.040165576298986989 0
-8.0684232115133255e-05 0.11007617240594667 0
-0.00010192270803948642 0.15999314150997085 0
-0 -0 0
-0 -0 0
-0 -0 0
-0 -0 0
-0 -0 0
-0 -0 0
-0 -0 0
-0 -0 0
-0 -0 0
-0 -0 0
-0 -0 0
-0 -0 0
-0 -0 0
-0 -0 0
-0 -0 0
-0 -0 0
-0 -0 0
-0 -0 0
-0 -0 0
-0 -0 0
-0 -0 0
-0 -0 0
-0 -0 0
-0 -0 0
-0 -0 0
-0 -0 0
-0 -0 0
-0 -0 0
-0 -0 0
-0 -0 0
-0 -0 0
-0 -0 0
-0 -0 0
-0 -0 0
-0 -0 0
-0 -0 0
-0 -0 0
-0 -0 0
-0 -0 0
-0 -0 0
-0 -0 0
-0 -0 0
-0 -0 0
-0 -0 0
-0 -0 0
-0 -0 0
-0 -0 0
-0 -0 0
-0 -0 0
-0 -0 0
-0 -0 0
-0 -0 0
-0 -0 0
-0 -0 0
-0 -0 0
-0 -0 0
-0 -0 0
-0 -0 0
-0 -0 0
-0 -0 0
-0 -0 0
-0 -0 0
-0 -0 0
-0 -0 0
-0 -0 0
-0 -0 0
-0 -0 0
-0 -0 0
-0 -0 0
-0 -0 0
-0 -0 0
-0 -0 0
-0 -0 0
-0 -0 0
-0 -0 0
-0 -0 0
-0 -0 0
-0 -0 0
-0 -0 0
-0 -0 0
-0 -0 0
-0 -0 0
-0 -0 0
-0 -0 0
-0 -0 0
-0 -0 0
-0 -0 0
-0 -0 0
-0 -0 0
-0 -0 0
-0 -0 0
-0 -0 0
-0 -0 0
-0 -0 0
-0 -0 0
-0 -0 0
-0 -0 0
-0 -0 0
-0 -0 0
-0 -0 0
-0 -0 0
-0 -0 0
-0 -0 0
-0 -0 0
-0 -0 0
-0 -0 0
-0 -0 0
-0 -0 0
-0 -0 0
-0 -0 0
-0 -0 0
-0 -0 0
-0 -0 0
-0 -0 0
-0 -0 0
-0 -0 0
-0 -0 0
-0 -0 0
-0 -0 0
-0 -0 0
-0 -0 0
-0 -0 0
-0 -0 0
-0 -0 0
-0 -0 0
-0 -0 0
-0 -0 0
-0 -0 0
-0 -0 0
-0 -0 0
-0 -0 0
-0 -0 0
-0 -0 0
-0 -0 0
-0 -0 0
-0 -0 0
-0 -0 0
-0 -0 0
-0 -0 0
-0 -0 0
-0 -0 0
-0 -0 0
-0 -0 0
-0 -0 0
-0 -0 0
-0 -0 0
-0 -0 0
-0 -0 0
-0 -0 0
-0 -0 0
-0 -0 0
-0 -0 0
-0 -0 0
-0 -0 0
-0 -0 0
-0 -0 0
-0 -0 0
-0 -0 0
-0 -0 0
-0 -0 0
-0 -0 0
-0 -0 0
-0 -0 0
-0 -0 0
-0 -0 0
-0 -0 0
-0 -0 0
-0 -0 0
-0 -0 0
-0 -0 0
-0 -0 0
-0 -0 0
-0 -0 0
-0 -0 0
-0 -0 0
-0 -0 0
-0 -0 0
-0 -0 0
-0 -0 0
-0 -0 0
-0 -0 0
-0 -0 0
-0 -0 0
-0 -0 0
-0 -0 0
-0 -0 0
-0 -0 0
-0 -0 0
-0 -0 0
-0 -0 0
-0 -0 0
-0 -0 0
-0 -0 0
-0 -0 0
-0 -0 0
