# vtk DataFile Version 3.0
SPH particles (WCSPH) - legacy PolyData
ASCII
DATASET POLYDATA
POINTS 681 float
0.050000000000000003 0.045582281612954044 0
0.050000000000000003 0.057915505807789418 0
0.050000000000000003 0.072159101897362202 0
0.050000000000000003 0.090096223830083727 0
0.050000000000000003 0.10955043757890467 0
0.050000000000000003 0.12942953724948894 0
0.050000000000000003 0.14940544542091475 0
0.050000000000000003 0.16940098980866838 0
0.050000000000000003 0.18940022014128188 0
0.050000000000000003 0.20940009577487598 0
0.050000000000000003 0.22940007694865194 0
0.050000000000000003 0.24940007427486602 0
0.050000000000000003 0.26940007393084392 0
0.050000000000000003 0.28940007399572748 0
0.050000000000000003 0.30940007481752635 0
0.050000000000000003 0.32940008063813503 0
0.050000000000000003 0.34940011880092281 0
0.050000000000000003 0.36940035058418702 0
0.050000000000000003 0.38940164627735774 0
0.050000000000000003 0.40940826147780685 0
0.050000000000000003 0.42943883969420654 0
0.050000000000000003 0.44956581975525223 0
0.050000000000000003 0.4700395937979 0
0.050000000000000003 0.49166672136095579 0
0.050000000000000003 0.51792045074812387 0
0.070000000000000007 0.045387434359541019 0
0.070000000000000007 0.058100590972775264 0
0.070000000000000007 0.07242039245617822 0
0.070000000000000007 0.090181056850763539 0
0.070000000000000007 0.10956812101828972 0
0.070000000000000007 0.12943315401364064 0
0.070000000000000007 0.14940616247803765 0
0.070000000000000007 0.1694011218882073 0
0.070000000000000007 0.18940024268965408 0
0.070000000000000007 0.20940009935403409 0
0.070000000000000007 0.22940007747881644 0
0.070000000000000007 0.24940007434873954 0
0.070000000000000007 0.26940007394333926 0
0.070000000000000007 0.28940007401949719 0
0.070000000000000007 0.30940007498144845 0
0.070000000000000007 0.3294000817443648 0
0.070000000000000007 0.34940012572724477 0
0.070000000000000007 0.36940039057733332 0
0.070000000000000007 0.38940185821540463 0
0.070000000000000007 0.40940928920957115 0
0.070000000000000007 0.42944340019013061 0
0.070000000000000007 0.44958430766336588 0
0.070000000000000007 0.4701056509775014 0
0.070000000000000007 0.49181762730439033 0
0.070000000000000007 0.51773704052134517 0
0.090000000000000011 0.045407171978866921 0
0.090000000000000011 0.058159001224248906 0
0.090000000000000011 0.072484499244706291 0
0.090000000000000011 0.090206841331646262 0
0.090000000000000011 0.10957352653387444 0
0.090000000000000011 0.12943421621625856 0
0.090000000000000011 0.14940637505625257 0
0.090000000000000011 0.16940116252495876 0
0.090000000000000011 0.18940024991884255 0
0.090000000000000011 0.20940010054531225 0
0.090000000000000011 0.22940007766106393 0
0.090000000000000011 0.24940007437484496 0
0.090000000000000011 0.26940007394783333 0
0.090000000000000011 0.28940007402771883 0
0.090000000000000011 0.3094000750365733 0
0.090000000000000011 0.32940008210671473 0
0.090000000000000011 0.34940012793696246 0
0.090000000000000011 0.36940040303431793 0
0.090000000000000011 0.38940192306767901 0
0.090000000000000011 0.4094096010440334 0
0.090000000000000011 0.42944477740033182 0
0.090000000000000011 0.44958970741443283 0
0.090000000000000011 0.47012221287722095 0
0.090000000000000011 0.491840224531643 0
0.090000000000000011 0.51774195807486012 0
0.11000000000000001 0.045410726898193081 0
0.11000000000000001 0.058169586747796376 0
0.11000000000000001 0.072497868331158288 0
0.11000000000000001 0.090214090440284819 0
0.11000000000000001 0.10957562478121602 0
0.11000000000000001 0.12943467406604733 0
0.11000000000000001 0.14940646858332779 0
0.11000000000000001 0.16940118075207683 0
0.11000000000000001 0.18940025325834106 0
0.11000000000000001 0.20940010111478946 0
0.11000000000000001 0.22940007775124213 0
0.11000000000000001 0.24940007438819117 0
0.11000000000000001 0.26940007395017768 0
0.11000000000000001 0.28940007403175305 0
0.11000000000000001 0.3094000750624547 0
0.11000000000000001 0.3294000822698071 0
0.11000000000000001 0.34940012888670319 0
0.11000000000000001 0.36940040811992431 0
0.11000000000000001 0.38940194798261285 0
0.11000000000000001 0.40940971151308247 0
0.11000000000000001 0.42944520786014995 0
0.11000000000000001 0.44959107345175653 0
0.11000000000000001 0.47012517561507994 0
0.11000000000000001 0.49184414949415062 0
0.11000000000000001 0.51774462487018225 0
0.13 0.045410904482710068 0
0.13 0.058171288450828716 0
0.13 0.072500392490081597 0
0.13 0.09021574213099183 0
0.13 0.10957622235952495 0
0.13 0.12943482937572617 0
0.13 0.14940650307708414 0
0.13 0.16940118777137489 0
0.13 0.18940025458967596 0
0.13 0.20940010134999085 0
0.13 0.2294000777898669 0
0.13 0.24940007439411666 0
0.13 0.26940007395123688 0
0.13 0.28940007403339968 0
0.13 0.309400075072364 0
0.13 0.32940008232854429 0
0.13 0.34940012920603108 0
0.13 0.36940040969991295 0
0.13 0.38940195502505276 0
0.13 0.4094097392087731 0
0.13 0.42944529983536694 0
0.13 0.44959131195541679 0
0.13 0.47012563159996063 0
0.13 0.49184476557818307 0
0.13 0.51774512065193923 0
0.15000000000000002 0.045410901712956579 0
0.15000000000000002 0.05817153896634706 0
0.15000000000000002 0.072500822928167161 0
0.15000000000000002 0.090216068878727226 0
0.15000000000000002 0.10957636207418975 0
0.15000000000000002 0.12943487187183517 0
0.15000000000000002 0.14940651364609414 0
0.15000000000000002 0.16940119007619356 0
0.15000000000000002 0.1894002550476836 0
0.15000000000000002 0.20940010143413015 0
0.15000000000000002 0.22940007780421351 0
0.15000000000000002 0.24940007439639997 0
0.15000000000000002 0.2694000739516485 0
0.15000000000000002 0.28940007403394258 0
0.15000000000000002 0.30940007507533307 0
0.15000000000000002 0.32940008234463819 0
0.15000000000000002 0.3494001292850501 0
0.15000000000000002 0.36940041004763646 0
0.15000000000000002 0.38940195637869174 0
0.15000000000000002 0.4094097437658652 0
0.15000000000000002 0.42944531265075991 0
0.15000000000000002 0.4495913413937429 0
0.15000000000000002 0.47012568650346476 0
0.15000000000000002 0.49184484384267052 0
0.15000000000000002 0.51774518768631539 0
0.17000000000000004 0.045410903772536537 0
0.17000000000000004 0.058171576219696625 0
0.17000000000000004 0.072500890825163006 0
0.17000000000000004 0.090216126427832805 0
0.17000000000000004 0.10957639016383301 0
0.17000000000000004 0.12943488163079636 0
0.17000000000000004 0.14940651636230093 0
0.17000000000000004 0.16940119071934059 0
0.17000000000000004 0.18940025518300158 0
0.17000000000000004 0.20940010146008933 0
0.17000000000000004 0.22940007780881053 0
0.17000000000000004 0.24940007439715833 0
0.17000000000000004 0.26940007395178428 0
0.17000000000000004 0.28940007403408036 0
0.17000000000000004 0.30940007507597522 0
0.17000000000000004 0.32940008234762225 0
0.17000000000000004 0.34940012929715486 0
0.17000000000000004 0.36940041008959007 0
0.17000000000000004 0.38940195650062759 0
0.17000000000000004 0.40940974406239988 0
0.17000000000000004 0.42944531330495633 0
0.17000000000000004 0.44959134294702063 0
0.17000000000000004 0.47012569025580253 0
0.17000000000000004 0.49184485054766475 0
0.17000000000000004 0.51774519432524124 0
0.19 0.045410904370608539 0
0.19 0.058171581058113847 0
0.19 0.072500899608406361 0
0.19 0.090216134356387395 0
0.19 0.10957639440351387 0
0.19 0.1294348832520934 0
0.19 0.14940651685406056 0
0.19 0.16940119084401084 0
0.19 0.18940025521056894 0
0.19 0.20940010146557353 0
0.19 0.22940007780981042 0
0.19 0.24940007439732789 0
0.19 0.26940007395181448 0
0.19 0.28940007403410234 0
0.19 0.30940007507605388 0
0.19 0.32940008234788032 0
0.19 0.34940012929764142 0
0.19 0.36940041008871244 0
0.19 0.38940195648838188 0
0.19 0.40940974400551955 0
0.19 0.42944531314588014 0
0.19 0.4495913426821655 0
0.19 0.47012569006490168 0
0.19 0.49184485066266431 0
0.19 0.51774519468508318 0
0.21000000000000002 0.045410903772536544 0
0.21000000000000002 0.058171576219696625 0
0.21000000000000002 0.072500890825163006 0
0.21000000000000002 0.090216126427832805 0
0.21000000000000002 0.10957639016383301 0
0.21000000000000002 0.12943488163079636 0
0.21000000000000002 0.14940651636230093 0
0.21000000000000002 0.16940119071934059 0
0.21000000000000002 0.18940025518300158 0
0.21000000000000002 0.20940010146008933 0
0.21000000000000002 0.22940007780881053 0
0.21000000000000002 0.24940007439715833 0
0.21000000000000002 0.26940007395178428 0
0.21000000000000002 0.28940007403408036 0
0.21000000000000002 0.30940007507597522 0
0.21000000000000002 0.32940008234762225 0
0.21000000000000002 0.34940012929715486 0
0.21000000000000002 0.36940041008959007 0
0.21000000000000002 0.38940195650062759 0
0.21000000000000002 0.40940974406239988 0
0.21000000000000002 0.42944531330495633 0
0.21000000000000002 0.44959134294702063 0
0.21000000000000002 0.47012569025580253 0
0.21000000000000002 0.49184485054766475 0
0.21000000000000002 0.51774519432524124 0
0.23000000000000004 0.045410901712956579 0
0.23000000000000004 0.05817153896634706 0
0.23000000000000004 0.072500822928167161 0
0.23000000000000004 0.090216068878727226 0
0.23000000000000004 0.10957636207418975 0
0.23000000000000004 0.12943487187183517 0
0.23000000000000004 0.14940651364609414 0
0.23000000000000004 0.16940119007619356 0
0.23000000000000004 0.1894002550476836 0
0.23000000000000004 0.20940010143413015 0
0.23000000000000004 0.22940007780421351 0
0.23000000000000004 0.24940007439639997 0
0.23000000000000004 0.2694000739516485 0
0.23000000000000004 0.28940007403394258 0
0.23000000000000004 0.30940007507533307 0
0.23000000000000004 0.32940008234463819 0
0.23000000000000004 0.3494001292850501 0
0.23000000000000004 0.36940041004763646 0
0.23000000000000004 0.38940195637869174 0
0.23000000000000004 0.4094097437658652 0
0.23000000000000004 0.42944531265075991 0
0.23000000000000004 0.4495913413937429 0
0.23000000000000004 0.47012568650346476 0
0.23000000000000004 0.49184484384267052 0
0.23000000000000004 0.51774518768631539 0
0.25000000000000006 0.045410904482710068 0
0.25000000000000006 0.058171288450828716 0
0.25000000000000006 0.072500392490081597 0
0.25000000000000006 0.09021574213099183 0
0.25000000000000006 0.10957622235952495 0
0.25000000000000006 0.12943482937572617 0
0.25000000000000006 0.14940650307708414 0
0.25000000000000006 0.16940118777137489 0
0.25000000000000006 0.18940025458967596 0
0.25000000000000006 0.20940010134999085 0
0.25000000000000006 0.2294000777898669 0
0.25000000000000006 0.24940007439411666 0
0.25000000000000006 0.26940007395123688 0
0.25000000000000006 0.28940007403339968 0
0.25000000000000006 0.309400075072364 0
0.25000000000000006 0.32940008232854429 0
0.25000000000000006 0.34940012920603108 0
0.25000000000000006 0.36940040969991295 0
0.25000000000000006 0.38940195502505276 0
0.25000000000000006 0.4094097392087731 0
0.25000000000000006 0.42944529983536694 0
0.25000000000000006 0.44959131195541679 0
0.25000000000000006 0.47012563159996063 0
0.25000000000000006 0.49184476557818307 0
0.25000000000000006 0.51774512065193923 0
0.27000000000000002 0.045410726898193081 0
0.27000000000000002 0.058169586747796369 0
0.27000000000000002 0.072497868331158288 0
0.27000000000000002 0.090214090440284819 0
0.27000000000000002 0.10957562478121602 0
0.27000000000000002 0.12943467406604733 0
0.27000000000000002 0.14940646858332779 0
0.27000000000000002 0.16940118075207683 0
0.27000000000000002 0.18940025325834106 0
0.27000000000000002 0.20940010111478946 0
0.27000000000000002 0.22940007775124213 0
0.27000000000000002 0.24940007438819117 0
0.27000000000000002 0.26940007395017768 0
0.27000000000000002 0.28940007403175305 0
0.27000000000000002 0.3094000750624547 0
0.27000000000000002 0.3294000822698071 0
0.27000000000000002 0.34940012888670319 0
0.27000000000000002 0.36940040811992431 0
0.27000000000000002 0.38940194798261285 0
0.27000000000000002 0.40940971151308247 0
0.27000000000000002 0.42944520786014995 0
0.27000000000000002 0.44959107345175653 0
0.27000000000000002 0.47012517561507994 0
0.27000000000000002 0.49184414949415062 0
0.27000000000000002 0.51774462487018225 0
0.29000000000000004 0.045407171978866921 0
0.29000000000000004 0.058159001224248906 0
0.29000000000000004 0.072484499244706291 0
0.29000000000000004 0.090206841331646262 0
0.29000000000000004 0.10957352653387444 0
0.29000000000000004 0.12943421621625856 0
0.29000000000000004 0.14940637505625257 0
0.29000000000000004 0.16940116252495876 0
0.29000000000000004 0.18940024991884255 0
0.29000000000000004 0.20940010054531225 0
0.29000000000000004 0.22940007766106393 0
0.29000000000000004 0.24940007437484496 0
0.29000000000000004 0.26940007394783333 0
0.29000000000000004 0.28940007402771883 0
0.29000000000000004 0.3094000750365733 0
0.29000000000000004 0.32940008210671473 0
0.29000000000000004 0.34940012793696246 0
0.29000000000000004 0.36940040303431793 0
0.29000000000000004 0.38940192306767901 0
0.29000000000000004 0.4094096010440334 0
0.29000000000000004 0.42944477740033182 0
0.29000000000000004 0.44958970741443283 0
0.29000000000000004 0.47012221287722095 0
0.29000000000000004 0.491840224531643 0
0.29000000000000004 0.51774195807486012 0
0.31000000000000005 0.045387434359541012 0
0.31000000000000005 0.058100590972775264 0
0.31000000000000005 0.07242039245617822 0
0.31000000000000005 0.090181056850763539 0
0.31000000000000005 0.10956812101828972 0
0.31000000000000005 0.12943315401364064 0
0.31000000000000005 0.14940616247803765 0
0.31000000000000005 0.1694011218882073 0
0.31000000000000005 0.18940024268965408 0
0.31000000000000005 0.20940009935403409 0
0.31000000000000005 0.22940007747881644 0
0.31000000000000005 0.24940007434873954 0
0.31000000000000005 0.26940007394333926 0
0.31000000000000005 0.28940007401949719 0
0.31000000000000005 0.30940007498144845 0
0.31000000000000005 0.3294000817443648 0
0.31000000000000005 0.34940012572724477 0
0.31000000000000005 0.36940039057733332 0
0.31000000000000005 0.38940185821540463 0
0.31000000000000005 0.40940928920957115 0
0.31000000000000005 0.42944340019013061 0
0.31000000000000005 0.44958430766336588 0
0.31000000000000005 0.4701056509775014 0
0.31000000000000005 0.49181762730439033 0
0.31000000000000005 0.51773704052134517 0
0.33000000000000002 0.045582281612954044 0
0.33000000000000002 0.057915505807789418 0
0.33000000000000002 0.072159101897362202 0
0.33000000000000002 0.090096223830083727 0
0.33000000000000002 0.10955043757890467 0
0.33000000000000002 0.12942953724948894 0
0.33000000000000002 0.14940544542091475 0
0.33000000000000002 0.16940098980866838 0
0.33000000000000002 0.18940022014128188 0
0.33000000000000002 0.20940009577487598 0
0.33000000000000002 0.22940007694865194 0
0.33000000000000002 0.24940007427486602 0
0.33000000000000002 0.26940007393084392 0
0.33000000000000002 0.28940007399572748 0
0.33000000000000002 0.30940007481752635 0
0.33000000000000002 0.32940008063813503 0
0.33000000000000002 0.34940011880092281 0
0.33000000000000002 0.36940035058418702 0
0.33000000000000002 0.38940164627735774 0
0.33000000000000002 0.40940826147780685 0
0.33000000000000002 0.42943883969420654 0
0.33000000000000002 0.44956581975525223 0
0.33000000000000002 0.4700395937979 0
0.33000000000000002 0.49166672136095579 0
0.33000000000000002 0.51792045074812387 0
0 0 0
0 0.020000000000000004 0
0 0.040000000000000001 0
0 0.54999999999999993 0
0 0.56000000000000005 0
0 0.58000000000000007 0
0.02 0 0
0.02 0.020000000000000004 0
0.02 0.040000000000000001 0
0.02 0.54999999999999993 0
0.02 0.56000000000000005 0
0.02 0.58000000000000007 0
0.040000000000000001 0 0
0.040000000000000001 0.020000000000000004 0
0.040000000000000001 0.040000000000000001 0
0.040000000000000001 0.54999999999999993 0
0.040000000000000001 0.56000000000000005 0
0.040000000000000001 0.58000000000000007 0
0.059999999999999998 0 0
0.059999999999999998 0.020000000000000004 0
0.059999999999999998 0.040000000000000001 0
0.059999999999999998 0.54999999999999993 0
0.059999999999999998 0.56000000000000005 0
0.059999999999999998 0.58000000000000007 0
0.080000000000000002 0 0
0.080000000000000002 0.020000000000000004 0
0.080000000000000002 0.040000000000000001 0
0.080000000000000002 0.54999999999999993 0
0.080000000000000002 0.56000000000000005 0
0.080000000000000002 0.58000000000000007 0
0.10000000000000001 0 0
0.10000000000000001 0.020000000000000004 0
0.10000000000000001 0.040000000000000001 0
0.10000000000000001 0.54999999999999993 0
0.10000000000000001 0.56000000000000005 0
0.10000000000000001 0.58000000000000007 0
0.12 0 0
0.12 0.020000000000000004 0
0.12 0.040000000000000001 0
0.12 0.54999999999999993 0
0.12 0.56000000000000005 0
0.12 0.58000000000000007 0
0.14000000000000001 0 0
0.14000000000000001 0.020000000000000004 0
0.14000000000000001 0.040000000000000001 0
0.14000000000000001 0.54999999999999993 0
0.14000000000000001 0.56000000000000005 0
0.14000000000000001 0.58000000000000007 0
0.16 0 0
0.16 0.020000000000000004 0
0.16 0.040000000000000001 0
0.16 0.54999999999999993 0
0.16 0.56000000000000005 0
0.16 0.58000000000000007 0
0.17999999999999999 0 0
0.17999999999999999 0.020000000000000004 0
0.17999999999999999 0.040000000000000001 0
0.17999999999999999 0.54999999999999993 0
0.17999999999999999 0.56000000000000005 0
0.17999999999999999 0.58000000000000007 0
0.20000000000000001 0 0
0.20000000000000001 0.020000000000000004 0
0.20000000000000001 0.040000000000000001 0
0.20000000000000001 0.54999999999999993 0
0.20000000000000001 0.56000000000000005 0
0.20000000000000001 0.58000000000000007 0
0.22 0 0
0.22 0.020000000000000004 0
0.22 0.040000000000000001 0
0.22 0.54999999999999993 0
0.22 0.56000000000000005 0
0.22 0.58000000000000007 0
0.23999999999999999 0 0
0.23999999999999999 0.020000000000000004 0
0.23999999999999999 0.040000000000000001 0
0.23999999999999999 0.54999999999999993 0
0.23999999999999999 0.56000000000000005 0
0.23999999999999999 0.58000000000000007 0
0.26000000000000001 0 0
0.26000000000000001 0.020000000000000004 0
0.26000000000000001 0.040000000000000001 0
0.26000000000000001 0.54999999999999993 0
0.26000000000000001 0.56000000000000005 0
0.26000000000000001 0.58000000000000007 0
0.28000000000000003 0 0
0.28000000000000003 0.020000000000000004 0
0.28000000000000003 0.040000000000000001 0
0.28000000000000003 0.54999999999999993 0
0.28000000000000003 0.56000000000000005 0
0.28000000000000003 0.58000000000000007 0
0.29999999999999999 0 0
0.29999999999999999 0.020000000000000004 0
0.29999999999999999 0.040000000000000001 0
0.29999999999999999 0.54999999999999993 0
0.29999999999999999 0.56000000000000005 0
0.29999999999999999 0.58000000000000007 0
0.32000000000000001 0 0
0.32000000000000001 0.020000000000000004 0
0.32000000000000001 0.040000000000000001 0
0.32000000000000001 0.54999999999999993 0
0.32000000000000001 0.56000000000000005 0
0.32000000000000001 0.58000000000000007 0
0.34000000000000002 0 0
0.34000000000000002 0.020000000000000004 0
0.34000000000000002 0.040000000000000001 0
0.34000000000000002 0.54999999999999993 0
0.34000000000000002 0.56000000000000005 0
0.34000000000000002 0.58000000000000007 0
0.35999999999999999 0 0
0.35999999999999999 0.020000000000000004 0
0.35999999999999999 0.040000000000000001 0
0.35999999999999999 0.54999999999999993 0
0.35999999999999999 0.56000000000000005 0
0.35999999999999999 0.58000000000000007 0
0.38 0 0
0.38 0.020000000000000004 0
0.38 0.040000000000000001 0
0.38 0.54999999999999993 0
0.38 0.56000000000000005 0
0.38 0.58000000000000007 0
0.40000000000000002 0 0
0.40000000000000002 0.020000000000000004 0
0.40000000000000002 0.040000000000000001 0
0.40000000000000002 0.54999999999999993 0
0.40000000000000002 0.56000000000000005 0
0.40000000000000002 0.58000000000000007 0
0.41999999999999998 0 0
0.41999999999999998 0.020000000000000004 0
0.41999999999999998 0.040000000000000001 0
0.41999999999999998 0.54999999999999993 0
0.41999999999999998 0.56000000000000005 0
0.41999999999999998 0.58000000000000007 0
0.44 0 0
0.44 0.020000000000000004 0
0.44 0.040000000000000001 0
0.44 0.54999999999999993 0
0.44 0.56000000000000005 0
0.44 0.58000000000000007 0
0.46000000000000002 0 0
0.46000000000000002 0.020000000000000004 0
0.46000000000000002 0.040000000000000001 0
0.46000000000000002 0.54999999999999993 0
0.46000000000000002 0.56000000000000005 0
0.46000000000000002 0.58000000000000007 0
0.47999999999999998 0 0
0.47999999999999998 0.020000000000000004 0
0.47999999999999998 0.040000000000000001 0
0.47999999999999998 0.54999999999999993 0
0.47999999999999998 0.56000000000000005 0
0.47999999999999998 0.58000000000000007 0
0.5 0 0
0.5 0.020000000000000004 0
0.5 0.040000000000000001 0
0.5 0.54999999999999993 0
0.5 0.56000000000000005 0
0.5 0.58000000000000007 0
0.52000000000000002 0 0
0.52000000000000002 0.020000000000000004 0
0.52000000000000002 0.040000000000000001 0
0.52000000000000002 0.54999999999999993 0
0.52000000000000002 0.56000000000000005 0
0.52000000000000002 0.58000000000000007 0
0.54000000000000004 0 0
0.54000000000000004 0.020000000000000004 0
0.54000000000000004 0.040000000000000001 0
0.54000000000000004 0.54999999999999993 0
0.54000000000000004 0.56000000000000005 0
0.54000000000000004 0.58000000000000007 0
0.56000000000000005 0 0
0.56000000000000005 0.020000000000000004 0
0.56000000000000005 0.040000000000000001 0
0.56000000000000005 0.54999999999999993 0
0.56000000000000005 0.56000000000000005 0
0.56000000000000005 0.58000000000000007 0
0.57999999999999996 0 0
0.57999999999999996 0.020000000000000004 0
0.57999999999999996 0.040000000000000001 0
0.57999999999999996 0.54999999999999993 0
0.57999999999999996 0.56000000000000005 0
0.57999999999999996 0.58000000000000007 0
0.59999999999999998 0 0
0.59999999999999998 0.020000000000000004 0
0.59999999999999998 0.040000000000000001 0
0.59999999999999998 0.54999999999999993 0
0.59999999999999998 0.56000000000000005 0
0.59999999999999998 0.58000000000000007 0
0.62 0 0
0.62 0.020000000000000004 0
0.62 0.040000000000000001 0
0.62 0.54999999999999993 0
0.62 0.56000000000000005 0
0.62 0.58000000000000007 0
0.64000000000000001 0 0
0.64000000000000001 0.020000000000000004 0
0.64000000000000001 0.040000000000000001 0
0.64000000000000001 0.54999999999999993 0
0.64000000000000001 0.56000000000000005 0
0.64000000000000001 0.58000000000000007 0
0.66000000000000003 0 0
0.66000000000000003 0.020000000000000004 0
0.66000000000000003 0.040000000000000001 0
0.66000000000000003 0.54999999999999993 0
0.66000000000000003 0.56000000000000005 0
0.66000000000000003 0.58000000000000007 0
0.68000000000000005 0 0
0.68000000000000005 0.020000000000000004 0
0.68000000000000005 0.040000000000000001 0
0.68000000000000005 0.54999999999999993 0
0.68000000000000005 0.56000000000000005 0
0.68000000000000005 0.58000000000000007 0
0.70000000000000007 0 0
0.70000000000000007 0.020000000000000004 0
0.70000000000000007 0.040000000000000001 0
0.70000000000000007 0.54999999999999993 0
0.70000000000000007 0.56000000000000005 0
0.70000000000000007 0.58000000000000007 0
0.71999999999999997 0 0
0.71999999999999997 0.020000000000000004 0
0.71999999999999997 0.040000000000000001 0
0.71999999999999997 0.54999999999999993 0
0.71999999999999997 0.56000000000000005 0
0.71999999999999997 0.58000000000000007 0
0.73999999999999999 0 0
0.73999999999999999 0.020000000000000004 0
0.73999999999999999 0.040000000000000001 0
0.73999999999999999 0.54999999999999993 0
0.73999999999999999 0.56000000000000005 0
0.73999999999999999 0.58000000000000007 0
0.76000000000000001 0 0
0.76000000000000001 0.020000000000000004 0
0.76000000000000001 0.040000000000000001 0
0.76000000000000001 0.54999999999999993 0
0.76000000000000001 0.56000000000000005 0
0.76000000000000001 0.58000000000000007 0
0.78000000000000003 0 0
0.78000000000000003 0.020000000000000004 0
0.78000000000000003 0.040000000000000001 0
0.78000000000000003 0.54999999999999993 0
0.78000000000000003 0.56000000000000005 0
0.78000000000000003 0.58000000000000007 0
0.80000000000000004 0 0
0.80000000000000004 0.020000000000000004 0
0.80000000000000004 0.040000000000000001 0
0.80000000000000004 0.54999999999999993 0
0.80000000000000004 0.56000000000000005 0
0.80000000000000004 0.58000000000000007 0
0.82000000000000006 0 0
0.82000000000000006 0.020000000000000004 0
0.82000000000000006 0.040000000000000001 0
0.82000000000000006 0.54999999999999993 0
0.82000000000000006 0.56000000000000005 0
0.82000000000000006 0.58000000000000007 0
0.83999999999999997 0 0
0.83999999999999997 0.020000000000000004 0
0.83999999999999997 0.040000000000000001 0
0.83999999999999997 0.54999999999999993 0
0.83999999999999997 0.56000000000000005 0
0.83999999999999997 0.58000000000000007 0
0.85999999999999999 0 0
0.85999999999999999 0.020000000000000004 0
0.85999999999999999 0.040000000000000001 0
0.85999999999999999 0.54999999999999993 0
0.85999999999999999 0.56000000000000005 0
0.85999999999999999 0.58000000000000007 0
0.88 0 0
0.88 0.020000000000000004 0
0.88 0.040000000000000001 0
0.88 0.54999999999999993 0
0.88 0.56000000000000005 0
0.88 0.58000000000000007 0
0.90000000000000002 0 0
0.90000000000000002 0.020000000000000004 0
0.90000000000000002 0.040000000000000001 0
0.90000000000000002 0.54999999999999993 0
0.90000000000000002 0.56000000000000005 0
0.90000000000000002 0.58000000000000007 0
0.92000000000000004 0 0
0.92000000000000004 0.020000000000000004 0
0.92000000000000004 0.040000000000000001 0
0.92000000000000004 0.54999999999999993 0
0.92000000000000004 0.56000000000000005 0
0.92000000000000004 0.58000000000000007 0
0.94000000000000006 0 0
0.94000000000000006 0.020000000000000004 0
0.94000000000000006 0.040000000000000001 0
0.94000000000000006 0.54999999999999993 0
0.94000000000000006 0.56000000000000005 0
0.94000000000000006 0.58000000000000007 0
0.95999999999999996 0 0
0.95999999999999996 0.020000000000000004 0
0.95999999999999996 0.040000000000000001 0
0.95999999999999996 0.54999999999999993 0
0.95999999999999996 0.56000000000000005 0
0.95999999999999996 0.58000000000000007 0
0.97999999999999998 0 0
0.97999999999999998 0.020000000000000004 0
0.97999999999999998 0.040000000000000001 0
0.97999999999999998 0.54999999999999993 0
0.97999999999999998 0.56000000000000005 0
0.97999999999999998 0.58000000000000007 0
1 0 0
1 0.020000000000000004 0
1 0.040000000000000001 0
1 0.54999999999999993 0
1 0.56000000000000005 0
1 0.58000000000000007 0
VERTICES 681 1362
1 0
1 1
1 2
1 3
1 4
1 5
1 6
1 7
1 8
1 9
1 10
1 11
1 12
1 13
1 14
1 15
1 16
1 17
1 18
1 19
1 20
1 21
1 22
1 23
1 24
1 25
1 26
1 27
1 28
1 29
1 30
1 31
1 32
1 33
1 34
1 35
1 36
1 37
1 38
1 39
1 40
1 41
1 42
1 43
1 44
1 45
1 46
1 47
1 48
1 49
1 50
1 51
1 52
1 53
1 54
1 55
1 56
1 57
1 58
1 59
1 60
1 61
1 62
1 63
1 64
1 65
1 66
1 67
1 68
1 69
1 70
1 71
1 72
1 73
1 74
1 75
1 76
1 77
1 78
1 79
1 80
1 81
1 82
1 83
1 84
1 85
1 86
1 87
1 88
1 89
1 90
1 91
1 92
1 93
1 94
1 95
1 96
1 97
1 98
1 99
1 100
1 101
1 102
1 103
1 104
1 105
1 106
1 107
1 108
1 109
1 110
1 111
1 112
1 113
1 114
1 115
1 116
1 117
1 118
1 119
1 120
1 121
1 122
1 123
1 124
1 125
1 126
1 127
1 128
1 129
1 130
1 131
1 132
1 133
1 134
1 135
1 136
1 137
1 138
1 139
1 140
1 141
1 142
1 143
1 144
1 145
1 146
1 147
1 148
1 149
1 150
1 151
1 152
1 153
1 154
1 155
1 156
1 157
1 158
1 159
1 160
1 161
1 162
1 163
1 164
1 165
1 166
1 167
1 168
1 169
1 170
1 171
1 172
1 173
1 174
1 175
1 176
1 177
1 178
1 179
1 180
1 181
1 182
1 183
1 184
1 185
1 186
1 187
1 188
1 189
1 190
1 191
1 192
1 193
1 194
1 195
1 196
1 197
1 198
1 199
1 200
1 201
1 202
1 203
1 204
1 205
1 206
1 207
1 208
1 209
1 210
1 211
1 212
1 213
1 214
1 215
1 216
1 217
1 218
1 219
1 220
1 221
1 222
1 223
1 224
1 225
1 226
1 227
1 228
1 229
1 230
1 231
1 232
1 233
1 234
1 235
1 236
1 237
1 238
1 239
1 240
1 241
1 242
1 243
1 244
1 245
1 246
1 247
1 248
1 249
1 250
1 251
1 252
1 253
1 254
1 255
1 256
1 257
1 258
1 259
1 260
1 261
1 262
1 263
1 264
1 265
1 266
1 267
1 268
1 269
1 270
1 271
1 272
1 273
1 274
1 275
1 276
1 277
1 278
1 279
1 280
1 281
1 282
1 283
1 284
1 285
1 286
1 287
1 288
1 289
1 290
1 291
1 292
1 293
1 294
1 295
1 296
1 297
1 298
1 299
1 300
1 301
1 302
1 303
1 304
1 305
1 306
1 307
1 308
1 309
1 310
1 311
1 312
1 313
1 314
1 315
1 316
1 317
1 318
1 319
1 320
1 321
1 322
1 323
1 324
1 325
1 326
1 327
1 328
1 329
1 330
1 331
1 332
1 333
1 334
1 335
1 336
1 337
1 338
1 339
1 340
1 341
1 342
1 343
1 344
1 345
1 346
1 347
1 348
1 349
1 350
1 351
1 352
1 353
1 354
1 355
1 356
1 357
1 358
1 359
1 360
1 361
1 362
1 363
1 364
1 365
1 366
1 367
1 368
1 369
1 370
1 371
1 372
1 373
1 374
1 375
1 376
1 377
1 378
1 379
1 380
1 381
1 382
1 383
1 384
1 385
1 386
1 387
1 388
1 389
1 390
1 391
1 392
1 393
1 394
1 395
1 396
1 397
1 398
1 399
1 400
1 401
1 402
1 403
1 404
1 405
1 406
1 407
1 408
1 409
1 410
1 411
1 412
1 413
1 414
1 415
1 416
1 417
1 418
1 419
1 420
1 421
1 422
1 423
1 424
1 425
1 426
1 427
1 428
1 429
1 430
1 431
1 432
1 433
1 434
1 435
1 436
1 437
1 438
1 439
1 440
1 441
1 442
1 443
1 444
1 445
1 446
1 447
1 448
1 449
1 450
1 451
1 452
1 453
1 454
1 455
1 456
1 457
1 458
1 459
1 460
1 461
1 462
1 463
1 464
1 465
1 466
1 467
1 468
1 469
1 470
1 471
1 472
1 473
1 474
1 475
1 476
1 477
1 478
1 479
1 480
1 481
1 482
1 483
1 484
1 485
1 486
1 487
1 488
1 489
1 490
1 491
1 492
1 493
1 494
1 495
1 496
1 497
1 498
1 499
1 500
1 501
1 502
1 503
1 504
1 505
1 506
1 507
1 508
1 509
1 510
1 511
1 512
1 513
1 514
1 515
1 516
1 517
1 518
1 519
1 520
1 521
1 522
1 523
1 524
1 525
1 526
1 527
1 528
1 529
1 530
1 531
1 532
1 533
1 534
1 535
1 536
1 537
1 538
1 539
1 540
1 541
1 542
1 543
1 544
1 545
1 546
1 547
1 548
1 549
1 550
1 551
1 552
1 553
1 554
1 555
1 556
1 557
1 558
1 559
1 560
1 561
1 562
1 563
1 564
1 565
1 566
1 567
1 568
1 569
1 570
1 571
1 572
1 573
1 574
1 575
1 576
1 577
1 578
1 579
1 580
1 581
1 582
1 583
1 584
1 585
1 586
1 587
1 588
1 589
1 590
1 591
1 592
1 593
1 594
1 595
1 596
1 597
1 598
1 599
1 600
1 601
1 602
1 603
1 604
1 605
1 606
1 607
1 608
1 609
1 610
1 611
1 612
1 613
1 614
1 615
1 616
1 617
1 618
1 619
1 620
1 621
1 622
1 623
1 624
1 625
1 626
1 627
1 628
1 629
1 630
1 631
1 632
1 633
1 634
1 635
1 636
1 637
1 638
1 639
1 640
1 641
1 642
1 643
1 644
1 645
1 646
1 647
1 648
1 649
1 650
1 651
1 652
1 653
1 654
1 655
1 656
1 657
1 658
1 659
1 660
1 661
1 662
1 663
1 664
1 665
1 666
1 667
1 668
1 669
1 670
1 671
1 672
1 673
1 674
1 675
1 676
1 677
1 678
1 679
1 680
POINT_DATA 681
SCALARS is_boundary int 1
LOOKUP_TABLE default
0
0
0
0
0
0
0
0
0
0
0
0
0
0
0
0
0
0
0
0
0
0
0
0
0
0
0
0
0
0
0
0
0
0
0
0
0
0
0
0
0
0
0
0
0
0
0
0
0
0
0
0
0
0
0
0
0
0
0
0
0
0
0
0
0
0
0
0
0
0
0
0
0
0
0
0
0
0
0
0
0
0
0
0
0
0
0
0
0
0
0
0
0
0
0
0
0
0
0
0
0
0
0
0
0
0
0
0
0
0
0
0
0
0
0
0
0
0
0
0
0
0
0
0
0
0
0
0
0
0
0
0
0
0
0
0
0
0
0
0
0
0
0
0
0
0
0
0
0
0
0
0
0
0
0
0
0
0
0
0
0
0
0
0
0
0
0
0
0
0
0
0
0
0
0
0
0
0
0
0
0
0
0
0
0
0
0
0
0
0
0
0
0
0
0
0
0
0
0
0
0
0
0
0
0
0
0
0
0
0
0
0
0
0
0
0
0
0
0
0
0
0
0
0
0
0
0
0
0
0
0
0
0
0
0
0
0
0
0
0
0
0
0
0
0
0
0
0
0
0
0
0
0
0
0
0
0
0
0
0
0
0
0
0
0
0
0
0
0
0
0
0
0
0
0
0
0
0
0
0
0
0
0
0
0
0
0
0
0
0
0
0
0
0
0
0
0
0
0
0
0
0
0
0
0
0
0
0
0
0
0
0
0
0
0
0
0
0
0
0
0
0
0
0
0
0
0
0
0
0
0
0
0
0
0
0
0
0
0
0
0
0
0
0
0
0
0
0
0
0
0
0
0
0
0
0
0
0
0
0
0
0
0
0
0
0
0
0
0
0
0
0
0
0
0
1
1
1
1
1
1
1
1
1
1
1
1
1
1
1
1
1
1
1
1
1
1
1
1
1
1
1
1
1
1
1
1
1
1
1
1
1
1
1
1
1
1
1
1
1
1
1
1
1
1
1
1
1
1
1
1
1
1
1
1
1
1
1
1
1
1
1
1
1
1
1
1
1
1
1
1
1
1
1
1
1
1
1
1
1
1
1
1
1
1
1
1
1
1
1
1
1
1
1
1
1
1
1
1
1
1
1
1
1
1
1
1
1
1
1
1
1
1
1
1
1
1
1
1
1
1
1
1
1
1
1
1
1
1
1
1
1
1
1
1
1
1
1
1
1
1
1
1
1
1
1
1
1
1
1
1
1
1
1
1
1
1
1
1
1
1
1
1
1
1
1
1
1
1
1
1
1
1
1
1
1
1
1
1
1
1
1
1
1
1
1
1
1
1
1
1
1
1
1
1
1
1
1
1
1
1
1
1
1
1
1
1
1
1
1
1
1
1
1
1
1
1
1
1
1
1
1
1
1
1
1
1
1
1
1
1
1
1
1
1
1
1
1
1
1
1
1
1
1
1
1
1
1
1
1
1
1
1
1
1
1
1
1
1
1
1
1
1
1
1
1
1
1
1
1
1
1
1
1
1
1
1
1
1
1
1
1
1
1
1
1
1
1
1
1
1
1
1
1
1
1
1
1
1
1
1
SCALARS rho float 1
LOOKUP_TABLE default
1020
1020
1020
876.66297802084796
862
862
862
862
862
862
862
862
862
862
862
862
862
862
862
862
862
862
862
862
850
1020
1020
1020
1020
1019.8164481856325
1003.3217123295942
999.86049840551982
999.17203063227862
999.04261140456879
999.01980643458819
999.01604735915953
999.01546680575598
999.01537930692029
999.01534190878237
999.01516128332878
999.01401081096424
999.00717652074218
998.96984988722807
998.78394378050575
997.94829834281973
994.60511790676946
982.92706173511374
947.8447814532758
862
850
1020
1020
1020
1020
1020
1004.4912656665654
1000.8814565039881
1000.1638818874749
1000.0286103276271
1000.0046783753648
1000.0007169230419
1000.0001026248849
1000.0000096793767
999.99996993893592
999.99977891435401
999.99856670257032
999.99139154303975
999.95233686809047
999.75841992014944
998.88919695107325
995.42376722250924
983.40458950128959
948.02282215991113
862
850
1020
1020
1020
1020
1020
1004.5530601012281
1000.8945072860681
1000.1665505338046
1000.0291322333594
1000.004774213179
1000.0007333018539
1000.0001052114881
1000.0000099530741
999.99996923850972
999.99977417607033
999.99853907844181
999.99124338702768
999.95160787929171
999.75515601209622
998.87619199579103
995.38017916888884
983.29789580674537
947.91426010135046
862
850
1020
1020
1020
1020
1020
1004.572543763067
1000.8992390708481
1000.1675828757345
1000.0293417843559
1000.0048139558342
1000.0007403221534
1000.0001063580703
1000.0000100824045
999.99996895977915
999.99977236198947
999.99852908324556
999.9911931000936
999.95137830788804
999.75422064170652
998.87291506515044
995.37106945095752
983.2810262413077
947.89838536510638
862
850
1020
1020
1020
1020
1020
1004.5774360852072
1000.9006355346012
1000.1679188684691
1000.0294141333604
1000.0048282636355
1000.0007429432226
1000.0001068016031
1000.0000101367198
999.99996887159432
999.99977181473264
999.99852629925499
999.99118030498721
999.95132561878199
999.7540303721205
998.87233827602518
995.36971188407779
983.27876535750511
947.89617176731372
862
850
1020
1020
1020
1020
1020
1004.5784730993944
1000.9009779998514
1000.1680107667348
1000.029435432652
1000.0048326957769
1000.0007437880911
1000.000106949828
1000.0000101566884
999.99996885091105
999.99977169346289
999.99852575442173
999.99117813514385
999.95131798781313
999.75400697879877
998.87227713991956
995.36957835309363
983.27853198918706
947.89590538385141
862
850
1020
1020
1020
1020
1020
1004.5786351910519
1000.9010376151612
1000.1680282186271
1000.0294397421244
1000.0048336331345
1000.0007439727224
1000.0001069831353
1000.0000101615378
999.99996884802954
999.99977167763541
999.99852569745235
999.99117797087547
999.95131762840651
999.75400641211013
998.87227619614555
995.36957462099053
983.2785185252983
947.89588140161482
862
850
1020
1020
1020
1020
1020
1004.5784730993932
1000.9009779998501
1000.1680107667337
1000.0294354326509
1000.0048326957756
1000.0007437880899
1000.0001069498264
1000.0000101566873
999.99996885090991
999.99977169346153
999.99852575442014
999.99117813514249
999.95131798781199
999.75400697879763
998.8722771399182
995.36957835309249
983.27853198918569
947.89590538385028
862
850
1020
1020
1020
1020
1020
1004.5774360852072
1000.9006355346012
1000.1679188684689
1000.0294141333604
1000.0048282636355
1000.0007429432226
1000.0001068016029
1000.0000101367198
999.99996887159432
999.99977181473264
999.99852629925499
999.99118030498698
999.95132561878199
999.7540303721205
998.87233827602518
995.36971188407779
983.27876535750511
947.89617176731372
862
850
1020
1020
1020
1020
1020
1004.5725437630676
1000.8992390708486
1000.167582875735
1000.0293417843566
1000.0048139558348
1000.0007403221541
1000.000106358071
1000.000010082405
999.99996895977984
999.99977236199038
999.99852908324624
999.99119310009405
999.95137830788849
999.75422064170698
998.87291506515112
995.3710694509582
983.28102624130838
947.89838536510706
862
850
1020
1020
1020
1020
1020
1004.5530601012283
1000.8945072860686
1000.1665505338049
1000.0291322333599
1000.0047742131794
1000.0007333018541
1000.0001052114885
1000.0000099530744
999.99996923851018
999.99977417607079
999.99853907844204
999.99124338702791
999.95160787929217
999.75515601209645
998.87619199579126
995.3801791688893
983.2978958067456
947.91426010135069
862
850
1020
1020
1020
1020
1020
1004.4912656665647
1000.8814565039877
1000.1638818874742
1000.0286103276267
1000.0046783753639
1000.0007169230412
1000.0001026248842
1000.0000096793763
999.99996993893501
999.99977891435333
999.99856670256986
999.9913915430393
999.95233686808979
999.75841992014875
998.88919695107279
995.42376722250879
983.40458950128891
948.0228221599109
862
850
1020
1020
1020
1020
1019.8164481856334
1003.3217123295951
999.8604984055205
999.1720306322793
999.04261140456947
999.01980643458865
999.01604735916021
999.01546680575666
999.01537930692098
999.01534190878283
999.01516128332923
999.01401081096515
999.00717652074286
998.96984988722852
998.78394378050643
997.94829834282041
994.60511790677015
982.92706173511442
947.84478145327648
862
850
1020
1020
1020
876.66297802084864
862
862
862
862
862
862
862
862
862
862
862
862
862
862
862
862
862
862
862
862
850
1000
1000
1000
1000
1000
1000
1000
1000
1000
1000
1000
1000
1000
1000
1000
1000
1000
1000
1000
1000
1000
1000
1000
1000
1000
1000
1000
1000
1000
1000
1000
1000
1000
1000
1000
1000
1000
1000
1000
1000
1000
1000
1000
1000
1000
1000
1000
1000
1000
1000
1000
1000
1000
1000
1000
1000
1000
1000
1000
1000
1000
1000
1000
1000
1000
1000
1000
1000
1000
1000
1000
1000
1000
1000
1000
1000
1000
1000
1000
1000
1000
1000
1000
1000
1000
1000
1000
1000
1000
1000
1000
1000
1000
1000
1000
1000
1000
1000
1000
1000
1000
1000
1000
1000
1000
1000
1000
1000
1000
1000
1000
1000
1000
1000
1000
1000
1000
1000
1000
1000
1000
1000
1000
1000
1000
1000
1000
1000
1000
1000
1000
1000
1000
1000
1000
1000
1000
1000
1000
1000
1000
1000
1000
1000
1000
1000
1000
1000
1000
1000
1000
1000
1000
1000
1000
1000
1000
1000
1000
1000
1000
1000
1000
1000
1000
1000
1000
1000
1000
1000
1000
1000
1000
1000
1000
1000
1000
1000
1000
1000
1000
1000
1000
1000
1000
1000
1000
1000
1000
1000
1000
1000
1000
1000
1000
1000
1000
1000
1000
1000
1000
1000
1000
1000
1000
1000
1000
1000
1000
1000
1000
1000
1000
1000
1000
1000
1000
1000
1000
1000
1000
1000
1000
1000
1000
1000
1000
1000
1000
1000
1000
1000
1000
1000
1000
1000
1000
1000
1000
1000
1000
1000
1000
1000
1000
1000
1000
1000
1000
1000
1000
1000
1000
1000
1000
1000
1000
1000
1000
1000
1000
1000
1000
1000
1000
1000
1000
1000
1000
1000
1000
1000
1000
1000
1000
1000
1000
1000
1000
1000
1000
1000
1000
1000
1000
1000
1000
1000
1000
1000
1000
1000
1000
1000
1000
1000
1000
1000
1000
1000
1000
1000
1000
1000
1000
1000
SCALARS p float 1
LOOKUP_TABLE default
25004.681136676067
25004.681136676067
25004.681136676067
0
0
0
0
0
0
0
0
0
0
0
0
0
0
0
0
0
0
0
0
0
0
25004.681136676067
25004.681136676067
25004.681136676067
25004.681136676067
24761.474447673489
3949.503072335483
0
0
0
0
0
0
0
0
0
0
0
0
0
0
0
0
0
0
0
25004.681136676067
25004.681136676067
25004.681136676067
25004.681136676067
25004.681136676067
5358.8911425938823
1040.3985627452435
193.01663299200032
33.682968614562533
5.5074607769805057
0.84396362000525982
0.12081005159333255
0.011394562509080077
0
0
0
0
0
0
0
0
0
0
0
0
25004.681136676067
25004.681136676067
25004.681136676067
25004.681136676067
25004.681136676067
5433.631773119474
1055.8439797649219
196.16127892848547
34.297462479340204
5.6202842511233726
0.86324484146013603
0.12385500273050759
0.011716759216793906
0
0
0
0
0
0
0
0
0
0
0
0
25004.681136676067
25004.681136676067
25004.681136676067
25004.681136676067
25004.681136676067
5457.203065363924
1061.4442789825405
197.37777054715383
34.544189189371799
5.6670706505755168
0.8715091745334469
0.12520476037250564
0.011869006911816424
0
0
0
0
0
0
0
0
0
0
0
0
25004.681136676067
25004.681136676067
25004.681136676067
25004.681136676067
25004.681136676067
5463.1222170493738
1063.0970926412715
197.77369946488335
34.629373450980786
5.6839142815649168
0.87459471082882756
0.12572688748079741
0.01193294678761043
0
0
0
0
0
0
0
0
0
0
0
0
25004.681136676067
25004.681136676067
25004.681136676067
25004.681136676067
25004.681136676067
5464.3769081324081
1063.5024266089838
197.88199117429289
34.654451404118433
5.6891319495608634
0.87558929461135959
0.12590137804850648
0.011956453933440312
0
0
0
0
0
0
0
0
0
0
0
0
25004.681136676067
25004.681136676067
25004.681136676067
25004.681136676067
25004.681136676067
5464.573024721999
1063.5729859990145
197.90255626182008
34.659525411073375
5.6902354388409293
0.87580664342995973
0.12594058720762596
0.011962162710891075
0
0
0
0
0
0
0
0
0
0
0
0
25004.681136676067
25004.681136676067
25004.681136676067
25004.681136676067
25004.681136676067
5464.3769081310638
1063.5024266073781
197.88199117298595
34.654451402811482
5.689131947992518
0.87558929330440505
0.12590137595737921
0.011956452626485767
0
0
0
0
0
0
0
0
0
0
0
0
25004.681136676067
25004.681136676067
25004.681136676067
25004.681136676067
25004.681136676067
5463.1222170493738
1063.0970926412715
197.77369946462196
34.629373450980786
5.6839142815649168
0.87459471082882756
0.1257268872194065
0.01193294678761043
0
0
0
0
0
0
0
0
0
0
0
0
25004.681136676067
25004.681136676067
25004.681136676067
25004.681136676067
25004.681136676067
5457.2030653647453
1061.4442789830632
197.37777054767662
34.544189190155969
5.6670706513596896
0.87150917531761962
0.12520476115667836
0.011869007434598242
0
0
0
0
0
0
0
0
0
0
0
0
25004.681136676067
25004.681136676067
25004.681136676067
25004.681136676067
25004.681136676067
5433.6317731197732
1055.8439797654448
196.16127892874687
34.297462479862986
5.6202842516461544
0.86324484172152693
0.12385500325328941
0.011716759478184815
0
0
0
0
0
0
0
0
0
0
0
0
25004.681136676067
25004.681136676067
25004.681136676067
25004.681136676067
25004.681136676067
5358.891142593061
1040.3985627447207
193.01663299121614
33.682968614039751
5.5074607759349421
0.84396361922108709
0.12081005080915982
0.011394561986298259
0
0
0
0
0
0
0
0
0
0
0
0
25004.681136676067
25004.681136676067
25004.681136676067
25004.681136676067
24761.474447674645
3949.5030723365658
0
0
0
0
0
0
0
0
0
0
0
0
0
0
0
0
0
0
0
25004.681136676067
25004.681136676067
25004.681136676067
0
0
0
0
0
0
0
0
0
0
0
0
0
0
0
0
0
0
0
0
0
0
0
0
0
0
0
0
0
23191.533013323697
24921.872362737577
0
0
0
0
24946.303214459134
24998.261167780394
0
0
0
0
24975.36889854438
25001.33507660127
0
0
0
0
24976.114859900226
25001.454586127078
0
0
0
0
24976.079674986151
25001.449667502529
0
0
0
0
24976.066246088663
25001.448476049383
0
0
0
0
24976.064942217148
25001.448287190495
0
0
0
0
24976.06485856586
25001.448260073055
0
0
0
0
24976.064844916251
25001.448256121796
0
0
0
0
24976.064844916251
25001.448256122094
0
0
0
0
24976.06485856586
25001.448260073055
0
0
0
0
24976.064942216886
25001.448287190495
0
0
0
0
24976.066246088663
25001.448476049682
0
0
0
0
24976.079674986151
25001.449667502828
0
0
0
0
24976.114859900226
25001.454586127078
0
0
0
0
24975.36889854438
25001.335076601568
0
0
0
0
24946.303214459134
24998.261167780132
0
0
0
0
23191.533013323697
24921.872362737278
0
0
0
0
0
0
0
0
0
0
0
0
0
0
0
0
0
0
0
0
0
0
0
0
0
0
0
0
0
0
0
0
0
0
0
0
0
0
0
0
0
0
0
0
0
0
0
0
0
0
0
0
0
0
0
0
0
0
0
0
0
0
0
0
0
0
0
0
0
0
0
0
0
0
0
0
0
0
0
0
0
0
0
0
0
0
0
0
0
0
0
0
0
0
0
0
0
0
0
0
0
0
0
0
0
0
0
0
0
0
0
0
0
0
0
0
0
0
0
0
0
0
0
0
0
0
0
0
0
0
0
0
0
0
0
0
0
0
0
0
0
0
0
0
0
0
0
0
0
0
0
0
0
0
0
0
0
0
0
0
0
0
0
0
0
0
0
0
0
0
0
0
0
0
0
0
0
0
0
0
0
0
0
0
0
0
0
0
0
0
0
0
0
0
0
SCALARS m float 1
LOOKUP_TABLE default
0.39942306611962441
0.39942306611962441
0.39942306611962441
0.39942306611962441
0.39942306611962441
0.39942306611962441
0.39942306611962441
0.39942306611962441
0.39942306611962441
0.39942306611962441
0.39942306611962441
0.39942306611962441
0.39942306611962441
0.39942306611962441
0.39942306611962441
0.39942306611962441
0.39942306611962441
0.39942306611962441
0.39942306611962441
0.39942306611962441
0.39942306611962441
0.39942306611962441
0.39942306611962441
0.39942306611962441
0.39942306611962441
0.39942306611962441
0.39942306611962441
0.39942306611962441
0.39942306611962441
0.39942306611962441
0.39942306611962441
0.39942306611962441
0.39942306611962441
0.39942306611962441
0.39942306611962441
0.39942306611962441
0.39942306611962441
0.39942306611962441
0.39942306611962441
0.39942306611962441
0.39942306611962441
0.39942306611962441
0.39942306611962441
0.39942306611962441
0.39942306611962441
0.39942306611962441
0.39942306611962441
0.39942306611962441
0.39942306611962441
0.39942306611962441
0.39942306611962441
0.39942306611962441
0.39942306611962441
0.39942306611962441
0.39942306611962441
0.39942306611962441
0.39942306611962441
0.39942306611962441
0.39942306611962441
0.39942306611962441
0.39942306611962441
0.39942306611962441
0.39942306611962441
0.39942306611962441
0.39942306611962441
0.39942306611962441
0.39942306611962441
0.39942306611962441
0.39942306611962441
0.39942306611962441
0.39942306611962441
0.39942306611962441
0.39942306611962441
0.39942306611962441
0.39942306611962441
0.39942306611962441
0.39942306611962441
0.39942306611962441
0.39942306611962441
0.39942306611962441
0.39942306611962441
0.39942306611962441
0.39942306611962441
0.39942306611962441
0.39942306611962441
0.39942306611962441
0.39942306611962441
0.39942306611962441
0.39942306611962441
0.39942306611962441
0.39942306611962441
0.39942306611962441
0.39942306611962441
0.39942306611962441
0.39942306611962441
0.39942306611962441
0.39942306611962441
0.39942306611962441
0.39942306611962441
0.39942306611962441
0.39942306611962441
0.39942306611962441
0.39942306611962441
0.39942306611962441
0.39942306611962441
0.39942306611962441
0.39942306611962441
0.39942306611962441
0.39942306611962441
0.39942306611962441
0.39942306611962441
0.39942306611962441
0.39942306611962441
0.39942306611962441
0.39942306611962441
0.39942306611962441
0.39942306611962441
0.39942306611962441
0.39942306611962441
0.39942306611962441
0.39942306611962441
0.39942306611962441
0.39942306611962441
0.39942306611962441
0.39942306611962441
0.39942306611962441
0.39942306611962441
0.39942306611962441
0.39942306611962441
0.39942306611962441
0.39942306611962441
0.39942306611962441
0.39942306611962441
0.39942306611962441
0.39942306611962441
0.39942306611962441
0.39942306611962441
0.39942306611962441
0.39942306611962441
0.39942306611962441
0.39942306611962441
0.39942306611962441
0.39942306611962441
0.39942306611962441
0.39942306611962441
0.39942306611962441
0.39942306611962441
0.39942306611962441
0.39942306611962441
0.39942306611962441
0.39942306611962441
0.39942306611962441
0.39942306611962441
0.39942306611962441
0.39942306611962441
0.39942306611962441
0.39942306611962441
0.39942306611962441
0.39942306611962441
0.39942306611962441
0.39942306611962441
0.39942306611962441
0.39942306611962441
0.39942306611962441
0.39942306611962441
0.39942306611962441
0.39942306611962441
0.39942306611962441
0.39942306611962441
0.39942306611962441
0.39942306611962441
0.39942306611962441
0.39942306611962441
0.39942306611962441
0.39942306611962441
0.39942306611962441
0.39942306611962441
0.39942306611962441
0.39942306611962441
0.39942306611962441
0.39942306611962441
0.39942306611962441
0.39942306611962441
0.39942306611962441
0.39942306611962441
0.39942306611962441
0.39942306611962441
0.39942306611962441
0.39942306611962441
0.39942306611962441
0.39942306611962441
0.39942306611962441
0.39942306611962441
0.39942306611962441
0.39942306611962441
0.39942306611962441
0.39942306611962441
0.39942306611962441
0.39942306611962441
0.39942306611962441
0.39942306611962441
0.39942306611962441
0.39942306611962441
0.39942306611962441
0.39942306611962441
0.39942306611962441
0.39942306611962441
0.39942306611962441
0.39942306611962441
0.39942306611962441
0.39942306611962441
0.39942306611962441
0.39942306611962441
0.39942306611962441
0.39942306611962441
0.39942306611962441
0.39942306611962441
0.39942306611962441
0.39942306611962441
0.39942306611962441
0.39942306611962441
0.39942306611962441
0.39942306611962441
0.39942306611962441
0.39942306611962441
0.39942306611962441
0.39942306611962441
0.39942306611962441
0.39942306611962441
0.39942306611962441
0.39942306611962441
0.39942306611962441
0.39942306611962441
0.39942306611962441
0.39942306611962441
0.39942306611962441
0.39942306611962441
0.39942306611962441
0.39942306611962441
0.39942306611962441
0.39942306611962441
0.39942306611962441
0.39942306611962441
0.39942306611962441
0.39942306611962441
0.39942306611962441
0.39942306611962441
0.39942306611962441
0.39942306611962441
0.39942306611962441
0.39942306611962441
0.39942306611962441
0.39942306611962441
0.39942306611962441
0.39942306611962441
0.39942306611962441
0.39942306611962441
0.39942306611962441
0.39942306611962441
0.39942306611962441
0.39942306611962441
0.39942306611962441
0.39942306611962441
0.39942306611962441
0.39942306611962441
0.39942306611962441
0.39942306611962441
0.39942306611962441
0.39942306611962441
0.39942306611962441
0.39942306611962441
0.39942306611962441
0.39942306611962441
0.39942306611962441
0.39942306611962441
0.39942306611962441
0.39942306611962441
0.39942306611962441
0.39942306611962441
0.39942306611962441
0.39942306611962441
0.39942306611962441
0.39942306611962441
0.39942306611962441
0.39942306611962441
0.39942306611962441
0.39942306611962441
0.39942306611962441
0.39942306611962441
0.39942306611962441
0.39942306611962441
0.39942306611962441
0.39942306611962441
0.39942306611962441
0.39942306611962441
0.39942306611962441
0.39942306611962441
0.39942306611962441
0.39942306611962441
0.39942306611962441
0.39942306611962441
0.39942306611962441
0.39942306611962441
0.39942306611962441
0.39942306611962441
0.39942306611962441
0.39942306611962441
0.39942306611962441
0.39942306611962441
0.39942306611962441
0.39942306611962441
0.39942306611962441
0.39942306611962441
0.39942306611962441
0.39942306611962441
0.39942306611962441
0.39942306611962441
0.39942306611962441
0.39942306611962441
0.39942306611962441
0.39942306611962441
0.39942306611962441
0.39942306611962441
0.39942306611962441
0.39942306611962441
0.39942306611962441
0.39942306611962441
0.39942306611962441
0.39942306611962441
0.39942306611962441
0.39942306611962441
0.39942306611962441
0.39942306611962441
0.39942306611962441
0.39942306611962441
0.39942306611962441
0.39942306611962441
0.39942306611962441
0.39942306611962441
0.39942306611962441
0.39942306611962441
0.39942306611962441
0.39942306611962441
0.39942306611962441
0.39942306611962441
0.39942306611962441
0.39942306611962441
0.39942306611962441
0.39942306611962441
0.39942306611962441
0.39942306611962441
0.39942306611962441
0.39942306611962441
0.39942306611962441
0.39942306611962441
0.39942306611962441
0.39942306611962441
0.39942306611962441
0.39942306611962441
0.39942306611962441
0.39942306611962441
0.39942306611962441
0.39942306611962441
0.39942306611962441
0.39942306611962441
0.39942306611962441
0.39942306611962441
0.39942306611962441
0.39942306611962441
0.39942306611962441
0.39942306611962441
0.39942306611962441
0.39942306611962441
0.39942306611962441
0.39942306611962441
0.39942306611962441
0.39942306611962441
0.39942306611962441
0.39942306611962441
0.39942306611962441
0.39942306611962441
0.39942306611962441
0.39942306611962441
0.39942306611962441
0.39942306611962441
0.39942306611962441
0.39942306611962441
0.39942306611962441
0.39942306611962441
0.39942306611962441
0.39942306611962441
0.39942306611962441
0.39942306611962441
0.39942306611962441
0.39942306611962441
0.39942306611962441
0.39942306611962441
0.39942306611962441
0.39942306611962441
0.39942306611962441
0.39942306611962441
0.39942306611962441
0.39942306611962441
0.39942306611962441
0.39942306611962441
0.39942306611962441
0.39942306611962441
0.39942306611962441
0.39942306611962441
0.39942306611962441
0.39942306611962441
0.39942306611962441
0.39942306611962441
0.39942306611962441
0.39942306611962441
0.39942306611962441
0.39942306611962441
0.39942306611962441
0.39942306611962441
0.39942306611962441
0.39942306611962441
0.39942306611962441
0.39942306611962441
0.39942306611962441
0.39942306611962441
0.39942306611962441
0.39942306611962441
0.39942306611962441
0.39942306611962441
0.39942306611962441
0.39942306611962441
0.39942306611962441
0.39942306611962441
0.39942306611962441
0.39942306611962441
0.39942306611962441
0.39942306611962441
0.39942306611962441
0.39942306611962441
0.39942306611962441
0.39942306611962441
0.39942306611962441
0.39942306611962441
0.39942306611962441
0.39942306611962441
0.39942306611962441
0.39942306611962441
0.39942306611962441
0.39942306611962441
0.39942306611962441
0.39942306611962441
0.39942306611962441
0.39942306611962441
0.39942306611962441
0.39942306611962441
0.39942306611962441
0.39942306611962441
0.39942306611962441
0.39942306611962441
0.39942306611962441
0.39942306611962441
0.39942306611962441
0.39942306611962441
0.39942306611962441
0.39942306611962441
0.39942306611962441
0.39942306611962441
0.39942306611962441
0.39942306611962441
0.39942306611962441
0.39942306611962441
0.39942306611962441
0.39942306611962441
0.39942306611962441
0.39942306611962441
0.39942306611962441
0.39942306611962441
0.39942306611962441
0.39942306611962441
0.39942306611962441
0.39942306611962441
0.39942306611962441
0.39942306611962441
0.39942306611962441
0.39942306611962441
0.39942306611962441
0.39942306611962441
0.39942306611962441
0.39942306611962441
0.39942306611962441
0.39942306611962441
0.39942306611962441
0.39942306611962441
0.39942306611962441
0.39942306611962441
0.39942306611962441
0.39942306611962441
0.39942306611962441
0.39942306611962441
0.39942306611962441
0.39942306611962441
0.39942306611962441
0.39942306611962441
0.39942306611962441
0.39942306611962441
0.39942306611962441
0.39942306611962441
0.39942306611962441
0.39942306611962441
0.39942306611962441
0.39942306611962441
0.39942306611962441
0.39942306611962441
0.39942306611962441
0.39942306611962441
0.39942306611962441
0.39942306611962441
0.39942306611962441
0.39942306611962441
0.39942306611962441
0.39942306611962441
0.39942306611962441
0.39942306611962441
0.39942306611962441
0.39942306611962441
0.39942306611962441
0.39942306611962441
0.39942306611962441
0.39942306611962441
0.39942306611962441
0.39942306611962441
0.39942306611962441
0.39942306611962441
0.39942306611962441
0.39942306611962441
0.39942306611962441
0.39942306611962441
0.39942306611962441
0.39942306611962441
0.39942306611962441
0.39942306611962441
0.39942306611962441
0.39942306611962441
0.39942306611962441
0.39942306611962441
0.39942306611962441
0.39942306611962441
0.39942306611962441
0.39942306611962441
0.39942306611962441
0.39942306611962441
0.39942306611962441
0.39942306611962441
0.39942306611962441
0.39942306611962441
0.39942306611962441
0.39942306611962441
0.39942306611962441
0.39942306611962441
0.39942306611962441
0.39942306611962441
0.39942306611962441
0.39942306611962441
0.39942306611962441
0.39942306611962441
0.39942306611962441
0.39942306611962441
0.39942306611962441
0.39942306611962441
0.39942306611962441
0.39942306611962441
0.39942306611962441
0.39942306611962441
0.39942306611962441
0.39942306611962441
0.39942306611962441
0.39942306611962441
0.39942306611962441
0.39942306611962441
0.39942306611962441
0.39942306611962441
0.39942306611962441
0.39942306611962441
0.39942306611962441
0.39942306611962441
0.39942306611962441
0.39942306611962441
0.39942306611962441
0.39942306611962441
0.39942306611962441
0.39942306611962441
0.39942306611962441
0.39942306611962441
0.39942306611962441
0.39942306611962441
0.39942306611962441
0.39942306611962441
0.39942306611962441
0.39942306611962441
0.39942306611962441
0.39942306611962441
0.39942306611962441
0.39942306611962441
0.39942306611962441
0.39942306611962441
0.39942306611962441
0.39942306611962441
0.39942306611962441
0.39942306611962441
0.39942306611962441
0.39942306611962441
0.39942306611962441
0.39942306611962441
0.39942306611962441
0.39942306611962441
0.39942306611962441
0.39942306611962441
0.39942306611962441
0.39942306611962441
0.39942306611962441
0.39942306611962441
0.39942306611962441
0.39942306611962441
0.39942306611962441
0.39942306611962441
0.39942306611962441
0.39942306611962441
0.39942306611962441
0.39942306611962441
0.39942306611962441
0.39942306611962441
0.39942306611962441
0.39942306611962441
0.39942306611962441
0.39942306611962441
0.39942306611962441
0.39942306611962441
0.39942306611962441
0.39942306611962441
0.39942306611962441
0.39942306611962441
0.39942306611962441
0.39942306611962441
0.39942306611962441
0.39942306611962441
0.39942306611962441
0.39942306611962441
0.39942306611962441
0.39942306611962441
0.39942306611962441
0.39942306611962441
0.39942306611962441
0.39942306611962441
0.39942306611962441
0.39942306611962441
0.39942306611962441
0.39942306611962441
0.39942306611962441
0.39942306611962441
0.39942306611962441
0.39942306611962441
0.39942306611962441
0.39942306611962441
0.39942306611962441
0.39942306611962441
0.39942306611962441
0.39942306611962441
0.39942306611962441
0.39942306611962441
0.39942306611962441
0.39942306611962441
0.39942306611962441
0.39942306611962441
0.39942306611962441
0.39942306611962441
0.39942306611962441
0.39942306611962441
0.39942306611962441
0.39942306611962441
0.39942306611962441
0.39942306611962441
VECTORS v float
0 -0.078546490107686134 0
0 -0.23311176759720401 0
0 -0.44741624061983887 0
0 -0.57856470316181274 0
0 -0.62094379613058381 0
0 -0.63164644542456694 0
0 -0.63401523327008769 0
0 -0.6344996847275709 0
0 -0.63459214016043253 0
0 -0.63460860351783788 0
0 -0.63461133898245414 0
0 -0.6346117633548366 0
0 -0.63461182250584902 0
0 -0.63461181181844528 0
0 -0.63461168164875914 0
0 -0.63461084530352019 0
0 -0.63460592876933231 0
0 -0.63457948498974781 0
0 -0.63445060109110785 0
0 -0.6338883875561091 0
0 -0.63172693167910077 0
0 -0.62452420129831065 0
0 -0.60394356329249477 0
0 -0.55262811561781544 0
0 -0.3894462390924785 0
0 -0.085815958892412225 0
0 -0.2341670563673571 0
0 -0.43495520577773467 0
0 -0.57118804626243025 0
0 -0.61929125487093073 0
0 -0.6313026852310486 0
0 -0.63394092198431573 0
0 -0.63448454668974585 0
0 -0.63458928143810878 0
0 -0.63460810327163331 0
0 -0.63461125767608439 0
0 -0.63461175097664357 0
0 -0.63461182022782103 0
0 -0.63461180778104165 0
0 -0.63461165653883678 0
0 -0.63461069268736436 0
0 -0.63460507688956747 0
0 -0.634575152990002 0
0 -0.63443065889365768 0
0 -0.63380559442159112 0
0 -0.63141701689128416 0
0 -0.6234850163715544 0
0 -0.6010122744134091 0
0 -0.5480749862862897 0
0 -0.39696862018044499 0
0 -0.085594330585026523 0
0 -0.23334031714578507 0
0 -0.43178898391347359 0
0 -0.56865092816435237 0
0 -0.61868001719576504 0
0 -0.63118371124551409 0
0 -0.63391635960796178 0
0 -0.63447952181444256 0
0 -0.63458831055531129 0
0 -0.63460792885837869 0
0 -0.63461122861763331 0
0 -0.63461174645360996 0
0 -0.63461181938329925 0
0 -0.6346118063267151 0
0 -0.63461164765897593 0
0 -0.63461063940548279 0
0 -0.63460478145081867 0
0 -0.63457364290797058 0
0 -0.63442353526951101 0
0 -0.63377453109868409 0
0 -0.6312929255849199 0
0 -0.62305112461188272 0
0 -0.59985046681860799 0
0 -0.54653268151634216 0
0 -0.39787815440596069 0
0 -0.085431148088995768 0
0 -0.23296276860905313 0
0 -0.43105050525907723 0
0 -0.56800393259053883 0
0 -0.6184441623246586 0
0 -0.63112825554228846 0
0 -0.63390455604367257 0
0 -0.63447709729126955 0
0 -0.63458783597991175 0
0 -0.63460784172167073 0
0 -0.63461121372260099 0
0 -0.63461174407336574 0
0 -0.63461181893133112 0
0 -0.63461180558640251 0
0 -0.63461164328787756 0
0 -0.63461061391324769 0
0 -0.63460464395246419 0
0 -0.63457295923096535 0
0 -0.6344204126819657 0
0 -0.63376158286682627 0
0 -0.631245764781313 0
0 -0.62291133719602354 0
0 -0.59955901040116344 0
0 -0.546183397533472 0
0 -0.39785700209717217 0
0 -0.085406553331003721 0
0 -0.23287148166799376 0
0 -0.43088248380641681 0
0 -0.56784976783391983 0
0 -0.61837640242068981 0
0 -0.63110867151935979 0
0 -0.63389990391769246 0
0 -0.63447609526116144 0
0 -0.63458763439049015 0
0 -0.63460780375455594 0
0 -0.63461120705280916 0
0 -0.63461174297674239 0
0 -0.63461181872033834 0
0 -0.63461180526836047 0
0 -0.63461164150049632 0
0 -0.63461060392334434 0
0 -0.63460459241994316 0
0 -0.63457271531394843 0
0 -0.63441936347136441 0
0 -0.63375757243394337 0
0 -0.63123275041730909 0
0 -0.62287812729707026 0
0 -0.59949831001276643 0
0 -0.54611232149985389 0
0 -0.39782443230301501 0
0 -0.085404086296797618 0
0 -0.2328535198269136 0
0 -0.4308482685266754 0
0 -0.56781653479360861 0
0 -0.61835979776150918 0
0 -0.63110308600547915 0
0 -0.63389840026635369 0
0 -0.63447574509347282 0
0 -0.63458756053601173 0
0 -0.63460778936156459 0
0 -0.63461120444578012 0
0 -0.6346117425350607 0
0 -0.63461181863488592 0
0 -0.6346118051555466 0
0 -0.6346116409100977 0
0 -0.63461060081346321 0
0 -0.63460457734974751 0
0 -0.63457264867270335 0
0 -0.63441909821817322 0
0 -0.6337566481018303 0
0 -0.63123005651221187 0
0 -0.62287193149791786 0
0 -0.5994877415162233 0
0 -0.54609985029469932 0
0 -0.3978164277104988 0
0 -0.085403749266089096 0
0 -0.23285026482990351 0
0 -0.43084192843352326 0
0 -0.56781008576477077 0
0 -0.61835623986102417 0
0 -0.63110173695599292 0
0 -0.63389799422208415 0
0 -0.6344756419618397 0
0 -0.63458753743802598 0
0 -0.63460778466548418 0
0 -0.63461120356590961 0
0 -0.63461174238142037 0
0 -0.63461181860528659 0
0 -0.63461180512351167 0
0 -0.63461164075922427 0
0 -0.63461060008237447 0
0 -0.63460457409980309 0
0 -0.63457263551542797 0
0 -0.63441905030967516 0
0 -0.63375649518457777 0
0 -0.63122964458350406 0
0 -0.62287103634467333 0
0 -0.59948624803836037 0
0 -0.54609805447928794 0
0 -0.39781514593511147 0
0 -0.085403694295579743 0
0 -0.23284979004307801 0
0 -0.43084100323845675 0
0 -0.56780912026148611 0
0 -0.61835567043470607 0
0 -0.63110150237523321 0
0 -0.63389791771274906 0
0 -0.63447562116958589 0
0 -0.63458753253831679 0
0 -0.63460778363229087 0
0 -0.63461120336689247 0
0 -0.63461174234586082 0
0 -0.6346118185984988 0
0 -0.63461180511758464 0
0 -0.63461164073474152 0
0 -0.63461059997577074 0
0 -0.63460457367723189 0
0 -0.63457263398960484 0
0 -0.63441904528272275 0
0 -0.63375648023294051 0
0 -0.63122960557935659 0
0 -0.62287095119220215 0
0 -0.59948610163769989 0
0 -0.54609787193508452 0
0 -0.39781500934155706 0
0 -0.085403749266089096 0
0 -0.23285026482990354 0
0 -0.43084192843352337 0
0 -0.56781008576477099 0
0 -0.61835623986102428 0
0 -0.63110173695599292 0
0 -0.63389799422208415 0
0 -0.6344756419618397 0
0 -0.63458753743802598 0
0 -0.63460778466548418 0
0 -0.63461120356590961 0
0 -0.63461174238142037 0
0 -0.63461181860528659 0
0 -0.63461180512351167 0
0 -0.63461164075922427 0
0 -0.63461060008237447 0
0 -0.63460457409980309 0
0 -0.63457263551542797 0
0 -0.63441905030967516 0
0 -0.63375649518457777 0
0 -0.63122964458350406 0
0 -0.62287103634467333 0
0 -0.59948624803836037 0
0 -0.54609805447928794 0
0 -0.39781514593511141 0
0 -0.085404086296797632 0
0 -0.23285351982691363 0
0 -0.4308482685266754 0
0 -0.56781653479360861 0
0 -0.61835979776150918 0
0 -0.63110308600547915 0
0 -0.63389840026635369 0
0 -0.63447574509347282 0
0 -0.63458756053601173 0
0 -0.63460778936156459 0
0 -0.63461120444578012 0
0 -0.6346117425350607 0
0 -0.63461181863488592 0
0 -0.6346118051555466 0
0 -0.6346116409100977 0
0 -0.63461060081346321 0
0 -0.63460457734974751 0
0 -0.63457264867270335 0
0 -0.63441909821817322 0
0 -0.6337566481018303 0
0 -0.63123005651221187 0
0 -0.62287193149791786 0
0 -0.5994877415162233 0
0 -0.54609985029469932 0
0 -0.3978164277104988 0
0 -0.085406553331003776 0
0 -0.23287148166799376 0
0 -0.43088248380641681 0
0 -0.56784976783391972 0
0 -0.61837640242068981 0
0 -0.63110867151935979 0
0 -0.63389990391769246 0
0 -0.63447609526116144 0
0 -0.63458763439049015 0
0 -0.63460780375455594 0
0 -0.63461120705280916 0
0 -0.63461174297674239 0
0 -0.63461181872033834 0
0 -0.63461180526836047 0
0 -0.63461164150049632 0
0 -0.63461060392334434 0
0 -0.63460459241994316 0
0 -0.63457271531394843 0
0 -0.63441936347136441 0
0 -0.63375757243394337 0
0 -0.63123275041730909 0
0 -0.62287812729707026 0
0 -0.59949831001276643 0
0 -0.54611232149985378 0
0 -0.39782443230301501 0
0 -0.085431148088995823 0
0 -0.23296276860905316 0
0 -0.43105050525907723 0
0 -0.56800393259053872 0
0 -0.6184441623246586 0
0 -0.63112825554228846 0
0 -0.63390455604367257 0
0 -0.63447709729126955 0
0 -0.63458783597991175 0
0 -0.63460784172167073 0
0 -0.63461121372260099 0
0 -0.63461174407336574 0
0 -0.63461181893133112 0
0 -0.63461180558640251 0
0 -0.63461164328787756 0
0 -0.63461061391324769 0
0 -0.63460464395246419 0
0 -0.63457295923096535 0
0 -0.6344204126819657 0
0 -0.63376158286682627 0
0 -0.631245764781313 0
0 -0.62291133719602354 0
0 -0.59955901040116344 0
0 -0.546183397533472 0
0 -0.39785700209717223 0
0 -0.085594330585026399 0
0 -0.23334031714578501 0
0 -0.43178898391347359 0
0 -0.56865092816435237 0
0 -0.61868001719576504 0
0 -0.63118371124551409 0
0 -0.63391635960796178 0
0 -0.63447952181444256 0
0 -0.63458831055531129 0
0 -0.63460792885837869 0
0 -0.63461122861763331 0
0 -0.63461174645360996 0
0 -0.63461181938329925 0
0 -0.6346118063267151 0
0 -0.63461164765897593 0
0 -0.63461063940548279 0
0 -0.63460478145081867 0
0 -0.63457364290797058 0
0 -0.63442353526951101 0
0 -0.63377453109868409 0
0 -0.6312929255849199 0
0 -0.62305112461188272 0
0 -0.59985046681860799 0
0 -0.54653268151634216 0
0 -0.39787815440596058 0
0 -0.085815958892412211 0
0 -0.23416705636735713 0
0 -0.43495520577773467 0
0 -0.57118804626243014 0
0 -0.61929125487093073 0
0 -0.6313026852310486 0
0 -0.63394092198431573 0
0 -0.63448454668974585 0
0 -0.63458928143810878 0
0 -0.63460810327163331 0
0 -0.63461125767608439 0
0 -0.63461175097664357 0
0 -0.63461182022782103 0
0 -0.63461180778104165 0
0 -0.63461165653883678 0
0 -0.63461069268736436 0
0 -0.63460507688956747 0
0 -0.634575152990002 0
0 -0.63443065889365768 0
0 -0.63380559442159112 0
0 -0.63141701689128416 0
0 -0.6234850163715544 0
0 -0.6010122744134091 0
0 -0.5480749862862897 0
0 -0.39696862018044504 0
0 -0.078546490107686232 0
0 -0.23311176759720403 0
0 -0.44741624061983881 0
0 -0.57856470316181274 0
0 -0.62094379613058381 0
0 -0.63164644542456694 0
0 -0.63401523327008769 0
0 -0.6344996847275709 0
0 -0.63459214016043253 0
0 -0.63460860351783788 0
0 -0.63461133898245414 0
0 -0.6346117633548366 0
0 -0.63461182250584902 0
0 -0.63461181181844528 0
0 -0.63461168164875914 0
0 -0.63461084530352019 0
0 -0.63460592876933231 0
0 -0.63457948498974781 0
0 -0.63445060109110785 0
0 -0.6338883875561091 0
0 -0.63172693167910077 0
0 -0.62452420129831065 0
0 -0.60394356329249477 0
0 -0.55262811561781544 0
0 -0.38944623909247861 0
-0 -0 0
-0 -0 0
-0 -0 0
-0 -0 0
-0 -0 0
-0 -0 0
-0 -0 0
-0 0.073132817345170228 0
-0 0.1168772631227419 0
-0 0.040867504417632559 0
-0 -0 0
-0 -0 0
-0 -0 0
-0 0.08366097502006152 0
-0 0.13490201193593521 0
-0 0.38415383135358627 0
-0 0.12695144153606036 0
-0 -0 0
-0 -0 0
-0 0.086929395428616205 0
-0 0.13707417989847928 0
-0 0.38936021018615452 0
-0 0.17912837677987375 0
-0 -0 0
-0 -0 0
-0 0.089713190072174487 0
-0 0.13753330333469535 0
-0 0.39357756235124047 0
-0 0.16584939984038594 0
-0 -0 0
-0 -0 0
-0 0.089547175047235125 0
-0 0.13721488005624596 0
-0 0.39401347743770421 0
-0 0.16668841625096156 0
-0 -0 0
-0 -0 0
-0 0.089437734396166285 0
-0 0.13702849990596166 0
-0 0.39398626044903895 0
-0 0.1669426145589053 0
-0 -0 0
-0 -0 0
-0 0.089419244355514252 0
-0 0.13698777818500807 0
-0 0.39396626650918753 0
-0 0.16698087388855654 0
-0 -0 0
-0 -0 0
-0 0.089416996198038029 0
-0 0.13698090078569652 0
-0 0.39396172748764641 0
-0 0.16698499683265039 0
-0 -0 0
-0 -0 0
-0 0.089416686542287863 0
-0 0.13697979759830883 0
-0 0.39396103953186501 0
-0 0.16698527037348548 0
-0 -0 0
-0 -0 0
-0 0.089416686542287863 0
-0 0.13697979759830881 0
-0 0.39396103953186501 0
-0 0.1669852703734846 0
-0 -0 0
-0 -0 0
-0 0.089416996198038043 0
-0 0.13698090078569652 0
-0 0.39396172748764641 0
-0 0.16698499683265039 0
-0 -0 0
-0 -0 0
-0 0.089419244355514294 0
-0 0.13698777818500812 0
-0 0.39396626650918753 0
-0 0.16698087388855698 0
-0 -0 0
-0 -0 0
-0 0.089437734396166355 0
-0 0.13702849990596172 0
-0 0.39398626044903895 0
-0 0.16694261455890574 0
-0 -0 0
-0 -0 0
-0 0.089547175047235084 0
-0 0.13721488005624596 0
-0 0.39401347743770421 0
-0 0.16668841625096117 0
-0 -0 0
-0 -0 0
-0 0.089713190072174431 0
-0 0.13753330333469535 0
-0 0.39357756235124047 0
-0 0.16584939984038546 0
-0 -0 0
-0 -0 0
-0 0.086929395428616232 0
-0 0.13707417989847931 0
-0 0.38936021018615452 0
-0 0.17912837677987495 0
-0 -0 0
-0 -0 0
-0 0.083660975020061631 0
-0 0.13490201193593521 0
-0 0.38415383135358638 0
-0 0.12695144153606039 0
-0 -0 0
-0 -0 0
-0 0.073132817345170395 0
-0 0.11687726312274198 0
-0 0.040867504417635439 0
-0 -0 0
-0 -0 0
-0 -0 0
-0 -0 0
-0 -0 0
-0 -0 0
-0 -0 0
-0 -0 0
-0 -0 0
-0 -0 0
-0 -0 0
-0 -0 0
-0 -0 0
-0 -0 0
-0 -0 0
-0 -0 0
-0 -0 0
-0 -0 0
-0 -0 0
-0 -0 0
-0 -0 0
-0 -0 0
-0 -0 0
-0 -0 0
-0 -0 0
-0 -0 0
-0 -0 0
-0 -0 0
-0 -0 0
-0 -0 0
-0 -0 0
-0 -0 0
-0 -0 0
-0 -0 0
-0 -0 0
-0 -0 0
-0 -0 0
-0 -0 0
-0 -0 0
-0 -0 0
-0 -0 0
-0 -0 0
-0 -0 0
-0 -0 0
-0 -0 0
-0 -0 0
-0 -0 0
-0 -0 0
-0 -0 0
-0 -0 0
-0 -0 0
-0 -0 0
-0 -0 0
-0 -0 0
-0 -0 0
-0 -0 0
-0 -0 0
-0 -0 0
-0 -0 0
-0 -0 0
-0 -0 0
-0 -0 0
-0 -0 0
-0 -0 0
-0 -0 0
-0 -0 0
-0 -0 0
-0 -0 0
-0 -0 0
-0 -0 0
-0 -0 0
-0 -0 0
-0 -0 0
-0 -0 0
-0 -0 0
-0 -0 0
-0 -0 0
-0 -0 0
-0 -0 0
-0 -0 0
-0 -0 0
-0 -0 0
-0 -0 0
-0 -0 0
-0 -0 0
-0 -0 0
-0 -0 0
-0 -0 0
-0 -0 0
-0 -0 0
-0 -0 0
-0 -0 0
-0 -0 0
-0 -0 0
-0 -0 0
-0 -0 0
-0 -0 0
-0 -0 0
-0 -0 0
-0 -0 0
-0 -0 0
-0 -0 0
-0 -0 0
-0 -0 0
-0 -0 0
-0 -0 0
-0 -0 0
-0 -0 0
-0 -0 0
-0 -0 0
-0 -0 0
-0 -0 0
-0 -0 0
-0 -0 0
-0 -0 0
-0 -0 0
-0 -0 0
-0 -0 0
-0 -0 0
-0 -0 0
-0 -0 0
-0 -0 0
-0 -0 0
-0 -0 0
-0 -0 0
-0 -0 0
-0 -0 0
-0 -0 0
-0 -0 0
-0 -0 0
-0 -0 0
-0 -0 0
-0 -0 0
-0 -0 0
-0 -0 0
-0 -0 0
-0 -0 0
-0 -0 0
-0 -0 0
-0 -0 0
-0 -0 0
-0 -0 0
-0 -0 0
-0 -0 0
-0 -0 0
-0 -0 0
-0 -0 0
-0 -0 0
-0 -0 0
-0 -0 0
-0 -0 0
-0 -0 0
-0 -0 0
-0 -0 0
-0 -0 0
-0 -0 0
-0 -0 0
-0 -0 0
-0 -0 0
-0 -0 0
-0 -0 0
-0 -0 0
-0 -0 0
-0 -0 0
-0 -0 0
-0 -0 0
-0 -0 0
-0 -0 0
-0 -0 0
-0 -0 0
-0 -0 0
-0 -0 0
-0 -0 0
-0 -0 0
-0 -0 0
-0 -0 0
-0 -0 0
-0 -0 0
-0 -0 0
-0 -0 0
-0 -0 0
-0 -0 0
-0 -0 0
-0 -0 0
-0 -0 0
-0 -0 0
-0 -0 0
-0 -0 0
-0 -0 0
-0 -0 0
-0 -0 0
-0 -0 0
-0 -0 0
-0 -0 0
