# vtk DataFile Version 3.0
SPH particles (WCSPH) - legacy PolyData
ASCII
DATASET POLYDATA
POINTS 681 float
0.049990174352978527 0.017547293139009129 0
0.049989127727026017 0.019668259822891446 0
0.049988285606110044 0.021379595017092776 0
0.04998745767830981 0.023068534035349038 0
0.049986713440024401 0.024710119482573539 0
0.049986055759636654 0.026302780294219456 0
0.049985451304037719 0.027852395630538804 0
0.049984861202042451 0.029367192874280208 0
0.049984226216341764 0.030856344499828745 0
0.04998345402167844 0.032327742145465868 0
0.04998209572861579 0.03378979824913441 0
0.049980294550329922 0.035250693432583406 0
0.049979590775432139 0.036718489720915133 0
0.0499803385724574 0.038201451353931416 0
0.049981824198260041 0.039708515317333493 0
0.049983582147567429 0.041249412860704458 0
0.049985402170951453 0.04283641150484746 0
0.049987115616999325 0.04448430670475801 0
0.049988713243985163 0.046213179174940139 0
0.049990136161502025 0.048037180218935153 0
0.049991334965057491 0.049996293298729406 0
0.049992309436489607 0.052139285206145476 0
0.0499930894873305 0.054543277586781541 0
0.049993712065804378 0.057351964634303303 0
0.049994502113720148 0.060949308121961136 0
0.069994821321954934 0.016329136442995041 0
0.069994209041765565 0.018670138039049516 0
0.069993753640696169 0.020571444771219336 0
0.069993344741231533 0.022411616075705892 0
0.069992962973440903 0.024177111338214461 0
0.06999258311155715 0.02587447404086296 0
0.069992206931297749 0.027515310198829118 0
0.069991827459553513 0.029111800275958485 0
0.069991428048752191 0.030676012015735978 0
0.069990960487976497 0.032217774148505997 0
0.069990049220884171 0.033747050528353285 0
0.069988196013636178 0.035273392450578402 0
0.06998710070146015 0.036805692639517995 0
0.069987285575115757 0.038352910923461159 0
0.069988187375693928 0.03992507232103723 0
0.069989327118576278 0.041532921626690429 0
0.069990550572460494 0.043190476479970992 0
0.069991755326031621 0.044913409782596461 0
0.069992883570375891 0.046720902401836413 0
0.06999386430150191 0.048636636469124195 0
0.06999467592670669 0.050699858276087383 0
0.069995325008355952 0.05296430613233543 0
0.069995815243519138 0.055520073073042818 0
0.069996200216472876 0.058536178362434119 0
0.069996697532730773 0.062471604144432154 0
0.089998157309617341 0.016275142353955049 0
0.089997930843769156 0.018617822233804867 0
0.089997764979010353 0.020522503793552024 0
0.089997605915037762 0.022368307104318089 0
0.089997443614222683 0.024140868828954398 0
0.089997274578615075 0.025846209111765078 0
0.089997097565700776 0.027495864329823889 0
0.089996920428900798 0.029101770930430725 0
0.089996719573403675 0.030675525412707169 0
0.089996494514061068 0.032227498049423577 0
0.08999622358445511 0.033767467260227703 0
0.089995842242718407 0.035305119476987695 0
0.089995471328281507 0.036849198621647351 0
0.089995418531881338 0.03840873408743866 0
0.089995657284666991 0.039993702571024151 0
0.089995985083564281 0.041615082508780571 0
0.089996370506157469 0.043286747303099338 0
0.089996761793381397 0.045023613611520984 0
0.089997133955916672 0.046845539978483779 0
0.089997444869458709 0.048778859260089076 0
0.08999769905940315 0.050860602664797396 0
0.08999788823969769 0.053145165336274398 0
0.08999805501271671 0.055722830025058415 0
0.089998189040017718 0.058762470133339524 0
0.089998404365126114 0.062728380361277064 0
0.10999934100804457 0.016282498954294636 0
0.10999925411775656 0.018626068088657258 0
0.10999918387672313 0.020531559707076746 0
0.10999911295864143 0.022378281349243249 0
0.1099990423417747 0.024151862429990685 0
0.10999898580777917 0.025858334128710535 0
0.10999892168681576 0.027509248834534816 0
0.10999883989400672 0.029116524675000591 0
0.10999874966212331 0.030691621434621501 0
0.10999865127009115 0.032245046646058317 0
0.1099985551836405 0.033786553176567861 0
0.10999842786221067 0.035325963647717805 0
0.10999832820616932 0.036871853091792035 0
0.10999832251328573 0.038433356061653434 0
0.10999836437315524 0.040020431483134854 0
0.10999846280895346 0.041644349649732557 0
0.10999858764924664 0.043318404883595528 0
0.109998726423279 0.045057615006612574 0
0.10999886309939912 0.046882087138066512 0
0.10999897037381005 0.048818180054915547 0
0.10999905195322245 0.050903007152499548 0
0.10999911254821201 0.053191041449532531 0
0.10999917001626044 0.055772603938390501 0
0.10999922171514058 0.05881663822045069 0
0.10999931338918288 0.062788689649625612 0
0.12999973025587541 0.016287759472533577 0
0.12999969585089316 0.018631874589751584 0
0.12999967138075244 0.020537774190301325 0
0.12999964897876939 0.022384862631999108 0
0.12999963560823799 0.024158811102058426 0
0.12999960673626665 0.025865607965471323 0
0.12999958376026968 0.027516812439640312 0
0.12999954870129088 0.029124388869239948 0
0.12999951622070335 0.030699783306415811 0
0.12999947515368501 0.032253511178037153 0
0.12999941739208457 0.033795369180232349 0
0.12999934752253939 0.035334872145402409 0
0.12999933632120655 0.036880901613769619 0
0.12999933605021177 0.038442505450395445 0
0.12999931237788642 0.040029724512022413 0
0.12999935801021439 0.041654344601205665 0
0.12999941154536307 0.043329998236974407 0
0.12999946744681659 0.045070197439894648 0
0.12999951310863184 0.046895294767577637 0
0.12999954790646015 0.04883137050334594 0
0.12999957820990288 0.050916838018831768 0
0.1299996025464944 0.053205628421445821 0
0.12999962336247603 0.055788049364941909 0
0.12999964433242028 0.058833044639924004 0
0.12999968418217456 0.062806592554381119 0
0.14999988880966375 0.016289968368441734 0
0.14999987743045706 0.018634377586447717 0
0.14999986867827092 0.020540563982332782 0
0.14999986069502852 0.022387761754327804 0
0.14999985010748748 0.024161826574305788 0
0.14999984170160185 0.025868809087303629 0
0.14999983846416143 0.027520113045119074 0
0.14999983196390015 0.029127831484884945 0
0.14999982002219936 0.030703372904306393 0
0.14999979513264247 0.03225724174961446 0
0.14999976933367667 0.033799370686141902 0
0.14999974802613708 0.035339077639518018 0
0.14999972597385317 0.036885364456394086 0
0.14999970669724946 0.038447513824339821 0
0.14999970344958313 0.040035168433768843 0
0.14999972329829939 0.041659863451037824 0
0.14999975308181329 0.043334600139149651 0
0.14999978577624257 0.045074295341079373 0
0.14999977955980687 0.046899452314943822 0
0.14999977712597334 0.048836278744486226 0
0.14999978683383094 0.05092194646778378 0
0.14999980171801564 0.053211001831725557 0
0.14999981198225115 0.055793818931145038 0
0.14999981763817996 0.058839249701668796 0
0.14999983530385827 0.062812921834340549 0
0.16999993891795642 0.01629016294766859 0
0.1699999318893311 0.018634936117365011 0
0.16999992557220467 0.020541568148623224 0
0.16999991924116881 0.022388682643906997 0
0.16999991059586184 0.024162761373167311 0
0.16999990169919152 0.025869824228151397 0
0.16999988905729393 0.027521183321830966 0
0.16999988339077277 0.029128915956706129 0
0.16999987338320799 0.030704401005988185 0
0.16999985898144149 0.032258066027263589 0
0.16999983641666269 0.033800339671261517 0
0.16999979252401801 0.035339952305229239 0
0.16999977129593663 0.036885964111989189 0
0.16999974219218447 0.038448633423111389 0
0.16999975591068345 0.040036467321688883 0
0.16999980785880037 0.041661525370118531 0
0.16999982990338328 0.043336387564483214 0
0.16999983107642561 0.045075483292686527 0
0.16999980958357949 0.046900627195247895 0
0.16999982811223027 0.048837665273666619 0
0.16999985225639538 0.050923405671490528 0
0.16999986773745157 0.053212606584593203 0
0.1699998692545566 0.055795727175801002 0
0.16999987644742676 0.058842343819079643 0
0.16999989351066597 0.062814908043455797 0
0.18999995324110946 0.016290675811927512 0
0.189999948425778 0.018634968475138378 0
0.18999994779392854 0.02054119131580608 0
0.18999994349027224 0.022388653603598957 0
0.18999993726801773 0.024163074310472175 0
0.18999992665506696 0.025869999858267663 0
0.18999992331371282 0.027521339959201592 0
0.18999990742318273 0.029129129145389964 0
0.18999989312254634 0.03070454682577586 0
0.18999988381579291 0.032258131291368883 0
0.18999988317182442 0.033800728822278567 0
0.18999989641391055 0.035340545066479066 0
0.18999991000291208 0.036886837456940172 0
0.18999990653872592 0.038449391797967171 0
0.18999990999074495 0.040037201608925183 0
0.18999990994121832 0.041661869830813207 0
0.18999989846096191 0.043336288892515049 0
0.18999987549961078 0.045075870514230419 0
0.18999984827635027 0.046901002224540467 0
0.18999990306503398 0.048837954496363141 0
0.1899999101828872 0.05092342261846005 0
0.18999992596380461 0.053211918293723938 0
0.18999993471930485 0.055793582352687603 0
0.18999994279957158 0.058841092807427386 0
0.18999995443089812 0.062814790242832874 0
0.20999998899835121 0.01629068055120746 0
0.20999998736633851 0.018635014287848081 0
0.20999998404394163 0.020541019313190096 0
0.2099999810457579 0.022388095441109791 0
0.2099999779251219 0.02416248737056409 0
0.20999996968592111 0.025869420207131209 0
0.20999996831497569 0.027520849222498912 0
0.20999996737795312 0.02912882332177074 0
0.20999996741376523 0.030704381784682912 0
0.20999995191673032 0.032258078153689584 0
0.20999994676914061 0.033799935373076226 0
0.20999994273002776 0.03533967727614349 0
0.20999995182619069 0.03688669779617669 0
0.20999994151769472 0.038449178125757183 0
0.20999994447669201 0.040036884441496862 0
0.20999995174864705 0.041661398533859278 0
0.20999995174848848 0.043335660042257446 0
0.20999995254354251 0.045075377192996618 0
0.20999997806691525 0.046900494089598239 0
0.20999997586573221 0.048837416118011671 0
0.2099999721607711 0.050922846013934243 0
0.20999996588493855 0.053211273771352409 0
0.20999997221612071 0.055792750831728743 0
0.2099999791126004 0.058840049181172825 0
0.20999998704205175 0.062814031530237208 0
0.23000006768475029 0.016289724427457554 0
0.23000007262307542 0.018633975795525903 0
0.23000008123834323 0.020539943537123771 0
0.23000008267258401 0.022386977422946364 0
0.23000007925377142 0.02416095126193242 0
0.2300000860502322 0.025868132627360541 0
0.23000009838878788 0.02751991010585482 0
0.23000011008207222 0.029127447849153651 0
0.23000011794987679 0.030702853920510823 0
0.23000012081462043 0.03225650214346059 0
0.2300001233006497 0.033798067817693532 0
0.2300001356411697 0.035338071778911156 0
0.2300001980179644 0.036885224568663784 0
0.23000014220035986 0.038447452318183632 0
0.23000012161532063 0.040035055034840616 0
0.23000015004063634 0.041659450267852331 0
0.23000015453058398 0.04333358495570528 0
0.2300001595411546 0.045073445421882352 0
0.23000019506724889 0.046898572430268348 0
0.23000015157915785 0.048835326581214263 0
0.23000013476862452 0.0509207727161443 0
0.23000011418839367 0.053209574920941444 0
0.23000010589262809 0.055792810031098483 0
0.23000010173079918 0.058837997196333799 0
0.23000009373239486 0.062811804014140757 0
0.25000019852436844 0.016287400036771298 0
0.25000022080858064 0.018631384809062929 0
0.25000024292350925 0.020537267493936955 0
0.25000026398472386 0.022384255007618058 0
0.25000027926457535 0.02415807277582982 0
0.25000029492685127 0.025865088104856035 0
0.25000031961239627 0.027516313168217243 0
0.25000034076448346 0.029123963357582196 0
0.25000035971231793 0.030699359167059698 0
0.25000039036994376 0.032253051190472365 0
0.25000043558404056 0.033794895785913458 0
0.25000052190447353 0.035334489734878523 0
0.25000055827328893 0.036880758837470468 0
0.25000060938221186 0.038442787185598383 0
0.25000061241069771 0.04003014695866948 0
0.25000056691977007 0.041654097491755734 0
0.2500005302949288 0.043327821246575547 0
0.25000048084899207 0.045068078150359701 0
0.25000044359352402 0.046893154118462378 0
0.25000041004835855 0.048829020792584034 0
0.25000037943986797 0.050913824299808674 0
0.25000035048718061 0.053202368931627268 0
0.2500003249324273 0.055788828029248158 0
0.2500003034657452 0.058832206858906479 0
0.25000026680930654 0.062805246598495623 0
0.27000055888779706 0.016282068531534355 0
0.27000063506112187 0.018625473428069181 0
0.27000069148810796 0.020530820379114422 0
0.27000074617732894 0.022377535828481048 0
0.27000079698910628 0.024151397575398595 0
0.27000085418097081 0.025858095666658504 0
0.2700009113312446 0.027508221092390369 0
0.27000096893532638 0.029116056011167998 0
0.27000104455847168 0.03069127357236031 0
0.27000113830464456 0.032244571312550319 0
0.27000124879714832 0.03378620374840402 0
0.27000135678315934 0.035325438576180465 0
0.27000151723449733 0.036871266088906458 0
0.27000164799974996 0.038432974644946945 0
0.27000160889330049 0.040020086867133438 0
0.27000146952984183 0.041643847136993498 0
0.27000133143104021 0.043317307431013162 0
0.2700012087001753 0.045056449297891585 0
0.27000108687064284 0.046880780882725168 0
0.27000098568082176 0.048816534784652685 0
0.27000090033247021 0.050900751020607225 0
0.27000082510819162 0.05318822777161257 0
0.2700007579787273 0.055772035423131576 0
0.27000070628292028 0.058815881883829399 0
0.27000062806660102 0.062787542594180484 0
0.29000175730132915 0.016274961080066087 0
0.29000197931451527 0.018617559446719674 0
0.29000214379778977 0.020522240619363905 0
0.29000230217920647 0.022368045894732406 0
0.29000246435287508 0.024140651724662981 0
0.29000262712833341 0.025845879120035397 0
0.29000279863365952 0.027494915787538741 0
0.29000299114535244 0.029101626674850667 0
0.29000321414114633 0.030675502019818869 0
0.2900034638003321 0.032227295484751249 0
0.29000376650098786 0.03376731477566329 0
0.29000416188084371 0.035304820418587395 0
0.29000454323269775 0.036848815992499499 0
0.29000459427812492 0.038408516268238088 0
0.29000436720578432 0.039993623830272849 0
0.29000400882834271 0.041615337018285889 0
0.29000360479269199 0.043286648151480263 0
0.29000320047878214 0.045023296887056669 0
0.29000282760694124 0.046845289889905467 0
0.29000250608580264 0.04877875006614725 0
0.29000223691176208 0.050860279254537025 0
0.29000202265302399 0.053144570528587509 0
0.29000185224750641 0.055722533621209026 0
0.29000171676046066 0.058762220186871564 0
0.29000151214196701 0.062728041091289863 0
0.31000523655656376 0.016329183875393821 0
0.31000584997334379 0.018670185059297625 0
0.31000630790452083 0.020571498758263848 0
0.3100067251702307 0.022411668691677857 0
0.31000711386429075 0.024177091569426611 0
0.31000750459237131 0.02587420176435317 0
0.3100078929328583 0.027514854189219558 0
0.31000828923590107 0.029112172574999311 0
0.31000871874667713 0.030676242186703704 0
0.31000923647575268 0.032217857694615021 0
0.31001019394944423 0.033747204866762706 0
0.31001202911600451 0.035273571856987693 0
0.31001307115433829 0.036805881416064251 0
0.3100128464558371 0.038353419938016067 0
0.31001193266241667 0.039925821324798889 0
0.31001079244026986 0.04153423554959261 0
0.31000955458330409 0.043191610283829361 0
0.31000831646428689 0.044913562919523572 0
0.31000716478137097 0.046720414771460141 0
0.31000615923966768 0.048637632259756487 0
0.31000532370827122 0.050700868673844816 0
0.31000465843743297 0.052964683541681906 0
0.31000415872696119 0.055520453428475329 0
0.31000374931355495 0.05853652855604724 0
0.31000323402098312 0.0624718506727579 0
0.33000966060474435 0.017547566678756003 0
0.33001066935942314 0.019668546411885895 0
0.33001148442908979 0.021379844404362813 0
0.33001227153831225 0.023068678908795187 0
0.3300129780378972 0.024709978329919179 0
0.33001359124754698 0.026302177833242325 0
0.33001414873827356 0.027852284714856797 0
0.3300147093860385 0.029367911195492705 0
0.33001527082359977 0.030856699067636738 0
0.33001591352736265 0.032327999207500617 0
0.33001714335781529 0.033790124176928123 0
0.33001892468891569 0.035251102298765567 0
0.33001962545492608 0.036719008086237959 0
0.33001885795773123 0.03820219732399012 0
0.33001740738990015 0.039709448029206895 0
0.33001570614503895 0.041250783822092962 0
0.33001395590023724 0.042837967824667297 0
0.33001226689339175 0.044484996397616362 0
0.33001071573664548 0.046211697670219723 0
0.33000936190983504 0.0480375643817509 0
0.33000823198507001 0.049996811492892111 0
0.33000733071031219 0.052139640323001155 0
0.33000662494908573 0.054543619979731464 0
0.33000607379676833 0.057352233507083308 0
0.33000534508549123 0.060949155147992665 0
0 0 0
0 0.020000000000000004 0
0 0.040000000000000001 0
0 0.54999999999999993 0
0 0.56000000000000005 0
0 0.58000000000000007 0
0.02 0 0
0.02 0.020000000000000004 0
0.02 0.040000000000000001 0
0.02 0.54999999999999993 0
0.02 0.56000000000000005 0
0.02 0.58000000000000007 0
0.040000000000000001 0 0
0.040000000000000001 0.020000000000000004 0
0.040000000000000001 0.040000000000000001 0
0.040000000000000001 0.54999999999999993 0
0.040000000000000001 0.56000000000000005 0
0.040000000000000001 0.58000000000000007 0
0.059999999999999998 0 0
0.059999999999999998 0.020000000000000004 0
0.059999999999999998 0.040000000000000001 0
0.059999999999999998 0.54999999999999993 0
0.059999999999999998 0.56000000000000005 0
0.059999999999999998 0.58000000000000007 0
0.080000000000000002 0 0
0.080000000000000002 0.020000000000000004 0
0.080000000000000002 0.040000000000000001 0
0.080000000000000002 0.54999999999999993 0
0.080000000000000002 0.56000000000000005 0
0.080000000000000002 0.58000000000000007 0
0.10000000000000001 0 0
0.10000000000000001 0.020000000000000004 0
0.10000000000000001 0.040000000000000001 0
0.10000000000000001 0.54999999999999993 0
0.10000000000000001 0.56000000000000005 0
0.10000000000000001 0.58000000000000007 0
0.12 0 0
0.12 0.020000000000000004 0
0.12 0.040000000000000001 0
0.12 0.54999999999999993 0
0.12 0.56000000000000005 0
0.12 0.58000000000000007 0
0.14000000000000001 0 0
0.14000000000000001 0.020000000000000004 0
0.14000000000000001 0.040000000000000001 0
0.14000000000000001 0.54999999999999993 0
0.14000000000000001 0.56000000000000005 0
0.14000000000000001 0.58000000000000007 0
0.16 0 0
0.16 0.020000000000000004 0
0.16 0.040000000000000001 0
0.16 0.54999999999999993 0
0.16 0.56000000000000005 0
0.16 0.58000000000000007 0
0.17999999999999999 0 0
0.17999999999999999 0.020000000000000004 0
0.17999999999999999 0.040000000000000001 0
0.17999999999999999 0.54999999999999993 0
0.17999999999999999 0.56000000000000005 0
0.17999999999999999 0.58000000000000007 0
0.20000000000000001 0 0
0.20000000000000001 0.020000000000000004 0
0.20000000000000001 0.040000000000000001 0
0.20000000000000001 0.54999999999999993 0
0.20000000000000001 0.56000000000000005 0
0.20000000000000001 0.58000000000000007 0
0.22 0 0
0.22 0.020000000000000004 0
0.22 0.040000000000000001 0
0.22 0.54999999999999993 0
0.22 0.56000000000000005 0
0.22 0.58000000000000007 0
0.23999999999999999 0 0
0.23999999999999999 0.020000000000000004 0
0.23999999999999999 0.040000000000000001 0
0.23999999999999999 0.54999999999999993 0
0.23999999999999999 0.56000000000000005 0
0.23999999999999999 0.58000000000000007 0
0.26000000000000001 0 0
0.26000000000000001 0.020000000000000004 0
0.26000000000000001 0.040000000000000001 0
0.26000000000000001 0.54999999999999993 0
0.26000000000000001 0.56000000000000005 0
0.26000000000000001 0.58000000000000007 0
0.28000000000000003 0 0
0.28000000000000003 0.020000000000000004 0
0.28000000000000003 0.040000000000000001 0
0.28000000000000003 0.54999999999999993 0
0.28000000000000003 0.56000000000000005 0
0.28000000000000003 0.58000000000000007 0
0.29999999999999999 0 0
0.29999999999999999 0.020000000000000004 0
0.29999999999999999 0.040000000000000001 0
0.29999999999999999 0.54999999999999993 0
0.29999999999999999 0.56000000000000005 0
0.29999999999999999 0.58000000000000007 0
0.32000000000000001 0 0
0.32000000000000001 0.020000000000000004 0
0.32000000000000001 0.040000000000000001 0
0.32000000000000001 0.54999999999999993 0
0.32000000000000001 0.56000000000000005 0
0.32000000000000001 0.58000000000000007 0
0.34000000000000002 0 0
0.34000000000000002 0.020000000000000004 0
0.34000000000000002 0.040000000000000001 0
0.34000000000000002 0.54999999999999993 0
0.34000000000000002 0.56000000000000005 0
0.34000000000000002 0.58000000000000007 0
0.35999999999999999 0 0
0.35999999999999999 0.020000000000000004 0
0.35999999999999999 0.040000000000000001 0
0.35999999999999999 0.54999999999999993 0
0.35999999999999999 0.56000000000000005 0
0.35999999999999999 0.58000000000000007 0
0.38 0 0
0.38 0.020000000000000004 0
0.38 0.040000000000000001 0
0.38 0.54999999999999993 0
0.38 0.56000000000000005 0
0.38 0.58000000000000007 0
0.40000000000000002 0 0
0.40000000000000002 0.020000000000000004 0
0.40000000000000002 0.040000000000000001 0
0.40000000000000002 0.54999999999999993 0
0.40000000000000002 0.56000000000000005 0
0.40000000000000002 0.58000000000000007 0
0.41999999999999998 0 0
0.41999999999999998 0.020000000000000004 0
0.41999999999999998 0.040000000000000001 0
0.41999999999999998 0.54999999999999993 0
0.41999999999999998 0.56000000000000005 0
0.41999999999999998 0.58000000000000007 0
0.44 0 0
0.44 0.020000000000000004 0
0.44 0.040000000000000001 0
0.44 0.54999999999999993 0
0.44 0.56000000000000005 0
0.44 0.58000000000000007 0
0.46000000000000002 0 0
0.46000000000000002 0.020000000000000004 0
0.46000000000000002 0.040000000000000001 0
0.46000000000000002 0.54999999999999993 0
0.46000000000000002 0.56000000000000005 0
0.46000000000000002 0.58000000000000007 0
0.47999999999999998 0 0
0.47999999999999998 0.020000000000000004 0
0.47999999999999998 0.040000000000000001 0
0.47999999999999998 0.54999999999999993 0
0.47999999999999998 0.56000000000000005 0
0.47999999999999998 0.58000000000000007 0
0.5 0 0
0.5 0.020000000000000004 0
0.5 0.040000000000000001 0
0.5 0.54999999999999993 0
0.5 0.56000000000000005 0
0.5 0.58000000000000007 0
0.52000000000000002 0 0
0.52000000000000002 0.020000000000000004 0
0.52000000000000002 0.040000000000000001 0
0.52000000000000002 0.54999999999999993 0
0.52000000000000002 0.56000000000000005 0
0.52000000000000002 0.58000000000000007 0
0.54000000000000004 0 0
0.54000000000000004 0.020000000000000004 0
0.54000000000000004 0.040000000000000001 0
0.54000000000000004 0.54999999999999993 0
0.54000000000000004 0.56000000000000005 0
0.54000000000000004 0.58000000000000007 0
0.56000000000000005 0 0
0.56000000000000005 0.020000000000000004 0
0.56000000000000005 0.040000000000000001 0
0.56000000000000005 0.54999999999999993 0
0.56000000000000005 0.56000000000000005 0
0.56000000000000005 0.58000000000000007 0
0.57999999999999996 0 0
0.57999999999999996 0.020000000000000004 0
0.57999999999999996 0.040000000000000001 0
0.57999999999999996 0.54999999999999993 0
0.57999999999999996 0.56000000000000005 0
0.57999999999999996 0.58000000000000007 0
0.59999999999999998 0 0
0.59999999999999998 0.020000000000000004 0
0.59999999999999998 0.040000000000000001 0
0.59999999999999998 0.54999999999999993 0
0.59999999999999998 0.56000000000000005 0
0.59999999999999998 0.58000000000000007 0
0.62 0 0
0.62 0.020000000000000004 0
0.62 0.040000000000000001 0
0.62 0.54999999999999993 0
0.62 0.56000000000000005 0
0.62 0.58000000000000007 0
0.64000000000000001 0 0
0.64000000000000001 0.020000000000000004 0
0.64000000000000001 0.040000000000000001 0
0.64000000000000001 0.54999999999999993 0
0.64000000000000001 0.56000000000000005 0
0.64000000000000001 0.58000000000000007 0
0.66000000000000003 0 0
0.66000000000000003 0.020000000000000004 0
0.66000000000000003 0.040000000000000001 0
0.66000000000000003 0.54999999999999993 0
0.66000000000000003 0.56000000000000005 0
0.66000000000000003 0.58000000000000007 0
0.68000000000000005 0 0
0.68000000000000005 0.020000000000000004 0
0.68000000000000005 0.040000000000000001 0
0.68000000000000005 0.54999999999999993 0
0.68000000000000005 0.56000000000000005 0
0.68000000000000005 0.58000000000000007 0
0.70000000000000007 0 0
0.70000000000000007 0.020000000000000004 0
0.70000000000000007 0.040000000000000001 0
0.70000000000000007 0.54999999999999993 0
0.70000000000000007 0.56000000000000005 0
0.70000000000000007 0.58000000000000007 0
0.71999999999999997 0 0
0.71999999999999997 0.020000000000000004 0
0.71999999999999997 0.040000000000000001 0
0.71999999999999997 0.54999999999999993 0
0.71999999999999997 0.56000000000000005 0
0.71999999999999997 0.58000000000000007 0
0.73999999999999999 0 0
0.73999999999999999 0.020000000000000004 0
0.73999999999999999 0.040000000000000001 0
0.73999999999999999 0.54999999999999993 0
0.73999999999999999 0.56000000000000005 0
0.73999999999999999 0.58000000000000007 0
0.76000000000000001 0 0
0.76000000000000001 0.020000000000000004 0
0.76000000000000001 0.040000000000000001 0
0.76000000000000001 0.54999999999999993 0
0.76000000000000001 0.56000000000000005 0
0.76000000000000001 0.58000000000000007 0
0.78000000000000003 0 0
0.78000000000000003 0.020000000000000004 0
0.78000000000000003 0.040000000000000001 0
0.78000000000000003 0.54999999999999993 0
0.78000000000000003 0.56000000000000005 0
0.78000000000000003 0.58000000000000007 0
0.80000000000000004 0 0
0.80000000000000004 0.020000000000000004 0
0.80000000000000004 0.040000000000000001 0
0.80000000000000004 0.54999999999999993 0
0.80000000000000004 0.56000000000000005 0
0.80000000000000004 0.58000000000000007 0
0.82000000000000006 0 0
0.82000000000000006 0.020000000000000004 0
0.82000000000000006 0.040000000000000001 0
0.82000000000000006 0.54999999999999993 0
0.82000000000000006 0.56000000000000005 0
0.82000000000000006 0.58000000000000007 0
0.83999999999999997 0 0
0.83999999999999997 0.020000000000000004 0
0.83999999999999997 0.040000000000000001 0
0.83999999999999997 0.54999999999999993 0
0.83999999999999997 0.56000000000000005 0
0.83999999999999997 0.58000000000000007 0
0.85999999999999999 0 0
0.85999999999999999 0.020000000000000004 0
0.85999999999999999 0.040000000000000001 0
0.85999999999999999 0.54999999999999993 0
0.85999999999999999 0.56000000000000005 0
0.85999999999999999 0.58000000000000007 0
0.88 0 0
0.88 0.020000000000000004 0
0.88 0.040000000000000001 0
0.88 0.54999999999999993 0
0.88 0.56000000000000005 0
0.88 0.58000000000000007 0
0.90000000000000002 0 0
0.90000000000000002 0.020000000000000004 0
0.90000000000000002 0.040000000000000001 0
0.90000000000000002 0.54999999999999993 0
0.90000000000000002 0.56000000000000005 0
0.90000000000000002 0.58000000000000007 0
0.92000000000000004 0 0
0.92000000000000004 0.020000000000000004 0
0.92000000000000004 0.040000000000000001 0
0.92000000000000004 0.54999999999999993 0
0.92000000000000004 0.56000000000000005 0
0.92000000000000004 0.58000000000000007 0
0.94000000000000006 0 0
0.94000000000000006 0.020000000000000004 0
0.94000000000000006 0.040000000000000001 0
0.94000000000000006 0.54999999999999993 0
0.94000000000000006 0.56000000000000005 0
0.94000000000000006 0.58000000000000007 0
0.95999999999999996 0 0
0.95999999999999996 0.020000000000000004 0
0.95999999999999996 0.040000000000000001 0
0.95999999999999996 0.54999999999999993 0
0.95999999999999996 0.56000000000000005 0
0.95999999999999996 0.58000000000000007 0
0.97999999999999998 0 0
0.97999999999999998 0.020000000000000004 0
0.97999999999999998 0.040000000000000001 0
0.97999999999999998 0.54999999999999993 0
0.97999999999999998 0.56000000000000005 0
0.97999999999999998 0.58000000000000007 0
1 0 0
1 0.020000000000000004 0
1 0.040000000000000001 0
1 0.54999999999999993 0
1 0.56000000000000005 0
1 0.58000000000000007 0
VERTICES 681 1362
1 0
1 1
1 2
1 3
1 4
1 5
1 6
1 7
1 8
1 9
1 10
1 11
1 12
1 13
1 14
1 15
1 16
1 17
1 18
1 19
1 20
1 21
1 22
1 23
1 24
1 25
1 26
1 27
1 28
1 29
1 30
1 31
1 32
1 33
1 34
1 35
1 36
1 37
1 38
1 39
1 40
1 41
1 42
1 43
1 44
1 45
1 46
1 47
1 48
1 49
1 50
1 51
1 52
1 53
1 54
1 55
1 56
1 57
1 58
1 59
1 60
1 61
1 62
1 63
1 64
1 65
1 66
1 67
1 68
1 69
1 70
1 71
1 72
1 73
1 74
1 75
1 76
1 77
1 78
1 79
1 80
1 81
1 82
1 83
1 84
1 85
1 86
1 87
1 88
1 89
1 90
1 91
1 92
1 93
1 94
1 95
1 96
1 97
1 98
1 99
1 100
1 101
1 102
1 103
1 104
1 105
1 106
1 107
1 108
1 109
1 110
1 111
1 112
1 113
1 114
1 115
1 116
1 117
1 118
1 119
1 120
1 121
1 122
1 123
1 124
1 125
1 126
1 127
1 128
1 129
1 130
1 131
1 132
1 133
1 134
1 135
1 136
1 137
1 138
1 139
1 140
1 141
1 142
1 143
1 144
1 145
1 146
1 147
1 148
1 149
1 150
1 151
1 152
1 153
1 154
1 155
1 156
1 157
1 158
1 159
1 160
1 161
1 162
1 163
1 164
1 165
1 166
1 167
1 168
1 169
1 170
1 171
1 172
1 173
1 174
1 175
1 176
1 177
1 178
1 179
1 180
1 181
1 182
1 183
1 184
1 185
1 186
1 187
1 188
1 189
1 190
1 191
1 192
1 193
1 194
1 195
1 196
1 197
1 198
1 199
1 200
1 201
1 202
1 203
1 204
1 205
1 206
1 207
1 208
1 209
1 210
1 211
1 212
1 213
1 214
1 215
1 216
1 217
1 218
1 219
1 220
1 221
1 222
1 223
1 224
1 225
1 226
1 227
1 228
1 229
1 230
1 231
1 232
1 233
1 234
1 235
1 236
1 237
1 238
1 239
1 240
1 241
1 242
1 243
1 244
1 245
1 246
1 247
1 248
1 249
1 250
1 251
1 252
1 253
1 254
1 255
1 256
1 257
1 258
1 259
1 260
1 261
1 262
1 263
1 264
1 265
1 266
1 267
1 268
1 269
1 270
1 271
1 272
1 273
1 274
1 275
1 276
1 277
1 278
1 279
1 280
1 281
1 282
1 283
1 284
1 285
1 286
1 287
1 288
1 289
1 290
1 291
1 292
1 293
1 294
1 295
1 296
1 297
1 298
1 299
1 300
1 301
1 302
1 303
1 304
1 305
1 306
1 307
1 308
1 309
1 310
1 311
1 312
1 313
1 314
1 315
1 316
1 317
1 318
1 319
1 320
1 321
1 322
1 323
1 324
1 325
1 326
1 327
1 328
1 329
1 330
1 331
1 332
1 333
1 334
1 335
1 336
1 337
1 338
1 339
1 340
1 341
1 342
1 343
1 344
1 345
1 346
1 347
1 348
1 349
1 350
1 351
1 352
1 353
1 354
1 355
1 356
1 357
1 358
1 359
1 360
1 361
1 362
1 363
1 364
1 365
1 366
1 367
1 368
1 369
1 370
1 371
1 372
1 373
1 374
1 375
1 376
1 377
1 378
1 379
1 380
1 381
1 382
1 383
1 384
1 385
1 386
1 387
1 388
1 389
1 390
1 391
1 392
1 393
1 394
1 395
1 396
1 397
1 398
1 399
1 400
1 401
1 402
1 403
1 404
1 405
1 406
1 407
1 408
1 409
1 410
1 411
1 412
1 413
1 414
1 415
1 416
1 417
1 418
1 419
1 420
1 421
1 422
1 423
1 424
1 425
1 426
1 427
1 428
1 429
1 430
1 431
1 432
1 433
1 434
1 435
1 436
1 437
1 438
1 439
1 440
1 441
1 442
1 443
1 444
1 445
1 446
1 447
1 448
1 449
1 450
1 451
1 452
1 453
1 454
1 455
1 456
1 457
1 458
1 459
1 460
1 461
1 462
1 463
1 464
1 465
1 466
1 467
1 468
1 469
1 470
1 471
1 472
1 473
1 474
1 475
1 476
1 477
1 478
1 479
1 480
1 481
1 482
1 483
1 484
1 485
1 486
1 487
1 488
1 489
1 490
1 491
1 492
1 493
1 494
1 495
1 496
1 497
1 498
1 499
1 500
1 501
1 502
1 503
1 504
1 505
1 506
1 507
1 508
1 509
1 510
1 511
1 512
1 513
1 514
1 515
1 516
1 517
1 518
1 519
1 520
1 521
1 522
1 523
1 524
1 525
1 526
1 527
1 528
1 529
1 530
1 531
1 532
1 533
1 534
1 535
1 536
1 537
1 538
1 539
1 540
1 541
1 542
1 543
1 544
1 545
1 546
1 547
1 548
1 549
1 550
1 551
1 552
1 553
1 554
1 555
1 556
1 557
1 558
1 559
1 560
1 561
1 562
1 563
1 564
1 565
1 566
1 567
1 568
1 569
1 570
1 571
1 572
1 573
1 574
1 575
1 576
1 577
1 578
1 579
1 580
1 581
1 582
1 583
1 584
1 585
1 586
1 587
1 588
1 589
1 590
1 591
1 592
1 593
1 594
1 595
1 596
1 597
1 598
1 599
1 600
1 601
1 602
1 603
1 604
1 605
1 606
1 607
1 608
1 609
1 610
1 611
1 612
1 613
1 614
1 615
1 616
1 617
1 618
1 619
1 620
1 621
1 622
1 623
1 624
1 625
1 626
1 627
1 628
1 629
1 630
1 631
1 632
1 633
1 634
1 635
1 636
1 637
1 638
1 639
1 640
1 641
1 642
1 643
1 644
1 645
1 646
1 647
1 648
1 649
1 650
1 651
1 652
1 653
1 654
1 655
1 656
1 657
1 658
1 659
1 660
1 661
1 662
1 663
1 664
1 665
1 666
1 667
1 668
1 669
1 670
1 671
1 672
1 673
1 674
1 675
1 676
1 677
1 678
1 679
1 680
POINT_DATA 681
SCALARS is_boundary int 1
LOOKUP_TABLE default
0
0
0
0
0
0
0
0
0
0
0
0
0
0
0
0
0
0
0
0
0
0
0
0
0
0
0
0
0
0
0
0
0
0
0
0
0
0
0
0
0
0
0
0
0
0
0
0
0
0
0
0
0
0
0
0
0
0
0
0
0
0
0
0
0
0
0
0
0
0
0
0
0
0
0
0
0
0
0
0
0
0
0
0
0
0
0
0
0
0
0
0
0
0
0
0
0
0
0
0
0
0
0
0
0
0
0
0
0
0
0
0
0
0
0
0
0
0
0
0
0
0
0
0
0
0
0
0
0
0
0
0
0
0
0
0
0
0
0
0
0
0
0
0
0
0
0
0
0
0
0
0
0
0
0
0
0
0
0
0
0
0
0
0
0
0
0
0
0
0
0
0
0
0
0
0
0
0
0
0
0
0
0
0
0
0
0
0
0
0
0
0
0
0
0
0
0
0
0
0
0
0
0
0
0
0
0
0
0
0
0
0
0
0
0
0
0
0
0
0
0
0
0
0
0
0
0
0
0
0
0
0
0
0
0
0
0
0
0
0
0
0
0
0
0
0
0
0
0
0
0
0
0
0
0
0
0
0
0
0
0
0
0
0
0
0
0
0
0
0
0
0
0
0
0
0
0
0
0
0
0
0
0
0
0
0
0
0
0
0
0
0
0
0
0
0
0
0
0
0
0
0
0
0
0
0
0
0
0
0
0
0
0
0
0
0
0
0
0
0
0
0
0
0
0
0
0
0
0
0
0
0
0
0
0
0
0
0
0
0
0
0
0
0
0
0
0
0
0
0
0
0
0
0
0
0
0
0
0
0
0
0
0
0
0
0
0
0
0
0
0
0
0
0
0
1
1
1
1
1
1
1
1
1
1
1
1
1
1
1
1
1
1
1
1
1
1
1
1
1
1
1
1
1
1
1
1
1
1
1
1
1
1
1
1
1
1
1
1
1
1
1
1
1
1
1
1
1
1
1
1
1
1
1
1
1
1
1
1
1
1
1
1
1
1
1
1
1
1
1
1
1
1
1
1
1
1
1
1
1
1
1
1
1
1
1
1
1
1
1
1
1
1
1
1
1
1
1
1
1
1
1
1
1
1
1
1
1
1
1
1
1
1
1
1
1
1
1
1
1
1
1
1
1
1
1
1
1
1
1
1
1
1
1
1
1
1
1
1
1
1
1
1
1
1
1
1
1
1
1
1
1
1
1
1
1
1
1
1
1
1
1
1
1
1
1
1
1
1
1
1
1
1
1
1
1
1
1
1
1
1
1
1
1
1
1
1
1
1
1
1
1
1
1
1
1
1
1
1
1
1
1
1
1
1
1
1
1
1
1
1
1
1
1
1
1
1
1
1
1
1
1
1
1
1
1
1
1
1
1
1
1
1
1
1
1
1
1
1
1
1
1
1
1
1
1
1
1
1
1
1
1
1
1
1
1
1
1
1
1
1
1
1
1
1
1
1
1
1
1
1
1
1
1
1
1
1
1
1
1
1
1
1
1
1
1
1
1
1
1
1
1
1
1
1
1
1
1
1
1
1
SCALARS rho float 1
LOOKUP_TABLE default
1020
1020
1020
1020
1020
1020
1020
1020
1020
1020
1020
1020
1020
1020
1020
1020
1020
1020
1020
1020
1020
1020
1020
1020
1020
1020
1020
1020
1020
1020
1020
1020
1020
1020
1020
1020
1020
1020
1020
1020
1020
1020
1020
1020
1020
1020
1020
1020
1020
1020
1020
1020
1020
1020
1020
1020
1020
1020
1020
1020
1020
1020
1020
1020
1020
1020
1020
1020
1020
1020
1020
1020
1020
1020
1020
1020
1020
1020
1020
1020
1020
1020
1020
1020
1020
1020
1020
1020
1020
1020
1020
1020
1020
1020
1020
1020
1020
1020
1020
1020
1020
1020
1020
1020
1020
1020
1020
1020
1020
1020
1020
1020
1020
1020
1020
1020
1020
1020
1020
1020
1020
1020
1020
1020
1020
1020
1020
1020
1020
1020
1020
1020
1020
1020
1020
1020
1020
1020
1020
1020
1020
1020
1020
1020
1020
1020
1020
1020
1020
1020
1020
1020
1020
1020
1020
1020
1020
1020
1020
1020
1020
1020
1020
1020
1020
1020
1020
1020
1020
1020
1020
1020
1020
1020
1020
1020
1020
1020
1020
1020
1020
1020
1020
1020
1020
1020
1020
1020
1020
1020
1020
1020
1020
1020
1020
1020
1020
1020
1020
1020
1020
1020
1020
1020
1020
1020
1020
1020
1020
1020
1020
1020
1020
1020
1020
1020
1020
1020
1020
1020
1020
1020
1020
1020
1020
1020
1020
1020
1020
1020
1020
1020
1020
1020
1020
1020
1020
1020
1020
1020
1020
1020
1020
1020
1020
1020
1020
1020
1020
1020
1020
1020
1020
1020
1020
1020
1020
1020
1020
1020
1020
1020
1020
1020
1020
1020
1020
1020
1020
1020
1020
1020
1020
1020
1020
1020
1020
1020
1020
1020
1020
1020
1020
1020
1020
1020
1020
1020
1020
1020
1020
1020
1020
1020
1020
1020
1020
1020
1020
1020
1020
1020
1020
1020
1020
1020
1020
1020
1020
1020
1020
1020
1020
1020
1020
1020
1020
1020
1020
1020
1020
1020
1020
1020
1020
1020
1020
1020
1020
1020
1020
1020
1020
1020
1020
1020
1020
1020
1020
1020
1020
1020
1020
1020
1020
1020
1020
1020
1020
1020
1020
1020
1020
1020
1020
1020
1020
1020
1020
1020
1020
1020
1020
1020
1020
1020
1020
1020
1020
1020
1020
1020
1020
1020
1020
1000
1000
1000
1000
1000
1000
1000
1000
1000
1000
1000
1000
1000
1000
1000
1000
1000
1000
1000
1000
1000
1000
1000
1000
1000
1000
1000
1000
1000
1000
1000
1000
1000
1000
1000
1000
1000
1000
1000
1000
1000
1000
1000
1000
1000
1000
1000
1000
1000
1000
1000
1000
1000
1000
1000
1000
1000
1000
1000
1000
1000
1000
1000
1000
1000
1000
1000
1000
1000
1000
1000
1000
1000
1000
1000
1000
1000
1000
1000
1000
1000
1000
1000
1000
1000
1000
1000
1000
1000
1000
1000
1000
1000
1000
1000
1000
1000
1000
1000
1000
1000
1000
1000
1000
1000
1000
1000
1000
1000
1000
1000
1000
1000
1000
1000
1000
1000
1000
1000
1000
1000
1000
1000
1000
1000
1000
1000
1000
1000
1000
1000
1000
1000
1000
1000
1000
1000
1000
1000
1000
1000
1000
1000
1000
1000
1000
1000
1000
1000
1000
1000
1000
1000
1000
1000
1000
1000
1000
1000
1000
1000
1000
1000
1000
1000
1000
1000
1000
1000
1000
1000
1000
1000
1000
1000
1000
1000
1000
1000
1000
1000
1000
1000
1000
1000
1000
1000
1000
1000
1000
1000
1000
1000
1000
1000
1000
1000
1000
1000
1000
1000
1000
1000
1000
1000
1000
1000
1000
1000
1000
1000
1000
1000
1000
1000
1000
1000
1000
1000
1000
1000
1000
1000
1000
1000
1000
1000
1000
1000
1000
1000
1000
1000
1000
1000
1000
1000
1000
1000
1000
1000
1000
1000
1000
1000
1000
1000
1000
1000
1000
1000
1000
1000
1000
1000
1000
1000
1000
1000
1000
1000
1000
1000
1000
1000
1000
1000
1000
1000
1000
1000
1000
1000
1000
1000
1000
1000
1000
1000
1000
1000
1000
1000
1000
1000
1000
1000
1000
1000
1000
1000
1000
1000
1000
1000
1000
1000
1000
1000
1000
1000
1000
1000
1000
1000
1000
SCALARS p float 1
LOOKUP_TABLE default
25004.681136676067
25004.681136676067
25004.681136676067
25004.681136676067
25004.681136676067
25004.681136676067
25004.681136676067
25004.681136676067
25004.681136676067
25004.681136676067
25004.681136676067
25004.681136676067
25004.681136676067
25004.681136676067
25004.681136676067
25004.681136676067
25004.681136676067
25004.681136676067
25004.681136676067
25004.681136676067
25004.681136676067
25004.681136676067
25004.681136676067
25004.681136676067
25004.681136676067
25004.681136676067
25004.681136676067
25004.681136676067
25004.681136676067
25004.681136676067
25004.681136676067
25004.681136676067
25004.681136676067
25004.681136676067
25004.681136676067
25004.681136676067
25004.681136676067
25004.681136676067
25004.681136676067
25004.681136676067
25004.681136676067
25004.681136676067
25004.681136676067
25004.681136676067
25004.681136676067
25004.681136676067
25004.681136676067
25004.681136676067
25004.681136676067
25004.681136676067
25004.681136676067
25004.681136676067
25004.681136676067
25004.681136676067
25004.681136676067
25004.681136676067
25004.681136676067
25004.681136676067
25004.681136676067
25004.681136676067
25004.681136676067
25004.681136676067
25004.681136676067
25004.681136676067
25004.681136676067
25004.681136676067
25004.681136676067
25004.681136676067
25004.681136676067
25004.681136676067
25004.681136676067
25004.681136676067
25004.681136676067
25004.681136676067
25004.681136676067
25004.681136676067
25004.681136676067
25004.681136676067
25004.681136676067
25004.681136676067
25004.681136676067
25004.681136676067
25004.681136676067
25004.681136676067
25004.681136676067
25004.681136676067
25004.681136676067
25004.681136676067
25004.681136676067
25004.681136676067
25004.681136676067
25004.681136676067
25004.681136676067
25004.681136676067
25004.681136676067
25004.681136676067
25004.681136676067
25004.681136676067
25004.681136676067
25004.681136676067
25004.681136676067
25004.681136676067
25004.681136676067
25004.681136676067
25004.681136676067
25004.681136676067
25004.681136676067
25004.681136676067
25004.681136676067
25004.681136676067
25004.681136676067
25004.681136676067
25004.681136676067
25004.681136676067
25004.681136676067
25004.681136676067
25004.681136676067
25004.681136676067
25004.681136676067
25004.681136676067
25004.681136676067
25004.681136676067
25004.681136676067
25004.681136676067
25004.681136676067
25004.681136676067
25004.681136676067
25004.681136676067
25004.681136676067
25004.681136676067
25004.681136676067
25004.681136676067
25004.681136676067
25004.681136676067
25004.681136676067
25004.681136676067
25004.681136676067
25004.681136676067
25004.681136676067
25004.681136676067
25004.681136676067
25004.681136676067
25004.681136676067
25004.681136676067
25004.681136676067
25004.681136676067
25004.681136676067
25004.681136676067
25004.681136676067
25004.681136676067
25004.681136676067
25004.681136676067
25004.681136676067
25004.681136676067
25004.681136676067
25004.681136676067
25004.681136676067
25004.681136676067
25004.681136676067
25004.681136676067
25004.681136676067
25004.681136676067
25004.681136676067
25004.681136676067
25004.681136676067
25004.681136676067
25004.681136676067
25004.681136676067
25004.681136676067
25004.681136676067
25004.681136676067
25004.681136676067
25004.681136676067
25004.681136676067
25004.681136676067
25004.681136676067
25004.681136676067
25004.681136676067
25004.681136676067
25004.681136676067
25004.681136676067
25004.681136676067
25004.681136676067
25004.681136676067
25004.681136676067
25004.681136676067
25004.681136676067
25004.681136676067
25004.681136676067
25004.681136676067
25004.681136676067
25004.681136676067
25004.681136676067
25004.681136676067
25004.681136676067
25004.681136676067
25004.681136676067
25004.681136676067
25004.681136676067
25004.681136676067
25004.681136676067
25004.681136676067
25004.681136676067
25004.681136676067
25004.681136676067
25004.681136676067
25004.681136676067
25004.681136676067
25004.681136676067
25004.681136676067
25004.681136676067
25004.681136676067
25004.681136676067
25004.681136676067
25004.681136676067
25004.681136676067
25004.681136676067
25004.681136676067
25004.681136676067
25004.681136676067
25004.681136676067
25004.681136676067
25004.681136676067
25004.681136676067
25004.681136676067
25004.681136676067
25004.681136676067
25004.681136676067
25004.681136676067
25004.681136676067
25004.681136676067
25004.681136676067
25004.681136676067
25004.681136676067
25004.681136676067
25004.681136676067
25004.681136676067
25004.681136676067
25004.681136676067
25004.681136676067
25004.681136676067
25004.681136676067
25004.681136676067
25004.681136676067
25004.681136676067
25004.681136676067
25004.681136676067
25004.681136676067
25004.681136676067
25004.681136676067
25004.681136676067
25004.681136676067
25004.681136676067
25004.681136676067
25004.681136676067
25004.681136676067
25004.681136676067
25004.681136676067
25004.681136676067
25004.681136676067
25004.681136676067
25004.681136676067
25004.681136676067
25004.681136676067
25004.681136676067
25004.681136676067
25004.681136676067
25004.681136676067
25004.681136676067
25004.681136676067
25004.681136676067
25004.681136676067
25004.681136676067
25004.681136676067
25004.681136676067
25004.681136676067
25004.681136676067
25004.681136676067
25004.681136676067
25004.681136676067
25004.681136676067
25004.681136676067
25004.681136676067
25004.681136676067
25004.681136676067
25004.681136676067
25004.681136676067
25004.681136676067
25004.681136676067
25004.681136676067
25004.681136676067
25004.681136676067
25004.681136676067
25004.681136676067
25004.681136676067
25004.681136676067
25004.681136676067
25004.681136676067
25004.681136676067
25004.681136676067
25004.681136676067
25004.681136676067
25004.681136676067
25004.681136676067
25004.681136676067
25004.681136676067
25004.681136676067
25004.681136676067
25004.681136676067
25004.681136676067
25004.681136676067
25004.681136676067
25004.681136676067
25004.681136676067
25004.681136676067
25004.681136676067
25004.681136676067
25004.681136676067
25004.681136676067
25004.681136676067
25004.681136676067
25004.681136676067
25004.681136676067
25004.681136676067
25004.681136676067
25004.681136676067
25004.681136676067
25004.681136676067
25004.681136676067
25004.681136676067
25004.681136676067
25004.681136676067
25004.681136676067
25004.681136676067
25004.681136676067
25004.681136676067
25004.681136676067
25004.681136676067
25004.681136676067
25004.681136676067
25004.681136676067
25004.681136676067
25004.681136676067
25004.681136676067
25004.681136676067
25004.681136676067
25004.681136676067
25004.681136676067
25004.681136676067
25004.681136676067
25004.681136676067
25004.681136676067
25004.681136676067
25004.681136676067
25004.681136676067
25004.681136676067
25004.681136676067
25004.681136676067
25004.681136676067
25004.681136676067
25004.681136676067
25004.681136676067
25004.681136676067
25004.681136676067
25004.681136676067
25004.681136676067
25004.681136676067
25004.681136676067
25004.681136676067
25004.681136676067
25004.681136676067
25004.681136676067
25004.681136676067
25004.681136676067
25004.681136676067
0
0
0
0
0
0
24302.913500621631
24983.947693832153
24991.303951496786
0
0
0
24998.08699495234
25003.975803896017
25004.209734669334
0
0
0
25001.573101964779
25004.321695798662
25004.437393126678
0
0
0
25001.782852471319
25004.327247215238
25004.437547109857
0
0
0
25001.795114597011
25004.326817988214
25004.436842523122
0
0
0
25001.791484122921
25004.326555387364
25004.436762746951
0
0
0
25001.789237027093
25004.326435499752
25004.436755460454
0
0
0
25001.788361859522
25004.326388006106
25004.436755713334
0
0
0
25001.788141161538
25004.326374122218
25004.436756695937
0
0
0
25001.788170512937
25004.326375156055
25004.436758819218
0
0
0
25001.788516065182
25004.326393890242
25004.43675761906
0
0
0
25001.789492300857
25004.326447078736
25004.436759075008
0
0
0
25001.791751120963
25004.326567205073
25004.436767861029
0
0
0
25001.795313426024
25004.326824411
25004.436843359123
0
0
0
25001.782900141923
25004.327245266832
25004.437545267985
0
0
0
25001.573101754882
25004.321695725062
25004.437397366477
0
0
0
24998.086683447644
25003.975768826505
25004.209718204136
0
0
0
24302.769108240493
24983.944515457202
24991.301394448397
0
0
0
0
0
0
0
0
0
0
0
0
0
0
0
0
0
0
0
0
0
0
0
0
0
0
0
0
0
0
0
0
0
0
0
0
0
0
0
0
0
0
0
0
0
0
0
0
0
0
0
0
0
0
0
0
0
0
0
0
0
0
0
0
0
0
0
0
0
0
0
0
0
0
0
0
0
0
0
0
0
0
0
0
0
0
0
0
0
0
0
0
0
0
0
0
0
0
0
0
0
0
0
0
0
0
0
0
0
0
0
0
0
0
0
0
0
0
0
0
0
0
0
0
0
0
0
0
0
0
0
0
0
0
0
0
0
0
0
0
0
0
0
0
0
0
0
0
0
0
0
0
0
0
0
0
0
0
0
0
0
0
0
0
0
0
0
0
0
0
0
0
0
0
0
0
0
0
0
0
0
0
0
0
0
0
0
0
0
0
0
0
0
0
0
SCALARS m float 1
LOOKUP_TABLE default
0.39965556373580352
0.39965556373580352
0.39965556373580352
0.39965556373580352
0.39965556373580352
0.39965556373580352
0.39965556373580352
0.39965556373580352
0.39965556373580352
0.39965556373580352
0.39965556373580352
0.39965556373580352
0.39965556373580352
0.39965556373580352
0.39965556373580352
0.39965556373580352
0.39965556373580352
0.39965556373580352
0.39965556373580352
0.39965556373580352
0.39965556373580352
0.39965556373580352
0.39965556373580352
0.39965556373580352
0.39965556373580352
0.39965556373580352
0.39965556373580352
0.39965556373580352
0.39965556373580352
0.39965556373580352
0.39965556373580352
0.39965556373580352
0.39965556373580352
0.39965556373580352
0.39965556373580352
0.39965556373580352
0.39965556373580352
0.39965556373580352
0.39965556373580352
0.39965556373580352
0.39965556373580352
0.39965556373580352
0.39965556373580352
0.39965556373580352
0.39965556373580352
0.39965556373580352
0.39965556373580352
0.39965556373580352
0.39965556373580352
0.39965556373580352
0.39965556373580352
0.39965556373580352
0.39965556373580352
0.39965556373580352
0.39965556373580352
0.39965556373580352
0.39965556373580352
0.39965556373580352
0.39965556373580352
0.39965556373580352
0.39965556373580352
0.39965556373580352
0.39965556373580352
0.39965556373580352
0.39965556373580352
0.39965556373580352
0.39965556373580352
0.39965556373580352
0.39965556373580352
0.39965556373580352
0.39965556373580352
0.39965556373580352
0.39965556373580352
0.39965556373580352
0.39965556373580352
0.39965556373580352
0.39965556373580352
0.39965556373580352
0.39965556373580352
0.39965556373580352
0.39965556373580352
0.39965556373580352
0.39965556373580352
0.39965556373580352
0.39965556373580352
0.39965556373580352
0.39965556373580352
0.39965556373580352
0.39965556373580352
0.39965556373580352
0.39965556373580352
0.39965556373580352
0.39965556373580352
0.39965556373580352
0.39965556373580352
0.39965556373580352
0.39965556373580352
0.39965556373580352
0.39965556373580352
0.39965556373580352
0.39965556373580352
0.39965556373580352
0.39965556373580352
0.39965556373580352
0.39965556373580352
0.39965556373580352
0.39965556373580352
0.39965556373580352
0.39965556373580352
0.39965556373580352
0.39965556373580352
0.39965556373580352
0.39965556373580352
0.39965556373580352
0.39965556373580352
0.39965556373580352
0.39965556373580352
0.39965556373580352
0.39965556373580352
0.39965556373580352
0.39965556373580352
0.39965556373580352
0.39965556373580352
0.39965556373580352
0.39965556373580352
0.39965556373580352
0.39965556373580352
0.39965556373580352
0.39965556373580352
0.39965556373580352
0.39965556373580352
0.39965556373580352
0.39965556373580352
0.39965556373580352
0.39965556373580352
0.39965556373580352
0.39965556373580352
0.39965556373580352
0.39965556373580352
0.39965556373580352
0.39965556373580352
0.39965556373580352
0.39965556373580352
0.39965556373580352
0.39965556373580352
0.39965556373580352
0.39965556373580352
0.39965556373580352
0.39965556373580352
0.39965556373580352
0.39965556373580352
0.39965556373580352
0.39965556373580352
0.39965556373580352
0.39965556373580352
0.39965556373580352
0.39965556373580352
0.39965556373580352
0.39965556373580352
0.39965556373580352
0.39965556373580352
0.39965556373580352
0.39965556373580352
0.39965556373580352
0.39965556373580352
0.39965556373580352
0.39965556373580352
0.39965556373580352
0.39965556373580352
0.39965556373580352
0.39965556373580352
0.39965556373580352
0.39965556373580352
0.39965556373580352
0.39965556373580352
0.39965556373580352
0.39965556373580352
0.39965556373580352
0.39965556373580352
0.39965556373580352
0.39965556373580352
0.39965556373580352
0.39965556373580352
0.39965556373580352
0.39965556373580352
0.39965556373580352
0.39965556373580352
0.39965556373580352
0.39965556373580352
0.39965556373580352
0.39965556373580352
0.39965556373580352
0.39965556373580352
0.39965556373580352
0.39965556373580352
0.39965556373580352
0.39965556373580352
0.39965556373580352
0.39965556373580352
0.39965556373580352
0.39965556373580352
0.39965556373580352
0.39965556373580352
0.39965556373580352
0.39965556373580352
0.39965556373580352
0.39965556373580352
0.39965556373580352
0.39965556373580352
0.39965556373580352
0.39965556373580352
0.39965556373580352
0.39965556373580352
0.39965556373580352
0.39965556373580352
0.39965556373580352
0.39965556373580352
0.39965556373580352
0.39965556373580352
0.39965556373580352
0.39965556373580352
0.39965556373580352
0.39965556373580352
0.39965556373580352
0.39965556373580352
0.39965556373580352
0.39965556373580352
0.39965556373580352
0.39965556373580352
0.39965556373580352
0.39965556373580352
0.39965556373580352
0.39965556373580352
0.39965556373580352
0.39965556373580352
0.39965556373580352
0.39965556373580352
0.39965556373580352
0.39965556373580352
0.39965556373580352
0.39965556373580352
0.39965556373580352
0.39965556373580352
0.39965556373580352
0.39965556373580352
0.39965556373580352
0.39965556373580352
0.39965556373580352
0.39965556373580352
0.39965556373580352
0.39965556373580352
0.39965556373580352
0.39965556373580352
0.39965556373580352
0.39965556373580352
0.39965556373580352
0.39965556373580352
0.39965556373580352
0.39965556373580352
0.39965556373580352
0.39965556373580352
0.39965556373580352
0.39965556373580352
0.39965556373580352
0.39965556373580352
0.39965556373580352
0.39965556373580352
0.39965556373580352
0.39965556373580352
0.39965556373580352
0.39965556373580352
0.39965556373580352
0.39965556373580352
0.39965556373580352
0.39965556373580352
0.39965556373580352
0.39965556373580352
0.39965556373580352
0.39965556373580352
0.39965556373580352
0.39965556373580352
0.39965556373580352
0.39965556373580352
0.39965556373580352
0.39965556373580352
0.39965556373580352
0.39965556373580352
0.39965556373580352
0.39965556373580352
0.39965556373580352
0.39965556373580352
0.39965556373580352
0.39965556373580352
0.39965556373580352
0.39965556373580352
0.39965556373580352
0.39965556373580352
0.39965556373580352
0.39965556373580352
0.39965556373580352
0.39965556373580352
0.39965556373580352
0.39965556373580352
0.39965556373580352
0.39965556373580352
0.39965556373580352
0.39965556373580352
0.39965556373580352
0.39965556373580352
0.39965556373580352
0.39965556373580352
0.39965556373580352
0.39965556373580352
0.39965556373580352
0.39965556373580352
0.39965556373580352
0.39965556373580352
0.39965556373580352
0.39965556373580352
0.39965556373580352
0.39965556373580352
0.39965556373580352
0.39965556373580352
0.39965556373580352
0.39965556373580352
0.39965556373580352
0.39965556373580352
0.39965556373580352
0.39965556373580352
0.39965556373580352
0.39965556373580352
0.39965556373580352
0.39965556373580352
0.39965556373580352
0.39965556373580352
0.39965556373580352
0.39965556373580352
0.39965556373580352
0.39965556373580352
0.39965556373580352
0.39965556373580352
0.39965556373580352
0.39965556373580352
0.39965556373580352
0.39965556373580352
0.39965556373580352
0.39965556373580352
0.39965556373580352
0.39965556373580352
0.39965556373580352
0.39965556373580352
0.39965556373580352
0.39965556373580352
0.39965556373580352
0.39965556373580352
0.39965556373580352
0.39965556373580352
0.39965556373580352
0.39965556373580352
0.39965556373580352
0.39965556373580352
0.39965556373580352
0.39965556373580352
0.39965556373580352
0.39965556373580352
0.39965556373580352
0.39965556373580352
0.39965556373580352
0.39965556373580352
0.39965556373580352
0.39965556373580352
0.39965556373580352
0.39965556373580352
0.39965556373580352
0.39965556373580352
0.39965556373580352
0.39965556373580352
0.39965556373580352
0.39965556373580352
0.39965556373580352
0.39965556373580352
0.39965556373580352
0.39965556373580352
0.39965556373580352
0.39965556373580352
0.39965556373580352
0.39965556373580352
0.39965556373580352
0.39965556373580352
0.39965556373580352
0.39965556373580352
0.39965556373580352
0.39965556373580352
0.39965556373580352
0.39965556373580352
0.39965556373580352
0.39965556373580352
0.39965556373580352
0.39965556373580352
0.39965556373580352
0.39965556373580352
0.39965556373580352
0.39965556373580352
0.39965556373580352
0.39965556373580352
0.39965556373580352
0.39965556373580352
0.39965556373580352
0.39965556373580352
0.39965556373580352
0.39965556373580352
0.39965556373580352
0.39965556373580352
0.39965556373580352
0.39965556373580352
0.39965556373580352
0.39965556373580352
0.39965556373580352
0.39965556373580352
0.39965556373580352
0.39965556373580352
0.39965556373580352
0.39965556373580352
0.39965556373580352
0.39965556373580352
0.39965556373580352
0.39965556373580352
0.39965556373580352
0.39965556373580352
0.39965556373580352
0.39965556373580352
0.39965556373580352
0.39965556373580352
0.39965556373580352
0.39965556373580352
0.39965556373580352
0.39965556373580352
0.39965556373580352
0.39965556373580352
0.39965556373580352
0.39965556373580352
0.39965556373580352
0.39965556373580352
0.39965556373580352
0.39965556373580352
0.39965556373580352
0.39965556373580352
0.39965556373580352
0.39965556373580352
0.39965556373580352
0.39965556373580352
0.39965556373580352
0.39965556373580352
0.39965556373580352
0.39965556373580352
0.39965556373580352
0.39965556373580352
0.39965556373580352
0.39965556373580352
0.39965556373580352
0.39965556373580352
0.39965556373580352
0.39965556373580352
0.39965556373580352
0.39965556373580352
0.39965556373580352
0.39965556373580352
0.39965556373580352
0.39965556373580352
0.39965556373580352
0.39965556373580352
0.39965556373580352
0.39965556373580352
0.39965556373580352
0.39965556373580352
0.39965556373580352
0.39965556373580352
0.39965556373580352
0.39965556373580352
0.39965556373580352
0.39965556373580352
0.39965556373580352
0.39965556373580352
0.39965556373580352
0.39965556373580352
0.39965556373580352
0.39965556373580352
0.39965556373580352
0.39965556373580352
0.39965556373580352
0.39965556373580352
0.39965556373580352
0.39965556373580352
0.39965556373580352
0.39965556373580352
0.39965556373580352
0.39965556373580352
0.39965556373580352
0.39965556373580352
0.39965556373580352
0.39965556373580352
0.39965556373580352
0.39965556373580352
0.39965556373580352
0.39965556373580352
0.39965556373580352
0.39965556373580352
0.39965556373580352
0.39965556373580352
0.39965556373580352
0.39965556373580352
0.39965556373580352
0.39965556373580352
0.39965556373580352
0.39965556373580352
0.39965556373580352
0.39965556373580352
0.39965556373580352
0.39965556373580352
0.39965556373580352
0.39965556373580352
0.39965556373580352
0.39965556373580352
0.39965556373580352
0.39965556373580352
0.39965556373580352
0.39965556373580352
0.39965556373580352
0.39965556373580352
0.39965556373580352
0.39965556373580352
0.39965556373580352
0.39965556373580352
0.39965556373580352
0.39965556373580352
0.39965556373580352
0.39965556373580352
0.39965556373580352
0.39965556373580352
0.39965556373580352
0.39965556373580352
0.39965556373580352
0.39965556373580352
0.39965556373580352
0.39965556373580352
0.39965556373580352
0.39965556373580352
0.39965556373580352
0.39965556373580352
0.39965556373580352
0.39965556373580352
0.39965556373580352
0.39965556373580352
0.39965556373580352
0.39965556373580352
0.39965556373580352
0.39965556373580352
0.39965556373580352
0.39965556373580352
0.39965556373580352
0.39965556373580352
0.39965556373580352
0.39965556373580352
0.39965556373580352
0.39965556373580352
0.39965556373580352
0.39965556373580352
0.39965556373580352
0.39965556373580352
0.39965556373580352
0.39965556373580352
0.39965556373580352
0.39965556373580352
0.39965556373580352
0.39965556373580352
0.39965556373580352
0.39965556373580352
0.39965556373580352
0.39965556373580352
0.39965556373580352
0.39965556373580352
0.39965556373580352
0.39965556373580352
0.39965556373580352
0.39965556373580352
0.39965556373580352
0.39965556373580352
0.39965556373580352
0.39965556373580352
0.39965556373580352
0.39965556373580352
0.39965556373580352
0.39965556373580352
0.39965556373580352
0.39965556373580352
0.39965556373580352
0.39965556373580352
0.39965556373580352
0.39965556373580352
0.39965556373580352
0.39965556373580352
0.39965556373580352
0.39965556373580352
0.39965556373580352
0.39965556373580352
0.39965556373580352
0.39965556373580352
0.39965556373580352
0.39965556373580352
0.39965556373580352
0.39965556373580352
0.39965556373580352
0.39965556373580352
0.39965556373580352
0.39965556373580352
0.39965556373580352
0.39965556373580352
0.39965556373580352
0.39965556373580352
0.39965556373580352
0.39965556373580352
0.39965556373580352
0.39965556373580352
0.39965556373580352
0.39965556373580352
0.39965556373580352
0.39965556373580352
0.39965556373580352
0.39965556373580352
0.39965556373580352
0.39965556373580352
0.39965556373580352
0.39965556373580352
0.39965556373580352
0.39965556373580352
0.39965556373580352
0.39965556373580352
0.39965556373580352
0.39965556373580352
0.39965556373580352
0.39965556373580352
0.39965556373580352
0.39965556373580352
0.39965556373580352
0.39965556373580352
0.39965556373580352
0.39965556373580352
0.39965556373580352
0.39965556373580352
0.39965556373580352
0.39965556373580352
0.39965556373580352
0.39965556373580352
0.39965556373580352
0.39965556373580352
0.39965556373580352
0.39965556373580352
0.39965556373580352
0.39965556373580352
0.39965556373580352
0.39965556373580352
0.39965556373580352
0.39965556373580352
0.39965556373580352
0.39965556373580352
0.39965556373580352
0.39965556373580352
0.39965556373580352
0.39965556373580352
0.39965556373580352
0.39965556373580352
0.39965556373580352
0.39965556373580352
0.39965556373580352
0.39965556373580352
0.39965556373580352
0.39965556373580352
0.39965556373580352
0.39965556373580352
0.39965556373580352
0.39965556373580352
VECTORS v float
-1.9990889646753208e-05 -0.036074181074108834 0
-2.103544304878163e-05 -0.036483715679170241 0
-2.181402057372913e-05 -0.036800749167122206 0
-2.2441563256844057e-05 -0.037108425584884086 0
-2.303914500599158e-05 -0.037412222264184621 0
-2.3586104917702744e-05 -0.037727096038790972 0
-2.4088553773387522e-05 -0.038063861780197397 0
-2.4560886411095459e-05 -0.038429380393026347 0
-2.5361330095618723e-05 -0.038829620920700823 0
-2.5417897209022349e-05 -0.039269293706862517 0
-2.5745869910040295e-05 -0.039754597688011088 0
-2.6035542305841591e-05 -0.040291488453076764 0
-2.6263880220859836e-05 -0.040886533184886067 0
-2.6436065939513621e-05 -0.041546951497415108 0
-2.6555620332429002e-05 -0.042286664070505159 0
-2.6643636848238199e-05 -0.043124819825218631 0
-2.6747794528619115e-05 -0.044083799062576534 0
-2.6868549329202969e-05 -0.045191145138104828 0
-2.6997601929742489e-05 -0.046485788234780612 0
-2.7137901322277865e-05 -0.048013398851572769 0
-2.7346628255129976e-05 -0.049857523066565768 0
-2.7615552312709144e-05 -0.052143725920769428 0
-2.7961048253557985e-05 -0.055089640382752054 0
-2.8437306913915715e-05 -0.059127709805168641 0
-2.9147743231462791e-05 -0.065515325732197469 0
-1.1500341907422296e-05 -0.036243594997826346 0
-1.2252126947645837e-05 -0.036689711399567206 0
-1.275709407617482e-05 -0.037034816800285392 0
-1.3182735351908251e-05 -0.03736429181331237 0
-1.3601422635782141e-05 -0.03768386333325293 0
-1.3908719647050333e-05 -0.038008635700237395 0
-1.4180377430093243e-05 -0.038354440991777337 0
-1.4363366804105217e-05 -0.038729949831857582 0
-1.4651742355753147e-05 -0.039140261360150461 0
-1.4844090199557208e-05 -0.039592474647723544 0
-1.4911273059262677e-05 -0.040092103948578234 0
-1.5126146538680703e-05 -0.040644558789926635 0
-1.5296426482690086e-05 -0.041257110792442583 0
-1.5501097008485567e-05 -0.041937810287925911 0
-1.5717101912997215e-05 -0.04270125836004874 0
-1.5894735026594013e-05 -0.043566145366039796 0
-1.6039436895314899e-05 -0.0445553334360669 0
-1.6162323655618039e-05 -0.045696804700358654 0
-1.633511869830139e-05 -0.047027132213532621 0
-1.648273929715863e-05 -0.048596556568114735 0
-1.6617902107834705e-05 -0.050484759957500777 0
-1.6788422112130598e-05 -0.052816490500466058 0
-1.6983223892752841e-05 -0.05581420435178653 0
-1.7165909362624653e-05 -0.059927835516014417 0
-1.7342967731783211e-05 -0.066602690766767364 0
-4.1276413766590681e-06 -0.036312251404694969 0
-4.3924920671213646e-06 -0.036763182261181852 0
-4.5814287695652856e-06 -0.037112300964654288 0
-4.7545273503776101e-06 -0.037446057194844 0
-4.9009547547387747e-06 -0.037769617307882579 0
-4.9950980569014332e-06 -0.038099590491164279 0
-5.16450184053017e-06 -0.038450774354370151 0
-5.1990052069942737e-06 -0.038832334438868611 0
-5.2393583596144881e-06 -0.039250028755135238 0
-5.4308796108708544e-06 -0.039710530023845635 0
-5.5036894543987463e-06 -0.040220018912371862 0
-5.569287124644795e-06 -0.040785075614381404 0
-5.7174569642014118e-06 -0.04141288443278212 0
-5.7450479837381309e-06 -0.042110706449975888 0
-6.024411141415545e-06 -0.042895106568341265 0
-6.161384689998816e-06 -0.043784540291242409 0
-6.2270841399463334e-06 -0.044802635965707577 0
-6.4013176787544573e-06 -0.045977537124467928 0
-6.5106331055357467e-06 -0.047346560138628799 0
-6.6275296241727553e-06 -0.048962812940814664 0
-6.8190207681372052e-06 -0.050905052970788386 0
-7.0565515067290832e-06 -0.053299362224470952 0
-7.2592883140951615e-06 -0.056368595723047157 0
-7.5055977360425363e-06 -0.06055927344737215 0
-7.780791442771183e-06 -0.067331432930786334 0
-1.4780183763610483e-06 -0.036348558918293271 0
-1.632143538614365e-06 -0.036802963712420964 0
-1.7041206581143695e-06 -0.037154858566593521 0
-1.7638119229981587e-06 -0.037491406709668607 0
-1.8197464576912903e-06 -0.037817728464154765 0
-1.9300535030813011e-06 -0.038150564215504147 0
-1.9284194139609911e-06 -0.038504878290183814 0
-2.0995345582771616e-06 -0.03888945061290941 0
-2.1269417279223949e-06 -0.039311130214380131 0
-2.0956694319783979e-06 -0.03977608511800558 0
-2.0525112652612482e-06 -0.040290503801916913 0
-2.16522631978861e-06 -0.040860983814346698 0
-2.2925375909627798e-06 -0.041494513541416866 0
-2.1445611739554725e-06 -0.042199211214682064 0
-2.210664236005054e-06 -0.042991066136773386 0
-2.3253110302015464e-06 -0.043889535148477439 0
-2.3359493519521933e-06 -0.044917688817433209 0
-2.4181467918877767e-06 -0.046103851559358949 0
-2.4228587985112995e-06 -0.047485771891774151 0
-2.5353052184963208e-06 -0.049116480598971245 0
-2.6538695457666407e-06 -0.051075229034332724 0
-2.7341904651364465e-06 -0.05348836509519167 0
-2.8347866872886676e-06 -0.056578647077713304 0
-2.9485710375489658e-06 -0.060792489637763937 0
-3.1242566719174234e-06 -0.067594258850141115 0
-6.7043609472672031e-07 -0.036367347580252736 0
-7.152739560006011e-07 -0.036823577871268172 0
-7.586246087356274e-07 -0.037176876080724272 0
-7.7882354123841512e-07 -0.037514679362162566 0
-7.7109030871672467e-07 -0.037842278451087806 0
-8.1748904961222471e-07 -0.038176493617396862 0
-8.1701424907624619e-07 -0.038532157093786469 0
-9.173201077915169e-07 -0.038918172456058067 0
-8.610490776462253e-07 -0.039341346979400088 0
-9.4171041809714929e-07 -0.039807957723580582 0
-9.0043960668507938e-07 -0.040324219704584968 0
-9.3609404348230545e-07 -0.040896402781603301 0
-9.7316923839583339e-07 -0.041531960749224543 0
-9.1661622034462765e-07 -0.042238985915055413 0
-8.9724419924250563e-07 -0.043033289440158426 0
-8.1916778940379942e-07 -0.043934754309872301 0
-9.0463815436709424e-07 -0.044966760549441494 0
-9.6020267451117686e-07 -0.04615688613512782 0
-9.4045249850467821e-07 -0.047542825938039004 0
-1.0100285933310024e-06 -0.049177638780175226 0
-9.9857558258774875e-07 -0.051141381767079518 0
-1.0652316882677638e-06 -0.053560159069023915 0
-1.090543651705689e-06 -0.056656780547780762 0
-1.2130383580796002e-06 -0.060877498541282452 0
-1.2548257983581893e-06 -0.067688218422356602 0
-1.295863697656993e-07 -0.036376007455344916 0
-1.4774441194326842e-07 -0.036833069226340748 0
-1.1035498310697399e-07 -0.037186940671722298 0
-1.2731833862716112e-07 -0.037525273372026643 0
-1.5233820919327951e-07 -0.037853469910694777 0
-1.1974668853544987e-07 -0.038188203687423733 0
-1.2372859621762685e-07 -0.038544424496777648 0
-7.0110174642453017e-08 -0.03893101606408126 0
-1.1039183580601674e-07 -0.039354809497644569 0
-1.6112936585731073e-07 -0.039822139902945385 0
-1.7333573065298618e-07 -0.040339041770844727 0
-1.6012803879211143e-07 -0.040912041911257774 0
-1.9492861944780843e-07 -0.041548419734435703 0
-1.821552157287703e-07 -0.042256527940971143 0
-2.3006962706011591e-07 -0.043052014130711143 0
-2.4198922777248379e-07 -0.043954489549651234 0
-2.5035197567991417e-07 -0.044986970022085002 0
-2.390386742222775e-07 -0.046177883012900163 0
-2.5063243963797539e-07 -0.047565116869299727 0
-2.5838438227008622e-07 -0.04920187010261004 0
-2.7496250105731881e-07 -0.051167312699491374 0
-3.011100258931764e-07 -0.053588064839322345 0
-3.1929431568308356e-07 -0.056686997091472451 0
-3.3855577087704067e-07 -0.06091022552348354 0
-3.9199252096062688e-07 -0.067723141638964354 0
-6.1504527945608443e-08 -0.036379175889578341 0
-5.9192905590077084e-08 -0.036836605638748542 0
-5.0125160254525035e-08 -0.037190810747534747 0
-6.4411572840588896e-08 -0.037529376329513822 0
-8.7218018891356057e-08 -0.037857671968060468 0
-2.3701544049075428e-08 -0.038193228016704016 0
-9.1841617877039642e-08 -0.038549128595102226 0
-1.3424098407575006e-07 -0.038935944530546961 0
-1.5065657787398132e-07 -0.039359934998480298 0
-1.7257623447612553e-07 -0.039827417181291021 0
-1.0412176983203579e-07 -0.040344579668893467 0
-3.3431170170759122e-07 -0.040917822830029149 0
-3.6591715076778901e-07 -0.041554383649012025 0
-3.0411149814217683e-07 -0.042263010933263699 0
-2.2755284778816818e-07 -0.043058858129286885 0
-2.1531770763871286e-07 -0.043961883681724205 0
-2.6768047746689897e-07 -0.044994787481671572 0
-2.3679461757538277e-07 -0.046185675653043726 0
-2.4401394029613217e-07 -0.047573328978000241 0
-2.0303331242894096e-07 -0.049210748114935698 0
-2.3555150923518045e-07 -0.051176774308647553 0
-2.1368424164506633e-07 -0.053598222551635058 0
-2.4978102507372603e-07 -0.056698178132769929 0
-2.4425743509196449e-07 -0.06092388185439801 0
-2.3012163260586977e-07 -0.067736213919625823 0
-1.9921250866664935e-07 -0.036379875295880791 0
-1.9017101083482874e-07 -0.036837294477242058 0
-1.7921797640564339e-07 -0.037191535310750021 0
-1.7370611016828701e-07 -0.037530273033256574 0
-1.8738581604896293e-07 -0.037858706641756938 0
-1.8232602559996659e-07 -0.038193768703826361 0
-1.9228510438769086e-07 -0.038550260354914205 0
-1.8252861666402578e-07 -0.038937150937628798 0
-1.6965250142794718e-07 -0.039361251582441907 0
-1.8983707800886232e-07 -0.039828742036944219 0
1.5476042994608909e-07 -0.04034616293892801 0
9.1881644511452927e-08 -0.040919344588611059 0
6.5170759552424612e-08 -0.041556101041216202 0
-2.1426690195176407e-08 -0.042264705628878199 0
-7.5893413219542343e-08 -0.043060645630678705 0
-8.4201666937008818e-08 -0.043963499414115627 0
-2.2829639054900269e-08 -0.044996142847650383 0
-9.1326710039354409e-08 -0.046187353776483142 0
-1.0824346673702328e-07 -0.047574980012721958 0
-1.0850533954713712e-07 -0.049212382177251802 0
-2.1390562265365852e-07 -0.051178186714849749 0
-2.2541626143637095e-07 -0.053598782356582088 0
-2.1242859435438698e-07 -0.056696689560661782 0
-2.0872996377269695e-07 -0.06092323065671798 0
-1.804237459955453e-07 -0.067737202762798876 0
-2.4078251941038793e-07 -0.036379260428889899 0
-2.4807224287898986e-07 -0.036836396842061095 0
-2.5251568815730806e-07 -0.037190509901495701 0
-2.5467700172684366e-07 -0.037529077975809733 0
-2.328997873733191e-07 -0.037857381184317737 0
-2.6159186629322702e-07 -0.038192336806313634 0
-2.6893082774641686e-07 -0.038548843600596731 0
-2.9202023865876283e-07 -0.03893566305163549 0
-2.718589170969428e-07 -0.039359757035094207 0
-3.0174510301634031e-07 -0.0398268908469376 0
-3.4151500291420979e-07 -0.040344130505005286 0
-4.0432077260819534e-07 -0.040917312861211641 0
-2.5813974238006334e-07 -0.041554303404221712 0
-3.2068122714870276e-07 -0.04226294034192029 0
-2.7569884329061166e-07 -0.043058561398362741 0
-2.7830982964375115e-07 -0.043961219894781071 0
-2.7939533867593002e-07 -0.044993879323837353 0
-3.1938076159859008e-07 -0.046184773270682745 0
-3.3857875769931183e-07 -0.047572340574164422 0
-3.6134700981484738e-07 -0.049209565197517416 0
-3.5656257128729936e-07 -0.051174948444235771 0
-3.2566920257935057e-07 -0.053595321803533394 0
-3.2933453508257082e-07 -0.056692711771149297 0
-3.1777722191846854e-07 -0.060918489301777373 0
-3.0575625653563995e-07 -0.067732781583808646 0
2.3415362008210313e-07 -0.036375746745826915 0
2.0168430555826808e-07 -0.036832839772184774 0
2.2217459904866547e-07 -0.037186532960405243 0
2.0431569520136336e-07 -0.037524837398687269 0
2.2279250196460262e-07 -0.037852861298405031 0
1.3776686367583771e-07 -0.038187655397395909 0
1.7249265317583334e-07 -0.038544476317432887 0
2.6760927201346137e-07 -0.038930265943995929 0
2.8939263128920446e-07 -0.039353983774789908 0
1.022033535586593e-07 -0.039821030293165464 0
2.6202123484536555e-07 -0.040337718987869281 0
1.9550099977206566e-07 -0.040910771218738304 0
2.7795457549889166e-07 -0.041547493823424785 0
-1.2730026599997064e-07 -0.042255558363905515 0
-4.9882292601580981e-08 -0.043051013487062299 0
-4.6528176973691565e-08 -0.043953325088746317 0
-8.2259777421393976e-08 -0.044985261242266747 0
-5.172320802048616e-08 -0.04617608957528295 0
2.283267357681132e-08 -0.047563119417760077 0
5.990686195693495e-08 -0.049199616387896744 0
1.2341826169175206e-07 -0.051164623501431632 0
1.5492173240515703e-07 -0.053584763155229032 0
1.8903288774221152e-07 -0.056683942932576295 0
2.4695039277628925e-07 -0.060906499851994755 0
2.7036726548732324e-07 -0.067719796950052258 0
8.1479709683194916e-07 -0.03636679372653133 0
8.5309564880675698e-07 -0.036822865921727718 0
8.8932615816073839e-07 -0.037176348877255148 0
9.3682363936304135e-07 -0.037513899782599898 0
9.4163362959280949e-07 -0.037841579203445948 0
9.570272201994542e-07 -0.03817575055405404 0
9.4135549650944312e-07 -0.038531470254449342 0
9.9564233674526585e-07 -0.038917473585162163 0
9.8894949545356798e-07 -0.039340581450469501 0
8.4370802634993055e-07 -0.039807183979186769 0
9.7705780220675413e-07 -0.040323329375239414 0
9.7394918730822399e-07 -0.040895540756805078 0
1.0236838251978115e-06 -0.041531044031933327 0
1.0603427269658096e-06 -0.042238141105716241 0
1.0935241553126359e-06 -0.043032439918198891 0
1.1322793977251458e-06 -0.04393341033941861 0
1.1088837509218872e-06 -0.044964011651906638 0
1.1361405759441196e-06 -0.046153918640571848 0
1.1494610893106709e-06 -0.047539599860984272 0
1.2356884684751977e-06 -0.04917390899581138 0
1.2302733768084829e-06 -0.051136564037775424 0
1.2798937433889394e-06 -0.053554701340534687 0
1.3118647434699481e-06 -0.056656105652753107 0
1.3954608337967183e-06 -0.060874906392292136 0
1.3889739799149825e-06 -0.067684865708549702 0
1.3633897361703862e-06 -0.036347646541725231 0
1.4766005753213131e-06 -0.036802039962096571 0
1.5790463628468471e-06 -0.037153947379905697 0
1.6365657442287766e-06 -0.037490483640982536 0
1.6870259467031769e-06 -0.037816872827418531 0
1.7386135186194465e-06 -0.038149821424229298 0
1.8047575205391569e-06 -0.038503944223499662 0
1.7095830565929621e-06 -0.038888653353999707 0
1.7544520095623644e-06 -0.039310339964747788 0
1.9084353801900935e-06 -0.039775328002023054 0
1.8386086947159801e-06 -0.04028981622353723 0
2.0101781895634055e-06 -0.04086007221311521 0
1.8772348051067627e-06 -0.041493490449196362 0
2.3405904885898546e-06 -0.042198277782472191 0
2.3592442344323357e-06 -0.042990220651865051 0
2.3602982610488675e-06 -0.043888591257556661 0
2.438293761959788e-06 -0.04491628150739424 0
2.4578921338486503e-06 -0.046102314082064062 0
2.4888194376756988e-06 -0.047483964063224512 0
2.5569839889627848e-06 -0.049114305514885409 0
2.6452146831139049e-06 -0.051072264191902805 0
2.7456510896504202e-06 -0.053484466137479439 0
2.8331118196787663e-06 -0.056577296903223981 0
2.8386369224404941e-06 -0.060790858461750343 0
2.9575824060794976e-06 -0.067592088293729355 0
3.9937649865568899e-06 -0.036311553408110181 0
4.2498273191170058e-06 -0.036762445758694202 0
4.43325717158943e-06 -0.037111601885085034 0
4.5798032627308327e-06 -0.037445453962131087 0
4.7417599080462987e-06 -0.037769105297565483 0
4.8644827883185805e-06 -0.038099032126708995 0
5.0346599969306211e-06 -0.0384500298577507 0
5.1175201893756727e-06 -0.038831278461290121 0
5.1868652487094125e-06 -0.039249358602636786 0
5.21221372343684e-06 -0.03971007544185768 0
5.3787383832570904e-06 -0.04021988178411174 0
5.2589205560134087e-06 -0.04078493568601535 0
5.3982474876516108e-06 -0.041412506758863349 0
5.5733914738999528e-06 -0.042110730508741291 0
5.5895556204722778e-06 -0.042895119316786558 0
5.7099157505159997e-06 -0.043784815155070357 0
5.8181543981760342e-06 -0.044802670770291285 0
5.9335134298437036e-06 -0.04597743444322927 0
6.0609366547237321e-06 -0.047346482820708205 0
6.1943265767323362e-06 -0.048962796594403481 0
6.3458970565107109e-06 -0.050904780140670937 0
6.5270374699274805e-06 -0.05329873881695623 0
6.7305922407844789e-06 -0.05636821241406071 0
6.9633935819177149e-06 -0.060559079485710897 0
7.3300440324636419e-06 -0.067331031642001174 0
1.1243485426655939e-05 -0.036242420762625918 0
1.1961907295257499e-05 -0.036688910940119612 0
1.2447588939740625e-05 -0.037034048228405107 0
1.2908315242478783e-05 -0.037363523364619497 0
1.3245475107706736e-05 -0.037682633592367287 0
1.3644981292751302e-05 -0.03800810566529382 0
1.3859637633320537e-05 -0.038353992212318888 0
1.4024050476817067e-05 -0.038729336340562311 0
1.4289208463496218e-05 -0.039140271372460685 0
1.4418962914149647e-05 -0.039592511541793683 0
1.4605520649692584e-05 -0.040092084389379175 0
1.42755272212598e-05 -0.040644806873015214 0
1.4497903236272924e-05 -0.041257609984830246 0
1.4752477341612874e-05 -0.041938522585249841 0
1.4947635871006233e-05 -0.042702201299486334 0
1.5155871271062949e-05 -0.043567513301409247 0
1.5370948715922601e-05 -0.044556670765094841 0
1.561012924449932e-05 -0.045697583831178237 0
1.5773071851757603e-05 -0.0470274376835213 0
1.5906417193560846e-05 -0.048598178899310278 0
1.6040263373113014e-05 -0.050486493352849368 0
1.6215725267269896e-05 -0.052817531323018904 0
1.6478200360869792e-05 -0.05581535563341284 0
1.6661159532570502e-05 -0.059928845138146017 0
1.6890726522419742e-05 -0.066603408416699983 0
1.9389481711150224e-05 -0.036073901082168826 0
2.0379324396066479e-05 -0.036483477275402014 0
2.1069721992757935e-05 -0.03680045860647347 0
2.1708656366520935e-05 -0.037108246861039078 0
2.2256618818657502e-05 -0.037412019392999915 0
2.2772396374683731e-05 -0.03772685598735194 0
2.3252622317849064e-05 -0.03806378633703035 0
2.3734207168364837e-05 -0.038429618051972293 0
2.4154720827773569e-05 -0.038829661818517477 0
2.4543320764249403e-05 -0.039269567533708541 0
2.4879195547727398e-05 -0.039754982663704273 0
2.5162210058774937e-05 -0.040291983298888619 0
2.5386240017065614e-05 -0.040887169369800538 0
2.5556571900724424e-05 -0.041547767700385208 0
2.5677151366972442e-05 -0.042287682817603603 0
2.5790960036933389e-05 -0.043126176827332566 0
2.5899701824758032e-05 -0.044085397021177579 0
2.601629831443627e-05 -0.04519227332298098 0
2.6160541645218135e-05 -0.046485289177857866 0
2.63249186218989e-05 -0.048014390957203154 0
2.6530022339019433e-05 -0.049858682793792714 0
2.6798553315260377e-05 -0.052144775876443894 0
2.714431668906463e-05 -0.055090653398621632 0
2.7611117615273092e-05 -0.059128613300885535 0
2.8332322865467562e-05 -0.06551528605475504 0
-0 -0 0
-0 -0 0
-0 -0 0
-0 -0 0
-0 -0 0
-0 -0 0
1.9961937734705093e-05 0.035366588904928692 0
2.2951226417622438e-05 0.037737119677807761 0
2.5936009279646489e-05 0.042979956680597467 0
-0 -0 0
-0 -0 0
-0 -0 0
2.1438820262131164e-05 0.036833064365105188 0
2.3150980269059871e-05 0.038437381793862392 0
2.5415665350707614e-05 0.043203181123001172 0
-0 -0 0
-0 -0 0
-0 -0 0
1.6719106130234857e-05 0.036949067092677458 0
1.8415221358581742e-05 0.038566776647182055 0
2.0381027841849486e-05 0.043355954223096807 0
-0 -0 0
-0 -0 0
-0 -0 0
8.6274389723096355e-06 0.037080946590731044 0
9.6052846021506253e-06 0.038719134577677547 0
1.0838012847902572e-05 0.043591713548170569 0
-0 -0 0
-0 -0 0
-0 -0 0
3.2127802636790439e-06 0.037139979255077067 0
3.6990792565768108e-06 0.038796475766399857 0
4.3225468092198241e-06 0.043730509815435727 0
-0 -0 0
-0 -0 0
-0 -0 0
1.2508255690272423e-06 0.037171823279037446 0
1.4470950239857877e-06 0.038837018101393478 0
1.685530923043172e-06 0.043795976213425632 0
-0 -0 0
-0 -0 0
-0 -0 0
4.6038591661873757e-07 0.037187592655926603 0
5.1148872099811657e-07 0.03885655376262747 0
5.8864249091924932e-07 0.043824553038089388 0
-0 -0 0
-0 -0 0
-0 -0 0
9.1536219781674542e-08 0.037194392030140265 0
1.3262369620530844e-07 0.038864947330310248 0
2.11294273596925e-07 0.043836289873841361 0
-0 -0 0
-0 -0 0
-0 -0 0
1.3112060597634729e-07 0.03719665617194657 0
1.5427141940472532e-07 0.038867817150128617 0
1.9893466032498022e-07 0.043840273292200346 0
-0 -0 0
-0 -0 0
-0 -0 0
2.6662670217080658e-07 0.037196612367492353 0
2.7236321534287656e-07 0.038867679701833885 0
2.8190861445156249e-07 0.043839996419942941 0
-0 -0 0
-0 -0 0
-0 -0 0
3.4743051072179802e-08 0.037194286237035412 0
5.262785223157696e-08 0.038864600783162846 0
9.1224696295480277e-08 0.043835470935663673 0
-0 -0 0
-0 -0 0
-0 -0 0
-6.309948183085917e-07 0.037187223218146187 0
-6.7503838218178068e-07 0.03885602154077538 0
-7.3212184282202258e-07 0.043823348616963673 0
-0 -0 0
-0 -0 0
-0 -0 0
-1.2905397338493515e-06 0.037171038194098019 0
-1.4830764386736537e-06 0.038836280753068962 0
-1.7737661451679126e-06 0.043794879047901296 0
-0 -0 0
-0 -0 0
-0 -0 0
-2.999586750546723e-06 0.037139217319461792 0
-3.4565444114475749e-06 0.038795818845635481 0
-4.0502013579125132e-06 0.043729977562821334 0
-0 -0 0
-0 -0 0
-0 -0 0
-8.3519663167512446e-06 0.037080346165239711 0
-9.2648135413491331e-06 0.03871873459183689 0
-1.0379325848238518e-05 0.043591766894694656 0
-0 -0 0
-0 -0 0
-0 -0 0
-1.6310756789973538e-05 0.036948668403026047 0
-1.7929897911955459e-05 0.038566651904697262 0
-1.9814053707573006e-05 0.043356334116899188 0
-0 -0 0
-0 -0 0
-0 -0 0
-2.087751970511421e-05 0.036832907514491121 0
-2.2534485437988372e-05 0.03843737949500154 0
-2.475939116953705e-05 0.04320369735169078 0
-0 -0 0
-0 -0 0
-0 -0 0
-1.9449279768012122e-05 0.035366179994401586 0
-2.2333315481116065e-05 0.037736916927086292 0
-2.5274162578759766e-05 0.042980564350243208 0
-0 -0 0
-0 -0 0
-0 -0 0
-0 -0 0
-0 -0 0
-0 -0 0
-0 -0 0
-0 -0 0
-0 -0 0
-0 -0 0
-0 -0 0
-0 -0 0
-0 -0 0
-0 -0 0
-0 -0 0
-0 -0 0
-0 -0 0
-0 -0 0
-0 -0 0
-0 -0 0
-0 -0 0
-0 -0 0
-0 -0 0
-0 -0 0
-0 -0 0
-0 -0 0
-0 -0 0
-0 -0 0
-0 -0 0
-0 -0 0
-0 -0 0
-0 -0 0
-0 -0 0
-0 -0 0
-0 -0 0
-0 -0 0
-0 -0 0
-0 -0 0
-0 -0 0
-0 -0 0
-0 -0 0
-0 -0 0
-0 -0 0
-0 -0 0
-0 -0 0
-0 -0 0
-0 -0 0
-0 -0 0
-0 -0 0
-0 -0 0
-0 -0 0
-0 -0 0
-0 -0 0
-0 -0 0
-0 -0 0
-0 -0 0
-0 -0 0
-0 -0 0
-0 -0 0
-0 -0 0
-0 -0 0
-0 -0 0
-0 -0 0
-0 -0 0
-0 -0 0
-0 -0 0
-0 -0 0
-0 -0 0
-0 -0 0
-0 -0 0
-0 -0 0
-0 -0 0
-0 -0 0
-0 -0 0
-0 -0 0
-0 -0 0
-0 -0 0
-0 -0 0
-0 -0 0
-0 -0 0
-0 -0 0
-0 -0 0
-0 -0 0
-0 -0 0
-0 -0 0
-0 -0 0
-0 -0 0
-0 -0 0
-0 -0 0
-0 -0 0
-0 -0 0
-0 -0 0
-0 -0 0
-0 -0 0
-0 -0 0
-0 -0 0
-0 -0 0
-0 -0 0
-0 -0 0
-0 -0 0
-0 -0 0
-0 -0 0
-0 -0 0
-0 -0 0
-0 -0 0
-0 -0 0
-0 -0 0
-0 -0 0
-0 -0 0
-0 -0 0
-0 -0 0
-0 -0 0
-0 -0 0
-0 -0 0
-0 -0 0
-0 -0 0
-0 -0 0
-0 -0 0
-0 -0 0
-0 -0 0
-0 -0 0
-0 -0 0
-0 -0 0
-0 -0 0
-0 -0 0
-0 -0 0
-0 -0 0
-0 -0 0
-0 -0 0
-0 -0 0
-0 -0 0
-0 -0 0
-0 -0 0
-0 -0 0
-0 -0 0
-0 -0 0
-0 -0 0
-0 -0 0
-0 -0 0
-0 -0 0
-0 -0 0
-0 -0 0
-0 -0 0
-0 -0 0
-0 -0 0
-0 -0 0
-0 -0 0
-0 -0 0
-0 -0 0
-0 -0 0
-0 -0 0
-0 -0 0
-0 -0 0
-0 -0 0
-0 -0 0
-0 -0 0
-0 -0 0
-0 -0 0
-0 -0 0
-0 -0 0
-0 -0 0
-0 -0 0
-0 -0 0
-0 -0 0
-0 -0 0
-0 -0 0
-0 -0 0
-0 -0 0
-0 -0 0
-0 -0 0
-0 -0 0
-0 -0 0
-0 -0 0
-0 -0 0
-0 -0 0
-0 -0 0
-0 -0 0
-0 -0 0
-0 -0 0
-0 -0 0
-0 -0 0
-0 -0 0
-0 -0 0
-0 -0 0
-0 -0 0
-0 -0 0
-0 -0 0
-0 -0 0
-0 -0 0
-0 -0 0
-0 -0 0
-0 -0 0
-0 -0 0
-0 -0 0
-0 -0 0
