# vtk DataFile Version 3.0
SPH particles (WCSPH) - legacy PolyData
ASCII
DATASET POLYDATA
POINTS 681 float
0.049989490625315366 0.021869381976477666 0
0.049988049842325931 0.024183940019791982 0
0.049986913246403003 0.026017218777523065 0
0.049985829224025655 0.027843466100971093 0
0.049984846666021883 0.029642018947745298 0
0.049983959906487165 0.03140708317874704 0
0.049983177860827933 0.033142150631546116 0
0.049982317080517404 0.034854444210438887 0
0.049981278534981147 0.036552429837441572 0
0.049979864394790151 0.03824509791905073 0
0.049977680792294039 0.039941685346348246 0
0.049975000432921274 0.041651620542384415 0
0.049973792300755042 0.043384680593288996 0
0.049974903806631908 0.045151299163167659 0
0.049977206763410449 0.046962426406113124 0
0.049980072438563734 0.048830023679996927 0
0.049982996202920099 0.050768758283121426 0
0.049985845799185517 0.052807379050820044 0
0.049988473150054842 0.054970943957585998 0
0.049990739257688814 0.057294394970945621 0
0.049992645682406335 0.05983750253913301 0
0.049994217444202065 0.062661240090322465 0
0.049995526993517454 0.065866778230225867 0
0.049996657799315523 0.069723511390702653 0
0.049998622579766359 0.075122390307472753 0
0.069994308278729628 0.020256859974241252 0
0.069993445846405739 0.022860994009535181 0
0.06999273598826844 0.024958298797758838 0
0.06999208731135749 0.02699796934827035 0
0.069991500273390669 0.028972256913697536 0
0.06999092195969002 0.030885751208027678 0
0.069990345058255299 0.03274966526322827 0
0.069989759752899935 0.034576998389578804 0
0.0699890916598397 0.036380154707482404 0
0.069988125135017287 0.038171017514953207 0
0.069986387791616797 0.039961071505641536 0
0.069983688715964915 0.041761549663193565 0
0.069981995281444151 0.043583793058803694 0
0.06998220064021414 0.045439895307279765 0
0.069983716735491183 0.047342854421106736 0
0.069985859215739785 0.049305991543800165 0
0.069988103289612413 0.051343844635020792 0
0.069990348085334469 0.053483828815186138 0
0.069992288990856619 0.055754334587190611 0
0.069993900630143532 0.058194441198962922 0
0.069995246946328457 0.060861125596014545 0
0.069996330520243816 0.063831791138089553 0
0.069997194683281222 0.067235470696961883 0
0.069997900191556453 0.071375221693434202 0
0.069999086320047185 0.077254805598557186 0
0.089997816588980192 0.020175903356546027 0
0.089997441056068425 0.022786554182937735 0
0.089997181037367396 0.02489041155115233 0
0.089996865036633622 0.026939717755511287 0
0.089996554975591725 0.028925688429385147 0
0.089996296688923672 0.030852261776390843 0
0.089995825040431882 0.032730485635332256 0
0.089995585811526432 0.034573162430708362 0
0.089995255577868541 0.036392695033360359 0
0.089994890817616399 0.038201023557155427 0
0.089994487264944981 0.040009661488773635 0
0.089993725306675043 0.041830000827648955 0
0.089992817852667648 0.043673454357049689 0
0.089992426206374723 0.045552241790165295 0
0.089992923496440558 0.047479931401825097 0
0.089993777500327249 0.049471870654244431 0
0.089994752661045729 0.051543732002901986 0
0.089995671884566128 0.053714829012374697 0
0.089996468242976538 0.056016626402124535 0
0.089997125758006585 0.058488654590750241 0
0.089997686586562334 0.061186269793668389 0
0.089998156538866392 0.064192693434252629 0
0.089998547030669465 0.067640045325884718 0
0.089998882837535668 0.071828068847159282 0
0.089999505544984773 0.077790758832473647 0
0.10999931053991314 0.020192990068976228 0
0.10999912194090015 0.022804976687940202 0
0.1099989719724193 0.024910281383021808 0
0.10999882304771483 0.026961435033246439 0
0.10999867920040368 0.028949634506685511 0
0.10999866497723315 0.030878751329490802 0
0.10999868658416266 0.03275986174174933 0
0.10999859851008523 0.034605691779069372 0
0.10999852118475352 0.036428637054851103 0
0.1099984004757273 0.038240707010936834 0
0.10999818606012408 0.040053473007013216 0
0.10999840342600729 0.041878327336881953 0
0.10999777556509244 0.043726678008480999 0
0.10999724566356874 0.04561085070472367 0
0.10999727906896641 0.047544413661910825 0
0.10999754043508922 0.049542896996863026 0
0.10999783285465226 0.051623149718015585 0
0.10999825258011622 0.053801810507110574 0
0.10999855421186934 0.056111275386836884 0
0.10999880604367654 0.058590900415120689 0
0.10999900484796092 0.061297569427650613 0
0.10999919012925848 0.064315263769340658 0
0.10999933766340528 0.067773766931173166 0
0.10999947791403736 0.07197317170736281 0
0.1099997663088966 0.077960338955693639 0
0.12999987132199239 0.020205890377453808 0
0.12999984952070831 0.022819194546491482 0
0.12999983067674095 0.024925507054805476 0
0.12999982418271205 0.026977641356036329 0
0.12999987825248097 0.028966763982367524 0
0.12999992780120603 0.03089685156112499 0
0.12999996753597351 0.03277901213583187 0
0.1299999960733384 0.034625866907035688 0
0.13000005621713542 0.036449936447799064 0
0.13000016727264729 0.038263175966301202 0
0.13000023346945805 0.04007715756600929 0
0.13000009345774377 0.041903332894341484 0
0.12999983486814717 0.043753247285238966 0
0.12999955082743059 0.045638972521689629 0
0.129999341607097 0.047574314717015849 0
0.12999923346997158 0.049574693330125652 0
0.1299993203912107 0.051656937454380443 0
0.12999943258663263 0.053837704265392305 0
0.12999952437396842 0.056149429727685184 0
0.12999960096576876 0.058631396398283075 0
0.12999966709300045 0.061340900399771803 0
0.12999971571804378 0.064361848278317826 0
0.12999976978422587 0.067823148900895372 0
0.12999982353535117 0.072024960212819608 0
0.1299999144362719 0.078021022860821479 0
0.15000018396872528 0.020211996066099004 0
0.15000021329402244 0.022825972121232833 0
0.15000025144193643 0.024932810516702104 0
0.15000030516361224 0.026985448330667492 0
0.15000047679353223 0.028975044173917049 0
0.15000051793883737 0.030905544583949496 0
0.15000051642519308 0.032788097945157628 0
0.15000054429203022 0.034635398803139976 0
0.15000059547300063 0.036459907384551002 0
0.15000064924809994 0.038273595021122056 0
0.15000072937871292 0.040088073668174108 0
0.15000060371610455 0.041914732440865424 0
0.15000056219979918 0.043765232230954444 0
0.15000036425033733 0.045651604980651184 0
0.15000014780194693 0.047587554542536284 0
0.15000003627787151 0.049588596295261148 0
0.14999998236054285 0.051671545365680749 0
0.14999998191616271 0.053853041177164898 0
0.14999999559157876 0.056165580079717524 0
0.15000000564371666 0.058648405658000523 0
0.14999998954275609 0.061358812828538258 0
0.1499999944768669 0.064380638750078351 0
0.15000001004730465 0.067842656074402707 0
0.1500000153782429 0.072044855795532978 0
0.15000000938471472 0.078044519267866999 0
0.17000038377754054 0.020214592045933663 0
0.17000046007171385 0.022828866007921243 0
0.17000050210230586 0.024935919935852535 0
0.17000063344748784 0.026988723636148671 0
0.1700007184789763 0.028978470441666716 0
0.17000085474650317 0.030909168559299652 0
0.17000105187404191 0.032791939012869753 0
0.17000111550306055 0.034639418238897136 0
0.17000115405639168 0.036464080706929893 0
0.17000118224490907 0.038277935313514359 0
0.17000118712539589 0.040092615403357575 0
0.17000108328443841 0.041919520006321001 0
0.17000106644121771 0.043770203395692132 0
0.170001056370399 0.04565672581669801 0
0.17000063062354115 0.047592920513512035 0
0.17000048170068185 0.049594254845981178 0
0.17000037685321459 0.051677489061539204 0
0.17000030861222035 0.053859265005015762 0
0.17000026474513025 0.056172100246428151 0
0.17000023353049409 0.058655231922880399 0
0.17000017576028334 0.061365953518422216 0
0.1700001414113817 0.064388061821589015 0
0.17000011712419202 0.067850256860186184 0
0.170000102777635 0.072052422757110907 0
0.17000007386219404 0.07805355763945418 0
0.19000033644046782 0.020215330304780052 0
0.19000038016724613 0.022829646218224163 0
0.19000055570624894 0.024936848408585656 0
0.19000061036823765 0.026989673832858541 0
0.19000071391819798 0.028979441072622219 0
0.19000092633705962 0.030910231043465419 0
0.19000113998080412 0.032792977862616798 0
0.19000113637027258 0.034640417017043394 0
0.19000119667699533 0.036465088815478115 0
0.19000123106078762 0.038278995660706999 0
0.19000111268572714 0.040093703708063359 0
0.19000113170772823 0.041920696050532343 0
0.19000082345243946 0.043771457584835471 0
0.19000074195577935 0.045658107429155957 0
0.19000068997564212 0.047594360707399974 0
0.19000052162082187 0.049595762377125083 0
0.1900004719618478 0.051679076241910663 0
0.19000046897727652 0.053860935156795922 0
0.19000040074297025 0.056173851716009721 0
0.1900004416971155 0.05865707976704939 0
0.19000036863844594 0.061367882589115359 0
0.19000028917031014 0.06439007088408856 0
0.190000206371292 0.067852298573922831 0
0.1900001651525059 0.072054432141663058 0
0.19000011388341781 0.078055951624718956 0
0.21000038586517725 0.020214673788449593 0
0.21000047273314118 0.022828915883229505 0
0.2100005383706115 0.024935964036376504 0
0.21000060421827713 0.026988793830377791 0
0.2100007105743443 0.028978539067001163 0
0.21000074163627402 0.030909248224824225 0
0.2100008388053913 0.032792001077327028 0
0.2100008755181263 0.034639476831195566 0
0.2100009414884231 0.036464152595926634 0
0.21000097953070959 0.038278036940021146 0
0.2100009608871532 0.040092704767915585 0
0.21000092164293621 0.041919589987260045 0
0.21000074573241626 0.043770235974952269 0
0.21000059789471673 0.045656791102797932 0
0.21000058468046465 0.047592991839420819 0
0.21000049385050851 0.049594290257831838 0
0.2100004667939836 0.051677537756948701 0
0.21000050878478421 0.053859320989216156 0
0.21000034893084343 0.056172164494350633 0
0.21000031294036636 0.058655327752663078 0
0.21000027904380503 0.061366047347337645 0
0.21000026430208157 0.064388185015560789 0
0.21000021636969171 0.067850383906276721 0
0.21000018114587976 0.07205255571412747 0
0.21000012309800076 0.078053659373533479 0
0.2300004720740918 0.020212084550687511 0
0.23000055796420482 0.022826100184225859 0
0.23000064878790943 0.024932962246948898 0
0.23000073532016066 0.026985556365626148 0
0.23000086564287481 0.028975182744442159 0
0.23000095777681395 0.030905697734803502 0
0.23000104870773991 0.032788271707286376 0
0.23000110472228613 0.034635562165742401 0
0.23000123919131432 0.036460071994049867 0
0.23000132767961232 0.038273747002925837 0
0.23000134722332832 0.040088224051503203 0
0.23000116291641998 0.041914943992453782 0
0.23000097753158166 0.043765412110189583 0
0.23000088832020074 0.045651735608714147 0
0.23000087664832886 0.047587657656926872 0
0.2300008083909125 0.049588722134981528 0
0.23000071045835166 0.051671696385101572 0
0.2300006098549468 0.053853218269052032 0
0.23000056494292875 0.056165761085948944 0
0.23000048687532115 0.058648612256348182 0
0.23000042091133113 0.061359013390799272 0
0.23000036023838052 0.064380852808883407 0
0.23000030366734281 0.067842864765424393 0
0.2300002534405787 0.072045046985749456 0
0.23000013851511072 0.078044700421610297 0
0.25000065468729366 0.020205914430657317 0
0.25000077385101216 0.022819219419352679 0
0.25000085964690311 0.024925600905762218 0
0.25000099501252221 0.026977784228822774 0
0.25000110911119178 0.028966922358835762 0
0.25000122096032845 0.030897018900171821 0
0.25000127293112206 0.032779209631352835 0
0.25000143167002031 0.034626088608392884 0
0.25000152553471877 0.036450168657338022 0
0.25000164503432221 0.038263376342342142 0
0.2500017209022008 0.040077376993060285 0
0.250001647204461 0.041903562984398311 0
0.25000152615192894 0.043753526484215877 0
0.25000168820349511 0.045639221540924056 0
0.25000157123144523 0.047574556200224417 0
0.25000148657856736 0.049574969679986459 0
0.25000131447394963 0.051657238910421871 0
0.25000110483295623 0.053837992997108515 0
0.25000094310958543 0.056149701964487139 0
0.25000081279149616 0.058631667503354544 0
0.25000068766400291 0.061341172331444503 0
0.25000057286188893 0.064362103513594837 0
0.25000047287145472 0.067823400853316118 0
0.25000038240207845 0.072025194104908485 0
0.25000019023883935 0.078021291427605416 0
0.27000105744585673 0.020193035216570867 0
0.27000126084664172 0.022805031667821607 0
0.27000140811331041 0.024910350412432572 0
0.27000157199317859 0.02696153541871656 0
0.27000186575398333 0.028949783833495637 0
0.27000203452361021 0.030878928765235021 0
0.27000220548919057 0.032760138417772332 0
0.27000240528721525 0.034605983575031626 0
0.27000261675148785 0.036428953491621861 0
0.27000282781657403 0.038241028734371484 0
0.27000304828581329 0.040053761316512393 0
0.27000314296525946 0.041878578280697458 0
0.27000364036165703 0.043726954651582627 0
0.27000359515839589 0.045611096022281764 0
0.27000342187960708 0.047544668809701644 0
0.27000307431463416 0.049543194537732378 0
0.27000263205733921 0.051623479775167909 0
0.27000218540856447 0.053802154398075466 0
0.27000182968432296 0.05611158224537343 0
0.27000153779649 0.058591200530772665 0
0.27000126618318943 0.061297903905164097 0
0.27000104614213699 0.064315605195693529 0
0.27000085166225252 0.067774115826660916 0
0.27000067765572061 0.071973522788808225 0
0.27000032387880485 0.077960699814900378 0
0.2900024303883853 0.020176014912403707 0
0.29000283733717069 0.022786648286070105 0
0.29000315248454805 0.024890521221346013 0
0.29000347107450863 0.026939856147550022 0
0.29000379197642551 0.028925816138584165 0
0.29000414838042882 0.030852410567667177 0
0.2900045099071647 0.032730782865977207 0
0.29000492386501092 0.03457351065421814 0
0.29000537825600176 0.03639305895710912 0
0.29000589234762286 0.038201376291433012 0
0.29000647515272798 0.04001003275396036 0
0.29000710360305476 0.041830322842207786 0
0.29000774146100594 0.043673770760385797 0
0.29000792447371221 0.045552528256955001 0
0.2900074506517541 0.047480216447709854 0
0.29000663240440883 0.049472170194838648 0
0.29000563994105666 0.051544086807344229 0
0.29000468676340901 0.053715208341096048 0
0.29000382627166871 0.056016997390100021 0
0.29000311632782161 0.058489010395328278 0
0.29000252443649771 0.061186632787834178 0
0.2900020375317271 0.064193076990105083 0
0.29000162622063097 0.0676404350645083 0
0.29000126802595555 0.071828450538978572 0
0.29000058523704464 0.07779113958130611 0
0.3100059154564796 0.020257043495080961 0
0.31000680574127282 0.022861207749126127 0
0.31000746559547682 0.024958491354414233 0
0.31000809198797519 0.026998232157920767 0
0.31000870325266044 0.028972522713826429 0
0.3100093175202423 0.03088596986110537 0
0.31000993270574057 0.032749980848931638 0
0.3100105341085479 0.034577342697245356 0
0.31001125843340999 0.036380474166838137 0
0.31001222359017694 0.038171307004774564 0
0.31001404732064608 0.039961315911093996 0
0.31001673673778279 0.04176179842919743 0
0.31001824432383435 0.043584075315313837 0
0.31001785218674355 0.04544017768948036 0
0.31001641062641938 0.047343125250130617 0
0.31001439158400806 0.049306268828960081 0
0.31001213402874683 0.05134415333345077 0
0.31000991313442261 0.053484179264329065 0
0.31000794594064285 0.055754733992791301 0
0.31000628133311425 0.058194838361119688 0
0.3100049153188974 0.060861532648284922 0
0.3100038165247827 0.063832178061663455 0
0.31000292834007409 0.067235846091097201 0
0.31000219205204438 0.071375595018700264 0
0.31000096477578404 0.077255170583009944 0
0.3300102023434231 0.021869742365050356 0
0.3300115806358635 0.024184291580936195 0
0.33001266352155822 0.026017545114066554 0
0.33001368289486988 0.027843764750929548 0
0.33001458798241007 0.029642289470692612 0
0.33001541388667865 0.031407315843665892 0
0.3300161945564411 0.033142359950413855 0
0.33001701952692003 0.034854619366879093 0
0.33001790543679038 0.036552561628966834 0
0.33001911060609462 0.038245190107040687 0
0.33002117066966574 0.039941748213225846 0
0.33002382424730664 0.041651673559013537 0
0.33002494406938582 0.043384722859231672 0
0.33002379916256447 0.045151305911075496 0
0.33002162076652419 0.046962428915842576 0
0.33001890867607725 0.048830019526273215 0
0.33001600669352821 0.050768755957192511 0
0.33001319261815537 0.052807361906660723 0
0.33001068687824908 0.054970936887408041 0
0.33000853414741343 0.057294387546463404 0
0.3300067514897983 0.059837471933468736 0
0.33000528920423061 0.062661184472959194 0
0.33000409110508239 0.065866703313456759 0
0.33000310003771122 0.069723441493300217 0
0.33000131310128095 0.075122395706189893 0
0 0 0
0 0.020000000000000004 0
0 0.040000000000000001 0
0 0.54999999999999993 0
0 0.56000000000000005 0
0 0.58000000000000007 0
0.02 0 0
0.02 0.020000000000000004 0
0.02 0.040000000000000001 0
0.02 0.54999999999999993 0
0.02 0.56000000000000005 0
0.02 0.58000000000000007 0
0.040000000000000001 0 0
0.040000000000000001 0.020000000000000004 0
0.040000000000000001 0.040000000000000001 0
0.040000000000000001 0.54999999999999993 0
0.040000000000000001 0.56000000000000005 0
0.040000000000000001 0.58000000000000007 0
0.059999999999999998 0 0
0.059999999999999998 0.020000000000000004 0
0.059999999999999998 0.040000000000000001 0
0.059999999999999998 0.54999999999999993 0
0.059999999999999998 0.56000000000000005 0
0.059999999999999998 0.58000000000000007 0
0.080000000000000002 0 0
0.080000000000000002 0.020000000000000004 0
0.080000000000000002 0.040000000000000001 0
0.080000000000000002 0.54999999999999993 0
0.080000000000000002 0.56000000000000005 0
0.080000000000000002 0.58000000000000007 0
0.10000000000000001 0 0
0.10000000000000001 0.020000000000000004 0
0.10000000000000001 0.040000000000000001 0
0.10000000000000001 0.54999999999999993 0
0.10000000000000001 0.56000000000000005 0
0.10000000000000001 0.58000000000000007 0
0.12 0 0
0.12 0.020000000000000004 0
0.12 0.040000000000000001 0
0.12 0.54999999999999993 0
0.12 0.56000000000000005 0
0.12 0.58000000000000007 0
0.14000000000000001 0 0
0.14000000000000001 0.020000000000000004 0
0.14000000000000001 0.040000000000000001 0
0.14000000000000001 0.54999999999999993 0
0.14000000000000001 0.56000000000000005 0
0.14000000000000001 0.58000000000000007 0
0.16 0 0
0.16 0.020000000000000004 0
0.16 0.040000000000000001 0
0.16 0.54999999999999993 0
0.16 0.56000000000000005 0
0.16 0.58000000000000007 0
0.17999999999999999 0 0
0.17999999999999999 0.020000000000000004 0
0.17999999999999999 0.040000000000000001 0
0.17999999999999999 0.54999999999999993 0
0.17999999999999999 0.56000000000000005 0
0.17999999999999999 0.58000000000000007 0
0.20000000000000001 0 0
0.20000000000000001 0.020000000000000004 0
0.20000000000000001 0.040000000000000001 0
0.20000000000000001 0.54999999999999993 0
0.20000000000000001 0.56000000000000005 0
0.20000000000000001 0.58000000000000007 0
0.22 0 0
0.22 0.020000000000000004 0
0.22 0.040000000000000001 0
0.22 0.54999999999999993 0
0.22 0.56000000000000005 0
0.22 0.58000000000000007 0
0.23999999999999999 0 0
0.23999999999999999 0.020000000000000004 0
0.23999999999999999 0.040000000000000001 0
0.23999999999999999 0.54999999999999993 0
0.23999999999999999 0.56000000000000005 0
0.23999999999999999 0.58000000000000007 0
0.26000000000000001 0 0
0.26000000000000001 0.020000000000000004 0
0.26000000000000001 0.040000000000000001 0
0.26000000000000001 0.54999999999999993 0
0.26000000000000001 0.56000000000000005 0
0.26000000000000001 0.58000000000000007 0
0.28000000000000003 0 0
0.28000000000000003 0.020000000000000004 0
0.28000000000000003 0.040000000000000001 0
0.28000000000000003 0.54999999999999993 0
0.28000000000000003 0.56000000000000005 0
0.28000000000000003 0.58000000000000007 0
0.29999999999999999 0 0
0.29999999999999999 0.020000000000000004 0
0.29999999999999999 0.040000000000000001 0
0.29999999999999999 0.54999999999999993 0
0.29999999999999999 0.56000000000000005 0
0.29999999999999999 0.58000000000000007 0
0.32000000000000001 0 0
0.32000000000000001 0.020000000000000004 0
0.32000000000000001 0.040000000000000001 0
0.32000000000000001 0.54999999999999993 0
0.32000000000000001 0.56000000000000005 0
0.32000000000000001 0.58000000000000007 0
0.34000000000000002 0 0
0.34000000000000002 0.020000000000000004 0
0.34000000000000002 0.040000000000000001 0
0.34000000000000002 0.54999999999999993 0
0.34000000000000002 0.56000000000000005 0
0.34000000000000002 0.58000000000000007 0
0.35999999999999999 0 0
0.35999999999999999 0.020000000000000004 0
0.35999999999999999 0.040000000000000001 0
0.35999999999999999 0.54999999999999993 0
0.35999999999999999 0.56000000000000005 0
0.35999999999999999 0.58000000000000007 0
0.38 0 0
0.38 0.020000000000000004 0
0.38 0.040000000000000001 0
0.38 0.54999999999999993 0
0.38 0.56000000000000005 0
0.38 0.58000000000000007 0
0.40000000000000002 0 0
0.40000000000000002 0.020000000000000004 0
0.40000000000000002 0.040000000000000001 0
0.40000000000000002 0.54999999999999993 0
0.40000000000000002 0.56000000000000005 0
0.40000000000000002 0.58000000000000007 0
0.41999999999999998 0 0
0.41999999999999998 0.020000000000000004 0
0.41999999999999998 0.040000000000000001 0
0.41999999999999998 0.54999999999999993 0
0.41999999999999998 0.56000000000000005 0
0.41999999999999998 0.58000000000000007 0
0.44 0 0
0.44 0.020000000000000004 0
0.44 0.040000000000000001 0
0.44 0.54999999999999993 0
0.44 0.56000000000000005 0
0.44 0.58000000000000007 0
0.46000000000000002 0 0
0.46000000000000002 0.020000000000000004 0
0.46000000000000002 0.040000000000000001 0
0.46000000000000002 0.54999999999999993 0
0.46000000000000002 0.56000000000000005 0
0.46000000000000002 0.58000000000000007 0
0.47999999999999998 0 0
0.47999999999999998 0.020000000000000004 0
0.47999999999999998 0.040000000000000001 0
0.47999999999999998 0.54999999999999993 0
0.47999999999999998 0.56000000000000005 0
0.47999999999999998 0.58000000000000007 0
0.5 0 0
0.5 0.020000000000000004 0
0.5 0.040000000000000001 0
0.5 0.54999999999999993 0
0.5 0.56000000000000005 0
0.5 0.58000000000000007 0
0.52000000000000002 0 0
0.52000000000000002 0.020000000000000004 0
0.52000000000000002 0.040000000000000001 0
0.52000000000000002 0.54999999999999993 0
0.52000000000000002 0.56000000000000005 0
0.52000000000000002 0.58000000000000007 0
0.54000000000000004 0 0
0.54000000000000004 0.020000000000000004 0
0.54000000000000004 0.040000000000000001 0
0.54000000000000004 0.54999999999999993 0
0.54000000000000004 0.56000000000000005 0
0.54000000000000004 0.58000000000000007 0
0.56000000000000005 0 0
0.56000000000000005 0.020000000000000004 0
0.56000000000000005 0.040000000000000001 0
0.56000000000000005 0.54999999999999993 0
0.56000000000000005 0.56000000000000005 0
0.56000000000000005 0.58000000000000007 0
0.57999999999999996 0 0
0.57999999999999996 0.020000000000000004 0
0.57999999999999996 0.040000000000000001 0
0.57999999999999996 0.54999999999999993 0
0.57999999999999996 0.56000000000000005 0
0.57999999999999996 0.58000000000000007 0
0.59999999999999998 0 0
0.59999999999999998 0.020000000000000004 0
0.59999999999999998 0.040000000000000001 0
0.59999999999999998 0.54999999999999993 0
0.59999999999999998 0.56000000000000005 0
0.59999999999999998 0.58000000000000007 0
0.62 0 0
0.62 0.020000000000000004 0
0.62 0.040000000000000001 0
0.62 0.54999999999999993 0
0.62 0.56000000000000005 0
0.62 0.58000000000000007 0
0.64000000000000001 0 0
0.64000000000000001 0.020000000000000004 0
0.64000000000000001 0.040000000000000001 0
0.64000000000000001 0.54999999999999993 0
0.64000000000000001 0.56000000000000005 0
0.64000000000000001 0.58000000000000007 0
0.66000000000000003 0 0
0.66000000000000003 0.020000000000000004 0
0.66000000000000003 0.040000000000000001 0
0.66000000000000003 0.54999999999999993 0
0.66000000000000003 0.56000000000000005 0
0.66000000000000003 0.58000000000000007 0
0.68000000000000005 0 0
0.68000000000000005 0.020000000000000004 0
0.68000000000000005 0.040000000000000001 0
0.68000000000000005 0.54999999999999993 0
0.68000000000000005 0.56000000000000005 0
0.68000000000000005 0.58000000000000007 0
0.70000000000000007 0 0
0.70000000000000007 0.020000000000000004 0
0.70000000000000007 0.040000000000000001 0
0.70000000000000007 0.54999999999999993 0
0.70000000000000007 0.56000000000000005 0
0.70000000000000007 0.58000000000000007 0
0.71999999999999997 0 0
0.71999999999999997 0.020000000000000004 0
0.71999999999999997 0.040000000000000001 0
0.71999999999999997 0.54999999999999993 0
0.71999999999999997 0.56000000000000005 0
0.71999999999999997 0.58000000000000007 0
0.73999999999999999 0 0
0.73999999999999999 0.020000000000000004 0
0.73999999999999999 0.040000000000000001 0
0.73999999999999999 0.54999999999999993 0
0.73999999999999999 0.56000000000000005 0
0.73999999999999999 0.58000000000000007 0
0.76000000000000001 0 0
0.76000000000000001 0.020000000000000004 0
0.76000000000000001 0.040000000000000001 0
0.76000000000000001 0.54999999999999993 0
0.76000000000000001 0.56000000000000005 0
0.76000000000000001 0.58000000000000007 0
0.78000000000000003 0 0
0.78000000000000003 0.020000000000000004 0
0.78000000000000003 0.040000000000000001 0
0.78000000000000003 0.54999999999999993 0
0.78000000000000003 0.56000000000000005 0
0.78000000000000003 0.58000000000000007 0
0.80000000000000004 0 0
0.80000000000000004 0.020000000000000004 0
0.80000000000000004 0.040000000000000001 0
0.80000000000000004 0.54999999999999993 0
0.80000000000000004 0.56000000000000005 0
0.80000000000000004 0.58000000000000007 0
0.82000000000000006 0 0
0.82000000000000006 0.020000000000000004 0
0.82000000000000006 0.040000000000000001 0
0.82000000000000006 0.54999999999999993 0
0.82000000000000006 0.56000000000000005 0
0.82000000000000006 0.58000000000000007 0
0.83999999999999997 0 0
0.83999999999999997 0.020000000000000004 0
0.83999999999999997 0.040000000000000001 0
0.83999999999999997 0.54999999999999993 0
0.83999999999999997 0.56000000000000005 0
0.83999999999999997 0.58000000000000007 0
0.85999999999999999 0 0
0.85999999999999999 0.020000000000000004 0
0.85999999999999999 0.040000000000000001 0
0.85999999999999999 0.54999999999999993 0
0.85999999999999999 0.56000000000000005 0
0.85999999999999999 0.58000000000000007 0
0.88 0 0
0.88 0.020000000000000004 0
0.88 0.040000000000000001 0
0.88 0.54999999999999993 0
0.88 0.56000000000000005 0
0.88 0.58000000000000007 0
0.90000000000000002 0 0
0.90000000000000002 0.020000000000000004 0
0.90000000000000002 0.040000000000000001 0
0.90000000000000002 0.54999999999999993 0
0.90000000000000002 0.56000000000000005 0
0.90000000000000002 0.58000000000000007 0
0.92000000000000004 0 0
0.92000000000000004 0.020000000000000004 0
0.92000000000000004 0.040000000000000001 0
0.92000000000000004 0.54999999999999993 0
0.92000000000000004 0.56000000000000005 0
0.92000000000000004 0.58000000000000007 0
0.94000000000000006 0 0
0.94000000000000006 0.020000000000000004 0
0.94000000000000006 0.040000000000000001 0
0.94000000000000006 0.54999999999999993 0
0.94000000000000006 0.56000000000000005 0
0.94000000000000006 0.58000000000000007 0
0.95999999999999996 0 0
0.95999999999999996 0.020000000000000004 0
0.95999999999999996 0.040000000000000001 0
0.95999999999999996 0.54999999999999993 0
0.95999999999999996 0.56000000000000005 0
0.95999999999999996 0.58000000000000007 0
0.97999999999999998 0 0
0.97999999999999998 0.020000000000000004 0
0.97999999999999998 0.040000000000000001 0
0.97999999999999998 0.54999999999999993 0
0.97999999999999998 0.56000000000000005 0
0.97999999999999998 0.58000000000000007 0
1 0 0
1 0.020000000000000004 0
1 0.040000000000000001 0
1 0.54999999999999993 0
1 0.56000000000000005 0
1 0.58000000000000007 0
VERTICES 681 1362
1 0
1 1
1 2
1 3
1 4
1 5
1 6
1 7
1 8
1 9
1 10
1 11
1 12
1 13
1 14
1 15
1 16
1 17
1 18
1 19
1 20
1 21
1 22
1 23
1 24
1 25
1 26
1 27
1 28
1 29
1 30
1 31
1 32
1 33
1 34
1 35
1 36
1 37
1 38
1 39
1 40
1 41
1 42
1 43
1 44
1 45
1 46
1 47
1 48
1 49
1 50
1 51
1 52
1 53
1 54
1 55
1 56
1 57
1 58
1 59
1 60
1 61
1 62
1 63
1 64
1 65
1 66
1 67
1 68
1 69
1 70
1 71
1 72
1 73
1 74
1 75
1 76
1 77
1 78
1 79
1 80
1 81
1 82
1 83
1 84
1 85
1 86
1 87
1 88
1 89
1 90
1 91
1 92
1 93
1 94
1 95
1 96
1 97
1 98
1 99
1 100
1 101
1 102
1 103
1 104
1 105
1 106
1 107
1 108
1 109
1 110
1 111
1 112
1 113
1 114
1 115
1 116
1 117
1 118
1 119
1 120
1 121
1 122
1 123
1 124
1 125
1 126
1 127
1 128
1 129
1 130
1 131
1 132
1 133
1 134
1 135
1 136
1 137
1 138
1 139
1 140
1 141
1 142
1 143
1 144
1 145
1 146
1 147
1 148
1 149
1 150
1 151
1 152
1 153
1 154
1 155
1 156
1 157
1 158
1 159
1 160
1 161
1 162
1 163
1 164
1 165
1 166
1 167
1 168
1 169
1 170
1 171
1 172
1 173
1 174
1 175
1 176
1 177
1 178
1 179
1 180
1 181
1 182
1 183
1 184
1 185
1 186
1 187
1 188
1 189
1 190
1 191
1 192
1 193
1 194
1 195
1 196
1 197
1 198
1 199
1 200
1 201
1 202
1 203
1 204
1 205
1 206
1 207
1 208
1 209
1 210
1 211
1 212
1 213
1 214
1 215
1 216
1 217
1 218
1 219
1 220
1 221
1 222
1 223
1 224
1 225
1 226
1 227
1 228
1 229
1 230
1 231
1 232
1 233
1 234
1 235
1 236
1 237
1 238
1 239
1 240
1 241
1 242
1 243
1 244
1 245
1 246
1 247
1 248
1 249
1 250
1 251
1 252
1 253
1 254
1 255
1 256
1 257
1 258
1 259
1 260
1 261
1 262
1 263
1 264
1 265
1 266
1 267
1 268
1 269
1 270
1 271
1 272
1 273
1 274
1 275
1 276
1 277
1 278
1 279
1 280
1 281
1 282
1 283
1 284
1 285
1 286
1 287
1 288
1 289
1 290
1 291
1 292
1 293
1 294
1 295
1 296
1 297
1 298
1 299
1 300
1 301
1 302
1 303
1 304
1 305
1 306
1 307
1 308
1 309
1 310
1 311
1 312
1 313
1 314
1 315
1 316
1 317
1 318
1 319
1 320
1 321
1 322
1 323
1 324
1 325
1 326
1 327
1 328
1 329
1 330
1 331
1 332
1 333
1 334
1 335
1 336
1 337
1 338
1 339
1 340
1 341
1 342
1 343
1 344
1 345
1 346
1 347
1 348
1 349
1 350
1 351
1 352
1 353
1 354
1 355
1 356
1 357
1 358
1 359
1 360
1 361
1 362
1 363
1 364
1 365
1 366
1 367
1 368
1 369
1 370
1 371
1 372
1 373
1 374
1 375
1 376
1 377
1 378
1 379
1 380
1 381
1 382
1 383
1 384
1 385
1 386
1 387
1 388
1 389
1 390
1 391
1 392
1 393
1 394
1 395
1 396
1 397
1 398
1 399
1 400
1 401
1 402
1 403
1 404
1 405
1 406
1 407
1 408
1 409
1 410
1 411
1 412
1 413
1 414
1 415
1 416
1 417
1 418
1 419
1 420
1 421
1 422
1 423
1 424
1 425
1 426
1 427
1 428
1 429
1 430
1 431
1 432
1 433
1 434
1 435
1 436
1 437
1 438
1 439
1 440
1 441
1 442
1 443
1 444
1 445
1 446
1 447
1 448
1 449
1 450
1 451
1 452
1 453
1 454
1 455
1 456
1 457
1 458
1 459
1 460
1 461
1 462
1 463
1 464
1 465
1 466
1 467
1 468
1 469
1 470
1 471
1 472
1 473
1 474
1 475
1 476
1 477
1 478
1 479
1 480
1 481
1 482
1 483
1 484
1 485
1 486
1 487
1 488
1 489
1 490
1 491
1 492
1 493
1 494
1 495
1 496
1 497
1 498
1 499
1 500
1 501
1 502
1 503
1 504
1 505
1 506
1 507
1 508
1 509
1 510
1 511
1 512
1 513
1 514
1 515
1 516
1 517
1 518
1 519
1 520
1 521
1 522
1 523
1 524
1 525
1 526
1 527
1 528
1 529
1 530
1 531
1 532
1 533
1 534
1 535
1 536
1 537
1 538
1 539
1 540
1 541
1 542
1 543
1 544
1 545
1 546
1 547
1 548
1 549
1 550
1 551
1 552
1 553
1 554
1 555
1 556
1 557
1 558
1 559
1 560
1 561
1 562
1 563
1 564
1 565
1 566
1 567
1 568
1 569
1 570
1 571
1 572
1 573
1 574
1 575
1 576
1 577
1 578
1 579
1 580
1 581
1 582
1 583
1 584
1 585
1 586
1 587
1 588
1 589
1 590
1 591
1 592
1 593
1 594
1 595
1 596
1 597
1 598
1 599
1 600
1 601
1 602
1 603
1 604
1 605
1 606
1 607
1 608
1 609
1 610
1 611
1 612
1 613
1 614
1 615
1 616
1 617
1 618
1 619
1 620
1 621
1 622
1 623
1 624
1 625
1 626
1 627
1 628
1 629
1 630
1 631
1 632
1 633
1 634
1 635
1 636
1 637
1 638
1 639
1 640
1 641
1 642
1 643
1 644
1 645
1 646
1 647
1 648
1 649
1 650
1 651
1 652
1 653
1 654
1 655
1 656
1 657
1 658
1 659
1 660
1 661
1 662
1 663
1 664
1 665
1 666
1 667
1 668
1 669
1 670
1 671
1 672
1 673
1 674
1 675
1 676
1 677
1 678
1 679
1 680
POINT_DATA 681
SCALARS is_boundary int 1
LOOKUP_TABLE default
0
0
0
0
0
0
0
0
0
0
0
0
0
0
0
0
0
0
0
0
0
0
0
0
0
0
0
0
0
0
0
0
0
0
0
0
0
0
0
0
0
0
0
0
0
0
0
0
0
0
0
0
0
0
0
0
0
0
0
0
0
0
0
0
0
0
0
0
0
0
0
0
0
0
0
0
0
0
0
0
0
0
0
0
0
0
0
0
0
0
0
0
0
0
0
0
0
0
0
0
0
0
0
0
0
0
0
0
0
0
0
0
0
0
0
0
0
0
0
0
0
0
0
0
0
0
0
0
0
0
0
0
0
0
0
0
0
0
0
0
0
0
0
0
0
0
0
0
0
0
0
0
0
0
0
0
0
0
0
0
0
0
0
0
0
0
0
0
0
0
0
0
0
0
0
0
0
0
0
0
0
0
0
0
0
0
0
0
0
0
0
0
0
0
0
0
0
0
0
0
0
0
0
0
0
0
0
0
0
0
0
0
0
0
0
0
0
0
0
0
0
0
0
0
0
0
0
0
0
0
0
0
0
0
0
0
0
0
0
0
0
0
0
0
0
0
0
0
0
0
0
0
0
0
0
0
0
0
0
0
0
0
0
0
0
0
0
0
0
0
0
0
0
0
0
0
0
0
0
0
0
0
0
0
0
0
0
0
0
0
0
0
0
0
0
0
0
0
0
0
0
0
0
0
0
0
0
0
0
0
0
0
0
0
0
0
0
0
0
0
0
0
0
0
0
0
0
0
0
0
0
0
0
0
0
0
0
0
0
0
0
0
0
0
0
0
0
0
0
0
0
0
0
0
0
0
0
0
0
0
0
0
0
0
0
0
0
0
0
0
0
0
0
0
0
1
1
1
1
1
1
1
1
1
1
1
1
1
1
1
1
1
1
1
1
1
1
1
1
1
1
1
1
1
1
1
1
1
1
1
1
1
1
1
1
1
1
1
1
1
1
1
1
1
1
1
1
1
1
1
1
1
1
1
1
1
1
1
1
1
1
1
1
1
1
1
1
1
1
1
1
1
1
1
1
1
1
1
1
1
1
1
1
1
1
1
1
1
1
1
1
1
1
1
1
1
1
1
1
1
1
1
1
1
1
1
1
1
1
1
1
1
1
1
1
1
1
1
1
1
1
1
1
1
1
1
1
1
1
1
1
1
1
1
1
1
1
1
1
1
1
1
1
1
1
1
1
1
1
1
1
1
1
1
1
1
1
1
1
1
1
1
1
1
1
1
1
1
1
1
1
1
1
1
1
1
1
1
1
1
1
1
1
1
1
1
1
1
1
1
1
1
1
1
1
1
1
1
1
1
1
1
1
1
1
1
1
1
1
1
1
1
1
1
1
1
1
1
1
1
1
1
1
1
1
1
1
1
1
1
1
1
1
1
1
1
1
1
1
1
1
1
1
1
1
1
1
1
1
1
1
1
1
1
1
1
1
1
1
1
1
1
1
1
1
1
1
1
1
1
1
1
1
1
1
1
1
1
1
1
1
1
1
1
1
1
1
1
1
1
1
1
1
1
1
1
1
1
1
1
1
SCALARS rho float 1
LOOKUP_TABLE default
1020
1020
1020
1020
1020
1020
1020
1020
1020
1020
1020
1020
1020
1020
1020
1020
1020
1020
1020
1020
1020
1020
1020
1020
1020
1020
1020
1020
1020
1020
1020
1020
1020
1020
1020
1020
1020
1020
1020
1020
1020
1020
1020
1020
1020
1020
1020
1020
1020
1020
1020
1020
1020
1020
1020
1020
1020
1020
1020
1020
1020
1020
1020
1020
1020
1020
1020
1020
1020
1020
1020
1020
1020
1020
1020
1020
1020
1020
1020
1020
1020
1020
1020
1020
1020
1020
1020
1020
1020
1020
1020
1020
1020
1020
1020
1020
1020
1020
1020
1020
1020
1020
1020
1020
1020
1020
1020
1020
1020
1020
1020
1020
1020
1020
1020
1020
1020
1020
1020
1020
1020
1020
1020
1020
1020
1020
1020
1020
1020
1020
1020
1020
1020
1020
1020
1020
1020
1020
1020
1020
1020
1020
1020
1020
1020
1020
1020
1020
1020
1020
1020
1020
1020
1020
1020
1020
1020
1020
1020
1020
1020
1020
1020
1020
1020
1020
1020
1020
1020
1020
1020
1020
1020
1020
1020
1020
1020
1020
1020
1020
1020
1020
1020
1020
1020
1020
1020
1020
1020
1020
1020
1020
1020
1020
1020
1020
1020
1020
1020
1020
1020
1020
1020
1020
1020
1020
1020
1020
1020
1020
1020
1020
1020
1020
1020
1020
1020
1020
1020
1020
1020
1020
1020
1020
1020
1020
1020
1020
1020
1020
1020
1020
1020
1020
1020
1020
1020
1020
1020
1020
1020
1020
1020
1020
1020
1020
1020
1020
1020
1020
1020
1020
1020
1020
1020
1020
1020
1020
1020
1020
1020
1020
1020
1020
1020
1020
1020
1020
1020
1020
1020
1020
1020
1020
1020
1020
1020
1020
1020
1020
1020
1020
1020
1020
1020
1020
1020
1020
1020
1020
1020
1020
1020
1020
1020
1020
1020
1020
1020
1020
1020
1020
1020
1020
1020
1020
1020
1020
1020
1020
1020
1020
1020
1020
1020
1020
1020
1020
1020
1020
1020
1020
1020
1020
1020
1020
1020
1020
1020
1020
1020
1020
1020
1020
1020
1020
1020
1020
1020
1020
1020
1020
1020
1020
1020
1020
1020
1020
1020
1020
1020
1020
1020
1020
1020
1020
1020
1020
1020
1020
1020
1020
1020
1020
1020
1020
1020
1020
1020
1020
1020
1020
1020
1020
1020
1000
1000
1000
1000
1000
1000
1000
1000
1000
1000
1000
1000
1000
1000
1000
1000
1000
1000
1000
1000
1000
1000
1000
1000
1000
1000
1000
1000
1000
1000
1000
1000
1000
1000
1000
1000
1000
1000
1000
1000
1000
1000
1000
1000
1000
1000
1000
1000
1000
1000
1000
1000
1000
1000
1000
1000
1000
1000
1000
1000
1000
1000
1000
1000
1000
1000
1000
1000
1000
1000
1000
1000
1000
1000
1000
1000
1000
1000
1000
1000
1000
1000
1000
1000
1000
1000
1000
1000
1000
1000
1000
1000
1000
1000
1000
1000
1000
1000
1000
1000
1000
1000
1000
1000
1000
1000
1000
1000
1000
1000
1000
1000
1000
1000
1000
1000
1000
1000
1000
1000
1000
1000
1000
1000
1000
1000
1000
1000
1000
1000
1000
1000
1000
1000
1000
1000
1000
1000
1000
1000
1000
1000
1000
1000
1000
1000
1000
1000
1000
1000
1000
1000
1000
1000
1000
1000
1000
1000
1000
1000
1000
1000
1000
1000
1000
1000
1000
1000
1000
1000
1000
1000
1000
1000
1000
1000
1000
1000
1000
1000
1000
1000
1000
1000
1000
1000
1000
1000
1000
1000
1000
1000
1000
1000
1000
1000
1000
1000
1000
1000
1000
1000
1000
1000
1000
1000
1000
1000
1000
1000
1000
1000
1000
1000
1000
1000
1000
1000
1000
1000
1000
1000
1000
1000
1000
1000
1000
1000
1000
1000
1000
1000
1000
1000
1000
1000
1000
1000
1000
1000
1000
1000
1000
1000
1000
1000
1000
1000
1000
1000
1000
1000
1000
1000
1000
1000
1000
1000
1000
1000
1000
1000
1000
1000
1000
1000
1000
1000
1000
1000
1000
1000
1000
1000
1000
1000
1000
1000
1000
1000
1000
1000
1000
1000
1000
1000
1000
1000
1000
1000
1000
1000
1000
1000
1000
1000
1000
1000
1000
1000
1000
1000
1000
1000
1000
1000
SCALARS p float 1
LOOKUP_TABLE default
25004.681136676067
25004.681136676067
25004.681136676067
25004.681136676067
25004.681136676067
25004.681136676067
25004.681136676067
25004.681136676067
25004.681136676067
25004.681136676067
25004.681136676067
25004.681136676067
25004.681136676067
25004.681136676067
25004.681136676067
25004.681136676067
25004.681136676067
25004.681136676067
25004.681136676067
25004.681136676067
25004.681136676067
25004.681136676067
25004.681136676067
25004.681136676067
25004.681136676067
25004.681136676067
25004.681136676067
25004.681136676067
25004.681136676067
25004.681136676067
25004.681136676067
25004.681136676067
25004.681136676067
25004.681136676067
25004.681136676067
25004.681136676067
25004.681136676067
25004.681136676067
25004.681136676067
25004.681136676067
25004.681136676067
25004.681136676067
25004.681136676067
25004.681136676067
25004.681136676067
25004.681136676067
25004.681136676067
25004.681136676067
25004.681136676067
25004.681136676067
25004.681136676067
25004.681136676067
25004.681136676067
25004.681136676067
25004.681136676067
25004.681136676067
25004.681136676067
25004.681136676067
25004.681136676067
25004.681136676067
25004.681136676067
25004.681136676067
25004.681136676067
25004.681136676067
25004.681136676067
25004.681136676067
25004.681136676067
25004.681136676067
25004.681136676067
25004.681136676067
25004.681136676067
25004.681136676067
25004.681136676067
25004.681136676067
25004.681136676067
25004.681136676067
25004.681136676067
25004.681136676067
25004.681136676067
25004.681136676067
25004.681136676067
25004.681136676067
25004.681136676067
25004.681136676067
25004.681136676067
25004.681136676067
25004.681136676067
25004.681136676067
25004.681136676067
25004.681136676067
25004.681136676067
25004.681136676067
25004.681136676067
25004.681136676067
25004.681136676067
25004.681136676067
25004.681136676067
25004.681136676067
25004.681136676067
25004.681136676067
25004.681136676067
25004.681136676067
25004.681136676067
25004.681136676067
25004.681136676067
25004.681136676067
25004.681136676067
25004.681136676067
25004.681136676067
25004.681136676067
25004.681136676067
25004.681136676067
25004.681136676067
25004.681136676067
25004.681136676067
25004.681136676067
25004.681136676067
25004.681136676067
25004.681136676067
25004.681136676067
25004.681136676067
25004.681136676067
25004.681136676067
25004.681136676067
25004.681136676067
25004.681136676067
25004.681136676067
25004.681136676067
25004.681136676067
25004.681136676067
25004.681136676067
25004.681136676067
25004.681136676067
25004.681136676067
25004.681136676067
25004.681136676067
25004.681136676067
25004.681136676067
25004.681136676067
25004.681136676067
25004.681136676067
25004.681136676067
25004.681136676067
25004.681136676067
25004.681136676067
25004.681136676067
25004.681136676067
25004.681136676067
25004.681136676067
25004.681136676067
25004.681136676067
25004.681136676067
25004.681136676067
25004.681136676067
25004.681136676067
25004.681136676067
25004.681136676067
25004.681136676067
25004.681136676067
25004.681136676067
25004.681136676067
25004.681136676067
25004.681136676067
25004.681136676067
25004.681136676067
25004.681136676067
25004.681136676067
25004.681136676067
25004.681136676067
25004.681136676067
25004.681136676067
25004.681136676067
25004.681136676067
25004.681136676067
25004.681136676067
25004.681136676067
25004.681136676067
25004.681136676067
25004.681136676067
25004.681136676067
25004.681136676067
25004.681136676067
25004.681136676067
25004.681136676067
25004.681136676067
25004.681136676067
25004.681136676067
25004.681136676067
25004.681136676067
25004.681136676067
25004.681136676067
25004.681136676067
25004.681136676067
25004.681136676067
25004.681136676067
25004.681136676067
25004.681136676067
25004.681136676067
25004.681136676067
25004.681136676067
25004.681136676067
25004.681136676067
25004.681136676067
25004.681136676067
25004.681136676067
25004.681136676067
25004.681136676067
25004.681136676067
25004.681136676067
25004.681136676067
25004.681136676067
25004.681136676067
25004.681136676067
25004.681136676067
25004.681136676067
25004.681136676067
25004.681136676067
25004.681136676067
25004.681136676067
25004.681136676067
25004.681136676067
25004.681136676067
25004.681136676067
25004.681136676067
25004.681136676067
25004.681136676067
25004.681136676067
25004.681136676067
25004.681136676067
25004.681136676067
25004.681136676067
25004.681136676067
25004.681136676067
25004.681136676067
25004.681136676067
25004.681136676067
25004.681136676067
25004.681136676067
25004.681136676067
25004.681136676067
25004.681136676067
25004.681136676067
25004.681136676067
25004.681136676067
25004.681136676067
25004.681136676067
25004.681136676067
25004.681136676067
25004.681136676067
25004.681136676067
25004.681136676067
25004.681136676067
25004.681136676067
25004.681136676067
25004.681136676067
25004.681136676067
25004.681136676067
25004.681136676067
25004.681136676067
25004.681136676067
25004.681136676067
25004.681136676067
25004.681136676067
25004.681136676067
25004.681136676067
25004.681136676067
25004.681136676067
25004.681136676067
25004.681136676067
25004.681136676067
25004.681136676067
25004.681136676067
25004.681136676067
25004.681136676067
25004.681136676067
25004.681136676067
25004.681136676067
25004.681136676067
25004.681136676067
25004.681136676067
25004.681136676067
25004.681136676067
25004.681136676067
25004.681136676067
25004.681136676067
25004.681136676067
25004.681136676067
25004.681136676067
25004.681136676067
25004.681136676067
25004.681136676067
25004.681136676067
25004.681136676067
25004.681136676067
25004.681136676067
25004.681136676067
25004.681136676067
25004.681136676067
25004.681136676067
25004.681136676067
25004.681136676067
25004.681136676067
25004.681136676067
25004.681136676067
25004.681136676067
25004.681136676067
25004.681136676067
25004.681136676067
25004.681136676067
25004.681136676067
25004.681136676067
25004.681136676067
25004.681136676067
25004.681136676067
25004.681136676067
25004.681136676067
25004.681136676067
25004.681136676067
25004.681136676067
25004.681136676067
25004.681136676067
25004.681136676067
25004.681136676067
25004.681136676067
25004.681136676067
25004.681136676067
25004.681136676067
25004.681136676067
25004.681136676067
25004.681136676067
25004.681136676067
25004.681136676067
25004.681136676067
25004.681136676067
25004.681136676067
25004.681136676067
25004.681136676067
25004.681136676067
25004.681136676067
25004.681136676067
25004.681136676067
25004.681136676067
25004.681136676067
25004.681136676067
25004.681136676067
25004.681136676067
25004.681136676067
25004.681136676067
25004.681136676067
25004.681136676067
25004.681136676067
25004.681136676067
25004.681136676067
25004.681136676067
25004.681136676067
25004.681136676067
25004.681136676067
25004.681136676067
25004.681136676067
25004.681136676067
25004.681136676067
25004.681136676067
25004.681136676067
25004.681136676067
25004.681136676067
25004.681136676067
25004.681136676067
25004.681136676067
25004.681136676067
25004.681136676067
25004.681136676067
25004.681136676067
25004.681136676067
25004.681136676067
25004.681136676067
0
0
0
0
0
0
24673.33014370047
24990.909033746077
24998.004626607271
0
0
0
24994.385104451801
25003.650622861933
25004.140549189018
0
0
0
24999.849958790055
25004.148424346204
25004.394533035931
0
0
0
25000.296208242758
25004.171053342703
25004.400514793579
0
0
0
25000.332017568704
25004.170645732258
25004.398886171195
0
0
0
25000.320796613636
25004.169788641997
25004.398511236144
0
0
0
25000.312526382091
25004.169294863332
25004.398396182583
0
0
0
25000.308610192649
25004.169066518843
25004.398352658198
0
0
0
25000.307148946034
25004.168985852899
25004.398340360651
0
0
0
25000.30712862853
25004.168986676839
25004.398341654985
0
0
0
25000.308570286135
25004.169067536215
25004.398354876845
0
0
0
25000.312488350683
25004.169295266023
25004.398398125129
0
0
0
25000.320774014785
25004.169789811538
25004.398514073844
0
0
0
25000.331955926456
25004.170644642818
25004.398889217333
0
0
0
25000.296103509321
25004.171052635902
25004.400519378974
0
0
0
24999.849859551687
25004.148431718921
25004.394542720052
0
0
0
24994.384311566988
25003.650582458256
25004.140532010595
0
0
0
24673.251419644523
24990.906966834806
24998.003446997674
0
0
0
0
0
0
0
0
0
0
0
0
0
0
0
0
0
0
0
0
0
0
0
0
0
0
0
0
0
0
0
0
0
0
0
0
0
0
0
0
0
0
0
0
0
0
0
0
0
0
0
0
0
0
0
0
0
0
0
0
0
0
0
0
0
0
0
0
0
0
0
0
0
0
0
0
0
0
0
0
0
0
0
0
0
0
0
0
0
0
0
0
0
0
0
0
0
0
0
0
0
0
0
0
0
0
0
0
0
0
0
0
0
0
0
0
0
0
0
0
0
0
0
0
0
0
0
0
0
0
0
0
0
0
0
0
0
0
0
0
0
0
0
0
0
0
0
0
0
0
0
0
0
0
0
0
0
0
0
0
0
0
0
0
0
0
0
0
0
0
0
0
0
0
0
0
0
0
0
0
0
0
0
0
0
0
0
0
0
0
0
0
0
0
0
SCALARS m float 1
LOOKUP_TABLE default
0.39942306611962441
0.39942306611962441
0.39942306611962441
0.39942306611962441
0.39942306611962441
0.39942306611962441
0.39942306611962441
0.39942306611962441
0.39942306611962441
0.39942306611962441
0.39942306611962441
0.39942306611962441
0.39942306611962441
0.39942306611962441
0.39942306611962441
0.39942306611962441
0.39942306611962441
0.39942306611962441
0.39942306611962441
0.39942306611962441
0.39942306611962441
0.39942306611962441
0.39942306611962441
0.39942306611962441
0.39942306611962441
0.39942306611962441
0.39942306611962441
0.39942306611962441
0.39942306611962441
0.39942306611962441
0.39942306611962441
0.39942306611962441
0.39942306611962441
0.39942306611962441
0.39942306611962441
0.39942306611962441
0.39942306611962441
0.39942306611962441
0.39942306611962441
0.39942306611962441
0.39942306611962441
0.39942306611962441
0.39942306611962441
0.39942306611962441
0.39942306611962441
0.39942306611962441
0.39942306611962441
0.39942306611962441
0.39942306611962441
0.39942306611962441
0.39942306611962441
0.39942306611962441
0.39942306611962441
0.39942306611962441
0.39942306611962441
0.39942306611962441
0.39942306611962441
0.39942306611962441
0.39942306611962441
0.39942306611962441
0.39942306611962441
0.39942306611962441
0.39942306611962441
0.39942306611962441
0.39942306611962441
0.39942306611962441
0.39942306611962441
0.39942306611962441
0.39942306611962441
0.39942306611962441
0.39942306611962441
0.39942306611962441
0.39942306611962441
0.39942306611962441
0.39942306611962441
0.39942306611962441
0.39942306611962441
0.39942306611962441
0.39942306611962441
0.39942306611962441
0.39942306611962441
0.39942306611962441
0.39942306611962441
0.39942306611962441
0.39942306611962441
0.39942306611962441
0.39942306611962441
0.39942306611962441
0.39942306611962441
0.39942306611962441
0.39942306611962441
0.39942306611962441
0.39942306611962441
0.39942306611962441
0.39942306611962441
0.39942306611962441
0.39942306611962441
0.39942306611962441
0.39942306611962441
0.39942306611962441
0.39942306611962441
0.39942306611962441
0.39942306611962441
0.39942306611962441
0.39942306611962441
0.39942306611962441
0.39942306611962441
0.39942306611962441
0.39942306611962441
0.39942306611962441
0.39942306611962441
0.39942306611962441
0.39942306611962441
0.39942306611962441
0.39942306611962441
0.39942306611962441
0.39942306611962441
0.39942306611962441
0.39942306611962441
0.39942306611962441
0.39942306611962441
0.39942306611962441
0.39942306611962441
0.39942306611962441
0.39942306611962441
0.39942306611962441
0.39942306611962441
0.39942306611962441
0.39942306611962441
0.39942306611962441
0.39942306611962441
0.39942306611962441
0.39942306611962441
0.39942306611962441
0.39942306611962441
0.39942306611962441
0.39942306611962441
0.39942306611962441
0.39942306611962441
0.39942306611962441
0.39942306611962441
0.39942306611962441
0.39942306611962441
0.39942306611962441
0.39942306611962441
0.39942306611962441
0.39942306611962441
0.39942306611962441
0.39942306611962441
0.39942306611962441
0.39942306611962441
0.39942306611962441
0.39942306611962441
0.39942306611962441
0.39942306611962441
0.39942306611962441
0.39942306611962441
0.39942306611962441
0.39942306611962441
0.39942306611962441
0.39942306611962441
0.39942306611962441
0.39942306611962441
0.39942306611962441
0.39942306611962441
0.39942306611962441
0.39942306611962441
0.39942306611962441
0.39942306611962441
0.39942306611962441
0.39942306611962441
0.39942306611962441
0.39942306611962441
0.39942306611962441
0.39942306611962441
0.39942306611962441
0.39942306611962441
0.39942306611962441
0.39942306611962441
0.39942306611962441
0.39942306611962441
0.39942306611962441
0.39942306611962441
0.39942306611962441
0.39942306611962441
0.39942306611962441
0.39942306611962441
0.39942306611962441
0.39942306611962441
0.39942306611962441
0.39942306611962441
0.39942306611962441
0.39942306611962441
0.39942306611962441
0.39942306611962441
0.39942306611962441
0.39942306611962441
0.39942306611962441
0.39942306611962441
0.39942306611962441
0.39942306611962441
0.39942306611962441
0.39942306611962441
0.39942306611962441
0.39942306611962441
0.39942306611962441
0.39942306611962441
0.39942306611962441
0.39942306611962441
0.39942306611962441
0.39942306611962441
0.39942306611962441
0.39942306611962441
0.39942306611962441
0.39942306611962441
0.39942306611962441
0.39942306611962441
0.39942306611962441
0.39942306611962441
0.39942306611962441
0.39942306611962441
0.39942306611962441
0.39942306611962441
0.39942306611962441
0.39942306611962441
0.39942306611962441
0.39942306611962441
0.39942306611962441
0.39942306611962441
0.39942306611962441
0.39942306611962441
0.39942306611962441
0.39942306611962441
0.39942306611962441
0.39942306611962441
0.39942306611962441
0.39942306611962441
0.39942306611962441
0.39942306611962441
0.39942306611962441
0.39942306611962441
0.39942306611962441
0.39942306611962441
0.39942306611962441
0.39942306611962441
0.39942306611962441
0.39942306611962441
0.39942306611962441
0.39942306611962441
0.39942306611962441
0.39942306611962441
0.39942306611962441
0.39942306611962441
0.39942306611962441
0.39942306611962441
0.39942306611962441
0.39942306611962441
0.39942306611962441
0.39942306611962441
0.39942306611962441
0.39942306611962441
0.39942306611962441
0.39942306611962441
0.39942306611962441
0.39942306611962441
0.39942306611962441
0.39942306611962441
0.39942306611962441
0.39942306611962441
0.39942306611962441
0.39942306611962441
0.39942306611962441
0.39942306611962441
0.39942306611962441
0.39942306611962441
0.39942306611962441
0.39942306611962441
0.39942306611962441
0.39942306611962441
0.39942306611962441
0.39942306611962441
0.39942306611962441
0.39942306611962441
0.39942306611962441
0.39942306611962441
0.39942306611962441
0.39942306611962441
0.39942306611962441
0.39942306611962441
0.39942306611962441
0.39942306611962441
0.39942306611962441
0.39942306611962441
0.39942306611962441
0.39942306611962441
0.39942306611962441
0.39942306611962441
0.39942306611962441
0.39942306611962441
0.39942306611962441
0.39942306611962441
0.39942306611962441
0.39942306611962441
0.39942306611962441
0.39942306611962441
0.39942306611962441
0.39942306611962441
0.39942306611962441
0.39942306611962441
0.39942306611962441
0.39942306611962441
0.39942306611962441
0.39942306611962441
0.39942306611962441
0.39942306611962441
0.39942306611962441
0.39942306611962441
0.39942306611962441
0.39942306611962441
0.39942306611962441
0.39942306611962441
0.39942306611962441
0.39942306611962441
0.39942306611962441
0.39942306611962441
0.39942306611962441
0.39942306611962441
0.39942306611962441
0.39942306611962441
0.39942306611962441
0.39942306611962441
0.39942306611962441
0.39942306611962441
0.39942306611962441
0.39942306611962441
0.39942306611962441
0.39942306611962441
0.39942306611962441
0.39942306611962441
0.39942306611962441
0.39942306611962441
0.39942306611962441
0.39942306611962441
0.39942306611962441
0.39942306611962441
0.39942306611962441
0.39942306611962441
0.39942306611962441
0.39942306611962441
0.39942306611962441
0.39942306611962441
0.39942306611962441
0.39942306611962441
0.39942306611962441
0.39942306611962441
0.39942306611962441
0.39942306611962441
0.39942306611962441
0.39942306611962441
0.39942306611962441
0.39942306611962441
0.39942306611962441
0.39942306611962441
0.39942306611962441
0.39942306611962441
0.39942306611962441
0.39942306611962441
0.39942306611962441
0.39942306611962441
0.39942306611962441
0.39942306611962441
0.39942306611962441
0.39942306611962441
0.39942306611962441
0.39942306611962441
0.39942306611962441
0.39942306611962441
0.39942306611962441
0.39942306611962441
0.39942306611962441
0.39942306611962441
0.39942306611962441
0.39942306611962441
0.39942306611962441
0.39942306611962441
0.39942306611962441
0.39942306611962441
0.39942306611962441
0.39942306611962441
0.39942306611962441
0.39942306611962441
0.39942306611962441
0.39942306611962441
0.39942306611962441
0.39942306611962441
0.39942306611962441
0.39942306611962441
0.39942306611962441
0.39942306611962441
0.39942306611962441
0.39942306611962441
0.39942306611962441
0.39942306611962441
0.39942306611962441
0.39942306611962441
0.39942306611962441
0.39942306611962441
0.39942306611962441
0.39942306611962441
0.39942306611962441
0.39942306611962441
0.39942306611962441
0.39942306611962441
0.39942306611962441
0.39942306611962441
0.39942306611962441
0.39942306611962441
0.39942306611962441
0.39942306611962441
0.39942306611962441
0.39942306611962441
0.39942306611962441
0.39942306611962441
0.39942306611962441
0.39942306611962441
0.39942306611962441
0.39942306611962441
0.39942306611962441
0.39942306611962441
0.39942306611962441
0.39942306611962441
0.39942306611962441
0.39942306611962441
0.39942306611962441
0.39942306611962441
0.39942306611962441
0.39942306611962441
0.39942306611962441
0.39942306611962441
0.39942306611962441
0.39942306611962441
0.39942306611962441
0.39942306611962441
0.39942306611962441
0.39942306611962441
0.39942306611962441
0.39942306611962441
0.39942306611962441
0.39942306611962441
0.39942306611962441
0.39942306611962441
0.39942306611962441
0.39942306611962441
0.39942306611962441
0.39942306611962441
0.39942306611962441
0.39942306611962441
0.39942306611962441
0.39942306611962441
0.39942306611962441
0.39942306611962441
0.39942306611962441
0.39942306611962441
0.39942306611962441
0.39942306611962441
0.39942306611962441
0.39942306611962441
0.39942306611962441
0.39942306611962441
0.39942306611962441
0.39942306611962441
0.39942306611962441
0.39942306611962441
0.39942306611962441
0.39942306611962441
0.39942306611962441
0.39942306611962441
0.39942306611962441
0.39942306611962441
0.39942306611962441
0.39942306611962441
0.39942306611962441
0.39942306611962441
0.39942306611962441
0.39942306611962441
0.39942306611962441
0.39942306611962441
0.39942306611962441
0.39942306611962441
0.39942306611962441
0.39942306611962441
0.39942306611962441
0.39942306611962441
0.39942306611962441
0.39942306611962441
0.39942306611962441
0.39942306611962441
0.39942306611962441
0.39942306611962441
0.39942306611962441
0.39942306611962441
0.39942306611962441
0.39942306611962441
0.39942306611962441
0.39942306611962441
0.39942306611962441
0.39942306611962441
0.39942306611962441
0.39942306611962441
0.39942306611962441
0.39942306611962441
0.39942306611962441
0.39942306611962441
0.39942306611962441
0.39942306611962441
0.39942306611962441
0.39942306611962441
0.39942306611962441
0.39942306611962441
0.39942306611962441
0.39942306611962441
0.39942306611962441
0.39942306611962441
0.39942306611962441
0.39942306611962441
0.39942306611962441
0.39942306611962441
0.39942306611962441
0.39942306611962441
0.39942306611962441
0.39942306611962441
0.39942306611962441
0.39942306611962441
0.39942306611962441
0.39942306611962441
0.39942306611962441
0.39942306611962441
0.39942306611962441
0.39942306611962441
0.39942306611962441
0.39942306611962441
0.39942306611962441
0.39942306611962441
0.39942306611962441
0.39942306611962441
0.39942306611962441
0.39942306611962441
0.39942306611962441
0.39942306611962441
0.39942306611962441
0.39942306611962441
0.39942306611962441
0.39942306611962441
0.39942306611962441
0.39942306611962441
0.39942306611962441
0.39942306611962441
0.39942306611962441
0.39942306611962441
0.39942306611962441
0.39942306611962441
0.39942306611962441
0.39942306611962441
0.39942306611962441
0.39942306611962441
0.39942306611962441
0.39942306611962441
0.39942306611962441
0.39942306611962441
0.39942306611962441
0.39942306611962441
0.39942306611962441
0.39942306611962441
0.39942306611962441
0.39942306611962441
0.39942306611962441
0.39942306611962441
0.39942306611962441
0.39942306611962441
0.39942306611962441
0.39942306611962441
0.39942306611962441
0.39942306611962441
0.39942306611962441
0.39942306611962441
0.39942306611962441
0.39942306611962441
0.39942306611962441
0.39942306611962441
0.39942306611962441
0.39942306611962441
0.39942306611962441
0.39942306611962441
0.39942306611962441
0.39942306611962441
0.39942306611962441
0.39942306611962441
0.39942306611962441
0.39942306611962441
0.39942306611962441
0.39942306611962441
0.39942306611962441
0.39942306611962441
0.39942306611962441
0.39942306611962441
0.39942306611962441
0.39942306611962441
0.39942306611962441
0.39942306611962441
0.39942306611962441
0.39942306611962441
0.39942306611962441
0.39942306611962441
0.39942306611962441
0.39942306611962441
0.39942306611962441
0.39942306611962441
0.39942306611962441
0.39942306611962441
0.39942306611962441
0.39942306611962441
0.39942306611962441
0.39942306611962441
0.39942306611962441
0.39942306611962441
0.39942306611962441
0.39942306611962441
0.39942306611962441
0.39942306611962441
0.39942306611962441
0.39942306611962441
0.39942306611962441
0.39942306611962441
0.39942306611962441
0.39942306611962441
0.39942306611962441
0.39942306611962441
0.39942306611962441
0.39942306611962441
0.39942306611962441
0.39942306611962441
0.39942306611962441
0.39942306611962441
0.39942306611962441
0.39942306611962441
0.39942306611962441
0.39942306611962441
0.39942306611962441
0.39942306611962441
0.39942306611962441
0.39942306611962441
0.39942306611962441
0.39942306611962441
0.39942306611962441
0.39942306611962441
0.39942306611962441
0.39942306611962441
0.39942306611962441
0.39942306611962441
0.39942306611962441
0.39942306611962441
0.39942306611962441
0.39942306611962441
0.39942306611962441
0.39942306611962441
0.39942306611962441
0.39942306611962441
0.39942306611962441
0.39942306611962441
0.39942306611962441
0.39942306611962441
0.39942306611962441
0.39942306611962441
0.39942306611962441
0.39942306611962441
0.39942306611962441
0.39942306611962441
0.39942306611962441
0.39942306611962441
0.39942306611962441
0.39942306611962441
VECTORS v float
-3.31088609807392e-05 -0.04921496980429467 0
-3.5123140439817425e-05 -0.050785618283871313 0
-3.6624076232391731e-05 -0.052038878363299901 0
-3.8061890938014011e-05 -0.053329441694179969 0
-3.9433466660239897e-05 -0.054665911510054725 0
-4.0722583252165289e-05 -0.056060517175514336 0
-4.2008808104768955e-05 -0.057530399704386698 0
-4.3238114308774626e-05 -0.059095232842732527 0
-4.4371272707849689e-05 -0.060773226904489608 0
-4.5448238925305019e-05 -0.062582148983114774 0
-4.6489199022720865e-05 -0.064540666241269251 0
-4.7551087554486575e-05 -0.066669941361286997 0
-4.8378919741740657e-05 -0.069004252497873328 0
-4.926682445644763e-05 -0.071586274848778456 0
-5.0245338849649502e-05 -0.074457600145695885 0
-5.1220309787608991e-05 -0.077666584781827405 0
-5.2172680284925371e-05 -0.081271778762662839 0
-5.3256641168317922e-05 -0.085372863533115101 0
-5.4464707333446642e-05 -0.090082746216707116 0
-5.5719760785658626e-05 -0.095542467286618415 0
-5.7058007676538578e-05 -0.10196910329944132 0
-5.8581365520798355e-05 -0.10962573064574786 0
-6.0260830542667744e-05 -0.11913020591520257 0
-6.233467842445949e-05 -0.13224981821343926 0
-6.5621705654144723e-05 -0.15778914940852914 0
-2.0889360441252006e-05 -0.049884537091127883 0
-2.2480151851763431e-05 -0.051544491182459892 0
-2.3650736432300042e-05 -0.05286965950215318 0
-2.4678871523655622e-05 -0.054199342549364322 0
-2.5664476020961981e-05 -0.055556087684441771 0
-2.6588170463290598e-05 -0.056962119557878194 0
-2.7308023966519341e-05 -0.058438401670730777 0
-2.8038682596042293e-05 -0.060006055470377025 0
-2.8825094765156218e-05 -0.061685999512327706 0
-2.9423103002230747e-05 -0.063497681143210055 0
-3.0110672027201246e-05 -0.065460503594140351 0
-3.1120010730232594e-05 -0.067597009173951145 0
-3.198284068731833e-05 -0.069941280217493587 0
-3.2796270835734837e-05 -0.072535276900486584 0
-3.3412878890061157e-05 -0.075419826314930313 0
-3.4268593560525408e-05 -0.07864173250767463 0
-3.497584241247895e-05 -0.08225487284828531 0
-3.5731570649291357e-05 -0.086345417415768413 0
-3.6476335361082635e-05 -0.091016404189284777 0
-3.7285875996417704e-05 -0.09639704193191255 0
-3.8074933880536042e-05 -0.10265168857274688 0
-3.8666612271223785e-05 -0.11004960034207036 0
-3.9233098911262273e-05 -0.11922680220981602 0
-4.0139009892098889e-05 -0.13185563771158745 0
-4.1241626619949018e-05 -0.15582716365634114 0
-8.6940358827884958e-06 -0.04994068391888383 0
-9.3576062720289777e-06 -0.051596913782363231 0
-9.890144009701513e-06 -0.052920347676402316 0
-1.0448893354940586e-05 -0.054250870321817364 0
-1.0897836822778643e-05 -0.055611896021445964 0
-1.1274003443608258e-05 -0.057025626229201647 0
-1.1710926836091055e-05 -0.058512920551701791 0
-1.2329284950829307e-05 -0.060095478993278099 0
-1.2939929204264971e-05 -0.061794742794037509 0
-1.3145883093277544e-05 -0.063629579646057394 0
-1.3615030379922086e-05 -0.065620215967063952 0
-1.4043965989330509e-05 -0.067790217406879114 0
-1.4507520241665406e-05 -0.070175163934792298 0
-1.4350288546301725e-05 -0.072817078109172165 0
-1.5065135909910685e-05 -0.075759097028617245 0
-1.5507688068398925e-05 -0.079053436623065673 0
-1.6205532721910379e-05 -0.082756494536965 0
-1.6443558030368897e-05 -0.086940673576097555 0
-1.7246162903765249e-05 -0.091708489701491439 0
-1.7436128284537477e-05 -0.097187027218418418 0
-1.8017018078550169e-05 -0.10352740844077953 0
-1.9052796937812007e-05 -0.11101341287784698 0
-1.9627167324050198e-05 -0.12028076267908636 0
-2.0317760780688591e-05 -0.13296222946852548 0
-2.1151032139532763e-05 -0.15690163948573102 0
-3.1169918599985191e-06 -0.049909486985740263 0
-3.4169256982674647e-06 -0.051567602158248467 0
-4.012182217762032e-06 -0.052893299953275054 0
-4.1904017249207676e-06 -0.054227753344346777 0
-4.1040056262180312e-06 -0.055593855025434687 0
-4.5763560126055752e-06 -0.057013174711465726 0
-4.1072873757929839e-06 -0.058507564933436416 0
-4.5582964385224966e-06 -0.060098301051656262 0
-4.4111453100163412e-06 -0.061807168429765413 0
-5.3115329107644193e-06 -0.063653639532727763 0
-5.1448181992965876e-06 -0.065657666548811194 0
-4.9403767486709053e-06 -0.067842478825192787 0
-5.7005060882179026e-06 -0.070245070710511351 0
-6.127054565199309e-06 -0.072909010790502618 0
-6.0720752115498038e-06 -0.075876566272480239 0
-6.2697295238035496e-06 -0.079199588375477983 0
-6.3573900587648187e-06 -0.082937973225566813 0
-6.532073413640454e-06 -0.087157153952975339 0
-6.676699392128928e-06 -0.091963199728305328 0
-6.9331138491078132e-06 -0.097479025661704854 0
-7.8816192850778961e-06 -0.10385710934846551 0
-8.2126113376357049e-06 -0.11138159922886966 0
-8.5536015091105708e-06 -0.12067854506160118 0
-9.0306386029790215e-06 -0.13336516056169725 0
-9.5492452298214564e-06 -0.15723870627931194 0
-1.0156992106064936e-06 -0.049873174174873781 0
-1.107472639806349e-06 -0.051532639590000061 0
-1.1465712492105493e-06 -0.052860250019002651 0
-1.0899027370617424e-06 -0.054196209821641209 0
-1.1504479659057415e-06 -0.055564026259010753 0
-1.4877116724232191e-06 -0.056985989466188748 0
-1.5813790493597069e-06 -0.058482825859293139 0
-1.4833773482688991e-06 -0.060076506426536114 0
-2.0582397058108316e-06 -0.061788420763431565 0
-2.2334718676214003e-06 -0.0636387098162908 0
-1.5263623936085993e-06 -0.065646903901407413 0
-2.3025636687704376e-06 -0.067836199655407922 0
-1.8137438621121842e-06 -0.070244399435417326 0
-1.8474689998566353e-06 -0.072913746384690614 0
-1.7605947480426283e-06 -0.075888925867772211 0
-1.7402631137541738e-06 -0.079218472736144907 0
-1.852090055206101e-06 -0.082964911474615849 0
-1.9671846849949621e-06 -0.087192303384038564 0
-2.2183569332974769e-06 -0.092006062066068942 0
-2.4688825998792912e-06 -0.097528652104905328 0
-2.6706060525622306e-06 -0.10391107954642353 0
-3.0367896335013548e-06 -0.11143807898344527 0
-3.3315932363363754e-06 -0.12072923795591502 0
-3.7043361470885922e-06 -0.13339165812800008 0
-3.9660892989660859e-06 -0.15719303912671018 0
2.5848081640280971e-07 -0.04984410206375018 0
2.5753922615500921e-07 -0.05150364038737551 0
2.9737314368660802e-07 -0.052831002688732573 0
3.9289038099332154e-07 -0.054167428309776937 0
6.577226107810542e-07 -0.055535455065103816 0
8.4497942061014192e-07 -0.05695751503221258 0
9.5157775105891251e-07 -0.058454748360729093 0
9.7418463867905371e-07 -0.060048974183907568 0
1.082890988787885e-06 -0.06176150620942096 0
1.3657557108625279e-06 -0.06361203709273465 0
1.2685061282524226e-06 -0.065620662553348461 0
1.1225993422022668e-06 -0.067810942936783969 0
1.5366006266723529e-06 -0.07021974652405176 0
1.635647508708225e-06 -0.072889580353783581 0
1.2187617521684137e-06 -0.075865487925798808 0
1.7967356647748711e-06 -0.079196119286995603 0
1.6649600689089673e-06 -0.082943107921556194 0
1.5716809806075731e-06 -0.087169779805279096 0
1.4359642065243795e-06 -0.091982425552896707 0
1.4010945290715783e-06 -0.097503643452403033 0
1.3439468441671017e-06 -0.10388203418830652 0
1.2551945394029991e-06 -0.11140261125807291 0
1.1447435080277675e-06 -0.1206817585226813 0
9.301969357816869e-07 -0.13332143600993507 0
8.2536147419209688e-07 -0.15707030978214429 0
1.6024058556514347e-06 -0.049826380689256586 0
1.6910991843677328e-06 -0.05148509832639625 0
1.9008282789169627e-06 -0.052813017381247274 0
2.1038145996865835e-06 -0.054149652610508803 0
2.3176599992218592e-06 -0.05551637051282985 0
2.3540133277610422e-06 -0.056937585267919651 0
2.4598941163659087e-06 -0.058435383574479235 0
2.9425631682691606e-06 -0.060028580633292243 0
2.9904728870411192e-06 -0.061740641405903893 0
2.9953885300021843e-06 -0.063590328941215857 0
3.0502457398945511e-06 -0.065598791283686259 0
3.1855549235099643e-06 -0.067788870216300104 0
3.3428587911812514e-06 -0.07019784539619725 0
3.3209851537432933e-06 -0.072867579649108852 0
3.707460849663161e-06 -0.075842338319013547 0
3.7132902112800285e-06 -0.079172426219240671 0
3.9880886665472919e-06 -0.082917556262942629 0
3.8090848231309718e-06 -0.087143579236188581 0
3.884107426612356e-06 -0.091954962194162604 0
4.0801177410956893e-06 -0.097473344310449822 0
4.2382856687715062e-06 -0.10384835364591032 0
4.3060222912550624e-06 -0.11136374083226891 0
4.3491922031392298e-06 -0.12063454416855646 0
4.4485777580690146e-06 -0.13326154036932111 0
4.5550574716969364e-06 -0.15698223856845528 0
2.5932938448601543e-06 -0.04982058015756171 0
2.7300928815528417e-06 -0.051479194955939313 0
3.1931676629128775e-06 -0.052806038536082005 0
3.3074073426776844e-06 -0.054141748778587288 0
3.5966296558869838e-06 -0.055509072982850835 0
3.8561676672730734e-06 -0.056930721966694187 0
3.8810916815191785e-06 -0.058427460294361196 0
4.0511748921825909e-06 -0.0600209601966998 0
4.4213842701745934e-06 -0.061733459367447348 0
3.9874551630194763e-06 -0.06358300201259301 0
4.4391711460381351e-06 -0.065591171226021067 0
3.5619853246507513e-06 -0.067781080505060917 0
3.6224844701030456e-06 -0.070189252537740082 0
3.9150230535530501e-06 -0.072858479268196968 0
3.9534093889136621e-06 -0.075832773196638406 0
4.921206803918535e-06 -0.079163067258941053 0
5.1457890982051607e-06 -0.082907927994304201 0
5.4583916534304776e-06 -0.087133331421943461 0
5.6515499675121048e-06 -0.091943984574836379 0
5.7959455261273235e-06 -0.097461444541492304 0
5.7271653082438489e-06 -0.1038350483010988 0
5.8729734282656669e-06 -0.11134856686329296 0
6.1952695744872851e-06 -0.12061728895568817 0
6.4476208852533841e-06 -0.13323929117695124 0
6.5872375582980314e-06 -0.15695127387475041 0
2.7325113872344871e-06 -0.049826733795491046 0
2.9694651780960237e-06 -0.051485186746610706 0
3.3855591365403187e-06 -0.05281189967249908 0
3.5642302878096885e-06 -0.054148020653293175 0
3.8370383538817693e-06 -0.055515854912838954 0
3.9335428890960838e-06 -0.056937334046601305 0
4.0798381480942868e-06 -0.058434498761131139 0
4.3404085119717171e-06 -0.060028259898918454 0
4.5712054457606776e-06 -0.061740703723267835 0
4.6127699838154168e-06 -0.063590924761662893 0
5.0436349004333838e-06 -0.06559910756210241 0
5.3916434430741631e-06 -0.06778851189279686 0
4.728599719944957e-06 -0.070196447375413529 0
4.9538994171758119e-06 -0.072866417595756655 0
5.1007586413292152e-06 -0.075841279466017944 0
5.3948366211279801e-06 -0.079171169975970013 0
5.8414930051535051e-06 -0.082916610526786727 0
5.6408985878754294e-06 -0.087142310960579838 0
6.2720266722577771e-06 -0.091953769260322185 0
6.3360199457931725e-06 -0.097472359757580312 0
6.5445045147453126e-06 -0.10384747967214097 0
6.7785419252533788e-06 -0.11136310230077168 0
6.9538163572918174e-06 -0.12063508482355707 0
7.0640349136393866e-06 -0.13326127578096233 0
7.0337081294113118e-06 -0.15698198447063341 0
3.8070783761482378e-06 -0.049843306744586091 0
4.0133364551334288e-06 -0.051502777991534014 0
4.6466432871519176e-06 -0.052829663903144163 0
4.8784631776655372e-06 -0.054165678272889511 0
5.1974949268098501e-06 -0.055533293311227042 0
5.292398837687697e-06 -0.056955237596365185 0
5.3674431495627647e-06 -0.058452816863683012 0
5.9001563487635124e-06 -0.060048003007871303 0
6.087868947924649e-06 -0.061760258399781998 0
6.4100355517506215e-06 -0.063610801933180541 0
6.8973497716477653e-06 -0.065619173190529526 0
6.4248688344162654e-06 -0.067809605710018053 0
6.3117319321396989e-06 -0.070218903641566716 0
6.5080481895518195e-06 -0.072889160718752927 0
6.3457837047810826e-06 -0.075864830792369553 0
6.3594747212011288e-06 -0.079195654745410321 0
6.5018650742355934e-06 -0.082942051577443276 0
6.4609546598421291e-06 -0.087169012236136934 0
6.258408671222972e-06 -0.091981636606740608 0
6.3577826629919403e-06 -0.097502639080158299 0
6.5474599145646377e-06 -0.10388152282610889 0
6.7640250168571093e-06 -0.11140214504504196 0
6.7772068502598809e-06 -0.12068212222306711 0
6.8784353198867274e-06 -0.1333217695957068 0
7.0903964107427312e-06 -0.15707109374450393 0
3.6152497217740327e-06 -0.049871813044997444 0
3.9834658875041266e-06 -0.051531257673339437 0
4.2093154070790385e-06 -0.052858983056687542 0
4.4785795877480253e-06 -0.054195240713761465 0
4.8953346772131599e-06 -0.055562873280177276 0
4.9924624893001002e-06 -0.056984603897860947 0
5.2481484161085253e-06 -0.058481311577121178 0
5.4805383135551207e-06 -0.060075763682647366 0
5.740669663559758e-06 -0.06178745151574027 0
5.8579012902570691e-06 -0.063637423650179881 0
6.5089564657289741e-06 -0.065645536317773964 0
6.3355731040098542e-06 -0.067835229437113606 0
7.7537067202334785e-06 -0.070244350262336788 0
8.0277636462002175e-06 -0.07291400878464023 0
7.7540009630129223e-06 -0.075888903565663454 0
7.9378414221034763e-06 -0.079218818821580342 0
8.0404813930251239e-06 -0.08296468672804147 0
8.1116101730580852e-06 -0.087192403245128711 0
8.346082174188682e-06 -0.092006366310555407 0
8.5603314868889934e-06 -0.097529174983254155 0
8.9070416759412384e-06 -0.1039119895367706 0
9.0812765640322888e-06 -0.11143895996400341 0
9.0817617804614346e-06 -0.12072990883075643 0
9.1201777332549857e-06 -0.13339199701320115 0
9.3200909555491588e-06 -0.15719306593464205 0
4.9682878145152971e-06 -0.049909546547730034 0
5.481261822794484e-06 -0.051567600307623987 0
6.0742738694552391e-06 -0.052894268900786412 0
6.4187807146912911e-06 -0.054228436389339239 0
6.7661696613485351e-06 -0.055594009096341983 0
7.087346554124873e-06 -0.057014099154972978 0
7.5464342425615733e-06 -0.058507490789529375 0
8.1468503444951214e-06 -0.06009920296035292 0
8.3122725620673165e-06 -0.061807721152146146 0
8.7579571399744194e-06 -0.063654443622369009 0
8.8734254824234685e-06 -0.065658075411580016 0
9.3384982332833515e-06 -0.067843407433501646 0
1.281637492579844e-05 -0.070245501009329081 0
1.2960265984727212e-05 -0.072909761596411174 0
1.3040481669489944e-05 -0.075877827063845937 0
1.35063340453861e-05 -0.07920202144121373 0
1.350217599497091e-05 -0.082940352851195193 0
1.3358634791832749e-05 -0.08716050626486975 0
1.4213023209691194e-05 -0.091966519951404715 0
1.4262481700048703e-05 -0.097482500884512435 0
1.3797913180425413e-05 -0.1038588490980064 0
1.3867727423570528e-05 -0.11138098247480593 0
1.4405604629001395e-05 -0.12067831509341341 0
1.4683121603359398e-05 -0.1333644390124136 0
1.5241454198306199e-05 -0.1572382757148835 0
9.992406672123316e-06 -0.04994106428105171 0
1.0895082775102407e-05 -0.051597097545982351 0
1.1658619702098824e-05 -0.052920140673762113 0
1.2268303087509941e-05 -0.054252023833737652 0
1.3100890613784159e-05 -0.055611803888085898 0
1.338776109111392e-05 -0.057028266762566726 0
1.4554665668519856e-05 -0.05851385566950959 0
1.518801640092604e-05 -0.060095280763413812 0
1.5870792105218743e-05 -0.061794346924754391 0
1.6294584576046607e-05 -0.063629242431130106 0
1.6941944027442182e-05 -0.065620120123214415 0
1.7578123119702191e-05 -0.067789962451101318 0
1.759243245401884e-05 -0.070174974534240278 0
1.7684514579090471e-05 -0.072817442106958077 0
1.8318408394371929e-05 -0.075760976870592439 0
1.8773146151741518e-05 -0.079055953848633259 0
1.9421780832616883e-05 -0.08275955209259242 0
1.9988490343560439e-05 -0.086942275595814883 0
2.043766953754675e-05 -0.091709909280210403 0
2.1263828573354486e-05 -0.097187850117165658 0
2.1895770367342241e-05 -0.10352872269571449 0
2.284731147047301e-05 -0.11101432800544529 0
2.3739127657439426e-05 -0.12028046196492831 0
2.4769780388487988e-05 -0.13296351521542205 0
2.5987308665125442e-05 -0.15690252785349892 0
2.1694147659964021e-05 -0.049884582064603535 0
2.3297488553318671e-05 -0.051546118561097448 0
2.4492781144095397e-05 -0.052869730218872112 0
2.5504847716535391e-05 -0.054200102821923432 0
2.6608874059099265e-05 -0.055556532926339691 0
2.7479934976801739e-05 -0.056962892920353017 0
2.8309229741985645e-05 -0.05843747395275848 0
2.9044941307090385e-05 -0.060005305907831798 0
2.9892026419443931e-05 -0.061684789861194481 0
3.0616659160292727e-05 -0.063496722046482171 0
3.1362446672964968e-05 -0.065459938346884572 0
3.0769744069762797e-05 -0.06759689462950004 0
3.182021900233038e-05 -0.069941361403772703 0
3.2723145826835909e-05 -0.072535136783147589 0
3.3385261183631939e-05 -0.075420095314547256 0
3.4288421706488307e-05 -0.078641861220939052 0
3.5098426936264406e-05 -0.082255429490546872 0
3.5777424997989295e-05 -0.086345998657606837 0
3.6713811260188068e-05 -0.091017299986949282 0
3.7635459675628814e-05 -0.096397867778795165 0
3.8585814785872985e-05 -0.10265250893443251 0
3.9565976083880766e-05 -0.11005044398704954 0
4.0953420809825366e-05 -0.11922587577074947 0
4.2039078183595091e-05 -0.13185518896916154 0
4.327584361033653e-05 -0.1558265612020375 0
3.3494155268334575e-05 -0.049215349273122926 0
3.5610234322802738e-05 -0.050786116336656098 0
3.7248909137258917e-05 -0.052039494880718372 0
3.8598124647352185e-05 -0.053329897270638277 0
3.9286763186728708e-05 -0.054665590622405655 0
4.0908434212743867e-05 -0.056060439728918381 0
4.2109676954541508e-05 -0.057530192234019534 0
4.3327002301569349e-05 -0.059094953027288975 0
4.4181599459585753e-05 -0.060772850501642751 0
4.5185428104521561e-05 -0.062581735309051145 0
4.6254988398619042e-05 -0.064540166249918887 0
4.7258295142572356e-05 -0.066669347100291682 0
4.8103436069839699e-05 -0.069003954251712449 0
4.9019785243815066e-05 -0.071585853590591109 0
4.9919344263822366e-05 -0.074457202435248657 0
5.08743781597169e-05 -0.077666115918124404 0
5.189265023793876e-05 -0.081271315064035621 0
5.2953264408580133e-05 -0.085372343803433434 0
5.4160426060494424e-05 -0.090082258819518618 0
5.5438015396642261e-05 -0.095541987607950546 0
5.6850061751255767e-05 -0.10196855076410465 0
5.8402987041812928e-05 -0.10962515328295189 0
6.0108598167518557e-05 -0.11912953866898715 0
6.2163627188496743e-05 -0.13224921903053213 0
6.5176388561454822e-05 -0.15778934527308436 0
-0 -0 0
-0 -0 0
-0 -0 0
-0 -0 0
-0 -0 0
-0 -0 0
3.4272307989553687e-05 0.050076408314171719 0
3.9191255976015867e-05 0.055445802304932394 0
4.6035773349298847e-05 0.06757568598914486 0
-0 -0 0
-0 -0 0
-0 -0 0
3.577145335695533e-05 0.052249312577296265 0
3.9143081234174323e-05 0.057114441034826928 0
4.5025377880137266e-05 0.068834247832436468 0
-0 -0 0
-0 -0 0
-0 -0 0
2.8826312494381257e-05 0.052646495015748966 0
3.2150286827611442e-05 0.057477460518987292 0
3.7293770997617722e-05 0.069132686133484514 0
-0 -0 0
-0 -0 0
-0 -0 0
1.639357706382197e-05 0.052952634082811909 0
1.8677913283801315e-05 0.057729914944843724 0
2.2063526303914264e-05 0.069378753960103165 0
-0 -0 0
-0 -0 0
-0 -0 0
6.8792356100209305e-06 0.052959258149623045 0
8.1634417607244685e-06 0.057758385071881503 0
9.9857250109049546e-06 0.069449719505032745 0
-0 -0 0
-0 -0 0
-0 -0 0
2.5595989776270284e-06 0.052922570037360478 0
3.1866148181841732e-06 0.057726466747791562 0
4.0724681850533229e-06 0.069433636701052126 0
-0 -0 0
-0 -0 0
-0 -0 0
4.3983358932716688e-07 0.052886737141614633 0
5.7814341809562406e-07 0.057690386048745067 0
7.4526546941646321e-07 0.069395894713949371 0
-0 -0 0
-0 -0 0
-0 -0 0
-1.1207595669270721e-06 0.052860628664922152 0
-1.3837423368116706e-06 0.057662225752414351 0
-1.8078056184074615e-06 0.06936164951672022 0
-0 -0 0
-0 -0 0
-0 -0 0
-2.3883432654789829e-06 0.052847265606626656 0
-2.8496968617517417e-06 0.057647240266724728 0
-3.5854981021547393e-06 0.069342443095876907 0
-0 -0 0
-0 -0 0
-0 -0 0
-3.1363260533911906e-06 0.052847170519399994 0
-3.7380182737862504e-06 0.057646968725160369 0
-4.6106036041567082e-06 0.069342107153254881 0
-0 -0 0
-0 -0 0
-0 -0 0
-3.8850932914162529e-06 0.052859923156314798 0
-4.5328410377599712e-06 0.057661259900499633 0
-5.3750772084573884e-06 0.069360650116670405 0
-0 -0 0
-0 -0 0
-0 -0 0
-4.4642334609738171e-06 0.052885702635203279 0
-5.1927869869532277e-06 0.057689265652606722 0
-6.2651245234590263e-06 0.06939490843707749 0
-0 -0 0
-0 -0 0
-0 -0 0
-5.4431125547858408e-06 0.052922216357359345 0
-6.5583384484182302e-06 0.057726215137748421 0
-8.4744739307363241e-06 0.069433627584214577 0
-0 -0 0
-0 -0 0
-0 -0 0
-9.0604902356576814e-06 0.052959374590240298 0
-1.0846299505536887e-05 0.057758700111873382 0
-1.3607062374952192e-05 0.069450165376430242 0
-0 -0 0
-0 -0 0
-0 -0 0
-1.776677539550779e-05 0.052952534461589915 0
-2.032023604278373e-05 0.057730044226734174 0
-2.4044196840801907e-05 0.069378866047022938 0
-0 -0 0
-0 -0 0
-0 -0 0
-2.9249134185954127e-05 0.052646268582892473 0
-3.257466901820057e-05 0.057477448727062404 0
-3.7703769513552259e-05 0.069132598377923529 0
-0 -0 0
-0 -0 0
-0 -0 0
-3.5628408906959608e-05 0.052249051238616617 0
-3.8991753552575401e-05 0.057114188274585899 0
-4.484368094933833e-05 0.068833979283632385 0
-0 -0 0
-0 -0 0
-0 -0 0
-3.4141137214734994e-05 0.050075919177298457 0
-3.8954179645968261e-05 0.055445171687567824 0
-4.5768112671379686e-05 0.067575080730135018 0
-0 -0 0
-0 -0 0
-0 -0 0
-0 -0 0
-0 -0 0
-0 -0 0
-0 -0 0
-0 -0 0
-0 -0 0
-0 -0 0
-0 -0 0
-0 -0 0
-0 -0 0
-0 -0 0
-0 -0 0
-0 -0 0
-0 -0 0
-0 -0 0
-0 -0 0
-0 -0 0
-0 -0 0
-0 -0 0
-0 -0 0
-0 -0 0
-0 -0 0
-0 -0 0
-0 -0 0
-0 -0 0
-0 -0 0
-0 -0 0
-0 -0 0
-0 -0 0
-0 -0 0
-0 -0 0
-0 -0 0
-0 -0 0
-0 -0 0
-0 -0 0
-0 -0 0
-0 -0 0
-0 -0 0
-0 -0 0
-0 -0 0
-0 -0 0
-0 -0 0
-0 -0 0
-0 -0 0
-0 -0 0
-0 -0 0
-0 -0 0
-0 -0 0
-0 -0 0
-0 -0 0
-0 -0 0
-0 -0 0
-0 -0 0
-0 -0 0
-0 -0 0
-0 -0 0
-0 -0 0
-0 -0 0
-0 -0 0
-0 -0 0
-0 -0 0
-0 -0 0
-0 -0 0
-0 -0 0
-0 -0 0
-0 -0 0
-0 -0 0
-0 -0 0
-0 -0 0
-0 -0 0
-0 -0 0
-0 -0 0
-0 -0 0
-0 -0 0
-0 -0 0
-0 -0 0
-0 -0 0
-0 -0 0
-0 -0 0
-0 -0 0
-0 -0 0
-0 -0 0
-0 -0 0
-0 -0 0
-0 -0 0
-0 -0 0
-0 -0 0
-0 -0 0
-0 -0 0
-0 -0 0
-0 -0 0
-0 -0 0
-0 -0 0
-0 -0 0
-0 -0 0
-0 -0 0
-0 -0 0
-0 -0 0
-0 -0 0
-0 -0 0
-0 -0 0
-0 -0 0
-0 -0 0
-0 -0 0
-0 -0 0
-0 -0 0
-0 -0 0
-0 -0 0
-0 -0 0
-0 -0 0
-0 -0 0
-0 -0 0
-0 -0 0
-0 -0 0
-0 -0 0
-0 -0 0
-0 -0 0
-0 -0 0
-0 -0 0
-0 -0 0
-0 -0 0
-0 -0 0
-0 -0 0
-0 -0 0
-0 -0 0
-0 -0 0
-0 -0 0
-0 -0 0
-0 -0 0
-0 -0 0
-0 -0 0
-0 -0 0
-0 -0 0
-0 -0 0
-0 -0 0
-0 -0 0
-0 -0 0
-0 -0 0
-0 -0 0
-0 -0 0
-0 -0 0
-0 -0 0
-0 -0 0
-0 -0 0
-0 -0 0
-0 -0 0
-0 -0 0
-0 -0 0
-0 -0 0
-0 -0 0
-0 -0 0
-0 -0 0
-0 -0 0
-0 -0 0
-0 -0 0
-0 -0 0
-0 -0 0
-0 -0 0
-0 -0 0
-0 -0 0
-0 -0 0
-0 -0 0
-0 -0 0
-0 -0 0
-0 -0 0
-0 -0 0
-0 -0 0
-0 -0 0
-0 -0 0
-0 -0 0
-0 -0 0
-0 -0 0
-0 -0 0
-0 -0 0
-0 -0 0
-0 -0 0
-0 -0 0
-0 -0 0
-0 -0 0
-0 -0 0
-0 -0 0
-0 -0 0
-0 -0 0
-0 -0 0
-0 -0 0
-0 -0 0
-0 -0 0
-0 -0 0
-0 -0 0
-0 -0 0
-0 -0 0
-0 -0 0
