# vtk DataFile Version 3.0
SPH particles (WCSPH) - legacy PolyData
ASCII
DATASET POLYDATA
POINTS 681 float
0.049988710559955296 0.020799259330811368 0
0.049987218826269636 0.023087513560348282 0
0.049986043581987528 0.024899675998379542 0
0.04998492210024888 0.026704040520568368 0
0.049983903457033192 0.028479805217508317 0
0.049982982793151623 0.03022097575070537 0
0.049982166983753969 0.031930756542606811 0
0.049981274951679512 0.033616055679221456 0
0.049980208953181553 0.03528503512208013 0
0.049978768030699998 0.036946385719753116 0
0.049976560647784211 0.038609029805929479 0
0.049973860125794724 0.040282069650184819 0
0.049972635561493582 0.041974788820405146 0
0.049973732203851033 0.043696908024734707 0
0.049976020143863667 0.045458638475440773 0
0.049978871509142958 0.04727114560356907 0
0.049981781041463003 0.049148144442647826 0
0.049984614915455326 0.051116738869790915 0
0.049987226722567064 0.053200189234824086 0
0.04998947518266722 0.055431093795342438 0
0.049991361871291981 0.057865596710672235 0
0.049992910283782721 0.060560630336842974 0
0.049994192711974909 0.063608887698436853 0
0.049995288582329538 0.067254318442888497 0
0.049997192717171277 0.072284470015537214 0
0.069993827307947565 0.019174788193071363 0
0.069992926145621262 0.021750819613164933 0
0.069992188285481469 0.023825635339828028 0
0.069991513540120676 0.025842638291751253 0
0.069990902936078819 0.027793668850589939 0
0.069990302888648923 0.029682971187355287 0
0.069989706708981567 0.031521394808472755 0
0.069989103936944352 0.033321588385252135 0
0.069988420974739021 0.035095598270848051 0
0.069987440749789187 0.03685498637171173 0
0.06998569007253494 0.038610912387584087 0
0.069982966025009183 0.040374267500805958 0
0.069981258459661327 0.042155861166028909 0
0.069981446415463416 0.043967075278343939 0
0.069982953223056948 0.045820185642053972 0
0.069985081859050335 0.047727741902038399 0
0.069987316575149741 0.049703404386219618 0
0.069989551255110652 0.051773156052161325 0
0.06999148075170504 0.053963663657217387 0
0.069993078442140061 0.056311851949306893 0
0.069994413538399303 0.058871870090503722 0
0.069995492632785636 0.061717114850155429 0
0.0699963463877913 0.064967179701644978 0
0.069997036792383865 0.068899897723656109 0
0.069998203181928814 0.074414669409707049 0
0.089997627201643782 0.019091444728096998 0
0.089997236378617715 0.021673926691852308 0
0.089996966176932994 0.023755231793171728 0
0.089996640142619558 0.025781756883282724 0
0.089996320684095243 0.027744303292048536 0
0.089996055758802859 0.02964644564572546 0
0.089995573335262799 0.03149887978505176 0
0.089995322278819401 0.03331403857011328 0
0.089994980459485882 0.035103957736147093 0
0.0899946093190723 0.036880259294302567 0
0.089994197366698017 0.038654110926491923 0
0.089993426703597168 0.040436544925391574 0
0.089992511898042651 0.042238415458259404 0
0.089992117105337069 0.044071219315072185 0
0.089992605567200984 0.045947736656787821 0
0.089993449548145268 0.047882494733290024 0
0.08999441182531269 0.04989020379362713 0
0.089995321727614055 0.051989008566214967 0
0.089996103530729676 0.05420858749012869 0
0.08999675206160121 0.056586334893277565 0
0.089997298465886236 0.059174989252903369 0
0.089997750225596487 0.062053569084027295 0
0.08999812474126595 0.065344542493497193 0
0.08999844652786386 0.06932279293816869 0
0.089999054369490725 0.074916597955106773 0
0.10999924597369273 0.019107552007272186 0
0.10999905234513703 0.021691222477520943 0
0.10999889444722527 0.023773836459990837 0
0.10999873264320648 0.025802056946838195 0
0.10999858579093502 0.027766657325268583 0
0.10999856727245873 0.029671140221637707 0
0.10999859186187057 0.031526237934110225 0
0.10999850121557862 0.033344301219111187 0
0.10999842021657034 0.035137349913147112 0
0.10999829054657662 0.036917064503840025 0
0.10999807425288642 0.038694677297201177 0
0.10999829126330518 0.040481208786966087 0
0.10999764946784192 0.042287495095030499 0
0.10999711078908203 0.044125125921719306 0
0.10999714437257155 0.046006880109455313 0
0.10999740342742095 0.047947457944107458 0
0.10999769246500424 0.049962698880591787 0
0.1099981075129839 0.05206814807159036 0
0.10999840570121935 0.054294391150522141 0
0.10999865413113949 0.056678677739592405 0
0.10999884255939918 0.059275249274497947 0
0.10999901436689481 0.062163860038554501 0
0.10999915441487854 0.065464707544011361 0
0.10999928678572243 0.069453103317930601 0
0.1099995642338403 0.075069685007432399 0
0.1299998468086325 0.019119902827592683 0
0.12999982263075632 0.021704778852168642 0
0.12999980276682643 0.023788311463675722 0
0.12999979373851669 0.025817407702123745 0
0.1299998469611458 0.027782828007607775 0
0.12999988932465678 0.029688177235612803 0
0.12999992591333936 0.031544210084325584 0
0.12999994980446006 0.033363170570494927 0
0.130000006359414 0.035157207657289642 0
0.13000011437814549 0.036937948198703364 0
0.13000018000126948 0.038716613306665766 0
0.13000003505497509 0.040504284242967412 0
0.12999980236247763 0.04231192596585745 0
0.12999951571806612 0.04415088358680376 0
0.12999930024729903 0.046034170590847023 0
0.12999919674672433 0.047976363723105223 0
0.12999928318490578 0.049993288023752504 0
0.12999939268976457 0.052100508770885526 0
0.12999947943949092 0.054328647731382247 0
0.12999955153629394 0.056714890563336576 0
0.12999961413685318 0.05931389529413017 0
0.12999965937254621 0.062205344005335506 0
0.12999970869259639 0.065508596802758348 0
0.12999975658195573 0.069499088545998344 0
0.12999984327331915 0.075124127741622984 0
0.15000019705874776 0.019125748421839547 0
0.15000022744817298 0.021711244273192338 0
0.15000026576269535 0.023795251530664623 0
0.15000032100471969 0.02582480559949514 0
0.15000049570171134 0.027790655735178003 0
0.15000053770602861 0.029696367747859671 0
0.15000053790176454 0.031552741594044434 0
0.15000056797771152 0.033372092135435932 0
0.15000062062333977 0.035166512668990575 0
0.15000067193131944 0.036947640736544662 0
0.15000075592812184 0.038726742703461513 0
0.15000062972065101 0.04051482423004267 0
0.15000059784161299 0.042322975490266694 0
0.15000041460381186 0.044162487058898463 0
0.15000018055398814 0.046046301648101938 0
0.15000009549380475 0.047989036782822368 0
0.15000004015164964 0.050006563515136861 0
0.15000003799018199 0.052114403042982337 0
0.15000005106149264 0.054343229004227653 0
0.15000005979241324 0.056730201003221618 0
0.15000004261279143 0.059329987101066108 0
0.15000004455105229 0.062222202234669455 0
0.15000005803448696 0.06552608617613799 0
0.1500000591898385 0.069516954817526275 0
0.15000004746099663 0.075145585384943037 0
0.17000042706300969 0.019128262378660388 0
0.17000050761105717 0.021714033977530384 0
0.17000055348334803 0.02379823866528941 0
0.17000068965715129 0.025827938445346071 0
0.1700007765510681 0.02779391982424529 0
0.17000091748233281 0.029699814065963445 0
0.17000111902169396 0.031556384343462092 0
0.17000118822163623 0.033375901400181665 0
0.17000122903890971 0.035170458575619665 0
0.17000126191336837 0.036951734588040651 0
0.1700012702833181 0.038731013495503029 0
0.17000117378812479 0.040519315866257941 0
0.17000114638297387 0.042327612224857557 0
0.17000113766213898 0.044167242649663777 0
0.17000072753778331 0.046051255304897336 0
0.17000058236377047 0.047994264037235529 0
0.17000047958887785 0.050012027826365352 0
0.1700004084224285 0.052120102580921882 0
0.17000036709606678 0.054349181768700121 0
0.17000033875847745 0.056736422520315161 0
0.17000028009682217 0.059336491400141057 0
0.17000024658303417 0.062228970538792762 0
0.17000022017590821 0.065533029121135247 0
0.17000020715835179 0.069523896347998659 0
0.17000017704973011 0.075154064056543568 0
0.19000039215985942 0.01912898136572376 0
0.19000043961580068 0.021714788503047564 0
0.19000062512070851 0.023799138514429705 0
0.19000068501578207 0.025828859593162081 0
0.19000079379046111 0.02779485883387758 0
0.1900010110047089 0.029700838297010056 0
0.19000123039744135 0.031557378728509035 0
0.19000123214857412 0.033376845590301893 0
0.19000129575136077 0.035171400159948907 0
0.19000133614372533 0.036952716872650671 0
0.19000122469414726 0.038732015467905515 0
0.19000122101395445 0.040520391872722133 0
0.190000905125011 0.042328775167699464 0
0.19000082573461882 0.04416853641955841 0
0.19000077763570669 0.046052610621500276 0
0.19000063221411095 0.047995668009722443 0
0.1900005870452966 0.050013509966061034 0
0.19000058625957411 0.052121661973547749 0
0.19000051662988623 0.054350815053355581 0
0.19000055994128578 0.056738146314997774 0
0.19000048575201828 0.059338292430365147 0
0.19000040476801558 0.062230848270479443 0
0.19000032516271159 0.065534941465888175 0
0.19000028958828055 0.069525794624101175 0
0.1900002406124548 0.075156381261576588 0
0.210000440806317 0.019128347563110219 0
0.21000053333615298 0.021714088044080492 0
0.21000060726004821 0.023798290146449397 0
0.21000067698319691 0.025828017888217931 0
0.21000078791276364 0.027793996992567696 0
0.21000082321640867 0.029699895925637293 0
0.21000092493321496 0.0315564500957543 0
0.21000096714108535 0.033375952925060522 0
0.21000103947672438 0.035170519774773527 0
0.2100010810190516 0.036951819368726553 0
0.2100010704744745 0.038731084663713389 0
0.21000103074697518 0.040519368889359648 0
0.21000085493929643 0.042327639663162137 0
0.2100007072445694 0.044167308896362202 0
0.21000069522463463 0.046051331401511374 0
0.210000606485201 0.047994313415085574 0
0.21000058877477515 0.050012101154213083 0
0.21000062496551944 0.052120180772425528 0
0.21000047234621624 0.054349273735008218 0
0.21000043846144395 0.056736547001906078 0
0.21000040822748944 0.059336612110390922 0
0.21000039660806749 0.062229115558698929 0
0.21000034858553879 0.065533173679220014 0
0.21000031543839223 0.069524046407350423 0
0.2100002585655617 0.075154178409373953 0
0.2300005390514207 0.019125850247027461 0
0.23000063124153469 0.021711384669905718 0
0.23000073576543822 0.023795428127779711 0
0.23000082669646357 0.02582493692307801 0
0.2300009622244053 0.027790812789078388 0
0.23000105858019862 0.02969653901253266 0
0.23000115713816735 0.031552932493198418 0
0.23000122127414943 0.033372276814829967 0
0.23000136617536468 0.035166704015434376 0
0.23000146976824243 0.036947811310392209 0
0.23000149833869687 0.038726898734921113 0
0.23000129592368659 0.040515030402267178 0
0.23000111558630365 0.042323146783201496 0
0.23000102432270075 0.044162610600875722 0
0.23000101235972412 0.046046387665436096 0
0.23000094519202219 0.047989165522838481 0
0.23000084754077885 0.05000670928426857 0
0.23000074963569078 0.052114568895795473 0
0.23000069752179503 0.054343419290748873 0
0.23000062100212212 0.05673041937734024 0
0.23000055987598436 0.059330196131907452 0
0.23000050388165771 0.06222242545942059 0
0.23000044681314166 0.065526307740352382 0
0.2300003997057645 0.069517152896237805 0
0.23000028839580119 0.075145773819748657 0
0.2500007365503199 0.019119932435981254 0
0.25000086137395305 0.021704818216775088 0
0.25000095261647987 0.023788404219665278 0
0.25000109477875293 0.025817550451268028 0
0.25000121446380963 0.027782980855823293 0
0.25000132997268071 0.029688339965596489 0
0.2500013860121359 0.031544395541759709 0
0.25000154969533567 0.033363385447090756 0
0.2500016514073079 0.035157436798729694 0
0.25000177723459821 0.036938145845487054 0
0.25000185842748612 0.038716828579572239 0
0.25000179110495574 0.040504502944733317 0
0.25000168780132298 0.042312187334525124 0
0.25000185251127188 0.044151107535336999 0
0.25000173233050316 0.046034390814451952 0
0.2500016530378269 0.047976619123919463 0
0.25000148339794265 0.049993566065107041 0
0.25000127745851475 0.052100774447705847 0
0.25000111903790351 0.054328895284958573 0
0.25000099429691042 0.05671513734952937 0
0.25000088344479882 0.059314137768387183 0
0.25000077272548643 0.062205570722160791 0
0.2500006758533399 0.065508821181461216 0
0.25000058851590273 0.069499295950170417 0
0.25000040183159938 0.075124387128568532 0
0.2700011843211042 0.019107593576472803 0
0.27000139888009878 0.021691274413662955 0
0.27000155674590476 0.023773897654150115 0
0.2700017279572729 0.025802141113849437 0
0.27000202816190316 0.027766786856464287 0
0.27000220317187534 0.029671298842572528 0
0.27000237709205555 0.031526498975659477 0
0.27000258173630504 0.033344569438604539 0
0.27000279792546272 0.035137639816532965 0
0.27000301396626281 0.036917362208649093 0
0.27000324183631391 0.038694942201332932 0
0.27000334559875944 0.040481429732754516 0
0.2700039180662685 0.042287747640598755 0
0.27000387217303912 0.044125323984920597 0
0.27000370083285835 0.046007074701609918 0
0.27000335882146687 0.047947691742914432 0
0.27000292052664421 0.049962954343387822 0
0.27000247761484009 0.052068410985516782 0
0.27000212779809446 0.054294613022769743 0
0.27000184410171951 0.056678895187260422 0
0.27000157396849817 0.059275510566514936 0
0.27000134503976864 0.062164169374446049 0
0.27000116080637415 0.065465025643879016 0
0.27000099525477184 0.069453433133776887 0
0.27000065516302951 0.075070052272909762 0
0.29000265412022563 0.019091570357353486 0
0.29000307869626646 0.021674033420213755 0
0.29000340786901574 0.02375535568411961 0
0.2900037399994348 0.025781903883626996 0
0.29000407547844492 0.027744434722059789 0
0.29000444124208385 0.029646593305805182 0
0.29000481755607188 0.031499172031917301 0
0.29000524774933173 0.033314379847650739 0
0.29000571740345599 0.035104316385654741 0
0.29000624887940629 0.036880603567470693 0
0.2900068431601302 0.038654466639804742 0
0.2900074840468107 0.040436843753617793 0
0.29000812603920051 0.042238694848364802 0
0.29000830275619438 0.044071460970943534 0
0.29000783431610644 0.045947982494075661 0
0.29000703212950163 0.047882748532361817 0
0.29000605089833492 0.049890511690827838 0
0.29000511183261662 0.051989341717793576 0
0.29000426428973047 0.054208906637375341 0
0.29000357223640255 0.056586644143793705 0
0.29000299683814945 0.059175307112262987 0
0.29000252839091778 0.062053930685007676 0
0.29000214525075435 0.065344914155478939 0
0.2900017999899161 0.06932316920742404 0
0.29000114480642719 0.074916998445063568 0
0.31000639774473554 0.019174991544305884 0
0.31000732586621216 0.021751047434357899 0
0.31000801343721895 0.023825840360160465 0
0.31000866577918335 0.02584291030853374 0
0.31000930322562131 0.02779394347920619 0
0.31000993918652775 0.02968318838791377 0
0.31001057368090151 0.031521719890946535 0
0.31001119287250445 0.033321936469920675 0
0.31001193536283161 0.035095919706854183 0
0.31001291786101087 0.036855274308798036 0
0.31001475617525104 0.038611146500779209 0
0.31001743895252432 0.040374492477405939 0
0.31001896716267263 0.04215611636397739 0
0.31001859278496574 0.043967328899621037 0
0.31001716768895893 0.045820425610101433 0
0.31001516487839381 0.047727990859614544 0
0.31001292214272452 0.049703679678271939 0
0.310010707617557 0.051773467853044916 0
0.3100087561398272 0.053964023698508341 0
0.31000710819483063 0.056312208104155319 0
0.31000575908233124 0.05887223898477701 0
0.3100046774324004 0.0617174753546074 0
0.3100038148786679 0.064967530416873309 0
0.3100030958956686 0.068900253970580458 0
0.31000189461504557 0.074415033078431281 0
0.33001096945250008 0.020799622753847922 0
0.33001239873335425 0.023087865460245414 0
0.33001351872161255 0.02490000291750261 0
0.33001457565888315 0.026704337517753175 0
0.33001551486691966 0.028480074801941098 0
0.33001637181007698 0.030221208211306756 0
0.33001718391218887 0.031930965708093617 0
0.33001803858332157 0.03361623105216454 0
0.33001895294384387 0.035285165049858139 0
0.33002018280446316 0.036946475225477282 0
0.33002226563254911 0.038609090164360114 0
0.33002494081639994 0.040282119326134562 0
0.33002608088692248 0.041974826637902439 0
0.33002495428148598 0.043696911799954351 0
0.33002279062946333 0.045458638008423979 0
0.33002009358560097 0.04727113870601677 0
0.33001720625755637 0.049148139338769888 0
0.33001440776189717 0.051116719469970387 0
0.33001191757870629 0.05320017914664027 0
0.33000978411208459 0.055431083475692554 0
0.33000802320288769 0.057865564839185708 0
0.33000658560002355 0.060560573781024904 0
0.33000541581511172 0.063608811475925231 0
0.33000446112807402 0.067254244840496968 0
0.33000273519993323 0.072284458597936765 0
0 0 0
0 0.020000000000000004 0
0 0.040000000000000001 0
0 0.54999999999999993 0
0 0.56000000000000005 0
0 0.58000000000000007 0
0.02 0 0
0.02 0.020000000000000004 0
0.02 0.040000000000000001 0
0.02 0.54999999999999993 0
0.02 0.56000000000000005 0
0.02 0.58000000000000007 0
0.040000000000000001 0 0
0.040000000000000001 0.020000000000000004 0
0.040000000000000001 0.040000000000000001 0
0.040000000000000001 0.54999999999999993 0
0.040000000000000001 0.56000000000000005 0
0.040000000000000001 0.58000000000000007 0
0.059999999999999998 0 0
0.059999999999999998 0.020000000000000004 0
0.059999999999999998 0.040000000000000001 0
0.059999999999999998 0.54999999999999993 0
0.059999999999999998 0.56000000000000005 0
0.059999999999999998 0.58000000000000007 0
0.080000000000000002 0 0
0.080000000000000002 0.020000000000000004 0
0.080000000000000002 0.040000000000000001 0
0.080000000000000002 0.54999999999999993 0
0.080000000000000002 0.56000000000000005 0
0.080000000000000002 0.58000000000000007 0
0.10000000000000001 0 0
0.10000000000000001 0.020000000000000004 0
0.10000000000000001 0.040000000000000001 0
0.10000000000000001 0.54999999999999993 0
0.10000000000000001 0.56000000000000005 0
0.10000000000000001 0.58000000000000007 0
0.12 0 0
0.12 0.020000000000000004 0
0.12 0.040000000000000001 0
0.12 0.54999999999999993 0
0.12 0.56000000000000005 0
0.12 0.58000000000000007 0
0.14000000000000001 0 0
0.14000000000000001 0.020000000000000004 0
0.14000000000000001 0.040000000000000001 0
0.14000000000000001 0.54999999999999993 0
0.14000000000000001 0.56000000000000005 0
0.14000000000000001 0.58000000000000007 0
0.16 0 0
0.16 0.020000000000000004 0
0.16 0.040000000000000001 0
0.16 0.54999999999999993 0
0.16 0.56000000000000005 0
0.16 0.58000000000000007 0
0.17999999999999999 0 0
0.17999999999999999 0.020000000000000004 0
0.17999999999999999 0.040000000000000001 0
0.17999999999999999 0.54999999999999993 0
0.17999999999999999 0.56000000000000005 0
0.17999999999999999 0.58000000000000007 0
0.20000000000000001 0 0
0.20000000000000001 0.020000000000000004 0
0.20000000000000001 0.040000000000000001 0
0.20000000000000001 0.54999999999999993 0
0.20000000000000001 0.56000000000000005 0
0.20000000000000001 0.58000000000000007 0
0.22 0 0
0.22 0.020000000000000004 0
0.22 0.040000000000000001 0
0.22 0.54999999999999993 0
0.22 0.56000000000000005 0
0.22 0.58000000000000007 0
0.23999999999999999 0 0
0.23999999999999999 0.020000000000000004 0
0.23999999999999999 0.040000000000000001 0
0.23999999999999999 0.54999999999999993 0
0.23999999999999999 0.56000000000000005 0
0.23999999999999999 0.58000000000000007 0
0.26000000000000001 0 0
0.26000000000000001 0.020000000000000004 0
0.26000000000000001 0.040000000000000001 0
0.26000000000000001 0.54999999999999993 0
0.26000000000000001 0.56000000000000005 0
0.26000000000000001 0.58000000000000007 0
0.28000000000000003 0 0
0.28000000000000003 0.020000000000000004 0
0.28000000000000003 0.040000000000000001 0
0.28000000000000003 0.54999999999999993 0
0.28000000000000003 0.56000000000000005 0
0.28000000000000003 0.58000000000000007 0
0.29999999999999999 0 0
0.29999999999999999 0.020000000000000004 0
0.29999999999999999 0.040000000000000001 0
0.29999999999999999 0.54999999999999993 0
0.29999999999999999 0.56000000000000005 0
0.29999999999999999 0.58000000000000007 0
0.32000000000000001 0 0
0.32000000000000001 0.020000000000000004 0
0.32000000000000001 0.040000000000000001 0
0.32000000000000001 0.54999999999999993 0
0.32000000000000001 0.56000000000000005 0
0.32000000000000001 0.58000000000000007 0
0.34000000000000002 0 0
0.34000000000000002 0.020000000000000004 0
0.34000000000000002 0.040000000000000001 0
0.34000000000000002 0.54999999999999993 0
0.34000000000000002 0.56000000000000005 0
0.34000000000000002 0.58000000000000007 0
0.35999999999999999 0 0
0.35999999999999999 0.020000000000000004 0
0.35999999999999999 0.040000000000000001 0
0.35999999999999999 0.54999999999999993 0
0.35999999999999999 0.56000000000000005 0
0.35999999999999999 0.58000000000000007 0
0.38 0 0
0.38 0.020000000000000004 0
0.38 0.040000000000000001 0
0.38 0.54999999999999993 0
0.38 0.56000000000000005 0
0.38 0.58000000000000007 0
0.40000000000000002 0 0
0.40000000000000002 0.020000000000000004 0
0.40000000000000002 0.040000000000000001 0
0.40000000000000002 0.54999999999999993 0
0.40000000000000002 0.56000000000000005 0
0.40000000000000002 0.58000000000000007 0
0.41999999999999998 0 0
0.41999999999999998 0.020000000000000004 0
0.41999999999999998 0.040000000000000001 0
0.41999999999999998 0.54999999999999993 0
0.41999999999999998 0.56000000000000005 0
0.41999999999999998 0.58000000000000007 0
0.44 0 0
0.44 0.020000000000000004 0
0.44 0.040000000000000001 0
0.44 0.54999999999999993 0
0.44 0.56000000000000005 0
0.44 0.58000000000000007 0
0.46000000000000002 0 0
0.46000000000000002 0.020000000000000004 0
0.46000000000000002 0.040000000000000001 0
0.46000000000000002 0.54999999999999993 0
0.46000000000000002 0.56000000000000005 0
0.46000000000000002 0.58000000000000007 0
0.47999999999999998 0 0
0.47999999999999998 0.020000000000000004 0
0.47999999999999998 0.040000000000000001 0
0.47999999999999998 0.54999999999999993 0
0.47999999999999998 0.56000000000000005 0
0.47999999999999998 0.58000000000000007 0
0.5 0 0
0.5 0.020000000000000004 0
0.5 0.040000000000000001 0
0.5 0.54999999999999993 0
0.5 0.56000000000000005 0
0.5 0.58000000000000007 0
0.52000000000000002 0 0
0.52000000000000002 0.020000000000000004 0
0.52000000000000002 0.040000000000000001 0
0.52000000000000002 0.54999999999999993 0
0.52000000000000002 0.56000000000000005 0
0.52000000000000002 0.58000000000000007 0
0.54000000000000004 0 0
0.54000000000000004 0.020000000000000004 0
0.54000000000000004 0.040000000000000001 0
0.54000000000000004 0.54999999999999993 0
0.54000000000000004 0.56000000000000005 0
0.54000000000000004 0.58000000000000007 0
0.56000000000000005 0 0
0.56000000000000005 0.020000000000000004 0
0.56000000000000005 0.040000000000000001 0
0.56000000000000005 0.54999999999999993 0
0.56000000000000005 0.56000000000000005 0
0.56000000000000005 0.58000000000000007 0
0.57999999999999996 0 0
0.57999999999999996 0.020000000000000004 0
0.57999999999999996 0.040000000000000001 0
0.57999999999999996 0.54999999999999993 0
0.57999999999999996 0.56000000000000005 0
0.57999999999999996 0.58000000000000007 0
0.59999999999999998 0 0
0.59999999999999998 0.020000000000000004 0
0.59999999999999998 0.040000000000000001 0
0.59999999999999998 0.54999999999999993 0
0.59999999999999998 0.56000000000000005 0
0.59999999999999998 0.58000000000000007 0
0.62 0 0
0.62 0.020000000000000004 0
0.62 0.040000000000000001 0
0.62 0.54999999999999993 0
0.62 0.56000000000000005 0
0.62 0.58000000000000007 0
0.64000000000000001 0 0
0.64000000000000001 0.020000000000000004 0
0.64000000000000001 0.040000000000000001 0
0.64000000000000001 0.54999999999999993 0
0.64000000000000001 0.56000000000000005 0
0.64000000000000001 0.58000000000000007 0
0.66000000000000003 0 0
0.66000000000000003 0.020000000000000004 0
0.66000000000000003 0.040000000000000001 0
0.66000000000000003 0.54999999999999993 0
0.66000000000000003 0.56000000000000005 0
0.66000000000000003 0.58000000000000007 0
0.68000000000000005 0 0
0.68000000000000005 0.020000000000000004 0
0.68000000000000005 0.040000000000000001 0
0.68000000000000005 0.54999999999999993 0
0.68000000000000005 0.56000000000000005 0
0.68000000000000005 0.58000000000000007 0
0.70000000000000007 0 0
0.70000000000000007 0.020000000000000004 0
0.70000000000000007 0.040000000000000001 0
0.70000000000000007 0.54999999999999993 0
0.70000000000000007 0.56000000000000005 0
0.70000000000000007 0.58000000000000007 0
0.71999999999999997 0 0
0.71999999999999997 0.020000000000000004 0
0.71999999999999997 0.040000000000000001 0
0.71999999999999997 0.54999999999999993 0
0.71999999999999997 0.56000000000000005 0
0.71999999999999997 0.58000000000000007 0
0.73999999999999999 0 0
0.73999999999999999 0.020000000000000004 0
0.73999999999999999 0.040000000000000001 0
0.73999999999999999 0.54999999999999993 0
0.73999999999999999 0.56000000000000005 0
0.73999999999999999 0.58000000000000007 0
0.76000000000000001 0 0
0.76000000000000001 0.020000000000000004 0
0.76000000000000001 0.040000000000000001 0
0.76000000000000001 0.54999999999999993 0
0.76000000000000001 0.56000000000000005 0
0.76000000000000001 0.58000000000000007 0
0.78000000000000003 0 0
0.78000000000000003 0.020000000000000004 0
0.78000000000000003 0.040000000000000001 0
0.78000000000000003 0.54999999999999993 0
0.78000000000000003 0.56000000000000005 0
0.78000000000000003 0.58000000000000007 0
0.80000000000000004 0 0
0.80000000000000004 0.020000000000000004 0
0.80000000000000004 0.040000000000000001 0
0.80000000000000004 0.54999999999999993 0
0.80000000000000004 0.56000000000000005 0
0.80000000000000004 0.58000000000000007 0
0.82000000000000006 0 0
0.82000000000000006 0.020000000000000004 0
0.82000000000000006 0.040000000000000001 0
0.82000000000000006 0.54999999999999993 0
0.82000000000000006 0.56000000000000005 0
0.82000000000000006 0.58000000000000007 0
0.83999999999999997 0 0
0.83999999999999997 0.020000000000000004 0
0.83999999999999997 0.040000000000000001 0
0.83999999999999997 0.54999999999999993 0
0.83999999999999997 0.56000000000000005 0
0.83999999999999997 0.58000000000000007 0
0.85999999999999999 0 0
0.85999999999999999 0.020000000000000004 0
0.85999999999999999 0.040000000000000001 0
0.85999999999999999 0.54999999999999993 0
0.85999999999999999 0.56000000000000005 0
0.85999999999999999 0.58000000000000007 0
0.88 0 0
0.88 0.020000000000000004 0
0.88 0.040000000000000001 0
0.88 0.54999999999999993 0
0.88 0.56000000000000005 0
0.88 0.58000000000000007 0
0.90000000000000002 0 0
0.90000000000000002 0.020000000000000004 0
0.90000000000000002 0.040000000000000001 0
0.90000000000000002 0.54999999999999993 0
0.90000000000000002 0.56000000000000005 0
0.90000000000000002 0.58000000000000007 0
0.92000000000000004 0 0
0.92000000000000004 0.020000000000000004 0
0.92000000000000004 0.040000000000000001 0
0.92000000000000004 0.54999999999999993 0
0.92000000000000004 0.56000000000000005 0
0.92000000000000004 0.58000000000000007 0
0.94000000000000006 0 0
0.94000000000000006 0.020000000000000004 0
0.94000000000000006 0.040000000000000001 0
0.94000000000000006 0.54999999999999993 0
0.94000000000000006 0.56000000000000005 0
0.94000000000000006 0.58000000000000007 0
0.95999999999999996 0 0
0.95999999999999996 0.020000000000000004 0
0.95999999999999996 0.040000000000000001 0
0.95999999999999996 0.54999999999999993 0
0.95999999999999996 0.56000000000000005 0
0.95999999999999996 0.58000000000000007 0
0.97999999999999998 0 0
0.97999999999999998 0.020000000000000004 0
0.97999999999999998 0.040000000000000001 0
0.97999999999999998 0.54999999999999993 0
0.97999999999999998 0.56000000000000005 0
0.97999999999999998 0.58000000000000007 0
1 0 0
1 0.020000000000000004 0
1 0.040000000000000001 0
1 0.54999999999999993 0
1 0.56000000000000005 0
1 0.58000000000000007 0
VERTICES 681 1362
1 0
1 1
1 2
1 3
1 4
1 5
1 6
1 7
1 8
1 9
1 10
1 11
1 12
1 13
1 14
1 15
1 16
1 17
1 18
1 19
1 20
1 21
1 22
1 23
1 24
1 25
1 26
1 27
1 28
1 29
1 30
1 31
1 32
1 33
1 34
1 35
1 36
1 37
1 38
1 39
1 40
1 41
1 42
1 43
1 44
1 45
1 46
1 47
1 48
1 49
1 50
1 51
1 52
1 53
1 54
1 55
1 56
1 57
1 58
1 59
1 60
1 61
1 62
1 63
1 64
1 65
1 66
1 67
1 68
1 69
1 70
1 71
1 72
1 73
1 74
1 75
1 76
1 77
1 78
1 79
1 80
1 81
1 82
1 83
1 84
1 85
1 86
1 87
1 88
1 89
1 90
1 91
1 92
1 93
1 94
1 95
1 96
1 97
1 98
1 99
1 100
1 101
1 102
1 103
1 104
1 105
1 106
1 107
1 108
1 109
1 110
1 111
1 112
1 113
1 114
1 115
1 116
1 117
1 118
1 119
1 120
1 121
1 122
1 123
1 124
1 125
1 126
1 127
1 128
1 129
1 130
1 131
1 132
1 133
1 134
1 135
1 136
1 137
1 138
1 139
1 140
1 141
1 142
1 143
1 144
1 145
1 146
1 147
1 148
1 149
1 150
1 151
1 152
1 153
1 154
1 155
1 156
1 157
1 158
1 159
1 160
1 161
1 162
1 163
1 164
1 165
1 166
1 167
1 168
1 169
1 170
1 171
1 172
1 173
1 174
1 175
1 176
1 177
1 178
1 179
1 180
1 181
1 182
1 183
1 184
1 185
1 186
1 187
1 188
1 189
1 190
1 191
1 192
1 193
1 194
1 195
1 196
1 197
1 198
1 199
1 200
1 201
1 202
1 203
1 204
1 205
1 206
1 207
1 208
1 209
1 210
1 211
1 212
1 213
1 214
1 215
1 216
1 217
1 218
1 219
1 220
1 221
1 222
1 223
1 224
1 225
1 226
1 227
1 228
1 229
1 230
1 231
1 232
1 233
1 234
1 235
1 236
1 237
1 238
1 239
1 240
1 241
1 242
1 243
1 244
1 245
1 246
1 247
1 248
1 249
1 250
1 251
1 252
1 253
1 254
1 255
1 256
1 257
1 258
1 259
1 260
1 261
1 262
1 263
1 264
1 265
1 266
1 267
1 268
1 269
1 270
1 271
1 272
1 273
1 274
1 275
1 276
1 277
1 278
1 279
1 280
1 281
1 282
1 283
1 284
1 285
1 286
1 287
1 288
1 289
1 290
1 291
1 292
1 293
1 294
1 295
1 296
1 297
1 298
1 299
1 300
1 301
1 302
1 303
1 304
1 305
1 306
1 307
1 308
1 309
1 310
1 311
1 312
1 313
1 314
1 315
1 316
1 317
1 318
1 319
1 320
1 321
1 322
1 323
1 324
1 325
1 326
1 327
1 328
1 329
1 330
1 331
1 332
1 333
1 334
1 335
1 336
1 337
1 338
1 339
1 340
1 341
1 342
1 343
1 344
1 345
1 346
1 347
1 348
1 349
1 350
1 351
1 352
1 353
1 354
1 355
1 356
1 357
1 358
1 359
1 360
1 361
1 362
1 363
1 364
1 365
1 366
1 367
1 368
1 369
1 370
1 371
1 372
1 373
1 374
1 375
1 376
1 377
1 378
1 379
1 380
1 381
1 382
1 383
1 384
1 385
1 386
1 387
1 388
1 389
1 390
1 391
1 392
1 393
1 394
1 395
1 396
1 397
1 398
1 399
1 400
1 401
1 402
1 403
1 404
1 405
1 406
1 407
1 408
1 409
1 410
1 411
1 412
1 413
1 414
1 415
1 416
1 417
1 418
1 419
1 420
1 421
1 422
1 423
1 424
1 425
1 426
1 427
1 428
1 429
1 430
1 431
1 432
1 433
1 434
1 435
1 436
1 437
1 438
1 439
1 440
1 441
1 442
1 443
1 444
1 445
1 446
1 447
1 448
1 449
1 450
1 451
1 452
1 453
1 454
1 455
1 456
1 457
1 458
1 459
1 460
1 461
1 462
1 463
1 464
1 465
1 466
1 467
1 468
1 469
1 470
1 471
1 472
1 473
1 474
1 475
1 476
1 477
1 478
1 479
1 480
1 481
1 482
1 483
1 484
1 485
1 486
1 487
1 488
1 489
1 490
1 491
1 492
1 493
1 494
1 495
1 496
1 497
1 498
1 499
1 500
1 501
1 502
1 503
1 504
1 505
1 506
1 507
1 508
1 509
1 510
1 511
1 512
1 513
1 514
1 515
1 516
1 517
1 518
1 519
1 520
1 521
1 522
1 523
1 524
1 525
1 526
1 527
1 528
1 529
1 530
1 531
1 532
1 533
1 534
1 535
1 536
1 537
1 538
1 539
1 540
1 541
1 542
1 543
1 544
1 545
1 546
1 547
1 548
1 549
1 550
1 551
1 552
1 553
1 554
1 555
1 556
1 557
1 558
1 559
1 560
1 561
1 562
1 563
1 564
1 565
1 566
1 567
1 568
1 569
1 570
1 571
1 572
1 573
1 574
1 575
1 576
1 577
1 578
1 579
1 580
1 581
1 582
1 583
1 584
1 585
1 586
1 587
1 588
1 589
1 590
1 591
1 592
1 593
1 594
1 595
1 596
1 597
1 598
1 599
1 600
1 601
1 602
1 603
1 604
1 605
1 606
1 607
1 608
1 609
1 610
1 611
1 612
1 613
1 614
1 615
1 616
1 617
1 618
1 619
1 620
1 621
1 622
1 623
1 624
1 625
1 626
1 627
1 628
1 629
1 630
1 631
1 632
1 633
1 634
1 635
1 636
1 637
1 638
1 639
1 640
1 641
1 642
1 643
1 644
1 645
1 646
1 647
1 648
1 649
1 650
1 651
1 652
1 653
1 654
1 655
1 656
1 657
1 658
1 659
1 660
1 661
1 662
1 663
1 664
1 665
1 666
1 667
1 668
1 669
1 670
1 671
1 672
1 673
1 674
1 675
1 676
1 677
1 678
1 679
1 680
POINT_DATA 681
SCALARS is_boundary int 1
LOOKUP_TABLE default
0
0
0
0
0
0
0
0
0
0
0
0
0
0
0
0
0
0
0
0
0
0
0
0
0
0
0
0
0
0
0
0
0
0
0
0
0
0
0
0
0
0
0
0
0
0
0
0
0
0
0
0
0
0
0
0
0
0
0
0
0
0
0
0
0
0
0
0
0
0
0
0
0
0
0
0
0
0
0
0
0
0
0
0
0
0
0
0
0
0
0
0
0
0
0
0
0
0
0
0
0
0
0
0
0
0
0
0
0
0
0
0
0
0
0
0
0
0
0
0
0
0
0
0
0
0
0
0
0
0
0
0
0
0
0
0
0
0
0
0
0
0
0
0
0
0
0
0
0
0
0
0
0
0
0
0
0
0
0
0
0
0
0
0
0
0
0
0
0
0
0
0
0
0
0
0
0
0
0
0
0
0
0
0
0
0
0
0
0
0
0
0
0
0
0
0
0
0
0
0
0
0
0
0
0
0
0
0
0
0
0
0
0
0
0
0
0
0
0
0
0
0
0
0
0
0
0
0
0
0
0
0
0
0
0
0
0
0
0
0
0
0
0
0
0
0
0
0
0
0
0
0
0
0
0
0
0
0
0
0
0
0
0
0
0
0
0
0
0
0
0
0
0
0
0
0
0
0
0
0
0
0
0
0
0
0
0
0
0
0
0
0
0
0
0
0
0
0
0
0
0
0
0
0
0
0
0
0
0
0
0
0
0
0
0
0
0
0
0
0
0
0
0
0
0
0
0
0
0
0
0
0
0
0
0
0
0
0
0
0
0
0
0
0
0
0
0
0
0
0
0
0
0
0
0
0
0
0
0
0
0
0
0
0
0
0
0
0
0
0
0
0
0
0
0
1
1
1
1
1
1
1
1
1
1
1
1
1
1
1
1
1
1
1
1
1
1
1
1
1
1
1
1
1
1
1
1
1
1
1
1
1
1
1
1
1
1
1
1
1
1
1
1
1
1
1
1
1
1
1
1
1
1
1
1
1
1
1
1
1
1
1
1
1
1
1
1
1
1
1
1
1
1
1
1
1
1
1
1
1
1
1
1
1
1
1
1
1
1
1
1
1
1
1
1
1
1
1
1
1
1
1
1
1
1
1
1
1
1
1
1
1
1
1
1
1
1
1
1
1
1
1
1
1
1
1
1
1
1
1
1
1
1
1
1
1
1
1
1
1
1
1
1
1
1
1
1
1
1
1
1
1
1
1
1
1
1
1
1
1
1
1
1
1
1
1
1
1
1
1
1
1
1
1
1
1
1
1
1
1
1
1
1
1
1
1
1
1
1
1
1
1
1
1
1
1
1
1
1
1
1
1
1
1
1
1
1
1
1
1
1
1
1
1
1
1
1
1
1
1
1
1
1
1
1
1
1
1
1
1
1
1
1
1
1
1
1
1
1
1
1
1
1
1
1
1
1
1
1
1
1
1
1
1
1
1
1
1
1
1
1
1
1
1
1
1
1
1
1
1
1
1
1
1
1
1
1
1
1
1
1
1
1
1
1
1
1
1
1
1
1
1
1
1
1
1
1
1
1
1
1
SCALARS rho float 1
LOOKUP_TABLE default
1020
1020
1020
1020
1020
1020
1020
1020
1020
1020
1020
1020
1020
1020
1020
1020
1020
1020
1020
1020
1020
1020
1020
1020
1020
1020
1020
1020
1020
1020
1020
1020
1020
1020
1020
1020
1020
1020
1020
1020
1020
1020
1020
1020
1020
1020
1020
1020
1020
1020
1020
1020
1020
1020
1020
1020
1020
1020
1020
1020
1020
1020
1020
1020
1020
1020
1020
1020
1020
1020
1020
1020
1020
1020
1020
1020
1020
1020
1020
1020
1020
1020
1020
1020
1020
1020
1020
1020
1020
1020
1020
1020
1020
1020
1020
1020
1020
1020
1020
1020
1020
1020
1020
1020
1020
1020
1020
1020
1020
1020
1020
1020
1020
1020
1020
1020
1020
1020
1020
1020
1020
1020
1020
1020
1020
1020
1020
1020
1020
1020
1020
1020
1020
1020
1020
1020
1020
1020
1020
1020
1020
1020
1020
1020
1020
1020
1020
1020
1020
1020
1020
1020
1020
1020
1020
1020
1020
1020
1020
1020
1020
1020
1020
1020
1020
1020
1020
1020
1020
1020
1020
1020
1020
1020
1020
1020
1020
1020
1020
1020
1020
1020
1020
1020
1020
1020
1020
1020
1020
1020
1020
1020
1020
1020
1020
1020
1020
1020
1020
1020
1020
1020
1020
1020
1020
1020
1020
1020
1020
1020
1020
1020
1020
1020
1020
1020
1020
1020
1020
1020
1020
1020
1020
1020
1020
1020
1020
1020
1020
1020
1020
1020
1020
1020
1020
1020
1020
1020
1020
1020
1020
1020
1020
1020
1020
1020
1020
1020
1020
1020
1020
1020
1020
1020
1020
1020
1020
1020
1020
1020
1020
1020
1020
1020
1020
1020
1020
1020
1020
1020
1020
1020
1020
1020
1020
1020
1020
1020
1020
1020
1020
1020
1020
1020
1020
1020
1020
1020
1020
1020
1020
1020
1020
1020
1020
1020
1020
1020
1020
1020
1020
1020
1020
1020
1020
1020
1020
1020
1020
1020
1020
1020
1020
1020
1020
1020
1020
1020
1020
1020
1020
1020
1020
1020
1020
1020
1020
1020
1020
1020
1020
1020
1020
1020
1020
1020
1020
1020
1020
1020
1020
1020
1020
1020
1020
1020
1020
1020
1020
1020
1020
1020
1020
1020
1020
1020
1020
1020
1020
1020
1020
1020
1020
1020
1020
1020
1020
1020
1020
1020
1020
1020
1020
1020
1020
1000
1000
1000
1000
1000
1000
1000
1000
1000
1000
1000
1000
1000
1000
1000
1000
1000
1000
1000
1000
1000
1000
1000
1000
1000
1000
1000
1000
1000
1000
1000
1000
1000
1000
1000
1000
1000
1000
1000
1000
1000
1000
1000
1000
1000
1000
1000
1000
1000
1000
1000
1000
1000
1000
1000
1000
1000
1000
1000
1000
1000
1000
1000
1000
1000
1000
1000
1000
1000
1000
1000
1000
1000
1000
1000
1000
1000
1000
1000
1000
1000
1000
1000
1000
1000
1000
1000
1000
1000
1000
1000
1000
1000
1000
1000
1000
1000
1000
1000
1000
1000
1000
1000
1000
1000
1000
1000
1000
1000
1000
1000
1000
1000
1000
1000
1000
1000
1000
1000
1000
1000
1000
1000
1000
1000
1000
1000
1000
1000
1000
1000
1000
1000
1000
1000
1000
1000
1000
1000
1000
1000
1000
1000
1000
1000
1000
1000
1000
1000
1000
1000
1000
1000
1000
1000
1000
1000
1000
1000
1000
1000
1000
1000
1000
1000
1000
1000
1000
1000
1000
1000
1000
1000
1000
1000
1000
1000
1000
1000
1000
1000
1000
1000
1000
1000
1000
1000
1000
1000
1000
1000
1000
1000
1000
1000
1000
1000
1000
1000
1000
1000
1000
1000
1000
1000
1000
1000
1000
1000
1000
1000
1000
1000
1000
1000
1000
1000
1000
1000
1000
1000
1000
1000
1000
1000
1000
1000
1000
1000
1000
1000
1000
1000
1000
1000
1000
1000
1000
1000
1000
1000
1000
1000
1000
1000
1000
1000
1000
1000
1000
1000
1000
1000
1000
1000
1000
1000
1000
1000
1000
1000
1000
1000
1000
1000
1000
1000
1000
1000
1000
1000
1000
1000
1000
1000
1000
1000
1000
1000
1000
1000
1000
1000
1000
1000
1000
1000
1000
1000
1000
1000
1000
1000
1000
1000
1000
1000
1000
1000
1000
1000
1000
1000
1000
1000
1000
SCALARS p float 1
LOOKUP_TABLE default
25004.681136676067
25004.681136676067
25004.681136676067
25004.681136676067
25004.681136676067
25004.681136676067
25004.681136676067
25004.681136676067
25004.681136676067
25004.681136676067
25004.681136676067
25004.681136676067
25004.681136676067
25004.681136676067
25004.681136676067
25004.681136676067
25004.681136676067
25004.681136676067
25004.681136676067
25004.681136676067
25004.681136676067
25004.681136676067
25004.681136676067
25004.681136676067
25004.681136676067
25004.681136676067
25004.681136676067
25004.681136676067
25004.681136676067
25004.681136676067
25004.681136676067
25004.681136676067
25004.681136676067
25004.681136676067
25004.681136676067
25004.681136676067
25004.681136676067
25004.681136676067
25004.681136676067
25004.681136676067
25004.681136676067
25004.681136676067
25004.681136676067
25004.681136676067
25004.681136676067
25004.681136676067
25004.681136676067
25004.681136676067
25004.681136676067
25004.681136676067
25004.681136676067
25004.681136676067
25004.681136676067
25004.681136676067
25004.681136676067
25004.681136676067
25004.681136676067
25004.681136676067
25004.681136676067
25004.681136676067
25004.681136676067
25004.681136676067
25004.681136676067
25004.681136676067
25004.681136676067
25004.681136676067
25004.681136676067
25004.681136676067
25004.681136676067
25004.681136676067
25004.681136676067
25004.681136676067
25004.681136676067
25004.681136676067
25004.681136676067
25004.681136676067
25004.681136676067
25004.681136676067
25004.681136676067
25004.681136676067
25004.681136676067
25004.681136676067
25004.681136676067
25004.681136676067
25004.681136676067
25004.681136676067
25004.681136676067
25004.681136676067
25004.681136676067
25004.681136676067
25004.681136676067
25004.681136676067
25004.681136676067
25004.681136676067
25004.681136676067
25004.681136676067
25004.681136676067
25004.681136676067
25004.681136676067
25004.681136676067
25004.681136676067
25004.681136676067
25004.681136676067
25004.681136676067
25004.681136676067
25004.681136676067
25004.681136676067
25004.681136676067
25004.681136676067
25004.681136676067
25004.681136676067
25004.681136676067
25004.681136676067
25004.681136676067
25004.681136676067
25004.681136676067
25004.681136676067
25004.681136676067
25004.681136676067
25004.681136676067
25004.681136676067
25004.681136676067
25004.681136676067
25004.681136676067
25004.681136676067
25004.681136676067
25004.681136676067
25004.681136676067
25004.681136676067
25004.681136676067
25004.681136676067
25004.681136676067
25004.681136676067
25004.681136676067
25004.681136676067
25004.681136676067
25004.681136676067
25004.681136676067
25004.681136676067
25004.681136676067
25004.681136676067
25004.681136676067
25004.681136676067
25004.681136676067
25004.681136676067
25004.681136676067
25004.681136676067
25004.681136676067
25004.681136676067
25004.681136676067
25004.681136676067
25004.681136676067
25004.681136676067
25004.681136676067
25004.681136676067
25004.681136676067
25004.681136676067
25004.681136676067
25004.681136676067
25004.681136676067
25004.681136676067
25004.681136676067
25004.681136676067
25004.681136676067
25004.681136676067
25004.681136676067
25004.681136676067
25004.681136676067
25004.681136676067
25004.681136676067
25004.681136676067
25004.681136676067
25004.681136676067
25004.681136676067
25004.681136676067
25004.681136676067
25004.681136676067
25004.681136676067
25004.681136676067
25004.681136676067
25004.681136676067
25004.681136676067
25004.681136676067
25004.681136676067
25004.681136676067
25004.681136676067
25004.681136676067
25004.681136676067
25004.681136676067
25004.681136676067
25004.681136676067
25004.681136676067
25004.681136676067
25004.681136676067
25004.681136676067
25004.681136676067
25004.681136676067
25004.681136676067
25004.681136676067
25004.681136676067
25004.681136676067
25004.681136676067
25004.681136676067
25004.681136676067
25004.681136676067
25004.681136676067
25004.681136676067
25004.681136676067
25004.681136676067
25004.681136676067
25004.681136676067
25004.681136676067
25004.681136676067
25004.681136676067
25004.681136676067
25004.681136676067
25004.681136676067
25004.681136676067
25004.681136676067
25004.681136676067
25004.681136676067
25004.681136676067
25004.681136676067
25004.681136676067
25004.681136676067
25004.681136676067
25004.681136676067
25004.681136676067
25004.681136676067
25004.681136676067
25004.681136676067
25004.681136676067
25004.681136676067
25004.681136676067
25004.681136676067
25004.681136676067
25004.681136676067
25004.681136676067
25004.681136676067
25004.681136676067
25004.681136676067
25004.681136676067
25004.681136676067
25004.681136676067
25004.681136676067
25004.681136676067
25004.681136676067
25004.681136676067
25004.681136676067
25004.681136676067
25004.681136676067
25004.681136676067
25004.681136676067
25004.681136676067
25004.681136676067
25004.681136676067
25004.681136676067
25004.681136676067
25004.681136676067
25004.681136676067
25004.681136676067
25004.681136676067
25004.681136676067
25004.681136676067
25004.681136676067
25004.681136676067
25004.681136676067
25004.681136676067
25004.681136676067
25004.681136676067
25004.681136676067
25004.681136676067
25004.681136676067
25004.681136676067
25004.681136676067
25004.681136676067
25004.681136676067
25004.681136676067
25004.681136676067
25004.681136676067
25004.681136676067
25004.681136676067
25004.681136676067
25004.681136676067
25004.681136676067
25004.681136676067
25004.681136676067
25004.681136676067
25004.681136676067
25004.681136676067
25004.681136676067
25004.681136676067
25004.681136676067
25004.681136676067
25004.681136676067
25004.681136676067
25004.681136676067
25004.681136676067
25004.681136676067
25004.681136676067
25004.681136676067
25004.681136676067
25004.681136676067
25004.681136676067
25004.681136676067
25004.681136676067
25004.681136676067
25004.681136676067
25004.681136676067
25004.681136676067
25004.681136676067
25004.681136676067
25004.681136676067
25004.681136676067
25004.681136676067
25004.681136676067
25004.681136676067
25004.681136676067
25004.681136676067
25004.681136676067
25004.681136676067
25004.681136676067
25004.681136676067
25004.681136676067
25004.681136676067
25004.681136676067
25004.681136676067
25004.681136676067
25004.681136676067
25004.681136676067
25004.681136676067
25004.681136676067
25004.681136676067
25004.681136676067
25004.681136676067
25004.681136676067
25004.681136676067
25004.681136676067
25004.681136676067
25004.681136676067
25004.681136676067
25004.681136676067
25004.681136676067
25004.681136676067
25004.681136676067
25004.681136676067
25004.681136676067
25004.681136676067
25004.681136676067
25004.681136676067
25004.681136676067
25004.681136676067
25004.681136676067
25004.681136676067
25004.681136676067
25004.681136676067
25004.681136676067
25004.681136676067
25004.681136676067
25004.681136676067
25004.681136676067
25004.681136676067
25004.681136676067
25004.681136676067
25004.681136676067
25004.681136676067
25004.681136676067
25004.681136676067
25004.681136676067
25004.681136676067
25004.681136676067
25004.681136676067
25004.681136676067
25004.681136676067
25004.681136676067
0
0
0
0
0
0
24762.411086526467
24992.162290525474
24998.133278724075
0
0
0
24996.232577539569
25003.732716254352
25004.15128392716
0
0
0
25000.68530799558
25004.189589269223
25004.400107248108
0
0
0
25001.041713168739
25004.209638156939
25004.405868056354
0
0
0
25001.071252788177
25004.209126265712
25004.404305122513
0
0
0
25001.062906094561
25004.208394982899
25004.403977794103
0
0
0
25001.056620834173
25004.207983325115
25004.403886305347
0
0
0
25001.053628245274
25004.207793091868
25004.403853044099
0
0
0
25001.052507895798
25004.207726369823
25004.403844456774
0
0
0
25001.052494027404
25004.207727524048
25004.403845812943
0
0
0
25001.053595569134
25004.20779472265
25004.403855628061
0
0
0
25001.056591099317
25004.207984712502
25004.403888973513
0
0
0
25001.06289101197
25004.208396931008
25004.403981048945
0
0
0
25001.071207956276
25004.209126754366
25004.404309038484
0
0
0
25001.041632269
25004.209639357658
25004.405873716139
0
0
0
25000.685235155943
25004.189597487686
25004.400117295489
0
0
0
24996.231946465177
25003.73267916817
25004.151266759043
0
0
0
24762.355547960648
24992.160348098376
24998.132090518488
0
0
0
0
0
0
0
0
0
0
0
0
0
0
0
0
0
0
0
0
0
0
0
0
0
0
0
0
0
0
0
0
0
0
0
0
0
0
0
0
0
0
0
0
0
0
0
0
0
0
0
0
0
0
0
0
0
0
0
0
0
0
0
0
0
0
0
0
0
0
0
0
0
0
0
0
0
0
0
0
0
0
0
0
0
0
0
0
0
0
0
0
0
0
0
0
0
0
0
0
0
0
0
0
0
0
0
0
0
0
0
0
0
0
0
0
0
0
0
0
0
0
0
0
0
0
0
0
0
0
0
0
0
0
0
0
0
0
0
0
0
0
0
0
0
0
0
0
0
0
0
0
0
0
0
0
0
0
0
0
0
0
0
0
0
0
0
0
0
0
0
0
0
0
0
0
0
0
0
0
0
0
0
0
0
0
0
0
0
0
0
0
0
0
0
SCALARS m float 1
LOOKUP_TABLE default
0.39942306611962441
0.39942306611962441
0.39942306611962441
0.39942306611962441
0.39942306611962441
0.39942306611962441
0.39942306611962441
0.39942306611962441
0.39942306611962441
0.39942306611962441
0.39942306611962441
0.39942306611962441
0.39942306611962441
0.39942306611962441
0.39942306611962441
0.39942306611962441
0.39942306611962441
0.39942306611962441
0.39942306611962441
0.39942306611962441
0.39942306611962441
0.39942306611962441
0.39942306611962441
0.39942306611962441
0.39942306611962441
0.39942306611962441
0.39942306611962441
0.39942306611962441
0.39942306611962441
0.39942306611962441
0.39942306611962441
0.39942306611962441
0.39942306611962441
0.39942306611962441
0.39942306611962441
0.39942306611962441
0.39942306611962441
0.39942306611962441
0.39942306611962441
0.39942306611962441
0.39942306611962441
0.39942306611962441
0.39942306611962441
0.39942306611962441
0.39942306611962441
0.39942306611962441
0.39942306611962441
0.39942306611962441
0.39942306611962441
0.39942306611962441
0.39942306611962441
0.39942306611962441
0.39942306611962441
0.39942306611962441
0.39942306611962441
0.39942306611962441
0.39942306611962441
0.39942306611962441
0.39942306611962441
0.39942306611962441
0.39942306611962441
0.39942306611962441
0.39942306611962441
0.39942306611962441
0.39942306611962441
0.39942306611962441
0.39942306611962441
0.39942306611962441
0.39942306611962441
0.39942306611962441
0.39942306611962441
0.39942306611962441
0.39942306611962441
0.39942306611962441
0.39942306611962441
0.39942306611962441
0.39942306611962441
0.39942306611962441
0.39942306611962441
0.39942306611962441
0.39942306611962441
0.39942306611962441
0.39942306611962441
0.39942306611962441
0.39942306611962441
0.39942306611962441
0.39942306611962441
0.39942306611962441
0.39942306611962441
0.39942306611962441
0.39942306611962441
0.39942306611962441
0.39942306611962441
0.39942306611962441
0.39942306611962441
0.39942306611962441
0.39942306611962441
0.39942306611962441
0.39942306611962441
0.39942306611962441
0.39942306611962441
0.39942306611962441
0.39942306611962441
0.39942306611962441
0.39942306611962441
0.39942306611962441
0.39942306611962441
0.39942306611962441
0.39942306611962441
0.39942306611962441
0.39942306611962441
0.39942306611962441
0.39942306611962441
0.39942306611962441
0.39942306611962441
0.39942306611962441
0.39942306611962441
0.39942306611962441
0.39942306611962441
0.39942306611962441
0.39942306611962441
0.39942306611962441
0.39942306611962441
0.39942306611962441
0.39942306611962441
0.39942306611962441
0.39942306611962441
0.39942306611962441
0.39942306611962441
0.39942306611962441
0.39942306611962441
0.39942306611962441
0.39942306611962441
0.39942306611962441
0.39942306611962441
0.39942306611962441
0.39942306611962441
0.39942306611962441
0.39942306611962441
0.39942306611962441
0.39942306611962441
0.39942306611962441
0.39942306611962441
0.39942306611962441
0.39942306611962441
0.39942306611962441
0.39942306611962441
0.39942306611962441
0.39942306611962441
0.39942306611962441
0.39942306611962441
0.39942306611962441
0.39942306611962441
0.39942306611962441
0.39942306611962441
0.39942306611962441
0.39942306611962441
0.39942306611962441
0.39942306611962441
0.39942306611962441
0.39942306611962441
0.39942306611962441
0.39942306611962441
0.39942306611962441
0.39942306611962441
0.39942306611962441
0.39942306611962441
0.39942306611962441
0.39942306611962441
0.39942306611962441
0.39942306611962441
0.39942306611962441
0.39942306611962441
0.39942306611962441
0.39942306611962441
0.39942306611962441
0.39942306611962441
0.39942306611962441
0.39942306611962441
0.39942306611962441
0.39942306611962441
0.39942306611962441
0.39942306611962441
0.39942306611962441
0.39942306611962441
0.39942306611962441
0.39942306611962441
0.39942306611962441
0.39942306611962441
0.39942306611962441
0.39942306611962441
0.39942306611962441
0.39942306611962441
0.39942306611962441
0.39942306611962441
0.39942306611962441
0.39942306611962441
0.39942306611962441
0.39942306611962441
0.39942306611962441
0.39942306611962441
0.39942306611962441
0.39942306611962441
0.39942306611962441
0.39942306611962441
0.39942306611962441
0.39942306611962441
0.39942306611962441
0.39942306611962441
0.39942306611962441
0.39942306611962441
0.39942306611962441
0.39942306611962441
0.39942306611962441
0.39942306611962441
0.39942306611962441
0.39942306611962441
0.39942306611962441
0.39942306611962441
0.39942306611962441
0.39942306611962441
0.39942306611962441
0.39942306611962441
0.39942306611962441
0.39942306611962441
0.39942306611962441
0.39942306611962441
0.39942306611962441
0.39942306611962441
0.39942306611962441
0.39942306611962441
0.39942306611962441
0.39942306611962441
0.39942306611962441
0.39942306611962441
0.39942306611962441
0.39942306611962441
0.39942306611962441
0.39942306611962441
0.39942306611962441
0.39942306611962441
0.39942306611962441
0.39942306611962441
0.39942306611962441
0.39942306611962441
0.39942306611962441
0.39942306611962441
0.39942306611962441
0.39942306611962441
0.39942306611962441
0.39942306611962441
0.39942306611962441
0.39942306611962441
0.39942306611962441
0.39942306611962441
0.39942306611962441
0.39942306611962441
0.39942306611962441
0.39942306611962441
0.39942306611962441
0.39942306611962441
0.39942306611962441
0.39942306611962441
0.39942306611962441
0.39942306611962441
0.39942306611962441
0.39942306611962441
0.39942306611962441
0.39942306611962441
0.39942306611962441
0.39942306611962441
0.39942306611962441
0.39942306611962441
0.39942306611962441
0.39942306611962441
0.39942306611962441
0.39942306611962441
0.39942306611962441
0.39942306611962441
0.39942306611962441
0.39942306611962441
0.39942306611962441
0.39942306611962441
0.39942306611962441
0.39942306611962441
0.39942306611962441
0.39942306611962441
0.39942306611962441
0.39942306611962441
0.39942306611962441
0.39942306611962441
0.39942306611962441
0.39942306611962441
0.39942306611962441
0.39942306611962441
0.39942306611962441
0.39942306611962441
0.39942306611962441
0.39942306611962441
0.39942306611962441
0.39942306611962441
0.39942306611962441
0.39942306611962441
0.39942306611962441
0.39942306611962441
0.39942306611962441
0.39942306611962441
0.39942306611962441
0.39942306611962441
0.39942306611962441
0.39942306611962441
0.39942306611962441
0.39942306611962441
0.39942306611962441
0.39942306611962441
0.39942306611962441
0.39942306611962441
0.39942306611962441
0.39942306611962441
0.39942306611962441
0.39942306611962441
0.39942306611962441
0.39942306611962441
0.39942306611962441
0.39942306611962441
0.39942306611962441
0.39942306611962441
0.39942306611962441
0.39942306611962441
0.39942306611962441
0.39942306611962441
0.39942306611962441
0.39942306611962441
0.39942306611962441
0.39942306611962441
0.39942306611962441
0.39942306611962441
0.39942306611962441
0.39942306611962441
0.39942306611962441
0.39942306611962441
0.39942306611962441
0.39942306611962441
0.39942306611962441
0.39942306611962441
0.39942306611962441
0.39942306611962441
0.39942306611962441
0.39942306611962441
0.39942306611962441
0.39942306611962441
0.39942306611962441
0.39942306611962441
0.39942306611962441
0.39942306611962441
0.39942306611962441
0.39942306611962441
0.39942306611962441
0.39942306611962441
0.39942306611962441
0.39942306611962441
0.39942306611962441
0.39942306611962441
0.39942306611962441
0.39942306611962441
0.39942306611962441
0.39942306611962441
0.39942306611962441
0.39942306611962441
0.39942306611962441
0.39942306611962441
0.39942306611962441
0.39942306611962441
0.39942306611962441
0.39942306611962441
0.39942306611962441
0.39942306611962441
0.39942306611962441
0.39942306611962441
0.39942306611962441
0.39942306611962441
0.39942306611962441
0.39942306611962441
0.39942306611962441
0.39942306611962441
0.39942306611962441
0.39942306611962441
0.39942306611962441
0.39942306611962441
0.39942306611962441
0.39942306611962441
0.39942306611962441
0.39942306611962441
0.39942306611962441
0.39942306611962441
0.39942306611962441
0.39942306611962441
0.39942306611962441
0.39942306611962441
0.39942306611962441
0.39942306611962441
0.39942306611962441
0.39942306611962441
0.39942306611962441
0.39942306611962441
0.39942306611962441
0.39942306611962441
0.39942306611962441
0.39942306611962441
0.39942306611962441
0.39942306611962441
0.39942306611962441
0.39942306611962441
0.39942306611962441
0.39942306611962441
0.39942306611962441
0.39942306611962441
0.39942306611962441
0.39942306611962441
0.39942306611962441
0.39942306611962441
0.39942306611962441
0.39942306611962441
0.39942306611962441
0.39942306611962441
0.39942306611962441
0.39942306611962441
0.39942306611962441
0.39942306611962441
0.39942306611962441
0.39942306611962441
0.39942306611962441
0.39942306611962441
0.39942306611962441
0.39942306611962441
0.39942306611962441
0.39942306611962441
0.39942306611962441
0.39942306611962441
0.39942306611962441
0.39942306611962441
0.39942306611962441
0.39942306611962441
0.39942306611962441
0.39942306611962441
0.39942306611962441
0.39942306611962441
0.39942306611962441
0.39942306611962441
0.39942306611962441
0.39942306611962441
0.39942306611962441
0.39942306611962441
0.39942306611962441
0.39942306611962441
0.39942306611962441
0.39942306611962441
0.39942306611962441
0.39942306611962441
0.39942306611962441
0.39942306611962441
0.39942306611962441
0.39942306611962441
0.39942306611962441
0.39942306611962441
0.39942306611962441
0.39942306611962441
0.39942306611962441
0.39942306611962441
0.39942306611962441
0.39942306611962441
0.39942306611962441
0.39942306611962441
0.39942306611962441
0.39942306611962441
0.39942306611962441
0.39942306611962441
0.39942306611962441
0.39942306611962441
0.39942306611962441
0.39942306611962441
0.39942306611962441
0.39942306611962441
0.39942306611962441
0.39942306611962441
0.39942306611962441
0.39942306611962441
0.39942306611962441
0.39942306611962441
0.39942306611962441
0.39942306611962441
0.39942306611962441
0.39942306611962441
0.39942306611962441
0.39942306611962441
0.39942306611962441
0.39942306611962441
0.39942306611962441
0.39942306611962441
0.39942306611962441
0.39942306611962441
0.39942306611962441
0.39942306611962441
0.39942306611962441
0.39942306611962441
0.39942306611962441
0.39942306611962441
0.39942306611962441
0.39942306611962441
0.39942306611962441
0.39942306611962441
0.39942306611962441
0.39942306611962441
0.39942306611962441
0.39942306611962441
0.39942306611962441
0.39942306611962441
0.39942306611962441
0.39942306611962441
0.39942306611962441
0.39942306611962441
0.39942306611962441
0.39942306611962441
0.39942306611962441
0.39942306611962441
0.39942306611962441
0.39942306611962441
0.39942306611962441
0.39942306611962441
0.39942306611962441
0.39942306611962441
0.39942306611962441
0.39942306611962441
0.39942306611962441
0.39942306611962441
0.39942306611962441
0.39942306611962441
0.39942306611962441
0.39942306611962441
0.39942306611962441
0.39942306611962441
0.39942306611962441
0.39942306611962441
0.39942306611962441
0.39942306611962441
0.39942306611962441
0.39942306611962441
0.39942306611962441
0.39942306611962441
0.39942306611962441
0.39942306611962441
0.39942306611962441
0.39942306611962441
0.39942306611962441
0.39942306611962441
0.39942306611962441
0.39942306611962441
0.39942306611962441
0.39942306611962441
0.39942306611962441
0.39942306611962441
0.39942306611962441
0.39942306611962441
0.39942306611962441
0.39942306611962441
0.39942306611962441
0.39942306611962441
0.39942306611962441
0.39942306611962441
0.39942306611962441
0.39942306611962441
0.39942306611962441
0.39942306611962441
0.39942306611962441
0.39942306611962441
0.39942306611962441
0.39942306611962441
0.39942306611962441
0.39942306611962441
0.39942306611962441
0.39942306611962441
0.39942306611962441
0.39942306611962441
0.39942306611962441
0.39942306611962441
0.39942306611962441
0.39942306611962441
0.39942306611962441
0.39942306611962441
0.39942306611962441
0.39942306611962441
0.39942306611962441
0.39942306611962441
0.39942306611962441
0.39942306611962441
0.39942306611962441
0.39942306611962441
0.39942306611962441
0.39942306611962441
0.39942306611962441
0.39942306611962441
0.39942306611962441
0.39942306611962441
0.39942306611962441
0.39942306611962441
0.39942306611962441
0.39942306611962441
0.39942306611962441
0.39942306611962441
0.39942306611962441
0.39942306611962441
0.39942306611962441
0.39942306611962441
0.39942306611962441
0.39942306611962441
0.39942306611962441
0.39942306611962441
0.39942306611962441
0.39942306611962441
0.39942306611962441
0.39942306611962441
0.39942306611962441
0.39942306611962441
0.39942306611962441
0.39942306611962441
0.39942306611962441
0.39942306611962441
0.39942306611962441
0.39942306611962441
0.39942306611962441
0.39942306611962441
0.39942306611962441
0.39942306611962441
0.39942306611962441
0.39942306611962441
0.39942306611962441
0.39942306611962441
0.39942306611962441
0.39942306611962441
0.39942306611962441
0.39942306611962441
0.39942306611962441
0.39942306611962441
0.39942306611962441
0.39942306611962441
0.39942306611962441
0.39942306611962441
0.39942306611962441
0.39942306611962441
0.39942306611962441
0.39942306611962441
0.39942306611962441
0.39942306611962441
0.39942306611962441
0.39942306611962441
0.39942306611962441
0.39942306611962441
0.39942306611962441
0.39942306611962441
0.39942306611962441
0.39942306611962441
0.39942306611962441
0.39942306611962441
0.39942306611962441
0.39942306611962441
0.39942306611962441
0.39942306611962441
0.39942306611962441
0.39942306611962441
0.39942306611962441
0.39942306611962441
0.39942306611962441
0.39942306611962441
0.39942306611962441
0.39942306611962441
0.39942306611962441
0.39942306611962441
0.39942306611962441
0.39942306611962441
0.39942306611962441
0.39942306611962441
VECTORS v float
-3.1015745632840112e-05 -0.04118428919925219 0
-3.2815874769859797e-05 -0.042103233692135623 0
-3.4143691805441947e-05 -0.042842039506578014 0
-3.5405069570308882e-05 -0.043610212655424023 0
-3.6602270337210462e-05 -0.044412985489861452 0
-3.7730935631792135e-05 -0.045257798497229412 0
-3.8823720441246629e-05 -0.046154545704401459 0
-3.9841140076079459e-05 -0.047113864532866527 0
-4.0794417814958022e-05 -0.048146596903707359 0
-4.1730945395946195e-05 -0.049263742804799449 0
-4.2564305950522906e-05 -0.050476390267520037 0
-4.3284527925526389e-05 -0.051796034162482983 0
-4.4031306845413471e-05 -0.053236505333318106 0
-4.4804877180561274e-05 -0.054821968245135015 0
-4.5456592344852842e-05 -0.056580301020912098 0
-4.6119154026334781e-05 -0.058539945954611414 0
-4.68103911675134e-05 -0.060734533845284371 0
-4.7622837853799448e-05 -0.063222123253111134 0
-4.8392942175382851e-05 -0.066064944874647674 0
-4.9312755071195494e-05 -0.069348596991944303 0
-5.0304598062728693e-05 -0.073207717121886895 0
-5.1443252886560808e-05 -0.07779211954767612 0
-5.271939007039258e-05 -0.083362818798464147 0
-5.4275262214777836e-05 -0.090752541752272681 0
-5.6771368427083284e-05 -0.1030428704521809 0
-1.9452388328723296e-05 -0.041612347957863886 0
-2.0830647487222891e-05 -0.042603221058908528 0
-2.1819790608767485e-05 -0.043394404154738046 0
-2.2670150160237033e-05 -0.044193048043414215 0
-2.3484471156343535e-05 -0.04501490585066991 0
-2.4211332760362494e-05 -0.045872576228369676 0
-2.4777539410214202e-05 -0.046778259306834928 0
-2.5299805276272906e-05 -0.04774484344694057 0
-2.584348828046165e-05 -0.048784949640709736 0
-2.6363142778020226e-05 -0.04991085399011664 0
-2.6833272891060737e-05 -0.0511331425915664 0
-2.7809347469208894e-05 -0.052464871022193611 0
-2.8341096702770268e-05 -0.053919642574708299 0
-2.8887564729579028e-05 -0.055523370909137379 0
-2.9424178934584897e-05 -0.057302398845298398 0
-2.9993508472542102e-05 -0.059285100812330085 0
-3.0557712025821555e-05 -0.061502168474611804 0
-3.1156371078018347e-05 -0.06400498249667369 0
-3.170487197206702e-05 -0.066855082639238048 0
-3.2413385625180886e-05 -0.070131944327595272 0
-3.304094556254233e-05 -0.073944012011366841 0
-3.3514199866548135e-05 -0.078433140925402545 0
-3.393747552475376e-05 -0.083902778217959523 0
-3.4707620979923866e-05 -0.091210811408496822 0
-3.5519958169329093e-05 -0.10363315503692225 0
-7.8637500948019289e-06 -0.041720103085082123 0
-8.4734496062665407e-06 -0.042715000828759772 0
-8.8656364330669552e-06 -0.043509851527696319 0
-9.2625461406991883e-06 -0.044313779774110558 0
-9.5083862644291361e-06 -0.045142346267818684 0
-9.573553994349755e-06 -0.046009901478276993 0
-1.0084870578714582e-05 -0.046927083523917411 0
-1.0439023357350287e-05 -0.047909098403630619 0
-1.0887243161876694e-05 -0.048967363019603985 0
-1.1091016275509307e-05 -0.050114689376630522 0
-1.1462188266700371e-05 -0.051363950661763157 0
-1.1730240994026804e-05 -0.052726288506283435 0
-1.1751455115099663e-05 -0.054218257462751919 0
-1.2254632098082033e-05 -0.055864274019398349 0
-1.2501740289827409e-05 -0.057694747285693071 0
-1.2880571102469083e-05 -0.059739661628600102 0
-1.3347508498263557e-05 -0.062032411586072159 0
-1.3739283082851372e-05 -0.064614957165708961 0
-1.4394904748820799e-05 -0.067552289299262033 0
-1.4696019308714159e-05 -0.07092333018756948 0
-1.5393348373985373e-05 -0.07483012013211103 0
-1.6031213047339918e-05 -0.079418525900301989 0
-1.6616149886954788e-05 -0.085001069164807652 0
-1.7146609564505356e-05 -0.092428416583158035 0
-1.7706170947570728e-05 -0.1050392049145329 0
-2.692012876348493e-06 -0.041779740517491268 0
-2.9669756808469076e-06 -0.042781480793694475 0
-3.060338700573858e-06 -0.04358227109415895 0
-3.8027558366218621e-06 -0.044393789157419636 0
-4.1708064521933277e-06 -0.045230307637826518 0
-4.114097608886242e-06 -0.046105009740065081 0
-4.2252898113579718e-06 -0.047031820860938066 0
-4.058072832631396e-06 -0.048023946109008439 0
-4.2060592646848099e-06 -0.049093921112630202 0
-4.4801291546859258e-06 -0.050254213758550541 0
-4.5740778166045172e-06 -0.05151788730568975 0
-4.4338090506443238e-06 -0.052897166445044906 0
-5.0505032199155436e-06 -0.054408123437991354 0
-5.3249766432123282e-06 -0.056076502593211563 0
-5.3189903806089969e-06 -0.057932345049329849 0
-5.3874452788569767e-06 -0.060005606498182144 0
-5.3805565220686074e-06 -0.062331752111962728 0
-5.5321749191684879e-06 -0.064950321388968058 0
-5.7676606368930876e-06 -0.067927598249180821 0
-5.6775002289815077e-06 -0.071341088497367283 0
-5.8961904539054956e-06 -0.07529498433230758 0
-6.6740805891450247e-06 -0.079933711257874671 0
-6.8697677722859272e-06 -0.085571444568271052 0
-7.2019363560853095e-06 -0.093056648165861441 0
-7.6235354193283343e-06 -0.10575997113622704 0
-6.4093940992645763e-07 -0.041820838825617226 0
-8.9386686203999975e-07 -0.042828164071903277 0
-8.6864985647494995e-07 -0.043632311178276449 0
-9.8712570972079902e-07 -0.044447521004389368 0
-9.1643512706025578e-07 -0.045288737175723216 0
-1.3426776921969073e-06 -0.046168980655286976 0
-1.400215880886897e-06 -0.04710101612199212 0
-1.6172944806523298e-06 -0.048098507545976693 0
-1.7093853304357784e-06 -0.049174696697952616 0
-1.7962433324094313e-06 -0.050341543167824528 0
-2.0634503891920534e-06 -0.051611943018761444 0
-2.0625326574179408e-06 -0.052998781332400283 0
-1.0285390137100223e-06 -0.054518438579945122 0
-1.1363616974095545e-06 -0.056195950561190304 0
-1.3161077584244079e-06 -0.058061648990054275 0
-7.4498032727274923e-07 -0.060147762803461714 0
-8.3864210477029383e-07 -0.06248709329895847 0
-1.1203212942914073e-06 -0.065120109788001937 0
-1.1988581798011677e-06 -0.068113002708317202 0
-1.3516109353319999e-06 -0.071543999083992851 0
-1.5582109170463199e-06 -0.075516459487527388 0
-1.636781130580378e-06 -0.080175490225740262 0
-1.8987438104410772e-06 -0.085834131451335421 0
-2.1062116494153935e-06 -0.093341004088532811 0
-2.3209901926015136e-06 -0.10608447000933012 0
1.0160919342305889e-06 -0.041844390471877241 0
1.1441041030432418e-06 -0.042853995384258929 0
1.1314111280981286e-06 -0.043661830093491845 0
1.1527572879487675e-06 -0.044478500123362477 0
1.4991535792896372e-06 -0.045321982014541046 0
1.5370107012201551e-06 -0.046204997056858009 0
1.8633640809850552e-06 -0.047140061135448073 0
2.048750853261148e-06 -0.048140258688782828 0
1.8750068212378595e-06 -0.049218653889002581 0
1.5916846318188424e-06 -0.050387790996783241 0
2.2186189510108417e-06 -0.051661182972023219 0
1.8456322025734751e-06 -0.053051929003233064 0
2.8627096632436881e-06 -0.054575140010247478 0
2.8928896236513463e-06 -0.056257842506904514 0
1.7963882110100699e-06 -0.058128338246973665 0
3.2239066679046747e-06 -0.060218654442115938 0
3.0528083140372137e-06 -0.062564226275637402 0
3.0416282895171867e-06 -0.0652031061079376 0
3.0199791515132407e-06 -0.068202890233858171 0
2.968200559962325e-06 -0.071640776659046723 0
2.87533093318875e-06 -0.075621016640585292 0
2.8412244930840987e-06 -0.080287622702142056 0
2.6264851370407393e-06 -0.085954154005609004 0
2.275800490170831e-06 -0.093468589513611325 0
2.0358245814132506e-06 -0.10622823510714949 0
1.8883641844586648e-06 -0.041855316602179012 0
2.062378176689716e-06 -0.042866318256449862 0
2.2611896351150409e-06 -0.043674549049993634 0
2.4357351351034832e-06 -0.044493501720026286 0
2.3266646991225767e-06 -0.045337978964993753 0
2.4629741271418164e-06 -0.046221806060372871 0
2.5022960726977852e-06 -0.04715773857366886 0
2.7819777111821853e-06 -0.048158655381604396 0
2.577186411427517e-06 -0.049238335729641133 0
2.7120620028327599e-06 -0.050409622189761562 0
2.6367306530052827e-06 -0.051684669818004771 0
2.7699140088519516e-06 -0.053076565781845324 0
2.5759033634338331e-06 -0.054601103237654616 0
2.6844383684007363e-06 -0.056285356659983451 0
2.4253896433967671e-06 -0.05815817029627831 0
2.8520783373849645e-06 -0.060250865972317547 0
3.0743213945651046e-06 -0.062598191429895811 0
3.0078254209588423e-06 -0.06523975192256673 0
3.2486227523138664e-06 -0.068241926485216764 0
3.4523755452355826e-06 -0.071682791001622212 0
3.2438651818557669e-06 -0.075665694739035894 0
3.3819221199491373e-06 -0.080335183456867257 0
3.4908848882705463e-06 -0.086004160202855645 0
3.5019605280880381e-06 -0.093521794926983204 0
3.6914103225434287e-06 -0.10628732957093139 0
2.0970505746410005e-06 -0.041860300441862612 0
2.1335775267513375e-06 -0.042870900346427529 0
2.1413134163125667e-06 -0.043679573792115838 0
2.6037300360260207e-06 -0.044497969887334995 0
2.6088651764256375e-06 -0.045342783179119502 0
2.8707442178232615e-06 -0.046226968373194607 0
3.1901937585237509e-06 -0.04716281583004648 0
3.2476615963522042e-06 -0.048164635855362493 0
3.3935641996414172e-06 -0.049245114783336867 0
3.5550945718523997e-06 -0.050416690408435882 0
3.4522628187128701e-06 -0.051691831606331708 0
3.9327865569719269e-06 -0.053083636198380073 0
2.7402673944831535e-06 -0.054609594369619631 0
2.9988062400678966e-06 -0.056293882895211964 0
3.11947064359179e-06 -0.058166870076944023 0
3.3846849560144695e-06 -0.060259356235627365 0
4.1399541392661453e-06 -0.062605716519642932 0
4.3386061463611845e-06 -0.065247215229515113 0
4.6806740815869449e-06 -0.068251643471000184 0
4.5648036831487312e-06 -0.071692118429890414 0
4.6747798623606248e-06 -0.075677018189326206 0
4.6086890865593315e-06 -0.080347120400775879 0
4.6999443348975235e-06 -0.086017396927782583 0
4.9999452064912402e-06 -0.093535312231391513 0
5.1685819917462779e-06 -0.10630251942617948 0
1.8917961313569777e-06 -0.04185534874799017 0
2.1243002320525374e-06 -0.042866666073000333 0
2.3976849250961706e-06 -0.043675261175291559 0
2.5635423995528976e-06 -0.044493623006807599 0
2.7216506185156592e-06 -0.04533815334281386 0
2.9863577746297277e-06 -0.046222041931544881 0
3.1923781928815277e-06 -0.047157786674296862 0
3.5555629698578222e-06 -0.048159332213685707 0
3.5278351627053826e-06 -0.049239201667713776 0
3.668503060622306e-06 -0.050410709970308151 0
3.7792410477246309e-06 -0.051685261780211766 0
3.9626420911109565e-06 -0.053077073440526694 0
4.5654509359372277e-06 -0.054601783793222121 0
4.8378675010269624e-06 -0.056285748060335053 0
4.9232917199369185e-06 -0.05815781412638503 0
4.8280614598813738e-06 -0.060250186529433356 0
5.3104477443115993e-06 -0.062597406575108705 0
5.10430516501234e-06 -0.065238641807711717 0
5.5652338123966358e-06 -0.068240816190691292 0
5.72004962701664e-06 -0.071681795150973546 0
5.8683659377837045e-06 -0.075664691449113003 0
6.0819285499814277e-06 -0.080334310701776254 0
6.0203815821334732e-06 -0.086003628199463805 0
6.1070911592476387e-06 -0.093521113194015099 0
6.0147816070966984e-06 -0.10628714162829189 0
2.1630823931881396e-06 -0.041844613540700244 0
2.3390042302784785e-06 -0.042854404228265378 0
2.9713367468128178e-06 -0.043661402685823594 0
3.0715547220417183e-06 -0.044478472722346264 0
3.5723546091996142e-06 -0.04532227796493217 0
3.7375193682596734e-06 -0.046205326292547221 0
3.7917261048797313e-06 -0.047139857494313396 0
4.3674474876858509e-06 -0.048139853710760176 0
4.7574590396262478e-06 -0.049218557540871906 0
5.549181575887466e-06 -0.050388388820522101 0
5.341422468855311e-06 -0.051661915718891005 0
4.718795668845241e-06 -0.053052884324068843 0
4.9286460639048815e-06 -0.054576355266870637 0
4.8424592309858586e-06 -0.056258347317214803 0
4.9655493129497207e-06 -0.058128924620054125 0
5.1271272955563152e-06 -0.060218903584831757 0
5.2702950555192013e-06 -0.062563739420772008 0
5.4479932483339921e-06 -0.065202850106509433 0
5.6322825004506002e-06 -0.068202285792814094 0
5.58106964843699e-06 -0.071640264175056576 0
5.7001314574051316e-06 -0.075619959748151819 0
5.9312278242037904e-06 -0.080287128914330694 0
5.7708508081127057e-06 -0.085953537938430941 0
5.9560793044708986e-06 -0.093467981902239192 0
6.0818280590152095e-06 -0.10622806659563239 0
3.8983640824446641e-06 -0.041821523449964038 0
4.1563916391918898e-06 -0.042828198641422947 0
4.2505734865586599e-06 -0.04363358067024628 0
4.4472489919055764e-06 -0.044448683805450508 0
4.4928824129497111e-06 -0.045289811262073515 0
4.6736605518412761e-06 -0.046170148676750962 0
4.7715989945727761e-06 -0.047102901682645665 0
4.9032770208454568e-06 -0.04809957516720767 0
5.0588493437672294e-06 -0.049175505059611692 0
5.1986979900933892e-06 -0.050342019932993677 0
5.5634658841497949e-06 -0.051612234138694507 0
5.5644720942545017e-06 -0.052999272871889706 0
6.1160296758663484e-06 -0.054518048946708475 0
6.3386679793484058e-06 -0.056196100109328323 0
6.5825520962234559e-06 -0.058062160580995913 0
6.7178181396370672e-06 -0.060147597328671289 0
6.7615866369092128e-06 -0.062486937685953939 0
6.8391472442734724e-06 -0.065120193296865581 0
7.0183997011809848e-06 -0.06811279064885839 0
7.0746560272780547e-06 -0.071543811570463592 0
7.4324878956951136e-06 -0.075516211724168475 0
7.5946836985833129e-06 -0.080175973061949096 0
7.7281996895273627e-06 -0.085833960210176072 0
7.9601397292593639e-06 -0.093341725434904599 0
8.1551592551202155e-06 -0.1060851576070059 0
5.9061944624175346e-06 -0.041780673963208427 0
6.3107875477910903e-06 -0.042782583364285393 0
6.8029270621741727e-06 -0.043583635732050062 0
7.0407396711212788e-06 -0.044394215193637898 0
7.404210157456791e-06 -0.045230709030015623 0
7.6904813005833057e-06 -0.046106431562841221 0
7.7836514260497093e-06 -0.047033502246469655 0
7.9592659460625687e-06 -0.048025453355448722 0
8.2368015924883978e-06 -0.049095419573724042 0
8.5959655024026862e-06 -0.050255905239369562 0
8.9142351614781722e-06 -0.05151894652879898 0
9.1733638258759833e-06 -0.052897857601296186 0
1.0031375473097673e-05 -0.054409108813005973 0
1.0250599070680881e-05 -0.056077611189845084 0
1.0448157425553054e-05 -0.057933239245855195 0
1.0485932656046384e-05 -0.060006391859159444 0
1.0772506312011175e-05 -0.062333212999066898 0
1.0996450190873822e-05 -0.064951787103457254 0
1.1331380659455983e-05 -0.06792871283838961 0
1.1716818787511046e-05 -0.071342040691276531 0
1.2052137704224235e-05 -0.075295767111071416 0
1.204347810043258e-05 -0.079934027459908991 0
1.2378289165000903e-05 -0.085571928500189562 0
1.2695655405447731e-05 -0.093056839898981211 0
1.3250738297992688e-05 -0.10575992187133729 0
9.5296150453707527e-06 -0.041719321257944288 0
1.0359133003668875e-05 -0.042714606710951362 0
1.0976992080006402e-05 -0.043509458548355008 0
1.1645306752399057e-05 -0.044313599599706814 0
1.2165870152039564e-05 -0.045143026182494272 0
1.2620651252813236e-05 -0.046010505408545344 0
1.3022345578657489e-05 -0.046928539686299543 0
1.3476388645386255e-05 -0.04791005361934049 0
1.4089607771969993e-05 -0.048968576311402875 0
1.4447765036124509e-05 -0.050115633115822546 0
1.4837578593200614e-05 -0.051364352218858253 0
1.5064324986936567e-05 -0.052727122234180773 0
1.558658120334997e-05 -0.05421910197541964 0
1.5824555595049659e-05 -0.055865818112526062 0
1.5947945752043406e-05 -0.057696135024665002 0
1.6606403787170031e-05 -0.059740775559256339 0
1.6962539495059698e-05 -0.062033737856990581 0
1.7566279950516335e-05 -0.064616213756577001 0
1.7900412359179658e-05 -0.067553409467562456 0
1.8650964543431023e-05 -0.070924531520047934 0
1.9310762473327663e-05 -0.074831226466840539 0
1.9966405414159036e-05 -0.079418668088309746 0
2.0848305314686464e-05 -0.085001709828921038 0
2.1492769200597101e-05 -0.092429180494300156 0
2.2503686659882347e-05 -0.10503930211273532 0
1.9434868146207152e-05 -0.041611277740843201 0
2.0875508576495285e-05 -0.042602344988038929 0
2.1892422653838523e-05 -0.043393626394078615 0
2.2775407623714779e-05 -0.04419240092856614 0
2.3672396739687377e-05 -0.045014239983558094 0
2.4386280887095484e-05 -0.045872166930032959 0
2.5159300120416797e-05 -0.046778406128359776 0
2.5791463044610336e-05 -0.047745334525625654 0
2.6333524900376921e-05 -0.048785890541429011 0
2.7062443431441556e-05 -0.049910808557011889 0
2.7577894949170531e-05 -0.051133919351526787 0
2.7285024946218414e-05 -0.052466018308099431 0
2.7658397804809928e-05 -0.053921389970027836 0
2.8437604326278275e-05 -0.055524891515058829 0
2.9169057763144645e-05 -0.057304023623734303 0
2.9896870893115832e-05 -0.059286707200699514 0
3.0603554495131829e-05 -0.061504065622100097 0
3.1249016239116116e-05 -0.064006383530641586 0
3.1910151769551019e-05 -0.066856559427806259 0
3.2635034626846314e-05 -0.070133528193514608 0
3.3386197170376118e-05 -0.073945509573095994 0
3.4138662652432449e-05 -0.078434476258518598 0
3.5105161833639714e-05 -0.083904590590755182 0
3.5849487324147583e-05 -0.091212364778751373 0
3.6833355852133037e-05 -0.10363479816006985 0
2.9890358546696141e-05 -0.041183980669647458 0
3.1608986745834069e-05 -0.042103016685312973 0
3.2871111620773128e-05 -0.042841831512368575 0
3.4065762614601995e-05 -0.043610024980614406 0
3.5263860707435958e-05 -0.04441291854598154 0
3.6344936967153586e-05 -0.045257811042686627 0
3.7421345317739789e-05 -0.046154642426302545 0
3.826752328043052e-05 -0.047113922223591856 0
3.9340553475040985e-05 -0.048146745340730678 0
4.0354611828746317e-05 -0.049263987650697505 0
4.0927239848199037e-05 -0.050476747533180523 0
4.1651577981826352e-05 -0.05179641133861048 0
4.286064043011401e-05 -0.053236898171579075 0
4.3358102347943272e-05 -0.054822373207743344 0
4.3917408100289354e-05 -0.056580737865119385 0
4.4904286021552934e-05 -0.058540260873336608 0
4.5265790318168535e-05 -0.060735107761157946 0
4.6162434286070507e-05 -0.063222645542672012 0
4.704929687327232e-05 -0.066065462238518571 0
4.8015907031282514e-05 -0.069349145645201421 0
4.9117929577204231e-05 -0.073208263828328249 0
5.0357589598315983e-05 -0.077792577743300464 0
5.1719894650505558e-05 -0.083363249865837638 0
5.3401471929407512e-05 -0.090752978280330632 0
5.6047920753224574e-05 -0.10304352806211883 0
-0 -0 0
-0 -0 0
-0 -0 0
-0 -0 0
-0 -0 0
-0 -0 0
3.2369256864607026e-05 0.041692492701621092 0
3.6696321398772399e-05 0.045091336442410486 0
4.2538791952284552e-05 0.053116240529287179 0
-0 -0 0
-0 -0 0
-0 -0 0
3.3519753089167445e-05 0.043006234379910475 0
3.6527768806789353e-05 0.046150126564440827 0
4.1495299321139558e-05 0.053839780767674136 0
-0 -0 0
-0 -0 0
-0 -0 0
2.7048970014968515e-05 0.043268588125585677 0
3.000164686415499e-05 0.046402709188929171 0
3.4339568669731887e-05 0.054071456673916191 0
-0 -0 0
-0 -0 0
-0 -0 0
1.5342351582585372e-05 0.043513339103336851 0
1.7348076906933469e-05 0.046635009184128121 0
2.019405819070164e-05 0.054358659599947672 0
-0 -0 0
-0 -0 0
-0 -0 0
6.2609930554377176e-06 0.043605644159416576 0
7.3556869266865464e-06 0.046760093565541734 0
8.8464459495699264e-06 0.054567734569506421 0
-0 -0 0
-0 -0 0
-0 -0 0
1.9886723006339749e-06 0.043665137164094273 0
2.4803225728448992e-06 0.046837522565289988 0
3.0875911678228461e-06 0.054694740853481784 0
-0 -0 0
-0 -0 0
-0 -0 0
-1.6712538379518468e-07 0.043703132096450284 0
-1.5418082287994914e-07 0.046885674457894613 0
-2.7135991078847884e-07 0.05476712997717862 0
-0 -0 0
-0 -0 0
-0 -0 0
-1.5814621078431217e-06 0.043723565505350205 0
-1.8903093417347558e-06 0.046911319576013195 0
-2.4108657296086378e-06 0.054803891500986177 0
-0 -0 0
-0 -0 0
-0 -0 0
-2.4258591538948275e-06 0.043732217971555604 0
-2.8600801335567054e-06 0.046922071667871892 0
-3.4632917647054528e-06 0.054818858697421348 0
-0 -0 0
-0 -0 0
-0 -0 0
-2.4244552653107938e-06 0.04373203101865239 0
-2.9741431127177835e-06 0.04692198861178816 0
-3.7873092783847538e-06 0.054818868809005473 0
-0 -0 0
-0 -0 0
-0 -0 0
-2.4791069393936653e-06 0.043723293940928692 0
-3.2065075859366465e-06 0.046911248815848308 0
-4.1808557120454581e-06 0.054803961581557661 0
-0 -0 0
-0 -0 0
-0 -0 0
-3.5899629436235809e-06 0.04370324813518197 0
-4.3016637715845313e-06 0.046885880385384861 0
-5.2761923427011001e-06 0.054767347651917368 0
-0 -0 0
-0 -0 0
-0 -0 0
-5.6084143799324233e-06 0.043665536858841732 0
-6.3978323324268741e-06 0.046838045510545885 0
-7.7058254393285493e-06 0.054695369687924759 0
-0 -0 0
-0 -0 0
-0 -0 0
-8.9553047433340558e-06 0.043605471169189419 0
-1.0393780673528591e-05 0.046760454766158505 0
-1.2502732470094901e-05 0.054568616334819221 0
-0 -0 0
-0 -0 0
-0 -0 0
-1.6265039565021518e-05 0.043512536091783238 0
-1.8515749757128278e-05 0.046634945302580416 0
-2.1665970358959888e-05 0.054359373341195893 0
-0 -0 0
-0 -0 0
-0 -0 0
-2.6484823766462523e-05 0.043268047633420931 0
-2.9439762610639193e-05 0.04640263845179509 0
-3.3784678011765391e-05 0.054071889241793673 0
-0 -0 0
-0 -0 0
-0 -0 0
-3.2335380453647544e-05 0.043005999162363452 0
-3.5300460325122805e-05 0.046150024924346181 0
-4.0238356047357494e-05 0.053839975550896542 0
-0 -0 0
-0 -0 0
-0 -0 0
-3.1198719466005017e-05 0.041692093108570423 0
-3.5382502467015743e-05 0.045090978669958912 0
-4.1165979846078356e-05 0.053116244361981979 0
-0 -0 0
-0 -0 0
-0 -0 0
-0 -0 0
-0 -0 0
-0 -0 0
-0 -0 0
-0 -0 0
-0 -0 0
-0 -0 0
-0 -0 0
-0 -0 0
-0 -0 0
-0 -0 0
-0 -0 0
-0 -0 0
-0 -0 0
-0 -0 0
-0 -0 0
-0 -0 0
-0 -0 0
-0 -0 0
-0 -0 0
-0 -0 0
-0 -0 0
-0 -0 0
-0 -0 0
-0 -0 0
-0 -0 0
-0 -0 0
-0 -0 0
-0 -0 0
-0 -0 0
-0 -0 0
-0 -0 0
-0 -0 0
-0 -0 0
-0 -0 0
-0 -0 0
-0 -0 0
-0 -0 0
-0 -0 0
-0 -0 0
-0 -0 0
-0 -0 0
-0 -0 0
-0 -0 0
-0 -0 0
-0 -0 0
-0 -0 0
-0 -0 0
-0 -0 0
-0 -0 0
-0 -0 0
-0 -0 0
-0 -0 0
-0 -0 0
-0 -0 0
-0 -0 0
-0 -0 0
-0 -0 0
-0 -0 0
-0 -0 0
-0 -0 0
-0 -0 0
-0 -0 0
-0 -0 0
-0 -0 0
-0 -0 0
-0 -0 0
-0 -0 0
-0 -0 0
-0 -0 0
-0 -0 0
-0 -0 0
-0 -0 0
-0 -0 0
-0 -0 0
-0 -0 0
-0 -0 0
-0 -0 0
-0 -0 0
-0 -0 0
-0 -0 0
-0 -0 0
-0 -0 0
-0 -0 0
-0 -0 0
-0 -0 0
-0 -0 0
-0 -0 0
-0 -0 0
-0 -0 0
-0 -0 0
-0 -0 0
-0 -0 0
-0 -0 0
-0 -0 0
-0 -0 0
-0 -0 0
-0 -0 0
-0 -0 0
-0 -0 0
-0 -0 0
-0 -0 0
-0 -0 0
-0 -0 0
-0 -0 0
-0 -0 0
-0 -0 0
-0 -0 0
-0 -0 0
-0 -0 0
-0 -0 0
-0 -0 0
-0 -0 0
-0 -0 0
-0 -0 0
-0 -0 0
-0 -0 0
-0 -0 0
-0 -0 0
-0 -0 0
-0 -0 0
-0 -0 0
-0 -0 0
-0 -0 0
-0 -0 0
-0 -0 0
-0 -0 0
-0 -0 0
-0 -0 0
-0 -0 0
-0 -0 0
-0 -0 0
-0 -0 0
-0 -0 0
-0 -0 0
-0 -0 0
-0 -0 0
-0 -0 0
-0 -0 0
-0 -0 0
-0 -0 0
-0 -0 0
-0 -0 0
-0 -0 0
-0 -0 0
-0 -0 0
-0 -0 0
-0 -0 0
-0 -0 0
-0 -0 0
-0 -0 0
-0 -0 0
-0 -0 0
-0 -0 0
-0 -0 0
-0 -0 0
-0 -0 0
-0 -0 0
-0 -0 0
-0 -0 0
-0 -0 0
-0 -0 0
-0 -0 0
-0 -0 0
-0 -0 0
-0 -0 0
-0 -0 0
-0 -0 0
-0 -0 0
-0 -0 0
-0 -0 0
-0 -0 0
-0 -0 0
-0 -0 0
-0 -0 0
-0 -0 0
-0 -0 0
-0 -0 0
-0 -0 0
-0 -0 0
-0 -0 0
-0 -0 0
-0 -0 0
-0 -0 0
-0 -0 0
-0 -0 0
-0 -0 0
-0 -0 0
-0 -0 0
-0 -0 0
-0 -0 0
-0 -0 0
