# vtk DataFile Version 3.0
SPH particles (WCSPH) - legacy PolyData
ASCII
DATASET POLYDATA
POINTS 681 float
0.049995032370504483 0.030334939400214322 0
0.049994117988098906 0.033400727906308041 0
0.049993393154220141 0.035855276809186556 0
0.049992712921381875 0.03834173635207893 0
0.04999213511142122 0.04084762343996521 0
0.049991640833443172 0.043379433765757723 0
0.049991224230604918 0.045958753164491946 0
0.049990706546720956 0.048617238056466491 0
0.049989985419450045 0.051395348389308704 0
0.049988895706745633 0.054345441686725643 0
0.04998703036836926 0.057537329076037529 0
0.049984712593148226 0.061068824257659887 0
0.049983904390373111 0.065087145705434682 0
0.049985443593405877 0.069851094584250192 0
0.049988367692680488 0.075961074332940678 0
0.049992208440231695 0.085325831019846587 0
0.049996317954969491 0.10080518640100736 0
0.049999006368880293 0.12019629263941298 0
0.049999857448894042 0.14050920467357003 0
0.049999983644384176 0.161244277323117 0
0.049999998198515291 0.18255459548822001 0
0.049999999820373162 0.20478129498735492 0
0.049999999984880063 0.22849576897414922 0
0.04999999999910755 0.25491538553362048 0
0.050000000000000003 0.30392566118783887 0
0.069997588770491365 0.029031238755595396 0
0.069997089780727606 0.032430105528766476 0
0.069996648605603368 0.035191932720298726 0
0.069996266280199476 0.037923583906619512 0
0.069995915863903663 0.040631774829891693 0
0.069995559170940691 0.043337501365656873 0
0.069995200548350886 0.046072878375390876 0
0.069994808738447656 0.048877687388646784 0
0.069994370509620485 0.05179830251052818 0
0.069993643877418715 0.054891442113357045 0
0.069992162948886355 0.058230676679977403 0
0.069989735720194485 0.061916926054431339 0
0.069988336288160313 0.066099994036427648 0
0.069988900068349597 0.071034949325111327 0
0.069990805597965888 0.077258026900980867 0
0.069993524368147389 0.086322255445846527 0
0.069996609652882624 0.10109397541479517 0
0.069999052612096199 0.12024694005603219 0
0.069999857922322092 0.14055009453803119 0
0.069999983387235856 0.16131303768293645 0
0.069999998099087649 0.18267515063393661 0
0.069999999804050667 0.20498199961991087 0
0.069999999983041475 0.22878879139460676 0
0.06999999999896421 0.25524412160956306 0
0.070000000000000007 0.3030463798607077 0
0.089999113048378848 0.029004977282379857 0
0.089998894105709909 0.032413308636302367 0
0.089998751569743282 0.035185026491612086 0
0.089998535763222559 0.037931445260677807 0
0.089998320844107332 0.04065831729340541 0
0.089998096837861655 0.043386035512697145 0
0.089997739714309508 0.046146953241409668 0
0.089997597451871136 0.048981036149502666 0
0.089997434526598849 0.051935231028812923 0
0.089997213627952072 0.05506683573832119 0
0.089996995863819124 0.058449924743401667 0
0.08999640612449232 0.062185262156833704 0
0.089995707929459212 0.066421274342516851 0
0.089995610150935698 0.071408734582479302 0
0.089996363643377569 0.077668382113545001 0
0.089997534274346994 0.086675278676564327 0
0.089998778313597483 0.1012299810867362 0
0.089999612966929543 0.1202766941057042 0
0.089999922054645937 0.14057977486026188 0
0.089999989119628573 0.16136781755769919 0
0.089999998611770368 0.18276916546995908 0
0.089999999846195916 0.20513106557526545 0
0.089999999985987192 0.2289922649128617 0
0.08999999999910642 0.25546874487583665 0
0.090000000000000011 0.30258567863629987 0
0.10999971693886486 0.029028482045674868 0
0.10999958176606715 0.032439845136864938 0
0.10999949763508064 0.03521459412185142 0
0.10999938669455434 0.037964703812509208 0
0.10999926688053079 0.04069592810547952 0
0.10999932030077086 0.043428849516268943 0
0.10999937243304152 0.046195800565554543 0
0.10999931210810809 0.049036928753596429 0
0.10999929362607018 0.051999300974400496 0
0.10999926658340478 0.055140505405696996 0
0.10999914575624932 0.058534833678541807 0
0.10999944932339004 0.062283148301659853 0
0.10999896972179078 0.066533483748084876 0
0.1099986317346483 0.071535617645014538 0
0.10999880080480347 0.077805479835400523 0
0.10999919408075771 0.086795276356421369 0
0.10999959153859386 0.10128438724370366 0
0.10999986390648314 0.12029490027185516 0
0.10999996883243797 0.14060120987906224 0
0.10999999460869549 0.16140465142728372 0
0.10999999921037637 0.18282916465835389 0
0.10999999990377765 0.20522037971739895 0
0.10999999999060431 0.22910879913139032 0
0.10999999999936823 0.25560176599512924 0
0.11000000000000001 0.30232781631604794 0
0.12999993996031847 0.029040106630950198 0
0.12999992382773948 0.032453672378614795 0
0.12999991685929158 0.035230160924935409 0
0.12999991640287176 0.037982050910940028 0
0.1299999801322253 0.04071512153519137 0
0.13000005489044228 0.043449957513247366 0
0.13000012321407944 0.04621913523030937 0
0.13000019262019022 0.049062603501299755 0
0.13000028055291754 0.052027669560306924 0
0.13000041969876427 0.055171944479208507 0
0.13000052623976574 0.058569782241197674 0
0.13000042232753897 0.062321992948385557 0
0.13000017055536953 0.066576737825237126 0
0.12999998475335689 0.071583114861057118 0
0.12999982592984816 0.077855599651232135 0
0.1299997827870554 0.08683887879230838 0
0.12999987781520903 0.10130522766518406 0
0.1299999566799018 0.12030509785065613 0
0.12999998901684023 0.14061500808947666 0
0.12999999778423041 0.16142699100095748 0
0.12999999962999892 0.18286395717788986 0
0.12999999995010439 0.20527036192090112 0
0.12999999999473083 0.22917249861471353 0
0.12999999999962347 0.25567445425403884 0
0.13 0.30219746009459053 0
0.15000009684177232 0.029044836781565081 0
0.15000012400137566 0.032459431813835579 0
0.15000015644223916 0.035236726784106061 0
0.15000020607559886 0.037989429105529049 0
0.15000036567692709 0.040723316778674551 0
0.15000041029396091 0.043458954615893518 0
0.15000040980792917 0.046228961598402812 0
0.15000041140248094 0.0490733698576322 0
0.15000047928530191 0.052039463819252216 0
0.15000054712344776 0.055184884548304183 0
0.1500006369951053 0.058584020016782215 0
0.15000051608779821 0.062337551623031277 0
0.15000048375557612 0.066593848815160464 0
0.1500003372985973 0.071601613450691798 0
0.15000015005458833 0.077874748128675828 0
0.15000002256205153 0.086855398526966721 0
0.14999998588093233 0.10131369912745079 0
0.14999999044587997 0.12031048853616447 0
0.14999999691792346 0.14062289299860148 0
0.14999999924800389 0.16143950736469054 0
0.14999999985646886 0.18288273760827498 0
0.1499999999785003 0.20529648496605871 0
0.14999999999753283 0.22920506592168494 0
0.14999999999981165 0.25571104404633382 0
0.15000000000000002 0.30213803375491571 0
0.17000013425412339 0.029046679067533065 0
0.17000018345323176 0.032461651553058933 0
0.17000021752066069 0.035239299534962833 0
0.17000027279723598 0.037992274356045692 0
0.17000033894232727 0.040726395457908043 0
0.17000046142835065 0.043462369846617846 0
0.17000062726490731 0.046232781986387056 0
0.17000067906885921 0.049077544464533128 0
0.1700007249187323 0.052044030262334978 0
0.17000076838843844 0.055189849683000822 0
0.17000077989334289 0.058589455992840669 0
0.17000068623135126 0.062343535666585764 0
0.17000067300394522 0.066600377812182296 0
0.17000062578069938 0.071608543346568548 0
0.17000018976218409 0.077881919731075153 0
0.17000007582947893 0.086861563340383308 0
0.17000001550881819 0.10131705193052806 0
0.17000000046108771 0.12031305467179619 0
0.16999999945806477 0.14062677188775993 0
0.16999999981292596 0.16144560752963361 0
0.16999999995872075 0.18289169560612659 0
0.16999999999315432 0.20530860550717994 0
0.16999999999914864 0.22921989184305386 0
0.16999999999993087 0.25572739915504977 0
0.17000000000000004 0.30211419230467668 0
0.19000007216395906 0.029047214716506866 0
0.19000008793492812 0.032462267270282716 0
0.19000012592199514 0.035239958782806564 0
0.19000013845364583 0.037992985365390898 0
0.19000020996974565 0.040727173158738222 0
0.19000035832579934 0.04346329512824635 0
0.19000048590587412 0.046233729521714839 0
0.19000048326177546 0.049078562408945002 0
0.19000053689677304 0.052045156918420009 0
0.1900005626231388 0.055191137397083319 0
0.19000041173571164 0.058590875971264132 0
0.19000048444088613 0.062345212794448608 0
0.19000028258943383 0.066602131023855704 0
0.19000018370856317 0.071610488581835843 0
0.19000012553036941 0.077883891482441708 0
0.18999997762356827 0.086863201468112189 0
0.18999999332652853 0.10131792063045306 0
0.18999999992544717 0.12031378947081511 0
0.18999999994671235 0.14062792043712652 0
0.19000000000557579 0.16144740671476573 0
0.19000000000526038 0.18289430706163765 0
0.1900000000010261 0.20531208341993126 0
0.19000000000012549 0.2292240972188935 0
0.19000000000000949 0.25573198240865574 0
0.19 0.30210801786712799 0
0.21000016818485279 0.029046720117394172 0
0.2100002205653195 0.032461705111005892 0
0.21000026165439717 0.0352393234301226 0
0.21000031196979924 0.037992313547395018 0
0.21000040428029521 0.040726467134787434 0
0.21000040911526413 0.043462445319901712 0
0.21000048004093236 0.046232818658993341 0
0.21000049443476124 0.049077598477046736 0
0.21000052480902898 0.052044101199598569 0
0.21000052964172952 0.055189973778651313 0
0.2100004802230411 0.058589615282942945 0
0.21000042209402325 0.062343737440931656 0
0.21000025310819292 0.066600561887647278 0
0.21000007680390356 0.07160875021309801 0
0.21000005078887199 0.077882161293393995 0
0.20999995201120947 0.086861710327336195 0
0.20999994593783602 0.10131702775699705 0
0.20999999717931678 0.1203130360229787 0
0.21000000028871169 0.14062676914411204 0
0.21000000021960952 0.16144560720702364 0
0.21000000005333158 0.18289169556531309 0
0.21000000000895114 0.20530860550268248 0
0.21000000000110058 0.22921989184263883 0
0.21000000000008798 0.25572739915502296 0
0.21000000000000002 0.30211419230467668 0
0.23000019562229754 0.029044920146439401 0
0.23000023096138533 0.032459503480188438 0
0.23000028259429164 0.035236835012320958 0
0.23000033792509003 0.037989473061533045 0
0.23000042477033655 0.040723390443890888 0
0.23000048520096894 0.043459025458486442 0
0.23000054782607882 0.046229047367846686 0
0.23000057211837766 0.049073450046214641 0
0.23000065431553807 0.052039560555525506 0
0.23000070574513065 0.055184970182192358 0
0.23000069234811149 0.058584128125137171 0
0.23000052349284109 0.062337796066640659 0
0.23000038000993181 0.066594126595943895 0
0.2300002453415709 0.071601802775926801 0
0.23000019430797508 0.07787491096079302 0
0.23000009841039368 0.086855469499578231 0
0.23000003556477089 0.10131368430177801 0
0.23000001036431661 0.12031047732023045 0
0.23000000351238595 0.14062288999112466 0
0.23000000083271183 0.16143950685845232 0
0.2300000001579926 0.18288273753490678 0
0.23000000002357684 0.20529648495721711 0
0.23000000000269621 0.22920506592082712 0
0.23000000000020518 0.2557110440462777 0
0.23000000000000004 0.30213803375491577 0
0.25000025630696349 0.029040150332756032 0
0.25000033254948234 0.032453717844125381 0
0.25000037910795136 0.035230264047457112 0
0.25000046946506144 0.037982191531241348 0
0.25000053987144916 0.040715258112954698 0
0.250000600635505 0.043450102314489029 0
0.25000061397512924 0.046219285580928617 0
0.25000071262141438 0.049062759862248534 0
0.25000077615569627 0.052027835113635304 0
0.25000085939856603 0.055172094684720459 0
0.25000087689081102 0.058569972275205426 0
0.25000077361669965 0.062322178462479748 0
0.25000057614508608 0.066577045994380732 0
0.25000066865858611 0.071583209469994927 0
0.25000048189478585 0.077855662786374805 0
0.25000033030345109 0.086838890618590375 0
0.25000015182298568 0.10130519807179038 0
0.25000004931938241 0.12030508332627284 0
0.25000001181534082 0.1406150046201573 0
0.25000000231741626 0.16142699035645761 0
0.25000000038321885 0.18286395707801378 0
0.25000000005149653 0.20527036190819803 0
0.25000000000543271 0.22917249861343544 0
0.25000000000038802 0.25567445425395252 0
0.25000000000000006 0.30219746009459053 0
0.27000037385853648 0.029028491542081626 0
0.2700004638051316 0.032439856104703402 0
0.27000054042807892 0.035214622538483543 0
0.27000064083628983 0.03796476583812293 0
0.27000087878599804 0.040696100326770422 0
0.27000099273724421 0.043429001438268576 0
0.27000109950798956 0.046196058925323379 0
0.27000122387157605 0.049037146010153063 0
0.27000138367407328 0.051999521397234696 0
0.27000150812596158 0.055140713140220912 0
0.27000163138164729 0.058535034028076902 0
0.27000162930430138 0.062283275011799498 0
0.2700019167229456 0.066533707804609432 0
0.27000174614513456 0.071535789357665774 0
0.27000143205732685 0.077805605606534115 0
0.2700009348779791 0.086795320815498442 0
0.27000044308253118 0.1012843549650516 0
0.27000014439114783 0.12029487903311979 0
0.2700000321179481 0.14060120507815455 0
0.27000000546793151 0.16140465063166856 0
0.27000000079558212 0.18282916453856085 0
0.27000000009670916 0.20522037970208276 0
0.27000000000943941 0.22910879912982585 0
0.2700000000006349 0.25560176599502199 0
0.27000000000000002 0.30232781631604794 0
0.29000094358879919 0.02900506130840632 0
0.29000117528366431 0.032413374542636125 0
0.29000136073495536 0.035185116800128112 0
0.29000154746958873 0.037931564260654291 0
0.29000173990481137 0.040658392238791863 0
0.290001980901193 0.043386143141132691 0
0.29000219719873827 0.046147215347186098 0
0.29000244619065862 0.048981358268212066 0
0.29000274791094521 0.051935560511866229 0
0.29000311701520132 0.055067161268723477 0
0.29000355449644788 0.058450244364700331 0
0.29000401476108389 0.062185544464426264 0
0.29000450953174767 0.066421524727365441 0
0.29000445814582254 0.071408996482074258 0
0.2900037150884594 0.07766851379965875 0
0.29000255139003434 0.086675243790234557 0
0.29000126537992421 0.10122989986347054 0
0.29000039644263143 0.12027665444060115 0
0.29000007852755094 0.14057976779305434 0
0.29000001086427324 0.16136781660530181 0
0.29000000138080639 0.1827691653405466 0
0.2900000001527071 0.20513106555923852 0
0.29000000001390708 0.22899226491122787 0
0.2900000000008871 0.25546874487572363 0
0.29000000000000004 0.30258567863629982 0
0.31000254469806404 0.029031342619753094 0
0.31000306470042216 0.03243023408261566 0
0.31000344750751468 0.035192038058146725 0
0.31000381669881155 0.037923783730629219 0
0.31000417822291576 0.040631968179821044 0
0.3100045627372745 0.0433376501291537 0
0.31000495802744704 0.046073144298975702 0
0.31000533953212051 0.048877955851414787 0
0.31000584566194028 0.051798537219465174 0
0.31000656846103214 0.054891643095111374 0
0.31000813089922891 0.058230859955104262 0
0.3100105602958414 0.06191712180660694 0
0.31001180447507681 0.066100228300794109 0
0.31001106312448884 0.071035155770044031 0
0.31000918870921512 0.077258081456421629 0
0.31000652913147503 0.086322121919805733 0
0.31000338146469247 0.10109382411297299 0
0.31000094025828601 0.12024688634208935 0
0.31000014081919247 0.14055008588486292 0
0.31000001644415121 0.16131303668195679 0
0.31000000187875293 0.18267515051097158 0
0.31000000019343515 0.20498199960525013 0
0.31000000001673311 0.22878879139312702 0
0.31000000000102201 0.25524412160946081 0
0.31000000000000005 0.3030463798607077 0
0.33000479578541669 0.030335200133982571 0
0.33000566819408433 0.033400981972678705 0
0.33000635377122256 0.035855518809499616 0
0.33000698334526868 0.038341958533817604 0
0.33000751385858829 0.040847807076882445 0
0.33000797778990465 0.043379574842947195 0
0.33000842401100222 0.045958857644452511 0
0.33000892340088944 0.048617312149187152 0
0.33000951012669549 0.051395374598383704 0
0.33001042970115246 0.054345423008260153 0
0.33001218224959794 0.057537247353672993 0
0.33001452105433016 0.061068709331422 0
0.33001528843393912 0.065086987025616022 0
0.33001372439209953 0.069850846466772559 0
0.33001100979958775 0.075960706919739412 0
0.33000748704718086 0.085325385998325287 0
0.33000360446451632 0.10080498356405131 0
0.33000097541773848 0.12019624997327663 0
0.33000014028325703 0.14050919872381304 0
0.33000001612237928 0.16124427657569196 0
0.33000000177521127 0.18255459539372626 0
0.33000000017687076 0.20478129497616335 0
0.33000000001488144 0.22849576897303334 0
0.3300000000008782 0.25491538553354476 0
0.33000000000000002 0.30392566118783881 0
0 0 0
0 0.020000000000000004 0
0 0.040000000000000001 0
0 0.54999999999999993 0
0 0.56000000000000005 0
0 0.58000000000000007 0
0.02 0 0
0.02 0.020000000000000004 0
0.02 0.040000000000000001 0
0.02 0.54999999999999993 0
0.02 0.56000000000000005 0
0.02 0.58000000000000007 0
0.040000000000000001 0 0
0.040000000000000001 0.020000000000000004 0
0.040000000000000001 0.040000000000000001 0
0.040000000000000001 0.54999999999999993 0
0.040000000000000001 0.56000000000000005 0
0.040000000000000001 0.58000000000000007 0
0.059999999999999998 0 0
0.059999999999999998 0.020000000000000004 0
0.059999999999999998 0.040000000000000001 0
0.059999999999999998 0.54999999999999993 0
0.059999999999999998 0.56000000000000005 0
0.059999999999999998 0.58000000000000007 0
0.080000000000000002 0 0
0.080000000000000002 0.020000000000000004 0
0.080000000000000002 0.040000000000000001 0
0.080000000000000002 0.54999999999999993 0
0.080000000000000002 0.56000000000000005 0
0.080000000000000002 0.58000000000000007 0
0.10000000000000001 0 0
0.10000000000000001 0.020000000000000004 0
0.10000000000000001 0.040000000000000001 0
0.10000000000000001 0.54999999999999993 0
0.10000000000000001 0.56000000000000005 0
0.10000000000000001 0.58000000000000007 0
0.12 0 0
0.12 0.020000000000000004 0
0.12 0.040000000000000001 0
0.12 0.54999999999999993 0
0.12 0.56000000000000005 0
0.12 0.58000000000000007 0
0.14000000000000001 0 0
0.14000000000000001 0.020000000000000004 0
0.14000000000000001 0.040000000000000001 0
0.14000000000000001 0.54999999999999993 0
0.14000000000000001 0.56000000000000005 0
0.14000000000000001 0.58000000000000007 0
0.16 0 0
0.16 0.020000000000000004 0
0.16 0.040000000000000001 0
0.16 0.54999999999999993 0
0.16 0.56000000000000005 0
0.16 0.58000000000000007 0
0.17999999999999999 0 0
0.17999999999999999 0.020000000000000004 0
0.17999999999999999 0.040000000000000001 0
0.17999999999999999 0.54999999999999993 0
0.17999999999999999 0.56000000000000005 0
0.17999999999999999 0.58000000000000007 0
0.20000000000000001 0 0
0.20000000000000001 0.020000000000000004 0
0.20000000000000001 0.040000000000000001 0
0.20000000000000001 0.54999999999999993 0
0.20000000000000001 0.56000000000000005 0
0.20000000000000001 0.58000000000000007 0
0.22 0 0
0.22 0.020000000000000004 0
0.22 0.040000000000000001 0
0.22 0.54999999999999993 0
0.22 0.56000000000000005 0
0.22 0.58000000000000007 0
0.23999999999999999 0 0
0.23999999999999999 0.020000000000000004 0
0.23999999999999999 0.040000000000000001 0
0.23999999999999999 0.54999999999999993 0
0.23999999999999999 0.56000000000000005 0
0.23999999999999999 0.58000000000000007 0
0.26000000000000001 0 0
0.26000000000000001 0.020000000000000004 0
0.26000000000000001 0.040000000000000001 0
0.26000000000000001 0.54999999999999993 0
0.26000000000000001 0.56000000000000005 0
0.26000000000000001 0.58000000000000007 0
0.28000000000000003 0 0
0.28000000000000003 0.020000000000000004 0
0.28000000000000003 0.040000000000000001 0
0.28000000000000003 0.54999999999999993 0
0.28000000000000003 0.56000000000000005 0
0.28000000000000003 0.58000000000000007 0
0.29999999999999999 0 0
0.29999999999999999 0.020000000000000004 0
0.29999999999999999 0.040000000000000001 0
0.29999999999999999 0.54999999999999993 0
0.29999999999999999 0.56000000000000005 0
0.29999999999999999 0.58000000000000007 0
0.32000000000000001 0 0
0.32000000000000001 0.020000000000000004 0
0.32000000000000001 0.040000000000000001 0
0.32000000000000001 0.54999999999999993 0
0.32000000000000001 0.56000000000000005 0
0.32000000000000001 0.58000000000000007 0
0.34000000000000002 0 0
0.34000000000000002 0.020000000000000004 0
0.34000000000000002 0.040000000000000001 0
0.34000000000000002 0.54999999999999993 0
0.34000000000000002 0.56000000000000005 0
0.34000000000000002 0.58000000000000007 0
0.35999999999999999 0 0
0.35999999999999999 0.020000000000000004 0
0.35999999999999999 0.040000000000000001 0
0.35999999999999999 0.54999999999999993 0
0.35999999999999999 0.56000000000000005 0
0.35999999999999999 0.58000000000000007 0
0.38 0 0
0.38 0.020000000000000004 0
0.38 0.040000000000000001 0
0.38 0.54999999999999993 0
0.38 0.56000000000000005 0
0.38 0.58000000000000007 0
0.40000000000000002 0 0
0.40000000000000002 0.020000000000000004 0
0.40000000000000002 0.040000000000000001 0
0.40000000000000002 0.54999999999999993 0
0.40000000000000002 0.56000000000000005 0
0.40000000000000002 0.58000000000000007 0
0.41999999999999998 0 0
0.41999999999999998 0.020000000000000004 0
0.41999999999999998 0.040000000000000001 0
0.41999999999999998 0.54999999999999993 0
0.41999999999999998 0.56000000000000005 0
0.41999999999999998 0.58000000000000007 0
0.44 0 0
0.44 0.020000000000000004 0
0.44 0.040000000000000001 0
0.44 0.54999999999999993 0
0.44 0.56000000000000005 0
0.44 0.58000000000000007 0
0.46000000000000002 0 0
0.46000000000000002 0.020000000000000004 0
0.46000000000000002 0.040000000000000001 0
0.46000000000000002 0.54999999999999993 0
0.46000000000000002 0.56000000000000005 0
0.46000000000000002 0.58000000000000007 0
0.47999999999999998 0 0
0.47999999999999998 0.020000000000000004 0
0.47999999999999998 0.040000000000000001 0
0.47999999999999998 0.54999999999999993 0
0.47999999999999998 0.56000000000000005 0
0.47999999999999998 0.58000000000000007 0
0.5 0 0
0.5 0.020000000000000004 0
0.5 0.040000000000000001 0
0.5 0.54999999999999993 0
0.5 0.56000000000000005 0
0.5 0.58000000000000007 0
0.52000000000000002 0 0
0.52000000000000002 0.020000000000000004 0
0.52000000000000002 0.040000000000000001 0
0.52000000000000002 0.54999999999999993 0
0.52000000000000002 0.56000000000000005 0
0.52000000000000002 0.58000000000000007 0
0.54000000000000004 0 0
0.54000000000000004 0.020000000000000004 0
0.54000000000000004 0.040000000000000001 0
0.54000000000000004 0.54999999999999993 0
0.54000000000000004 0.56000000000000005 0
0.54000000000000004 0.58000000000000007 0
0.56000000000000005 0 0
0.56000000000000005 0.020000000000000004 0
0.56000000000000005 0.040000000000000001 0
0.56000000000000005 0.54999999999999993 0
0.56000000000000005 0.56000000000000005 0
0.56000000000000005 0.58000000000000007 0
0.57999999999999996 0 0
0.57999999999999996 0.020000000000000004 0
0.57999999999999996 0.040000000000000001 0
0.57999999999999996 0.54999999999999993 0
0.57999999999999996 0.56000000000000005 0
0.57999999999999996 0.58000000000000007 0
0.59999999999999998 0 0
0.59999999999999998 0.020000000000000004 0
0.59999999999999998 0.040000000000000001 0
0.59999999999999998 0.54999999999999993 0
0.59999999999999998 0.56000000000000005 0
0.59999999999999998 0.58000000000000007 0
0.62 0 0
0.62 0.020000000000000004 0
0.62 0.040000000000000001 0
0.62 0.54999999999999993 0
0.62 0.56000000000000005 0
0.62 0.58000000000000007 0
0.64000000000000001 0 0
0.64000000000000001 0.020000000000000004 0
0.64000000000000001 0.040000000000000001 0
0.64000000000000001 0.54999999999999993 0
0.64000000000000001 0.56000000000000005 0
0.64000000000000001 0.58000000000000007 0
0.66000000000000003 0 0
0.66000000000000003 0.020000000000000004 0
0.66000000000000003 0.040000000000000001 0
0.66000000000000003 0.54999999999999993 0
0.66000000000000003 0.56000000000000005 0
0.66000000000000003 0.58000000000000007 0
0.68000000000000005 0 0
0.68000000000000005 0.020000000000000004 0
0.68000000000000005 0.040000000000000001 0
0.68000000000000005 0.54999999999999993 0
0.68000000000000005 0.56000000000000005 0
0.68000000000000005 0.58000000000000007 0
0.70000000000000007 0 0
0.70000000000000007 0.020000000000000004 0
0.70000000000000007 0.040000000000000001 0
0.70000000000000007 0.54999999999999993 0
0.70000000000000007 0.56000000000000005 0
0.70000000000000007 0.58000000000000007 0
0.71999999999999997 0 0
0.71999999999999997 0.020000000000000004 0
0.71999999999999997 0.040000000000000001 0
0.71999999999999997 0.54999999999999993 0
0.71999999999999997 0.56000000000000005 0
0.71999999999999997 0.58000000000000007 0
0.73999999999999999 0 0
0.73999999999999999 0.020000000000000004 0
0.73999999999999999 0.040000000000000001 0
0.73999999999999999 0.54999999999999993 0
0.73999999999999999 0.56000000000000005 0
0.73999999999999999 0.58000000000000007 0
0.76000000000000001 0 0
0.76000000000000001 0.020000000000000004 0
0.76000000000000001 0.040000000000000001 0
0.76000000000000001 0.54999999999999993 0
0.76000000000000001 0.56000000000000005 0
0.76000000000000001 0.58000000000000007 0
0.78000000000000003 0 0
0.78000000000000003 0.020000000000000004 0
0.78000000000000003 0.040000000000000001 0
0.78000000000000003 0.54999999999999993 0
0.78000000000000003 0.56000000000000005 0
0.78000000000000003 0.58000000000000007 0
0.80000000000000004 0 0
0.80000000000000004 0.020000000000000004 0
0.80000000000000004 0.040000000000000001 0
0.80000000000000004 0.54999999999999993 0
0.80000000000000004 0.56000000000000005 0
0.80000000000000004 0.58000000000000007 0
0.82000000000000006 0 0
0.82000000000000006 0.020000000000000004 0
0.82000000000000006 0.040000000000000001 0
0.82000000000000006 0.54999999999999993 0
0.82000000000000006 0.56000000000000005 0
0.82000000000000006 0.58000000000000007 0
0.83999999999999997 0 0
0.83999999999999997 0.020000000000000004 0
0.83999999999999997 0.040000000000000001 0
0.83999999999999997 0.54999999999999993 0
0.83999999999999997 0.56000000000000005 0
0.83999999999999997 0.58000000000000007 0
0.85999999999999999 0 0
0.85999999999999999 0.020000000000000004 0
0.85999999999999999 0.040000000000000001 0
0.85999999999999999 0.54999999999999993 0
0.85999999999999999 0.56000000000000005 0
0.85999999999999999 0.58000000000000007 0
0.88 0 0
0.88 0.020000000000000004 0
0.88 0.040000000000000001 0
0.88 0.54999999999999993 0
0.88 0.56000000000000005 0
0.88 0.58000000000000007 0
0.90000000000000002 0 0
0.90000000000000002 0.020000000000000004 0
0.90000000000000002 0.040000000000000001 0
0.90000000000000002 0.54999999999999993 0
0.90000000000000002 0.56000000000000005 0
0.90000000000000002 0.58000000000000007 0
0.92000000000000004 0 0
0.92000000000000004 0.020000000000000004 0
0.92000000000000004 0.040000000000000001 0
0.92000000000000004 0.54999999999999993 0
0.92000000000000004 0.56000000000000005 0
0.92000000000000004 0.58000000000000007 0
0.94000000000000006 0 0
0.94000000000000006 0.020000000000000004 0
0.94000000000000006 0.040000000000000001 0
0.94000000000000006 0.54999999999999993 0
0.94000000000000006 0.56000000000000005 0
0.94000000000000006 0.58000000000000007 0
0.95999999999999996 0 0
0.95999999999999996 0.020000000000000004 0
0.95999999999999996 0.040000000000000001 0
0.95999999999999996 0.54999999999999993 0
0.95999999999999996 0.56000000000000005 0
0.95999999999999996 0.58000000000000007 0
0.97999999999999998 0 0
0.97999999999999998 0.020000000000000004 0
0.97999999999999998 0.040000000000000001 0
0.97999999999999998 0.54999999999999993 0
0.97999999999999998 0.56000000000000005 0
0.97999999999999998 0.58000000000000007 0
1 0 0
1 0.020000000000000004 0
1 0.040000000000000001 0
1 0.54999999999999993 0
1 0.56000000000000005 0
1 0.58000000000000007 0
VERTICES 681 1362
1 0
1 1
1 2
1 3
1 4
1 5
1 6
1 7
1 8
1 9
1 10
1 11
1 12
1 13
1 14
1 15
1 16
1 17
1 18
1 19
1 20
1 21
1 22
1 23
1 24
1 25
1 26
1 27
1 28
1 29
1 30
1 31
1 32
1 33
1 34
1 35
1 36
1 37
1 38
1 39
1 40
1 41
1 42
1 43
1 44
1 45
1 46
1 47
1 48
1 49
1 50
1 51
1 52
1 53
1 54
1 55
1 56
1 57
1 58
1 59
1 60
1 61
1 62
1 63
1 64
1 65
1 66
1 67
1 68
1 69
1 70
1 71
1 72
1 73
1 74
1 75
1 76
1 77
1 78
1 79
1 80
1 81
1 82
1 83
1 84
1 85
1 86
1 87
1 88
1 89
1 90
1 91
1 92
1 93
1 94
1 95
1 96
1 97
1 98
1 99
1 100
1 101
1 102
1 103
1 104
1 105
1 106
1 107
1 108
1 109
1 110
1 111
1 112
1 113
1 114
1 115
1 116
1 117
1 118
1 119
1 120
1 121
1 122
1 123
1 124
1 125
1 126
1 127
1 128
1 129
1 130
1 131
1 132
1 133
1 134
1 135
1 136
1 137
1 138
1 139
1 140
1 141
1 142
1 143
1 144
1 145
1 146
1 147
1 148
1 149
1 150
1 151
1 152
1 153
1 154
1 155
1 156
1 157
1 158
1 159
1 160
1 161
1 162
1 163
1 164
1 165
1 166
1 167
1 168
1 169
1 170
1 171
1 172
1 173
1 174
1 175
1 176
1 177
1 178
1 179
1 180
1 181
1 182
1 183
1 184
1 185
1 186
1 187
1 188
1 189
1 190
1 191
1 192
1 193
1 194
1 195
1 196
1 197
1 198
1 199
1 200
1 201
1 202
1 203
1 204
1 205
1 206
1 207
1 208
1 209
1 210
1 211
1 212
1 213
1 214
1 215
1 216
1 217
1 218
1 219
1 220
1 221
1 222
1 223
1 224
1 225
1 226
1 227
1 228
1 229
1 230
1 231
1 232
1 233
1 234
1 235
1 236
1 237
1 238
1 239
1 240
1 241
1 242
1 243
1 244
1 245
1 246
1 247
1 248
1 249
1 250
1 251
1 252
1 253
1 254
1 255
1 256
1 257
1 258
1 259
1 260
1 261
1 262
1 263
1 264
1 265
1 266
1 267
1 268
1 269
1 270
1 271
1 272
1 273
1 274
1 275
1 276
1 277
1 278
1 279
1 280
1 281
1 282
1 283
1 284
1 285
1 286
1 287
1 288
1 289
1 290
1 291
1 292
1 293
1 294
1 295
1 296
1 297
1 298
1 299
1 300
1 301
1 302
1 303
1 304
1 305
1 306
1 307
1 308
1 309
1 310
1 311
1 312
1 313
1 314
1 315
1 316
1 317
1 318
1 319
1 320
1 321
1 322
1 323
1 324
1 325
1 326
1 327
1 328
1 329
1 330
1 331
1 332
1 333
1 334
1 335
1 336
1 337
1 338
1 339
1 340
1 341
1 342
1 343
1 344
1 345
1 346
1 347
1 348
1 349
1 350
1 351
1 352
1 353
1 354
1 355
1 356
1 357
1 358
1 359
1 360
1 361
1 362
1 363
1 364
1 365
1 366
1 367
1 368
1 369
1 370
1 371
1 372
1 373
1 374
1 375
1 376
1 377
1 378
1 379
1 380
1 381
1 382
1 383
1 384
1 385
1 386
1 387
1 388
1 389
1 390
1 391
1 392
1 393
1 394
1 395
1 396
1 397
1 398
1 399
1 400
1 401
1 402
1 403
1 404
1 405
1 406
1 407
1 408
1 409
1 410
1 411
1 412
1 413
1 414
1 415
1 416
1 417
1 418
1 419
1 420
1 421
1 422
1 423
1 424
1 425
1 426
1 427
1 428
1 429
1 430
1 431
1 432
1 433
1 434
1 435
1 436
1 437
1 438
1 439
1 440
1 441
1 442
1 443
1 444
1 445
1 446
1 447
1 448
1 449
1 450
1 451
1 452
1 453
1 454
1 455
1 456
1 457
1 458
1 459
1 460
1 461
1 462
1 463
1 464
1 465
1 466
1 467
1 468
1 469
1 470
1 471
1 472
1 473
1 474
1 475
1 476
1 477
1 478
1 479
1 480
1 481
1 482
1 483
1 484
1 485
1 486
1 487
1 488
1 489
1 490
1 491
1 492
1 493
1 494
1 495
1 496
1 497
1 498
1 499
1 500
1 501
1 502
1 503
1 504
1 505
1 506
1 507
1 508
1 509
1 510
1 511
1 512
1 513
1 514
1 515
1 516
1 517
1 518
1 519
1 520
1 521
1 522
1 523
1 524
1 525
1 526
1 527
1 528
1 529
1 530
1 531
1 532
1 533
1 534
1 535
1 536
1 537
1 538
1 539
1 540
1 541
1 542
1 543
1 544
1 545
1 546
1 547
1 548
1 549
1 550
1 551
1 552
1 553
1 554
1 555
1 556
1 557
1 558
1 559
1 560
1 561
1 562
1 563
1 564
1 565
1 566
1 567
1 568
1 569
1 570
1 571
1 572
1 573
1 574
1 575
1 576
1 577
1 578
1 579
1 580
1 581
1 582
1 583
1 584
1 585
1 586
1 587
1 588
1 589
1 590
1 591
1 592
1 593
1 594
1 595
1 596
1 597
1 598
1 599
1 600
1 601
1 602
1 603
1 604
1 605
1 606
1 607
1 608
1 609
1 610
1 611
1 612
1 613
1 614
1 615
1 616
1 617
1 618
1 619
1 620
1 621
1 622
1 623
1 624
1 625
1 626
1 627
1 628
1 629
1 630
1 631
1 632
1 633
1 634
1 635
1 636
1 637
1 638
1 639
1 640
1 641
1 642
1 643
1 644
1 645
1 646
1 647
1 648
1 649
1 650
1 651
1 652
1 653
1 654
1 655
1 656
1 657
1 658
1 659
1 660
1 661
1 662
1 663
1 664
1 665
1 666
1 667
1 668
1 669
1 670
1 671
1 672
1 673
1 674
1 675
1 676
1 677
1 678
1 679
1 680
POINT_DATA 681
SCALARS is_boundary int 1
LOOKUP_TABLE default
0
0
0
0
0
0
0
0
0
0
0
0
0
0
0
0
0
0
0
0
0
0
0
0
0
0
0
0
0
0
0
0
0
0
0
0
0
0
0
0
0
0
0
0
0
0
0
0
0
0
0
0
0
0
0
0
0
0
0
0
0
0
0
0
0
0
0
0
0
0
0
0
0
0
0
0
0
0
0
0
0
0
0
0
0
0
0
0
0
0
0
0
0
0
0
0
0
0
0
0
0
0
0
0
0
0
0
0
0
0
0
0
0
0
0
0
0
0
0
0
0
0
0
0
0
0
0
0
0
0
0
0
0
0
0
0
0
0
0
0
0
0
0
0
0
0
0
0
0
0
0
0
0
0
0
0
0
0
0
0
0
0
0
0
0
0
0
0
0
0
0
0
0
0
0
0
0
0
0
0
0
0
0
0
0
0
0
0
0
0
0
0
0
0
0
0
0
0
0
0
0
0
0
0
0
0
0
0
0
0
0
0
0
0
0
0
0
0
0
0
0
0
0
0
0
0
0
0
0
0
0
0
0
0
0
0
0
0
0
0
0
0
0
0
0
0
0
0
0
0
0
0
0
0
0
0
0
0
0
0
0
0
0
0
0
0
0
0
0
0
0
0
0
0
0
0
0
0
0
0
0
0
0
0
0
0
0
0
0
0
0
0
0
0
0
0
0
0
0
0
0
0
0
0
0
0
0
0
0
0
0
0
0
0
0
0
0
0
0
0
0
0
0
0
0
0
0
0
0
0
0
0
0
0
0
0
0
0
0
0
0
0
0
0
0
0
0
0
0
0
0
0
0
0
0
0
0
0
0
0
0
0
0
0
0
0
0
0
0
0
0
0
0
0
0
1
1
1
1
1
1
1
1
1
1
1
1
1
1
1
1
1
1
1
1
1
1
1
1
1
1
1
1
1
1
1
1
1
1
1
1
1
1
1
1
1
1
1
1
1
1
1
1
1
1
1
1
1
1
1
1
1
1
1
1
1
1
1
1
1
1
1
1
1
1
1
1
1
1
1
1
1
1
1
1
1
1
1
1
1
1
1
1
1
1
1
1
1
1
1
1
1
1
1
1
1
1
1
1
1
1
1
1
1
1
1
1
1
1
1
1
1
1
1
1
1
1
1
1
1
1
1
1
1
1
1
1
1
1
1
1
1
1
1
1
1
1
1
1
1
1
1
1
1
1
1
1
1
1
1
1
1
1
1
1
1
1
1
1
1
1
1
1
1
1
1
1
1
1
1
1
1
1
1
1
1
1
1
1
1
1
1
1
1
1
1
1
1
1
1
1
1
1
1
1
1
1
1
1
1
1
1
1
1
1
1
1
1
1
1
1
1
1
1
1
1
1
1
1
1
1
1
1
1
1
1
1
1
1
1
1
1
1
1
1
1
1
1
1
1
1
1
1
1
1
1
1
1
1
1
1
1
1
1
1
1
1
1
1
1
1
1
1
1
1
1
1
1
1
1
1
1
1
1
1
1
1
1
1
1
1
1
1
1
1
1
1
1
1
1
1
1
1
1
1
1
1
1
1
1
1
SCALARS rho float 1
LOOKUP_TABLE default
1020
1020
1020
1020
1020
1020
1020
1020
1020
1020
1020
1020
1020
1020
1020
1020
1020
862
862
850
850
850
850
850
850
1020
1020
1020
1020
1020
1020
1020
1020
1020
1020
1020
1020
1020
1020
1020
1020
1020
880
880
880
880
872.79480343120554
850
850
850
1020
1020
1020
1020
1020
1020
1020
1020
1020
1020
1020
1020
1020
1020
1020
1020
1020
1020
880
880
880
872.12138442398668
862
850
850
1020
1020
1020
1020
1020
1020
1020
1020
1020
1020
1020
1020
1020
1020
1020
1020
1020
1020
880
880
880
871.43250717078809
862
850
850
1020
1020
1020
1020
1020
1020
1020
1020
1020
1020
1020
1020
1020
1020
1020
1020
1020
1020
880
880
880
871.08306839890906
862
850
850
1020
1020
1020
1020
1020
1020
1020
1020
1020
1020
1020
1020
1020
1020
1020
1020
1020
1020
880
880
880
870.91436707407445
862
850
850
1020
1020
1020
1020
1020
1020
1020
1020
1020
1020
1020
1020
1020
1020
1020
1020
1020
1020
880
880
880
870.84156955044102
862
850
850
1020
1020
1020
1020
1020
1020
1020
1020
1020
1020
1020
1020
1020
1020
1020
1020
1020
1020
880
880
880
870.82163774451112
862
850
850
1020
1020
1020
1020
1020
1020
1020
1020
1020
1020
1020
1020
1020
1020
1020
1020
1020
1020
880
880
880
870.84156907894317
862
850
850
1020
1020
1020
1020
1020
1020
1020
1020
1020
1020
1020
1020
1020
1020
1020
1020
1020
1020
880
880
880
870.91436622639549
862
850
850
1020
1020
1020
1020
1020
1020
1020
1020
1020
1020
1020
1020
1020
1020
1020
1020
1020
1020
880
880
880
871.08306727246577
862
850
850
1020
1020
1020
1020
1020
1020
1020
1020
1020
1020
1020
1020
1020
1020
1020
1020
1020
1020
880
880
880
871.43250585202134
862
850
850
1020
1020
1020
1020
1020
1020
1020
1020
1020
1020
1020
1020
1020
1020
1020
1020
1020
1020
880
880
880
872.12138301503069
862
850
850
1020
1020
1020
1020
1020
1020
1020
1020
1020
1020
1020
1020
1020
1020
1020
1020
1020
880
880
880
880
872.79480206645201
850
850
850
1020
1020
1020
1020
1020
1020
1020
1020
1020
1020
1020
1020
1020
1020
1020
1020
1020
862
862
850
850
850
850
850
850
1000
1000
1000
1000
1000
1000
1000
1000
1000
1000
1000
1000
1000
1000
1000
1000
1000
1000
1000
1000
1000
1000
1000
1000
1000
1000
1000
1000
1000
1000
1000
1000
1000
1000
1000
1000
1000
1000
1000
1000
1000
1000
1000
1000
1000
1000
1000
1000
1000
1000
1000
1000
1000
1000
1000
1000
1000
1000
1000
1000
1000
1000
1000
1000
1000
1000
1000
1000
1000
1000
1000
1000
1000
1000
1000
1000
1000
1000
1000
1000
1000
1000
1000
1000
1000
1000
1000
1000
1000
1000
1000
1000
1000
1000
1000
1000
1000
1000
1000
1000
1000
1000
1000
1000
1000
1000
1000
1000
1000
1000
1000
1000
1000
1000
1000
1000
1000
1000
1000
1000
1000
1000
1000
1000
1000
1000
1000
1000
1000
1000
1000
1000
1000
1000
1000
1000
1000
1000
1000
1000
1000
1000
1000
1000
1000
1000
1000
1000
1000
1000
1000
1000
1000
1000
1000
1000
1000
1000
1000
1000
1000
1000
1000
1000
1000
1000
1000
1000
1000
1000
1000
1000
1000
1000
1000
1000
1000
1000
1000
1000
1000
1000
1000
1000
1000
1000
1000
1000
1000
1000
1000
1000
1000
1000
1000
1000
1000
1000
1000
1000
1000
1000
1000
1000
1000
1000
1000
1000
1000
1000
1000
1000
1000
1000
1000
1000
1000
1000
1000
1000
1000
1000
1000
1000
1000
1000
1000
1000
1000
1000
1000
1000
1000
1000
1000
1000
1000
1000
1000
1000
1000
1000
1000
1000
1000
1000
1000
1000
1000
1000
1000
1000
1000
1000
1000
1000
1000
1000
1000
1000
1000
1000
1000
1000
1000
1000
1000
1000
1000
1000
1000
1000
1000
1000
1000
1000
1000
1000
1000
1000
1000
1000
1000
1000
1000
1000
1000
1000
1000
1000
1000
1000
1000
1000
1000
1000
1000
1000
1000
1000
1000
1000
1000
1000
1000
1000
SCALARS p float 1
LOOKUP_TABLE default
25004.681136676067
25004.681136676067
25004.681136676067
25004.681136676067
25004.681136676067
25004.681136676067
25004.681136676067
25004.681136676067
25004.681136676067
25004.681136676067
25004.681136676067
25004.681136676067
25004.681136676067
25004.681136676067
25004.681136676067
25004.681136676067
25004.681136676067
0
0
0
0
0
0
0
0
25004.681136676067
25004.681136676067
25004.681136676067
25004.681136676067
25004.681136676067
25004.681136676067
25004.681136676067
25004.681136676067
25004.681136676067
25004.681136676067
25004.681136676067
25004.681136676067
25004.681136676067
25004.681136676067
25004.681136676067
25004.681136676067
25004.681136676067
0
0
0
0
0
0
0
0
25004.681136676067
25004.681136676067
25004.681136676067
25004.681136676067
25004.681136676067
25004.681136676067
25004.681136676067
25004.681136676067
25004.681136676067
25004.681136676067
25004.681136676067
25004.681136676067
25004.681136676067
25004.681136676067
25004.681136676067
25004.681136676067
25004.681136676067
25004.681136676067
0
0
0
0
0
0
0
25004.681136676067
25004.681136676067
25004.681136676067
25004.681136676067
25004.681136676067
25004.681136676067
25004.681136676067
25004.681136676067
25004.681136676067
25004.681136676067
25004.681136676067
25004.681136676067
25004.681136676067
25004.681136676067
25004.681136676067
25004.681136676067
25004.681136676067
25004.681136676067
0
0
0
0
0
0
0
25004.681136676067
25004.681136676067
25004.681136676067
25004.681136676067
25004.681136676067
25004.681136676067
25004.681136676067
25004.681136676067
25004.681136676067
25004.681136676067
25004.681136676067
25004.681136676067
25004.681136676067
25004.681136676067
25004.681136676067
25004.681136676067
25004.681136676067
25004.681136676067
0
0
0
0
0
0
0
25004.681136676067
25004.681136676067
25004.681136676067
25004.681136676067
25004.681136676067
25004.681136676067
25004.681136676067
25004.681136676067
25004.681136676067
25004.681136676067
25004.681136676067
25004.681136676067
25004.681136676067
25004.681136676067
25004.681136676067
25004.681136676067
25004.681136676067
25004.681136676067
0
0
0
0
0
0
0
25004.681136676067
25004.681136676067
25004.681136676067
25004.681136676067
25004.681136676067
25004.681136676067
25004.681136676067
25004.681136676067
25004.681136676067
25004.681136676067
25004.681136676067
25004.681136676067
25004.681136676067
25004.681136676067
25004.681136676067
25004.681136676067
25004.681136676067
25004.681136676067
0
0
0
0
0
0
0
25004.681136676067
25004.681136676067
25004.681136676067
25004.681136676067
25004.681136676067
25004.681136676067
25004.681136676067
25004.681136676067
25004.681136676067
25004.681136676067
25004.681136676067
25004.681136676067
25004.681136676067
25004.681136676067
25004.681136676067
25004.681136676067
25004.681136676067
25004.681136676067
0
0
0
0
0
0
0
25004.681136676067
25004.681136676067
25004.681136676067
25004.681136676067
25004.681136676067
25004.681136676067
25004.681136676067
25004.681136676067
25004.681136676067
25004.681136676067
25004.681136676067
25004.681136676067
25004.681136676067
25004.681136676067
25004.681136676067
25004.681136676067
25004.681136676067
25004.681136676067
0
0
0
0
0
0
0
25004.681136676067
25004.681136676067
25004.681136676067
25004.681136676067
25004.681136676067
25004.681136676067
25004.681136676067
25004.681136676067
25004.681136676067
25004.681136676067
25004.681136676067
25004.681136676067
25004.681136676067
25004.681136676067
25004.681136676067
25004.681136676067
25004.681136676067
25004.681136676067
0
0
0
0
0
0
0
25004.681136676067
25004.681136676067
25004.681136676067
25004.681136676067
25004.681136676067
25004.681136676067
25004.681136676067
25004.681136676067
25004.681136676067
25004.681136676067
25004.681136676067
25004.681136676067
25004.681136676067
25004.681136676067
25004.681136676067
25004.681136676067
25004.681136676067
25004.681136676067
0
0
0
0
0
0
0
25004.681136676067
25004.681136676067
25004.681136676067
25004.681136676067
25004.681136676067
25004.681136676067
25004.681136676067
25004.681136676067
25004.681136676067
25004.681136676067
25004.681136676067
25004.681136676067
25004.681136676067
25004.681136676067
25004.681136676067
25004.681136676067
25004.681136676067
25004.681136676067
0
0
0
0
0
0
0
25004.681136676067
25004.681136676067
25004.681136676067
25004.681136676067
25004.681136676067
25004.681136676067
25004.681136676067
25004.681136676067
25004.681136676067
25004.681136676067
25004.681136676067
25004.681136676067
25004.681136676067
25004.681136676067
25004.681136676067
25004.681136676067
25004.681136676067
25004.681136676067
0
0
0
0
0
0
0
25004.681136676067
25004.681136676067
25004.681136676067
25004.681136676067
25004.681136676067
25004.681136676067
25004.681136676067
25004.681136676067
25004.681136676067
25004.681136676067
25004.681136676067
25004.681136676067
25004.681136676067
25004.681136676067
25004.681136676067
25004.681136676067
25004.681136676067
0
0
0
0
0
0
0
0
25004.681136676067
25004.681136676067
25004.681136676067
25004.681136676067
25004.681136676067
25004.681136676067
25004.681136676067
25004.681136676067
25004.681136676067
25004.681136676067
25004.681136676067
25004.681136676067
25004.681136676067
25004.681136676067
25004.681136676067
25004.681136676067
25004.681136676067
0
0
0
0
0
0
0
0
0
0
0
0
0
0
12078.740409593018
24960.314449522033
24993.39570070093
0
0
0
24919.455904984476
25001.811491851466
25003.76020765772
0
0
0
24967.359918284532
25003.224503844565
25004.194938911245
0
0
0
24971.757013552247
25003.29662901715
25004.207591096852
0
0
0
24971.788428981035
25003.296298988982
25004.205257751808
0
0
0
24971.629048094615
25003.292972854229
25004.204521785912
0
0
0
24971.549797503616
25003.291251569066
25004.204232157543
0
0
0
24971.517501733735
25003.290535778218
25004.204116900692
0
0
0
24971.506091932919
25003.290286865478
25004.204078636089
0
0
0
24971.505660467345
25003.290275758154
25004.20407550989
0
0
0
24971.517026505197
25003.290528089965
25004.204115836234
0
0
0
24971.549366030609
25003.291249321293
25004.204233766552
0
0
0
24971.628936820169
25003.292973069729
25004.204525522906
0
0
0
24971.787995448754
25003.296288433008
25004.205259009359
0
0
0
24971.756113099218
25003.296611386631
25004.20759066119
0
0
0
24967.358675215721
25003.224496112434
25004.194945498595
0
0
0
24919.448722364916
25001.811402539122
25003.760194628427
0
0
0
12076.271276359559
24960.310485675356
24993.394837554693
0
0
0
0
0
0
0
0
0
0
0
0
0
0
0
0
0
0
0
0
0
0
0
0
0
0
0
0
0
0
0
0
0
0
0
0
0
0
0
0
0
0
0
0
0
0
0
0
0
0
0
0
0
0
0
0
0
0
0
0
0
0
0
0
0
0
0
0
0
0
0
0
0
0
0
0
0
0
0
0
0
0
0
0
0
0
0
0
0
0
0
0
0
0
0
0
0
0
0
0
0
0
0
0
0
0
0
0
0
0
0
0
0
0
0
0
0
0
0
0
0
0
0
0
0
0
0
0
0
0
0
0
0
0
0
0
0
0
0
0
0
0
0
0
0
0
0
0
0
0
0
0
0
0
0
0
0
0
0
0
0
0
0
0
0
0
0
0
0
0
0
0
0
0
0
0
0
0
0
0
0
0
0
0
0
0
0
0
0
0
0
0
0
0
0
SCALARS m float 1
LOOKUP_TABLE default
0.39942306611962441
0.39942306611962441
0.39942306611962441
0.39942306611962441
0.39942306611962441
0.39942306611962441
0.39942306611962441
0.39942306611962441
0.39942306611962441
0.39942306611962441
0.39942306611962441
0.39942306611962441
0.39942306611962441
0.39942306611962441
0.39942306611962441
0.39942306611962441
0.39942306611962441
0.39942306611962441
0.39942306611962441
0.39942306611962441
0.39942306611962441
0.39942306611962441
0.39942306611962441
0.39942306611962441
0.39942306611962441
0.39942306611962441
0.39942306611962441
0.39942306611962441
0.39942306611962441
0.39942306611962441
0.39942306611962441
0.39942306611962441
0.39942306611962441
0.39942306611962441
0.39942306611962441
0.39942306611962441
0.39942306611962441
0.39942306611962441
0.39942306611962441
0.39942306611962441
0.39942306611962441
0.39942306611962441
0.39942306611962441
0.39942306611962441
0.39942306611962441
0.39942306611962441
0.39942306611962441
0.39942306611962441
0.39942306611962441
0.39942306611962441
0.39942306611962441
0.39942306611962441
0.39942306611962441
0.39942306611962441
0.39942306611962441
0.39942306611962441
0.39942306611962441
0.39942306611962441
0.39942306611962441
0.39942306611962441
0.39942306611962441
0.39942306611962441
0.39942306611962441
0.39942306611962441
0.39942306611962441
0.39942306611962441
0.39942306611962441
0.39942306611962441
0.39942306611962441
0.39942306611962441
0.39942306611962441
0.39942306611962441
0.39942306611962441
0.39942306611962441
0.39942306611962441
0.39942306611962441
0.39942306611962441
0.39942306611962441
0.39942306611962441
0.39942306611962441
0.39942306611962441
0.39942306611962441
0.39942306611962441
0.39942306611962441
0.39942306611962441
0.39942306611962441
0.39942306611962441
0.39942306611962441
0.39942306611962441
0.39942306611962441
0.39942306611962441
0.39942306611962441
0.39942306611962441
0.39942306611962441
0.39942306611962441
0.39942306611962441
0.39942306611962441
0.39942306611962441
0.39942306611962441
0.39942306611962441
0.39942306611962441
0.39942306611962441
0.39942306611962441
0.39942306611962441
0.39942306611962441
0.39942306611962441
0.39942306611962441
0.39942306611962441
0.39942306611962441
0.39942306611962441
0.39942306611962441
0.39942306611962441
0.39942306611962441
0.39942306611962441
0.39942306611962441
0.39942306611962441
0.39942306611962441
0.39942306611962441
0.39942306611962441
0.39942306611962441
0.39942306611962441
0.39942306611962441
0.39942306611962441
0.39942306611962441
0.39942306611962441
0.39942306611962441
0.39942306611962441
0.39942306611962441
0.39942306611962441
0.39942306611962441
0.39942306611962441
0.39942306611962441
0.39942306611962441
0.39942306611962441
0.39942306611962441
0.39942306611962441
0.39942306611962441
0.39942306611962441
0.39942306611962441
0.39942306611962441
0.39942306611962441
0.39942306611962441
0.39942306611962441
0.39942306611962441
0.39942306611962441
0.39942306611962441
0.39942306611962441
0.39942306611962441
0.39942306611962441
0.39942306611962441
0.39942306611962441
0.39942306611962441
0.39942306611962441
0.39942306611962441
0.39942306611962441
0.39942306611962441
0.39942306611962441
0.39942306611962441
0.39942306611962441
0.39942306611962441
0.39942306611962441
0.39942306611962441
0.39942306611962441
0.39942306611962441
0.39942306611962441
0.39942306611962441
0.39942306611962441
0.39942306611962441
0.39942306611962441
0.39942306611962441
0.39942306611962441
0.39942306611962441
0.39942306611962441
0.39942306611962441
0.39942306611962441
0.39942306611962441
0.39942306611962441
0.39942306611962441
0.39942306611962441
0.39942306611962441
0.39942306611962441
0.39942306611962441
0.39942306611962441
0.39942306611962441
0.39942306611962441
0.39942306611962441
0.39942306611962441
0.39942306611962441
0.39942306611962441
0.39942306611962441
0.39942306611962441
0.39942306611962441
0.39942306611962441
0.39942306611962441
0.39942306611962441
0.39942306611962441
0.39942306611962441
0.39942306611962441
0.39942306611962441
0.39942306611962441
0.39942306611962441
0.39942306611962441
0.39942306611962441
0.39942306611962441
0.39942306611962441
0.39942306611962441
0.39942306611962441
0.39942306611962441
0.39942306611962441
0.39942306611962441
0.39942306611962441
0.39942306611962441
0.39942306611962441
0.39942306611962441
0.39942306611962441
0.39942306611962441
0.39942306611962441
0.39942306611962441
0.39942306611962441
0.39942306611962441
0.39942306611962441
0.39942306611962441
0.39942306611962441
0.39942306611962441
0.39942306611962441
0.39942306611962441
0.39942306611962441
0.39942306611962441
0.39942306611962441
0.39942306611962441
0.39942306611962441
0.39942306611962441
0.39942306611962441
0.39942306611962441
0.39942306611962441
0.39942306611962441
0.39942306611962441
0.39942306611962441
0.39942306611962441
0.39942306611962441
0.39942306611962441
0.39942306611962441
0.39942306611962441
0.39942306611962441
0.39942306611962441
0.39942306611962441
0.39942306611962441
0.39942306611962441
0.39942306611962441
0.39942306611962441
0.39942306611962441
0.39942306611962441
0.39942306611962441
0.39942306611962441
0.39942306611962441
0.39942306611962441
0.39942306611962441
0.39942306611962441
0.39942306611962441
0.39942306611962441
0.39942306611962441
0.39942306611962441
0.39942306611962441
0.39942306611962441
0.39942306611962441
0.39942306611962441
0.39942306611962441
0.39942306611962441
0.39942306611962441
0.39942306611962441
0.39942306611962441
0.39942306611962441
0.39942306611962441
0.39942306611962441
0.39942306611962441
0.39942306611962441
0.39942306611962441
0.39942306611962441
0.39942306611962441
0.39942306611962441
0.39942306611962441
0.39942306611962441
0.39942306611962441
0.39942306611962441
0.39942306611962441
0.39942306611962441
0.39942306611962441
0.39942306611962441
0.39942306611962441
0.39942306611962441
0.39942306611962441
0.39942306611962441
0.39942306611962441
0.39942306611962441
0.39942306611962441
0.39942306611962441
0.39942306611962441
0.39942306611962441
0.39942306611962441
0.39942306611962441
0.39942306611962441
0.39942306611962441
0.39942306611962441
0.39942306611962441
0.39942306611962441
0.39942306611962441
0.39942306611962441
0.39942306611962441
0.39942306611962441
0.39942306611962441
0.39942306611962441
0.39942306611962441
0.39942306611962441
0.39942306611962441
0.39942306611962441
0.39942306611962441
0.39942306611962441
0.39942306611962441
0.39942306611962441
0.39942306611962441
0.39942306611962441
0.39942306611962441
0.39942306611962441
0.39942306611962441
0.39942306611962441
0.39942306611962441
0.39942306611962441
0.39942306611962441
0.39942306611962441
0.39942306611962441
0.39942306611962441
0.39942306611962441
0.39942306611962441
0.39942306611962441
0.39942306611962441
0.39942306611962441
0.39942306611962441
0.39942306611962441
0.39942306611962441
0.39942306611962441
0.39942306611962441
0.39942306611962441
0.39942306611962441
0.39942306611962441
0.39942306611962441
0.39942306611962441
0.39942306611962441
0.39942306611962441
0.39942306611962441
0.39942306611962441
0.39942306611962441
0.39942306611962441
0.39942306611962441
0.39942306611962441
0.39942306611962441
0.39942306611962441
0.39942306611962441
0.39942306611962441
0.39942306611962441
0.39942306611962441
0.39942306611962441
0.39942306611962441
0.39942306611962441
0.39942306611962441
0.39942306611962441
0.39942306611962441
0.39942306611962441
0.39942306611962441
0.39942306611962441
0.39942306611962441
0.39942306611962441
0.39942306611962441
0.39942306611962441
0.39942306611962441
0.39942306611962441
0.39942306611962441
0.39942306611962441
0.39942306611962441
0.39942306611962441
0.39942306611962441
0.39942306611962441
0.39942306611962441
0.39942306611962441
0.39942306611962441
0.39942306611962441
0.39942306611962441
0.39942306611962441
0.39942306611962441
0.39942306611962441
0.39942306611962441
0.39942306611962441
0.39942306611962441
0.39942306611962441
0.39942306611962441
0.39942306611962441
0.39942306611962441
0.39942306611962441
0.39942306611962441
0.39942306611962441
0.39942306611962441
0.39942306611962441
0.39942306611962441
0.39942306611962441
0.39942306611962441
0.39942306611962441
0.39942306611962441
0.39942306611962441
0.39942306611962441
0.39942306611962441
0.39942306611962441
0.39942306611962441
0.39942306611962441
0.39942306611962441
0.39942306611962441
0.39942306611962441
0.39942306611962441
0.39942306611962441
0.39942306611962441
0.39942306611962441
0.39942306611962441
0.39942306611962441
0.39942306611962441
0.39942306611962441
0.39942306611962441
0.39942306611962441
0.39942306611962441
0.39942306611962441
0.39942306611962441
0.39942306611962441
0.39942306611962441
0.39942306611962441
0.39942306611962441
0.39942306611962441
0.39942306611962441
0.39942306611962441
0.39942306611962441
0.39942306611962441
0.39942306611962441
0.39942306611962441
0.39942306611962441
0.39942306611962441
0.39942306611962441
0.39942306611962441
0.39942306611962441
0.39942306611962441
0.39942306611962441
0.39942306611962441
0.39942306611962441
0.39942306611962441
0.39942306611962441
0.39942306611962441
0.39942306611962441
0.39942306611962441
0.39942306611962441
0.39942306611962441
0.39942306611962441
0.39942306611962441
0.39942306611962441
0.39942306611962441
0.39942306611962441
0.39942306611962441
0.39942306611962441
0.39942306611962441
0.39942306611962441
0.39942306611962441
0.39942306611962441
0.39942306611962441
0.39942306611962441
0.39942306611962441
0.39942306611962441
0.39942306611962441
0.39942306611962441
0.39942306611962441
0.39942306611962441
0.39942306611962441
0.39942306611962441
0.39942306611962441
0.39942306611962441
0.39942306611962441
0.39942306611962441
0.39942306611962441
0.39942306611962441
0.39942306611962441
0.39942306611962441
0.39942306611962441
0.39942306611962441
0.39942306611962441
0.39942306611962441
0.39942306611962441
0.39942306611962441
0.39942306611962441
0.39942306611962441
0.39942306611962441
0.39942306611962441
0.39942306611962441
0.39942306611962441
0.39942306611962441
0.39942306611962441
0.39942306611962441
0.39942306611962441
0.39942306611962441
0.39942306611962441
0.39942306611962441
0.39942306611962441
0.39942306611962441
0.39942306611962441
0.39942306611962441
0.39942306611962441
0.39942306611962441
0.39942306611962441
0.39942306611962441
0.39942306611962441
0.39942306611962441
0.39942306611962441
0.39942306611962441
0.39942306611962441
0.39942306611962441
0.39942306611962441
0.39942306611962441
0.39942306611962441
0.39942306611962441
0.39942306611962441
0.39942306611962441
0.39942306611962441
0.39942306611962441
0.39942306611962441
0.39942306611962441
0.39942306611962441
0.39942306611962441
0.39942306611962441
0.39942306611962441
0.39942306611962441
0.39942306611962441
0.39942306611962441
0.39942306611962441
0.39942306611962441
0.39942306611962441
0.39942306611962441
0.39942306611962441
0.39942306611962441
0.39942306611962441
0.39942306611962441
0.39942306611962441
0.39942306611962441
0.39942306611962441
0.39942306611962441
0.39942306611962441
0.39942306611962441
0.39942306611962441
0.39942306611962441
0.39942306611962441
0.39942306611962441
0.39942306611962441
0.39942306611962441
0.39942306611962441
0.39942306611962441
0.39942306611962441
0.39942306611962441
0.39942306611962441
0.39942306611962441
0.39942306611962441
0.39942306611962441
0.39942306611962441
0.39942306611962441
0.39942306611962441
0.39942306611962441
0.39942306611962441
0.39942306611962441
0.39942306611962441
0.39942306611962441
0.39942306611962441
0.39942306611962441
0.39942306611962441
0.39942306611962441
0.39942306611962441
0.39942306611962441
0.39942306611962441
0.39942306611962441
0.39942306611962441
0.39942306611962441
0.39942306611962441
0.39942306611962441
0.39942306611962441
0.39942306611962441
0.39942306611962441
0.39942306611962441
0.39942306611962441
0.39942306611962441
0.39942306611962441
0.39942306611962441
0.39942306611962441
0.39942306611962441
0.39942306611962441
0.39942306611962441
0.39942306611962441
0.39942306611962441
0.39942306611962441
0.39942306611962441
0.39942306611962441
0.39942306611962441
0.39942306611962441
0.39942306611962441
0.39942306611962441
0.39942306611962441
0.39942306611962441
0.39942306611962441
0.39942306611962441
0.39942306611962441
0.39942306611962441
0.39942306611962441
0.39942306611962441
0.39942306611962441
0.39942306611962441
0.39942306611962441
0.39942306611962441
0.39942306611962441
0.39942306611962441
0.39942306611962441
0.39942306611962441
0.39942306611962441
0.39942306611962441
0.39942306611962441
0.39942306611962441
0.39942306611962441
0.39942306611962441
0.39942306611962441
0.39942306611962441
0.39942306611962441
0.39942306611962441
0.39942306611962441
0.39942306611962441
0.39942306611962441
0.39942306611962441
0.39942306611962441
0.39942306611962441
0.39942306611962441
0.39942306611962441
0.39942306611962441
0.39942306611962441
0.39942306611962441
0.39942306611962441
0.39942306611962441
0.39942306611962441
0.39942306611962441
0.39942306611962441
0.39942306611962441
0.39942306611962441
0.39942306611962441
0.39942306611962441
0.39942306611962441
0.39942306611962441
0.39942306611962441
0.39942306611962441
0.39942306611962441
0.39942306611962441
0.39942306611962441
0.39942306611962441
0.39942306611962441
0.39942306611962441
0.39942306611962441
0.39942306611962441
0.39942306611962441
0.39942306611962441
0.39942306611962441
0.39942306611962441
0.39942306611962441
0.39942306611962441
0.39942306611962441
0.39942306611962441
0.39942306611962441
0.39942306611962441
0.39942306611962441
0.39942306611962441
0.39942306611962441
0.39942306611962441
0.39942306611962441
0.39942306611962441
0.39942306611962441
0.39942306611962441
0.39942306611962441
0.39942306611962441
VECTORS v float
-6.9596926646133404e-05 -0.08904070746814001 0
-7.8860184697158122e-05 -0.10208280913328371 0
-8.6147984248038879e-05 -0.1131937171088256 0
-9.3698770189826287e-05 -0.12536906693774913 0
-0.00010098939488411364 -0.13882432728590918 0
-0.00010807329526913177 -0.15393593409620715 0
-0.00011498909104219142 -0.17139897066106863 0
-0.00012158227676241097 -0.19211927693132128 0
-0.0001291559568940797 -0.21738706793472573 0
-0.00013772406970774848 -0.24908539102542376 0
-0.00014809097553354034 -0.2900552863692667 0
-0.0001603992829856129 -0.34460642365926675 0
-0.0001771746371226402 -0.42160446884256625 0
-0.00019930785277550992 -0.54268709477423693 0
-0.00023960982465081031 -0.78081014672194138 0
-0.00031930791081090116 -1.3681423586229879 0
-0.00029592447948136676 -2.0713341267747243 0
-0.00013595823007250875 -2.269411702635689 0
-2.9366080117948635e-05 -2.2885870167643274 0
-3.1322851850567203e-06 -2.284924596530431 0
-3.4346217406338822e-07 -2.2769793532381311 0
-3.4725782992016962e-08 -2.2668007306077897 0
-2.9843594768632409e-09 -2.2551249474704376 0
-1.8194959242371931e-10 -2.2432933470794159 0
-5.2443487799885692e-18 -2.1040932325588435 0
-4.0090063478576146e-05 -0.093374427426737752 0
-4.6474101041388319e-05 -0.10706509834678568 0
-5.1377601636925446e-05 -0.11887881396700066 0
-5.7374024039359421e-05 -0.13159629154344585 0
-6.1863136825801842e-05 -0.14556081182236269 0
-6.6486085066913027e-05 -0.16122360763003199 0
-7.1319502368553928e-05 -0.17929904449864872 0
-7.6058959743716706e-05 -0.20073703105123936 0
-8.2173116969254663e-05 -0.22691693056059664 0
-8.8658306021393858e-05 -0.259765166335439 0
-9.633462195951845e-05 -0.30214293925426494 0
-0.0001051810329833765 -0.3583022232843176 0
-0.00011575562784430898 -0.43691890083035273 0
-0.00013126003231152768 -0.55766198430566372 0
-0.00015476144613364707 -0.77722976242621034 0
-0.00020523593359490726 -1.2903390889518818 0
-0.00024058207779877007 -2.0118425524615424 0
-0.00012951037473905489 -2.2605595995977454 0
-3.0287901448982243e-05 -2.2873511728011935 0
-3.1925955574157615e-06 -2.2844663529727014 0
-3.5794058260271115e-07 -2.2766047530912035 0
-3.7406103232287404e-08 -2.2664830017963138 0
-3.3142328828522789e-09 -2.2549854620884227 0
-2.095630571142985e-10 -2.2435285599028387 0
-1.2078647587194955e-17 -2.1052362038315415 0
-2.0475807140949264e-05 -0.093980564233173997 0
-2.3583045856800708e-05 -0.10774018360175219 0
-2.5691438831265771e-05 -0.11963110720356392 0
-2.8297137846820293e-05 -0.13246574733509756 0
-3.0532283058173971e-05 -0.14658428161328399 0
-2.9695390985917439e-05 -0.16245009634474727 0
-3.2247141805881461e-05 -0.18079669874940216 0
-3.4803623098814236e-05 -0.20257521142135931 0
-3.9003842735807908e-05 -0.22916795104956333 0
-4.3200050416270598e-05 -0.26251971026529086 0
-4.8514076607736265e-05 -0.30547345916493779 0
-5.2886920064126884e-05 -0.3621997062233398 0
-6.0690863155352338e-05 -0.44120801283263661 0
-6.9964706449514186e-05 -0.56160557155511792 0
-8.1925090709636823e-05 -0.77714626683861421 0
-9.615687567267423e-05 -1.2705751862832013 0
-8.8338686712456681e-05 -1.9871078083058371 0
-4.8916358152757665e-05 -2.256027903569469 0
-1.36779399736262e-05 -2.286723387218065 0
-1.9922846597594255e-06 -2.2840221366774882 0
-2.5356179640133274e-07 -2.276162881037771 0
-2.8765390912626519e-08 -2.2660276573069389 0
-2.703023004503628e-09 -2.2545677358419152 0
-1.7905685136334841e-10 -2.2432245006677847 0
-2.4101922228978924e-17 -2.1069743586783458 0
-6.1846043383718596e-06 -0.093995822290497216 0
-7.3659312039829342e-06 -0.10778537488909004 0
-8.1299902386738143e-06 -0.11970475194177219 0
-8.4930731379174819e-06 -0.13257382670803711 0
-1.0538501746504767e-05 -0.14673234635130075 0
-1.0989972532707164e-05 -0.16264970504150972 0
-1.0672477706336846e-05 -0.18106234054175591 0
-1.427328558265245e-05 -0.20292499903427688 0
-1.5692734457055664e-05 -0.22962298431080966 0
-1.8253287811712095e-05 -0.26310264941242795 0
-2.0017779260372608e-05 -0.30620500342067652 0
-2.2076676312464924e-05 -0.36307958354196734 0
-2.6286812617692851e-05 -0.44220428600062156 0
-3.0335760685234068e-05 -0.5625121288296735 0
-3.5507878882090901e-05 -0.77689532142330331 0
-3.765080809670291e-05 -1.2645756516896489 0
-3.2196198028314966e-05 -1.9784182376250277 0
-1.5429169252179499e-05 -2.2539841877216618 0
-4.6979495836981994e-06 -2.2863114215581843 0
-8.9910508427762279e-07 -2.2836792091249194 0
-1.3717441125635737e-07 -2.2757743098579679 0
-1.7482859509204106e-08 -2.2655872832168309 0
-1.7819569194529789e-09 -2.2540949616151784 0
-1.2529999061230176e-10 -2.2427304822865333 0
-3.3030668332526958e-17 -2.108689397128658 0
-4.5054837406505531e-07 -0.093946309910234171 0
-4.7711161885667849e-07 -0.10775038386033611 0
-7.4554932779107096e-07 -0.11967844668568797 0
-9.0314577649267355e-07 -0.1325568263294663 0
-1.7649971803040899e-06 -0.1467271320615918 0
-2.5791614495277905e-06 -0.16265865192377624 0
-3.1442520391219887e-06 -0.18109167123730874 0
-4.1299338659027706e-06 -0.20297971435801015 0
-5.1628524396790097e-06 -0.22970686616371883 0
-5.7599572559012705e-06 -0.26322054917559845 0
-6.821701538917549e-06 -0.30636062799971003 0
-7.4807070609968671e-06 -0.36326728618007059 0
-8.4077118918541811e-06 -0.44240720781025666 0
-9.8210193018228791e-06 -0.5626667980931952 0
-1.1047028730156964e-05 -0.77664024069238946 0
-1.1850159002171816e-05 -1.2624336413492769 0
-8.1484562715295297e-06 -1.9755656700409647 0
-4.4349057986891593e-06 -2.2531886739001581 0
-1.4915206263318382e-06 -2.2860526672771533 0
-3.3824726457569561e-07 -2.2834416641976922 0
-6.1027473840836362e-08 -2.2754837751571872 0
-8.7966556589560693e-09 -2.2652342228108093 0
-9.8215268096850846e-10 -2.2536867632841808 0
-7.3994144839181461e-11 -2.2422685558235571 0
-3.117422855900904e-17 -2.109998112000933 0
2.0941863428448929e-06 -0.093913359372623934 0
2.7099946155489955e-06 -0.10771732774183823 0
2.5769192191898258e-06 -0.11964936989924574 0
3.0904306394489427e-06 -0.13253214078319045 0
4.2915965291295276e-06 -0.1467046156336782 0
4.0627086503585176e-06 -0.16264119491010257 0
4.3514844478930707e-06 -0.18107970238325607 0
4.761692512991444e-06 -0.20297503293159333 0
3.9388107336175821e-06 -0.22971100515115661 0
3.222495524510912e-06 -0.26323494964028926 0
2.6974621216480739e-06 -0.30638574200505325 0
2.3756806620669795e-06 -0.36329743654754387 0
2.0465697776603998e-06 -0.44244277165741208 0
-1.509260908089901e-07 -0.56266582119898412 0
-5.5034984719795957e-07 -0.7764766082428296 0
-1.3192357179148973e-06 -1.2615963275524396 0
-1.376696798271096e-06 -1.9745233123200427 0
-9.5826238456137376e-07 -2.2528748825916698 0
-3.8675653996141707e-07 -2.2859095440321386 0
-1.0904014582461584e-07 -2.2832887112888458 0
-2.2950823753115097e-08 -2.275290198725985 0
-3.7165042259253858e-09 -2.264991807580619 0
-4.544242342684877e-10 -2.2533975958015655 0
-3.6771560615954106e-11 -2.2419361225424805 0
-2.1068478716722155e-17 -2.1108182276231333 0
3.3184532852770237e-06 -0.093895338743334222 0
4.0669146177070361e-06 -0.10770008088240393 0
4.4346759980798181e-06 -0.11963298545926884 0
6.040562821031142e-06 -0.13251678069980752 0
6.4111075191118627e-06 -0.14669125134577762 0
6.0987425608289792e-06 -0.16262938705342206 0
7.6424460569011771e-06 -0.18106985006495388 0
7.3004955924272628e-06 -0.20296593414926153 0
6.9815702132952787e-06 -0.22970445270691983 0
6.6317225548936052e-06 -0.26323044069699625 0
6.537269402475951e-06 -0.30638312010121771 0
6.0275046614787855e-06 -0.36329587137456343 0
5.4274388725387429e-06 -0.44243839253161632 0
6.9417598992389409e-06 -0.56264610501842705 0
5.7540122756787538e-06 -0.77639313168738244 0
4.0758687909757674e-06 -1.2612725034380283 0
1.1219113199513858e-06 -1.9741424672417167 0
6.5993545989364743e-08 -2.2527518985704673 0
-6.4808470819783875e-08 -2.2858378796286178 0
-2.7752790835109317e-08 -2.2832046074624301 0
-6.8394540555533499e-09 -2.2751814985310808 0
-1.2034946972137316e-09 -2.2648546500085938 0
-1.5796114908555782e-10 -2.2532328176200886 0
-1.3578735653979041e-11 -2.2417473588640715 0
-9.2301711298493453e-18 -2.1112363745808054 0
3.4233404278987639e-06 -0.093890750739904452 0
3.9431296851901254e-06 -0.10769539787546176 0
6.1233856050094341e-06 -0.11962738104434627 0
7.1730195690257362e-06 -0.13251120412290548 0
8.2305779866533224e-06 -0.14668590569199746 0
1.0344171362552591e-05 -0.16262403294716529 0
9.8120238129229455e-06 -0.18106506980936921 0
9.714124303079381e-06 -0.20296327504809308 0
1.0134153206180986e-05 -0.22970411250000888 0
1.0232340705982683e-05 -0.26323004102481656 0
1.001818027935748e-05 -0.30638505685097694 0
1.0298233513105355e-05 -0.36329965165913719 0
8.4560383389608733e-06 -0.44243974859648499 0
8.711618077707635e-06 -0.56264738363657618 0
7.7078960631631082e-06 -0.77637943105537977 0
4.2930317138051992e-06 -1.2611872095746319 0
7.7690496766070226e-07 -1.9740430640449675 0
1.5726939355791943e-06 -2.2527196595565067 0
2.4318557035870481e-07 -2.2858165659671541 0
-2.2570663304533966e-09 -2.2831779637821423 0
5.3097543466887453e-11 -2.2751467269361636 0
1.0088957415770046e-10 -2.2648107552151373 0
1.7762831286682109e-11 -2.2531801295774319 0
1.6313505558505001e-12 -2.2416873507699728 0
1.5175586742212619e-18 -2.1113609232699351 0
2.6462079523625888e-06 -0.093894815682265778 0
3.3798082001701019e-06 -0.10769931280888527 0
3.5702396065987303e-06 -0.11963214356567685 0
4.2861085861294901e-06 -0.13251613717335456 0
4.1175264278518248e-06 -0.14669127133737742 0
3.9247379858091205e-06 -0.16262917838726257 0
4.2503015010273092e-06 -0.18106886490846708 0
5.2298002984390692e-06 -0.20296581614206499 0
5.7021675561990772e-06 -0.22970444325256625 0
6.3421668137383262e-06 -0.26323154744636951 0
6.8908903330437983e-06 -0.30638619144842338 0
7.6092765029392221e-06 -0.36329919244001935 0
8.3423381319718501e-06 -0.44244361591438441 0
8.7946137191374954e-06 -0.56265471273122425 0
8.161938454565528e-06 -0.77640469674909118 0
3.9536763192803485e-06 -1.2612723406765822 0
-3.0193642816140804e-06 -1.9741364093042946 0
4.0345866991026266e-07 -2.252751652494756 0
-2.0831321502513237e-08 -2.2858383623588514 0
2.333064801619522e-08 -2.2832046453168315 0
7.3554193121894799e-09 -2.2751815050648014 0
1.4279644409743785e-09 -2.2648546508241147 0
1.9364461519475153e-10 -2.2532328177016967 0
1.6765126503906217e-11 -2.2417473588696599 0
1.209609398481492e-17 -2.1112363745808054 0
4.3057564500054826e-06 -0.093912093357951101 0
5.1437076730758905e-06 -0.10771651518367248 0
5.6874950547179047e-06 -0.11964860298769517 0
6.3807979268623069e-06 -0.1325312645006351 0
7.5695403670305767e-06 -0.14670555774141808 0
1.0915174908414102e-05 -0.16264146134247581 0
9.8134428717848693e-06 -0.18107982485224164 0
9.9788591771438896e-06 -0.20297443173213323 0
1.0634619625813242e-05 -0.22971125946527321 0
9.7800303325839749e-06 -0.26323406146555844 0
1.1864372912702049e-05 -0.30638549740850324 0
1.1396084076897217e-05 -0.36329846320467712 0
1.2798128338589532e-05 -0.44244806748729271 0
1.3552899668247566e-05 -0.5626703899681661 0
1.3696013668050635e-05 -0.77647796265317859 0
1.1307288652734292e-05 -1.2615889166011576 0
3.4308401370895729e-06 -1.9745157623079992 0
8.5687473129265542e-07 -2.2528730988385171 0
4.5393698014580947e-07 -2.285909733952189 0
1.1579327895192438e-07 -2.2832887742336392 0
2.4383914294314794e-08 -2.2752902095732015 0
3.974686007904327e-09 -2.2649918090505485 0
4.8816970210841254e-10 -2.2533975959581216 0
3.9601470669279071e-11 -2.2419361225536534 0
2.3402528420980775e-17 -2.1108182276231338 0
5.6316551729186295e-06 -0.093947703259962087 0
6.3802115459251465e-06 -0.10774815897599535 0
7.2658622039509702e-06 -0.11967745607698564 0
8.9274380420043902e-06 -0.13255684569953927 0
1.0971432056738696e-05 -0.14672581765072853 0
1.3750602451519851e-05 -0.16265686542868277 0
1.4093891303779501e-05 -0.18108904350521246 0
1.5476411808761922e-05 -0.20297746269346734 0
1.5646226793099528e-05 -0.22970444947286509 0
1.6042828431027008e-05 -0.2632185557689577 0
1.7654638439319262e-05 -0.30635921111856762 0
1.7578870280133538e-05 -0.36326420659594755 0
1.9814390268694135e-05 -0.44241245282871738 0
2.1626388121385067e-05 -0.56266237847184397 0
2.3377627855120603e-05 -0.77663007072042345 0
2.3494124174962975e-05 -1.2624194971663378 0
1.4173415404000611e-05 -1.9755594677301473 0
5.8028488434695214e-06 -2.2531889394043176 0
1.6916523270487351e-06 -2.2860529796377622 0
3.564311201578509e-07 -2.2834417442557751 0
6.2995493227595587e-08 -2.2754837890505226 0
9.0277946785942687e-09 -2.2652342247779282 0
1.0070260477356023e-09 -2.2536867635031066 0
7.5945412600053523e-11 -2.2422685558397393 0
3.2661385081465223e-17 -2.1099981120009335 0
8.9303059973732437e-06 -0.093998809957010543 0
1.0768450323250816e-05 -0.10778797396991019 0
1.2284644567011683e-05 -0.11970674442375197 0
1.3339924122664243e-05 -0.13257694189698493 0
1.5570272091343476e-05 -0.1467339692473881 0
1.7133833447957496e-05 -0.16265071591585256 0
1.9382765722740025e-05 -0.18106282010664693 0
2.0707727731401131e-05 -0.20292479930894336 0
2.2983564129513875e-05 -0.22962190711474645 0
2.5077293953082928e-05 -0.26310009149312491 0
2.7514921927713219e-05 -0.30620299910911725 0
3.0389381176996366e-05 -0.36307513510794392 0
3.3680013570854052e-05 -0.44219931242486682 0
3.7974959139305047e-05 -0.562505313883361 0
4.3209867956193076e-05 -0.77688341007437567 0
4.6065511407905478e-05 -1.2645565784313313 0
3.5138148885511546e-05 -1.9784128012957658 0
1.7066578916974199e-05 -2.2539859881959106 0
4.960339636964109e-06 -2.2863121415750443 0
9.2103416541710857e-07 -2.2836793251870842 0
1.3865769441649759e-07 -2.2757743271262969 0
1.7577645010690214e-08 -2.2655872855569106 0
1.7884739064345953e-09 -2.254094961875841 0
1.2578274436565598e-10 -2.2427304823060963 0
3.3647738977399303e-17 -2.1086893971286584 0
1.9972979994785477e-05 -0.093984515408808172 0
2.3728837700799936e-05 -0.10774358117131362 0
2.6381559733412262e-05 -0.11963470484881573 0
2.9218375804665619e-05 -0.13247009504861226 0
3.2261609575655681e-05 -0.14658803077510518 0
3.5745473431266877e-05 -0.16245326083766018 0
3.9324579046167316e-05 -0.18079941698557578 0
4.5718678965217353e-05 -0.20257642403808504 0
4.7572927780094644e-05 -0.22917082300072375 0
5.2333130362896376e-05 -0.26252173994627859 0
5.6813574801092296e-05 -0.30547691227309876 0
6.152476246606506e-05 -0.36220107915416089 0
6.5537689671687401e-05 -0.44120708683834181 0
7.4100294728703681e-05 -0.56160554304063093 0
8.6444407149179552e-05 -0.77713691362165749 0
0.00010240051710876016 -1.270554946130197 0
9.4178423733490548e-05 -1.9871058292207175 0
5.1075625701932081e-05 -2.2560326523443712 0
1.3972154241024852e-05 -2.2867248166725371 0
2.0023534140286402e-06 -2.2840223103890396 0
2.5313107602712028e-07 -2.2761629018227887 0
2.8618388775018229e-08 -2.2660276598452094 0
2.6847654999140591e-09 -2.2545677361154888 0
1.7779209169306929e-10 -2.2432245006882656 0
2.4195915371434485e-17 -2.1069743586783463 0
4.2389835253806546e-05 -0.093376984201015423 0
4.8874994657472272e-05 -0.10706764084891313 0
5.3698389011534323e-05 -0.11888082413815465 0
5.8521146293383824e-05 -0.13159800738937097 0
6.3226782597959372e-05 -0.14556249741926316 0
6.7955241565796198e-05 -0.1612251957521513 0
7.1893937408898644e-05 -0.17930337281863717 0
7.7192232542935986e-05 -0.20074202429493745 0
8.3106047378384107e-05 -0.22692284856508363 0
8.9758122331739604e-05 -0.25977087445140112 0
9.7398301635577753e-05 -0.30214939373935068 0
0.00010663077068474623 -0.35830843220865116 0
0.00011785641934999226 -0.43692281588552645 0
0.00013345208799536441 -0.5576643178956453 0
0.00015935011737571299 -0.77721942356229223 0
0.00021286776848275616 -1.290320320406285 0
0.00024349262680468088 -2.0118500835988078 0
0.00012903886986032374 -2.2605677906939592 0
3.0072802971761398e-05 -2.2873531822889981 0
3.1678581220479706e-06 -2.2844665633044401 0
3.5470691604936647e-07 -2.2766047747477951 0
3.7008751992962014e-08 -2.2664830042324335 0
3.2747874385114486e-09 -2.254985462341546 0
2.0695943039467547e-10 -2.2435285599215495 0
1.2030431020221972e-17 -2.105236203831542 0
6.7556444555980585e-05 -0.089040755630560062 0
7.6192418666271619e-05 -0.1020829217289953 0
8.2830716627714247e-05 -0.11319397666395496 0
8.9571933728889346e-05 -0.12536942358368233 0
9.6370898288604051e-05 -0.13882496743708564 0
0.00010303104462123461 -0.1539368849721573 0
0.0001094849558424131 -0.17140047471359818 0
0.00011588813295780287 -0.19212128208102711 0
0.00012291043843728721 -0.2173892422441242 0
0.00013085530333631156 -0.24908756834468504 0
0.00014054509815816034 -0.2900564866125685 0
0.00015222566041866404 -0.34460661808850568 0
0.00016702312356930987 -0.42160271961531359 0
0.00018803379813566191 -0.54268257944585829 0
0.00022280969594721118 -0.7808016347627964 0
0.00029243336859936813 -1.3681540255898939 0
0.00028462948009001554 -2.0713581387186948 0
0.00013277904462106029 -2.269419894405345 0
2.883717565655064e-05 -2.2885883503138427 0
3.0886003148121623e-06 -2.2849247463024378 0
3.3909507655826342e-07 -2.2769793702097338 0
3.4263432713170857e-08 -2.2668007325247008 0
2.941714227937578e-09 -2.2551249476658168 0
1.7925156207148845e-10 -2.2432933470935388 0
5.1977717628545282e-18 -2.104093232558844 0
-0 -0 0
-0 -0 0
-0 -0 0
-0 -0 0
-0 -0 0
-0 -0 0
3.4701873324646478e-05 0.044338162913059309 0
8.3229108659306622e-05 0.11003277267373465 0
0.000105438569664628 0.15984500346473535 0
-0 -0 0
-0 -0 0
-0 -0 0
7.4755422256005415e-05 0.096823534100241082 0
8.5556925619598688e-05 0.11962473794374874 0
0.00010514636989963863 0.1704989337992924 0
-0 -0 0
-0 -0 0
-0 -0 0
5.7354117503804802e-05 0.099605573950005771 0
6.8490916419596272e-05 0.12203164864962304 0
8.5774277836051755e-05 0.17329977425708487 0
-0 -0 0
-0 -0 0
-0 -0 0
3.3051383804275104e-05 0.10191324211109552 0
3.9597150492678385e-05 0.12401833273545544 0
5.0439155956390925e-05 0.17555735217150045 0
-0 -0 0
-0 -0 0
-0 -0 0
1.460932953230892e-05 0.10221065238973229 0
1.7609507708679796e-05 0.12443295049208389 0
2.2815556716812018e-05 0.1760494878758066 0
-0 -0 0
-0 -0 0
-0 -0 0
3.6800054853810452e-06 0.10218012698817167 0
5.1448376729519148e-06 0.1244164431798726 0
7.7836667251805934e-06 0.17598309097880685 0
-0 -0 0
-0 -0 0
-0 -0 0
-8.7405417997986067e-07 0.10213030790767033 0
-6.7321899298817758e-07 0.12436278184346274 0
7.0892245561586933e-08 0.17589542044839676 0
-0 -0 0
-0 -0 0
-0 -0 0
-2.9957753622150413e-06 0.10210013096373617 0
-3.7543720827399542e-06 0.12432842217186468 0
-4.4576350190159492e-06 0.17584369725819265 0
-0 -0 0
-0 -0 0
-0 -0 0
-3.8099462956815719e-06 0.10208704870908729 0
-5.0855393545624452e-06 0.12431339727019004 0
-6.5361012924338672e-06 0.17582219194186213 0
-0 -0 0
-0 -0 0
-0 -0 0
-3.588561419188271e-06 0.10208649509699785 0
-4.8101737892234979e-06 0.12431295696653685 0
-6.3670777795384685e-06 0.17582187839482696 0
-0 -0 0
-0 -0 0
-0 -0 0
-4.1058959136085583e-06 0.10209879706419367 0
-5.2602053362347932e-06 0.12432748306892237 0
-7.0296071152525938e-06 0.17584296836456501 0
-0 -0 0
-0 -0 0
-0 -0 0
-5.5459487145716905e-06 0.10212944493878945 0
-7.2615290435789541e-06 0.12436189630505549 0
-9.9982503865835505e-06 0.17589403992637431 0
-0 -0 0
-0 -0 0
-0 -0 0
-8.0701098011521224e-06 0.10218180235098012 0
-1.0663674013008257e-05 0.12441728397872696 0
-1.491159146844269e-05 0.17598257597478575 0
-0 -0 0
-0 -0 0
-0 -0 0
-1.6005949064148935e-05 0.10221415041061818 0
-2.0467221275539659e-05 0.12443563626165184 0
-2.7946813539937792e-05 0.17605099502106422 0
-0 -0 0
-0 -0 0
-0 -0 0
-3.3943363031861473e-05 0.10191619830910907 0
-4.1038926976394355e-05 0.12402070267043175 0
-5.3164523007594279e-05 0.17555964160980095 0
-0 -0 0
-0 -0 0
-0 -0 0
-5.7562751937457187e-05 0.099606958397098641 0
-6.7716072104094857e-05 0.12203305264438824 0
-8.4111341022470579e-05 0.17330202612691042 0
-0 -0 0
-0 -0 0
-0 -0 0
-7.241793147607823e-05 0.096823572324508375 0
-8.243066745316615e-05 0.1196251453333769 0
-0.0001005984299082134 0.17049940891629328 0
-0 -0 0
-0 -0 0
-0 -0 0
-3.3731300610333168e-05 0.04432951840528624 0
-8.0129086138519309e-05 0.11003235352483388 0
-0.00010060948674507015 0.15984313190466409 0
-0 -0 0
-0 -0 0
-0 -0 0
-0 -0 0
-0 -0 0
-0 -0 0
-0 -0 0
-0 -0 0
-0 -0 0
-0 -0 0
-0 -0 0
-0 -0 0
-0 -0 0
-0 -0 0
-0 -0 0
-0 -0 0
-0 -0 0
-0 -0 0
-0 -0 0
-0 -0 0
-0 -0 0
-0 -0 0
-0 -0 0
-0 -0 0
-0 -0 0
-0 -0 0
-0 -0 0
-0 -0 0
-0 -0 0
-0 -0 0
-0 -0 0
-0 -0 0
-0 -0 0
-0 -0 0
-0 -0 0
-0 -0 0
-0 -0 0
-0 -0 0
-0 -0 0
-0 -0 0
-0 -0 0
-0 -0 0
-0 -0 0
-0 -0 0
-0 -0 0
-0 -0 0
-0 -0 0
-0 -0 0
-0 -0 0
-0 -0 0
-0 -0 0
-0 -0 0
-0 -0 0
-0 -0 0
-0 -0 0
-0 -0 0
-0 -0 0
-0 -0 0
-0 -0 0
-0 -0 0
-0 -0 0
-0 -0 0
-0 -0 0
-0 -0 0
-0 -0 0
-0 -0 0
-0 -0 0
-0 -0 0
-0 -0 0
-0 -0 0
-0 -0 0
-0 -0 0
-0 -0 0
-0 -0 0
-0 -0 0
-0 -0 0
-0 -0 0
-0 -0 0
-0 -0 0
-0 -0 0
-0 -0 0
-0 -0 0
-0 -0 0
-0 -0 0
-0 -0 0
-0 -0 0
-0 -0 0
-0 -0 0
-0 -0 0
-0 -0 0
-0 -0 0
-0 -0 0
-0 -0 0
-0 -0 0
-0 -0 0
-0 -0 0
-0 -0 0
-0 -0 0
-0 -0 0
-0 -0 0
-0 -0 0
-0 -0 0
-0 -0 0
-0 -0 0
-0 -0 0
-0 -0 0
-0 -0 0
-0 -0 0
-0 -0 0
-0 -0 0
-0 -0 0
-0 -0 0
-0 -0 0
-0 -0 0
-0 -0 0
-0 -0 0
-0 -0 0
-0 -0 0
-0 -0 0
-0 -0 0
-0 -0 0
-0 -0 0
-0 -0 0
-0 -0 0
-0 -0 0
-0 -0 0
-0 -0 0
-0 -0 0
-0 -0 0
-0 -0 0
-0 -0 0
-0 -0 0
-0 -0 0
-0 -0 0
-0 -0 0
-0 -0 0
-0 -0 0
-0 -0 0
-0 -0 0
-0 -0 0
-0 -0 0
-0 -0 0
-0 -0 0
-0 -0 0
-0 -0 0
-0 -0 0
-0 -0 0
-0 -0 0
-0 -0 0
-0 -0 0
-0 -0 0
-0 -0 0
-0 -0 0
-0 -0 0
-0 -0 0
-0 -0 0
-0 -0 0
-0 -0 0
-0 -0 0
-0 -0 0
-0 -0 0
-0 -0 0
-0 -0 0
-0 -0 0
-0 -0 0
-0 -0 0
-0 -0 0
-0 -0 0
-0 -0 0
-0 -0 0
-0 -0 0
-0 -0 0
-0 -0 0
-0 -0 0
-0 -0 0
-0 -0 0
-0 -0 0
-0 -0 0
-0 -0 0
-0 -0 0
-0 -0 0
-0 -0 0
-0 -0 0
-0 -0 0
-0 -0 0
-0 -0 0
-0 -0 0
-0 -0 0
-0 -0 0
-0 -0 0
-0 -0 0
-0 -0 0
-0 -0 0
-0 -0 0
-0 -0 0
