# vtk DataFile Version 3.0
SPH particles (WCSPH) - legacy PolyData
ASCII
DATASET POLYDATA
POINTS 681 float
0.049988786587529789 0.020900593877355416 0
0.049987299740552195 0.023191012109742698 0
0.049986128188641045 0.025004914749939898 0
0.049985010274630572 0.026811088506441781 0
0.049983995057772297 0.028588743582471376 0
0.049983078211039866 0.030331903361050801 0
0.049982265162985005 0.032043794513395049 0
0.049981376128962786 0.033731351282536806 0
0.049980312445074219 0.035402760657045833 0
0.049978874010826138 0.037066739331893236 0
0.049976668775017642 0.038732235818211752 0
0.049973970205566258 0.040408379284757268 0
0.049972747142868562 0.042104486546394836 0
0.049973845217184322 0.04383033560947406 0
0.049976134222885396 0.045596203097015585 0
0.049978986737603759 0.047413321007385809 0
0.049981897488553084 0.049295483383560844 0
0.049984732747263713 0.051269930559880557 0
0.049987345800060964 0.053360069236577552 0
0.049989595733348394 0.055598698135868825 0
0.049991484145662297 0.05804227579588471 0
0.049993034584108108 0.060748082645319459 0
0.04999431938548566 0.063809428509085275 0
0.049995418247645335 0.067472226206799227 0
0.049997327659004026 0.072531294760068629 0
0.069993874259258099 0.019277133923214104 0
0.069992976806039373 0.021855497661957733 0
0.069992241654926401 0.023932176549616747 0
0.069991569306319362 0.025951060186835476 0
0.069990961015411329 0.027904025876125498 0
0.069990362968296069 0.029795347071864108 0
0.069989768551913856 0.031635903160833222 0
0.069989167406743436 0.033438369753599713 0
0.069988485698569039 0.035214825975083117 0
0.06998750665854156 0.036976861525777685 0
0.069985757488000858 0.038735660395110609 0
0.069983035610617708 0.040502143794747841 0
0.069981329306473439 0.042287157114492359 0
0.069981518923970559 0.044102141867443455 0
0.069983026470069681 0.045959436905940614 0
0.069985156392054743 0.047871657394781809 0
0.069987391897767176 0.04985253498816504 0
0.069989627369957758 0.051928173709263829 0
0.069991557767654686 0.054125385004798167 0
0.069993156751691224 0.056481279669436453 0
0.069994492793709104 0.059050258550771867 0
0.069995572659110966 0.061906050252202048 0
0.06999642680227057 0.065168964312831604 0
0.069997118754448445 0.069118850512540242 0
0.069998286738383847 0.074662833294698319 0
0.089997645379533836 0.019194044052583237 0
0.089997255948166946 0.021778867119215006 0
0.08999698685945795 0.023862043768132737 0
0.089996661803509445 0.025890462241246776 0
0.08999634297262081 0.027854960338982878 0
0.089996078445038999 0.029759144172169454 0
0.089995597589733217 0.031613739510626786 0
0.08999534733275559 0.033431205975097439 0
0.089995007043697672 0.035223614576996382 0
0.089994636185092014 0.037002613292163006 0
0.089994225120670887 0.03877939950098952 0
0.089993455459019239 0.040565034030100783 0
0.089992541069473519 0.042370410011484401 0
0.089992146649827548 0.044207084366600959 0
0.089992635486486783 0.046087907266065584 0
0.089993480183959695 0.048027474840679651 0
0.089994443389841472 0.050040576572977377 0
0.089995354275552317 0.052145455449161944 0
0.089996137558966044 0.054371942720450754 0
0.089996786722004993 0.056757616941518339 0
0.089997334798428044 0.059355453792062862 0
0.089997787793874046 0.062244812221429115 0
0.089998163633816117 0.06554890122436971 0
0.089998486565680269 0.069544599564455342 0
0.089999096004826931 0.075168058270674132 0
0.10999925162116569 0.019210289909922258 0
0.1099990584192844 0.021796318385513033 0
0.10999890079104079 0.023880818325415585 0
0.10999874111690594 0.02591094760986384 0
0.10999859504313017 0.027877517853104695 0
0.10999857644287585 0.02978406102665352 0
0.10999860107513934 0.031641340754076208 0
0.10999851046274157 0.033461738006170069 0
0.10999842984343543 0.035257303829113538 0
0.10999830079689536 0.037039745670334995 0
0.10999808458816721 0.038820328115999517 0
0.1099983012379691 0.040610099205184359 0
0.10999766069660517 0.042419936630024302 0
0.10999712284519035 0.044261489703726412 0
0.1099971564995922 0.046147608828034294 0
0.10999741578743012 0.048093063059115398 0
0.10999770499984647 0.050113775455375063 0
0.10999812028280696 0.052225383950390059 0
0.10999841855187223 0.054458628635601962 0
0.10999866706398545 0.056850942413751722 0
0.10999885608044598 0.059456806503105628 0
0.10999902976542834 0.062356315116473687 0
0.10999917040691733 0.065670406464605466 0
0.10999930372503226 0.069676385909232627 0
0.10999958229462378 0.075322838595014999 0
0.12999984817604968 0.019222736166933065 0
0.12999982431874993 0.021809982062425855 0
0.12999980439301353 0.023895409478378527 0
0.12999979574928491 0.02592642505089374 0
0.12999984850916194 0.027893825988352078 0
0.12999989196095826 0.029801247546045243 0
0.12999992882323808 0.031659473675466655 0
0.12999995357970548 0.033480780817632179 0
0.13000000978631709 0.03527734914076771 0
0.13000011867798084 0.037060832842746382 0
0.13000018434343302 0.038842483758529674 0
0.1300000397864777 0.040633412256806049 0
0.12999980379555823 0.042444625421343106 0
0.12999951735800769 0.044287528392291102 0
0.12999930271066606 0.04617520352190109 0
0.12999919914817754 0.048122302713661261 0
0.1299992858488852 0.050144729530080694 0
0.12999939570595731 0.052258143574926995 0
0.12999948260997912 0.054493321628912586 0
0.12999955517359824 0.05688763245808371 0
0.12999961822197684 0.059495973955868642 0
0.12999966377555089 0.062398367430494296 0
0.12999971358778781 0.065714913003340758 0
0.12999976197065283 0.069723039296192446 0
0.12999984903156245 0.075378043577974688 0
0.15000019519508651 0.019228635368368809 0
0.15000022528976553 0.021816507743081415 0
0.15000026304928238 0.023902416977582237 0
0.15000031842956169 0.025933895032380496 0
0.1500004922644334 0.027901730996006353 0
0.15000053406745315 0.029809521198836793 0
0.15000053384195181 0.031668094542320835 0
0.15000056398163134 0.033489798226365164 0
0.15000061684509033 0.035286756229054507 0
0.15000066828178354 0.037070634914296748 0
0.15000075090386508 0.038852728754644433 0
0.15000062549010992 0.040644077056474617 0
0.15000059028355173 0.042455808986394006 0
0.15000040686343646 0.044299277297814382 0
0.15000017602147078 0.046187488793054995 0
0.15000008765347922 0.048135143102979908 0
0.15000003253207631 0.050158186449022125 0
0.15000003052028327 0.052272231651139797 0
0.15000004401859518 0.05450811318272477 0
0.15000005316289813 0.056903169143072987 0
0.15000003622405994 0.059512309651972371 0
0.15000003857667313 0.062415487414879844 0
0.15000005293860313 0.065732682985838523 0
0.15000005468690655 0.069741203681141506 0
0.1500000433280187 0.075399836155493463 0
0.17000042327950959 0.019231175593277715 0
0.17000050343886572 0.021819326561854757 0
0.17000054893755662 0.023905434469952545 0
0.17000068416210579 0.025937062326425453 0
0.1700007709306332 0.027905031414833099 0
0.1700009116179414 0.029813006225188076 0
0.17000111253770026 0.031671779156995303 0
0.1700011810165559 0.033493650818614037 0
0.1700012217847274 0.035290747512958368 0
0.1700012546301338 0.037074776812099614 0
0.17000126287926504 0.038857052227793919 0
0.17000116548765207 0.040648625654244819 0
0.17000113824086832 0.042460504845644766 0
0.1700011296906202 0.044304096144573687 0
0.17000071990128762 0.046192513469776757 0
0.17000057430161897 0.048140445807129763 0
0.17000047091059664 0.050163730725822676 0
0.17000040029790606 0.052278018837504395 0
0.17000035880638131 0.054514158707207709 0
0.17000032978957036 0.056909490271062242 0
0.17000027155851807 0.059518919045034889 0
0.17000023781896875 0.062422365715847999 0
0.17000021148014913 0.065739741355928499 0
0.17000019860642882 0.069748268062506377 0
0.17000016847852134 0.075408453513779922 0
0.1900003871532 0.019231905349027432 0
0.19000043436097935 0.021820092696186452 0
0.19000061995108158 0.02390634697073277 0
0.19000067856975236 0.025937993918060415 0
0.19000078714150864 0.027905981662071904 0
0.19000100379669083 0.02981404198052413 0
0.19000122237132258 0.031672785254622943 0
0.1900012235451512 0.033494609659409362 0
0.19000128671108277 0.035291704581241284 0
0.19000132654231022 0.037075775639287302 0
0.19000121499133224 0.038858071746199291 0
0.1900012102435012 0.040649719333243114 0
0.19000089906436385 0.042461688649057555 0
0.19000081930549312 0.044305409042373352 0
0.19000077027204301 0.04619388800521923 0
0.19000062434534018 0.048141867254987793 0
0.190000576624965 0.050165228518820763 0
0.19000057570334961 0.052279593804407186 0
0.19000050585492231 0.054515814831427929 0
0.19000054904295746 0.056911238278506665 0
0.19000047471480938 0.059520747052430364 0
0.19000039389395848 0.062424273796616823 0
0.19000031389161878 0.065741686891407011 0
0.19000027779848064 0.06975019946578373 0
0.19000022873697073 0.075410803946659458 0
0.21000043635590795 0.019231260777313533 0
0.21000052832743202 0.021819381373802248 0
0.21000060167182966 0.023905487094865716 0
0.2100006709096707 0.025937142146236006 0
0.21000078136486111 0.027905109335298231 0
0.2100008161217525 0.029813088741523608 0
0.21000091718924443 0.031671845350979159 0
0.21000095844955849 0.033493705053151877 0
0.21000103068244974 0.035290811124721329 0
0.21000107134604118 0.037074863603987644 0
0.21000106019518011 0.038857124427660768 0
0.21000102064327061 0.040648679141761158 0
0.21000084412461523 0.042460533362863914 0
0.21000069601035568 0.044304162146316148 0
0.21000068358029633 0.046192588929522299 0
0.21000059448038796 0.048140491346422724 0
0.21000057540875758 0.050163800488010703 0
0.21000061230280237 0.05227809292034475 0
0.21000045869025324 0.054514247328265292 0
0.210000424534868 0.056909611829080581 0
0.21000039404893406 0.059519038356903246 0
0.21000038213019348 0.062422511236990462 0
0.21000033454444095 0.065739887121204085 0
0.21000030121328514 0.069748418455836292 0
0.2100002446466061 0.075408567314647151 0
0.2300005340838997 0.01922873828892923 0
0.23000062560201137 0.021816648858836246 0
0.23000072875777489 0.023902592903521667 0
0.23000081938641098 0.025934026259194793 0
0.23000095396372552 0.027901888673487071 0
0.2300010498516506 0.029809692234097764 0
0.23000114767286678 0.031668284926572088 0
0.23000121060929343 0.033489981925277711 0
0.23000135410174991 0.035286944509012673 0
0.23000145578305695 0.037070801581604286 0
0.23000148383743821 0.038852882126077785 0
0.23000128283793431 0.040644282013392374 0
0.23000110145910965 0.042455979692636481 0
0.23000101095054556 0.044299400126726542 0
0.23000099897166723 0.046187577412626274 0
0.2300009315833435 0.048135271027895249 0
0.23000083420367282 0.050158330796786929 0
0.23000073580369312 0.052272398060600959 0
0.23000068453928887 0.054508302293935225 0
0.23000060816581491 0.056903387084005365 0
0.23000054688811616 0.0595125181194395 0
0.23000048989878635 0.062415710495021502 0
0.23000043330935424 0.065732903995841099 0
0.23000038570967574 0.069741402326107482 0
0.23000027408672249 0.075400025500646797 0
0.25000072715199434 0.019222767910317001 0
0.25000085147824336 0.02181002213111569 0
0.25000094214915081 0.023895506382185672 0
0.25000108378771313 0.025926571407439224 0
0.250001203187738 0.027893982257638294 0
0.25000131845584361 0.029801413020639714 0
0.25000137387847715 0.031659663758052417 0
0.25000153745679099 0.03348099754486715 0
0.25000163868972708 0.035277578960069285 0
0.25000176352210607 0.037061030031512135 0
0.25000184495517613 0.038842698175904931 0
0.25000177668608431 0.040633630956211496 0
0.25000167333726359 0.042444885562508909 0
0.25000183761922584 0.044287751980533308 0
0.25000171784717723 0.046175424535837291 0
0.25000163813530185 0.048122557863292302 0
0.25000146831135611 0.05014500777197807 0
0.25000126210667661 0.052258410204199239 0
0.25000110397053144 0.054493569775098803 0
0.25000097865545096 0.056887879885627275 0
0.25000086656345127 0.059496217404211231 0
0.2500007553461262 0.062398595709177579 0
0.25000065796410054 0.065715138837220494 0
0.25000057017276228 0.06972324890248123 0
0.25000038287870652 0.075378304210397623 0
0.27000117029045367 0.019210332893124675 0
0.27000138370360471 0.021796371924589032 0
0.27000154046741776 0.023880881758619531 0
0.27000171104692655 0.025911034416352549 0
0.27000201054475742 0.027877649812909317 0
0.27000218498573797 0.029784223180083804 0
0.27000235866015376 0.03164160483831633 0
0.27000256330445166 0.033462008898470785 0
0.27000277880944434 0.035257596255580476 0
0.27000299440955167 0.037040047619804499 0
0.27000322173469393 0.038820596141713827 0
0.27000332431771401 0.040610323690332906 0
0.27000389141805409 0.042420192471140032 0
0.27000384554202944 0.044261692022332121 0
0.27000367446510048 0.046147807271318037 0
0.27000333212665018 0.048093300631060688 0
0.27000289330016086 0.050114035958672365 0
0.27000245011160418 0.052225652229250609 0
0.27000209980678957 0.054458855620772045 0
0.27000181540384921 0.056851163666267121 0
0.27000154466673887 0.059457071487217752 0
0.27000131676381589 0.062356625916645599 0
0.27000113180953805 0.065670726042922872 0
0.27000096547844882 0.069676716732122418 0
0.2700006240557854 0.075323205349813349 0
0.29000263224517803 0.0191941666250709 0
0.2900030549336845 0.021778972366028992 0
0.29000338273867665 0.023862166567870845 0
0.29000371321791468 0.025890608608211352 0
0.29000404753798514 0.027855092059616345 0
0.29000441227133228 0.029759292528665313 0
0.2900047873168024 0.03161403208823331 0
0.29000521562074372 0.033431549664380611 0
0.2900056833083291 0.03522397583542259 0
0.2900062141882932 0.037002960326315275 0
0.29000680654868904 0.038779758448753372 0
0.29000744706466469 0.040565336732374384 0
0.29000808849154658 0.042370693735568357 0
0.29000826621225256 0.044207331389739979 0
0.29000779695643975 0.046088158307076396 0
0.29000699343219455 0.04802773318797933 0
0.29000601096159889 0.050040890384539065 0
0.29000507051877811 0.052145794145254228 0
0.29000422189498654 0.05437226708023845 0
0.29000352823564668 0.056757931098634022 0
0.29000295135375448 0.059355776610338855 0
0.29000248115560096 0.062245176212323942 0
0.29000209597024607 0.065549274538980379 0
0.29000174944739615 0.069544976746386031 0
0.29000109183679429 0.075168458020676732 0
0.3100063514425882 0.019277334691217951 0
0.31000727591689381 0.021855723055343786 0
0.31000796071464454 0.023932379308961405 0
0.3100086106070753 0.025951330366832268 0
0.31000924557721415 0.027904298891755167 0
0.31000987954660597 0.029795563216995273 0
0.31001051222246184 0.031636226798665915 0
0.31001112961350313 0.033438717994995613 0
0.31001187049353957 0.03521514874803857 0
0.31001285145939711 0.036977149762333412 0
0.31001468845207369 0.038735896444636958 0
0.31001737112462846 0.040502371446020924 0
0.31001889793936077 0.042287415855567355 0
0.31001852193437029 0.044102399377878548 0
0.31001709529449445 0.045959680611257117 0
0.31001509109048536 0.047871909572520993 0
0.31001284707111321 0.049852814329700776 0
0.31001063199794987 0.051928489639894757 0
0.31000867931883291 0.054125749266708559 0
0.31000703004590136 0.056481640129775398 0
0.31000567954782982 0.059050631791829324 0
0.31000459652555429 0.061906413839535233 0
0.31000373197963105 0.065169319383810626 0
0.31000301160197474 0.069119210766497172 0
0.3100018080934383 0.074663201321899825 0
0.33001089609940476 0.020900956723790953 0
0.330012320592103 0.023191363712746379 0
0.33001343705074604 0.025005241368583356 0
0.3300144905369683 0.026811385321522867 0
0.33001542644418869 0.028589013091721609 0
0.33001627981684284 0.030332135797110551 0
0.33001708889831133 0.032044004057119775 0
0.33001794074334373 0.033731526930007819 0
0.33001885246970858 0.035402890949239679 0
0.33002007996425498 0.03706682929427145 0
0.3300221606458052 0.038732296792271761 0
0.33002483395280413 0.040408429555059591 0
0.33002597229960129 0.04210452511010386 0
0.33002484447530506 0.04383034012072759 0
0.33002267960606735 0.045596203321225048 0
0.33001998112644643 0.047413314750910082 0
0.3300170927843854 0.04929547904324344 0
0.3300142929446116 0.051269911945977471 0
0.33001180131840824 0.053360059895626005 0
0.33000966622751143 0.055598688607750565 0
0.33000790341920577 0.058042244642485849 0
0.33000646349719193 0.060748026495614983 0
0.33000529127725342 0.063809352831937158 0
0.33000433330664752 0.067472153135221064 0
0.33000260183104724 0.072531284526127254 0
0 0 0
0 0.020000000000000004 0
0 0.040000000000000001 0
0 0.54999999999999993 0
0 0.56000000000000005 0
0 0.58000000000000007 0
0.02 0 0
0.02 0.020000000000000004 0
0.02 0.040000000000000001 0
0.02 0.54999999999999993 0
0.02 0.56000000000000005 0
0.02 0.58000000000000007 0
0.040000000000000001 0 0
0.040000000000000001 0.020000000000000004 0
0.040000000000000001 0.040000000000000001 0
0.040000000000000001 0.54999999999999993 0
0.040000000000000001 0.56000000000000005 0
0.040000000000000001 0.58000000000000007 0
0.059999999999999998 0 0
0.059999999999999998 0.020000000000000004 0
0.059999999999999998 0.040000000000000001 0
0.059999999999999998 0.54999999999999993 0
0.059999999999999998 0.56000000000000005 0
0.059999999999999998 0.58000000000000007 0
0.080000000000000002 0 0
0.080000000000000002 0.020000000000000004 0
0.080000000000000002 0.040000000000000001 0
0.080000000000000002 0.54999999999999993 0
0.080000000000000002 0.56000000000000005 0
0.080000000000000002 0.58000000000000007 0
0.10000000000000001 0 0
0.10000000000000001 0.020000000000000004 0
0.10000000000000001 0.040000000000000001 0
0.10000000000000001 0.54999999999999993 0
0.10000000000000001 0.56000000000000005 0
0.10000000000000001 0.58000000000000007 0
0.12 0 0
0.12 0.020000000000000004 0
0.12 0.040000000000000001 0
0.12 0.54999999999999993 0
0.12 0.56000000000000005 0
0.12 0.58000000000000007 0
0.14000000000000001 0 0
0.14000000000000001 0.020000000000000004 0
0.14000000000000001 0.040000000000000001 0
0.14000000000000001 0.54999999999999993 0
0.14000000000000001 0.56000000000000005 0
0.14000000000000001 0.58000000000000007 0
0.16 0 0
0.16 0.020000000000000004 0
0.16 0.040000000000000001 0
0.16 0.54999999999999993 0
0.16 0.56000000000000005 0
0.16 0.58000000000000007 0
0.17999999999999999 0 0
0.17999999999999999 0.020000000000000004 0
0.17999999999999999 0.040000000000000001 0
0.17999999999999999 0.54999999999999993 0
0.17999999999999999 0.56000000000000005 0
0.17999999999999999 0.58000000000000007 0
0.20000000000000001 0 0
0.20000000000000001 0.020000000000000004 0
0.20000000000000001 0.040000000000000001 0
0.20000000000000001 0.54999999999999993 0
0.20000000000000001 0.56000000000000005 0
0.20000000000000001 0.58000000000000007 0
0.22 0 0
0.22 0.020000000000000004 0
0.22 0.040000000000000001 0
0.22 0.54999999999999993 0
0.22 0.56000000000000005 0
0.22 0.58000000000000007 0
0.23999999999999999 0 0
0.23999999999999999 0.020000000000000004 0
0.23999999999999999 0.040000000000000001 0
0.23999999999999999 0.54999999999999993 0
0.23999999999999999 0.56000000000000005 0
0.23999999999999999 0.58000000000000007 0
0.26000000000000001 0 0
0.26000000000000001 0.020000000000000004 0
0.26000000000000001 0.040000000000000001 0
0.26000000000000001 0.54999999999999993 0
0.26000000000000001 0.56000000000000005 0
0.26000000000000001 0.58000000000000007 0
0.28000000000000003 0 0
0.28000000000000003 0.020000000000000004 0
0.28000000000000003 0.040000000000000001 0
0.28000000000000003 0.54999999999999993 0
0.28000000000000003 0.56000000000000005 0
0.28000000000000003 0.58000000000000007 0
0.29999999999999999 0 0
0.29999999999999999 0.020000000000000004 0
0.29999999999999999 0.040000000000000001 0
0.29999999999999999 0.54999999999999993 0
0.29999999999999999 0.56000000000000005 0
0.29999999999999999 0.58000000000000007 0
0.32000000000000001 0 0
0.32000000000000001 0.020000000000000004 0
0.32000000000000001 0.040000000000000001 0
0.32000000000000001 0.54999999999999993 0
0.32000000000000001 0.56000000000000005 0
0.32000000000000001 0.58000000000000007 0
0.34000000000000002 0 0
0.34000000000000002 0.020000000000000004 0
0.34000000000000002 0.040000000000000001 0
0.34000000000000002 0.54999999999999993 0
0.34000000000000002 0.56000000000000005 0
0.34000000000000002 0.58000000000000007 0
0.35999999999999999 0 0
0.35999999999999999 0.020000000000000004 0
0.35999999999999999 0.040000000000000001 0
0.35999999999999999 0.54999999999999993 0
0.35999999999999999 0.56000000000000005 0
0.35999999999999999 0.58000000000000007 0
0.38 0 0
0.38 0.020000000000000004 0
0.38 0.040000000000000001 0
0.38 0.54999999999999993 0
0.38 0.56000000000000005 0
0.38 0.58000000000000007 0
0.40000000000000002 0 0
0.40000000000000002 0.020000000000000004 0
0.40000000000000002 0.040000000000000001 0
0.40000000000000002 0.54999999999999993 0
0.40000000000000002 0.56000000000000005 0
0.40000000000000002 0.58000000000000007 0
0.41999999999999998 0 0
0.41999999999999998 0.020000000000000004 0
0.41999999999999998 0.040000000000000001 0
0.41999999999999998 0.54999999999999993 0
0.41999999999999998 0.56000000000000005 0
0.41999999999999998 0.58000000000000007 0
0.44 0 0
0.44 0.020000000000000004 0
0.44 0.040000000000000001 0
0.44 0.54999999999999993 0
0.44 0.56000000000000005 0
0.44 0.58000000000000007 0
0.46000000000000002 0 0
0.46000000000000002 0.020000000000000004 0
0.46000000000000002 0.040000000000000001 0
0.46000000000000002 0.54999999999999993 0
0.46000000000000002 0.56000000000000005 0
0.46000000000000002 0.58000000000000007 0
0.47999999999999998 0 0
0.47999999999999998 0.020000000000000004 0
0.47999999999999998 0.040000000000000001 0
0.47999999999999998 0.54999999999999993 0
0.47999999999999998 0.56000000000000005 0
0.47999999999999998 0.58000000000000007 0
0.5 0 0
0.5 0.020000000000000004 0
0.5 0.040000000000000001 0
0.5 0.54999999999999993 0
0.5 0.56000000000000005 0
0.5 0.58000000000000007 0
0.52000000000000002 0 0
0.52000000000000002 0.020000000000000004 0
0.52000000000000002 0.040000000000000001 0
0.52000000000000002 0.54999999999999993 0
0.52000000000000002 0.56000000000000005 0
0.52000000000000002 0.58000000000000007 0
0.54000000000000004 0 0
0.54000000000000004 0.020000000000000004 0
0.54000000000000004 0.040000000000000001 0
0.54000000000000004 0.54999999999999993 0
0.54000000000000004 0.56000000000000005 0
0.54000000000000004 0.58000000000000007 0
0.56000000000000005 0 0
0.56000000000000005 0.020000000000000004 0
0.56000000000000005 0.040000000000000001 0
0.56000000000000005 0.54999999999999993 0
0.56000000000000005 0.56000000000000005 0
0.56000000000000005 0.58000000000000007 0
0.57999999999999996 0 0
0.57999999999999996 0.020000000000000004 0
0.57999999999999996 0.040000000000000001 0
0.57999999999999996 0.54999999999999993 0
0.57999999999999996 0.56000000000000005 0
0.57999999999999996 0.58000000000000007 0
0.59999999999999998 0 0
0.59999999999999998 0.020000000000000004 0
0.59999999999999998 0.040000000000000001 0
0.59999999999999998 0.54999999999999993 0
0.59999999999999998 0.56000000000000005 0
0.59999999999999998 0.58000000000000007 0
0.62 0 0
0.62 0.020000000000000004 0
0.62 0.040000000000000001 0
0.62 0.54999999999999993 0
0.62 0.56000000000000005 0
0.62 0.58000000000000007 0
0.64000000000000001 0 0
0.64000000000000001 0.020000000000000004 0
0.64000000000000001 0.040000000000000001 0
0.64000000000000001 0.54999999999999993 0
0.64000000000000001 0.56000000000000005 0
0.64000000000000001 0.58000000000000007 0
0.66000000000000003 0 0
0.66000000000000003 0.020000000000000004 0
0.66000000000000003 0.040000000000000001 0
0.66000000000000003 0.54999999999999993 0
0.66000000000000003 0.56000000000000005 0
0.66000000000000003 0.58000000000000007 0
0.68000000000000005 0 0
0.68000000000000005 0.020000000000000004 0
0.68000000000000005 0.040000000000000001 0
0.68000000000000005 0.54999999999999993 0
0.68000000000000005 0.56000000000000005 0
0.68000000000000005 0.58000000000000007 0
0.70000000000000007 0 0
0.70000000000000007 0.020000000000000004 0
0.70000000000000007 0.040000000000000001 0
0.70000000000000007 0.54999999999999993 0
0.70000000000000007 0.56000000000000005 0
0.70000000000000007 0.58000000000000007 0
0.71999999999999997 0 0
0.71999999999999997 0.020000000000000004 0
0.71999999999999997 0.040000000000000001 0
0.71999999999999997 0.54999999999999993 0
0.71999999999999997 0.56000000000000005 0
0.71999999999999997 0.58000000000000007 0
0.73999999999999999 0 0
0.73999999999999999 0.020000000000000004 0
0.73999999999999999 0.040000000000000001 0
0.73999999999999999 0.54999999999999993 0
0.73999999999999999 0.56000000000000005 0
0.73999999999999999 0.58000000000000007 0
0.76000000000000001 0 0
0.76000000000000001 0.020000000000000004 0
0.76000000000000001 0.040000000000000001 0
0.76000000000000001 0.54999999999999993 0
0.76000000000000001 0.56000000000000005 0
0.76000000000000001 0.58000000000000007 0
0.78000000000000003 0 0
0.78000000000000003 0.020000000000000004 0
0.78000000000000003 0.040000000000000001 0
0.78000000000000003 0.54999999999999993 0
0.78000000000000003 0.56000000000000005 0
0.78000000000000003 0.58000000000000007 0
0.80000000000000004 0 0
0.80000000000000004 0.020000000000000004 0
0.80000000000000004 0.040000000000000001 0
0.80000000000000004 0.54999999999999993 0
0.80000000000000004 0.56000000000000005 0
0.80000000000000004 0.58000000000000007 0
0.82000000000000006 0 0
0.82000000000000006 0.020000000000000004 0
0.82000000000000006 0.040000000000000001 0
0.82000000000000006 0.54999999999999993 0
0.82000000000000006 0.56000000000000005 0
0.82000000000000006 0.58000000000000007 0
0.83999999999999997 0 0
0.83999999999999997 0.020000000000000004 0
0.83999999999999997 0.040000000000000001 0
0.83999999999999997 0.54999999999999993 0
0.83999999999999997 0.56000000000000005 0
0.83999999999999997 0.58000000000000007 0
0.85999999999999999 0 0
0.85999999999999999 0.020000000000000004 0
0.85999999999999999 0.040000000000000001 0
0.85999999999999999 0.54999999999999993 0
0.85999999999999999 0.56000000000000005 0
0.85999999999999999 0.58000000000000007 0
0.88 0 0
0.88 0.020000000000000004 0
0.88 0.040000000000000001 0
0.88 0.54999999999999993 0
0.88 0.56000000000000005 0
0.88 0.58000000000000007 0
0.90000000000000002 0 0
0.90000000000000002 0.020000000000000004 0
0.90000000000000002 0.040000000000000001 0
0.90000000000000002 0.54999999999999993 0
0.90000000000000002 0.56000000000000005 0
0.90000000000000002 0.58000000000000007 0
0.92000000000000004 0 0
0.92000000000000004 0.020000000000000004 0
0.92000000000000004 0.040000000000000001 0
0.92000000000000004 0.54999999999999993 0
0.92000000000000004 0.56000000000000005 0
0.92000000000000004 0.58000000000000007 0
0.94000000000000006 0 0
0.94000000000000006 0.020000000000000004 0
0.94000000000000006 0.040000000000000001 0
0.94000000000000006 0.54999999999999993 0
0.94000000000000006 0.56000000000000005 0
0.94000000000000006 0.58000000000000007 0
0.95999999999999996 0 0
0.95999999999999996 0.020000000000000004 0
0.95999999999999996 0.040000000000000001 0
0.95999999999999996 0.54999999999999993 0
0.95999999999999996 0.56000000000000005 0
0.95999999999999996 0.58000000000000007 0
0.97999999999999998 0 0
0.97999999999999998 0.020000000000000004 0
0.97999999999999998 0.040000000000000001 0
0.97999999999999998 0.54999999999999993 0
0.97999999999999998 0.56000000000000005 0
0.97999999999999998 0.58000000000000007 0
1 0 0
1 0.020000000000000004 0
1 0.040000000000000001 0
1 0.54999999999999993 0
1 0.56000000000000005 0
1 0.58000000000000007 0
VERTICES 681 1362
1 0
1 1
1 2
1 3
1 4
1 5
1 6
1 7
1 8
1 9
1 10
1 11
1 12
1 13
1 14
1 15
1 16
1 17
1 18
1 19
1 20
1 21
1 22
1 23
1 24
1 25
1 26
1 27
1 28
1 29
1 30
1 31
1 32
1 33
1 34
1 35
1 36
1 37
1 38
1 39
1 40
1 41
1 42
1 43
1 44
1 45
1 46
1 47
1 48
1 49
1 50
1 51
1 52
1 53
1 54
1 55
1 56
1 57
1 58
1 59
1 60
1 61
1 62
1 63
1 64
1 65
1 66
1 67
1 68
1 69
1 70
1 71
1 72
1 73
1 74
1 75
1 76
1 77
1 78
1 79
1 80
1 81
1 82
1 83
1 84
1 85
1 86
1 87
1 88
1 89
1 90
1 91
1 92
1 93
1 94
1 95
1 96
1 97
1 98
1 99
1 100
1 101
1 102
1 103
1 104
1 105
1 106
1 107
1 108
1 109
1 110
1 111
1 112
1 113
1 114
1 115
1 116
1 117
1 118
1 119
1 120
1 121
1 122
1 123
1 124
1 125
1 126
1 127
1 128
1 129
1 130
1 131
1 132
1 133
1 134
1 135
1 136
1 137
1 138
1 139
1 140
1 141
1 142
1 143
1 144
1 145
1 146
1 147
1 148
1 149
1 150
1 151
1 152
1 153
1 154
1 155
1 156
1 157
1 158
1 159
1 160
1 161
1 162
1 163
1 164
1 165
1 166
1 167
1 168
1 169
1 170
1 171
1 172
1 173
1 174
1 175
1 176
1 177
1 178
1 179
1 180
1 181
1 182
1 183
1 184
1 185
1 186
1 187
1 188
1 189
1 190
1 191
1 192
1 193
1 194
1 195
1 196
1 197
1 198
1 199
1 200
1 201
1 202
1 203
1 204
1 205
1 206
1 207
1 208
1 209
1 210
1 211
1 212
1 213
1 214
1 215
1 216
1 217
1 218
1 219
1 220
1 221
1 222
1 223
1 224
1 225
1 226
1 227
1 228
1 229
1 230
1 231
1 232
1 233
1 234
1 235
1 236
1 237
1 238
1 239
1 240
1 241
1 242
1 243
1 244
1 245
1 246
1 247
1 248
1 249
1 250
1 251
1 252
1 253
1 254
1 255
1 256
1 257
1 258
1 259
1 260
1 261
1 262
1 263
1 264
1 265
1 266
1 267
1 268
1 269
1 270
1 271
1 272
1 273
1 274
1 275
1 276
1 277
1 278
1 279
1 280
1 281
1 282
1 283
1 284
1 285
1 286
1 287
1 288
1 289
1 290
1 291
1 292
1 293
1 294
1 295
1 296
1 297
1 298
1 299
1 300
1 301
1 302
1 303
1 304
1 305
1 306
1 307
1 308
1 309
1 310
1 311
1 312
1 313
1 314
1 315
1 316
1 317
1 318
1 319
1 320
1 321
1 322
1 323
1 324
1 325
1 326
1 327
1 328
1 329
1 330
1 331
1 332
1 333
1 334
1 335
1 336
1 337
1 338
1 339
1 340
1 341
1 342
1 343
1 344
1 345
1 346
1 347
1 348
1 349
1 350
1 351
1 352
1 353
1 354
1 355
1 356
1 357
1 358
1 359
1 360
1 361
1 362
1 363
1 364
1 365
1 366
1 367
1 368
1 369
1 370
1 371
1 372
1 373
1 374
1 375
1 376
1 377
1 378
1 379
1 380
1 381
1 382
1 383
1 384
1 385
1 386
1 387
1 388
1 389
1 390
1 391
1 392
1 393
1 394
1 395
1 396
1 397
1 398
1 399
1 400
1 401
1 402
1 403
1 404
1 405
1 406
1 407
1 408
1 409
1 410
1 411
1 412
1 413
1 414
1 415
1 416
1 417
1 418
1 419
1 420
1 421
1 422
1 423
1 424
1 425
1 426
1 427
1 428
1 429
1 430
1 431
1 432
1 433
1 434
1 435
1 436
1 437
1 438
1 439
1 440
1 441
1 442
1 443
1 444
1 445
1 446
1 447
1 448
1 449
1 450
1 451
1 452
1 453
1 454
1 455
1 456
1 457
1 458
1 459
1 460
1 461
1 462
1 463
1 464
1 465
1 466
1 467
1 468
1 469
1 470
1 471
1 472
1 473
1 474
1 475
1 476
1 477
1 478
1 479
1 480
1 481
1 482
1 483
1 484
1 485
1 486
1 487
1 488
1 489
1 490
1 491
1 492
1 493
1 494
1 495
1 496
1 497
1 498
1 499
1 500
1 501
1 502
1 503
1 504
1 505
1 506
1 507
1 508
1 509
1 510
1 511
1 512
1 513
1 514
1 515
1 516
1 517
1 518
1 519
1 520
1 521
1 522
1 523
1 524
1 525
1 526
1 527
1 528
1 529
1 530
1 531
1 532
1 533
1 534
1 535
1 536
1 537
1 538
1 539
1 540
1 541
1 542
1 543
1 544
1 545
1 546
1 547
1 548
1 549
1 550
1 551
1 552
1 553
1 554
1 555
1 556
1 557
1 558
1 559
1 560
1 561
1 562
1 563
1 564
1 565
1 566
1 567
1 568
1 569
1 570
1 571
1 572
1 573
1 574
1 575
1 576
1 577
1 578
1 579
1 580
1 581
1 582
1 583
1 584
1 585
1 586
1 587
1 588
1 589
1 590
1 591
1 592
1 593
1 594
1 595
1 596
1 597
1 598
1 599
1 600
1 601
1 602
1 603
1 604
1 605
1 606
1 607
1 608
1 609
1 610
1 611
1 612
1 613
1 614
1 615
1 616
1 617
1 618
1 619
1 620
1 621
1 622
1 623
1 624
1 625
1 626
1 627
1 628
1 629
1 630
1 631
1 632
1 633
1 634
1 635
1 636
1 637
1 638
1 639
1 640
1 641
1 642
1 643
1 644
1 645
1 646
1 647
1 648
1 649
1 650
1 651
1 652
1 653
1 654
1 655
1 656
1 657
1 658
1 659
1 660
1 661
1 662
1 663
1 664
1 665
1 666
1 667
1 668
1 669
1 670
1 671
1 672
1 673
1 674
1 675
1 676
1 677
1 678
1 679
1 680
POINT_DATA 681
SCALARS is_boundary int 1
LOOKUP_TABLE default
0
0
0
0
0
0
0
0
0
0
0
0
0
0
0
0
0
0
0
0
0
0
0
0
0
0
0
0
0
0
0
0
0
0
0
0
0
0
0
0
0
0
0
0
0
0
0
0
0
0
0
0
0
0
0
0
0
0
0
0
0
0
0
0
0
0
0
0
0
0
0
0
0
0
0
0
0
0
0
0
0
0
0
0
0
0
0
0
0
0
0
0
0
0
0
0
0
0
0
0
0
0
0
0
0
0
0
0
0
0
0
0
0
0
0
0
0
0
0
0
0
0
0
0
0
0
0
0
0
0
0
0
0
0
0
0
0
0
0
0
0
0
0
0
0
0
0
0
0
0
0
0
0
0
0
0
0
0
0
0
0
0
0
0
0
0
0
0
0
0
0
0
0
0
0
0
0
0
0
0
0
0
0
0
0
0
0
0
0
0
0
0
0
0
0
0
0
0
0
0
0
0
0
0
0
0
0
0
0
0
0
0
0
0
0
0
0
0
0
0
0
0
0
0
0
0
0
0
0
0
0
0
0
0
0
0
0
0
0
0
0
0
0
0
0
0
0
0
0
0
0
0
0
0
0
0
0
0
0
0
0
0
0
0
0
0
0
0
0
0
0
0
0
0
0
0
0
0
0
0
0
0
0
0
0
0
0
0
0
0
0
0
0
0
0
0
0
0
0
0
0
0
0
0
0
0
0
0
0
0
0
0
0
0
0
0
0
0
0
0
0
0
0
0
0
0
0
0
0
0
0
0
0
0
0
0
0
0
0
0
0
0
0
0
0
0
0
0
0
0
0
0
0
0
0
0
0
0
0
0
0
0
0
0
0
0
0
0
0
0
0
0
0
0
0
1
1
1
1
1
1
1
1
1
1
1
1
1
1
1
1
1
1
1
1
1
1
1
1
1
1
1
1
1
1
1
1
1
1
1
1
1
1
1
1
1
1
1
1
1
1
1
1
1
1
1
1
1
1
1
1
1
1
1
1
1
1
1
1
1
1
1
1
1
1
1
1
1
1
1
1
1
1
1
1
1
1
1
1
1
1
1
1
1
1
1
1
1
1
1
1
1
1
1
1
1
1
1
1
1
1
1
1
1
1
1
1
1
1
1
1
1
1
1
1
1
1
1
1
1
1
1
1
1
1
1
1
1
1
1
1
1
1
1
1
1
1
1
1
1
1
1
1
1
1
1
1
1
1
1
1
1
1
1
1
1
1
1
1
1
1
1
1
1
1
1
1
1
1
1
1
1
1
1
1
1
1
1
1
1
1
1
1
1
1
1
1
1
1
1
1
1
1
1
1
1
1
1
1
1
1
1
1
1
1
1
1
1
1
1
1
1
1
1
1
1
1
1
1
1
1
1
1
1
1
1
1
1
1
1
1
1
1
1
1
1
1
1
1
1
1
1
1
1
1
1
1
1
1
1
1
1
1
1
1
1
1
1
1
1
1
1
1
1
1
1
1
1
1
1
1
1
1
1
1
1
1
1
1
1
1
1
1
1
1
1
1
1
1
1
1
1
1
1
1
1
1
1
1
1
1
SCALARS rho float 1
LOOKUP_TABLE default
1020
1020
1020
1020
1020
1020
1020
1020
1020
1020
1020
1020
1020
1020
1020
1020
1020
1020
1020
1020
1020
1020
1020
1020
1020
1020
1020
1020
1020
1020
1020
1020
1020
1020
1020
1020
1020
1020
1020
1020
1020
1020
1020
1020
1020
1020
1020
1020
1020
1020
1020
1020
1020
1020
1020
1020
1020
1020
1020
1020
1020
1020
1020
1020
1020
1020
1020
1020
1020
1020
1020
1020
1020
1020
1020
1020
1020
1020
1020
1020
1020
1020
1020
1020
1020
1020
1020
1020
1020
1020
1020
1020
1020
1020
1020
1020
1020
1020
1020
1020
1020
1020
1020
1020
1020
1020
1020
1020
1020
1020
1020
1020
1020
1020
1020
1020
1020
1020
1020
1020
1020
1020
1020
1020
1020
1020
1020
1020
1020
1020
1020
1020
1020
1020
1020
1020
1020
1020
1020
1020
1020
1020
1020
1020
1020
1020
1020
1020
1020
1020
1020
1020
1020
1020
1020
1020
1020
1020
1020
1020
1020
1020
1020
1020
1020
1020
1020
1020
1020
1020
1020
1020
1020
1020
1020
1020
1020
1020
1020
1020
1020
1020
1020
1020
1020
1020
1020
1020
1020
1020
1020
1020
1020
1020
1020
1020
1020
1020
1020
1020
1020
1020
1020
1020
1020
1020
1020
1020
1020
1020
1020
1020
1020
1020
1020
1020
1020
1020
1020
1020
1020
1020
1020
1020
1020
1020
1020
1020
1020
1020
1020
1020
1020
1020
1020
1020
1020
1020
1020
1020
1020
1020
1020
1020
1020
1020
1020
1020
1020
1020
1020
1020
1020
1020
1020
1020
1020
1020
1020
1020
1020
1020
1020
1020
1020
1020
1020
1020
1020
1020
1020
1020
1020
1020
1020
1020
1020
1020
1020
1020
1020
1020
1020
1020
1020
1020
1020
1020
1020
1020
1020
1020
1020
1020
1020
1020
1020
1020
1020
1020
1020
1020
1020
1020
1020
1020
1020
1020
1020
1020
1020
1020
1020
1020
1020
1020
1020
1020
1020
1020
1020
1020
1020
1020
1020
1020
1020
1020
1020
1020
1020
1020
1020
1020
1020
1020
1020
1020
1020
1020
1020
1020
1020
1020
1020
1020
1020
1020
1020
1020
1020
1020
1020
1020
1020
1020
1020
1020
1020
1020
1020
1020
1020
1020
1020
1020
1020
1020
1020
1020
1020
1020
1020
1020
1020
1000
1000
1000
1000
1000
1000
1000
1000
1000
1000
1000
1000
1000
1000
1000
1000
1000
1000
1000
1000
1000
1000
1000
1000
1000
1000
1000
1000
1000
1000
1000
1000
1000
1000
1000
1000
1000
1000
1000
1000
1000
1000
1000
1000
1000
1000
1000
1000
1000
1000
1000
1000
1000
1000
1000
1000
1000
1000
1000
1000
1000
1000
1000
1000
1000
1000
1000
1000
1000
1000
1000
1000
1000
1000
1000
1000
1000
1000
1000
1000
1000
1000
1000
1000
1000
1000
1000
1000
1000
1000
1000
1000
1000
1000
1000
1000
1000
1000
1000
1000
1000
1000
1000
1000
1000
1000
1000
1000
1000
1000
1000
1000
1000
1000
1000
1000
1000
1000
1000
1000
1000
1000
1000
1000
1000
1000
1000
1000
1000
1000
1000
1000
1000
1000
1000
1000
1000
1000
1000
1000
1000
1000
1000
1000
1000
1000
1000
1000
1000
1000
1000
1000
1000
1000
1000
1000
1000
1000
1000
1000
1000
1000
1000
1000
1000
1000
1000
1000
1000
1000
1000
1000
1000
1000
1000
1000
1000
1000
1000
1000
1000
1000
1000
1000
1000
1000
1000
1000
1000
1000
1000
1000
1000
1000
1000
1000
1000
1000
1000
1000
1000
1000
1000
1000
1000
1000
1000
1000
1000
1000
1000
1000
1000
1000
1000
1000
1000
1000
1000
1000
1000
1000
1000
1000
1000
1000
1000
1000
1000
1000
1000
1000
1000
1000
1000
1000
1000
1000
1000
1000
1000
1000
1000
1000
1000
1000
1000
1000
1000
1000
1000
1000
1000
1000
1000
1000
1000
1000
1000
1000
1000
1000
1000
1000
1000
1000
1000
1000
1000
1000
1000
1000
1000
1000
1000
1000
1000
1000
1000
1000
1000
1000
1000
1000
1000
1000
1000
1000
1000
1000
1000
1000
1000
1000
1000
1000
1000
1000
1000
1000
1000
1000
1000
1000
1000
1000
SCALARS p float 1
LOOKUP_TABLE default
25004.681136676067
25004.681136676067
25004.681136676067
25004.681136676067
25004.681136676067
25004.681136676067
25004.681136676067
25004.681136676067
25004.681136676067
25004.681136676067
25004.681136676067
25004.681136676067
25004.681136676067
25004.681136676067
25004.681136676067
25004.681136676067
25004.681136676067
25004.681136676067
25004.681136676067
25004.681136676067
25004.681136676067
25004.681136676067
25004.681136676067
25004.681136676067
25004.681136676067
25004.681136676067
25004.681136676067
25004.681136676067
25004.681136676067
25004.681136676067
25004.681136676067
25004.681136676067
25004.681136676067
25004.681136676067
25004.681136676067
25004.681136676067
25004.681136676067
25004.681136676067
25004.681136676067
25004.681136676067
25004.681136676067
25004.681136676067
25004.681136676067
25004.681136676067
25004.681136676067
25004.681136676067
25004.681136676067
25004.681136676067
25004.681136676067
25004.681136676067
25004.681136676067
25004.681136676067
25004.681136676067
25004.681136676067
25004.681136676067
25004.681136676067
25004.681136676067
25004.681136676067
25004.681136676067
25004.681136676067
25004.681136676067
25004.681136676067
25004.681136676067
25004.681136676067
25004.681136676067
25004.681136676067
25004.681136676067
25004.681136676067
25004.681136676067
25004.681136676067
25004.681136676067
25004.681136676067
25004.681136676067
25004.681136676067
25004.681136676067
25004.681136676067
25004.681136676067
25004.681136676067
25004.681136676067
25004.681136676067
25004.681136676067
25004.681136676067
25004.681136676067
25004.681136676067
25004.681136676067
25004.681136676067
25004.681136676067
25004.681136676067
25004.681136676067
25004.681136676067
25004.681136676067
25004.681136676067
25004.681136676067
25004.681136676067
25004.681136676067
25004.681136676067
25004.681136676067
25004.681136676067
25004.681136676067
25004.681136676067
25004.681136676067
25004.681136676067
25004.681136676067
25004.681136676067
25004.681136676067
25004.681136676067
25004.681136676067
25004.681136676067
25004.681136676067
25004.681136676067
25004.681136676067
25004.681136676067
25004.681136676067
25004.681136676067
25004.681136676067
25004.681136676067
25004.681136676067
25004.681136676067
25004.681136676067
25004.681136676067
25004.681136676067
25004.681136676067
25004.681136676067
25004.681136676067
25004.681136676067
25004.681136676067
25004.681136676067
25004.681136676067
25004.681136676067
25004.681136676067
25004.681136676067
25004.681136676067
25004.681136676067
25004.681136676067
25004.681136676067
25004.681136676067
25004.681136676067
25004.681136676067
25004.681136676067
25004.681136676067
25004.681136676067
25004.681136676067
25004.681136676067
25004.681136676067
25004.681136676067
25004.681136676067
25004.681136676067
25004.681136676067
25004.681136676067
25004.681136676067
25004.681136676067
25004.681136676067
25004.681136676067
25004.681136676067
25004.681136676067
25004.681136676067
25004.681136676067
25004.681136676067
25004.681136676067
25004.681136676067
25004.681136676067
25004.681136676067
25004.681136676067
25004.681136676067
25004.681136676067
25004.681136676067
25004.681136676067
25004.681136676067
25004.681136676067
25004.681136676067
25004.681136676067
25004.681136676067
25004.681136676067
25004.681136676067
25004.681136676067
25004.681136676067
25004.681136676067
25004.681136676067
25004.681136676067
25004.681136676067
25004.681136676067
25004.681136676067
25004.681136676067
25004.681136676067
25004.681136676067
25004.681136676067
25004.681136676067
25004.681136676067
25004.681136676067
25004.681136676067
25004.681136676067
25004.681136676067
25004.681136676067
25004.681136676067
25004.681136676067
25004.681136676067
25004.681136676067
25004.681136676067
25004.681136676067
25004.681136676067
25004.681136676067
25004.681136676067
25004.681136676067
25004.681136676067
25004.681136676067
25004.681136676067
25004.681136676067
25004.681136676067
25004.681136676067
25004.681136676067
25004.681136676067
25004.681136676067
25004.681136676067
25004.681136676067
25004.681136676067
25004.681136676067
25004.681136676067
25004.681136676067
25004.681136676067
25004.681136676067
25004.681136676067
25004.681136676067
25004.681136676067
25004.681136676067
25004.681136676067
25004.681136676067
25004.681136676067
25004.681136676067
25004.681136676067
25004.681136676067
25004.681136676067
25004.681136676067
25004.681136676067
25004.681136676067
25004.681136676067
25004.681136676067
25004.681136676067
25004.681136676067
25004.681136676067
25004.681136676067
25004.681136676067
25004.681136676067
25004.681136676067
25004.681136676067
25004.681136676067
25004.681136676067
25004.681136676067
25004.681136676067
25004.681136676067
25004.681136676067
25004.681136676067
25004.681136676067
25004.681136676067
25004.681136676067
25004.681136676067
25004.681136676067
25004.681136676067
25004.681136676067
25004.681136676067
25004.681136676067
25004.681136676067
25004.681136676067
25004.681136676067
25004.681136676067
25004.681136676067
25004.681136676067
25004.681136676067
25004.681136676067
25004.681136676067
25004.681136676067
25004.681136676067
25004.681136676067
25004.681136676067
25004.681136676067
25004.681136676067
25004.681136676067
25004.681136676067
25004.681136676067
25004.681136676067
25004.681136676067
25004.681136676067
25004.681136676067
25004.681136676067
25004.681136676067
25004.681136676067
25004.681136676067
25004.681136676067
25004.681136676067
25004.681136676067
25004.681136676067
25004.681136676067
25004.681136676067
25004.681136676067
25004.681136676067
25004.681136676067
25004.681136676067
25004.681136676067
25004.681136676067
25004.681136676067
25004.681136676067
25004.681136676067
25004.681136676067
25004.681136676067
25004.681136676067
25004.681136676067
25004.681136676067
25004.681136676067
25004.681136676067
25004.681136676067
25004.681136676067
25004.681136676067
25004.681136676067
25004.681136676067
25004.681136676067
25004.681136676067
25004.681136676067
25004.681136676067
25004.681136676067
25004.681136676067
25004.681136676067
25004.681136676067
25004.681136676067
25004.681136676067
25004.681136676067
25004.681136676067
25004.681136676067
25004.681136676067
25004.681136676067
25004.681136676067
25004.681136676067
25004.681136676067
25004.681136676067
25004.681136676067
25004.681136676067
25004.681136676067
25004.681136676067
25004.681136676067
25004.681136676067
25004.681136676067
25004.681136676067
25004.681136676067
25004.681136676067
25004.681136676067
25004.681136676067
25004.681136676067
25004.681136676067
25004.681136676067
25004.681136676067
25004.681136676067
25004.681136676067
25004.681136676067
25004.681136676067
25004.681136676067
25004.681136676067
25004.681136676067
25004.681136676067
25004.681136676067
25004.681136676067
25004.681136676067
25004.681136676067
25004.681136676067
25004.681136676067
25004.681136676067
25004.681136676067
25004.681136676067
25004.681136676067
25004.681136676067
25004.681136676067
25004.681136676067
25004.681136676067
25004.681136676067
25004.681136676067
25004.681136676067
25004.681136676067
25004.681136676067
0
0
0
0
0
0
24755.427380930229
24992.053679939432
24998.123197000092
0
0
0
24996.077392575637
25003.725557130285
25004.150435134343
0
0
0
25000.614882528509
25004.185996960816
25004.399665443441
0
0
0
25000.97875096638
25004.206269452214
25004.405441958588
0
0
0
25001.008805634796
25004.205764864288
25004.403872200095
0
0
0
25001.000194320713
25004.205020915699
25004.403540109739
0
0
0
25000.993721043673
25004.204600689187
25004.403446168872
0
0
0
25000.990635609731
25004.204406129287
25004.403411741037
0
0
0
25000.989478407384
25004.2043377023
25004.403402727494
0
0
0
25000.989463728904
25004.204338832962
25004.403404091285
0
0
0
25000.990601670474
25004.204407729485
25004.403414317941
0
0
0
25000.993689757797
25004.204602011785
25004.40344879081
0
0
0
25001.000177592592
25004.20502278315
25004.40354334897
0
0
0
25001.008758847129
25004.205765160405
25004.403876032196
0
0
0
25000.978668016996
25004.206270430113
25004.40544749298
0
0
0
25000.61480771903
25004.186005087162
25004.399675443135
0
0
0
24996.076749230509
25003.725519821288
25004.150418002708
0
0
0
24755.37020258986
24992.051730272251
24998.122011447886
0
0
0
0
0
0
0
0
0
0
0
0
0
0
0
0
0
0
0
0
0
0
0
0
0
0
0
0
0
0
0
0
0
0
0
0
0
0
0
0
0
0
0
0
0
0
0
0
0
0
0
0
0
0
0
0
0
0
0
0
0
0
0
0
0
0
0
0
0
0
0
0
0
0
0
0
0
0
0
0
0
0
0
0
0
0
0
0
0
0
0
0
0
0
0
0
0
0
0
0
0
0
0
0
0
0
0
0
0
0
0
0
0
0
0
0
0
0
0
0
0
0
0
0
0
0
0
0
0
0
0
0
0
0
0
0
0
0
0
0
0
0
0
0
0
0
0
0
0
0
0
0
0
0
0
0
0
0
0
0
0
0
0
0
0
0
0
0
0
0
0
0
0
0
0
0
0
0
0
0
0
0
0
0
0
0
0
0
0
0
0
0
0
0
0
SCALARS m float 1
LOOKUP_TABLE default
0.39942306611962441
0.39942306611962441
0.39942306611962441
0.39942306611962441
0.39942306611962441
0.39942306611962441
0.39942306611962441
0.39942306611962441
0.39942306611962441
0.39942306611962441
0.39942306611962441
0.39942306611962441
0.39942306611962441
0.39942306611962441
0.39942306611962441
0.39942306611962441
0.39942306611962441
0.39942306611962441
0.39942306611962441
0.39942306611962441
0.39942306611962441
0.39942306611962441
0.39942306611962441
0.39942306611962441
0.39942306611962441
0.39942306611962441
0.39942306611962441
0.39942306611962441
0.39942306611962441
0.39942306611962441
0.39942306611962441
0.39942306611962441
0.39942306611962441
0.39942306611962441
0.39942306611962441
0.39942306611962441
0.39942306611962441
0.39942306611962441
0.39942306611962441
0.39942306611962441
0.39942306611962441
0.39942306611962441
0.39942306611962441
0.39942306611962441
0.39942306611962441
0.39942306611962441
0.39942306611962441
0.39942306611962441
0.39942306611962441
0.39942306611962441
0.39942306611962441
0.39942306611962441
0.39942306611962441
0.39942306611962441
0.39942306611962441
0.39942306611962441
0.39942306611962441
0.39942306611962441
0.39942306611962441
0.39942306611962441
0.39942306611962441
0.39942306611962441
0.39942306611962441
0.39942306611962441
0.39942306611962441
0.39942306611962441
0.39942306611962441
0.39942306611962441
0.39942306611962441
0.39942306611962441
0.39942306611962441
0.39942306611962441
0.39942306611962441
0.39942306611962441
0.39942306611962441
0.39942306611962441
0.39942306611962441
0.39942306611962441
0.39942306611962441
0.39942306611962441
0.39942306611962441
0.39942306611962441
0.39942306611962441
0.39942306611962441
0.39942306611962441
0.39942306611962441
0.39942306611962441
0.39942306611962441
0.39942306611962441
0.39942306611962441
0.39942306611962441
0.39942306611962441
0.39942306611962441
0.39942306611962441
0.39942306611962441
0.39942306611962441
0.39942306611962441
0.39942306611962441
0.39942306611962441
0.39942306611962441
0.39942306611962441
0.39942306611962441
0.39942306611962441
0.39942306611962441
0.39942306611962441
0.39942306611962441
0.39942306611962441
0.39942306611962441
0.39942306611962441
0.39942306611962441
0.39942306611962441
0.39942306611962441
0.39942306611962441
0.39942306611962441
0.39942306611962441
0.39942306611962441
0.39942306611962441
0.39942306611962441
0.39942306611962441
0.39942306611962441
0.39942306611962441
0.39942306611962441
0.39942306611962441
0.39942306611962441
0.39942306611962441
0.39942306611962441
0.39942306611962441
0.39942306611962441
0.39942306611962441
0.39942306611962441
0.39942306611962441
0.39942306611962441
0.39942306611962441
0.39942306611962441
0.39942306611962441
0.39942306611962441
0.39942306611962441
0.39942306611962441
0.39942306611962441
0.39942306611962441
0.39942306611962441
0.39942306611962441
0.39942306611962441
0.39942306611962441
0.39942306611962441
0.39942306611962441
0.39942306611962441
0.39942306611962441
0.39942306611962441
0.39942306611962441
0.39942306611962441
0.39942306611962441
0.39942306611962441
0.39942306611962441
0.39942306611962441
0.39942306611962441
0.39942306611962441
0.39942306611962441
0.39942306611962441
0.39942306611962441
0.39942306611962441
0.39942306611962441
0.39942306611962441
0.39942306611962441
0.39942306611962441
0.39942306611962441
0.39942306611962441
0.39942306611962441
0.39942306611962441
0.39942306611962441
0.39942306611962441
0.39942306611962441
0.39942306611962441
0.39942306611962441
0.39942306611962441
0.39942306611962441
0.39942306611962441
0.39942306611962441
0.39942306611962441
0.39942306611962441
0.39942306611962441
0.39942306611962441
0.39942306611962441
0.39942306611962441
0.39942306611962441
0.39942306611962441
0.39942306611962441
0.39942306611962441
0.39942306611962441
0.39942306611962441
0.39942306611962441
0.39942306611962441
0.39942306611962441
0.39942306611962441
0.39942306611962441
0.39942306611962441
0.39942306611962441
0.39942306611962441
0.39942306611962441
0.39942306611962441
0.39942306611962441
0.39942306611962441
0.39942306611962441
0.39942306611962441
0.39942306611962441
0.39942306611962441
0.39942306611962441
0.39942306611962441
0.39942306611962441
0.39942306611962441
0.39942306611962441
0.39942306611962441
0.39942306611962441
0.39942306611962441
0.39942306611962441
0.39942306611962441
0.39942306611962441
0.39942306611962441
0.39942306611962441
0.39942306611962441
0.39942306611962441
0.39942306611962441
0.39942306611962441
0.39942306611962441
0.39942306611962441
0.39942306611962441
0.39942306611962441
0.39942306611962441
0.39942306611962441
0.39942306611962441
0.39942306611962441
0.39942306611962441
0.39942306611962441
0.39942306611962441
0.39942306611962441
0.39942306611962441
0.39942306611962441
0.39942306611962441
0.39942306611962441
0.39942306611962441
0.39942306611962441
0.39942306611962441
0.39942306611962441
0.39942306611962441
0.39942306611962441
0.39942306611962441
0.39942306611962441
0.39942306611962441
0.39942306611962441
0.39942306611962441
0.39942306611962441
0.39942306611962441
0.39942306611962441
0.39942306611962441
0.39942306611962441
0.39942306611962441
0.39942306611962441
0.39942306611962441
0.39942306611962441
0.39942306611962441
0.39942306611962441
0.39942306611962441
0.39942306611962441
0.39942306611962441
0.39942306611962441
0.39942306611962441
0.39942306611962441
0.39942306611962441
0.39942306611962441
0.39942306611962441
0.39942306611962441
0.39942306611962441
0.39942306611962441
0.39942306611962441
0.39942306611962441
0.39942306611962441
0.39942306611962441
0.39942306611962441
0.39942306611962441
0.39942306611962441
0.39942306611962441
0.39942306611962441
0.39942306611962441
0.39942306611962441
0.39942306611962441
0.39942306611962441
0.39942306611962441
0.39942306611962441
0.39942306611962441
0.39942306611962441
0.39942306611962441
0.39942306611962441
0.39942306611962441
0.39942306611962441
0.39942306611962441
0.39942306611962441
0.39942306611962441
0.39942306611962441
0.39942306611962441
0.39942306611962441
0.39942306611962441
0.39942306611962441
0.39942306611962441
0.39942306611962441
0.39942306611962441
0.39942306611962441
0.39942306611962441
0.39942306611962441
0.39942306611962441
0.39942306611962441
0.39942306611962441
0.39942306611962441
0.39942306611962441
0.39942306611962441
0.39942306611962441
0.39942306611962441
0.39942306611962441
0.39942306611962441
0.39942306611962441
0.39942306611962441
0.39942306611962441
0.39942306611962441
0.39942306611962441
0.39942306611962441
0.39942306611962441
0.39942306611962441
0.39942306611962441
0.39942306611962441
0.39942306611962441
0.39942306611962441
0.39942306611962441
0.39942306611962441
0.39942306611962441
0.39942306611962441
0.39942306611962441
0.39942306611962441
0.39942306611962441
0.39942306611962441
0.39942306611962441
0.39942306611962441
0.39942306611962441
0.39942306611962441
0.39942306611962441
0.39942306611962441
0.39942306611962441
0.39942306611962441
0.39942306611962441
0.39942306611962441
0.39942306611962441
0.39942306611962441
0.39942306611962441
0.39942306611962441
0.39942306611962441
0.39942306611962441
0.39942306611962441
0.39942306611962441
0.39942306611962441
0.39942306611962441
0.39942306611962441
0.39942306611962441
0.39942306611962441
0.39942306611962441
0.39942306611962441
0.39942306611962441
0.39942306611962441
0.39942306611962441
0.39942306611962441
0.39942306611962441
0.39942306611962441
0.39942306611962441
0.39942306611962441
0.39942306611962441
0.39942306611962441
0.39942306611962441
0.39942306611962441
0.39942306611962441
0.39942306611962441
0.39942306611962441
0.39942306611962441
0.39942306611962441
0.39942306611962441
0.39942306611962441
0.39942306611962441
0.39942306611962441
0.39942306611962441
0.39942306611962441
0.39942306611962441
0.39942306611962441
0.39942306611962441
0.39942306611962441
0.39942306611962441
0.39942306611962441
0.39942306611962441
0.39942306611962441
0.39942306611962441
0.39942306611962441
0.39942306611962441
0.39942306611962441
0.39942306611962441
0.39942306611962441
0.39942306611962441
0.39942306611962441
0.39942306611962441
0.39942306611962441
0.39942306611962441
0.39942306611962441
0.39942306611962441
0.39942306611962441
0.39942306611962441
0.39942306611962441
0.39942306611962441
0.39942306611962441
0.39942306611962441
0.39942306611962441
0.39942306611962441
0.39942306611962441
0.39942306611962441
0.39942306611962441
0.39942306611962441
0.39942306611962441
0.39942306611962441
0.39942306611962441
0.39942306611962441
0.39942306611962441
0.39942306611962441
0.39942306611962441
0.39942306611962441
0.39942306611962441
0.39942306611962441
0.39942306611962441
0.39942306611962441
0.39942306611962441
0.39942306611962441
0.39942306611962441
0.39942306611962441
0.39942306611962441
0.39942306611962441
0.39942306611962441
0.39942306611962441
0.39942306611962441
0.39942306611962441
0.39942306611962441
0.39942306611962441
0.39942306611962441
0.39942306611962441
0.39942306611962441
0.39942306611962441
0.39942306611962441
0.39942306611962441
0.39942306611962441
0.39942306611962441
0.39942306611962441
0.39942306611962441
0.39942306611962441
0.39942306611962441
0.39942306611962441
0.39942306611962441
0.39942306611962441
0.39942306611962441
0.39942306611962441
0.39942306611962441
0.39942306611962441
0.39942306611962441
0.39942306611962441
0.39942306611962441
0.39942306611962441
0.39942306611962441
0.39942306611962441
0.39942306611962441
0.39942306611962441
0.39942306611962441
0.39942306611962441
0.39942306611962441
0.39942306611962441
0.39942306611962441
0.39942306611962441
0.39942306611962441
0.39942306611962441
0.39942306611962441
0.39942306611962441
0.39942306611962441
0.39942306611962441
0.39942306611962441
0.39942306611962441
0.39942306611962441
0.39942306611962441
0.39942306611962441
0.39942306611962441
0.39942306611962441
0.39942306611962441
0.39942306611962441
0.39942306611962441
0.39942306611962441
0.39942306611962441
0.39942306611962441
0.39942306611962441
0.39942306611962441
0.39942306611962441
0.39942306611962441
0.39942306611962441
0.39942306611962441
0.39942306611962441
0.39942306611962441
0.39942306611962441
0.39942306611962441
0.39942306611962441
0.39942306611962441
0.39942306611962441
0.39942306611962441
0.39942306611962441
0.39942306611962441
0.39942306611962441
0.39942306611962441
0.39942306611962441
0.39942306611962441
0.39942306611962441
0.39942306611962441
0.39942306611962441
0.39942306611962441
0.39942306611962441
0.39942306611962441
0.39942306611962441
0.39942306611962441
0.39942306611962441
0.39942306611962441
0.39942306611962441
0.39942306611962441
0.39942306611962441
0.39942306611962441
0.39942306611962441
0.39942306611962441
0.39942306611962441
0.39942306611962441
0.39942306611962441
0.39942306611962441
0.39942306611962441
0.39942306611962441
0.39942306611962441
0.39942306611962441
0.39942306611962441
0.39942306611962441
0.39942306611962441
0.39942306611962441
0.39942306611962441
0.39942306611962441
0.39942306611962441
0.39942306611962441
0.39942306611962441
0.39942306611962441
0.39942306611962441
0.39942306611962441
0.39942306611962441
0.39942306611962441
0.39942306611962441
0.39942306611962441
0.39942306611962441
0.39942306611962441
0.39942306611962441
0.39942306611962441
0.39942306611962441
0.39942306611962441
0.39942306611962441
0.39942306611962441
0.39942306611962441
0.39942306611962441
0.39942306611962441
0.39942306611962441
0.39942306611962441
0.39942306611962441
0.39942306611962441
0.39942306611962441
0.39942306611962441
0.39942306611962441
0.39942306611962441
0.39942306611962441
0.39942306611962441
0.39942306611962441
0.39942306611962441
0.39942306611962441
0.39942306611962441
0.39942306611962441
0.39942306611962441
0.39942306611962441
0.39942306611962441
0.39942306611962441
0.39942306611962441
0.39942306611962441
0.39942306611962441
0.39942306611962441
0.39942306611962441
0.39942306611962441
0.39942306611962441
0.39942306611962441
0.39942306611962441
0.39942306611962441
0.39942306611962441
0.39942306611962441
0.39942306611962441
0.39942306611962441
0.39942306611962441
0.39942306611962441
0.39942306611962441
0.39942306611962441
0.39942306611962441
0.39942306611962441
0.39942306611962441
0.39942306611962441
0.39942306611962441
0.39942306611962441
0.39942306611962441
0.39942306611962441
0.39942306611962441
0.39942306611962441
0.39942306611962441
0.39942306611962441
0.39942306611962441
0.39942306611962441
0.39942306611962441
0.39942306611962441
0.39942306611962441
0.39942306611962441
0.39942306611962441
0.39942306611962441
0.39942306611962441
0.39942306611962441
0.39942306611962441
0.39942306611962441
0.39942306611962441
0.39942306611962441
0.39942306611962441
0.39942306611962441
0.39942306611962441
0.39942306611962441
0.39942306611962441
0.39942306611962441
0.39942306611962441
0.39942306611962441
0.39942306611962441
0.39942306611962441
0.39942306611962441
0.39942306611962441
0.39942306611962441
0.39942306611962441
0.39942306611962441
0.39942306611962441
0.39942306611962441
0.39942306611962441
0.39942306611962441
0.39942306611962441
0.39942306611962441
0.39942306611962441
0.39942306611962441
0.39942306611962441
0.39942306611962441
0.39942306611962441
0.39942306611962441
0.39942306611962441
0.39942306611962441
0.39942306611962441
0.39942306611962441
0.39942306611962441
0.39942306611962441
0.39942306611962441
0.39942306611962441
0.39942306611962441
0.39942306611962441
0.39942306611962441
0.39942306611962441
0.39942306611962441
0.39942306611962441
0.39942306611962441
0.39942306611962441
0.39942306611962441
0.39942306611962441
0.39942306611962441
0.39942306611962441
0.39942306611962441
0.39942306611962441
0.39942306611962441
0.39942306611962441
0.39942306611962441
VECTORS v float
-3.1051395253143479e-05 -0.041424850284792314 0
-3.2874450115801982e-05 -0.042366127697662841 0
-3.4223103097424621e-05 -0.043123268627066093 0
-3.5506757449322226e-05 -0.043910463889138211 0
-3.6726961926674254e-05 -0.044732920289773166 0
-3.7812002774843164e-05 -0.045598044276543633 0
-3.8979662104559243e-05 -0.046516187397937475 0
-4.0053998098007269e-05 -0.047498161555770545 0
-4.1066603281576715e-05 -0.048555061177904708 0
-4.1973445248704591e-05 -0.049697886999141086 0
-4.2833346446885341e-05 -0.050938199340980733 0
-4.3627293547269318e-05 -0.052287417714783645 0
-4.437818517252771e-05 -0.053760352434047858 0
-4.5084485282382486e-05 -0.055382060406935434 0
-4.5746088379249271e-05 -0.057180748594287768 0
-4.6458400697683497e-05 -0.059185308618034317 0
-4.7198975955418278e-05 -0.061430084792604811 0
-4.8017523572790854e-05 -0.063974185004391837 0
-4.8854984039809642e-05 -0.06688134025093477 0
-4.9776126046164872e-05 -0.070238300333917481 0
-5.0804721259606412e-05 -0.074180878864759645 0
-5.1945289057870777e-05 -0.078858809296749738 0
-5.327145818623207e-05 -0.084541315057102384 0
-5.4850220974747044e-05 -0.092083216290027553 0
-5.7419799192708025e-05 -0.10465399223495833 0
-1.9621178886148875e-05 -0.041862378582091395 0
-2.1070866345612711e-05 -0.04287604206283388 0
-2.2094491997618629e-05 -0.04368618621305121 0
-2.3010306960392121e-05 -0.044504199145926696 0
-2.385133618582316e-05 -0.04534592523795155 0
-2.4570057482154382e-05 -0.046223970408132815 0
-2.5285565220645647e-05 -0.047151083815411284 0
-2.5894849532219765e-05 -0.048140409261168131 0
-2.6507134636817498e-05 -0.049204619813962944 0
-2.6802744052563413e-05 -0.050355842553816164 0
-2.7433841004731682e-05 -0.051605844406245875 0
-2.8422424493095893e-05 -0.052966635924393636 0
-2.9050998610151688e-05 -0.054454285673260175 0
-2.9649627293689259e-05 -0.056094180344014109 0
-3.0214342012677211e-05 -0.057913529178678917 0
-3.0775729396917393e-05 -0.059940717259006737 0
-3.1322236458249143e-05 -0.062208017057841687 0
-3.1824798665138648e-05 -0.064766639961749015 0
-3.2377862791509561e-05 -0.067679847212933977 0
-3.3120053418691733e-05 -0.071027908614840818 0
-3.3676491872013389e-05 -0.074919650962682924 0
-3.4245952584277526e-05 -0.079497396490507702 0
-3.4539596105745429e-05 -0.085074947734071329 0
-3.5296698017624281e-05 -0.09252745175867616 0
-3.603882577563244e-05 -0.10521950824515977 0
-7.8449633652328488e-06 -0.041971269022411634 0
-8.413555336939922e-06 -0.042989037285466297 0
-8.8248413702290459e-06 -0.043802751386761381 0
-9.2279119455735521e-06 -0.044626256645587795 0
-9.6018946165672498e-06 -0.04547541721174516 0
-9.9120184947905813e-06 -0.04636349106540022 0
-1.031695482102145e-05 -0.047302777587097576 0
-1.0685557056284246e-05 -0.048307473401931637 0
-1.1206961287297522e-05 -0.049390429089129065 0
-1.162631616619585e-05 -0.050563359891746568 0
-1.1779722278657807e-05 -0.051840134547134861 0
-1.2242780741920984e-05 -0.053232449032317691 0
-1.2576985187350626e-05 -0.054757312605449235 0
-1.2720482103354496e-05 -0.056440299563642049 0
-1.2907226294482629e-05 -0.058312291040940906 0
-1.319163402080479e-05 -0.060402812457376671 0
-1.3831987574412666e-05 -0.062746558811549433 0
-1.42446661415633e-05 -0.065386532462621993 0
-1.4791524660244528e-05 -0.068388439535392656 0
-1.5205658229721708e-05 -0.071832052178389047 0
-1.5836287258995462e-05 -0.075819366758932 0
-1.6492134076527286e-05 -0.080497580337458324 0
-1.695880196941364e-05 -0.086190305279306156 0
-1.7488593790368596e-05 -0.093763681559481685 0
-1.8230804822268708e-05 -0.10664738045415048 0
-2.4850039431497041e-06 -0.042031670078551069 0
-2.5822816565728897e-06 -0.043056389244061508 0
-2.703592953214088e-06 -0.043876393454057187 0
-3.4181690670040546e-06 -0.044706736838240953 0
-3.5146736110017111e-06 -0.045563176400737745 0
-3.6167838946383304e-06 -0.046459869571622681 0
-3.6642456087325364e-06 -0.047408574832615763 0
-3.4884209747502154e-06 -0.048424184073641574 0
-3.5992428549493245e-06 -0.049518875612387304 0
-3.7814360388597926e-06 -0.050705329987174669 0
-3.669021298769714e-06 -0.051997377210823967 0
-3.7299580413306749e-06 -0.053406625363200691 0
-4.462179993318647e-06 -0.054951110782419363 0
-4.5282890465119516e-06 -0.056656507353365818 0
-4.7067096182149144e-06 -0.058554137720979595 0
-4.7600473762345638e-06 -0.060673797550504401 0
-4.9146976745440361e-06 -0.063052116571686856 0
-5.0695177111409809e-06 -0.065729066854175275 0
-5.2584696161444738e-06 -0.068771453521838527 0
-5.3202923616750338e-06 -0.072258679041032878 0
-5.7308512228133159e-06 -0.076293704433046422 0
-6.4030018627540894e-06 -0.081023767355696205 0
-6.7515365122893913e-06 -0.086772081295077685 0
-7.2703672687296513e-06 -0.094404336297829239 0
-7.8504551321731987e-06 -0.10738221767263678 0
-5.233202902209793e-07 -0.042072832446133669 0
-6.2195034982992799e-07 -0.043102312939005807 0
-6.6452292823303285e-07 -0.043926544625499629 0
-9.4781849669287033e-07 -0.044760974969505388 0
-6.7875302353530356e-07 -0.045622553694984982 0
-1.1259260662905509e-06 -0.046524143562485104 0
-1.2834615110543595e-06 -0.047477980627274784 0
-1.4373469324905201e-06 -0.048498329754566798 0
-1.517833415792533e-06 -0.049599138705785056 0
-1.869552139456109e-06 -0.050792427123341206 0
-1.9303624630052398e-06 -0.052091660917044716 0
-2.0259174614874036e-06 -0.053509058977541657 0
-3.2751200966054343e-07 -0.055062497477053135 0
-6.0962207458916667e-07 -0.056778358467802881 0
-8.6016011474440727e-07 -0.058686618130078846 0
-5.8197774771478311e-07 -0.060818716200887246 0
-7.7337217801717291e-07 -0.06321052187343143 0
-1.003004398718883e-06 -0.065902272917416863 0
-1.0964574670369035e-06 -0.068960998477625754 0
-1.1601304215164462e-06 -0.072465996071977873 0
-1.3219619654029463e-06 -0.076520439912371646 0
-1.4866832727543571e-06 -0.081270967764225988 0
-1.7870130224694591e-06 -0.087040237177202329 0
-2.09361114971509e-06 -0.094694896218158242 0
-2.3411186581707161e-06 -0.10771323621638963 0
3.084504591886181e-07 -0.042095902274074726 0
2.9860797140658592e-07 -0.043128757221265815 0
5.7952046161660147e-07 -0.043955203496721718 0
4.4638526695575873e-07 -0.044792289364904272 0
7.5959564271371797e-07 -0.045655817200766106 0
8.9961067326476249e-07 -0.046559722422107319 0
8.6938598129401992e-07 -0.047516217069017666 0
1.038205976767563e-06 -0.04854008174431429 0
1.0196822084738982e-06 -0.049643418224578233 0
1.0692962802520386e-06 -0.050839943418732499 0
1.4591176827232989e-06 -0.052141583269940686 0
1.2359377167368553e-06 -0.053563007424025463 0
2.4719049395585384e-06 -0.055119882224371121 0
2.6444795620441715e-06 -0.056840124873981872 0
1.1441347267324363e-06 -0.058752262853623186 0
2.0848738870789735e-06 -0.060891006780603815 0
2.0976517940739944e-06 -0.063288508797410464 0
2.0279688869548483e-06 -0.065986315782587235 0
2.1265203704312807e-06 -0.06905188591324643 0
2.1252729747565806e-06 -0.072563891885018383 0
2.1563660748639797e-06 -0.076625948191198834 0
2.1105516732610108e-06 -0.081384174155588837 0
1.9862139933033284e-06 -0.087161866669225249 0
1.8871598848523577e-06 -0.094823847548277038 0
1.8947189411435421e-06 -0.10785796724065404 0
1.6996934046142619e-06 -0.042106941060205287 0
1.9391636275490212e-06 -0.043140905696079743 0
1.9755974806793606e-06 -0.043968733202802569 0
2.4441450149887793e-06 -0.044806727651616217 0
2.3945594050793008e-06 -0.04567151036957106 0
2.6385712698661538e-06 -0.046576420811985583 0
2.939089634283838e-06 -0.047534437855037012 0
3.1932063817168037e-06 -0.048559365367232481 0
3.548493395003806e-06 -0.049663802199162957 0
3.2067212586753817e-06 -0.050861021023537865 0
3.2466355810378537e-06 -0.052164432233214028 0
4.0817840665768828e-06 -0.053587281794604112 0
3.8124350736618726e-06 -0.055145724198670865 0
3.511362232902499e-06 -0.056868242079336467 0
3.5760265420836907e-06 -0.058782894204867896 0
3.7054861869104262e-06 -0.060922624882234447 0
3.8300126133362133e-06 -0.063322674692882802 0
3.7544244020511796e-06 -0.066022957682408109 0
3.6933245216571978e-06 -0.069091418689219308 0
4.0790840657219827e-06 -0.072606603228801303 0
3.7693632393566407e-06 -0.076671511437052586 0
3.8541231669965313e-06 -0.081432257082090564 0
3.7552634712432827e-06 -0.087213174479285241 0
3.6994527718489233e-06 -0.094877954702816181 0
3.6194686580327012e-06 -0.10791870927203043 0
2.5457699644570883e-06 -0.042110125713557045 0
2.757850063428847e-06 -0.043144436107601387 0
2.7996930571692293e-06 -0.043972442177675333 0
3.3420515749287047e-06 -0.044811069205870219 0
3.5780848519895508e-06 -0.045676186721131752 0
3.7366604981202615e-06 -0.046581119918326114 0
4.0398026323546079e-06 -0.047538898260271925 0
4.4386003750598153e-06 -0.048564348618771791 0
4.3956201531920737e-06 -0.049669628387933033 0
4.5065384468960167e-06 -0.050867330568910248 0
4.6355562893134829e-06 -0.052171850137420483 0
4.7052141536653582e-06 -0.053594975721276805 0
3.6015377088964668e-06 -0.055153661170127974 0
3.5923352790487172e-06 -0.056876131616040333 0
3.7434326529467049e-06 -0.058791662233758119 0
3.8427379847766659e-06 -0.060931431398529717 0
4.6707545428605769e-06 -0.063333030698447451 0
4.489814791505509e-06 -0.066034029775993569 0
4.4967615741895588e-06 -0.069102584011851681 0
4.4494378792381679e-06 -0.072618275961769771 0
4.6781963869690131e-06 -0.076683959577303284 0
4.5466148044471213e-06 -0.081445624244774126 0
4.6036777566967895e-06 -0.087226787039424228 0
4.7068681903336096e-06 -0.094891497920974635 0
4.7402116432158443e-06 -0.10793124250927968 0
1.8441606769398891e-06 -0.042106350736095643 0
2.0838877425901476e-06 -0.043140704613704159 0
2.2627845403136787e-06 -0.043968352691937163 0
2.3893598302227321e-06 -0.044806672136483629 0
2.4596476643114674e-06 -0.045671294703766692 0
2.6232285090633755e-06 -0.046576004846009891 0
2.9209608463740689e-06 -0.047533791474770194 0
3.1460517925692738e-06 -0.048559628171165659 0
3.2614383095157687e-06 -0.049663217322436073 0
3.4273669992123768e-06 -0.050861391525837081 0
3.7121830902227388e-06 -0.052165028683714441 0
3.7535908686377246e-06 -0.053587541513403468 0
4.0527830580491031e-06 -0.055146529966226654 0
3.9314199093539525e-06 -0.056868388864708727 0
4.0926521359627524e-06 -0.058783549782339496 0
4.0824787524544419e-06 -0.060922417477008523 0
4.367936186434532e-06 -0.063322275861648597 0
4.3753673382050544e-06 -0.066022721702973311 0
4.5865739192627659e-06 -0.069090657012759599 0
4.7968822088994783e-06 -0.072605782219374054 0
5.007088995163733e-06 -0.076670738913707334 0
5.2780365147601479e-06 -0.081431811950107444 0
5.3350293103853479e-06 -0.087212462406857191 0
5.6309487973952506e-06 -0.094876713723369518 0
5.7383357714075897e-06 -0.1079171320338313 0
2.1098762013242199e-06 -0.042096027334406975 0
2.4163952719606012e-06 -0.043128666625816985 0
2.8258857773710308e-06 -0.043954804352044116 0
3.0376260998571942e-06 -0.044792070114825951 0
3.2049455432402039e-06 -0.04565609753817771 0
3.357038519758833e-06 -0.046559565961228511 0
3.749232687407315e-06 -0.047515343582537541 0
4.1865149218809108e-06 -0.048539853708425694 0
4.645010581197006e-06 -0.049642842246865188 0
5.4762733194891758e-06 -0.050838895008543245 0
5.9676264204624867e-06 -0.052141397902544351 0
5.7851499608227382e-06 -0.053562328808800262 0
6.1255883482181948e-06 -0.055119255575390866 0
5.6581837742412605e-06 -0.05684000183355644 0
5.759955993192627e-06 -0.05875313717955194 0
5.7842500495376874e-06 -0.060890114255208939 0
5.6444374986758823e-06 -0.063288078831842898 0
6.0312679946012053e-06 -0.065985965988775833 0
5.4130347313850861e-06 -0.069051376863624725 0
5.4938349756294744e-06 -0.072563703670713076 0
5.5320841442564079e-06 -0.076625659016301279 0
6.077860457136938e-06 -0.08138366832499265 0
5.9642088416192359e-06 -0.087161195843368774 0
6.1953235044071572e-06 -0.094823938883889916 0
6.2592710729519876e-06 -0.10785795630073619 0
3.8594631213327954e-06 -0.042072477977688705 0
4.1620580678659073e-06 -0.043102380717408434 0
4.4569600840187401e-06 -0.043927101865204807 0
4.7674310481805496e-06 -0.044762522857471648 0
5.1559129080110799e-06 -0.045623433094465794 0
5.366045382929498e-06 -0.046525114573044382 0
5.6065078533961209e-06 -0.047480226549926473 0
6.0060040132531043e-06 -0.048499817383084592 0
5.8828692727965214e-06 -0.049600017365481239 0
6.3853367473344095e-06 -0.050793091539537039 0
6.4309040985574806e-06 -0.052091771735491912 0
6.8541269318867339e-06 -0.053509311029551268 0
6.7349969479770075e-06 -0.055062277292252812 0
6.785842802428162e-06 -0.05677816403379396 0
6.7711220849766581e-06 -0.058686671759765156 0
7.0757701451423063e-06 -0.060818825378180931 0
7.2276629306040101e-06 -0.063211022153540825 0
7.1657320057248728e-06 -0.065902887344010855 0
7.0896394143226441e-06 -0.068961723278265594 0
7.3212219605191562e-06 -0.07246685017926506 0
7.9618226827084427e-06 -0.076521398125711029 0
8.0390426586471027e-06 -0.081271763598687749 0
8.1608129775924011e-06 -0.087041787745018348 0
8.2324390107129756e-06 -0.094695968520302737 0
8.4549208347759255e-06 -0.10771363283759 0
5.780653288376731e-06 -0.042031854715420709 0
6.3313643630997293e-06 -0.043056468101124186 0
6.6658824559701759e-06 -0.043876711134546574 0
7.0185932214361304e-06 -0.044707099015190994 0
7.2973493371317917e-06 -0.045563922498994561 0
7.5049609234597745e-06 -0.046460610098708117 0
7.7391668616363245e-06 -0.047409187054723412 0
7.6765994656630214e-06 -0.04842436468632496 0
8.0718118803938054e-06 -0.049519427694148271 0
8.1266764322455893e-06 -0.050706308415892437 0
8.5208586901751239e-06 -0.051997896379025188 0
9.0095907487166339e-06 -0.053407542010840255 0
1.0894564117065297e-05 -0.054951919947801513 0
1.1240787670584616e-05 -0.056658147008031311 0
1.1158913193767696e-05 -0.058556107921120537 0
1.1487857967747785e-05 -0.060676085912255234 0
1.1700090276670335e-05 -0.063054899436408282 0
1.1832752772527794e-05 -0.065732251394878566 0
1.206027787130835e-05 -0.068774762758444338 0
1.2371902761976638e-05 -0.07226193648460548 0
1.2601853436353529e-05 -0.076296824419694695 0
1.2278830137010626e-05 -0.081025977834913887 0
1.2634497778166569e-05 -0.086774123398355441 0
1.2923063481557111e-05 -0.094406008769472124 0
1.3454961024115837e-05 -0.10738248638962851 0
9.3602246669604016e-06 -0.041970252610421512 0
1.0107357154463902e-05 -0.042988113149089284 0
1.06639370859512e-05 -0.043801993326116131 0
1.1206435327389426e-05 -0.044625696928288591 0
1.18088142015471e-05 -0.045474899556340903 0
1.2140663510956856e-05 -0.046363037303227425 0
1.2928512464090129e-05 -0.04730290160767861 0
1.3555727744689148e-05 -0.048307527705714955 0
1.4439260143698211e-05 -0.049390740761226945 0
1.5010727679500502e-05 -0.050564109836290227 0
1.578246102325508e-05 -0.051841059550639154 0
1.5923226312181241e-05 -0.053233799976961566 0
1.6095315092862295e-05 -0.054758958826390529 0
1.5526899118756499e-05 -0.056442582646956188 0
1.601714318950408e-05 -0.058314683901969616 0
1.6498353979739275e-05 -0.060405481920978013 0
1.6954148179607376e-05 -0.062749684251215201 0
1.7596115720257902e-05 -0.0653895102516594 0
1.7949746240233314e-05 -0.068391575004533245 0
1.8678963395140423e-05 -0.07183520144076648 0
1.9231730178675786e-05 -0.075822643235094758 0
2.0093420633823382e-05 -0.0804998922592772 0
2.1044099428643393e-05 -0.086192435990561894 0
2.1576588237433936e-05 -0.093764323468620653 0
2.2801655973035602e-05 -0.10664712956312988 0
1.9207435684094455e-05 -0.04186129462285524 0
2.0524824657397964e-05 -0.042874961547253496 0
2.1514365262141118e-05 -0.043685253274652641 0
2.2455741870250457e-05 -0.04450343367186043 0
2.3340289104209163e-05 -0.045345343584818301 0
2.4020697242013658e-05 -0.0462236623720425 0
2.4614452177125687e-05 -0.047150962357613894 0
2.5375899775829155e-05 -0.048139901471058469 0
2.6023147928155285e-05 -0.04920421519703877 0
2.6629621875066049e-05 -0.050355493691871103 0
2.7253601793452725e-05 -0.05160628099622537 0
2.7163474518452628e-05 -0.052967771699284232 0
2.7978137195127843e-05 -0.054455390717072102 0
2.8683731847402788e-05 -0.056095432724616395 0
2.9362222682334907e-05 -0.057914850442071494 0
3.0054091638533561e-05 -0.059942400416959869 0
3.0702636971479419e-05 -0.062209795979969812 0
3.0952293818433326e-05 -0.064768647641392174 0
3.1610729409157888e-05 -0.067681792058989415 0
3.240078022113923e-05 -0.07103006709634764 0
3.3208588870231573e-05 -0.074921682426939001 0
3.4067376651240122e-05 -0.079499194103701404 0
3.5277540908800438e-05 -0.08507722661027646 0
3.6116382482592566e-05 -0.092529447628397779 0
3.7282564733972314e-05 -0.10522108937174447 0
2.9876234324851616e-05 -0.041424843607287452 0
3.1691888032058897e-05 -0.042366280358175516 0
3.2952320924961043e-05 -0.043123406939609296 0
3.4210982530898824e-05 -0.043910645116334336 0
3.5385987746174424e-05 -0.044733124323797051 0
3.7116422615080709e-05 -0.045598752005693084 0
3.8100478503409955e-05 -0.04651670053277196 0
3.9196164583483515e-05 -0.047498574498571811 0
4.0078868903373235e-05 -0.04855524383377386 0
4.0857448169955335e-05 -0.049698014910934028 0
4.1969505295375451e-05 -0.050938272765564355 0
4.2854600621034089e-05 -0.05228741761268435 0
4.290695625478268e-05 -0.053760408514116613 0
4.3605221511271714e-05 -0.05538207800693945 0
4.4350774679684483e-05 -0.057180741058185637 0
4.5087406685592168e-05 -0.059185342962636119 0
4.5884241109103911e-05 -0.061430059097633272 0
4.6725204837847528e-05 -0.063974196692139634 0
4.7633063256345443e-05 -0.066881332214788758 0
4.8635537021964804e-05 -0.070238308596547894 0
4.976119488431823e-05 -0.074180825896885752 0
5.1135700452033714e-05 -0.078858574292918177 0
5.2434434157725653e-05 -0.084541291264016577 0
5.4153448076654923e-05 -0.092083208328678362 0
5.684972660549292e-05 -0.10465431621268412 0
-0 -0 0
-0 -0 0
-0 -0 0
-0 -0 0
-0 -0 0
-0 -0 0
3.2363619012935665e-05 0.041933133339265245 0
3.6754737897901338e-05 0.04539987745852217 0
4.2712871597233291e-05 0.053545747866959439 0
-0 -0 0
-0 -0 0
-0 -0 0
3.3550351847276218e-05 0.043281391882311393 0
3.6613067409475303e-05 0.046479497494603075 0
4.1689732814737955e-05 0.054289356597219583 0
-0 -0 0
-0 -0 0
-0 -0 0
2.7108173306028655e-05 0.043549024598032629 0
3.0115910398595614e-05 0.046736555365459467 0
3.4582879667974532e-05 0.054524876470891624 0
-0 -0 0
-0 -0 0
-0 -0 0
1.5315720391308227e-05 0.043798058206537351 0
1.7373238907301522e-05 0.04697225465292662 0
2.0345240912419434e-05 0.054814999618022608 0
-0 -0 0
-0 -0 0
-0 -0 0
6.0565452991297236e-06 0.043891038109380602 0
7.1121280902807712e-06 0.047098405277427334 0
8.6041542309799747e-06 0.055025695228310377 0
-0 -0 0
-0 -0 0
-0 -0 0
1.9113135863105915e-06 0.043950844382562172 0
2.3330212922162429e-06 0.047176203446022899 0
2.828231365015768e-06 0.055153674092721608 0
-0 -0 0
-0 -0 0
-0 -0 0
1.8968988345990983e-07 0.043988821312477201 0
1.7388666002068726e-07 0.047224433146815924 0
-1.208362826737392e-08 0.055226449935395661 0
-0 -0 0
-0 -0 0
-0 -0 0
-1.0888567810833151e-06 0.044009166835325748 0
-1.4399800947274907e-06 0.047250046925988276 0
-1.9874678554922854e-06 0.055263261049411601 0
-0 -0 0
-0 -0 0
-0 -0 0
-2.2964789616872992e-06 0.044017709581938846 0
-2.7313819385413656e-06 0.047260711689482933 0
-3.2587919063931716e-06 0.055278150835563512 0
-0 -0 0
-0 -0 0
-0 -0 0
-2.5988897225823517e-06 0.044017520944539555 0
-3.0829535454342834e-06 0.04726060999688797 0
-3.7130966896299416e-06 0.055278050762760433 0
-0 -0 0
-0 -0 0
-0 -0 0
-2.5400944839089871e-06 0.044008922708761909 0
-3.2280169548988796e-06 0.047249859858811478 0
-4.2081589257631129e-06 0.055262952373713627 0
-0 -0 0
-0 -0 0
-0 -0 0
-3.4895907348311384e-06 0.043988938124344616 0
-4.3056380904168196e-06 0.047224646837307156 0
-5.4931270263691805e-06 0.055226483281639267 0
-0 -0 0
-0 -0 0
-0 -0 0
-5.4569134679962395e-06 0.043951149875234283 0
-6.3777623805453025e-06 0.047176751379443965 0
-7.8952454846177509e-06 0.055154445239936796 0
-0 -0 0
-0 -0 0
-0 -0 0
-8.6732729711548164e-06 0.04389069002422559 0
-1.0113363297474599e-05 0.04709853848730941 0
-1.2369059353494456e-05 0.055026741610348845 0
-0 -0 0
-0 -0 0
-0 -0 0
-1.5869463713986006e-05 0.043797062881152364 0
-1.8087711901930745e-05 0.046971905390815603 0
-2.1321594389239469e-05 0.054815734301603622 0
-0 -0 0
-0 -0 0
-0 -0 0
-2.626472422473496e-05 0.043548546678864361 0
-2.9327363448614313e-05 0.046736436055560424 0
-3.3764986311441019e-05 0.054525172096842101 0
-0 -0 0
-0 -0 0
-0 -0 0
-3.236167385664225e-05 0.043281490749788085 0
-3.5534887934499699e-05 0.046479600571282406 0
-4.0600287398725516e-05 0.054289446405458214 0
-0 -0 0
-0 -0 0
-0 -0 0
-3.1105035912669764e-05 0.041933049115276171 0
-3.563842443665779e-05 0.045399823741450247 0
-4.1601701093748225e-05 0.05354565606014472 0
-0 -0 0
-0 -0 0
-0 -0 0
-0 -0 0
-0 -0 0
-0 -0 0
-0 -0 0
-0 -0 0
-0 -0 0
-0 -0 0
-0 -0 0
-0 -0 0
-0 -0 0
-0 -0 0
-0 -0 0
-0 -0 0
-0 -0 0
-0 -0 0
-0 -0 0
-0 -0 0
-0 -0 0
-0 -0 0
-0 -0 0
-0 -0 0
-0 -0 0
-0 -0 0
-0 -0 0
-0 -0 0
-0 -0 0
-0 -0 0
-0 -0 0
-0 -0 0
-0 -0 0
-0 -0 0
-0 -0 0
-0 -0 0
-0 -0 0
-0 -0 0
-0 -0 0
-0 -0 0
-0 -0 0
-0 -0 0
-0 -0 0
-0 -0 0
-0 -0 0
-0 -0 0
-0 -0 0
-0 -0 0
-0 -0 0
-0 -0 0
-0 -0 0
-0 -0 0
-0 -0 0
-0 -0 0
-0 -0 0
-0 -0 0
-0 -0 0
-0 -0 0
-0 -0 0
-0 -0 0
-0 -0 0
-0 -0 0
-0 -0 0
-0 -0 0
-0 -0 0
-0 -0 0
-0 -0 0
-0 -0 0
-0 -0 0
-0 -0 0
-0 -0 0
-0 -0 0
-0 -0 0
-0 -0 0
-0 -0 0
-0 -0 0
-0 -0 0
-0 -0 0
-0 -0 0
-0 -0 0
-0 -0 0
-0 -0 0
-0 -0 0
-0 -0 0
-0 -0 0
-0 -0 0
-0 -0 0
-0 -0 0
-0 -0 0
-0 -0 0
-0 -0 0
-0 -0 0
-0 -0 0
-0 -0 0
-0 -0 0
-0 -0 0
-0 -0 0
-0 -0 0
-0 -0 0
-0 -0 0
-0 -0 0
-0 -0 0
-0 -0 0
-0 -0 0
-0 -0 0
-0 -0 0
-0 -0 0
-0 -0 0
-0 -0 0
-0 -0 0
-0 -0 0
-0 -0 0
-0 -0 0
-0 -0 0
-0 -0 0
-0 -0 0
-0 -0 0
-0 -0 0
-0 -0 0
-0 -0 0
-0 -0 0
-0 -0 0
-0 -0 0
-0 -0 0
-0 -0 0
-0 -0 0
-0 -0 0
-0 -0 0
-0 -0 0
-0 -0 0
-0 -0 0
-0 -0 0
-0 -0 0
-0 -0 0
-0 -0 0
-0 -0 0
-0 -0 0
-0 -0 0
-0 -0 0
-0 -0 0
-0 -0 0
-0 -0 0
-0 -0 0
-0 -0 0
-0 -0 0
-0 -0 0
-0 -0 0
-0 -0 0
-0 -0 0
-0 -0 0
-0 -0 0
-0 -0 0
-0 -0 0
-0 -0 0
-0 -0 0
-0 -0 0
-0 -0 0
-0 -0 0
-0 -0 0
-0 -0 0
-0 -0 0
-0 -0 0
-0 -0 0
-0 -0 0
-0 -0 0
-0 -0 0
-0 -0 0
-0 -0 0
-0 -0 0
-0 -0 0
-0 -0 0
-0 -0 0
-0 -0 0
-0 -0 0
-0 -0 0
-0 -0 0
-0 -0 0
-0 -0 0
-0 -0 0
-0 -0 0
-0 -0 0
-0 -0 0
-0 -0 0
-0 -0 0
-0 -0 0
-0 -0 0
-0 -0 0
-0 -0 0
-0 -0 0
-0 -0 0
-0 -0 0
-0 -0 0
-0 -0 0
-0 -0 0
-0 -0 0
