# vtk DataFile Version 3.0
SPH particles (WCSPH) - legacy PolyData
ASCII
DATASET POLYDATA
POINTS 681 float
0.049990863144744928 0.018812171986643686 0
0.049989856960531459 0.020947865727422209 0
0.049989044827426464 0.022670617359903059 0
0.049988244588293602 0.024370666408790882 0
0.049987526730597871 0.026023387693333934 0
0.04998689338428508 0.027627692375787567 0
0.049986312285603733 0.029189782847829273 0
0.049985743221406274 0.030718097901955104 0
0.049985129603717614 0.032222006025139839 0
0.049984374946844101 0.033709580977777417 0
0.049983032009858958 0.035189436219127596 0
0.049981242273628212 0.036669963432440549 0
0.049980546184199212 0.03815945082004147 0
0.049981298685225523 0.039666481673401664 0
0.049982787139877451 0.04120055642721443 0
0.049984545711960066 0.042772039187378916 0
0.049986365206085459 0.044393983925003176 0
0.049988078545713174 0.046082151321071671 0
0.049989676085649734 0.04785797944759778 0
0.049991100342149472 0.049737174609545791 0
0.049992302022265796 0.051762606717425531 0
0.049993281273796805 0.053987360879805525 0
0.049994069098073655 0.056495955408763614 0
0.049994703739688069 0.059446646147494585 0
0.049995514160912052 0.063268558442340209 0
0.069995213964825512 0.017600068914944676 0
0.069994630878023698 0.019957110777166442 0
0.069994196893036889 0.021870845468302588 0
0.069993806233656905 0.023722880768684656 0
0.069993439876742433 0.025499990945689052 0
0.069993073644861389 0.027209330905375223 0
0.069992709323501351 0.028862932002821848 0
0.069992339604954074 0.03047324906571398 0
0.069991948908214779 0.032052563476089618 0
0.069991487412079278 0.0336109059925103 0
0.069990580355441173 0.03515843476071797 0
0.069988734572373354 0.036704912147978705 0
0.069987646223352018 0.038259479341916702 0
0.069987841264015263 0.039831454969236423 0
0.069988749380554591 0.041431432980819353 0
0.069989893451258237 0.043070777623647527 0
0.069991121732352876 0.044764302888933336 0
0.069992329911638063 0.046528658561941855 0
0.069993461269811083 0.048384297532166942 0
0.069994444517478605 0.050356606556216488 0
0.069995259242332436 0.052487558068988215 0
0.069995909714632099 0.054835120239235396 0
0.069996403898184192 0.057496824584549244 0
0.069996793064913715 0.0606569414790138 0
0.069997295495063352 0.064826085599743427 0
0.089998300914147011 0.017548452960324253 0
0.08999808476070148 0.019907326979695657 0
0.089997925639225457 0.021824572955157981 0
0.089997772393238015 0.023682389076997819 0
0.089997615452361832 0.025466719069764041 0
0.089997450779371102 0.027184196252939268 0
0.089997278038773554 0.028846801851052296 0
0.089997102080988226 0.030466751799888041 0
0.089996904303032185 0.032055858307220748 0
0.089996682096794275 0.033624712225626158 0
0.089996414470094044 0.035183298920119621 0
0.089996036409620922 0.036741528624979709 0
0.089995668789493471 0.038308402612253656 0
0.089995622566884009 0.039893326610487063 0
0.089995864676062659 0.041506856346241128 0
0.089996196698671233 0.043160618924443145 0
0.089996585971486687 0.044869288772157824 0
0.089996982343814966 0.046648779541449095 0
0.08999735909802585 0.048520239700798322 0
0.089997674666265834 0.050511807592053301 0
0.08999793509636618 0.052663197405152615 0
0.089998133551896536 0.055033078446363695 0
0.089998307381431941 0.057719139216416422 0
0.089998449078429479 0.060905438772009934 0
0.089998673192683093 0.065108380824060577 0
0.10999939191673123 0.017557068784184369 0
0.10999930901206477 0.019916952937551795 0
0.10999924114621511 0.02183510674468743 0
0.10999917419811478 0.023693938718718645 0
0.10999910567932823 0.025479388978639623 0
0.10999905093106106 0.027198103671820507 0
0.10999898943836095 0.028862083483135164 0
0.10999891024286006 0.030483525833954941 0
0.10999882234245127 0.032074116421794259 0
0.10999872526717366 0.033644579476779478 0
0.10999862974871578 0.03520487525652622 0
0.1099985046389136 0.036765061059206357 0
0.10999840683070633 0.038333963172733347 0
0.10999839837779984 0.039921098899503148 0
0.10999844182030449 0.041537022106671748 0
0.10999854343404357 0.043193652854463381 0
0.10999867032876778 0.044905087213621325 0
0.10999881110248824 0.046687339308888826 0
0.10999894940926426 0.048561821578490295 0
0.10999905914001752 0.050556701255924215 0
0.10999914330758104 0.052711786462153826 0
0.10999920915052692 0.055085828674219371 0
0.10999926958834283 0.057776546599888706 0
0.10999932485872473 0.060968078986428129 0
0.10999942078550147 0.065178227497779601 0
0.12999975517494591 0.017562994968529227 0
0.12999972237590585 0.019923491783351732 0
0.12999969984597795 0.021842104197249732 0
0.12999967904159429 0.023701349761509876 0
0.12999966742861274 0.02548721463936161 0
0.12999963935677558 0.027206303125241381 0
0.12999961617835445 0.028870623476796128 0
0.12999958226643463 0.030492422788629348 0
0.12999955052405671 0.032083369772208943 0
0.1299995114427375 0.0336541951910104 0
0.12999945481636202 0.035214911511698282 0
0.12999938848262521 0.036775256822787629 0
0.12999937710694104 0.0383443735401061 0
0.12999937553893504 0.039931692219499 0
0.12999935405526131 0.041547847485288371 0
0.12999940009060071 0.043205297116989769 0
0.12999945460481621 0.044918476309260824 0
0.12999951111790226 0.046701863801127265 0
0.12999955774844835 0.048577129311980279 0
0.1299995930350695 0.050572145456661881 0
0.12999962447283067 0.05272806164639552 0
0.12999964993841231 0.055103072501969545 0
0.12999967177493613 0.057794882692695011 0
0.12999969430062927 0.060987631474486749 0
0.12999973519550895 0.065199604516840537 0
0.14999989865210223 0.017565520169398583 0
0.1499998879309436 0.019926341334728016 0
0.1499998796272479 0.021845263279496378 0
0.14999987163260478 0.023704638911052789 0
0.14999986146951377 0.025490641429223717 0
0.14999985271214819 0.027209936815656803 0
0.14999984998046717 0.028874379390587904 0
0.14999984304197567 0.030496341119485414 0
0.14999983010639853 0.032087458136793721 0
0.14999980641996308 0.033658450952155791 0
0.14999978157002541 0.035219463649665335 0
0.14999976021154351 0.036780043061816883 0
0.14999973753524426 0.038349450573088549 0
0.1499997183700395 0.039937355252079081 0
0.1499997188102129 0.041553991716145058 0
0.14999973886995061 0.043211549537872679 0
0.14999976950302979 0.044923828777585342 0
0.14999980354380726 0.046706746361167513 0
0.14999979732943861 0.048582117985198243 0
0.14999979526037732 0.050577960120186283 0
0.14999980621457715 0.052734142242627895 0
0.14999982253291225 0.055109489570027197 0
0.14999983396068578 0.057801784047695412 0
0.14999984088505469 0.060995060922293273 0
0.14999985923560769 0.065207250227584668 0
0.16999994482488509 0.017565833140433758 0
0.1699999380868821 0.019927032755835884 0
0.16999993225356844 0.021846412254616563 0
0.16999992601897079 0.023705711483375847 0
0.1699999176846618 0.025491735312216553 0
0.16999990891064842 0.027211120359529953 0
0.16999989698152326 0.028875626719789094 0
0.16999989114908812 0.030497609225551857 0
0.16999988091793333 0.032088676250338198 0
0.16999986696342309 0.033659469249166747 0
0.16999984402945262 0.035220639176987249 0
0.16999981201434405 0.036781128639646408 0
0.16999978994804868 0.038350268764620082 0
0.16999975996252509 0.039938712377432732 0
0.1699997714853218 0.041555543066806616 0
0.16999982336464656 0.043213488869006923 0
0.16999984532912116 0.044925915888364705 0
0.16999984620366879 0.046708233009567231 0
0.16999982346131987 0.048583608083844147 0
0.16999984209082364 0.05057968281293633 0
0.16999986608688711 0.052735959513866927 0
0.16999988280314626 0.055111481578040779 0
0.16999988470883565 0.057804112933891615 0
0.1699998915519991 0.060998664706813074 0
0.16999990789644173 0.065209719075888822 0
0.18999995920471807 0.017566379319377261 0
0.18999995509250847 0.019927095863576369 0
0.18999995472206316 0.021846066100324621 0
0.1899999506890801 0.023705717268698783 0
0.18999994492854982 0.025492086540376123 0
0.18999993450503738 0.027211333363551509 0
0.18999993103635041 0.028875823100979938 0
0.18999991784608952 0.030497868226832214 0
0.18999990455892407 0.032088870052598875 0
0.18999989631086034 0.033659586297326835 0
0.18999989137750381 0.035221084598729954 0
0.18999990161954541 0.036781782023166565 0
0.18999991680585798 0.038351210756545247 0
0.18999991157311183 0.0399395367138453 0
0.18999991967220287 0.041556348189703579 0
0.18999991820064915 0.043213896199526661 0
0.18999990541242007 0.044925865378587344 0
0.18999988317361727 0.046708683136693921 0
0.189999855287282 0.048584047946958427 0
0.18999990947521095 0.050580035298949701 0
0.18999991690002749 0.052736032272221213 0
0.18999993189157696 0.055110822378751166 0
0.18999994015479288 0.057801925966548463 0
0.18999994785029792 0.060997401999884661 0
0.18999995879494805 0.065209651151775266 0
0.20999999195141808 0.017566351554137497 0
0.20999999070617204 0.019927105715787992 0
0.20999998769195025 0.021845853161017177 0
0.20999998449823384 0.023705114090802802 0
0.2099999814610039 0.025491451043724914 0
0.20999997279362223 0.027210703278961398 0
0.20999997192427569 0.02887528020668793 0
0.20999997114746954 0.030497509889672317 0
0.20999997093916478 0.032088648397055566 0
0.20999995784065886 0.033659465158904084 0
0.20999995092581455 0.035220213786665816 0
0.20999994772566483 0.036780834756719685 0
0.20999995783739184 0.038350994811715985 0
0.20999994495198224 0.039939246416867177 0
0.20999994683362469 0.041555946644290645 0
0.20999995776847258 0.043213336864771815 0
0.20999995785323444 0.044925145317117096 0
0.20999996084931796 0.046708095898834741 0
0.20999998664997108 0.048583439043813299 0
0.20999998415784965 0.05057939070879805 0
0.20999997991215899 0.052735338719172298 0
0.20999997261706899 0.055110046857417029 0
0.20999997839296031 0.057800947425423174 0
0.20999998529930095 0.060996188783241617 0
0.20999999291828045 0.065208729726257963 0
0.23000006171491627 0.017565261235461711 0
0.23000006660348643 0.019925921928592924 0
0.23000007524225449 0.021844623086900276 0
0.23000007650283696 0.023703832017271543 0
0.23000007294351257 0.025489739916625273 0
0.23000007903541941 0.027209233169644173 0
0.23000009102189528 0.028874154772750439 0
0.23000010095869738 0.030495928543777275 0
0.23000010726027204 0.032086905806026897 0
0.23000010943275376 0.033657671185525172 0
0.23000011130969056 0.035218111611854959 0
0.23000012320641505 0.036778986192268347 0
0.23000018581704548 0.03834926937826439 0
0.23000013833597752 0.039937256505777161 0
0.23000011670769091 0.041553836326069106 0
0.23000014534716781 0.043211089815208784 0
0.2300001495574992 0.044922750411715728 0
0.23000015383659747 0.046705831296343689 0
0.23000018954178461 0.048581166282074116 0
0.23000014498546542 0.050576926274250936 0
0.23000012740119824 0.052732871744981216 0
0.23000010647563648 0.055107946547820107 0
0.23000009772603444 0.057800666563037291 0
0.23000009286086318 0.060993677175628452 0
0.23000008394714624 0.065206008830583792 0
0.25000018066932383 0.017562618799276276 0
0.25000020189682226 0.019922983606692628 0
0.25000022315663906 0.021841577442499833 0
0.25000024259153697 0.023700718655755588 0
0.25000025696045519 0.025486451986572452 0
0.25000027148916543 0.027205756174640158 0
0.25000029556428566 0.028870099151956669 0
0.2500003166462631 0.030491971803908842 0
0.25000033585043446 0.032082913595477859 0
0.25000036622413496 0.033653702388817638 0
0.25000041191709821 0.035214401428564183 0
0.25000049792764018 0.036774838178693967 0
0.25000053096734343 0.038344195073445789 0
0.25000057794593933 0.039931942493234507 0
0.25000057490127758 0.041548239010258767 0
0.25000052858782379 0.043205000111424009 0
0.2500004931512616 0.044916198112455757 0
0.25000044326492993 0.046699637435067311 0
0.25000040563897841 0.048574868483597669 0
0.25000037090866656 0.050569657225567478 0
0.25000033980999736 0.052724871723909557 0
0.25000031019655033 0.055099611863706731 0
0.25000028444509692 0.057795626628909594 0
0.25000026150878041 0.060986688030677305 0
0.25000022404530597 0.065198129166496102 0
0.27000051461880797 0.01755662026954068 0
0.27000058725843384 0.019916337547657804 0
0.27000064128809909 0.021834346492849814 0
0.27000069497603318 0.023693170375472573 0
0.27000074453029194 0.025478903012978289 0
0.27000080029863105 0.027197844457017045 0
0.27000085654457534 0.028861029807450058 0
0.27000091480669303 0.030483033193374087 0
0.27000098989000743 0.032073745037230844 0
0.27000108304531883 0.033644078182613751 0
0.27000119181862436 0.035204501720868177 0
0.27000129731846406 0.03676450895176539 0
0.27000145590260854 0.038333345448905744 0
0.27000157486823939 0.039920680213672601 0
0.27000153371385549 0.041536639450384924 0
0.27000139353411129 0.043193111045380497 0
0.27000125419698379 0.044903932402922925 0
0.27000112862124076 0.046686107450288249 0
0.27000100520155557 0.048560440121597319 0
0.27000090124106096 0.050554962092158678 0
0.27000081321800934 0.052709405557513425 0
0.27000073487392046 0.055082854110741514 0
0.27000066661669447 0.05777590110046462 0
0.27000061269111608 0.060967236776443702 0
0.27000052936742613 0.065176975995051623 0
0.29000162072582764 0.017548261329792987 0
0.29000183306947136 0.01990705260568958 0
0.29000199156102341 0.021824298275334223 0
0.29000214400742552 0.023682118992795455 0
0.2900023012843409 0.025466495060031881 0
0.29000245953519477 0.027183855973271276 0
0.29000262710942032 0.028845838846243029 0
0.29000281681374018 0.030466595252442007 0
0.29000303683700446 0.032055826051172694 0
0.29000328383304264 0.033624501982561526 0
0.29000358298442913 0.035183139682645463 0
0.290003977097748 0.036741222082122993 0
0.29000435599906732 0.038308010545895214 0
0.29000440397242799 0.039893099238922501 0
0.29000417393482769 0.041506768443614894 0
0.29000381129331865 0.043160866298272038 0
0.290003403059793 0.044869174964315098 0
0.29000299424546327 0.046648440393484758 0
0.29000261666533544 0.048519968021939502 0
0.29000229007195955 0.050511677367741689 0
0.29000201511926937 0.052662844977850079 0
0.29000179415762467 0.055032439460041119 0
0.29000161721670992 0.057718808658551224 0
0.29000147324605074 0.060905151441519936 0
0.2900012583470285 0.065107999041692788 0
0.31000484823760938 0.017600106810894581 0
0.31000543371338551 0.019957147870284495 0
0.31000587139179486 0.021870890395801854 0
0.31000627044435097 0.023722924609763347 0
0.3100066442993632 0.025499963259562809 0
0.31000702139186681 0.027209049502130926 0
0.31000739851717157 0.028862467716498877 0
0.31000778461350365 0.030473618966628976 0
0.31000820633929804 0.032052795365265237 0
0.31000871648897527 0.033610988144394914 0
0.31000967043698674 0.03515859183916227 0
0.31001150981521053 0.036705097218861865 0
0.31001254554207253 0.038259677988077542 0
0.31001231031787496 0.039831980605927762 0
0.31001138915502646 0.041432206588811367 0
0.31001024269864758 0.043072133331003556 0
0.31000899993019732 0.04476547450909394 0
0.31000775947998693 0.046528830617525579 0
0.31000660463672192 0.048383811204235599 0
0.31000559675854833 0.050357649796768156 0
0.31000475841681541 0.052488617897185792 0
0.31000408994507894 0.054835523485676996 0
0.31000358294940605 0.057497225928559985 0
0.3100031702782956 0.060657307640121706 0
0.31000265086533046 0.064826337845947671 0
0.33000898290338904 0.018812443465855859 0
0.33000995210355516 0.02094815125484796 0
0.33001073799895336 0.022670866160334133 0
0.33001149811909841 0.024370810993980502 0
0.33001217954660478 0.026023244700321066 0
0.33001276903473942 0.027627086036773295 0
0.33001330407288043 0.029189672986924826 0
0.33001384356170083 0.030718827056540981 0
0.33001438523366833 0.032222369482420306 0
0.33001501042455722 0.03370984819751164 0
0.33001622551345766 0.035189775171272364 0
0.33001799574837926 0.036670388600998874 0
0.3300186891451668 0.038159989483058557 0
0.33001791718080764 0.039667253896385153 0
0.33001646466582768 0.041201521876483134 0
0.330014763114931 0.042773455118027784 0
0.3300130132184893 0.04439559325880859 0
0.33001132477619421 0.046082876413909145 0
0.33000977411547006 0.047856472978953818 0
0.33000841940061598 0.049737588461669695 0
0.33000728719930988 0.05176316046755048 0
0.33000638169662527 0.05398774622949138 0
0.33000566887872629 0.056496327133979347 0
0.33000510655767129 0.059446939946642942 0
0.33000435810390821 0.063268397161835785 0
0 0 0
0 0.020000000000000004 0
0 0.040000000000000001 0
0 0.54999999999999993 0
0 0.56000000000000005 0
0 0.58000000000000007 0
0.02 0 0
0.02 0.020000000000000004 0
0.02 0.040000000000000001 0
0.02 0.54999999999999993 0
0.02 0.56000000000000005 0
0.02 0.58000000000000007 0
0.040000000000000001 0 0
0.040000000000000001 0.020000000000000004 0
0.040000000000000001 0.040000000000000001 0
0.040000000000000001 0.54999999999999993 0
0.040000000000000001 0.56000000000000005 0
0.040000000000000001 0.58000000000000007 0
0.059999999999999998 0 0
0.059999999999999998 0.020000000000000004 0
0.059999999999999998 0.040000000000000001 0
0.059999999999999998 0.54999999999999993 0
0.059999999999999998 0.56000000000000005 0
0.059999999999999998 0.58000000000000007 0
0.080000000000000002 0 0
0.080000000000000002 0.020000000000000004 0
0.080000000000000002 0.040000000000000001 0
0.080000000000000002 0.54999999999999993 0
0.080000000000000002 0.56000000000000005 0
0.080000000000000002 0.58000000000000007 0
0.10000000000000001 0 0
0.10000000000000001 0.020000000000000004 0
0.10000000000000001 0.040000000000000001 0
0.10000000000000001 0.54999999999999993 0
0.10000000000000001 0.56000000000000005 0
0.10000000000000001 0.58000000000000007 0
0.12 0 0
0.12 0.020000000000000004 0
0.12 0.040000000000000001 0
0.12 0.54999999999999993 0
0.12 0.56000000000000005 0
0.12 0.58000000000000007 0
0.14000000000000001 0 0
0.14000000000000001 0.020000000000000004 0
0.14000000000000001 0.040000000000000001 0
0.14000000000000001 0.54999999999999993 0
0.14000000000000001 0.56000000000000005 0
0.14000000000000001 0.58000000000000007 0
0.16 0 0
0.16 0.020000000000000004 0
0.16 0.040000000000000001 0
0.16 0.54999999999999993 0
0.16 0.56000000000000005 0
0.16 0.58000000000000007 0
0.17999999999999999 0 0
0.17999999999999999 0.020000000000000004 0
0.17999999999999999 0.040000000000000001 0
0.17999999999999999 0.54999999999999993 0
0.17999999999999999 0.56000000000000005 0
0.17999999999999999 0.58000000000000007 0
0.20000000000000001 0 0
0.20000000000000001 0.020000000000000004 0
0.20000000000000001 0.040000000000000001 0
0.20000000000000001 0.54999999999999993 0
0.20000000000000001 0.56000000000000005 0
0.20000000000000001 0.58000000000000007 0
0.22 0 0
0.22 0.020000000000000004 0
0.22 0.040000000000000001 0
0.22 0.54999999999999993 0
0.22 0.56000000000000005 0
0.22 0.58000000000000007 0
0.23999999999999999 0 0
0.23999999999999999 0.020000000000000004 0
0.23999999999999999 0.040000000000000001 0
0.23999999999999999 0.54999999999999993 0
0.23999999999999999 0.56000000000000005 0
0.23999999999999999 0.58000000000000007 0
0.26000000000000001 0 0
0.26000000000000001 0.020000000000000004 0
0.26000000000000001 0.040000000000000001 0
0.26000000000000001 0.54999999999999993 0
0.26000000000000001 0.56000000000000005 0
0.26000000000000001 0.58000000000000007 0
0.28000000000000003 0 0
0.28000000000000003 0.020000000000000004 0
0.28000000000000003 0.040000000000000001 0
0.28000000000000003 0.54999999999999993 0
0.28000000000000003 0.56000000000000005 0
0.28000000000000003 0.58000000000000007 0
0.29999999999999999 0 0
0.29999999999999999 0.020000000000000004 0
0.29999999999999999 0.040000000000000001 0
0.29999999999999999 0.54999999999999993 0
0.29999999999999999 0.56000000000000005 0
0.29999999999999999 0.58000000000000007 0
0.32000000000000001 0 0
0.32000000000000001 0.020000000000000004 0
0.32000000000000001 0.040000000000000001 0
0.32000000000000001 0.54999999999999993 0
0.32000000000000001 0.56000000000000005 0
0.32000000000000001 0.58000000000000007 0
0.34000000000000002 0 0
0.34000000000000002 0.020000000000000004 0
0.34000000000000002 0.040000000000000001 0
0.34000000000000002 0.54999999999999993 0
0.34000000000000002 0.56000000000000005 0
0.34000000000000002 0.58000000000000007 0
0.35999999999999999 0 0
0.35999999999999999 0.020000000000000004 0
0.35999999999999999 0.040000000000000001 0
0.35999999999999999 0.54999999999999993 0
0.35999999999999999 0.56000000000000005 0
0.35999999999999999 0.58000000000000007 0
0.38 0 0
0.38 0.020000000000000004 0
0.38 0.040000000000000001 0
0.38 0.54999999999999993 0
0.38 0.56000000000000005 0
0.38 0.58000000000000007 0
0.40000000000000002 0 0
0.40000000000000002 0.020000000000000004 0
0.40000000000000002 0.040000000000000001 0
0.40000000000000002 0.54999999999999993 0
0.40000000000000002 0.56000000000000005 0
0.40000000000000002 0.58000000000000007 0
0.41999999999999998 0 0
0.41999999999999998 0.020000000000000004 0
0.41999999999999998 0.040000000000000001 0
0.41999999999999998 0.54999999999999993 0
0.41999999999999998 0.56000000000000005 0
0.41999999999999998 0.58000000000000007 0
0.44 0 0
0.44 0.020000000000000004 0
0.44 0.040000000000000001 0
0.44 0.54999999999999993 0
0.44 0.56000000000000005 0
0.44 0.58000000000000007 0
0.46000000000000002 0 0
0.46000000000000002 0.020000000000000004 0
0.46000000000000002 0.040000000000000001 0
0.46000000000000002 0.54999999999999993 0
0.46000000000000002 0.56000000000000005 0
0.46000000000000002 0.58000000000000007 0
0.47999999999999998 0 0
0.47999999999999998 0.020000000000000004 0
0.47999999999999998 0.040000000000000001 0
0.47999999999999998 0.54999999999999993 0
0.47999999999999998 0.56000000000000005 0
0.47999999999999998 0.58000000000000007 0
0.5 0 0
0.5 0.020000000000000004 0
0.5 0.040000000000000001 0
0.5 0.54999999999999993 0
0.5 0.56000000000000005 0
0.5 0.58000000000000007 0
0.52000000000000002 0 0
0.52000000000000002 0.020000000000000004 0
0.52000000000000002 0.040000000000000001 0
0.52000000000000002 0.54999999999999993 0
0.52000000000000002 0.56000000000000005 0
0.52000000000000002 0.58000000000000007 0
0.54000000000000004 0 0
0.54000000000000004 0.020000000000000004 0
0.54000000000000004 0.040000000000000001 0
0.54000000000000004 0.54999999999999993 0
0.54000000000000004 0.56000000000000005 0
0.54000000000000004 0.58000000000000007 0
0.56000000000000005 0 0
0.56000000000000005 0.020000000000000004 0
0.56000000000000005 0.040000000000000001 0
0.56000000000000005 0.54999999999999993 0
0.56000000000000005 0.56000000000000005 0
0.56000000000000005 0.58000000000000007 0
0.57999999999999996 0 0
0.57999999999999996 0.020000000000000004 0
0.57999999999999996 0.040000000000000001 0
0.57999999999999996 0.54999999999999993 0
0.57999999999999996 0.56000000000000005 0
0.57999999999999996 0.58000000000000007 0
0.59999999999999998 0 0
0.59999999999999998 0.020000000000000004 0
0.59999999999999998 0.040000000000000001 0
0.59999999999999998 0.54999999999999993 0
0.59999999999999998 0.56000000000000005 0
0.59999999999999998 0.58000000000000007 0
0.62 0 0
0.62 0.020000000000000004 0
0.62 0.040000000000000001 0
0.62 0.54999999999999993 0
0.62 0.56000000000000005 0
0.62 0.58000000000000007 0
0.64000000000000001 0 0
0.64000000000000001 0.020000000000000004 0
0.64000000000000001 0.040000000000000001 0
0.64000000000000001 0.54999999999999993 0
0.64000000000000001 0.56000000000000005 0
0.64000000000000001 0.58000000000000007 0
0.66000000000000003 0 0
0.66000000000000003 0.020000000000000004 0
0.66000000000000003 0.040000000000000001 0
0.66000000000000003 0.54999999999999993 0
0.66000000000000003 0.56000000000000005 0
0.66000000000000003 0.58000000000000007 0
0.68000000000000005 0 0
0.68000000000000005 0.020000000000000004 0
0.68000000000000005 0.040000000000000001 0
0.68000000000000005 0.54999999999999993 0
0.68000000000000005 0.56000000000000005 0
0.68000000000000005 0.58000000000000007 0
0.70000000000000007 0 0
0.70000000000000007 0.020000000000000004 0
0.70000000000000007 0.040000000000000001 0
0.70000000000000007 0.54999999999999993 0
0.70000000000000007 0.56000000000000005 0
0.70000000000000007 0.58000000000000007 0
0.71999999999999997 0 0
0.71999999999999997 0.020000000000000004 0
0.71999999999999997 0.040000000000000001 0
0.71999999999999997 0.54999999999999993 0
0.71999999999999997 0.56000000000000005 0
0.71999999999999997 0.58000000000000007 0
0.73999999999999999 0 0
0.73999999999999999 0.020000000000000004 0
0.73999999999999999 0.040000000000000001 0
0.73999999999999999 0.54999999999999993 0
0.73999999999999999 0.56000000000000005 0
0.73999999999999999 0.58000000000000007 0
0.76000000000000001 0 0
0.76000000000000001 0.020000000000000004 0
0.76000000000000001 0.040000000000000001 0
0.76000000000000001 0.54999999999999993 0
0.76000000000000001 0.56000000000000005 0
0.76000000000000001 0.58000000000000007 0
0.78000000000000003 0 0
0.78000000000000003 0.020000000000000004 0
0.78000000000000003 0.040000000000000001 0
0.78000000000000003 0.54999999999999993 0
0.78000000000000003 0.56000000000000005 0
0.78000000000000003 0.58000000000000007 0
0.80000000000000004 0 0
0.80000000000000004 0.020000000000000004 0
0.80000000000000004 0.040000000000000001 0
0.80000000000000004 0.54999999999999993 0
0.80000000000000004 0.56000000000000005 0
0.80000000000000004 0.58000000000000007 0
0.82000000000000006 0 0
0.82000000000000006 0.020000000000000004 0
0.82000000000000006 0.040000000000000001 0
0.82000000000000006 0.54999999999999993 0
0.82000000000000006 0.56000000000000005 0
0.82000000000000006 0.58000000000000007 0
0.83999999999999997 0 0
0.83999999999999997 0.020000000000000004 0
0.83999999999999997 0.040000000000000001 0
0.83999999999999997 0.54999999999999993 0
0.83999999999999997 0.56000000000000005 0
0.83999999999999997 0.58000000000000007 0
0.85999999999999999 0 0
0.85999999999999999 0.020000000000000004 0
0.85999999999999999 0.040000000000000001 0
0.85999999999999999 0.54999999999999993 0
0.85999999999999999 0.56000000000000005 0
0.85999999999999999 0.58000000000000007 0
0.88 0 0
0.88 0.020000000000000004 0
0.88 0.040000000000000001 0
0.88 0.54999999999999993 0
0.88 0.56000000000000005 0
0.88 0.58000000000000007 0
0.90000000000000002 0 0
0.90000000000000002 0.020000000000000004 0
0.90000000000000002 0.040000000000000001 0
0.90000000000000002 0.54999999999999993 0
0.90000000000000002 0.56000000000000005 0
0.90000000000000002 0.58000000000000007 0
0.92000000000000004 0 0
0.92000000000000004 0.020000000000000004 0
0.92000000000000004 0.040000000000000001 0
0.92000000000000004 0.54999999999999993 0
0.92000000000000004 0.56000000000000005 0
0.92000000000000004 0.58000000000000007 0
0.94000000000000006 0 0
0.94000000000000006 0.020000000000000004 0
0.94000000000000006 0.040000000000000001 0
0.94000000000000006 0.54999999999999993 0
0.94000000000000006 0.56000000000000005 0
0.94000000000000006 0.58000000000000007 0
0.95999999999999996 0 0
0.95999999999999996 0.020000000000000004 0
0.95999999999999996 0.040000000000000001 0
0.95999999999999996 0.54999999999999993 0
0.95999999999999996 0.56000000000000005 0
0.95999999999999996 0.58000000000000007 0
0.97999999999999998 0 0
0.97999999999999998 0.020000000000000004 0
0.97999999999999998 0.040000000000000001 0
0.97999999999999998 0.54999999999999993 0
0.97999999999999998 0.56000000000000005 0
0.97999999999999998 0.58000000000000007 0
1 0 0
1 0.020000000000000004 0
1 0.040000000000000001 0
1 0.54999999999999993 0
1 0.56000000000000005 0
1 0.58000000000000007 0
VERTICES 681 1362
1 0
1 1
1 2
1 3
1 4
1 5
1 6
1 7
1 8
1 9
1 10
1 11
1 12
1 13
1 14
1 15
1 16
1 17
1 18
1 19
1 20
1 21
1 22
1 23
1 24
1 25
1 26
1 27
1 28
1 29
1 30
1 31
1 32
1 33
1 34
1 35
1 36
1 37
1 38
1 39
1 40
1 41
1 42
1 43
1 44
1 45
1 46
1 47
1 48
1 49
1 50
1 51
1 52
1 53
1 54
1 55
1 56
1 57
1 58
1 59
1 60
1 61
1 62
1 63
1 64
1 65
1 66
1 67
1 68
1 69
1 70
1 71
1 72
1 73
1 74
1 75
1 76
1 77
1 78
1 79
1 80
1 81
1 82
1 83
1 84
1 85
1 86
1 87
1 88
1 89
1 90
1 91
1 92
1 93
1 94
1 95
1 96
1 97
1 98
1 99
1 100
1 101
1 102
1 103
1 104
1 105
1 106
1 107
1 108
1 109
1 110
1 111
1 112
1 113
1 114
1 115
1 116
1 117
1 118
1 119
1 120
1 121
1 122
1 123
1 124
1 125
1 126
1 127
1 128
1 129
1 130
1 131
1 132
1 133
1 134
1 135
1 136
1 137
1 138
1 139
1 140
1 141
1 142
1 143
1 144
1 145
1 146
1 147
1 148
1 149
1 150
1 151
1 152
1 153
1 154
1 155
1 156
1 157
1 158
1 159
1 160
1 161
1 162
1 163
1 164
1 165
1 166
1 167
1 168
1 169
1 170
1 171
1 172
1 173
1 174
1 175
1 176
1 177
1 178
1 179
1 180
1 181
1 182
1 183
1 184
1 185
1 186
1 187
1 188
1 189
1 190
1 191
1 192
1 193
1 194
1 195
1 196
1 197
1 198
1 199
1 200
1 201
1 202
1 203
1 204
1 205
1 206
1 207
1 208
1 209
1 210
1 211
1 212
1 213
1 214
1 215
1 216
1 217
1 218
1 219
1 220
1 221
1 222
1 223
1 224
1 225
1 226
1 227
1 228
1 229
1 230
1 231
1 232
1 233
1 234
1 235
1 236
1 237
1 238
1 239
1 240
1 241
1 242
1 243
1 244
1 245
1 246
1 247
1 248
1 249
1 250
1 251
1 252
1 253
1 254
1 255
1 256
1 257
1 258
1 259
1 260
1 261
1 262
1 263
1 264
1 265
1 266
1 267
1 268
1 269
1 270
1 271
1 272
1 273
1 274
1 275
1 276
1 277
1 278
1 279
1 280
1 281
1 282
1 283
1 284
1 285
1 286
1 287
1 288
1 289
1 290
1 291
1 292
1 293
1 294
1 295
1 296
1 297
1 298
1 299
1 300
1 301
1 302
1 303
1 304
1 305
1 306
1 307
1 308
1 309
1 310
1 311
1 312
1 313
1 314
1 315
1 316
1 317
1 318
1 319
1 320
1 321
1 322
1 323
1 324
1 325
1 326
1 327
1 328
1 329
1 330
1 331
1 332
1 333
1 334
1 335
1 336
1 337
1 338
1 339
1 340
1 341
1 342
1 343
1 344
1 345
1 346
1 347
1 348
1 349
1 350
1 351
1 352
1 353
1 354
1 355
1 356
1 357
1 358
1 359
1 360
1 361
1 362
1 363
1 364
1 365
1 366
1 367
1 368
1 369
1 370
1 371
1 372
1 373
1 374
1 375
1 376
1 377
1 378
1 379
1 380
1 381
1 382
1 383
1 384
1 385
1 386
1 387
1 388
1 389
1 390
1 391
1 392
1 393
1 394
1 395
1 396
1 397
1 398
1 399
1 400
1 401
1 402
1 403
1 404
1 405
1 406
1 407
1 408
1 409
1 410
1 411
1 412
1 413
1 414
1 415
1 416
1 417
1 418
1 419
1 420
1 421
1 422
1 423
1 424
1 425
1 426
1 427
1 428
1 429
1 430
1 431
1 432
1 433
1 434
1 435
1 436
1 437
1 438
1 439
1 440
1 441
1 442
1 443
1 444
1 445
1 446
1 447
1 448
1 449
1 450
1 451
1 452
1 453
1 454
1 455
1 456
1 457
1 458
1 459
1 460
1 461
1 462
1 463
1 464
1 465
1 466
1 467
1 468
1 469
1 470
1 471
1 472
1 473
1 474
1 475
1 476
1 477
1 478
1 479
1 480
1 481
1 482
1 483
1 484
1 485
1 486
1 487
1 488
1 489
1 490
1 491
1 492
1 493
1 494
1 495
1 496
1 497
1 498
1 499
1 500
1 501
1 502
1 503
1 504
1 505
1 506
1 507
1 508
1 509
1 510
1 511
1 512
1 513
1 514
1 515
1 516
1 517
1 518
1 519
1 520
1 521
1 522
1 523
1 524
1 525
1 526
1 527
1 528
1 529
1 530
1 531
1 532
1 533
1 534
1 535
1 536
1 537
1 538
1 539
1 540
1 541
1 542
1 543
1 544
1 545
1 546
1 547
1 548
1 549
1 550
1 551
1 552
1 553
1 554
1 555
1 556
1 557
1 558
1 559
1 560
1 561
1 562
1 563
1 564
1 565
1 566
1 567
1 568
1 569
1 570
1 571
1 572
1 573
1 574
1 575
1 576
1 577
1 578
1 579
1 580
1 581
1 582
1 583
1 584
1 585
1 586
1 587
1 588
1 589
1 590
1 591
1 592
1 593
1 594
1 595
1 596
1 597
1 598
1 599
1 600
1 601
1 602
1 603
1 604
1 605
1 606
1 607
1 608
1 609
1 610
1 611
1 612
1 613
1 614
1 615
1 616
1 617
1 618
1 619
1 620
1 621
1 622
1 623
1 624
1 625
1 626
1 627
1 628
1 629
1 630
1 631
1 632
1 633
1 634
1 635
1 636
1 637
1 638
1 639
1 640
1 641
1 642
1 643
1 644
1 645
1 646
1 647
1 648
1 649
1 650
1 651
1 652
1 653
1 654
1 655
1 656
1 657
1 658
1 659
1 660
1 661
1 662
1 663
1 664
1 665
1 666
1 667
1 668
1 669
1 670
1 671
1 672
1 673
1 674
1 675
1 676
1 677
1 678
1 679
1 680
POINT_DATA 681
SCALARS is_boundary int 1
LOOKUP_TABLE default
0
0
0
0
0
0
0
0
0
0
0
0
0
0
0
0
0
0
0
0
0
0
0
0
0
0
0
0
0
0
0
0
0
0
0
0
0
0
0
0
0
0
0
0
0
0
0
0
0
0
0
0
0
0
0
0
0
0
0
0
0
0
0
0
0
0
0
0
0
0
0
0
0
0
0
0
0
0
0
0
0
0
0
0
0
0
0
0
0
0
0
0
0
0
0
0
0
0
0
0
0
0
0
0
0
0
0
0
0
0
0
0
0
0
0
0
0
0
0
0
0
0
0
0
0
0
0
0
0
0
0
0
0
0
0
0
0
0
0
0
0
0
0
0
0
0
0
0
0
0
0
0
0
0
0
0
0
0
0
0
0
0
0
0
0
0
0
0
0
0
0
0
0
0
0
0
0
0
0
0
0
0
0
0
0
0
0
0
0
0
0
0
0
0
0
0
0
0
0
0
0
0
0
0
0
0
0
0
0
0
0
0
0
0
0
0
0
0
0
0
0
0
0
0
0
0
0
0
0
0
0
0
0
0
0
0
0
0
0
0
0
0
0
0
0
0
0
0
0
0
0
0
0
0
0
0
0
0
0
0
0
0
0
0
0
0
0
0
0
0
0
0
0
0
0
0
0
0
0
0
0
0
0
0
0
0
0
0
0
0
0
0
0
0
0
0
0
0
0
0
0
0
0
0
0
0
0
0
0
0
0
0
0
0
0
0
0
0
0
0
0
0
0
0
0
0
0
0
0
0
0
0
0
0
0
0
0
0
0
0
0
0
0
0
0
0
0
0
0
0
0
0
0
0
0
0
0
0
0
0
0
0
0
0
0
0
0
0
0
0
0
0
0
0
0
1
1
1
1
1
1
1
1
1
1
1
1
1
1
1
1
1
1
1
1
1
1
1
1
1
1
1
1
1
1
1
1
1
1
1
1
1
1
1
1
1
1
1
1
1
1
1
1
1
1
1
1
1
1
1
1
1
1
1
1
1
1
1
1
1
1
1
1
1
1
1
1
1
1
1
1
1
1
1
1
1
1
1
1
1
1
1
1
1
1
1
1
1
1
1
1
1
1
1
1
1
1
1
1
1
1
1
1
1
1
1
1
1
1
1
1
1
1
1
1
1
1
1
1
1
1
1
1
1
1
1
1
1
1
1
1
1
1
1
1
1
1
1
1
1
1
1
1
1
1
1
1
1
1
1
1
1
1
1
1
1
1
1
1
1
1
1
1
1
1
1
1
1
1
1
1
1
1
1
1
1
1
1
1
1
1
1
1
1
1
1
1
1
1
1
1
1
1
1
1
1
1
1
1
1
1
1
1
1
1
1
1
1
1
1
1
1
1
1
1
1
1
1
1
1
1
1
1
1
1
1
1
1
1
1
1
1
1
1
1
1
1
1
1
1
1
1
1
1
1
1
1
1
1
1
1
1
1
1
1
1
1
1
1
1
1
1
1
1
1
1
1
1
1
1
1
1
1
1
1
1
1
1
1
1
1
1
1
1
1
1
1
1
1
1
1
1
1
1
1
1
1
1
1
1
1
SCALARS rho float 1
LOOKUP_TABLE default
1020
1020
1020
1020
1020
1020
1020
1020
1020
1020
1020
1020
1020
1020
1020
1020
1020
1020
1020
1020
1020
1020
1020
1020
1020
1020
1020
1020
1020
1020
1020
1020
1020
1020
1020
1020
1020
1020
1020
1020
1020
1020
1020
1020
1020
1020
1020
1020
1020
1020
1020
1020
1020
1020
1020
1020
1020
1020
1020
1020
1020
1020
1020
1020
1020
1020
1020
1020
1020
1020
1020
1020
1020
1020
1020
1020
1020
1020
1020
1020
1020
1020
1020
1020
1020
1020
1020
1020
1020
1020
1020
1020
1020
1020
1020
1020
1020
1020
1020
1020
1020
1020
1020
1020
1020
1020
1020
1020
1020
1020
1020
1020
1020
1020
1020
1020
1020
1020
1020
1020
1020
1020
1020
1020
1020
1020
1020
1020
1020
1020
1020
1020
1020
1020
1020
1020
1020
1020
1020
1020
1020
1020
1020
1020
1020
1020
1020
1020
1020
1020
1020
1020
1020
1020
1020
1020
1020
1020
1020
1020
1020
1020
1020
1020
1020
1020
1020
1020
1020
1020
1020
1020
1020
1020
1020
1020
1020
1020
1020
1020
1020
1020
1020
1020
1020
1020
1020
1020
1020
1020
1020
1020
1020
1020
1020
1020
1020
1020
1020
1020
1020
1020
1020
1020
1020
1020
1020
1020
1020
1020
1020
1020
1020
1020
1020
1020
1020
1020
1020
1020
1020
1020
1020
1020
1020
1020
1020
1020
1020
1020
1020
1020
1020
1020
1020
1020
1020
1020
1020
1020
1020
1020
1020
1020
1020
1020
1020
1020
1020
1020
1020
1020
1020
1020
1020
1020
1020
1020
1020
1020
1020
1020
1020
1020
1020
1020
1020
1020
1020
1020
1020
1020
1020
1020
1020
1020
1020
1020
1020
1020
1020
1020
1020
1020
1020
1020
1020
1020
1020
1020
1020
1020
1020
1020
1020
1020
1020
1020
1020
1020
1020
1020
1020
1020
1020
1020
1020
1020
1020
1020
1020
1020
1020
1020
1020
1020
1020
1020
1020
1020
1020
1020
1020
1020
1020
1020
1020
1020
1020
1020
1020
1020
1020
1020
1020
1020
1020
1020
1020
1020
1020
1020
1020
1020
1020
1020
1020
1020
1020
1020
1020
1020
1020
1020
1020
1020
1020
1020
1020
1020
1020
1020
1020
1020
1020
1020
1020
1020
1020
1020
1020
1020
1020
1020
1020
1000
1000
1000
1000
1000
1000
1000
1000
1000
1000
1000
1000
1000
1000
1000
1000
1000
1000
1000
1000
1000
1000
1000
1000
1000
1000
1000
1000
1000
1000
1000
1000
1000
1000
1000
1000
1000
1000
1000
1000
1000
1000
1000
1000
1000
1000
1000
1000
1000
1000
1000
1000
1000
1000
1000
1000
1000
1000
1000
1000
1000
1000
1000
1000
1000
1000
1000
1000
1000
1000
1000
1000
1000
1000
1000
1000
1000
1000
1000
1000
1000
1000
1000
1000
1000
1000
1000
1000
1000
1000
1000
1000
1000
1000
1000
1000
1000
1000
1000
1000
1000
1000
1000
1000
1000
1000
1000
1000
1000
1000
1000
1000
1000
1000
1000
1000
1000
1000
1000
1000
1000
1000
1000
1000
1000
1000
1000
1000
1000
1000
1000
1000
1000
1000
1000
1000
1000
1000
1000
1000
1000
1000
1000
1000
1000
1000
1000
1000
1000
1000
1000
1000
1000
1000
1000
1000
1000
1000
1000
1000
1000
1000
1000
1000
1000
1000
1000
1000
1000
1000
1000
1000
1000
1000
1000
1000
1000
1000
1000
1000
1000
1000
1000
1000
1000
1000
1000
1000
1000
1000
1000
1000
1000
1000
1000
1000
1000
1000
1000
1000
1000
1000
1000
1000
1000
1000
1000
1000
1000
1000
1000
1000
1000
1000
1000
1000
1000
1000
1000
1000
1000
1000
1000
1000
1000
1000
1000
1000
1000
1000
1000
1000
1000
1000
1000
1000
1000
1000
1000
1000
1000
1000
1000
1000
1000
1000
1000
1000
1000
1000
1000
1000
1000
1000
1000
1000
1000
1000
1000
1000
1000
1000
1000
1000
1000
1000
1000
1000
1000
1000
1000
1000
1000
1000
1000
1000
1000
1000
1000
1000
1000
1000
1000
1000
1000
1000
1000
1000
1000
1000
1000
1000
1000
1000
1000
1000
1000
1000
1000
1000
1000
1000
1000
1000
1000
1000
SCALARS p float 1
LOOKUP_TABLE default
25004.681136676067
25004.681136676067
25004.681136676067
25004.681136676067
25004.681136676067
25004.681136676067
25004.681136676067
25004.681136676067
25004.681136676067
25004.681136676067
25004.681136676067
25004.681136676067
25004.681136676067
25004.681136676067
25004.681136676067
25004.681136676067
25004.681136676067
25004.681136676067
25004.681136676067
25004.681136676067
25004.681136676067
25004.681136676067
25004.681136676067
25004.681136676067
25004.681136676067
25004.681136676067
25004.681136676067
25004.681136676067
25004.681136676067
25004.681136676067
25004.681136676067
25004.681136676067
25004.681136676067
25004.681136676067
25004.681136676067
25004.681136676067
25004.681136676067
25004.681136676067
25004.681136676067
25004.681136676067
25004.681136676067
25004.681136676067
25004.681136676067
25004.681136676067
25004.681136676067
25004.681136676067
25004.681136676067
25004.681136676067
25004.681136676067
25004.681136676067
25004.681136676067
25004.681136676067
25004.681136676067
25004.681136676067
25004.681136676067
25004.681136676067
25004.681136676067
25004.681136676067
25004.681136676067
25004.681136676067
25004.681136676067
25004.681136676067
25004.681136676067
25004.681136676067
25004.681136676067
25004.681136676067
25004.681136676067
25004.681136676067
25004.681136676067
25004.681136676067
25004.681136676067
25004.681136676067
25004.681136676067
25004.681136676067
25004.681136676067
25004.681136676067
25004.681136676067
25004.681136676067
25004.681136676067
25004.681136676067
25004.681136676067
25004.681136676067
25004.681136676067
25004.681136676067
25004.681136676067
25004.681136676067
25004.681136676067
25004.681136676067
25004.681136676067
25004.681136676067
25004.681136676067
25004.681136676067
25004.681136676067
25004.681136676067
25004.681136676067
25004.681136676067
25004.681136676067
25004.681136676067
25004.681136676067
25004.681136676067
25004.681136676067
25004.681136676067
25004.681136676067
25004.681136676067
25004.681136676067
25004.681136676067
25004.681136676067
25004.681136676067
25004.681136676067
25004.681136676067
25004.681136676067
25004.681136676067
25004.681136676067
25004.681136676067
25004.681136676067
25004.681136676067
25004.681136676067
25004.681136676067
25004.681136676067
25004.681136676067
25004.681136676067
25004.681136676067
25004.681136676067
25004.681136676067
25004.681136676067
25004.681136676067
25004.681136676067
25004.681136676067
25004.681136676067
25004.681136676067
25004.681136676067
25004.681136676067
25004.681136676067
25004.681136676067
25004.681136676067
25004.681136676067
25004.681136676067
25004.681136676067
25004.681136676067
25004.681136676067
25004.681136676067
25004.681136676067
25004.681136676067
25004.681136676067
25004.681136676067
25004.681136676067
25004.681136676067
25004.681136676067
25004.681136676067
25004.681136676067
25004.681136676067
25004.681136676067
25004.681136676067
25004.681136676067
25004.681136676067
25004.681136676067
25004.681136676067
25004.681136676067
25004.681136676067
25004.681136676067
25004.681136676067
25004.681136676067
25004.681136676067
25004.681136676067
25004.681136676067
25004.681136676067
25004.681136676067
25004.681136676067
25004.681136676067
25004.681136676067
25004.681136676067
25004.681136676067
25004.681136676067
25004.681136676067
25004.681136676067
25004.681136676067
25004.681136676067
25004.681136676067
25004.681136676067
25004.681136676067
25004.681136676067
25004.681136676067
25004.681136676067
25004.681136676067
25004.681136676067
25004.681136676067
25004.681136676067
25004.681136676067
25004.681136676067
25004.681136676067
25004.681136676067
25004.681136676067
25004.681136676067
25004.681136676067
25004.681136676067
25004.681136676067
25004.681136676067
25004.681136676067
25004.681136676067
25004.681136676067
25004.681136676067
25004.681136676067
25004.681136676067
25004.681136676067
25004.681136676067
25004.681136676067
25004.681136676067
25004.681136676067
25004.681136676067
25004.681136676067
25004.681136676067
25004.681136676067
25004.681136676067
25004.681136676067
25004.681136676067
25004.681136676067
25004.681136676067
25004.681136676067
25004.681136676067
25004.681136676067
25004.681136676067
25004.681136676067
25004.681136676067
25004.681136676067
25004.681136676067
25004.681136676067
25004.681136676067
25004.681136676067
25004.681136676067
25004.681136676067
25004.681136676067
25004.681136676067
25004.681136676067
25004.681136676067
25004.681136676067
25004.681136676067
25004.681136676067
25004.681136676067
25004.681136676067
25004.681136676067
25004.681136676067
25004.681136676067
25004.681136676067
25004.681136676067
25004.681136676067
25004.681136676067
25004.681136676067
25004.681136676067
25004.681136676067
25004.681136676067
25004.681136676067
25004.681136676067
25004.681136676067
25004.681136676067
25004.681136676067
25004.681136676067
25004.681136676067
25004.681136676067
25004.681136676067
25004.681136676067
25004.681136676067
25004.681136676067
25004.681136676067
25004.681136676067
25004.681136676067
25004.681136676067
25004.681136676067
25004.681136676067
25004.681136676067
25004.681136676067
25004.681136676067
25004.681136676067
25004.681136676067
25004.681136676067
25004.681136676067
25004.681136676067
25004.681136676067
25004.681136676067
25004.681136676067
25004.681136676067
25004.681136676067
25004.681136676067
25004.681136676067
25004.681136676067
25004.681136676067
25004.681136676067
25004.681136676067
25004.681136676067
25004.681136676067
25004.681136676067
25004.681136676067
25004.681136676067
25004.681136676067
25004.681136676067
25004.681136676067
25004.681136676067
25004.681136676067
25004.681136676067
25004.681136676067
25004.681136676067
25004.681136676067
25004.681136676067
25004.681136676067
25004.681136676067
25004.681136676067
25004.681136676067
25004.681136676067
25004.681136676067
25004.681136676067
25004.681136676067
25004.681136676067
25004.681136676067
25004.681136676067
25004.681136676067
25004.681136676067
25004.681136676067
25004.681136676067
25004.681136676067
25004.681136676067
25004.681136676067
25004.681136676067
25004.681136676067
25004.681136676067
25004.681136676067
25004.681136676067
25004.681136676067
25004.681136676067
25004.681136676067
25004.681136676067
25004.681136676067
25004.681136676067
25004.681136676067
25004.681136676067
25004.681136676067
25004.681136676067
25004.681136676067
25004.681136676067
25004.681136676067
25004.681136676067
25004.681136676067
25004.681136676067
25004.681136676067
25004.681136676067
25004.681136676067
25004.681136676067
25004.681136676067
25004.681136676067
25004.681136676067
25004.681136676067
25004.681136676067
25004.681136676067
25004.681136676067
25004.681136676067
25004.681136676067
25004.681136676067
25004.681136676067
25004.681136676067
25004.681136676067
25004.681136676067
25004.681136676067
25004.681136676067
25004.681136676067
25004.681136676067
25004.681136676067
25004.681136676067
25004.681136676067
25004.681136676067
25004.681136676067
25004.681136676067
25004.681136676067
25004.681136676067
25004.681136676067
25004.681136676067
25004.681136676067
25004.681136676067
0
0
0
0
0
0
23841.423779399378
24981.695003206569
24991.329792754022
0
0
0
24996.263826864517
25003.913532632207
25004.210109948785
0
0
0
25000.745440021856
25004.290935341818
25004.437500797776
0
0
0
25001.029387279494
25004.297699876926
25004.437517515515
0
0
0
25001.044222769935
25004.29728127929
25004.436741071149
0
0
0
25001.038613945864
25004.296948612682
25004.436632398327
0
0
0
25001.035242751128
25004.296790618529
25004.436614172209
0
0
0
25001.033911948027
25004.296726874883
25004.436610155863
0
0
0
25001.033561919383
25004.296707962916
25004.436609835288
0
0
0
25001.03360053078
25004.296709500417
25004.436611852288
0
0
0
25001.03412245262
25004.296734738047
25004.436612394828
0
0
0
25001.03559455536
25004.296804618105
25004.436618716976
0
0
0
25001.038985449824
25004.296962590746
25004.436638560055
0
0
0
25001.044500547887
25004.297289409144
25004.43674236018
0
0
0
25001.029457986297
25004.297698360038
25004.437515288355
0
0
0
25000.745438268932
25004.29093507662
25004.437504241301
0
0
0
24996.263426141348
25003.913495467721
25004.210092463039
0
0
0
23841.164346591642
24981.691767380507
24991.327245493376
0
0
0
0
0
0
0
0
0
0
0
0
0
0
0
0
0
0
0
0
0
0
0
0
0
0
0
0
0
0
0
0
0
0
0
0
0
0
0
0
0
0
0
0
0
0
0
0
0
0
0
0
0
0
0
0
0
0
0
0
0
0
0
0
0
0
0
0
0
0
0
0
0
0
0
0
0
0
0
0
0
0
0
0
0
0
0
0
0
0
0
0
0
0
0
0
0
0
0
0
0
0
0
0
0
0
0
0
0
0
0
0
0
0
0
0
0
0
0
0
0
0
0
0
0
0
0
0
0
0
0
0
0
0
0
0
0
0
0
0
0
0
0
0
0
0
0
0
0
0
0
0
0
0
0
0
0
0
0
0
0
0
0
0
0
0
0
0
0
0
0
0
0
0
0
0
0
0
0
0
0
0
0
0
0
0
0
0
0
0
0
0
0
0
0
SCALARS m float 1
LOOKUP_TABLE default
0.39965556373580352
0.39965556373580352
0.39965556373580352
0.39965556373580352
0.39965556373580352
0.39965556373580352
0.39965556373580352
0.39965556373580352
0.39965556373580352
0.39965556373580352
0.39965556373580352
0.39965556373580352
0.39965556373580352
0.39965556373580352
0.39965556373580352
0.39965556373580352
0.39965556373580352
0.39965556373580352
0.39965556373580352
0.39965556373580352
0.39965556373580352
0.39965556373580352
0.39965556373580352
0.39965556373580352
0.39965556373580352
0.39965556373580352
0.39965556373580352
0.39965556373580352
0.39965556373580352
0.39965556373580352
0.39965556373580352
0.39965556373580352
0.39965556373580352
0.39965556373580352
0.39965556373580352
0.39965556373580352
0.39965556373580352
0.39965556373580352
0.39965556373580352
0.39965556373580352
0.39965556373580352
0.39965556373580352
0.39965556373580352
0.39965556373580352
0.39965556373580352
0.39965556373580352
0.39965556373580352
0.39965556373580352
0.39965556373580352
0.39965556373580352
0.39965556373580352
0.39965556373580352
0.39965556373580352
0.39965556373580352
0.39965556373580352
0.39965556373580352
0.39965556373580352
0.39965556373580352
0.39965556373580352
0.39965556373580352
0.39965556373580352
0.39965556373580352
0.39965556373580352
0.39965556373580352
0.39965556373580352
0.39965556373580352
0.39965556373580352
0.39965556373580352
0.39965556373580352
0.39965556373580352
0.39965556373580352
0.39965556373580352
0.39965556373580352
0.39965556373580352
0.39965556373580352
0.39965556373580352
0.39965556373580352
0.39965556373580352
0.39965556373580352
0.39965556373580352
0.39965556373580352
0.39965556373580352
0.39965556373580352
0.39965556373580352
0.39965556373580352
0.39965556373580352
0.39965556373580352
0.39965556373580352
0.39965556373580352
0.39965556373580352
0.39965556373580352
0.39965556373580352
0.39965556373580352
0.39965556373580352
0.39965556373580352
0.39965556373580352
0.39965556373580352
0.39965556373580352
0.39965556373580352
0.39965556373580352
0.39965556373580352
0.39965556373580352
0.39965556373580352
0.39965556373580352
0.39965556373580352
0.39965556373580352
0.39965556373580352
0.39965556373580352
0.39965556373580352
0.39965556373580352
0.39965556373580352
0.39965556373580352
0.39965556373580352
0.39965556373580352
0.39965556373580352
0.39965556373580352
0.39965556373580352
0.39965556373580352
0.39965556373580352
0.39965556373580352
0.39965556373580352
0.39965556373580352
0.39965556373580352
0.39965556373580352
0.39965556373580352
0.39965556373580352
0.39965556373580352
0.39965556373580352
0.39965556373580352
0.39965556373580352
0.39965556373580352
0.39965556373580352
0.39965556373580352
0.39965556373580352
0.39965556373580352
0.39965556373580352
0.39965556373580352
0.39965556373580352
0.39965556373580352
0.39965556373580352
0.39965556373580352
0.39965556373580352
0.39965556373580352
0.39965556373580352
0.39965556373580352
0.39965556373580352
0.39965556373580352
0.39965556373580352
0.39965556373580352
0.39965556373580352
0.39965556373580352
0.39965556373580352
0.39965556373580352
0.39965556373580352
0.39965556373580352
0.39965556373580352
0.39965556373580352
0.39965556373580352
0.39965556373580352
0.39965556373580352
0.39965556373580352
0.39965556373580352
0.39965556373580352
0.39965556373580352
0.39965556373580352
0.39965556373580352
0.39965556373580352
0.39965556373580352
0.39965556373580352
0.39965556373580352
0.39965556373580352
0.39965556373580352
0.39965556373580352
0.39965556373580352
0.39965556373580352
0.39965556373580352
0.39965556373580352
0.39965556373580352
0.39965556373580352
0.39965556373580352
0.39965556373580352
0.39965556373580352
0.39965556373580352
0.39965556373580352
0.39965556373580352
0.39965556373580352
0.39965556373580352
0.39965556373580352
0.39965556373580352
0.39965556373580352
0.39965556373580352
0.39965556373580352
0.39965556373580352
0.39965556373580352
0.39965556373580352
0.39965556373580352
0.39965556373580352
0.39965556373580352
0.39965556373580352
0.39965556373580352
0.39965556373580352
0.39965556373580352
0.39965556373580352
0.39965556373580352
0.39965556373580352
0.39965556373580352
0.39965556373580352
0.39965556373580352
0.39965556373580352
0.39965556373580352
0.39965556373580352
0.39965556373580352
0.39965556373580352
0.39965556373580352
0.39965556373580352
0.39965556373580352
0.39965556373580352
0.39965556373580352
0.39965556373580352
0.39965556373580352
0.39965556373580352
0.39965556373580352
0.39965556373580352
0.39965556373580352
0.39965556373580352
0.39965556373580352
0.39965556373580352
0.39965556373580352
0.39965556373580352
0.39965556373580352
0.39965556373580352
0.39965556373580352
0.39965556373580352
0.39965556373580352
0.39965556373580352
0.39965556373580352
0.39965556373580352
0.39965556373580352
0.39965556373580352
0.39965556373580352
0.39965556373580352
0.39965556373580352
0.39965556373580352
0.39965556373580352
0.39965556373580352
0.39965556373580352
0.39965556373580352
0.39965556373580352
0.39965556373580352
0.39965556373580352
0.39965556373580352
0.39965556373580352
0.39965556373580352
0.39965556373580352
0.39965556373580352
0.39965556373580352
0.39965556373580352
0.39965556373580352
0.39965556373580352
0.39965556373580352
0.39965556373580352
0.39965556373580352
0.39965556373580352
0.39965556373580352
0.39965556373580352
0.39965556373580352
0.39965556373580352
0.39965556373580352
0.39965556373580352
0.39965556373580352
0.39965556373580352
0.39965556373580352
0.39965556373580352
0.39965556373580352
0.39965556373580352
0.39965556373580352
0.39965556373580352
0.39965556373580352
0.39965556373580352
0.39965556373580352
0.39965556373580352
0.39965556373580352
0.39965556373580352
0.39965556373580352
0.39965556373580352
0.39965556373580352
0.39965556373580352
0.39965556373580352
0.39965556373580352
0.39965556373580352
0.39965556373580352
0.39965556373580352
0.39965556373580352
0.39965556373580352
0.39965556373580352
0.39965556373580352
0.39965556373580352
0.39965556373580352
0.39965556373580352
0.39965556373580352
0.39965556373580352
0.39965556373580352
0.39965556373580352
0.39965556373580352
0.39965556373580352
0.39965556373580352
0.39965556373580352
0.39965556373580352
0.39965556373580352
0.39965556373580352
0.39965556373580352
0.39965556373580352
0.39965556373580352
0.39965556373580352
0.39965556373580352
0.39965556373580352
0.39965556373580352
0.39965556373580352
0.39965556373580352
0.39965556373580352
0.39965556373580352
0.39965556373580352
0.39965556373580352
0.39965556373580352
0.39965556373580352
0.39965556373580352
0.39965556373580352
0.39965556373580352
0.39965556373580352
0.39965556373580352
0.39965556373580352
0.39965556373580352
0.39965556373580352
0.39965556373580352
0.39965556373580352
0.39965556373580352
0.39965556373580352
0.39965556373580352
0.39965556373580352
0.39965556373580352
0.39965556373580352
0.39965556373580352
0.39965556373580352
0.39965556373580352
0.39965556373580352
0.39965556373580352
0.39965556373580352
0.39965556373580352
0.39965556373580352
0.39965556373580352
0.39965556373580352
0.39965556373580352
0.39965556373580352
0.39965556373580352
0.39965556373580352
0.39965556373580352
0.39965556373580352
0.39965556373580352
0.39965556373580352
0.39965556373580352
0.39965556373580352
0.39965556373580352
0.39965556373580352
0.39965556373580352
0.39965556373580352
0.39965556373580352
0.39965556373580352
0.39965556373580352
0.39965556373580352
0.39965556373580352
0.39965556373580352
0.39965556373580352
0.39965556373580352
0.39965556373580352
0.39965556373580352
0.39965556373580352
0.39965556373580352
0.39965556373580352
0.39965556373580352
0.39965556373580352
0.39965556373580352
0.39965556373580352
0.39965556373580352
0.39965556373580352
0.39965556373580352
0.39965556373580352
0.39965556373580352
0.39965556373580352
0.39965556373580352
0.39965556373580352
0.39965556373580352
0.39965556373580352
0.39965556373580352
0.39965556373580352
0.39965556373580352
0.39965556373580352
0.39965556373580352
0.39965556373580352
0.39965556373580352
0.39965556373580352
0.39965556373580352
0.39965556373580352
0.39965556373580352
0.39965556373580352
0.39965556373580352
0.39965556373580352
0.39965556373580352
0.39965556373580352
0.39965556373580352
0.39965556373580352
0.39965556373580352
0.39965556373580352
0.39965556373580352
0.39965556373580352
0.39965556373580352
0.39965556373580352
0.39965556373580352
0.39965556373580352
0.39965556373580352
0.39965556373580352
0.39965556373580352
0.39965556373580352
0.39965556373580352
0.39965556373580352
0.39965556373580352
0.39965556373580352
0.39965556373580352
0.39965556373580352
0.39965556373580352
0.39965556373580352
0.39965556373580352
0.39965556373580352
0.39965556373580352
0.39965556373580352
0.39965556373580352
0.39965556373580352
0.39965556373580352
0.39965556373580352
0.39965556373580352
0.39965556373580352
0.39965556373580352
0.39965556373580352
0.39965556373580352
0.39965556373580352
0.39965556373580352
0.39965556373580352
0.39965556373580352
0.39965556373580352
0.39965556373580352
0.39965556373580352
0.39965556373580352
0.39965556373580352
0.39965556373580352
0.39965556373580352
0.39965556373580352
0.39965556373580352
0.39965556373580352
0.39965556373580352
0.39965556373580352
0.39965556373580352
0.39965556373580352
0.39965556373580352
0.39965556373580352
0.39965556373580352
0.39965556373580352
0.39965556373580352
0.39965556373580352
0.39965556373580352
0.39965556373580352
0.39965556373580352
0.39965556373580352
0.39965556373580352
0.39965556373580352
0.39965556373580352
0.39965556373580352
0.39965556373580352
0.39965556373580352
0.39965556373580352
0.39965556373580352
0.39965556373580352
0.39965556373580352
0.39965556373580352
0.39965556373580352
0.39965556373580352
0.39965556373580352
0.39965556373580352
0.39965556373580352
0.39965556373580352
0.39965556373580352
0.39965556373580352
0.39965556373580352
0.39965556373580352
0.39965556373580352
0.39965556373580352
0.39965556373580352
0.39965556373580352
0.39965556373580352
0.39965556373580352
0.39965556373580352
0.39965556373580352
0.39965556373580352
0.39965556373580352
0.39965556373580352
0.39965556373580352
0.39965556373580352
0.39965556373580352
0.39965556373580352
0.39965556373580352
0.39965556373580352
0.39965556373580352
0.39965556373580352
0.39965556373580352
0.39965556373580352
0.39965556373580352
0.39965556373580352
0.39965556373580352
0.39965556373580352
0.39965556373580352
0.39965556373580352
0.39965556373580352
0.39965556373580352
0.39965556373580352
0.39965556373580352
0.39965556373580352
0.39965556373580352
0.39965556373580352
0.39965556373580352
0.39965556373580352
0.39965556373580352
0.39965556373580352
0.39965556373580352
0.39965556373580352
0.39965556373580352
0.39965556373580352
0.39965556373580352
0.39965556373580352
0.39965556373580352
0.39965556373580352
0.39965556373580352
0.39965556373580352
0.39965556373580352
0.39965556373580352
0.39965556373580352
0.39965556373580352
0.39965556373580352
0.39965556373580352
0.39965556373580352
0.39965556373580352
0.39965556373580352
0.39965556373580352
0.39965556373580352
0.39965556373580352
0.39965556373580352
0.39965556373580352
0.39965556373580352
0.39965556373580352
0.39965556373580352
0.39965556373580352
0.39965556373580352
0.39965556373580352
0.39965556373580352
0.39965556373580352
0.39965556373580352
0.39965556373580352
0.39965556373580352
0.39965556373580352
0.39965556373580352
0.39965556373580352
0.39965556373580352
0.39965556373580352
0.39965556373580352
0.39965556373580352
0.39965556373580352
0.39965556373580352
0.39965556373580352
0.39965556373580352
0.39965556373580352
0.39965556373580352
0.39965556373580352
0.39965556373580352
0.39965556373580352
0.39965556373580352
0.39965556373580352
0.39965556373580352
0.39965556373580352
0.39965556373580352
0.39965556373580352
0.39965556373580352
0.39965556373580352
0.39965556373580352
0.39965556373580352
0.39965556373580352
0.39965556373580352
0.39965556373580352
0.39965556373580352
0.39965556373580352
0.39965556373580352
0.39965556373580352
0.39965556373580352
0.39965556373580352
0.39965556373580352
0.39965556373580352
0.39965556373580352
0.39965556373580352
0.39965556373580352
0.39965556373580352
0.39965556373580352
0.39965556373580352
0.39965556373580352
0.39965556373580352
0.39965556373580352
0.39965556373580352
0.39965556373580352
0.39965556373580352
0.39965556373580352
0.39965556373580352
0.39965556373580352
0.39965556373580352
0.39965556373580352
0.39965556373580352
0.39965556373580352
0.39965556373580352
0.39965556373580352
0.39965556373580352
0.39965556373580352
0.39965556373580352
0.39965556373580352
0.39965556373580352
0.39965556373580352
0.39965556373580352
0.39965556373580352
0.39965556373580352
0.39965556373580352
0.39965556373580352
0.39965556373580352
0.39965556373580352
0.39965556373580352
0.39965556373580352
0.39965556373580352
0.39965556373580352
0.39965556373580352
0.39965556373580352
0.39965556373580352
0.39965556373580352
0.39965556373580352
0.39965556373580352
0.39965556373580352
0.39965556373580352
0.39965556373580352
0.39965556373580352
0.39965556373580352
0.39965556373580352
0.39965556373580352
0.39965556373580352
0.39965556373580352
0.39965556373580352
0.39965556373580352
0.39965556373580352
0.39965556373580352
0.39965556373580352
0.39965556373580352
0.39965556373580352
0.39965556373580352
0.39965556373580352
0.39965556373580352
0.39965556373580352
0.39965556373580352
0.39965556373580352
0.39965556373580352
0.39965556373580352
0.39965556373580352
0.39965556373580352
0.39965556373580352
0.39965556373580352
0.39965556373580352
0.39965556373580352
0.39965556373580352
0.39965556373580352
0.39965556373580352
0.39965556373580352
0.39965556373580352
VECTORS v float
-2.0596793779497235e-05 -0.037040253289437546 0
-2.1665449179801156e-05 -0.037537833954835592 0
-2.2451710268823901e-05 -0.037923870720369859 0
-2.3139653533392073e-05 -0.038301637008815476 0
-2.3780815434765917e-05 -0.038685414258042873 0
-2.4371412883770089e-05 -0.039089197473559684 0
-2.492791332337198e-05 -0.039522003154729611 0
-2.5444140361530893e-05 -0.039990309780686926 0
-2.5952812685281648e-05 -0.040500285933826721 0
-2.6394698866113728e-05 -0.041058039945825728 0
-2.6828642134356743e-05 -0.041670158710523347 0
-2.7178165503609796e-05 -0.042343504634506139 0
-2.7472100487020815e-05 -0.043085553952554111 0
-2.768261933920912e-05 -0.043910034806124806 0
-2.7904166298369233e-05 -0.044836034370603815 0
-2.8096456224260051e-05 -0.045883658976550584 0
-2.8301728236324266e-05 -0.047078803642329199 0
-2.8555485011663678e-05 -0.048453532192790937 0
-2.8786991038713461e-05 -0.050052280648427157 0
-2.9110784802014483e-05 -0.051924654850235029 0
-2.9467678225528132e-05 -0.054164456845394844 0
-2.990491302936374e-05 -0.05691074448565478 0
-3.0425537146204426e-05 -0.060398218642580409 0
-3.1081770875692533e-05 -0.065090402707531886 0
-3.2048008645678549e-05 -0.072515754331151691 0
-1.2015920837192106e-05 -0.037241591945982581 0
-1.2828201785828664e-05 -0.037782269558587871 0
-1.3433667903533073e-05 -0.038202189762965064 0
-1.3898894248654057e-05 -0.038603628171548887 0
-1.4269520838119094e-05 -0.039001742871540179 0
-1.4609510983446467e-05 -0.039415518753570272 0
-1.4910700431922621e-05 -0.03985731214006466 0
-1.5191244363444775e-05 -0.040334910643608411 0
-1.5460455323131376e-05 -0.040855513563652197 0
-1.5685078269549634e-05 -0.041425923485829991 0
-1.5873394524754454e-05 -0.042052611618752511 0
-1.6128446554519279e-05 -0.042742907882509791 0
-1.6247518154303608e-05 -0.043504310483871891 0
-1.669242839549641e-05 -0.044351827642179494 0
-1.6926652503721624e-05 -0.045304047975836023 0
-1.7104755083045654e-05 -0.04638118683282718 0
-1.7374701774790104e-05 -0.04760887689141536 0
-1.7563160358265967e-05 -0.049020015763629403 0
-1.7787813928066846e-05 -0.050655899887997402 0
-1.8087916888943921e-05 -0.052570808491664615 0
-1.8311267002270491e-05 -0.054852246822941882 0
-1.84883253967211e-05 -0.057634615548552169 0
-1.8741101326654826e-05 -0.061149207349335592 0
-1.9070516182019022e-05 -0.065890664535447452 0
-1.9351046487089292e-05 -0.073587310606175071 0
-4.4656713327221194e-06 -0.0373176876784444 0
-4.7670094771030185e-06 -0.03786317727824362 0
-4.9825537874048095e-06 -0.038287506015995829 0
-5.1546629893919411e-06 -0.038693665408321018 0
-5.3515831972372731e-06 -0.039096617567696362 0
-5.5213241750545041e-06 -0.039515695126028316 0
-5.6035615812398606e-06 -0.03996355571748797 0
-5.7581161953755333e-06 -0.040448500772262523 0
-5.7386061464587383e-06 -0.040977886911462688 0
-5.9398339904714011e-06 -0.041558578606744945 0
-5.8029487545317177e-06 -0.042197704701168015 0
-5.9400605085187395e-06 -0.042902835694704912 0
-6.1466515043727159e-06 -0.043682067479911622 0
-6.44248436112149e-06 -0.044550892209090448 0
-6.678343414414672e-06 -0.045528345472786398 0
-6.7904752788410359e-06 -0.046635497503989161 0
-6.9177481398493209e-06 -0.047898464040855952 0
-7.0845067078343846e-06 -0.049350105217500148 0
-7.2411151644855527e-06 -0.051032705587984693 0
-7.3897986237670406e-06 -0.053003639822948541 0
-7.6562934211883315e-06 -0.055349036818235872 0
-8.0001302545210851e-06 -0.058203890501894159 0
-8.2142484705366427e-06 -0.061797338115366272 0
-8.4893979323044458e-06 -0.066624634696906604 0
-8.7714128888224357e-06 -0.074426959835067863 0
-1.345574545698926e-06 -0.03735838825681434 0
-1.449698924590758e-06 -0.037907934555904223 0
-1.5336394124653786e-06 -0.038335476185301601 0
-1.7030727841243845e-06 -0.038744978018385404 0
-1.7577657185342229e-06 -0.039151336109577661 0
-1.8422652209403029e-06 -0.039574022893824827 0
-1.9466749938455572e-06 -0.040025791014770259 0
-1.8889828996785771e-06 -0.040515255661960625 0
-1.945013791918726e-06 -0.041049335746740051 0
-2.0493821265887764e-06 -0.041635382584127849 0
-2.1135934479447518e-06 -0.042280338762239092 0
-1.9623205810883416e-06 -0.042992431265350538 0
-2.3376456544718771e-06 -0.043779321352989217 0
-2.05853037362884e-06 -0.044656516971826397 0
-2.2074380751235241e-06 -0.045643975768980397 0
-2.2248606176028696e-06 -0.046762658041585206 0
-2.3449492292269319e-06 -0.048038560423009413 0
-2.4055902633201563e-06 -0.04950469079045805 0
-2.4557196323090761e-06 -0.051203679142969097 0
-2.5774563263264072e-06 -0.053193384729478932 0
-2.6083068395457882e-06 -0.055559852394073878 0
-2.7759900706914808e-06 -0.058438440211234254 0
-2.8785790415027453e-06 -0.062057509814669398 0
-2.9909701372233692e-06 -0.066913272046826039 0
-3.1550880452109322e-06 -0.074751353982355967 0
-7.6562283101041665e-07 -0.037380382913507482 0
-8.079731691646449e-07 -0.037932257832034431 0
-8.5902825200604289e-07 -0.038361548858374131 0
-9.1192789794123305e-07 -0.038772599235380428 0
-8.8272271010605661e-07 -0.039180667861980857 0
-9.5325114717896448e-07 -0.039605073028403721 0
-8.8876867917594511e-07 -0.040058589087908963 0
-9.0972306470386815e-07 -0.040549881892864174 0
-9.6081743257516512e-07 -0.041086060147377645 0
-8.6680459043277786e-07 -0.041674255124832395 0
-9.5662780282325645e-07 -0.042321682240100467 0
-9.9063560072159781e-07 -0.043036120288618016 0
-1.2715617142045236e-06 -0.043825331739833315 0
-1.2005885265603065e-06 -0.044705703478654019 0
-1.1934990555424608e-06 -0.045696445891381908 0
-1.2631148414061868e-06 -0.046819136958748196 0
-1.2906491211283659e-06 -0.048100199398218149 0
-1.2976477426662579e-06 -0.04957172334376346 0
-1.3594184863960148e-06 -0.051276419535835442 0
-1.3600927989383501e-06 -0.053271727130612234 0
-1.391282918958822e-06 -0.055644932639296978 0
-1.4239056199805791e-06 -0.058530928407411628 0
-1.4504412818654754e-06 -0.062158164711478461 0
-1.4267348710099679e-06 -0.067023027556656928 0
-1.4244618623995999e-06 -0.074872708380619948 0
-4.3031856827279712e-07 -0.037391293114560166 0
-4.6240615758043839e-07 -0.037944136042992647 0
-4.7123850655465958e-07 -0.038374219996265342 0
-4.9949021239236769e-07 -0.03878603510165668 0
-5.2626756010856411e-07 -0.039194787200037121 0
-5.0950136143301416e-07 -0.039619969174386732 0
-5.4880894828931141e-07 -0.040074284844269462 0
-5.376589128198653e-07 -0.040566378246319958 0
-4.2872225499374616e-07 -0.041103347993081664 0
-4.3210242261484921e-07 -0.041692498380931475 0
-4.2926654890663718e-07 -0.042340897052491028 0
-3.9251926969628201e-07 -0.043056235982447538 0
-4.928744770286415e-07 -0.043846904815036031 0
-5.773311857043763e-07 -0.04472837108410551 0
-6.8137622957573487e-07 -0.045720418246285109 0
-7.4569685960554666e-07 -0.046844487457060505 0
-7.9663723563174131e-07 -0.048126321243380919 0
-8.2618324274355581e-07 -0.049599042130573229 0
-8.4228114347535908e-07 -0.051305492288506317 0
-8.968562683544958e-07 -0.053303367466517156 0
-8.9001711218036241e-07 -0.055679064217241496 0
-9.4753706217562467e-07 -0.05856764609154614 0
-9.5126454922170616e-07 -0.062197734640577665 0
-9.9901725091628677e-07 -0.067066227391836833 0
-1.0141163692835207e-06 -0.074919273480886769 0
-2.9353676411972814e-07 -0.037395260117184137 0
-3.3800651841866511e-07 -0.037948609144704222 0
-3.3061471097034396e-07 -0.038379145715619747 0
-3.3403563214543405e-07 -0.038791173395751076 0
-3.7876115634360452e-07 -0.039200214080678683 0
-3.6421394204639253e-07 -0.039625672530122849 0
-3.5740378948018138e-07 -0.040080329828106206 0
-3.6505595175020585e-07 -0.040572677270229549 0
-4.5787284293313347e-07 -0.041109784981897705 0
-4.2163201962299465e-07 -0.041699052308800805 0
-4.9497540542589606e-07 -0.042347895202517687 0
-6.8495495150354305e-07 -0.043063515171777554 0
-8.099351682424877e-07 -0.043854391326750258 0
-7.5329748629532782e-07 -0.044736757927739748 0
-8.2578556311981518e-07 -0.045729429394128975 0
-6.9597341681876249e-07 -0.046854231265049867 0
-7.4236822532873319e-07 -0.048136791929527578 0
-7.9056957658305911e-07 -0.049609513240615716 0
-7.2558079284666341e-07 -0.051316529843105314 0
-7.2318945014963797e-07 -0.053315272313662843 0
-8.0290746696725853e-07 -0.055691760797625639 0
-8.1497847273804117e-07 -0.058581360486815282 0
-7.8082084024704171e-07 -0.062212770758831325 0
-7.8610272123509315e-07 -0.067083914241700571 0
-7.6617027342683888e-07 -0.074936204305856541 0
-2.1537402465299791e-07 -0.037396526965618668 0
-2.3636884895165623e-07 -0.03794985046641168 0
-2.0646559501956162e-07 -0.038380301893159864 0
-2.2668709944520995e-07 -0.038792439500083722 0
-2.2422909190074794e-07 -0.039201600957421152 0
-2.5296456515100416e-07 -0.03962708712192263 0
-3.0204680783120406e-07 -0.040081799264836855 0
-3.6180961224242914e-07 -0.040574323237895366 0
-3.9781508279293729e-07 -0.041111650789869197 0
-3.9298516339942035e-07 -0.041700953746790469 0
-4.2133712822182146e-07 -0.042349956906531622 0
-3.4280147399928878e-07 -0.043065668095086773 0
-2.6723782367722491e-07 -0.04385673419550519 0
-3.0206301478279711e-07 -0.044739113551352218 0
-2.3215925762837458e-07 -0.04573192949318055 0
-2.9289579260343709e-07 -0.046856608264452614 0
-3.0258569840789419e-07 -0.048138701431310084 0
-2.8953736778328865e-07 -0.049611848851904713 0
-3.0629187070776562e-07 -0.051318942813105881 0
-3.3380012183915851e-07 -0.053317551626159379 0
-3.0645554142492766e-07 -0.055693685039460684 0
-2.5977072660609955e-07 -0.058582308952414924 0
-2.6583417575631905e-07 -0.062211375780739091 0
-2.7755242961645704e-07 -0.067083471794807309 0
-3.3111152199079992e-07 -0.074937670157412192 0
-1.4751130833544774e-07 -0.037395207563683572 0
-1.350300920847565e-07 -0.037948375055052594 0
-1.4934555829244795e-07 -0.038378700934311359 0
-1.5022484300700843e-07 -0.038790711549385758 0
-1.5633142880072504e-07 -0.039199798036689271 0
-1.5158788846769534e-07 -0.039624980998325565 0
-1.4097810921599894e-07 -0.040079604044539849 0
-1.287112984764503e-07 -0.040572211671933582 0
-1.5205906406971117e-07 -0.041109513696910065 0
-3.0533429623361112e-07 -0.041698640246574992 0
-2.5111910006506008e-07 -0.042347289536394161 0
-2.3243434018385363e-07 -0.043062882936775758 0
-9.3051151906465592e-08 -0.043854255921036395 0
-1.8139068784530075e-07 -0.044736473566894086 0
-1.1201825397079421e-07 -0.045729042014808555 0
-1.1679054695674457e-07 -0.046853526808643943 0
-1.9594399963826028e-07 -0.048135408891806175 0
-2.6219967829194425e-07 -0.049608463408598168 0
-2.7369076091396598e-07 -0.051315321748662407 0
-2.5721237813613186e-07 -0.053313684463247003 0
-2.4312864761520521e-07 -0.055689477669095405 0
-2.2853519778048228e-07 -0.058577674061033563 0
-2.2092098601533283e-07 -0.062206147246652826 0
-2.5269115833459161e-07 -0.067077450127950661 0
-2.4907653875336444e-07 -0.074931637179942556 0
1.3427140472356832e-07 -0.037390705146207466 0
1.2855430398329203e-07 -0.037943427047138337 0
1.6121767022934452e-07 -0.038373445775211318 0
1.4929437911823242e-07 -0.03878508710714075 0
1.8032283553912716e-07 -0.039193771703943878 0
1.9247623098420249e-07 -0.039618908695250178 0
2.1574039835689615e-07 -0.040073283258583427 0
2.4432600502023607e-07 -0.040565332682351164 0
2.1822857536883709e-07 -0.041102203400600598 0
2.3244795095702539e-07 -0.04169103349034893 0
2.4463633309589004e-07 -0.042339104529587043 0
2.5361204677923343e-07 -0.04305445909043755 0
2.9557509684896175e-07 -0.043845476991348234 0
3.1600326499615236e-07 -0.044727150704145818 0
3.2125479156300042e-07 -0.045719189865087974 0
2.703838748137412e-07 -0.046842992249111801 0
2.7008566288360962e-07 -0.048124223108119882 0
2.6585494223076989e-07 -0.049596802972461128 0
2.7327381001759363e-07 -0.051302996315427118 0
3.2817805665714347e-07 -0.053300504565492311 0
3.3921705657254991e-07 -0.055675603423751482 0
3.32772839086768e-07 -0.05856346174853036 0
3.4757126168283064e-07 -0.062193880605679548 0
3.2726808713641131e-07 -0.067061206913193006 0
3.582822811169335e-07 -0.074914284600570466 0
5.9434442783011927e-07 -0.037379948929640319 0
6.4250698555894584e-07 -0.037931641097570579 0
6.7002814166948791e-07 -0.038360854531148833 0
7.0825176644497225e-07 -0.038771870595245853 0
6.7177656473216509e-07 -0.039179829348834842 0
7.2229569220810678e-07 -0.039604179631851595 0
7.4649362579457898e-07 -0.040057677221862813 0
7.1620845749268126e-07 -0.040549042184217572 0
7.4474673413910108e-07 -0.04108511842391372 0
7.3982531141352817e-07 -0.041673253261801275 0
6.72969958114892e-07 -0.042320641731737794 0
7.5159060354309162e-07 -0.043034936605890903 0
9.6855018298120535e-07 -0.043824380195477033 0
9.0252873921837145e-07 -0.044704697460113171 0
1.020367066782637e-06 -0.045695244517180954 0
1.1023489045335803e-06 -0.046817297631453259 0
1.0955627343335563e-06 -0.048096631936530854 0
1.1241262545053711e-06 -0.049567802443141171 0
1.1400549561523022e-06 -0.051272090206295182 0
1.1988435887875297e-06 -0.053266650637196211 0
1.2196855884554504e-06 -0.055638682702071202 0
1.2410849315224687e-06 -0.058523818918950012 0
1.2750272101485335e-06 -0.062156465997454412 0
1.36423886818352e-06 -0.06701885380121099 0
1.3818791975362727e-06 -0.074867816982163771 0
1.4072686139656405e-06 -0.037357810791789077 0
1.500930538565556e-06 -0.037907263587572286 0
1.5668669607349745e-06 -0.038334800497379549 0
1.6264995626256559e-06 -0.038744217026337395 0
1.6735573560145985e-06 -0.039150634228802467 0
1.7232532610702436e-06 -0.039573344123850225 0
1.7717109993208331e-06 -0.040024908401057491 0
1.7746228409570602e-06 -0.040514451371702301 0
1.8554141576480679e-06 -0.041048493602543465 0
1.901296579943317e-06 -0.041634444119417018 0
2.0134621379605985e-06 -0.042279513376394233 0
2.0436205473109072e-06 -0.042991294997536775 0
2.1170298226545178e-06 -0.043777946808373325 0
2.1981871617929379e-06 -0.044655331464787049 0
2.3007434942271106e-06 -0.045642513831832515 0
2.3461327359034408e-06 -0.046760985052736251 0
2.3814437959779787e-06 -0.048036308582796741 0
2.5020331930206481e-06 -0.049502182382470304 0
2.5254537023494216e-06 -0.051200927865788434 0
2.6378918925241309e-06 -0.053189936741773622 0
2.7371721096649791e-06 -0.055555395215793599 0
2.8575151665334841e-06 -0.058432742618102863 0
2.8952930004763358e-06 -0.062054689807200171 0
3.0346753767828456e-06 -0.066910229035655439 0
3.207190405233495e-06 -0.074747809097481549 0
4.3132563623872784e-06 -0.037317285184443265 0
4.6116630281419784e-06 -0.037862792096505671 0
4.8059471277774199e-06 -0.038287125015176171 0
4.9930890203082913e-06 -0.038693310558161956 0
5.1289515481590655e-06 -0.039096295153681744 0
5.2632221074219178e-06 -0.039515316693294063 0
5.3873719444859862e-06 -0.03996301707885247 0
5.4683160322090913e-06 -0.040448293667821718 0
5.548552299692881e-06 -0.040977657645400317 0
5.6126375082737284e-06 -0.041558294525765205 0
5.730055187280244e-06 -0.042197313059496776 0
5.6819063923283829e-06 -0.042902577070849289 0
5.7963351588335377e-06 -0.043681755767767699 0
5.9819747312999653e-06 -0.044550442963981057 0
6.1621757851383025e-06 -0.045527985807520946 0
6.2729948779245583e-06 -0.046635205121595531 0
6.3999719881057836e-06 -0.047897859486659672 0
6.5418124434699721e-06 -0.049349245193797554 0
6.7167408019089228e-06 -0.051031774867402818 0
6.9049636061616828e-06 -0.053002897665247177 0
7.1204852100817838e-06 -0.055347939872920561 0
7.3861162668734212e-06 -0.058202325113635926 0
7.6111533777457056e-06 -0.061796128526850271 0
7.92923472409612e-06 -0.066623433216123878 0
8.2873701650162272e-06 -0.074425705131708084 0
1.1785539317151347e-05 -0.037241360120994084 0
1.2553474805685913e-05 -0.037782147320628456 0
1.3106278418898397e-05 -0.038202168702872998 0
1.3614972669060572e-05 -0.038603628873599846 0
1.3986718681287663e-05 -0.039001758892339762 0
1.4346394753418302e-05 -0.039415465271309826 0
1.4644872420166593e-05 -0.039857103633342772 0
1.486912211774226e-05 -0.040335031728957381 0
1.5084833735174425e-05 -0.040855721698540917 0
1.5356420763639751e-05 -0.041426118110495069 0
1.5529681568397329e-05 -0.042052934217821053 0
1.5536998905245102e-05 -0.042743162983143623 0
1.5630495910495853e-05 -0.043504793116136392 0
1.6038765437721362e-05 -0.044352417120233294 0
1.6217059453009587e-05 -0.045304773293701792 0
1.6484975062537466e-05 -0.046382382104362387 0
1.6693321389749968e-05 -0.047610121902627769 0
1.6900026971954104e-05 -0.049020634280803561 0
1.7107907216896337e-05 -0.050655878746514532 0
1.7346013564979926e-05 -0.052572313513231987 0
1.7591687387957574e-05 -0.0548538232847363 0
1.7845678694834178e-05 -0.057635341709847118 0
1.814320377870771e-05 -0.061149853966047787 0
1.8401818958218778e-05 -0.065891155528904941 0
1.8668302846951379e-05 -0.073587501001455655 0
2.0077552708599271e-05 -0.037040176380765899 0
2.1138890273991117e-05 -0.037537808927948259 0
2.1899194639776269e-05 -0.037923870868472195 0
2.2576847905920222e-05 -0.038301647771811026 0
2.3206073953696307e-05 -0.038685404444690617 0
2.3779009306875048e-05 -0.03908911497568205 0
2.4323997317800302e-05 -0.039522100037764726 0
2.4840140632289274e-05 -0.039990721798673988 0
2.5323532023176004e-05 -0.040500645802680528 0
2.5768165616863368e-05 -0.04105842702975164 0
2.616261187049847e-05 -0.041670649552859602 0
2.6495628470716501e-05 -0.042344098409617378 0
2.6770805436497875e-05 -0.043086271107090325 0
2.699928502458546e-05 -0.043910956310701625 0
2.7200022768882337e-05 -0.044837185970133427 0
2.7385015408660767e-05 -0.045885214626795956 0
2.7574940181575975e-05 -0.047080623430102268 0
2.7777323002332111e-05 -0.048454732331318182 0
2.8013277456705927e-05 -0.050051418127591639 0
2.8277291751523301e-05 -0.051925648114172038 0
2.8603005623563661e-05 -0.054165635002698845 0
2.8991762436232985e-05 -0.056911752223376445 0
2.9471066091818727e-05 -0.060399198161086604 0
3.0074981729863693e-05 -0.06509121811395413 0
3.0990461886779095e-05 -0.072515532377614947 0
-0 -0 0
-0 -0 0
-0 -0 0
-0 -0 0
-0 -0 0
-0 -0 0
2.0178183921458493e-05 0.035638393570413131 0
2.3680663513698388e-05 0.038906500065238526 0
2.7273637613347179e-05 0.044768158493194057 0
-0 -0 0
-0 -0 0
-0 -0 0
2.2152733789300787e-05 0.037891366591426751 0
2.4012862186486956e-05 0.039745232202063441 0
2.6781252620384914e-05 0.045174256864813606 0
-0 -0 0
-0 -0 0
-0 -0 0
1.7346660043139095e-05 0.038028213855332803 0
1.9200543829031052e-05 0.039891753355577472 0
2.1604867980616765e-05 0.045336625897152004 0
-0 -0 0
-0 -0 0
-0 -0 0
9.0336113655424702e-06 0.03817962058225019 0
1.0082881732645023e-05 0.040059687761604908 0
1.1556052907578245e-05 0.04558004805681358 0
-0 -0 0
-0 -0 0
-0 -0 0
3.2361081244216776e-06 0.038244276229681844 0
3.7222569414199792e-06 0.040143396368642545 0
4.4127720515853445e-06 0.045728887111896363 0
-0 -0 0
-0 -0 0
-0 -0 0
1.1802843346904584e-06 0.038280110479723295 0
1.3840968734863822e-06 0.040189128438795567 0
1.6863810884499971e-06 0.045803210984435024 0
-0 -0 0
-0 -0 0
-0 -0 0
6.620811727530669e-07 0.038298783524552384 0
7.602271103037958e-07 0.04021232764358823 0
9.5460612800402206e-07 0.045837368566847121 0
-0 -0 0
-0 -0 0
-0 -0 0
4.4968574055066544e-07 0.038307294272920296 0
5.453811072682751e-07 0.040222753169593096 0
7.3095836673613614e-07 0.045851909955280254 0
-0 -0 0
-0 -0 0
-0 -0 0
2.9296670274109243e-07 0.038310353793919193 0
3.7701894736549272e-07 0.040226470491530386 0
5.0183549056882476e-07 0.045856978731320643 0
-0 -0 0
-0 -0 0
-0 -0 0
1.6674691293861103e-07 0.038310231088202293 0
2.1113423188423919e-07 0.040226257650445602 0
2.7022616541041882e-07 0.045856682927826325 0
-0 -0 0
-0 -0 0
-0 -0 0
-7.1469697807696999e-09 0.038306883447029823 0
-7.1756576043518353e-09 0.040222104905511626 0
1.3487234792190939e-08 0.045850917498339673 0
-0 -0 0
-0 -0 0
-0 -0 0
-4.1790706169967017e-07 0.03829821846740096 0
-4.8984359170689696e-07 0.040211536012430139 0
-6.1942820802786664e-07 0.045835875161111227 0
-0 -0 0
-0 -0 0
-0 -0 0
-1.1182193694251457e-06 0.038279479169904283 0
-1.287615990778466e-06 0.040188401479508938 0
-1.6119389193423318e-06 0.045801820077678586 0
-0 -0 0
-0 -0 0
-0 -0 0
-3.1651327466365571e-06 0.038243724565900555 0
-3.5995106316942317e-06 0.040142854825833137 0
-4.246841629788928e-06 0.045728124799502494 0
-0 -0 0
-0 -0 0
-0 -0 0
-8.8101754158524118e-06 0.038179339700157439 0
-9.806413860763987e-06 0.040059488505131746 0
-1.1143388450854584e-05 0.045580067557591711 0
-0 -0 0
-0 -0 0
-0 -0 0
-1.6918216559224596e-05 0.038028115896197277 0
-1.8708017422302036e-05 0.039891796510459446 0
-2.0976126299734411e-05 0.045337079408676859 0
-0 -0 0
-0 -0 0
-0 -0 0
-2.1575301345251591e-05 0.037891318410110369 0
-2.3385007447371815e-05 0.039745291062590116 0
-2.6036258833022696e-05 0.045174831290099131 0
-0 -0 0
-0 -0 0
-0 -0 0
-1.9645746525427991e-05 0.03563792224979604 0
-2.3065141145223693e-05 0.038906354301013794 0
-2.6521082522731072e-05 0.044768765417789388 0
-0 -0 0
-0 -0 0
-0 -0 0
-0 -0 0
-0 -0 0
-0 -0 0
-0 -0 0
-0 -0 0
-0 -0 0
-0 -0 0
-0 -0 0
-0 -0 0
-0 -0 0
-0 -0 0
-0 -0 0
-0 -0 0
-0 -0 0
-0 -0 0
-0 -0 0
-0 -0 0
-0 -0 0
-0 -0 0
-0 -0 0
-0 -0 0
-0 -0 0
-0 -0 0
-0 -0 0
-0 -0 0
-0 -0 0
-0 -0 0
-0 -0 0
-0 -0 0
-0 -0 0
-0 -0 0
-0 -0 0
-0 -0 0
-0 -0 0
-0 -0 0
-0 -0 0
-0 -0 0
-0 -0 0
-0 -0 0
-0 -0 0
-0 -0 0
-0 -0 0
-0 -0 0
-0 -0 0
-0 -0 0
-0 -0 0
-0 -0 0
-0 -0 0
-0 -0 0
-0 -0 0
-0 -0 0
-0 -0 0
-0 -0 0
-0 -0 0
-0 -0 0
-0 -0 0
-0 -0 0
-0 -0 0
-0 -0 0
-0 -0 0
-0 -0 0
-0 -0 0
-0 -0 0
-0 -0 0
-0 -0 0
-0 -0 0
-0 -0 0
-0 -0 0
-0 -0 0
-0 -0 0
-0 -0 0
-0 -0 0
-0 -0 0
-0 -0 0
-0 -0 0
-0 -0 0
-0 -0 0
-0 -0 0
-0 -0 0
-0 -0 0
-0 -0 0
-0 -0 0
-0 -0 0
-0 -0 0
-0 -0 0
-0 -0 0
-0 -0 0
-0 -0 0
-0 -0 0
-0 -0 0
-0 -0 0
-0 -0 0
-0 -0 0
-0 -0 0
-0 -0 0
-0 -0 0
-0 -0 0
-0 -0 0
-0 -0 0
-0 -0 0
-0 -0 0
-0 -0 0
-0 -0 0
-0 -0 0
-0 -0 0
-0 -0 0
-0 -0 0
-0 -0 0
-0 -0 0
-0 -0 0
-0 -0 0
-0 -0 0
-0 -0 0
-0 -0 0
-0 -0 0
-0 -0 0
-0 -0 0
-0 -0 0
-0 -0 0
-0 -0 0
-0 -0 0
-0 -0 0
-0 -0 0
-0 -0 0
-0 -0 0
-0 -0 0
-0 -0 0
-0 -0 0
-0 -0 0
-0 -0 0
-0 -0 0
-0 -0 0
-0 -0 0
-0 -0 0
-0 -0 0
-0 -0 0
-0 -0 0
-0 -0 0
-0 -0 0
-0 -0 0
-0 -0 0
-0 -0 0
-0 -0 0
-0 -0 0
-0 -0 0
-0 -0 0
-0 -0 0
-0 -0 0
-0 -0 0
-0 -0 0
-0 -0 0
-0 -0 0
-0 -0 0
-0 -0 0
-0 -0 0
-0 -0 0
-0 -0 0
-0 -0 0
-0 -0 0
-0 -0 0
-0 -0 0
-0 -0 0
-0 -0 0
-0 -0 0
-0 -0 0
-0 -0 0
-0 -0 0
-0 -0 0
-0 -0 0
-0 -0 0
-0 -0 0
-0 -0 0
-0 -0 0
-0 -0 0
-0 -0 0
-0 -0 0
-0 -0 0
-0 -0 0
-0 -0 0
-0 -0 0
-0 -0 0
-0 -0 0
-0 -0 0
-0 -0 0
-0 -0 0
-0 -0 0
-0 -0 0
-0 -0 0
-0 -0 0
-0 -0 0
-0 -0 0
-0 -0 0
