# vtk DataFile Version 3.0
SPH particles (WCSPH) - legacy PolyData
ASCII
DATASET POLYDATA
POINTS 651 float
0.050000000000000003 0.049999948810267272 0
0.050000000000000003 0.069999947563493689 0
0.050000000000000003 0.089999947554521884 0
0.050000000000000003 0.10999994755473991 0
0.050000000000000003 0.12999994755474206 0
0.050000000000000003 0.14999994755474205 0
0.050000000000000003 0.16999994755474207 0
0.050000000000000003 0.18999994755474203 0
0.050000000000000003 0.20999994755474205 0
0.050000000000000003 0.22999994755474207 0
0.050000000000000003 0.24999994755474209 0
0.050000000000000003 0.2699999475547421 0
0.050000000000000003 0.28999994755474212 0
0.050000000000000003 0.30999994755474214 0
0.050000000000000003 0.3299999475547421 0
0.050000000000000003 0.34999994755474212 0
0.050000000000000003 0.36999994755474214 0
0.050000000000000003 0.38999994755474215 0
0.050000000000000003 0.40999994755474217 0
0.050000000000000003 0.42999994755474213 0
0.050000000000000003 0.44999994755474215 0
0.050000000000000003 0.46999994755473995 0
0.050000000000000003 0.48999994755452198 0
0.050000000000000003 0.50999994756349376 0
0.050000000000000003 0.52999994881026069 0
0.070000000000000007 0.049999947563497849 0
0.070000000000000007 0.06999994607628246 0
0.070000000000000007 0.089999946060965355 0
0.070000000000000007 0.10999994606085992 0
0.070000000000000007 0.12999994606085966 0
0.070000000000000007 0.14999994606085967 0
0.070000000000000007 0.16999994606085969 0
0.070000000000000007 0.18999994606085965 0
0.070000000000000007 0.20999994606085967 0
0.070000000000000007 0.22999994606085969 0
0.070000000000000007 0.24999994606085971 0
0.070000000000000007 0.26999994606085959 0
0.070000000000000007 0.2899999460608596 0
0.070000000000000007 0.30999994606085962 0
0.070000000000000007 0.32999994606085958 0
0.070000000000000007 0.3499999460608596 0
0.070000000000000007 0.36999994606085962 0
0.070000000000000007 0.38999994606085964 0
0.070000000000000007 0.40999994606085965 0
0.070000000000000007 0.42999994606085962 0
0.070000000000000007 0.44999994606085963 0
0.070000000000000007 0.46999994606085993 0
0.070000000000000007 0.48999994606096531 0
0.070000000000000007 0.50999994607628263 0
0.070000000000000007 0.52999994756348978 0
0.090000000000000011 0.04999994755452606 0
0.090000000000000011 0.069999946060965379 0
0.090000000000000011 0.089999946045233259 0
0.090000000000000011 0.10999994604511749 0
0.090000000000000011 0.12999994604511686 0
0.090000000000000011 0.14999994604511688 0
0.090000000000000011 0.1699999460451169 0
0.090000000000000011 0.18999994604511686 0
0.090000000000000011 0.20999994604511688 0
0.090000000000000011 0.22999994604511689 0
0.090000000000000011 0.24999994604511691 0
0.090000000000000011 0.2699999460451169 0
0.090000000000000011 0.28999994604511692 0
0.090000000000000011 0.30999994604511694 0
0.090000000000000011 0.3299999460451169 0
0.090000000000000011 0.34999994604511692 0
0.090000000000000011 0.36999994604511693 0
0.090000000000000011 0.38999994604511695 0
0.090000000000000011 0.40999994604511697 0
0.090000000000000011 0.42999994604511693 0
0.090000000000000011 0.44999994604511695 0
0.090000000000000011 0.46999994604511758 0
0.090000000000000011 0.48999994604523334 0
0.090000000000000011 0.50999994606096566 0
0.090000000000000011 0.52999994755451785 0
0.11000000000000001 0.04999994755474408 0
0.11000000000000001 0.069999946060859908 0
0.11000000000000001 0.08999994604511749 0
0.11000000000000001 0.10999994604500121 0
0.11000000000000001 0.12999994604500062 0
0.11000000000000001 0.14999994604500064 0
0.11000000000000001 0.16999994604500065 0
0.11000000000000001 0.18999994604500062 0
0.11000000000000001 0.20999994604500063 0
0.11000000000000001 0.22999994604500065 0
0.11000000000000001 0.24999994604500067 0
0.11000000000000001 0.26999994604500061 0
0.11000000000000001 0.28999994604500062 0
0.11000000000000001 0.30999994604500064 0
0.11000000000000001 0.3299999460450006 0
0.11000000000000001 0.34999994604500062 0
0.11000000000000001 0.36999994604500064 0
0.11000000000000001 0.38999994604500066 0
0.11000000000000001 0.40999994604500067 0
0.11000000000000001 0.42999994604500064 0
0.11000000000000001 0.44999994604500065 0
0.11000000000000001 0.46999994604500128 0
0.11000000000000001 0.48999994604511754 0
0.11000000000000001 0.50999994606086008 0
0.11000000000000001 0.52999994755473578 0
0.13 0.049999947554746231 0
0.13 0.0699999460608597 0
0.13 0.089999946045116894 0
0.13 0.10999994604500062 0
0.13 0.12999994604499998 0
0.13 0.149999946045 0
0.13 0.16999994604500002 0
0.13 0.18999994604499998 0
0.13 0.209999946045 0
0.13 0.22999994604500001 0
0.13 0.24999994604500003 0
0.13 0.26999994604499999 0
0.13 0.28999994604500001 0
0.13 0.30999994604500003 0
0.13 0.32999994604499999 0
0.13 0.34999994604500001 0
0.13 0.36999994604500003 0
0.13 0.38999994604500005 0
0.13 0.40999994604500006 0
0.13 0.42999994604500003 0
0.13 0.44999994604500004 0
0.13 0.46999994604500067 0
0.13 0.48999994604511693 0
0.13 0.50999994606085974 0
0.13 0.529999947554738 0
0.15000000000000002 0.049999947554746196 0
0.15000000000000002 0.0699999460608597 0
0.15000000000000002 0.089999946045116894 0
0.15000000000000002 0.10999994604500062 0
0.15000000000000002 0.12999994604499998 0
0.15000000000000002 0.149999946045 0
0.15000000000000002 0.16999994604500002 0
0.15000000000000002 0.18999994604499998 0
0.15000000000000002 0.209999946045 0
0.15000000000000002 0.22999994604500001 0
0.15000000000000002 0.24999994604500003 0
0.15000000000000002 0.26999994604499994 0
0.15000000000000002 0.28999994604499996 0
0.15000000000000002 0.30999994604499997 0
0.15000000000000002 0.32999994604499994 0
0.15000000000000002 0.34999994604499995 0
0.15000000000000002 0.36999994604499997 0
0.15000000000000002 0.38999994604499999 0
0.15000000000000002 0.40999994604500001 0
0.15000000000000002 0.42999994604499997 0
0.15000000000000002 0.44999994604500004 0
0.15000000000000002 0.46999994604500067 0
0.15000000000000002 0.48999994604511693 0
0.15000000000000002 0.50999994606085974 0
0.15000000000000002 0.529999947554738 0
0.17000000000000004 0.049999947554746196 0
0.17000000000000004 0.0699999460608597 0
0.17000000000000004 0.089999946045116894 0
0.17000000000000004 0.10999994604500062 0
0.17000000000000004 0.12999994604499998 0
0.17000000000000004 0.149999946045 0
0.17000000000000004 0.16999994604500002 0
0.17000000000000004 0.18999994604499998 0
0.17000000000000004 0.209999946045 0
0.17000000000000004 0.22999994604500001 0
0.17000000000000004 0.24999994604500003 0
0.17000000000000004 0.26999994604499994 0
0.17000000000000004 0.28999994604499996 0
0.17000000000000004 0.30999994604499997 0
0.17000000000000004 0.32999994604499994 0
0.17000000000000004 0.34999994604499995 0
0.17000000000000004 0.36999994604499997 0
0.17000000000000004 0.38999994604499999 0
0.17000000000000004 0.40999994604500001 0
0.17000000000000004 0.42999994604499997 0
0.17000000000000004 0.44999994604500004 0
0.17000000000000004 0.46999994604500067 0
0.17000000000000004 0.48999994604511693 0
0.17000000000000004 0.50999994606085974 0
0.17000000000000004 0.529999947554738 0
0.19 0.049999947554746196 0
0.19 0.0699999460608597 0
0.19 0.089999946045116894 0
0.19 0.10999994604500062 0
0.19 0.12999994604499998 0
0.19 0.149999946045 0
0.19 0.16999994604500002 0
0.19 0.18999994604499998 0
0.19 0.209999946045 0
0.19 0.22999994604500001 0
0.19 0.24999994604500003 0
0.19 0.26999994604499994 0
0.19 0.28999994604499996 0
0.19 0.30999994604499997 0
0.19 0.32999994604499994 0
0.19 0.34999994604499995 0
0.19 0.36999994604499997 0
0.19 0.38999994604499999 0
0.19 0.40999994604500001 0
0.19 0.42999994604499997 0
0.19 0.44999994604500004 0
0.19 0.46999994604500067 0
0.19 0.48999994604511693 0
0.19 0.50999994606085974 0
0.19 0.529999947554738 0
0.21000000000000002 0.049999947554746196 0
0.21000000000000002 0.0699999460608597 0
0.21000000000000002 0.089999946045116894 0
0.21000000000000002 0.10999994604500062 0
0.21000000000000002 0.12999994604499998 0
0.21000000000000002 0.149999946045 0
0.21000000000000002 0.16999994604500002 0
0.21000000000000002 0.18999994604499998 0
0.21000000000000002 0.209999946045 0
0.21000000000000002 0.22999994604500001 0
0.21000000000000002 0.24999994604500003 0
0.21000000000000002 0.26999994604499994 0
0.21000000000000002 0.28999994604499996 0
0.21000000000000002 0.30999994604499997 0
0.21000000000000002 0.32999994604499994 0
0.21000000000000002 0.34999994604499995 0
0.21000000000000002 0.36999994604499997 0
0.21000000000000002 0.38999994604499999 0
0.21000000000000002 0.40999994604500001 0
0.21000000000000002 0.42999994604499997 0
0.21000000000000002 0.44999994604500004 0
0.21000000000000002 0.46999994604500067 0
0.21000000000000002 0.48999994604511693 0
0.21000000000000002 0.50999994606085974 0
0.21000000000000002 0.529999947554738 0
0.23000000000000004 0.049999947554746196 0
0.23000000000000004 0.0699999460608597 0
0.23000000000000004 0.089999946045116894 0
0.23000000000000004 0.10999994604500062 0
0.23000000000000004 0.12999994604499998 0
0.23000000000000004 0.149999946045 0
0.23000000000000004 0.16999994604500002 0
0.23000000000000004 0.18999994604499998 0
0.23000000000000004 0.209999946045 0
0.23000000000000004 0.22999994604500001 0
0.23000000000000004 0.24999994604500003 0
0.23000000000000004 0.26999994604499994 0
0.23000000000000004 0.28999994604499996 0
0.23000000000000004 0.30999994604499997 0
0.23000000000000004 0.32999994604499994 0
0.23000000000000004 0.34999994604499995 0
0.23000000000000004 0.36999994604499997 0
0.23000000000000004 0.38999994604499999 0
0.23000000000000004 0.40999994604500001 0
0.23000000000000004 0.42999994604499997 0
0.23000000000000004 0.44999994604500004 0
0.23000000000000004 0.46999994604500067 0
0.23000000000000004 0.48999994604511693 0
0.23000000000000004 0.50999994606085974 0
0.23000000000000004 0.529999947554738 0
0.25000000000000006 0.049999947554746196 0
0.25000000000000006 0.0699999460608597 0
0.25000000000000006 0.089999946045116894 0
0.25000000000000006 0.10999994604500062 0
0.25000000000000006 0.12999994604499998 0
0.25000000000000006 0.149999946045 0
0.25000000000000006 0.16999994604500002 0
0.25000000000000006 0.18999994604499998 0
0.25000000000000006 0.209999946045 0
0.25000000000000006 0.22999994604500001 0
0.25000000000000006 0.24999994604500003 0
0.25000000000000006 0.26999994604499994 0
0.25000000000000006 0.28999994604499996 0
0.25000000000000006 0.30999994604499997 0
0.25000000000000006 0.32999994604499994 0
0.25000000000000006 0.34999994604499995 0
0.25000000000000006 0.36999994604499997 0
0.25000000000000006 0.38999994604499999 0
0.25000000000000006 0.40999994604500001 0
0.25000000000000006 0.42999994604499997 0
0.25000000000000006 0.44999994604500004 0
0.25000000000000006 0.46999994604500067 0
0.25000000000000006 0.48999994604511693 0
0.25000000000000006 0.50999994606085974 0
0.25000000000000006 0.529999947554738 0
0.27000000000000002 0.049999947554746259 0
0.27000000000000002 0.0699999460608597 0
0.27000000000000002 0.089999946045116894 0
0.27000000000000002 0.10999994604500062 0
0.27000000000000002 0.12999994604499998 0
0.27000000000000002 0.149999946045 0
0.27000000000000002 0.16999994604500002 0
0.27000000000000002 0.18999994604499998 0
0.27000000000000002 0.209999946045 0
0.27000000000000002 0.22999994604500001 0
0.27000000000000002 0.24999994604500003 0
0.27000000000000002 0.26999994604499994 0
0.27000000000000002 0.28999994604499996 0
0.27000000000000002 0.30999994604499997 0
0.27000000000000002 0.32999994604499994 0
0.27000000000000002 0.34999994604499995 0
0.27000000000000002 0.36999994604499997 0
0.27000000000000002 0.38999994604499999 0
0.27000000000000002 0.40999994604500001 0
0.27000000000000002 0.42999994604499997 0
0.27000000000000002 0.44999994604500004 0
0.27000000000000002 0.46999994604500067 0
0.27000000000000002 0.48999994604511693 0
0.27000000000000002 0.50999994606085985 0
0.27000000000000002 0.52999994755473812 0
0.29000000000000004 0.04999994755474501 0
0.29000000000000004 0.069999946060861087 0
0.29000000000000004 0.089999946045117282 0
0.29000000000000004 0.10999994604500062 0
0.29000000000000004 0.12999994604499998 0
0.29000000000000004 0.149999946045 0
0.29000000000000004 0.16999994604500002 0
0.29000000000000004 0.18999994604499998 0
0.29000000000000004 0.209999946045 0
0.29000000000000004 0.22999994604500001 0
0.29000000000000004 0.24999994604500003 0
0.29000000000000004 0.26999994604499994 0
0.29000000000000004 0.28999994604499996 0
0.29000000000000004 0.30999994604499997 0
0.29000000000000004 0.32999994604499994 0
0.29000000000000004 0.34999994604499995 0
0.29000000000000004 0.36999994604499997 0
0.29000000000000004 0.38999994604499999 0
0.29000000000000004 0.40999994604500001 0
0.29000000000000004 0.42999994604499997 0
0.29000000000000004 0.44999994604500004 0
0.29000000000000004 0.46999994604500067 0
0.29000000000000004 0.48999994604511737 0
0.29000000000000004 0.50999994606086108 0
0.29000000000000004 0.52999994755473667 0
0.31000000000000005 0.049999947554315624 0
0.31000000000000005 0.069999946061203175 0
0.31000000000000005 0.08999994604512121 0
0.31000000000000005 0.10999994604500064 0
0.31000000000000005 0.12999994604499998 0
0.31000000000000005 0.149999946045 0
0.31000000000000005 0.16999994604500002 0
0.31000000000000005 0.18999994604499998 0
0.31000000000000005 0.209999946045 0
0.31000000000000005 0.22999994604500001 0
0.31000000000000005 0.24999994604500003 0
0.31000000000000005 0.26999994604499994 0
0.31000000000000005 0.28999994604499996 0
0.31000000000000005 0.30999994604499997 0
0.31000000000000005 0.32999994604499994 0
0.31000000000000005 0.34999994604499995 0
0.31000000000000005 0.36999994604499997 0
0.31000000000000005 0.38999994604499999 0
0.31000000000000005 0.40999994604500001 0
0.31000000000000005 0.42999994604499997 0
0.31000000000000005 0.44999994604500004 0
0.31000000000000005 0.46999994604500067 0
0.31000000000000005 0.48999994604512115 0
0.31000000000000005 0.50999994606120325 0
0.31000000000000005 0.52999994755430746 0
0.33000000000000002 0.049999947554493628 0
0.33000000000000002 0.069999946060378807 0
0.33000000000000002 0.089999946045113285 0
0.33000000000000002 0.10999994604500062 0
0.33000000000000002 0.12999994604499998 0
0.33000000000000002 0.149999946045 0
0.33000000000000002 0.16999994604500002 0
0.33000000000000002 0.18999994604499998 0
0.33000000000000002 0.209999946045 0
0.33000000000000002 0.22999994604500001 0
0.33000000000000002 0.24999994604500003 0
0.33000000000000002 0.26999994604499994 0
0.33000000000000002 0.28999994604499996 0
0.33000000000000002 0.30999994604499997 0
0.33000000000000002 0.32999994604499994 0
0.33000000000000002 0.34999994604499995 0
0.33000000000000002 0.36999994604499997 0
0.33000000000000002 0.38999994604499999 0
0.33000000000000002 0.40999994604500001 0
0.33000000000000002 0.42999994604499997 0
0.33000000000000002 0.44999994604500004 0
0.33000000000000002 0.46999994604500062 0
0.33000000000000002 0.48999994604511332 0
0.33000000000000002 0.50999994606037902 0
0.33000000000000002 0.52999994755448532 0
-0.009999999999999995 0.030000000000000002 0
0.010000000000000005 0.030000000000000002 0
0.030000000000000006 0.030000000000000002 0
0.050000000000000003 0.030000000000000002 0
0.070000000000000007 0.030000000000000002 0
0.090000000000000011 0.030000000000000002 0
0.11 0.030000000000000002 0
0.13 0.030000000000000002 0
0.15000000000000002 0.030000000000000002 0
0.16999999999999998 0.030000000000000002 0
0.19 0.030000000000000002 0
0.21000000000000002 0.030000000000000002 0
0.22999999999999998 0.030000000000000002 0
0.25 0.030000000000000002 0
0.27000000000000002 0.030000000000000002 0
0.28999999999999998 0.030000000000000002 0
0.31 0.030000000000000002 0
0.33000000000000002 0.030000000000000002 0
0.34999999999999998 0.030000000000000002 0
0.37 0.030000000000000002 0
0.39000000000000001 0.030000000000000002 0
-0.009999999999999995 0.55000000000000004 0
0.010000000000000005 0.55000000000000004 0
0.030000000000000006 0.55000000000000004 0
0.050000000000000003 0.55000000000000004 0
0.070000000000000007 0.55000000000000004 0
0.090000000000000011 0.55000000000000004 0
0.11 0.55000000000000004 0
0.13 0.55000000000000004 0
0.15000000000000002 0.55000000000000004 0
0.16999999999999998 0.55000000000000004 0
0.19 0.55000000000000004 0
0.21000000000000002 0.55000000000000004 0
0.22999999999999998 0.55000000000000004 0
0.25 0.55000000000000004 0
0.27000000000000002 0.55000000000000004 0
0.28999999999999998 0.55000000000000004 0
0.31 0.55000000000000004 0
0.33000000000000002 0.55000000000000004 0
0.34999999999999998 0.55000000000000004 0
0.37 0.55000000000000004 0
0.39000000000000001 0.55000000000000004 0
-0.009999999999999995 0.010000000000000002 0
0.010000000000000005 0.010000000000000002 0
0.030000000000000006 0.010000000000000002 0
0.050000000000000003 0.010000000000000002 0
0.070000000000000007 0.010000000000000002 0
0.090000000000000011 0.010000000000000002 0
0.11 0.010000000000000002 0
0.13 0.010000000000000002 0
0.15000000000000002 0.010000000000000002 0
0.16999999999999998 0.010000000000000002 0
0.19 0.010000000000000002 0
0.21000000000000002 0.010000000000000002 0
0.22999999999999998 0.010000000000000002 0
0.25 0.010000000000000002 0
0.27000000000000002 0.010000000000000002 0
0.28999999999999998 0.010000000000000002 0
0.31 0.010000000000000002 0
0.33000000000000002 0.010000000000000002 0
0.34999999999999998 0.010000000000000002 0
0.37 0.010000000000000002 0
0.39000000000000001 0.010000000000000002 0
-0.009999999999999995 0.57000000000000006 0
0.010000000000000005 0.57000000000000006 0
0.030000000000000006 0.57000000000000006 0
0.050000000000000003 0.57000000000000006 0
0.070000000000000007 0.57000000000000006 0
0.090000000000000011 0.57000000000000006 0
0.11 0.57000000000000006 0
0.13 0.57000000000000006 0
0.15000000000000002 0.57000000000000006 0
0.16999999999999998 0.57000000000000006 0
0.19 0.57000000000000006 0
0.21000000000000002 0.57000000000000006 0
0.22999999999999998 0.57000000000000006 0
0.25 0.57000000000000006 0
0.27000000000000002 0.57000000000000006 0
0.28999999999999998 0.57000000000000006 0
0.31 0.57000000000000006 0
0.33000000000000002 0.57000000000000006 0
0.34999999999999998 0.57000000000000006 0
0.37 0.57000000000000006 0
0.39000000000000001 0.57000000000000006 0
-0.009999999999999995 -0.009999999999999995 0
0.010000000000000005 -0.009999999999999995 0
0.030000000000000006 -0.009999999999999995 0
0.050000000000000003 -0.009999999999999995 0
0.070000000000000007 -0.009999999999999995 0
0.090000000000000011 -0.009999999999999995 0
0.11 -0.009999999999999995 0
0.13 -0.009999999999999995 0
0.15000000000000002 -0.009999999999999995 0
0.16999999999999998 -0.009999999999999995 0
0.19 -0.009999999999999995 0
0.21000000000000002 -0.009999999999999995 0
0.22999999999999998 -0.009999999999999995 0
0.25 -0.009999999999999995 0
0.27000000000000002 -0.009999999999999995 0
0.28999999999999998 -0.009999999999999995 0
0.31 -0.009999999999999995 0
0.33000000000000002 -0.009999999999999995 0
0.34999999999999998 -0.009999999999999995 0
0.37 -0.009999999999999995 0
0.39000000000000001 -0.009999999999999995 0
-0.009999999999999995 0.59000000000000008 0
0.010000000000000005 0.59000000000000008 0
0.030000000000000006 0.59000000000000008 0
0.050000000000000003 0.59000000000000008 0
0.070000000000000007 0.59000000000000008 0
0.090000000000000011 0.59000000000000008 0
0.11 0.59000000000000008 0
0.13 0.59000000000000008 0
0.15000000000000002 0.59000000000000008 0
0.16999999999999998 0.59000000000000008 0
0.19 0.59000000000000008 0
0.21000000000000002 0.59000000000000008 0
0.22999999999999998 0.59000000000000008 0
0.25 0.59000000000000008 0
0.27000000000000002 0.59000000000000008 0
0.28999999999999998 0.59000000000000008 0
0.31 0.59000000000000008 0
0.33000000000000002 0.59000000000000008 0
0.34999999999999998 0.59000000000000008 0
0.37 0.59000000000000008 0
0.39000000000000001 0.59000000000000008 0
0.030000000000000002 0.050000000000000003 0
0.030000000000000002 0.070000000000000007 0
0.030000000000000002 0.090000000000000011 0
0.030000000000000002 0.11000000000000001 0
0.030000000000000002 0.13 0
0.030000000000000002 0.15000000000000002 0
0.030000000000000002 0.17000000000000004 0
0.030000000000000002 0.19 0
0.030000000000000002 0.21000000000000002 0
0.030000000000000002 0.23000000000000004 0
0.030000000000000002 0.25000000000000006 0
0.030000000000000002 0.27000000000000002 0
0.030000000000000002 0.29000000000000004 0
0.030000000000000002 0.31000000000000005 0
0.030000000000000002 0.33000000000000002 0
0.030000000000000002 0.35000000000000003 0
0.030000000000000002 0.37000000000000005 0
0.030000000000000002 0.39000000000000007 0
0.030000000000000002 0.41000000000000009 0
0.030000000000000002 0.43000000000000005 0
0.030000000000000002 0.45000000000000007 0
0.030000000000000002 0.47000000000000008 0
0.030000000000000002 0.49000000000000005 0
0.030000000000000002 0.51000000000000012 0
0.030000000000000002 0.53000000000000014 0
0.37 0.050000000000000003 0
0.37 0.070000000000000007 0
0.37 0.090000000000000011 0
0.37 0.11000000000000001 0
0.37 0.13 0
0.37 0.15000000000000002 0
0.37 0.17000000000000004 0
0.37 0.19 0
0.37 0.21000000000000002 0
0.37 0.23000000000000004 0
0.37 0.25000000000000006 0
0.37 0.27000000000000002 0
0.37 0.29000000000000004 0
0.37 0.31000000000000005 0
0.37 0.33000000000000002 0
0.37 0.35000000000000003 0
0.37 0.37000000000000005 0
0.37 0.39000000000000007 0
0.37 0.41000000000000009 0
0.37 0.43000000000000005 0
0.37 0.45000000000000007 0
0.37 0.47000000000000008 0
0.37 0.49000000000000005 0
0.37 0.51000000000000012 0
0.37 0.53000000000000014 0
0.010000000000000002 0.050000000000000003 0
0.010000000000000002 0.070000000000000007 0
0.010000000000000002 0.090000000000000011 0
0.010000000000000002 0.11000000000000001 0
0.010000000000000002 0.13 0
0.010000000000000002 0.15000000000000002 0
0.010000000000000002 0.17000000000000004 0
0.010000000000000002 0.19 0
0.010000000000000002 0.21000000000000002 0
0.010000000000000002 0.23000000000000004 0
0.010000000000000002 0.25000000000000006 0
0.010000000000000002 0.27000000000000002 0
0.010000000000000002 0.29000000000000004 0
0.010000000000000002 0.31000000000000005 0
0.010000000000000002 0.33000000000000002 0
0.010000000000000002 0.35000000000000003 0
0.010000000000000002 0.37000000000000005 0
0.010000000000000002 0.39000000000000007 0
0.010000000000000002 0.41000000000000009 0
0.010000000000000002 0.43000000000000005 0
0.010000000000000002 0.45000000000000007 0
0.010000000000000002 0.47000000000000008 0
0.010000000000000002 0.49000000000000005 0
0.010000000000000002 0.51000000000000012 0
0.010000000000000002 0.53000000000000014 0
0.38999999999999996 0.050000000000000003 0
0.38999999999999996 0.070000000000000007 0
0.38999999999999996 0.090000000000000011 0
0.38999999999999996 0.11000000000000001 0
0.38999999999999996 0.13 0
0.38999999999999996 0.15000000000000002 0
0.38999999999999996 0.17000000000000004 0
0.38999999999999996 0.19 0
0.38999999999999996 0.21000000000000002 0
0.38999999999999996 0.23000000000000004 0
0.38999999999999996 0.25000000000000006 0
0.38999999999999996 0.27000000000000002 0
0.38999999999999996 0.29000000000000004 0
0.38999999999999996 0.31000000000000005 0
0.38999999999999996 0.33000000000000002 0
0.38999999999999996 0.35000000000000003 0
0.38999999999999996 0.37000000000000005 0
0.38999999999999996 0.39000000000000007 0
0.38999999999999996 0.41000000000000009 0
0.38999999999999996 0.43000000000000005 0
0.38999999999999996 0.45000000000000007 0
0.38999999999999996 0.47000000000000008 0
0.38999999999999996 0.49000000000000005 0
0.38999999999999996 0.51000000000000012 0
0.38999999999999996 0.53000000000000014 0
-0.009999999999999995 0.050000000000000003 0
-0.009999999999999995 0.070000000000000007 0
-0.009999999999999995 0.090000000000000011 0
-0.009999999999999995 0.11000000000000001 0
-0.009999999999999995 0.13 0
-0.009999999999999995 0.15000000000000002 0
-0.009999999999999995 0.17000000000000004 0
-0.009999999999999995 0.19 0
-0.009999999999999995 0.21000000000000002 0
-0.009999999999999995 0.23000000000000004 0
-0.009999999999999995 0.25000000000000006 0
-0.009999999999999995 0.27000000000000002 0
-0.009999999999999995 0.29000000000000004 0
-0.009999999999999995 0.31000000000000005 0
-0.009999999999999995 0.33000000000000002 0
-0.009999999999999995 0.35000000000000003 0
-0.009999999999999995 0.37000000000000005 0
-0.009999999999999995 0.39000000000000007 0
-0.009999999999999995 0.41000000000000009 0
-0.009999999999999995 0.43000000000000005 0
-0.009999999999999995 0.45000000000000007 0
-0.009999999999999995 0.47000000000000008 0
-0.009999999999999995 0.49000000000000005 0
-0.009999999999999995 0.51000000000000012 0
-0.009999999999999995 0.53000000000000014 0
0.40999999999999998 0.050000000000000003 0
0.40999999999999998 0.070000000000000007 0
0.40999999999999998 0.090000000000000011 0
0.40999999999999998 0.11000000000000001 0
0.40999999999999998 0.13 0
0.40999999999999998 0.15000000000000002 0
0.40999999999999998 0.17000000000000004 0
0.40999999999999998 0.19 0
0.40999999999999998 0.21000000000000002 0
0.40999999999999998 0.23000000000000004 0
0.40999999999999998 0.25000000000000006 0
0.40999999999999998 0.27000000000000002 0
0.40999999999999998 0.29000000000000004 0
0.40999999999999998 0.31000000000000005 0
0.40999999999999998 0.33000000000000002 0
0.40999999999999998 0.35000000000000003 0
0.40999999999999998 0.37000000000000005 0
0.40999999999999998 0.39000000000000007 0
0.40999999999999998 0.41000000000000009 0
0.40999999999999998 0.43000000000000005 0
0.40999999999999998 0.45000000000000007 0
0.40999999999999998 0.47000000000000008 0
0.40999999999999998 0.49000000000000005 0
0.40999999999999998 0.51000000000000012 0
0.40999999999999998 0.53000000000000014 0
VERTICES 651 1302
1 0
1 1
1 2
1 3
1 4
1 5
1 6
1 7
1 8
1 9
1 10
1 11
1 12
1 13
1 14
1 15
1 16
1 17
1 18
1 19
1 20
1 21
1 22
1 23
1 24
1 25
1 26
1 27
1 28
1 29
1 30
1 31
1 32
1 33
1 34
1 35
1 36
1 37
1 38
1 39
1 40
1 41
1 42
1 43
1 44
1 45
1 46
1 47
1 48
1 49
1 50
1 51
1 52
1 53
1 54
1 55
1 56
1 57
1 58
1 59
1 60
1 61
1 62
1 63
1 64
1 65
1 66
1 67
1 68
1 69
1 70
1 71
1 72
1 73
1 74
1 75
1 76
1 77
1 78
1 79
1 80
1 81
1 82
1 83
1 84
1 85
1 86
1 87
1 88
1 89
1 90
1 91
1 92
1 93
1 94
1 95
1 96
1 97
1 98
1 99
1 100
1 101
1 102
1 103
1 104
1 105
1 106
1 107
1 108
1 109
1 110
1 111
1 112
1 113
1 114
1 115
1 116
1 117
1 118
1 119
1 120
1 121
1 122
1 123
1 124
1 125
1 126
1 127
1 128
1 129
1 130
1 131
1 132
1 133
1 134
1 135
1 136
1 137
1 138
1 139
1 140
1 141
1 142
1 143
1 144
1 145
1 146
1 147
1 148
1 149
1 150
1 151
1 152
1 153
1 154
1 155
1 156
1 157
1 158
1 159
1 160
1 161
1 162
1 163
1 164
1 165
1 166
1 167
1 168
1 169
1 170
1 171
1 172
1 173
1 174
1 175
1 176
1 177
1 178
1 179
1 180
1 181
1 182
1 183
1 184
1 185
1 186
1 187
1 188
1 189
1 190
1 191
1 192
1 193
1 194
1 195
1 196
1 197
1 198
1 199
1 200
1 201
1 202
1 203
1 204
1 205
1 206
1 207
1 208
1 209
1 210
1 211
1 212
1 213
1 214
1 215
1 216
1 217
1 218
1 219
1 220
1 221
1 222
1 223
1 224
1 225
1 226
1 227
1 228
1 229
1 230
1 231
1 232
1 233
1 234
1 235
1 236
1 237
1 238
1 239
1 240
1 241
1 242
1 243
1 244
1 245
1 246
1 247
1 248
1 249
1 250
1 251
1 252
1 253
1 254
1 255
1 256
1 257
1 258
1 259
1 260
1 261
1 262
1 263
1 264
1 265
1 266
1 267
1 268
1 269
1 270
1 271
1 272
1 273
1 274
1 275
1 276
1 277
1 278
1 279
1 280
1 281
1 282
1 283
1 284
1 285
1 286
1 287
1 288
1 289
1 290
1 291
1 292
1 293
1 294
1 295
1 296
1 297
1 298
1 299
1 300
1 301
1 302
1 303
1 304
1 305
1 306
1 307
1 308
1 309
1 310
1 311
1 312
1 313
1 314
1 315
1 316
1 317
1 318
1 319
1 320
1 321
1 322
1 323
1 324
1 325
1 326
1 327
1 328
1 329
1 330
1 331
1 332
1 333
1 334
1 335
1 336
1 337
1 338
1 339
1 340
1 341
1 342
1 343
1 344
1 345
1 346
1 347
1 348
1 349
1 350
1 351
1 352
1 353
1 354
1 355
1 356
1 357
1 358
1 359
1 360
1 361
1 362
1 363
1 364
1 365
1 366
1 367
1 368
1 369
1 370
1 371
1 372
1 373
1 374
1 375
1 376
1 377
1 378
1 379
1 380
1 381
1 382
1 383
1 384
1 385
1 386
1 387
1 388
1 389
1 390
1 391
1 392
1 393
1 394
1 395
1 396
1 397
1 398
1 399
1 400
1 401
1 402
1 403
1 404
1 405
1 406
1 407
1 408
1 409
1 410
1 411
1 412
1 413
1 414
1 415
1 416
1 417
1 418
1 419
1 420
1 421
1 422
1 423
1 424
1 425
1 426
1 427
1 428
1 429
1 430
1 431
1 432
1 433
1 434
1 435
1 436
1 437
1 438
1 439
1 440
1 441
1 442
1 443
1 444
1 445
1 446
1 447
1 448
1 449
1 450
1 451
1 452
1 453
1 454
1 455
1 456
1 457
1 458
1 459
1 460
1 461
1 462
1 463
1 464
1 465
1 466
1 467
1 468
1 469
1 470
1 471
1 472
1 473
1 474
1 475
1 476
1 477
1 478
1 479
1 480
1 481
1 482
1 483
1 484
1 485
1 486
1 487
1 488
1 489
1 490
1 491
1 492
1 493
1 494
1 495
1 496
1 497
1 498
1 499
1 500
1 501
1 502
1 503
1 504
1 505
1 506
1 507
1 508
1 509
1 510
1 511
1 512
1 513
1 514
1 515
1 516
1 517
1 518
1 519
1 520
1 521
1 522
1 523
1 524
1 525
1 526
1 527
1 528
1 529
1 530
1 531
1 532
1 533
1 534
1 535
1 536
1 537
1 538
1 539
1 540
1 541
1 542
1 543
1 544
1 545
1 546
1 547
1 548
1 549
1 550
1 551
1 552
1 553
1 554
1 555
1 556
1 557
1 558
1 559
1 560
1 561
1 562
1 563
1 564
1 565
1 566
1 567
1 568
1 569
1 570
1 571
1 572
1 573
1 574
1 575
1 576
1 577
1 578
1 579
1 580
1 581
1 582
1 583
1 584
1 585
1 586
1 587
1 588
1 589
1 590
1 591
1 592
1 593
1 594
1 595
1 596
1 597
1 598
1 599
1 600
1 601
1 602
1 603
1 604
1 605
1 606
1 607
1 608
1 609
1 610
1 611
1 612
1 613
1 614
1 615
1 616
1 617
1 618
1 619
1 620
1 621
1 622
1 623
1 624
1 625
1 626
1 627
1 628
1 629
1 630
1 631
1 632
1 633
1 634
1 635
1 636
1 637
1 638
1 639
1 640
1 641
1 642
1 643
1 644
1 645
1 646
1 647
1 648
1 649
1 650
POINT_DATA 651
SCALARS is_boundary int 1
LOOKUP_TABLE default
0
0
0
0
0
0
0
0
0
0
0
0
0
0
0
0
0
0
0
0
0
0
0
0
0
0
0
0
0
0
0
0
0
0
0
0
0
0
0
0
0
0
0
0
0
0
0
0
0
0
0
0
0
0
0
0
0
0
0
0
0
0
0
0
0
0
0
0
0
0
0
0
0
0
0
0
0
0
0
0
0
0
0
0
0
0
0
0
0
0
0
0
0
0
0
0
0
0
0
0
0
0
0
0
0
0
0
0
0
0
0
0
0
0
0
0
0
0
0
0
0
0
0
0
0
0
0
0
0
0
0
0
0
0
0
0
0
0
0
0
0
0
0
0
0
0
0
0
0
0
0
0
0
0
0
0
0
0
0
0
0
0
0
0
0
0
0
0
0
0
0
0
0
0
0
0
0
0
0
0
0
0
0
0
0
0
0
0
0
0
0
0
0
0
0
0
0
0
0
0
0
0
0
0
0
0
0
0
0
0
0
0
0
0
0
0
0
0
0
0
0
0
0
0
0
0
0
0
0
0
0
0
0
0
0
0
0
0
0
0
0
0
0
0
0
0
0
0
0
0
0
0
0
0
0
0
0
0
0
0
0
0
0
0
0
0
0
0
0
0
0
0
0
0
0
0
0
0
0
0
0
0
0
0
0
0
0
0
0
0
0
0
0
0
0
0
0
0
0
0
0
0
0
0
0
0
0
0
0
0
0
0
0
0
0
0
0
0
0
0
0
0
0
0
0
0
0
0
0
0
0
0
0
0
0
0
0
0
0
0
0
0
0
0
0
0
0
0
0
0
0
0
0
0
0
0
0
0
0
0
0
0
0
0
0
0
0
0
0
0
0
0
0
0
0
1
1
1
1
1
1
1
1
1
1
1
1
1
1
1
1
1
1
1
1
1
1
1
1
1
1
1
1
1
1
1
1
1
1
1
1
1
1
1
1
1
1
1
1
1
1
1
1
1
1
1
1
1
1
1
1
1
1
1
1
1
1
1
1
1
1
1
1
1
1
1
1
1
1
1
1
1
1
1
1
1
1
1
1
1
1
1
1
1
1
1
1
1
1
1
1
1
1
1
1
1
1
1
1
1
1
1
1
1
1
1
1
1
1
1
1
1
1
1
1
1
1
1
1
1
1
1
1
1
1
1
1
1
1
1
1
1
1
1
1
1
1
1
1
1
1
1
1
1
1
1
1
1
1
1
1
1
1
1
1
1
1
1
1
1
1
1
1
1
1
1
1
1
1
1
1
1
1
1
1
1
1
1
1
1
1
1
1
1
1
1
1
1
1
1
1
1
1
1
1
1
1
1
1
1
1
1
1
1
1
1
1
1
1
1
1
1
1
1
1
1
1
1
1
1
1
1
1
1
1
1
1
1
1
1
1
1
1
1
1
1
1
1
1
1
1
1
1
1
1
1
1
1
1
1
1
1
1
1
1
1
1
1
1
1
1
1
1
1
1
1
1
1
1
1
1
SCALARS rho float 1
LOOKUP_TABLE default
1000.0011163184288
1000.0000276063486
1000.0000002128174
999.99999999660236
999.9999999998812
999.99999999991633
999.99999999991724
999.99999999991724
999.99999999991587
999.99999999991587
999.99999999991655
999.99999999991655
999.99999999991587
999.99999999991724
999.99999999991724
999.99999999991587
999.99999999991587
999.99999999991587
999.99999999991724
999.99999999991724
999.99999999995248
1000.0000000032312
999.99999978701453
999.99997239363336
999.9988836869195
1000.0013584947715
1000.0000370303289
1000.0000003644675
1000.0000000013717
999.99999999999773
999.99999999999909
1000.0000000000005
1000.0000000000005
999.99999999999909
999.99999999999909
1000.0000000000014
1000.0000000000014
999.99999999999909
1000.0000000000005
1000.0000000000005
999.99999999999909
999.99999999999909
999.99999999999909
1000.0000000000005
1000.0000000000005
1000.0000000000009
999.99999999862871
999.99999963552887
999.9999629698757
999.99864151209533
1000.0013649043417
1000.0000381671116
1000.0000003993275
1000.0000000029031
1000.0000000000136
999.99999999999886
1000.0000000000005
1000.0000000000005
999.99999999999909
999.99999999999909
1000.0000000000005
1000.0000000000005
999.99999999999909
1000.0000000000005
1000.0000000000002
999.99999999999909
999.99999999999909
999.99999999999909
1000.0000000000005
1000.0000000000005
999.99999999998499
999.99999999709689
999.99999960066771
999.99996183310259
999.99863510253181
1000.0013649694607
1000.0000382007574
1000.0000004012722
1000.0000000029559
1000.0000000000152
999.99999999999932
1000.0000000000007
1000.0000000000009
999.99999999999955
999.99999999999955
1000.0000000000011
1000.0000000000011
999.99999999999932
1000.0000000000007
1000.0000000000007
999.99999999999955
999.99999999999932
999.99999999999932
1000.0000000000007
1000.0000000000007
999.99999999998386
999.99999999704437
999.99999959872594
999.99996179945924
999.99863503741108
1000.0013649699001
1000.0000382021838
1000.0000004013232
1000.0000000029584
1000.0000000000155
999.99999999999909
1000.0000000000005
1000.0000000000005
999.99999999999909
999.99999999999909
1000.0000000000009
1000.0000000000009
999.99999999999909
1000.0000000000005
1000.0000000000005
999.99999999999909
999.99999999999909
999.99999999999909
1000.0000000000005
1000.0000000000002
999.9999999999834
999.9999999970421
999.9999995986766
999.99996179803111
999.99863503696861
1000.0013649699005
1000.0000382021938
1000.0000004013241
1000.0000000029577
1000.0000000000148
999.99999999999841
999.99999999999977
999.99999999999977
999.99999999999841
999.99999999999841
1000.0000000000009
1000.0000000000009
999.99999999999841
999.99999999999977
999.99999999999977
999.99999999999841
999.99999999999841
999.99999999999841
999.99999999999977
999.99999999999864
999.99999999998181
999.99999999704141
999.99999959867478
999.9999617980186
999.99863503696679
1000.0013649699016
1000.0000382021951
1000.0000004013255
1000.000000002959
1000.0000000000164
999.99999999999977
1000.0000000000011
1000.0000000000011
999.99999999999977
999.99999999999977
1000.0000000000027
1000.0000000000025
999.99999999999977
1000.0000000000011
1000.0000000000011
999.99999999999977
999.99999999999977
999.99999999999977
1000.0000000000011
999.99999999999977
999.99999999998295
999.99999999704278
999.99999959867614
999.99996179801997
999.99863503696793
1000.0013649699014
1000.0000382021951
1000.0000004013255
1000.0000000029593
1000.0000000000164
999.99999999999977
1000.0000000000011
1000.0000000000011
999.99999999999977
999.99999999999977
1000.0000000000025
1000.0000000000025
999.99999999999977
1000.0000000000011
1000.0000000000011
999.99999999999977
999.99999999999977
999.99999999999977
1000.0000000000011
999.99999999999977
999.99999999998295
999.99999999704278
999.99999959867614
999.99996179801997
999.9986350369677
1000.0013649699005
1000.0000382021938
1000.0000004013241
1000.0000000029577
1000.0000000000148
999.99999999999841
999.99999999999977
999.99999999999977
999.99999999999841
999.99999999999841
1000.0000000000011
1000.0000000000011
999.99999999999841
999.99999999999977
999.99999999999977
999.99999999999841
999.99999999999841
999.99999999999841
999.99999999999977
999.99999999999841
999.99999999998158
999.99999999704119
999.99999959867478
999.9999617980186
999.99863503696679
1000.0013649699005
1000.0000382021938
1000.0000004013241
1000.0000000029577
1000.0000000000148
999.99999999999841
999.99999999999977
999.99999999999977
999.99999999999841
999.99999999999841
1000.0000000000011
1000.0000000000011
999.99999999999841
999.99999999999977
999.99999999999977
999.99999999999841
999.99999999999841
999.99999999999841
999.99999999999977
999.99999999999841
999.99999999998136
999.99999999704141
999.99999959867478
999.9999617980186
999.99863503696679
1000.0013649699014
1000.0000382021954
1000.0000004013255
1000.000000002959
1000.0000000000164
999.99999999999977
1000.0000000000011
1000.0000000000011
840.75263483605863
840.75263483605875
840.75263483606113
863.58421161202125
999.99999999999977
1000.0000000000011
1000.0000000000011
999.99999999999977
999.99999999999977
999.99999999999977
1000.0000000000011
999.99999999999977
999.99999999998272
999.99999999704278
999.99999959867569
999.99996179801951
999.99863503696815
1000.0013649698959
1000.0000382021897
1000.0000004013311
1000.0000000029609
1000.0000000000161
999.99999999999977
1000.0000000000011
886.41578838798068
999.99999999999977
999.99999999999977
1000.0000000000025
1000.0000000000025
999.99999999999977
1000.0000000000011
1000.0000000000011
999.99999999999977
999.99999999999977
999.99999999999977
1000.0000000000011
999.99999999999977
999.99999999998295
999.99999999704096
999.99999959866864
999.99996179802542
999.99863503697543
1000.001364968457
1000.0000382003693
1000.0000004027675
1000.0000000029822
1000.000000000015
999.99999999999841
999.99999999999977
999.99999999999977
999.99999999999841
999.99999999999841
1000.0000000000011
1000.0000000000011
999.99999999999841
999.99999999999977
999.99999999999977
999.99999999999841
999.99999999999841
999.99999999999841
999.99999999999977
999.99999999999841
999.99999999998136
999.9999999970164
999.99999959723141
999.99996179984578
999.99863503841004
1000.0013649660318
1000.00003819375
1000.0000004051947
1000.0000000030195
1000.0000000000168
999.99999999999977
1000.0000000000011
1000.0000000000011
999.99999999999977
999.99999999999977
1000.0000000000027
1000.0000000000025
999.99999999999977
1000.0000000000011
1000.0000000000011
999.99999999999977
999.99999999999977
999.99999999999977
1000.0000000000011
999.99999999999977
999.99999999998317
999.99999999698389
999.99999959480533
999.9999618064644
999.99863504083851
863.5855704139783
840.75266679137349
840.75263516505038
840.75263483849244
840.75263483607387
840.75263483606011
840.75263483606125
840.75263483606125
840.75263483606011
840.75263483606011
840.7526348360625
840.7526348360625
840.75263483606011
840.75263483606125
840.75263483606113
840.75263483606011
840.75263483606011
840.75263483606011
840.75263483606125
840.75263483606
840.75263483604692
840.75263483363017
840.75263450706734
840.75260288092841
863.5828528168995
1000
1000
1000
1000
1000
1000
1000
1000
1000
1000
1000
1000
1000
1000
1000
1000
1000
1000
1000
1000
1000
1000
1000
1000
1000
1000
1000
1000
1000
1000
1000
1000
1000
1000
1000
1000
1000
1000
1000
1000
1000
1000
1000
1000
1000
1000
1000
1000
1000
1000
1000
1000
1000
1000
1000
1000
1000
1000
1000
1000
1000
1000
1000
1000
1000
1000
1000
1000
1000
1000
1000
1000
1000
1000
1000
1000
1000
1000
1000
1000
1000
1000
1000
1000
1000
1000
1000
1000
1000
1000
1000
1000
1000
1000
1000
1000
1000
1000
1000
1000
1000
1000
1000
1000
1000
1000
1000
1000
1000
1000
1000
1000
1000
1000
1000
1000
1000
1000
1000
1000
1000
1000
1000
1000
1000
1000
1000
1000
1000
1000
1000
1000
1000
1000
1000
1000
1000
1000
1000
1000
1000
1000
1000
1000
1000
1000
1000
1000
1000
1000
1000
1000
1000
1000
1000
1000
1000
1000
1000
1000
1000
1000
1000
1000
1000
1000
1000
1000
1000
1000
1000
1000
1000
1000
1000
1000
1000
1000
1000
1000
1000
1000
1000
1000
1000
1000
1000
1000
1000
1000
1000
1000
1000
1000
1000
1000
1000
1000
1000
1000
1000
1000
1000
1000
1000
1000
1000
1000
1000
1000
1000
1000
1000
1000
1000
1000
1000
1000
1000
1000
1000
1000
1000
1000
1000
1000
1000
1000
1000
1000
1000
1000
1000
1000
1000
1000
1000
1000
1000
1000
1000
1000
1000
1000
1000
1000
1000
1000
1000
1000
1000
1000
1000
1000
1000
1000
1000
1000
1000
1000
1000
1000
1000
1000
1000
1000
1000
1000
1000
1000
1000
1000
1000
1000
1000
1000
SCALARS p float 1
LOOKUP_TABLE default
446528.86692324904
11042.540329749987
85.127016546948653
0
0
0
0
0
0
0
0
0
0
0
0
0
0
0
0
0
0
1.2924772363476222
0
0
0
543400.12323501287
14812.133259616594
145.78702689505008
0.54871662769073737
0
0
0.00017763568394002505
0.00017763568394002505
0
0
0.00053290705182007514
0.00053290705182007514
0
0.00017763568394002505
0.00017763568394002505
0
0
0
0.00017763568394002505
0.00017763568394002505
0.00035527136788005009
0
0
0
0
545963.97226650384
15266.846428322164
159.73098399513219
1.1612044659159437
0.0054178883601707639
0
0.00017763568394002505
0.00017763568394002505
0
0
0.00017763568394002505
0.00017763568394002505
0
0.00017763568394002505
8.8817841970012523e-05
0
0
0
0.00017763568394002505
0.00017763568394002505
0
0
0
0
0
545990.02009071887
15280.304729462354
160.50893947294753
1.1823431123048067
0.0061284310959308641
0
0.00026645352591003757
0.00035527136788005009
0
0
0.00044408920985006262
0.00044408920985006262
0
0.00026645352591003757
0.00026645352591003757
0
0
0
0.00026645352591003757
0.00026645352591003757
0
0
0
0
0
545990.19586122816
15280.875295279169
160.52927875875866
1.1833201085664768
0.0062172489379008766
0
0.00017763568394002505
0.00017763568394002505
0
0
0.00035527136788005009
0.00035527136788005009
0
0.00017763568394002505
0.00017763568394002505
0
0
0
0.00017763568394002505
8.8817841970012523e-05
0
0
0
0
0
545990.19595004595
15280.879292082058
160.52963403012654
1.1830536550405668
0.0059507954119908391
0
0
0
0
0
0.00035527136788005009
0.00035527136788005009
0
0
0
0
0
0
0
0
0
0
0
0
0
545990.19639413524
15280.87982498911
160.53016693717836
1.1835865620923869
0.0065725203057809267
0
0.00044408920985006262
0.00044408920985006262
0
0
0.0010658141036401503
0.00097699626167013776
0
0.00044408920985006262
0.00044408920985006262
0
0
0
0.00044408920985006262
0
0
0
0
0
0
545990.19630531734
15280.87982498911
160.53016693717836
1.1836753799343569
0.0065725203057809267
0
0.00044408920985006262
0.00044408920985006262
0
0
0.00097699626167013776
0.00097699626167013776
0
0.00044408920985006262
0.00044408920985006262
0
0
0
0.00044408920985006262
0
0
0
0
0
0
545990.19595004595
15280.879292082058
160.52963403012654
1.1830536550405668
0.0059507954119908391
0
0
0
0
0
0.00044408920985006262
0.00044408920985006262
0
0
0
0
0
0
0
0
0
0
0
0
0
545990.19595004595
15280.879292082058
160.52963403012654
1.1830536550405668
0.0059507954119908391
0
0
0
0
0
0.00044408920985006262
0.00044408920985006262
0
0
0
0
0
0
0
0
0
0
0
0
0
545990.19630531734
15280.879913806952
160.53016693717836
1.1835865620923869
0.0065725203057809267
0
0.00044408920985006262
0.00044408920985006262
0
0
0
0
0
0.00044408920985006262
0.00044408920985006262
0
0
0
0.00044408920985006262
0
0
0
0
0
0
545990.19417368912
15280.87760454306
160.53247620106958
1.184385922670117
0.0064837024638109142
0
0.00044408920985006262
0
0
0
0.00097699626167013776
0.00097699626167013776
0
0.00044408920985006262
0.00044408920985006262
0
0
0
0.00044408920985006262
0
0
0
0
0
0
545989.61854525539
15280.14947587459
161.10695000293163
1.1929124354992382
0.0060396132539608516
0
0
0
0
0
0.00044408920985006262
0.00044408920985006262
0
0
0
0
0
0
0
0
0
0
0
0
0
545988.64846409706
15277.501727187622
162.0779066513478
1.2078338329502003
0.0067501559897209518
0
0.00044408920985006262
0.00044408920985006262
0
0
0.0010658141036401503
0.00097699626167013776
0
0.00044408920985006262
0.00044408920985006262
0
0
0
0.00044408920985006262
0
0
0
0
0
0
0
0
0
0
0
0
0
0
0
0
0
0
0
0
0
0
0
0
0
0
0
0
0
0
0
0
0
364789.88832807803
379248.60054922808
433631.79270830948
446192.35749974806
446467.10347809707
446469.50015143305
446469.51365174504
446469.51400701643
446469.51391819859
446469.5135629272
446469.51365174504
446469.51374056289
446469.46107158263
446469.1150372703
0
0
0
0
0
0
0
0
0
0
0
0
0
0
0
0
0
0
0
0
0
0
0
0
0
0
0
0
0
0
0
0
0
0
0
0
0
0
0
0
0
0
0
0
0
0
0
0
0
0
0
0
0
0
0
0
0
0
0
0
0
0
0
0
0
0
0
0
0
0
0
0
0
0
0
0
0
0
0
0
0
0
0
0
0
0
0
0
0
0
0
0
0
0
0
0
0
0
0
0
0
0
0
0
0
0
0
0
0
0
306172.67101311946
58178.104632235409
1178.5414549032273
7.000089397024567
0
0
0
0
0
0
0
0
0
0
0
0
0
0
0
0
0.1099564883588755
0
0
0
0
0
0
0
0
0
0
0
0
0
0
0
0
0
0
0
0
0
0
0
0
0
0
0
0
0
0
0
0
0
0
0
0
0
0
0
0
0
0
0
0
0
0
0
0
0
0
0
0
0
0
0
0
0
0
0
0
0
0
0
0
0
0
0
0
0
0
0
0
0
0
0
0
0
0
0
0
0
0
0
0
0
0
0
0
0
0
0
0
0
0
0
0
0
0
0
0
0
0
0
0
0
0
0
0
0
0
0
0
0
0
0
0
0
0
0
0
0
0
0
0
0
0
0
0
0
SCALARS m float 1
LOOKUP_TABLE default
0.39965556373580352
0.39965556373580352
0.39965556373580352
0.39965556373580352
0.39965556373580352
0.39965556373580352
0.39965556373580352
0.39965556373580352
0.39965556373580352
0.39965556373580352
0.39965556373580352
0.39965556373580352
0.39965556373580352
0.39965556373580352
0.39965556373580352
0.39965556373580352
0.39965556373580352
0.39965556373580352
0.39965556373580352
0.39965556373580352
0.39965556373580352
0.39965556373580352
0.39965556373580352
0.39965556373580352
0.39965556373580352
0.39965556373580352
0.39965556373580352
0.39965556373580352
0.39965556373580352
0.39965556373580352
0.39965556373580352
0.39965556373580352
0.39965556373580352
0.39965556373580352
0.39965556373580352
0.39965556373580352
0.39965556373580352
0.39965556373580352
0.39965556373580352
0.39965556373580352
0.39965556373580352
0.39965556373580352
0.39965556373580352
0.39965556373580352
0.39965556373580352
0.39965556373580352
0.39965556373580352
0.39965556373580352
0.39965556373580352
0.39965556373580352
0.39965556373580352
0.39965556373580352
0.39965556373580352
0.39965556373580352
0.39965556373580352
0.39965556373580352
0.39965556373580352
0.39965556373580352
0.39965556373580352
0.39965556373580352
0.39965556373580352
0.39965556373580352
0.39965556373580352
0.39965556373580352
0.39965556373580352
0.39965556373580352
0.39965556373580352
0.39965556373580352
0.39965556373580352
0.39965556373580352
0.39965556373580352
0.39965556373580352
0.39965556373580352
0.39965556373580352
0.39965556373580352
0.39965556373580352
0.39965556373580352
0.39965556373580352
0.39965556373580352
0.39965556373580352
0.39965556373580352
0.39965556373580352
0.39965556373580352
0.39965556373580352
0.39965556373580352
0.39965556373580352
0.39965556373580352
0.39965556373580352
0.39965556373580352
0.39965556373580352
0.39965556373580352
0.39965556373580352
0.39965556373580352
0.39965556373580352
0.39965556373580352
0.39965556373580352
0.39965556373580352
0.39965556373580352
0.39965556373580352
0.39965556373580352
0.39965556373580352
0.39965556373580352
0.39965556373580352
0.39965556373580352
0.39965556373580352
0.39965556373580352
0.39965556373580352
0.39965556373580352
0.39965556373580352
0.39965556373580352
0.39965556373580352
0.39965556373580352
0.39965556373580352
0.39965556373580352
0.39965556373580352
0.39965556373580352
0.39965556373580352
0.39965556373580352
0.39965556373580352
0.39965556373580352
0.39965556373580352
0.39965556373580352
0.39965556373580352
0.39965556373580352
0.39965556373580352
0.39965556373580352
0.39965556373580352
0.39965556373580352
0.39965556373580352
0.39965556373580352
0.39965556373580352
0.39965556373580352
0.39965556373580352
0.39965556373580352
0.39965556373580352
0.39965556373580352
0.39965556373580352
0.39965556373580352
0.39965556373580352
0.39965556373580352
0.39965556373580352
0.39965556373580352
0.39965556373580352
0.39965556373580352
0.39965556373580352
0.39965556373580352
0.39965556373580352
0.39965556373580352
0.39965556373580352
0.39965556373580352
0.39965556373580352
0.39965556373580352
0.39965556373580352
0.39965556373580352
0.39965556373580352
0.39965556373580352
0.39965556373580352
0.39965556373580352
0.39965556373580352
0.39965556373580352
0.39965556373580352
0.39965556373580352
0.39965556373580352
0.39965556373580352
0.39965556373580352
0.39965556373580352
0.39965556373580352
0.39965556373580352
0.39965556373580352
0.39965556373580352
0.39965556373580352
0.39965556373580352
0.39965556373580352
0.39965556373580352
0.39965556373580352
0.39965556373580352
0.39965556373580352
0.39965556373580352
0.39965556373580352
0.39965556373580352
0.39965556373580352
0.39965556373580352
0.39965556373580352
0.39965556373580352
0.39965556373580352
0.39965556373580352
0.39965556373580352
0.39965556373580352
0.39965556373580352
0.39965556373580352
0.39965556373580352
0.39965556373580352
0.39965556373580352
0.39965556373580352
0.39965556373580352
0.39965556373580352
0.39965556373580352
0.39965556373580352
0.39965556373580352
0.39965556373580352
0.39965556373580352
0.39965556373580352
0.39965556373580352
0.39965556373580352
0.39965556373580352
0.39965556373580352
0.39965556373580352
0.39965556373580352
0.39965556373580352
0.39965556373580352
0.39965556373580352
0.39965556373580352
0.39965556373580352
0.39965556373580352
0.39965556373580352
0.39965556373580352
0.39965556373580352
0.39965556373580352
0.39965556373580352
0.39965556373580352
0.39965556373580352
0.39965556373580352
0.39965556373580352
0.39965556373580352
0.39965556373580352
0.39965556373580352
0.39965556373580352
0.39965556373580352
0.39965556373580352
0.39965556373580352
0.39965556373580352
0.39965556373580352
0.39965556373580352
0.39965556373580352
0.39965556373580352
0.39965556373580352
0.39965556373580352
0.39965556373580352
0.39965556373580352
0.39965556373580352
0.39965556373580352
0.39965556373580352
0.39965556373580352
0.39965556373580352
0.39965556373580352
0.39965556373580352
0.39965556373580352
0.39965556373580352
0.39965556373580352
0.39965556373580352
0.39965556373580352
0.39965556373580352
0.39965556373580352
0.39965556373580352
0.39965556373580352
0.39965556373580352
0.39965556373580352
0.39965556373580352
0.39965556373580352
0.39965556373580352
0.39965556373580352
0.39965556373580352
0.39965556373580352
0.39965556373580352
0.39965556373580352
0.39965556373580352
0.39965556373580352
0.39965556373580352
0.39965556373580352
0.39965556373580352
0.39965556373580352
0.39965556373580352
0.39965556373580352
0.39965556373580352
0.39965556373580352
0.39965556373580352
0.39965556373580352
0.39965556373580352
0.39965556373580352
0.39965556373580352
0.39965556373580352
0.39965556373580352
0.39965556373580352
0.39965556373580352
0.39965556373580352
0.39965556373580352
0.39965556373580352
0.39965556373580352
0.39965556373580352
0.39965556373580352
0.39965556373580352
0.39965556373580352
0.39965556373580352
0.39965556373580352
0.39965556373580352
0.39965556373580352
0.39965556373580352
0.39965556373580352
0.39965556373580352
0.39965556373580352
0.39965556373580352
0.39965556373580352
0.39965556373580352
0.39965556373580352
0.39965556373580352
0.39965556373580352
0.39965556373580352
0.39965556373580352
0.39965556373580352
0.39965556373580352
0.39965556373580352
0.39965556373580352
0.39965556373580352
0.39965556373580352
0.39965556373580352
0.39965556373580352
0.39965556373580352
0.39965556373580352
0.39965556373580352
0.39965556373580352
0.39965556373580352
0.39965556373580352
0.39965556373580352
0.39965556373580352
0.39965556373580352
0.39965556373580352
0.39965556373580352
0.39965556373580352
0.39965556373580352
0.39965556373580352
0.39965556373580352
0.39965556373580352
0.39965556373580352
0.39965556373580352
0.39965556373580352
0.39965556373580352
0.39965556373580352
0.39965556373580352
0.39965556373580352
0.39965556373580352
0.39965556373580352
0.39965556373580352
0.39965556373580352
0.39965556373580352
0.39965556373580352
0.39965556373580352
0.39965556373580352
0.39965556373580352
0.39965556373580352
0.39965556373580352
0.39965556373580352
0.39965556373580352
0.39965556373580352
0.39965556373580352
0.39965556373580352
0.39965556373580352
0.39965556373580352
0.39965556373580352
0.39965556373580352
0.39965556373580352
0.39965556373580352
0.39965556373580352
0.39965556373580352
0.39965556373580352
0.39965556373580352
0.39965556373580352
0.39965556373580352
0.39965556373580352
0.39965556373580352
0.39965556373580352
0.39965556373580352
0.39965556373580352
0.39965556373580352
0.39965556373580352
0.39965556373580352
0.39965556373580352
0.39965556373580352
0.39965556373580352
0.39965556373580352
0.39965556373580352
0.39965556373580352
0.39965556373580352
0.39965556373580352
0.39965556373580352
0.39965556373580352
0.39965556373580352
0.39965556373580352
0.39965556373580352
0.39965556373580352
0.39965556373580352
0.39965556373580352
0.39965556373580352
0.39965556373580352
0.39965556373580352
0.39965556373580352
0.39965556373580352
0.39965556373580352
0.39965556373580352
0.39965556373580352
0.39965556373580352
0.39965556373580352
0.39965556373580352
0.39965556373580352
0.39965556373580352
0.39965556373580352
0.39965556373580352
0.39965556373580352
0.39965556373580352
0.39965556373580352
0.39965556373580352
0.39965556373580352
0.39965556373580352
0.39965556373580352
0.39965556373580352
0.39965556373580352
0.39965556373580352
0.39965556373580352
0.39965556373580352
0.39965556373580352
0.39965556373580352
0.39965556373580352
0.39965556373580352
0.39965556373580352
0.39965556373580352
0.39965556373580352
0.39965556373580352
0.39965556373580352
0.39965556373580352
0.39965556373580352
0.39965556373580352
0.39965556373580352
0.39965556373580352
0.39965556373580352
0.39965556373580352
0.39965556373580352
0.39965556373580352
0.39965556373580352
0.39965556373580352
0.39965556373580352
0.39965556373580352
0.39965556373580352
0.39965556373580352
0.39965556373580352
0.39965556373580352
0.39965556373580352
0.39965556373580352
0.39965556373580352
0.39965556373580352
0.39965556373580352
0.39965556373580352
0.39965556373580352
0.39965556373580352
0.39965556373580352
0.39965556373580352
0.39965556373580352
0.39965556373580352
0.39965556373580352
0.39965556373580352
0.39965556373580352
0.39965556373580352
0.39965556373580352
0.39965556373580352
0.39965556373580352
0.39965556373580352
0.39965556373580352
0.39965556373580352
0.39965556373580352
0.39965556373580352
0.39965556373580352
0.39965556373580352
0.39965556373580352
0.39965556373580352
0.39965556373580352
0.39965556373580352
0.39965556373580352
0.39965556373580352
0.39965556373580352
0.39965556373580352
0.39965556373580352
0.39965556373580352
0.39965556373580352
0.39965556373580352
0.39965556373580352
0.39965556373580352
0.39965556373580352
0.39965556373580352
0.39965556373580352
0.39965556373580352
0.39965556373580352
0.39965556373580352
0.39965556373580352
0.39965556373580352
0.39965556373580352
0.39965556373580352
0.39965556373580352
0.39965556373580352
0.39965556373580352
0.39965556373580352
0.39965556373580352
0.39965556373580352
0.39965556373580352
0.39965556373580352
0.39965556373580352
0.39965556373580352
0.39965556373580352
0.39965556373580352
0.39965556373580352
0.39965556373580352
0.39965556373580352
0.39965556373580352
0.39965556373580352
0.39965556373580352
0.39965556373580352
0.39965556373580352
0.39965556373580352
0.39965556373580352
0.39965556373580352
0.39965556373580352
0.39965556373580352
0.39965556373580352
0.39965556373580352
0.39965556373580352
0.39965556373580352
0.39965556373580352
0.39965556373580352
0.39965556373580352
0.39965556373580352
0.39965556373580352
0.39965556373580352
0.39965556373580352
0.39965556373580352
0.39965556373580352
0.39965556373580352
0.39965556373580352
0.39965556373580352
0.39965556373580352
0.39965556373580352
0.39965556373580352
0.39965556373580352
0.39965556373580352
0.39965556373580352
0.39965556373580352
0.39965556373580352
0.39965556373580352
0.39965556373580352
0.39965556373580352
0.39965556373580352
0.39965556373580352
0.39965556373580352
0.39965556373580352
0.39965556373580352
0.39965556373580352
0.39965556373580352
0.39965556373580352
0.39965556373580352
0.39965556373580352
0.39965556373580352
0.39965556373580352
0.39965556373580352
0.39965556373580352
0.39965556373580352
0.39965556373580352
0.39965556373580352
0.39965556373580352
0.39965556373580352
0.39965556373580352
0.39965556373580352
0.39965556373580352
0.39965556373580352
0.39965556373580352
0.39965556373580352
0.39965556373580352
0.39965556373580352
0.39965556373580352
0.39965556373580352
0.39965556373580352
0.39965556373580352
0.39965556373580352
0.39965556373580352
0.39965556373580352
0.39965556373580352
0.39965556373580352
0.39965556373580352
0.39965556373580352
0.39965556373580352
0.39965556373580352
0.39965556373580352
0.39965556373580352
0.39965556373580352
0.39965556373580352
0.39965556373580352
0.39965556373580352
0.39965556373580352
0.39965556373580352
0.39965556373580352
0.39965556373580352
0.39965556373580352
0.39965556373580352
0.39965556373580352
0.39965556373580352
0.39965556373580352
0.39965556373580352
0.39965556373580352
0.39965556373580352
0.39965556373580352
0.39965556373580352
0.39965556373580352
0.39965556373580352
0.39965556373580352
0.39965556373580352
0.39965556373580352
0.39965556373580352
0.39965556373580352
0.39965556373580352
0.39965556373580352
0.39965556373580352
0.39965556373580352
0.39965556373580352
0.39965556373580352
0.39965556373580352
0.39965556373580352
0.39965556373580352
0.39965556373580352
0.39965556373580352
0.39965556373580352
0.39965556373580352
0.39965556373580352
0.39965556373580352
0.39965556373580352
0.39965556373580352
0.39965556373580352
0.39965556373580352
0.39965556373580352
0.39965556373580352
0.39965556373580352
0.39965556373580352
0.39965556373580352
0.39965556373580352
0.39965556373580352
0.39965556373580352
0.39965556373580352
0.39965556373580352
0.39965556373580352
0.39965556373580352
0.39965556373580352
0.39965556373580352
0.39965556373580352
0.39965556373580352
0.39965556373580352
0.39965556373580352
0.39965556373580352
VECTORS v float
0 -0.00088612278806807253 0
0 -0.00092840239347832679 0
0 -0.0009288630448201627 0
0 -0.00092885306265433484 0
0 -0.00092885291138158964 0
0 -0.00092885291322166298 0
0 -0.00092885291325378778 0
0 -0.00092885291325355218 0
0 -0.00092885291325354774 0
0 -0.00092885291325354774 0
0 -0.00092885291325354774 0
0 -0.00092885291325354774 0
0 -0.00092885291325354774 0
0 -0.00092885291325354774 0
0 -0.00092885291325354774 0
0 -0.00092885291325354774 0
0 -0.00092885291325354774 0
0 -0.00092885291325355229 0
0 -0.00092885291325378778 0
0 -0.00092885291322166309 0
0 -0.00092885291138161121 0
0 -0.00092885306265351887 0
0 -0.00092886304471570633 0
0 -0.0009284023950637617 0
0 -0.00088612318164480006 0
0 -0.00092840214700691157 0
0 -0.00097937746441242759 0
0 -0.00098016828166965116 0
0 -0.00098017610292109193 0
0 -0.00098017613562578786 0
0 -0.00098017613560746897 0
0 -0.00098017613560969462 0
0 -0.00098017613560972823 0
0 -0.00098017613560972779 0
0 -0.00098017613560972779 0
0 -0.00098017613560972779 0
0 -0.00098017613560972779 0
0 -0.00098017613560972779 0
0 -0.00098017613560972779 0
0 -0.00098017613560972779 0
0 -0.00098017613560972779 0
0 -0.00098017613560972779 0
0 -0.00098017613560972823 0
0 -0.00098017613560969462 0
0 -0.00098017613560746897 0
0 -0.00098017613562578721 0
0 -0.00098017610292100541 0
0 -0.00098016828168426772 0
0 -0.00097937746746613267 0
0 -0.00092840264153428473 0
0 -0.00092886279600673419 0
0 -0.00098016828004221621 0
0 -0.00098098262353103045 0
0 -0.0009809912270774344 0
0 -0.00098099129000609082 0
0 -0.0009809912903092511 0
0 -0.00098099129031015771 0
0 -0.00098099129031016183 0
0 -0.00098099129031016183 0
0 -0.00098099129031016183 0
0 -0.00098099129031016183 0
0 -0.00098099129031016183 0
0 -0.00098099129031016183 0
0 -0.00098099129031016183 0
0 -0.00098099129031016183 0
0 -0.00098099129031016183 0
0 -0.00098099129031016183 0
0 -0.00098099129031016183 0
0 -0.00098099129031015771 0
0 -0.0009809912903092511 0
0 -0.00098099129000609104 0
0 -0.00098099122707753306 0
0 -0.00098098262355209823 0
0 -0.00098016828331170223 0
0 -0.00092886329352824288 0
0 -0.00092885281378775125 0
0 -0.00098017610128372937 0
0 -0.00098099122706679599 0
0 -0.00098099987112196967 0
0 -0.00098099993519750362 0
0 -0.00098099993553531976 0
0 -0.00098099993553656768 0
0 -0.0009809999355365705 0
0 -0.0009809999355365705 0
0 -0.0009809999355365705 0
0 -0.0009809999355365705 0
0 -0.0009809999355365705 0
0 -0.0009809999355365705 0
0 -0.0009809999355365705 0
0 -0.0009809999355365705 0
0 -0.0009809999355365705 0
0 -0.0009809999355365705 0
0 -0.0009809999355365705 0
0 -0.00098099993553656768 0
0 -0.00098099993553531976 0
0 -0.00098099993519750405 0
0 -0.00098099987112207549 0
0 -0.00098099122708817147 0
0 -0.00098017610455836731 0
0 -0.00092885331151921038 0
0 -0.00092885266251472622 0
0 -0.00098017613398837153 0
0 -0.00098099128999540233 0
0 -0.0009809999351974609 0
0 -0.00098099999931955764 0
0 -0.00098099999965848292 0
0 -0.00098099999965975578 0
0 -0.00098099999965975838 0
0 -0.00098099999965975838 0
0 -0.00098099999965975838 0
0 -0.00098099999965975838 0
0 -0.00098099999965975838 0
0 -0.00098099999965975838 0
0 -0.00098099999965975838 0
0 -0.00098099999965975838 0
0 -0.00098099999965975838 0
0 -0.00098099999965975838 0
0 -0.00098099999965975838 0
0 -0.00098099999965975512 0
0 -0.00098099999965847989 0
0 -0.0009809999993195546 0
0 -0.00098099993519755674 0
0 -0.00098099129001678171 0
0 -0.00098017613726320333 0
0 -0.00092885316024758212 0
0 -0.00092885266435482319 0
0 -0.00098017613397005264 0
0 -0.00098099129029858038 0
0 -0.00098099993553778762 0
0 -0.0009809999996585033 0
0 -0.00098099999999743336 0
0 -0.00098099999999871771 0
0 -0.00098099999999872118 0
0 -0.00098099999999872118 0
0 -0.00098099999999872118 0
0 -0.00098099999999872118 0
0 -0.00098099999999872118 0
0 -0.00098099999999872118 0
0 -0.00098099999999872118 0
0 -0.00098099999999872118 0
0 -0.00098099999999872118 0
0 -0.00098099999999872118 0
0 -0.00098099999999872118 0
0 -0.00098099999999871792 0
0 -0.00098099999999744203 0
0 -0.0009809999996584801 0
0 -0.00098099993553537267 0
0 -0.00098099129031994198 0
0 -0.0009801761372448853 0
0 -0.00092885316208761014 0
0 -0.0009288526643869481 0
0 -0.00098017613397227829 0
0 -0.00098099129029952082 0
0 -0.00098099993554882849 0
0 -0.0009809999996598115 0
0 -0.00098099999999867521 0
0 -0.00098099999999999338 0
0 -0.00098099999999999707 0
0 -0.00098099999999999707 0
0 -0.00098099999999999707 0
0 -0.00098099999999999707 0
0 -0.00098099999999999707 0
0 -0.00098099999999999707 0
0 -0.00098099999999999707 0
0 -0.00098099999999999707 0
0 -0.00098099999999999707 0
0 -0.00098099999999999707 0
0 -0.00098099999999999707 0
0 -0.0009809999999999936 0
0 -0.00098099999999871792 0
0 -0.00098099999965975512 0
0 -0.00098099993553662037 0
0 -0.00098099129032084881 0
0 -0.00098017613724711095 0
0 -0.00092885316211973451 0
0 -0.00092885266438671261 0
0 -0.0009801761339723119 0
0 -0.00098099129029949111 0
0 -0.00098099993553903858 0
0 -0.00098099999965977876 0
0 -0.0009809999999987125 0
0 -0.00098099999999999685 0
0 -0.00098100000000000032 0
0 -0.00098100000000000032 0
0 -0.00098100000000000032 0
0 -0.00098100000000000032 0
0 -0.00098100000000000032 0
0 -0.00098100000000000032 0
0 -0.00098100000000000032 0
0 -0.00098100000000000032 0
0 -0.00098100000000000032 0
0 -0.00098100000000000032 0
0 -0.00098100000000000032 0
0 -0.00098099999999999707 0
0 -0.00098099999999872118 0
0 -0.00098099999965975859 0
0 -0.00098099993553662362 0
0 -0.0009809912903208525 0
0 -0.00098017613724714434 0
0 -0.00092885316211949902 0
0 -0.00092885266438671337 0
0 -0.00098017613397231211 0
0 -0.00098099129029947311 0
0 -0.00098099993553652756 0
0 -0.00098099999965976033 0
0 -0.00098099999999872118 0
0 -0.00098099999999999707 0
0 -0.00098100000000000032 0
0 -0.00098100000000000032 0
0 -0.00098100000000000032 0
0 -0.00098100000000000032 0
0 -0.00098100000000000032 0
0 -0.00098100000000000032 0
0 -0.00098100000000000032 0
0 -0.00098100000000000032 0
0 -0.00098100000000000032 0
0 -0.00098100000000000032 0
0 -0.00098100000000000032 0
0 -0.00098099999999999707 0
0 -0.00098099999999872118 0
0 -0.00098099999965975859 0
0 -0.00098099993553662362 0
0 -0.0009809912903208525 0
0 -0.00098017613724714456 0
0 -0.00092885316211949967 0
0 -0.00092885266438732725 0
0 -0.00098017613397226441 0
0 -0.00098099129029946184 0
0 -0.00098099993553651585 0
0 -0.00098099999965975794 0
0 -0.00098099999999872118 0
0 -0.00098099999999999707 0
0 -0.00098100000000000032 0
0 -0.00098100000000000032 0
0 -0.00098100000000000032 0
0 -0.00098100000000000032 0
0 -0.00098100000000000032 0
0 -0.00098100000000000032 0
0 -0.00098100000000000032 0
0 -0.00098100000000000032 0
0 -0.00098100000000000032 0
0 -0.00098100000000000032 0
0 -0.00098100000000000032 0
0 -0.00098099999999999707 0
0 -0.00098099999999872118 0
0 -0.00098099999965975838 0
0 -0.00098099993553662211 0
0 -0.00098099129032084339 0
0 -0.00098017613724709729 0
0 -0.00092885316212011355 0
0 -0.00092885266435533873 0
0 -0.0009801761339651644 0
0 -0.00098099129029807297 0
0 -0.0009809999355361971 0
0 -0.00098099999965973171 0
0 -0.00098099999999872074 0
0 -0.00098099999999999707 0
0 -0.00098100000000000032 0
0 -0.00098100000000000032 0
0 -0.00098100000000000032 0
0 -0.00098100000000000032 0
0 -0.00098100000000000032 0
0 -0.00098100000000000032 0
0 -0.00098100000000000032 0
0 -0.00098100000000000032 0
0 -0.00098100000000000032 0
0 -0.00098100000000000032 0
0 -0.00098100000000000032 0
0 -0.00098099999999999707 0
0 -0.00098099999999872074 0
0 -0.00098099999965973192 0
0 -0.00098099993553630313 0
0 -0.00098099129031945453 0
0 -0.00098017613723999707 0
0 -0.00092885316208812525 0
0 -0.00092885265982584357 0
0 -0.00098017613348052647 0
0 -0.00098099129003988692 0
0 -0.00098099993550336008 0
0 -0.00098099999965924837 0
0 -0.00098099999999871749 0
0 -0.00098099999999999685 0
0 -0.00098100000000000032 0
0 -0.00098100000000000032 0
0 -0.00098100000000000032 0
0 -0.00098100000000000032 0
0 -0.00098100000000000032 0
0 -0.00098100000000000032 0
0 -0.00098100000000000032 0
0 -0.00098100000000000032 0
0 -0.00098100000000000032 0
0 -0.00098100000000000032 0
0 -0.00098100000000000032 0
0 -0.00098099999999999685 0
0 -0.00098099999999871749 0
0 -0.0009809999996592488 0
0 -0.00098099993550346634 0
0 -0.00098099129006126891 0
0 -0.00098017613675536043 0
0 -0.0009288531575587294 0
0 -0.00092885275295622079 0
0 -0.00098017603439172073 0
0 -0.00098099126133033396 0
0 -0.00098099993503547979 0
0 -0.00098099999965545843 0
0 -0.00098099999999869862 0
0 -0.00098099999999999685 0
0 -0.00098100000000000032 0
0 -0.00098100000000000032 0
0 -0.00098100000000000032 0
0 -0.00098100000000000032 0
0 -0.00098100000000000032 0
0 -0.00098100000000000032 0
0 -0.00098100000000000032 0
0 -0.00098100000000000032 0
0 -0.00098100000000000032 0
0 -0.00098100000000000032 0
0 -0.00098100000000000032 0
0 -0.00098099999999999685 0
0 -0.00098099999999869862 0
0 -0.00098099999965545887 0
0 -0.00098099993503558648 0
0 -0.00098099126135174543 0
0 -0.0009801760376666282 0
0 -0.00092885325068971149 0
0 -0.00092887463889779307 0
0 -0.0009801586263585725 0
0 -0.00098099097304548766 0
0 -0.00098099993244792245 0
0 -0.00098099999964028177 0
0 -0.00098099999999863769 0
0 -0.00098099999999999685 0
0 -0.00098100000000000032 0
0 -0.00098100000000000032 0
0 -0.00098100000000000032 0
0 -0.00098100000000000032 0
0 -0.00098100000000000032 0
0 -0.00098100000000000032 0
0 -0.00098100000000000032 0
0 -0.00098100000000000032 0
0 -0.00098100000000000032 0
0 -0.00098100000000000032 0
0 -0.00098100000000000032 0
0 -0.00098099999999999685 0
0 -0.00098099999999863769 0
0 -0.0009809999996402822 0
0 -0.00098099993244803109 0
0 -0.00098099097306722591 0
0 -0.00098015862966530196 0
0 -0.00092887513650722947 0
0 -0.00092886009185227784 0
0 -0.00098020092427215889 0
0 -0.00098099155520574278 0
0 -0.00098099993738018452 0
0 -0.00098099999966842787 0
0 -0.00098099999999874871 0
0 -0.00098099999999999707 0
0 -0.00098100000000000032 0
0 -0.00098100000000000032 0
0 -0.00098100000000000032 0
0 -0.00098100000000000032 0
0 -0.00098100000000000032 0
0 -0.00098100000000000032 0
0 -0.00098100000000000032 0
0 -0.00098100000000000032 0
0 -0.00098100000000000032 0
0 -0.00098100000000000032 0
0 -0.00098100000000000032 0
0 -0.00098099999999999707 0
0 -0.00098099999999874871 0
0 -0.00098099999966842831 0
0 -0.00098099993738028188 0
0 -0.00098099155522524736 0
0 -0.00098020092724400735 0
0 -0.00092886058960266605 0
-0 -0 0
-0 -0 0
-0 0.00080194750905644371 0
-0 0.00081066227029046088 0
-0 0.00083466227880324147 0
-0 0.00083986358587651987 0
-0 0.00083990595784438828 0
-0 0.00083990479864548095 0
-0 0.0008399047855552666 0
-0 0.00083990478574872979 0
-0 0.00083990478575117369 0
-0 0.00083990478575120221 0
-0 0.00083990478574897656 0
-0 0.0008399047853227112 0
-0 0.00083990479166559467 0
-0 0.00083990710950098779 0
-0 0.0008399170912592684 0
-0 0.00083982473681050191 0
-0 0.00083677644791842914 0
-0 -0 0
-0 -0 0
-0 -0 0
-0 -0 0
-0 0.00080194772374285667 0
-0 0.00081066252850698814 0
-0 0.00083466260638121001 0
-0 0.00083986391639613816 0
-0 0.00083990628861423133 0
-0 0.00083990512943576175 0
-0 0.00083990511634565203 0
-0 0.00083990511653910937 0
-0 0.00083990511654155327 0
-0 0.00083990511654158178 0
-0 0.00083990511653935613 0
-0 0.0008399051161130989 0
-0 0.00083990512245604796 0
-0 0.00083990744027666439 0
-0 0.00083991742200442362 0
-0 0.00083982506654577669 0
-0 0.00083677672780787637 0
-0 -0 0
-0 -0 0
-0 -0 0
-0 -0 0
-0 -0 0
-0 8.5736519805978902e-18 0
-0 9.5277433593712826e-18 0
-0 9.5352705350584656e-18 0
-0 9.5350899357149126e-18 0
-0 9.5350880489317607e-18 0
-0 9.5350880750492551e-18 0
-0 9.5350880752510017e-18 0
-0 9.5350880752493484e-18 0
-0 9.5350880752493531e-18 0
-0 9.5350880752532388e-18 0
-0 9.535088075057683e-18 0
-0 9.535088018672648e-18 0
-0 9.5350891267319606e-18 0
-0 9.5354490876375656e-18 0
-0 9.5352864768290537e-18 0
-0 -0 0
-0 -0 0
-0 -0 0
-0 -0 0
-0 -0 0
-0 -0 0
-0 -0 0
-0 -0 0
-0 -0 0
-0 -0 0
-0 -0 0
-0 -0 0
-0 -0 0
-0 -0 0
-0 -0 0
-0 -0 0
-0 -0 0
-0 -0 0
-0 -0 0
-0 -0 0
-0 -0 0
-0 -0 0
-0 -0 0
-0 -0 0
-0 -0 0
-0 -0 0
-0 -0 0
-0 -0 0
-0 -0 0
-0 -0 0
-0 -0 0
-0 -0 0
-0 -0 0
-0 -0 0
-0 -0 0
-0 -0 0
-0 -0 0
-0 -0 0
-0 -0 0
-0 -0 0
-0 -0 0
-0 -0 0
-0 -0 0
-0 -0 0
-0 -0 0
-0 -0 0
-0 -0 0
-0 -0 0
-0 -0 0
-0 -0 0
-0 -0 0
-0 -0 0
-0 -0 0
-0 -0 0
-0 -0 0
-0 -0 0
-0 -0 0
-0 -0 0
-0 -0 0
-0 -0 0
-0 -0 0
-0 -0 0
-0 -0 0
-0 -0 0
-0 -0 0
-0 -0 0
-0 0.00081066232571977784 0
-0 0.0008346624613735867 0
-0 0.00083986375145774774 0
-0 0.0008399061232258557 0
-0 0.00083990496404081304 0
-0 0.00083990495095073183 0
-0 0.00083990495114419134 0
-0 0.00083990495114663502 0
-0 0.00083990495114661279 0
-0 0.00083990495114661258 0
-0 0.00083990495114661258 0
-0 0.00083990495114661236 0
-0 0.00083990495114661236 0
-0 0.00083990495114661247 0
-0 0.00083990495114661225 0
-0 0.00083990495114661236 0
-0 0.00083990495114661268 0
-0 0.00083990495114663502 0
-0 0.00083990495114419144 0
-0 0.00083990495095073053 0
-0 0.00083990496404097307 0
-0 0.0008399061232333072 0
-0 0.0008398637508154525 0
-0 0.00083466242381141707 0
-0 0.0008106624730782816 0
-0 -0 0
-0 -0 0
-0 -0 0
-0 -0 0
-0 -0 0
-0 -0 0
-0 -0 0
-0 -0 0
-0 -0 0
-0 -0 0
-0 -0 0
-0 -0 0
-0 -0 0
-0 -0 0
-0 -0 0
-0 -0 0
-0 -0 0
-0 -0 0
-0 -0 0
-0 -0 0
-0 -0 0
-0 -0 0
-0 -0 0
-0 -0 0
-0 -0 0
-0 -0 0
-0 -0 0
-0 -0 0
-0 -0 0
-0 -0 0
-0 -0 0
-0 -0 0
-0 -0 0
-0 -0 0
-0 -0 0
-0 -0 0
-0 -0 0
-0 -0 0
-0 -0 0
-0 -0 0
-0 -0 0
-0 -0 0
-0 -0 0
-0 -0 0
-0 -0 0
-0 -0 0
-0 -0 0
-0 -0 0
-0 -0 0
-0 -0 0
-0 -0 0
-0 -0 0
-0 -0 0
-0 -0 0
-0 -0 0
-0 -0 0
-0 -0 0
-0 -0 0
-0 -0 0
-0 -0 0
-0 -0 0
-0 -0 0
-0 -0 0
-0 -0 0
-0 -0 0
-0 -0 0
-0 -0 0
-0 -0 0
-0 -0 0
-0 -0 0
-0 -0 0
-0 -0 0
-0 -0 0
-0 -0 0
-0 -0 0
-0 -0 0
-0 -0 0
-0 -0 0
-0 -0 0
-0 -0 0
-0 -0 0
-0 -0 0
-0 -0 0
-0 -0 0
-0 -0 0
-0 -0 0
-0 -0 0
-0 -0 0
-0 -0 0
-0 -0 0
-0 -0 0
-0 -0 0
-0 -0 0
-0 -0 0
-0 -0 0
-0 -0 0
-0 -0 0
-0 -0 0
-0 -0 0
-0 -0 0
-0 -0 0
-0 -0 0
-0 -0 0
-0 -0 0
-0 -0 0
-0 -0 0
-0 -0 0
-0 -0 0
-0 -0 0
-0 -0 0
-0 -0 0
-0 -0 0
-0 -0 0
-0 -0 0
-0 -0 0
-0 -0 0
-0 -0 0
-0 -0 0
-0 -0 0
-0 -0 0
-0 -0 0
-0 -0 0
-0 -0 0
-0 -0 0
-0 -0 0
