# vtk DataFile Version 3.0
SPH particles (WCSPH) - legacy PolyData
ASCII
DATASET POLYDATA
POINTS 681 float
0.049989934073180316 0.017102702793832355 0
0.049988873513438968 0.019219057171179589 0
0.049988021052505473 0.020926826218953351 0
0.049987183620705186 0.022612303080289647 0
0.049986430635362296 0.024250485929127211 0
0.049985764772926052 0.02583963499732355 0
0.049985152558869837 0.027385500002088392 0
0.049984555051249664 0.02889622562315651 0
0.049983913074020767 0.030380917349561318 0
0.049983135026846127 0.031847407340189468 0
0.049981771690969935 0.033304043221380822 0
0.049979966680525338 0.034758935859734254 0
0.049979260343734941 0.036220071795928489 0
0.049980006804185413 0.037695634023283242 0
0.0499814919582241 0.039194415674295109 0
0.049983250147440372 0.040725927343631077 0
0.049985070728690628 0.042302181742274229 0
0.04998678484702361 0.04393766085549889 0
0.049988383091065819 0.045652002509308835 0
0.049989806064376613 0.047458837289822448 0
0.049991004970322189 0.049397193553356679 0
0.04999197863865032 0.051514407029369637 0
0.049992756957991685 0.053885112084520355 0
0.049993376220910934 0.056648037863264611 0
0.049994160256516186 0.060172929495540192 0
0.069994684383817424 0.01588262066098739 0
0.069994061940800836 0.018218594530089088 0
0.069993599185659824 0.020116015658343801 0
0.069993184120119858 0.021952480732365446 0
0.069992797105523807 0.023714392864331382 0
0.069992412508263241 0.025408119221386676 0
0.069992032428362397 0.027045098099717193 0
0.069991649847780724 0.028637405171649134 0
0.069991247544031313 0.030197032299198963 0
0.069990778168293577 0.031733745020850745 0
0.069989865427039388 0.033257443385980585 0
0.069988009367653703 0.034777611213897053 0
0.069986911722028575 0.036303059054136021 0
0.069987093476350182 0.037842653402243992 0
0.069987993304541418 0.03940626495507768 0
0.06998913202600679 0.041004425546637017 0
0.069990353896766791 0.042650890069100535 0
0.06999155823988 0.044361015555198897 0
0.069992685537048918 0.046153569600061541 0
0.069993665575541875 0.048051651186111689 0
0.069994476981089737 0.050093601746337077 0
0.069995125781262602 0.052331729745732823 0
0.06999561555951038 0.054853570538679425 0
0.069995999663732808 0.057822963250961465 0
0.069996495812228915 0.061682582075635276 0
0.089998106695542798 0.015827829396668901 0
0.089997876781004529 0.018165429284075385 0
0.089997708629658654 0.02006617882316632 0
0.089997547444782861 0.021908225657014609 0
0.089997383092959821 0.023677152992484751 0
0.089997212522602649 0.025378805561003363 0
0.089997034282357294 0.027024543718312161 0
0.08999685616882655 0.028626201758317663 0
0.089996654681479743 0.030195294442624938 0
0.089996428946132578 0.031742123850660851 0
0.089996157135373789 0.033276400439355112 0
0.089995775602622369 0.03480774037400558 0
0.089995403372508484 0.036344800407324955 0
0.089995348905023406 0.03789651664143364 0
0.089995585033100553 0.03947270278907803 0
0.089995911056698213 0.04108411647815307 0
0.089996295330023512 0.042744367788257603 0
0.089996685418219244 0.044468051464963521 0
0.089997056151864374 0.046274601474899056 0
0.089997365956171749 0.048189742865614532 0
0.089997618625087678 0.050249605519447592 0
0.089997805972249198 0.052507138701155559 0
0.089997969961670352 0.055050062576074421 0
0.089998101846886128 0.05804210586074899 0
0.089998314283137523 0.06193109419869184 0
0.10999932386885508 0.01583477004567628 0
0.10999923555809199 0.018173220241115517 0
0.1099991647552605 0.020074748061188218 0
0.10999909310492423 0.02191768205714505 0
0.10999902076968919 0.02368759930382865 0
0.10999896363152019 0.025390350583931298 0
0.10999889882201774 0.027037314480473622 0
0.10999881679987199 0.028640300235296384 0
0.10999872587084318 0.030210693120488578 0
0.10999862688792175 0.031758927435502099 0
0.10999853009544107 0.033294689714667348 0
0.10999840186516613 0.034827727358999125 0
0.1099983012567359 0.036366530709002136 0
0.10999829719807595 0.037920139381809541 0
0.10999833888368994 0.039498347788090978 0
0.109998436350229 0.04111220172268959 0
0.10999856027757761 0.042774731999245218 0
0.10999869867633082 0.044500633269549186 0
0.10999883481235936 0.046309586427056772 0
0.10999894120903214 0.04822733975260142 0
0.10999902193283728 0.050290101529189259 0
0.10999908160046375 0.052550896036897464 0
0.10999913726695119 0.055097480661884655 0
0.10999918788656171 0.058093656855995116 0
0.10999927811188828 0.0619884521642717 0
0.12999972218877454 0.015839818048029239 0
0.12999968694750522 0.018178793408116303 0
0.12999966184170714 0.020080714157865696 0
0.12999963863032971 0.021924000897116942 0
0.12999962495403383 0.023694269948841145 0
0.12999959579372528 0.025397331831297471 0
0.12999957239456486 0.027044569764576858 0
0.1299995377037291 0.028647840099425788 0
0.1299995048365796 0.030218513974790705 0
0.12999946295600134 0.031767032606261549 0
0.12999940539253968 0.033303125638722085 0
0.12999933500710381 0.034836236057871617 0
0.12999932293094171 0.036375158147576671 0
0.12999932367141726 0.037928844869327086 0
0.1299992978747474 0.039507169233319657 0
0.12999934392776766 0.041121692029463065 0
0.12999939739445593 0.042785777744978375 0
0.12999945356736847 0.044512625191526912 0
0.12999949877148056 0.04632215812219112 0
0.12999953356106386 0.048239850403946884 0
0.12999956387416625 0.050303197356019652 0
0.12999958809226195 0.052564685496344056 0
0.12999960941993485 0.055112058037206466 0
0.12999963007431276 0.058109119496369765 0
0.12999966943896216 0.062005311145280587 0
0.14999988609483572 0.015841927377360461 0
0.14999987440819609 0.018181187533991894 0
0.1499998658085033 0.020083388425061639 0
0.14999985776352209 0.02192677813233283 0
0.14999984701999236 0.023697157789597585 0
0.14999983856951951 0.025400399445272965 0
0.1499998354521164 0.027047731437483961 0
0.1499998291290385 0.028651138000563969 0
0.14999981740700424 0.030221951568338717 0
0.14999979159071525 0.031770604887983687 0
0.14999976535801648 0.033306961784418651 0
0.14999974503636965 0.034840266842642575 0
0.14999972299159814 0.036379437316334612 0
0.14999970419882391 0.037933657426476412 0
0.14999969943411043 0.039512406126790571 0
0.14999971928702699 0.041126992922420072 0
0.14999974852281897 0.042790155799436617 0
0.14999978106466175 0.044516491086938767 0
0.1499997750088384 0.046326070771915119 0
0.1499997725111844 0.048244491808329071 0
0.14999978222525048 0.050308019548502954 0
0.14999979698578564 0.052569751243917238 0
0.14999980701565455 0.055117495299890837 0
0.1499998125967261 0.058114963805458483 0
0.14999983003233722 0.062011253685161409 0
0.16999993922389525 0.015842086072578566 0
0.1699999324039298 0.018181705303005224 0
0.16999992606042771 0.020084347717777819 0
0.16999991981923424 0.021927651429621896 0
0.16999991092788774 0.023698045134064667 0
0.1699999021545677 0.025401363886883573 0
0.16999988936233465 0.027048749221446809 0
0.16999988379672318 0.028652163978411287 0
0.16999987420402987 0.030222924266538265 0
0.16999986017603441 0.031771371512908791 0
0.16999983856579434 0.033307869710409777 0
0.16999979061748649 0.034841079766607726 0
0.16999976900810251 0.03637997219724759 0
0.16999973979129196 0.037934706919172202 0
0.16999975418539309 0.039513629794151864 0
0.1699998063952938 0.041128572849632283 0
0.16999982822267756 0.042791856492078478 0
0.1699998297390527 0.04451759239328066 0
0.16999980847401949 0.046327154296922253 0
0.16999982712555251 0.048245779540339352 0
0.16999985112688867 0.050309373916446819 0
0.16999986655523924 0.05257124288981059 0
0.16999986754501606 0.055119279722151436 0
0.16999987499464672 0.058117905821603089 0
0.16999989172006325 0.062013097050393942 0
0.18999995375463216 0.015842591669035143 0
0.18999994877525109 0.018181731979501955 0
0.18999994835334316 0.020083965660962204 0
0.18999994393328537 0.02192761608821266 0
0.18999993759919842 0.023698348609875134 0
0.18999992685243483 0.025401530097655743 0
0.18999992339823862 0.027048894853041426 0
0.18999990637386821 0.028652369745783144 0
0.18999989180367652 0.030223056723172027 0
0.18999988239715873 0.031771421459436115 0
0.18999988566507503 0.033308242006069341 0
0.18999989920456001 0.034841654128524073 0
0.18999990922225651 0.036380824130467705 0
0.1899999079868776 0.037935444000370452 0
0.18999990920625354 0.039514342236745992 0
0.18999990939533348 0.041128896787323253 0
0.18999989862257291 0.042791741641067013 0
0.1899998752177269 0.044517958989509228 0
0.18999984799284148 0.046327508053514078 0
0.18999990236054198 0.048246048323013713 0
0.18999990905528477 0.050309373845498953 0
0.18999992459339402 0.052570547139678417 0
0.18999993332562373 0.055117149843858029 0
0.18999994150662025 0.058116660504543241 0
0.18999995302023123 0.062012967382167022 0
0.20999998601808115 0.01584260495118683 0
0.20999998431841008 0.018181787557205651 0
0.209999980879162 0.020083804578229829 0
0.20999997780070226 0.021927071158791202 0
0.20999997453803282 0.023697774832288635 0
0.20999996572567958 0.025400965609339979 0
0.20999996427278264 0.027048420622426982 0
0.20999996319932773 0.028652080846239825 0
0.209999963288658 0.030222908374345079 0
0.20999994677627487 0.031771387804115689 0
0.20999994290016744 0.03330747058356489 0
0.20999993922190308 0.034840809388101024 0
0.20999994677660189 0.036380707054782843 0
0.2099999375453005 0.03793525205680557 0
0.2099999407999196 0.039514049926394922 0
0.20999994677915435 0.041128452479139571 0
0.20999994674902533 0.04279114043000877 0
0.20999994677762437 0.044517494178404726 0
0.20999997214074065 0.046327030161858823 0
0.20999996982577257 0.048245542956289938 0
0.20999996624711043 0.050308833953479459 0
0.20999996036938792 0.052569943009060517 0
0.20999996661390755 0.055116364281319399 0
0.2099999737504058 0.058115670898215871 0
0.20999998181077956 0.062012258892172718 0
0.2300000683134025 0.015841686930579003 0
0.23000007306112966 0.018180789817452147 0
0.2300000814968958 0.020082772693897438 0
0.23000008292709645 0.021925998228346281 0
0.23000007937384548 0.023696288374574041 0
0.23000008601151742 0.025399728024473944 0
0.23000009836335003 0.027047531151391295 0
0.23000011070759721 0.028650759966851212 0
0.23000011873403278 0.030221440800791935 0
0.2300001213470326 0.031769875504278233 0
0.23000012480633422 0.033305672257840327 0
0.23000013712604939 0.034839276116484311 0
0.23000020047854641 0.036379307721298514 0
0.23000013938902666 0.037933605368044375 0
0.23000011898205955 0.039512304270029067 0
0.23000014771094185 0.041126595203805412 0
0.23000015264070836 0.042789162509684522 0
0.23000015741251723 0.044515663272804623 0
0.23000019335355998 0.046325214221474724 0
0.23000015024843207 0.048243565536474804 0
0.23000013381407983 0.050306877021357041 0
0.23000011356859906 0.052568361833701324 0
0.23000010593639345 0.055116522000552365 0
0.23000010257863926 0.058113753577716552 0
0.23000009501357987 0.062010176808044756 0
0.25000020743489054 0.015839462867004033 0
0.25000023037106683 0.018178308496475365 0
0.25000025305749018 0.020080211907895648 0
0.25000027436358169 0.021923399046492941 0
0.2500002901209481 0.023693538100716834 0
0.25000030585237115 0.025396818054242248 0
0.25000033102759128 0.027044078252169954 0
0.25000035232672585 0.02864742381356699 0
0.25000037108656298 0.030218098612721199 0
0.25000040137969709 0.031766581670397392 0
0.25000044712775799 0.033302662791861073 0
0.25000053284294249 0.034835864001492779 0
0.25000057008028137 0.036375026589591783 0
0.25000062449828786 0.037929137124556346 0
0.2500006278434837 0.039507602900989439 0
0.25000058226177607 0.041121461756807018 0
0.25000054525058402 0.042783633687980216 0
0.25000049593621204 0.044510541777938777 0
0.25000045878420063 0.046320057760858208 0
0.25000042545536971 0.048237545264985429 0
0.25000039493485526 0.050300239414957128 0
0.25000036595317382 0.052561489848137535 0
0.25000034030453128 0.055112848039404284 0
0.25000031926093885 0.058108315146837862 0
0.25000028254668744 0.062004006721491985 0
0.27000057648237885 0.015834348172329312 0
0.27000065398069228 0.018172634363932325 0
0.27000071150354032 0.020074018333756657 0
0.27000076704887888 0.021916946228405162 0
0.27000081815279209 0.023687142322635028 0
0.27000087605609174 0.025390119764642571 0
0.27000093389722135 0.027036295922232046 0
0.27000099140192368 0.028639841674326014 0
0.27000106746319169 0.030210353954425926 0
0.27000116189140827 0.031758460536246022 0
0.27000127297085807 0.033294347493041158 0
0.27000138198965412 0.034827211078255239 0
0.27000154288396083 0.036365953643820406 0
0.2700016780769014 0.037919769900950154 0
0.27000163914525255 0.039498012920253976 0
0.27000149981816229 0.04111170864290857 0
0.27000136216420856 0.042773649830546961 0
0.27000123982026342 0.044499484755580174 0
0.27000111829614909 0.046308300647107101 0
0.27000101799843135 0.048225720405056127 0
0.27000093314139867 0.050287881332416899 0
0.27000085910733257 0.05254812951256542 0
0.2700007927616746 0.055096932723452778 0
0.27000074047725436 0.058092923008800347 0
0.27000066339918033 0.061987339756146231 0
0.29000180360657501 0.015827654335757377 0
0.29000202909560968 0.018165173041779729 0
0.29000219567318974 0.02006592253035399 0
0.29000235578470429 0.021907970898693015 0
0.29000251989258186 0.023676941637858728 0
0.29000268432548298 0.025378481139707629 0
0.29000285693267053 0.027023604165883949 0
0.29000305073616528 0.028626062589609178 0
0.29000327498339062 0.030195274020288595 0
0.2900035257915608 0.031741925964149632 0
0.29000382913964029 0.033276252752606268 0
0.29000422603479292 0.034807445300145318 0
0.29000460694755564 0.036344420808689201 0
0.29000465927855645 0.037896300902446285 0
0.29000443259582875 0.039472623583719703 0
0.2900040756397963 0.041084370224907414 0
0.29000367303238489 0.042744270290340287 0
0.29000327008438292 0.044467738099950568 0
0.29000289884089098 0.046274354083512111 0
0.29000257891074105 0.048189635765823413 0
0.29000231142118355 0.050249286549821325 0
0.29000209916469066 0.052506551905216685 0
0.2900019308705139 0.055049771999638376 0
0.29000179799264741 0.058041859503870787 0
0.29000159697021644 0.061930760409112731 0
0.31000537066224448 0.015882670333262964 0
0.31000599376103288 0.018218643131899047 0
0.31000645854737341 0.020116072477818728 0
0.31000688180664476 0.02195253525668334 0
0.31000727547607732 0.023714375823067072 0
0.31000767068676938 0.025407849815663554 0
0.31000806351938176 0.027044645019594599 0
0.31000846296882162 0.028637776811185924 0
0.31000889439954693 0.030197262905237131 0
0.31000941419763572 0.031733829097254196 0
0.31001037361206901 0.033257599104708421 0
0.31001220415388453 0.034777790488148358 0
0.31001324927807616 0.036303245955987148 0
0.31001302773245965 0.037843157454316878 0
0.31001211613468838 0.03940700701789062 0
0.3100109780346359 0.04100572754067406 0
0.31000974187005481 0.042652012724247665 0
0.31000850429474691 0.044361163188647454 0
0.31000735362219978 0.046153079094916213 0
0.31000634854582881 0.048052631660819814 0
0.31000551346301919 0.050094594823988522 0
0.31000484892632985 0.05233209663226239 0
0.31000435157998385 0.054853943455715766 0
0.3100039429714237 0.057823305978534037 0
0.31000342876501563 0.061682823809795194 0
0.33000989755908555 0.017102976531880233 0
0.33001091986470615 0.019219343736824632 0
0.33001174494662266 0.020927075562009265 0
0.33001254125981355 0.022612447844300918 0
0.33001325622443106 0.024250344925569264 0
0.33001387724515485 0.02583903361517341 0
0.33001444227250831 0.027385388598985431 0
0.33001501005694772 0.028896940721332962 0
0.33001557799540288 0.030381269391787001 0
0.33001622644540579 0.031847661502269219 0
0.33001746154346051 0.033304365356113301 0
0.33001924652218501 0.034759340070238343 0
0.330019949257429 0.03622058448595266 0
0.33001918263805574 0.037696372430536175 0
0.3300177325406865 0.039195339176019861 0
0.33001603087824938 0.04072728543087583 0
0.33001427992779686 0.042303722669737677 0
0.33001258999184646 0.043938340630545941 0
0.33001103750231808 0.045650529308755683 0
0.33000968316217622 0.047459212410031981 0
0.33000855316100625 0.049397701028744342 0
0.3300076524110982 0.051514753080174239 0
0.33000694815993309 0.053885445595311707 0
0.33000639994277364 0.056648299114607462 0
0.33000567701121408 0.060172779069172094 0
0 0 0
0 0.020000000000000004 0
0 0.040000000000000001 0
0 0.54999999999999993 0
0 0.56000000000000005 0
0 0.58000000000000007 0
0.02 0 0
0.02 0.020000000000000004 0
0.02 0.040000000000000001 0
0.02 0.54999999999999993 0
0.02 0.56000000000000005 0
0.02 0.58000000000000007 0
0.040000000000000001 0 0
0.040000000000000001 0.020000000000000004 0
0.040000000000000001 0.040000000000000001 0
0.040000000000000001 0.54999999999999993 0
0.040000000000000001 0.56000000000000005 0
0.040000000000000001 0.58000000000000007 0
0.059999999999999998 0 0
0.059999999999999998 0.020000000000000004 0
0.059999999999999998 0.040000000000000001 0
0.059999999999999998 0.54999999999999993 0
0.059999999999999998 0.56000000000000005 0
0.059999999999999998 0.58000000000000007 0
0.080000000000000002 0 0
0.080000000000000002 0.020000000000000004 0
0.080000000000000002 0.040000000000000001 0
0.080000000000000002 0.54999999999999993 0
0.080000000000000002 0.56000000000000005 0
0.080000000000000002 0.58000000000000007 0
0.10000000000000001 0 0
0.10000000000000001 0.020000000000000004 0
0.10000000000000001 0.040000000000000001 0
0.10000000000000001 0.54999999999999993 0
0.10000000000000001 0.56000000000000005 0
0.10000000000000001 0.58000000000000007 0
0.12 0 0
0.12 0.020000000000000004 0
0.12 0.040000000000000001 0
0.12 0.54999999999999993 0
0.12 0.56000000000000005 0
0.12 0.58000000000000007 0
0.14000000000000001 0 0
0.14000000000000001 0.020000000000000004 0
0.14000000000000001 0.040000000000000001 0
0.14000000000000001 0.54999999999999993 0
0.14000000000000001 0.56000000000000005 0
0.14000000000000001 0.58000000000000007 0
0.16 0 0
0.16 0.020000000000000004 0
0.16 0.040000000000000001 0
0.16 0.54999999999999993 0
0.16 0.56000000000000005 0
0.16 0.58000000000000007 0
0.17999999999999999 0 0
0.17999999999999999 0.020000000000000004 0
0.17999999999999999 0.040000000000000001 0
0.17999999999999999 0.54999999999999993 0
0.17999999999999999 0.56000000000000005 0
0.17999999999999999 0.58000000000000007 0
0.20000000000000001 0 0
0.20000000000000001 0.020000000000000004 0
0.20000000000000001 0.040000000000000001 0
0.20000000000000001 0.54999999999999993 0
0.20000000000000001 0.56000000000000005 0
0.20000000000000001 0.58000000000000007 0
0.22 0 0
0.22 0.020000000000000004 0
0.22 0.040000000000000001 0
0.22 0.54999999999999993 0
0.22 0.56000000000000005 0
0.22 0.58000000000000007 0
0.23999999999999999 0 0
0.23999999999999999 0.020000000000000004 0
0.23999999999999999 0.040000000000000001 0
0.23999999999999999 0.54999999999999993 0
0.23999999999999999 0.56000000000000005 0
0.23999999999999999 0.58000000000000007 0
0.26000000000000001 0 0
0.26000000000000001 0.020000000000000004 0
0.26000000000000001 0.040000000000000001 0
0.26000000000000001 0.54999999999999993 0
0.26000000000000001 0.56000000000000005 0
0.26000000000000001 0.58000000000000007 0
0.28000000000000003 0 0
0.28000000000000003 0.020000000000000004 0
0.28000000000000003 0.040000000000000001 0
0.28000000000000003 0.54999999999999993 0
0.28000000000000003 0.56000000000000005 0
0.28000000000000003 0.58000000000000007 0
0.29999999999999999 0 0
0.29999999999999999 0.020000000000000004 0
0.29999999999999999 0.040000000000000001 0
0.29999999999999999 0.54999999999999993 0
0.29999999999999999 0.56000000000000005 0
0.29999999999999999 0.58000000000000007 0
0.32000000000000001 0 0
0.32000000000000001 0.020000000000000004 0
0.32000000000000001 0.040000000000000001 0
0.32000000000000001 0.54999999999999993 0
0.32000000000000001 0.56000000000000005 0
0.32000000000000001 0.58000000000000007 0
0.34000000000000002 0 0
0.34000000000000002 0.020000000000000004 0
0.34000000000000002 0.040000000000000001 0
0.34000000000000002 0.54999999999999993 0
0.34000000000000002 0.56000000000000005 0
0.34000000000000002 0.58000000000000007 0
0.35999999999999999 0 0
0.35999999999999999 0.020000000000000004 0
0.35999999999999999 0.040000000000000001 0
0.35999999999999999 0.54999999999999993 0
0.35999999999999999 0.56000000000000005 0
0.35999999999999999 0.58000000000000007 0
0.38 0 0
0.38 0.020000000000000004 0
0.38 0.040000000000000001 0
0.38 0.54999999999999993 0
0.38 0.56000000000000005 0
0.38 0.58000000000000007 0
0.40000000000000002 0 0
0.40000000000000002 0.020000000000000004 0
0.40000000000000002 0.040000000000000001 0
0.40000000000000002 0.54999999999999993 0
0.40000000000000002 0.56000000000000005 0
0.40000000000000002 0.58000000000000007 0
0.41999999999999998 0 0
0.41999999999999998 0.020000000000000004 0
0.41999999999999998 0.040000000000000001 0
0.41999999999999998 0.54999999999999993 0
0.41999999999999998 0.56000000000000005 0
0.41999999999999998 0.58000000000000007 0
0.44 0 0
0.44 0.020000000000000004 0
0.44 0.040000000000000001 0
0.44 0.54999999999999993 0
0.44 0.56000000000000005 0
0.44 0.58000000000000007 0
0.46000000000000002 0 0
0.46000000000000002 0.020000000000000004 0
0.46000000000000002 0.040000000000000001 0
0.46000000000000002 0.54999999999999993 0
0.46000000000000002 0.56000000000000005 0
0.46000000000000002 0.58000000000000007 0
0.47999999999999998 0 0
0.47999999999999998 0.020000000000000004 0
0.47999999999999998 0.040000000000000001 0
0.47999999999999998 0.54999999999999993 0
0.47999999999999998 0.56000000000000005 0
0.47999999999999998 0.58000000000000007 0
0.5 0 0
0.5 0.020000000000000004 0
0.5 0.040000000000000001 0
0.5 0.54999999999999993 0
0.5 0.56000000000000005 0
0.5 0.58000000000000007 0
0.52000000000000002 0 0
0.52000000000000002 0.020000000000000004 0
0.52000000000000002 0.040000000000000001 0
0.52000000000000002 0.54999999999999993 0
0.52000000000000002 0.56000000000000005 0
0.52000000000000002 0.58000000000000007 0
0.54000000000000004 0 0
0.54000000000000004 0.020000000000000004 0
0.54000000000000004 0.040000000000000001 0
0.54000000000000004 0.54999999999999993 0
0.54000000000000004 0.56000000000000005 0
0.54000000000000004 0.58000000000000007 0
0.56000000000000005 0 0
0.56000000000000005 0.020000000000000004 0
0.56000000000000005 0.040000000000000001 0
0.56000000000000005 0.54999999999999993 0
0.56000000000000005 0.56000000000000005 0
0.56000000000000005 0.58000000000000007 0
0.57999999999999996 0 0
0.57999999999999996 0.020000000000000004 0
0.57999999999999996 0.040000000000000001 0
0.57999999999999996 0.54999999999999993 0
0.57999999999999996 0.56000000000000005 0
0.57999999999999996 0.58000000000000007 0
0.59999999999999998 0 0
0.59999999999999998 0.020000000000000004 0
0.59999999999999998 0.040000000000000001 0
0.59999999999999998 0.54999999999999993 0
0.59999999999999998 0.56000000000000005 0
0.59999999999999998 0.58000000000000007 0
0.62 0 0
0.62 0.020000000000000004 0
0.62 0.040000000000000001 0
0.62 0.54999999999999993 0
0.62 0.56000000000000005 0
0.62 0.58000000000000007 0
0.64000000000000001 0 0
0.64000000000000001 0.020000000000000004 0
0.64000000000000001 0.040000000000000001 0
0.64000000000000001 0.54999999999999993 0
0.64000000000000001 0.56000000000000005 0
0.64000000000000001 0.58000000000000007 0
0.66000000000000003 0 0
0.66000000000000003 0.020000000000000004 0
0.66000000000000003 0.040000000000000001 0
0.66000000000000003 0.54999999999999993 0
0.66000000000000003 0.56000000000000005 0
0.66000000000000003 0.58000000000000007 0
0.68000000000000005 0 0
0.68000000000000005 0.020000000000000004 0
0.68000000000000005 0.040000000000000001 0
0.68000000000000005 0.54999999999999993 0
0.68000000000000005 0.56000000000000005 0
0.68000000000000005 0.58000000000000007 0
0.70000000000000007 0 0
0.70000000000000007 0.020000000000000004 0
0.70000000000000007 0.040000000000000001 0
0.70000000000000007 0.54999999999999993 0
0.70000000000000007 0.56000000000000005 0
0.70000000000000007 0.58000000000000007 0
0.71999999999999997 0 0
0.71999999999999997 0.020000000000000004 0
0.71999999999999997 0.040000000000000001 0
0.71999999999999997 0.54999999999999993 0
0.71999999999999997 0.56000000000000005 0
0.71999999999999997 0.58000000000000007 0
0.73999999999999999 0 0
0.73999999999999999 0.020000000000000004 0
0.73999999999999999 0.040000000000000001 0
0.73999999999999999 0.54999999999999993 0
0.73999999999999999 0.56000000000000005 0
0.73999999999999999 0.58000000000000007 0
0.76000000000000001 0 0
0.76000000000000001 0.020000000000000004 0
0.76000000000000001 0.040000000000000001 0
0.76000000000000001 0.54999999999999993 0
0.76000000000000001 0.56000000000000005 0
0.76000000000000001 0.58000000000000007 0
0.78000000000000003 0 0
0.78000000000000003 0.020000000000000004 0
0.78000000000000003 0.040000000000000001 0
0.78000000000000003 0.54999999999999993 0
0.78000000000000003 0.56000000000000005 0
0.78000000000000003 0.58000000000000007 0
0.80000000000000004 0 0
0.80000000000000004 0.020000000000000004 0
0.80000000000000004 0.040000000000000001 0
0.80000000000000004 0.54999999999999993 0
0.80000000000000004 0.56000000000000005 0
0.80000000000000004 0.58000000000000007 0
0.82000000000000006 0 0
0.82000000000000006 0.020000000000000004 0
0.82000000000000006 0.040000000000000001 0
0.82000000000000006 0.54999999999999993 0
0.82000000000000006 0.56000000000000005 0
0.82000000000000006 0.58000000000000007 0
0.83999999999999997 0 0
0.83999999999999997 0.020000000000000004 0
0.83999999999999997 0.040000000000000001 0
0.83999999999999997 0.54999999999999993 0
0.83999999999999997 0.56000000000000005 0
0.83999999999999997 0.58000000000000007 0
0.85999999999999999 0 0
0.85999999999999999 0.020000000000000004 0
0.85999999999999999 0.040000000000000001 0
0.85999999999999999 0.54999999999999993 0
0.85999999999999999 0.56000000000000005 0
0.85999999999999999 0.58000000000000007 0
0.88 0 0
0.88 0.020000000000000004 0
0.88 0.040000000000000001 0
0.88 0.54999999999999993 0
0.88 0.56000000000000005 0
0.88 0.58000000000000007 0
0.90000000000000002 0 0
0.90000000000000002 0.020000000000000004 0
0.90000000000000002 0.040000000000000001 0
0.90000000000000002 0.54999999999999993 0
0.90000000000000002 0.56000000000000005 0
0.90000000000000002 0.58000000000000007 0
0.92000000000000004 0 0
0.92000000000000004 0.020000000000000004 0
0.92000000000000004 0.040000000000000001 0
0.92000000000000004 0.54999999999999993 0
0.92000000000000004 0.56000000000000005 0
0.92000000000000004 0.58000000000000007 0
0.94000000000000006 0 0
0.94000000000000006 0.020000000000000004 0
0.94000000000000006 0.040000000000000001 0
0.94000000000000006 0.54999999999999993 0
0.94000000000000006 0.56000000000000005 0
0.94000000000000006 0.58000000000000007 0
0.95999999999999996 0 0
0.95999999999999996 0.020000000000000004 0
0.95999999999999996 0.040000000000000001 0
0.95999999999999996 0.54999999999999993 0
0.95999999999999996 0.56000000000000005 0
0.95999999999999996 0.58000000000000007 0
0.97999999999999998 0 0
0.97999999999999998 0.020000000000000004 0
0.97999999999999998 0.040000000000000001 0
0.97999999999999998 0.54999999999999993 0
0.97999999999999998 0.56000000000000005 0
0.97999999999999998 0.58000000000000007 0
1 0 0
1 0.020000000000000004 0
1 0.040000000000000001 0
1 0.54999999999999993 0
1 0.56000000000000005 0
1 0.58000000000000007 0
VERTICES 681 1362
1 0
1 1
1 2
1 3
1 4
1 5
1 6
1 7
1 8
1 9
1 10
1 11
1 12
1 13
1 14
1 15
1 16
1 17
1 18
1 19
1 20
1 21
1 22
1 23
1 24
1 25
1 26
1 27
1 28
1 29
1 30
1 31
1 32
1 33
1 34
1 35
1 36
1 37
1 38
1 39
1 40
1 41
1 42
1 43
1 44
1 45
1 46
1 47
1 48
1 49
1 50
1 51
1 52
1 53
1 54
1 55
1 56
1 57
1 58
1 59
1 60
1 61
1 62
1 63
1 64
1 65
1 66
1 67
1 68
1 69
1 70
1 71
1 72
1 73
1 74
1 75
1 76
1 77
1 78
1 79
1 80
1 81
1 82
1 83
1 84
1 85
1 86
1 87
1 88
1 89
1 90
1 91
1 92
1 93
1 94
1 95
1 96
1 97
1 98
1 99
1 100
1 101
1 102
1 103
1 104
1 105
1 106
1 107
1 108
1 109
1 110
1 111
1 112
1 113
1 114
1 115
1 116
1 117
1 118
1 119
1 120
1 121
1 122
1 123
1 124
1 125
1 126
1 127
1 128
1 129
1 130
1 131
1 132
1 133
1 134
1 135
1 136
1 137
1 138
1 139
1 140
1 141
1 142
1 143
1 144
1 145
1 146
1 147
1 148
1 149
1 150
1 151
1 152
1 153
1 154
1 155
1 156
1 157
1 158
1 159
1 160
1 161
1 162
1 163
1 164
1 165
1 166
1 167
1 168
1 169
1 170
1 171
1 172
1 173
1 174
1 175
1 176
1 177
1 178
1 179
1 180
1 181
1 182
1 183
1 184
1 185
1 186
1 187
1 188
1 189
1 190
1 191
1 192
1 193
1 194
1 195
1 196
1 197
1 198
1 199
1 200
1 201
1 202
1 203
1 204
1 205
1 206
1 207
1 208
1 209
1 210
1 211
1 212
1 213
1 214
1 215
1 216
1 217
1 218
1 219
1 220
1 221
1 222
1 223
1 224
1 225
1 226
1 227
1 228
1 229
1 230
1 231
1 232
1 233
1 234
1 235
1 236
1 237
1 238
1 239
1 240
1 241
1 242
1 243
1 244
1 245
1 246
1 247
1 248
1 249
1 250
1 251
1 252
1 253
1 254
1 255
1 256
1 257
1 258
1 259
1 260
1 261
1 262
1 263
1 264
1 265
1 266
1 267
1 268
1 269
1 270
1 271
1 272
1 273
1 274
1 275
1 276
1 277
1 278
1 279
1 280
1 281
1 282
1 283
1 284
1 285
1 286
1 287
1 288
1 289
1 290
1 291
1 292
1 293
1 294
1 295
1 296
1 297
1 298
1 299
1 300
1 301
1 302
1 303
1 304
1 305
1 306
1 307
1 308
1 309
1 310
1 311
1 312
1 313
1 314
1 315
1 316
1 317
1 318
1 319
1 320
1 321
1 322
1 323
1 324
1 325
1 326
1 327
1 328
1 329
1 330
1 331
1 332
1 333
1 334
1 335
1 336
1 337
1 338
1 339
1 340
1 341
1 342
1 343
1 344
1 345
1 346
1 347
1 348
1 349
1 350
1 351
1 352
1 353
1 354
1 355
1 356
1 357
1 358
1 359
1 360
1 361
1 362
1 363
1 364
1 365
1 366
1 367
1 368
1 369
1 370
1 371
1 372
1 373
1 374
1 375
1 376
1 377
1 378
1 379
1 380
1 381
1 382
1 383
1 384
1 385
1 386
1 387
1 388
1 389
1 390
1 391
1 392
1 393
1 394
1 395
1 396
1 397
1 398
1 399
1 400
1 401
1 402
1 403
1 404
1 405
1 406
1 407
1 408
1 409
1 410
1 411
1 412
1 413
1 414
1 415
1 416
1 417
1 418
1 419
1 420
1 421
1 422
1 423
1 424
1 425
1 426
1 427
1 428
1 429
1 430
1 431
1 432
1 433
1 434
1 435
1 436
1 437
1 438
1 439
1 440
1 441
1 442
1 443
1 444
1 445
1 446
1 447
1 448
1 449
1 450
1 451
1 452
1 453
1 454
1 455
1 456
1 457
1 458
1 459
1 460
1 461
1 462
1 463
1 464
1 465
1 466
1 467
1 468
1 469
1 470
1 471
1 472
1 473
1 474
1 475
1 476
1 477
1 478
1 479
1 480
1 481
1 482
1 483
1 484
1 485
1 486
1 487
1 488
1 489
1 490
1 491
1 492
1 493
1 494
1 495
1 496
1 497
1 498
1 499
1 500
1 501
1 502
1 503
1 504
1 505
1 506
1 507
1 508
1 509
1 510
1 511
1 512
1 513
1 514
1 515
1 516
1 517
1 518
1 519
1 520
1 521
1 522
1 523
1 524
1 525
1 526
1 527
1 528
1 529
1 530
1 531
1 532
1 533
1 534
1 535
1 536
1 537
1 538
1 539
1 540
1 541
1 542
1 543
1 544
1 545
1 546
1 547
1 548
1 549
1 550
1 551
1 552
1 553
1 554
1 555
1 556
1 557
1 558
1 559
1 560
1 561
1 562
1 563
1 564
1 565
1 566
1 567
1 568
1 569
1 570
1 571
1 572
1 573
1 574
1 575
1 576
1 577
1 578
1 579
1 580
1 581
1 582
1 583
1 584
1 585
1 586
1 587
1 588
1 589
1 590
1 591
1 592
1 593
1 594
1 595
1 596
1 597
1 598
1 599
1 600
1 601
1 602
1 603
1 604
1 605
1 606
1 607
1 608
1 609
1 610
1 611
1 612
1 613
1 614
1 615
1 616
1 617
1 618
1 619
1 620
1 621
1 622
1 623
1 624
1 625
1 626
1 627
1 628
1 629
1 630
1 631
1 632
1 633
1 634
1 635
1 636
1 637
1 638
1 639
1 640
1 641
1 642
1 643
1 644
1 645
1 646
1 647
1 648
1 649
1 650
1 651
1 652
1 653
1 654
1 655
1 656
1 657
1 658
1 659
1 660
1 661
1 662
1 663
1 664
1 665
1 666
1 667
1 668
1 669
1 670
1 671
1 672
1 673
1 674
1 675
1 676
1 677
1 678
1 679
1 680
POINT_DATA 681
SCALARS is_boundary int 1
LOOKUP_TABLE default
0
0
0
0
0
0
0
0
0
0
0
0
0
0
0
0
0
0
0
0
0
0
0
0
0
0
0
0
0
0
0
0
0
0
0
0
0
0
0
0
0
0
0
0
0
0
0
0
0
0
0
0
0
0
0
0
0
0
0
0
0
0
0
0
0
0
0
0
0
0
0
0
0
0
0
0
0
0
0
0
0
0
0
0
0
0
0
0
0
0
0
0
0
0
0
0
0
0
0
0
0
0
0
0
0
0
0
0
0
0
0
0
0
0
0
0
0
0
0
0
0
0
0
0
0
0
0
0
0
0
0
0
0
0
0
0
0
0
0
0
0
0
0
0
0
0
0
0
0
0
0
0
0
0
0
0
0
0
0
0
0
0
0
0
0
0
0
0
0
0
0
0
0
0
0
0
0
0
0
0
0
0
0
0
0
0
0
0
0
0
0
0
0
0
0
0
0
0
0
0
0
0
0
0
0
0
0
0
0
0
0
0
0
0
0
0
0
0
0
0
0
0
0
0
0
0
0
0
0
0
0
0
0
0
0
0
0
0
0
0
0
0
0
0
0
0
0
0
0
0
0
0
0
0
0
0
0
0
0
0
0
0
0
0
0
0
0
0
0
0
0
0
0
0
0
0
0
0
0
0
0
0
0
0
0
0
0
0
0
0
0
0
0
0
0
0
0
0
0
0
0
0
0
0
0
0
0
0
0
0
0
0
0
0
0
0
0
0
0
0
0
0
0
0
0
0
0
0
0
0
0
0
0
0
0
0
0
0
0
0
0
0
0
0
0
0
0
0
0
0
0
0
0
0
0
0
0
0
0
0
0
0
0
0
0
0
0
0
0
0
0
0
0
0
0
1
1
1
1
1
1
1
1
1
1
1
1
1
1
1
1
1
1
1
1
1
1
1
1
1
1
1
1
1
1
1
1
1
1
1
1
1
1
1
1
1
1
1
1
1
1
1
1
1
1
1
1
1
1
1
1
1
1
1
1
1
1
1
1
1
1
1
1
1
1
1
1
1
1
1
1
1
1
1
1
1
1
1
1
1
1
1
1
1
1
1
1
1
1
1
1
1
1
1
1
1
1
1
1
1
1
1
1
1
1
1
1
1
1
1
1
1
1
1
1
1
1
1
1
1
1
1
1
1
1
1
1
1
1
1
1
1
1
1
1
1
1
1
1
1
1
1
1
1
1
1
1
1
1
1
1
1
1
1
1
1
1
1
1
1
1
1
1
1
1
1
1
1
1
1
1
1
1
1
1
1
1
1
1
1
1
1
1
1
1
1
1
1
1
1
1
1
1
1
1
1
1
1
1
1
1
1
1
1
1
1
1
1
1
1
1
1
1
1
1
1
1
1
1
1
1
1
1
1
1
1
1
1
1
1
1
1
1
1
1
1
1
1
1
1
1
1
1
1
1
1
1
1
1
1
1
1
1
1
1
1
1
1
1
1
1
1
1
1
1
1
1
1
1
1
1
1
1
1
1
1
1
1
1
1
1
1
1
1
1
1
1
1
1
1
1
1
1
1
1
1
1
1
1
1
1
SCALARS rho float 1
LOOKUP_TABLE default
1020
1020
1020
1020
1020
1020
1020
1020
1020
1020
1020
1020
1020
1020
1020
1020
1020
1020
1020
1020
1020
1020
1020
1020
1020
1020
1020
1020
1020
1020
1020
1020
1020
1020
1020
1020
1020
1020
1020
1020
1020
1020
1020
1020
1020
1020
1020
1020
1020
1020
1020
1020
1020
1020
1020
1020
1020
1020
1020
1020
1020
1020
1020
1020
1020
1020
1020
1020
1020
1020
1020
1020
1020
1020
1020
1020
1020
1020
1020
1020
1020
1020
1020
1020
1020
1020
1020
1020
1020
1020
1020
1020
1020
1020
1020
1020
1020
1020
1020
1020
1020
1020
1020
1020
1020
1020
1020
1020
1020
1020
1020
1020
1020
1020
1020
1020
1020
1020
1020
1020
1020
1020
1020
1020
1020
1020
1020
1020
1020
1020
1020
1020
1020
1020
1020
1020
1020
1020
1020
1020
1020
1020
1020
1020
1020
1020
1020
1020
1020
1020
1020
1020
1020
1020
1020
1020
1020
1020
1020
1020
1020
1020
1020
1020
1020
1020
1020
1020
1020
1020
1020
1020
1020
1020
1020
1020
1020
1020
1020
1020
1020
1020
1020
1020
1020
1020
1020
1020
1020
1020
1020
1020
1020
1020
1020
1020
1020
1020
1020
1020
1020
1020
1020
1020
1020
1020
1020
1020
1020
1020
1020
1020
1020
1020
1020
1020
1020
1020
1020
1020
1020
1020
1020
1020
1020
1020
1020
1020
1020
1020
1020
1020
1020
1020
1020
1020
1020
1020
1020
1020
1020
1020
1020
1020
1020
1020
1020
1020
1020
1020
1020
1020
1020
1020
1020
1020
1020
1020
1020
1020
1020
1020
1020
1020
1020
1020
1020
1020
1020
1020
1020
1020
1020
1020
1020
1020
1020
1020
1020
1020
1020
1020
1020
1020
1020
1020
1020
1020
1020
1020
1020
1020
1020
1020
1020
1020
1020
1020
1020
1020
1020
1020
1020
1020
1020
1020
1020
1020
1020
1020
1020
1020
1020
1020
1020
1020
1020
1020
1020
1020
1020
1020
1020
1020
1020
1020
1020
1020
1020
1020
1020
1020
1020
1020
1020
1020
1020
1020
1020
1020
1020
1020
1020
1020
1020
1020
1020
1020
1020
1020
1020
1020
1020
1020
1020
1020
1020
1020
1020
1020
1020
1020
1020
1020
1020
1020
1020
1020
1020
1020
1020
1020
1020
1020
1020
1000
1000
1000
1000
1000
1000
1000
1000
1000
1000
1000
1000
1000
1000
1000
1000
1000
1000
1000
1000
1000
1000
1000
1000
1000
1000
1000
1000
1000
1000
1000
1000
1000
1000
1000
1000
1000
1000
1000
1000
1000
1000
1000
1000
1000
1000
1000
1000
1000
1000
1000
1000
1000
1000
1000
1000
1000
1000
1000
1000
1000
1000
1000
1000
1000
1000
1000
1000
1000
1000
1000
1000
1000
1000
1000
1000
1000
1000
1000
1000
1000
1000
1000
1000
1000
1000
1000
1000
1000
1000
1000
1000
1000
1000
1000
1000
1000
1000
1000
1000
1000
1000
1000
1000
1000
1000
1000
1000
1000
1000
1000
1000
1000
1000
1000
1000
1000
1000
1000
1000
1000
1000
1000
1000
1000
1000
1000
1000
1000
1000
1000
1000
1000
1000
1000
1000
1000
1000
1000
1000
1000
1000
1000
1000
1000
1000
1000
1000
1000
1000
1000
1000
1000
1000
1000
1000
1000
1000
1000
1000
1000
1000
1000
1000
1000
1000
1000
1000
1000
1000
1000
1000
1000
1000
1000
1000
1000
1000
1000
1000
1000
1000
1000
1000
1000
1000
1000
1000
1000
1000
1000
1000
1000
1000
1000
1000
1000
1000
1000
1000
1000
1000
1000
1000
1000
1000
1000
1000
1000
1000
1000
1000
1000
1000
1000
1000
1000
1000
1000
1000
1000
1000
1000
1000
1000
1000
1000
1000
1000
1000
1000
1000
1000
1000
1000
1000
1000
1000
1000
1000
1000
1000
1000
1000
1000
1000
1000
1000
1000
1000
1000
1000
1000
1000
1000
1000
1000
1000
1000
1000
1000
1000
1000
1000
1000
1000
1000
1000
1000
1000
1000
1000
1000
1000
1000
1000
1000
1000
1000
1000
1000
1000
1000
1000
1000
1000
1000
1000
1000
1000
1000
1000
1000
1000
1000
1000
1000
1000
1000
1000
1000
1000
1000
1000
1000
1000
SCALARS p float 1
LOOKUP_TABLE default
25004.681136676067
25004.681136676067
25004.681136676067
25004.681136676067
25004.681136676067
25004.681136676067
25004.681136676067
25004.681136676067
25004.681136676067
25004.681136676067
25004.681136676067
25004.681136676067
25004.681136676067
25004.681136676067
25004.681136676067
25004.681136676067
25004.681136676067
25004.681136676067
25004.681136676067
25004.681136676067
25004.681136676067
25004.681136676067
25004.681136676067
25004.681136676067
25004.681136676067
25004.681136676067
25004.681136676067
25004.681136676067
25004.681136676067
25004.681136676067
25004.681136676067
25004.681136676067
25004.681136676067
25004.681136676067
25004.681136676067
25004.681136676067
25004.681136676067
25004.681136676067
25004.681136676067
25004.681136676067
25004.681136676067
25004.681136676067
25004.681136676067
25004.681136676067
25004.681136676067
25004.681136676067
25004.681136676067
25004.681136676067
25004.681136676067
25004.681136676067
25004.681136676067
25004.681136676067
25004.681136676067
25004.681136676067
25004.681136676067
25004.681136676067
25004.681136676067
25004.681136676067
25004.681136676067
25004.681136676067
25004.681136676067
25004.681136676067
25004.681136676067
25004.681136676067
25004.681136676067
25004.681136676067
25004.681136676067
25004.681136676067
25004.681136676067
25004.681136676067
25004.681136676067
25004.681136676067
25004.681136676067
25004.681136676067
25004.681136676067
25004.681136676067
25004.681136676067
25004.681136676067
25004.681136676067
25004.681136676067
25004.681136676067
25004.681136676067
25004.681136676067
25004.681136676067
25004.681136676067
25004.681136676067
25004.681136676067
25004.681136676067
25004.681136676067
25004.681136676067
25004.681136676067
25004.681136676067
25004.681136676067
25004.681136676067
25004.681136676067
25004.681136676067
25004.681136676067
25004.681136676067
25004.681136676067
25004.681136676067
25004.681136676067
25004.681136676067
25004.681136676067
25004.681136676067
25004.681136676067
25004.681136676067
25004.681136676067
25004.681136676067
25004.681136676067
25004.681136676067
25004.681136676067
25004.681136676067
25004.681136676067
25004.681136676067
25004.681136676067
25004.681136676067
25004.681136676067
25004.681136676067
25004.681136676067
25004.681136676067
25004.681136676067
25004.681136676067
25004.681136676067
25004.681136676067
25004.681136676067
25004.681136676067
25004.681136676067
25004.681136676067
25004.681136676067
25004.681136676067
25004.681136676067
25004.681136676067
25004.681136676067
25004.681136676067
25004.681136676067
25004.681136676067
25004.681136676067
25004.681136676067
25004.681136676067
25004.681136676067
25004.681136676067
25004.681136676067
25004.681136676067
25004.681136676067
25004.681136676067
25004.681136676067
25004.681136676067
25004.681136676067
25004.681136676067
25004.681136676067
25004.681136676067
25004.681136676067
25004.681136676067
25004.681136676067
25004.681136676067
25004.681136676067
25004.681136676067
25004.681136676067
25004.681136676067
25004.681136676067
25004.681136676067
25004.681136676067
25004.681136676067
25004.681136676067
25004.681136676067
25004.681136676067
25004.681136676067
25004.681136676067
25004.681136676067
25004.681136676067
25004.681136676067
25004.681136676067
25004.681136676067
25004.681136676067
25004.681136676067
25004.681136676067
25004.681136676067
25004.681136676067
25004.681136676067
25004.681136676067
25004.681136676067
25004.681136676067
25004.681136676067
25004.681136676067
25004.681136676067
25004.681136676067
25004.681136676067
25004.681136676067
25004.681136676067
25004.681136676067
25004.681136676067
25004.681136676067
25004.681136676067
25004.681136676067
25004.681136676067
25004.681136676067
25004.681136676067
25004.681136676067
25004.681136676067
25004.681136676067
25004.681136676067
25004.681136676067
25004.681136676067
25004.681136676067
25004.681136676067
25004.681136676067
25004.681136676067
25004.681136676067
25004.681136676067
25004.681136676067
25004.681136676067
25004.681136676067
25004.681136676067
25004.681136676067
25004.681136676067
25004.681136676067
25004.681136676067
25004.681136676067
25004.681136676067
25004.681136676067
25004.681136676067
25004.681136676067
25004.681136676067
25004.681136676067
25004.681136676067
25004.681136676067
25004.681136676067
25004.681136676067
25004.681136676067
25004.681136676067
25004.681136676067
25004.681136676067
25004.681136676067
25004.681136676067
25004.681136676067
25004.681136676067
25004.681136676067
25004.681136676067
25004.681136676067
25004.681136676067
25004.681136676067
25004.681136676067
25004.681136676067
25004.681136676067
25004.681136676067
25004.681136676067
25004.681136676067
25004.681136676067
25004.681136676067
25004.681136676067
25004.681136676067
25004.681136676067
25004.681136676067
25004.681136676067
25004.681136676067
25004.681136676067
25004.681136676067
25004.681136676067
25004.681136676067
25004.681136676067
25004.681136676067
25004.681136676067
25004.681136676067
25004.681136676067
25004.681136676067
25004.681136676067
25004.681136676067
25004.681136676067
25004.681136676067
25004.681136676067
25004.681136676067
25004.681136676067
25004.681136676067
25004.681136676067
25004.681136676067
25004.681136676067
25004.681136676067
25004.681136676067
25004.681136676067
25004.681136676067
25004.681136676067
25004.681136676067
25004.681136676067
25004.681136676067
25004.681136676067
25004.681136676067
25004.681136676067
25004.681136676067
25004.681136676067
25004.681136676067
25004.681136676067
25004.681136676067
25004.681136676067
25004.681136676067
25004.681136676067
25004.681136676067
25004.681136676067
25004.681136676067
25004.681136676067
25004.681136676067
25004.681136676067
25004.681136676067
25004.681136676067
25004.681136676067
25004.681136676067
25004.681136676067
25004.681136676067
25004.681136676067
25004.681136676067
25004.681136676067
25004.681136676067
25004.681136676067
25004.681136676067
25004.681136676067
25004.681136676067
25004.681136676067
25004.681136676067
25004.681136676067
25004.681136676067
25004.681136676067
25004.681136676067
25004.681136676067
25004.681136676067
25004.681136676067
25004.681136676067
25004.681136676067
25004.681136676067
25004.681136676067
25004.681136676067
25004.681136676067
25004.681136676067
25004.681136676067
25004.681136676067
25004.681136676067
25004.681136676067
25004.681136676067
25004.681136676067
25004.681136676067
25004.681136676067
25004.681136676067
25004.681136676067
25004.681136676067
25004.681136676067
25004.681136676067
25004.681136676067
25004.681136676067
25004.681136676067
25004.681136676067
25004.681136676067
25004.681136676067
25004.681136676067
25004.681136676067
25004.681136676067
25004.681136676067
25004.681136676067
25004.681136676067
25004.681136676067
25004.681136676067
25004.681136676067
25004.681136676067
25004.681136676067
25004.681136676067
25004.681136676067
25004.681136676067
25004.681136676067
25004.681136676067
25004.681136676067
25004.681136676067
25004.681136676067
25004.681136676067
25004.681136676067
25004.681136676067
25004.681136676067
25004.681136676067
25004.681136676067
0
0
0
0
0
0
24408.174376406219
24984.631395621502
24991.2756661434
0
0
0
24998.607074389452
25003.995133793913
25004.208824884685
0
0
0
25001.810457707066
25004.331256087436
25004.436964842003
0
0
0
25001.999695003211
25004.33643371968
25004.437182589147
0
0
0
25002.011129975261
25004.336000278137
25004.436503621033
0
0
0
25002.008008265151
25004.335757999612
25004.436433250528
0
0
0
25002.006051563942
25004.335648996243
25004.436429350724
0
0
0
25002.005292400689
25004.335606053522
25004.436430887032
0
0
0
25002.005103453597
25004.335593608215
25004.436432291746
0
0
0
25002.005130240264
25004.335594568754
25004.436434479514
0
0
0
25002.005431329246
25004.335611402177
25004.436432675917
0
0
0
25002.006280731886
25004.335659805725
25004.43643256434
0
0
0
25002.008246707956
25004.335769178815
25004.436437986336
0
0
0
25002.011306905202
25004.336006275902
25004.436504388141
0
0
0
25001.999735996473
25004.336431666456
25004.437180929799
0
0
0
25001.810457728538
25004.331256045054
25004.436969340804
0
0
0
24998.606787831974
25003.995099368803
25004.208808704436
0
0
0
24408.055495226177
24984.628237379926
24991.273102484509
0
0
0
0
0
0
0
0
0
0
0
0
0
0
0
0
0
0
0
0
0
0
0
0
0
0
0
0
0
0
0
0
0
0
0
0
0
0
0
0
0
0
0
0
0
0
0
0
0
0
0
0
0
0
0
0
0
0
0
0
0
0
0
0
0
0
0
0
0
0
0
0
0
0
0
0
0
0
0
0
0
0
0
0
0
0
0
0
0
0
0
0
0
0
0
0
0
0
0
0
0
0
0
0
0
0
0
0
0
0
0
0
0
0
0
0
0
0
0
0
0
0
0
0
0
0
0
0
0
0
0
0
0
0
0
0
0
0
0
0
0
0
0
0
0
0
0
0
0
0
0
0
0
0
0
0
0
0
0
0
0
0
0
0
0
0
0
0
0
0
0
0
0
0
0
0
0
0
0
0
0
0
0
0
0
0
0
0
0
0
0
0
0
0
0
SCALARS m float 1
LOOKUP_TABLE default
0.39965556373580352
0.39965556373580352
0.39965556373580352
0.39965556373580352
0.39965556373580352
0.39965556373580352
0.39965556373580352
0.39965556373580352
0.39965556373580352
0.39965556373580352
0.39965556373580352
0.39965556373580352
0.39965556373580352
0.39965556373580352
0.39965556373580352
0.39965556373580352
0.39965556373580352
0.39965556373580352
0.39965556373580352
0.39965556373580352
0.39965556373580352
0.39965556373580352
0.39965556373580352
0.39965556373580352
0.39965556373580352
0.39965556373580352
0.39965556373580352
0.39965556373580352
0.39965556373580352
0.39965556373580352
0.39965556373580352
0.39965556373580352
0.39965556373580352
0.39965556373580352
0.39965556373580352
0.39965556373580352
0.39965556373580352
0.39965556373580352
0.39965556373580352
0.39965556373580352
0.39965556373580352
0.39965556373580352
0.39965556373580352
0.39965556373580352
0.39965556373580352
0.39965556373580352
0.39965556373580352
0.39965556373580352
0.39965556373580352
0.39965556373580352
0.39965556373580352
0.39965556373580352
0.39965556373580352
0.39965556373580352
0.39965556373580352
0.39965556373580352
0.39965556373580352
0.39965556373580352
0.39965556373580352
0.39965556373580352
0.39965556373580352
0.39965556373580352
0.39965556373580352
0.39965556373580352
0.39965556373580352
0.39965556373580352
0.39965556373580352
0.39965556373580352
0.39965556373580352
0.39965556373580352
0.39965556373580352
0.39965556373580352
0.39965556373580352
0.39965556373580352
0.39965556373580352
0.39965556373580352
0.39965556373580352
0.39965556373580352
0.39965556373580352
0.39965556373580352
0.39965556373580352
0.39965556373580352
0.39965556373580352
0.39965556373580352
0.39965556373580352
0.39965556373580352
0.39965556373580352
0.39965556373580352
0.39965556373580352
0.39965556373580352
0.39965556373580352
0.39965556373580352
0.39965556373580352
0.39965556373580352
0.39965556373580352
0.39965556373580352
0.39965556373580352
0.39965556373580352
0.39965556373580352
0.39965556373580352
0.39965556373580352
0.39965556373580352
0.39965556373580352
0.39965556373580352
0.39965556373580352
0.39965556373580352
0.39965556373580352
0.39965556373580352
0.39965556373580352
0.39965556373580352
0.39965556373580352
0.39965556373580352
0.39965556373580352
0.39965556373580352
0.39965556373580352
0.39965556373580352
0.39965556373580352
0.39965556373580352
0.39965556373580352
0.39965556373580352
0.39965556373580352
0.39965556373580352
0.39965556373580352
0.39965556373580352
0.39965556373580352
0.39965556373580352
0.39965556373580352
0.39965556373580352
0.39965556373580352
0.39965556373580352
0.39965556373580352
0.39965556373580352
0.39965556373580352
0.39965556373580352
0.39965556373580352
0.39965556373580352
0.39965556373580352
0.39965556373580352
0.39965556373580352
0.39965556373580352
0.39965556373580352
0.39965556373580352
0.39965556373580352
0.39965556373580352
0.39965556373580352
0.39965556373580352
0.39965556373580352
0.39965556373580352
0.39965556373580352
0.39965556373580352
0.39965556373580352
0.39965556373580352
0.39965556373580352
0.39965556373580352
0.39965556373580352
0.39965556373580352
0.39965556373580352
0.39965556373580352
0.39965556373580352
0.39965556373580352
0.39965556373580352
0.39965556373580352
0.39965556373580352
0.39965556373580352
0.39965556373580352
0.39965556373580352
0.39965556373580352
0.39965556373580352
0.39965556373580352
0.39965556373580352
0.39965556373580352
0.39965556373580352
0.39965556373580352
0.39965556373580352
0.39965556373580352
0.39965556373580352
0.39965556373580352
0.39965556373580352
0.39965556373580352
0.39965556373580352
0.39965556373580352
0.39965556373580352
0.39965556373580352
0.39965556373580352
0.39965556373580352
0.39965556373580352
0.39965556373580352
0.39965556373580352
0.39965556373580352
0.39965556373580352
0.39965556373580352
0.39965556373580352
0.39965556373580352
0.39965556373580352
0.39965556373580352
0.39965556373580352
0.39965556373580352
0.39965556373580352
0.39965556373580352
0.39965556373580352
0.39965556373580352
0.39965556373580352
0.39965556373580352
0.39965556373580352
0.39965556373580352
0.39965556373580352
0.39965556373580352
0.39965556373580352
0.39965556373580352
0.39965556373580352
0.39965556373580352
0.39965556373580352
0.39965556373580352
0.39965556373580352
0.39965556373580352
0.39965556373580352
0.39965556373580352
0.39965556373580352
0.39965556373580352
0.39965556373580352
0.39965556373580352
0.39965556373580352
0.39965556373580352
0.39965556373580352
0.39965556373580352
0.39965556373580352
0.39965556373580352
0.39965556373580352
0.39965556373580352
0.39965556373580352
0.39965556373580352
0.39965556373580352
0.39965556373580352
0.39965556373580352
0.39965556373580352
0.39965556373580352
0.39965556373580352
0.39965556373580352
0.39965556373580352
0.39965556373580352
0.39965556373580352
0.39965556373580352
0.39965556373580352
0.39965556373580352
0.39965556373580352
0.39965556373580352
0.39965556373580352
0.39965556373580352
0.39965556373580352
0.39965556373580352
0.39965556373580352
0.39965556373580352
0.39965556373580352
0.39965556373580352
0.39965556373580352
0.39965556373580352
0.39965556373580352
0.39965556373580352
0.39965556373580352
0.39965556373580352
0.39965556373580352
0.39965556373580352
0.39965556373580352
0.39965556373580352
0.39965556373580352
0.39965556373580352
0.39965556373580352
0.39965556373580352
0.39965556373580352
0.39965556373580352
0.39965556373580352
0.39965556373580352
0.39965556373580352
0.39965556373580352
0.39965556373580352
0.39965556373580352
0.39965556373580352
0.39965556373580352
0.39965556373580352
0.39965556373580352
0.39965556373580352
0.39965556373580352
0.39965556373580352
0.39965556373580352
0.39965556373580352
0.39965556373580352
0.39965556373580352
0.39965556373580352
0.39965556373580352
0.39965556373580352
0.39965556373580352
0.39965556373580352
0.39965556373580352
0.39965556373580352
0.39965556373580352
0.39965556373580352
0.39965556373580352
0.39965556373580352
0.39965556373580352
0.39965556373580352
0.39965556373580352
0.39965556373580352
0.39965556373580352
0.39965556373580352
0.39965556373580352
0.39965556373580352
0.39965556373580352
0.39965556373580352
0.39965556373580352
0.39965556373580352
0.39965556373580352
0.39965556373580352
0.39965556373580352
0.39965556373580352
0.39965556373580352
0.39965556373580352
0.39965556373580352
0.39965556373580352
0.39965556373580352
0.39965556373580352
0.39965556373580352
0.39965556373580352
0.39965556373580352
0.39965556373580352
0.39965556373580352
0.39965556373580352
0.39965556373580352
0.39965556373580352
0.39965556373580352
0.39965556373580352
0.39965556373580352
0.39965556373580352
0.39965556373580352
0.39965556373580352
0.39965556373580352
0.39965556373580352
0.39965556373580352
0.39965556373580352
0.39965556373580352
0.39965556373580352
0.39965556373580352
0.39965556373580352
0.39965556373580352
0.39965556373580352
0.39965556373580352
0.39965556373580352
0.39965556373580352
0.39965556373580352
0.39965556373580352
0.39965556373580352
0.39965556373580352
0.39965556373580352
0.39965556373580352
0.39965556373580352
0.39965556373580352
0.39965556373580352
0.39965556373580352
0.39965556373580352
0.39965556373580352
0.39965556373580352
0.39965556373580352
0.39965556373580352
0.39965556373580352
0.39965556373580352
0.39965556373580352
0.39965556373580352
0.39965556373580352
0.39965556373580352
0.39965556373580352
0.39965556373580352
0.39965556373580352
0.39965556373580352
0.39965556373580352
0.39965556373580352
0.39965556373580352
0.39965556373580352
0.39965556373580352
0.39965556373580352
0.39965556373580352
0.39965556373580352
0.39965556373580352
0.39965556373580352
0.39965556373580352
0.39965556373580352
0.39965556373580352
0.39965556373580352
0.39965556373580352
0.39965556373580352
0.39965556373580352
0.39965556373580352
0.39965556373580352
0.39965556373580352
0.39965556373580352
0.39965556373580352
0.39965556373580352
0.39965556373580352
0.39965556373580352
0.39965556373580352
0.39965556373580352
0.39965556373580352
0.39965556373580352
0.39965556373580352
0.39965556373580352
0.39965556373580352
0.39965556373580352
0.39965556373580352
0.39965556373580352
0.39965556373580352
0.39965556373580352
0.39965556373580352
0.39965556373580352
0.39965556373580352
0.39965556373580352
0.39965556373580352
0.39965556373580352
0.39965556373580352
0.39965556373580352
0.39965556373580352
0.39965556373580352
0.39965556373580352
0.39965556373580352
0.39965556373580352
0.39965556373580352
0.39965556373580352
0.39965556373580352
0.39965556373580352
0.39965556373580352
0.39965556373580352
0.39965556373580352
0.39965556373580352
0.39965556373580352
0.39965556373580352
0.39965556373580352
0.39965556373580352
0.39965556373580352
0.39965556373580352
0.39965556373580352
0.39965556373580352
0.39965556373580352
0.39965556373580352
0.39965556373580352
0.39965556373580352
0.39965556373580352
0.39965556373580352
0.39965556373580352
0.39965556373580352
0.39965556373580352
0.39965556373580352
0.39965556373580352
0.39965556373580352
0.39965556373580352
0.39965556373580352
0.39965556373580352
0.39965556373580352
0.39965556373580352
0.39965556373580352
0.39965556373580352
0.39965556373580352
0.39965556373580352
0.39965556373580352
0.39965556373580352
0.39965556373580352
0.39965556373580352
0.39965556373580352
0.39965556373580352
0.39965556373580352
0.39965556373580352
0.39965556373580352
0.39965556373580352
0.39965556373580352
0.39965556373580352
0.39965556373580352
0.39965556373580352
0.39965556373580352
0.39965556373580352
0.39965556373580352
0.39965556373580352
0.39965556373580352
0.39965556373580352
0.39965556373580352
0.39965556373580352
0.39965556373580352
0.39965556373580352
0.39965556373580352
0.39965556373580352
0.39965556373580352
0.39965556373580352
0.39965556373580352
0.39965556373580352
0.39965556373580352
0.39965556373580352
0.39965556373580352
0.39965556373580352
0.39965556373580352
0.39965556373580352
0.39965556373580352
0.39965556373580352
0.39965556373580352
0.39965556373580352
0.39965556373580352
0.39965556373580352
0.39965556373580352
0.39965556373580352
0.39965556373580352
0.39965556373580352
0.39965556373580352
0.39965556373580352
0.39965556373580352
0.39965556373580352
0.39965556373580352
0.39965556373580352
0.39965556373580352
0.39965556373580352
0.39965556373580352
0.39965556373580352
0.39965556373580352
0.39965556373580352
0.39965556373580352
0.39965556373580352
0.39965556373580352
0.39965556373580352
0.39965556373580352
0.39965556373580352
0.39965556373580352
0.39965556373580352
0.39965556373580352
0.39965556373580352
0.39965556373580352
0.39965556373580352
0.39965556373580352
0.39965556373580352
0.39965556373580352
0.39965556373580352
0.39965556373580352
0.39965556373580352
0.39965556373580352
0.39965556373580352
0.39965556373580352
0.39965556373580352
0.39965556373580352
0.39965556373580352
0.39965556373580352
0.39965556373580352
0.39965556373580352
0.39965556373580352
0.39965556373580352
0.39965556373580352
0.39965556373580352
0.39965556373580352
0.39965556373580352
0.39965556373580352
0.39965556373580352
0.39965556373580352
0.39965556373580352
0.39965556373580352
0.39965556373580352
0.39965556373580352
0.39965556373580352
0.39965556373580352
0.39965556373580352
0.39965556373580352
0.39965556373580352
0.39965556373580352
0.39965556373580352
0.39965556373580352
0.39965556373580352
0.39965556373580352
0.39965556373580352
0.39965556373580352
0.39965556373580352
0.39965556373580352
0.39965556373580352
0.39965556373580352
0.39965556373580352
0.39965556373580352
0.39965556373580352
0.39965556373580352
0.39965556373580352
0.39965556373580352
0.39965556373580352
0.39965556373580352
0.39965556373580352
0.39965556373580352
0.39965556373580352
0.39965556373580352
0.39965556373580352
0.39965556373580352
0.39965556373580352
0.39965556373580352
0.39965556373580352
0.39965556373580352
0.39965556373580352
0.39965556373580352
0.39965556373580352
0.39965556373580352
0.39965556373580352
0.39965556373580352
0.39965556373580352
0.39965556373580352
0.39965556373580352
0.39965556373580352
0.39965556373580352
0.39965556373580352
0.39965556373580352
0.39965556373580352
0.39965556373580352
0.39965556373580352
0.39965556373580352
0.39965556373580352
0.39965556373580352
0.39965556373580352
0.39965556373580352
0.39965556373580352
0.39965556373580352
0.39965556373580352
0.39965556373580352
0.39965556373580352
0.39965556373580352
0.39965556373580352
0.39965556373580352
0.39965556373580352
0.39965556373580352
0.39965556373580352
0.39965556373580352
0.39965556373580352
0.39965556373580352
0.39965556373580352
0.39965556373580352
0.39965556373580352
0.39965556373580352
0.39965556373580352
0.39965556373580352
0.39965556373580352
0.39965556373580352
0.39965556373580352
0.39965556373580352
0.39965556373580352
0.39965556373580352
0.39965556373580352
0.39965556373580352
0.39965556373580352
0.39965556373580352
0.39965556373580352
0.39965556373580352
0.39965556373580352
0.39965556373580352
0.39965556373580352
0.39965556373580352
0.39965556373580352
0.39965556373580352
0.39965556373580352
0.39965556373580352
0.39965556373580352
0.39965556373580352
0.39965556373580352
0.39965556373580352
0.39965556373580352
0.39965556373580352
0.39965556373580352
0.39965556373580352
0.39965556373580352
0.39965556373580352
0.39965556373580352
0.39965556373580352
0.39965556373580352
0.39965556373580352
0.39965556373580352
0.39965556373580352
0.39965556373580352
0.39965556373580352
0.39965556373580352
0.39965556373580352
0.39965556373580352
0.39965556373580352
0.39965556373580352
0.39965556373580352
0.39965556373580352
0.39965556373580352
0.39965556373580352
0.39965556373580352
0.39965556373580352
VECTORS v float
-1.9426004790855589e-05 -0.035772212160310075 0
-2.0414287051663846e-05 -0.03615526752703279 0
-2.1119427548339071e-05 -0.036451117919891085 0
-2.1748098093596907e-05 -0.036738428997988543 0
-2.2307361986923267e-05 -0.037019665168377666 0
-2.2818448367976048e-05 -0.037308550594209254 0
-2.3295599756664979e-05 -0.03761656282903697 0
-2.374325979349448e-05 -0.037951079758505278 0
-2.4158911932938389e-05 -0.038317832224359229 0
-2.4538902895088354e-05 -0.038721861724771559 0
-2.4873047717009692e-05 -0.039168559203359203 0
-2.5149877411409352e-05 -0.039663783528827989 0
-2.536705248712947e-05 -0.040213889023489831 0
-2.5532313367307935e-05 -0.040825673154651521 0
-2.5658681232893715e-05 -0.041509881029639442 0
-2.5761998194102478e-05 -0.042285205364574217 0
-2.5858586166116868e-05 -0.043173034338783778 0
-2.5962764375653179e-05 -0.0441997095126948 0
-2.6084043461522558e-05 -0.045402405360720703 0
-2.6236346663064243e-05 -0.046825014194390106 0
-2.643015369318977e-05 -0.048547883111553169 0
-2.6681621847171925e-05 -0.050691493101220342 0
-2.7013533915032524e-05 -0.053465515757283359 0
-2.748392117309718e-05 -0.057290199453567274 0
-2.819285157922248e-05 -0.063352944944075104 0
-1.1268872280542943e-05 -0.035931715547364851 0
-1.199420888008198e-05 -0.036348740022639998 0
-1.2516999047065295e-05 -0.036671090679331463 0
-1.2955901702083101e-05 -0.036978527374282456 0
-1.3275228039715646e-05 -0.037275350958932266 0
-1.3595075614887943e-05 -0.037575110635268867 0
-1.382678843192571e-05 -0.037892468768766445 0
-1.4091573611028679e-05 -0.038236600725861908 0
-1.4216792527115853e-05 -0.038614195567622321 0
-1.4471298442258532e-05 -0.039030497215304848 0
-1.4536285936728723e-05 -0.039491047025198157 0
-1.4723377381267047e-05 -0.040001646486797202 0
-1.4933091255998537e-05 -0.040568939867838563 0
-1.5151824093051099e-05 -0.041200163322624293 0
-1.5313670416607954e-05 -0.041907127194628524 0
-1.5438000887111975e-05 -0.042708144278876432 0
-1.5612147087319889e-05 -0.04362523364034232 0
-1.5744447724555154e-05 -0.044685109859734271 0
-1.5868883271940985e-05 -0.045922630723535141 0
-1.6011374020658144e-05 -0.047386442241127438 0
-1.6134671195144682e-05 -0.049153564898579319 0
-1.6258627265412957e-05 -0.051344462721239881 0
-1.6393340759011134e-05 -0.05417577863124063 0
-1.6580981216838423e-05 -0.058088193438446192 0
-1.6798025115939331e-05 -0.064439458097476393 0
-4.2469124315114959e-06 -0.03599867948944923 0
-4.5377207660502967e-06 -0.03641995633838966 0
-4.7257282124743789e-06 -0.036746252333596331 0
-4.8932615084900991e-06 -0.037057925153808235 0
-5.0517593731554851e-06 -0.037359067015968118 0
-5.1580774928617026e-06 -0.037663185363357832 0
-5.2764723173308998e-06 -0.037985432227848143 0
-5.3568489274343748e-06 -0.038335205736183611 0
-5.4416063117942512e-06 -0.038719239555844165 0
-5.4950849730273157e-06 -0.039143546448620684 0
-5.4720665525288614e-06 -0.039613792321258862 0
-5.6857183602573169e-06 -0.040135899604889641 0
-5.6903090965169175e-06 -0.04071706179024992 0
-5.812670050144441e-06 -0.041364664159172539 0
-5.8836851509162853e-06 -0.042090946471706393 0
-6.0923468545189619e-06 -0.04291505250897213 0
-6.1832293701219329e-06 -0.043858996129824628 0
-6.3194020396546238e-06 -0.044950078354709919 0
-6.4319044298774161e-06 -0.046223775958497984 0
-6.5364826073304489e-06 -0.047731447690252019 0
-6.7095843501199283e-06 -0.049549284854280319 0
-6.8548168469696447e-06 -0.051799404229746902 0
-7.0786634751010479e-06 -0.054699132562031412 0
-7.3049916615406506e-06 -0.058686319266201478 0
-7.578124312165553e-06 -0.065131664128595959 0
-1.5156072967832365e-06 -0.036033530056012307 0
-1.6656266088564559e-06 -0.036458115068392909 0
-1.6997911822673662e-06 -0.036786991115976143 0
-1.7751338150698827e-06 -0.037101259994118618 0
-1.9338745750259679e-06 -0.0374049620824011 0
-2.0021305002092747e-06 -0.037711728989610956 0
-2.0273545348031091e-06 -0.03803691511839298 0
-2.0100282683519065e-06 -0.038389892297633524 0
-2.0317262433987365e-06 -0.038777460287035326 0
-1.9627450743193497e-06 -0.039205835172258702 0
-2.0723681654019149e-06 -0.039680157935071111 0
-2.0237533649201355e-06 -0.040207311091111711 0
-2.0946311224229086e-06 -0.040794066251269509 0
-2.1926212328460791e-06 -0.041447728742498975 0
-2.1680182448853027e-06 -0.042181107148062592 0
-2.4055688408647617e-06 -0.043013131923054795 0
-2.433305813981825e-06 -0.043966159348957014 0
-2.4894138979037614e-06 -0.045067778204019304 0
-2.5212453388549269e-06 -0.046353094073943522 0
-2.637862439942879e-06 -0.047873940096169951 0
-2.6515501772439041e-06 -0.049706829824149423 0
-2.7549589255706455e-06 -0.051974238327054834 0
-2.8563145048909556e-06 -0.054893881860158186 0
-2.9414038396927412e-06 -0.058902796853638528 0
-3.0480944763267971e-06 -0.06537570422602948 0
-8.7436356293547177e-07 -0.036051444836332658 0
-9.8016340759307117e-07 -0.036477704972708906 0
-1.0400444946193397e-06 -0.036807857534252635 0
-1.1231972406688274e-06 -0.037123288239873445 0
-1.1711061177661527e-06 -0.037428148589297189 0
-1.1698067686199379e-06 -0.037736165070021387 0
-1.2070268271262778e-06 -0.038062579626894757 0
-1.1024493011246098e-06 -0.038416753090913906 0
-1.0966715287051078e-06 -0.038805693368958082 0
-1.1309649099153065e-06 -0.039235305589486076 0
-1.2256355366759093e-06 -0.039711517707087418 0
-1.2826718277705046e-06 -0.04024018499254748 0
-1.3368425955640127e-06 -0.040828812472132048 0
-1.3093296754968635e-06 -0.041484389527708686 0
-1.4157533401953946e-06 -0.042219882643768407 0
-1.3799161931574974e-06 -0.043054645576522693 0
-1.3782612999028551e-06 -0.044011349423850918 0
-1.3713029594071399e-06 -0.045116222255178744 0
-1.375775636466822e-06 -0.046405308728639745 0
-1.3716836137917224e-06 -0.047929835906334095 0
-1.356754455741089e-06 -0.049767309488968778 0
-1.3524975823478981e-06 -0.052039894173917724 0
-1.2973716618541661e-06 -0.05496503848192421 0
-1.3117034791829662e-06 -0.058980293092898463 0
-1.3055894863747513e-06 -0.065461541781340477 0
-4.4423922367809911e-07 -0.036059854980988709 0
-4.9122284147343383e-07 -0.036486884495771262 0
-5.0492841014092125e-07 -0.036817561983115712 0
-4.98548911744297e-07 -0.037133487117689948 0
-5.3527437080653754e-07 -0.037438869975123051 0
-5.1365413951167294e-07 -0.037747325211759407 0
-5.4269321602128707e-07 -0.038074161882789503 0
-5.6237660261491907e-07 -0.0384289768643227 0
-5.697787678632083e-07 -0.038818459231850504 0
-5.573792254041771e-07 -0.039248578960825307 0
-6.5790067911861744e-07 -0.039725244838603339 0
-5.9632168611588936e-07 -0.0402547407082662 0
-6.715875159056097e-07 -0.040843808945968903 0
-5.6286786479885672e-07 -0.041500419148168627 0
-6.3968627895505504e-07 -0.042236842776652565 0
-5.935914769268276e-07 -0.043072609214965606 0
-6.3927967781700101e-07 -0.044029709775486085 0
-6.905624846884458e-07 -0.045135172289664599 0
-6.7683008445503816e-07 -0.046425356763238952 0
-6.698937059420302e-07 -0.047951649740001878 0
-6.3451041347978265e-07 -0.049790641627868108 0
-6.7001401420303163e-07 -0.05206489648381022 0
-6.9476667526984133e-07 -0.054992106572030228 0
-6.9265310000119164e-07 -0.059009691523227534 0
-6.8428220796506677e-07 -0.065492383113727709 0
-9.2293225484445314e-08 -0.036062988960465329 0
-1.11724182037291e-07 -0.036490374653056254 0
-1.2575027922516945e-07 -0.036821403569735858 0
-1.0528559045773624e-07 -0.037137553044259572 0
-1.8979109056103899e-07 -0.037442912565812482 0
-2.3159841965436436e-07 -0.037751537725941843 0
-2.2029515866104878e-07 -0.038078594497300354 0
-1.9963082229949879e-07 -0.038433695372025081 0
-2.4543906239820283e-07 -0.038823170882110736 0
-2.4990277659645878e-07 -0.039253444483485264 0
-2.0442279367571005e-07 -0.039730371551915805 0
-5.1093199098209304e-07 -0.040259979960704309 0
-5.4491057023880747e-07 -0.040849170925474111 0
-4.8405552243252823e-07 -0.041506119550574552 0
-4.5253725844112402e-07 -0.04224293456861615 0
-3.8096908146113999e-07 -0.043079111710575636 0
-4.7735698208716974e-07 -0.044036608118273923 0
-4.8093265444901312e-07 -0.045142055039563256 0
-3.7245630658558462e-07 -0.046432512160685363 0
-3.728957395743423e-07 -0.047959362453891992 0
-3.6580675940454157e-07 -0.04979882273662866 0
-3.8675646472123552e-07 -0.052073688711335241 0
-4.2312967154049461e-07 -0.05500166702400773 0
-3.4252938869768943e-07 -0.059021584214179176 0
-3.0271535473807342e-07 -0.065504180224546682 0
1.6092706900394573e-07 -0.03606363695697333 0
1.5765759040838451e-07 -0.036491033111745237 0
1.4539334639956034e-07 -0.036822048878017585 0
1.5113504320482118e-07 -0.037138256471403328 0
1.289168527197189e-07 -0.037443850733430692 0
1.0534172227832304e-07 -0.037752497171223233 0
9.6956249113003871e-08 -0.038079604997118086 0
-2.5580251042354631e-08 -0.038434629671499958 0
-2.2710349968968295e-08 -0.038824267401291503 0
5.3537945412928276e-08 -0.039254601208110841 0
3.9628317730249313e-07 -0.039731905570146248 0
3.6855374467345327e-07 -0.040261456961501615 0
4.1940958252088749e-08 -0.040850782372605941 0
2.4561845240584096e-07 -0.041507657919758439 0
-3.0533364007490507e-08 -0.042244592353242287 0
3.7770722988743146e-08 -0.04308058718477429 0
2.6358612543201006e-07 -0.04403779713676273 0
1.4541061644691384e-07 -0.045143573284390656 0
2.4684016871266878e-07 -0.046434008375454895 0
1.0731450360987869e-07 -0.047960739064906222 0
1.2139114466053765e-07 -0.049799952938663523 0
2.4448215018579602e-08 -0.052074077978559848 0
-1.2376081153084586e-08 -0.055000232262737495 0
-2.7935359535114031e-08 -0.059020841973888218 0
-5.9060643758446328e-08 -0.065505034479161492 0
-6.3591163427995649e-08 -0.03606259461115794 0
-1.6685897110487472e-09 -0.036489833607588167 0
4.1769344557635186e-08 -0.036820726409015028 0
7.6802086568132443e-08 -0.037136818177718689 0
1.2072945603450098e-07 -0.037442385623483676 0
1.241786378915864e-07 -0.037750999217744087 0
1.6625942035334601e-07 -0.038078039771867446 0
1.6771640797500489e-07 -0.03843304471267607 0
2.0674894812264954e-07 -0.038822683524837816 0
1.6803254208026695e-07 -0.03925288371614688 0
1.9891858831292809e-07 -0.039729779402822268 0
1.7311915392852218e-07 -0.040259373071231869 0
1.2357676993129169e-07 -0.04084912039155212 0
2.4354067786818616e-07 -0.041505900606891723 0
2.3958111368463232e-07 -0.04224264108888541 0
1.6253518874164144e-07 -0.04307862336423042 0
1.078786580630987e-07 -0.044035656300556489 0
9.0393236825953397e-08 -0.045141434680486897 0
4.8125857544682897e-08 -0.046431837749550203 0
6.3977507695537098e-08 -0.047958414443472097 0
4.8293670698207647e-09 -0.049797436800549634 0
3.0007075603411646e-08 -0.052071254042146138 0
-4.3915666393016075e-08 -0.054996877472923429 0
-9.3958041235086043e-08 -0.059016895309640778 0
-1.8631871443311527e-07 -0.065500972690305068 0
9.8597842591184002e-08 -0.03605928118854327 0
1.0975275776006113e-07 -0.036486178927114497 0
1.1442794248048848e-07 -0.036816822846314601 0
1.6959453356473405e-07 -0.037132733157361826 0
1.6543999874854792e-07 -0.037438041374287155 0
1.7287155063488203e-07 -0.037746530733808251 0
1.8695638704691522e-07 -0.038073563547039051 0
2.2545901288410718e-07 -0.038428126128233195 0
2.040310938812282e-07 -0.038817196747046125 0
2.373391330936074e-07 -0.03924750387592936 0
2.3031687340844778e-07 -0.03972389439991357 0
2.9198761183146006e-07 -0.040253328364202083 0
3.973150073665316e-07 -0.040842813657014365 0
1.0469666490416135e-07 -0.041499580800417164 0
1.6899939743777191e-07 -0.042235983371392109 0
9.1739416492683039e-08 -0.043071473390655618 0
8.7087645886526072e-08 -0.044028161543382655 0
6.2293135838723118e-08 -0.04513366137160639 0
8.4886328354406839e-08 -0.046423655359224374 0
6.7356716988789299e-08 -0.047949678521061162 0
5.6952529507309492e-08 -0.049788349727251324 0
8.6867819760889166e-08 -0.052062100141049623 0
9.9812492834850686e-08 -0.054989393830221361 0
1.4927018106888552e-07 -0.059006349237186353 0
1.5868641015056683e-07 -0.065489670727362351 0
5.9386142151177208e-07 -0.036051076329451884 0
6.2994648941005518e-07 -0.036477221173133699 0
6.4762990218370429e-07 -0.036807547215249925 0
6.0267325736923018e-07 -0.03712264767925999 0
6.4194045311856687e-07 -0.037427387763663604 0
6.0473050837839972e-07 -0.037735363167479545 0
6.2197133179501307e-07 -0.038061781761435244 0
6.3634913373413201e-07 -0.038416003317420414 0
6.4142420750550497e-07 -0.03880493052520155 0
5.8127193250476089e-07 -0.039234536825445143 0
5.3236951622959711e-07 -0.039710602447562526 0
5.6207041434191895e-07 -0.040239353595868971 0
6.2722919058080849e-07 -0.040827752185234129 0
9.2136199898416523e-07 -0.041483531669030925 0
6.6893926843191893e-07 -0.042218983897239021 0
7.6745726971043201e-07 -0.043053347474077401 0
7.5439567961399621e-07 -0.044008750390722176 0
7.6269839063778098e-07 -0.045113399581566696 0
7.7040844239796539e-07 -0.046402204967202883 0
8.3590338842964181e-07 -0.047926256990411614 0
8.5504843227105795e-07 -0.049762782090882522 0
8.9245281747474881e-07 -0.052034626388062957 0
9.5611995718015154e-07 -0.05496411837002587 0
1.0783853673125824e-06 -0.058977358645472468 0
1.1964009380667573e-06 -0.065457784966023044 0
1.4890473579116622e-06 -0.03603319880212328 0
1.6105166581795904e-06 -0.036457706222469438 0
1.6350446161068537e-06 -0.036786628905556853 0
1.7000539840958178e-06 -0.037100837863942131 0
1.7405933915670851e-06 -0.037404577384855274 0
1.8009102932907783e-06 -0.037711374004593338 0
1.8495883228506111e-06 -0.038036353943839835 0
1.9243380628705649e-06 -0.038389339233256908 0
1.994471613479787e-06 -0.038776929491294763 0
2.0167293815292176e-06 -0.039205030880686144 0
2.1702387926370595e-06 -0.039679516008744718 0
2.1781089559963877e-06 -0.04020651425378291 0
2.1337275355079975e-06 -0.040793072000215695 0
2.3315946917175489e-06 -0.041446573365991002 0
2.3249958154963964e-06 -0.042179903689649176 0
2.3589374093726014e-06 -0.043011915761269531 0
2.3945514470723172e-06 -0.043964614676321311 0
2.4931421280069832e-06 -0.045065787964523547 0
2.5267000491006389e-06 -0.046350887172715426 0
2.6114984042029784e-06 -0.047871411516150875 0
2.6464257121955472e-06 -0.049703549037667778 0
2.7818117755856028e-06 -0.051970190922689924 0
2.8630775676803917e-06 -0.054891817283414336 0
2.9365537705148205e-06 -0.058900434911081725 0
3.0614171318859584e-06 -0.065372830922847139 0
4.1340055332806934e-06 -0.035998381580441406 0
4.4007569645841118e-06 -0.036419674938836195 0
4.5935444143419325e-06 -0.036745981271290321 0
4.7496656164632934e-06 -0.037057660862380881 0
4.8749714829456577e-06 -0.037358845384216584 0
4.9982176781533797e-06 -0.037662928420681863 0
5.0994269134705746e-06 -0.037985028870985843 0
5.1763082937813271e-06 -0.038334922980684361 0
5.2599974289643818e-06 -0.038719001643278773 0
5.3962259683339794e-06 -0.039143237382143585 0
5.4015220813849517e-06 -0.039613347539678205 0
5.5493698167102223e-06 -0.04013553791634894 0
5.7261033503070382e-06 -0.040716680251225691 0
5.6510319843426042e-06 -0.041364232108653795 0
5.7311174676381233e-06 -0.042090766629814667 0
5.8252983018675426e-06 -0.042914863714520878 0
5.9239652313700765e-06 -0.043858700111369102 0
6.0094245873747985e-06 -0.044949538336860023 0
6.1296957814621765e-06 -0.04622322129378599 0
6.2361449922881107e-06 -0.047730944649169618 0
6.3668461573736798e-06 -0.049548543997775849 0
6.5379529600133776e-06 -0.051798330678334101 0
6.6768758311521141e-06 -0.054698248434947805 0
6.9125491953381755e-06 -0.058685741669551914 0
7.1687523253104296e-06 -0.065130872397575756 0
1.1071097801042563e-05 -0.035931617194128476 0
1.1790401946269243e-05 -0.036348639871068456 0
1.2236834210739638e-05 -0.036670985313434191 0
1.2681139086058484e-05 -0.036978444096403398 0
1.3068921092684373e-05 -0.037275253641249936 0
1.3351760251365925e-05 -0.037575002294559103 0
1.3581715818438596e-05 -0.037892380251223316 0
1.3805118328471739e-05 -0.038236754747630393 0
1.3931801053427173e-05 -0.038614262966530033 0
1.4158848763334097e-05 -0.039030714816604362 0
1.4192057471403642e-05 -0.039491288984343835 0
1.4407176964549559e-05 -0.040001830574866851 0
1.4578020277448249e-05 -0.040569099192908839 0
1.4740694058380848e-05 -0.041200513200312899 0
1.4898561774270847e-05 -0.041907657133522451 0
1.5048785442865172e-05 -0.042709024993243139 0
1.5173096379439457e-05 -0.043626115443557704 0
1.5131167265839871e-05 -0.044685502447398946 0
1.5267196849158682e-05 -0.04592256840982057 0
1.5384264786271587e-05 -0.047387554105272893 0
1.5512183316592876e-05 -0.049154767408126937 0
1.5632928781669702e-05 -0.051345109147544511 0
1.5889004467722185e-05 -0.054176222491665163 0
1.6026267458762574e-05 -0.058088679388419169 0
1.6185835787878618e-05 -0.064439765738768473 0
1.9139015781226424e-05 -0.035772247920803954 0
2.0108898375210189e-05 -0.036155326172401886 0
2.0801141250625636e-05 -0.036451189137492256 0
2.1418039671804874e-05 -0.036738505670980484 0
2.1967322857997327e-05 -0.037019717578478127 0
2.2467731360917632e-05 -0.037308540291780913 0
2.292052321557425e-05 -0.03761667334200873 0
2.335991262723409e-05 -0.037951407995626039 0
2.376338009047481e-05 -0.038318114722536593 0
2.4130488029179451e-05 -0.038722158423000599 0
2.4451493486288587e-05 -0.039168913642464408 0
2.4716771096017135e-05 -0.039664187424377134 0
2.4924435901469048e-05 -0.040214388900475864 0
2.5073547027777576e-05 -0.040826312738262246 0
2.5176826110305981e-05 -0.041510667863014487 0
2.5271280247616521e-05 -0.042286282485289317 0
2.535127890426973e-05 -0.043174305508124858 0
2.542777101258769e-05 -0.044200522951066044 0
2.5515408036155034e-05 -0.045401665063321724 0
2.5641668114596586e-05 -0.046825656419692011 0
2.5804462991273076e-05 -0.048548682850843079 0
2.6018714346278931e-05 -0.05069215252745711 0
2.6303532346209959e-05 -0.053466151724187554 0
2.6715581067854227e-05 -0.057290702012995388 0
2.7366373763649115e-05 -0.063352563002001691 0
-0 -0 0
-0 -0 0
-0 -0 0
-0 -0 0
-0 -0 0
-0 -0 0
1.9618455500055051e-05 0.03521941267871756 0
2.2431504268228383e-05 0.037369369844401742 0
2.5313855803293855e-05 0.042410893969964912 0
-0 -0 0
-0 -0 0
-0 -0 0
2.0949810423221755e-05 0.036500895533353672 0
2.2609456289721884e-05 0.038026782759623901 0
2.4793494891997843e-05 0.042575557999978045 0
-0 -0 0
-0 -0 0
-0 -0 0
1.637761468128249e-05 0.036610371311030877 0
1.8020418222433241e-05 0.038150563248172661 0
1.9901446659236318e-05 0.042725350327660373 0
-0 -0 0
-0 -0 0
-0 -0 0
8.5380766831973407e-06 0.036736100084906229 0
9.4679224997530521e-06 0.038297652999464561 0
1.0615346078571834e-05 0.042958348266779051 0
-0 -0 0
-0 -0 0
-0 -0 0
3.2646027934693006e-06 0.036793295539177928 0
3.7080398150883282e-06 0.038372745172196659 0
4.2813737321179936e-06 0.043093401724095565 0
-0 -0 0
-0 -0 0
-0 -0 0
1.3821962082211066e-06 0.036823824921007067 0
1.6025318774157956e-06 0.03841157492085432 0
1.8708307409378589e-06 0.043155838504536109 0
-0 -0 0
-0 -0 0
-0 -0 0
7.4871088786577368e-07 0.036838943954911052 0
8.5548085137140266e-07 0.038430144786613184 0
9.7937672708359967e-07 0.043182619298483202 0
-0 -0 0
-0 -0 0
-0 -0 0
3.0861157653580674e-07 0.036845586705682713 0
3.7645282005635789e-07 0.038438138098415529 0
4.617354301005291e-07 0.043193391434660722 0
-0 -0 0
-0 -0 0
-0 -0 0
-3.3347605093070371e-08 0.0368477963065671 0
1.100824727617711e-08 0.038440844750777942 0
6.5425781702877157e-08 0.043196972766329285 0
-0 -0 0
-0 -0 0
-0 -0 0
-1.3040447720618165e-07 0.036847485604361081 0
-1.9940102594944377e-07 0.038440555965655661 0
-2.1681609075530654e-07 0.043196735483704687 0
-0 -0 0
-0 -0 0
-0 -0 0
-1.1171754290943789e-07 0.036844872216171477 0
-2.1168772212899675e-07 0.038437382206343872 0
-2.1810882063882949e-07 0.04319262441549214 0
-0 -0 0
-0 -0 0
-0 -0 0
-3.648520299440666e-07 0.036838254032120057 0
-3.9631831320496944e-07 0.038429328523793535 0
-4.2160148306783865e-07 0.043181393256590109 0
-0 -0 0
-0 -0 0
-0 -0 0
-1.1236072089105215e-06 0.03682337432466494 0
-1.2543019645030877e-06 0.03841099588634414 0
-1.5037442159130429e-06 0.043154652351000751 0
-0 -0 0
-0 -0 0
-0 -0 0
-3.1290290548753588e-06 0.036792998950331432 0
-3.5405606337162861e-06 0.038372374677704948 0
-4.1002675952718703e-06 0.043092761617612003 0
-0 -0 0
-0 -0 0
-0 -0 0
-8.368213297225819e-06 0.036735919829230544 0
-9.2562213367216449e-06 0.038297485538613944 0
-1.0278899639061628e-05 0.042958314911665685 0
-0 -0 0
-0 -0 0
-0 -0 0
-1.6124662178333261e-05 0.036610356754194932 0
-1.7711407995814756e-05 0.038150625288723809 0
-1.9447418001885396e-05 0.042725649166806275 0
-0 -0 0
-0 -0 0
-0 -0 0
-2.062191385840786e-05 0.036500948632965026 0
-2.2229977854361547e-05 0.038026896498674079 0
-2.4293121305540871e-05 0.042575983554181129 0
-0 -0 0
-0 -0 0
-0 -0 0
-1.9317371941347999e-05 0.03521927732158335 0
-2.2065568493216846e-05 0.037369317020646602 0
-2.480962728452099e-05 0.042411412098035429 0
-0 -0 0
-0 -0 0
-0 -0 0
-0 -0 0
-0 -0 0
-0 -0 0
-0 -0 0
-0 -0 0
-0 -0 0
-0 -0 0
-0 -0 0
-0 -0 0
-0 -0 0
-0 -0 0
-0 -0 0
-0 -0 0
-0 -0 0
-0 -0 0
-0 -0 0
-0 -0 0
-0 -0 0
-0 -0 0
-0 -0 0
-0 -0 0
-0 -0 0
-0 -0 0
-0 -0 0
-0 -0 0
-0 -0 0
-0 -0 0
-0 -0 0
-0 -0 0
-0 -0 0
-0 -0 0
-0 -0 0
-0 -0 0
-0 -0 0
-0 -0 0
-0 -0 0
-0 -0 0
-0 -0 0
-0 -0 0
-0 -0 0
-0 -0 0
-0 -0 0
-0 -0 0
-0 -0 0
-0 -0 0
-0 -0 0
-0 -0 0
-0 -0 0
-0 -0 0
-0 -0 0
-0 -0 0
-0 -0 0
-0 -0 0
-0 -0 0
-0 -0 0
-0 -0 0
-0 -0 0
-0 -0 0
-0 -0 0
-0 -0 0
-0 -0 0
-0 -0 0
-0 -0 0
-0 -0 0
-0 -0 0
-0 -0 0
-0 -0 0
-0 -0 0
-0 -0 0
-0 -0 0
-0 -0 0
-0 -0 0
-0 -0 0
-0 -0 0
-0 -0 0
-0 -0 0
-0 -0 0
-0 -0 0
-0 -0 0
-0 -0 0
-0 -0 0
-0 -0 0
-0 -0 0
-0 -0 0
-0 -0 0
-0 -0 0
-0 -0 0
-0 -0 0
-0 -0 0
-0 -0 0
-0 -0 0
-0 -0 0
-0 -0 0
-0 -0 0
-0 -0 0
-0 -0 0
-0 -0 0
-0 -0 0
-0 -0 0
-0 -0 0
-0 -0 0
-0 -0 0
-0 -0 0
-0 -0 0
-0 -0 0
-0 -0 0
-0 -0 0
-0 -0 0
-0 -0 0
-0 -0 0
-0 -0 0
-0 -0 0
-0 -0 0
-0 -0 0
-0 -0 0
-0 -0 0
-0 -0 0
-0 -0 0
-0 -0 0
-0 -0 0
-0 -0 0
-0 -0 0
-0 -0 0
-0 -0 0
-0 -0 0
-0 -0 0
-0 -0 0
-0 -0 0
-0 -0 0
-0 -0 0
-0 -0 0
-0 -0 0
-0 -0 0
-0 -0 0
-0 -0 0
-0 -0 0
-0 -0 0
-0 -0 0
-0 -0 0
-0 -0 0
-0 -0 0
-0 -0 0
-0 -0 0
-0 -0 0
-0 -0 0
-0 -0 0
-0 -0 0
-0 -0 0
-0 -0 0
-0 -0 0
-0 -0 0
-0 -0 0
-0 -0 0
-0 -0 0
-0 -0 0
-0 -0 0
-0 -0 0
-0 -0 0
-0 -0 0
-0 -0 0
-0 -0 0
-0 -0 0
-0 -0 0
-0 -0 0
-0 -0 0
-0 -0 0
-0 -0 0
-0 -0 0
-0 -0 0
-0 -0 0
-0 -0 0
-0 -0 0
-0 -0 0
-0 -0 0
-0 -0 0
-0 -0 0
-0 -0 0
-0 -0 0
-0 -0 0
-0 -0 0
-0 -0 0
-0 -0 0
-0 -0 0
-0 -0 0
-0 -0 0
-0 -0 0
-0 -0 0
-0 -0 0
-0 -0 0
-0 -0 0
-0 -0 0
-0 -0 0
