# vtk DataFile Version 3.0
SPH particles (WCSPH) - legacy PolyData
ASCII
DATASET POLYDATA
POINTS 681 float
0.049991537341003055 0.025143600727292277 0
0.049990247566567246 0.027647081255965301 0
0.049989226225797087 0.029632808034154103 0
0.049988255454672822 0.031617095421073833 0
0.049987382526743118 0.033580391998675171 0
0.049986603424699481 0.035518822604601645 0
0.049985925662288405 0.037438327157857526 0
0.049985161100827742 0.039348848540335143 0
0.049984212186275724 0.04126182702495261 0
0.049982879993884941 0.043189746944063648 0
0.04998076897522586 0.045146428254721545 0
0.049978156136655183 0.047147235479580551 0
0.049977012819581189 0.049209231486843912 0
0.049978182194154945 0.051351679158248037 0
0.049980546947499739 0.05359664584267311 0
0.049983468696519283 0.055970870099735767 0
0.049986452769514245 0.058509332572645956 0
0.049989369977956298 0.061273559951085008 0
0.049992044573014961 0.064334778133548667 0
0.04999438277673092 0.067807641476205077 0
0.049996367900481488 0.071916627326271576 0
0.049998011887486711 0.077147210902915181 0
0.04999932000208529 0.085966435212823059 0
0.049999936723049934 0.10669172943031757 0
0.050000000000000003 0.16365479525490087 0
0.069995564017180545 0.023622397251384254 0
0.069994812063400261 0.026427824923187813 0
0.069994183176360539 0.028688794969465005 0
0.069993609013491914 0.03089425641389967 0
0.06999308956686745 0.03303919933488126 0
0.069992574591438747 0.0351311560574755 0
0.069992060196591918 0.037184491295872008 0
0.069991529238554367 0.039215393389183631 0
0.069990907844417319 0.041239515969179207 0
0.069989989107331091 0.04327242196259664 0
0.069988305049884056 0.045330374520475093 0
0.069985664843348921 0.047430803372840571 0
0.06998403046400456 0.049592557779811038 0
0.069984284107778835 0.051836899637904547 0
0.069985843601641021 0.05418855180672396 0
0.069988029759934151 0.056676167284961686 0
0.069990313787953132 0.059334668740552793 0
0.069992598555275995 0.062223324611205458 0
0.069994572313013495 0.065417704375033137 0
0.069996220182925256 0.069039695628222528 0
0.069997597008014015 0.073311535389650073 0
0.069998697937409052 0.0787197291128129 0
0.06999952765148959 0.087327028348060512 0
0.069999946766638899 0.10713931901453422 0
0.070000000000000007 0.16272432749857091 0
0.089998330333377854 0.023562406301552159 0
0.089998001254355128 0.026375174181200021 0
0.089997775091582355 0.028643536169577578 0
0.089997491079881614 0.03085985695241859 0
0.089997210028323726 0.033018105723215813 0
0.089996977685490309 0.035125152885976355 0
0.089996531720977491 0.037195272521453805 0
0.089996321339471622 0.039244493665914787 0
0.089996017085760299 0.041288575039848618 0
0.089995679645415674 0.043343196655287977 0
0.089995305327376082 0.04542476385118676 0
0.089994576014046729 0.047550967374703997 0
0.089993713129620845 0.049740826134723019 0
0.089993345458328405 0.052015895183364538 0
0.089993872007278153 0.054401717694399582 0
0.089994763617467929 0.056929637170060415 0
0.089995773862958692 0.059636226066225664 0
0.089996728510648716 0.062569773154145122 0
0.08999757436674842 0.065809127049596336 0
0.089998269298231459 0.069476096496969064 0
0.089998865867018898 0.073788313681709489 0
0.089999368016895037 0.079234873404274223 0
0.089999765339507001 0.08782295385834997 0
0.089999971801040288 0.10742256492959895 0
0.090000000000000011 0.16218205303430688 0
0.10999947985860815 0.023585619611944886 0
0.10999930637849194 0.026400523974260667 0
0.10999919084293021 0.028671050793615902 0
0.10999905510240322 0.030890007860443047 0
0.10999892642008556 0.033051360613732442 0
0.10999892600305575 0.03516194586943857 0
0.10999895911617219 0.037236101150539762 0
0.10999888013451756 0.039289793323656154 0
0.1099988190594947 0.041338784992984587 0
0.10999872144354092 0.043398893572173809 0
0.10999852099427984 0.045486630607670546 0
0.10999875750601354 0.04761976753164085 0
0.10999817313354737 0.049817369508532008 0
0.10999765345179077 0.052101155743793842 0
0.10999770261444082 0.054496730476947523 0
0.10999797995664765 0.057035747079625491 0
0.10999828922910856 0.059756365371405086 0
0.10999871235401661 0.062703319250928286 0
0.10999902976726481 0.065956528666158698 0
0.10999929952862406 0.069637376774404111 0
0.10999953275543743 0.073965668096924689 0
0.10999973555108467 0.079431629928881434 0
0.10999989668497234 0.088028491366671888 0
0.10999998684226527 0.10759075069534038 0
0.11000000000000001 0.16183792394612725 0
0.12999992176691272 0.023601108627886738 0
0.12999990607493003 0.026417893236640157 0
0.12999989541937293 0.028689898541169545 0
0.12999989083721683 0.030910325210346701 0
0.12999994652168695 0.033073129882730007 0
0.13000001021702295 0.035185244256766744 0
0.1300000665305687 0.037261056855500914 0
0.13000010967768774 0.039316452879845053 0
0.1300001800754203 0.041367310031121332 0
0.13000030627803888 0.043429413888608971 0
0.13000037648276533 0.045519333278128481 0
0.1300002375253114 0.047654883642382573 0
0.12999993855140701 0.049855308474534392 0
0.12999965902501917 0.052142071555302739 0
0.12999946202519688 0.054541095236266615 0
0.12999937863296465 0.057083928656472223 0
0.12999946496445808 0.059808737525497133 0
0.12999958373969464 0.062760211790674147 0
0.12999968493577804 0.066018384539754893 0
0.12999976918841527 0.069704655545929653 0
0.12999984183753313 0.074039598753599417 0
0.12999990028377945 0.079514042625116965 0
0.1299999595651567 0.088120915067125938 0
0.12999999467154338 0.10768820505883346 0
0.13 0.16163588287867225 0
0.15000018758552994 0.023608635215941302 0
0.15000022006047525 0.026426409950411931 0
0.15000026289694662 0.028699195083483446 0
0.15000031727244195 0.030920380974489837 0
0.15000048767675292 0.033083922399405018 0
0.15000053149603323 0.035196733347219282 0
0.15000053165746172 0.037273240332935102 0
0.15000055892888139 0.039329415281689525 0
0.15000061250227184 0.041381067531352837 0
0.15000067101412273 0.043444016645502744 0
0.15000074819933809 0.045534881137480422 0
0.15000062323997265 0.047671420717413995 0
0.15000057503307501 0.049873014197811573 0
0.15000035294691139 0.052161112376155602 0
0.15000015726411389 0.054561511801689069 0
0.15000000785500686 0.05710591801774359 0
0.14999995475964051 0.059832428895595549 0
0.14999995671674099 0.062785768691000318 0
0.14999996916427885 0.066046094877519612 0
0.14999997490480343 0.069734796123307213 0
0.14999996112420774 0.074072620352041749 0
0.14999996710122948 0.079550797041091761 0
0.14999998651090252 0.088164517610108031 0
0.14999999818614601 0.10774193112973705 0
0.15000000000000002 0.16152717047282877 0
0.17000031679440109 0.023611965298795119 0
0.17000038795782835 0.026430179275562987 0
0.17000042362236564 0.028703297642392361 0
0.17000054797246841 0.030924768262491641 0
0.17000062792109064 0.033088574869475793 0
0.17000076122697488 0.035201719351866445 0
0.17000095157704198 0.037278594166992418 0
0.17000100729659173 0.039335088158190069 0
0.17000104419531417 0.041387057978260755 0
0.17000107279743024 0.043450350220371185 0
0.170001067972052 0.045541617059118807 0
0.17000096047286636 0.047678632975250129 0
0.17000095100570392 0.049880692254645052 0
0.17000094082075698 0.052169218851415441 0
0.17000048402876669 0.054570234203216585 0
0.170000338550617 0.057115312520450524 0
0.17000023324620928 0.059842579802186519 0
0.17000017146542429 0.062796723726020159 0
0.17000013196172506 0.06605797067064334 0
0.17000010288986611 0.069747724457954643 0
0.17000005191485737 0.07408683943997979 0
0.17000002315082835 0.079566728971646669 0
0.17000000401381041 0.088184198400947239 0
0.16999999977816305 0.10776831364328969 0
0.17000000000000004 0.1614759502339658 0
0.1900002314493186 0.023612914538883849 0
0.19000026469490897 0.026431214943906718 0
0.19000041269463314 0.028704492650111466 0
0.19000045981790198 0.030926024493253254 0
0.19000055125527715 0.033089888297748705 0
0.19000075433447569 0.035203170197384635 0
0.19000095256514471 0.037280054897347585 0
0.1900009279928225 0.03933656287784372 0
0.19000098093925627 0.041388613383550071 0
0.19000100585731036 0.043452040858635972 0
0.19000087130446072 0.045543406842164839 0
0.19000092954877437 0.047680605183479587 0
0.19000063829910649 0.049882795093916063 0
0.19000055430964854 0.052171551040510411 0
0.19000049990031406 0.054572702692336786 0
0.19000031405346013 0.057117948831896116 0
0.19000027111417275 0.059845435398531655 0
0.19000025834154352 0.062799818297647608 0
0.19000019580832453 0.066061319303996058 0
0.19000023868120144 0.069751383767478484 0
0.19000017585602111 0.074090859378263804 0
0.19000010451971977 0.079571252548932936 0
0.19000002725465293 0.088189888163748176 0
0.19000000223055338 0.1077761823776569 0
0.19 0.16146116266876534 0
0.21000029403620493 0.023611995855011541 0
0.21000036873058323 0.026430189406487024 0
0.2100004200826526 0.028703302906231912 0
0.21000047932748253 0.030924799190009618 0
0.21000057574487452 0.033088615004774606 0
0.2100005999815503 0.035201778539875314 0
0.21000069228560345 0.037278630977407842 0
0.21000071816863819 0.039335124278665215 0
0.21000077514027621 0.041387116637336248 0
0.21000080354378223 0.043450460403877275 0
0.21000077676134285 0.045541732129303646 0
0.21000072980689063 0.04767874668669371 0
0.21000056050404406 0.049880755503428978 0
0.21000040954768417 0.052169323339246468 0
0.21000039341669471 0.05457033672217166 0
0.21000030433796671 0.057115376809924526 0
0.21000026203653246 0.059842655111406698 0
0.210000311248632 0.062796803831301179 0
0.21000014943666864 0.066058049219365589 0
0.21000011999383894 0.069747836414366715 0
0.21000008221987676 0.07408693025825 0
0.21000006649453351 0.079566829407480319 0
0.21000002086329853 0.08818426812367898 0
0.21000000268541894 0.10776832181819082 0
0.21000000000000002 0.1614759502339658 0
0.23000035893177875 0.023608692389337028 0
0.23000042962040046 0.02642648583057735 0
0.23000050405422046 0.028699290131509528 0
0.23000057668851595 0.030920421914659393 0
0.23000069539228371 0.033083991955890339 0
0.23000077673373756 0.035196820630099719 0
0.23000086882047902 0.037273358404512409 0
0.23000090253198477 0.039329518842049799 0
0.23000100234603768 0.041381169228184217 0
0.23000106984262272 0.043444120367924506 0
0.23000108352396104 0.045535001470856519 0
0.23000092963442687 0.047671620641643903 0
0.23000075912968329 0.04987320296015775 0
0.23000066958602558 0.052161240856485984 0
0.23000065692905641 0.054561627045108321 0
0.23000058145738853 0.057106033145199901 0
0.23000047716474911 0.059832573645521712 0
0.2300003713759359 0.062785934049148284 0
0.2300003209821147 0.066046246497029767 0
0.23000023856238613 0.069734960773695259 0
0.23000016106320045 0.074072786995422871 0
0.23000009263276072 0.079550950102685411 0
0.23000003348502931 0.088164624591135832 0
0.23000000402439089 0.10774194510263364 0
0.23000000000000004 0.16152717047282883 0
0.25000051112469884 0.023601127866733688 0
0.25000061686383507 0.026417933857213603 0
0.25000069267050945 0.028689993530515601 0
0.2500008171335652 0.030910465254458192 0
0.25000092230276449 0.03307327588781208 0
0.25000102596688395 0.035185401304966529 0
0.25000106752097506 0.037261236159565649 0
0.25000121549378879 0.039316653169044695 0
0.25000130000338283 0.04136751285330309 0
0.25000140497628592 0.043429600925769016 0
0.25000146200121509 0.045519535923080647 0
0.25000137923750321 0.047655098146831019 0
0.25000123024455456 0.049855579694449745 0
0.25000138336052147 0.052142297821252452 0
0.25000126057262401 0.054541318873235302 0
0.25000116391722926 0.057084185940607123 0
0.2500009767420357 0.059809016419617951 0
0.25000075608908368 0.062760468227820762 0
0.25000058457991675 0.066018624430245865 0
0.25000042715376991 0.06970489228514555 0
0.25000028900124072 0.074039840833292736 0
0.25000016426360322 0.079514263300275723 0
0.2500000621691818 0.088121060414192168 0
0.25000000808918882 0.10768822182247327 0
0.25000000000000006 0.16163588287867225 0
0.27000080175586227 0.023585635971559087 0
0.27000097443279714 0.02640056070449558 0
0.27000110177868231 0.028671103339937443 0
0.27000124950015686 0.030890093308886507 0
0.27000152769084829 0.033051503932478327 0
0.27000168153238313 0.035162129502514371 0
0.27000183301899022 0.037236380256935445 0
0.27000201084624598 0.039290082061771293 0
0.27000221458085399 0.041339107750775775 0
0.27000240560729599 0.04339921983607678 0
0.27000260587828312 0.045486951978548615 0
0.27000267658198157 0.047620062107694892 0
0.27000306434286747 0.049817711408905709 0
0.27000300687098922 0.052101452113289475 0
0.27000282033544715 0.054497054228868441 0
0.27000245270409284 0.057036114545839754 0
0.27000199578550838 0.059756780045122013 0
0.27000154407924015 0.062703720302667146 0
0.2700011629028703 0.065956856201832781 0
0.27000084786767986 0.06963767905622599 0
0.2700005737949257 0.073965949048535609 0
0.27000033264829459 0.079431890149451151 0
0.27000012849975041 0.088028654899967571 0
0.27000001650856714 0.10759076513211668 0
0.27000000000000002 0.16183792394612717 0
0.29000187607968092 0.02356246728602248 0
0.29000223305821843 0.026375214769471488 0
0.29000251096829283 0.028643602590508833 0
0.29000279622367231 0.030859953418438512 0
0.29000308203155117 0.033018192136917632 0
0.29000341032385518 0.035125275689919418 0
0.29000374257437972 0.037195544611331684 0
0.29000412047733554 0.039244829936279833 0
0.29000454605396886 0.041288918410137092 0
0.29000501562324876 0.043343534785536882 0
0.29000555972093106 0.045425125208545317 0
0.29000615740550817 0.047551300932286177 0
0.29000677658270796 0.04974115756407179 0
0.2900069243229414 0.052016194701121482 0
0.29000641357192181 0.0544020240608169 0
0.29000555946319906 0.056929957268438088 0
0.29000452219375877 0.05963660552590621 0
0.29000352415108799 0.062570169545890161 0
0.29000262379152303 0.065809492831936517 0
0.2900018646582595 0.069476396021340397 0
0.29000122807224898 0.073788593153538126 0
0.29000069629585584 0.079235124888644676 0
0.29000026748104296 0.087823092531492494 0
0.29000003311994366 0.10742256857351214 0
0.29000000000000004 0.16218205303430683 0
0.31000466140077304 0.02362252958583615 0
0.3100054413501252 0.026427982780977979 0
0.31000601954959861 0.028688931735679348 0
0.31000657190718844 0.03089447220267813 0
0.3100071121315679 0.033039424816180149 0
0.31000766376061983 0.035131333291453411 0
0.31000821798430189 0.037184768823100005 0
0.31000876561207297 0.039215675624930953 0
0.31000943715889784 0.041239752293992203 0
0.3100103441295039 0.043272632123520782 0
0.31001211191260114 0.045330561258221394 0
0.31001476133342148 0.047431009420654958 0
0.31001623783760429 0.049592808902438092 0
0.31001579001410989 0.051837145590373258 0
0.31001429675305681 0.054188788546505252 0
0.310012224364558 0.056676407481979565 0
0.31000991785357673 0.059334936404942092 0
0.31000765018386883 0.062223631512672767 0
0.31000564010429316 0.065418026332516518 0
0.31000392859727072 0.069039985797249084 0
0.31000252104922854 0.073311800996788204 0
0.3100013901180893 0.078719925639442606 0
0.31000051253753469 0.087327076683757679 0
0.31000005812942694 0.10713929857113821 0
0.31000000000000005 0.16272432749857091 0
0.33000820996900149 0.025143921498024874 0
0.33000944515300168 0.027647387902801163 0
0.33001041163320405 0.02963309618228039 0
0.33001132176389247 0.031617352626016573 0
0.33001212216357584 0.033580617412459324 0
0.33001284892396021 0.035519003949827495 0
0.33001353897275548 0.037438475370992173 0
0.33001427565768138 0.039348956370788266 0
0.33001508012804021 0.041261888077840508 0
0.33001621197518871 0.043189765693331016 0
0.33001820426636369 0.045146414551803356 0
0.33002079945101176 0.04714721251444761 0
0.33002184614843105 0.049209200453222385 0
0.33002064555713156 0.051351601740021589 0
0.330018411876218 0.053596557678663975 0
0.33001564479733625 0.055970761708007702 0
0.33001268535570255 0.058509217789013981 0
0.3300098130555435 0.061273415848088056 0
0.33000724203017479 0.064334615481249857 0
0.33000503067183318 0.067807462775362537 0
0.33000319280938861 0.07191640758632846 0
0.33000169261725043 0.07714694182669582 0
0.3300005666468826 0.085966192102257394 0
0.33000005692501555 0.10669168279200672 0
0.33000000000000002 0.16365479525490076 0
0 0 0
0 0.020000000000000004 0
0 0.040000000000000001 0
0 0.54999999999999993 0
0 0.56000000000000005 0
0 0.58000000000000007 0
0.02 0 0
0.02 0.020000000000000004 0
0.02 0.040000000000000001 0
0.02 0.54999999999999993 0
0.02 0.56000000000000005 0
0.02 0.58000000000000007 0
0.040000000000000001 0 0
0.040000000000000001 0.020000000000000004 0
0.040000000000000001 0.040000000000000001 0
0.040000000000000001 0.54999999999999993 0
0.040000000000000001 0.56000000000000005 0
0.040000000000000001 0.58000000000000007 0
0.059999999999999998 0 0
0.059999999999999998 0.020000000000000004 0
0.059999999999999998 0.040000000000000001 0
0.059999999999999998 0.54999999999999993 0
0.059999999999999998 0.56000000000000005 0
0.059999999999999998 0.58000000000000007 0
0.080000000000000002 0 0
0.080000000000000002 0.020000000000000004 0
0.080000000000000002 0.040000000000000001 0
0.080000000000000002 0.54999999999999993 0
0.080000000000000002 0.56000000000000005 0
0.080000000000000002 0.58000000000000007 0
0.10000000000000001 0 0
0.10000000000000001 0.020000000000000004 0
0.10000000000000001 0.040000000000000001 0
0.10000000000000001 0.54999999999999993 0
0.10000000000000001 0.56000000000000005 0
0.10000000000000001 0.58000000000000007 0
0.12 0 0
0.12 0.020000000000000004 0
0.12 0.040000000000000001 0
0.12 0.54999999999999993 0
0.12 0.56000000000000005 0
0.12 0.58000000000000007 0
0.14000000000000001 0 0
0.14000000000000001 0.020000000000000004 0
0.14000000000000001 0.040000000000000001 0
0.14000000000000001 0.54999999999999993 0
0.14000000000000001 0.56000000000000005 0
0.14000000000000001 0.58000000000000007 0
0.16 0 0
0.16 0.020000000000000004 0
0.16 0.040000000000000001 0
0.16 0.54999999999999993 0
0.16 0.56000000000000005 0
0.16 0.58000000000000007 0
0.17999999999999999 0 0
0.17999999999999999 0.020000000000000004 0
0.17999999999999999 0.040000000000000001 0
0.17999999999999999 0.54999999999999993 0
0.17999999999999999 0.56000000000000005 0
0.17999999999999999 0.58000000000000007 0
0.20000000000000001 0 0
0.20000000000000001 0.020000000000000004 0
0.20000000000000001 0.040000000000000001 0
0.20000000000000001 0.54999999999999993 0
0.20000000000000001 0.56000000000000005 0
0.20000000000000001 0.58000000000000007 0
0.22 0 0
0.22 0.020000000000000004 0
0.22 0.040000000000000001 0
0.22 0.54999999999999993 0
0.22 0.56000000000000005 0
0.22 0.58000000000000007 0
0.23999999999999999 0 0
0.23999999999999999 0.020000000000000004 0
0.23999999999999999 0.040000000000000001 0
0.23999999999999999 0.54999999999999993 0
0.23999999999999999 0.56000000000000005 0
0.23999999999999999 0.58000000000000007 0
0.26000000000000001 0 0
0.26000000000000001 0.020000000000000004 0
0.26000000000000001 0.040000000000000001 0
0.26000000000000001 0.54999999999999993 0
0.26000000000000001 0.56000000000000005 0
0.26000000000000001 0.58000000000000007 0
0.28000000000000003 0 0
0.28000000000000003 0.020000000000000004 0
0.28000000000000003 0.040000000000000001 0
0.28000000000000003 0.54999999999999993 0
0.28000000000000003 0.56000000000000005 0
0.28000000000000003 0.58000000000000007 0
0.29999999999999999 0 0
0.29999999999999999 0.020000000000000004 0
0.29999999999999999 0.040000000000000001 0
0.29999999999999999 0.54999999999999993 0
0.29999999999999999 0.56000000000000005 0
0.29999999999999999 0.58000000000000007 0
0.32000000000000001 0 0
0.32000000000000001 0.020000000000000004 0
0.32000000000000001 0.040000000000000001 0
0.32000000000000001 0.54999999999999993 0
0.32000000000000001 0.56000000000000005 0
0.32000000000000001 0.58000000000000007 0
0.34000000000000002 0 0
0.34000000000000002 0.020000000000000004 0
0.34000000000000002 0.040000000000000001 0
0.34000000000000002 0.54999999999999993 0
0.34000000000000002 0.56000000000000005 0
0.34000000000000002 0.58000000000000007 0
0.35999999999999999 0 0
0.35999999999999999 0.020000000000000004 0
0.35999999999999999 0.040000000000000001 0
0.35999999999999999 0.54999999999999993 0
0.35999999999999999 0.56000000000000005 0
0.35999999999999999 0.58000000000000007 0
0.38 0 0
0.38 0.020000000000000004 0
0.38 0.040000000000000001 0
0.38 0.54999999999999993 0
0.38 0.56000000000000005 0
0.38 0.58000000000000007 0
0.40000000000000002 0 0
0.40000000000000002 0.020000000000000004 0
0.40000000000000002 0.040000000000000001 0
0.40000000000000002 0.54999999999999993 0
0.40000000000000002 0.56000000000000005 0
0.40000000000000002 0.58000000000000007 0
0.41999999999999998 0 0
0.41999999999999998 0.020000000000000004 0
0.41999999999999998 0.040000000000000001 0
0.41999999999999998 0.54999999999999993 0
0.41999999999999998 0.56000000000000005 0
0.41999999999999998 0.58000000000000007 0
0.44 0 0
0.44 0.020000000000000004 0
0.44 0.040000000000000001 0
0.44 0.54999999999999993 0
0.44 0.56000000000000005 0
0.44 0.58000000000000007 0
0.46000000000000002 0 0
0.46000000000000002 0.020000000000000004 0
0.46000000000000002 0.040000000000000001 0
0.46000000000000002 0.54999999999999993 0
0.46000000000000002 0.56000000000000005 0
0.46000000000000002 0.58000000000000007 0
0.47999999999999998 0 0
0.47999999999999998 0.020000000000000004 0
0.47999999999999998 0.040000000000000001 0
0.47999999999999998 0.54999999999999993 0
0.47999999999999998 0.56000000000000005 0
0.47999999999999998 0.58000000000000007 0
0.5 0 0
0.5 0.020000000000000004 0
0.5 0.040000000000000001 0
0.5 0.54999999999999993 0
0.5 0.56000000000000005 0
0.5 0.58000000000000007 0
0.52000000000000002 0 0
0.52000000000000002 0.020000000000000004 0
0.52000000000000002 0.040000000000000001 0
0.52000000000000002 0.54999999999999993 0
0.52000000000000002 0.56000000000000005 0
0.52000000000000002 0.58000000000000007 0
0.54000000000000004 0 0
0.54000000000000004 0.020000000000000004 0
0.54000000000000004 0.040000000000000001 0
0.54000000000000004 0.54999999999999993 0
0.54000000000000004 0.56000000000000005 0
0.54000000000000004 0.58000000000000007 0
0.56000000000000005 0 0
0.56000000000000005 0.020000000000000004 0
0.56000000000000005 0.040000000000000001 0
0.56000000000000005 0.54999999999999993 0
0.56000000000000005 0.56000000000000005 0
0.56000000000000005 0.58000000000000007 0
0.57999999999999996 0 0
0.57999999999999996 0.020000000000000004 0
0.57999999999999996 0.040000000000000001 0
0.57999999999999996 0.54999999999999993 0
0.57999999999999996 0.56000000000000005 0
0.57999999999999996 0.58000000000000007 0
0.59999999999999998 0 0
0.59999999999999998 0.020000000000000004 0
0.59999999999999998 0.040000000000000001 0
0.59999999999999998 0.54999999999999993 0
0.59999999999999998 0.56000000000000005 0
0.59999999999999998 0.58000000000000007 0
0.62 0 0
0.62 0.020000000000000004 0
0.62 0.040000000000000001 0
0.62 0.54999999999999993 0
0.62 0.56000000000000005 0
0.62 0.58000000000000007 0
0.64000000000000001 0 0
0.64000000000000001 0.020000000000000004 0
0.64000000000000001 0.040000000000000001 0
0.64000000000000001 0.54999999999999993 0
0.64000000000000001 0.56000000000000005 0
0.64000000000000001 0.58000000000000007 0
0.66000000000000003 0 0
0.66000000000000003 0.020000000000000004 0
0.66000000000000003 0.040000000000000001 0
0.66000000000000003 0.54999999999999993 0
0.66000000000000003 0.56000000000000005 0
0.66000000000000003 0.58000000000000007 0
0.68000000000000005 0 0
0.68000000000000005 0.020000000000000004 0
0.68000000000000005 0.040000000000000001 0
0.68000000000000005 0.54999999999999993 0
0.68000000000000005 0.56000000000000005 0
0.68000000000000005 0.58000000000000007 0
0.70000000000000007 0 0
0.70000000000000007 0.020000000000000004 0
0.70000000000000007 0.040000000000000001 0
0.70000000000000007 0.54999999999999993 0
0.70000000000000007 0.56000000000000005 0
0.70000000000000007 0.58000000000000007 0
0.71999999999999997 0 0
0.71999999999999997 0.020000000000000004 0
0.71999999999999997 0.040000000000000001 0
0.71999999999999997 0.54999999999999993 0
0.71999999999999997 0.56000000000000005 0
0.71999999999999997 0.58000000000000007 0
0.73999999999999999 0 0
0.73999999999999999 0.020000000000000004 0
0.73999999999999999 0.040000000000000001 0
0.73999999999999999 0.54999999999999993 0
0.73999999999999999 0.56000000000000005 0
0.73999999999999999 0.58000000000000007 0
0.76000000000000001 0 0
0.76000000000000001 0.020000000000000004 0
0.76000000000000001 0.040000000000000001 0
0.76000000000000001 0.54999999999999993 0
0.76000000000000001 0.56000000000000005 0
0.76000000000000001 0.58000000000000007 0
0.78000000000000003 0 0
0.78000000000000003 0.020000000000000004 0
0.78000000000000003 0.040000000000000001 0
0.78000000000000003 0.54999999999999993 0
0.78000000000000003 0.56000000000000005 0
0.78000000000000003 0.58000000000000007 0
0.80000000000000004 0 0
0.80000000000000004 0.020000000000000004 0
0.80000000000000004 0.040000000000000001 0
0.80000000000000004 0.54999999999999993 0
0.80000000000000004 0.56000000000000005 0
0.80000000000000004 0.58000000000000007 0
0.82000000000000006 0 0
0.82000000000000006 0.020000000000000004 0
0.82000000000000006 0.040000000000000001 0
0.82000000000000006 0.54999999999999993 0
0.82000000000000006 0.56000000000000005 0
0.82000000000000006 0.58000000000000007 0
0.83999999999999997 0 0
0.83999999999999997 0.020000000000000004 0
0.83999999999999997 0.040000000000000001 0
0.83999999999999997 0.54999999999999993 0
0.83999999999999997 0.56000000000000005 0
0.83999999999999997 0.58000000000000007 0
0.85999999999999999 0 0
0.85999999999999999 0.020000000000000004 0
0.85999999999999999 0.040000000000000001 0
0.85999999999999999 0.54999999999999993 0
0.85999999999999999 0.56000000000000005 0
0.85999999999999999 0.58000000000000007 0
0.88 0 0
0.88 0.020000000000000004 0
0.88 0.040000000000000001 0
0.88 0.54999999999999993 0
0.88 0.56000000000000005 0
0.88 0.58000000000000007 0
0.90000000000000002 0 0
0.90000000000000002 0.020000000000000004 0
0.90000000000000002 0.040000000000000001 0
0.90000000000000002 0.54999999999999993 0
0.90000000000000002 0.56000000000000005 0
0.90000000000000002 0.58000000000000007 0
0.92000000000000004 0 0
0.92000000000000004 0.020000000000000004 0
0.92000000000000004 0.040000000000000001 0
0.92000000000000004 0.54999999999999993 0
0.92000000000000004 0.56000000000000005 0
0.92000000000000004 0.58000000000000007 0
0.94000000000000006 0 0
0.94000000000000006 0.020000000000000004 0
0.94000000000000006 0.040000000000000001 0
0.94000000000000006 0.54999999999999993 0
0.94000000000000006 0.56000000000000005 0
0.94000000000000006 0.58000000000000007 0
0.95999999999999996 0 0
0.95999999999999996 0.020000000000000004 0
0.95999999999999996 0.040000000000000001 0
0.95999999999999996 0.54999999999999993 0
0.95999999999999996 0.56000000000000005 0
0.95999999999999996 0.58000000000000007 0
0.97999999999999998 0 0
0.97999999999999998 0.020000000000000004 0
0.97999999999999998 0.040000000000000001 0
0.97999999999999998 0.54999999999999993 0
0.97999999999999998 0.56000000000000005 0
0.97999999999999998 0.58000000000000007 0
1 0 0
1 0.020000000000000004 0
1 0.040000000000000001 0
1 0.54999999999999993 0
1 0.56000000000000005 0
1 0.58000000000000007 0
VERTICES 681 1362
1 0
1 1
1 2
1 3
1 4
1 5
1 6
1 7
1 8
1 9
1 10
1 11
1 12
1 13
1 14
1 15
1 16
1 17
1 18
1 19
1 20
1 21
1 22
1 23
1 24
1 25
1 26
1 27
1 28
1 29
1 30
1 31
1 32
1 33
1 34
1 35
1 36
1 37
1 38
1 39
1 40
1 41
1 42
1 43
1 44
1 45
1 46
1 47
1 48
1 49
1 50
1 51
1 52
1 53
1 54
1 55
1 56
1 57
1 58
1 59
1 60
1 61
1 62
1 63
1 64
1 65
1 66
1 67
1 68
1 69
1 70
1 71
1 72
1 73
1 74
1 75
1 76
1 77
1 78
1 79
1 80
1 81
1 82
1 83
1 84
1 85
1 86
1 87
1 88
1 89
1 90
1 91
1 92
1 93
1 94
1 95
1 96
1 97
1 98
1 99
1 100
1 101
1 102
1 103
1 104
1 105
1 106
1 107
1 108
1 109
1 110
1 111
1 112
1 113
1 114
1 115
1 116
1 117
1 118
1 119
1 120
1 121
1 122
1 123
1 124
1 125
1 126
1 127
1 128
1 129
1 130
1 131
1 132
1 133
1 134
1 135
1 136
1 137
1 138
1 139
1 140
1 141
1 142
1 143
1 144
1 145
1 146
1 147
1 148
1 149
1 150
1 151
1 152
1 153
1 154
1 155
1 156
1 157
1 158
1 159
1 160
1 161
1 162
1 163
1 164
1 165
1 166
1 167
1 168
1 169
1 170
1 171
1 172
1 173
1 174
1 175
1 176
1 177
1 178
1 179
1 180
1 181
1 182
1 183
1 184
1 185
1 186
1 187
1 188
1 189
1 190
1 191
1 192
1 193
1 194
1 195
1 196
1 197
1 198
1 199
1 200
1 201
1 202
1 203
1 204
1 205
1 206
1 207
1 208
1 209
1 210
1 211
1 212
1 213
1 214
1 215
1 216
1 217
1 218
1 219
1 220
1 221
1 222
1 223
1 224
1 225
1 226
1 227
1 228
1 229
1 230
1 231
1 232
1 233
1 234
1 235
1 236
1 237
1 238
1 239
1 240
1 241
1 242
1 243
1 244
1 245
1 246
1 247
1 248
1 249
1 250
1 251
1 252
1 253
1 254
1 255
1 256
1 257
1 258
1 259
1 260
1 261
1 262
1 263
1 264
1 265
1 266
1 267
1 268
1 269
1 270
1 271
1 272
1 273
1 274
1 275
1 276
1 277
1 278
1 279
1 280
1 281
1 282
1 283
1 284
1 285
1 286
1 287
1 288
1 289
1 290
1 291
1 292
1 293
1 294
1 295
1 296
1 297
1 298
1 299
1 300
1 301
1 302
1 303
1 304
1 305
1 306
1 307
1 308
1 309
1 310
1 311
1 312
1 313
1 314
1 315
1 316
1 317
1 318
1 319
1 320
1 321
1 322
1 323
1 324
1 325
1 326
1 327
1 328
1 329
1 330
1 331
1 332
1 333
1 334
1 335
1 336
1 337
1 338
1 339
1 340
1 341
1 342
1 343
1 344
1 345
1 346
1 347
1 348
1 349
1 350
1 351
1 352
1 353
1 354
1 355
1 356
1 357
1 358
1 359
1 360
1 361
1 362
1 363
1 364
1 365
1 366
1 367
1 368
1 369
1 370
1 371
1 372
1 373
1 374
1 375
1 376
1 377
1 378
1 379
1 380
1 381
1 382
1 383
1 384
1 385
1 386
1 387
1 388
1 389
1 390
1 391
1 392
1 393
1 394
1 395
1 396
1 397
1 398
1 399
1 400
1 401
1 402
1 403
1 404
1 405
1 406
1 407
1 408
1 409
1 410
1 411
1 412
1 413
1 414
1 415
1 416
1 417
1 418
1 419
1 420
1 421
1 422
1 423
1 424
1 425
1 426
1 427
1 428
1 429
1 430
1 431
1 432
1 433
1 434
1 435
1 436
1 437
1 438
1 439
1 440
1 441
1 442
1 443
1 444
1 445
1 446
1 447
1 448
1 449
1 450
1 451
1 452
1 453
1 454
1 455
1 456
1 457
1 458
1 459
1 460
1 461
1 462
1 463
1 464
1 465
1 466
1 467
1 468
1 469
1 470
1 471
1 472
1 473
1 474
1 475
1 476
1 477
1 478
1 479
1 480
1 481
1 482
1 483
1 484
1 485
1 486
1 487
1 488
1 489
1 490
1 491
1 492
1 493
1 494
1 495
1 496
1 497
1 498
1 499
1 500
1 501
1 502
1 503
1 504
1 505
1 506
1 507
1 508
1 509
1 510
1 511
1 512
1 513
1 514
1 515
1 516
1 517
1 518
1 519
1 520
1 521
1 522
1 523
1 524
1 525
1 526
1 527
1 528
1 529
1 530
1 531
1 532
1 533
1 534
1 535
1 536
1 537
1 538
1 539
1 540
1 541
1 542
1 543
1 544
1 545
1 546
1 547
1 548
1 549
1 550
1 551
1 552
1 553
1 554
1 555
1 556
1 557
1 558
1 559
1 560
1 561
1 562
1 563
1 564
1 565
1 566
1 567
1 568
1 569
1 570
1 571
1 572
1 573
1 574
1 575
1 576
1 577
1 578
1 579
1 580
1 581
1 582
1 583
1 584
1 585
1 586
1 587
1 588
1 589
1 590
1 591
1 592
1 593
1 594
1 595
1 596
1 597
1 598
1 599
1 600
1 601
1 602
1 603
1 604
1 605
1 606
1 607
1 608
1 609
1 610
1 611
1 612
1 613
1 614
1 615
1 616
1 617
1 618
1 619
1 620
1 621
1 622
1 623
1 624
1 625
1 626
1 627
1 628
1 629
1 630
1 631
1 632
1 633
1 634
1 635
1 636
1 637
1 638
1 639
1 640
1 641
1 642
1 643
1 644
1 645
1 646
1 647
1 648
1 649
1 650
1 651
1 652
1 653
1 654
1 655
1 656
1 657
1 658
1 659
1 660
1 661
1 662
1 663
1 664
1 665
1 666
1 667
1 668
1 669
1 670
1 671
1 672
1 673
1 674
1 675
1 676
1 677
1 678
1 679
1 680
POINT_DATA 681
SCALARS is_boundary int 1
LOOKUP_TABLE default
0
0
0
0
0
0
0
0
0
0
0
0
0
0
0
0
0
0
0
0
0
0
0
0
0
0
0
0
0
0
0
0
0
0
0
0
0
0
0
0
0
0
0
0
0
0
0
0
0
0
0
0
0
0
0
0
0
0
0
0
0
0
0
0
0
0
0
0
0
0
0
0
0
0
0
0
0
0
0
0
0
0
0
0
0
0
0
0
0
0
0
0
0
0
0
0
0
0
0
0
0
0
0
0
0
0
0
0
0
0
0
0
0
0
0
0
0
0
0
0
0
0
0
0
0
0
0
0
0
0
0
0
0
0
0
0
0
0
0
0
0
0
0
0
0
0
0
0
0
0
0
0
0
0
0
0
0
0
0
0
0
0
0
0
0
0
0
0
0
0
0
0
0
0
0
0
0
0
0
0
0
0
0
0
0
0
0
0
0
0
0
0
0
0
0
0
0
0
0
0
0
0
0
0
0
0
0
0
0
0
0
0
0
0
0
0
0
0
0
0
0
0
0
0
0
0
0
0
0
0
0
0
0
0
0
0
0
0
0
0
0
0
0
0
0
0
0
0
0
0
0
0
0
0
0
0
0
0
0
0
0
0
0
0
0
0
0
0
0
0
0
0
0
0
0
0
0
0
0
0
0
0
0
0
0
0
0
0
0
0
0
0
0
0
0
0
0
0
0
0
0
0
0
0
0
0
0
0
0
0
0
0
0
0
0
0
0
0
0
0
0
0
0
0
0
0
0
0
0
0
0
0
0
0
0
0
0
0
0
0
0
0
0
0
0
0
0
0
0
0
0
0
0
0
0
0
0
0
0
0
0
0
0
0
0
0
0
0
0
0
0
0
0
0
0
1
1
1
1
1
1
1
1
1
1
1
1
1
1
1
1
1
1
1
1
1
1
1
1
1
1
1
1
1
1
1
1
1
1
1
1
1
1
1
1
1
1
1
1
1
1
1
1
1
1
1
1
1
1
1
1
1
1
1
1
1
1
1
1
1
1
1
1
1
1
1
1
1
1
1
1
1
1
1
1
1
1
1
1
1
1
1
1
1
1
1
1
1
1
1
1
1
1
1
1
1
1
1
1
1
1
1
1
1
1
1
1
1
1
1
1
1
1
1
1
1
1
1
1
1
1
1
1
1
1
1
1
1
1
1
1
1
1
1
1
1
1
1
1
1
1
1
1
1
1
1
1
1
1
1
1
1
1
1
1
1
1
1
1
1
1
1
1
1
1
1
1
1
1
1
1
1
1
1
1
1
1
1
1
1
1
1
1
1
1
1
1
1
1
1
1
1
1
1
1
1
1
1
1
1
1
1
1
1
1
1
1
1
1
1
1
1
1
1
1
1
1
1
1
1
1
1
1
1
1
1
1
1
1
1
1
1
1
1
1
1
1
1
1
1
1
1
1
1
1
1
1
1
1
1
1
1
1
1
1
1
1
1
1
1
1
1
1
1
1
1
1
1
1
1
1
1
1
1
1
1
1
1
1
1
1
1
1
1
1
1
1
1
1
1
1
1
1
1
1
1
1
1
1
1
1
SCALARS rho float 1
LOOKUP_TABLE default
1020
1020
1020
1020
1020
1020
1020
1020
1020
1020
1020
1020
1020
1020
1020
1020
1020
1020
1020
1020
1020
1020
1020
850
850
1020
1020
1020
1020
1020
1020
1020
1020
1020
1020
1020
1020
1020
1020
1020
1020
1020
1020
1020
1020
1020
1020
1020
873.43636832939274
850
1020
1020
1020
1020
1020
1020
1020
1020
1020
1020
1020
1020
1020
1020
1020
1020
1020
1020
1020
1020
1020
1020
1020
880
850
1020
1020
1020
1020
1020
1020
1020
1020
1020
1020
1020
1020
1020
1020
1020
1020
1020
1020
1020
1020
1020
1020
1020
880
850
1020
1020
1020
1020
1020
1020
1020
1020
1020
1020
1020
1020
1020
1020
1020
1020
1020
1020
1020
1020
1020
1020
1020
880
850
1020
1020
1020
1020
1020
1020
1020
1020
1020
1020
1020
1020
1020
1020
1020
1020
1020
1020
1020
1020
1020
1020
1020
880
850
1020
1020
1020
1020
1020
1020
1020
1020
1020
1020
1020
1020
1020
1020
1020
1020
1020
1020
1020
1020
1020
1020
1020
880
850
1020
1020
1020
1020
1020
1020
1020
1020
1020
1020
1020
1020
1020
1020
1020
1020
1020
1020
1020
1020
1020
1020
1020
880
850
1020
1020
1020
1020
1020
1020
1020
1020
1020
1020
1020
1020
1020
1020
1020
1020
1020
1020
1020
1020
1020
1020
1020
880
850
1020
1020
1020
1020
1020
1020
1020
1020
1020
1020
1020
1020
1020
1020
1020
1020
1020
1020
1020
1020
1020
1020
1020
880
850
1020
1020
1020
1020
1020
1020
1020
1020
1020
1020
1020
1020
1020
1020
1020
1020
1020
1020
1020
1020
1020
1020
1020
880
850
1020
1020
1020
1020
1020
1020
1020
1020
1020
1020
1020
1020
1020
1020
1020
1020
1020
1020
1020
1020
1020
1020
1020
880
850
1020
1020
1020
1020
1020
1020
1020
1020
1020
1020
1020
1020
1020
1020
1020
1020
1020
1020
1020
1020
1020
1020
1020
880
850
1020
1020
1020
1020
1020
1020
1020
1020
1020
1020
1020
1020
1020
1020
1020
1020
1020
1020
1020
1020
1020
1020
1020
873.43948794631274
850
1020
1020
1020
1020
1020
1020
1020
1020
1020
1020
1020
1020
1020
1020
1020
1020
1020
1020
1020
1020
1020
1020
1020
850
850
1000
1000
1000
1000
1000
1000
1000
1000
1000
1000
1000
1000
1000
1000
1000
1000
1000
1000
1000
1000
1000
1000
1000
1000
1000
1000
1000
1000
1000
1000
1000
1000
1000
1000
1000
1000
1000
1000
1000
1000
1000
1000
1000
1000
1000
1000
1000
1000
1000
1000
1000
1000
1000
1000
1000
1000
1000
1000
1000
1000
1000
1000
1000
1000
1000
1000
1000
1000
1000
1000
1000
1000
1000
1000
1000
1000
1000
1000
1000
1000
1000
1000
1000
1000
1000
1000
1000
1000
1000
1000
1000
1000
1000
1000
1000
1000
1000
1000
1000
1000
1000
1000
1000
1000
1000
1000
1000
1000
1000
1000
1000
1000
1000
1000
1000
1000
1000
1000
1000
1000
1000
1000
1000
1000
1000
1000
1000
1000
1000
1000
1000
1000
1000
1000
1000
1000
1000
1000
1000
1000
1000
1000
1000
1000
1000
1000
1000
1000
1000
1000
1000
1000
1000
1000
1000
1000
1000
1000
1000
1000
1000
1000
1000
1000
1000
1000
1000
1000
1000
1000
1000
1000
1000
1000
1000
1000
1000
1000
1000
1000
1000
1000
1000
1000
1000
1000
1000
1000
1000
1000
1000
1000
1000
1000
1000
1000
1000
1000
1000
1000
1000
1000
1000
1000
1000
1000
1000
1000
1000
1000
1000
1000
1000
1000
1000
1000
1000
1000
1000
1000
1000
1000
1000
1000
1000
1000
1000
1000
1000
1000
1000
1000
1000
1000
1000
1000
1000
1000
1000
1000
1000
1000
1000
1000
1000
1000
1000
1000
1000
1000
1000
1000
1000
1000
1000
1000
1000
1000
1000
1000
1000
1000
1000
1000
1000
1000
1000
1000
1000
1000
1000
1000
1000
1000
1000
1000
1000
1000
1000
1000
1000
1000
1000
1000
1000
1000
1000
1000
1000
1000
1000
1000
1000
1000
1000
1000
1000
1000
1000
1000
1000
1000
1000
1000
1000
1000
SCALARS p float 1
LOOKUP_TABLE default
25004.681136676067
25004.681136676067
25004.681136676067
25004.681136676067
25004.681136676067
25004.681136676067
25004.681136676067
25004.681136676067
25004.681136676067
25004.681136676067
25004.681136676067
25004.681136676067
25004.681136676067
25004.681136676067
25004.681136676067
25004.681136676067
25004.681136676067
25004.681136676067
25004.681136676067
25004.681136676067
25004.681136676067
25004.681136676067
25004.681136676067
0
0
25004.681136676067
25004.681136676067
25004.681136676067
25004.681136676067
25004.681136676067
25004.681136676067
25004.681136676067
25004.681136676067
25004.681136676067
25004.681136676067
25004.681136676067
25004.681136676067
25004.681136676067
25004.681136676067
25004.681136676067
25004.681136676067
25004.681136676067
25004.681136676067
25004.681136676067
25004.681136676067
25004.681136676067
25004.681136676067
25004.681136676067
0
0
25004.681136676067
25004.681136676067
25004.681136676067
25004.681136676067
25004.681136676067
25004.681136676067
25004.681136676067
25004.681136676067
25004.681136676067
25004.681136676067
25004.681136676067
25004.681136676067
25004.681136676067
25004.681136676067
25004.681136676067
25004.681136676067
25004.681136676067
25004.681136676067
25004.681136676067
25004.681136676067
25004.681136676067
25004.681136676067
25004.681136676067
0
0
25004.681136676067
25004.681136676067
25004.681136676067
25004.681136676067
25004.681136676067
25004.681136676067
25004.681136676067
25004.681136676067
25004.681136676067
25004.681136676067
25004.681136676067
25004.681136676067
25004.681136676067
25004.681136676067
25004.681136676067
25004.681136676067
25004.681136676067
25004.681136676067
25004.681136676067
25004.681136676067
25004.681136676067
25004.681136676067
25004.681136676067
0
0
25004.681136676067
25004.681136676067
25004.681136676067
25004.681136676067
25004.681136676067
25004.681136676067
25004.681136676067
25004.681136676067
25004.681136676067
25004.681136676067
25004.681136676067
25004.681136676067
25004.681136676067
25004.681136676067
25004.681136676067
25004.681136676067
25004.681136676067
25004.681136676067
25004.681136676067
25004.681136676067
25004.681136676067
25004.681136676067
25004.681136676067
0
0
25004.681136676067
25004.681136676067
25004.681136676067
25004.681136676067
25004.681136676067
25004.681136676067
25004.681136676067
25004.681136676067
25004.681136676067
25004.681136676067
25004.681136676067
25004.681136676067
25004.681136676067
25004.681136676067
25004.681136676067
25004.681136676067
25004.681136676067
25004.681136676067
25004.681136676067
25004.681136676067
25004.681136676067
25004.681136676067
25004.681136676067
0
0
25004.681136676067
25004.681136676067
25004.681136676067
25004.681136676067
25004.681136676067
25004.681136676067
25004.681136676067
25004.681136676067
25004.681136676067
25004.681136676067
25004.681136676067
25004.681136676067
25004.681136676067
25004.681136676067
25004.681136676067
25004.681136676067
25004.681136676067
25004.681136676067
25004.681136676067
25004.681136676067
25004.681136676067
25004.681136676067
25004.681136676067
0
0
25004.681136676067
25004.681136676067
25004.681136676067
25004.681136676067
25004.681136676067
25004.681136676067
25004.681136676067
25004.681136676067
25004.681136676067
25004.681136676067
25004.681136676067
25004.681136676067
25004.681136676067
25004.681136676067
25004.681136676067
25004.681136676067
25004.681136676067
25004.681136676067
25004.681136676067
25004.681136676067
25004.681136676067
25004.681136676067
25004.681136676067
0
0
25004.681136676067
25004.681136676067
25004.681136676067
25004.681136676067
25004.681136676067
25004.681136676067
25004.681136676067
25004.681136676067
25004.681136676067
25004.681136676067
25004.681136676067
25004.681136676067
25004.681136676067
25004.681136676067
25004.681136676067
25004.681136676067
25004.681136676067
25004.681136676067
25004.681136676067
25004.681136676067
25004.681136676067
25004.681136676067
25004.681136676067
0
0
25004.681136676067
25004.681136676067
25004.681136676067
25004.681136676067
25004.681136676067
25004.681136676067
25004.681136676067
25004.681136676067
25004.681136676067
25004.681136676067
25004.681136676067
25004.681136676067
25004.681136676067
25004.681136676067
25004.681136676067
25004.681136676067
25004.681136676067
25004.681136676067
25004.681136676067
25004.681136676067
25004.681136676067
25004.681136676067
25004.681136676067
0
0
25004.681136676067
25004.681136676067
25004.681136676067
25004.681136676067
25004.681136676067
25004.681136676067
25004.681136676067
25004.681136676067
25004.681136676067
25004.681136676067
25004.681136676067
25004.681136676067
25004.681136676067
25004.681136676067
25004.681136676067
25004.681136676067
25004.681136676067
25004.681136676067
25004.681136676067
25004.681136676067
25004.681136676067
25004.681136676067
25004.681136676067
0
0
25004.681136676067
25004.681136676067
25004.681136676067
25004.681136676067
25004.681136676067
25004.681136676067
25004.681136676067
25004.681136676067
25004.681136676067
25004.681136676067
25004.681136676067
25004.681136676067
25004.681136676067
25004.681136676067
25004.681136676067
25004.681136676067
25004.681136676067
25004.681136676067
25004.681136676067
25004.681136676067
25004.681136676067
25004.681136676067
25004.681136676067
0
0
25004.681136676067
25004.681136676067
25004.681136676067
25004.681136676067
25004.681136676067
25004.681136676067
25004.681136676067
25004.681136676067
25004.681136676067
25004.681136676067
25004.681136676067
25004.681136676067
25004.681136676067
25004.681136676067
25004.681136676067
25004.681136676067
25004.681136676067
25004.681136676067
25004.681136676067
25004.681136676067
25004.681136676067
25004.681136676067
25004.681136676067
0
0
25004.681136676067
25004.681136676067
25004.681136676067
25004.681136676067
25004.681136676067
25004.681136676067
25004.681136676067
25004.681136676067
25004.681136676067
25004.681136676067
25004.681136676067
25004.681136676067
25004.681136676067
25004.681136676067
25004.681136676067
25004.681136676067
25004.681136676067
25004.681136676067
25004.681136676067
25004.681136676067
25004.681136676067
25004.681136676067
25004.681136676067
0
0
25004.681136676067
25004.681136676067
25004.681136676067
25004.681136676067
25004.681136676067
25004.681136676067
25004.681136676067
25004.681136676067
25004.681136676067
25004.681136676067
25004.681136676067
25004.681136676067
25004.681136676067
25004.681136676067
25004.681136676067
25004.681136676067
25004.681136676067
25004.681136676067
25004.681136676067
25004.681136676067
25004.681136676067
25004.681136676067
25004.681136676067
0
0
0
0
0
0
0
0
23930.7887025046
24984.613072545155
24996.952565000105
0
0
0
24983.839143127669
25003.244023204043
25004.053184701126
0
0
0
24995.134368172181
25003.943498646386
25004.348694044391
0
0
0
24996.090317532773
25003.977497388383
25004.356188904279
0
0
0
24996.142693169939
25003.977084254784
25004.354276000577
0
0
0
24996.108281368321
25003.975459941765
25004.353712544838
0
0
0
24996.085593556665
25003.974487830132
25004.353488933317
0
0
0
24996.074677699566
25003.974022400056
25004.353391191005
0
0
0
24996.070441947901
25003.973846114146
25004.353356845022
0
0
0
24996.070392998605
25003.973844892218
25004.35335702695
0
0
0
24996.074627740669
25003.97402198441
25004.353392202775
0
0
0
24996.085536808099
25003.974487854852
25004.353490259764
0
0
0
24996.108250543537
25003.975460704765
25004.35371531043
0
0
0
24996.142602359152
25003.977080635828
25004.354278213061
0
0
0
24996.090143090118
25003.977493823269
25004.3561925471
0
0
0
24995.134160566333
25003.943505463649
25004.348704087664
0
0
0
24983.837544983093
25003.243975097135
25004.053169336308
0
0
0
23930.52189569252
24984.610627649148
24996.951450790399
0
0
0
0
0
0
0
0
0
0
0
0
0
0
0
0
0
0
0
0
0
0
0
0
0
0
0
0
0
0
0
0
0
0
0
0
0
0
0
0
0
0
0
0
0
0
0
0
0
0
0
0
0
0
0
0
0
0
0
0
0
0
0
0
0
0
0
0
0
0
0
0
0
0
0
0
0
0
0
0
0
0
0
0
0
0
0
0
0
0
0
0
0
0
0
0
0
0
0
0
0
0
0
0
0
0
0
0
0
0
0
0
0
0
0
0
0
0
0
0
0
0
0
0
0
0
0
0
0
0
0
0
0
0
0
0
0
0
0
0
0
0
0
0
0
0
0
0
0
0
0
0
0
0
0
0
0
0
0
0
0
0
0
0
0
0
0
0
0
0
0
0
0
0
0
0
0
0
0
0
0
0
0
0
0
0
0
0
0
0
0
0
0
0
0
SCALARS m float 1
LOOKUP_TABLE default
0.39942306611962441
0.39942306611962441
0.39942306611962441
0.39942306611962441
0.39942306611962441
0.39942306611962441
0.39942306611962441
0.39942306611962441
0.39942306611962441
0.39942306611962441
0.39942306611962441
0.39942306611962441
0.39942306611962441
0.39942306611962441
0.39942306611962441
0.39942306611962441
0.39942306611962441
0.39942306611962441
0.39942306611962441
0.39942306611962441
0.39942306611962441
0.39942306611962441
0.39942306611962441
0.39942306611962441
0.39942306611962441
0.39942306611962441
0.39942306611962441
0.39942306611962441
0.39942306611962441
0.39942306611962441
0.39942306611962441
0.39942306611962441
0.39942306611962441
0.39942306611962441
0.39942306611962441
0.39942306611962441
0.39942306611962441
0.39942306611962441
0.39942306611962441
0.39942306611962441
0.39942306611962441
0.39942306611962441
0.39942306611962441
0.39942306611962441
0.39942306611962441
0.39942306611962441
0.39942306611962441
0.39942306611962441
0.39942306611962441
0.39942306611962441
0.39942306611962441
0.39942306611962441
0.39942306611962441
0.39942306611962441
0.39942306611962441
0.39942306611962441
0.39942306611962441
0.39942306611962441
0.39942306611962441
0.39942306611962441
0.39942306611962441
0.39942306611962441
0.39942306611962441
0.39942306611962441
0.39942306611962441
0.39942306611962441
0.39942306611962441
0.39942306611962441
0.39942306611962441
0.39942306611962441
0.39942306611962441
0.39942306611962441
0.39942306611962441
0.39942306611962441
0.39942306611962441
0.39942306611962441
0.39942306611962441
0.39942306611962441
0.39942306611962441
0.39942306611962441
0.39942306611962441
0.39942306611962441
0.39942306611962441
0.39942306611962441
0.39942306611962441
0.39942306611962441
0.39942306611962441
0.39942306611962441
0.39942306611962441
0.39942306611962441
0.39942306611962441
0.39942306611962441
0.39942306611962441
0.39942306611962441
0.39942306611962441
0.39942306611962441
0.39942306611962441
0.39942306611962441
0.39942306611962441
0.39942306611962441
0.39942306611962441
0.39942306611962441
0.39942306611962441
0.39942306611962441
0.39942306611962441
0.39942306611962441
0.39942306611962441
0.39942306611962441
0.39942306611962441
0.39942306611962441
0.39942306611962441
0.39942306611962441
0.39942306611962441
0.39942306611962441
0.39942306611962441
0.39942306611962441
0.39942306611962441
0.39942306611962441
0.39942306611962441
0.39942306611962441
0.39942306611962441
0.39942306611962441
0.39942306611962441
0.39942306611962441
0.39942306611962441
0.39942306611962441
0.39942306611962441
0.39942306611962441
0.39942306611962441
0.39942306611962441
0.39942306611962441
0.39942306611962441
0.39942306611962441
0.39942306611962441
0.39942306611962441
0.39942306611962441
0.39942306611962441
0.39942306611962441
0.39942306611962441
0.39942306611962441
0.39942306611962441
0.39942306611962441
0.39942306611962441
0.39942306611962441
0.39942306611962441
0.39942306611962441
0.39942306611962441
0.39942306611962441
0.39942306611962441
0.39942306611962441
0.39942306611962441
0.39942306611962441
0.39942306611962441
0.39942306611962441
0.39942306611962441
0.39942306611962441
0.39942306611962441
0.39942306611962441
0.39942306611962441
0.39942306611962441
0.39942306611962441
0.39942306611962441
0.39942306611962441
0.39942306611962441
0.39942306611962441
0.39942306611962441
0.39942306611962441
0.39942306611962441
0.39942306611962441
0.39942306611962441
0.39942306611962441
0.39942306611962441
0.39942306611962441
0.39942306611962441
0.39942306611962441
0.39942306611962441
0.39942306611962441
0.39942306611962441
0.39942306611962441
0.39942306611962441
0.39942306611962441
0.39942306611962441
0.39942306611962441
0.39942306611962441
0.39942306611962441
0.39942306611962441
0.39942306611962441
0.39942306611962441
0.39942306611962441
0.39942306611962441
0.39942306611962441
0.39942306611962441
0.39942306611962441
0.39942306611962441
0.39942306611962441
0.39942306611962441
0.39942306611962441
0.39942306611962441
0.39942306611962441
0.39942306611962441
0.39942306611962441
0.39942306611962441
0.39942306611962441
0.39942306611962441
0.39942306611962441
0.39942306611962441
0.39942306611962441
0.39942306611962441
0.39942306611962441
0.39942306611962441
0.39942306611962441
0.39942306611962441
0.39942306611962441
0.39942306611962441
0.39942306611962441
0.39942306611962441
0.39942306611962441
0.39942306611962441
0.39942306611962441
0.39942306611962441
0.39942306611962441
0.39942306611962441
0.39942306611962441
0.39942306611962441
0.39942306611962441
0.39942306611962441
0.39942306611962441
0.39942306611962441
0.39942306611962441
0.39942306611962441
0.39942306611962441
0.39942306611962441
0.39942306611962441
0.39942306611962441
0.39942306611962441
0.39942306611962441
0.39942306611962441
0.39942306611962441
0.39942306611962441
0.39942306611962441
0.39942306611962441
0.39942306611962441
0.39942306611962441
0.39942306611962441
0.39942306611962441
0.39942306611962441
0.39942306611962441
0.39942306611962441
0.39942306611962441
0.39942306611962441
0.39942306611962441
0.39942306611962441
0.39942306611962441
0.39942306611962441
0.39942306611962441
0.39942306611962441
0.39942306611962441
0.39942306611962441
0.39942306611962441
0.39942306611962441
0.39942306611962441
0.39942306611962441
0.39942306611962441
0.39942306611962441
0.39942306611962441
0.39942306611962441
0.39942306611962441
0.39942306611962441
0.39942306611962441
0.39942306611962441
0.39942306611962441
0.39942306611962441
0.39942306611962441
0.39942306611962441
0.39942306611962441
0.39942306611962441
0.39942306611962441
0.39942306611962441
0.39942306611962441
0.39942306611962441
0.39942306611962441
0.39942306611962441
0.39942306611962441
0.39942306611962441
0.39942306611962441
0.39942306611962441
0.39942306611962441
0.39942306611962441
0.39942306611962441
0.39942306611962441
0.39942306611962441
0.39942306611962441
0.39942306611962441
0.39942306611962441
0.39942306611962441
0.39942306611962441
0.39942306611962441
0.39942306611962441
0.39942306611962441
0.39942306611962441
0.39942306611962441
0.39942306611962441
0.39942306611962441
0.39942306611962441
0.39942306611962441
0.39942306611962441
0.39942306611962441
0.39942306611962441
0.39942306611962441
0.39942306611962441
0.39942306611962441
0.39942306611962441
0.39942306611962441
0.39942306611962441
0.39942306611962441
0.39942306611962441
0.39942306611962441
0.39942306611962441
0.39942306611962441
0.39942306611962441
0.39942306611962441
0.39942306611962441
0.39942306611962441
0.39942306611962441
0.39942306611962441
0.39942306611962441
0.39942306611962441
0.39942306611962441
0.39942306611962441
0.39942306611962441
0.39942306611962441
0.39942306611962441
0.39942306611962441
0.39942306611962441
0.39942306611962441
0.39942306611962441
0.39942306611962441
0.39942306611962441
0.39942306611962441
0.39942306611962441
0.39942306611962441
0.39942306611962441
0.39942306611962441
0.39942306611962441
0.39942306611962441
0.39942306611962441
0.39942306611962441
0.39942306611962441
0.39942306611962441
0.39942306611962441
0.39942306611962441
0.39942306611962441
0.39942306611962441
0.39942306611962441
0.39942306611962441
0.39942306611962441
0.39942306611962441
0.39942306611962441
0.39942306611962441
0.39942306611962441
0.39942306611962441
0.39942306611962441
0.39942306611962441
0.39942306611962441
0.39942306611962441
0.39942306611962441
0.39942306611962441
0.39942306611962441
0.39942306611962441
0.39942306611962441
0.39942306611962441
0.39942306611962441
0.39942306611962441
0.39942306611962441
0.39942306611962441
0.39942306611962441
0.39942306611962441
0.39942306611962441
0.39942306611962441
0.39942306611962441
0.39942306611962441
0.39942306611962441
0.39942306611962441
0.39942306611962441
0.39942306611962441
0.39942306611962441
0.39942306611962441
0.39942306611962441
0.39942306611962441
0.39942306611962441
0.39942306611962441
0.39942306611962441
0.39942306611962441
0.39942306611962441
0.39942306611962441
0.39942306611962441
0.39942306611962441
0.39942306611962441
0.39942306611962441
0.39942306611962441
0.39942306611962441
0.39942306611962441
0.39942306611962441
0.39942306611962441
0.39942306611962441
0.39942306611962441
0.39942306611962441
0.39942306611962441
0.39942306611962441
0.39942306611962441
0.39942306611962441
0.39942306611962441
0.39942306611962441
0.39942306611962441
0.39942306611962441
0.39942306611962441
0.39942306611962441
0.39942306611962441
0.39942306611962441
0.39942306611962441
0.39942306611962441
0.39942306611962441
0.39942306611962441
0.39942306611962441
0.39942306611962441
0.39942306611962441
0.39942306611962441
0.39942306611962441
0.39942306611962441
0.39942306611962441
0.39942306611962441
0.39942306611962441
0.39942306611962441
0.39942306611962441
0.39942306611962441
0.39942306611962441
0.39942306611962441
0.39942306611962441
0.39942306611962441
0.39942306611962441
0.39942306611962441
0.39942306611962441
0.39942306611962441
0.39942306611962441
0.39942306611962441
0.39942306611962441
0.39942306611962441
0.39942306611962441
0.39942306611962441
0.39942306611962441
0.39942306611962441
0.39942306611962441
0.39942306611962441
0.39942306611962441
0.39942306611962441
0.39942306611962441
0.39942306611962441
0.39942306611962441
0.39942306611962441
0.39942306611962441
0.39942306611962441
0.39942306611962441
0.39942306611962441
0.39942306611962441
0.39942306611962441
0.39942306611962441
0.39942306611962441
0.39942306611962441
0.39942306611962441
0.39942306611962441
0.39942306611962441
0.39942306611962441
0.39942306611962441
0.39942306611962441
0.39942306611962441
0.39942306611962441
0.39942306611962441
0.39942306611962441
0.39942306611962441
0.39942306611962441
0.39942306611962441
0.39942306611962441
0.39942306611962441
0.39942306611962441
0.39942306611962441
0.39942306611962441
0.39942306611962441
0.39942306611962441
0.39942306611962441
0.39942306611962441
0.39942306611962441
0.39942306611962441
0.39942306611962441
0.39942306611962441
0.39942306611962441
0.39942306611962441
0.39942306611962441
0.39942306611962441
0.39942306611962441
0.39942306611962441
0.39942306611962441
0.39942306611962441
0.39942306611962441
0.39942306611962441
0.39942306611962441
0.39942306611962441
0.39942306611962441
0.39942306611962441
0.39942306611962441
0.39942306611962441
0.39942306611962441
0.39942306611962441
0.39942306611962441
0.39942306611962441
0.39942306611962441
0.39942306611962441
0.39942306611962441
0.39942306611962441
0.39942306611962441
0.39942306611962441
0.39942306611962441
0.39942306611962441
0.39942306611962441
0.39942306611962441
0.39942306611962441
0.39942306611962441
0.39942306611962441
0.39942306611962441
0.39942306611962441
0.39942306611962441
0.39942306611962441
0.39942306611962441
0.39942306611962441
0.39942306611962441
0.39942306611962441
0.39942306611962441
0.39942306611962441
0.39942306611962441
0.39942306611962441
0.39942306611962441
0.39942306611962441
0.39942306611962441
0.39942306611962441
0.39942306611962441
0.39942306611962441
0.39942306611962441
0.39942306611962441
0.39942306611962441
0.39942306611962441
0.39942306611962441
0.39942306611962441
0.39942306611962441
0.39942306611962441
0.39942306611962441
0.39942306611962441
0.39942306611962441
0.39942306611962441
0.39942306611962441
0.39942306611962441
0.39942306611962441
0.39942306611962441
0.39942306611962441
0.39942306611962441
0.39942306611962441
0.39942306611962441
0.39942306611962441
0.39942306611962441
0.39942306611962441
0.39942306611962441
0.39942306611962441
0.39942306611962441
0.39942306611962441
0.39942306611962441
0.39942306611962441
0.39942306611962441
0.39942306611962441
0.39942306611962441
0.39942306611962441
0.39942306611962441
0.39942306611962441
0.39942306611962441
0.39942306611962441
0.39942306611962441
0.39942306611962441
0.39942306611962441
0.39942306611962441
0.39942306611962441
0.39942306611962441
0.39942306611962441
0.39942306611962441
0.39942306611962441
0.39942306611962441
0.39942306611962441
0.39942306611962441
0.39942306611962441
0.39942306611962441
0.39942306611962441
0.39942306611962441
0.39942306611962441
0.39942306611962441
0.39942306611962441
0.39942306611962441
0.39942306611962441
0.39942306611962441
0.39942306611962441
0.39942306611962441
0.39942306611962441
0.39942306611962441
0.39942306611962441
0.39942306611962441
0.39942306611962441
0.39942306611962441
0.39942306611962441
0.39942306611962441
0.39942306611962441
0.39942306611962441
0.39942306611962441
0.39942306611962441
0.39942306611962441
0.39942306611962441
0.39942306611962441
0.39942306611962441
0.39942306611962441
0.39942306611962441
0.39942306611962441
0.39942306611962441
0.39942306611962441
0.39942306611962441
0.39942306611962441
0.39942306611962441
0.39942306611962441
0.39942306611962441
0.39942306611962441
0.39942306611962441
0.39942306611962441
0.39942306611962441
0.39942306611962441
0.39942306611962441
0.39942306611962441
0.39942306611962441
0.39942306611962441
0.39942306611962441
0.39942306611962441
0.39942306611962441
0.39942306611962441
0.39942306611962441
0.39942306611962441
0.39942306611962441
0.39942306611962441
0.39942306611962441
0.39942306611962441
0.39942306611962441
0.39942306611962441
0.39942306611962441
0.39942306611962441
0.39942306611962441
0.39942306611962441
0.39942306611962441
0.39942306611962441
0.39942306611962441
0.39942306611962441
0.39942306611962441
0.39942306611962441
0.39942306611962441
0.39942306611962441
0.39942306611962441
0.39942306611962441
0.39942306611962441
0.39942306611962441
0.39942306611962441
0.39942306611962441
0.39942306611962441
0.39942306611962441
0.39942306611962441
0.39942306611962441
0.39942306611962441
0.39942306611962441
0.39942306611962441
0.39942306611962441
0.39942306611962441
0.39942306611962441
VECTORS v float
-4.7258663077996631e-05 -0.080761645528430223 0
-5.091989970215382e-05 -0.087332566560671038 0
-5.353046300825869e-05 -0.092688796556770786 0
-5.6134928406422759e-05 -0.098294744373331244 0
-5.8802486816808921e-05 -0.10419437836089047 0
-6.1432295459561321e-05 -0.11046647676676438 0
-6.3896858173470843e-05 -0.11721659849698675 0
-6.617897405262758e-05 -0.1245522402802253 0
-6.8332910260635445e-05 -0.13258953094607995 0
-7.043647510302905e-05 -0.14150087522196389 0
-7.2475976008587562e-05 -0.15153855028354266 0
-7.4670236888921187e-05 -0.16300864816438682 0
-7.6478241312842045e-05 -0.17627529286126598 0
-7.7594681516419676e-05 -0.19183897175460166 0
-7.9914576473209914e-05 -0.21035737853221997 0
-8.2334956943858466e-05 -0.23274472549836392 0
-8.4881238118254338e-05 -0.26024641999468623 0
-8.7673020339630912e-05 -0.29479567692712655 0
-9.0052924104575913e-05 -0.33965405794989206 0
-9.3617913028753495e-05 -0.40151129951646947 0
-9.645904098158601e-05 -0.49587781958429294 0
-9.8010938853380908e-05 -0.68697687416503728 0
-8.2079528609239969e-05 -1.4412946604323689 0
-1.1897694512125747e-05 -2.6855429947714859 0
-1.2413592776390876e-17 -2.6802674162232196 0
-2.8773621522169008e-05 -0.083773717153204488 0
-3.1573472767573846e-05 -0.090769623925137655 0
-3.3625437593873644e-05 -0.09653424531935681 0
-3.534032588685864e-05 -0.10243494621942968 0
-3.7091062705839329e-05 -0.10857751033170429 0
-3.8816627280794157e-05 -0.11507183736127427 0
-4.0266099948096285e-05 -0.12204393819033248 0
-4.1987508900051287e-05 -0.12962772598484737 0
-4.3477308156376275e-05 -0.1379604392700651 0
-4.474149432245068e-05 -0.14722380045262368 0
-4.6403835116650193e-05 -0.15766302798317811 0
-4.7973221586821045e-05 -0.1695770280385959 0
-4.9513088815678145e-05 -0.18335143316734689 0
-5.1102705773271477e-05 -0.19951999045332067 0
-5.3116323242889138e-05 -0.21879970044525293 0
-5.4566971616297834e-05 -0.24212808191812302 0
-5.6193073946735022e-05 -0.27076891656165819 0
-5.7719158062102138e-05 -0.3066020056268276 0
-5.8568517390168651e-05 -0.35292798970814682 0
-5.9867869374190714e-05 -0.41640706386195903 0
-6.0301609994371133e-05 -0.51210850710323619 0
-5.9161719878312063e-05 -0.6934393864827928 0
-4.8146278143821766e-05 -1.34305550285945 0
-9.14986341732702e-06 -2.6415120600938988 0
-1.5892397650479098e-17 -2.6809383828147282 0
-1.1479580381983827e-05 -0.084364533877012926 0
-1.2902466816832017e-05 -0.091390068788620576 0
-1.3953752390187379e-05 -0.097185687789882083 0
-1.4862542460056217e-05 -0.10313126339434567 0
-1.5666786075050554e-05 -0.10933335398988037 0
-1.6303880167557649e-05 -0.11590287582769615 0
-1.7191700079269995e-05 -0.1229656833999499 0
-1.792755766673037e-05 -0.13066034711470895 0
-1.8741188481821783e-05 -0.13912407724716364 0
-2.0057626557125401e-05 -0.14854908978652254 0
-2.0661983109729381e-05 -0.15918482434471001 0
-2.1890322454304901e-05 -0.17133498462566987 0
-2.2577683944738688e-05 -0.18537964273005678 0
-2.4792205863990452e-05 -0.2018514964364998 0
-2.5840496738413057e-05 -0.22148148826208849 0
-2.6611893307527257e-05 -0.24523270397144714 0
-2.7670547349750194e-05 -0.27438102220109151 0
-2.8928184539523983e-05 -0.3106565358266668 0
-2.9914437025289165e-05 -0.35735615658063874 0
-3.0912485410605365e-05 -0.42104459696142177 0
-3.1756923199152479e-05 -0.51648545172721472 0
-3.198250546025249e-05 -0.69589802019464397 0
-2.6514739730556429e-05 -1.3274184377823164 0
-5.3476711669204109e-06 -2.6268317186591839 0
-2.0712923298152983e-17 -2.6820530393319451 0
-4.237297969412803e-06 -0.084424987387905687 0
-4.4944413313588623e-06 -0.091466598261681006 0
-5.0098950476974855e-06 -0.097277328831805898 0
-5.0928844749611547e-06 -0.10323975643121196 0
-5.5299220847358847e-06 -0.10946100225089282 0
-5.2009534851478602e-06 -0.11605390698598073 0
-5.1598956510311386e-06 -0.12314427072791154 0
-5.7287120015795557e-06 -0.13087207602127385 0
-5.6312786565720914e-06 -0.13937498207402504 0
-7.6060597074810558e-06 -0.14884664138410347 0
-7.39845268698586e-06 -0.15954122431102732 0
-8.1513144947847901e-06 -0.17176266136483184 0
-8.4396440946969181e-06 -0.18589237995718272 0
-9.1576343100595053e-06 -0.20246040176349636 0
-1.0253575888717114e-05 -0.22220332232674816 0
-1.0508752720954931e-05 -0.24608397602950394 0
-1.0767414561268372e-05 -0.275399045234204 0
-1.1866745845710675e-05 -0.31183433708625763 0
-1.1903578486985037e-05 -0.35869083235818972 0
-1.2556970198073828e-05 -0.42249288143633068 0
-1.3238619042525404e-05 -0.51799317582536941 0
-1.359936948605404e-05 -0.69724456789316114 0
-1.1789857406585296e-05 -1.3251884356929404 0
-2.5267234955679048e-06 -2.6229744807322688 0
-2.3764955187552215e-17 -2.6833061077084945 0
-1.4396568484646803e-06 -0.084387139739022426 0
-1.5551674591900568e-06 -0.091436147822629224 0
-1.5877201918887649e-06 -0.097251620630548485 0
-1.8779083644821215e-06 -0.10322127638170031 0
-2.0694438417222601e-06 -0.10944935166256939 0
-2.0339325622306029e-06 -0.11605006144076181 0
-2.2098574847382614e-06 -0.12314977487119073 0
-1.6941948242487427e-06 -0.13088783604967227 0
-2.1888156503358582e-06 -0.13940243667474472 0
-2.1737787641000675e-06 -0.14888886458187514 0
-2.8343829977251665e-06 -0.15960226286214563 0
-3.1589651590293375e-06 -0.17184599532074504 0
-3.7267142873598455e-06 -0.18600272055155539 0
-4.5489824142972755e-06 -0.20260143225346919 0
-4.7716933989887851e-06 -0.22237975766970483 0
-4.8174224294026428e-06 -0.24630117813324617 0
-5.1219228540184172e-06 -0.27566079112841946 0
-5.1592582464411799e-06 -0.31214530816576413 0
-5.1556904715286971e-06 -0.35905827001880236 0
-5.2984445266218703e-06 -0.42292195990114873 0
-5.3040635404216776e-06 -0.51849342306894819 0
-5.4162188043201471e-06 -0.69785117291469811 0
-4.8245003268924702e-06 -1.3256237767955188 0
-1.0228536067694952e-06 -2.6222472163323389 0
-2.2660029818822644e-17 -2.6844262045918899 0
5.4396921987139885e-08 -0.08434839999143047 0
3.6617782589577277e-08 -0.091399119730060874 0
-6.8790933465855011e-08 -0.097216659090595361 0
-2.4113059114693477e-07 -0.10318732899719715 0
-1.1599766311357356e-07 -0.10941784475363531 0
2.7188550449520281e-09 -0.1160214782662651 0
-1.9289864136559849e-07 -0.12312331984186521 0
1.2632880239974459e-08 -0.13086493215163467 0
-3.8703600824333089e-07 -0.13938319528022755 0
-6.5238197581428775e-07 -0.14887456474806252 0
-3.1068605900848058e-07 -0.15959454281353197 0
-4.5971844282773309e-07 -0.17184489816378312 0
-5.6067075018371655e-07 -0.18600918217548904 0
-8.1502761352985832e-07 -0.20261927889215728 0
-9.2706105612382823e-07 -0.22240841208147286 0
-1.3060002432666227e-06 -0.24634212497330804 0
-1.3017556547725981e-06 -0.27571738068162394 0
-1.4631937141530949e-06 -0.31222182685703281 0
-1.8136709955774512e-06 -0.35916154765307534 0
-1.7635189015511743e-06 -0.42306103974871728 0
-2.0452381093354229e-06 -0.51867892832039064 0
-2.0909007916843761e-06 -0.69813387840914543 0
-1.7518958672829004e-06 -1.3263049764475072 0
-3.6340489653159021e-07 -2.6222450896431555 0
-1.7113418504304066e-17 -2.6852567184251916 0
1.0490317175218657e-06 -0.084324587812475135 0
1.1814687999106276e-06 -0.09137523879824512 0
1.1751703159740161e-06 -0.097193271923032884 0
1.1602444947887003e-06 -0.1031643354822649 0
1.1894386273572e-06 -0.10939476040867534 0
1.5658872037272716e-06 -0.11599957936872744 0
1.424019192569276e-06 -0.1231018996729243 0
1.3974093442812272e-06 -0.13084379658503545 0
1.8539176214677464e-06 -0.13936412294889305 0
1.2904331086868194e-06 -0.14885724769462597 0
1.4422747630531835e-06 -0.15957814524752734 0
1.599195161556457e-06 -0.17183130523667584 0
1.3432175074580504e-06 -0.18599940138824905 0
1.2564658816952821e-06 -0.20261062428860147 0
1.1271510648167307e-06 -0.22240414355139596 0
1.0127471288973708e-06 -0.24634371276998918 0
8.904736178188151e-07 -0.27572529858523104 0
7.3696916210492117e-07 -0.31223771474820189 0
5.6354475701523466e-07 -0.35918961475115763 0
7.0496576071166969e-07 -0.42310719541210412 0
4.8468716869954072e-07 -0.51874997556099733 0
1.5253253003876613e-07 -0.69826457848043577 0
9.6839818098150221e-08 -1.3267493501389571 0
-1.1287978148213029e-08 -2.6223257241930451 0
-8.5435200636400627e-18 -2.685749255587472 0
1.1358696645104831e-06 -0.084317365628535562 0
9.8530210429259877e-07 -0.09136777874652563 0
1.8021754866909871e-06 -0.097185136510412204 0
2.19375767557138e-06 -0.10315554797554542 0
2.2263667489193298e-06 -0.10938727108419782 0
2.0198457331065914e-06 -0.1159921641601968 0
2.3583108214127635e-06 -0.1230942934072059 0
2.1732098337735742e-06 -0.13083709715681516 0
1.5364818288483484e-06 -0.13935652576140362 0
2.1058926386435051e-06 -0.14885081924113963 0
2.1908267240645623e-06 -0.1595733727381608 0
2.5000617397969778e-06 -0.17182720985898045 0
1.5537698086694694e-06 -0.18599558662215704 0
1.772473002768872e-06 -0.20260750063342509 0
1.9471335433819985e-06 -0.22240234523248048 0
1.6996701178553859e-06 -0.24633932516961302 0
1.970804286459268e-06 -0.2757249801329868 0
1.874930380008924e-06 -0.31223797408343196 0
1.8714647100594614e-06 -0.35919462305954852 0
2.9174276036714702e-06 -0.42311719384417079 0
3.1045538425376617e-06 -0.51876770399406624 0
3.249474024072452e-06 -0.69830105127273778 0
2.4393676535561353e-06 -1.3268920275754885 0
3.9173636794621891e-07 -2.6223563173692996 0
1.2888385939851975e-18 -2.6859104014564017 0
1.4508421679974881e-06 -0.084324326175178224 0
1.5304499532382338e-06 -0.091374976551018977 0
1.7155375985893437e-06 -0.097192799778215877 0
1.7712031737860458e-06 -0.10316378483245475 0
1.8365774328937762e-06 -0.10939436769995445 0
1.9915320177809003e-06 -0.11599865362880192 0
2.0081395932219962e-06 -0.12310183326610823 0
2.2494344646711619e-06 -0.13084458974026 0
2.5459328681858639e-06 -0.13936410752794867 0
2.5069454348314924e-06 -0.14885771193328004 0
2.5992410701971966e-06 -0.15957907549796974 0
2.932689937163386e-06 -0.17183227895261416 0
3.208881237378918e-06 -0.18600025013255211 0
3.4779005628465411e-06 -0.20261183375161096 0
3.4616362430758835e-06 -0.22240540690870383 0
3.705036291590247e-06 -0.246344669740621 0
3.75373576290623e-06 -0.27572644273040481 0
3.9794567962670222e-06 -0.31223905644369865 0
3.6881423446255831e-06 -0.35919106400797846 0
3.8202587130097613e-06 -0.42310729425588572 0
3.8877934353580454e-06 -0.51874931264702517 0
4.0369150198125416e-06 -0.69826344693097653 0
2.9748305197650069e-06 -1.326741632689735 0
5.6566874575209639e-07 -2.622322463716098 0
1.097682319788712e-17 -2.685749255587472 0
1.5977436820340296e-06 -0.084347284829059663 0
1.741001617204929e-06 -0.091397693363008473 0
1.9014473906841454e-06 -0.097215351787660526 0
2.2472612191414415e-06 -0.10318602511319402 0
2.2652791999114627e-06 -0.10941685513211538 0
2.2151036616341552e-06 -0.11602073248535297 0
2.5779382701252453e-06 -0.12312292804949011 0
3.0903609192866244e-06 -0.13086434211874659 0
2.8778229889205183e-06 -0.13938304098106338 0
3.1289714298340967e-06 -0.14887466209525704 0
3.2932654201529265e-06 -0.15959481859542435 0
3.7104051697621265e-06 -0.17184585062251753 0
2.9466868740788314e-06 -0.18601161272625155 0
3.2164141521955836e-06 -0.20261979839653699 0
3.5776000939848427e-06 -0.22240961212906069 0
3.78498109183225e-06 -0.24634457029956688 0
4.1577684073488731e-06 -0.27572000133718749 0
4.3608042243289392e-06 -0.31222332849930057 0
4.7212255300123623e-06 -0.35916293281938333 0
4.6067252363322113e-06 -0.4230626486610477 0
4.9141483037166836e-06 -0.51867996262066929 0
5.132607305062187e-06 -0.69813255500806515 0
4.2965970937520831e-06 -1.3262949604068754 0
9.0691544020883677e-07 -2.6222400732878111 0
1.9146250200380516e-17 -2.6852567184251916 0
2.0814780327993406e-06 -0.084385755764971829 0
2.4644625387320263e-06 -0.091434364605689267 0
2.6008001917007577e-06 -0.097250467845555841 0
2.5472667297501773e-06 -0.10321902637347014 0
2.9217541381580043e-06 -0.10944722570874642 0
3.1504644928872328e-06 -0.116048689419589 0
3.2916420046167576e-06 -0.12314769164608999 0
3.4713991710172638e-06 -0.13088639348284634 0
3.0841352431636843e-06 -0.13940189030679154 0
3.8893214757215063e-06 -0.14888832744949171 0
4.3312356349061588e-06 -0.15960108882635649 0
4.432213599926596e-06 -0.17184621285722818 0
5.4643339976578938e-06 -0.18600386921021092 0
5.7679592948108456e-06 -0.20260188015940014 0
6.044143251365165e-06 -0.22238038817010453 0
6.2508399557123527e-06 -0.24630200317250314 0
6.8823010555483601e-06 -0.2756615909607355 0
7.1276399236103908e-06 -0.31214583859213002 0
7.6822834076738534e-06 -0.35905771760507788 0
8.1548014002999778e-06 -0.42292079407134547 0
8.3500352531574198e-06 -0.51849232523920141 0
8.2572433588192726e-06 -0.6978478924673005 0
6.9680435312553462e-06 -1.3256090162003227 0
1.5762945849410111e-06 -2.6222408193055813 0
2.4134907013538117e-17 -2.6844262045918903 0
4.071338382333864e-06 -0.084423689467114163 0
4.9768585322558858e-06 -0.091465436622791149 0
5.2841651607058063e-06 -0.097276196712846416 0
5.5145849761914661e-06 -0.10323802809356139 0
6.0008917944524673e-06 -0.10945950544942933 0
6.3754473913278649e-06 -0.11605260816412946 0
6.4644297622955193e-06 -0.1231429630879598 0
7.1655254717820189e-06 -0.13086979185571487 0
7.3322024193259597e-06 -0.1393720387369034 0
7.6120387476783567e-06 -0.14884411474902451 0
8.3926445818020341e-06 -0.15953927420538488 0
9.1371512206580921e-06 -0.1717606230572907 0
8.6955154270225152e-06 -0.18589048386734522 0
9.4445789363130007e-06 -0.20245915527989505 0
9.8574873793808964e-06 -0.22220299804988775 0
1.0730560639355787e-05 -0.24608431182982837 0
1.1387914767725655e-05 -0.2753998554377618 0
1.2326578367697104e-05 -0.31183510642040196 0
1.3163722095020946e-05 -0.35868890454018015 0
1.4016755679765197e-05 -0.42249045604606417 0
1.5225891085207123e-05 -0.51798912629168037 0
1.5901381149704665e-05 -0.69723804319664739 0
1.3819994908508054e-05 -1.3251689098749988 0
3.106731629225659e-06 -2.622967588698407 0
2.4669556971010793e-17 -2.683306107708495 0
1.2228186943567431e-05 -0.084363576543862798 0
1.3404433655715655e-05 -0.091388632957939683 0
1.42830163828555e-05 -0.097184315386150688 0
1.4744501925896558e-05 -0.10312952104703625 0
1.5642032264232129e-05 -0.10933048287061371 0
1.608208793018558e-05 -0.11590112827445194 0
1.7435500010056378e-05 -0.12296341803901001 0
1.8139723536423527e-05 -0.13065793090787506 0
1.8876826773511192e-05 -0.13912190747557443 0
1.9516916336779029e-05 -0.14854691599275749 0
2.0526381979447133e-05 -0.15918335534914616 0
2.1118607900177746e-05 -0.17133391761497452 0
2.264031647175532e-05 -0.18537886828451086 0
2.3425473975052891e-05 -0.20185130226698639 0
2.4504993619361398e-05 -0.22148221796510908 0
2.5528803373658627e-05 -0.24523190109090062 0
2.6804923766986573e-05 -0.27438098252062182 0
2.7915601307128597e-05 -0.31065662171019193 0
2.9182682699829868e-05 -0.35735555710412054 0
3.0586011032781102e-05 -0.42104078279715174 0
3.1744159573953267e-05 -0.5164798282434494 0
3.2471111040506598e-05 -0.69588806529764935 0
2.8273741186598579e-05 -1.327396609716476 0
6.1468239031575042e-06 -2.6268262645611928 0
2.1166298136402046e-17 -2.6820530393319455 0
2.9677136063436272e-05 -0.083772358807722547 0
3.2324074563159199e-05 -0.090768160103079656 0
3.4203381708773358e-05 -0.096532799465605806 0
3.5848134128330763e-05 -0.10243374055119944 0
3.775568751213655e-05 -0.10857643009915816 0
3.916742901639317e-05 -0.11507083870280674 0
4.0477554400305393e-05 -0.12204257005995343 0
4.1900782540337463e-05 -0.12962612912311283 0
4.3236989616072957e-05 -0.1379584231290131 0
4.4421360675326601e-05 -0.14722154538978499 0
4.578765552012777e-05 -0.15766128451064237 0
4.7551791116747232e-05 -0.1695750657467561 0
4.8170879515320668e-05 -0.18334962685036005 0
4.9867243405344981e-05 -0.19951827366538166 0
5.1634149795322123e-05 -0.21879740591481486 0
5.3268680778829115e-05 -0.24212500329482378 0
5.4933683241381058e-05 -0.27076591530927679 0
5.663295185942795e-05 -0.30659868476451418 0
5.8369700819163352e-05 -0.35292283783955697 0
5.97670289209489e-05 -0.41639981141322036 0
6.085711860658279e-05 -0.51209924719275168 0
6.0988926157799269e-05 -0.69342425394010743 0
5.1723318500171264e-05 -1.343030917132404 0
1.0318496561652194e-05 -2.6415118145783878 0
1.6069550922120466e-17 -2.6809383828147286 0
4.5847687962224694e-05 -0.080760280699585837 0
4.9975993850964703e-05 -0.087332121810338822 0
5.2234697886727332e-05 -0.092688150594625207 0
5.4837066786531983e-05 -0.098294093245954783 0
5.7072857245812366e-05 -0.10419337185672774 0
5.9676517511218817e-05 -0.11046534442599604 0
6.1963706901955676e-05 -0.11721535631356141 0
6.4318638717191418e-05 -0.12455076035646301 0
6.6283373603602958e-05 -0.13258793838170252 0
6.8190211678219111e-05 -0.14149929709424283 0
6.9907604309416683e-05 -0.15153671181390568 0
7.1887662467874717e-05 -0.16300658723153422 0
7.3998864634725801e-05 -0.17627257337511515 0
7.5849820729635185e-05 -0.1918358741452289 0
7.7897812432689309e-05 -0.21035371450297424 0
8.0147049360539802e-05 -0.23274007943862363 0
8.2444898534955247e-05 -0.26024091552670037 0
8.4797548630929147e-05 -0.29478895907293157 0
8.7362654832859413e-05 -0.339645342304007 0
8.9407745580974082e-05 -0.40150182755409136 0
9.07761624612023e-05 -0.49586622343557291 0
8.8571699126036634e-05 -0.6869636902764702 0
6.6250067624721982e-05 -1.4412998675645485 0
1.0474061690848559e-05 -2.68555266024357 0
1.2469570223140153e-17 -2.6802674162232201 0
-0 -0 0
-0 -0 0
-0 -0 0
-0 -0 0
-0 -0 0
-0 -0 0
4.6844686589528484e-05 0.080127427654590855 0
5.6075602973294485e-05 0.099829327968245368 0
6.7181373721489796e-05 0.1414682549794653 0
-0 -0 0
-0 -0 0
-0 -0 0
5.1102690133438081e-05 0.089446000373595361 0
5.6419712229353196e-05 0.10622667415160984 0
6.5982180337276626e-05 0.14850628938337893 0
-0 -0 0
-0 -0 0
-0 -0 0
4.0441170891513974e-05 0.091303686998903968 0
4.5838399147634497e-05 0.10807751408720721 0
5.4353497989067741e-05 0.15074854965224735 0
-0 -0 0
-0 -0 0
-0 -0 0
2.2439689256559535e-05 0.092998137957442231 0
2.6105331134566854e-05 0.10971475718557432 0
3.1902045275625873e-05 0.15277890668615471 0
-0 -0 0
-0 -0 0
-0 -0 0
9.071766014736063e-06 0.093323471511264092 0
1.0918571064243996e-05 0.11015098160712215 0
1.390164212509499e-05 0.15330583889035904 0
-0 -0 0
-0 -0 0
-0 -0 0
3.3439500736054762e-06 0.093331523949221923 0
4.0501025915984933e-06 0.11016832738768183 0
5.3384205814148975e-06 0.15328579401324033 0
-0 -0 0
-0 -0 0
-0 -0 0
9.7286350795494548e-07 0.093286558367774441 0
1.2458964998179093e-06 0.11011849320296446 0
1.80256393120501e-06 0.15319988349980942 0
-0 -0 0
-0 -0 0
-0 -0 0
-5.6121608356372046e-07 0.093250292973986029 0
-5.2577120134812243e-07 0.11007671824826146 0
-3.9313397257963432e-07 0.1531360410915332 0
-0 -0 0
-0 -0 0
-0 -0 0
-1.2810634324824723e-06 0.093232180041469367 0
-1.4581534311689221e-06 0.11005567797730234 0
-1.6146420857358515e-06 0.15310506108903141 0
-0 -0 0
-0 -0 0
-0 -0 0
-1.5820152343188245e-06 0.093231893490296397 0
-1.947325405846676e-06 0.11005541313447249 0
-2.4151445600175588e-06 0.15310501303050594 0
-0 -0 0
-0 -0 0
-0 -0 0
-1.8460519451472597e-06 0.093249094433938473 0
-2.2758910241355352e-06 0.11007565840830021 0
-2.9430478391349324e-06 0.15313561875986148 0
-0 -0 0
-0 -0 0
-0 -0 0
-2.1503095827946027e-06 0.093284537160178316 0
-2.6572244664723197e-06 0.11011648744618213 0
-3.5564083545897183e-06 0.15319843601626129 0
-0 -0 0
-0 -0 0
-0 -0 0
-3.6583075334184524e-06 0.093329576352578547 0
-4.6005253152148193e-06 0.11016607983675147 0
-6.1475374888342796e-06 0.15328336523456798 0
-0 -0 0
-0 -0 0
-0 -0 0
-9.3618688831453923e-06 0.093321957328682592 0
-1.1246981791557592e-05 0.11014900699430044 0
-1.4125597181434509e-05 0.15330326998710356 0
-0 -0 0
-0 -0 0
-0 -0 0
-2.3086470302225585e-05 0.092996778090653584 0
-2.6386150124272237e-05 0.10971309540931123 0
-3.1616226226917709e-05 0.15277641333676839 0
-0 -0 0
-0 -0 0
-0 -0 0
-4.0408215071513391e-05 0.091302604925663375 0
-4.5435127155254893e-05 0.10807652862226579 0
-5.3382712013899789e-05 0.15074652616750348 0
-0 -0 0
-0 -0 0
-0 -0 0
-4.9997483031956002e-05 0.089444983625749985 0
-5.5214649276739175e-05 0.10622540885724895 0
-6.4378417198731534e-05 0.14850376136514037 0
-0 -0 0
-0 -0 0
-0 -0 0
-4.5673459458415841e-05 0.080125186271572627 0
-5.4798901185006555e-05 0.099827303625371747 0
-6.551058888924397e-05 0.14146376435020419 0
-0 -0 0
-0 -0 0
-0 -0 0
-0 -0 0
-0 -0 0
-0 -0 0
-0 -0 0
-0 -0 0
-0 -0 0
-0 -0 0
-0 -0 0
-0 -0 0
-0 -0 0
-0 -0 0
-0 -0 0
-0 -0 0
-0 -0 0
-0 -0 0
-0 -0 0
-0 -0 0
-0 -0 0
-0 -0 0
-0 -0 0
-0 -0 0
-0 -0 0
-0 -0 0
-0 -0 0
-0 -0 0
-0 -0 0
-0 -0 0
-0 -0 0
-0 -0 0
-0 -0 0
-0 -0 0
-0 -0 0
-0 -0 0
-0 -0 0
-0 -0 0
-0 -0 0
-0 -0 0
-0 -0 0
-0 -0 0
-0 -0 0
-0 -0 0
-0 -0 0
-0 -0 0
-0 -0 0
-0 -0 0
-0 -0 0
-0 -0 0
-0 -0 0
-0 -0 0
-0 -0 0
-0 -0 0
-0 -0 0
-0 -0 0
-0 -0 0
-0 -0 0
-0 -0 0
-0 -0 0
-0 -0 0
-0 -0 0
-0 -0 0
-0 -0 0
-0 -0 0
-0 -0 0
-0 -0 0
-0 -0 0
-0 -0 0
-0 -0 0
-0 -0 0
-0 -0 0
-0 -0 0
-0 -0 0
-0 -0 0
-0 -0 0
-0 -0 0
-0 -0 0
-0 -0 0
-0 -0 0
-0 -0 0
-0 -0 0
-0 -0 0
-0 -0 0
-0 -0 0
-0 -0 0
-0 -0 0
-0 -0 0
-0 -0 0
-0 -0 0
-0 -0 0
-0 -0 0
-0 -0 0
-0 -0 0
-0 -0 0
-0 -0 0
-0 -0 0
-0 -0 0
-0 -0 0
-0 -0 0
-0 -0 0
-0 -0 0
-0 -0 0
-0 -0 0
-0 -0 0
-0 -0 0
-0 -0 0
-0 -0 0
-0 -0 0
-0 -0 0
-0 -0 0
-0 -0 0
-0 -0 0
-0 -0 0
-0 -0 0
-0 -0 0
-0 -0 0
-0 -0 0
-0 -0 0
-0 -0 0
-0 -0 0
-0 -0 0
-0 -0 0
-0 -0 0
-0 -0 0
-0 -0 0
-0 -0 0
-0 -0 0
-0 -0 0
-0 -0 0
-0 -0 0
-0 -0 0
-0 -0 0
-0 -0 0
-0 -0 0
-0 -0 0
-0 -0 0
-0 -0 0
-0 -0 0
-0 -0 0
-0 -0 0
-0 -0 0
-0 -0 0
-0 -0 0
-0 -0 0
-0 -0 0
-0 -0 0
-0 -0 0
-0 -0 0
-0 -0 0
-0 -0 0
-0 -0 0
-0 -0 0
-0 -0 0
-0 -0 0
-0 -0 0
-0 -0 0
-0 -0 0
-0 -0 0
-0 -0 0
-0 -0 0
-0 -0 0
-0 -0 0
-0 -0 0
-0 -0 0
-0 -0 0
-0 -0 0
-0 -0 0
-0 -0 0
-0 -0 0
-0 -0 0
-0 -0 0
-0 -0 0
-0 -0 0
-0 -0 0
-0 -0 0
-0 -0 0
-0 -0 0
-0 -0 0
-0 -0 0
-0 -0 0
-0 -0 0
-0 -0 0
-0 -0 0
-0 -0 0
-0 -0 0
-0 -0 0
-0 -0 0
-0 -0 0
-0 -0 0
-0 -0 0
-0 -0 0
-0 -0 0
-0 -0 0
-0 -0 0
