# vtk DataFile Version 3.0
SPH particles (WCSPH) - legacy PolyData
ASCII
DATASET POLYDATA
POINTS 681 float
0.049990029590514726 0.017280121963474743 0
0.049988974573986066 0.019398284400086983 0
0.049988126223940423 0.021107450492109357 0
0.049987292583324724 0.022794283799327079 0
0.049986543086294778 0.024433796292963297 0
0.049985880468537774 0.02602431387734425 0
0.049985271339357297 0.027571638917308856 0
0.049984676757186965 0.029083949987915102 0
0.049984037458494189 0.030570379222529958 0
0.049983261783497809 0.032038782397954345 0
0.049981900482806901 0.033497532556209492 0
0.049980096977228876 0.034954768163855149 0
0.049979391592985312 0.036418505629017016 0
0.049980138536198947 0.037896959880978326 0
0.049981623870663856 0.039398977200600559 0
0.04998338192322993 0.040934155732518025 0
0.049985202237335553 0.042514608783368837 0
0.049986916084639191 0.044154942017641398 0
0.049988514025705741 0.045874967989447624 0
0.049989936849417882 0.047688523239688287 0
0.049991135734874084 0.049635013337988726 0
0.049992109658690463 0.05176233965863649 0
0.049992888649486464 0.054146120270486729 0
0.049993509195863317 0.056927053265517842 0
0.049994295602691523 0.06048047349049767 0
0.069994738591626304 0.016060796974462211 0
0.069994120182538436 0.018398741112269419 0
0.069993660349337031 0.020297684779081566 0
0.069993247734004865 0.022135601906847758 0
0.069992862808973419 0.023898916048210497 0
0.069992480030459339 0.025594061307473739 0
0.069992101500798931 0.027232543347548627 0
0.06999172021664557 0.028826480475224812 0
0.069991319083242715 0.030387895144120422 0
0.069990850293161697 0.031926578040204025 0
0.069989937916208653 0.033452453119887961 0
0.069988083159742337 0.034975031922229276 0
0.069986986506472407 0.036503157206067921 0
0.069987169272790348 0.038045732327766736 0
0.06998806989226232 0.039612685122154261 0
0.069989209051771542 0.041214632680612054 0
0.069990431358967861 0.042865432467118297 0
0.069991635991970044 0.04458056738143746 0
0.069992763551517984 0.046378968604860869 0
0.069993743818535098 0.048283963315378119 0
0.069994555326724314 0.050334253927642347 0
0.06999520433117376 0.052582714047446188 0
0.069995694219314591 0.055117893424684899 0
0.06999607870409251 0.058105691121625481 0
0.069996575435396419 0.061995182214051092 0
0.089998126619909677 0.016006320949789411 0
0.089997898013305225 0.018345911516167827 0
0.089997730738200388 0.020248202180835735 0
0.08999757037468413 0.022091720709193709 0
0.089997406884124692 0.023862070504736349 0
0.089997236971103539 0.025565162713479108 0
0.089997059160129581 0.027212427314885882 0
0.089996881278866264 0.028815740986993396 0
0.089996680414252156 0.03038665147969008 0
0.089996454737438406 0.031935487698585494 0
0.089996183339152463 0.033471986116722051 0
0.08999580169094365 0.035005791516586032 0
0.089995429776366806 0.036545594218217417 0
0.089995376302231839 0.038100367946720601 0
0.089995613169390934 0.039679986703002212 0
0.089995939908592656 0.041295295808382787 0
0.089996324660350388 0.042960009239045818 0
0.089996715273029507 0.04468884965853253 0
0.089997086575940355 0.046501417561754611 0
0.089997396843801342 0.048423679008755022 0
0.089997650161044079 0.050492120926167935 0
0.089997838220215551 0.052760265106386685 0
0.089998003545597074 0.055316849229851341 0
0.089998136223871886 0.058327648030829959 0
0.089998349831604832 0.062246950059839982 0
0.10999933076699503 0.016013425746994131 0
0.10999924297827439 0.018353882348789759 0
0.10999917238536547 0.020256963295835307 0
0.10999910102863776 0.022101381998860536 0
0.10999902939082458 0.023872732549996133 0
0.10999897250464907 0.025576935659102958 0
0.10999890793096725 0.027225439404821469 0
0.10999882600584349 0.028830096661443004 0
0.109998735413464 0.030402323999348422 0
0.10999863655962328 0.031952584074593067 0
0.10999854054153325 0.033490588567559917 0
0.10999841233574566 0.035026114921436369 0
0.10999831201019375 0.036567687580170469 0
0.1099983073403185 0.038124383544730009 0
0.10999834906194668 0.03970605706260074 0
0.10999844688297367 0.041323844178444043 0
0.10999857118911195 0.042990880040361334 0
0.10999870973169214 0.044721987127229745 0
0.10999884605267907 0.046537013823010599 0
0.10999895288071598 0.048461949810814697 0
0.10999903396846526 0.050533362546570225 0
0.1099990939488782 0.052804850197104826 0
0.10999915037469278 0.055365187399256666 0
0.10999920145975571 0.058380221627004 0
0.10999929221259125 0.062305461539323301 0
0.12999972575881644 0.01601855733102947 0
0.12999969089166855 0.018359546776921216 0
0.12999966609710215 0.020263026786037353 0
0.12999964318682161 0.022107803160881106 0
0.12999962964410669 0.023879512382782402 0
0.12999960058123236 0.025584031825047201 0
0.12999957739121179 0.027232815532638833 0
0.12999954274042827 0.028837765331308961 0
0.12999950997352078 0.030410279565204999 0
0.12999946851497435 0.031960829798761442 0
0.12999941106194313 0.033499172710588401 0
0.12999934106418973 0.035034779853287089 0
0.12999932930097169 0.036576480175655478 0
0.12999932954978125 0.038133262071620225 0
0.12999930434129148 0.039715062363100073 0
0.12999935023617232 0.041333531513973884 0
0.12999940376148963 0.04300213960858628 0
0.12999945978551233 0.044734209167193333 0
0.12999950506762067 0.046549833149571944 0
0.12999953979274484 0.048474725332665301 0
0.12999957007562651 0.050546744652110544 0
0.12999959424125196 0.052818950171238464 0
0.12999961540790075 0.055380103176690364 0
0.1299996359585841 0.058396052631827136 0
0.12999967537732537 0.062322728055486942 0
0.14999988798067737 0.016020706554163527 0
0.14999987648927843 0.018361984466362866 0
0.14999986791253705 0.020265747330546251 0
0.14999985997509246 0.02211062911151138 0
0.14999984932446958 0.023882451112207121 0
0.14999984089740567 0.025587152496828216 0
0.14999983789483815 0.027236032353120328 0
0.14999983148780127 0.028841119803535941 0
0.14999981981114605 0.030413776641659025 0
0.14999979414142348 0.031964463816006018 0
0.1499997682766997 0.033503073400748415 0
0.14999974752884748 0.03503887910391483 0
0.14999972554294602 0.036580830124066308 0
0.14999970669210946 0.03813815046743655 0
0.14999970202449592 0.039720378599173996 0
0.14999972201226974 0.041338915113552019 0
0.14999975127482584 0.043006604177996448 0
0.14999978380658238 0.04473816429282939 0
0.14999977774095058 0.046553839634641457 0
0.14999977522525612 0.0484794697234045 0
0.14999978479209394 0.050551677139128587 0
0.14999979966046589 0.052824134619368988 0
0.14999980966378743 0.055385668931721282 0
0.14999981518170633 0.05840203645560952 0
0.1499998328018749 0.062328818602383554 0
0.16999993907329553 0.016020879784239467 0
0.16999993227534077 0.018362518751383498 0
0.1699999259900066 0.020266724771315494 0
0.16999991973807013 0.02211152111470166 0
0.16999991093436567 0.023883358237232765 0
0.16999990226668688 0.025588137801680014 0
0.16999988945093936 0.027237071910990292 0
0.16999988401351318 0.028842170217743997 0
0.16999987420461929 0.030414770472240615 0
0.1699998598939268 0.031965253464498904 0
0.16999983800932802 0.033504005617546011 0
0.16999979169612542 0.035039715853667802 0
0.16999977020957019 0.03658139032893809 0
0.16999974086893266 0.038139226829023695 0
0.16999975506262185 0.039721631988454978 0
0.16999980720859906 0.041340528249382287 0
0.16999982924936335 0.043008338213457918 0
0.1699998306488012 0.044739299371163901 0
0.16999980913408155 0.046554958530700304 0
0.16999982780439765 0.048480795139195246 0
0.1699998520087852 0.050553071832177832 0
0.16999986749249291 0.05282566959716211 0
0.16999986848780116 0.055387500581572525 0
0.16999987576962811 0.058405036277583693 0
0.16999989270646088 0.062330717707477924 0
0.18999995286922039 0.016021387780612246 0
0.18999994794059388 0.018362547326040628 0
0.18999994739955303 0.020266344309203824 0
0.18999994303985887 0.022111488107114267 0
0.18999993682616736 0.023883664383357886 0
0.18999992609685831 0.025588306916303514 0
0.18999992270998478 0.027237220854141302 0
0.18999990623773352 0.028842377126748184 0
0.18999989177863308 0.030414908526833158 0
0.18999988244128177 0.03196530948010505 0
0.18999988405069271 0.033504384893214154 0
0.18999989749280821 0.035040297835170119 0
0.18999990972802694 0.036582250852178887 0
0.18999990684320445 0.038139972227555337 0
0.18999990952717982 0.039722352766675136 0
0.18999990953007573 0.041340859658759103 0
0.18999989840410617 0.04300822976868969 0
0.18999987513670019 0.044739673672309029 0
0.18999984790661889 0.046555320403598902 0
0.18999990249337362 0.048481071566882764 0
0.1899999093426889 0.050553077871411937 0
0.18999992516664085 0.052824976372390885 0
0.18999993398394929 0.055385364489724878 0
0.18999994213799529 0.058403788467488345 0
0.18999995370093573 0.062330592768388329 0
0.20999998703643818 0.016021396899002893 0
0.20999998526763353 0.018362598353656532 0
0.20999998181975285 0.020266178269861962 0
0.20999997872105208 0.022110937704886115 0
0.20999997540845117 0.023883085165665383 0
0.20999996688322187 0.025587736165030052 0
0.2099999652431789 0.027236739765460774 0
0.20999996430943102 0.028842081257653616 0
0.20999996423925793 0.030414753178184879 0
0.2099999478871481 0.031965267760814028 0
0.2099999433028816 0.033503604083792694 0
0.20999993937949574 0.035039443656953204 0
0.20999994799691357 0.036582124851603753 0
0.2099999381258075 0.038139772145796294 0
0.20999994131899014 0.039722050854618558 0
0.20999994796907068 0.04134040490419854 0
0.2099999479233208 0.043007617682772836 0
0.20999994844560096 0.044739198009197075 0
0.20999997400589016 0.046554831035826728 0
0.20999997176582647 0.048480553386069408 0
0.209999968163957 0.050552523957674129 0
0.2099999622332368 0.052824355988704184 0
0.20999996861330453 0.055384560381978469 0
0.2099999758824502 0.058402776770294304 0
0.20999998405727627 0.062329863161833032 0
0.23000006848435792 0.016020464700513059 0
0.23000007332317302 0.018361585018639829 0
0.23000008182974696 0.020265129740825175 0
0.23000008321404813 0.022109847314396035 0
0.23000007976577119 0.023881579689931567 0
0.23000008637249381 0.025586479384732477 0
0.23000009875752633 0.027235832363074763 0
0.23000011085420008 0.028840739390462444 0
0.23000011891140673 0.03041326193745179 0
0.23000012151170618 0.031963730697263874 0
0.23000012483492227 0.033501778636626386 0
0.23000013680242931 0.035037882071595867 0
0.23000019969384661 0.036580697004197568 0
0.23000014047049541 0.038138094909181366 0
0.23000011964156883 0.039720272890485998 0
0.23000014838425151 0.041338512202435493 0
0.2300001531477322 0.043005601501825329 0
0.23000015803328835 0.044737327518048924 0
0.23000019376484321 0.046552974054890041 0
0.23000015045423353 0.048478532675921379 0
0.2300001339177232 0.050550522127261431 0
0.23000011353248176 0.052822729987743129 0
0.23000010563345136 0.055384680360526892 0
0.23000010210793734 0.05840080789882697 0
0.23000009435015595 0.062327724984964451 0
0.25000020436401477 0.016018201986883453 0
0.25000022702762542 0.018359061483263196 0
0.25000024956148231 0.020262524689083263 0
0.25000027082021142 0.022107200365741795 0
0.25000028637709037 0.02387877933633395 0
0.25000030201314749 0.025583516612093186 0
0.25000032721233428 0.027232322401597418 0
0.25000034836754503 0.028837345163468545 0
0.25000036734487674 0.030409860828889895 0
0.25000039770076493 0.031960375616560233 0
0.25000044349293421 0.033498706365701396 0
0.25000052932208217 0.035034404111762292 0
0.25000056613855315 0.036576343571728481 0
0.25000061897532655 0.038133549506666996 0
0.25000062232934028 0.039715490804450339 0
0.25000057677971987 0.041333293349315584 0
0.25000053964970759 0.042999981576357947 0
0.25000049042745631 0.044732110778241289 0
0.2500004530403927 0.046547715932785588 0
0.25000041957704316 0.048472401341016894 0
0.25000038889758824 0.050543763406328504 0
0.25000035981133195 0.052815727835154369 0
0.25000033413487749 0.055380886985792924 0
0.25000031284518087 0.058395232657973146 0
0.25000027607852937 0.062321404635535801 0
0.27000056933892441 0.016013002573077119 0
0.27000064626407139 0.018353294665147048 0
0.27000070341794286 0.020256231844284933 0
0.27000075858976808 0.022100643712591052 0
0.27000080943890853 0.02387227423604793 0
0.27000086705064408 0.025576703471678629 0
0.27000092463147535 0.027224418666848355 0
0.27000098230860026 0.028829636183716641 0
0.27000105821235837 0.03040198329725316 0
0.27000115225316446 0.031952114647081538 0
0.27000126306452066 0.03349024407599633 0
0.27000137147695574 0.0350255952676597 0
0.27000153208936906 0.036567106296135521 0
0.27000166547641435 0.038124007595915374 0
0.2700016267872612 0.039705716718365688 0
0.27000148724807094 0.041323346004421876 0
0.27000134939357417 0.042989790226360264 0
0.27000122687417377 0.044720830103255803 0
0.27000110525664567 0.046535718083884195 0
0.27000100455300807 0.048460318681655568 0
0.27000091947667304 0.05053112694085389 0
0.27000084499112548 0.052802064017865358 0
0.27000077840245645 0.055364630961098678 0
0.27000072626640648 0.058379477632146078 0
0.27000064885090352 0.062304336223785069 0
0.29000178461314174 0.016006144210381403 0
0.29000200862135822 0.018345653576832394 0
0.29000217418211355 0.020247943939850733 0
0.29000233355811744 0.022091464148056652 0
0.2900024969656898 0.023861858136527532 0
0.29000266072460085 0.025564836749205462 0
0.29000283275564365 0.027211484693993856 0
0.29000302598035838 0.028815600218127527 0
0.2900032497302204 0.030386630612262159 0
0.29000350015818233 0.031935287531215023 0
0.29000380325678965 0.033471836392461464 0
0.29000419950715506 0.035005494140560235 0
0.29000458072984958 0.036545213750218741 0
0.29000463244931951 0.038100151382472427 0
0.29000440575668107 0.039679907199914065 0
0.29000404817421416 0.041295549253573947 0
0.29000364510750443 0.042959910638396902 0
0.29000324168716629 0.044688534101516554 0
0.29000286986420154 0.046501168136294312 0
0.29000254939824799 0.048423570183415608 0
0.29000228129825123 0.05049179915065001 0
0.29000206838554943 0.052759674215992897 0
0.2900018993972584 0.055316555451921927 0
0.29000176555933971 0.058327399332325412 0
0.29000156319205517 0.062246613137114472 0
0.31000531717872248 0.016060845976417056 0
0.31000593635856366 0.018398789332448841 0
0.31000639849713568 0.020297740246340557 0
0.31000681945592939 0.02213565510535348 0
0.31000721111239521 0.02389889778936255 0
0.31000760457648158 0.025593790764292058 0
0.31000799549605451 0.027232088729330479 0
0.31000839380042955 0.028826851581727039 0
0.31000882442149369 0.030388125439014303 0
0.31000934369296068 0.031926660759737741 0
0.31001030232215748 0.033452607533726073 0
0.31001213487612311 0.034975211033838098 0
0.31001317876830115 0.036503345320843039 0
0.31001295616127605 0.038046238713881658 0
0.31001204381057113 0.039613430024148188 0
0.31001090480292404 0.041215938880839957 0
0.31000966804683006 0.042866559442554387 0
0.31000843036810843 0.04458071815363461 0
0.31000727934090372 0.046378479375484741 0
0.31000627411974474 0.048284950742280924 0
0.310005438924155 0.050335254583382526 0
0.31000477404897031 0.052583085701068684 0
0.31000427569328176 0.055118269151183563 0
0.31000386674846742 0.058106037031783825 0
0.3100033521048462 0.061995426135826516 0
0.3300098032808253 0.017280395636926637 0
0.33001082027391737 0.019398570959858665 0
0.33001164141843137 0.021107699810022289 0
0.33001243414025666 0.022794428536519775 0
0.33001314578097168 0.024433655164769304 0
0.33001376379504144 0.026023711923241565 0
0.33001432587011836 0.027571527623178566 0
0.33001489082583579 0.029084666297925006 0
0.3300154562687036 0.030570732240295825 0
0.33001610246929175 0.032039037649254892 0
0.33001733520425774 0.033497856193062538 0
0.33001911876585371 0.034955174160871509 0
0.33001982087331694 0.036419020500895377 0
0.33001905415652755 0.037897701244051216 0
0.33001760369068694 0.039399904178816586 0
0.33001590221900212 0.040935518670344069 0
0.33001415154374841 0.042516155459133155 0
0.33001246197504963 0.044155625320978553 0
0.33001091034078162 0.045873491407927236 0
0.33000955625284284 0.047688901630312065 0
0.33000842632408656 0.049635524780538155 0
0.33000752540032929 0.051762688972741312 0
0.33000682057444369 0.054146456948174805 0
0.3300062711906312 0.05692731705251293 0
0.33000554591586839 0.060480321475509018 0
0 0 0
0 0.020000000000000004 0
0 0.040000000000000001 0
0 0.54999999999999993 0
0 0.56000000000000005 0
0 0.58000000000000007 0
0.02 0 0
0.02 0.020000000000000004 0
0.02 0.040000000000000001 0
0.02 0.54999999999999993 0
0.02 0.56000000000000005 0
0.02 0.58000000000000007 0
0.040000000000000001 0 0
0.040000000000000001 0.020000000000000004 0
0.040000000000000001 0.040000000000000001 0
0.040000000000000001 0.54999999999999993 0
0.040000000000000001 0.56000000000000005 0
0.040000000000000001 0.58000000000000007 0
0.059999999999999998 0 0
0.059999999999999998 0.020000000000000004 0
0.059999999999999998 0.040000000000000001 0
0.059999999999999998 0.54999999999999993 0
0.059999999999999998 0.56000000000000005 0
0.059999999999999998 0.58000000000000007 0
0.080000000000000002 0 0
0.080000000000000002 0.020000000000000004 0
0.080000000000000002 0.040000000000000001 0
0.080000000000000002 0.54999999999999993 0
0.080000000000000002 0.56000000000000005 0
0.080000000000000002 0.58000000000000007 0
0.10000000000000001 0 0
0.10000000000000001 0.020000000000000004 0
0.10000000000000001 0.040000000000000001 0
0.10000000000000001 0.54999999999999993 0
0.10000000000000001 0.56000000000000005 0
0.10000000000000001 0.58000000000000007 0
0.12 0 0
0.12 0.020000000000000004 0
0.12 0.040000000000000001 0
0.12 0.54999999999999993 0
0.12 0.56000000000000005 0
0.12 0.58000000000000007 0
0.14000000000000001 0 0
0.14000000000000001 0.020000000000000004 0
0.14000000000000001 0.040000000000000001 0
0.14000000000000001 0.54999999999999993 0
0.14000000000000001 0.56000000000000005 0
0.14000000000000001 0.58000000000000007 0
0.16 0 0
0.16 0.020000000000000004 0
0.16 0.040000000000000001 0
0.16 0.54999999999999993 0
0.16 0.56000000000000005 0
0.16 0.58000000000000007 0
0.17999999999999999 0 0
0.17999999999999999 0.020000000000000004 0
0.17999999999999999 0.040000000000000001 0
0.17999999999999999 0.54999999999999993 0
0.17999999999999999 0.56000000000000005 0
0.17999999999999999 0.58000000000000007 0
0.20000000000000001 0 0
0.20000000000000001 0.020000000000000004 0
0.20000000000000001 0.040000000000000001 0
0.20000000000000001 0.54999999999999993 0
0.20000000000000001 0.56000000000000005 0
0.20000000000000001 0.58000000000000007 0
0.22 0 0
0.22 0.020000000000000004 0
0.22 0.040000000000000001 0
0.22 0.54999999999999993 0
0.22 0.56000000000000005 0
0.22 0.58000000000000007 0
0.23999999999999999 0 0
0.23999999999999999 0.020000000000000004 0
0.23999999999999999 0.040000000000000001 0
0.23999999999999999 0.54999999999999993 0
0.23999999999999999 0.56000000000000005 0
0.23999999999999999 0.58000000000000007 0
0.26000000000000001 0 0
0.26000000000000001 0.020000000000000004 0
0.26000000000000001 0.040000000000000001 0
0.26000000000000001 0.54999999999999993 0
0.26000000000000001 0.56000000000000005 0
0.26000000000000001 0.58000000000000007 0
0.28000000000000003 0 0
0.28000000000000003 0.020000000000000004 0
0.28000000000000003 0.040000000000000001 0
0.28000000000000003 0.54999999999999993 0
0.28000000000000003 0.56000000000000005 0
0.28000000000000003 0.58000000000000007 0
0.29999999999999999 0 0
0.29999999999999999 0.020000000000000004 0
0.29999999999999999 0.040000000000000001 0
0.29999999999999999 0.54999999999999993 0
0.29999999999999999 0.56000000000000005 0
0.29999999999999999 0.58000000000000007 0
0.32000000000000001 0 0
0.32000000000000001 0.020000000000000004 0
0.32000000000000001 0.040000000000000001 0
0.32000000000000001 0.54999999999999993 0
0.32000000000000001 0.56000000000000005 0
0.32000000000000001 0.58000000000000007 0
0.34000000000000002 0 0
0.34000000000000002 0.020000000000000004 0
0.34000000000000002 0.040000000000000001 0
0.34000000000000002 0.54999999999999993 0
0.34000000000000002 0.56000000000000005 0
0.34000000000000002 0.58000000000000007 0
0.35999999999999999 0 0
0.35999999999999999 0.020000000000000004 0
0.35999999999999999 0.040000000000000001 0
0.35999999999999999 0.54999999999999993 0
0.35999999999999999 0.56000000000000005 0
0.35999999999999999 0.58000000000000007 0
0.38 0 0
0.38 0.020000000000000004 0
0.38 0.040000000000000001 0
0.38 0.54999999999999993 0
0.38 0.56000000000000005 0
0.38 0.58000000000000007 0
0.40000000000000002 0 0
0.40000000000000002 0.020000000000000004 0
0.40000000000000002 0.040000000000000001 0
0.40000000000000002 0.54999999999999993 0
0.40000000000000002 0.56000000000000005 0
0.40000000000000002 0.58000000000000007 0
0.41999999999999998 0 0
0.41999999999999998 0.020000000000000004 0
0.41999999999999998 0.040000000000000001 0
0.41999999999999998 0.54999999999999993 0
0.41999999999999998 0.56000000000000005 0
0.41999999999999998 0.58000000000000007 0
0.44 0 0
0.44 0.020000000000000004 0
0.44 0.040000000000000001 0
0.44 0.54999999999999993 0
0.44 0.56000000000000005 0
0.44 0.58000000000000007 0
0.46000000000000002 0 0
0.46000000000000002 0.020000000000000004 0
0.46000000000000002 0.040000000000000001 0
0.46000000000000002 0.54999999999999993 0
0.46000000000000002 0.56000000000000005 0
0.46000000000000002 0.58000000000000007 0
0.47999999999999998 0 0
0.47999999999999998 0.020000000000000004 0
0.47999999999999998 0.040000000000000001 0
0.47999999999999998 0.54999999999999993 0
0.47999999999999998 0.56000000000000005 0
0.47999999999999998 0.58000000000000007 0
0.5 0 0
0.5 0.020000000000000004 0
0.5 0.040000000000000001 0
0.5 0.54999999999999993 0
0.5 0.56000000000000005 0
0.5 0.58000000000000007 0
0.52000000000000002 0 0
0.52000000000000002 0.020000000000000004 0
0.52000000000000002 0.040000000000000001 0
0.52000000000000002 0.54999999999999993 0
0.52000000000000002 0.56000000000000005 0
0.52000000000000002 0.58000000000000007 0
0.54000000000000004 0 0
0.54000000000000004 0.020000000000000004 0
0.54000000000000004 0.040000000000000001 0
0.54000000000000004 0.54999999999999993 0
0.54000000000000004 0.56000000000000005 0
0.54000000000000004 0.58000000000000007 0
0.56000000000000005 0 0
0.56000000000000005 0.020000000000000004 0
0.56000000000000005 0.040000000000000001 0
0.56000000000000005 0.54999999999999993 0
0.56000000000000005 0.56000000000000005 0
0.56000000000000005 0.58000000000000007 0
0.57999999999999996 0 0
0.57999999999999996 0.020000000000000004 0
0.57999999999999996 0.040000000000000001 0
0.57999999999999996 0.54999999999999993 0
0.57999999999999996 0.56000000000000005 0
0.57999999999999996 0.58000000000000007 0
0.59999999999999998 0 0
0.59999999999999998 0.020000000000000004 0
0.59999999999999998 0.040000000000000001 0
0.59999999999999998 0.54999999999999993 0
0.59999999999999998 0.56000000000000005 0
0.59999999999999998 0.58000000000000007 0
0.62 0 0
0.62 0.020000000000000004 0
0.62 0.040000000000000001 0
0.62 0.54999999999999993 0
0.62 0.56000000000000005 0
0.62 0.58000000000000007 0
0.64000000000000001 0 0
0.64000000000000001 0.020000000000000004 0
0.64000000000000001 0.040000000000000001 0
0.64000000000000001 0.54999999999999993 0
0.64000000000000001 0.56000000000000005 0
0.64000000000000001 0.58000000000000007 0
0.66000000000000003 0 0
0.66000000000000003 0.020000000000000004 0
0.66000000000000003 0.040000000000000001 0
0.66000000000000003 0.54999999999999993 0
0.66000000000000003 0.56000000000000005 0
0.66000000000000003 0.58000000000000007 0
0.68000000000000005 0 0
0.68000000000000005 0.020000000000000004 0
0.68000000000000005 0.040000000000000001 0
0.68000000000000005 0.54999999999999993 0
0.68000000000000005 0.56000000000000005 0
0.68000000000000005 0.58000000000000007 0
0.70000000000000007 0 0
0.70000000000000007 0.020000000000000004 0
0.70000000000000007 0.040000000000000001 0
0.70000000000000007 0.54999999999999993 0
0.70000000000000007 0.56000000000000005 0
0.70000000000000007 0.58000000000000007 0
0.71999999999999997 0 0
0.71999999999999997 0.020000000000000004 0
0.71999999999999997 0.040000000000000001 0
0.71999999999999997 0.54999999999999993 0
0.71999999999999997 0.56000000000000005 0
0.71999999999999997 0.58000000000000007 0
0.73999999999999999 0 0
0.73999999999999999 0.020000000000000004 0
0.73999999999999999 0.040000000000000001 0
0.73999999999999999 0.54999999999999993 0
0.73999999999999999 0.56000000000000005 0
0.73999999999999999 0.58000000000000007 0
0.76000000000000001 0 0
0.76000000000000001 0.020000000000000004 0
0.76000000000000001 0.040000000000000001 0
0.76000000000000001 0.54999999999999993 0
0.76000000000000001 0.56000000000000005 0
0.76000000000000001 0.58000000000000007 0
0.78000000000000003 0 0
0.78000000000000003 0.020000000000000004 0
0.78000000000000003 0.040000000000000001 0
0.78000000000000003 0.54999999999999993 0
0.78000000000000003 0.56000000000000005 0
0.78000000000000003 0.58000000000000007 0
0.80000000000000004 0 0
0.80000000000000004 0.020000000000000004 0
0.80000000000000004 0.040000000000000001 0
0.80000000000000004 0.54999999999999993 0
0.80000000000000004 0.56000000000000005 0
0.80000000000000004 0.58000000000000007 0
0.82000000000000006 0 0
0.82000000000000006 0.020000000000000004 0
0.82000000000000006 0.040000000000000001 0
0.82000000000000006 0.54999999999999993 0
0.82000000000000006 0.56000000000000005 0
0.82000000000000006 0.58000000000000007 0
0.83999999999999997 0 0
0.83999999999999997 0.020000000000000004 0
0.83999999999999997 0.040000000000000001 0
0.83999999999999997 0.54999999999999993 0
0.83999999999999997 0.56000000000000005 0
0.83999999999999997 0.58000000000000007 0
0.85999999999999999 0 0
0.85999999999999999 0.020000000000000004 0
0.85999999999999999 0.040000000000000001 0
0.85999999999999999 0.54999999999999993 0
0.85999999999999999 0.56000000000000005 0
0.85999999999999999 0.58000000000000007 0
0.88 0 0
0.88 0.020000000000000004 0
0.88 0.040000000000000001 0
0.88 0.54999999999999993 0
0.88 0.56000000000000005 0
0.88 0.58000000000000007 0
0.90000000000000002 0 0
0.90000000000000002 0.020000000000000004 0
0.90000000000000002 0.040000000000000001 0
0.90000000000000002 0.54999999999999993 0
0.90000000000000002 0.56000000000000005 0
0.90000000000000002 0.58000000000000007 0
0.92000000000000004 0 0
0.92000000000000004 0.020000000000000004 0
0.92000000000000004 0.040000000000000001 0
0.92000000000000004 0.54999999999999993 0
0.92000000000000004 0.56000000000000005 0
0.92000000000000004 0.58000000000000007 0
0.94000000000000006 0 0
0.94000000000000006 0.020000000000000004 0
0.94000000000000006 0.040000000000000001 0
0.94000000000000006 0.54999999999999993 0
0.94000000000000006 0.56000000000000005 0
0.94000000000000006 0.58000000000000007 0
0.95999999999999996 0 0
0.95999999999999996 0.020000000000000004 0
0.95999999999999996 0.040000000000000001 0
0.95999999999999996 0.54999999999999993 0
0.95999999999999996 0.56000000000000005 0
0.95999999999999996 0.58000000000000007 0
0.97999999999999998 0 0
0.97999999999999998 0.020000000000000004 0
0.97999999999999998 0.040000000000000001 0
0.97999999999999998 0.54999999999999993 0
0.97999999999999998 0.56000000000000005 0
0.97999999999999998 0.58000000000000007 0
1 0 0
1 0.020000000000000004 0
1 0.040000000000000001 0
1 0.54999999999999993 0
1 0.56000000000000005 0
1 0.58000000000000007 0
VERTICES 681 1362
1 0
1 1
1 2
1 3
1 4
1 5
1 6
1 7
1 8
1 9
1 10
1 11
1 12
1 13
1 14
1 15
1 16
1 17
1 18
1 19
1 20
1 21
1 22
1 23
1 24
1 25
1 26
1 27
1 28
1 29
1 30
1 31
1 32
1 33
1 34
1 35
1 36
1 37
1 38
1 39
1 40
1 41
1 42
1 43
1 44
1 45
1 46
1 47
1 48
1 49
1 50
1 51
1 52
1 53
1 54
1 55
1 56
1 57
1 58
1 59
1 60
1 61
1 62
1 63
1 64
1 65
1 66
1 67
1 68
1 69
1 70
1 71
1 72
1 73
1 74
1 75
1 76
1 77
1 78
1 79
1 80
1 81
1 82
1 83
1 84
1 85
1 86
1 87
1 88
1 89
1 90
1 91
1 92
1 93
1 94
1 95
1 96
1 97
1 98
1 99
1 100
1 101
1 102
1 103
1 104
1 105
1 106
1 107
1 108
1 109
1 110
1 111
1 112
1 113
1 114
1 115
1 116
1 117
1 118
1 119
1 120
1 121
1 122
1 123
1 124
1 125
1 126
1 127
1 128
1 129
1 130
1 131
1 132
1 133
1 134
1 135
1 136
1 137
1 138
1 139
1 140
1 141
1 142
1 143
1 144
1 145
1 146
1 147
1 148
1 149
1 150
1 151
1 152
1 153
1 154
1 155
1 156
1 157
1 158
1 159
1 160
1 161
1 162
1 163
1 164
1 165
1 166
1 167
1 168
1 169
1 170
1 171
1 172
1 173
1 174
1 175
1 176
1 177
1 178
1 179
1 180
1 181
1 182
1 183
1 184
1 185
1 186
1 187
1 188
1 189
1 190
1 191
1 192
1 193
1 194
1 195
1 196
1 197
1 198
1 199
1 200
1 201
1 202
1 203
1 204
1 205
1 206
1 207
1 208
1 209
1 210
1 211
1 212
1 213
1 214
1 215
1 216
1 217
1 218
1 219
1 220
1 221
1 222
1 223
1 224
1 225
1 226
1 227
1 228
1 229
1 230
1 231
1 232
1 233
1 234
1 235
1 236
1 237
1 238
1 239
1 240
1 241
1 242
1 243
1 244
1 245
1 246
1 247
1 248
1 249
1 250
1 251
1 252
1 253
1 254
1 255
1 256
1 257
1 258
1 259
1 260
1 261
1 262
1 263
1 264
1 265
1 266
1 267
1 268
1 269
1 270
1 271
1 272
1 273
1 274
1 275
1 276
1 277
1 278
1 279
1 280
1 281
1 282
1 283
1 284
1 285
1 286
1 287
1 288
1 289
1 290
1 291
1 292
1 293
1 294
1 295
1 296
1 297
1 298
1 299
1 300
1 301
1 302
1 303
1 304
1 305
1 306
1 307
1 308
1 309
1 310
1 311
1 312
1 313
1 314
1 315
1 316
1 317
1 318
1 319
1 320
1 321
1 322
1 323
1 324
1 325
1 326
1 327
1 328
1 329
1 330
1 331
1 332
1 333
1 334
1 335
1 336
1 337
1 338
1 339
1 340
1 341
1 342
1 343
1 344
1 345
1 346
1 347
1 348
1 349
1 350
1 351
1 352
1 353
1 354
1 355
1 356
1 357
1 358
1 359
1 360
1 361
1 362
1 363
1 364
1 365
1 366
1 367
1 368
1 369
1 370
1 371
1 372
1 373
1 374
1 375
1 376
1 377
1 378
1 379
1 380
1 381
1 382
1 383
1 384
1 385
1 386
1 387
1 388
1 389
1 390
1 391
1 392
1 393
1 394
1 395
1 396
1 397
1 398
1 399
1 400
1 401
1 402
1 403
1 404
1 405
1 406
1 407
1 408
1 409
1 410
1 411
1 412
1 413
1 414
1 415
1 416
1 417
1 418
1 419
1 420
1 421
1 422
1 423
1 424
1 425
1 426
1 427
1 428
1 429
1 430
1 431
1 432
1 433
1 434
1 435
1 436
1 437
1 438
1 439
1 440
1 441
1 442
1 443
1 444
1 445
1 446
1 447
1 448
1 449
1 450
1 451
1 452
1 453
1 454
1 455
1 456
1 457
1 458
1 459
1 460
1 461
1 462
1 463
1 464
1 465
1 466
1 467
1 468
1 469
1 470
1 471
1 472
1 473
1 474
1 475
1 476
1 477
1 478
1 479
1 480
1 481
1 482
1 483
1 484
1 485
1 486
1 487
1 488
1 489
1 490
1 491
1 492
1 493
1 494
1 495
1 496
1 497
1 498
1 499
1 500
1 501
1 502
1 503
1 504
1 505
1 506
1 507
1 508
1 509
1 510
1 511
1 512
1 513
1 514
1 515
1 516
1 517
1 518
1 519
1 520
1 521
1 522
1 523
1 524
1 525
1 526
1 527
1 528
1 529
1 530
1 531
1 532
1 533
1 534
1 535
1 536
1 537
1 538
1 539
1 540
1 541
1 542
1 543
1 544
1 545
1 546
1 547
1 548
1 549
1 550
1 551
1 552
1 553
1 554
1 555
1 556
1 557
1 558
1 559
1 560
1 561
1 562
1 563
1 564
1 565
1 566
1 567
1 568
1 569
1 570
1 571
1 572
1 573
1 574
1 575
1 576
1 577
1 578
1 579
1 580
1 581
1 582
1 583
1 584
1 585
1 586
1 587
1 588
1 589
1 590
1 591
1 592
1 593
1 594
1 595
1 596
1 597
1 598
1 599
1 600
1 601
1 602
1 603
1 604
1 605
1 606
1 607
1 608
1 609
1 610
1 611
1 612
1 613
1 614
1 615
1 616
1 617
1 618
1 619
1 620
1 621
1 622
1 623
1 624
1 625
1 626
1 627
1 628
1 629
1 630
1 631
1 632
1 633
1 634
1 635
1 636
1 637
1 638
1 639
1 640
1 641
1 642
1 643
1 644
1 645
1 646
1 647
1 648
1 649
1 650
1 651
1 652
1 653
1 654
1 655
1 656
1 657
1 658
1 659
1 660
1 661
1 662
1 663
1 664
1 665
1 666
1 667
1 668
1 669
1 670
1 671
1 672
1 673
1 674
1 675
1 676
1 677
1 678
1 679
1 680
POINT_DATA 681
SCALARS is_boundary int 1
LOOKUP_TABLE default
0
0
0
0
0
0
0
0
0
0
0
0
0
0
0
0
0
0
0
0
0
0
0
0
0
0
0
0
0
0
0
0
0
0
0
0
0
0
0
0
0
0
0
0
0
0
0
0
0
0
0
0
0
0
0
0
0
0
0
0
0
0
0
0
0
0
0
0
0
0
0
0
0
0
0
0
0
0
0
0
0
0
0
0
0
0
0
0
0
0
0
0
0
0
0
0
0
0
0
0
0
0
0
0
0
0
0
0
0
0
0
0
0
0
0
0
0
0
0
0
0
0
0
0
0
0
0
0
0
0
0
0
0
0
0
0
0
0
0
0
0
0
0
0
0
0
0
0
0
0
0
0
0
0
0
0
0
0
0
0
0
0
0
0
0
0
0
0
0
0
0
0
0
0
0
0
0
0
0
0
0
0
0
0
0
0
0
0
0
0
0
0
0
0
0
0
0
0
0
0
0
0
0
0
0
0
0
0
0
0
0
0
0
0
0
0
0
0
0
0
0
0
0
0
0
0
0
0
0
0
0
0
0
0
0
0
0
0
0
0
0
0
0
0
0
0
0
0
0
0
0
0
0
0
0
0
0
0
0
0
0
0
0
0
0
0
0
0
0
0
0
0
0
0
0
0
0
0
0
0
0
0
0
0
0
0
0
0
0
0
0
0
0
0
0
0
0
0
0
0
0
0
0
0
0
0
0
0
0
0
0
0
0
0
0
0
0
0
0
0
0
0
0
0
0
0
0
0
0
0
0
0
0
0
0
0
0
0
0
0
0
0
0
0
0
0
0
0
0
0
0
0
0
0
0
0
0
0
0
0
0
0
0
0
0
0
0
0
0
0
0
0
0
0
0
1
1
1
1
1
1
1
1
1
1
1
1
1
1
1
1
1
1
1
1
1
1
1
1
1
1
1
1
1
1
1
1
1
1
1
1
1
1
1
1
1
1
1
1
1
1
1
1
1
1
1
1
1
1
1
1
1
1
1
1
1
1
1
1
1
1
1
1
1
1
1
1
1
1
1
1
1
1
1
1
1
1
1
1
1
1
1
1
1
1
1
1
1
1
1
1
1
1
1
1
1
1
1
1
1
1
1
1
1
1
1
1
1
1
1
1
1
1
1
1
1
1
1
1
1
1
1
1
1
1
1
1
1
1
1
1
1
1
1
1
1
1
1
1
1
1
1
1
1
1
1
1
1
1
1
1
1
1
1
1
1
1
1
1
1
1
1
1
1
1
1
1
1
1
1
1
1
1
1
1
1
1
1
1
1
1
1
1
1
1
1
1
1
1
1
1
1
1
1
1
1
1
1
1
1
1
1
1
1
1
1
1
1
1
1
1
1
1
1
1
1
1
1
1
1
1
1
1
1
1
1
1
1
1
1
1
1
1
1
1
1
1
1
1
1
1
1
1
1
1
1
1
1
1
1
1
1
1
1
1
1
1
1
1
1
1
1
1
1
1
1
1
1
1
1
1
1
1
1
1
1
1
1
1
1
1
1
1
1
1
1
1
1
1
1
1
1
1
1
1
1
1
1
1
1
1
SCALARS rho float 1
LOOKUP_TABLE default
1020
1020
1020
1020
1020
1020
1020
1020
1020
1020
1020
1020
1020
1020
1020
1020
1020
1020
1020
1020
1020
1020
1020
1020
1020
1020
1020
1020
1020
1020
1020
1020
1020
1020
1020
1020
1020
1020
1020
1020
1020
1020
1020
1020
1020
1020
1020
1020
1020
1020
1020
1020
1020
1020
1020
1020
1020
1020
1020
1020
1020
1020
1020
1020
1020
1020
1020
1020
1020
1020
1020
1020
1020
1020
1020
1020
1020
1020
1020
1020
1020
1020
1020
1020
1020
1020
1020
1020
1020
1020
1020
1020
1020
1020
1020
1020
1020
1020
1020
1020
1020
1020
1020
1020
1020
1020
1020
1020
1020
1020
1020
1020
1020
1020
1020
1020
1020
1020
1020
1020
1020
1020
1020
1020
1020
1020
1020
1020
1020
1020
1020
1020
1020
1020
1020
1020
1020
1020
1020
1020
1020
1020
1020
1020
1020
1020
1020
1020
1020
1020
1020
1020
1020
1020
1020
1020
1020
1020
1020
1020
1020
1020
1020
1020
1020
1020
1020
1020
1020
1020
1020
1020
1020
1020
1020
1020
1020
1020
1020
1020
1020
1020
1020
1020
1020
1020
1020
1020
1020
1020
1020
1020
1020
1020
1020
1020
1020
1020
1020
1020
1020
1020
1020
1020
1020
1020
1020
1020
1020
1020
1020
1020
1020
1020
1020
1020
1020
1020
1020
1020
1020
1020
1020
1020
1020
1020
1020
1020
1020
1020
1020
1020
1020
1020
1020
1020
1020
1020
1020
1020
1020
1020
1020
1020
1020
1020
1020
1020
1020
1020
1020
1020
1020
1020
1020
1020
1020
1020
1020
1020
1020
1020
1020
1020
1020
1020
1020
1020
1020
1020
1020
1020
1020
1020
1020
1020
1020
1020
1020
1020
1020
1020
1020
1020
1020
1020
1020
1020
1020
1020
1020
1020
1020
1020
1020
1020
1020
1020
1020
1020
1020
1020
1020
1020
1020
1020
1020
1020
1020
1020
1020
1020
1020
1020
1020
1020
1020
1020
1020
1020
1020
1020
1020
1020
1020
1020
1020
1020
1020
1020
1020
1020
1020
1020
1020
1020
1020
1020
1020
1020
1020
1020
1020
1020
1020
1020
1020
1020
1020
1020
1020
1020
1020
1020
1020
1020
1020
1020
1020
1020
1020
1020
1020
1020
1020
1020
1020
1020
1020
1020
1020
1020
1020
1020
1020
1000
1000
1000
1000
1000
1000
1000
1000
1000
1000
1000
1000
1000
1000
1000
1000
1000
1000
1000
1000
1000
1000
1000
1000
1000
1000
1000
1000
1000
1000
1000
1000
1000
1000
1000
1000
1000
1000
1000
1000
1000
1000
1000
1000
1000
1000
1000
1000
1000
1000
1000
1000
1000
1000
1000
1000
1000
1000
1000
1000
1000
1000
1000
1000
1000
1000
1000
1000
1000
1000
1000
1000
1000
1000
1000
1000
1000
1000
1000
1000
1000
1000
1000
1000
1000
1000
1000
1000
1000
1000
1000
1000
1000
1000
1000
1000
1000
1000
1000
1000
1000
1000
1000
1000
1000
1000
1000
1000
1000
1000
1000
1000
1000
1000
1000
1000
1000
1000
1000
1000
1000
1000
1000
1000
1000
1000
1000
1000
1000
1000
1000
1000
1000
1000
1000
1000
1000
1000
1000
1000
1000
1000
1000
1000
1000
1000
1000
1000
1000
1000
1000
1000
1000
1000
1000
1000
1000
1000
1000
1000
1000
1000
1000
1000
1000
1000
1000
1000
1000
1000
1000
1000
1000
1000
1000
1000
1000
1000
1000
1000
1000
1000
1000
1000
1000
1000
1000
1000
1000
1000
1000
1000
1000
1000
1000
1000
1000
1000
1000
1000
1000
1000
1000
1000
1000
1000
1000
1000
1000
1000
1000
1000
1000
1000
1000
1000
1000
1000
1000
1000
1000
1000
1000
1000
1000
1000
1000
1000
1000
1000
1000
1000
1000
1000
1000
1000
1000
1000
1000
1000
1000
1000
1000
1000
1000
1000
1000
1000
1000
1000
1000
1000
1000
1000
1000
1000
1000
1000
1000
1000
1000
1000
1000
1000
1000
1000
1000
1000
1000
1000
1000
1000
1000
1000
1000
1000
1000
1000
1000
1000
1000
1000
1000
1000
1000
1000
1000
1000
1000
1000
1000
1000
1000
1000
1000
1000
1000
1000
1000
1000
1000
1000
1000
1000
1000
1000
SCALARS p float 1
LOOKUP_TABLE default
25004.681136676067
25004.681136676067
25004.681136676067
25004.681136676067
25004.681136676067
25004.681136676067
25004.681136676067
25004.681136676067
25004.681136676067
25004.681136676067
25004.681136676067
25004.681136676067
25004.681136676067
25004.681136676067
25004.681136676067
25004.681136676067
25004.681136676067
25004.681136676067
25004.681136676067
25004.681136676067
25004.681136676067
25004.681136676067
25004.681136676067
25004.681136676067
25004.681136676067
25004.681136676067
25004.681136676067
25004.681136676067
25004.681136676067
25004.681136676067
25004.681136676067
25004.681136676067
25004.681136676067
25004.681136676067
25004.681136676067
25004.681136676067
25004.681136676067
25004.681136676067
25004.681136676067
25004.681136676067
25004.681136676067
25004.681136676067
25004.681136676067
25004.681136676067
25004.681136676067
25004.681136676067
25004.681136676067
25004.681136676067
25004.681136676067
25004.681136676067
25004.681136676067
25004.681136676067
25004.681136676067
25004.681136676067
25004.681136676067
25004.681136676067
25004.681136676067
25004.681136676067
25004.681136676067
25004.681136676067
25004.681136676067
25004.681136676067
25004.681136676067
25004.681136676067
25004.681136676067
25004.681136676067
25004.681136676067
25004.681136676067
25004.681136676067
25004.681136676067
25004.681136676067
25004.681136676067
25004.681136676067
25004.681136676067
25004.681136676067
25004.681136676067
25004.681136676067
25004.681136676067
25004.681136676067
25004.681136676067
25004.681136676067
25004.681136676067
25004.681136676067
25004.681136676067
25004.681136676067
25004.681136676067
25004.681136676067
25004.681136676067
25004.681136676067
25004.681136676067
25004.681136676067
25004.681136676067
25004.681136676067
25004.681136676067
25004.681136676067
25004.681136676067
25004.681136676067
25004.681136676067
25004.681136676067
25004.681136676067
25004.681136676067
25004.681136676067
25004.681136676067
25004.681136676067
25004.681136676067
25004.681136676067
25004.681136676067
25004.681136676067
25004.681136676067
25004.681136676067
25004.681136676067
25004.681136676067
25004.681136676067
25004.681136676067
25004.681136676067
25004.681136676067
25004.681136676067
25004.681136676067
25004.681136676067
25004.681136676067
25004.681136676067
25004.681136676067
25004.681136676067
25004.681136676067
25004.681136676067
25004.681136676067
25004.681136676067
25004.681136676067
25004.681136676067
25004.681136676067
25004.681136676067
25004.681136676067
25004.681136676067
25004.681136676067
25004.681136676067
25004.681136676067
25004.681136676067
25004.681136676067
25004.681136676067
25004.681136676067
25004.681136676067
25004.681136676067
25004.681136676067
25004.681136676067
25004.681136676067
25004.681136676067
25004.681136676067
25004.681136676067
25004.681136676067
25004.681136676067
25004.681136676067
25004.681136676067
25004.681136676067
25004.681136676067
25004.681136676067
25004.681136676067
25004.681136676067
25004.681136676067
25004.681136676067
25004.681136676067
25004.681136676067
25004.681136676067
25004.681136676067
25004.681136676067
25004.681136676067
25004.681136676067
25004.681136676067
25004.681136676067
25004.681136676067
25004.681136676067
25004.681136676067
25004.681136676067
25004.681136676067
25004.681136676067
25004.681136676067
25004.681136676067
25004.681136676067
25004.681136676067
25004.681136676067
25004.681136676067
25004.681136676067
25004.681136676067
25004.681136676067
25004.681136676067
25004.681136676067
25004.681136676067
25004.681136676067
25004.681136676067
25004.681136676067
25004.681136676067
25004.681136676067
25004.681136676067
25004.681136676067
25004.681136676067
25004.681136676067
25004.681136676067
25004.681136676067
25004.681136676067
25004.681136676067
25004.681136676067
25004.681136676067
25004.681136676067
25004.681136676067
25004.681136676067
25004.681136676067
25004.681136676067
25004.681136676067
25004.681136676067
25004.681136676067
25004.681136676067
25004.681136676067
25004.681136676067
25004.681136676067
25004.681136676067
25004.681136676067
25004.681136676067
25004.681136676067
25004.681136676067
25004.681136676067
25004.681136676067
25004.681136676067
25004.681136676067
25004.681136676067
25004.681136676067
25004.681136676067
25004.681136676067
25004.681136676067
25004.681136676067
25004.681136676067
25004.681136676067
25004.681136676067
25004.681136676067
25004.681136676067
25004.681136676067
25004.681136676067
25004.681136676067
25004.681136676067
25004.681136676067
25004.681136676067
25004.681136676067
25004.681136676067
25004.681136676067
25004.681136676067
25004.681136676067
25004.681136676067
25004.681136676067
25004.681136676067
25004.681136676067
25004.681136676067
25004.681136676067
25004.681136676067
25004.681136676067
25004.681136676067
25004.681136676067
25004.681136676067
25004.681136676067
25004.681136676067
25004.681136676067
25004.681136676067
25004.681136676067
25004.681136676067
25004.681136676067
25004.681136676067
25004.681136676067
25004.681136676067
25004.681136676067
25004.681136676067
25004.681136676067
25004.681136676067
25004.681136676067
25004.681136676067
25004.681136676067
25004.681136676067
25004.681136676067
25004.681136676067
25004.681136676067
25004.681136676067
25004.681136676067
25004.681136676067
25004.681136676067
25004.681136676067
25004.681136676067
25004.681136676067
25004.681136676067
25004.681136676067
25004.681136676067
25004.681136676067
25004.681136676067
25004.681136676067
25004.681136676067
25004.681136676067
25004.681136676067
25004.681136676067
25004.681136676067
25004.681136676067
25004.681136676067
25004.681136676067
25004.681136676067
25004.681136676067
25004.681136676067
25004.681136676067
25004.681136676067
25004.681136676067
25004.681136676067
25004.681136676067
25004.681136676067
25004.681136676067
25004.681136676067
25004.681136676067
25004.681136676067
25004.681136676067
25004.681136676067
25004.681136676067
25004.681136676067
25004.681136676067
25004.681136676067
25004.681136676067
25004.681136676067
25004.681136676067
25004.681136676067
25004.681136676067
25004.681136676067
25004.681136676067
25004.681136676067
25004.681136676067
25004.681136676067
25004.681136676067
25004.681136676067
25004.681136676067
25004.681136676067
25004.681136676067
25004.681136676067
25004.681136676067
25004.681136676067
25004.681136676067
25004.681136676067
25004.681136676067
25004.681136676067
25004.681136676067
25004.681136676067
25004.681136676067
25004.681136676067
25004.681136676067
25004.681136676067
25004.681136676067
25004.681136676067
25004.681136676067
25004.681136676067
25004.681136676067
25004.681136676067
25004.681136676067
25004.681136676067
25004.681136676067
25004.681136676067
25004.681136676067
25004.681136676067
25004.681136676067
25004.681136676067
25004.681136676067
25004.681136676067
25004.681136676067
25004.681136676067
25004.681136676067
25004.681136676067
25004.681136676067
25004.681136676067
25004.681136676067
25004.681136676067
25004.681136676067
25004.681136676067
25004.681136676067
25004.681136676067
25004.681136676067
25004.681136676067
25004.681136676067
0
0
0
0
0
0
24368.761274012031
24984.364648910883
24991.288188793344
0
0
0
24998.406011281579
25003.987566815638
25004.209236418792
0
0
0
25001.718627341605
25004.327512895459
25004.43716007323
0
0
0
25001.915761652144
25004.332836740257
25004.437351430272
0
0
0
25001.927521575661
25004.332405040812
25004.436662220487
0
0
0
25001.924206482734
25004.332154902932
25004.436588143573
0
0
0
25001.922139075083
25004.332041696322
25004.436582925315
0
0
0
25001.921335686726
25004.331997016212
25004.436583979466
0
0
0
25001.921134665168
25004.3319840125
25004.436585221112
0
0
0
25001.921162519768
25004.331984991557
25004.436587379416
0
0
0
25001.92148047634
25004.33200254829
25004.436585802781
0
0
0
25001.922377993207
25004.332052807822
25004.436586308799
0
0
0
25001.924455320681
25004.332166347969
25004.436593060713
0
0
0
25001.927706403942
25004.332411217852
25004.43666303853
0
0
0
25001.915804924101
25004.332834720004
25004.437349693515
0
0
0
25001.718627215912
25004.327512835414
25004.437164461946
0
0
0
24998.405715109064
25003.987532144711
25004.209220136119
0
0
0
24368.632862133563
24984.361483311859
24991.285629014987
0
0
0
0
0
0
0
0
0
0
0
0
0
0
0
0
0
0
0
0
0
0
0
0
0
0
0
0
0
0
0
0
0
0
0
0
0
0
0
0
0
0
0
0
0
0
0
0
0
0
0
0
0
0
0
0
0
0
0
0
0
0
0
0
0
0
0
0
0
0
0
0
0
0
0
0
0
0
0
0
0
0
0
0
0
0
0
0
0
0
0
0
0
0
0
0
0
0
0
0
0
0
0
0
0
0
0
0
0
0
0
0
0
0
0
0
0
0
0
0
0
0
0
0
0
0
0
0
0
0
0
0
0
0
0
0
0
0
0
0
0
0
0
0
0
0
0
0
0
0
0
0
0
0
0
0
0
0
0
0
0
0
0
0
0
0
0
0
0
0
0
0
0
0
0
0
0
0
0
0
0
0
0
0
0
0
0
0
0
0
0
0
0
0
0
SCALARS m float 1
LOOKUP_TABLE default
0.39965556373580352
0.39965556373580352
0.39965556373580352
0.39965556373580352
0.39965556373580352
0.39965556373580352
0.39965556373580352
0.39965556373580352
0.39965556373580352
0.39965556373580352
0.39965556373580352
0.39965556373580352
0.39965556373580352
0.39965556373580352
0.39965556373580352
0.39965556373580352
0.39965556373580352
0.39965556373580352
0.39965556373580352
0.39965556373580352
0.39965556373580352
0.39965556373580352
0.39965556373580352
0.39965556373580352
0.39965556373580352
0.39965556373580352
0.39965556373580352
0.39965556373580352
0.39965556373580352
0.39965556373580352
0.39965556373580352
0.39965556373580352
0.39965556373580352
0.39965556373580352
0.39965556373580352
0.39965556373580352
0.39965556373580352
0.39965556373580352
0.39965556373580352
0.39965556373580352
0.39965556373580352
0.39965556373580352
0.39965556373580352
0.39965556373580352
0.39965556373580352
0.39965556373580352
0.39965556373580352
0.39965556373580352
0.39965556373580352
0.39965556373580352
0.39965556373580352
0.39965556373580352
0.39965556373580352
0.39965556373580352
0.39965556373580352
0.39965556373580352
0.39965556373580352
0.39965556373580352
0.39965556373580352
0.39965556373580352
0.39965556373580352
0.39965556373580352
0.39965556373580352
0.39965556373580352
0.39965556373580352
0.39965556373580352
0.39965556373580352
0.39965556373580352
0.39965556373580352
0.39965556373580352
0.39965556373580352
0.39965556373580352
0.39965556373580352
0.39965556373580352
0.39965556373580352
0.39965556373580352
0.39965556373580352
0.39965556373580352
0.39965556373580352
0.39965556373580352
0.39965556373580352
0.39965556373580352
0.39965556373580352
0.39965556373580352
0.39965556373580352
0.39965556373580352
0.39965556373580352
0.39965556373580352
0.39965556373580352
0.39965556373580352
0.39965556373580352
0.39965556373580352
0.39965556373580352
0.39965556373580352
0.39965556373580352
0.39965556373580352
0.39965556373580352
0.39965556373580352
0.39965556373580352
0.39965556373580352
0.39965556373580352
0.39965556373580352
0.39965556373580352
0.39965556373580352
0.39965556373580352
0.39965556373580352
0.39965556373580352
0.39965556373580352
0.39965556373580352
0.39965556373580352
0.39965556373580352
0.39965556373580352
0.39965556373580352
0.39965556373580352
0.39965556373580352
0.39965556373580352
0.39965556373580352
0.39965556373580352
0.39965556373580352
0.39965556373580352
0.39965556373580352
0.39965556373580352
0.39965556373580352
0.39965556373580352
0.39965556373580352
0.39965556373580352
0.39965556373580352
0.39965556373580352
0.39965556373580352
0.39965556373580352
0.39965556373580352
0.39965556373580352
0.39965556373580352
0.39965556373580352
0.39965556373580352
0.39965556373580352
0.39965556373580352
0.39965556373580352
0.39965556373580352
0.39965556373580352
0.39965556373580352
0.39965556373580352
0.39965556373580352
0.39965556373580352
0.39965556373580352
0.39965556373580352
0.39965556373580352
0.39965556373580352
0.39965556373580352
0.39965556373580352
0.39965556373580352
0.39965556373580352
0.39965556373580352
0.39965556373580352
0.39965556373580352
0.39965556373580352
0.39965556373580352
0.39965556373580352
0.39965556373580352
0.39965556373580352
0.39965556373580352
0.39965556373580352
0.39965556373580352
0.39965556373580352
0.39965556373580352
0.39965556373580352
0.39965556373580352
0.39965556373580352
0.39965556373580352
0.39965556373580352
0.39965556373580352
0.39965556373580352
0.39965556373580352
0.39965556373580352
0.39965556373580352
0.39965556373580352
0.39965556373580352
0.39965556373580352
0.39965556373580352
0.39965556373580352
0.39965556373580352
0.39965556373580352
0.39965556373580352
0.39965556373580352
0.39965556373580352
0.39965556373580352
0.39965556373580352
0.39965556373580352
0.39965556373580352
0.39965556373580352
0.39965556373580352
0.39965556373580352
0.39965556373580352
0.39965556373580352
0.39965556373580352
0.39965556373580352
0.39965556373580352
0.39965556373580352
0.39965556373580352
0.39965556373580352
0.39965556373580352
0.39965556373580352
0.39965556373580352
0.39965556373580352
0.39965556373580352
0.39965556373580352
0.39965556373580352
0.39965556373580352
0.39965556373580352
0.39965556373580352
0.39965556373580352
0.39965556373580352
0.39965556373580352
0.39965556373580352
0.39965556373580352
0.39965556373580352
0.39965556373580352
0.39965556373580352
0.39965556373580352
0.39965556373580352
0.39965556373580352
0.39965556373580352
0.39965556373580352
0.39965556373580352
0.39965556373580352
0.39965556373580352
0.39965556373580352
0.39965556373580352
0.39965556373580352
0.39965556373580352
0.39965556373580352
0.39965556373580352
0.39965556373580352
0.39965556373580352
0.39965556373580352
0.39965556373580352
0.39965556373580352
0.39965556373580352
0.39965556373580352
0.39965556373580352
0.39965556373580352
0.39965556373580352
0.39965556373580352
0.39965556373580352
0.39965556373580352
0.39965556373580352
0.39965556373580352
0.39965556373580352
0.39965556373580352
0.39965556373580352
0.39965556373580352
0.39965556373580352
0.39965556373580352
0.39965556373580352
0.39965556373580352
0.39965556373580352
0.39965556373580352
0.39965556373580352
0.39965556373580352
0.39965556373580352
0.39965556373580352
0.39965556373580352
0.39965556373580352
0.39965556373580352
0.39965556373580352
0.39965556373580352
0.39965556373580352
0.39965556373580352
0.39965556373580352
0.39965556373580352
0.39965556373580352
0.39965556373580352
0.39965556373580352
0.39965556373580352
0.39965556373580352
0.39965556373580352
0.39965556373580352
0.39965556373580352
0.39965556373580352
0.39965556373580352
0.39965556373580352
0.39965556373580352
0.39965556373580352
0.39965556373580352
0.39965556373580352
0.39965556373580352
0.39965556373580352
0.39965556373580352
0.39965556373580352
0.39965556373580352
0.39965556373580352
0.39965556373580352
0.39965556373580352
0.39965556373580352
0.39965556373580352
0.39965556373580352
0.39965556373580352
0.39965556373580352
0.39965556373580352
0.39965556373580352
0.39965556373580352
0.39965556373580352
0.39965556373580352
0.39965556373580352
0.39965556373580352
0.39965556373580352
0.39965556373580352
0.39965556373580352
0.39965556373580352
0.39965556373580352
0.39965556373580352
0.39965556373580352
0.39965556373580352
0.39965556373580352
0.39965556373580352
0.39965556373580352
0.39965556373580352
0.39965556373580352
0.39965556373580352
0.39965556373580352
0.39965556373580352
0.39965556373580352
0.39965556373580352
0.39965556373580352
0.39965556373580352
0.39965556373580352
0.39965556373580352
0.39965556373580352
0.39965556373580352
0.39965556373580352
0.39965556373580352
0.39965556373580352
0.39965556373580352
0.39965556373580352
0.39965556373580352
0.39965556373580352
0.39965556373580352
0.39965556373580352
0.39965556373580352
0.39965556373580352
0.39965556373580352
0.39965556373580352
0.39965556373580352
0.39965556373580352
0.39965556373580352
0.39965556373580352
0.39965556373580352
0.39965556373580352
0.39965556373580352
0.39965556373580352
0.39965556373580352
0.39965556373580352
0.39965556373580352
0.39965556373580352
0.39965556373580352
0.39965556373580352
0.39965556373580352
0.39965556373580352
0.39965556373580352
0.39965556373580352
0.39965556373580352
0.39965556373580352
0.39965556373580352
0.39965556373580352
0.39965556373580352
0.39965556373580352
0.39965556373580352
0.39965556373580352
0.39965556373580352
0.39965556373580352
0.39965556373580352
0.39965556373580352
0.39965556373580352
0.39965556373580352
0.39965556373580352
0.39965556373580352
0.39965556373580352
0.39965556373580352
0.39965556373580352
0.39965556373580352
0.39965556373580352
0.39965556373580352
0.39965556373580352
0.39965556373580352
0.39965556373580352
0.39965556373580352
0.39965556373580352
0.39965556373580352
0.39965556373580352
0.39965556373580352
0.39965556373580352
0.39965556373580352
0.39965556373580352
0.39965556373580352
0.39965556373580352
0.39965556373580352
0.39965556373580352
0.39965556373580352
0.39965556373580352
0.39965556373580352
0.39965556373580352
0.39965556373580352
0.39965556373580352
0.39965556373580352
0.39965556373580352
0.39965556373580352
0.39965556373580352
0.39965556373580352
0.39965556373580352
0.39965556373580352
0.39965556373580352
0.39965556373580352
0.39965556373580352
0.39965556373580352
0.39965556373580352
0.39965556373580352
0.39965556373580352
0.39965556373580352
0.39965556373580352
0.39965556373580352
0.39965556373580352
0.39965556373580352
0.39965556373580352
0.39965556373580352
0.39965556373580352
0.39965556373580352
0.39965556373580352
0.39965556373580352
0.39965556373580352
0.39965556373580352
0.39965556373580352
0.39965556373580352
0.39965556373580352
0.39965556373580352
0.39965556373580352
0.39965556373580352
0.39965556373580352
0.39965556373580352
0.39965556373580352
0.39965556373580352
0.39965556373580352
0.39965556373580352
0.39965556373580352
0.39965556373580352
0.39965556373580352
0.39965556373580352
0.39965556373580352
0.39965556373580352
0.39965556373580352
0.39965556373580352
0.39965556373580352
0.39965556373580352
0.39965556373580352
0.39965556373580352
0.39965556373580352
0.39965556373580352
0.39965556373580352
0.39965556373580352
0.39965556373580352
0.39965556373580352
0.39965556373580352
0.39965556373580352
0.39965556373580352
0.39965556373580352
0.39965556373580352
0.39965556373580352
0.39965556373580352
0.39965556373580352
0.39965556373580352
0.39965556373580352
0.39965556373580352
0.39965556373580352
0.39965556373580352
0.39965556373580352
0.39965556373580352
0.39965556373580352
0.39965556373580352
0.39965556373580352
0.39965556373580352
0.39965556373580352
0.39965556373580352
0.39965556373580352
0.39965556373580352
0.39965556373580352
0.39965556373580352
0.39965556373580352
0.39965556373580352
0.39965556373580352
0.39965556373580352
0.39965556373580352
0.39965556373580352
0.39965556373580352
0.39965556373580352
0.39965556373580352
0.39965556373580352
0.39965556373580352
0.39965556373580352
0.39965556373580352
0.39965556373580352
0.39965556373580352
0.39965556373580352
0.39965556373580352
0.39965556373580352
0.39965556373580352
0.39965556373580352
0.39965556373580352
0.39965556373580352
0.39965556373580352
0.39965556373580352
0.39965556373580352
0.39965556373580352
0.39965556373580352
0.39965556373580352
0.39965556373580352
0.39965556373580352
0.39965556373580352
0.39965556373580352
0.39965556373580352
0.39965556373580352
0.39965556373580352
0.39965556373580352
0.39965556373580352
0.39965556373580352
0.39965556373580352
0.39965556373580352
0.39965556373580352
0.39965556373580352
0.39965556373580352
0.39965556373580352
0.39965556373580352
0.39965556373580352
0.39965556373580352
0.39965556373580352
0.39965556373580352
0.39965556373580352
0.39965556373580352
0.39965556373580352
0.39965556373580352
0.39965556373580352
0.39965556373580352
0.39965556373580352
0.39965556373580352
0.39965556373580352
0.39965556373580352
0.39965556373580352
0.39965556373580352
0.39965556373580352
0.39965556373580352
0.39965556373580352
0.39965556373580352
0.39965556373580352
0.39965556373580352
0.39965556373580352
0.39965556373580352
0.39965556373580352
0.39965556373580352
0.39965556373580352
0.39965556373580352
0.39965556373580352
0.39965556373580352
0.39965556373580352
0.39965556373580352
0.39965556373580352
0.39965556373580352
0.39965556373580352
0.39965556373580352
0.39965556373580352
0.39965556373580352
0.39965556373580352
0.39965556373580352
0.39965556373580352
0.39965556373580352
0.39965556373580352
0.39965556373580352
0.39965556373580352
0.39965556373580352
0.39965556373580352
0.39965556373580352
0.39965556373580352
0.39965556373580352
0.39965556373580352
0.39965556373580352
0.39965556373580352
0.39965556373580352
0.39965556373580352
0.39965556373580352
0.39965556373580352
0.39965556373580352
0.39965556373580352
0.39965556373580352
0.39965556373580352
0.39965556373580352
0.39965556373580352
0.39965556373580352
0.39965556373580352
0.39965556373580352
0.39965556373580352
0.39965556373580352
0.39965556373580352
0.39965556373580352
0.39965556373580352
0.39965556373580352
0.39965556373580352
0.39965556373580352
0.39965556373580352
0.39965556373580352
0.39965556373580352
0.39965556373580352
0.39965556373580352
0.39965556373580352
0.39965556373580352
0.39965556373580352
0.39965556373580352
0.39965556373580352
0.39965556373580352
0.39965556373580352
0.39965556373580352
0.39965556373580352
0.39965556373580352
0.39965556373580352
0.39965556373580352
0.39965556373580352
0.39965556373580352
0.39965556373580352
0.39965556373580352
0.39965556373580352
0.39965556373580352
0.39965556373580352
0.39965556373580352
0.39965556373580352
0.39965556373580352
0.39965556373580352
0.39965556373580352
0.39965556373580352
0.39965556373580352
0.39965556373580352
0.39965556373580352
0.39965556373580352
0.39965556373580352
0.39965556373580352
0.39965556373580352
0.39965556373580352
0.39965556373580352
0.39965556373580352
0.39965556373580352
0.39965556373580352
0.39965556373580352
0.39965556373580352
0.39965556373580352
0.39965556373580352
0.39965556373580352
0.39965556373580352
0.39965556373580352
0.39965556373580352
0.39965556373580352
0.39965556373580352
0.39965556373580352
0.39965556373580352
0.39965556373580352
0.39965556373580352
0.39965556373580352
0.39965556373580352
0.39965556373580352
0.39965556373580352
0.39965556373580352
0.39965556373580352
0.39965556373580352
0.39965556373580352
0.39965556373580352
0.39965556373580352
0.39965556373580352
0.39965556373580352
0.39965556373580352
0.39965556373580352
0.39965556373580352
0.39965556373580352
0.39965556373580352
0.39965556373580352
0.39965556373580352
0.39965556373580352
0.39965556373580352
VECTORS v float
-1.9511390829701955e-05 -0.035890433446194955 0
-2.0508990590564035e-05 -0.036283808895597014 0
-2.1221562316047826e-05 -0.036587915007681202 0
-2.1857811566615327e-05 -0.036883203807012932 0
-2.2426889492632194e-05 -0.037173127421277562 0
-2.2947659949284669e-05 -0.03747208958182674 0
-2.3430670045277086e-05 -0.037791300101708836 0
-2.3889816268267684e-05 -0.03813790860739856 0
-2.4316651653534227e-05 -0.038517665122824001 0
-2.4709810449910091e-05 -0.038935684169226395 0
-2.5054713454223171e-05 -0.039397466762989754 0
-2.5342643810090596e-05 -0.039908971635412238 0
-2.5568936590650599e-05 -0.040476617750751759 0
-2.575926643834244e-05 -0.041107358659232103 0
-2.5900506165641159e-05 -0.041813203451950318 0
-2.6057512144715374e-05 -0.042612966250120621 0
-2.6168683886807869e-05 -0.043528504903176356 0
-2.6261071317701448e-05 -0.044586654064307639 0
-2.6401362005927144e-05 -0.045825209867380347 0
-2.6603139450123347e-05 -0.047288733769838179 0
-2.6803090127519726e-05 -0.049059003589531885 0
-2.7090062009471075e-05 -0.051258408630371372 0
-2.7478062367653143e-05 -0.054099855174776258 0
-2.7971943462662071e-05 -0.058008796759599385 0
-2.8707997499885674e-05 -0.064198862889256372 0
-1.1208189255659891e-05 -0.036053257658589889 0
-1.1957382786908551e-05 -0.036481892599528602 0
-1.2455140885593593e-05 -0.036813137147426636 0
-1.2881169282957543e-05 -0.037129192435103604 0
-1.3242103903195112e-05 -0.037434644480925712 0
-1.3541039453874612e-05 -0.037744369592661114 0
-1.3797610277620887e-05 -0.038072855982383247 0
-1.4028058246279656e-05 -0.038429096188204025 0
-1.421381077212154e-05 -0.038819683824131444 0
-1.4370283158958508e-05 -0.039250140806860442 0
-1.4553480409550068e-05 -0.039725834073246549 0
-1.4493130497482e-05 -0.040252865386256942 0
-1.4796319181999128e-05 -0.040837962435795232 0
-1.5058331543671192e-05 -0.041488484750654107 0
-1.525483792521145e-05 -0.042217489862394347 0
-1.535025828525622e-05 -0.043043361491055129 0
-1.5621538605522865e-05 -0.043988695472210133 0
-1.5752313686500773e-05 -0.045080273955184498 0
-1.595823646624208e-05 -0.046353923146762843 0
-1.6117674799659437e-05 -0.047859231144677286 0
-1.6265926082184795e-05 -0.049673556405831674 0
-1.6447535620553864e-05 -0.051919379908642892 0
-1.6593057345379512e-05 -0.054816286787064759 0
-1.6830641675281601e-05 -0.058807935884238431 0
-1.7121520442331969e-05 -0.065285939272621926 0
-4.2579102431223356e-06 -0.036120939479095004 0
-4.5263446941722627e-06 -0.036553946051935557 0
-4.7206206861303931e-06 -0.036889174048070315 0
-4.9070066728070592e-06 -0.037209520781542861 0
-5.1243120443034617e-06 -0.037519382034197225 0
-5.2550693898672174e-06 -0.037833435710146232 0
-5.3079877021568751e-06 -0.038166971051124203 0
-5.3875061737661243e-06 -0.038529050305147236 0
-5.4136980782570977e-06 -0.038926400455244217 0
-5.5468488751865441e-06 -0.039364788548822506 0
-5.5231844845302494e-06 -0.039850305113250918 0
-5.5968856682982537e-06 -0.040389298347013498 0
-5.7638620473562469e-06 -0.040988855001173038 0
-5.8701823922674903e-06 -0.04165620160411606 0
-6.1584157325790674e-06 -0.042405135985236868 0
-6.3404028734692682e-06 -0.043254757542956254 0
-6.4225537056415921e-06 -0.044227708129165752 0
-6.5151400752419493e-06 -0.045351470270986606 0
-6.6195510334711899e-06 -0.046662396485053402 0
-6.7199795901944355e-06 -0.04821248656278234 0
-6.8273148532190667e-06 -0.050078959781228657 0
-6.9937005907884186e-06 -0.052385498173247003 0
-7.2018847439012954e-06 -0.055351956599817467 0
-7.3837499492950283e-06 -0.059419262221584154 0
-7.6248644893810571e-06 -0.065992596258629493 0
-1.680531460921855e-06 -0.036156740438368175 0
-1.8095653119499924e-06 -0.036593100409896981 0
-1.899764134240552e-06 -0.036930963066115756 0
-1.9544634485376225e-06 -0.037254073405133883 0
-2.0584210450147956e-06 -0.037566296487134804 0
-2.0964913930208181e-06 -0.037883233001629102 0
-2.1688764048094811e-06 -0.038219742929206831 0
-2.2185717792601162e-06 -0.038584956234724258 0
-2.3612251367207929e-06 -0.038985841805748822 0
-2.4597299863450936e-06 -0.039428250544137351 0
-2.4179847237394582e-06 -0.039918388796912979 0
-2.5332902022204143e-06 -0.040462476113278294 0
-2.6914673147877646e-06 -0.041067703866705378 0
-2.504696143409789e-06 -0.041741218923448412 0
-2.4435170911302129e-06 -0.042497377265699472 0
-2.5457517799953276e-06 -0.043355411770974718 0
-2.5961552607292358e-06 -0.044337802279051555 0
-2.6310703336572043e-06 -0.045472259022292294 0
-2.7114827952453538e-06 -0.046795324238069105 0
-2.7252324305341507e-06 -0.048359247892833961 0
-2.7631254763492833e-06 -0.050241343140356998 0
-2.8438848544457091e-06 -0.052565958223079981 0
-2.8920014072336178e-06 -0.055552298315040848 0
-2.9504952980588252e-06 -0.059641999575999381 0
-3.0324215735762227e-06 -0.066244034495844595 0
-6.7361406168233255e-07 -0.036175033392688245 0
-7.237829020053257e-07 -0.036613104834131549 0
-7.4584080004036229e-07 -0.036952294658432472 0
-7.9917752176264591e-07 -0.037276460941670732 0
-8.7774347610776327e-07 -0.037590080055078655 0
-8.8023012182794639e-07 -0.037908237149702352 0
-9.1004872263024873e-07 -0.038246045949505508 0
-9.1348277030775977e-07 -0.038612758374481526 0
-8.7609670134998307e-07 -0.039015135032801095 0
-9.1794418667527967e-07 -0.039459181487948809 0
-9.2947418978823099e-07 -0.039950868144356971 0
-9.5579091920719062e-07 -0.040496651223905583 0
-1.05322352078719e-06 -0.041103526714766192 0
-9.6355309035100882e-07 -0.041779361747699681 0
-1.0374332934358819e-06 -0.042537538597168967 0
-1.0657957460460657e-06 -0.043398323869523213 0
-1.0743157126721904e-06 -0.044384385876266939 0
-1.0472745334343648e-06 -0.04552250045455479 0
-1.0623474665439334e-06 -0.046849365771411203 0
-1.0430807704544884e-06 -0.048417000658908783 0
-1.0812053021439353e-06 -0.050303856088623318 0
-1.0979127895899513e-06 -0.052633685020626923 0
-1.0786822214048514e-06 -0.055626327373814281 0
-1.1095824449323861e-06 -0.05972248430486142 0
-1.1470950977665706e-06 -0.066333054913118319 0
-1.2970958710192988e-07 -0.036183402032902622 0
-1.3828384475870235e-07 -0.036622257316716096 0
-1.2313857228529609e-07 -0.036962037169999025 0
-1.3962588279180775e-07 -0.03728675437191338 0
-1.5462013322881462e-07 -0.037600891547237801 0
-1.4835696842670963e-07 -0.037919548262732521 0
-1.4113482100213348e-07 -0.038257804304109008 0
-1.4622339937278766e-07 -0.03862502878711481 0
-1.6755764743613296e-07 -0.039027899409792691 0
-2.7659888168276593e-07 -0.039472645851297172 0
-2.9372934237634147e-07 -0.039965075181334311 0
-1.2795637445539839e-07 -0.040511754895141104 0
-1.062745735351249e-07 -0.04111928348185892 0
-1.3379642285690444e-07 -0.041795915123861216 0
-3.0398416757030212e-07 -0.042555294622804343 0
-2.9301882537371685e-07 -0.043417015362416336 0
-3.5813538298007671e-07 -0.044403595077059863 0
-4.0232768895129456e-07 -0.045542432470048258 0
-3.6427645024724862e-07 -0.046870518314234812 0
-3.8392991821645524e-07 -0.048440009322005768 0
-3.924673395158059e-07 -0.05032836179826819 0
-3.8152121621321721e-07 -0.052659994634484203 0
-4.1043411976901959e-07 -0.055654706391041753 0
-4.6226316386911552e-07 -0.059753335830031527 0
-5.0477881725130117e-07 -0.06636627073466092 0
2.5675375519870343e-08 -0.036186321861652021 0
1.8077684259265936e-08 -0.036625549391921502 0
9.4536624787298064e-09 -0.036965611043195637 0
4.5925712365240704e-08 -0.037290526869050419 0
2.6996450557618442e-08 -0.037604835290977849 0
-8.540902590766233e-09 -0.037923747649139618 0
9.4091525864295866e-09 -0.038262256290190012 0
-3.9396765932823812e-08 -0.038629702499222242 0
4.8876105164713925e-08 -0.039032780981423057 0
3.9261052872136291e-08 -0.039477542457134848 0
8.5685651887727462e-08 -0.039970306339822716 0
-1.5799099458104862e-07 -0.040517006622588683 0
-1.4756749092259484e-07 -0.04112480622983837 0
-1.2858521721653937e-07 -0.041801958785955204 0
-1.304941735461868e-07 -0.042561837711787877 0
-1.2107437580042067e-07 -0.043423978979020464 0
-1.567605224196661e-07 -0.044410900057551161 0
-1.4125801994175717e-07 -0.045549730133498362 0
-1.245229116451188e-07 -0.04687806157994296 0
-1.1554731060049044e-07 -0.048448155986393938 0
-1.6167364568249709e-07 -0.050337132328320149 0
-1.544820132292616e-07 -0.05266943533879774 0
-1.5517390756063646e-07 -0.055664956685994103 0
-1.6973350146771422e-07 -0.059765879230502909 0
-2.1164366178256178e-07 -0.066377797580587219 0
-4.9742426704215609e-08 -0.036187277483351238 0
-1.0079037466842483e-07 -0.036626389816135786 0
-5.9866149014320084e-08 -0.036966426889080153 0
-1.1023077533453885e-07 -0.03729145255645986 0
-1.2378556058990073e-07 -0.037605882827459303 0
-9.624686371106712e-08 -0.037924753902436444 0
-1.2580881988737579e-07 -0.038263343640095621 0
-2.2451470383354866e-07 -0.038630845656932013 0
-2.2379231385249387e-07 -0.039033946659781216 0
-1.6228613052085766e-07 -0.039478836205525517 0
1.2655584990486139e-07 -0.039971552173388027 0
5.1826199723267402e-08 -0.040518427836166319 0
-1.223750901191978e-07 -0.041126458467786828 0
1.6217223863693576e-08 -0.041803696137373329 0
-1.2686268873169998e-07 -0.042563420419076459 0
-1.6177693204626793e-07 -0.043425482092237816 0
-1.3850935222821073e-07 -0.044412183293358158 0
-1.2116201991580533e-07 -0.045551283867333377 0
-1.0504500780631786e-07 -0.046879774613899687 0
-1.1062769071049607e-07 -0.048449746920220686 0
-1.0073773143226292e-07 -0.050338436940131931 0
-1.4319716297813574e-07 -0.052669911495248009 0
-1.5731396687489558e-07 -0.055663604212323026 0
-1.306769951015348e-07 -0.059765335353218506 0
-1.0840883682761116e-07 -0.066378835177253404 0
-1.8263471306852643e-07 -0.036186502520894066 0
-1.8947088458206576e-07 -0.036625597261736392 0
-1.8479415435634759e-07 -0.036965581940026977 0
-1.8993710733791782e-07 -0.03729044783994357 0
-2.1318497133824494e-07 -0.037604850562911969 0
-2.6790388384347119e-07 -0.037923625101162761 0
-2.7274162540213774e-07 -0.03826215155037474 0
-2.6121125966328366e-07 -0.03862952308047151 0
-2.6985342301539919e-07 -0.039032619031988944 0
-2.2755204133480225e-07 -0.039477400357792861 0
-1.1500994687645092e-07 -0.039969891550665188 0
-1.4633105536616538e-07 -0.040516570004356378 0
-3.3634682290498724e-07 -0.041124663844424363 0
-2.2157398730558876e-07 -0.041801694005298609 0
-2.3372921847154937e-07 -0.042561377878357731 0
-3.1597766524799007e-07 -0.043423260620169199 0
-3.0043222969391473e-07 -0.044409648838126772 0
-4.3210307216984767e-07 -0.045548736087876754 0
-4.2154524632981062e-07 -0.046877003292855615 0
-4.8736940937644704e-07 -0.048446777453447283 0
-4.5044734922818706e-07 -0.050335166862718675 0
-4.8400359051360292e-07 -0.052666419310206145 0
-4.5556217328290644e-07 -0.055659656746279894 0
-4.6791039740647578e-07 -0.059760803145156943 0
-4.7253269735694789e-07 -0.066374534701080984 0
4.8983111073691583e-08 -0.036183151571472491 0
5.4445974712230732e-08 -0.036621996440046108 0
5.3850875846884472e-08 -0.036961700829477313 0
6.3356398129532781e-08 -0.037286323760131287 0
4.0992836179344399e-08 -0.037600427356969918 0
4.8858694071380078e-08 -0.037919095498439789 0
3.0803725636945626e-08 -0.038257438270931726 0
1.0319181776443358e-07 -0.038624456658568923 0
1.1645919784554278e-07 -0.039027257191430124 0
1.4141753947395959e-07 -0.039471856572774529 0
2.0971607346284156e-07 -0.039963970486679969 0
2.2971627751655951e-07 -0.040510337244334178 0
1.6455890208220492e-07 -0.041118208587836338 0
-1.9643794998907672e-07 -0.041795001957218143 0
-1.6137492849792507e-07 -0.042554283453201815 0
-1.4462126652571359e-07 -0.043415752682226527 0
-8.5884148598194769e-08 -0.044401794339071807 0
-1.2402251546877375e-07 -0.045540512150822214 0
-1.0529813727279182e-07 -0.046868356395211044 0
-8.6711993358604544e-08 -0.048437547894099299 0
-6.6767414924652318e-08 -0.050325556361930458 0
-3.799885563406054e-08 -0.052656607043755327 0
-1.9382261358980479e-08 -0.055651506671336136 0
6.5951773613297757e-08 -0.059749388557454167 0
6.7337326364580577e-08 -0.066362279178864142 0
7.3185814883912128e-07 -0.036174619180404384 0
7.885998355866675e-07 -0.036612639848781561 0
8.2424221292961242e-07 -0.036951691621245078 0
8.5728213605002738e-07 -0.037275921997527064 0
9.1801376669125978e-07 -0.037589478553405963 0
9.5357734659439971e-07 -0.037907620183019894 0
9.6673867812665208e-07 -0.038245376252717463 0
9.6925118498207428e-07 -0.038611936719986667 0
9.7744303779527659e-07 -0.039014212971598961 0
1.0007973389095227e-06 -0.039458184486807234 0
1.0773226267345205e-06 -0.039949920953171743 0
1.0779336977013789e-06 -0.040495547681366359 0
9.8780531992138911e-07 -0.041102360450341928 0
1.1669738054726662e-06 -0.041778425392544172 0
1.2798950403422882e-06 -0.042536710676358856 0
1.3213586367894504e-06 -0.043396993682867924 0
1.3418958732753151e-06 -0.044381698315709331 0
1.3502113490424804e-06 -0.045519674411859411 0
1.3425376857892103e-06 -0.046846179235232495 0
1.3120049428472496e-06 -0.048413299132928043 0
1.4089499921122997e-06 -0.050299165290788601 0
1.3700509453984577e-06 -0.05262821408803816 0
1.353570570975286e-06 -0.055625280532988541 0
1.3593681583471219e-06 -0.059719465950015045 0
1.3272729763507462e-06 -0.066329297469998064 0
1.5172658881128178e-06 -0.036155980549623205 0
1.6074684207296184e-06 -0.036592295753254296 0
1.6891957162825393e-06 -0.036930093840288961 0
1.7053850620127534e-06 -0.037253088627876782 0
1.6845455666213084e-06 -0.037565647488745822 0
1.6986954857743664e-06 -0.03788259728409446 0
1.7620350977532416e-06 -0.038218951467759339 0
1.6648981114800972e-06 -0.038584351231204933 0
1.6817980769732469e-06 -0.038985244655959587 0
1.635794927494414e-06 -0.039427838272655474 0
1.6319034003883447e-06 -0.039918042404074795 0
1.6176489473381353e-06 -0.040462071375721852 0
1.7598258668406009e-06 -0.041067088285918936 0
2.2740294811708744e-06 -0.04174043259123833 0
2.3016635118117678e-06 -0.042496982461092167 0
2.2736672526884605e-06 -0.043354860779060332 0
2.501775544924338e-06 -0.044336491537190686 0
2.439048738273187e-06 -0.045471029578410579 0
2.4879610306768975e-06 -0.046793619687386129 0
2.5743072325440315e-06 -0.048357026603818243 0
2.7027618691044453e-06 -0.050238309923850602 0
2.8445230491024771e-06 -0.052561832425017392 0
2.9700897072237579e-06 -0.055550658540028441 0
2.8669852770756507e-06 -0.059640164566807992 0
3.010955930507701e-06 -0.066241499490834896 0
3.8532364025017158e-06 -0.036120977843814427 0
4.1326747174088509e-06 -0.036553970805113578 0
4.264538814661775e-06 -0.03688914267054666 0
4.3967525444830805e-06 -0.037209511545565482 0
4.5432017879669734e-06 -0.037519441499853749 0
4.6357752106545771e-06 -0.037833584488304026 0
4.7272475366876653e-06 -0.038166944840370497 0
4.8002851019750032e-06 -0.038529119339839546 0
4.9263163193075604e-06 -0.038926783167056986 0
5.0304559883776814e-06 -0.039364911671143712 0
5.0594843092216348e-06 -0.039850486930662975 0
5.4154062962999003e-06 -0.040389398935044778 0
5.3457142064354651e-06 -0.040988783467820415 0
5.4105884185034379e-06 -0.041656165041307869 0
5.2200015966683855e-06 -0.042404920409656106 0
5.3182167948478274e-06 -0.043254009104549185 0
5.4775099637567828e-06 -0.044226510698289478 0
5.6186079832935381e-06 -0.045350261286479843 0
5.7661366916530268e-06 -0.04666179644834318 0
5.9466833888974963e-06 -0.048211858599346145 0
6.1311620940800622e-06 -0.05007792852471394 0
6.3148767288239477e-06 -0.052384311571891988 0
6.5397108195115221e-06 -0.055350880147232523 0
6.8366462081145449e-06 -0.059418408423067913 0
7.1835179863998696e-06 -0.065991854638408121 0
1.1131064827379266e-05 -0.036053360870638332 0
1.1858574535284356e-05 -0.036481949815714815 0
1.2413295333223519e-05 -0.036813153627053452 0
1.2778202365960645e-05 -0.037129314402890599 0
1.3104307413295986e-05 -0.037434745169324574 0
1.341780175099205e-05 -0.037744365674656326 0
1.3735806483477373e-05 -0.038072753510327413 0
1.397110177942188e-05 -0.038429278362842392 0
1.4071796580106954e-05 -0.03881986014978582 0
1.4267798815268084e-05 -0.03925020502607731 0
1.4378582940043596e-05 -0.039725976493119097 0
1.4103286403132032e-05 -0.040253034418005151 0
1.4322100483992168e-05 -0.040838143823477058 0
1.4580824055391818e-05 -0.041488781146663607 0
1.4813514905392685e-05 -0.04221791693012595 0
1.5052415599152605e-05 -0.043044170875609626 0
1.5220149800870894e-05 -0.043989342041448866 0
1.5389080425067835e-05 -0.04508048660451125 0
1.5541513147145387e-05 -0.046353744047213361 0
1.5651764757881391e-05 -0.047860025612522179 0
1.5777846889124422e-05 -0.049674607132477948 0
1.5925567880195848e-05 -0.051920076874289477 0
1.6198642430842325e-05 -0.054816659552804667 0
1.6367091111497779e-05 -0.058808386034808612 0
1.6544201384276774e-05 -0.065286409995971406 0
1.9345328266573597e-05 -0.035890462033003327 0
2.0323236957908331e-05 -0.03628385224269675 0
2.1020066837818377e-05 -0.036587965659177005 0
2.1639384377639432e-05 -0.03688325157343874 0
2.2192701125438472e-05 -0.037173147747579752 0
2.2673231383012273e-05 -0.037472005986989021 0
2.3165574816855528e-05 -0.037791369336848499 0
2.3606963399287667e-05 -0.038138200305996829 0
2.4018734158277505e-05 -0.038517901142386915 0
2.4388384040599426e-05 -0.038935936287016831 0
2.4714641615191276e-05 -0.039397780629008762 0
2.4981118285245795e-05 -0.039909352499777201 0
2.5170840552161851e-05 -0.040477105837990669 0
2.5331904295830568e-05 -0.041107996381430416 0
2.5446352872746068e-05 -0.041813936931574244 0
2.5542031668022771e-05 -0.04261403734052726 0
2.5630198289651839e-05 -0.04352980753619963 0
2.5710719240554626e-05 -0.044587472535625831 0
2.5832067132764401e-05 -0.045824417813827963 0
2.5968579871463376e-05 -0.047289443080918404 0
2.6149165009164159e-05 -0.049059850448184915 0
2.6379586637217749e-05 -0.051259118872463261 0
2.6693643574767355e-05 -0.054100562403581728 0
2.7129761029755172e-05 -0.058009454404782473 0
2.7798705184280141e-05 -0.064198687973140378 0
-0 -0 0
-0 -0 0
-0 -0 0
-0 -0 0
-0 -0 0
-0 -0 0
1.9660495753377184e-05 0.035279925626280156 0
2.2538401287677079e-05 0.037513588444927665 0
2.5562678035693916e-05 0.042634647637268354 0
-0 -0 0
-0 -0 0
-0 -0 0
2.1041506099521558e-05 0.03663108329294272 0
2.2734334784115872e-05 0.038187770961027497 0
2.5033380068345664e-05 0.042822246602573527 0
-0 -0 0
-0 -0 0
-0 -0 0
1.6369192282526085e-05 0.036742942483967568 0
1.8033097068607724e-05 0.038313681311730775 0
2.0004638823399673e-05 0.042973204690951845 0
-0 -0 0
-0 -0 0
-0 -0 0
8.4659026474321593e-06 0.036870888541288144 0
9.3977047602858509e-06 0.038462716080897116 0
1.0583330833152892e-05 0.043207282414705381 0
-0 -0 0
-0 -0 0
-0 -0 0
3.318344451927305e-06 0.03692885478891933 0
3.7816958514531656e-06 0.038538717449206027 0
4.365804107728702e-06 0.043343840863495756 0
-0 -0 0
-0 -0 0
-0 -0 0
1.3870214229202452e-06 0.03696009785578995 0
1.5901234794484243e-06 0.038578369057106973 0
1.8311417414546704e-06 0.043407503394233118 0
-0 -0 0
-0 -0 0
-0 -0 0
4.7442627062897428e-07 0.036975492751280835 0
5.2198794145839975e-07 0.038597328042098276 0
6.1497092538961274e-07 0.043435005362753909 0
-0 -0 0
-0 -0 0
-0 -0 0
3.5223217829293665e-08 0.036981974208604926 0
4.4459801914644787e-08 0.038605333332527525 0
1.1213420132984853e-07 0.043446182669019576 0
-0 -0 0
-0 -0 0
-0 -0 0
2.6372027892932552e-08 0.036984155787640888 0
4.0176445609372365e-08 0.03860805997427718 0
7.7629957736540415e-08 0.043449952030281319 0
-0 -0 0
-0 -0 0
-0 -0 0
1.574315506537658e-07 0.036984196868308492 0
1.7357851757083564e-07 0.038608002881223166 0
2.1065980767331771e-07 0.043449685013386821 0
-0 -0 0
-0 -0 0
-0 -0 0
8.8247703551747195e-08 0.036981867084726949 0
8.3560337194850195e-08 0.038605018853899019 0
1.2766339150945745e-07 0.04344536969799262 0
-0 -0 0
-0 -0 0
-0 -0 0
-4.4505425543336536e-07 0.036975096260820621 0
-5.2765735504718507e-07 0.038596773232792765 0
-6.2446949137863049e-07 0.043433781385827167 0
-0 -0 0
-0 -0 0
-0 -0 0
-1.2952441487237576e-06 0.036959523258808316 0
-1.5085018701777234e-06 0.038577764655154154 0
-1.863436560432382e-06 0.043406423668791827 0
-0 -0 0
-0 -0 0
-0 -0 0
-3.0198818535307634e-06 0.036928402822404151 0
-3.4440939788264972e-06 0.03853827662239924 0
-4.0544211312189811e-06 0.043343356213719937 0
-0 -0 0
-0 -0 0
-0 -0 0
-8.192985594682508e-06 0.036870785628071237 0
-9.0307842669410776e-06 0.038462580313154353 0
-1.0057364973656581e-05 0.043207321567774751 0
-0 -0 0
-0 -0 0
-0 -0 0
-1.6199926810445113e-05 0.036742993979964167 0
-1.7751746026093972e-05 0.038313750983505528 0
-1.9498314672139987e-05 0.042973503927472692 0
-0 -0 0
-0 -0 0
-0 -0 0
-2.083740390574636e-05 0.036631114632555244 0
-2.2448800526872671e-05 0.038187846560076122 0
-2.4545676821876942e-05 0.042822660585510063 0
-0 -0 0
-0 -0 0
-0 -0 0
-1.9485850429353499e-05 0.035279762560669177 0
-2.2284518197673203e-05 0.037513492586252979 0
-2.50721118516136e-05 0.042635142006980806 0
-0 -0 0
-0 -0 0
-0 -0 0
-0 -0 0
-0 -0 0
-0 -0 0
-0 -0 0
-0 -0 0
-0 -0 0
-0 -0 0
-0 -0 0
-0 -0 0
-0 -0 0
-0 -0 0
-0 -0 0
-0 -0 0
-0 -0 0
-0 -0 0
-0 -0 0
-0 -0 0
-0 -0 0
-0 -0 0
-0 -0 0
-0 -0 0
-0 -0 0
-0 -0 0
-0 -0 0
-0 -0 0
-0 -0 0
-0 -0 0
-0 -0 0
-0 -0 0
-0 -0 0
-0 -0 0
-0 -0 0
-0 -0 0
-0 -0 0
-0 -0 0
-0 -0 0
-0 -0 0
-0 -0 0
-0 -0 0
-0 -0 0
-0 -0 0
-0 -0 0
-0 -0 0
-0 -0 0
-0 -0 0
-0 -0 0
-0 -0 0
-0 -0 0
-0 -0 0
-0 -0 0
-0 -0 0
-0 -0 0
-0 -0 0
-0 -0 0
-0 -0 0
-0 -0 0
-0 -0 0
-0 -0 0
-0 -0 0
-0 -0 0
-0 -0 0
-0 -0 0
-0 -0 0
-0 -0 0
-0 -0 0
-0 -0 0
-0 -0 0
-0 -0 0
-0 -0 0
-0 -0 0
-0 -0 0
-0 -0 0
-0 -0 0
-0 -0 0
-0 -0 0
-0 -0 0
-0 -0 0
-0 -0 0
-0 -0 0
-0 -0 0
-0 -0 0
-0 -0 0
-0 -0 0
-0 -0 0
-0 -0 0
-0 -0 0
-0 -0 0
-0 -0 0
-0 -0 0
-0 -0 0
-0 -0 0
-0 -0 0
-0 -0 0
-0 -0 0
-0 -0 0
-0 -0 0
-0 -0 0
-0 -0 0
-0 -0 0
-0 -0 0
-0 -0 0
-0 -0 0
-0 -0 0
-0 -0 0
-0 -0 0
-0 -0 0
-0 -0 0
-0 -0 0
-0 -0 0
-0 -0 0
-0 -0 0
-0 -0 0
-0 -0 0
-0 -0 0
-0 -0 0
-0 -0 0
-0 -0 0
-0 -0 0
-0 -0 0
-0 -0 0
-0 -0 0
-0 -0 0
-0 -0 0
-0 -0 0
-0 -0 0
-0 -0 0
-0 -0 0
-0 -0 0
-0 -0 0
-0 -0 0
-0 -0 0
-0 -0 0
-0 -0 0
-0 -0 0
-0 -0 0
-0 -0 0
-0 -0 0
-0 -0 0
-0 -0 0
-0 -0 0
-0 -0 0
-0 -0 0
-0 -0 0
-0 -0 0
-0 -0 0
-0 -0 0
-0 -0 0
-0 -0 0
-0 -0 0
-0 -0 0
-0 -0 0
-0 -0 0
-0 -0 0
-0 -0 0
-0 -0 0
-0 -0 0
-0 -0 0
-0 -0 0
-0 -0 0
-0 -0 0
-0 -0 0
-0 -0 0
-0 -0 0
-0 -0 0
-0 -0 0
-0 -0 0
-0 -0 0
-0 -0 0
-0 -0 0
-0 -0 0
-0 -0 0
-0 -0 0
-0 -0 0
-0 -0 0
-0 -0 0
-0 -0 0
-0 -0 0
-0 -0 0
-0 -0 0
-0 -0 0
-0 -0 0
-0 -0 0
-0 -0 0
-0 -0 0
-0 -0 0
-0 -0 0
-0 -0 0
-0 -0 0
-0 -0 0
-0 -0 0
-0 -0 0
-0 -0 0
