# vtk DataFile Version 3.0
SPH particles (WCSPH) - legacy PolyData
ASCII
DATASET POLYDATA
POINTS 681 float
0.04999179057030307 0.020490369221505874 0
0.049990840458650806 0.022649897741890298 0
0.049990069930560828 0.024391169316633911 0
0.049989308825308859 0.026109663710913455 0
0.049988627720731996 0.027781356615987733 0
0.049988029281194613 0.029405677306527017 0
0.049987481658656602 0.030989185472949723 0
0.049986944395047 0.032540612133570901 0
0.049986360470534549 0.034069608301866346 0
0.049985632505670223 0.035584529082131409 0
0.04998431209383089 0.03709429337992548 0
0.049982540296328037 0.03860761025145211 0
0.049981857489077394 0.040133260594558885 0
0.049982619642811144 0.041680572209162312 0
0.049984114960625728 0.043259878994215614 0
0.049985878594329507 0.044882469558970239 0
0.049987702608144467 0.046562586905242787 0
0.049989420659707143 0.048317510659235022 0
0.049991024450948274 0.050170681420779725 0
0.049992456666488667 0.052139987643442756 0
0.049993668333435055 0.054272496141112535 0
0.049994660946089932 0.056627346171920799 0
0.049995465489901213 0.059298968265911259 0
0.049996123622105981 0.06246718697692618 0
0.049996973101580494 0.066633695047664421 0
0.069995749558264583 0.019287803134722951 0
0.069995206673162072 0.021670713284229023 0
0.069994802830859473 0.023604558637580469 0
0.069994437858326319 0.025475998345739711 0
0.069994093241941779 0.027272672104710152 0
0.069993746161977552 0.029002447327827512 0
0.069993398820935138 0.030677835837785293 0
0.06999304421090452 0.032311648715371344 0
0.069992666873903708 0.033916490860093677 0
0.069992215012340292 0.035502699873023999 0
0.069991316824005931 0.037080741307850301 0
0.069989482962969585 0.03866071135046039 0
0.069988406048878002 0.040252268986153243 0
0.06998861683180338 0.041865518789273019 0
0.069989535303706579 0.043511868730940713 0
0.069990688990057046 0.045203610870543462 0
0.069991925206729352 0.04695673094549245 0
0.069993140922903055 0.048789392317308805 0
0.069994280061023595 0.050723908080460019 0
0.069995270237588295 0.052788055381979795 0
0.069996092184055808 0.055027631953233028 0
0.069996747772306495 0.057506292394196849 0
0.069997249439056025 0.060331330910183611 0
0.069997646566082206 0.063710371480247316 0
0.069998158678297923 0.068234725003785995 0
0.089998501586827845 0.019239573425582752 0
0.089998300052370611 0.02162452119773299 0
0.089998151007631255 0.023562070654072089 0
0.089998006450750206 0.025439495805971019 0
0.089997857413468357 0.027243604367920331 0
0.089997698823881186 0.028981769763910113 0
0.089997532583223391 0.030666455965116877 0
0.089997360111126953 0.032310256685459983 0
0.089997165921279584 0.0339253022935979 0
0.089996948721052572 0.035522512682414915 0
0.089996685529618314 0.037112195291528718 0
0.089996313561796049 0.038704617217446557 0
0.089995952084124947 0.040309325359935332 0
0.089995917126085137 0.041936543093668906 0
0.089996165680897924 0.043597644337090166 0
0.089996504646150111 0.045305233153108193 0
0.089996901052797881 0.047075174097614594 0
0.08999730565701583 0.048924889396901802 0
0.089997690380692982 0.050877434478220171 0
0.089998014818073943 0.052963479437040051 0
0.089998285322160546 0.055226470645959688 0
0.089998497945822598 0.057730746073516324 0
0.089998683176630012 0.060583672023350348 0
0.089998837640716076 0.063992749343169383 0
0.089999075821805399 0.068555550881331903 0
0.10999946547114291 0.019250024262775764 0
0.10999938811115706 0.021636168460166767 0
0.10999932408692167 0.023574775958077731 0
0.10999926289519894 0.025453369204102971 0
0.10999919714098222 0.027258761642257372 0
0.10999914606697028 0.028998340760129502 0
0.10999908714397012 0.03068459140952607 0
0.10999901062486668 0.032330094476750587 0
0.10999892576945841 0.033946860155835479 0
0.10999883297929343 0.035545940057115588 0
0.10999873730475132 0.037137623117010916 0
0.10999861534418902 0.038732334233336066 0
0.10999852081554816 0.040339445547880305 0
0.10999850903869357 0.041969294787821916 0
0.10999855638766966 0.043633286707167443 0
0.10999866188319639 0.045344316356668697 0
0.10999879217742518 0.047117670387534248 0
0.10999893573412316 0.048970869590094925 0
0.10999907783702595 0.05092725913416022 0
0.10999919260055048 0.053017541921628546 0
0.1099992811914588 0.055285264933726645 0
0.10999935532179551 0.057794844494602149 0
0.10999942135532628 0.060653654405917704 0
0.109999482943947 0.064069326420098008 0
0.10999958666126732 0.068641019706178516 0
0.12999979037337281 0.019256976895266679 0
0.12999976029380431 0.02164384033510772 0
0.12999974000356307 0.02358298991243836 0
0.12999972140435734 0.025462077747447007 0
0.12999971164606153 0.027267966672663048 0
0.12999968498493475 0.029008004672701031 0
0.12999966081776376 0.030694688406669227 0
0.12999962984399188 0.032340644517022711 0
0.12999959974933653 0.033957868590600113 0
0.12999956005441776 0.035557418904329424 0
0.12999950681726161 0.03714964170221767 0
0.12999944060003907 0.038744631188645608 0
0.12999943103448203 0.040352092694615233 0
0.12999943035382527 0.041982280986464046 0
0.12999941298712572 0.043646672045986899 0
0.12999946103949989 0.045358730335853747 0
0.12999951615426267 0.047134095416692161 0
0.12999957332823051 0.048988705700481083 0
0.1299996215362737 0.050946166589985631 0
0.12999965645884184 0.053036871668921168 0
0.12999968924181365 0.055305775034984281 0
0.12999971723369941 0.05781669586236577 0
0.12999973969723044 0.060677004388007577 0
0.12999976472836877 0.064094346998405521 0
0.1299998087774408 0.068668433201013193 0
0.14999991188616299 0.019260011944848925 0
0.14999990230882876 0.021647251197528503 0
0.14999989472738184 0.023586749017521367 0
0.14999988706440667 0.025466005567232539 0
0.14999987745864901 0.027272068680860753 0
0.14999986926197295 0.029012353234660931 0
0.14999986711068694 0.030699195229925841 0
0.14999986064163279 0.032345351992520775 0
0.14999984700330801 0.03396279509942389 0
0.14999982489172467 0.03556255549850651 0
0.14999979867406177 0.037155129352964146 0
0.1499997801691324 0.038750405340013026 0
0.14999975733218954 0.040358220317682048 0
0.14999974138942959 0.041989069416554364 0
0.14999974470040645 0.043654020890995279 0
0.1499997671445214 0.045366264430569972 0
0.1499997968706536 0.047140776543769941 0
0.14999983157213456 0.048994983227725823 0
0.14999982734704595 0.050952645511850754 0
0.149999826112827 0.053044315932110869 0
0.14999983750591117 0.055313609989625638 0
0.14999985512781019 0.057825001835408889 0
0.14999986792093867 0.06068594365266014 0
0.14999987687162264 0.064103983968415768 0
0.14999989622176943 0.068678462062326806 0
0.16999995520126918 0.019260528614383765 0
0.16999994922528347 0.021648172674425495 0
0.16999994422496417 0.023588147569877767 0
0.16999993832743396 0.025467340782267485 0
0.16999993148255441 0.0272734415886321 0
0.16999992375645084 0.029013829173671131 0
0.16999991258666 0.030700751816940736 0
0.16999990655382036 0.03234694618607873 0
0.16999989589544276 0.033964348320000178 0
0.16999988257054954 0.035563921355480352 0
0.16999986033310752 0.03715666923527066 0
0.16999983671135718 0.038751871267832153 0
0.16999981998620409 0.040359429937971952 0
0.16999978904909921 0.041990855411526563 0
0.16999980056260636 0.043656033202665728 0
0.1699998511367215 0.045368701585946913 0
0.16999987248083454 0.047143395511670141 0
0.1699998738471071 0.048997007433488456 0
0.16999985057463798 0.050954705091863735 0
0.16999986896260161 0.053046655106618761 0
0.16999989221432174 0.055316085704513941 0
0.16999991060974409 0.057827701712255937 0
0.16999991234618939 0.060689049207576923 0
0.16999991845669349 0.064108510917320116 0
0.16999993383224499 0.068681827275784493 0
0.18999996696987762 0.019261134048257779 0
0.18999996349519177 0.021648294471032385 0
0.18999996319181175 0.023587860809110035 0
0.18999995954914015 0.025467413020790041 0
0.18999995463593453 0.027273866600471767 0
0.18999994429972547 0.029014120701267285 0
0.18999994120192409 0.030701029617515082 0
0.18999993268274057 0.032347290512906635 0
0.18999992011757824 0.033964632124608533 0
0.18999991411792935 0.035564133961904582 0
0.18999990906683614 0.037157220449939521 0
0.18999990972724373 0.038752640223184615 0
0.18999992513569472 0.040360498933114601 0
0.18999992123975296 0.041991804951879388 0
0.18999993531239115 0.043656969123307979 0
0.18999993327970383 0.045369226393846586 0
0.18999991772846339 0.047143449444804454 0
0.18999989701077927 0.048997581618900277 0
0.18999986925366619 0.05095527084884497 0
0.18999992384076356 0.053047129261278109 0
0.18999993200767171 0.055316265873307825 0
0.18999994662702474 0.057827106594192726 0
0.18999995365614344 0.0606868179551278 0
0.18999996173517839 0.06410724873462513 0
0.18999997197291632 0.068681850937542921 0
0.20999999322269119 0.019261044093464481 0
0.20999999213997159 0.021648236378674836 0
0.20999998970174724 0.023587574881759069 0
0.20999998668868486 0.025466727479995083 0
0.20999998342483656 0.027273141634372326 0
0.20999997428970776 0.02901339447777497 0
0.2099999741398568 0.030700385940374331 0
0.20999997288707709 0.032346830032134101 0
0.20999997260041894 0.033964308004289498 0
0.20999996478162553 0.035563901624689441 0
0.20999995599315774 0.037156218664200075 0
0.20999995140333033 0.038751550807788339 0
0.20999996554099595 0.040360154735661298 0
0.20999994791958174 0.041991379602769857 0
0.20999994748970147 0.043656419600694496 0
0.20999996529350734 0.045368510891105371 0
0.20999996539814297 0.047142558496223806 0
0.20999997099656492 0.048996819100751751 0
0.20999999676167302 0.050954475298430335 0
0.20999999404468864 0.053046284357529366 0
0.20999998875728024 0.055315353270367192 0
0.20999998067829423 0.057826088829456071 0
0.20999998614215235 0.060685565613788489 0
0.20999999226588212 0.064105721508964889 0
0.20999999936595148 0.068680614588103525 0
0.23000004915575489 0.019259726968038675 0
0.23000005390049486 0.021646803253016291 0
0.2300000619030888 0.023586077617687783 0
0.23000006213068849 0.025465162143030889 0
0.23000005824681466 0.027271129019417997 0
0.23000006335779616 0.029011611831344031 0
0.23000007518364005 0.030698938241694243 0
0.23000008206861269 0.03234490444712404 0
0.23000008771828515 0.033962197499303091 0
0.23000008907760255 0.035561721491633315 0
0.23000009064520682 0.037153702772997572 0
0.23000010211171149 0.03874927503688233 0
0.23000016289046155 0.040357981340659183 0
0.23000012334665113 0.041988917751301917 0
0.23000010076486557 0.043653809186197511 0
0.23000012925965102 0.045365730801240824 0
0.23000013312255654 0.047139592411749587 0
0.23000013670213129 0.048993955662401716 0
0.23000017177513438 0.050951566900117901 0
0.23000012592196048 0.053043134994012912 0
0.23000010734827389 0.055312163291372243 0
0.23000008543591172 0.057823248433336069 0
0.23000007594316491 0.060684629089849215 0
0.23000006939593379 0.064102370712427054 0
0.23000005882495056 0.068676994226158763 0
0.25000015266139758 0.019256567427046067 0
0.25000017251227097 0.021643296129640228 0
0.2500001919380499 0.023582426298309742 0
0.25000021003850048 0.025461407482255762 0
0.25000022289141061 0.027267163723624737 0
0.25000023642092817 0.029007415938890432 0
0.25000026022682792 0.030694118505003448 0
0.25000028041570549 0.032340145980238211 0
0.25000030039345644 0.033957363906552018 0
0.25000033029659291 0.035556874317357504 0
0.25000037735920205 0.037149077683892563 0
0.25000046034647427 0.038744158501818886 0
0.25000048910272171 0.04035185993531671 0
0.25000053446939635 0.041982482473852237 0
0.25000051961656572 0.043647013274355988 0
0.25000047199420283 0.045358351653980743 0
0.25000043619989742 0.047131650933168699 0
0.25000038609136827 0.048986298341408462 0
0.2500003470928005 0.05094370484735633 0
0.25000031032392311 0.053034152014653051 0
0.2500002782385965 0.055302294558963773 0
0.2500002478134295 0.057812905773987719 0
0.25000022062005756 0.060677675727556751 0
0.25000019501213511 0.064093216882099721 0
0.2500001558989623 0.068666742247958185 0
0.27000045348494955 0.019249543309508017 0
0.27000052103877942 0.021635516648541984 0
0.27000057156709428 0.023573976477320183 0
0.27000062420232718 0.0254525636834022 0
0.27000067110711762 0.0272582408284009 0
0.27000072421038473 0.028998047816647252 0
0.27000077924825894 0.030683492903194273 0
0.27000083839832512 0.032329561191823189 0
0.27000091292715767 0.033946449237495201 0
0.27000100492696488 0.035545396543062713 0
0.27000111163387391 0.037137209913489462 0
0.27000121357116175 0.03873173503338883 0
0.27000136802379321 0.040338772167930158 0
0.27000147096294969 0.041968812365221923 0
0.27000142628473056 0.043632838722547571 0
0.27000128351724667 0.045343701317251725 0
0.27000114148542265 0.04711641659090756 0
0.27000101127005427 0.04896952835816646 0
0.27000088384870741 0.050925749374181796 0
0.27000077527463212 0.053015644170403518 0
0.27000068224396134 0.055282677943071935 0
0.2700005979057139 0.057791608106748674 0
0.27000052914429573 0.060652876703615563 0
0.27000046884727064 0.06406834046476638 0
0.27000037753381689 0.068639598262414475 0
0.29000143531067585 0.019239365537581515 0
0.29000163434587167 0.021624227757532578 0
0.29000178326975656 0.023561775563403841 0
0.29000192813989328 0.025439203110069131 0
0.29000207860131538 0.027243359427544869 0
0.29000223049250895 0.028981410676158451 0
0.29000239166853425 0.030665461477693234 0
0.29000257692444958 0.032310074993704002 0
0.29000279251023564 0.033925252470937271 0
0.29000303359170432 0.035522282096094378 0
0.2900033272787142 0.0371120172617289 0
0.29000371802849761 0.038704287261247451 0
0.29000409211792266 0.040308908183916442 0
0.29000413666570957 0.041936295241223276 0
0.29000389955710604 0.043597536662398469 0
0.29000352964357429 0.0453054673858014 0
0.2900031139103571 0.047075037184226967 0
0.29000269701541842 0.048924515530902428 0
0.29000231119299719 0.050877126225435491 0
0.29000197551508744 0.052963316112995373 0
0.29000169053858443 0.055226070806259103 0
0.29000145864019494 0.057730037250512997 0
0.29000127054967167 0.060583288441878318 0
0.29000111368571185 0.063992400991879167 0
0.29000088186177508 0.068555105671275818 0
0.31000432344690987 0.019287835821860846 0
0.31000486893608037 0.021670742648455386 0
0.31000527897051172 0.023604599317602528 0
0.31000565335591018 0.02547603795862061 0
0.31000600612482354 0.027272636610506648 0
0.31000636384926505 0.029002157957151536 0
0.31000672476446978 0.030677359484078865 0
0.31000709682665828 0.032312020445739505 0
0.31000750429328855 0.033916727091714539 0
0.31000800352463914 0.035502787463490532 0
0.31000895398706568 0.037080908059529266 0
0.31001079060863879 0.038660907706648637 0
0.31001181570089703 0.040252483952549302 0
0.31001156512722 0.041866071753124755 0
0.31001063213630231 0.043512679866716281 0
0.3100094752930726 0.045205026830131688 0
0.3100082237960336 0.046957963623907875 0
0.31000697646734854 0.048789591121942581 0
0.31000581452438764 0.050723418578844111 0
0.31000480022421506 0.052789166922645153 0
0.31000395491628441 0.055028762663989338 0
0.31000327905064284 0.05750672680653629 0
0.31000276032431417 0.060331757523568112 0
0.31000234092034235 0.063710755961609591 0
0.3100018129724213 0.068234981014340099 0
0.33000806766289459 0.020490642174973053 0
0.33000898191712646 0.022650186051690131 0
0.33000972700831599 0.024391421726431124 0
0.33001044899009613 0.026109812054635573 0
0.33001109438128878 0.027781215725499905 0
0.3300116497565766 0.029405068808750771 0
0.33001215206947676 0.030989081655508097 0
0.33001266027948967 0.032541362598504799 0
0.33001317290733156 0.034069990081930679 0
0.33001377229721579 0.035584815668193694 0
0.33001496562096549 0.037094655964194395 0
0.33001671896335116 0.038608063780319203 0
0.33001740036004956 0.04013383339789902 0
0.33001661955758727 0.041681388380572386 0
0.33001516103197409 0.043260898588827437 0
0.33001345499261614 0.044883959374841749 0
0.33001170074518038 0.046564283159400428 0
0.33001000774267542 0.048318292115114486 0
0.330008452377336 0.050169132693409488 0
0.3300070904937249 0.052140447332929309 0
0.33000594919383941 0.054273103914358252 0
0.33000503148570731 0.056627775722663302 0
0.33000430264395264 0.059299379911426468 0
0.33000371846419746 0.062467511529179433 0
0.33000293461858582 0.066633518047808524 0
0 0 0
0 0.020000000000000004 0
0 0.040000000000000001 0
0 0.54999999999999993 0
0 0.56000000000000005 0
0 0.58000000000000007 0
0.02 0 0
0.02 0.020000000000000004 0
0.02 0.040000000000000001 0
0.02 0.54999999999999993 0
0.02 0.56000000000000005 0
0.02 0.58000000000000007 0
0.040000000000000001 0 0
0.040000000000000001 0.020000000000000004 0
0.040000000000000001 0.040000000000000001 0
0.040000000000000001 0.54999999999999993 0
0.040000000000000001 0.56000000000000005 0
0.040000000000000001 0.58000000000000007 0
0.059999999999999998 0 0
0.059999999999999998 0.020000000000000004 0
0.059999999999999998 0.040000000000000001 0
0.059999999999999998 0.54999999999999993 0
0.059999999999999998 0.56000000000000005 0
0.059999999999999998 0.58000000000000007 0
0.080000000000000002 0 0
0.080000000000000002 0.020000000000000004 0
0.080000000000000002 0.040000000000000001 0
0.080000000000000002 0.54999999999999993 0
0.080000000000000002 0.56000000000000005 0
0.080000000000000002 0.58000000000000007 0
0.10000000000000001 0 0
0.10000000000000001 0.020000000000000004 0
0.10000000000000001 0.040000000000000001 0
0.10000000000000001 0.54999999999999993 0
0.10000000000000001 0.56000000000000005 0
0.10000000000000001 0.58000000000000007 0
0.12 0 0
0.12 0.020000000000000004 0
0.12 0.040000000000000001 0
0.12 0.54999999999999993 0
0.12 0.56000000000000005 0
0.12 0.58000000000000007 0
0.14000000000000001 0 0
0.14000000000000001 0.020000000000000004 0
0.14000000000000001 0.040000000000000001 0
0.14000000000000001 0.54999999999999993 0
0.14000000000000001 0.56000000000000005 0
0.14000000000000001 0.58000000000000007 0
0.16 0 0
0.16 0.020000000000000004 0
0.16 0.040000000000000001 0
0.16 0.54999999999999993 0
0.16 0.56000000000000005 0
0.16 0.58000000000000007 0
0.17999999999999999 0 0
0.17999999999999999 0.020000000000000004 0
0.17999999999999999 0.040000000000000001 0
0.17999999999999999 0.54999999999999993 0
0.17999999999999999 0.56000000000000005 0
0.17999999999999999 0.58000000000000007 0
0.20000000000000001 0 0
0.20000000000000001 0.020000000000000004 0
0.20000000000000001 0.040000000000000001 0
0.20000000000000001 0.54999999999999993 0
0.20000000000000001 0.56000000000000005 0
0.20000000000000001 0.58000000000000007 0
0.22 0 0
0.22 0.020000000000000004 0
0.22 0.040000000000000001 0
0.22 0.54999999999999993 0
0.22 0.56000000000000005 0
0.22 0.58000000000000007 0
0.23999999999999999 0 0
0.23999999999999999 0.020000000000000004 0
0.23999999999999999 0.040000000000000001 0
0.23999999999999999 0.54999999999999993 0
0.23999999999999999 0.56000000000000005 0
0.23999999999999999 0.58000000000000007 0
0.26000000000000001 0 0
0.26000000000000001 0.020000000000000004 0
0.26000000000000001 0.040000000000000001 0
0.26000000000000001 0.54999999999999993 0
0.26000000000000001 0.56000000000000005 0
0.26000000000000001 0.58000000000000007 0
0.28000000000000003 0 0
0.28000000000000003 0.020000000000000004 0
0.28000000000000003 0.040000000000000001 0
0.28000000000000003 0.54999999999999993 0
0.28000000000000003 0.56000000000000005 0
0.28000000000000003 0.58000000000000007 0
0.29999999999999999 0 0
0.29999999999999999 0.020000000000000004 0
0.29999999999999999 0.040000000000000001 0
0.29999999999999999 0.54999999999999993 0
0.29999999999999999 0.56000000000000005 0
0.29999999999999999 0.58000000000000007 0
0.32000000000000001 0 0
0.32000000000000001 0.020000000000000004 0
0.32000000000000001 0.040000000000000001 0
0.32000000000000001 0.54999999999999993 0
0.32000000000000001 0.56000000000000005 0
0.32000000000000001 0.58000000000000007 0
0.34000000000000002 0 0
0.34000000000000002 0.020000000000000004 0
0.34000000000000002 0.040000000000000001 0
0.34000000000000002 0.54999999999999993 0
0.34000000000000002 0.56000000000000005 0
0.34000000000000002 0.58000000000000007 0
0.35999999999999999 0 0
0.35999999999999999 0.020000000000000004 0
0.35999999999999999 0.040000000000000001 0
0.35999999999999999 0.54999999999999993 0
0.35999999999999999 0.56000000000000005 0
0.35999999999999999 0.58000000000000007 0
0.38 0 0
0.38 0.020000000000000004 0
0.38 0.040000000000000001 0
0.38 0.54999999999999993 0
0.38 0.56000000000000005 0
0.38 0.58000000000000007 0
0.40000000000000002 0 0
0.40000000000000002 0.020000000000000004 0
0.40000000000000002 0.040000000000000001 0
0.40000000000000002 0.54999999999999993 0
0.40000000000000002 0.56000000000000005 0
0.40000000000000002 0.58000000000000007 0
0.41999999999999998 0 0
0.41999999999999998 0.020000000000000004 0
0.41999999999999998 0.040000000000000001 0
0.41999999999999998 0.54999999999999993 0
0.41999999999999998 0.56000000000000005 0
0.41999999999999998 0.58000000000000007 0
0.44 0 0
0.44 0.020000000000000004 0
0.44 0.040000000000000001 0
0.44 0.54999999999999993 0
0.44 0.56000000000000005 0
0.44 0.58000000000000007 0
0.46000000000000002 0 0
0.46000000000000002 0.020000000000000004 0
0.46000000000000002 0.040000000000000001 0
0.46000000000000002 0.54999999999999993 0
0.46000000000000002 0.56000000000000005 0
0.46000000000000002 0.58000000000000007 0
0.47999999999999998 0 0
0.47999999999999998 0.020000000000000004 0
0.47999999999999998 0.040000000000000001 0
0.47999999999999998 0.54999999999999993 0
0.47999999999999998 0.56000000000000005 0
0.47999999999999998 0.58000000000000007 0
0.5 0 0
0.5 0.020000000000000004 0
0.5 0.040000000000000001 0
0.5 0.54999999999999993 0
0.5 0.56000000000000005 0
0.5 0.58000000000000007 0
0.52000000000000002 0 0
0.52000000000000002 0.020000000000000004 0
0.52000000000000002 0.040000000000000001 0
0.52000000000000002 0.54999999999999993 0
0.52000000000000002 0.56000000000000005 0
0.52000000000000002 0.58000000000000007 0
0.54000000000000004 0 0
0.54000000000000004 0.020000000000000004 0
0.54000000000000004 0.040000000000000001 0
0.54000000000000004 0.54999999999999993 0
0.54000000000000004 0.56000000000000005 0
0.54000000000000004 0.58000000000000007 0
0.56000000000000005 0 0
0.56000000000000005 0.020000000000000004 0
0.56000000000000005 0.040000000000000001 0
0.56000000000000005 0.54999999999999993 0
0.56000000000000005 0.56000000000000005 0
0.56000000000000005 0.58000000000000007 0
0.57999999999999996 0 0
0.57999999999999996 0.020000000000000004 0
0.57999999999999996 0.040000000000000001 0
0.57999999999999996 0.54999999999999993 0
0.57999999999999996 0.56000000000000005 0
0.57999999999999996 0.58000000000000007 0
0.59999999999999998 0 0
0.59999999999999998 0.020000000000000004 0
0.59999999999999998 0.040000000000000001 0
0.59999999999999998 0.54999999999999993 0
0.59999999999999998 0.56000000000000005 0
0.59999999999999998 0.58000000000000007 0
0.62 0 0
0.62 0.020000000000000004 0
0.62 0.040000000000000001 0
0.62 0.54999999999999993 0
0.62 0.56000000000000005 0
0.62 0.58000000000000007 0
0.64000000000000001 0 0
0.64000000000000001 0.020000000000000004 0
0.64000000000000001 0.040000000000000001 0
0.64000000000000001 0.54999999999999993 0
0.64000000000000001 0.56000000000000005 0
0.64000000000000001 0.58000000000000007 0
0.66000000000000003 0 0
0.66000000000000003 0.020000000000000004 0
0.66000000000000003 0.040000000000000001 0
0.66000000000000003 0.54999999999999993 0
0.66000000000000003 0.56000000000000005 0
0.66000000000000003 0.58000000000000007 0
0.68000000000000005 0 0
0.68000000000000005 0.020000000000000004 0
0.68000000000000005 0.040000000000000001 0
0.68000000000000005 0.54999999999999993 0
0.68000000000000005 0.56000000000000005 0
0.68000000000000005 0.58000000000000007 0
0.70000000000000007 0 0
0.70000000000000007 0.020000000000000004 0
0.70000000000000007 0.040000000000000001 0
0.70000000000000007 0.54999999999999993 0
0.70000000000000007 0.56000000000000005 0
0.70000000000000007 0.58000000000000007 0
0.71999999999999997 0 0
0.71999999999999997 0.020000000000000004 0
0.71999999999999997 0.040000000000000001 0
0.71999999999999997 0.54999999999999993 0
0.71999999999999997 0.56000000000000005 0
0.71999999999999997 0.58000000000000007 0
0.73999999999999999 0 0
0.73999999999999999 0.020000000000000004 0
0.73999999999999999 0.040000000000000001 0
0.73999999999999999 0.54999999999999993 0
0.73999999999999999 0.56000000000000005 0
0.73999999999999999 0.58000000000000007 0
0.76000000000000001 0 0
0.76000000000000001 0.020000000000000004 0
0.76000000000000001 0.040000000000000001 0
0.76000000000000001 0.54999999999999993 0
0.76000000000000001 0.56000000000000005 0
0.76000000000000001 0.58000000000000007 0
0.78000000000000003 0 0
0.78000000000000003 0.020000000000000004 0
0.78000000000000003 0.040000000000000001 0
0.78000000000000003 0.54999999999999993 0
0.78000000000000003 0.56000000000000005 0
0.78000000000000003 0.58000000000000007 0
0.80000000000000004 0 0
0.80000000000000004 0.020000000000000004 0
0.80000000000000004 0.040000000000000001 0
0.80000000000000004 0.54999999999999993 0
0.80000000000000004 0.56000000000000005 0
0.80000000000000004 0.58000000000000007 0
0.82000000000000006 0 0
0.82000000000000006 0.020000000000000004 0
0.82000000000000006 0.040000000000000001 0
0.82000000000000006 0.54999999999999993 0
0.82000000000000006 0.56000000000000005 0
0.82000000000000006 0.58000000000000007 0
0.83999999999999997 0 0
0.83999999999999997 0.020000000000000004 0
0.83999999999999997 0.040000000000000001 0
0.83999999999999997 0.54999999999999993 0
0.83999999999999997 0.56000000000000005 0
0.83999999999999997 0.58000000000000007 0
0.85999999999999999 0 0
0.85999999999999999 0.020000000000000004 0
0.85999999999999999 0.040000000000000001 0
0.85999999999999999 0.54999999999999993 0
0.85999999999999999 0.56000000000000005 0
0.85999999999999999 0.58000000000000007 0
0.88 0 0
0.88 0.020000000000000004 0
0.88 0.040000000000000001 0
0.88 0.54999999999999993 0
0.88 0.56000000000000005 0
0.88 0.58000000000000007 0
0.90000000000000002 0 0
0.90000000000000002 0.020000000000000004 0
0.90000000000000002 0.040000000000000001 0
0.90000000000000002 0.54999999999999993 0
0.90000000000000002 0.56000000000000005 0
0.90000000000000002 0.58000000000000007 0
0.92000000000000004 0 0
0.92000000000000004 0.020000000000000004 0
0.92000000000000004 0.040000000000000001 0
0.92000000000000004 0.54999999999999993 0
0.92000000000000004 0.56000000000000005 0
0.92000000000000004 0.58000000000000007 0
0.94000000000000006 0 0
0.94000000000000006 0.020000000000000004 0
0.94000000000000006 0.040000000000000001 0
0.94000000000000006 0.54999999999999993 0
0.94000000000000006 0.56000000000000005 0
0.94000000000000006 0.58000000000000007 0
0.95999999999999996 0 0
0.95999999999999996 0.020000000000000004 0
0.95999999999999996 0.040000000000000001 0
0.95999999999999996 0.54999999999999993 0
0.95999999999999996 0.56000000000000005 0
0.95999999999999996 0.58000000000000007 0
0.97999999999999998 0 0
0.97999999999999998 0.020000000000000004 0
0.97999999999999998 0.040000000000000001 0
0.97999999999999998 0.54999999999999993 0
0.97999999999999998 0.56000000000000005 0
0.97999999999999998 0.58000000000000007 0
1 0 0
1 0.020000000000000004 0
1 0.040000000000000001 0
1 0.54999999999999993 0
1 0.56000000000000005 0
1 0.58000000000000007 0
VERTICES 681 1362
1 0
1 1
1 2
1 3
1 4
1 5
1 6
1 7
1 8
1 9
1 10
1 11
1 12
1 13
1 14
1 15
1 16
1 17
1 18
1 19
1 20
1 21
1 22
1 23
1 24
1 25
1 26
1 27
1 28
1 29
1 30
1 31
1 32
1 33
1 34
1 35
1 36
1 37
1 38
1 39
1 40
1 41
1 42
1 43
1 44
1 45
1 46
1 47
1 48
1 49
1 50
1 51
1 52
1 53
1 54
1 55
1 56
1 57
1 58
1 59
1 60
1 61
1 62
1 63
1 64
1 65
1 66
1 67
1 68
1 69
1 70
1 71
1 72
1 73
1 74
1 75
1 76
1 77
1 78
1 79
1 80
1 81
1 82
1 83
1 84
1 85
1 86
1 87
1 88
1 89
1 90
1 91
1 92
1 93
1 94
1 95
1 96
1 97
1 98
1 99
1 100
1 101
1 102
1 103
1 104
1 105
1 106
1 107
1 108
1 109
1 110
1 111
1 112
1 113
1 114
1 115
1 116
1 117
1 118
1 119
1 120
1 121
1 122
1 123
1 124
1 125
1 126
1 127
1 128
1 129
1 130
1 131
1 132
1 133
1 134
1 135
1 136
1 137
1 138
1 139
1 140
1 141
1 142
1 143
1 144
1 145
1 146
1 147
1 148
1 149
1 150
1 151
1 152
1 153
1 154
1 155
1 156
1 157
1 158
1 159
1 160
1 161
1 162
1 163
1 164
1 165
1 166
1 167
1 168
1 169
1 170
1 171
1 172
1 173
1 174
1 175
1 176
1 177
1 178
1 179
1 180
1 181
1 182
1 183
1 184
1 185
1 186
1 187
1 188
1 189
1 190
1 191
1 192
1 193
1 194
1 195
1 196
1 197
1 198
1 199
1 200
1 201
1 202
1 203
1 204
1 205
1 206
1 207
1 208
1 209
1 210
1 211
1 212
1 213
1 214
1 215
1 216
1 217
1 218
1 219
1 220
1 221
1 222
1 223
1 224
1 225
1 226
1 227
1 228
1 229
1 230
1 231
1 232
1 233
1 234
1 235
1 236
1 237
1 238
1 239
1 240
1 241
1 242
1 243
1 244
1 245
1 246
1 247
1 248
1 249
1 250
1 251
1 252
1 253
1 254
1 255
1 256
1 257
1 258
1 259
1 260
1 261
1 262
1 263
1 264
1 265
1 266
1 267
1 268
1 269
1 270
1 271
1 272
1 273
1 274
1 275
1 276
1 277
1 278
1 279
1 280
1 281
1 282
1 283
1 284
1 285
1 286
1 287
1 288
1 289
1 290
1 291
1 292
1 293
1 294
1 295
1 296
1 297
1 298
1 299
1 300
1 301
1 302
1 303
1 304
1 305
1 306
1 307
1 308
1 309
1 310
1 311
1 312
1 313
1 314
1 315
1 316
1 317
1 318
1 319
1 320
1 321
1 322
1 323
1 324
1 325
1 326
1 327
1 328
1 329
1 330
1 331
1 332
1 333
1 334
1 335
1 336
1 337
1 338
1 339
1 340
1 341
1 342
1 343
1 344
1 345
1 346
1 347
1 348
1 349
1 350
1 351
1 352
1 353
1 354
1 355
1 356
1 357
1 358
1 359
1 360
1 361
1 362
1 363
1 364
1 365
1 366
1 367
1 368
1 369
1 370
1 371
1 372
1 373
1 374
1 375
1 376
1 377
1 378
1 379
1 380
1 381
1 382
1 383
1 384
1 385
1 386
1 387
1 388
1 389
1 390
1 391
1 392
1 393
1 394
1 395
1 396
1 397
1 398
1 399
1 400
1 401
1 402
1 403
1 404
1 405
1 406
1 407
1 408
1 409
1 410
1 411
1 412
1 413
1 414
1 415
1 416
1 417
1 418
1 419
1 420
1 421
1 422
1 423
1 424
1 425
1 426
1 427
1 428
1 429
1 430
1 431
1 432
1 433
1 434
1 435
1 436
1 437
1 438
1 439
1 440
1 441
1 442
1 443
1 444
1 445
1 446
1 447
1 448
1 449
1 450
1 451
1 452
1 453
1 454
1 455
1 456
1 457
1 458
1 459
1 460
1 461
1 462
1 463
1 464
1 465
1 466
1 467
1 468
1 469
1 470
1 471
1 472
1 473
1 474
1 475
1 476
1 477
1 478
1 479
1 480
1 481
1 482
1 483
1 484
1 485
1 486
1 487
1 488
1 489
1 490
1 491
1 492
1 493
1 494
1 495
1 496
1 497
1 498
1 499
1 500
1 501
1 502
1 503
1 504
1 505
1 506
1 507
1 508
1 509
1 510
1 511
1 512
1 513
1 514
1 515
1 516
1 517
1 518
1 519
1 520
1 521
1 522
1 523
1 524
1 525
1 526
1 527
1 528
1 529
1 530
1 531
1 532
1 533
1 534
1 535
1 536
1 537
1 538
1 539
1 540
1 541
1 542
1 543
1 544
1 545
1 546
1 547
1 548
1 549
1 550
1 551
1 552
1 553
1 554
1 555
1 556
1 557
1 558
1 559
1 560
1 561
1 562
1 563
1 564
1 565
1 566
1 567
1 568
1 569
1 570
1 571
1 572
1 573
1 574
1 575
1 576
1 577
1 578
1 579
1 580
1 581
1 582
1 583
1 584
1 585
1 586
1 587
1 588
1 589
1 590
1 591
1 592
1 593
1 594
1 595
1 596
1 597
1 598
1 599
1 600
1 601
1 602
1 603
1 604
1 605
1 606
1 607
1 608
1 609
1 610
1 611
1 612
1 613
1 614
1 615
1 616
1 617
1 618
1 619
1 620
1 621
1 622
1 623
1 624
1 625
1 626
1 627
1 628
1 629
1 630
1 631
1 632
1 633
1 634
1 635
1 636
1 637
1 638
1 639
1 640
1 641
1 642
1 643
1 644
1 645
1 646
1 647
1 648
1 649
1 650
1 651
1 652
1 653
1 654
1 655
1 656
1 657
1 658
1 659
1 660
1 661
1 662
1 663
1 664
1 665
1 666
1 667
1 668
1 669
1 670
1 671
1 672
1 673
1 674
1 675
1 676
1 677
1 678
1 679
1 680
POINT_DATA 681
SCALARS is_boundary int 1
LOOKUP_TABLE default
0
0
0
0
0
0
0
0
0
0
0
0
0
0
0
0
0
0
0
0
0
0
0
0
0
0
0
0
0
0
0
0
0
0
0
0
0
0
0
0
0
0
0
0
0
0
0
0
0
0
0
0
0
0
0
0
0
0
0
0
0
0
0
0
0
0
0
0
0
0
0
0
0
0
0
0
0
0
0
0
0
0
0
0
0
0
0
0
0
0
0
0
0
0
0
0
0
0
0
0
0
0
0
0
0
0
0
0
0
0
0
0
0
0
0
0
0
0
0
0
0
0
0
0
0
0
0
0
0
0
0
0
0
0
0
0
0
0
0
0
0
0
0
0
0
0
0
0
0
0
0
0
0
0
0
0
0
0
0
0
0
0
0
0
0
0
0
0
0
0
0
0
0
0
0
0
0
0
0
0
0
0
0
0
0
0
0
0
0
0
0
0
0
0
0
0
0
0
0
0
0
0
0
0
0
0
0
0
0
0
0
0
0
0
0
0
0
0
0
0
0
0
0
0
0
0
0
0
0
0
0
0
0
0
0
0
0
0
0
0
0
0
0
0
0
0
0
0
0
0
0
0
0
0
0
0
0
0
0
0
0
0
0
0
0
0
0
0
0
0
0
0
0
0
0
0
0
0
0
0
0
0
0
0
0
0
0
0
0
0
0
0
0
0
0
0
0
0
0
0
0
0
0
0
0
0
0
0
0
0
0
0
0
0
0
0
0
0
0
0
0
0
0
0
0
0
0
0
0
0
0
0
0
0
0
0
0
0
0
0
0
0
0
0
0
0
0
0
0
0
0
0
0
0
0
0
0
0
0
0
0
0
0
0
0
0
0
0
0
0
0
0
0
0
0
1
1
1
1
1
1
1
1
1
1
1
1
1
1
1
1
1
1
1
1
1
1
1
1
1
1
1
1
1
1
1
1
1
1
1
1
1
1
1
1
1
1
1
1
1
1
1
1
1
1
1
1
1
1
1
1
1
1
1
1
1
1
1
1
1
1
1
1
1
1
1
1
1
1
1
1
1
1
1
1
1
1
1
1
1
1
1
1
1
1
1
1
1
1
1
1
1
1
1
1
1
1
1
1
1
1
1
1
1
1
1
1
1
1
1
1
1
1
1
1
1
1
1
1
1
1
1
1
1
1
1
1
1
1
1
1
1
1
1
1
1
1
1
1
1
1
1
1
1
1
1
1
1
1
1
1
1
1
1
1
1
1
1
1
1
1
1
1
1
1
1
1
1
1
1
1
1
1
1
1
1
1
1
1
1
1
1
1
1
1
1
1
1
1
1
1
1
1
1
1
1
1
1
1
1
1
1
1
1
1
1
1
1
1
1
1
1
1
1
1
1
1
1
1
1
1
1
1
1
1
1
1
1
1
1
1
1
1
1
1
1
1
1
1
1
1
1
1
1
1
1
1
1
1
1
1
1
1
1
1
1
1
1
1
1
1
1
1
1
1
1
1
1
1
1
1
1
1
1
1
1
1
1
1
1
1
1
1
1
1
1
1
1
1
1
1
1
1
1
1
1
1
1
1
1
1
SCALARS rho float 1
LOOKUP_TABLE default
1020
1020
1020
1020
1020
1020
1020
1020
1020
1020
1020
1020
1020
1020
1020
1020
1020
1020
1020
1020
1020
1020
1020
1020
1020
1020
1020
1020
1020
1020
1020
1020
1020
1020
1020
1020
1020
1020
1020
1020
1020
1020
1020
1020
1020
1020
1020
1020
1020
1020
1020
1020
1020
1020
1020
1020
1020
1020
1020
1020
1020
1020
1020
1020
1020
1020
1020
1020
1020
1020
1020
1020
1020
1020
1020
1020
1020
1020
1020
1020
1020
1020
1020
1020
1020
1020
1020
1020
1020
1020
1020
1020
1020
1020
1020
1020
1020
1020
1020
1020
1020
1020
1020
1020
1020
1020
1020
1020
1020
1020
1020
1020
1020
1020
1020
1020
1020
1020
1020
1020
1020
1020
1020
1020
1020
1020
1020
1020
1020
1020
1020
1020
1020
1020
1020
1020
1020
1020
1020
1020
1020
1020
1020
1020
1020
1020
1020
1020
1020
1020
1020
1020
1020
1020
1020
1020
1020
1020
1020
1020
1020
1020
1020
1020
1020
1020
1020
1020
1020
1020
1020
1020
1020
1020
1020
1020
1020
1020
1020
1020
1020
1020
1020
1020
1020
1020
1020
1020
1020
1020
1020
1020
1020
1020
1020
1020
1020
1020
1020
1020
1020
1020
1020
1020
1020
1020
1020
1020
1020
1020
1020
1020
1020
1020
1020
1020
1020
1020
1020
1020
1020
1020
1020
1020
1020
1020
1020
1020
1020
1020
1020
1020
1020
1020
1020
1020
1020
1020
1020
1020
1020
1020
1020
1020
1020
1020
1020
1020
1020
1020
1020
1020
1020
1020
1020
1020
1020
1020
1020
1020
1020
1020
1020
1020
1020
1020
1020
1020
1020
1020
1020
1020
1020
1020
1020
1020
1020
1020
1020
1020
1020
1020
1020
1020
1020
1020
1020
1020
1020
1020
1020
1020
1020
1020
1020
1020
1020
1020
1020
1020
1020
1020
1020
1020
1020
1020
1020
1020
1020
1020
1020
1020
1020
1020
1020
1020
1020
1020
1020
1020
1020
1020
1020
1020
1020
1020
1020
1020
1020
1020
1020
1020
1020
1020
1020
1020
1020
1020
1020
1020
1020
1020
1020
1020
1020
1020
1020
1020
1020
1020
1020
1020
1020
1020
1020
1020
1020
1020
1020
1020
1020
1020
1020
1020
1020
1020
1020
1020
1020
1020
1020
1020
1020
1020
1020
1000
1000
1000
1000
1000
1000
1000
1000
1000
1000
1000
1000
1000
1000
1000
1000
1000
1000
1000
1000
1000
1000
1000
1000
1000
1000
1000
1000
1000
1000
1000
1000
1000
1000
1000
1000
1000
1000
1000
1000
1000
1000
1000
1000
1000
1000
1000
1000
1000
1000
1000
1000
1000
1000
1000
1000
1000
1000
1000
1000
1000
1000
1000
1000
1000
1000
1000
1000
1000
1000
1000
1000
1000
1000
1000
1000
1000
1000
1000
1000
1000
1000
1000
1000
1000
1000
1000
1000
1000
1000
1000
1000
1000
1000
1000
1000
1000
1000
1000
1000
1000
1000
1000
1000
1000
1000
1000
1000
1000
1000
1000
1000
1000
1000
1000
1000
1000
1000
1000
1000
1000
1000
1000
1000
1000
1000
1000
1000
1000
1000
1000
1000
1000
1000
1000
1000
1000
1000
1000
1000
1000
1000
1000
1000
1000
1000
1000
1000
1000
1000
1000
1000
1000
1000
1000
1000
1000
1000
1000
1000
1000
1000
1000
1000
1000
1000
1000
1000
1000
1000
1000
1000
1000
1000
1000
1000
1000
1000
1000
1000
1000
1000
1000
1000
1000
1000
1000
1000
1000
1000
1000
1000
1000
1000
1000
1000
1000
1000
1000
1000
1000
1000
1000
1000
1000
1000
1000
1000
1000
1000
1000
1000
1000
1000
1000
1000
1000
1000
1000
1000
1000
1000
1000
1000
1000
1000
1000
1000
1000
1000
1000
1000
1000
1000
1000
1000
1000
1000
1000
1000
1000
1000
1000
1000
1000
1000
1000
1000
1000
1000
1000
1000
1000
1000
1000
1000
1000
1000
1000
1000
1000
1000
1000
1000
1000
1000
1000
1000
1000
1000
1000
1000
1000
1000
1000
1000
1000
1000
1000
1000
1000
1000
1000
1000
1000
1000
1000
1000
1000
1000
1000
1000
1000
1000
1000
1000
1000
1000
1000
1000
1000
1000
1000
1000
1000
1000
SCALARS p float 1
LOOKUP_TABLE default
25004.681136676067
25004.681136676067
25004.681136676067
25004.681136676067
25004.681136676067
25004.681136676067
25004.681136676067
25004.681136676067
25004.681136676067
25004.681136676067
25004.681136676067
25004.681136676067
25004.681136676067
25004.681136676067
25004.681136676067
25004.681136676067
25004.681136676067
25004.681136676067
25004.681136676067
25004.681136676067
25004.681136676067
25004.681136676067
25004.681136676067
25004.681136676067
25004.681136676067
25004.681136676067
25004.681136676067
25004.681136676067
25004.681136676067
25004.681136676067
25004.681136676067
25004.681136676067
25004.681136676067
25004.681136676067
25004.681136676067
25004.681136676067
25004.681136676067
25004.681136676067
25004.681136676067
25004.681136676067
25004.681136676067
25004.681136676067
25004.681136676067
25004.681136676067
25004.681136676067
25004.681136676067
25004.681136676067
25004.681136676067
25004.681136676067
25004.681136676067
25004.681136676067
25004.681136676067
25004.681136676067
25004.681136676067
25004.681136676067
25004.681136676067
25004.681136676067
25004.681136676067
25004.681136676067
25004.681136676067
25004.681136676067
25004.681136676067
25004.681136676067
25004.681136676067
25004.681136676067
25004.681136676067
25004.681136676067
25004.681136676067
25004.681136676067
25004.681136676067
25004.681136676067
25004.681136676067
25004.681136676067
25004.681136676067
25004.681136676067
25004.681136676067
25004.681136676067
25004.681136676067
25004.681136676067
25004.681136676067
25004.681136676067
25004.681136676067
25004.681136676067
25004.681136676067
25004.681136676067
25004.681136676067
25004.681136676067
25004.681136676067
25004.681136676067
25004.681136676067
25004.681136676067
25004.681136676067
25004.681136676067
25004.681136676067
25004.681136676067
25004.681136676067
25004.681136676067
25004.681136676067
25004.681136676067
25004.681136676067
25004.681136676067
25004.681136676067
25004.681136676067
25004.681136676067
25004.681136676067
25004.681136676067
25004.681136676067
25004.681136676067
25004.681136676067
25004.681136676067
25004.681136676067
25004.681136676067
25004.681136676067
25004.681136676067
25004.681136676067
25004.681136676067
25004.681136676067
25004.681136676067
25004.681136676067
25004.681136676067
25004.681136676067
25004.681136676067
25004.681136676067
25004.681136676067
25004.681136676067
25004.681136676067
25004.681136676067
25004.681136676067
25004.681136676067
25004.681136676067
25004.681136676067
25004.681136676067
25004.681136676067
25004.681136676067
25004.681136676067
25004.681136676067
25004.681136676067
25004.681136676067
25004.681136676067
25004.681136676067
25004.681136676067
25004.681136676067
25004.681136676067
25004.681136676067
25004.681136676067
25004.681136676067
25004.681136676067
25004.681136676067
25004.681136676067
25004.681136676067
25004.681136676067
25004.681136676067
25004.681136676067
25004.681136676067
25004.681136676067
25004.681136676067
25004.681136676067
25004.681136676067
25004.681136676067
25004.681136676067
25004.681136676067
25004.681136676067
25004.681136676067
25004.681136676067
25004.681136676067
25004.681136676067
25004.681136676067
25004.681136676067
25004.681136676067
25004.681136676067
25004.681136676067
25004.681136676067
25004.681136676067
25004.681136676067
25004.681136676067
25004.681136676067
25004.681136676067
25004.681136676067
25004.681136676067
25004.681136676067
25004.681136676067
25004.681136676067
25004.681136676067
25004.681136676067
25004.681136676067
25004.681136676067
25004.681136676067
25004.681136676067
25004.681136676067
25004.681136676067
25004.681136676067
25004.681136676067
25004.681136676067
25004.681136676067
25004.681136676067
25004.681136676067
25004.681136676067
25004.681136676067
25004.681136676067
25004.681136676067
25004.681136676067
25004.681136676067
25004.681136676067
25004.681136676067
25004.681136676067
25004.681136676067
25004.681136676067
25004.681136676067
25004.681136676067
25004.681136676067
25004.681136676067
25004.681136676067
25004.681136676067
25004.681136676067
25004.681136676067
25004.681136676067
25004.681136676067
25004.681136676067
25004.681136676067
25004.681136676067
25004.681136676067
25004.681136676067
25004.681136676067
25004.681136676067
25004.681136676067
25004.681136676067
25004.681136676067
25004.681136676067
25004.681136676067
25004.681136676067
25004.681136676067
25004.681136676067
25004.681136676067
25004.681136676067
25004.681136676067
25004.681136676067
25004.681136676067
25004.681136676067
25004.681136676067
25004.681136676067
25004.681136676067
25004.681136676067
25004.681136676067
25004.681136676067
25004.681136676067
25004.681136676067
25004.681136676067
25004.681136676067
25004.681136676067
25004.681136676067
25004.681136676067
25004.681136676067
25004.681136676067
25004.681136676067
25004.681136676067
25004.681136676067
25004.681136676067
25004.681136676067
25004.681136676067
25004.681136676067
25004.681136676067
25004.681136676067
25004.681136676067
25004.681136676067
25004.681136676067
25004.681136676067
25004.681136676067
25004.681136676067
25004.681136676067
25004.681136676067
25004.681136676067
25004.681136676067
25004.681136676067
25004.681136676067
25004.681136676067
25004.681136676067
25004.681136676067
25004.681136676067
25004.681136676067
25004.681136676067
25004.681136676067
25004.681136676067
25004.681136676067
25004.681136676067
25004.681136676067
25004.681136676067
25004.681136676067
25004.681136676067
25004.681136676067
25004.681136676067
25004.681136676067
25004.681136676067
25004.681136676067
25004.681136676067
25004.681136676067
25004.681136676067
25004.681136676067
25004.681136676067
25004.681136676067
25004.681136676067
25004.681136676067
25004.681136676067
25004.681136676067
25004.681136676067
25004.681136676067
25004.681136676067
25004.681136676067
25004.681136676067
25004.681136676067
25004.681136676067
25004.681136676067
25004.681136676067
25004.681136676067
25004.681136676067
25004.681136676067
25004.681136676067
25004.681136676067
25004.681136676067
25004.681136676067
25004.681136676067
25004.681136676067
25004.681136676067
25004.681136676067
25004.681136676067
25004.681136676067
25004.681136676067
25004.681136676067
25004.681136676067
25004.681136676067
25004.681136676067
25004.681136676067
25004.681136676067
25004.681136676067
25004.681136676067
25004.681136676067
25004.681136676067
25004.681136676067
25004.681136676067
25004.681136676067
25004.681136676067
25004.681136676067
25004.681136676067
25004.681136676067
25004.681136676067
25004.681136676067
25004.681136676067
25004.681136676067
25004.681136676067
25004.681136676067
25004.681136676067
25004.681136676067
25004.681136676067
25004.681136676067
25004.681136676067
25004.681136676067
25004.681136676067
25004.681136676067
25004.681136676067
25004.681136676067
25004.681136676067
25004.681136676067
25004.681136676067
25004.681136676067
25004.681136676067
25004.681136676067
25004.681136676067
25004.681136676067
25004.681136676067
25004.681136676067
25004.681136676067
25004.681136676067
25004.681136676067
25004.681136676067
25004.681136676067
25004.681136676067
0
0
0
0
0
0
22461.664204581088
24977.823303419398
24991.240111721872
0
0
0
24992.738153577004
25003.810836902227
25004.205471510384
0
0
0
24999.162245269599
25004.240330763201
25004.435069302086
0
0
0
24999.599646868566
25004.249135294158
25004.435010230318
0
0
0
24999.618349664128
25004.248725531757
25004.43413845183
0
0
0
24999.608209904382
25004.24826287941
25004.433984937583
0
0
0
24999.602266755555
25004.248032382438
25004.43394809181
0
0
0
24999.599863800391
25004.247936837342
25004.433936549012
0
0
0
24999.599192859929
25004.247907737885
25004.433933840555
0
0
0
24999.599248104038
25004.247910209113
25004.433935718611
0
0
0
24999.600191198031
25004.24794823585
25004.433939324048
0
0
0
24999.6028235751
25004.248050618826
25004.433953851709
0
0
0
24999.608806149332
25004.248280750482
25004.433992285918
0
0
0
24999.618798483149
25004.248736862308
25004.434140213605
0
0
0
24999.599767522839
25004.249134787846
25004.435007500051
0
0
0
24999.162235420874
25004.240330380526
25004.435071778578
0
0
0
24992.737554179195
25003.810796117294
25004.205452359096
0
0
0
22461.03301708823
24977.819916751814
24991.237559053836
0
0
0
0
0
0
0
0
0
0
0
0
0
0
0
0
0
0
0
0
0
0
0
0
0
0
0
0
0
0
0
0
0
0
0
0
0
0
0
0
0
0
0
0
0
0
0
0
0
0
0
0
0
0
0
0
0
0
0
0
0
0
0
0
0
0
0
0
0
0
0
0
0
0
0
0
0
0
0
0
0
0
0
0
0
0
0
0
0
0
0
0
0
0
0
0
0
0
0
0
0
0
0
0
0
0
0
0
0
0
0
0
0
0
0
0
0
0
0
0
0
0
0
0
0
0
0
0
0
0
0
0
0
0
0
0
0
0
0
0
0
0
0
0
0
0
0
0
0
0
0
0
0
0
0
0
0
0
0
0
0
0
0
0
0
0
0
0
0
0
0
0
0
0
0
0
0
0
0
0
0
0
0
0
0
0
0
0
0
0
0
0
0
0
0
SCALARS m float 1
LOOKUP_TABLE default
0.39965556373580352
0.39965556373580352
0.39965556373580352
0.39965556373580352
0.39965556373580352
0.39965556373580352
0.39965556373580352
0.39965556373580352
0.39965556373580352
0.39965556373580352
0.39965556373580352
0.39965556373580352
0.39965556373580352
0.39965556373580352
0.39965556373580352
0.39965556373580352
0.39965556373580352
0.39965556373580352
0.39965556373580352
0.39965556373580352
0.39965556373580352
0.39965556373580352
0.39965556373580352
0.39965556373580352
0.39965556373580352
0.39965556373580352
0.39965556373580352
0.39965556373580352
0.39965556373580352
0.39965556373580352
0.39965556373580352
0.39965556373580352
0.39965556373580352
0.39965556373580352
0.39965556373580352
0.39965556373580352
0.39965556373580352
0.39965556373580352
0.39965556373580352
0.39965556373580352
0.39965556373580352
0.39965556373580352
0.39965556373580352
0.39965556373580352
0.39965556373580352
0.39965556373580352
0.39965556373580352
0.39965556373580352
0.39965556373580352
0.39965556373580352
0.39965556373580352
0.39965556373580352
0.39965556373580352
0.39965556373580352
0.39965556373580352
0.39965556373580352
0.39965556373580352
0.39965556373580352
0.39965556373580352
0.39965556373580352
0.39965556373580352
0.39965556373580352
0.39965556373580352
0.39965556373580352
0.39965556373580352
0.39965556373580352
0.39965556373580352
0.39965556373580352
0.39965556373580352
0.39965556373580352
0.39965556373580352
0.39965556373580352
0.39965556373580352
0.39965556373580352
0.39965556373580352
0.39965556373580352
0.39965556373580352
0.39965556373580352
0.39965556373580352
0.39965556373580352
0.39965556373580352
0.39965556373580352
0.39965556373580352
0.39965556373580352
0.39965556373580352
0.39965556373580352
0.39965556373580352
0.39965556373580352
0.39965556373580352
0.39965556373580352
0.39965556373580352
0.39965556373580352
0.39965556373580352
0.39965556373580352
0.39965556373580352
0.39965556373580352
0.39965556373580352
0.39965556373580352
0.39965556373580352
0.39965556373580352
0.39965556373580352
0.39965556373580352
0.39965556373580352
0.39965556373580352
0.39965556373580352
0.39965556373580352
0.39965556373580352
0.39965556373580352
0.39965556373580352
0.39965556373580352
0.39965556373580352
0.39965556373580352
0.39965556373580352
0.39965556373580352
0.39965556373580352
0.39965556373580352
0.39965556373580352
0.39965556373580352
0.39965556373580352
0.39965556373580352
0.39965556373580352
0.39965556373580352
0.39965556373580352
0.39965556373580352
0.39965556373580352
0.39965556373580352
0.39965556373580352
0.39965556373580352
0.39965556373580352
0.39965556373580352
0.39965556373580352
0.39965556373580352
0.39965556373580352
0.39965556373580352
0.39965556373580352
0.39965556373580352
0.39965556373580352
0.39965556373580352
0.39965556373580352
0.39965556373580352
0.39965556373580352
0.39965556373580352
0.39965556373580352
0.39965556373580352
0.39965556373580352
0.39965556373580352
0.39965556373580352
0.39965556373580352
0.39965556373580352
0.39965556373580352
0.39965556373580352
0.39965556373580352
0.39965556373580352
0.39965556373580352
0.39965556373580352
0.39965556373580352
0.39965556373580352
0.39965556373580352
0.39965556373580352
0.39965556373580352
0.39965556373580352
0.39965556373580352
0.39965556373580352
0.39965556373580352
0.39965556373580352
0.39965556373580352
0.39965556373580352
0.39965556373580352
0.39965556373580352
0.39965556373580352
0.39965556373580352
0.39965556373580352
0.39965556373580352
0.39965556373580352
0.39965556373580352
0.39965556373580352
0.39965556373580352
0.39965556373580352
0.39965556373580352
0.39965556373580352
0.39965556373580352
0.39965556373580352
0.39965556373580352
0.39965556373580352
0.39965556373580352
0.39965556373580352
0.39965556373580352
0.39965556373580352
0.39965556373580352
0.39965556373580352
0.39965556373580352
0.39965556373580352
0.39965556373580352
0.39965556373580352
0.39965556373580352
0.39965556373580352
0.39965556373580352
0.39965556373580352
0.39965556373580352
0.39965556373580352
0.39965556373580352
0.39965556373580352
0.39965556373580352
0.39965556373580352
0.39965556373580352
0.39965556373580352
0.39965556373580352
0.39965556373580352
0.39965556373580352
0.39965556373580352
0.39965556373580352
0.39965556373580352
0.39965556373580352
0.39965556373580352
0.39965556373580352
0.39965556373580352
0.39965556373580352
0.39965556373580352
0.39965556373580352
0.39965556373580352
0.39965556373580352
0.39965556373580352
0.39965556373580352
0.39965556373580352
0.39965556373580352
0.39965556373580352
0.39965556373580352
0.39965556373580352
0.39965556373580352
0.39965556373580352
0.39965556373580352
0.39965556373580352
0.39965556373580352
0.39965556373580352
0.39965556373580352
0.39965556373580352
0.39965556373580352
0.39965556373580352
0.39965556373580352
0.39965556373580352
0.39965556373580352
0.39965556373580352
0.39965556373580352
0.39965556373580352
0.39965556373580352
0.39965556373580352
0.39965556373580352
0.39965556373580352
0.39965556373580352
0.39965556373580352
0.39965556373580352
0.39965556373580352
0.39965556373580352
0.39965556373580352
0.39965556373580352
0.39965556373580352
0.39965556373580352
0.39965556373580352
0.39965556373580352
0.39965556373580352
0.39965556373580352
0.39965556373580352
0.39965556373580352
0.39965556373580352
0.39965556373580352
0.39965556373580352
0.39965556373580352
0.39965556373580352
0.39965556373580352
0.39965556373580352
0.39965556373580352
0.39965556373580352
0.39965556373580352
0.39965556373580352
0.39965556373580352
0.39965556373580352
0.39965556373580352
0.39965556373580352
0.39965556373580352
0.39965556373580352
0.39965556373580352
0.39965556373580352
0.39965556373580352
0.39965556373580352
0.39965556373580352
0.39965556373580352
0.39965556373580352
0.39965556373580352
0.39965556373580352
0.39965556373580352
0.39965556373580352
0.39965556373580352
0.39965556373580352
0.39965556373580352
0.39965556373580352
0.39965556373580352
0.39965556373580352
0.39965556373580352
0.39965556373580352
0.39965556373580352
0.39965556373580352
0.39965556373580352
0.39965556373580352
0.39965556373580352
0.39965556373580352
0.39965556373580352
0.39965556373580352
0.39965556373580352
0.39965556373580352
0.39965556373580352
0.39965556373580352
0.39965556373580352
0.39965556373580352
0.39965556373580352
0.39965556373580352
0.39965556373580352
0.39965556373580352
0.39965556373580352
0.39965556373580352
0.39965556373580352
0.39965556373580352
0.39965556373580352
0.39965556373580352
0.39965556373580352
0.39965556373580352
0.39965556373580352
0.39965556373580352
0.39965556373580352
0.39965556373580352
0.39965556373580352
0.39965556373580352
0.39965556373580352
0.39965556373580352
0.39965556373580352
0.39965556373580352
0.39965556373580352
0.39965556373580352
0.39965556373580352
0.39965556373580352
0.39965556373580352
0.39965556373580352
0.39965556373580352
0.39965556373580352
0.39965556373580352
0.39965556373580352
0.39965556373580352
0.39965556373580352
0.39965556373580352
0.39965556373580352
0.39965556373580352
0.39965556373580352
0.39965556373580352
0.39965556373580352
0.39965556373580352
0.39965556373580352
0.39965556373580352
0.39965556373580352
0.39965556373580352
0.39965556373580352
0.39965556373580352
0.39965556373580352
0.39965556373580352
0.39965556373580352
0.39965556373580352
0.39965556373580352
0.39965556373580352
0.39965556373580352
0.39965556373580352
0.39965556373580352
0.39965556373580352
0.39965556373580352
0.39965556373580352
0.39965556373580352
0.39965556373580352
0.39965556373580352
0.39965556373580352
0.39965556373580352
0.39965556373580352
0.39965556373580352
0.39965556373580352
0.39965556373580352
0.39965556373580352
0.39965556373580352
0.39965556373580352
0.39965556373580352
0.39965556373580352
0.39965556373580352
0.39965556373580352
0.39965556373580352
0.39965556373580352
0.39965556373580352
0.39965556373580352
0.39965556373580352
0.39965556373580352
0.39965556373580352
0.39965556373580352
0.39965556373580352
0.39965556373580352
0.39965556373580352
0.39965556373580352
0.39965556373580352
0.39965556373580352
0.39965556373580352
0.39965556373580352
0.39965556373580352
0.39965556373580352
0.39965556373580352
0.39965556373580352
0.39965556373580352
0.39965556373580352
0.39965556373580352
0.39965556373580352
0.39965556373580352
0.39965556373580352
0.39965556373580352
0.39965556373580352
0.39965556373580352
0.39965556373580352
0.39965556373580352
0.39965556373580352
0.39965556373580352
0.39965556373580352
0.39965556373580352
0.39965556373580352
0.39965556373580352
0.39965556373580352
0.39965556373580352
0.39965556373580352
0.39965556373580352
0.39965556373580352
0.39965556373580352
0.39965556373580352
0.39965556373580352
0.39965556373580352
0.39965556373580352
0.39965556373580352
0.39965556373580352
0.39965556373580352
0.39965556373580352
0.39965556373580352
0.39965556373580352
0.39965556373580352
0.39965556373580352
0.39965556373580352
0.39965556373580352
0.39965556373580352
0.39965556373580352
0.39965556373580352
0.39965556373580352
0.39965556373580352
0.39965556373580352
0.39965556373580352
0.39965556373580352
0.39965556373580352
0.39965556373580352
0.39965556373580352
0.39965556373580352
0.39965556373580352
0.39965556373580352
0.39965556373580352
0.39965556373580352
0.39965556373580352
0.39965556373580352
0.39965556373580352
0.39965556373580352
0.39965556373580352
0.39965556373580352
0.39965556373580352
0.39965556373580352
0.39965556373580352
0.39965556373580352
0.39965556373580352
0.39965556373580352
0.39965556373580352
0.39965556373580352
0.39965556373580352
0.39965556373580352
0.39965556373580352
0.39965556373580352
0.39965556373580352
0.39965556373580352
0.39965556373580352
0.39965556373580352
0.39965556373580352
0.39965556373580352
0.39965556373580352
0.39965556373580352
0.39965556373580352
0.39965556373580352
0.39965556373580352
0.39965556373580352
0.39965556373580352
0.39965556373580352
0.39965556373580352
0.39965556373580352
0.39965556373580352
0.39965556373580352
0.39965556373580352
0.39965556373580352
0.39965556373580352
0.39965556373580352
0.39965556373580352
0.39965556373580352
0.39965556373580352
0.39965556373580352
0.39965556373580352
0.39965556373580352
0.39965556373580352
0.39965556373580352
0.39965556373580352
0.39965556373580352
0.39965556373580352
0.39965556373580352
0.39965556373580352
0.39965556373580352
0.39965556373580352
0.39965556373580352
0.39965556373580352
0.39965556373580352
0.39965556373580352
0.39965556373580352
0.39965556373580352
0.39965556373580352
0.39965556373580352
0.39965556373580352
0.39965556373580352
0.39965556373580352
0.39965556373580352
0.39965556373580352
0.39965556373580352
0.39965556373580352
0.39965556373580352
0.39965556373580352
0.39965556373580352
0.39965556373580352
0.39965556373580352
0.39965556373580352
0.39965556373580352
0.39965556373580352
0.39965556373580352
0.39965556373580352
0.39965556373580352
0.39965556373580352
0.39965556373580352
0.39965556373580352
0.39965556373580352
0.39965556373580352
0.39965556373580352
0.39965556373580352
0.39965556373580352
0.39965556373580352
0.39965556373580352
0.39965556373580352
0.39965556373580352
0.39965556373580352
0.39965556373580352
0.39965556373580352
0.39965556373580352
0.39965556373580352
0.39965556373580352
0.39965556373580352
0.39965556373580352
0.39965556373580352
0.39965556373580352
0.39965556373580352
0.39965556373580352
0.39965556373580352
0.39965556373580352
0.39965556373580352
0.39965556373580352
0.39965556373580352
0.39965556373580352
0.39965556373580352
0.39965556373580352
0.39965556373580352
0.39965556373580352
0.39965556373580352
0.39965556373580352
0.39965556373580352
0.39965556373580352
0.39965556373580352
0.39965556373580352
0.39965556373580352
0.39965556373580352
0.39965556373580352
0.39965556373580352
0.39965556373580352
0.39965556373580352
0.39965556373580352
0.39965556373580352
0.39965556373580352
0.39965556373580352
0.39965556373580352
0.39965556373580352
0.39965556373580352
0.39965556373580352
0.39965556373580352
0.39965556373580352
0.39965556373580352
0.39965556373580352
0.39965556373580352
0.39965556373580352
0.39965556373580352
0.39965556373580352
0.39965556373580352
0.39965556373580352
0.39965556373580352
0.39965556373580352
0.39965556373580352
0.39965556373580352
0.39965556373580352
0.39965556373580352
0.39965556373580352
0.39965556373580352
0.39965556373580352
0.39965556373580352
0.39965556373580352
0.39965556373580352
0.39965556373580352
0.39965556373580352
0.39965556373580352
0.39965556373580352
0.39965556373580352
0.39965556373580352
0.39965556373580352
0.39965556373580352
0.39965556373580352
0.39965556373580352
0.39965556373580352
0.39965556373580352
0.39965556373580352
0.39965556373580352
0.39965556373580352
0.39965556373580352
0.39965556373580352
0.39965556373580352
0.39965556373580352
0.39965556373580352
0.39965556373580352
0.39965556373580352
0.39965556373580352
0.39965556373580352
0.39965556373580352
0.39965556373580352
0.39965556373580352
0.39965556373580352
0.39965556373580352
0.39965556373580352
0.39965556373580352
0.39965556373580352
0.39965556373580352
0.39965556373580352
0.39965556373580352
0.39965556373580352
0.39965556373580352
0.39965556373580352
0.39965556373580352
0.39965556373580352
0.39965556373580352
0.39965556373580352
0.39965556373580352
0.39965556373580352
0.39965556373580352
0.39965556373580352
0.39965556373580352
0.39965556373580352
0.39965556373580352
0.39965556373580352
0.39965556373580352
0.39965556373580352
0.39965556373580352
0.39965556373580352
0.39965556373580352
0.39965556373580352
0.39965556373580352
0.39965556373580352
0.39965556373580352
0.39965556373580352
0.39965556373580352
0.39965556373580352
0.39965556373580352
VECTORS v float
-2.1814989159875467e-05 -0.038616646064203189 0
-2.301541322143044e-05 -0.03926469622101434 0
-2.388024396136211e-05 -0.039770822676204555 0
-2.4660906282236643e-05 -0.040283401814026183 0
-2.5419775208397734e-05 -0.040814871014512366 0
-2.6116473223312253e-05 -0.041375872891083638 0
-2.6780506296041808e-05 -0.041974964568432867 0
-2.7415574819124355e-05 -0.042619882743852214 0
-2.8013348983120957e-05 -0.043318173161016361 0
-2.8561783200124424e-05 -0.044077138266952205 0
-2.9086269759113978e-05 -0.044904716135990924 0
-2.9531559877958582e-05 -0.045810187241183346 0
-2.9910519379846304e-05 -0.046811407912010709 0
-3.0265518601868574e-05 -0.047927810948606646 0
-3.0604009177640758e-05 -0.049180663797315997 0
-3.0945041012934296e-05 -0.050594507723159293 0
-3.1309996074949784e-05 -0.052200403306868239 0
-3.1711688188060021e-05 -0.054038961106602335 0
-3.2149723582278567e-05 -0.056161608807655701 0
-3.2638016770701176e-05 -0.058622798671828395 0
-3.3196873122455594e-05 -0.061528308672231982 0
-3.3838280838562194e-05 -0.065025029055028244 0
-3.4554593585613389e-05 -0.069351088408833333 0
-3.5445655273261613e-05 -0.075092366876151603 0
-3.6745392666134052e-05 -0.08419282535669842 0
-1.3024897015424078e-05 -0.038870206040676508 0
-1.3947673302822105e-05 -0.039572587735333634 0
-1.4607457579809419e-05 -0.040119358214455662 0
-1.5119816803396323e-05 -0.040653926883910833 0
-1.5591933704092416e-05 -0.041199206571857772 0
-1.5993576446664336e-05 -0.04177050574451225 0
-1.6361358126447783e-05 -0.042378530487040933 0
-1.6720803645646943e-05 -0.04303259104485737 0
-1.7094842325359442e-05 -0.04374152496439053 0
-1.737150315549783e-05 -0.044513224833119078 0
-1.7567262459920408e-05 -0.045356087122997595 0
-1.7827767810290374e-05 -0.046279855819303481 0
-1.815324242699852e-05 -0.047302627239101613 0
-1.8640312908267752e-05 -0.048444366410860036 0
-1.8916556052252789e-05 -0.049725845339083592 0
-1.9179262432409582e-05 -0.051171831998267053 0
-1.9486469182596745e-05 -0.052813099970567101 0
-1.9743332098807937e-05 -0.054688658635722677 0
-2.0056916192984285e-05 -0.056846518712016667 0
-2.0368299058932283e-05 -0.059346362234407708 0
-2.0697862167337217e-05 -0.062281888646821902 0
-2.1032774507745977e-05 -0.065786230745001409 0
-2.1344444718668982e-05 -0.070102986278026982 0
-2.1655107149016248e-05 -0.07585681480092385 0
-2.2040933577139639e-05 -0.08518824992193709 0
-5.1838649401113703e-06 -0.03895515320363116 0
-5.5884146019360846e-06 -0.039662498914139276 0
-5.8660829243032242e-06 -0.040213899357961838 0
-6.115017234313932e-06 -0.040753491136249646 0
-6.3649060445603861e-06 -0.041304347094048885 0
-6.5610479789205229e-06 -0.041882513366908201 0
-6.7695420837511831e-06 -0.042498490765098047 0
-6.9019594722008591e-06 -0.04316239377106388 0
-7.1052494556414383e-06 -0.043882443890949197 0
-7.2758229455093637e-06 -0.044667544071819651 0
-7.511801318582528e-06 -0.045526046821337651 0
-7.5849370486041663e-06 -0.046468740987270621 0
-7.7660369976111412e-06 -0.047514379055844769 0
-8.1045571930631907e-06 -0.048683777846152937 0
-8.2036148218335871e-06 -0.049997900166104482 0
-8.4451008952555899e-06 -0.05148250065131673 0
-8.574703593887904e-06 -0.053169258541727049 0
-8.9114744026786142e-06 -0.055096450611830543 0
-9.0680555353639919e-06 -0.057313469652042023 0
-9.3520157438940471e-06 -0.059883560421491192 0
-9.5447390908566184e-06 -0.062897366956921774 0
-9.872681973107436e-06 -0.066485942699659684 0
-1.0147229709714162e-05 -0.070893605492221567 0
-1.0435578303251665e-05 -0.076744917243055322 0
-1.0726617609293157e-05 -0.086191753961621334 0
-1.8565487796950765e-06 -0.039002132270184779 0
-1.9937742239773452e-06 -0.039714400609954452 0
-2.0978510668302333e-06 -0.040269814710758321 0
-2.2419794272726251e-06 -0.040813537149545796 0
-2.3301442016748562e-06 -0.041368887562870757 0
-2.4189617367392456e-06 -0.041951827026112949 0
-2.4807208730071473e-06 -0.042573108529394846 0
-2.4090143604072493e-06 -0.043242684983308931 0
-2.5298611159568514e-06 -0.043969282859690782 0
-2.6238822730607123e-06 -0.044761616924315746 0
-2.6209700663061923e-06 -0.045628310450539784 0
-2.6474858440693436e-06 -0.04658001813337978 0
-2.7806439203916636e-06 -0.047636041948465262 0
-3.0225062103818909e-06 -0.048817171430951357 0
-3.1455033560761856e-06 -0.050144550772980363 0
-3.2891699036028193e-06 -0.051645289769073038 0
-3.3479903443791731e-06 -0.05335044212799657 0
-3.4542808101671359e-06 -0.055298209609797006 0
-3.6102899585187757e-06 -0.057538280343183167 0
-3.6877213773310868e-06 -0.060134332007391884 0
-3.8553785311092746e-06 -0.063176837960805324 0
-4.0971419849074662e-06 -0.066796304712270188 0
-4.2573938759322707e-06 -0.071237448197865719 0
-4.4315076760177379e-06 -0.077125712523421541 0
-4.6025613523866563e-06 -0.086617695049411275 0
-9.1926439600602627e-07 -0.039028845944034302 0
-9.6244698733728955e-07 -0.039744028390863724 0
-9.8155880458349083e-07 -0.040301679774571296 0
-1.0219706457143754e-06 -0.040847683276000593 0
-1.023422929626915e-06 -0.041405382372804535 0
-1.0274828966367686e-06 -0.041990764101538819 0
-8.9526925034107092e-07 -0.042614633783344652 0
-1.0472007175703196e-06 -0.043286815724257084 0
-1.0280472175599318e-06 -0.044016454400254819 0
-9.4224512675190422e-07 -0.044811939824562552 0
-9.584911003032663e-07 -0.045682125630114812 0
-1.062711417516613e-06 -0.046637590477148771 0
-9.8394929536365941e-07 -0.047697852818113728 0
-1.0138478138944152e-06 -0.048883455406071495 0
-1.1092078367958518e-06 -0.050216339247115611 0
-1.2007899700142725e-06 -0.05172312300532933 0
-1.2518382589152262e-06 -0.053435737762071625 0
-1.2994647657707714e-06 -0.055391254190908013 0
-1.3591791172721066e-06 -0.057639733970328767 0
-1.4465308237412713e-06 -0.060244097081725026 0
-1.5048619976615155e-06 -0.063296530207431451 0
-1.6166367383476862e-06 -0.066926518796899148 0
-1.7321211377495393e-06 -0.071379172791090198 0
-1.8534923191253678e-06 -0.077280287271507403 0
-2.0673798881021918e-06 -0.086788068746444791 0
-2.4021226689015748e-07 -0.039042614827701487 0
-2.8763330619756177e-07 -0.039759177606702535 0
-2.8740875472473863e-07 -0.040317918702244847 0
-3.012107399324709e-07 -0.040864953469382646 0
-2.8994135925774966e-07 -0.041424250106700061 0
-3.0149813491969376e-07 -0.042010215984344193 0
-2.8389934459031325e-07 -0.042636247632668399 0
-3.7662278754179159e-07 -0.043308574599759994 0
-3.4866681907196494e-07 -0.044039528786886009 0
-4.1043052060399017e-07 -0.044836293871185123 0
-4.1945321515472743e-07 -0.045707971067833336 0
-4.7074948023352452e-07 -0.046665052622754562 0
-4.8172883190683555e-07 -0.04772708509953847 0
-4.0096950431032076e-07 -0.048915046530937992 0
-5.2564341081451093e-07 -0.050250418292038426 0
-5.911042235432069e-07 -0.051759518118341181 0
-4.9849166566089123e-07 -0.053473640220600201 0
-5.379874848962643e-07 -0.055431222576010318 0
-6.8153493553580556e-07 -0.057682651997739066 0
-6.8085872340347631e-07 -0.060291109097681997 0
-6.9432756688419801e-07 -0.063347285203824127 0
-7.5543881702377324e-07 -0.066981138974939042 0
-8.4460534927012861e-07 -0.071438292203379591 0
-8.698664966455391e-07 -0.077344168152892856 0
-9.5662398939604144e-07 -0.086856935784235603 0
2.3726448626534804e-08 -0.039047998145000894 0
6.2007686656274736e-09 -0.039765302446289473 0
3.9437541769970573e-08 -0.040324699948353471 0
1.5552977911501369e-08 -0.040872161756098091 0
2.6991565221449622e-08 -0.041431390524051016 0
-3.8297155166562943e-08 -0.042018358199440171 0
-2.3415476513481386e-08 -0.0426438301082291 0
-2.6221519853157264e-08 -0.043317766866663804 0
-1.8922307444744394e-07 -0.044049123258182679 0
-1.4934467210176436e-07 -0.044846328841426045 0
-2.0616956321682863e-07 -0.045718578849427323 0
-3.4863137441398209e-07 -0.046676260459050781 0
-2.4191076487561506e-07 -0.047738713971548816 0
-2.1258838711841375e-07 -0.048927669941610838 0
-2.0042467347129678e-07 -0.050263896350610002 0
-2.4332685934654747e-07 -0.051774044737866023 0
-2.4887509361035646e-07 -0.053489191366267431 0
-2.6472134468725141e-07 -0.055447042874119161 0
-2.9854110077475609e-07 -0.057699499302080397 0
-2.9316057674802124e-07 -0.06030930955665504 0
-2.9550496498393875e-07 -0.063366646833485293 0
-4.2205025591819491e-07 -0.067001990887222862 0
-4.0949521514337643e-07 -0.071461084849444939 0
-4.1438108226061609e-07 -0.07737118511531503 0
-3.9388476259102136e-07 -0.08688363943233289 0
-9.9393006276329548e-08 -0.03904954448986804 0
-1.2659702525989593e-07 -0.039766879947227649 0
-1.0851195571872271e-07 -0.040326281619597726 0
-1.0663860790081906e-07 -0.040874036338887337 0
-1.5661185015507245e-07 -0.041433483199869066 0
-1.2217723088636094e-07 -0.042020563536907987 0
-1.5683482859480202e-07 -0.042646153747126513 0
-2.7617412869909987e-07 -0.043320116797303167 0
-3.2425230213001288e-07 -0.044051739472369851 0
-2.9297872241841844e-07 -0.044849036109578327 0
-3.8484086750089158e-07 -0.045721636600881681 0
-3.9195958902521714e-08 -0.046679499373277353 0
-6.3611822290958772e-08 -0.047742356286305701 0
-1.5504641506034418e-07 -0.048931342835876093 0
-1.5609077750433096e-07 -0.050267804387210256 0
-1.74391043319913e-07 -0.051777865009485995 0
-1.9618088589981092e-07 -0.053492569312386946 0
-1.9751247448472866e-07 -0.055451092242443809 0
-1.8953674011294001e-07 -0.05770347268163882 0
-2.0493153948165321e-07 -0.060313320974770414 0
-1.9226448685362357e-07 -0.063370350120057942 0
-2.0436390890769101e-07 -0.067004638382264545 0
-1.8853759622367481e-07 -0.071460891835528215 0
-1.951127349609684e-07 -0.077372199819537829 0
-1.8112172552673308e-07 -0.086887127523062505 0
-1.3965699682476485e-07 -0.039048007152120444 0
-1.3206696095942075e-07 -0.039765191931737234 0
-1.5120648529317202e-07 -0.040324282005628487 0
-1.8043617047852544e-07 -0.04087172412610468 0
-1.4773511241120909e-07 -0.041431015892602722 0
-1.7919488737996148e-07 -0.042017976487900517 0
-1.594333168042878e-07 -0.042643414895566722 0
-1.779401980313765e-07 -0.043317434152079608 0
-1.684464037815396e-07 -0.044048846135805293 0
-1.7930539670366257e-07 -0.044845815816021387 0
-1.8872186523223102e-07 -0.045717822122101334 0
-1.3102593416420877e-07 -0.046675492037934939 0
-2.8782312524618155e-07 -0.047738599941156833 0
-1.7328048867437835e-07 -0.048927311870253426 0
-1.7780830377032507e-07 -0.050263397962226751 0
-2.4155771535981433e-07 -0.051773141400978467 0
-2.5686969237045017e-07 -0.053487493872703878 0
-2.7741229592940712e-07 -0.055445838326396032 0
-3.0929024856033721e-07 -0.057697810524709237 0
-2.980396132373198e-07 -0.060307089315949768 0
-2.5116132943722839e-07 -0.06336371433564103 0
-2.4763945415121109e-07 -0.066997156332627067 0
-2.4319913950179323e-07 -0.071452670086272763 0
-2.1874424613607474e-07 -0.077362824703676489 0
-1.7979803944499412e-07 -0.086877643581379574 0
3.356201625679656e-07 -0.039041923487657136 0
3.4518638802805745e-07 -0.039758363039835376 0
3.4366483563967485e-07 -0.040317032641017832 0
4.2697095281594157e-07 -0.040864017902152806 0
4.0586078996320554e-07 -0.041422681367429492 0
4.2867583321553026e-07 -0.042009189771974362 0
4.6276322496275432e-07 -0.042634326535054605 0
4.3006049028348144e-07 -0.043307609032378798 0
4.2840075911799121e-07 -0.044038413838846997 0
4.7162663495694052e-07 -0.044834960981298071 0
5.9371247216461255e-07 -0.045706066148732648 0
6.3606601329533307e-07 -0.046663250111750362 0
6.3993835386070639e-07 -0.047725668079806112 0
4.9712186536418286e-07 -0.048913603492834488 0
5.3375687338621878e-07 -0.05024880228675966 0
5.4669924397047857e-07 -0.051757442331966705 0
5.1474954459240146e-07 -0.053470710658581624 0
5.7846069184939974e-07 -0.055428176306396668 0
5.4886635973877059e-07 -0.057679137585676353 0
5.967291066175415e-07 -0.060287051905161843 0
6.1873534901618088e-07 -0.063342464100101345 0
6.1410700411708247e-07 -0.066975402306512527 0
6.4569646671375084e-07 -0.07143281010267602 0
6.753990872673795e-07 -0.077337825612547442 0
6.9139519063282518e-07 -0.086850722322908844 0
8.5193528996153936e-07 -0.039027837314024316 0
8.6982670829911182e-07 -0.039742893135177058 0
8.9861537518831675e-07 -0.040300561632995092 0
9.2698687491985492e-07 -0.040846552681179676 0
9.3495459776059714e-07 -0.041404180825478969 0
9.6497617493229046e-07 -0.041989615555201636 0
1.0070509012358688e-06 -0.042613389582600768 0
1.0100416326285324e-06 -0.043285594118591404 0
1.0785247837220718e-06 -0.044015205163529733 0
1.0253073717040488e-06 -0.044810577863266414 0
1.0223408971157529e-06 -0.045680684439415239 0
9.3570336514556317e-07 -0.046636137573962178 0
1.0859276611828883e-06 -0.047696292622437873 0
1.2415432840208986e-06 -0.048882100808107176 0
1.496603702499492e-06 -0.050215004429145005 0
1.5579826773065189e-06 -0.051720946843092884 0
1.5769961792456937e-06 -0.053431253858265623 0
1.6520737710609314e-06 -0.0553863957107084 0
1.6841505586875798e-06 -0.057634338845722589 0
1.7249076856955066e-06 -0.06023784982020846 0
1.7882124536264362e-06 -0.063288763915976529 0
1.8219509071256817e-06 -0.066917792034609291 0
1.8708796758249366e-06 -0.071377173126899812 0
1.9924050766489551e-06 -0.077275338214539968 0
2.0118000655219575e-06 -0.086782400879403643 0
1.550103526877789e-06 -0.039000677219503378 0
1.6746846910854047e-06 -0.039712876187263865 0
1.7744255904405598e-06 -0.040268225417616814 0
1.7767683808046745e-06 -0.040811980127772832 0
1.8780173723502896e-06 -0.041367408522745105 0
1.9109841506314824e-06 -0.041950447099798401 0
1.9781694186341412e-06 -0.042571448795023031 0
2.0285885261829994e-06 -0.043241080091672691 0
2.0132111139600949e-06 -0.043967870272054996 0
2.0196995850935455e-06 -0.044760126916085274 0
2.0612321884712427e-06 -0.045626855869275791 0
2.1518838289039729e-06 -0.046578700602884542 0
2.2278198312023936e-06 -0.047634663097663413 0
2.6241291156036116e-06 -0.048815839832449935 0
2.6995332206381156e-06 -0.050143788664841031 0
2.8192290990310923e-06 -0.051644281177945971 0
2.8723447111003633e-06 -0.053348405515362948 0
3.0126255790936978e-06 -0.055295683109897964 0
3.1675722513001565e-06 -0.057535318462399399 0
3.3090109225469055e-06 -0.060130578378960582 0
3.5115572390086838e-06 -0.063171819437786256 0
3.6884055040153357e-06 -0.066789830887998086 0
3.7675333267893749e-06 -0.071234464054836577 0
3.9704415333061557e-06 -0.077122531059286195 0
4.1697889088749718e-06 -0.086613735232557831 0
4.3386914649774396e-06 -0.038954216482071681 0
4.6966988332247083e-06 -0.039661521028050241 0
4.9639033706334682e-06 -0.040212929838187104 0
5.1970385588210916e-06 -0.040752565061508206 0
5.3450675283038009e-06 -0.041303429646921366 0
5.5214228789023327e-06 -0.041881509555763273 0
5.7243285055184061e-06 -0.042497408726554081 0
5.9327934206928819e-06 -0.043161391645726487 0
5.9866758345648219e-06 -0.043881691404330778 0
6.1382013655413664e-06 -0.044666779299610514 0
6.230709679401378e-06 -0.045525551084295582 0
6.4149462451665844e-06 -0.046468193647863698 0
6.5821691787999786e-06 -0.047513807025876813 0
6.6192341122086235e-06 -0.048683320622888021 0
6.8415630798654621e-06 -0.049997603866675643 0
7.0796830288573125e-06 -0.051482549169593758 0
7.3004254011248736e-06 -0.053168875614735836 0
7.5201579143663824e-06 -0.055095760176797362 0
7.780962564942878e-06 -0.05731266692158335 0
7.9979562753611802e-06 -0.059882872978695142 0
8.3129015766646374e-06 -0.062896196351129585 0
8.5974209086857834e-06 -0.06648414427073307 0
8.9243172975734521e-06 -0.070892139017782449 0
9.2657137120012357e-06 -0.076743419626198003 0
9.7426874252011021e-06 -0.086189901688267498 0
1.2573826147150559e-05 -0.038870414355878985 0
1.3489892390367345e-05 -0.03957280308127395 0
1.4108159939791853e-05 -0.040119737508019213 0
1.466026559027568e-05 -0.040653957143406506 0
1.5111392847657411e-05 -0.041199088063982946 0
1.5524568790749495e-05 -0.041770284943217439 0
1.5856522800103175e-05 -0.042378189570742748 0
1.6180551103560364e-05 -0.043032561269739089 0
1.6453040882274078e-05 -0.04374138184966004 0
1.6740860984484214e-05 -0.044513352844190154 0
1.7029438426594138e-05 -0.04535616365078516 0
1.7016107746707225e-05 -0.04628005875053267 0
1.7504222445210259e-05 -0.047302964694700189 0
1.7779228724691497e-05 -0.048445038952817064 0
1.8154676874253447e-05 -0.049726829242995541 0
1.8423158517832873e-05 -0.051173394817036227 0
1.8723372500736908e-05 -0.052814730548626045 0
1.9002013410913048e-05 -0.054689372351243735 0
1.9267003050344964e-05 -0.056846476305258256 0
1.9572443438824687e-05 -0.059348235026593747 0
1.9882005932944478e-05 -0.062283781867387415 0
2.0215569072981059e-05 -0.06578716336795136 0
2.064084538705071e-05 -0.0701035275369849 0
2.093915593279992e-05 -0.075857114034785636 0
2.1287403176682288e-05 -0.085188166839884574 0
2.1658663353743509e-05 -0.038616683144367198 0
2.2814047630870502e-05 -0.039264752364980816 0
2.3643991391703883e-05 -0.03977089897520121 0
2.4403989050926828e-05 -0.040283480550523762 0
2.5109666929845331e-05 -0.040814883975626243 0
2.5773205213409198e-05 -0.041375757739733232 0
2.6406910315922788e-05 -0.041975079187722648 0
2.7014326135867376e-05 -0.042620418156080121 0
2.7590521332698635e-05 -0.043318627405262565 0
2.8165211107948152e-05 -0.044077628680270729 0
2.8612209190803321e-05 -0.044905309951543314 0
2.9038595272861764e-05 -0.045810895769153523 0
2.9391238585784976e-05 -0.046812287280556114 0
2.9729955436315777e-05 -0.047928962414046428 0
3.0047730433153556e-05 -0.049182097025417683 0
3.0369396087105328e-05 -0.050596477296560784 0
3.0713661811251908e-05 -0.05220273025277599 0
3.1088608560951541e-05 -0.05404043144705404 0
3.1473856880831998e-05 -0.056160349906863798 0
3.1943345789012769e-05 -0.058623949773596071 0
3.2479107846531197e-05 -0.061529639249973025 0
3.3085346155018345e-05 -0.065026072135016766 0
3.378077191172345e-05 -0.069351987918099448 0
3.4616596848912411e-05 -0.075092970932109926 0
3.5893217946864918e-05 -0.084191934437631608 0
-0 -0 0
-0 -0 0
-0 -0 0
-0 -0 0
-0 -0 0
-0 -0 0
2.001870488045233e-05 0.03506388650885213 0
2.4984666006916893e-05 0.040792510427575042 0
2.9344983745850743e-05 0.047613245905356219 0
-0 -0 0
-0 -0 0
-0 -0 0
2.3393100063743185e-05 0.039602593830716265 0
2.5501511048600839e-05 0.041859748937957186 0
2.8921042990766715e-05 0.048287205345574034 0
-0 -0 0
-0 -0 0
-0 -0 0
1.839035814862231e-05 0.03977371198849694 0
2.0485948352588816e-05 0.042032632716165766 0
2.3406171774568883e-05 0.048466436567027128 0
-0 -0 0
-0 -0 0
-0 -0 0
9.8609913624123245e-06 0.039954729018458403 0
1.1073276241274093e-05 0.042222932025503306 0
1.2861011685080762e-05 0.048721173394473419 0
-0 -0 0
-0 -0 0
-0 -0 0
3.8971796808140737e-06 0.040026471170035015 0
4.5223187800387914e-06 0.042314392699613859 0
5.4604955916406231e-06 0.048881034893015068 0
-0 -0 0
-0 -0 0
-0 -0 0
1.5581125731426413e-06 0.040068090146481064 0
1.8139430651947966e-06 0.042367448582008145 0
2.2271065069070557e-06 0.048967519530122565 0
-0 -0 0
-0 -0 0
-0 -0 0
6.2914855425852069e-07 0.040090986152348858 0
7.2485516847039799e-07 0.04239607750569651 0
9.0888427005241715e-07 0.049010430843198866 0
-0 -0 0
-0 -0 0
-0 -0 0
2.0489115743576009e-07 0.040101921997791529 0
2.8731735810931135e-07 0.042409634214569926 0
4.2546395912927598e-07 0.049029866123641484 0
-0 -0 0
-0 -0 0
-0 -0 0
1.2332270875984064e-07 0.040106028868371189 0
1.8450019669413706e-07 0.04241476054064356 0
2.6820675910767291e-07 0.049037099544266799 0
-0 -0 0
-0 -0 0
-0 -0 0
1.1516262312219541e-07 0.040105947918853885 0
1.33376324626512e-07 0.042414572014304285 0
1.7852532911100115e-07 0.04903683252488443 0
-0 -0 0
-0 -0 0
-0 -0 0
-1.5380546922533967e-07 0.040101485099043287 0
-1.8343453055668254e-07 0.042408965799292313 0
-2.0286688965870095e-07 0.049028877232248858 0
-0 -0 0
-0 -0 0
-0 -0 0
-6.5098894490719432e-07 0.040090081705640372 0
-7.2219170091192066e-07 0.042395027655244978 0
-9.0233667367720874e-07 0.04900888468878957 0
-0 -0 0
-0 -0 0
-0 -0 0
-1.2845926600351874e-06 0.040066929228684253 0
-1.4647732381382136e-06 0.042366301966799538 0
-1.8823605393747486e-06 0.048966082121673513 0
-0 -0 0
-0 -0 0
-0 -0 0
-3.2358203271746893e-06 0.040025483240965117 0
-3.7890092166696012e-06 0.04231347741450342 0
-4.6560375019201839e-06 0.048880159384288663 0
-0 -0 0
-0 -0 0
-0 -0 0
-9.2380116947928328e-06 0.039954495276898996 0
-1.0424570229344094e-05 0.042222609980154362 0
-1.2102907341348072e-05 0.048721069070584294 0
-0 -0 0
-0 -0 0
-0 -0 0
-1.8075283618192217e-05 0.039773909074329518 0
-2.0101588574522934e-05 0.042032744078486811 0
-2.2870234955164035e-05 0.048466894197830665 0
-0 -0 0
-0 -0 0
-0 -0 0
-2.3191884116174797e-05 0.039602649341756148 0
-2.5184859538456766e-05 0.0418598323539821 0
-2.8424200032902051e-05 0.048287816497796489 0
-0 -0 0
-0 -0 0
-0 -0 0
-1.9888505537729767e-05 0.035062959383266264 0
-2.4713582672999726e-05 0.040792401528282236 0
-2.8849871714300808e-05 0.047613804930410723 0
-0 -0 0
-0 -0 0
-0 -0 0
-0 -0 0
-0 -0 0
-0 -0 0
-0 -0 0
-0 -0 0
-0 -0 0
-0 -0 0
-0 -0 0
-0 -0 0
-0 -0 0
-0 -0 0
-0 -0 0
-0 -0 0
-0 -0 0
-0 -0 0
-0 -0 0
-0 -0 0
-0 -0 0
-0 -0 0
-0 -0 0
-0 -0 0
-0 -0 0
-0 -0 0
-0 -0 0
-0 -0 0
-0 -0 0
-0 -0 0
-0 -0 0
-0 -0 0
-0 -0 0
-0 -0 0
-0 -0 0
-0 -0 0
-0 -0 0
-0 -0 0
-0 -0 0
-0 -0 0
-0 -0 0
-0 -0 0
-0 -0 0
-0 -0 0
-0 -0 0
-0 -0 0
-0 -0 0
-0 -0 0
-0 -0 0
-0 -0 0
-0 -0 0
-0 -0 0
-0 -0 0
-0 -0 0
-0 -0 0
-0 -0 0
-0 -0 0
-0 -0 0
-0 -0 0
-0 -0 0
-0 -0 0
-0 -0 0
-0 -0 0
-0 -0 0
-0 -0 0
-0 -0 0
-0 -0 0
-0 -0 0
-0 -0 0
-0 -0 0
-0 -0 0
-0 -0 0
-0 -0 0
-0 -0 0
-0 -0 0
-0 -0 0
-0 -0 0
-0 -0 0
-0 -0 0
-0 -0 0
-0 -0 0
-0 -0 0
-0 -0 0
-0 -0 0
-0 -0 0
-0 -0 0
-0 -0 0
-0 -0 0
-0 -0 0
-0 -0 0
-0 -0 0
-0 -0 0
-0 -0 0
-0 -0 0
-0 -0 0
-0 -0 0
-0 -0 0
-0 -0 0
-0 -0 0
-0 -0 0
-0 -0 0
-0 -0 0
-0 -0 0
-0 -0 0
-0 -0 0
-0 -0 0
-0 -0 0
-0 -0 0
-0 -0 0
-0 -0 0
-0 -0 0
-0 -0 0
-0 -0 0
-0 -0 0
-0 -0 0
-0 -0 0
-0 -0 0
-0 -0 0
-0 -0 0
-0 -0 0
-0 -0 0
-0 -0 0
-0 -0 0
-0 -0 0
-0 -0 0
-0 -0 0
-0 -0 0
-0 -0 0
-0 -0 0
-0 -0 0
-0 -0 0
-0 -0 0
-0 -0 0
-0 -0 0
-0 -0 0
-0 -0 0
-0 -0 0
-0 -0 0
-0 -0 0
-0 -0 0
-0 -0 0
-0 -0 0
-0 -0 0
-0 -0 0
-0 -0 0
-0 -0 0
-0 -0 0
-0 -0 0
-0 -0 0
-0 -0 0
-0 -0 0
-0 -0 0
-0 -0 0
-0 -0 0
-0 -0 0
-0 -0 0
-0 -0 0
-0 -0 0
-0 -0 0
-0 -0 0
-0 -0 0
-0 -0 0
-0 -0 0
-0 -0 0
-0 -0 0
-0 -0 0
-0 -0 0
-0 -0 0
-0 -0 0
-0 -0 0
-0 -0 0
-0 -0 0
-0 -0 0
-0 -0 0
-0 -0 0
-0 -0 0
-0 -0 0
-0 -0 0
-0 -0 0
-0 -0 0
-0 -0 0
-0 -0 0
-0 -0 0
-0 -0 0
-0 -0 0
-0 -0 0
-0 -0 0
-0 -0 0
-0 -0 0
-0 -0 0
-0 -0 0
-0 -0 0
-0 -0 0
-0 -0 0
-0 -0 0
