# vtk DataFile Version 3.0
SPH particles (WCSPH) - legacy PolyData
ASCII
DATASET POLYDATA
POINTS 681 float
0.049998413076612215 0.034174185707196124 0
0.049998070325223007 0.037945599920643433 0
0.049997806361762258 0.041015478130102999 0
0.0499975859083426 0.044193150092241652 0
0.049997440453204749 0.04749382602282852 0
0.049997341600597378 0.050969580187673925 0
0.049997289826252851 0.054712441851538479 0
0.049997200079369981 0.058866693075152694 0
0.049997018817439745 0.063658783350470927 0
0.049996610121474577 0.069515922004262237 0
0.049995771876490035 0.077506754332751782 0
0.049995307695064599 0.090058165892814734 0
0.049996674705935863 0.10775249051504655 0
0.049998787778151144 0.12737499945139316 0
0.049999778999108839 0.14732757466672941 0
0.049999975897788346 0.16733823886626012 0
0.049999997580607025 0.18738311294169754 0
0.049999999782295385 0.20749052919164587 0
0.049999999982288948 0.22772672036420838 0
0.049999999998716911 0.24821455572780254 0
0.049999999999919512 0.26916563219898054 0
0.049999999999995812 0.29092820842766681 0
0.049999999999999857 0.31409293748546052 0
0.050000000000000003 0.33993477783925835 0
0.050000000000000003 0.38325106105774071 0
0.069999358177847054 0.033070081401352085 0
0.069999197437533731 0.037204842932541338 0
0.069999079605743975 0.040618234804215482 0
0.069998980660883725 0.044070566072256366 0
0.069998889563576486 0.047601299448029939 0
0.069998802115926018 0.0512817440245757 0
0.069998746576698204 0.055218590973636329 0
0.069998680626093893 0.059565670401552376 0
0.069998617004750061 0.064552235552600298 0
0.069998389287962037 0.070588104885775924 0
0.069997556077032008 0.078585164517018857 0
0.069996293728730632 0.090645185080082472 0
0.069996885490554925 0.10787484487253686 0
0.069998703797952436 0.12739121898661215 0
0.069999729020424242 0.14733057163051971 0
0.069999969013472038 0.16734044890849739 0
0.069999997134114131 0.18738773990961285 0
0.069999999747750841 0.20750105079723641 0
0.06999999997960106 0.2277498371183819 0
0.069999999998519843 0.24826339332011044 0
0.069999999999906318 0.26926400563997643 0
0.069999999999994983 0.29110935630500689 0
0.06999999999999984 0.31437578936227595 0
0.070000000000000007 0.34027108422715585 0
0.070000000000000007 0.38243420924112359 0
0.089999861363111139 0.033067052811267907 0
0.089999816491356507 0.03721534000421884 0
0.089999794079787754 0.040643456879246836 0
0.089999761180533461 0.044117651166376441 0
0.089999715900722102 0.047677069148107612 0
0.089999676898886508 0.051393037166705569 0
0.089999618222204134 0.055373283819437027 0
0.089999605580556474 0.059772370937944179 0
0.089999612407677038 0.064818308943980246 0
0.089999616009639516 0.070913638868724843 0
0.089999628928452535 0.078933308551778866 0
0.089999398250611443 0.090874786267591059 0
0.089999235581711884 0.1079342489613984 0
0.089999510837654201 0.12740014708131855 0
0.089999849256536452 0.14733238366502552 0
0.089999977671409659 0.16734182944851622 0
0.089999997823402192 0.18739075136719266 0
0.089999999800118496 0.20750823619228984 0
0.089999999983337575 0.22776628106528179 0
0.089999999998762556 0.24829883499102209 0
0.08999999999992031 0.26933477839703468 0
0.089999999999995695 0.2912333926367211 0
0.089999999999999872 0.31455623119089876 0
0.090000000000000011 0.3404758105395137 0
0.090000000000000011 0.38206176874310188 0
0.1099999703746834 0.033089901999717154 0
0.1099999080902424 0.037242874845478488 0
0.10999988466631817 0.040675637585066697 0
0.10999984655249365 0.044155491358666484 0
0.10999983117106636 0.047721830917351625 0
0.10999986040189177 0.051446300222647005 0
0.10999992567566924 0.055437014155278089 0
0.10999992211520233 0.059848754743041355 0
0.10999996851481789 0.064909436778698551 0
0.11000004869551709 0.071020002068548221 0
0.10999995534754846 0.079046018867713896 0
0.11000030261537584 0.090954540113053997 0
0.10999999860719735 0.10795906063618273 0
0.10999990574700666 0.12740472235518727 0
0.10999996172504065 0.14733347887690038 0
0.10999999233213416 0.16734283553978671 0
0.10999999899111011 0.18739297464727409 0
0.10999999989286462 0.20751341574620608 0
0.10999999999018215 0.22777765089267815 0
0.10999999999922075 0.24832188031853489 0
0.10999999999994733 0.26937709600985971 0
0.1099999999999971 0.29130111881381238 0
0.10999999999999992 0.31464904881956002 0
0.11000000000000001 0.34058249898167292 0
0.11000000000000001 0.3818834649650808 0
0.12999995801628617 0.033099114442798366 0
0.12999994730040085 0.03725487688503909 0
0.12999994214959809 0.040689920217030141 0
0.12999993253155931 0.044172120720566942 0
0.12999996227836075 0.047741027313113554 0
0.12999998907966609 0.051468432478320544 0
0.13000003995766643 0.055462554038782988 0
0.13000007489076756 0.05987824438112193 0
0.1300001320597913 0.06494330329292651 0
0.13000022454944676 0.071058176108729373 0
0.13000030277796096 0.079085386233567881 0
0.13000021616729296 0.090982542400180985 0
0.13000010482970589 0.10796847971130477 0
0.13000000843861786 0.12740668886377823 0
0.12999999386821254 0.14733405602575855 0
0.12999999825950112 0.16734348715424105 0
0.12999999970206697 0.18739442365264178 0
0.1299999999609697 0.20751668681214155 0
0.12999999999587361 0.22778452216817796 0
0.12999999999963649 0.24833506657330343 0
0.12999999999997336 0.26939980238179895 0
0.12999999999999848 0.29133534495757268 0
0.13 0.31469402950643011 0
0.13 0.34063337312519565 0
0.13 0.381808161278055 0
0.15000000705199076 0.033102417166445346 0
0.15000001568160443 0.037259348917718545 0
0.15000003456435315 0.040695334887308698 0
0.15000003170643611 0.044178509377411149 0
0.15000008209450469 0.04774842975905097 0
0.15000006560186124 0.051476931314571026 0
0.15000007012034738 0.055472278475129401 0
0.15000008915093171 0.05988937893887647 0
0.15000011868470839 0.064955934042191951 0
0.15000014945513798 0.071072192047322014 0
0.15000018255695655 0.07909959030484652 0
0.1500000552858394 0.090992497034785513 0
0.15000008489775499 0.10797200655030734 0
0.15000002332653903 0.12740745030054226 0
0.15000000158252128 0.14733432813889824 0
0.14999999997290098 0.16734386435475998 0
0.14999999995555094 0.1873952598919687 0
0.14999999999114572 0.20751851418293185 0
0.1499999999988211 0.22778820764202867 0
0.14999999999987862 0.24834181773825112 0
0.14999999999999006 0.26941088103815547 0
0.14999999999999944 0.29135136553567703 0
0.15000000000000002 0.31471433554560724 0
0.15000000000000002 0.34065569408753943 0
0.15000000000000002 0.38178003605898875 0
0.17000001985262947 0.033103601509015305 0
0.17000003472009464 0.037260950124881329 0
0.17000003424270271 0.040697280433354945 0
0.17000004990610462 0.044180798491710763 0
0.17000007439065679 0.047751054778986078 0
0.1700001256977543 0.051479960959917671 0
0.17000017926066568 0.055475767135445019 0
0.17000020665986582 0.059893347173299673 0
0.17000023721105248 0.064960402723568261 0
0.17000024606894257 0.071077109528026233 0
0.17000021546750738 0.079104596040301969 0
0.1700001249054503 0.090996112694864267 0
0.17000004379305259 0.10797330526943381 0
0.1699999797157965 0.12740767526853417 0
0.17000000040829058 0.14733444611668936 0
0.17000000012833374 0.16734405196140145 0
0.17000000001288629 0.18739567124063489 0
0.17000000000039783 0.20751938798121705 0
0.1699999999999143 0.22778991255318673 0
0.16999999999998197 0.24834483093743259 0
0.16999999999999804 0.26941565145394603 0
0.17000000000000001 0.29135805697748129 0
0.17000000000000004 0.3147225832580543 0
0.17000000000000004 0.34066450918738045 0
0.17000000000000004 0.38177083552452667 0
0.18999999495476991 0.033103910994373244 0
0.18999998566839796 0.037261339462472634 0
0.19000000036699058 0.040697740797376369 0
0.18999998229552964 0.044181310963106644 0
0.19000000871261288 0.047751653844828011 0
0.19000007280187114 0.051480681115751194 0
0.1900001111599971 0.055476574367271686 0
0.19000010725778871 0.059894271823777642 0
0.19000013625229414 0.06496147825702521 0
0.19000013591004353 0.071078334460506196 0
0.18999999831064315 0.079105853563024284 0
0.19000004393355477 0.090997096049983017 0
0.1899999997936862 0.10797347743167543 0
0.18999999564588907 0.12740787144957377 0
0.18999999896550654 0.14733450775316304 0
0.18999999997076147 0.16734411067253166 0
0.1900000000160306 0.18739579266866094 0
0.19000000000259498 0.2075196411201061 0
0.19000000000027045 0.22779039686868291 0
0.19000000000002212 0.24834566930988816 0
0.19000000000000142 0.26941695165101748 0
0.19 0.29135984794864006 0
0.19 0.31472475577500691 0
0.19 0.34066679053151017 0
0.19 0.38176878931085767 0
0.21000002195642151 0.033103607264167154 0
0.21000003547927984 0.037260954146754184 0
0.21000004074761119 0.0406972758253734 0
0.210000066857981 0.044180780463905375 0
0.21000008728466096 0.047751044525144108 0
0.21000007014502112 0.051479955133415106 0
0.21000009038774536 0.05547573221916538 0
0.21000009320479021 0.059893337044417551 0
0.21000009943523928 0.064960408609938181 0
0.21000009534002698 0.071077148782472718 0
0.21000003902086714 0.079104654554456741 0
0.21000001802104717 0.090996203650646271 0
0.20999998562290309 0.10797321324171126 0
0.20999998411823828 0.12740782554594079 0
0.21000000032434427 0.14733448012843142 0
0.21000000019035242 0.1673440557121583 0
0.21000000003729963 0.18739567152626926 0
0.21000000000539468 0.20751938799903089 0
0.21000000000062766 0.22778991255414668 0
0.21000000000006055 0.24834483093747592 0
0.21000000000000482 0.26941565145394758 0
0.21000000000000027 0.29135805697748135 0
0.21000000000000002 0.3147225832580543 0
0.21000000000000002 0.34066450918738045 0
0.21000000000000002 0.38177083552452667 0
0.23000002197829575 0.033102458925526601 0
0.23000002842135125 0.037259385027926431 0
0.2300000454329669 0.040695374103213958 0
0.2300000644691986 0.044178507217802698 0
0.23000007548382412 0.047748458099501595 0
0.23000008326721455 0.051476961979490379 0
0.23000012861233257 0.055472320447206541 0
0.23000013547501558 0.059889408641968046 0
0.23000016472935797 0.064955951231185888 0
0.23000019419780146 0.071072178713074599 0
0.23000014590943177 0.079099614977174659 0
0.23000004170366564 0.090992663071996674 0
0.22999999187177889 0.1079720548084213 0
0.23000000123341766 0.12740748342431057 0
0.23000000537183857 0.14733434336963266 0
0.23000000087757572 0.16734386617830918 0
0.23000000011812879 0.18739526003955415 0
0.23000000001513585 0.20751851419167328 0
0.23000000000167606 0.22778820764233801 0
0.23000000000015691 0.24834181773824843 0
0.23000000000001228 0.26941088103815414 0
0.2300000000000007 0.29135136553567687 0
0.23000000000000004 0.31471433554560724 0
0.23000000000000004 0.34065569408753943 0
0.23000000000000004 0.3817800360589888 0
0.25000005051834451 0.033099148668455987 0
0.25000006977545508 0.037254932403740545 0
0.250000080286018 0.040689988076084434 0
0.25000009890430192 0.0441722067122624 0
0.25000012292516244 0.047741117195155378 0
0.25000012529439075 0.051468505433009369 0
0.25000012976871816 0.055462626106985741 0
0.25000016454099683 0.059878323117524161 0
0.25000017687380549 0.064943370948187126 0
0.25000019315544664 0.071058209496645305 0
0.25000016448493401 0.079085411026121225 0
0.25000006083801435 0.090982559252823725 0
0.25000001086489615 0.1079685760018851 0
0.25000005243691564 0.12740663633326516 0
0.25000001702294261 0.14733403113353408 0
0.25000000264581912 0.16734348443156663 0
0.25000000036995712 0.18739442344925533 0
0.2500000000441755 0.20751668679524229 0
0.25000000000447159 0.22778452216672007 0
0.25000000000038525 0.24833506657318796 0
0.25000000000002764 0.2693998023817909 0
0.25000000000000155 0.29133534495757218 0
0.25000000000000006 0.31469402950643011 0
0.25000000000000006 0.34063337312519565 0
0.25000000000000006 0.381808161278055 0
0.2700000364248909 0.033089941659221446 0
0.27000004941313416 0.037242915182567289 0
0.2700000572350742 0.040675687589912086 0
0.27000007714883145 0.044155546285097144 0
0.27000017320057373 0.047721955351361048 0
0.2700001948851472 0.051446419639641396 0
0.27000021102102595 0.055437124454489464 0
0.27000024590946065 0.059848890034509911 0
0.27000028395186909 0.064909556929245243 0
0.27000025770801495 0.071020106646327019 0
0.27000023542670537 0.079046084923713497 0
0.27000015744331168 0.090954493352967139 0
0.27000027471061711 0.10795892018150392 0
0.27000014097135311 0.12740459426401043 0
0.27000004441292419 0.14733343568696941 0
0.27000000812441927 0.16734283100267366 0
0.27000000104002514 0.18739297424843743 0
0.27000000010880199 0.20751341571230475 0
0.27000000000988272 0.22777765088994004 0
0.27000000000078017 0.24832188031833274 0
0.27000000000005236 0.26937709600984672 0
0.27000000000000285 0.29130111881381177 0
0.27000000000000002 0.31464904881956002 0
0.27000000000000002 0.34058249898167292 0
0.27000000000000002 0.3818834649650808 0
0.29000017798091215 0.03306713563024602 0
0.29000022987898305 0.037215414780650047 0
0.2900002830653125 0.040643540508404963 0
0.29000032184672625 0.044117745515103404 0
0.2900003642879273 0.047677117464835758 0
0.29000040212802369 0.051393098785687701 0
0.29000044646703216 0.055373452426680854 0
0.29000048302246512 0.059772577464688358 0
0.29000053799213915 0.064818525879618283 0
0.29000060525908328 0.070913836685861417 0
0.29000068101361764 0.078933514243140351 0
0.29000067905410154 0.090874943111783776 0
0.29000070715000159 0.10793429991020692 0
0.29000047773432847 0.12740005883708566 0
0.29000014675073132 0.14733234727269803 0
0.29000002205815317 0.16734182558696598 0
0.29000000215186028 0.18739075100248442 0
0.29000000019742733 0.20750823615982647 0
0.29000000001642956 0.22776628106256078 0
0.29000000000121828 0.24829883499081531 0
0.29000000000007831 0.26933477839702091 0
0.29000000000000414 0.29123339263672032 0
0.29000000000000004 0.31455623119089876 0
0.29000000000000004 0.3404758105395137 0
0.29000000000000004 0.38206176874310188 0
0.31000067872400044 0.033070174779019051 0
0.31000084588941168 0.037204948753027628 0
0.31000095860897281 0.040618334323073962 0
0.31000105739254186 0.04407067321290143 0
0.31000115499530623 0.047601398467271704 0
0.31000125445547028 0.051281831128640924 0
0.31000134775648575 0.055218787412063312 0
0.31000142068619269 0.059565933082032486 0
0.31000151645751395 0.06455250432449107 0
0.31000173761925987 0.070588332141563945 0
0.31000259375182693 0.078585291136434005 0
0.31000379946500994 0.090645209400444043 0
0.31000311482849491 0.10787491153437871 0
0.31000126075449747 0.1273912054566099 0
0.31000026387437252 0.14733055387434399 0
0.31000003039208751 0.16734044679540705 0
0.31000000281614681 0.18738773969426023 0
0.31000000024786301 0.20750105077636077 0
0.31000000002002132 0.22774983711649746 0
0.31000000000145045 0.24826339331995739 0
0.3100000000000917 0.26926400563996583 0
0.31000000000000488 0.29110935630500617 0
0.31000000000000005 0.31437578936227595 0
0.31000000000000005 0.34027108422715585 0
0.31000000000000005 0.38243420924112359 0
0.33000153300483054 0.034174301736543601 0
0.33000185855841091 0.037945717511759076 0
0.33000210852895517 0.041015595373588683 0
0.33000230714013384 0.044193254581326828 0
0.33000242979485772 0.047493911587569632 0
0.33000252523594059 0.050969644121824136 0
0.33000260883000987 0.054712493142544866 0
0.33000270401414122 0.058866738823384647 0
0.33000279508573532 0.06365878304358695 0
0.33000307856545552 0.069515829748896404 0
0.33000391289208125 0.077506506804555689 0
0.33000459077180416 0.090057955787152977 0
0.33000330286210755 0.10775242933820774 0
0.33000118688670937 0.12737498258862065 0
0.33000021624926201 0.14732756959147128 0
0.33000002365289272 0.1673382380713454 0
0.33000000237805527 0.18738311284276651 0
0.33000000021391079 0.20749052918081207 0
0.33000000001737712 0.22772672036313968 0
0.33000000000125657 0.24821455572771003 0
0.3300000000000784 0.26916563219897383 0
0.33000000000000401 0.29092820842766609 0
0.33000000000000002 0.31409293748546052 0
0.33000000000000002 0.33993477783925835 0
0.33000000000000002 0.38325106105774065 0
0 0 0
0 0.020000000000000004 0
0 0.040000000000000001 0
0 0.54999999999999993 0
0 0.56000000000000005 0
0 0.58000000000000007 0
0.02 0 0
0.02 0.020000000000000004 0
0.02 0.040000000000000001 0
0.02 0.54999999999999993 0
0.02 0.56000000000000005 0
0.02 0.58000000000000007 0
0.040000000000000001 0 0
0.040000000000000001 0.020000000000000004 0
0.040000000000000001 0.040000000000000001 0
0.040000000000000001 0.54999999999999993 0
0.040000000000000001 0.56000000000000005 0
0.040000000000000001 0.58000000000000007 0
0.059999999999999998 0 0
0.059999999999999998 0.020000000000000004 0
0.059999999999999998 0.040000000000000001 0
0.059999999999999998 0.54999999999999993 0
0.059999999999999998 0.56000000000000005 0
0.059999999999999998 0.58000000000000007 0
0.080000000000000002 0 0
0.080000000000000002 0.020000000000000004 0
0.080000000000000002 0.040000000000000001 0
0.080000000000000002 0.54999999999999993 0
0.080000000000000002 0.56000000000000005 0
0.080000000000000002 0.58000000000000007 0
0.10000000000000001 0 0
0.10000000000000001 0.020000000000000004 0
0.10000000000000001 0.040000000000000001 0
0.10000000000000001 0.54999999999999993 0
0.10000000000000001 0.56000000000000005 0
0.10000000000000001 0.58000000000000007 0
0.12 0 0
0.12 0.020000000000000004 0
0.12 0.040000000000000001 0
0.12 0.54999999999999993 0
0.12 0.56000000000000005 0
0.12 0.58000000000000007 0
0.14000000000000001 0 0
0.14000000000000001 0.020000000000000004 0
0.14000000000000001 0.040000000000000001 0
0.14000000000000001 0.54999999999999993 0
0.14000000000000001 0.56000000000000005 0
0.14000000000000001 0.58000000000000007 0
0.16 0 0
0.16 0.020000000000000004 0
0.16 0.040000000000000001 0
0.16 0.54999999999999993 0
0.16 0.56000000000000005 0
0.16 0.58000000000000007 0
0.17999999999999999 0 0
0.17999999999999999 0.020000000000000004 0
0.17999999999999999 0.040000000000000001 0
0.17999999999999999 0.54999999999999993 0
0.17999999999999999 0.56000000000000005 0
0.17999999999999999 0.58000000000000007 0
0.20000000000000001 0 0
0.20000000000000001 0.020000000000000004 0
0.20000000000000001 0.040000000000000001 0
0.20000000000000001 0.54999999999999993 0
0.20000000000000001 0.56000000000000005 0
0.20000000000000001 0.58000000000000007 0
0.22 0 0
0.22 0.020000000000000004 0
0.22 0.040000000000000001 0
0.22 0.54999999999999993 0
0.22 0.56000000000000005 0
0.22 0.58000000000000007 0
0.23999999999999999 0 0
0.23999999999999999 0.020000000000000004 0
0.23999999999999999 0.040000000000000001 0
0.23999999999999999 0.54999999999999993 0
0.23999999999999999 0.56000000000000005 0
0.23999999999999999 0.58000000000000007 0
0.26000000000000001 0 0
0.26000000000000001 0.020000000000000004 0
0.26000000000000001 0.040000000000000001 0
0.26000000000000001 0.54999999999999993 0
0.26000000000000001 0.56000000000000005 0
0.26000000000000001 0.58000000000000007 0
0.28000000000000003 0 0
0.28000000000000003 0.020000000000000004 0
0.28000000000000003 0.040000000000000001 0
0.28000000000000003 0.54999999999999993 0
0.28000000000000003 0.56000000000000005 0
0.28000000000000003 0.58000000000000007 0
0.29999999999999999 0 0
0.29999999999999999 0.020000000000000004 0
0.29999999999999999 0.040000000000000001 0
0.29999999999999999 0.54999999999999993 0
0.29999999999999999 0.56000000000000005 0
0.29999999999999999 0.58000000000000007 0
0.32000000000000001 0 0
0.32000000000000001 0.020000000000000004 0
0.32000000000000001 0.040000000000000001 0
0.32000000000000001 0.54999999999999993 0
0.32000000000000001 0.56000000000000005 0
0.32000000000000001 0.58000000000000007 0
0.34000000000000002 0 0
0.34000000000000002 0.020000000000000004 0
0.34000000000000002 0.040000000000000001 0
0.34000000000000002 0.54999999999999993 0
0.34000000000000002 0.56000000000000005 0
0.34000000000000002 0.58000000000000007 0
0.35999999999999999 0 0
0.35999999999999999 0.020000000000000004 0
0.35999999999999999 0.040000000000000001 0
0.35999999999999999 0.54999999999999993 0
0.35999999999999999 0.56000000000000005 0
0.35999999999999999 0.58000000000000007 0
0.38 0 0
0.38 0.020000000000000004 0
0.38 0.040000000000000001 0
0.38 0.54999999999999993 0
0.38 0.56000000000000005 0
0.38 0.58000000000000007 0
0.40000000000000002 0 0
0.40000000000000002 0.020000000000000004 0
0.40000000000000002 0.040000000000000001 0
0.40000000000000002 0.54999999999999993 0
0.40000000000000002 0.56000000000000005 0
0.40000000000000002 0.58000000000000007 0
0.41999999999999998 0 0
0.41999999999999998 0.020000000000000004 0
0.41999999999999998 0.040000000000000001 0
0.41999999999999998 0.54999999999999993 0
0.41999999999999998 0.56000000000000005 0
0.41999999999999998 0.58000000000000007 0
0.44 0 0
0.44 0.020000000000000004 0
0.44 0.040000000000000001 0
0.44 0.54999999999999993 0
0.44 0.56000000000000005 0
0.44 0.58000000000000007 0
0.46000000000000002 0 0
0.46000000000000002 0.020000000000000004 0
0.46000000000000002 0.040000000000000001 0
0.46000000000000002 0.54999999999999993 0
0.46000000000000002 0.56000000000000005 0
0.46000000000000002 0.58000000000000007 0
0.47999999999999998 0 0
0.47999999999999998 0.020000000000000004 0
0.47999999999999998 0.040000000000000001 0
0.47999999999999998 0.54999999999999993 0
0.47999999999999998 0.56000000000000005 0
0.47999999999999998 0.58000000000000007 0
0.5 0 0
0.5 0.020000000000000004 0
0.5 0.040000000000000001 0
0.5 0.54999999999999993 0
0.5 0.56000000000000005 0
0.5 0.58000000000000007 0
0.52000000000000002 0 0
0.52000000000000002 0.020000000000000004 0
0.52000000000000002 0.040000000000000001 0
0.52000000000000002 0.54999999999999993 0
0.52000000000000002 0.56000000000000005 0
0.52000000000000002 0.58000000000000007 0
0.54000000000000004 0 0
0.54000000000000004 0.020000000000000004 0
0.54000000000000004 0.040000000000000001 0
0.54000000000000004 0.54999999999999993 0
0.54000000000000004 0.56000000000000005 0
0.54000000000000004 0.58000000000000007 0
0.56000000000000005 0 0
0.56000000000000005 0.020000000000000004 0
0.56000000000000005 0.040000000000000001 0
0.56000000000000005 0.54999999999999993 0
0.56000000000000005 0.56000000000000005 0
0.56000000000000005 0.58000000000000007 0
0.57999999999999996 0 0
0.57999999999999996 0.020000000000000004 0
0.57999999999999996 0.040000000000000001 0
0.57999999999999996 0.54999999999999993 0
0.57999999999999996 0.56000000000000005 0
0.57999999999999996 0.58000000000000007 0
0.59999999999999998 0 0
0.59999999999999998 0.020000000000000004 0
0.59999999999999998 0.040000000000000001 0
0.59999999999999998 0.54999999999999993 0
0.59999999999999998 0.56000000000000005 0
0.59999999999999998 0.58000000000000007 0
0.62 0 0
0.62 0.020000000000000004 0
0.62 0.040000000000000001 0
0.62 0.54999999999999993 0
0.62 0.56000000000000005 0
0.62 0.58000000000000007 0
0.64000000000000001 0 0
0.64000000000000001 0.020000000000000004 0
0.64000000000000001 0.040000000000000001 0
0.64000000000000001 0.54999999999999993 0
0.64000000000000001 0.56000000000000005 0
0.64000000000000001 0.58000000000000007 0
0.66000000000000003 0 0
0.66000000000000003 0.020000000000000004 0
0.66000000000000003 0.040000000000000001 0
0.66000000000000003 0.54999999999999993 0
0.66000000000000003 0.56000000000000005 0
0.66000000000000003 0.58000000000000007 0
0.68000000000000005 0 0
0.68000000000000005 0.020000000000000004 0
0.68000000000000005 0.040000000000000001 0
0.68000000000000005 0.54999999999999993 0
0.68000000000000005 0.56000000000000005 0
0.68000000000000005 0.58000000000000007 0
0.70000000000000007 0 0
0.70000000000000007 0.020000000000000004 0
0.70000000000000007 0.040000000000000001 0
0.70000000000000007 0.54999999999999993 0
0.70000000000000007 0.56000000000000005 0
0.70000000000000007 0.58000000000000007 0
0.71999999999999997 0 0
0.71999999999999997 0.020000000000000004 0
0.71999999999999997 0.040000000000000001 0
0.71999999999999997 0.54999999999999993 0
0.71999999999999997 0.56000000000000005 0
0.71999999999999997 0.58000000000000007 0
0.73999999999999999 0 0
0.73999999999999999 0.020000000000000004 0
0.73999999999999999 0.040000000000000001 0
0.73999999999999999 0.54999999999999993 0
0.73999999999999999 0.56000000000000005 0
0.73999999999999999 0.58000000000000007 0
0.76000000000000001 0 0
0.76000000000000001 0.020000000000000004 0
0.76000000000000001 0.040000000000000001 0
0.76000000000000001 0.54999999999999993 0
0.76000000000000001 0.56000000000000005 0
0.76000000000000001 0.58000000000000007 0
0.78000000000000003 0 0
0.78000000000000003 0.020000000000000004 0
0.78000000000000003 0.040000000000000001 0
0.78000000000000003 0.54999999999999993 0
0.78000000000000003 0.56000000000000005 0
0.78000000000000003 0.58000000000000007 0
0.80000000000000004 0 0
0.80000000000000004 0.020000000000000004 0
0.80000000000000004 0.040000000000000001 0
0.80000000000000004 0.54999999999999993 0
0.80000000000000004 0.56000000000000005 0
0.80000000000000004 0.58000000000000007 0
0.82000000000000006 0 0
0.82000000000000006 0.020000000000000004 0
0.82000000000000006 0.040000000000000001 0
0.82000000000000006 0.54999999999999993 0
0.82000000000000006 0.56000000000000005 0
0.82000000000000006 0.58000000000000007 0
0.83999999999999997 0 0
0.83999999999999997 0.020000000000000004 0
0.83999999999999997 0.040000000000000001 0
0.83999999999999997 0.54999999999999993 0
0.83999999999999997 0.56000000000000005 0
0.83999999999999997 0.58000000000000007 0
0.85999999999999999 0 0
0.85999999999999999 0.020000000000000004 0
0.85999999999999999 0.040000000000000001 0
0.85999999999999999 0.54999999999999993 0
0.85999999999999999 0.56000000000000005 0
0.85999999999999999 0.58000000000000007 0
0.88 0 0
0.88 0.020000000000000004 0
0.88 0.040000000000000001 0
0.88 0.54999999999999993 0
0.88 0.56000000000000005 0
0.88 0.58000000000000007 0
0.90000000000000002 0 0
0.90000000000000002 0.020000000000000004 0
0.90000000000000002 0.040000000000000001 0
0.90000000000000002 0.54999999999999993 0
0.90000000000000002 0.56000000000000005 0
0.90000000000000002 0.58000000000000007 0
0.92000000000000004 0 0
0.92000000000000004 0.020000000000000004 0
0.92000000000000004 0.040000000000000001 0
0.92000000000000004 0.54999999999999993 0
0.92000000000000004 0.56000000000000005 0
0.92000000000000004 0.58000000000000007 0
0.94000000000000006 0 0
0.94000000000000006 0.020000000000000004 0
0.94000000000000006 0.040000000000000001 0
0.94000000000000006 0.54999999999999993 0
0.94000000000000006 0.56000000000000005 0
0.94000000000000006 0.58000000000000007 0
0.95999999999999996 0 0
0.95999999999999996 0.020000000000000004 0
0.95999999999999996 0.040000000000000001 0
0.95999999999999996 0.54999999999999993 0
0.95999999999999996 0.56000000000000005 0
0.95999999999999996 0.58000000000000007 0
0.97999999999999998 0 0
0.97999999999999998 0.020000000000000004 0
0.97999999999999998 0.040000000000000001 0
0.97999999999999998 0.54999999999999993 0
0.97999999999999998 0.56000000000000005 0
0.97999999999999998 0.58000000000000007 0
1 0 0
1 0.020000000000000004 0
1 0.040000000000000001 0
1 0.54999999999999993 0
1 0.56000000000000005 0
1 0.58000000000000007 0
VERTICES 681 1362
1 0
1 1
1 2
1 3
1 4
1 5
1 6
1 7
1 8
1 9
1 10
1 11
1 12
1 13
1 14
1 15
1 16
1 17
1 18
1 19
1 20
1 21
1 22
1 23
1 24
1 25
1 26
1 27
1 28
1 29
1 30
1 31
1 32
1 33
1 34
1 35
1 36
1 37
1 38
1 39
1 40
1 41
1 42
1 43
1 44
1 45
1 46
1 47
1 48
1 49
1 50
1 51
1 52
1 53
1 54
1 55
1 56
1 57
1 58
1 59
1 60
1 61
1 62
1 63
1 64
1 65
1 66
1 67
1 68
1 69
1 70
1 71
1 72
1 73
1 74
1 75
1 76
1 77
1 78
1 79
1 80
1 81
1 82
1 83
1 84
1 85
1 86
1 87
1 88
1 89
1 90
1 91
1 92
1 93
1 94
1 95
1 96
1 97
1 98
1 99
1 100
1 101
1 102
1 103
1 104
1 105
1 106
1 107
1 108
1 109
1 110
1 111
1 112
1 113
1 114
1 115
1 116
1 117
1 118
1 119
1 120
1 121
1 122
1 123
1 124
1 125
1 126
1 127
1 128
1 129
1 130
1 131
1 132
1 133
1 134
1 135
1 136
1 137
1 138
1 139
1 140
1 141
1 142
1 143
1 144
1 145
1 146
1 147
1 148
1 149
1 150
1 151
1 152
1 153
1 154
1 155
1 156
1 157
1 158
1 159
1 160
1 161
1 162
1 163
1 164
1 165
1 166
1 167
1 168
1 169
1 170
1 171
1 172
1 173
1 174
1 175
1 176
1 177
1 178
1 179
1 180
1 181
1 182
1 183
1 184
1 185
1 186
1 187
1 188
1 189
1 190
1 191
1 192
1 193
1 194
1 195
1 196
1 197
1 198
1 199
1 200
1 201
1 202
1 203
1 204
1 205
1 206
1 207
1 208
1 209
1 210
1 211
1 212
1 213
1 214
1 215
1 216
1 217
1 218
1 219
1 220
1 221
1 222
1 223
1 224
1 225
1 226
1 227
1 228
1 229
1 230
1 231
1 232
1 233
1 234
1 235
1 236
1 237
1 238
1 239
1 240
1 241
1 242
1 243
1 244
1 245
1 246
1 247
1 248
1 249
1 250
1 251
1 252
1 253
1 254
1 255
1 256
1 257
1 258
1 259
1 260
1 261
1 262
1 263
1 264
1 265
1 266
1 267
1 268
1 269
1 270
1 271
1 272
1 273
1 274
1 275
1 276
1 277
1 278
1 279
1 280
1 281
1 282
1 283
1 284
1 285
1 286
1 287
1 288
1 289
1 290
1 291
1 292
1 293
1 294
1 295
1 296
1 297
1 298
1 299
1 300
1 301
1 302
1 303
1 304
1 305
1 306
1 307
1 308
1 309
1 310
1 311
1 312
1 313
1 314
1 315
1 316
1 317
1 318
1 319
1 320
1 321
1 322
1 323
1 324
1 325
1 326
1 327
1 328
1 329
1 330
1 331
1 332
1 333
1 334
1 335
1 336
1 337
1 338
1 339
1 340
1 341
1 342
1 343
1 344
1 345
1 346
1 347
1 348
1 349
1 350
1 351
1 352
1 353
1 354
1 355
1 356
1 357
1 358
1 359
1 360
1 361
1 362
1 363
1 364
1 365
1 366
1 367
1 368
1 369
1 370
1 371
1 372
1 373
1 374
1 375
1 376
1 377
1 378
1 379
1 380
1 381
1 382
1 383
1 384
1 385
1 386
1 387
1 388
1 389
1 390
1 391
1 392
1 393
1 394
1 395
1 396
1 397
1 398
1 399
1 400
1 401
1 402
1 403
1 404
1 405
1 406
1 407
1 408
1 409
1 410
1 411
1 412
1 413
1 414
1 415
1 416
1 417
1 418
1 419
1 420
1 421
1 422
1 423
1 424
1 425
1 426
1 427
1 428
1 429
1 430
1 431
1 432
1 433
1 434
1 435
1 436
1 437
1 438
1 439
1 440
1 441
1 442
1 443
1 444
1 445
1 446
1 447
1 448
1 449
1 450
1 451
1 452
1 453
1 454
1 455
1 456
1 457
1 458
1 459
1 460
1 461
1 462
1 463
1 464
1 465
1 466
1 467
1 468
1 469
1 470
1 471
1 472
1 473
1 474
1 475
1 476
1 477
1 478
1 479
1 480
1 481
1 482
1 483
1 484
1 485
1 486
1 487
1 488
1 489
1 490
1 491
1 492
1 493
1 494
1 495
1 496
1 497
1 498
1 499
1 500
1 501
1 502
1 503
1 504
1 505
1 506
1 507
1 508
1 509
1 510
1 511
1 512
1 513
1 514
1 515
1 516
1 517
1 518
1 519
1 520
1 521
1 522
1 523
1 524
1 525
1 526
1 527
1 528
1 529
1 530
1 531
1 532
1 533
1 534
1 535
1 536
1 537
1 538
1 539
1 540
1 541
1 542
1 543
1 544
1 545
1 546
1 547
1 548
1 549
1 550
1 551
1 552
1 553
1 554
1 555
1 556
1 557
1 558
1 559
1 560
1 561
1 562
1 563
1 564
1 565
1 566
1 567
1 568
1 569
1 570
1 571
1 572
1 573
1 574
1 575
1 576
1 577
1 578
1 579
1 580
1 581
1 582
1 583
1 584
1 585
1 586
1 587
1 588
1 589
1 590
1 591
1 592
1 593
1 594
1 595
1 596
1 597
1 598
1 599
1 600
1 601
1 602
1 603
1 604
1 605
1 606
1 607
1 608
1 609
1 610
1 611
1 612
1 613
1 614
1 615
1 616
1 617
1 618
1 619
1 620
1 621
1 622
1 623
1 624
1 625
1 626
1 627
1 628
1 629
1 630
1 631
1 632
1 633
1 634
1 635
1 636
1 637
1 638
1 639
1 640
1 641
1 642
1 643
1 644
1 645
1 646
1 647
1 648
1 649
1 650
1 651
1 652
1 653
1 654
1 655
1 656
1 657
1 658
1 659
1 660
1 661
1 662
1 663
1 664
1 665
1 666
1 667
1 668
1 669
1 670
1 671
1 672
1 673
1 674
1 675
1 676
1 677
1 678
1 679
1 680
POINT_DATA 681
SCALARS is_boundary int 1
LOOKUP_TABLE default
0
0
0
0
0
0
0
0
0
0
0
0
0
0
0
0
0
0
0
0
0
0
0
0
0
0
0
0
0
0
0
0
0
0
0
0
0
0
0
0
0
0
0
0
0
0
0
0
0
0
0
0
0
0
0
0
0
0
0
0
0
0
0
0
0
0
0
0
0
0
0
0
0
0
0
0
0
0
0
0
0
0
0
0
0
0
0
0
0
0
0
0
0
0
0
0
0
0
0
0
0
0
0
0
0
0
0
0
0
0
0
0
0
0
0
0
0
0
0
0
0
0
0
0
0
0
0
0
0
0
0
0
0
0
0
0
0
0
0
0
0
0
0
0
0
0
0
0
0
0
0
0
0
0
0
0
0
0
0
0
0
0
0
0
0
0
0
0
0
0
0
0
0
0
0
0
0
0
0
0
0
0
0
0
0
0
0
0
0
0
0
0
0
0
0
0
0
0
0
0
0
0
0
0
0
0
0
0
0
0
0
0
0
0
0
0
0
0
0
0
0
0
0
0
0
0
0
0
0
0
0
0
0
0
0
0
0
0
0
0
0
0
0
0
0
0
0
0
0
0
0
0
0
0
0
0
0
0
0
0
0
0
0
0
0
0
0
0
0
0
0
0
0
0
0
0
0
0
0
0
0
0
0
0
0
0
0
0
0
0
0
0
0
0
0
0
0
0
0
0
0
0
0
0
0
0
0
0
0
0
0
0
0
0
0
0
0
0
0
0
0
0
0
0
0
0
0
0
0
0
0
0
0
0
0
0
0
0
0
0
0
0
0
0
0
0
0
0
0
0
0
0
0
0
0
0
0
0
0
0
0
0
0
0
0
0
0
0
0
0
0
0
0
0
0
1
1
1
1
1
1
1
1
1
1
1
1
1
1
1
1
1
1
1
1
1
1
1
1
1
1
1
1
1
1
1
1
1
1
1
1
1
1
1
1
1
1
1
1
1
1
1
1
1
1
1
1
1
1
1
1
1
1
1
1
1
1
1
1
1
1
1
1
1
1
1
1
1
1
1
1
1
1
1
1
1
1
1
1
1
1
1
1
1
1
1
1
1
1
1
1
1
1
1
1
1
1
1
1
1
1
1
1
1
1
1
1
1
1
1
1
1
1
1
1
1
1
1
1
1
1
1
1
1
1
1
1
1
1
1
1
1
1
1
1
1
1
1
1
1
1
1
1
1
1
1
1
1
1
1
1
1
1
1
1
1
1
1
1
1
1
1
1
1
1
1
1
1
1
1
1
1
1
1
1
1
1
1
1
1
1
1
1
1
1
1
1
1
1
1
1
1
1
1
1
1
1
1
1
1
1
1
1
1
1
1
1
1
1
1
1
1
1
1
1
1
1
1
1
1
1
1
1
1
1
1
1
1
1
1
1
1
1
1
1
1
1
1
1
1
1
1
1
1
1
1
1
1
1
1
1
1
1
1
1
1
1
1
1
1
1
1
1
1
1
1
1
1
1
1
1
1
1
1
1
1
1
1
1
1
1
1
1
1
1
1
1
1
1
1
1
1
1
1
1
1
1
1
1
1
1
SCALARS rho float 1
LOOKUP_TABLE default
1020
1020
1020
1020
1020
1020
1020
1020
1020
1020
1020
1020
880
862
862
862
862
862
862
862
862
862
862
850
850
1020
1020
1020
1020
1020
1020
1020
1020
1020
1020
1020
1020
1020
1015.5598240771408
1000.5068995292604
997.61283105086113
995.02833338128994
990.09630951819804
980.49949503030098
963.05435970657641
880
880
862
862
850
1020
1020
1020
1020
1020
1020
1020
1020
1020
1020
1020
1020
1020
1018.5395002817038
1001.7196791747692
998.56795559197485
995.86542119749424
990.74990225927422
980.81485218295279
962.81221456280969
932.73722585612359
880
862
862
850
1020
1020
1020
1020
1020
1020
1020
1020
1020
1020
1020
1020
1020
1019.4096844293238
1001.8344091430877
998.54269101943441
995.76221361435614
990.52505037242372
980.38093691125732
962.07207654704416
931.69202304490022
880
862
862
850
1020
1020
1020
1020
1020
1020
1020
1020
1020
1020
1020
1020
1020
1019.7443195525291
1001.8815766319865
998.52253050328909
995.69602458022905
990.38825678288299
980.13323862126504
961.68297741781225
931.1909147027352
880
862
862
850
1020
1020
1020
1020
1020
1020
1020
1020
1020
1020
1020
1020
1020
1019.8665226710198
1001.8969213631251
998.50881492163035
995.65852030436258
990.3145780208456
980.00700545473296
961.49700996393744
930.9664705080786
880
862
862
850
1020
1020
1020
1020
1020
1020
1020
1020
1020
1020
1020
1020
1020
1019.9086195329087
1001.9008297753087
998.50148115411162
995.64040979899823
990.28040689409295
979.95095776700123
961.41828944105237
930.8757879439288
880
862
862
850
1020
1020
1020
1020
1020
1020
1020
1020
1020
1020
1020
1020
1020
1019.916144267228
1001.902879628848
998.49966989908853
995.6351883027728
990.27069173986979
979.93541658410822
961.39705723118732
930.85199477950732
880
862
862
850
1020
1020
1020
1020
1020
1020
1020
1020
1020
1020
1020
1020
1020
1019.905865597266
1001.902686470062
998.50206439130739
995.64048574543563
990.28041343635073
979.95095819390167
961.41828946325836
930.87578794479418
880
862
862
850
1020
1020
1020
1020
1020
1020
1020
1020
1020
1020
1020
1020
1020
1019.8653232088977
1001.8972426547994
998.50903460904692
995.65855646486307
990.31458139051119
980.00700566139108
961.49700997079321
930.96647050793331
880
862
862
850
1020
1020
1020
1020
1020
1020
1020
1020
1020
1020
1020
1020
1020
1019.7445918650526
1001.8804246683885
998.52202968303436
995.69596197317105
990.38825156011967
980.13323819848188
961.68297738254319
931.19091470011426
880
862
862
850
1020
1020
1020
1020
1020
1020
1020
1020
1020
1020
1020
1020
1020
1019.4115084088571
1001.8324990483829
998.54181169014896
995.76210158194885
990.52504025076223
980.38093605910444
962.0720764800692
931.69202304028909
880
862
862
850
1020
1020
1020
1020
1020
1020
1020
1020
1020
1020
1020
1020
1020
1018.5438179720311
1001.7184836087561
998.56718840755047
995.86532148965034
990.74989267601904
980.81485133328692
962.81221449377085
932.73722585124165
880
862
862
850
1020
1020
1020
1020
1020
1020
1020
1020
1020
1020
1020
1020
1020
1015.5613626419151
1000.5064039443098
997.61238984499732
995.02827318193249
990.09630331251924
980.49949444199137
963.05435965553988
880
880
862
862
850
1020
1020
1020
1020
1020
1020
1020
1020
1020
1020
1020
1020
880
862
862
862
862
862
862
862
862
862
862
850
850
1000
1000
1000
1000
1000
1000
1000
1000
1000
1000
1000
1000
1000
1000
1000
1000
1000
1000
1000
1000
1000
1000
1000
1000
1000
1000
1000
1000
1000
1000
1000
1000
1000
1000
1000
1000
1000
1000
1000
1000
1000
1000
1000
1000
1000
1000
1000
1000
1000
1000
1000
1000
1000
1000
1000
1000
1000
1000
1000
1000
1000
1000
1000
1000
1000
1000
1000
1000
1000
1000
1000
1000
1000
1000
1000
1000
1000
1000
1000
1000
1000
1000
1000
1000
1000
1000
1000
1000
1000
1000
1000
1000
1000
1000
1000
1000
1000
1000
1000
1000
1000
1000
1000
1000
1000
1000
1000
1000
1000
1000
1000
1000
1000
1000
1000
1000
1000
1000
1000
1000
1000
1000
1000
1000
1000
1000
1000
1000
1000
1000
1000
1000
1000
1000
1000
1000
1000
1000
1000
1000
1000
1000
1000
1000
1000
1000
1000
1000
1000
1000
1000
1000
1000
1000
1000
1000
1000
1000
1000
1000
1000
1000
1000
1000
1000
1000
1000
1000
1000
1000
1000
1000
1000
1000
1000
1000
1000
1000
1000
1000
1000
1000
1000
1000
1000
1000
1000
1000
1000
1000
1000
1000
1000
1000
1000
1000
1000
1000
1000
1000
1000
1000
1000
1000
1000
1000
1000
1000
1000
1000
1000
1000
1000
1000
1000
1000
1000
1000
1000
1000
1000
1000
1000
1000
1000
1000
1000
1000
1000
1000
1000
1000
1000
1000
1000
1000
1000
1000
1000
1000
1000
1000
1000
1000
1000
1000
1000
1000
1000
1000
1000
1000
1000
1000
1000
1000
1000
1000
1000
1000
1000
1000
1000
1000
1000
1000
1000
1000
1000
1000
1000
1000
1000
1000
1000
1000
1000
1000
1000
1000
1000
1000
1000
1000
1000
1000
1000
1000
1000
1000
1000
1000
1000
1000
1000
1000
1000
1000
1000
1000
1000
1000
1000
1000
1000
1000
SCALARS p float 1
LOOKUP_TABLE default
25004.681136676067
25004.681136676067
25004.681136676067
25004.681136676067
25004.681136676067
25004.681136676067
25004.681136676067
25004.681136676067
25004.681136676067
25004.681136676067
25004.681136676067
25004.681136676067
0
0
0
0
0
0
0
0
0
0
0
0
0
25004.681136676067
25004.681136676067
25004.681136676067
25004.681136676067
25004.681136676067
25004.681136676067
25004.681136676067
25004.681136676067
25004.681136676067
25004.681136676067
25004.681136676067
25004.681136676067
25004.681136676067
19194.575715341311
597.63032735822287
0
0
0
0
0
0
0
0
0
0
25004.681136676067
25004.681136676067
25004.681136676067
25004.681136676067
25004.681136676067
25004.681136676067
25004.681136676067
25004.681136676067
25004.681136676067
25004.681136676067
25004.681136676067
25004.681136676067
25004.681136676067
23076.767132089833
2034.8802981090398
0
0
0
0
0
0
0
0
0
0
25004.681136676067
25004.681136676067
25004.681136676067
25004.681136676067
25004.681136676067
25004.681136676067
25004.681136676067
25004.681136676067
25004.681136676067
25004.681136676067
25004.681136676067
25004.681136676067
25004.681136676067
24223.44636702408
2171.3868785674194
0
0
0
0
0
0
0
0
0
0
25004.681136676067
25004.681136676067
25004.681136676067
25004.681136676067
25004.681136676067
25004.681136676067
25004.681136676067
25004.681136676067
25004.681136676067
25004.681136676067
25004.681136676067
25004.681136676067
25004.681136676067
24665.975655061957
2227.5343256775318
0
0
0
0
0
0
0
0
0
0
25004.681136676067
25004.681136676067
25004.681136676067
25004.681136676067
25004.681136676067
25004.681136676067
25004.681136676067
25004.681136676067
25004.681136676067
25004.681136676067
25004.681136676067
25004.681136676067
25004.681136676067
24827.797238934305
2245.8038750308565
0
0
0
0
0
0
0
0
0
0
25004.681136676067
25004.681136676067
25004.681136676067
25004.681136676067
25004.681136676067
25004.681136676067
25004.681136676067
25004.681136676067
25004.681136676067
25004.681136676067
25004.681136676067
25004.681136676067
25004.681136676067
24883.568924799321
2250.4575274961899
0
0
0
0
0
0
0
0
0
0
25004.681136676067
25004.681136676067
25004.681136676067
25004.681136676067
25004.681136676067
25004.681136676067
25004.681136676067
25004.681136676067
25004.681136676067
25004.681136676067
25004.681136676067
25004.681136676067
25004.681136676067
24893.53946317509
2252.8982823909651
0
0
0
0
0
0
0
0
0
0
25004.681136676067
25004.681136676067
25004.681136676067
25004.681136676067
25004.681136676067
25004.681136676067
25004.681136676067
25004.681136676067
25004.681136676067
25004.681136676067
25004.681136676067
25004.681136676067
25004.681136676067
24879.919973263713
2252.6682874842245
0
0
0
0
0
0
0
0
0
0
25004.681136676067
25004.681136676067
25004.681136676067
25004.681136676067
25004.681136676067
25004.681136676067
25004.681136676067
25004.681136676067
25004.681136676067
25004.681136676067
25004.681136676067
25004.681136676067
25004.681136676067
24826.208343649352
2246.1864251977099
0
0
0
0
0
0
0
0
0
0
25004.681136676067
25004.681136676067
25004.681136676067
25004.681136676067
25004.681136676067
25004.681136676067
25004.681136676067
25004.681136676067
25004.681136676067
25004.681136676067
25004.681136676067
25004.681136676067
25004.681136676067
24666.336122454137
2226.1628571237802
0
0
0
0
0
0
0
0
0
0
25004.681136676067
25004.681136676067
25004.681136676067
25004.681136676067
25004.681136676067
25004.681136676067
25004.681136676067
25004.681136676067
25004.681136676067
25004.681136676067
25004.681136676067
25004.681136676067
25004.681136676067
24225.856078666809
2169.1134655956735
0
0
0
0
0
0
0
0
0
0
25004.681136676067
25004.681136676067
25004.681136676067
25004.681136676067
25004.681136676067
25004.681136676067
25004.681136676067
25004.681136676067
25004.681136676067
25004.681136676067
25004.681136676067
25004.681136676067
25004.681136676067
23082.442245231054
2033.4582984458509
0
0
0
0
0
0
0
0
0
0
25004.681136676067
25004.681136676067
25004.681136676067
25004.681136676067
25004.681136676067
25004.681136676067
25004.681136676067
25004.681136676067
25004.681136676067
25004.681136676067
25004.681136676067
25004.681136676067
25004.681136676067
19196.56273005205
597.045149015064
0
0
0
0
0
0
0
0
0
0
25004.681136676067
25004.681136676067
25004.681136676067
25004.681136676067
25004.681136676067
25004.681136676067
25004.681136676067
25004.681136676067
25004.681136676067
25004.681136676067
25004.681136676067
25004.681136676067
0
0
0
0
0
0
0
0
0
0
0
0
0
0
0
0
0
0
0
0
24911.452816556295
24988.395683890991
0
0
0
24683.414449413271
24999.304835228271
25003.357184589117
0
0
0
24869.113902422298
25001.975299126982
25003.984058072936
0
0
0
24887.934868099452
25002.110360070936
25004.003812480456
0
0
0
24887.43348554528
25002.108505863867
25004.000743752793
0
0
0
24886.776264667675
25002.101861984749
25003.999674527939
0
0
0
24886.511302262072
25002.098866412409
25003.999256194606
0
0
0
24886.415414480125
25002.097741454421
25003.999099831461
0
0
0
24886.383872523835
25002.097376569589
25003.999050075661
0
0
0
24886.3834182705
25002.097371011972
25003.999048833757
0
0
0
24886.414629813367
25002.097737568511
25003.999099976903
0
0
0
24886.509891867416
25002.098857914963
25003.999256541098
0
0
0
24886.774842420098
25002.101848018297
25003.999673761129
0
0
0
24887.430966506861
25002.108479415438
25004.000740185926
0
0
0
24887.931618232593
25002.110335831709
25004.003810265618
0
0
0
24869.109777130623
25001.975277844685
25003.984059075257
0
0
0
24683.399471921512
24999.304749067182
25003.357177512815
0
0
0
0
24911.449371981253
24988.395325554004
0
0
0
0
0
0
0
0
0
0
0
0
0
0
0
0
0
0
0
0
0
0
0
0
0
0
0
0
0
0
0
0
0
0
0
0
0
0
0
0
0
0
0
0
0
0
0
0
0
0
0
0
0
0
0
0
0
0
0
0
0
0
0
0
0
0
0
0
0
0
0
0
0
0
0
0
0
0
0
0
0
0
0
0
0
0
0
0
0
0
0
0
0
0
0
0
0
0
0
0
0
0
0
0
0
0
0
0
0
0
0
0
0
0
0
0
0
0
0
0
0
0
0
0
0
0
0
0
0
0
0
0
0
0
0
0
0
0
0
0
0
0
0
0
0
0
0
0
0
0
0
0
0
0
0
0
0
0
0
0
0
0
0
0
0
0
0
0
0
0
0
0
0
0
0
0
0
0
0
0
0
0
0
0
0
0
0
0
0
0
0
0
0
0
0
SCALARS m float 1
LOOKUP_TABLE default
0.39942306611962441
0.39942306611962441
0.39942306611962441
0.39942306611962441
0.39942306611962441
0.39942306611962441
0.39942306611962441
0.39942306611962441
0.39942306611962441
0.39942306611962441
0.39942306611962441
0.39942306611962441
0.39942306611962441
0.39942306611962441
0.39942306611962441
0.39942306611962441
0.39942306611962441
0.39942306611962441
0.39942306611962441
0.39942306611962441
0.39942306611962441
0.39942306611962441
0.39942306611962441
0.39942306611962441
0.39942306611962441
0.39942306611962441
0.39942306611962441
0.39942306611962441
0.39942306611962441
0.39942306611962441
0.39942306611962441
0.39942306611962441
0.39942306611962441
0.39942306611962441
0.39942306611962441
0.39942306611962441
0.39942306611962441
0.39942306611962441
0.39942306611962441
0.39942306611962441
0.39942306611962441
0.39942306611962441
0.39942306611962441
0.39942306611962441
0.39942306611962441
0.39942306611962441
0.39942306611962441
0.39942306611962441
0.39942306611962441
0.39942306611962441
0.39942306611962441
0.39942306611962441
0.39942306611962441
0.39942306611962441
0.39942306611962441
0.39942306611962441
0.39942306611962441
0.39942306611962441
0.39942306611962441
0.39942306611962441
0.39942306611962441
0.39942306611962441
0.39942306611962441
0.39942306611962441
0.39942306611962441
0.39942306611962441
0.39942306611962441
0.39942306611962441
0.39942306611962441
0.39942306611962441
0.39942306611962441
0.39942306611962441
0.39942306611962441
0.39942306611962441
0.39942306611962441
0.39942306611962441
0.39942306611962441
0.39942306611962441
0.39942306611962441
0.39942306611962441
0.39942306611962441
0.39942306611962441
0.39942306611962441
0.39942306611962441
0.39942306611962441
0.39942306611962441
0.39942306611962441
0.39942306611962441
0.39942306611962441
0.39942306611962441
0.39942306611962441
0.39942306611962441
0.39942306611962441
0.39942306611962441
0.39942306611962441
0.39942306611962441
0.39942306611962441
0.39942306611962441
0.39942306611962441
0.39942306611962441
0.39942306611962441
0.39942306611962441
0.39942306611962441
0.39942306611962441
0.39942306611962441
0.39942306611962441
0.39942306611962441
0.39942306611962441
0.39942306611962441
0.39942306611962441
0.39942306611962441
0.39942306611962441
0.39942306611962441
0.39942306611962441
0.39942306611962441
0.39942306611962441
0.39942306611962441
0.39942306611962441
0.39942306611962441
0.39942306611962441
0.39942306611962441
0.39942306611962441
0.39942306611962441
0.39942306611962441
0.39942306611962441
0.39942306611962441
0.39942306611962441
0.39942306611962441
0.39942306611962441
0.39942306611962441
0.39942306611962441
0.39942306611962441
0.39942306611962441
0.39942306611962441
0.39942306611962441
0.39942306611962441
0.39942306611962441
0.39942306611962441
0.39942306611962441
0.39942306611962441
0.39942306611962441
0.39942306611962441
0.39942306611962441
0.39942306611962441
0.39942306611962441
0.39942306611962441
0.39942306611962441
0.39942306611962441
0.39942306611962441
0.39942306611962441
0.39942306611962441
0.39942306611962441
0.39942306611962441
0.39942306611962441
0.39942306611962441
0.39942306611962441
0.39942306611962441
0.39942306611962441
0.39942306611962441
0.39942306611962441
0.39942306611962441
0.39942306611962441
0.39942306611962441
0.39942306611962441
0.39942306611962441
0.39942306611962441
0.39942306611962441
0.39942306611962441
0.39942306611962441
0.39942306611962441
0.39942306611962441
0.39942306611962441
0.39942306611962441
0.39942306611962441
0.39942306611962441
0.39942306611962441
0.39942306611962441
0.39942306611962441
0.39942306611962441
0.39942306611962441
0.39942306611962441
0.39942306611962441
0.39942306611962441
0.39942306611962441
0.39942306611962441
0.39942306611962441
0.39942306611962441
0.39942306611962441
0.39942306611962441
0.39942306611962441
0.39942306611962441
0.39942306611962441
0.39942306611962441
0.39942306611962441
0.39942306611962441
0.39942306611962441
0.39942306611962441
0.39942306611962441
0.39942306611962441
0.39942306611962441
0.39942306611962441
0.39942306611962441
0.39942306611962441
0.39942306611962441
0.39942306611962441
0.39942306611962441
0.39942306611962441
0.39942306611962441
0.39942306611962441
0.39942306611962441
0.39942306611962441
0.39942306611962441
0.39942306611962441
0.39942306611962441
0.39942306611962441
0.39942306611962441
0.39942306611962441
0.39942306611962441
0.39942306611962441
0.39942306611962441
0.39942306611962441
0.39942306611962441
0.39942306611962441
0.39942306611962441
0.39942306611962441
0.39942306611962441
0.39942306611962441
0.39942306611962441
0.39942306611962441
0.39942306611962441
0.39942306611962441
0.39942306611962441
0.39942306611962441
0.39942306611962441
0.39942306611962441
0.39942306611962441
0.39942306611962441
0.39942306611962441
0.39942306611962441
0.39942306611962441
0.39942306611962441
0.39942306611962441
0.39942306611962441
0.39942306611962441
0.39942306611962441
0.39942306611962441
0.39942306611962441
0.39942306611962441
0.39942306611962441
0.39942306611962441
0.39942306611962441
0.39942306611962441
0.39942306611962441
0.39942306611962441
0.39942306611962441
0.39942306611962441
0.39942306611962441
0.39942306611962441
0.39942306611962441
0.39942306611962441
0.39942306611962441
0.39942306611962441
0.39942306611962441
0.39942306611962441
0.39942306611962441
0.39942306611962441
0.39942306611962441
0.39942306611962441
0.39942306611962441
0.39942306611962441
0.39942306611962441
0.39942306611962441
0.39942306611962441
0.39942306611962441
0.39942306611962441
0.39942306611962441
0.39942306611962441
0.39942306611962441
0.39942306611962441
0.39942306611962441
0.39942306611962441
0.39942306611962441
0.39942306611962441
0.39942306611962441
0.39942306611962441
0.39942306611962441
0.39942306611962441
0.39942306611962441
0.39942306611962441
0.39942306611962441
0.39942306611962441
0.39942306611962441
0.39942306611962441
0.39942306611962441
0.39942306611962441
0.39942306611962441
0.39942306611962441
0.39942306611962441
0.39942306611962441
0.39942306611962441
0.39942306611962441
0.39942306611962441
0.39942306611962441
0.39942306611962441
0.39942306611962441
0.39942306611962441
0.39942306611962441
0.39942306611962441
0.39942306611962441
0.39942306611962441
0.39942306611962441
0.39942306611962441
0.39942306611962441
0.39942306611962441
0.39942306611962441
0.39942306611962441
0.39942306611962441
0.39942306611962441
0.39942306611962441
0.39942306611962441
0.39942306611962441
0.39942306611962441
0.39942306611962441
0.39942306611962441
0.39942306611962441
0.39942306611962441
0.39942306611962441
0.39942306611962441
0.39942306611962441
0.39942306611962441
0.39942306611962441
0.39942306611962441
0.39942306611962441
0.39942306611962441
0.39942306611962441
0.39942306611962441
0.39942306611962441
0.39942306611962441
0.39942306611962441
0.39942306611962441
0.39942306611962441
0.39942306611962441
0.39942306611962441
0.39942306611962441
0.39942306611962441
0.39942306611962441
0.39942306611962441
0.39942306611962441
0.39942306611962441
0.39942306611962441
0.39942306611962441
0.39942306611962441
0.39942306611962441
0.39942306611962441
0.39942306611962441
0.39942306611962441
0.39942306611962441
0.39942306611962441
0.39942306611962441
0.39942306611962441
0.39942306611962441
0.39942306611962441
0.39942306611962441
0.39942306611962441
0.39942306611962441
0.39942306611962441
0.39942306611962441
0.39942306611962441
0.39942306611962441
0.39942306611962441
0.39942306611962441
0.39942306611962441
0.39942306611962441
0.39942306611962441
0.39942306611962441
0.39942306611962441
0.39942306611962441
0.39942306611962441
0.39942306611962441
0.39942306611962441
0.39942306611962441
0.39942306611962441
0.39942306611962441
0.39942306611962441
0.39942306611962441
0.39942306611962441
0.39942306611962441
0.39942306611962441
0.39942306611962441
0.39942306611962441
0.39942306611962441
0.39942306611962441
0.39942306611962441
0.39942306611962441
0.39942306611962441
0.39942306611962441
0.39942306611962441
0.39942306611962441
0.39942306611962441
0.39942306611962441
0.39942306611962441
0.39942306611962441
0.39942306611962441
0.39942306611962441
0.39942306611962441
0.39942306611962441
0.39942306611962441
0.39942306611962441
0.39942306611962441
0.39942306611962441
0.39942306611962441
0.39942306611962441
0.39942306611962441
0.39942306611962441
0.39942306611962441
0.39942306611962441
0.39942306611962441
0.39942306611962441
0.39942306611962441
0.39942306611962441
0.39942306611962441
0.39942306611962441
0.39942306611962441
0.39942306611962441
0.39942306611962441
0.39942306611962441
0.39942306611962441
0.39942306611962441
0.39942306611962441
0.39942306611962441
0.39942306611962441
0.39942306611962441
0.39942306611962441
0.39942306611962441
0.39942306611962441
0.39942306611962441
0.39942306611962441
0.39942306611962441
0.39942306611962441
0.39942306611962441
0.39942306611962441
0.39942306611962441
0.39942306611962441
0.39942306611962441
0.39942306611962441
0.39942306611962441
0.39942306611962441
0.39942306611962441
0.39942306611962441
0.39942306611962441
0.39942306611962441
0.39942306611962441
0.39942306611962441
0.39942306611962441
0.39942306611962441
0.39942306611962441
0.39942306611962441
0.39942306611962441
0.39942306611962441
0.39942306611962441
0.39942306611962441
0.39942306611962441
0.39942306611962441
0.39942306611962441
0.39942306611962441
0.39942306611962441
0.39942306611962441
0.39942306611962441
0.39942306611962441
0.39942306611962441
0.39942306611962441
0.39942306611962441
0.39942306611962441
0.39942306611962441
0.39942306611962441
0.39942306611962441
0.39942306611962441
0.39942306611962441
0.39942306611962441
0.39942306611962441
0.39942306611962441
0.39942306611962441
0.39942306611962441
0.39942306611962441
0.39942306611962441
0.39942306611962441
0.39942306611962441
0.39942306611962441
0.39942306611962441
0.39942306611962441
0.39942306611962441
0.39942306611962441
0.39942306611962441
0.39942306611962441
0.39942306611962441
0.39942306611962441
0.39942306611962441
0.39942306611962441
0.39942306611962441
0.39942306611962441
0.39942306611962441
0.39942306611962441
0.39942306611962441
0.39942306611962441
0.39942306611962441
0.39942306611962441
0.39942306611962441
0.39942306611962441
0.39942306611962441
0.39942306611962441
0.39942306611962441
0.39942306611962441
0.39942306611962441
0.39942306611962441
0.39942306611962441
0.39942306611962441
0.39942306611962441
0.39942306611962441
0.39942306611962441
0.39942306611962441
0.39942306611962441
0.39942306611962441
0.39942306611962441
0.39942306611962441
0.39942306611962441
0.39942306611962441
0.39942306611962441
0.39942306611962441
0.39942306611962441
0.39942306611962441
0.39942306611962441
0.39942306611962441
0.39942306611962441
0.39942306611962441
0.39942306611962441
0.39942306611962441
0.39942306611962441
0.39942306611962441
0.39942306611962441
0.39942306611962441
0.39942306611962441
0.39942306611962441
0.39942306611962441
0.39942306611962441
0.39942306611962441
0.39942306611962441
0.39942306611962441
0.39942306611962441
0.39942306611962441
0.39942306611962441
0.39942306611962441
0.39942306611962441
0.39942306611962441
0.39942306611962441
0.39942306611962441
0.39942306611962441
0.39942306611962441
0.39942306611962441
0.39942306611962441
0.39942306611962441
0.39942306611962441
0.39942306611962441
0.39942306611962441
0.39942306611962441
0.39942306611962441
0.39942306611962441
0.39942306611962441
0.39942306611962441
0.39942306611962441
0.39942306611962441
0.39942306611962441
0.39942306611962441
0.39942306611962441
0.39942306611962441
0.39942306611962441
0.39942306611962441
0.39942306611962441
0.39942306611962441
0.39942306611962441
0.39942306611962441
0.39942306611962441
0.39942306611962441
0.39942306611962441
0.39942306611962441
0.39942306611962441
0.39942306611962441
0.39942306611962441
0.39942306611962441
0.39942306611962441
0.39942306611962441
0.39942306611962441
0.39942306611962441
0.39942306611962441
0.39942306611962441
0.39942306611962441
0.39942306611962441
0.39942306611962441
0.39942306611962441
0.39942306611962441
0.39942306611962441
0.39942306611962441
0.39942306611962441
0.39942306611962441
0.39942306611962441
0.39942306611962441
0.39942306611962441
0.39942306611962441
0.39942306611962441
0.39942306611962441
0.39942306611962441
0.39942306611962441
0.39942306611962441
0.39942306611962441
0.39942306611962441
0.39942306611962441
0.39942306611962441
0.39942306611962441
0.39942306611962441
0.39942306611962441
0.39942306611962441
0.39942306611962441
0.39942306611962441
0.39942306611962441
0.39942306611962441
0.39942306611962441
0.39942306611962441
0.39942306611962441
0.39942306611962441
0.39942306611962441
0.39942306611962441
0.39942306611962441
0.39942306611962441
0.39942306611962441
0.39942306611962441
0.39942306611962441
0.39942306611962441
0.39942306611962441
0.39942306611962441
0.39942306611962441
0.39942306611962441
0.39942306611962441
0.39942306611962441
0.39942306611962441
0.39942306611962441
0.39942306611962441
0.39942306611962441
0.39942306611962441
0.39942306611962441
0.39942306611962441
0.39942306611962441
0.39942306611962441
0.39942306611962441
0.39942306611962441
0.39942306611962441
0.39942306611962441
0.39942306611962441
0.39942306611962441
0.39942306611962441
0.39942306611962441
0.39942306611962441
0.39942306611962441
0.39942306611962441
0.39942306611962441
0.39942306611962441
0.39942306611962441
0.39942306611962441
0.39942306611962441
0.39942306611962441
0.39942306611962441
0.39942306611962441
0.39942306611962441
0.39942306611962441
0.39942306611962441
0.39942306611962441
0.39942306611962441
0.39942306611962441
0.39942306611962441
0.39942306611962441
0.39942306611962441
0.39942306611962441
0.39942306611962441
VECTORS v float
-8.1511440172575024e-05 -0.090374109127160998 0
-9.7486171320248686e-05 -0.11200348939564055 0
-0.00011022875094487671 -0.13131793498990499 0
-0.00012254450719033927 -0.15369057689721372 0
-0.00013345330864674787 -0.18048284593490763 0
-0.00014338592233545871 -0.21389743641514755 0
-0.00015163712427054485 -0.25770383112555234 0
-0.00016617548255559727 -0.31886078808195312 0
-0.00018419316004730966 -0.40935509214326465 0
-0.000210091121582494 -0.56184468388334774 0
-0.00026307842963706803 -0.88358840592282861 0
-0.00036128279762127734 -1.4560615704220063 0
-0.00033138840396713189 -1.810193068027941 0
-0.00017669605368163539 -1.8805697618249648 0
-4.5003317686243437e-05 -1.8902197297766008 0
-5.6840856808526776e-06 -1.8910656249875342 0
-6.3617972010697387e-07 -1.8901953894053951 0
-6.3334427652385521e-08 -1.8881613077884385 0
-5.6883291420604583e-09 -1.8844776747436394 0
-4.5459821088891698e-10 -1.8784328599343894 0
-3.1462376237070463e-11 -1.8694486821203666 0
-1.8233553002135941e-12 -1.8573650515777647 0
-8.1235220600066818e-14 -1.8425202352325001 0
-2.3160482699368045e-15 -1.8262241994207586 0
-5.634877544519517e-20 -1.6929955275495376 0
-3.9454694088151373e-05 -0.095632701680617105 0
-4.842020157314064e-05 -0.11810193606323977 0
-5.5141477476163384e-05 -0.13845851883120464 0
-6.1825025199177379e-05 -0.16168257156965352 0
-6.8436716250954495e-05 -0.18937805601443727 0
-7.5664269191260617e-05 -0.22383167423779071 0
-8.4330095601006645e-05 -0.26887742670639114 0
-9.2842219666158693e-05 -0.33136752206863562 0
-0.00010283168847361215 -0.42285604771934221 0
-0.00011816595638349736 -0.57140369625834064 0
-0.00014496295982918892 -0.85924560966158448 0
-0.00021847981685827746 -1.3911608755720015 0
-0.00027889899558991907 -1.7867730728558606 0
-0.00017416930232078563 -1.8774949752463685 0
-5.0115857756354304e-05 -1.8897917270604927 0
-7.1819448101170501e-06 -1.8909678910241117 0
-7.3187758640410866e-07 -1.8900994602823893 0
-7.0994048456981021e-08 -1.8879921491560598 0
-6.3628247882741408e-09 -1.8841793236253963 0
-5.12095322634223e-10 -1.8779223620034697 0
-3.5984333504870858e-11 -1.8687386755376989 0
-2.1776225822844837e-12 -1.8566650309013075 0
-1.0021468641456808e-13 -1.842127964293292 0
-2.9681565942558173e-15 -1.8263016494980939 0
-2.3852897176723637e-19 -1.6949496112457991 0
-1.1997849155178924e-05 -0.096128666065184068 0
-1.5490081353287058e-05 -0.11873050262895478 0
-1.7211677500328725e-05 -0.13925332292173784 0
-2.1134078924664111e-05 -0.16270995456832399 0
-2.4416065125155582e-05 -0.19075502051458684 0
-2.7587184828895501e-05 -0.22571270128125298 0
-3.2789329291220655e-05 -0.27142900767140798 0
-3.6231536197744204e-05 -0.3346968257030804 0
-3.9963277544798216e-05 -0.42683416028942145 0
-4.2494360448033336e-05 -0.57479536762387073 0
-4.6474249087324926e-05 -0.85540938449830872 0
-5.8739129156199598e-05 -1.3712234070141387 0
-6.9903519065126125e-05 -1.7763917019043873 0
-5.9007320084493334e-05 -1.8758430629653018 0
-2.4427132178103191e-05 -1.8895392030093738 0
-4.984994456335818e-06 -1.8909017308489278 0
-5.3945025020214826e-07 -1.8900286513163458 0
-5.4681800007355371e-08 -1.8878572377539697 0
-5.0772206763609877e-09 -1.8839273099546041 0
-4.2095804845876292e-10 -1.877514840782387 0
-3.0248090144047217e-11 -1.8680961266679332 0
-1.8342907368555834e-12 -1.8558836023961967 0
-8.7825361293334809e-14 -1.8414153766267809 0
-2.6939142167651245e-15 -1.8256053387127793 0
-3.593387753009617e-19 -1.6974895195716038 0
-4.6393162453839221e-06 -0.096078454967625931 0
-6.789991053871983e-06 -0.11873323567598976 0
-8.2560485118661604e-06 -0.13930716273503049 0
-1.2712806038376015e-05 -0.16282556310251733 0
-1.3661912273343841e-05 -0.19095944174094057 0
-1.4821366263051573e-05 -0.22603787374548939 0
-9.1066444054665748e-06 -0.27191832265831761 0
-9.2479170980332841e-06 -0.33537837987728741 0
-1.0869237975067898e-05 -0.42767721143681564 0
-9.7980888965547276e-06 -0.57550664092496573 0
-7.1526395263407338e-06 -0.85423574480274234 0
8.2347168345956833e-07 -1.3653389465978483 0
-3.4998739944456093e-06 -1.772669370190447 0
-1.3549133275215252e-05 -1.8750639271620038 0
-6.7483835798340084e-06 -1.8894017617405132 0
-1.5830419848591978e-06 -1.8908565799197079 0
-2.4311742398067526e-07 -1.8899734757383706 0
-2.8908362810488299e-08 -1.8877527276126167 0
-2.9693924135982237e-09 -1.8837374931141813 0
-2.64056016953452e-10 -1.8772118596750629 0
-1.995951269514405e-11 -1.8676387700926143 0
-1.2466740182540786e-12 -1.8552959773624726 0
-6.1891307733555685e-14 -1.8407539076578456 0
-1.963574851080487e-15 -1.8248317933400311 0
-3.2970494830636342e-19 -1.6995618744045788 0
-1.3182658283647278e-06 -0.096011554054708931 0
-1.3652743662771154e-06 -0.11868340351671861 0
-1.6222108991324291e-06 -0.13927346632230428 0
-5.6626579187722753e-07 -0.16281036299331184 0
-1.0356307250119087e-07 -0.1909678396927669 0
1.4796289408788436e-06 -0.22607969755372073 0
4.2968255542057073e-06 -0.27200118437764881 0
5.829562258512411e-06 -0.33551014492618719 0
6.8423790949510754e-06 -0.42784689910636636 0
1.0583128293281728e-05 -0.57561352121522924 0
1.3643762641584983e-05 -0.85373913580371763 0
1.2356717164508606e-05 -1.3633642471489564 0
4.3429694907666205e-06 -1.7713582744678351 0
-1.2687757005973854e-06 -1.8747557293289225 0
-1.3113381707830877e-06 -1.889337648027458 0
-3.8353026504885226e-07 -1.8908296431317333 0
-7.1190689948282755e-08 -1.8899352659713187 0
-1.0531025492955978e-08 -1.8876807311497419 0
-1.2543705619144645e-09 -1.8836091654528493 0
-1.2411611211086525e-10 -1.87700451764756 0
-1.0175151677641208e-11 -1.8673389318176281 0
-6.776744128234775e-13 -1.8549049400217623 0
-3.5353250355623631e-14 -1.8402781411589146 0
-1.1697211321441644e-15 -1.8242625258123655 0
-2.1711289466768471e-19 -1.7008454048233259 0
2.3845201295469697e-06 -0.095976194886048541 0
3.7605783825641174e-06 -0.11864955495136589 0
3.2072142640226679e-06 -0.13924339614029857 0
4.2910383282653536e-06 -0.16278344224661587 0
5.9892233908627756e-06 -0.19095065008582585 0
8.1395957208001646e-06 -0.22606997696016626 0
6.2425818498757362e-06 -0.27200829932531045 0
7.6659479384075285e-06 -0.33553162139601489 0
8.9564011089750413e-06 -0.42787555799681004 0
1.1076620214858823e-05 -0.57561238708918083 0
1.406904156107565e-05 -0.85352198268278801 0
8.8094602916785312e-06 -1.3626565300157809 0
6.7771102594294744e-06 -1.770891349069188 0
1.9842777551814684e-06 -1.8746424082774085 0
3.5207918158363054e-08 -1.8893119783694632 0
-2.5428024840127851e-08 -1.8908147984854609 0
-1.1219653802145997e-08 -1.889911693317011 0
-2.4228317215906975e-09 -1.887636570358084 0
-3.6384517201818197e-10 -1.883531647632521 0
-4.209402751237591e-11 -1.8768807697376915 0
-3.8763860316336896e-12 -1.867160696209065 0
-2.8303237264465482e-13 -1.8546705937802601 0
-1.5877747704254749e-14 -1.8399907844078778 0
-5.5621262568843353e-16 -1.8239254993609257 0
-1.0768656287415955e-19 -1.7014948837822281 0
2.7904828433354093e-06 -0.095957696510581197 0
3.5862621067247115e-06 -0.11863295551595505 0
4.6260091319991792e-06 -0.13922673613213174 0
5.1656373429224251e-06 -0.16277059529309132 0
6.432476711282769e-06 -0.19093792319396632 0
7.783719659804788e-06 -0.22606377128158728 0
1.2219515885836002e-05 -0.27200303076075222 0
1.3429642873919332e-05 -0.33553116815651879 0
1.4308076851614298e-05 -0.42787594345383706 0
1.482039510219992e-05 -0.57560090143270437 0
1.4928385212501042e-05 -0.85343776123221071 0
1.0409617500385145e-05 -1.3624109891544414 0
1.6531286169610507e-06 -1.7707239462503295 0
-2.1511752966346924e-06 -1.8746062762241142 0
-2.096600112454797e-07 -1.8893026755893605 0
-9.7012318796983488e-09 -1.8908074651852114 0
2.8379313418486088e-10 -1.8898993344765023 0
-7.2747723850512087e-11 -1.8876135900361235 0
-3.718512337691627e-11 -1.8834918016117437 0
-6.9119611277125383e-12 -1.8768177784977174 0
-8.3412147480858627e-13 -1.8670703492525647 0
-7.2881730644030175e-14 -1.8545519665923011 0
-4.6362284475758386e-15 -1.8398465685174585 0
-1.7775210812374669e-16 -1.8237611404499674 0
-3.51359637587299e-20 -1.7017664453759462 0
-1.0822236511197155e-06 -0.095952526161536295 0
-1.1053538356592603e-06 -0.11862821465499805 0
-5.2391006978506155e-07 -0.13922213921524676 0
4.9481934474491072e-07 -0.16276611334290866 0
2.1332636273282891e-06 -0.19093568215796872 0
5.2989328380668039e-06 -0.22605967664534227 0
8.0773671849154981e-06 -0.27200320657156779 0
8.1772330498316993e-06 -0.33553225603370007 0
1.0233362182179139e-05 -0.42787550880747727 0
1.155586698979499e-05 -0.57559589509116604 0
7.9552279112136859e-06 -0.85341514970333932 0
9.2612995151687804e-06 -1.3623352682566108 0
6.2414395787508721e-06 -1.7706865696959715 0
5.042908080956108e-06 -1.8745888447163475 0
-2.8591080455153608e-07 -1.8892975310881623 0
-2.0064921420150013e-08 -1.8908048294705961 0
5.6976392834392645e-10 -1.8898954973551174 0
4.5313517502500325e-10 -1.8876065690965655 0
6.8452241413693305e-11 -1.8834797197036077 0
6.9597279609595994e-12 -1.8767987918391329 0
5.4741247805314192e-13 -1.8670432140523847 0
3.4112629833255668e-14 -1.854516452510482 0
1.6548773202457513e-15 -1.8398037556457352 0
5.1080859555518858e-17 -1.8237133059264345 0
9.8506137401975655e-21 -1.7018372876092023 0
2.4801836891548444e-06 -0.095964320389096025 0
3.084631637626615e-06 -0.11863281734288059 0
3.7865035455727443e-06 -0.13922686779674548 0
5.5854089892996517e-06 -0.16276760884460456 0
5.4560902295690886e-06 -0.19093581902426732 0
5.4796356483352706e-06 -0.22605935247499978 0
6.1349831326646608e-06 -0.27200029303572276 0
5.9773672628301234e-06 -0.33552802955362193 0
6.9198671248845872e-06 -0.42787106400296249 0
7.7215651030024624e-06 -0.57559581745825672 0
7.8061738331636173e-06 -0.85343084023946114 0
5.1159991409285561e-06 -1.3623949767542103 0
-4.6886892506663001e-06 -1.7707177726949865 0
-5.8606258433360375e-06 -1.8745961927327213 0
-9.1419403600362394e-08 -1.8892984921687259 0
3.1851664866560006e-08 -1.8908068406018497 0
7.7372938345300784e-09 -1.8898992684332758 0
1.347640289698796e-09 -1.8876135847752653 0
1.8605037677528142e-10 -1.8834918012768984 0
2.0729923462885912e-11 -1.8768177784807534 0
1.8779503006436663e-12 -1.8670703492519303 0
1.3661054148356059e-13 -1.8545519665922889 0
7.6941916154165077e-15 -1.8398465685174585 0
2.7159402005475548e-16 -1.8237611404499674 0
5.3133372525748747e-20 -1.7017664453759462 0
4.5684927002213667e-06 -0.095975466628499276 0
4.9587753093931317e-06 -0.1186487328157089 0
6.4229096286568331e-06 -0.13924147815271598 0
7.6017994095792999e-06 -0.16278396095109723 0
7.168814248646956e-06 -0.19094916476495427 0
8.1933290638428292e-06 -0.22606985332066135 0
9.6057433636175354e-06 -0.27200587480597116 0
1.0186896167996179e-05 -0.33552671212629814 0
1.2107284541972982e-05 -0.4278711750949587 0
1.3583185044278303e-05 -0.57560482852211403 0
1.4347154689001715e-05 -0.85351651559101271 0
6.5416744989946784e-06 -1.3626489266809516 0
1.7201395105098425e-06 -1.7708759527503872 0
-8.3826430088987468e-07 -1.8746425045051862 0
1.1440318014516391e-06 -1.8893111989332572 0
2.1878581608499513e-07 -1.890814643354467 0
3.0890317931009791e-08 -1.8899116652946641 0
4.2565918963399171e-09 -1.8876365676540072 0
5.2310879209960293e-10 -1.8835316474840398 0
5.4651980117919468e-11 -1.8768807697351177 0
4.7409020094743677e-12 -1.867160696209476 0
3.3299006864554681e-13 -1.854670593780311 0
1.819864595939398e-14 -1.8399907844078804 0
6.2617068680609128e-16 -1.823925499360926 0
1.2085287769460969e-19 -1.7014948837822284 0
5.1147838689998564e-06 -0.096009213160811346 0
6.653495531026994e-06 -0.11867953640967074 0
8.3782613486616114e-06 -0.13926855823379947 0
9.685127316359913e-06 -0.16280591632639632 0
1.1669443395050984e-05 -0.19096201877671268 0
1.2937752507664713e-05 -0.22607415095563874 0
1.33042374882833e-05 -0.27199808982514118 0
1.5423072819165372e-05 -0.33550643311153883 0
1.5545315750825566e-05 -0.42784260717161887 0
1.6687867202506174e-05 -0.57560607807253672 0
1.5417422511904076e-05 -0.85372981644733892 0
9.0660435004332268e-06 -1.3633593784897016 0
3.9787131083758669e-06 -1.771341891511647 0
6.9247977676490782e-06 -1.8747636248317396 0
3.3730751680180588e-06 -1.8893439343058753 0
6.0464646595507475e-07 -1.8908304886400531 0
9.2771761197097961e-08 -1.8899353282489642 0
1.2291910782915951e-08 -1.8876807357232226 0
1.3832487144038196e-09 -1.8836091658483087 0
1.3275211780981828e-10 -1.877004517682729 0
1.0694898900141023e-11 -1.8673389318204034 0
7.0475644917541916e-13 -1.8549049400219415 0
3.6523607642558382e-14 -1.8402781411589237 0
1.2035140282653572e-15 -1.8242625258123659 0
2.2317943059865015e-19 -1.7008454048233264 0
5.3706144759379128e-06 -0.096074077040915876 0
7.1420574784384233e-06 -0.11872928378324826 0
8.4626694835433113e-06 -0.13930292871201366 0
1.2225941367771968e-05 -0.1628216127570245 0
1.6007110634906707e-05 -0.19095482076922493 0
1.7942300098416568e-05 -0.22603420292896004 0
1.8534388678742033e-05 -0.27190957533117993 0
2.1694819454082071e-05 -0.33537293540312663 0
2.5768489109623267e-05 -0.42767422309028746 0
2.9125504920787442e-05 -0.57550415089068796 0
3.1218418042105535e-05 -0.85423144080161095 0
1.9834071088184232e-05 -1.3653356612606837 0
3.2339806243722172e-05 -1.7726666415764607 0
2.0203618924243375e-05 -1.8750776907770013 0
7.7616899413826738e-06 -1.8894098033402593 0
1.6997774978744072e-06 -1.8908576765120475 0
2.5435231937438331e-07 -1.8899735800469288 0
2.9730051973299883e-08 -1.8877527368219795 0
3.0160140492519945e-09 -1.8837374939043414 0
2.6599205934469439e-10 -1.8772118597393923 0
1.9999050042424694e-11 -1.8676387700972854 0
1.244963012200876e-12 -1.8552959773627575 0
6.1685728174328553e-14 -1.8407539076578596 0
1.9553631702220483e-15 -1.8248317933400315 0
3.2825652204146112e-19 -1.6995618744045793 0
1.2426783737158074e-05 -0.09612204543662671 0
1.6551285622778607e-05 -0.11872769922133204 0
1.9755417811364871e-05 -0.13924889439938057 0
2.3121402927864181e-05 -0.16270513533861491 0
2.8084360542141177e-05 -0.19075238280089599 0
3.047265534050813e-05 -0.22570977899653255 0
3.4753529646934164e-05 -0.27141885275329464 0
4.1595771832683911e-05 -0.3346875974438791 0
4.8274333938078923e-05 -0.4268264624784186 0
5.6449381208349685e-05 -0.57478657072624573 0
6.6980608490317201e-05 -0.85539968070003736 0
7.5493101116875348e-05 -1.3712075674468469 0
7.4877133141837001e-05 -1.7763935256597891 0
5.7038027233264185e-05 -1.8758523274570746 0
2.3359255532183644e-05 -1.8895462722039464 0
4.9245562000136776e-06 -1.8909026592642377 0
5.3491200451401811e-07 -1.8900287472454365 0
5.4249698612992763e-08 -1.887857246736353 0
5.0286894326670856e-09 -1.883927310755535 0
4.1597551739947195e-10 -1.8775148408490274 0
2.9826212700126265e-11 -1.8680961266728544 0
1.8056960077220073e-12 -1.8558836023965031 0
8.6372272730185062e-14 -1.8414153766267953 0
2.6484907629416994e-15 -1.82560533871278 0
3.5322503910355134e-19 -1.6974895195716042 0
4.052401834548299e-05 -0.095626834196732832 0
4.9523554928801912e-05 -0.11809581983647867 0
5.6757374529036378e-05 -0.13845167963391836 0
6.3097590429239472e-05 -0.16167412348487972 0
7.0170042844884596e-05 -0.1893685959646316 0
7.7138894160045708e-05 -0.22382530407933507 0
8.6377766140168156e-05 -0.26886355391880351 0
9.5653819563413608e-05 -0.33135379136747983 0
0.00010789092723860642 -0.42284392893015782 0
0.00012444576675619615 -0.57139631415673342 0
0.00015500416723213483 -0.85923399183438975 0
0.00023059114903306143 -1.3911490618081044 0
0.00027794044899825059 -1.7867639593900113 0
0.00016808619493510814 -1.8774952671407048 0
4.8517746337412163e-05 -1.8897950771103351 0
7.0194651590421033e-06 -1.8909684144228185 0
7.184722258094714e-07 -1.8900995191928465 0
6.9853999531396543e-08 -1.8879921551074876 0
6.2608604501706374e-09 -1.8841793241927589 0
5.032579019599164e-10 -1.8779223620534518 0
3.5304774538878597e-11 -1.8687386755415907 0
2.1332791170024849e-12 -1.8566650309015651 0
9.807070685143217e-14 -1.8421279642933051 0
2.9032127775363819e-15 -1.8263016494980948 0
2.3323718084893998e-19 -1.6949496112457996 0
7.8767991079410935e-05 -0.090367825211107145 0
9.4226529927049008e-05 -0.11199721075538141 0
0.00010606120485607046 -0.13131131937542428 0
0.00011749278496608319 -0.15368394311933636 0
0.00012751174134044557 -0.18047665536812499 0
0.00013657272333842242 -0.21389249585807582 0
0.00014690454870961686 -0.25769889087020148 0
0.00016132953741076044 -0.31885797633195961 0
0.00017784427655940678 -0.40935167406337147 0
0.00020085889849132598 -0.56184005332201203 0
0.00024552575052981431 -0.88358590299214557 0
0.00034068231272021293 -1.4560781982171165 0
0.00032540222235157853 -1.8102048908071433 0
0.00017199204817384571 -1.8805726297208216 0
4.3788727115787449e-05 -1.8902208060555288 0
5.5495335337394898e-06 -1.8910658332255721 0
6.2390636468898621e-07 -1.8901954174272535 0
6.2245120923085651e-08 -1.8881613109906021 0
5.5907089714055393e-09 -1.8844776750754804 0
4.4623108697863013e-10 -1.8784328599654416 0
3.082887586706e-11 -1.869448682122886 0
1.7836357904457055e-12 -1.857365051577933 0
7.9364298062050775e-14 -1.8425202352325092 0
2.2610769452335989e-15 -1.8262241994207586 0
5.4993475638071998e-20 -1.6929955275495381 0
-0 -0 0
-0 -0 0
-0 -0 0
-0 -0 0
-0 -0 0
-0 -0 0
-0 -0 0
9.4629347333886009e-05 0.10967284966208783 0
0.00011914264070447012 0.16332045592049454 0
-0 -0 0
-0 -0 0
-0 -0 0
8.3972592227081369e-05 0.094018462032182254 0
9.8079012418385894e-05 0.12209558871104877 0
0.00011795705644085662 0.1762750484310068 0
-0 -0 0
-0 -0 0
-0 -0 0
5.9321008578758706e-05 0.097931385178353397 0
7.3208093977519947e-05 0.12478431508034291 0
9.0351224151617246e-05 0.17922135852177482 0
-0 -0 0
-0 -0 0
-0 -0 0
2.6839759473843652e-05 0.10058414500290865 0
3.3954561459298196e-05 0.12686653838547357 0
4.4387675899299224e-05 0.18134531857490216 0
-0 -0 0
-0 -0 0
-0 -0 0
8.7469976041998308e-06 0.1007867524724847 0
1.2508438960660412e-05 0.12717145058142806 0
1.6973779748083642e-05 0.18173292758097925 0
-0 -0 0
-0 -0 0
-0 -0 0
3.0381604940027508e-06 0.10070482800401732 0
4.2178482592137466e-06 0.12710522854378781 0
4.7536645336713277e-06 0.18162637269395715 0
-0 -0 0
-0 -0 0
-0 -0 0
-7.4484313216125794e-07 0.10064230228982175 0
-1.2587164013144347e-06 0.12703821317874783 0
-2.5628007977420526e-06 0.18153262414703247 0
-0 -0 0
-0 -0 0
-0 -0 0
-2.5869121809210631e-06 0.10061111716908154 0
-3.3097257139288028e-06 0.12700238771043554 0
-5.1067978882472268e-06 0.18148413896870905 0
-0 -0 0
-0 -0 0
-0 -0 0
-8.5340859115221244e-07 0.10059806502327712 0
-1.6960738567352877e-06 0.12698792739842829 0
-3.8953780662161999e-06 0.18146534335217548 0
-0 -0 0
-0 -0 0
-0 -0 0
-8.6580082298752527e-07 0.10059844885243142 0
-1.6999007336261787e-06 0.12698802696842199 0
-3.3859706396943872e-06 0.18146494150739367 0
-0 -0 0
-0 -0 0
-0 -0 0
-3.4290372480225155e-06 0.10061090113174907 0
-4.2683985679245518e-06 0.12700204153661024 0
-5.610520720927195e-06 0.18148304022169909 0
-0 -0 0
-0 -0 0
-0 -0 0
-4.7685624798205779e-06 0.10064042625379993 0
-6.0541013671878369e-06 0.1270359496842326 0
-8.0614679559152756e-06 0.18152970931847498 0
-0 -0 0
-0 -0 0
-0 -0 0
-5.2533382613125432e-06 0.10070165168070173 0
-7.4808442050762497e-06 0.12710139105116713 0
-1.0925191722073899e-05 0.18162166925217749 0
-0 -0 0
-0 -0 0
-0 -0 0
-9.3380956340093915e-06 0.10078226051584928 0
-1.3567426443834979e-05 0.12716724249854644 0
-1.9661621247634896e-05 0.18172758637711731 0
-0 -0 0
-0 -0 0
-0 -0 0
-2.8108187656934811e-05 0.10057874063517784 0
-3.5579751671114687e-05 0.12686115497791409 0
-4.6632668653178843e-05 0.18133826173146403 0
-0 -0 0
-0 -0 0
-0 -0 0
-5.9077777265458997e-05 0.097925439583530477 0
-7.2429612385120959e-05 0.12477796241661966 0
-8.926587369520312e-05 0.1792143129774279 0
-0 -0 0
-0 -0 0
-0 -0 0
-8.1154388604874939e-05 0.094012160031481162 0
-9.4730274705531552e-05 0.12208926502316379 0
-0.00011384099931589319 0.17626899823120271 0
-0 -0 0
-0 -0 0
-0 -0 0
-0 -0 0
-9.1332118055127413e-05 0.10966623660950349 0
-0.00011461680973713515 0.1633139433027157 0
-0 -0 0
-0 -0 0
-0 -0 0
-0 -0 0
-0 -0 0
-0 -0 0
-0 -0 0
-0 -0 0
-0 -0 0
-0 -0 0
-0 -0 0
-0 -0 0
-0 -0 0
-0 -0 0
-0 -0 0
-0 -0 0
-0 -0 0
-0 -0 0
-0 -0 0
-0 -0 0
-0 -0 0
-0 -0 0
-0 -0 0
-0 -0 0
-0 -0 0
-0 -0 0
-0 -0 0
-0 -0 0
-0 -0 0
-0 -0 0
-0 -0 0
-0 -0 0
-0 -0 0
-0 -0 0
-0 -0 0
-0 -0 0
-0 -0 0
-0 -0 0
-0 -0 0
-0 -0 0
-0 -0 0
-0 -0 0
-0 -0 0
-0 -0 0
-0 -0 0
-0 -0 0
-0 -0 0
-0 -0 0
-0 -0 0
-0 -0 0
-0 -0 0
-0 -0 0
-0 -0 0
-0 -0 0
-0 -0 0
-0 -0 0
-0 -0 0
-0 -0 0
-0 -0 0
-0 -0 0
-0 -0 0
-0 -0 0
-0 -0 0
-0 -0 0
-0 -0 0
-0 -0 0
-0 -0 0
-0 -0 0
-0 -0 0
-0 -0 0
-0 -0 0
-0 -0 0
-0 -0 0
-0 -0 0
-0 -0 0
-0 -0 0
-0 -0 0
-0 -0 0
-0 -0 0
-0 -0 0
-0 -0 0
-0 -0 0
-0 -0 0
-0 -0 0
-0 -0 0
-0 -0 0
-0 -0 0
-0 -0 0
-0 -0 0
-0 -0 0
-0 -0 0
-0 -0 0
-0 -0 0
-0 -0 0
-0 -0 0
-0 -0 0
-0 -0 0
-0 -0 0
-0 -0 0
-0 -0 0
-0 -0 0
-0 -0 0
-0 -0 0
-0 -0 0
-0 -0 0
-0 -0 0
-0 -0 0
-0 -0 0
-0 -0 0
-0 -0 0
-0 -0 0
-0 -0 0
-0 -0 0
-0 -0 0
-0 -0 0
-0 -0 0
-0 -0 0
-0 -0 0
-0 -0 0
-0 -0 0
-0 -0 0
-0 -0 0
-0 -0 0
-0 -0 0
-0 -0 0
-0 -0 0
-0 -0 0
-0 -0 0
-0 -0 0
-0 -0 0
-0 -0 0
-0 -0 0
-0 -0 0
-0 -0 0
-0 -0 0
-0 -0 0
-0 -0 0
-0 -0 0
-0 -0 0
-0 -0 0
-0 -0 0
-0 -0 0
-0 -0 0
-0 -0 0
-0 -0 0
-0 -0 0
-0 -0 0
-0 -0 0
-0 -0 0
-0 -0 0
-0 -0 0
-0 -0 0
-0 -0 0
-0 -0 0
-0 -0 0
-0 -0 0
-0 -0 0
-0 -0 0
-0 -0 0
-0 -0 0
-0 -0 0
-0 -0 0
-0 -0 0
-0 -0 0
-0 -0 0
-0 -0 0
-0 -0 0
-0 -0 0
-0 -0 0
-0 -0 0
-0 -0 0
-0 -0 0
-0 -0 0
-0 -0 0
-0 -0 0
-0 -0 0
-0 -0 0
-0 -0 0
-0 -0 0
-0 -0 0
-0 -0 0
-0 -0 0
-0 -0 0
-0 -0 0
-0 -0 0
-0 -0 0
-0 -0 0
-0 -0 0
-0 -0 0
-0 -0 0
-0 -0 0
-0 -0 0
-0 -0 0
-0 -0 0
-0 -0 0
