# vtk DataFile Version 3.0
SPH particles (WCSPH) - legacy PolyData
ASCII
DATASET POLYDATA
POINTS 681 float
0.050000000000000003 0.043318440559320721 0
0.050000000000000003 0.052149059369331029 0
0.050000000000000003 0.061068480137197387 0
0.050000000000000003 0.073342222112058708 0
0.050000000000000003 0.089746148816872276 0
0.050000000000000003 0.10866431363390186 0
0.050000000000000003 0.128401445897705 0
0.050000000000000003 0.14834329613776928 0
0.050000000000000003 0.16833103560464935 0
0.050000000000000003 0.18832854853208109 0
0.050000000000000003 0.20832806452810559 0
0.050000000000000003 0.22832797458934559 0
0.050000000000000003 0.24832795939121244 0
0.050000000000000003 0.26832796125240099 0
0.050000000000000003 0.28832798551668093 0
0.050000000000000003 0.30832811062678517 0
0.050000000000000003 0.32832870245467249 0
0.050000000000000003 0.34833129880312741 0
0.050000000000000003 0.36834179959508684 0
0.050000000000000003 0.38838067770437606 0
0.050000000000000003 0.4085115975832635 0
0.050000000000000003 0.42891159779976595 0
0.050000000000000003 0.45002966875778444 0
0.050000000000000003 0.47301266288908289 0
0.050000000000000003 0.50340865976712879 0
0.070000000000000007 0.042905559896814084 0
0.070000000000000007 0.052190605906051304 0
0.070000000000000007 0.061523565534034402 0
0.070000000000000007 0.073812324053630696 0
0.070000000000000007 0.089946083443813468 0
0.070000000000000007 0.10870894654111654 0
0.070000000000000007 0.12841045158915418 0
0.070000000000000007 0.14834521263592809 0
0.070000000000000007 0.16833143835487974 0
0.070000000000000007 0.18832862998352312 0
0.070000000000000007 0.20832808027139679 0
0.070000000000000007 0.22832797751204315 0
0.070000000000000007 0.24832796004647961 0
0.070000000000000007 0.26832796215348093 0
0.070000000000000007 0.2883279897642923 0
0.070000000000000007 0.30832813114415342 0
0.070000000000000007 0.32832879497075901 0
0.070000000000000007 0.34833168590449581 0
0.070000000000000007 0.368343300328345 0
0.070000000000000007 0.38838607515570356 0
0.070000000000000007 0.4085296387835014 0
0.070000000000000007 0.42896713800037584 0
0.070000000000000007 0.45017714852705221 0
0.070000000000000007 0.4732652144311012 0
0.070000000000000007 0.50300918625254532 0
0.090000000000000011 0.042928768810254696 0
0.090000000000000011 0.05225465350625632 0
0.090000000000000011 0.061635857370292188 0
0.090000000000000011 0.073950992766968801 0
0.090000000000000011 0.090021640069085945 0
0.090000000000000011 0.10872781293917499 0
0.090000000000000011 0.12841416773389694 0
0.090000000000000011 0.14834596494617783 0
0.090000000000000011 0.16833159416402643 0
0.090000000000000011 0.1883286616816299 0
0.090000000000000011 0.20832808648028664 0
0.090000000000000011 0.22832797868249366 0
0.090000000000000011 0.24832796031296511 0
0.090000000000000011 0.26832796251911567 0
0.090000000000000011 0.28832799147887145 0
0.090000000000000011 0.30832813943450965 0
0.090000000000000011 0.32832883268076984 0
0.090000000000000011 0.3483318467669384 0
0.090000000000000011 0.36834394360901873 0
0.090000000000000011 0.38838847612984911 0
0.090000000000000011 0.4085378581960375 0
0.090000000000000011 0.42899173894678766 0
0.090000000000000011 0.45023421508705042 0
0.090000000000000011 0.47333616929287942 0
0.090000000000000011 0.50295940173709563 0
0.11000000000000001 0.042937536780784338 0
0.11000000000000001 0.052273689554104483 0
0.11000000000000001 0.061665966843021891 0
0.11000000000000001 0.073986913909355426 0
0.11000000000000001 0.090045096454525672 0
0.11000000000000001 0.1087358263287037 0
0.11000000000000001 0.12841607399329283 0
0.11000000000000001 0.14834637389408381 0
0.11000000000000001 0.16833168001829821 0
0.11000000000000001 0.18832867930983666 0
0.11000000000000001 0.20832808997842805 0
0.11000000000000001 0.2283279793526867 0
0.11000000000000001 0.24832796046774464 0
0.11000000000000001 0.26832796272700365 0
0.11000000000000001 0.28832799243446172 0
0.11000000000000001 0.30832814398152231 0
0.11000000000000001 0.32832885300867398 0
0.11000000000000001 0.3483319315202773 0
0.11000000000000001 0.3683442702945256 0
0.11000000000000001 0.38838961949028006 0
0.11000000000000001 0.40854136486333098 0
0.11000000000000001 0.42900055433851014 0
0.11000000000000001 0.45025042312266256 0
0.11000000000000001 0.47335468324146435 0
0.11000000000000001 0.50295408825595322 0
0.13 0.042938934827303606 0
0.13 0.052278197679738354 0
0.13 0.061673512869966897 0
0.13 0.07399619975378384 0
0.13 0.090051737384626254 0
0.13 0.10873850940142614 0
0.13 0.12841683590951916 0
0.13 0.14834655723275778 0
0.13 0.16833172083383749 0
0.13 0.18832868796230681 0
0.13 0.20832809173500549 0
0.13 0.22832797969624449 0
0.13 0.2483279605481144 0
0.13 0.26832796283057486 0
0.13 0.28832799289534533 0
0.13 0.3083281461132284 0
0.13 0.32832886222441304 0
0.13 0.34833196830022944 0
0.13 0.36834440372235189 0
0.13 0.38839004818149325 0
0.13 0.4085425349902348 0
0.13 0.42900310868705355 0
0.13 0.45025457631562987 0
0.13 0.47335923685605447 0
0.13 0.50295434928785332 0
0.15000000000000002 0.042939156110110337 0
0.15000000000000002 0.052279176359750365 0
0.15000000000000002 0.06167526570460953 0
0.15000000000000002 0.073998461728692358 0
0.15000000000000002 0.090053476169701885 0
0.15000000000000002 0.10873929576174451 0
0.15000000000000002 0.12841709079362329 0
0.15000000000000002 0.14834662606520801 0
0.15000000000000002 0.16833173743888408 0
0.15000000000000002 0.18832869166908381 0
0.15000000000000002 0.20832809251449483 0
0.15000000000000002 0.228327979852916 0
0.15000000000000002 0.24832796058518664 0
0.15000000000000002 0.26832796287534649 0
0.15000000000000002 0.2883279930856697 0
0.15000000000000002 0.30832814695962396 0
0.15000000000000002 0.32832886571919506 0
0.15000000000000002 0.34833198147748889 0
0.15000000000000002 0.36834444822368273 0
0.15000000000000002 0.38839017902589384 0
0.15000000000000002 0.40854285737081336 0
0.15000000000000002 0.42900374527134505 0
0.15000000000000002 0.45025553674584062 0
0.15000000000000002 0.47336027048869628 0
0.15000000000000002 0.50295467069182831 0
0.17000000000000004 0.042939201673650278 0
0.17000000000000004 0.052279384409962257 0
0.17000000000000004 0.061675649590482176 0
0.17000000000000004 0.073998974487216942 0
0.17000000000000004 0.090053893481975247 0
0.17000000000000004 0.10873950128366333 0
0.17000000000000004 0.1284171645448566 0
0.17000000000000004 0.14834664804337536 0
0.17000000000000004 0.16833174318611857 0
0.17000000000000004 0.18832869303045185 0
0.17000000000000004 0.20832809281320575 0
0.17000000000000004 0.22832797991488959 0
0.17000000000000004 0.2483279605999946 0
0.17000000000000004 0.26832796289179212 0
0.17000000000000004 0.28832799315174434 0
0.17000000000000004 0.30832814724018764 0
0.17000000000000004 0.32832886681825207 0
0.17000000000000004 0.34833198537282412 0
0.17000000000000004 0.36834446046258085 0
0.17000000000000004 0.38839021222569992 0
0.17000000000000004 0.40854293275052894 0
0.17000000000000004 0.42900388391230004 0
0.17000000000000004 0.45025573612251402 0
0.17000000000000004 0.47336048273573245 0
0.17000000000000004 0.50295477109325792 0
0.19 0.042939209549932307 0
0.19 0.052279419582415936 0
0.19 0.061675714970563532 0
0.19 0.073999063232821877 0
0.19 0.090053968317227784 0
0.19 0.10873954025387049 0
0.19 0.12841717949690368 0
0.19 0.14834665280545653 0
0.19 0.16833174450529748 0
0.19 0.1883286933573772 0
0.19 0.2083280928873866 0
0.19 0.22832797993066728 0
0.19 0.24832796060378828 0
0.19 0.26832796289571542 0
0.19 0.28832799316675861 0
0.19 0.30832814730152014 0
0.19 0.32832886704828651 0
0.19 0.34833198614852617 0
0.19 0.36834446276834404 0
0.19 0.38839021812841135 0
0.19 0.40854294544063696 0
0.19 0.42900390624233353 0
0.19 0.45025576733821049 0
0.19 0.47336051570063309 0
0.19 0.50295478948803274 0
0.21000000000000002 0.042939201673650285 0
0.21000000000000002 0.052279384409962257 0
0.21000000000000002 0.061675649590482162 0
0.21000000000000002 0.073998974487216942 0
0.21000000000000002 0.090053893481975233 0
0.21000000000000002 0.10873950128366333 0
0.21000000000000002 0.1284171645448566 0
0.21000000000000002 0.14834664804337536 0
0.21000000000000002 0.16833174318611857 0
0.21000000000000002 0.18832869303045185 0
0.21000000000000002 0.20832809281320575 0
0.21000000000000002 0.22832797991488959 0
0.21000000000000002 0.2483279605999946 0
0.21000000000000002 0.26832796289179212 0
0.21000000000000002 0.28832799315174434 0
0.21000000000000002 0.30832814724018764 0
0.21000000000000002 0.32832886681825207 0
0.21000000000000002 0.34833198537282412 0
0.21000000000000002 0.36834446046258085 0
0.21000000000000002 0.38839021222569992 0
0.21000000000000002 0.40854293275052894 0
0.21000000000000002 0.42900388391230004 0
0.21000000000000002 0.45025573612251402 0
0.21000000000000002 0.47336048273573245 0
0.21000000000000002 0.50295477109325792 0
0.23000000000000004 0.042939156110110337 0
0.23000000000000004 0.052279176359750365 0
0.23000000000000004 0.06167526570460953 0
0.23000000000000004 0.073998461728692358 0
0.23000000000000004 0.090053476169701885 0
0.23000000000000004 0.10873929576174451 0
0.23000000000000004 0.12841709079362329 0
0.23000000000000004 0.14834662606520801 0
0.23000000000000004 0.16833173743888408 0
0.23000000000000004 0.18832869166908381 0
0.23000000000000004 0.20832809251449483 0
0.23000000000000004 0.228327979852916 0
0.23000000000000004 0.24832796058518664 0
0.23000000000000004 0.26832796287534649 0
0.23000000000000004 0.2883279930856697 0
0.23000000000000004 0.30832814695962396 0
0.23000000000000004 0.32832886571919506 0
0.23000000000000004 0.34833198147748889 0
0.23000000000000004 0.36834444822368273 0
0.23000000000000004 0.38839017902589384 0
0.23000000000000004 0.40854285737081336 0
0.23000000000000004 0.42900374527134505 0
0.23000000000000004 0.45025553674584062 0
0.23000000000000004 0.47336027048869628 0
0.23000000000000004 0.50295467069182831 0
0.25000000000000006 0.042938934827303606 0
0.25000000000000006 0.052278197679738354 0
0.25000000000000006 0.061673512869966897 0
0.25000000000000006 0.07399619975378384 0
0.25000000000000006 0.090051737384626254 0
0.25000000000000006 0.10873850940142614 0
0.25000000000000006 0.12841683590951916 0
0.25000000000000006 0.14834655723275778 0
0.25000000000000006 0.16833172083383749 0
0.25000000000000006 0.18832868796230681 0
0.25000000000000006 0.20832809173500549 0
0.25000000000000006 0.22832797969624449 0
0.25000000000000006 0.2483279605481144 0
0.25000000000000006 0.26832796283057486 0
0.25000000000000006 0.28832799289534533 0
0.25000000000000006 0.3083281461132284 0
0.25000000000000006 0.32832886222441304 0
0.25000000000000006 0.34833196830022944 0
0.25000000000000006 0.36834440372235189 0
0.25000000000000006 0.38839004818149325 0
0.25000000000000006 0.4085425349902348 0
0.25000000000000006 0.42900310868705355 0
0.25000000000000006 0.45025457631562987 0
0.25000000000000006 0.47335923685605447 0
0.25000000000000006 0.50295434928785332 0
0.27000000000000002 0.042937536780784338 0
0.27000000000000002 0.052273689554104476 0
0.27000000000000002 0.061665966843021891 0
0.27000000000000002 0.073986913909355426 0
0.27000000000000002 0.090045096454525672 0
0.27000000000000002 0.1087358263287037 0
0.27000000000000002 0.12841607399329283 0
0.27000000000000002 0.14834637389408381 0
0.27000000000000002 0.16833168001829821 0
0.27000000000000002 0.18832867930983666 0
0.27000000000000002 0.20832808997842805 0
0.27000000000000002 0.2283279793526867 0
0.27000000000000002 0.24832796046774464 0
0.27000000000000002 0.26832796272700365 0
0.27000000000000002 0.28832799243446172 0
0.27000000000000002 0.30832814398152231 0
0.27000000000000002 0.32832885300867398 0
0.27000000000000002 0.3483319315202773 0
0.27000000000000002 0.3683442702945256 0
0.27000000000000002 0.38838961949028006 0
0.27000000000000002 0.40854136486333098 0
0.27000000000000002 0.42900055433851014 0
0.27000000000000002 0.45025042312266256 0
0.27000000000000002 0.47335468324146435 0
0.27000000000000002 0.50295408825595322 0
0.29000000000000004 0.042928768810254703 0
0.29000000000000004 0.05225465350625632 0
0.29000000000000004 0.061635857370292188 0
0.29000000000000004 0.073950992766968801 0
0.29000000000000004 0.090021640069085945 0
0.29000000000000004 0.10872781293917499 0
0.29000000000000004 0.12841416773389694 0
0.29000000000000004 0.14834596494617783 0
0.29000000000000004 0.16833159416402643 0
0.29000000000000004 0.1883286616816299 0
0.29000000000000004 0.20832808648028664 0
0.29000000000000004 0.22832797868249366 0
0.29000000000000004 0.24832796031296511 0
0.29000000000000004 0.26832796251911567 0
0.29000000000000004 0.28832799147887145 0
0.29000000000000004 0.30832813943450965 0
0.29000000000000004 0.32832883268076984 0
0.29000000000000004 0.3483318467669384 0
0.29000000000000004 0.36834394360901873 0
0.29000000000000004 0.38838847612984911 0
0.29000000000000004 0.4085378581960375 0
0.29000000000000004 0.42899173894678766 0
0.29000000000000004 0.45023421508705042 0
0.29000000000000004 0.47333616929287942 0
0.29000000000000004 0.50295940173709563 0
0.31000000000000005 0.042905559896814077 0
0.31000000000000005 0.052190605906051304 0
0.31000000000000005 0.061523565534034402 0
0.31000000000000005 0.073812324053630696 0
0.31000000000000005 0.089946083443813468 0
0.31000000000000005 0.10870894654111654 0
0.31000000000000005 0.12841045158915418 0
0.31000000000000005 0.14834521263592809 0
0.31000000000000005 0.16833143835487974 0
0.31000000000000005 0.18832862998352312 0
0.31000000000000005 0.20832808027139679 0
0.31000000000000005 0.22832797751204315 0
0.31000000000000005 0.24832796004647961 0
0.31000000000000005 0.26832796215348093 0
0.31000000000000005 0.2883279897642923 0
0.31000000000000005 0.30832813114415342 0
0.31000000000000005 0.32832879497075901 0
0.31000000000000005 0.34833168590449581 0
0.31000000000000005 0.368343300328345 0
0.31000000000000005 0.38838607515570356 0
0.31000000000000005 0.4085296387835014 0
0.31000000000000005 0.42896713800037584 0
0.31000000000000005 0.45017714852705221 0
0.31000000000000005 0.4732652144311012 0
0.31000000000000005 0.50300918625254532 0
0.33000000000000002 0.043318440559320708 0
0.33000000000000002 0.052149059369331015 0
0.33000000000000002 0.061068480137197387 0
0.33000000000000002 0.073342222112058708 0
0.33000000000000002 0.08974614881687229 0
0.33000000000000002 0.10866431363390186 0
0.33000000000000002 0.128401445897705 0
0.33000000000000002 0.14834329613776928 0
0.33000000000000002 0.16833103560464935 0
0.33000000000000002 0.18832854853208109 0
0.33000000000000002 0.20832806452810559 0
0.33000000000000002 0.22832797458934559 0
0.33000000000000002 0.24832795939121244 0
0.33000000000000002 0.26832796125240099 0
0.33000000000000002 0.28832798551668093 0
0.33000000000000002 0.30832811062678517 0
0.33000000000000002 0.32832870245467249 0
0.33000000000000002 0.34833129880312741 0
0.33000000000000002 0.36834179959508684 0
0.33000000000000002 0.38838067770437606 0
0.33000000000000002 0.4085115975832635 0
0.33000000000000002 0.42891159779976595 0
0.33000000000000002 0.45002966875778444 0
0.33000000000000002 0.47301266288908289 0
0.33000000000000002 0.50340865976712879 0
0 0 0
0 0.020000000000000004 0
0 0.040000000000000001 0
0 0.54999999999999993 0
0 0.56000000000000005 0
0 0.58000000000000007 0
0.02 0 0
0.02 0.020000000000000004 0
0.02 0.040000000000000001 0
0.02 0.54999999999999993 0
0.02 0.56000000000000005 0
0.02 0.58000000000000007 0
0.040000000000000001 0 0
0.040000000000000001 0.020000000000000004 0
0.040000000000000001 0.040000000000000001 0
0.040000000000000001 0.54999999999999993 0
0.040000000000000001 0.56000000000000005 0
0.040000000000000001 0.58000000000000007 0
0.059999999999999998 0 0
0.059999999999999998 0.020000000000000004 0
0.059999999999999998 0.040000000000000001 0
0.059999999999999998 0.54999999999999993 0
0.059999999999999998 0.56000000000000005 0
0.059999999999999998 0.58000000000000007 0
0.080000000000000002 0 0
0.080000000000000002 0.020000000000000004 0
0.080000000000000002 0.040000000000000001 0
0.080000000000000002 0.54999999999999993 0
0.080000000000000002 0.56000000000000005 0
0.080000000000000002 0.58000000000000007 0
0.10000000000000001 0 0
0.10000000000000001 0.020000000000000004 0
0.10000000000000001 0.040000000000000001 0
0.10000000000000001 0.54999999999999993 0
0.10000000000000001 0.56000000000000005 0
0.10000000000000001 0.58000000000000007 0
0.12 0 0
0.12 0.020000000000000004 0
0.12 0.040000000000000001 0
0.12 0.54999999999999993 0
0.12 0.56000000000000005 0
0.12 0.58000000000000007 0
0.14000000000000001 0 0
0.14000000000000001 0.020000000000000004 0
0.14000000000000001 0.040000000000000001 0
0.14000000000000001 0.54999999999999993 0
0.14000000000000001 0.56000000000000005 0
0.14000000000000001 0.58000000000000007 0
0.16 0 0
0.16 0.020000000000000004 0
0.16 0.040000000000000001 0
0.16 0.54999999999999993 0
0.16 0.56000000000000005 0
0.16 0.58000000000000007 0
0.17999999999999999 0 0
0.17999999999999999 0.020000000000000004 0
0.17999999999999999 0.040000000000000001 0
0.17999999999999999 0.54999999999999993 0
0.17999999999999999 0.56000000000000005 0
0.17999999999999999 0.58000000000000007 0
0.20000000000000001 0 0
0.20000000000000001 0.020000000000000004 0
0.20000000000000001 0.040000000000000001 0
0.20000000000000001 0.54999999999999993 0
0.20000000000000001 0.56000000000000005 0
0.20000000000000001 0.58000000000000007 0
0.22 0 0
0.22 0.020000000000000004 0
0.22 0.040000000000000001 0
0.22 0.54999999999999993 0
0.22 0.56000000000000005 0
0.22 0.58000000000000007 0
0.23999999999999999 0 0
0.23999999999999999 0.020000000000000004 0
0.23999999999999999 0.040000000000000001 0
0.23999999999999999 0.54999999999999993 0
0.23999999999999999 0.56000000000000005 0
0.23999999999999999 0.58000000000000007 0
0.26000000000000001 0 0
0.26000000000000001 0.020000000000000004 0
0.26000000000000001 0.040000000000000001 0
0.26000000000000001 0.54999999999999993 0
0.26000000000000001 0.56000000000000005 0
0.26000000000000001 0.58000000000000007 0
0.28000000000000003 0 0
0.28000000000000003 0.020000000000000004 0
0.28000000000000003 0.040000000000000001 0
0.28000000000000003 0.54999999999999993 0
0.28000000000000003 0.56000000000000005 0
0.28000000000000003 0.58000000000000007 0
0.29999999999999999 0 0
0.29999999999999999 0.020000000000000004 0
0.29999999999999999 0.040000000000000001 0
0.29999999999999999 0.54999999999999993 0
0.29999999999999999 0.56000000000000005 0
0.29999999999999999 0.58000000000000007 0
0.32000000000000001 0 0
0.32000000000000001 0.020000000000000004 0
0.32000000000000001 0.040000000000000001 0
0.32000000000000001 0.54999999999999993 0
0.32000000000000001 0.56000000000000005 0
0.32000000000000001 0.58000000000000007 0
0.34000000000000002 0 0
0.34000000000000002 0.020000000000000004 0
0.34000000000000002 0.040000000000000001 0
0.34000000000000002 0.54999999999999993 0
0.34000000000000002 0.56000000000000005 0
0.34000000000000002 0.58000000000000007 0
0.35999999999999999 0 0
0.35999999999999999 0.020000000000000004 0
0.35999999999999999 0.040000000000000001 0
0.35999999999999999 0.54999999999999993 0
0.35999999999999999 0.56000000000000005 0
0.35999999999999999 0.58000000000000007 0
0.38 0 0
0.38 0.020000000000000004 0
0.38 0.040000000000000001 0
0.38 0.54999999999999993 0
0.38 0.56000000000000005 0
0.38 0.58000000000000007 0
0.40000000000000002 0 0
0.40000000000000002 0.020000000000000004 0
0.40000000000000002 0.040000000000000001 0
0.40000000000000002 0.54999999999999993 0
0.40000000000000002 0.56000000000000005 0
0.40000000000000002 0.58000000000000007 0
0.41999999999999998 0 0
0.41999999999999998 0.020000000000000004 0
0.41999999999999998 0.040000000000000001 0
0.41999999999999998 0.54999999999999993 0
0.41999999999999998 0.56000000000000005 0
0.41999999999999998 0.58000000000000007 0
0.44 0 0
0.44 0.020000000000000004 0
0.44 0.040000000000000001 0
0.44 0.54999999999999993 0
0.44 0.56000000000000005 0
0.44 0.58000000000000007 0
0.46000000000000002 0 0
0.46000000000000002 0.020000000000000004 0
0.46000000000000002 0.040000000000000001 0
0.46000000000000002 0.54999999999999993 0
0.46000000000000002 0.56000000000000005 0
0.46000000000000002 0.58000000000000007 0
0.47999999999999998 0 0
0.47999999999999998 0.020000000000000004 0
0.47999999999999998 0.040000000000000001 0
0.47999999999999998 0.54999999999999993 0
0.47999999999999998 0.56000000000000005 0
0.47999999999999998 0.58000000000000007 0
0.5 0 0
0.5 0.020000000000000004 0
0.5 0.040000000000000001 0
0.5 0.54999999999999993 0
0.5 0.56000000000000005 0
0.5 0.58000000000000007 0
0.52000000000000002 0 0
0.52000000000000002 0.020000000000000004 0
0.52000000000000002 0.040000000000000001 0
0.52000000000000002 0.54999999999999993 0
0.52000000000000002 0.56000000000000005 0
0.52000000000000002 0.58000000000000007 0
0.54000000000000004 0 0
0.54000000000000004 0.020000000000000004 0
0.54000000000000004 0.040000000000000001 0
0.54000000000000004 0.54999999999999993 0
0.54000000000000004 0.56000000000000005 0
0.54000000000000004 0.58000000000000007 0
0.56000000000000005 0 0
0.56000000000000005 0.020000000000000004 0
0.56000000000000005 0.040000000000000001 0
0.56000000000000005 0.54999999999999993 0
0.56000000000000005 0.56000000000000005 0
0.56000000000000005 0.58000000000000007 0
0.57999999999999996 0 0
0.57999999999999996 0.020000000000000004 0
0.57999999999999996 0.040000000000000001 0
0.57999999999999996 0.54999999999999993 0
0.57999999999999996 0.56000000000000005 0
0.57999999999999996 0.58000000000000007 0
0.59999999999999998 0 0
0.59999999999999998 0.020000000000000004 0
0.59999999999999998 0.040000000000000001 0
0.59999999999999998 0.54999999999999993 0
0.59999999999999998 0.56000000000000005 0
0.59999999999999998 0.58000000000000007 0
0.62 0 0
0.62 0.020000000000000004 0
0.62 0.040000000000000001 0
0.62 0.54999999999999993 0
0.62 0.56000000000000005 0
0.62 0.58000000000000007 0
0.64000000000000001 0 0
0.64000000000000001 0.020000000000000004 0
0.64000000000000001 0.040000000000000001 0
0.64000000000000001 0.54999999999999993 0
0.64000000000000001 0.56000000000000005 0
0.64000000000000001 0.58000000000000007 0
0.66000000000000003 0 0
0.66000000000000003 0.020000000000000004 0
0.66000000000000003 0.040000000000000001 0
0.66000000000000003 0.54999999999999993 0
0.66000000000000003 0.56000000000000005 0
0.66000000000000003 0.58000000000000007 0
0.68000000000000005 0 0
0.68000000000000005 0.020000000000000004 0
0.68000000000000005 0.040000000000000001 0
0.68000000000000005 0.54999999999999993 0
0.68000000000000005 0.56000000000000005 0
0.68000000000000005 0.58000000000000007 0
0.70000000000000007 0 0
0.70000000000000007 0.020000000000000004 0
0.70000000000000007 0.040000000000000001 0
0.70000000000000007 0.54999999999999993 0
0.70000000000000007 0.56000000000000005 0
0.70000000000000007 0.58000000000000007 0
0.71999999999999997 0 0
0.71999999999999997 0.020000000000000004 0
0.71999999999999997 0.040000000000000001 0
0.71999999999999997 0.54999999999999993 0
0.71999999999999997 0.56000000000000005 0
0.71999999999999997 0.58000000000000007 0
0.73999999999999999 0 0
0.73999999999999999 0.020000000000000004 0
0.73999999999999999 0.040000000000000001 0
0.73999999999999999 0.54999999999999993 0
0.73999999999999999 0.56000000000000005 0
0.73999999999999999 0.58000000000000007 0
0.76000000000000001 0 0
0.76000000000000001 0.020000000000000004 0
0.76000000000000001 0.040000000000000001 0
0.76000000000000001 0.54999999999999993 0
0.76000000000000001 0.56000000000000005 0
0.76000000000000001 0.58000000000000007 0
0.78000000000000003 0 0
0.78000000000000003 0.020000000000000004 0
0.78000000000000003 0.040000000000000001 0
0.78000000000000003 0.54999999999999993 0
0.78000000000000003 0.56000000000000005 0
0.78000000000000003 0.58000000000000007 0
0.80000000000000004 0 0
0.80000000000000004 0.020000000000000004 0
0.80000000000000004 0.040000000000000001 0
0.80000000000000004 0.54999999999999993 0
0.80000000000000004 0.56000000000000005 0
0.80000000000000004 0.58000000000000007 0
0.82000000000000006 0 0
0.82000000000000006 0.020000000000000004 0
0.82000000000000006 0.040000000000000001 0
0.82000000000000006 0.54999999999999993 0
0.82000000000000006 0.56000000000000005 0
0.82000000000000006 0.58000000000000007 0
0.83999999999999997 0 0
0.83999999999999997 0.020000000000000004 0
0.83999999999999997 0.040000000000000001 0
0.83999999999999997 0.54999999999999993 0
0.83999999999999997 0.56000000000000005 0
0.83999999999999997 0.58000000000000007 0
0.85999999999999999 0 0
0.85999999999999999 0.020000000000000004 0
0.85999999999999999 0.040000000000000001 0
0.85999999999999999 0.54999999999999993 0
0.85999999999999999 0.56000000000000005 0
0.85999999999999999 0.58000000000000007 0
0.88 0 0
0.88 0.020000000000000004 0
0.88 0.040000000000000001 0
0.88 0.54999999999999993 0
0.88 0.56000000000000005 0
0.88 0.58000000000000007 0
0.90000000000000002 0 0
0.90000000000000002 0.020000000000000004 0
0.90000000000000002 0.040000000000000001 0
0.90000000000000002 0.54999999999999993 0
0.90000000000000002 0.56000000000000005 0
0.90000000000000002 0.58000000000000007 0
0.92000000000000004 0 0
0.92000000000000004 0.020000000000000004 0
0.92000000000000004 0.040000000000000001 0
0.92000000000000004 0.54999999999999993 0
0.92000000000000004 0.56000000000000005 0
0.92000000000000004 0.58000000000000007 0
0.94000000000000006 0 0
0.94000000000000006 0.020000000000000004 0
0.94000000000000006 0.040000000000000001 0
0.94000000000000006 0.54999999999999993 0
0.94000000000000006 0.56000000000000005 0
0.94000000000000006 0.58000000000000007 0
0.95999999999999996 0 0
0.95999999999999996 0.020000000000000004 0
0.95999999999999996 0.040000000000000001 0
0.95999999999999996 0.54999999999999993 0
0.95999999999999996 0.56000000000000005 0
0.95999999999999996 0.58000000000000007 0
0.97999999999999998 0 0
0.97999999999999998 0.020000000000000004 0
0.97999999999999998 0.040000000000000001 0
0.97999999999999998 0.54999999999999993 0
0.97999999999999998 0.56000000000000005 0
0.97999999999999998 0.58000000000000007 0
1 0 0
1 0.020000000000000004 0
1 0.040000000000000001 0
1 0.54999999999999993 0
1 0.56000000000000005 0
1 0.58000000000000007 0
VERTICES 681 1362
1 0
1 1
1 2
1 3
1 4
1 5
1 6
1 7
1 8
1 9
1 10
1 11
1 12
1 13
1 14
1 15
1 16
1 17
1 18
1 19
1 20
1 21
1 22
1 23
1 24
1 25
1 26
1 27
1 28
1 29
1 30
1 31
1 32
1 33
1 34
1 35
1 36
1 37
1 38
1 39
1 40
1 41
1 42
1 43
1 44
1 45
1 46
1 47
1 48
1 49
1 50
1 51
1 52
1 53
1 54
1 55
1 56
1 57
1 58
1 59
1 60
1 61
1 62
1 63
1 64
1 65
1 66
1 67
1 68
1 69
1 70
1 71
1 72
1 73
1 74
1 75
1 76
1 77
1 78
1 79
1 80
1 81
1 82
1 83
1 84
1 85
1 86
1 87
1 88
1 89
1 90
1 91
1 92
1 93
1 94
1 95
1 96
1 97
1 98
1 99
1 100
1 101
1 102
1 103
1 104
1 105
1 106
1 107
1 108
1 109
1 110
1 111
1 112
1 113
1 114
1 115
1 116
1 117
1 118
1 119
1 120
1 121
1 122
1 123
1 124
1 125
1 126
1 127
1 128
1 129
1 130
1 131
1 132
1 133
1 134
1 135
1 136
1 137
1 138
1 139
1 140
1 141
1 142
1 143
1 144
1 145
1 146
1 147
1 148
1 149
1 150
1 151
1 152
1 153
1 154
1 155
1 156
1 157
1 158
1 159
1 160
1 161
1 162
1 163
1 164
1 165
1 166
1 167
1 168
1 169
1 170
1 171
1 172
1 173
1 174
1 175
1 176
1 177
1 178
1 179
1 180
1 181
1 182
1 183
1 184
1 185
1 186
1 187
1 188
1 189
1 190
1 191
1 192
1 193
1 194
1 195
1 196
1 197
1 198
1 199
1 200
1 201
1 202
1 203
1 204
1 205
1 206
1 207
1 208
1 209
1 210
1 211
1 212
1 213
1 214
1 215
1 216
1 217
1 218
1 219
1 220
1 221
1 222
1 223
1 224
1 225
1 226
1 227
1 228
1 229
1 230
1 231
1 232
1 233
1 234
1 235
1 236
1 237
1 238
1 239
1 240
1 241
1 242
1 243
1 244
1 245
1 246
1 247
1 248
1 249
1 250
1 251
1 252
1 253
1 254
1 255
1 256
1 257
1 258
1 259
1 260
1 261
1 262
1 263
1 264
1 265
1 266
1 267
1 268
1 269
1 270
1 271
1 272
1 273
1 274
1 275
1 276
1 277
1 278
1 279
1 280
1 281
1 282
1 283
1 284
1 285
1 286
1 287
1 288
1 289
1 290
1 291
1 292
1 293
1 294
1 295
1 296
1 297
1 298
1 299
1 300
1 301
1 302
1 303
1 304
1 305
1 306
1 307
1 308
1 309
1 310
1 311
1 312
1 313
1 314
1 315
1 316
1 317
1 318
1 319
1 320
1 321
1 322
1 323
1 324
1 325
1 326
1 327
1 328
1 329
1 330
1 331
1 332
1 333
1 334
1 335
1 336
1 337
1 338
1 339
1 340
1 341
1 342
1 343
1 344
1 345
1 346
1 347
1 348
1 349
1 350
1 351
1 352
1 353
1 354
1 355
1 356
1 357
1 358
1 359
1 360
1 361
1 362
1 363
1 364
1 365
1 366
1 367
1 368
1 369
1 370
1 371
1 372
1 373
1 374
1 375
1 376
1 377
1 378
1 379
1 380
1 381
1 382
1 383
1 384
1 385
1 386
1 387
1 388
1 389
1 390
1 391
1 392
1 393
1 394
1 395
1 396
1 397
1 398
1 399
1 400
1 401
1 402
1 403
1 404
1 405
1 406
1 407
1 408
1 409
1 410
1 411
1 412
1 413
1 414
1 415
1 416
1 417
1 418
1 419
1 420
1 421
1 422
1 423
1 424
1 425
1 426
1 427
1 428
1 429
1 430
1 431
1 432
1 433
1 434
1 435
1 436
1 437
1 438
1 439
1 440
1 441
1 442
1 443
1 444
1 445
1 446
1 447
1 448
1 449
1 450
1 451
1 452
1 453
1 454
1 455
1 456
1 457
1 458
1 459
1 460
1 461
1 462
1 463
1 464
1 465
1 466
1 467
1 468
1 469
1 470
1 471
1 472
1 473
1 474
1 475
1 476
1 477
1 478
1 479
1 480
1 481
1 482
1 483
1 484
1 485
1 486
1 487
1 488
1 489
1 490
1 491
1 492
1 493
1 494
1 495
1 496
1 497
1 498
1 499
1 500
1 501
1 502
1 503
1 504
1 505
1 506
1 507
1 508
1 509
1 510
1 511
1 512
1 513
1 514
1 515
1 516
1 517
1 518
1 519
1 520
1 521
1 522
1 523
1 524
1 525
1 526
1 527
1 528
1 529
1 530
1 531
1 532
1 533
1 534
1 535
1 536
1 537
1 538
1 539
1 540
1 541
1 542
1 543
1 544
1 545
1 546
1 547
1 548
1 549
1 550
1 551
1 552
1 553
1 554
1 555
1 556
1 557
1 558
1 559
1 560
1 561
1 562
1 563
1 564
1 565
1 566
1 567
1 568
1 569
1 570
1 571
1 572
1 573
1 574
1 575
1 576
1 577
1 578
1 579
1 580
1 581
1 582
1 583
1 584
1 585
1 586
1 587
1 588
1 589
1 590
1 591
1 592
1 593
1 594
1 595
1 596
1 597
1 598
1 599
1 600
1 601
1 602
1 603
1 604
1 605
1 606
1 607
1 608
1 609
1 610
1 611
1 612
1 613
1 614
1 615
1 616
1 617
1 618
1 619
1 620
1 621
1 622
1 623
1 624
1 625
1 626
1 627
1 628
1 629
1 630
1 631
1 632
1 633
1 634
1 635
1 636
1 637
1 638
1 639
1 640
1 641
1 642
1 643
1 644
1 645
1 646
1 647
1 648
1 649
1 650
1 651
1 652
1 653
1 654
1 655
1 656
1 657
1 658
1 659
1 660
1 661
1 662
1 663
1 664
1 665
1 666
1 667
1 668
1 669
1 670
1 671
1 672
1 673
1 674
1 675
1 676
1 677
1 678
1 679
1 680
POINT_DATA 681
SCALARS is_boundary int 1
LOOKUP_TABLE default
0
0
0
0
0
0
0
0
0
0
0
0
0
0
0
0
0
0
0
0
0
0
0
0
0
0
0
0
0
0
0
0
0
0
0
0
0
0
0
0
0
0
0
0
0
0
0
0
0
0
0
0
0
0
0
0
0
0
0
0
0
0
0
0
0
0
0
0
0
0
0
0
0
0
0
0
0
0
0
0
0
0
0
0
0
0
0
0
0
0
0
0
0
0
0
0
0
0
0
0
0
0
0
0
0
0
0
0
0
0
0
0
0
0
0
0
0
0
0
0
0
0
0
0
0
0
0
0
0
0
0
0
0
0
0
0
0
0
0
0
0
0
0
0
0
0
0
0
0
0
0
0
0
0
0
0
0
0
0
0
0
0
0
0
0
0
0
0
0
0
0
0
0
0
0
0
0
0
0
0
0
0
0
0
0
0
0
0
0
0
0
0
0
0
0
0
0
0
0
0
0
0
0
0
0
0
0
0
0
0
0
0
0
0
0
0
0
0
0
0
0
0
0
0
0
0
0
0
0
0
0
0
0
0
0
0
0
0
0
0
0
0
0
0
0
0
0
0
0
0
0
0
0
0
0
0
0
0
0
0
0
0
0
0
0
0
0
0
0
0
0
0
0
0
0
0
0
0
0
0
0
0
0
0
0
0
0
0
0
0
0
0
0
0
0
0
0
0
0
0
0
0
0
0
0
0
0
0
0
0
0
0
0
0
0
0
0
0
0
0
0
0
0
0
0
0
0
0
0
0
0
0
0
0
0
0
0
0
0
0
0
0
0
0
0
0
0
0
0
0
0
0
0
0
0
0
0
0
0
0
0
0
0
0
0
0
0
0
0
0
0
0
0
0
0
1
1
1
1
1
1
1
1
1
1
1
1
1
1
1
1
1
1
1
1
1
1
1
1
1
1
1
1
1
1
1
1
1
1
1
1
1
1
1
1
1
1
1
1
1
1
1
1
1
1
1
1
1
1
1
1
1
1
1
1
1
1
1
1
1
1
1
1
1
1
1
1
1
1
1
1
1
1
1
1
1
1
1
1
1
1
1
1
1
1
1
1
1
1
1
1
1
1
1
1
1
1
1
1
1
1
1
1
1
1
1
1
1
1
1
1
1
1
1
1
1
1
1
1
1
1
1
1
1
1
1
1
1
1
1
1
1
1
1
1
1
1
1
1
1
1
1
1
1
1
1
1
1
1
1
1
1
1
1
1
1
1
1
1
1
1
1
1
1
1
1
1
1
1
1
1
1
1
1
1
1
1
1
1
1
1
1
1
1
1
1
1
1
1
1
1
1
1
1
1
1
1
1
1
1
1
1
1
1
1
1
1
1
1
1
1
1
1
1
1
1
1
1
1
1
1
1
1
1
1
1
1
1
1
1
1
1
1
1
1
1
1
1
1
1
1
1
1
1
1
1
1
1
1
1
1
1
1
1
1
1
1
1
1
1
1
1
1
1
1
1
1
1
1
1
1
1
1
1
1
1
1
1
1
1
1
1
1
1
1
1
1
1
1
1
1
1
1
1
1
1
1
1
1
1
1
SCALARS rho float 1
LOOKUP_TABLE default
1020
1020
1020
1020
945.59665164175567
862
862
862
862
862
862
862
862
862
862
862
862
862
862
862
862
862
862
862
862
1020
1020
1020
1020
1020
1020
1008.8342088033141
1001.0957621373711
999.44985452993001
999.10348204086745
999.03255220193978
999.01855052985525
999.0157793633723
999.01459038276585
999.01095630803161
998.99447526158747
998.92374066228922
998.64416614425909
997.63596421650641
994.35341034524572
984.82485131426051
960.44913897686411
904.72213189671675
862
862
1020
1020
1020
1020
1020
1020
1010.4044053664554
1002.1930363229444
1000.4574024030296
1000.0928766388956
1000.0181536271552
1000.0033693060673
1000.0004348182217
999.99917485776382
999.99533953079936
999.97799646772933
999.90374102844726
999.61081736970027
998.55609575818426
995.1283523741763
985.21982368082877
960.14542102935866
904.30449396121003
862
862
1020
1020
1020
1020
1020
1020
1010.6394677787187
1002.2445851544935
1000.46830722253
1000.0951695281467
1000.0186263383703
1000.0034626226106
1000.0004477602154
999.99915266552921
999.99521957388356
999.97746278963473
999.90153793734703
999.60241071009841
998.52694233176044
995.03955250635818
984.99729735621804
959.74556599191169
903.99501037274058
862
862
1020
1020
1020
1020
1020
1020
1010.7228938503351
1002.2663730534032
1000.4733865499954
1000.0962913388005
1000.0188641194127
1000.0035105407107
1000.0004546128428
999.99914175463914
999.9951613957453
999.97721105212918
999.90053632262402
999.59878238769306
998.51528048335263
995.00774383136763
984.92918731435998
959.64664146258406
903.93176670442722
862
862
1020
1020
1020
1020
1020
1020
1010.7480451927033
1002.2740135970078
1000.4753799146306
1000.0967647189359
1000.0189691760993
1000.0035323945476
1000.00045788235
999.9991371559679
999.99513727352451
999.97711071000685
999.90015671444121
999.59749424888037
998.51147817560945
994.99843956060249
984.91169393617815
959.62441604817764
903.91923829949542
862
862
1020
1020
1020
1020
1020
1020
1010.7547573819529
1002.2763061519595
1000.4760428580591
1000.0969348385986
1000.0190090429505
1000.0035410145781
1000.0004592439086
999.99913553109036
999.99512887289552
999.97707732650088
999.90003736535482
999.59711620985331
998.51045062467847
994.9961508756453
984.90778935744197
959.61987991009278
903.91689296262052
862
862
1020
1020
1020
1020
1020
1020
1010.7560488403726
1002.2767823166794
1000.4761906030978
1000.0969749716353
1000.0190188530003
1000.0035432016598
1000.00045960438
999.99913515787625
999.99512695901603
999.97706999941329
999.90001233958492
999.59704109550648
998.51025858246157
994.99574998958724
984.90714650318296
959.61917221119074
903.91654799173284
862
862
1020
1020
1020
1020
1020
1020
1010.7547573819515
1002.2763061519584
1000.4760428580578
1000.096934838597
1000.0190090429492
1000.0035410145767
1000.0004592439075
999.99913553108877
999.99512887289416
999.97707732649951
999.90003736535368
999.59711620985195
998.51045062467711
994.99615087564393
984.90778935744083
959.61987991009119
903.91689296261916
862
862
1020
1020
1020
1020
1020
1020
1010.7480451927036
1002.2740135970078
1000.4753799146308
1000.0967647189359
1000.0189691760995
1000.0035323945476
1000.0004578823502
999.9991371559679
999.99513727352451
999.97711071000663
999.90015671444098
999.59749424888037
998.51147817560968
994.99843956060226
984.91169393617815
959.62441604817764
903.91923829949542
862
862
1020
1020
1020
1020
1020
1020
1010.7228938503356
1002.2663730534039
1000.4733865499961
1000.0962913388009
1000.0188641194131
1000.0035105407114
1000.0004546128434
999.9991417546396
999.99516139574598
999.97721105212986
999.9005363226247
999.59878238769352
998.51528048335354
995.00774383136832
984.92918731436043
959.64664146258474
903.93176670442767
862
862
1020
1020
1020
1020
1020
1020
1010.6394677787189
1002.2445851544937
1000.4683072225303
1000.0951695281469
1000.0186263383707
1000.0034626226111
1000.0004477602156
999.99915266552989
999.99521957388401
999.97746278963518
999.90153793734748
999.60241071009841
998.52694233176089
995.03955250635863
984.99729735621827
959.74556599191192
903.99501037274081
862
862
1020
1020
1020
1020
1020
1020
1010.4044053664547
1002.1930363229437
1000.4574024030289
1000.0928766388952
1000.0181536271546
1000.0033693060666
1000.0004348182213
999.99917485776314
999.99533953079867
999.97799646772887
999.9037410284468
999.61081736969959
998.5560957581838
995.12835237417562
985.21982368082831
960.1454210293582
904.30449396120957
862
862
1020
1020
1020
1020
1020
1020
1008.8342088033146
1001.095762137372
999.44985452993069
999.10348204086813
999.03255220194046
999.0185505298557
999.01577936337321
999.01459038276653
999.01095630803229
998.99447526158792
998.9237406622899
998.64416614425977
997.63596421650709
994.35341034524617
984.8248513142612
960.44913897686479
904.7221318967172
862
862
1020
1020
1020
1020
945.59665164175658
862
862
862
862
862
862
862
862
862
862
862
862
862
862
862
862
862
862
862
862
1000
1000
1000
1000
1000
1000
1000
1000
1000
1000
1000
1000
1000
1000
1000
1000
1000
1000
1000
1000
1000
1000
1000
1000
1000
1000
1000
1000
1000
1000
1000
1000
1000
1000
1000
1000
1000
1000
1000
1000
1000
1000
1000
1000
1000
1000
1000
1000
1000
1000
1000
1000
1000
1000
1000
1000
1000
1000
1000
1000
1000
1000
1000
1000
1000
1000
1000
1000
1000
1000
1000
1000
1000
1000
1000
1000
1000
1000
1000
1000
1000
1000
1000
1000
1000
1000
1000
1000
1000
1000
1000
1000
1000
1000
1000
1000
1000
1000
1000
1000
1000
1000
1000
1000
1000
1000
1000
1000
1000
1000
1000
1000
1000
1000
1000
1000
1000
1000
1000
1000
1000
1000
1000
1000
1000
1000
1000
1000
1000
1000
1000
1000
1000
1000
1000
1000
1000
1000
1000
1000
1000
1000
1000
1000
1000
1000
1000
1000
1000
1000
1000
1000
1000
1000
1000
1000
1000
1000
1000
1000
1000
1000
1000
1000
1000
1000
1000
1000
1000
1000
1000
1000
1000
1000
1000
1000
1000
1000
1000
1000
1000
1000
1000
1000
1000
1000
1000
1000
1000
1000
1000
1000
1000
1000
1000
1000
1000
1000
1000
1000
1000
1000
1000
1000
1000
1000
1000
1000
1000
1000
1000
1000
1000
1000
1000
1000
1000
1000
1000
1000
1000
1000
1000
1000
1000
1000
1000
1000
1000
1000
1000
1000
1000
1000
1000
1000
1000
1000
1000
1000
1000
1000
1000
1000
1000
1000
1000
1000
1000
1000
1000
1000
1000
1000
1000
1000
1000
1000
1000
1000
1000
1000
1000
1000
1000
1000
1000
1000
1000
1000
1000
1000
1000
1000
1000
1000
1000
1000
1000
1000
1000
1000
1000
1000
1000
1000
1000
1000
1000
1000
1000
1000
1000
1000
1000
1000
1000
1000
1000
1000
1000
1000
1000
1000
1000
1000
SCALARS p float 1
LOOKUP_TABLE default
25004.681136676067
25004.681136676067
25004.681136676067
25004.681136676067
0
0
0
0
0
0
0
0
0
0
0
0
0
0
0
0
0
0
0
0
0
25004.681136676067
25004.681136676067
25004.681136676067
25004.681136676067
25004.681136676067
25004.681136676067
10679.342273274193
1294.1793139391445
0
0
0
0
0
0
0
0
0
0
0
0
0
0
0
0
0
25004.681136676067
25004.681136676067
25004.681136676067
25004.681136676067
25004.681136676067
25004.681136676067
12637.066301697147
2598.689482956876
539.19354298285566
109.36484785306583
21.371613775976162
3.9663871941028974
0.51186867823161164
0
0
0
0
0
0
0
0
0
0
0
0
25004.681136676067
25004.681136676067
25004.681136676067
25004.681136676067
25004.681136676067
25004.681136676067
12931.717319496523
2660.1851305466216
552.06638820814453
112.06556015376424
21.928150822617251
4.0762416805180939
0.52710403354289281
0
0
0
0
0
0
0
0
0
0
0
0
25004.681136676067
25004.681136676067
25004.681136676067
25004.681136676067
25004.681136676067
25004.681136676067
13036.390910962669
2686.1829090899651
558.0626846442276
113.38691436422478
22.208098149756214
4.1326520480878726
0.5351709683093604
0
0
0
0
0
0
0
0
0
0
0
0
25004.681136676067
25004.681136676067
25004.681136676067
25004.681136676067
25004.681136676067
25004.681136676067
13067.958140064495
2695.3005692750967
560.41596051327383
113.94450028647373
22.331784918534467
4.1583789282422172
0.53901984287036653
0
0
0
0
0
0
0
0
0
0
0
0
25004.681136676067
25004.681136676067
25004.681136676067
25004.681136676067
25004.681136676067
25004.681136676067
13076.383346658027
2698.0364162997153
561.19860768777551
114.14488155533871
22.37872152332244
4.1685266434569712
0.54062267411192677
0
0
0
0
0
0
0
0
0
0
0
0
25004.681136676067
25004.681136676067
25004.681136676067
25004.681136676067
25004.681136676067
25004.681136676067
13078.004436599052
2698.6046576965628
561.37303059198325
114.1921536563665
22.390271231343498
4.1711013309149489
0.54104702227482093
0
0
0
0
0
0
0
0
0
0
0
0
25004.681136676067
25004.681136676067
25004.681136676067
25004.681136676067
25004.681136676067
25004.681136676067
13076.383346656346
2698.036416298371
561.19860768594572
114.14488155350898
22.378721521754095
4.1685266418886258
0.54062267280497223
0
0
0
0
0
0
0
0
0
0
0
0
25004.681136676067
25004.681136676067
25004.681136676067
25004.681136676067
25004.681136676067
25004.681136676067
13067.958140064757
2695.3005692750967
560.4159605135352
113.94450028647373
22.331784918795858
4.1583789282422172
0.53901984313175744
0
0
0
0
0
0
0
0
0
0
0
0
25004.681136676067
25004.681136676067
25004.681136676067
25004.681136676067
25004.681136676067
25004.681136676067
13036.39091096323
2686.1829090907863
558.0626846450117
113.38691436474755
22.208098150278996
4.1326520488720453
0.53517096909353312
0
0
0
0
0
0
0
0
0
0
0
0
25004.681136676067
25004.681136676067
25004.681136676067
25004.681136676067
25004.681136676067
25004.681136676067
12931.717319496822
2660.1851305468826
552.0663882084059
112.06556015428703
21.928150823140033
4.0762416810408757
0.52710403380428372
0
0
0
0
0
0
0
0
0
0
0
0
25004.681136676067
25004.681136676067
25004.681136676067
25004.681136676067
25004.681136676067
25004.681136676067
12637.066301696286
2598.689482956092
539.19354298181008
109.36484785254305
21.371613775191989
3.9663871933187247
0.51186867770882982
0
0
0
0
0
0
0
0
0
0
0
0
25004.681136676067
25004.681136676067
25004.681136676067
25004.681136676067
25004.681136676067
25004.681136676067
10679.342273274753
1294.1793139401902
0
0
0
0
0
0
0
0
0
0
0
0
0
0
0
0
0
25004.681136676067
25004.681136676067
25004.681136676067
25004.681136676067
0
0
0
0
0
0
0
0
0
0
0
0
0
0
0
0
0
0
0
0
0
0
0
0
0
0
0
0
24060.618760995483
24947.153861276827
0
0
0
263.45981476867951
24968.88665768702
25000.183246428038
0
0
0
1618.346017222508
24986.806202053165
25002.332001578528
0
0
0
2536.990572793185
24987.457893217968
25002.411298220894
0
0
0
2421.0170898984529
24987.432327324554
25002.40516308324
0
0
0
2385.024631472505
24987.412561185807
25002.403234494326
0
0
0
2379.3654143782187
24987.408401300949
25002.402757204571
0
0
0
2378.4386762192889
24987.407624844629
25002.402649185937
0
0
0
2378.2534361275989
24987.407473380921
25002.402626591007
0
0
0
2378.2534361275989
24987.407473380921
25002.402626591007
0
0
0
2378.4386762192889
24987.407624844629
25002.402649186199
0
0
0
2379.3654143782187
24987.408401300949
25002.402757204869
0
0
0
2385.024631472505
24987.412561186105
25002.403234494326
0
0
0
2421.0170898984529
24987.432327324554
25002.405163082643
0
0
0
2536.9905727934461
24987.457893217666
25002.411298220595
0
0
0
1618.3460172227694
24986.806202053463
25002.332001578528
0
0
0
263.45981476867951
24968.886657687617
25000.183246428038
0
0
0
0
24060.618760995185
24947.153861276827
0
0
0
0
0
0
0
0
0
0
0
0
0
0
0
0
0
0
0
0
0
0
0
0
0
0
0
0
0
0
0
0
0
0
0
0
0
0
0
0
0
0
0
0
0
0
0
0
0
0
0
0
0
0
0
0
0
0
0
0
0
0
0
0
0
0
0
0
0
0
0
0
0
0
0
0
0
0
0
0
0
0
0
0
0
0
0
0
0
0
0
0
0
0
0
0
0
0
0
0
0
0
0
0
0
0
0
0
0
0
0
0
0
0
0
0
0
0
0
0
0
0
0
0
0
0
0
0
0
0
0
0
0
0
0
0
0
0
0
0
0
0
0
0
0
0
0
0
0
0
0
0
0
0
0
0
0
0
0
0
0
0
0
0
0
0
0
0
0
0
0
0
0
0
0
0
0
0
0
0
0
0
0
0
0
0
0
0
0
0
0
0
0
0
0
SCALARS m float 1
LOOKUP_TABLE default
0.39942306611962441
0.39942306611962441
0.39942306611962441
0.39942306611962441
0.39942306611962441
0.39942306611962441
0.39942306611962441
0.39942306611962441
0.39942306611962441
0.39942306611962441
0.39942306611962441
0.39942306611962441
0.39942306611962441
0.39942306611962441
0.39942306611962441
0.39942306611962441
0.39942306611962441
0.39942306611962441
0.39942306611962441
0.39942306611962441
0.39942306611962441
0.39942306611962441
0.39942306611962441
0.39942306611962441
0.39942306611962441
0.39942306611962441
0.39942306611962441
0.39942306611962441
0.39942306611962441
0.39942306611962441
0.39942306611962441
0.39942306611962441
0.39942306611962441
0.39942306611962441
0.39942306611962441
0.39942306611962441
0.39942306611962441
0.39942306611962441
0.39942306611962441
0.39942306611962441
0.39942306611962441
0.39942306611962441
0.39942306611962441
0.39942306611962441
0.39942306611962441
0.39942306611962441
0.39942306611962441
0.39942306611962441
0.39942306611962441
0.39942306611962441
0.39942306611962441
0.39942306611962441
0.39942306611962441
0.39942306611962441
0.39942306611962441
0.39942306611962441
0.39942306611962441
0.39942306611962441
0.39942306611962441
0.39942306611962441
0.39942306611962441
0.39942306611962441
0.39942306611962441
0.39942306611962441
0.39942306611962441
0.39942306611962441
0.39942306611962441
0.39942306611962441
0.39942306611962441
0.39942306611962441
0.39942306611962441
0.39942306611962441
0.39942306611962441
0.39942306611962441
0.39942306611962441
0.39942306611962441
0.39942306611962441
0.39942306611962441
0.39942306611962441
0.39942306611962441
0.39942306611962441
0.39942306611962441
0.39942306611962441
0.39942306611962441
0.39942306611962441
0.39942306611962441
0.39942306611962441
0.39942306611962441
0.39942306611962441
0.39942306611962441
0.39942306611962441
0.39942306611962441
0.39942306611962441
0.39942306611962441
0.39942306611962441
0.39942306611962441
0.39942306611962441
0.39942306611962441
0.39942306611962441
0.39942306611962441
0.39942306611962441
0.39942306611962441
0.39942306611962441
0.39942306611962441
0.39942306611962441
0.39942306611962441
0.39942306611962441
0.39942306611962441
0.39942306611962441
0.39942306611962441
0.39942306611962441
0.39942306611962441
0.39942306611962441
0.39942306611962441
0.39942306611962441
0.39942306611962441
0.39942306611962441
0.39942306611962441
0.39942306611962441
0.39942306611962441
0.39942306611962441
0.39942306611962441
0.39942306611962441
0.39942306611962441
0.39942306611962441
0.39942306611962441
0.39942306611962441
0.39942306611962441
0.39942306611962441
0.39942306611962441
0.39942306611962441
0.39942306611962441
0.39942306611962441
0.39942306611962441
0.39942306611962441
0.39942306611962441
0.39942306611962441
0.39942306611962441
0.39942306611962441
0.39942306611962441
0.39942306611962441
0.39942306611962441
0.39942306611962441
0.39942306611962441
0.39942306611962441
0.39942306611962441
0.39942306611962441
0.39942306611962441
0.39942306611962441
0.39942306611962441
0.39942306611962441
0.39942306611962441
0.39942306611962441
0.39942306611962441
0.39942306611962441
0.39942306611962441
0.39942306611962441
0.39942306611962441
0.39942306611962441
0.39942306611962441
0.39942306611962441
0.39942306611962441
0.39942306611962441
0.39942306611962441
0.39942306611962441
0.39942306611962441
0.39942306611962441
0.39942306611962441
0.39942306611962441
0.39942306611962441
0.39942306611962441
0.39942306611962441
0.39942306611962441
0.39942306611962441
0.39942306611962441
0.39942306611962441
0.39942306611962441
0.39942306611962441
0.39942306611962441
0.39942306611962441
0.39942306611962441
0.39942306611962441
0.39942306611962441
0.39942306611962441
0.39942306611962441
0.39942306611962441
0.39942306611962441
0.39942306611962441
0.39942306611962441
0.39942306611962441
0.39942306611962441
0.39942306611962441
0.39942306611962441
0.39942306611962441
0.39942306611962441
0.39942306611962441
0.39942306611962441
0.39942306611962441
0.39942306611962441
0.39942306611962441
0.39942306611962441
0.39942306611962441
0.39942306611962441
0.39942306611962441
0.39942306611962441
0.39942306611962441
0.39942306611962441
0.39942306611962441
0.39942306611962441
0.39942306611962441
0.39942306611962441
0.39942306611962441
0.39942306611962441
0.39942306611962441
0.39942306611962441
0.39942306611962441
0.39942306611962441
0.39942306611962441
0.39942306611962441
0.39942306611962441
0.39942306611962441
0.39942306611962441
0.39942306611962441
0.39942306611962441
0.39942306611962441
0.39942306611962441
0.39942306611962441
0.39942306611962441
0.39942306611962441
0.39942306611962441
0.39942306611962441
0.39942306611962441
0.39942306611962441
0.39942306611962441
0.39942306611962441
0.39942306611962441
0.39942306611962441
0.39942306611962441
0.39942306611962441
0.39942306611962441
0.39942306611962441
0.39942306611962441
0.39942306611962441
0.39942306611962441
0.39942306611962441
0.39942306611962441
0.39942306611962441
0.39942306611962441
0.39942306611962441
0.39942306611962441
0.39942306611962441
0.39942306611962441
0.39942306611962441
0.39942306611962441
0.39942306611962441
0.39942306611962441
0.39942306611962441
0.39942306611962441
0.39942306611962441
0.39942306611962441
0.39942306611962441
0.39942306611962441
0.39942306611962441
0.39942306611962441
0.39942306611962441
0.39942306611962441
0.39942306611962441
0.39942306611962441
0.39942306611962441
0.39942306611962441
0.39942306611962441
0.39942306611962441
0.39942306611962441
0.39942306611962441
0.39942306611962441
0.39942306611962441
0.39942306611962441
0.39942306611962441
0.39942306611962441
0.39942306611962441
0.39942306611962441
0.39942306611962441
0.39942306611962441
0.39942306611962441
0.39942306611962441
0.39942306611962441
0.39942306611962441
0.39942306611962441
0.39942306611962441
0.39942306611962441
0.39942306611962441
0.39942306611962441
0.39942306611962441
0.39942306611962441
0.39942306611962441
0.39942306611962441
0.39942306611962441
0.39942306611962441
0.39942306611962441
0.39942306611962441
0.39942306611962441
0.39942306611962441
0.39942306611962441
0.39942306611962441
0.39942306611962441
0.39942306611962441
0.39942306611962441
0.39942306611962441
0.39942306611962441
0.39942306611962441
0.39942306611962441
0.39942306611962441
0.39942306611962441
0.39942306611962441
0.39942306611962441
0.39942306611962441
0.39942306611962441
0.39942306611962441
0.39942306611962441
0.39942306611962441
0.39942306611962441
0.39942306611962441
0.39942306611962441
0.39942306611962441
0.39942306611962441
0.39942306611962441
0.39942306611962441
0.39942306611962441
0.39942306611962441
0.39942306611962441
0.39942306611962441
0.39942306611962441
0.39942306611962441
0.39942306611962441
0.39942306611962441
0.39942306611962441
0.39942306611962441
0.39942306611962441
0.39942306611962441
0.39942306611962441
0.39942306611962441
0.39942306611962441
0.39942306611962441
0.39942306611962441
0.39942306611962441
0.39942306611962441
0.39942306611962441
0.39942306611962441
0.39942306611962441
0.39942306611962441
0.39942306611962441
0.39942306611962441
0.39942306611962441
0.39942306611962441
0.39942306611962441
0.39942306611962441
0.39942306611962441
0.39942306611962441
0.39942306611962441
0.39942306611962441
0.39942306611962441
0.39942306611962441
0.39942306611962441
0.39942306611962441
0.39942306611962441
0.39942306611962441
0.39942306611962441
0.39942306611962441
0.39942306611962441
0.39942306611962441
0.39942306611962441
0.39942306611962441
0.39942306611962441
0.39942306611962441
0.39942306611962441
0.39942306611962441
0.39942306611962441
0.39942306611962441
0.39942306611962441
0.39942306611962441
0.39942306611962441
0.39942306611962441
0.39942306611962441
0.39942306611962441
0.39942306611962441
0.39942306611962441
0.39942306611962441
0.39942306611962441
0.39942306611962441
0.39942306611962441
0.39942306611962441
0.39942306611962441
0.39942306611962441
0.39942306611962441
0.39942306611962441
0.39942306611962441
0.39942306611962441
0.39942306611962441
0.39942306611962441
0.39942306611962441
0.39942306611962441
0.39942306611962441
0.39942306611962441
0.39942306611962441
0.39942306611962441
0.39942306611962441
0.39942306611962441
0.39942306611962441
0.39942306611962441
0.39942306611962441
0.39942306611962441
0.39942306611962441
0.39942306611962441
0.39942306611962441
0.39942306611962441
0.39942306611962441
0.39942306611962441
0.39942306611962441
0.39942306611962441
0.39942306611962441
0.39942306611962441
0.39942306611962441
0.39942306611962441
0.39942306611962441
0.39942306611962441
0.39942306611962441
0.39942306611962441
0.39942306611962441
0.39942306611962441
0.39942306611962441
0.39942306611962441
0.39942306611962441
0.39942306611962441
0.39942306611962441
0.39942306611962441
0.39942306611962441
0.39942306611962441
0.39942306611962441
0.39942306611962441
0.39942306611962441
0.39942306611962441
0.39942306611962441
0.39942306611962441
0.39942306611962441
0.39942306611962441
0.39942306611962441
0.39942306611962441
0.39942306611962441
0.39942306611962441
0.39942306611962441
0.39942306611962441
0.39942306611962441
0.39942306611962441
0.39942306611962441
0.39942306611962441
0.39942306611962441
0.39942306611962441
0.39942306611962441
0.39942306611962441
0.39942306611962441
0.39942306611962441
0.39942306611962441
0.39942306611962441
0.39942306611962441
0.39942306611962441
0.39942306611962441
0.39942306611962441
0.39942306611962441
0.39942306611962441
0.39942306611962441
0.39942306611962441
0.39942306611962441
0.39942306611962441
0.39942306611962441
0.39942306611962441
0.39942306611962441
0.39942306611962441
0.39942306611962441
0.39942306611962441
0.39942306611962441
0.39942306611962441
0.39942306611962441
0.39942306611962441
0.39942306611962441
0.39942306611962441
0.39942306611962441
0.39942306611962441
0.39942306611962441
0.39942306611962441
0.39942306611962441
0.39942306611962441
0.39942306611962441
0.39942306611962441
0.39942306611962441
0.39942306611962441
0.39942306611962441
0.39942306611962441
0.39942306611962441
0.39942306611962441
0.39942306611962441
0.39942306611962441
0.39942306611962441
0.39942306611962441
0.39942306611962441
0.39942306611962441
0.39942306611962441
0.39942306611962441
0.39942306611962441
0.39942306611962441
0.39942306611962441
0.39942306611962441
0.39942306611962441
0.39942306611962441
0.39942306611962441
0.39942306611962441
0.39942306611962441
0.39942306611962441
0.39942306611962441
0.39942306611962441
0.39942306611962441
0.39942306611962441
0.39942306611962441
0.39942306611962441
0.39942306611962441
0.39942306611962441
0.39942306611962441
0.39942306611962441
0.39942306611962441
0.39942306611962441
0.39942306611962441
0.39942306611962441
0.39942306611962441
0.39942306611962441
0.39942306611962441
0.39942306611962441
0.39942306611962441
0.39942306611962441
0.39942306611962441
0.39942306611962441
0.39942306611962441
0.39942306611962441
0.39942306611962441
0.39942306611962441
0.39942306611962441
0.39942306611962441
0.39942306611962441
0.39942306611962441
0.39942306611962441
0.39942306611962441
0.39942306611962441
0.39942306611962441
0.39942306611962441
0.39942306611962441
0.39942306611962441
0.39942306611962441
0.39942306611962441
0.39942306611962441
0.39942306611962441
0.39942306611962441
0.39942306611962441
0.39942306611962441
0.39942306611962441
0.39942306611962441
0.39942306611962441
0.39942306611962441
0.39942306611962441
0.39942306611962441
0.39942306611962441
0.39942306611962441
0.39942306611962441
0.39942306611962441
0.39942306611962441
0.39942306611962441
0.39942306611962441
0.39942306611962441
0.39942306611962441
0.39942306611962441
0.39942306611962441
0.39942306611962441
0.39942306611962441
0.39942306611962441
0.39942306611962441
0.39942306611962441
0.39942306611962441
0.39942306611962441
0.39942306611962441
0.39942306611962441
0.39942306611962441
0.39942306611962441
0.39942306611962441
0.39942306611962441
0.39942306611962441
0.39942306611962441
0.39942306611962441
0.39942306611962441
0.39942306611962441
0.39942306611962441
0.39942306611962441
0.39942306611962441
0.39942306611962441
0.39942306611962441
0.39942306611962441
0.39942306611962441
0.39942306611962441
0.39942306611962441
0.39942306611962441
0.39942306611962441
0.39942306611962441
0.39942306611962441
0.39942306611962441
0.39942306611962441
0.39942306611962441
0.39942306611962441
0.39942306611962441
0.39942306611962441
0.39942306611962441
0.39942306611962441
0.39942306611962441
0.39942306611962441
0.39942306611962441
0.39942306611962441
0.39942306611962441
0.39942306611962441
0.39942306611962441
0.39942306611962441
0.39942306611962441
0.39942306611962441
0.39942306611962441
0.39942306611962441
0.39942306611962441
0.39942306611962441
0.39942306611962441
0.39942306611962441
0.39942306611962441
0.39942306611962441
0.39942306611962441
0.39942306611962441
0.39942306611962441
0.39942306611962441
0.39942306611962441
0.39942306611962441
0.39942306611962441
0.39942306611962441
0.39942306611962441
0.39942306611962441
0.39942306611962441
0.39942306611962441
0.39942306611962441
0.39942306611962441
0.39942306611962441
0.39942306611962441
0.39942306611962441
0.39942306611962441
0.39942306611962441
0.39942306611962441
0.39942306611962441
0.39942306611962441
0.39942306611962441
0.39942306611962441
0.39942306611962441
0.39942306611962441
0.39942306611962441
0.39942306611962441
0.39942306611962441
0.39942306611962441
0.39942306611962441
0.39942306611962441
0.39942306611962441
0.39942306611962441
0.39942306611962441
0.39942306611962441
0.39942306611962441
0.39942306611962441
0.39942306611962441
0.39942306611962441
0.39942306611962441
0.39942306611962441
0.39942306611962441
0.39942306611962441
0.39942306611962441
0.39942306611962441
VECTORS v float
0 -0.083026211124159061 0
0 -0.18442134193818008 0
0 -0.33592714270035767 0
0 -0.58065616242317752 0
0 -0.79123643149061518 0
0 -0.87476717274707894 0
0 -0.89660851559769272 0
0 -0.90167285983933154 0
0 -0.90278726864372294 0
0 -0.90302569563231272 0
0 -0.903075079768905 0
0 -0.90308489551936155 0
0 -0.90308667181265478 0
0 -0.90308650865229123 0
0 -0.90308410220495883 0
0 -0.90307289932278845 0
0 -0.90302589985105375 0
0 -0.90284589966895112 0
0 -0.90222292480342359 0
0 -0.90029997404510509 0
0 -0.89508193784879619 0
0 -0.88279108006008 0
0 -0.85784418327938294 0
0 -0.81258309749799251 0
0 -0.67601252739914874 0
0 -0.091197178626688177 0
0 -0.19256461139448366 0
0 -0.33785836515676121 0
0 -0.56430395098097696 0
0 -0.77584832647287283 0
0 -0.87046503513698748 0
0 -0.89578267901833442 0
0 -0.90149979964854976 0
0 -0.90274960814367555 0
0 -0.90301764856089239 0
0 -0.9030734200884547 0
0 -0.90308456491906797 0
0 -0.90308659317712014 0
0 -0.90308641193677319 0
0 -0.90308370006164884 0
0 -0.90307117122125491 0
0 -0.90301904744033878 0
0 -0.90282106830451525 0
0 -0.90214103701401871 0
0 -0.90005483895763438 0
0 -0.89442046423682797 0
0 -0.88123602142160218 0
0 -0.8551259694704324 0
0 -0.80985790149119552 0
0 -0.68321920557996652 0
0 -0.091146870227507226 0
0 -0.19280461557523984 0
0 -0.33787695212062885 0
0 -0.56058228158774226 0
0 -0.770339469892936 0
0 -0.86854110931047179 0
0 -0.89539830251945363 0
0 -0.90142451028105308 0
0 -0.90273392431550614 0
0 -0.90301434022051374 0
0 -0.90307273657962528 0
0 -0.90308442772111874 0
0 -0.90308656014352484 0
0 -0.90308637080392629 0
0 -0.9030835275159913 0
0 -0.90307041679236133 0
0 -0.90301596260574657 0
0 -0.90280933603325453 0
0 -0.90209966892960969 0
0 -0.89992105233967445 0
0 -0.89403496045168729 0
0 -0.88030791309552536 0
0 -0.85348849205943356 0
0 -0.80801342299204137 0
0 -0.68609037464450318 0
0 -0.090940539281663887 0
0 -0.19256989409003247 0
0 -0.33752661301643477 0
0 -0.5595354418292906 0
0 -0.76882579597599965 0
0 -0.86780760235138787 0
0 -0.89520310181091978 0
0 -0.90138182508453157 0
0 -0.90272482003331711 0
0 -0.90301241252895526 0
0 -0.90307233633342598 0
0 -0.90308434664541171 0
0 -0.9030865404142423 0
0 -0.90308634645396857 0
0 -0.90308342630156635 0
0 -0.9030699763575617 0
0 -0.90301416993760242 0
0 -0.90280258245458989 0
0 -0.9020764065542427 0
0 -0.89984944701130831 0
0 -0.89384558934188729 0
0 -0.87990328738182688 0
0 -0.85283864694367673 0
0 -0.80731926441596646 0
0 -0.68678414027442192 0
0 -0.09087663297213136 0
0 -0.19246474240595018 0
0 -0.33736807084584741 0
0 -0.559209493687851 0
0 -0.76839676516903477 0
0 -0.86757170327756217 0
0 -0.89512689321567229 0
0 -0.90136242396096899 0
0 -0.90272033470720148 0
0 -0.90301142551509872 0
0 -0.90307212700610251 0
0 -0.90308430355331171 0
0 -0.90308652981783522 0
0 -0.90308633371355818 0
0 -0.90308337445831099 0
0 -0.90306975468048722 0
0 -0.90301328704629868 0
0 -0.90279935724093707 0
0 -0.90206579160055533 0
0 -0.89981882091275944 0
0 -0.89377107902621789 0
0 -0.879757612078649 0
0 -0.85262194872423436 0
0 -0.8070964687221811 0
0 -0.68688327644737213 0
0 -0.090861219063727502 0
0 -0.19243111108745686 0
0 -0.33731441851565713 0
0 -0.55911331554789057 0
0 -0.76827774575551055 0
0 -0.8675019009767353 0
0 -0.89510139647583153 0
0 -0.90135505024928342 0
0 -0.90271845873693668 0
0 -0.90301098681913095 0
0 -0.90307203038959238 0
0 -0.90308428314587919 0
0 -0.90308652474187256 0
0 -0.90308632788119381 0
0 -0.90308335151080299 0
0 -0.9030696592905908 0
0 -0.9030129197912764 0
0 -0.90279807232426657 0
0 -0.90206178847337393 0
0 -0.89980801608538208 0
0 -0.89374665847666879 0
0 -0.87971310580647533 0
0 -0.85255922560469644 0
0 -0.80703290330868238 0
0 -0.68688382279079685 0
0 -0.090857654076893446 0
0 -0.19242175053681973 0
0 -0.33729879933871498 0
0 -0.55908716794943536 0
0 -0.76824674581743535 0
0 -0.86748294887730926 0
0 -0.89509385629707572 0
0 -0.9013526460972564 0
0 -0.90271779193391855 0
0 -0.90301082039244618 0
0 -0.90307199203467503 0
0 -0.90308427478409437 0
0 -0.9030865226370578 0
0 -0.90308632560216684 0
0 -0.90308334291755754 0
0 -0.90306962477811881 0
0 -0.90301279209600149 0
0 -0.90279764624613656 0
0 -0.9020605325412796 0
0 -0.89980482722729416 0
0 -0.89373988077383348 0
0 -0.87970139912688616 0
0 -0.85254332628872143 0
0 -0.80701686205917866 0
0 -0.68687936028603591 0
0 -0.090857006944543531 0
0 -0.19241988234598573 0
0 -0.33729560026706479 0
0 -0.55908199074659226 0
0 -0.76824077397132906 0
0 -0.86747920756984853 0
0 -0.89509228704495769 0
0 -0.90135211394849057 0
0 -0.90271763560324947 0
0 -0.90301077950438668 0
0 -0.90307198227876051 0
0 -0.90308427260383273 0
0 -0.9030865220834543 0
0 -0.9030863250316411 0
0 -0.90308334084172137 0
0 -0.90306961667219732 0
0 -0.90301276304510847 0
0 -0.90279755282306628 0
0 -0.90206026831133523 0
0 -0.89980418486774116 0
0 -0.89373857096442466 0
0 -0.87969921313077648 0
0 -0.85254042244428152 0
0 -0.80701394009199157 0
0 -0.68687810959795603 0
0 -0.090857654076893432 0
0 -0.19242175053681962 0
0 -0.33729879933871471 0
0 -0.55908716794943547 0
0 -0.76824674581743535 0
0 -0.86748294887730926 0
0 -0.89509385629707572 0
0 -0.9013526460972564 0
0 -0.90271779193391855 0
0 -0.90301082039244618 0
0 -0.90307199203467503 0
0 -0.90308427478409437 0
0 -0.9030865226370578 0
0 -0.90308632560216684 0
0 -0.90308334291755754 0
0 -0.90306962477811881 0
0 -0.90301279209600149 0
0 -0.90279764624613656 0
0 -0.9020605325412796 0
0 -0.89980482722729416 0
0 -0.89373988077383348 0
0 -0.87970139912688616 0
0 -0.85254332628872154 0
0 -0.80701686205917866 0
0 -0.68687936028603591 0
0 -0.090861219063727489 0
0 -0.19243111108745684 0
0 -0.33731441851565708 0
0 -0.55911331554789057 0
0 -0.76827774575551055 0
0 -0.8675019009767353 0
0 -0.89510139647583153 0
0 -0.90135505024928342 0
0 -0.90271845873693668 0
0 -0.90301098681913095 0
0 -0.90307203038959238 0
0 -0.90308428314587919 0
0 -0.90308652474187256 0
0 -0.90308632788119381 0
0 -0.90308335151080299 0
0 -0.9030696592905908 0
0 -0.9030129197912764 0
0 -0.90279807232426657 0
0 -0.90206178847337393 0
0 -0.89980801608538208 0
0 -0.89374665847666879 0
0 -0.87971310580647533 0
0 -0.85255922560469644 0
0 -0.80703290330868238 0
0 -0.68688382279079674 0
0 -0.090876632972131416 0
0 -0.19246474240595018 0
0 -0.33736807084584736 0
0 -0.55920949368785089 0
0 -0.76839676516903466 0
0 -0.86757170327756217 0
0 -0.89512689321567229 0
0 -0.90136242396096899 0
0 -0.90272033470720148 0
0 -0.90301142551509872 0
0 -0.90307212700610251 0
0 -0.90308430355331171 0
0 -0.90308652981783522 0
0 -0.90308633371355818 0
0 -0.90308337445831099 0
0 -0.90306975468048722 0
0 -0.90301328704629868 0
0 -0.90279935724093707 0
0 -0.90206579160055533 0
0 -0.89981882091275944 0
0 -0.89377107902621789 0
0 -0.879757612078649 0
0 -0.85262194872423436 0
0 -0.8070964687221811 0
0 -0.68688327644737213 0
0 -0.090940539281663971 0
0 -0.19256989409003239 0
0 -0.33752661301643477 0
0 -0.5595354418292906 0
0 -0.76882579597599954 0
0 -0.86780760235138787 0
0 -0.89520310181091978 0
0 -0.90138182508453157 0
0 -0.90272482003331711 0
0 -0.90301241252895526 0
0 -0.90307233633342598 0
0 -0.90308434664541171 0
0 -0.9030865404142423 0
0 -0.90308634645396857 0
0 -0.90308342630156635 0
0 -0.9030699763575617 0
0 -0.90301416993760242 0
0 -0.90280258245458989 0
0 -0.9020764065542427 0
0 -0.89984944701130831 0
0 -0.89384558934188729 0
0 -0.87990328738182688 0
0 -0.85283864694367673 0
0 -0.80731926441596646 0
0 -0.68678414027442192 0
0 -0.091146870227507143 0
0 -0.1928046155752397 0
0 -0.33787695212062879 0
0 -0.56058228158774226 0
0 -0.770339469892936 0
0 -0.86854110931047179 0
0 -0.89539830251945363 0
0 -0.90142451028105308 0
0 -0.90273392431550614 0
0 -0.90301434022051374 0
0 -0.90307273657962528 0
0 -0.90308442772111874 0
0 -0.90308656014352484 0
0 -0.90308637080392629 0
0 -0.9030835275159913 0
0 -0.90307041679236133 0
0 -0.90301596260574657 0
0 -0.90280933603325453 0
0 -0.90209966892960969 0
0 -0.89992105233967445 0
0 -0.89403496045168729 0
0 -0.88030791309552536 0
0 -0.85348849205943356 0
0 -0.80801342299204137 0
0 -0.68609037464450318 0
0 -0.091197178626688177 0
0 -0.19256461139448369 0
0 -0.33785836515676115 0
0 -0.56430395098097685 0
0 -0.77584832647287272 0
0 -0.87046503513698748 0
0 -0.89578267901833442 0
0 -0.90149979964854976 0
0 -0.90274960814367555 0
0 -0.90301764856089239 0
0 -0.9030734200884547 0
0 -0.90308456491906797 0
0 -0.90308659317712014 0
0 -0.90308641193677319 0
0 -0.90308370006164884 0
0 -0.90307117122125491 0
0 -0.90301904744033878 0
0 -0.90282106830451525 0
0 -0.90214103701401871 0
0 -0.90005483895763438 0
0 -0.89442046423682797 0
0 -0.88123602142160218 0
0 -0.8551259694704324 0
0 -0.80985790149119552 0
0 -0.68321920557996663 0
0 -0.083026211124159074 0
0 -0.18442134193817997 0
0 -0.33592714270035767 0
0 -0.58065616242317741 0
0 -0.79123643149061507 0
0 -0.87476717274707894 0
0 -0.89660851559769272 0
0 -0.90167285983933154 0
0 -0.90278726864372294 0
0 -0.90302569563231272 0
0 -0.903075079768905 0
0 -0.90308489551936155 0
0 -0.90308667181265478 0
0 -0.90308650865229123 0
0 -0.90308410220495883 0
0 -0.90307289932278845 0
0 -0.90302589985105375 0
0 -0.90284589966895112 0
0 -0.90222292480342359 0
0 -0.90029997404510509 0
0 -0.89508193784879608 0
0 -0.88279108006007989 0
0 -0.85784418327938294 0
0 -0.81258309749799251 0
0 -0.67601252739914897 0
-0 -0 0
-0 -0 0
-0 -0 0
-0 -0 0
-0 -0 0
-0 -0 0
-0 -0 0
-0 0.080300910440878018 0
-0 0.14261519747466686 0
-0 -0 0
-0 -0 0
-0 -0 0
-0 0.00092791085074218807 0
-0 0.099312562042763897 0
-0 0.16149583066735165 0
-0 -0 0
-0 -0 0
-0 -0 0
-0 0.0061534505979215373 0
-0 0.10306647280311475 0
-0 0.16413317328633059 0
-0 -0 0
-0 -0 0
-0 -0 0
-0 0.0097560559622018855 0
-0 0.10592011988478228 0
-0 0.16506241044541714 0
-0 -0 0
-0 -0 0
-0 -0 0
-0 0.0092997121509588321 0
-0 0.10579865865461723 0
-0 0.16482520964884065 0
-0 -0 0
-0 -0 0
-0 -0 0
-0 0.0091485724920126396 0
-0 0.10562879663548891 0
-0 0.16456317149294683 0
-0 -0 0
-0 -0 0
-0 -0 0
-0 0.0091230261144169787 0
-0 0.10557417281012919 0
-0 0.16447089774918011 0
-0 -0 0
-0 -0 0
-0 -0 0
-0 0.0091185500075125474 0
-0 0.10556023408886808 0
-0 0.16444488378637445 0
-0 -0 0
-0 -0 0
-0 -0 0
-0 0.0091176352871026652 0
-0 0.10555704411549389 0
-0 0.16443849966690713 0
-0 -0 0
-0 -0 0
-0 -0 0
-0 0.00911763528710232 0
-0 0.10555704411549387 0
-0 0.16443849966690713 0
-0 -0 0
-0 -0 0
-0 -0 0
-0 0.0091185500075125457 0
-0 0.10556023408886807 0
-0 0.16444488378637442 0
-0 -0 0
-0 -0 0
-0 -0 0
-0 0.0091230261144169805 0
-0 0.10557417281012925 0
-0 0.16447089774918017 0
-0 -0 0
-0 -0 0
-0 -0 0
-0 0.0091485724920126448 0
-0 0.10562879663548898 0
-0 0.16456317149294686 0
-0 -0 0
-0 -0 0
-0 -0 0
-0 0.0092997121509586205 0
-0 0.10579865865461725 0
-0 0.16482520964884059 0
-0 -0 0
-0 -0 0
-0 -0 0
-0 0.0097560559622018785 0
-0 0.10592011988478223 0
-0 0.16506241044541706 0
-0 -0 0
-0 -0 0
-0 -0 0
-0 0.0061534505979219728 0
-0 0.10306647280311475 0
-0 0.16413317328633059 0
-0 -0 0
-0 -0 0
-0 -0 0
-0 0.0009279108507423198 0
-0 0.099312562042763869 0
-0 0.16149583066735165 0
-0 -0 0
-0 -0 0
-0 -0 0
-0 -0 0
-0 0.080300910440878087 0
-0 0.14261519747466697 0
-0 -0 0
-0 -0 0
-0 -0 0
-0 -0 0
-0 -0 0
-0 -0 0
-0 -0 0
-0 -0 0
-0 -0 0
-0 -0 0
-0 -0 0
-0 -0 0
-0 -0 0
-0 -0 0
-0 -0 0
-0 -0 0
-0 -0 0
-0 -0 0
-0 -0 0
-0 -0 0
-0 -0 0
-0 -0 0
-0 -0 0
-0 -0 0
-0 -0 0
-0 -0 0
-0 -0 0
-0 -0 0
-0 -0 0
-0 -0 0
-0 -0 0
-0 -0 0
-0 -0 0
-0 -0 0
-0 -0 0
-0 -0 0
-0 -0 0
-0 -0 0
-0 -0 0
-0 -0 0
-0 -0 0
-0 -0 0
-0 -0 0
-0 -0 0
-0 -0 0
-0 -0 0
-0 -0 0
-0 -0 0
-0 -0 0
-0 -0 0
-0 -0 0
-0 -0 0
-0 -0 0
-0 -0 0
-0 -0 0
-0 -0 0
-0 -0 0
-0 -0 0
-0 -0 0
-0 -0 0
-0 -0 0
-0 -0 0
-0 -0 0
-0 -0 0
-0 -0 0
-0 -0 0
-0 -0 0
-0 -0 0
-0 -0 0
-0 -0 0
-0 -0 0
-0 -0 0
-0 -0 0
-0 -0 0
-0 -0 0
-0 -0 0
-0 -0 0
-0 -0 0
-0 -0 0
-0 -0 0
-0 -0 0
-0 -0 0
-0 -0 0
-0 -0 0
-0 -0 0
-0 -0 0
-0 -0 0
-0 -0 0
-0 -0 0
-0 -0 0
-0 -0 0
-0 -0 0
-0 -0 0
-0 -0 0
-0 -0 0
-0 -0 0
-0 -0 0
-0 -0 0
-0 -0 0
-0 -0 0
-0 -0 0
-0 -0 0
-0 -0 0
-0 -0 0
-0 -0 0
-0 -0 0
-0 -0 0
-0 -0 0
-0 -0 0
-0 -0 0
-0 -0 0
-0 -0 0
-0 -0 0
-0 -0 0
-0 -0 0
-0 -0 0
-0 -0 0
-0 -0 0
-0 -0 0
-0 -0 0
-0 -0 0
-0 -0 0
-0 -0 0
-0 -0 0
-0 -0 0
-0 -0 0
-0 -0 0
-0 -0 0
-0 -0 0
-0 -0 0
-0 -0 0
-0 -0 0
-0 -0 0
-0 -0 0
-0 -0 0
-0 -0 0
-0 -0 0
-0 -0 0
-0 -0 0
-0 -0 0
-0 -0 0
-0 -0 0
-0 -0 0
-0 -0 0
-0 -0 0
-0 -0 0
-0 -0 0
-0 -0 0
-0 -0 0
-0 -0 0
-0 -0 0
-0 -0 0
-0 -0 0
-0 -0 0
-0 -0 0
-0 -0 0
-0 -0 0
-0 -0 0
-0 -0 0
-0 -0 0
-0 -0 0
-0 -0 0
-0 -0 0
-0 -0 0
-0 -0 0
-0 -0 0
-0 -0 0
-0 -0 0
-0 -0 0
-0 -0 0
-0 -0 0
-0 -0 0
-0 -0 0
-0 -0 0
-0 -0 0
-0 -0 0
-0 -0 0
-0 -0 0
-0 -0 0
-0 -0 0
-0 -0 0
-0 -0 0
-0 -0 0
-0 -0 0
-0 -0 0
-0 -0 0
-0 -0 0
-0 -0 0
-0 -0 0
-0 -0 0
-0 -0 0
-0 -0 0
-0 -0 0
-0 -0 0
-0 -0 0
