# vtk DataFile Version 3.0
SPH particles (WCSPH) - legacy PolyData
ASCII
DATASET POLYDATA
POINTS 681 float
0.049990453394668087 0.02335278568790107 0
0.049989079606696803 0.025736054146609153 0
0.049987994520329176 0.027624662757011725 0
0.049986960277576244 0.029508158686745296 0
0.049986025995702753 0.031366231982105905 0
0.049985185859749322 0.033193703987602408 0
0.049984450375125368 0.034994898453867822 0
0.049983632388673149 0.036777958884951716 0
0.049982633237018653 0.038552318131794445 0
0.049981255113009562 0.040328023833694313 0
0.049979104436911302 0.04211550373136487 0
0.049976452748419678 0.043925834484633677 0
0.04997527282548752 0.045771036165404164 0
0.049976406934688543 0.047664133528154691 0
0.049978738542547044 0.049619161114926064 0
0.049981625659757611 0.051652024599507781 0
0.04998457215473838 0.053782806715453865 0
0.049987448306592762 0.056049082115510358 0
0.04999010226941434 0.058487508410162155 0
0.04999239706078671 0.061150677694502803 0
0.049994335401956989 0.064129029398473744 0
0.049995938005239569 0.06753741836531546 0
0.049997280444923478 0.071594245699597464 0
0.04999844714233373 0.076939888993663996 0
0.049999986518081796 0.097685097771614327 0
0.069994901162970427 0.021775366208560756 0
0.069994087557444448 0.024453166589332085 0
0.069993412755959161 0.026610117611091891 0
0.069992796541064967 0.028710032592576339 0
0.069992239877207957 0.030746128465321928 0
0.069991688748431855 0.032723997863110831 0
0.069991139220003398 0.034655926427311898 0
0.069990576510033084 0.03655601402297063 0
0.069989927657356427 0.038437744556342725 0
0.069988983343358874 0.040314143717110375 0
0.06998726612949914 0.042197949503670215 0
0.069984597929654682 0.044102145822253587 0
0.069982926176714158 0.046040395235349106 0
0.069983153271784879 0.048027473033050383 0
0.069984686058928672 0.050079673320439368 0
0.069986847382539283 0.052214523733345966 0
0.069989106729739362 0.054452146582462641 0
0.069991368449050281 0.056828835719795828 0
0.06999332524489528 0.059385017015219699 0
0.069994954028100229 0.062178149848966816 0
0.069996315769565595 0.065296690968108043 0
0.069997410255106376 0.068878436316455752 0
0.069998280869335863 0.073185277901390511 0
0.069998989349202526 0.078930956997048607 0
0.069999984292728828 0.097063070321972367 0
0.089998061033577256 0.021704089817200022 0
0.089997705449534754 0.024388852363466884 0
0.089997459777754724 0.0265527668036824 0
0.08999715817404412 0.028662858473751961 0
0.08999686015542771 0.030711316668920782 0
0.08999661281952237 0.032703086512797692 0
0.089996152508888067 0.034650309696901548 0
0.089995928313472806 0.036566898507923148 0
0.089995609765828155 0.038466390359432105 0
0.089995253911877043 0.040361875937499847 0
0.089994862599087816 0.042266155514609757 0
0.08999411277631604 0.044192423562046036 0
0.089993217134520576 0.046154429759093826 0
0.089992832447993318 0.048167150124991211 0
0.089993340754621509 0.050247508525442609 0
0.089994212119692218 0.052415301798676157 0
0.089995201926444252 0.054691977891366809 0
0.089996134578810394 0.057104905760914579 0
0.089996950533288197 0.059697628347793616 0
0.089997623628474799 0.062527560767052737 0
0.089998199849477503 0.065680592617540057 0
0.089998688601020879 0.069299904626797332 0
0.089999093518253234 0.073647014458220195 0
0.089999440269748932 0.079414344362309722 0
0.089999988842860604 0.096691151620914573 0
0.10999939458206569 0.021725247624669007 0
0.10999921244718779 0.024411754890887458 0
0.10999908023100112 0.026577469319483363 0
0.10999893775930072 0.028689782830185438 0
0.10999879945770545 0.030740875274558387 0
0.10999879115514412 0.032735629761117345 0
0.10999881673461631 0.034686235067254441 0
0.10999873468144616 0.036606532440767968 0
0.10999866405120848 0.038510054222610564 0
0.10999855391214335 0.040409979643856231 0
0.10999834650197698 0.042319171726856807 0
0.10999856636973949 0.044250856190153176 0
0.10999796557205926 0.046218800576077843 0
0.10999743959908549 0.048238088158570135 0
0.10999747797902391 0.050325655890439497 0
0.10999774397651871 0.052501507850353159 0
0.10999804119338195 0.054788408367914182 0
0.10999846722137062 0.057210762230612923 0
0.1099987727452526 0.059813019106752414 0
0.10999902877825547 0.062652148711186059 0
0.10999924377895962 0.06581544298920787 0
0.10999943611409892 0.069446360835172874 0
0.10999959209065836 0.073801433460882249 0
0.10999973834186852 0.079564723560720432 0
0.10999999419149904 0.09642664100957217 0
0.12999989294020023 0.021740474366062169 0
0.12999987367407914 0.024428597841905982 0
0.12999985795879523 0.026595554712761815 0
0.12999985172506148 0.028709089857407635 0
0.12999990718814744 0.030761350781772608 0
0.12999996828146815 0.032757331515040171 0
0.13000001104801234 0.0347092544865054 0
0.13000004589591235 0.036630874415983124 0
0.13000010913897525 0.038535835295361837 0
0.13000022490327487 0.040437267845336938 0
0.13000029201382207 0.04234805492373913 0
0.13000015906210116 0.04428147464250172 0
0.12999988101943438 0.046251438007293526 0
0.12999959856731955 0.048272783199275963 0
0.12999939801965957 0.050362687734397601 0
0.12999928889443002 0.052541047741644469 0
0.12999937115026355 0.05483062438699135 0
0.12999948777180173 0.05725579199492023 0
0.129999585598745 0.059861016624428325 0
0.12999966926435055 0.062703068387481908 0
0.12999974034126707 0.065869564621718904 0
0.12999979484286414 0.069503464523507807 0
0.1299998552982338 0.073859063002275183 0
0.12999991480561029 0.079615811233714723 0
0.1299999980564065 0.096259029034150359 0
0.15000017336551275 0.021748006750435971 0
0.15000020352386326 0.024436973946837259 0
0.15000024364773573 0.026604593196458397 0
0.15000029621107094 0.028718765148139473 0
0.15000046556513191 0.030771635338786584 0
0.15000050691890662 0.032768166642592536 0
0.15000050421987299 0.034720627424738595 0
0.15000053202062733 0.036642845678094525 0
0.15000058296154775 0.038548409517294512 0
0.15000064099502833 0.040450459468422316 0
0.15000072051409438 0.042361927045752687 0
0.15000059527416038 0.044296032585440216 0
0.15000054753293668 0.04626680651000524 0
0.15000033051198966 0.048289040911128407 0
0.15000013392086839 0.050379817141725215 0
0.14999999737543854 0.052559148288200373 0
0.1499999438767409 0.054849723449894409 0
0.14999994781774179 0.057275943007941199 0
0.14999996199365262 0.059882298212198211 0
0.14999997117088368 0.062725464052238916 0
0.14999995932470439 0.065892951463697488 0
0.14999996610169011 0.069527440828722628 0
0.14999998535689571 0.073882382095797006 0
0.14999999631979463 0.079634536191189653 0
0.15000000025154828 0.096163246819931353 0
0.17000034114986637 0.021751383859905399 0
0.17000041350444087 0.024440725590001995 0
0.17000045103306657 0.026608625535608704 0
0.17000057886610195 0.028723027914947817 0
0.17000066076993439 0.030776108537287326 0
0.17000079513407299 0.032772902940255803 0
0.17000098736448027 0.034725653254535048 0
0.17000104519836942 0.036648119378738811 0
0.17000108120702825 0.038553907832299249 0
0.17000110874921814 0.040456204026461558 0
0.17000110404763 0.042367959680166406 0
0.17000099850224992 0.044302401390756627 0
0.17000098746486433 0.046273484366692506 0
0.1700009752320665 0.048295973378388028 0
0.17000052914160105 0.050387120878283856 0
0.17000038168128151 0.05256686584464533 0
0.17000027327927009 0.054857877550409107 0
0.17000020885743411 0.057284523249553194 0
0.17000016443041344 0.0598913269203852 0
0.17000013405537287 0.062734914062864772 0
0.17000007663514038 0.065902760448942985 0
0.17000004512208616 0.069537366320912647 0
0.17000002407082271 0.073891803238064477 0
0.17000001511882054 0.07964150181690198 0
0.17000000063531176 0.096115883025417292 0
0.19000026938712714 0.02175235575092313 0
0.19000030718088209 0.024441771981127649 0
0.19000046911796686 0.026609831492162801 0
0.19000052000380285 0.028724276895949735 0
0.19000061583828964 0.03077739403665972 0
0.19000082217493391 0.0327743055619035 0
0.19000102569416905 0.034727049565395351 0
0.190001011902559 0.036649498866203681 0
0.19000106492506794 0.03855533004170579 0
0.19000109751143976 0.040457711779732577 0
0.19000096844026293 0.04236952380574352 0
0.19000102005159628 0.044304097497167606 0
0.19000071885931241 0.046275264976667341 0
0.19000063396760833 0.048297917449860887 0
0.19000057826147712 0.050389153491653141 0
0.19000037440743051 0.052569005931571974 0
0.19000032881815901 0.054860140197752344 0
0.19000031663543984 0.057286916749833133 0
0.19000024929889059 0.059893837715995456 0
0.19000029176340913 0.062737554349709651 0
0.19000022732700633 0.065905486997884122 0
0.19000015126855666 0.069540127509009314 0
0.19000007009795214 0.073894400204824504 0
0.19000003221187692 0.079643351924125402 0
0.19000000078565463 0.096101813000490532 0
0.2100003183170335 0.021751434594400428 0
0.2100003967848656 0.02444074831112257 0
0.21000045071739001 0.0266086394680356 0
0.21000051146790669 0.028723071030895275 0
0.21000060997456135 0.03077615810087574 0
0.21000063489139359 0.03277296864739157 0
0.21000072808717379 0.034725699816355322 0
0.21000075742889021 0.036648163131750067 0
0.2100008151796415 0.038553973001089537 0
0.21000084533628183 0.040456308247915788 0
0.21000081976021545 0.042368055796746205 0
0.21000077977952653 0.044302487317407185 0
0.21000060038871191 0.046273511598313145 0
0.21000045325440161 0.048296037565351162 0
0.21000043973619123 0.05038719081354795 0
0.21000034957333807 0.052566892953152443 0
0.21000031417478734 0.05485791659737408 0
0.21000036284988294 0.057284570735858527 0
0.21000019559022304 0.059891376247289088 0
0.21000016489700046 0.062734993109035214 0
0.21000013026008674 0.065902839836695648 0
0.21000011558449813 0.069537484628798801 0
0.2100000696589974 0.073891926664486129 0
0.21000003909435971 0.079641626292641793 0
0.21000000126221402 0.096115906575969093 0
0.23000038755821275 0.021748068933053102 0
0.23000046198387167 0.024437060321420099 0
0.23000053953043195 0.026604696673613662 0
0.23000061391119345 0.0287188162438155 0
0.23000073471067353 0.030771712784206158 0
0.23000081806683845 0.032768263410897815 0
0.23000091135167816 0.034720748253625804 0
0.23000094906734847 0.036642956125669437 0
0.23000105817393562 0.038548516934165021 0
0.23000112869594463 0.040450563102686757 0
0.23000114497166024 0.042362044988965619 0
0.23000098982544881 0.044296220958765425 0
0.23000081346549808 0.046266982238990922 0
0.2300007304000356 0.048289167021452584 0
0.2300007212307216 0.050379923915292946 0
0.23000065213794477 0.052559263869154674 0
0.2300005530053317 0.054849874574158755 0
0.23000045237677691 0.057276114489925638 0
0.23000041240365385 0.059882458909303042 0
0.23000033296596317 0.062725655160147956 0
0.23000026361914097 0.06589315325361679 0
0.23000020250721195 0.069527650947518629 0
0.23000014694361631 0.073882582983183426 0
0.23000009755491521 0.079634714978539814 0
0.23000000260140188 0.096163284720128209 0
0.25000056774758395 0.021740481701303153 0
0.25000067989229163 0.024428616289606471 0
0.25000076026708956 0.026595634914080034 0
0.25000088932622905 0.028709220093962921 0
0.25000099857058006 0.030761495972095491 0
0.25000110701049605 0.032757488061998866 0
0.2500011515933302 0.034709440554454928 0
0.25000130415102723 0.03663108085779733 0
0.25000139116934106 0.0385360481940119 0
0.25000150307380958 0.040437453046875252 0
0.25000157029790293 0.042348261587649726 0
0.25000149407890571 0.044281697602503715 0
0.25000136589925465 0.046251732413093008 0
0.25000152307390544 0.048273045445466643 0
0.25000140658543951 0.050362946005045532 0
0.25000131565400924 0.052541345823641741 0
0.25000113587993922 0.054830942450914681 0
0.25000092358179649 0.057256096689587671 0
0.25000076044211988 0.059861306981761994 0
0.25000061811429619 0.062703360350728071 0
0.25000048840926442 0.065869862797015608 0
0.25000036838149781 0.069503745354264193 0
0.25000026510098822 0.073859329575228186 0
0.25000017303513522 0.079616033501749797 0
0.25000000435214015 0.096259077443703309 0
0.27000091875953725 0.021725278496854187 0
0.27000110914958381 0.024411805525965124 0
0.27000124601381437 0.026577534798361696 0
0.27000140195489164 0.028689884216075202 0
0.27000168829764765 0.030741026969120795 0
0.27000184985352366 0.032735814124890461 0
0.2700020121933901 0.034686515727653446 0
0.27000220254931634 0.036606834720031095 0
0.27000241042858242 0.038510382686273582 0
0.27000261230645589 0.04041031080940119 0
0.27000282325042713 0.042319480517947643 0
0.2700029060199392 0.044251131940316581 0
0.27000333447645147 0.046219117554748161 0
0.27000328712191812 0.048238369612751006 0
0.27000311054421605 0.050325949820772868 0
0.27000275681017916 0.052501847489791677 0
0.27000231190143786 0.054788784189467928 0
0.2700018622316761 0.057211145623842247 0
0.27000149663297851 0.059813356974434934 0
0.27000119598670064 0.062652468419048757 0
0.2700009377211724 0.065815776578608237 0
0.27000070731488107 0.069446687545707 0
0.2700005020939561 0.073801747702352843 0
0.27000032092803178 0.079565006935099547 0
0.270000007077346 0.096426697104513528 0
0.29000215538749996 0.021704181296364297 0
0.29000253805667753 0.024388928325545369 0
0.29000283565259205 0.026552861578156485 0
0.29000313794683846 0.02866298372903622 0
0.29000344107065523 0.030711432298098119 0
0.29000378569624491 0.032703229548819372 0
0.29000412789797764 0.034650600224518477 0
0.29000452062350329 0.036567250212949813 0
0.29000495824434602 0.038466756626979855 0
0.29000545084875451 0.040362231743665607 0
0.29000601589046099 0.04226653123066771 0
0.29000662996423565 0.044192759449246624 0
0.29000727901955065 0.046154760827111625 0
0.29000744545008988 0.048167450171001165 0
0.290006954643376 0.050247807820672424 0
0.29000612055593356 0.052415609709287367 0
0.29000510796227386 0.054692336063458281 0
0.29000413436422035 0.057105280717736642 0
0.29000325755942763 0.0596979849172753 0
0.29000252494833739 0.062527890473644779 0
0.29000191309135176 0.065680921689245761 0
0.29000140186597356 0.069300240497632185 0
0.29000097385214541 0.073647341553240805 0
0.29000060053762755 0.079414646742320405 0
0.29000001160136263 0.096691206098841229 0
0.31000531278901516 0.021775524160729216 0
0.31000615249508623 0.024453353009234593 0
0.31000677459830572 0.026610283066193646 0
0.31000736669036194 0.028710270619718994 0
0.31000794488006955 0.03074637287575141 0
0.31000853042059101 0.032724197002704632 0
0.31000911819622334 0.034656223869280633 0
0.31000969465435008 0.036556333901110016 0
0.31001039462866048 0.038438039841820711 0
0.310011332847966 0.040314408606010321 0
0.31001313098797795 0.042198173281307781 0
0.31001580837464565 0.044102382882966577 0
0.31001730592353371 0.046040671392948235 0
0.31001688903944113 0.048027750048802755 0
0.31001542584566255 0.050079943057827772 0
0.31001338354993457 0.052214800387638025 0
0.3100111052758191 0.05445245336817154 0
0.31000886632294566 0.056829186335743943 0
0.31000687998334697 0.059385419452751748 0
0.31000519441063867 0.062178540216071936 0
0.31000380876360478 0.065297085682194819 0
0.31000269216581794 0.068878791465903699 0
0.31000178702516507 0.073185598799886481 0
0.31000104450520521 0.078931240468575609 0
0.31000001591638043 0.097063110026773411 0
0.33000925852383378 0.023353123364329438 0
0.33001057248649324 0.025736381388571001 0
0.33001160312980266 0.027624967746217182 0
0.33001257509695786 0.029508434031614423 0
0.33001343380481352 0.031366478209362836 0
0.33001421689873311 0.033193910127614912 0
0.33001495465025171 0.034995080180274883 0
0.33001574058223504 0.03677810481779227 0
0.33001658609734869 0.038552421970068196 0
0.33001775740007161 0.040328088144220467 0
0.3300197870537559 0.042115537967986547 0
0.33002241503150193 0.043925858631462721 0
0.33002350344147363 0.045771055268526713 0
0.33002233489550259 0.047664114077628501 0
0.33002013339789094 0.049619138449080856 0
0.33001739845324141 0.051651991955025858 0
0.33001447299029435 0.053782775624874261 0
0.33001163533977651 0.056049033392551934 0
0.33000910306341058 0.058487469297415495 0
0.33000692340501991 0.061150635905461083 0
0.33000511298532448 0.064128961314566316 0
0.33000362282207013 0.067537318470236085 0
0.33000239822324046 0.071594120504187772 0
0.33000138548812719 0.07693977925211512 0
0.33000001311262278 0.097685097532941606 0
0 0 0
0 0.020000000000000004 0
0 0.040000000000000001 0
0 0.54999999999999993 0
0 0.56000000000000005 0
0 0.58000000000000007 0
0.02 0 0
0.02 0.020000000000000004 0
0.02 0.040000000000000001 0
0.02 0.54999999999999993 0
0.02 0.56000000000000005 0
0.02 0.58000000000000007 0
0.040000000000000001 0 0
0.040000000000000001 0.020000000000000004 0
0.040000000000000001 0.040000000000000001 0
0.040000000000000001 0.54999999999999993 0
0.040000000000000001 0.56000000000000005 0
0.040000000000000001 0.58000000000000007 0
0.059999999999999998 0 0
0.059999999999999998 0.020000000000000004 0
0.059999999999999998 0.040000000000000001 0
0.059999999999999998 0.54999999999999993 0
0.059999999999999998 0.56000000000000005 0
0.059999999999999998 0.58000000000000007 0
0.080000000000000002 0 0
0.080000000000000002 0.020000000000000004 0
0.080000000000000002 0.040000000000000001 0
0.080000000000000002 0.54999999999999993 0
0.080000000000000002 0.56000000000000005 0
0.080000000000000002 0.58000000000000007 0
0.10000000000000001 0 0
0.10000000000000001 0.020000000000000004 0
0.10000000000000001 0.040000000000000001 0
0.10000000000000001 0.54999999999999993 0
0.10000000000000001 0.56000000000000005 0
0.10000000000000001 0.58000000000000007 0
0.12 0 0
0.12 0.020000000000000004 0
0.12 0.040000000000000001 0
0.12 0.54999999999999993 0
0.12 0.56000000000000005 0
0.12 0.58000000000000007 0
0.14000000000000001 0 0
0.14000000000000001 0.020000000000000004 0
0.14000000000000001 0.040000000000000001 0
0.14000000000000001 0.54999999999999993 0
0.14000000000000001 0.56000000000000005 0
0.14000000000000001 0.58000000000000007 0
0.16 0 0
0.16 0.020000000000000004 0
0.16 0.040000000000000001 0
0.16 0.54999999999999993 0
0.16 0.56000000000000005 0
0.16 0.58000000000000007 0
0.17999999999999999 0 0
0.17999999999999999 0.020000000000000004 0
0.17999999999999999 0.040000000000000001 0
0.17999999999999999 0.54999999999999993 0
0.17999999999999999 0.56000000000000005 0
0.17999999999999999 0.58000000000000007 0
0.20000000000000001 0 0
0.20000000000000001 0.020000000000000004 0
0.20000000000000001 0.040000000000000001 0
0.20000000000000001 0.54999999999999993 0
0.20000000000000001 0.56000000000000005 0
0.20000000000000001 0.58000000000000007 0
0.22 0 0
0.22 0.020000000000000004 0
0.22 0.040000000000000001 0
0.22 0.54999999999999993 0
0.22 0.56000000000000005 0
0.22 0.58000000000000007 0
0.23999999999999999 0 0
0.23999999999999999 0.020000000000000004 0
0.23999999999999999 0.040000000000000001 0
0.23999999999999999 0.54999999999999993 0
0.23999999999999999 0.56000000000000005 0
0.23999999999999999 0.58000000000000007 0
0.26000000000000001 0 0
0.26000000000000001 0.020000000000000004 0
0.26000000000000001 0.040000000000000001 0
0.26000000000000001 0.54999999999999993 0
0.26000000000000001 0.56000000000000005 0
0.26000000000000001 0.58000000000000007 0
0.28000000000000003 0 0
0.28000000000000003 0.020000000000000004 0
0.28000000000000003 0.040000000000000001 0
0.28000000000000003 0.54999999999999993 0
0.28000000000000003 0.56000000000000005 0
0.28000000000000003 0.58000000000000007 0
0.29999999999999999 0 0
0.29999999999999999 0.020000000000000004 0
0.29999999999999999 0.040000000000000001 0
0.29999999999999999 0.54999999999999993 0
0.29999999999999999 0.56000000000000005 0
0.29999999999999999 0.58000000000000007 0
0.32000000000000001 0 0
0.32000000000000001 0.020000000000000004 0
0.32000000000000001 0.040000000000000001 0
0.32000000000000001 0.54999999999999993 0
0.32000000000000001 0.56000000000000005 0
0.32000000000000001 0.58000000000000007 0
0.34000000000000002 0 0
0.34000000000000002 0.020000000000000004 0
0.34000000000000002 0.040000000000000001 0
0.34000000000000002 0.54999999999999993 0
0.34000000000000002 0.56000000000000005 0
0.34000000000000002 0.58000000000000007 0
0.35999999999999999 0 0
0.35999999999999999 0.020000000000000004 0
0.35999999999999999 0.040000000000000001 0
0.35999999999999999 0.54999999999999993 0
0.35999999999999999 0.56000000000000005 0
0.35999999999999999 0.58000000000000007 0
0.38 0 0
0.38 0.020000000000000004 0
0.38 0.040000000000000001 0
0.38 0.54999999999999993 0
0.38 0.56000000000000005 0
0.38 0.58000000000000007 0
0.40000000000000002 0 0
0.40000000000000002 0.020000000000000004 0
0.40000000000000002 0.040000000000000001 0
0.40000000000000002 0.54999999999999993 0
0.40000000000000002 0.56000000000000005 0
0.40000000000000002 0.58000000000000007 0
0.41999999999999998 0 0
0.41999999999999998 0.020000000000000004 0
0.41999999999999998 0.040000000000000001 0
0.41999999999999998 0.54999999999999993 0
0.41999999999999998 0.56000000000000005 0
0.41999999999999998 0.58000000000000007 0
0.44 0 0
0.44 0.020000000000000004 0
0.44 0.040000000000000001 0
0.44 0.54999999999999993 0
0.44 0.56000000000000005 0
0.44 0.58000000000000007 0
0.46000000000000002 0 0
0.46000000000000002 0.020000000000000004 0
0.46000000000000002 0.040000000000000001 0
0.46000000000000002 0.54999999999999993 0
0.46000000000000002 0.56000000000000005 0
0.46000000000000002 0.58000000000000007 0
0.47999999999999998 0 0
0.47999999999999998 0.020000000000000004 0
0.47999999999999998 0.040000000000000001 0
0.47999999999999998 0.54999999999999993 0
0.47999999999999998 0.56000000000000005 0
0.47999999999999998 0.58000000000000007 0
0.5 0 0
0.5 0.020000000000000004 0
0.5 0.040000000000000001 0
0.5 0.54999999999999993 0
0.5 0.56000000000000005 0
0.5 0.58000000000000007 0
0.52000000000000002 0 0
0.52000000000000002 0.020000000000000004 0
0.52000000000000002 0.040000000000000001 0
0.52000000000000002 0.54999999999999993 0
0.52000000000000002 0.56000000000000005 0
0.52000000000000002 0.58000000000000007 0
0.54000000000000004 0 0
0.54000000000000004 0.020000000000000004 0
0.54000000000000004 0.040000000000000001 0
0.54000000000000004 0.54999999999999993 0
0.54000000000000004 0.56000000000000005 0
0.54000000000000004 0.58000000000000007 0
0.56000000000000005 0 0
0.56000000000000005 0.020000000000000004 0
0.56000000000000005 0.040000000000000001 0
0.56000000000000005 0.54999999999999993 0
0.56000000000000005 0.56000000000000005 0
0.56000000000000005 0.58000000000000007 0
0.57999999999999996 0 0
0.57999999999999996 0.020000000000000004 0
0.57999999999999996 0.040000000000000001 0
0.57999999999999996 0.54999999999999993 0
0.57999999999999996 0.56000000000000005 0
0.57999999999999996 0.58000000000000007 0
0.59999999999999998 0 0
0.59999999999999998 0.020000000000000004 0
0.59999999999999998 0.040000000000000001 0
0.59999999999999998 0.54999999999999993 0
0.59999999999999998 0.56000000000000005 0
0.59999999999999998 0.58000000000000007 0
0.62 0 0
0.62 0.020000000000000004 0
0.62 0.040000000000000001 0
0.62 0.54999999999999993 0
0.62 0.56000000000000005 0
0.62 0.58000000000000007 0
0.64000000000000001 0 0
0.64000000000000001 0.020000000000000004 0
0.64000000000000001 0.040000000000000001 0
0.64000000000000001 0.54999999999999993 0
0.64000000000000001 0.56000000000000005 0
0.64000000000000001 0.58000000000000007 0
0.66000000000000003 0 0
0.66000000000000003 0.020000000000000004 0
0.66000000000000003 0.040000000000000001 0
0.66000000000000003 0.54999999999999993 0
0.66000000000000003 0.56000000000000005 0
0.66000000000000003 0.58000000000000007 0
0.68000000000000005 0 0
0.68000000000000005 0.020000000000000004 0
0.68000000000000005 0.040000000000000001 0
0.68000000000000005 0.54999999999999993 0
0.68000000000000005 0.56000000000000005 0
0.68000000000000005 0.58000000000000007 0
0.70000000000000007 0 0
0.70000000000000007 0.020000000000000004 0
0.70000000000000007 0.040000000000000001 0
0.70000000000000007 0.54999999999999993 0
0.70000000000000007 0.56000000000000005 0
0.70000000000000007 0.58000000000000007 0
0.71999999999999997 0 0
0.71999999999999997 0.020000000000000004 0
0.71999999999999997 0.040000000000000001 0
0.71999999999999997 0.54999999999999993 0
0.71999999999999997 0.56000000000000005 0
0.71999999999999997 0.58000000000000007 0
0.73999999999999999 0 0
0.73999999999999999 0.020000000000000004 0
0.73999999999999999 0.040000000000000001 0
0.73999999999999999 0.54999999999999993 0
0.73999999999999999 0.56000000000000005 0
0.73999999999999999 0.58000000000000007 0
0.76000000000000001 0 0
0.76000000000000001 0.020000000000000004 0
0.76000000000000001 0.040000000000000001 0
0.76000000000000001 0.54999999999999993 0
0.76000000000000001 0.56000000000000005 0
0.76000000000000001 0.58000000000000007 0
0.78000000000000003 0 0
0.78000000000000003 0.020000000000000004 0
0.78000000000000003 0.040000000000000001 0
0.78000000000000003 0.54999999999999993 0
0.78000000000000003 0.56000000000000005 0
0.78000000000000003 0.58000000000000007 0
0.80000000000000004 0 0
0.80000000000000004 0.020000000000000004 0
0.80000000000000004 0.040000000000000001 0
0.80000000000000004 0.54999999999999993 0
0.80000000000000004 0.56000000000000005 0
0.80000000000000004 0.58000000000000007 0
0.82000000000000006 0 0
0.82000000000000006 0.020000000000000004 0
0.82000000000000006 0.040000000000000001 0
0.82000000000000006 0.54999999999999993 0
0.82000000000000006 0.56000000000000005 0
0.82000000000000006 0.58000000000000007 0
0.83999999999999997 0 0
0.83999999999999997 0.020000000000000004 0
0.83999999999999997 0.040000000000000001 0
0.83999999999999997 0.54999999999999993 0
0.83999999999999997 0.56000000000000005 0
0.83999999999999997 0.58000000000000007 0
0.85999999999999999 0 0
0.85999999999999999 0.020000000000000004 0
0.85999999999999999 0.040000000000000001 0
0.85999999999999999 0.54999999999999993 0
0.85999999999999999 0.56000000000000005 0
0.85999999999999999 0.58000000000000007 0
0.88 0 0
0.88 0.020000000000000004 0
0.88 0.040000000000000001 0
0.88 0.54999999999999993 0
0.88 0.56000000000000005 0
0.88 0.58000000000000007 0
0.90000000000000002 0 0
0.90000000000000002 0.020000000000000004 0
0.90000000000000002 0.040000000000000001 0
0.90000000000000002 0.54999999999999993 0
0.90000000000000002 0.56000000000000005 0
0.90000000000000002 0.58000000000000007 0
0.92000000000000004 0 0
0.92000000000000004 0.020000000000000004 0
0.92000000000000004 0.040000000000000001 0
0.92000000000000004 0.54999999999999993 0
0.92000000000000004 0.56000000000000005 0
0.92000000000000004 0.58000000000000007 0
0.94000000000000006 0 0
0.94000000000000006 0.020000000000000004 0
0.94000000000000006 0.040000000000000001 0
0.94000000000000006 0.54999999999999993 0
0.94000000000000006 0.56000000000000005 0
0.94000000000000006 0.58000000000000007 0
0.95999999999999996 0 0
0.95999999999999996 0.020000000000000004 0
0.95999999999999996 0.040000000000000001 0
0.95999999999999996 0.54999999999999993 0
0.95999999999999996 0.56000000000000005 0
0.95999999999999996 0.58000000000000007 0
0.97999999999999998 0 0
0.97999999999999998 0.020000000000000004 0
0.97999999999999998 0.040000000000000001 0
0.97999999999999998 0.54999999999999993 0
0.97999999999999998 0.56000000000000005 0
0.97999999999999998 0.58000000000000007 0
1 0 0
1 0.020000000000000004 0
1 0.040000000000000001 0
1 0.54999999999999993 0
1 0.56000000000000005 0
1 0.58000000000000007 0
VERTICES 681 1362
1 0
1 1
1 2
1 3
1 4
1 5
1 6
1 7
1 8
1 9
1 10
1 11
1 12
1 13
1 14
1 15
1 16
1 17
1 18
1 19
1 20
1 21
1 22
1 23
1 24
1 25
1 26
1 27
1 28
1 29
1 30
1 31
1 32
1 33
1 34
1 35
1 36
1 37
1 38
1 39
1 40
1 41
1 42
1 43
1 44
1 45
1 46
1 47
1 48
1 49
1 50
1 51
1 52
1 53
1 54
1 55
1 56
1 57
1 58
1 59
1 60
1 61
1 62
1 63
1 64
1 65
1 66
1 67
1 68
1 69
1 70
1 71
1 72
1 73
1 74
1 75
1 76
1 77
1 78
1 79
1 80
1 81
1 82
1 83
1 84
1 85
1 86
1 87
1 88
1 89
1 90
1 91
1 92
1 93
1 94
1 95
1 96
1 97
1 98
1 99
1 100
1 101
1 102
1 103
1 104
1 105
1 106
1 107
1 108
1 109
1 110
1 111
1 112
1 113
1 114
1 115
1 116
1 117
1 118
1 119
1 120
1 121
1 122
1 123
1 124
1 125
1 126
1 127
1 128
1 129
1 130
1 131
1 132
1 133
1 134
1 135
1 136
1 137
1 138
1 139
1 140
1 141
1 142
1 143
1 144
1 145
1 146
1 147
1 148
1 149
1 150
1 151
1 152
1 153
1 154
1 155
1 156
1 157
1 158
1 159
1 160
1 161
1 162
1 163
1 164
1 165
1 166
1 167
1 168
1 169
1 170
1 171
1 172
1 173
1 174
1 175
1 176
1 177
1 178
1 179
1 180
1 181
1 182
1 183
1 184
1 185
1 186
1 187
1 188
1 189
1 190
1 191
1 192
1 193
1 194
1 195
1 196
1 197
1 198
1 199
1 200
1 201
1 202
1 203
1 204
1 205
1 206
1 207
1 208
1 209
1 210
1 211
1 212
1 213
1 214
1 215
1 216
1 217
1 218
1 219
1 220
1 221
1 222
1 223
1 224
1 225
1 226
1 227
1 228
1 229
1 230
1 231
1 232
1 233
1 234
1 235
1 236
1 237
1 238
1 239
1 240
1 241
1 242
1 243
1 244
1 245
1 246
1 247
1 248
1 249
1 250
1 251
1 252
1 253
1 254
1 255
1 256
1 257
1 258
1 259
1 260
1 261
1 262
1 263
1 264
1 265
1 266
1 267
1 268
1 269
1 270
1 271
1 272
1 273
1 274
1 275
1 276
1 277
1 278
1 279
1 280
1 281
1 282
1 283
1 284
1 285
1 286
1 287
1 288
1 289
1 290
1 291
1 292
1 293
1 294
1 295
1 296
1 297
1 298
1 299
1 300
1 301
1 302
1 303
1 304
1 305
1 306
1 307
1 308
1 309
1 310
1 311
1 312
1 313
1 314
1 315
1 316
1 317
1 318
1 319
1 320
1 321
1 322
1 323
1 324
1 325
1 326
1 327
1 328
1 329
1 330
1 331
1 332
1 333
1 334
1 335
1 336
1 337
1 338
1 339
1 340
1 341
1 342
1 343
1 344
1 345
1 346
1 347
1 348
1 349
1 350
1 351
1 352
1 353
1 354
1 355
1 356
1 357
1 358
1 359
1 360
1 361
1 362
1 363
1 364
1 365
1 366
1 367
1 368
1 369
1 370
1 371
1 372
1 373
1 374
1 375
1 376
1 377
1 378
1 379
1 380
1 381
1 382
1 383
1 384
1 385
1 386
1 387
1 388
1 389
1 390
1 391
1 392
1 393
1 394
1 395
1 396
1 397
1 398
1 399
1 400
1 401
1 402
1 403
1 404
1 405
1 406
1 407
1 408
1 409
1 410
1 411
1 412
1 413
1 414
1 415
1 416
1 417
1 418
1 419
1 420
1 421
1 422
1 423
1 424
1 425
1 426
1 427
1 428
1 429
1 430
1 431
1 432
1 433
1 434
1 435
1 436
1 437
1 438
1 439
1 440
1 441
1 442
1 443
1 444
1 445
1 446
1 447
1 448
1 449
1 450
1 451
1 452
1 453
1 454
1 455
1 456
1 457
1 458
1 459
1 460
1 461
1 462
1 463
1 464
1 465
1 466
1 467
1 468
1 469
1 470
1 471
1 472
1 473
1 474
1 475
1 476
1 477
1 478
1 479
1 480
1 481
1 482
1 483
1 484
1 485
1 486
1 487
1 488
1 489
1 490
1 491
1 492
1 493
1 494
1 495
1 496
1 497
1 498
1 499
1 500
1 501
1 502
1 503
1 504
1 505
1 506
1 507
1 508
1 509
1 510
1 511
1 512
1 513
1 514
1 515
1 516
1 517
1 518
1 519
1 520
1 521
1 522
1 523
1 524
1 525
1 526
1 527
1 528
1 529
1 530
1 531
1 532
1 533
1 534
1 535
1 536
1 537
1 538
1 539
1 540
1 541
1 542
1 543
1 544
1 545
1 546
1 547
1 548
1 549
1 550
1 551
1 552
1 553
1 554
1 555
1 556
1 557
1 558
1 559
1 560
1 561
1 562
1 563
1 564
1 565
1 566
1 567
1 568
1 569
1 570
1 571
1 572
1 573
1 574
1 575
1 576
1 577
1 578
1 579
1 580
1 581
1 582
1 583
1 584
1 585
1 586
1 587
1 588
1 589
1 590
1 591
1 592
1 593
1 594
1 595
1 596
1 597
1 598
1 599
1 600
1 601
1 602
1 603
1 604
1 605
1 606
1 607
1 608
1 609
1 610
1 611
1 612
1 613
1 614
1 615
1 616
1 617
1 618
1 619
1 620
1 621
1 622
1 623
1 624
1 625
1 626
1 627
1 628
1 629
1 630
1 631
1 632
1 633
1 634
1 635
1 636
1 637
1 638
1 639
1 640
1 641
1 642
1 643
1 644
1 645
1 646
1 647
1 648
1 649
1 650
1 651
1 652
1 653
1 654
1 655
1 656
1 657
1 658
1 659
1 660
1 661
1 662
1 663
1 664
1 665
1 666
1 667
1 668
1 669
1 670
1 671
1 672
1 673
1 674
1 675
1 676
1 677
1 678
1 679
1 680
POINT_DATA 681
SCALARS is_boundary int 1
LOOKUP_TABLE default
0
0
0
0
0
0
0
0
0
0
0
0
0
0
0
0
0
0
0
0
0
0
0
0
0
0
0
0
0
0
0
0
0
0
0
0
0
0
0
0
0
0
0
0
0
0
0
0
0
0
0
0
0
0
0
0
0
0
0
0
0
0
0
0
0
0
0
0
0
0
0
0
0
0
0
0
0
0
0
0
0
0
0
0
0
0
0
0
0
0
0
0
0
0
0
0
0
0
0
0
0
0
0
0
0
0
0
0
0
0
0
0
0
0
0
0
0
0
0
0
0
0
0
0
0
0
0
0
0
0
0
0
0
0
0
0
0
0
0
0
0
0
0
0
0
0
0
0
0
0
0
0
0
0
0
0
0
0
0
0
0
0
0
0
0
0
0
0
0
0
0
0
0
0
0
0
0
0
0
0
0
0
0
0
0
0
0
0
0
0
0
0
0
0
0
0
0
0
0
0
0
0
0
0
0
0
0
0
0
0
0
0
0
0
0
0
0
0
0
0
0
0
0
0
0
0
0
0
0
0
0
0
0
0
0
0
0
0
0
0
0
0
0
0
0
0
0
0
0
0
0
0
0
0
0
0
0
0
0
0
0
0
0
0
0
0
0
0
0
0
0
0
0
0
0
0
0
0
0
0
0
0
0
0
0
0
0
0
0
0
0
0
0
0
0
0
0
0
0
0
0
0
0
0
0
0
0
0
0
0
0
0
0
0
0
0
0
0
0
0
0
0
0
0
0
0
0
0
0
0
0
0
0
0
0
0
0
0
0
0
0
0
0
0
0
0
0
0
0
0
0
0
0
0
0
0
0
0
0
0
0
0
0
0
0
0
0
0
0
0
0
0
0
0
0
1
1
1
1
1
1
1
1
1
1
1
1
1
1
1
1
1
1
1
1
1
1
1
1
1
1
1
1
1
1
1
1
1
1
1
1
1
1
1
1
1
1
1
1
1
1
1
1
1
1
1
1
1
1
1
1
1
1
1
1
1
1
1
1
1
1
1
1
1
1
1
1
1
1
1
1
1
1
1
1
1
1
1
1
1
1
1
1
1
1
1
1
1
1
1
1
1
1
1
1
1
1
1
1
1
1
1
1
1
1
1
1
1
1
1
1
1
1
1
1
1
1
1
1
1
1
1
1
1
1
1
1
1
1
1
1
1
1
1
1
1
1
1
1
1
1
1
1
1
1
1
1
1
1
1
1
1
1
1
1
1
1
1
1
1
1
1
1
1
1
1
1
1
1
1
1
1
1
1
1
1
1
1
1
1
1
1
1
1
1
1
1
1
1
1
1
1
1
1
1
1
1
1
1
1
1
1
1
1
1
1
1
1
1
1
1
1
1
1
1
1
1
1
1
1
1
1
1
1
1
1
1
1
1
1
1
1
1
1
1
1
1
1
1
1
1
1
1
1
1
1
1
1
1
1
1
1
1
1
1
1
1
1
1
1
1
1
1
1
1
1
1
1
1
1
1
1
1
1
1
1
1
1
1
1
1
1
1
1
1
1
1
1
1
1
1
1
1
1
1
1
1
1
1
1
1
SCALARS rho float 1
LOOKUP_TABLE default
1020
1020
1020
1020
1020
1020
1020
1020
1020
1020
1020
1020
1020
1020
1020
1020
1020
1020
1020
1020
1020
1020
1020
1020
850
1020
1020
1020
1020
1020
1020
1020
1020
1020
1020
1020
1020
1020
1020
1020
1020
1020
1020
1020
1020
1020
1020
1020
1020
880
1020
1020
1020
1020
1020
1020
1020
1020
1020
1020
1020
1020
1020
1020
1020
1020
1020
1020
1020
1020
1020
1020
1020
1020
880
1020
1020
1020
1020
1020
1020
1020
1020
1020
1020
1020
1020
1020
1020
1020
1020
1020
1020
1020
1020
1020
1020
1020
1020
880
1020
1020
1020
1020
1020
1020
1020
1020
1020
1020
1020
1020
1020
1020
1020
1020
1020
1020
1020
1020
1020
1020
1020
1020
880
1020
1020
1020
1020
1020
1020
1020
1020
1020
1020
1020
1020
1020
1020
1020
1020
1020
1020
1020
1020
1020
1020
1020
1020
880
1020
1020
1020
1020
1020
1020
1020
1020
1020
1020
1020
1020
1020
1020
1020
1020
1020
1020
1020
1020
1020
1020
1020
1020
880
1020
1020
1020
1020
1020
1020
1020
1020
1020
1020
1020
1020
1020
1020
1020
1020
1020
1020
1020
1020
1020
1020
1020
1020
880
1020
1020
1020
1020
1020
1020
1020
1020
1020
1020
1020
1020
1020
1020
1020
1020
1020
1020
1020
1020
1020
1020
1020
1020
880
1020
1020
1020
1020
1020
1020
1020
1020
1020
1020
1020
1020
1020
1020
1020
1020
1020
1020
1020
1020
1020
1020
1020
1020
880
1020
1020
1020
1020
1020
1020
1020
1020
1020
1020
1020
1020
1020
1020
1020
1020
1020
1020
1020
1020
1020
1020
1020
1020
880
1020
1020
1020
1020
1020
1020
1020
1020
1020
1020
1020
1020
1020
1020
1020
1020
1020
1020
1020
1020
1020
1020
1020
1020
880
1020
1020
1020
1020
1020
1020
1020
1020
1020
1020
1020
1020
1020
1020
1020
1020
1020
1020
1020
1020
1020
1020
1020
1020
880
1020
1020
1020
1020
1020
1020
1020
1020
1020
1020
1020
1020
1020
1020
1020
1020
1020
1020
1020
1020
1020
1020
1020
1020
880
1020
1020
1020
1020
1020
1020
1020
1020
1020
1020
1020
1020
1020
1020
1020
1020
1020
1020
1020
1020
1020
1020
1020
1020
850
1000
1000
1000
1000
1000
1000
1000
1000
1000
1000
1000
1000
1000
1000
1000
1000
1000
1000
1000
1000
1000
1000
1000
1000
1000
1000
1000
1000
1000
1000
1000
1000
1000
1000
1000
1000
1000
1000
1000
1000
1000
1000
1000
1000
1000
1000
1000
1000
1000
1000
1000
1000
1000
1000
1000
1000
1000
1000
1000
1000
1000
1000
1000
1000
1000
1000
1000
1000
1000
1000
1000
1000
1000
1000
1000
1000
1000
1000
1000
1000
1000
1000
1000
1000
1000
1000
1000
1000
1000
1000
1000
1000
1000
1000
1000
1000
1000
1000
1000
1000
1000
1000
1000
1000
1000
1000
1000
1000
1000
1000
1000
1000
1000
1000
1000
1000
1000
1000
1000
1000
1000
1000
1000
1000
1000
1000
1000
1000
1000
1000
1000
1000
1000
1000
1000
1000
1000
1000
1000
1000
1000
1000
1000
1000
1000
1000
1000
1000
1000
1000
1000
1000
1000
1000
1000
1000
1000
1000
1000
1000
1000
1000
1000
1000
1000
1000
1000
1000
1000
1000
1000
1000
1000
1000
1000
1000
1000
1000
1000
1000
1000
1000
1000
1000
1000
1000
1000
1000
1000
1000
1000
1000
1000
1000
1000
1000
1000
1000
1000
1000
1000
1000
1000
1000
1000
1000
1000
1000
1000
1000
1000
1000
1000
1000
1000
1000
1000
1000
1000
1000
1000
1000
1000
1000
1000
1000
1000
1000
1000
1000
1000
1000
1000
1000
1000
1000
1000
1000
1000
1000
1000
1000
1000
1000
1000
1000
1000
1000
1000
1000
1000
1000
1000
1000
1000
1000
1000
1000
1000
1000
1000
1000
1000
1000
1000
1000
1000
1000
1000
1000
1000
1000
1000
1000
1000
1000
1000
1000
1000
1000
1000
1000
1000
1000
1000
1000
1000
1000
1000
1000
1000
1000
1000
1000
1000
1000
1000
1000
1000
1000
1000
1000
1000
1000
1000
1000
SCALARS p float 1
LOOKUP_TABLE default
25004.681136676067
25004.681136676067
25004.681136676067
25004.681136676067
25004.681136676067
25004.681136676067
25004.681136676067
25004.681136676067
25004.681136676067
25004.681136676067
25004.681136676067
25004.681136676067
25004.681136676067
25004.681136676067
25004.681136676067
25004.681136676067
25004.681136676067
25004.681136676067
25004.681136676067
25004.681136676067
25004.681136676067
25004.681136676067
25004.681136676067
25004.681136676067
0
25004.681136676067
25004.681136676067
25004.681136676067
25004.681136676067
25004.681136676067
25004.681136676067
25004.681136676067
25004.681136676067
25004.681136676067
25004.681136676067
25004.681136676067
25004.681136676067
25004.681136676067
25004.681136676067
25004.681136676067
25004.681136676067
25004.681136676067
25004.681136676067
25004.681136676067
25004.681136676067
25004.681136676067
25004.681136676067
25004.681136676067
25004.681136676067
0
25004.681136676067
25004.681136676067
25004.681136676067
25004.681136676067
25004.681136676067
25004.681136676067
25004.681136676067
25004.681136676067
25004.681136676067
25004.681136676067
25004.681136676067
25004.681136676067
25004.681136676067
25004.681136676067
25004.681136676067
25004.681136676067
25004.681136676067
25004.681136676067
25004.681136676067
25004.681136676067
25004.681136676067
25004.681136676067
25004.681136676067
25004.681136676067
0
25004.681136676067
25004.681136676067
25004.681136676067
25004.681136676067
25004.681136676067
25004.681136676067
25004.681136676067
25004.681136676067
25004.681136676067
25004.681136676067
25004.681136676067
25004.681136676067
25004.681136676067
25004.681136676067
25004.681136676067
25004.681136676067
25004.681136676067
25004.681136676067
25004.681136676067
25004.681136676067
25004.681136676067
25004.681136676067
25004.681136676067
25004.681136676067
0
25004.681136676067
25004.681136676067
25004.681136676067
25004.681136676067
25004.681136676067
25004.681136676067
25004.681136676067
25004.681136676067
25004.681136676067
25004.681136676067
25004.681136676067
25004.681136676067
25004.681136676067
25004.681136676067
25004.681136676067
25004.681136676067
25004.681136676067
25004.681136676067
25004.681136676067
25004.681136676067
25004.681136676067
25004.681136676067
25004.681136676067
25004.681136676067
0
25004.681136676067
25004.681136676067
25004.681136676067
25004.681136676067
25004.681136676067
25004.681136676067
25004.681136676067
25004.681136676067
25004.681136676067
25004.681136676067
25004.681136676067
25004.681136676067
25004.681136676067
25004.681136676067
25004.681136676067
25004.681136676067
25004.681136676067
25004.681136676067
25004.681136676067
25004.681136676067
25004.681136676067
25004.681136676067
25004.681136676067
25004.681136676067
0
25004.681136676067
25004.681136676067
25004.681136676067
25004.681136676067
25004.681136676067
25004.681136676067
25004.681136676067
25004.681136676067
25004.681136676067
25004.681136676067
25004.681136676067
25004.681136676067
25004.681136676067
25004.681136676067
25004.681136676067
25004.681136676067
25004.681136676067
25004.681136676067
25004.681136676067
25004.681136676067
25004.681136676067
25004.681136676067
25004.681136676067
25004.681136676067
0
25004.681136676067
25004.681136676067
25004.681136676067
25004.681136676067
25004.681136676067
25004.681136676067
25004.681136676067
25004.681136676067
25004.681136676067
25004.681136676067
25004.681136676067
25004.681136676067
25004.681136676067
25004.681136676067
25004.681136676067
25004.681136676067
25004.681136676067
25004.681136676067
25004.681136676067
25004.681136676067
25004.681136676067
25004.681136676067
25004.681136676067
25004.681136676067
0
25004.681136676067
25004.681136676067
25004.681136676067
25004.681136676067
25004.681136676067
25004.681136676067
25004.681136676067
25004.681136676067
25004.681136676067
25004.681136676067
25004.681136676067
25004.681136676067
25004.681136676067
25004.681136676067
25004.681136676067
25004.681136676067
25004.681136676067
25004.681136676067
25004.681136676067
25004.681136676067
25004.681136676067
25004.681136676067
25004.681136676067
25004.681136676067
0
25004.681136676067
25004.681136676067
25004.681136676067
25004.681136676067
25004.681136676067
25004.681136676067
25004.681136676067
25004.681136676067
25004.681136676067
25004.681136676067
25004.681136676067
25004.681136676067
25004.681136676067
25004.681136676067
25004.681136676067
25004.681136676067
25004.681136676067
25004.681136676067
25004.681136676067
25004.681136676067
25004.681136676067
25004.681136676067
25004.681136676067
25004.681136676067
0
25004.681136676067
25004.681136676067
25004.681136676067
25004.681136676067
25004.681136676067
25004.681136676067
25004.681136676067
25004.681136676067
25004.681136676067
25004.681136676067
25004.681136676067
25004.681136676067
25004.681136676067
25004.681136676067
25004.681136676067
25004.681136676067
25004.681136676067
25004.681136676067
25004.681136676067
25004.681136676067
25004.681136676067
25004.681136676067
25004.681136676067
25004.681136676067
0
25004.681136676067
25004.681136676067
25004.681136676067
25004.681136676067
25004.681136676067
25004.681136676067
25004.681136676067
25004.681136676067
25004.681136676067
25004.681136676067
25004.681136676067
25004.681136676067
25004.681136676067
25004.681136676067
25004.681136676067
25004.681136676067
25004.681136676067
25004.681136676067
25004.681136676067
25004.681136676067
25004.681136676067
25004.681136676067
25004.681136676067
25004.681136676067
0
25004.681136676067
25004.681136676067
25004.681136676067
25004.681136676067
25004.681136676067
25004.681136676067
25004.681136676067
25004.681136676067
25004.681136676067
25004.681136676067
25004.681136676067
25004.681136676067
25004.681136676067
25004.681136676067
25004.681136676067
25004.681136676067
25004.681136676067
25004.681136676067
25004.681136676067
25004.681136676067
25004.681136676067
25004.681136676067
25004.681136676067
25004.681136676067
0
25004.681136676067
25004.681136676067
25004.681136676067
25004.681136676067
25004.681136676067
25004.681136676067
25004.681136676067
25004.681136676067
25004.681136676067
25004.681136676067
25004.681136676067
25004.681136676067
25004.681136676067
25004.681136676067
25004.681136676067
25004.681136676067
25004.681136676067
25004.681136676067
25004.681136676067
25004.681136676067
25004.681136676067
25004.681136676067
25004.681136676067
25004.681136676067
0
25004.681136676067
25004.681136676067
25004.681136676067
25004.681136676067
25004.681136676067
25004.681136676067
25004.681136676067
25004.681136676067
25004.681136676067
25004.681136676067
25004.681136676067
25004.681136676067
25004.681136676067
25004.681136676067
25004.681136676067
25004.681136676067
25004.681136676067
25004.681136676067
25004.681136676067
25004.681136676067
25004.681136676067
25004.681136676067
25004.681136676067
25004.681136676067
0
0
0
0
0
0
0
24463.83478152665
24988.567455129873
24997.628460563141
0
0
0
24990.756655119374
25003.497356655331
25004.109175906826
0
0
0
24998.216005353966
25004.071143853369
25004.378054782905
0
0
0
24998.834746482364
25004.098084432753
25004.384555096276
0
0
0
24998.876995887022
25004.097636368966
25004.382802325683
0
0
0
24998.857056759625
25004.09643602838
25004.382347992472
0
0
0
24998.843007253985
25004.095717140572
25004.382187210027
0
0
0
24998.836113791469
25004.095369933384
25004.38212007816
0
0
0
24998.833419856583
25004.095239288825
25004.382098018224
0
0
0
24998.833394492369
25004.095239622922
25004.38209899082
0
0
0
24998.836083698654
25004.095370846535
25004.38212169307
0
0
0
24998.842970890961
25004.095716909502
25004.382188181433
0
0
0
24998.857030860265
25004.096436526739
25004.38235042453
0
0
0
24998.876916801935
25004.097633998113
25004.382805053297
0
0
0
24998.834611531092
25004.098082201745
25004.384559111764
0
0
0
24998.21586853416
25004.07115064856
25004.378064272478
0
0
0
24990.755591083805
25003.497312417869
25004.109158650397
0
0
0
24463.703475338156
24988.565216272229
24997.627287500265
0
0
0
0
0
0
0
0
0
0
0
0
0
0
0
0
0
0
0
0
0
0
0
0
0
0
0
0
0
0
0
0
0
0
0
0
0
0
0
0
0
0
0
0
0
0
0
0
0
0
0
0
0
0
0
0
0
0
0
0
0
0
0
0
0
0
0
0
0
0
0
0
0
0
0
0
0
0
0
0
0
0
0
0
0
0
0
0
0
0
0
0
0
0
0
0
0
0
0
0
0
0
0
0
0
0
0
0
0
0
0
0
0
0
0
0
0
0
0
0
0
0
0
0
0
0
0
0
0
0
0
0
0
0
0
0
0
0
0
0
0
0
0
0
0
0
0
0
0
0
0
0
0
0
0
0
0
0
0
0
0
0
0
0
0
0
0
0
0
0
0
0
0
0
0
0
0
0
0
0
0
0
0
0
0
0
0
0
0
0
0
0
0
0
0
SCALARS m float 1
LOOKUP_TABLE default
0.39942306611962441
0.39942306611962441
0.39942306611962441
0.39942306611962441
0.39942306611962441
0.39942306611962441
0.39942306611962441
0.39942306611962441
0.39942306611962441
0.39942306611962441
0.39942306611962441
0.39942306611962441
0.39942306611962441
0.39942306611962441
0.39942306611962441
0.39942306611962441
0.39942306611962441
0.39942306611962441
0.39942306611962441
0.39942306611962441
0.39942306611962441
0.39942306611962441
0.39942306611962441
0.39942306611962441
0.39942306611962441
0.39942306611962441
0.39942306611962441
0.39942306611962441
0.39942306611962441
0.39942306611962441
0.39942306611962441
0.39942306611962441
0.39942306611962441
0.39942306611962441
0.39942306611962441
0.39942306611962441
0.39942306611962441
0.39942306611962441
0.39942306611962441
0.39942306611962441
0.39942306611962441
0.39942306611962441
0.39942306611962441
0.39942306611962441
0.39942306611962441
0.39942306611962441
0.39942306611962441
0.39942306611962441
0.39942306611962441
0.39942306611962441
0.39942306611962441
0.39942306611962441
0.39942306611962441
0.39942306611962441
0.39942306611962441
0.39942306611962441
0.39942306611962441
0.39942306611962441
0.39942306611962441
0.39942306611962441
0.39942306611962441
0.39942306611962441
0.39942306611962441
0.39942306611962441
0.39942306611962441
0.39942306611962441
0.39942306611962441
0.39942306611962441
0.39942306611962441
0.39942306611962441
0.39942306611962441
0.39942306611962441
0.39942306611962441
0.39942306611962441
0.39942306611962441
0.39942306611962441
0.39942306611962441
0.39942306611962441
0.39942306611962441
0.39942306611962441
0.39942306611962441
0.39942306611962441
0.39942306611962441
0.39942306611962441
0.39942306611962441
0.39942306611962441
0.39942306611962441
0.39942306611962441
0.39942306611962441
0.39942306611962441
0.39942306611962441
0.39942306611962441
0.39942306611962441
0.39942306611962441
0.39942306611962441
0.39942306611962441
0.39942306611962441
0.39942306611962441
0.39942306611962441
0.39942306611962441
0.39942306611962441
0.39942306611962441
0.39942306611962441
0.39942306611962441
0.39942306611962441
0.39942306611962441
0.39942306611962441
0.39942306611962441
0.39942306611962441
0.39942306611962441
0.39942306611962441
0.39942306611962441
0.39942306611962441
0.39942306611962441
0.39942306611962441
0.39942306611962441
0.39942306611962441
0.39942306611962441
0.39942306611962441
0.39942306611962441
0.39942306611962441
0.39942306611962441
0.39942306611962441
0.39942306611962441
0.39942306611962441
0.39942306611962441
0.39942306611962441
0.39942306611962441
0.39942306611962441
0.39942306611962441
0.39942306611962441
0.39942306611962441
0.39942306611962441
0.39942306611962441
0.39942306611962441
0.39942306611962441
0.39942306611962441
0.39942306611962441
0.39942306611962441
0.39942306611962441
0.39942306611962441
0.39942306611962441
0.39942306611962441
0.39942306611962441
0.39942306611962441
0.39942306611962441
0.39942306611962441
0.39942306611962441
0.39942306611962441
0.39942306611962441
0.39942306611962441
0.39942306611962441
0.39942306611962441
0.39942306611962441
0.39942306611962441
0.39942306611962441
0.39942306611962441
0.39942306611962441
0.39942306611962441
0.39942306611962441
0.39942306611962441
0.39942306611962441
0.39942306611962441
0.39942306611962441
0.39942306611962441
0.39942306611962441
0.39942306611962441
0.39942306611962441
0.39942306611962441
0.39942306611962441
0.39942306611962441
0.39942306611962441
0.39942306611962441
0.39942306611962441
0.39942306611962441
0.39942306611962441
0.39942306611962441
0.39942306611962441
0.39942306611962441
0.39942306611962441
0.39942306611962441
0.39942306611962441
0.39942306611962441
0.39942306611962441
0.39942306611962441
0.39942306611962441
0.39942306611962441
0.39942306611962441
0.39942306611962441
0.39942306611962441
0.39942306611962441
0.39942306611962441
0.39942306611962441
0.39942306611962441
0.39942306611962441
0.39942306611962441
0.39942306611962441
0.39942306611962441
0.39942306611962441
0.39942306611962441
0.39942306611962441
0.39942306611962441
0.39942306611962441
0.39942306611962441
0.39942306611962441
0.39942306611962441
0.39942306611962441
0.39942306611962441
0.39942306611962441
0.39942306611962441
0.39942306611962441
0.39942306611962441
0.39942306611962441
0.39942306611962441
0.39942306611962441
0.39942306611962441
0.39942306611962441
0.39942306611962441
0.39942306611962441
0.39942306611962441
0.39942306611962441
0.39942306611962441
0.39942306611962441
0.39942306611962441
0.39942306611962441
0.39942306611962441
0.39942306611962441
0.39942306611962441
0.39942306611962441
0.39942306611962441
0.39942306611962441
0.39942306611962441
0.39942306611962441
0.39942306611962441
0.39942306611962441
0.39942306611962441
0.39942306611962441
0.39942306611962441
0.39942306611962441
0.39942306611962441
0.39942306611962441
0.39942306611962441
0.39942306611962441
0.39942306611962441
0.39942306611962441
0.39942306611962441
0.39942306611962441
0.39942306611962441
0.39942306611962441
0.39942306611962441
0.39942306611962441
0.39942306611962441
0.39942306611962441
0.39942306611962441
0.39942306611962441
0.39942306611962441
0.39942306611962441
0.39942306611962441
0.39942306611962441
0.39942306611962441
0.39942306611962441
0.39942306611962441
0.39942306611962441
0.39942306611962441
0.39942306611962441
0.39942306611962441
0.39942306611962441
0.39942306611962441
0.39942306611962441
0.39942306611962441
0.39942306611962441
0.39942306611962441
0.39942306611962441
0.39942306611962441
0.39942306611962441
0.39942306611962441
0.39942306611962441
0.39942306611962441
0.39942306611962441
0.39942306611962441
0.39942306611962441
0.39942306611962441
0.39942306611962441
0.39942306611962441
0.39942306611962441
0.39942306611962441
0.39942306611962441
0.39942306611962441
0.39942306611962441
0.39942306611962441
0.39942306611962441
0.39942306611962441
0.39942306611962441
0.39942306611962441
0.39942306611962441
0.39942306611962441
0.39942306611962441
0.39942306611962441
0.39942306611962441
0.39942306611962441
0.39942306611962441
0.39942306611962441
0.39942306611962441
0.39942306611962441
0.39942306611962441
0.39942306611962441
0.39942306611962441
0.39942306611962441
0.39942306611962441
0.39942306611962441
0.39942306611962441
0.39942306611962441
0.39942306611962441
0.39942306611962441
0.39942306611962441
0.39942306611962441
0.39942306611962441
0.39942306611962441
0.39942306611962441
0.39942306611962441
0.39942306611962441
0.39942306611962441
0.39942306611962441
0.39942306611962441
0.39942306611962441
0.39942306611962441
0.39942306611962441
0.39942306611962441
0.39942306611962441
0.39942306611962441
0.39942306611962441
0.39942306611962441
0.39942306611962441
0.39942306611962441
0.39942306611962441
0.39942306611962441
0.39942306611962441
0.39942306611962441
0.39942306611962441
0.39942306611962441
0.39942306611962441
0.39942306611962441
0.39942306611962441
0.39942306611962441
0.39942306611962441
0.39942306611962441
0.39942306611962441
0.39942306611962441
0.39942306611962441
0.39942306611962441
0.39942306611962441
0.39942306611962441
0.39942306611962441
0.39942306611962441
0.39942306611962441
0.39942306611962441
0.39942306611962441
0.39942306611962441
0.39942306611962441
0.39942306611962441
0.39942306611962441
0.39942306611962441
0.39942306611962441
0.39942306611962441
0.39942306611962441
0.39942306611962441
0.39942306611962441
0.39942306611962441
0.39942306611962441
0.39942306611962441
0.39942306611962441
0.39942306611962441
0.39942306611962441
0.39942306611962441
0.39942306611962441
0.39942306611962441
0.39942306611962441
0.39942306611962441
0.39942306611962441
0.39942306611962441
0.39942306611962441
0.39942306611962441
0.39942306611962441
0.39942306611962441
0.39942306611962441
0.39942306611962441
0.39942306611962441
0.39942306611962441
0.39942306611962441
0.39942306611962441
0.39942306611962441
0.39942306611962441
0.39942306611962441
0.39942306611962441
0.39942306611962441
0.39942306611962441
0.39942306611962441
0.39942306611962441
0.39942306611962441
0.39942306611962441
0.39942306611962441
0.39942306611962441
0.39942306611962441
0.39942306611962441
0.39942306611962441
0.39942306611962441
0.39942306611962441
0.39942306611962441
0.39942306611962441
0.39942306611962441
0.39942306611962441
0.39942306611962441
0.39942306611962441
0.39942306611962441
0.39942306611962441
0.39942306611962441
0.39942306611962441
0.39942306611962441
0.39942306611962441
0.39942306611962441
0.39942306611962441
0.39942306611962441
0.39942306611962441
0.39942306611962441
0.39942306611962441
0.39942306611962441
0.39942306611962441
0.39942306611962441
0.39942306611962441
0.39942306611962441
0.39942306611962441
0.39942306611962441
0.39942306611962441
0.39942306611962441
0.39942306611962441
0.39942306611962441
0.39942306611962441
0.39942306611962441
0.39942306611962441
0.39942306611962441
0.39942306611962441
0.39942306611962441
0.39942306611962441
0.39942306611962441
0.39942306611962441
0.39942306611962441
0.39942306611962441
0.39942306611962441
0.39942306611962441
0.39942306611962441
0.39942306611962441
0.39942306611962441
0.39942306611962441
0.39942306611962441
0.39942306611962441
0.39942306611962441
0.39942306611962441
0.39942306611962441
0.39942306611962441
0.39942306611962441
0.39942306611962441
0.39942306611962441
0.39942306611962441
0.39942306611962441
0.39942306611962441
0.39942306611962441
0.39942306611962441
0.39942306611962441
0.39942306611962441
0.39942306611962441
0.39942306611962441
0.39942306611962441
0.39942306611962441
0.39942306611962441
0.39942306611962441
0.39942306611962441
0.39942306611962441
0.39942306611962441
0.39942306611962441
0.39942306611962441
0.39942306611962441
0.39942306611962441
0.39942306611962441
0.39942306611962441
0.39942306611962441
0.39942306611962441
0.39942306611962441
0.39942306611962441
0.39942306611962441
0.39942306611962441
0.39942306611962441
0.39942306611962441
0.39942306611962441
0.39942306611962441
0.39942306611962441
0.39942306611962441
0.39942306611962441
0.39942306611962441
0.39942306611962441
0.39942306611962441
0.39942306611962441
0.39942306611962441
0.39942306611962441
0.39942306611962441
0.39942306611962441
0.39942306611962441
0.39942306611962441
0.39942306611962441
0.39942306611962441
0.39942306611962441
0.39942306611962441
0.39942306611962441
0.39942306611962441
0.39942306611962441
0.39942306611962441
0.39942306611962441
0.39942306611962441
0.39942306611962441
0.39942306611962441
0.39942306611962441
0.39942306611962441
0.39942306611962441
0.39942306611962441
0.39942306611962441
0.39942306611962441
0.39942306611962441
0.39942306611962441
0.39942306611962441
0.39942306611962441
0.39942306611962441
0.39942306611962441
0.39942306611962441
0.39942306611962441
0.39942306611962441
0.39942306611962441
0.39942306611962441
0.39942306611962441
0.39942306611962441
0.39942306611962441
0.39942306611962441
0.39942306611962441
0.39942306611962441
0.39942306611962441
0.39942306611962441
0.39942306611962441
0.39942306611962441
0.39942306611962441
0.39942306611962441
0.39942306611962441
0.39942306611962441
0.39942306611962441
0.39942306611962441
0.39942306611962441
0.39942306611962441
0.39942306611962441
0.39942306611962441
0.39942306611962441
0.39942306611962441
0.39942306611962441
0.39942306611962441
0.39942306611962441
0.39942306611962441
0.39942306611962441
0.39942306611962441
0.39942306611962441
0.39942306611962441
0.39942306611962441
0.39942306611962441
0.39942306611962441
0.39942306611962441
0.39942306611962441
0.39942306611962441
0.39942306611962441
0.39942306611962441
0.39942306611962441
0.39942306611962441
0.39942306611962441
0.39942306611962441
0.39942306611962441
0.39942306611962441
0.39942306611962441
0.39942306611962441
0.39942306611962441
0.39942306611962441
0.39942306611962441
0.39942306611962441
0.39942306611962441
0.39942306611962441
0.39942306611962441
0.39942306611962441
0.39942306611962441
0.39942306611962441
0.39942306611962441
0.39942306611962441
0.39942306611962441
0.39942306611962441
0.39942306611962441
0.39942306611962441
0.39942306611962441
0.39942306611962441
0.39942306611962441
0.39942306611962441
0.39942306611962441
0.39942306611962441
0.39942306611962441
0.39942306611962441
0.39942306611962441
0.39942306611962441
0.39942306611962441
0.39942306611962441
0.39942306611962441
0.39942306611962441
0.39942306611962441
0.39942306611962441
0.39942306611962441
0.39942306611962441
0.39942306611962441
0.39942306611962441
0.39942306611962441
0.39942306611962441
0.39942306611962441
0.39942306611962441
0.39942306611962441
0.39942306611962441
0.39942306611962441
0.39942306611962441
0.39942306611962441
0.39942306611962441
0.39942306611962441
0.39942306611962441
0.39942306611962441
0.39942306611962441
0.39942306611962441
0.39942306611962441
0.39942306611962441
0.39942306611962441
0.39942306611962441
0.39942306611962441
0.39942306611962441
0.39942306611962441
0.39942306611962441
0.39942306611962441
0.39942306611962441
0.39942306611962441
0.39942306611962441
0.39942306611962441
0.39942306611962441
0.39942306611962441
0.39942306611962441
0.39942306611962441
0.39942306611962441
0.39942306611962441
0.39942306611962441
0.39942306611962441
0.39942306611962441
0.39942306611962441
0.39942306611962441
0.39942306611962441
0.39942306611962441
0.39942306611962441
0.39942306611962441
0.39942306611962441
0.39942306611962441
0.39942306611962441
0.39942306611962441
0.39942306611962441
0.39942306611962441
0.39942306611962441
0.39942306611962441
0.39942306611962441
0.39942306611962441
0.39942306611962441
0.39942306611962441
0.39942306611962441
0.39942306611962441
0.39942306611962441
0.39942306611962441
0.39942306611962441
0.39942306611962441
0.39942306611962441
0.39942306611962441
VECTORS v float
-3.9735806986443061e-05 -0.057417361705070967 0
-4.2373131174750108e-05 -0.060165068254656173 0
-4.4381538198560771e-05 -0.062369872570138228 0
-4.6338427478159928e-05 -0.064647159916230823 0
-4.8220255125039905e-05 -0.067013893943219577 0
-5.0054473239888343e-05 -0.069495157127472063 0
-5.1845979845585721e-05 -0.072126454585469943 0
-5.3543165460840245e-05 -0.074947935301070898 0
-5.5091867673897871e-05 -0.077997982501453442 0
-5.6739629793166247e-05 -0.081315880573623087 0
-5.8063074988961488e-05 -0.084950927240969476 0
-5.9404475479633506e-05 -0.088978304502835531 0
-6.0918460882976045e-05 -0.093483725612479682 0
-6.2329257111467661e-05 -0.098558167049156084 0
-6.3770624868298619e-05 -0.1043075610510462 0
-6.5271787681005699e-05 -0.11086284603582201 0
-6.6896701845103347e-05 -0.11838897415930669 0
-6.8638865584696424e-05 -0.12720398820444423 0
-7.0319914893412876e-05 -0.13779379186827465 0
-7.2245632962857024e-05 -0.15103452084252203 0
-7.4514642018838753e-05 -0.16885584623144664 0
-7.6472224715093846e-05 -0.19541857736164175 0
-7.8950754665028719e-05 -0.24124545745244994 0
-8.1954912784263194e-05 -0.34978594349482989 0
-7.7750836090547052e-06 -2.6658510580563295 0
-2.5163699102462653e-05 -0.058773722560580881 0
-2.7077732757658033e-05 -0.061702377161910738 0
-2.8576628317249553e-05 -0.064073595079116696 0
-3.005873698567142e-05 -0.066470733346410515 0
-3.1312371294715908e-05 -0.068933010257582472 0
-3.220355567257456e-05 -0.07150377601280436 0
-3.3723391464170205e-05 -0.074225541936979111 0
-3.4415389798240108e-05 -0.077143645608257344 0
-3.5674328564627082e-05 -0.080305374162835688 0
-3.6693500083745324e-05 -0.08375830312321586 0
-3.7570710374157916e-05 -0.087561375958105009 0
-3.8467578576933958e-05 -0.091797395069108847 0
-3.993886607154963e-05 -0.096559333987830287 0
-4.1079997313977155e-05 -0.10194882952350484 0
-4.212318992486774e-05 -0.10808404809377019 0
-4.315800696811079e-05 -0.11511133370818367 0
-4.4219000160130425e-05 -0.12321870933034654 0
-4.5330587019810292e-05 -0.13278117311036727 0
-4.6447714400977209e-05 -0.14440358860916422 0
-4.7449377069485898e-05 -0.15922394910967841 0
-4.8413956499927947e-05 -0.17975217935603521 0
-4.9292652674106447e-05 -0.21153118327362069 0
-4.9845515161373671e-05 -0.268949726093763 0
-4.9283717198577812e-05 -0.40772865589002999 0
-8.1586755084661383e-06 -2.5195582285903204 0
-1.0294464757755335e-05 -0.05917080774251908 0
-1.1219980916213782e-05 -0.062144682580920818 0
-1.1903741005790234e-05 -0.064559571719742928 0
-1.2509841043330017e-05 -0.067010920460673196 0
-1.3026989312294828e-05 -0.069537762584159182 0
-1.3647882254591203e-05 -0.072184829000985898 0
-1.4057213527453671e-05 -0.074996830921512506 0
-1.451052152452129e-05 -0.078020036475673377 0
-1.4904693882480894e-05 -0.081305342370886879 0
-1.555803920349586e-05 -0.084902734218743586 0
-1.5927680324673504e-05 -0.088875010942761429 0
-1.686720906671255e-05 -0.093315682524561197 0
-1.7728501506190725e-05 -0.098324577199232308 0
-1.8247877478682383e-05 -0.10401375733546527 0
-1.8626474091278206e-05 -0.11051408696823259 0
-1.9626298317866762e-05 -0.11799260159828937 0
-2.0264307304955149e-05 -0.12667471215246331 0
-2.0894973004776912e-05 -0.13694989612167413 0
-2.1797340731073549e-05 -0.14951527494030253 0
-2.2743404017092773e-05 -0.16566637390658162 0
-2.3658120267056269e-05 -0.18811736121076714 0
-2.4552886248518113e-05 -0.22280081668375751 0
-2.5316531257621207e-05 -0.28485512430301924 0
-2.5493346884965198e-05 -0.4308764465256929 0
-5.4180782027705113e-06 -2.4442666159375461 0
-3.3533468752192613e-06 -0.059390062021554932 0
-3.6108359847200325e-06 -0.062409266368269024 0
-4.1483896743902666e-06 -0.064864882705300581 0
-4.4368295832158789e-06 -0.067361161035695338 0
-4.6899368035925279e-06 -0.069937618160916148 0
-4.9548197552589678e-06 -0.072639703441340797 0
-5.2884784033571175e-06 -0.075513748977574666 0
-5.4413737130541618e-06 -0.078606866280760621 0
-5.863675018902008e-06 -0.081971791596080534 0
-5.9159079119827462e-06 -0.08566052348302533 0
-6.5021603269883795e-06 -0.089737898806478131 0
-6.8933314481197419e-06 -0.094301859975066293 0
-7.2091771618454888e-06 -0.099456838574814341 0
-7.385011998227525e-06 -0.10531810647697988 0
-7.6396881305167941e-06 -0.11202276161082837 0
-8.2182393778296327e-06 -0.11974487829981412 0
-8.4107738587718501e-06 -0.12873653352005518 0
-8.9616709901677465e-06 -0.13939936845113932 0
-9.0294479686275208e-06 -0.15248080919843096 0
-9.348635736380664e-06 -0.16934882263283718 0
-1.0339811527908413e-05 -0.19282884342332426 0
-1.0724779228964112e-05 -0.22903098092804289 0
-1.1147194171667933e-05 -0.29337819909085594 0
-1.1354485165474612e-05 -0.44267070855546276 0
-2.6702448106541136e-06 -2.406046292763989 0
-1.1370855103978612e-06 -0.059537246060261007 0
-1.3105016571787099e-06 -0.062588632114789405 0
-1.4441543076106055e-06 -0.06507239392195667 0
-1.5197970588831339e-06 -0.06759848813126626 0
-1.4885840997441854e-06 -0.070207083467809892 0
-1.7247952660884272e-06 -0.072943663671779069 0
-1.8645757344776588e-06 -0.075855496407477657 0
-1.9027018255350849e-06 -0.078990535379389215 0
-2.4985425047379287e-06 -0.082402657975968505 0
-2.5035679441536546e-06 -0.086144275002333418 0
-2.5608849344203106e-06 -0.090282203759005766 0
-2.7235386331223329e-06 -0.094915298073479634 0
-2.4022306386776336e-06 -0.10015130950080471 0
-2.61818996376836e-06 -0.1061066121328445 0
-2.7672186864031976e-06 -0.11292078075431 0
-3.1683700788394873e-06 -0.12077290280798753 0
-2.8905593840116869e-06 -0.12992690874147414 0
-3.075053501220471e-06 -0.14079697542810421 0
-3.3139090907660239e-06 -0.15416018915296326 0
-3.4128235087298149e-06 -0.17142236343003783 0
-3.5219502790733569e-06 -0.19546518744056937 0
-3.6740390048244683e-06 -0.23248805776914613 0
-3.6731208945882701e-06 -0.29805360079525972 0
-3.57382807745495e-06 -0.44901751890806535 0
-9.7744287611727854e-07 -2.3858305280783649 0
-6.7859954211003348e-07 -0.059630700808581946 0
-6.9418682177772258e-07 -0.062701039163114772 0
-7.2166847295086118e-07 -0.065201605958643188 0
-5.6160407525621668e-07 -0.0677445476125383 0
-7.0185012963372447e-07 -0.070370852533619341 0
-8.7719367506738568e-07 -0.073127147176156163 0
-1.0044473743263569e-06 -0.07606028880388227 0
-8.9014276316196643e-07 -0.079218636896119535 0
-8.7183009289882219e-07 -0.08265662865688006 0
-1.4068690605625438e-06 -0.086427076603920044 0
-1.1882573259447518e-06 -0.090598101465695607 0
-7.9293662349565577e-07 -0.095269085962672515 0
-5.2180296896867979e-07 -0.10054821629719089 0
1.5217639610068462e-07 -0.10655395057436555 0
-6.0721995875442023e-07 -0.11342720972966346 0
1.0922696753216412e-06 -0.12134798666520398 0
7.7810345699127382e-07 -0.13058818373263426 0
5.1173461451006693e-07 -0.14156983669818315 0
4.6315669437270254e-07 -0.1550851324670777 0
6.2566854781892896e-07 -0.1725590711571392 0
5.02837256958652e-07 -0.19690312943308483 0
5.4001790464483597e-07 -0.23436120890724724 0
6.7296286476468337e-07 -0.30056836613321025 0
5.0787456601826351e-07 -0.45238968478027319 0
-7.6408923476247495e-08 -2.3753441309824099 0
8.0974740277423931e-07 -0.059679469952216999 0
1.0875955465066789e-06 -0.06275964757910292 0
1.1858074950648795e-06 -0.065268235859198484 0
1.4086904652761058e-06 -0.067819927288847337 0
1.28584123787086e-06 -0.070455438936830095 0
1.6935660464794872e-06 -0.07322102560835636 0
1.9119166507545517e-06 -0.076164929810911636 0
1.6500727581217355e-06 -0.079334399684662452 0
1.7902032875959436e-06 -0.082785216459620267 0
2.2243897089089915e-06 -0.086569946226871128 0
2.3527188630047886e-06 -0.090757000821323305 0
2.348315061992457e-06 -0.095446276516856429 0
3.3428454863286763e-06 -0.10074617851599751 0
3.2295060107005345e-06 -0.10677699599885283 0
2.8395738841959818e-06 -0.1136794280360368 0
2.9327544478119824e-06 -0.12163512284094809 0
3.1928507518070154e-06 -0.13091767378660613 0
3.0046229483575112e-06 -0.14195163032598682 0
2.9852400796788626e-06 -0.15554037740009771 0
2.4846871030335798e-06 -0.17311931076648215 0
2.41343554164925e-06 -0.19761088019379153 0
2.2258371359434398e-06 -0.23527843162914155 0
1.9133319348582146e-06 -0.3017947061241012 0
1.4705206851603271e-06 -0.45402531028989718 0
2.5445071460720044e-07 -2.3704285331435582 0
2.2390046793233059e-06 -0.059694113552782202 0
2.5052697838035812e-06 -0.062776680311049604 0
3.1368789382150621e-06 -0.065288106180212663 0
3.4315145987779378e-06 -0.067841804362526237 0
3.55750155512834e-06 -0.070480300030885151 0
3.8811470122304538e-06 -0.073249131700103512 0
4.330109249091407e-06 -0.076195162375581063 0
4.9610318704497595e-06 -0.079368385510617298 0
5.3106928818827834e-06 -0.082823022294809825 0
5.5653875514716207e-06 -0.08661246961824591 0
5.650673272339393e-06 -0.090805193153046193 0
5.5144772201557705e-06 -0.095500836968239231 0
4.6219859183874125e-06 -0.10080742717535711 0
4.3636171889943855e-06 -0.10684570066269305 0
4.5569045239847596e-06 -0.11375652762361489 0
5.3413987300202861e-06 -0.12172292822195914 0
4.902811149789203e-06 -0.13101735592044186 0
5.6492787487120267e-06 -0.1420678777097171 0
5.240868007982979e-06 -0.15567903809146147 0
4.8841512597522263e-06 -0.1732879122091775 0
4.2531164141332777e-06 -0.19782239611583921 0
3.7048885860886744e-06 -0.23555215018737879 0
3.1671996629515523e-06 -0.30216095261074905 0
2.4449182963029587e-06 -0.45451154731126209 0
5.8919287355742348e-07 -2.3690007636895958 0
2.1432888451705454e-06 -0.059676984144565584 0
2.7294020738882545e-06 -0.062756667139837255 0
2.9558476092267697e-06 -0.065264808866488611 0
3.3902735784034342e-06 -0.067817197595922613 0
3.463962817567523e-06 -0.070452739745357762 0
3.5073359165960293e-06 -0.073218514890626613 0
4.0321377934770745e-06 -0.076162589844649367 0
4.378609669823655e-06 -0.079332558050224697 0
4.411700254942302e-06 -0.082783340009345702 0
4.9283361873206519e-06 -0.086568595825312664 0
5.2815119276289676e-06 -0.090756776184346744 0
5.2397043950886428e-06 -0.095447183077023837 0
5.8879274975286224e-06 -0.1007484725234047 0
5.492508648558882e-06 -0.10677760238922557 0
5.49733208911842e-06 -0.11368198309971776 0
5.432741326299227e-06 -0.12163634658439874 0
5.2576690528495288e-06 -0.13091858331051007 0
5.2068717995168044e-06 -0.14195269524331619 0
5.0553079610105296e-06 -0.15554090084803759 0
4.5928692051551033e-06 -0.17312061727333866 0
4.4765329425867928e-06 -0.1976114322681978 0
4.2107525450486829e-06 -0.23527956656715998 0
3.8296255254904193e-06 -0.30179553986870872 0
3.2318272485776272e-06 -0.4540243817193903 0
8.8922740678631359e-07 -2.3704204192735689 0
2.6122274258366644e-06 -0.059627881233898193 0
3.5280988483710722e-06 -0.062695845620001397 0
3.6005090134955342e-06 -0.065196286340629003 0
4.3056201506125737e-06 -0.067739302910244326 0
4.6490553050397412e-06 -0.070365800975138143 0
5.0756965984528697e-06 -0.073122471361348432 0
4.7661958193301865e-06 -0.076055571887221118 0
5.9318662809885675e-06 -0.079213728259990152 0
7.1904511909276817e-06 -0.082652325391616308 0
8.078732774877499e-06 -0.086423504006837293 0
8.3030457389844298e-06 -0.090595758693025358 0
5.3473303572240355e-06 -0.09526963684493775 0
5.2315646065549978e-06 -0.10054930175213649 0
5.1013874339204889e-06 -0.10655582795674282 0
4.986845509608855e-06 -0.11342977303556671 0
5.1207361255316966e-06 -0.12135217544809264 0
5.2866318017670188e-06 -0.13059281064363656 0
5.1654117893230965e-06 -0.14157113348054043 0
5.0225057337888394e-06 -0.15508599955288271 0
5.2018989440615341e-06 -0.17256305988128848 0
5.0279596291333018e-06 -0.19690687242674049 0
5.0267308607121161e-06 -0.23436475098236376 0
5.1413093255177083e-06 -0.30057179686400093 0
5.1146201784694962e-06 -0.45239208622379973 0
1.2578192326944276e-06 -2.3753309094547101 0
2.2433010585223974e-06 -0.059534301835171714 0
2.2933761600074931e-06 -0.062586582095434357 0
2.4028703287689465e-06 -0.065070018560220558 0
2.5795130571003517e-06 -0.067595868198848372 0
2.6466849695789674e-06 -0.070203838363218543 0
2.9174571500371388e-06 -0.072940656663534734 0
3.093758961682399e-06 -0.075852840466855018 0
3.2165227447272874e-06 -0.078987845112300031 0
3.4817946675020073e-06 -0.082400048982793475 0
3.8785211145310612e-06 -0.0861423513207078 0
4.1829601282924371e-06 -0.090281427005592635 0
4.3628057558580806e-06 -0.09491545700472892 0
4.0054898382947884e-06 -0.10015171562107479 0
4.4295696348025075e-06 -0.1061069160249178 0
4.5773731114092431e-06 -0.11292166088224911 0
4.9027565727303443e-06 -0.12077348348353541 0
5.4967650482592182e-06 -0.12992854648921529 0
5.7857546778725621e-06 -0.14079952957996705 0
5.9046857856540297e-06 -0.15416302900346432 0
6.3628929086561657e-06 -0.1714246499888612 0
6.8596248915800263e-06 -0.19546742907444711 0
7.2101271652581383e-06 -0.23249073425495398 0
7.5499336084582332e-06 -0.29805629577394427 0
7.9302114099260375e-06 -0.44902025986246247 0
1.9252583388296589e-06 -2.3858123696613855 0
4.5491357142689642e-06 -0.059388176234058232 0
5.1018588537946032e-06 -0.062407462105494582 0
5.3311448846458866e-06 -0.064863502451209518 0
5.6344840680895841e-06 -0.06736002600532108 0
5.9486024424907923e-06 -0.069936714297676034 0
6.3019970761797073e-06 -0.07263889337907313 0
6.6227781141211972e-06 -0.075513066972357087 0
7.0870404522256291e-06 -0.078605989804601137 0
7.2989619030098826e-06 -0.081971487353334885 0
7.4881767851402997e-06 -0.08566011071210565 0
7.8800144307761142e-06 -0.089738445985351037 0
8.4644581788133004e-06 -0.094302275076090167 0
1.089758780062802e-05 -0.099458564907871111 0
1.1383200043611109e-05 -0.10532021831802856 0
1.1666182871558872e-05 -0.11202441278555335 0
1.2306669084488169e-05 -0.1197467822352882 0
1.2540623159289038e-05 -0.12873862570240771 0
1.2329058495966058e-05 -0.13940165535680593 0
1.2904548567801292e-05 -0.15248369744223278 0
1.3426611212986897e-05 -0.16935143926758275 0
1.3894307374875379e-05 -0.19283064954333209 0
1.4343768186708668e-05 -0.22903448713973854 0
1.4623525772927386e-05 -0.29338227627736541 0
1.4692701430822108e-05 -0.44267409154287285 0
3.4228289212310035e-06 -2.4060247688161542 0
1.090366687049627e-05 -0.059168572507624473 0
1.1981528890635998e-05 -0.062142293904582514 0
1.2607502945478069e-05 -0.064557046101888685 0
1.3493866902919121e-05 -0.06700879206617924 0
1.4226212160880634e-05 -0.069535610270240009 0
1.4891564229710526e-05 -0.072182996127859181 0
1.5594772236372528e-05 -0.07499515906709063 0
1.6125152216442486e-05 -0.078018436414040201 0
1.6976874817655607e-05 -0.08130408728671179 0
1.7500416342476271e-05 -0.084901786007885421 0
1.8851815341822218e-05 -0.088874635981311692 0
1.9333434645455352e-05 -0.09331579954885591 0
1.9357110813910336e-05 -0.098325665234520784 0
2.0011290174185175e-05 -0.10401468197968564 0
2.094241681213924e-05 -0.11051474295034762 0
2.1830259936123477e-05 -0.11799432321139358 0
2.2717630356541232e-05 -0.12667644589276728 0
2.4033073864635039e-05 -0.13695198711547654 0
2.4468518595783697e-05 -0.14951810066055554 0
2.5560446853873215e-05 -0.16566936716333339 0
2.6567040099184134e-05 -0.18812035617110462 0
2.7311423252409219e-05 -0.22280396818178363 0
2.797416132258741e-05 -0.28485834957422523 0
2.8047487482589385e-05 -0.43087918924027574 0
5.8086045188189185e-06 -2.444245442469303 0
2.4558369774360133e-05 -0.058771944223119002 0
2.6580128919857425e-05 -0.06170028266538724 0
2.8000397437242621e-05 -0.064071297896834023 0
2.9406433636105477e-05 -0.066468348949205835 0
3.0657063800681733e-05 -0.068931041846006583 0
3.1774618979099189e-05 -0.071501806431386164 0
3.3016450075381048e-05 -0.07422449791842628 0
3.4300859250551705e-05 -0.077140898533368182 0
3.5395824198445322e-05 -0.080300819608384352 0
3.6891023822998664e-05 -0.083753982867687496 0
3.8005012482208063e-05 -0.087556815850185585 0
3.9097336169233559e-05 -0.091794266377878658 0
3.8526144058575924e-05 -0.096557981676127252 0
3.9742052458415643e-05 -0.10194774152134756 0
4.0856738050763425e-05 -0.10808319578929135 0
4.1966580986404302e-05 -0.11511080515288381 0
4.3193962025093029e-05 -0.12321842988886128 0
4.4368586332455169e-05 -0.13278210390097103 0
4.5300575912271977e-05 -0.14440406417425888 0
4.6528248157600465e-05 -0.15922455961385013 0
4.7727733662182166e-05 -0.17975294154397034 0
4.8846045901299051e-05 -0.2115320787380566 0
4.9692670435756483e-05 -0.26895059424147344 0
4.9425073655369268e-05 -0.40772681859815679 0
8.253689973237809e-06 -2.5195407944275217 0
3.9311861696004735e-05 -0.057416358695574071 0
4.1651311823526837e-05 -0.060163566020686295 0
4.3695528468779189e-05 -0.062368471953949123 0
4.5300496088560717e-05 -0.064645247334998171 0
4.7256754466632896e-05 -0.067011948837493784 0
4.9052564692513809e-05 -0.069493130331692882 0
5.0414155048944789e-05 -0.072124010988927692 0
5.1770461911632018e-05 -0.074945092108918684 0
5.3604432890654384e-05 -0.07799513527540583 0
5.4474273243550989e-05 -0.081312649542647997 0
5.557077262729689e-05 -0.084947559936768863 0
5.6566747921142709e-05 -0.088974978351181108 0
5.8358027929131473e-05 -0.09348098026969083 0
5.9607340738177481e-05 -0.098555352371890961 0
6.089127493269303e-05 -0.1043046874762926 0
6.2287604918741571e-05 -0.11085996024748621 0
6.3748175850724756e-05 -0.11838610018466882 0
6.5341209922757423e-05 -0.12720110071460136 0
6.7128830456668817e-05 -0.13779081055646 0
6.8991613709736409e-05 -0.15103152896794841 0
7.0956586544357846e-05 -0.16885313754528733 0
7.3038135743513287e-05 -0.1954153878204114 0
7.5214970110451689e-05 -0.24124204263801977 0
7.6996531897399178e-05 -0.34978350786243523 0
7.5599855786769339e-06 -2.6658503508695564 0
-0 -0 0
-0 -0 0
-0 -0 0
-0 -0 0
-0 -0 0
-0 -0 0
4.0728284528662899e-05 0.058240564930353018 0
4.7461834108350388e-05 0.067016448350688693 0
5.6536963029241342e-05 0.086277266811214531 0
-0 -0 0
-0 -0 0
-0 -0 0
4.3210800435844045e-05 0.062059817799818215 0
4.7612317430695333e-05 0.069826646119860489 0
5.5417216003717837e-05 0.088988521848097107 0
-0 -0 0
-0 -0 0
-0 -0 0
3.4709945226737704e-05 0.062886628350087348 0
3.9009422850958037e-05 0.070678848789994975 0
4.5828458372871922e-05 0.090170645239075434 0
-0 -0 0
-0 -0 0
-0 -0 0
1.9566683197763261e-05 0.063722286606962081 0
2.237703002203614e-05 0.071590513496412711 0
2.6772007459354258e-05 0.091746909804474239 0
-0 -0 0
-0 -0 0
-0 -0 0
7.8053917947215665e-06 0.064072926570376595 0
9.314170905973453e-06 0.07212650908552258 0
1.1595420105147271e-05 0.092867371664675166 0
-0 -0 0
-0 -0 0
-0 -0 0
2.699438350513005e-06 0.064296027435121902 0
3.4181077932202097e-06 0.072464388432293594 0
4.4997624258330256e-06 0.093571275234466914 0
-0 -0 0
-0 -0 0
-0 -0 0
1.0181389566966239e-06 0.064442995624655899 0
1.2336775141862561e-06 0.07268232737119848 0
1.4188309250763434e-06 0.094004156363280952 0
-0 -0 0
-0 -0 0
-0 -0 0
-1.6893185291698785e-07 0.064529580415336643 0
-3.371355819605131e-07 0.072808158897018527 0
-7.50335373473631e-07 0.094246158858372397 0
-0 -0 0
-0 -0 0
-0 -0 0
-1.6470007081949428e-06 0.064568314309457323 0
-2.1876716259676379e-06 0.072864161966128105 0
-2.9194675621573919e-06 0.094352664358141214 0
-0 -0 0
-0 -0 0
-0 -0 0
-2.5551116487692099e-06 0.064567211066620972 0
-3.33919699172186e-06 0.072863197626010526 0
-4.2959964301182322e-06 0.09435223343191082 0
-0 -0 0
-0 -0 0
-0 -0 0
-3.2049777887818924e-06 0.064526182340777422 0
-4.0291905011345999e-06 0.072805196710422196 0
-4.8824937425560126e-06 0.094244784511747948 0
-0 -0 0
-0 -0 0
-0 -0 0
-2.9717702794349564e-06 0.064439331163951091 0
-3.6982805367337583e-06 0.072678975719983496 0
-4.5669926297461521e-06 0.094002394602699546 0
-0 -0 0
-0 -0 0
-0 -0 0
-3.78361253961502e-06 0.064293754525705488 0
-4.6812015421412885e-06 0.072462295794210693 0
-6.3530391338616336e-06 0.093570097928800652 0
-0 -0 0
-0 -0 0
-0 -0 0
-8.854980724445978e-06 0.064070690584012657 0
-1.0590592853659184e-05 0.072124628128789892 0
-1.3521175993303996e-05 0.092866426606950325 0
-0 -0 0
-0 -0 0
-0 -0 0
-1.9645028373184481e-05 0.063719758077300154 0
-2.2618011308293453e-05 0.0715881356970125 0
-2.7181244889503735e-05 0.091745139377633386 0
-0 -0 0
-0 -0 0
-0 -0 0
-3.4008674539454089e-05 0.062884691275536267 0
-3.8057945719904418e-05 0.070676687083192177 0
-4.4328704335807248e-05 0.090168229797620264 0
-0 -0 0
-0 -0 0
-0 -0 0
-4.2478991290315033e-05 0.062058280125691166 0
-4.6380616654526887e-05 0.069824445332978241 0
-5.3304013540765788e-05 0.088985683987334183 0
-0 -0 0
-0 -0 0
-0 -0 0
-4.01733792196367e-05 0.058238912370457113 0
-4.6380450603529045e-05 0.06701392156131307 0
-5.4370518347034643e-05 0.086273605495817765 0
-0 -0 0
-0 -0 0
-0 -0 0
-0 -0 0
-0 -0 0
-0 -0 0
-0 -0 0
-0 -0 0
-0 -0 0
-0 -0 0
-0 -0 0
-0 -0 0
-0 -0 0
-0 -0 0
-0 -0 0
-0 -0 0
-0 -0 0
-0 -0 0
-0 -0 0
-0 -0 0
-0 -0 0
-0 -0 0
-0 -0 0
-0 -0 0
-0 -0 0
-0 -0 0
-0 -0 0
-0 -0 0
-0 -0 0
-0 -0 0
-0 -0 0
-0 -0 0
-0 -0 0
-0 -0 0
-0 -0 0
-0 -0 0
-0 -0 0
-0 -0 0
-0 -0 0
-0 -0 0
-0 -0 0
-0 -0 0
-0 -0 0
-0 -0 0
-0 -0 0
-0 -0 0
-0 -0 0
-0 -0 0
-0 -0 0
-0 -0 0
-0 -0 0
-0 -0 0
-0 -0 0
-0 -0 0
-0 -0 0
-0 -0 0
-0 -0 0
-0 -0 0
-0 -0 0
-0 -0 0
-0 -0 0
-0 -0 0
-0 -0 0
-0 -0 0
-0 -0 0
-0 -0 0
-0 -0 0
-0 -0 0
-0 -0 0
-0 -0 0
-0 -0 0
-0 -0 0
-0 -0 0
-0 -0 0
-0 -0 0
-0 -0 0
-0 -0 0
-0 -0 0
-0 -0 0
-0 -0 0
-0 -0 0
-0 -0 0
-0 -0 0
-0 -0 0
-0 -0 0
-0 -0 0
-0 -0 0
-0 -0 0
-0 -0 0
-0 -0 0
-0 -0 0
-0 -0 0
-0 -0 0
-0 -0 0
-0 -0 0
-0 -0 0
-0 -0 0
-0 -0 0
-0 -0 0
-0 -0 0
-0 -0 0
-0 -0 0
-0 -0 0
-0 -0 0
-0 -0 0
-0 -0 0
-0 -0 0
-0 -0 0
-0 -0 0
-0 -0 0
-0 -0 0
-0 -0 0
-0 -0 0
-0 -0 0
-0 -0 0
-0 -0 0
-0 -0 0
-0 -0 0
-0 -0 0
-0 -0 0
-0 -0 0
-0 -0 0
-0 -0 0
-0 -0 0
-0 -0 0
-0 -0 0
-0 -0 0
-0 -0 0
-0 -0 0
-0 -0 0
-0 -0 0
-0 -0 0
-0 -0 0
-0 -0 0
-0 -0 0
-0 -0 0
-0 -0 0
-0 -0 0
-0 -0 0
-0 -0 0
-0 -0 0
-0 -0 0
-0 -0 0
-0 -0 0
-0 -0 0
-0 -0 0
-0 -0 0
-0 -0 0
-0 -0 0
-0 -0 0
-0 -0 0
-0 -0 0
-0 -0 0
-0 -0 0
-0 -0 0
-0 -0 0
-0 -0 0
-0 -0 0
-0 -0 0
-0 -0 0
-0 -0 0
-0 -0 0
-0 -0 0
-0 -0 0
-0 -0 0
-0 -0 0
-0 -0 0
-0 -0 0
-0 -0 0
-0 -0 0
-0 -0 0
-0 -0 0
-0 -0 0
-0 -0 0
-0 -0 0
-0 -0 0
-0 -0 0
-0 -0 0
-0 -0 0
-0 -0 0
-0 -0 0
-0 -0 0
-0 -0 0
-0 -0 0
-0 -0 0
-0 -0 0
-0 -0 0
-0 -0 0
-0 -0 0
-0 -0 0
-0 -0 0
-0 -0 0
-0 -0 0
-0 -0 0
-0 -0 0
