# vtk DataFile Version 3.0
SPH particles (WCSPH) - legacy PolyData
ASCII
DATASET POLYDATA
POINTS 681 float
0.049991526563332611 0.020017519317916014 0
0.049990560291927229 0.022169781903457905 0
0.049989777757568729 0.023905392867931002 0
0.049989005296921719 0.025618180296822265 0
0.049988313405683153 0.027283966623127136 0
0.049987704766069979 0.028902051573125819 0
0.049987147272014289 0.030478896411727487 0
0.049986600724700819 0.032023145357524527 0
0.049986008116027464 0.033544364613031542 0
0.049985272257334255 0.035050826251582914 0
0.049983945148706271 0.036551358605622176 0
0.049982168037654096 0.038054572457103246 0
0.049981481206411861 0.039569061356599336 0
0.049982240335574205 0.041103928543376071 0
0.049983733093155285 0.042669266254017457 0
0.049985494743961377 0.044276086516433215 0
0.049987316925196999 0.045938280328991096 0
0.04998903288269993 0.047672668458079534 0
0.049990634092836529 0.049502106442289452 0
0.049992063421007676 0.051443855979593577 0
0.04999327133440791 0.053543768896347821 0
0.04999425925068518 0.055859274194227058 0
0.049995058551977417 0.058482047418159148 0
0.049995709600384047 0.061585356129461782 0
0.049996547172908273 0.065648991583110702 0
0.069995598234652373 0.018812080636359065 0
0.06999504384477849 0.021187111928695136 0
0.069994631434122184 0.023114828382231688 0
0.069994259170307688 0.024980302341171885 0
0.069993908560591359 0.026770905859550664 0
0.069993555695188683 0.028494327340374295 0
0.069993203073839536 0.030162949834588386 0
0.069992844438609481 0.0317894783815982 0
0.069992463201101932 0.033386422777063905 0
0.069992008208906761 0.034964027300463524 0
0.069991107191473709 0.036532667000793127 0
0.069989269970601647 0.038102332869156992 0
0.069988189073188697 0.039682490893091393 0
0.069988395355838992 0.041283010571883334 0
0.069989310840338007 0.042915065457045001 0
0.069990461392845954 0.044590668238127198 0
0.069991694937037982 0.046325457243077399 0
0.069992908303166151 0.048137152602541901 0
0.069994044941862385 0.050047518884274632 0
0.069995032177329983 0.052083647178700433 0
0.069995851792654135 0.054290250316348147 0
0.069996505186184763 0.056729411727672437 0
0.06999700412183199 0.059505663589454319 0
0.069997398499822158 0.062819570412429693 0
0.069997907047003219 0.067238278826564704 0
0.089998445100530233 0.018762878181161843 0
0.089998239439858227 0.021139888719426313 0
0.089998087530543669 0.023071254282809813 0
0.089997940623039091 0.024942655689573726 0
0.0899977893202384 0.026740632354497178 0
0.089997628784500558 0.028472366377290812 0
0.089997460787561712 0.030150197643343403 0
0.089997287119918848 0.031786605575778122 0
0.089997091088076686 0.033393627199627587 0
0.089996872862325356 0.034982083369884232 0
0.089996607961015176 0.036562186956741849 0
0.089996234289073163 0.03814409273471888 0
0.089995871372457487 0.039737143414009482 0
0.089995832468230105 0.041351318967616159 0
0.089996079293258827 0.042997759395995844 0
0.089996415798581877 0.044688773496402871 0
0.089996809927061994 0.046439874599055554 0
0.089997211740422356 0.048268042328058251 0
0.089997593947265489 0.050195770697139437 0
0.08999791514865127 0.052253003992072722 0
0.089998182672977323 0.054482135132385923 0
0.08999839063509657 0.05694594820507138 0
0.089998572093488161 0.059749053641741892 0
0.089998722282206581 0.063091879937118331 0
0.089998955991630214 0.067547705869056895 0
0.1099994435132108 0.01877279402107878 0
0.10999936435779739 0.021150945598577539 0
0.10999929903219921 0.023083323833988676 0
0.10999923588009214 0.024955847242467948 0
0.10999916898501974 0.026755057502793243 0
0.10999911674171871 0.02848815146056911 0
0.1099990569900301 0.030167487625050896 0
0.10999897970238887 0.031805535456270247 0
0.10999889390646668 0.033414202428636755 0
0.10999879997510448 0.035004447884765803 0
0.10999870417685094 0.036586461923260059 0
0.10999858186944564 0.038170555028464247 0
0.10999848636519015 0.039765891773722618 0
0.10999847404735305 0.041382567822944506 0
0.10999852070339471 0.043031744307775122 0
0.10999862461397124 0.044726021183921751 0
0.10999875408251798 0.046480332317023115 0
0.10999889634543081 0.048311757735164974 0
0.10999903719576611 0.050243073721217987 0
0.10999915061932479 0.052304256972414601 0
0.10999923780265536 0.054537799355091003 0
0.10999930975756102 0.057006570415845371 0
0.10999937402471791 0.059815184577461239 0
0.10999943381592672 0.063164190734343151 0
0.10999953542356007 0.067628399624426627 0
0.12999977987978081 0.018779439158486608 0
0.12999974902027245 0.021158277252118551 0
0.12999972807169188 0.023091172758522738 0
0.12999970883697926 0.024964165118830355 0
0.12999969850268039 0.026763846606385519 0
0.12999967149285993 0.028497372536845773 0
0.12999964756075325 0.030177111968088834 0
0.12999961561959117 0.031815582106931334 0
0.12999958519061638 0.033424677078118678 0
0.12999954512409581 0.035015358599438565 0
0.12999949116210074 0.0365978753561551 0
0.12999942506489992 0.038182208027097125 0
0.12999941477499974 0.039777851543898159 0
0.12999941445707899 0.041394818857018199 0
0.12999939560318155 0.043044341064028657 0
0.1299994428047723 0.044739579562156719 0
0.12999949775469985 0.046495817025844259 0
0.1299995548617206 0.048328565730301754 0
0.12999960287092396 0.05026086184148968 0
0.1299996378986947 0.052322374306991243 0
0.12999967011934896 0.054556985563553644 0
0.12999969773052145 0.057026980064971713 0
0.12999972008186156 0.059836964742365994 0
0.12999974442051412 0.063187498277584672 0
0.12999978746984117 0.067653923770706656 0
0.14999990842005326 0.018782318772456216 0
0.14999989859722115 0.021161516925889561 0
0.14999989087425586 0.023094748220193858 0
0.14999988301983752 0.024967897107013911 0
0.14999987339613938 0.026767740672372912 0
0.14999986483313021 0.028501500918504299 0
0.14999986283173544 0.030181387518011842 0
0.1499998560463045 0.031820045986503113 0
0.14999984244450842 0.033429344326405888 0
0.14999982013659807 0.035020221806716982 0
0.14999979389886203 0.036603072370491818 0
0.14999977486048832 0.038187674172710025 0
0.14999975146643299 0.039783652056823007 0
0.1499997334834601 0.041401255780940026 0
0.14999973670088318 0.043051310475195434 0
0.14999975915889666 0.044746709200885651 0
0.14999978974043313 0.046502077710762632 0
0.14999982425365749 0.048334400672009663 0
0.14999981915691457 0.0502668664406727 0
0.14999981776350621 0.052329300234872964 0
0.1499998290512595 0.054564261349518133 0
0.14999984618989218 0.057034684438918092 0
0.1499998588138535 0.059845254327920941 0
0.14999986734307025 0.063196431869822517 0
0.14999988634309513 0.0676631904971155 0
0.16999995329163384 0.018782772014459295 0
0.16999994712218069 0.021162367255105952 0
0.16999994178164257 0.023096069137760883 0
0.16999993581670933 0.024969149738302845 0
0.16999992860940152 0.026769025958112036 0
0.16999992043265125 0.028502886401218234 0
0.16999990918062266 0.030182848359962294 0
0.16999990303632881 0.031821538426897424 0
0.16999989238851454 0.033430791122008967 0
0.16999987886563314 0.035021477905951767 0
0.16999985609945695 0.036604495418805151 0
0.16999983306431679 0.038189019167391092 0
0.16999981310173301 0.039784738072379255 0
0.16999978203485974 0.041402905926153956 0
0.16999979355706804 0.043053177524851889 0
0.16999984405874863 0.044748990016901212 0
0.16999986523769689 0.046504528863470992 0
0.1699998665720977 0.048336254403021625 0
0.16999984346997205 0.050268744914547539 0
0.16999986204463438 0.052331443016304179 0
0.1699998855619099 0.054566527220623301 0
0.16999990366100412 0.05703715756114925 0
0.16999990553645994 0.059848110750383987 0
0.16999991204341938 0.063200663833444554 0
0.16999992757935437 0.067666267618887541 0
0.18999996549241602 0.018783359601736372 0
0.1899999617643085 0.021162470390914959 0
0.18999996164960228 0.023095763839662609 0
0.18999995783347853 0.024969201775657996 0
0.18999995275900194 0.026769428305070904 0
0.18999994233304388 0.028503152019756103 0
0.18999993919352712 0.030183099243599874 0
0.18999992933778007 0.031821854652210213 0
0.18999991665555241 0.033431045585347791 0
0.18999990993091934 0.035021660580519726 0
0.18999990495043162 0.036605014056397864 0
0.18999990987124846 0.038189750418582989 0
0.1899999252426188 0.039785765888843354 0
0.18999992043665173 0.041403815138920275 0
0.18999993251478992 0.04305407081896831 0
0.18999993020096792 0.044749475303405326 0
0.18999991617804338 0.046504547468279936 0
0.18999989457576977 0.048336787429723811 0
0.18999986649128786 0.050269269073199854 0
0.18999992133434054 0.052331876823698165 0
0.18999992903194282 0.054566670485584598 0
0.1899999432728384 0.057036539463315973 0
0.18999995079947085 0.059845888751708168 0
0.18999995873700951 0.063199397131563251 0
0.18999996921874263 0.067666259456629518 0
0.20999999382453785 0.018783289365864285 0
0.20999999276527906 0.021162434046732834 0
0.20999999012293002 0.023095500789318296 0
0.20999998729858196 0.024968542633778526 0
0.20999998426129018 0.026768732064689247 0
0.20999997516591437 0.028502456462111084 0
0.20999997479230628 0.030182487729286972 0
0.20999997391943034 0.031821426871597155 0
0.20999997389190575 0.033430755063682219 0
0.20999996496282236 0.035021463467947232 0
0.20999995669093532 0.036604053033123397 0
0.20999995332131913 0.03818870661561051 0
0.2099999649523418 0.039785461008792981 0
0.2099999487965698 0.041403431658420954 0
0.20999994900862698 0.043053567578791231 0
0.20999996478951596 0.044748809501935674 0
0.20999996495142342 0.046503710562886914 0
0.20999996936647281 0.048336079869240718 0
0.2099999952136708 0.050268532885402673 0
0.2099999924340761 0.052331095604305052 0
0.20999998717458843 0.054565828375773041 0
0.20999997898290726 0.057035599568858231 0
0.20999998438579037 0.059844724839691076 0
0.20999999055972948 0.063197971518752519 0
0.20999999764927185 0.067665124271093988 0
0.23000005339078364 0.018782042918892568 0
0.23000005837902085 0.021161078919325723 0
0.23000006654098901 0.023094087302788623 0
0.23000006717756249 0.024967065661833522 0
0.23000006333811099 0.026766813897764648 0
0.23000006886180629 0.028500772033986061 0
0.23000008063743577 0.030181141401315892 0
0.2300000882662257 0.031819609560316424 0
0.23000009421513443 0.033428760748991565 0
0.23000009611726091 0.035019404666489513 0
0.2300000973048609 0.036601668217549697 0
0.23000010927757469 0.038186565366568156 0
0.23000017093730699 0.039783429400048469 0
0.23000012892518992 0.041401117678208352 0
0.23000010651657679 0.04305111441282089 0
0.2300001352252774 0.044746198203065864 0
0.23000013911606262 0.046500926015934432 0
0.23000014307076189 0.048333407943465918 0
0.23000017837140466 0.050265827924690483 0
0.23000013295400451 0.052328164964719745 0
0.23000011458570344 0.054562870627659812 0
0.23000009295326246 0.057032997123140125 0
0.23000008375462608 0.059844003438886476 0
0.23000007760971511 0.063194890190267722 0
0.23000006737635814 0.067661795735420666 0
0.25000016178329365 0.018779040310203016 0
0.25000018205298025 0.021157744694655096 0
0.25000020215770596 0.023090621004752582 0
0.2500002206855762 0.024963507370734703 0
0.25000023404344912 0.02676305668815946 0
0.25000024792543718 0.028496796879515951 0
0.25000027169181493 0.030176557181989815 0
0.25000029224533327 0.031815097922052213 0
0.25000031159985853 0.033424185878401298 0
0.25000034198665094 0.035014829270259486 0
0.25000038860307666 0.036597326736965856 0
0.25000047233533129 0.038181750772742794 0
0.25000050226068438 0.039777635076472133 0
0.25000054857934051 0.041395034009260548 0
0.25000053750017026 0.043044694565680844 0
0.25000049070347963 0.044739224256130784 0
0.25000045518860226 0.046493421767828766 0
0.25000040528202488 0.048326211699198859 0
0.25000036672959602 0.05025845965922144 0
0.25000033047209669 0.052319723884181581 0
0.2500002987978005 0.054553591835987701 0
0.25000026877940146 0.057023288427201224 0
0.25000024206976029 0.05983765749647741 0
0.25000021730711636 0.063186424090127105 0
0.25000017848318945 0.067652296791732694 0
0.270000471676759 0.018772322873443787 0
0.27000054082052177 0.021150305891271936 0
0.27000059261771336 0.023082537963481666 0
0.27000064580265837 0.024955054453609089 0
0.27000069367771057 0.026754549270126042 0
0.27000074768038257 0.028487870650212115 0
0.27000080331858006 0.030166403390581058 0
0.27000086204005475 0.031805013906531759 0
0.27000093674984588 0.033413804078353357 0
0.27000102932256997 0.035003918107604497 0
0.27000113723719121 0.036586061232503735 0
0.27000124032195666 0.038169969003375652 0
0.27000139593406347 0.039765234615320444 0
0.27000150350236929 0.041382105185408885 0
0.27000145969932132 0.043031314634598694 0
0.27000131792918008 0.044725428123190414 0
0.27000117646685601 0.046479107254647337 0
0.27000104750535131 0.048310448222660854 0
0.2700009216606995 0.050241601815679535 0
0.27000081461296699 0.05230240537190152 0
0.27000072294100325 0.054535271218872576 0
0.27000064058025197 0.05700340791656669 0
0.27000057186822612 0.059814442294585282 0
0.27000051322564322 0.063163242260525623 0
0.27000042431325777 0.067627023775174877 0
0.29000148719097174 0.018762674899884514 0
0.29000168994405506 0.021139600766309902 0
0.29000184165328352 0.023070966322288895 0
0.29000198874790228 0.024942370854048958 0
0.29000214103131211 0.026740394409597773 0
0.29000229482579803 0.028472014625232668 0
0.29000245756635668 0.030149212675298315 0
0.29000264449366681 0.031786432027892636 0
0.29000286149609494 0.033393582220363371 0
0.29000310452806816 0.034981859442244218 0
0.29000339968197936 0.036562015144205075 0
0.29000379169328638 0.038143770693482834 0
0.29000416830933928 0.039736733587462346 0
0.29000421262004999 0.041351078348434239 0
0.29000397798397548 0.042997656968102864 0
0.29000361028981575 0.044689011427793711 0
0.29000319694722926 0.046439744657200445 0
0.29000278245161903 0.048267678076024598 0
0.29000239930679683 0.050195473157683239 0
0.29000206646074489 0.052252849721192436 0
0.29000178471213928 0.054481747546338992 0
0.29000155621432844 0.056945259624003063 0
0.2900013716344681 0.059748685793450398 0
0.29000121875738222 0.063091546113530156 0
0.29000099230324389 0.067547277881955872 0
0.31000447208899651 0.018812118186081816 0
0.31000502906057181 0.02118714587024835 0
0.31000544683644854 0.023114871665940218 0
0.31000582807752575 0.024980344643658267 0
0.31000618720773537 0.026770874843059095 0
0.31000655033850733 0.028494041937513325 0
0.3100069158779476 0.03016247888395341 0
0.31000729198943427 0.031789851457212755 0
0.31000770369422137 0.033386658689845132 0
0.31000820645811134 0.034964115184169184 0
0.31000915832312409 0.036532832067901221 0
0.31001099670412047 0.038102526975652279 0
0.31001202487470808 0.03968270180103043 0
0.31001177896122811 0.041283555449047639 0
0.31001084939749324 0.042915863947998137 0
0.3100096955700154 0.044592064156094194 0
0.3100084467607257 0.046326669940136782 0
0.31000720165671708 0.048137341506513331 0
0.31000604208611698 0.050047027908651204 0
0.3100050299461114 0.052084736322827743 0
0.310004187105414 0.054291357336439944 0
0.31000351374992124 0.056729834602030314 0
0.31000299861907316 0.059506080673381256 0
0.31000258153863147 0.062819947424382044 0
0.31000205654201124 0.067238531425273043 0
0.33000832746112513 0.020017792832702636 0
0.33000925745155263 0.022170070384195176 0
0.33001001426342869 0.023905645094219427 0
0.33001074725221474 0.025618328385225528 0
0.33001140309663313 0.027283826011895902 0
0.33001196831797019 0.028901444736205942 0
0.33001248024414348 0.030478791610747669 0
0.33001299745599799 0.032023890017147838 0
0.33001351858711037 0.033544741395988932 0
0.33001412558678667 0.035051107394932071 0
0.33001532527996486 0.036551714365764071 0
0.33001708376343825 0.038055017566963424 0
0.33001776899185037 0.039569623905455507 0
0.33001699108213733 0.041104731277846626 0
0.33001553469705852 0.042670269079133002 0
0.33001383042818172 0.044277553347548439 0
0.33001207801156068 0.045939949418802313 0
0.33001038698306118 0.047673432124035027 0
0.33000883372604384 0.049500570073256749 0
0.33000747476548126 0.051444301020105124 0
0.33000633686450931 0.053544359440628429 0
0.33000542341213335 0.055859689295392742 0
0.33000469985212399 0.058482446341724899 0
0.33000412273284113 0.061585671545358545 0
0.33000335024405364 0.065648820765129318 0
0 0 0
0 0.020000000000000004 0
0 0.040000000000000001 0
0 0.54999999999999993 0
0 0.56000000000000005 0
0 0.58000000000000007 0
0.02 0 0
0.02 0.020000000000000004 0
0.02 0.040000000000000001 0
0.02 0.54999999999999993 0
0.02 0.56000000000000005 0
0.02 0.58000000000000007 0
0.040000000000000001 0 0
0.040000000000000001 0.020000000000000004 0
0.040000000000000001 0.040000000000000001 0
0.040000000000000001 0.54999999999999993 0
0.040000000000000001 0.56000000000000005 0
0.040000000000000001 0.58000000000000007 0
0.059999999999999998 0 0
0.059999999999999998 0.020000000000000004 0
0.059999999999999998 0.040000000000000001 0
0.059999999999999998 0.54999999999999993 0
0.059999999999999998 0.56000000000000005 0
0.059999999999999998 0.58000000000000007 0
0.080000000000000002 0 0
0.080000000000000002 0.020000000000000004 0
0.080000000000000002 0.040000000000000001 0
0.080000000000000002 0.54999999999999993 0
0.080000000000000002 0.56000000000000005 0
0.080000000000000002 0.58000000000000007 0
0.10000000000000001 0 0
0.10000000000000001 0.020000000000000004 0
0.10000000000000001 0.040000000000000001 0
0.10000000000000001 0.54999999999999993 0
0.10000000000000001 0.56000000000000005 0
0.10000000000000001 0.58000000000000007 0
0.12 0 0
0.12 0.020000000000000004 0
0.12 0.040000000000000001 0
0.12 0.54999999999999993 0
0.12 0.56000000000000005 0
0.12 0.58000000000000007 0
0.14000000000000001 0 0
0.14000000000000001 0.020000000000000004 0
0.14000000000000001 0.040000000000000001 0
0.14000000000000001 0.54999999999999993 0
0.14000000000000001 0.56000000000000005 0
0.14000000000000001 0.58000000000000007 0
0.16 0 0
0.16 0.020000000000000004 0
0.16 0.040000000000000001 0
0.16 0.54999999999999993 0
0.16 0.56000000000000005 0
0.16 0.58000000000000007 0
0.17999999999999999 0 0
0.17999999999999999 0.020000000000000004 0
0.17999999999999999 0.040000000000000001 0
0.17999999999999999 0.54999999999999993 0
0.17999999999999999 0.56000000000000005 0
0.17999999999999999 0.58000000000000007 0
0.20000000000000001 0 0
0.20000000000000001 0.020000000000000004 0
0.20000000000000001 0.040000000000000001 0
0.20000000000000001 0.54999999999999993 0
0.20000000000000001 0.56000000000000005 0
0.20000000000000001 0.58000000000000007 0
0.22 0 0
0.22 0.020000000000000004 0
0.22 0.040000000000000001 0
0.22 0.54999999999999993 0
0.22 0.56000000000000005 0
0.22 0.58000000000000007 0
0.23999999999999999 0 0
0.23999999999999999 0.020000000000000004 0
0.23999999999999999 0.040000000000000001 0
0.23999999999999999 0.54999999999999993 0
0.23999999999999999 0.56000000000000005 0
0.23999999999999999 0.58000000000000007 0
0.26000000000000001 0 0
0.26000000000000001 0.020000000000000004 0
0.26000000000000001 0.040000000000000001 0
0.26000000000000001 0.54999999999999993 0
0.26000000000000001 0.56000000000000005 0
0.26000000000000001 0.58000000000000007 0
0.28000000000000003 0 0
0.28000000000000003 0.020000000000000004 0
0.28000000000000003 0.040000000000000001 0
0.28000000000000003 0.54999999999999993 0
0.28000000000000003 0.56000000000000005 0
0.28000000000000003 0.58000000000000007 0
0.29999999999999999 0 0
0.29999999999999999 0.020000000000000004 0
0.29999999999999999 0.040000000000000001 0
0.29999999999999999 0.54999999999999993 0
0.29999999999999999 0.56000000000000005 0
0.29999999999999999 0.58000000000000007 0
0.32000000000000001 0 0
0.32000000000000001 0.020000000000000004 0
0.32000000000000001 0.040000000000000001 0
0.32000000000000001 0.54999999999999993 0
0.32000000000000001 0.56000000000000005 0
0.32000000000000001 0.58000000000000007 0
0.34000000000000002 0 0
0.34000000000000002 0.020000000000000004 0
0.34000000000000002 0.040000000000000001 0
0.34000000000000002 0.54999999999999993 0
0.34000000000000002 0.56000000000000005 0
0.34000000000000002 0.58000000000000007 0
0.35999999999999999 0 0
0.35999999999999999 0.020000000000000004 0
0.35999999999999999 0.040000000000000001 0
0.35999999999999999 0.54999999999999993 0
0.35999999999999999 0.56000000000000005 0
0.35999999999999999 0.58000000000000007 0
0.38 0 0
0.38 0.020000000000000004 0
0.38 0.040000000000000001 0
0.38 0.54999999999999993 0
0.38 0.56000000000000005 0
0.38 0.58000000000000007 0
0.40000000000000002 0 0
0.40000000000000002 0.020000000000000004 0
0.40000000000000002 0.040000000000000001 0
0.40000000000000002 0.54999999999999993 0
0.40000000000000002 0.56000000000000005 0
0.40000000000000002 0.58000000000000007 0
0.41999999999999998 0 0
0.41999999999999998 0.020000000000000004 0
0.41999999999999998 0.040000000000000001 0
0.41999999999999998 0.54999999999999993 0
0.41999999999999998 0.56000000000000005 0
0.41999999999999998 0.58000000000000007 0
0.44 0 0
0.44 0.020000000000000004 0
0.44 0.040000000000000001 0
0.44 0.54999999999999993 0
0.44 0.56000000000000005 0
0.44 0.58000000000000007 0
0.46000000000000002 0 0
0.46000000000000002 0.020000000000000004 0
0.46000000000000002 0.040000000000000001 0
0.46000000000000002 0.54999999999999993 0
0.46000000000000002 0.56000000000000005 0
0.46000000000000002 0.58000000000000007 0
0.47999999999999998 0 0
0.47999999999999998 0.020000000000000004 0
0.47999999999999998 0.040000000000000001 0
0.47999999999999998 0.54999999999999993 0
0.47999999999999998 0.56000000000000005 0
0.47999999999999998 0.58000000000000007 0
0.5 0 0
0.5 0.020000000000000004 0
0.5 0.040000000000000001 0
0.5 0.54999999999999993 0
0.5 0.56000000000000005 0
0.5 0.58000000000000007 0
0.52000000000000002 0 0
0.52000000000000002 0.020000000000000004 0
0.52000000000000002 0.040000000000000001 0
0.52000000000000002 0.54999999999999993 0
0.52000000000000002 0.56000000000000005 0
0.52000000000000002 0.58000000000000007 0
0.54000000000000004 0 0
0.54000000000000004 0.020000000000000004 0
0.54000000000000004 0.040000000000000001 0
0.54000000000000004 0.54999999999999993 0
0.54000000000000004 0.56000000000000005 0
0.54000000000000004 0.58000000000000007 0
0.56000000000000005 0 0
0.56000000000000005 0.020000000000000004 0
0.56000000000000005 0.040000000000000001 0
0.56000000000000005 0.54999999999999993 0
0.56000000000000005 0.56000000000000005 0
0.56000000000000005 0.58000000000000007 0
0.57999999999999996 0 0
0.57999999999999996 0.020000000000000004 0
0.57999999999999996 0.040000000000000001 0
0.57999999999999996 0.54999999999999993 0
0.57999999999999996 0.56000000000000005 0
0.57999999999999996 0.58000000000000007 0
0.59999999999999998 0 0
0.59999999999999998 0.020000000000000004 0
0.59999999999999998 0.040000000000000001 0
0.59999999999999998 0.54999999999999993 0
0.59999999999999998 0.56000000000000005 0
0.59999999999999998 0.58000000000000007 0
0.62 0 0
0.62 0.020000000000000004 0
0.62 0.040000000000000001 0
0.62 0.54999999999999993 0
0.62 0.56000000000000005 0
0.62 0.58000000000000007 0
0.64000000000000001 0 0
0.64000000000000001 0.020000000000000004 0
0.64000000000000001 0.040000000000000001 0
0.64000000000000001 0.54999999999999993 0
0.64000000000000001 0.56000000000000005 0
0.64000000000000001 0.58000000000000007 0
0.66000000000000003 0 0
0.66000000000000003 0.020000000000000004 0
0.66000000000000003 0.040000000000000001 0
0.66000000000000003 0.54999999999999993 0
0.66000000000000003 0.56000000000000005 0
0.66000000000000003 0.58000000000000007 0
0.68000000000000005 0 0
0.68000000000000005 0.020000000000000004 0
0.68000000000000005 0.040000000000000001 0
0.68000000000000005 0.54999999999999993 0
0.68000000000000005 0.56000000000000005 0
0.68000000000000005 0.58000000000000007 0
0.70000000000000007 0 0
0.70000000000000007 0.020000000000000004 0
0.70000000000000007 0.040000000000000001 0
0.70000000000000007 0.54999999999999993 0
0.70000000000000007 0.56000000000000005 0
0.70000000000000007 0.58000000000000007 0
0.71999999999999997 0 0
0.71999999999999997 0.020000000000000004 0
0.71999999999999997 0.040000000000000001 0
0.71999999999999997 0.54999999999999993 0
0.71999999999999997 0.56000000000000005 0
0.71999999999999997 0.58000000000000007 0
0.73999999999999999 0 0
0.73999999999999999 0.020000000000000004 0
0.73999999999999999 0.040000000000000001 0
0.73999999999999999 0.54999999999999993 0
0.73999999999999999 0.56000000000000005 0
0.73999999999999999 0.58000000000000007 0
0.76000000000000001 0 0
0.76000000000000001 0.020000000000000004 0
0.76000000000000001 0.040000000000000001 0
0.76000000000000001 0.54999999999999993 0
0.76000000000000001 0.56000000000000005 0
0.76000000000000001 0.58000000000000007 0
0.78000000000000003 0 0
0.78000000000000003 0.020000000000000004 0
0.78000000000000003 0.040000000000000001 0
0.78000000000000003 0.54999999999999993 0
0.78000000000000003 0.56000000000000005 0
0.78000000000000003 0.58000000000000007 0
0.80000000000000004 0 0
0.80000000000000004 0.020000000000000004 0
0.80000000000000004 0.040000000000000001 0
0.80000000000000004 0.54999999999999993 0
0.80000000000000004 0.56000000000000005 0
0.80000000000000004 0.58000000000000007 0
0.82000000000000006 0 0
0.82000000000000006 0.020000000000000004 0
0.82000000000000006 0.040000000000000001 0
0.82000000000000006 0.54999999999999993 0
0.82000000000000006 0.56000000000000005 0
0.82000000000000006 0.58000000000000007 0
0.83999999999999997 0 0
0.83999999999999997 0.020000000000000004 0
0.83999999999999997 0.040000000000000001 0
0.83999999999999997 0.54999999999999993 0
0.83999999999999997 0.56000000000000005 0
0.83999999999999997 0.58000000000000007 0
0.85999999999999999 0 0
0.85999999999999999 0.020000000000000004 0
0.85999999999999999 0.040000000000000001 0
0.85999999999999999 0.54999999999999993 0
0.85999999999999999 0.56000000000000005 0
0.85999999999999999 0.58000000000000007 0
0.88 0 0
0.88 0.020000000000000004 0
0.88 0.040000000000000001 0
0.88 0.54999999999999993 0
0.88 0.56000000000000005 0
0.88 0.58000000000000007 0
0.90000000000000002 0 0
0.90000000000000002 0.020000000000000004 0
0.90000000000000002 0.040000000000000001 0
0.90000000000000002 0.54999999999999993 0
0.90000000000000002 0.56000000000000005 0
0.90000000000000002 0.58000000000000007 0
0.92000000000000004 0 0
0.92000000000000004 0.020000000000000004 0
0.92000000000000004 0.040000000000000001 0
0.92000000000000004 0.54999999999999993 0
0.92000000000000004 0.56000000000000005 0
0.92000000000000004 0.58000000000000007 0
0.94000000000000006 0 0
0.94000000000000006 0.020000000000000004 0
0.94000000000000006 0.040000000000000001 0
0.94000000000000006 0.54999999999999993 0
0.94000000000000006 0.56000000000000005 0
0.94000000000000006 0.58000000000000007 0
0.95999999999999996 0 0
0.95999999999999996 0.020000000000000004 0
0.95999999999999996 0.040000000000000001 0
0.95999999999999996 0.54999999999999993 0
0.95999999999999996 0.56000000000000005 0
0.95999999999999996 0.58000000000000007 0
0.97999999999999998 0 0
0.97999999999999998 0.020000000000000004 0
0.97999999999999998 0.040000000000000001 0
0.97999999999999998 0.54999999999999993 0
0.97999999999999998 0.56000000000000005 0
0.97999999999999998 0.58000000000000007 0
1 0 0
1 0.020000000000000004 0
1 0.040000000000000001 0
1 0.54999999999999993 0
1 0.56000000000000005 0
1 0.58000000000000007 0
VERTICES 681 1362
1 0
1 1
1 2
1 3
1 4
1 5
1 6
1 7
1 8
1 9
1 10
1 11
1 12
1 13
1 14
1 15
1 16
1 17
1 18
1 19
1 20
1 21
1 22
1 23
1 24
1 25
1 26
1 27
1 28
1 29
1 30
1 31
1 32
1 33
1 34
1 35
1 36
1 37
1 38
1 39
1 40
1 41
1 42
1 43
1 44
1 45
1 46
1 47
1 48
1 49
1 50
1 51
1 52
1 53
1 54
1 55
1 56
1 57
1 58
1 59
1 60
1 61
1 62
1 63
1 64
1 65
1 66
1 67
1 68
1 69
1 70
1 71
1 72
1 73
1 74
1 75
1 76
1 77
1 78
1 79
1 80
1 81
1 82
1 83
1 84
1 85
1 86
1 87
1 88
1 89
1 90
1 91
1 92
1 93
1 94
1 95
1 96
1 97
1 98
1 99
1 100
1 101
1 102
1 103
1 104
1 105
1 106
1 107
1 108
1 109
1 110
1 111
1 112
1 113
1 114
1 115
1 116
1 117
1 118
1 119
1 120
1 121
1 122
1 123
1 124
1 125
1 126
1 127
1 128
1 129
1 130
1 131
1 132
1 133
1 134
1 135
1 136
1 137
1 138
1 139
1 140
1 141
1 142
1 143
1 144
1 145
1 146
1 147
1 148
1 149
1 150
1 151
1 152
1 153
1 154
1 155
1 156
1 157
1 158
1 159
1 160
1 161
1 162
1 163
1 164
1 165
1 166
1 167
1 168
1 169
1 170
1 171
1 172
1 173
1 174
1 175
1 176
1 177
1 178
1 179
1 180
1 181
1 182
1 183
1 184
1 185
1 186
1 187
1 188
1 189
1 190
1 191
1 192
1 193
1 194
1 195
1 196
1 197
1 198
1 199
1 200
1 201
1 202
1 203
1 204
1 205
1 206
1 207
1 208
1 209
1 210
1 211
1 212
1 213
1 214
1 215
1 216
1 217
1 218
1 219
1 220
1 221
1 222
1 223
1 224
1 225
1 226
1 227
1 228
1 229
1 230
1 231
1 232
1 233
1 234
1 235
1 236
1 237
1 238
1 239
1 240
1 241
1 242
1 243
1 244
1 245
1 246
1 247
1 248
1 249
1 250
1 251
1 252
1 253
1 254
1 255
1 256
1 257
1 258
1 259
1 260
1 261
1 262
1 263
1 264
1 265
1 266
1 267
1 268
1 269
1 270
1 271
1 272
1 273
1 274
1 275
1 276
1 277
1 278
1 279
1 280
1 281
1 282
1 283
1 284
1 285
1 286
1 287
1 288
1 289
1 290
1 291
1 292
1 293
1 294
1 295
1 296
1 297
1 298
1 299
1 300
1 301
1 302
1 303
1 304
1 305
1 306
1 307
1 308
1 309
1 310
1 311
1 312
1 313
1 314
1 315
1 316
1 317
1 318
1 319
1 320
1 321
1 322
1 323
1 324
1 325
1 326
1 327
1 328
1 329
1 330
1 331
1 332
1 333
1 334
1 335
1 336
1 337
1 338
1 339
1 340
1 341
1 342
1 343
1 344
1 345
1 346
1 347
1 348
1 349
1 350
1 351
1 352
1 353
1 354
1 355
1 356
1 357
1 358
1 359
1 360
1 361
1 362
1 363
1 364
1 365
1 366
1 367
1 368
1 369
1 370
1 371
1 372
1 373
1 374
1 375
1 376
1 377
1 378
1 379
1 380
1 381
1 382
1 383
1 384
1 385
1 386
1 387
1 388
1 389
1 390
1 391
1 392
1 393
1 394
1 395
1 396
1 397
1 398
1 399
1 400
1 401
1 402
1 403
1 404
1 405
1 406
1 407
1 408
1 409
1 410
1 411
1 412
1 413
1 414
1 415
1 416
1 417
1 418
1 419
1 420
1 421
1 422
1 423
1 424
1 425
1 426
1 427
1 428
1 429
1 430
1 431
1 432
1 433
1 434
1 435
1 436
1 437
1 438
1 439
1 440
1 441
1 442
1 443
1 444
1 445
1 446
1 447
1 448
1 449
1 450
1 451
1 452
1 453
1 454
1 455
1 456
1 457
1 458
1 459
1 460
1 461
1 462
1 463
1 464
1 465
1 466
1 467
1 468
1 469
1 470
1 471
1 472
1 473
1 474
1 475
1 476
1 477
1 478
1 479
1 480
1 481
1 482
1 483
1 484
1 485
1 486
1 487
1 488
1 489
1 490
1 491
1 492
1 493
1 494
1 495
1 496
1 497
1 498
1 499
1 500
1 501
1 502
1 503
1 504
1 505
1 506
1 507
1 508
1 509
1 510
1 511
1 512
1 513
1 514
1 515
1 516
1 517
1 518
1 519
1 520
1 521
1 522
1 523
1 524
1 525
1 526
1 527
1 528
1 529
1 530
1 531
1 532
1 533
1 534
1 535
1 536
1 537
1 538
1 539
1 540
1 541
1 542
1 543
1 544
1 545
1 546
1 547
1 548
1 549
1 550
1 551
1 552
1 553
1 554
1 555
1 556
1 557
1 558
1 559
1 560
1 561
1 562
1 563
1 564
1 565
1 566
1 567
1 568
1 569
1 570
1 571
1 572
1 573
1 574
1 575
1 576
1 577
1 578
1 579
1 580
1 581
1 582
1 583
1 584
1 585
1 586
1 587
1 588
1 589
1 590
1 591
1 592
1 593
1 594
1 595
1 596
1 597
1 598
1 599
1 600
1 601
1 602
1 603
1 604
1 605
1 606
1 607
1 608
1 609
1 610
1 611
1 612
1 613
1 614
1 615
1 616
1 617
1 618
1 619
1 620
1 621
1 622
1 623
1 624
1 625
1 626
1 627
1 628
1 629
1 630
1 631
1 632
1 633
1 634
1 635
1 636
1 637
1 638
1 639
1 640
1 641
1 642
1 643
1 644
1 645
1 646
1 647
1 648
1 649
1 650
1 651
1 652
1 653
1 654
1 655
1 656
1 657
1 658
1 659
1 660
1 661
1 662
1 663
1 664
1 665
1 666
1 667
1 668
1 669
1 670
1 671
1 672
1 673
1 674
1 675
1 676
1 677
1 678
1 679
1 680
POINT_DATA 681
SCALARS is_boundary int 1
LOOKUP_TABLE default
0
0
0
0
0
0
0
0
0
0
0
0
0
0
0
0
0
0
0
0
0
0
0
0
0
0
0
0
0
0
0
0
0
0
0
0
0
0
0
0
0
0
0
0
0
0
0
0
0
0
0
0
0
0
0
0
0
0
0
0
0
0
0
0
0
0
0
0
0
0
0
0
0
0
0
0
0
0
0
0
0
0
0
0
0
0
0
0
0
0
0
0
0
0
0
0
0
0
0
0
0
0
0
0
0
0
0
0
0
0
0
0
0
0
0
0
0
0
0
0
0
0
0
0
0
0
0
0
0
0
0
0
0
0
0
0
0
0
0
0
0
0
0
0
0
0
0
0
0
0
0
0
0
0
0
0
0
0
0
0
0
0
0
0
0
0
0
0
0
0
0
0
0
0
0
0
0
0
0
0
0
0
0
0
0
0
0
0
0
0
0
0
0
0
0
0
0
0
0
0
0
0
0
0
0
0
0
0
0
0
0
0
0
0
0
0
0
0
0
0
0
0
0
0
0
0
0
0
0
0
0
0
0
0
0
0
0
0
0
0
0
0
0
0
0
0
0
0
0
0
0
0
0
0
0
0
0
0
0
0
0
0
0
0
0
0
0
0
0
0
0
0
0
0
0
0
0
0
0
0
0
0
0
0
0
0
0
0
0
0
0
0
0
0
0
0
0
0
0
0
0
0
0
0
0
0
0
0
0
0
0
0
0
0
0
0
0
0
0
0
0
0
0
0
0
0
0
0
0
0
0
0
0
0
0
0
0
0
0
0
0
0
0
0
0
0
0
0
0
0
0
0
0
0
0
0
0
0
0
0
0
0
0
0
0
0
0
0
0
0
0
0
0
0
0
1
1
1
1
1
1
1
1
1
1
1
1
1
1
1
1
1
1
1
1
1
1
1
1
1
1
1
1
1
1
1
1
1
1
1
1
1
1
1
1
1
1
1
1
1
1
1
1
1
1
1
1
1
1
1
1
1
1
1
1
1
1
1
1
1
1
1
1
1
1
1
1
1
1
1
1
1
1
1
1
1
1
1
1
1
1
1
1
1
1
1
1
1
1
1
1
1
1
1
1
1
1
1
1
1
1
1
1
1
1
1
1
1
1
1
1
1
1
1
1
1
1
1
1
1
1
1
1
1
1
1
1
1
1
1
1
1
1
1
1
1
1
1
1
1
1
1
1
1
1
1
1
1
1
1
1
1
1
1
1
1
1
1
1
1
1
1
1
1
1
1
1
1
1
1
1
1
1
1
1
1
1
1
1
1
1
1
1
1
1
1
1
1
1
1
1
1
1
1
1
1
1
1
1
1
1
1
1
1
1
1
1
1
1
1
1
1
1
1
1
1
1
1
1
1
1
1
1
1
1
1
1
1
1
1
1
1
1
1
1
1
1
1
1
1
1
1
1
1
1
1
1
1
1
1
1
1
1
1
1
1
1
1
1
1
1
1
1
1
1
1
1
1
1
1
1
1
1
1
1
1
1
1
1
1
1
1
1
1
1
1
1
1
1
1
1
1
1
1
1
1
1
1
1
1
1
SCALARS rho float 1
LOOKUP_TABLE default
1020
1020
1020
1020
1020
1020
1020
1020
1020
1020
1020
1020
1020
1020
1020
1020
1020
1020
1020
1020
1020
1020
1020
1020
1020
1020
1020
1020
1020
1020
1020
1020
1020
1020
1020
1020
1020
1020
1020
1020
1020
1020
1020
1020
1020
1020
1020
1020
1020
1020
1020
1020
1020
1020
1020
1020
1020
1020
1020
1020
1020
1020
1020
1020
1020
1020
1020
1020
1020
1020
1020
1020
1020
1020
1020
1020
1020
1020
1020
1020
1020
1020
1020
1020
1020
1020
1020
1020
1020
1020
1020
1020
1020
1020
1020
1020
1020
1020
1020
1020
1020
1020
1020
1020
1020
1020
1020
1020
1020
1020
1020
1020
1020
1020
1020
1020
1020
1020
1020
1020
1020
1020
1020
1020
1020
1020
1020
1020
1020
1020
1020
1020
1020
1020
1020
1020
1020
1020
1020
1020
1020
1020
1020
1020
1020
1020
1020
1020
1020
1020
1020
1020
1020
1020
1020
1020
1020
1020
1020
1020
1020
1020
1020
1020
1020
1020
1020
1020
1020
1020
1020
1020
1020
1020
1020
1020
1020
1020
1020
1020
1020
1020
1020
1020
1020
1020
1020
1020
1020
1020
1020
1020
1020
1020
1020
1020
1020
1020
1020
1020
1020
1020
1020
1020
1020
1020
1020
1020
1020
1020
1020
1020
1020
1020
1020
1020
1020
1020
1020
1020
1020
1020
1020
1020
1020
1020
1020
1020
1020
1020
1020
1020
1020
1020
1020
1020
1020
1020
1020
1020
1020
1020
1020
1020
1020
1020
1020
1020
1020
1020
1020
1020
1020
1020
1020
1020
1020
1020
1020
1020
1020
1020
1020
1020
1020
1020
1020
1020
1020
1020
1020
1020
1020
1020
1020
1020
1020
1020
1020
1020
1020
1020
1020
1020
1020
1020
1020
1020
1020
1020
1020
1020
1020
1020
1020
1020
1020
1020
1020
1020
1020
1020
1020
1020
1020
1020
1020
1020
1020
1020
1020
1020
1020
1020
1020
1020
1020
1020
1020
1020
1020
1020
1020
1020
1020
1020
1020
1020
1020
1020
1020
1020
1020
1020
1020
1020
1020
1020
1020
1020
1020
1020
1020
1020
1020
1020
1020
1020
1020
1020
1020
1020
1020
1020
1020
1020
1020
1020
1020
1020
1020
1020
1020
1020
1020
1020
1020
1020
1020
1020
1020
1020
1020
1020
1020
1000
1000
1000
1000
1000
1000
1000
1000
1000
1000
1000
1000
1000
1000
1000
1000
1000
1000
1000
1000
1000
1000
1000
1000
1000
1000
1000
1000
1000
1000
1000
1000
1000
1000
1000
1000
1000
1000
1000
1000
1000
1000
1000
1000
1000
1000
1000
1000
1000
1000
1000
1000
1000
1000
1000
1000
1000
1000
1000
1000
1000
1000
1000
1000
1000
1000
1000
1000
1000
1000
1000
1000
1000
1000
1000
1000
1000
1000
1000
1000
1000
1000
1000
1000
1000
1000
1000
1000
1000
1000
1000
1000
1000
1000
1000
1000
1000
1000
1000
1000
1000
1000
1000
1000
1000
1000
1000
1000
1000
1000
1000
1000
1000
1000
1000
1000
1000
1000
1000
1000
1000
1000
1000
1000
1000
1000
1000
1000
1000
1000
1000
1000
1000
1000
1000
1000
1000
1000
1000
1000
1000
1000
1000
1000
1000
1000
1000
1000
1000
1000
1000
1000
1000
1000
1000
1000
1000
1000
1000
1000
1000
1000
1000
1000
1000
1000
1000
1000
1000
1000
1000
1000
1000
1000
1000
1000
1000
1000
1000
1000
1000
1000
1000
1000
1000
1000
1000
1000
1000
1000
1000
1000
1000
1000
1000
1000
1000
1000
1000
1000
1000
1000
1000
1000
1000
1000
1000
1000
1000
1000
1000
1000
1000
1000
1000
1000
1000
1000
1000
1000
1000
1000
1000
1000
1000
1000
1000
1000
1000
1000
1000
1000
1000
1000
1000
1000
1000
1000
1000
1000
1000
1000
1000
1000
1000
1000
1000
1000
1000
1000
1000
1000
1000
1000
1000
1000
1000
1000
1000
1000
1000
1000
1000
1000
1000
1000
1000
1000
1000
1000
1000
1000
1000
1000
1000
1000
1000
1000
1000
1000
1000
1000
1000
1000
1000
1000
1000
1000
1000
1000
1000
1000
1000
1000
1000
1000
1000
1000
1000
1000
1000
1000
1000
1000
1000
1000
SCALARS p float 1
LOOKUP_TABLE default
25004.681136676067
25004.681136676067
25004.681136676067
25004.681136676067
25004.681136676067
25004.681136676067
25004.681136676067
25004.681136676067
25004.681136676067
25004.681136676067
25004.681136676067
25004.681136676067
25004.681136676067
25004.681136676067
25004.681136676067
25004.681136676067
25004.681136676067
25004.681136676067
25004.681136676067
25004.681136676067
25004.681136676067
25004.681136676067
25004.681136676067
25004.681136676067
25004.681136676067
25004.681136676067
25004.681136676067
25004.681136676067
25004.681136676067
25004.681136676067
25004.681136676067
25004.681136676067
25004.681136676067
25004.681136676067
25004.681136676067
25004.681136676067
25004.681136676067
25004.681136676067
25004.681136676067
25004.681136676067
25004.681136676067
25004.681136676067
25004.681136676067
25004.681136676067
25004.681136676067
25004.681136676067
25004.681136676067
25004.681136676067
25004.681136676067
25004.681136676067
25004.681136676067
25004.681136676067
25004.681136676067
25004.681136676067
25004.681136676067
25004.681136676067
25004.681136676067
25004.681136676067
25004.681136676067
25004.681136676067
25004.681136676067
25004.681136676067
25004.681136676067
25004.681136676067
25004.681136676067
25004.681136676067
25004.681136676067
25004.681136676067
25004.681136676067
25004.681136676067
25004.681136676067
25004.681136676067
25004.681136676067
25004.681136676067
25004.681136676067
25004.681136676067
25004.681136676067
25004.681136676067
25004.681136676067
25004.681136676067
25004.681136676067
25004.681136676067
25004.681136676067
25004.681136676067
25004.681136676067
25004.681136676067
25004.681136676067
25004.681136676067
25004.681136676067
25004.681136676067
25004.681136676067
25004.681136676067
25004.681136676067
25004.681136676067
25004.681136676067
25004.681136676067
25004.681136676067
25004.681136676067
25004.681136676067
25004.681136676067
25004.681136676067
25004.681136676067
25004.681136676067
25004.681136676067
25004.681136676067
25004.681136676067
25004.681136676067
25004.681136676067
25004.681136676067
25004.681136676067
25004.681136676067
25004.681136676067
25004.681136676067
25004.681136676067
25004.681136676067
25004.681136676067
25004.681136676067
25004.681136676067
25004.681136676067
25004.681136676067
25004.681136676067
25004.681136676067
25004.681136676067
25004.681136676067
25004.681136676067
25004.681136676067
25004.681136676067
25004.681136676067
25004.681136676067
25004.681136676067
25004.681136676067
25004.681136676067
25004.681136676067
25004.681136676067
25004.681136676067
25004.681136676067
25004.681136676067
25004.681136676067
25004.681136676067
25004.681136676067
25004.681136676067
25004.681136676067
25004.681136676067
25004.681136676067
25004.681136676067
25004.681136676067
25004.681136676067
25004.681136676067
25004.681136676067
25004.681136676067
25004.681136676067
25004.681136676067
25004.681136676067
25004.681136676067
25004.681136676067
25004.681136676067
25004.681136676067
25004.681136676067
25004.681136676067
25004.681136676067
25004.681136676067
25004.681136676067
25004.681136676067
25004.681136676067
25004.681136676067
25004.681136676067
25004.681136676067
25004.681136676067
25004.681136676067
25004.681136676067
25004.681136676067
25004.681136676067
25004.681136676067
25004.681136676067
25004.681136676067
25004.681136676067
25004.681136676067
25004.681136676067
25004.681136676067
25004.681136676067
25004.681136676067
25004.681136676067
25004.681136676067
25004.681136676067
25004.681136676067
25004.681136676067
25004.681136676067
25004.681136676067
25004.681136676067
25004.681136676067
25004.681136676067
25004.681136676067
25004.681136676067
25004.681136676067
25004.681136676067
25004.681136676067
25004.681136676067
25004.681136676067
25004.681136676067
25004.681136676067
25004.681136676067
25004.681136676067
25004.681136676067
25004.681136676067
25004.681136676067
25004.681136676067
25004.681136676067
25004.681136676067
25004.681136676067
25004.681136676067
25004.681136676067
25004.681136676067
25004.681136676067
25004.681136676067
25004.681136676067
25004.681136676067
25004.681136676067
25004.681136676067
25004.681136676067
25004.681136676067
25004.681136676067
25004.681136676067
25004.681136676067
25004.681136676067
25004.681136676067
25004.681136676067
25004.681136676067
25004.681136676067
25004.681136676067
25004.681136676067
25004.681136676067
25004.681136676067
25004.681136676067
25004.681136676067
25004.681136676067
25004.681136676067
25004.681136676067
25004.681136676067
25004.681136676067
25004.681136676067
25004.681136676067
25004.681136676067
25004.681136676067
25004.681136676067
25004.681136676067
25004.681136676067
25004.681136676067
25004.681136676067
25004.681136676067
25004.681136676067
25004.681136676067
25004.681136676067
25004.681136676067
25004.681136676067
25004.681136676067
25004.681136676067
25004.681136676067
25004.681136676067
25004.681136676067
25004.681136676067
25004.681136676067
25004.681136676067
25004.681136676067
25004.681136676067
25004.681136676067
25004.681136676067
25004.681136676067
25004.681136676067
25004.681136676067
25004.681136676067
25004.681136676067
25004.681136676067
25004.681136676067
25004.681136676067
25004.681136676067
25004.681136676067
25004.681136676067
25004.681136676067
25004.681136676067
25004.681136676067
25004.681136676067
25004.681136676067
25004.681136676067
25004.681136676067
25004.681136676067
25004.681136676067
25004.681136676067
25004.681136676067
25004.681136676067
25004.681136676067
25004.681136676067
25004.681136676067
25004.681136676067
25004.681136676067
25004.681136676067
25004.681136676067
25004.681136676067
25004.681136676067
25004.681136676067
25004.681136676067
25004.681136676067
25004.681136676067
25004.681136676067
25004.681136676067
25004.681136676067
25004.681136676067
25004.681136676067
25004.681136676067
25004.681136676067
25004.681136676067
25004.681136676067
25004.681136676067
25004.681136676067
25004.681136676067
25004.681136676067
25004.681136676067
25004.681136676067
25004.681136676067
25004.681136676067
25004.681136676067
25004.681136676067
25004.681136676067
25004.681136676067
25004.681136676067
25004.681136676067
25004.681136676067
25004.681136676067
25004.681136676067
25004.681136676067
25004.681136676067
25004.681136676067
25004.681136676067
25004.681136676067
25004.681136676067
25004.681136676067
25004.681136676067
25004.681136676067
25004.681136676067
25004.681136676067
25004.681136676067
25004.681136676067
25004.681136676067
25004.681136676067
25004.681136676067
25004.681136676067
25004.681136676067
25004.681136676067
25004.681136676067
25004.681136676067
25004.681136676067
25004.681136676067
25004.681136676067
25004.681136676067
25004.681136676067
25004.681136676067
25004.681136676067
25004.681136676067
25004.681136676067
25004.681136676067
25004.681136676067
25004.681136676067
25004.681136676067
25004.681136676067
25004.681136676067
25004.681136676067
25004.681136676067
25004.681136676067
25004.681136676067
25004.681136676067
25004.681136676067
25004.681136676067
25004.681136676067
25004.681136676067
25004.681136676067
25004.681136676067
0
0
0
0
0
0
22992.261168009572
24979.034220813526
24991.280462653362
0
0
0
24993.893957895081
25003.842425956042
25004.207383231522
0
0
0
24999.679042519609
25004.255881022302
25004.43605732335
0
0
0
25000.064821057393
25004.264052731694
25004.436007248958
0
0
0
25000.082391145661
25004.263641153299
25004.435162274167
0
0
0
25000.07382729408
25004.263220187833
25004.435022096008
0
0
0
25000.068780428501
25004.263013219705
25004.434991014838
0
0
0
25000.066754679912
25004.262928116987
25004.434981850547
0
0
0
25000.066198585093
25004.262902434548
25004.434979924506
0
0
0
25000.066248220537
25004.262904602896
25004.434981851144
0
0
0
25000.067042124101
25004.262938416945
25004.434984493993
0
0
0
25000.069266822389
25004.263030120532
25004.434996460954
0
0
0
25000.074346411646
25004.263236820807
25004.435029174099
0
0
0
25000.082781031262
25004.263651442652
25004.43516393736
0
0
0
25000.06492338693
25004.264051859471
25004.436004671195
0
0
0
24999.679034474706
25004.255880669949
25004.436060107801
0
0
0
24993.893423140926
25003.842386189077
25004.207364573289
0
0
0
22991.772787337344
24979.030873494499
24991.27790729154
0
0
0
0
0
0
0
0
0
0
0
0
0
0
0
0
0
0
0
0
0
0
0
0
0
0
0
0
0
0
0
0
0
0
0
0
0
0
0
0
0
0
0
0
0
0
0
0
0
0
0
0
0
0
0
0
0
0
0
0
0
0
0
0
0
0
0
0
0
0
0
0
0
0
0
0
0
0
0
0
0
0
0
0
0
0
0
0
0
0
0
0
0
0
0
0
0
0
0
0
0
0
0
0
0
0
0
0
0
0
0
0
0
0
0
0
0
0
0
0
0
0
0
0
0
0
0
0
0
0
0
0
0
0
0
0
0
0
0
0
0
0
0
0
0
0
0
0
0
0
0
0
0
0
0
0
0
0
0
0
0
0
0
0
0
0
0
0
0
0
0
0
0
0
0
0
0
0
0
0
0
0
0
0
0
0
0
0
0
0
0
0
0
0
0
SCALARS m float 1
LOOKUP_TABLE default
0.39965556373580352
0.39965556373580352
0.39965556373580352
0.39965556373580352
0.39965556373580352
0.39965556373580352
0.39965556373580352
0.39965556373580352
0.39965556373580352
0.39965556373580352
0.39965556373580352
0.39965556373580352
0.39965556373580352
0.39965556373580352
0.39965556373580352
0.39965556373580352
0.39965556373580352
0.39965556373580352
0.39965556373580352
0.39965556373580352
0.39965556373580352
0.39965556373580352
0.39965556373580352
0.39965556373580352
0.39965556373580352
0.39965556373580352
0.39965556373580352
0.39965556373580352
0.39965556373580352
0.39965556373580352
0.39965556373580352
0.39965556373580352
0.39965556373580352
0.39965556373580352
0.39965556373580352
0.39965556373580352
0.39965556373580352
0.39965556373580352
0.39965556373580352
0.39965556373580352
0.39965556373580352
0.39965556373580352
0.39965556373580352
0.39965556373580352
0.39965556373580352
0.39965556373580352
0.39965556373580352
0.39965556373580352
0.39965556373580352
0.39965556373580352
0.39965556373580352
0.39965556373580352
0.39965556373580352
0.39965556373580352
0.39965556373580352
0.39965556373580352
0.39965556373580352
0.39965556373580352
0.39965556373580352
0.39965556373580352
0.39965556373580352
0.39965556373580352
0.39965556373580352
0.39965556373580352
0.39965556373580352
0.39965556373580352
0.39965556373580352
0.39965556373580352
0.39965556373580352
0.39965556373580352
0.39965556373580352
0.39965556373580352
0.39965556373580352
0.39965556373580352
0.39965556373580352
0.39965556373580352
0.39965556373580352
0.39965556373580352
0.39965556373580352
0.39965556373580352
0.39965556373580352
0.39965556373580352
0.39965556373580352
0.39965556373580352
0.39965556373580352
0.39965556373580352
0.39965556373580352
0.39965556373580352
0.39965556373580352
0.39965556373580352
0.39965556373580352
0.39965556373580352
0.39965556373580352
0.39965556373580352
0.39965556373580352
0.39965556373580352
0.39965556373580352
0.39965556373580352
0.39965556373580352
0.39965556373580352
0.39965556373580352
0.39965556373580352
0.39965556373580352
0.39965556373580352
0.39965556373580352
0.39965556373580352
0.39965556373580352
0.39965556373580352
0.39965556373580352
0.39965556373580352
0.39965556373580352
0.39965556373580352
0.39965556373580352
0.39965556373580352
0.39965556373580352
0.39965556373580352
0.39965556373580352
0.39965556373580352
0.39965556373580352
0.39965556373580352
0.39965556373580352
0.39965556373580352
0.39965556373580352
0.39965556373580352
0.39965556373580352
0.39965556373580352
0.39965556373580352
0.39965556373580352
0.39965556373580352
0.39965556373580352
0.39965556373580352
0.39965556373580352
0.39965556373580352
0.39965556373580352
0.39965556373580352
0.39965556373580352
0.39965556373580352
0.39965556373580352
0.39965556373580352
0.39965556373580352
0.39965556373580352
0.39965556373580352
0.39965556373580352
0.39965556373580352
0.39965556373580352
0.39965556373580352
0.39965556373580352
0.39965556373580352
0.39965556373580352
0.39965556373580352
0.39965556373580352
0.39965556373580352
0.39965556373580352
0.39965556373580352
0.39965556373580352
0.39965556373580352
0.39965556373580352
0.39965556373580352
0.39965556373580352
0.39965556373580352
0.39965556373580352
0.39965556373580352
0.39965556373580352
0.39965556373580352
0.39965556373580352
0.39965556373580352
0.39965556373580352
0.39965556373580352
0.39965556373580352
0.39965556373580352
0.39965556373580352
0.39965556373580352
0.39965556373580352
0.39965556373580352
0.39965556373580352
0.39965556373580352
0.39965556373580352
0.39965556373580352
0.39965556373580352
0.39965556373580352
0.39965556373580352
0.39965556373580352
0.39965556373580352
0.39965556373580352
0.39965556373580352
0.39965556373580352
0.39965556373580352
0.39965556373580352
0.39965556373580352
0.39965556373580352
0.39965556373580352
0.39965556373580352
0.39965556373580352
0.39965556373580352
0.39965556373580352
0.39965556373580352
0.39965556373580352
0.39965556373580352
0.39965556373580352
0.39965556373580352
0.39965556373580352
0.39965556373580352
0.39965556373580352
0.39965556373580352
0.39965556373580352
0.39965556373580352
0.39965556373580352
0.39965556373580352
0.39965556373580352
0.39965556373580352
0.39965556373580352
0.39965556373580352
0.39965556373580352
0.39965556373580352
0.39965556373580352
0.39965556373580352
0.39965556373580352
0.39965556373580352
0.39965556373580352
0.39965556373580352
0.39965556373580352
0.39965556373580352
0.39965556373580352
0.39965556373580352
0.39965556373580352
0.39965556373580352
0.39965556373580352
0.39965556373580352
0.39965556373580352
0.39965556373580352
0.39965556373580352
0.39965556373580352
0.39965556373580352
0.39965556373580352
0.39965556373580352
0.39965556373580352
0.39965556373580352
0.39965556373580352
0.39965556373580352
0.39965556373580352
0.39965556373580352
0.39965556373580352
0.39965556373580352
0.39965556373580352
0.39965556373580352
0.39965556373580352
0.39965556373580352
0.39965556373580352
0.39965556373580352
0.39965556373580352
0.39965556373580352
0.39965556373580352
0.39965556373580352
0.39965556373580352
0.39965556373580352
0.39965556373580352
0.39965556373580352
0.39965556373580352
0.39965556373580352
0.39965556373580352
0.39965556373580352
0.39965556373580352
0.39965556373580352
0.39965556373580352
0.39965556373580352
0.39965556373580352
0.39965556373580352
0.39965556373580352
0.39965556373580352
0.39965556373580352
0.39965556373580352
0.39965556373580352
0.39965556373580352
0.39965556373580352
0.39965556373580352
0.39965556373580352
0.39965556373580352
0.39965556373580352
0.39965556373580352
0.39965556373580352
0.39965556373580352
0.39965556373580352
0.39965556373580352
0.39965556373580352
0.39965556373580352
0.39965556373580352
0.39965556373580352
0.39965556373580352
0.39965556373580352
0.39965556373580352
0.39965556373580352
0.39965556373580352
0.39965556373580352
0.39965556373580352
0.39965556373580352
0.39965556373580352
0.39965556373580352
0.39965556373580352
0.39965556373580352
0.39965556373580352
0.39965556373580352
0.39965556373580352
0.39965556373580352
0.39965556373580352
0.39965556373580352
0.39965556373580352
0.39965556373580352
0.39965556373580352
0.39965556373580352
0.39965556373580352
0.39965556373580352
0.39965556373580352
0.39965556373580352
0.39965556373580352
0.39965556373580352
0.39965556373580352
0.39965556373580352
0.39965556373580352
0.39965556373580352
0.39965556373580352
0.39965556373580352
0.39965556373580352
0.39965556373580352
0.39965556373580352
0.39965556373580352
0.39965556373580352
0.39965556373580352
0.39965556373580352
0.39965556373580352
0.39965556373580352
0.39965556373580352
0.39965556373580352
0.39965556373580352
0.39965556373580352
0.39965556373580352
0.39965556373580352
0.39965556373580352
0.39965556373580352
0.39965556373580352
0.39965556373580352
0.39965556373580352
0.39965556373580352
0.39965556373580352
0.39965556373580352
0.39965556373580352
0.39965556373580352
0.39965556373580352
0.39965556373580352
0.39965556373580352
0.39965556373580352
0.39965556373580352
0.39965556373580352
0.39965556373580352
0.39965556373580352
0.39965556373580352
0.39965556373580352
0.39965556373580352
0.39965556373580352
0.39965556373580352
0.39965556373580352
0.39965556373580352
0.39965556373580352
0.39965556373580352
0.39965556373580352
0.39965556373580352
0.39965556373580352
0.39965556373580352
0.39965556373580352
0.39965556373580352
0.39965556373580352
0.39965556373580352
0.39965556373580352
0.39965556373580352
0.39965556373580352
0.39965556373580352
0.39965556373580352
0.39965556373580352
0.39965556373580352
0.39965556373580352
0.39965556373580352
0.39965556373580352
0.39965556373580352
0.39965556373580352
0.39965556373580352
0.39965556373580352
0.39965556373580352
0.39965556373580352
0.39965556373580352
0.39965556373580352
0.39965556373580352
0.39965556373580352
0.39965556373580352
0.39965556373580352
0.39965556373580352
0.39965556373580352
0.39965556373580352
0.39965556373580352
0.39965556373580352
0.39965556373580352
0.39965556373580352
0.39965556373580352
0.39965556373580352
0.39965556373580352
0.39965556373580352
0.39965556373580352
0.39965556373580352
0.39965556373580352
0.39965556373580352
0.39965556373580352
0.39965556373580352
0.39965556373580352
0.39965556373580352
0.39965556373580352
0.39965556373580352
0.39965556373580352
0.39965556373580352
0.39965556373580352
0.39965556373580352
0.39965556373580352
0.39965556373580352
0.39965556373580352
0.39965556373580352
0.39965556373580352
0.39965556373580352
0.39965556373580352
0.39965556373580352
0.39965556373580352
0.39965556373580352
0.39965556373580352
0.39965556373580352
0.39965556373580352
0.39965556373580352
0.39965556373580352
0.39965556373580352
0.39965556373580352
0.39965556373580352
0.39965556373580352
0.39965556373580352
0.39965556373580352
0.39965556373580352
0.39965556373580352
0.39965556373580352
0.39965556373580352
0.39965556373580352
0.39965556373580352
0.39965556373580352
0.39965556373580352
0.39965556373580352
0.39965556373580352
0.39965556373580352
0.39965556373580352
0.39965556373580352
0.39965556373580352
0.39965556373580352
0.39965556373580352
0.39965556373580352
0.39965556373580352
0.39965556373580352
0.39965556373580352
0.39965556373580352
0.39965556373580352
0.39965556373580352
0.39965556373580352
0.39965556373580352
0.39965556373580352
0.39965556373580352
0.39965556373580352
0.39965556373580352
0.39965556373580352
0.39965556373580352
0.39965556373580352
0.39965556373580352
0.39965556373580352
0.39965556373580352
0.39965556373580352
0.39965556373580352
0.39965556373580352
0.39965556373580352
0.39965556373580352
0.39965556373580352
0.39965556373580352
0.39965556373580352
0.39965556373580352
0.39965556373580352
0.39965556373580352
0.39965556373580352
0.39965556373580352
0.39965556373580352
0.39965556373580352
0.39965556373580352
0.39965556373580352
0.39965556373580352
0.39965556373580352
0.39965556373580352
0.39965556373580352
0.39965556373580352
0.39965556373580352
0.39965556373580352
0.39965556373580352
0.39965556373580352
0.39965556373580352
0.39965556373580352
0.39965556373580352
0.39965556373580352
0.39965556373580352
0.39965556373580352
0.39965556373580352
0.39965556373580352
0.39965556373580352
0.39965556373580352
0.39965556373580352
0.39965556373580352
0.39965556373580352
0.39965556373580352
0.39965556373580352
0.39965556373580352
0.39965556373580352
0.39965556373580352
0.39965556373580352
0.39965556373580352
0.39965556373580352
0.39965556373580352
0.39965556373580352
0.39965556373580352
0.39965556373580352
0.39965556373580352
0.39965556373580352
0.39965556373580352
0.39965556373580352
0.39965556373580352
0.39965556373580352
0.39965556373580352
0.39965556373580352
0.39965556373580352
0.39965556373580352
0.39965556373580352
0.39965556373580352
0.39965556373580352
0.39965556373580352
0.39965556373580352
0.39965556373580352
0.39965556373580352
0.39965556373580352
0.39965556373580352
0.39965556373580352
0.39965556373580352
0.39965556373580352
0.39965556373580352
0.39965556373580352
0.39965556373580352
0.39965556373580352
0.39965556373580352
0.39965556373580352
0.39965556373580352
0.39965556373580352
0.39965556373580352
0.39965556373580352
0.39965556373580352
0.39965556373580352
0.39965556373580352
0.39965556373580352
0.39965556373580352
0.39965556373580352
0.39965556373580352
0.39965556373580352
0.39965556373580352
0.39965556373580352
0.39965556373580352
0.39965556373580352
0.39965556373580352
0.39965556373580352
0.39965556373580352
0.39965556373580352
0.39965556373580352
0.39965556373580352
0.39965556373580352
0.39965556373580352
0.39965556373580352
0.39965556373580352
0.39965556373580352
0.39965556373580352
0.39965556373580352
0.39965556373580352
0.39965556373580352
0.39965556373580352
0.39965556373580352
0.39965556373580352
0.39965556373580352
0.39965556373580352
0.39965556373580352
0.39965556373580352
0.39965556373580352
0.39965556373580352
0.39965556373580352
0.39965556373580352
0.39965556373580352
0.39965556373580352
0.39965556373580352
0.39965556373580352
0.39965556373580352
0.39965556373580352
0.39965556373580352
0.39965556373580352
0.39965556373580352
0.39965556373580352
0.39965556373580352
0.39965556373580352
0.39965556373580352
0.39965556373580352
0.39965556373580352
0.39965556373580352
0.39965556373580352
0.39965556373580352
0.39965556373580352
0.39965556373580352
0.39965556373580352
0.39965556373580352
0.39965556373580352
0.39965556373580352
0.39965556373580352
0.39965556373580352
0.39965556373580352
0.39965556373580352
0.39965556373580352
0.39965556373580352
0.39965556373580352
0.39965556373580352
0.39965556373580352
0.39965556373580352
0.39965556373580352
0.39965556373580352
0.39965556373580352
0.39965556373580352
0.39965556373580352
0.39965556373580352
0.39965556373580352
0.39965556373580352
0.39965556373580352
0.39965556373580352
0.39965556373580352
0.39965556373580352
0.39965556373580352
0.39965556373580352
0.39965556373580352
0.39965556373580352
0.39965556373580352
0.39965556373580352
0.39965556373580352
0.39965556373580352
0.39965556373580352
0.39965556373580352
0.39965556373580352
0.39965556373580352
0.39965556373580352
0.39965556373580352
0.39965556373580352
0.39965556373580352
0.39965556373580352
0.39965556373580352
0.39965556373580352
0.39965556373580352
0.39965556373580352
0.39965556373580352
0.39965556373580352
0.39965556373580352
0.39965556373580352
0.39965556373580352
0.39965556373580352
0.39965556373580352
0.39965556373580352
0.39965556373580352
0.39965556373580352
0.39965556373580352
0.39965556373580352
0.39965556373580352
0.39965556373580352
0.39965556373580352
0.39965556373580352
0.39965556373580352
0.39965556373580352
0.39965556373580352
VECTORS v float
-2.1293102330172901e-05 -0.038132677546599186 0
-2.2436324863676324e-05 -0.038733934051361808 0
-2.3257503402396446e-05 -0.039201427246300102 0
-2.4009023871106711e-05 -0.039670409208650094 0
-2.4703734773638144e-05 -0.040154841706926576 0
-2.5332985646341767e-05 -0.040666349766060469 0
-2.5979386880856375e-05 -0.041213394799095006 0
-2.6576439868169975e-05 -0.041803140503861205 0
-2.7144243595162087e-05 -0.042442624741012035 0
-2.7669411943990267e-05 -0.043138830669740905 0
-2.8148766648030414e-05 -0.043899356102235242 0
-2.8567711716556149e-05 -0.044731988387167965 0
-2.893304270121939e-05 -0.045650853093669598 0
-2.9255827268849293e-05 -0.046675074534406433 0
-2.9562597426929815e-05 -0.0478249586790137 0
-2.9869040314200354e-05 -0.049123485884442909 0
-3.0192231401240283e-05 -0.050600144833815787 0
-3.0548496055044066e-05 -0.052293144191629747 0
-3.0943678705445874e-05 -0.054251749738193709 0
-3.1387960893943267e-05 -0.056529179596204314 0
-3.1898341945624307e-05 -0.059228461634287383 0
-3.2484961455693221e-05 -0.062496440945098708 0
-3.3183427721081606e-05 -0.066569458555877772 0
-3.4007259425776795e-05 -0.071989003914102165 0
-3.5228667920821877e-05 -0.080577035929936577 0
-1.2648799865604296e-05 -0.038370089677140402 0
-1.3537588892614331e-05 -0.039022017357901471 0
-1.4188526458978676e-05 -0.039528948464691946 0
-1.4711850277162318e-05 -0.040020363054181218 0
-1.5156730895816118e-05 -0.040518837624041043 0
-1.5605059666301899e-05 -0.041040493431770693 0
-1.5945962059415369e-05 -0.041596444549337967 0
-1.6299002375115717e-05 -0.042195181482456726 0
-1.6530274328298382e-05 -0.042845231970159603 0
-1.683372300533661e-05 -0.043554159170151131 0
-1.7059195121038234e-05 -0.04432992000315128 0
-1.7296796443887541e-05 -0.045180698575100826 0
-1.7590891821921107e-05 -0.046120639739937588 0
-1.79155754145263e-05 -0.047169706492671569 0
-1.820568594013373e-05 -0.048347609411408247 0
-1.8460129766117163e-05 -0.049677670945083359 0
-1.8743861338675182e-05 -0.051189143893147965 0
-1.9018224949869756e-05 -0.052919402035251868 0
-1.9300303705649105e-05 -0.054914312616689047 0
-1.9543841066575424e-05 -0.057232273095275052 0
-1.9840617318069539e-05 -0.059966152457717761 0
-2.0096876742662579e-05 -0.063252200951799578 0
-2.0387648255219795e-05 -0.067323817750572237 0
-2.0649195825574355e-05 -0.07276869391470657 0
-2.0956334468442594e-05 -0.08160152263521589 0
-4.9774108846390737e-06 -0.038452743617418045 0
-5.3492732238697874e-06 -0.03910961579356631 0
-5.6166165876357709e-06 -0.039621332886271093 0
-5.8556593961878552e-06 -0.04011759917289659 0
-6.0557604802108878e-06 -0.040621291264548817 0
-6.2485379408934236e-06 -0.041149283299128682 0
-6.4024919066222543e-06 -0.041712546032942291 0
-6.4894521047650378e-06 -0.042320384254257853 0
-6.6069314776624958e-06 -0.042980977687786442 0
-6.725188113936466e-06 -0.043702277590437412 0
-6.7754820138707182e-06 -0.044492622436717706 0
-7.0064696095732176e-06 -0.045360896174113291 0
-7.0427051798995682e-06 -0.046322300742872032 0
-7.2447150277446824e-06 -0.04739695119758703 0
-7.4931601984007681e-06 -0.048605066387734375 0
-7.6058819658319439e-06 -0.049971276124026215 0
-7.8369584580599102e-06 -0.051524930524318634 0
-7.9525583716045594e-06 -0.053303593410596185 0
-8.1026472741534412e-06 -0.05535392086359564 0
-8.3065127493039938e-06 -0.057738009687300376 0
-8.5723315504440261e-06 -0.06054623419491887 0
-8.941861396196715e-06 -0.063913578063993143 0
-9.2102613662594491e-06 -0.068072108514957347 0
-9.5055300450781561e-06 -0.073611502979684301 0
-9.8415811556777545e-06 -0.082557789625477482 0
-1.9178945836134702e-06 -0.038497957586156692 0
-2.0281054849078094e-06 -0.039159400942298764 0
-2.1544576526355098e-06 -0.039674863073534121 0
-2.2431147835638365e-06 -0.04017505561816067 0
-2.3485580153838208e-06 -0.040682839906646125 0
-2.4148296086054066e-06 -0.041215261782229104 0
-2.421153352472663e-06 -0.041783506942939704 0
-2.4960450696439909e-06 -0.042396584824242897 0
-2.5659931313279346e-06 -0.043063135082485195 0
-2.6519773605839486e-06 -0.04379113186896149 0
-2.6877250982530328e-06 -0.044588809647282734 0
-2.7271685688843107e-06 -0.045465456221550626 0
-2.8326550558821862e-06 -0.046436294559212811 0
-2.849072382972542e-06 -0.047522057221541229 0
-2.8614568217422571e-06 -0.048742905847670902 0
-3.0269826884622262e-06 -0.050123747812435976 0
-3.1551291882748347e-06 -0.051694040695915801 0
-3.1317993498738961e-06 -0.053490968283324156 0
-3.2734709692412448e-06 -0.055562377499998351 0
-3.4232506443506153e-06 -0.057970130549992699 0
-3.5829812387277802e-06 -0.060804702066290794 0
-3.7292798660389864e-06 -0.06420082715297136 0
-3.907599927535888e-06 -0.068390342227485523 0
-4.0955673816802881e-06 -0.073964193566650821 0
-4.3133939218557239e-06 -0.082952742145070715 0
-8.1744041346237767e-07 -0.038523574513687306 0
-8.7752088037203921e-07 -0.039187746855514217 0
-9.2127839244622145e-07 -0.039705278193533713 0
-9.4942115938742499e-07 -0.04020745141148295 0
-9.7050879065774478e-07 -0.040717378765161766 0
-1.0078297041089711e-06 -0.041252020611275662 0
-1.0705186030829285e-06 -0.041822401246246595 0
-1.1329470390078662e-06 -0.042438090796165229 0
-1.1738864764038742e-06 -0.043107266784165724 0
-1.2048223645190204e-06 -0.043838072713550121 0
-1.2524652527521826e-06 -0.044638946074652179 0
-1.3104051488827106e-06 -0.045518745421028448 0
-1.3328527116464988e-06 -0.04649323070008983 0
-1.3256623983462781e-06 -0.047582734140946333 0
-1.3157053615939004e-06 -0.048807956145153229 0
-1.3622952754423022e-06 -0.050194137353941549 0
-1.4072676381280273e-06 -0.05177129908930754 0
-1.4471317205573866e-06 -0.053575516598605842 0
-1.4769076963940554e-06 -0.055654452342097135 0
-1.5415732701694316e-06 -0.058069638392524311 0
-1.6151864276624545e-06 -0.060913041224608395 0
-1.6557953308087448e-06 -0.064318930053280862 0
-1.6763543644985786e-06 -0.068518644308811216 0
-1.7913723600071327e-06 -0.074104107177772383 0
-1.8721055118000487e-06 -0.083107147971718712 0
-3.3990980834753161e-07 -0.038536272952111844 0
-3.918360600398277e-07 -0.039201738817884961 0
-4.2160407545858181e-07 -0.039720289827592993 0
-4.6041174725307292e-07 -0.040223481110616223 0
-4.8323521806545695e-07 -0.040734394341070061 0
-5.4410269664484284e-07 -0.04127004384280749 0
-5.4553256460106419e-07 -0.041841470109728343 0
-5.9421476512686579e-07 -0.042458233502410771 0
-6.277603134935432e-07 -0.043128585406599487 0
-6.5546378387552706e-07 -0.043860513226270152 0
-6.9852167686874698e-07 -0.044662749430754628 0
-7.2157421962877191e-07 -0.045543995458770872 0
-7.5019894647459798e-07 -0.046520006557701034 0
-8.4936486344610768e-07 -0.047611524610394834 0
-8.2269065242665679e-07 -0.048838915986582111 0
-8.3232908035658762e-07 -0.050227221239537698 0
-7.8615418978502753e-07 -0.051805486154688454 0
-7.9048094812157106e-07 -0.053611379333424747 0
-8.8988686643403604e-07 -0.055692832409381915 0
-8.6358427859661477e-07 -0.058111647696049297 0
-9.399185215816923e-07 -0.060958437518225002 0
-9.4934338546501188e-07 -0.064367788160922992 0
-1.005214671356799e-06 -0.068571530190591173 0
-9.8338246543507869e-07 -0.074161347189062712 0
-9.8125108502624272e-07 -0.083168987783997214 0
-5.4248167324457262e-07 -0.038541841008074784 0
-5.6835406484674766e-07 -0.039207993733592655 0
-5.4145740882569142e-07 -0.039726944897044106 0
-5.6769215427750112e-07 -0.040230431690615152 0
-6.6023117008076643e-07 -0.040741692129120585 0
-6.8865370661329628e-07 -0.041277739548216091 0
-6.6628860913597447e-07 -0.04184954124572568 0
-6.9406473822172627e-07 -0.042466709599427582 0
-7.1496128221444204e-07 -0.043137308353249477 0
-6.415986606897377e-07 -0.043869583113859807 0
-6.9111153819462897e-07 -0.044672222646323888 0
-7.6182890677068573e-07 -0.045553787617220245 0
-9.5095804801427902e-07 -0.046530162415656003 0
-9.5612744773656162e-07 -0.047622484572668801 0
-9.1159500971698669e-07 -0.048850604891196102 0
-9.4571643571743501e-07 -0.050239733631364226 0
-9.5158497749174768e-07 -0.051819012287917916 0
-9.7045891351007583e-07 -0.053625000340206473 0
-9.8415713981441317e-07 -0.055707219466554769 0
-9.2266947303921052e-07 -0.058127155182918153 0
-9.2460588614503615e-07 -0.060975029321541648 0
-9.197356190147804e-07 -0.06438560079654719 0
-8.9084847378018138e-07 -0.068591078039506231 0
-8.3107480452435177e-07 -0.074184630568298757 0
-8.4321226819719717e-07 -0.083191796707409879 0
5.3510000436956009e-08 -0.038543656843330082 0
7.7939768733963989e-08 -0.039209819137329946 0
9.1397786526284917e-08 -0.039728871636734525 0
9.4831776249239186e-08 -0.040232528747146667 0
9.7135047322332619e-08 -0.040743966870920266 0
9.0610409909789331e-08 -0.041280069594358884 0
1.0471439482095624e-07 -0.041851956358840148 0
-4.1482872005569911e-08 -0.042468970185664437 0
4.6760784602874431e-08 -0.043139708314924925 0
-9.5291031879131879e-08 -0.043872047853558492 0
3.9085066334486637e-08 -0.044674955514053025 0
1.7085291231599721e-07 -0.04555681239995342 0
1.8028348449452582e-07 -0.046533202528388266 0
1.1336425878601552e-07 -0.04762556416847958 0
1.1524616847403215e-07 -0.048854069653077786 0
3.8312787561040169e-08 -0.050242735748836309 0
4.4572373856790946e-08 -0.051821615601450613 0
-6.6166312252248349e-08 -0.053628214242182094 0
-4.984279143288773e-08 -0.055710429402152178 0
-8.8782299801046873e-08 -0.0581302550599423 0
-1.2916806105082972e-07 -0.060977679809663572 0
-1.5017311311226187e-07 -0.064386940259112568 0
-1.6283142982463557e-07 -0.068589708438301047 0
-1.7590531742193374e-07 -0.074184478664218123 0
-2.0858342012588344e-07 -0.083193928039636156 0
4.1598032488175061e-07 -0.038541289655858693 0
4.3432193491558667e-07 -0.039207292215726129 0
4.7426389004563177e-07 -0.039726233764050482 0
4.3463430680410524e-07 -0.040229724051035039 0
4.6623470225858441e-07 -0.04074109761029257 0
4.6139544208461496e-07 -0.041277111940429691 0
4.8456544157171207e-07 -0.041848787698196832 0
4.9222445554754339e-07 -0.042465952277925649 0
5.9379537641318383e-07 -0.043136942459606677 0
2.5668319652661202e-07 -0.043868856112869774 0
5.0688109228596106e-07 -0.044671611480311464 0
4.9975836733839996e-07 -0.045553368960947825 0
4.2585819669406388e-07 -0.046530410482094664 0
6.0325208276723941e-07 -0.04762267311813561 0
5.9941745409684925e-07 -0.048850855188155497 0
4.0972466377047093e-07 -0.050239291237164273 0
3.4266739737509691e-07 -0.051818062611292758 0
3.1032152612971237e-07 -0.05362424116367262 0
2.3093210270480417e-07 -0.055706130335778703 0
2.2864952928092966e-07 -0.058125588094628866 0
1.9841899669163767e-07 -0.060972614971048701 0
1.6297221735497907e-07 -0.064381381425493406 0
1.3966480148273333e-07 -0.068583269105230799 0
1.2599372942954317e-07 -0.074176778969443052 0
9.8049951820973306e-08 -0.083185954086244351 0
2.0665571894357575e-07 -0.03853557872068189 0
2.2745968865352436e-07 -0.039200988007344957 0
1.8615997109109794e-07 -0.039719530253381437 0
1.9159307209144164e-07 -0.040222583213717737 0
1.8553970673345634e-07 -0.040733370443793757 0
2.159693201891164e-07 -0.041269084775029025 0
2.3331522198818789e-07 -0.041840674720906031 0
2.624873097262731e-07 -0.042457288930463882 0
2.2880365473569195e-07 -0.043127394994751989 0
2.003025728245389e-07 -0.043859227282001832 0
3.7929559845712127e-07 -0.044661055714342555 0
4.1405084878535983e-07 -0.045542320298372921 0
2.9292036401262476e-07 -0.046518698714928898 0
2.3809170305832501e-07 -0.047610201240124682 0
2.8710682938780246e-07 -0.048837459873243623 0
3.3805392039674861e-07 -0.050225214796843103 0
3.6087637038252527e-07 -0.051802794687124377 0
4.0939840103376397e-07 -0.053608483878488628 0
4.505364813812993e-07 -0.055689530586179994 0
5.1087658866452905e-07 -0.05810782004558656 0
5.9537576016503802e-07 -0.060953750428302589 0
6.4107973369376991e-07 -0.064362158586857898 0
7.1192812873774514e-07 -0.068565960930228959 0
8.0821743581926761e-07 -0.074155054724631103 0
8.5745799922147301e-07 -0.083162542378040535 0
6.7962195773744038e-07 -0.038522896195176085 0
7.3278625310209722e-07 -0.039187034428515732 0
7.5239502566024126e-07 -0.039704554485608688 0
7.6678623078104435e-07 -0.040206696669937619 0
7.7018652912558386e-07 -0.040716530710031125 0
8.1102419985302904e-07 -0.041251166757703531 0
7.4537836005927754e-07 -0.041821606608825043 0
7.8735798589811075e-07 -0.042437148669712335 0
8.4788372421164336e-07 -0.043106441765339933 0
8.6732531704025681e-07 -0.043836908765905278 0
1.1180760244103059e-06 -0.044637672921108353 0
1.1008622861365399e-06 -0.045517460432962502 0
1.2341605730509821e-06 -0.046491830003740908 0
1.0204986665926963e-06 -0.047581392755110224 0
1.2802802851627722e-06 -0.048806611708476347 0
1.3523983484386874e-06 -0.050192109963622743 0
1.475490941767221e-06 -0.051767050473159319 0
1.4562876878998023e-06 -0.053570833954601618 0
1.5321756444555219e-06 -0.055649169600352232 0
1.5555117112138155e-06 -0.058063347928816025 0
1.6820381606043382e-06 -0.060905562863906679 0
1.7502981964007165e-06 -0.064310359678406218 0
1.813900419368686e-06 -0.068516636175879372 0
1.9416865532059745e-06 -0.074099253720161393 0
1.9940755747481802e-06 -0.083101554945700262 0
1.8205220016119312e-06 -0.038497189978126609 0
1.9785242070393752e-06 -0.039158630762151224 0
2.0890846313439355e-06 -0.039674068419352039 0
2.1793343145384497e-06 -0.040174217716115207 0
2.2362644375804265e-06 -0.040682082822248049 0
2.338074211866141e-06 -0.041214583477247796 0
2.3998816167278494e-06 -0.041782382522336875 0
2.4317869615231371e-06 -0.042395723596271771 0
2.4511382834101607e-06 -0.043062942110956043 0
2.5372814933775708e-06 -0.043790183095229376 0
2.5947706820582829e-06 -0.044587911789565712 0
2.6571053846677914e-06 -0.045464379966891094 0
2.7822972618587387e-06 -0.04643496841251471 0
2.9026962402017616e-06 -0.047520416105819731 0
2.9991396172590386e-06 -0.048741212400663904 0
3.0870994224097559e-06 -0.050121739925817851 0
3.1431083352406885e-06 -0.051691366141617796 0
3.2329087401430926e-06 -0.053488078224210804 0
3.3879866259060263e-06 -0.055559037833539368 0
3.5169201751267502e-06 -0.057966016877961837 0
3.6287156200112926e-06 -0.060799430319942172 0
3.790709589605894e-06 -0.064194434659604921 0
3.8089275969520911e-06 -0.068387119114270589 0
3.9521720038255177e-06 -0.073960689505175162 0
4.0718803489747903e-06 -0.08294843229831457 0
4.6235936654105512e-06 -0.038452064695466935 0
4.9931090421903402e-06 -0.039108847002483405 0
5.2665281717423483e-06 -0.039620558554698232 0
5.429491545097222e-06 -0.040116913659539601 0
5.6202988648255e-06 -0.040620669465740257 0
5.8161879040961819e-06 -0.041148708001863217 0
5.9850144577492816e-06 -0.041711705083076152 0
6.1169810972748279e-06 -0.042319828980650016 0
6.2070447305808548e-06 -0.042980562347344271 0
6.411774071051474e-06 -0.043701868757358854 0
6.5426655578864102e-06 -0.044492358879607084 0
6.7366766311748723e-06 -0.045360585184495615 0
6.8400012732268282e-06 -0.046321861570443622 0
6.8076664330420541e-06 -0.047396495898442283 0
6.990514117185876e-06 -0.048604995061388656 0
7.1570376905870306e-06 -0.049971307003466844 0
7.329909826316591e-06 -0.051524716020556603 0
7.5117933462573396e-06 -0.053302957941237669 0
7.7093659005851285e-06 -0.055353377955823485 0
7.9218282223328443e-06 -0.057737541030220371 0
8.1615671976334488e-06 -0.060545430270742419 0
8.4138670982374131e-06 -0.063912326349701884 0
8.6972102194631138e-06 -0.068071283416883552 0
9.0083452104542241e-06 -0.073610613218549031 0
9.3858760611257671e-06 -0.082556678710808629 0
1.2130691089617149e-05 -0.038369851538386283 0
1.2976461854388624e-05 -0.039021839010269149 0
1.3556617623278565e-05 -0.039529030269878244 0
1.4063828215647049e-05 -0.040020460859003355 0
1.4495009889895559e-05 -0.040518766102869988 0
1.4885861817508854e-05 -0.041040393034575198 0
1.5190015959699716e-05 -0.041596253726078836 0
1.5460180146779727e-05 -0.042195535070388909 0
1.590283733593525e-05 -0.042845590998732197 0
1.6044380527383513e-05 -0.043554557121108145 0
1.6278340203265548e-05 -0.044330237984181599 0
1.6383946565043282e-05 -0.045180879524984431 0
1.6650605645093008e-05 -0.046120981667345941 0
1.6948182883799079e-05 -0.047170324039790996 0
1.7355266025911375e-05 -0.048348513357542609 0
1.759887180568071e-05 -0.049679170199333968 0
1.7907157193162956e-05 -0.051190600648072834 0
1.8080562178920901e-05 -0.05292005202780907 0
1.8375927735903399e-05 -0.054914293364176622 0
1.8663559733734386e-05 -0.05723409591613491 0
1.8929571505806209e-05 -0.059968130583955392 0
1.926215200157939e-05 -0.063253348282580113 0
1.9659849707971972e-05 -0.067324829449715282 0
1.9965424873501415e-05 -0.072769637118618002 0
2.0317807489575811e-05 -0.081602256941242443 0
2.0866412783797784e-05 -0.038132667254043684 0
2.1994816631293448e-05 -0.038733974401789051 0
2.2806883939048745e-05 -0.039201499672971173 0
2.3549599542015373e-05 -0.039670499654385426 0
2.4236081796702888e-05 -0.04015489542088381 0
2.4871787704261718e-05 -0.04066631173531228 0
2.5482990257209028e-05 -0.04121353025216988 0
2.6062339687234659e-05 -0.041803670340608556 0
2.6614456609369496e-05 -0.042443067754920592 0
2.7125910751288562e-05 -0.043139316075376473 0
2.7578916997570416e-05 -0.043899946441543408 0
2.7970403783252394e-05 -0.044732680923391041 0
2.832592980333844e-05 -0.045651712006120698 0
2.8620785699298463e-05 -0.04667619020770121 0
2.8903306947202231e-05 -0.04782632975605456 0
2.9176222441257142e-05 -0.049125364614652341 0
2.9468620550147261e-05 -0.050602369702631614 0
2.9787120272399006e-05 -0.052294608502865852 0
3.0145149913475378e-05 -0.054250724653680707 0
3.0540530671466896e-05 -0.056530408020024583 0
3.0996471326518144e-05 -0.059229943704968334 0
3.1537419345718299e-05 -0.062497698687806851 0
3.2167468759579769e-05 -0.066570684700387517 0
3.2941708361505658e-05 -0.071990048442120855 0
3.411793127795899e-05 -0.080576842188587697 0
-0 -0 0
-0 -0 0
-0 -0 0
-0 -0 0
-0 -0 0
-0 -0 0
2.013154993861259e-05 0.035416532276958262 0
2.4548489147057825e-05 0.04021601993870727 0
2.8675166085407331e-05 0.046748226022664416 0
-0 -0 0
-0 -0 0
-0 -0 0
2.2976490081865686e-05 0.039079158275934063 0
2.5009900296830569e-05 0.041212904555170467 0
2.8230105950273537e-05 0.047343313907980897 0
-0 -0 0
-0 -0 0
-0 -0 0
1.8033332574038023e-05 0.039239740048625335 0
2.0080298946050854e-05 0.041377885508587717 0
2.2845811373412836e-05 0.047517097777279499 0
-0 -0 0
-0 -0 0
-0 -0 0
9.5747757046974429e-06 0.039411988006752295 0
1.0736120833960801e-05 0.041561685579848635 0
1.2380372894674486e-05 0.047768343359270445 0
-0 -0 0
-0 -0 0
-0 -0 0
3.7594191799747572e-06 0.039481836771332865 0
4.2874337803346085e-06 0.04165108718887324 0
5.0683642226558996e-06 0.047925437435564738 0
-0 -0 0
-0 -0 0
-0 -0 0
1.5151862601451929e-06 0.03952185140471675 0
1.7374102897724392e-06 0.041702058792392943 0
2.1011604490428754e-06 0.048008478007467485 0
-0 -0 0
-0 -0 0
-0 -0 0
6.4555197574377727e-07 0.039543492051707568 0
7.871719254116998e-07 0.041729073415280038 0
1.0178450700639561e-06 0.048048753829437241 0
-0 -0 0
-0 -0 0
-0 -0 0
5.0085787429208578e-07 0.03955385598190185 0
6.1410039614589924e-07 0.041741794246951451 0
8.0194596817329054e-07 0.048066637576487006 0
-0 -0 0
-0 -0 0
-0 -0 0
2.4229681599586122e-07 0.039558089989896517 0
2.7937671875302104e-07 0.041746755120446372 0
3.7629675136636157e-07 0.048073121196528214 0
-0 -0 0
-0 -0 0
-0 -0 0
-3.1327100142946691e-07 0.039557776017098041 0
-3.3480978029931123e-07 0.041746452368487147 0
-3.0349896767458455e-07 0.048072924470600339 0
-0 -0 0
-0 -0 0
-0 -0 0
-3.783391109264256e-07 0.039553174810660015 0
-4.2546085110731422e-07 0.041741046070607822 0
-4.6233121693115566e-07 0.048065747248996066 0
-0 -0 0
-0 -0 0
-0 -0 0
-5.6651159773778383e-07 0.039542723617952392 0
-6.6683133479332467e-07 0.041728202543986383 0
-8.780016344005046e-07 0.048047283334664549 0
-0 -0 0
-0 -0 0
-0 -0 0
-1.466276458903072e-06 0.039520896113565226 0
-1.7136928993801318e-06 0.04170112887650148 0
-2.1607065680977595e-06 0.048007135743868251 0
-0 -0 0
-0 -0 0
-0 -0 0
-3.5360964885130083e-06 0.03948078665585205 0
-4.0745208337852675e-06 0.041650201074008665 0
-4.8878745766886034e-06 0.047924781573873899 0
-0 -0 0
-0 -0 0
-0 -0 0
-9.0638420938775791e-06 0.039411262095181171 0
-1.0149001673767972e-05 0.041561163538255286 0
-1.1712139915589335e-05 0.047768455786044078 0
-0 -0 0
-0 -0 0
-0 -0 0
-1.7405122159891615e-05 0.03923948300962838 0
-1.934428851359216e-05 0.041377813481725492 0
-2.1978213978175631e-05 0.047517631593676862 0
-0 -0 0
-0 -0 0
-0 -0 0
-2.2370130315197985e-05 0.039079103378847853 0
-2.4318152108213439e-05 0.041212946489729063 0
-2.7402547912730929e-05 0.047343996985348448 0
-0 -0 0
-0 -0 0
-0 -0 0
-1.9609297146577802e-05 0.035415701498466429 0
-2.3889078580056864e-05 0.040215856414363385 0
-2.785257176676023e-05 0.046748878006603642 0
-0 -0 0
-0 -0 0
-0 -0 0
-0 -0 0
-0 -0 0
-0 -0 0
-0 -0 0
-0 -0 0
-0 -0 0
-0 -0 0
-0 -0 0
-0 -0 0
-0 -0 0
-0 -0 0
-0 -0 0
-0 -0 0
-0 -0 0
-0 -0 0
-0 -0 0
-0 -0 0
-0 -0 0
-0 -0 0
-0 -0 0
-0 -0 0
-0 -0 0
-0 -0 0
-0 -0 0
-0 -0 0
-0 -0 0
-0 -0 0
-0 -0 0
-0 -0 0
-0 -0 0
-0 -0 0
-0 -0 0
-0 -0 0
-0 -0 0
-0 -0 0
-0 -0 0
-0 -0 0
-0 -0 0
-0 -0 0
-0 -0 0
-0 -0 0
-0 -0 0
-0 -0 0
-0 -0 0
-0 -0 0
-0 -0 0
-0 -0 0
-0 -0 0
-0 -0 0
-0 -0 0
-0 -0 0
-0 -0 0
-0 -0 0
-0 -0 0
-0 -0 0
-0 -0 0
-0 -0 0
-0 -0 0
-0 -0 0
-0 -0 0
-0 -0 0
-0 -0 0
-0 -0 0
-0 -0 0
-0 -0 0
-0 -0 0
-0 -0 0
-0 -0 0
-0 -0 0
-0 -0 0
-0 -0 0
-0 -0 0
-0 -0 0
-0 -0 0
-0 -0 0
-0 -0 0
-0 -0 0
-0 -0 0
-0 -0 0
-0 -0 0
-0 -0 0
-0 -0 0
-0 -0 0
-0 -0 0
-0 -0 0
-0 -0 0
-0 -0 0
-0 -0 0
-0 -0 0
-0 -0 0
-0 -0 0
-0 -0 0
-0 -0 0
-0 -0 0
-0 -0 0
-0 -0 0
-0 -0 0
-0 -0 0
-0 -0 0
-0 -0 0
-0 -0 0
-0 -0 0
-0 -0 0
-0 -0 0
-0 -0 0
-0 -0 0
-0 -0 0
-0 -0 0
-0 -0 0
-0 -0 0
-0 -0 0
-0 -0 0
-0 -0 0
-0 -0 0
-0 -0 0
-0 -0 0
-0 -0 0
-0 -0 0
-0 -0 0
-0 -0 0
-0 -0 0
-0 -0 0
-0 -0 0
-0 -0 0
-0 -0 0
-0 -0 0
-0 -0 0
-0 -0 0
-0 -0 0
-0 -0 0
-0 -0 0
-0 -0 0
-0 -0 0
-0 -0 0
-0 -0 0
-0 -0 0
-0 -0 0
-0 -0 0
-0 -0 0
-0 -0 0
-0 -0 0
-0 -0 0
-0 -0 0
-0 -0 0
-0 -0 0
-0 -0 0
-0 -0 0
-0 -0 0
-0 -0 0
-0 -0 0
-0 -0 0
-0 -0 0
-0 -0 0
-0 -0 0
-0 -0 0
-0 -0 0
-0 -0 0
-0 -0 0
-0 -0 0
-0 -0 0
-0 -0 0
-0 -0 0
-0 -0 0
-0 -0 0
-0 -0 0
-0 -0 0
-0 -0 0
-0 -0 0
-0 -0 0
-0 -0 0
-0 -0 0
-0 -0 0
-0 -0 0
-0 -0 0
-0 -0 0
-0 -0 0
-0 -0 0
-0 -0 0
-0 -0 0
-0 -0 0
-0 -0 0
-0 -0 0
-0 -0 0
-0 -0 0
-0 -0 0
-0 -0 0
-0 -0 0
-0 -0 0
-0 -0 0
-0 -0 0
-0 -0 0
-0 -0 0
