# vtk DataFile Version 3.0
SPH particles (WCSPH) - legacy PolyData
ASCII
DATASET POLYDATA
POINTS 681 float
0.049989913123484817 0.022540994532073935 0
0.049988500832245361 0.024882020227126447 0
0.049987385946112343 0.026736343357531781 0
0.049986323043608692 0.028584166575760805 0
0.049985360690539764 0.03040497783151163 0
0.049984493114746099 0.03219320706774853 0
0.049983731874306825 0.033952633385969586 0
0.049982888234803638 0.035690822831913514 0
0.049981865845848648 0.037416586799013087 0
0.049980467039302756 0.039139250209329936 0
0.049978297390266511 0.040868396791237382 0
0.049975629326553479 0.042613902125803196 0
0.049974431941171606 0.044386207132799539 0
0.049975552450996941 0.04619650281141173 0
0.049977866549310308 0.048056525693394886 0
0.049980741255679903 0.049979190278105948 0
0.049983673002537671 0.051980364549927174 0
0.049986533041299047 0.054090762482127928 0
0.049989171027484486 0.056337811690694503 0
0.049991448797353212 0.058759504364068779 0
0.049993368057431375 0.061420210252063914 0
0.049994953695467734 0.064387539194167551 0
0.049996278795581543 0.067777671881547721 0
0.049997429028310524 0.071903397798072199 0
0.049999414215163657 0.078101123215179813 0
0.069994568088500408 0.020939663750904683 0
0.069993726875384715 0.023571610365147988 0
0.069993031931893337 0.025691077959421101 0
0.069992397265099426 0.027752901470154228 0
0.069991823121770061 0.029749711043376786 0
0.06999125661525131 0.031686479121376385 0
0.069990690455335319 0.033574789403704182 0
0.069990114491437175 0.035428002600462492 0
0.069989454706960871 0.037258873583868257 0
0.069988496966761862 0.039079648948671199 0
0.069986767760377447 0.040902173800423595 0
0.06998408480046911 0.042738144764832203 0
0.069982399857347624 0.044599571215815724 0
0.069982615799163789 0.046499272532583659 0
0.069984138217579248 0.048451034175705558 0
0.069986289649913186 0.050469072028340979 0
0.069988538987447724 0.052569025461482545 0
0.069990791087401485 0.054779994211415703 0
0.069992739808581034 0.057132434181762101 0
0.069994360113494275 0.059668165032495946 0
0.069995714156896399 0.06244778450685097 0
0.069996802622054682 0.065555244226936205 0
0.06999767337534539 0.069133904026264958 0
0.069998388123777636 0.073526439315499653 0
0.069999583151344136 0.080030255202159575 0
0.089997924775442981 0.020859086930451475 0
0.089997557477531187 0.023497284020327736 0
0.089997303725246336 0.02562310637847583 0
0.089996994576515568 0.0276944062066697 0
0.089996690029374937 0.029702788491165564 0
0.089996436511587299 0.03165255560733081 0
0.089995969672758747 0.033555137084550719 0
0.089995738924432467 0.035423692617438204 0
0.089995415105444412 0.03727098768044193 0
0.089995055026096366 0.039109313684564065 0
0.089994658444068273 0.040950534542781358 0
0.089993900537858634 0.04280650967258734 0
0.089992995527420516 0.044689333113362123 0
0.089992603979782898 0.046611950205528239 0
0.089993106934435435 0.048588741511960708 0
0.089993969115802624 0.050635988598325861 0
0.089994950853373848 0.05277050058057816 0
0.089995876261708282 0.055012981022972918 0
0.089996681196339731 0.057396921989965544 0
0.089997345664779932 0.059964446963991495 0
0.089997914038348836 0.062774221024176291 0
0.089998395348467805 0.065916059318326836 0
0.089998794514043079 0.069535905005863236 0
0.089999139130662986 0.073971138972655004 0
0.089999769802954141 0.080530419528977465 0
0.10999934943762359 0.020875050911038393 0
0.10999916348006758 0.02351444045973056 0
0.10999902190469138 0.025641608621116682 0
0.10999887491172573 0.027714671114040811 0
0.10999873336165775 0.02972520332641693 0
0.10999872187869657 0.031677448626322435 0
0.10999874243413443 0.033582864401216959 0
0.10999865817516195 0.035454524315706476 0
0.10999858398796797 0.037305194365729849 0
0.10999846804474279 0.039147232230689798 0
0.10999825418449508 0.04099255445367652 0
0.10999847131930197 0.042853024268506117 0
0.10999785535128079 0.044740733787514531 0
0.10999732958342963 0.046668746914758558 0
0.10999736323393636 0.04865141769755265 0
0.10999762608289665 0.050705220361287349 0
0.10999791983953222 0.05284816408023478 0
0.10999834354139676 0.055098180591458268 0
0.10999864708247029 0.057489681070916843 0
0.1099989005993551 0.060064523861965473 0
0.10999910922524166 0.062882878805255574 0
0.10999929793545028 0.066035252891639709 0
0.10999944945165127 0.069664865205376708 0
0.10999959344140396 0.074108630401328091 0
0.10999988642960755 0.080679080206159215 0
0.12999988071547847 0.020887049215744427 0
0.12999985967989131 0.023527673880887789 0
0.12999984186162186 0.025655787839302932 0
0.12999983573157689 0.027729775139329307 0
0.12999989108700793 0.029741180837838159 0
0.12999994457967415 0.031694343176078874 0
0.12999998520738493 0.033600755261469842 0
0.13000001583656107 0.035473394263313106 0
0.13000007832494387 0.037325133796506871 0
0.13000019153670428 0.03916828514154036 0
0.13000025735998891 0.041014768115523847 0
0.13000012158330418 0.042876499485200413 0
0.12999985624646498 0.04476570756474943 0
0.12999957146733049 0.046695193857817612 0
0.12999936568754228 0.048679557134034206 0
0.12999925689256173 0.050735145996497644 0
0.1299993432364053 0.052879956641407634 0
0.12999945652272596 0.055131911160985883 0
0.12999955115120723 0.057525443870298468 0
0.12999963089980143 0.060102310943305211 0
0.12999969854583446 0.062923062195219107 0
0.12999975022762311 0.066078069942616238 0
0.12999980733597075 0.06970949417149834 0
0.12999986445792627 0.074153872875790353 0
0.12999995796800182 0.080725880040827772 0
0.15000017911913538 0.02089262255321683 0
0.15000020944044837 0.023533867438169286 0
0.15000024914740948 0.025662468189039774 0
0.1500003027158012 0.027736919204636352 0
0.15000047204119446 0.029748758648835992 0
0.1500005139501506 0.03170229856326251 0
0.15000051132731165 0.033609066646353526 0
0.15000054019695663 0.035482111871584052 0
0.15000058942603345 0.037334250712632279 0
0.15000064347201453 0.039177806211700118 0
0.15000072460933558 0.041024736742519351 0
0.15000059893878731 0.042886900697980131 0
0.15000055558276801 0.044776631271268172 0
0.15000034844978324 0.0467066987852469 0
0.15000014105355269 0.048691588810914371 0
0.15000001790915396 0.050747765536728356 0
0.14999996501730711 0.052893157064720329 0
0.14999996543228905 0.05514569940348675 0
0.14999997944851909 0.057539871645367016 0
0.14999998954329138 0.060117375775963183 0
0.14999997420674371 0.062938721579557474 0
0.14999998048875735 0.066094199605187462 0
0.14999999737646272 0.06972573157535282 0
0.15000000477297665 0.0741694535976678 0
0.15000000150214318 0.080741091657255529 0
0.17000036378971484 0.020894967218242636 0
0.17000043881989341 0.023536473023115231 0
0.17000047902117552 0.025665265479056152 0
0.17000060872797215 0.027739858993616511 0
0.1700006922160561 0.029751824032680344 0
0.17000082809435252 0.0317055389457081 0
0.17000102351281998 0.033612504289457119 0
0.17000108381703366 0.035485705003561928 0
0.17000112101585757 0.037337968076879884 0
0.17000114909860639 0.039181661206439677 0
0.17000114972170235 0.041028761495468698 0
0.17000104448616005 0.042891135222764734 0
0.170001030770082 0.044781028774742881 0
0.1700010193041793 0.046711200109681099 0
0.17000057960201534 0.048696286113186819 0
0.17000043218845948 0.050752689778095231 0
0.17000032545137139 0.052898308252001244 0
0.17000025935771304 0.055151055817107719 0
0.17000021447730851 0.057545432042255575 0
0.17000018210928136 0.060123115876643624 0
0.17000012391234762 0.062944623116287873 0
0.17000008958156759 0.066100164760609079 0
0.17000006603504839 0.06973156122793156 0
0.17000005195736861 0.074174732622302925 0
0.17000002539153189 0.08074592640234679 0
0.19000030180473149 0.020895616305151663 0
0.19000034283776548 0.023537161599644349 0
0.19000051307015156 0.025666092430422536 0
0.19000056521439368 0.027740701434933193 0
0.19000066446110489 0.029752680932410246 0
0.19000087387652553 0.031706483167549995 0
0.1900010836733112 0.033613414078024519 0
0.19000107544600878 0.035486566039220235 0
0.19000113255687567 0.037338837179059794 0
0.19000116681129786 0.039182580326765602 0
0.19000104189377942 0.04102970009528166 0
0.19000107840349231 0.042892157312782495 0
0.19000076668362703 0.04478210477749648 0
0.19000068406378209 0.046712391967699024 0
0.19000063068118606 0.0486975235445814 0
0.19000044686379425 0.050753982572846267 0
0.1900003967175625 0.052899658876280065 0
0.19000039199209742 0.055152460026170129 0
0.19000032395355382 0.057546885011333204 0
0.19000036327288572 0.060124627540455014 0
0.19000029355978709 0.062946165282998193 0
0.19000021594413011 0.066101723100427404 0
0.19000013286076836 0.069733062228900508 0
0.19000009105168589 0.074176049080374853 0
0.19000004236996229 0.080747070432405449 0
0.21000035362608882 0.020895029205964935 0
0.210000436963862 0.023536508759281694 0
0.21000049672393239 0.025665291233932973 0
0.21000056033065859 0.027739913691446221 0
0.21000066194198486 0.029751882705958271 0
0.21000069032504234 0.031705608242868256 0
0.21000078579840861 0.033612555650112508 0
0.21000081928090014 0.035485749323718424 0
0.21000088224095573 0.03733803219576743 0
0.210000917957267 0.039181759285071449 0
0.21000089349496323 0.041028849907566299 0
0.21000085319267126 0.042891208406078081 0
0.21000068159367011 0.044781052707901205 0
0.21000053343942318 0.046711261473128408 0
0.21000051854796911 0.04869635847000952 0
0.21000042726636531 0.05075272259677556 0
0.21000039471003071 0.052898355150724434 0
0.21000044023692607 0.055151107836698209 0
0.2100002757294642 0.057545491253994698 0
0.21000023931534598 0.06012320584944237 0
0.21000020418602047 0.062944710006310842 0
0.21000018796267941 0.066100284694523601 0
0.21000013971240486 0.069731689053642257 0
0.21000010429553886 0.07417486723178042 0
0.21000004902619918 0.080746034500566347 0
0.23000043125932781 0.020892701443669462 0
0.23000051372407371 0.023533983877367593 0
0.23000059455776298 0.025662601755320289 0
0.23000067605171612 0.02773700316730392 0
0.23000080335703749 0.029748875036735224 0
0.23000089060585754 0.031702425403862124 0
0.23000098329297206 0.033609221610660003 0
0.23000103142124428 0.035482252929913194 0
0.23000115857169454 0.037334387731546848 0
0.23000123765855437 0.039177932036206675 0
0.23000125398295124 0.041024866260228415 0
0.23000107936059488 0.042887089609178287 0
0.2300009011025923 0.044776799357975343 0
0.23000081526463317 0.046706816272968806 0
0.23000080379154386 0.048691680732342285 0
0.23000073591276674 0.050747867461586604 0
0.23000063675385393 0.052893292302169027 0
0.23000053345215821 0.055145864633244585 0
0.23000049247160459 0.057540036716137187 0
0.23000041295008344 0.060117561868203648 0
0.23000034378921819 0.062938911923886745 0
0.23000028178874901 0.066094402927317747 0
0.23000022496868069 0.069725928831781692 0
0.2300001734082833 0.074169639526409897 0
0.23000005809619858 0.080741267563313956 0
0.2500006113585948 0.020887066342733688 0
0.25000072645530758 0.02352769906306269 0
0.25000080956799697 0.02565587780807586 0
0.25000094183052951 0.027729911999301346 0
0.25000105330628136 0.029741331380016795 0
0.25000116402241868 0.031694505484956496 0
0.25000121233447259 0.033600946769753774 0
0.25000136760047692 0.035473611059995837 0
0.25000145713981414 0.037325360320268397 0
0.25000157389509658 0.039168480392785046 0
0.2500016462375903 0.041014981755738714 0
0.25000157064291662 0.042876724055427536 0
0.25000144343725483 0.044765988451944801 0
0.25000160362661067 0.046695442994421542 0
0.25000148786318327 0.048679799437009272 0
0.25000140123187259 0.05073542799902038 0
0.25000122544989367 0.05288025786809783 0
0.25000101480079584 0.05513219805592641 0
0.25000085127756749 0.057525714224195078 0
0.25000071433850513 0.060102585979924399 0
0.25000058609279158 0.062923337018048642 0
0.25000046855491609 0.066078328030081901 0
0.25000036761763811 0.06970974714424194 0
0.25000027612249792 0.07415410433378164 0
0.25000008198159618 0.080726139142270725 0
0.2700009927147638 0.020875094338773 0
0.27000119024126273 0.023514498303654281 0
0.27000133291066475 0.025641682130138489 0
0.27000149330951329 0.027714775795078601 0
0.27000178348833842 0.029725359801265019 0
0.27000194847134112 0.03167763455877548 0
0.27000211751597536 0.033583145271082297 0
0.27000231318474971 0.035454824020900062 0
0.27000252262482966 0.037305518453804157 0
0.27000272944959519 0.039147559453028197 0
0.27000294505699446 0.040992848799430506 0
0.27000303365943867 0.042853282939423108 0
0.2700034922347157 0.044741019929404297 0
0.27000344760209077 0.046669004909436762 0
0.2700032736823666 0.048651691563898654 0
0.27000292362287609 0.05070554063785615 0
0.27000248173077229 0.052848520562398291 0
0.27000203172080511 0.055098552557266714 0
0.27000167126109897 0.057490014403698018 0
0.27000137501555749 0.060064848686457159 0
0.27000111267111787 0.062883210723239519 0
0.27000088684353646 0.066035582128675538 0
0.27000068630866148 0.069665200008994441 0
0.27000050764669103 0.074108959197612137 0
0.27000014779952247 0.080679410524316014 0
0.29000230591194098 0.020859196812628739 0
0.29000270263832167 0.023497375888148181 0
0.29000300986953298 0.025623213733092669 0
0.29000332103821963 0.027694545970108505 0
0.29000363259237721 0.02970291557673526 0
0.29000398571333191 0.031652709101384846 0
0.29000433505742179 0.033555440073096611 0
0.29000473947560068 0.035424046986118972 0
0.2900051853494372 0.0372713574225731 0
0.29000568911183428 0.039109674694727287 0
0.2900062638606189 0.040950911785734893 0
0.29000688565079263 0.042806838738768727 0
0.2900075373844529 0.044689649201212232 0
0.29000771212643062 0.046612240962993913 0
0.29000723251764532 0.048589032667650765 0
0.29000640825099938 0.050636294858348703 0
0.29000540713397943 0.052770859024751517 0
0.29000444580571977 0.055013359103900324 0
0.29000357810129679 0.057397291667869436 0
0.29000285811107468 0.0599647952173483 0
0.29000225633330073 0.062774573585010485 0
0.29000175640459436 0.065916426197255726 0
0.29000133622635105 0.069536273585213054 0
0.29000096509087581 0.073971503364059818 0
0.29000027324825961 0.080530771092931233 0
0.31000564576561707 0.02093983915067785 0
0.31000651436879284 0.023571817211604951 0
0.31000715785784844 0.025691264150814137 0
0.31000776939353636 0.027753159605052133 0
0.31000836652318803 0.029749976622170014 0
0.31000896796117949 0.031686698036776088 0
0.31000957299995879 0.033575101508198521 0
0.31001016481864002 0.035428343339864971 0
0.31001087882413492 0.037259193953555106 0
0.31001183354448175 0.039079940446594193 0
0.31001364729077735 0.040902423560085464 0
0.31001633627574832 0.042738398332837858 0
0.31001783274583256 0.044599856662321961 0
0.31001743031744111 0.046499558173507122 0
0.31001598069995523 0.048451309360566255 0
0.31001395165359297 0.050469351301329825 0
0.31001168590239059 0.052569333852951705 0
0.31000945961705995 0.054780344401447162 0
0.31000748289729846 0.057132833134134704 0
0.31000580891663609 0.059668559009594314 0
0.31000443364052932 0.062448185303511899 0
0.31000332557152577 0.065555614483814195 0
0.31000242539359474 0.069134260249792162 0
0.31000167874423828 0.073526788709170884 0
0.31000044370054292 0.080030583161599472 0
0.33000978548702614 0.022541347484327574 0
0.33001113589303688 0.024882364415329844 0
0.33001219715518348 0.026736663026286279 0
0.33001319550632707 0.028584459488988526 0
0.33001408055301551 0.030405243003634626 0
0.33001488810459956 0.032193434532353946 0
0.33001565082051609 0.033952836215384155 0
0.33001645814777347 0.035690992476971037 0
0.33001732788773502 0.037416713680318681 0
0.33001851831579859 0.039139337691088898 0
0.33002056516526856 0.040868454794187374 0
0.33002320652840661 0.042613950836512808 0
0.33002431319676562 0.044386245181963165 0
0.33002315829284284 0.046196503740301022 0
0.3300209701911474 0.048056522611343098 0
0.33001824897942827 0.049979178892114347 0
0.33001533732608096 0.051980353595183923 0
0.33001251361516937 0.05409073462445349 0
0.33000999705392053 0.056337793186061254 0
0.33000783279949697 0.058759484029440957 0
0.33000603772122505 0.061420164152309907 0
0.33000456197917394 0.064387465177444494 0
0.33000334962380745 0.067777576161438244 0
0.33000234172552056 0.071903307807603428 0
0.33000054539983265 0.078101130975849378 0
0 0 0
0 0.020000000000000004 0
0 0.040000000000000001 0
0 0.54999999999999993 0
0 0.56000000000000005 0
0 0.58000000000000007 0
0.02 0 0
0.02 0.020000000000000004 0
0.02 0.040000000000000001 0
0.02 0.54999999999999993 0
0.02 0.56000000000000005 0
0.02 0.58000000000000007 0
0.040000000000000001 0 0
0.040000000000000001 0.020000000000000004 0
0.040000000000000001 0.040000000000000001 0
0.040000000000000001 0.54999999999999993 0
0.040000000000000001 0.56000000000000005 0
0.040000000000000001 0.58000000000000007 0
0.059999999999999998 0 0
0.059999999999999998 0.020000000000000004 0
0.059999999999999998 0.040000000000000001 0
0.059999999999999998 0.54999999999999993 0
0.059999999999999998 0.56000000000000005 0
0.059999999999999998 0.58000000000000007 0
0.080000000000000002 0 0
0.080000000000000002 0.020000000000000004 0
0.080000000000000002 0.040000000000000001 0
0.080000000000000002 0.54999999999999993 0
0.080000000000000002 0.56000000000000005 0
0.080000000000000002 0.58000000000000007 0
0.10000000000000001 0 0
0.10000000000000001 0.020000000000000004 0
0.10000000000000001 0.040000000000000001 0
0.10000000000000001 0.54999999999999993 0
0.10000000000000001 0.56000000000000005 0
0.10000000000000001 0.58000000000000007 0
0.12 0 0
0.12 0.020000000000000004 0
0.12 0.040000000000000001 0
0.12 0.54999999999999993 0
0.12 0.56000000000000005 0
0.12 0.58000000000000007 0
0.14000000000000001 0 0
0.14000000000000001 0.020000000000000004 0
0.14000000000000001 0.040000000000000001 0
0.14000000000000001 0.54999999999999993 0
0.14000000000000001 0.56000000000000005 0
0.14000000000000001 0.58000000000000007 0
0.16 0 0
0.16 0.020000000000000004 0
0.16 0.040000000000000001 0
0.16 0.54999999999999993 0
0.16 0.56000000000000005 0
0.16 0.58000000000000007 0
0.17999999999999999 0 0
0.17999999999999999 0.020000000000000004 0
0.17999999999999999 0.040000000000000001 0
0.17999999999999999 0.54999999999999993 0
0.17999999999999999 0.56000000000000005 0
0.17999999999999999 0.58000000000000007 0
0.20000000000000001 0 0
0.20000000000000001 0.020000000000000004 0
0.20000000000000001 0.040000000000000001 0
0.20000000000000001 0.54999999999999993 0
0.20000000000000001 0.56000000000000005 0
0.20000000000000001 0.58000000000000007 0
0.22 0 0
0.22 0.020000000000000004 0
0.22 0.040000000000000001 0
0.22 0.54999999999999993 0
0.22 0.56000000000000005 0
0.22 0.58000000000000007 0
0.23999999999999999 0 0
0.23999999999999999 0.020000000000000004 0
0.23999999999999999 0.040000000000000001 0
0.23999999999999999 0.54999999999999993 0
0.23999999999999999 0.56000000000000005 0
0.23999999999999999 0.58000000000000007 0
0.26000000000000001 0 0
0.26000000000000001 0.020000000000000004 0
0.26000000000000001 0.040000000000000001 0
0.26000000000000001 0.54999999999999993 0
0.26000000000000001 0.56000000000000005 0
0.26000000000000001 0.58000000000000007 0
0.28000000000000003 0 0
0.28000000000000003 0.020000000000000004 0
0.28000000000000003 0.040000000000000001 0
0.28000000000000003 0.54999999999999993 0
0.28000000000000003 0.56000000000000005 0
0.28000000000000003 0.58000000000000007 0
0.29999999999999999 0 0
0.29999999999999999 0.020000000000000004 0
0.29999999999999999 0.040000000000000001 0
0.29999999999999999 0.54999999999999993 0
0.29999999999999999 0.56000000000000005 0
0.29999999999999999 0.58000000000000007 0
0.32000000000000001 0 0
0.32000000000000001 0.020000000000000004 0
0.32000000000000001 0.040000000000000001 0
0.32000000000000001 0.54999999999999993 0
0.32000000000000001 0.56000000000000005 0
0.32000000000000001 0.58000000000000007 0
0.34000000000000002 0 0
0.34000000000000002 0.020000000000000004 0
0.34000000000000002 0.040000000000000001 0
0.34000000000000002 0.54999999999999993 0
0.34000000000000002 0.56000000000000005 0
0.34000000000000002 0.58000000000000007 0
0.35999999999999999 0 0
0.35999999999999999 0.020000000000000004 0
0.35999999999999999 0.040000000000000001 0
0.35999999999999999 0.54999999999999993 0
0.35999999999999999 0.56000000000000005 0
0.35999999999999999 0.58000000000000007 0
0.38 0 0
0.38 0.020000000000000004 0
0.38 0.040000000000000001 0
0.38 0.54999999999999993 0
0.38 0.56000000000000005 0
0.38 0.58000000000000007 0
0.40000000000000002 0 0
0.40000000000000002 0.020000000000000004 0
0.40000000000000002 0.040000000000000001 0
0.40000000000000002 0.54999999999999993 0
0.40000000000000002 0.56000000000000005 0
0.40000000000000002 0.58000000000000007 0
0.41999999999999998 0 0
0.41999999999999998 0.020000000000000004 0
0.41999999999999998 0.040000000000000001 0
0.41999999999999998 0.54999999999999993 0
0.41999999999999998 0.56000000000000005 0
0.41999999999999998 0.58000000000000007 0
0.44 0 0
0.44 0.020000000000000004 0
0.44 0.040000000000000001 0
0.44 0.54999999999999993 0
0.44 0.56000000000000005 0
0.44 0.58000000000000007 0
0.46000000000000002 0 0
0.46000000000000002 0.020000000000000004 0
0.46000000000000002 0.040000000000000001 0
0.46000000000000002 0.54999999999999993 0
0.46000000000000002 0.56000000000000005 0
0.46000000000000002 0.58000000000000007 0
0.47999999999999998 0 0
0.47999999999999998 0.020000000000000004 0
0.47999999999999998 0.040000000000000001 0
0.47999999999999998 0.54999999999999993 0
0.47999999999999998 0.56000000000000005 0
0.47999999999999998 0.58000000000000007 0
0.5 0 0
0.5 0.020000000000000004 0
0.5 0.040000000000000001 0
0.5 0.54999999999999993 0
0.5 0.56000000000000005 0
0.5 0.58000000000000007 0
0.52000000000000002 0 0
0.52000000000000002 0.020000000000000004 0
0.52000000000000002 0.040000000000000001 0
0.52000000000000002 0.54999999999999993 0
0.52000000000000002 0.56000000000000005 0
0.52000000000000002 0.58000000000000007 0
0.54000000000000004 0 0
0.54000000000000004 0.020000000000000004 0
0.54000000000000004 0.040000000000000001 0
0.54000000000000004 0.54999999999999993 0
0.54000000000000004 0.56000000000000005 0
0.54000000000000004 0.58000000000000007 0
0.56000000000000005 0 0
0.56000000000000005 0.020000000000000004 0
0.56000000000000005 0.040000000000000001 0
0.56000000000000005 0.54999999999999993 0
0.56000000000000005 0.56000000000000005 0
0.56000000000000005 0.58000000000000007 0
0.57999999999999996 0 0
0.57999999999999996 0.020000000000000004 0
0.57999999999999996 0.040000000000000001 0
0.57999999999999996 0.54999999999999993 0
0.57999999999999996 0.56000000000000005 0
0.57999999999999996 0.58000000000000007 0
0.59999999999999998 0 0
0.59999999999999998 0.020000000000000004 0
0.59999999999999998 0.040000000000000001 0
0.59999999999999998 0.54999999999999993 0
0.59999999999999998 0.56000000000000005 0
0.59999999999999998 0.58000000000000007 0
0.62 0 0
0.62 0.020000000000000004 0
0.62 0.040000000000000001 0
0.62 0.54999999999999993 0
0.62 0.56000000000000005 0
0.62 0.58000000000000007 0
0.64000000000000001 0 0
0.64000000000000001 0.020000000000000004 0
0.64000000000000001 0.040000000000000001 0
0.64000000000000001 0.54999999999999993 0
0.64000000000000001 0.56000000000000005 0
0.64000000000000001 0.58000000000000007 0
0.66000000000000003 0 0
0.66000000000000003 0.020000000000000004 0
0.66000000000000003 0.040000000000000001 0
0.66000000000000003 0.54999999999999993 0
0.66000000000000003 0.56000000000000005 0
0.66000000000000003 0.58000000000000007 0
0.68000000000000005 0 0
0.68000000000000005 0.020000000000000004 0
0.68000000000000005 0.040000000000000001 0
0.68000000000000005 0.54999999999999993 0
0.68000000000000005 0.56000000000000005 0
0.68000000000000005 0.58000000000000007 0
0.70000000000000007 0 0
0.70000000000000007 0.020000000000000004 0
0.70000000000000007 0.040000000000000001 0
0.70000000000000007 0.54999999999999993 0
0.70000000000000007 0.56000000000000005 0
0.70000000000000007 0.58000000000000007 0
0.71999999999999997 0 0
0.71999999999999997 0.020000000000000004 0
0.71999999999999997 0.040000000000000001 0
0.71999999999999997 0.54999999999999993 0
0.71999999999999997 0.56000000000000005 0
0.71999999999999997 0.58000000000000007 0
0.73999999999999999 0 0
0.73999999999999999 0.020000000000000004 0
0.73999999999999999 0.040000000000000001 0
0.73999999999999999 0.54999999999999993 0
0.73999999999999999 0.56000000000000005 0
0.73999999999999999 0.58000000000000007 0
0.76000000000000001 0 0
0.76000000000000001 0.020000000000000004 0
0.76000000000000001 0.040000000000000001 0
0.76000000000000001 0.54999999999999993 0
0.76000000000000001 0.56000000000000005 0
0.76000000000000001 0.58000000000000007 0
0.78000000000000003 0 0
0.78000000000000003 0.020000000000000004 0
0.78000000000000003 0.040000000000000001 0
0.78000000000000003 0.54999999999999993 0
0.78000000000000003 0.56000000000000005 0
0.78000000000000003 0.58000000000000007 0
0.80000000000000004 0 0
0.80000000000000004 0.020000000000000004 0
0.80000000000000004 0.040000000000000001 0
0.80000000000000004 0.54999999999999993 0
0.80000000000000004 0.56000000000000005 0
0.80000000000000004 0.58000000000000007 0
0.82000000000000006 0 0
0.82000000000000006 0.020000000000000004 0
0.82000000000000006 0.040000000000000001 0
0.82000000000000006 0.54999999999999993 0
0.82000000000000006 0.56000000000000005 0
0.82000000000000006 0.58000000000000007 0
0.83999999999999997 0 0
0.83999999999999997 0.020000000000000004 0
0.83999999999999997 0.040000000000000001 0
0.83999999999999997 0.54999999999999993 0
0.83999999999999997 0.56000000000000005 0
0.83999999999999997 0.58000000000000007 0
0.85999999999999999 0 0
0.85999999999999999 0.020000000000000004 0
0.85999999999999999 0.040000000000000001 0
0.85999999999999999 0.54999999999999993 0
0.85999999999999999 0.56000000000000005 0
0.85999999999999999 0.58000000000000007 0
0.88 0 0
0.88 0.020000000000000004 0
0.88 0.040000000000000001 0
0.88 0.54999999999999993 0
0.88 0.56000000000000005 0
0.88 0.58000000000000007 0
0.90000000000000002 0 0
0.90000000000000002 0.020000000000000004 0
0.90000000000000002 0.040000000000000001 0
0.90000000000000002 0.54999999999999993 0
0.90000000000000002 0.56000000000000005 0
0.90000000000000002 0.58000000000000007 0
0.92000000000000004 0 0
0.92000000000000004 0.020000000000000004 0
0.92000000000000004 0.040000000000000001 0
0.92000000000000004 0.54999999999999993 0
0.92000000000000004 0.56000000000000005 0
0.92000000000000004 0.58000000000000007 0
0.94000000000000006 0 0
0.94000000000000006 0.020000000000000004 0
0.94000000000000006 0.040000000000000001 0
0.94000000000000006 0.54999999999999993 0
0.94000000000000006 0.56000000000000005 0
0.94000000000000006 0.58000000000000007 0
0.95999999999999996 0 0
0.95999999999999996 0.020000000000000004 0
0.95999999999999996 0.040000000000000001 0
0.95999999999999996 0.54999999999999993 0
0.95999999999999996 0.56000000000000005 0
0.95999999999999996 0.58000000000000007 0
0.97999999999999998 0 0
0.97999999999999998 0.020000000000000004 0
0.97999999999999998 0.040000000000000001 0
0.97999999999999998 0.54999999999999993 0
0.97999999999999998 0.56000000000000005 0
0.97999999999999998 0.58000000000000007 0
1 0 0
1 0.020000000000000004 0
1 0.040000000000000001 0
1 0.54999999999999993 0
1 0.56000000000000005 0
1 0.58000000000000007 0
VERTICES 681 1362
1 0
1 1
1 2
1 3
1 4
1 5
1 6
1 7
1 8
1 9
1 10
1 11
1 12
1 13
1 14
1 15
1 16
1 17
1 18
1 19
1 20
1 21
1 22
1 23
1 24
1 25
1 26
1 27
1 28
1 29
1 30
1 31
1 32
1 33
1 34
1 35
1 36
1 37
1 38
1 39
1 40
1 41
1 42
1 43
1 44
1 45
1 46
1 47
1 48
1 49
1 50
1 51
1 52
1 53
1 54
1 55
1 56
1 57
1 58
1 59
1 60
1 61
1 62
1 63
1 64
1 65
1 66
1 67
1 68
1 69
1 70
1 71
1 72
1 73
1 74
1 75
1 76
1 77
1 78
1 79
1 80
1 81
1 82
1 83
1 84
1 85
1 86
1 87
1 88
1 89
1 90
1 91
1 92
1 93
1 94
1 95
1 96
1 97
1 98
1 99
1 100
1 101
1 102
1 103
1 104
1 105
1 106
1 107
1 108
1 109
1 110
1 111
1 112
1 113
1 114
1 115
1 116
1 117
1 118
1 119
1 120
1 121
1 122
1 123
1 124
1 125
1 126
1 127
1 128
1 129
1 130
1 131
1 132
1 133
1 134
1 135
1 136
1 137
1 138
1 139
1 140
1 141
1 142
1 143
1 144
1 145
1 146
1 147
1 148
1 149
1 150
1 151
1 152
1 153
1 154
1 155
1 156
1 157
1 158
1 159
1 160
1 161
1 162
1 163
1 164
1 165
1 166
1 167
1 168
1 169
1 170
1 171
1 172
1 173
1 174
1 175
1 176
1 177
1 178
1 179
1 180
1 181
1 182
1 183
1 184
1 185
1 186
1 187
1 188
1 189
1 190
1 191
1 192
1 193
1 194
1 195
1 196
1 197
1 198
1 199
1 200
1 201
1 202
1 203
1 204
1 205
1 206
1 207
1 208
1 209
1 210
1 211
1 212
1 213
1 214
1 215
1 216
1 217
1 218
1 219
1 220
1 221
1 222
1 223
1 224
1 225
1 226
1 227
1 228
1 229
1 230
1 231
1 232
1 233
1 234
1 235
1 236
1 237
1 238
1 239
1 240
1 241
1 242
1 243
1 244
1 245
1 246
1 247
1 248
1 249
1 250
1 251
1 252
1 253
1 254
1 255
1 256
1 257
1 258
1 259
1 260
1 261
1 262
1 263
1 264
1 265
1 266
1 267
1 268
1 269
1 270
1 271
1 272
1 273
1 274
1 275
1 276
1 277
1 278
1 279
1 280
1 281
1 282
1 283
1 284
1 285
1 286
1 287
1 288
1 289
1 290
1 291
1 292
1 293
1 294
1 295
1 296
1 297
1 298
1 299
1 300
1 301
1 302
1 303
1 304
1 305
1 306
1 307
1 308
1 309
1 310
1 311
1 312
1 313
1 314
1 315
1 316
1 317
1 318
1 319
1 320
1 321
1 322
1 323
1 324
1 325
1 326
1 327
1 328
1 329
1 330
1 331
1 332
1 333
1 334
1 335
1 336
1 337
1 338
1 339
1 340
1 341
1 342
1 343
1 344
1 345
1 346
1 347
1 348
1 349
1 350
1 351
1 352
1 353
1 354
1 355
1 356
1 357
1 358
1 359
1 360
1 361
1 362
1 363
1 364
1 365
1 366
1 367
1 368
1 369
1 370
1 371
1 372
1 373
1 374
1 375
1 376
1 377
1 378
1 379
1 380
1 381
1 382
1 383
1 384
1 385
1 386
1 387
1 388
1 389
1 390
1 391
1 392
1 393
1 394
1 395
1 396
1 397
1 398
1 399
1 400
1 401
1 402
1 403
1 404
1 405
1 406
1 407
1 408
1 409
1 410
1 411
1 412
1 413
1 414
1 415
1 416
1 417
1 418
1 419
1 420
1 421
1 422
1 423
1 424
1 425
1 426
1 427
1 428
1 429
1 430
1 431
1 432
1 433
1 434
1 435
1 436
1 437
1 438
1 439
1 440
1 441
1 442
1 443
1 444
1 445
1 446
1 447
1 448
1 449
1 450
1 451
1 452
1 453
1 454
1 455
1 456
1 457
1 458
1 459
1 460
1 461
1 462
1 463
1 464
1 465
1 466
1 467
1 468
1 469
1 470
1 471
1 472
1 473
1 474
1 475
1 476
1 477
1 478
1 479
1 480
1 481
1 482
1 483
1 484
1 485
1 486
1 487
1 488
1 489
1 490
1 491
1 492
1 493
1 494
1 495
1 496
1 497
1 498
1 499
1 500
1 501
1 502
1 503
1 504
1 505
1 506
1 507
1 508
1 509
1 510
1 511
1 512
1 513
1 514
1 515
1 516
1 517
1 518
1 519
1 520
1 521
1 522
1 523
1 524
1 525
1 526
1 527
1 528
1 529
1 530
1 531
1 532
1 533
1 534
1 535
1 536
1 537
1 538
1 539
1 540
1 541
1 542
1 543
1 544
1 545
1 546
1 547
1 548
1 549
1 550
1 551
1 552
1 553
1 554
1 555
1 556
1 557
1 558
1 559
1 560
1 561
1 562
1 563
1 564
1 565
1 566
1 567
1 568
1 569
1 570
1 571
1 572
1 573
1 574
1 575
1 576
1 577
1 578
1 579
1 580
1 581
1 582
1 583
1 584
1 585
1 586
1 587
1 588
1 589
1 590
1 591
1 592
1 593
1 594
1 595
1 596
1 597
1 598
1 599
1 600
1 601
1 602
1 603
1 604
1 605
1 606
1 607
1 608
1 609
1 610
1 611
1 612
1 613
1 614
1 615
1 616
1 617
1 618
1 619
1 620
1 621
1 622
1 623
1 624
1 625
1 626
1 627
1 628
1 629
1 630
1 631
1 632
1 633
1 634
1 635
1 636
1 637
1 638
1 639
1 640
1 641
1 642
1 643
1 644
1 645
1 646
1 647
1 648
1 649
1 650
1 651
1 652
1 653
1 654
1 655
1 656
1 657
1 658
1 659
1 660
1 661
1 662
1 663
1 664
1 665
1 666
1 667
1 668
1 669
1 670
1 671
1 672
1 673
1 674
1 675
1 676
1 677
1 678
1 679
1 680
POINT_DATA 681
SCALARS is_boundary int 1
LOOKUP_TABLE default
0
0
0
0
0
0
0
0
0
0
0
0
0
0
0
0
0
0
0
0
0
0
0
0
0
0
0
0
0
0
0
0
0
0
0
0
0
0
0
0
0
0
0
0
0
0
0
0
0
0
0
0
0
0
0
0
0
0
0
0
0
0
0
0
0
0
0
0
0
0
0
0
0
0
0
0
0
0
0
0
0
0
0
0
0
0
0
0
0
0
0
0
0
0
0
0
0
0
0
0
0
0
0
0
0
0
0
0
0
0
0
0
0
0
0
0
0
0
0
0
0
0
0
0
0
0
0
0
0
0
0
0
0
0
0
0
0
0
0
0
0
0
0
0
0
0
0
0
0
0
0
0
0
0
0
0
0
0
0
0
0
0
0
0
0
0
0
0
0
0
0
0
0
0
0
0
0
0
0
0
0
0
0
0
0
0
0
0
0
0
0
0
0
0
0
0
0
0
0
0
0
0
0
0
0
0
0
0
0
0
0
0
0
0
0
0
0
0
0
0
0
0
0
0
0
0
0
0
0
0
0
0
0
0
0
0
0
0
0
0
0
0
0
0
0
0
0
0
0
0
0
0
0
0
0
0
0
0
0
0
0
0
0
0
0
0
0
0
0
0
0
0
0
0
0
0
0
0
0
0
0
0
0
0
0
0
0
0
0
0
0
0
0
0
0
0
0
0
0
0
0
0
0
0
0
0
0
0
0
0
0
0
0
0
0
0
0
0
0
0
0
0
0
0
0
0
0
0
0
0
0
0
0
0
0
0
0
0
0
0
0
0
0
0
0
0
0
0
0
0
0
0
0
0
0
0
0
0
0
0
0
0
0
0
0
0
0
0
0
0
0
0
0
0
0
1
1
1
1
1
1
1
1
1
1
1
1
1
1
1
1
1
1
1
1
1
1
1
1
1
1
1
1
1
1
1
1
1
1
1
1
1
1
1
1
1
1
1
1
1
1
1
1
1
1
1
1
1
1
1
1
1
1
1
1
1
1
1
1
1
1
1
1
1
1
1
1
1
1
1
1
1
1
1
1
1
1
1
1
1
1
1
1
1
1
1
1
1
1
1
1
1
1
1
1
1
1
1
1
1
1
1
1
1
1
1
1
1
1
1
1
1
1
1
1
1
1
1
1
1
1
1
1
1
1
1
1
1
1
1
1
1
1
1
1
1
1
1
1
1
1
1
1
1
1
1
1
1
1
1
1
1
1
1
1
1
1
1
1
1
1
1
1
1
1
1
1
1
1
1
1
1
1
1
1
1
1
1
1
1
1
1
1
1
1
1
1
1
1
1
1
1
1
1
1
1
1
1
1
1
1
1
1
1
1
1
1
1
1
1
1
1
1
1
1
1
1
1
1
1
1
1
1
1
1
1
1
1
1
1
1
1
1
1
1
1
1
1
1
1
1
1
1
1
1
1
1
1
1
1
1
1
1
1
1
1
1
1
1
1
1
1
1
1
1
1
1
1
1
1
1
1
1
1
1
1
1
1
1
1
1
1
1
1
1
1
1
1
1
1
1
1
1
1
1
1
1
1
1
1
1
SCALARS rho float 1
LOOKUP_TABLE default
1020
1020
1020
1020
1020
1020
1020
1020
1020
1020
1020
1020
1020
1020
1020
1020
1020
1020
1020
1020
1020
1020
1020
1020
1020
1020
1020
1020
1020
1020
1020
1020
1020
1020
1020
1020
1020
1020
1020
1020
1020
1020
1020
1020
1020
1020
1020
1020
1020
1020
1020
1020
1020
1020
1020
1020
1020
1020
1020
1020
1020
1020
1020
1020
1020
1020
1020
1020
1020
1020
1020
1020
1020
1020
1020
1020
1020
1020
1020
1020
1020
1020
1020
1020
1020
1020
1020
1020
1020
1020
1020
1020
1020
1020
1020
1020
1020
1020
1020
1020
1020
1020
1020
1020
1020
1020
1020
1020
1020
1020
1020
1020
1020
1020
1020
1020
1020
1020
1020
1020
1020
1020
1020
1020
1020
1020
1020
1020
1020
1020
1020
1020
1020
1020
1020
1020
1020
1020
1020
1020
1020
1020
1020
1020
1020
1020
1020
1020
1020
1020
1020
1020
1020
1020
1020
1020
1020
1020
1020
1020
1020
1020
1020
1020
1020
1020
1020
1020
1020
1020
1020
1020
1020
1020
1020
1020
1020
1020
1020
1020
1020
1020
1020
1020
1020
1020
1020
1020
1020
1020
1020
1020
1020
1020
1020
1020
1020
1020
1020
1020
1020
1020
1020
1020
1020
1020
1020
1020
1020
1020
1020
1020
1020
1020
1020
1020
1020
1020
1020
1020
1020
1020
1020
1020
1020
1020
1020
1020
1020
1020
1020
1020
1020
1020
1020
1020
1020
1020
1020
1020
1020
1020
1020
1020
1020
1020
1020
1020
1020
1020
1020
1020
1020
1020
1020
1020
1020
1020
1020
1020
1020
1020
1020
1020
1020
1020
1020
1020
1020
1020
1020
1020
1020
1020
1020
1020
1020
1020
1020
1020
1020
1020
1020
1020
1020
1020
1020
1020
1020
1020
1020
1020
1020
1020
1020
1020
1020
1020
1020
1020
1020
1020
1020
1020
1020
1020
1020
1020
1020
1020
1020
1020
1020
1020
1020
1020
1020
1020
1020
1020
1020
1020
1020
1020
1020
1020
1020
1020
1020
1020
1020
1020
1020
1020
1020
1020
1020
1020
1020
1020
1020
1020
1020
1020
1020
1020
1020
1020
1020
1020
1020
1020
1020
1020
1020
1020
1020
1020
1020
1020
1020
1020
1020
1020
1020
1020
1020
1020
1020
1020
1020
1020
1020
1020
1020
1000
1000
1000
1000
1000
1000
1000
1000
1000
1000
1000
1000
1000
1000
1000
1000
1000
1000
1000
1000
1000
1000
1000
1000
1000
1000
1000
1000
1000
1000
1000
1000
1000
1000
1000
1000
1000
1000
1000
1000
1000
1000
1000
1000
1000
1000
1000
1000
1000
1000
1000
1000
1000
1000
1000
1000
1000
1000
1000
1000
1000
1000
1000
1000
1000
1000
1000
1000
1000
1000
1000
1000
1000
1000
1000
1000
1000
1000
1000
1000
1000
1000
1000
1000
1000
1000
1000
1000
1000
1000
1000
1000
1000
1000
1000
1000
1000
1000
1000
1000
1000
1000
1000
1000
1000
1000
1000
1000
1000
1000
1000
1000
1000
1000
1000
1000
1000
1000
1000
1000
1000
1000
1000
1000
1000
1000
1000
1000
1000
1000
1000
1000
1000
1000
1000
1000
1000
1000
1000
1000
1000
1000
1000
1000
1000
1000
1000
1000
1000
1000
1000
1000
1000
1000
1000
1000
1000
1000
1000
1000
1000
1000
1000
1000
1000
1000
1000
1000
1000
1000
1000
1000
1000
1000
1000
1000
1000
1000
1000
1000
1000
1000
1000
1000
1000
1000
1000
1000
1000
1000
1000
1000
1000
1000
1000
1000
1000
1000
1000
1000
1000
1000
1000
1000
1000
1000
1000
1000
1000
1000
1000
1000
1000
1000
1000
1000
1000
1000
1000
1000
1000
1000
1000
1000
1000
1000
1000
1000
1000
1000
1000
1000
1000
1000
1000
1000
1000
1000
1000
1000
1000
1000
1000
1000
1000
1000
1000
1000
1000
1000
1000
1000
1000
1000
1000
1000
1000
1000
1000
1000
1000
1000
1000
1000
1000
1000
1000
1000
1000
1000
1000
1000
1000
1000
1000
1000
1000
1000
1000
1000
1000
1000
1000
1000
1000
1000
1000
1000
1000
1000
1000
1000
1000
1000
1000
1000
1000
1000
1000
1000
1000
1000
1000
1000
1000
1000
SCALARS p float 1
LOOKUP_TABLE default
25004.681136676067
25004.681136676067
25004.681136676067
25004.681136676067
25004.681136676067
25004.681136676067
25004.681136676067
25004.681136676067
25004.681136676067
25004.681136676067
25004.681136676067
25004.681136676067
25004.681136676067
25004.681136676067
25004.681136676067
25004.681136676067
25004.681136676067
25004.681136676067
25004.681136676067
25004.681136676067
25004.681136676067
25004.681136676067
25004.681136676067
25004.681136676067
25004.681136676067
25004.681136676067
25004.681136676067
25004.681136676067
25004.681136676067
25004.681136676067
25004.681136676067
25004.681136676067
25004.681136676067
25004.681136676067
25004.681136676067
25004.681136676067
25004.681136676067
25004.681136676067
25004.681136676067
25004.681136676067
25004.681136676067
25004.681136676067
25004.681136676067
25004.681136676067
25004.681136676067
25004.681136676067
25004.681136676067
25004.681136676067
25004.681136676067
25004.681136676067
25004.681136676067
25004.681136676067
25004.681136676067
25004.681136676067
25004.681136676067
25004.681136676067
25004.681136676067
25004.681136676067
25004.681136676067
25004.681136676067
25004.681136676067
25004.681136676067
25004.681136676067
25004.681136676067
25004.681136676067
25004.681136676067
25004.681136676067
25004.681136676067
25004.681136676067
25004.681136676067
25004.681136676067
25004.681136676067
25004.681136676067
25004.681136676067
25004.681136676067
25004.681136676067
25004.681136676067
25004.681136676067
25004.681136676067
25004.681136676067
25004.681136676067
25004.681136676067
25004.681136676067
25004.681136676067
25004.681136676067
25004.681136676067
25004.681136676067
25004.681136676067
25004.681136676067
25004.681136676067
25004.681136676067
25004.681136676067
25004.681136676067
25004.681136676067
25004.681136676067
25004.681136676067
25004.681136676067
25004.681136676067
25004.681136676067
25004.681136676067
25004.681136676067
25004.681136676067
25004.681136676067
25004.681136676067
25004.681136676067
25004.681136676067
25004.681136676067
25004.681136676067
25004.681136676067
25004.681136676067
25004.681136676067
25004.681136676067
25004.681136676067
25004.681136676067
25004.681136676067
25004.681136676067
25004.681136676067
25004.681136676067
25004.681136676067
25004.681136676067
25004.681136676067
25004.681136676067
25004.681136676067
25004.681136676067
25004.681136676067
25004.681136676067
25004.681136676067
25004.681136676067
25004.681136676067
25004.681136676067
25004.681136676067
25004.681136676067
25004.681136676067
25004.681136676067
25004.681136676067
25004.681136676067
25004.681136676067
25004.681136676067
25004.681136676067
25004.681136676067
25004.681136676067
25004.681136676067
25004.681136676067
25004.681136676067
25004.681136676067
25004.681136676067
25004.681136676067
25004.681136676067
25004.681136676067
25004.681136676067
25004.681136676067
25004.681136676067
25004.681136676067
25004.681136676067
25004.681136676067
25004.681136676067
25004.681136676067
25004.681136676067
25004.681136676067
25004.681136676067
25004.681136676067
25004.681136676067
25004.681136676067
25004.681136676067
25004.681136676067
25004.681136676067
25004.681136676067
25004.681136676067
25004.681136676067
25004.681136676067
25004.681136676067
25004.681136676067
25004.681136676067
25004.681136676067
25004.681136676067
25004.681136676067
25004.681136676067
25004.681136676067
25004.681136676067
25004.681136676067
25004.681136676067
25004.681136676067
25004.681136676067
25004.681136676067
25004.681136676067
25004.681136676067
25004.681136676067
25004.681136676067
25004.681136676067
25004.681136676067
25004.681136676067
25004.681136676067
25004.681136676067
25004.681136676067
25004.681136676067
25004.681136676067
25004.681136676067
25004.681136676067
25004.681136676067
25004.681136676067
25004.681136676067
25004.681136676067
25004.681136676067
25004.681136676067
25004.681136676067
25004.681136676067
25004.681136676067
25004.681136676067
25004.681136676067
25004.681136676067
25004.681136676067
25004.681136676067
25004.681136676067
25004.681136676067
25004.681136676067
25004.681136676067
25004.681136676067
25004.681136676067
25004.681136676067
25004.681136676067
25004.681136676067
25004.681136676067
25004.681136676067
25004.681136676067
25004.681136676067
25004.681136676067
25004.681136676067
25004.681136676067
25004.681136676067
25004.681136676067
25004.681136676067
25004.681136676067
25004.681136676067
25004.681136676067
25004.681136676067
25004.681136676067
25004.681136676067
25004.681136676067
25004.681136676067
25004.681136676067
25004.681136676067
25004.681136676067
25004.681136676067
25004.681136676067
25004.681136676067
25004.681136676067
25004.681136676067
25004.681136676067
25004.681136676067
25004.681136676067
25004.681136676067
25004.681136676067
25004.681136676067
25004.681136676067
25004.681136676067
25004.681136676067
25004.681136676067
25004.681136676067
25004.681136676067
25004.681136676067
25004.681136676067
25004.681136676067
25004.681136676067
25004.681136676067
25004.681136676067
25004.681136676067
25004.681136676067
25004.681136676067
25004.681136676067
25004.681136676067
25004.681136676067
25004.681136676067
25004.681136676067
25004.681136676067
25004.681136676067
25004.681136676067
25004.681136676067
25004.681136676067
25004.681136676067
25004.681136676067
25004.681136676067
25004.681136676067
25004.681136676067
25004.681136676067
25004.681136676067
25004.681136676067
25004.681136676067
25004.681136676067
25004.681136676067
25004.681136676067
25004.681136676067
25004.681136676067
25004.681136676067
25004.681136676067
25004.681136676067
25004.681136676067
25004.681136676067
25004.681136676067
25004.681136676067
25004.681136676067
25004.681136676067
25004.681136676067
25004.681136676067
25004.681136676067
25004.681136676067
25004.681136676067
25004.681136676067
25004.681136676067
25004.681136676067
25004.681136676067
25004.681136676067
25004.681136676067
25004.681136676067
25004.681136676067
25004.681136676067
25004.681136676067
25004.681136676067
25004.681136676067
25004.681136676067
25004.681136676067
25004.681136676067
25004.681136676067
25004.681136676067
25004.681136676067
25004.681136676067
25004.681136676067
25004.681136676067
25004.681136676067
25004.681136676067
25004.681136676067
25004.681136676067
25004.681136676067
25004.681136676067
25004.681136676067
25004.681136676067
25004.681136676067
25004.681136676067
25004.681136676067
25004.681136676067
25004.681136676067
25004.681136676067
25004.681136676067
25004.681136676067
25004.681136676067
25004.681136676067
25004.681136676067
25004.681136676067
25004.681136676067
25004.681136676067
25004.681136676067
25004.681136676067
25004.681136676067
25004.681136676067
25004.681136676067
25004.681136676067
25004.681136676067
25004.681136676067
25004.681136676067
25004.681136676067
25004.681136676067
25004.681136676067
25004.681136676067
25004.681136676067
25004.681136676067
25004.681136676067
25004.681136676067
25004.681136676067
25004.681136676067
25004.681136676067
25004.681136676067
25004.681136676067
25004.681136676067
25004.681136676067
25004.681136676067
25004.681136676067
0
0
0
0
0
0
24594.207717893616
24989.946944091185
24997.871508080447
0
0
0
24992.920595120868
25003.587748092777
25004.129562439455
0
0
0
24999.19110693318
25004.116894279654
25004.388859125189
0
0
0
24999.710211503258
25004.14155805378
25004.395144451111
0
0
0
24999.752398583663
25004.141352782492
25004.393535266205
0
0
0
24999.740390642219
25004.140504783594
25004.393167164322
0
0
0
24999.731534366914
25004.140013962791
25004.393057780031
0
0
0
24999.727413841403
25004.139791551948
25004.393018729126
0
0
0
24999.725901698319
25004.139714963294
25004.393008799223
0
0
0
24999.725879535206
25004.139715525842
25004.393009872194
0
0
0
24999.727376907169
25004.139792555132
25004.393020674022
0
0
0
24999.731494887066
25004.140014155884
25004.393059388145
0
0
0
24999.740362903303
25004.140505549247
25004.393169806277
0
0
0
24999.75232514854
25004.141351013062
25004.393538103639
0
0
0
24999.710089375079
25004.141556508064
25004.395148779819
0
0
0
24999.190986783949
25004.116901129291
25004.388868710692
0
0
0
24992.919679828825
25003.587705256188
25004.129545080898
0
0
0
24594.108293431767
24989.944781966147
24997.870324822354
0
0
0
0
0
0
0
0
0
0
0
0
0
0
0
0
0
0
0
0
0
0
0
0
0
0
0
0
0
0
0
0
0
0
0
0
0
0
0
0
0
0
0
0
0
0
0
0
0
0
0
0
0
0
0
0
0
0
0
0
0
0
0
0
0
0
0
0
0
0
0
0
0
0
0
0
0
0
0
0
0
0
0
0
0
0
0
0
0
0
0
0
0
0
0
0
0
0
0
0
0
0
0
0
0
0
0
0
0
0
0
0
0
0
0
0
0
0
0
0
0
0
0
0
0
0
0
0
0
0
0
0
0
0
0
0
0
0
0
0
0
0
0
0
0
0
0
0
0
0
0
0
0
0
0
0
0
0
0
0
0
0
0
0
0
0
0
0
0
0
0
0
0
0
0
0
0
0
0
0
0
0
0
0
0
0
0
0
0
0
0
0
0
0
0
SCALARS m float 1
LOOKUP_TABLE default
0.39942306611962441
0.39942306611962441
0.39942306611962441
0.39942306611962441
0.39942306611962441
0.39942306611962441
0.39942306611962441
0.39942306611962441
0.39942306611962441
0.39942306611962441
0.39942306611962441
0.39942306611962441
0.39942306611962441
0.39942306611962441
0.39942306611962441
0.39942306611962441
0.39942306611962441
0.39942306611962441
0.39942306611962441
0.39942306611962441
0.39942306611962441
0.39942306611962441
0.39942306611962441
0.39942306611962441
0.39942306611962441
0.39942306611962441
0.39942306611962441
0.39942306611962441
0.39942306611962441
0.39942306611962441
0.39942306611962441
0.39942306611962441
0.39942306611962441
0.39942306611962441
0.39942306611962441
0.39942306611962441
0.39942306611962441
0.39942306611962441
0.39942306611962441
0.39942306611962441
0.39942306611962441
0.39942306611962441
0.39942306611962441
0.39942306611962441
0.39942306611962441
0.39942306611962441
0.39942306611962441
0.39942306611962441
0.39942306611962441
0.39942306611962441
0.39942306611962441
0.39942306611962441
0.39942306611962441
0.39942306611962441
0.39942306611962441
0.39942306611962441
0.39942306611962441
0.39942306611962441
0.39942306611962441
0.39942306611962441
0.39942306611962441
0.39942306611962441
0.39942306611962441
0.39942306611962441
0.39942306611962441
0.39942306611962441
0.39942306611962441
0.39942306611962441
0.39942306611962441
0.39942306611962441
0.39942306611962441
0.39942306611962441
0.39942306611962441
0.39942306611962441
0.39942306611962441
0.39942306611962441
0.39942306611962441
0.39942306611962441
0.39942306611962441
0.39942306611962441
0.39942306611962441
0.39942306611962441
0.39942306611962441
0.39942306611962441
0.39942306611962441
0.39942306611962441
0.39942306611962441
0.39942306611962441
0.39942306611962441
0.39942306611962441
0.39942306611962441
0.39942306611962441
0.39942306611962441
0.39942306611962441
0.39942306611962441
0.39942306611962441
0.39942306611962441
0.39942306611962441
0.39942306611962441
0.39942306611962441
0.39942306611962441
0.39942306611962441
0.39942306611962441
0.39942306611962441
0.39942306611962441
0.39942306611962441
0.39942306611962441
0.39942306611962441
0.39942306611962441
0.39942306611962441
0.39942306611962441
0.39942306611962441
0.39942306611962441
0.39942306611962441
0.39942306611962441
0.39942306611962441
0.39942306611962441
0.39942306611962441
0.39942306611962441
0.39942306611962441
0.39942306611962441
0.39942306611962441
0.39942306611962441
0.39942306611962441
0.39942306611962441
0.39942306611962441
0.39942306611962441
0.39942306611962441
0.39942306611962441
0.39942306611962441
0.39942306611962441
0.39942306611962441
0.39942306611962441
0.39942306611962441
0.39942306611962441
0.39942306611962441
0.39942306611962441
0.39942306611962441
0.39942306611962441
0.39942306611962441
0.39942306611962441
0.39942306611962441
0.39942306611962441
0.39942306611962441
0.39942306611962441
0.39942306611962441
0.39942306611962441
0.39942306611962441
0.39942306611962441
0.39942306611962441
0.39942306611962441
0.39942306611962441
0.39942306611962441
0.39942306611962441
0.39942306611962441
0.39942306611962441
0.39942306611962441
0.39942306611962441
0.39942306611962441
0.39942306611962441
0.39942306611962441
0.39942306611962441
0.39942306611962441
0.39942306611962441
0.39942306611962441
0.39942306611962441
0.39942306611962441
0.39942306611962441
0.39942306611962441
0.39942306611962441
0.39942306611962441
0.39942306611962441
0.39942306611962441
0.39942306611962441
0.39942306611962441
0.39942306611962441
0.39942306611962441
0.39942306611962441
0.39942306611962441
0.39942306611962441
0.39942306611962441
0.39942306611962441
0.39942306611962441
0.39942306611962441
0.39942306611962441
0.39942306611962441
0.39942306611962441
0.39942306611962441
0.39942306611962441
0.39942306611962441
0.39942306611962441
0.39942306611962441
0.39942306611962441
0.39942306611962441
0.39942306611962441
0.39942306611962441
0.39942306611962441
0.39942306611962441
0.39942306611962441
0.39942306611962441
0.39942306611962441
0.39942306611962441
0.39942306611962441
0.39942306611962441
0.39942306611962441
0.39942306611962441
0.39942306611962441
0.39942306611962441
0.39942306611962441
0.39942306611962441
0.39942306611962441
0.39942306611962441
0.39942306611962441
0.39942306611962441
0.39942306611962441
0.39942306611962441
0.39942306611962441
0.39942306611962441
0.39942306611962441
0.39942306611962441
0.39942306611962441
0.39942306611962441
0.39942306611962441
0.39942306611962441
0.39942306611962441
0.39942306611962441
0.39942306611962441
0.39942306611962441
0.39942306611962441
0.39942306611962441
0.39942306611962441
0.39942306611962441
0.39942306611962441
0.39942306611962441
0.39942306611962441
0.39942306611962441
0.39942306611962441
0.39942306611962441
0.39942306611962441
0.39942306611962441
0.39942306611962441
0.39942306611962441
0.39942306611962441
0.39942306611962441
0.39942306611962441
0.39942306611962441
0.39942306611962441
0.39942306611962441
0.39942306611962441
0.39942306611962441
0.39942306611962441
0.39942306611962441
0.39942306611962441
0.39942306611962441
0.39942306611962441
0.39942306611962441
0.39942306611962441
0.39942306611962441
0.39942306611962441
0.39942306611962441
0.39942306611962441
0.39942306611962441
0.39942306611962441
0.39942306611962441
0.39942306611962441
0.39942306611962441
0.39942306611962441
0.39942306611962441
0.39942306611962441
0.39942306611962441
0.39942306611962441
0.39942306611962441
0.39942306611962441
0.39942306611962441
0.39942306611962441
0.39942306611962441
0.39942306611962441
0.39942306611962441
0.39942306611962441
0.39942306611962441
0.39942306611962441
0.39942306611962441
0.39942306611962441
0.39942306611962441
0.39942306611962441
0.39942306611962441
0.39942306611962441
0.39942306611962441
0.39942306611962441
0.39942306611962441
0.39942306611962441
0.39942306611962441
0.39942306611962441
0.39942306611962441
0.39942306611962441
0.39942306611962441
0.39942306611962441
0.39942306611962441
0.39942306611962441
0.39942306611962441
0.39942306611962441
0.39942306611962441
0.39942306611962441
0.39942306611962441
0.39942306611962441
0.39942306611962441
0.39942306611962441
0.39942306611962441
0.39942306611962441
0.39942306611962441
0.39942306611962441
0.39942306611962441
0.39942306611962441
0.39942306611962441
0.39942306611962441
0.39942306611962441
0.39942306611962441
0.39942306611962441
0.39942306611962441
0.39942306611962441
0.39942306611962441
0.39942306611962441
0.39942306611962441
0.39942306611962441
0.39942306611962441
0.39942306611962441
0.39942306611962441
0.39942306611962441
0.39942306611962441
0.39942306611962441
0.39942306611962441
0.39942306611962441
0.39942306611962441
0.39942306611962441
0.39942306611962441
0.39942306611962441
0.39942306611962441
0.39942306611962441
0.39942306611962441
0.39942306611962441
0.39942306611962441
0.39942306611962441
0.39942306611962441
0.39942306611962441
0.39942306611962441
0.39942306611962441
0.39942306611962441
0.39942306611962441
0.39942306611962441
0.39942306611962441
0.39942306611962441
0.39942306611962441
0.39942306611962441
0.39942306611962441
0.39942306611962441
0.39942306611962441
0.39942306611962441
0.39942306611962441
0.39942306611962441
0.39942306611962441
0.39942306611962441
0.39942306611962441
0.39942306611962441
0.39942306611962441
0.39942306611962441
0.39942306611962441
0.39942306611962441
0.39942306611962441
0.39942306611962441
0.39942306611962441
0.39942306611962441
0.39942306611962441
0.39942306611962441
0.39942306611962441
0.39942306611962441
0.39942306611962441
0.39942306611962441
0.39942306611962441
0.39942306611962441
0.39942306611962441
0.39942306611962441
0.39942306611962441
0.39942306611962441
0.39942306611962441
0.39942306611962441
0.39942306611962441
0.39942306611962441
0.39942306611962441
0.39942306611962441
0.39942306611962441
0.39942306611962441
0.39942306611962441
0.39942306611962441
0.39942306611962441
0.39942306611962441
0.39942306611962441
0.39942306611962441
0.39942306611962441
0.39942306611962441
0.39942306611962441
0.39942306611962441
0.39942306611962441
0.39942306611962441
0.39942306611962441
0.39942306611962441
0.39942306611962441
0.39942306611962441
0.39942306611962441
0.39942306611962441
0.39942306611962441
0.39942306611962441
0.39942306611962441
0.39942306611962441
0.39942306611962441
0.39942306611962441
0.39942306611962441
0.39942306611962441
0.39942306611962441
0.39942306611962441
0.39942306611962441
0.39942306611962441
0.39942306611962441
0.39942306611962441
0.39942306611962441
0.39942306611962441
0.39942306611962441
0.39942306611962441
0.39942306611962441
0.39942306611962441
0.39942306611962441
0.39942306611962441
0.39942306611962441
0.39942306611962441
0.39942306611962441
0.39942306611962441
0.39942306611962441
0.39942306611962441
0.39942306611962441
0.39942306611962441
0.39942306611962441
0.39942306611962441
0.39942306611962441
0.39942306611962441
0.39942306611962441
0.39942306611962441
0.39942306611962441
0.39942306611962441
0.39942306611962441
0.39942306611962441
0.39942306611962441
0.39942306611962441
0.39942306611962441
0.39942306611962441
0.39942306611962441
0.39942306611962441
0.39942306611962441
0.39942306611962441
0.39942306611962441
0.39942306611962441
0.39942306611962441
0.39942306611962441
0.39942306611962441
0.39942306611962441
0.39942306611962441
0.39942306611962441
0.39942306611962441
0.39942306611962441
0.39942306611962441
0.39942306611962441
0.39942306611962441
0.39942306611962441
0.39942306611962441
0.39942306611962441
0.39942306611962441
0.39942306611962441
0.39942306611962441
0.39942306611962441
0.39942306611962441
0.39942306611962441
0.39942306611962441
0.39942306611962441
0.39942306611962441
0.39942306611962441
0.39942306611962441
0.39942306611962441
0.39942306611962441
0.39942306611962441
0.39942306611962441
0.39942306611962441
0.39942306611962441
0.39942306611962441
0.39942306611962441
0.39942306611962441
0.39942306611962441
0.39942306611962441
0.39942306611962441
0.39942306611962441
0.39942306611962441
0.39942306611962441
0.39942306611962441
0.39942306611962441
0.39942306611962441
0.39942306611962441
0.39942306611962441
0.39942306611962441
0.39942306611962441
0.39942306611962441
0.39942306611962441
0.39942306611962441
0.39942306611962441
0.39942306611962441
0.39942306611962441
0.39942306611962441
0.39942306611962441
0.39942306611962441
0.39942306611962441
0.39942306611962441
0.39942306611962441
0.39942306611962441
0.39942306611962441
0.39942306611962441
0.39942306611962441
0.39942306611962441
0.39942306611962441
0.39942306611962441
0.39942306611962441
0.39942306611962441
0.39942306611962441
0.39942306611962441
0.39942306611962441
0.39942306611962441
0.39942306611962441
0.39942306611962441
0.39942306611962441
0.39942306611962441
0.39942306611962441
0.39942306611962441
0.39942306611962441
0.39942306611962441
0.39942306611962441
0.39942306611962441
0.39942306611962441
0.39942306611962441
0.39942306611962441
0.39942306611962441
0.39942306611962441
0.39942306611962441
0.39942306611962441
0.39942306611962441
0.39942306611962441
0.39942306611962441
0.39942306611962441
0.39942306611962441
0.39942306611962441
0.39942306611962441
0.39942306611962441
0.39942306611962441
0.39942306611962441
0.39942306611962441
0.39942306611962441
0.39942306611962441
0.39942306611962441
0.39942306611962441
0.39942306611962441
0.39942306611962441
0.39942306611962441
0.39942306611962441
0.39942306611962441
0.39942306611962441
0.39942306611962441
0.39942306611962441
0.39942306611962441
0.39942306611962441
0.39942306611962441
0.39942306611962441
0.39942306611962441
0.39942306611962441
0.39942306611962441
0.39942306611962441
0.39942306611962441
0.39942306611962441
0.39942306611962441
0.39942306611962441
0.39942306611962441
0.39942306611962441
0.39942306611962441
0.39942306611962441
0.39942306611962441
0.39942306611962441
0.39942306611962441
0.39942306611962441
0.39942306611962441
0.39942306611962441
0.39942306611962441
0.39942306611962441
0.39942306611962441
0.39942306611962441
0.39942306611962441
0.39942306611962441
0.39942306611962441
0.39942306611962441
0.39942306611962441
0.39942306611962441
0.39942306611962441
0.39942306611962441
0.39942306611962441
0.39942306611962441
0.39942306611962441
0.39942306611962441
0.39942306611962441
0.39942306611962441
0.39942306611962441
0.39942306611962441
0.39942306611962441
0.39942306611962441
0.39942306611962441
0.39942306611962441
0.39942306611962441
0.39942306611962441
0.39942306611962441
0.39942306611962441
0.39942306611962441
0.39942306611962441
0.39942306611962441
0.39942306611962441
0.39942306611962441
0.39942306611962441
0.39942306611962441
0.39942306611962441
0.39942306611962441
0.39942306611962441
0.39942306611962441
0.39942306611962441
0.39942306611962441
0.39942306611962441
0.39942306611962441
0.39942306611962441
0.39942306611962441
0.39942306611962441
0.39942306611962441
0.39942306611962441
0.39942306611962441
0.39942306611962441
0.39942306611962441
0.39942306611962441
0.39942306611962441
0.39942306611962441
0.39942306611962441
0.39942306611962441
0.39942306611962441
0.39942306611962441
0.39942306611962441
0.39942306611962441
0.39942306611962441
0.39942306611962441
0.39942306611962441
0.39942306611962441
0.39942306611962441
0.39942306611962441
0.39942306611962441
0.39942306611962441
0.39942306611962441
0.39942306611962441
0.39942306611962441
0.39942306611962441
0.39942306611962441
0.39942306611962441
0.39942306611962441
0.39942306611962441
0.39942306611962441
0.39942306611962441
0.39942306611962441
0.39942306611962441
0.39942306611962441
0.39942306611962441
0.39942306611962441
0.39942306611962441
0.39942306611962441
0.39942306611962441
0.39942306611962441
0.39942306611962441
VECTORS v float
-3.6581393117702536e-05 -0.061650844394099159 0
-3.890260867674271e-05 -0.064840139721235424 0
-4.0637515943302307e-05 -0.067385850198031977 0
-4.2294325874928928e-05 -0.069999211691189209 0
-4.3873273891465021e-05 -0.072697267929909826 0
-4.5438792140282982e-05 -0.075508596134107459 0
-4.6895095274333152e-05 -0.07846747622842308 0
-4.8895673734239146e-05 -0.081615474445419348 0
-4.9631834103577785e-05 -0.084999814818513486 0
-5.0920868602888475e-05 -0.088669154142023365 0
-5.2206574409277631e-05 -0.092672405718159545 0
-5.3243044011994785e-05 -0.097076439357754465 0
-5.4359235485187677e-05 -0.10197488324882244 0
-5.5435802057277256e-05 -0.10747161673571878 0
-5.642207636985755e-05 -0.11368194421570194 0
-5.7549612186803767e-05 -0.1207476946026034 0
-5.872442688325989e-05 -0.12885567241998561 0
-5.9930995630831845e-05 -0.13830139981119974 0
-6.1242056795499341e-05 -0.14945907229956112 0
-6.2588597386349689e-05 -0.16284339726530481 0
-6.4040196274731768e-05 -0.17920678445406704 0
-6.5498819271145854e-05 -0.19973642853518653 0
-6.7030724154594945e-05 -0.226998637575518 0
-6.871477796859801e-05 -0.26849939434106618 0
-6.7137766849884704e-05 -0.44603395191835299 0
-2.3028641832667848e-05 -0.063118407473334873 0
-2.4804453010792309e-05 -0.066480714643118638 0
-2.6020398311624126e-05 -0.06917277653448381 0
-2.7173974609416126e-05 -0.071867236143878688 0
-2.8151693226143361e-05 -0.074608531183863111 0
-2.916135767907363e-05 -0.07744257110613173 0
-3.0097701573899612e-05 -0.080416743133492646 0
-3.094866787540145e-05 -0.083578193803461778 0
-3.1602548333580046e-05 -0.086968241556044226 0
-3.2431789607325855e-05 -0.090637865526411995 0
-3.3055499668428928e-05 -0.094638163626715552 0
-3.4542174606818203e-05 -0.099037622660019906 0
-3.5265500735787282e-05 -0.10393080413543003 0
-3.6087276528218884e-05 -0.10941767374856087 0
-3.6853014518066729e-05 -0.11561440182534112 0
-3.7643367041745696e-05 -0.12265556366060702 0
-3.8403402315361443e-05 -0.13071213232008416 0
-3.928189428482209e-05 -0.14004192123146783 0
-4.0069947235557765e-05 -0.15096639968553641 0
-4.0962363714327501e-05 -0.16393977945248892 0
-4.1825811254796908e-05 -0.1795921401264616 0
-4.2524394441876054e-05 -0.19907710079662433 0
-4.3046366297895201e-05 -0.22481964778703561 0
-4.3581993600829131e-05 -0.26373086066137297 0
-4.3155413097596165e-05 -0.38873540282645502 0
-9.6597828500506742e-06 -0.06331322947112826 0
-1.0463581688900833e-05 -0.066635931117486016 0
-1.1083181538542822e-05 -0.069296253378494585 0
-1.1674784597310843e-05 -0.071962285108529131 0
-1.2105945248648146e-05 -0.074679351644908284 0
-1.267245265210107e-05 -0.077492076717634847 0
-1.3040713532405137e-05 -0.080447739692386583 0
-1.3961481011989006e-05 -0.083590123254726964 0
-1.4411089313227451e-05 -0.086966830785902199 0
-1.4950001069233932e-05 -0.090625097023661422 0
-1.5545093243445501e-05 -0.094612150914396731 0
-1.5735334710402343e-05 -0.098995753009165244 0
-1.6259375112067365e-05 -0.10386774541977392 0
-1.6582190942220011e-05 -0.10933147132495319 0
-1.7008466806303854e-05 -0.11549766714956143 0
-1.7693522396260213e-05 -0.1225072199032417 0
-1.8335808787873988e-05 -0.13052960345767167 0
-1.8716209032384194e-05 -0.13977917276036236 0
-1.9592574110457763e-05 -0.1505637753660222 0
-1.9985601085232287e-05 -0.16330132186388191 0
-2.056300144681244e-05 -0.1785691393173526 0
-2.1610715061190017e-05 -0.19749197909871183 0
-2.2064666636868121e-05 -0.22235213097598683 0
-2.2654237769627219e-05 -0.25961483897947635 0
-2.266693720657347e-05 -0.3754118085301732 0
-3.7647980329433186e-06 -0.06329565715569696 0
-4.0752779163193294e-06 -0.066593796382027753 0
-4.6973014929424366e-06 -0.069234310028043158 0
-4.7728593755736499e-06 -0.07188080990144273 0
-5.1268249328893321e-06 -0.074578892367611282 0
-5.3438042564768132e-06 -0.077371295897720238 0
-5.500648424844484e-06 -0.080308324626543637 0
-5.6833785450124726e-06 -0.083432726845161315 0
-5.8592207773817773e-06 -0.086789904060611781 0
-6.5336762611256167e-06 -0.090427278093680091 0
-6.5511504136119301e-06 -0.094392048677305801 0
-6.6287046698323128e-06 -0.098751164834076144 0
-7.2136278884742336e-06 -0.10359788612116709 0
-7.5389859151316552e-06 -0.10902987566338179 0
-7.5620707432024132e-06 -0.11515953939111534 0
-8.0535739569996804e-06 -0.1221267683109786 0
-8.2394843424445794e-06 -0.13010185269868349 0
-8.4716236271026601e-06 -0.13928383204024924 0
-8.7595346396051912e-06 -0.14997526562161043 0
-8.8334093295814926e-06 -0.16257709973202131 0
-9.3686623604363444e-06 -0.17765441429634865 0
-9.6291738972158567e-06 -0.1963125507002087 0
-1.0028386296937124e-05 -0.22075325358465447 0
-1.0374252663751897e-05 -0.25725381284150067 0
-1.0601787601387999e-05 -0.36885053577018739 0
-6.0274344674906058e-07 -0.063278733235743775 0
-6.7531179033438035e-07 -0.066564099726409087 0
-8.2110985734584094e-07 -0.069192798797761926 0
-6.9131461033336031e-07 -0.071829740706165907 0
-9.2042550584598241e-07 -0.074517151835221548 0
-1.0275275890607337e-06 -0.077298129391785819 0
-1.1169027132250758e-06 -0.080223538913374304 0
-1.2347470686382966e-06 -0.083336410675658543 0
-1.0936256536022739e-06 -0.086680629403029133 0
-9.160855579475311e-07 -0.09030383162784264 0
-1.0820553167327613e-06 -0.094254212060061598 0
-1.3905677228209108e-06 -0.098596447061706088 0
-1.8240473787943841e-06 -0.1034232737697735 0
-1.652614059876773e-06 -0.10883301600720109 0
-2.154896025254994e-06 -0.11493772291345128 0
-1.9994903276770413e-06 -0.12187265497943527 0
-2.0099018770140404e-06 -0.12980899585443229 0
-1.8530677931018373e-06 -0.13894301047505811 0
-2.104836125094527e-06 -0.14957204961107609 0
-2.566496021713182e-06 -0.16209053175180416 0
-2.8045506002348278e-06 -0.17705815069319647 0
-2.9791266152148521e-06 -0.19556066107199899 0
-3.2261881201355797e-06 -0.21976403624377355 0
-3.5537707367951195e-06 -0.25584801587324041 0
-3.6659875322614247e-06 -0.36524186004612125 0
8.3886646507877219e-07 -0.063275593419719806 0
7.9656782060584505e-07 -0.066555842380875474 0
5.7587824753294279e-07 -0.06917955828514652 0
7.1347524822055449e-07 -0.071810296603859042 0
8.3438383307419195e-07 -0.074491675006746236 0
8.4468364676295731e-07 -0.077267598742028681 0
8.4276881728406962e-07 -0.080186758297587132 0
7.6199143393003076e-07 -0.083293468371636328 0
9.2704266456514139e-07 -0.086630905008633408 0
9.5874072358610196e-07 -0.090246341510566735 0
7.9825824833427552e-07 -0.094188294777850318 0
1.0543297454134993e-06 -0.098521157362525744 0
7.6541742466922242e-07 -0.10333701492047594 0
7.9264268727010958e-07 -0.10873405024167029 0
1.1342067260726313e-06 -0.11482179296752353 0
1.8651923195685799e-06 -0.12174019513924517 0
1.6344734838272183e-06 -0.12965339470240425 0
1.5154332377034487e-06 -0.13875926728390411 0
1.6604449182067172e-06 -0.14935198436391381 0
1.6193956319406371e-06 -0.1618238352194217 0
1.4141919631648717e-06 -0.17672790639494998 0
1.603197047463991e-06 -0.195143079744661 0
1.5187037064594826e-06 -0.21921600400857091 0
1.2475603989150864e-06 -0.25507468341897926 0
6.5902982279691468e-07 -0.36330988898177924 0
2.0532057645870737e-06 -0.063281061675090969 0
2.1808862490833109e-06 -0.066556878587343341 0
2.303747909728916e-06 -0.069178484215740313 0
2.557815715791821e-06 -0.07180614472204315 0
2.5502755843889278e-06 -0.074484999375593094 0
2.6554692326093284e-06 -0.07725808969886408 0
2.7877695868413301e-06 -0.080174472074281022 0
2.8434681266884529e-06 -0.083277540087495452 0
3.080935900374861e-06 -0.086611389300725011 0
3.4272587572055491e-06 -0.09022314520620188 0
3.5755155529717708e-06 -0.094160316493113114 0
3.7265702488052493e-06 -0.09848858019280024 0
3.3595019918512367e-06 -0.10330005316606376 0
3.4831127791117063e-06 -0.10869010874209777 0
4.3211163911993999e-06 -0.11477169025854181 0
4.4202740255528685e-06 -0.12167962139456497 0
4.4642772035557495e-06 -0.12958243123127275 0
4.2516663315785746e-06 -0.13867406202774851 0
4.2715640678842839e-06 -0.14924984892646445 0
4.3612516293234546e-06 -0.16169794336068655 0
4.2665247980091726e-06 -0.17657170701899311 0
4.2826821180066766e-06 -0.19494380609666487 0
4.0621574953935742e-06 -0.21895288814768496 0
3.9228337937781235e-06 -0.25470285749837268 0
3.4738934612651622e-06 -0.36238592223643495 0
3.0566840424049713e-06 -0.063282425729836639 0
3.3229449363899239e-06 -0.066557704829807288 0
3.8245998797724558e-06 -0.069178250722922441 0
3.9716271936303027e-06 -0.071805522168136363 0
4.2055904115194922e-06 -0.074483339087133296 0
4.6466502169907776e-06 -0.077255990131693722 0
5.1798420921703203e-06 -0.08017145020867987 0
5.5311955353418414e-06 -0.083273664517917373 0
6.0527225221520668e-06 -0.086606935530195689 0
5.4701869915415874e-06 -0.090217779219265382 0
5.5830164199750697e-06 -0.094153943504545326 0
4.2671064807337279e-06 -0.098481367495596023 0
4.1696640248793507e-06 -0.10329007595645547 0
4.2838501255139728e-06 -0.10867829047960793 0
4.6838286906180482e-06 -0.11475750424394987 0
5.6489335440129613e-06 -0.12166273401927155 0
5.6507937288779245e-06 -0.12956226928901696 0
5.9297880203660721e-06 -0.13864890959584111 0
5.9683069085834111e-06 -0.14922007035736967 0
5.9345804791534925e-06 -0.16166074194732277 0
5.6112340250841847e-06 -0.17652570552495883 0
5.4831432082931726e-06 -0.19488498498097617 0
5.4181126078038668e-06 -0.2188756534012965 0
5.450546410936772e-06 -0.2545931402140521 0
5.0279760328609017e-06 -0.36211401151725087 0
2.9226495293370824e-06 -0.063279125393902874 0
3.1281483620728119e-06 -0.066555098688363096 0
3.5442224762510696e-06 -0.069177829644703356 0
3.8156266084613046e-06 -0.07180560123970374 0
4.2018994141304627e-06 -0.074484429186369203 0
4.7545245299772951e-06 -0.077257725076094477 0
4.6392186176981123e-06 -0.080174079765002446 0
5.1726612621782063e-06 -0.083277354504324358 0
5.3510459536448735e-06 -0.086611480242014094 0
5.6626365532660155e-06 -0.090223612226102964 0
6.4122682238067981e-06 -0.094161004532509682 0
6.1318158594386736e-06 -0.098488867474209416 0
4.9874731888222765e-06 -0.10329933204246458 0
5.2694787001619276e-06 -0.10868955266306392 0
5.1476962956239377e-06 -0.1147710620446834 0
5.3717344307139009e-06 -0.12167887086430551 0
6.0132717205082287e-06 -0.12958137259595531 0
5.4962529851107286e-06 -0.13867330367611619 0
6.3515301822746772e-06 -0.14924895298218535 0
6.2998842092617055e-06 -0.16169713486671786 0
6.2586278073728498e-06 -0.17657081232763971 0
6.3241360315208957e-06 -0.19494319559127526 0
6.4560063797087278e-06 -0.21895254299646333 0
6.2758529921331071e-06 -0.25470220125806559 0
5.7356656868427243e-06 -0.36238392715191786 0
3.0210562140539704e-06 -0.063274889012907065 0
3.3259610942364443e-06 -0.066553962408650066 0
3.4381993967971875e-06 -0.069178369473236065 0
3.6632599082547892e-06 -0.071808562435832238 0
3.994230418315689e-06 -0.074490559353761282 0
4.27786299890327e-06 -0.077266409492102575 0
4.0464880057898232e-06 -0.080185794883303005 0
4.60453319204973e-06 -0.083291993559340624 0
5.5078755182559028e-06 -0.086629232655628288 0
5.8364612358673364e-06 -0.090245331281999963 0
6.6068182687491598e-06 -0.094187157745584019 0
6.1811981084147367e-06 -0.098520278148363907 0
5.6655639498906594e-06 -0.10333608661346334 0
5.3693040993027128e-06 -0.10873290109032997 0
5.528116260976378e-06 -0.11482217292888286 0
5.6658437972043361e-06 -0.12173928695002353 0
5.8287200015379089e-06 -0.12965305464001425 0
5.7995737012644629e-06 -0.13875887767532125 0
5.5202892273461869e-06 -0.14935128272418646 0
5.6423520955483843e-06 -0.16182270414452762 0
5.8279537603366303e-06 -0.17672714278800186 0
5.9236073657977761e-06 -0.19514266973675307 0
6.0905838249778753e-06 -0.21921505374549516 0
6.1844666699897545e-06 -0.25507379382641909 0
6.0782622553264472e-06 -0.36330723935119802 0
3.2864194984841066e-06 -0.063277140037728691 0
3.512441661103207e-06 -0.066563598076200436 0
3.7811653464366876e-06 -0.069192911245835487 0
3.9231655014918179e-06 -0.071828879402176915 0
4.1645919813816768e-06 -0.074517223619480211 0
4.290304429288386e-06 -0.07729952001755154 0
4.657985488811721e-06 -0.080225167759600369 0
4.7009818330079028e-06 -0.083336102490543199 0
4.9523269293242745e-06 -0.086679827586388092 0
5.0022690286172628e-06 -0.090303665886945203 0
5.6062709367915612e-06 -0.094253640238507186 0
5.5243997820431668e-06 -0.098596043378487763 0
5.962020144760822e-06 -0.1034229831731979 0
6.0240573392328333e-06 -0.10883234905617871 0
6.1324801175382097e-06 -0.11493672485906575 0
6.5214371151124284e-06 -0.1218721670841567 0
6.5342744565687521e-06 -0.12980849160464222 0
6.6818775341943445e-06 -0.13894219335188093 0
7.0005890829131679e-06 -0.14957121820278615 0
7.6078094608636528e-06 -0.16208979069829632 0
7.8827372477870402e-06 -0.17705771724901101 0
8.14255244490283e-06 -0.19556006065373671 0
8.2209118973695603e-06 -0.21976303738687625 0
8.3402934282038621e-06 -0.25584632434979326 0
8.3246604176322398e-06 -0.36523775878977488 0
5.6037165673015605e-06 -0.063295171709512585 0
6.3439777261276814e-06 -0.066593634941130117 0
6.7732966137725172e-06 -0.069234204649922013 0
7.124222766185541e-06 -0.071880955784068848 0
7.4034629076720128e-06 -0.074579101232889786 0
7.696490501063464e-06 -0.07737191285770996 0
8.0338534814073784e-06 -0.08030861179983774 0
8.2158874306659906e-06 -0.083433559567180265 0
8.1640151035492233e-06 -0.086790358093847206 0
8.4459460095362568e-06 -0.09042747218334031 0
9.009026318619057e-06 -0.094392768659630144 0
9.1213642255180061e-06 -0.098752257668438065 0
1.0589612842170152e-05 -0.10359673497630625 0
1.0963095973717068e-05 -0.10902829166205091 0
1.1245619732343595e-05 -0.11515938537888397 0
1.1826007185078519e-05 -0.1221263103046747 0
1.1903768850602197e-05 -0.13010118607027266 0
1.2154636804553554e-05 -0.13928351857271587 0
1.272505471047125e-05 -0.14997470085027606 0
1.3152703662139535e-05 -0.16257626395230237 0
1.2881888084726903e-05 -0.1776545232425141 0
1.341649561925517e-05 -0.19631103393131966 0
1.3884264479667414e-05 -0.22075052062852749 0
1.4372211217229349e-05 -0.25725019070486049 0
1.4639898962427962e-05 -0.36884378476576546 0
1.0721533210483016e-05 -0.063312210218659112 0
1.1697259842629653e-05 -0.066634979460517038 0
1.232210838282141e-05 -0.069295038154655153 0
1.3153603599399201e-05 -0.071961366003548063 0
1.3793528615854238e-05 -0.074678365291523857 0
1.4316685092288543e-05 -0.077490734977604919 0
1.4946779597229556e-05 -0.080446211268234577 0
1.5662479892162477e-05 -0.083590045323106918 0
1.6514202437428137e-05 -0.086966411548093731 0
1.7038644146547772e-05 -0.090624416454716847 0
1.8043459974768801e-05 -0.094611671000695979 0
1.8742090773662392e-05 -0.098995288892408773 0
1.7455896242197242e-05 -0.10386773800665045 0
1.8341393474139795e-05 -0.10933011430253728 0
1.9207899766538637e-05 -0.11549697246457793 0
1.9704003727082922e-05 -0.12250627343722313 0
2.0324221778135459e-05 -0.13052863223609518 0
2.1019581430192393e-05 -0.13977783703697361 0
2.1747959751923843e-05 -0.15056286141617384 0
2.2671025749991427e-05 -0.16329987002659432 0
2.3450751129084215e-05 -0.17856767350663705 0
2.4593704648024476e-05 -0.19748823820640468 0
2.5472717346134882e-05 -0.22234852327801122 0
2.64585202292324e-05 -0.25961044894037916 0
2.6893964400877304e-05 -0.37540408897038247 0
2.3177841497917279e-05 -0.063117301816306162 0
2.4917878524207824e-05 -0.066479780589492249 0
2.6319201737097774e-05 -0.069171724015665348 0
2.7468014052833914e-05 -0.071866627914671605 0
2.8607255732660274e-05 -0.074608366837940282 0
2.9586480868383931e-05 -0.077442174565577671 0
3.0255571777425327e-05 -0.080416333162580733 0
3.1252698406669592e-05 -0.083575836511360843 0
3.2148058270207627e-05 -0.086966659708917399 0
3.3101981363418189e-05 -0.090636612954764634 0
3.3912365711956666e-05 -0.094637499326188326 0
3.3979379483424821e-05 -0.099037435502295837 0
3.5146439214454085e-05 -0.1039302549003383 0
3.5983481328519309e-05 -0.10941717044686283 0
3.6937322182415521e-05 -0.11561385511107876 0
3.7824758955891774e-05 -0.12265485393677997 0
3.8813608445051493e-05 -0.13071131894948521 0
3.9598925271392832e-05 -0.14004121188688778 0
4.0629772232861851e-05 -0.15096565065167813 0
4.1691823699202139e-05 -0.16393840002207125 0
4.2712644070377259e-05 -0.17959021295958966 0
4.3714631254133982e-05 -0.19907437789201174 0
4.4812572400852977e-05 -0.22481549183090913 0
4.5775273188557186e-05 -0.26372599053285561 0
4.555202277511922e-05 -0.3887269528232804 0
3.5927129020239455e-05 -0.061650121949126835 0
3.8183841919366861e-05 -0.064839406367768138 0
4.0034732714770113e-05 -0.0673853409523541 0
4.1640965622468867e-05 -0.069998662315019194 0
4.2958408835081679e-05 -0.072696456044115107 0
4.4115300402021015e-05 -0.075507480050830592 0
4.5486646362665212e-05 -0.078466357230835893 0
4.6775032007562452e-05 -0.08161407587647089 0
4.8122843253016423e-05 -0.084998775268650212 0
4.9320033661007476e-05 -0.088668140822871111 0
5.0462343122552824e-05 -0.092671259399850131 0
5.1602544004320091e-05 -0.097075300222104977 0
5.2809018290628976e-05 -0.10197382052997364 0
5.3874230763947616e-05 -0.10747029748856579 0
5.4878651289280515e-05 -0.11368055395654199 0
5.604230253256999e-05 -0.12074604999487488 0
5.7226090975750863e-05 -0.12885399881799425 0
5.8419914790362484e-05 -0.13829944841218675 0
5.968821990783342e-05 -0.14945704922544262 0
6.0978100681900891e-05 -0.16284112902964312 0
6.2360529171298393e-05 -0.1792040947234122 0
6.3766642249667971e-05 -0.19973331667414454 0
6.5100911219815691e-05 -0.22699522188694268 0
6.6389145312102673e-05 -0.26849616385631181 0
6.3038529367759888e-05 -0.44603452583098568 0
-0 -0 0
-0 -0 0
-0 -0 0
-0 -0 0
-0 -0 0
-0 -0 0
3.7788235957442209e-05 0.063095651570347799 0
4.3568940268290651e-05 0.073295806146649392 0
5.1325386826251099e-05 0.097238874401197634 0
-0 -0 0
-0 -0 0
-0 -0 0
3.9704914706804181e-05 0.067174556011874428 0
4.3555266963402372e-05 0.076627051012855538 0
5.0179774425000773e-05 0.10026408725960331 0
-0 -0 0
-0 -0 0
-0 -0 0
3.1807166588697524e-05 0.068048502887689585 0
3.5594961039803041e-05 0.077422217292122467 0
4.140849512213543e-05 0.10085521391769692 0
-0 -0 0
-0 -0 0
-0 -0 0
1.8075411607974971e-05 0.068762368268121904 0
2.0669395951708427e-05 0.077959971704835776 0
2.4554192678168768e-05 0.10104043960075035 0
-0 -0 0
-0 -0 0
-0 -0 0
7.7122485179770781e-06 0.068813292493432279 0
9.190553016533737e-06 0.077949294037623865 0
1.134401489413688e-05 0.10073532151091474 0
-0 -0 0
-0 -0 0
-0 -0 0
2.5679661366872268e-06 0.068773034853341311 0
3.2123155147226261e-06 0.07784682097436188 0
4.2045481343438967e-06 0.10044298346848987 0
-0 -0 0
-0 -0 0
-0 -0 0
1.7164465452905314e-07 0.068751448342975155 0
2.5344548259667172e-07 0.077789566415759473 0
3.8397121451365399e-07 0.10028198886050033 0
-0 -0 0
-0 -0 0
-0 -0 0
-1.2543568094078075e-06 0.068747868634335838 0
-1.4959322395490975e-06 0.077767694596484846 0
-1.9311658571110273e-06 0.10020814626463573 0
-0 -0 0
-0 -0 0
-0 -0 0
-2.8459876440805262e-06 0.068748918826248701 0
-3.3528949554775548e-06 0.077761327685792539 0
-3.9869470321774587e-06 0.10018045132042781 0
-0 -0 0
-0 -0 0
-0 -0 0
-3.4763684707811961e-06 0.068748076888277984 0
-4.2107704843166468e-06 0.077760766400874107 0
-5.0049730470971764e-06 0.10018003667198921 0
-0 -0 0
-0 -0 0
-0 -0 0
-3.4719178522547597e-06 0.068746307716025065 0
-4.177957838704054e-06 0.077766468218050638 0
-5.0561946171759349e-06 0.10020706827641765 0
-0 -0 0
-0 -0 0
-0 -0 0
-3.6846523992743263e-06 0.068750705690777958 0
-4.2800079252700794e-06 0.077788722520622258 0
-5.1942966263381997e-06 0.10028091737005849 0
-0 -0 0
-0 -0 0
-0 -0 0
-5.0003705413518526e-06 0.068772902853561454 0
-5.8214165576249685e-06 0.077846557201529207 0
-7.3278361211546068e-06 0.10044213992859596 0
-0 -0 0
-0 -0 0
-0 -0 0
-9.0538014536623481e-06 0.068812872639732001 0
-1.0651202602669852e-05 0.077948898215684889 0
-1.3223888510936301e-05 0.1007342178572372 0
-0 -0 0
-0 -0 0
-0 -0 0
-1.8650564710016348e-05 0.068761951280352118 0
-2.1335185293412515e-05 0.077959444996799576 0
-2.5363271081450765e-05 0.10103905020414877 0
-0 -0 0
-0 -0 0
-0 -0 0
-3.1885569631961199e-05 0.068048229859551584 0
-3.5550018717959308e-05 0.077421779724278342 0
-4.1176868682270295e-05 0.1008538675960171 0
-0 -0 0
-0 -0 0
-0 -0 0
-3.9465450522994246e-05 0.067173990938218936 0
-4.3088797301424567e-05 0.076626121706249911 0
-4.9391793625887672e-05 0.10026252328362019 0
-0 -0 0
-0 -0 0
-0 -0 0
-3.7587594941260209e-05 0.063094742622870126 0
-4.3103979534838438e-05 0.073294253035089546 0
-5.0458640316941895e-05 0.097236543268200165 0
-0 -0 0
-0 -0 0
-0 -0 0
-0 -0 0
-0 -0 0
-0 -0 0
-0 -0 0
-0 -0 0
-0 -0 0
-0 -0 0
-0 -0 0
-0 -0 0
-0 -0 0
-0 -0 0
-0 -0 0
-0 -0 0
-0 -0 0
-0 -0 0
-0 -0 0
-0 -0 0
-0 -0 0
-0 -0 0
-0 -0 0
-0 -0 0
-0 -0 0
-0 -0 0
-0 -0 0
-0 -0 0
-0 -0 0
-0 -0 0
-0 -0 0
-0 -0 0
-0 -0 0
-0 -0 0
-0 -0 0
-0 -0 0
-0 -0 0
-0 -0 0
-0 -0 0
-0 -0 0
-0 -0 0
-0 -0 0
-0 -0 0
-0 -0 0
-0 -0 0
-0 -0 0
-0 -0 0
-0 -0 0
-0 -0 0
-0 -0 0
-0 -0 0
-0 -0 0
-0 -0 0
-0 -0 0
-0 -0 0
-0 -0 0
-0 -0 0
-0 -0 0
-0 -0 0
-0 -0 0
-0 -0 0
-0 -0 0
-0 -0 0
-0 -0 0
-0 -0 0
-0 -0 0
-0 -0 0
-0 -0 0
-0 -0 0
-0 -0 0
-0 -0 0
-0 -0 0
-0 -0 0
-0 -0 0
-0 -0 0
-0 -0 0
-0 -0 0
-0 -0 0
-0 -0 0
-0 -0 0
-0 -0 0
-0 -0 0
-0 -0 0
-0 -0 0
-0 -0 0
-0 -0 0
-0 -0 0
-0 -0 0
-0 -0 0
-0 -0 0
-0 -0 0
-0 -0 0
-0 -0 0
-0 -0 0
-0 -0 0
-0 -0 0
-0 -0 0
-0 -0 0
-0 -0 0
-0 -0 0
-0 -0 0
-0 -0 0
-0 -0 0
-0 -0 0
-0 -0 0
-0 -0 0
-0 -0 0
-0 -0 0
-0 -0 0
-0 -0 0
-0 -0 0
-0 -0 0
-0 -0 0
-0 -0 0
-0 -0 0
-0 -0 0
-0 -0 0
-0 -0 0
-0 -0 0
-0 -0 0
-0 -0 0
-0 -0 0
-0 -0 0
-0 -0 0
-0 -0 0
-0 -0 0
-0 -0 0
-0 -0 0
-0 -0 0
-0 -0 0
-0 -0 0
-0 -0 0
-0 -0 0
-0 -0 0
-0 -0 0
-0 -0 0
-0 -0 0
-0 -0 0
-0 -0 0
-0 -0 0
-0 -0 0
-0 -0 0
-0 -0 0
-0 -0 0
-0 -0 0
-0 -0 0
-0 -0 0
-0 -0 0
-0 -0 0
-0 -0 0
-0 -0 0
-0 -0 0
-0 -0 0
-0 -0 0
-0 -0 0
-0 -0 0
-0 -0 0
-0 -0 0
-0 -0 0
-0 -0 0
-0 -0 0
-0 -0 0
-0 -0 0
-0 -0 0
-0 -0 0
-0 -0 0
-0 -0 0
-0 -0 0
-0 -0 0
-0 -0 0
-0 -0 0
-0 -0 0
-0 -0 0
-0 -0 0
-0 -0 0
-0 -0 0
-0 -0 0
-0 -0 0
-0 -0 0
-0 -0 0
-0 -0 0
-0 -0 0
-0 -0 0
-0 -0 0
-0 -0 0
-0 -0 0
-0 -0 0
-0 -0 0
-0 -0 0
-0 -0 0
-0 -0 0
-0 -0 0
-0 -0 0
-0 -0 0
-0 -0 0
