# vtk DataFile Version 3.0
SPH particles (WCSPH) - legacy PolyData
ASCII
DATASET POLYDATA
POINTS 681 float
0.049991864920410807 0.025687738272870447 0
0.04999060347368732 0.028235824915720222 0
0.04998960245710702 0.030257969153136107 0
0.049988650128428985 0.032280411819676544 0
0.049987799781539909 0.034283968709485774 0
0.049987039444681781 0.036265283965077479 0
0.049986380669619267 0.038230983466126328 0
0.049985632896853711 0.040191838753645397 0
0.049984699863117238 0.042160241872125401 0
0.049983381695819333 0.044150006561542277 0
0.049981283519346706 0.046176679063177059 0
0.049978684095960263 0.048257692198403743 0
0.049977552121560298 0.050412741217601795 0
0.049978730521402864 0.052664602901043162 0
0.049981107485614483 0.055040279806470895 0
0.049984043494547846 0.057573419532196378 0
0.049987044072651317 0.060309315877667739 0
0.049989979167309767 0.063326465813042576 0
0.049992671070767714 0.066725772874773354 0
0.049995035085231475 0.070684466618226624 0
0.04999703933469344 0.075607417700589208 0
0.049998678003883287 0.082967363124643881 0
0.049999749736642334 0.098673597111111733 0
0.049999982358213166 0.12444960032225426 0
0.050000000000000003 0.18081773484895414 0
0.069995757710076364 0.024186497174078714 0
0.069995025334313093 0.027039342712479635 0
0.069994411420535724 0.029339445034205464 0
0.069993850170646021 0.031585042301095829 0
0.069993342365728101 0.033771839094692807 0
0.069992840105057866 0.035908173556318659 0
0.069992335610410114 0.038009249854279351 0
0.069991815277433769 0.040092183312341323 0
0.069991206347892548 0.042173652846745097 0
0.069990296751662365 0.04427067333993525 0
0.069988622040052503 0.046401350224572258 0
0.069985992202754171 0.048585232030205358 0
0.069984369488353682 0.050843874746907013 0
0.069984635547387708 0.053202151835938773 0
0.069986204348398903 0.055689970499234943 0
0.069988400637581716 0.058343147856658388 0
0.069990694185754557 0.061206992948271213 0
0.069992986819766276 0.064358215240314667 0
0.069994965763412728 0.067903263238381362 0
0.069996620239752991 0.07202706992769238 0
0.069997997633413162 0.077115416769471562 0
0.069999084508772111 0.084411347882653046 0
0.069999791495164623 0.099304726621869135 0
0.069999983019069414 0.12478181312677328 0
0.070000000000000007 0.17989172832415126 0
0.089998405348159644 0.024130120316829956 0
0.089998085108304232 0.026990472779110004 0
0.089997865221336862 0.029298150051951008 0
0.08999758688242443 0.031554897157314979 0
0.089997311140608036 0.033755382968136807 0
0.089997084047989451 0.035907300964837345 0
0.089996644048881108 0.038025775908325593 0
0.089996438353814434 0.040127774910808683 0
0.089996140332660915 0.04223010581349855 0
0.089995808479727893 0.04434993071604925 0
0.089995440640600596 0.046505530174288552 0
0.089994719079051391 0.048716773347913321 0
0.089993861292862742 0.051005427252375814 0
0.089993506324020131 0.053396692865138075 0
0.089994039694574549 0.055921317110739673 0
0.089994939686698361 0.058617958712274723 0
0.089995958584625738 0.061533605205509594 0
0.089996921116886106 0.064733091780949575 0
0.089997774498131178 0.068326103739902763 0
0.089998477866107443 0.072496315080658513 0
0.089999079762449252 0.077620116438718578 0
0.089999577532442102 0.084913451766440745 0
0.089999902290881728 0.099636783056252953 0
0.089999990934541321 0.12502315922594812 0
0.090000000000000011 0.17935684028129587 0
0.10999950798781845 0.024153530898326964 0
0.10999933739213137 0.027016104103241276 0
0.10999922309090439 0.029326027632835056 0
0.10999908917954027 0.031585507777666763 0
0.10999896131790178 0.033789212030360116 0
0.10999896132915089 0.035944809868442139 0
0.10999899797584932 0.038067495823908323 0
0.10999891617707111 0.040174175902254618 0
0.10999885701923046 0.042281670289545756 0
0.1099987643015627 0.044407292273551217 0
0.10999856607691169 0.046569441232118668 0
0.10999880659837892 0.04878808766788216 0
0.10999822801117039 0.051085059993269781 0
0.10999771568969668 0.053485736984255725 0
0.10999776911095945 0.056020937670322402 0
0.10999804945478782 0.058729618130279743 0
0.109998362645953 0.061660418439032236 0
0.10999879084706346 0.064874363378654848 0
0.10999910986509889 0.068482191442461746 0
0.10999938570619365 0.072666779866471493 0
0.1099996240863568 0.077806187718749711 0
0.10999982714140577 0.085111670309050716 0
0.10999995809835039 0.099807049817672688 0
0.10999999575968029 0.12517826709079713 0
0.11000000000000001 0.1790209722629244 0
0.1299999303369912 0.024168683397536684 0
0.12999991554043461 0.027033172060942263 0
0.12999990553953478 0.029344603275715104 0
0.12999990170032963 0.031605587915136284 0
0.12999995888523577 0.033810785125902444 0
0.13000002346506326 0.035967956130605522 0
0.13000008101590699 0.038092352729452494 0
0.13000012464539218 0.040200793055216968 0
0.13000019546293967 0.04231022533179301 0
0.13000032349281715 0.044437931991284312 0
0.13000039651430964 0.046602375331739436 0
0.13000025803008486 0.048823569827868042 0
0.12999995960474961 0.051123542844909456 0
0.12999968218445238 0.053527401188181077 0
0.12999948665232278 0.056066291763458523 0
0.1299994036536184 0.058779050266872523 0
0.12999949273153899 0.061714305977366719 0
0.12999961160881529 0.064933034176143142 0
0.12999971408742603 0.068546105025665688 0
0.12999979948196386 0.072736365135055825 0
0.12999987490609774 0.07788270834210452 0
0.12999993444770444 0.085196636332684317 0
0.1299999837116611 0.099896335926777352 0
0.12999999824626648 0.1252718152300813 0
0.13 0.17882626878617816 0
0.15000018738333668 0.024175928529711187 0
0.15000022009870598 0.027041412318317776 0
0.1500002638180406 0.02935363093066996 0
0.15000031824641274 0.031615381365598876 0
0.15000048929316157 0.033821324018629119 0
0.15000053328675225 0.035979206085427144 0
0.15000053459726684 0.038104309887695267 0
0.15000056192621325 0.040213546723865408 0
0.15000061714743704 0.042323791333051565 0
0.15000067781179469 0.044452369004394539 0
0.15000075479084846 0.046617792672548578 0
0.15000063029067684 0.048840013228742256 0
0.15000058297909155 0.051141203564404367 0
0.15000036394594501 0.05354646858492558 0
0.15000016957757809 0.056086806012456213 0
0.15000001987616488 0.058801211750568502 0
0.14999996757455686 0.06173824341238103 0
0.14999997036437279 0.064958917847333777 0
0.1499999841852461 0.068574250743318174 0
0.1499999894472388 0.072767095675572172 0
0.14999997645489799 0.077916595090144258 0
0.14999998132638614 0.085235212331114182 0
0.14999999519335999 0.099942834072095407 0
0.14999999942900616 0.12532422927952142 0
0.15000000000000002 0.17872296027420148 0
0.17000030930630611 0.024179094393895605 0
0.17000037999450321 0.027045016598500844 0
0.17000041554477155 0.029357568918491183 0
0.17000053805769882 0.031619606741143384 0
0.1700006178802437 0.033825810807812731 0
0.17000075010684113 0.035984028677101244 0
0.17000093963944468 0.038109503845108715 0
0.17000099794132512 0.040219064290927482 0
0.17000103294610155 0.042329633294554171 0
0.17000106201492643 0.044458563133492675 0
0.17000106045863561 0.04662439725465202 0
0.1700009525460989 0.048847106981695337 0
0.17000094429097629 0.051148781558855362 0
0.17000093283916215 0.053554483941012088 0
0.17000047810589283 0.056095461356804793 0
0.17000033384499216 0.058810568049698142 0
0.17000022901374548 0.061748376475905351 0
0.17000016962467387 0.064969879637654618 0
0.17000013098759778 0.068586173013202328 0
0.17000009796225893 0.072780146059325146 0
0.17000004965015916 0.077931103569211874 0
0.17000002184149077 0.085252151210696181 0
0.17000000372108162 0.099965040581537379 0
0.16999999998703177 0.12535006967254378 0
0.17000000000000004 0.17867492583144925 0
0.19000022335618219 0.024179991178884929 0
0.19000025647352792 0.027045999095711412 0
0.19000040064520865 0.029358705922133001 0
0.19000044630320836 0.031620802668644463 0
0.1900005373197993 0.033827068692178434 0
0.1900007393780449 0.035985424814499629 0
0.19000093547417762 0.038110910777826315 0
0.19000091031820265 0.040220486219380118 0
0.19000096272165368 0.042331138650513987 0
0.19000098662472339 0.044460206961127943 0
0.1900008489688336 0.046626143427652221 0
0.1900009083877339 0.048849038589030017 0
0.19000061949398328 0.051150845203997319 0
0.19000053428142963 0.053556783259087103 0
0.19000048125630584 0.056097902061322605 0
0.19000029695598408 0.058813177318820097 0
0.19000025529523082 0.061751204115945209 0
0.19000024209612817 0.064972951044951432 0
0.19000017805419031 0.068589509694557876 0
0.19000021142948029 0.072783810356097864 0
0.19000014912765359 0.077935177767687477 0
0.19000007807901387 0.085256971966406581 0
0.19000001149402851 0.099971591102064203 0
0.19000000063903011 0.12535777131753204 0
0.19 0.17866117685782851 0
0.21000028808507254 0.02417912555834844 0
0.21000036231371697 0.027045026992769793 0
0.21000041296783531 0.029357571208196279 0
0.21000047120130502 0.03161963287585625 0
0.21000056762000757 0.033825850787137839 0
0.21000059155359646 0.035984087910390386 0
0.21000068194820665 0.038109538629428306 0
0.21000070672537299 0.040219097938312222 0
0.21000076030473661 0.042329694205009205 0
0.21000079032885274 0.044458673921812256 0
0.21000075909844726 0.046624514041674461 0
0.21000071251420072 0.04884722387863303 0
0.21000054303025922 0.051148847330143098 0
0.21000039012733726 0.053554595806362182 0
0.21000037356402476 0.056095570944727113 0
0.21000028133955817 0.058810637521999047 0
0.21000023750097876 0.061748458408290914 0
0.21000028420935571 0.064969966431478579 0
0.21000012495860509 0.068586257117781629 0
0.21000009357824825 0.072780254185113594 0
0.21000005466266899 0.077931186147525991 0
0.21000003799329622 0.085252232923254831 0
0.21000000678356895 0.099965060610153061 0
0.21000000070827021 0.12535007006437665 0
0.21000000000000002 0.17867492583144925 0
0.23000034798264041 0.024175986935150828 0
0.23000041746476541 0.027041484493475366 0
0.23000049069792095 0.029353721248290509 0
0.23000056132547952 0.031615418374622277 0
0.2300006787077214 0.033821392055096343 0
0.23000076088825053 0.035979292805637025 0
0.23000085246191762 0.038104428252918536 0
0.23000088279146061 0.040213650746047845 0
0.23000098187685469 0.042323894493899478 0
0.23000104797215906 0.044452479137743466 0
0.23000106049377556 0.046617919371966916 0
0.23000090701997405 0.048840221685504247 0
0.23000073828581463 0.051141408902963294 0
0.23000064722024655 0.053546605160615705 0
0.23000063281437499 0.056086927782256844 0
0.23000055520622925 0.058801339211617239 0
0.23000044941021427 0.061738399105202187 0
0.2300003418109022 0.064959087527871259 0
0.23000028962627889 0.068574399458887617 0
0.23000020766181073 0.072767252453744199 0
0.23000012817275584 0.077916751171376225 0
0.23000005907595925 0.085235329076629923 0
0.23000001205606105 0.099942865591883076 0
0.23000000104058749 0.12532423037694868 0
0.23000000000000004 0.17872296027420154 0
0.25000049315403106 0.024168696712220748 0
0.25000059688065046 0.027033202310513364 0
0.25000067126440728 0.029344688121015875 0
0.25000079516183199 0.031605719869583819 0
0.25000089819936128 0.033810921348731121 0
0.25000100104419742 0.0359681035992808 0
0.25000104048801558 0.038092525119545584 0
0.25000118790074116 0.040200988669759866 0
0.25000126973183573 0.042310424442404009 0
0.25000137561449381 0.044438117813042924 0
0.250001430143593 0.046602577824729652 0
0.25000134820842962 0.048823786637137059 0
0.25000119558473571 0.05112381967675822 0
0.25000134624763803 0.053527633427400793 0
0.25000122141022668 0.05606651515578643 0
0.25000112242264089 0.058779309600937094 0
0.25000093146625485 0.061714586079967944 0
0.25000070854203094 0.064933288025023447 0
0.25000053440473402 0.068546335310547615 0
0.2500003735864692 0.072736582287024676 0
0.25000023396841153 0.077882921340405045 0
0.2500001096730321 0.085196798672105237 0
0.25000002484759914 0.099896375424088427 0
0.25000000237676651 0.1252718164516638 0
0.25000000000000006 0.17882626878617816 0
0.27000077185740518 0.024153543282510525 0
0.27000093967171496 0.027016137129957353 0
0.2700010652228072 0.029326076858339743 0
0.27000120990163684 0.031585592224413456 0
0.27000148527203938 0.033789351240884731 0
0.27000163714384612 0.035944991853843776 0
0.27000178893822191 0.038067771998849212 0
0.27000196377377345 0.040174457384741763 0
0.27000216522324955 0.042281981130296367 0
0.27000235443343412 0.044407603356748322 0
0.27000255132775164 0.046569750835259369 0
0.27000262036717421 0.048788363951396345 0
0.27000300245576692 0.051085391057226252 0
0.270002941324471 0.053486021611300887 0
0.27000275084596315 0.056021250329248012 0
0.27000237807648286 0.058729971620194714 0
0.27000191638924437 0.061660823756428056 0
0.27000146192808283 0.064874740453795543 0
0.27000107483097641 0.068482481534997475 0
0.27000075357028619 0.072667036221657572 0
0.27000047124827226 0.077806413239446703 0
0.27000022581916594 0.085111845959267893 0
0.27000005363134888 0.099807084597489298 0
0.27000000510385808 0.12517826712786354 0
0.27000000000000002 0.17902097226292435 0
0.29000179561628703 0.024130178726614129 0
0.29000214453515388 0.026990508606244714 0
0.29000241687523937 0.029298212529168099 0
0.2900026963404112 0.031554991792938858 0
0.29000297704328093 0.033755461986077984 0
0.29000330100986743 0.0359074145442232 0
0.29000362668047064 0.038026043251186643 0
0.29000399874445559 0.040128103264266801 0
0.29000441809557326 0.042230441420880241 0
0.29000488221466048 0.044350262362015606 0
0.29000542094867432 0.046505884631818102 0
0.29000601451848479 0.048717100634549031 0
0.29000662647008502 0.051005750949498975 0
0.29000676774586098 0.053396975957794822 0
0.29000625009852737 0.055921608983655793 0
0.29000538839669299 0.05861826095728128 0
0.29000434234492928 0.061533962534259093 0
0.29000333370641573 0.064733453417180162 0
0.29000242411089533 0.06832642664803372 0
0.29000165537219641 0.072496556727737679 0
0.29000101033474118 0.077620324300193597 0
0.29000047742803864 0.084913592358025591 0
0.29000011349772836 0.099636791574373801 0
0.29000001021151611 0.12502315646679033 0
0.29000000000000004 0.17935684028129581 0
0.31000446213975191 0.024186622375689169 0
0.31000522236217043 0.027039494670538736 0
0.31000578668174045 0.02933957742177953 0
0.31000632576026466 0.031585257772257826 0
0.31000685198657996 0.033772060212522215 0
0.31000739289822538 0.035908347429285517 0
0.31000793707644997 0.038009523189559205 0
0.31000847356465489 0.040092460342721327 0
0.31000913687786869 0.042173883997220697 0
0.31001003460624216 0.044270874336968247 0
0.31001179107339111 0.046401527269414572 0
0.31001442903116189 0.048585426727443697 0
0.31001589683738096 0.050844112413845587 0
0.3100154378699021 0.053202382161940107 0
0.31001393348601025 0.055690190499240788 0
0.31001185070723991 0.058343363695239972 0
0.31000953406398996 0.061207230896389832 0
0.31000725591905276 0.064358480873164953 0
0.31000523570768557 0.067903527231634384 0
0.31000351603692478 0.07202728449939326 0
0.31000210282745927 0.077115583553891601 0
0.31000097775547353 0.084411397604995886 0
0.31000022118755954 0.099304675990777039 0
0.31000001722283332 0.12478180670320058 0
0.31000000000000005 0.17989172832415126 0
0.3300078924898005 0.025688047514345978 0
0.33000909943015067 0.028236122579057558 0
0.33001004573029658 0.030258250417478139 0
0.33001093555895267 0.032280665383775872 0
0.33001171379776323 0.034284190681948698 0
0.33001242083824706 0.036265462596512393 0
0.33001309543656793 0.038231126023397698 0
0.33001381390343043 0.040191940804133082 0
0.33001460273908972 0.042160296635538143 0
0.33001572104095755 0.044150017921801822 0
0.33001770086048698 0.046176655156615488 0
0.3300202842864311 0.048257657183652526 0
0.33002131663823392 0.050412693051076922 0
0.33002010451034131 0.052664505409838684 0
0.33001785786927756 0.055040164144106223 0
0.33001507837723654 0.057573276441292183 0
0.33001210380876073 0.060309156359933447 0
0.33000921728187416 0.063326266621621802 0
0.33000663108763401 0.066725539050560986 0
0.33000440888709487 0.070684211584572498 0
0.33000256729570776 0.075607102201941778 0
0.3300011167533296 0.082967024830749178 0
0.3300002272782438 0.098673468544648743 0
0.3300000166083607 0.12444959337985657 0
0.33000000000000002 0.18081773484895403 0
0 0 0
0 0.020000000000000004 0
0 0.040000000000000001 0
0 0.54999999999999993 0
0 0.56000000000000005 0
0 0.58000000000000007 0
0.02 0 0
0.02 0.020000000000000004 0
0.02 0.040000000000000001 0
0.02 0.54999999999999993 0
0.02 0.56000000000000005 0
0.02 0.58000000000000007 0
0.040000000000000001 0 0
0.040000000000000001 0.020000000000000004 0
0.040000000000000001 0.040000000000000001 0
0.040000000000000001 0.54999999999999993 0
0.040000000000000001 0.56000000000000005 0
0.040000000000000001 0.58000000000000007 0
0.059999999999999998 0 0
0.059999999999999998 0.020000000000000004 0
0.059999999999999998 0.040000000000000001 0
0.059999999999999998 0.54999999999999993 0
0.059999999999999998 0.56000000000000005 0
0.059999999999999998 0.58000000000000007 0
0.080000000000000002 0 0
0.080000000000000002 0.020000000000000004 0
0.080000000000000002 0.040000000000000001 0
0.080000000000000002 0.54999999999999993 0
0.080000000000000002 0.56000000000000005 0
0.080000000000000002 0.58000000000000007 0
0.10000000000000001 0 0
0.10000000000000001 0.020000000000000004 0
0.10000000000000001 0.040000000000000001 0
0.10000000000000001 0.54999999999999993 0
0.10000000000000001 0.56000000000000005 0
0.10000000000000001 0.58000000000000007 0
0.12 0 0
0.12 0.020000000000000004 0
0.12 0.040000000000000001 0
0.12 0.54999999999999993 0
0.12 0.56000000000000005 0
0.12 0.58000000000000007 0
0.14000000000000001 0 0
0.14000000000000001 0.020000000000000004 0
0.14000000000000001 0.040000000000000001 0
0.14000000000000001 0.54999999999999993 0
0.14000000000000001 0.56000000000000005 0
0.14000000000000001 0.58000000000000007 0
0.16 0 0
0.16 0.020000000000000004 0
0.16 0.040000000000000001 0
0.16 0.54999999999999993 0
0.16 0.56000000000000005 0
0.16 0.58000000000000007 0
0.17999999999999999 0 0
0.17999999999999999 0.020000000000000004 0
0.17999999999999999 0.040000000000000001 0
0.17999999999999999 0.54999999999999993 0
0.17999999999999999 0.56000000000000005 0
0.17999999999999999 0.58000000000000007 0
0.20000000000000001 0 0
0.20000000000000001 0.020000000000000004 0
0.20000000000000001 0.040000000000000001 0
0.20000000000000001 0.54999999999999993 0
0.20000000000000001 0.56000000000000005 0
0.20000000000000001 0.58000000000000007 0
0.22 0 0
0.22 0.020000000000000004 0
0.22 0.040000000000000001 0
0.22 0.54999999999999993 0
0.22 0.56000000000000005 0
0.22 0.58000000000000007 0
0.23999999999999999 0 0
0.23999999999999999 0.020000000000000004 0
0.23999999999999999 0.040000000000000001 0
0.23999999999999999 0.54999999999999993 0
0.23999999999999999 0.56000000000000005 0
0.23999999999999999 0.58000000000000007 0
0.26000000000000001 0 0
0.26000000000000001 0.020000000000000004 0
0.26000000000000001 0.040000000000000001 0
0.26000000000000001 0.54999999999999993 0
0.26000000000000001 0.56000000000000005 0
0.26000000000000001 0.58000000000000007 0
0.28000000000000003 0 0
0.28000000000000003 0.020000000000000004 0
0.28000000000000003 0.040000000000000001 0
0.28000000000000003 0.54999999999999993 0
0.28000000000000003 0.56000000000000005 0
0.28000000000000003 0.58000000000000007 0
0.29999999999999999 0 0
0.29999999999999999 0.020000000000000004 0
0.29999999999999999 0.040000000000000001 0
0.29999999999999999 0.54999999999999993 0
0.29999999999999999 0.56000000000000005 0
0.29999999999999999 0.58000000000000007 0
0.32000000000000001 0 0
0.32000000000000001 0.020000000000000004 0
0.32000000000000001 0.040000000000000001 0
0.32000000000000001 0.54999999999999993 0
0.32000000000000001 0.56000000000000005 0
0.32000000000000001 0.58000000000000007 0
0.34000000000000002 0 0
0.34000000000000002 0.020000000000000004 0
0.34000000000000002 0.040000000000000001 0
0.34000000000000002 0.54999999999999993 0
0.34000000000000002 0.56000000000000005 0
0.34000000000000002 0.58000000000000007 0
0.35999999999999999 0 0
0.35999999999999999 0.020000000000000004 0
0.35999999999999999 0.040000000000000001 0
0.35999999999999999 0.54999999999999993 0
0.35999999999999999 0.56000000000000005 0
0.35999999999999999 0.58000000000000007 0
0.38 0 0
0.38 0.020000000000000004 0
0.38 0.040000000000000001 0
0.38 0.54999999999999993 0
0.38 0.56000000000000005 0
0.38 0.58000000000000007 0
0.40000000000000002 0 0
0.40000000000000002 0.020000000000000004 0
0.40000000000000002 0.040000000000000001 0
0.40000000000000002 0.54999999999999993 0
0.40000000000000002 0.56000000000000005 0
0.40000000000000002 0.58000000000000007 0
0.41999999999999998 0 0
0.41999999999999998 0.020000000000000004 0
0.41999999999999998 0.040000000000000001 0
0.41999999999999998 0.54999999999999993 0
0.41999999999999998 0.56000000000000005 0
0.41999999999999998 0.58000000000000007 0
0.44 0 0
0.44 0.020000000000000004 0
0.44 0.040000000000000001 0
0.44 0.54999999999999993 0
0.44 0.56000000000000005 0
0.44 0.58000000000000007 0
0.46000000000000002 0 0
0.46000000000000002 0.020000000000000004 0
0.46000000000000002 0.040000000000000001 0
0.46000000000000002 0.54999999999999993 0
0.46000000000000002 0.56000000000000005 0
0.46000000000000002 0.58000000000000007 0
0.47999999999999998 0 0
0.47999999999999998 0.020000000000000004 0
0.47999999999999998 0.040000000000000001 0
0.47999999999999998 0.54999999999999993 0
0.47999999999999998 0.56000000000000005 0
0.47999999999999998 0.58000000000000007 0
0.5 0 0
0.5 0.020000000000000004 0
0.5 0.040000000000000001 0
0.5 0.54999999999999993 0
0.5 0.56000000000000005 0
0.5 0.58000000000000007 0
0.52000000000000002 0 0
0.52000000000000002 0.020000000000000004 0
0.52000000000000002 0.040000000000000001 0
0.52000000000000002 0.54999999999999993 0
0.52000000000000002 0.56000000000000005 0
0.52000000000000002 0.58000000000000007 0
0.54000000000000004 0 0
0.54000000000000004 0.020000000000000004 0
0.54000000000000004 0.040000000000000001 0
0.54000000000000004 0.54999999999999993 0
0.54000000000000004 0.56000000000000005 0
0.54000000000000004 0.58000000000000007 0
0.56000000000000005 0 0
0.56000000000000005 0.020000000000000004 0
0.56000000000000005 0.040000000000000001 0
0.56000000000000005 0.54999999999999993 0
0.56000000000000005 0.56000000000000005 0
0.56000000000000005 0.58000000000000007 0
0.57999999999999996 0 0
0.57999999999999996 0.020000000000000004 0
0.57999999999999996 0.040000000000000001 0
0.57999999999999996 0.54999999999999993 0
0.57999999999999996 0.56000000000000005 0
0.57999999999999996 0.58000000000000007 0
0.59999999999999998 0 0
0.59999999999999998 0.020000000000000004 0
0.59999999999999998 0.040000000000000001 0
0.59999999999999998 0.54999999999999993 0
0.59999999999999998 0.56000000000000005 0
0.59999999999999998 0.58000000000000007 0
0.62 0 0
0.62 0.020000000000000004 0
0.62 0.040000000000000001 0
0.62 0.54999999999999993 0
0.62 0.56000000000000005 0
0.62 0.58000000000000007 0
0.64000000000000001 0 0
0.64000000000000001 0.020000000000000004 0
0.64000000000000001 0.040000000000000001 0
0.64000000000000001 0.54999999999999993 0
0.64000000000000001 0.56000000000000005 0
0.64000000000000001 0.58000000000000007 0
0.66000000000000003 0 0
0.66000000000000003 0.020000000000000004 0
0.66000000000000003 0.040000000000000001 0
0.66000000000000003 0.54999999999999993 0
0.66000000000000003 0.56000000000000005 0
0.66000000000000003 0.58000000000000007 0
0.68000000000000005 0 0
0.68000000000000005 0.020000000000000004 0
0.68000000000000005 0.040000000000000001 0
0.68000000000000005 0.54999999999999993 0
0.68000000000000005 0.56000000000000005 0
0.68000000000000005 0.58000000000000007 0
0.70000000000000007 0 0
0.70000000000000007 0.020000000000000004 0
0.70000000000000007 0.040000000000000001 0
0.70000000000000007 0.54999999999999993 0
0.70000000000000007 0.56000000000000005 0
0.70000000000000007 0.58000000000000007 0
0.71999999999999997 0 0
0.71999999999999997 0.020000000000000004 0
0.71999999999999997 0.040000000000000001 0
0.71999999999999997 0.54999999999999993 0
0.71999999999999997 0.56000000000000005 0
0.71999999999999997 0.58000000000000007 0
0.73999999999999999 0 0
0.73999999999999999 0.020000000000000004 0
0.73999999999999999 0.040000000000000001 0
0.73999999999999999 0.54999999999999993 0
0.73999999999999999 0.56000000000000005 0
0.73999999999999999 0.58000000000000007 0
0.76000000000000001 0 0
0.76000000000000001 0.020000000000000004 0
0.76000000000000001 0.040000000000000001 0
0.76000000000000001 0.54999999999999993 0
0.76000000000000001 0.56000000000000005 0
0.76000000000000001 0.58000000000000007 0
0.78000000000000003 0 0
0.78000000000000003 0.020000000000000004 0
0.78000000000000003 0.040000000000000001 0
0.78000000000000003 0.54999999999999993 0
0.78000000000000003 0.56000000000000005 0
0.78000000000000003 0.58000000000000007 0
0.80000000000000004 0 0
0.80000000000000004 0.020000000000000004 0
0.80000000000000004 0.040000000000000001 0
0.80000000000000004 0.54999999999999993 0
0.80000000000000004 0.56000000000000005 0
0.80000000000000004 0.58000000000000007 0
0.82000000000000006 0 0
0.82000000000000006 0.020000000000000004 0
0.82000000000000006 0.040000000000000001 0
0.82000000000000006 0.54999999999999993 0
0.82000000000000006 0.56000000000000005 0
0.82000000000000006 0.58000000000000007 0
0.83999999999999997 0 0
0.83999999999999997 0.020000000000000004 0
0.83999999999999997 0.040000000000000001 0
0.83999999999999997 0.54999999999999993 0
0.83999999999999997 0.56000000000000005 0
0.83999999999999997 0.58000000000000007 0
0.85999999999999999 0 0
0.85999999999999999 0.020000000000000004 0
0.85999999999999999 0.040000000000000001 0
0.85999999999999999 0.54999999999999993 0
0.85999999999999999 0.56000000000000005 0
0.85999999999999999 0.58000000000000007 0
0.88 0 0
0.88 0.020000000000000004 0
0.88 0.040000000000000001 0
0.88 0.54999999999999993 0
0.88 0.56000000000000005 0
0.88 0.58000000000000007 0
0.90000000000000002 0 0
0.90000000000000002 0.020000000000000004 0
0.90000000000000002 0.040000000000000001 0
0.90000000000000002 0.54999999999999993 0
0.90000000000000002 0.56000000000000005 0
0.90000000000000002 0.58000000000000007 0
0.92000000000000004 0 0
0.92000000000000004 0.020000000000000004 0
0.92000000000000004 0.040000000000000001 0
0.92000000000000004 0.54999999999999993 0
0.92000000000000004 0.56000000000000005 0
0.92000000000000004 0.58000000000000007 0
0.94000000000000006 0 0
0.94000000000000006 0.020000000000000004 0
0.94000000000000006 0.040000000000000001 0
0.94000000000000006 0.54999999999999993 0
0.94000000000000006 0.56000000000000005 0
0.94000000000000006 0.58000000000000007 0
0.95999999999999996 0 0
0.95999999999999996 0.020000000000000004 0
0.95999999999999996 0.040000000000000001 0
0.95999999999999996 0.54999999999999993 0
0.95999999999999996 0.56000000000000005 0
0.95999999999999996 0.58000000000000007 0
0.97999999999999998 0 0
0.97999999999999998 0.020000000000000004 0
0.97999999999999998 0.040000000000000001 0
0.97999999999999998 0.54999999999999993 0
0.97999999999999998 0.56000000000000005 0
0.97999999999999998 0.58000000000000007 0
1 0 0
1 0.020000000000000004 0
1 0.040000000000000001 0
1 0.54999999999999993 0
1 0.56000000000000005 0
1 0.58000000000000007 0
VERTICES 681 1362
1 0
1 1
1 2
1 3
1 4
1 5
1 6
1 7
1 8
1 9
1 10
1 11
1 12
1 13
1 14
1 15
1 16
1 17
1 18
1 19
1 20
1 21
1 22
1 23
1 24
1 25
1 26
1 27
1 28
1 29
1 30
1 31
1 32
1 33
1 34
1 35
1 36
1 37
1 38
1 39
1 40
1 41
1 42
1 43
1 44
1 45
1 46
1 47
1 48
1 49
1 50
1 51
1 52
1 53
1 54
1 55
1 56
1 57
1 58
1 59
1 60
1 61
1 62
1 63
1 64
1 65
1 66
1 67
1 68
1 69
1 70
1 71
1 72
1 73
1 74
1 75
1 76
1 77
1 78
1 79
1 80
1 81
1 82
1 83
1 84
1 85
1 86
1 87
1 88
1 89
1 90
1 91
1 92
1 93
1 94
1 95
1 96
1 97
1 98
1 99
1 100
1 101
1 102
1 103
1 104
1 105
1 106
1 107
1 108
1 109
1 110
1 111
1 112
1 113
1 114
1 115
1 116
1 117
1 118
1 119
1 120
1 121
1 122
1 123
1 124
1 125
1 126
1 127
1 128
1 129
1 130
1 131
1 132
1 133
1 134
1 135
1 136
1 137
1 138
1 139
1 140
1 141
1 142
1 143
1 144
1 145
1 146
1 147
1 148
1 149
1 150
1 151
1 152
1 153
1 154
1 155
1 156
1 157
1 158
1 159
1 160
1 161
1 162
1 163
1 164
1 165
1 166
1 167
1 168
1 169
1 170
1 171
1 172
1 173
1 174
1 175
1 176
1 177
1 178
1 179
1 180
1 181
1 182
1 183
1 184
1 185
1 186
1 187
1 188
1 189
1 190
1 191
1 192
1 193
1 194
1 195
1 196
1 197
1 198
1 199
1 200
1 201
1 202
1 203
1 204
1 205
1 206
1 207
1 208
1 209
1 210
1 211
1 212
1 213
1 214
1 215
1 216
1 217
1 218
1 219
1 220
1 221
1 222
1 223
1 224
1 225
1 226
1 227
1 228
1 229
1 230
1 231
1 232
1 233
1 234
1 235
1 236
1 237
1 238
1 239
1 240
1 241
1 242
1 243
1 244
1 245
1 246
1 247
1 248
1 249
1 250
1 251
1 252
1 253
1 254
1 255
1 256
1 257
1 258
1 259
1 260
1 261
1 262
1 263
1 264
1 265
1 266
1 267
1 268
1 269
1 270
1 271
1 272
1 273
1 274
1 275
1 276
1 277
1 278
1 279
1 280
1 281
1 282
1 283
1 284
1 285
1 286
1 287
1 288
1 289
1 290
1 291
1 292
1 293
1 294
1 295
1 296
1 297
1 298
1 299
1 300
1 301
1 302
1 303
1 304
1 305
1 306
1 307
1 308
1 309
1 310
1 311
1 312
1 313
1 314
1 315
1 316
1 317
1 318
1 319
1 320
1 321
1 322
1 323
1 324
1 325
1 326
1 327
1 328
1 329
1 330
1 331
1 332
1 333
1 334
1 335
1 336
1 337
1 338
1 339
1 340
1 341
1 342
1 343
1 344
1 345
1 346
1 347
1 348
1 349
1 350
1 351
1 352
1 353
1 354
1 355
1 356
1 357
1 358
1 359
1 360
1 361
1 362
1 363
1 364
1 365
1 366
1 367
1 368
1 369
1 370
1 371
1 372
1 373
1 374
1 375
1 376
1 377
1 378
1 379
1 380
1 381
1 382
1 383
1 384
1 385
1 386
1 387
1 388
1 389
1 390
1 391
1 392
1 393
1 394
1 395
1 396
1 397
1 398
1 399
1 400
1 401
1 402
1 403
1 404
1 405
1 406
1 407
1 408
1 409
1 410
1 411
1 412
1 413
1 414
1 415
1 416
1 417
1 418
1 419
1 420
1 421
1 422
1 423
1 424
1 425
1 426
1 427
1 428
1 429
1 430
1 431
1 432
1 433
1 434
1 435
1 436
1 437
1 438
1 439
1 440
1 441
1 442
1 443
1 444
1 445
1 446
1 447
1 448
1 449
1 450
1 451
1 452
1 453
1 454
1 455
1 456
1 457
1 458
1 459
1 460
1 461
1 462
1 463
1 464
1 465
1 466
1 467
1 468
1 469
1 470
1 471
1 472
1 473
1 474
1 475
1 476
1 477
1 478
1 479
1 480
1 481
1 482
1 483
1 484
1 485
1 486
1 487
1 488
1 489
1 490
1 491
1 492
1 493
1 494
1 495
1 496
1 497
1 498
1 499
1 500
1 501
1 502
1 503
1 504
1 505
1 506
1 507
1 508
1 509
1 510
1 511
1 512
1 513
1 514
1 515
1 516
1 517
1 518
1 519
1 520
1 521
1 522
1 523
1 524
1 525
1 526
1 527
1 528
1 529
1 530
1 531
1 532
1 533
1 534
1 535
1 536
1 537
1 538
1 539
1 540
1 541
1 542
1 543
1 544
1 545
1 546
1 547
1 548
1 549
1 550
1 551
1 552
1 553
1 554
1 555
1 556
1 557
1 558
1 559
1 560
1 561
1 562
1 563
1 564
1 565
1 566
1 567
1 568
1 569
1 570
1 571
1 572
1 573
1 574
1 575
1 576
1 577
1 578
1 579
1 580
1 581
1 582
1 583
1 584
1 585
1 586
1 587
1 588
1 589
1 590
1 591
1 592
1 593
1 594
1 595
1 596
1 597
1 598
1 599
1 600
1 601
1 602
1 603
1 604
1 605
1 606
1 607
1 608
1 609
1 610
1 611
1 612
1 613
1 614
1 615
1 616
1 617
1 618
1 619
1 620
1 621
1 622
1 623
1 624
1 625
1 626
1 627
1 628
1 629
1 630
1 631
1 632
1 633
1 634
1 635
1 636
1 637
1 638
1 639
1 640
1 641
1 642
1 643
1 644
1 645
1 646
1 647
1 648
1 649
1 650
1 651
1 652
1 653
1 654
1 655
1 656
1 657
1 658
1 659
1 660
1 661
1 662
1 663
1 664
1 665
1 666
1 667
1 668
1 669
1 670
1 671
1 672
1 673
1 674
1 675
1 676
1 677
1 678
1 679
1 680
POINT_DATA 681
SCALARS is_boundary int 1
LOOKUP_TABLE default
0
0
0
0
0
0
0
0
0
0
0
0
0
0
0
0
0
0
0
0
0
0
0
0
0
0
0
0
0
0
0
0
0
0
0
0
0
0
0
0
0
0
0
0
0
0
0
0
0
0
0
0
0
0
0
0
0
0
0
0
0
0
0
0
0
0
0
0
0
0
0
0
0
0
0
0
0
0
0
0
0
0
0
0
0
0
0
0
0
0
0
0
0
0
0
0
0
0
0
0
0
0
0
0
0
0
0
0
0
0
0
0
0
0
0
0
0
0
0
0
0
0
0
0
0
0
0
0
0
0
0
0
0
0
0
0
0
0
0
0
0
0
0
0
0
0
0
0
0
0
0
0
0
0
0
0
0
0
0
0
0
0
0
0
0
0
0
0
0
0
0
0
0
0
0
0
0
0
0
0
0
0
0
0
0
0
0
0
0
0
0
0
0
0
0
0
0
0
0
0
0
0
0
0
0
0
0
0
0
0
0
0
0
0
0
0
0
0
0
0
0
0
0
0
0
0
0
0
0
0
0
0
0
0
0
0
0
0
0
0
0
0
0
0
0
0
0
0
0
0
0
0
0
0
0
0
0
0
0
0
0
0
0
0
0
0
0
0
0
0
0
0
0
0
0
0
0
0
0
0
0
0
0
0
0
0
0
0
0
0
0
0
0
0
0
0
0
0
0
0
0
0
0
0
0
0
0
0
0
0
0
0
0
0
0
0
0
0
0
0
0
0
0
0
0
0
0
0
0
0
0
0
0
0
0
0
0
0
0
0
0
0
0
0
0
0
0
0
0
0
0
0
0
0
0
0
0
0
0
0
0
0
0
0
0
0
0
0
0
0
0
0
0
0
0
1
1
1
1
1
1
1
1
1
1
1
1
1
1
1
1
1
1
1
1
1
1
1
1
1
1
1
1
1
1
1
1
1
1
1
1
1
1
1
1
1
1
1
1
1
1
1
1
1
1
1
1
1
1
1
1
1
1
1
1
1
1
1
1
1
1
1
1
1
1
1
1
1
1
1
1
1
1
1
1
1
1
1
1
1
1
1
1
1
1
1
1
1
1
1
1
1
1
1
1
1
1
1
1
1
1
1
1
1
1
1
1
1
1
1
1
1
1
1
1
1
1
1
1
1
1
1
1
1
1
1
1
1
1
1
1
1
1
1
1
1
1
1
1
1
1
1
1
1
1
1
1
1
1
1
1
1
1
1
1
1
1
1
1
1
1
1
1
1
1
1
1
1
1
1
1
1
1
1
1
1
1
1
1
1
1
1
1
1
1
1
1
1
1
1
1
1
1
1
1
1
1
1
1
1
1
1
1
1
1
1
1
1
1
1
1
1
1
1
1
1
1
1
1
1
1
1
1
1
1
1
1
1
1
1
1
1
1
1
1
1
1
1
1
1
1
1
1
1
1
1
1
1
1
1
1
1
1
1
1
1
1
1
1
1
1
1
1
1
1
1
1
1
1
1
1
1
1
1
1
1
1
1
1
1
1
1
1
1
1
1
1
1
1
1
1
1
1
1
1
1
1
1
1
1
1
SCALARS rho float 1
LOOKUP_TABLE default
1020
1020
1020
1020
1020
1020
1020
1020
1020
1020
1020
1020
1020
1020
1020
1020
1020
1020
1020
1020
1020
1020
1004.9667284320788
850
850
1020
1020
1020
1020
1020
1020
1020
1020
1020
1020
1020
1020
1020
1020
1020
1020
1020
1020
1020
1020
1020
1020
1020
850
850
1020
1020
1020
1020
1020
1020
1020
1020
1020
1020
1020
1020
1020
1020
1020
1020
1020
1020
1020
1020
1020
1020
1020
850
850
1020
1020
1020
1020
1020
1020
1020
1020
1020
1020
1020
1020
1020
1020
1020
1020
1020
1020
1020
1020
1020
1020
1020
850
850
1020
1020
1020
1020
1020
1020
1020
1020
1020
1020
1020
1020
1020
1020
1020
1020
1020
1020
1020
1020
1020
1020
1020
850
850
1020
1020
1020
1020
1020
1020
1020
1020
1020
1020
1020
1020
1020
1020
1020
1020
1020
1020
1020
1020
1020
1020
1020
850
850
1020
1020
1020
1020
1020
1020
1020
1020
1020
1020
1020
1020
1020
1020
1020
1020
1020
1020
1020
1020
1020
1020
1020
850
850
1020
1020
1020
1020
1020
1020
1020
1020
1020
1020
1020
1020
1020
1020
1020
1020
1020
1020
1020
1020
1020
1020
1020
850
850
1020
1020
1020
1020
1020
1020
1020
1020
1020
1020
1020
1020
1020
1020
1020
1020
1020
1020
1020
1020
1020
1020
1020
850
850
1020
1020
1020
1020
1020
1020
1020
1020
1020
1020
1020
1020
1020
1020
1020
1020
1020
1020
1020
1020
1020
1020
1020
850
850
1020
1020
1020
1020
1020
1020
1020
1020
1020
1020
1020
1020
1020
1020
1020
1020
1020
1020
1020
1020
1020
1020
1020
850
850
1020
1020
1020
1020
1020
1020
1020
1020
1020
1020
1020
1020
1020
1020
1020
1020
1020
1020
1020
1020
1020
1020
1020
850
850
1020
1020
1020
1020
1020
1020
1020
1020
1020
1020
1020
1020
1020
1020
1020
1020
1020
1020
1020
1020
1020
1020
1020
850
850
1020
1020
1020
1020
1020
1020
1020
1020
1020
1020
1020
1020
1020
1020
1020
1020
1020
1020
1020
1020
1020
1020
1020
850
850
1020
1020
1020
1020
1020
1020
1020
1020
1020
1020
1020
1020
1020
1020
1020
1020
1020
1020
1020
1020
1020
1020
1004.9647007443193
850
850
1000
1000
1000
1000
1000
1000
1000
1000
1000
1000
1000
1000
1000
1000
1000
1000
1000
1000
1000
1000
1000
1000
1000
1000
1000
1000
1000
1000
1000
1000
1000
1000
1000
1000
1000
1000
1000
1000
1000
1000
1000
1000
1000
1000
1000
1000
1000
1000
1000
1000
1000
1000
1000
1000
1000
1000
1000
1000
1000
1000
1000
1000
1000
1000
1000
1000
1000
1000
1000
1000
1000
1000
1000
1000
1000
1000
1000
1000
1000
1000
1000
1000
1000
1000
1000
1000
1000
1000
1000
1000
1000
1000
1000
1000
1000
1000
1000
1000
1000
1000
1000
1000
1000
1000
1000
1000
1000
1000
1000
1000
1000
1000
1000
1000
1000
1000
1000
1000
1000
1000
1000
1000
1000
1000
1000
1000
1000
1000
1000
1000
1000
1000
1000
1000
1000
1000
1000
1000
1000
1000
1000
1000
1000
1000
1000
1000
1000
1000
1000
1000
1000
1000
1000
1000
1000
1000
1000
1000
1000
1000
1000
1000
1000
1000
1000
1000
1000
1000
1000
1000
1000
1000
1000
1000
1000
1000
1000
1000
1000
1000
1000
1000
1000
1000
1000
1000
1000
1000
1000
1000
1000
1000
1000
1000
1000
1000
1000
1000
1000
1000
1000
1000
1000
1000
1000
1000
1000
1000
1000
1000
1000
1000
1000
1000
1000
1000
1000
1000
1000
1000
1000
1000
1000
1000
1000
1000
1000
1000
1000
1000
1000
1000
1000
1000
1000
1000
1000
1000
1000
1000
1000
1000
1000
1000
1000
1000
1000
1000
1000
1000
1000
1000
1000
1000
1000
1000
1000
1000
1000
1000
1000
1000
1000
1000
1000
1000
1000
1000
1000
1000
1000
1000
1000
1000
1000
1000
1000
1000
1000
1000
1000
1000
1000
1000
1000
1000
1000
1000
1000
1000
1000
1000
1000
1000
1000
1000
1000
1000
1000
1000
1000
1000
1000
1000
1000
1000
SCALARS p float 1
LOOKUP_TABLE default
25004.681136676067
25004.681136676067
25004.681136676067
25004.681136676067
25004.681136676067
25004.681136676067
25004.681136676067
25004.681136676067
25004.681136676067
25004.681136676067
25004.681136676067
25004.681136676067
25004.681136676067
25004.681136676067
25004.681136676067
25004.681136676067
25004.681136676067
25004.681136676067
25004.681136676067
25004.681136676067
25004.681136676067
25004.681136676067
5934.6763533044923
0
0
25004.681136676067
25004.681136676067
25004.681136676067
25004.681136676067
25004.681136676067
25004.681136676067
25004.681136676067
25004.681136676067
25004.681136676067
25004.681136676067
25004.681136676067
25004.681136676067
25004.681136676067
25004.681136676067
25004.681136676067
25004.681136676067
25004.681136676067
25004.681136676067
25004.681136676067
25004.681136676067
25004.681136676067
25004.681136676067
25004.681136676067
0
0
25004.681136676067
25004.681136676067
25004.681136676067
25004.681136676067
25004.681136676067
25004.681136676067
25004.681136676067
25004.681136676067
25004.681136676067
25004.681136676067
25004.681136676067
25004.681136676067
25004.681136676067
25004.681136676067
25004.681136676067
25004.681136676067
25004.681136676067
25004.681136676067
25004.681136676067
25004.681136676067
25004.681136676067
25004.681136676067
25004.681136676067
0
0
25004.681136676067
25004.681136676067
25004.681136676067
25004.681136676067
25004.681136676067
25004.681136676067
25004.681136676067
25004.681136676067
25004.681136676067
25004.681136676067
25004.681136676067
25004.681136676067
25004.681136676067
25004.681136676067
25004.681136676067
25004.681136676067
25004.681136676067
25004.681136676067
25004.681136676067
25004.681136676067
25004.681136676067
25004.681136676067
25004.681136676067
0
0
25004.681136676067
25004.681136676067
25004.681136676067
25004.681136676067
25004.681136676067
25004.681136676067
25004.681136676067
25004.681136676067
25004.681136676067
25004.681136676067
25004.681136676067
25004.681136676067
25004.681136676067
25004.681136676067
25004.681136676067
25004.681136676067
25004.681136676067
25004.681136676067
25004.681136676067
25004.681136676067
25004.681136676067
25004.681136676067
25004.681136676067
0
0
25004.681136676067
25004.681136676067
25004.681136676067
25004.681136676067
25004.681136676067
25004.681136676067
25004.681136676067
25004.681136676067
25004.681136676067
25004.681136676067
25004.681136676067
25004.681136676067
25004.681136676067
25004.681136676067
25004.681136676067
25004.681136676067
25004.681136676067
25004.681136676067
25004.681136676067
25004.681136676067
25004.681136676067
25004.681136676067
25004.681136676067
0
0
25004.681136676067
25004.681136676067
25004.681136676067
25004.681136676067
25004.681136676067
25004.681136676067
25004.681136676067
25004.681136676067
25004.681136676067
25004.681136676067
25004.681136676067
25004.681136676067
25004.681136676067
25004.681136676067
25004.681136676067
25004.681136676067
25004.681136676067
25004.681136676067
25004.681136676067
25004.681136676067
25004.681136676067
25004.681136676067
25004.681136676067
0
0
25004.681136676067
25004.681136676067
25004.681136676067
25004.681136676067
25004.681136676067
25004.681136676067
25004.681136676067
25004.681136676067
25004.681136676067
25004.681136676067
25004.681136676067
25004.681136676067
25004.681136676067
25004.681136676067
25004.681136676067
25004.681136676067
25004.681136676067
25004.681136676067
25004.681136676067
25004.681136676067
25004.681136676067
25004.681136676067
25004.681136676067
0
0
25004.681136676067
25004.681136676067
25004.681136676067
25004.681136676067
25004.681136676067
25004.681136676067
25004.681136676067
25004.681136676067
25004.681136676067
25004.681136676067
25004.681136676067
25004.681136676067
25004.681136676067
25004.681136676067
25004.681136676067
25004.681136676067
25004.681136676067
25004.681136676067
25004.681136676067
25004.681136676067
25004.681136676067
25004.681136676067
25004.681136676067
0
0
25004.681136676067
25004.681136676067
25004.681136676067
25004.681136676067
25004.681136676067
25004.681136676067
25004.681136676067
25004.681136676067
25004.681136676067
25004.681136676067
25004.681136676067
25004.681136676067
25004.681136676067
25004.681136676067
25004.681136676067
25004.681136676067
25004.681136676067
25004.681136676067
25004.681136676067
25004.681136676067
25004.681136676067
25004.681136676067
25004.681136676067
0
0
25004.681136676067
25004.681136676067
25004.681136676067
25004.681136676067
25004.681136676067
25004.681136676067
25004.681136676067
25004.681136676067
25004.681136676067
25004.681136676067
25004.681136676067
25004.681136676067
25004.681136676067
25004.681136676067
25004.681136676067
25004.681136676067
25004.681136676067
25004.681136676067
25004.681136676067
25004.681136676067
25004.681136676067
25004.681136676067
25004.681136676067
0
0
25004.681136676067
25004.681136676067
25004.681136676067
25004.681136676067
25004.681136676067
25004.681136676067
25004.681136676067
25004.681136676067
25004.681136676067
25004.681136676067
25004.681136676067
25004.681136676067
25004.681136676067
25004.681136676067
25004.681136676067
25004.681136676067
25004.681136676067
25004.681136676067
25004.681136676067
25004.681136676067
25004.681136676067
25004.681136676067
25004.681136676067
0
0
25004.681136676067
25004.681136676067
25004.681136676067
25004.681136676067
25004.681136676067
25004.681136676067
25004.681136676067
25004.681136676067
25004.681136676067
25004.681136676067
25004.681136676067
25004.681136676067
25004.681136676067
25004.681136676067
25004.681136676067
25004.681136676067
25004.681136676067
25004.681136676067
25004.681136676067
25004.681136676067
25004.681136676067
25004.681136676067
25004.681136676067
0
0
25004.681136676067
25004.681136676067
25004.681136676067
25004.681136676067
25004.681136676067
25004.681136676067
25004.681136676067
25004.681136676067
25004.681136676067
25004.681136676067
25004.681136676067
25004.681136676067
25004.681136676067
25004.681136676067
25004.681136676067
25004.681136676067
25004.681136676067
25004.681136676067
25004.681136676067
25004.681136676067
25004.681136676067
25004.681136676067
25004.681136676067
0
0
25004.681136676067
25004.681136676067
25004.681136676067
25004.681136676067
25004.681136676067
25004.681136676067
25004.681136676067
25004.681136676067
25004.681136676067
25004.681136676067
25004.681136676067
25004.681136676067
25004.681136676067
25004.681136676067
25004.681136676067
25004.681136676067
25004.681136676067
25004.681136676067
25004.681136676067
25004.681136676067
25004.681136676067
25004.681136676067
5932.2173517311712
0
0
0
0
0
0
0
0
23652.798307677935
24983.096904634087
24996.689170443347
0
0
0
24980.928828741664
25003.148487601087
25004.031296095869
0
0
0
24993.847029687142
25003.895345413595
25004.337182744479
0
0
0
24994.946839783406
25003.931928998198
25004.345044982831
0
0
0
24995.002337708873
25003.931532911509
25004.343089107915
0
0
0
24994.962370936883
25003.929787288162
25004.342507855901
0
0
0
24994.936725194035
25003.928755254645
25004.342277243733
0
0
0
24994.924571838066
25003.928267440395
25004.342177461749
0
0
0
24994.919901253699
25003.928084184157
25004.342142717782
0
0
0
24994.91984201195
25003.928082636088
25004.342142745452
0
0
0
24994.924514393344
25003.928266782772
25004.342178325722
0
0
0
24994.936666957485
25003.928755336197
25004.342278546617
0
0
0
24994.962345928121
25003.929788260164
25004.342510705661
0
0
0
24995.002243908224
25003.931529224254
25004.343091424886
0
0
0
24994.94664814623
25003.931925140478
25004.345048779011
0
0
0
24993.846788091028
25003.89535191558
25004.337193050898
0
0
0
24980.927002157339
25003.148436937965
25004.031281004802
0
0
0
23652.461827815911
24983.094352752647
24996.688059949131
0
0
0
0
0
0
0
0
0
0
0
0
0
0
0
0
0
0
0
0
0
0
0
0
0
0
0
0
0
0
0
0
0
0
0
0
0
0
0
0
0
0
0
0
0
0
0
0
0
0
0
0
0
0
0
0
0
0
0
0
0
0
0
0
0
0
0
0
0
0
0
0
0
0
0
0
0
0
0
0
0
0
0
0
0
0
0
0
0
0
0
0
0
0
0
0
0
0
0
0
0
0
0
0
0
0
0
0
0
0
0
0
0
0
0
0
0
0
0
0
0
0
0
0
0
0
0
0
0
0
0
0
0
0
0
0
0
0
0
0
0
0
0
0
0
0
0
0
0
0
0
0
0
0
0
0
0
0
0
0
0
0
0
0
0
0
0
0
0
0
0
0
0
0
0
0
0
0
0
0
0
0
0
0
0
0
0
0
0
0
0
0
0
0
0
SCALARS m float 1
LOOKUP_TABLE default
0.39942306611962441
0.39942306611962441
0.39942306611962441
0.39942306611962441
0.39942306611962441
0.39942306611962441
0.39942306611962441
0.39942306611962441
0.39942306611962441
0.39942306611962441
0.39942306611962441
0.39942306611962441
0.39942306611962441
0.39942306611962441
0.39942306611962441
0.39942306611962441
0.39942306611962441
0.39942306611962441
0.39942306611962441
0.39942306611962441
0.39942306611962441
0.39942306611962441
0.39942306611962441
0.39942306611962441
0.39942306611962441
0.39942306611962441
0.39942306611962441
0.39942306611962441
0.39942306611962441
0.39942306611962441
0.39942306611962441
0.39942306611962441
0.39942306611962441
0.39942306611962441
0.39942306611962441
0.39942306611962441
0.39942306611962441
0.39942306611962441
0.39942306611962441
0.39942306611962441
0.39942306611962441
0.39942306611962441
0.39942306611962441
0.39942306611962441
0.39942306611962441
0.39942306611962441
0.39942306611962441
0.39942306611962441
0.39942306611962441
0.39942306611962441
0.39942306611962441
0.39942306611962441
0.39942306611962441
0.39942306611962441
0.39942306611962441
0.39942306611962441
0.39942306611962441
0.39942306611962441
0.39942306611962441
0.39942306611962441
0.39942306611962441
0.39942306611962441
0.39942306611962441
0.39942306611962441
0.39942306611962441
0.39942306611962441
0.39942306611962441
0.39942306611962441
0.39942306611962441
0.39942306611962441
0.39942306611962441
0.39942306611962441
0.39942306611962441
0.39942306611962441
0.39942306611962441
0.39942306611962441
0.39942306611962441
0.39942306611962441
0.39942306611962441
0.39942306611962441
0.39942306611962441
0.39942306611962441
0.39942306611962441
0.39942306611962441
0.39942306611962441
0.39942306611962441
0.39942306611962441
0.39942306611962441
0.39942306611962441
0.39942306611962441
0.39942306611962441
0.39942306611962441
0.39942306611962441
0.39942306611962441
0.39942306611962441
0.39942306611962441
0.39942306611962441
0.39942306611962441
0.39942306611962441
0.39942306611962441
0.39942306611962441
0.39942306611962441
0.39942306611962441
0.39942306611962441
0.39942306611962441
0.39942306611962441
0.39942306611962441
0.39942306611962441
0.39942306611962441
0.39942306611962441
0.39942306611962441
0.39942306611962441
0.39942306611962441
0.39942306611962441
0.39942306611962441
0.39942306611962441
0.39942306611962441
0.39942306611962441
0.39942306611962441
0.39942306611962441
0.39942306611962441
0.39942306611962441
0.39942306611962441
0.39942306611962441
0.39942306611962441
0.39942306611962441
0.39942306611962441
0.39942306611962441
0.39942306611962441
0.39942306611962441
0.39942306611962441
0.39942306611962441
0.39942306611962441
0.39942306611962441
0.39942306611962441
0.39942306611962441
0.39942306611962441
0.39942306611962441
0.39942306611962441
0.39942306611962441
0.39942306611962441
0.39942306611962441
0.39942306611962441
0.39942306611962441
0.39942306611962441
0.39942306611962441
0.39942306611962441
0.39942306611962441
0.39942306611962441
0.39942306611962441
0.39942306611962441
0.39942306611962441
0.39942306611962441
0.39942306611962441
0.39942306611962441
0.39942306611962441
0.39942306611962441
0.39942306611962441
0.39942306611962441
0.39942306611962441
0.39942306611962441
0.39942306611962441
0.39942306611962441
0.39942306611962441
0.39942306611962441
0.39942306611962441
0.39942306611962441
0.39942306611962441
0.39942306611962441
0.39942306611962441
0.39942306611962441
0.39942306611962441
0.39942306611962441
0.39942306611962441
0.39942306611962441
0.39942306611962441
0.39942306611962441
0.39942306611962441
0.39942306611962441
0.39942306611962441
0.39942306611962441
0.39942306611962441
0.39942306611962441
0.39942306611962441
0.39942306611962441
0.39942306611962441
0.39942306611962441
0.39942306611962441
0.39942306611962441
0.39942306611962441
0.39942306611962441
0.39942306611962441
0.39942306611962441
0.39942306611962441
0.39942306611962441
0.39942306611962441
0.39942306611962441
0.39942306611962441
0.39942306611962441
0.39942306611962441
0.39942306611962441
0.39942306611962441
0.39942306611962441
0.39942306611962441
0.39942306611962441
0.39942306611962441
0.39942306611962441
0.39942306611962441
0.39942306611962441
0.39942306611962441
0.39942306611962441
0.39942306611962441
0.39942306611962441
0.39942306611962441
0.39942306611962441
0.39942306611962441
0.39942306611962441
0.39942306611962441
0.39942306611962441
0.39942306611962441
0.39942306611962441
0.39942306611962441
0.39942306611962441
0.39942306611962441
0.39942306611962441
0.39942306611962441
0.39942306611962441
0.39942306611962441
0.39942306611962441
0.39942306611962441
0.39942306611962441
0.39942306611962441
0.39942306611962441
0.39942306611962441
0.39942306611962441
0.39942306611962441
0.39942306611962441
0.39942306611962441
0.39942306611962441
0.39942306611962441
0.39942306611962441
0.39942306611962441
0.39942306611962441
0.39942306611962441
0.39942306611962441
0.39942306611962441
0.39942306611962441
0.39942306611962441
0.39942306611962441
0.39942306611962441
0.39942306611962441
0.39942306611962441
0.39942306611962441
0.39942306611962441
0.39942306611962441
0.39942306611962441
0.39942306611962441
0.39942306611962441
0.39942306611962441
0.39942306611962441
0.39942306611962441
0.39942306611962441
0.39942306611962441
0.39942306611962441
0.39942306611962441
0.39942306611962441
0.39942306611962441
0.39942306611962441
0.39942306611962441
0.39942306611962441
0.39942306611962441
0.39942306611962441
0.39942306611962441
0.39942306611962441
0.39942306611962441
0.39942306611962441
0.39942306611962441
0.39942306611962441
0.39942306611962441
0.39942306611962441
0.39942306611962441
0.39942306611962441
0.39942306611962441
0.39942306611962441
0.39942306611962441
0.39942306611962441
0.39942306611962441
0.39942306611962441
0.39942306611962441
0.39942306611962441
0.39942306611962441
0.39942306611962441
0.39942306611962441
0.39942306611962441
0.39942306611962441
0.39942306611962441
0.39942306611962441
0.39942306611962441
0.39942306611962441
0.39942306611962441
0.39942306611962441
0.39942306611962441
0.39942306611962441
0.39942306611962441
0.39942306611962441
0.39942306611962441
0.39942306611962441
0.39942306611962441
0.39942306611962441
0.39942306611962441
0.39942306611962441
0.39942306611962441
0.39942306611962441
0.39942306611962441
0.39942306611962441
0.39942306611962441
0.39942306611962441
0.39942306611962441
0.39942306611962441
0.39942306611962441
0.39942306611962441
0.39942306611962441
0.39942306611962441
0.39942306611962441
0.39942306611962441
0.39942306611962441
0.39942306611962441
0.39942306611962441
0.39942306611962441
0.39942306611962441
0.39942306611962441
0.39942306611962441
0.39942306611962441
0.39942306611962441
0.39942306611962441
0.39942306611962441
0.39942306611962441
0.39942306611962441
0.39942306611962441
0.39942306611962441
0.39942306611962441
0.39942306611962441
0.39942306611962441
0.39942306611962441
0.39942306611962441
0.39942306611962441
0.39942306611962441
0.39942306611962441
0.39942306611962441
0.39942306611962441
0.39942306611962441
0.39942306611962441
0.39942306611962441
0.39942306611962441
0.39942306611962441
0.39942306611962441
0.39942306611962441
0.39942306611962441
0.39942306611962441
0.39942306611962441
0.39942306611962441
0.39942306611962441
0.39942306611962441
0.39942306611962441
0.39942306611962441
0.39942306611962441
0.39942306611962441
0.39942306611962441
0.39942306611962441
0.39942306611962441
0.39942306611962441
0.39942306611962441
0.39942306611962441
0.39942306611962441
0.39942306611962441
0.39942306611962441
0.39942306611962441
0.39942306611962441
0.39942306611962441
0.39942306611962441
0.39942306611962441
0.39942306611962441
0.39942306611962441
0.39942306611962441
0.39942306611962441
0.39942306611962441
0.39942306611962441
0.39942306611962441
0.39942306611962441
0.39942306611962441
0.39942306611962441
0.39942306611962441
0.39942306611962441
0.39942306611962441
0.39942306611962441
0.39942306611962441
0.39942306611962441
0.39942306611962441
0.39942306611962441
0.39942306611962441
0.39942306611962441
0.39942306611962441
0.39942306611962441
0.39942306611962441
0.39942306611962441
0.39942306611962441
0.39942306611962441
0.39942306611962441
0.39942306611962441
0.39942306611962441
0.39942306611962441
0.39942306611962441
0.39942306611962441
0.39942306611962441
0.39942306611962441
0.39942306611962441
0.39942306611962441
0.39942306611962441
0.39942306611962441
0.39942306611962441
0.39942306611962441
0.39942306611962441
0.39942306611962441
0.39942306611962441
0.39942306611962441
0.39942306611962441
0.39942306611962441
0.39942306611962441
0.39942306611962441
0.39942306611962441
0.39942306611962441
0.39942306611962441
0.39942306611962441
0.39942306611962441
0.39942306611962441
0.39942306611962441
0.39942306611962441
0.39942306611962441
0.39942306611962441
0.39942306611962441
0.39942306611962441
0.39942306611962441
0.39942306611962441
0.39942306611962441
0.39942306611962441
0.39942306611962441
0.39942306611962441
0.39942306611962441
0.39942306611962441
0.39942306611962441
0.39942306611962441
0.39942306611962441
0.39942306611962441
0.39942306611962441
0.39942306611962441
0.39942306611962441
0.39942306611962441
0.39942306611962441
0.39942306611962441
0.39942306611962441
0.39942306611962441
0.39942306611962441
0.39942306611962441
0.39942306611962441
0.39942306611962441
0.39942306611962441
0.39942306611962441
0.39942306611962441
0.39942306611962441
0.39942306611962441
0.39942306611962441
0.39942306611962441
0.39942306611962441
0.39942306611962441
0.39942306611962441
0.39942306611962441
0.39942306611962441
0.39942306611962441
0.39942306611962441
0.39942306611962441
0.39942306611962441
0.39942306611962441
0.39942306611962441
0.39942306611962441
0.39942306611962441
0.39942306611962441
0.39942306611962441
0.39942306611962441
0.39942306611962441
0.39942306611962441
0.39942306611962441
0.39942306611962441
0.39942306611962441
0.39942306611962441
0.39942306611962441
0.39942306611962441
0.39942306611962441
0.39942306611962441
0.39942306611962441
0.39942306611962441
0.39942306611962441
0.39942306611962441
0.39942306611962441
0.39942306611962441
0.39942306611962441
0.39942306611962441
0.39942306611962441
0.39942306611962441
0.39942306611962441
0.39942306611962441
0.39942306611962441
0.39942306611962441
0.39942306611962441
0.39942306611962441
0.39942306611962441
0.39942306611962441
0.39942306611962441
0.39942306611962441
0.39942306611962441
0.39942306611962441
0.39942306611962441
0.39942306611962441
0.39942306611962441
0.39942306611962441
0.39942306611962441
0.39942306611962441
0.39942306611962441
0.39942306611962441
0.39942306611962441
0.39942306611962441
0.39942306611962441
0.39942306611962441
0.39942306611962441
0.39942306611962441
0.39942306611962441
0.39942306611962441
0.39942306611962441
0.39942306611962441
0.39942306611962441
0.39942306611962441
0.39942306611962441
0.39942306611962441
0.39942306611962441
0.39942306611962441
0.39942306611962441
0.39942306611962441
0.39942306611962441
0.39942306611962441
0.39942306611962441
0.39942306611962441
0.39942306611962441
0.39942306611962441
0.39942306611962441
0.39942306611962441
0.39942306611962441
0.39942306611962441
0.39942306611962441
0.39942306611962441
0.39942306611962441
0.39942306611962441
0.39942306611962441
0.39942306611962441
0.39942306611962441
0.39942306611962441
0.39942306611962441
0.39942306611962441
0.39942306611962441
0.39942306611962441
0.39942306611962441
0.39942306611962441
0.39942306611962441
0.39942306611962441
0.39942306611962441
0.39942306611962441
0.39942306611962441
0.39942306611962441
0.39942306611962441
0.39942306611962441
0.39942306611962441
0.39942306611962441
0.39942306611962441
0.39942306611962441
0.39942306611962441
0.39942306611962441
0.39942306611962441
0.39942306611962441
0.39942306611962441
0.39942306611962441
0.39942306611962441
0.39942306611962441
0.39942306611962441
0.39942306611962441
0.39942306611962441
0.39942306611962441
0.39942306611962441
0.39942306611962441
0.39942306611962441
0.39942306611962441
0.39942306611962441
0.39942306611962441
0.39942306611962441
0.39942306611962441
0.39942306611962441
0.39942306611962441
0.39942306611962441
0.39942306611962441
0.39942306611962441
0.39942306611962441
0.39942306611962441
0.39942306611962441
0.39942306611962441
0.39942306611962441
0.39942306611962441
0.39942306611962441
0.39942306611962441
0.39942306611962441
0.39942306611962441
0.39942306611962441
0.39942306611962441
0.39942306611962441
0.39942306611962441
0.39942306611962441
0.39942306611962441
0.39942306611962441
0.39942306611962441
0.39942306611962441
0.39942306611962441
0.39942306611962441
0.39942306611962441
0.39942306611962441
0.39942306611962441
0.39942306611962441
0.39942306611962441
0.39942306611962441
0.39942306611962441
0.39942306611962441
0.39942306611962441
0.39942306611962441
0.39942306611962441
0.39942306611962441
0.39942306611962441
0.39942306611962441
0.39942306611962441
0.39942306611962441
0.39942306611962441
0.39942306611962441
0.39942306611962441
0.39942306611962441
0.39942306611962441
0.39942306611962441
0.39942306611962441
0.39942306611962441
0.39942306611962441
0.39942306611962441
0.39942306611962441
0.39942306611962441
0.39942306611962441
0.39942306611962441
0.39942306611962441
0.39942306611962441
0.39942306611962441
0.39942306611962441
0.39942306611962441
0.39942306611962441
0.39942306611962441
0.39942306611962441
0.39942306611962441
0.39942306611962441
0.39942306611962441
0.39942306611962441
0.39942306611962441
0.39942306611962441
0.39942306611962441
0.39942306611962441
0.39942306611962441
0.39942306611962441
0.39942306611962441
0.39942306611962441
0.39942306611962441
0.39942306611962441
0.39942306611962441
VECTORS v float
-4.8452779459043943e-05 -0.082902256383541095 0
-5.2324181542672655e-05 -0.090110052464789425 0
-5.5291938017695313e-05 -0.096008083425210472 0
-5.8294748249569931e-05 -0.10219837567799755 0
-6.1115492920563687e-05 -0.1087409095827635 0
-6.4016337427286218e-05 -0.11573216831075485 0
-6.6638830387374091e-05 -0.12327650478071098 0
-6.9149070596989407e-05 -0.13149857755637459 0
-7.1554019045612445e-05 -0.14057511574860143 0
-7.3933574311698457e-05 -0.15075851692982706 0
-7.6022861612275611e-05 -0.16235301132431915 0
-7.8129769803368237e-05 -0.17572366371663525 0
-8.0522835461693194e-05 -0.19134680590133138 0
-8.2747067264074287e-05 -0.20982623434835193 0
-8.5231000576079628e-05 -0.23199622710959847 0
-8.8039488636863423e-05 -0.25900586449602547 0
-9.1184723258080433e-05 -0.29263903021083187 0
-9.4281524452330821e-05 -0.33621991602390477 0
-9.7815527568897908e-05 -0.39584994027049042 0
-0.00010203875671094071 -0.48472825448156825 0
-0.0001064881739908306 -0.64841972427093852 0
-0.00010305718634180163 -1.1670264039522653 0
-4.2000467409536082e-05 -2.3827342745100526 0
-4.1044675316717864e-06 -2.7457363625170501 0
-1.1852082096558403e-17 -2.6166139482916879 0
-2.9662790837506045e-05 -0.086055533118265831 0
-3.2516318203843332e-05 -0.093706099722016073 0
-3.4735981005329635e-05 -0.10003219925023241 0
-3.6634972839492762e-05 -0.10653527204249418 0
-3.8512709734995296e-05 -0.11332882228791546 0
-4.0376803927681364e-05 -0.12054804975832417 0
-4.162484850589284e-05 -0.12833568083451471 0
-4.3574567272941166e-05 -0.13683886077399543 0
-4.5226539611070932e-05 -0.14622890576950853 0
-4.6534378982170352e-05 -0.15676590840864227 0
-4.7987312779040962e-05 -0.16876894460240868 0
-4.9923039239044363e-05 -0.18263211352551062 0
-5.1910195074098079e-05 -0.19885559311115877 0
-5.3887538951551039e-05 -0.21807804770921094 0
-5.5430357087654099e-05 -0.24115146093287479 0
-5.7501911034369245e-05 -0.26924567527833715 0
-5.9120105493930665e-05 -0.3040670134349871 0
-6.0834757564986146e-05 -0.34899197306189911 0
-6.2504678822020008e-05 -0.41037573246629999 0
-6.3814016884568338e-05 -0.50157310106382291 0
-6.4561776536383489e-05 -0.66214346770720123 0
-6.1463810790969686e-05 -1.1094669960199293 0
-3.4353061775147255e-05 -2.2946881993112269 0
-3.8494636695776515e-06 -2.7405469518444217 0
-1.5664865908908985e-17 -2.6173197043080414 0
-1.1616962129658721e-05 -0.086590345310737435 0
-1.3148923645105295e-05 -0.0942582763656893 0
-1.4133616855985896e-05 -0.10060624243636171 0
-1.4683385032318235e-05 -0.10714772623448583 0
-1.5622670208207231e-05 -0.11399530110111634 0
-1.6663974582074215e-05 -0.12128449861579731 0
-1.7626953125367443e-05 -0.1291616209598854 0
-1.8171732280272379e-05 -0.13777493197069504 0
-1.9421370879124767e-05 -0.1473007631156425 0
-2.0258242518762615e-05 -0.15800641620125716 0
-2.1354542653072701e-05 -0.17020823266273355 0
-2.2554277112609709e-05 -0.18430393582920007 0
-2.3698267625899739e-05 -0.20080256330015406 0
-2.5346758839914402e-05 -0.22035779393393579 0
-2.6707539017612984e-05 -0.24382577436165986 0
-2.8102893961542673e-05 -0.27240112784182924 0
-2.9660953225979403e-05 -0.30778813742144773 0
-3.1001769025197672e-05 -0.35320437822719442 0
-3.249997244655802e-05 -0.41499726809872184 0
-3.3954053927032328e-05 -0.50629078664639482 0
-3.4743657799839754e-05 -0.66538184874803274 0
-3.2319315676522228e-05 -1.1001673646305614 0
-1.5158849014414512e-05 -2.269052053719625 0
-1.6048533268872911e-06 -2.7383291277622805 0
-2.099738778005895e-17 -2.6184845008126727 0
-4.0306534149646409e-06 -0.086600936014209401 0
-4.633939859798069e-06 -0.094277209989462846 0
-4.8991377040362867e-06 -0.10063434772094276 0
-5.37586412535676e-06 -0.10718614605157056 0
-5.0742525994730175e-06 -0.11404815229104946 0
-5.1918673354643629e-06 -0.12135604974206457 0
-6.2017019110193709e-06 -0.12925541454697806 0
-5.3511207865463304e-06 -0.13789650453520655 0
-6.4144153361661435e-06 -0.14745785680492909 0
-5.8963901425082647e-06 -0.15820798171434475 0
-7.1260755428065573e-06 -0.17046450768606405 0
-7.5242677934983354e-06 -0.184625914633475 0
-8.3676780173925792e-06 -0.20120410630220428 0
-1.0436716679008057e-05 -0.22085781001281699 0
-1.0810307604055563e-05 -0.24444879467691685 0
-1.1626294540217738e-05 -0.27316907611358021 0
-1.2529772694628521e-05 -0.30873232137038875 0
-1.3276564205719076e-05 -0.3543070371967294 0
-1.3478762987835615e-05 -0.41623391266219056 0
-1.4319292426793573e-05 -0.50756412829608177 0
-1.4962475949769281e-05 -0.66642819189700875 0
-1.3972022319504588e-05 -1.0986574872078965 0
-6.5781346951960881e-06 -2.2624450470414286 0
-7.3161119542921231e-07 -2.7373649764150683 0
-2.4439099949426514e-17 -2.6197808879805593 0
-9.3357756202296917e-07 -0.086541280493945452 0
-1.0144290115715688e-06 -0.094221446141100701 0
-8.8318014929171112e-07 -0.10058175871268638 0
-1.1281504864686362e-06 -0.10713719107601397 0
-1.3474963903795127e-06 -0.11400441329300832 0
-1.3932242077754846e-06 -0.12131673902630002 0
-1.7759183325476922e-06 -0.12922302547086273 0
-1.0150052273486443e-06 -0.13787269120690177 0
-1.7891840899451581e-06 -0.14744336915030148 0
-1.8232630465863977e-06 -0.15820613405601849 0
-1.4309512406368998e-06 -0.17047925755188373 0
-2.4016277401588486e-06 -0.18465845809188186 0
-2.758998091405922e-06 -0.20126270663861359 0
-2.5584892735633863e-06 -0.22094669287802424 0
-3.046669494004375e-06 -0.24457463069347773 0
-3.2755761232414365e-06 -0.27333777085778227 0
-3.5506665189320607e-06 -0.30894442685571571 0
-3.5809721438196665e-06 -0.35455859342189328 0
-4.0751301501519548e-06 -0.41651933457481283 0
-4.424920412875681e-06 -0.50786705647650288 0
-4.9669904880626121e-06 -0.66672900874928764 0
-5.0762238726011892e-06 -1.098699785841744 0
-2.5356163655151382e-06 -2.2612666340559144 0
-2.975155324641807e-07 -2.7368861157967532 0
-2.3373909151816311e-17 -2.620925401293253 0
5.4115868470807849e-08 -0.086495193523529815 0
-1.7446813942229808e-09 -0.09417525640078199 0
-1.259182210268378e-07 -0.1005371839383583 0
8.5447789795981174e-08 -0.10709267913870464 0
1.314494336107641e-07 -0.11396155689095523 0
-2.2204318068046481e-07 -0.12127462547168667 0
-6.1975609541085032e-07 -0.12918345542411466 0
-5.9613970990537906e-07 -0.13783528113157695 0
-8.474568730731868e-07 -0.14740856131031668 0
-5.9730135516738263e-07 -0.15817535922516968 0
-1.1535424076597131e-06 -0.17045228825517988 0
-1.1864817168768086e-06 -0.18463888090590211 0
-1.3456168298144616e-06 -0.2012485296977358 0
-1.9342904853200221e-06 -0.22094298375297255 0
-2.0162710650973991e-06 -0.24458239776726798 0
-2.0945802785353397e-06 -0.27335811536846472 0
-2.0141204481623677e-06 -0.30897785747641965 0
-2.155087495255715e-06 -0.35460265619053355 0
-2.411610362457311e-06 -0.41657400780325138 0
-2.4864484502526608e-06 -0.50793420269655476 0
-2.4693142445092186e-06 -0.66681858523940396 0
-1.9625318447581298e-06 -1.0989427679022403 0
-7.9698959028836812e-07 -2.2613448176592263 0
-8.6785075597132155e-08 -2.7366091831508053 0
-1.7589357203083064e-17 -2.6217628604176446 0
1.5081928480994289e-06 -0.086469777044908325 0
1.5997641805683885e-06 -0.094149687242414515 0
1.6043094274247542e-06 -0.10051030097388301 0
2.05700159540993e-06 -0.10706647395622938 0
2.1532590395527796e-06 -0.11393518809377504 0
2.1608175252064605e-06 -0.12124862049338704 0
2.1355422405340531e-06 -0.12915812007985045 0
1.8835743534931264e-06 -0.13781061599959105 0
2.1933139241635035e-06 -0.14738505427416487 0
1.6991780528285155e-06 -0.15815271548267892 0
1.5962904647636663e-06 -0.17043125837946044 0
1.0943611934503632e-06 -0.18461813210372621 0
1.2685375547527182e-06 -0.20122954257553308 0
1.0636051184342581e-06 -0.22092633794527866 0
5.0967701937967461e-07 -0.24456889994059788 0
2.5469847867189799e-07 -0.27334990938710901 0
5.8110365582736522e-07 -0.30897328377428729 0
2.3971670848338524e-07 -0.35460052001152387 0
1.1648733410446967e-07 -0.41657391079739065 0
7.3345942698630204e-07 -0.5079377247279383 0
5.7219567090977201e-07 -0.66684010708357921 0
8.4325197901986834e-07 -1.0991141396697088 0
3.4236553727428925e-07 -2.2615523231217907 0
-1.8365004249247313e-08 -2.7364541582424309 0
-8.7362121994581197e-18 -2.6222537587969708 0
1.1922252995932083e-06 -0.086460863267846882 0
1.1816110068053394e-06 -0.094141108150616701 0
1.7677411526291985e-06 -0.10050147844015045 0
1.791381763523991e-06 -0.10705805670438223 0
2.1433181524558546e-06 -0.11392592616222498 0
2.2722773486923696e-06 -0.12123944099290944 0
1.919693879883537e-06 -0.12914931207267405 0
2.4580890559762716e-06 -0.13780131546196214 0
2.8429026269975383e-06 -0.14737605322392172 0
3.1477369432049327e-06 -0.15814430895113973 0
2.912829678664376e-06 -0.17042398501134656 0
3.1564638049730289e-06 -0.18461135921626157 0
3.019753932359876e-06 -0.20122087601716093 0
3.6949938468294402e-06 -0.22091621127870711 0
2.8952171496980848e-06 -0.24455921960925447 0
3.1728330098112807e-06 -0.27334434373472971 0
2.7831576053178332e-06 -0.30896835136589484 0
3.0755211510331222e-06 -0.35459674882773246 0
3.4099825954341862e-06 -0.41657095910956909 0
4.4210092337575181e-06 -0.50793248525657253 0
4.4032011670515878e-06 -0.66684239131322776 0
4.5272375836377973e-06 -1.0991680928379925 0
2.050731222424303e-06 -2.2616309417173492 0
1.4761187901202572e-07 -2.7364032092825221 0
1.311767263274471e-18 -2.6224132425885074 0
9.8483791845965597e-07 -0.086471774030871681 0
8.6986722056143643e-07 -0.094151255732984024 0
9.4342761163472693e-07 -0.10051160900274486 0
9.2684592398371156e-07 -0.10706787316374619 0
6.2147334248358113e-07 -0.11393597729903371 0
8.6914949695331011e-07 -0.12124904900769556 0
1.1847449229345852e-06 -0.12915773952639353 0
9.8609138672585457e-07 -0.13780922299501225 0
8.9431195465818082e-07 -0.14738375897284553 0
6.3649731599768661e-07 -0.15815118724410218 0
1.3779299690267935e-06 -0.17042958713021053 0
2.2773019891584126e-06 -0.18461607476638137 0
2.8982745787355941e-06 -0.20122983505397943 0
3.0669454505897561e-06 -0.22092523852921087 0
3.5979708502108198e-06 -0.24456833876116535 0
3.8882269382882855e-06 -0.27334963541990454 0
4.3203168931976409e-06 -0.30897306502500138 0
4.6535399999851217e-06 -0.35459983392197791 0
4.1924501997178134e-06 -0.41657434736309634 0
4.4746699294281703e-06 -0.50793690118858925 0
4.4217644793426758e-06 -0.66683913905545222 0
4.339874860350191e-06 -1.099109688832391 0
9.6608352520496102e-07 -2.2615463982988171 0
1.5359080949841e-07 -2.7364538786151416 0
1.1210289768521295e-17 -2.6222537587969708 0
1.8796424730844327e-06 -0.086495257776028747 0
2.0907712292412241e-06 -0.094176047860268564 0
2.2348699661622226e-06 -0.10053747582323559 0
2.4194399678829521e-06 -0.10709340025303697 0
2.8169164159410951e-06 -0.11396239484583874 0
3.1305737345275579e-06 -0.12127569583215859 0
2.7913207490396492e-06 -0.12918478355956417 0
3.3036386777344509e-06 -0.13783658801136736 0
3.4428831862199752e-06 -0.14740998532565125 0
3.1426928206495288e-06 -0.15817616580461297 0
3.6922852088379899e-06 -0.17045424938138548 0
3.6006946964014143e-06 -0.18463947304405437 0
4.0277866855640813e-06 -0.20124971691706897 0
4.3781609536951116e-06 -0.22094368472049447 0
4.5323321216518416e-06 -0.24458311346170136 0
4.9108415228634342e-06 -0.27335968442233416 0
5.1578015732871498e-06 -0.30897899598702383 0
5.3268652692689828e-06 -0.354602177175456 0
5.477621078620579e-06 -0.41657221167397618 0
5.4569717093067752e-06 -0.50792956366596598 0
5.5259977034117283e-06 -0.66681415319204507 0
5.2980802478911525e-06 -1.0989344683180893 0
2.1318360920226286e-06 -2.2613354899687015 0
2.1020666673401808e-07 -2.736608668423377 0
1.9647343307879217e-17 -2.6217628604176446 0
2.9902043471286202e-06 -0.086542131162633207 0
3.2662388753722382e-06 -0.094221528699620374 0
3.5167579181279473e-06 -0.10058188431682678 0
3.7583462657980347e-06 -0.10713702667236935 0
4.0017191433798619e-06 -0.11400449473675975 0
4.3212574443803871e-06 -0.12131646555738156 0
4.8927842499163303e-06 -0.12922346672314575 0
4.8162593477982235e-06 -0.13787313004531235 0
5.3909412208965102e-06 -0.14744339514633237 0
4.8945677394512522e-06 -0.15820552794857279 0
5.7190504546984185e-06 -0.17047907580161406 0
5.4295823364296269e-06 -0.18465879357623299 0
5.6143836105508243e-06 -0.20126257739346629 0
6.1178419401214537e-06 -0.22094678076497704 0
6.5502854340478253e-06 -0.24457475460808908 0
7.2068670732839778e-06 -0.2733376615949204 0
7.8823316698098028e-06 -0.30894405183655699 0
8.32066485494292e-06 -0.35455783497085708 0
8.838430176523303e-06 -0.41651610373304199 0
9.3743451390993075e-06 -0.50786179823139932 0
9.6658180566429337e-06 -0.66672166216379658 0
9.2646085971653916e-06 -1.0986863553731296 0
4.2887872698006645e-06 -2.2612541186940192 0
4.65550852500922e-07 -2.7368855382597199 0
2.485054557343541e-17 -2.6209254012932535 0
5.6856789830510635e-06 -0.086600858742449952 0
6.4280259711000824e-06 -0.094276692391275008 0
6.809363615709824e-06 -0.10063362855167167 0
7.2366425067025191e-06 -0.10718528817654682 0
7.5485042256260897e-06 -0.11404799256248699 0
7.8869353309924116e-06 -0.12135436090665366 0
8.3506266729261707e-06 -0.12925477594374851 0
8.7339309902428337e-06 -0.1378957193426559 0
9.201647167013925e-06 -0.14745621830507433 0
9.2325434619053445e-06 -0.15820481695722771 0
1.028768518631157e-05 -0.17046177292149267 0
1.0429377395344289e-05 -0.18462278987766664 0
1.0735315799314257e-05 -0.20120132827784376 0
1.1202819667452805e-05 -0.22085624398285436 0
1.1906804456289419e-05 -0.24444694750159002 0
1.2742194922954558e-05 -0.27316662168694444 0
1.3543469374941845e-05 -0.30873072972626892 0
1.4311004840436614e-05 -0.35430523969687316 0
1.5381797964376776e-05 -0.41622958557681389 0
1.6512707341207437e-05 -0.50755806168953632 0
1.7719502292035799e-05 -0.66641836826074519 0
1.7633136373104736e-05 -1.0986411496798143 0
8.7336624290988478e-06 -2.2624316959020141 0
9.6060574201252554e-07 -2.737364711607488 0
2.5324191673632818e-17 -2.6197808879805597 0
1.3164230555213463e-05 -0.086588932884520978 0
1.4630164602878503e-05 -0.094256820545221998 0
1.554885545828702e-05 -0.10060497957610449 0
1.6672571437848621e-05 -0.10714617540895158 0
1.7600769737732793e-05 -0.11399376818857884 0
1.8420087436375811e-05 -0.12128299701891304 0
1.9613266390503403e-05 -0.12916097287760558 0
2.0699983166235764e-05 -0.13777443885803473 0
2.0846012112465965e-05 -0.14730030741811423 0
2.2183383203167475e-05 -0.15800596346340817 0
2.3366272951424324e-05 -0.17020727785380788 0
2.4646602158278024e-05 -0.18430287800022366 0
2.5915586269157551e-05 -0.20080142923796682 0
2.6739629984701825e-05 -0.22035514633312661 0
2.7576705723340526e-05 -0.24382363429182791 0
2.8934762560723091e-05 -0.27239846939525941 0
3.0146786042434347e-05 -0.3077851994062567 0
3.146280941512804e-05 -0.35319897332263356 0
3.2770459689770502e-05 -0.41499072946529253 0
3.4038010941125124e-05 -0.50628242005122615 0
3.5130830648774465e-05 -0.66537044466737894 0
3.3963388980609401e-05 -1.1001476389106037 0
1.770373281645916e-05 -2.2690409196900956 0
1.9638153363834593e-06 -2.7383297007778351 0
2.1422519018089385e-17 -2.6184845008126731 0
2.9807144434245191e-05 -0.086054008175854582 0
3.2771635533076843e-05 -0.09370453190557565 0
3.4830084713144929e-05 -0.10003096436738636 0
3.6732229775793424e-05 -0.10653433186240621 0
3.8590977980167757e-05 -0.1133280434306866 0
4.0324995426951908e-05 -0.12054750297817045 0
4.2032373050858196e-05 -0.12833490536789496 0
4.3970482208496651e-05 -0.13683778375418712 0
4.5163009971603819e-05 -0.14622789173767728 0
4.7092099613974068e-05 -0.15676424186291804 0
4.883321261242447e-05 -0.16876787177900499 0
5.0493804919132932e-05 -0.18263038336061457 0
5.2166249195450592e-05 -0.19885472996597481 0
5.401938036207504e-05 -0.21807700841686056 0
5.5819122473235935e-05 -0.24114957380134677 0
5.7577300786554844e-05 -0.26924275373308398 0
5.9519686725388384e-05 -0.30406346603677359 0
6.1346849336986719e-05 -0.34898696991032507 0
6.3414986157261713e-05 -0.41036603597609683 0
6.516369933864148e-05 -0.50155865941459443 0
6.6407249736703217e-05 -0.6621239901145124 0
6.4341850156941142e-05 -1.1094405110075849 0
3.5656760180356521e-05 -2.2946853598222501 0
3.858815004440873e-06 -2.7405486607418199 0
1.5817451015520405e-17 -2.6173197043080418 0
4.7229675006521846e-05 -0.082901618125390236 0
5.0909740165071754e-05 -0.090109282775755306 0
5.3950741665752268e-05 -0.096007609586992726 0
5.6995760021781809e-05 -0.1021980005006579 0
6.001979741721672e-05 -0.10874079668817994 0
6.2529931869155893e-05 -0.1157315959433535 0
6.4627791937473501e-05 -0.12327542054646641 0
6.7258871447052729e-05 -0.13149754607187594 0
6.9531328051842915e-05 -0.14057400232192516 0
7.1735775938206513e-05 -0.15075711568214631 0
7.4088871836430848e-05 -0.16235095484442252 0
7.5902051987882619e-05 -0.17572112570526749 0
7.7605973022178468e-05 -0.19134417967991674 0
7.981699288021798e-05 -0.20982342951932736 0
8.2391965970856666e-05 -0.23199227871454114 0
8.5040595036379448e-05 -0.2590009856474777 0
8.7775478828832113e-05 -0.29263275913824621 0
9.0757483746668616e-05 -0.33621162325273851 0
9.4559336619130384e-05 -0.39583842468209662 0
9.7165347143076894e-05 -0.48471476634534699 0
9.7567131245555273e-05 -0.64840462939739019 0
8.5748364648782435e-05 -1.1670232064356956 0
3.7429262369349218e-05 -2.3827494368093283 0
3.7173815866495571e-06 -2.7457380932786366 0
1.1889764628079818e-17 -2.6166139482916884 0
-0 -0 0
-0 -0 0
-0 -0 0
-0 -0 0
-0 -0 0
-0 -0 0
4.7278169444337525e-05 0.081091412091524553 0
5.7586558307761866e-05 0.10271138937666285 0
6.9444408257496136e-05 0.14618756629298293 0
-0 -0 0
-0 -0 0
-0 -0 0
5.2390766169014596e-05 0.09182974666756008 0
5.8063518347280838e-05 0.10954176205607025 0
6.8280954232822604e-05 0.15369614882624252 0
-0 -0 0
-0 -0 0
-0 -0 0
4.1479944569319727e-05 0.09377159182282456 0
4.7112586847238433e-05 0.11144065412759016 0
5.6037025404153274e-05 0.15596764849172651 0
-0 -0 0
-0 -0 0
-0 -0 0
2.2801642320322508e-05 0.095489829255655384 0
2.6518228618347377e-05 0.11304542800569793 0
3.2432587548572252e-05 0.15790117240998103 0
-0 -0 0
-0 -0 0
-0 -0 0
8.9691323462176795e-06 0.095748024755953426 0
1.0872598165005045e-05 0.11339233400114396 0
1.3903477967607075e-05 0.15827923613153044 0
-0 -0 0
-0 -0 0
-0 -0 0
3.1292264250787267e-06 0.095712643808681219 0
3.8946383629311653e-06 0.11335242167533148 0
5.1281616435627443e-06 0.15816963537047921 0
-0 -0 0
-0 -0 0
-0 -0 0
8.475438044261191e-07 0.095650227678760621 0
1.1856028225707988e-06 0.11327898898943213 0
1.7657257546322041e-06 0.15804728334720525 0
-0 -0 0
-0 -0 0
-0 -0 0
-6.0052892439472572e-07 0.095608497263328082 0
-5.1013871861583144e-07 0.11322942471405496 0
-2.4864119489836576e-07 0.15797059783768574 0
-0 -0 0
-0 -0 0
-0 -0 0
-1.7590325650819878e-06 0.095588907740261686 0
-1.935950884601096e-06 0.1132062030388086 0
-2.1494773889846144e-06 0.15793549682190852 0
-0 -0 0
-0 -0 0
-0 -0 0
-1.834444646710175e-06 0.095588571866275229 0
-2.1101619049619012e-06 0.11320597070804113 0
-2.6147238457123464e-06 0.157935451093418 0
-0 -0 0
-0 -0 0
-0 -0 0
-1.5442862715993248e-06 0.095608020261488749 0
-1.9716285270400771e-06 0.11322917073196941 0
-2.6582786988071818e-06 0.15797060020255999 0
-0 -0 0
-0 -0 0
-0 -0 0
-2.4598177178920785e-06 0.095650095271801197 0
-3.1155267609532303e-06 0.11327874412704293 0
-4.0999461801986018e-06 0.15804672582724869 0
-0 -0 0
-0 -0 0
-0 -0 0
-4.9937871453788361e-06 0.095712257913458096 0
-5.9874119735020701e-06 0.11335154028230639 0
-7.5257338180544755e-06 0.15816777532834875 0
-0 -0 0
-0 -0 0
-0 -0 0
-1.0796361015632563e-05 0.095746784289347145 0
-1.2887248786005393e-05 0.11339083219988297 0
-1.5988175492316883e-05 0.15827684649181872 0
-0 -0 0
-0 -0 0
-0 -0 0
-2.3751453414569372e-05 0.095488276155770366 0
-2.7528109138853274e-05 0.11304395068872697 0
-3.3445502819204434e-05 0.15789907587964158 0
-0 -0 0
-0 -0 0
-0 -0 0
-4.0987322699017294e-05 0.09377060298863292 0
-4.6519179917500331e-05 0.11143990727374281 0
-5.52191989756753e-05 0.15596616826757126 0
-0 -0 0
-0 -0 0
-0 -0 0
-5.1143408495143576e-05 0.091829004379656368 0
-5.6717791599165746e-05 0.10954077146262113 0
-6.6469107899323242e-05 0.15369388929993161 0
-0 -0 0
-0 -0 0
-0 -0 0
-4.6077424253216311e-05 0.081089370697833077 0
-5.6213471586680587e-05 0.10270966612846408 0
-6.7546091732140798e-05 0.14618307831179977 0
-0 -0 0
-0 -0 0
-0 -0 0
-0 -0 0
-0 -0 0
-0 -0 0
-0 -0 0
-0 -0 0
-0 -0 0
-0 -0 0
-0 -0 0
-0 -0 0
-0 -0 0
-0 -0 0
-0 -0 0
-0 -0 0
-0 -0 0
-0 -0 0
-0 -0 0
-0 -0 0
-0 -0 0
-0 -0 0
-0 -0 0
-0 -0 0
-0 -0 0
-0 -0 0
-0 -0 0
-0 -0 0
-0 -0 0
-0 -0 0
-0 -0 0
-0 -0 0
-0 -0 0
-0 -0 0
-0 -0 0
-0 -0 0
-0 -0 0
-0 -0 0
-0 -0 0
-0 -0 0
-0 -0 0
-0 -0 0
-0 -0 0
-0 -0 0
-0 -0 0
-0 -0 0
-0 -0 0
-0 -0 0
-0 -0 0
-0 -0 0
-0 -0 0
-0 -0 0
-0 -0 0
-0 -0 0
-0 -0 0
-0 -0 0
-0 -0 0
-0 -0 0
-0 -0 0
-0 -0 0
-0 -0 0
-0 -0 0
-0 -0 0
-0 -0 0
-0 -0 0
-0 -0 0
-0 -0 0
-0 -0 0
-0 -0 0
-0 -0 0
-0 -0 0
-0 -0 0
-0 -0 0
-0 -0 0
-0 -0 0
-0 -0 0
-0 -0 0
-0 -0 0
-0 -0 0
-0 -0 0
-0 -0 0
-0 -0 0
-0 -0 0
-0 -0 0
-0 -0 0
-0 -0 0
-0 -0 0
-0 -0 0
-0 -0 0
-0 -0 0
-0 -0 0
-0 -0 0
-0 -0 0
-0 -0 0
-0 -0 0
-0 -0 0
-0 -0 0
-0 -0 0
-0 -0 0
-0 -0 0
-0 -0 0
-0 -0 0
-0 -0 0
-0 -0 0
-0 -0 0
-0 -0 0
-0 -0 0
-0 -0 0
-0 -0 0
-0 -0 0
-0 -0 0
-0 -0 0
-0 -0 0
-0 -0 0
-0 -0 0
-0 -0 0
-0 -0 0
-0 -0 0
-0 -0 0
-0 -0 0
-0 -0 0
-0 -0 0
-0 -0 0
-0 -0 0
-0 -0 0
-0 -0 0
-0 -0 0
-0 -0 0
-0 -0 0
-0 -0 0
-0 -0 0
-0 -0 0
-0 -0 0
-0 -0 0
-0 -0 0
-0 -0 0
-0 -0 0
-0 -0 0
-0 -0 0
-0 -0 0
-0 -0 0
-0 -0 0
-0 -0 0
-0 -0 0
-0 -0 0
-0 -0 0
-0 -0 0
-0 -0 0
-0 -0 0
-0 -0 0
-0 -0 0
-0 -0 0
-0 -0 0
-0 -0 0
-0 -0 0
-0 -0 0
-0 -0 0
-0 -0 0
-0 -0 0
-0 -0 0
-0 -0 0
-0 -0 0
-0 -0 0
-0 -0 0
-0 -0 0
-0 -0 0
-0 -0 0
-0 -0 0
-0 -0 0
-0 -0 0
-0 -0 0
-0 -0 0
-0 -0 0
-0 -0 0
-0 -0 0
-0 -0 0
-0 -0 0
-0 -0 0
-0 -0 0
-0 -0 0
-0 -0 0
-0 -0 0
-0 -0 0
-0 -0 0
-0 -0 0
-0 -0 0
-0 -0 0
-0 -0 0
-0 -0 0
-0 -0 0
-0 -0 0
-0 -0 0
-0 -0 0
-0 -0 0
-0 -0 0
