# vtk DataFile Version 3.0
SPH particles (WCSPH) - legacy PolyData
ASCII
DATASET POLYDATA
POINTS 681 float
0.049995685479668657 0.031134832568291124 0
0.049994864454102471 0.034320847004286191 0
0.049994214247209096 0.036878197523192352 0
0.049993610086421343 0.039477659188840712 0
0.049993106499784778 0.042109163197441901 0
0.049992682603163363 0.044783595511968491 0
0.049992331281628548 0.047529411021396052 0
0.049991877121103617 0.050387455795022511 0
0.049991225276874648 0.05341179564610278 0
0.049990218503235311 0.056675369439424694 0
0.049988451886704824 0.060280797070121329 0
0.049986266969954597 0.06438196456385091 0
0.049985640525845546 0.069247348932395397 0
0.049987476575485565 0.075493462100245004 0
0.049990959208406398 0.085008814318078871 0
0.049995361497971229 0.10049647093722854 0
0.049998559864841252 0.11975038188241441 0
0.049999757450520418 0.1398363671271905 0
0.049999972507274101 0.16019264669634836 0
0.049999996854402352 0.18088238392228273 0
0.049999999660576118 0.20212099218034613 0
0.049999999967147477 0.22425687419675586 0
0.049999999997378086 0.24786663567478767 0
0.049999999999856666 0.27417950870999308 0
0.050000000000000003 0.32197618105789005 0
0.069997946028014152 0.029869862588466026 0
0.069997507746762569 0.033394680196209579 0
0.069997123800007305 0.036265742943215454 0
0.069996798507051483 0.039115513728198638 0
0.069996493551367667 0.041953994968867071 0
0.069996178644664897 0.044807225532475896 0
0.069995868166581862 0.04771479299672067 0
0.069995526476328757 0.050726359606693215 0
0.069995145928879607 0.053902112645369413 0
0.069994482372239361 0.057319704651927844 0
0.069993075094857013 0.061085335807826137 0
0.069990739897802259 0.065355822466968014 0
0.069989459897974379 0.070395979228000491 0
0.069990195669099586 0.076755968890181298 0
0.069992433625147898 0.085979006699078445 0
0.069995687473104265 0.10078460964518561 0
0.069998582504533002 0.11979273456006137 0
0.069999755335126673 0.13985715846146415 0
0.069999972938130262 0.1602274501975427 0
0.069999996749301879 0.18094741489742561 0
0.069999999633668264 0.20223812427413576 0
0.069999999963464385 0.22445460477371673 0
0.069999999997010995 0.2481582752560744 0
0.069999999999831045 0.27451025238503018 0
0.070000000000000007 0.32110742232281941 0
0.089999305055462206 0.029848822234648926 0
0.089999120977934249 0.033383732578081672 0
0.089999002158418343 0.036265439437196345 0
0.089998821238514742 0.039131041586308361 0
0.089998636084439212 0.041989717718164163 0
0.089998417745615733 0.044866904382164396 0
0.089998107712430039 0.047802544194053935 0
0.089997987369358406 0.050846654501560368 0
0.089997850620968031 0.054060086668315271 0
0.089997678980974119 0.05752116769647618 0
0.089997509373569748 0.061336155803795242 0
0.089996964838594817 0.065660693463582609 0
0.089996338202103662 0.070755362724107498 0
0.089996312087868707 0.077153794640052856 0
0.089997188224827676 0.086321359546138496 0
0.089998427881270382 0.1009138065004352 0
0.089999429476287973 0.11981658314984833 0
0.089999873243824149 0.13987070191928894 0
0.08999998250211122 0.16025312484138007 0
0.089999997726820075 0.18099829098615661 0
0.089999999721638066 0.20232809930406301 0
0.089999999970578393 0.22459945735416659 0
0.089999999997487354 0.24835788548760601 0
0.089999999999852462 0.27473197551548545 0
0.090000000000000011 0.32066254502358971 0
0.10999977889685568 0.029872422471283501 0
0.10999965572912535 0.033410644258492619 0
0.1099995796327054 0.036295657163002683 0
0.10999947547364011 0.039165267824738961 0
0.10999938584559282 0.042028676282654324 0
0.10999945683407217 0.044911550486512554 0
0.10999948571867854 0.047853861906769019 0
0.10999946430908907 0.050905806024433092 0
0.10999944990617853 0.054128458858005192 0
0.10999944859886614 0.057600439147253574 0
0.10999935362903382 0.061428103652725191 0
0.10999966542819871 0.065766991711319917 0
0.10999922495425367 0.070876475553937709 0
0.10999891635158052 0.077285643548868535 0
0.10999912550427904 0.086436921045347642 0
0.10999950242056281 0.10096355677848157 0
0.10999980579792698 0.11982936492055332 0
0.10999995072426719 0.13988070752867754 0
0.10999999159570964 0.16027178067641201 0
0.10999999874883767 0.18103221344148568 0
0.10999999983227102 0.20238462423093362 0
0.10999999998096678 0.22468477800511641 0
0.10999999999827995 0.24847012364259938 0
0.10999999999989435 0.27486044531791903 0
0.11000000000000001 0.32042005715392724 0
0.1299999456972688 0.029883597323610959 0
0.12999993080860639 0.033424127265123928 0
0.12999992859316789 0.036310972446892645 0
0.12999992644384575 0.039182462439737574 0
0.13000000037035797 0.042047838940537624 0
0.13000007534467195 0.044932777124878455 0
0.13000015565817818 0.047877503059537634 0
0.13000022760630628 0.050932034452093516 0
0.13000031841802445 0.054157673260525285 0
0.13000046177842248 0.057633068880727896 0
0.13000057809648055 0.061464601698448376 0
0.13000047954714561 0.065807657285983548 0
0.1300002321745137 0.070921518173856224 0
0.13000005444431736 0.077333394850526441 0
0.12999990584937976 0.086478400325522092 0
0.12999986837794344 0.10098246504989905 0
0.12999993880782876 0.1198357291343231 0
0.12999998346649635 0.1398873321335215 0
0.1299999967438856 0.16028378564514292 0
0.12999999944029608 0.18105255607771817 0
0.12999999991702152 0.20241687121803284 0
0.12999999998979761 0.22473161760828048 0
0.12999999999901563 0.24853016795817232 0
0.12999999999993633 0.27492896744428752 0
0.13 0.32030122532162597 0
0.15000008526613445 0.029888031684335657 0
0.15000011103950714 0.033429621403500712 0
0.15000014515445259 0.036317296050568618 0
0.15000018894533121 0.039189637638518397 0
0.15000034029350173 0.042055867737100391 0
0.15000035191766417 0.04494163085539081 0
0.1500003575333623 0.047887249834417417 0
0.15000036870634262 0.050942800322191714 0
0.15000043852709757 0.054169552359509612 0
0.15000050858466971 0.057646197510543548 0
0.15000059924993892 0.061479114517226242 0
0.15000048179793335 0.065823524264095393 0
0.1500004670463827 0.070938847672994507 0
0.15000032271005798 0.077351433969608238 0
0.1500001340820413 0.086493786239931161 0
0.15000001523154502 0.10098971424080103 0
0.14999999178818521 0.11983882615507351 0
0.14999999618762927 0.13989116678052632 0
0.14999999903324632 0.16029060360162645 0
0.14999999980312853 0.18106377353128764 0
0.14999999996681043 0.20243397219953782 0
0.14999999999550789 0.22475561206254557 0
0.14999999999953306 0.24856018280694833 0
0.14999999999996794 0.27496261350103035 0
0.15000000000000002 0.3202488876999533 0
0.17000012132066766 0.029889729490755041 0
0.17000016854766753 0.033431706519293773 0
0.17000020077552302 0.036319739743898967 0
0.17000025075509703 0.039192360173224451 0
0.17000031292619774 0.042058830049112331 0
0.17000042825423761 0.044944965427458773 0
0.17000058927534067 0.047890989351406038 0
0.17000063803365559 0.050946901560513715 0
0.17000068384750738 0.054174057268650044 0
0.17000072604751115 0.057651129538794185 0
0.17000073429771154 0.061484533821405625 0
0.17000063975465982 0.065829494208277273 0
0.17000063118206329 0.070945330022728542 0
0.17000057750361203 0.077358026598804114 0
0.17000014527233931 0.086499410513677003 0
0.17000004563535973 0.10099243249939668 0
0.17000000734442891 0.11984021354582523 0
0.17000000018518202 0.13989307498452647 0
0.1699999998603407 0.16029392662304789 0
0.16999999995559334 0.18106915903837603 0
0.16999999999082072 0.20244199232201371 0
0.1699999999985895 0.22476653997160875 0
0.16999999999984017 0.24857357123616272 0
0.16999999999998847 0.27497732057505075 0
0.17000000000000004 0.32022859995913422 0
0.19000004993773034 0.029890228096883756 0
0.19000006158909769 0.033432281115404659 0
0.19000008993541326 0.036320350272889775 0
0.19000009759615358 0.039193022150184671 0
0.19000016480422455 0.042059562021328781 0
0.19000028587246265 0.044945840001301966 0
0.19000040553234093 0.047891898403529552 0
0.19000040491700426 0.050947894151519992 0
0.19000046157574907 0.05417518523078111 0
0.19000048876920783 0.057652424131298931 0
0.19000033920673187 0.061485983130919381 0
0.19000041046412997 0.065831223501904679 0
0.19000021862950259 0.070947076366009956 0
0.19000011920245199 0.077359908282524759 0
0.19000007929589555 0.086501009959927808 0
0.18999997394849044 0.10099315781826877 0
0.18999999335934467 0.11984057315295134 0
0.18999999983298607 0.13989363534226998 0
0.19000000006800277 0.16029490524865295 0
0.19000000001596218 0.18107073202621746 0
0.19000000000251138 0.20244430474731398 0
0.19000000000030823 0.22476963826626947 0
0.19000000000002934 0.24857732006116959 0
0.19000000000000175 0.27498138409619294 0
0.19 0.32022347264750234 0
0.21000014578534207 0.029889758364226818 0
0.21000019269342485 0.033431743823775381 0
0.21000023046456501 0.036319749544080404 0
0.21000027343401759 0.039192376356768595 0
0.21000036605696115 0.04205888577694903 0
0.21000036428574992 0.044945020229255672 0
0.21000043896523107 0.047891011484911379 0
0.21000044553424344 0.050946944696030151 0
0.2100004724148222 0.054174127414822623 0
0.2100004648066062 0.057651253945055825 0
0.21000041946406525 0.061484701370591734 0
0.21000035291303421 0.065829726413093023 0
0.21000018057012992 0.070945541857338423 0
0.21000000282289136 0.077358269064825957 0
0.20999999191566346 0.08649966590062963 0
0.209999958536116 0.10099251088126224 0
0.20999998382408727 0.11984018122079292 0
0.20999999965819441 0.13989306724443573 0
0.2100000003067711 0.1602939259161992 0
0.21000000007848749 0.18106915896881629 0
0.21000000001432212 0.20244199231462351 0
0.21000000000203084 0.22476653997087143 0
0.21000000000021882 0.24857357123610102 0
0.21000000000001526 0.27497732057504704 0
0.21000000000000002 0.32022859995913422 0
0.23000015521837794 0.0298881058176006 0
0.23000018568269187 0.033429683885337763 0
0.23000022938111406 0.036317391701284028 0
0.23000027904759329 0.039189664700712189 0
0.23000034501895014 0.042055912339410188 0
0.23000039329139288 0.044941693248338681 0
0.23000046084564191 0.047887319613833468 0
0.23000048794607153 0.050942854583998477 0
0.23000056080534156 0.054169618287179547 0
0.23000060954239671 0.057646255548544398 0
0.23000059089352684 0.061479195306462543 0
0.23000041745428498 0.065823751246538095 0
0.23000026941084412 0.070939137202375976 0
0.23000013244374112 0.077351596165868744 0
0.23000009530583396 0.086493858358875617 0
0.23000003756694401 0.10098968980121506 0
0.23000001628730662 0.11983880143823493 0
0.2300000052570495 0.13989115988700968 0
0.23000000119433478 0.16029060258913611 0
0.2300000002327422 0.18106377339381613 0
0.23000000003820859 0.20243397218265771 0
0.2300000000050787 0.22475561206076933 0
0.23000000000052151 0.24856018280679715 0
0.23000000000003543 0.27496261350102202 0
0.23000000000000004 0.32024888769995336 0
0.2500002071683749 0.029883648107751206 0
0.25000027203447411 0.033424187998005922 0
0.2500003140853288 0.036311071780389073 0
0.25000039281620268 0.039182604903923897 0
0.25000045004535004 0.042047971818686768 0
0.25000050181204225 0.044932911594546453 0
0.25000050680841929 0.047877632175655799 0
0.25000059698069432 0.050932167794095089 0
0.25000065077436434 0.054157810993883997 0
0.25000072437407095 0.057633189274869864 0
0.25000072711514393 0.061464759970505302 0
0.25000061175752858 0.065807803922955946 0
0.2500003983009082 0.070921810620539108 0
0.25000047399446701 0.077333394928665006 0
0.25000028245200423 0.086478290560226184 0
0.2500001627997151 0.10098236828437641 0
0.25000006584882589 0.11983569504335796 0
0.25000001786677967 0.13988732432557419 0
0.25000000345824758 0.16028378427663828 0
0.25000000058835736 0.18105255587178209 0
0.25000000008676726 0.20241687119101417 0
0.25000000001063544 0.22473161760533747 0
0.25000000000102413 0.24853016795791777 0
0.25000000000006589 0.27492896744427242 0
0.25000000000000006 0.32030122532162597 0
0.27000029017833183 0.029872454123246864 0
0.27000036700751034 0.033410675707222247 0
0.2700004289288741 0.036295697287768665 0
0.27000051398415914 0.039165345109195587 0
0.27000072327005381 0.042028858546406714 0
0.27000081637008988 0.044911711403081749 0
0.27000090970389651 0.047854121404337785 0
0.27000102459989545 0.050906038217598586 0
0.27000116779576894 0.054128689938022709 0
0.27000127180396932 0.057600648189330403 0
0.27000137149646347 0.061428303951758821 0
0.27000134144089427 0.065767089600468967 0
0.27000160415444352 0.070876665429728467 0
0.27000138852645461 0.077285747814192535 0
0.27000102607996879 0.086436932982349154 0
0.2700005440084069 0.10096350476431118 0
0.27000020424633636 0.11982933510260445 0
0.27000005046292919 0.13988069880062298 0
0.27000000850689998 0.1602717790764176 0
0.27000000126111462 0.1810322131942457 0
0.27000000016883441 0.20238462419748587 0
0.27000000001916247 0.22468477800137512 0
0.27000000000173296 0.24847012364226931 0
0.27000000000010627 0.27486044531789933 0
0.27000000000000002 0.32042005715392724 0
0.2900007711094717 0.029848949111871744 0
0.29000097053974327 0.033383844724693842 0
0.29000113030208152 0.036265578235981727 0
0.29000129248880835 0.039131216243826497 0
0.29000146009994071 0.041989844372762188 0
0.29000166479052458 0.044867052451650472 0
0.29000184808807516 0.047802846763577322 0
0.29000204427577231 0.050847004297738661 0
0.29000231267628562 0.054060435961027192 0
0.2900026382216625 0.057521505863421155 0
0.29000303324205245 0.061336477947185039 0
0.29000343748968171 0.065660963393329566 0
0.2900038658688201 0.070755587201850545 0
0.2900037331286574 0.077154030783388131 0
0.29000284861443026 0.086321399720434538 0
0.29000159914099016 0.10091373001397759 0
0.29000057796267897 0.11981654150192932 0
0.29000012710552797 0.13987069105704031 0
0.29000001740522968 0.16025312315811294 0
0.29000000225425115 0.18099829073699256 0
0.29000000027581091 0.20232809927008388 0
0.29000000002916659 0.22459945735029571 0
0.29000000000249376 0.24835788548725818 0
0.29000000000014647 0.27473197551546458 0
0.29000000000000004 0.32066254502358965 0
0.31000216232271893 0.029870012417214931 0
0.31000262056336192 0.033394852158895545 0
0.31000295527012639 0.036265894470495635 0
0.31000327685319551 0.039115732194240457 0
0.31000359421579404 0.04195420259891771 0
0.3100039335961367 0.044807395658252931 0
0.31000428459461099 0.047715102116138414 0
0.31000462270593493 0.050726681393651447 0
0.31000506701837666 0.053902400242280976 0
0.31000572257120412 0.057319950054295785 0
0.31000720573290463 0.061085557876533685 0
0.31000953802147013 0.065356047789714031 0
0.3100106562813793 0.070396225447585295 0
0.31000972971516888 0.076756165752244171 0
0.31000749518063203 0.085978957141902818 0
0.31000428189337748 0.10078446440949304 0
0.310001401857186 0.11979268271001933 0
0.31000024203156124 0.13985714725179874 0
0.31000002670405696 0.16022744863642074 0
0.31000000320221838 0.18094741467503064 0
0.31000000036061726 0.20223812424439491 0
0.31000000003597467 0.2244546047703129 0
0.31000000000294609 0.24815827525576473 0
0.31000000000016648 0.27451025238501131 0
0.31000000000000005 0.32110742232281941 0
0.33000415849353848 0.031135094557888477 0
0.33000494200048852 0.034321102721212228 0
0.3300055578162352 0.036878442684941733 0
0.33000611730644491 0.039477883316041205 0
0.33000657837974562 0.042109350605734203 0
0.33000697581603855 0.044783742844669905 0
0.33000736092818117 0.047529523393837751 0
0.33000779557866161 0.050387539044395808 0
0.33000831650935097 0.053411828447460619 0
0.33000916052840773 0.056675353443664166 0
0.33001081866267201 0.060280700955153872 0
0.3300130411749182 0.064381823993457418 0
0.33001364744634731 0.069247139493986809 0
0.33001183924852695 0.075493162461209254 0
0.33000863253360913 0.085008430632738247 0
0.3300045443805541 0.10049626730980522 0
0.33000141762394947 0.11975033829027117 0
0.33000023870408207 0.13983635957118126 0
0.33000002703687281 0.16019264557309756 0
0.33000000309040439 0.18088238375805082 0
0.33000000033329185 0.20212099215855617 0
0.33000000003226404 0.22425687419426182 0
0.33000000000257679 0.2478666356745613 0
0.33000000000014079 0.27417950870997959 0
0.33000000000000002 0.32197618105789 0
0 0 0
0 0.020000000000000004 0
0 0.040000000000000001 0
0 0.54999999999999993 0
0 0.56000000000000005 0
0 0.58000000000000007 0
0.02 0 0
0.02 0.020000000000000004 0
0.02 0.040000000000000001 0
0.02 0.54999999999999993 0
0.02 0.56000000000000005 0
0.02 0.58000000000000007 0
0.040000000000000001 0 0
0.040000000000000001 0.020000000000000004 0
0.040000000000000001 0.040000000000000001 0
0.040000000000000001 0.54999999999999993 0
0.040000000000000001 0.56000000000000005 0
0.040000000000000001 0.58000000000000007 0
0.059999999999999998 0 0
0.059999999999999998 0.020000000000000004 0
0.059999999999999998 0.040000000000000001 0
0.059999999999999998 0.54999999999999993 0
0.059999999999999998 0.56000000000000005 0
0.059999999999999998 0.58000000000000007 0
0.080000000000000002 0 0
0.080000000000000002 0.020000000000000004 0
0.080000000000000002 0.040000000000000001 0
0.080000000000000002 0.54999999999999993 0
0.080000000000000002 0.56000000000000005 0
0.080000000000000002 0.58000000000000007 0
0.10000000000000001 0 0
0.10000000000000001 0.020000000000000004 0
0.10000000000000001 0.040000000000000001 0
0.10000000000000001 0.54999999999999993 0
0.10000000000000001 0.56000000000000005 0
0.10000000000000001 0.58000000000000007 0
0.12 0 0
0.12 0.020000000000000004 0
0.12 0.040000000000000001 0
0.12 0.54999999999999993 0
0.12 0.56000000000000005 0
0.12 0.58000000000000007 0
0.14000000000000001 0 0
0.14000000000000001 0.020000000000000004 0
0.14000000000000001 0.040000000000000001 0
0.14000000000000001 0.54999999999999993 0
0.14000000000000001 0.56000000000000005 0
0.14000000000000001 0.58000000000000007 0
0.16 0 0
0.16 0.020000000000000004 0
0.16 0.040000000000000001 0
0.16 0.54999999999999993 0
0.16 0.56000000000000005 0
0.16 0.58000000000000007 0
0.17999999999999999 0 0
0.17999999999999999 0.020000000000000004 0
0.17999999999999999 0.040000000000000001 0
0.17999999999999999 0.54999999999999993 0
0.17999999999999999 0.56000000000000005 0
0.17999999999999999 0.58000000000000007 0
0.20000000000000001 0 0
0.20000000000000001 0.020000000000000004 0
0.20000000000000001 0.040000000000000001 0
0.20000000000000001 0.54999999999999993 0
0.20000000000000001 0.56000000000000005 0
0.20000000000000001 0.58000000000000007 0
0.22 0 0
0.22 0.020000000000000004 0
0.22 0.040000000000000001 0
0.22 0.54999999999999993 0
0.22 0.56000000000000005 0
0.22 0.58000000000000007 0
0.23999999999999999 0 0
0.23999999999999999 0.020000000000000004 0
0.23999999999999999 0.040000000000000001 0
0.23999999999999999 0.54999999999999993 0
0.23999999999999999 0.56000000000000005 0
0.23999999999999999 0.58000000000000007 0
0.26000000000000001 0 0
0.26000000000000001 0.020000000000000004 0
0.26000000000000001 0.040000000000000001 0
0.26000000000000001 0.54999999999999993 0
0.26000000000000001 0.56000000000000005 0
0.26000000000000001 0.58000000000000007 0
0.28000000000000003 0 0
0.28000000000000003 0.020000000000000004 0
0.28000000000000003 0.040000000000000001 0
0.28000000000000003 0.54999999999999993 0
0.28000000000000003 0.56000000000000005 0
0.28000000000000003 0.58000000000000007 0
0.29999999999999999 0 0
0.29999999999999999 0.020000000000000004 0
0.29999999999999999 0.040000000000000001 0
0.29999999999999999 0.54999999999999993 0
0.29999999999999999 0.56000000000000005 0
0.29999999999999999 0.58000000000000007 0
0.32000000000000001 0 0
0.32000000000000001 0.020000000000000004 0
0.32000000000000001 0.040000000000000001 0
0.32000000000000001 0.54999999999999993 0
0.32000000000000001 0.56000000000000005 0
0.32000000000000001 0.58000000000000007 0
0.34000000000000002 0 0
0.34000000000000002 0.020000000000000004 0
0.34000000000000002 0.040000000000000001 0
0.34000000000000002 0.54999999999999993 0
0.34000000000000002 0.56000000000000005 0
0.34000000000000002 0.58000000000000007 0
0.35999999999999999 0 0
0.35999999999999999 0.020000000000000004 0
0.35999999999999999 0.040000000000000001 0
0.35999999999999999 0.54999999999999993 0
0.35999999999999999 0.56000000000000005 0
0.35999999999999999 0.58000000000000007 0
0.38 0 0
0.38 0.020000000000000004 0
0.38 0.040000000000000001 0
0.38 0.54999999999999993 0
0.38 0.56000000000000005 0
0.38 0.58000000000000007 0
0.40000000000000002 0 0
0.40000000000000002 0.020000000000000004 0
0.40000000000000002 0.040000000000000001 0
0.40000000000000002 0.54999999999999993 0
0.40000000000000002 0.56000000000000005 0
0.40000000000000002 0.58000000000000007 0
0.41999999999999998 0 0
0.41999999999999998 0.020000000000000004 0
0.41999999999999998 0.040000000000000001 0
0.41999999999999998 0.54999999999999993 0
0.41999999999999998 0.56000000000000005 0
0.41999999999999998 0.58000000000000007 0
0.44 0 0
0.44 0.020000000000000004 0
0.44 0.040000000000000001 0
0.44 0.54999999999999993 0
0.44 0.56000000000000005 0
0.44 0.58000000000000007 0
0.46000000000000002 0 0
0.46000000000000002 0.020000000000000004 0
0.46000000000000002 0.040000000000000001 0
0.46000000000000002 0.54999999999999993 0
0.46000000000000002 0.56000000000000005 0
0.46000000000000002 0.58000000000000007 0
0.47999999999999998 0 0
0.47999999999999998 0.020000000000000004 0
0.47999999999999998 0.040000000000000001 0
0.47999999999999998 0.54999999999999993 0
0.47999999999999998 0.56000000000000005 0
0.47999999999999998 0.58000000000000007 0
0.5 0 0
0.5 0.020000000000000004 0
0.5 0.040000000000000001 0
0.5 0.54999999999999993 0
0.5 0.56000000000000005 0
0.5 0.58000000000000007 0
0.52000000000000002 0 0
0.52000000000000002 0.020000000000000004 0
0.52000000000000002 0.040000000000000001 0
0.52000000000000002 0.54999999999999993 0
0.52000000000000002 0.56000000000000005 0
0.52000000000000002 0.58000000000000007 0
0.54000000000000004 0 0
0.54000000000000004 0.020000000000000004 0
0.54000000000000004 0.040000000000000001 0
0.54000000000000004 0.54999999999999993 0
0.54000000000000004 0.56000000000000005 0
0.54000000000000004 0.58000000000000007 0
0.56000000000000005 0 0
0.56000000000000005 0.020000000000000004 0
0.56000000000000005 0.040000000000000001 0
0.56000000000000005 0.54999999999999993 0
0.56000000000000005 0.56000000000000005 0
0.56000000000000005 0.58000000000000007 0
0.57999999999999996 0 0
0.57999999999999996 0.020000000000000004 0
0.57999999999999996 0.040000000000000001 0
0.57999999999999996 0.54999999999999993 0
0.57999999999999996 0.56000000000000005 0
0.57999999999999996 0.58000000000000007 0
0.59999999999999998 0 0
0.59999999999999998 0.020000000000000004 0
0.59999999999999998 0.040000000000000001 0
0.59999999999999998 0.54999999999999993 0
0.59999999999999998 0.56000000000000005 0
0.59999999999999998 0.58000000000000007 0
0.62 0 0
0.62 0.020000000000000004 0
0.62 0.040000000000000001 0
0.62 0.54999999999999993 0
0.62 0.56000000000000005 0
0.62 0.58000000000000007 0
0.64000000000000001 0 0
0.64000000000000001 0.020000000000000004 0
0.64000000000000001 0.040000000000000001 0
0.64000000000000001 0.54999999999999993 0
0.64000000000000001 0.56000000000000005 0
0.64000000000000001 0.58000000000000007 0
0.66000000000000003 0 0
0.66000000000000003 0.020000000000000004 0
0.66000000000000003 0.040000000000000001 0
0.66000000000000003 0.54999999999999993 0
0.66000000000000003 0.56000000000000005 0
0.66000000000000003 0.58000000000000007 0
0.68000000000000005 0 0
0.68000000000000005 0.020000000000000004 0
0.68000000000000005 0.040000000000000001 0
0.68000000000000005 0.54999999999999993 0
0.68000000000000005 0.56000000000000005 0
0.68000000000000005 0.58000000000000007 0
0.70000000000000007 0 0
0.70000000000000007 0.020000000000000004 0
0.70000000000000007 0.040000000000000001 0
0.70000000000000007 0.54999999999999993 0
0.70000000000000007 0.56000000000000005 0
0.70000000000000007 0.58000000000000007 0
0.71999999999999997 0 0
0.71999999999999997 0.020000000000000004 0
0.71999999999999997 0.040000000000000001 0
0.71999999999999997 0.54999999999999993 0
0.71999999999999997 0.56000000000000005 0
0.71999999999999997 0.58000000000000007 0
0.73999999999999999 0 0
0.73999999999999999 0.020000000000000004 0
0.73999999999999999 0.040000000000000001 0
0.73999999999999999 0.54999999999999993 0
0.73999999999999999 0.56000000000000005 0
0.73999999999999999 0.58000000000000007 0
0.76000000000000001 0 0
0.76000000000000001 0.020000000000000004 0
0.76000000000000001 0.040000000000000001 0
0.76000000000000001 0.54999999999999993 0
0.76000000000000001 0.56000000000000005 0
0.76000000000000001 0.58000000000000007 0
0.78000000000000003 0 0
0.78000000000000003 0.020000000000000004 0
0.78000000000000003 0.040000000000000001 0
0.78000000000000003 0.54999999999999993 0
0.78000000000000003 0.56000000000000005 0
0.78000000000000003 0.58000000000000007 0
0.80000000000000004 0 0
0.80000000000000004 0.020000000000000004 0
0.80000000000000004 0.040000000000000001 0
0.80000000000000004 0.54999999999999993 0
0.80000000000000004 0.56000000000000005 0
0.80000000000000004 0.58000000000000007 0
0.82000000000000006 0 0
0.82000000000000006 0.020000000000000004 0
0.82000000000000006 0.040000000000000001 0
0.82000000000000006 0.54999999999999993 0
0.82000000000000006 0.56000000000000005 0
0.82000000000000006 0.58000000000000007 0
0.83999999999999997 0 0
0.83999999999999997 0.020000000000000004 0
0.83999999999999997 0.040000000000000001 0
0.83999999999999997 0.54999999999999993 0
0.83999999999999997 0.56000000000000005 0
0.83999999999999997 0.58000000000000007 0
0.85999999999999999 0 0
0.85999999999999999 0.020000000000000004 0
0.85999999999999999 0.040000000000000001 0
0.85999999999999999 0.54999999999999993 0
0.85999999999999999 0.56000000000000005 0
0.85999999999999999 0.58000000000000007 0
0.88 0 0
0.88 0.020000000000000004 0
0.88 0.040000000000000001 0
0.88 0.54999999999999993 0
0.88 0.56000000000000005 0
0.88 0.58000000000000007 0
0.90000000000000002 0 0
0.90000000000000002 0.020000000000000004 0
0.90000000000000002 0.040000000000000001 0
0.90000000000000002 0.54999999999999993 0
0.90000000000000002 0.56000000000000005 0
0.90000000000000002 0.58000000000000007 0
0.92000000000000004 0 0
0.92000000000000004 0.020000000000000004 0
0.92000000000000004 0.040000000000000001 0
0.92000000000000004 0.54999999999999993 0
0.92000000000000004 0.56000000000000005 0
0.92000000000000004 0.58000000000000007 0
0.94000000000000006 0 0
0.94000000000000006 0.020000000000000004 0
0.94000000000000006 0.040000000000000001 0
0.94000000000000006 0.54999999999999993 0
0.94000000000000006 0.56000000000000005 0
0.94000000000000006 0.58000000000000007 0
0.95999999999999996 0 0
0.95999999999999996 0.020000000000000004 0
0.95999999999999996 0.040000000000000001 0
0.95999999999999996 0.54999999999999993 0
0.95999999999999996 0.56000000000000005 0
0.95999999999999996 0.58000000000000007 0
0.97999999999999998 0 0
0.97999999999999998 0.020000000000000004 0
0.97999999999999998 0.040000000000000001 0
0.97999999999999998 0.54999999999999993 0
0.97999999999999998 0.56000000000000005 0
0.97999999999999998 0.58000000000000007 0
1 0 0
1 0.020000000000000004 0
1 0.040000000000000001 0
1 0.54999999999999993 0
1 0.56000000000000005 0
1 0.58000000000000007 0
VERTICES 681 1362
1 0
1 1
1 2
1 3
1 4
1 5
1 6
1 7
1 8
1 9
1 10
1 11
1 12
1 13
1 14
1 15
1 16
1 17
1 18
1 19
1 20
1 21
1 22
1 23
1 24
1 25
1 26
1 27
1 28
1 29
1 30
1 31
1 32
1 33
1 34
1 35
1 36
1 37
1 38
1 39
1 40
1 41
1 42
1 43
1 44
1 45
1 46
1 47
1 48
1 49
1 50
1 51
1 52
1 53
1 54
1 55
1 56
1 57
1 58
1 59
1 60
1 61
1 62
1 63
1 64
1 65
1 66
1 67
1 68
1 69
1 70
1 71
1 72
1 73
1 74
1 75
1 76
1 77
1 78
1 79
1 80
1 81
1 82
1 83
1 84
1 85
1 86
1 87
1 88
1 89
1 90
1 91
1 92
1 93
1 94
1 95
1 96
1 97
1 98
1 99
1 100
1 101
1 102
1 103
1 104
1 105
1 106
1 107
1 108
1 109
1 110
1 111
1 112
1 113
1 114
1 115
1 116
1 117
1 118
1 119
1 120
1 121
1 122
1 123
1 124
1 125
1 126
1 127
1 128
1 129
1 130
1 131
1 132
1 133
1 134
1 135
1 136
1 137
1 138
1 139
1 140
1 141
1 142
1 143
1 144
1 145
1 146
1 147
1 148
1 149
1 150
1 151
1 152
1 153
1 154
1 155
1 156
1 157
1 158
1 159
1 160
1 161
1 162
1 163
1 164
1 165
1 166
1 167
1 168
1 169
1 170
1 171
1 172
1 173
1 174
1 175
1 176
1 177
1 178
1 179
1 180
1 181
1 182
1 183
1 184
1 185
1 186
1 187
1 188
1 189
1 190
1 191
1 192
1 193
1 194
1 195
1 196
1 197
1 198
1 199
1 200
1 201
1 202
1 203
1 204
1 205
1 206
1 207
1 208
1 209
1 210
1 211
1 212
1 213
1 214
1 215
1 216
1 217
1 218
1 219
1 220
1 221
1 222
1 223
1 224
1 225
1 226
1 227
1 228
1 229
1 230
1 231
1 232
1 233
1 234
1 235
1 236
1 237
1 238
1 239
1 240
1 241
1 242
1 243
1 244
1 245
1 246
1 247
1 248
1 249
1 250
1 251
1 252
1 253
1 254
1 255
1 256
1 257
1 258
1 259
1 260
1 261
1 262
1 263
1 264
1 265
1 266
1 267
1 268
1 269
1 270
1 271
1 272
1 273
1 274
1 275
1 276
1 277
1 278
1 279
1 280
1 281
1 282
1 283
1 284
1 285
1 286
1 287
1 288
1 289
1 290
1 291
1 292
1 293
1 294
1 295
1 296
1 297
1 298
1 299
1 300
1 301
1 302
1 303
1 304
1 305
1 306
1 307
1 308
1 309
1 310
1 311
1 312
1 313
1 314
1 315
1 316
1 317
1 318
1 319
1 320
1 321
1 322
1 323
1 324
1 325
1 326
1 327
1 328
1 329
1 330
1 331
1 332
1 333
1 334
1 335
1 336
1 337
1 338
1 339
1 340
1 341
1 342
1 343
1 344
1 345
1 346
1 347
1 348
1 349
1 350
1 351
1 352
1 353
1 354
1 355
1 356
1 357
1 358
1 359
1 360
1 361
1 362
1 363
1 364
1 365
1 366
1 367
1 368
1 369
1 370
1 371
1 372
1 373
1 374
1 375
1 376
1 377
1 378
1 379
1 380
1 381
1 382
1 383
1 384
1 385
1 386
1 387
1 388
1 389
1 390
1 391
1 392
1 393
1 394
1 395
1 396
1 397
1 398
1 399
1 400
1 401
1 402
1 403
1 404
1 405
1 406
1 407
1 408
1 409
1 410
1 411
1 412
1 413
1 414
1 415
1 416
1 417
1 418
1 419
1 420
1 421
1 422
1 423
1 424
1 425
1 426
1 427
1 428
1 429
1 430
1 431
1 432
1 433
1 434
1 435
1 436
1 437
1 438
1 439
1 440
1 441
1 442
1 443
1 444
1 445
1 446
1 447
1 448
1 449
1 450
1 451
1 452
1 453
1 454
1 455
1 456
1 457
1 458
1 459
1 460
1 461
1 462
1 463
1 464
1 465
1 466
1 467
1 468
1 469
1 470
1 471
1 472
1 473
1 474
1 475
1 476
1 477
1 478
1 479
1 480
1 481
1 482
1 483
1 484
1 485
1 486
1 487
1 488
1 489
1 490
1 491
1 492
1 493
1 494
1 495
1 496
1 497
1 498
1 499
1 500
1 501
1 502
1 503
1 504
1 505
1 506
1 507
1 508
1 509
1 510
1 511
1 512
1 513
1 514
1 515
1 516
1 517
1 518
1 519
1 520
1 521
1 522
1 523
1 524
1 525
1 526
1 527
1 528
1 529
1 530
1 531
1 532
1 533
1 534
1 535
1 536
1 537
1 538
1 539
1 540
1 541
1 542
1 543
1 544
1 545
1 546
1 547
1 548
1 549
1 550
1 551
1 552
1 553
1 554
1 555
1 556
1 557
1 558
1 559
1 560
1 561
1 562
1 563
1 564
1 565
1 566
1 567
1 568
1 569
1 570
1 571
1 572
1 573
1 574
1 575
1 576
1 577
1 578
1 579
1 580
1 581
1 582
1 583
1 584
1 585
1 586
1 587
1 588
1 589
1 590
1 591
1 592
1 593
1 594
1 595
1 596
1 597
1 598
1 599
1 600
1 601
1 602
1 603
1 604
1 605
1 606
1 607
1 608
1 609
1 610
1 611
1 612
1 613
1 614
1 615
1 616
1 617
1 618
1 619
1 620
1 621
1 622
1 623
1 624
1 625
1 626
1 627
1 628
1 629
1 630
1 631
1 632
1 633
1 634
1 635
1 636
1 637
1 638
1 639
1 640
1 641
1 642
1 643
1 644
1 645
1 646
1 647
1 648
1 649
1 650
1 651
1 652
1 653
1 654
1 655
1 656
1 657
1 658
1 659
1 660
1 661
1 662
1 663
1 664
1 665
1 666
1 667
1 668
1 669
1 670
1 671
1 672
1 673
1 674
1 675
1 676
1 677
1 678
1 679
1 680
POINT_DATA 681
SCALARS is_boundary int 1
LOOKUP_TABLE default
0
0
0
0
0
0
0
0
0
0
0
0
0
0
0
0
0
0
0
0
0
0
0
0
0
0
0
0
0
0
0
0
0
0
0
0
0
0
0
0
0
0
0
0
0
0
0
0
0
0
0
0
0
0
0
0
0
0
0
0
0
0
0
0
0
0
0
0
0
0
0
0
0
0
0
0
0
0
0
0
0
0
0
0
0
0
0
0
0
0
0
0
0
0
0
0
0
0
0
0
0
0
0
0
0
0
0
0
0
0
0
0
0
0
0
0
0
0
0
0
0
0
0
0
0
0
0
0
0
0
0
0
0
0
0
0
0
0
0
0
0
0
0
0
0
0
0
0
0
0
0
0
0
0
0
0
0
0
0
0
0
0
0
0
0
0
0
0
0
0
0
0
0
0
0
0
0
0
0
0
0
0
0
0
0
0
0
0
0
0
0
0
0
0
0
0
0
0
0
0
0
0
0
0
0
0
0
0
0
0
0
0
0
0
0
0
0
0
0
0
0
0
0
0
0
0
0
0
0
0
0
0
0
0
0
0
0
0
0
0
0
0
0
0
0
0
0
0
0
0
0
0
0
0
0
0
0
0
0
0
0
0
0
0
0
0
0
0
0
0
0
0
0
0
0
0
0
0
0
0
0
0
0
0
0
0
0
0
0
0
0
0
0
0
0
0
0
0
0
0
0
0
0
0
0
0
0
0
0
0
0
0
0
0
0
0
0
0
0
0
0
0
0
0
0
0
0
0
0
0
0
0
0
0
0
0
0
0
0
0
0
0
0
0
0
0
0
0
0
0
0
0
0
0
0
0
0
0
0
0
0
0
0
0
0
0
0
0
0
0
0
0
0
0
0
1
1
1
1
1
1
1
1
1
1
1
1
1
1
1
1
1
1
1
1
1
1
1
1
1
1
1
1
1
1
1
1
1
1
1
1
1
1
1
1
1
1
1
1
1
1
1
1
1
1
1
1
1
1
1
1
1
1
1
1
1
1
1
1
1
1
1
1
1
1
1
1
1
1
1
1
1
1
1
1
1
1
1
1
1
1
1
1
1
1
1
1
1
1
1
1
1
1
1
1
1
1
1
1
1
1
1
1
1
1
1
1
1
1
1
1
1
1
1
1
1
1
1
1
1
1
1
1
1
1
1
1
1
1
1
1
1
1
1
1
1
1
1
1
1
1
1
1
1
1
1
1
1
1
1
1
1
1
1
1
1
1
1
1
1
1
1
1
1
1
1
1
1
1
1
1
1
1
1
1
1
1
1
1
1
1
1
1
1
1
1
1
1
1
1
1
1
1
1
1
1
1
1
1
1
1
1
1
1
1
1
1
1
1
1
1
1
1
1
1
1
1
1
1
1
1
1
1
1
1
1
1
1
1
1
1
1
1
1
1
1
1
1
1
1
1
1
1
1
1
1
1
1
1
1
1
1
1
1
1
1
1
1
1
1
1
1
1
1
1
1
1
1
1
1
1
1
1
1
1
1
1
1
1
1
1
1
1
1
1
1
1
1
1
1
1
1
1
1
1
1
1
1
1
1
1
SCALARS rho float 1
LOOKUP_TABLE default
1020
1020
1020
1020
1020
1020
1020
1020
1020
1020
1020
1020
1020
1020
1020
1020
862
862
862
850
850
850
850
850
850
1020
1020
1020
1020
1020
1020
1020
1020
1020
1020
1020
1020
1020
1020
1020
1020
1020
880
880
880
880
874.99422724533451
862
850
850
1020
1020
1020
1020
1020
1020
1020
1020
1020
1020
1020
1020
1020
1020
1020
1020
1020
990.05678463218806
880
880
880
874.30634605467594
862
850
850
1020
1020
1020
1020
1020
1020
1020
1020
1020
1020
1020
1020
1020
1020
1020
1020
1020
989.97693693274641
880
880
880
873.61926507584883
862
850
850
1020
1020
1020
1020
1020
1020
1020
1020
1020
1020
1020
1020
1020
1020
1020
1020
1020
989.86493055932397
880
880
880
873.27811068909477
862
850
850
1020
1020
1020
1020
1020
1020
1020
1020
1020
1020
1020
1020
1020
1020
1020
1020
1020
989.78049630042051
880
880
880
873.11741402573284
862
850
850
1020
1020
1020
1020
1020
1020
1020
1020
1020
1020
1020
1020
1020
1020
1020
1020
1020
989.73386954351145
880
880
880
873.04962879616176
862
850
850
1020
1020
1020
1020
1020
1020
1020
1020
1020
1020
1020
1020
1020
1020
1020
1020
1020
989.71908418018211
880
880
880
873.03133857422927
862
850
850
1020
1020
1020
1020
1020
1020
1020
1020
1020
1020
1020
1020
1020
1020
1020
1020
1020
989.73326087537885
880
880
880
873.04962870259737
862
850
850
1020
1020
1020
1020
1020
1020
1020
1020
1020
1020
1020
1020
1020
1020
1020
1020
1020
989.7797613880216
880
880
880
873.11741382642344
862
850
850
1020
1020
1020
1020
1020
1020
1020
1020
1020
1020
1020
1020
1020
1020
1020
1020
1020
989.86414150177325
880
880
880
873.27811038677817
862
850
850
1020
1020
1020
1020
1020
1020
1020
1020
1020
1020
1020
1020
1020
1020
1020
1020
1020
989.97616215958396
880
880
880
873.61926470870594
862
850
850
1020
1020
1020
1020
1020
1020
1020
1020
1020
1020
1020
1020
1020
1020
1020
1020
1020
990.05597300949171
880
880
880
874.30634567822653
862
850
850
1020
1020
1020
1020
1020
1020
1020
1020
1020
1020
1020
1020
1020
1020
1020
1020
1020
880
880
880
880
874.9942269044808
862
850
850
1020
1020
1020
1020
1020
1020
1020
1020
1020
1020
1020
1020
1020
1020
1020
1020
862
862
862
850
850
850
850
850
850
1000
1000
1000
1000
1000
1000
1000
1000
1000
1000
1000
1000
1000
1000
1000
1000
1000
1000
1000
1000
1000
1000
1000
1000
1000
1000
1000
1000
1000
1000
1000
1000
1000
1000
1000
1000
1000
1000
1000
1000
1000
1000
1000
1000
1000
1000
1000
1000
1000
1000
1000
1000
1000
1000
1000
1000
1000
1000
1000
1000
1000
1000
1000
1000
1000
1000
1000
1000
1000
1000
1000
1000
1000
1000
1000
1000
1000
1000
1000
1000
1000
1000
1000
1000
1000
1000
1000
1000
1000
1000
1000
1000
1000
1000
1000
1000
1000
1000
1000
1000
1000
1000
1000
1000
1000
1000
1000
1000
1000
1000
1000
1000
1000
1000
1000
1000
1000
1000
1000
1000
1000
1000
1000
1000
1000
1000
1000
1000
1000
1000
1000
1000
1000
1000
1000
1000
1000
1000
1000
1000
1000
1000
1000
1000
1000
1000
1000
1000
1000
1000
1000
1000
1000
1000
1000
1000
1000
1000
1000
1000
1000
1000
1000
1000
1000
1000
1000
1000
1000
1000
1000
1000
1000
1000
1000
1000
1000
1000
1000
1000
1000
1000
1000
1000
1000
1000
1000
1000
1000
1000
1000
1000
1000
1000
1000
1000
1000
1000
1000
1000
1000
1000
1000
1000
1000
1000
1000
1000
1000
1000
1000
1000
1000
1000
1000
1000
1000
1000
1000
1000
1000
1000
1000
1000
1000
1000
1000
1000
1000
1000
1000
1000
1000
1000
1000
1000
1000
1000
1000
1000
1000
1000
1000
1000
1000
1000
1000
1000
1000
1000
1000
1000
1000
1000
1000
1000
1000
1000
1000
1000
1000
1000
1000
1000
1000
1000
1000
1000
1000
1000
1000
1000
1000
1000
1000
1000
1000
1000
1000
1000
1000
1000
1000
1000
1000
1000
1000
1000
1000
1000
1000
1000
1000
1000
1000
1000
1000
1000
1000
1000
1000
1000
1000
1000
1000
1000
SCALARS p float 1
LOOKUP_TABLE default
25004.681136676067
25004.681136676067
25004.681136676067
25004.681136676067
25004.681136676067
25004.681136676067
25004.681136676067
25004.681136676067
25004.681136676067
25004.681136676067
25004.681136676067
25004.681136676067
25004.681136676067
25004.681136676067
25004.681136676067
25004.681136676067
0
0
0
0
0
0
0
0
0
25004.681136676067
25004.681136676067
25004.681136676067
25004.681136676067
25004.681136676067
25004.681136676067
25004.681136676067
25004.681136676067
25004.681136676067
25004.681136676067
25004.681136676067
25004.681136676067
25004.681136676067
25004.681136676067
25004.681136676067
25004.681136676067
25004.681136676067
0
0
0
0
0
0
0
0
25004.681136676067
25004.681136676067
25004.681136676067
25004.681136676067
25004.681136676067
25004.681136676067
25004.681136676067
25004.681136676067
25004.681136676067
25004.681136676067
25004.681136676067
25004.681136676067
25004.681136676067
25004.681136676067
25004.681136676067
25004.681136676067
25004.681136676067
0
0
0
0
0
0
0
0
25004.681136676067
25004.681136676067
25004.681136676067
25004.681136676067
25004.681136676067
25004.681136676067
25004.681136676067
25004.681136676067
25004.681136676067
25004.681136676067
25004.681136676067
25004.681136676067
25004.681136676067
25004.681136676067
25004.681136676067
25004.681136676067
25004.681136676067
0
0
0
0
0
0
0
0
25004.681136676067
25004.681136676067
25004.681136676067
25004.681136676067
25004.681136676067
25004.681136676067
25004.681136676067
25004.681136676067
25004.681136676067
25004.681136676067
25004.681136676067
25004.681136676067
25004.681136676067
25004.681136676067
25004.681136676067
25004.681136676067
25004.681136676067
0
0
0
0
0
0
0
0
25004.681136676067
25004.681136676067
25004.681136676067
25004.681136676067
25004.681136676067
25004.681136676067
25004.681136676067
25004.681136676067
25004.681136676067
25004.681136676067
25004.681136676067
25004.681136676067
25004.681136676067
25004.681136676067
25004.681136676067
25004.681136676067
25004.681136676067
0
0
0
0
0
0
0
0
25004.681136676067
25004.681136676067
25004.681136676067
25004.681136676067
25004.681136676067
25004.681136676067
25004.681136676067
25004.681136676067
25004.681136676067
25004.681136676067
25004.681136676067
25004.681136676067
25004.681136676067
25004.681136676067
25004.681136676067
25004.681136676067
25004.681136676067
0
0
0
0
0
0
0
0
25004.681136676067
25004.681136676067
25004.681136676067
25004.681136676067
25004.681136676067
25004.681136676067
25004.681136676067
25004.681136676067
25004.681136676067
25004.681136676067
25004.681136676067
25004.681136676067
25004.681136676067
25004.681136676067
25004.681136676067
25004.681136676067
25004.681136676067
0
0
0
0
0
0
0
0
25004.681136676067
25004.681136676067
25004.681136676067
25004.681136676067
25004.681136676067
25004.681136676067
25004.681136676067
25004.681136676067
25004.681136676067
25004.681136676067
25004.681136676067
25004.681136676067
25004.681136676067
25004.681136676067
25004.681136676067
25004.681136676067
25004.681136676067
0
0
0
0
0
0
0
0
25004.681136676067
25004.681136676067
25004.681136676067
25004.681136676067
25004.681136676067
25004.681136676067
25004.681136676067
25004.681136676067
25004.681136676067
25004.681136676067
25004.681136676067
25004.681136676067
25004.681136676067
25004.681136676067
25004.681136676067
25004.681136676067
25004.681136676067
0
0
0
0
0
0
0
0
25004.681136676067
25004.681136676067
25004.681136676067
25004.681136676067
25004.681136676067
25004.681136676067
25004.681136676067
25004.681136676067
25004.681136676067
25004.681136676067
25004.681136676067
25004.681136676067
25004.681136676067
25004.681136676067
25004.681136676067
25004.681136676067
25004.681136676067
0
0
0
0
0
0
0
0
25004.681136676067
25004.681136676067
25004.681136676067
25004.681136676067
25004.681136676067
25004.681136676067
25004.681136676067
25004.681136676067
25004.681136676067
25004.681136676067
25004.681136676067
25004.681136676067
25004.681136676067
25004.681136676067
25004.681136676067
25004.681136676067
25004.681136676067
0
0
0
0
0
0
0
0
25004.681136676067
25004.681136676067
25004.681136676067
25004.681136676067
25004.681136676067
25004.681136676067
25004.681136676067
25004.681136676067
25004.681136676067
25004.681136676067
25004.681136676067
25004.681136676067
25004.681136676067
25004.681136676067
25004.681136676067
25004.681136676067
25004.681136676067
0
0
0
0
0
0
0
0
25004.681136676067
25004.681136676067
25004.681136676067
25004.681136676067
25004.681136676067
25004.681136676067
25004.681136676067
25004.681136676067
25004.681136676067
25004.681136676067
25004.681136676067
25004.681136676067
25004.681136676067
25004.681136676067
25004.681136676067
25004.681136676067
25004.681136676067
0
0
0
0
0
0
0
0
25004.681136676067
25004.681136676067
25004.681136676067
25004.681136676067
25004.681136676067
25004.681136676067
25004.681136676067
25004.681136676067
25004.681136676067
25004.681136676067
25004.681136676067
25004.681136676067
25004.681136676067
25004.681136676067
25004.681136676067
25004.681136676067
0
0
0
0
0
0
0
0
0
0
0
0
0
0
0
7139.7089297091197
24953.502614066936
24992.580240344487
0
0
0
24894.881184412108
25001.438563524338
25003.693830223536
0
0
0
24956.969567250027
25003.038119452071
25004.160162572673
0
0
0
24962.769715028859
25003.119868965478
25004.173976235154
0
0
0
24962.76378231341
25003.119384435158
25004.171522848384
0
0
0
24962.552591315965
25003.115551528594
25004.170731898765
0
0
0
24962.452072392603
25003.113619512471
25004.170420038012
0
0
0
24962.412048036196
25003.112831978855
25004.170297323944
0
0
0
24962.39809787714
25003.112563033788
25004.170257395584
0
0
0
24962.397592336216
25003.112550846436
25004.170253831671
0
0
0
24962.411569663873
25003.112826174522
25004.17029680176
0
0
0
24962.451493109536
25003.113616864619
25004.17042178653
0
0
0
24962.552260616099
25003.115548265243
25004.17073511122
0
0
0
24962.762794970753
25003.11936548529
25004.171522780089
0
0
0
24962.768108278171
25003.119844104738
25004.173975027639
0
0
0
24956.96748073287
25003.038103869476
25004.160168039663
0
0
0
24894.871513308339
25001.438460167086
25003.693817654628
0
0
0
7137.1193762936127
24953.498255698214
24992.579445396739
0
0
0
0
0
0
0
0
0
0
0
0
0
0
0
0
0
0
0
0
0
0
0
0
0
0
0
0
0
0
0
0
0
0
0
0
0
0
0
0
0
0
0
0
0
0
0
0
0
0
0
0
0
0
0
0
0
0
0
0
0
0
0
0
0
0
0
0
0
0
0
0
0
0
0
0
0
0
0
0
0
0
0
0
0
0
0
0
0
0
0
0
0
0
0
0
0
0
0
0
0
0
0
0
0
0
0
0
0
0
0
0
0
0
0
0
0
0
0
0
0
0
0
0
0
0
0
0
0
0
0
0
0
0
0
0
0
0
0
0
0
0
0
0
0
0
0
0
0
0
0
0
0
0
0
0
0
0
0
0
0
0
0
0
0
0
0
0
0
0
0
0
0
0
0
0
0
0
0
0
0
0
0
0
0
0
0
0
0
0
0
0
0
0
0
SCALARS m float 1
LOOKUP_TABLE default
0.39942306611962441
0.39942306611962441
0.39942306611962441
0.39942306611962441
0.39942306611962441
0.39942306611962441
0.39942306611962441
0.39942306611962441
0.39942306611962441
0.39942306611962441
0.39942306611962441
0.39942306611962441
0.39942306611962441
0.39942306611962441
0.39942306611962441
0.39942306611962441
0.39942306611962441
0.39942306611962441
0.39942306611962441
0.39942306611962441
0.39942306611962441
0.39942306611962441
0.39942306611962441
0.39942306611962441
0.39942306611962441
0.39942306611962441
0.39942306611962441
0.39942306611962441
0.39942306611962441
0.39942306611962441
0.39942306611962441
0.39942306611962441
0.39942306611962441
0.39942306611962441
0.39942306611962441
0.39942306611962441
0.39942306611962441
0.39942306611962441
0.39942306611962441
0.39942306611962441
0.39942306611962441
0.39942306611962441
0.39942306611962441
0.39942306611962441
0.39942306611962441
0.39942306611962441
0.39942306611962441
0.39942306611962441
0.39942306611962441
0.39942306611962441
0.39942306611962441
0.39942306611962441
0.39942306611962441
0.39942306611962441
0.39942306611962441
0.39942306611962441
0.39942306611962441
0.39942306611962441
0.39942306611962441
0.39942306611962441
0.39942306611962441
0.39942306611962441
0.39942306611962441
0.39942306611962441
0.39942306611962441
0.39942306611962441
0.39942306611962441
0.39942306611962441
0.39942306611962441
0.39942306611962441
0.39942306611962441
0.39942306611962441
0.39942306611962441
0.39942306611962441
0.39942306611962441
0.39942306611962441
0.39942306611962441
0.39942306611962441
0.39942306611962441
0.39942306611962441
0.39942306611962441
0.39942306611962441
0.39942306611962441
0.39942306611962441
0.39942306611962441
0.39942306611962441
0.39942306611962441
0.39942306611962441
0.39942306611962441
0.39942306611962441
0.39942306611962441
0.39942306611962441
0.39942306611962441
0.39942306611962441
0.39942306611962441
0.39942306611962441
0.39942306611962441
0.39942306611962441
0.39942306611962441
0.39942306611962441
0.39942306611962441
0.39942306611962441
0.39942306611962441
0.39942306611962441
0.39942306611962441
0.39942306611962441
0.39942306611962441
0.39942306611962441
0.39942306611962441
0.39942306611962441
0.39942306611962441
0.39942306611962441
0.39942306611962441
0.39942306611962441
0.39942306611962441
0.39942306611962441
0.39942306611962441
0.39942306611962441
0.39942306611962441
0.39942306611962441
0.39942306611962441
0.39942306611962441
0.39942306611962441
0.39942306611962441
0.39942306611962441
0.39942306611962441
0.39942306611962441
0.39942306611962441
0.39942306611962441
0.39942306611962441
0.39942306611962441
0.39942306611962441
0.39942306611962441
0.39942306611962441
0.39942306611962441
0.39942306611962441
0.39942306611962441
0.39942306611962441
0.39942306611962441
0.39942306611962441
0.39942306611962441
0.39942306611962441
0.39942306611962441
0.39942306611962441
0.39942306611962441
0.39942306611962441
0.39942306611962441
0.39942306611962441
0.39942306611962441
0.39942306611962441
0.39942306611962441
0.39942306611962441
0.39942306611962441
0.39942306611962441
0.39942306611962441
0.39942306611962441
0.39942306611962441
0.39942306611962441
0.39942306611962441
0.39942306611962441
0.39942306611962441
0.39942306611962441
0.39942306611962441
0.39942306611962441
0.39942306611962441
0.39942306611962441
0.39942306611962441
0.39942306611962441
0.39942306611962441
0.39942306611962441
0.39942306611962441
0.39942306611962441
0.39942306611962441
0.39942306611962441
0.39942306611962441
0.39942306611962441
0.39942306611962441
0.39942306611962441
0.39942306611962441
0.39942306611962441
0.39942306611962441
0.39942306611962441
0.39942306611962441
0.39942306611962441
0.39942306611962441
0.39942306611962441
0.39942306611962441
0.39942306611962441
0.39942306611962441
0.39942306611962441
0.39942306611962441
0.39942306611962441
0.39942306611962441
0.39942306611962441
0.39942306611962441
0.39942306611962441
0.39942306611962441
0.39942306611962441
0.39942306611962441
0.39942306611962441
0.39942306611962441
0.39942306611962441
0.39942306611962441
0.39942306611962441
0.39942306611962441
0.39942306611962441
0.39942306611962441
0.39942306611962441
0.39942306611962441
0.39942306611962441
0.39942306611962441
0.39942306611962441
0.39942306611962441
0.39942306611962441
0.39942306611962441
0.39942306611962441
0.39942306611962441
0.39942306611962441
0.39942306611962441
0.39942306611962441
0.39942306611962441
0.39942306611962441
0.39942306611962441
0.39942306611962441
0.39942306611962441
0.39942306611962441
0.39942306611962441
0.39942306611962441
0.39942306611962441
0.39942306611962441
0.39942306611962441
0.39942306611962441
0.39942306611962441
0.39942306611962441
0.39942306611962441
0.39942306611962441
0.39942306611962441
0.39942306611962441
0.39942306611962441
0.39942306611962441
0.39942306611962441
0.39942306611962441
0.39942306611962441
0.39942306611962441
0.39942306611962441
0.39942306611962441
0.39942306611962441
0.39942306611962441
0.39942306611962441
0.39942306611962441
0.39942306611962441
0.39942306611962441
0.39942306611962441
0.39942306611962441
0.39942306611962441
0.39942306611962441
0.39942306611962441
0.39942306611962441
0.39942306611962441
0.39942306611962441
0.39942306611962441
0.39942306611962441
0.39942306611962441
0.39942306611962441
0.39942306611962441
0.39942306611962441
0.39942306611962441
0.39942306611962441
0.39942306611962441
0.39942306611962441
0.39942306611962441
0.39942306611962441
0.39942306611962441
0.39942306611962441
0.39942306611962441
0.39942306611962441
0.39942306611962441
0.39942306611962441
0.39942306611962441
0.39942306611962441
0.39942306611962441
0.39942306611962441
0.39942306611962441
0.39942306611962441
0.39942306611962441
0.39942306611962441
0.39942306611962441
0.39942306611962441
0.39942306611962441
0.39942306611962441
0.39942306611962441
0.39942306611962441
0.39942306611962441
0.39942306611962441
0.39942306611962441
0.39942306611962441
0.39942306611962441
0.39942306611962441
0.39942306611962441
0.39942306611962441
0.39942306611962441
0.39942306611962441
0.39942306611962441
0.39942306611962441
0.39942306611962441
0.39942306611962441
0.39942306611962441
0.39942306611962441
0.39942306611962441
0.39942306611962441
0.39942306611962441
0.39942306611962441
0.39942306611962441
0.39942306611962441
0.39942306611962441
0.39942306611962441
0.39942306611962441
0.39942306611962441
0.39942306611962441
0.39942306611962441
0.39942306611962441
0.39942306611962441
0.39942306611962441
0.39942306611962441
0.39942306611962441
0.39942306611962441
0.39942306611962441
0.39942306611962441
0.39942306611962441
0.39942306611962441
0.39942306611962441
0.39942306611962441
0.39942306611962441
0.39942306611962441
0.39942306611962441
0.39942306611962441
0.39942306611962441
0.39942306611962441
0.39942306611962441
0.39942306611962441
0.39942306611962441
0.39942306611962441
0.39942306611962441
0.39942306611962441
0.39942306611962441
0.39942306611962441
0.39942306611962441
0.39942306611962441
0.39942306611962441
0.39942306611962441
0.39942306611962441
0.39942306611962441
0.39942306611962441
0.39942306611962441
0.39942306611962441
0.39942306611962441
0.39942306611962441
0.39942306611962441
0.39942306611962441
0.39942306611962441
0.39942306611962441
0.39942306611962441
0.39942306611962441
0.39942306611962441
0.39942306611962441
0.39942306611962441
0.39942306611962441
0.39942306611962441
0.39942306611962441
0.39942306611962441
0.39942306611962441
0.39942306611962441
0.39942306611962441
0.39942306611962441
0.39942306611962441
0.39942306611962441
0.39942306611962441
0.39942306611962441
0.39942306611962441
0.39942306611962441
0.39942306611962441
0.39942306611962441
0.39942306611962441
0.39942306611962441
0.39942306611962441
0.39942306611962441
0.39942306611962441
0.39942306611962441
0.39942306611962441
0.39942306611962441
0.39942306611962441
0.39942306611962441
0.39942306611962441
0.39942306611962441
0.39942306611962441
0.39942306611962441
0.39942306611962441
0.39942306611962441
0.39942306611962441
0.39942306611962441
0.39942306611962441
0.39942306611962441
0.39942306611962441
0.39942306611962441
0.39942306611962441
0.39942306611962441
0.39942306611962441
0.39942306611962441
0.39942306611962441
0.39942306611962441
0.39942306611962441
0.39942306611962441
0.39942306611962441
0.39942306611962441
0.39942306611962441
0.39942306611962441
0.39942306611962441
0.39942306611962441
0.39942306611962441
0.39942306611962441
0.39942306611962441
0.39942306611962441
0.39942306611962441
0.39942306611962441
0.39942306611962441
0.39942306611962441
0.39942306611962441
0.39942306611962441
0.39942306611962441
0.39942306611962441
0.39942306611962441
0.39942306611962441
0.39942306611962441
0.39942306611962441
0.39942306611962441
0.39942306611962441
0.39942306611962441
0.39942306611962441
0.39942306611962441
0.39942306611962441
0.39942306611962441
0.39942306611962441
0.39942306611962441
0.39942306611962441
0.39942306611962441
0.39942306611962441
0.39942306611962441
0.39942306611962441
0.39942306611962441
0.39942306611962441
0.39942306611962441
0.39942306611962441
0.39942306611962441
0.39942306611962441
0.39942306611962441
0.39942306611962441
0.39942306611962441
0.39942306611962441
0.39942306611962441
0.39942306611962441
0.39942306611962441
0.39942306611962441
0.39942306611962441
0.39942306611962441
0.39942306611962441
0.39942306611962441
0.39942306611962441
0.39942306611962441
0.39942306611962441
0.39942306611962441
0.39942306611962441
0.39942306611962441
0.39942306611962441
0.39942306611962441
0.39942306611962441
0.39942306611962441
0.39942306611962441
0.39942306611962441
0.39942306611962441
0.39942306611962441
0.39942306611962441
0.39942306611962441
0.39942306611962441
0.39942306611962441
0.39942306611962441
0.39942306611962441
0.39942306611962441
0.39942306611962441
0.39942306611962441
0.39942306611962441
0.39942306611962441
0.39942306611962441
0.39942306611962441
0.39942306611962441
0.39942306611962441
0.39942306611962441
0.39942306611962441
0.39942306611962441
0.39942306611962441
0.39942306611962441
0.39942306611962441
0.39942306611962441
0.39942306611962441
0.39942306611962441
0.39942306611962441
0.39942306611962441
0.39942306611962441
0.39942306611962441
0.39942306611962441
0.39942306611962441
0.39942306611962441
0.39942306611962441
0.39942306611962441
0.39942306611962441
0.39942306611962441
0.39942306611962441
0.39942306611962441
0.39942306611962441
0.39942306611962441
0.39942306611962441
0.39942306611962441
0.39942306611962441
0.39942306611962441
0.39942306611962441
0.39942306611962441
0.39942306611962441
0.39942306611962441
0.39942306611962441
0.39942306611962441
0.39942306611962441
0.39942306611962441
0.39942306611962441
0.39942306611962441
0.39942306611962441
0.39942306611962441
0.39942306611962441
0.39942306611962441
0.39942306611962441
0.39942306611962441
0.39942306611962441
0.39942306611962441
0.39942306611962441
0.39942306611962441
0.39942306611962441
0.39942306611962441
0.39942306611962441
0.39942306611962441
0.39942306611962441
0.39942306611962441
0.39942306611962441
0.39942306611962441
0.39942306611962441
0.39942306611962441
0.39942306611962441
0.39942306611962441
0.39942306611962441
0.39942306611962441
0.39942306611962441
0.39942306611962441
0.39942306611962441
0.39942306611962441
0.39942306611962441
0.39942306611962441
0.39942306611962441
0.39942306611962441
0.39942306611962441
0.39942306611962441
0.39942306611962441
0.39942306611962441
0.39942306611962441
0.39942306611962441
0.39942306611962441
0.39942306611962441
0.39942306611962441
0.39942306611962441
0.39942306611962441
0.39942306611962441
0.39942306611962441
0.39942306611962441
0.39942306611962441
0.39942306611962441
0.39942306611962441
0.39942306611962441
0.39942306611962441
0.39942306611962441
0.39942306611962441
0.39942306611962441
0.39942306611962441
0.39942306611962441
0.39942306611962441
0.39942306611962441
0.39942306611962441
0.39942306611962441
0.39942306611962441
0.39942306611962441
0.39942306611962441
0.39942306611962441
0.39942306611962441
0.39942306611962441
0.39942306611962441
0.39942306611962441
0.39942306611962441
0.39942306611962441
0.39942306611962441
0.39942306611962441
0.39942306611962441
0.39942306611962441
0.39942306611962441
0.39942306611962441
0.39942306611962441
0.39942306611962441
0.39942306611962441
0.39942306611962441
0.39942306611962441
0.39942306611962441
0.39942306611962441
0.39942306611962441
0.39942306611962441
0.39942306611962441
0.39942306611962441
0.39942306611962441
0.39942306611962441
0.39942306611962441
0.39942306611962441
0.39942306611962441
0.39942306611962441
0.39942306611962441
0.39942306611962441
0.39942306611962441
0.39942306611962441
0.39942306611962441
0.39942306611962441
0.39942306611962441
0.39942306611962441
0.39942306611962441
0.39942306611962441
0.39942306611962441
0.39942306611962441
0.39942306611962441
0.39942306611962441
0.39942306611962441
0.39942306611962441
0.39942306611962441
0.39942306611962441
0.39942306611962441
0.39942306611962441
0.39942306611962441
0.39942306611962441
0.39942306611962441
0.39942306611962441
0.39942306611962441
0.39942306611962441
0.39942306611962441
0.39942306611962441
0.39942306611962441
0.39942306611962441
0.39942306611962441
0.39942306611962441
0.39942306611962441
0.39942306611962441
0.39942306611962441
0.39942306611962441
0.39942306611962441
0.39942306611962441
0.39942306611962441
0.39942306611962441
0.39942306611962441
0.39942306611962441
0.39942306611962441
0.39942306611962441
0.39942306611962441
0.39942306611962441
0.39942306611962441
0.39942306611962441
0.39942306611962441
0.39942306611962441
0.39942306611962441
0.39942306611962441
0.39942306611962441
0.39942306611962441
0.39942306611962441
VECTORS v float
-7.3399349082549196e-05 -0.08939259786773561 0
-8.3963865790389396e-05 -0.10379950363879667 0
-9.2424193282047033e-05 -0.11619095968166103 0
-0.00010101079787388397 -0.12987210607452687 0
-0.00010946434706337162 -0.14513036839301383 0
-0.00011762130622029554 -0.16258335297663432 0
-0.00012552883601839527 -0.18315543011435551 0
-0.00013364103546212758 -0.20814482420087793 0
-0.00014304653702196046 -0.23945774817298571 0
-0.00015458137217543231 -0.28003390827157987 0
-0.00016722535791482946 -0.33429366410877598 0
-0.00018635698943712583 -0.41095672879227835 0
-0.00021371008279165291 -0.53177952539770801 0
-0.00025914050571422721 -0.7677204325895296 0
-0.00035266223515951621 -1.3322296360410344 0
-0.00034421835650022369 -1.9943907830101208 0
-0.00019272774465923224 -2.1860021567360155 0
-4.8918664743220336e-05 -2.2072478147222894 0
-5.4620697144186289e-06 -2.2056640671312606 0
-6.1075962519981307e-07 -2.1997860633030979 0
-6.7043358921816416e-08 -2.1914289989324858 0
-6.7019115381646958e-09 -2.1808715100944545 0
-5.5992492249516898e-10 -2.1686300160833221 0
-3.2299156878235019e-11 -2.1560772382648183 0
-3.8123047704158948e-18 -2.0179751055542239 0
-4.078140041038964e-05 -0.093899874720694679 0
-4.7638130426004781e-05 -0.1089878179066642 0
-5.3327389198104571e-05 -0.1221312003661547 0
-6.0025191263319061e-05 -0.13641385537243997 0
-6.5643549653090941e-05 -0.15226189587012837 0
-7.0313482339010207e-05 -0.17033065081447715 0
-7.6154337380303399e-05 -0.19159142957510703 0
-8.3081085093003769e-05 -0.21744301161741736 0
-9.057803869023015e-05 -0.24986345546750638 0
-9.8978008382073017e-05 -0.29181046745572764 0
-0.00010948205543599882 -0.34764404597818199 0
-0.00012224982811428833 -0.42586224124207323 0
-0.00013921904099684128 -0.5462651913329224 0
-0.00016748736320424621 -0.76410547845580656 0
-0.00022661497615218768 -1.2589943506050711 0
-0.00027956913569027062 -1.9368495757548074 0
-0.00018346746548759935 -2.1769622681714078 0
-4.7957375363935479e-05 -2.2061438036071643 0
-5.336373174029169e-06 -2.205192507207137 0
-6.2510835203453954e-07 -2.199361377885932 0
-7.1366893036544775e-08 -2.1910184029987656 0
-7.3693549398655009e-09 -2.1805075996391596 0
-6.3236459138897485e-10 -2.1684538438005818 0
-3.7740091971967707e-11 -2.1563009896658576 0
-1.0825918892075804e-17 -2.0192366690392221 0
-1.9456694742710045e-05 -0.094489841108284733 0
-2.3614502434600389e-05 -0.10965582268140678 0
-2.6385435809098877e-05 -0.12289202180533584 0
-3.0410948028638023e-05 -0.13730604260891913 0
-3.4290711701662825e-05 -0.15333635703350473 0
-3.9336260674010464e-05 -0.17165261813699914 0
-4.4406655948411237e-05 -0.19324067214021967 0
-4.7033416303152475e-05 -0.21949381068057322 0
-5.1019152708737868e-05 -0.25241394343648405 0
-5.6049096518019486e-05 -0.29495409724931682 0
-6.1851072014176782e-05 -0.35140312470959567 0
-6.8952835680806781e-05 -0.43009240834477691 0
-7.7347966996411116e-05 -0.55025850382956309 0
-8.7612737665831238e-05 -0.7642602323153993 0
-0.0001035358341960586 -1.2409445483638619 0
-0.00010155837677103719 -1.9146521202402742 0
-6.1581565999413833e-05 -2.1723839003475707 0
-1.8880647514789788e-05 -2.2055090060205789 0
-3.1380047679650233e-06 -2.204825836180675 0
-4.2669389214196479e-07 -2.1989000183212468 0
-5.3295422884788313e-08 -2.1905355387767638 0
-5.8633285849926009e-09 -2.1800016598927612 0
-5.2723198687282283e-10 -2.1679897389316189 0
-3.2770501231331526e-11 -2.1559408856314146 0
-2.475519218421613e-17 -2.0211131856818465 0
-7.3915964674523957e-06 -0.094495662271461625 0
-9.182868278667872e-06 -0.10969696416138444 0
-1.0458588778736907e-05 -0.12296482784918389 0
-1.2045602203799707e-05 -0.13741795287706202 0
-1.473524360771904e-05 -0.15349302146007945 0
-1.6906088968999638e-05 -0.17186955427724049 0
-1.6641076061169535e-05 -0.19353723565682909 0
-1.9171613618800973e-05 -0.21989178488205796 0
-1.9199788415530819e-05 -0.25293667671903369 0
-2.1015493249493504e-05 -0.29562846199506321 0
-2.5147213442621936e-05 -0.3522375053261283 0
-2.6776996636196882e-05 -0.43106822779889353 0
-3.0180691180029635e-05 -0.55118685669334577 0
-3.2800582919838366e-05 -0.76412856023863407 0
-3.7730692613908175e-05 -1.235522634959179 0
-3.1034262320589283e-05 -1.9071550370090338 0
-1.9202332577942857e-05 -2.1704529739753964 0
-6.6394927515336555e-06 -2.2051243851355284 0
-1.361022286794185e-06 -2.2045614206410047 0
-2.2441400737278276e-07 -2.1985765906535377 0
-3.1351000914719748e-08 -2.190130135919917 0
-3.7363383007482955e-09 -2.1795305792656765 0
-3.5746399427857328e-10 -2.167481532782225 0
-2.3336100424656026e-11 -2.1553948670513647 0
-3.5509946903462478e-17 -2.0229092060056373 0
-6.3970856276035429e-07 -0.094442480458895417 0
-8.4125585205401227e-07 -0.10965717045535579 0
-1.2872535027006039e-06 -0.12293604021831535 0
-1.2250307180670496e-06 -0.13740256921760724 0
-1.7508458052496169e-06 -0.1534922246985313 0
-1.669897908721831e-06 -0.17188691502455847 0
-1.7248619035855219e-06 -0.1935799519720143 0
-1.8204692714654143e-06 -0.21996170693086306 0
-2.9758855461875797e-06 -0.25304116757060235 0
-3.1498427129444915e-06 -0.29577316402878856 0
-4.1487732762136632e-06 -0.35241937388819061 0
-4.764881873903539e-06 -0.43127490070423291 0
-5.4418168672067824e-06 -0.55135391557389613 0
-5.6636930969871288e-06 -0.76392411989980136 0
-6.3757990025729013e-06 -1.2335762649632587 0
-7.1921648266269937e-06 -1.9045111610852687 0
-6.0670495333912222e-06 -2.169705239542834 0
-2.1536040391848111e-06 -2.204916281713829 0
-4.9921478043985718e-07 -2.2043843668008978 0
-9.6220716242722347e-08 -2.1983571897491538 0
-1.5155660126831786e-08 -2.1898392317888851 0
-1.9739853378516346e-09 -2.1791660520638376 0
-2.0274310807593448e-10 -2.1670551858483074 0
-1.4009653000144734e-11 -2.1549055445983991 0
-3.2976343526420679e-17 -2.0242321622473041 0
1.3382830202030647e-06 -0.094407548376442732 0
8.8522403794831063e-07 -0.10962616320399364 0
1.4003105180973548e-06 -0.12290806561491582 0
1.2139340790987837e-06 -0.1373785947425061 0
2.529735800834856e-06 -0.15347359261813653 0
4.935628288923957e-06 -0.17187231847458914 0
5.5882953059784134e-06 -0.19357435319645919 0
4.9071836487069034e-06 -0.21996586753841829 0
4.7150789944829466e-06 -0.25305652184260541 0
4.4232207956748697e-06 -0.2957981577693265 0
4.7522309240056488e-06 -0.35245359613910199 0
4.7435846928290442e-06 -0.43130742839568575 0
3.5019187123750344e-06 -0.55136374946079458 0
4.3190900590585744e-06 -0.76378480650614045 0
4.4097743331849374e-06 -1.2328120191387077 0
1.8472617282809277e-06 -1.9035400987201965 0
-6.8834354270129036e-07 -2.1694151542015208 0
-4.9889344167722775e-07 -2.2048106043463269 0
-1.450714001749611e-07 -2.2042741132112877 0
-3.3087172290637769e-08 -2.1982122237899322 0
-5.9674037947584173e-09 -2.1896491276970922 0
-8.6089937211588446e-10 -2.1789223744300483 0
-9.5718355898051348e-11 -2.1667615678538703 0
-7.0395957343035281e-12 -2.1545659185769228 0
-2.1342813742605314e-17 -2.0250311094204783 0
5.1738122636217826e-07 -0.09439255064800324 0
6.4223400562597797e-07 -0.10961227697530951 0
6.8213162670018724e-07 -0.12289471744645089 0
6.3725869677392046e-07 -0.13736558022952264 0
6.3580941288307935e-07 -0.15346123602773093 0
2.6949346565597975e-06 -0.17186215976879418 0
2.502651878343822e-06 -0.1935640952340251 0
2.6952629920756446e-06 -0.21995822195422482 0
3.7111338506631735e-06 -0.253050435394224 0
3.9855296014515062e-06 -0.2957957798858365 0
4.5190046399786431e-06 -0.35245289165276511 0
5.2981623609155801e-06 -0.4313074836532646 0
5.0702786529728847e-06 -0.55135264836592335 0
5.5654919573404029e-06 -0.76371309299463086 0
3.9674824989856698e-06 -1.2325163269017008 0
1.599551837241981e-06 -1.9031843905691639 0
3.7031409241067255e-07 -2.1693061612517366 0
1.0760036597761778e-08 -2.2047609931331498 0
-2.5223930118785196e-08 -2.2042155466460658 0
-7.7412995063746881e-09 -2.198132582333264 0
-1.6602927595082088e-09 -2.1895435304710102 0
-2.7084858685932743e-10 -2.1787871409703241 0
-3.291116576986287e-11 -2.1665981045124902 0
-2.582656042281305e-12 -2.1543783986037046 0
-8.9209123337721739e-18 -2.0254249214876627 0
2.3039538431983246e-06 -0.094387646342379075 0
2.6919483217296908e-06 -0.10960638538217717 0
3.6757138940499584e-06 -0.12288878307399095 0
4.0317193361472615e-06 -0.13736000363965395 0
4.8587781869765649e-06 -0.15345543745563986 0
3.8487222957945052e-06 -0.17185819647520953 0
4.9619205256161213e-06 -0.19356030559710025 0
5.3363650719456592e-06 -0.21995354312240115 0
4.4218113524283575e-06 -0.25304844626561052 0
4.7185108580934549e-06 -0.29579341299465722 0
5.2287123280831772e-06 -0.35245005784519418 0
6.0340015586275965e-06 -0.43130764541294581 0
7.474722576170387e-06 -0.55134818164208554 0
7.8504569711980638e-06 -0.76369660825201224 0
4.1544512836184012e-06 -1.2324376067811613 0
-3.0780313832747242e-06 -1.9030875775883294 0
-1.0418149033887054e-06 -2.1692785455927788 0
-2.8389661773945214e-07 -2.2047478223199382 0
-7.798986991729261e-09 -2.2041974762676801 0
1.395665133315757e-09 -2.1981074412149844 0
3.6311319580790293e-10 -2.1895099712968844 0
5.3107112240016948e-11 -2.1787443259238377 0
5.6280007968124744e-12 -2.1665465329480922 0
3.9603847313651781e-13 -2.1543197268410053 0
1.5521404392388648e-18 -2.0255396961636722 0
2.6164346500714135e-06 -0.094392032816231569 0
3.2147192757506834e-06 -0.10961060148446101 0
3.054767652540346e-06 -0.122896353816113 0
3.7354523537484293e-06 -0.13736401126132608 0
4.8763011786172431e-06 -0.15345900569346438 0
5.1252183839899189e-06 -0.17185947716406477 0
5.2905921766362304e-06 -0.19356061422601029 0
6.3184509958393774e-06 -0.21995327335293055 0
6.6864467357949919e-06 -0.25304674248071324 0
1.1618089616301441e-05 -0.29579182778237745 0
8.05062490401792e-06 -0.35244864521108182 0
8.7978000556792134e-06 -0.4313052844287143 0
8.8994764556665742e-06 -0.55135027902477074 0
8.2285665675902081e-06 -0.76371168383673482 0
4.5501428129286909e-06 -1.2325080295230282 0
-3.9273783785272424e-06 -1.9031719521993988 0
-3.7006582635725751e-06 -2.169308060005553 0
-3.9546211967521748e-07 -2.2047623628365165 0
1.888226171003643e-08 -2.2042157035482841 0
1.1105095130853951e-08 -2.1981325988661173 0
2.4084335657676408e-09 -2.189543532218003 0
3.7669034965768503e-10 -2.178787141148093 0
4.4005514307424189e-11 -2.166598104528032 0
3.3584667193725591e-12 -2.1543783986046381 0
1.1863794929938752e-17 -2.0254249214876627 0
6.281322325532632e-06 -0.094409505530168997 0
6.2883559434444108e-06 -0.10962748504799669 0
7.6288187855785273e-06 -0.12290768784870119 0
8.6539288580581401e-06 -0.13737655121026379 0
9.0537745083145752e-06 -0.15347050628205341 0
1.08736025503095e-05 -0.17187000466300068 0
1.0030070979855991e-05 -0.19356994066449246 0
9.4982304829252456e-06 -0.21996090963047982 0
1.0333170524012104e-05 -0.25305052418388374 0
1.2118665587655362e-05 -0.29579195308109268 0
1.2650145748833552e-05 -0.35244674399442971 0
1.287622590710505e-05 -0.43130633404573754 0
1.3405549288180905e-05 -0.55135890703198787 0
1.2779654397854714e-05 -0.76377515343034486 0
8.8443852203385673e-06 -1.2327900956211397 0
3.5335361776260823e-06 -1.9035281963527759 0
1.7505640626723873e-06 -2.169416250047683 0
5.9946044826420591e-07 -2.2048114398458223 0
1.6492467153656602e-07 -2.2042742750910786 0
3.751405138949126e-08 -2.1982122485005759 0
6.7094460240628732e-09 -2.1896491309543857 0
9.5893415777829383e-10 -2.1789223747988586 0
1.0577383526846875e-10 -2.1667615678877077 0
7.7350751354080035e-12 -2.1545659185790074 0
2.3747980257378074e-17 -2.0250311094204783 0
6.1656056593187819e-06 -0.094442760425032704 0
7.4146315418447147e-06 -0.10965758308980522 0
8.3615677330845723e-06 -0.12293585404427347 0
9.1095305139075897e-06 -0.13740264418716411 0
1.0542097265049327e-05 -0.1534923268467305 0
1.1926831755139343e-05 -0.17188574142634602 0
1.3552049145712771e-05 -0.19357757764213449 0
1.4424795773543958e-05 -0.21995922468687223 0
1.5828723487412173e-05 -0.25303833606050258 0
1.7384860936995108e-05 -0.2957696411618273 0
1.935689248475873e-05 -0.35241564528049441 0
2.0920137940277649e-05 -0.43127228153029401 0
2.2544040568278706e-05 -0.55135210022116188 0
2.4132040248645903e-05 -0.76391073237579121 0
2.2705883949944278e-05 -1.233550252367146 0
1.3345560015676542e-05 -1.9045001706064655 0
6.8607475060742903e-06 -2.1697064557813914 0
2.3382711147661097e-06 -2.2049169606505377 0
5.2640627770299855e-07 -2.2043845277015199 0
1.0029829064802618e-07 -2.1983572198665127 0
1.5723918281358705e-08 -2.1898392363079107 0
2.0441886843964559e-09 -2.1791660526136378 0
2.0984687912357817e-10 -2.1670551859007845 0
1.4503343296789469e-11 -2.154905544601716 0
3.4470293808232996e-17 -2.0242321622473045 0
8.9675551948003583e-06 -0.094497297430065894 0
1.0426919201191481e-05 -0.10969848499129937 0
1.2340936886053938e-05 -0.12296548581132999 0
1.3745836970291715e-05 -0.13741959846520832 0
1.6147470963568962e-05 -0.1534961486002894 0
1.7357797510547937e-05 -0.17187232608503911 0
1.9553818482298204e-05 -0.19354011366064822 0
2.1627078949450471e-05 -0.21989211549721599 0
2.4192299835477872e-05 -0.2529369872992715 0
2.717119088202474e-05 -0.29562797714683481 0
3.0845659809425419e-05 -0.35223691856829636 0
3.5144789987708544e-05 -0.43106552073797999 0
3.9498259788578806e-05 -0.55118131586065688 0
4.540931999351122e-05 -0.76411990217677428 0
5.0217470330525825e-05 -1.2355049369257236 0
4.1062522520551615e-05 -1.9071461729764334 0
2.1459133243548071e-05 -2.1704542713299833 0
6.9385979878354239e-06 -2.2051252326560502 0
1.3859721903912399e-06 -2.2045616052286543 0
2.2639988490421404e-07 -2.1985766250149288 0
3.1516535285256342e-08 -2.1901301412223275 0
3.7534185592215708e-09 -2.1795305799320102 0
3.5939020708505392e-10 -2.1674815328475017 0
2.349668389697094e-11 -2.1553948670555783 0
3.6047110219656462e-17 -2.0229092060056377 0
1.9631609304262358e-05 -0.094493013392963607 0
2.334940901065737e-05 -0.10966075395431973 0
2.6533617708702573e-05 -0.12289585613812726 0
2.9424379988195113e-05 -0.13731112004293072 0
3.2214059227820965e-05 -0.15334033190560903 0
3.71547331802119e-05 -0.17165475972352079 0
4.1209379337697862e-05 -0.19324263015192467 0
4.7265408865214508e-05 -0.21949621046335344 0
5.1713764418264681e-05 -0.25241491071121719 0
5.7830293574392803e-05 -0.29495453299171143 0
6.253122665389261e-05 -0.35140425538330811 0
7.0266526534837386e-05 -0.43009491147423839 0
7.9645049154011306e-05 -0.55025729201445983 0
9.1513309692460047e-05 -0.76425723607586227 0
0.00011062340550392956 -1.2409319799045424 0
0.00010783182407655956 -1.9146543628414523 0
6.3870731101133555e-05 -2.1723886042194276 0
1.9185680185286574e-05 -2.2055106006847898 0
3.1405928407125295e-06 -2.2048260728832538 0
4.2450802095447352e-07 -2.1989000550894326 0
5.2868815156360124e-08 -2.1905355442083856 0
5.8118097435914793e-09 -2.1800016605773571 0
5.2291400821139107e-10 -2.1679897389996223 0
3.2547208503283746e-11 -2.1559408856358719 0
2.4763856513747052e-17 -2.0211131856818469 0
4.3840666695437694e-05 -0.093904676553973096 0
5.1115548175797636e-05 -0.10899244665142274 0
5.6109953112065875e-05 -0.1221368389268615 0
6.1425873324294204e-05 -0.13641718473154085 0
6.6666057171915397e-05 -0.15226550699145566 0
7.2026002612090209e-05 -0.17033485740051435 0
7.8077151348070095e-05 -0.19159708438455533 0
8.473775801372732e-05 -0.21744861897735235 0
9.239345017556674e-05 -0.24986804812247218 0
0.0001013030466501668 -0.29181335534271813 0
0.00011191481760108181 -0.34764545967591676 0
0.00012502316555576887 -0.42586246135647565 0
0.00014295059367089069 -0.54626505762271194 0
0.00017145382942228545 -0.76410059670033414 0
0.00023333631533262755 -1.2589794841644004 0
0.00028473785837545499 -1.9368588748456796 0
0.00018215725671710947 -2.1769698241298112 0
4.7601795730562707e-05 -2.2061458657345465 0
5.2860104401601719e-06 -2.2051927720721136 0
6.1764438534271947e-07 -2.1993614132726917 0
7.0378742265239793e-08 -2.191018407917491 0
7.2612589721421422e-09 -2.1805076002500159 0
6.2324421679361953e-10 -2.1684538438614558 0
3.7234916793947253e-11 -2.156300989669873 0
1.0750134023629029e-17 -2.0192366690392225 0
7.1105718565087279e-05 -0.089392017175327645 0
8.1541142515990543e-05 -0.10379971210810478 0
8.9693250583257062e-05 -0.1161917246606269 0
9.7872269444730444e-05 -0.12987316501833393 0
0.00010598885297898981 -0.1451319327773051 0
0.00011376854232000477 -0.16258506473624973 0
0.00012129943405336488 -0.18315726817915648 0
0.00012952973569785214 -0.20814687354195682 0
0.00013833823673053784 -0.23945920096015674 0
0.0001489449066262801 -0.28003446957496519 0
0.00016184094916260741 -0.33429138743368497 0
0.00017829305213791911 -0.41095250544169726 0
0.00020195731342792658 -0.53177314559010269 0
0.00024155194861653334 -0.76771272428817061 0
0.00032407896066957741 -1.3322405499194487 0
0.00033584457720844496 -1.9944138598155567 0
0.0001893547678551916 -2.1860098291308594 0
4.8225503521680161e-05 -2.2072491869368052 0
5.3858267262410765e-06 -2.2056642553636081 0
6.0154668612043086e-07 -2.1997860902687454 0
6.5946172643402311e-08 -2.1914290026664678 0
6.5874350254049304e-09 -2.1808715105532399 0
5.5042531565603761e-10 -2.1686300161286076 0
3.1777890610674717e-11 -2.1560772382677715 0
3.769080120269779e-18 -2.0179751055542243 0
-0 -0 0
-0 -0 0
-0 -0 0
-0 -0 0
-0 -0 0
-0 -0 0
2.190780488117289e-05 0.02662982657103238 0
8.752955583326297e-05 0.11020440448866868 0
0.00011137377019333869 0.16068359765190859 0
-0 -0 0
-0 -0 0
-0 -0 0
7.8448896611921649e-05 0.096591800587398371 0
9.0166887732648869e-05 0.12029129797069366 0
0.00011114629984139378 0.17179691213338188 0
-0 -0 0
-0 -0 0
-0 -0 0
5.8955361801189703e-05 0.099535619470700346 0
7.1206615460202709e-05 0.12275195684466696 0
9.0055316559283091e-05 0.17463288118512207 0
-0 -0 0
-0 -0 0
-0 -0 0
3.2766222039565836e-05 0.10191001582082775 0
4.0911796833169768e-05 0.12475865365095132 0
5.4300647052993859e-05 0.17687326451515389 0
-0 -0 0
-0 -0 0
-0 -0 0
1.5119629525521727e-05 0.10219415804901898 0
1.9691923104686188e-05 0.12515742076802336 0
2.6985668254647642e-05 0.17735059809543993 0
-0 -0 0
-0 -0 0
-0 -0 0
4.6374122291131052e-06 0.10215506275698093 0
6.4578779198352631e-06 0.12513389164272076 0
9.0882436337015396e-06 0.17727981298474249 0
-0 -0 0
-0 -0 0
-0 -0 0
-2.9917449992070688e-07 0.10210172581611462 0
-9.2327990396345875e-08 0.12507837254219281 0
-4.3151906755510116e-08 0.17719374719886241 0
-0 -0 0
-0 -0 0
-0 -0 0
-9.8253194296096581e-07 0.10207235085006527 0
-1.3482135481336394e-06 0.12504510161711979 0
-2.2462836666925496e-06 0.17714456167457862 0
-0 -0 0
-0 -0 0
-0 -0 0
-1.6133271319464275e-06 0.10206040321302678 0
-2.1185279487809232e-06 0.12503098059192136 0
-3.0305517900957555e-06 0.17712379656943125 0
-0 -0 0
-0 -0 0
-0 -0 0
-2.5856302830664626e-06 0.10205980130993401 0
-3.3874602804180227e-06 0.12503024349590325 0
-4.6387197976768359e-06 0.17712240473108704 0
-0 -0 0
-0 -0 0
-0 -0 0
-4.5939430862496799e-06 0.10207246914860443 0
-5.5172527197619161e-06 0.12504409763640345 0
-7.0962081444074294e-06 0.17714174101625671 0
-0 -0 0
-0 -0 0
-0 -0 0
-6.6907475690148318e-06 0.10210226670978342 0
-8.0067157111911582e-06 0.12507778303803568 0
-1.0295691654640485e-05 0.1771913632594897 0
-0 -0 0
-0 -0 0
-0 -0 0
-8.3104365748138098e-06 0.10215562696702729 0
-1.0747464968230246e-05 0.12513426776002601 0
-1.485880463610073e-05 0.17727957047193738 0
-0 -0 0
-0 -0 0
-0 -0 0
-1.5764680087919747e-05 0.10219664523812105 0
-2.031171496937229e-05 0.12515969197058707 0
-2.7885340646940649e-05 0.17735237504989207 0
-0 -0 0
-0 -0 0
-0 -0 0
-3.4438952107420958e-05 0.10191433011248111 0
-4.1879634371725489e-05 0.12476222948646981 0
-5.474526725376946e-05 0.17687591205175968 0
-0 -0 0
-0 -0 0
-0 -0 0
-5.9828769627365456e-05 0.099538320098290445 0
-7.1218463021139775e-05 0.12275454795324582 0
-8.9275059185557308e-05 0.17463543990226277 0
-0 -0 0
-0 -0 0
-0 -0 0
-7.6129626178447583e-05 0.096591377559072003 0
-8.7756141405685302e-05 0.12029193119272992 0
-0.00010793300364951285 0.17179744221077631 0
-0 -0 0
-0 -0 0
-0 -0 0
-2.122395307869116e-05 0.026620183869907749 0
-8.4918956787801062e-05 0.11020398744033716 0
-0.00010790077503383523 0.1606821235707355 0
-0 -0 0
-0 -0 0
-0 -0 0
-0 -0 0
-0 -0 0
-0 -0 0
-0 -0 0
-0 -0 0
-0 -0 0
-0 -0 0
-0 -0 0
-0 -0 0
-0 -0 0
-0 -0 0
-0 -0 0
-0 -0 0
-0 -0 0
-0 -0 0
-0 -0 0
-0 -0 0
-0 -0 0
-0 -0 0
-0 -0 0
-0 -0 0
-0 -0 0
-0 -0 0
-0 -0 0
-0 -0 0
-0 -0 0
-0 -0 0
-0 -0 0
-0 -0 0
-0 -0 0
-0 -0 0
-0 -0 0
-0 -0 0
-0 -0 0
-0 -0 0
-0 -0 0
-0 -0 0
-0 -0 0
-0 -0 0
-0 -0 0
-0 -0 0
-0 -0 0
-0 -0 0
-0 -0 0
-0 -0 0
-0 -0 0
-0 -0 0
-0 -0 0
-0 -0 0
-0 -0 0
-0 -0 0
-0 -0 0
-0 -0 0
-0 -0 0
-0 -0 0
-0 -0 0
-0 -0 0
-0 -0 0
-0 -0 0
-0 -0 0
-0 -0 0
-0 -0 0
-0 -0 0
-0 -0 0
-0 -0 0
-0 -0 0
-0 -0 0
-0 -0 0
-0 -0 0
-0 -0 0
-0 -0 0
-0 -0 0
-0 -0 0
-0 -0 0
-0 -0 0
-0 -0 0
-0 -0 0
-0 -0 0
-0 -0 0
-0 -0 0
-0 -0 0
-0 -0 0
-0 -0 0
-0 -0 0
-0 -0 0
-0 -0 0
-0 -0 0
-0 -0 0
-0 -0 0
-0 -0 0
-0 -0 0
-0 -0 0
-0 -0 0
-0 -0 0
-0 -0 0
-0 -0 0
-0 -0 0
-0 -0 0
-0 -0 0
-0 -0 0
-0 -0 0
-0 -0 0
-0 -0 0
-0 -0 0
-0 -0 0
-0 -0 0
-0 -0 0
-0 -0 0
-0 -0 0
-0 -0 0
-0 -0 0
-0 -0 0
-0 -0 0
-0 -0 0
-0 -0 0
-0 -0 0
-0 -0 0
-0 -0 0
-0 -0 0
-0 -0 0
-0 -0 0
-0 -0 0
-0 -0 0
-0 -0 0
-0 -0 0
-0 -0 0
-0 -0 0
-0 -0 0
-0 -0 0
-0 -0 0
-0 -0 0
-0 -0 0
-0 -0 0
-0 -0 0
-0 -0 0
-0 -0 0
-0 -0 0
-0 -0 0
-0 -0 0
-0 -0 0
-0 -0 0
-0 -0 0
-0 -0 0
-0 -0 0
-0 -0 0
-0 -0 0
-0 -0 0
-0 -0 0
-0 -0 0
-0 -0 0
-0 -0 0
-0 -0 0
-0 -0 0
-0 -0 0
-0 -0 0
-0 -0 0
-0 -0 0
-0 -0 0
-0 -0 0
-0 -0 0
-0 -0 0
-0 -0 0
-0 -0 0
-0 -0 0
-0 -0 0
-0 -0 0
-0 -0 0
-0 -0 0
-0 -0 0
-0 -0 0
-0 -0 0
-0 -0 0
-0 -0 0
-0 -0 0
-0 -0 0
-0 -0 0
-0 -0 0
-0 -0 0
-0 -0 0
-0 -0 0
-0 -0 0
-0 -0 0
-0 -0 0
-0 -0 0
-0 -0 0
-0 -0 0
-0 -0 0
-0 -0 0
-0 -0 0
-0 -0 0
-0 -0 0
-0 -0 0
