# vtk DataFile Version 3.0
SPH particles (WCSPH) - legacy PolyData
ASCII
DATASET POLYDATA
POINTS 681 float
0.049996026656138455 0.031536554631380317 0
0.04999525741903886 0.034787452808681917 0
0.049994648983637278 0.037400647014099828 0
0.049994087214238495 0.040061967395228562 0
0.049993624606324463 0.042762825431305808 0
0.049993238822356997 0.045516988008618781 0
0.049992923396354846 0.048357083958952232 0
0.049992505026027548 0.051330178101687982 0
0.049991895328094157 0.054499716574754088 0
0.049990939860844442 0.057953782240582855 0
0.049989235650796097 0.061818466121902296 0
0.049987139509549888 0.066293180788386155 0
0.049986650254160353 0.071772422885665918 0
0.049988740142183637 0.079321993754464387 0
0.049992660941289055 0.09166894175842473 0
0.049996800881641594 0.10951544735082676 0
0.049999219188837263 0.12929119832756603 0
0.049999898082108793 0.14942902319553494 0
0.049999987982423631 0.16977392010852363 0
0.049999998634876301 0.19043737133681121 0
0.049999999856532348 0.2116390603391535 0
0.049999999986604912 0.23372822974736274 0
0.04999999999897909 0.25728363749838318 0
0.049999999999947135 0.28354058028496049 0
0.050000000000000003 0.33073313343326621 0
0.069998130714538281 0.030291540546105927 0
0.069997723063669567 0.033884262373369188 0
0.06999737013981823 0.036814590987793959 0
0.06999707589050734 0.039728907913186437 0
0.06999679530549574 0.04263927673108233 0
0.069996505401234838 0.045575013980063299 0
0.069996221802297795 0.048580190887175467 0
0.069995912533005203 0.051710836557312644 0
0.06999556564152172 0.055036813676650982 0
0.06999494372846353 0.058651052136433984 0
0.069993580094618438 0.06268309662375969 0
0.069991307536159758 0.067333953082950551 0
0.069990104651221102 0.072977713336460873 0
0.069990992943698177 0.080507263473234919 0
0.069993547817433596 0.092278939428004608 0
0.06999691938187376 0.1096289799468366 0
0.069999223558170495 0.12931052846610272 0
0.069999898591442053 0.14944651940718562 0
0.069999988075144723 0.16980679860507217 0
0.069999998573071168 0.19050049443733405 0
0.069999999843437452 0.21175433554734618 0
0.069999999984965117 0.23392430108125356 0
0.069999999998826348 0.25757445978591664 0
0.069999999999937168 0.28387228758823535 0
0.070000000000000007 0.32987005843921863 0
0.0899993907935486 0.030273053841806768 0
0.089999225107754058 0.033876227168719616 0
0.089999119927019144 0.036817623157112442 0
0.089998958549454458 0.039748396135803984 0
0.089998790952952323 0.042679794872828233 0
0.089998594833360618 0.0456405985296717 0
0.089998319943961735 0.048675345594838146 0
0.089998210912966919 0.051840459154362688 0
0.089998091321852089 0.055206520283951024 0
0.089997942743798132 0.058867034022123579 0
0.089997796596325674 0.062951205579314468 0
0.089997282948582918 0.067657880497241946 0
0.089996693541294637 0.073353153134579199 0
0.089996715080498765 0.080892905562458359 0
0.089997660728984699 0.092519483252009288 0
0.089998851262824503 0.1096854852654086 0
0.089999662461485955 0.12932233768176393 0
0.089999939099228238 0.14945816528582107 0
0.089999991906914559 0.16983096405705211 0
0.089999998980670889 0.1905492567340617 0
0.08999999987938917 0.21184213677898708 0
0.089999999987779716 0.23406687267754359 0
0.089999999999006777 0.2577719806142808 0
0.089999999999944846 0.28409235649781789 0
0.090000000000000011 0.32943358009381096 0
0.10999980743027454 0.030296663372509896 0
0.10999969221800261 0.033903302494261718 0
0.10999962172016904 0.03684815134800238 0
0.10999952592040074 0.039783110497000639 0
0.1099994483449394 0.042719454771712538 0
0.10999951941969101 0.045686216598937852 0
0.1099995492094738 0.048728013724383915 0
0.10999953729013705 0.051901443304409781 0
0.10999952290490991 0.055277339069430803 0
0.10999953010700175 0.058949471875779091 0
0.10999944944829466 0.063047040293094742 0
0.10999977577473216 0.067768591479995532 0
0.1099993501579935 0.073477887738450653 0
0.1099990571908379 0.081020577209904437 0
0.1099992894042668 0.092604413123794943 0
0.1099996354690175 0.10970972221528463 0
0.10999988003707652 0.12932966723198644 0
0.10999997425330071 0.14946690204453417 0
0.10999999588059563 0.16984850958664577 0
0.10999999942538437 0.19058175973997102 0
0.10999999992604839 0.21189686448879402 0
0.10999999999199847 0.23415009186659622 0
0.10999999999931472 0.25788194911069368 0
0.10999999999996031 0.28421836687189511 0
0.11000000000000001 0.32919906045657649 0
0.12999994992035296 0.030307601453502354 0
0.12999993686207575 0.033916608213534476 0
0.129999936396959 0.036863341885869295 0
0.12999993302664589 0.039800235002599771 0
0.13000001188032617 0.04273861335661789 0
0.13000008855751252 0.045707525951493334 0
0.1300001652971314 0.0487518420771779 0
0.13000023731723495 0.051927998459948978 0
0.13000033068145475 0.055307051849633762 0
0.13000047233720488 0.058982786247167907 0
0.1300005908412554 0.063084382756223384 0
0.13000049309977815 0.067810158364390152 0
0.13000024714779174 0.073523486831485713 0
0.13000007170468053 0.081066217099832555 0
0.12999992877257457 0.092635110651775848 0
0.12999990105110312 0.10971951767063125 0
0.12999996249705265 0.12933381640390207 0
0.12999999113060925 0.14947278113076992 0
0.12999999834822745 0.16985976142423148 0
0.12999999973755269 0.1906011501751701 0
0.12999999996285316 0.21192783736861517 0
0.12999999999566239 0.23419532098352308 0
0.12999999999960507 0.25794010392195243 0
0.12999999999997605 0.28428471216613144 0
0.13 0.3290860394702454 0
0.15000007773391152 0.03031188698329516 0
0.15000010386627047 0.033921966044949778 0
0.15000013621139396 0.036869543426841976 0
0.15000017909022456 0.03980730665504232 0
0.15000032132817048 0.042746560293478883 0
0.15000032606757541 0.045716316054114331 0
0.15000033163419388 0.048761566504572543 0
0.15000034550739696 0.051938787490285646 0
0.15000041482854087 0.0553190055664525 0
0.15000048357367057 0.058996043165517709 0
0.1500005706041557 0.063099059933985346 0
0.15000045344170893 0.067826172934012011 0
0.15000044103711685 0.073540780877258502 0
0.15000029297706219 0.081083210189756866 0
0.15000010661390539 0.0926464135381974 0
0.15000000628645985 0.10972342946532354 0
0.1499999946082213 0.12933602602806146 0
0.14999999791695229 0.14947621934524302 0
0.14999999950038348 0.16986610836783284 0
0.14999999990622942 0.19061173631649406 0
0.14999999998498922 0.21194410992810539 0
0.14999999999807759 0.23421824675565847 0
0.14999999999981212 0.25796882780363528 0
0.14999999999998798 0.28431686279875901 0
0.15000000000000002 0.32903717475098565 0
0.17000011341389443 0.030313517922976683 0
0.17000016034474993 0.033923993810270149 0
0.17000019110426787 0.036871930394785132 0
0.17000024141721462 0.039809976285398369 0
0.17000030243425376 0.042749471971255774 0
0.17000041284096606 0.045719609549805994 0
0.17000057268563437 0.048765266358012906 0
0.17000061870857777 0.051942856225217167 0
0.17000066160040908 0.055323489045321916 0
0.1700006990208382 0.059000971849448469 0
0.17000070487151428 0.063104478313113138 0
0.17000060622183452 0.067832133238808934 0
0.17000059788666866 0.073547185747940946 0
0.17000054281573249 0.081089326717633164 0
0.17000012386529972 0.092650492599315945 0
0.17000003591807905 0.10972493153535397 0
0.17000000546339908 0.12933707242703377 0
0.17000000013352182 0.14947793488018371 0
0.169999999931669 0.16986918158211095 0
0.16999999997893861 0.19061677682520967 0
0.16999999999584156 0.21195167112430499 0
0.16999999999939711 0.23422858473070932 0
0.16999999999993609 0.25798150224152128 0
0.16999999999999577 0.28433075062428143 0
0.17000000000000004 0.32901858264068889 0
0.19000003778439836 0.030313990145537678 0
0.19000004796564274 0.033924539422443931 0
0.1900000726066334 0.036872513047557551 0
0.19000007928633875 0.039810612865653065 0
0.19000013970204271 0.042750178552189592 0
0.19000026595671865 0.045720470614083721 0
0.19000038086258267 0.048766164637567722 0
0.1900003794861978 0.05194384148418825 0
0.19000043773772357 0.055324615935467732 0
0.19000046011499305 0.059002262227387761 0
0.19000030727031336 0.063105926952843117 0
0.19000037690519855 0.067833865571492874 0
0.19000018358992513 0.073548897677060784 0
0.19000008660427417 0.081091086312422303 0
0.19000006344449485 0.092651663036813783 0
0.18999998755769495 0.1097253295902885 0
0.18999999783526142 0.12933734949962922 0
0.19000000026687383 0.14947844345099454 0
0.19000000006014142 0.16987008309036739 0
0.19000000000926065 0.19061824113096304 0
0.1900000000012407 0.2119538379480618 0
0.19000000000013953 0.23423149681720579 0
0.19000000000001238 0.25798502665132211 0
0.19000000000000059 0.28433455895287746 0
0.19 0.32901394647466853 0
0.21000013018738345 0.030313538978629373 0
0.21000017526002521 0.03392402156661934 0
0.21000021226890256 0.036871932988572526 0
0.21000025081030374 0.039809983722464068 0
0.21000032959893267 0.042749514592834999 0
0.2100003261534111 0.045719650817963448 0
0.21000039767996187 0.048765274929508225 0
0.21000039980349655 0.051942887054809775 0
0.21000042414358094 0.055323546215437155 0
0.21000040793785235 0.059001079545495487 0
0.21000036597396943 0.063104631026910427 0
0.21000030333411984 0.067832360817083048 0
0.21000013704067441 0.073547389206660305 0
0.20999996799999951 0.081089564240686973 0
0.20999998196350164 0.092650691305000463 0
0.20999998160895983 0.10972496125580412 0
0.20999999636373506 0.12933705270166951 0
0.21000000051579443 0.14947793237819212 0
0.21000000020164608 0.16986918135507428 0
0.21000000004054001 0.1906167768022759 0
0.21000000000671867 0.21195167112184168 0
0.21000000000088681 0.23422858473046926 0
0.21000000000008925 0.25798150224150196 0
0.21000000000000571 0.28433075062428015 0
0.21000000000000002 0.32901858264068889 0
0.23000012900294636 0.030311955676338678 0
0.23000015563940268 0.033922025328145804 0
0.23000019361974106 0.03686963328980377 0
0.23000023961633995 0.039807323805330072 0
0.2300003053093124 0.042746597469294427 0
0.23000034760936042 0.045716373646866149 0
0.23000041200648574 0.048761625466234138 0
0.2300004379341333 0.051938823983313648 0
0.23000050664496816 0.055319049782657566 0
0.23000055064284669 0.058996080665975621 0
0.23000052887215819 0.063099118803440102 0
0.23000035345273537 0.06782638946531723 0
0.23000020580086233 0.073541057944121413 0
0.23000007475196138 0.081083334880481112 0
0.23000005946760094 0.092646407515805898 0
0.23000002536026012 0.10972337998659162 0
0.23000001028521938 0.12933600914166482 0
0.23000000303407592 0.14947621572518224 0
0.23000000064142381 0.16986610787912595 0
0.23000000011351054 0.19061173625578365 0
0.23000000001754525 0.21194410992109486 0
0.23000000000219684 0.23421824675496877 0
0.23000000000021159 0.25796882780358049 0
0.23000000000001344 0.28431686279875623 0
0.23000000000000004 0.32903717475098571 0
0.25000017859714113 0.03030765290671204 0
0.25000023663180976 0.033916674300045309 0
0.25000027526921237 0.036863441924958711 0
0.25000034753438755 0.039800381600193599 0
0.25000040141937596 0.042738746959718181 0
0.25000044508231117 0.045707654315989943 0
0.25000044717348568 0.048751967679838235 0
0.25000052660720634 0.051928126461571099 0
0.25000057744098958 0.055307183915462625 0
0.25000064531369998 0.058982902491877653 0
0.2500006399624341 0.063084535678775422 0
0.25000051734391121 0.067810304274003419 0
0.25000029747485464 0.073523778457889682 0
0.25000036978348134 0.081066157830007937 0
0.25000019689173625 0.092634908870534438 0
0.25000011633964569 0.10971940387767375 0
0.25000004114739027 0.12933378910453983 0
0.25000000964037583 0.14947277593491104 0
0.25000000176559201 0.16985976062920288 0
0.25000000027779584 0.19060115006996217 0
0.2500000000390904 0.21192783735600987 0
0.2500000000045462 0.23419532098226298 0
0.25000000000041267 0.25794010392185218 0
0.25000000000002476 0.28428471216612583 0
0.25000000000000006 0.3290860394702454 0
0.27000025156598506 0.030296702715819707 0
0.27000032061842039 0.033903339791207812 0
0.27000037384143261 0.036848196651761464 0
0.27000045041285525 0.039783193112768143 0
0.27000065333293971 0.042719646190987802 0
0.2700007404148978 0.045686390434006567 0
0.27000082330662678 0.048728276997946914 0
0.27000092619497346 0.051901677975853384 0
0.27000105773336969 0.055277571521308806 0
0.27000114903253308 0.058949682640451216 0
0.27000123292615047 0.063047237085676902 0
0.27000118463928535 0.067768671135339076 0
0.2700014271266033 0.07347806350496805 0
0.27000118693518593 0.08102062977264099 0
0.2700008122235571 0.092604325265014165 0
0.27000038668824561 0.10970964012322264 0
0.27000012347584573 0.12932964130116886 0
0.27000002615599111 0.14946689620715739 0
0.27000000416046099 0.16984850862990761 0
0.27000000057943763 0.19058175960840756 0
0.27000000007456793 0.21189686447253137 0
0.27000000000807334 0.23415009186492919 0
0.27000000000069163 0.25788194911055856 0
0.27000000000003987 0.2842183668718874 0
0.27000000000000002 0.32919906045657649 0
0.2900006811170468 0.030273197497204932 0
0.29000086322806939 0.033876366918246727 0
0.29000100648400517 0.036817777977321997 0
0.29000115516289793 0.039748587971751834 0
0.29000131025189274 0.042679930453356926 0
0.29000148512027712 0.045640747777794866 0
0.29000164873898865 0.048675657811095271 0
0.29000182920425582 0.051840816232318669 0
0.29000207916130916 0.055206877096997099 0
0.29000237679829088 0.058867381357478474 0
0.29000274625920541 0.062951535390880831 0
0.29000311617040248 0.067658168112959119 0
0.29000350048654866 0.073353376495780151 0
0.29000330753905723 0.080893119057337981 0
0.2900023425885685 0.09251944265549096 0
0.29000115328469672 0.10968540475023343 0
0.29000033819422322 0.12932231080347764 0
0.29000006057881755 0.14945815932226378 0
0.29000000801999876 0.16983096312228435 0
0.29000000100913975 0.19054925660339861 0
0.2900000001194678 0.21184213676245303 0
0.29000000001212045 0.23406687267580581 0
0.29000000000098658 0.25777198061413686 0
0.29000000000005471 0.28409235649780989 0
0.29000000000000004 0.32943358009381091 0
0.31000196195395663 0.030291711828991985 0
0.31000238573605543 0.033884452145797994 0
0.31000269625696059 0.036814765961068967 0
0.31000299236098866 0.039729137763366118 0
0.31000328547888323 0.042639498409582768 0
0.3100035991777374 0.045575202140160392 0
0.31000392291947548 0.048580525475653676 0
0.31000422875790656 0.051711179229150847 0
0.3100046392472452 0.055037121557268642 0
0.31000525402225326 0.058651309449283116 0
0.31000668929436365 0.062683328885139236 0
0.31000896067151862 0.067334189251591098 0
0.31000999185270983 0.072977970269389236 0
0.31000891185800555 0.080507439307265324 0
0.31000635548319427 0.092278820193314876 0
0.31000304337863221 0.10962887609698869 0
0.31000076691973272 0.12931049972142328 0
0.31000009996325351 0.14944651414720431 0
0.31000001173337938 0.16980679782088248 0
0.31000000140290562 0.19050049432522731 0
0.31000000015396817 0.21175433553313519 0
0.31000000001480088 0.23392430107973847 0
0.31000000000115707 0.25757445978578902 0
0.31000000000006189 0.28387228758822802 0
0.31000000000000005 0.32987005843921863 0
0.33000383003982137 0.031536811619254305 0
0.33000456357277924 0.034787706656066231 0
0.33000513911913865 0.037400893267189733 0
0.33000565851075814 0.040062194421212213 0
0.33000608051482588 0.042763018509917733 0
0.33000644188158046 0.045517142258451236 0
0.33000679340885247 0.048357204223610242 0
0.3300071938989847 0.051330271130341165 0
0.33000767598976161 0.054499755623256985 0
0.33000847036709119 0.057953768025555276 0
0.33001007078523653 0.061818363075604656 0
0.33001221522690116 0.066293025089343982 0
0.33001270400509197 0.071772187342640056 0
0.33001067866337641 0.079321668376183457 0
0.33000706949376302 0.091668644509011216 0
0.33000313677138732 0.1095153340992161 0
0.33000076897712283 0.12929117691728556 0
0.33000010011195913 0.14942901955005897 0
0.33000001179264021 0.16977391954710278 0
0.33000000133880081 0.19043737125635171 0
0.330000000140727 0.21163906032899213 0
0.33000000001315033 0.23372822974627203 0
0.33000000000100327 0.25728363749829108 0
0.33000000000005181 0.28354058028495549 0
0.33000000000000002 0.33073313343326616 0
0 0 0
0 0.020000000000000004 0
0 0.040000000000000001 0
0 0.54999999999999993 0
0 0.56000000000000005 0
0 0.58000000000000007 0
0.02 0 0
0.02 0.020000000000000004 0
0.02 0.040000000000000001 0
0.02 0.54999999999999993 0
0.02 0.56000000000000005 0
0.02 0.58000000000000007 0
0.040000000000000001 0 0
0.040000000000000001 0.020000000000000004 0
0.040000000000000001 0.040000000000000001 0
0.040000000000000001 0.54999999999999993 0
0.040000000000000001 0.56000000000000005 0
0.040000000000000001 0.58000000000000007 0
0.059999999999999998 0 0
0.059999999999999998 0.020000000000000004 0
0.059999999999999998 0.040000000000000001 0
0.059999999999999998 0.54999999999999993 0
0.059999999999999998 0.56000000000000005 0
0.059999999999999998 0.58000000000000007 0
0.080000000000000002 0 0
0.080000000000000002 0.020000000000000004 0
0.080000000000000002 0.040000000000000001 0
0.080000000000000002 0.54999999999999993 0
0.080000000000000002 0.56000000000000005 0
0.080000000000000002 0.58000000000000007 0
0.10000000000000001 0 0
0.10000000000000001 0.020000000000000004 0
0.10000000000000001 0.040000000000000001 0
0.10000000000000001 0.54999999999999993 0
0.10000000000000001 0.56000000000000005 0
0.10000000000000001 0.58000000000000007 0
0.12 0 0
0.12 0.020000000000000004 0
0.12 0.040000000000000001 0
0.12 0.54999999999999993 0
0.12 0.56000000000000005 0
0.12 0.58000000000000007 0
0.14000000000000001 0 0
0.14000000000000001 0.020000000000000004 0
0.14000000000000001 0.040000000000000001 0
0.14000000000000001 0.54999999999999993 0
0.14000000000000001 0.56000000000000005 0
0.14000000000000001 0.58000000000000007 0
0.16 0 0
0.16 0.020000000000000004 0
0.16 0.040000000000000001 0
0.16 0.54999999999999993 0
0.16 0.56000000000000005 0
0.16 0.58000000000000007 0
0.17999999999999999 0 0
0.17999999999999999 0.020000000000000004 0
0.17999999999999999 0.040000000000000001 0
0.17999999999999999 0.54999999999999993 0
0.17999999999999999 0.56000000000000005 0
0.17999999999999999 0.58000000000000007 0
0.20000000000000001 0 0
0.20000000000000001 0.020000000000000004 0
0.20000000000000001 0.040000000000000001 0
0.20000000000000001 0.54999999999999993 0
0.20000000000000001 0.56000000000000005 0
0.20000000000000001 0.58000000000000007 0
0.22 0 0
0.22 0.020000000000000004 0
0.22 0.040000000000000001 0
0.22 0.54999999999999993 0
0.22 0.56000000000000005 0
0.22 0.58000000000000007 0
0.23999999999999999 0 0
0.23999999999999999 0.020000000000000004 0
0.23999999999999999 0.040000000000000001 0
0.23999999999999999 0.54999999999999993 0
0.23999999999999999 0.56000000000000005 0
0.23999999999999999 0.58000000000000007 0
0.26000000000000001 0 0
0.26000000000000001 0.020000000000000004 0
0.26000000000000001 0.040000000000000001 0
0.26000000000000001 0.54999999999999993 0
0.26000000000000001 0.56000000000000005 0
0.26000000000000001 0.58000000000000007 0
0.28000000000000003 0 0
0.28000000000000003 0.020000000000000004 0
0.28000000000000003 0.040000000000000001 0
0.28000000000000003 0.54999999999999993 0
0.28000000000000003 0.56000000000000005 0
0.28000000000000003 0.58000000000000007 0
0.29999999999999999 0 0
0.29999999999999999 0.020000000000000004 0
0.29999999999999999 0.040000000000000001 0
0.29999999999999999 0.54999999999999993 0
0.29999999999999999 0.56000000000000005 0
0.29999999999999999 0.58000000000000007 0
0.32000000000000001 0 0
0.32000000000000001 0.020000000000000004 0
0.32000000000000001 0.040000000000000001 0
0.32000000000000001 0.54999999999999993 0
0.32000000000000001 0.56000000000000005 0
0.32000000000000001 0.58000000000000007 0
0.34000000000000002 0 0
0.34000000000000002 0.020000000000000004 0
0.34000000000000002 0.040000000000000001 0
0.34000000000000002 0.54999999999999993 0
0.34000000000000002 0.56000000000000005 0
0.34000000000000002 0.58000000000000007 0
0.35999999999999999 0 0
0.35999999999999999 0.020000000000000004 0
0.35999999999999999 0.040000000000000001 0
0.35999999999999999 0.54999999999999993 0
0.35999999999999999 0.56000000000000005 0
0.35999999999999999 0.58000000000000007 0
0.38 0 0
0.38 0.020000000000000004 0
0.38 0.040000000000000001 0
0.38 0.54999999999999993 0
0.38 0.56000000000000005 0
0.38 0.58000000000000007 0
0.40000000000000002 0 0
0.40000000000000002 0.020000000000000004 0
0.40000000000000002 0.040000000000000001 0
0.40000000000000002 0.54999999999999993 0
0.40000000000000002 0.56000000000000005 0
0.40000000000000002 0.58000000000000007 0
0.41999999999999998 0 0
0.41999999999999998 0.020000000000000004 0
0.41999999999999998 0.040000000000000001 0
0.41999999999999998 0.54999999999999993 0
0.41999999999999998 0.56000000000000005 0
0.41999999999999998 0.58000000000000007 0
0.44 0 0
0.44 0.020000000000000004 0
0.44 0.040000000000000001 0
0.44 0.54999999999999993 0
0.44 0.56000000000000005 0
0.44 0.58000000000000007 0
0.46000000000000002 0 0
0.46000000000000002 0.020000000000000004 0
0.46000000000000002 0.040000000000000001 0
0.46000000000000002 0.54999999999999993 0
0.46000000000000002 0.56000000000000005 0
0.46000000000000002 0.58000000000000007 0
0.47999999999999998 0 0
0.47999999999999998 0.020000000000000004 0
0.47999999999999998 0.040000000000000001 0
0.47999999999999998 0.54999999999999993 0
0.47999999999999998 0.56000000000000005 0
0.47999999999999998 0.58000000000000007 0
0.5 0 0
0.5 0.020000000000000004 0
0.5 0.040000000000000001 0
0.5 0.54999999999999993 0
0.5 0.56000000000000005 0
0.5 0.58000000000000007 0
0.52000000000000002 0 0
0.52000000000000002 0.020000000000000004 0
0.52000000000000002 0.040000000000000001 0
0.52000000000000002 0.54999999999999993 0
0.52000000000000002 0.56000000000000005 0
0.52000000000000002 0.58000000000000007 0
0.54000000000000004 0 0
0.54000000000000004 0.020000000000000004 0
0.54000000000000004 0.040000000000000001 0
0.54000000000000004 0.54999999999999993 0
0.54000000000000004 0.56000000000000005 0
0.54000000000000004 0.58000000000000007 0
0.56000000000000005 0 0
0.56000000000000005 0.020000000000000004 0
0.56000000000000005 0.040000000000000001 0
0.56000000000000005 0.54999999999999993 0
0.56000000000000005 0.56000000000000005 0
0.56000000000000005 0.58000000000000007 0
0.57999999999999996 0 0
0.57999999999999996 0.020000000000000004 0
0.57999999999999996 0.040000000000000001 0
0.57999999999999996 0.54999999999999993 0
0.57999999999999996 0.56000000000000005 0
0.57999999999999996 0.58000000000000007 0
0.59999999999999998 0 0
0.59999999999999998 0.020000000000000004 0
0.59999999999999998 0.040000000000000001 0
0.59999999999999998 0.54999999999999993 0
0.59999999999999998 0.56000000000000005 0
0.59999999999999998 0.58000000000000007 0
0.62 0 0
0.62 0.020000000000000004 0
0.62 0.040000000000000001 0
0.62 0.54999999999999993 0
0.62 0.56000000000000005 0
0.62 0.58000000000000007 0
0.64000000000000001 0 0
0.64000000000000001 0.020000000000000004 0
0.64000000000000001 0.040000000000000001 0
0.64000000000000001 0.54999999999999993 0
0.64000000000000001 0.56000000000000005 0
0.64000000000000001 0.58000000000000007 0
0.66000000000000003 0 0
0.66000000000000003 0.020000000000000004 0
0.66000000000000003 0.040000000000000001 0
0.66000000000000003 0.54999999999999993 0
0.66000000000000003 0.56000000000000005 0
0.66000000000000003 0.58000000000000007 0
0.68000000000000005 0 0
0.68000000000000005 0.020000000000000004 0
0.68000000000000005 0.040000000000000001 0
0.68000000000000005 0.54999999999999993 0
0.68000000000000005 0.56000000000000005 0
0.68000000000000005 0.58000000000000007 0
0.70000000000000007 0 0
0.70000000000000007 0.020000000000000004 0
0.70000000000000007 0.040000000000000001 0
0.70000000000000007 0.54999999999999993 0
0.70000000000000007 0.56000000000000005 0
0.70000000000000007 0.58000000000000007 0
0.71999999999999997 0 0
0.71999999999999997 0.020000000000000004 0
0.71999999999999997 0.040000000000000001 0
0.71999999999999997 0.54999999999999993 0
0.71999999999999997 0.56000000000000005 0
0.71999999999999997 0.58000000000000007 0
0.73999999999999999 0 0
0.73999999999999999 0.020000000000000004 0
0.73999999999999999 0.040000000000000001 0
0.73999999999999999 0.54999999999999993 0
0.73999999999999999 0.56000000000000005 0
0.73999999999999999 0.58000000000000007 0
0.76000000000000001 0 0
0.76000000000000001 0.020000000000000004 0
0.76000000000000001 0.040000000000000001 0
0.76000000000000001 0.54999999999999993 0
0.76000000000000001 0.56000000000000005 0
0.76000000000000001 0.58000000000000007 0
0.78000000000000003 0 0
0.78000000000000003 0.020000000000000004 0
0.78000000000000003 0.040000000000000001 0
0.78000000000000003 0.54999999999999993 0
0.78000000000000003 0.56000000000000005 0
0.78000000000000003 0.58000000000000007 0
0.80000000000000004 0 0
0.80000000000000004 0.020000000000000004 0
0.80000000000000004 0.040000000000000001 0
0.80000000000000004 0.54999999999999993 0
0.80000000000000004 0.56000000000000005 0
0.80000000000000004 0.58000000000000007 0
0.82000000000000006 0 0
0.82000000000000006 0.020000000000000004 0
0.82000000000000006 0.040000000000000001 0
0.82000000000000006 0.54999999999999993 0
0.82000000000000006 0.56000000000000005 0
0.82000000000000006 0.58000000000000007 0
0.83999999999999997 0 0
0.83999999999999997 0.020000000000000004 0
0.83999999999999997 0.040000000000000001 0
0.83999999999999997 0.54999999999999993 0
0.83999999999999997 0.56000000000000005 0
0.83999999999999997 0.58000000000000007 0
0.85999999999999999 0 0
0.85999999999999999 0.020000000000000004 0
0.85999999999999999 0.040000000000000001 0
0.85999999999999999 0.54999999999999993 0
0.85999999999999999 0.56000000000000005 0
0.85999999999999999 0.58000000000000007 0
0.88 0 0
0.88 0.020000000000000004 0
0.88 0.040000000000000001 0
0.88 0.54999999999999993 0
0.88 0.56000000000000005 0
0.88 0.58000000000000007 0
0.90000000000000002 0 0
0.90000000000000002 0.020000000000000004 0
0.90000000000000002 0.040000000000000001 0
0.90000000000000002 0.54999999999999993 0
0.90000000000000002 0.56000000000000005 0
0.90000000000000002 0.58000000000000007 0
0.92000000000000004 0 0
0.92000000000000004 0.020000000000000004 0
0.92000000000000004 0.040000000000000001 0
0.92000000000000004 0.54999999999999993 0
0.92000000000000004 0.56000000000000005 0
0.92000000000000004 0.58000000000000007 0
0.94000000000000006 0 0
0.94000000000000006 0.020000000000000004 0
0.94000000000000006 0.040000000000000001 0
0.94000000000000006 0.54999999999999993 0
0.94000000000000006 0.56000000000000005 0
0.94000000000000006 0.58000000000000007 0
0.95999999999999996 0 0
0.95999999999999996 0.020000000000000004 0
0.95999999999999996 0.040000000000000001 0
0.95999999999999996 0.54999999999999993 0
0.95999999999999996 0.56000000000000005 0
0.95999999999999996 0.58000000000000007 0
0.97999999999999998 0 0
0.97999999999999998 0.020000000000000004 0
0.97999999999999998 0.040000000000000001 0
0.97999999999999998 0.54999999999999993 0
0.97999999999999998 0.56000000000000005 0
0.97999999999999998 0.58000000000000007 0
1 0 0
1 0.020000000000000004 0
1 0.040000000000000001 0
1 0.54999999999999993 0
1 0.56000000000000005 0
1 0.58000000000000007 0
VERTICES 681 1362
1 0
1 1
1 2
1 3
1 4
1 5
1 6
1 7
1 8
1 9
1 10
1 11
1 12
1 13
1 14
1 15
1 16
1 17
1 18
1 19
1 20
1 21
1 22
1 23
1 24
1 25
1 26
1 27
1 28
1 29
1 30
1 31
1 32
1 33
1 34
1 35
1 36
1 37
1 38
1 39
1 40
1 41
1 42
1 43
1 44
1 45
1 46
1 47
1 48
1 49
1 50
1 51
1 52
1 53
1 54
1 55
1 56
1 57
1 58
1 59
1 60
1 61
1 62
1 63
1 64
1 65
1 66
1 67
1 68
1 69
1 70
1 71
1 72
1 73
1 74
1 75
1 76
1 77
1 78
1 79
1 80
1 81
1 82
1 83
1 84
1 85
1 86
1 87
1 88
1 89
1 90
1 91
1 92
1 93
1 94
1 95
1 96
1 97
1 98
1 99
1 100
1 101
1 102
1 103
1 104
1 105
1 106
1 107
1 108
1 109
1 110
1 111
1 112
1 113
1 114
1 115
1 116
1 117
1 118
1 119
1 120
1 121
1 122
1 123
1 124
1 125
1 126
1 127
1 128
1 129
1 130
1 131
1 132
1 133
1 134
1 135
1 136
1 137
1 138
1 139
1 140
1 141
1 142
1 143
1 144
1 145
1 146
1 147
1 148
1 149
1 150
1 151
1 152
1 153
1 154
1 155
1 156
1 157
1 158
1 159
1 160
1 161
1 162
1 163
1 164
1 165
1 166
1 167
1 168
1 169
1 170
1 171
1 172
1 173
1 174
1 175
1 176
1 177
1 178
1 179
1 180
1 181
1 182
1 183
1 184
1 185
1 186
1 187
1 188
1 189
1 190
1 191
1 192
1 193
1 194
1 195
1 196
1 197
1 198
1 199
1 200
1 201
1 202
1 203
1 204
1 205
1 206
1 207
1 208
1 209
1 210
1 211
1 212
1 213
1 214
1 215
1 216
1 217
1 218
1 219
1 220
1 221
1 222
1 223
1 224
1 225
1 226
1 227
1 228
1 229
1 230
1 231
1 232
1 233
1 234
1 235
1 236
1 237
1 238
1 239
1 240
1 241
1 242
1 243
1 244
1 245
1 246
1 247
1 248
1 249
1 250
1 251
1 252
1 253
1 254
1 255
1 256
1 257
1 258
1 259
1 260
1 261
1 262
1 263
1 264
1 265
1 266
1 267
1 268
1 269
1 270
1 271
1 272
1 273
1 274
1 275
1 276
1 277
1 278
1 279
1 280
1 281
1 282
1 283
1 284
1 285
1 286
1 287
1 288
1 289
1 290
1 291
1 292
1 293
1 294
1 295
1 296
1 297
1 298
1 299
1 300
1 301
1 302
1 303
1 304
1 305
1 306
1 307
1 308
1 309
1 310
1 311
1 312
1 313
1 314
1 315
1 316
1 317
1 318
1 319
1 320
1 321
1 322
1 323
1 324
1 325
1 326
1 327
1 328
1 329
1 330
1 331
1 332
1 333
1 334
1 335
1 336
1 337
1 338
1 339
1 340
1 341
1 342
1 343
1 344
1 345
1 346
1 347
1 348
1 349
1 350
1 351
1 352
1 353
1 354
1 355
1 356
1 357
1 358
1 359
1 360
1 361
1 362
1 363
1 364
1 365
1 366
1 367
1 368
1 369
1 370
1 371
1 372
1 373
1 374
1 375
1 376
1 377
1 378
1 379
1 380
1 381
1 382
1 383
1 384
1 385
1 386
1 387
1 388
1 389
1 390
1 391
1 392
1 393
1 394
1 395
1 396
1 397
1 398
1 399
1 400
1 401
1 402
1 403
1 404
1 405
1 406
1 407
1 408
1 409
1 410
1 411
1 412
1 413
1 414
1 415
1 416
1 417
1 418
1 419
1 420
1 421
1 422
1 423
1 424
1 425
1 426
1 427
1 428
1 429
1 430
1 431
1 432
1 433
1 434
1 435
1 436
1 437
1 438
1 439
1 440
1 441
1 442
1 443
1 444
1 445
1 446
1 447
1 448
1 449
1 450
1 451
1 452
1 453
1 454
1 455
1 456
1 457
1 458
1 459
1 460
1 461
1 462
1 463
1 464
1 465
1 466
1 467
1 468
1 469
1 470
1 471
1 472
1 473
1 474
1 475
1 476
1 477
1 478
1 479
1 480
1 481
1 482
1 483
1 484
1 485
1 486
1 487
1 488
1 489
1 490
1 491
1 492
1 493
1 494
1 495
1 496
1 497
1 498
1 499
1 500
1 501
1 502
1 503
1 504
1 505
1 506
1 507
1 508
1 509
1 510
1 511
1 512
1 513
1 514
1 515
1 516
1 517
1 518
1 519
1 520
1 521
1 522
1 523
1 524
1 525
1 526
1 527
1 528
1 529
1 530
1 531
1 532
1 533
1 534
1 535
1 536
1 537
1 538
1 539
1 540
1 541
1 542
1 543
1 544
1 545
1 546
1 547
1 548
1 549
1 550
1 551
1 552
1 553
1 554
1 555
1 556
1 557
1 558
1 559
1 560
1 561
1 562
1 563
1 564
1 565
1 566
1 567
1 568
1 569
1 570
1 571
1 572
1 573
1 574
1 575
1 576
1 577
1 578
1 579
1 580
1 581
1 582
1 583
1 584
1 585
1 586
1 587
1 588
1 589
1 590
1 591
1 592
1 593
1 594
1 595
1 596
1 597
1 598
1 599
1 600
1 601
1 602
1 603
1 604
1 605
1 606
1 607
1 608
1 609
1 610
1 611
1 612
1 613
1 614
1 615
1 616
1 617
1 618
1 619
1 620
1 621
1 622
1 623
1 624
1 625
1 626
1 627
1 628
1 629
1 630
1 631
1 632
1 633
1 634
1 635
1 636
1 637
1 638
1 639
1 640
1 641
1 642
1 643
1 644
1 645
1 646
1 647
1 648
1 649
1 650
1 651
1 652
1 653
1 654
1 655
1 656
1 657
1 658
1 659
1 660
1 661
1 662
1 663
1 664
1 665
1 666
1 667
1 668
1 669
1 670
1 671
1 672
1 673
1 674
1 675
1 676
1 677
1 678
1 679
1 680
POINT_DATA 681
SCALARS is_boundary int 1
LOOKUP_TABLE default
0
0
0
0
0
0
0
0
0
0
0
0
0
0
0
0
0
0
0
0
0
0
0
0
0
0
0
0
0
0
0
0
0
0
0
0
0
0
0
0
0
0
0
0
0
0
0
0
0
0
0
0
0
0
0
0
0
0
0
0
0
0
0
0
0
0
0
0
0
0
0
0
0
0
0
0
0
0
0
0
0
0
0
0
0
0
0
0
0
0
0
0
0
0
0
0
0
0
0
0
0
0
0
0
0
0
0
0
0
0
0
0
0
0
0
0
0
0
0
0
0
0
0
0
0
0
0
0
0
0
0
0
0
0
0
0
0
0
0
0
0
0
0
0
0
0
0
0
0
0
0
0
0
0
0
0
0
0
0
0
0
0
0
0
0
0
0
0
0
0
0
0
0
0
0
0
0
0
0
0
0
0
0
0
0
0
0
0
0
0
0
0
0
0
0
0
0
0
0
0
0
0
0
0
0
0
0
0
0
0
0
0
0
0
0
0
0
0
0
0
0
0
0
0
0
0
0
0
0
0
0
0
0
0
0
0
0
0
0
0
0
0
0
0
0
0
0
0
0
0
0
0
0
0
0
0
0
0
0
0
0
0
0
0
0
0
0
0
0
0
0
0
0
0
0
0
0
0
0
0
0
0
0
0
0
0
0
0
0
0
0
0
0
0
0
0
0
0
0
0
0
0
0
0
0
0
0
0
0
0
0
0
0
0
0
0
0
0
0
0
0
0
0
0
0
0
0
0
0
0
0
0
0
0
0
0
0
0
0
0
0
0
0
0
0
0
0
0
0
0
0
0
0
0
0
0
0
0
0
0
0
0
0
0
0
0
0
0
0
0
0
0
0
0
0
1
1
1
1
1
1
1
1
1
1
1
1
1
1
1
1
1
1
1
1
1
1
1
1
1
1
1
1
1
1
1
1
1
1
1
1
1
1
1
1
1
1
1
1
1
1
1
1
1
1
1
1
1
1
1
1
1
1
1
1
1
1
1
1
1
1
1
1
1
1
1
1
1
1
1
1
1
1
1
1
1
1
1
1
1
1
1
1
1
1
1
1
1
1
1
1
1
1
1
1
1
1
1
1
1
1
1
1
1
1
1
1
1
1
1
1
1
1
1
1
1
1
1
1
1
1
1
1
1
1
1
1
1
1
1
1
1
1
1
1
1
1
1
1
1
1
1
1
1
1
1
1
1
1
1
1
1
1
1
1
1
1
1
1
1
1
1
1
1
1
1
1
1
1
1
1
1
1
1
1
1
1
1
1
1
1
1
1
1
1
1
1
1
1
1
1
1
1
1
1
1
1
1
1
1
1
1
1
1
1
1
1
1
1
1
1
1
1
1
1
1
1
1
1
1
1
1
1
1
1
1
1
1
1
1
1
1
1
1
1
1
1
1
1
1
1
1
1
1
1
1
1
1
1
1
1
1
1
1
1
1
1
1
1
1
1
1
1
1
1
1
1
1
1
1
1
1
1
1
1
1
1
1
1
1
1
1
1
1
1
1
1
1
1
1
1
1
1
1
1
1
1
1
1
1
1
SCALARS rho float 1
LOOKUP_TABLE default
1020
1020
1020
1020
1020
1020
1020
1020
1020
1020
1020
1020
1020
1020
1020
880
862
862
862
862
850
850
850
850
850
1020
1020
1020
1020
1020
1020
1020
1020
1020
1020
1020
1020
1020
1020
1020
1020
1006.201044168062
987.05819031336
880
880
880
876.13869325312112
862
850
850
1020
1020
1020
1020
1020
1020
1020
1020
1020
1020
1020
1020
1020
1020
1020
1020
1008.8036358913835
987.7765003419936
973.79005665848376
880
880
875.44351468093919
862
850
850
1020
1020
1020
1020
1020
1020
1020
1020
1020
1020
1020
1020
1020
1020
1020
1020
1009.4420869737119
987.54906528447214
880
880
880
874.75785866418346
862
862
850
1020
1020
1020
1020
1020
1020
1020
1020
1020
1020
1020
1020
1020
1020
1020
1020
1009.6403011598234
987.38357918526162
880
880
880
874.42148411721223
862
862
850
1020
1020
1020
1020
1020
1020
1020
1020
1020
1020
1020
1020
1020
1020
1020
1020
1009.6874634521246
987.28252499769292
880
880
880
874.26515327471668
862
862
850
1020
1020
1020
1020
1020
1020
1020
1020
1020
1020
1020
1020
1020
1020
1020
1020
1009.6942687108788
987.23147077007729
880
880
880
874.1999947783986
862
862
850
1020
1020
1020
1020
1020
1020
1020
1020
1020
1020
1020
1020
1020
1020
1020
1020
1009.6946080635057
987.21593858116603
880
880
880
874.1825462068939
862
862
850
1020
1020
1020
1020
1020
1020
1020
1020
1020
1020
1020
1020
1020
1020
1020
1020
1009.6944675011443
987.23109247213756
880
880
880
874.19999474354609
862
862
850
1020
1020
1020
1020
1020
1020
1020
1020
1020
1020
1020
1020
1020
1020
1020
1020
1009.6864296841527
987.28204095054116
880
880
880
874.26515318941972
862
862
850
1020
1020
1020
1020
1020
1020
1020
1020
1020
1020
1020
1020
1020
1020
1020
1020
1009.6379374617798
987.38295815521997
880
880
880
874.42148397527797
862
862
850
1020
1020
1020
1020
1020
1020
1020
1020
1020
1020
1020
1020
1020
1020
1020
1020
1009.4401059030899
987.54845162651077
880
880
880
874.75785848476653
862
862
850
1020
1020
1020
1020
1020
1020
1020
1020
1020
1020
1020
1020
1020
1020
1020
1020
1008.8021887460629
987.77592956200078
973.7899258097666
880
880
875.44351449601663
862
850
850
1020
1020
1020
1020
1020
1020
1020
1020
1020
1020
1020
1020
1020
1020
1020
1020
1006.1991115795456
987.05759658224338
880
880
880
876.13869308817311
862
850
850
1020
1020
1020
1020
1020
1020
1020
1020
1020
1020
1020
1020
1020
1020
1020
880
862
862
862
862
850
850
850
850
850
1000
1000
1000
1000
1000
1000
1000
1000
1000
1000
1000
1000
1000
1000
1000
1000
1000
1000
1000
1000
1000
1000
1000
1000
1000
1000
1000
1000
1000
1000
1000
1000
1000
1000
1000
1000
1000
1000
1000
1000
1000
1000
1000
1000
1000
1000
1000
1000
1000
1000
1000
1000
1000
1000
1000
1000
1000
1000
1000
1000
1000
1000
1000
1000
1000
1000
1000
1000
1000
1000
1000
1000
1000
1000
1000
1000
1000
1000
1000
1000
1000
1000
1000
1000
1000
1000
1000
1000
1000
1000
1000
1000
1000
1000
1000
1000
1000
1000
1000
1000
1000
1000
1000
1000
1000
1000
1000
1000
1000
1000
1000
1000
1000
1000
1000
1000
1000
1000
1000
1000
1000
1000
1000
1000
1000
1000
1000
1000
1000
1000
1000
1000
1000
1000
1000
1000
1000
1000
1000
1000
1000
1000
1000
1000
1000
1000
1000
1000
1000
1000
1000
1000
1000
1000
1000
1000
1000
1000
1000
1000
1000
1000
1000
1000
1000
1000
1000
1000
1000
1000
1000
1000
1000
1000
1000
1000
1000
1000
1000
1000
1000
1000
1000
1000
1000
1000
1000
1000
1000
1000
1000
1000
1000
1000
1000
1000
1000
1000
1000
1000
1000
1000
1000
1000
1000
1000
1000
1000
1000
1000
1000
1000
1000
1000
1000
1000
1000
1000
1000
1000
1000
1000
1000
1000
1000
1000
1000
1000
1000
1000
1000
1000
1000
1000
1000
1000
1000
1000
1000
1000
1000
1000
1000
1000
1000
1000
1000
1000
1000
1000
1000
1000
1000
1000
1000
1000
1000
1000
1000
1000
1000
1000
1000
1000
1000
1000
1000
1000
1000
1000
1000
1000
1000
1000
1000
1000
1000
1000
1000
1000
1000
1000
1000
1000
1000
1000
1000
1000
1000
1000
1000
1000
1000
1000
1000
1000
1000
1000
1000
1000
1000
1000
1000
1000
1000
1000
SCALARS p float 1
LOOKUP_TABLE default
25004.681136676067
25004.681136676067
25004.681136676067
25004.681136676067
25004.681136676067
25004.681136676067
25004.681136676067
25004.681136676067
25004.681136676067
25004.681136676067
25004.681136676067
25004.681136676067
25004.681136676067
25004.681136676067
25004.681136676067
0
0
0
0
0
0
0
0
0
0
25004.681136676067
25004.681136676067
25004.681136676067
25004.681136676067
25004.681136676067
25004.681136676067
25004.681136676067
25004.681136676067
25004.681136676067
25004.681136676067
25004.681136676067
25004.681136676067
25004.681136676067
25004.681136676067
25004.681136676067
25004.681136676067
7437.0818716750318
0
0
0
0
0
0
0
0
25004.681136676067
25004.681136676067
25004.681136676067
25004.681136676067
25004.681136676067
25004.681136676067
25004.681136676067
25004.681136676067
25004.681136676067
25004.681136676067
25004.681136676067
25004.681136676067
25004.681136676067
25004.681136676067
25004.681136676067
25004.681136676067
10641.404976912683
0
0
0
0
0
0
0
0
25004.681136676067
25004.681136676067
25004.681136676067
25004.681136676067
25004.681136676067
25004.681136676067
25004.681136676067
25004.681136676067
25004.681136676067
25004.681136676067
25004.681136676067
25004.681136676067
25004.681136676067
25004.681136676067
25004.681136676067
25004.681136676067
11435.079370782007
0
0
0
0
0
0
0
0
25004.681136676067
25004.681136676067
25004.681136676067
25004.681136676067
25004.681136676067
25004.681136676067
25004.681136676067
25004.681136676067
25004.681136676067
25004.681136676067
25004.681136676067
25004.681136676067
25004.681136676067
25004.681136676067
25004.681136676067
25004.681136676067
11682.097755445286
0
0
0
0
0
0
0
0
25004.681136676067
25004.681136676067
25004.681136676067
25004.681136676067
25004.681136676067
25004.681136676067
25004.681136676067
25004.681136676067
25004.681136676067
25004.681136676067
25004.681136676067
25004.681136676067
25004.681136676067
25004.681136676067
25004.681136676067
25004.681136676067
11740.9151910895
0
0
0
0
0
0
0
0
25004.681136676067
25004.681136676067
25004.681136676067
25004.681136676067
25004.681136676067
25004.681136676067
25004.681136676067
25004.681136676067
25004.681136676067
25004.681136676067
25004.681136676067
25004.681136676067
25004.681136676067
25004.681136676067
25004.681136676067
25004.681136676067
11749.403583757818
0
0
0
0
0
0
0
0
25004.681136676067
25004.681136676067
25004.681136676067
25004.681136676067
25004.681136676067
25004.681136676067
25004.681136676067
25004.681136676067
25004.681136676067
25004.681136676067
25004.681136676067
25004.681136676067
25004.681136676067
25004.681136676067
25004.681136676067
25004.681136676067
11749.826876920268
0
0
0
0
0
0
0
0
25004.681136676067
25004.681136676067
25004.681136676067
25004.681136676067
25004.681136676067
25004.681136676067
25004.681136676067
25004.681136676067
25004.681136676067
25004.681136676067
25004.681136676067
25004.681136676067
25004.681136676067
25004.681136676067
25004.681136676067
25004.681136676067
11749.651545666407
0
0
0
0
0
0
0
0
25004.681136676067
25004.681136676067
25004.681136676067
25004.681136676067
25004.681136676067
25004.681136676067
25004.681136676067
25004.681136676067
25004.681136676067
25004.681136676067
25004.681136676067
25004.681136676067
25004.681136676067
25004.681136676067
25004.681136676067
25004.681136676067
11739.625772948404
0
0
0
0
0
0
0
0
25004.681136676067
25004.681136676067
25004.681136676067
25004.681136676067
25004.681136676067
25004.681136676067
25004.681136676067
25004.681136676067
25004.681136676067
25004.681136676067
25004.681136676067
25004.681136676067
25004.681136676067
25004.681136676067
25004.681136676067
25004.681136676067
11679.150354183099
0
0
0
0
0
0
0
0
25004.681136676067
25004.681136676067
25004.681136676067
25004.681136676067
25004.681136676067
25004.681136676067
25004.681136676067
25004.681136676067
25004.681136676067
25004.681136676067
25004.681136676067
25004.681136676067
25004.681136676067
25004.681136676067
25004.681136676067
25004.681136676067
11432.611990431242
0
0
0
0
0
0
0
0
25004.681136676067
25004.681136676067
25004.681136676067
25004.681136676067
25004.681136676067
25004.681136676067
25004.681136676067
25004.681136676067
25004.681136676067
25004.681136676067
25004.681136676067
25004.681136676067
25004.681136676067
25004.681136676067
25004.681136676067
25004.681136676067
10639.609415093324
0
0
0
0
0
0
0
0
25004.681136676067
25004.681136676067
25004.681136676067
25004.681136676067
25004.681136676067
25004.681136676067
25004.681136676067
25004.681136676067
25004.681136676067
25004.681136676067
25004.681136676067
25004.681136676067
25004.681136676067
25004.681136676067
25004.681136676067
25004.681136676067
7434.7208730855555
0
0
0
0
0
0
0
0
25004.681136676067
25004.681136676067
25004.681136676067
25004.681136676067
25004.681136676067
25004.681136676067
25004.681136676067
25004.681136676067
25004.681136676067
25004.681136676067
25004.681136676067
25004.681136676067
25004.681136676067
25004.681136676067
25004.681136676067
0
0
0
0
0
0
0
0
0
0
0
0
0
0
0
0
4707.734974254171
24949.570293754547
24992.132879529705
0
0
0
24879.441894377782
25001.227562617492
25003.657497122334
0
0
0
24950.47577756258
25002.932780957053
25004.141139648938
0
0
0
24957.174381357101
25003.019943885633
25004.155598547371
0
0
0
24957.140997907645
25003.019360302686
25004.153082509012
0
0
0
24956.897331112821
25003.015242442874
25004.152261830095
0
0
0
24956.783836298138
25003.01319511572
25004.151938041854
0
0
0
24956.739136269054
25003.01236859128
25004.15181129878
0
0
0
24956.723679688796
25003.012088901665
25004.151770542969
0
0
0
24956.723151515529
25003.012076874136
25004.151767148025
0
0
0
24956.738689680595
25003.012364166978
25004.151811224321
0
0
0
24956.783169402064
25003.013191807633
25004.151939753592
0
0
0
24956.89686521198
25003.015236799856
25004.152264504723
0
0
0
24957.139684116832
25003.01933757788
25004.1530817313
0
0
0
24957.172289562608
25003.019914835208
25004.155596895976
0
0
0
24950.47312441629
25002.932760063519
25004.141144308192
0
0
0
24879.430809055841
25001.227451558319
25003.657484684125
0
0
0
4705.5055953533065
24949.565771878868
24992.132126472803
0
0
0
0
0
0
0
0
0
0
0
0
0
0
0
0
0
0
0
0
0
0
0
0
0
0
0
0
0
0
0
0
0
0
0
0
0
0
0
0
0
0
0
0
0
0
0
0
0
0
0
0
0
0
0
0
0
0
0
0
0
0
0
0
0
0
0
0
0
0
0
0
0
0
0
0
0
0
0
0
0
0
0
0
0
0
0
0
0
0
0
0
0
0
0
0
0
0
0
0
0
0
0
0
0
0
0
0
0
0
0
0
0
0
0
0
0
0
0
0
0
0
0
0
0
0
0
0
0
0
0
0
0
0
0
0
0
0
0
0
0
0
0
0
0
0
0
0
0
0
0
0
0
0
0
0
0
0
0
0
0
0
0
0
0
0
0
0
0
0
0
0
0
0
0
0
0
0
0
0
0
0
0
0
0
0
0
0
0
0
0
0
0
0
0
SCALARS m float 1
LOOKUP_TABLE default
0.39942306611962441
0.39942306611962441
0.39942306611962441
0.39942306611962441
0.39942306611962441
0.39942306611962441
0.39942306611962441
0.39942306611962441
0.39942306611962441
0.39942306611962441
0.39942306611962441
0.39942306611962441
0.39942306611962441
0.39942306611962441
0.39942306611962441
0.39942306611962441
0.39942306611962441
0.39942306611962441
0.39942306611962441
0.39942306611962441
0.39942306611962441
0.39942306611962441
0.39942306611962441
0.39942306611962441
0.39942306611962441
0.39942306611962441
0.39942306611962441
0.39942306611962441
0.39942306611962441
0.39942306611962441
0.39942306611962441
0.39942306611962441
0.39942306611962441
0.39942306611962441
0.39942306611962441
0.39942306611962441
0.39942306611962441
0.39942306611962441
0.39942306611962441
0.39942306611962441
0.39942306611962441
0.39942306611962441
0.39942306611962441
0.39942306611962441
0.39942306611962441
0.39942306611962441
0.39942306611962441
0.39942306611962441
0.39942306611962441
0.39942306611962441
0.39942306611962441
0.39942306611962441
0.39942306611962441
0.39942306611962441
0.39942306611962441
0.39942306611962441
0.39942306611962441
0.39942306611962441
0.39942306611962441
0.39942306611962441
0.39942306611962441
0.39942306611962441
0.39942306611962441
0.39942306611962441
0.39942306611962441
0.39942306611962441
0.39942306611962441
0.39942306611962441
0.39942306611962441
0.39942306611962441
0.39942306611962441
0.39942306611962441
0.39942306611962441
0.39942306611962441
0.39942306611962441
0.39942306611962441
0.39942306611962441
0.39942306611962441
0.39942306611962441
0.39942306611962441
0.39942306611962441
0.39942306611962441
0.39942306611962441
0.39942306611962441
0.39942306611962441
0.39942306611962441
0.39942306611962441
0.39942306611962441
0.39942306611962441
0.39942306611962441
0.39942306611962441
0.39942306611962441
0.39942306611962441
0.39942306611962441
0.39942306611962441
0.39942306611962441
0.39942306611962441
0.39942306611962441
0.39942306611962441
0.39942306611962441
0.39942306611962441
0.39942306611962441
0.39942306611962441
0.39942306611962441
0.39942306611962441
0.39942306611962441
0.39942306611962441
0.39942306611962441
0.39942306611962441
0.39942306611962441
0.39942306611962441
0.39942306611962441
0.39942306611962441
0.39942306611962441
0.39942306611962441
0.39942306611962441
0.39942306611962441
0.39942306611962441
0.39942306611962441
0.39942306611962441
0.39942306611962441
0.39942306611962441
0.39942306611962441
0.39942306611962441
0.39942306611962441
0.39942306611962441
0.39942306611962441
0.39942306611962441
0.39942306611962441
0.39942306611962441
0.39942306611962441
0.39942306611962441
0.39942306611962441
0.39942306611962441
0.39942306611962441
0.39942306611962441
0.39942306611962441
0.39942306611962441
0.39942306611962441
0.39942306611962441
0.39942306611962441
0.39942306611962441
0.39942306611962441
0.39942306611962441
0.39942306611962441
0.39942306611962441
0.39942306611962441
0.39942306611962441
0.39942306611962441
0.39942306611962441
0.39942306611962441
0.39942306611962441
0.39942306611962441
0.39942306611962441
0.39942306611962441
0.39942306611962441
0.39942306611962441
0.39942306611962441
0.39942306611962441
0.39942306611962441
0.39942306611962441
0.39942306611962441
0.39942306611962441
0.39942306611962441
0.39942306611962441
0.39942306611962441
0.39942306611962441
0.39942306611962441
0.39942306611962441
0.39942306611962441
0.39942306611962441
0.39942306611962441
0.39942306611962441
0.39942306611962441
0.39942306611962441
0.39942306611962441
0.39942306611962441
0.39942306611962441
0.39942306611962441
0.39942306611962441
0.39942306611962441
0.39942306611962441
0.39942306611962441
0.39942306611962441
0.39942306611962441
0.39942306611962441
0.39942306611962441
0.39942306611962441
0.39942306611962441
0.39942306611962441
0.39942306611962441
0.39942306611962441
0.39942306611962441
0.39942306611962441
0.39942306611962441
0.39942306611962441
0.39942306611962441
0.39942306611962441
0.39942306611962441
0.39942306611962441
0.39942306611962441
0.39942306611962441
0.39942306611962441
0.39942306611962441
0.39942306611962441
0.39942306611962441
0.39942306611962441
0.39942306611962441
0.39942306611962441
0.39942306611962441
0.39942306611962441
0.39942306611962441
0.39942306611962441
0.39942306611962441
0.39942306611962441
0.39942306611962441
0.39942306611962441
0.39942306611962441
0.39942306611962441
0.39942306611962441
0.39942306611962441
0.39942306611962441
0.39942306611962441
0.39942306611962441
0.39942306611962441
0.39942306611962441
0.39942306611962441
0.39942306611962441
0.39942306611962441
0.39942306611962441
0.39942306611962441
0.39942306611962441
0.39942306611962441
0.39942306611962441
0.39942306611962441
0.39942306611962441
0.39942306611962441
0.39942306611962441
0.39942306611962441
0.39942306611962441
0.39942306611962441
0.39942306611962441
0.39942306611962441
0.39942306611962441
0.39942306611962441
0.39942306611962441
0.39942306611962441
0.39942306611962441
0.39942306611962441
0.39942306611962441
0.39942306611962441
0.39942306611962441
0.39942306611962441
0.39942306611962441
0.39942306611962441
0.39942306611962441
0.39942306611962441
0.39942306611962441
0.39942306611962441
0.39942306611962441
0.39942306611962441
0.39942306611962441
0.39942306611962441
0.39942306611962441
0.39942306611962441
0.39942306611962441
0.39942306611962441
0.39942306611962441
0.39942306611962441
0.39942306611962441
0.39942306611962441
0.39942306611962441
0.39942306611962441
0.39942306611962441
0.39942306611962441
0.39942306611962441
0.39942306611962441
0.39942306611962441
0.39942306611962441
0.39942306611962441
0.39942306611962441
0.39942306611962441
0.39942306611962441
0.39942306611962441
0.39942306611962441
0.39942306611962441
0.39942306611962441
0.39942306611962441
0.39942306611962441
0.39942306611962441
0.39942306611962441
0.39942306611962441
0.39942306611962441
0.39942306611962441
0.39942306611962441
0.39942306611962441
0.39942306611962441
0.39942306611962441
0.39942306611962441
0.39942306611962441
0.39942306611962441
0.39942306611962441
0.39942306611962441
0.39942306611962441
0.39942306611962441
0.39942306611962441
0.39942306611962441
0.39942306611962441
0.39942306611962441
0.39942306611962441
0.39942306611962441
0.39942306611962441
0.39942306611962441
0.39942306611962441
0.39942306611962441
0.39942306611962441
0.39942306611962441
0.39942306611962441
0.39942306611962441
0.39942306611962441
0.39942306611962441
0.39942306611962441
0.39942306611962441
0.39942306611962441
0.39942306611962441
0.39942306611962441
0.39942306611962441
0.39942306611962441
0.39942306611962441
0.39942306611962441
0.39942306611962441
0.39942306611962441
0.39942306611962441
0.39942306611962441
0.39942306611962441
0.39942306611962441
0.39942306611962441
0.39942306611962441
0.39942306611962441
0.39942306611962441
0.39942306611962441
0.39942306611962441
0.39942306611962441
0.39942306611962441
0.39942306611962441
0.39942306611962441
0.39942306611962441
0.39942306611962441
0.39942306611962441
0.39942306611962441
0.39942306611962441
0.39942306611962441
0.39942306611962441
0.39942306611962441
0.39942306611962441
0.39942306611962441
0.39942306611962441
0.39942306611962441
0.39942306611962441
0.39942306611962441
0.39942306611962441
0.39942306611962441
0.39942306611962441
0.39942306611962441
0.39942306611962441
0.39942306611962441
0.39942306611962441
0.39942306611962441
0.39942306611962441
0.39942306611962441
0.39942306611962441
0.39942306611962441
0.39942306611962441
0.39942306611962441
0.39942306611962441
0.39942306611962441
0.39942306611962441
0.39942306611962441
0.39942306611962441
0.39942306611962441
0.39942306611962441
0.39942306611962441
0.39942306611962441
0.39942306611962441
0.39942306611962441
0.39942306611962441
0.39942306611962441
0.39942306611962441
0.39942306611962441
0.39942306611962441
0.39942306611962441
0.39942306611962441
0.39942306611962441
0.39942306611962441
0.39942306611962441
0.39942306611962441
0.39942306611962441
0.39942306611962441
0.39942306611962441
0.39942306611962441
0.39942306611962441
0.39942306611962441
0.39942306611962441
0.39942306611962441
0.39942306611962441
0.39942306611962441
0.39942306611962441
0.39942306611962441
0.39942306611962441
0.39942306611962441
0.39942306611962441
0.39942306611962441
0.39942306611962441
0.39942306611962441
0.39942306611962441
0.39942306611962441
0.39942306611962441
0.39942306611962441
0.39942306611962441
0.39942306611962441
0.39942306611962441
0.39942306611962441
0.39942306611962441
0.39942306611962441
0.39942306611962441
0.39942306611962441
0.39942306611962441
0.39942306611962441
0.39942306611962441
0.39942306611962441
0.39942306611962441
0.39942306611962441
0.39942306611962441
0.39942306611962441
0.39942306611962441
0.39942306611962441
0.39942306611962441
0.39942306611962441
0.39942306611962441
0.39942306611962441
0.39942306611962441
0.39942306611962441
0.39942306611962441
0.39942306611962441
0.39942306611962441
0.39942306611962441
0.39942306611962441
0.39942306611962441
0.39942306611962441
0.39942306611962441
0.39942306611962441
0.39942306611962441
0.39942306611962441
0.39942306611962441
0.39942306611962441
0.39942306611962441
0.39942306611962441
0.39942306611962441
0.39942306611962441
0.39942306611962441
0.39942306611962441
0.39942306611962441
0.39942306611962441
0.39942306611962441
0.39942306611962441
0.39942306611962441
0.39942306611962441
0.39942306611962441
0.39942306611962441
0.39942306611962441
0.39942306611962441
0.39942306611962441
0.39942306611962441
0.39942306611962441
0.39942306611962441
0.39942306611962441
0.39942306611962441
0.39942306611962441
0.39942306611962441
0.39942306611962441
0.39942306611962441
0.39942306611962441
0.39942306611962441
0.39942306611962441
0.39942306611962441
0.39942306611962441
0.39942306611962441
0.39942306611962441
0.39942306611962441
0.39942306611962441
0.39942306611962441
0.39942306611962441
0.39942306611962441
0.39942306611962441
0.39942306611962441
0.39942306611962441
0.39942306611962441
0.39942306611962441
0.39942306611962441
0.39942306611962441
0.39942306611962441
0.39942306611962441
0.39942306611962441
0.39942306611962441
0.39942306611962441
0.39942306611962441
0.39942306611962441
0.39942306611962441
0.39942306611962441
0.39942306611962441
0.39942306611962441
0.39942306611962441
0.39942306611962441
0.39942306611962441
0.39942306611962441
0.39942306611962441
0.39942306611962441
0.39942306611962441
0.39942306611962441
0.39942306611962441
0.39942306611962441
0.39942306611962441
0.39942306611962441
0.39942306611962441
0.39942306611962441
0.39942306611962441
0.39942306611962441
0.39942306611962441
0.39942306611962441
0.39942306611962441
0.39942306611962441
0.39942306611962441
0.39942306611962441
0.39942306611962441
0.39942306611962441
0.39942306611962441
0.39942306611962441
0.39942306611962441
0.39942306611962441
0.39942306611962441
0.39942306611962441
0.39942306611962441
0.39942306611962441
0.39942306611962441
0.39942306611962441
0.39942306611962441
0.39942306611962441
0.39942306611962441
0.39942306611962441
0.39942306611962441
0.39942306611962441
0.39942306611962441
0.39942306611962441
0.39942306611962441
0.39942306611962441
0.39942306611962441
0.39942306611962441
0.39942306611962441
0.39942306611962441
0.39942306611962441
0.39942306611962441
0.39942306611962441
0.39942306611962441
0.39942306611962441
0.39942306611962441
0.39942306611962441
0.39942306611962441
0.39942306611962441
0.39942306611962441
0.39942306611962441
0.39942306611962441
0.39942306611962441
0.39942306611962441
0.39942306611962441
0.39942306611962441
0.39942306611962441
0.39942306611962441
0.39942306611962441
0.39942306611962441
0.39942306611962441
0.39942306611962441
0.39942306611962441
0.39942306611962441
0.39942306611962441
0.39942306611962441
0.39942306611962441
0.39942306611962441
0.39942306611962441
0.39942306611962441
0.39942306611962441
0.39942306611962441
0.39942306611962441
0.39942306611962441
0.39942306611962441
0.39942306611962441
0.39942306611962441
0.39942306611962441
0.39942306611962441
0.39942306611962441
0.39942306611962441
0.39942306611962441
0.39942306611962441
0.39942306611962441
0.39942306611962441
0.39942306611962441
0.39942306611962441
0.39942306611962441
0.39942306611962441
0.39942306611962441
0.39942306611962441
0.39942306611962441
0.39942306611962441
0.39942306611962441
0.39942306611962441
0.39942306611962441
0.39942306611962441
0.39942306611962441
0.39942306611962441
0.39942306611962441
0.39942306611962441
0.39942306611962441
0.39942306611962441
0.39942306611962441
0.39942306611962441
0.39942306611962441
0.39942306611962441
0.39942306611962441
0.39942306611962441
0.39942306611962441
0.39942306611962441
0.39942306611962441
0.39942306611962441
0.39942306611962441
0.39942306611962441
0.39942306611962441
0.39942306611962441
0.39942306611962441
0.39942306611962441
0.39942306611962441
0.39942306611962441
0.39942306611962441
0.39942306611962441
0.39942306611962441
0.39942306611962441
0.39942306611962441
0.39942306611962441
0.39942306611962441
0.39942306611962441
0.39942306611962441
0.39942306611962441
0.39942306611962441
0.39942306611962441
0.39942306611962441
0.39942306611962441
0.39942306611962441
0.39942306611962441
0.39942306611962441
0.39942306611962441
0.39942306611962441
0.39942306611962441
0.39942306611962441
0.39942306611962441
0.39942306611962441
0.39942306611962441
0.39942306611962441
0.39942306611962441
0.39942306611962441
0.39942306611962441
0.39942306611962441
0.39942306611962441
0.39942306611962441
0.39942306611962441
0.39942306611962441
0.39942306611962441
0.39942306611962441
0.39942306611962441
0.39942306611962441
0.39942306611962441
0.39942306611962441
0.39942306611962441
0.39942306611962441
VECTORS v float
-7.5510067001592521e-05 -0.089560800131544951 0
-8.6955818384861787e-05 -0.10473800471756846 0
-9.6128083693478578e-05 -0.11780625485958759 0
-0.00010546749185567672 -0.13230740846018951 0
-0.00011452693208211807 -0.14863779530633781 0
-0.00012340342982537715 -0.16752980729478215 0
-0.00013211992232171774 -0.18998243245498378 0
-0.00014091651073691271 -0.21747757506684504 0
-0.00015159126126000735 -0.25235910616675888 0
-0.00016478210180431466 -0.29845521678027792 0
-0.00018196523932457114 -0.36217349640036972 0
-0.00020459266710830571 -0.45604335794502693 0
-0.00024023652639971731 -0.616197759297887 0
-0.00031097211062917809 -0.97783352326591655 0
-0.00040884984142042593 -1.6746407313424145 0
-0.00030617386354409314 -2.090353223547107 0
-0.0001113807770907982 -2.1605525530278893 0
-1.8830684523781717e-05 -2.1663711796558536 0
-2.283119656817449e-06 -2.1631408684783522 0
-2.6862954949403768e-07 -2.1570693790276749 0
-2.9367857193638253e-08 -2.1485948651760851 0
-2.8762968589273946e-09 -2.1378489049961376 0
-2.3167218124932671e-10 -2.1253069624205136 0
-1.2737629212689267e-11 -2.1123598881813921 0
-3.0908402173242775e-18 -1.9748348848496569 0
-4.1971652911518703e-05 -0.094153940410859296 0
-4.9113168592952332e-05 -0.11001564626338939 0
-5.6818521681482989e-05 -0.12389224156915553 0
-6.2431186430517778e-05 -0.13902932830774239 0
-6.8282788684067742e-05 -0.15593230286590604 0
-7.3793429202698735e-05 -0.17544984325314789 0
-8.0197942613971881e-05 -0.1987012084339915 0
-8.7794199125300687e-05 -0.22718730016274696 0
-9.6247160202104731e-05 -0.26325951705523648 0
-0.00010621480245426726 -0.3107681210240496 0
-0.00011732029263391193 -0.37611083914717647 0
-0.00013238727823374529 -0.47140271684860052 0
-0.00015343925002833767 -0.6269917947495125 0
-0.00019461929055413543 -0.94572980837679343 0
-0.0002747737735071789 -1.5918305243337758 0
-0.00026841059558246655 -2.0643311247838732 0
-0.00010693289569930897 -2.15759975285523 0
-1.9148744997190749e-05 -2.1658451201456397 0
-2.2287807439400739e-06 -2.1627247035484518 0
-2.7579957387409714e-07 -2.1566264124336421 0
-3.1670483161613989e-08 -2.1481574306695363 0
-3.1971706411780032e-09 -2.1374567683618406 0
-2.6394910152115664e-10 -2.1251111571451875 0
-1.5007160917818392e-11 -2.1125757826364451 0
-1.0046664798236706e-17 -1.976163878969865 0
-1.8966692050570734e-05 -0.094727736544376967 0
-2.3160152100122314e-05 -0.1106726926030546 0
-2.668147518354442e-05 -0.12464779051804087 0
-3.0582186569089672e-05 -0.13993260487627185 0
-3.4140225568581664e-05 -0.15703873617613015 0
-3.8813441057621519e-05 -0.17681246993143102 0
-4.5246109471234744e-05 -0.20041182591336959 0
-4.8844896212132042e-05 -0.22935436443574581 0
-5.2749084104176029e-05 -0.26601319725293865 0
-5.8134953155840431e-05 -0.31419890480700408 0
-6.4072425163711115e-05 -0.38019434206481223 0
-7.1022760266506487e-05 -0.47583519150558878 0
-8.1244325330653283e-05 -0.63028057187579734 0
-9.5685346122046812e-05 -0.93985984112463872 0
-0.00011073801478830362 -1.5658978509190804 0
-9.000096157026435e-05 -2.0526582045357533 0
-4.1561654420746567e-05 -2.1559845164207294 0
-1.0605351459287659e-05 -2.1655454634557811 0
-1.4397216452819322e-06 -2.1623968982516804 0
-1.9101998092738718e-07 -2.1561310206659274 0
-2.4027297564794134e-08 -2.1476489500061522 0
-2.5741924580319198e-09 -2.1369231137510867 0
-2.2189245310820583e-10 -2.1246232371002076 0
-1.3109700636090519e-11 -2.1121823064606753 0
-2.5084622137174466e-17 -1.9781159512567486 0
-5.9376929891963403e-06 -0.094724405962056418 0
-7.5808969598984514e-06 -0.11070366051322744 0
-8.560364850638648e-06 -0.1247133448637156 0
-1.0487218447591746e-05 -0.1400402747093506 0
-1.3056408492266282e-05 -0.15719748071817169 0
-1.1859669035410036e-05 -0.17703587827530567 0
-1.2881834881915986e-05 -0.20072308078623971 0
-1.4623733015992918e-05 -0.2297809293045221 0
-1.5472271401444931e-05 -0.26659045406970677 0
-1.8407641381785578e-05 -0.31495250903298072 0
-2.0761488143813016e-05 -0.38112377000357572 0
-2.4733907763924669e-05 -0.47686462693553355 0
-2.8810886577967308e-05 -0.63099185954417347 0
-3.3356510069947973e-05 -0.93798871084411906 0
-3.8347552733665414e-05 -1.5579033404639122 0
-2.839759300673883e-05 -2.0483674663829405 0
-1.3640148006204519e-05 -2.1551940796886266 0
-3.9274729275889867e-06 -2.1653233042023281 0
-6.8592405267248368e-07 -2.1621509054548116 0
-1.0528307058776175e-07 -2.1557987125425417 0
-1.442476797350284e-08 -2.1472351477620011 0
-1.6628470219461073e-09 -2.1364362049170897 0
-1.5191315833216784e-10 -2.1240967411098173 0
-9.3927129982059761e-12 -2.111607401354791 0
-3.6967120728778449e-17 -1.9799530465804553 0
-9.9065168467909634e-07 -0.094669834185529947 0
-1.5386561284975182e-06 -0.11066278570053209 0
-1.8443586572195047e-06 -0.12468463768775141 0
-1.605084476793396e-06 -0.14002238559107205 0
-3.0122611198228849e-06 -0.15719595701705458 0
-3.5165680076653796e-06 -0.17705517910993862 0
-3.4218400267772194e-06 -0.20076545817391175 0
-3.2200439606678312e-06 -0.22985480370879433 0
-3.4769354743385034e-06 -0.26670727980714809 0
-3.3680958178624032e-06 -0.31511367516009842 0
-3.1368245070293483e-06 -0.38132289554750587 0
-3.0754901604568044e-06 -0.47706902255911887 0
-3.4251804057674214e-06 -0.63106572052985332 0
-3.4751756401536538e-06 -0.93719987763553114 0
-4.8807386337241738e-06 -1.555115076038152 0
-7.6132739640428739e-06 -2.0468086485689398 0
-4.3994728261163928e-06 -2.1548545595532298 0
-1.2925533579332321e-06 -2.1651806881884714 0
-2.6365573833860525e-07 -2.161982126424987 0
-4.7220020094184719e-08 -2.155579877519131 0
-7.1146372367137172e-09 -2.1469450445031448 0
-8.9008999518237477e-10 -2.1360663415762056 0
-8.6968675383503785e-11 -2.1236609364393226 0
-5.6683237102172105e-12 -2.1111043654989277 0
-3.3925463498831662e-17 -1.9812804694536499 0
2.0771275654938693e-06 -0.094635887098449473 0
1.9929751854151299e-06 -0.11063173113616387 0
2.653337531514855e-06 -0.12465700472732578 0
2.9332184332869654e-06 -0.14000039397155734 0
4.4999580847418011e-06 -0.15717852436954904 0
4.9831807611906358e-06 -0.1770421436910711 0
5.0528835255423448e-06 -0.20076085978963101 0
5.2651185832866317e-06 -0.22986049792894378 0
6.1570444443976654e-06 -0.26672499478830158 0
6.5367811309010599e-06 -0.31514494542871396 0
7.5575891900503733e-06 -0.38136132900336139 0
7.7719409479316834e-06 -0.47710107220185066 0
7.7818499972967442e-06 -0.63103821001158045 0
8.2434309735526493e-06 -0.93685085059289575 0
6.3675453436146896e-06 -1.5540771397729272 0
1.6783532397397086e-06 -2.046236514160173 0
-4.5158249442219004e-07 -2.1547123816040497 0
-2.8018463530164272e-07 -2.1651009984011687 0
-7.7304870158151449e-08 -2.1618767709876381 0
-1.6544633742096592e-08 -2.1554366783401169 0
-2.842359606260583e-09 -2.1467572135087725 0
-3.9200222156782159e-10 -2.1358225467445302 0
-4.1321118340485652e-11 -2.1233656112327499 0
-2.8555277733714991e-12 -2.1107620807296206 0
-2.1352673066497068e-17 -1.9820662351199025 0
2.6829820764918443e-06 -0.094620376668821143 0
3.3282748665098893e-06 -0.1106183436359402 0
3.9878252522623073e-06 -0.12464330702268481 0
4.36392047076283e-06 -0.13998723999595597 0
4.7149079849912451e-06 -0.15716647362548339 0
5.420331359871571e-06 -0.17703204749621895 0
5.4384259239826722e-06 -0.20075175978178234 0
7.2536037991988785e-06 -0.22985419074723679 0
7.5931390291597837e-06 -0.26672292232071565 0
8.4403125391565395e-06 -0.31514654953401827 0
9.9064510572031047e-06 -0.38136371049477613 0
1.0653905680867526e-05 -0.47709928801113144 0
1.0463571861108768e-05 -0.63101541215259771 0
9.9753508573338159e-06 -0.93670372846883587 0
4.8760179926610588e-06 -1.5536913644530901 0
2.3734775949417876e-06 -2.0460280878523469 0
5.5468221508059998e-07 -2.1546561466314489 0
1.8523905341413121e-08 -2.1650610951552109 0
-1.0336758888557403e-08 -2.1618210881976969 0
-3.6491895913669928e-09 -2.1553588421074195 0
-7.8198086948343188e-10 -2.1466533896037334 0
-1.232213982819493e-10 -2.1356886228497136 0
-1.4195859003292672e-11 -2.1232033521025988 0
-1.0438019538061815e-12 -2.1105758683535294 0
-8.6696774281439655e-18 -1.9824465050720097 0
3.0169178005817698e-06 -0.094614658858676787 0
3.5756141069972308e-06 -0.11061220282470682 0
4.0863260527967016e-06 -0.1246379565198729 0
4.9797727542259895e-06 -0.13998182133402692 0
5.597757384156311e-06 -0.157161013681821 0
3.4690283627981586e-06 -0.1770289705369413 0
3.5851050189260907e-06 -0.20074990175098834 0
4.3714339095284955e-06 -0.22985206601020003 0
4.7474656179073417e-06 -0.26672120075662581 0
5.9158457628396798e-06 -0.31514505908294144 0
6.608663389211959e-06 -0.381363334717219 0
7.6189286791843105e-06 -0.47710127169486649 0
7.7237777620801446e-06 -0.6310069200858629 0
6.9398088330319266e-06 -0.93666685449163556 0
2.5878411898484702e-06 -1.5535828280026933 0
-3.6307134814664309e-06 -2.0459731647899217 0
-8.6803027244979536e-07 -2.1546436780231062 0
-4.6309692401774167e-08 -2.1650497814294982 0
5.301255606324753e-09 -2.1618038898470266 0
1.4158230877139554e-09 -2.1553343687812965 0
2.2160003825131768e-10 -2.1466204987652988 0
2.7098937915479221e-11 -2.1356464694469093 0
2.60785654291032e-12 -2.1231525281977364 0
1.7081981895839693e-13 -2.1105181002956388 0
1.5639959426015828e-18 -1.9825560176731769 0
3.7895917634783131e-06 -0.094618930065560436 0
4.4780886522477693e-06 -0.11061668361055657 0
5.051792282530984e-06 -0.12464210490990536 0
5.4733736969588568e-06 -0.13998645762772072 0
1.0421653465976113e-05 -0.15716367857383812 0
1.1354084663768402e-05 -0.17702991756155159 0
1.2400184839134704e-05 -0.20074946992867454 0
1.305824365440462e-05 -0.22985250462971368 0
1.4349974053097277e-05 -0.26671895169582294 0
1.4172580371431414e-05 -0.3151395234151585 0
1.4544582707385085e-05 -0.38135763427272434 0
1.2616280315039309e-05 -0.47710040691127031 0
9.6048694296732465e-06 -0.63101652966226107 0
6.4660365828863145e-06 -0.93670645853262624 0
-2.6329666700458119e-07 -1.5536780307984452 0
-6.6286004049170518e-06 -2.0460209030792571 0
-1.8550315464654773e-06 -2.1546586110554831 0
-8.5540136310852132e-08 -2.1650616888136254 0
2.3417109551662304e-08 -2.1618211506648493 0
6.599487588259402e-09 -2.1553588485398154 0
1.2295144003603099e-09 -2.1466533902987592 0
1.774915977580587e-10 -2.1356886229187864 0
1.9382338788909222e-11 -2.1232033521083093 0
1.380482127283088e-12 -2.1105758683538496 0
1.1643822873224909e-17 -1.9824465050720097 0
5.805850007169295e-06 -0.094633327525674354 0
7.1655608499062569e-06 -0.11062966892912712 0
8.8874034456778698e-06 -0.12465440859829405 0
1.0221032378766703e-05 -0.13999635972448593 0
1.019182760177164e-05 -0.15717736194164575 0
1.2266834444654219e-05 -0.17704046786805117 0
1.3540367262404666e-05 -0.20075881181825544 0
1.4670159933663764e-05 -0.22985617132674538 0
1.631729931702901e-05 -0.2667209988410314 0
1.6475946031129855e-05 -0.31514209623297407 0
1.721322168428462e-05 -0.38135897646471295 0
1.7166085085410761e-05 -0.47710202933117873 0
1.5505269449079536e-05 -0.63104252596427046 0
1.2853276877544606e-05 -0.93684789938888569 0
6.5993604054640573e-06 -1.5540657828046165 0
1.8964056126178487e-06 -2.0462339536713903 0
8.3607697055113175e-07 -2.1547136499901707 0
3.9296544394335842e-07 -2.1651015437071828 0
9.4847063001208351e-08 -2.1618768567203173 0
1.9491467011980612e-08 -2.1554366905267881 0
3.2665937150334877e-09 -2.1467572150306808 0
4.428068721398827e-10 -2.1358225469060765 0
4.6122463933555152e-11 -2.1233656112464918 0
3.1621548115322994e-12 -2.1107620807304022 0
2.3793800644341548e-17 -1.9820662351199025 0
7.263679699197294e-06 -0.094668420423825048 0
9.0111873617005179e-06 -0.11066383675667014 0
1.0198357158840121e-05 -0.12468309756001772 0
1.1984959145639361e-05 -0.14002154435811046 0
1.2184417263153943e-05 -0.15719577450652794 0
1.3986102406286433e-05 -0.17705333019830349 0
1.4424013640662469e-05 -0.20076448915577405 0
1.7034621200176595e-05 -0.22985411298524219 0
1.8022383240043973e-05 -0.26670758347230289 0
1.9050507200696494e-05 -0.31511565592906671 0
2.0453907175684798e-05 -0.3813253777712835 0
2.175761541300608e-05 -0.47707246942079623 0
2.2869377222388682e-05 -0.63107023639160942 0
2.3024151499390068e-05 -0.93718895265940738 0
1.680749702182028e-05 -1.5550961447254983 0
9.3990668581955826e-06 -2.0468079901798419 0
4.6221754681105725e-06 -2.1548559960506339 0
1.3862042921882529e-06 -2.1651812080473531 0
2.7874818727541516e-07 -2.1619822329159883 0
4.9474394180418008e-08 -2.1555798949091378 0
7.4252715191658153e-09 -2.1469450468594591 0
9.2708902736265349e-10 -2.1360663418384345 0
9.0478368915131996e-11 -2.1236609364622336 0
5.8923521395775251e-12 -2.1111043655002559 0
3.542422427880181e-17 -1.9812804694536501 0
8.8463106891468743e-06 -0.094724790281827079 0
1.054599147350557e-05 -0.11070476710873031 0
1.20018582162156e-05 -0.12471441800941498 0
1.3660097269230117e-05 -0.14004098288590791 0
1.5980780596043109e-05 -0.15719822325563798 0
1.8469221682272913e-05 -0.1770373120009035 0
2.0594427848278429e-05 -0.20072173515645578 0
2.293585464802449e-05 -0.22977953710164126 0
2.5570421717719055e-05 -0.26658960588462904 0
2.8468415531628687e-05 -0.31495164773001638 0
3.1940582940244615e-05 -0.38112064440363458 0
3.5812332738444499e-05 -0.47685916968624387 0
4.0282052202304414e-05 -0.63098429096622599 0
4.5938364055020891e-05 -0.93797236877147727 0
4.7347461508927732e-05 -1.5578791602925874 0
3.1477420876581874e-05 -2.0483625919365576 0
1.4427793928379974e-05 -2.1551947066845121 0
4.0194412217546059e-06 -2.1653238237790369 0
6.9337873764226385e-07 -2.1621510243941624 0
1.0597495698942915e-07 -2.1557987328203256 0
1.4503955216578671e-08 -2.1472351506310257 0
1.6731706163729011e-09 -2.1364362052469952 0
1.5306538828021645e-10 -2.1240967411393412 0
9.4766087317135808e-12 -2.1116074013565349 0
3.7457339983088031e-17 -1.9799530465804556 0
2.080910431757985e-05 -0.094730112902227173 0
2.5291396253868306e-05 -0.11068217274460115 0
2.8610348759096234e-05 -0.12465005799021721 0
3.1951339275433187e-05 -0.13993684696266434 0
3.4877917616586507e-05 -0.15703969094818038 0
4.1672158130716729e-05 -0.17681295450611365 0
4.4795430869844666e-05 -0.20041416401161027 0
4.9780205893537233e-05 -0.2293564195264893 0
5.4223977401701816e-05 -0.26601586682158007 0
6.0377761895625889e-05 -0.31420128949154158 0
6.6708249791384922e-05 -0.38019719171659533 0
7.5160286722624015e-05 -0.47583775384986121 0
8.6543637587712635e-05 -0.63027841159114317 0
0.00010147498203033265 -0.93984909657361582 0
0.00011816727484126991 -1.5658745597022297 0
9.3628442034150987e-05 -2.0526555929681214 0
4.2304683539692032e-05 -2.1559863548807554 0
1.0639117358304516e-05 -2.1655461868411732 0
1.431839863789222e-06 -2.1623970239205654 0
1.8933171001791864e-07 -2.1561310408048846 0
2.3793856145630168e-08 -2.1476489529072902 0
2.5508201024486719e-09 -2.1369231140912555 0
2.2020224528440325e-10 -2.124623237131241 0
1.303178739679046e-11 -2.1121823064625409 0
2.5045309933611289e-17 -1.978115951256749 0
4.512680896803846e-05 -0.094157543398593183 0
5.2818584217488746e-05 -0.11001850503510426 0
5.8698019543725578e-05 -0.12389693090896582 0
6.4432433278076675e-05 -0.1390319471775161 0
7.0230571964978781e-05 -0.15593537580059222 0
7.6065849858520022e-05 -0.17545317543864891 0
8.2283961196611912e-05 -0.19870691131433388 0
9.0329652982189284e-05 -0.22719144403384298 0
9.8096779724610254e-05 -0.26326476773326279 0
0.0001082260656875453 -0.31077152006288528 0
0.00011994336731122008 -0.37611576144495085 0
0.00013523281780334026 -0.47140769017400241 0
0.00015755964924752579 -0.62699781131796983 0
0.00019972985932134533 -0.94572262084969905 0
0.00028032905670403449 -1.5918154158916333 0
0.0002684727339326092 -2.0643382148893483 0
0.00010589829525989206 -2.157602797369361 0
1.8952258454678006e-05 -2.16584589927752 0
2.1998483394258456e-06 -2.162724822240726 0
2.716592800250597e-07 -2.1566264305607716 0
3.1166787799033448e-08 -2.1481574332117308 0
3.1470712408813495e-09 -2.1374567686608534 0
2.6010265554042232e-10 -2.1251111571727921 0
1.4811049375169589e-11 -2.1125757826381242 0
9.9596870817233917e-18 -1.9761638789698655 0
7.21379619563989e-05 -0.089559677790889469 0
8.3092834089766436e-05 -0.10473775199598115 0
9.1810213555558522e-05 -0.11780674519905469 0
0.00010070111764961556 -0.13230832956645547 0
0.00010916860912988505 -0.14863922312396274 0
0.00011706914942824788 -0.16753148681609387 0
0.00012541313131830435 -0.18998493819196835 0
0.00013250082000267478 -0.21747980211143197 0
0.00014305036924530616 -0.25236057342267421 0
0.00015661036631748162 -0.29845492518963923 0
0.00017106657932319867 -0.36217253876940164 0
0.00019165203499908699 -0.45604022252039916 0
0.00022298068937052535 -0.61619179169319716 0
0.00028458486814844137 -0.97782795848545789 0
0.00037821579571831339 -1.6746629550767607 0
0.00030020418689198343 -2.0903707675845355 0
0.00010994163550906671 -2.1605559002219152 0
1.8544509162222547e-05 -2.16637174916062 0
2.2462686411409823e-06 -2.1631409573352793 0
2.6392456698491015e-07 -2.1570693926674465 0
2.883016522231957e-08 -2.1485948670488484 0
2.8239297917841122e-09 -2.1378489052156362 0
2.2765888083530771e-10 -2.1253069624407224 0
1.2533573906538911e-11 -2.1123598881826111 0
3.0516866565245441e-18 -1.9748348848496573 0
-0 -0 0
-0 -0 0
-0 -0 0
-0 -0 0
-0 -0 0
-0 -0 0
1.4946167490411977e-05 0.017698556107603573 0
8.9998526853841073e-05 0.11025096034832921 0
0.00011494199267722106 0.16102559186903898 0
-0 -0 0
-0 -0 0
-0 -0 0
8.0489124445409064e-05 0.096422702702949462 0
9.2941533700156026e-05 0.12059878618103501 0
0.00011482636407391628 0.17231452973879197 0
-0 -0 0
-0 -0 0
-0 -0 0
6.0581541730368668e-05 0.099455117241498497 0
7.3357526962584187e-05 0.12308401415762744 0
9.282150149216359e-05 0.17517172497808575 0
-0 -0 0
-0 -0 0
-0 -0 0
3.2888905025477989e-05 0.10185771138360504 0
4.1090658177878994e-05 0.1250947448526491 0
5.4583912076257791e-05 0.17741609652631923 0
-0 -0 0
-0 -0 0
-0 -0 0
1.3615370542628928e-05 0.10212809817241755 0
1.7975764727920667e-05 0.12547852414181254 0
2.4859030381575751e-05 0.17789153410074918 0
-0 -0 0
-0 -0 0
-0 -0 0
3.9644950617685525e-06 0.10208194007682078 0
5.5984224228997403e-06 0.12544790196307329 0
7.7693895872054827e-06 0.17781869947427029 0
-0 -0 0
-0 -0 0
-0 -0 0
-4.2956585292085694e-07 0.10202778580844027 0
-2.7620295980913588e-07 0.12539103992824316 0
-5.1293502066115768e-07 0.17773267878589438 0
-0 -0 0
-0 -0 0
-0 -0 0
-2.5395558177783478e-06 0.10199838237320794 0
-3.1200567343258417e-06 0.12535781938881344 0
-4.4018651361608913e-06 0.17768451662059057 0
-0 -0 0
-0 -0 0
-0 -0 0
-3.1956128703163429e-06 0.10198626347812656 0
-3.8861547656845342e-06 0.12534386270266104 0
-5.0022792666822506e-06 0.17766462604368566 0
-0 -0 0
-0 -0 0
-0 -0 0
-3.8310745445084608e-06 0.10198546197828397 0
-5.1224639617230109e-06 0.12534302966382743 0
-7.0998668902651259e-06 0.17766335169941375 0
-0 -0 0
-0 -0 0
-0 -0 0
-5.2963523697617589e-06 0.1019963151527552 0
-7.1909646364639287e-06 0.12535578705029818 0
-1.0243103160333857e-05 0.17768188903855134 0
-0 -0 0
-0 -0 0
-0 -0 0
-7.200670843456077e-06 0.10202540608517727 0
-9.1295241876948289e-06 0.1253888706885995 0
-1.225253011897704e-05 0.17773038441589892 0
-0 -0 0
-0 -0 0
-0 -0 0
-8.8357426505322292e-06 0.10208108563150746 0
-1.1563775210873525e-05 0.12544723254723966 0
-1.585773794639512e-05 0.17781793557632988 0
-0 -0 0
-0 -0 0
-0 -0 0
-1.6308643323922126e-05 0.10213029349679091 0
-2.1128768709480495e-05 0.12548037392550054 0
-2.8800579158445691e-05 0.17789259039343053 0
-0 -0 0
-0 -0 0
-0 -0 0
-3.5765992236609879e-05 0.10186078376441837 0
-4.3488035627806553e-05 0.12509723338330331 0
-5.6495561985115155e-05 0.17741813103301482 0
-0 -0 0
-0 -0 0
-0 -0 0
-6.0734194817524483e-05 0.099455563643536471 0
-7.2445915421261623e-05 0.12308476763631065 0
-9.0584011207005727e-05 0.17517347400391531 0
-0 -0 0
-0 -0 0
-0 -0 0
-7.6541953164150999e-05 0.096420860541762701 0
-8.8439336253464402e-05 0.12059796326550432 0
-0.0001085279017431095 0.17231439485978842 0
-0 -0 0
-0 -0 0
-0 -0 0
-1.4208322888343341e-05 0.017689909685949631 0
-8.5423201002151228e-05 0.11024912007571605 0
-0.00010827056752935541 0.16102347258248878 0
-0 -0 0
-0 -0 0
-0 -0 0
-0 -0 0
-0 -0 0
-0 -0 0
-0 -0 0
-0 -0 0
-0 -0 0
-0 -0 0
-0 -0 0
-0 -0 0
-0 -0 0
-0 -0 0
-0 -0 0
-0 -0 0
-0 -0 0
-0 -0 0
-0 -0 0
-0 -0 0
-0 -0 0
-0 -0 0
-0 -0 0
-0 -0 0
-0 -0 0
-0 -0 0
-0 -0 0
-0 -0 0
-0 -0 0
-0 -0 0
-0 -0 0
-0 -0 0
-0 -0 0
-0 -0 0
-0 -0 0
-0 -0 0
-0 -0 0
-0 -0 0
-0 -0 0
-0 -0 0
-0 -0 0
-0 -0 0
-0 -0 0
-0 -0 0
-0 -0 0
-0 -0 0
-0 -0 0
-0 -0 0
-0 -0 0
-0 -0 0
-0 -0 0
-0 -0 0
-0 -0 0
-0 -0 0
-0 -0 0
-0 -0 0
-0 -0 0
-0 -0 0
-0 -0 0
-0 -0 0
-0 -0 0
-0 -0 0
-0 -0 0
-0 -0 0
-0 -0 0
-0 -0 0
-0 -0 0
-0 -0 0
-0 -0 0
-0 -0 0
-0 -0 0
-0 -0 0
-0 -0 0
-0 -0 0
-0 -0 0
-0 -0 0
-0 -0 0
-0 -0 0
-0 -0 0
-0 -0 0
-0 -0 0
-0 -0 0
-0 -0 0
-0 -0 0
-0 -0 0
-0 -0 0
-0 -0 0
-0 -0 0
-0 -0 0
-0 -0 0
-0 -0 0
-0 -0 0
-0 -0 0
-0 -0 0
-0 -0 0
-0 -0 0
-0 -0 0
-0 -0 0
-0 -0 0
-0 -0 0
-0 -0 0
-0 -0 0
-0 -0 0
-0 -0 0
-0 -0 0
-0 -0 0
-0 -0 0
-0 -0 0
-0 -0 0
-0 -0 0
-0 -0 0
-0 -0 0
-0 -0 0
-0 -0 0
-0 -0 0
-0 -0 0
-0 -0 0
-0 -0 0
-0 -0 0
-0 -0 0
-0 -0 0
-0 -0 0
-0 -0 0
-0 -0 0
-0 -0 0
-0 -0 0
-0 -0 0
-0 -0 0
-0 -0 0
-0 -0 0
-0 -0 0
-0 -0 0
-0 -0 0
-0 -0 0
-0 -0 0
-0 -0 0
-0 -0 0
-0 -0 0
-0 -0 0
-0 -0 0
-0 -0 0
-0 -0 0
-0 -0 0
-0 -0 0
-0 -0 0
-0 -0 0
-0 -0 0
-0 -0 0
-0 -0 0
-0 -0 0
-0 -0 0
-0 -0 0
-0 -0 0
-0 -0 0
-0 -0 0
-0 -0 0
-0 -0 0
-0 -0 0
-0 -0 0
-0 -0 0
-0 -0 0
-0 -0 0
-0 -0 0
-0 -0 0
-0 -0 0
-0 -0 0
-0 -0 0
-0 -0 0
-0 -0 0
-0 -0 0
-0 -0 0
-0 -0 0
-0 -0 0
-0 -0 0
-0 -0 0
-0 -0 0
-0 -0 0
-0 -0 0
-0 -0 0
-0 -0 0
-0 -0 0
-0 -0 0
-0 -0 0
-0 -0 0
-0 -0 0
-0 -0 0
-0 -0 0
-0 -0 0
-0 -0 0
-0 -0 0
-0 -0 0
-0 -0 0
-0 -0 0
-0 -0 0
-0 -0 0
