# vtk DataFile Version 3.0
SPH particles (WCSPH) - legacy PolyData
ASCII
DATASET POLYDATA
POINTS 681 float
0.049991217643016568 0.019457129177571079 0
0.049990232664800321 0.021601354484786974 0
0.049989436228614632 0.023330724440757573 0
0.049988650713444126 0.025037288908229531 0
0.049987946560015664 0.026696666158343998 0
0.049987326214311317 0.028307985369100508 0
0.049986757545665457 0.02987759069888727 0
0.049986200293664962 0.031414028584075562 0
0.04998559773619498 0.032926770816131094 0
0.049984852943027396 0.034423994559755949 0
0.049983518369559936 0.035914425336826976 0
0.049981735222103571 0.037406569571688988 0
0.049981043951691208 0.038908853915634985 0
0.049981799896360382 0.040430121756106253 0
0.049983290375243246 0.041980187892385425 0
0.049985050262962613 0.043569754284837024 0
0.049986870770937129 0.045212312252701177 0
0.04998858494499419 0.046924170086483287 0
0.04999018392969308 0.048727511069343032 0
0.049991610341059325 0.050638865433199114 0
0.04999281492075535 0.052702673739514552 0
0.049993798185561336 0.054974331193592872 0
0.049994591615559678 0.057542207422230401 0
0.049995233963718543 0.060572343458461533 0
0.049996057363298804 0.064520045758505923 0
0.069995419371136111 0.018248479243213604 0
0.069994851492009486 0.020614788893673686 0
0.069994429202211148 0.02253572523295955 0
0.069994048275705656 0.024394658089711311 0
0.069993690337573564 0.026178656485301394 0
0.069993331110889068 0.027895172297631565 0
0.069992973089451058 0.029556432985392896 0
0.069992609435968814 0.031175022602625294 0
0.069992223535005713 0.032763342413968902 0
0.069991765746846901 0.034331535517817972 0
0.069990861133549478 0.035889871536581512 0
0.069989019730360855 0.037448232526004405 0
0.069987935558538952 0.039015907606461696 0
0.069988136409672941 0.040602494359941746 0
0.069989048424442993 0.042218894672694768 0
0.069990195680899092 0.043876810754725548 0
0.069991426439164298 0.045591486533616284 0
0.069992637207217434 0.047380133199369796 0
0.069993771358482726 0.049263889405419481 0
0.069994756339958178 0.051269046205319739 0
0.069995573546929965 0.053439030808819725 0
0.069996224987241659 0.055834019978830085 0
0.069996721431321449 0.058555312749497941 0
0.069997113056570082 0.061795595594182885 0
0.069997618347900192 0.06609485025627769 0
0.089998376742683961 0.018198139978612436 0
0.089998166002926594 0.020566360576792724 0
0.089998010617089091 0.022490880668559927 0
0.089997860624145318 0.024355673198984715 0
0.089997706658120874 0.026146972565015199 0
0.089997544097322205 0.027871715532534237 0
0.089997373809211342 0.029542086223771084 0
0.08999719885989492 0.031170436211350537 0
0.089997001971442087 0.032768693792189323 0
0.089996781977199028 0.034347573305309548 0
0.089996515261479282 0.035917176997149781 0
0.089996139442009682 0.037487542159428212 0
0.089995773975660609 0.039067826205735602 0
0.08999573248426089 0.040667724363785934 0
0.089995977326166668 0.042298106346473678 0
0.08999631130185104 0.043970951921569169 0
0.089996703038318443 0.045701374012965583 0
0.089997102241485771 0.047505845462831195 0
0.089997481747864705 0.049406220832048924 0
0.089997800102083234 0.051431592439304355 0
0.089998064260603319 0.053623102020222836 0
0.089998267607640778 0.056041634370873804 0
0.089998445481546743 0.058788598782368841 0
0.089998591559162511 0.062056504188243974 0
0.089998820742849664 0.066391315931576295 0
0.10999941707314607 0.018207437662413367 0
0.10999933596328965 0.020576737058945242 0
0.1099992693872209 0.022502219063587393 0
0.10999920420473043 0.024368082094513032 0
0.10999913637886358 0.026160559731302067 0
0.10999908298604383 0.027886603810018701 0
0.10999902219153283 0.029558415291247527 0
0.10999894379853846 0.031188332689717328 0
0.10999885721539319 0.032788157577541735 0
0.1099987611752076 0.034368739135528174 0
0.10999866577135459 0.035940155419004187 0
0.10999854217095864 0.037512595662840237 0
0.10999844607970487 0.03909503992207445 0
0.1099984353774989 0.040697296936065733 0
0.10999848048313629 0.042330247337186454 0
0.1099985832438492 0.044006162393960387 0
0.10999871146072533 0.045739576365112104 0
0.1099988530447782 0.047547061935690367 0
0.10999899270782683 0.049450745363758285 0
0.10999910441752547 0.051479753968951401 0
0.10999919024054131 0.053675324490337656 0
0.10999925950135166 0.056098426661287906 0
0.10999932211896175 0.058850485551448277 0
0.10999937995940437 0.062124112244399891 0
0.10999947905434258 0.066466739302459249 0
0.12999976762745841 0.018213736049413311 0
0.12999973587082761 0.020583686420736168 0
0.12999971409601932 0.022509657482799105 0
0.12999969415279974 0.024375962861649433 0
0.12999968329944298 0.026168883822931494 0
0.12999965583853573 0.027895330890982676 0
0.12999963212759055 0.029567514515961218 0
0.12999959863688143 0.031197821159833244 0
0.12999956812576549 0.032798039797518837 0
0.12999952826473937 0.034379021433948526 0
0.12999947259061478 0.035950900120779006 0
0.12999940650999608 0.037523540435590495 0
0.12999939569310454 0.039106244484904275 0
0.12999939525671872 0.040708740380959382 0
0.12999937471973477 0.042341978922913304 0
0.12999942126380495 0.044018784722947395 0
0.12999947587230168 0.045754035581751396 0
0.12999953257131369 0.047562750311582171 0
0.12999957988708924 0.049467316816477223 0
0.12999961482942829 0.051496558398405591 0
0.12999964662953195 0.053693079521005743 0
0.12999967334734622 0.056117279993627964 0
0.12999969529958719 0.058870572547280675 0
0.12999971898737964 0.062145572970639232 0
0.12999976082867071 0.066490223613615979 0
0.14999990389984544 0.018216444705591694 0
0.14999989355161469 0.020586737144278749 0
0.14999988555806851 0.022513031357488517 0
0.14999987773102894 0.024379479486886534 0
0.1499998677862483 0.026172550080494204 0
0.14999985905281293 0.027899218080224858 0
0.14999985685750272 0.02957153628713792 0
0.14999984997651611 0.031202019634731844 0
0.14999983629589791 0.032802424302887948 0
0.14999981327441328 0.034383587586810746 0
0.14999978702213826 0.035955781346041764 0
0.14999976670493978 0.037528672321665457 0
0.14999974385988499 0.039111689461132797 0
0.14999972457907174 0.040714796134882436 0
0.14999972746185369 0.042348542334168397 0
0.14999974899012547 0.044025482204635057 0
0.14999977978177903 0.045759848750822001 0
0.14999981390777878 0.047568115329037 0
0.14999980825509135 0.049472819890378036 0
0.14999980651639114 0.051502935316802501 0
0.14999981746438906 0.053699763960909329 0
0.14999983403906178 0.056124346826523591 0
0.14999984591082474 0.058878173986669245 0
0.14999985379362996 0.062153762186489415 0
0.14999987231878945 0.066498687821357774 0
0.16999994872719115 0.018216829428824924 0
0.16999994251934464 0.020587509115784233 0
0.16999993692404669 0.022514268052885943 0
0.16999993081499368 0.024380643636823806 0
0.1699999231317264 0.026173741284768067 0
0.16999991473226325 0.027900505902465827 0
0.1699999030693633 0.029572893114083943 0
0.16999989723044909 0.031203403418329403 0
0.16999988672612074 0.032803759651478276 0
0.16999987309629719 0.03438472601229596 0
0.16999985007896282 0.03595708045925923 0
0.16999982371172923 0.037529888888499861 0
0.16999980215562543 0.039112642377510269 0
0.16999977174746825 0.040716300438490047 0
0.16999978325574217 0.042350251974484235 0
0.16999983439183028 0.044027592747086418 0
0.16999985597086004 0.045762117020891759 0
0.16999985711061091 0.047569784649212403 0
0.1699998341870694 0.049474502393543292 0
0.16999985263926259 0.051504866324466179 0
0.1699998764582174 0.053701804501669261 0
0.16999989385332848 0.056126578593527494 0
0.16999989586642311 0.058880766515539341 0
0.16999990264600495 0.062157680253778859 0
0.16999991845199194 0.066501459481296113 0
0.18999996335801331 0.018217396030393587 0
0.18999995945633133 0.020587592604138408 0
0.18999995923645174 0.022513942068351028 0
0.18999995537154038 0.024380672380879875 0
0.18999995014523791 0.026174118044501829 0
0.18999993947754085 0.027900743925120493 0
0.18999993640972079 0.029573115532767834 0
0.18999992440541927 0.031203689676114955 0
0.18999991210111103 0.032803983202529426 0
0.18999990415191498 0.034384876466187354 0
0.18999989974674616 0.035957564307269506 0
0.18999990827812685 0.037530581823829796 0
0.1899999228237812 0.039113628540632335 0
0.18999991808017877 0.040717168852284068 0
0.18999992830655896 0.042351102283937951 0
0.18999992612255245 0.044028039202804965 0
0.18999991304459465 0.045762102452375712 0
0.18999989096348735 0.047570277123917572 0
0.18999986292927551 0.049474985321860135 0
0.18999991772407121 0.051505260259641708 0
0.18999992536100505 0.053701912559414068 0
0.18999993991944353 0.056125939464408699 0
0.18999994785941088 0.058878559743545722 0
0.18999995551818 0.062156413514190045 0
0.18999996638137037 0.066501420146945114 0
0.20999999478243908 0.018217348425136018 0
0.20999999380612924 0.020587581009781933 0
0.20999999092431115 0.022513704798779025 0
0.2099999879971991 0.024380041934613742 0
0.2099999850723403 0.026173452959706134 0
0.20999997618643393 0.027900081687612818 0
0.20999997564033629 0.029572539345976097 0
0.20999997498293893 0.03120329712073339 0
0.2099999746849176 0.032803727900750673 0
0.20999996328550963 0.034384716515429951 0
0.20999995679953282 0.035956647627988281 0
0.20999995322010737 0.037529584932890658 0
0.20999996317352873 0.039113366475590924 0
0.20999994951806555 0.040716830857805857 0
0.20999995006662692 0.042350648456221121 0
0.20999996332236956 0.044027424141198555 0
0.20999996323549924 0.045761320424576778 0
0.20999996672920249 0.047569625731184596 0
0.20999999248645987 0.049474309457702405 0
0.20999998982304049 0.05150454454318399 0
0.20999998495806071 0.053701141937072212 0
0.2099999772221724 0.056125078469022809 0
0.20999998266562725 0.058877484840502536 0
0.20999998922540966 0.062155089473624206 0
0.20999999643417494 0.066500386021777741 0
0.23000005823155617 0.018216178700165099 0
0.23000006319724517 0.020586309684646465 0
0.23000007162515132 0.022512382001420264 0
0.23000007242935047 0.024378661277316926 0
0.23000006893922775 0.026171637015586537 0
0.23000007444684578 0.027898503057695697 0
0.23000008636921698 0.029571302374940139 0
0.23000009510529232 0.031201595485356531 0
0.23000010122556933 0.032801856845860143 0
0.23000010283313799 0.034382788848561351 0
0.23000010456085199 0.035954401533726268 0
0.23000011640177678 0.03752758801334561 0
0.23000017878777346 0.039111485497806804 0
0.23000013379857256 0.04071467664180934 0
0.23000011159020745 0.042348365426364651 0
0.23000014070575051 0.044024995673231593 0
0.23000014466766791 0.045758731303236183 0
0.23000014851083198 0.047567158833732033 0
0.23000018405908648 0.049471821612730164 0
0.23000013890007756 0.051501846815542915 0
0.23000012081489798 0.053698430564996971 0
0.23000009937219931 0.05612272890828468 0
0.23000009039523001 0.058876988331850358 0
0.23000008518068454 0.062152295498159094 0
0.23000007548585299 0.066497366366077185 0
0.25000017084005977 0.018213350688967039 0
0.25000019181157057 0.020583167550284658 0
0.25000021247734777 0.022509119904154128 0
0.2500002315837318 0.024375319470802247 0
0.25000024524682968 0.02616810892584558 0
0.2500002595194209 0.027894770403794209 0
0.25000028366083521 0.029566974962498865 0
0.25000030452370064 0.03119735507551516 0
0.25000032390782151 0.032797566741715398 0
0.25000035438039192 0.034378509686195047 0
0.25000040074324026 0.035950369909019959 0
0.25000048546610454 0.037523100424315649 0
0.25000051736938461 0.039106045963425332 0
0.25000056344428639 0.04070897144631222 0
0.25000055625192513 0.042342348949679878 0
0.25000050952882946 0.044018456082365431 0
0.25000047447810675 0.045751695692449759 0
0.25000042443089915 0.047560457000865988 0
0.25000038639334732 0.049464981786185837 0
0.25000035088000372 0.051493986038146457 0
0.25000031965175262 0.053689784119168298 0
0.25000028979852229 0.056113699594178862 0
0.25000026350037108 0.058871290031181696 0
0.25000023981100344 0.062144561201575334 0
0.25000020183741528 0.066488669811416601 0
0.27000049228395873 0.018206977662286149 0
0.27000056306267961 0.020576108552112352 0
0.27000061593118335 0.022501445975229656 0
0.27000066953505447 0.024367301223345111 0
0.270000718196928 0.026160061935398299 0
0.27000077315370546 0.02788633322516618 0
0.27000082905129758 0.029557345054568449 0
0.27000088732206845 0.031187825181123521 0
0.27000096218268893 0.03278777357655259 0
0.27000105484849812 0.03436822409657047 0
0.27000116297871229 0.03593976778614863 0
0.27000126705594418 0.037512024964709463 0
0.27000142451448683 0.039094399844754942 0
0.27000153819994943 0.040696855387177162 0
0.27000149565351322 0.04232983908060442 0
0.2700013549411438 0.044005593386221432 0
0.27000121441239555 0.045738384385272439 0
0.27000108693498281 0.04754578881402334 0
0.2700009627179274 0.049449316724029975 0
0.27000085711902133 0.051477956222651847 0
0.27000076744727736 0.053672866699314883 0
0.27000068689501555 0.056095353468542851 0
0.27000061875508141 0.05884978995301493 0
0.27000056239955023 0.062123214972190602 0
0.27000047629679186 0.066465424543706894 0
0.29000154931279309 0.018197942100884337 0
0.29000175653784144 0.020566079194226549 0
0.29000191141278447 0.022490598775894825 0
0.29000206077802398 0.024355394192987496 0
0.29000221564854733 0.026146739224330317 0
0.29000237142903634 0.027871367808907709 0
0.29000253643222934 0.029541110262203522 0
0.2900027245518399 0.031170268900288831 0
0.29000294323004955 0.032768654255752545 0
0.2900031880916632 0.034347355474294981 0
0.29000348544480925 0.035917010847279864 0
0.29000387881435269 0.03748722699983742 0
0.29000425615751108 0.039067423962831124 0
0.29000430199007832 0.040667491207483468 0
0.2900040694567923 0.042298011907177392 0
0.2900037042791504 0.043971194864243397 0
0.29000329360747024 0.045701253614951372 0
0.29000288192034912 0.047505494881711741 0
0.29000250156453461 0.049405936564304399 0
0.29000217184638849 0.0514314509651915 0
0.29000189348019778 0.053622732332351708 0
0.29000166878208911 0.056040969669114558 0
0.29000148802405923 0.058788247752627823 0
0.2900013396059441 0.062056188742816133 0
0.29000111896677955 0.06639090956708607 0
0.31000464684045903 0.018248515581619596 0
0.31000521711681966 0.020614822726869257 0
0.31000564409254416 0.022535767123304472 0
0.31000603368548535 0.024394699524387674 0
0.31000639968793892 0.026178624710412709 0
0.31000676954736633 0.027894886821223527 0
0.31000714053095635 0.029555962467863219 0
0.31000752115070351 0.031175391699986187 0
0.310007937894412 0.032763574391649848 0
0.31000844389884985 0.034331619544709369 0
0.31000939744578104 0.035890032242266827 0
0.31001123621833532 0.037448421229708331 0
0.31001226820766342 0.039016112552146098 0
0.31001202699026037 0.040603030213350023 0
0.31001110191785519 0.042219681164223213 0
0.31000995145514065 0.043878187211141277 0
0.3100087056170831 0.045592680428631856 0
0.31000746286891756 0.047380314679373141 0
0.31000630550920405 0.049263402023424031 0
0.31000529562701706 0.051270114721704653 0
0.31000445507920726 0.053440117009433977 0
0.31000378421725167 0.055834435554074219 0
0.31000327317911958 0.058555724048603347 0
0.31000285830640539 0.061795967476353596 0
0.31000233620437462 0.066095101752199042 0
0.33000863303741723 0.019457401271015539 0
0.33000958150889614 0.021601641035003838 0
0.33001035204590812 0.023330974470235698 0
0.33001109783113697 0.025037434795185214 0
0.33001176579771407 0.026696523887608459 0
0.33001234251645506 0.028307378353978733 0
0.33001286543775232 0.029877482991928852 0
0.33001339306798089 0.031414765386956221 0
0.33001392403629998 0.032927140694101735 0
0.33001453967840561 0.034424268556986902 0
0.33001574666745365 0.035914772540067599 0
0.33001751086915865 0.037407004585430004 0
0.33001820025938944 0.038909404502711312 0
0.33001742537881812 0.040430909356496528 0
0.33001597104835806 0.041981172337279597 0
0.33001426835296699 0.043571196213899217 0
0.33001251746274601 0.04521395220919814 0
0.33001082800808201 0.046924914968157434 0
0.33000927615427939 0.048725988994513927 0
0.330007919564064 0.050639295029127854 0
0.33000678470030914 0.052703246232198339 0
0.33000587532932224 0.05497473158024304 0
0.33000515704542621 0.057542592797212778 0
0.33000458710995395 0.060572646779302831 0
0.33000382631455316 0.064519875870850424 0
0 0 0
0 0.020000000000000004 0
0 0.040000000000000001 0
0 0.54999999999999993 0
0 0.56000000000000005 0
0 0.58000000000000007 0
0.02 0 0
0.02 0.020000000000000004 0
0.02 0.040000000000000001 0
0.02 0.54999999999999993 0
0.02 0.56000000000000005 0
0.02 0.58000000000000007 0
0.040000000000000001 0 0
0.040000000000000001 0.020000000000000004 0
0.040000000000000001 0.040000000000000001 0
0.040000000000000001 0.54999999999999993 0
0.040000000000000001 0.56000000000000005 0
0.040000000000000001 0.58000000000000007 0
0.059999999999999998 0 0
0.059999999999999998 0.020000000000000004 0
0.059999999999999998 0.040000000000000001 0
0.059999999999999998 0.54999999999999993 0
0.059999999999999998 0.56000000000000005 0
0.059999999999999998 0.58000000000000007 0
0.080000000000000002 0 0
0.080000000000000002 0.020000000000000004 0
0.080000000000000002 0.040000000000000001 0
0.080000000000000002 0.54999999999999993 0
0.080000000000000002 0.56000000000000005 0
0.080000000000000002 0.58000000000000007 0
0.10000000000000001 0 0
0.10000000000000001 0.020000000000000004 0
0.10000000000000001 0.040000000000000001 0
0.10000000000000001 0.54999999999999993 0
0.10000000000000001 0.56000000000000005 0
0.10000000000000001 0.58000000000000007 0
0.12 0 0
0.12 0.020000000000000004 0
0.12 0.040000000000000001 0
0.12 0.54999999999999993 0
0.12 0.56000000000000005 0
0.12 0.58000000000000007 0
0.14000000000000001 0 0
0.14000000000000001 0.020000000000000004 0
0.14000000000000001 0.040000000000000001 0
0.14000000000000001 0.54999999999999993 0
0.14000000000000001 0.56000000000000005 0
0.14000000000000001 0.58000000000000007 0
0.16 0 0
0.16 0.020000000000000004 0
0.16 0.040000000000000001 0
0.16 0.54999999999999993 0
0.16 0.56000000000000005 0
0.16 0.58000000000000007 0
0.17999999999999999 0 0
0.17999999999999999 0.020000000000000004 0
0.17999999999999999 0.040000000000000001 0
0.17999999999999999 0.54999999999999993 0
0.17999999999999999 0.56000000000000005 0
0.17999999999999999 0.58000000000000007 0
0.20000000000000001 0 0
0.20000000000000001 0.020000000000000004 0
0.20000000000000001 0.040000000000000001 0
0.20000000000000001 0.54999999999999993 0
0.20000000000000001 0.56000000000000005 0
0.20000000000000001 0.58000000000000007 0
0.22 0 0
0.22 0.020000000000000004 0
0.22 0.040000000000000001 0
0.22 0.54999999999999993 0
0.22 0.56000000000000005 0
0.22 0.58000000000000007 0
0.23999999999999999 0 0
0.23999999999999999 0.020000000000000004 0
0.23999999999999999 0.040000000000000001 0
0.23999999999999999 0.54999999999999993 0
0.23999999999999999 0.56000000000000005 0
0.23999999999999999 0.58000000000000007 0
0.26000000000000001 0 0
0.26000000000000001 0.020000000000000004 0
0.26000000000000001 0.040000000000000001 0
0.26000000000000001 0.54999999999999993 0
0.26000000000000001 0.56000000000000005 0
0.26000000000000001 0.58000000000000007 0
0.28000000000000003 0 0
0.28000000000000003 0.020000000000000004 0
0.28000000000000003 0.040000000000000001 0
0.28000000000000003 0.54999999999999993 0
0.28000000000000003 0.56000000000000005 0
0.28000000000000003 0.58000000000000007 0
0.29999999999999999 0 0
0.29999999999999999 0.020000000000000004 0
0.29999999999999999 0.040000000000000001 0
0.29999999999999999 0.54999999999999993 0
0.29999999999999999 0.56000000000000005 0
0.29999999999999999 0.58000000000000007 0
0.32000000000000001 0 0
0.32000000000000001 0.020000000000000004 0
0.32000000000000001 0.040000000000000001 0
0.32000000000000001 0.54999999999999993 0
0.32000000000000001 0.56000000000000005 0
0.32000000000000001 0.58000000000000007 0
0.34000000000000002 0 0
0.34000000000000002 0.020000000000000004 0
0.34000000000000002 0.040000000000000001 0
0.34000000000000002 0.54999999999999993 0
0.34000000000000002 0.56000000000000005 0
0.34000000000000002 0.58000000000000007 0
0.35999999999999999 0 0
0.35999999999999999 0.020000000000000004 0
0.35999999999999999 0.040000000000000001 0
0.35999999999999999 0.54999999999999993 0
0.35999999999999999 0.56000000000000005 0
0.35999999999999999 0.58000000000000007 0
0.38 0 0
0.38 0.020000000000000004 0
0.38 0.040000000000000001 0
0.38 0.54999999999999993 0
0.38 0.56000000000000005 0
0.38 0.58000000000000007 0
0.40000000000000002 0 0
0.40000000000000002 0.020000000000000004 0
0.40000000000000002 0.040000000000000001 0
0.40000000000000002 0.54999999999999993 0
0.40000000000000002 0.56000000000000005 0
0.40000000000000002 0.58000000000000007 0
0.41999999999999998 0 0
0.41999999999999998 0.020000000000000004 0
0.41999999999999998 0.040000000000000001 0
0.41999999999999998 0.54999999999999993 0
0.41999999999999998 0.56000000000000005 0
0.41999999999999998 0.58000000000000007 0
0.44 0 0
0.44 0.020000000000000004 0
0.44 0.040000000000000001 0
0.44 0.54999999999999993 0
0.44 0.56000000000000005 0
0.44 0.58000000000000007 0
0.46000000000000002 0 0
0.46000000000000002 0.020000000000000004 0
0.46000000000000002 0.040000000000000001 0
0.46000000000000002 0.54999999999999993 0
0.46000000000000002 0.56000000000000005 0
0.46000000000000002 0.58000000000000007 0
0.47999999999999998 0 0
0.47999999999999998 0.020000000000000004 0
0.47999999999999998 0.040000000000000001 0
0.47999999999999998 0.54999999999999993 0
0.47999999999999998 0.56000000000000005 0
0.47999999999999998 0.58000000000000007 0
0.5 0 0
0.5 0.020000000000000004 0
0.5 0.040000000000000001 0
0.5 0.54999999999999993 0
0.5 0.56000000000000005 0
0.5 0.58000000000000007 0
0.52000000000000002 0 0
0.52000000000000002 0.020000000000000004 0
0.52000000000000002 0.040000000000000001 0
0.52000000000000002 0.54999999999999993 0
0.52000000000000002 0.56000000000000005 0
0.52000000000000002 0.58000000000000007 0
0.54000000000000004 0 0
0.54000000000000004 0.020000000000000004 0
0.54000000000000004 0.040000000000000001 0
0.54000000000000004 0.54999999999999993 0
0.54000000000000004 0.56000000000000005 0
0.54000000000000004 0.58000000000000007 0
0.56000000000000005 0 0
0.56000000000000005 0.020000000000000004 0
0.56000000000000005 0.040000000000000001 0
0.56000000000000005 0.54999999999999993 0
0.56000000000000005 0.56000000000000005 0
0.56000000000000005 0.58000000000000007 0
0.57999999999999996 0 0
0.57999999999999996 0.020000000000000004 0
0.57999999999999996 0.040000000000000001 0
0.57999999999999996 0.54999999999999993 0
0.57999999999999996 0.56000000000000005 0
0.57999999999999996 0.58000000000000007 0
0.59999999999999998 0 0
0.59999999999999998 0.020000000000000004 0
0.59999999999999998 0.040000000000000001 0
0.59999999999999998 0.54999999999999993 0
0.59999999999999998 0.56000000000000005 0
0.59999999999999998 0.58000000000000007 0
0.62 0 0
0.62 0.020000000000000004 0
0.62 0.040000000000000001 0
0.62 0.54999999999999993 0
0.62 0.56000000000000005 0
0.62 0.58000000000000007 0
0.64000000000000001 0 0
0.64000000000000001 0.020000000000000004 0
0.64000000000000001 0.040000000000000001 0
0.64000000000000001 0.54999999999999993 0
0.64000000000000001 0.56000000000000005 0
0.64000000000000001 0.58000000000000007 0
0.66000000000000003 0 0
0.66000000000000003 0.020000000000000004 0
0.66000000000000003 0.040000000000000001 0
0.66000000000000003 0.54999999999999993 0
0.66000000000000003 0.56000000000000005 0
0.66000000000000003 0.58000000000000007 0
0.68000000000000005 0 0
0.68000000000000005 0.020000000000000004 0
0.68000000000000005 0.040000000000000001 0
0.68000000000000005 0.54999999999999993 0
0.68000000000000005 0.56000000000000005 0
0.68000000000000005 0.58000000000000007 0
0.70000000000000007 0 0
0.70000000000000007 0.020000000000000004 0
0.70000000000000007 0.040000000000000001 0
0.70000000000000007 0.54999999999999993 0
0.70000000000000007 0.56000000000000005 0
0.70000000000000007 0.58000000000000007 0
0.71999999999999997 0 0
0.71999999999999997 0.020000000000000004 0
0.71999999999999997 0.040000000000000001 0
0.71999999999999997 0.54999999999999993 0
0.71999999999999997 0.56000000000000005 0
0.71999999999999997 0.58000000000000007 0
0.73999999999999999 0 0
0.73999999999999999 0.020000000000000004 0
0.73999999999999999 0.040000000000000001 0
0.73999999999999999 0.54999999999999993 0
0.73999999999999999 0.56000000000000005 0
0.73999999999999999 0.58000000000000007 0
0.76000000000000001 0 0
0.76000000000000001 0.020000000000000004 0
0.76000000000000001 0.040000000000000001 0
0.76000000000000001 0.54999999999999993 0
0.76000000000000001 0.56000000000000005 0
0.76000000000000001 0.58000000000000007 0
0.78000000000000003 0 0
0.78000000000000003 0.020000000000000004 0
0.78000000000000003 0.040000000000000001 0
0.78000000000000003 0.54999999999999993 0
0.78000000000000003 0.56000000000000005 0
0.78000000000000003 0.58000000000000007 0
0.80000000000000004 0 0
0.80000000000000004 0.020000000000000004 0
0.80000000000000004 0.040000000000000001 0
0.80000000000000004 0.54999999999999993 0
0.80000000000000004 0.56000000000000005 0
0.80000000000000004 0.58000000000000007 0
0.82000000000000006 0 0
0.82000000000000006 0.020000000000000004 0
0.82000000000000006 0.040000000000000001 0
0.82000000000000006 0.54999999999999993 0
0.82000000000000006 0.56000000000000005 0
0.82000000000000006 0.58000000000000007 0
0.83999999999999997 0 0
0.83999999999999997 0.020000000000000004 0
0.83999999999999997 0.040000000000000001 0
0.83999999999999997 0.54999999999999993 0
0.83999999999999997 0.56000000000000005 0
0.83999999999999997 0.58000000000000007 0
0.85999999999999999 0 0
0.85999999999999999 0.020000000000000004 0
0.85999999999999999 0.040000000000000001 0
0.85999999999999999 0.54999999999999993 0
0.85999999999999999 0.56000000000000005 0
0.85999999999999999 0.58000000000000007 0
0.88 0 0
0.88 0.020000000000000004 0
0.88 0.040000000000000001 0
0.88 0.54999999999999993 0
0.88 0.56000000000000005 0
0.88 0.58000000000000007 0
0.90000000000000002 0 0
0.90000000000000002 0.020000000000000004 0
0.90000000000000002 0.040000000000000001 0
0.90000000000000002 0.54999999999999993 0
0.90000000000000002 0.56000000000000005 0
0.90000000000000002 0.58000000000000007 0
0.92000000000000004 0 0
0.92000000000000004 0.020000000000000004 0
0.92000000000000004 0.040000000000000001 0
0.92000000000000004 0.54999999999999993 0
0.92000000000000004 0.56000000000000005 0
0.92000000000000004 0.58000000000000007 0
0.94000000000000006 0 0
0.94000000000000006 0.020000000000000004 0
0.94000000000000006 0.040000000000000001 0
0.94000000000000006 0.54999999999999993 0
0.94000000000000006 0.56000000000000005 0
0.94000000000000006 0.58000000000000007 0
0.95999999999999996 0 0
0.95999999999999996 0.020000000000000004 0
0.95999999999999996 0.040000000000000001 0
0.95999999999999996 0.54999999999999993 0
0.95999999999999996 0.56000000000000005 0
0.95999999999999996 0.58000000000000007 0
0.97999999999999998 0 0
0.97999999999999998 0.020000000000000004 0
0.97999999999999998 0.040000000000000001 0
0.97999999999999998 0.54999999999999993 0
0.97999999999999998 0.56000000000000005 0
0.97999999999999998 0.58000000000000007 0
1 0 0
1 0.020000000000000004 0
1 0.040000000000000001 0
1 0.54999999999999993 0
1 0.56000000000000005 0
1 0.58000000000000007 0
VERTICES 681 1362
1 0
1 1
1 2
1 3
1 4
1 5
1 6
1 7
1 8
1 9
1 10
1 11
1 12
1 13
1 14
1 15
1 16
1 17
1 18
1 19
1 20
1 21
1 22
1 23
1 24
1 25
1 26
1 27
1 28
1 29
1 30
1 31
1 32
1 33
1 34
1 35
1 36
1 37
1 38
1 39
1 40
1 41
1 42
1 43
1 44
1 45
1 46
1 47
1 48
1 49
1 50
1 51
1 52
1 53
1 54
1 55
1 56
1 57
1 58
1 59
1 60
1 61
1 62
1 63
1 64
1 65
1 66
1 67
1 68
1 69
1 70
1 71
1 72
1 73
1 74
1 75
1 76
1 77
1 78
1 79
1 80
1 81
1 82
1 83
1 84
1 85
1 86
1 87
1 88
1 89
1 90
1 91
1 92
1 93
1 94
1 95
1 96
1 97
1 98
1 99
1 100
1 101
1 102
1 103
1 104
1 105
1 106
1 107
1 108
1 109
1 110
1 111
1 112
1 113
1 114
1 115
1 116
1 117
1 118
1 119
1 120
1 121
1 122
1 123
1 124
1 125
1 126
1 127
1 128
1 129
1 130
1 131
1 132
1 133
1 134
1 135
1 136
1 137
1 138
1 139
1 140
1 141
1 142
1 143
1 144
1 145
1 146
1 147
1 148
1 149
1 150
1 151
1 152
1 153
1 154
1 155
1 156
1 157
1 158
1 159
1 160
1 161
1 162
1 163
1 164
1 165
1 166
1 167
1 168
1 169
1 170
1 171
1 172
1 173
1 174
1 175
1 176
1 177
1 178
1 179
1 180
1 181
1 182
1 183
1 184
1 185
1 186
1 187
1 188
1 189
1 190
1 191
1 192
1 193
1 194
1 195
1 196
1 197
1 198
1 199
1 200
1 201
1 202
1 203
1 204
1 205
1 206
1 207
1 208
1 209
1 210
1 211
1 212
1 213
1 214
1 215
1 216
1 217
1 218
1 219
1 220
1 221
1 222
1 223
1 224
1 225
1 226
1 227
1 228
1 229
1 230
1 231
1 232
1 233
1 234
1 235
1 236
1 237
1 238
1 239
1 240
1 241
1 242
1 243
1 244
1 245
1 246
1 247
1 248
1 249
1 250
1 251
1 252
1 253
1 254
1 255
1 256
1 257
1 258
1 259
1 260
1 261
1 262
1 263
1 264
1 265
1 266
1 267
1 268
1 269
1 270
1 271
1 272
1 273
1 274
1 275
1 276
1 277
1 278
1 279
1 280
1 281
1 282
1 283
1 284
1 285
1 286
1 287
1 288
1 289
1 290
1 291
1 292
1 293
1 294
1 295
1 296
1 297
1 298
1 299
1 300
1 301
1 302
1 303
1 304
1 305
1 306
1 307
1 308
1 309
1 310
1 311
1 312
1 313
1 314
1 315
1 316
1 317
1 318
1 319
1 320
1 321
1 322
1 323
1 324
1 325
1 326
1 327
1 328
1 329
1 330
1 331
1 332
1 333
1 334
1 335
1 336
1 337
1 338
1 339
1 340
1 341
1 342
1 343
1 344
1 345
1 346
1 347
1 348
1 349
1 350
1 351
1 352
1 353
1 354
1 355
1 356
1 357
1 358
1 359
1 360
1 361
1 362
1 363
1 364
1 365
1 366
1 367
1 368
1 369
1 370
1 371
1 372
1 373
1 374
1 375
1 376
1 377
1 378
1 379
1 380
1 381
1 382
1 383
1 384
1 385
1 386
1 387
1 388
1 389
1 390
1 391
1 392
1 393
1 394
1 395
1 396
1 397
1 398
1 399
1 400
1 401
1 402
1 403
1 404
1 405
1 406
1 407
1 408
1 409
1 410
1 411
1 412
1 413
1 414
1 415
1 416
1 417
1 418
1 419
1 420
1 421
1 422
1 423
1 424
1 425
1 426
1 427
1 428
1 429
1 430
1 431
1 432
1 433
1 434
1 435
1 436
1 437
1 438
1 439
1 440
1 441
1 442
1 443
1 444
1 445
1 446
1 447
1 448
1 449
1 450
1 451
1 452
1 453
1 454
1 455
1 456
1 457
1 458
1 459
1 460
1 461
1 462
1 463
1 464
1 465
1 466
1 467
1 468
1 469
1 470
1 471
1 472
1 473
1 474
1 475
1 476
1 477
1 478
1 479
1 480
1 481
1 482
1 483
1 484
1 485
1 486
1 487
1 488
1 489
1 490
1 491
1 492
1 493
1 494
1 495
1 496
1 497
1 498
1 499
1 500
1 501
1 502
1 503
1 504
1 505
1 506
1 507
1 508
1 509
1 510
1 511
1 512
1 513
1 514
1 515
1 516
1 517
1 518
1 519
1 520
1 521
1 522
1 523
1 524
1 525
1 526
1 527
1 528
1 529
1 530
1 531
1 532
1 533
1 534
1 535
1 536
1 537
1 538
1 539
1 540
1 541
1 542
1 543
1 544
1 545
1 546
1 547
1 548
1 549
1 550
1 551
1 552
1 553
1 554
1 555
1 556
1 557
1 558
1 559
1 560
1 561
1 562
1 563
1 564
1 565
1 566
1 567
1 568
1 569
1 570
1 571
1 572
1 573
1 574
1 575
1 576
1 577
1 578
1 579
1 580
1 581
1 582
1 583
1 584
1 585
1 586
1 587
1 588
1 589
1 590
1 591
1 592
1 593
1 594
1 595
1 596
1 597
1 598
1 599
1 600
1 601
1 602
1 603
1 604
1 605
1 606
1 607
1 608
1 609
1 610
1 611
1 612
1 613
1 614
1 615
1 616
1 617
1 618
1 619
1 620
1 621
1 622
1 623
1 624
1 625
1 626
1 627
1 628
1 629
1 630
1 631
1 632
1 633
1 634
1 635
1 636
1 637
1 638
1 639
1 640
1 641
1 642
1 643
1 644
1 645
1 646
1 647
1 648
1 649
1 650
1 651
1 652
1 653
1 654
1 655
1 656
1 657
1 658
1 659
1 660
1 661
1 662
1 663
1 664
1 665
1 666
1 667
1 668
1 669
1 670
1 671
1 672
1 673
1 674
1 675
1 676
1 677
1 678
1 679
1 680
POINT_DATA 681
SCALARS is_boundary int 1
LOOKUP_TABLE default
0
0
0
0
0
0
0
0
0
0
0
0
0
0
0
0
0
0
0
0
0
0
0
0
0
0
0
0
0
0
0
0
0
0
0
0
0
0
0
0
0
0
0
0
0
0
0
0
0
0
0
0
0
0
0
0
0
0
0
0
0
0
0
0
0
0
0
0
0
0
0
0
0
0
0
0
0
0
0
0
0
0
0
0
0
0
0
0
0
0
0
0
0
0
0
0
0
0
0
0
0
0
0
0
0
0
0
0
0
0
0
0
0
0
0
0
0
0
0
0
0
0
0
0
0
0
0
0
0
0
0
0
0
0
0
0
0
0
0
0
0
0
0
0
0
0
0
0
0
0
0
0
0
0
0
0
0
0
0
0
0
0
0
0
0
0
0
0
0
0
0
0
0
0
0
0
0
0
0
0
0
0
0
0
0
0
0
0
0
0
0
0
0
0
0
0
0
0
0
0
0
0
0
0
0
0
0
0
0
0
0
0
0
0
0
0
0
0
0
0
0
0
0
0
0
0
0
0
0
0
0
0
0
0
0
0
0
0
0
0
0
0
0
0
0
0
0
0
0
0
0
0
0
0
0
0
0
0
0
0
0
0
0
0
0
0
0
0
0
0
0
0
0
0
0
0
0
0
0
0
0
0
0
0
0
0
0
0
0
0
0
0
0
0
0
0
0
0
0
0
0
0
0
0
0
0
0
0
0
0
0
0
0
0
0
0
0
0
0
0
0
0
0
0
0
0
0
0
0
0
0
0
0
0
0
0
0
0
0
0
0
0
0
0
0
0
0
0
0
0
0
0
0
0
0
0
0
0
0
0
0
0
0
0
0
0
0
0
0
0
0
0
0
0
0
1
1
1
1
1
1
1
1
1
1
1
1
1
1
1
1
1
1
1
1
1
1
1
1
1
1
1
1
1
1
1
1
1
1
1
1
1
1
1
1
1
1
1
1
1
1
1
1
1
1
1
1
1
1
1
1
1
1
1
1
1
1
1
1
1
1
1
1
1
1
1
1
1
1
1
1
1
1
1
1
1
1
1
1
1
1
1
1
1
1
1
1
1
1
1
1
1
1
1
1
1
1
1
1
1
1
1
1
1
1
1
1
1
1
1
1
1
1
1
1
1
1
1
1
1
1
1
1
1
1
1
1
1
1
1
1
1
1
1
1
1
1
1
1
1
1
1
1
1
1
1
1
1
1
1
1
1
1
1
1
1
1
1
1
1
1
1
1
1
1
1
1
1
1
1
1
1
1
1
1
1
1
1
1
1
1
1
1
1
1
1
1
1
1
1
1
1
1
1
1
1
1
1
1
1
1
1
1
1
1
1
1
1
1
1
1
1
1
1
1
1
1
1
1
1
1
1
1
1
1
1
1
1
1
1
1
1
1
1
1
1
1
1
1
1
1
1
1
1
1
1
1
1
1
1
1
1
1
1
1
1
1
1
1
1
1
1
1
1
1
1
1
1
1
1
1
1
1
1
1
1
1
1
1
1
1
1
1
1
1
1
1
1
1
1
1
1
1
1
1
1
1
1
1
1
1
SCALARS rho float 1
LOOKUP_TABLE default
1020
1020
1020
1020
1020
1020
1020
1020
1020
1020
1020
1020
1020
1020
1020
1020
1020
1020
1020
1020
1020
1020
1020
1020
1020
1020
1020
1020
1020
1020
1020
1020
1020
1020
1020
1020
1020
1020
1020
1020
1020
1020
1020
1020
1020
1020
1020
1020
1020
1020
1020
1020
1020
1020
1020
1020
1020
1020
1020
1020
1020
1020
1020
1020
1020
1020
1020
1020
1020
1020
1020
1020
1020
1020
1020
1020
1020
1020
1020
1020
1020
1020
1020
1020
1020
1020
1020
1020
1020
1020
1020
1020
1020
1020
1020
1020
1020
1020
1020
1020
1020
1020
1020
1020
1020
1020
1020
1020
1020
1020
1020
1020
1020
1020
1020
1020
1020
1020
1020
1020
1020
1020
1020
1020
1020
1020
1020
1020
1020
1020
1020
1020
1020
1020
1020
1020
1020
1020
1020
1020
1020
1020
1020
1020
1020
1020
1020
1020
1020
1020
1020
1020
1020
1020
1020
1020
1020
1020
1020
1020
1020
1020
1020
1020
1020
1020
1020
1020
1020
1020
1020
1020
1020
1020
1020
1020
1020
1020
1020
1020
1020
1020
1020
1020
1020
1020
1020
1020
1020
1020
1020
1020
1020
1020
1020
1020
1020
1020
1020
1020
1020
1020
1020
1020
1020
1020
1020
1020
1020
1020
1020
1020
1020
1020
1020
1020
1020
1020
1020
1020
1020
1020
1020
1020
1020
1020
1020
1020
1020
1020
1020
1020
1020
1020
1020
1020
1020
1020
1020
1020
1020
1020
1020
1020
1020
1020
1020
1020
1020
1020
1020
1020
1020
1020
1020
1020
1020
1020
1020
1020
1020
1020
1020
1020
1020
1020
1020
1020
1020
1020
1020
1020
1020
1020
1020
1020
1020
1020
1020
1020
1020
1020
1020
1020
1020
1020
1020
1020
1020
1020
1020
1020
1020
1020
1020
1020
1020
1020
1020
1020
1020
1020
1020
1020
1020
1020
1020
1020
1020
1020
1020
1020
1020
1020
1020
1020
1020
1020
1020
1020
1020
1020
1020
1020
1020
1020
1020
1020
1020
1020
1020
1020
1020
1020
1020
1020
1020
1020
1020
1020
1020
1020
1020
1020
1020
1020
1020
1020
1020
1020
1020
1020
1020
1020
1020
1020
1020
1020
1020
1020
1020
1020
1020
1020
1020
1020
1020
1020
1020
1020
1020
1020
1020
1020
1020
1000
1000
1000
1000
1000
1000
1000
1000
1000
1000
1000
1000
1000
1000
1000
1000
1000
1000
1000
1000
1000
1000
1000
1000
1000
1000
1000
1000
1000
1000
1000
1000
1000
1000
1000
1000
1000
1000
1000
1000
1000
1000
1000
1000
1000
1000
1000
1000
1000
1000
1000
1000
1000
1000
1000
1000
1000
1000
1000
1000
1000
1000
1000
1000
1000
1000
1000
1000
1000
1000
1000
1000
1000
1000
1000
1000
1000
1000
1000
1000
1000
1000
1000
1000
1000
1000
1000
1000
1000
1000
1000
1000
1000
1000
1000
1000
1000
1000
1000
1000
1000
1000
1000
1000
1000
1000
1000
1000
1000
1000
1000
1000
1000
1000
1000
1000
1000
1000
1000
1000
1000
1000
1000
1000
1000
1000
1000
1000
1000
1000
1000
1000
1000
1000
1000
1000
1000
1000
1000
1000
1000
1000
1000
1000
1000
1000
1000
1000
1000
1000
1000
1000
1000
1000
1000
1000
1000
1000
1000
1000
1000
1000
1000
1000
1000
1000
1000
1000
1000
1000
1000
1000
1000
1000
1000
1000
1000
1000
1000
1000
1000
1000
1000
1000
1000
1000
1000
1000
1000
1000
1000
1000
1000
1000
1000
1000
1000
1000
1000
1000
1000
1000
1000
1000
1000
1000
1000
1000
1000
1000
1000
1000
1000
1000
1000
1000
1000
1000
1000
1000
1000
1000
1000
1000
1000
1000
1000
1000
1000
1000
1000
1000
1000
1000
1000
1000
1000
1000
1000
1000
1000
1000
1000
1000
1000
1000
1000
1000
1000
1000
1000
1000
1000
1000
1000
1000
1000
1000
1000
1000
1000
1000
1000
1000
1000
1000
1000
1000
1000
1000
1000
1000
1000
1000
1000
1000
1000
1000
1000
1000
1000
1000
1000
1000
1000
1000
1000
1000
1000
1000
1000
1000
1000
1000
1000
1000
1000
1000
1000
1000
1000
1000
1000
1000
1000
1000
SCALARS p float 1
LOOKUP_TABLE default
25004.681136676067
25004.681136676067
25004.681136676067
25004.681136676067
25004.681136676067
25004.681136676067
25004.681136676067
25004.681136676067
25004.681136676067
25004.681136676067
25004.681136676067
25004.681136676067
25004.681136676067
25004.681136676067
25004.681136676067
25004.681136676067
25004.681136676067
25004.681136676067
25004.681136676067
25004.681136676067
25004.681136676067
25004.681136676067
25004.681136676067
25004.681136676067
25004.681136676067
25004.681136676067
25004.681136676067
25004.681136676067
25004.681136676067
25004.681136676067
25004.681136676067
25004.681136676067
25004.681136676067
25004.681136676067
25004.681136676067
25004.681136676067
25004.681136676067
25004.681136676067
25004.681136676067
25004.681136676067
25004.681136676067
25004.681136676067
25004.681136676067
25004.681136676067
25004.681136676067
25004.681136676067
25004.681136676067
25004.681136676067
25004.681136676067
25004.681136676067
25004.681136676067
25004.681136676067
25004.681136676067
25004.681136676067
25004.681136676067
25004.681136676067
25004.681136676067
25004.681136676067
25004.681136676067
25004.681136676067
25004.681136676067
25004.681136676067
25004.681136676067
25004.681136676067
25004.681136676067
25004.681136676067
25004.681136676067
25004.681136676067
25004.681136676067
25004.681136676067
25004.681136676067
25004.681136676067
25004.681136676067
25004.681136676067
25004.681136676067
25004.681136676067
25004.681136676067
25004.681136676067
25004.681136676067
25004.681136676067
25004.681136676067
25004.681136676067
25004.681136676067
25004.681136676067
25004.681136676067
25004.681136676067
25004.681136676067
25004.681136676067
25004.681136676067
25004.681136676067
25004.681136676067
25004.681136676067
25004.681136676067
25004.681136676067
25004.681136676067
25004.681136676067
25004.681136676067
25004.681136676067
25004.681136676067
25004.681136676067
25004.681136676067
25004.681136676067
25004.681136676067
25004.681136676067
25004.681136676067
25004.681136676067
25004.681136676067
25004.681136676067
25004.681136676067
25004.681136676067
25004.681136676067
25004.681136676067
25004.681136676067
25004.681136676067
25004.681136676067
25004.681136676067
25004.681136676067
25004.681136676067
25004.681136676067
25004.681136676067
25004.681136676067
25004.681136676067
25004.681136676067
25004.681136676067
25004.681136676067
25004.681136676067
25004.681136676067
25004.681136676067
25004.681136676067
25004.681136676067
25004.681136676067
25004.681136676067
25004.681136676067
25004.681136676067
25004.681136676067
25004.681136676067
25004.681136676067
25004.681136676067
25004.681136676067
25004.681136676067
25004.681136676067
25004.681136676067
25004.681136676067
25004.681136676067
25004.681136676067
25004.681136676067
25004.681136676067
25004.681136676067
25004.681136676067
25004.681136676067
25004.681136676067
25004.681136676067
25004.681136676067
25004.681136676067
25004.681136676067
25004.681136676067
25004.681136676067
25004.681136676067
25004.681136676067
25004.681136676067
25004.681136676067
25004.681136676067
25004.681136676067
25004.681136676067
25004.681136676067
25004.681136676067
25004.681136676067
25004.681136676067
25004.681136676067
25004.681136676067
25004.681136676067
25004.681136676067
25004.681136676067
25004.681136676067
25004.681136676067
25004.681136676067
25004.681136676067
25004.681136676067
25004.681136676067
25004.681136676067
25004.681136676067
25004.681136676067
25004.681136676067
25004.681136676067
25004.681136676067
25004.681136676067
25004.681136676067
25004.681136676067
25004.681136676067
25004.681136676067
25004.681136676067
25004.681136676067
25004.681136676067
25004.681136676067
25004.681136676067
25004.681136676067
25004.681136676067
25004.681136676067
25004.681136676067
25004.681136676067
25004.681136676067
25004.681136676067
25004.681136676067
25004.681136676067
25004.681136676067
25004.681136676067
25004.681136676067
25004.681136676067
25004.681136676067
25004.681136676067
25004.681136676067
25004.681136676067
25004.681136676067
25004.681136676067
25004.681136676067
25004.681136676067
25004.681136676067
25004.681136676067
25004.681136676067
25004.681136676067
25004.681136676067
25004.681136676067
25004.681136676067
25004.681136676067
25004.681136676067
25004.681136676067
25004.681136676067
25004.681136676067
25004.681136676067
25004.681136676067
25004.681136676067
25004.681136676067
25004.681136676067
25004.681136676067
25004.681136676067
25004.681136676067
25004.681136676067
25004.681136676067
25004.681136676067
25004.681136676067
25004.681136676067
25004.681136676067
25004.681136676067
25004.681136676067
25004.681136676067
25004.681136676067
25004.681136676067
25004.681136676067
25004.681136676067
25004.681136676067
25004.681136676067
25004.681136676067
25004.681136676067
25004.681136676067
25004.681136676067
25004.681136676067
25004.681136676067
25004.681136676067
25004.681136676067
25004.681136676067
25004.681136676067
25004.681136676067
25004.681136676067
25004.681136676067
25004.681136676067
25004.681136676067
25004.681136676067
25004.681136676067
25004.681136676067
25004.681136676067
25004.681136676067
25004.681136676067
25004.681136676067
25004.681136676067
25004.681136676067
25004.681136676067
25004.681136676067
25004.681136676067
25004.681136676067
25004.681136676067
25004.681136676067
25004.681136676067
25004.681136676067
25004.681136676067
25004.681136676067
25004.681136676067
25004.681136676067
25004.681136676067
25004.681136676067
25004.681136676067
25004.681136676067
25004.681136676067
25004.681136676067
25004.681136676067
25004.681136676067
25004.681136676067
25004.681136676067
25004.681136676067
25004.681136676067
25004.681136676067
25004.681136676067
25004.681136676067
25004.681136676067
25004.681136676067
25004.681136676067
25004.681136676067
25004.681136676067
25004.681136676067
25004.681136676067
25004.681136676067
25004.681136676067
25004.681136676067
25004.681136676067
25004.681136676067
25004.681136676067
25004.681136676067
25004.681136676067
25004.681136676067
25004.681136676067
25004.681136676067
25004.681136676067
25004.681136676067
25004.681136676067
25004.681136676067
25004.681136676067
25004.681136676067
25004.681136676067
25004.681136676067
25004.681136676067
25004.681136676067
25004.681136676067
25004.681136676067
25004.681136676067
25004.681136676067
25004.681136676067
25004.681136676067
25004.681136676067
25004.681136676067
25004.681136676067
25004.681136676067
25004.681136676067
25004.681136676067
25004.681136676067
25004.681136676067
25004.681136676067
25004.681136676067
25004.681136676067
25004.681136676067
25004.681136676067
25004.681136676067
25004.681136676067
25004.681136676067
25004.681136676067
25004.681136676067
25004.681136676067
25004.681136676067
25004.681136676067
25004.681136676067
25004.681136676067
25004.681136676067
25004.681136676067
25004.681136676067
25004.681136676067
25004.681136676067
25004.681136676067
25004.681136676067
25004.681136676067
25004.681136676067
25004.681136676067
25004.681136676067
25004.681136676067
25004.681136676067
25004.681136676067
25004.681136676067
25004.681136676067
0
0
0
0
0
0
23458.470311619101
24980.342002980397
24991.312550923893
0
0
0
24995.087995677502
25003.877067545625
25004.209029635284
0
0
0
25000.215117923468
25004.27295013906
25004.436918464573
0
0
0
25000.548873346845
25004.280433827513
25004.436892008191
0
0
0
25000.565138839956
25004.280019447007
25004.436079042433
0
0
0
25000.55811311155
25004.279642503654
25004.435953979766
0
0
0
25000.553939250531
25004.279460125839
25004.435929192216
0
0
0
25000.552277289269
25004.279385806429
25004.43592257391
0
0
0
25000.551829896918
25004.279363548096
25004.435921446795
0
0
0
25000.551873748493
25004.279365412895
25004.435923442026
0
0
0
25000.552524653605
25004.279394922138
25004.435925065751
0
0
0
25000.554355575787
25004.279475599022
25004.435934244157
0
0
0
25000.558556011933
25004.279657847597
25004.435960671373
0
0
0
25000.565471308804
25004.28002866574
25004.436080533706
0
0
0
25000.548960161337
25004.280432623844
25004.436889565233
0
0
0
25000.215114176204
25004.272949827297
25004.436921535991
0
0
0
24995.087531114124
25003.877029095358
25004.209011563162
0
0
0
23458.109593402256
24980.338716929604
24991.310002715036
0
0
0
0
0
0
0
0
0
0
0
0
0
0
0
0
0
0
0
0
0
0
0
0
0
0
0
0
0
0
0
0
0
0
0
0
0
0
0
0
0
0
0
0
0
0
0
0
0
0
0
0
0
0
0
0
0
0
0
0
0
0
0
0
0
0
0
0
0
0
0
0
0
0
0
0
0
0
0
0
0
0
0
0
0
0
0
0
0
0
0
0
0
0
0
0
0
0
0
0
0
0
0
0
0
0
0
0
0
0
0
0
0
0
0
0
0
0
0
0
0
0
0
0
0
0
0
0
0
0
0
0
0
0
0
0
0
0
0
0
0
0
0
0
0
0
0
0
0
0
0
0
0
0
0
0
0
0
0
0
0
0
0
0
0
0
0
0
0
0
0
0
0
0
0
0
0
0
0
0
0
0
0
0
0
0
0
0
0
0
0
0
0
0
0
SCALARS m float 1
LOOKUP_TABLE default
0.39965556373580352
0.39965556373580352
0.39965556373580352
0.39965556373580352
0.39965556373580352
0.39965556373580352
0.39965556373580352
0.39965556373580352
0.39965556373580352
0.39965556373580352
0.39965556373580352
0.39965556373580352
0.39965556373580352
0.39965556373580352
0.39965556373580352
0.39965556373580352
0.39965556373580352
0.39965556373580352
0.39965556373580352
0.39965556373580352
0.39965556373580352
0.39965556373580352
0.39965556373580352
0.39965556373580352
0.39965556373580352
0.39965556373580352
0.39965556373580352
0.39965556373580352
0.39965556373580352
0.39965556373580352
0.39965556373580352
0.39965556373580352
0.39965556373580352
0.39965556373580352
0.39965556373580352
0.39965556373580352
0.39965556373580352
0.39965556373580352
0.39965556373580352
0.39965556373580352
0.39965556373580352
0.39965556373580352
0.39965556373580352
0.39965556373580352
0.39965556373580352
0.39965556373580352
0.39965556373580352
0.39965556373580352
0.39965556373580352
0.39965556373580352
0.39965556373580352
0.39965556373580352
0.39965556373580352
0.39965556373580352
0.39965556373580352
0.39965556373580352
0.39965556373580352
0.39965556373580352
0.39965556373580352
0.39965556373580352
0.39965556373580352
0.39965556373580352
0.39965556373580352
0.39965556373580352
0.39965556373580352
0.39965556373580352
0.39965556373580352
0.39965556373580352
0.39965556373580352
0.39965556373580352
0.39965556373580352
0.39965556373580352
0.39965556373580352
0.39965556373580352
0.39965556373580352
0.39965556373580352
0.39965556373580352
0.39965556373580352
0.39965556373580352
0.39965556373580352
0.39965556373580352
0.39965556373580352
0.39965556373580352
0.39965556373580352
0.39965556373580352
0.39965556373580352
0.39965556373580352
0.39965556373580352
0.39965556373580352
0.39965556373580352
0.39965556373580352
0.39965556373580352
0.39965556373580352
0.39965556373580352
0.39965556373580352
0.39965556373580352
0.39965556373580352
0.39965556373580352
0.39965556373580352
0.39965556373580352
0.39965556373580352
0.39965556373580352
0.39965556373580352
0.39965556373580352
0.39965556373580352
0.39965556373580352
0.39965556373580352
0.39965556373580352
0.39965556373580352
0.39965556373580352
0.39965556373580352
0.39965556373580352
0.39965556373580352
0.39965556373580352
0.39965556373580352
0.39965556373580352
0.39965556373580352
0.39965556373580352
0.39965556373580352
0.39965556373580352
0.39965556373580352
0.39965556373580352
0.39965556373580352
0.39965556373580352
0.39965556373580352
0.39965556373580352
0.39965556373580352
0.39965556373580352
0.39965556373580352
0.39965556373580352
0.39965556373580352
0.39965556373580352
0.39965556373580352
0.39965556373580352
0.39965556373580352
0.39965556373580352
0.39965556373580352
0.39965556373580352
0.39965556373580352
0.39965556373580352
0.39965556373580352
0.39965556373580352
0.39965556373580352
0.39965556373580352
0.39965556373580352
0.39965556373580352
0.39965556373580352
0.39965556373580352
0.39965556373580352
0.39965556373580352
0.39965556373580352
0.39965556373580352
0.39965556373580352
0.39965556373580352
0.39965556373580352
0.39965556373580352
0.39965556373580352
0.39965556373580352
0.39965556373580352
0.39965556373580352
0.39965556373580352
0.39965556373580352
0.39965556373580352
0.39965556373580352
0.39965556373580352
0.39965556373580352
0.39965556373580352
0.39965556373580352
0.39965556373580352
0.39965556373580352
0.39965556373580352
0.39965556373580352
0.39965556373580352
0.39965556373580352
0.39965556373580352
0.39965556373580352
0.39965556373580352
0.39965556373580352
0.39965556373580352
0.39965556373580352
0.39965556373580352
0.39965556373580352
0.39965556373580352
0.39965556373580352
0.39965556373580352
0.39965556373580352
0.39965556373580352
0.39965556373580352
0.39965556373580352
0.39965556373580352
0.39965556373580352
0.39965556373580352
0.39965556373580352
0.39965556373580352
0.39965556373580352
0.39965556373580352
0.39965556373580352
0.39965556373580352
0.39965556373580352
0.39965556373580352
0.39965556373580352
0.39965556373580352
0.39965556373580352
0.39965556373580352
0.39965556373580352
0.39965556373580352
0.39965556373580352
0.39965556373580352
0.39965556373580352
0.39965556373580352
0.39965556373580352
0.39965556373580352
0.39965556373580352
0.39965556373580352
0.39965556373580352
0.39965556373580352
0.39965556373580352
0.39965556373580352
0.39965556373580352
0.39965556373580352
0.39965556373580352
0.39965556373580352
0.39965556373580352
0.39965556373580352
0.39965556373580352
0.39965556373580352
0.39965556373580352
0.39965556373580352
0.39965556373580352
0.39965556373580352
0.39965556373580352
0.39965556373580352
0.39965556373580352
0.39965556373580352
0.39965556373580352
0.39965556373580352
0.39965556373580352
0.39965556373580352
0.39965556373580352
0.39965556373580352
0.39965556373580352
0.39965556373580352
0.39965556373580352
0.39965556373580352
0.39965556373580352
0.39965556373580352
0.39965556373580352
0.39965556373580352
0.39965556373580352
0.39965556373580352
0.39965556373580352
0.39965556373580352
0.39965556373580352
0.39965556373580352
0.39965556373580352
0.39965556373580352
0.39965556373580352
0.39965556373580352
0.39965556373580352
0.39965556373580352
0.39965556373580352
0.39965556373580352
0.39965556373580352
0.39965556373580352
0.39965556373580352
0.39965556373580352
0.39965556373580352
0.39965556373580352
0.39965556373580352
0.39965556373580352
0.39965556373580352
0.39965556373580352
0.39965556373580352
0.39965556373580352
0.39965556373580352
0.39965556373580352
0.39965556373580352
0.39965556373580352
0.39965556373580352
0.39965556373580352
0.39965556373580352
0.39965556373580352
0.39965556373580352
0.39965556373580352
0.39965556373580352
0.39965556373580352
0.39965556373580352
0.39965556373580352
0.39965556373580352
0.39965556373580352
0.39965556373580352
0.39965556373580352
0.39965556373580352
0.39965556373580352
0.39965556373580352
0.39965556373580352
0.39965556373580352
0.39965556373580352
0.39965556373580352
0.39965556373580352
0.39965556373580352
0.39965556373580352
0.39965556373580352
0.39965556373580352
0.39965556373580352
0.39965556373580352
0.39965556373580352
0.39965556373580352
0.39965556373580352
0.39965556373580352
0.39965556373580352
0.39965556373580352
0.39965556373580352
0.39965556373580352
0.39965556373580352
0.39965556373580352
0.39965556373580352
0.39965556373580352
0.39965556373580352
0.39965556373580352
0.39965556373580352
0.39965556373580352
0.39965556373580352
0.39965556373580352
0.39965556373580352
0.39965556373580352
0.39965556373580352
0.39965556373580352
0.39965556373580352
0.39965556373580352
0.39965556373580352
0.39965556373580352
0.39965556373580352
0.39965556373580352
0.39965556373580352
0.39965556373580352
0.39965556373580352
0.39965556373580352
0.39965556373580352
0.39965556373580352
0.39965556373580352
0.39965556373580352
0.39965556373580352
0.39965556373580352
0.39965556373580352
0.39965556373580352
0.39965556373580352
0.39965556373580352
0.39965556373580352
0.39965556373580352
0.39965556373580352
0.39965556373580352
0.39965556373580352
0.39965556373580352
0.39965556373580352
0.39965556373580352
0.39965556373580352
0.39965556373580352
0.39965556373580352
0.39965556373580352
0.39965556373580352
0.39965556373580352
0.39965556373580352
0.39965556373580352
0.39965556373580352
0.39965556373580352
0.39965556373580352
0.39965556373580352
0.39965556373580352
0.39965556373580352
0.39965556373580352
0.39965556373580352
0.39965556373580352
0.39965556373580352
0.39965556373580352
0.39965556373580352
0.39965556373580352
0.39965556373580352
0.39965556373580352
0.39965556373580352
0.39965556373580352
0.39965556373580352
0.39965556373580352
0.39965556373580352
0.39965556373580352
0.39965556373580352
0.39965556373580352
0.39965556373580352
0.39965556373580352
0.39965556373580352
0.39965556373580352
0.39965556373580352
0.39965556373580352
0.39965556373580352
0.39965556373580352
0.39965556373580352
0.39965556373580352
0.39965556373580352
0.39965556373580352
0.39965556373580352
0.39965556373580352
0.39965556373580352
0.39965556373580352
0.39965556373580352
0.39965556373580352
0.39965556373580352
0.39965556373580352
0.39965556373580352
0.39965556373580352
0.39965556373580352
0.39965556373580352
0.39965556373580352
0.39965556373580352
0.39965556373580352
0.39965556373580352
0.39965556373580352
0.39965556373580352
0.39965556373580352
0.39965556373580352
0.39965556373580352
0.39965556373580352
0.39965556373580352
0.39965556373580352
0.39965556373580352
0.39965556373580352
0.39965556373580352
0.39965556373580352
0.39965556373580352
0.39965556373580352
0.39965556373580352
0.39965556373580352
0.39965556373580352
0.39965556373580352
0.39965556373580352
0.39965556373580352
0.39965556373580352
0.39965556373580352
0.39965556373580352
0.39965556373580352
0.39965556373580352
0.39965556373580352
0.39965556373580352
0.39965556373580352
0.39965556373580352
0.39965556373580352
0.39965556373580352
0.39965556373580352
0.39965556373580352
0.39965556373580352
0.39965556373580352
0.39965556373580352
0.39965556373580352
0.39965556373580352
0.39965556373580352
0.39965556373580352
0.39965556373580352
0.39965556373580352
0.39965556373580352
0.39965556373580352
0.39965556373580352
0.39965556373580352
0.39965556373580352
0.39965556373580352
0.39965556373580352
0.39965556373580352
0.39965556373580352
0.39965556373580352
0.39965556373580352
0.39965556373580352
0.39965556373580352
0.39965556373580352
0.39965556373580352
0.39965556373580352
0.39965556373580352
0.39965556373580352
0.39965556373580352
0.39965556373580352
0.39965556373580352
0.39965556373580352
0.39965556373580352
0.39965556373580352
0.39965556373580352
0.39965556373580352
0.39965556373580352
0.39965556373580352
0.39965556373580352
0.39965556373580352
0.39965556373580352
0.39965556373580352
0.39965556373580352
0.39965556373580352
0.39965556373580352
0.39965556373580352
0.39965556373580352
0.39965556373580352
0.39965556373580352
0.39965556373580352
0.39965556373580352
0.39965556373580352
0.39965556373580352
0.39965556373580352
0.39965556373580352
0.39965556373580352
0.39965556373580352
0.39965556373580352
0.39965556373580352
0.39965556373580352
0.39965556373580352
0.39965556373580352
0.39965556373580352
0.39965556373580352
0.39965556373580352
0.39965556373580352
0.39965556373580352
0.39965556373580352
0.39965556373580352
0.39965556373580352
0.39965556373580352
0.39965556373580352
0.39965556373580352
0.39965556373580352
0.39965556373580352
0.39965556373580352
0.39965556373580352
0.39965556373580352
0.39965556373580352
0.39965556373580352
0.39965556373580352
0.39965556373580352
0.39965556373580352
0.39965556373580352
0.39965556373580352
0.39965556373580352
0.39965556373580352
0.39965556373580352
0.39965556373580352
0.39965556373580352
0.39965556373580352
0.39965556373580352
0.39965556373580352
0.39965556373580352
0.39965556373580352
0.39965556373580352
0.39965556373580352
0.39965556373580352
0.39965556373580352
0.39965556373580352
0.39965556373580352
0.39965556373580352
0.39965556373580352
0.39965556373580352
0.39965556373580352
0.39965556373580352
0.39965556373580352
0.39965556373580352
0.39965556373580352
0.39965556373580352
0.39965556373580352
0.39965556373580352
0.39965556373580352
0.39965556373580352
0.39965556373580352
0.39965556373580352
0.39965556373580352
0.39965556373580352
0.39965556373580352
0.39965556373580352
0.39965556373580352
0.39965556373580352
0.39965556373580352
0.39965556373580352
0.39965556373580352
0.39965556373580352
0.39965556373580352
0.39965556373580352
0.39965556373580352
0.39965556373580352
0.39965556373580352
0.39965556373580352
0.39965556373580352
0.39965556373580352
0.39965556373580352
0.39965556373580352
0.39965556373580352
0.39965556373580352
0.39965556373580352
0.39965556373580352
0.39965556373580352
0.39965556373580352
0.39965556373580352
0.39965556373580352
0.39965556373580352
0.39965556373580352
0.39965556373580352
0.39965556373580352
0.39965556373580352
0.39965556373580352
0.39965556373580352
0.39965556373580352
0.39965556373580352
0.39965556373580352
0.39965556373580352
0.39965556373580352
0.39965556373580352
0.39965556373580352
0.39965556373580352
0.39965556373580352
0.39965556373580352
0.39965556373580352
0.39965556373580352
0.39965556373580352
0.39965556373580352
0.39965556373580352
0.39965556373580352
0.39965556373580352
0.39965556373580352
0.39965556373580352
0.39965556373580352
0.39965556373580352
0.39965556373580352
0.39965556373580352
0.39965556373580352
0.39965556373580352
0.39965556373580352
0.39965556373580352
0.39965556373580352
0.39965556373580352
0.39965556373580352
0.39965556373580352
0.39965556373580352
0.39965556373580352
0.39965556373580352
0.39965556373580352
0.39965556373580352
0.39965556373580352
0.39965556373580352
0.39965556373580352
0.39965556373580352
0.39965556373580352
0.39965556373580352
0.39965556373580352
0.39965556373580352
0.39965556373580352
0.39965556373580352
0.39965556373580352
0.39965556373580352
0.39965556373580352
0.39965556373580352
0.39965556373580352
0.39965556373580352
0.39965556373580352
0.39965556373580352
0.39965556373580352
0.39965556373580352
0.39965556373580352
0.39965556373580352
0.39965556373580352
0.39965556373580352
0.39965556373580352
0.39965556373580352
0.39965556373580352
0.39965556373580352
0.39965556373580352
0.39965556373580352
0.39965556373580352
0.39965556373580352
0.39965556373580352
0.39965556373580352
0.39965556373580352
0.39965556373580352
0.39965556373580352
0.39965556373580352
0.39965556373580352
0.39965556373580352
0.39965556373580352
0.39965556373580352
0.39965556373580352
0.39965556373580352
0.39965556373580352
0.39965556373580352
0.39965556373580352
VECTORS v float
-2.0841667860004373e-05 -0.037601727886586632 0
-2.1955265216230663e-05 -0.038152184490511581 0
-2.2753422878133081e-05 -0.038579295045431082 0
-2.3478585998939489e-05 -0.039002489488245501 0
-2.4144290523609596e-05 -0.03943688912061117 0
-2.4765920706386566e-05 -0.03989527874748431 0
-2.5356040045562633e-05 -0.04038612620247059 0
-2.5916363900637607e-05 -0.040916228601937263 0
-2.6447077741051111e-05 -0.041492121907431359 0
-2.6937567119296572e-05 -0.042120401984894001 0
-2.7366773055732725e-05 -0.04280818550187479 0
-2.7755906634851417e-05 -0.043562702904255152 0
-2.807211484221888e-05 -0.044393829566268084 0
-2.834992502816665e-05 -0.045319394919876008 0
-2.8605012113661916e-05 -0.046358850207287979 0
-2.8850921035247663e-05 -0.047533662906257761 0
-2.9108174949411887e-05 -0.048871616569082559 0
-2.9392947114294092e-05 -0.050407922658012645 0
-2.9706867404580203e-05 -0.052189653058533424 0
-3.0067571550977301e-05 -0.054268317685100105 0
-3.0490063965006599e-05 -0.056742914175867257 0
-3.0981818905507492e-05 -0.059757720961894779 0
-3.1584213957936628e-05 -0.06355003033075389 0
-3.2325533235824894e-05 -0.06861571246756594 0
-3.3434233416375494e-05 -0.076639932493286364 0
-1.2079998158082918e-05 -0.037821568552087396 0
-1.2915605927435181e-05 -0.038418905802171902 0
-1.3497311794070647e-05 -0.038883376445384851 0
-1.3976881401719405e-05 -0.039329629885511946 0
-1.4393900460026234e-05 -0.039778122275845422 0
-1.4774347027927168e-05 -0.040246441809064122 0
-1.5073813226753986e-05 -0.04074608563410792 0
-1.5357827146929372e-05 -0.041285341176211916 0
-1.5626254365969967e-05 -0.041872053563678208 0
-1.5818963582900279e-05 -0.042512992180531631 0
-1.598882186295451e-05 -0.043215711492205613 0
-1.6212201060382695e-05 -0.043987683369044836 0
-1.6579710032761605e-05 -0.044839284954494629 0
-1.6854557005970747e-05 -0.04578883935288152 0
-1.7112563487449499e-05 -0.046855536731165909 0
-1.7311062705060146e-05 -0.0480610264097363 0
-1.7621693766110593e-05 -0.049432836703036998 0
-1.7842368080220477e-05 -0.051006320953931927 0
-1.8100060348338576e-05 -0.052824986151386595 0
-1.8328026393766026e-05 -0.054945544908281033 0
-1.8614517291635361e-05 -0.057458785410138713 0
-1.894181515006862e-05 -0.060501445681209617 0
-1.9186893782869441e-05 -0.064304198358705308 0
-1.9558523433428096e-05 -0.06940807262754918 0
-1.9955303518488491e-05 -0.07769052362251011 0
-4.7832067229101096e-06 -0.037900876407672007 0
-5.1343819214679276e-06 -0.038503081857275211 0
-5.3759384871559354e-06 -0.038972091547434043 0
-5.5990286294765404e-06 -0.03942323350878757 0
-5.8003015852180986e-06 -0.039876819101503959 0
-5.9366302153339453e-06 -0.04035100311387297 0
-6.1633775908086924e-06 -0.040857497263113642 0
-6.2130929745733286e-06 -0.041405139189286441 0
-6.3630946081511226e-06 -0.042001366934835443 0
-6.4792179839508913e-06 -0.042653773044140128 0
-6.5860334387936687e-06 -0.04336999399830866 0
-6.6610001392841211e-06 -0.04415855178422861 0
-6.7842273891855167e-06 -0.045029713921812667 0
-7.0834914401269722e-06 -0.046003085675614487 0
-7.2029114771973215e-06 -0.047097625364479652 0
-7.3226425182593609e-06 -0.048336248829203232 0
-7.4931970908872559e-06 -0.049746672738618353 0
-7.6554777624215626e-06 -0.051364617833861786 0
-7.8956925758014943e-06 -0.053234634172335038 0
-8.070592345704844e-06 -0.055416568103876254 0
-8.2746764406871375e-06 -0.057999213997749023 0
-8.5827177083070125e-06 -0.061119187154004717 0
-8.8282712879359269e-06 -0.065004591981299667 0
-9.0874811996272176e-06 -0.070199207448159939 0
-9.3816811462664506e-06 -0.07859157600209847 0
-2.1523978220894931e-06 -0.037944422051115048 0
-2.3219949833016997e-06 -0.038550963840732339 0
-2.4088231043725917e-06 -0.039023477478947924 0
-2.5424667636003986e-06 -0.039478101579406157 0
-2.6374792218133325e-06 -0.039935440595014804 0
-2.7008235176013571e-06 -0.040413696012683686 0
-2.6864236534997579e-06 -0.040924559958551328 0
-2.7803577844018208e-06 -0.041477033783822524 0
-2.8334077222331951e-06 -0.042078502288429624 0
-2.8969904342965774e-06 -0.042736784491667956 0
-2.9522282661310844e-06 -0.043459713965236589 0
-3.1363177947102883e-06 -0.044255721746032192 0
-3.1796012097623051e-06 -0.045135413268452051 0
-3.031932822528538e-06 -0.046117965012599779 0
-3.1255199132934271e-06 -0.04722371191168586 0
-3.1978692443365272e-06 -0.048475473270842423 0
-3.2843450322032061e-06 -0.049900896708749462 0
-3.3494636592920162e-06 -0.05153540305472816 0
-3.4145024380869007e-06 -0.053424176536159468 0
-3.5339468330133201e-06 -0.055627270728183277 0
-3.6227880930985584e-06 -0.058233772738644086 0
-3.8058471253056055e-06 -0.061380048365171663 0
-3.9119673843754747e-06 -0.065293796876410154 0
-4.0224415484179144e-06 -0.070520025871566888 0
-4.1198828399568163e-06 -0.07895168444041456 0
-1.0094648910508379e-06 -0.037968694846415303 0
-1.0572025826232778e-06 -0.038577547930704309 0
-1.1211311624426329e-06 -0.039051983715740445 0
-1.1628505772668231e-06 -0.039508316284729873 0
-1.204708100969309e-06 -0.039967539918114137 0
-1.2619267622788784e-06 -0.040447713925644863 0
-1.2808089030044576e-06 -0.040961686544793541 0
-1.300648598160493e-06 -0.041515425066999526 0
-1.398401683689206e-06 -0.042119435688581924 0
-1.4206090911105209e-06 -0.042779887125254129 0
-1.4916014289055512e-06 -0.04350550902320896 0
-1.5787550396818603e-06 -0.044304160051889294 0
-1.5325972699367122e-06 -0.045187254299506638 0
-1.5501124865667683e-06 -0.046173668935999515 0
-1.6660825091317426e-06 -0.047282776742719392 0
-1.7349647362092818e-06 -0.048539249736438944 0
-1.7911684215104242e-06 -0.049970615639000633 0
-1.8157468382198884e-06 -0.051611194369837944 0
-1.8925157720102035e-06 -0.053506485950224489 0
-1.9537524148311589e-06 -0.055716028290252205 0
-1.9451070756447549e-06 -0.058330321533888958 0
-2.0816930453176852e-06 -0.061485275895480015 0
-2.1321416030793298e-06 -0.065408196802606455 0
-2.1770509848491141e-06 -0.070644551012224874 0
-2.1808299718559932e-06 -0.079089168587255676 0
-7.8465803048110051e-08 -0.037980251028447147 0
-8.1478791363817956e-08 -0.038590496299809283 0
-7.4764558431218696e-08 -0.039065782348668879 0
-7.4672456457287606e-08 -0.039523034499199652 0
-5.6276873098994995e-08 -0.039983118306392743 0
-7.312730674546278e-08 -0.040464253930238357 0
-1.4473304981162347e-07 -0.040978057090534051 0
-1.5787651750937343e-07 -0.041533541112525253 0
-1.35325345606065e-07 -0.042138607300649375 0
-1.0791184935460712e-07 -0.042800206067474852 0
-1.0411194465191906e-07 -0.04352708109958893 0
-2.0125653535157327e-07 -0.044327050617026749 0
-1.9819654843280449e-07 -0.045211196891527243 0
-2.0012741477491762e-07 -0.046199137048562107 0
-2.4984286832621885e-07 -0.047310290210319711 0
-5.1340479188842622e-07 -0.048567983341572613 0
-5.4231107894274326e-07 -0.050000189086962597 0
-5.8624020685350464e-07 -0.051642421106564279 0
-6.1265081266954413e-07 -0.053540324619766516 0
-6.728224767997585e-07 -0.055752667052456767 0
-6.6037194775590803e-07 -0.058369883420571048 0
-7.6654879638065022e-07 -0.061527709764746814 0
-8.1892458232685384e-07 -0.065453774963934119 0
-8.846946126283712e-07 -0.070694126798846554 0
-9.5012459522517469e-07 -0.079142534058952982 0
-2.3371128852107226e-07 -0.037984571502623438 0
-2.5501666888958513e-07 -0.038595343198908089 0
-2.8333094346704006e-07 -0.039071032352612618 0
-2.8545050489307457e-07 -0.039528671869351613 0
-3.5837832309824281e-07 -0.039989066582509114 0
-3.9598451325360774e-07 -0.040470581890565543 0
-3.6525584380090431e-07 -0.040984642190795582 0
-2.997610269689321e-07 -0.041540555715615053 0
-3.3191490642888647e-07 -0.042145804602546778 0
-3.7175058694576738e-07 -0.042807844362380096 0
-4.1064010148180184e-07 -0.043535390661751348 0
-5.8444368814406839e-07 -0.04433562952125062 0
-5.8439790399636166e-07 -0.045220236457435649 0
-5.5029141292613823e-07 -0.046209214033332044 0
-5.9833764748794459e-07 -0.047321322412004457 0
-5.5712496870793094e-07 -0.048580177734791105 0
-4.7020656376077582e-07 -0.050013325671215303 0
-5.1136722986905984e-07 -0.051655660874654077 0
-4.9365228837144922e-07 -0.053553723335357607 0
-4.8891845963125197e-07 -0.055767421627922933 0
-4.8376904497258755e-07 -0.058385411469906355 0
-5.1711888312626062e-07 -0.061544458578060061 0
-5.3662160563198239e-07 -0.065472110555720484 0
-5.5549332216223459e-07 -0.070715723355705751 0
-6.0211825227824911e-07 -0.079163553772853099 0
-3.9613391160541906e-07 -0.037986428893915951 0
-4.1953068354689459e-07 -0.038597132440578337 0
-4.5832351097386784e-07 -0.039072852790637817 0
-4.7181877025805736e-07 -0.039530619525069047 0
-4.8837136895287475e-07 -0.039991285144228575 0
-5.126347113477877e-07 -0.040472786968653363 0
-5.2774505381868868e-07 -0.040987005733952378 0
-5.7082350272570884e-07 -0.041542832851229068 0
-5.7865220730485544e-07 -0.04214804680902709 0
-6.1352029246938209e-07 -0.042810201161001579 0
-7.2673848815444251e-07 -0.043537725779601563 0
-5.0119036189074582e-07 -0.044338099447266424 0
-4.9856930498968983e-07 -0.045222780552155159 0
-4.952435566802553e-07 -0.046211586222637407 0
-6.0552738902667667e-07 -0.047323781143299701 0
-5.2263435706669346e-07 -0.048582609044501429 0
-4.6731351395504474e-07 -0.050014686274638349 0
-4.6096992354649048e-07 -0.051658065202221874 0
-4.7384834694605142e-07 -0.053556168253198012 0
-4.6203969518697128e-07 -0.055769572085378354 0
-4.195042681555028e-07 -0.058387265154448566 0
-3.7433551255549429e-07 -0.061545534299046155 0
-3.3707242310754813e-07 -0.065470509881036823 0
-3.110158848345897e-07 -0.070714981876033894 0
-3.1046056089288407e-07 -0.079164547369433902 0
2.243204926537548e-07 -0.037984808010407822 0
3.0319404923935846e-07 -0.0385953736161921 0
2.9285602579654017e-07 -0.039071195057744174 0
3.2251000859611312e-07 -0.039528776196136178 0
3.7255195270087468e-07 -0.039989096455202149 0
4.4195232602718074e-07 -0.040470309545030524 0
4.9503242070954372e-07 -0.040984454534248982 0
5.1935794394478983e-07 -0.041540407538811462 0
5.5837096027309955e-07 -0.042145538725902758 0
3.8864228251872725e-07 -0.042807641509472985 0
6.2823614101526904e-07 -0.043534772761270345 0
5.1047405490808595e-07 -0.044335041582861549 0
5.8113869246113913e-07 -0.045219927744437741 0
5.8000892530072818e-07 -0.046208687497400869 0
5.6259194161571334e-07 -0.047320638987816362 0
4.6709430812790721e-07 -0.048579147332050286 0
3.4685095053836124e-07 -0.050011639567846766 0
3.1281720448684477e-07 -0.051654288926375469 0
2.2377373177640388e-07 -0.053552194850168391 0
1.9128255120830885e-07 -0.055765465284366211 0
1.5867706013181311e-07 -0.058382809430879819 0
1.5294460022535015e-07 -0.06154038622936199 0
1.0939808578772553e-07 -0.065464954341477283 0
8.6037073400052395e-08 -0.07070885233318186 0
3.3948266541520729e-08 -0.079158799657931739 0
3.6786371661196801e-07 -0.037978991661229616 0
3.1969143766361389e-07 -0.038589099254020584 0
3.4130618242984116e-07 -0.039064241302776963 0
3.5980771323871004e-07 -0.039521462321233408 0
4.0712288332682521e-07 -0.039981486829464292 0
4.1052341166737423e-07 -0.040462656697749261 0
4.7130530212179975e-07 -0.040976586135534551 0
4.1695040278311834e-07 -0.041532016485482506 0
4.1458005167462836e-07 -0.042136811699000888 0
4.3979355801058859e-07 -0.042798298300448158 0
4.7156123846337468e-07 -0.043524963222773647 0
4.3992730914543331e-07 -0.044325204005091184 0
4.3817049236798721e-07 -0.045210025971493317 0
3.3373299822091628e-07 -0.046198155148650791 0
3.5039644567241968e-07 -0.047309228116530454 0
3.8744095789697344e-07 -0.048567368882803212 0
3.672566302885535e-07 -0.049999084116256635 0
3.6216986413024503e-07 -0.051641138703642009 0
3.6729935784945346e-07 -0.053538298304579533 0
4.0001361038622057e-07 -0.05575056915034584 0
4.0834589744748933e-07 -0.058366945572489545 0
4.1700004896748188e-07 -0.061524179596767641 0
4.5869642394987137e-07 -0.065450609315914191 0
4.594810011768742e-07 -0.070690166698823831 0
4.9880802111233687e-07 -0.079138708121431589 0
4.7936109581174569e-07 -0.03796765533649793 0
4.5418568094811152e-07 -0.038576393408687966 0
5.2972689830183198e-07 -0.03905070393627836 0
4.5149024546742329e-07 -0.039507171283855183 0
4.9429184682749649e-07 -0.039966360378700438 0
4.5764900176240965e-07 -0.040446571264312614 0
4.263353479178494e-07 -0.040959493368501444 0
4.1031549421721117e-07 -0.041514000433803003 0
5.3548712130707948e-07 -0.042117809547982374 0
4.5649635691963776e-07 -0.042778576924555112 0
4.231730278499709e-07 -0.043504120253301609 0
4.5683101111902e-07 -0.044302836794374585 0
5.5278170880455748e-07 -0.045185673438226499 0
5.9141421568765286e-07 -0.046172198179765929 0
9.2328585054983506e-07 -0.047281796946958665 0
8.7605791417615106e-07 -0.048537537229506607 0
8.9468721085741383e-07 -0.049967008173133022 0
9.7265115651133206e-07 -0.051607427346439513 0
1.0274341828934652e-06 -0.053502295703998067 0
1.155296916595032e-06 -0.055711101680088332 0
1.2303801954206194e-06 -0.058324111121070416 0
1.2919379986037294e-06 -0.061478181421671114 0
1.3662578792570043e-06 -0.065406990852301158 0
1.4247295248606529e-06 -0.070640810173248816 0
1.5251078283198642e-06 -0.079084654400140897 0
1.4421222232428922e-06 -0.037943827158538897 0
1.5708760402832641e-06 -0.038550194885972361 0
1.6637661093139446e-06 -0.039022520082320294 0
1.7194017833883038e-06 -0.03947718393239058 0
1.7774422582028721e-06 -0.039934525784956536 0
1.8264085908064315e-06 -0.040412817257774944 0
1.9050294396842854e-06 -0.040923458849431577 0
1.9133811880090333e-06 -0.041475939076121654 0
1.9634044106243004e-06 -0.04207752018442952 0
2.0259456607033694e-06 -0.042735762533931312 0
2.091139985195573e-06 -0.043458783231477192 0
2.1002885940341227e-06 -0.044254480374987755 0
2.2245838246948046e-06 -0.045133868286086287 0
2.4966774573757654e-06 -0.046116722392260383 0
2.5682264278077985e-06 -0.047222523107145288 0
2.5747294710198917e-06 -0.048474042078213472 0
2.6604696555730533e-06 -0.04989874415135552 0
2.7548736334632254e-06 -0.051532944898201663 0
2.8760995647892585e-06 -0.053421320969625603 0
2.9456229151465638e-06 -0.055623720873924455 0
3.0513957649646935e-06 -0.058229091218707944 0
3.2003496341647334e-06 -0.061374308200597139 0
3.1807231035608624e-06 -0.065290952645213382 0
3.3329750716059267e-06 -0.070516832836252596 0
3.5087199556902264e-06 -0.078947729006192513 0
4.4099874721007821e-06 -0.037900730934433517 0
4.7750767224834715e-06 -0.038502894748716522 0
5.046559079723436e-06 -0.038971818559167502 0
5.2501781101120952e-06 -0.039422901921751734 0
5.4768176278533174e-06 -0.03987655073832283 0
5.6259581402884971e-06 -0.040350709242906735 0
5.7990130737504773e-06 -0.040856981258613048 0
5.9425658257525037e-06 -0.041404774580198089 0
6.0807233584358919e-06 -0.042000956404034603 0
6.1491921119045586e-06 -0.042653245090369191 0
6.2909545493577602e-06 -0.043369593329071102 0
6.4468059053127292e-06 -0.044157938724427748 0
6.4751916865469317e-06 -0.04502898153941725 0
6.6679947053684696e-06 -0.046002228265895201 0
6.8272209388866808e-06 -0.047096847520511832 0
6.9238806012503958e-06 -0.048335602795384909 0
7.065011925072075e-06 -0.049745918480377467 0
7.2118649875322464e-06 -0.051363531509606944 0
7.3727972641243472e-06 -0.053233376779687952 0
7.5198156429082541e-06 -0.055415299671128529 0
7.703050776594857e-06 -0.057997665431315695 0
7.8986617123202897e-06 -0.061117162111236856 0
8.1039153361500987e-06 -0.065002897664259721 0
8.3401479302739347e-06 -0.070197445432603464 0
8.7019957008327909e-06 -0.0785896174506963 0
1.2029432113220302e-05 -0.037821418788579697 0
1.291095931490233e-05 -0.038418574631365394 0
1.3428621152132097e-05 -0.038883007273364828 0
1.3941094146119583e-05 -0.039329182011128012 0
1.435941416682836e-05 -0.039777758335232054 0
1.4748469977286458e-05 -0.040246022878901701 0
1.5038476749357014e-05 -0.040745652244002152 0
1.5240160278882517e-05 -0.041285333698521283 0
1.561324349326907e-05 -0.041871976739733439 0
1.5786741194358826e-05 -0.042512995095357858 0
1.5947552640352658e-05 -0.043215723727800595 0
1.6128007534696386e-05 -0.043988191028219624 0
1.6366999632308108e-05 -0.044840066072863942 0
1.665453124209405e-05 -0.045789835929360131 0
1.692844675806549e-05 -0.046857023907040302 0
1.7147458563216953e-05 -0.048063042889005828 0
1.7393770199276306e-05 -0.049434737963674924 0
1.7669383939048997e-05 -0.051007328359044007 0
1.7901023077013929e-05 -0.05282524272227998 0
1.8139235301442404e-05 -0.054947605613549715 0
1.8413657045350773e-05 -0.05746092577281757 0
1.8667138853979034e-05 -0.060501421151204056 0
1.899917056518225e-05 -0.06430487877479503 0
1.9247441680242318e-05 -0.069408463763920222 0
1.9519323164291514e-05 -0.07769040515182965 0
2.0571919198882933e-05 -0.037601767265688285 0
2.1634179307812176e-05 -0.038152232702363655 0
2.238935438278186e-05 -0.03857934593582138 0
2.3070759305319322e-05 -0.039002537710857675 0
2.3694975764956963e-05 -0.039436892563200827 0
2.4372707258184184e-05 -0.039895277236671259 0
2.4825965948780483e-05 -0.040386218184774468 0
2.5353270529374624e-05 -0.040916674443831978 0
2.5982284322415756e-05 -0.041492571487155502 0
2.6415821485385308e-05 -0.04212085304353079 0
2.6735700703688785e-05 -0.042808723830194934 0
2.6997603210818415e-05 -0.043563359058764121 0
2.7378311619065026e-05 -0.044394666639961534 0
2.7653306617516663e-05 -0.045320459450378575 0
2.7884587136998596e-05 -0.046360162657368906 0
2.8131020143913703e-05 -0.047535446369131651 0
2.8399006974267501e-05 -0.048873706219593499 0
2.8687432526413629e-05 -0.050409329769136653 0
2.901669072760479e-05 -0.052188772611779261 0
2.9380451646006771e-05 -0.054269488384797067 0
2.9823551853580413e-05 -0.056744265988218807 0
3.0341005434262774e-05 -0.059758821139611631 0
3.0971164297770158e-05 -0.063551009068114561 0
3.1714997015851404e-05 -0.068616407116347075 0
3.2804881793176596e-05 -0.076639352958317544 0
-0 -0 0
-0 -0 0
-0 -0 0
-0 -0 0
-0 -0 0
-0 -0 0
2.0038539370986168e-05 0.035611710566122036 0
2.3929111328306556e-05 0.039581064538366163 0
2.7765805228523463e-05 0.045790483039303123 0
-0 -0 0
-0 -0 0
-0 -0 0
2.2390811565731296e-05 0.038502952592202086 0
2.4314310040112305e-05 0.040500867322006605 0
2.7288131481851465e-05 0.046296161868476911 0
-0 -0 0
-0 -0 0
-0 -0 0
1.7428983650448085e-05 0.03865187249402513 0
1.9345122297959078e-05 0.040656927405989633 0
2.1889084140591755e-05 0.046464268747819934 0
-0 -0 0
-0 -0 0
-0 -0 0
9.2000382199226728e-06 0.038813919364715503 0
1.030740222955905e-05 0.040833142696866942 0
1.1853375478425863e-05 0.04671185103619134 0
-0 -0 0
-0 -0 0
-0 -0 0
3.8108670467032935e-06 0.038881530758920445 0
4.3851619478650393e-06 0.040920083558020195 0
5.1797186624429659e-06 0.046865285521734266 0
-0 -0 0
-0 -0 0
-0 -0 0
1.7341033177468797e-06 0.038919979431267765 0
1.9994223446795593e-06 0.040968838418106127 0
2.4167235650899823e-06 0.046944155791558646 0
-0 -0 0
-0 -0 0
-0 -0 0
6.6349911565278293e-07 0.038940334743294149 0
7.6872208494959933e-07 0.040994134418568952 0
1.0243376550888398e-06 0.046981451269842656 0
-0 -0 0
-0 -0 0
-0 -0 0
2.128986758738608e-07 0.038949558575529564 0
2.6590433032130649e-07 0.041005584714135408 0
3.9556040458066212e-07 0.04699775555890004 0
-0 -0 0
-0 -0 0
-0 -0 0
2.9879879620800247e-07 0.038952925602165532 0
3.2385434831680051e-07 0.041009732213152121 0
3.4657447960517498e-07 0.047003618258598764 0
-0 -0 0
-0 -0 0
-0 -0 0
1.6851938515419221e-07 0.038952951878572485 0
1.5170139012300525e-07 0.041009607552217456 0
1.3799454358099146e-07 0.047003349180289769 0
-0 -0 0
-0 -0 0
-0 -0 0
-1.9263170197276043e-07 0.038949084219351941 0
-2.198611500210561e-07 0.041004861651220526 0
-2.2782642932202855e-07 0.046996854096990295 0
-0 -0 0
-0 -0 0
-0 -0 0
-5.5940624886753316e-07 0.038939322182804652 0
-6.4437495506269041e-07 0.040993003517288622 0
-7.896075653514354e-07 0.046980013036755544 0
-0 -0 0
-0 -0 0
-0 -0 0
-1.1917084964051088e-06 0.038918969186465889 0
-1.4148534935141824e-06 0.040967823825423709 0
-1.8066154284275791e-06 0.04694276699985158 0
-0 -0 0
-0 -0 0
-0 -0 0
-3.2595668895545844e-06 0.038880946911488024 0
-3.8102594991043514e-06 0.040919436775537943 0
-4.5784488381041778e-06 0.046864439210229855 0
-0 -0 0
-0 -0 0
-0 -0 0
-9.0081872327050523e-06 0.038813688480203015 0
-1.0116146133724273e-05 0.04083287230023764 0
-1.1599546290345746e-05 0.046711817827045379 0
-0 -0 0
-0 -0 0
-0 -0 0
-1.7270328997576607e-05 0.038651752099649675 0
-1.9102688981985739e-05 0.040656914575671464 0
-2.1527772183461672e-05 0.046464799990017736 0
-0 -0 0
-0 -0 0
-0 -0 0
-2.2048064611883575e-05 0.038503000440443809 0
-2.3849014119585473e-05 0.040500965325441819 0
-2.6661345432899716e-05 0.046296796322546505 0
-0 -0 0
-0 -0 0
-0 -0 0
-1.9776496835549727e-05 0.035611210979550181 0
-2.3496510118283166e-05 0.039580973219872653 0
-2.7096884635758089e-05 0.045791117989800852 0
-0 -0 0
-0 -0 0
-0 -0 0
-0 -0 0
-0 -0 0
-0 -0 0
-0 -0 0
-0 -0 0
-0 -0 0
-0 -0 0
-0 -0 0
-0 -0 0
-0 -0 0
-0 -0 0
-0 -0 0
-0 -0 0
-0 -0 0
-0 -0 0
-0 -0 0
-0 -0 0
-0 -0 0
-0 -0 0
-0 -0 0
-0 -0 0
-0 -0 0
-0 -0 0
-0 -0 0
-0 -0 0
-0 -0 0
-0 -0 0
-0 -0 0
-0 -0 0
-0 -0 0
-0 -0 0
-0 -0 0
-0 -0 0
-0 -0 0
-0 -0 0
-0 -0 0
-0 -0 0
-0 -0 0
-0 -0 0
-0 -0 0
-0 -0 0
-0 -0 0
-0 -0 0
-0 -0 0
-0 -0 0
-0 -0 0
-0 -0 0
-0 -0 0
-0 -0 0
-0 -0 0
-0 -0 0
-0 -0 0
-0 -0 0
-0 -0 0
-0 -0 0
-0 -0 0
-0 -0 0
-0 -0 0
-0 -0 0
-0 -0 0
-0 -0 0
-0 -0 0
-0 -0 0
-0 -0 0
-0 -0 0
-0 -0 0
-0 -0 0
-0 -0 0
-0 -0 0
-0 -0 0
-0 -0 0
-0 -0 0
-0 -0 0
-0 -0 0
-0 -0 0
-0 -0 0
-0 -0 0
-0 -0 0
-0 -0 0
-0 -0 0
-0 -0 0
-0 -0 0
-0 -0 0
-0 -0 0
-0 -0 0
-0 -0 0
-0 -0 0
-0 -0 0
-0 -0 0
-0 -0 0
-0 -0 0
-0 -0 0
-0 -0 0
-0 -0 0
-0 -0 0
-0 -0 0
-0 -0 0
-0 -0 0
-0 -0 0
-0 -0 0
-0 -0 0
-0 -0 0
-0 -0 0
-0 -0 0
-0 -0 0
-0 -0 0
-0 -0 0
-0 -0 0
-0 -0 0
-0 -0 0
-0 -0 0
-0 -0 0
-0 -0 0
-0 -0 0
-0 -0 0
-0 -0 0
-0 -0 0
-0 -0 0
-0 -0 0
-0 -0 0
-0 -0 0
-0 -0 0
-0 -0 0
-0 -0 0
-0 -0 0
-0 -0 0
-0 -0 0
-0 -0 0
-0 -0 0
-0 -0 0
-0 -0 0
-0 -0 0
-0 -0 0
-0 -0 0
-0 -0 0
-0 -0 0
-0 -0 0
-0 -0 0
-0 -0 0
-0 -0 0
-0 -0 0
-0 -0 0
-0 -0 0
-0 -0 0
-0 -0 0
-0 -0 0
-0 -0 0
-0 -0 0
-0 -0 0
-0 -0 0
-0 -0 0
-0 -0 0
-0 -0 0
-0 -0 0
-0 -0 0
-0 -0 0
-0 -0 0
-0 -0 0
-0 -0 0
-0 -0 0
-0 -0 0
-0 -0 0
-0 -0 0
-0 -0 0
-0 -0 0
-0 -0 0
-0 -0 0
-0 -0 0
-0 -0 0
-0 -0 0
-0 -0 0
-0 -0 0
-0 -0 0
-0 -0 0
-0 -0 0
-0 -0 0
-0 -0 0
-0 -0 0
-0 -0 0
-0 -0 0
-0 -0 0
-0 -0 0
-0 -0 0
-0 -0 0
-0 -0 0
-0 -0 0
-0 -0 0
-0 -0 0
-0 -0 0
-0 -0 0
-0 -0 0
-0 -0 0
