# vtk DataFile Version 3.0
SPH particles (WCSPH) - legacy PolyData
ASCII
DATASET POLYDATA
POINTS 681 float
0.04999983122086854 0.035816504615293218 0
0.049999788900721612 0.040021554587258652 0
0.049999757904433076 0.043483777047878348 0
0.049999739799464302 0.047126282699449136 0
0.049999739439197888 0.051001945727232864 0
0.04999974954800384 0.05522489211265004 0
0.049999764708450981 0.060000046369594114 0
0.04999978734376246 0.065687257289116341 0
0.04999979999734136 0.073065298313495439 0
0.049999759973151252 0.084031513370441541 0
0.049999767372217306 0.10027068204425178 0
0.049999757186253976 0.11947334099584128 0
0.049999911258384891 0.1393438811978448 0
0.049999989164921897 0.15932443778090402 0
0.049999999513011817 0.17932485352657412 0
0.049999999972849797 0.19933526085184852 0
0.049999999999011169 0.2193646748410456 0
0.049999999999969832 0.23943883986322642 0
0.049999999999999246 0.25961318395832161 0
0.049999999999999996 0.27999647444086373 0
0.050000000000000003 0.30078707458421217 0
0.050000000000000003 0.32232779300784675 0
0.050000000000000003 0.34521430081122029 0
0.050000000000000003 0.37074187633118805 0
0.050000000000000003 0.41172430286442041 0
0.069999949793316543 0.0348099612200213 0
0.069999935523090459 0.039394177110891458 0
0.069999926784211131 0.043220617645815182 0
0.069999920456894571 0.047154512906710536 0
0.069999917816561022 0.051277337053144842 0
0.069999918616128781 0.055725456720636758 0
0.069999928938210165 0.060716423211783312 0
0.069999939718383655 0.0666068250471471 0
0.069999946611741762 0.074100814292998238 0
0.069999913415943402 0.084792381762302013 0
0.069999791150854029 0.1005012013360254 0
0.069999755211170828 0.11950720546522238 0
0.069999900107619861 0.13934866007153265 0
0.069999981407997763 0.15932532627622356 0
0.069999998063073554 0.17932541858611731 0
0.069999999935752066 0.19933649757198868 0
0.069999999997993501 0.21936781763079399 0
0.069999999999946758 0.23944653162657392 0
0.069999999999998785 0.25963114730826353 0
0.070000000000000007 0.2800365627626793 0
0.070000000000000007 0.30087216344829537 0
0.070000000000000007 0.32249455287751394 0
0.070000000000000007 0.34548827121917908 0
0.070000000000000007 0.37107801425345893 0
0.070000000000000007 0.41094690069263007 0
0.089999995367200672 0.034815236200218626 0
0.08999999297994539 0.039415696946529043 0
0.089999996093822643 0.043260201106662281 0
0.089999996673733082 0.04722109230670736 0
0.089999993422482535 0.051380071277466105 0
0.089999990167698676 0.055874264523818967 0
0.089999985171599198 0.06092192217180023 0
0.089999988128308978 0.066876356527932723 0
0.089999995016022516 0.074421228172147719 0
0.089999999399229536 0.085067590906845805 0
0.089999995127817659 0.10060623533918742 0
0.089999976227886108 0.11952517424163087 0
0.089999978247068971 0.13935123342451827 0
0.089999989352676335 0.15932580717754863 0
0.089999998202687961 0.17932573823898693 0
0.089999999940106101 0.19933722669099327 0
0.089999999998107691 0.21936975807091857 0
0.089999999999949856 0.23945151721602512 0
0.089999999999998886 0.25964331611272651 0
0.090000000000000011 0.28006447876339308 0
0.090000000000000011 0.30093115557268951 0
0.090000000000000011 0.32260421075512857 0
0.090000000000000011 0.34565460332554171 0
0.090000000000000011 0.37126832223320572 0
0.090000000000000011 0.41062300616394842 0
0.10999999825569452 0.034836903524515822 0
0.10999999382096858 0.039443044994660288 0
0.10999999159355234 0.0432931983483235 0
0.10999999086004432 0.047261096854284805 0
0.10999998772136754 0.05142883819979005 0
0.10999999827039268 0.055934030485621969 0
0.10999998814518909 0.060995312847413496 0
0.10999999352945125 0.066965422199672553 0
0.11000001443390933 0.074523362800393844 0
0.11000002343075437 0.085158264420016713 0
0.10999998299745481 0.10064678932622204 0
0.11000005619192323 0.11953419995199502 0
0.10999999881097518 0.1393527812015399 0
0.10999999843434488 0.15932612275128044 0
0.1099999997596284 0.17932596660116545 0
0.10999999998092051 0.19933775503521448 0
0.10999999999925923 0.21937115052482015 0
0.10999999999997676 0.2394550129161564 0
0.10999999999999943 0.25965150508786772 0
0.11000000000000001 0.28008211563604829 0
0.11000000000000001 0.30096532280395588 0
0.11000000000000001 0.32266140563305151 0
0.11000000000000001 0.34573510407895031 0
0.11000000000000001 0.37136031535326486 0
0.11000000000000001 0.41048206243647767 0
0.12999999322570771 0.034844881646797193 0
0.12999999285110719 0.039454105182702634 0
0.12999999205096938 0.043306815481310663 0
0.12999998704897289 0.047277433051581406 0
0.12999998834490845 0.051448251210642025 0
0.12999999427157197 0.055957056816534963 0
0.12999999911461238 0.061022556294202494 0
0.1300000015539067 0.066997284231152629 0
0.13000000422603367 0.074558809476259091 0
0.13000001015764046 0.0851896207437004 0
0.13000002567416208 0.10066171946621923 0
0.13000000960295113 0.11953797747484292 0
0.13000000252250149 0.13935353354808053 0
0.12999999984336505 0.15932630206353934 0
0.12999999992621517 0.17932611293548076 0
0.12999999999624698 0.19933809555805648 0
0.12999999999980263 0.21937202804418177 0
0.12999999999999284 0.23945714325480855 0
0.12999999999999984 0.2596562704272099 0
0.13 0.28009178797366607 0
0.13 0.3009828069824102 0
0.13 0.32268873034093698 0
0.13 0.34577161663175593 0
0.13 0.37140099140877941 0
0.13 0.41042857618058887 0
0.14999999933114974 0.034847575301361129 0
0.14999999986504872 0.039458008714718537 0
0.15000000344936562 0.043311727555911464 0
0.15000000235287228 0.047283387776656548 0
0.15000000458577684 0.05145536322897179 0
0.14999999647198567 0.055965449943074383 0
0.14999999719343637 0.061032440777339755 0
0.15000000161917532 0.067008725547603606 0
0.15000000650579412 0.074571373915747696 0
0.15000000267111607 0.085200666973016481 0
0.15000000222339166 0.10066711583413371 0
0.14999999082376339 0.11953945539819651 0
0.14999999848903778 0.139353869828552 0
0.1499999997538434 0.15932639345602365 0
0.14999999996877356 0.17932619682786261 0
0.14999999999861663 0.19933828997888151 0
0.14999999999993979 0.2193725153621767 0
0.14999999999999775 0.23945828446763298 0
0.14999999999999999 0.25965871283586278 0
0.15000000000000002 0.28009649862018493 0
0.15000000000000002 0.30099087529443569 0
0.15000000000000002 0.32270075019365124 0
0.15000000000000002 0.34578700371681598 0
0.15000000000000002 0.37141755778792596 0
0.15000000000000002 0.41041086965682444 0
0.17000000027933321 0.034848484226407045 0
0.17000000294118117 0.039459339786614277 0
0.17000000076662564 0.043313404657576299 0
0.17000000070332141 0.047285445742653122 0
0.17000000291880252 0.051457800213100952 0
0.17000001261411438 0.055968346889549901 0
0.17000001455958194 0.061035835237968905 0
0.17000001715802837 0.067012647266071632 0
0.17000002095683844 0.074575667322984415 0
0.17000001975170442 0.085204430357916056 0
0.17000001822339308 0.10066898763806009 0
0.17000000710735783 0.11953999155413146 0
0.17000000100807092 0.13935400751659041 0
0.17000000028172244 0.15932643396656157 0
0.17000000003699667 0.17932623794412961 0
0.17000000000078586 0.19933838450322608 0
0.17000000000001081 0.21937274612152335 0
0.16999999999999985 0.23945880779877363 0
0.17000000000000004 0.25965979219503532 0
0.17000000000000004 0.28009849823204708 0
0.17000000000000004 0.3009941627348422 0
0.17000000000000004 0.32270547611581463 0
0.17000000000000004 0.34579286115604291 0
0.17000000000000004 0.37142367172317442 0
0.17000000000000004 0.41040579240382985 0
0.18999999528318173 0.034848705132374855 0
0.18999999495055053 0.039459651292275806 0
0.18999999156660866 0.04331379648817929 0
0.18999998993147815 0.04728590926541059 0
0.18999998376803806 0.051458358829329254 0
0.19000000336591272 0.055969022848813277 0
0.19000000745514445 0.06103662718544494 0
0.19000000594842861 0.067013572648593978 0
0.19000001085648713 0.074576688135926203 0
0.19000000607667183 0.085205342634389086 0
0.18999999195834619 0.10066945284880569 0
0.18999999721125074 0.11954012532701433 0
0.19000000169537026 0.13935403093146537 0
0.19000000067510586 0.15932644518201422 0
0.1900000000234473 0.17932624994889462 0
0.19000000000104542 0.19933841212475548 0
0.19000000000002712 0.2193728124207269 0
0.19000000000000053 0.23945895517036769 0
0.19 0.25966008938617696 0
0.19 0.28009903579560758 0
0.19 0.30099502541182666 0
0.19 0.32270668945960779 0
0.19 0.34579433788248021 0
0.19 0.37142518460418317 0
0.19 0.41040478089564025 0
0.20999999919214485 0.034848485541984442 0
0.20999999873813904 0.03945933316291271 0
0.20999999626174476 0.043313397496589731 0
0.20999999800540145 0.047285428142020185 0
0.21000000024606824 0.051457785632595364 0
0.20999999900924676 0.055968333196478599 0
0.20999999399302494 0.061035821721695784 0
0.20999999540155442 0.067012644160740348 0
0.20999999684869888 0.074575668117877095 0
0.20999999714735534 0.085204443717395273 0
0.20999999388159166 0.10066900100495164 0
0.2099999983423313 0.11954001889865332 0
0.21000000040200797 0.13935400167175804 0
0.21000000029130625 0.15932643423490972 0
0.21000000002581731 0.17932623808967321 0
0.2100000000010801 0.19933838451195096 0
0.21000000000003816 0.21937274612180668 0
0.21000000000000107 0.23945880779878262 0
0.21000000000000002 0.2596597921950356 0
0.21000000000000002 0.28009849823204708 0
0.21000000000000002 0.3009941627348422 0
0.21000000000000002 0.32270547611581463 0
0.21000000000000002 0.34579286115604291 0
0.21000000000000002 0.37142367172317442 0
0.21000000000000002 0.41040579240382985 0
0.22999999878703609 0.034847577685189306 0
0.22999999938842916 0.039458015421171451 0
0.22999999768673587 0.043311729033786737 0
0.22999999835008558 0.047283391397701852 0
0.23000000262500336 0.051455361782931461 0
0.23000000192717673 0.05596546208754602 0
0.23000000420246558 0.061032449071346556 0
0.23000000563427661 0.067008739232260195 0
0.23000000795605291 0.074571385767191439 0
0.23000000962158595 0.085200657895968618 0
0.23000000062663517 0.10066711026120781 0
0.2300000039284637 0.11953947962638135 0
0.23000000178784472 0.13935387750801084 0
0.23000000033887702 0.15932639288438039 0
0.23000000004138615 0.17932619690501356 0
0.23000000000189805 0.19933828998358874 0
0.23000000000007501 0.21937251536241065 0
0.23000000000000262 0.23945828446764225 0
0.23000000000000009 0.259658712835863 0
0.23000000000000004 0.28009649862018493 0
0.23000000000000004 0.30099087529443569 0
0.23000000000000004 0.32270075019365124 0
0.23000000000000004 0.34578700371681598 0
0.23000000000000004 0.37141755778792596 0
0.23000000000000004 0.4104108696568245 0
0.25000000333981781 0.034844884297521313 0
0.25000000467802297 0.039454109150084786 0
0.25000000237777781 0.043306821734690665 0
0.25000000132055594 0.04727744411927947 0
0.25000000171084041 0.051448262398945524 0
0.25000000098743547 0.055957062514570811 0
0.25000000784077447 0.061022570492065914 0
0.2500000244127657 0.066997300403489446 0
0.25000002057498877 0.074558818083905853 0
0.25000001694589563 0.085189598130377603 0
0.25000001765048457 0.10066169260899072 0
0.25000001132655369 0.11953798360458215 0
0.25000000290582786 0.13935353982032544 0
0.25000000085219182 0.15932629955983604 0
0.25000000008957279 0.17932611280851213 0
0.25000000000470884 0.1993380955574808 0
0.25000000000022898 0.2193720280442738 0
0.2500000000000081 0.23945714325481485 0
0.25000000000000022 0.25965627042721018 0
0.25000000000000006 0.28009178797366607 0
0.25000000000000006 0.3009828069824102 0
0.25000000000000006 0.32268873034093698 0
0.25000000000000006 0.34577161663175593 0
0.25000000000000006 0.37140099140877941 0
0.25000000000000006 0.41042857618058887 0
0.269999999498373 0.034836904092071984 0
0.26999999817960951 0.039443047030612265 0
0.26999999372854744 0.043293199697737934 0
0.27000000041898309 0.047261103952215777 0
0.27000000521538475 0.051428854780481613 0
0.27000000510953115 0.055934045347503118 0
0.27000000742078267 0.060995310919132781 0
0.27000000850758843 0.066965419494791609 0
0.27000001081012154 0.074523377645382069 0
0.27000000881189751 0.085158273919091032 0
0.27000000934756085 0.10064679405115909 0
0.27000000191767831 0.11953418889732054 0
0.27000000336640212 0.13935276279570497 0
0.27000000118836509 0.15932611980471345 0
0.27000000026132537 0.17932596624996353 0
0.27000000001973912 0.19933775502580686 0
0.27000000000077196 0.21937115052462705 0
0.27000000000002439 0.23945501291615426 0
0.27000000000000063 0.25965150508786772 0
0.27000000000000002 0.28008211563604829 0
0.27000000000000002 0.30096532280395588 0
0.27000000000000002 0.32266140563305151 0
0.27000000000000002 0.34573510407895031 0
0.27000000000000002 0.37136031535326486 0
0.27000000000000002 0.41048206243647767 0
0.29000000798692238 0.034815239142141859 0
0.29000000857686664 0.039415702724568374 0
0.29000001647416346 0.043260206996192714 0
0.2900000102749154 0.047221097728928706 0
0.29000001802522285 0.051380082549789811 0
0.29000001435274819 0.055874266044520247 0
0.29000001823055438 0.060921930779352214 0
0.2900000177498987 0.066876379257380367 0
0.29000001810681886 0.074421261192903168 0
0.29000001815140086 0.085067604838241495 0
0.29000001904636807 0.10060624388408325 0
0.29000001299045763 0.11952517844948436 0
0.29000001656113072 0.13935123969191079 0
0.29000001021270183 0.15932580468225743 0
0.29000000173966844 0.17932573788486164 0
0.29000000005849891 0.19933722667990103 0
0.29000000000186438 0.21936975807061357 0
0.29000000000005 0.23945151721601848 0
0.29000000000000115 0.2596433161127264 0
0.29000000000000004 0.28006447876339308 0
0.29000000000000004 0.30093115557268951 0
0.29000000000000004 0.32260421075512857 0
0.29000000000000004 0.34565460332554171 0
0.29000000000000004 0.37126832223320572 0
0.29000000000000004 0.41062300616394842 0
0.31000005674963405 0.034809972724006308 0
0.31000007251685352 0.039394186796759698 0
0.31000008156100317 0.043220631194639883 0
0.3100000826434377 0.047154522338095486 0
0.31000008864953466 0.05127734033645464 0
0.31000009202975976 0.055725459078873441 0
0.31000009022589198 0.060716442425312794 0
0.31000008228368087 0.066606847741333824 0
0.31000007548822428 0.074100835244423138 0
0.31000009911519705 0.084792390755292615 0
0.31000021104544473 0.1005011948749896 0
0.31000024524752667 0.1195072044461 0
0.3100001011340271 0.1393486631180299 0
0.31000001809808136 0.15932532549168996 0
0.31000000185833165 0.17932541845629899 0
0.3100000000620769 0.19933649756652425 0
0.31000000000195127 0.21936781763061741 0
0.31000000000005218 0.23944653162656926 0
0.31000000000000116 0.25963114730826348 0
0.31000000000000005 0.2800365627626793 0
0.31000000000000005 0.30087216344829537 0
0.31000000000000005 0.32249455287751394 0
0.31000000000000005 0.34548827121917908 0
0.31000000000000005 0.37107801425345893 0
0.31000000000000005 0.41094690069263007 0
0.33000016129724485 0.035816521624986164 0
0.33000020207238567 0.040021570094276225 0
0.33000022963276948 0.043483791856882871 0
0.330000246361355 0.047126294242486065 0
0.33000024530532029 0.051001953770340419 0
0.33000023544454349 0.055224897204821356 0
0.33000021789467465 0.060000045302830034 0
0.33000019705081651 0.065687248865054212 0
0.33000017378045321 0.073065278767663222 0
0.33000020179832501 0.084031479332178374 0
0.33000022612282853 0.10027066198590977 0
0.33000024198221645 0.11947333805926892 0
0.33000008935299735 0.13934388131414085 0
0.33000001069887891 0.15932443764061224 0
0.33000000047841888 0.17932485351393046 0
0.33000000002640606 0.19933526085060527 0
0.33000000000096397 0.21936467484099031 0
0.33000000000002955 0.23943883986322462 0
0.33000000000000074 0.2596131839583215 0
0.33000000000000002 0.27999647444086373 0
0.33000000000000002 0.30078707458421217 0
0.33000000000000002 0.32232779300784675 0
0.33000000000000002 0.34521430081122029 0
0.33000000000000002 0.37074187633118805 0
0.33000000000000002 0.41172430286442041 0
0 0 0
0 0.020000000000000004 0
0 0.040000000000000001 0
0 0.54999999999999993 0
0 0.56000000000000005 0
0 0.58000000000000007 0
0.02 0 0
0.02 0.020000000000000004 0
0.02 0.040000000000000001 0
0.02 0.54999999999999993 0
0.02 0.56000000000000005 0
0.02 0.58000000000000007 0
0.040000000000000001 0 0
0.040000000000000001 0.020000000000000004 0
0.040000000000000001 0.040000000000000001 0
0.040000000000000001 0.54999999999999993 0
0.040000000000000001 0.56000000000000005 0
0.040000000000000001 0.58000000000000007 0
0.059999999999999998 0 0
0.059999999999999998 0.020000000000000004 0
0.059999999999999998 0.040000000000000001 0
0.059999999999999998 0.54999999999999993 0
0.059999999999999998 0.56000000000000005 0
0.059999999999999998 0.58000000000000007 0
0.080000000000000002 0 0
0.080000000000000002 0.020000000000000004 0
0.080000000000000002 0.040000000000000001 0
0.080000000000000002 0.54999999999999993 0
0.080000000000000002 0.56000000000000005 0
0.080000000000000002 0.58000000000000007 0
0.10000000000000001 0 0
0.10000000000000001 0.020000000000000004 0
0.10000000000000001 0.040000000000000001 0
0.10000000000000001 0.54999999999999993 0
0.10000000000000001 0.56000000000000005 0
0.10000000000000001 0.58000000000000007 0
0.12 0 0
0.12 0.020000000000000004 0
0.12 0.040000000000000001 0
0.12 0.54999999999999993 0
0.12 0.56000000000000005 0
0.12 0.58000000000000007 0
0.14000000000000001 0 0
0.14000000000000001 0.020000000000000004 0
0.14000000000000001 0.040000000000000001 0
0.14000000000000001 0.54999999999999993 0
0.14000000000000001 0.56000000000000005 0
0.14000000000000001 0.58000000000000007 0
0.16 0 0
0.16 0.020000000000000004 0
0.16 0.040000000000000001 0
0.16 0.54999999999999993 0
0.16 0.56000000000000005 0
0.16 0.58000000000000007 0
0.17999999999999999 0 0
0.17999999999999999 0.020000000000000004 0
0.17999999999999999 0.040000000000000001 0
0.17999999999999999 0.54999999999999993 0
0.17999999999999999 0.56000000000000005 0
0.17999999999999999 0.58000000000000007 0
0.20000000000000001 0 0
0.20000000000000001 0.020000000000000004 0
0.20000000000000001 0.040000000000000001 0
0.20000000000000001 0.54999999999999993 0
0.20000000000000001 0.56000000000000005 0
0.20000000000000001 0.58000000000000007 0
0.22 0 0
0.22 0.020000000000000004 0
0.22 0.040000000000000001 0
0.22 0.54999999999999993 0
0.22 0.56000000000000005 0
0.22 0.58000000000000007 0
0.23999999999999999 0 0
0.23999999999999999 0.020000000000000004 0
0.23999999999999999 0.040000000000000001 0
0.23999999999999999 0.54999999999999993 0
0.23999999999999999 0.56000000000000005 0
0.23999999999999999 0.58000000000000007 0
0.26000000000000001 0 0
0.26000000000000001 0.020000000000000004 0
0.26000000000000001 0.040000000000000001 0
0.26000000000000001 0.54999999999999993 0
0.26000000000000001 0.56000000000000005 0
0.26000000000000001 0.58000000000000007 0
0.28000000000000003 0 0
0.28000000000000003 0.020000000000000004 0
0.28000000000000003 0.040000000000000001 0
0.28000000000000003 0.54999999999999993 0
0.28000000000000003 0.56000000000000005 0
0.28000000000000003 0.58000000000000007 0
0.29999999999999999 0 0
0.29999999999999999 0.020000000000000004 0
0.29999999999999999 0.040000000000000001 0
0.29999999999999999 0.54999999999999993 0
0.29999999999999999 0.56000000000000005 0
0.29999999999999999 0.58000000000000007 0
0.32000000000000001 0 0
0.32000000000000001 0.020000000000000004 0
0.32000000000000001 0.040000000000000001 0
0.32000000000000001 0.54999999999999993 0
0.32000000000000001 0.56000000000000005 0
0.32000000000000001 0.58000000000000007 0
0.34000000000000002 0 0
0.34000000000000002 0.020000000000000004 0
0.34000000000000002 0.040000000000000001 0
0.34000000000000002 0.54999999999999993 0
0.34000000000000002 0.56000000000000005 0
0.34000000000000002 0.58000000000000007 0
0.35999999999999999 0 0
0.35999999999999999 0.020000000000000004 0
0.35999999999999999 0.040000000000000001 0
0.35999999999999999 0.54999999999999993 0
0.35999999999999999 0.56000000000000005 0
0.35999999999999999 0.58000000000000007 0
0.38 0 0
0.38 0.020000000000000004 0
0.38 0.040000000000000001 0
0.38 0.54999999999999993 0
0.38 0.56000000000000005 0
0.38 0.58000000000000007 0
0.40000000000000002 0 0
0.40000000000000002 0.020000000000000004 0
0.40000000000000002 0.040000000000000001 0
0.40000000000000002 0.54999999999999993 0
0.40000000000000002 0.56000000000000005 0
0.40000000000000002 0.58000000000000007 0
0.41999999999999998 0 0
0.41999999999999998 0.020000000000000004 0
0.41999999999999998 0.040000000000000001 0
0.41999999999999998 0.54999999999999993 0
0.41999999999999998 0.56000000000000005 0
0.41999999999999998 0.58000000000000007 0
0.44 0 0
0.44 0.020000000000000004 0
0.44 0.040000000000000001 0
0.44 0.54999999999999993 0
0.44 0.56000000000000005 0
0.44 0.58000000000000007 0
0.46000000000000002 0 0
0.46000000000000002 0.020000000000000004 0
0.46000000000000002 0.040000000000000001 0
0.46000000000000002 0.54999999999999993 0
0.46000000000000002 0.56000000000000005 0
0.46000000000000002 0.58000000000000007 0
0.47999999999999998 0 0
0.47999999999999998 0.020000000000000004 0
0.47999999999999998 0.040000000000000001 0
0.47999999999999998 0.54999999999999993 0
0.47999999999999998 0.56000000000000005 0
0.47999999999999998 0.58000000000000007 0
0.5 0 0
0.5 0.020000000000000004 0
0.5 0.040000000000000001 0
0.5 0.54999999999999993 0
0.5 0.56000000000000005 0
0.5 0.58000000000000007 0
0.52000000000000002 0 0
0.52000000000000002 0.020000000000000004 0
0.52000000000000002 0.040000000000000001 0
0.52000000000000002 0.54999999999999993 0
0.52000000000000002 0.56000000000000005 0
0.52000000000000002 0.58000000000000007 0
0.54000000000000004 0 0
0.54000000000000004 0.020000000000000004 0
0.54000000000000004 0.040000000000000001 0
0.54000000000000004 0.54999999999999993 0
0.54000000000000004 0.56000000000000005 0
0.54000000000000004 0.58000000000000007 0
0.56000000000000005 0 0
0.56000000000000005 0.020000000000000004 0
0.56000000000000005 0.040000000000000001 0
0.56000000000000005 0.54999999999999993 0
0.56000000000000005 0.56000000000000005 0
0.56000000000000005 0.58000000000000007 0
0.57999999999999996 0 0
0.57999999999999996 0.020000000000000004 0
0.57999999999999996 0.040000000000000001 0
0.57999999999999996 0.54999999999999993 0
0.57999999999999996 0.56000000000000005 0
0.57999999999999996 0.58000000000000007 0
0.59999999999999998 0 0
0.59999999999999998 0.020000000000000004 0
0.59999999999999998 0.040000000000000001 0
0.59999999999999998 0.54999999999999993 0
0.59999999999999998 0.56000000000000005 0
0.59999999999999998 0.58000000000000007 0
0.62 0 0
0.62 0.020000000000000004 0
0.62 0.040000000000000001 0
0.62 0.54999999999999993 0
0.62 0.56000000000000005 0
0.62 0.58000000000000007 0
0.64000000000000001 0 0
0.64000000000000001 0.020000000000000004 0
0.64000000000000001 0.040000000000000001 0
0.64000000000000001 0.54999999999999993 0
0.64000000000000001 0.56000000000000005 0
0.64000000000000001 0.58000000000000007 0
0.66000000000000003 0 0
0.66000000000000003 0.020000000000000004 0
0.66000000000000003 0.040000000000000001 0
0.66000000000000003 0.54999999999999993 0
0.66000000000000003 0.56000000000000005 0
0.66000000000000003 0.58000000000000007 0
0.68000000000000005 0 0
0.68000000000000005 0.020000000000000004 0
0.68000000000000005 0.040000000000000001 0
0.68000000000000005 0.54999999999999993 0
0.68000000000000005 0.56000000000000005 0
0.68000000000000005 0.58000000000000007 0
0.70000000000000007 0 0
0.70000000000000007 0.020000000000000004 0
0.70000000000000007 0.040000000000000001 0
0.70000000000000007 0.54999999999999993 0
0.70000000000000007 0.56000000000000005 0
0.70000000000000007 0.58000000000000007 0
0.71999999999999997 0 0
0.71999999999999997 0.020000000000000004 0
0.71999999999999997 0.040000000000000001 0
0.71999999999999997 0.54999999999999993 0
0.71999999999999997 0.56000000000000005 0
0.71999999999999997 0.58000000000000007 0
0.73999999999999999 0 0
0.73999999999999999 0.020000000000000004 0
0.73999999999999999 0.040000000000000001 0
0.73999999999999999 0.54999999999999993 0
0.73999999999999999 0.56000000000000005 0
0.73999999999999999 0.58000000000000007 0
0.76000000000000001 0 0
0.76000000000000001 0.020000000000000004 0
0.76000000000000001 0.040000000000000001 0
0.76000000000000001 0.54999999999999993 0
0.76000000000000001 0.56000000000000005 0
0.76000000000000001 0.58000000000000007 0
0.78000000000000003 0 0
0.78000000000000003 0.020000000000000004 0
0.78000000000000003 0.040000000000000001 0
0.78000000000000003 0.54999999999999993 0
0.78000000000000003 0.56000000000000005 0
0.78000000000000003 0.58000000000000007 0
0.80000000000000004 0 0
0.80000000000000004 0.020000000000000004 0
0.80000000000000004 0.040000000000000001 0
0.80000000000000004 0.54999999999999993 0
0.80000000000000004 0.56000000000000005 0
0.80000000000000004 0.58000000000000007 0
0.82000000000000006 0 0
0.82000000000000006 0.020000000000000004 0
0.82000000000000006 0.040000000000000001 0
0.82000000000000006 0.54999999999999993 0
0.82000000000000006 0.56000000000000005 0
0.82000000000000006 0.58000000000000007 0
0.83999999999999997 0 0
0.83999999999999997 0.020000000000000004 0
0.83999999999999997 0.040000000000000001 0
0.83999999999999997 0.54999999999999993 0
0.83999999999999997 0.56000000000000005 0
0.83999999999999997 0.58000000000000007 0
0.85999999999999999 0 0
0.85999999999999999 0.020000000000000004 0
0.85999999999999999 0.040000000000000001 0
0.85999999999999999 0.54999999999999993 0
0.85999999999999999 0.56000000000000005 0
0.85999999999999999 0.58000000000000007 0
0.88 0 0
0.88 0.020000000000000004 0
0.88 0.040000000000000001 0
0.88 0.54999999999999993 0
0.88 0.56000000000000005 0
0.88 0.58000000000000007 0
0.90000000000000002 0 0
0.90000000000000002 0.020000000000000004 0
0.90000000000000002 0.040000000000000001 0
0.90000000000000002 0.54999999999999993 0
0.90000000000000002 0.56000000000000005 0
0.90000000000000002 0.58000000000000007 0
0.92000000000000004 0 0
0.92000000000000004 0.020000000000000004 0
0.92000000000000004 0.040000000000000001 0
0.92000000000000004 0.54999999999999993 0
0.92000000000000004 0.56000000000000005 0
0.92000000000000004 0.58000000000000007 0
0.94000000000000006 0 0
0.94000000000000006 0.020000000000000004 0
0.94000000000000006 0.040000000000000001 0
0.94000000000000006 0.54999999999999993 0
0.94000000000000006 0.56000000000000005 0
0.94000000000000006 0.58000000000000007 0
0.95999999999999996 0 0
0.95999999999999996 0.020000000000000004 0
0.95999999999999996 0.040000000000000001 0
0.95999999999999996 0.54999999999999993 0
0.95999999999999996 0.56000000000000005 0
0.95999999999999996 0.58000000000000007 0
0.97999999999999998 0 0
0.97999999999999998 0.020000000000000004 0
0.97999999999999998 0.040000000000000001 0
0.97999999999999998 0.54999999999999993 0
0.97999999999999998 0.56000000000000005 0
0.97999999999999998 0.58000000000000007 0
1 0 0
1 0.020000000000000004 0
1 0.040000000000000001 0
1 0.54999999999999993 0
1 0.56000000000000005 0
1 0.58000000000000007 0
VERTICES 681 1362
1 0
1 1
1 2
1 3
1 4
1 5
1 6
1 7
1 8
1 9
1 10
1 11
1 12
1 13
1 14
1 15
1 16
1 17
1 18
1 19
1 20
1 21
1 22
1 23
1 24
1 25
1 26
1 27
1 28
1 29
1 30
1 31
1 32
1 33
1 34
1 35
1 36
1 37
1 38
1 39
1 40
1 41
1 42
1 43
1 44
1 45
1 46
1 47
1 48
1 49
1 50
1 51
1 52
1 53
1 54
1 55
1 56
1 57
1 58
1 59
1 60
1 61
1 62
1 63
1 64
1 65
1 66
1 67
1 68
1 69
1 70
1 71
1 72
1 73
1 74
1 75
1 76
1 77
1 78
1 79
1 80
1 81
1 82
1 83
1 84
1 85
1 86
1 87
1 88
1 89
1 90
1 91
1 92
1 93
1 94
1 95
1 96
1 97
1 98
1 99
1 100
1 101
1 102
1 103
1 104
1 105
1 106
1 107
1 108
1 109
1 110
1 111
1 112
1 113
1 114
1 115
1 116
1 117
1 118
1 119
1 120
1 121
1 122
1 123
1 124
1 125
1 126
1 127
1 128
1 129
1 130
1 131
1 132
1 133
1 134
1 135
1 136
1 137
1 138
1 139
1 140
1 141
1 142
1 143
1 144
1 145
1 146
1 147
1 148
1 149
1 150
1 151
1 152
1 153
1 154
1 155
1 156
1 157
1 158
1 159
1 160
1 161
1 162
1 163
1 164
1 165
1 166
1 167
1 168
1 169
1 170
1 171
1 172
1 173
1 174
1 175
1 176
1 177
1 178
1 179
1 180
1 181
1 182
1 183
1 184
1 185
1 186
1 187
1 188
1 189
1 190
1 191
1 192
1 193
1 194
1 195
1 196
1 197
1 198
1 199
1 200
1 201
1 202
1 203
1 204
1 205
1 206
1 207
1 208
1 209
1 210
1 211
1 212
1 213
1 214
1 215
1 216
1 217
1 218
1 219
1 220
1 221
1 222
1 223
1 224
1 225
1 226
1 227
1 228
1 229
1 230
1 231
1 232
1 233
1 234
1 235
1 236
1 237
1 238
1 239
1 240
1 241
1 242
1 243
1 244
1 245
1 246
1 247
1 248
1 249
1 250
1 251
1 252
1 253
1 254
1 255
1 256
1 257
1 258
1 259
1 260
1 261
1 262
1 263
1 264
1 265
1 266
1 267
1 268
1 269
1 270
1 271
1 272
1 273
1 274
1 275
1 276
1 277
1 278
1 279
1 280
1 281
1 282
1 283
1 284
1 285
1 286
1 287
1 288
1 289
1 290
1 291
1 292
1 293
1 294
1 295
1 296
1 297
1 298
1 299
1 300
1 301
1 302
1 303
1 304
1 305
1 306
1 307
1 308
1 309
1 310
1 311
1 312
1 313
1 314
1 315
1 316
1 317
1 318
1 319
1 320
1 321
1 322
1 323
1 324
1 325
1 326
1 327
1 328
1 329
1 330
1 331
1 332
1 333
1 334
1 335
1 336
1 337
1 338
1 339
1 340
1 341
1 342
1 343
1 344
1 345
1 346
1 347
1 348
1 349
1 350
1 351
1 352
1 353
1 354
1 355
1 356
1 357
1 358
1 359
1 360
1 361
1 362
1 363
1 364
1 365
1 366
1 367
1 368
1 369
1 370
1 371
1 372
1 373
1 374
1 375
1 376
1 377
1 378
1 379
1 380
1 381
1 382
1 383
1 384
1 385
1 386
1 387
1 388
1 389
1 390
1 391
1 392
1 393
1 394
1 395
1 396
1 397
1 398
1 399
1 400
1 401
1 402
1 403
1 404
1 405
1 406
1 407
1 408
1 409
1 410
1 411
1 412
1 413
1 414
1 415
1 416
1 417
1 418
1 419
1 420
1 421
1 422
1 423
1 424
1 425
1 426
1 427
1 428
1 429
1 430
1 431
1 432
1 433
1 434
1 435
1 436
1 437
1 438
1 439
1 440
1 441
1 442
1 443
1 444
1 445
1 446
1 447
1 448
1 449
1 450
1 451
1 452
1 453
1 454
1 455
1 456
1 457
1 458
1 459
1 460
1 461
1 462
1 463
1 464
1 465
1 466
1 467
1 468
1 469
1 470
1 471
1 472
1 473
1 474
1 475
1 476
1 477
1 478
1 479
1 480
1 481
1 482
1 483
1 484
1 485
1 486
1 487
1 488
1 489
1 490
1 491
1 492
1 493
1 494
1 495
1 496
1 497
1 498
1 499
1 500
1 501
1 502
1 503
1 504
1 505
1 506
1 507
1 508
1 509
1 510
1 511
1 512
1 513
1 514
1 515
1 516
1 517
1 518
1 519
1 520
1 521
1 522
1 523
1 524
1 525
1 526
1 527
1 528
1 529
1 530
1 531
1 532
1 533
1 534
1 535
1 536
1 537
1 538
1 539
1 540
1 541
1 542
1 543
1 544
1 545
1 546
1 547
1 548
1 549
1 550
1 551
1 552
1 553
1 554
1 555
1 556
1 557
1 558
1 559
1 560
1 561
1 562
1 563
1 564
1 565
1 566
1 567
1 568
1 569
1 570
1 571
1 572
1 573
1 574
1 575
1 576
1 577
1 578
1 579
1 580
1 581
1 582
1 583
1 584
1 585
1 586
1 587
1 588
1 589
1 590
1 591
1 592
1 593
1 594
1 595
1 596
1 597
1 598
1 599
1 600
1 601
1 602
1 603
1 604
1 605
1 606
1 607
1 608
1 609
1 610
1 611
1 612
1 613
1 614
1 615
1 616
1 617
1 618
1 619
1 620
1 621
1 622
1 623
1 624
1 625
1 626
1 627
1 628
1 629
1 630
1 631
1 632
1 633
1 634
1 635
1 636
1 637
1 638
1 639
1 640
1 641
1 642
1 643
1 644
1 645
1 646
1 647
1 648
1 649
1 650
1 651
1 652
1 653
1 654
1 655
1 656
1 657
1 658
1 659
1 660
1 661
1 662
1 663
1 664
1 665
1 666
1 667
1 668
1 669
1 670
1 671
1 672
1 673
1 674
1 675
1 676
1 677
1 678
1 679
1 680
POINT_DATA 681
SCALARS is_boundary int 1
LOOKUP_TABLE default
0
0
0
0
0
0
0
0
0
0
0
0
0
0
0
0
0
0
0
0
0
0
0
0
0
0
0
0
0
0
0
0
0
0
0
0
0
0
0
0
0
0
0
0
0
0
0
0
0
0
0
0
0
0
0
0
0
0
0
0
0
0
0
0
0
0
0
0
0
0
0
0
0
0
0
0
0
0
0
0
0
0
0
0
0
0
0
0
0
0
0
0
0
0
0
0
0
0
0
0
0
0
0
0
0
0
0
0
0
0
0
0
0
0
0
0
0
0
0
0
0
0
0
0
0
0
0
0
0
0
0
0
0
0
0
0
0
0
0
0
0
0
0
0
0
0
0
0
0
0
0
0
0
0
0
0
0
0
0
0
0
0
0
0
0
0
0
0
0
0
0
0
0
0
0
0
0
0
0
0
0
0
0
0
0
0
0
0
0
0
0
0
0
0
0
0
0
0
0
0
0
0
0
0
0
0
0
0
0
0
0
0
0
0
0
0
0
0
0
0
0
0
0
0
0
0
0
0
0
0
0
0
0
0
0
0
0
0
0
0
0
0
0
0
0
0
0
0
0
0
0
0
0
0
0
0
0
0
0
0
0
0
0
0
0
0
0
0
0
0
0
0
0
0
0
0
0
0
0
0
0
0
0
0
0
0
0
0
0
0
0
0
0
0
0
0
0
0
0
0
0
0
0
0
0
0
0
0
0
0
0
0
0
0
0
0
0
0
0
0
0
0
0
0
0
0
0
0
0
0
0
0
0
0
0
0
0
0
0
0
0
0
0
0
0
0
0
0
0
0
0
0
0
0
0
0
0
0
0
0
0
0
0
0
0
0
0
0
0
0
0
0
0
0
0
1
1
1
1
1
1
1
1
1
1
1
1
1
1
1
1
1
1
1
1
1
1
1
1
1
1
1
1
1
1
1
1
1
1
1
1
1
1
1
1
1
1
1
1
1
1
1
1
1
1
1
1
1
1
1
1
1
1
1
1
1
1
1
1
1
1
1
1
1
1
1
1
1
1
1
1
1
1
1
1
1
1
1
1
1
1
1
1
1
1
1
1
1
1
1
1
1
1
1
1
1
1
1
1
1
1
1
1
1
1
1
1
1
1
1
1
1
1
1
1
1
1
1
1
1
1
1
1
1
1
1
1
1
1
1
1
1
1
1
1
1
1
1
1
1
1
1
1
1
1
1
1
1
1
1
1
1
1
1
1
1
1
1
1
1
1
1
1
1
1
1
1
1
1
1
1
1
1
1
1
1
1
1
1
1
1
1
1
1
1
1
1
1
1
1
1
1
1
1
1
1
1
1
1
1
1
1
1
1
1
1
1
1
1
1
1
1
1
1
1
1
1
1
1
1
1
1
1
1
1
1
1
1
1
1
1
1
1
1
1
1
1
1
1
1
1
1
1
1
1
1
1
1
1
1
1
1
1
1
1
1
1
1
1
1
1
1
1
1
1
1
1
1
1
1
1
1
1
1
1
1
1
1
1
1
1
1
1
1
1
1
1
1
1
1
1
1
1
1
1
1
1
1
1
1
1
SCALARS rho float 1
LOOKUP_TABLE default
1020
1020
1020
1020
1020
1020
1020
1020
1020
1020
967.89179022798498
862
862
862
862
862
862
862
862
862
862
862
862
862
850
1020
1020
1020
1020
1020
1020
1020
1020
1020
1020
1020
1020
1004.1278300624153
999.65833828719883
998.7422213139705
997.95333405797373
996.2705674273127
992.49850227551474
984.60105321380183
969.3314931307043
942.12196491224199
880
862
862
862
1020
1020
1020
1020
1020
1020
1020
1020
1020
1020
1020
1020
1005.660568055479
1000.71157392173
999.72100052377209
998.89498350588838
997.14483410224102
993.22630507290273
985.03255816343108
969.23839721761124
941.30869030708755
880
862
862
862
1020
1020
1020
1020
1020
1020
1020
1020
1020
1020
1020
1020
1005.9282758463326
1000.7496409029295
999.71622185441834
998.86574244205462
997.07054855362026
993.0574005793062
984.68452633704419
968.60667047452898
940.35976370512935
880
862
862
862
1020
1020
1020
1020
1020
1020
1020
1020
1020
1020
1020
1020
1006.043712186284
1000.7681049276835
999.71246923506305
998.84699027559464
997.02460346594307
992.95788792474491
984.49261083085571
968.28679288272269
939.92616273286671
880
862
862
862
1020
1020
1020
1020
1020
1020
1020
1020
1020
1020
1020
1020
1006.0881700482078
1000.7758440959003
999.70992966999506
998.83639464217231
996.99965707686238
992.90638129083277
984.39898435082227
968.14116500565387
939.74268949611246
880
862
862
862
1020
1020
1020
1020
1020
1020
1020
1020
1020
1020
1020
1020
1006.1041943890707
1000.778714367719
999.70855382759169
998.83130392656585
996.98808785889855
992.88344946714778
984.35924107813617
968.08254795692096
939.6726983596202
880
862
862
862
1020
1020
1020
1020
1020
1020
1020
1020
1020
1020
1020
1020
1006.1084458362959
1000.7793485577151
999.70812777371657
998.8298284853322
996.98480744868607
992.87710793657948
984.34856026376792
968.06728599045982
939.65506028050754
880
862
862
862
1020
1020
1020
1020
1020
1020
1020
1020
1020
1020
1020
1020
1006.1047601891885
1000.7787150315744
999.70855776261305
998.83130669441016
996.98808809644152
992.88344947732776
984.35924107845517
968.08254795692847
939.67269835961929
880
862
862
862
1020
1020
1020
1020
1020
1020
1020
1020
1020
1020
1020
1020
1006.0885510031842
1000.7759503131992
999.70991572407002
998.83639570965624
996.9996572304542
992.90638129860258
984.3989843511456
968.14116500566388
939.74268949611269
880
862
862
862
1020
1020
1020
1020
1020
1020
1020
1020
1020
1020
1020
1020
1006.0435627442912
1000.7681492969882
999.71242319494127
998.84698567029909
997.02460336096374
992.95788792581402
984.49261083102238
968.28679288273111
939.92616273286717
880
862
862
862
1020
1020
1020
1020
1020
1020
1020
1020
1020
1020
1020
1020
1005.9285536866919
1000.7495052586055
999.71615238422464
998.86573386628538
997.07054817382345
993.05740057057892
984.68452633691641
968.60667047452898
940.35976370512958
880
862
862
862
1020
1020
1020
1020
1020
1020
1020
1020
1020
1020
1020
1020
1005.6609196467348
1000.7116083248052
999.72095367180191
998.89497528551192
997.14483368460219
993.22630506105315
985.03255816315686
969.23839721760669
941.30869030708686
880
862
862
862
1020
1020
1020
1020
1020
1020
1020
1020
1020
1020
1020
1020
1004.1277075405653
999.65838275780357
998.74219781897455
997.95332981059869
996.27056721376266
992.49850226824924
984.6010532136072
969.33149313070112
942.12196491224267
880
862
862
862
1020
1020
1020
1020
1020
1020
1020
1020
1020
1020
967.89193814890746
862
862
862
862
862
862
862
862
862
862
862
862
862
850
1000
1000
1000
1000
1000
1000
1000
1000
1000
1000
1000
1000
1000
1000
1000
1000
1000
1000
1000
1000
1000
1000
1000
1000
1000
1000
1000
1000
1000
1000
1000
1000
1000
1000
1000
1000
1000
1000
1000
1000
1000
1000
1000
1000
1000
1000
1000
1000
1000
1000
1000
1000
1000
1000
1000
1000
1000
1000
1000
1000
1000
1000
1000
1000
1000
1000
1000
1000
1000
1000
1000
1000
1000
1000
1000
1000
1000
1000
1000
1000
1000
1000
1000
1000
1000
1000
1000
1000
1000
1000
1000
1000
1000
1000
1000
1000
1000
1000
1000
1000
1000
1000
1000
1000
1000
1000
1000
1000
1000
1000
1000
1000
1000
1000
1000
1000
1000
1000
1000
1000
1000
1000
1000
1000
1000
1000
1000
1000
1000
1000
1000
1000
1000
1000
1000
1000
1000
1000
1000
1000
1000
1000
1000
1000
1000
1000
1000
1000
1000
1000
1000
1000
1000
1000
1000
1000
1000
1000
1000
1000
1000
1000
1000
1000
1000
1000
1000
1000
1000
1000
1000
1000
1000
1000
1000
1000
1000
1000
1000
1000
1000
1000
1000
1000
1000
1000
1000
1000
1000
1000
1000
1000
1000
1000
1000
1000
1000
1000
1000
1000
1000
1000
1000
1000
1000
1000
1000
1000
1000
1000
1000
1000
1000
1000
1000
1000
1000
1000
1000
1000
1000
1000
1000
1000
1000
1000
1000
1000
1000
1000
1000
1000
1000
1000
1000
1000
1000
1000
1000
1000
1000
1000
1000
1000
1000
1000
1000
1000
1000
1000
1000
1000
1000
1000
1000
1000
1000
1000
1000
1000
1000
1000
1000
1000
1000
1000
1000
1000
1000
1000
1000
1000
1000
1000
1000
1000
1000
1000
1000
1000
1000
1000
1000
1000
1000
1000
1000
1000
1000
1000
1000
1000
1000
1000
1000
1000
1000
1000
1000
1000
1000
1000
1000
1000
1000
1000
SCALARS p float 1
LOOKUP_TABLE default
25004.681136676067
25004.681136676067
25004.681136676067
25004.681136676067
25004.681136676067
25004.681136676067
25004.681136676067
25004.681136676067
25004.681136676067
25004.681136676067
0
0
0
0
0
0
0
0
0
0
0
0
0
0
0
25004.681136676067
25004.681136676067
25004.681136676067
25004.681136676067
25004.681136676067
25004.681136676067
25004.681136676067
25004.681136676067
25004.681136676067
25004.681136676067
25004.681136676067
25004.681136676067
4919.8721139929057
0
0
0
0
0
0
0
0
0
0
0
0
25004.681136676067
25004.681136676067
25004.681136676067
25004.681136676067
25004.681136676067
25004.681136676067
25004.681136676067
25004.681136676067
25004.681136676067
25004.681136676067
25004.681136676067
25004.681136676067
6777.8539939363782
839.45512420022862
0
0
0
0
0
0
0
0
0
0
0
25004.681136676067
25004.681136676067
25004.681136676067
25004.681136676067
25004.681136676067
25004.681136676067
25004.681136676067
25004.681136676067
25004.681136676067
25004.681136676067
25004.681136676067
25004.681136676067
7104.1161024306812
884.46437555401724
0
0
0
0
0
0
0
0
0
0
0
25004.681136676067
25004.681136676067
25004.681136676067
25004.681136676067
25004.681136676067
25004.681136676067
25004.681136676067
25004.681136676067
25004.681136676067
25004.681136676067
25004.681136676067
25004.681136676067
7244.9620689759813
906.29938194197769
0
0
0
0
0
0
0
0
0
0
0
25004.681136676067
25004.681136676067
25004.681136676067
25004.681136676067
25004.681136676067
25004.681136676067
25004.681136676067
25004.681136676067
25004.681136676067
25004.681136676067
25004.681136676067
25004.681136676067
7299.2317799020984
915.452210960863
0
0
0
0
0
0
0
0
0
0
0
25004.681136676067
25004.681136676067
25004.681136676067
25004.681136676067
25004.681136676067
25004.681136676067
25004.681136676067
25004.681136676067
25004.681136676067
25004.681136676067
25004.681136676067
25004.681136676067
7318.7962204731948
918.84688361663359
0
0
0
0
0
0
0
0
0
0
0
25004.681136676067
25004.681136676067
25004.681136676067
25004.681136676067
25004.681136676067
25004.681136676067
25004.681136676067
25004.681136676067
25004.681136676067
25004.681136676067
25004.681136676067
25004.681136676067
7323.987211864589
919.59694848554898
0
0
0
0
0
0
0
0
0
0
0
25004.681136676067
25004.681136676067
25004.681136676067
25004.681136676067
25004.681136676067
25004.681136676067
25004.681136676067
25004.681136676067
25004.681136676067
25004.681136676067
25004.681136676067
25004.681136676067
7319.4870514083213
918.84766876569279
0
0
0
0
0
0
0
0
0
0
0
25004.681136676067
25004.681136676067
25004.681136676067
25004.681136676067
25004.681136676067
25004.681136676067
25004.681136676067
25004.681136676067
25004.681136676067
25004.681136676067
25004.681136676067
25004.681136676067
7299.696873811803
915.57783320000806
0
0
0
0
0
0
0
0
0
0
0
25004.681136676067
25004.681136676067
25004.681136676067
25004.681136676067
25004.681136676067
25004.681136676067
25004.681136676067
25004.681136676067
25004.681136676067
25004.681136676067
25004.681136676067
25004.681136676067
7244.7796694033914
906.35185467294457
0
0
0
0
0
0
0
0
0
0
0
25004.681136676067
25004.681136676067
25004.681136676067
25004.681136676067
25004.681136676067
25004.681136676067
25004.681136676067
25004.681136676067
25004.681136676067
25004.681136676067
25004.681136676067
25004.681136676067
7104.4549840715699
884.30397555548848
0
0
0
0
0
0
0
0
0
0
0
25004.681136676067
25004.681136676067
25004.681136676067
25004.681136676067
25004.681136676067
25004.681136676067
25004.681136676067
25004.681136676067
25004.681136676067
25004.681136676067
25004.681136676067
25004.681136676067
6778.2821452740027
839.49579672173616
0
0
0
0
0
0
0
0
0
0
0
25004.681136676067
25004.681136676067
25004.681136676067
25004.681136676067
25004.681136676067
25004.681136676067
25004.681136676067
25004.681136676067
25004.681136676067
25004.681136676067
25004.681136676067
25004.681136676067
4919.7242720490467
0
0
0
0
0
0
0
0
0
0
0
0
25004.681136676067
25004.681136676067
25004.681136676067
25004.681136676067
25004.681136676067
25004.681136676067
25004.681136676067
25004.681136676067
25004.681136676067
25004.681136676067
0
0
0
0
0
0
0
0
0
0
0
0
0
0
0
0
0
0
0
0
0
0
24870.534642113606
24985.112095506454
0
0
0
24380.26460494025
24997.411940195881
25003.096764114747
0
0
0
24744.496804398565
25001.035261263096
25003.848045750652
0
0
0
24783.282479023648
25001.215273996953
25003.872433228164
0
0
0
24782.011221331559
25001.211795647516
25003.868895245079
0
0
0
24780.732914953252
25001.202853670347
25003.867623999929
0
0
0
24780.262079479984
25001.199107902514
25003.867140286606
0
0
0
24780.101681196706
25001.197773310887
25003.866965374302
0
0
0
24780.051484843807
25001.197354915043
25003.866910135646
0
0
0
24780.051425619982
25001.197354959775
25003.866910009056
0
0
0
24780.101629153029
25001.197773822503
25003.866965393161
0
0
0
24780.261902508297
25001.199107021777
25003.867140231265
0
0
0
24780.732796450862
25001.202852038972
25003.867623746755
0
0
0
24782.011007362937
25001.211792565231
25003.868894686337
0
0
0
24783.281900006863
25001.21527088435
25003.872432982942
0
0
0
24744.495740231476
25001.035258141343
25003.848046047664
0
0
0
24380.260198931875
24997.411925159406
25003.096763273741
0
0
0
0
24870.533985084741
24985.11204572922
0
0
0
0
0
0
0
0
0
0
0
0
0
0
0
0
0
0
0
0
0
0
0
0
0
0
0
0
0
0
0
0
0
0
0
0
0
0
0
0
0
0
0
0
0
0
0
0
0
0
0
0
0
0
0
0
0
0
0
0
0
0
0
0
0
0
0
0
0
0
0
0
0
0
0
0
0
0
0
0
0
0
0
0
0
0
0
0
0
0
0
0
0
0
0
0
0
0
0
0
0
0
0
0
0
0
0
0
0
0
0
0
0
0
0
0
0
0
0
0
0
0
0
0
0
0
0
0
0
0
0
0
0
0
0
0
0
0
0
0
0
0
0
0
0
0
0
0
0
0
0
0
0
0
0
0
0
0
0
0
0
0
0
0
0
0
0
0
0
0
0
0
0
0
0
0
0
0
0
0
0
0
0
0
0
0
0
0
0
0
0
0
0
0
0
SCALARS m float 1
LOOKUP_TABLE default
0.39942306611962441
0.39942306611962441
0.39942306611962441
0.39942306611962441
0.39942306611962441
0.39942306611962441
0.39942306611962441
0.39942306611962441
0.39942306611962441
0.39942306611962441
0.39942306611962441
0.39942306611962441
0.39942306611962441
0.39942306611962441
0.39942306611962441
0.39942306611962441
0.39942306611962441
0.39942306611962441
0.39942306611962441
0.39942306611962441
0.39942306611962441
0.39942306611962441
0.39942306611962441
0.39942306611962441
0.39942306611962441
0.39942306611962441
0.39942306611962441
0.39942306611962441
0.39942306611962441
0.39942306611962441
0.39942306611962441
0.39942306611962441
0.39942306611962441
0.39942306611962441
0.39942306611962441
0.39942306611962441
0.39942306611962441
0.39942306611962441
0.39942306611962441
0.39942306611962441
0.39942306611962441
0.39942306611962441
0.39942306611962441
0.39942306611962441
0.39942306611962441
0.39942306611962441
0.39942306611962441
0.39942306611962441
0.39942306611962441
0.39942306611962441
0.39942306611962441
0.39942306611962441
0.39942306611962441
0.39942306611962441
0.39942306611962441
0.39942306611962441
0.39942306611962441
0.39942306611962441
0.39942306611962441
0.39942306611962441
0.39942306611962441
0.39942306611962441
0.39942306611962441
0.39942306611962441
0.39942306611962441
0.39942306611962441
0.39942306611962441
0.39942306611962441
0.39942306611962441
0.39942306611962441
0.39942306611962441
0.39942306611962441
0.39942306611962441
0.39942306611962441
0.39942306611962441
0.39942306611962441
0.39942306611962441
0.39942306611962441
0.39942306611962441
0.39942306611962441
0.39942306611962441
0.39942306611962441
0.39942306611962441
0.39942306611962441
0.39942306611962441
0.39942306611962441
0.39942306611962441
0.39942306611962441
0.39942306611962441
0.39942306611962441
0.39942306611962441
0.39942306611962441
0.39942306611962441
0.39942306611962441
0.39942306611962441
0.39942306611962441
0.39942306611962441
0.39942306611962441
0.39942306611962441
0.39942306611962441
0.39942306611962441
0.39942306611962441
0.39942306611962441
0.39942306611962441
0.39942306611962441
0.39942306611962441
0.39942306611962441
0.39942306611962441
0.39942306611962441
0.39942306611962441
0.39942306611962441
0.39942306611962441
0.39942306611962441
0.39942306611962441
0.39942306611962441
0.39942306611962441
0.39942306611962441
0.39942306611962441
0.39942306611962441
0.39942306611962441
0.39942306611962441
0.39942306611962441
0.39942306611962441
0.39942306611962441
0.39942306611962441
0.39942306611962441
0.39942306611962441
0.39942306611962441
0.39942306611962441
0.39942306611962441
0.39942306611962441
0.39942306611962441
0.39942306611962441
0.39942306611962441
0.39942306611962441
0.39942306611962441
0.39942306611962441
0.39942306611962441
0.39942306611962441
0.39942306611962441
0.39942306611962441
0.39942306611962441
0.39942306611962441
0.39942306611962441
0.39942306611962441
0.39942306611962441
0.39942306611962441
0.39942306611962441
0.39942306611962441
0.39942306611962441
0.39942306611962441
0.39942306611962441
0.39942306611962441
0.39942306611962441
0.39942306611962441
0.39942306611962441
0.39942306611962441
0.39942306611962441
0.39942306611962441
0.39942306611962441
0.39942306611962441
0.39942306611962441
0.39942306611962441
0.39942306611962441
0.39942306611962441
0.39942306611962441
0.39942306611962441
0.39942306611962441
0.39942306611962441
0.39942306611962441
0.39942306611962441
0.39942306611962441
0.39942306611962441
0.39942306611962441
0.39942306611962441
0.39942306611962441
0.39942306611962441
0.39942306611962441
0.39942306611962441
0.39942306611962441
0.39942306611962441
0.39942306611962441
0.39942306611962441
0.39942306611962441
0.39942306611962441
0.39942306611962441
0.39942306611962441
0.39942306611962441
0.39942306611962441
0.39942306611962441
0.39942306611962441
0.39942306611962441
0.39942306611962441
0.39942306611962441
0.39942306611962441
0.39942306611962441
0.39942306611962441
0.39942306611962441
0.39942306611962441
0.39942306611962441
0.39942306611962441
0.39942306611962441
0.39942306611962441
0.39942306611962441
0.39942306611962441
0.39942306611962441
0.39942306611962441
0.39942306611962441
0.39942306611962441
0.39942306611962441
0.39942306611962441
0.39942306611962441
0.39942306611962441
0.39942306611962441
0.39942306611962441
0.39942306611962441
0.39942306611962441
0.39942306611962441
0.39942306611962441
0.39942306611962441
0.39942306611962441
0.39942306611962441
0.39942306611962441
0.39942306611962441
0.39942306611962441
0.39942306611962441
0.39942306611962441
0.39942306611962441
0.39942306611962441
0.39942306611962441
0.39942306611962441
0.39942306611962441
0.39942306611962441
0.39942306611962441
0.39942306611962441
0.39942306611962441
0.39942306611962441
0.39942306611962441
0.39942306611962441
0.39942306611962441
0.39942306611962441
0.39942306611962441
0.39942306611962441
0.39942306611962441
0.39942306611962441
0.39942306611962441
0.39942306611962441
0.39942306611962441
0.39942306611962441
0.39942306611962441
0.39942306611962441
0.39942306611962441
0.39942306611962441
0.39942306611962441
0.39942306611962441
0.39942306611962441
0.39942306611962441
0.39942306611962441
0.39942306611962441
0.39942306611962441
0.39942306611962441
0.39942306611962441
0.39942306611962441
0.39942306611962441
0.39942306611962441
0.39942306611962441
0.39942306611962441
0.39942306611962441
0.39942306611962441
0.39942306611962441
0.39942306611962441
0.39942306611962441
0.39942306611962441
0.39942306611962441
0.39942306611962441
0.39942306611962441
0.39942306611962441
0.39942306611962441
0.39942306611962441
0.39942306611962441
0.39942306611962441
0.39942306611962441
0.39942306611962441
0.39942306611962441
0.39942306611962441
0.39942306611962441
0.39942306611962441
0.39942306611962441
0.39942306611962441
0.39942306611962441
0.39942306611962441
0.39942306611962441
0.39942306611962441
0.39942306611962441
0.39942306611962441
0.39942306611962441
0.39942306611962441
0.39942306611962441
0.39942306611962441
0.39942306611962441
0.39942306611962441
0.39942306611962441
0.39942306611962441
0.39942306611962441
0.39942306611962441
0.39942306611962441
0.39942306611962441
0.39942306611962441
0.39942306611962441
0.39942306611962441
0.39942306611962441
0.39942306611962441
0.39942306611962441
0.39942306611962441
0.39942306611962441
0.39942306611962441
0.39942306611962441
0.39942306611962441
0.39942306611962441
0.39942306611962441
0.39942306611962441
0.39942306611962441
0.39942306611962441
0.39942306611962441
0.39942306611962441
0.39942306611962441
0.39942306611962441
0.39942306611962441
0.39942306611962441
0.39942306611962441
0.39942306611962441
0.39942306611962441
0.39942306611962441
0.39942306611962441
0.39942306611962441
0.39942306611962441
0.39942306611962441
0.39942306611962441
0.39942306611962441
0.39942306611962441
0.39942306611962441
0.39942306611962441
0.39942306611962441
0.39942306611962441
0.39942306611962441
0.39942306611962441
0.39942306611962441
0.39942306611962441
0.39942306611962441
0.39942306611962441
0.39942306611962441
0.39942306611962441
0.39942306611962441
0.39942306611962441
0.39942306611962441
0.39942306611962441
0.39942306611962441
0.39942306611962441
0.39942306611962441
0.39942306611962441
0.39942306611962441
0.39942306611962441
0.39942306611962441
0.39942306611962441
0.39942306611962441
0.39942306611962441
0.39942306611962441
0.39942306611962441
0.39942306611962441
0.39942306611962441
0.39942306611962441
0.39942306611962441
0.39942306611962441
0.39942306611962441
0.39942306611962441
0.39942306611962441
0.39942306611962441
0.39942306611962441
0.39942306611962441
0.39942306611962441
0.39942306611962441
0.39942306611962441
0.39942306611962441
0.39942306611962441
0.39942306611962441
0.39942306611962441
0.39942306611962441
0.39942306611962441
0.39942306611962441
0.39942306611962441
0.39942306611962441
0.39942306611962441
0.39942306611962441
0.39942306611962441
0.39942306611962441
0.39942306611962441
0.39942306611962441
0.39942306611962441
0.39942306611962441
0.39942306611962441
0.39942306611962441
0.39942306611962441
0.39942306611962441
0.39942306611962441
0.39942306611962441
0.39942306611962441
0.39942306611962441
0.39942306611962441
0.39942306611962441
0.39942306611962441
0.39942306611962441
0.39942306611962441
0.39942306611962441
0.39942306611962441
0.39942306611962441
0.39942306611962441
0.39942306611962441
0.39942306611962441
0.39942306611962441
0.39942306611962441
0.39942306611962441
0.39942306611962441
0.39942306611962441
0.39942306611962441
0.39942306611962441
0.39942306611962441
0.39942306611962441
0.39942306611962441
0.39942306611962441
0.39942306611962441
0.39942306611962441
0.39942306611962441
0.39942306611962441
0.39942306611962441
0.39942306611962441
0.39942306611962441
0.39942306611962441
0.39942306611962441
0.39942306611962441
0.39942306611962441
0.39942306611962441
0.39942306611962441
0.39942306611962441
0.39942306611962441
0.39942306611962441
0.39942306611962441
0.39942306611962441
0.39942306611962441
0.39942306611962441
0.39942306611962441
0.39942306611962441
0.39942306611962441
0.39942306611962441
0.39942306611962441
0.39942306611962441
0.39942306611962441
0.39942306611962441
0.39942306611962441
0.39942306611962441
0.39942306611962441
0.39942306611962441
0.39942306611962441
0.39942306611962441
0.39942306611962441
0.39942306611962441
0.39942306611962441
0.39942306611962441
0.39942306611962441
0.39942306611962441
0.39942306611962441
0.39942306611962441
0.39942306611962441
0.39942306611962441
0.39942306611962441
0.39942306611962441
0.39942306611962441
0.39942306611962441
0.39942306611962441
0.39942306611962441
0.39942306611962441
0.39942306611962441
0.39942306611962441
0.39942306611962441
0.39942306611962441
0.39942306611962441
0.39942306611962441
0.39942306611962441
0.39942306611962441
0.39942306611962441
0.39942306611962441
0.39942306611962441
0.39942306611962441
0.39942306611962441
0.39942306611962441
0.39942306611962441
0.39942306611962441
0.39942306611962441
0.39942306611962441
0.39942306611962441
0.39942306611962441
0.39942306611962441
0.39942306611962441
0.39942306611962441
0.39942306611962441
0.39942306611962441
0.39942306611962441
0.39942306611962441
0.39942306611962441
0.39942306611962441
0.39942306611962441
0.39942306611962441
0.39942306611962441
0.39942306611962441
0.39942306611962441
0.39942306611962441
0.39942306611962441
0.39942306611962441
0.39942306611962441
0.39942306611962441
0.39942306611962441
0.39942306611962441
0.39942306611962441
0.39942306611962441
0.39942306611962441
0.39942306611962441
0.39942306611962441
0.39942306611962441
0.39942306611962441
0.39942306611962441
0.39942306611962441
0.39942306611962441
0.39942306611962441
0.39942306611962441
0.39942306611962441
0.39942306611962441
0.39942306611962441
0.39942306611962441
0.39942306611962441
0.39942306611962441
0.39942306611962441
0.39942306611962441
0.39942306611962441
0.39942306611962441
0.39942306611962441
0.39942306611962441
0.39942306611962441
0.39942306611962441
0.39942306611962441
0.39942306611962441
0.39942306611962441
0.39942306611962441
0.39942306611962441
0.39942306611962441
0.39942306611962441
0.39942306611962441
0.39942306611962441
0.39942306611962441
0.39942306611962441
0.39942306611962441
0.39942306611962441
0.39942306611962441
0.39942306611962441
0.39942306611962441
0.39942306611962441
0.39942306611962441
0.39942306611962441
0.39942306611962441
0.39942306611962441
0.39942306611962441
0.39942306611962441
0.39942306611962441
0.39942306611962441
0.39942306611962441
0.39942306611962441
0.39942306611962441
0.39942306611962441
0.39942306611962441
0.39942306611962441
0.39942306611962441
0.39942306611962441
0.39942306611962441
0.39942306611962441
0.39942306611962441
0.39942306611962441
0.39942306611962441
0.39942306611962441
0.39942306611962441
0.39942306611962441
0.39942306611962441
0.39942306611962441
0.39942306611962441
0.39942306611962441
0.39942306611962441
0.39942306611962441
0.39942306611962441
0.39942306611962441
0.39942306611962441
0.39942306611962441
0.39942306611962441
0.39942306611962441
0.39942306611962441
0.39942306611962441
0.39942306611962441
0.39942306611962441
0.39942306611962441
0.39942306611962441
0.39942306611962441
0.39942306611962441
0.39942306611962441
0.39942306611962441
0.39942306611962441
0.39942306611962441
0.39942306611962441
0.39942306611962441
0.39942306611962441
0.39942306611962441
0.39942306611962441
0.39942306611962441
0.39942306611962441
0.39942306611962441
0.39942306611962441
0.39942306611962441
0.39942306611962441
0.39942306611962441
0.39942306611962441
0.39942306611962441
0.39942306611962441
0.39942306611962441
0.39942306611962441
0.39942306611962441
0.39942306611962441
0.39942306611962441
0.39942306611962441
0.39942306611962441
0.39942306611962441
0.39942306611962441
0.39942306611962441
0.39942306611962441
0.39942306611962441
0.39942306611962441
0.39942306611962441
0.39942306611962441
0.39942306611962441
0.39942306611962441
0.39942306611962441
0.39942306611962441
0.39942306611962441
0.39942306611962441
0.39942306611962441
0.39942306611962441
0.39942306611962441
0.39942306611962441
0.39942306611962441
0.39942306611962441
0.39942306611962441
0.39942306611962441
0.39942306611962441
0.39942306611962441
0.39942306611962441
0.39942306611962441
0.39942306611962441
0.39942306611962441
0.39942306611962441
0.39942306611962441
0.39942306611962441
0.39942306611962441
0.39942306611962441
0.39942306611962441
0.39942306611962441
0.39942306611962441
0.39942306611962441
0.39942306611962441
0.39942306611962441
0.39942306611962441
0.39942306611962441
0.39942306611962441
0.39942306611962441
0.39942306611962441
0.39942306611962441
0.39942306611962441
0.39942306611962441
VECTORS v float
-5.5848973737085224e-05 -0.090538611889310006 0
-6.864076828390002e-05 -0.1180809403210186 0
-7.8064630068684892e-05 -0.14331939079956549 0
-8.4624285619461711e-05 -0.17392170580901337 0
-8.7155242241312934e-05 -0.21291853236503192 0
-8.7188676618918086e-05 -0.26585181179834916 0
-8.5930380354541102e-05 -0.3421660903226299 0
-8.1452273897550221e-05 -0.46357416764439074 0
-7.9103851219106572e-05 -0.69558647085664127 0
-9.1175871300783917e-05 -1.1476889707879079 0
-9.1756340284758088e-05 -1.5703548415050965 0
-9.9140242684348301e-05 -1.6944569810987336 0
-3.9878318307913122e-05 -1.7146512970955698 0
-5.9370684491019799e-06 -1.7176538926203955 0
-3.6912173521186121e-07 -1.7179810355367844 0
-2.3276762221170411e-08 -1.7177025652732276 0
-1.0286370957054133e-09 -1.7169040219020053 0
-3.6914962955036892e-11 -1.7151977065169852 0
-1.087542873778019e-12 -1.7119132241732502 0
-2.6445716776688742e-14 -1.7061727744751762 0
-5.1466019127270453e-16 -1.6970857803735144 0
-7.5123979883132888e-18 -1.6841589568972035 0
-7.7498576575625801e-20 -1.667577052426318 0
-4.8404543719022093e-22 -1.6483084991822921 0
-1.7671229933837836e-26 -1.5181421268622426 0
-1.8955421459332759e-05 -0.09628832378427829 0
-2.4010995372036692e-05 -0.12477001196453992 0
-2.7401074622799612e-05 -0.15133254649223971 0
-3.006224288194009e-05 -0.1829560691715397 0
-3.2059216429144577e-05 -0.22299434646285637 0
-3.3277909691015936e-05 -0.27717526225199796 0
-3.2123617947302287e-05 -0.35450493358920887 0
-2.9992718591727128e-05 -0.47446136859450105 0
-2.8057266952797479e-05 -0.68925181107437672 0
-3.6964428912022212e-05 -1.0971838919474399 0
-7.9481167137839898e-05 -1.5361620157941271 0
-9.6354783771602449e-05 -1.6883217237642676 0
-4.255336476476601e-05 -1.7138428310882055 0
-9.0430583528482387e-06 -1.7175294019829894 0
-1.0412234871427156e-06 -1.7179493031963102 0
-4.9078882392802762e-08 -1.7176659556029004 0
-1.9085247994614879e-09 -1.7168295815865753 0
-6.1450774214707678e-11 -1.7150476859956956 0
-1.6757334205697829e-12 -1.7116305152648446 0
-3.8379685617448741e-14 -1.705681088549116 0
-7.1435408568787262e-16 -1.6963101202074122 0
-1.0169024957784152e-17 -1.6832553179643432 0
-1.0695800856756615e-19 -1.6669468746779772 0
-6.8127454462156249e-22 -1.6482067376564076 0
-5.0816133864205876e-26 -1.5206585070713401 0
-1.7048190971260384e-06 -0.096731752156181017 0
-2.6766276924254049e-06 -0.12538490034888486 0
-2.510413587157222e-06 -0.15216809479013449 0
-3.1799601187798666e-06 -0.18414996969947764 0
-3.8509548702212366e-06 -0.22469726927827177 0
-4.8287588146162793e-06 -0.27957325641443964 0
-6.1936596624909768e-06 -0.35769051219708226 0
-5.7524650989080013e-06 -0.47796558722322718 0
-4.0344255226575914e-06 -0.6895259800093505 0
-2.6137997858827979e-06 -1.0842630052303976 0
-3.0875424945372377e-06 -1.5225865331870589 0
-9.3233676918586265e-06 -1.6852236544918282 0
-9.1511004633906355e-06 -1.7134085411565199 0
-4.901002566365894e-06 -1.7174596043416699 0
-9.1340715942790637e-07 -1.7179294265651126 0
-4.4654782145268005e-08 -1.7176421107063298 0
-1.770840789790553e-09 -1.716777356186092 0
-5.7279882213255386e-11 -1.7149343626979947 0
-1.5591566349137486e-12 -1.7114018775474134 0
-3.5476020284299905e-14 -1.7052614111348017 0
-6.5387899077526427e-16 -1.6956295741499743 0
-9.2261399357463851e-18 -1.6823919647963885 0
-9.7586571881506554e-20 -1.6660628945177516 0
-6.3134685962339747e-22 -1.6472747448319494 0
-6.2638985729521137e-26 -1.5235900623403453 0
6.506158773279204e-08 -0.096651995693582848 0
-1.0903857527292233e-06 -0.12536405372527737 0
-9.4767113457165804e-07 -0.15221352372165486 0
-2.7640593031407517e-06 -0.18428684743266913 0
-2.6837806327920873e-06 -0.22495594540751471 0
3.6497007796891345e-07 -0.2799944273984068 0
-1.3448606208696169e-06 -0.35829348654094773 0
2.0979943654868616e-07 -0.47866384575781468 0
5.0645198845585048e-06 -0.68948561965545019 0
8.8029040506883736e-06 -1.0807434788543575 0
-3.1975223218796359e-06 -1.5181241505212855 0
1.8829299806042011e-05 -1.683880671784316 0
-2.2241051742634838e-07 -1.7131718743362918 0
-7.8811939391624524e-07 -1.7174183275204349 0
-1.5566411503060312e-07 -1.7179158802664813 0
-1.5055872032989569e-08 -1.7176239210128355 0
-7.3827485888931059e-10 -1.7167373293243631 0
-2.7786991124952847e-11 -1.7148488055485622 0
-8.3316330999479491e-13 -1.7112340577277065 0
-2.0381723660032374e-14 -1.704964600887559 0
-3.9789811010429487e-16 -1.6951660099285319 0
-5.9042599499829212e-18 -1.6817823793923756 0
-6.5175272699985298e-20 -1.6653381344906979 0
-4.3685287810308174e-22 -1.6463956918822422 0
-4.8711909806028173e-26 -1.5257127508447339 0
-1.6528561175177737e-06 -0.096580143806272112 0
-2.0033800651241413e-06 -0.12530852061578188 0
-2.2406233382913348e-06 -0.15217399401813722 0
-2.6276326825222291e-06 -0.18427253882972225 0
-2.2541106511195188e-06 -0.22497464319599725 0
-1.3922540750785462e-06 -0.28005657629088732 0
-3.8869966014149301e-07 -0.35840145390527844 0
3.6546707094684436e-07 -0.47878825329341612 0
1.6162863190861266e-06 -0.68937087574829226 0
4.1249751033490372e-06 -1.0795623122143112 0
8.6314325620526196e-06 -1.5166159078830856 0
6.256449744525445e-06 -1.6833785691332031 0
1.4489894244309651e-06 -1.7130692212534191 0
-1.1632988543335813e-07 -1.7173973975837538 0
-4.018898148136764e-08 -1.7179076568207063 0
-3.0579419743520968e-09 -1.7176115265056842 0
-1.9780430954603689e-10 -1.7167102100600515 0
-8.7264547287086075e-12 -1.7147919385261259 0
-2.9981059402781445e-13 -1.7111252217006574 0
-8.1583834083125279e-15 -1.7047768680174951 0
-1.7464928361256516e-16 -1.6948774408469556 0
-2.8194121405596414e-18 -1.6813962424072773 0
-3.3502748895505266e-20 -1.6648616226504116 0
-2.3816984875483811e-22 -1.6458195022001343 0
-2.7820349165111288e-26 -1.5268811064326533 0
-4.6319692889203209e-07 -0.096546554177616484 0
-7.6854163925444405e-08 -0.12527673639464249 0
3.8431614353644198e-07 -0.15214590919215271 0
6.3774465377092273e-07 -0.18425076195647774 0
9.7193489075705825e-07 -0.22495877590000316 0
-6.6516211076577198e-07 -0.2800538405183961 0
-4.7026278897648502e-08 -0.35840838894341676 0
1.3889726789615803e-06 -0.47879485511194891 0
2.4943585263830354e-06 -0.68929444342488411 0
2.9462759277431555e-06 -1.0791392290835495 0
3.6758189915720716e-06 -1.516094165890151 0
2.7931299440409447e-08 -1.6831972503471975 0
-4.1675014301423424e-07 -1.7130272846006205 0
-6.1310512668528789e-08 -1.7173881139430938 0
-6.4106512941834065e-09 -1.7179030728418718 0
-7.7817835253430674e-10 -1.717604019929589 0
-4.622987889809361e-11 -1.7166939505427008 0
-2.3445392072128542e-12 -1.7147584918148195 0
-9.1029725362920568e-14 -1.7110625427462058 0
-2.7735169039872051e-15 -1.7046708507020669 0
-6.5390800393597507e-17 -1.6947166545582313 0
-1.1513342885715273e-18 -1.6811803273927186 0
-1.4779587601263619e-20 -1.6645956556334185 0
-1.1213559341116777e-22 -1.6455098518934299 0
-1.3622375480637755e-26 -1.5274052154783515 0
5.2613875126947241e-07 -0.096529640548146708 0
1.2599990969339871e-06 -0.12525900191012435 0
1.540137173007993e-06 -0.15212854144801244 0
1.0504380448032467e-06 -0.18423194471881871 0
2.0916549729119182e-06 -0.224945952800889 0
4.5191173542708436e-06 -0.28004360738947875 0
4.9342212182936577e-06 -0.3584038753416417 0
6.6717655945792584e-06 -0.47878904370276382 0
7.6490569773328935e-06 -0.68925930347809328 0
7.051389336695405e-06 -1.078992564555519 0
4.843050924619761e-06 -1.5159164089551469 0
-1.9176574367881347e-07 -1.6831317041598179 0
4.1027580663853459e-07 -1.7130105421937827 0
6.4169327000585742e-08 -1.7173839682447283 0
7.2925485311870884e-09 -1.7179008056845417 0
6.2778193609365366e-10 -1.7176001659449756 0
1.7001508191891169e-11 -1.7166856901572238 0
1.1277813999592868e-13 -1.7147417761699448 0
-1.192752678358299e-14 -1.7110317442553618 0
-6.6106758425048704e-16 -1.7046195838775755 0
-2.0297451738259665e-17 -1.6946399470496636 0
-4.1774989832712225e-19 -1.6810776337767359 0
-5.9414594413278929e-21 -1.6644707396296829 0
-4.8439768584436438e-23 -1.6453702489474318 0
-6.3097658749386854e-27 -1.5275999556872166 0
-6.8149748252367254e-07 -0.096522311545107528 0
-1.4643406873154281e-06 -0.12525327104774686 0
8.3841987639118712e-07 -0.15212357173799176 0
-1.1920631962308873e-06 -0.18423193715183159 0
-9.2617038482435952e-07 -0.2249463239882683 0
3.0787946258537274e-06 -0.28004391046238153 0
3.963846223844168e-06 -0.3584079622438513 0
3.3035410235906446e-06 -0.4787921326489149 0
4.6221742589907507e-06 -0.68925458985184085 0
2.2385176137057865e-06 -1.078954994655704 0
-6.7862581402253835e-06 -1.5158707905997393 0
-3.2611408253966975e-06 -1.6831162490387854 0
2.816162965492499e-07 -1.7130094438174728 0
2.2024666024733585e-07 -1.7173830219044091 0
1.4204302983159537e-08 -1.7179001242017029 0
8.5421949067767224e-10 -1.7175989991579677 0
3.2676045900537427e-11 -1.7166832080294097 0
9.1432518978235312e-13 -1.7147368030947676 0
1.8670840877803241e-14 -1.7110226736344702 0
2.5268350483193082e-16 -1.7046046324557893 0
9.7961538306520506e-19 -1.6946177735731067 0
-4.4675844349439863e-20 -1.6810480702314188 0
-1.1279419798450955e-21 -1.664435148369183 0
-1.1477606561544525e-23 -1.6453315036086618 0
-1.903197947273403e-27 -1.5276465724769783 0
5.6778906482639861e-07 -0.096526298832197738 0
5.8446211190360137e-07 -0.12525751460405254 0
8.1355663211777829e-07 -0.15212756100859751 0
3.6974749297980821e-07 -0.18423393419588563 0
1.7764283816388595e-06 -0.2249493353127337 0
9.7369386106361412e-08 -0.28004994025665098 0
-1.5085281046747294e-06 -0.3584097954390264 0
-1.1784663350543689e-06 -0.47879483825454422 0
-1.0736690632326195e-06 -0.68926321804509771 0
-1.9563621904552805e-06 -1.0789913751324416 0
-3.4396310159462481e-06 -1.51591371381875 0
-9.9328339050820513e-07 -1.6831249806131514 0
1.1290649804041899e-07 -1.7130113208414117 0
8.9220872909994667e-08 -1.7173840263045996 0
1.3774639122980161e-08 -1.7179007319867594 0
8.6863708875923764e-10 -1.7176001613058522 0
3.9910732129519776e-11 -1.7166856899638929 0
1.4285755014658575e-12 -1.7147417761626105 0
4.2652564668144379e-14 -1.7110317442551188 0
1.0583022489157642e-15 -1.7046195838775686 0
2.1420285813255772e-17 -1.6946399470496636 0
3.378734447820682e-19 -1.6810776337767359 0
4.0477795982858265e-21 -1.6644707396296829 0
2.9529856684848651e-23 -1.6453702489474318 0
3.130550244515496e-27 -1.5275999556872166 0
-7.1767162514550863e-07 -0.096543892771809248 0
-9.2111400076070899e-07 -0.12527291335022914 0
-1.3172018145473471e-06 -0.15214259758462378 0
5.1283556623073277e-07 -0.18424798959382677 0
1.3845129923994634e-06 -0.22495707125619174 0
1.1023648977228821e-06 -0.28005107298507687 0
9.8628138698824034e-07 -0.35840964475467435 0
1.3437558022748884e-06 -0.47879475219107454 0
2.3198417756918703e-06 -0.6892935376890692 0
3.660501455265883e-06 -1.079142947612054 0
2.2166135537730938e-06 -1.5160972334317255 0
6.0423722791418753e-07 -1.6831898803386904 0
1.2009899888836502e-08 -1.7130239817646584 0
7.8520730685599153e-08 -1.7173884236124568 0
2.2508630542658452e-08 -1.7179030289322128 0
1.44653484943112e-09 -1.7176040176573817 0
7.4079032331483843e-11 -1.7166939504094461 0
3.1691232801329602e-12 -1.7147584918081096 0
1.0933044886806346e-13 -1.7110625427459316 0
3.0683053679463663e-15 -1.7046708507020574 0
6.8310598225076051e-17 -1.6947166545582308 0
1.1552146888247531e-18 -1.6811803273927186 0
1.4412929680243295e-20 -1.6645956556334185 0
1.0704065666609401e-22 -1.6455098518934304 0
1.2533554448224056e-26 -1.5274052154783515 0
7.4083010003711771e-07 -0.096577704312948667 0
8.1342513626268645e-07 -0.12530424857660033 0
1.2253662044953577e-06 -0.15217020166378512 0
1.0145949964335943e-06 -0.18426826607773991 0
9.1385244658662042e-07 -0.22497215502343945 0
1.171191867257694e-07 -0.28005565108740421 0
3.190394763592808e-06 -0.35839925865575012 0
6.6032645157654976e-06 -0.47878463736862342 0
6.1808085094185228e-06 -0.68936961067613622 0
5.1140813963395176e-06 -1.0795688209854515 0
5.3358447692341977e-06 -1.5166245270531511 0
3.4277446572166701e-06 -1.6833778452384145 0
2.0625207678725115e-06 -1.7130677748251071 0
3.2816870565129308e-07 -1.7173986245755155 0
4.287677234127209e-08 -1.7179077719376785 0
3.5767103549010814e-09 -1.7176115304995985 0
2.2311037328161906e-10 -1.7167102101259497 0
9.669689572585303e-12 -1.7147919385247068 0
3.2773210324519273e-13 -1.7111252217005017 0
8.8445548140384098e-15 -1.7047768680174882 0
1.8829497502254078e-16 -1.6948774408469554 0
3.027162369035573e-18 -1.6813962424072773 0
3.585754179355495e-20 -1.6648616226504116 0
2.5429504040121267e-22 -1.6458195022001345 0
2.9876727874669935e-26 -1.5268811064326537 0
-7.6825076698155219e-07 -0.096651102757533358 0
-1.7250997204036511e-06 -0.12536261292734557 0
-2.6190105376384818e-06 -0.15221233609775095 0
-1.0501235054348213e-06 -0.18428466960944703 0
9.7533300465195372e-07 -0.2249507434384907 0
1.148907239348827e-06 -0.2799906585224638 0
2.0401669128898287e-06 -0.35829328430841634 0
2.8756582232931022e-06 -0.47866197625929846 0
3.9278883153762158e-06 -0.68948081860085564 0
2.6756648896250397e-06 -1.0807387417388332 0
2.9842778980534334e-06 -1.5181232040792403 0
1.0080476854379067e-06 -1.6838847878468188 0
2.2311928738130286e-06 -1.7131783914723848 0
7.3408260792201262e-07 -1.7174200625225311 0
1.5489471588782932e-07 -1.7179161067330118 0
1.5084496263778438e-08 -1.7176239303196159 0
7.4853602334810259e-10 -1.7167373296108976 0
2.8406849997221593e-11 -1.7148488055546713 0
8.5892304975414811e-13 -1.711234057727774 0
2.1184122485737162e-14 -1.7049646008875579 0
4.1690174741669694e-16 -1.6951660099285317 0
6.2334997586618881e-18 -1.6817823793923756 0
6.9287986192528068e-20 -1.6653381344906979 0
4.6727711700529291e-22 -1.6463956918822422 0
5.2744009200065272e-26 -1.5257127508447341 0
3.3199921886565522e-06 -0.096729765628359887 0
3.4816317587778164e-06 -0.12538221339005481 0
6.3813596115672518e-06 -0.15216475975297236 0
4.670918995341965e-06 -0.18414704960116693 0
6.8315702263293266e-06 -0.22469469112401594 0
7.4363592719817322e-06 -0.2795701641731268 0
8.3883541859464409e-06 -0.35768893174340977 0
8.6937467363192615e-06 -0.47796122575092242 0
9.2161110110379758e-06 -0.6895161947587658 0
9.3593524772803035e-06 -1.0842583523926634 0
9.1982867970651114e-06 -1.5225819991915868 0
7.1849611992116822e-06 -1.6852219296811395 0
7.490884561183098e-06 -1.7134075565547844 0
4.5977705088003119e-06 -1.7174608623901166 0
8.8154026025285001e-07 -1.7179296050945796 0
4.3253109531224351e-08 -1.717642119922538 0
1.7288647776658563e-09 -1.7167773565159532 0
5.6428214612647064e-11 -1.7149343627070752 0
1.550129567279566e-12 -1.7114018775476094 0
3.5601944756348096e-14 -1.7052614111348046 0
6.6257097445786112e-16 -1.6956295741499743 0
9.4436835209015873e-18 -1.6823919647963885 0
1.0089114341734234e-19 -1.6660628945177516 0
6.5875699735132322e-22 -1.6472747448319494 0
6.595760631824474e-26 -1.5235900623403458 0
2.0156076261542879e-05 -0.096284766173542882 0
2.5819695511225213e-05 -0.12476580203934017 0
2.8119420186397615e-05 -0.15132855403121803 0
3.0687874779833253e-05 -0.18295257121618397 0
3.2877257720946943e-05 -0.22299191923306597 0
3.4853861242980185e-05 -0.27717271798672022 0
3.5692022123498471e-05 -0.35450098070992242 0
3.5040030565375151e-05 -0.47445534412248297 0
3.3669319292141086e-05 -0.68924519344857027 0
4.1316518610246201e-05 -1.0971823381439414 0
7.9753221897409593e-05 -1.536162605961495 0
9.5753456319744445e-05 -1.6883220010368249 0
4.2763305846188995e-05 -1.7138422200583867 0
8.8101633984175453e-06 -1.7175298063630167 0
1.0035025150676978e-06 -1.71794937264041 0
4.7278068985926429e-08 -1.7176659600379069 0
1.8464396044614687e-09 -1.7168295817728063 0
5.9837788966327436e-11 -1.7150476860016992 0
1.6432443768596291e-12 -1.7116305152650007 0
3.7909732464998924e-14 -1.7056810885491189 0
7.1100662621892835e-16 -1.6963101202074125 0
1.0206055904250894e-17 -1.6832553179643432 0
1.0831411166623413e-19 -1.6669468746779772 0
6.9606272763012728e-22 -1.6482067376564076 0
5.222683076182517e-26 -1.5206585070713405 0
5.3723921599484106e-05 -0.090533858196138545 0
6.5967506528614558e-05 -0.11807645023068986 0
7.4604838859009483e-05 -0.1433152662713929 0
8.0651436854800649e-05 -0.17391840696880162 0
8.2678264817432614e-05 -0.21291619038620169 0
8.2429027517024188e-05 -0.26585033060705165 0
8.0376583518899708e-05 -0.34216596858323678 0
7.6296261705798121e-05 -0.46357606186138955 0
6.9847142385339559e-05 -0.69559214114615597 0
7.7060542368810072e-05 -1.1477008570452443 0
8.8903931307693452e-05 -1.5703625665389229 0
9.8846738438975124e-05 -1.6944582718476844 0
4.0065685717625561e-05 -1.7146512675625065 0
5.8611969842838517e-06 -1.7176539717982113 0
3.623757722123401e-07 -1.7179810449326245 0
2.2618742481509279e-08 -1.7177025663485617 0
9.9875080373082624e-10 -1.7169040219629712 0
3.5942939819207281e-11 -1.715197706519398 0
1.0636104373169114e-12 -1.7119132241733244 0
2.5995325737572633e-14 -1.7061727744751782 0
5.0874249767844547e-16 -1.6970857803735144 0
7.4737386437480162e-18 -1.6841589568972035 0
7.7671655958384906e-20 -1.667577052426318 0
4.8889156794903035e-22 -1.6483084991822921 0
1.7924707270610403e-26 -1.518142126862243 0
-0 -0 0
-0 -0 0
-0 -0 0
-0 -0 0
-0 -0 0
-0 -0 0
-0 -0 0
6.1567673205622435e-05 0.108186904915593 0
7.3370117294160831e-05 0.1643408118864492 0
-0 -0 0
-0 -0 0
-0 -0 0
5.4276517562821404e-05 0.091055020073370824 0
6.3087403300430569e-05 0.12225840362771766 0
7.0280355823103971e-05 0.17849330010107284 0
-0 -0 0
-0 -0 0
-0 -0 0
3.3556496566812641e-05 0.095916563454589043 0
4.229510702291546e-05 0.12509967507735026 0
4.8430025385838006e-05 0.18148272071817237 0
-0 -0 0
-0 -0 0
-0 -0 0
1.0126387396215053e-05 0.098763648417550046 0
1.3276181312194804e-05 0.12724516100938851 0
1.6478358821677321e-05 0.18350293318454092 0
-0 -0 0
-0 -0 0
-0 -0 0
8.6090822253349349e-07 0.098916224692928115 0
2.0268164811910896e-06 0.12749293736094577 0
2.9514490543514946e-06 0.18382247999106072 0
-0 -0 0
-0 -0 0
-0 -0 0
1.0014406618884669e-06 0.098816600876667784 0
1.4267382621143392e-06 0.12740194520219258 0
1.5305428239189514e-06 0.18368964525474762 0
-0 -0 0
-0 -0 0
-0 -0 0
1.141327323753813e-06 0.098754007038205249 0
9.9204623821680931e-07 0.12733084290873628 0
8.3684542282020434e-07 0.18359144907023078 0
-0 -0 0
-0 -0 0
-0 -0 0
5.2936154047636711e-08 0.098725014011817699 0
-2.1242725138654916e-07 0.12729538759019304 0
-6.4114420348385162e-07 0.18354285141302371 0
-0 -0 0
-0 -0 0
-0 -0 0
3.5329325041532306e-07 0.098711927198953442 0
2.7834579704650374e-08 0.12728046049641856 0
-6.9452012421084516e-07 0.18352403407123322 0
-0 -0 0
-0 -0 0
-0 -0 0
3.830917542291583e-08 0.098710323867329974 0
-2.122369107746882e-07 0.1272797693904793 0
-5.925963661883275e-07 0.18352439738635187 0
-0 -0 0
-0 -0 0
-0 -0 0
5.3837450531907454e-08 0.098722305268194421 0
-4.8822827353112889e-08 0.12729338812902311 0
-3.0588013336031351e-07 0.18354202643699302 0
-0 -0 0
-0 -0 0
-0 -0 0
2.2191273846086413e-07 0.098752115639027624 0
2.0870482487023211e-07 0.12732827534228533 0
-1.6337309371294722e-07 0.18358870136769898 0
-0 -0 0
-0 -0 0
-0 -0 0
-1.2376967285459505e-07 0.09881559810576733 0
-6.3473154842317308e-08 0.12740007075205137 0
-5.3784900238306106e-07 0.18368706912154431 0
-0 -0 0
-0 -0 0
-0 -0 0
-1.3105823487832022e-06 0.098915111175696693 0
-2.1218977290702128e-06 0.12749109765157807 0
-3.3276961970037358e-06 0.183820050725197 0
-0 -0 0
-0 -0 0
-0 -0 0
-1.1406296983844249e-05 0.098760934647650983 0
-1.4494668152155381e-05 0.12724209653976448 0
-1.7748792702796355e-05 0.18349972897713901 0
-0 -0 0
-0 -0 0
-0 -0 0
-3.34363821034109e-05 0.095912539923477591 0
-4.1634455213323479e-05 0.12509573903110546 0
-4.7381710852196943e-05 0.18147932045122406 0
-0 -0 0
-0 -0 0
-0 -0 0
-5.2243717185511921e-05 0.091050484753720282 0
-6.0604993160259847e-05 0.12225417238330044 0
-6.7106164499514302e-05 0.17849002654245374 0
-0 -0 0
-0 -0 0
-0 -0 0
-0 -0 0
-5.9144468657471854e-05 0.10818241038368932 0
-6.9973957915940176e-05 0.16433723533243771 0
-0 -0 0
-0 -0 0
-0 -0 0
-0 -0 0
-0 -0 0
-0 -0 0
-0 -0 0
-0 -0 0
-0 -0 0
-0 -0 0
-0 -0 0
-0 -0 0
-0 -0 0
-0 -0 0
-0 -0 0
-0 -0 0
-0 -0 0
-0 -0 0
-0 -0 0
-0 -0 0
-0 -0 0
-0 -0 0
-0 -0 0
-0 -0 0
-0 -0 0
-0 -0 0
-0 -0 0
-0 -0 0
-0 -0 0
-0 -0 0
-0 -0 0
-0 -0 0
-0 -0 0
-0 -0 0
-0 -0 0
-0 -0 0
-0 -0 0
-0 -0 0
-0 -0 0
-0 -0 0
-0 -0 0
-0 -0 0
-0 -0 0
-0 -0 0
-0 -0 0
-0 -0 0
-0 -0 0
-0 -0 0
-0 -0 0
-0 -0 0
-0 -0 0
-0 -0 0
-0 -0 0
-0 -0 0
-0 -0 0
-0 -0 0
-0 -0 0
-0 -0 0
-0 -0 0
-0 -0 0
-0 -0 0
-0 -0 0
-0 -0 0
-0 -0 0
-0 -0 0
-0 -0 0
-0 -0 0
-0 -0 0
-0 -0 0
-0 -0 0
-0 -0 0
-0 -0 0
-0 -0 0
-0 -0 0
-0 -0 0
-0 -0 0
-0 -0 0
-0 -0 0
-0 -0 0
-0 -0 0
-0 -0 0
-0 -0 0
-0 -0 0
-0 -0 0
-0 -0 0
-0 -0 0
-0 -0 0
-0 -0 0
-0 -0 0
-0 -0 0
-0 -0 0
-0 -0 0
-0 -0 0
-0 -0 0
-0 -0 0
-0 -0 0
-0 -0 0
-0 -0 0
-0 -0 0
-0 -0 0
-0 -0 0
-0 -0 0
-0 -0 0
-0 -0 0
-0 -0 0
-0 -0 0
-0 -0 0
-0 -0 0
-0 -0 0
-0 -0 0
-0 -0 0
-0 -0 0
-0 -0 0
-0 -0 0
-0 -0 0
-0 -0 0
-0 -0 0
-0 -0 0
-0 -0 0
-0 -0 0
-0 -0 0
-0 -0 0
-0 -0 0
-0 -0 0
-0 -0 0
-0 -0 0
-0 -0 0
-0 -0 0
-0 -0 0
-0 -0 0
-0 -0 0
-0 -0 0
-0 -0 0
-0 -0 0
-0 -0 0
-0 -0 0
-0 -0 0
-0 -0 0
-0 -0 0
-0 -0 0
-0 -0 0
-0 -0 0
-0 -0 0
-0 -0 0
-0 -0 0
-0 -0 0
-0 -0 0
-0 -0 0
-0 -0 0
-0 -0 0
-0 -0 0
-0 -0 0
-0 -0 0
-0 -0 0
-0 -0 0
-0 -0 0
-0 -0 0
-0 -0 0
-0 -0 0
-0 -0 0
-0 -0 0
-0 -0 0
-0 -0 0
-0 -0 0
-0 -0 0
-0 -0 0
-0 -0 0
-0 -0 0
-0 -0 0
-0 -0 0
-0 -0 0
-0 -0 0
-0 -0 0
-0 -0 0
-0 -0 0
-0 -0 0
-0 -0 0
-0 -0 0
-0 -0 0
-0 -0 0
-0 -0 0
-0 -0 0
-0 -0 0
-0 -0 0
-0 -0 0
-0 -0 0
-0 -0 0
-0 -0 0
-0 -0 0
-0 -0 0
-0 -0 0
-0 -0 0
-0 -0 0
-0 -0 0
-0 -0 0
