# vtk DataFile Version 3.0
SPH particles (WCSPH) - legacy PolyData
ASCII
DATASET POLYDATA
POINTS 681 float
0.04998893889625055 0.02110522379800751 0
0.049987461885261271 0.023400146412063418 0
0.04998629778520218 0.025217673205857161 0
0.049985187087084625 0.027027613991061416 0
0.04998417881657842 0.028809203223004114 0
0.049983268400724673 0.030556499211261128 0
0.049982461518564308 0.032272777515247229 0
0.049981578778837465 0.033965025598800734 0
0.049980520876141792 0.03564148270816514 0
0.049979087730469163 0.037310917449702052 0
0.049976886224228224 0.038982333560010185 0
0.049974191541127325 0.040664914612747891 0
0.04997297187908175 0.042368051058166607 0
0.049974072734599792 0.044101642541528707 0
0.049976364708058302 0.045876098478001281 0
0.049979219699619631 0.047702788473323141 0
0.049982133035467842 0.049595669459180425 0
0.049984971281060754 0.051582264334773822 0
0.049987587100516671 0.053686283896795715 0
0.049989840324310725 0.05594093703449992 0
0.049991732418765061 0.05840332237555642 0
0.049993287067129848 0.061131419907129149 0
0.049994576875796538 0.064219844170313983 0
0.04999568206865633 0.067918612090416608 0
0.049997602347025813 0.073037840388448808 0
0.069993969078563312 0.019483860070727683 0
0.069993079240020267 0.022067068132412031 0
0.06999234956378074 0.024147622212671093 0
0.069991682342357905 0.026170418671002751 0
0.069991078575741161 0.028127409422932893 0
0.069990484700922923 0.030022927500050121 0
0.069989894013357368 0.031867911962488997 0
0.069989296403035584 0.033675104391261548 0
0.069988617556400248 0.035456640747000112 0
0.069987641397777814 0.037224167922968475 0
0.069985894318435091 0.038988928312811699 0
0.06998317737509975 0.04076189703662339 0
0.069981473579536352 0.042554004564127605 0
0.069981666449827798 0.044376813826846981 0
0.069983175921227853 0.046242792331174072 0
0.069985308421113654 0.048164689776696787 0
0.069987545656598205 0.050156388512873462 0
0.069989782863241798 0.052244239422893309 0
0.069991715581944225 0.054455353146988066 0
0.069993316833010022 0.056827219729389061 0
0.069994654882323024 0.059414749332809026 0
0.069995735861587124 0.0622923418252792 0
0.069996590993941898 0.06558182222779492 0
0.069997285999711611 0.069567219816159598 0
0.06999845697718983 0.075171853823677581 0
0.089997683859442804 0.019401284919102861 0
0.089997297607556079 0.021990972453603319 0
0.089997030463995847 0.024078040843270324 0
0.089996707078169452 0.026110397444569378 0
0.089996389855338865 0.028078954768495614 0
0.089996126487308842 0.029987381995290496 0
0.08999564774917744 0.031846465638204757 0
0.089995399737341969 0.033668728891864556 0
0.089995061512186753 0.035466306778883669 0
0.089994692052672506 0.037250902529176746 0
0.089994281896009665 0.039033775137938438 0
0.089993514606665589 0.04082604393890743 0
0.089992601321414151 0.042638688910608465 0
0.089992207373144242 0.044483393268637067 0
0.089992697489836779 0.046373148047785764 0
0.08999354340087394 0.048322692829636783 0
0.089994509918829166 0.050346979976209343 0
0.089995422602926353 0.05246445688550766 0
0.089996208866641419 0.054705267432855781 0
0.089996859471693086 0.057107364870716999 0
0.089997410676297754 0.059724203689388314 0
0.089997866748029384 0.062635837850310128 0
0.089998245623959305 0.065967039117108633 0
0.089998571031498067 0.069998818476738167 0
0.089999183024628615 0.075683839951516313 0
0.10999926444238564 0.019417811449869146 0
0.10999907188930061 0.022008735909876617 0
0.10999891459451101 0.024097157240208406 0
0.10999875898475427 0.026131256771719347 0
0.10999861322656621 0.028101921527245374 0
0.10999859534193625 0.030012748879351674 0
0.10999861944500199 0.031874561266573433 0
0.10999852777618981 0.033699806625818361 0
0.1099984478337294 0.035500597181061459 0
0.10999831977695201 0.037288700909507783 0
0.10999810340390184 0.039075441907216374 0
0.10999831919593293 0.040871929596326184 0
0.10999768093167239 0.042689129225359744 0
0.10999714711777146 0.044538819086171577 0
0.10999718113647949 0.046433992711883143 0
0.10999744058108282 0.048389563663097789 0
0.10999773088865392 0.0504216262825 0
0.10999814616138257 0.05254600883953265 0
0.10999844550586443 0.054793769114014679 0
0.10999869468722259 0.057202714446746759 0
0.10999888483910544 0.059827807370651791 0
0.10999906249492065 0.062749837432136399 0
0.10999920476394275 0.066091305043442822 0
0.10999934012803635 0.070133645495559838 0
0.10999962110369237 0.07584210757693724 0
0.12999985178929516 0.019430443043038599 0
0.12999982826941503 0.022022610127628125 0
0.1299998083284003 0.024111978663536527 0
0.12999980094981226 0.026146986998006615 0
0.12999985291546529 0.028118505776420034 0
0.12999989842059481 0.03003023710577209 0
0.12999993621474543 0.031893020369342565 0
0.12999996252346688 0.033719198668158867 0
0.13000001887656812 0.035521020540098806 0
0.13000012890315615 0.037310195270505594 0
0.13000019521384085 0.039098037735191674 0
0.13000005091800951 0.04089572181349603 0
0.12999980684836662 0.042714343575304278 0
0.12999952112968183 0.044565431156758199 0
0.1299993077045376 0.046462211239209912 0
0.12999920357254391 0.048419486985205526 0
0.12999929099550575 0.050453328288945491 0
0.12999940165501914 0.052579587079451179 0
0.12999948944717121 0.054829358989965819 0
0.12999956273728133 0.057240385457572367 0
0.12999962627600661 0.059868046650333816 0
0.12999967268546994 0.062793056986460316 0
0.12999972328033432 0.066137079278798444 0
0.12999977304827048 0.070181669875554589 0
0.12999986127910532 0.075898870684744421 0
0.15000019280464838 0.019436451555701541 0
0.15000022285095074 0.022029258234012281 0
0.15000026032823777 0.024119120309978807 0
0.1500003158237411 0.026154602006808129 0
0.15000048842792982 0.028126564698592881 0
0.1500005299368169 0.030038673566725627 0
0.15000052987820284 0.031901815928190705 0
0.15000055929493658 0.033728406259516085 0
0.15000061186557892 0.035530631270716394 0
0.15000066299878076 0.037320217201728602 0
0.15000074409889935 0.039108517302417933 0
0.15000062008075837 0.040906638237989443 0
0.15000058253827175 0.042725793966570211 0
0.15000039866145817 0.044577468183023793 0
0.15000017313264152 0.046474804834193188 0
0.15000007797174406 0.048432664151711685 0
0.15000002293050477 0.050467148767445194 0
0.15000002129351953 0.052594066264083493 0
0.15000003417773336 0.054844573781506908 0
0.15000004338551343 0.057256378988108571 0
0.15000002640755192 0.059884874753239302 0
0.15000002873142204 0.062810706130434782 0
0.15000004315860488 0.066155416127759076 0
0.15000004509523726 0.070200435081500465 0
0.15000003395681172 0.075921334523968806 0
0.17000041604907445 0.019439042972441159 0
0.17000049521499386 0.022032133948865277 0
0.17000054037800441 0.024122200177842217 0
0.17000067514602352 0.026157835176035801 0
0.1700007614147088 0.028129937432536029 0
0.17000090139042098 0.030042235860330318 0
0.1700011015770371 0.031905582783115664 0
0.17000116940425095 0.033732346759712636 0
0.17000120896137111 0.035534713981404904 0
0.170001242095488 0.037324454992474367 0
0.17000124989207568 0.039112942362228037 0
0.17000115059677698 0.040911294340287271 0
0.17000112451070365 0.042730607797451893 0
0.17000111596234369 0.044582414282596891 0
0.17000070541009693 0.046479968732451526 0
0.17000055717778764 0.048438109812835708 0
0.1700004535578116 0.050472847783421211 0
0.17000038286967897 0.052600021372853335 0
0.1700003410018136 0.054850800422253397 0
0.17000031146066158 0.057262895492474424 0
0.17000025372433031 0.059891693267496521 0
0.17000021918534003 0.062817805351274944 0
0.17000019333396066 0.066162709790920898 0
0.17000017989635433 0.07020774769407008 0
0.17000014943704903 0.075930227720164292 0
0.19000037727872043 0.019439786908947768 0
0.19000042408239781 0.022032916740561504 0
0.19000060747760678 0.024123130970412882 0
0.19000066502993315 0.026158786941490073 0
0.19000077263462198 0.028130910159283418 0
0.19000098846319088 0.030043295911605088 0
0.19000120553056354 0.031906615550556426 0
0.19000120505114365 0.033733332214727879 0
0.19000126794752742 0.035535701289477965 0
0.19000130555479988 0.037325486094855032 0
0.19000119404984037 0.03911399794487487 0
0.19000119084273306 0.040912425859097344 0
0.19000088257918363 0.042731829016731358 0
0.19000080261262095 0.044583764786409477 0
0.19000075324562982 0.046481381576149776 0
0.19000060533601804 0.048439573415264225 0
0.19000055453871398 0.050474389850307409 0
0.19000055443788189 0.052601642941359161 0
0.19000048400272221 0.054852504329423346 0
0.1900005272051809 0.05726469398448604 0
0.19000045314160821 0.059893574269046866 0
0.19000037249725996 0.062819771769271865 0
0.19000029214833633 0.066164714700281096 0
0.19000025588347424 0.0702097379815117 0
0.19000020616510607 0.075932640569452717 0
0.21000042632916111 0.019439126971357631 0
0.21000051742916265 0.022032188334287477 0
0.21000058909639235 0.024122252447537108 0
0.21000065780120755 0.026157916399635397 0
0.21000076751239924 0.028130016389045564 0
0.21000080094161394 0.030042321000342612 0
0.21000090141121544 0.031905652532104437 0
0.21000094146997611 0.033732403679686038 0
0.21000101268173685 0.035534781453847163 0
0.21000105213612433 0.037324545367196371 0
0.21000104020554894 0.03911301957999546 0
0.21000100051468906 0.040911352674581639 0
0.21000082134546785 0.042730638294451319 0
0.21000067334601202 0.044582481481303102 0
0.2100006617448219 0.046480044601005188 0
0.21000057240222758 0.048438154194168519 0
0.21000055120215105 0.050472915013873805 0
0.21000058935808344 0.052600092513736235 0
0.21000043454392286 0.054850884503039148 0
0.2100003998155987 0.057263012823137616 0
0.21000036857612708 0.059891807473479358 0
0.21000035616026574 0.0628179473887963 0
0.21000030877626119 0.066162851203562009 0
0.21000027524788781 0.070207892531223046 0
0.2100002190884388 0.075930334549967074 0
0.23000052154104525 0.019436555719177614 0
0.23000061214929254 0.022029400430930126 0
0.23000071203140274 0.024119292957578729 0
0.23000080241209386 0.026154731184403441 0
0.23000093557649612 0.028126723403523221 0
0.23000103084228096 0.030038846368249682 0
0.2300011261251115 0.031902006564956169 0
0.23000118749016291 0.033728589057727694 0
0.23000132898149578 0.03553081797427024 0
0.23000142781376312 0.037320381946992401 0
0.23000145317485787 0.039108670658942822 0
0.23000125570631846 0.04090684298889638 0
0.23000107383239954 0.042725963733188717 0
0.23000098446243344 0.044577591443981469 0
0.23000097210155854 0.046474896848892173 0
0.23000090446031168 0.048432789317295083 0
0.23000080703396097 0.050467290749788542 0
0.23000070791805538 0.05259423174029372 0
0.23000065763810101 0.054844760068902876 0
0.23000058137114449 0.057256594187452582 0
0.23000052004322169 0.059885081088219508 0
0.23000046141502342 0.062810928075110961 0
0.23000040535536478 0.066155635248913353 0
0.23000035741777256 0.070200633367955123 0
0.23000024592012408 0.075921523585102763 0
0.2500007103337335 0.019430474926126508 0
0.25000083361206954 0.022022649725012278 0
0.25000092340278135 0.024112078358783106 0
0.25000106343181711 0.02614713711023282 0
0.25000118147025646 0.028118667524263705 0
0.25000129634421447 0.030030404347284319 0
0.25000135071691554 0.031893213041730484 0
0.25000151310359353 0.033719417764331842 0
0.25000161320348646 0.035521252702012646 0
0.25000173718018737 0.037310395232049813 0
0.25000181806533311 0.039098255030747778 0
0.25000174838094552 0.040895942935542433 0
0.25000164122975893 0.042714605190875908 0
0.25000180526221427 0.044565658750143865 0
0.25000168566443265 0.04646243721157816 0
0.25000160556278173 0.048419744931713596 0
0.25000143529163688 0.050453610065312758 0
0.25000122842060413 0.052579857448095527 0
0.25000107019043694 0.054829611025593722 0
0.25000094394954891 0.057240637138306322 0
0.25000082930764217 0.0598682961602931 0
0.25000071799371237 0.062793291111297542 0
0.25000061999491419 0.066137313303496578 0
0.25000053167113179 0.070181886561997586 0
0.25000034308637703 0.075899133975709202 0
0.27000114467603842 0.019417854627529645 0
0.27000135576564016 0.02200878999474996 0
0.27000151057087923 0.024097222814158929 0
0.27000167974867489 0.026131347469620207 0
0.27000197814975463 0.028102058296874125 0
0.27000215133398719 0.030012916613569758 0
0.27000232467286406 0.031874828704862808 0
0.27000252846995537 0.033700081246948697 0
0.27000274258009921 0.03550089439580062 0
0.2700029571442415 0.037289006026464261 0
0.27000318277741708 0.039075713322862707 0
0.27000328367764159 0.040872158935490698 0
0.27000383707561582 0.042689389209614188 0
0.27000379144765585 0.044539031336635178 0
0.27000362010117757 0.04643420426784995 0
0.27000327656503703 0.048389814485197115 0
0.27000283716054951 0.050421902840418635 0
0.27000239339619142 0.052546294727156551 0
0.27000204268757622 0.054794015418041526 0
0.27000175627061757 0.057202956181078783 0
0.27000148516819794 0.059828091643092933 0
0.27000125904492261 0.06275015730856856 0
0.27000107267999957 0.066091634143938982 0
0.27000090474411659 0.070133984932417875 0
0.27000056051697618 0.075842472956624635 0
0.29000258729321682 0.019401402597360746 0
0.29000300682348951 0.021991071927279914 0
0.29000333196884365 0.024078159027030876 0
0.29000365990363414 0.02611054063488686 0
0.29000399153677292 0.028079084208844054 0
0.29000435441878164 0.029987528962519369 0
0.29000472677897826 0.031846757634547453 0
0.2900051522109291 0.033669073781314438 0
0.2900056174254852 0.035466668661882209 0
0.29000614517821738 0.037251251512105628 0
0.29000673530229026 0.039034136485329461 0
0.29000737455922926 0.040826351207815526 0
0.29000801502722079 0.042638980349533201 0
0.29000819280992945 0.0444836510707943 0
0.29000772156010701 0.046373411292413028 0
0.29000691562104858 0.048322964099968641 0
0.29000593122677237 0.050347308394931393 0
0.2900049880279445 0.052464810052198697 0
0.29000413717258816 0.054705606320870043 0
0.29000344036149911 0.057107694346425708 0
0.29000286061863678 0.059724541828241516 0
0.29000238704519937 0.062636210572939485 0
0.29000199654805953 0.065967419027206764 0
0.29000164725851363 0.069999197163018459 0
0.29000098401246488 0.075684233864232606 0
0.31000625738197557 0.01948405630440999 0
0.31000717478440987 0.022067289076164627 0
0.3100078543667395 0.024147820790691672 0
0.31000849916947693 0.026170685814766732 0
0.31000912930157304 0.028127679268041304 0
0.31000975924665541 0.030023141134309553 0
0.31001038770238343 0.031868234174473216 0
0.31001100198930293 0.033675449969956306 0
0.31001173921427322 0.03545696161653946 0
0.31001271653680501 0.037224456586597128 0
0.31001455188248256 0.03898916719223107 0
0.3100172368389672 0.040762130888349304 0
0.31001875966565051 0.042554269341492687 0
0.31001838015921857 0.044377077145015167 0
0.31001695018662556 0.046243041948250477 0
0.31001494317033901 0.048164948067373217 0
0.31001269604502002 0.050156675591712378 0
0.31001048059027275 0.052244564818049663 0
0.31000852509398025 0.054455727156483787 0
0.31000687266927451 0.056827590388489703 0
0.3100055189130555 0.059415132198051772 0
0.31000443257654725 0.062292712160838391 0
0.31000356281065811 0.065582185611372551 0
0.31000283901645759 0.069567586518321498 0
0.3100016302235637 0.075172228042682879 0
0.33001074782356338 0.021105585469221873 0
0.33001216243942111 0.023400497776470467 0
0.33001327175966477 0.025217999759185629 0
0.33001431820877192 0.027027911087102362 0
0.33001524745431804 0.028809473179920206 0
0.33001609407797344 0.030556732605729983 0
0.33001689663544653 0.032272988673702874 0
0.33001774361534603 0.033965202073938501 0
0.33001864955440285 0.035641613897356893 0
0.33001987232285135 0.037311008655408068 0
0.33002194851186895 0.038982395558548787 0
0.33002461764444052 0.040664965982834998 0
0.33002575211148871 0.042368090894697653 0
0.3300246195040869 0.04410164741946819 0
0.33002245190939283 0.045876099071732138 0
0.33001975050827109 0.047702782061591377 0
0.33001685943898462 0.049595664477211178 0
0.33001405657885197 0.051582244691724136 0
0.3300115633706317 0.053686274336070601 0
0.33000942452644011 0.055940926888663658 0
0.33000765781326735 0.058403290007975069 0
0.33000621370084549 0.061131362647125299 0
0.33000503664224357 0.064219767870590819 0
0.33000407206635196 0.067918538613771728 0
0.33000232939864171 0.073037831895115535 0
0 0 0
0 0.020000000000000004 0
0 0.040000000000000001 0
0 0.54999999999999993 0
0 0.56000000000000005 0
0 0.58000000000000007 0
0.02 0 0
0.02 0.020000000000000004 0
0.02 0.040000000000000001 0
0.02 0.54999999999999993 0
0.02 0.56000000000000005 0
0.02 0.58000000000000007 0
0.040000000000000001 0 0
0.040000000000000001 0.020000000000000004 0
0.040000000000000001 0.040000000000000001 0
0.040000000000000001 0.54999999999999993 0
0.040000000000000001 0.56000000000000005 0
0.040000000000000001 0.58000000000000007 0
0.059999999999999998 0 0
0.059999999999999998 0.020000000000000004 0
0.059999999999999998 0.040000000000000001 0
0.059999999999999998 0.54999999999999993 0
0.059999999999999998 0.56000000000000005 0
0.059999999999999998 0.58000000000000007 0
0.080000000000000002 0 0
0.080000000000000002 0.020000000000000004 0
0.080000000000000002 0.040000000000000001 0
0.080000000000000002 0.54999999999999993 0
0.080000000000000002 0.56000000000000005 0
0.080000000000000002 0.58000000000000007 0
0.10000000000000001 0 0
0.10000000000000001 0.020000000000000004 0
0.10000000000000001 0.040000000000000001 0
0.10000000000000001 0.54999999999999993 0
0.10000000000000001 0.56000000000000005 0
0.10000000000000001 0.58000000000000007 0
0.12 0 0
0.12 0.020000000000000004 0
0.12 0.040000000000000001 0
0.12 0.54999999999999993 0
0.12 0.56000000000000005 0
0.12 0.58000000000000007 0
0.14000000000000001 0 0
0.14000000000000001 0.020000000000000004 0
0.14000000000000001 0.040000000000000001 0
0.14000000000000001 0.54999999999999993 0
0.14000000000000001 0.56000000000000005 0
0.14000000000000001 0.58000000000000007 0
0.16 0 0
0.16 0.020000000000000004 0
0.16 0.040000000000000001 0
0.16 0.54999999999999993 0
0.16 0.56000000000000005 0
0.16 0.58000000000000007 0
0.17999999999999999 0 0
0.17999999999999999 0.020000000000000004 0
0.17999999999999999 0.040000000000000001 0
0.17999999999999999 0.54999999999999993 0
0.17999999999999999 0.56000000000000005 0
0.17999999999999999 0.58000000000000007 0
0.20000000000000001 0 0
0.20000000000000001 0.020000000000000004 0
0.20000000000000001 0.040000000000000001 0
0.20000000000000001 0.54999999999999993 0
0.20000000000000001 0.56000000000000005 0
0.20000000000000001 0.58000000000000007 0
0.22 0 0
0.22 0.020000000000000004 0
0.22 0.040000000000000001 0
0.22 0.54999999999999993 0
0.22 0.56000000000000005 0
0.22 0.58000000000000007 0
0.23999999999999999 0 0
0.23999999999999999 0.020000000000000004 0
0.23999999999999999 0.040000000000000001 0
0.23999999999999999 0.54999999999999993 0
0.23999999999999999 0.56000000000000005 0
0.23999999999999999 0.58000000000000007 0
0.26000000000000001 0 0
0.26000000000000001 0.020000000000000004 0
0.26000000000000001 0.040000000000000001 0
0.26000000000000001 0.54999999999999993 0
0.26000000000000001 0.56000000000000005 0
0.26000000000000001 0.58000000000000007 0
0.28000000000000003 0 0
0.28000000000000003 0.020000000000000004 0
0.28000000000000003 0.040000000000000001 0
0.28000000000000003 0.54999999999999993 0
0.28000000000000003 0.56000000000000005 0
0.28000000000000003 0.58000000000000007 0
0.29999999999999999 0 0
0.29999999999999999 0.020000000000000004 0
0.29999999999999999 0.040000000000000001 0
0.29999999999999999 0.54999999999999993 0
0.29999999999999999 0.56000000000000005 0
0.29999999999999999 0.58000000000000007 0
0.32000000000000001 0 0
0.32000000000000001 0.020000000000000004 0
0.32000000000000001 0.040000000000000001 0
0.32000000000000001 0.54999999999999993 0
0.32000000000000001 0.56000000000000005 0
0.32000000000000001 0.58000000000000007 0
0.34000000000000002 0 0
0.34000000000000002 0.020000000000000004 0
0.34000000000000002 0.040000000000000001 0
0.34000000000000002 0.54999999999999993 0
0.34000000000000002 0.56000000000000005 0
0.34000000000000002 0.58000000000000007 0
0.35999999999999999 0 0
0.35999999999999999 0.020000000000000004 0
0.35999999999999999 0.040000000000000001 0
0.35999999999999999 0.54999999999999993 0
0.35999999999999999 0.56000000000000005 0
0.35999999999999999 0.58000000000000007 0
0.38 0 0
0.38 0.020000000000000004 0
0.38 0.040000000000000001 0
0.38 0.54999999999999993 0
0.38 0.56000000000000005 0
0.38 0.58000000000000007 0
0.40000000000000002 0 0
0.40000000000000002 0.020000000000000004 0
0.40000000000000002 0.040000000000000001 0
0.40000000000000002 0.54999999999999993 0
0.40000000000000002 0.56000000000000005 0
0.40000000000000002 0.58000000000000007 0
0.41999999999999998 0 0
0.41999999999999998 0.020000000000000004 0
0.41999999999999998 0.040000000000000001 0
0.41999999999999998 0.54999999999999993 0
0.41999999999999998 0.56000000000000005 0
0.41999999999999998 0.58000000000000007 0
0.44 0 0
0.44 0.020000000000000004 0
0.44 0.040000000000000001 0
0.44 0.54999999999999993 0
0.44 0.56000000000000005 0
0.44 0.58000000000000007 0
0.46000000000000002 0 0
0.46000000000000002 0.020000000000000004 0
0.46000000000000002 0.040000000000000001 0
0.46000000000000002 0.54999999999999993 0
0.46000000000000002 0.56000000000000005 0
0.46000000000000002 0.58000000000000007 0
0.47999999999999998 0 0
0.47999999999999998 0.020000000000000004 0
0.47999999999999998 0.040000000000000001 0
0.47999999999999998 0.54999999999999993 0
0.47999999999999998 0.56000000000000005 0
0.47999999999999998 0.58000000000000007 0
0.5 0 0
0.5 0.020000000000000004 0
0.5 0.040000000000000001 0
0.5 0.54999999999999993 0
0.5 0.56000000000000005 0
0.5 0.58000000000000007 0
0.52000000000000002 0 0
0.52000000000000002 0.020000000000000004 0
0.52000000000000002 0.040000000000000001 0
0.52000000000000002 0.54999999999999993 0
0.52000000000000002 0.56000000000000005 0
0.52000000000000002 0.58000000000000007 0
0.54000000000000004 0 0
0.54000000000000004 0.020000000000000004 0
0.54000000000000004 0.040000000000000001 0
0.54000000000000004 0.54999999999999993 0
0.54000000000000004 0.56000000000000005 0
0.54000000000000004 0.58000000000000007 0
0.56000000000000005 0 0
0.56000000000000005 0.020000000000000004 0
0.56000000000000005 0.040000000000000001 0
0.56000000000000005 0.54999999999999993 0
0.56000000000000005 0.56000000000000005 0
0.56000000000000005 0.58000000000000007 0
0.57999999999999996 0 0
0.57999999999999996 0.020000000000000004 0
0.57999999999999996 0.040000000000000001 0
0.57999999999999996 0.54999999999999993 0
0.57999999999999996 0.56000000000000005 0
0.57999999999999996 0.58000000000000007 0
0.59999999999999998 0 0
0.59999999999999998 0.020000000000000004 0
0.59999999999999998 0.040000000000000001 0
0.59999999999999998 0.54999999999999993 0
0.59999999999999998 0.56000000000000005 0
0.59999999999999998 0.58000000000000007 0
0.62 0 0
0.62 0.020000000000000004 0
0.62 0.040000000000000001 0
0.62 0.54999999999999993 0
0.62 0.56000000000000005 0
0.62 0.58000000000000007 0
0.64000000000000001 0 0
0.64000000000000001 0.020000000000000004 0
0.64000000000000001 0.040000000000000001 0
0.64000000000000001 0.54999999999999993 0
0.64000000000000001 0.56000000000000005 0
0.64000000000000001 0.58000000000000007 0
0.66000000000000003 0 0
0.66000000000000003 0.020000000000000004 0
0.66000000000000003 0.040000000000000001 0
0.66000000000000003 0.54999999999999993 0
0.66000000000000003 0.56000000000000005 0
0.66000000000000003 0.58000000000000007 0
0.68000000000000005 0 0
0.68000000000000005 0.020000000000000004 0
0.68000000000000005 0.040000000000000001 0
0.68000000000000005 0.54999999999999993 0
0.68000000000000005 0.56000000000000005 0
0.68000000000000005 0.58000000000000007 0
0.70000000000000007 0 0
0.70000000000000007 0.020000000000000004 0
0.70000000000000007 0.040000000000000001 0
0.70000000000000007 0.54999999999999993 0
0.70000000000000007 0.56000000000000005 0
0.70000000000000007 0.58000000000000007 0
0.71999999999999997 0 0
0.71999999999999997 0.020000000000000004 0
0.71999999999999997 0.040000000000000001 0
0.71999999999999997 0.54999999999999993 0
0.71999999999999997 0.56000000000000005 0
0.71999999999999997 0.58000000000000007 0
0.73999999999999999 0 0
0.73999999999999999 0.020000000000000004 0
0.73999999999999999 0.040000000000000001 0
0.73999999999999999 0.54999999999999993 0
0.73999999999999999 0.56000000000000005 0
0.73999999999999999 0.58000000000000007 0
0.76000000000000001 0 0
0.76000000000000001 0.020000000000000004 0
0.76000000000000001 0.040000000000000001 0
0.76000000000000001 0.54999999999999993 0
0.76000000000000001 0.56000000000000005 0
0.76000000000000001 0.58000000000000007 0
0.78000000000000003 0 0
0.78000000000000003 0.020000000000000004 0
0.78000000000000003 0.040000000000000001 0
0.78000000000000003 0.54999999999999993 0
0.78000000000000003 0.56000000000000005 0
0.78000000000000003 0.58000000000000007 0
0.80000000000000004 0 0
0.80000000000000004 0.020000000000000004 0
0.80000000000000004 0.040000000000000001 0
0.80000000000000004 0.54999999999999993 0
0.80000000000000004 0.56000000000000005 0
0.80000000000000004 0.58000000000000007 0
0.82000000000000006 0 0
0.82000000000000006 0.020000000000000004 0
0.82000000000000006 0.040000000000000001 0
0.82000000000000006 0.54999999999999993 0
0.82000000000000006 0.56000000000000005 0
0.82000000000000006 0.58000000000000007 0
0.83999999999999997 0 0
0.83999999999999997 0.020000000000000004 0
0.83999999999999997 0.040000000000000001 0
0.83999999999999997 0.54999999999999993 0
0.83999999999999997 0.56000000000000005 0
0.83999999999999997 0.58000000000000007 0
0.85999999999999999 0 0
0.85999999999999999 0.020000000000000004 0
0.85999999999999999 0.040000000000000001 0
0.85999999999999999 0.54999999999999993 0
0.85999999999999999 0.56000000000000005 0
0.85999999999999999 0.58000000000000007 0
0.88 0 0
0.88 0.020000000000000004 0
0.88 0.040000000000000001 0
0.88 0.54999999999999993 0
0.88 0.56000000000000005 0
0.88 0.58000000000000007 0
0.90000000000000002 0 0
0.90000000000000002 0.020000000000000004 0
0.90000000000000002 0.040000000000000001 0
0.90000000000000002 0.54999999999999993 0
0.90000000000000002 0.56000000000000005 0
0.90000000000000002 0.58000000000000007 0
0.92000000000000004 0 0
0.92000000000000004 0.020000000000000004 0
0.92000000000000004 0.040000000000000001 0
0.92000000000000004 0.54999999999999993 0
0.92000000000000004 0.56000000000000005 0
0.92000000000000004 0.58000000000000007 0
0.94000000000000006 0 0
0.94000000000000006 0.020000000000000004 0
0.94000000000000006 0.040000000000000001 0
0.94000000000000006 0.54999999999999993 0
0.94000000000000006 0.56000000000000005 0
0.94000000000000006 0.58000000000000007 0
0.95999999999999996 0 0
0.95999999999999996 0.020000000000000004 0
0.95999999999999996 0.040000000000000001 0
0.95999999999999996 0.54999999999999993 0
0.95999999999999996 0.56000000000000005 0
0.95999999999999996 0.58000000000000007 0
0.97999999999999998 0 0
0.97999999999999998 0.020000000000000004 0
0.97999999999999998 0.040000000000000001 0
0.97999999999999998 0.54999999999999993 0
0.97999999999999998 0.56000000000000005 0
0.97999999999999998 0.58000000000000007 0
1 0 0
1 0.020000000000000004 0
1 0.040000000000000001 0
1 0.54999999999999993 0
1 0.56000000000000005 0
1 0.58000000000000007 0
VERTICES 681 1362
1 0
1 1
1 2
1 3
1 4
1 5
1 6
1 7
1 8
1 9
1 10
1 11
1 12
1 13
1 14
1 15
1 16
1 17
1 18
1 19
1 20
1 21
1 22
1 23
1 24
1 25
1 26
1 27
1 28
1 29
1 30
1 31
1 32
1 33
1 34
1 35
1 36
1 37
1 38
1 39
1 40
1 41
1 42
1 43
1 44
1 45
1 46
1 47
1 48
1 49
1 50
1 51
1 52
1 53
1 54
1 55
1 56
1 57
1 58
1 59
1 60
1 61
1 62
1 63
1 64
1 65
1 66
1 67
1 68
1 69
1 70
1 71
1 72
1 73
1 74
1 75
1 76
1 77
1 78
1 79
1 80
1 81
1 82
1 83
1 84
1 85
1 86
1 87
1 88
1 89
1 90
1 91
1 92
1 93
1 94
1 95
1 96
1 97
1 98
1 99
1 100
1 101
1 102
1 103
1 104
1 105
1 106
1 107
1 108
1 109
1 110
1 111
1 112
1 113
1 114
1 115
1 116
1 117
1 118
1 119
1 120
1 121
1 122
1 123
1 124
1 125
1 126
1 127
1 128
1 129
1 130
1 131
1 132
1 133
1 134
1 135
1 136
1 137
1 138
1 139
1 140
1 141
1 142
1 143
1 144
1 145
1 146
1 147
1 148
1 149
1 150
1 151
1 152
1 153
1 154
1 155
1 156
1 157
1 158
1 159
1 160
1 161
1 162
1 163
1 164
1 165
1 166
1 167
1 168
1 169
1 170
1 171
1 172
1 173
1 174
1 175
1 176
1 177
1 178
1 179
1 180
1 181
1 182
1 183
1 184
1 185
1 186
1 187
1 188
1 189
1 190
1 191
1 192
1 193
1 194
1 195
1 196
1 197
1 198
1 199
1 200
1 201
1 202
1 203
1 204
1 205
1 206
1 207
1 208
1 209
1 210
1 211
1 212
1 213
1 214
1 215
1 216
1 217
1 218
1 219
1 220
1 221
1 222
1 223
1 224
1 225
1 226
1 227
1 228
1 229
1 230
1 231
1 232
1 233
1 234
1 235
1 236
1 237
1 238
1 239
1 240
1 241
1 242
1 243
1 244
1 245
1 246
1 247
1 248
1 249
1 250
1 251
1 252
1 253
1 254
1 255
1 256
1 257
1 258
1 259
1 260
1 261
1 262
1 263
1 264
1 265
1 266
1 267
1 268
1 269
1 270
1 271
1 272
1 273
1 274
1 275
1 276
1 277
1 278
1 279
1 280
1 281
1 282
1 283
1 284
1 285
1 286
1 287
1 288
1 289
1 290
1 291
1 292
1 293
1 294
1 295
1 296
1 297
1 298
1 299
1 300
1 301
1 302
1 303
1 304
1 305
1 306
1 307
1 308
1 309
1 310
1 311
1 312
1 313
1 314
1 315
1 316
1 317
1 318
1 319
1 320
1 321
1 322
1 323
1 324
1 325
1 326
1 327
1 328
1 329
1 330
1 331
1 332
1 333
1 334
1 335
1 336
1 337
1 338
1 339
1 340
1 341
1 342
1 343
1 344
1 345
1 346
1 347
1 348
1 349
1 350
1 351
1 352
1 353
1 354
1 355
1 356
1 357
1 358
1 359
1 360
1 361
1 362
1 363
1 364
1 365
1 366
1 367
1 368
1 369
1 370
1 371
1 372
1 373
1 374
1 375
1 376
1 377
1 378
1 379
1 380
1 381
1 382
1 383
1 384
1 385
1 386
1 387
1 388
1 389
1 390
1 391
1 392
1 393
1 394
1 395
1 396
1 397
1 398
1 399
1 400
1 401
1 402
1 403
1 404
1 405
1 406
1 407
1 408
1 409
1 410
1 411
1 412
1 413
1 414
1 415
1 416
1 417
1 418
1 419
1 420
1 421
1 422
1 423
1 424
1 425
1 426
1 427
1 428
1 429
1 430
1 431
1 432
1 433
1 434
1 435
1 436
1 437
1 438
1 439
1 440
1 441
1 442
1 443
1 444
1 445
1 446
1 447
1 448
1 449
1 450
1 451
1 452
1 453
1 454
1 455
1 456
1 457
1 458
1 459
1 460
1 461
1 462
1 463
1 464
1 465
1 466
1 467
1 468
1 469
1 470
1 471
1 472
1 473
1 474
1 475
1 476
1 477
1 478
1 479
1 480
1 481
1 482
1 483
1 484
1 485
1 486
1 487
1 488
1 489
1 490
1 491
1 492
1 493
1 494
1 495
1 496
1 497
1 498
1 499
1 500
1 501
1 502
1 503
1 504
1 505
1 506
1 507
1 508
1 509
1 510
1 511
1 512
1 513
1 514
1 515
1 516
1 517
1 518
1 519
1 520
1 521
1 522
1 523
1 524
1 525
1 526
1 527
1 528
1 529
1 530
1 531
1 532
1 533
1 534
1 535
1 536
1 537
1 538
1 539
1 540
1 541
1 542
1 543
1 544
1 545
1 546
1 547
1 548
1 549
1 550
1 551
1 552
1 553
1 554
1 555
1 556
1 557
1 558
1 559
1 560
1 561
1 562
1 563
1 564
1 565
1 566
1 567
1 568
1 569
1 570
1 571
1 572
1 573
1 574
1 575
1 576
1 577
1 578
1 579
1 580
1 581
1 582
1 583
1 584
1 585
1 586
1 587
1 588
1 589
1 590
1 591
1 592
1 593
1 594
1 595
1 596
1 597
1 598
1 599
1 600
1 601
1 602
1 603
1 604
1 605
1 606
1 607
1 608
1 609
1 610
1 611
1 612
1 613
1 614
1 615
1 616
1 617
1 618
1 619
1 620
1 621
1 622
1 623
1 624
1 625
1 626
1 627
1 628
1 629
1 630
1 631
1 632
1 633
1 634
1 635
1 636
1 637
1 638
1 639
1 640
1 641
1 642
1 643
1 644
1 645
1 646
1 647
1 648
1 649
1 650
1 651
1 652
1 653
1 654
1 655
1 656
1 657
1 658
1 659
1 660
1 661
1 662
1 663
1 664
1 665
1 666
1 667
1 668
1 669
1 670
1 671
1 672
1 673
1 674
1 675
1 676
1 677
1 678
1 679
1 680
POINT_DATA 681
SCALARS is_boundary int 1
LOOKUP_TABLE default
0
0
0
0
0
0
0
0
0
0
0
0
0
0
0
0
0
0
0
0
0
0
0
0
0
0
0
0
0
0
0
0
0
0
0
0
0
0
0
0
0
0
0
0
0
0
0
0
0
0
0
0
0
0
0
0
0
0
0
0
0
0
0
0
0
0
0
0
0
0
0
0
0
0
0
0
0
0
0
0
0
0
0
0
0
0
0
0
0
0
0
0
0
0
0
0
0
0
0
0
0
0
0
0
0
0
0
0
0
0
0
0
0
0
0
0
0
0
0
0
0
0
0
0
0
0
0
0
0
0
0
0
0
0
0
0
0
0
0
0
0
0
0
0
0
0
0
0
0
0
0
0
0
0
0
0
0
0
0
0
0
0
0
0
0
0
0
0
0
0
0
0
0
0
0
0
0
0
0
0
0
0
0
0
0
0
0
0
0
0
0
0
0
0
0
0
0
0
0
0
0
0
0
0
0
0
0
0
0
0
0
0
0
0
0
0
0
0
0
0
0
0
0
0
0
0
0
0
0
0
0
0
0
0
0
0
0
0
0
0
0
0
0
0
0
0
0
0
0
0
0
0
0
0
0
0
0
0
0
0
0
0
0
0
0
0
0
0
0
0
0
0
0
0
0
0
0
0
0
0
0
0
0
0
0
0
0
0
0
0
0
0
0
0
0
0
0
0
0
0
0
0
0
0
0
0
0
0
0
0
0
0
0
0
0
0
0
0
0
0
0
0
0
0
0
0
0
0
0
0
0
0
0
0
0
0
0
0
0
0
0
0
0
0
0
0
0
0
0
0
0
0
0
0
0
0
0
0
0
0
0
0
0
0
0
0
0
0
0
0
0
0
0
0
0
1
1
1
1
1
1
1
1
1
1
1
1
1
1
1
1
1
1
1
1
1
1
1
1
1
1
1
1
1
1
1
1
1
1
1
1
1
1
1
1
1
1
1
1
1
1
1
1
1
1
1
1
1
1
1
1
1
1
1
1
1
1
1
1
1
1
1
1
1
1
1
1
1
1
1
1
1
1
1
1
1
1
1
1
1
1
1
1
1
1
1
1
1
1
1
1
1
1
1
1
1
1
1
1
1
1
1
1
1
1
1
1
1
1
1
1
1
1
1
1
1
1
1
1
1
1
1
1
1
1
1
1
1
1
1
1
1
1
1
1
1
1
1
1
1
1
1
1
1
1
1
1
1
1
1
1
1
1
1
1
1
1
1
1
1
1
1
1
1
1
1
1
1
1
1
1
1
1
1
1
1
1
1
1
1
1
1
1
1
1
1
1
1
1
1
1
1
1
1
1
1
1
1
1
1
1
1
1
1
1
1
1
1
1
1
1
1
1
1
1
1
1
1
1
1
1
1
1
1
1
1
1
1
1
1
1
1
1
1
1
1
1
1
1
1
1
1
1
1
1
1
1
1
1
1
1
1
1
1
1
1
1
1
1
1
1
1
1
1
1
1
1
1
1
1
1
1
1
1
1
1
1
1
1
1
1
1
1
1
1
1
1
1
1
1
1
1
1
1
1
1
1
1
1
1
1
SCALARS rho float 1
LOOKUP_TABLE default
1020
1020
1020
1020
1020
1020
1020
1020
1020
1020
1020
1020
1020
1020
1020
1020
1020
1020
1020
1020
1020
1020
1020
1020
1020
1020
1020
1020
1020
1020
1020
1020
1020
1020
1020
1020
1020
1020
1020
1020
1020
1020
1020
1020
1020
1020
1020
1020
1020
1020
1020
1020
1020
1020
1020
1020
1020
1020
1020
1020
1020
1020
1020
1020
1020
1020
1020
1020
1020
1020
1020
1020
1020
1020
1020
1020
1020
1020
1020
1020
1020
1020
1020
1020
1020
1020
1020
1020
1020
1020
1020
1020
1020
1020
1020
1020
1020
1020
1020
1020
1020
1020
1020
1020
1020
1020
1020
1020
1020
1020
1020
1020
1020
1020
1020
1020
1020
1020
1020
1020
1020
1020
1020
1020
1020
1020
1020
1020
1020
1020
1020
1020
1020
1020
1020
1020
1020
1020
1020
1020
1020
1020
1020
1020
1020
1020
1020
1020
1020
1020
1020
1020
1020
1020
1020
1020
1020
1020
1020
1020
1020
1020
1020
1020
1020
1020
1020
1020
1020
1020
1020
1020
1020
1020
1020
1020
1020
1020
1020
1020
1020
1020
1020
1020
1020
1020
1020
1020
1020
1020
1020
1020
1020
1020
1020
1020
1020
1020
1020
1020
1020
1020
1020
1020
1020
1020
1020
1020
1020
1020
1020
1020
1020
1020
1020
1020
1020
1020
1020
1020
1020
1020
1020
1020
1020
1020
1020
1020
1020
1020
1020
1020
1020
1020
1020
1020
1020
1020
1020
1020
1020
1020
1020
1020
1020
1020
1020
1020
1020
1020
1020
1020
1020
1020
1020
1020
1020
1020
1020
1020
1020
1020
1020
1020
1020
1020
1020
1020
1020
1020
1020
1020
1020
1020
1020
1020
1020
1020
1020
1020
1020
1020
1020
1020
1020
1020
1020
1020
1020
1020
1020
1020
1020
1020
1020
1020
1020
1020
1020
1020
1020
1020
1020
1020
1020
1020
1020
1020
1020
1020
1020
1020
1020
1020
1020
1020
1020
1020
1020
1020
1020
1020
1020
1020
1020
1020
1020
1020
1020
1020
1020
1020
1020
1020
1020
1020
1020
1020
1020
1020
1020
1020
1020
1020
1020
1020
1020
1020
1020
1020
1020
1020
1020
1020
1020
1020
1020
1020
1020
1020
1020
1020
1020
1020
1020
1020
1020
1020
1020
1020
1020
1020
1020
1020
1020
1000
1000
1000
1000
1000
1000
1000
1000
1000
1000
1000
1000
1000
1000
1000
1000
1000
1000
1000
1000
1000
1000
1000
1000
1000
1000
1000
1000
1000
1000
1000
1000
1000
1000
1000
1000
1000
1000
1000
1000
1000
1000
1000
1000
1000
1000
1000
1000
1000
1000
1000
1000
1000
1000
1000
1000
1000
1000
1000
1000
1000
1000
1000
1000
1000
1000
1000
1000
1000
1000
1000
1000
1000
1000
1000
1000
1000
1000
1000
1000
1000
1000
1000
1000
1000
1000
1000
1000
1000
1000
1000
1000
1000
1000
1000
1000
1000
1000
1000
1000
1000
1000
1000
1000
1000
1000
1000
1000
1000
1000
1000
1000
1000
1000
1000
1000
1000
1000
1000
1000
1000
1000
1000
1000
1000
1000
1000
1000
1000
1000
1000
1000
1000
1000
1000
1000
1000
1000
1000
1000
1000
1000
1000
1000
1000
1000
1000
1000
1000
1000
1000
1000
1000
1000
1000
1000
1000
1000
1000
1000
1000
1000
1000
1000
1000
1000
1000
1000
1000
1000
1000
1000
1000
1000
1000
1000
1000
1000
1000
1000
1000
1000
1000
1000
1000
1000
1000
1000
1000
1000
1000
1000
1000
1000
1000
1000
1000
1000
1000
1000
1000
1000
1000
1000
1000
1000
1000
1000
1000
1000
1000
1000
1000
1000
1000
1000
1000
1000
1000
1000
1000
1000
1000
1000
1000
1000
1000
1000
1000
1000
1000
1000
1000
1000
1000
1000
1000
1000
1000
1000
1000
1000
1000
1000
1000
1000
1000
1000
1000
1000
1000
1000
1000
1000
1000
1000
1000
1000
1000
1000
1000
1000
1000
1000
1000
1000
1000
1000
1000
1000
1000
1000
1000
1000
1000
1000
1000
1000
1000
1000
1000
1000
1000
1000
1000
1000
1000
1000
1000
1000
1000
1000
1000
1000
1000
1000
1000
1000
1000
1000
1000
1000
1000
1000
1000
1000
SCALARS p float 1
LOOKUP_TABLE default
25004.681136676067
25004.681136676067
25004.681136676067
25004.681136676067
25004.681136676067
25004.681136676067
25004.681136676067
25004.681136676067
25004.681136676067
25004.681136676067
25004.681136676067
25004.681136676067
25004.681136676067
25004.681136676067
25004.681136676067
25004.681136676067
25004.681136676067
25004.681136676067
25004.681136676067
25004.681136676067
25004.681136676067
25004.681136676067
25004.681136676067
25004.681136676067
25004.681136676067
25004.681136676067
25004.681136676067
25004.681136676067
25004.681136676067
25004.681136676067
25004.681136676067
25004.681136676067
25004.681136676067
25004.681136676067
25004.681136676067
25004.681136676067
25004.681136676067
25004.681136676067
25004.681136676067
25004.681136676067
25004.681136676067
25004.681136676067
25004.681136676067
25004.681136676067
25004.681136676067
25004.681136676067
25004.681136676067
25004.681136676067
25004.681136676067
25004.681136676067
25004.681136676067
25004.681136676067
25004.681136676067
25004.681136676067
25004.681136676067
25004.681136676067
25004.681136676067
25004.681136676067
25004.681136676067
25004.681136676067
25004.681136676067
25004.681136676067
25004.681136676067
25004.681136676067
25004.681136676067
25004.681136676067
25004.681136676067
25004.681136676067
25004.681136676067
25004.681136676067
25004.681136676067
25004.681136676067
25004.681136676067
25004.681136676067
25004.681136676067
25004.681136676067
25004.681136676067
25004.681136676067
25004.681136676067
25004.681136676067
25004.681136676067
25004.681136676067
25004.681136676067
25004.681136676067
25004.681136676067
25004.681136676067
25004.681136676067
25004.681136676067
25004.681136676067
25004.681136676067
25004.681136676067
25004.681136676067
25004.681136676067
25004.681136676067
25004.681136676067
25004.681136676067
25004.681136676067
25004.681136676067
25004.681136676067
25004.681136676067
25004.681136676067
25004.681136676067
25004.681136676067
25004.681136676067
25004.681136676067
25004.681136676067
25004.681136676067
25004.681136676067
25004.681136676067
25004.681136676067
25004.681136676067
25004.681136676067
25004.681136676067
25004.681136676067
25004.681136676067
25004.681136676067
25004.681136676067
25004.681136676067
25004.681136676067
25004.681136676067
25004.681136676067
25004.681136676067
25004.681136676067
25004.681136676067
25004.681136676067
25004.681136676067
25004.681136676067
25004.681136676067
25004.681136676067
25004.681136676067
25004.681136676067
25004.681136676067
25004.681136676067
25004.681136676067
25004.681136676067
25004.681136676067
25004.681136676067
25004.681136676067
25004.681136676067
25004.681136676067
25004.681136676067
25004.681136676067
25004.681136676067
25004.681136676067
25004.681136676067
25004.681136676067
25004.681136676067
25004.681136676067
25004.681136676067
25004.681136676067
25004.681136676067
25004.681136676067
25004.681136676067
25004.681136676067
25004.681136676067
25004.681136676067
25004.681136676067
25004.681136676067
25004.681136676067
25004.681136676067
25004.681136676067
25004.681136676067
25004.681136676067
25004.681136676067
25004.681136676067
25004.681136676067
25004.681136676067
25004.681136676067
25004.681136676067
25004.681136676067
25004.681136676067
25004.681136676067
25004.681136676067
25004.681136676067
25004.681136676067
25004.681136676067
25004.681136676067
25004.681136676067
25004.681136676067
25004.681136676067
25004.681136676067
25004.681136676067
25004.681136676067
25004.681136676067
25004.681136676067
25004.681136676067
25004.681136676067
25004.681136676067
25004.681136676067
25004.681136676067
25004.681136676067
25004.681136676067
25004.681136676067
25004.681136676067
25004.681136676067
25004.681136676067
25004.681136676067
25004.681136676067
25004.681136676067
25004.681136676067
25004.681136676067
25004.681136676067
25004.681136676067
25004.681136676067
25004.681136676067
25004.681136676067
25004.681136676067
25004.681136676067
25004.681136676067
25004.681136676067
25004.681136676067
25004.681136676067
25004.681136676067
25004.681136676067
25004.681136676067
25004.681136676067
25004.681136676067
25004.681136676067
25004.681136676067
25004.681136676067
25004.681136676067
25004.681136676067
25004.681136676067
25004.681136676067
25004.681136676067
25004.681136676067
25004.681136676067
25004.681136676067
25004.681136676067
25004.681136676067
25004.681136676067
25004.681136676067
25004.681136676067
25004.681136676067
25004.681136676067
25004.681136676067
25004.681136676067
25004.681136676067
25004.681136676067
25004.681136676067
25004.681136676067
25004.681136676067
25004.681136676067
25004.681136676067
25004.681136676067
25004.681136676067
25004.681136676067
25004.681136676067
25004.681136676067
25004.681136676067
25004.681136676067
25004.681136676067
25004.681136676067
25004.681136676067
25004.681136676067
25004.681136676067
25004.681136676067
25004.681136676067
25004.681136676067
25004.681136676067
25004.681136676067
25004.681136676067
25004.681136676067
25004.681136676067
25004.681136676067
25004.681136676067
25004.681136676067
25004.681136676067
25004.681136676067
25004.681136676067
25004.681136676067
25004.681136676067
25004.681136676067
25004.681136676067
25004.681136676067
25004.681136676067
25004.681136676067
25004.681136676067
25004.681136676067
25004.681136676067
25004.681136676067
25004.681136676067
25004.681136676067
25004.681136676067
25004.681136676067
25004.681136676067
25004.681136676067
25004.681136676067
25004.681136676067
25004.681136676067
25004.681136676067
25004.681136676067
25004.681136676067
25004.681136676067
25004.681136676067
25004.681136676067
25004.681136676067
25004.681136676067
25004.681136676067
25004.681136676067
25004.681136676067
25004.681136676067
25004.681136676067
25004.681136676067
25004.681136676067
25004.681136676067
25004.681136676067
25004.681136676067
25004.681136676067
25004.681136676067
25004.681136676067
25004.681136676067
25004.681136676067
25004.681136676067
25004.681136676067
25004.681136676067
25004.681136676067
25004.681136676067
25004.681136676067
25004.681136676067
25004.681136676067
25004.681136676067
25004.681136676067
25004.681136676067
25004.681136676067
25004.681136676067
25004.681136676067
25004.681136676067
25004.681136676067
25004.681136676067
25004.681136676067
25004.681136676067
25004.681136676067
25004.681136676067
25004.681136676067
25004.681136676067
25004.681136676067
25004.681136676067
25004.681136676067
25004.681136676067
25004.681136676067
25004.681136676067
25004.681136676067
25004.681136676067
25004.681136676067
25004.681136676067
25004.681136676067
25004.681136676067
25004.681136676067
25004.681136676067
25004.681136676067
25004.681136676067
25004.681136676067
25004.681136676067
25004.681136676067
25004.681136676067
25004.681136676067
25004.681136676067
25004.681136676067
25004.681136676067
25004.681136676067
25004.681136676067
25004.681136676067
25004.681136676067
25004.681136676067
25004.681136676067
25004.681136676067
25004.681136676067
25004.681136676067
25004.681136676067
25004.681136676067
25004.681136676067
25004.681136676067
25004.681136676067
25004.681136676067
0
0
0
0
0
0
24740.511752850391
24991.828711254439
24998.101794347462
0
0
0
24995.752643096897
25003.710760880298
25004.148636613732
0
0
0
25000.467668671383
25004.178574335372
25004.398729904653
0
0
0
25000.847197843388
25004.199309468364
25004.404540672429
0
0
0
25000.878320527128
25004.198820069527
25004.402957200844
0
0
0
25000.869151056897
25004.198049865678
25004.402615368937
0
0
0
25000.862282490671
25004.197611932395
25004.4025163976
0
0
0
25000.85900225956
25004.197408536475
25004.402479641631
0
0
0
25000.857768581329
25004.197336627389
25004.402469764082
0
0
0
25000.85775230627
25004.197337672951
25004.402471121146
0
0
0
25000.858965833544
25004.197410012999
25004.402482188478
0
0
0
25000.862248408921
25004.197613061267
25004.40251891741
0
0
0
25000.869132167893
25004.198051559491
25004.402618523964
0
0
0
25000.878270893587
25004.198820021542
25004.402960812145
0
0
0
25000.847111385283
25004.199310068892
25004.404545957528
0
0
0
25000.467589793538
25004.178582318622
25004.39873983986
0
0
0
24995.751972743667
25003.710723040862
25004.148619530381
0
0
0
24740.450905800823
24991.826742098699
24998.100611659236
0
0
0
0
0
0
0
0
0
0
0
0
0
0
0
0
0
0
0
0
0
0
0
0
0
0
0
0
0
0
0
0
0
0
0
0
0
0
0
0
0
0
0
0
0
0
0
0
0
0
0
0
0
0
0
0
0
0
0
0
0
0
0
0
0
0
0
0
0
0
0
0
0
0
0
0
0
0
0
0
0
0
0
0
0
0
0
0
0
0
0
0
0
0
0
0
0
0
0
0
0
0
0
0
0
0
0
0
0
0
0
0
0
0
0
0
0
0
0
0
0
0
0
0
0
0
0
0
0
0
0
0
0
0
0
0
0
0
0
0
0
0
0
0
0
0
0
0
0
0
0
0
0
0
0
0
0
0
0
0
0
0
0
0
0
0
0
0
0
0
0
0
0
0
0
0
0
0
0
0
0
0
0
0
0
0
0
0
0
0
0
0
0
0
0
SCALARS m float 1
LOOKUP_TABLE default
0.39942306611962441
0.39942306611962441
0.39942306611962441
0.39942306611962441
0.39942306611962441
0.39942306611962441
0.39942306611962441
0.39942306611962441
0.39942306611962441
0.39942306611962441
0.39942306611962441
0.39942306611962441
0.39942306611962441
0.39942306611962441
0.39942306611962441
0.39942306611962441
0.39942306611962441
0.39942306611962441
0.39942306611962441
0.39942306611962441
0.39942306611962441
0.39942306611962441
0.39942306611962441
0.39942306611962441
0.39942306611962441
0.39942306611962441
0.39942306611962441
0.39942306611962441
0.39942306611962441
0.39942306611962441
0.39942306611962441
0.39942306611962441
0.39942306611962441
0.39942306611962441
0.39942306611962441
0.39942306611962441
0.39942306611962441
0.39942306611962441
0.39942306611962441
0.39942306611962441
0.39942306611962441
0.39942306611962441
0.39942306611962441
0.39942306611962441
0.39942306611962441
0.39942306611962441
0.39942306611962441
0.39942306611962441
0.39942306611962441
0.39942306611962441
0.39942306611962441
0.39942306611962441
0.39942306611962441
0.39942306611962441
0.39942306611962441
0.39942306611962441
0.39942306611962441
0.39942306611962441
0.39942306611962441
0.39942306611962441
0.39942306611962441
0.39942306611962441
0.39942306611962441
0.39942306611962441
0.39942306611962441
0.39942306611962441
0.39942306611962441
0.39942306611962441
0.39942306611962441
0.39942306611962441
0.39942306611962441
0.39942306611962441
0.39942306611962441
0.39942306611962441
0.39942306611962441
0.39942306611962441
0.39942306611962441
0.39942306611962441
0.39942306611962441
0.39942306611962441
0.39942306611962441
0.39942306611962441
0.39942306611962441
0.39942306611962441
0.39942306611962441
0.39942306611962441
0.39942306611962441
0.39942306611962441
0.39942306611962441
0.39942306611962441
0.39942306611962441
0.39942306611962441
0.39942306611962441
0.39942306611962441
0.39942306611962441
0.39942306611962441
0.39942306611962441
0.39942306611962441
0.39942306611962441
0.39942306611962441
0.39942306611962441
0.39942306611962441
0.39942306611962441
0.39942306611962441
0.39942306611962441
0.39942306611962441
0.39942306611962441
0.39942306611962441
0.39942306611962441
0.39942306611962441
0.39942306611962441
0.39942306611962441
0.39942306611962441
0.39942306611962441
0.39942306611962441
0.39942306611962441
0.39942306611962441
0.39942306611962441
0.39942306611962441
0.39942306611962441
0.39942306611962441
0.39942306611962441
0.39942306611962441
0.39942306611962441
0.39942306611962441
0.39942306611962441
0.39942306611962441
0.39942306611962441
0.39942306611962441
0.39942306611962441
0.39942306611962441
0.39942306611962441
0.39942306611962441
0.39942306611962441
0.39942306611962441
0.39942306611962441
0.39942306611962441
0.39942306611962441
0.39942306611962441
0.39942306611962441
0.39942306611962441
0.39942306611962441
0.39942306611962441
0.39942306611962441
0.39942306611962441
0.39942306611962441
0.39942306611962441
0.39942306611962441
0.39942306611962441
0.39942306611962441
0.39942306611962441
0.39942306611962441
0.39942306611962441
0.39942306611962441
0.39942306611962441
0.39942306611962441
0.39942306611962441
0.39942306611962441
0.39942306611962441
0.39942306611962441
0.39942306611962441
0.39942306611962441
0.39942306611962441
0.39942306611962441
0.39942306611962441
0.39942306611962441
0.39942306611962441
0.39942306611962441
0.39942306611962441
0.39942306611962441
0.39942306611962441
0.39942306611962441
0.39942306611962441
0.39942306611962441
0.39942306611962441
0.39942306611962441
0.39942306611962441
0.39942306611962441
0.39942306611962441
0.39942306611962441
0.39942306611962441
0.39942306611962441
0.39942306611962441
0.39942306611962441
0.39942306611962441
0.39942306611962441
0.39942306611962441
0.39942306611962441
0.39942306611962441
0.39942306611962441
0.39942306611962441
0.39942306611962441
0.39942306611962441
0.39942306611962441
0.39942306611962441
0.39942306611962441
0.39942306611962441
0.39942306611962441
0.39942306611962441
0.39942306611962441
0.39942306611962441
0.39942306611962441
0.39942306611962441
0.39942306611962441
0.39942306611962441
0.39942306611962441
0.39942306611962441
0.39942306611962441
0.39942306611962441
0.39942306611962441
0.39942306611962441
0.39942306611962441
0.39942306611962441
0.39942306611962441
0.39942306611962441
0.39942306611962441
0.39942306611962441
0.39942306611962441
0.39942306611962441
0.39942306611962441
0.39942306611962441
0.39942306611962441
0.39942306611962441
0.39942306611962441
0.39942306611962441
0.39942306611962441
0.39942306611962441
0.39942306611962441
0.39942306611962441
0.39942306611962441
0.39942306611962441
0.39942306611962441
0.39942306611962441
0.39942306611962441
0.39942306611962441
0.39942306611962441
0.39942306611962441
0.39942306611962441
0.39942306611962441
0.39942306611962441
0.39942306611962441
0.39942306611962441
0.39942306611962441
0.39942306611962441
0.39942306611962441
0.39942306611962441
0.39942306611962441
0.39942306611962441
0.39942306611962441
0.39942306611962441
0.39942306611962441
0.39942306611962441
0.39942306611962441
0.39942306611962441
0.39942306611962441
0.39942306611962441
0.39942306611962441
0.39942306611962441
0.39942306611962441
0.39942306611962441
0.39942306611962441
0.39942306611962441
0.39942306611962441
0.39942306611962441
0.39942306611962441
0.39942306611962441
0.39942306611962441
0.39942306611962441
0.39942306611962441
0.39942306611962441
0.39942306611962441
0.39942306611962441
0.39942306611962441
0.39942306611962441
0.39942306611962441
0.39942306611962441
0.39942306611962441
0.39942306611962441
0.39942306611962441
0.39942306611962441
0.39942306611962441
0.39942306611962441
0.39942306611962441
0.39942306611962441
0.39942306611962441
0.39942306611962441
0.39942306611962441
0.39942306611962441
0.39942306611962441
0.39942306611962441
0.39942306611962441
0.39942306611962441
0.39942306611962441
0.39942306611962441
0.39942306611962441
0.39942306611962441
0.39942306611962441
0.39942306611962441
0.39942306611962441
0.39942306611962441
0.39942306611962441
0.39942306611962441
0.39942306611962441
0.39942306611962441
0.39942306611962441
0.39942306611962441
0.39942306611962441
0.39942306611962441
0.39942306611962441
0.39942306611962441
0.39942306611962441
0.39942306611962441
0.39942306611962441
0.39942306611962441
0.39942306611962441
0.39942306611962441
0.39942306611962441
0.39942306611962441
0.39942306611962441
0.39942306611962441
0.39942306611962441
0.39942306611962441
0.39942306611962441
0.39942306611962441
0.39942306611962441
0.39942306611962441
0.39942306611962441
0.39942306611962441
0.39942306611962441
0.39942306611962441
0.39942306611962441
0.39942306611962441
0.39942306611962441
0.39942306611962441
0.39942306611962441
0.39942306611962441
0.39942306611962441
0.39942306611962441
0.39942306611962441
0.39942306611962441
0.39942306611962441
0.39942306611962441
0.39942306611962441
0.39942306611962441
0.39942306611962441
0.39942306611962441
0.39942306611962441
0.39942306611962441
0.39942306611962441
0.39942306611962441
0.39942306611962441
0.39942306611962441
0.39942306611962441
0.39942306611962441
0.39942306611962441
0.39942306611962441
0.39942306611962441
0.39942306611962441
0.39942306611962441
0.39942306611962441
0.39942306611962441
0.39942306611962441
0.39942306611962441
0.39942306611962441
0.39942306611962441
0.39942306611962441
0.39942306611962441
0.39942306611962441
0.39942306611962441
0.39942306611962441
0.39942306611962441
0.39942306611962441
0.39942306611962441
0.39942306611962441
0.39942306611962441
0.39942306611962441
0.39942306611962441
0.39942306611962441
0.39942306611962441
0.39942306611962441
0.39942306611962441
0.39942306611962441
0.39942306611962441
0.39942306611962441
0.39942306611962441
0.39942306611962441
0.39942306611962441
0.39942306611962441
0.39942306611962441
0.39942306611962441
0.39942306611962441
0.39942306611962441
0.39942306611962441
0.39942306611962441
0.39942306611962441
0.39942306611962441
0.39942306611962441
0.39942306611962441
0.39942306611962441
0.39942306611962441
0.39942306611962441
0.39942306611962441
0.39942306611962441
0.39942306611962441
0.39942306611962441
0.39942306611962441
0.39942306611962441
0.39942306611962441
0.39942306611962441
0.39942306611962441
0.39942306611962441
0.39942306611962441
0.39942306611962441
0.39942306611962441
0.39942306611962441
0.39942306611962441
0.39942306611962441
0.39942306611962441
0.39942306611962441
0.39942306611962441
0.39942306611962441
0.39942306611962441
0.39942306611962441
0.39942306611962441
0.39942306611962441
0.39942306611962441
0.39942306611962441
0.39942306611962441
0.39942306611962441
0.39942306611962441
0.39942306611962441
0.39942306611962441
0.39942306611962441
0.39942306611962441
0.39942306611962441
0.39942306611962441
0.39942306611962441
0.39942306611962441
0.39942306611962441
0.39942306611962441
0.39942306611962441
0.39942306611962441
0.39942306611962441
0.39942306611962441
0.39942306611962441
0.39942306611962441
0.39942306611962441
0.39942306611962441
0.39942306611962441
0.39942306611962441
0.39942306611962441
0.39942306611962441
0.39942306611962441
0.39942306611962441
0.39942306611962441
0.39942306611962441
0.39942306611962441
0.39942306611962441
0.39942306611962441
0.39942306611962441
0.39942306611962441
0.39942306611962441
0.39942306611962441
0.39942306611962441
0.39942306611962441
0.39942306611962441
0.39942306611962441
0.39942306611962441
0.39942306611962441
0.39942306611962441
0.39942306611962441
0.39942306611962441
0.39942306611962441
0.39942306611962441
0.39942306611962441
0.39942306611962441
0.39942306611962441
0.39942306611962441
0.39942306611962441
0.39942306611962441
0.39942306611962441
0.39942306611962441
0.39942306611962441
0.39942306611962441
0.39942306611962441
0.39942306611962441
0.39942306611962441
0.39942306611962441
0.39942306611962441
0.39942306611962441
0.39942306611962441
0.39942306611962441
0.39942306611962441
0.39942306611962441
0.39942306611962441
0.39942306611962441
0.39942306611962441
0.39942306611962441
0.39942306611962441
0.39942306611962441
0.39942306611962441
0.39942306611962441
0.39942306611962441
0.39942306611962441
0.39942306611962441
0.39942306611962441
0.39942306611962441
0.39942306611962441
0.39942306611962441
0.39942306611962441
0.39942306611962441
0.39942306611962441
0.39942306611962441
0.39942306611962441
0.39942306611962441
0.39942306611962441
0.39942306611962441
0.39942306611962441
0.39942306611962441
0.39942306611962441
0.39942306611962441
0.39942306611962441
0.39942306611962441
0.39942306611962441
0.39942306611962441
0.39942306611962441
0.39942306611962441
0.39942306611962441
0.39942306611962441
0.39942306611962441
0.39942306611962441
0.39942306611962441
0.39942306611962441
0.39942306611962441
0.39942306611962441
0.39942306611962441
0.39942306611962441
0.39942306611962441
0.39942306611962441
0.39942306611962441
0.39942306611962441
0.39942306611962441
0.39942306611962441
0.39942306611962441
0.39942306611962441
0.39942306611962441
0.39942306611962441
0.39942306611962441
0.39942306611962441
0.39942306611962441
0.39942306611962441
0.39942306611962441
0.39942306611962441
0.39942306611962441
0.39942306611962441
0.39942306611962441
0.39942306611962441
0.39942306611962441
0.39942306611962441
0.39942306611962441
0.39942306611962441
0.39942306611962441
0.39942306611962441
0.39942306611962441
0.39942306611962441
0.39942306611962441
0.39942306611962441
0.39942306611962441
0.39942306611962441
0.39942306611962441
0.39942306611962441
0.39942306611962441
0.39942306611962441
0.39942306611962441
0.39942306611962441
0.39942306611962441
0.39942306611962441
0.39942306611962441
0.39942306611962441
0.39942306611962441
0.39942306611962441
0.39942306611962441
0.39942306611962441
0.39942306611962441
0.39942306611962441
0.39942306611962441
0.39942306611962441
0.39942306611962441
0.39942306611962441
0.39942306611962441
0.39942306611962441
0.39942306611962441
0.39942306611962441
0.39942306611962441
0.39942306611962441
0.39942306611962441
0.39942306611962441
0.39942306611962441
0.39942306611962441
0.39942306611962441
0.39942306611962441
0.39942306611962441
0.39942306611962441
0.39942306611962441
0.39942306611962441
0.39942306611962441
0.39942306611962441
0.39942306611962441
0.39942306611962441
0.39942306611962441
0.39942306611962441
0.39942306611962441
0.39942306611962441
0.39942306611962441
0.39942306611962441
0.39942306611962441
0.39942306611962441
0.39942306611962441
0.39942306611962441
0.39942306611962441
0.39942306611962441
0.39942306611962441
0.39942306611962441
0.39942306611962441
0.39942306611962441
0.39942306611962441
0.39942306611962441
0.39942306611962441
0.39942306611962441
0.39942306611962441
0.39942306611962441
0.39942306611962441
0.39942306611962441
0.39942306611962441
0.39942306611962441
0.39942306611962441
0.39942306611962441
0.39942306611962441
0.39942306611962441
0.39942306611962441
0.39942306611962441
0.39942306611962441
0.39942306611962441
0.39942306611962441
0.39942306611962441
0.39942306611962441
0.39942306611962441
0.39942306611962441
0.39942306611962441
0.39942306611962441
0.39942306611962441
0.39942306611962441
0.39942306611962441
0.39942306611962441
0.39942306611962441
0.39942306611962441
0.39942306611962441
0.39942306611962441
0.39942306611962441
0.39942306611962441
0.39942306611962441
0.39942306611962441
0.39942306611962441
0.39942306611962441
0.39942306611962441
0.39942306611962441
0.39942306611962441
0.39942306611962441
0.39942306611962441
0.39942306611962441
0.39942306611962441
0.39942306611962441
0.39942306611962441
0.39942306611962441
0.39942306611962441
0.39942306611962441
0.39942306611962441
0.39942306611962441
0.39942306611962441
0.39942306611962441
0.39942306611962441
VECTORS v float
-3.134588836429435e-05 -0.04206340666816983 0
-3.3208104102952981e-05 -0.043060325925016851 0
-3.4591964163237213e-05 -0.043862592375283095 0
-3.591519695799093e-05 -0.044696301418075429 0
-3.7179770856700172e-05 -0.045566714794316676 0
-3.8360092120120484e-05 -0.046481470987670602 0
-3.949648185184719e-05 -0.047451400980308527 0
-4.0667568266078632e-05 -0.048488286016614111 0
-4.1615815611009348e-05 -0.049603544521030149 0
-4.2685807560623091e-05 -0.050808864288528877 0
-4.3498716817868059e-05 -0.052116121572844926 0
-4.4373783128074735e-05 -0.053537465964190997 0
-4.5317425518895957e-05 -0.055089520642655147 0
-4.6062256085526923e-05 -0.056799594960622354 0
-4.6871706095305386e-05 -0.058696605352899181 0
-4.7579547131632419e-05 -0.06081084812763865 0
-4.8393957354409007e-05 -0.063178085456190788 0
-4.9418261973502326e-05 -0.065860777369840431 0
-5.0195209735887488e-05 -0.068926360057971078 0
-5.1254538906751005e-05 -0.072464233366487593 0
-5.228853600226409e-05 -0.076614488428175379 0
-5.3423775839744737e-05 -0.081528854748234653 0
-5.4701496288343582e-05 -0.087500052563637562 0
-5.6268057467845231e-05 -0.095440039889215442 0
-5.8811204459574667e-05 -0.10876959807759226 0
-2.0032641410482135e-05 -0.042524449321209974 0
-2.1523976770592103e-05 -0.043594845062064576 0
-2.2607315991961244e-05 -0.04445192939449507 0
-2.3567712544494236e-05 -0.045317451676648454 0
-2.4445790083557274e-05 -0.046207521366628104 0
-2.5227002684045939e-05 -0.047135516130897739 0
-2.600071542861935e-05 -0.048114246197877256 0
-2.6661954972551874e-05 -0.049158130694411564 0
-2.7374798312531307e-05 -0.0502807947260848 0
-2.8053827109853234e-05 -0.05149404358396429 0
-2.8615324285413639e-05 -0.052811303815684982 0
-2.9138046764184404e-05 -0.054244265418626855 0
-2.9886527803625009e-05 -0.055811118792587974 0
-3.0584990553149498e-05 -0.057538662780173361 0
-3.0989135154086e-05 -0.05945598634725871 0
-3.1754880864078071e-05 -0.061593198481145812 0
-3.2170913251978332e-05 -0.063982812876142076 0
-3.2753532950012751e-05 -0.066678387702067077 0
-3.3323302723265732e-05 -0.069747050292320062 0
-3.3983679977735051e-05 -0.073270888068812046 0
-3.4604458123434793e-05 -0.077361020623699053 0
-3.4970271088002834e-05 -0.082164864189119849 0
-3.5452141391798015e-05 -0.088019867700235982 0
-3.6193953667997325e-05 -0.095850455877784263 0
-3.6844310178878887e-05 -0.10926849087204525 0
-8.5764214823161885e-06 -0.042635899585877012 0
-9.2522019233422288e-06 -0.043710433562971732 0
-9.7249148981952338e-06 -0.04457093626878534 0
-1.018465885857259e-05 -0.045442011660666484 0
-1.0543447020218014e-05 -0.046339681196519385 0
-1.082355040888296e-05 -0.047277793588098742 0
-1.1205779838359499e-05 -0.048269685947618483 0
-1.1628186955819142e-05 -0.049329680661609206 0
-1.1818621106491965e-05 -0.050471515595173065 0
-1.2164436533634951e-05 -0.051708177900280788 0
-1.2405054409421845e-05 -0.053052732567246338 0
-1.2778921488315585e-05 -0.054518063498196115 0
-1.31196386627175e-05 -0.05612373613205051 0
-1.3554481179751293e-05 -0.057897546215566559 0
-1.354153719814296e-05 -0.059869637661507068 0
-1.4049603635811475e-05 -0.06207259063082337 0
-1.4703507028498142e-05 -0.064542054868287319 0
-1.5008544323470401e-05 -0.067322787187495112 0
-1.5669543649424146e-05 -0.070483111484028138 0
-1.5834333340056727e-05 -0.074106190104387779 0
-1.6656062833223377e-05 -0.078294683154516348 0
-1.7316951383668662e-05 -0.08320097005571854 0
-1.8011318498437687e-05 -0.089175397171691942 0
-1.841479361273659e-05 -0.097130702654616069 0
-1.8957382096891126e-05 -0.11074851330530525 0
-3.0706859816197634e-06 -0.042696084390039829 0
-3.288152533146982e-06 -0.043777593353864296 0
-3.5292079087554254e-06 -0.044644600044961874 0
-4.091983024513259e-06 -0.045522511709669394 0
-4.3290178161293688e-06 -0.046428067945710493 0
-4.4827700007183001e-06 -0.047375297866262232 0
-4.3751276893426763e-06 -0.048376820115381351 0
-4.526770852256912e-06 -0.049447471420391804 0
-4.7317878560679822e-06 -0.05060172139872271 0
-4.6699069230059925e-06 -0.051852527942499095 0
-4.8141829073331943e-06 -0.05321286397804368 0
-4.6984770187134832e-06 -0.054696429251976215 0
-4.9428420217499022e-06 -0.056322276419835345 0
-5.9480749566492449e-06 -0.058119677421202422 0
-5.7830627832511554e-06 -0.060118724208273806 0
-5.8993348358118276e-06 -0.062352106144386701 0
-6.1579032890788972e-06 -0.064857507921337071 0
-6.3942721416128533e-06 -0.067677139889756557 0
-6.4411342764733494e-06 -0.070880520339680203 0
-6.7402060147361024e-06 -0.074548795920037311 0
-6.9099897710063766e-06 -0.078787230748810375 0
-7.6747227329926577e-06 -0.083748176438679489 0
-8.0221982405300864e-06 -0.089780606576568986 0
-8.3212716135661438e-06 -0.097796991703111957 0
-8.6945954505114096e-06 -0.11151255921592154 0
-1.1320635373567901e-06 -0.042735747330185973 0
-1.2606943983525636e-06 -0.043823062411408556 0
-1.3141281574249465e-06 -0.044693721339612517 0
-1.4884147766726081e-06 -0.045576687261093499 0
-1.5021054262329086e-06 -0.046487008900017023 0
-1.5646196284062364e-06 -0.047438939903483565 0
-1.6801538898781861e-06 -0.048446056374335508 0
-1.7967275946516108e-06 -0.049522841343692406 0
-1.8258702771947255e-06 -0.050683585172117365 0
-1.7920481681460136e-06 -0.051941089562896607 0
-1.92112911352824e-06 -0.053308520670385606 0
-2.1684249001037259e-06 -0.054800243619079959 0
-1.5683814283084621e-06 -0.056435710667157288 0
-1.5755933872771274e-06 -0.058242782098652982 0
-1.7725777430310993e-06 -0.060253760697095704 0
-1.4348413112457673e-06 -0.062500033684472045 0
-1.7701930315359332e-06 -0.065019530427051359 0
-1.7925909425767112e-06 -0.067854549984281184 0
-1.9367762815682266e-06 -0.071074970255691539 0
-1.9403152689263315e-06 -0.07476214369133577 0
-2.0893313689000461e-06 -0.079020231014275563 0
-2.2341581638939074e-06 -0.084001769894585854 0
-2.4510442703341632e-06 -0.090056288880120641 0
-2.7455740462088441e-06 -0.098094508741217404 0
-2.9894429002845437e-06 -0.11184932758588777 0
4.6005525000913989e-07 -0.042757639557803831 0
5.6188287648628554e-07 -0.043847498487499019 0
6.2866326801188108e-07 -0.044721251688373147 0
7.4884568017730066e-07 -0.045606510225318281 0
8.9849081798451825e-07 -0.04651956618125732 0
1.0382782018810118e-06 -0.04747395413209872 0
1.1103389940492418e-06 -0.048483579705693614 0
1.35604867486991e-06 -0.049562962619517911 0
1.4072814157355887e-06 -0.050726480550190231 0
1.4250315565873632e-06 -0.051987100797967062 0
1.3958718720803681e-06 -0.053358174793093821 0
1.5816312548654351e-06 -0.054853367026274073 0
1.7430866707998528e-06 -0.056492658075217972 0
2.1747564564631139e-06 -0.058304732296967664 0
1.7577461136527215e-06 -0.060320259344304274 0
2.4831577563999629e-06 -0.062571948780784217 0
2.651498999659822e-06 -0.065097387022497524 0
2.6311755801812924e-06 -0.067938438659879599 0
2.7008394756561471e-06 -0.071165753881625216 0
2.5855499246640517e-06 -0.074860186007416535 0
2.6781111552850848e-06 -0.079125815084448756 0
2.6177628813665718e-06 -0.084115410946185673 0
2.49282100938151e-06 -0.09017753272772186 0
2.3632925474090539e-06 -0.098222963177974271 0
2.0745185325437334e-06 -0.1119919345978993 0
1.7984282499371965e-06 -0.042767958255800882 0
2.1273334436197285e-06 -0.043858829558493691 0
2.1355196597674415e-06 -0.04473423545345738 0
2.3353031731130072e-06 -0.045620475738843064 0
2.5495403920198797e-06 -0.046534347804600085 0
2.7164023204635912e-06 -0.047490324531147397 0
2.9333215210394683e-06 -0.048500889573053818 0
3.1411040409298966e-06 -0.049580394876637193 0
3.0729860802402181e-06 -0.050745333722289572 0
3.042051796337555e-06 -0.052007398897232882 0
3.2907293210096761e-06 -0.053379698699689157 0
3.564450067536122e-06 -0.05487684254644077 0
3.8521610933321169e-06 -0.056517930524707771 0
3.8587747253590631e-06 -0.058331848561497097 0
4.0454767190884705e-06 -0.06034966739143037 0
4.3196135737752369e-06 -0.062603212604773043 0
4.4355445231082923e-06 -0.065131130639867155 0
4.4367051189968726e-06 -0.067975236255048505 0
4.5545681687174912e-06 -0.071205221111991887 0
4.5033734897366212e-06 -0.074902534754047054 0
4.6353256465103538e-06 -0.079171162810407425 0
4.7099469154069498e-06 -0.084163266757251678 0
4.7035933306476002e-06 -0.090228322519539564 0
4.8137460001718496e-06 -0.09827579578091318 0
4.7462381106640848e-06 -0.11204953902267394 0
2.4371367835071538e-06 -0.042771058305465168 0
2.4998043251143919e-06 -0.043862796925786283 0
3.017883297221382e-06 -0.044737904011086987 0
3.1094918658595861e-06 -0.04562451968492242 0
3.152733198160311e-06 -0.046538606619530548 0
3.1730097855928656e-06 -0.047494575008111821 0
3.1686662139127377e-06 -0.048505830099710941 0
3.5884332202197843e-06 -0.049586801714595036 0
3.4697010067757031e-06 -0.050751889654443758 0
3.7934404016472296e-06 -0.052014048815011871 0
3.812495020059051e-06 -0.053386875734713568 0
3.1437911424992689e-06 -0.054884256519482907 0
3.3642841761830632e-06 -0.056525408433719303 0
3.2854724569715351e-06 -0.058339678382359809 0
3.3533798457007948e-06 -0.060357201760496887 0
4.2609678058563143e-06 -0.062611706816931817 0
4.2881541933375376e-06 -0.065139557492136152 0
4.2884462252277567e-06 -0.067983995003088188 0
4.4952804447876057e-06 -0.07121478641158363 0
4.5630460791175167e-06 -0.074912681297627862 0
4.5356049782842883e-06 -0.079182175847060776 0
4.5624724101813629e-06 -0.084175107519981709 0
4.5522504163113593e-06 -0.09024040510549565 0
4.7925098341306499e-06 -0.098288512731196195 0
4.9716793498644925e-06 -0.11206334746730773 0
2.6346241249088553e-06 -0.042768026875237203 0
2.8456346896888087e-06 -0.043859332857939963 0
3.1811720425157666e-06 -0.044734309561031499 0
3.2929655890790312e-06 -0.045620547495852259 0
3.5042063641975646e-06 -0.04653440218592847 0
3.6910375397576932e-06 -0.047490067283335873 0
3.7150821336245154e-06 -0.048500882250136962 0
3.933063741099851e-06 -0.049581574265571936 0
4.0422411466395615e-06 -0.050746519171564558 0
4.2844010384631294e-06 -0.052008341939431414 0
4.2640528327546059e-06 -0.053380717587492618 0
4.5549131415949275e-06 -0.054877131500881415 0
4.9462812884678877e-06 -0.056518307055548792 0
5.0016330270918583e-06 -0.058332034305525297 0
5.0439436535914602e-06 -0.060349219430861363 0
4.8422050281388431e-06 -0.062602365803730284 0
4.7433161246905076e-06 -0.065130259332966872 0
4.987250371065674e-06 -0.067973745063562532 0
4.9419657718072316e-06 -0.071203813146599182 0
5.0563144287061481e-06 -0.074901145669161229 0
5.1898719393934528e-06 -0.079169603921887446 0
5.3112193213794108e-06 -0.08416187394191274 0
5.3309139631768952e-06 -0.09022683569553458 0
5.3107214703492359e-06 -0.098274326769767148 0
5.2450342408316833e-06 -0.11204797234846231 0
2.9396681857831206e-06 -0.042757317620158365 0
3.2465528285485779e-06 -0.043847086589308831 0
3.563216316120542e-06 -0.044720506960307958 0
3.7470185224536665e-06 -0.045605764951254395 0
4.0294202908792935e-06 -0.046518632674506649 0
4.0694709549274334e-06 -0.04747335245545909 0
4.4064313672231972e-06 -0.04848305937526521 0
4.5245299370314428e-06 -0.049562733643625574 0
4.7134801796787682e-06 -0.050726183069014094 0
5.0016526002661521e-06 -0.051987136790519764 0
5.1549794088134265e-06 -0.053358270013426079 0
5.2807930459947517e-06 -0.054853737251136618 0
5.3827975645318829e-06 -0.0564930992710738 0
5.4265004261597319e-06 -0.058305458259014918 0
5.3628513264204203e-06 -0.060320849266283109 0
5.5185523822719046e-06 -0.06257228472162471 0
5.5551994003647342e-06 -0.065097797222825188 0
5.7361587124782377e-06 -0.067939253577008543 0
5.6258447658919884e-06 -0.071165983164209287 0
5.6268168315992993e-06 -0.074860827724064841 0
5.7569704091543978e-06 -0.079126601432702642 0
5.9258512111966324e-06 -0.08411580158100028 0
5.9218590293590483e-06 -0.090177960324298687 0
5.9585624088013999e-06 -0.098223402994966597 0
5.9853383540276295e-06 -0.1119920343237685 0
3.0697869331410358e-06 -0.042734992053788751 0
3.2097536480464595e-06 -0.043821829683208094 0
3.5060426778625774e-06 -0.044693472493122166 0
3.7208853591252128e-06 -0.045576180474857009 0
3.7713930342385799e-06 -0.046486786359342891 0
3.9685528964259168e-06 -0.0474388456654459 0
4.2759296120423062e-06 -0.048445985833231744 0
4.486845569403953e-06 -0.049522877343963573 0
4.5305041008849674e-06 -0.050684054570788645 0
4.8669751735774747e-06 -0.051941654725590813 0
5.3187466964811566e-06 -0.053309430724846604 0
5.6218049642992101e-06 -0.054801209368407246 0
6.3175380641374413e-06 -0.056436808006730871 0
6.297320559531345e-06 -0.058244893241354991 0
6.2898751412703204e-06 -0.060254918623649789 0
6.5543261938894072e-06 -0.062501189161035031 0
6.8228726752312345e-06 -0.065021021959112121 0
6.9614846469018425e-06 -0.067856179267310857 0
7.0614912777717915e-06 -0.071076689992530473 0
7.3285784547866543e-06 -0.074763939544148991 0
8.026133943935454e-06 -0.079022408111316389 0
8.2540926351681343e-06 -0.084004093894531909 0
8.4656635017139164e-06 -0.090058592602075979 0
8.6701455902083716e-06 -0.09809713029476233 0
8.9141702606365099e-06 -0.11185115988622024 0
4.9977873291899115e-06 -0.04269614118924675 0
5.4221023925487752e-06 -0.043777831359796897 0
5.8178381441465324e-06 -0.044644914006908482 0
6.0634113074022956e-06 -0.04552324695110628 0
6.3834753934362321e-06 -0.046428603045069898 0
6.6995045501742539e-06 -0.047375817217311329 0
6.8562757749849116e-06 -0.048377594353376303 0
6.9735063356563379e-06 -0.049448760923872591 0
7.1592529887876749e-06 -0.05060329058076779 0
7.4117082340943448e-06 -0.05185405736363316 0
7.8655277295212967e-06 -0.053214232985317751 0
8.153188815983334e-06 -0.054697543791518963 0
9.9223988301086932e-06 -0.056323615191072325 0
1.0145371620068064e-05 -0.058121314910904075 0
1.0488358959542173e-05 -0.060121070601018053 0
1.080352291058929e-05 -0.062354636522128581 0
1.1123735069481222e-05 -0.064860631474428623 0
1.1406077268248104e-05 -0.067680456386443419 0
1.1875822514129076e-05 -0.070884123163335408 0
1.2330566469646122e-05 -0.07455314689676662 0
1.2530243591174857e-05 -0.078791445398807017 0
1.2489889398687697e-05 -0.083750887137075333 0
1.3011945165981193e-05 -0.089782906399118526 0
1.3488733908108634e-05 -0.097798881386177899 0
1.4103895509013552e-05 -0.11151433122966085 0
9.607038122561602e-06 -0.042635441643251552 0
1.0308036007646189e-05 -0.043710029999173582 0
1.0972717403204667e-05 -0.044570694531136823 0
1.1617992707916501e-05 -0.045441877131870485 0
1.1977840623477964e-05 -0.046339491171476559 0
1.248747553932828e-05 -0.047277820792756942 0
1.299485291171043e-05 -0.048269933008098745 0
1.3674384020144775e-05 -0.049329943024686594 0
1.4098998268777642e-05 -0.050472102781496817 0
1.4754079243476928e-05 -0.051708713102456491 0
1.5362620107728834e-05 -0.05305301283207494 0
1.5867682313524354e-05 -0.054518708936456189 0
1.5959765978941446e-05 -0.056124535095527776 0
1.588669356610298e-05 -0.057898871613324736 0
1.6255692757051122e-05 -0.059871288226908459 0
1.6740072914069702e-05 -0.062073995625643329 0
1.7203482570097622e-05 -0.064543603314109257 0
1.7883377207894285e-05 -0.067324429043456091 0
1.842991881823377e-05 -0.070485375135983241 0
1.9080052963065716e-05 -0.074108598337620721 0
1.9686156436084495e-05 -0.07829700849870351 0
2.0451748787241682e-05 -0.083202820099549032 0
2.1499367084241641e-05 -0.089177709844445383 0
2.2045213978129496e-05 -0.097132587749494015 0
2.3195778182324552e-05 -0.11074967159412741 0
2.0100401936949412e-05 -0.042523912534837734 0
2.1627296645465616e-05 -0.043594506163193394 0
2.2727335088532772e-05 -0.044451694427832672 0
2.3681581576095404e-05 -0.04531721131989723 0
2.4640421232339897e-05 -0.046207317557595204 0
2.5455881463038841e-05 -0.047135354616753201 0
2.6140579727565643e-05 -0.048114175267652354 0
2.6825561209249982e-05 -0.049158099813611002 0
2.7565668521092994e-05 -0.050280621519575297 0
2.8190273677954542e-05 -0.051494147641968128 0
2.8787358575136947e-05 -0.052811162039654448 0
2.9203509806613501e-05 -0.054244119762633214 0
2.9891923176128735e-05 -0.055810895367558642 0
3.0481741525873103e-05 -0.05753921339171842 0
3.1107983267426253e-05 -0.05945715447098774 0
3.1671082618203493e-05 -0.061594073597829022 0
3.2313159729698151e-05 -0.063983402376142501 0
3.2570221574562668e-05 -0.066680017076892278 0
3.3190760265250242e-05 -0.069748716792239221 0
3.3902047461787554e-05 -0.073273132153116871 0
3.4627066475452475e-05 -0.077363441349405745 0
3.5373610361010813e-05 -0.082166274151640323 0
3.6460071994980378e-05 -0.088021670350965225 0
3.7286971831124264e-05 -0.095852164079042679 0
3.8426309538760849e-05 -0.10926949093238568 0
3.084827372700493e-05 -0.042063136808343109 0
3.2738372430891496e-05 -0.043060211926717086 0
3.406929249154829e-05 -0.043862459759977809 0
3.5346237794320845e-05 -0.044696147959227467 0
3.6519719877366417e-05 -0.045566540385259639 0
3.7690123778018366e-05 -0.046481313615314684 0
3.8788369056726018e-05 -0.047451241343361761 0
3.9806477737820052e-05 -0.048488066527354261 0
4.0860396709109714e-05 -0.049603364742641709 0
4.1776474570765343e-05 -0.050808710981692311 0
4.2668411318105456e-05 -0.052116011878241983 0
4.3612863080069309e-05 -0.053537310453347316 0
4.4369002606469201e-05 -0.055089397330222382 0
4.516226339178182e-05 -0.056799477117979072 0
4.601664058824851e-05 -0.05869653376126549 0
4.6781684770135538e-05 -0.060810806177238559 0
4.7542381823340665e-05 -0.063178190497973144 0
4.8354270341986263e-05 -0.065860995054262114 0
4.9226584494864299e-05 -0.068926503626453806 0
5.0277162855544927e-05 -0.072464507039630241 0
5.1308539509202562e-05 -0.076614815423252366 0
5.2523810217029297e-05 -0.08152918840405568 0
5.388142484616045e-05 -0.087500420907517557 0
5.5572177418911406e-05 -0.09544052527840674 0
5.8317789476825735e-05 -0.10877050791141732 0
-0 -0 0
-0 -0 0
-0 -0 0
-0 -0 0
-0 -0 0
-0 -0 0
3.2684083309359202e-05 0.042581123476213109 0
3.715572787145484e-05 0.046217083632902486 0
4.3238453830796221e-05 0.054677336660315559 0
-0 -0 0
-0 -0 0
-0 -0 0
3.3936252646252404e-05 0.044012212291456493 0
3.7052591783589888e-05 0.04734854206878035 0
4.2257489858813925e-05 0.055469056636795112 0
-0 -0 0
-0 -0 0
-0 -0 0
2.7536390411934059e-05 0.044293123170272945 0
3.0650982405858526e-05 0.047616916334882291 0
3.5256943308203314e-05 0.055714189415120567 0
-0 -0 0
-0 -0 0
-0 -0 0
1.5921683882870116e-05 0.044552835865129724 0
1.8090061620255598e-05 0.047860770360982907 0
2.1181368139278013e-05 0.056011200157123076 0
-0 -0 0
-0 -0 0
-0 -0 0
6.7990181741120164e-06 0.044646651207566834 0
8.0106573879776377e-06 0.047988325058509286 0
9.6645527399259031e-06 0.056224039052014861 0
-0 -0 0
-0 -0 0
-0 -0 0
2.6254566573271875e-06 0.044705630750991217 0
3.1890260866213688e-06 0.048065604436223229 0
3.8388479696199903e-06 0.056352064512475389 0
-0 -0 0
-0 -0 0
-0 -0 0
5.9931056624181322e-07 0.044742417905842803 0
5.9199235700140578e-07 0.048112752520689583 0
3.7066952934862924e-07 0.056423803369735175 0
-0 -0 0
-0 -0 0
-0 -0 0
-1.2294472804328959e-06 0.044761862423728552 0
-1.6142453049853887e-06 0.048137296632115308 0
-2.3290889791639045e-06 0.05645925672062168 0
-0 -0 0
-0 -0 0
-0 -0 0
-2.6964490784351798e-06 0.044769817881289566 0
-3.1228594335148422e-06 0.048147355512114194 0
-3.7743330718115933e-06 0.056473338263980481 0
-0 -0 0
-0 -0 0
-0 -0 0
-3.1842336441198865e-06 0.044769619569231832 0
-3.6711370397718343e-06 0.048147277816479678 0
-4.3090116275773458e-06 0.056473310959629784 0
-0 -0 0
-0 -0 0
-0 -0 0
-3.3137024304226011e-06 0.044761200590187684 0
-3.9131892614681873e-06 0.04813691646110696 0
-4.7385854414419317e-06 0.056459214824332311 0
-0 -0 0
-0 -0 0
-0 -0 0
-3.4807779904484232e-06 0.044741616971403407 0
-4.1778349953912344e-06 0.048112354204244388 0
-5.3233728050917956e-06 0.056424121029149968 0
-0 -0 0
-0 -0 0
-0 -0 0
-4.7191860072083576e-06 0.044705439487768762 0
-5.6949534622088924e-06 0.048065833960300203 0
-7.449046208144708e-06 0.056353124499849548 0
-0 -0 0
-0 -0 0
-0 -0 0
-8.5412807361379515e-06 0.044646739850038537 0
-1.008762850357518e-05 0.047988762290264102 0
-1.2496602887459482e-05 0.056225166869467096 0
-0 -0 0
-0 -0 0
-0 -0 0
-1.6662435844254385e-05 0.044552577260977735 0
-1.9004127659637442e-05 0.047860819800962073 0
-2.2331632371679486e-05 0.05601168545087308 0
-0 -0 0
-0 -0 0
-0 -0 0
-2.7316148728937719e-05 0.04429285122586863 0
-3.0410439668758657e-05 0.047616865788725926 0
-3.5004876276506779e-05 0.055714304749182812 0
-0 -0 0
-0 -0 0
-0 -0 0
-3.329367735189237e-05 0.044012016401320138 0
-3.6385374479264944e-05 0.04734840049350196 0
-4.1600903005494803e-05 0.055469045409353282 0
-0 -0 0
-0 -0 0
-0 -0 0
-3.2054352503046435e-05 0.042580741717055941 0
-3.6423972716833737e-05 0.046216676183389621 0
-4.2520565867651666e-05 0.054677129991380372 0
-0 -0 0
-0 -0 0
-0 -0 0
-0 -0 0
-0 -0 0
-0 -0 0
-0 -0 0
-0 -0 0
-0 -0 0
-0 -0 0
-0 -0 0
-0 -0 0
-0 -0 0
-0 -0 0
-0 -0 0
-0 -0 0
-0 -0 0
-0 -0 0
-0 -0 0
-0 -0 0
-0 -0 0
-0 -0 0
-0 -0 0
-0 -0 0
-0 -0 0
-0 -0 0
-0 -0 0
-0 -0 0
-0 -0 0
-0 -0 0
-0 -0 0
-0 -0 0
-0 -0 0
-0 -0 0
-0 -0 0
-0 -0 0
-0 -0 0
-0 -0 0
-0 -0 0
-0 -0 0
-0 -0 0
-0 -0 0
-0 -0 0
-0 -0 0
-0 -0 0
-0 -0 0
-0 -0 0
-0 -0 0
-0 -0 0
-0 -0 0
-0 -0 0
-0 -0 0
-0 -0 0
-0 -0 0
-0 -0 0
-0 -0 0
-0 -0 0
-0 -0 0
-0 -0 0
-0 -0 0
-0 -0 0
-0 -0 0
-0 -0 0
-0 -0 0
-0 -0 0
-0 -0 0
-0 -0 0
-0 -0 0
-0 -0 0
-0 -0 0
-0 -0 0
-0 -0 0
-0 -0 0
-0 -0 0
-0 -0 0
-0 -0 0
-0 -0 0
-0 -0 0
-0 -0 0
-0 -0 0
-0 -0 0
-0 -0 0
-0 -0 0
-0 -0 0
-0 -0 0
-0 -0 0
-0 -0 0
-0 -0 0
-0 -0 0
-0 -0 0
-0 -0 0
-0 -0 0
-0 -0 0
-0 -0 0
-0 -0 0
-0 -0 0
-0 -0 0
-0 -0 0
-0 -0 0
-0 -0 0
-0 -0 0
-0 -0 0
-0 -0 0
-0 -0 0
-0 -0 0
-0 -0 0
-0 -0 0
-0 -0 0
-0 -0 0
-0 -0 0
-0 -0 0
-0 -0 0
-0 -0 0
-0 -0 0
-0 -0 0
-0 -0 0
-0 -0 0
-0 -0 0
-0 -0 0
-0 -0 0
-0 -0 0
-0 -0 0
-0 -0 0
-0 -0 0
-0 -0 0
-0 -0 0
-0 -0 0
-0 -0 0
-0 -0 0
-0 -0 0
-0 -0 0
-0 -0 0
-0 -0 0
-0 -0 0
-0 -0 0
-0 -0 0
-0 -0 0
-0 -0 0
-0 -0 0
-0 -0 0
-0 -0 0
-0 -0 0
-0 -0 0
-0 -0 0
-0 -0 0
-0 -0 0
-0 -0 0
-0 -0 0
-0 -0 0
-0 -0 0
-0 -0 0
-0 -0 0
-0 -0 0
-0 -0 0
-0 -0 0
-0 -0 0
-0 -0 0
-0 -0 0
-0 -0 0
-0 -0 0
-0 -0 0
-0 -0 0
-0 -0 0
-0 -0 0
-0 -0 0
-0 -0 0
-0 -0 0
-0 -0 0
-0 -0 0
-0 -0 0
-0 -0 0
-0 -0 0
-0 -0 0
-0 -0 0
-0 -0 0
-0 -0 0
-0 -0 0
-0 -0 0
-0 -0 0
-0 -0 0
-0 -0 0
-0 -0 0
-0 -0 0
-0 -0 0
-0 -0 0
-0 -0 0
-0 -0 0
-0 -0 0
-0 -0 0
-0 -0 0
-0 -0 0
-0 -0 0
-0 -0 0
-0 -0 0
-0 -0 0
