# vtk DataFile Version 3.0
SPH particles (WCSPH) - legacy PolyData
ASCII
DATASET POLYDATA
POINTS 681 float
0.04998941002739285 0.021751890106742455 0
0.049987963875067515 0.024062974549816464 0
0.049986823193195237 0.025893478792097867 0
0.049985735199907982 0.027716866326713798 0
0.049984748809456525 0.029512455341481593 0
0.04998385854352734 0.031274425096048435 0
0.049983073025980762 0.033006229255662697 0
0.049982208718565395 0.034715047326010211 0
0.049981167319393227 0.036409305548404505 0
0.049979750379127233 0.03809795503807599 0
0.049977563273659924 0.039790191309153206 0
0.04997488083432982 0.041495397294090179 0
0.049973671598905527 0.043223274547652318 0
0.049974781334889223 0.044984162792385193 0
0.04997708236599345 0.046788919964241477 0
0.049979946290444513 0.048649401265793729 0
0.049982868405984468 0.050580145572847318 0
0.049985716095945577 0.052609682786038232 0
0.049988341650982496 0.054762824054920431 0
0.049990605547973715 0.057074202691593127 0
0.04999250981538348 0.059603113401037119 0
0.049994078795574874 0.062409964480754448 0
0.049995385126884298 0.065594603802676454 0
0.049996511759077794 0.06942263415636106 0
0.049998469531848194 0.074766954845070149 0
0.069994258258041842 0.020137866790428907 0
0.069993391708656524 0.022738324076237108 0
0.069992678829953747 0.024832691854448634 0
0.069992027403472878 0.026869413683435081 0
0.06999143779198648 0.028840687497657985 0
0.069990857129008086 0.030751062130734103 0
0.069990278342600895 0.032611696604708265 0
0.069989691039947372 0.034435545844305554 0
0.069989021350697012 0.03623496840421344 0
0.069988052757513436 0.038021805027961687 0
0.069986314598642643 0.039807496425097247 0
0.069983612208303722 0.041603229786562897 0
0.069981917015163486 0.043420266696059778 0
0.069982121108451659 0.045270608323176288 0
0.069983635965252297 0.047167162745160987 0
0.069985776776131728 0.049123148639958092 0
0.069988019842421118 0.051152986294786984 0
0.069990263416465776 0.05328390073671567 0
0.069992203127964586 0.055544055651293653 0
0.069993813110570041 0.057972247679261846 0
0.069995158081847905 0.060625092495030931 0
0.069996241126612679 0.063579413612214628 0
0.069997104195063053 0.066962867623142644 0
0.069997807907361723 0.071074895628411322 0
0.069998991520389756 0.076902634926276997 0
0.089997796494628274 0.02005675264911521 0
0.089997419472807955 0.022663731853489414 0
0.089997158355247381 0.024764654040440454 0
0.089996841040046363 0.026811006283475811 0
0.089996529780391354 0.028793952995301336 0
0.089996270613392174 0.030717384366011843 0
0.08999579787660783 0.032592301189890586 0
0.089995557457990052 0.034431457631779912 0
0.089995225492856462 0.036247210742934355 0
0.089994860336472388 0.038051456936848256 0
0.089994455367686813 0.039855667538178277 0
0.089993692699409489 0.041671181965494838 0
0.089992784676425783 0.043509332210725338 0
0.089992393830536768 0.045382245770423824 0
0.08999288913611167 0.047303392822060669 0
0.089993741965332358 0.049288010374905912 0
0.089994715620415819 0.051351644586330215 0
0.089995634018280243 0.053513452665839893 0
0.089996428761418487 0.055804669014510665 0
0.089997085857385875 0.058264545648979371 0
0.089997645140169169 0.06094810878791751 0
0.089998112317726878 0.063937965923181517 0
0.08999850119201544 0.067364855365895426 0
0.089998835541503688 0.071524982333152243 0
0.089999456648873322 0.077435743245102995 0
0.10999930386899703 0.020073877134042614 0
0.10999911471960708 0.0226821845569153 0
0.10999896276162663 0.024784545744556127 0
0.10999881358589635 0.026832734359142817 0
0.10999866973294291 0.028817896153373414 0
0.10999865459421539 0.030743856096721593 0
0.10999867638391359 0.032621641222403561 0
0.10999858814999512 0.034463930564762303 0
0.10999851043756725 0.036283070283125302 0
0.10999838820341309 0.038091030095048703 0
0.10999817320683193 0.03989933514185396 0
0.10999839141766397 0.041719326991224083 0
0.10999776195373799 0.043562329663303929 0
0.10999723100498969 0.04544057491657192 0
0.10999726459748804 0.047367533152597029 0
0.10999752543378487 0.049358625676973147 0
0.10999781781368695 0.05143056676633477 0
0.10999823690372786 0.053599851530536792 0
0.10999853798274933 0.055898640872637032 0
0.10999878956868603 0.058366020896677952 0
0.1099989863730062 0.061058541024148323 0
0.10999917109555127 0.064059568152887866 0
0.10999931764025057 0.067497521751005291 0
0.10999945704897519 0.07166898743286608 0
0.10999974413181551 0.077604288569166791 0
0.12999986841497602 0.020086835558536815 0
0.12999984634190534 0.022696455279720432 0
0.12999982742581828 0.024799818902697873 0
0.12999982100689059 0.026848983092754727 0
0.1299998749047219 0.028835063039942897 0
0.12999992336166774 0.03076198580478702 0
0.12999996295014396 0.032640813251968805 0
0.1299999917417155 0.034484117684136097 0
0.13000005115019 0.036304374779813714 0
0.13000016190823263 0.0381134928299557 0
0.13000022889600132 0.039923001792926127 0
0.13000008764128557 0.041744301149570971 0
0.12999983044268806 0.043588854311437698 0
0.12999954629888977 0.045468636269929946 0
0.12999933618379306 0.047397355914791599 0
0.12999922894878474 0.049390324273999857 0
0.12999931607380794 0.051464233957211267 0
0.12999942842839257 0.053635601323747346 0
0.12999951928945286 0.055936628719600617 0
0.12999959531221253 0.058406329284545547 0
0.12999966127651419 0.061101666518297688 0
0.1299997090328964 0.064105932602513599 0
0.12999976252175724 0.067546684781543215 0
0.12999981533394203 0.071720593224229939 0
0.12999990563596228 0.07766490767343677 0
0.15000018512607427 0.02009299055631842 0
0.1500002145834648 0.022703281012589737 0
0.15000025263261718 0.024807169025038017 0
0.15000030638181977 0.02685683361924943 0
0.15000047842015571 0.028843388485904078 0
0.15000051984883531 0.030770722743266581 0
0.15000051872004949 0.032649941601553815 0
0.15000054638852436 0.034493690671173555 0
0.15000059754361786 0.03631438303987964 0
0.15000065080909805 0.038123947106997215 0
0.1500007310381562 0.039933951435392898 0
0.15000060530046461 0.041755731869915186 0
0.15000056469080844 0.043600866458144892 0
0.15000036999617372 0.04548129334111304 0
0.15000015101130421 0.047410620490827088 0
0.15000004211502482 0.049404242096487395 0
0.14999998738760473 0.05147885607209219 0
0.14999998700634362 0.053650951388241233 0
0.1500000001614622 0.05595279120935686 0
0.1500000106151689 0.058423350303647828 0
0.14999999395379229 0.06111959613072717 0
0.14999999850046966 0.064124750309436665 0
0.15000001391922255 0.067566239199303893 0
0.15000001865238993 0.071740578771744778 0
0.15000001206608946 0.077688589720586648 0
0.17000038944605125 0.02009562199553723 0
0.17000046643838171 0.022706211244483972 0
0.17000050879071241 0.02481031497334768 0
0.17000064071514812 0.026860146784210982 0
0.17000072615578748 0.028846850717883826 0
0.17000086285729987 0.03077438308113804 0
0.1700010606085775 0.032653818227072508 0
0.17000112490047892 0.034497746380740005 0
0.17000116360892967 0.036318594406147778 0
0.17000119192041327 0.0381283266634539 0
0.17000119756516704 0.039938532288753298 0
0.17000109394298901 0.041760558184315719 0
0.17000107597316055 0.04360587418330391 0
0.17000106603931336 0.04548645016383944 0
0.17000064234676579 0.047416019267820339 0
0.17000049337634141 0.049409939947290052 0
0.17000038889999894 0.05148483979387606 0
0.17000032003128768 0.053657214584023276 0
0.17000027626663253 0.055959352536618559 0
0.17000024494935129 0.058430222477304124 0
0.17000018725501309 0.061126788287117546 0
0.1700001528130359 0.064132233910927261 0
0.17000012803045569 0.067573915791668104 0
0.17000011345451721 0.071748247023235165 0
0.17000008442691891 0.077697782553803857 0
0.19000034329184309 0.020096373271683583 0
0.19000038750619197 0.022707004432547251 0
0.19000056419450995 0.024811257190851164 0
0.19000061940016175 0.026861110989901987 0
0.19000072383152641 0.028847835324687397 0
0.19000093663208228 0.030775459487883267 0
0.19000115098132545 0.032654871943993004 0
0.19000114765798756 0.034498760111632096 0
0.19000120869618065 0.036319615491415297 0
0.19000124335887852 0.038129398936059399 0
0.19000112636971686 0.03993963206836354 0
0.19000114105196905 0.041761745171799265 0
0.19000083310612956 0.043607141693430544 0
0.1900007518064408 0.04548784578189969 0
0.19000069996666058 0.047417475150482481 0
0.19000053467711051 0.049411462119737883 0
0.19000048492445909 0.051486443456554176 0
0.19000048241658321 0.053658901599768771 0
0.19000041387608596 0.055961122592886603 0
0.19000045540523497 0.058432090517932668 0
0.19000038206788331 0.061128739894759955 0
0.1900003026851341 0.064134269036253924 0
0.19000022040915251 0.067575988337220685 0
0.19000017983067186 0.071750296811270223 0
0.19000012859724344 0.077700238045768796 0
0.2100003926938491 0.020095705732940901 0
0.21000047991674517 0.022706263230588258 0
0.21000054650771646 0.0248103623022187 0
0.21000061310245108 0.026860220327632248 0
0.2100007198231453 0.028846921129785336 0
0.21000075126626996 0.030774464489024975 0
0.21000084881505005 0.032653882136060762 0
0.21000088615019041 0.034497804837741876 0
0.21000095271067271 0.03631866522348464 0
0.21000099075757783 0.03812842641349827 0
0.21000097318142796 0.03993861867935454 0
0.21000093382181351 0.0417606258922072 0
0.21000075698515266 0.043605905728460501 0
0.21000060912852439 0.045486514048762548 0
0.21000059635778456 0.047416090489328329 0
0.21000050613251814 0.049409975122494877 0
0.2100004803907693 0.051484890159462428 0
0.21000052129012403 0.05365727148629873 0
0.21000036272850919 0.055959419823830132 0
0.21000032689810835 0.05843032086588091 0
0.21000029355953179 0.061126883994343836 0
0.21000027931456239 0.064132358547875176 0
0.21000023162730808 0.067574043851265919 0
0.21000019673663162 0.071748382332021993 0
0.21000013896045158 0.077697886650362064 0
0.2300004805374288 0.020093085394623893 0
0.23000056707693611 0.022703415179433639 0
0.23000065887970722 0.024807327907767983 0
0.23000074674150159 0.026856951150216756 0
0.23000087753593434 0.028843532608027505 0
0.23000097016253102 0.03077088165437639 0
0.23000106118068223 0.032650120149536964 0
0.23000111872616752 0.0344938586368062 0
0.23000125376351235 0.036314553034248957 0
0.23000134390698618 0.038124103422437161 0
0.23000136400793952 0.039934103756275333 0
0.23000117894994071 0.041755943749707959 0
0.23000099333137308 0.043601045107413278 0
0.23000090485392852 0.045481420736878872 0
0.23000089223517689 0.047410717675541177 0
0.23000082433159239 0.049404367786236601 0
0.23000072711017922 0.051479006009554962 0
0.23000062664105406 0.053651125245195039 0
0.23000057987734859 0.05595297282797871 0
0.23000050221692556 0.058423558544831583 0
0.2300004370288139 0.061119797229818681 0
0.23000037653600472 0.064124964975977222 0
0.23000032002281767 0.06756644860347924 0
0.23000027002381471 0.071740769840035745 0
0.23000015541798036 0.077688769531324559 0
0.25000066305568786 0.020086864228223072 0
0.25000078303420387 0.022696484480400462 0
0.25000086949049294 0.024799916373844471 0
0.25000100578118484 0.026849129123627555 0
0.25000112075114977 0.028835224897968192 0
0.25000123318809298 0.030762157210463482 0
0.25000128550752165 0.032641013905825612 0
0.25000144508822514 0.034484343318446284 0
0.25000154002219815 0.036304609212394492 0
0.25000166055386719 0.038113695390215856 0
0.25000173647143359 0.039923222818263743 0
0.25000166339009117 0.041744531429261968 0
0.25000154401820235 0.043589131234618925 0
0.25000170647906794 0.045468882000976783 0
0.25000158882615797 0.047397594144464629 0
0.25000150530562509 0.049390596258407485 0
0.25000133311357714 0.051464532119155144 0
0.25000112390610785 0.053635886982915104 0
0.25000096280332024 0.055936897941378322 0
0.25000083300975373 0.058406596985562186 0
0.25000070926066997 0.061101934080371685 0
0.25000059507873251 0.064106183089785052 0
0.25000049464906449 0.067546933079989241 0
0.25000040442621896 0.071720824276996137 0
0.25000021250361809 0.077665174675334875 0
0.27000107008221791 0.020073923820645444 0
0.27000127483803649 0.022682241500892982 0
0.27000142332059501 0.02478461511785408 0
0.27000158819772008 0.026832835435679225 0
0.2700018827935558 0.028818046983811612 0
0.27000205230002278 0.030744034082940845 0
0.27000222377205563 0.032621918026254151 0
0.2700024246520768 0.03446422075179513 0
0.27000263622582826 0.036283385657537179 0
0.27000284794597584 0.038091349381574983 0
0.27000306952219327 0.039899620838342184 0
0.27000316510941563 0.041719573102185999 0
0.27000367130522046 0.04356260372683976 0
0.27000362648139881 0.04544081572541022 0
0.27000345329634257 0.04736778263685143 0
0.27000310621968349 0.04935891617401119 0
0.27000266417282559 0.051430889218348833 0
0.27000221761043475 0.05360018672676737 0
0.27000186292549938 0.055898938884382902 0
0.27000157112717782 0.05836631286244455 0
0.27000129908794579 0.061058870537745502 0
0.27000107812567975 0.064059907207553585 0
0.27000088465856703 0.067497869040005057 0
0.27000071129408171 0.071669338378590339 0
0.27000035885142437 0.077604650150214255 0
0.29000245288070631 0.020056866176473519 0
0.29000286163659811 0.022663827763217449 0
0.29000317816123472 0.024764765694789699 0
0.29000349823900068 0.02681114511316654 0
0.29000382077730991 0.028794081895561666 0
0.29000417805695011 0.030717532355313746 0
0.29000454156516814 0.032592598075251923 0
0.2900049579931831 0.034431806295779563 0
0.29000541387146128 0.036247575185971811 0
0.29000592985821699 0.038051810142464455 0
0.290006513839696 0.039856036927834522 0
0.29000714397880772 0.041671500241467332 0
0.29000778226630031 0.043509643483162025 0
0.29000796574870841 0.04538252802143819 0
0.29000749179163904 0.047303674375999194 0
0.29000667572644784 0.049288304289088931 0
0.29000568443677321 0.051351994058490294 0
0.29000473260659798 0.053513827281410353 0
0.29000387352855006 0.05580503491751642 0
0.29000316569668644 0.058264898638023893 0
0.29000257544895086 0.060948468784836236 0
0.29000209076828576 0.063938349149159815 0
0.29000168166569673 0.067365246060606385 0
0.29000132543557661 0.071525363954815277 0
0.29000064524058305 0.077436124576153328 0
0.31000596578041018 0.020138051079200078 0
0.31000685996176597 0.022738535198837707 0
0.31000752271525456 0.024832883689032775 0
0.31000815169838802 0.026869675140292777 0
0.31000876590043097 0.028840954153979206 0
0.31000938229532199 0.030751277821802658 0
0.31000999956892661 0.032612012891445094 0
0.31001060301569883 0.034435889473593495 0
0.31001132968278677 0.036235287423052709 0
0.31001229649155032 0.038022093623834526 0
0.31001412177279414 0.039807740819472769 0
0.31001680998835707 0.041603476506020254 0
0.31001832024450615 0.043420546370858834 0
0.31001793020272522 0.045270888581010964 0
0.31001649046815255 0.047167431234996685 0
0.31001447335067062 0.049123424110944745 0
0.31001221759894976 0.05115329220925597 0
0.31000999752419872 0.053284247853824206 0
0.31000803241812763 0.055544451636464105 0
0.31000636976971191 0.057972641675174109 0
0.3100050057621685 0.060625496739090873 0
0.31000390899170382 0.063579799121510544 0
0.31000302366522042 0.066963244105247052 0
0.31000228925036755 0.071075269920156628 0
0.31000106488617513 0.076903003545076135 0
0.33001028370829361 0.021752249885671 0
0.33001166796229831 0.024063324600435292 0
0.33001275478941944 0.025893804024200801 0
0.33001377818609218 0.027717163933428768 0
0.33001468644742532 0.029512725658901326 0
0.33001551533349616 0.031274657969000613 0
0.3300162992483851 0.033006438911417579 0
0.33001712799478428 0.034715222783807509 0
0.33001801613659654 0.03640943792865544 0
0.33001922398485428 0.038098047746986975 0
0.33002128667253378 0.039790254942171491 0
0.33002394249386285 0.041495450897300355 0
0.33002506437658319 0.043223317249152148 0
0.33002392130025421 0.04498417025825259 0
0.33002174465307998 0.046788923216519902 0
0.33001903430133728 0.048649397915539648 0
0.3300161340461143 0.050580144078598524 0
0.3300133217661898 0.052609666519594055 0
0.33001081791430475 0.054762817769715651 0
0.33000866740797469 0.057074196046846312 0
0.33000688722038168 0.059603083898398891 0
0.33000542775337177 0.062409909965681132 0
0.33000423283931013 0.065594530091930517 0
0.33000324583175378 0.069422565181158413 0
0.33000146537007852 0.074766959337086006 0
0 0 0
0 0.020000000000000004 0
0 0.040000000000000001 0
0 0.54999999999999993 0
0 0.56000000000000005 0
0 0.58000000000000007 0
0.02 0 0
0.02 0.020000000000000004 0
0.02 0.040000000000000001 0
0.02 0.54999999999999993 0
0.02 0.56000000000000005 0
0.02 0.58000000000000007 0
0.040000000000000001 0 0
0.040000000000000001 0.020000000000000004 0
0.040000000000000001 0.040000000000000001 0
0.040000000000000001 0.54999999999999993 0
0.040000000000000001 0.56000000000000005 0
0.040000000000000001 0.58000000000000007 0
0.059999999999999998 0 0
0.059999999999999998 0.020000000000000004 0
0.059999999999999998 0.040000000000000001 0
0.059999999999999998 0.54999999999999993 0
0.059999999999999998 0.56000000000000005 0
0.059999999999999998 0.58000000000000007 0
0.080000000000000002 0 0
0.080000000000000002 0.020000000000000004 0
0.080000000000000002 0.040000000000000001 0
0.080000000000000002 0.54999999999999993 0
0.080000000000000002 0.56000000000000005 0
0.080000000000000002 0.58000000000000007 0
0.10000000000000001 0 0
0.10000000000000001 0.020000000000000004 0
0.10000000000000001 0.040000000000000001 0
0.10000000000000001 0.54999999999999993 0
0.10000000000000001 0.56000000000000005 0
0.10000000000000001 0.58000000000000007 0
0.12 0 0
0.12 0.020000000000000004 0
0.12 0.040000000000000001 0
0.12 0.54999999999999993 0
0.12 0.56000000000000005 0
0.12 0.58000000000000007 0
0.14000000000000001 0 0
0.14000000000000001 0.020000000000000004 0
0.14000000000000001 0.040000000000000001 0
0.14000000000000001 0.54999999999999993 0
0.14000000000000001 0.56000000000000005 0
0.14000000000000001 0.58000000000000007 0
0.16 0 0
0.16 0.020000000000000004 0
0.16 0.040000000000000001 0
0.16 0.54999999999999993 0
0.16 0.56000000000000005 0
0.16 0.58000000000000007 0
0.17999999999999999 0 0
0.17999999999999999 0.020000000000000004 0
0.17999999999999999 0.040000000000000001 0
0.17999999999999999 0.54999999999999993 0
0.17999999999999999 0.56000000000000005 0
0.17999999999999999 0.58000000000000007 0
0.20000000000000001 0 0
0.20000000000000001 0.020000000000000004 0
0.20000000000000001 0.040000000000000001 0
0.20000000000000001 0.54999999999999993 0
0.20000000000000001 0.56000000000000005 0
0.20000000000000001 0.58000000000000007 0
0.22 0 0
0.22 0.020000000000000004 0
0.22 0.040000000000000001 0
0.22 0.54999999999999993 0
0.22 0.56000000000000005 0
0.22 0.58000000000000007 0
0.23999999999999999 0 0
0.23999999999999999 0.020000000000000004 0
0.23999999999999999 0.040000000000000001 0
0.23999999999999999 0.54999999999999993 0
0.23999999999999999 0.56000000000000005 0
0.23999999999999999 0.58000000000000007 0
0.26000000000000001 0 0
0.26000000000000001 0.020000000000000004 0
0.26000000000000001 0.040000000000000001 0
0.26000000000000001 0.54999999999999993 0
0.26000000000000001 0.56000000000000005 0
0.26000000000000001 0.58000000000000007 0
0.28000000000000003 0 0
0.28000000000000003 0.020000000000000004 0
0.28000000000000003 0.040000000000000001 0
0.28000000000000003 0.54999999999999993 0
0.28000000000000003 0.56000000000000005 0
0.28000000000000003 0.58000000000000007 0
0.29999999999999999 0 0
0.29999999999999999 0.020000000000000004 0
0.29999999999999999 0.040000000000000001 0
0.29999999999999999 0.54999999999999993 0
0.29999999999999999 0.56000000000000005 0
0.29999999999999999 0.58000000000000007 0
0.32000000000000001 0 0
0.32000000000000001 0.020000000000000004 0
0.32000000000000001 0.040000000000000001 0
0.32000000000000001 0.54999999999999993 0
0.32000000000000001 0.56000000000000005 0
0.32000000000000001 0.58000000000000007 0
0.34000000000000002 0 0
0.34000000000000002 0.020000000000000004 0
0.34000000000000002 0.040000000000000001 0
0.34000000000000002 0.54999999999999993 0
0.34000000000000002 0.56000000000000005 0
0.34000000000000002 0.58000000000000007 0
0.35999999999999999 0 0
0.35999999999999999 0.020000000000000004 0
0.35999999999999999 0.040000000000000001 0
0.35999999999999999 0.54999999999999993 0
0.35999999999999999 0.56000000000000005 0
0.35999999999999999 0.58000000000000007 0
0.38 0 0
0.38 0.020000000000000004 0
0.38 0.040000000000000001 0
0.38 0.54999999999999993 0
0.38 0.56000000000000005 0
0.38 0.58000000000000007 0
0.40000000000000002 0 0
0.40000000000000002 0.020000000000000004 0
0.40000000000000002 0.040000000000000001 0
0.40000000000000002 0.54999999999999993 0
0.40000000000000002 0.56000000000000005 0
0.40000000000000002 0.58000000000000007 0
0.41999999999999998 0 0
0.41999999999999998 0.020000000000000004 0
0.41999999999999998 0.040000000000000001 0
0.41999999999999998 0.54999999999999993 0
0.41999999999999998 0.56000000000000005 0
0.41999999999999998 0.58000000000000007 0
0.44 0 0
0.44 0.020000000000000004 0
0.44 0.040000000000000001 0
0.44 0.54999999999999993 0
0.44 0.56000000000000005 0
0.44 0.58000000000000007 0
0.46000000000000002 0 0
0.46000000000000002 0.020000000000000004 0
0.46000000000000002 0.040000000000000001 0
0.46000000000000002 0.54999999999999993 0
0.46000000000000002 0.56000000000000005 0
0.46000000000000002 0.58000000000000007 0
0.47999999999999998 0 0
0.47999999999999998 0.020000000000000004 0
0.47999999999999998 0.040000000000000001 0
0.47999999999999998 0.54999999999999993 0
0.47999999999999998 0.56000000000000005 0
0.47999999999999998 0.58000000000000007 0
0.5 0 0
0.5 0.020000000000000004 0
0.5 0.040000000000000001 0
0.5 0.54999999999999993 0
0.5 0.56000000000000005 0
0.5 0.58000000000000007 0
0.52000000000000002 0 0
0.52000000000000002 0.020000000000000004 0
0.52000000000000002 0.040000000000000001 0
0.52000000000000002 0.54999999999999993 0
0.52000000000000002 0.56000000000000005 0
0.52000000000000002 0.58000000000000007 0
0.54000000000000004 0 0
0.54000000000000004 0.020000000000000004 0
0.54000000000000004 0.040000000000000001 0
0.54000000000000004 0.54999999999999993 0
0.54000000000000004 0.56000000000000005 0
0.54000000000000004 0.58000000000000007 0
0.56000000000000005 0 0
0.56000000000000005 0.020000000000000004 0
0.56000000000000005 0.040000000000000001 0
0.56000000000000005 0.54999999999999993 0
0.56000000000000005 0.56000000000000005 0
0.56000000000000005 0.58000000000000007 0
0.57999999999999996 0 0
0.57999999999999996 0.020000000000000004 0
0.57999999999999996 0.040000000000000001 0
0.57999999999999996 0.54999999999999993 0
0.57999999999999996 0.56000000000000005 0
0.57999999999999996 0.58000000000000007 0
0.59999999999999998 0 0
0.59999999999999998 0.020000000000000004 0
0.59999999999999998 0.040000000000000001 0
0.59999999999999998 0.54999999999999993 0
0.59999999999999998 0.56000000000000005 0
0.59999999999999998 0.58000000000000007 0
0.62 0 0
0.62 0.020000000000000004 0
0.62 0.040000000000000001 0
0.62 0.54999999999999993 0
0.62 0.56000000000000005 0
0.62 0.58000000000000007 0
0.64000000000000001 0 0
0.64000000000000001 0.020000000000000004 0
0.64000000000000001 0.040000000000000001 0
0.64000000000000001 0.54999999999999993 0
0.64000000000000001 0.56000000000000005 0
0.64000000000000001 0.58000000000000007 0
0.66000000000000003 0 0
0.66000000000000003 0.020000000000000004 0
0.66000000000000003 0.040000000000000001 0
0.66000000000000003 0.54999999999999993 0
0.66000000000000003 0.56000000000000005 0
0.66000000000000003 0.58000000000000007 0
0.68000000000000005 0 0
0.68000000000000005 0.020000000000000004 0
0.68000000000000005 0.040000000000000001 0
0.68000000000000005 0.54999999999999993 0
0.68000000000000005 0.56000000000000005 0
0.68000000000000005 0.58000000000000007 0
0.70000000000000007 0 0
0.70000000000000007 0.020000000000000004 0
0.70000000000000007 0.040000000000000001 0
0.70000000000000007 0.54999999999999993 0
0.70000000000000007 0.56000000000000005 0
0.70000000000000007 0.58000000000000007 0
0.71999999999999997 0 0
0.71999999999999997 0.020000000000000004 0
0.71999999999999997 0.040000000000000001 0
0.71999999999999997 0.54999999999999993 0
0.71999999999999997 0.56000000000000005 0
0.71999999999999997 0.58000000000000007 0
0.73999999999999999 0 0
0.73999999999999999 0.020000000000000004 0
0.73999999999999999 0.040000000000000001 0
0.73999999999999999 0.54999999999999993 0
0.73999999999999999 0.56000000000000005 0
0.73999999999999999 0.58000000000000007 0
0.76000000000000001 0 0
0.76000000000000001 0.020000000000000004 0
0.76000000000000001 0.040000000000000001 0
0.76000000000000001 0.54999999999999993 0
0.76000000000000001 0.56000000000000005 0
0.76000000000000001 0.58000000000000007 0
0.78000000000000003 0 0
0.78000000000000003 0.020000000000000004 0
0.78000000000000003 0.040000000000000001 0
0.78000000000000003 0.54999999999999993 0
0.78000000000000003 0.56000000000000005 0
0.78000000000000003 0.58000000000000007 0
0.80000000000000004 0 0
0.80000000000000004 0.020000000000000004 0
0.80000000000000004 0.040000000000000001 0
0.80000000000000004 0.54999999999999993 0
0.80000000000000004 0.56000000000000005 0
0.80000000000000004 0.58000000000000007 0
0.82000000000000006 0 0
0.82000000000000006 0.020000000000000004 0
0.82000000000000006 0.040000000000000001 0
0.82000000000000006 0.54999999999999993 0
0.82000000000000006 0.56000000000000005 0
0.82000000000000006 0.58000000000000007 0
0.83999999999999997 0 0
0.83999999999999997 0.020000000000000004 0
0.83999999999999997 0.040000000000000001 0
0.83999999999999997 0.54999999999999993 0
0.83999999999999997 0.56000000000000005 0
0.83999999999999997 0.58000000000000007 0
0.85999999999999999 0 0
0.85999999999999999 0.020000000000000004 0
0.85999999999999999 0.040000000000000001 0
0.85999999999999999 0.54999999999999993 0
0.85999999999999999 0.56000000000000005 0
0.85999999999999999 0.58000000000000007 0
0.88 0 0
0.88 0.020000000000000004 0
0.88 0.040000000000000001 0
0.88 0.54999999999999993 0
0.88 0.56000000000000005 0
0.88 0.58000000000000007 0
0.90000000000000002 0 0
0.90000000000000002 0.020000000000000004 0
0.90000000000000002 0.040000000000000001 0
0.90000000000000002 0.54999999999999993 0
0.90000000000000002 0.56000000000000005 0
0.90000000000000002 0.58000000000000007 0
0.92000000000000004 0 0
0.92000000000000004 0.020000000000000004 0
0.92000000000000004 0.040000000000000001 0
0.92000000000000004 0.54999999999999993 0
0.92000000000000004 0.56000000000000005 0
0.92000000000000004 0.58000000000000007 0
0.94000000000000006 0 0
0.94000000000000006 0.020000000000000004 0
0.94000000000000006 0.040000000000000001 0
0.94000000000000006 0.54999999999999993 0
0.94000000000000006 0.56000000000000005 0
0.94000000000000006 0.58000000000000007 0
0.95999999999999996 0 0
0.95999999999999996 0.020000000000000004 0
0.95999999999999996 0.040000000000000001 0
0.95999999999999996 0.54999999999999993 0
0.95999999999999996 0.56000000000000005 0
0.95999999999999996 0.58000000000000007 0
0.97999999999999998 0 0
0.97999999999999998 0.020000000000000004 0
0.97999999999999998 0.040000000000000001 0
0.97999999999999998 0.54999999999999993 0
0.97999999999999998 0.56000000000000005 0
0.97999999999999998 0.58000000000000007 0
1 0 0
1 0.020000000000000004 0
1 0.040000000000000001 0
1 0.54999999999999993 0
1 0.56000000000000005 0
1 0.58000000000000007 0
VERTICES 681 1362
1 0
1 1
1 2
1 3
1 4
1 5
1 6
1 7
1 8
1 9
1 10
1 11
1 12
1 13
1 14
1 15
1 16
1 17
1 18
1 19
1 20
1 21
1 22
1 23
1 24
1 25
1 26
1 27
1 28
1 29
1 30
1 31
1 32
1 33
1 34
1 35
1 36
1 37
1 38
1 39
1 40
1 41
1 42
1 43
1 44
1 45
1 46
1 47
1 48
1 49
1 50
1 51
1 52
1 53
1 54
1 55
1 56
1 57
1 58
1 59
1 60
1 61
1 62
1 63
1 64
1 65
1 66
1 67
1 68
1 69
1 70
1 71
1 72
1 73
1 74
1 75
1 76
1 77
1 78
1 79
1 80
1 81
1 82
1 83
1 84
1 85
1 86
1 87
1 88
1 89
1 90
1 91
1 92
1 93
1 94
1 95
1 96
1 97
1 98
1 99
1 100
1 101
1 102
1 103
1 104
1 105
1 106
1 107
1 108
1 109
1 110
1 111
1 112
1 113
1 114
1 115
1 116
1 117
1 118
1 119
1 120
1 121
1 122
1 123
1 124
1 125
1 126
1 127
1 128
1 129
1 130
1 131
1 132
1 133
1 134
1 135
1 136
1 137
1 138
1 139
1 140
1 141
1 142
1 143
1 144
1 145
1 146
1 147
1 148
1 149
1 150
1 151
1 152
1 153
1 154
1 155
1 156
1 157
1 158
1 159
1 160
1 161
1 162
1 163
1 164
1 165
1 166
1 167
1 168
1 169
1 170
1 171
1 172
1 173
1 174
1 175
1 176
1 177
1 178
1 179
1 180
1 181
1 182
1 183
1 184
1 185
1 186
1 187
1 188
1 189
1 190
1 191
1 192
1 193
1 194
1 195
1 196
1 197
1 198
1 199
1 200
1 201
1 202
1 203
1 204
1 205
1 206
1 207
1 208
1 209
1 210
1 211
1 212
1 213
1 214
1 215
1 216
1 217
1 218
1 219
1 220
1 221
1 222
1 223
1 224
1 225
1 226
1 227
1 228
1 229
1 230
1 231
1 232
1 233
1 234
1 235
1 236
1 237
1 238
1 239
1 240
1 241
1 242
1 243
1 244
1 245
1 246
1 247
1 248
1 249
1 250
1 251
1 252
1 253
1 254
1 255
1 256
1 257
1 258
1 259
1 260
1 261
1 262
1 263
1 264
1 265
1 266
1 267
1 268
1 269
1 270
1 271
1 272
1 273
1 274
1 275
1 276
1 277
1 278
1 279
1 280
1 281
1 282
1 283
1 284
1 285
1 286
1 287
1 288
1 289
1 290
1 291
1 292
1 293
1 294
1 295
1 296
1 297
1 298
1 299
1 300
1 301
1 302
1 303
1 304
1 305
1 306
1 307
1 308
1 309
1 310
1 311
1 312
1 313
1 314
1 315
1 316
1 317
1 318
1 319
1 320
1 321
1 322
1 323
1 324
1 325
1 326
1 327
1 328
1 329
1 330
1 331
1 332
1 333
1 334
1 335
1 336
1 337
1 338
1 339
1 340
1 341
1 342
1 343
1 344
1 345
1 346
1 347
1 348
1 349
1 350
1 351
1 352
1 353
1 354
1 355
1 356
1 357
1 358
1 359
1 360
1 361
1 362
1 363
1 364
1 365
1 366
1 367
1 368
1 369
1 370
1 371
1 372
1 373
1 374
1 375
1 376
1 377
1 378
1 379
1 380
1 381
1 382
1 383
1 384
1 385
1 386
1 387
1 388
1 389
1 390
1 391
1 392
1 393
1 394
1 395
1 396
1 397
1 398
1 399
1 400
1 401
1 402
1 403
1 404
1 405
1 406
1 407
1 408
1 409
1 410
1 411
1 412
1 413
1 414
1 415
1 416
1 417
1 418
1 419
1 420
1 421
1 422
1 423
1 424
1 425
1 426
1 427
1 428
1 429
1 430
1 431
1 432
1 433
1 434
1 435
1 436
1 437
1 438
1 439
1 440
1 441
1 442
1 443
1 444
1 445
1 446
1 447
1 448
1 449
1 450
1 451
1 452
1 453
1 454
1 455
1 456
1 457
1 458
1 459
1 460
1 461
1 462
1 463
1 464
1 465
1 466
1 467
1 468
1 469
1 470
1 471
1 472
1 473
1 474
1 475
1 476
1 477
1 478
1 479
1 480
1 481
1 482
1 483
1 484
1 485
1 486
1 487
1 488
1 489
1 490
1 491
1 492
1 493
1 494
1 495
1 496
1 497
1 498
1 499
1 500
1 501
1 502
1 503
1 504
1 505
1 506
1 507
1 508
1 509
1 510
1 511
1 512
1 513
1 514
1 515
1 516
1 517
1 518
1 519
1 520
1 521
1 522
1 523
1 524
1 525
1 526
1 527
1 528
1 529
1 530
1 531
1 532
1 533
1 534
1 535
1 536
1 537
1 538
1 539
1 540
1 541
1 542
1 543
1 544
1 545
1 546
1 547
1 548
1 549
1 550
1 551
1 552
1 553
1 554
1 555
1 556
1 557
1 558
1 559
1 560
1 561
1 562
1 563
1 564
1 565
1 566
1 567
1 568
1 569
1 570
1 571
1 572
1 573
1 574
1 575
1 576
1 577
1 578
1 579
1 580
1 581
1 582
1 583
1 584
1 585
1 586
1 587
1 588
1 589
1 590
1 591
1 592
1 593
1 594
1 595
1 596
1 597
1 598
1 599
1 600
1 601
1 602
1 603
1 604
1 605
1 606
1 607
1 608
1 609
1 610
1 611
1 612
1 613
1 614
1 615
1 616
1 617
1 618
1 619
1 620
1 621
1 622
1 623
1 624
1 625
1 626
1 627
1 628
1 629
1 630
1 631
1 632
1 633
1 634
1 635
1 636
1 637
1 638
1 639
1 640
1 641
1 642
1 643
1 644
1 645
1 646
1 647
1 648
1 649
1 650
1 651
1 652
1 653
1 654
1 655
1 656
1 657
1 658
1 659
1 660
1 661
1 662
1 663
1 664
1 665
1 666
1 667
1 668
1 669
1 670
1 671
1 672
1 673
1 674
1 675
1 676
1 677
1 678
1 679
1 680
POINT_DATA 681
SCALARS is_boundary int 1
LOOKUP_TABLE default
0
0
0
0
0
0
0
0
0
0
0
0
0
0
0
0
0
0
0
0
0
0
0
0
0
0
0
0
0
0
0
0
0
0
0
0
0
0
0
0
0
0
0
0
0
0
0
0
0
0
0
0
0
0
0
0
0
0
0
0
0
0
0
0
0
0
0
0
0
0
0
0
0
0
0
0
0
0
0
0
0
0
0
0
0
0
0
0
0
0
0
0
0
0
0
0
0
0
0
0
0
0
0
0
0
0
0
0
0
0
0
0
0
0
0
0
0
0
0
0
0
0
0
0
0
0
0
0
0
0
0
0
0
0
0
0
0
0
0
0
0
0
0
0
0
0
0
0
0
0
0
0
0
0
0
0
0
0
0
0
0
0
0
0
0
0
0
0
0
0
0
0
0
0
0
0
0
0
0
0
0
0
0
0
0
0
0
0
0
0
0
0
0
0
0
0
0
0
0
0
0
0
0
0
0
0
0
0
0
0
0
0
0
0
0
0
0
0
0
0
0
0
0
0
0
0
0
0
0
0
0
0
0
0
0
0
0
0
0
0
0
0
0
0
0
0
0
0
0
0
0
0
0
0
0
0
0
0
0
0
0
0
0
0
0
0
0
0
0
0
0
0
0
0
0
0
0
0
0
0
0
0
0
0
0
0
0
0
0
0
0
0
0
0
0
0
0
0
0
0
0
0
0
0
0
0
0
0
0
0
0
0
0
0
0
0
0
0
0
0
0
0
0
0
0
0
0
0
0
0
0
0
0
0
0
0
0
0
0
0
0
0
0
0
0
0
0
0
0
0
0
0
0
0
0
0
0
0
0
0
0
0
0
0
0
0
0
0
0
0
0
0
0
0
0
1
1
1
1
1
1
1
1
1
1
1
1
1
1
1
1
1
1
1
1
1
1
1
1
1
1
1
1
1
1
1
1
1
1
1
1
1
1
1
1
1
1
1
1
1
1
1
1
1
1
1
1
1
1
1
1
1
1
1
1
1
1
1
1
1
1
1
1
1
1
1
1
1
1
1
1
1
1
1
1
1
1
1
1
1
1
1
1
1
1
1
1
1
1
1
1
1
1
1
1
1
1
1
1
1
1
1
1
1
1
1
1
1
1
1
1
1
1
1
1
1
1
1
1
1
1
1
1
1
1
1
1
1
1
1
1
1
1
1
1
1
1
1
1
1
1
1
1
1
1
1
1
1
1
1
1
1
1
1
1
1
1
1
1
1
1
1
1
1
1
1
1
1
1
1
1
1
1
1
1
1
1
1
1
1
1
1
1
1
1
1
1
1
1
1
1
1
1
1
1
1
1
1
1
1
1
1
1
1
1
1
1
1
1
1
1
1
1
1
1
1
1
1
1
1
1
1
1
1
1
1
1
1
1
1
1
1
1
1
1
1
1
1
1
1
1
1
1
1
1
1
1
1
1
1
1
1
1
1
1
1
1
1
1
1
1
1
1
1
1
1
1
1
1
1
1
1
1
1
1
1
1
1
1
1
1
1
1
1
1
1
1
1
1
1
1
1
1
1
1
1
1
1
1
1
1
SCALARS rho float 1
LOOKUP_TABLE default
1020
1020
1020
1020
1020
1020
1020
1020
1020
1020
1020
1020
1020
1020
1020
1020
1020
1020
1020
1020
1020
1020
1020
1020
1020
1020
1020
1020
1020
1020
1020
1020
1020
1020
1020
1020
1020
1020
1020
1020
1020
1020
1020
1020
1020
1020
1020
1020
1020
1020
1020
1020
1020
1020
1020
1020
1020
1020
1020
1020
1020
1020
1020
1020
1020
1020
1020
1020
1020
1020
1020
1020
1020
1020
1020
1020
1020
1020
1020
1020
1020
1020
1020
1020
1020
1020
1020
1020
1020
1020
1020
1020
1020
1020
1020
1020
1020
1020
1020
1020
1020
1020
1020
1020
1020
1020
1020
1020
1020
1020
1020
1020
1020
1020
1020
1020
1020
1020
1020
1020
1020
1020
1020
1020
1020
1020
1020
1020
1020
1020
1020
1020
1020
1020
1020
1020
1020
1020
1020
1020
1020
1020
1020
1020
1020
1020
1020
1020
1020
1020
1020
1020
1020
1020
1020
1020
1020
1020
1020
1020
1020
1020
1020
1020
1020
1020
1020
1020
1020
1020
1020
1020
1020
1020
1020
1020
1020
1020
1020
1020
1020
1020
1020
1020
1020
1020
1020
1020
1020
1020
1020
1020
1020
1020
1020
1020
1020
1020
1020
1020
1020
1020
1020
1020
1020
1020
1020
1020
1020
1020
1020
1020
1020
1020
1020
1020
1020
1020
1020
1020
1020
1020
1020
1020
1020
1020
1020
1020
1020
1020
1020
1020
1020
1020
1020
1020
1020
1020
1020
1020
1020
1020
1020
1020
1020
1020
1020
1020
1020
1020
1020
1020
1020
1020
1020
1020
1020
1020
1020
1020
1020
1020
1020
1020
1020
1020
1020
1020
1020
1020
1020
1020
1020
1020
1020
1020
1020
1020
1020
1020
1020
1020
1020
1020
1020
1020
1020
1020
1020
1020
1020
1020
1020
1020
1020
1020
1020
1020
1020
1020
1020
1020
1020
1020
1020
1020
1020
1020
1020
1020
1020
1020
1020
1020
1020
1020
1020
1020
1020
1020
1020
1020
1020
1020
1020
1020
1020
1020
1020
1020
1020
1020
1020
1020
1020
1020
1020
1020
1020
1020
1020
1020
1020
1020
1020
1020
1020
1020
1020
1020
1020
1020
1020
1020
1020
1020
1020
1020
1020
1020
1020
1020
1020
1020
1020
1020
1020
1020
1020
1020
1020
1020
1020
1020
1020
1000
1000
1000
1000
1000
1000
1000
1000
1000
1000
1000
1000
1000
1000
1000
1000
1000
1000
1000
1000
1000
1000
1000
1000
1000
1000
1000
1000
1000
1000
1000
1000
1000
1000
1000
1000
1000
1000
1000
1000
1000
1000
1000
1000
1000
1000
1000
1000
1000
1000
1000
1000
1000
1000
1000
1000
1000
1000
1000
1000
1000
1000
1000
1000
1000
1000
1000
1000
1000
1000
1000
1000
1000
1000
1000
1000
1000
1000
1000
1000
1000
1000
1000
1000
1000
1000
1000
1000
1000
1000
1000
1000
1000
1000
1000
1000
1000
1000
1000
1000
1000
1000
1000
1000
1000
1000
1000
1000
1000
1000
1000
1000
1000
1000
1000
1000
1000
1000
1000
1000
1000
1000
1000
1000
1000
1000
1000
1000
1000
1000
1000
1000
1000
1000
1000
1000
1000
1000
1000
1000
1000
1000
1000
1000
1000
1000
1000
1000
1000
1000
1000
1000
1000
1000
1000
1000
1000
1000
1000
1000
1000
1000
1000
1000
1000
1000
1000
1000
1000
1000
1000
1000
1000
1000
1000
1000
1000
1000
1000
1000
1000
1000
1000
1000
1000
1000
1000
1000
1000
1000
1000
1000
1000
1000
1000
1000
1000
1000
1000
1000
1000
1000
1000
1000
1000
1000
1000
1000
1000
1000
1000
1000
1000
1000
1000
1000
1000
1000
1000
1000
1000
1000
1000
1000
1000
1000
1000
1000
1000
1000
1000
1000
1000
1000
1000
1000
1000
1000
1000
1000
1000
1000
1000
1000
1000
1000
1000
1000
1000
1000
1000
1000
1000
1000
1000
1000
1000
1000
1000
1000
1000
1000
1000
1000
1000
1000
1000
1000
1000
1000
1000
1000
1000
1000
1000
1000
1000
1000
1000
1000
1000
1000
1000
1000
1000
1000
1000
1000
1000
1000
1000
1000
1000
1000
1000
1000
1000
1000
1000
1000
1000
1000
1000
1000
1000
1000
SCALARS p float 1
LOOKUP_TABLE default
25004.681136676067
25004.681136676067
25004.681136676067
25004.681136676067
25004.681136676067
25004.681136676067
25004.681136676067
25004.681136676067
25004.681136676067
25004.681136676067
25004.681136676067
25004.681136676067
25004.681136676067
25004.681136676067
25004.681136676067
25004.681136676067
25004.681136676067
25004.681136676067
25004.681136676067
25004.681136676067
25004.681136676067
25004.681136676067
25004.681136676067
25004.681136676067
25004.681136676067
25004.681136676067
25004.681136676067
25004.681136676067
25004.681136676067
25004.681136676067
25004.681136676067
25004.681136676067
25004.681136676067
25004.681136676067
25004.681136676067
25004.681136676067
25004.681136676067
25004.681136676067
25004.681136676067
25004.681136676067
25004.681136676067
25004.681136676067
25004.681136676067
25004.681136676067
25004.681136676067
25004.681136676067
25004.681136676067
25004.681136676067
25004.681136676067
25004.681136676067
25004.681136676067
25004.681136676067
25004.681136676067
25004.681136676067
25004.681136676067
25004.681136676067
25004.681136676067
25004.681136676067
25004.681136676067
25004.681136676067
25004.681136676067
25004.681136676067
25004.681136676067
25004.681136676067
25004.681136676067
25004.681136676067
25004.681136676067
25004.681136676067
25004.681136676067
25004.681136676067
25004.681136676067
25004.681136676067
25004.681136676067
25004.681136676067
25004.681136676067
25004.681136676067
25004.681136676067
25004.681136676067
25004.681136676067
25004.681136676067
25004.681136676067
25004.681136676067
25004.681136676067
25004.681136676067
25004.681136676067
25004.681136676067
25004.681136676067
25004.681136676067
25004.681136676067
25004.681136676067
25004.681136676067
25004.681136676067
25004.681136676067
25004.681136676067
25004.681136676067
25004.681136676067
25004.681136676067
25004.681136676067
25004.681136676067
25004.681136676067
25004.681136676067
25004.681136676067
25004.681136676067
25004.681136676067
25004.681136676067
25004.681136676067
25004.681136676067
25004.681136676067
25004.681136676067
25004.681136676067
25004.681136676067
25004.681136676067
25004.681136676067
25004.681136676067
25004.681136676067
25004.681136676067
25004.681136676067
25004.681136676067
25004.681136676067
25004.681136676067
25004.681136676067
25004.681136676067
25004.681136676067
25004.681136676067
25004.681136676067
25004.681136676067
25004.681136676067
25004.681136676067
25004.681136676067
25004.681136676067
25004.681136676067
25004.681136676067
25004.681136676067
25004.681136676067
25004.681136676067
25004.681136676067
25004.681136676067
25004.681136676067
25004.681136676067
25004.681136676067
25004.681136676067
25004.681136676067
25004.681136676067
25004.681136676067
25004.681136676067
25004.681136676067
25004.681136676067
25004.681136676067
25004.681136676067
25004.681136676067
25004.681136676067
25004.681136676067
25004.681136676067
25004.681136676067
25004.681136676067
25004.681136676067
25004.681136676067
25004.681136676067
25004.681136676067
25004.681136676067
25004.681136676067
25004.681136676067
25004.681136676067
25004.681136676067
25004.681136676067
25004.681136676067
25004.681136676067
25004.681136676067
25004.681136676067
25004.681136676067
25004.681136676067
25004.681136676067
25004.681136676067
25004.681136676067
25004.681136676067
25004.681136676067
25004.681136676067
25004.681136676067
25004.681136676067
25004.681136676067
25004.681136676067
25004.681136676067
25004.681136676067
25004.681136676067
25004.681136676067
25004.681136676067
25004.681136676067
25004.681136676067
25004.681136676067
25004.681136676067
25004.681136676067
25004.681136676067
25004.681136676067
25004.681136676067
25004.681136676067
25004.681136676067
25004.681136676067
25004.681136676067
25004.681136676067
25004.681136676067
25004.681136676067
25004.681136676067
25004.681136676067
25004.681136676067
25004.681136676067
25004.681136676067
25004.681136676067
25004.681136676067
25004.681136676067
25004.681136676067
25004.681136676067
25004.681136676067
25004.681136676067
25004.681136676067
25004.681136676067
25004.681136676067
25004.681136676067
25004.681136676067
25004.681136676067
25004.681136676067
25004.681136676067
25004.681136676067
25004.681136676067
25004.681136676067
25004.681136676067
25004.681136676067
25004.681136676067
25004.681136676067
25004.681136676067
25004.681136676067
25004.681136676067
25004.681136676067
25004.681136676067
25004.681136676067
25004.681136676067
25004.681136676067
25004.681136676067
25004.681136676067
25004.681136676067
25004.681136676067
25004.681136676067
25004.681136676067
25004.681136676067
25004.681136676067
25004.681136676067
25004.681136676067
25004.681136676067
25004.681136676067
25004.681136676067
25004.681136676067
25004.681136676067
25004.681136676067
25004.681136676067
25004.681136676067
25004.681136676067
25004.681136676067
25004.681136676067
25004.681136676067
25004.681136676067
25004.681136676067
25004.681136676067
25004.681136676067
25004.681136676067
25004.681136676067
25004.681136676067
25004.681136676067
25004.681136676067
25004.681136676067
25004.681136676067
25004.681136676067
25004.681136676067
25004.681136676067
25004.681136676067
25004.681136676067
25004.681136676067
25004.681136676067
25004.681136676067
25004.681136676067
25004.681136676067
25004.681136676067
25004.681136676067
25004.681136676067
25004.681136676067
25004.681136676067
25004.681136676067
25004.681136676067
25004.681136676067
25004.681136676067
25004.681136676067
25004.681136676067
25004.681136676067
25004.681136676067
25004.681136676067
25004.681136676067
25004.681136676067
25004.681136676067
25004.681136676067
25004.681136676067
25004.681136676067
25004.681136676067
25004.681136676067
25004.681136676067
25004.681136676067
25004.681136676067
25004.681136676067
25004.681136676067
25004.681136676067
25004.681136676067
25004.681136676067
25004.681136676067
25004.681136676067
25004.681136676067
25004.681136676067
25004.681136676067
25004.681136676067
25004.681136676067
25004.681136676067
25004.681136676067
25004.681136676067
25004.681136676067
25004.681136676067
25004.681136676067
25004.681136676067
25004.681136676067
25004.681136676067
25004.681136676067
25004.681136676067
25004.681136676067
25004.681136676067
25004.681136676067
25004.681136676067
25004.681136676067
25004.681136676067
25004.681136676067
25004.681136676067
25004.681136676067
25004.681136676067
25004.681136676067
25004.681136676067
25004.681136676067
25004.681136676067
25004.681136676067
25004.681136676067
25004.681136676067
25004.681136676067
25004.681136676067
25004.681136676067
25004.681136676067
25004.681136676067
25004.681136676067
25004.681136676067
25004.681136676067
25004.681136676067
25004.681136676067
25004.681136676067
25004.681136676067
25004.681136676067
25004.681136676067
25004.681136676067
25004.681136676067
25004.681136676067
25004.681136676067
25004.681136676067
25004.681136676067
25004.681136676067
25004.681136676067
25004.681136676067
25004.681136676067
25004.681136676067
25004.681136676067
25004.681136676067
25004.681136676067
25004.681136676067
25004.681136676067
25004.681136676067
0
0
0
0
0
0
24685.021582932575
24991.060148498589
24998.021987163203
0
0
0
24994.613380732546
25003.660479709637
25004.141985821869
0
0
0
24999.952839390993
25004.153364584159
25004.395277295385
0
0
0
25000.387838501119
25004.175679919706
25004.401226089998
0
0
0
25000.422788532273
25004.175253267495
25004.399602664103
0
0
0
25000.411823007391
25004.174405088612
25004.399231658877
0
0
0
25000.403720391347
25004.173916533804
25004.399118257308
0
0
0
25000.399868430359
25004.17368982159
25004.399075252455
0
0
0
25000.398425304145
25004.173609469464
25004.399063103305
0
0
0
25000.398405202101
25004.173610327238
25004.399064413545
0
0
0
25000.399827409983
25004.173690887204
25004.399077544702
0
0
0
25000.403680723299
25004.173916998596
25004.399120316732
0
0
0
25000.411799513389
25004.174406302027
25004.399234559569
0
0
0
25000.422728364752
25004.175252340268
25004.399605809456
0
0
0
25000.387737000339
25004.175679401629
25004.401230772219
0
0
0
24999.952744122071
25004.153372021363
25004.395286987463
0
0
0
24994.612610953271
25003.660439795469
25004.141968676719
0
0
0
24684.946323806107
24991.05810296581
24998.020809095364
0
0
0
0
0
0
0
0
0
0
0
0
0
0
0
0
0
0
0
0
0
0
0
0
0
0
0
0
0
0
0
0
0
0
0
0
0
0
0
0
0
0
0
0
0
0
0
0
0
0
0
0
0
0
0
0
0
0
0
0
0
0
0
0
0
0
0
0
0
0
0
0
0
0
0
0
0
0
0
0
0
0
0
0
0
0
0
0
0
0
0
0
0
0
0
0
0
0
0
0
0
0
0
0
0
0
0
0
0
0
0
0
0
0
0
0
0
0
0
0
0
0
0
0
0
0
0
0
0
0
0
0
0
0
0
0
0
0
0
0
0
0
0
0
0
0
0
0
0
0
0
0
0
0
0
0
0
0
0
0
0
0
0
0
0
0
0
0
0
0
0
0
0
0
0
0
0
0
0
0
0
0
0
0
0
0
0
0
0
0
0
0
0
0
0
SCALARS m float 1
LOOKUP_TABLE default
0.39942306611962441
0.39942306611962441
0.39942306611962441
0.39942306611962441
0.39942306611962441
0.39942306611962441
0.39942306611962441
0.39942306611962441
0.39942306611962441
0.39942306611962441
0.39942306611962441
0.39942306611962441
0.39942306611962441
0.39942306611962441
0.39942306611962441
0.39942306611962441
0.39942306611962441
0.39942306611962441
0.39942306611962441
0.39942306611962441
0.39942306611962441
0.39942306611962441
0.39942306611962441
0.39942306611962441
0.39942306611962441
0.39942306611962441
0.39942306611962441
0.39942306611962441
0.39942306611962441
0.39942306611962441
0.39942306611962441
0.39942306611962441
0.39942306611962441
0.39942306611962441
0.39942306611962441
0.39942306611962441
0.39942306611962441
0.39942306611962441
0.39942306611962441
0.39942306611962441
0.39942306611962441
0.39942306611962441
0.39942306611962441
0.39942306611962441
0.39942306611962441
0.39942306611962441
0.39942306611962441
0.39942306611962441
0.39942306611962441
0.39942306611962441
0.39942306611962441
0.39942306611962441
0.39942306611962441
0.39942306611962441
0.39942306611962441
0.39942306611962441
0.39942306611962441
0.39942306611962441
0.39942306611962441
0.39942306611962441
0.39942306611962441
0.39942306611962441
0.39942306611962441
0.39942306611962441
0.39942306611962441
0.39942306611962441
0.39942306611962441
0.39942306611962441
0.39942306611962441
0.39942306611962441
0.39942306611962441
0.39942306611962441
0.39942306611962441
0.39942306611962441
0.39942306611962441
0.39942306611962441
0.39942306611962441
0.39942306611962441
0.39942306611962441
0.39942306611962441
0.39942306611962441
0.39942306611962441
0.39942306611962441
0.39942306611962441
0.39942306611962441
0.39942306611962441
0.39942306611962441
0.39942306611962441
0.39942306611962441
0.39942306611962441
0.39942306611962441
0.39942306611962441
0.39942306611962441
0.39942306611962441
0.39942306611962441
0.39942306611962441
0.39942306611962441
0.39942306611962441
0.39942306611962441
0.39942306611962441
0.39942306611962441
0.39942306611962441
0.39942306611962441
0.39942306611962441
0.39942306611962441
0.39942306611962441
0.39942306611962441
0.39942306611962441
0.39942306611962441
0.39942306611962441
0.39942306611962441
0.39942306611962441
0.39942306611962441
0.39942306611962441
0.39942306611962441
0.39942306611962441
0.39942306611962441
0.39942306611962441
0.39942306611962441
0.39942306611962441
0.39942306611962441
0.39942306611962441
0.39942306611962441
0.39942306611962441
0.39942306611962441
0.39942306611962441
0.39942306611962441
0.39942306611962441
0.39942306611962441
0.39942306611962441
0.39942306611962441
0.39942306611962441
0.39942306611962441
0.39942306611962441
0.39942306611962441
0.39942306611962441
0.39942306611962441
0.39942306611962441
0.39942306611962441
0.39942306611962441
0.39942306611962441
0.39942306611962441
0.39942306611962441
0.39942306611962441
0.39942306611962441
0.39942306611962441
0.39942306611962441
0.39942306611962441
0.39942306611962441
0.39942306611962441
0.39942306611962441
0.39942306611962441
0.39942306611962441
0.39942306611962441
0.39942306611962441
0.39942306611962441
0.39942306611962441
0.39942306611962441
0.39942306611962441
0.39942306611962441
0.39942306611962441
0.39942306611962441
0.39942306611962441
0.39942306611962441
0.39942306611962441
0.39942306611962441
0.39942306611962441
0.39942306611962441
0.39942306611962441
0.39942306611962441
0.39942306611962441
0.39942306611962441
0.39942306611962441
0.39942306611962441
0.39942306611962441
0.39942306611962441
0.39942306611962441
0.39942306611962441
0.39942306611962441
0.39942306611962441
0.39942306611962441
0.39942306611962441
0.39942306611962441
0.39942306611962441
0.39942306611962441
0.39942306611962441
0.39942306611962441
0.39942306611962441
0.39942306611962441
0.39942306611962441
0.39942306611962441
0.39942306611962441
0.39942306611962441
0.39942306611962441
0.39942306611962441
0.39942306611962441
0.39942306611962441
0.39942306611962441
0.39942306611962441
0.39942306611962441
0.39942306611962441
0.39942306611962441
0.39942306611962441
0.39942306611962441
0.39942306611962441
0.39942306611962441
0.39942306611962441
0.39942306611962441
0.39942306611962441
0.39942306611962441
0.39942306611962441
0.39942306611962441
0.39942306611962441
0.39942306611962441
0.39942306611962441
0.39942306611962441
0.39942306611962441
0.39942306611962441
0.39942306611962441
0.39942306611962441
0.39942306611962441
0.39942306611962441
0.39942306611962441
0.39942306611962441
0.39942306611962441
0.39942306611962441
0.39942306611962441
0.39942306611962441
0.39942306611962441
0.39942306611962441
0.39942306611962441
0.39942306611962441
0.39942306611962441
0.39942306611962441
0.39942306611962441
0.39942306611962441
0.39942306611962441
0.39942306611962441
0.39942306611962441
0.39942306611962441
0.39942306611962441
0.39942306611962441
0.39942306611962441
0.39942306611962441
0.39942306611962441
0.39942306611962441
0.39942306611962441
0.39942306611962441
0.39942306611962441
0.39942306611962441
0.39942306611962441
0.39942306611962441
0.39942306611962441
0.39942306611962441
0.39942306611962441
0.39942306611962441
0.39942306611962441
0.39942306611962441
0.39942306611962441
0.39942306611962441
0.39942306611962441
0.39942306611962441
0.39942306611962441
0.39942306611962441
0.39942306611962441
0.39942306611962441
0.39942306611962441
0.39942306611962441
0.39942306611962441
0.39942306611962441
0.39942306611962441
0.39942306611962441
0.39942306611962441
0.39942306611962441
0.39942306611962441
0.39942306611962441
0.39942306611962441
0.39942306611962441
0.39942306611962441
0.39942306611962441
0.39942306611962441
0.39942306611962441
0.39942306611962441
0.39942306611962441
0.39942306611962441
0.39942306611962441
0.39942306611962441
0.39942306611962441
0.39942306611962441
0.39942306611962441
0.39942306611962441
0.39942306611962441
0.39942306611962441
0.39942306611962441
0.39942306611962441
0.39942306611962441
0.39942306611962441
0.39942306611962441
0.39942306611962441
0.39942306611962441
0.39942306611962441
0.39942306611962441
0.39942306611962441
0.39942306611962441
0.39942306611962441
0.39942306611962441
0.39942306611962441
0.39942306611962441
0.39942306611962441
0.39942306611962441
0.39942306611962441
0.39942306611962441
0.39942306611962441
0.39942306611962441
0.39942306611962441
0.39942306611962441
0.39942306611962441
0.39942306611962441
0.39942306611962441
0.39942306611962441
0.39942306611962441
0.39942306611962441
0.39942306611962441
0.39942306611962441
0.39942306611962441
0.39942306611962441
0.39942306611962441
0.39942306611962441
0.39942306611962441
0.39942306611962441
0.39942306611962441
0.39942306611962441
0.39942306611962441
0.39942306611962441
0.39942306611962441
0.39942306611962441
0.39942306611962441
0.39942306611962441
0.39942306611962441
0.39942306611962441
0.39942306611962441
0.39942306611962441
0.39942306611962441
0.39942306611962441
0.39942306611962441
0.39942306611962441
0.39942306611962441
0.39942306611962441
0.39942306611962441
0.39942306611962441
0.39942306611962441
0.39942306611962441
0.39942306611962441
0.39942306611962441
0.39942306611962441
0.39942306611962441
0.39942306611962441
0.39942306611962441
0.39942306611962441
0.39942306611962441
0.39942306611962441
0.39942306611962441
0.39942306611962441
0.39942306611962441
0.39942306611962441
0.39942306611962441
0.39942306611962441
0.39942306611962441
0.39942306611962441
0.39942306611962441
0.39942306611962441
0.39942306611962441
0.39942306611962441
0.39942306611962441
0.39942306611962441
0.39942306611962441
0.39942306611962441
0.39942306611962441
0.39942306611962441
0.39942306611962441
0.39942306611962441
0.39942306611962441
0.39942306611962441
0.39942306611962441
0.39942306611962441
0.39942306611962441
0.39942306611962441
0.39942306611962441
0.39942306611962441
0.39942306611962441
0.39942306611962441
0.39942306611962441
0.39942306611962441
0.39942306611962441
0.39942306611962441
0.39942306611962441
0.39942306611962441
0.39942306611962441
0.39942306611962441
0.39942306611962441
0.39942306611962441
0.39942306611962441
0.39942306611962441
0.39942306611962441
0.39942306611962441
0.39942306611962441
0.39942306611962441
0.39942306611962441
0.39942306611962441
0.39942306611962441
0.39942306611962441
0.39942306611962441
0.39942306611962441
0.39942306611962441
0.39942306611962441
0.39942306611962441
0.39942306611962441
0.39942306611962441
0.39942306611962441
0.39942306611962441
0.39942306611962441
0.39942306611962441
0.39942306611962441
0.39942306611962441
0.39942306611962441
0.39942306611962441
0.39942306611962441
0.39942306611962441
0.39942306611962441
0.39942306611962441
0.39942306611962441
0.39942306611962441
0.39942306611962441
0.39942306611962441
0.39942306611962441
0.39942306611962441
0.39942306611962441
0.39942306611962441
0.39942306611962441
0.39942306611962441
0.39942306611962441
0.39942306611962441
0.39942306611962441
0.39942306611962441
0.39942306611962441
0.39942306611962441
0.39942306611962441
0.39942306611962441
0.39942306611962441
0.39942306611962441
0.39942306611962441
0.39942306611962441
0.39942306611962441
0.39942306611962441
0.39942306611962441
0.39942306611962441
0.39942306611962441
0.39942306611962441
0.39942306611962441
0.39942306611962441
0.39942306611962441
0.39942306611962441
0.39942306611962441
0.39942306611962441
0.39942306611962441
0.39942306611962441
0.39942306611962441
0.39942306611962441
0.39942306611962441
0.39942306611962441
0.39942306611962441
0.39942306611962441
0.39942306611962441
0.39942306611962441
0.39942306611962441
0.39942306611962441
0.39942306611962441
0.39942306611962441
0.39942306611962441
0.39942306611962441
0.39942306611962441
0.39942306611962441
0.39942306611962441
0.39942306611962441
0.39942306611962441
0.39942306611962441
0.39942306611962441
0.39942306611962441
0.39942306611962441
0.39942306611962441
0.39942306611962441
0.39942306611962441
0.39942306611962441
0.39942306611962441
0.39942306611962441
0.39942306611962441
0.39942306611962441
0.39942306611962441
0.39942306611962441
0.39942306611962441
0.39942306611962441
0.39942306611962441
0.39942306611962441
0.39942306611962441
0.39942306611962441
0.39942306611962441
0.39942306611962441
0.39942306611962441
0.39942306611962441
0.39942306611962441
0.39942306611962441
0.39942306611962441
0.39942306611962441
0.39942306611962441
0.39942306611962441
0.39942306611962441
0.39942306611962441
0.39942306611962441
0.39942306611962441
0.39942306611962441
0.39942306611962441
0.39942306611962441
0.39942306611962441
0.39942306611962441
0.39942306611962441
0.39942306611962441
0.39942306611962441
0.39942306611962441
0.39942306611962441
0.39942306611962441
0.39942306611962441
0.39942306611962441
0.39942306611962441
0.39942306611962441
0.39942306611962441
0.39942306611962441
0.39942306611962441
0.39942306611962441
0.39942306611962441
0.39942306611962441
0.39942306611962441
0.39942306611962441
0.39942306611962441
0.39942306611962441
0.39942306611962441
0.39942306611962441
0.39942306611962441
0.39942306611962441
0.39942306611962441
0.39942306611962441
0.39942306611962441
0.39942306611962441
0.39942306611962441
0.39942306611962441
0.39942306611962441
0.39942306611962441
0.39942306611962441
0.39942306611962441
0.39942306611962441
0.39942306611962441
0.39942306611962441
0.39942306611962441
0.39942306611962441
0.39942306611962441
0.39942306611962441
0.39942306611962441
0.39942306611962441
0.39942306611962441
0.39942306611962441
0.39942306611962441
0.39942306611962441
0.39942306611962441
0.39942306611962441
0.39942306611962441
0.39942306611962441
0.39942306611962441
0.39942306611962441
0.39942306611962441
0.39942306611962441
0.39942306611962441
0.39942306611962441
0.39942306611962441
0.39942306611962441
0.39942306611962441
0.39942306611962441
0.39942306611962441
0.39942306611962441
0.39942306611962441
0.39942306611962441
0.39942306611962441
0.39942306611962441
0.39942306611962441
0.39942306611962441
0.39942306611962441
0.39942306611962441
0.39942306611962441
0.39942306611962441
0.39942306611962441
0.39942306611962441
0.39942306611962441
0.39942306611962441
0.39942306611962441
0.39942306611962441
0.39942306611962441
0.39942306611962441
0.39942306611962441
0.39942306611962441
0.39942306611962441
0.39942306611962441
0.39942306611962441
0.39942306611962441
0.39942306611962441
0.39942306611962441
0.39942306611962441
0.39942306611962441
0.39942306611962441
0.39942306611962441
0.39942306611962441
0.39942306611962441
0.39942306611962441
0.39942306611962441
0.39942306611962441
0.39942306611962441
0.39942306611962441
0.39942306611962441
0.39942306611962441
0.39942306611962441
0.39942306611962441
0.39942306611962441
0.39942306611962441
0.39942306611962441
0.39942306611962441
0.39942306611962441
0.39942306611962441
0.39942306611962441
0.39942306611962441
0.39942306611962441
0.39942306611962441
0.39942306611962441
0.39942306611962441
0.39942306611962441
0.39942306611962441
0.39942306611962441
0.39942306611962441
0.39942306611962441
0.39942306611962441
0.39942306611962441
0.39942306611962441
0.39942306611962441
0.39942306611962441
0.39942306611962441
0.39942306611962441
0.39942306611962441
0.39942306611962441
0.39942306611962441
0.39942306611962441
0.39942306611962441
0.39942306611962441
0.39942306611962441
0.39942306611962441
0.39942306611962441
0.39942306611962441
0.39942306611962441
0.39942306611962441
0.39942306611962441
0.39942306611962441
0.39942306611962441
0.39942306611962441
0.39942306611962441
0.39942306611962441
0.39942306611962441
0.39942306611962441
0.39942306611962441
0.39942306611962441
0.39942306611962441
0.39942306611962441
0.39942306611962441
0.39942306611962441
0.39942306611962441
0.39942306611962441
0.39942306611962441
VECTORS v float
-3.2927390652706762e-05 -0.047329336838795935 0
-3.4938080934049206e-05 -0.04874278944089213 0
-3.6436303699080066e-05 -0.049873285070420083 0
-3.7870856416357693e-05 -0.051039967380207323 0
-3.9242457671786362e-05 -0.052250362031788178 0
-4.047691314365502e-05 -0.053515188904446308 0
-4.1747857076044947e-05 -0.054849973499296829 0
-4.2973342801757653e-05 -0.056272188493045598 0
-4.4147489745839202e-05 -0.057798032393702736 0
-4.5234468297378212e-05 -0.059443283011847384 0
-4.6243416310096162e-05 -0.061224717396625113 0
-4.7122631772025977e-05 -0.063160602525499057 0
-4.7993878375581471e-05 -0.065280908377565894 0
-4.875655089655192e-05 -0.067623968518421951 0
-4.9767863275553452e-05 -0.070227331176039284 0
-5.0838232629990626e-05 -0.073133968256799783 0
-5.1745060499609161e-05 -0.076395587545383392 0
-5.2940408495991297e-05 -0.080100583383814372 0
-5.3828407942613453e-05 -0.084348319626844775 0
-5.4925093308587182e-05 -0.089262926163293413 0
-5.602167220472296e-05 -0.095036244787452484 0
-5.7504825567600397e-05 -0.10189078287642378 0
-5.9045453763021794e-05 -0.11034448405574016 0
-6.1271263104656121e-05 -0.12188623607967305 0
-6.484192615895973e-05 -0.14324442292734962 0
-2.0937245517925478e-05 -0.047946441245233382 0
-2.2527468203748869e-05 -0.049444835851920242 0
-2.3692241957338703e-05 -0.050642820313760266 0
-2.4733507621464396e-05 -0.051846799930931289 0
-2.5614488961359682e-05 -0.053078095672350688 0
-2.6492075748189093e-05 -0.054355220160525769 0
-2.7173938642764668e-05 -0.055697631020930755 0
-2.7890628309954272e-05 -0.057124259538665199 0
-2.8604354057097035e-05 -0.058654206632596746 0
-2.9194000831238783e-05 -0.060304545670395102 0
-2.9743818217843986e-05 -0.062092895819257643 0
-3.0880489249466192e-05 -0.06403762901455555 0
-3.1559555651123936e-05 -0.066170501463740469 0
-3.2327287978475075e-05 -0.06852847436961905 0
-3.2922534040172816e-05 -0.071148898869600422 0
-3.3583521139828218e-05 -0.074073061284085764 0
-3.416331582468134e-05 -0.077348907365995159 0
-3.4792048039432229e-05 -0.081052400207390338 0
-3.5441420504966902e-05 -0.085276753653190401 0
-3.6312204321275408e-05 -0.09013485295868516 0
-3.7031123398400247e-05 -0.095773101969104643 0
-3.7369797956880491e-05 -0.10241967582310778 0
-3.8003542380310283e-05 -0.11062196123490924 0
-3.8842267864429183e-05 -0.1218132182804145 0
-3.9977642403629126e-05 -0.14239175405524598 0
-8.6708203263040081e-06 -0.048026140643039165 0
-9.2993491421519643e-06 -0.04952386845135108 0
-9.8082280042572184e-06 -0.050722323167157086 0
-1.024693109619826e-05 -0.051929661453691281 0
-1.0668624256083256e-05 -0.053166926306797216 0
-1.0915730062471558e-05 -0.054453376546119453 0
-1.147012133156297e-05 -0.055808737080293748 0
-1.1718005697344655e-05 -0.057252395961523241 0
-1.2446763550756168e-05 -0.058802976075368378 0
-1.2495400414684348e-05 -0.060477660788259439 0
-1.3144951766871158e-05 -0.062295080652557649 0
-1.3514291558755344e-05 -0.06427547874031643 0
-1.3655431057989898e-05 -0.066450661194340579 0
-1.3698125158527383e-05 -0.068858648385683188 0
-1.4395451973523117e-05 -0.071540191877304482 0
-1.4921311748078532e-05 -0.074538721923355936 0
-1.5494383044263511e-05 -0.077906168590848604 0
-1.5892930517026465e-05 -0.081705380647693657 0
-1.6476880922688727e-05 -0.086030304124441445 0
-1.697731924521947e-05 -0.090993813705982321 0
-1.7524967802984593e-05 -0.096729177855678833 0
-1.8621366335707544e-05 -0.10347811253267281 0
-1.9389136880716265e-05 -0.11179364565773134 0
-2.0101086548045175e-05 -0.12308139750057581 0
-2.0887808920725155e-05 -0.14376243198122107 0
-2.8871169328276993e-06 -0.04802695708915198 0
-3.0991184505607014e-06 -0.049529297209821015 0
-3.9194433934408911e-06 -0.050732387324112366 0
-4.0066009055161074e-06 -0.051945231430740174 0
-3.9902264649280828e-06 -0.053188816970836134 0
-4.4436194273559787e-06 -0.054482886947401561 0
-4.5500014366400412e-06 -0.055847264924989218 0
-4.0935611043336586e-06 -0.05730041045558084 0
-4.4701311056114852e-06 -0.058863043492018804 0
-4.7999121344969565e-06 -0.060550917308836459 0
-5.0556899326248003e-06 -0.062383665515574532 0
-4.9612477600318786e-06 -0.064381449524057055 0
-5.3173710473321273e-06 -0.066576740143588137 0
-5.7987257539487555e-06 -0.069009051623588336 0
-5.8842208774053075e-06 -0.071718422708863222 0
-6.0924166163611033e-06 -0.0747474718741266 0
-6.2473383272734029e-06 -0.07815332371790322 0
-6.5940551904068379e-06 -0.081992442834321569 0
-6.8476958793501114e-06 -0.086360550583352486 0
-6.9777781438299834e-06 -0.091367359529019365 0
-7.8743293000499962e-06 -0.097148727686351369 0
-8.0322569984238039e-06 -0.10394686320661689 0
-8.5259699221901955e-06 -0.11230764345083326 0
-8.8056240430113283e-06 -0.12362714071873179 0
-9.4710753562052943e-06 -0.14431979533674769 0
-7.2336288652456356e-07 -0.048014292664606474 0
-6.77458621357862e-07 -0.049519818067659933 0
-6.2120422211845453e-07 -0.050725662730198545 0
-6.1566464289075938e-07 -0.051941884927839209 0
-6.621380237831664e-07 -0.053188974742882575 0
-7.087684010605973e-07 -0.054486969363398564 0
-6.2520119935730229e-07 -0.055854765647491728 0
-5.9705482964169428e-07 -0.057312563035479908 0
-7.4025898529353907e-07 -0.058879248504314523 0
-8.4252652237302288e-07 -0.060572950505754244 0
-5.812496947756665e-07 -0.062411600216001908 0
-1.0781624316948568e-06 -0.064415828654951351 0
-8.7252891878042438e-07 -0.066619051867404383 0
-9.10993136348866e-07 -0.069059123568184416 0
-1.2672230017558406e-06 -0.07177679226541793 0
-1.1869885510934975e-06 -0.074816257528207891 0
-1.3304506604815829e-06 -0.078233131925838112 0
-1.4751147681631344e-06 -0.082083660848578127 0
-1.7445122608609171e-06 -0.086463941566548103 0
-1.9499760083682401e-06 -0.091482838299854222 0
-2.2037083415538925e-06 -0.097274751603416032 0
-2.47001805241493e-06 -0.10408322456086301 0
-2.7835236126566625e-06 -0.11244917320847345 0
-3.1662207398824972e-06 -0.12376197057463825 0
-3.5278175464212391e-06 -0.14442608067340887 0
9.7145506137730222e-07 -0.048000193907675265 0
1.0263001158646903e-06 -0.049506667821675586 0
9.3125175695590897e-07 -0.050713624334836352 0
9.8774805681086774e-07 -0.051930920079497275 0
1.0817983849136962e-06 -0.053178917452346257 0
1.2166801734129903e-06 -0.05447785258026399 0
1.3282087631065417e-06 -0.055846900343843146 0
1.52765999770655e-06 -0.057305796383783643 0
1.1587897358288028e-06 -0.058874234769641903 0
1.2089281687247863e-06 -0.060569596143128498 0
1.2658349331171815e-06 -0.062410279696144239 0
1.2252211090095892e-06 -0.064416654519381861 0
1.6118704938589274e-06 -0.066621830704170062 0
2.1263618571199133e-06 -0.069063905478180032 0
1.7002088449100517e-06 -0.071783039103628543 0
2.659148235142331e-06 -0.074826956371683143 0
2.2100713330014022e-06 -0.078245242667749987 0
2.4207784331703669e-06 -0.082097961382221141 0
2.1314944524080408e-06 -0.086480329386115412 0
2.4764842341587277e-06 -0.091500627253265923 0
2.2136072905678346e-06 -0.097292517343482821 0
2.0070315006399143e-06 -0.10409897536268362 0
2.0656622780030829e-06 -0.11245965730045109 0
1.762213697279212e-06 -0.12375886438429209 0
1.4395523131748705e-06 -0.14439349053609815 0
1.9647920281007348e-06 -0.047989858711954637 0
2.1734368276890923e-06 -0.049496447856169981 0
2.273630505031351e-06 -0.050703497195920891 0
2.4518120260882746e-06 -0.051920772018804025 0
2.3801134384943671e-06 -0.053168882389863337 0
2.3663660927485685e-06 -0.054468170184857466 0
2.6995060986568178e-06 -0.055837653937539387 0
2.9125990063084664e-06 -0.057296571870532671 0
3.0829914940921096e-06 -0.058864814706282277 0
3.3071383761793566e-06 -0.06056045889178379 0
3.4950379456209521e-06 -0.062400928292256491 0
3.3069555145798716e-06 -0.064407126407903623 0
2.7814716252567821e-06 -0.066612806917958331 0
2.9029589537370991e-06 -0.069054927520143611 0
3.6039985600677944e-06 -0.071775948001409975 0
3.6467188688261477e-06 -0.074818340575241962 0
3.8173172034768149e-06 -0.078237080554619504 0
3.8973509698891589e-06 -0.082089963518093445 0
4.0125735258187581e-06 -0.086471941450257828 0
4.1007010478068045e-06 -0.091491310035173079 0
4.2634595811569033e-06 -0.097281653550315345 0
4.4372227922702155e-06 -0.10408571540682494 0
4.3445158616810428e-06 -0.11244155843354088 0
4.4659276240388586e-06 -0.12373196998545703 0
4.5519627782883462e-06 -0.14434953794290137 0
3.0202621829331109e-06 -0.047986213878304478 0
3.2274639637956873e-06 -0.049492457097008495 0
3.7136512616757627e-06 -0.050699318858648909 0
3.9129872772237073e-06 -0.051916838689584952 0
4.230417816601105e-06 -0.053164792337363265 0
4.3568152504873273e-06 -0.054464133899797297 0
4.5840422568818744e-06 -0.05583352524096822 0
4.844053289277157e-06 -0.057292633795357109 0
5.1141544508508614e-06 -0.058861264781870086 0
5.4700300701472297e-06 -0.060556780348772175 0
5.7615292076919738e-06 -0.062397158016347064 0
4.5326431893832573e-06 -0.064403885844767542 0
4.5037966824949184e-06 -0.066609183257542906 0
4.7223509937268249e-06 -0.069051802865528492 0
4.842058530128427e-06 -0.071771643666898657 0
5.7001945097087196e-06 -0.074813481415013719 0
5.5192644366616106e-06 -0.078231692497252064 0
5.7007807928060674e-06 -0.082084511450663436 0
5.5548413267539363e-06 -0.086466263875325439 0
5.6590442852204826e-06 -0.091485133840640484 0
5.6123962171195892e-06 -0.097274841920817062 0
5.6229608950805023e-06 -0.10407790856935262 0
5.8830364455262787e-06 -0.11243232110213965 0
6.1313512323745982e-06 -0.12371982776563704 0
6.1863211990068702e-06 -0.14433068097820537 0
2.825342770167299e-06 -0.047989199110526848 0
3.0048797197372105e-06 -0.049495903182034888 0
3.3854923620697795e-06 -0.050702705718147605 0
3.5869839667559148e-06 -0.051919993958158286 0
3.8408938298941232e-06 -0.053168265541777136 0
3.8255888159537668e-06 -0.05446755875062663 0
4.0829293950611493e-06 -0.055836903774262571 0
4.101007451207143e-06 -0.057296224264466837 0
4.4231803603026103e-06 -0.058865143150864309 0
4.6727864925460628e-06 -0.060560403245834248 0
4.8487330820016146e-06 -0.062401393328546231 0
4.800938458028969e-06 -0.064407738575286214 0
5.088800500867842e-06 -0.06661327017771862 0
5.0195800722641878e-06 -0.069055879286819319 0
5.2727725109932496e-06 -0.071775786637552935 0
5.4176027703914166e-06 -0.074818063359780002 0
5.6752274211416516e-06 -0.078236485339234385 0
5.5930321222625708e-06 -0.082089471837009292 0
5.7890839923473417e-06 -0.086471200108347135 0
5.9055934366131656e-06 -0.091490567672183304 0
6.1194205036938773e-06 -0.097280892908034655 0
6.2013885278964082e-06 -0.10408501202978961 0
6.1714059150921058e-06 -0.11244095397575435 0
6.3108595538387627e-06 -0.12373132836490254 0
6.4464452238040842e-06 -0.14434857330186909 0
3.0592510569940275e-06 -0.047999273847490323 0
3.3235866602804341e-06 -0.049505897292730902 0
3.7558005396283884e-06 -0.050713146791853923 0
4.2181688122262532e-06 -0.051930268350081722 0
4.454058848063763e-06 -0.053179190074944413 0
4.7079070220561368e-06 -0.054478353581948802 0
4.4004804574919264e-06 -0.055847782396585555 0
4.9920586491339424e-06 -0.057305002513192232 0
5.2390204607410186e-06 -0.058872793250644956 0
5.8545572762415546e-06 -0.060568169208796527 0
5.75815903231168e-06 -0.062409119400201753 0
6.0183690169622295e-06 -0.064415632027519626 0
5.7329039625011551e-06 -0.066621372676388402 0
6.1614535801861956e-06 -0.069063650644503274 0
6.0972166942536275e-06 -0.071783928064298716 0
6.270856613489134e-06 -0.074826199948518426 0
6.5436237381958e-06 -0.078244907075233433 0
6.7434234934291332e-06 -0.082097834706167175 0
6.3844857603360167e-06 -0.086478777170685667 0
6.5584171294356989e-06 -0.091498894223017171 0
6.9729307431806459e-06 -0.0972908369271306 0
7.0796032670413776e-06 -0.10409731525050575 0
7.0932953024433942e-06 -0.11245811834805784 0
7.2212065768691309e-06 -0.12375765715568393 0
7.3387879012816122e-06 -0.14439316668356417 0
4.1213217009274792e-06 -0.048013520063889162 0
4.4744194940529079e-06 -0.049519443788890324 0
4.7981807390365628e-06 -0.05072497089683381 0
5.1713610243605246e-06 -0.051941155694978751 0
5.5749219468816397e-06 -0.053187928976337909 0
5.7912048073383912e-06 -0.054485940877710796 0
5.8751991770989664e-06 -0.055855454609696549 0
6.110694190392134e-06 -0.057311789869417137 0
6.3791298870782618e-06 -0.058878661675831528 0
6.7123971207843517e-06 -0.0605726191646783 0
6.8138897510472982e-06 -0.062411359023286879 0
7.274678532957157e-06 -0.064415770284578816 0
7.5491559263439954e-06 -0.066619807047227309 0
7.6964895363866427e-06 -0.069060389337742639 0
7.8303675913556254e-06 -0.071778074158342392 0
8.1990188995396911e-06 -0.074818058117607333 0
8.1462996044588599e-06 -0.078234180557078883 0
8.4345747519954146e-06 -0.082084725216248933 0
8.8937450785530163e-06 -0.086464924061902149 0
8.955245329664659e-06 -0.091483673696880902 0
9.333113985947695e-06 -0.097276376426524494 0
9.7364602524800721e-06 -0.10408497520041464 0
9.7201976889542502e-06 -0.11245073471398716 0
9.8692754839579093e-06 -0.12376334715530564 0
9.9237586670186761e-06 -0.14442701607260369 0
5.8801539865125801e-06 -0.048025530242908405 0
6.4457729901137987e-06 -0.049527972930319901 0
6.852256157944959e-06 -0.050731488882724385 0
7.2485011572204496e-06 -0.0519444721682632 0
7.4538807937438711e-06 -0.053188395560554186 0
7.7935392045743514e-06 -0.05448270431145856 0
7.9613078777396063e-06 -0.055846888515577162 0
8.3051465743511427e-06 -0.057300321687877784 0
8.2101581545362551e-06 -0.058862758702571447 0
8.5590024967455494e-06 -0.060551279578663235 0
8.920171208896821e-06 -0.06238452173517596 0
9.3313932579181741e-06 -0.064383242355499762 0
1.1784458613199833e-05 -0.066578569614724109 0
1.192186411398428e-05 -0.069011437505983 0
1.2000893280259461e-05 -0.071720937134735194 0
1.2297132307579553e-05 -0.074751027636237283 0
1.2708424899026112e-05 -0.078156286269160755 0
1.3029196974931732e-05 -0.081995692880620377 0
1.3316423978029494e-05 -0.086363937711560701 0
1.359923666154693e-05 -0.091370905945608705 0
1.3951473025415269e-05 -0.097151258014367137 0
1.3771548269849123e-05 -0.10394859568891804 0
1.4214444487384494e-05 -0.11230888810295862 0
1.4455240101152161e-05 -0.12362774304193289 0
1.5064091647554729e-05 -0.14431976558111548 0
9.2035504528733237e-06 -0.04802478939218699 0
9.9530307509870985e-06 -0.049522737207240368 0
1.0473661905969812e-05 -0.050721305970530553 0
1.1138207602165055e-05 -0.051929004728764563 0
1.1711189796089405e-05 -0.053166501034894113 0
1.2281712220289503e-05 -0.054453160414911744 0
1.2806766540436823e-05 -0.055808877493257837 0
1.3519980166132783e-05 -0.057252087204469573 0
1.3846602308124238e-05 -0.058802456904258768 0
1.4760824504524877e-05 -0.060477561614643426 0
1.538338641849857e-05 -0.062295625021519363 0
1.5934592605804404e-05 -0.064276586000499389 0
1.6370271756093873e-05 -0.066452489177358423 0
1.6340282210649109e-05 -0.068861371129233365 0
1.6692606382802388e-05 -0.071541622675700342 0
1.7302583317457896e-05 -0.074541237756959311 0
1.7944825103690815e-05 -0.077908438035971833 0
1.8832107186644826e-05 -0.081707257563413294 0
1.9514026407871044e-05 -0.086033011702516149 0
2.041828105949831e-05 -0.090995792102515655 0
2.1333346985943281e-05 -0.096731050181049549 0
2.2281498846833445e-05 -0.1034794647917069 0
2.3432335617877048e-05 -0.11179450120333879 0
2.4257385765998991e-05 -0.12308162983184198 0
2.5520370330117625e-05 -0.14376239468918622 0
2.0487144437715656e-05 -0.047946203070391505 0
2.2030634376766549e-05 -0.049445647653225996 0
2.3101886827678825e-05 -0.05064336303494002 0
2.4112134883394891e-05 -0.051847258302586352 0
2.5097674970060957e-05 -0.053078432224244243 0
2.5885704711370605e-05 -0.054356544647059461 0
2.6723415379147472e-05 -0.055698211765600192 0
2.7383129743363631e-05 -0.057124628686697598 0
2.8151993120055816e-05 -0.058654310510776256 0
2.8933433297522301e-05 -0.060304326362942758 0
2.9492405463683436e-05 -0.062092920639601638 0
2.983303400716187e-05 -0.064038626998465839 0
3.0722240442773596e-05 -0.066171590823475193 0
3.1532992456744739e-05 -0.068529109443596845 0
3.2304227557955234e-05 -0.071149199043072903 0
3.3163756214530991e-05 -0.074073133314133344 0
3.4005967079532832e-05 -0.077349259990730238 0
3.4687078603196246e-05 -0.081053809762018814 0
3.5641616400289351e-05 -0.085277909430978904 0
3.6576825146017232e-05 -0.090136003050252989 0
3.7575040360486734e-05 -0.095774064065873965 0
3.8591006408944017e-05 -0.10242014623581204 0
3.9882392719741643e-05 -0.11062173512117679 0
4.0858684981620782e-05 -0.12181305674187418 0
4.2277079428552347e-05 -0.14239045809058942 0
3.3264359124795377e-05 -0.04732986593948689 0
3.5739588404982024e-05 -0.048744074162508574 0
3.6804365491838768e-05 -0.049873908255093649 0
3.8297330002008043e-05 -0.051040606240916761 0
3.9577350040149749e-05 -0.052250818691649492 0
4.1016914757893025e-05 -0.053515689402168082 0
4.1788249008188499e-05 -0.054850060181859797 0
4.3514342858591741e-05 -0.056272426593682895 0
4.4063628481713613e-05 -0.057797865684871622 0
4.5220065310086207e-05 -0.059443101128648146 0
4.6213812822507617e-05 -0.061224475653462888 0
4.7407024776187052e-05 -0.063160258953031526 0
4.7944105952742918e-05 -0.065280598440933271 0
4.887181491083525e-05 -0.067623470395407601 0
4.977768871790952e-05 -0.070226819823319811 0
5.0748525248655479e-05 -0.073133397634677938 0
5.1674388506319956e-05 -0.076394965943389986 0
5.2641033924286204e-05 -0.080100031591354634 0
5.356998908962003e-05 -0.084347753356256078 0
5.4760559063204785e-05 -0.089262323653865133 0
5.6057021434981193e-05 -0.095035407188160156 0
5.7486812290199945e-05 -0.10189005583862669 0
5.9069619592428538e-05 -0.11034371071697967 0
6.1028727321710501e-05 -0.12188613666040223 0
6.409046739002522e-05 -0.14324603165031091 0
-0 -0 0
-0 -0 0
-0 -0 0
-0 -0 0
-0 -0 0
-0 -0 0
3.4125408459344516e-05 0.048087502567606591 0
3.9022407923619986e-05 0.052985183846599344 0
4.5743006204212571e-05 0.064077741471966182 0
-0 -0 0
-0 -0 0
-0 -0 0
3.5608422385687938e-05 0.050066587052090543 0
3.8981081262904824e-05 0.054506266248268202 0
4.473585409192976e-05 0.065207480903935661 0
-0 -0 0
-0 -0 0
-0 -0 0
2.8826839604302751e-05 0.050434909754080041 0
3.2139948252944331e-05 0.054846946229329709 0
3.7192981587061008e-05 0.065498656819232531 0
-0 -0 0
-0 -0 0
-0 -0 0
1.6462457037331774e-05 0.050735872043492447 0
1.873765788896364e-05 0.055107027521607385 0
2.2088510836884094e-05 0.065777263465545119 0
-0 -0 0
-0 -0 0
-0 -0 0
6.8273940111483159e-06 0.050775753437957483 0
8.0617243149768841e-06 0.055175059125144366 0
9.8225919110896684e-06 0.065908187742569874 0
-0 -0 0
-0 -0 0
-0 -0 0
2.5191629031003393e-06 0.050771708505231411 0
3.0146212811053683e-06 0.055181759972531129 0
3.7368065188772954e-06 0.065945948596335416 0
-0 -0 0
-0 -0 0
-0 -0 0
2.2141620582470728e-07 0.050758591600514873 0
2.5929758446095101e-07 0.055172480230013685 0
2.4790000882372532e-07 0.065945015622782252 0
-0 -0 0
-0 -0 0
-0 -0 0
-1.6717782455419194e-06 0.050745292175664598 0
-1.8685314208697794e-06 0.055159575933333808 0
-2.3234048692714472e-06 0.065931846739697306 0
-0 -0 0
-0 -0 0
-0 -0 0
-2.9175873064659017e-06 0.050737033408750437 0
-3.3241743613270682e-06 0.055151018725244222 0
-3.9513962158635072e-06 0.06592178034688144 0
-0 -0 0
-0 -0 0
-0 -0 0
-3.4672255245323999e-06 0.050736702144031455 0
-4.0218105523065746e-06 0.055150863640404266 0
-4.7326664964481067e-06 0.065921756697718201 0
-0 -0 0
-0 -0 0
-0 -0 0
-3.8407659146814401e-06 0.050744059711503905 0
-4.4849365888049678e-06 0.055158812193013128 0
-5.3574155464375823e-06 0.065931541793242288 0
-0 -0 0
-0 -0 0
-0 -0 0
-4.3173113885953756e-06 0.050757199825333381 0
-5.1378861553825195e-06 0.055171565382914081 0
-6.3740069012891362e-06 0.065944833195290598 0
-0 -0 0
-0 -0 0
-0 -0 0
-5.66683467282438e-06 0.050770851698552055 0
-6.7270909517036483e-06 0.055181384309427157 0
-8.5922898835306066e-06 0.065946441477114731 0
-0 -0 0
-0 -0 0
-0 -0 0
-8.8068531972958066e-06 0.050774880672346673 0
-1.0483510483473641e-05 0.055174827522957499 0
-1.3203783861018666e-05 0.065908907171533068 0
-0 -0 0
-0 -0 0
-0 -0 0
-1.6715379050555722e-05 0.050735594528010061 0
-1.9261231960565465e-05 0.055107059996611869 0
-2.3063570878728014e-05 0.065777742266747791 0
-0 -0 0
-0 -0 0
-0 -0 0
-2.8845123397731417e-05 0.050435426118470177 0
-3.2101536658973692e-05 0.054847329091916329 0
-3.7089146213360602e-05 0.065498776169497716 0
-0 -0 0
-0 -0 0
-0 -0 0
-3.6160917511337888e-05 0.050067049913361444 0
-3.9263004346167096e-05 0.05450641588245303 0
-4.4743086447313231e-05 0.065207283166064611 0
-0 -0 0
-0 -0 0
-0 -0 0
-3.4777039418751977e-05 0.048087835079126284 0
-3.9438122249069853e-05 0.052985052761175405 0
-4.5781542838046961e-05 0.064077200000359241 0
-0 -0 0
-0 -0 0
-0 -0 0
-0 -0 0
-0 -0 0
-0 -0 0
-0 -0 0
-0 -0 0
-0 -0 0
-0 -0 0
-0 -0 0
-0 -0 0
-0 -0 0
-0 -0 0
-0 -0 0
-0 -0 0
-0 -0 0
-0 -0 0
-0 -0 0
-0 -0 0
-0 -0 0
-0 -0 0
-0 -0 0
-0 -0 0
-0 -0 0
-0 -0 0
-0 -0 0
-0 -0 0
-0 -0 0
-0 -0 0
-0 -0 0
-0 -0 0
-0 -0 0
-0 -0 0
-0 -0 0
-0 -0 0
-0 -0 0
-0 -0 0
-0 -0 0
-0 -0 0
-0 -0 0
-0 -0 0
-0 -0 0
-0 -0 0
-0 -0 0
-0 -0 0
-0 -0 0
-0 -0 0
-0 -0 0
-0 -0 0
-0 -0 0
-0 -0 0
-0 -0 0
-0 -0 0
-0 -0 0
-0 -0 0
-0 -0 0
-0 -0 0
-0 -0 0
-0 -0 0
-0 -0 0
-0 -0 0
-0 -0 0
-0 -0 0
-0 -0 0
-0 -0 0
-0 -0 0
-0 -0 0
-0 -0 0
-0 -0 0
-0 -0 0
-0 -0 0
-0 -0 0
-0 -0 0
-0 -0 0
-0 -0 0
-0 -0 0
-0 -0 0
-0 -0 0
-0 -0 0
-0 -0 0
-0 -0 0
-0 -0 0
-0 -0 0
-0 -0 0
-0 -0 0
-0 -0 0
-0 -0 0
-0 -0 0
-0 -0 0
-0 -0 0
-0 -0 0
-0 -0 0
-0 -0 0
-0 -0 0
-0 -0 0
-0 -0 0
-0 -0 0
-0 -0 0
-0 -0 0
-0 -0 0
-0 -0 0
-0 -0 0
-0 -0 0
-0 -0 0
-0 -0 0
-0 -0 0
-0 -0 0
-0 -0 0
-0 -0 0
-0 -0 0
-0 -0 0
-0 -0 0
-0 -0 0
-0 -0 0
-0 -0 0
-0 -0 0
-0 -0 0
-0 -0 0
-0 -0 0
-0 -0 0
-0 -0 0
-0 -0 0
-0 -0 0
-0 -0 0
-0 -0 0
-0 -0 0
-0 -0 0
-0 -0 0
-0 -0 0
-0 -0 0
-0 -0 0
-0 -0 0
-0 -0 0
-0 -0 0
-0 -0 0
-0 -0 0
-0 -0 0
-0 -0 0
-0 -0 0
-0 -0 0
-0 -0 0
-0 -0 0
-0 -0 0
-0 -0 0
-0 -0 0
-0 -0 0
-0 -0 0
-0 -0 0
-0 -0 0
-0 -0 0
-0 -0 0
-0 -0 0
-0 -0 0
-0 -0 0
-0 -0 0
-0 -0 0
-0 -0 0
-0 -0 0
-0 -0 0
-0 -0 0
-0 -0 0
-0 -0 0
-0 -0 0
-0 -0 0
-0 -0 0
-0 -0 0
-0 -0 0
-0 -0 0
-0 -0 0
-0 -0 0
-0 -0 0
-0 -0 0
-0 -0 0
-0 -0 0
-0 -0 0
-0 -0 0
-0 -0 0
-0 -0 0
-0 -0 0
-0 -0 0
-0 -0 0
-0 -0 0
-0 -0 0
-0 -0 0
-0 -0 0
-0 -0 0
-0 -0 0
-0 -0 0
-0 -0 0
-0 -0 0
-0 -0 0
-0 -0 0
-0 -0 0
-0 -0 0
