# vtk DataFile Version 3.0
SPH particles (WCSPH) - legacy PolyData
ASCII
DATASET POLYDATA
POINTS 681 float
0.049992554803015392 0.026810906902662687 0
0.049991355659029645 0.029460662321283925 0
0.049990402883551242 0.031566347896076298 0
0.049989499316596658 0.033676908534779601 0
0.049988696309003273 0.03577407228334769 0
0.049987982842409476 0.037855888027542979 0
0.049987366836779366 0.03993073198513114 0
0.049986659931745815 0.042011405187610588 0
0.049985762951418468 0.04411317366746368 0
0.049984478754815279 0.046253861785269364 0
0.049982409606652553 0.04845392600761602 0
0.049979841071446478 0.050737041247920979 0
0.049978741805782927 0.053131310917767953 0
0.049979949199476265 0.05567121411339214 0
0.049982363000305646 0.058400286262398265 0
0.049985340847648052 0.061375785515094927 0
0.049988388445238723 0.064680821138961023 0
0.049991375372190935 0.068471442421711673 0
0.04999413318849813 0.073016496790005145 0
0.049996572508514761 0.079067248776223162 0
0.049998604218067198 0.089698306469188888 0
0.049999735467213091 0.10880207154306577 0
0.049999976821324142 0.13258963697955489 0
0.049999998652659472 0.15940148938965781 0
0.050000000000000003 0.21394728172353975 0
0.069996166568805585 0.025352993351973399 0
0.069995478280670168 0.028313601690163056 0
0.069994897288142469 0.030703256306200757 0
0.069994366976967148 0.033041356904661867 0
0.069993887315118158 0.035325369746941074 0
0.069993411008712897 0.037565579879077 0
0.069992930622601826 0.039779342687128225 0
0.06999243237573631 0.041986120541824795 0
0.069991848034668486 0.044205656616429466 0
0.069990959307266898 0.046459152912583616 0
0.069989313936384662 0.048769774258669935 0
0.06998671008148484 0.051163475319753494 0
0.069985113563468357 0.053670546293367656 0
0.069985412099558622 0.056327962337556575 0
0.069987006109509906 0.059182632770948304 0
0.069989230814817158 0.062294223511784173 0
0.0699915500938708 0.065746193778230252 0
0.069993863907845233 0.069691898833604368 0
0.069995869189356019 0.074399100111872091 0
0.069997547686945577 0.080531326684570026 0
0.069998919927650088 0.09064428387268321 0
0.069999770968549424 0.10912403526676649 0
0.069999977811593422 0.1328927382089021 0
0.06999999859857689 0.15972068533665751 0
0.070000000000000007 0.21303093827074754 0
0.089998550958728649 0.025303818849880103 0
0.089998248780438758 0.028272228218943013 0
0.089998042414567977 0.030669816420634925 0
0.089997778580245741 0.033019650226453534 0
0.089997514094248721 0.035318168665119595 0
0.089997300939474043 0.037575013401403956 0
0.089996875231284856 0.039807505136895821 0
0.089996678678146744 0.042034974613417431 0
0.089996394276137884 0.044277380833831939 0
0.089996080798327049 0.046556154068767022 0
0.089995728314814769 0.048894715705840273 0
0.089995025214907542 0.051319391150545644 0
0.089994188098705061 0.053860748374348698 0
0.089993865689552754 0.056556140257202285 0
0.089994419398262096 0.059453208559064157 0
0.089995343291496444 0.062614511965955466 0
0.08999638586109672 0.066125276282212028 0
0.089997371194007525 0.070123527904677796 0
0.089998249340667968 0.074876898064787936 0
0.089998976814090831 0.081029036534423282 0
0.089999563768715415 0.091025414126039636 0
0.089999900226347254 0.10933017030333042 0
0.089999986987627484 0.1331122256580117 0
0.089999999019304777 0.1599538305000566 0
0.090000000000000011 0.21251187934589355 0
0.10999955844144982 0.025327287075119789 0
0.10999939474282834 0.028298054598869294 0
0.10999928445207106 0.030698023998548526 0
0.10999915464955742 0.033050756927637231 0
0.10999902419001956 0.035352699963800194 0
0.10999902848263582 0.037613488529455737 0
0.10999907728821089 0.039850508445974042 0
0.10999898110071529 0.042083074330907355 0
0.10999892601853607 0.044331155803364074 0
0.10999884040934306 0.046616381669626263 0
0.10999865810251176 0.048962304991439345 0
0.10999891216832874 0.051395391378061289 0
0.10999834248705909 0.053946284753145494 0
0.10999788147809207 0.056652553989140139 0
0.10999794184430721 0.059561913311602779 0
0.10999823111915687 0.062737128109428303 0
0.10999855581684095 0.066265371209548174 0
0.10999898339756306 0.070279866454513118 0
0.10999931056747171 0.07504856930876723 0
0.10999959967740285 0.081209647556361161 0
0.10999983460767448 0.091184936509515174 0
0.1099999601116254 0.10945037435239159 0
0.10999999404970036 0.13324572584811695 0
0.10999999946281279 0.16010269503778057 0
0.11000000000000001 0.21219342958463802 0
0.1299999444181538 0.025341564296203416 0
0.12999993214688599 0.028314302867209422 0
0.12999992197220306 0.030715815879139741 0
0.12999991870253652 0.033070100699772488 0
0.12999998052491135 0.035373599327873172 0
0.13000004454213474 0.037636033929160227 0
0.13000010512784849 0.039874853789082051 0
0.13000014917754329 0.042109266456977067 0
0.13000022203823799 0.044359409989572933 0
0.13000035390416811 0.046646895970997124 0
0.13000043074410461 0.048995335454525425 0
0.13000029256102816 0.05143124524834268 0
0.12999999778607804 0.053985502416356877 0
0.12999972106375696 0.056695378900675567 0
0.12999953140034859 0.059608882173923468 0
0.12999945234131088 0.0627886512006645 0
0.12999954661205973 0.066321823664140245 0
0.12999967150641309 0.070341506691940267 0
0.12999977857313136 0.075115575021236725 0
0.12999987004395586 0.081281135245598921 0
0.1299999458115107 0.091255573511383886 0
0.12999998605309049 0.10951810958917163 0
0.12999999761389724 0.13332421035594949 0
0.12999999974958937 0.16019126040818379 0
0.13 0.212013889905806 0
0.15000018098147544 0.025348137797162329 0
0.15000021369088704 0.028321865496773818 0
0.1500002572771498 0.030724176275542373 0
0.15000031052574062 0.033079231239669202 0
0.15000047892836924 0.035383492933503173 0
0.150000524977672 0.037646647482284801 0
0.15000052702827782 0.039886194818948964 0
0.15000055437538526 0.042121425627046093 0
0.15000060454721667 0.044372414881563751 0
0.15000066600484527 0.046660814706467123 0
0.15000074864672178 0.049010288545032553 0
0.15000062360714014 0.051447294514178121 0
0.15000057931206004 0.054002861675231946 0
0.15000036901231426 0.056714247096232372 0
0.15000017496909634 0.05962932170215255 0
0.15000002977550231 0.062810830253394637 0
0.14999997926947389 0.066345882614969889 0
0.14999998466341258 0.070367567561956418 0
0.14999999829367805 0.075143888864238992 0
0.14999999839756023 0.081311783268129101 0
0.14999999068681119 0.091288193677478743 0
0.14999999554561014 0.1095546043106642 0
0.14999999918835713 0.13336760973937198 0
0.14999999990081014 0.16023999692008162 0
0.15000000000000002 0.21192151317021407 0
0.1700002876968601 0.02535093902413784 0
0.17000035627157908 0.028325094024258042 0
0.17000039079926263 0.030727730955147897 0
0.17000050786644297 0.033083067071587771 0
0.17000058599840756 0.035387575415280946 0
0.17000071796624724 0.037651065034160998 0
0.17000090720442523 0.039890988511945287 0
0.17000096288060088 0.042126540484845335 0
0.17000099707195412 0.044377867870737248 0
0.1700010314004203 0.046666628405574929 0
0.17000102865563368 0.04901652900316722 0
0.17000092095332894 0.051454037195062176 0
0.17000091102725756 0.05401010113046515 0
0.17000089105426361 0.056721943302574782 0
0.17000044157712701 0.059637679659255302 0
0.17000029743158152 0.062819921362038206 0
0.17000019084744172 0.066355758976478149 0
0.17000013327609034 0.070378278671858099 0
0.17000009444724445 0.075155535110361008 0
0.17000005369855392 0.08132455580474808 0
0.17000001348783683 0.091302659751193185 0
0.17000000065899173 0.10957228440779632 0
0.16999999993630002 0.13338882791405482 0
0.1699999999757624 0.16026359921547345 0
0.17000000000000004 0.21187980319105268 0
0.19000019660128836 0.02535171202761961 0
0.19000022758694238 0.028325951132878096 0
0.19000035585114167 0.030728730270693505 0
0.19000039849317557 0.033084126401147176 0
0.19000048920832918 0.03538869625357547 0
0.19000068728496541 0.037652326454562374 0
0.19000087431222965 0.0398922563511558 0
0.19000084517513158 0.04212782615295399 0
0.19000089485887087 0.044379233028995962 0
0.19000091909205608 0.046668137886455359 0
0.19000077569047438 0.04901813876816534 0
0.19000083763912895 0.051455846922341904 0
0.19000056497996973 0.05401204998542801 0
0.19000047642854614 0.056724126857277693 0
0.1900004196407673 0.05964000838578426 0
0.19000023343025926 0.062822416116093488 0
0.19000019396396189 0.066358478331672674 0
0.19000017757565651 0.070381229704686757 0
0.19000011362465788 0.075158760451304554 0
0.19000012611037553 0.081328113889343981 0
0.19000006271686534 0.091306788880552103 0
0.19000000623671945 0.10957752144567368 0
0.19000000035233613 0.13339512236260906 0
0.1900000000159616 0.16027055316469102 0
0.19 0.21186809267938872 0
0.21000026015299136 0.02535094724591273 0
0.21000033200096974 0.028325080524643963 0
0.21000038101397853 0.030727706009652488 0
0.210000435263893 0.033083068670479367 0
0.2100005311967186 0.035387598426279539 0
0.21000055048230548 0.037651106934673335 0
0.21000063887637996 0.039891009398560467 0
0.21000066083687041 0.042126567607312503 0
0.2100007103461804 0.044377917391523421 0
0.21000073615020973 0.04666673242916778 0
0.21000070277726943 0.049016645346037925 0
0.21000065588406902 0.051454162054787062 0
0.21000049397299217 0.054010181937279772 0
0.21000033982670643 0.056722065481322588 0
0.21000031712995443 0.059637805390287749 0
0.21000022043552002 0.062820010070233967 0
0.21000017274496841 0.066355852431428858 0
0.21000021427612575 0.070378366754771202 0
0.21000007119933092 0.075155615583810662 0
0.21000003876053885 0.081324649622635969 0
0.21000001400842211 0.091302704364406018 0
0.21000000500459501 0.10957229158983958 0
0.2100000005691639 0.13338882817395339 0
0.21000000005179903 0.16026359921531191 0
0.21000000000000002 0.21187980319105268 0
0.23000032417704008 0.025348178828761416 0
0.23000038679647145 0.028321925783700363 0
0.23000045576956935 0.030724252868005609 0
0.23000052568668242 0.033079256345909365 0
0.23000063550255354 0.035383536642563461 0
0.23000071801584626 0.037646713942350085 0
0.23000080316882376 0.039886296655206842 0
0.23000083408970889 0.042121518209292753 0
0.23000092895516225 0.044372512878659391 0
0.23000098798021823 0.046660927353681506 0
0.23000100010228133 0.049010430729889629 0
0.23000084595270948 0.051447525885247987 0
0.23000068902064685 0.054003090383532966 0
0.23000059262980491 0.056714391060059849 0
0.23000057133202362 0.059629446455329665 0
0.23000048817856716 0.062810974011603612 0
0.23000037551104452 0.06634605184853265 0
0.23000026465561171 0.070367737651378465 0
0.2300002055485792 0.075144009702345207 0
0.23000012172513773 0.081311903023809223 0
0.23000004622003867 0.091288263544365478 0
0.23000000917906716 0.10955461398771954 0
0.2300000012267264 0.13336761005267067 0
0.23000000012356486 0.16023999691278001 0
0.23000000000000004 0.21192151317021413 0
0.25000044576325936 0.025341569733127674 0
0.25000054391534671 0.02831431763137238 0
0.2500006138478596 0.030715886182011275 0
0.25000073205444201 0.033070214930236777 0
0.25000082939702356 0.035373713837223715 0
0.25000092860836681 0.037636159401677881 0
0.25000096133123439 0.039875003467768122 0
0.25000110326749159 0.042109438728274044 0
0.25000118381854347 0.044359586851446649 0
0.25000129037120666 0.046647066949743229 0
0.2500013394426156 0.048995533977067629 0
0.25000125673204959 0.051431465704797195 0
0.25000110134860498 0.053985783147329526 0
0.25000124486075193 0.056695591763965346 0
0.25000111237953077 0.059609096989709946 0
0.25000100525370733 0.062788897995877335 0
0.2500008076234348 0.066322083601568133 0
0.25000057614065635 0.070341721045761432 0
0.25000039131165913 0.075115739956040234 0
0.25000022759473028 0.081281277063523602 0
0.25000009365292852 0.091255651215093048 0
0.25000002066545812 0.10951811664478936 0
0.25000000291778274 0.1333242103040371 0
0.25000000027830627 0.16019126037579334 0
0.25000000000000006 0.212013889905806 0
0.27000068720218634 0.025327306932655249 0
0.27000084470403368 0.028298095629227561 0
0.27000096376641797 0.03069807935928718 0
0.27000110099937741 0.033050836642020791 0
0.27000137045067241 0.035352837101748913 0
0.27000151680224155 0.037613660270078314 0
0.27000166278580784 0.039850774806768074 0
0.27000183460736094 0.042083322541201514 0
0.27000202793204825 0.044331411146575336 0
0.2700022107777692 0.046616622459652264 0
0.27000239620531291 0.048962539532162425 0
0.27000245910339338 0.051395587164936619 0
0.27000283316919527 0.053946552805589978 0
0.27000275901928711 0.056652772314150557 0
0.27000255673353563 0.059562151140533898 0
0.27000217040356628 0.062737394203297603 0
0.27000169544462277 0.066265698736472714 0
0.27000122600464627 0.070280167316471784 0
0.27000082402682068 0.075048803262456859 0
0.27000048673258975 0.081209815300198537 0
0.27000020764476229 0.091185005246381123 0
0.27000004812253009 0.10945037195660919 0
0.27000000664371737 0.13324572477879273 0
0.27000000056967477 0.16010269495121598 0
0.27000000000000002 0.21219342958463797 0
0.29000161114829892 0.02530387137547907 0
0.29000193996417351 0.028272257946338648 0
0.2900021972177505 0.030669873599700838 0
0.29000245908327105 0.03301972792830811 0
0.29000272699607055 0.035318226402723578 0
0.29000303836286562 0.037575107039945072 0
0.29000334357427665 0.039807745000228344 0
0.29000369452257307 0.042035274380506908 0
0.2900040962559674 0.044277685239467963 0
0.29000455041096057 0.046556459309772272 0
0.29000507282569116 0.04889503772722803 0
0.29000565834262054 0.051319681183180026 0
0.29000625672730806 0.053861034075587712 0
0.29000637925434974 0.056556367057185433 0
0.29000584113584044 0.059453435992146975 0
0.29000495769570367 0.062614741148687744 0
0.29000389308818125 0.066125555651695353 0
0.29000286153124105 0.070123791794544851 0
0.29000192709601735 0.074877107939547119 0
0.290001134755486 0.081029163828271911 0
0.29000049104665965 0.091025430515578099 0
0.29000011105525986 0.10933014587393748 0
0.29000001371590417 0.13311222275391249 0
0.29000000100706735 0.15995383033305646 0
0.29000000000000004 0.2125118793458935 0
0.31000404149982697 0.025353098270210109 0
0.31000475692561175 0.028313735643506394 0
0.31000528823363904 0.030703367072592039 0
0.31000579748513579 0.033041559954459475 0
0.31000629377588795 0.035325570621785492 0
0.31000680827788452 0.037565735867603936 0
0.31000732963678723 0.039779593946126519 0
0.31000784190634151 0.041986362109761755 0
0.31000848437463191 0.044205855919621902 0
0.31000935813567826 0.046459320058328493 0
0.31001108703762903 0.048769922639208346 0
0.31001370061358108 0.051163639314347288 0
0.31001514591815293 0.053670762416477988 0
0.31001466112147325 0.056328164675605571 0
0.31001312899832584 0.059182812177082551 0
0.31001101814195492 0.062294393955100752 0
0.31000867328134618 0.065746368761660082 0
0.31000636492721456 0.06969205899883843 0
0.31000431147587415 0.074399204395511828 0
0.31000255617149264 0.080531353734228206 0
0.310001124731761 0.090644175853985307 0
0.31000023583940456 0.10912397375515845 0
0.31000002229139445 0.13289273329544851 0
0.31000000140219952 0.15972068510328954 0
0.31000000000000005 0.21303093827074754 0
0.33000722188047704 0.026811202741886996 0
0.33000836897180635 0.029460946267214013 0
0.33000926725656449 0.031566619446435767 0
0.3300101091441392 0.033677153239130973 0
0.33001084611405163 0.035774281268191141 0
0.33001151164930742 0.037856050546952763 0
0.3300121441935347 0.039930855448972 0
0.33001282173344626 0.042011487524523931 0
0.33001357823810074 0.044113206386572887 0
0.33001466991684775 0.046253850620996753 0
0.33001661877141508 0.048453874819393665 0
0.33001917380198187 0.050736973658766213 0
0.33002018514321374 0.053131228976431383 0
0.33001894276650962 0.055671079448014082 0
0.33001666103117461 0.058400114689876867 0
0.33001384606418943 0.061375572393969527 0
0.33001083281114435 0.064680569963163834 0
0.33000790375746547 0.068471118831375646 0
0.33000527385646478 0.073016102485003745 0
0.33000302461080838 0.079066806690456848 0
0.3300012457606572 0.089697950538871918 0
0.33000024944014716 0.10880198520361906 0
0.33000002251702842 0.13258963186579015 0
0.33000000132656127 0.15940148917535679 0
0.33000000000000002 0.21394728172353963 0
0 0 0
0 0.020000000000000004 0
0 0.040000000000000001 0
0 0.54999999999999993 0
0 0.56000000000000005 0
0 0.58000000000000007 0
0.02 0 0
0.02 0.020000000000000004 0
0.02 0.040000000000000001 0
0.02 0.54999999999999993 0
0.02 0.56000000000000005 0
0.02 0.58000000000000007 0
0.040000000000000001 0 0
0.040000000000000001 0.020000000000000004 0
0.040000000000000001 0.040000000000000001 0
0.040000000000000001 0.54999999999999993 0
0.040000000000000001 0.56000000000000005 0
0.040000000000000001 0.58000000000000007 0
0.059999999999999998 0 0
0.059999999999999998 0.020000000000000004 0
0.059999999999999998 0.040000000000000001 0
0.059999999999999998 0.54999999999999993 0
0.059999999999999998 0.56000000000000005 0
0.059999999999999998 0.58000000000000007 0
0.080000000000000002 0 0
0.080000000000000002 0.020000000000000004 0
0.080000000000000002 0.040000000000000001 0
0.080000000000000002 0.54999999999999993 0
0.080000000000000002 0.56000000000000005 0
0.080000000000000002 0.58000000000000007 0
0.10000000000000001 0 0
0.10000000000000001 0.020000000000000004 0
0.10000000000000001 0.040000000000000001 0
0.10000000000000001 0.54999999999999993 0
0.10000000000000001 0.56000000000000005 0
0.10000000000000001 0.58000000000000007 0
0.12 0 0
0.12 0.020000000000000004 0
0.12 0.040000000000000001 0
0.12 0.54999999999999993 0
0.12 0.56000000000000005 0
0.12 0.58000000000000007 0
0.14000000000000001 0 0
0.14000000000000001 0.020000000000000004 0
0.14000000000000001 0.040000000000000001 0
0.14000000000000001 0.54999999999999993 0
0.14000000000000001 0.56000000000000005 0
0.14000000000000001 0.58000000000000007 0
0.16 0 0
0.16 0.020000000000000004 0
0.16 0.040000000000000001 0
0.16 0.54999999999999993 0
0.16 0.56000000000000005 0
0.16 0.58000000000000007 0
0.17999999999999999 0 0
0.17999999999999999 0.020000000000000004 0
0.17999999999999999 0.040000000000000001 0
0.17999999999999999 0.54999999999999993 0
0.17999999999999999 0.56000000000000005 0
0.17999999999999999 0.58000000000000007 0
0.20000000000000001 0 0
0.20000000000000001 0.020000000000000004 0
0.20000000000000001 0.040000000000000001 0
0.20000000000000001 0.54999999999999993 0
0.20000000000000001 0.56000000000000005 0
0.20000000000000001 0.58000000000000007 0
0.22 0 0
0.22 0.020000000000000004 0
0.22 0.040000000000000001 0
0.22 0.54999999999999993 0
0.22 0.56000000000000005 0
0.22 0.58000000000000007 0
0.23999999999999999 0 0
0.23999999999999999 0.020000000000000004 0
0.23999999999999999 0.040000000000000001 0
0.23999999999999999 0.54999999999999993 0
0.23999999999999999 0.56000000000000005 0
0.23999999999999999 0.58000000000000007 0
0.26000000000000001 0 0
0.26000000000000001 0.020000000000000004 0
0.26000000000000001 0.040000000000000001 0
0.26000000000000001 0.54999999999999993 0
0.26000000000000001 0.56000000000000005 0
0.26000000000000001 0.58000000000000007 0
0.28000000000000003 0 0
0.28000000000000003 0.020000000000000004 0
0.28000000000000003 0.040000000000000001 0
0.28000000000000003 0.54999999999999993 0
0.28000000000000003 0.56000000000000005 0
0.28000000000000003 0.58000000000000007 0
0.29999999999999999 0 0
0.29999999999999999 0.020000000000000004 0
0.29999999999999999 0.040000000000000001 0
0.29999999999999999 0.54999999999999993 0
0.29999999999999999 0.56000000000000005 0
0.29999999999999999 0.58000000000000007 0
0.32000000000000001 0 0
0.32000000000000001 0.020000000000000004 0
0.32000000000000001 0.040000000000000001 0
0.32000000000000001 0.54999999999999993 0
0.32000000000000001 0.56000000000000005 0
0.32000000000000001 0.58000000000000007 0
0.34000000000000002 0 0
0.34000000000000002 0.020000000000000004 0
0.34000000000000002 0.040000000000000001 0
0.34000000000000002 0.54999999999999993 0
0.34000000000000002 0.56000000000000005 0
0.34000000000000002 0.58000000000000007 0
0.35999999999999999 0 0
0.35999999999999999 0.020000000000000004 0
0.35999999999999999 0.040000000000000001 0
0.35999999999999999 0.54999999999999993 0
0.35999999999999999 0.56000000000000005 0
0.35999999999999999 0.58000000000000007 0
0.38 0 0
0.38 0.020000000000000004 0
0.38 0.040000000000000001 0
0.38 0.54999999999999993 0
0.38 0.56000000000000005 0
0.38 0.58000000000000007 0
0.40000000000000002 0 0
0.40000000000000002 0.020000000000000004 0
0.40000000000000002 0.040000000000000001 0
0.40000000000000002 0.54999999999999993 0
0.40000000000000002 0.56000000000000005 0
0.40000000000000002 0.58000000000000007 0
0.41999999999999998 0 0
0.41999999999999998 0.020000000000000004 0
0.41999999999999998 0.040000000000000001 0
0.41999999999999998 0.54999999999999993 0
0.41999999999999998 0.56000000000000005 0
0.41999999999999998 0.58000000000000007 0
0.44 0 0
0.44 0.020000000000000004 0
0.44 0.040000000000000001 0
0.44 0.54999999999999993 0
0.44 0.56000000000000005 0
0.44 0.58000000000000007 0
0.46000000000000002 0 0
0.46000000000000002 0.020000000000000004 0
0.46000000000000002 0.040000000000000001 0
0.46000000000000002 0.54999999999999993 0
0.46000000000000002 0.56000000000000005 0
0.46000000000000002 0.58000000000000007 0
0.47999999999999998 0 0
0.47999999999999998 0.020000000000000004 0
0.47999999999999998 0.040000000000000001 0
0.47999999999999998 0.54999999999999993 0
0.47999999999999998 0.56000000000000005 0
0.47999999999999998 0.58000000000000007 0
0.5 0 0
0.5 0.020000000000000004 0
0.5 0.040000000000000001 0
0.5 0.54999999999999993 0
0.5 0.56000000000000005 0
0.5 0.58000000000000007 0
0.52000000000000002 0 0
0.52000000000000002 0.020000000000000004 0
0.52000000000000002 0.040000000000000001 0
0.52000000000000002 0.54999999999999993 0
0.52000000000000002 0.56000000000000005 0
0.52000000000000002 0.58000000000000007 0
0.54000000000000004 0 0
0.54000000000000004 0.020000000000000004 0
0.54000000000000004 0.040000000000000001 0
0.54000000000000004 0.54999999999999993 0
0.54000000000000004 0.56000000000000005 0
0.54000000000000004 0.58000000000000007 0
0.56000000000000005 0 0
0.56000000000000005 0.020000000000000004 0
0.56000000000000005 0.040000000000000001 0
0.56000000000000005 0.54999999999999993 0
0.56000000000000005 0.56000000000000005 0
0.56000000000000005 0.58000000000000007 0
0.57999999999999996 0 0
0.57999999999999996 0.020000000000000004 0
0.57999999999999996 0.040000000000000001 0
0.57999999999999996 0.54999999999999993 0
0.57999999999999996 0.56000000000000005 0
0.57999999999999996 0.58000000000000007 0
0.59999999999999998 0 0
0.59999999999999998 0.020000000000000004 0
0.59999999999999998 0.040000000000000001 0
0.59999999999999998 0.54999999999999993 0
0.59999999999999998 0.56000000000000005 0
0.59999999999999998 0.58000000000000007 0
0.62 0 0
0.62 0.020000000000000004 0
0.62 0.040000000000000001 0
0.62 0.54999999999999993 0
0.62 0.56000000000000005 0
0.62 0.58000000000000007 0
0.64000000000000001 0 0
0.64000000000000001 0.020000000000000004 0
0.64000000000000001 0.040000000000000001 0
0.64000000000000001 0.54999999999999993 0
0.64000000000000001 0.56000000000000005 0
0.64000000000000001 0.58000000000000007 0
0.66000000000000003 0 0
0.66000000000000003 0.020000000000000004 0
0.66000000000000003 0.040000000000000001 0
0.66000000000000003 0.54999999999999993 0
0.66000000000000003 0.56000000000000005 0
0.66000000000000003 0.58000000000000007 0
0.68000000000000005 0 0
0.68000000000000005 0.020000000000000004 0
0.68000000000000005 0.040000000000000001 0
0.68000000000000005 0.54999999999999993 0
0.68000000000000005 0.56000000000000005 0
0.68000000000000005 0.58000000000000007 0
0.70000000000000007 0 0
0.70000000000000007 0.020000000000000004 0
0.70000000000000007 0.040000000000000001 0
0.70000000000000007 0.54999999999999993 0
0.70000000000000007 0.56000000000000005 0
0.70000000000000007 0.58000000000000007 0
0.71999999999999997 0 0
0.71999999999999997 0.020000000000000004 0
0.71999999999999997 0.040000000000000001 0
0.71999999999999997 0.54999999999999993 0
0.71999999999999997 0.56000000000000005 0
0.71999999999999997 0.58000000000000007 0
0.73999999999999999 0 0
0.73999999999999999 0.020000000000000004 0
0.73999999999999999 0.040000000000000001 0
0.73999999999999999 0.54999999999999993 0
0.73999999999999999 0.56000000000000005 0
0.73999999999999999 0.58000000000000007 0
0.76000000000000001 0 0
0.76000000000000001 0.020000000000000004 0
0.76000000000000001 0.040000000000000001 0
0.76000000000000001 0.54999999999999993 0
0.76000000000000001 0.56000000000000005 0
0.76000000000000001 0.58000000000000007 0
0.78000000000000003 0 0
0.78000000000000003 0.020000000000000004 0
0.78000000000000003 0.040000000000000001 0
0.78000000000000003 0.54999999999999993 0
0.78000000000000003 0.56000000000000005 0
0.78000000000000003 0.58000000000000007 0
0.80000000000000004 0 0
0.80000000000000004 0.020000000000000004 0
0.80000000000000004 0.040000000000000001 0
0.80000000000000004 0.54999999999999993 0
0.80000000000000004 0.56000000000000005 0
0.80000000000000004 0.58000000000000007 0
0.82000000000000006 0 0
0.82000000000000006 0.020000000000000004 0
0.82000000000000006 0.040000000000000001 0
0.82000000000000006 0.54999999999999993 0
0.82000000000000006 0.56000000000000005 0
0.82000000000000006 0.58000000000000007 0
0.83999999999999997 0 0
0.83999999999999997 0.020000000000000004 0
0.83999999999999997 0.040000000000000001 0
0.83999999999999997 0.54999999999999993 0
0.83999999999999997 0.56000000000000005 0
0.83999999999999997 0.58000000000000007 0
0.85999999999999999 0 0
0.85999999999999999 0.020000000000000004 0
0.85999999999999999 0.040000000000000001 0
0.85999999999999999 0.54999999999999993 0
0.85999999999999999 0.56000000000000005 0
0.85999999999999999 0.58000000000000007 0
0.88 0 0
0.88 0.020000000000000004 0
0.88 0.040000000000000001 0
0.88 0.54999999999999993 0
0.88 0.56000000000000005 0
0.88 0.58000000000000007 0
0.90000000000000002 0 0
0.90000000000000002 0.020000000000000004 0
0.90000000000000002 0.040000000000000001 0
0.90000000000000002 0.54999999999999993 0
0.90000000000000002 0.56000000000000005 0
0.90000000000000002 0.58000000000000007 0
0.92000000000000004 0 0
0.92000000000000004 0.020000000000000004 0
0.92000000000000004 0.040000000000000001 0
0.92000000000000004 0.54999999999999993 0
0.92000000000000004 0.56000000000000005 0
0.92000000000000004 0.58000000000000007 0
0.94000000000000006 0 0
0.94000000000000006 0.020000000000000004 0
0.94000000000000006 0.040000000000000001 0
0.94000000000000006 0.54999999999999993 0
0.94000000000000006 0.56000000000000005 0
0.94000000000000006 0.58000000000000007 0
0.95999999999999996 0 0
0.95999999999999996 0.020000000000000004 0
0.95999999999999996 0.040000000000000001 0
0.95999999999999996 0.54999999999999993 0
0.95999999999999996 0.56000000000000005 0
0.95999999999999996 0.58000000000000007 0
0.97999999999999998 0 0
0.97999999999999998 0.020000000000000004 0
0.97999999999999998 0.040000000000000001 0
0.97999999999999998 0.54999999999999993 0
0.97999999999999998 0.56000000000000005 0
0.97999999999999998 0.58000000000000007 0
1 0 0
1 0.020000000000000004 0
1 0.040000000000000001 0
1 0.54999999999999993 0
1 0.56000000000000005 0
1 0.58000000000000007 0
VERTICES 681 1362
1 0
1 1
1 2
1 3
1 4
1 5
1 6
1 7
1 8
1 9
1 10
1 11
1 12
1 13
1 14
1 15
1 16
1 17
1 18
1 19
1 20
1 21
1 22
1 23
1 24
1 25
1 26
1 27
1 28
1 29
1 30
1 31
1 32
1 33
1 34
1 35
1 36
1 37
1 38
1 39
1 40
1 41
1 42
1 43
1 44
1 45
1 46
1 47
1 48
1 49
1 50
1 51
1 52
1 53
1 54
1 55
1 56
1 57
1 58
1 59
1 60
1 61
1 62
1 63
1 64
1 65
1 66
1 67
1 68
1 69
1 70
1 71
1 72
1 73
1 74
1 75
1 76
1 77
1 78
1 79
1 80
1 81
1 82
1 83
1 84
1 85
1 86
1 87
1 88
1 89
1 90
1 91
1 92
1 93
1 94
1 95
1 96
1 97
1 98
1 99
1 100
1 101
1 102
1 103
1 104
1 105
1 106
1 107
1 108
1 109
1 110
1 111
1 112
1 113
1 114
1 115
1 116
1 117
1 118
1 119
1 120
1 121
1 122
1 123
1 124
1 125
1 126
1 127
1 128
1 129
1 130
1 131
1 132
1 133
1 134
1 135
1 136
1 137
1 138
1 139
1 140
1 141
1 142
1 143
1 144
1 145
1 146
1 147
1 148
1 149
1 150
1 151
1 152
1 153
1 154
1 155
1 156
1 157
1 158
1 159
1 160
1 161
1 162
1 163
1 164
1 165
1 166
1 167
1 168
1 169
1 170
1 171
1 172
1 173
1 174
1 175
1 176
1 177
1 178
1 179
1 180
1 181
1 182
1 183
1 184
1 185
1 186
1 187
1 188
1 189
1 190
1 191
1 192
1 193
1 194
1 195
1 196
1 197
1 198
1 199
1 200
1 201
1 202
1 203
1 204
1 205
1 206
1 207
1 208
1 209
1 210
1 211
1 212
1 213
1 214
1 215
1 216
1 217
1 218
1 219
1 220
1 221
1 222
1 223
1 224
1 225
1 226
1 227
1 228
1 229
1 230
1 231
1 232
1 233
1 234
1 235
1 236
1 237
1 238
1 239
1 240
1 241
1 242
1 243
1 244
1 245
1 246
1 247
1 248
1 249
1 250
1 251
1 252
1 253
1 254
1 255
1 256
1 257
1 258
1 259
1 260
1 261
1 262
1 263
1 264
1 265
1 266
1 267
1 268
1 269
1 270
1 271
1 272
1 273
1 274
1 275
1 276
1 277
1 278
1 279
1 280
1 281
1 282
1 283
1 284
1 285
1 286
1 287
1 288
1 289
1 290
1 291
1 292
1 293
1 294
1 295
1 296
1 297
1 298
1 299
1 300
1 301
1 302
1 303
1 304
1 305
1 306
1 307
1 308
1 309
1 310
1 311
1 312
1 313
1 314
1 315
1 316
1 317
1 318
1 319
1 320
1 321
1 322
1 323
1 324
1 325
1 326
1 327
1 328
1 329
1 330
1 331
1 332
1 333
1 334
1 335
1 336
1 337
1 338
1 339
1 340
1 341
1 342
1 343
1 344
1 345
1 346
1 347
1 348
1 349
1 350
1 351
1 352
1 353
1 354
1 355
1 356
1 357
1 358
1 359
1 360
1 361
1 362
1 363
1 364
1 365
1 366
1 367
1 368
1 369
1 370
1 371
1 372
1 373
1 374
1 375
1 376
1 377
1 378
1 379
1 380
1 381
1 382
1 383
1 384
1 385
1 386
1 387
1 388
1 389
1 390
1 391
1 392
1 393
1 394
1 395
1 396
1 397
1 398
1 399
1 400
1 401
1 402
1 403
1 404
1 405
1 406
1 407
1 408
1 409
1 410
1 411
1 412
1 413
1 414
1 415
1 416
1 417
1 418
1 419
1 420
1 421
1 422
1 423
1 424
1 425
1 426
1 427
1 428
1 429
1 430
1 431
1 432
1 433
1 434
1 435
1 436
1 437
1 438
1 439
1 440
1 441
1 442
1 443
1 444
1 445
1 446
1 447
1 448
1 449
1 450
1 451
1 452
1 453
1 454
1 455
1 456
1 457
1 458
1 459
1 460
1 461
1 462
1 463
1 464
1 465
1 466
1 467
1 468
1 469
1 470
1 471
1 472
1 473
1 474
1 475
1 476
1 477
1 478
1 479
1 480
1 481
1 482
1 483
1 484
1 485
1 486
1 487
1 488
1 489
1 490
1 491
1 492
1 493
1 494
1 495
1 496
1 497
1 498
1 499
1 500
1 501
1 502
1 503
1 504
1 505
1 506
1 507
1 508
1 509
1 510
1 511
1 512
1 513
1 514
1 515
1 516
1 517
1 518
1 519
1 520
1 521
1 522
1 523
1 524
1 525
1 526
1 527
1 528
1 529
1 530
1 531
1 532
1 533
1 534
1 535
1 536
1 537
1 538
1 539
1 540
1 541
1 542
1 543
1 544
1 545
1 546
1 547
1 548
1 549
1 550
1 551
1 552
1 553
1 554
1 555
1 556
1 557
1 558
1 559
1 560
1 561
1 562
1 563
1 564
1 565
1 566
1 567
1 568
1 569
1 570
1 571
1 572
1 573
1 574
1 575
1 576
1 577
1 578
1 579
1 580
1 581
1 582
1 583
1 584
1 585
1 586
1 587
1 588
1 589
1 590
1 591
1 592
1 593
1 594
1 595
1 596
1 597
1 598
1 599
1 600
1 601
1 602
1 603
1 604
1 605
1 606
1 607
1 608
1 609
1 610
1 611
1 612
1 613
1 614
1 615
1 616
1 617
1 618
1 619
1 620
1 621
1 622
1 623
1 624
1 625
1 626
1 627
1 628
1 629
1 630
1 631
1 632
1 633
1 634
1 635
1 636
1 637
1 638
1 639
1 640
1 641
1 642
1 643
1 644
1 645
1 646
1 647
1 648
1 649
1 650
1 651
1 652
1 653
1 654
1 655
1 656
1 657
1 658
1 659
1 660
1 661
1 662
1 663
1 664
1 665
1 666
1 667
1 668
1 669
1 670
1 671
1 672
1 673
1 674
1 675
1 676
1 677
1 678
1 679
1 680
POINT_DATA 681
SCALARS is_boundary int 1
LOOKUP_TABLE default
0
0
0
0
0
0
0
0
0
0
0
0
0
0
0
0
0
0
0
0
0
0
0
0
0
0
0
0
0
0
0
0
0
0
0
0
0
0
0
0
0
0
0
0
0
0
0
0
0
0
0
0
0
0
0
0
0
0
0
0
0
0
0
0
0
0
0
0
0
0
0
0
0
0
0
0
0
0
0
0
0
0
0
0
0
0
0
0
0
0
0
0
0
0
0
0
0
0
0
0
0
0
0
0
0
0
0
0
0
0
0
0
0
0
0
0
0
0
0
0
0
0
0
0
0
0
0
0
0
0
0
0
0
0
0
0
0
0
0
0
0
0
0
0
0
0
0
0
0
0
0
0
0
0
0
0
0
0
0
0
0
0
0
0
0
0
0
0
0
0
0
0
0
0
0
0
0
0
0
0
0
0
0
0
0
0
0
0
0
0
0
0
0
0
0
0
0
0
0
0
0
0
0
0
0
0
0
0
0
0
0
0
0
0
0
0
0
0
0
0
0
0
0
0
0
0
0
0
0
0
0
0
0
0
0
0
0
0
0
0
0
0
0
0
0
0
0
0
0
0
0
0
0
0
0
0
0
0
0
0
0
0
0
0
0
0
0
0
0
0
0
0
0
0
0
0
0
0
0
0
0
0
0
0
0
0
0
0
0
0
0
0
0
0
0
0
0
0
0
0
0
0
0
0
0
0
0
0
0
0
0
0
0
0
0
0
0
0
0
0
0
0
0
0
0
0
0
0
0
0
0
0
0
0
0
0
0
0
0
0
0
0
0
0
0
0
0
0
0
0
0
0
0
0
0
0
0
0
0
0
0
0
0
0
0
0
0
0
0
0
0
0
0
0
0
1
1
1
1
1
1
1
1
1
1
1
1
1
1
1
1
1
1
1
1
1
1
1
1
1
1
1
1
1
1
1
1
1
1
1
1
1
1
1
1
1
1
1
1
1
1
1
1
1
1
1
1
1
1
1
1
1
1
1
1
1
1
1
1
1
1
1
1
1
1
1
1
1
1
1
1
1
1
1
1
1
1
1
1
1
1
1
1
1
1
1
1
1
1
1
1
1
1
1
1
1
1
1
1
1
1
1
1
1
1
1
1
1
1
1
1
1
1
1
1
1
1
1
1
1
1
1
1
1
1
1
1
1
1
1
1
1
1
1
1
1
1
1
1
1
1
1
1
1
1
1
1
1
1
1
1
1
1
1
1
1
1
1
1
1
1
1
1
1
1
1
1
1
1
1
1
1
1
1
1
1
1
1
1
1
1
1
1
1
1
1
1
1
1
1
1
1
1
1
1
1
1
1
1
1
1
1
1
1
1
1
1
1
1
1
1
1
1
1
1
1
1
1
1
1
1
1
1
1
1
1
1
1
1
1
1
1
1
1
1
1
1
1
1
1
1
1
1
1
1
1
1
1
1
1
1
1
1
1
1
1
1
1
1
1
1
1
1
1
1
1
1
1
1
1
1
1
1
1
1
1
1
1
1
1
1
1
1
1
1
1
1
1
1
1
1
1
1
1
1
1
1
1
1
1
1
SCALARS rho float 1
LOOKUP_TABLE default
1020
1020
1020
1020
1020
1020
1020
1020
1020
1020
1020
1020
1020
1020
1020
1020
1020
1020
1020
1020
1020
862
850
850
850
1020
1020
1020
1020
1020
1020
1020
1020
1020
1020
1020
1020
1020
1020
1020
1020
1020
1020
1020
1020
1020
880
850
850
850
1020
1020
1020
1020
1020
1020
1020
1020
1020
1020
1020
1020
1020
1020
1020
1020
1020
1020
1020
1020
1020
880
850
850
850
1020
1020
1020
1020
1020
1020
1020
1020
1020
1020
1020
1020
1020
1020
1020
1020
1020
1020
1020
1020
1020
880
850
850
850
1020
1020
1020
1020
1020
1020
1020
1020
1020
1020
1020
1020
1020
1020
1020
1020
1020
1020
1020
1020
1020
880
850
850
850
1020
1020
1020
1020
1020
1020
1020
1020
1020
1020
1020
1020
1020
1020
1020
1020
1020
1020
1020
1020
1020
880
850
850
850
1020
1020
1020
1020
1020
1020
1020
1020
1020
1020
1020
1020
1020
1020
1020
1020
1020
1020
1020
1020
1020
880
850
850
850
1020
1020
1020
1020
1020
1020
1020
1020
1020
1020
1020
1020
1020
1020
1020
1020
1020
1020
1020
1020
1020
880
850
850
850
1020
1020
1020
1020
1020
1020
1020
1020
1020
1020
1020
1020
1020
1020
1020
1020
1020
1020
1020
1020
1020
880
850
850
850
1020
1020
1020
1020
1020
1020
1020
1020
1020
1020
1020
1020
1020
1020
1020
1020
1020
1020
1020
1020
1020
880
850
850
850
1020
1020
1020
1020
1020
1020
1020
1020
1020
1020
1020
1020
1020
1020
1020
1020
1020
1020
1020
1020
1020
880
850
850
850
1020
1020
1020
1020
1020
1020
1020
1020
1020
1020
1020
1020
1020
1020
1020
1020
1020
1020
1020
1020
1020
880
850
850
850
1020
1020
1020
1020
1020
1020
1020
1020
1020
1020
1020
1020
1020
1020
1020
1020
1020
1020
1020
1020
1020
880
850
850
850
1020
1020
1020
1020
1020
1020
1020
1020
1020
1020
1020
1020
1020
1020
1020
1020
1020
1020
1020
1020
1020
880
850
850
850
1020
1020
1020
1020
1020
1020
1020
1020
1020
1020
1020
1020
1020
1020
1020
1020
1020
1020
1020
1020
1020
862
850
850
850
1000
1000
1000
1000
1000
1000
1000
1000
1000
1000
1000
1000
1000
1000
1000
1000
1000
1000
1000
1000
1000
1000
1000
1000
1000
1000
1000
1000
1000
1000
1000
1000
1000
1000
1000
1000
1000
1000
1000
1000
1000
1000
1000
1000
1000
1000
1000
1000
1000
1000
1000
1000
1000
1000
1000
1000
1000
1000
1000
1000
1000
1000
1000
1000
1000
1000
1000
1000
1000
1000
1000
1000
1000
1000
1000
1000
1000
1000
1000
1000
1000
1000
1000
1000
1000
1000
1000
1000
1000
1000
1000
1000
1000
1000
1000
1000
1000
1000
1000
1000
1000
1000
1000
1000
1000
1000
1000
1000
1000
1000
1000
1000
1000
1000
1000
1000
1000
1000
1000
1000
1000
1000
1000
1000
1000
1000
1000
1000
1000
1000
1000
1000
1000
1000
1000
1000
1000
1000
1000
1000
1000
1000
1000
1000
1000
1000
1000
1000
1000
1000
1000
1000
1000
1000
1000
1000
1000
1000
1000
1000
1000
1000
1000
1000
1000
1000
1000
1000
1000
1000
1000
1000
1000
1000
1000
1000
1000
1000
1000
1000
1000
1000
1000
1000
1000
1000
1000
1000
1000
1000
1000
1000
1000
1000
1000
1000
1000
1000
1000
1000
1000
1000
1000
1000
1000
1000
1000
1000
1000
1000
1000
1000
1000
1000
1000
1000
1000
1000
1000
1000
1000
1000
1000
1000
1000
1000
1000
1000
1000
1000
1000
1000
1000
1000
1000
1000
1000
1000
1000
1000
1000
1000
1000
1000
1000
1000
1000
1000
1000
1000
1000
1000
1000
1000
1000
1000
1000
1000
1000
1000
1000
1000
1000
1000
1000
1000
1000
1000
1000
1000
1000
1000
1000
1000
1000
1000
1000
1000
1000
1000
1000
1000
1000
1000
1000
1000
1000
1000
1000
1000
1000
1000
1000
1000
1000
1000
1000
1000
1000
1000
1000
1000
1000
1000
1000
1000
SCALARS p float 1
LOOKUP_TABLE default
25004.681136676067
25004.681136676067
25004.681136676067
25004.681136676067
25004.681136676067
25004.681136676067
25004.681136676067
25004.681136676067
25004.681136676067
25004.681136676067
25004.681136676067
25004.681136676067
25004.681136676067
25004.681136676067
25004.681136676067
25004.681136676067
25004.681136676067
25004.681136676067
25004.681136676067
25004.681136676067
25004.681136676067
0
0
0
0
25004.681136676067
25004.681136676067
25004.681136676067
25004.681136676067
25004.681136676067
25004.681136676067
25004.681136676067
25004.681136676067
25004.681136676067
25004.681136676067
25004.681136676067
25004.681136676067
25004.681136676067
25004.681136676067
25004.681136676067
25004.681136676067
25004.681136676067
25004.681136676067
25004.681136676067
25004.681136676067
25004.681136676067
0
0
0
0
25004.681136676067
25004.681136676067
25004.681136676067
25004.681136676067
25004.681136676067
25004.681136676067
25004.681136676067
25004.681136676067
25004.681136676067
25004.681136676067
25004.681136676067
25004.681136676067
25004.681136676067
25004.681136676067
25004.681136676067
25004.681136676067
25004.681136676067
25004.681136676067
25004.681136676067
25004.681136676067
25004.681136676067
0
0
0
0
25004.681136676067
25004.681136676067
25004.681136676067
25004.681136676067
25004.681136676067
25004.681136676067
25004.681136676067
25004.681136676067
25004.681136676067
25004.681136676067
25004.681136676067
25004.681136676067
25004.681136676067
25004.681136676067
25004.681136676067
25004.681136676067
25004.681136676067
25004.681136676067
25004.681136676067
25004.681136676067
25004.681136676067
0
0
0
0
25004.681136676067
25004.681136676067
25004.681136676067
25004.681136676067
25004.681136676067
25004.681136676067
25004.681136676067
25004.681136676067
25004.681136676067
25004.681136676067
25004.681136676067
25004.681136676067
25004.681136676067
25004.681136676067
25004.681136676067
25004.681136676067
25004.681136676067
25004.681136676067
25004.681136676067
25004.681136676067
25004.681136676067
0
0
0
0
25004.681136676067
25004.681136676067
25004.681136676067
25004.681136676067
25004.681136676067
25004.681136676067
25004.681136676067
25004.681136676067
25004.681136676067
25004.681136676067
25004.681136676067
25004.681136676067
25004.681136676067
25004.681136676067
25004.681136676067
25004.681136676067
25004.681136676067
25004.681136676067
25004.681136676067
25004.681136676067
25004.681136676067
0
0
0
0
25004.681136676067
25004.681136676067
25004.681136676067
25004.681136676067
25004.681136676067
25004.681136676067
25004.681136676067
25004.681136676067
25004.681136676067
25004.681136676067
25004.681136676067
25004.681136676067
25004.681136676067
25004.681136676067
25004.681136676067
25004.681136676067
25004.681136676067
25004.681136676067
25004.681136676067
25004.681136676067
25004.681136676067
0
0
0
0
25004.681136676067
25004.681136676067
25004.681136676067
25004.681136676067
25004.681136676067
25004.681136676067
25004.681136676067
25004.681136676067
25004.681136676067
25004.681136676067
25004.681136676067
25004.681136676067
25004.681136676067
25004.681136676067
25004.681136676067
25004.681136676067
25004.681136676067
25004.681136676067
25004.681136676067
25004.681136676067
25004.681136676067
0
0
0
0
25004.681136676067
25004.681136676067
25004.681136676067
25004.681136676067
25004.681136676067
25004.681136676067
25004.681136676067
25004.681136676067
25004.681136676067
25004.681136676067
25004.681136676067
25004.681136676067
25004.681136676067
25004.681136676067
25004.681136676067
25004.681136676067
25004.681136676067
25004.681136676067
25004.681136676067
25004.681136676067
25004.681136676067
0
0
0
0
25004.681136676067
25004.681136676067
25004.681136676067
25004.681136676067
25004.681136676067
25004.681136676067
25004.681136676067
25004.681136676067
25004.681136676067
25004.681136676067
25004.681136676067
25004.681136676067
25004.681136676067
25004.681136676067
25004.681136676067
25004.681136676067
25004.681136676067
25004.681136676067
25004.681136676067
25004.681136676067
25004.681136676067
0
0
0
0
25004.681136676067
25004.681136676067
25004.681136676067
25004.681136676067
25004.681136676067
25004.681136676067
25004.681136676067
25004.681136676067
25004.681136676067
25004.681136676067
25004.681136676067
25004.681136676067
25004.681136676067
25004.681136676067
25004.681136676067
25004.681136676067
25004.681136676067
25004.681136676067
25004.681136676067
25004.681136676067
25004.681136676067
0
0
0
0
25004.681136676067
25004.681136676067
25004.681136676067
25004.681136676067
25004.681136676067
25004.681136676067
25004.681136676067
25004.681136676067
25004.681136676067
25004.681136676067
25004.681136676067
25004.681136676067
25004.681136676067
25004.681136676067
25004.681136676067
25004.681136676067
25004.681136676067
25004.681136676067
25004.681136676067
25004.681136676067
25004.681136676067
0
0
0
0
25004.681136676067
25004.681136676067
25004.681136676067
25004.681136676067
25004.681136676067
25004.681136676067
25004.681136676067
25004.681136676067
25004.681136676067
25004.681136676067
25004.681136676067
25004.681136676067
25004.681136676067
25004.681136676067
25004.681136676067
25004.681136676067
25004.681136676067
25004.681136676067
25004.681136676067
25004.681136676067
25004.681136676067
0
0
0
0
25004.681136676067
25004.681136676067
25004.681136676067
25004.681136676067
25004.681136676067
25004.681136676067
25004.681136676067
25004.681136676067
25004.681136676067
25004.681136676067
25004.681136676067
25004.681136676067
25004.681136676067
25004.681136676067
25004.681136676067
25004.681136676067
25004.681136676067
25004.681136676067
25004.681136676067
25004.681136676067
25004.681136676067
0
0
0
0
25004.681136676067
25004.681136676067
25004.681136676067
25004.681136676067
25004.681136676067
25004.681136676067
25004.681136676067
25004.681136676067
25004.681136676067
25004.681136676067
25004.681136676067
25004.681136676067
25004.681136676067
25004.681136676067
25004.681136676067
25004.681136676067
25004.681136676067
25004.681136676067
25004.681136676067
25004.681136676067
25004.681136676067
0
0
0
0
0
0
0
0
0
0
22758.540756872819
24979.405357023934
24996.074530760496
0
0
0
24973.207177114247
25002.919983629479
25003.980322975636
0
0
0
24990.454878808603
25003.780325641212
25004.310404410171
0
0
0
24991.944384380717
25003.823102531122
25004.319164164004
0
0
0
24992.005932248587
25003.822779261442
25004.317140565545
0
0
0
24991.951678169531
25003.820773650034
25004.316530570875
0
0
0
24991.918798788622
25003.819618842252
25004.316289051199
0
0
0
24991.903744429525
25003.819088469416
25004.316186874876
0
0
0
24991.898098296271
25003.818893733864
25004.316152205665
0
0
0
24991.898036830575
25003.818891562601
25004.316151706709
0
0
0
24991.903706195277
25003.819087794731
25004.316187213677
0
0
0
24991.918756220628
25003.819619853086
25004.316290396167
0
0
0
24991.951665596254
25003.820776052966
25004.316534039979
0
0
0
24992.005822193303
25003.822775954512
25004.317143350851
0
0
0
24991.94414656697
25003.823097594006
25004.319167725567
0
0
0
24990.454552841853
25003.780331241549
25004.310414741049
0
0
0
24973.204727106182
25002.919927920353
25003.980308913702
0
0
0
22757.976648235959
24979.402587869856
24996.073464356425
0
0
0
0
0
0
0
0
0
0
0
0
0
0
0
0
0
0
0
0
0
0
0
0
0
0
0
0
0
0
0
0
0
0
0
0
0
0
0
0
0
0
0
0
0
0
0
0
0
0
0
0
0
0
0
0
0
0
0
0
0
0
0
0
0
0
0
0
0
0
0
0
0
0
0
0
0
0
0
0
0
0
0
0
0
0
0
0
0
0
0
0
0
0
0
0
0
0
0
0
0
0
0
0
0
0
0
0
0
0
0
0
0
0
0
0
0
0
0
0
0
0
0
0
0
0
0
0
0
0
0
0
0
0
0
0
0
0
0
0
0
0
0
0
0
0
0
0
0
0
0
0
0
0
0
0
0
0
0
0
0
0
0
0
0
0
0
0
0
0
0
0
0
0
0
0
0
0
0
0
0
0
0
0
0
0
0
0
0
0
0
0
0
0
0
SCALARS m float 1
LOOKUP_TABLE default
0.39942306611962441
0.39942306611962441
0.39942306611962441
0.39942306611962441
0.39942306611962441
0.39942306611962441
0.39942306611962441
0.39942306611962441
0.39942306611962441
0.39942306611962441
0.39942306611962441
0.39942306611962441
0.39942306611962441
0.39942306611962441
0.39942306611962441
0.39942306611962441
0.39942306611962441
0.39942306611962441
0.39942306611962441
0.39942306611962441
0.39942306611962441
0.39942306611962441
0.39942306611962441
0.39942306611962441
0.39942306611962441
0.39942306611962441
0.39942306611962441
0.39942306611962441
0.39942306611962441
0.39942306611962441
0.39942306611962441
0.39942306611962441
0.39942306611962441
0.39942306611962441
0.39942306611962441
0.39942306611962441
0.39942306611962441
0.39942306611962441
0.39942306611962441
0.39942306611962441
0.39942306611962441
0.39942306611962441
0.39942306611962441
0.39942306611962441
0.39942306611962441
0.39942306611962441
0.39942306611962441
0.39942306611962441
0.39942306611962441
0.39942306611962441
0.39942306611962441
0.39942306611962441
0.39942306611962441
0.39942306611962441
0.39942306611962441
0.39942306611962441
0.39942306611962441
0.39942306611962441
0.39942306611962441
0.39942306611962441
0.39942306611962441
0.39942306611962441
0.39942306611962441
0.39942306611962441
0.39942306611962441
0.39942306611962441
0.39942306611962441
0.39942306611962441
0.39942306611962441
0.39942306611962441
0.39942306611962441
0.39942306611962441
0.39942306611962441
0.39942306611962441
0.39942306611962441
0.39942306611962441
0.39942306611962441
0.39942306611962441
0.39942306611962441
0.39942306611962441
0.39942306611962441
0.39942306611962441
0.39942306611962441
0.39942306611962441
0.39942306611962441
0.39942306611962441
0.39942306611962441
0.39942306611962441
0.39942306611962441
0.39942306611962441
0.39942306611962441
0.39942306611962441
0.39942306611962441
0.39942306611962441
0.39942306611962441
0.39942306611962441
0.39942306611962441
0.39942306611962441
0.39942306611962441
0.39942306611962441
0.39942306611962441
0.39942306611962441
0.39942306611962441
0.39942306611962441
0.39942306611962441
0.39942306611962441
0.39942306611962441
0.39942306611962441
0.39942306611962441
0.39942306611962441
0.39942306611962441
0.39942306611962441
0.39942306611962441
0.39942306611962441
0.39942306611962441
0.39942306611962441
0.39942306611962441
0.39942306611962441
0.39942306611962441
0.39942306611962441
0.39942306611962441
0.39942306611962441
0.39942306611962441
0.39942306611962441
0.39942306611962441
0.39942306611962441
0.39942306611962441
0.39942306611962441
0.39942306611962441
0.39942306611962441
0.39942306611962441
0.39942306611962441
0.39942306611962441
0.39942306611962441
0.39942306611962441
0.39942306611962441
0.39942306611962441
0.39942306611962441
0.39942306611962441
0.39942306611962441
0.39942306611962441
0.39942306611962441
0.39942306611962441
0.39942306611962441
0.39942306611962441
0.39942306611962441
0.39942306611962441
0.39942306611962441
0.39942306611962441
0.39942306611962441
0.39942306611962441
0.39942306611962441
0.39942306611962441
0.39942306611962441
0.39942306611962441
0.39942306611962441
0.39942306611962441
0.39942306611962441
0.39942306611962441
0.39942306611962441
0.39942306611962441
0.39942306611962441
0.39942306611962441
0.39942306611962441
0.39942306611962441
0.39942306611962441
0.39942306611962441
0.39942306611962441
0.39942306611962441
0.39942306611962441
0.39942306611962441
0.39942306611962441
0.39942306611962441
0.39942306611962441
0.39942306611962441
0.39942306611962441
0.39942306611962441
0.39942306611962441
0.39942306611962441
0.39942306611962441
0.39942306611962441
0.39942306611962441
0.39942306611962441
0.39942306611962441
0.39942306611962441
0.39942306611962441
0.39942306611962441
0.39942306611962441
0.39942306611962441
0.39942306611962441
0.39942306611962441
0.39942306611962441
0.39942306611962441
0.39942306611962441
0.39942306611962441
0.39942306611962441
0.39942306611962441
0.39942306611962441
0.39942306611962441
0.39942306611962441
0.39942306611962441
0.39942306611962441
0.39942306611962441
0.39942306611962441
0.39942306611962441
0.39942306611962441
0.39942306611962441
0.39942306611962441
0.39942306611962441
0.39942306611962441
0.39942306611962441
0.39942306611962441
0.39942306611962441
0.39942306611962441
0.39942306611962441
0.39942306611962441
0.39942306611962441
0.39942306611962441
0.39942306611962441
0.39942306611962441
0.39942306611962441
0.39942306611962441
0.39942306611962441
0.39942306611962441
0.39942306611962441
0.39942306611962441
0.39942306611962441
0.39942306611962441
0.39942306611962441
0.39942306611962441
0.39942306611962441
0.39942306611962441
0.39942306611962441
0.39942306611962441
0.39942306611962441
0.39942306611962441
0.39942306611962441
0.39942306611962441
0.39942306611962441
0.39942306611962441
0.39942306611962441
0.39942306611962441
0.39942306611962441
0.39942306611962441
0.39942306611962441
0.39942306611962441
0.39942306611962441
0.39942306611962441
0.39942306611962441
0.39942306611962441
0.39942306611962441
0.39942306611962441
0.39942306611962441
0.39942306611962441
0.39942306611962441
0.39942306611962441
0.39942306611962441
0.39942306611962441
0.39942306611962441
0.39942306611962441
0.39942306611962441
0.39942306611962441
0.39942306611962441
0.39942306611962441
0.39942306611962441
0.39942306611962441
0.39942306611962441
0.39942306611962441
0.39942306611962441
0.39942306611962441
0.39942306611962441
0.39942306611962441
0.39942306611962441
0.39942306611962441
0.39942306611962441
0.39942306611962441
0.39942306611962441
0.39942306611962441
0.39942306611962441
0.39942306611962441
0.39942306611962441
0.39942306611962441
0.39942306611962441
0.39942306611962441
0.39942306611962441
0.39942306611962441
0.39942306611962441
0.39942306611962441
0.39942306611962441
0.39942306611962441
0.39942306611962441
0.39942306611962441
0.39942306611962441
0.39942306611962441
0.39942306611962441
0.39942306611962441
0.39942306611962441
0.39942306611962441
0.39942306611962441
0.39942306611962441
0.39942306611962441
0.39942306611962441
0.39942306611962441
0.39942306611962441
0.39942306611962441
0.39942306611962441
0.39942306611962441
0.39942306611962441
0.39942306611962441
0.39942306611962441
0.39942306611962441
0.39942306611962441
0.39942306611962441
0.39942306611962441
0.39942306611962441
0.39942306611962441
0.39942306611962441
0.39942306611962441
0.39942306611962441
0.39942306611962441
0.39942306611962441
0.39942306611962441
0.39942306611962441
0.39942306611962441
0.39942306611962441
0.39942306611962441
0.39942306611962441
0.39942306611962441
0.39942306611962441
0.39942306611962441
0.39942306611962441
0.39942306611962441
0.39942306611962441
0.39942306611962441
0.39942306611962441
0.39942306611962441
0.39942306611962441
0.39942306611962441
0.39942306611962441
0.39942306611962441
0.39942306611962441
0.39942306611962441
0.39942306611962441
0.39942306611962441
0.39942306611962441
0.39942306611962441
0.39942306611962441
0.39942306611962441
0.39942306611962441
0.39942306611962441
0.39942306611962441
0.39942306611962441
0.39942306611962441
0.39942306611962441
0.39942306611962441
0.39942306611962441
0.39942306611962441
0.39942306611962441
0.39942306611962441
0.39942306611962441
0.39942306611962441
0.39942306611962441
0.39942306611962441
0.39942306611962441
0.39942306611962441
0.39942306611962441
0.39942306611962441
0.39942306611962441
0.39942306611962441
0.39942306611962441
0.39942306611962441
0.39942306611962441
0.39942306611962441
0.39942306611962441
0.39942306611962441
0.39942306611962441
0.39942306611962441
0.39942306611962441
0.39942306611962441
0.39942306611962441
0.39942306611962441
0.39942306611962441
0.39942306611962441
0.39942306611962441
0.39942306611962441
0.39942306611962441
0.39942306611962441
0.39942306611962441
0.39942306611962441
0.39942306611962441
0.39942306611962441
0.39942306611962441
0.39942306611962441
0.39942306611962441
0.39942306611962441
0.39942306611962441
0.39942306611962441
0.39942306611962441
0.39942306611962441
0.39942306611962441
0.39942306611962441
0.39942306611962441
0.39942306611962441
0.39942306611962441
0.39942306611962441
0.39942306611962441
0.39942306611962441
0.39942306611962441
0.39942306611962441
0.39942306611962441
0.39942306611962441
0.39942306611962441
0.39942306611962441
0.39942306611962441
0.39942306611962441
0.39942306611962441
0.39942306611962441
0.39942306611962441
0.39942306611962441
0.39942306611962441
0.39942306611962441
0.39942306611962441
0.39942306611962441
0.39942306611962441
0.39942306611962441
0.39942306611962441
0.39942306611962441
0.39942306611962441
0.39942306611962441
0.39942306611962441
0.39942306611962441
0.39942306611962441
0.39942306611962441
0.39942306611962441
0.39942306611962441
0.39942306611962441
0.39942306611962441
0.39942306611962441
0.39942306611962441
0.39942306611962441
0.39942306611962441
0.39942306611962441
0.39942306611962441
0.39942306611962441
0.39942306611962441
0.39942306611962441
0.39942306611962441
0.39942306611962441
0.39942306611962441
0.39942306611962441
0.39942306611962441
0.39942306611962441
0.39942306611962441
0.39942306611962441
0.39942306611962441
0.39942306611962441
0.39942306611962441
0.39942306611962441
0.39942306611962441
0.39942306611962441
0.39942306611962441
0.39942306611962441
0.39942306611962441
0.39942306611962441
0.39942306611962441
0.39942306611962441
0.39942306611962441
0.39942306611962441
0.39942306611962441
0.39942306611962441
0.39942306611962441
0.39942306611962441
0.39942306611962441
0.39942306611962441
0.39942306611962441
0.39942306611962441
0.39942306611962441
0.39942306611962441
0.39942306611962441
0.39942306611962441
0.39942306611962441
0.39942306611962441
0.39942306611962441
0.39942306611962441
0.39942306611962441
0.39942306611962441
0.39942306611962441
0.39942306611962441
0.39942306611962441
0.39942306611962441
0.39942306611962441
0.39942306611962441
0.39942306611962441
0.39942306611962441
0.39942306611962441
0.39942306611962441
0.39942306611962441
0.39942306611962441
0.39942306611962441
0.39942306611962441
0.39942306611962441
0.39942306611962441
0.39942306611962441
0.39942306611962441
0.39942306611962441
0.39942306611962441
0.39942306611962441
0.39942306611962441
0.39942306611962441
0.39942306611962441
0.39942306611962441
0.39942306611962441
0.39942306611962441
0.39942306611962441
0.39942306611962441
0.39942306611962441
0.39942306611962441
0.39942306611962441
0.39942306611962441
0.39942306611962441
0.39942306611962441
0.39942306611962441
0.39942306611962441
0.39942306611962441
0.39942306611962441
0.39942306611962441
0.39942306611962441
0.39942306611962441
0.39942306611962441
0.39942306611962441
0.39942306611962441
0.39942306611962441
0.39942306611962441
0.39942306611962441
0.39942306611962441
0.39942306611962441
0.39942306611962441
0.39942306611962441
0.39942306611962441
0.39942306611962441
0.39942306611962441
0.39942306611962441
0.39942306611962441
0.39942306611962441
0.39942306611962441
0.39942306611962441
0.39942306611962441
0.39942306611962441
0.39942306611962441
0.39942306611962441
0.39942306611962441
0.39942306611962441
0.39942306611962441
0.39942306611962441
0.39942306611962441
0.39942306611962441
0.39942306611962441
0.39942306611962441
0.39942306611962441
0.39942306611962441
0.39942306611962441
0.39942306611962441
0.39942306611962441
0.39942306611962441
0.39942306611962441
0.39942306611962441
0.39942306611962441
0.39942306611962441
0.39942306611962441
0.39942306611962441
0.39942306611962441
0.39942306611962441
0.39942306611962441
0.39942306611962441
0.39942306611962441
0.39942306611962441
0.39942306611962441
0.39942306611962441
0.39942306611962441
0.39942306611962441
0.39942306611962441
0.39942306611962441
0.39942306611962441
0.39942306611962441
0.39942306611962441
0.39942306611962441
0.39942306611962441
0.39942306611962441
0.39942306611962441
0.39942306611962441
0.39942306611962441
0.39942306611962441
0.39942306611962441
0.39942306611962441
0.39942306611962441
0.39942306611962441
0.39942306611962441
0.39942306611962441
0.39942306611962441
0.39942306611962441
0.39942306611962441
0.39942306611962441
0.39942306611962441
0.39942306611962441
0.39942306611962441
0.39942306611962441
0.39942306611962441
0.39942306611962441
0.39942306611962441
0.39942306611962441
0.39942306611962441
0.39942306611962441
0.39942306611962441
0.39942306611962441
0.39942306611962441
0.39942306611962441
0.39942306611962441
0.39942306611962441
0.39942306611962441
0.39942306611962441
0.39942306611962441
0.39942306611962441
0.39942306611962441
0.39942306611962441
0.39942306611962441
0.39942306611962441
0.39942306611962441
0.39942306611962441
0.39942306611962441
0.39942306611962441
0.39942306611962441
0.39942306611962441
0.39942306611962441
0.39942306611962441
0.39942306611962441
0.39942306611962441
0.39942306611962441
0.39942306611962441
0.39942306611962441
0.39942306611962441
0.39942306611962441
0.39942306611962441
0.39942306611962441
0.39942306611962441
0.39942306611962441
0.39942306611962441
0.39942306611962441
0.39942306611962441
0.39942306611962441
0.39942306611962441
0.39942306611962441
0.39942306611962441
0.39942306611962441
0.39942306611962441
0.39942306611962441
0.39942306611962441
0.39942306611962441
0.39942306611962441
0.39942306611962441
0.39942306611962441
0.39942306611962441
0.39942306611962441
0.39942306611962441
0.39942306611962441
0.39942306611962441
0.39942306611962441
0.39942306611962441
0.39942306611962441
0.39942306611962441
0.39942306611962441
0.39942306611962441
0.39942306611962441
0.39942306611962441
0.39942306611962441
0.39942306611962441
0.39942306611962441
0.39942306611962441
0.39942306611962441
0.39942306611962441
0.39942306611962441
0.39942306611962441
VECTORS v float
-5.3081388091508049e-05 -0.085797037973116816 0
-5.7931508598903957e-05 -0.094265730027356331 0
-6.1622172719031067e-05 -0.10125130334777425 0
-6.5231107369475533e-05 -0.10865583333132946 0
-6.889050416910459e-05 -0.11655353983213382 0
-7.2460751435716731e-05 -0.12507314405688891 0
-7.5842328704007803e-05 -0.13438454873537525 0
-7.9083143089262486e-05 -0.14467635800557696 0
-8.2141927138555502e-05 -0.15623426908753699 0
-8.5126651200589666e-05 -0.16941416202447337 0
-8.8019847969852375e-05 -0.1846781244567067 0
-9.0963712156287679e-05 -0.20265058737096986 0
-9.4288143751883107e-05 -0.22421302007392249 0
-9.8060228578595525e-05 -0.25060940669417142 0
-0.00010232962357512706 -0.28369070263476809 0
-0.0001067296758213701 -0.32608484983857461 0
-0.00011208028175389086 -0.38226528406322235 0
-0.0001177821073650774 -0.4622908592471936 0
-0.00012550735564102083 -0.59243259324290698 0
-0.00013481594073851271 -0.89203527259075222 0
-0.00012590113185320569 -1.764931184217932 0
-3.4526856619704072e-05 -2.5375406074703744 0
-3.9083653867495125e-06 -2.6353968339053053 0
-2.5037373723544831e-07 -2.6322764094623285 0
-1.0565600338341399e-17 -2.4891291861708607 0
-3.2040601957289968e-05 -0.089285598265703217 0
-3.5588323186458287e-05 -0.098243110161502681 0
-3.8107615450360257e-05 -0.10572028559499962 0
-4.0664733976295841e-05 -0.11348010913527116 0
-4.2774350924320609e-05 -0.12167998094002111 0
-4.4883270952224386e-05 -0.13048355617604207 0
-4.7351412960486249e-05 -0.14008718651561156 0
-4.9079103793678217e-05 -0.15071245078258011 0
-5.1481027717805628e-05 -0.16267267362170496 0
-5.3443961918783948e-05 -0.17635482458488144 0
-5.6293287715748007e-05 -0.19221384080742082 0
-5.8710455808944047e-05 -0.21087006626735702 0
-6.0916081928845785e-05 -0.23322683169914174 0
-6.3436079276238034e-05 -0.26060424548518707 0
-6.6272894321966992e-05 -0.29488646989707684 0
-6.9365953953384694e-05 -0.33876614029424873 0
-7.2460597413227687e-05 -0.39674862400806787 0
-7.5359314107764397e-05 -0.47841047110041113 0
-7.8481260021951043e-05 -0.60708705039281907 0
-8.0828950795424834e-05 -0.87299042991840525 0
-7.4478091556119715e-05 -1.6516058026914489 0
-2.7586276082742134e-05 -2.5037141979819797 0
-3.8420606182004267e-06 -2.6331678348058634 0
-2.5179463469587693e-07 -2.6324369402167371 0
-1.5114452331972726e-17 -2.4899142527675235 0
-1.1696271942713988e-05 -0.089831999595766224 0
-1.3085084126677083e-05 -0.09880849185200867 0
-1.4364910012999012e-05 -0.10631292280043292 0
-1.5380272736975262e-05 -0.11411644538863387 0
-1.6471066617340779e-05 -0.12238197667585833 0
-1.8243376683088758e-05 -0.1312698468368346 0
-1.9208727704637827e-05 -0.14098117458531995 0
-2.0259866144521133e-05 -0.15173905170902752 0
-2.1492215933720473e-05 -0.16385949069774683 0
-2.3587639834426472e-05 -0.17774472333989569 0
-2.5216636596477397e-05 -0.19385676830921492 0
-2.6520529821433756e-05 -0.21282539522383603 0
-2.7860189218801669e-05 -0.23554475027840976 0
-3.0924710395941505e-05 -0.26333307773703851 0
-3.3002675842581979e-05 -0.29805017491998631 0
-3.5177023561387323e-05 -0.34238980996586654 0
-3.7377300473761403e-05 -0.40085749405565113 0
-3.9817491774856123e-05 -0.48254683620097877 0
-4.1844553478209527e-05 -0.61003695453485085 0
-4.334369148326644e-05 -0.86870428236705544 0
-3.7026258656113612e-05 -1.621770849987809 0
-1.468365737309295e-05 -2.4909445271291579 0
-2.4049742392615702e-06 -2.6320049762049749 0
-1.6627278878064787e-07 -2.6322574566711405 0
-2.162789971334339e-17 -2.4911907586823121 0
-3.9795852646529505e-06 -0.089821889288361628 0
-4.4907641481091625e-06 -0.098806668277758483 0
-4.9153514762099567e-06 -0.10631928230064591 0
-5.2569472065140066e-06 -0.114132710526473 0
-5.2072254812729465e-06 -0.122411145659273 0
-6.4612859796364118e-06 -0.13131749835891732 0
-7.007752512531839e-06 -0.14105127042121751 0
-7.0575292378511748e-06 -0.15183890840174299 0
-6.9364106120656884e-06 -0.16399616801262332 0
-7.2650143029180392e-06 -0.17793084964978589 0
-8.7998575946974134e-06 -0.19410563636762238 0
-9.6971948520908532e-06 -0.21315663827765291 0
-9.9673159217658744e-06 -0.23597371069133835 0
-1.3672551842252186e-05 -0.26387310684269355 0
-1.4556882748639093e-05 -0.29871102962563262 0
-1.5556018896848619e-05 -0.34317392947445169 0
-1.6835487424932129e-05 -0.40179108298771599 0
-1.6321451506565309e-05 -0.48351643668937605 0
-1.7676511078065588e-05 -0.61076162682306112 0
-1.8474930063648838e-05 -0.86763726333746982 0
-1.5195837568477557e-05 -1.6134420882557308 0
-5.8574433438221499e-06 -2.4865186011350202 0
-9.9468029727382921e-07 -2.6313179282216659 0
-8.4615282363481476e-08 -2.6319180311091528 0
-2.5971023242817791e-17 -2.4925796324314407 0
-1.4527784431580919e-06 -0.089747314145180293 0
-1.5680033088955419e-06 -0.098734791951417863 0
-1.8630112839448635e-06 -0.10624964023242173 0
-2.1055420834454604e-06 -0.11406588900823533 0
-2.1605044002747086e-06 -0.12234884426793151 0
-2.477015161303857e-06 -0.13125930341271205 0
-3.1435405240510978e-06 -0.14099860668714312 0
-3.0478220255459509e-06 -0.15179232797237793 0
-3.3177729278997141e-06 -0.16395886578871902 0
-3.5373365742079037e-06 -0.17790659680265525 0
-3.7223792040213407e-06 -0.19409820275132489 0
-4.3637809119604629e-06 -0.21316830904169465 0
-4.2247079081417949e-06 -0.23601324450246919 0
-4.1521650144792404e-06 -0.26394406450326513 0
-4.4423074434215639e-06 -0.29881254536855006 0
-4.9630541961800998e-06 -0.34330287544876426 0
-5.2385287282229212e-06 -0.40194309466606176 0
-5.7913078198400894e-06 -0.48366713383370696 0
-6.3923702598756895e-06 -0.61083572626730931 0
-6.4162483816784333e-06 -0.86725243195685009 0
-5.2845432191730854e-06 -1.6112136645128265 0
-1.7884373577289224e-06 -2.4851226504396435 0
-3.2468752982740117e-07 -2.6308791602049171 0
-3.6608523146662687e-08 -2.6315613411732 0
-2.4941961723046808e-17 -2.4937719139980237 0
6.7156323935775401e-07 -0.089693657770157031 0
8.765943907315492e-07 -0.098680875905428539 0
9.5911615420805946e-07 -0.10619485583810037 0
9.0739640630731125e-07 -0.11401128170189108 0
1.1099214553755271e-06 -0.12229561974356742 0
9.5251132282861652e-07 -0.13120738010351152 0
9.5629427931015653e-07 -0.14094641185228982 0
1.2674143744778182e-06 -0.1517416386238222 0
9.6156530258349935e-07 -0.16391036045078178 0
1.3081738978995347e-06 -0.1778608525603225 0
7.9745640347448798e-07 -0.19405636082901018 0
8.6351380304026071e-07 -0.21313424114124835 0
5.8969329862562741e-07 -0.23598468293398359 0
6.7064985335707834e-08 -0.26391877614042375 0
1.0441084107820004e-07 -0.29879120163139056 0
5.0672757013938707e-09 -0.34328896725921926 0
-1.0683554493128949e-07 -0.4019309993947936 0
-3.431155512090341e-07 -0.48364897540070317 0
-6.4535297791602615e-08 -0.61079170827604057 0
-3.3423678932074379e-08 -0.86709348821842136 0
-7.0160473343051529e-07 -1.6106682624363495 0
-4.3724639067742594e-07 -2.4847002522940826 0
-8.2038675092260083e-08 -2.6305966484989352 0
-1.3355438979390944e-08 -2.6312749501256039 0
-1.8554205425460686e-17 -2.4946186163611781 0
2.9428002272224119e-06 -0.089664625294752165 0
3.1156612854575068e-06 -0.098651275481582076 0
3.1595112425026712e-06 -0.10616412462591014 0
3.7524989570399982e-06 -0.11398033671949867 0
3.8857099974564471e-06 -0.12226230858347849 0
3.9335551696242034e-06 -0.13117351863697502 0
4.3675394668168056e-06 -0.14091350571985911 0
4.0989423002941571e-06 -0.15170872508630706 0
4.6397547479926509e-06 -0.16387808122759559 0
4.1475555140499564e-06 -0.17782882629798324 0
4.0341861246373926e-06 -0.19402553476170989 0
4.3064719566739067e-06 -0.21310368908135849 0
4.0576439675829084e-06 -0.23595422901228838 0
5.1761626499053478e-06 -0.26389250691614519 0
5.3946582854276021e-06 -0.29876694860421393 0
5.2931089661411503e-06 -0.34325888657938236 0
5.0373532319288238e-06 -0.40190111678999502 0
4.6842512395265987e-06 -0.48361681652555294 0
4.2156483030684381e-06 -0.61074955534937847 0
3.9793076809817172e-06 -0.86702848441936387 0
2.0568237214969698e-06 -1.6105625167474047 0
3.0090081902172788e-07 -2.4845705735780488 0
1.9139930507309726e-08 -2.630435680056324 0
-2.1360951794873152e-09 -2.6310970125743887 0
-9.07835252011322e-18 -2.4951019356932744 0
3.0474724316724714e-06 -0.089654845935637328 0
3.3279513168530381e-06 -0.098640534755062417 0
4.6180351060396926e-06 -0.10615583936436235 0
4.58122450926694e-06 -0.11396944149831816 0
4.5247971538378736e-06 -0.12225240523667603 0
5.0621283391115413e-06 -0.13116338261400437 0
5.6010653085448222e-06 -0.14090285594103502 0
6.3392375240248473e-06 -0.15169756184814806 0
6.3750938830355526e-06 -0.16386709539348135 0
6.6047665739985473e-06 -0.17781798709521809 0
6.4306813351599231e-06 -0.19401491645263644 0
6.3943723900316267e-06 -0.21309338339356224 0
6.1220622980094491e-06 -0.23594637573095173 0
6.3054224994724726e-06 -0.26388492613397357 0
6.4928137979445704e-06 -0.2987575382333027 0
6.6254095576897491e-06 -0.34325297239736646 0
7.0084104126167185e-06 -0.40189395442661069 0
7.2757135062948557e-06 -0.48360393752503439 0
6.6451479931242801e-06 -0.61073697031897056 0
7.5263641320792268e-06 -0.86701060383538697 0
7.1558879679898415e-06 -1.6105502483308234 0
2.063523531545253e-06 -2.4845395806091815 0
9.1270061996801163e-08 -2.6303831976201124 0
3.9834269385377024e-09 -2.631037422410532 0
1.3599629085106338e-18 -2.4952564421588268 0
2.3132711825076499e-06 -0.089662730358726447 0
2.3692913070302067e-06 -0.098648671227775833 0
2.6215140222366801e-06 -0.10616295791066332 0
2.912971106343238e-06 -0.1139791076465787 0
3.2061285259752734e-06 -0.12226226560828861 0
3.6063377684262383e-06 -0.13117360730993033 0
4.4263363178330262e-06 -0.14091402048502003 0
4.51610908952755e-06 -0.15170813183462609 0
4.1327458282262205e-06 -0.16387747859651361 0
4.3038489995126351e-06 -0.17782945730890767 0
4.3941302780013476e-06 -0.19402766807390706 0
4.5205763148395357e-06 -0.21310538987054306 0
3.4378054018507747e-06 -0.2359572709692398 0
3.9118716978579909e-06 -0.2638959168977692 0
4.7952270421803849e-06 -0.29877009264430393 0
5.4446868949934526e-06 -0.34326393517829323 0
5.97573338344399e-06 -0.40190409606655414 0
6.5024713032548229e-06 -0.48361745041793275 0
5.377407437209274e-06 -0.61074934556091076 0
5.2532956357858379e-06 -0.86702727544470037 0
2.9212761074119449e-06 -1.6105568364578025 0
1.0998443344789968e-06 -2.4845682375457856 0
1.0693561972125675e-07 -2.6304355544046376 0
8.8660654133354906e-09 -2.6310970097149009 0
1.1639099856819322e-17 -2.4951019356932744 0
2.0844816856101759e-06 -0.08969330597779257 0
2.6128496401238191e-06 -0.098680164940260481 0
3.0435177031899142e-06 -0.10619488613695453 0
2.8370586564942385e-06 -0.11401137240832596 0
3.6406857530342761e-06 -0.12229450329724155 0
3.9949292923643296e-06 -0.13120644233634962 0
4.6770791315870856e-06 -0.14094633474299664 0
5.3848864868559829e-06 -0.15174164960181097 0
4.5810352410672494e-06 -0.16391077816566674 0
5.2534889128475168e-06 -0.17786144662504733 0
5.3192988986250926e-06 -0.19405737725332256 0
5.5692610052046195e-06 -0.21313391200079748 0
3.2394892672519646e-06 -0.23598519195534706 0
4.0680889246370062e-06 -0.26392322205579394 0
4.9420952983441691e-06 -0.29879693178980171 0
5.7314963026935451e-06 -0.34329110729632589 0
6.5387634439340042e-06 -0.40193389775774629 0
6.9076575262489356e-06 -0.48365018428504236 0
8.1028383866383993e-06 -0.61078958084162438 0
8.2748350587399865e-06 -0.86709043986000234 0
6.2128409256598261e-06 -1.6106585685019217 0
1.5593066155033476e-06 -2.4846970749726398 0
1.8589726587120779e-07 -2.6305964833379747 0
1.9262400595982929e-08 -2.6312749471843278 0
2.0666623734193646e-17 -2.4946186163611785 0
4.6384889001837084e-06 -0.089748132508664633 0
4.9508400640825973e-06 -0.098735716402812437 0
5.3963989143686912e-06 -0.1062506979104255 0
5.9531518039019637e-06 -0.1140677304575706 0
6.3688107711497022e-06 -0.12234956899517803 0
6.4047715676363258e-06 -0.13126121884696174 0
6.79883734336306e-06 -0.14099891269425313 0
7.7792995487708752e-06 -0.15179204060538737 0
7.684219558614619e-06 -0.16395859772132762 0
7.6386041157416322e-06 -0.17790486032652722 0
8.4230318601834508e-06 -0.19409724099299702 0
8.23579642753859e-06 -0.21316719354074912 0
9.2728556479789993e-06 -0.23601297539250771 0
9.8251660096422494e-06 -0.26394202223250146 0
1.0261882698048973e-05 -0.29880988689981908 0
1.1179485499262355e-05 -0.34330042793314619 0
1.1550558701911185e-05 -0.40193964617260686 0
1.2300770219647324e-05 -0.48366318634477606 0
1.3103854805434945e-05 -0.61082987856127779 0
1.3193166129566674e-05 -0.86724478418900108 0
1.0385385109015583e-05 -1.6111998810345529 0
3.1011724808289329e-06 -2.4851192234018389 0
4.5276364106977123e-07 -2.6308790667077804 0
4.3533590818916873e-08 -2.6315613435632375 0
2.642117690017396e-17 -2.4937719139980241 0
7.8472570442597289e-06 -0.089823640335987262 0
8.9148704556514921e-06 -0.098808009397227531 0
9.6329027164814542e-06 -0.10632021576284274 0
1.0251094252352089e-05 -0.11413392083323742 0
1.1213017052721027e-05 -0.12241290541425262 0
1.141468294360205e-05 -0.13131883233041131 0
1.2010500323427553e-05 -0.14105256386906959 0
1.3488992545101721e-05 -0.15183796474337347 0
1.3992275940516458e-05 -0.16399423335042604 0
1.395019472619564e-05 -0.17792793396122794 0
1.5291910329884976e-05 -0.19410244445994615 0
1.5570932757400759e-05 -0.21315105291806374 0
1.7278238977858112e-05 -0.23596767083562256 0
1.8234497245923627e-05 -0.26387017208649438 0
1.928540565821421e-05 -0.29870626390948907 0
2.0425173642608567e-05 -0.34317064176458462 0
2.0770813663257565e-05 -0.40178646096626153 0
2.2262534186023355e-05 -0.48351406982739742 0
2.3459226630570356e-05 -0.61075864075652586 0
2.4316898941623721e-05 -0.86762930132657734 0
2.0205381940965878e-05 -1.6134268908106495 0
7.3163581572855158e-06 -2.4865160104146153 0
1.1633961159003877e-06 -2.6313180662599338 0
9.2941333533587375e-08 -2.6319180466762355 0
2.6810536039964274e-17 -2.4925796324314411 0
1.5347321541487318e-05 -0.089831950225671545 0
1.7065713668861166e-05 -0.0988086249364519 0
1.8398986315154362e-05 -0.10631235385728113 0
1.9912916927889887e-05 -0.11411629685973075 0
2.1028551281555361e-05 -0.12238100962473836 0
2.205301714439904e-05 -0.13126861632077769 0
2.426696146005241e-05 -0.14098102974039134 0
2.6067077219552604e-05 -0.15173854108690235 0
2.7909027984198177e-05 -0.163858241117676 0
2.8813059091579832e-05 -0.17774382959679957 0
2.9892166609831933e-05 -0.19385558620297183 0
3.0760740858972894e-05 -0.212824258608839 0
3.1889914579800909e-05 -0.23554324237874555 0
3.3597082826915713e-05 -0.26333085627079866 0
3.5708584820337737e-05 -0.29804736216649486 0
3.7743854749005171e-05 -0.34238680432837149 0
3.9471460252195732e-05 -0.40085455972323558 0
4.2003504270505003e-05 -0.48254382375224353 0
4.44853490185594e-05 -0.61003072056023633 0
4.672009344619753e-05 -0.86869533007906374 0
4.1576316691910072e-05 -1.6217563998743116 0
1.642416494073226e-05 -2.4909450390535088 0
2.5662023814633132e-06 -2.6320055509449065 0
1.7363778712140984e-07 -2.6322574933398264 0
2.1990104631814605e-17 -2.4911907586823125 0
3.27962716172845e-05 -0.08928366327483768 0
3.6339539486623362e-05 -0.09824237323168665 0
3.8887797369854235e-05 -0.10571934023880884 0
4.1201743207998054e-05 -0.11347898451633719 0
4.3637353513488443e-05 -0.12167851244582914 0
4.5730839865364054e-05 -0.13048207964981182 0
4.7506210146581677e-05 -0.14008645897587754 0
4.9834310267163948e-05 -0.15071127727834938 0
5.1506051883169315e-05 -0.16267133433032849 0
5.3760079644265189e-05 -0.17635292709715672 0
5.606021416544728e-05 -0.19221234767699477 0
5.8502014491800477e-05 -0.21086864420809287 0
6.0651258152514637e-05 -0.233223409240467 0
6.326376380860574e-05 -0.26060097806842131 0
6.6072981759679954e-05 -0.29488441349273842 0
6.8926307740557359e-05 -0.33876332185258057 0
7.1956545356730099e-05 -0.39674454577271517 0
7.5236697705026453e-05 -0.47840435074823023 0
7.9016552367651378e-05 -0.60707740960413936 0
8.3610848863525391e-05 -0.87297411340181585 0
8.0099598784142407e-05 -1.6515931916792252 0
2.9639397586795272e-05 -2.503721954185433 0
3.8918020337679139e-06 -2.6331689354155463 0
2.5307151596940276e-07 -2.6324369971450947 0
1.5216803314070863e-17 -2.489914252767524 0
5.1192418961545734e-05 -0.085796163036640144 0
5.6071324147238028e-05 -0.094265196597004941 0
6.0891492364451358e-05 -0.10125225832472758 0
6.4504608672242536e-05 -0.10865668721761741 0
6.5894477350921082e-05 -0.11655242114034027 0
6.9323973404456432e-05 -0.12507197353690971 0
7.2780454557776623e-05 -0.1343832258382571 0
7.6132569856008649e-05 -0.14467519624393524 0
7.9038043920037784e-05 -0.1562327898234713 0
8.0825846914759879e-05 -0.16941251335827762 0
8.3365728807371873e-05 -0.18467620767265988 0
8.6289361802577671e-05 -0.20264831999222405 0
8.8811227920670293e-05 -0.224210293200269 0
9.2045655822413117e-05 -0.25060624164153483 0
9.5443000599866661e-05 -0.28368660190082035 0
9.9167975134571636e-05 -0.32607954069421619 0
0.00010305644541381186 -0.38225867399111452 0
0.00010732917760789386 -0.46228127321165657 0
0.00011191669594480839 -0.59241955456700268 0
0.00011471863952018522 -0.89202205810196866 0
9.9659721182183351e-05 -1.7649576233715105 0
3.1502088111360721e-05 -2.5375591377086639 0
3.761971982960418e-06 -2.6353981788406302 0
2.4539428234246397e-07 -2.6322764655119255 0
1.0570145868671226e-17 -2.4891291861708611 0
-0 -0 0
-0 -0 0
-0 -0 0
-0 -0 0
-0 -0 0
-0 -0 0
4.9617696595278289e-05 0.080293606382139698 0
6.3325988869542357e-05 0.10650223467826432 0
7.7373108390480665e-05 0.15262680630505299 0
-0 -0 0
-0 -0 0
-0 -0 0
5.745802490661789e-05 0.094866507217808496 0
6.411925306706695e-05 0.11409492136689331 0
7.6304682463779384e-05 0.16109348838257215 0
-0 -0 0
-0 -0 0
-0 -0 0
4.517035567462381e-05 0.097021248415358141 0
5.1777816803011135e-05 0.11614997023331239 0
6.2473075878405348e-05 0.16352808434325958 0
-0 -0 0
-0 -0 0
-0 -0 0
2.4170596914901595e-05 0.098899542796522272 0
2.859897795421534e-05 0.11785553687222702 0
3.5843676912979556e-05 0.16552143832214078 0
-0 -0 0
-0 -0 0
-0 -0 0
8.9344284280777904e-06 0.099147783748396029 0
1.1293316432525641e-05 0.1181896334493979 0
1.5173571647290507e-05 0.16585398201823712 0
-0 -0 0
-0 -0 0
-0 -0 0
3.0798596531257281e-06 0.099090864792614738 0
3.9759847092467018e-06 0.11812373985356228 0
5.6392741028196219e-06 0.16569639416284757 0
-0 -0 0
-0 -0 0
-0 -0 0
3.6994391195670692e-07 0.099015064067196928 0
5.7317971416566267e-07 0.11803425576562777 0
1.061476156488705e-06 0.16554907398702567 0
-0 -0 0
-0 -0 0
-0 -0 0
-2.0475190873754818e-06 0.098966693837625089 0
-2.300835040623762e-06 0.11797649211235782 0
-2.5833120392673169e-06 0.16546085856773135 0
-0 -0 0
-0 -0 0
-0 -0 0
-3.4775559843973207e-06 0.098944341406904571 0
-4.0552606472892592e-06 0.11794980755946666 0
-4.8103355153883829e-06 0.1654214065867754 0
-0 -0 0
-0 -0 0
-0 -0 0
-2.9578256482974464e-06 0.098943724724868218 0
-3.5515248124196773e-06 0.11794961512904091 0
-4.3651221228568258e-06 0.16542159538312889 0
-0 -0 0
-0 -0 0
-0 -0 0
-2.5214842360503082e-06 0.098966304576707242 0
-3.2085240752857093e-06 0.11797643214596797 0
-4.0650449620963554e-06 0.16546107431318041 0
-0 -0 0
-0 -0 0
-0 -0 0
-4.27038592397589e-06 0.099015673157169498 0
-5.307562085403298e-06 0.11803466702807533 0
-6.6603470542403484e-06 0.165548632730871 0
-0 -0 0
-0 -0 0
-0 -0 0
-7.2044103345111891e-06 0.099091792649973032 0
-8.7393369025376539e-06 0.11812425489739102 0
-1.1098935745887058e-05 0.16569514512550454 0
-0 -0 0
-0 -0 0
-0 -0 0
-1.311957587790473e-05 0.099148201712188064 0
-1.5946127678849765e-05 0.11818943058001062 0
-2.0255986432728437e-05 0.16585240624817016 0
-0 -0 0
-0 -0 0
-0 -0 0
-2.6911159367694724e-05 0.098898126247428622 0
-3.1405584790342759e-05 0.11785395250135035 0
-3.8562996912213487e-05 0.16551953812748732 0
-0 -0 0
-0 -0 0
-0 -0 0
-4.4723572098663709e-05 0.097019142548595491 0
-5.0971676134928404e-05 0.11614832028280389 0
-6.0856521826360586e-05 0.16352659327789598 0
-0 -0 0
-0 -0 0
-0 -0 0
-5.4974527802776811e-05 0.094864767004737408 0
-6.129874459856947e-05 0.11409316603743197 0
-7.2298515371144257e-05 0.1610912291918136 0
-0 -0 0
-0 -0 0
-0 -0 0
-4.7506467752789398e-05 0.080289922694807198 0
-6.0408974301036952e-05 0.1064997263280717 0
-7.3186236198770829e-05 0.15262193043105859 0
-0 -0 0
-0 -0 0
-0 -0 0
-0 -0 0
-0 -0 0
-0 -0 0
-0 -0 0
-0 -0 0
-0 -0 0
-0 -0 0
-0 -0 0
-0 -0 0
-0 -0 0
-0 -0 0
-0 -0 0
-0 -0 0
-0 -0 0
-0 -0 0
-0 -0 0
-0 -0 0
-0 -0 0
-0 -0 0
-0 -0 0
-0 -0 0
-0 -0 0
-0 -0 0
-0 -0 0
-0 -0 0
-0 -0 0
-0 -0 0
-0 -0 0
-0 -0 0
-0 -0 0
-0 -0 0
-0 -0 0
-0 -0 0
-0 -0 0
-0 -0 0
-0 -0 0
-0 -0 0
-0 -0 0
-0 -0 0
-0 -0 0
-0 -0 0
-0 -0 0
-0 -0 0
-0 -0 0
-0 -0 0
-0 -0 0
-0 -0 0
-0 -0 0
-0 -0 0
-0 -0 0
-0 -0 0
-0 -0 0
-0 -0 0
-0 -0 0
-0 -0 0
-0 -0 0
-0 -0 0
-0 -0 0
-0 -0 0
-0 -0 0
-0 -0 0
-0 -0 0
-0 -0 0
-0 -0 0
-0 -0 0
-0 -0 0
-0 -0 0
-0 -0 0
-0 -0 0
-0 -0 0
-0 -0 0
-0 -0 0
-0 -0 0
-0 -0 0
-0 -0 0
-0 -0 0
-0 -0 0
-0 -0 0
-0 -0 0
-0 -0 0
-0 -0 0
-0 -0 0
-0 -0 0
-0 -0 0
-0 -0 0
-0 -0 0
-0 -0 0
-0 -0 0
-0 -0 0
-0 -0 0
-0 -0 0
-0 -0 0
-0 -0 0
-0 -0 0
-0 -0 0
-0 -0 0
-0 -0 0
-0 -0 0
-0 -0 0
-0 -0 0
-0 -0 0
-0 -0 0
-0 -0 0
-0 -0 0
-0 -0 0
-0 -0 0
-0 -0 0
-0 -0 0
-0 -0 0
-0 -0 0
-0 -0 0
-0 -0 0
-0 -0 0
-0 -0 0
-0 -0 0
-0 -0 0
-0 -0 0
-0 -0 0
-0 -0 0
-0 -0 0
-0 -0 0
-0 -0 0
-0 -0 0
-0 -0 0
-0 -0 0
-0 -0 0
-0 -0 0
-0 -0 0
-0 -0 0
-0 -0 0
-0 -0 0
-0 -0 0
-0 -0 0
-0 -0 0
-0 -0 0
-0 -0 0
-0 -0 0
-0 -0 0
-0 -0 0
-0 -0 0
-0 -0 0
-0 -0 0
-0 -0 0
-0 -0 0
-0 -0 0
-0 -0 0
-0 -0 0
-0 -0 0
-0 -0 0
-0 -0 0
-0 -0 0
-0 -0 0
-0 -0 0
-0 -0 0
-0 -0 0
-0 -0 0
-0 -0 0
-0 -0 0
-0 -0 0
-0 -0 0
-0 -0 0
-0 -0 0
-0 -0 0
-0 -0 0
-0 -0 0
-0 -0 0
-0 -0 0
-0 -0 0
-0 -0 0
-0 -0 0
-0 -0 0
-0 -0 0
-0 -0 0
-0 -0 0
-0 -0 0
-0 -0 0
-0 -0 0
-0 -0 0
-0 -0 0
-0 -0 0
-0 -0 0
-0 -0 0
-0 -0 0
-0 -0 0
-0 -0 0
-0 -0 0
-0 -0 0
-0 -0 0
-0 -0 0
-0 -0 0
-0 -0 0
-0 -0 0
