# vtk DataFile Version 3.0
SPH particles (WCSPH) - legacy PolyData
ASCII
DATASET POLYDATA
POINTS 681 float
0.049995855032803765 0.031335541788371765 0
0.049995059373041897 0.034553563967107362 0
0.049994429597240493 0.037138459547325711 0
0.049993846237682361 0.039768394267941959 0
0.049993362934513404 0.042433978394289473 0
0.049992957629807593 0.045147462320760792 0
0.049992623777029767 0.047939371122381468 0
0.049992187177428447 0.050853552339053261 0
0.049991555725114996 0.053948531511178253 0
0.049990573816840182 0.057304327806525578 0
0.049988835699944771 0.061034145130772002 0
0.049986693729466701 0.065312545875388081 0
0.04998613141384322 0.070463162285028719 0
0.049988079708648575 0.077291159367445836 0
0.049991777523890613 0.08814945128938742 0
0.049996099821085979 0.1049547212482539 0
0.049998936509731459 0.12453385428379934 0
0.049999844904975832 0.14465379984238697 0
0.049999981909880573 0.16500524550112758 0
0.049999997924290496 0.18568194517245698 0
0.049999999778460945 0.2069021633624589 0
0.049999999978899673 0.22901479844637693 0
0.049999999998352161 0.25259755551423724 0
0.049999999999912226 0.27888268765850355 0
0.050000000000000003 0.32637706865740951 0
0.069998037158121793 0.030080500550045214 0
0.069997613551116403 0.033638836161212153 0
0.069997244113107135 0.036539120919735983 0
0.069996934706499009 0.039420687466644976 0
0.069996641455098346 0.042294528050917261 0
0.069996338588702536 0.04518820038443478 0
0.069996041240463547 0.048143461028339239 0
0.069995715615518372 0.05121310093903398 0
0.069995351458532362 0.054461962852733435 0
0.069994708237688427 0.057974833897972505 0
0.069993321996024344 0.061868402955099724 0
0.069991017848389819 0.066319581098798319 0
0.069989772899723399 0.071642070343672162 0
0.069990578918857807 0.078530848098382858 0
0.069992963691940371 0.088944252986291453 0
0.069996310082094157 0.10513835532555421 0
0.069998948555996338 0.12456153945301293 0
0.069999843637296028 0.14467264027465038 0
0.069999982132082375 0.16503905715091921 0
0.069999997844952255 0.18574603336400089 0
0.069999999759511822 0.20701838166991884 0
0.069999999976422603 0.22921171514676611 0
0.069999999998113585 0.25288879733515995 0
0.069999999999896118 0.27921391734192547 0
0.070000000000000007 0.32551111396952059 0
0.089999347750605807 0.030060744676276344 0
0.089999172781686287 0.033629349393097828 0
0.089999060149864724 0.036540487176675136 0
0.089998888967839141 0.039438188802262464 0
0.089998712466593328 0.042332628885343018 0
0.089998505484456606 0.045250809141680927 0
0.089998212212808418 0.048234882510127863 0
0.089998097433173677 0.051337997946802043 0
0.08999796894108307 0.054625689735880723 0
0.089997808078373126 0.058183393624469178 0
0.089997651152923644 0.062127675679041913 0
0.08999712210390616 0.066633846118768589 0
0.089996513155572125 0.072009832046027303 0
0.08999650812408963 0.078925874052170775 0
0.089997419589490493 0.089239971454249459 0
0.089998645908717215 0.10522535799962573 0
0.089999557379230877 0.12457783697239107 0
0.089999910791624893 0.14468505811995849 0
0.08999998811576955 0.16506395755478467 0
0.089999998479023832 0.18579587359155664 0
0.089999999815974174 0.20710728400707168 0
0.089999999980920883 0.22935544277765216 0
0.089999999998408686 0.25308737621716548 0
0.089999999999909042 0.27943483192468843 0
0.090000000000000011 0.32507039350570321 0
0.10999979452012634 0.030084354989589335 0
0.10999967591885984 0.033656349307877836 0
0.10999960295961506 0.036570864600451988 0
0.10999950203421925 0.039472662686829259 0
0.10999941904211528 0.042371938838823391 0
0.10999949284970213 0.045295939229783727 0
0.10999952082568613 0.048286867996599731 0
0.10999950530133928 0.051398049431389196 0
0.10999948954919549 0.054695253746109639 0
0.10999949154909303 0.058264200073325501 0
0.1099994045612578 0.062221508658019696 0
0.10999972189114603 0.066742312769283038 0
0.10999928845468307 0.072132871448508357 0
0.10999898532882339 0.079056596800043677 0
0.10999920559544844 0.089341636268756922 0
0.10999956984008047 0.10526056061263286 0
0.10999984580442745 0.12458729699530645 0
0.1099999639732743 0.14469434586030194 0
0.10999999410795211 0.16508204916271021 0
0.10999999915069876 0.18582908962928996 0
0.10999999988812484 0.20716291521489022 0
0.10999999998758195 0.22943972167423984 0
0.10999999999890621 0.25319848981215032 0
0.10999999999993471 0.27956208818449968 0
0.11000000000000001 0.32483186611927006 0
0.12999994766830353 0.030095412623955327 0
0.12999993368550286 0.033669745253013715 0
0.12999993259797585 0.036586118549121895 0
0.12999992972403457 0.039489823946279423 0
0.1300000060584133 0.042391099683926112 0
0.13000008124625628 0.045317206198355733 0
0.13000015979844337 0.048310602934140856 0
0.13000023174427047 0.051424439057596631 0
0.13000032420097438 0.054724711149988142 0
0.13000046705451229 0.058297162131253563 0
0.13000058511486351 0.062258418764781533 0
0.13000048750257245 0.066783431002099131 0
0.13000024075848948 0.072178240258153309 0
0.13000006435782294 0.079103617903452605 0
0.12999991823066986 0.089378191701007151 0
0.1299998843701646 0.10527430588396273 0
0.12999995165405487 0.12459233771700753 0
0.12999998777181015 0.1447005637486416 0
0.12999999767490039 0.16509367323486465 0
0.12999999961509998 0.18584895527220235 0
0.12999999994421146 0.20719452491614265 0
0.12999999999330547 0.22948575918148234 0
0.12999999999937173 0.25325759453142876 0
0.12999999999996062 0.27962952972597971 0
0.13 0.32471593647078195 0
0.150000082383029 0.030099771265774091 0
0.15000010858726401 0.033675171520924314 0
0.15000014217081228 0.036592381053189849 0
0.15000018559179873 0.039496947463966856 0
0.15000033256391895 0.042399087683896157 0
0.1500003404599522 0.045326028314506051 0
0.15000034519306155 0.048320338244025589 0
0.15000035834998374 0.051435216978713047 0
0.15000042827656695 0.054736626122925756 0
0.15000049834821549 0.058310351361330233 0
0.15000058761973606 0.062273009642918091 0
0.1500004704843389 0.0667993701804354 0
0.15000045715851035 0.072195572319523268 0
0.15000031075209874 0.079121250250840311 0
0.15000012186136472 0.089391685985905925 0
0.15000001078536149 0.10527966302916715 0
0.14999999343825399 0.12459491240453012 0
0.14999999717537568 0.14470418647881739 0
0.14999999930387325 0.16510025314241511 0
0.14999999986352092 0.18585985623121312 0
0.14999999997756389 0.20721121055751252 0
0.14999999999704192 0.22950921950445916 0
0.1499999999997014 0.25328696493427816 0
0.14999999999998018 0.27966242975801381 0
0.15000000000000002 0.32466534205984676 0
0.17000011897544995 0.030101438568191141 0
0.1700001664569632 0.03367722857065758 0
0.17000019806162917 0.036594797503706047 0
0.17000024846829645 0.039499644462875384 0
0.17000031102337976 0.042402025762883155 0
0.17000042318755287 0.045329342344664354 0
0.17000058379875641 0.048324058038406587 0
0.17000063215779063 0.051439299837780186 0
0.17000067590869178 0.054741117338356286 0
0.17000071613439818 0.058315277050746767 0
0.1700007234906101 0.062278424845726446 0
0.17000062678005504 0.066805334126719407 0
0.17000061784750287 0.072202021881655323 0
0.17000056266306487 0.079127645766625662 0
0.17000013476900511 0.089396587528759272 0
0.17000004095305596 0.1052816914801443 0
0.17000000652180336 0.12459610126519503 0
0.17000000014919389 0.14470599324401567 0
0.16999999990391196 0.16510344973780075 0
0.1699999999694301 0.18586506830016683 0
0.16999999999379736 0.20721900030683635 0
0.16999999999907167 0.22951985180847748 0
0.16999999999989807 0.25329999580289841 0
0.16999999999999296 0.2796767265987733 0
0.17000000000000004 0.32464590932983017 0
0.19000004375682475 0.030101923821151094 0
0.19000005453918128 0.0336777887966246 0
0.19000008069936394 0.036595394150224635 0
0.19000008835746682 0.039500293261547449 0
0.19000015204945137 0.042402744720588574 0
0.19000027674156364 0.045330211351207565 0
0.1900003926630684 0.048324960668408627 0
0.19000039319494647 0.051440288339706895 0
0.19000045034392313 0.054742244448932449 0
0.19000047577347962 0.058316570820197276 0
0.19000032465971764 0.062279873678392821 0
0.19000039503753777 0.066807065588015857 0
0.19000020090487169 0.07220375237469201 0
0.19000010208318682 0.079129477859514116 0
0.19000007043986536 0.089397988347304058 0
0.18999998010779523 0.10528222981031159 0
0.18999999576736268 0.12459641155094744 0
0.19000000021550367 0.14470652676122944 0
0.19000000006973206 0.16510438933818788 0
0.19000000001255488 0.185866586596522 0
0.19000000000179681 0.20722123958487346 0
0.19000000000020978 0.22952285666148575 0
0.19000000000001921 0.25330363204007644 0
0.19000000000000106 0.27968066206138786 0
0.19 0.32464103040908898 0
0.21000013880974208 0.030101463011931572 0
0.21000018510206075 0.033677261586435032 0
0.21000022281146108 0.036594805089678738 0
0.21000026268864133 0.039499655385929422 0
0.21000035233344175 0.042402075447303483 0
0.21000035019638613 0.045329391457117202 0
0.21000042342433892 0.048324073924154734 0
0.21000042803339242 0.051439336817859331 0
0.21000045332877568 0.054741181685830559 0
0.21000043804176696 0.0583153959211564 0
0.21000039729665684 0.062278587219688583 0
0.2100003309123335 0.066805564048814173 0
0.21000015944926143 0.072202227028716134 0
0.2099999848093432 0.079127883446709485 0
0.20999998470971565 0.089396817025668929 0
0.20999996970848103 0.1052817430094958 0
0.20999999244691528 0.12459607482379567 0
0.21000000034125665 0.14470598861881123 0
0.2100000002555221 0.16510344932134288 0
0.21000000005702607 0.18586506825938898 0
0.21000000000988736 0.20721900030246779 0
0.21000000000135252 0.22951985180804632 0
0.21000000000014096 0.25329999580286311 0
0.21000000000000946 0.27967672659877113 0
0.21000000000000002 0.32464590932983017 0
0.23000014236402119 0.030099847613207446 0
0.23000017146156276 0.033675235657130979 0
0.23000021237837404 0.036592476021358268 0
0.23000026043494587 0.039496971403029595 0
0.23000032555213706 0.042399127544555951 0
0.2300003703387388 0.045326088004305133 0
0.23000043758934616 0.04832040254014118 0
0.23000046482355546 0.051435262743684443 0
0.23000053622793815 0.054736680656556173 0
0.23000058201710855 0.058310397012439674 0
0.23000056220146031 0.062273077193096271 0
0.23000038775388995 0.066799592095338256 0
0.23000023855448526 0.072195848814040162 0
0.23000010353587419 0.079121388650970348 0
0.2300000760344571 0.089391712862995049 0
0.23000003075870409 0.1052796216554361 0
0.23000001278808857 0.12459489119552085 0
0.23000000403138773 0.14470418138956334 0
0.23000000087930161 0.16510025243521345 0
0.23000000016344535 0.1858598561388683 0
0.23000000002603957 0.20721121054649388 0
0.23000000000336318 0.22950921950333655 0
0.23000000000033488 0.25328696493418584 0
0.23000000000002202 0.27966242975800892 0
0.23000000000000004 0.32466534205984682 0
0.25000019371801485 0.030095465511725376 0
0.25000025541437221 0.033669808769622736 0
0.25000029580135064 0.036586218734297619 0
0.2500003724679925 0.039489968867550393 0
0.25000042585989268 0.042391233447632813 0
0.25000047440157869 0.045317338494352141 0
0.25000047658364349 0.048310730546675756 0
0.25000056351905048 0.051424570487858381 0
0.25000061573808807 0.054724844945537497 0
0.25000068555303251 0.058297277912508529 0
0.25000068398000036 0.062258570803087575 0
0.25000056539285148 0.066783573994602025 0
0.25000034806960941 0.072178528460597108 0
0.2500004214370341 0.07910358594726824 0
0.25000023619277706 0.089378031553202966 0
0.25000013691357503 0.10527419503961441 0
0.25000005215286814 0.12459230656928869 0
0.25000001323668614 0.14470055732158413 0
0.25000000247673587 0.1650936721827948 0
0.25000000040592452 0.18584895512348784 0
0.25000000005851652 0.20719452489749188 0
0.25000000000699751 0.22948575917953462 0
0.25000000000065509 0.25325759453126717 0
0.2500000000000408 0.27962952972597038 0
0.25000000000000006 0.32471593647078195 0
0.27000027090293738 0.030084392612266364 0
0.27000034393801026 0.03365638545030393 0
0.27000040089717903 0.03657090802853441 0
0.27000048209557992 0.039472743987194303 0
0.27000068921731557 0.04237212699158515 0
0.27000078029909147 0.045296108241398417 0
0.27000086796131956 0.048287132622643704 0
0.27000097729944489 0.051398284796391691 0
0.27000111428063006 0.054695487697824619 0
0.27000121179739245 0.058264410424272127 0
0.27000130332242728 0.062221709302456886 0
0.27000126369304867 0.06674240472585706 0
0.27000151625356644 0.07213305226737711 0
0.27000128827574615 0.079056678935895228 0
0.27000091739839344 0.089341602447170973 0
0.27000046068391703 0.10526049095658623 0
0.27000016009345273 0.12458726931552054 0
0.27000003671274531 0.14469433874857399 0
0.27000000595482876 0.16508204791908948 0
0.27000000085602621 0.18582908944744833 0
0.27000000011269182 0.20716291519134078 0
0.27000000001251506 0.22943972167171589 0
0.27000000000110297 0.25319848981193682 0
0.27000000000006563 0.2795620881844873 0
0.27000000000000002 0.32483186611927006 0
0.29000072688832673 0.030060880956492911 0
0.29000091801114175 0.033629474466501851 0
0.2900010695511035 0.036540636128315124 0
0.29000122564911435 0.039438373763102635 0
0.29000138651632912 0.042332763750057165 0
0.29000157687277844 0.045250959707814481 0
0.2900017504625183 0.048235189249386468 0
0.29000193942357566 0.051338350824085499 0
0.29000219830494328 0.054626041242835682 0
0.29000251025416857 0.058183732259688793 0
0.29000289252354977 0.062127999181359937 0
0.29000327995976688 0.066634123685804833 0
0.29000368734117338 0.072010056212070073 0
0.29000352597884732 0.078926103775024473 0
0.29000259967090325 0.089239978243820892 0
0.29000136861526493 0.10522528155742626 0
0.29000044578336487 0.12457780424618946 0
0.29000008907029701 0.14468505018647596 0
0.29000001179599139 0.1650639563044016 0
0.29000000150672095 0.18579587341051204 0
0.29000000018228461 0.20710728398316611 0
0.2900000000189169 0.22935544277503214 0
0.29000000000157994 0.25308737621693933 0
0.29000000000009024 0.27943483192467544 0
0.29000000000000004 0.32507039350570316 0
0.31000206296903382 0.030080661027250849 0
0.31000250416440439 0.03363901714821603 0
0.31000282737905849 0.036539284615493502 0
0.31000313640291238 0.039420912805576101 0
0.31000344205385499 0.042294743258666161 0
0.31000376885078595 0.045188379828676038 0
0.31000410637807568 0.048143782549351789 0
0.31000442889077295 0.051213434131363693 0
0.31000485653711596 0.054462260497190156 0
0.31000549249367521 0.057975084330831442 0
0.31000695235141584 0.061868628192171128 0
0.31000925524906475 0.066319808191099811 0
0.31001033231141467 0.071642319669611168 0
0.31000933637725903 0.078531037175342044 0
0.31000695141157136 0.088944170579922419 0
0.31000365269066776 0.10513823310023093 0
0.31000103915339466 0.12456150155670073 0
0.3100001544135732 0.14467263274749148 0
0.31000001760456558 0.16503905605495925 0
0.31000000212057938 0.18574603320586119 0
0.31000000023659385 0.20701838164920741 0
0.31000000002321093 0.22921171514447311 0
0.31000000000185951 0.252888797334959 0
0.31000000000010236 0.27921391734191364 0
0.31000000000000005 0.32551111396952059 0
0.33000399472073355 0.031335801431078066 0
0.33000475357884212 0.03455381890118147 0
0.33000534960955497 0.037138705261923352 0
0.33000588955638555 0.039768619603366862 0
0.33000633129978679 0.042434168417846044 0
0.33000671072833737 0.045147612819906063 0
0.33000707949671176 0.047939486796728825 0
0.33000749634848375 0.05085364052587666 0
0.33000799844257728 0.053948567620123546 0
0.33000881930520581 0.057304313186518803 0
0.33001044950434838 0.061034044850179756 0
0.33001263537725467 0.065312398086795398 0
0.3300131872366236 0.070462940427992296 0
0.33001128266071383 0.077290847080983688 0
0.33000788151719973 0.088149106260843976 0
0.33000382151709284 0.10495456585175911 0
0.33000104740486186 0.12453382382562095 0
0.33000015249439041 0.14465379465571471 0
0.33000001777047888 0.16500524471061431 0
0.33000000203734386 0.18568194505714519 0
0.33000000021740161 0.20690216334747397 0
0.33000000002071683 0.2290147984447122 0
0.33000000000161933 0.2525975555140913 0
0.33000000000008617 0.27888268765849522 0
0.33000000000000002 0.32637706865740945 0
0 0 0
0 0.020000000000000004 0
0 0.040000000000000001 0
0 0.54999999999999993 0
0 0.56000000000000005 0
0 0.58000000000000007 0
0.02 0 0
0.02 0.020000000000000004 0
0.02 0.040000000000000001 0
0.02 0.54999999999999993 0
0.02 0.56000000000000005 0
0.02 0.58000000000000007 0
0.040000000000000001 0 0
0.040000000000000001 0.020000000000000004 0
0.040000000000000001 0.040000000000000001 0
0.040000000000000001 0.54999999999999993 0
0.040000000000000001 0.56000000000000005 0
0.040000000000000001 0.58000000000000007 0
0.059999999999999998 0 0
0.059999999999999998 0.020000000000000004 0
0.059999999999999998 0.040000000000000001 0
0.059999999999999998 0.54999999999999993 0
0.059999999999999998 0.56000000000000005 0
0.059999999999999998 0.58000000000000007 0
0.080000000000000002 0 0
0.080000000000000002 0.020000000000000004 0
0.080000000000000002 0.040000000000000001 0
0.080000000000000002 0.54999999999999993 0
0.080000000000000002 0.56000000000000005 0
0.080000000000000002 0.58000000000000007 0
0.10000000000000001 0 0
0.10000000000000001 0.020000000000000004 0
0.10000000000000001 0.040000000000000001 0
0.10000000000000001 0.54999999999999993 0
0.10000000000000001 0.56000000000000005 0
0.10000000000000001 0.58000000000000007 0
0.12 0 0
0.12 0.020000000000000004 0
0.12 0.040000000000000001 0
0.12 0.54999999999999993 0
0.12 0.56000000000000005 0
0.12 0.58000000000000007 0
0.14000000000000001 0 0
0.14000000000000001 0.020000000000000004 0
0.14000000000000001 0.040000000000000001 0
0.14000000000000001 0.54999999999999993 0
0.14000000000000001 0.56000000000000005 0
0.14000000000000001 0.58000000000000007 0
0.16 0 0
0.16 0.020000000000000004 0
0.16 0.040000000000000001 0
0.16 0.54999999999999993 0
0.16 0.56000000000000005 0
0.16 0.58000000000000007 0
0.17999999999999999 0 0
0.17999999999999999 0.020000000000000004 0
0.17999999999999999 0.040000000000000001 0
0.17999999999999999 0.54999999999999993 0
0.17999999999999999 0.56000000000000005 0
0.17999999999999999 0.58000000000000007 0
0.20000000000000001 0 0
0.20000000000000001 0.020000000000000004 0
0.20000000000000001 0.040000000000000001 0
0.20000000000000001 0.54999999999999993 0
0.20000000000000001 0.56000000000000005 0
0.20000000000000001 0.58000000000000007 0
0.22 0 0
0.22 0.020000000000000004 0
0.22 0.040000000000000001 0
0.22 0.54999999999999993 0
0.22 0.56000000000000005 0
0.22 0.58000000000000007 0
0.23999999999999999 0 0
0.23999999999999999 0.020000000000000004 0
0.23999999999999999 0.040000000000000001 0
0.23999999999999999 0.54999999999999993 0
0.23999999999999999 0.56000000000000005 0
0.23999999999999999 0.58000000000000007 0
0.26000000000000001 0 0
0.26000000000000001 0.020000000000000004 0
0.26000000000000001 0.040000000000000001 0
0.26000000000000001 0.54999999999999993 0
0.26000000000000001 0.56000000000000005 0
0.26000000000000001 0.58000000000000007 0
0.28000000000000003 0 0
0.28000000000000003 0.020000000000000004 0
0.28000000000000003 0.040000000000000001 0
0.28000000000000003 0.54999999999999993 0
0.28000000000000003 0.56000000000000005 0
0.28000000000000003 0.58000000000000007 0
0.29999999999999999 0 0
0.29999999999999999 0.020000000000000004 0
0.29999999999999999 0.040000000000000001 0
0.29999999999999999 0.54999999999999993 0
0.29999999999999999 0.56000000000000005 0
0.29999999999999999 0.58000000000000007 0
0.32000000000000001 0 0
0.32000000000000001 0.020000000000000004 0
0.32000000000000001 0.040000000000000001 0
0.32000000000000001 0.54999999999999993 0
0.32000000000000001 0.56000000000000005 0
0.32000000000000001 0.58000000000000007 0
0.34000000000000002 0 0
0.34000000000000002 0.020000000000000004 0
0.34000000000000002 0.040000000000000001 0
0.34000000000000002 0.54999999999999993 0
0.34000000000000002 0.56000000000000005 0
0.34000000000000002 0.58000000000000007 0
0.35999999999999999 0 0
0.35999999999999999 0.020000000000000004 0
0.35999999999999999 0.040000000000000001 0
0.35999999999999999 0.54999999999999993 0
0.35999999999999999 0.56000000000000005 0
0.35999999999999999 0.58000000000000007 0
0.38 0 0
0.38 0.020000000000000004 0
0.38 0.040000000000000001 0
0.38 0.54999999999999993 0
0.38 0.56000000000000005 0
0.38 0.58000000000000007 0
0.40000000000000002 0 0
0.40000000000000002 0.020000000000000004 0
0.40000000000000002 0.040000000000000001 0
0.40000000000000002 0.54999999999999993 0
0.40000000000000002 0.56000000000000005 0
0.40000000000000002 0.58000000000000007 0
0.41999999999999998 0 0
0.41999999999999998 0.020000000000000004 0
0.41999999999999998 0.040000000000000001 0
0.41999999999999998 0.54999999999999993 0
0.41999999999999998 0.56000000000000005 0
0.41999999999999998 0.58000000000000007 0
0.44 0 0
0.44 0.020000000000000004 0
0.44 0.040000000000000001 0
0.44 0.54999999999999993 0
0.44 0.56000000000000005 0
0.44 0.58000000000000007 0
0.46000000000000002 0 0
0.46000000000000002 0.020000000000000004 0
0.46000000000000002 0.040000000000000001 0
0.46000000000000002 0.54999999999999993 0
0.46000000000000002 0.56000000000000005 0
0.46000000000000002 0.58000000000000007 0
0.47999999999999998 0 0
0.47999999999999998 0.020000000000000004 0
0.47999999999999998 0.040000000000000001 0
0.47999999999999998 0.54999999999999993 0
0.47999999999999998 0.56000000000000005 0
0.47999999999999998 0.58000000000000007 0
0.5 0 0
0.5 0.020000000000000004 0
0.5 0.040000000000000001 0
0.5 0.54999999999999993 0
0.5 0.56000000000000005 0
0.5 0.58000000000000007 0
0.52000000000000002 0 0
0.52000000000000002 0.020000000000000004 0
0.52000000000000002 0.040000000000000001 0
0.52000000000000002 0.54999999999999993 0
0.52000000000000002 0.56000000000000005 0
0.52000000000000002 0.58000000000000007 0
0.54000000000000004 0 0
0.54000000000000004 0.020000000000000004 0
0.54000000000000004 0.040000000000000001 0
0.54000000000000004 0.54999999999999993 0
0.54000000000000004 0.56000000000000005 0
0.54000000000000004 0.58000000000000007 0
0.56000000000000005 0 0
0.56000000000000005 0.020000000000000004 0
0.56000000000000005 0.040000000000000001 0
0.56000000000000005 0.54999999999999993 0
0.56000000000000005 0.56000000000000005 0
0.56000000000000005 0.58000000000000007 0
0.57999999999999996 0 0
0.57999999999999996 0.020000000000000004 0
0.57999999999999996 0.040000000000000001 0
0.57999999999999996 0.54999999999999993 0
0.57999999999999996 0.56000000000000005 0
0.57999999999999996 0.58000000000000007 0
0.59999999999999998 0 0
0.59999999999999998 0.020000000000000004 0
0.59999999999999998 0.040000000000000001 0
0.59999999999999998 0.54999999999999993 0
0.59999999999999998 0.56000000000000005 0
0.59999999999999998 0.58000000000000007 0
0.62 0 0
0.62 0.020000000000000004 0
0.62 0.040000000000000001 0
0.62 0.54999999999999993 0
0.62 0.56000000000000005 0
0.62 0.58000000000000007 0
0.64000000000000001 0 0
0.64000000000000001 0.020000000000000004 0
0.64000000000000001 0.040000000000000001 0
0.64000000000000001 0.54999999999999993 0
0.64000000000000001 0.56000000000000005 0
0.64000000000000001 0.58000000000000007 0
0.66000000000000003 0 0
0.66000000000000003 0.020000000000000004 0
0.66000000000000003 0.040000000000000001 0
0.66000000000000003 0.54999999999999993 0
0.66000000000000003 0.56000000000000005 0
0.66000000000000003 0.58000000000000007 0
0.68000000000000005 0 0
0.68000000000000005 0.020000000000000004 0
0.68000000000000005 0.040000000000000001 0
0.68000000000000005 0.54999999999999993 0
0.68000000000000005 0.56000000000000005 0
0.68000000000000005 0.58000000000000007 0
0.70000000000000007 0 0
0.70000000000000007 0.020000000000000004 0
0.70000000000000007 0.040000000000000001 0
0.70000000000000007 0.54999999999999993 0
0.70000000000000007 0.56000000000000005 0
0.70000000000000007 0.58000000000000007 0
0.71999999999999997 0 0
0.71999999999999997 0.020000000000000004 0
0.71999999999999997 0.040000000000000001 0
0.71999999999999997 0.54999999999999993 0
0.71999999999999997 0.56000000000000005 0
0.71999999999999997 0.58000000000000007 0
0.73999999999999999 0 0
0.73999999999999999 0.020000000000000004 0
0.73999999999999999 0.040000000000000001 0
0.73999999999999999 0.54999999999999993 0
0.73999999999999999 0.56000000000000005 0
0.73999999999999999 0.58000000000000007 0
0.76000000000000001 0 0
0.76000000000000001 0.020000000000000004 0
0.76000000000000001 0.040000000000000001 0
0.76000000000000001 0.54999999999999993 0
0.76000000000000001 0.56000000000000005 0
0.76000000000000001 0.58000000000000007 0
0.78000000000000003 0 0
0.78000000000000003 0.020000000000000004 0
0.78000000000000003 0.040000000000000001 0
0.78000000000000003 0.54999999999999993 0
0.78000000000000003 0.56000000000000005 0
0.78000000000000003 0.58000000000000007 0
0.80000000000000004 0 0
0.80000000000000004 0.020000000000000004 0
0.80000000000000004 0.040000000000000001 0
0.80000000000000004 0.54999999999999993 0
0.80000000000000004 0.56000000000000005 0
0.80000000000000004 0.58000000000000007 0
0.82000000000000006 0 0
0.82000000000000006 0.020000000000000004 0
0.82000000000000006 0.040000000000000001 0
0.82000000000000006 0.54999999999999993 0
0.82000000000000006 0.56000000000000005 0
0.82000000000000006 0.58000000000000007 0
0.83999999999999997 0 0
0.83999999999999997 0.020000000000000004 0
0.83999999999999997 0.040000000000000001 0
0.83999999999999997 0.54999999999999993 0
0.83999999999999997 0.56000000000000005 0
0.83999999999999997 0.58000000000000007 0
0.85999999999999999 0 0
0.85999999999999999 0.020000000000000004 0
0.85999999999999999 0.040000000000000001 0
0.85999999999999999 0.54999999999999993 0
0.85999999999999999 0.56000000000000005 0
0.85999999999999999 0.58000000000000007 0
0.88 0 0
0.88 0.020000000000000004 0
0.88 0.040000000000000001 0
0.88 0.54999999999999993 0
0.88 0.56000000000000005 0
0.88 0.58000000000000007 0
0.90000000000000002 0 0
0.90000000000000002 0.020000000000000004 0
0.90000000000000002 0.040000000000000001 0
0.90000000000000002 0.54999999999999993 0
0.90000000000000002 0.56000000000000005 0
0.90000000000000002 0.58000000000000007 0
0.92000000000000004 0 0
0.92000000000000004 0.020000000000000004 0
0.92000000000000004 0.040000000000000001 0
0.92000000000000004 0.54999999999999993 0
0.92000000000000004 0.56000000000000005 0
0.92000000000000004 0.58000000000000007 0
0.94000000000000006 0 0
0.94000000000000006 0.020000000000000004 0
0.94000000000000006 0.040000000000000001 0
0.94000000000000006 0.54999999999999993 0
0.94000000000000006 0.56000000000000005 0
0.94000000000000006 0.58000000000000007 0
0.95999999999999996 0 0
0.95999999999999996 0.020000000000000004 0
0.95999999999999996 0.040000000000000001 0
0.95999999999999996 0.54999999999999993 0
0.95999999999999996 0.56000000000000005 0
0.95999999999999996 0.58000000000000007 0
0.97999999999999998 0 0
0.97999999999999998 0.020000000000000004 0
0.97999999999999998 0.040000000000000001 0
0.97999999999999998 0.54999999999999993 0
0.97999999999999998 0.56000000000000005 0
0.97999999999999998 0.58000000000000007 0
1 0 0
1 0.020000000000000004 0
1 0.040000000000000001 0
1 0.54999999999999993 0
1 0.56000000000000005 0
1 0.58000000000000007 0
VERTICES 681 1362
1 0
1 1
1 2
1 3
1 4
1 5
1 6
1 7
1 8
1 9
1 10
1 11
1 12
1 13
1 14
1 15
1 16
1 17
1 18
1 19
1 20
1 21
1 22
1 23
1 24
1 25
1 26
1 27
1 28
1 29
1 30
1 31
1 32
1 33
1 34
1 35
1 36
1 37
1 38
1 39
1 40
1 41
1 42
1 43
1 44
1 45
1 46
1 47
1 48
1 49
1 50
1 51
1 52
1 53
1 54
1 55
1 56
1 57
1 58
1 59
1 60
1 61
1 62
1 63
1 64
1 65
1 66
1 67
1 68
1 69
1 70
1 71
1 72
1 73
1 74
1 75
1 76
1 77
1 78
1 79
1 80
1 81
1 82
1 83
1 84
1 85
1 86
1 87
1 88
1 89
1 90
1 91
1 92
1 93
1 94
1 95
1 96
1 97
1 98
1 99
1 100
1 101
1 102
1 103
1 104
1 105
1 106
1 107
1 108
1 109
1 110
1 111
1 112
1 113
1 114
1 115
1 116
1 117
1 118
1 119
1 120
1 121
1 122
1 123
1 124
1 125
1 126
1 127
1 128
1 129
1 130
1 131
1 132
1 133
1 134
1 135
1 136
1 137
1 138
1 139
1 140
1 141
1 142
1 143
1 144
1 145
1 146
1 147
1 148
1 149
1 150
1 151
1 152
1 153
1 154
1 155
1 156
1 157
1 158
1 159
1 160
1 161
1 162
1 163
1 164
1 165
1 166
1 167
1 168
1 169
1 170
1 171
1 172
1 173
1 174
1 175
1 176
1 177
1 178
1 179
1 180
1 181
1 182
1 183
1 184
1 185
1 186
1 187
1 188
1 189
1 190
1 191
1 192
1 193
1 194
1 195
1 196
1 197
1 198
1 199
1 200
1 201
1 202
1 203
1 204
1 205
1 206
1 207
1 208
1 209
1 210
1 211
1 212
1 213
1 214
1 215
1 216
1 217
1 218
1 219
1 220
1 221
1 222
1 223
1 224
1 225
1 226
1 227
1 228
1 229
1 230
1 231
1 232
1 233
1 234
1 235
1 236
1 237
1 238
1 239
1 240
1 241
1 242
1 243
1 244
1 245
1 246
1 247
1 248
1 249
1 250
1 251
1 252
1 253
1 254
1 255
1 256
1 257
1 258
1 259
1 260
1 261
1 262
1 263
1 264
1 265
1 266
1 267
1 268
1 269
1 270
1 271
1 272
1 273
1 274
1 275
1 276
1 277
1 278
1 279
1 280
1 281
1 282
1 283
1 284
1 285
1 286
1 287
1 288
1 289
1 290
1 291
1 292
1 293
1 294
1 295
1 296
1 297
1 298
1 299
1 300
1 301
1 302
1 303
1 304
1 305
1 306
1 307
1 308
1 309
1 310
1 311
1 312
1 313
1 314
1 315
1 316
1 317
1 318
1 319
1 320
1 321
1 322
1 323
1 324
1 325
1 326
1 327
1 328
1 329
1 330
1 331
1 332
1 333
1 334
1 335
1 336
1 337
1 338
1 339
1 340
1 341
1 342
1 343
1 344
1 345
1 346
1 347
1 348
1 349
1 350
1 351
1 352
1 353
1 354
1 355
1 356
1 357
1 358
1 359
1 360
1 361
1 362
1 363
1 364
1 365
1 366
1 367
1 368
1 369
1 370
1 371
1 372
1 373
1 374
1 375
1 376
1 377
1 378
1 379
1 380
1 381
1 382
1 383
1 384
1 385
1 386
1 387
1 388
1 389
1 390
1 391
1 392
1 393
1 394
1 395
1 396
1 397
1 398
1 399
1 400
1 401
1 402
1 403
1 404
1 405
1 406
1 407
1 408
1 409
1 410
1 411
1 412
1 413
1 414
1 415
1 416
1 417
1 418
1 419
1 420
1 421
1 422
1 423
1 424
1 425
1 426
1 427
1 428
1 429
1 430
1 431
1 432
1 433
1 434
1 435
1 436
1 437
1 438
1 439
1 440
1 441
1 442
1 443
1 444
1 445
1 446
1 447
1 448
1 449
1 450
1 451
1 452
1 453
1 454
1 455
1 456
1 457
1 458
1 459
1 460
1 461
1 462
1 463
1 464
1 465
1 466
1 467
1 468
1 469
1 470
1 471
1 472
1 473
1 474
1 475
1 476
1 477
1 478
1 479
1 480
1 481
1 482
1 483
1 484
1 485
1 486
1 487
1 488
1 489
1 490
1 491
1 492
1 493
1 494
1 495
1 496
1 497
1 498
1 499
1 500
1 501
1 502
1 503
1 504
1 505
1 506
1 507
1 508
1 509
1 510
1 511
1 512
1 513
1 514
1 515
1 516
1 517
1 518
1 519
1 520
1 521
1 522
1 523
1 524
1 525
1 526
1 527
1 528
1 529
1 530
1 531
1 532
1 533
1 534
1 535
1 536
1 537
1 538
1 539
1 540
1 541
1 542
1 543
1 544
1 545
1 546
1 547
1 548
1 549
1 550
1 551
1 552
1 553
1 554
1 555
1 556
1 557
1 558
1 559
1 560
1 561
1 562
1 563
1 564
1 565
1 566
1 567
1 568
1 569
1 570
1 571
1 572
1 573
1 574
1 575
1 576
1 577
1 578
1 579
1 580
1 581
1 582
1 583
1 584
1 585
1 586
1 587
1 588
1 589
1 590
1 591
1 592
1 593
1 594
1 595
1 596
1 597
1 598
1 599
1 600
1 601
1 602
1 603
1 604
1 605
1 606
1 607
1 608
1 609
1 610
1 611
1 612
1 613
1 614
1 615
1 616
1 617
1 618
1 619
1 620
1 621
1 622
1 623
1 624
1 625
1 626
1 627
1 628
1 629
1 630
1 631
1 632
1 633
1 634
1 635
1 636
1 637
1 638
1 639
1 640
1 641
1 642
1 643
1 644
1 645
1 646
1 647
1 648
1 649
1 650
1 651
1 652
1 653
1 654
1 655
1 656
1 657
1 658
1 659
1 660
1 661
1 662
1 663
1 664
1 665
1 666
1 667
1 668
1 669
1 670
1 671
1 672
1 673
1 674
1 675
1 676
1 677
1 678
1 679
1 680
POINT_DATA 681
SCALARS is_boundary int 1
LOOKUP_TABLE default
0
0
0
0
0
0
0
0
0
0
0
0
0
0
0
0
0
0
0
0
0
0
0
0
0
0
0
0
0
0
0
0
0
0
0
0
0
0
0
0
0
0
0
0
0
0
0
0
0
0
0
0
0
0
0
0
0
0
0
0
0
0
0
0
0
0
0
0
0
0
0
0
0
0
0
0
0
0
0
0
0
0
0
0
0
0
0
0
0
0
0
0
0
0
0
0
0
0
0
0
0
0
0
0
0
0
0
0
0
0
0
0
0
0
0
0
0
0
0
0
0
0
0
0
0
0
0
0
0
0
0
0
0
0
0
0
0
0
0
0
0
0
0
0
0
0
0
0
0
0
0
0
0
0
0
0
0
0
0
0
0
0
0
0
0
0
0
0
0
0
0
0
0
0
0
0
0
0
0
0
0
0
0
0
0
0
0
0
0
0
0
0
0
0
0
0
0
0
0
0
0
0
0
0
0
0
0
0
0
0
0
0
0
0
0
0
0
0
0
0
0
0
0
0
0
0
0
0
0
0
0
0
0
0
0
0
0
0
0
0
0
0
0
0
0
0
0
0
0
0
0
0
0
0
0
0
0
0
0
0
0
0
0
0
0
0
0
0
0
0
0
0
0
0
0
0
0
0
0
0
0
0
0
0
0
0
0
0
0
0
0
0
0
0
0
0
0
0
0
0
0
0
0
0
0
0
0
0
0
0
0
0
0
0
0
0
0
0
0
0
0
0
0
0
0
0
0
0
0
0
0
0
0
0
0
0
0
0
0
0
0
0
0
0
0
0
0
0
0
0
0
0
0
0
0
0
0
0
0
0
0
0
0
0
0
0
0
0
0
0
0
0
0
0
0
1
1
1
1
1
1
1
1
1
1
1
1
1
1
1
1
1
1
1
1
1
1
1
1
1
1
1
1
1
1
1
1
1
1
1
1
1
1
1
1
1
1
1
1
1
1
1
1
1
1
1
1
1
1
1
1
1
1
1
1
1
1
1
1
1
1
1
1
1
1
1
1
1
1
1
1
1
1
1
1
1
1
1
1
1
1
1
1
1
1
1
1
1
1
1
1
1
1
1
1
1
1
1
1
1
1
1
1
1
1
1
1
1
1
1
1
1
1
1
1
1
1
1
1
1
1
1
1
1
1
1
1
1
1
1
1
1
1
1
1
1
1
1
1
1
1
1
1
1
1
1
1
1
1
1
1
1
1
1
1
1
1
1
1
1
1
1
1
1
1
1
1
1
1
1
1
1
1
1
1
1
1
1
1
1
1
1
1
1
1
1
1
1
1
1
1
1
1
1
1
1
1
1
1
1
1
1
1
1
1
1
1
1
1
1
1
1
1
1
1
1
1
1
1
1
1
1
1
1
1
1
1
1
1
1
1
1
1
1
1
1
1
1
1
1
1
1
1
1
1
1
1
1
1
1
1
1
1
1
1
1
1
1
1
1
1
1
1
1
1
1
1
1
1
1
1
1
1
1
1
1
1
1
1
1
1
1
1
1
1
1
1
1
1
1
1
1
1
1
1
1
1
1
1
1
1
SCALARS rho float 1
LOOKUP_TABLE default
1020
1020
1020
1020
1020
1020
1020
1020
1020
1020
1020
1020
1020
1020
1020
945.12601745937991
862
862
862
850
850
850
850
850
850
1020
1020
1020
1020
1020
1020
1020
1020
1020
1020
1020
1020
1020
1020
1020
1020
1015.9870705039414
987.66594685428572
880
880
880
875.56264398393773
862
850
850
1020
1020
1020
1020
1020
1020
1020
1020
1020
1020
1020
1020
1020
1020
1020
1020
1019.8260679699947
988.50431451363147
880
880
880
874.87113207713037
862
850
850
1020
1020
1020
1020
1020
1020
1020
1020
1020
1020
1020
1020
1020
1020
1020
1020
1020
988.32957488367174
880
880
880
874.18471920870979
862
850
850
1020
1020
1020
1020
1020
1020
1020
1020
1020
1020
1020
1020
1020
1020
1020
1020
1020
988.18313977395087
880
880
880
873.84589800272602
862
850
850
1020
1020
1020
1020
1020
1020
1020
1020
1020
1020
1020
1020
1020
1020
1020
1020
1020
988.08768485775704
880
880
880
873.68735296264151
862
850
850
1020
1020
1020
1020
1020
1020
1020
1020
1020
1020
1020
1020
1020
1020
1020
1020
1020
988.0379094946602
880
880
880
873.62087158362147
862
850
850
1020
1020
1020
1020
1020
1020
1020
1020
1020
1020
1020
1020
1020
1020
1020
1020
1020
988.02249901725281
880
880
880
873.60300078755517
862
850
850
1020
1020
1020
1020
1020
1020
1020
1020
1020
1020
1020
1020
1020
1020
1020
1020
1020
988.03740864136194
880
880
880
873.62087152560707
862
850
850
1020
1020
1020
1020
1020
1020
1020
1020
1020
1020
1020
1020
1020
1020
1020
1020
1020
988.08707842493459
880
880
880
873.68735283077513
862
850
850
1020
1020
1020
1020
1020
1020
1020
1020
1020
1020
1020
1020
1020
1020
1020
1020
1020
988.18242969202697
880
880
880
873.84589779348357
862
850
850
1020
1020
1020
1020
1020
1020
1020
1020
1020
1020
1020
1020
1020
1020
1020
1020
1020
988.32889067469
880
880
880
874.18471894962306
862
850
850
1020
1020
1020
1020
1020
1020
1020
1020
1020
1020
1020
1020
1020
1020
1020
1020
1019.8249528318815
988.50365078433424
880
880
880
874.87113181104201
862
850
850
1020
1020
1020
1020
1020
1020
1020
1020
1020
1020
1020
1020
1020
1020
1020
1020
1015.9850125366847
987.66518795523916
880
880
880
875.56264374502689
862
850
850
1020
1020
1020
1020
1020
1020
1020
1020
1020
1020
1020
1020
1020
1020
1020
945.12195121955597
862
862
862
850
850
850
850
850
850
1000
1000
1000
1000
1000
1000
1000
1000
1000
1000
1000
1000
1000
1000
1000
1000
1000
1000
1000
1000
1000
1000
1000
1000
1000
1000
1000
1000
1000
1000
1000
1000
1000
1000
1000
1000
1000
1000
1000
1000
1000
1000
1000
1000
1000
1000
1000
1000
1000
1000
1000
1000
1000
1000
1000
1000
1000
1000
1000
1000
1000
1000
1000
1000
1000
1000
1000
1000
1000
1000
1000
1000
1000
1000
1000
1000
1000
1000
1000
1000
1000
1000
1000
1000
1000
1000
1000
1000
1000
1000
1000
1000
1000
1000
1000
1000
1000
1000
1000
1000
1000
1000
1000
1000
1000
1000
1000
1000
1000
1000
1000
1000
1000
1000
1000
1000
1000
1000
1000
1000
1000
1000
1000
1000
1000
1000
1000
1000
1000
1000
1000
1000
1000
1000
1000
1000
1000
1000
1000
1000
1000
1000
1000
1000
1000
1000
1000
1000
1000
1000
1000
1000
1000
1000
1000
1000
1000
1000
1000
1000
1000
1000
1000
1000
1000
1000
1000
1000
1000
1000
1000
1000
1000
1000
1000
1000
1000
1000
1000
1000
1000
1000
1000
1000
1000
1000
1000
1000
1000
1000
1000
1000
1000
1000
1000
1000
1000
1000
1000
1000
1000
1000
1000
1000
1000
1000
1000
1000
1000
1000
1000
1000
1000
1000
1000
1000
1000
1000
1000
1000
1000
1000
1000
1000
1000
1000
1000
1000
1000
1000
1000
1000
1000
1000
1000
1000
1000
1000
1000
1000
1000
1000
1000
1000
1000
1000
1000
1000
1000
1000
1000
1000
1000
1000
1000
1000
1000
1000
1000
1000
1000
1000
1000
1000
1000
1000
1000
1000
1000
1000
1000
1000
1000
1000
1000
1000
1000
1000
1000
1000
1000
1000
1000
1000
1000
1000
1000
1000
1000
1000
1000
1000
1000
1000
1000
1000
1000
1000
1000
1000
1000
1000
1000
1000
1000
1000
SCALARS p float 1
LOOKUP_TABLE default
25004.681136676067
25004.681136676067
25004.681136676067
25004.681136676067
25004.681136676067
25004.681136676067
25004.681136676067
25004.681136676067
25004.681136676067
25004.681136676067
25004.681136676067
25004.681136676067
25004.681136676067
25004.681136676067
25004.681136676067
0
0
0
0
0
0
0
0
0
0
25004.681136676067
25004.681136676067
25004.681136676067
25004.681136676067
25004.681136676067
25004.681136676067
25004.681136676067
25004.681136676067
25004.681136676067
25004.681136676067
25004.681136676067
25004.681136676067
25004.681136676067
25004.681136676067
25004.681136676067
25004.681136676067
19747.047273309268
0
0
0
0
0
0
0
0
25004.681136676067
25004.681136676067
25004.681136676067
25004.681136676067
25004.681136676067
25004.681136676067
25004.681136676067
25004.681136676067
25004.681136676067
25004.681136676067
25004.681136676067
25004.681136676067
25004.681136676067
25004.681136676067
25004.681136676067
25004.681136676067
24774.214169750485
0
0
0
0
0
0
0
0
25004.681136676067
25004.681136676067
25004.681136676067
25004.681136676067
25004.681136676067
25004.681136676067
25004.681136676067
25004.681136676067
25004.681136676067
25004.681136676067
25004.681136676067
25004.681136676067
25004.681136676067
25004.681136676067
25004.681136676067
25004.681136676067
25004.681136676067
0
0
0
0
0
0
0
0
25004.681136676067
25004.681136676067
25004.681136676067
25004.681136676067
25004.681136676067
25004.681136676067
25004.681136676067
25004.681136676067
25004.681136676067
25004.681136676067
25004.681136676067
25004.681136676067
25004.681136676067
25004.681136676067
25004.681136676067
25004.681136676067
25004.681136676067
0
0
0
0
0
0
0
0
25004.681136676067
25004.681136676067
25004.681136676067
25004.681136676067
25004.681136676067
25004.681136676067
25004.681136676067
25004.681136676067
25004.681136676067
25004.681136676067
25004.681136676067
25004.681136676067
25004.681136676067
25004.681136676067
25004.681136676067
25004.681136676067
25004.681136676067
0
0
0
0
0
0
0
0
25004.681136676067
25004.681136676067
25004.681136676067
25004.681136676067
25004.681136676067
25004.681136676067
25004.681136676067
25004.681136676067
25004.681136676067
25004.681136676067
25004.681136676067
25004.681136676067
25004.681136676067
25004.681136676067
25004.681136676067
25004.681136676067
25004.681136676067
0
0
0
0
0
0
0
0
25004.681136676067
25004.681136676067
25004.681136676067
25004.681136676067
25004.681136676067
25004.681136676067
25004.681136676067
25004.681136676067
25004.681136676067
25004.681136676067
25004.681136676067
25004.681136676067
25004.681136676067
25004.681136676067
25004.681136676067
25004.681136676067
25004.681136676067
0
0
0
0
0
0
0
0
25004.681136676067
25004.681136676067
25004.681136676067
25004.681136676067
25004.681136676067
25004.681136676067
25004.681136676067
25004.681136676067
25004.681136676067
25004.681136676067
25004.681136676067
25004.681136676067
25004.681136676067
25004.681136676067
25004.681136676067
25004.681136676067
25004.681136676067
0
0
0
0
0
0
0
0
25004.681136676067
25004.681136676067
25004.681136676067
25004.681136676067
25004.681136676067
25004.681136676067
25004.681136676067
25004.681136676067
25004.681136676067
25004.681136676067
25004.681136676067
25004.681136676067
25004.681136676067
25004.681136676067
25004.681136676067
25004.681136676067
25004.681136676067
0
0
0
0
0
0
0
0
25004.681136676067
25004.681136676067
25004.681136676067
25004.681136676067
25004.681136676067
25004.681136676067
25004.681136676067
25004.681136676067
25004.681136676067
25004.681136676067
25004.681136676067
25004.681136676067
25004.681136676067
25004.681136676067
25004.681136676067
25004.681136676067
25004.681136676067
0
0
0
0
0
0
0
0
25004.681136676067
25004.681136676067
25004.681136676067
25004.681136676067
25004.681136676067
25004.681136676067
25004.681136676067
25004.681136676067
25004.681136676067
25004.681136676067
25004.681136676067
25004.681136676067
25004.681136676067
25004.681136676067
25004.681136676067
25004.681136676067
25004.681136676067
0
0
0
0
0
0
0
0
25004.681136676067
25004.681136676067
25004.681136676067
25004.681136676067
25004.681136676067
25004.681136676067
25004.681136676067
25004.681136676067
25004.681136676067
25004.681136676067
25004.681136676067
25004.681136676067
25004.681136676067
25004.681136676067
25004.681136676067
25004.681136676067
24772.737327388255
0
0
0
0
0
0
0
0
25004.681136676067
25004.681136676067
25004.681136676067
25004.681136676067
25004.681136676067
25004.681136676067
25004.681136676067
25004.681136676067
25004.681136676067
25004.681136676067
25004.681136676067
25004.681136676067
25004.681136676067
25004.681136676067
25004.681136676067
25004.681136676067
19744.382776762428
0
0
0
0
0
0
0
0
25004.681136676067
25004.681136676067
25004.681136676067
25004.681136676067
25004.681136676067
25004.681136676067
25004.681136676067
25004.681136676067
25004.681136676067
25004.681136676067
25004.681136676067
25004.681136676067
25004.681136676067
25004.681136676067
25004.681136676067
0
0
0
0
0
0
0
0
0
0
0
0
0
0
0
0
5894.1186142767601
24951.584850912997
24992.359721442252
0
0
0
24887.463744159286
25001.335267512975
25003.675927708467
0
0
0
24953.846806369296
25002.986539716021
25004.150787319348
0
0
0
24960.077051713812
25003.070941619328
25004.164916725917
0
0
0
24960.058309794975
25003.070408974894
25004.162432492147
0
0
0
24959.831502299956
25003.066436369903
25004.161627128535
0
0
0
24959.724708968373
25003.064447385124
25004.161309383649
0
0
0
24959.682410513971
25003.063640545399
25004.161184718258
0
0
0
24959.667723441777
25003.063366343871
25004.161144438702
0
0
0
24959.667201446482
25003.063354040838
25004.161140895103
0
0
0
24959.681925826557
25003.063635304774
25004.161184456269
0
0
0
24959.72405715437
25003.064444254258
25004.16131117694
0
0
0
24959.83108668591
25003.066431698884
25004.161630068396
0
0
0
24960.057155287643
25003.070388069562
25004.162432110628
0
0
0
24960.075213789489
25003.070914718061
25004.164915349131
0
0
0
24953.844449479428
25002.986521541286
25004.150792412514
0
0
0
24887.453381582462
25001.335160193372
25003.675915147254
0
0
0
5891.6722838499318
24951.580400604318
24992.358944195563
0
0
0
0
0
0
0
0
0
0
0
0
0
0
0
0
0
0
0
0
0
0
0
0
0
0
0
0
0
0
0
0
0
0
0
0
0
0
0
0
0
0
0
0
0
0
0
0
0
0
0
0
0
0
0
0
0
0
0
0
0
0
0
0
0
0
0
0
0
0
0
0
0
0
0
0
0
0
0
0
0
0
0
0
0
0
0
0
0
0
0
0
0
0
0
0
0
0
0
0
0
0
0
0
0
0
0
0
0
0
0
0
0
0
0
0
0
0
0
0
0
0
0
0
0
0
0
0
0
0
0
0
0
0
0
0
0
0
0
0
0
0
0
0
0
0
0
0
0
0
0
0
0
0
0
0
0
0
0
0
0
0
0
0
0
0
0
0
0
0
0
0
0
0
0
0
0
0
0
0
0
0
0
0
0
0
0
0
0
0
0
0
0
0
0
SCALARS m float 1
LOOKUP_TABLE default
0.39942306611962441
0.39942306611962441
0.39942306611962441
0.39942306611962441
0.39942306611962441
0.39942306611962441
0.39942306611962441
0.39942306611962441
0.39942306611962441
0.39942306611962441
0.39942306611962441
0.39942306611962441
0.39942306611962441
0.39942306611962441
0.39942306611962441
0.39942306611962441
0.39942306611962441
0.39942306611962441
0.39942306611962441
0.39942306611962441
0.39942306611962441
0.39942306611962441
0.39942306611962441
0.39942306611962441
0.39942306611962441
0.39942306611962441
0.39942306611962441
0.39942306611962441
0.39942306611962441
0.39942306611962441
0.39942306611962441
0.39942306611962441
0.39942306611962441
0.39942306611962441
0.39942306611962441
0.39942306611962441
0.39942306611962441
0.39942306611962441
0.39942306611962441
0.39942306611962441
0.39942306611962441
0.39942306611962441
0.39942306611962441
0.39942306611962441
0.39942306611962441
0.39942306611962441
0.39942306611962441
0.39942306611962441
0.39942306611962441
0.39942306611962441
0.39942306611962441
0.39942306611962441
0.39942306611962441
0.39942306611962441
0.39942306611962441
0.39942306611962441
0.39942306611962441
0.39942306611962441
0.39942306611962441
0.39942306611962441
0.39942306611962441
0.39942306611962441
0.39942306611962441
0.39942306611962441
0.39942306611962441
0.39942306611962441
0.39942306611962441
0.39942306611962441
0.39942306611962441
0.39942306611962441
0.39942306611962441
0.39942306611962441
0.39942306611962441
0.39942306611962441
0.39942306611962441
0.39942306611962441
0.39942306611962441
0.39942306611962441
0.39942306611962441
0.39942306611962441
0.39942306611962441
0.39942306611962441
0.39942306611962441
0.39942306611962441
0.39942306611962441
0.39942306611962441
0.39942306611962441
0.39942306611962441
0.39942306611962441
0.39942306611962441
0.39942306611962441
0.39942306611962441
0.39942306611962441
0.39942306611962441
0.39942306611962441
0.39942306611962441
0.39942306611962441
0.39942306611962441
0.39942306611962441
0.39942306611962441
0.39942306611962441
0.39942306611962441
0.39942306611962441
0.39942306611962441
0.39942306611962441
0.39942306611962441
0.39942306611962441
0.39942306611962441
0.39942306611962441
0.39942306611962441
0.39942306611962441
0.39942306611962441
0.39942306611962441
0.39942306611962441
0.39942306611962441
0.39942306611962441
0.39942306611962441
0.39942306611962441
0.39942306611962441
0.39942306611962441
0.39942306611962441
0.39942306611962441
0.39942306611962441
0.39942306611962441
0.39942306611962441
0.39942306611962441
0.39942306611962441
0.39942306611962441
0.39942306611962441
0.39942306611962441
0.39942306611962441
0.39942306611962441
0.39942306611962441
0.39942306611962441
0.39942306611962441
0.39942306611962441
0.39942306611962441
0.39942306611962441
0.39942306611962441
0.39942306611962441
0.39942306611962441
0.39942306611962441
0.39942306611962441
0.39942306611962441
0.39942306611962441
0.39942306611962441
0.39942306611962441
0.39942306611962441
0.39942306611962441
0.39942306611962441
0.39942306611962441
0.39942306611962441
0.39942306611962441
0.39942306611962441
0.39942306611962441
0.39942306611962441
0.39942306611962441
0.39942306611962441
0.39942306611962441
0.39942306611962441
0.39942306611962441
0.39942306611962441
0.39942306611962441
0.39942306611962441
0.39942306611962441
0.39942306611962441
0.39942306611962441
0.39942306611962441
0.39942306611962441
0.39942306611962441
0.39942306611962441
0.39942306611962441
0.39942306611962441
0.39942306611962441
0.39942306611962441
0.39942306611962441
0.39942306611962441
0.39942306611962441
0.39942306611962441
0.39942306611962441
0.39942306611962441
0.39942306611962441
0.39942306611962441
0.39942306611962441
0.39942306611962441
0.39942306611962441
0.39942306611962441
0.39942306611962441
0.39942306611962441
0.39942306611962441
0.39942306611962441
0.39942306611962441
0.39942306611962441
0.39942306611962441
0.39942306611962441
0.39942306611962441
0.39942306611962441
0.39942306611962441
0.39942306611962441
0.39942306611962441
0.39942306611962441
0.39942306611962441
0.39942306611962441
0.39942306611962441
0.39942306611962441
0.39942306611962441
0.39942306611962441
0.39942306611962441
0.39942306611962441
0.39942306611962441
0.39942306611962441
0.39942306611962441
0.39942306611962441
0.39942306611962441
0.39942306611962441
0.39942306611962441
0.39942306611962441
0.39942306611962441
0.39942306611962441
0.39942306611962441
0.39942306611962441
0.39942306611962441
0.39942306611962441
0.39942306611962441
0.39942306611962441
0.39942306611962441
0.39942306611962441
0.39942306611962441
0.39942306611962441
0.39942306611962441
0.39942306611962441
0.39942306611962441
0.39942306611962441
0.39942306611962441
0.39942306611962441
0.39942306611962441
0.39942306611962441
0.39942306611962441
0.39942306611962441
0.39942306611962441
0.39942306611962441
0.39942306611962441
0.39942306611962441
0.39942306611962441
0.39942306611962441
0.39942306611962441
0.39942306611962441
0.39942306611962441
0.39942306611962441
0.39942306611962441
0.39942306611962441
0.39942306611962441
0.39942306611962441
0.39942306611962441
0.39942306611962441
0.39942306611962441
0.39942306611962441
0.39942306611962441
0.39942306611962441
0.39942306611962441
0.39942306611962441
0.39942306611962441
0.39942306611962441
0.39942306611962441
0.39942306611962441
0.39942306611962441
0.39942306611962441
0.39942306611962441
0.39942306611962441
0.39942306611962441
0.39942306611962441
0.39942306611962441
0.39942306611962441
0.39942306611962441
0.39942306611962441
0.39942306611962441
0.39942306611962441
0.39942306611962441
0.39942306611962441
0.39942306611962441
0.39942306611962441
0.39942306611962441
0.39942306611962441
0.39942306611962441
0.39942306611962441
0.39942306611962441
0.39942306611962441
0.39942306611962441
0.39942306611962441
0.39942306611962441
0.39942306611962441
0.39942306611962441
0.39942306611962441
0.39942306611962441
0.39942306611962441
0.39942306611962441
0.39942306611962441
0.39942306611962441
0.39942306611962441
0.39942306611962441
0.39942306611962441
0.39942306611962441
0.39942306611962441
0.39942306611962441
0.39942306611962441
0.39942306611962441
0.39942306611962441
0.39942306611962441
0.39942306611962441
0.39942306611962441
0.39942306611962441
0.39942306611962441
0.39942306611962441
0.39942306611962441
0.39942306611962441
0.39942306611962441
0.39942306611962441
0.39942306611962441
0.39942306611962441
0.39942306611962441
0.39942306611962441
0.39942306611962441
0.39942306611962441
0.39942306611962441
0.39942306611962441
0.39942306611962441
0.39942306611962441
0.39942306611962441
0.39942306611962441
0.39942306611962441
0.39942306611962441
0.39942306611962441
0.39942306611962441
0.39942306611962441
0.39942306611962441
0.39942306611962441
0.39942306611962441
0.39942306611962441
0.39942306611962441
0.39942306611962441
0.39942306611962441
0.39942306611962441
0.39942306611962441
0.39942306611962441
0.39942306611962441
0.39942306611962441
0.39942306611962441
0.39942306611962441
0.39942306611962441
0.39942306611962441
0.39942306611962441
0.39942306611962441
0.39942306611962441
0.39942306611962441
0.39942306611962441
0.39942306611962441
0.39942306611962441
0.39942306611962441
0.39942306611962441
0.39942306611962441
0.39942306611962441
0.39942306611962441
0.39942306611962441
0.39942306611962441
0.39942306611962441
0.39942306611962441
0.39942306611962441
0.39942306611962441
0.39942306611962441
0.39942306611962441
0.39942306611962441
0.39942306611962441
0.39942306611962441
0.39942306611962441
0.39942306611962441
0.39942306611962441
0.39942306611962441
0.39942306611962441
0.39942306611962441
0.39942306611962441
0.39942306611962441
0.39942306611962441
0.39942306611962441
0.39942306611962441
0.39942306611962441
0.39942306611962441
0.39942306611962441
0.39942306611962441
0.39942306611962441
0.39942306611962441
0.39942306611962441
0.39942306611962441
0.39942306611962441
0.39942306611962441
0.39942306611962441
0.39942306611962441
0.39942306611962441
0.39942306611962441
0.39942306611962441
0.39942306611962441
0.39942306611962441
0.39942306611962441
0.39942306611962441
0.39942306611962441
0.39942306611962441
0.39942306611962441
0.39942306611962441
0.39942306611962441
0.39942306611962441
0.39942306611962441
0.39942306611962441
0.39942306611962441
0.39942306611962441
0.39942306611962441
0.39942306611962441
0.39942306611962441
0.39942306611962441
0.39942306611962441
0.39942306611962441
0.39942306611962441
0.39942306611962441
0.39942306611962441
0.39942306611962441
0.39942306611962441
0.39942306611962441
0.39942306611962441
0.39942306611962441
0.39942306611962441
0.39942306611962441
0.39942306611962441
0.39942306611962441
0.39942306611962441
0.39942306611962441
0.39942306611962441
0.39942306611962441
0.39942306611962441
0.39942306611962441
0.39942306611962441
0.39942306611962441
0.39942306611962441
0.39942306611962441
0.39942306611962441
0.39942306611962441
0.39942306611962441
0.39942306611962441
0.39942306611962441
0.39942306611962441
0.39942306611962441
0.39942306611962441
0.39942306611962441
0.39942306611962441
0.39942306611962441
0.39942306611962441
0.39942306611962441
0.39942306611962441
0.39942306611962441
0.39942306611962441
0.39942306611962441
0.39942306611962441
0.39942306611962441
0.39942306611962441
0.39942306611962441
0.39942306611962441
0.39942306611962441
0.39942306611962441
0.39942306611962441
0.39942306611962441
0.39942306611962441
0.39942306611962441
0.39942306611962441
0.39942306611962441
0.39942306611962441
0.39942306611962441
0.39942306611962441
0.39942306611962441
0.39942306611962441
0.39942306611962441
0.39942306611962441
0.39942306611962441
0.39942306611962441
0.39942306611962441
0.39942306611962441
0.39942306611962441
0.39942306611962441
0.39942306611962441
0.39942306611962441
0.39942306611962441
0.39942306611962441
0.39942306611962441
0.39942306611962441
0.39942306611962441
0.39942306611962441
0.39942306611962441
0.39942306611962441
0.39942306611962441
0.39942306611962441
0.39942306611962441
0.39942306611962441
0.39942306611962441
0.39942306611962441
0.39942306611962441
0.39942306611962441
0.39942306611962441
0.39942306611962441
0.39942306611962441
0.39942306611962441
0.39942306611962441
0.39942306611962441
0.39942306611962441
0.39942306611962441
0.39942306611962441
0.39942306611962441
0.39942306611962441
0.39942306611962441
0.39942306611962441
0.39942306611962441
0.39942306611962441
0.39942306611962441
0.39942306611962441
0.39942306611962441
0.39942306611962441
0.39942306611962441
0.39942306611962441
0.39942306611962441
0.39942306611962441
0.39942306611962441
0.39942306611962441
0.39942306611962441
0.39942306611962441
0.39942306611962441
0.39942306611962441
0.39942306611962441
0.39942306611962441
0.39942306611962441
0.39942306611962441
0.39942306611962441
0.39942306611962441
0.39942306611962441
0.39942306611962441
0.39942306611962441
0.39942306611962441
0.39942306611962441
0.39942306611962441
0.39942306611962441
0.39942306611962441
0.39942306611962441
0.39942306611962441
0.39942306611962441
0.39942306611962441
0.39942306611962441
0.39942306611962441
0.39942306611962441
0.39942306611962441
0.39942306611962441
0.39942306611962441
0.39942306611962441
0.39942306611962441
0.39942306611962441
0.39942306611962441
0.39942306611962441
0.39942306611962441
0.39942306611962441
0.39942306611962441
0.39942306611962441
0.39942306611962441
0.39942306611962441
0.39942306611962441
0.39942306611962441
0.39942306611962441
0.39942306611962441
0.39942306611962441
0.39942306611962441
0.39942306611962441
0.39942306611962441
0.39942306611962441
0.39942306611962441
0.39942306611962441
0.39942306611962441
0.39942306611962441
0.39942306611962441
0.39942306611962441
0.39942306611962441
0.39942306611962441
0.39942306611962441
0.39942306611962441
0.39942306611962441
0.39942306611962441
0.39942306611962441
0.39942306611962441
0.39942306611962441
0.39942306611962441
0.39942306611962441
0.39942306611962441
0.39942306611962441
0.39942306611962441
0.39942306611962441
0.39942306611962441
0.39942306611962441
0.39942306611962441
0.39942306611962441
0.39942306611962441
0.39942306611962441
0.39942306611962441
0.39942306611962441
0.39942306611962441
0.39942306611962441
0.39942306611962441
0.39942306611962441
0.39942306611962441
0.39942306611962441
0.39942306611962441
0.39942306611962441
0.39942306611962441
0.39942306611962441
0.39942306611962441
0.39942306611962441
0.39942306611962441
0.39942306611962441
0.39942306611962441
0.39942306611962441
0.39942306611962441
0.39942306611962441
0.39942306611962441
0.39942306611962441
0.39942306611962441
0.39942306611962441
0.39942306611962441
0.39942306611962441
0.39942306611962441
0.39942306611962441
0.39942306611962441
0.39942306611962441
0.39942306611962441
0.39942306611962441
0.39942306611962441
0.39942306611962441
0.39942306611962441
0.39942306611962441
0.39942306611962441
0.39942306611962441
0.39942306611962441
0.39942306611962441
0.39942306611962441
0.39942306611962441
0.39942306611962441
0.39942306611962441
0.39942306611962441
0.39942306611962441
0.39942306611962441
0.39942306611962441
0.39942306611962441
0.39942306611962441
0.39942306611962441
0.39942306611962441
0.39942306611962441
0.39942306611962441
0.39942306611962441
0.39942306611962441
0.39942306611962441
0.39942306611962441
0.39942306611962441
0.39942306611962441
0.39942306611962441
0.39942306611962441
0.39942306611962441
0.39942306611962441
0.39942306611962441
0.39942306611962441
0.39942306611962441
0.39942306611962441
0.39942306611962441
0.39942306611962441
0.39942306611962441
0.39942306611962441
0.39942306611962441
0.39942306611962441
0.39942306611962441
0.39942306611962441
0.39942306611962441
0.39942306611962441
0.39942306611962441
VECTORS v float
-7.4235455790776537e-05 -0.089472870195678109 0
-8.5233382826010911e-05 -0.10424794601036139 0
-9.408133740847606e-05 -0.1169652297351086 0
-0.00010303661322247021 -0.13105500105624002 0
-0.00011224654761692131 -0.1468494973875703 0
-0.00012033945086203307 -0.16498981413239439 0
-0.00012831949272129367 -0.18642089405930856 0
-0.00013720179592463728 -0.21257017163569056 0
-0.00014744338283923718 -0.24556785059474123 0
-0.00015896207520236044 -0.2888725342453497 0
-0.00017456371677287283 -0.34773320780830447 0
-0.00019481608994132481 -0.43225759604164976 0
-0.00022604501068668935 -0.57056912159672801 0
-0.00028382769093338657 -0.86237564759056518 0
-0.00038477296984014311 -1.5109906397478794 0
-0.00032699835908981718 -2.0578878356157655 0
-0.00014637020315287069 -2.1755103555533437 0
-3.0686609186986985e-05 -2.1870635689274129 0
-3.4763460162140568e-06 -2.1844337291959794 0
-4.0225020454562574e-07 -2.1784345258100393 0
-4.4364533748428618e-08 -2.1700147936777165 0
-4.4069275350538127e-09 -2.1593649271208704 0
-3.6224824700759672e-10 -2.1469748215583984 0
-2.0428255212697072e-11 -2.1342279400903577 0
-3.4509236876798061e-18 -1.9964118958458132 0
-4.1578179216139813e-05 -0.094018943913505487 0
-4.858394645850073e-05 -0.10948558804075065 0
-5.5150658016427112e-05 -0.12298164481661478 0
-6.1678992140046972e-05 -0.1376794946214856 0
-6.7043654952865734e-05 -0.1540505852661998 0
-7.3410550228485879e-05 -0.17283430730125143 0
-7.8868062983382633e-05 -0.19503357510114097 0
-8.6852824655128948e-05 -0.22209366033141048 0
-9.4620515228140736e-05 -0.25623446413574569 0
-0.00010424772525660233 -0.30094823594023684 0
-0.00011418423446280623 -0.36145598022486009 0
-0.00012907899401610567 -0.44757867961413811 0
-0.00014664121300922463 -0.58377773702342173 0
-0.00018071817688686338 -0.8459692572045634 0
-0.00025326174937800216 -1.4270696566864651 0
-0.00028022512356587985 -2.0178776683394823 0
-0.00014291591061533026 -2.1704082920204177 0
-3.1625726985307338e-05 -2.1863267676290832 0
-3.407794707665018e-06 -2.1839952737684265 0
-4.1192822398749999e-07 -2.1779993036576339 0
-4.750823114191257e-08 -2.1695924801837747 0
-4.8721141754675226e-09 -2.1589872897744873 0
-4.1092432527176662e-10 -2.1467889158368547 0
-2.3967989929330166e-11 -2.1344480331103619 0
-1.0451287283005203e-17 -1.9977064246525664 0
-1.964502503942189e-05 -0.094601923572930971 0
-2.3570447063303714e-05 -0.11015163663591741 0
-2.6683470420789615e-05 -0.12374400978347651 0
-3.0705954191456898e-05 -0.13858621431037488 0
-3.4792535492046106e-05 -0.15514584842574367 0
-3.8611475667423568e-05 -0.17418314103104293 0
-4.6464303496016317e-05 -0.196725104690612 0
-4.945557163616676e-05 -0.22422780247797436 0
-5.4182510498408327e-05 -0.25891611420167004 0
-5.9408991913395623e-05 -0.30426386602742089 0
-6.5123001302661585e-05 -0.36539959115040521 0
-7.2774822530745234e-05 -0.45192642107523223 0
-8.1445714520371489e-05 -0.58747562093858119 0
-9.1718649723683863e-05 -0.8434591159011734 0
-0.00010784334859959664 -1.4035157821314601 0
-9.7027368989235316e-05 -2.0010808613043287 0
-5.4323959427653028e-05 -2.1677224103654291 0
-1.5433365947371757e-05 -2.1859003525966765 0
-2.1373524763306699e-06 -2.1836508828549417 0
-2.833014775071045e-07 -2.1775164715670718 0
-3.5740123336137108e-08 -2.169097505567525 0
-3.9000673687247098e-09 -2.1584677891002526 0
-3.4407417854189398e-10 -2.1463129236682099 0
-2.0876201482650492e-11 -2.134071688906761 0
-2.4920119433380616e-17 -1.999620157983524 0
-6.2149585491168102e-06 -0.094603940771891479 0
-7.7644739899861364e-06 -0.11018885477678084 0
-8.9892695662148579e-06 -0.12381460186520878 0
-1.0720583981741956e-05 -0.13869686486005864 0
-1.3342224024424146e-05 -0.15530657504863882 0
-1.3325870073684946e-05 -0.1744061831154487 0
-1.3785481587247876e-05 -0.19703523506509496 0
-1.5977192990589851e-05 -0.22464854233344525 0
-1.5934372521550953e-05 -0.25947723347021573 0
-1.7657474121240129e-05 -0.30498837509040977 0
-2.1310400821147914e-05 -0.36628625939830756 0
-2.4647255411561881e-05 -0.45293367030728815 0
-2.8138269161443921e-05 -0.5883150691679806 0
-3.1699086580493205e-05 -0.84259561742699984 0
-3.7327796326299759e-05 -1.3964823723316979 0
-3.0451458235139219e-05 -1.9951793238727697 0
-1.7399820046507544e-05 -2.1664927048670037 0
-5.5686311376654478e-06 -2.1856116910477974 0
-9.7922404593397703e-07 -2.183397791276422 0
-1.5344610657914612e-07 -2.1771951217735133 0
-2.1275377545075149e-08 -2.1686877155418296 0
-2.5028331571681146e-09 -2.1579888616731044 0
-2.3443657133249014e-10 -2.1457956832823775 0
-1.4913979329940274e-11 -2.1335114949083289 0
-3.6217604303945603e-17 -2.0014366862537618 0
-1.2126939222085338e-06 -0.094549737018176788 0
-1.7563294658247861e-06 -0.1101480000507767 0
-2.1841877052930005e-06 -0.12378632349984629 0
-2.2225138708724897e-06 -0.13868204567138417 0
-2.612262481250519e-06 -0.15530475041023442 0
-3.4926290337223421e-06 -0.17442474199038707 0
-2.7220445907146533e-06 -0.19707801899176877 0
-2.5321328023812178e-06 -0.22472432988725971 0
-3.3354335252840299e-06 -0.25959305499274321 0
-2.6262243342532861e-06 -0.30514553638582853 0
-3.1629967796820215e-06 -0.36648012061142549 0
-3.2927054301637978e-06 -0.45314048852859889 0
-3.4700171091675943e-06 -0.58844805437282022 0
-4.1262765745486221e-06 -0.84214288513333468 0
-5.2559838682959758e-06 -1.394007177577675 0
-8.3055331104632325e-06 -1.9930715321522119 0
-5.7194151019051168e-06 -2.165991392141708 0
-1.813747881109312e-06 -2.1854417533963755 0
-3.6701313532333825e-07 -2.1832262586269873 0
-6.7660417920320305e-08 -2.1769789096461749 0
-1.0415441740011776e-08 -2.1683970092558833 0
-1.3314297691345507e-09 -2.1576216281122931 0
-1.3360009688684408e-10 -2.1453649459202064 0
-8.9788748695074626e-12 -2.1330152960272843 0
-3.3454750526511475e-17 -2.0027621213412168 0
1.3624985153248091e-06 -0.094516577089627074 0
1.3287284919068345e-06 -0.11011792149988134 0
1.5883071274830373e-06 -0.12375961155232602 0
1.7825078512717827e-06 -0.13865857599299522 0
3.6881299998483069e-06 -0.15528736718590966 0
4.9747145373860756e-06 -0.17441030863590631 0
4.1332073863891549e-06 -0.19707222289398171 0
4.3774139326299383e-06 -0.22472892852304213 0
4.6798603179655166e-06 -0.25960902957591048 0
5.1979412571554923e-06 -0.30517368414464691 0
5.9176651564394952e-06 -0.36651486603274125 0
6.0162775041341311e-06 -0.45317222243552097 0
5.7135708425561827e-06 -0.58844087779507692 0
6.7022153476163764e-06 -0.84191454192705906 0
6.3662532294017113e-06 -1.3930710562163648 0
1.6493769304061997e-06 -1.9923002013679905 0
-8.3389663650288573e-07 -2.1657899624667145 0
-4.1062734102848451e-07 -2.185351432697773 0
-1.0676179063950291e-07 -2.1831188192680351 0
-2.3481802248183461e-08 -2.1768348879379236 0
-4.1348445856703519e-09 -2.1682079620431876 0
-5.8363993395107779e-10 -2.157377848156985 0
-6.3285365943171589e-11 -2.1450705045962013 0
-4.518553922906606e-12 -2.132674222906481 0
-2.1377738866476048e-17 -2.0035547031403893 0
2.0668685388355299e-06 -0.094501338627650908 0
2.2811561379297409e-06 -0.11010447849218982 0
2.5867056090202166e-06 -0.12374628238355032 0
2.5104581400422573e-06 -0.13864655057494979 0
3.1398897257687003e-06 -0.15527517919244715 0
4.314088807063107e-06 -0.17440092180875136 0
4.5291952899941337e-06 -0.19706348972284093 0
4.7483204121480917e-06 -0.22472205462959391 0
5.3756653189623148e-06 -0.25960439814018343 0
6.8434544100638784e-06 -0.30517312410204106 0
7.2428380479214388e-06 -0.36651578750438291 0
8.0410774642920641e-06 -0.45317079898828699 0
7.8800678559382221e-06 -0.58842373830423367 0
7.9317742593193669e-06 -0.84180917713780923 0
5.0556053915426043e-06 -1.3927154810318929 0
2.2860482754518376e-06 -1.992019552668284 0
3.9769480849200553e-07 -2.1657124807396171 0
-9.6675179688425443e-09 -2.1853074970881523 0
-1.6112615275554568e-08 -2.1830618003125779 0
-5.2930311503698364e-09 -2.1767561470681245 0
-1.1404042859774248e-09 -2.1681032274863221 0
-1.8335008180617039e-10 -2.1572432405674675 0
-2.174836987121295e-11 -2.1449075955128607 0
-1.6552144178866792e-12 -2.1324872978785039 0
-8.8144720427566094e-18 -2.003941857384107 0
2.4956498848993321e-06 -0.0944947640831547 0
2.789445607601998e-06 -0.11009765848486533 0
3.8382357962657343e-06 -0.12373959251009613 0
3.4966511037969742e-06 -0.13864046078385045 0
5.1414664521616237e-06 -0.15526921894323364 0
4.1878785692740472e-06 -0.17439762345402332 0
6.4185618775959837e-06 -0.19706052568423413 0
6.082670278166205e-06 -0.22472071733291615 0
5.9113111420683433e-06 -0.25960495686066354 0
7.0215253189045246e-06 -0.30517339677329219 0
7.6952471996706538e-06 -0.36651746068569246 0
7.8705053582461923e-06 -0.45317282334581072 0
7.5614621162477399e-06 -0.58841630586558313 0
6.6746709949948108e-06 -0.84178230860798009 0
3.7512144222969123e-06 -1.392617819929248 0
-2.8060139447523381e-06 -1.9919444405697322 0
-1.0192800031574716e-06 -2.165693708499552 0
-9.4329201867049128e-08 -2.185295751447768 0
2.8678825154306335e-09 -2.1830441954594786 0
1.584428403613117e-09 -2.1767313396469765 0
2.9367585093624028e-10 -2.168069996833021 0
3.8637550767285023e-11 -2.1572007460982383 0
3.8762690881845815e-12 -2.1448563817794408 0
2.6253709760234334e-13 -2.132429058598039 0
1.5604865958347587e-18 -2.004054030555396 0
3.4154209867465783e-06 -0.094499751185940575 0
3.7609774311651435e-06 -0.1101027201216883 0
4.0809609291825318e-06 -0.1237442648870701 0
4.9076526089374949e-06 -0.13864416714859912 0
7.7663188307424502e-06 -0.15527262014753576 0
7.4797609653075387e-06 -0.17439825021467573 0
8.3518072733999307e-06 -0.19706052303197252 0
9.4167870027410804e-06 -0.22471914253917241 0
1.0385333764055728e-05 -0.25960105221460184 0
1.1104174794409846e-05 -0.3051696231674032 0
1.1879005395426128e-05 -0.36651256982643704 0
1.1143287674750308e-05 -0.45316935625344079 0
1.00219077703454e-05 -0.58842256544364036 0
8.073831658654028e-06 -0.84180845763871803 0
2.3133508646861939e-06 -1.3927030079842393 0
-5.460626338645918e-06 -1.9920081667423701 0
-3.4451674448746256e-06 -2.1657155326422992 0
-2.0033139513875726e-07 -2.1853086899111211 0
2.5507334914289999e-08 -2.1830619118416976 0
8.7223463771341817e-09 -2.176756157657501 0
1.7360684088234782e-09 -2.1681032286006285 0
2.6036842718647076e-10 -2.1572432406799789 0
2.9418491318645528e-11 -2.1449075955224499 0
2.1711458395991297e-12 -2.1324872978790612 0
1.177701382655446e-17 -2.003941857384107 0
5.4965054106164686e-06 -0.094515523310539432 0
6.2382328498185801e-06 -0.11011743667015139 0
7.2778213909842734e-06 -0.12375895235714389 0
7.6985780498398075e-06 -0.13865752730506523 0
8.0622579896851741e-06 -0.15528647208690183 0
8.8782830529524353e-06 -0.17440991274452897 0
9.867674684347572e-06 -0.19707046730027997 0
1.0807904344583816e-05 -0.22472533004020162 0
1.1599580340250164e-05 -0.25960442673237538 0
1.2715519040730866e-05 -0.30516886998998605 0
1.3423520248386836e-05 -0.3665110259232095 0
1.4319383928449496e-05 -0.45316973276714312 0
1.4618809424443225e-05 -0.58844001142353664 0
1.3420851790382257e-05 -0.84190739422487992 0
8.6864990015132069e-06 -1.3930547465870706 0
2.9074033372913125e-06 -1.9922948690414071 0
1.3645564421848836e-06 -2.1657918183206224 0
5.2647999602937449e-07 -2.1853522446742666 0
1.2693336274642315e-07 -2.1831189396646931 0
2.7212457135951308e-08 -2.176834905439045 0
4.7051465175157523e-09 -2.168207964290088 0
6.5499926382513661e-10 -2.1573778484039243 0
7.0301277220089612e-11 -2.1450705046180527 0
4.9848909732121957e-12 -2.1326742229077751 0
2.3802713686604495e-17 -2.0035547031403893 0
6.2147112139943632e-06 -0.094551365216856489 0
7.6320033406065923e-06 -0.11015039365699449 0
8.2180775142960868e-06 -0.12378821373833808 0
9.7080387889622046e-06 -0.13868404820348276 0
1.043665579561247e-05 -0.1553066583897427 0
1.166282615091004e-05 -0.17442482622490907 0
1.2927363234480915e-05 -0.19707758437349493 0
1.5388862604243164e-05 -0.22472287661115556 0
1.5640059281907182e-05 -0.25959068333486551 0
1.6986224419130838e-05 -0.30514311465424326 0
1.8716416481748843e-05 -0.36647724331048831 0
2.09159052729783e-05 -0.45313859643309745 0
2.2712850140840519e-05 -0.58844766987458019 0
2.3535324029998834e-05 -0.84212982159670213 0
1.9296743670846952e-05 -1.3939879804120245 0
1.0205447100348987e-05 -1.9930680922859116 0
5.667990998985668e-06 -2.1659924715293593 0
1.9353628913761037e-06 -2.185442335229109 0
3.8713106660350494e-07 -2.183226390176086 0
7.0698801802839595e-08 -2.1769789327080207 0
1.0836733439937735e-08 -2.1683970125497245 0
1.3826522813918069e-09 -2.1576216284959249 0
1.3863338899658969e-10 -2.1453649459552748 0
9.3149175525013165e-12 -2.133015296029408 0
3.4951233737059266e-17 -2.0027621213412172 0
9.1438946100566499e-06 -0.094605488081162703 0
1.0931548795705935e-05 -0.11019048749221311 0
1.2713192971559466e-05 -0.12381707297302239 0
1.4900936802090799e-05 -0.13869967906247679 0
1.6166702522630033e-05 -0.15530916405417508 0
1.6730877951046357e-05 -0.17440958756260594 0
1.9920093134883356e-05 -0.19703637865021106 0
2.2848399051423438e-05 -0.22464985911194069 0
2.5262789859714706e-05 -0.25947795216863634 0
2.8243900510446563e-05 -0.30498790960039185 0
3.189547550320895e-05 -0.36628548385602666 0
3.5980238527388478e-05 -0.45292940325438913 0
4.0541069646310702e-05 -0.58831281862296037 0
4.6073949755986636e-05 -0.84258366716159194 0
4.8657679319235729e-05 -1.3964590504932339 0
3.6108854552431199e-05 -1.9951712011402192 0
1.9084391992187735e-05 -2.16649298734117 0
5.7375861718738973e-06 -2.1856123093955087 0
9.9282753354793744e-07 -2.1833979378196799 0
1.5458127235564397e-07 -2.1771951482226268 0
2.1384890811067886e-08 -2.1686877194701468 0
2.5158955463639686e-09 -2.1579888621464072 0
2.3593736423472606e-10 -2.1457956833267442 0
1.5031889010302031e-11 -2.1335114949110694 0
3.6731955563482051e-17 -2.0014366862537623 0
2.0190669819119933e-05 -0.094605583857724607 0
2.4133483276450001e-05 -0.11015595504981766 0
2.7813094181111911e-05 -0.12374745696698074 0
3.0886371699603275e-05 -0.13858895458015758 0
3.4092370765469763e-05 -0.15514776649045159 0
4.0598521812484843e-05 -0.17418389471451248 0
4.45881414572021e-05 -0.19672761708348499 0
4.8896155305218786e-05 -0.22422995020435871 0
5.3314571896095013e-05 -0.25891888303592375 0
5.9272466519044151e-05 -0.30426625472302693 0
6.5222173214922108e-05 -0.36540179864246736 0
7.3194951582034189e-05 -0.45193210327469596 0
8.3149615255503879e-05 -0.58747740502116075 0
9.7138659727915761e-05 -0.84345366627203489 0
0.00011569170254995392 -1.4034962091226784 0
0.00010258469910659795 -2.0010794548082442 0
5.6011573609929306e-05 -2.1677258575551388 0
1.5571879122059994e-05 -2.1859014460346247 0
2.1323284677402589e-06 -2.1836510518682108 0
2.8126102102589085e-07 -2.1775164985077282 0
3.5416233186245038e-08 -2.1690975095480654 0
3.8646496707337223e-09 -2.158467789586842 0
3.4132259449727074e-10 -2.1463129237146177 0
2.0742433065163379e-11 -2.134071688909676 0
2.4905284187473498e-17 -1.9996201579835242 0
4.4527571821867691e-05 -0.094024021188537435 0
5.2172215858012679e-05 -0.10949003446521052 0
5.7410422389544749e-05 -0.1229864853158907 0
6.3041244601683724e-05 -0.13768198650325933 0
6.8349388415249297e-05 -0.15405408459085143 0
7.4150294782259949e-05 -0.17283904718296855 0
8.0309375593401995e-05 -0.19503958735190985 0
8.7979492915363453e-05 -0.22209884153192183 0
9.5765896714356647e-05 -0.2562395650042798 0
0.00010522159528738926 -0.30095132563902138 0
0.00011639043838660005 -0.3614584689637248 0
0.0001304655662013145 -0.44758219804685151 0
0.00015040178498828416 -0.58377965791561548 0
0.0001848633703231123 -0.84596494871469785 0
0.00025789745222821596 -1.4270510750804208 0
0.00028099002678187018 -2.0178865425011461 0
0.00014138661382552987 -2.1704135614633526 0
3.1359053446229961e-05 -2.1863280675923678 0
3.3698459865708418e-06 -2.1839954475758359 0
4.0633582760690872e-07 -2.1779993286655159 0
4.6795490524628511e-08 -2.1695924837214529 0
4.7976410133778389e-09 -2.1589872902049709 0
4.0492961981332956e-10 -2.1467889158782474 0
2.3649879977125363e-11 -2.1344480331129851 0
1.0369629154715615e-17 -1.9977064246525669 0
7.1783290259630811e-05 -0.089472018568033607 0
8.2364085556047557e-05 -0.10424767839674953 0
9.0853762494339497e-05 -0.11696559831366735 0
9.9382741857706496e-05 -0.13105587998855209 0
0.0001077987864686513 -0.14685097176572004 0
0.0001158163737514032 -0.16499157110157237 0
0.00012344484331385471 -0.18642275177014359 0
0.00013175445514853172 -0.21257291530535033 0
0.00014095679475703928 -0.24556999610551777 0
0.00015259974922313631 -0.28887321149509015 0
0.0001664279504412625 -0.34773230572579172 0
0.00018468916235374894 -0.43225443107355621 0
0.0002117673827200332 -0.57056304839873928 0
0.00026104700148523358 -0.8623688264200905 0
0.00035415472082928816 -1.5110088841337141 0
0.0003194206669326641 -2.0579079356458534 0
0.00014396749160179348 -2.1755152877733126 0
3.0237468237847291e-05 -2.1870644382416029 0
3.4241282395370888e-06 -2.1844338560646728 0
3.9568182688198016e-07 -2.1784345448249729 0
4.3591847606894916e-08 -2.1700147963248204 0
4.3287403661809765e-09 -2.1593649274404259 0
3.5600662785207605e-10 -2.1469748215889379 0
2.0098776438720924e-11 -2.1342279400922743 0
3.4095372188577719e-18 -1.9964118958458137 0
-0 -0 0
-0 -0 0
-0 -0 0
-0 -0 0
-0 -0 0
-0 -0 0
1.8339880732474996e-05 0.022071914284599932 0
8.8587554652862238e-05 0.11022054039833998 0
0.00011309212413389642 0.16081176359552812 0
-0 -0 0
-0 -0 0
-0 -0 0
7.92390193318177e-05 0.096503568055100811 0
9.1440606483422299e-05 0.12043018530395962 0
0.00011297124712151962 0.17203205975114563 0
-0 -0 0
-0 -0 0
-0 -0 0
5.9867378742025285e-05 0.099489924977758645 0
7.241233801104832e-05 0.12290336358475416 0
9.1741336582564027e-05 0.17487867630851325 0
-0 -0 0
-0 -0 0
-0 -0 0
3.327444679196615e-05 0.10187865292744316 0
4.1478722530719355e-05 0.12491481555722937 0
5.5196642784018772e-05 0.1771236673034339 0
-0 -0 0
-0 -0 0
-0 -0 0
1.4499895119493682e-05 0.10215735634042332 0
1.9055439869158726e-05 0.12530919835771803 0
2.622478969246421e-05 0.17760617091592998 0
-0 -0 0
-0 -0 0
-0 -0 0
4.3772620935692756e-06 0.10211528099016125 0
6.1303178650202419e-06 0.12528339849861087 0
8.3633600944145385e-06 0.17753698345338315 0
-0 -0 0
-0 -0 0
-0 -0 0
-2.6157500304804447e-07 0.10206207753033247 0
-1.0862825851685254e-07 0.12522770888042342 0
-2.6123554588479486e-07 0.17745156828743838 0
-0 -0 0
-0 -0 0
-0 -0 0
-2.1647604203047417e-06 0.10203295275266357 0
-2.6271453612314809e-06 0.12519458523080118 0
-3.7276673110382757e-06 0.17740293822977973 0
-0 -0 0
-0 -0 0
-0 -0 0
-2.4919157715707358e-06 0.10202039525354169 0
-3.1541723223437014e-06 0.12518034542016424 0
-4.442470244703318e-06 0.17738275421565891 0
-0 -0 0
-0 -0 0
-0 -0 0
-3.2213398212013062e-06 0.10201946330077087 0
-4.2448297473476156e-06 0.12517926742814048 0
-5.9601999012628958e-06 0.17738129001125327 0
-0 -0 0
-0 -0 0
-0 -0 0
-4.9275763643766013e-06 0.10203110942700355 0
-6.0918333353631656e-06 0.12519275857998469 0
-8.1120962604932216e-06 0.17740033269571068 0
-0 -0 0
-0 -0 0
-0 -0 0
-6.462637283414374e-06 0.10206139078354091 0
-7.8652201490251135e-06 0.12522705448156016 0
-1.0322337067563335e-05 0.17744997122821116 0
-0 -0 0
-0 -0 0
-0 -0 0
-8.5077268373041515e-06 0.10211615808215763 0
-1.1027769237061298e-05 0.12528427583989291 0
-1.5178366618197634e-05 0.17753727667494748 0
-0 -0 0
-0 -0 0
-0 -0 0
-1.6152989567824676e-05 0.10215974607254294 0
-2.0994844988208604e-05 0.12531130504898577 0
-2.8882625413844633e-05 0.17760780132659185 0
-0 -0 0
-0 -0 0
-0 -0 0
-3.5055564885386076e-05 0.10188279832321598 0
-4.2751826735919298e-05 0.12491795936908275 0
-5.6004631325710332e-05 0.17712610702294856 0
-0 -0 0
-0 -0 0
-0 -0 0
-6.0429952129274966e-05 0.099492275873057007 0
-7.1997823642357193e-05 0.12290560334894647 0
-9.0278543909321762e-05 0.17488121410233323 0
-0 -0 0
-0 -0 0
-0 -0 0
-7.6621296395873594e-05 0.096502768166668931 0
-8.8479467280811041e-05 0.12043050710948651 0
-0.00010881782263392734 0.17203264209976671 0
-0 -0 0
-0 -0 0
-0 -0 0
-1.772801520859001e-05 0.022062692314668203 0
-8.552083387342545e-05 0.11021976430745313 0
-0.00010869889976777878 0.16081036235601753 0
-0 -0 0
-0 -0 0
-0 -0 0
-0 -0 0
-0 -0 0
-0 -0 0
-0 -0 0
-0 -0 0
-0 -0 0
-0 -0 0
-0 -0 0
-0 -0 0
-0 -0 0
-0 -0 0
-0 -0 0
-0 -0 0
-0 -0 0
-0 -0 0
-0 -0 0
-0 -0 0
-0 -0 0
-0 -0 0
-0 -0 0
-0 -0 0
-0 -0 0
-0 -0 0
-0 -0 0
-0 -0 0
-0 -0 0
-0 -0 0
-0 -0 0
-0 -0 0
-0 -0 0
-0 -0 0
-0 -0 0
-0 -0 0
-0 -0 0
-0 -0 0
-0 -0 0
-0 -0 0
-0 -0 0
-0 -0 0
-0 -0 0
-0 -0 0
-0 -0 0
-0 -0 0
-0 -0 0
-0 -0 0
-0 -0 0
-0 -0 0
-0 -0 0
-0 -0 0
-0 -0 0
-0 -0 0
-0 -0 0
-0 -0 0
-0 -0 0
-0 -0 0
-0 -0 0
-0 -0 0
-0 -0 0
-0 -0 0
-0 -0 0
-0 -0 0
-0 -0 0
-0 -0 0
-0 -0 0
-0 -0 0
-0 -0 0
-0 -0 0
-0 -0 0
-0 -0 0
-0 -0 0
-0 -0 0
-0 -0 0
-0 -0 0
-0 -0 0
-0 -0 0
-0 -0 0
-0 -0 0
-0 -0 0
-0 -0 0
-0 -0 0
-0 -0 0
-0 -0 0
-0 -0 0
-0 -0 0
-0 -0 0
-0 -0 0
-0 -0 0
-0 -0 0
-0 -0 0
-0 -0 0
-0 -0 0
-0 -0 0
-0 -0 0
-0 -0 0
-0 -0 0
-0 -0 0
-0 -0 0
-0 -0 0
-0 -0 0
-0 -0 0
-0 -0 0
-0 -0 0
-0 -0 0
-0 -0 0
-0 -0 0
-0 -0 0
-0 -0 0
-0 -0 0
-0 -0 0
-0 -0 0
-0 -0 0
-0 -0 0
-0 -0 0
-0 -0 0
-0 -0 0
-0 -0 0
-0 -0 0
-0 -0 0
-0 -0 0
-0 -0 0
-0 -0 0
-0 -0 0
-0 -0 0
-0 -0 0
-0 -0 0
-0 -0 0
-0 -0 0
-0 -0 0
-0 -0 0
-0 -0 0
-0 -0 0
-0 -0 0
-0 -0 0
-0 -0 0
-0 -0 0
-0 -0 0
-0 -0 0
-0 -0 0
-0 -0 0
-0 -0 0
-0 -0 0
-0 -0 0
-0 -0 0
-0 -0 0
-0 -0 0
-0 -0 0
-0 -0 0
-0 -0 0
-0 -0 0
-0 -0 0
-0 -0 0
-0 -0 0
-0 -0 0
-0 -0 0
-0 -0 0
-0 -0 0
-0 -0 0
-0 -0 0
-0 -0 0
-0 -0 0
-0 -0 0
-0 -0 0
-0 -0 0
-0 -0 0
-0 -0 0
-0 -0 0
-0 -0 0
-0 -0 0
-0 -0 0
-0 -0 0
-0 -0 0
-0 -0 0
-0 -0 0
-0 -0 0
-0 -0 0
-0 -0 0
-0 -0 0
-0 -0 0
-0 -0 0
-0 -0 0
-0 -0 0
-0 -0 0
-0 -0 0
-0 -0 0
-0 -0 0
-0 -0 0
-0 -0 0
-0 -0 0
-0 -0 0
-0 -0 0
-0 -0 0
-0 -0 0
