# vtk DataFile Version 3.0
SPH particles (WCSPH) - legacy PolyData
ASCII
DATASET POLYDATA
POINTS 681 float
0.049990002139343515 0.022688296378814251 0
0.049988596058395687 0.025037049747693579 0
0.049987485911860634 0.026897567838171151 0
0.049986427549404543 0.028751769292110242 0
0.049985469766751174 0.03057918065233424 0
0.049984606516786358 0.032374301593720671 0
0.049983849356839388 0.034140996201560719 0
0.04998301018220315 0.03588692709020265 0
0.049981990911686834 0.037621025303538419 0
0.049980595447087099 0.039352743010354789 0
0.049978428874991508 0.041091795289866992 0
0.04997576352827917 0.042848232831056696 0
0.049974568445220288 0.044632741655273499 0
0.0499756911949416 0.04645678548195218 0
0.049978007774491906 0.048332411066443481 0
0.04998088470526648 0.050272915069621567 0
0.049983818549338609 0.05229467628701269 0
0.049986681070879307 0.054429208672131676 0
0.049989321187124312 0.056704965414330503 0
0.049991601308344277 0.059161409415323087 0
0.049993522952125398 0.061865062035794213 0
0.049995110888013214 0.064886929929118986 0
0.049996438335997068 0.068350408292595616 0
0.049997591229348701 0.072589459244639415 0
0.049999566045723073 0.079354245213665311 0
0.069994623275797668 0.021090745994849586 0
0.069993786638905015 0.023730887683182312 0
0.069993094800341077 0.025856946766882351 0
0.069992463266286373 0.027925386351329164 0
0.069991891940852966 0.029928942757435777 0
0.069991327869073097 0.031872698293252177 0
0.069990764410695225 0.03376835513806694 0
0.06999019038636764 0.035629389514533101 0
0.069989532151567155 0.037468664863345311 0
0.069988576776676373 0.039298550611701746 0
0.069986849181299507 0.041131025779987979 0
0.06998416958599607 0.042977971160384792 0
0.069982486505280203 0.044851646769321706 0
0.069982704099577367 0.046765137754574471 0
0.06998422809653658 0.048732545027689408 0
0.069986380979771209 0.050768452825197388 0
0.069988631629832973 0.052888972481506764 0
0.069990885244784307 0.055123915542070454 0
0.069992835275103471 0.057504631726222763 0
0.069994456787694254 0.060074236771796331 0
0.069995812193002258 0.062895185255633812 0
0.069996901756135238 0.066054759722313075 0
0.069997772883540157 0.069703249934733827 0
0.069998488157805155 0.074203221792350491 0
0.069999680236349504 0.081098425814778788 0
0.089997947287966285 0.021010952684462101 0
0.089997581790918962 0.023657273899455634 0
0.089997329500610068 0.025789628960421505 0
0.089997021421000037 0.02786749133500371 0
0.089996717654463682 0.029882575784086707 0
0.089996465778537121 0.031839290995264842 0
0.089995999565449195 0.033749185909939951 0
0.089995770436472319 0.035625532804382125 0
0.089995447026292322 0.037481209776671617 0
0.089995088257050923 0.039328630431261141 0
0.089994692743690957 0.041179783512714355 0
0.089993935204407516 0.043046707124302731 0
0.089993032494886813 0.04494173508210858 0
0.089992641971119489 0.04687808628440529 0
0.089993145606705516 0.048870445097395666 0
0.089994009438158967 0.050935470485833641 0
0.089994992281304129 0.053090436568458563 0
0.089995919293491641 0.055356647029550253 0
0.089996725404778183 0.057768443047965086 0
0.089997391184046233 0.060369131623885255 0
0.089997960466693769 0.063219083327177739 0
0.089998443837981862 0.066411326179955779 0
0.089998844333595659 0.070098305323455484 0
0.089999190176072108 0.074635948596295645 0
0.089999820573580858 0.081554058663587822 0
0.10999935702365526 0.021027113925088822 0
0.10999917148803826 0.023674584145041248 0
0.10999903117691394 0.025808247399051572 0
0.10999888497347145 0.027887834423168976 0
0.10999874402854824 0.029905031276365377 0
0.10999873327848675 0.03186418366792055 0
0.10999875442964349 0.033776873959335207 0
0.10999867032853609 0.035656284520182928 0
0.10999859691198113 0.037515294205425015 0
0.10999848209226937 0.039366380299110069 0
0.10999826952723432 0.041221584949515805 0
0.10999848707409782 0.043092946810305309 0
0.10999787271190037 0.044992801369493927 0
0.10999734692137961 0.046934471297625319 0
0.1099973811979393 0.048932615832713071 0
0.10999764492519203 0.051004083991892116 0
0.10999793874217566 0.053167350836819803 0
0.10999836350166416 0.055440906170753639 0
0.10999866741200597 0.057859992666838847 0
0.10999892116818244 0.060467604048762148 0
0.10999913067257162 0.063325578350569622 0
0.10999932013369958 0.06652756272877422 0
0.1099994725987983 0.070223039433793794 0
0.10999961750366177 0.074766903084012321 0
0.1099999108059765 0.081681468110551589 0
0.12999988254918574 0.021039223324298438 0
0.12999986171620168 0.023687909141929302 0
0.12999984390791719 0.025822499151714372 0
0.12999983770477447 0.027902992174799926 0
0.12999989330950201 0.029921041894649222 0
0.12999994771460052 0.031881090608506198 0
0.12999998868809406 0.033794754909062356 0
0.13000001977938658 0.035675121429320347 0
0.13000008184744757 0.037535173458833657 0
0.13000019503836369 0.039387343064383913 0
0.13000026109884902 0.041243676851496103 0
0.1300001257991712 0.043116263551705739 0
0.12999986045962159 0.045017569800620154 0
0.1299995750368263 0.046960660504281944 0
0.12999937106772588 0.048960434175322573 0
0.12999926147652172 0.051033610150195342 0
0.12999934753244319 0.053198646103119168 0
0.12999946068972962 0.055474012478747059 0
0.12999955624974269 0.057894963165838503 0
0.12999963641517351 0.060504368610657173 0
0.12999970476963227 0.063364425199693028 0
0.12999975690419335 0.066568594371045328 0
0.12999981453860376 0.070265183469118447 0
0.12999987251015349 0.074808416324067151 0
0.12999996638571359 0.081716889815891161 0
0.15000017764320334 0.021044883595364609 0
0.1500002080330077 0.023694181930179949 0
0.1500002482046445 0.025829250150447933 0
0.15000030167049641 0.027910197358630474 0
0.15000047063273864 0.029928670286391523 0
0.15000051258948624 0.031889086018805232 0
0.15000050981805432 0.033803093866670256 0
0.15000053852399636 0.035683854526884433 0
0.15000058787973403 0.037544292387025398 0
0.1500006417556263 0.039396850094065766 0
0.15000072352336202 0.041253613455732113 0
0.15000059741618854 0.043126612260453223 0
0.15000055368355195 0.045028417734293842 0
0.15000034510725738 0.046972060374260126 0
0.15000013886701685 0.048972323827910169 0
0.15000001419889411 0.051046045898944806 0
0.14999996096038221 0.053211605556273946 0
0.14999996187454229 0.055487487488220952 0
0.14999997581082652 0.057908983528942366 0
0.14999998622975735 0.060518899892278662 0
0.14999997132336393 0.063379375636303775 0
0.14999997767837009 0.066583765687471291 0
0.14999999470420777 0.070280082749235653 0
0.1500000026078204 0.074821991288467324 0
0.15000000056680068 0.081726093429843272 0
0.17000035930383989 0.021047285883061137 0
0.17000043388949265 0.023696839731974718 0
0.17000047348163641 0.025832095910665143 0
0.17000060258683389 0.02791318119073255 0
0.17000068584477177 0.029931776078922254 0
0.17000082155907928 0.031892360767377781 0
0.17000101633133832 0.033806560753875253 0
0.17000107666261294 0.035687468723919126 0
0.17000111331777695 0.03754802394348157 0
0.17000114006645328 0.0394007123405406 0
0.17000114075490985 0.04125763710573839 0
0.17000103454442186 0.043130835403532262 0
0.17000102346120771 0.045032794858851394 0
0.17000101180460286 0.046976526616324787 0
0.17000056946008235 0.04897697007514687 0
0.17000042223256542 0.051050894659001915 0
0.17000031533231888 0.053216656521816626 0
0.17000024931726779 0.055492708575592985 0
0.17000020466027624 0.057914363809963003 0
0.17000017245561885 0.060524397706924311 0
0.17000011449352964 0.063384950690347372 0
0.17000008053579974 0.06658928329102394 0
0.17000005759166784 0.070285280616411594 0
0.17000004386047513 0.074826316409823623 0
0.17000001829641376 0.081728072148373895 0
0.19000029548404138 0.021047952550328829 0
0.19000033595192353 0.023697545700228091 0
0.19000050476987157 0.025832937636154216 0
0.1900005567457359 0.027914037851741732 0
0.19000065508676636 0.029932644296818158 0
0.19000086408280462 0.03189331625229487 0
0.19000107284282544 0.033807479909916047 0
0.19000106309626955 0.035688339678787082 0
0.19000111984760487 0.03754890181327105 0
0.19000115410896667 0.039401638149264812 0
0.19000102857031451 0.041258580474995983 0
0.19000106967294425 0.043131861374216131 0
0.19000075784012035 0.04503386877137569 0
0.19000067471055274 0.046977712506582427 0
0.19000062093176792 0.048978196580003873 0
0.19000043470097827 0.051052170364140385 0
0.190000384390518 0.053217981290566131 0
0.19000037860522825 0.055494075008567643 0
0.190000310591486 0.057915766380782413 0
0.19000034999889515 0.060525839706600873 0
0.19000028162491636 0.063386397507730841 0
0.19000020432704826 0.066590710677666407 0
0.19000012107928177 0.07028659669449297 0
0.19000007917869668 0.074827352319645671 0
0.19000003156739417 0.08172837839457997 0
0.21000034747152729 0.02104734376586553 0
0.21000043032758259 0.02369687154667691 0
0.21000048896930978 0.025832119454652386 0
0.21000055209840751 0.027913233762118437 0
0.21000065295262704 0.029931831686096248 0
0.21000068046910478 0.031892428222266435 0
0.21000077560656411 0.033806610423661322 0
0.21000080841461718 0.03568751324600139 0
0.21000086995590012 0.037548089147572565 0
0.21000090461426016 0.039400812233855539 0
0.21000088022589128 0.041257727052832954 0
0.21000083997058314 0.043130910434659477 0
0.21000066864448669 0.045032818309787108 0
0.21000051980755619 0.046976587868053254 0
0.21000050534245426 0.048977042646663131 0
0.21000041381604129 0.051050927688442625 0
0.210000380064819 0.053216701213339171 0
0.21000042660648188 0.055492759289709356 0
0.21000026026787386 0.057914420566360293 0
0.21000022419510403 0.060524485455053074 0
0.21000018926773609 0.063385035293528694 0
0.21000017302454352 0.066589401241191767 0
0.21000012485186256 0.070285406037101983 0
0.21000009002847966 0.074826448444846247 0
0.21000003641133089 0.081728174478725699 0
0.23000042346618862 0.021044959726240205 0
0.23000050517282813 0.023694293883551702 0
0.23000058567428144 0.025829379518761807 0
0.23000066636002697 0.027910275893526289 0
0.23000079225351605 0.029928781421333719 0
0.23000087916462494 0.031889207978618092 0
0.23000097185529791 0.033803242968080668 0
0.23000101935827844 0.035683989866622523 0
0.23000114233105959 0.037544423389328868 0
0.23000122071576809 0.039396971280374116 0
0.23000123616776516 0.041253738740570013 0
0.23000106484954075 0.043126797428792413 0
0.23000088654054152 0.045028585570653951 0
0.23000080132634668 0.04697217771610155 0
0.23000078996394269 0.04897241762318507 0
0.23000072173106964 0.051046147312920259 0
0.23000062264060958 0.053211740742688758 0
0.23000051940358687 0.055487653185096374 0
0.23000047878283367 0.05790914860696536 0
0.23000039927830213 0.060519085373221294 0
0.23000032970199852 0.063379565462301141 0
0.230000267638763 0.06658396881599761 0
0.23000021075751997 0.070280278275933319 0
0.23000015926587861 0.074822174618576334 0
0.23000004463080989 0.081726260646509064 0
0.25000060351382558 0.021039238530753263 0
0.25000071836374332 0.023687933601725015 0
0.25000080098147215 0.02582258855726384 0
0.25000093279274987 0.027903127952122086 0
0.2500010438846898 0.029921190966802479 0
0.25000115410349749 0.031881251829529986 0
0.25000120167778644 0.033794944632069092 0
0.25000135672499019 0.035675336091676849 0
0.25000144608764258 0.037535397817053645 0
0.25000156253442823 0.039387536736169425 0
0.25000163390580243 0.041243888300106654 0
0.25000155848818933 0.043116485392379181 0
0.25000143058199209 0.045017852156674872 0
0.25000158968427766 0.046960911266888589 0
0.25000147422430524 0.048960678168898056 0
0.25000138723804682 0.051033892793752866 0
0.25000121079568666 0.053198947452943811 0
0.25000100001599013 0.055474298789518969 0
0.25000083605797491 0.057895232661194389 0
0.25000069736989466 0.060504641148953167 0
0.25000056876581628 0.063364699690123219 0
0.25000045048667635 0.066568851189928641 0
0.25000034925142461 0.070265433669153568 0
0.25000025737459841 0.074808642614517834 0
0.25000006349582454 0.081717135134535532 0
0.27000098019938817 0.021027155325676384 0
0.27000117632435838 0.023674640063552261 0
0.27000131798713239 0.025808319408476901 0
0.27000147771121519 0.027887938202869368 0
0.27000176731479286 0.029905185944985889 0
0.27000193160435548 0.031864368940866555 0
0.27000210000148706 0.033777154707899014 0
0.27000229497298139 0.035656585579210712 0
0.27000250421090149 0.037515618576849694 0
0.27000270996814085 0.039366706761346612 0
0.27000292452700903 0.041221880267340888 0
0.27000301251109526 0.043093208026071868 0
0.27000346701662548 0.044993087581091502 0
0.27000342140842554 0.046934727779328646 0
0.2700032468781231 0.048932888616303183 0
0.27000289604255562 0.051004402252420554 0
0.27000245387280591 0.053167706478668225 0
0.27000200308576161 0.055441277441699209 0
0.27000164170378166 0.057860324889697674 0
0.27000134451833341 0.060467927763728391 0
0.27000108286207875 0.063325907654067745 0
0.27000085585229322 0.066527887560948809 0
0.27000065414334246 0.070223366133290985 0
0.27000047466447852 0.074767221009260601 0
0.27000011462069129 0.081681777636609956 0
0.29000228104867443 0.021011058648465614 0
0.29000267550816677 0.023657362174309485 0
0.29000298132865338 0.02578973193933946 0
0.29000329085874632 0.027867627387953203 0
0.29000360131803227 0.02988269940239378 0
0.29000395285338293 0.031839441761143707 0
0.29000430123251025 0.03374948661646985 0
0.29000470407260553 0.035625885922484585 0
0.29000514905136593 0.037481577438104562 0
0.29000565126481481 0.039328988659922126 0
0.29000622429615991 0.041180158173588749 0
0.29000684373082936 0.043047035186925611 0
0.29000749730856634 0.04494205106221548 0
0.29000767055229615 0.046878376892147348 0
0.29000718828548322 0.048870735048842429 0
0.29000636303637239 0.050935774896505526 0
0.29000536009243388 0.053090794952753054 0
0.29000439677874285 0.055357023649195577 0
0.29000352739526458 0.057768810181622499 0
0.29000280522650673 0.060369476236636688 0
0.29000220158776929 0.063219430785336955 0
0.29000169919318292 0.066411684228458098 0
0.29000127696862915 0.07009866353575453 0
0.29000090367730436 0.0746362993221307 0
0.29000021196704601 0.081554385231376453 0
0.31000559051215554 0.021090919216287175 0
0.31000645451829545 0.023731092178931552 0
0.31000709449999952 0.025857130342231163 0
0.31000770295814417 0.027925642647578408 0
0.31000829693979187 0.029929206088662976 0
0.31000889569689183 0.031872915109533516 0
0.31000949840491165 0.03376866572323052 0
0.31001008786444467 0.03562972705532011 0
0.31001079958353417 0.037468981574659284 0
0.31001175156463123 0.039298838458904112 0
0.31001356285285786 0.041131271813127139 0
0.31001625166884661 0.042978222040031003 0
0.31001774743953558 0.044851929693465076 0
0.31001734249607898 0.046765421117989252 0
0.31001589094980114 0.048732817552572937 0
0.31001385977091817 0.05076872948702614 0
0.31001159208364909 0.052889277603448158 0
0.31000936360888687 0.055124262459625525 0
0.31000738550835188 0.057505028500824285 0
0.31000570946326678 0.060074627143130097 0
0.31000433229119179 0.062895581789432359 0
0.31000322229000626 0.066055123344352637 0
0.31000232020142643 0.069703595267114449 0
0.31000157208135598 0.074203557510968535 0
0.31000033974098129 0.081098727990820532 0
0.33000969836111671 0.022688646810932109 0
0.3300110427849709 0.025037391345904082 0
0.33001209814380045 0.026897886578321727 0
0.33001309278951158 0.028752060080024681 0
0.33001397403307448 0.030579443028698614 0
0.33001477792009476 0.032374525707346183 0
0.33001553663269451 0.034141195753548251 0
0.33001634041316785 0.035887093179421743 0
0.33001720605102902 0.037621149050924882 0
0.33001839364856633 0.039352827518158155 0
0.33002043736339909 0.041091850073283254 0
0.33002307612723131 0.042848278307729921 0
0.33002418015833934 0.044632776936186828 0
0.33002302306157189 0.046456783077984377 0
0.33002083295293644 0.048332404572626365 0
0.33001810968704975 0.050272899970567546 0
0.33001519598076945 0.052294661731405255 0
0.33001237016137314 0.054429176836952566 0
0.33000985135701838 0.056704942842808907 0
0.33000768483146653 0.059161384596236044 0
0.33000588751231086 0.061865010545557444 0
0.33000440962372407 0.064886849728446841 0
0.33000319529836519 0.068350305453839036 0
0.33000218580566293 0.072589362875484745 0
0.33000040414346221 0.079354256209214741 0
0 0 0
0 0.020000000000000004 0
0 0.040000000000000001 0
0 0.54999999999999993 0
0 0.56000000000000005 0
0 0.58000000000000007 0
0.02 0 0
0.02 0.020000000000000004 0
0.02 0.040000000000000001 0
0.02 0.54999999999999993 0
0.02 0.56000000000000005 0
0.02 0.58000000000000007 0
0.040000000000000001 0 0
0.040000000000000001 0.020000000000000004 0
0.040000000000000001 0.040000000000000001 0
0.040000000000000001 0.54999999999999993 0
0.040000000000000001 0.56000000000000005 0
0.040000000000000001 0.58000000000000007 0
0.059999999999999998 0 0
0.059999999999999998 0.020000000000000004 0
0.059999999999999998 0.040000000000000001 0
0.059999999999999998 0.54999999999999993 0
0.059999999999999998 0.56000000000000005 0
0.059999999999999998 0.58000000000000007 0
0.080000000000000002 0 0
0.080000000000000002 0.020000000000000004 0
0.080000000000000002 0.040000000000000001 0
0.080000000000000002 0.54999999999999993 0
0.080000000000000002 0.56000000000000005 0
0.080000000000000002 0.58000000000000007 0
0.10000000000000001 0 0
0.10000000000000001 0.020000000000000004 0
0.10000000000000001 0.040000000000000001 0
0.10000000000000001 0.54999999999999993 0
0.10000000000000001 0.56000000000000005 0
0.10000000000000001 0.58000000000000007 0
0.12 0 0
0.12 0.020000000000000004 0
0.12 0.040000000000000001 0
0.12 0.54999999999999993 0
0.12 0.56000000000000005 0
0.12 0.58000000000000007 0
0.14000000000000001 0 0
0.14000000000000001 0.020000000000000004 0
0.14000000000000001 0.040000000000000001 0
0.14000000000000001 0.54999999999999993 0
0.14000000000000001 0.56000000000000005 0
0.14000000000000001 0.58000000000000007 0
0.16 0 0
0.16 0.020000000000000004 0
0.16 0.040000000000000001 0
0.16 0.54999999999999993 0
0.16 0.56000000000000005 0
0.16 0.58000000000000007 0
0.17999999999999999 0 0
0.17999999999999999 0.020000000000000004 0
0.17999999999999999 0.040000000000000001 0
0.17999999999999999 0.54999999999999993 0
0.17999999999999999 0.56000000000000005 0
0.17999999999999999 0.58000000000000007 0
0.20000000000000001 0 0
0.20000000000000001 0.020000000000000004 0
0.20000000000000001 0.040000000000000001 0
0.20000000000000001 0.54999999999999993 0
0.20000000000000001 0.56000000000000005 0
0.20000000000000001 0.58000000000000007 0
0.22 0 0
0.22 0.020000000000000004 0
0.22 0.040000000000000001 0
0.22 0.54999999999999993 0
0.22 0.56000000000000005 0
0.22 0.58000000000000007 0
0.23999999999999999 0 0
0.23999999999999999 0.020000000000000004 0
0.23999999999999999 0.040000000000000001 0
0.23999999999999999 0.54999999999999993 0
0.23999999999999999 0.56000000000000005 0
0.23999999999999999 0.58000000000000007 0
0.26000000000000001 0 0
0.26000000000000001 0.020000000000000004 0
0.26000000000000001 0.040000000000000001 0
0.26000000000000001 0.54999999999999993 0
0.26000000000000001 0.56000000000000005 0
0.26000000000000001 0.58000000000000007 0
0.28000000000000003 0 0
0.28000000000000003 0.020000000000000004 0
0.28000000000000003 0.040000000000000001 0
0.28000000000000003 0.54999999999999993 0
0.28000000000000003 0.56000000000000005 0
0.28000000000000003 0.58000000000000007 0
0.29999999999999999 0 0
0.29999999999999999 0.020000000000000004 0
0.29999999999999999 0.040000000000000001 0
0.29999999999999999 0.54999999999999993 0
0.29999999999999999 0.56000000000000005 0
0.29999999999999999 0.58000000000000007 0
0.32000000000000001 0 0
0.32000000000000001 0.020000000000000004 0
0.32000000000000001 0.040000000000000001 0
0.32000000000000001 0.54999999999999993 0
0.32000000000000001 0.56000000000000005 0
0.32000000000000001 0.58000000000000007 0
0.34000000000000002 0 0
0.34000000000000002 0.020000000000000004 0
0.34000000000000002 0.040000000000000001 0
0.34000000000000002 0.54999999999999993 0
0.34000000000000002 0.56000000000000005 0
0.34000000000000002 0.58000000000000007 0
0.35999999999999999 0 0
0.35999999999999999 0.020000000000000004 0
0.35999999999999999 0.040000000000000001 0
0.35999999999999999 0.54999999999999993 0
0.35999999999999999 0.56000000000000005 0
0.35999999999999999 0.58000000000000007 0
0.38 0 0
0.38 0.020000000000000004 0
0.38 0.040000000000000001 0
0.38 0.54999999999999993 0
0.38 0.56000000000000005 0
0.38 0.58000000000000007 0
0.40000000000000002 0 0
0.40000000000000002 0.020000000000000004 0
0.40000000000000002 0.040000000000000001 0
0.40000000000000002 0.54999999999999993 0
0.40000000000000002 0.56000000000000005 0
0.40000000000000002 0.58000000000000007 0
0.41999999999999998 0 0
0.41999999999999998 0.020000000000000004 0
0.41999999999999998 0.040000000000000001 0
0.41999999999999998 0.54999999999999993 0
0.41999999999999998 0.56000000000000005 0
0.41999999999999998 0.58000000000000007 0
0.44 0 0
0.44 0.020000000000000004 0
0.44 0.040000000000000001 0
0.44 0.54999999999999993 0
0.44 0.56000000000000005 0
0.44 0.58000000000000007 0
0.46000000000000002 0 0
0.46000000000000002 0.020000000000000004 0
0.46000000000000002 0.040000000000000001 0
0.46000000000000002 0.54999999999999993 0
0.46000000000000002 0.56000000000000005 0
0.46000000000000002 0.58000000000000007 0
0.47999999999999998 0 0
0.47999999999999998 0.020000000000000004 0
0.47999999999999998 0.040000000000000001 0
0.47999999999999998 0.54999999999999993 0
0.47999999999999998 0.56000000000000005 0
0.47999999999999998 0.58000000000000007 0
0.5 0 0
0.5 0.020000000000000004 0
0.5 0.040000000000000001 0
0.5 0.54999999999999993 0
0.5 0.56000000000000005 0
0.5 0.58000000000000007 0
0.52000000000000002 0 0
0.52000000000000002 0.020000000000000004 0
0.52000000000000002 0.040000000000000001 0
0.52000000000000002 0.54999999999999993 0
0.52000000000000002 0.56000000000000005 0
0.52000000000000002 0.58000000000000007 0
0.54000000000000004 0 0
0.54000000000000004 0.020000000000000004 0
0.54000000000000004 0.040000000000000001 0
0.54000000000000004 0.54999999999999993 0
0.54000000000000004 0.56000000000000005 0
0.54000000000000004 0.58000000000000007 0
0.56000000000000005 0 0
0.56000000000000005 0.020000000000000004 0
0.56000000000000005 0.040000000000000001 0
0.56000000000000005 0.54999999999999993 0
0.56000000000000005 0.56000000000000005 0
0.56000000000000005 0.58000000000000007 0
0.57999999999999996 0 0
0.57999999999999996 0.020000000000000004 0
0.57999999999999996 0.040000000000000001 0
0.57999999999999996 0.54999999999999993 0
0.57999999999999996 0.56000000000000005 0
0.57999999999999996 0.58000000000000007 0
0.59999999999999998 0 0
0.59999999999999998 0.020000000000000004 0
0.59999999999999998 0.040000000000000001 0
0.59999999999999998 0.54999999999999993 0
0.59999999999999998 0.56000000000000005 0
0.59999999999999998 0.58000000000000007 0
0.62 0 0
0.62 0.020000000000000004 0
0.62 0.040000000000000001 0
0.62 0.54999999999999993 0
0.62 0.56000000000000005 0
0.62 0.58000000000000007 0
0.64000000000000001 0 0
0.64000000000000001 0.020000000000000004 0
0.64000000000000001 0.040000000000000001 0
0.64000000000000001 0.54999999999999993 0
0.64000000000000001 0.56000000000000005 0
0.64000000000000001 0.58000000000000007 0
0.66000000000000003 0 0
0.66000000000000003 0.020000000000000004 0
0.66000000000000003 0.040000000000000001 0
0.66000000000000003 0.54999999999999993 0
0.66000000000000003 0.56000000000000005 0
0.66000000000000003 0.58000000000000007 0
0.68000000000000005 0 0
0.68000000000000005 0.020000000000000004 0
0.68000000000000005 0.040000000000000001 0
0.68000000000000005 0.54999999999999993 0
0.68000000000000005 0.56000000000000005 0
0.68000000000000005 0.58000000000000007 0
0.70000000000000007 0 0
0.70000000000000007 0.020000000000000004 0
0.70000000000000007 0.040000000000000001 0
0.70000000000000007 0.54999999999999993 0
0.70000000000000007 0.56000000000000005 0
0.70000000000000007 0.58000000000000007 0
0.71999999999999997 0 0
0.71999999999999997 0.020000000000000004 0
0.71999999999999997 0.040000000000000001 0
0.71999999999999997 0.54999999999999993 0
0.71999999999999997 0.56000000000000005 0
0.71999999999999997 0.58000000000000007 0
0.73999999999999999 0 0
0.73999999999999999 0.020000000000000004 0
0.73999999999999999 0.040000000000000001 0
0.73999999999999999 0.54999999999999993 0
0.73999999999999999 0.56000000000000005 0
0.73999999999999999 0.58000000000000007 0
0.76000000000000001 0 0
0.76000000000000001 0.020000000000000004 0
0.76000000000000001 0.040000000000000001 0
0.76000000000000001 0.54999999999999993 0
0.76000000000000001 0.56000000000000005 0
0.76000000000000001 0.58000000000000007 0
0.78000000000000003 0 0
0.78000000000000003 0.020000000000000004 0
0.78000000000000003 0.040000000000000001 0
0.78000000000000003 0.54999999999999993 0
0.78000000000000003 0.56000000000000005 0
0.78000000000000003 0.58000000000000007 0
0.80000000000000004 0 0
0.80000000000000004 0.020000000000000004 0
0.80000000000000004 0.040000000000000001 0
0.80000000000000004 0.54999999999999993 0
0.80000000000000004 0.56000000000000005 0
0.80000000000000004 0.58000000000000007 0
0.82000000000000006 0 0
0.82000000000000006 0.020000000000000004 0
0.82000000000000006 0.040000000000000001 0
0.82000000000000006 0.54999999999999993 0
0.82000000000000006 0.56000000000000005 0
0.82000000000000006 0.58000000000000007 0
0.83999999999999997 0 0
0.83999999999999997 0.020000000000000004 0
0.83999999999999997 0.040000000000000001 0
0.83999999999999997 0.54999999999999993 0
0.83999999999999997 0.56000000000000005 0
0.83999999999999997 0.58000000000000007 0
0.85999999999999999 0 0
0.85999999999999999 0.020000000000000004 0
0.85999999999999999 0.040000000000000001 0
0.85999999999999999 0.54999999999999993 0
0.85999999999999999 0.56000000000000005 0
0.85999999999999999 0.58000000000000007 0
0.88 0 0
0.88 0.020000000000000004 0
0.88 0.040000000000000001 0
0.88 0.54999999999999993 0
0.88 0.56000000000000005 0
0.88 0.58000000000000007 0
0.90000000000000002 0 0
0.90000000000000002 0.020000000000000004 0
0.90000000000000002 0.040000000000000001 0
0.90000000000000002 0.54999999999999993 0
0.90000000000000002 0.56000000000000005 0
0.90000000000000002 0.58000000000000007 0
0.92000000000000004 0 0
0.92000000000000004 0.020000000000000004 0
0.92000000000000004 0.040000000000000001 0
0.92000000000000004 0.54999999999999993 0
0.92000000000000004 0.56000000000000005 0
0.92000000000000004 0.58000000000000007 0
0.94000000000000006 0 0
0.94000000000000006 0.020000000000000004 0
0.94000000000000006 0.040000000000000001 0
0.94000000000000006 0.54999999999999993 0
0.94000000000000006 0.56000000000000005 0
0.94000000000000006 0.58000000000000007 0
0.95999999999999996 0 0
0.95999999999999996 0.020000000000000004 0
0.95999999999999996 0.040000000000000001 0
0.95999999999999996 0.54999999999999993 0
0.95999999999999996 0.56000000000000005 0
0.95999999999999996 0.58000000000000007 0
0.97999999999999998 0 0
0.97999999999999998 0.020000000000000004 0
0.97999999999999998 0.040000000000000001 0
0.97999999999999998 0.54999999999999993 0
0.97999999999999998 0.56000000000000005 0
0.97999999999999998 0.58000000000000007 0
1 0 0
1 0.020000000000000004 0
1 0.040000000000000001 0
1 0.54999999999999993 0
1 0.56000000000000005 0
1 0.58000000000000007 0
VERTICES 681 1362
1 0
1 1
1 2
1 3
1 4
1 5
1 6
1 7
1 8
1 9
1 10
1 11
1 12
1 13
1 14
1 15
1 16
1 17
1 18
1 19
1 20
1 21
1 22
1 23
1 24
1 25
1 26
1 27
1 28
1 29
1 30
1 31
1 32
1 33
1 34
1 35
1 36
1 37
1 38
1 39
1 40
1 41
1 42
1 43
1 44
1 45
1 46
1 47
1 48
1 49
1 50
1 51
1 52
1 53
1 54
1 55
1 56
1 57
1 58
1 59
1 60
1 61
1 62
1 63
1 64
1 65
1 66
1 67
1 68
1 69
1 70
1 71
1 72
1 73
1 74
1 75
1 76
1 77
1 78
1 79
1 80
1 81
1 82
1 83
1 84
1 85
1 86
1 87
1 88
1 89
1 90
1 91
1 92
1 93
1 94
1 95
1 96
1 97
1 98
1 99
1 100
1 101
1 102
1 103
1 104
1 105
1 106
1 107
1 108
1 109
1 110
1 111
1 112
1 113
1 114
1 115
1 116
1 117
1 118
1 119
1 120
1 121
1 122
1 123
1 124
1 125
1 126
1 127
1 128
1 129
1 130
1 131
1 132
1 133
1 134
1 135
1 136
1 137
1 138
1 139
1 140
1 141
1 142
1 143
1 144
1 145
1 146
1 147
1 148
1 149
1 150
1 151
1 152
1 153
1 154
1 155
1 156
1 157
1 158
1 159
1 160
1 161
1 162
1 163
1 164
1 165
1 166
1 167
1 168
1 169
1 170
1 171
1 172
1 173
1 174
1 175
1 176
1 177
1 178
1 179
1 180
1 181
1 182
1 183
1 184
1 185
1 186
1 187
1 188
1 189
1 190
1 191
1 192
1 193
1 194
1 195
1 196
1 197
1 198
1 199
1 200
1 201
1 202
1 203
1 204
1 205
1 206
1 207
1 208
1 209
1 210
1 211
1 212
1 213
1 214
1 215
1 216
1 217
1 218
1 219
1 220
1 221
1 222
1 223
1 224
1 225
1 226
1 227
1 228
1 229
1 230
1 231
1 232
1 233
1 234
1 235
1 236
1 237
1 238
1 239
1 240
1 241
1 242
1 243
1 244
1 245
1 246
1 247
1 248
1 249
1 250
1 251
1 252
1 253
1 254
1 255
1 256
1 257
1 258
1 259
1 260
1 261
1 262
1 263
1 264
1 265
1 266
1 267
1 268
1 269
1 270
1 271
1 272
1 273
1 274
1 275
1 276
1 277
1 278
1 279
1 280
1 281
1 282
1 283
1 284
1 285
1 286
1 287
1 288
1 289
1 290
1 291
1 292
1 293
1 294
1 295
1 296
1 297
1 298
1 299
1 300
1 301
1 302
1 303
1 304
1 305
1 306
1 307
1 308
1 309
1 310
1 311
1 312
1 313
1 314
1 315
1 316
1 317
1 318
1 319
1 320
1 321
1 322
1 323
1 324
1 325
1 326
1 327
1 328
1 329
1 330
1 331
1 332
1 333
1 334
1 335
1 336
1 337
1 338
1 339
1 340
1 341
1 342
1 343
1 344
1 345
1 346
1 347
1 348
1 349
1 350
1 351
1 352
1 353
1 354
1 355
1 356
1 357
1 358
1 359
1 360
1 361
1 362
1 363
1 364
1 365
1 366
1 367
1 368
1 369
1 370
1 371
1 372
1 373
1 374
1 375
1 376
1 377
1 378
1 379
1 380
1 381
1 382
1 383
1 384
1 385
1 386
1 387
1 388
1 389
1 390
1 391
1 392
1 393
1 394
1 395
1 396
1 397
1 398
1 399
1 400
1 401
1 402
1 403
1 404
1 405
1 406
1 407
1 408
1 409
1 410
1 411
1 412
1 413
1 414
1 415
1 416
1 417
1 418
1 419
1 420
1 421
1 422
1 423
1 424
1 425
1 426
1 427
1 428
1 429
1 430
1 431
1 432
1 433
1 434
1 435
1 436
1 437
1 438
1 439
1 440
1 441
1 442
1 443
1 444
1 445
1 446
1 447
1 448
1 449
1 450
1 451
1 452
1 453
1 454
1 455
1 456
1 457
1 458
1 459
1 460
1 461
1 462
1 463
1 464
1 465
1 466
1 467
1 468
1 469
1 470
1 471
1 472
1 473
1 474
1 475
1 476
1 477
1 478
1 479
1 480
1 481
1 482
1 483
1 484
1 485
1 486
1 487
1 488
1 489
1 490
1 491
1 492
1 493
1 494
1 495
1 496
1 497
1 498
1 499
1 500
1 501
1 502
1 503
1 504
1 505
1 506
1 507
1 508
1 509
1 510
1 511
1 512
1 513
1 514
1 515
1 516
1 517
1 518
1 519
1 520
1 521
1 522
1 523
1 524
1 525
1 526
1 527
1 528
1 529
1 530
1 531
1 532
1 533
1 534
1 535
1 536
1 537
1 538
1 539
1 540
1 541
1 542
1 543
1 544
1 545
1 546
1 547
1 548
1 549
1 550
1 551
1 552
1 553
1 554
1 555
1 556
1 557
1 558
1 559
1 560
1 561
1 562
1 563
1 564
1 565
1 566
1 567
1 568
1 569
1 570
1 571
1 572
1 573
1 574
1 575
1 576
1 577
1 578
1 579
1 580
1 581
1 582
1 583
1 584
1 585
1 586
1 587
1 588
1 589
1 590
1 591
1 592
1 593
1 594
1 595
1 596
1 597
1 598
1 599
1 600
1 601
1 602
1 603
1 604
1 605
1 606
1 607
1 608
1 609
1 610
1 611
1 612
1 613
1 614
1 615
1 616
1 617
1 618
1 619
1 620
1 621
1 622
1 623
1 624
1 625
1 626
1 627
1 628
1 629
1 630
1 631
1 632
1 633
1 634
1 635
1 636
1 637
1 638
1 639
1 640
1 641
1 642
1 643
1 644
1 645
1 646
1 647
1 648
1 649
1 650
1 651
1 652
1 653
1 654
1 655
1 656
1 657
1 658
1 659
1 660
1 661
1 662
1 663
1 664
1 665
1 666
1 667
1 668
1 669
1 670
1 671
1 672
1 673
1 674
1 675
1 676
1 677
1 678
1 679
1 680
POINT_DATA 681
SCALARS is_boundary int 1
LOOKUP_TABLE default
0
0
0
0
0
0
0
0
0
0
0
0
0
0
0
0
0
0
0
0
0
0
0
0
0
0
0
0
0
0
0
0
0
0
0
0
0
0
0
0
0
0
0
0
0
0
0
0
0
0
0
0
0
0
0
0
0
0
0
0
0
0
0
0
0
0
0
0
0
0
0
0
0
0
0
0
0
0
0
0
0
0
0
0
0
0
0
0
0
0
0
0
0
0
0
0
0
0
0
0
0
0
0
0
0
0
0
0
0
0
0
0
0
0
0
0
0
0
0
0
0
0
0
0
0
0
0
0
0
0
0
0
0
0
0
0
0
0
0
0
0
0
0
0
0
0
0
0
0
0
0
0
0
0
0
0
0
0
0
0
0
0
0
0
0
0
0
0
0
0
0
0
0
0
0
0
0
0
0
0
0
0
0
0
0
0
0
0
0
0
0
0
0
0
0
0
0
0
0
0
0
0
0
0
0
0
0
0
0
0
0
0
0
0
0
0
0
0
0
0
0
0
0
0
0
0
0
0
0
0
0
0
0
0
0
0
0
0
0
0
0
0
0
0
0
0
0
0
0
0
0
0
0
0
0
0
0
0
0
0
0
0
0
0
0
0
0
0
0
0
0
0
0
0
0
0
0
0
0
0
0
0
0
0
0
0
0
0
0
0
0
0
0
0
0
0
0
0
0
0
0
0
0
0
0
0
0
0
0
0
0
0
0
0
0
0
0
0
0
0
0
0
0
0
0
0
0
0
0
0
0
0
0
0
0
0
0
0
0
0
0
0
0
0
0
0
0
0
0
0
0
0
0
0
0
0
0
0
0
0
0
0
0
0
0
0
0
0
0
0
0
0
0
0
0
1
1
1
1
1
1
1
1
1
1
1
1
1
1
1
1
1
1
1
1
1
1
1
1
1
1
1
1
1
1
1
1
1
1
1
1
1
1
1
1
1
1
1
1
1
1
1
1
1
1
1
1
1
1
1
1
1
1
1
1
1
1
1
1
1
1
1
1
1
1
1
1
1
1
1
1
1
1
1
1
1
1
1
1
1
1
1
1
1
1
1
1
1
1
1
1
1
1
1
1
1
1
1
1
1
1
1
1
1
1
1
1
1
1
1
1
1
1
1
1
1
1
1
1
1
1
1
1
1
1
1
1
1
1
1
1
1
1
1
1
1
1
1
1
1
1
1
1
1
1
1
1
1
1
1
1
1
1
1
1
1
1
1
1
1
1
1
1
1
1
1
1
1
1
1
1
1
1
1
1
1
1
1
1
1
1
1
1
1
1
1
1
1
1
1
1
1
1
1
1
1
1
1
1
1
1
1
1
1
1
1
1
1
1
1
1
1
1
1
1
1
1
1
1
1
1
1
1
1
1
1
1
1
1
1
1
1
1
1
1
1
1
1
1
1
1
1
1
1
1
1
1
1
1
1
1
1
1
1
1
1
1
1
1
1
1
1
1
1
1
1
1
1
1
1
1
1
1
1
1
1
1
1
1
1
1
1
1
1
1
1
1
1
1
1
1
1
1
1
1
1
1
1
1
1
1
SCALARS rho float 1
LOOKUP_TABLE default
1020
1020
1020
1020
1020
1020
1020
1020
1020
1020
1020
1020
1020
1020
1020
1020
1020
1020
1020
1020
1020
1020
1020
1020
1020
1020
1020
1020
1020
1020
1020
1020
1020
1020
1020
1020
1020
1020
1020
1020
1020
1020
1020
1020
1020
1020
1020
1020
1020
1020
1020
1020
1020
1020
1020
1020
1020
1020
1020
1020
1020
1020
1020
1020
1020
1020
1020
1020
1020
1020
1020
1020
1020
1020
1020
1020
1020
1020
1020
1020
1020
1020
1020
1020
1020
1020
1020
1020
1020
1020
1020
1020
1020
1020
1020
1020
1020
1020
1020
1020
1020
1020
1020
1020
1020
1020
1020
1020
1020
1020
1020
1020
1020
1020
1020
1020
1020
1020
1020
1020
1020
1020
1020
1020
1020
1020
1020
1020
1020
1020
1020
1020
1020
1020
1020
1020
1020
1020
1020
1020
1020
1020
1020
1020
1020
1020
1020
1020
1020
1020
1020
1020
1020
1020
1020
1020
1020
1020
1020
1020
1020
1020
1020
1020
1020
1020
1020
1020
1020
1020
1020
1020
1020
1020
1020
1020
1020
1020
1020
1020
1020
1020
1020
1020
1020
1020
1020
1020
1020
1020
1020
1020
1020
1020
1020
1020
1020
1020
1020
1020
1020
1020
1020
1020
1020
1020
1020
1020
1020
1020
1020
1020
1020
1020
1020
1020
1020
1020
1020
1020
1020
1020
1020
1020
1020
1020
1020
1020
1020
1020
1020
1020
1020
1020
1020
1020
1020
1020
1020
1020
1020
1020
1020
1020
1020
1020
1020
1020
1020
1020
1020
1020
1020
1020
1020
1020
1020
1020
1020
1020
1020
1020
1020
1020
1020
1020
1020
1020
1020
1020
1020
1020
1020
1020
1020
1020
1020
1020
1020
1020
1020
1020
1020
1020
1020
1020
1020
1020
1020
1020
1020
1020
1020
1020
1020
1020
1020
1020
1020
1020
1020
1020
1020
1020
1020
1020
1020
1020
1020
1020
1020
1020
1020
1020
1020
1020
1020
1020
1020
1020
1020
1020
1020
1020
1020
1020
1020
1020
1020
1020
1020
1020
1020
1020
1020
1020
1020
1020
1020
1020
1020
1020
1020
1020
1020
1020
1020
1020
1020
1020
1020
1020
1020
1020
1020
1020
1020
1020
1020
1020
1020
1020
1020
1020
1020
1020
1020
1020
1020
1020
1020
1020
1020
1020
1020
1000
1000
1000
1000
1000
1000
1000
1000
1000
1000
1000
1000
1000
1000
1000
1000
1000
1000
1000
1000
1000
1000
1000
1000
1000
1000
1000
1000
1000
1000
1000
1000
1000
1000
1000
1000
1000
1000
1000
1000
1000
1000
1000
1000
1000
1000
1000
1000
1000
1000
1000
1000
1000
1000
1000
1000
1000
1000
1000
1000
1000
1000
1000
1000
1000
1000
1000
1000
1000
1000
1000
1000
1000
1000
1000
1000
1000
1000
1000
1000
1000
1000
1000
1000
1000
1000
1000
1000
1000
1000
1000
1000
1000
1000
1000
1000
1000
1000
1000
1000
1000
1000
1000
1000
1000
1000
1000
1000
1000
1000
1000
1000
1000
1000
1000
1000
1000
1000
1000
1000
1000
1000
1000
1000
1000
1000
1000
1000
1000
1000
1000
1000
1000
1000
1000
1000
1000
1000
1000
1000
1000
1000
1000
1000
1000
1000
1000
1000
1000
1000
1000
1000
1000
1000
1000
1000
1000
1000
1000
1000
1000
1000
1000
1000
1000
1000
1000
1000
1000
1000
1000
1000
1000
1000
1000
1000
1000
1000
1000
1000
1000
1000
1000
1000
1000
1000
1000
1000
1000
1000
1000
1000
1000
1000
1000
1000
1000
1000
1000
1000
1000
1000
1000
1000
1000
1000
1000
1000
1000
1000
1000
1000
1000
1000
1000
1000
1000
1000
1000
1000
1000
1000
1000
1000
1000
1000
1000
1000
1000
1000
1000
1000
1000
1000
1000
1000
1000
1000
1000
1000
1000
1000
1000
1000
1000
1000
1000
1000
1000
1000
1000
1000
1000
1000
1000
1000
1000
1000
1000
1000
1000
1000
1000
1000
1000
1000
1000
1000
1000
1000
1000
1000
1000
1000
1000
1000
1000
1000
1000
1000
1000
1000
1000
1000
1000
1000
1000
1000
1000
1000
1000
1000
1000
1000
1000
1000
1000
1000
1000
1000
1000
1000
1000
1000
1000
1000
SCALARS p float 1
LOOKUP_TABLE default
25004.681136676067
25004.681136676067
25004.681136676067
25004.681136676067
25004.681136676067
25004.681136676067
25004.681136676067
25004.681136676067
25004.681136676067
25004.681136676067
25004.681136676067
25004.681136676067
25004.681136676067
25004.681136676067
25004.681136676067
25004.681136676067
25004.681136676067
25004.681136676067
25004.681136676067
25004.681136676067
25004.681136676067
25004.681136676067
25004.681136676067
25004.681136676067
25004.681136676067
25004.681136676067
25004.681136676067
25004.681136676067
25004.681136676067
25004.681136676067
25004.681136676067
25004.681136676067
25004.681136676067
25004.681136676067
25004.681136676067
25004.681136676067
25004.681136676067
25004.681136676067
25004.681136676067
25004.681136676067
25004.681136676067
25004.681136676067
25004.681136676067
25004.681136676067
25004.681136676067
25004.681136676067
25004.681136676067
25004.681136676067
25004.681136676067
25004.681136676067
25004.681136676067
25004.681136676067
25004.681136676067
25004.681136676067
25004.681136676067
25004.681136676067
25004.681136676067
25004.681136676067
25004.681136676067
25004.681136676067
25004.681136676067
25004.681136676067
25004.681136676067
25004.681136676067
25004.681136676067
25004.681136676067
25004.681136676067
25004.681136676067
25004.681136676067
25004.681136676067
25004.681136676067
25004.681136676067
25004.681136676067
25004.681136676067
25004.681136676067
25004.681136676067
25004.681136676067
25004.681136676067
25004.681136676067
25004.681136676067
25004.681136676067
25004.681136676067
25004.681136676067
25004.681136676067
25004.681136676067
25004.681136676067
25004.681136676067
25004.681136676067
25004.681136676067
25004.681136676067
25004.681136676067
25004.681136676067
25004.681136676067
25004.681136676067
25004.681136676067
25004.681136676067
25004.681136676067
25004.681136676067
25004.681136676067
25004.681136676067
25004.681136676067
25004.681136676067
25004.681136676067
25004.681136676067
25004.681136676067
25004.681136676067
25004.681136676067
25004.681136676067
25004.681136676067
25004.681136676067
25004.681136676067
25004.681136676067
25004.681136676067
25004.681136676067
25004.681136676067
25004.681136676067
25004.681136676067
25004.681136676067
25004.681136676067
25004.681136676067
25004.681136676067
25004.681136676067
25004.681136676067
25004.681136676067
25004.681136676067
25004.681136676067
25004.681136676067
25004.681136676067
25004.681136676067
25004.681136676067
25004.681136676067
25004.681136676067
25004.681136676067
25004.681136676067
25004.681136676067
25004.681136676067
25004.681136676067
25004.681136676067
25004.681136676067
25004.681136676067
25004.681136676067
25004.681136676067
25004.681136676067
25004.681136676067
25004.681136676067
25004.681136676067
25004.681136676067
25004.681136676067
25004.681136676067
25004.681136676067
25004.681136676067
25004.681136676067
25004.681136676067
25004.681136676067
25004.681136676067
25004.681136676067
25004.681136676067
25004.681136676067
25004.681136676067
25004.681136676067
25004.681136676067
25004.681136676067
25004.681136676067
25004.681136676067
25004.681136676067
25004.681136676067
25004.681136676067
25004.681136676067
25004.681136676067
25004.681136676067
25004.681136676067
25004.681136676067
25004.681136676067
25004.681136676067
25004.681136676067
25004.681136676067
25004.681136676067
25004.681136676067
25004.681136676067
25004.681136676067
25004.681136676067
25004.681136676067
25004.681136676067
25004.681136676067
25004.681136676067
25004.681136676067
25004.681136676067
25004.681136676067
25004.681136676067
25004.681136676067
25004.681136676067
25004.681136676067
25004.681136676067
25004.681136676067
25004.681136676067
25004.681136676067
25004.681136676067
25004.681136676067
25004.681136676067
25004.681136676067
25004.681136676067
25004.681136676067
25004.681136676067
25004.681136676067
25004.681136676067
25004.681136676067
25004.681136676067
25004.681136676067
25004.681136676067
25004.681136676067
25004.681136676067
25004.681136676067
25004.681136676067
25004.681136676067
25004.681136676067
25004.681136676067
25004.681136676067
25004.681136676067
25004.681136676067
25004.681136676067
25004.681136676067
25004.681136676067
25004.681136676067
25004.681136676067
25004.681136676067
25004.681136676067
25004.681136676067
25004.681136676067
25004.681136676067
25004.681136676067
25004.681136676067
25004.681136676067
25004.681136676067
25004.681136676067
25004.681136676067
25004.681136676067
25004.681136676067
25004.681136676067
25004.681136676067
25004.681136676067
25004.681136676067
25004.681136676067
25004.681136676067
25004.681136676067
25004.681136676067
25004.681136676067
25004.681136676067
25004.681136676067
25004.681136676067
25004.681136676067
25004.681136676067
25004.681136676067
25004.681136676067
25004.681136676067
25004.681136676067
25004.681136676067
25004.681136676067
25004.681136676067
25004.681136676067
25004.681136676067
25004.681136676067
25004.681136676067
25004.681136676067
25004.681136676067
25004.681136676067
25004.681136676067
25004.681136676067
25004.681136676067
25004.681136676067
25004.681136676067
25004.681136676067
25004.681136676067
25004.681136676067
25004.681136676067
25004.681136676067
25004.681136676067
25004.681136676067
25004.681136676067
25004.681136676067
25004.681136676067
25004.681136676067
25004.681136676067
25004.681136676067
25004.681136676067
25004.681136676067
25004.681136676067
25004.681136676067
25004.681136676067
25004.681136676067
25004.681136676067
25004.681136676067
25004.681136676067
25004.681136676067
25004.681136676067
25004.681136676067
25004.681136676067
25004.681136676067
25004.681136676067
25004.681136676067
25004.681136676067
25004.681136676067
25004.681136676067
25004.681136676067
25004.681136676067
25004.681136676067
25004.681136676067
25004.681136676067
25004.681136676067
25004.681136676067
25004.681136676067
25004.681136676067
25004.681136676067
25004.681136676067
25004.681136676067
25004.681136676067
25004.681136676067
25004.681136676067
25004.681136676067
25004.681136676067
25004.681136676067
25004.681136676067
25004.681136676067
25004.681136676067
25004.681136676067
25004.681136676067
25004.681136676067
25004.681136676067
25004.681136676067
25004.681136676067
25004.681136676067
25004.681136676067
25004.681136676067
25004.681136676067
25004.681136676067
25004.681136676067
25004.681136676067
25004.681136676067
25004.681136676067
25004.681136676067
25004.681136676067
25004.681136676067
25004.681136676067
25004.681136676067
25004.681136676067
25004.681136676067
25004.681136676067
25004.681136676067
25004.681136676067
25004.681136676067
25004.681136676067
25004.681136676067
25004.681136676067
25004.681136676067
25004.681136676067
25004.681136676067
25004.681136676067
25004.681136676067
25004.681136676067
25004.681136676067
25004.681136676067
25004.681136676067
25004.681136676067
25004.681136676067
25004.681136676067
25004.681136676067
25004.681136676067
25004.681136676067
25004.681136676067
25004.681136676067
25004.681136676067
25004.681136676067
25004.681136676067
25004.681136676067
25004.681136676067
25004.681136676067
0
0
0
0
0
0
24573.634428829158
24989.708891251194
24997.830517503822
0
0
0
24992.55847568456
25003.572084016498
25004.126162907109
0
0
0
24999.027979008304
25004.109008243417
25004.387099504886
0
0
0
24999.564550429041
25004.134148916255
25004.393482242234
0
0
0
24999.607824146518
25004.13397948573
25004.391889234364
0
0
0
24999.59528528888
25004.133124098844
25004.391529161068
0
0
0
24999.586047497043
25004.132625814618
25004.391423706304
0
0
0
24999.581726531902
25004.132399018872
25004.39138658969
0
0
0
24999.5801301143
25004.132320464145
25004.391377466363
0
0
0
24999.580107618847
25004.13232098252
25004.39137852253
0
0
0
24999.581690460516
25004.132399994422
25004.391388474542
0
0
0
24999.586008181759
25004.132625960625
25004.391425225844
0
0
0
24999.595257834324
25004.133124843884
25004.391531780057
0
0
0
24999.607750260791
25004.133977641246
25004.391892049392
0
0
0
24999.564426185312
25004.134147273377
25004.393486531771
0
0
0
24999.027855298857
25004.109015081591
25004.387109100695
0
0
0
24992.557533166935
25003.572040818999
25004.126145548511
0
0
0
24573.529771100326
24989.706711380626
24997.829334192404
0
0
0
0
0
0
0
0
0
0
0
0
0
0
0
0
0
0
0
0
0
0
0
0
0
0
0
0
0
0
0
0
0
0
0
0
0
0
0
0
0
0
0
0
0
0
0
0
0
0
0
0
0
0
0
0
0
0
0
0
0
0
0
0
0
0
0
0
0
0
0
0
0
0
0
0
0
0
0
0
0
0
0
0
0
0
0
0
0
0
0
0
0
0
0
0
0
0
0
0
0
0
0
0
0
0
0
0
0
0
0
0
0
0
0
0
0
0
0
0
0
0
0
0
0
0
0
0
0
0
0
0
0
0
0
0
0
0
0
0
0
0
0
0
0
0
0
0
0
0
0
0
0
0
0
0
0
0
0
0
0
0
0
0
0
0
0
0
0
0
0
0
0
0
0
0
0
0
0
0
0
0
0
0
0
0
0
0
0
0
0
0
0
0
0
SCALARS m float 1
LOOKUP_TABLE default
0.39942306611962441
0.39942306611962441
0.39942306611962441
0.39942306611962441
0.39942306611962441
0.39942306611962441
0.39942306611962441
0.39942306611962441
0.39942306611962441
0.39942306611962441
0.39942306611962441
0.39942306611962441
0.39942306611962441
0.39942306611962441
0.39942306611962441
0.39942306611962441
0.39942306611962441
0.39942306611962441
0.39942306611962441
0.39942306611962441
0.39942306611962441
0.39942306611962441
0.39942306611962441
0.39942306611962441
0.39942306611962441
0.39942306611962441
0.39942306611962441
0.39942306611962441
0.39942306611962441
0.39942306611962441
0.39942306611962441
0.39942306611962441
0.39942306611962441
0.39942306611962441
0.39942306611962441
0.39942306611962441
0.39942306611962441
0.39942306611962441
0.39942306611962441
0.39942306611962441
0.39942306611962441
0.39942306611962441
0.39942306611962441
0.39942306611962441
0.39942306611962441
0.39942306611962441
0.39942306611962441
0.39942306611962441
0.39942306611962441
0.39942306611962441
0.39942306611962441
0.39942306611962441
0.39942306611962441
0.39942306611962441
0.39942306611962441
0.39942306611962441
0.39942306611962441
0.39942306611962441
0.39942306611962441
0.39942306611962441
0.39942306611962441
0.39942306611962441
0.39942306611962441
0.39942306611962441
0.39942306611962441
0.39942306611962441
0.39942306611962441
0.39942306611962441
0.39942306611962441
0.39942306611962441
0.39942306611962441
0.39942306611962441
0.39942306611962441
0.39942306611962441
0.39942306611962441
0.39942306611962441
0.39942306611962441
0.39942306611962441
0.39942306611962441
0.39942306611962441
0.39942306611962441
0.39942306611962441
0.39942306611962441
0.39942306611962441
0.39942306611962441
0.39942306611962441
0.39942306611962441
0.39942306611962441
0.39942306611962441
0.39942306611962441
0.39942306611962441
0.39942306611962441
0.39942306611962441
0.39942306611962441
0.39942306611962441
0.39942306611962441
0.39942306611962441
0.39942306611962441
0.39942306611962441
0.39942306611962441
0.39942306611962441
0.39942306611962441
0.39942306611962441
0.39942306611962441
0.39942306611962441
0.39942306611962441
0.39942306611962441
0.39942306611962441
0.39942306611962441
0.39942306611962441
0.39942306611962441
0.39942306611962441
0.39942306611962441
0.39942306611962441
0.39942306611962441
0.39942306611962441
0.39942306611962441
0.39942306611962441
0.39942306611962441
0.39942306611962441
0.39942306611962441
0.39942306611962441
0.39942306611962441
0.39942306611962441
0.39942306611962441
0.39942306611962441
0.39942306611962441
0.39942306611962441
0.39942306611962441
0.39942306611962441
0.39942306611962441
0.39942306611962441
0.39942306611962441
0.39942306611962441
0.39942306611962441
0.39942306611962441
0.39942306611962441
0.39942306611962441
0.39942306611962441
0.39942306611962441
0.39942306611962441
0.39942306611962441
0.39942306611962441
0.39942306611962441
0.39942306611962441
0.39942306611962441
0.39942306611962441
0.39942306611962441
0.39942306611962441
0.39942306611962441
0.39942306611962441
0.39942306611962441
0.39942306611962441
0.39942306611962441
0.39942306611962441
0.39942306611962441
0.39942306611962441
0.39942306611962441
0.39942306611962441
0.39942306611962441
0.39942306611962441
0.39942306611962441
0.39942306611962441
0.39942306611962441
0.39942306611962441
0.39942306611962441
0.39942306611962441
0.39942306611962441
0.39942306611962441
0.39942306611962441
0.39942306611962441
0.39942306611962441
0.39942306611962441
0.39942306611962441
0.39942306611962441
0.39942306611962441
0.39942306611962441
0.39942306611962441
0.39942306611962441
0.39942306611962441
0.39942306611962441
0.39942306611962441
0.39942306611962441
0.39942306611962441
0.39942306611962441
0.39942306611962441
0.39942306611962441
0.39942306611962441
0.39942306611962441
0.39942306611962441
0.39942306611962441
0.39942306611962441
0.39942306611962441
0.39942306611962441
0.39942306611962441
0.39942306611962441
0.39942306611962441
0.39942306611962441
0.39942306611962441
0.39942306611962441
0.39942306611962441
0.39942306611962441
0.39942306611962441
0.39942306611962441
0.39942306611962441
0.39942306611962441
0.39942306611962441
0.39942306611962441
0.39942306611962441
0.39942306611962441
0.39942306611962441
0.39942306611962441
0.39942306611962441
0.39942306611962441
0.39942306611962441
0.39942306611962441
0.39942306611962441
0.39942306611962441
0.39942306611962441
0.39942306611962441
0.39942306611962441
0.39942306611962441
0.39942306611962441
0.39942306611962441
0.39942306611962441
0.39942306611962441
0.39942306611962441
0.39942306611962441
0.39942306611962441
0.39942306611962441
0.39942306611962441
0.39942306611962441
0.39942306611962441
0.39942306611962441
0.39942306611962441
0.39942306611962441
0.39942306611962441
0.39942306611962441
0.39942306611962441
0.39942306611962441
0.39942306611962441
0.39942306611962441
0.39942306611962441
0.39942306611962441
0.39942306611962441
0.39942306611962441
0.39942306611962441
0.39942306611962441
0.39942306611962441
0.39942306611962441
0.39942306611962441
0.39942306611962441
0.39942306611962441
0.39942306611962441
0.39942306611962441
0.39942306611962441
0.39942306611962441
0.39942306611962441
0.39942306611962441
0.39942306611962441
0.39942306611962441
0.39942306611962441
0.39942306611962441
0.39942306611962441
0.39942306611962441
0.39942306611962441
0.39942306611962441
0.39942306611962441
0.39942306611962441
0.39942306611962441
0.39942306611962441
0.39942306611962441
0.39942306611962441
0.39942306611962441
0.39942306611962441
0.39942306611962441
0.39942306611962441
0.39942306611962441
0.39942306611962441
0.39942306611962441
0.39942306611962441
0.39942306611962441
0.39942306611962441
0.39942306611962441
0.39942306611962441
0.39942306611962441
0.39942306611962441
0.39942306611962441
0.39942306611962441
0.39942306611962441
0.39942306611962441
0.39942306611962441
0.39942306611962441
0.39942306611962441
0.39942306611962441
0.39942306611962441
0.39942306611962441
0.39942306611962441
0.39942306611962441
0.39942306611962441
0.39942306611962441
0.39942306611962441
0.39942306611962441
0.39942306611962441
0.39942306611962441
0.39942306611962441
0.39942306611962441
0.39942306611962441
0.39942306611962441
0.39942306611962441
0.39942306611962441
0.39942306611962441
0.39942306611962441
0.39942306611962441
0.39942306611962441
0.39942306611962441
0.39942306611962441
0.39942306611962441
0.39942306611962441
0.39942306611962441
0.39942306611962441
0.39942306611962441
0.39942306611962441
0.39942306611962441
0.39942306611962441
0.39942306611962441
0.39942306611962441
0.39942306611962441
0.39942306611962441
0.39942306611962441
0.39942306611962441
0.39942306611962441
0.39942306611962441
0.39942306611962441
0.39942306611962441
0.39942306611962441
0.39942306611962441
0.39942306611962441
0.39942306611962441
0.39942306611962441
0.39942306611962441
0.39942306611962441
0.39942306611962441
0.39942306611962441
0.39942306611962441
0.39942306611962441
0.39942306611962441
0.39942306611962441
0.39942306611962441
0.39942306611962441
0.39942306611962441
0.39942306611962441
0.39942306611962441
0.39942306611962441
0.39942306611962441
0.39942306611962441
0.39942306611962441
0.39942306611962441
0.39942306611962441
0.39942306611962441
0.39942306611962441
0.39942306611962441
0.39942306611962441
0.39942306611962441
0.39942306611962441
0.39942306611962441
0.39942306611962441
0.39942306611962441
0.39942306611962441
0.39942306611962441
0.39942306611962441
0.39942306611962441
0.39942306611962441
0.39942306611962441
0.39942306611962441
0.39942306611962441
0.39942306611962441
0.39942306611962441
0.39942306611962441
0.39942306611962441
0.39942306611962441
0.39942306611962441
0.39942306611962441
0.39942306611962441
0.39942306611962441
0.39942306611962441
0.39942306611962441
0.39942306611962441
0.39942306611962441
0.39942306611962441
0.39942306611962441
0.39942306611962441
0.39942306611962441
0.39942306611962441
0.39942306611962441
0.39942306611962441
0.39942306611962441
0.39942306611962441
0.39942306611962441
0.39942306611962441
0.39942306611962441
0.39942306611962441
0.39942306611962441
0.39942306611962441
0.39942306611962441
0.39942306611962441
0.39942306611962441
0.39942306611962441
0.39942306611962441
0.39942306611962441
0.39942306611962441
0.39942306611962441
0.39942306611962441
0.39942306611962441
0.39942306611962441
0.39942306611962441
0.39942306611962441
0.39942306611962441
0.39942306611962441
0.39942306611962441
0.39942306611962441
0.39942306611962441
0.39942306611962441
0.39942306611962441
0.39942306611962441
0.39942306611962441
0.39942306611962441
0.39942306611962441
0.39942306611962441
0.39942306611962441
0.39942306611962441
0.39942306611962441
0.39942306611962441
0.39942306611962441
0.39942306611962441
0.39942306611962441
0.39942306611962441
0.39942306611962441
0.39942306611962441
0.39942306611962441
0.39942306611962441
0.39942306611962441
0.39942306611962441
0.39942306611962441
0.39942306611962441
0.39942306611962441
0.39942306611962441
0.39942306611962441
0.39942306611962441
0.39942306611962441
0.39942306611962441
0.39942306611962441
0.39942306611962441
0.39942306611962441
0.39942306611962441
0.39942306611962441
0.39942306611962441
0.39942306611962441
0.39942306611962441
0.39942306611962441
0.39942306611962441
0.39942306611962441
0.39942306611962441
0.39942306611962441
0.39942306611962441
0.39942306611962441
0.39942306611962441
0.39942306611962441
0.39942306611962441
0.39942306611962441
0.39942306611962441
0.39942306611962441
0.39942306611962441
0.39942306611962441
0.39942306611962441
0.39942306611962441
0.39942306611962441
0.39942306611962441
0.39942306611962441
0.39942306611962441
0.39942306611962441
0.39942306611962441
0.39942306611962441
0.39942306611962441
0.39942306611962441
0.39942306611962441
0.39942306611962441
0.39942306611962441
0.39942306611962441
0.39942306611962441
0.39942306611962441
0.39942306611962441
0.39942306611962441
0.39942306611962441
0.39942306611962441
0.39942306611962441
0.39942306611962441
0.39942306611962441
0.39942306611962441
0.39942306611962441
0.39942306611962441
0.39942306611962441
0.39942306611962441
0.39942306611962441
0.39942306611962441
0.39942306611962441
0.39942306611962441
0.39942306611962441
0.39942306611962441
0.39942306611962441
0.39942306611962441
0.39942306611962441
0.39942306611962441
0.39942306611962441
0.39942306611962441
0.39942306611962441
0.39942306611962441
0.39942306611962441
0.39942306611962441
0.39942306611962441
0.39942306611962441
0.39942306611962441
0.39942306611962441
0.39942306611962441
0.39942306611962441
0.39942306611962441
0.39942306611962441
0.39942306611962441
0.39942306611962441
0.39942306611962441
0.39942306611962441
0.39942306611962441
0.39942306611962441
0.39942306611962441
0.39942306611962441
0.39942306611962441
0.39942306611962441
0.39942306611962441
0.39942306611962441
0.39942306611962441
0.39942306611962441
0.39942306611962441
0.39942306611962441
0.39942306611962441
0.39942306611962441
0.39942306611962441
0.39942306611962441
0.39942306611962441
0.39942306611962441
0.39942306611962441
0.39942306611962441
0.39942306611962441
0.39942306611962441
0.39942306611962441
0.39942306611962441
0.39942306611962441
0.39942306611962441
0.39942306611962441
0.39942306611962441
0.39942306611962441
0.39942306611962441
0.39942306611962441
0.39942306611962441
0.39942306611962441
0.39942306611962441
0.39942306611962441
0.39942306611962441
0.39942306611962441
0.39942306611962441
0.39942306611962441
0.39942306611962441
0.39942306611962441
0.39942306611962441
0.39942306611962441
0.39942306611962441
0.39942306611962441
0.39942306611962441
0.39942306611962441
0.39942306611962441
0.39942306611962441
0.39942306611962441
0.39942306611962441
0.39942306611962441
0.39942306611962441
0.39942306611962441
0.39942306611962441
0.39942306611962441
0.39942306611962441
0.39942306611962441
0.39942306611962441
0.39942306611962441
0.39942306611962441
0.39942306611962441
0.39942306611962441
0.39942306611962441
0.39942306611962441
0.39942306611962441
0.39942306611962441
0.39942306611962441
0.39942306611962441
0.39942306611962441
0.39942306611962441
0.39942306611962441
0.39942306611962441
0.39942306611962441
0.39942306611962441
0.39942306611962441
0.39942306611962441
0.39942306611962441
0.39942306611962441
0.39942306611962441
0.39942306611962441
0.39942306611962441
0.39942306611962441
0.39942306611962441
0.39942306611962441
0.39942306611962441
0.39942306611962441
0.39942306611962441
0.39942306611962441
0.39942306611962441
0.39942306611962441
0.39942306611962441
0.39942306611962441
0.39942306611962441
0.39942306611962441
0.39942306611962441
0.39942306611962441
0.39942306611962441
0.39942306611962441
0.39942306611962441
0.39942306611962441
0.39942306611962441
0.39942306611962441
0.39942306611962441
0.39942306611962441
0.39942306611962441
0.39942306611962441
0.39942306611962441
0.39942306611962441
0.39942306611962441
0.39942306611962441
0.39942306611962441
0.39942306611962441
0.39942306611962441
0.39942306611962441
0.39942306611962441
0.39942306611962441
0.39942306611962441
0.39942306611962441
0.39942306611962441
0.39942306611962441
0.39942306611962441
0.39942306611962441
0.39942306611962441
0.39942306611962441
0.39942306611962441
0.39942306611962441
0.39942306611962441
0.39942306611962441
0.39942306611962441
0.39942306611962441
0.39942306611962441
0.39942306611962441
0.39942306611962441
0.39942306611962441
0.39942306611962441
0.39942306611962441
0.39942306611962441
0.39942306611962441
0.39942306611962441
0.39942306611962441
0.39942306611962441
0.39942306611962441
0.39942306611962441
0.39942306611962441
0.39942306611962441
0.39942306611962441
0.39942306611962441
0.39942306611962441
0.39942306611962441
VECTORS v float
-3.7313412957886697e-05 -0.061859698596577126 0
-3.9732925844566301e-05 -0.065344404182303764 0
-4.1543095276583937e-05 -0.068149024200457611 0
-4.326187645150783e-05 -0.071044773902739125 0
-4.4982887558690115e-05 -0.074047903406721155 0
-4.6585206139536019e-05 -0.077190150894994591 0
-4.8152959520562223e-05 -0.080510799231188826 0
-4.9680268582651865e-05 -0.08405199524123487 0
-5.1125699829716322e-05 -0.08786827200247907 0
-5.2422632646765237e-05 -0.092021318485903114 0
-5.3761986952071443e-05 -0.096575454394835711 0
-5.4982032465023965e-05 -0.10161494627738435 0
-5.6275837084862905e-05 -0.10725765320677622 0
-5.7442074931472346e-05 -0.11363538917454102 0
-5.9180553558719261e-05 -0.12090113223851168 0
-6.0409808855562942e-05 -0.12924344486203049 0
-6.1583422406848103e-05 -0.13891693180451331 0
-6.3074356151418808e-05 -0.15031742291194122 0
-6.4159420277803939e-05 -0.16395726251127146 0
-6.5422379946587442e-05 -0.18059276193011259 0
-6.6646575819263648e-05 -0.20134266107402407 0
-6.7793828722247638e-05 -0.22796100235980435 0
-6.8958524684967849e-05 -0.26412586562562329 0
-7.0221762480362476e-05 -0.32065903394688577 0
-6.3561391400850502e-05 -0.63746439835222335 0
-2.3765970593861932e-05 -0.063650429209433132 0
-2.5595717957232845e-05 -0.067366026086749464 0
-2.6730991696035319e-05 -0.070367725664452568 0
-2.7872597381396097e-05 -0.073388798951378523 0
-2.9009262712675229e-05 -0.076476750622120976 0
-2.9938476449367806e-05 -0.079680838796011039 0
-3.0958681667090122e-05 -0.083055685482187142 0
-3.1775173286888616e-05 -0.086654410108949156 0
-3.2237282561054229e-05 -0.090528330381159566 0
-3.2991712997035771e-05 -0.094734813337398027 0
-3.423999332578333e-05 -0.099337050198410284 0
-3.5206867865981765e-05 -0.10442522438917416 0
-3.5921572961298507e-05 -0.11011923550599412 0
-3.6650209855228087e-05 -0.11655013485523984 0
-3.7489837709481054e-05 -0.12387494481113848 0
-3.8250038152747395e-05 -0.13227803693955698 0
-3.9086436587614536e-05 -0.14199746265639518 0
-3.9747257016500785e-05 -0.1533917858322309 0
-4.0454917840312606e-05 -0.16691329671052424 0
-4.1246112137994119e-05 -0.18323162286400388 0
-4.1894941557547819e-05 -0.20333177343905895 0
-4.2647308337059749e-05 -0.22894840252032511 0
-4.2990864805112985e-05 -0.26366836006048616 0
-4.3188050658560917e-05 -0.31783196654334162 0
-4.1369547920308032e-05 -0.53454533027030138 0
-9.9326997264132765e-06 -0.064127191808796946 0
-1.0692686074717259e-05 -0.067823524197648519 0
-1.1248427713849227e-05 -0.07080820849901584 0
-1.1805696705928873e-05 -0.07381342478479469 0
-1.2051459076483371e-05 -0.076889486833600515 0
-1.2482680258649859e-05 -0.080084356432404358 0
-1.2818849041541363e-05 -0.083451971316560861 0
-1.2997448373397536e-05 -0.087045484646113627 0
-1.3461368903091465e-05 -0.090917539850350199 0
-1.3988598622004469e-05 -0.095124878174715141 0
-1.426629214895296e-05 -0.099730035346617937 0
-1.4847551278650825e-05 -0.10481596951994843 0
-1.531282689330644e-05 -0.11049959505313726 0
-1.5818145829355183e-05 -0.11691299688979537 0
-1.6192108005616298e-05 -0.12420768920236874 0
-1.6787211304580577e-05 -0.13257232068669805 0
-1.7313684773748923e-05 -0.14223953135405468 0
-1.8035793774302926e-05 -0.15351418924645427 0
-1.8617148956525786e-05 -0.16682587663344325 0
-1.9341680695220835e-05 -0.18278187689290565 0
-2.0095184767220929e-05 -0.20228773376564449 0
-2.077615273254164e-05 -0.22700742344818414 0
-2.1353876357194898e-05 -0.26029901446851944 0
-2.194583454129986e-05 -0.31178737442632093 0
-2.169006826353295e-05 -0.5091780206930242 0
-3.0257030507074707e-06 -0.064311617604780713 0
-3.2160202718393806e-06 -0.067996396487430374 0
-3.803748665359161e-06 -0.07096983946560334 0
-4.0868383472468253e-06 -0.073963316673952173 0
-4.3537426988079339e-06 -0.07702793059626889 0
-4.564760156153461e-06 -0.080207729151819673 0
-4.9727043707100493e-06 -0.083562023856390721 0
-5.118849422217706e-06 -0.087141027453124201 0
-5.5401153256948272e-06 -0.09099781387249474 0
-5.8031557124122832e-06 -0.095188829978292006 0
-5.9831063916867713e-06 -0.099775183704408438 0
-6.2848989676202533e-06 -0.10484075730302571 0
-7.1573904146183591e-06 -0.11049936516531908 0
-7.284472509782675e-06 -0.11688036506936074 0
-7.3929677030990627e-06 -0.12413471274234814 0
-7.7257348825309165e-06 -0.13244811508671231 0
-7.9924024966139469e-06 -0.14205418203107231 0
-8.4694862753869173e-06 -0.15323681846324516 0
-8.7096760357439654e-06 -0.16641429454719156 0
-8.8779431982599311e-06 -0.18217066920985481 0
-9.277280086775961e-06 -0.20139192004324513 0
-9.6682417237388049e-06 -0.22569698208637493 0
-1.0094844798773344e-05 -0.25831779790310916 0
-1.0526121492662114e-05 -0.30857549626184427 0
-1.0558675994714769e-05 -0.49727483288276475 0
-1.0154673003650615e-06 -0.06442262741110058 0
-1.166640790112582e-06 -0.06810385824713111 0
-1.1744981498648483e-06 -0.071071971006663001 0
-1.2413251421064706e-06 -0.074060413875833495 0
-1.3674971338714333e-06 -0.077117617000158512 0
-1.7335052705479461e-06 -0.080291638689027459 0
-2.069946557726643e-06 -0.083638174210028615 0
-2.2932189882903707e-06 -0.087209697719301413 0
-2.1209773318231734e-06 -0.091057345661252828 0
-2.4300640354893732e-06 -0.095237563276214313 0
-2.4809356632648483e-06 -0.099811562462983269 0
-2.6389305487059877e-06 -0.1048630647584636 0
-2.4195410001659557e-06 -0.11050391380150557 0
-2.2764913600743815e-06 -0.11686342194872705 0
-2.4868254056840153e-06 -0.12409127366631112 0
-2.5380424147998435e-06 -0.13236932638977852 0
-2.0383378430888857e-06 -0.14193199996136269 0
-2.1113374371461087e-06 -0.15305469679499012 0
-2.3479392794007163e-06 -0.16615223121858325 0
-2.5345475183349874e-06 -0.18179603632853769 0
-2.7655890790715494e-06 -0.20085791402620173 0
-2.8656258855586482e-06 -0.22493276775311777 0
-3.1655451664034813e-06 -0.25718903231943102 0
-3.4864409197710449e-06 -0.30678959502187414 0
-3.6756519618844662e-06 -0.49099375819555052 0
6.0143602739032041e-07 -0.064496659481414226 0
5.198540760509529e-07 -0.068176971455816179 0
4.1035031681237744e-07 -0.071144210727482587 0
4.8616339496722077e-07 -0.074129852675919317 0
5.0958531172533341e-07 -0.07718468504493918 0
4.8937315748113691e-07 -0.080355390412124791 0
5.3732418171067046e-07 -0.083698376333668126 0
6.5857356628021763e-07 -0.087266137002465674 0
4.9672208624860027e-07 -0.091109227175881227 0
1.9666093918484359e-07 -0.095283405870306467 0
1.583546499756978e-07 -0.099851132152836405 0
4.3810139090568754e-08 -0.10489415901659871 0
4.9150121578826224e-07 -0.11052619842994225 0
1.288489208824049e-06 -0.11687400555759106 0
4.8515641701830969e-07 -0.12408686049852755 0
1.1327998486630693e-06 -0.13234748083249084 0
1.2989438017880163e-06 -0.14188448880653151 0
1.0569244233092432e-06 -0.15297412536668839 0
1.0899006143002855e-06 -0.16602743919354476 0
1.1531248664840277e-06 -0.18161002440298749 0
9.5674337839199785e-07 -0.20058502723386254 0
1.0280784006662517e-06 -0.22453337477451665 0
8.0136941252803713e-07 -0.25659291365547726 0
7.2188823306810305e-07 -0.30584237241223722 0
1.8867584081305678e-07 -0.48770184508534187 0
1.6304964005195873e-06 -0.064539662683338966 0
1.6848129869133747e-06 -0.068220003683919672 0
2.1437523180173059e-06 -0.071185916437868119 0
2.1754097237311827e-06 -0.074171141752548783 0
2.3321571406667126e-06 -0.077224481946509993 0
2.3450086251820763e-06 -0.080393913055380753 0
2.4859430237820728e-06 -0.083735520751498108 0
2.4521489244411333e-06 -0.087300913511848433 0
2.5802130898695808e-06 -0.091141665843784622 0
2.7566219021031936e-06 -0.095313221773320661 0
2.767645232879599e-06 -0.099877943082404899 0
3.330353197294891e-06 -0.10491717920621919 0
2.0604379350573876e-06 -0.11054584027304275 0
2.2688866586164292e-06 -0.1168881634442947 0
3.2621919165004772e-06 -0.12409440432644551 0
3.2848382471383296e-06 -0.13234522351271433 0
3.4000238149276458e-06 -0.14187054767067681 0
3.3476734899826959e-06 -0.15294437485585524 0
3.3370945770523571e-06 -0.16597652877040839 0
3.3784388038059247e-06 -0.18152958149108978 0
3.3448182521784032e-06 -0.2004629514588453 0
3.3052806124194278e-06 -0.22435019791413266 0
3.3134412281379101e-06 -0.25631486452312674 0
3.0919334878485106e-06 -0.30539507194910098 0
2.7977905125519021e-06 -0.48614228783231822 0
2.3692349423590467e-06 -0.064553856033704268 0
2.514230138104774e-06 -0.068234103531099766 0
2.9845148482425958e-06 -0.071199543545413982 0
3.0670338895983263e-06 -0.07418462337625821 0
3.2704473540888636e-06 -0.077237640410631497 0
3.2512964174540962e-06 -0.080406708594487203 0
3.5962570180008558e-06 -0.083747706180622439 0
4.2895311275136307e-06 -0.087313391681498279 0
3.9647729342519084e-06 -0.091153517345930052 0
4.2558808095107485e-06 -0.09532461526750366 0
5.123527714967396e-06 -0.099888524605409618 0
3.7951617883497602e-06 -0.10492693287669962 0
3.7603748673741523e-06 -0.11055323036826595 0
3.9313902739268259e-06 -0.11689400731930331 0
4.0402234982719647e-06 -0.12409733120785064 0
4.5196475696073328e-06 -0.13234552663792243 0
4.6610519589714186e-06 -0.14186717565296461 0
4.8868699877558349e-06 -0.15293687309049139 0
5.0035076544104396e-06 -0.16596223505751387 0
5.0530980874777133e-06 -0.18150661678987273 0
4.8453768011040159e-06 -0.20042761952361773 0
4.8479594990355201e-06 -0.22429666256065905 0
4.910735263307644e-06 -0.25623338582742378 0
4.9240135174464334e-06 -0.30526368677189231 0
4.5155370590307897e-06 -0.48568562741651111 0
2.602207939266164e-06 -0.06453850204399815 0
2.8776850558952512e-06 -0.068218620732311858 0
3.574665571734195e-06 -0.07118554885943687 0
3.7386733437487473e-06 -0.074170899335205459 0
3.9901273222895641e-06 -0.077224475128232009 0
4.2692579391222835e-06 -0.080393568498723977 0
4.4422233311622132e-06 -0.083735591365760656 0
4.7927018910458567e-06 -0.087301350434085823 0
5.1840667342660521e-06 -0.091141750156388784 0
5.3824941240454001e-06 -0.095313921365816762 0
5.385222923324068e-06 -0.099878263434431125 0
5.5970158845788932e-06 -0.1049180602165707 0
5.5407542379358658e-06 -0.11054536192326191 0
5.7320963896168272e-06 -0.11688790930384531 0
5.9632894946016877e-06 -0.12409358745382423 0
6.0341092430024396e-06 -0.13234437951988512 0
6.19999712240929e-06 -0.14186930841129747 0
6.1701206651118138e-06 -0.15294352912801634 0
6.4381743287698213e-06 -0.16597522713260315 0
6.3607476235094298e-06 -0.18152834710797913 0
6.3606434669277192e-06 -0.20046164773945072 0
6.3308610345560938e-06 -0.22434891679227972 0
6.3141845558897764e-06 -0.25631315220211126 0
6.0879777651982926e-06 -0.30539375178373973 0
5.2684713090525894e-06 -0.48613943719997121 0
3.424624338327594e-06 -0.064495763702583031 0
3.6989685103241451e-06 -0.068175956677434896 0
4.242508042941637e-06 -0.071142713722389742 0
4.6764669187770262e-06 -0.074128064403994512 0
5.1240646110302182e-06 -0.077182682034181577 0
5.3082435200526827e-06 -0.080354030032402657 0
5.2345317523947407e-06 -0.083695613145073663 0
5.4464805338872923e-06 -0.087263708205590165 0
6.7452155482938038e-06 -0.091106690483254982 0
7.3253811605913718e-06 -0.095281580652250522 0
7.4178165322963114e-06 -0.099849296568197327 0
6.5083345625744372e-06 -0.10489299740880251 0
6.0409519628701098e-06 -0.11052672676844424 0
6.1497469338909368e-06 -0.11687446410370397 0
6.0440859206160937e-06 -0.12408701791719175 0
6.2032382049132915e-06 -0.13234712471270321 0
6.2757150991479959e-06 -0.14188421136375559 0
6.2451568568706424e-06 -0.15297423819917688 0
5.8152886677650636e-06 -0.16602708677864964 0
5.80109184742327e-06 -0.18160977904157916 0
5.9037387435643784e-06 -0.20058493533033248 0
5.8859284300501145e-06 -0.2245330679207064 0
5.8102449904829433e-06 -0.25659201688814148 0
5.8350284048060113e-06 -0.30584088086442285 0
5.5959250862084317e-06 -0.48769717459618006 0
3.5463625851636812e-06 -0.064421901955066529 0
3.7318334301536466e-06 -0.068102987680923613 0
3.9550723291108499e-06 -0.071071467950763356 0
4.1370979444525696e-06 -0.074059675795855151 0
4.362474003759365e-06 -0.077116810140107447 0
4.5332465652280165e-06 -0.080290496836463457 0
4.7426018594498704e-06 -0.083637166210067476 0
4.9689042455352291e-06 -0.0872088909583148 0
5.1693558061412809e-06 -0.091056334025859734 0
5.6688675193283774e-06 -0.095236662378466466 0
5.8949477364342395e-06 -0.099810686895223003 0
5.691396865255855e-06 -0.10486181481064508 0
6.2377269908398868e-06 -0.11050429147969897 0
6.3342548621591791e-06 -0.11686454310195957 0
6.3967133227732478e-06 -0.12409183289034732 0
6.5045569680908698e-06 -0.13237039586947574 0
6.876695710270215e-06 -0.14193211493870117 0
6.8739683784514042e-06 -0.15305484649687212 0
6.9762639968556878e-06 -0.16615198118635452 0
7.7248317261270416e-06 -0.18179411583996405 0
7.633228182709662e-06 -0.20085757197069568 0
7.9032142643981487e-06 -0.22493186927525363 0
8.0472215037510671e-06 -0.25718713907177199 0
8.1158252578048193e-06 -0.30678646668112547 0
7.8474638144989482e-06 -0.49098588517924802 0
5.7196118360619668e-06 -0.064310445077110617 0
6.2423309195482687e-06 -0.067995592376399405 0
6.6930822115223926e-06 -0.070968684145378352 0
6.9998701395252111e-06 -0.073962584584167115 0
7.0326987477664355e-06 -0.077025730479409971 0
7.4164811122325344e-06 -0.080206544050071604 0
7.946745889280763e-06 -0.083562174390852367 0
8.2613065077575744e-06 -0.08714197111310959 0
8.4929754167890193e-06 -0.090997942454444966 0
8.9837914391934499e-06 -0.095188328046654502 0
9.2541964942345219e-06 -0.09977512672405095 0
9.6768173239582472e-06 -0.10484116807449306 0
1.0314067374890138e-05 -0.11049953248033931 0
1.0950069469642185e-05 -0.11688014086929022 0
1.1169657797856179e-05 -0.12413443274499456 0
1.1467070860999386e-05 -0.13244820732446541 0
1.2013619533960495e-05 -0.14205459151018701 0
1.2262146066608496e-05 -0.15323661719618287 0
1.2722146995646203e-05 -0.1664142015627533 0
1.3238997071055674e-05 -0.1821709388042542 0
1.3226522476833037e-05 -0.20139028167588074 0
1.3655358426579644e-05 -0.22569462284942393 0
1.4203517515278223e-05 -0.25831377959982271 0
1.4438395253658211e-05 -0.30857010121017275 0
1.4231451495194677e-05 -0.49726385786949601 0
1.1270504163224861e-05 -0.064124642134121029 0
1.235357437298724e-05 -0.067820962020352066 0
1.3052850814351172e-05 -0.070804974581356386 0
1.3694050628566795e-05 -0.073810826576648711 0
1.4296194857024684e-05 -0.07688705370833189 0
1.4886170870747315e-05 -0.080081176679784913 0
1.5148717984262399e-05 -0.083449076072076703 0
1.6129957136154274e-05 -0.0870437124837182 0
1.6543998220341012e-05 -0.090916366348001057 0
1.7312856062462132e-05 -0.095124152958749805 0
1.7820049503888251e-05 -0.099729054117212571 0
1.8193643407205454e-05 -0.10481684226118414 0
1.8509776204119112e-05 -0.11050021606150925 0
1.8867656937750188e-05 -0.11691324844755309 0
1.9821611032472811e-05 -0.12420736271732422 0
2.0173685387233023e-05 -0.13257252057966992 0
2.1110597999531369e-05 -0.14224071565114416 0
2.183363725491641e-05 -0.15351485112751248 0
2.2445644823133897e-05 -0.1668249634949836 0
2.3467921563021103e-05 -0.18278003048896541 0
2.4155293948793781e-05 -0.20228495326974591 0
2.5127413473881562e-05 -0.22700360043384504 0
2.6042402937757449e-05 -0.26029401677960851 0
2.683668084612741e-05 -0.31178027180800666 0
2.6375964902907294e-05 -0.5091645566739168 0
2.3559212475616646e-05 -0.063649081740285163 0
2.5354554370720392e-05 -0.067363960868488629 0
2.6742834220835632e-05 -0.070365588434433898 0
2.7906758896703918e-05 -0.073386846494123664 0
2.9052263067338654e-05 -0.076474499392247 0
3.0052737441514869e-05 -0.079678617123963402 0
3.1095500714072323e-05 -0.083054321629600567 0
3.2006262505721009e-05 -0.086653261562340655 0
3.2851064108521139e-05 -0.090526581002122158 0
3.3911973443724609e-05 -0.094732851030887494 0
3.4915261249755607e-05 -0.099335510895364687 0
3.5724315563400083e-05 -0.1044241854584272 0
3.5922530727294129e-05 -0.11011865535961059 0
3.6931133457874617e-05 -0.1165498719351323 0
3.791105089577409e-05 -0.12387463338803438 0
3.8876564006202349e-05 -0.13227808876806588 0
3.9903796445854011e-05 -0.14199712837950854 0
4.101845852613944e-05 -0.15339121415590934 0
4.1941535878394017e-05 -0.16691380813695425 0
4.3022217625814026e-05 -0.18323155739883437 0
4.4071591600325896e-05 -0.20333095409111462 0
4.5095683760274496e-05 -0.22894649212058973 0
4.595593847363837e-05 -0.26366402826190671 0
4.6610000954434857e-05 -0.31782568544532103 0
4.4583004513913857e-05 -0.53453206910730466 0
3.6323667143822131e-05 -0.061858527991684259 0
3.8548355564161431e-05 -0.065343084504684373 0
4.1310232632811929e-05 -0.068149105464263851 0
4.1964141081334786e-05 -0.071043420526338455 0
4.3475102628328314e-05 -0.074046399116694459 0
4.4959899073304678e-05 -0.07718854141036588 0
4.6285566899110569e-05 -0.080509152465298647 0
4.7602382013318923e-05 -0.08405023970588292 0
4.9267942637424783e-05 -0.087866544881019568 0
5.0276546939349142e-05 -0.092019654441140353 0
5.1705220036855741e-05 -0.096573697585273385 0
5.2832569907129659e-05 -0.10161321600912707 0
5.3921944930081705e-05 -0.10725618579986393 0
5.501466923428113e-05 -0.11363381413464725 0
5.6112197854646411e-05 -0.12089976846491966 0
5.7262500365304564e-05 -0.1292421112633885 0
5.8453031520062531e-05 -0.13891575122330171 0
5.9727270643910175e-05 -0.15031630749245198 0
6.1178169793091035e-05 -0.16395616213875852 0
6.2541073012234899e-05 -0.18059156343593816 0
6.3891501742492581e-05 -0.20134095513763661 0
6.5144013013611292e-05 -0.22795882751118496 0
6.6285367563635432e-05 -0.26412308417767127 0
6.7140752343558679e-05 -0.32065646687105431 0
5.8941935462148062e-05 -0.63746540759882175 0
-0 -0 0
-0 -0 0
-0 -0 0
-0 -0 0
-0 -0 0
-0 -0 0
3.8385712656905513e-05 0.063205278954258037 0
4.4373469963981919e-05 0.074339111443434094 0
5.2804738237224164e-05 0.10119998980055085 0
-0 -0 0
-0 -0 0
-0 -0 0
4.0422640410740538e-05 0.067641085583748331 0
4.4466183974358179e-05 0.078082137258346132 0
5.1627738684981075e-05 0.10486877335774118 0
-0 -0 0
-0 -0 0
-0 -0 0
3.2611021342801329e-05 0.068734164626302913 0
3.6446138120573812e-05 0.07913795714273833 0
4.2410837848551262e-05 0.10583084884231422 0
-0 -0 0
-0 -0 0
-0 -0 0
1.8768535532056181e-05 0.069782806778382153 0
2.1187472188214038e-05 0.080064273664440591 0
2.4779848057419571e-05 0.10650497344212004 0
-0 -0 0
-0 -0 0
-0 -0 0
7.6391952948041127e-06 0.070105643639779877 0
9.0465026418163672e-06 0.080358479660549251 0
1.1079009138131683e-05 0.10651876110842805 0
-0 -0 0
-0 -0 0
-0 -0 0
2.3334089600024059e-06 0.070254007302455082 0
3.1034428240172394e-06 0.080462155246075834 0
4.1856693768128894e-06 0.10643735772497012 0
-0 -0 0
-0 -0 0
-0 -0 0
1.8578885778761044e-07 0.070349151289413658 0
3.9685807328282914e-07 0.080534106049554341 0
6.1011555545846652e-07 0.10641439404774579 0
-0 -0 0
-0 -0 0
-0 -0 0
-1.2204512708181293e-06 0.070410604332877158 0
-1.3219718607394089e-06 0.080585241461036697 0
-1.5648902364740492e-06 0.10642090689209414 0
-0 -0 0
-0 -0 0
-0 -0 0
-2.2937570765704963e-06 0.070440731185314492 0
-2.6573369624561827e-06 0.080611578541105511 0
-3.1702709351408231e-06 0.10642945712538308 0
-0 -0 0
-0 -0 0
-0 -0 0
-2.9881884677662076e-06 0.070440418359663692 0
-3.6625003674619686e-06 0.080611370737035545 0
-4.5090811058285974e-06 0.10642920772172326 0
-0 -0 0
-0 -0 0
-0 -0 0
-3.6525966152942115e-06 0.070409587750725713 0
-4.4898170429652503e-06 0.080584237338594017 0
-5.4687255904956334e-06 0.10641990491361482 0
-0 -0 0
-0 -0 0
-0 -0 0
-4.0085979601820548e-06 0.070348006513829206 0
-4.8016466706510566e-06 0.080532785823352229 0
-5.8404491509009235e-06 0.10641313519750568 0
-0 -0 0
-0 -0 0
-0 -0 0
-5.2665963950234716e-06 0.070252672341786213 0
-6.2321942822573545e-06 0.080460914799523164 0
-7.8333671038661547e-06 0.10643624987284189 0
-0 -0 0
-0 -0 0
-0 -0 0
-9.6913363080336618e-06 0.07010341865877262 0
-1.1344067003996552e-05 0.080356669662679348 0
-1.3953977639763527e-05 0.10651728136078105 0
-0 -0 0
-0 -0 0
-0 -0 0
-1.9395910462301901e-05 0.069780750895017174 0
-2.2144953458419303e-05 0.080062416106251352 0
-2.63204178222783e-05 0.10650315583640206 0
-0 -0 0
-0 -0 0
-0 -0 0
-3.2312040966153523e-05 0.068732993966358555 0
-3.6114436199039528e-05 0.079136697923620491 0
-4.1999347725731349e-05 0.10582918843768557 0
-0 -0 0
-0 -0 0
-0 -0 0
-3.9735932703707852e-05 0.067640011592673674 0
-4.3479070582414081e-05 0.078080637136792655 0
-5.0030700645961598e-05 0.10486696391679014 0
-0 -0 0
-0 -0 0
-0 -0 0
-3.7748054176249666e-05 0.063203853461368184 0
-4.3422366021710349e-05 0.074336957597087333 0
-5.104032863816414e-05 0.10119723703802455 0
-0 -0 0
-0 -0 0
-0 -0 0
-0 -0 0
-0 -0 0
-0 -0 0
-0 -0 0
-0 -0 0
-0 -0 0
-0 -0 0
-0 -0 0
-0 -0 0
-0 -0 0
-0 -0 0
-0 -0 0
-0 -0 0
-0 -0 0
-0 -0 0
-0 -0 0
-0 -0 0
-0 -0 0
-0 -0 0
-0 -0 0
-0 -0 0
-0 -0 0
-0 -0 0
-0 -0 0
-0 -0 0
-0 -0 0
-0 -0 0
-0 -0 0
-0 -0 0
-0 -0 0
-0 -0 0
-0 -0 0
-0 -0 0
-0 -0 0
-0 -0 0
-0 -0 0
-0 -0 0
-0 -0 0
-0 -0 0
-0 -0 0
-0 -0 0
-0 -0 0
-0 -0 0
-0 -0 0
-0 -0 0
-0 -0 0
-0 -0 0
-0 -0 0
-0 -0 0
-0 -0 0
-0 -0 0
-0 -0 0
-0 -0 0
-0 -0 0
-0 -0 0
-0 -0 0
-0 -0 0
-0 -0 0
-0 -0 0
-0 -0 0
-0 -0 0
-0 -0 0
-0 -0 0
-0 -0 0
-0 -0 0
-0 -0 0
-0 -0 0
-0 -0 0
-0 -0 0
-0 -0 0
-0 -0 0
-0 -0 0
-0 -0 0
-0 -0 0
-0 -0 0
-0 -0 0
-0 -0 0
-0 -0 0
-0 -0 0
-0 -0 0
-0 -0 0
-0 -0 0
-0 -0 0
-0 -0 0
-0 -0 0
-0 -0 0
-0 -0 0
-0 -0 0
-0 -0 0
-0 -0 0
-0 -0 0
-0 -0 0
-0 -0 0
-0 -0 0
-0 -0 0
-0 -0 0
-0 -0 0
-0 -0 0
-0 -0 0
-0 -0 0
-0 -0 0
-0 -0 0
-0 -0 0
-0 -0 0
-0 -0 0
-0 -0 0
-0 -0 0
-0 -0 0
-0 -0 0
-0 -0 0
-0 -0 0
-0 -0 0
-0 -0 0
-0 -0 0
-0 -0 0
-0 -0 0
-0 -0 0
-0 -0 0
-0 -0 0
-0 -0 0
-0 -0 0
-0 -0 0
-0 -0 0
-0 -0 0
-0 -0 0
-0 -0 0
-0 -0 0
-0 -0 0
-0 -0 0
-0 -0 0
-0 -0 0
-0 -0 0
-0 -0 0
-0 -0 0
-0 -0 0
-0 -0 0
-0 -0 0
-0 -0 0
-0 -0 0
-0 -0 0
-0 -0 0
-0 -0 0
-0 -0 0
-0 -0 0
-0 -0 0
-0 -0 0
-0 -0 0
-0 -0 0
-0 -0 0
-0 -0 0
-0 -0 0
-0 -0 0
-0 -0 0
-0 -0 0
-0 -0 0
-0 -0 0
-0 -0 0
-0 -0 0
-0 -0 0
-0 -0 0
-0 -0 0
-0 -0 0
-0 -0 0
-0 -0 0
-0 -0 0
-0 -0 0
-0 -0 0
-0 -0 0
-0 -0 0
-0 -0 0
-0 -0 0
-0 -0 0
-0 -0 0
-0 -0 0
-0 -0 0
-0 -0 0
-0 -0 0
-0 -0 0
-0 -0 0
-0 -0 0
-0 -0 0
-0 -0 0
-0 -0 0
-0 -0 0
-0 -0 0
-0 -0 0
-0 -0 0
-0 -0 0
-0 -0 0
-0 -0 0
-0 -0 0
-0 -0 0
