# vtk DataFile Version 3.0
SPH particles (WCSPH) - legacy PolyData
ASCII
DATASET POLYDATA
POINTS 681 float
0.04999441578232032 0.029540126485115243 0
0.049993420254979069 0.032497192546897674 0
0.049992630715103979 0.034859506404446884 0
0.04999188535836932 0.037245430259996749 0
0.049991243558967689 0.039640609977340882 0
0.049990687662130044 0.042048640244569092 0
0.049990214422743165 0.044486131367950148 0
0.049989642578390794 0.046978018157038039 0
0.049988866271836289 0.049555701529490327 0
0.049987715836791187 0.052258136379783444 0
0.049985775208777852 0.055135090725996504 0
0.049983372175390763 0.058252615666537166 0
0.049982450380189107 0.061703013345779351 0
0.049983851598913588 0.065625076215537606 0
0.049986536267336339 0.070262528905932056 0
0.049989894622316379 0.076182250755175096 0
0.049993579440416387 0.085255169374513079 0
0.049997231099867222 0.1006122938183467 0
0.049999328571115935 0.12020463960943023 0
0.049999915757190018 0.14091160573329978 0
0.049999990656795702 0.16228481226436772 0
0.049999999070957681 0.18459843308946511 0
0.04999999992083979 0.20841258398042467 0
0.049999999995157272 0.23493273386231989 0
0.050000000000000003 0.28516327328084734 0
0.069997238059154421 0.02819925122554888 0
0.069996685583990401 0.031483939548848129 0
0.069996207424036089 0.034147605425216471 0
0.069995774717840756 0.036774092815304124 0
0.069995386785443814 0.039367380406854835 0
0.069994991260982367 0.041945029268993121 0
0.069994596899614694 0.044533692484382888 0
0.069994169941672568 0.047165917027640149 0
0.069993684695340383 0.04987860920420243 0
0.069992908240642387 0.052714918740703297 0
0.069991370308195466 0.055727994672982339 0
0.06998888013461245 0.058987131971852749 0
0.069987404744301387 0.06258709724674881 0
0.06998786464742969 0.066669523172299044 0
0.069989626070614652 0.071475759749667717 0
0.069992065523724362 0.077512236011909458 0
0.069994731777985625 0.086289775785515194 0
0.069997498627784122 0.10092095258180107 0
0.069999368587422242 0.1202765643817453 0
0.06999991684202278 0.1409863704599571 0
0.069999990397794351 0.16240867889392388 0
0.069999999008166169 0.1848017906156785 0
0.0699999999127007 0.20870668395210829 0
0.069999999994446782 0.2352593615417469 0
0.070000000000000007 0.28427444935709106 0
0.089998945522903259 0.02816768356150668 0
0.089998701154941824 0.031461298626960323 0
0.089998539044467987 0.034134224050575528 0
0.089998307404979896 0.036774546589784907 0
0.089998073674920076 0.0393852417034838 0
0.089997871845881941 0.041983249864551264 0
0.089997499246023197 0.044595346937931164 0
0.089997338180873576 0.047254191497579243 0
0.089997137810268579 0.049997124904340377 0
0.089996885411010918 0.052867790124472631 0
0.089996628113141811 0.055919848422043908 0
0.089995999704893359 0.059223014722130804 0
0.08999524655788789 0.062871613287308947 0
0.089995074513073134 0.067005890763734352 0
0.08999574139627646 0.071863873606935053 0
0.089996799096294183 0.077940734290469479 0
0.089998005229401157 0.086672294347546516 0
0.08999909364859833 0.10106333711309062 0
0.089999746219926194 0.12032110341508696 0
0.089999952056838986 0.14104583129448678 0
0.089999993474392734 0.16250648013622462 0
0.089999999254043297 0.18495461636298915 0
0.08999999992976894 0.20891361671215558 0
0.089999999995306834 0.23548646439190876 0
0.090000000000000011 0.28379910113568063 0
0.10999967676481989 0.028191051964763691 0
0.10999953437065946 0.031487465728530513 0
0.10999944504476639 0.034163197241755594 0
0.10999932908419287 0.036806944040470461 0
0.10999919461902971 0.039421673736342915 0
0.10999923958770232 0.042024483592595849 0
0.1099993009339101 0.04464211737584356 0
0.10999920810407043 0.047307372244328537 0
0.10999917924919717 0.050057662477319659 0
0.10999913650546854 0.052936903920520972 0
0.10999899783470744 0.055998982848932934 0
0.1099992860568179 0.059313839787745119 0
0.10999877076189024 0.062975672004366767 0
0.10999839794931336 0.067124557990056649 0
0.10999852494869232 0.071997393283618399 0
0.1099988839799866 0.078085617436707569 0
0.10999928920422983 0.086806848091596792 0
0.10999969509221127 0.1011245392283622 0
0.10999990825780778 0.12035035197832539 0
0.10999997961204157 0.14108604744552086 0
0.10999999663636811 0.16256983111792558 0
0.10999999956044747 0.18504763949575218 0
0.10999999995458669 0.20903413647577815 0
0.10999999999675794 0.23562361290960235 0
0.11000000000000001 0.28352659528238827 0
0.12999994539955664 0.028203142807743459 0
0.1299999307502866 0.031501668180861218 0
0.12999992322941231 0.034179065463875689 0
0.12999991924754098 0.03682450343481674 0
0.12999997885221107 0.039440986375819588 0
0.13000004849747793 0.042045600852246102 0
0.13000011393514974 0.044665304300993261 0
0.13000017203331873 0.047332716703891456 0
0.13000025382280098 0.050085471770480609 0
0.13000038474518746 0.052967513450203396 0
0.13000048384229529 0.056032787624110729 0
0.13000037075293028 0.059351263273182409 0
0.13000011040051265 0.063017309020996462 0
0.12999989988608768 0.06717061068988904 0
0.12999973084066907 0.072047841665098686 0
0.12999967825676706 0.078138993429896844 0
0.12999978880088045 0.08685447974065641 0
0.12999990635655562 0.10115022910926783 0
0.12999996994992011 0.12036806874120283 0
0.12999999244634866 0.14111066578578449 0
0.12999999855827843 0.16260716405520212 0
0.12999999978551754 0.18510065337011825 0
0.1299999999754731 0.20910132203281542 0
0.12999999999810949 0.23570022218829267 0
0.13 0.28338488951633539 0
0.15000011137999031 0.028208179811365659 0
0.15000013763143807 0.031507711928607067 0
0.15000017344715935 0.034185894538776407 0
0.15000021954815479 0.036832120788687757 0
0.1500003856425195 0.039449394411238743 0
0.15000042842282624 0.0420547733319446 0
0.1500004243794113 0.044675259689647993 0
0.15000044015447972 0.047343565911085815 0
0.15000049346242619 0.050097278037246139 0
0.15000057360204017 0.052980384771236774 0
0.15000065796945172 0.056046867788236338 0
0.15000053613734798 0.059366611190857607 0
0.1500004993789128 0.063034166712962206 0
0.15000034056614625 0.067189012199712156 0
0.15000014751493637 0.072067638072825416 0
0.15000001234282931 0.078159616626606379 0
0.1499999703878574 0.086872844842011868 0
0.14999997694560555 0.10116131715073522 0
0.14999999117541349 0.12037780177879723 0
0.14999999760003196 0.1411246103542198 0
0.14999999947291379 0.16262765084424702 0
0.14999999991148733 0.18512888415920051 0
0.14999999998882665 0.20913639046330224 0
0.14999999999906924 0.23573967846193933 0
0.15000000000000002 0.28331823259701139 0
0.1700001663720043 0.028210185196983976 0
0.17000022216732369 0.031510098692631903 0
0.17000025664042084 0.034188621494934603 0
0.17000032531315287 0.036835124843449904 0
0.17000039662440225 0.039452625410121872 0
0.17000051775888528 0.042058332959349909 0
0.17000069403957663 0.044679206593364343 0
0.17000074193684464 0.047347840112878764 0
0.17000078313868672 0.050101925917029659 0
0.17000082546910508 0.052985411132187868 0
0.17000083502215921 0.0560523392217218 0
0.1700007374298754 0.059372608685808403 0
0.17000072377118583 0.063040718248351266 0
0.17000068970196058 0.067196029302106899 0
0.17000024429164559 0.072075198995164097 0
0.17000011524437589 0.078167464021764971 0
0.17000003236133099 0.086879876493650962 0
0.1700000072608345 0.10116598761446212 0
0.17000000083921199 0.12038250883301527 0
0.16999999956322207 0.1411314835293192 0
0.16999999985633243 0.16263757141807292 0
0.16999999997182738 0.18514220782506316 0
0.16999999999611873 0.20915265655390464 0
0.1699999999996557 0.23575768170064448 0
0.17000000000000004 0.28329064841979951 0
0.19000010021170088 0.028210762975087809 0
0.19000011914870504 0.031510752295998486 0
0.19000018619044681 0.034189357160361152 0
0.19000020601327988 0.036835902393463515 0
0.19000028630691729 0.039453471562548838 0
0.19000044731400004 0.042059321567709987 0
0.19000059106492942 0.044680206078142028 0
0.19000057714655363 0.047348893118927635 0
0.19000062198846004 0.050103072642906997 0
0.19000065104717168 0.052986705695150509 0
0.19000050432486185 0.056053754954187733 0
0.19000057547388052 0.059374266888332874 0
0.19000035349930189 0.063042468443319732 0
0.19000025784344027 0.067197996727407575 0
0.19000019793916323 0.072077269823319065 0
0.19000002939154878 0.078169559057900198 0
0.19000001102614 0.086881740713968508 0
0.19000001974467556 0.10116726694883328 0
0.19000000606712378 0.12038388735004282 0
0.19000000040525969 0.1411335254134391 0
0.19000000002162123 0.16264049155289473 0
0.19000000000243353 0.18514607264457858 0
0.19000000000035186 0.20915732519857316 0
0.19000000000003422 0.2357627926472958 0
0.19 0.28328334835036367 0
0.21000018375060783 0.028210229618026026 0
0.21000024127984163 0.031510129342550437 0
0.21000028455386452 0.034188634891299044 0
0.21000033299888668 0.036835163173979418 0
0.21000042391080487 0.039452697395978828 0
0.21000043312712022 0.042058410797388736 0
0.21000050401426001 0.044679250869685216 0
0.2100005286731772 0.047347898307215475 0
0.2100005684850117 0.050102000572517451 0
0.21000057212925799 0.052985534257012031 0
0.21000053497449864 0.056052486674563667 0
0.2100004800452536 0.05937280013686138 0
0.21000031897907726 0.063040867168750889 0
0.21000014746628798 0.067196206661950739 0
0.21000012152771985 0.072075388604795773 0
0.21000001020422496 0.078167604525353804 0
0.20999996146032679 0.086879971872334025 0
0.21000001733915788 0.10116596561477502 0
0.21000000163049495 0.12038249003715802 0
0.21000000073983582 0.14113148150305829 0
0.21000000017978918 0.16263757122475153 0
0.21000000003333208 0.1851422078055063 0
0.21000000000460436 0.20915265655198914 0
0.21000000000041241 0.23575768170050757 0
0.21000000000000002 0.28329064841979951 0
0.23000023121536645 0.028208259563575734 0
0.23000027387634731 0.031507776537999896 0
0.23000033180888935 0.034185999585754627 0
0.23000039093346486 0.036832166740714552 0
0.23000048272332091 0.039449469832682243 0
0.23000055433413019 0.042054859779146345 0
0.2300006248004981 0.044675363733880986 0
0.2300006508447619 0.047343655440299288 0
0.23000073471045054 0.05009738428597367 0
0.23000078787982867 0.052980483190608996 0
0.23000078448000033 0.056046988581199324 0
0.23000061842458069 0.059366843586078542 0
0.23000047922151429 0.063034403557297392 0
0.23000035407998273 0.06718917195018391 0
0.2300003100564168 0.07206778845490816 0
0.23000020759535927 0.078159748046111782 0
0.23000009288873238 0.086872951657257336 0
0.2300000150817495 0.10116132179350278 0
0.23000000761474773 0.12037778908522875 0
0.23000000256445308 0.14112460819059999 0
0.23000000056718936 0.16262765056189024 0
0.23000000009449881 0.18512888412494094 0
0.23000000001190282 0.2091363904596697 0
0.23000000000099313 0.23573967846167079 0
0.23000000000000004 0.28331823259701144 0
0.25000030280052404 0.028203172859401052 0
0.2500003839283011 0.03150170263190151 0
0.25000043761738927 0.034179156400748943 0
0.25000053621526863 0.036824639847170652 0
0.25000061416797353 0.039441125625373434 0
0.2500006954063716 0.042045756287581726 0
0.25000070823014942 0.044665463988271599 0
0.25000082683172736 0.047332880346610651 0
0.25000089715932367 0.050085640737990059 0
0.25000098835458923 0.05296766239290232 0
0.25000101902974764 0.056032972823969913 0
0.25000091679399328 0.059351446010809335 0
0.25000073893142916 0.063017584628718301 0
0.2500008479786473 0.067170733226204829 0
0.25000067875135157 0.0720479599723437 0
0.25000053681247508 0.078139115710585738 0
0.25000031416281671 0.086854581086402094 0
0.25000011746261541 0.10115024530763743 0
0.25000003308266866 0.12036806182879572 0
0.25000000799335154 0.14111066383558707 0
0.25000000149790386 0.16260716372080256 0
0.25000000022064678 0.18510065332433048 0
0.25000000002512557 0.20910132202773446 0
0.25000000000193523 0.23570022218790737 0
0.25000000000000006 0.28338488951633539 0
0.27000044592787553 0.028191069696925863 0
0.27000055789837191 0.031487477699590739 0
0.27000064987751771 0.034163237983015446 0
0.27000075811835206 0.036807008452358431 0
0.27000100952248801 0.039421851594020431 0
0.27000113097440531 0.042024642231361063 0
0.27000124096899575 0.04464237622163976 0
0.27000138050480516 0.047307589671387679 0
0.27000155941732373 0.050057879610202964 0
0.27000170596466555 0.052937106129147142 0
0.2700018512909223 0.05599918143581796 0
0.27000187312598217 0.059313979491875328 0
0.27000219299296757 0.062975916088289147 0
0.27000205771832386 0.067124762293562193 0
0.27000178568452732 0.071997581589538451 0
0.27000132990879627 0.078085798633206888 0
0.27000080092980566 0.086806946037898819 0
0.27000034159512909 0.10112453425007173 0
0.2700000979630624 0.12035033905781407 0
0.27000002109255827 0.14108604455028226 0
0.2700000034209083 0.16256983067664291 0
0.27000000044344058 0.18504763943858957 0
0.27000000004564434 0.20903413646959484 0
0.27000000000325458 0.23562361290913539 0
0.27000000000000002 0.28352659528238827 0
0.29000110811996893 0.028167755105884967 0
0.29000136742308136 0.031461353269012934 0
0.29000157385332903 0.03413430463835896 0
0.29000178150858308 0.036774651453249478 0
0.29000199548585825 0.039385310016415861 0
0.29000225949784092 0.041983349761064125 0
0.29000249924015953 0.044595608130540192 0
0.2900027844972935 0.047254507107357804 0
0.29000312673663603 0.049997437762516986 0
0.2900035275597504 0.05286809766052146 0
0.29000399211998984 0.055920154537421891 0
0.29000450161174268 0.059223277742118684 0
0.29000503257397969 0.062871876735806284 0
0.29000504694355361 0.067006136056916049 0
0.2900043900209644 0.071864041310225182 0
0.29000334426124114 0.077940834425752364 0
0.29000210242724367 0.086672317198647542 0
0.29000095295113393 0.10106327803520145 0
0.2900002626091388 0.1203210718452126 0
0.2900000484672251 0.141045826449128 0
0.29000000653897862 0.16250647954633302 0
0.29000000074411725 0.18495461629640489 0
0.29000000006988402 0.20891361670542719 0
0.29000000000466442 0.23548646439141285 0
0.29000000000000004 0.28379910113568058 0
0.31000290840372519 0.028199353685955407 0
0.31000348248610665 0.031484068603853645 0
0.3100039063419695 0.034147708853056458 0
0.31000431315969956 0.036774294560789414 0
0.31000471233945964 0.039367572111425601 0
0.31000513555925902 0.041945176046977686 0
0.31000556086365239 0.04453393697223447 0
0.31000598544389057 0.047166150509017277 0
0.31000653706345105 0.049878799457448261 0
0.31000731165073808 0.052715075987184168 0
0.31000893137078622 0.055728130511074989 0
0.31001142779342622 0.058987282635152467 0
0.31001275484430874 0.062587309718925455 0
0.31001211774987364 0.066669705103812607 0
0.31001040193731771 0.071475861236227914 0
0.31000804943629184 0.077512257828700262 0
0.31000532017781085 0.08628967805909328 0
0.31000250909610266 0.10092080632280023 0
0.31000062787935434 0.12027651500075522 0
0.31000008256911366 0.14098636412355456 0
0.31000000952612572 0.16240867823510191 0
0.31000000098277414 0.18480179054826223 0
0.31000000008639789 0.20870668394567607 0
0.31000000000549099 0.23525936154128535 0
0.31000000000000005 0.28427444935709106 0
0.33000539250266259 0.029540389970045291 0
0.33000634177980637 0.032497447781466821 0
0.33000708739238027 0.034859748025758572 0
0.33000777407817672 0.03724565253652274 0
0.33000836377026804 0.039640792561470579 0
0.33000888294689384 0.042048776427627027 0
0.3300093825378338 0.044486228541230549 0
0.33000993218513991 0.046978080052707268 0
0.33001057198319245 0.049555715404114895 0
0.33001154889758127 0.052258106663851202 0
0.33001337056532515 0.055135001400474504 0
0.33001579003333376 0.058252504090051123 0
0.33001665556183024 0.061702869972745877 0
0.33001522821405965 0.065624860531566659 0
0.33001272119847597 0.070262228976849833 0
0.33000960614401748 0.07618183905821993 0
0.33000611846054184 0.085254737349676923 0
0.3300026961858738 0.1006120866226244 0
0.33000065733258266 0.1202045986337941 0
0.3300000829255868 0.14091160093830019 0
0.33000000922116951 0.16228481174298795 0
0.33000000091739012 0.18459843303585027 0
0.33000000007813379 0.20841258397539611 0
0.33000000000477669 0.23493273386196833 0
0.33000000000000002 0.28516327328084723 0
0 0 0
0 0.020000000000000004 0
0 0.040000000000000001 0
0 0.54999999999999993 0
0 0.56000000000000005 0
0 0.58000000000000007 0
0.02 0 0
0.02 0.020000000000000004 0
0.02 0.040000000000000001 0
0.02 0.54999999999999993 0
0.02 0.56000000000000005 0
0.02 0.58000000000000007 0
0.040000000000000001 0 0
0.040000000000000001 0.020000000000000004 0
0.040000000000000001 0.040000000000000001 0
0.040000000000000001 0.54999999999999993 0
0.040000000000000001 0.56000000000000005 0
0.040000000000000001 0.58000000000000007 0
0.059999999999999998 0 0
0.059999999999999998 0.020000000000000004 0
0.059999999999999998 0.040000000000000001 0
0.059999999999999998 0.54999999999999993 0
0.059999999999999998 0.56000000000000005 0
0.059999999999999998 0.58000000000000007 0
0.080000000000000002 0 0
0.080000000000000002 0.020000000000000004 0
0.080000000000000002 0.040000000000000001 0
0.080000000000000002 0.54999999999999993 0
0.080000000000000002 0.56000000000000005 0
0.080000000000000002 0.58000000000000007 0
0.10000000000000001 0 0
0.10000000000000001 0.020000000000000004 0
0.10000000000000001 0.040000000000000001 0
0.10000000000000001 0.54999999999999993 0
0.10000000000000001 0.56000000000000005 0
0.10000000000000001 0.58000000000000007 0
0.12 0 0
0.12 0.020000000000000004 0
0.12 0.040000000000000001 0
0.12 0.54999999999999993 0
0.12 0.56000000000000005 0
0.12 0.58000000000000007 0
0.14000000000000001 0 0
0.14000000000000001 0.020000000000000004 0
0.14000000000000001 0.040000000000000001 0
0.14000000000000001 0.54999999999999993 0
0.14000000000000001 0.56000000000000005 0
0.14000000000000001 0.58000000000000007 0
0.16 0 0
0.16 0.020000000000000004 0
0.16 0.040000000000000001 0
0.16 0.54999999999999993 0
0.16 0.56000000000000005 0
0.16 0.58000000000000007 0
0.17999999999999999 0 0
0.17999999999999999 0.020000000000000004 0
0.17999999999999999 0.040000000000000001 0
0.17999999999999999 0.54999999999999993 0
0.17999999999999999 0.56000000000000005 0
0.17999999999999999 0.58000000000000007 0
0.20000000000000001 0 0
0.20000000000000001 0.020000000000000004 0
0.20000000000000001 0.040000000000000001 0
0.20000000000000001 0.54999999999999993 0
0.20000000000000001 0.56000000000000005 0
0.20000000000000001 0.58000000000000007 0
0.22 0 0
0.22 0.020000000000000004 0
0.22 0.040000000000000001 0
0.22 0.54999999999999993 0
0.22 0.56000000000000005 0
0.22 0.58000000000000007 0
0.23999999999999999 0 0
0.23999999999999999 0.020000000000000004 0
0.23999999999999999 0.040000000000000001 0
0.23999999999999999 0.54999999999999993 0
0.23999999999999999 0.56000000000000005 0
0.23999999999999999 0.58000000000000007 0
0.26000000000000001 0 0
0.26000000000000001 0.020000000000000004 0
0.26000000000000001 0.040000000000000001 0
0.26000000000000001 0.54999999999999993 0
0.26000000000000001 0.56000000000000005 0
0.26000000000000001 0.58000000000000007 0
0.28000000000000003 0 0
0.28000000000000003 0.020000000000000004 0
0.28000000000000003 0.040000000000000001 0
0.28000000000000003 0.54999999999999993 0
0.28000000000000003 0.56000000000000005 0
0.28000000000000003 0.58000000000000007 0
0.29999999999999999 0 0
0.29999999999999999 0.020000000000000004 0
0.29999999999999999 0.040000000000000001 0
0.29999999999999999 0.54999999999999993 0
0.29999999999999999 0.56000000000000005 0
0.29999999999999999 0.58000000000000007 0
0.32000000000000001 0 0
0.32000000000000001 0.020000000000000004 0
0.32000000000000001 0.040000000000000001 0
0.32000000000000001 0.54999999999999993 0
0.32000000000000001 0.56000000000000005 0
0.32000000000000001 0.58000000000000007 0
0.34000000000000002 0 0
0.34000000000000002 0.020000000000000004 0
0.34000000000000002 0.040000000000000001 0
0.34000000000000002 0.54999999999999993 0
0.34000000000000002 0.56000000000000005 0
0.34000000000000002 0.58000000000000007 0
0.35999999999999999 0 0
0.35999999999999999 0.020000000000000004 0
0.35999999999999999 0.040000000000000001 0
0.35999999999999999 0.54999999999999993 0
0.35999999999999999 0.56000000000000005 0
0.35999999999999999 0.58000000000000007 0
0.38 0 0
0.38 0.020000000000000004 0
0.38 0.040000000000000001 0
0.38 0.54999999999999993 0
0.38 0.56000000000000005 0
0.38 0.58000000000000007 0
0.40000000000000002 0 0
0.40000000000000002 0.020000000000000004 0
0.40000000000000002 0.040000000000000001 0
0.40000000000000002 0.54999999999999993 0
0.40000000000000002 0.56000000000000005 0
0.40000000000000002 0.58000000000000007 0
0.41999999999999998 0 0
0.41999999999999998 0.020000000000000004 0
0.41999999999999998 0.040000000000000001 0
0.41999999999999998 0.54999999999999993 0
0.41999999999999998 0.56000000000000005 0
0.41999999999999998 0.58000000000000007 0
0.44 0 0
0.44 0.020000000000000004 0
0.44 0.040000000000000001 0
0.44 0.54999999999999993 0
0.44 0.56000000000000005 0
0.44 0.58000000000000007 0
0.46000000000000002 0 0
0.46000000000000002 0.020000000000000004 0
0.46000000000000002 0.040000000000000001 0
0.46000000000000002 0.54999999999999993 0
0.46000000000000002 0.56000000000000005 0
0.46000000000000002 0.58000000000000007 0
0.47999999999999998 0 0
0.47999999999999998 0.020000000000000004 0
0.47999999999999998 0.040000000000000001 0
0.47999999999999998 0.54999999999999993 0
0.47999999999999998 0.56000000000000005 0
0.47999999999999998 0.58000000000000007 0
0.5 0 0
0.5 0.020000000000000004 0
0.5 0.040000000000000001 0
0.5 0.54999999999999993 0
0.5 0.56000000000000005 0
0.5 0.58000000000000007 0
0.52000000000000002 0 0
0.52000000000000002 0.020000000000000004 0
0.52000000000000002 0.040000000000000001 0
0.52000000000000002 0.54999999999999993 0
0.52000000000000002 0.56000000000000005 0
0.52000000000000002 0.58000000000000007 0
0.54000000000000004 0 0
0.54000000000000004 0.020000000000000004 0
0.54000000000000004 0.040000000000000001 0
0.54000000000000004 0.54999999999999993 0
0.54000000000000004 0.56000000000000005 0
0.54000000000000004 0.58000000000000007 0
0.56000000000000005 0 0
0.56000000000000005 0.020000000000000004 0
0.56000000000000005 0.040000000000000001 0
0.56000000000000005 0.54999999999999993 0
0.56000000000000005 0.56000000000000005 0
0.56000000000000005 0.58000000000000007 0
0.57999999999999996 0 0
0.57999999999999996 0.020000000000000004 0
0.57999999999999996 0.040000000000000001 0
0.57999999999999996 0.54999999999999993 0
0.57999999999999996 0.56000000000000005 0
0.57999999999999996 0.58000000000000007 0
0.59999999999999998 0 0
0.59999999999999998 0.020000000000000004 0
0.59999999999999998 0.040000000000000001 0
0.59999999999999998 0.54999999999999993 0
0.59999999999999998 0.56000000000000005 0
0.59999999999999998 0.58000000000000007 0
0.62 0 0
0.62 0.020000000000000004 0
0.62 0.040000000000000001 0
0.62 0.54999999999999993 0
0.62 0.56000000000000005 0
0.62 0.58000000000000007 0
0.64000000000000001 0 0
0.64000000000000001 0.020000000000000004 0
0.64000000000000001 0.040000000000000001 0
0.64000000000000001 0.54999999999999993 0
0.64000000000000001 0.56000000000000005 0
0.64000000000000001 0.58000000000000007 0
0.66000000000000003 0 0
0.66000000000000003 0.020000000000000004 0
0.66000000000000003 0.040000000000000001 0
0.66000000000000003 0.54999999999999993 0
0.66000000000000003 0.56000000000000005 0
0.66000000000000003 0.58000000000000007 0
0.68000000000000005 0 0
0.68000000000000005 0.020000000000000004 0
0.68000000000000005 0.040000000000000001 0
0.68000000000000005 0.54999999999999993 0
0.68000000000000005 0.56000000000000005 0
0.68000000000000005 0.58000000000000007 0
0.70000000000000007 0 0
0.70000000000000007 0.020000000000000004 0
0.70000000000000007 0.040000000000000001 0
0.70000000000000007 0.54999999999999993 0
0.70000000000000007 0.56000000000000005 0
0.70000000000000007 0.58000000000000007 0
0.71999999999999997 0 0
0.71999999999999997 0.020000000000000004 0
0.71999999999999997 0.040000000000000001 0
0.71999999999999997 0.54999999999999993 0
0.71999999999999997 0.56000000000000005 0
0.71999999999999997 0.58000000000000007 0
0.73999999999999999 0 0
0.73999999999999999 0.020000000000000004 0
0.73999999999999999 0.040000000000000001 0
0.73999999999999999 0.54999999999999993 0
0.73999999999999999 0.56000000000000005 0
0.73999999999999999 0.58000000000000007 0
0.76000000000000001 0 0
0.76000000000000001 0.020000000000000004 0
0.76000000000000001 0.040000000000000001 0
0.76000000000000001 0.54999999999999993 0
0.76000000000000001 0.56000000000000005 0
0.76000000000000001 0.58000000000000007 0
0.78000000000000003 0 0
0.78000000000000003 0.020000000000000004 0
0.78000000000000003 0.040000000000000001 0
0.78000000000000003 0.54999999999999993 0
0.78000000000000003 0.56000000000000005 0
0.78000000000000003 0.58000000000000007 0
0.80000000000000004 0 0
0.80000000000000004 0.020000000000000004 0
0.80000000000000004 0.040000000000000001 0
0.80000000000000004 0.54999999999999993 0
0.80000000000000004 0.56000000000000005 0
0.80000000000000004 0.58000000000000007 0
0.82000000000000006 0 0
0.82000000000000006 0.020000000000000004 0
0.82000000000000006 0.040000000000000001 0
0.82000000000000006 0.54999999999999993 0
0.82000000000000006 0.56000000000000005 0
0.82000000000000006 0.58000000000000007 0
0.83999999999999997 0 0
0.83999999999999997 0.020000000000000004 0
0.83999999999999997 0.040000000000000001 0
0.83999999999999997 0.54999999999999993 0
0.83999999999999997 0.56000000000000005 0
0.83999999999999997 0.58000000000000007 0
0.85999999999999999 0 0
0.85999999999999999 0.020000000000000004 0
0.85999999999999999 0.040000000000000001 0
0.85999999999999999 0.54999999999999993 0
0.85999999999999999 0.56000000000000005 0
0.85999999999999999 0.58000000000000007 0
0.88 0 0
0.88 0.020000000000000004 0
0.88 0.040000000000000001 0
0.88 0.54999999999999993 0
0.88 0.56000000000000005 0
0.88 0.58000000000000007 0
0.90000000000000002 0 0
0.90000000000000002 0.020000000000000004 0
0.90000000000000002 0.040000000000000001 0
0.90000000000000002 0.54999999999999993 0
0.90000000000000002 0.56000000000000005 0
0.90000000000000002 0.58000000000000007 0
0.92000000000000004 0 0
0.92000000000000004 0.020000000000000004 0
0.92000000000000004 0.040000000000000001 0
0.92000000000000004 0.54999999999999993 0
0.92000000000000004 0.56000000000000005 0
0.92000000000000004 0.58000000000000007 0
0.94000000000000006 0 0
0.94000000000000006 0.020000000000000004 0
0.94000000000000006 0.040000000000000001 0
0.94000000000000006 0.54999999999999993 0
0.94000000000000006 0.56000000000000005 0
0.94000000000000006 0.58000000000000007 0
0.95999999999999996 0 0
0.95999999999999996 0.020000000000000004 0
0.95999999999999996 0.040000000000000001 0
0.95999999999999996 0.54999999999999993 0
0.95999999999999996 0.56000000000000005 0
0.95999999999999996 0.58000000000000007 0
0.97999999999999998 0 0
0.97999999999999998 0.020000000000000004 0
0.97999999999999998 0.040000000000000001 0
0.97999999999999998 0.54999999999999993 0
0.97999999999999998 0.56000000000000005 0
0.97999999999999998 0.58000000000000007 0
1 0 0
1 0.020000000000000004 0
1 0.040000000000000001 0
1 0.54999999999999993 0
1 0.56000000000000005 0
1 0.58000000000000007 0
VERTICES 681 1362
1 0
1 1
1 2
1 3
1 4
1 5
1 6
1 7
1 8
1 9
1 10
1 11
1 12
1 13
1 14
1 15
1 16
1 17
1 18
1 19
1 20
1 21
1 22
1 23
1 24
1 25
1 26
1 27
1 28
1 29
1 30
1 31
1 32
1 33
1 34
1 35
1 36
1 37
1 38
1 39
1 40
1 41
1 42
1 43
1 44
1 45
1 46
1 47
1 48
1 49
1 50
1 51
1 52
1 53
1 54
1 55
1 56
1 57
1 58
1 59
1 60
1 61
1 62
1 63
1 64
1 65
1 66
1 67
1 68
1 69
1 70
1 71
1 72
1 73
1 74
1 75
1 76
1 77
1 78
1 79
1 80
1 81
1 82
1 83
1 84
1 85
1 86
1 87
1 88
1 89
1 90
1 91
1 92
1 93
1 94
1 95
1 96
1 97
1 98
1 99
1 100
1 101
1 102
1 103
1 104
1 105
1 106
1 107
1 108
1 109
1 110
1 111
1 112
1 113
1 114
1 115
1 116
1 117
1 118
1 119
1 120
1 121
1 122
1 123
1 124
1 125
1 126
1 127
1 128
1 129
1 130
1 131
1 132
1 133
1 134
1 135
1 136
1 137
1 138
1 139
1 140
1 141
1 142
1 143
1 144
1 145
1 146
1 147
1 148
1 149
1 150
1 151
1 152
1 153
1 154
1 155
1 156
1 157
1 158
1 159
1 160
1 161
1 162
1 163
1 164
1 165
1 166
1 167
1 168
1 169
1 170
1 171
1 172
1 173
1 174
1 175
1 176
1 177
1 178
1 179
1 180
1 181
1 182
1 183
1 184
1 185
1 186
1 187
1 188
1 189
1 190
1 191
1 192
1 193
1 194
1 195
1 196
1 197
1 198
1 199
1 200
1 201
1 202
1 203
1 204
1 205
1 206
1 207
1 208
1 209
1 210
1 211
1 212
1 213
1 214
1 215
1 216
1 217
1 218
1 219
1 220
1 221
1 222
1 223
1 224
1 225
1 226
1 227
1 228
1 229
1 230
1 231
1 232
1 233
1 234
1 235
1 236
1 237
1 238
1 239
1 240
1 241
1 242
1 243
1 244
1 245
1 246
1 247
1 248
1 249
1 250
1 251
1 252
1 253
1 254
1 255
1 256
1 257
1 258
1 259
1 260
1 261
1 262
1 263
1 264
1 265
1 266
1 267
1 268
1 269
1 270
1 271
1 272
1 273
1 274
1 275
1 276
1 277
1 278
1 279
1 280
1 281
1 282
1 283
1 284
1 285
1 286
1 287
1 288
1 289
1 290
1 291
1 292
1 293
1 294
1 295
1 296
1 297
1 298
1 299
1 300
1 301
1 302
1 303
1 304
1 305
1 306
1 307
1 308
1 309
1 310
1 311
1 312
1 313
1 314
1 315
1 316
1 317
1 318
1 319
1 320
1 321
1 322
1 323
1 324
1 325
1 326
1 327
1 328
1 329
1 330
1 331
1 332
1 333
1 334
1 335
1 336
1 337
1 338
1 339
1 340
1 341
1 342
1 343
1 344
1 345
1 346
1 347
1 348
1 349
1 350
1 351
1 352
1 353
1 354
1 355
1 356
1 357
1 358
1 359
1 360
1 361
1 362
1 363
1 364
1 365
1 366
1 367
1 368
1 369
1 370
1 371
1 372
1 373
1 374
1 375
1 376
1 377
1 378
1 379
1 380
1 381
1 382
1 383
1 384
1 385
1 386
1 387
1 388
1 389
1 390
1 391
1 392
1 393
1 394
1 395
1 396
1 397
1 398
1 399
1 400
1 401
1 402
1 403
1 404
1 405
1 406
1 407
1 408
1 409
1 410
1 411
1 412
1 413
1 414
1 415
1 416
1 417
1 418
1 419
1 420
1 421
1 422
1 423
1 424
1 425
1 426
1 427
1 428
1 429
1 430
1 431
1 432
1 433
1 434
1 435
1 436
1 437
1 438
1 439
1 440
1 441
1 442
1 443
1 444
1 445
1 446
1 447
1 448
1 449
1 450
1 451
1 452
1 453
1 454
1 455
1 456
1 457
1 458
1 459
1 460
1 461
1 462
1 463
1 464
1 465
1 466
1 467
1 468
1 469
1 470
1 471
1 472
1 473
1 474
1 475
1 476
1 477
1 478
1 479
1 480
1 481
1 482
1 483
1 484
1 485
1 486
1 487
1 488
1 489
1 490
1 491
1 492
1 493
1 494
1 495
1 496
1 497
1 498
1 499
1 500
1 501
1 502
1 503
1 504
1 505
1 506
1 507
1 508
1 509
1 510
1 511
1 512
1 513
1 514
1 515
1 516
1 517
1 518
1 519
1 520
1 521
1 522
1 523
1 524
1 525
1 526
1 527
1 528
1 529
1 530
1 531
1 532
1 533
1 534
1 535
1 536
1 537
1 538
1 539
1 540
1 541
1 542
1 543
1 544
1 545
1 546
1 547
1 548
1 549
1 550
1 551
1 552
1 553
1 554
1 555
1 556
1 557
1 558
1 559
1 560
1 561
1 562
1 563
1 564
1 565
1 566
1 567
1 568
1 569
1 570
1 571
1 572
1 573
1 574
1 575
1 576
1 577
1 578
1 579
1 580
1 581
1 582
1 583
1 584
1 585
1 586
1 587
1 588
1 589
1 590
1 591
1 592
1 593
1 594
1 595
1 596
1 597
1 598
1 599
1 600
1 601
1 602
1 603
1 604
1 605
1 606
1 607
1 608
1 609
1 610
1 611
1 612
1 613
1 614
1 615
1 616
1 617
1 618
1 619
1 620
1 621
1 622
1 623
1 624
1 625
1 626
1 627
1 628
1 629
1 630
1 631
1 632
1 633
1 634
1 635
1 636
1 637
1 638
1 639
1 640
1 641
1 642
1 643
1 644
1 645
1 646
1 647
1 648
1 649
1 650
1 651
1 652
1 653
1 654
1 655
1 656
1 657
1 658
1 659
1 660
1 661
1 662
1 663
1 664
1 665
1 666
1 667
1 668
1 669
1 670
1 671
1 672
1 673
1 674
1 675
1 676
1 677
1 678
1 679
1 680
POINT_DATA 681
SCALARS is_boundary int 1
LOOKUP_TABLE default
0
0
0
0
0
0
0
0
0
0
0
0
0
0
0
0
0
0
0
0
0
0
0
0
0
0
0
0
0
0
0
0
0
0
0
0
0
0
0
0
0
0
0
0
0
0
0
0
0
0
0
0
0
0
0
0
0
0
0
0
0
0
0
0
0
0
0
0
0
0
0
0
0
0
0
0
0
0
0
0
0
0
0
0
0
0
0
0
0
0
0
0
0
0
0
0
0
0
0
0
0
0
0
0
0
0
0
0
0
0
0
0
0
0
0
0
0
0
0
0
0
0
0
0
0
0
0
0
0
0
0
0
0
0
0
0
0
0
0
0
0
0
0
0
0
0
0
0
0
0
0
0
0
0
0
0
0
0
0
0
0
0
0
0
0
0
0
0
0
0
0
0
0
0
0
0
0
0
0
0
0
0
0
0
0
0
0
0
0
0
0
0
0
0
0
0
0
0
0
0
0
0
0
0
0
0
0
0
0
0
0
0
0
0
0
0
0
0
0
0
0
0
0
0
0
0
0
0
0
0
0
0
0
0
0
0
0
0
0
0
0
0
0
0
0
0
0
0
0
0
0
0
0
0
0
0
0
0
0
0
0
0
0
0
0
0
0
0
0
0
0
0
0
0
0
0
0
0
0
0
0
0
0
0
0
0
0
0
0
0
0
0
0
0
0
0
0
0
0
0
0
0
0
0
0
0
0
0
0
0
0
0
0
0
0
0
0
0
0
0
0
0
0
0
0
0
0
0
0
0
0
0
0
0
0
0
0
0
0
0
0
0
0
0
0
0
0
0
0
0
0
0
0
0
0
0
0
0
0
0
0
0
0
0
0
0
0
0
0
0
0
0
0
0
0
1
1
1
1
1
1
1
1
1
1
1
1
1
1
1
1
1
1
1
1
1
1
1
1
1
1
1
1
1
1
1
1
1
1
1
1
1
1
1
1
1
1
1
1
1
1
1
1
1
1
1
1
1
1
1
1
1
1
1
1
1
1
1
1
1
1
1
1
1
1
1
1
1
1
1
1
1
1
1
1
1
1
1
1
1
1
1
1
1
1
1
1
1
1
1
1
1
1
1
1
1
1
1
1
1
1
1
1
1
1
1
1
1
1
1
1
1
1
1
1
1
1
1
1
1
1
1
1
1
1
1
1
1
1
1
1
1
1
1
1
1
1
1
1
1
1
1
1
1
1
1
1
1
1
1
1
1
1
1
1
1
1
1
1
1
1
1
1
1
1
1
1
1
1
1
1
1
1
1
1
1
1
1
1
1
1
1
1
1
1
1
1
1
1
1
1
1
1
1
1
1
1
1
1
1
1
1
1
1
1
1
1
1
1
1
1
1
1
1
1
1
1
1
1
1
1
1
1
1
1
1
1
1
1
1
1
1
1
1
1
1
1
1
1
1
1
1
1
1
1
1
1
1
1
1
1
1
1
1
1
1
1
1
1
1
1
1
1
1
1
1
1
1
1
1
1
1
1
1
1
1
1
1
1
1
1
1
1
1
1
1
1
1
1
1
1
1
1
1
1
1
1
1
1
1
1
SCALARS rho float 1
LOOKUP_TABLE default
1020
1020
1020
1020
1020
1020
1020
1020
1020
1020
1020
1020
1020
1020
1020
1020
1020
880
862
862
850
850
850
850
850
1020
1020
1020
1020
1020
1020
1020
1020
1020
1020
1020
1020
1020
1020
1020
1020
1020
1020
880
880
880
870.71709973646784
850
850
850
1020
1020
1020
1020
1020
1020
1020
1020
1020
1020
1020
1020
1020
1020
1020
1020
1020
1020
880
880
880
870.05960233803489
862
850
850
1020
1020
1020
1020
1020
1020
1020
1020
1020
1020
1020
1020
1020
1020
1020
1020
1020
1020
880
880
880
869.37079966353622
862
850
850
1020
1020
1020
1020
1020
1020
1020
1020
1020
1020
1020
1020
1020
1020
1020
1020
1020
1020
880
880
880
869.01481777036588
862
850
850
1020
1020
1020
1020
1020
1020
1020
1020
1020
1020
1020
1020
1020
1020
1020
1020
1020
1020
880
880
880
868.83913348452245
862
850
850
1020
1020
1020
1020
1020
1020
1020
1020
1020
1020
1020
1020
1020
1020
1020
1020
1020
1020
880
880
880
868.76171209658116
862
850
850
1020
1020
1020
1020
1020
1020
1020
1020
1020
1020
1020
1020
1020
1020
1020
1020
1020
1020
880
880
880
868.74022138865269
862
850
850
1020
1020
1020
1020
1020
1020
1020
1020
1020
1020
1020
1020
1020
1020
1020
1020
1020
1020
880
880
880
868.76171006475988
862
850
850
1020
1020
1020
1020
1020
1020
1020
1020
1020
1020
1020
1020
1020
1020
1020
1020
1020
1020
880
880
880
868.83913022829108
862
850
850
1020
1020
1020
1020
1020
1020
1020
1020
1020
1020
1020
1020
1020
1020
1020
1020
1020
1020
880
880
880
869.01481374853847
862
850
850
1020
1020
1020
1020
1020
1020
1020
1020
1020
1020
1020
1020
1020
1020
1020
1020
1020
1020
880
880
880
869.37079458934079
862
850
850
1020
1020
1020
1020
1020
1020
1020
1020
1020
1020
1020
1020
1020
1020
1020
1020
1020
1020
880
880
880
870.05959598056802
862
850
850
1020
1020
1020
1020
1020
1020
1020
1020
1020
1020
1020
1020
1020
1020
1020
1020
1020
1020
880
880
880
870.71709274535374
850
850
850
1020
1020
1020
1020
1020
1020
1020
1020
1020
1020
1020
1020
1020
1020
1020
1020
1020
880
862
862
850
850
850
850
850
1000
1000
1000
1000
1000
1000
1000
1000
1000
1000
1000
1000
1000
1000
1000
1000
1000
1000
1000
1000
1000
1000
1000
1000
1000
1000
1000
1000
1000
1000
1000
1000
1000
1000
1000
1000
1000
1000
1000
1000
1000
1000
1000
1000
1000
1000
1000
1000
1000
1000
1000
1000
1000
1000
1000
1000
1000
1000
1000
1000
1000
1000
1000
1000
1000
1000
1000
1000
1000
1000
1000
1000
1000
1000
1000
1000
1000
1000
1000
1000
1000
1000
1000
1000
1000
1000
1000
1000
1000
1000
1000
1000
1000
1000
1000
1000
1000
1000
1000
1000
1000
1000
1000
1000
1000
1000
1000
1000
1000
1000
1000
1000
1000
1000
1000
1000
1000
1000
1000
1000
1000
1000
1000
1000
1000
1000
1000
1000
1000
1000
1000
1000
1000
1000
1000
1000
1000
1000
1000
1000
1000
1000
1000
1000
1000
1000
1000
1000
1000
1000
1000
1000
1000
1000
1000
1000
1000
1000
1000
1000
1000
1000
1000
1000
1000
1000
1000
1000
1000
1000
1000
1000
1000
1000
1000
1000
1000
1000
1000
1000
1000
1000
1000
1000
1000
1000
1000
1000
1000
1000
1000
1000
1000
1000
1000
1000
1000
1000
1000
1000
1000
1000
1000
1000
1000
1000
1000
1000
1000
1000
1000
1000
1000
1000
1000
1000
1000
1000
1000
1000
1000
1000
1000
1000
1000
1000
1000
1000
1000
1000
1000
1000
1000
1000
1000
1000
1000
1000
1000
1000
1000
1000
1000
1000
1000
1000
1000
1000
1000
1000
1000
1000
1000
1000
1000
1000
1000
1000
1000
1000
1000
1000
1000
1000
1000
1000
1000
1000
1000
1000
1000
1000
1000
1000
1000
1000
1000
1000
1000
1000
1000
1000
1000
1000
1000
1000
1000
1000
1000
1000
1000
1000
1000
1000
1000
1000
1000
1000
1000
1000
1000
1000
1000
1000
1000
1000
SCALARS p float 1
LOOKUP_TABLE default
25004.681136676067
25004.681136676067
25004.681136676067
25004.681136676067
25004.681136676067
25004.681136676067
25004.681136676067
25004.681136676067
25004.681136676067
25004.681136676067
25004.681136676067
25004.681136676067
25004.681136676067
25004.681136676067
25004.681136676067
25004.681136676067
25004.681136676067
0
0
0
0
0
0
0
0
25004.681136676067
25004.681136676067
25004.681136676067
25004.681136676067
25004.681136676067
25004.681136676067
25004.681136676067
25004.681136676067
25004.681136676067
25004.681136676067
25004.681136676067
25004.681136676067
25004.681136676067
25004.681136676067
25004.681136676067
25004.681136676067
25004.681136676067
25004.681136676067
0
0
0
0
0
0
0
25004.681136676067
25004.681136676067
25004.681136676067
25004.681136676067
25004.681136676067
25004.681136676067
25004.681136676067
25004.681136676067
25004.681136676067
25004.681136676067
25004.681136676067
25004.681136676067
25004.681136676067
25004.681136676067
25004.681136676067
25004.681136676067
25004.681136676067
25004.681136676067
0
0
0
0
0
0
0
25004.681136676067
25004.681136676067
25004.681136676067
25004.681136676067
25004.681136676067
25004.681136676067
25004.681136676067
25004.681136676067
25004.681136676067
25004.681136676067
25004.681136676067
25004.681136676067
25004.681136676067
25004.681136676067
25004.681136676067
25004.681136676067
25004.681136676067
25004.681136676067
0
0
0
0
0
0
0
25004.681136676067
25004.681136676067
25004.681136676067
25004.681136676067
25004.681136676067
25004.681136676067
25004.681136676067
25004.681136676067
25004.681136676067
25004.681136676067
25004.681136676067
25004.681136676067
25004.681136676067
25004.681136676067
25004.681136676067
25004.681136676067
25004.681136676067
25004.681136676067
0
0
0
0
0
0
0
25004.681136676067
25004.681136676067
25004.681136676067
25004.681136676067
25004.681136676067
25004.681136676067
25004.681136676067
25004.681136676067
25004.681136676067
25004.681136676067
25004.681136676067
25004.681136676067
25004.681136676067
25004.681136676067
25004.681136676067
25004.681136676067
25004.681136676067
25004.681136676067
0
0
0
0
0
0
0
25004.681136676067
25004.681136676067
25004.681136676067
25004.681136676067
25004.681136676067
25004.681136676067
25004.681136676067
25004.681136676067
25004.681136676067
25004.681136676067
25004.681136676067
25004.681136676067
25004.681136676067
25004.681136676067
25004.681136676067
25004.681136676067
25004.681136676067
25004.681136676067
0
0
0
0
0
0
0
25004.681136676067
25004.681136676067
25004.681136676067
25004.681136676067
25004.681136676067
25004.681136676067
25004.681136676067
25004.681136676067
25004.681136676067
25004.681136676067
25004.681136676067
25004.681136676067
25004.681136676067
25004.681136676067
25004.681136676067
25004.681136676067
25004.681136676067
25004.681136676067
0
0
0
0
0
0
0
25004.681136676067
25004.681136676067
25004.681136676067
25004.681136676067
25004.681136676067
25004.681136676067
25004.681136676067
25004.681136676067
25004.681136676067
25004.681136676067
25004.681136676067
25004.681136676067
25004.681136676067
25004.681136676067
25004.681136676067
25004.681136676067
25004.681136676067
25004.681136676067
0
0
0
0
0
0
0
25004.681136676067
25004.681136676067
25004.681136676067
25004.681136676067
25004.681136676067
25004.681136676067
25004.681136676067
25004.681136676067
25004.681136676067
25004.681136676067
25004.681136676067
25004.681136676067
25004.681136676067
25004.681136676067
25004.681136676067
25004.681136676067
25004.681136676067
25004.681136676067
0
0
0
0
0
0
0
25004.681136676067
25004.681136676067
25004.681136676067
25004.681136676067
25004.681136676067
25004.681136676067
25004.681136676067
25004.681136676067
25004.681136676067
25004.681136676067
25004.681136676067
25004.681136676067
25004.681136676067
25004.681136676067
25004.681136676067
25004.681136676067
25004.681136676067
25004.681136676067
0
0
0
0
0
0
0
25004.681136676067
25004.681136676067
25004.681136676067
25004.681136676067
25004.681136676067
25004.681136676067
25004.681136676067
25004.681136676067
25004.681136676067
25004.681136676067
25004.681136676067
25004.681136676067
25004.681136676067
25004.681136676067
25004.681136676067
25004.681136676067
25004.681136676067
25004.681136676067
0
0
0
0
0
0
0
25004.681136676067
25004.681136676067
25004.681136676067
25004.681136676067
25004.681136676067
25004.681136676067
25004.681136676067
25004.681136676067
25004.681136676067
25004.681136676067
25004.681136676067
25004.681136676067
25004.681136676067
25004.681136676067
25004.681136676067
25004.681136676067
25004.681136676067
25004.681136676067
0
0
0
0
0
0
0
25004.681136676067
25004.681136676067
25004.681136676067
25004.681136676067
25004.681136676067
25004.681136676067
25004.681136676067
25004.681136676067
25004.681136676067
25004.681136676067
25004.681136676067
25004.681136676067
25004.681136676067
25004.681136676067
25004.681136676067
25004.681136676067
25004.681136676067
25004.681136676067
0
0
0
0
0
0
0
25004.681136676067
25004.681136676067
25004.681136676067
25004.681136676067
25004.681136676067
25004.681136676067
25004.681136676067
25004.681136676067
25004.681136676067
25004.681136676067
25004.681136676067
25004.681136676067
25004.681136676067
25004.681136676067
25004.681136676067
25004.681136676067
25004.681136676067
0
0
0
0
0
0
0
0
0
0
0
0
0
0
16144.967651672338
24965.962127547096
24994.118401069038
0
0
0
24937.710322754603
25002.128660210645
25003.819271714077
0
0
0
24975.132083662229
25003.383244261942
25004.225902165686
0
0
0
24978.51241348419
25003.447110549587
25004.237521680541
0
0
0
24978.565155042823
25003.446873575915
25004.235289997254
0
0
0
24978.443243914699
25003.443965756534
25004.234598461091
0
0
0
24978.379882846468
25003.44242178246
25004.234326573358
0
0
0
24978.353399661031
25003.44176498257
25004.234216865912
0
0
0
24978.343909657509
25003.441533620997
25004.234180490268
0
0
0
24978.343614749039
25003.441525434944
25004.234178240702
0
0
0
24978.353068501452
25003.441758636036
25004.234215983422
0
0
0
24978.379598730306
25003.442420049549
25004.234328039314
0
0
0
24978.443186992197
25003.443967157142
25004.234602429751
0
0
0
24978.564881381775
25003.446866399838
25004.235292129048
0
0
0
24978.511754974468
25003.447096946878
25004.23752277028
0
0
0
24975.131196122693
25003.383241255873
25004.22591012952
0
0
0
24937.704809028732
25002.128580304601
25003.819258005096
0
0
0
16142.947843559476
24965.95843020641
24994.117454837793
0
0
0
0
0
0
0
0
0
0
0
0
0
0
0
0
0
0
0
0
0
0
0
0
0
0
0
0
0
0
0
0
0
0
0
0
0
0
0
0
0
0
0
0
0
0
0
0
0
0
0
0
0
0
0
0
0
0
0
0
0
0
0
0
0
0
0
0
0
0
0
0
0
0
0
0
0
0
0
0
0
0
0
0
0
0
0
0
0
0
0
0
0
0
0
0
0
0
0
0
0
0
0
0
0
0
0
0
0
0
0
0
0
0
0
0
0
0
0
0
0
0
0
0
0
0
0
0
0
0
0
0
0
0
0
0
0
0
0
0
0
0
0
0
0
0
0
0
0
0
0
0
0
0
0
0
0
0
0
0
0
0
0
0
0
0
0
0
0
0
0
0
0
0
0
0
0
0
0
0
0
0
0
0
0
0
0
0
0
0
0
0
0
0
0
SCALARS m float 1
LOOKUP_TABLE default
0.39942306611962441
0.39942306611962441
0.39942306611962441
0.39942306611962441
0.39942306611962441
0.39942306611962441
0.39942306611962441
0.39942306611962441
0.39942306611962441
0.39942306611962441
0.39942306611962441
0.39942306611962441
0.39942306611962441
0.39942306611962441
0.39942306611962441
0.39942306611962441
0.39942306611962441
0.39942306611962441
0.39942306611962441
0.39942306611962441
0.39942306611962441
0.39942306611962441
0.39942306611962441
0.39942306611962441
0.39942306611962441
0.39942306611962441
0.39942306611962441
0.39942306611962441
0.39942306611962441
0.39942306611962441
0.39942306611962441
0.39942306611962441
0.39942306611962441
0.39942306611962441
0.39942306611962441
0.39942306611962441
0.39942306611962441
0.39942306611962441
0.39942306611962441
0.39942306611962441
0.39942306611962441
0.39942306611962441
0.39942306611962441
0.39942306611962441
0.39942306611962441
0.39942306611962441
0.39942306611962441
0.39942306611962441
0.39942306611962441
0.39942306611962441
0.39942306611962441
0.39942306611962441
0.39942306611962441
0.39942306611962441
0.39942306611962441
0.39942306611962441
0.39942306611962441
0.39942306611962441
0.39942306611962441
0.39942306611962441
0.39942306611962441
0.39942306611962441
0.39942306611962441
0.39942306611962441
0.39942306611962441
0.39942306611962441
0.39942306611962441
0.39942306611962441
0.39942306611962441
0.39942306611962441
0.39942306611962441
0.39942306611962441
0.39942306611962441
0.39942306611962441
0.39942306611962441
0.39942306611962441
0.39942306611962441
0.39942306611962441
0.39942306611962441
0.39942306611962441
0.39942306611962441
0.39942306611962441
0.39942306611962441
0.39942306611962441
0.39942306611962441
0.39942306611962441
0.39942306611962441
0.39942306611962441
0.39942306611962441
0.39942306611962441
0.39942306611962441
0.39942306611962441
0.39942306611962441
0.39942306611962441
0.39942306611962441
0.39942306611962441
0.39942306611962441
0.39942306611962441
0.39942306611962441
0.39942306611962441
0.39942306611962441
0.39942306611962441
0.39942306611962441
0.39942306611962441
0.39942306611962441
0.39942306611962441
0.39942306611962441
0.39942306611962441
0.39942306611962441
0.39942306611962441
0.39942306611962441
0.39942306611962441
0.39942306611962441
0.39942306611962441
0.39942306611962441
0.39942306611962441
0.39942306611962441
0.39942306611962441
0.39942306611962441
0.39942306611962441
0.39942306611962441
0.39942306611962441
0.39942306611962441
0.39942306611962441
0.39942306611962441
0.39942306611962441
0.39942306611962441
0.39942306611962441
0.39942306611962441
0.39942306611962441
0.39942306611962441
0.39942306611962441
0.39942306611962441
0.39942306611962441
0.39942306611962441
0.39942306611962441
0.39942306611962441
0.39942306611962441
0.39942306611962441
0.39942306611962441
0.39942306611962441
0.39942306611962441
0.39942306611962441
0.39942306611962441
0.39942306611962441
0.39942306611962441
0.39942306611962441
0.39942306611962441
0.39942306611962441
0.39942306611962441
0.39942306611962441
0.39942306611962441
0.39942306611962441
0.39942306611962441
0.39942306611962441
0.39942306611962441
0.39942306611962441
0.39942306611962441
0.39942306611962441
0.39942306611962441
0.39942306611962441
0.39942306611962441
0.39942306611962441
0.39942306611962441
0.39942306611962441
0.39942306611962441
0.39942306611962441
0.39942306611962441
0.39942306611962441
0.39942306611962441
0.39942306611962441
0.39942306611962441
0.39942306611962441
0.39942306611962441
0.39942306611962441
0.39942306611962441
0.39942306611962441
0.39942306611962441
0.39942306611962441
0.39942306611962441
0.39942306611962441
0.39942306611962441
0.39942306611962441
0.39942306611962441
0.39942306611962441
0.39942306611962441
0.39942306611962441
0.39942306611962441
0.39942306611962441
0.39942306611962441
0.39942306611962441
0.39942306611962441
0.39942306611962441
0.39942306611962441
0.39942306611962441
0.39942306611962441
0.39942306611962441
0.39942306611962441
0.39942306611962441
0.39942306611962441
0.39942306611962441
0.39942306611962441
0.39942306611962441
0.39942306611962441
0.39942306611962441
0.39942306611962441
0.39942306611962441
0.39942306611962441
0.39942306611962441
0.39942306611962441
0.39942306611962441
0.39942306611962441
0.39942306611962441
0.39942306611962441
0.39942306611962441
0.39942306611962441
0.39942306611962441
0.39942306611962441
0.39942306611962441
0.39942306611962441
0.39942306611962441
0.39942306611962441
0.39942306611962441
0.39942306611962441
0.39942306611962441
0.39942306611962441
0.39942306611962441
0.39942306611962441
0.39942306611962441
0.39942306611962441
0.39942306611962441
0.39942306611962441
0.39942306611962441
0.39942306611962441
0.39942306611962441
0.39942306611962441
0.39942306611962441
0.39942306611962441
0.39942306611962441
0.39942306611962441
0.39942306611962441
0.39942306611962441
0.39942306611962441
0.39942306611962441
0.39942306611962441
0.39942306611962441
0.39942306611962441
0.39942306611962441
0.39942306611962441
0.39942306611962441
0.39942306611962441
0.39942306611962441
0.39942306611962441
0.39942306611962441
0.39942306611962441
0.39942306611962441
0.39942306611962441
0.39942306611962441
0.39942306611962441
0.39942306611962441
0.39942306611962441
0.39942306611962441
0.39942306611962441
0.39942306611962441
0.39942306611962441
0.39942306611962441
0.39942306611962441
0.39942306611962441
0.39942306611962441
0.39942306611962441
0.39942306611962441
0.39942306611962441
0.39942306611962441
0.39942306611962441
0.39942306611962441
0.39942306611962441
0.39942306611962441
0.39942306611962441
0.39942306611962441
0.39942306611962441
0.39942306611962441
0.39942306611962441
0.39942306611962441
0.39942306611962441
0.39942306611962441
0.39942306611962441
0.39942306611962441
0.39942306611962441
0.39942306611962441
0.39942306611962441
0.39942306611962441
0.39942306611962441
0.39942306611962441
0.39942306611962441
0.39942306611962441
0.39942306611962441
0.39942306611962441
0.39942306611962441
0.39942306611962441
0.39942306611962441
0.39942306611962441
0.39942306611962441
0.39942306611962441
0.39942306611962441
0.39942306611962441
0.39942306611962441
0.39942306611962441
0.39942306611962441
0.39942306611962441
0.39942306611962441
0.39942306611962441
0.39942306611962441
0.39942306611962441
0.39942306611962441
0.39942306611962441
0.39942306611962441
0.39942306611962441
0.39942306611962441
0.39942306611962441
0.39942306611962441
0.39942306611962441
0.39942306611962441
0.39942306611962441
0.39942306611962441
0.39942306611962441
0.39942306611962441
0.39942306611962441
0.39942306611962441
0.39942306611962441
0.39942306611962441
0.39942306611962441
0.39942306611962441
0.39942306611962441
0.39942306611962441
0.39942306611962441
0.39942306611962441
0.39942306611962441
0.39942306611962441
0.39942306611962441
0.39942306611962441
0.39942306611962441
0.39942306611962441
0.39942306611962441
0.39942306611962441
0.39942306611962441
0.39942306611962441
0.39942306611962441
0.39942306611962441
0.39942306611962441
0.39942306611962441
0.39942306611962441
0.39942306611962441
0.39942306611962441
0.39942306611962441
0.39942306611962441
0.39942306611962441
0.39942306611962441
0.39942306611962441
0.39942306611962441
0.39942306611962441
0.39942306611962441
0.39942306611962441
0.39942306611962441
0.39942306611962441
0.39942306611962441
0.39942306611962441
0.39942306611962441
0.39942306611962441
0.39942306611962441
0.39942306611962441
0.39942306611962441
0.39942306611962441
0.39942306611962441
0.39942306611962441
0.39942306611962441
0.39942306611962441
0.39942306611962441
0.39942306611962441
0.39942306611962441
0.39942306611962441
0.39942306611962441
0.39942306611962441
0.39942306611962441
0.39942306611962441
0.39942306611962441
0.39942306611962441
0.39942306611962441
0.39942306611962441
0.39942306611962441
0.39942306611962441
0.39942306611962441
0.39942306611962441
0.39942306611962441
0.39942306611962441
0.39942306611962441
0.39942306611962441
0.39942306611962441
0.39942306611962441
0.39942306611962441
0.39942306611962441
0.39942306611962441
0.39942306611962441
0.39942306611962441
0.39942306611962441
0.39942306611962441
0.39942306611962441
0.39942306611962441
0.39942306611962441
0.39942306611962441
0.39942306611962441
0.39942306611962441
0.39942306611962441
0.39942306611962441
0.39942306611962441
0.39942306611962441
0.39942306611962441
0.39942306611962441
0.39942306611962441
0.39942306611962441
0.39942306611962441
0.39942306611962441
0.39942306611962441
0.39942306611962441
0.39942306611962441
0.39942306611962441
0.39942306611962441
0.39942306611962441
0.39942306611962441
0.39942306611962441
0.39942306611962441
0.39942306611962441
0.39942306611962441
0.39942306611962441
0.39942306611962441
0.39942306611962441
0.39942306611962441
0.39942306611962441
0.39942306611962441
0.39942306611962441
0.39942306611962441
0.39942306611962441
0.39942306611962441
0.39942306611962441
0.39942306611962441
0.39942306611962441
0.39942306611962441
0.39942306611962441
0.39942306611962441
0.39942306611962441
0.39942306611962441
0.39942306611962441
0.39942306611962441
0.39942306611962441
0.39942306611962441
0.39942306611962441
0.39942306611962441
0.39942306611962441
0.39942306611962441
0.39942306611962441
0.39942306611962441
0.39942306611962441
0.39942306611962441
0.39942306611962441
0.39942306611962441
0.39942306611962441
0.39942306611962441
0.39942306611962441
0.39942306611962441
0.39942306611962441
0.39942306611962441
0.39942306611962441
0.39942306611962441
0.39942306611962441
0.39942306611962441
0.39942306611962441
0.39942306611962441
0.39942306611962441
0.39942306611962441
0.39942306611962441
0.39942306611962441
0.39942306611962441
0.39942306611962441
0.39942306611962441
0.39942306611962441
0.39942306611962441
0.39942306611962441
0.39942306611962441
0.39942306611962441
0.39942306611962441
0.39942306611962441
0.39942306611962441
0.39942306611962441
0.39942306611962441
0.39942306611962441
0.39942306611962441
0.39942306611962441
0.39942306611962441
0.39942306611962441
0.39942306611962441
0.39942306611962441
0.39942306611962441
0.39942306611962441
0.39942306611962441
0.39942306611962441
0.39942306611962441
0.39942306611962441
0.39942306611962441
0.39942306611962441
0.39942306611962441
0.39942306611962441
0.39942306611962441
0.39942306611962441
0.39942306611962441
0.39942306611962441
0.39942306611962441
0.39942306611962441
0.39942306611962441
0.39942306611962441
0.39942306611962441
0.39942306611962441
0.39942306611962441
0.39942306611962441
0.39942306611962441
0.39942306611962441
0.39942306611962441
0.39942306611962441
0.39942306611962441
0.39942306611962441
0.39942306611962441
0.39942306611962441
0.39942306611962441
0.39942306611962441
0.39942306611962441
0.39942306611962441
0.39942306611962441
0.39942306611962441
0.39942306611962441
0.39942306611962441
0.39942306611962441
0.39942306611962441
0.39942306611962441
0.39942306611962441
0.39942306611962441
0.39942306611962441
0.39942306611962441
0.39942306611962441
0.39942306611962441
0.39942306611962441
0.39942306611962441
0.39942306611962441
0.39942306611962441
0.39942306611962441
0.39942306611962441
0.39942306611962441
0.39942306611962441
0.39942306611962441
0.39942306611962441
0.39942306611962441
0.39942306611962441
0.39942306611962441
0.39942306611962441
0.39942306611962441
0.39942306611962441
0.39942306611962441
0.39942306611962441
0.39942306611962441
0.39942306611962441
0.39942306611962441
0.39942306611962441
0.39942306611962441
0.39942306611962441
0.39942306611962441
0.39942306611962441
0.39942306611962441
0.39942306611962441
0.39942306611962441
0.39942306611962441
0.39942306611962441
0.39942306611962441
0.39942306611962441
0.39942306611962441
0.39942306611962441
0.39942306611962441
0.39942306611962441
0.39942306611962441
0.39942306611962441
0.39942306611962441
0.39942306611962441
0.39942306611962441
0.39942306611962441
0.39942306611962441
0.39942306611962441
0.39942306611962441
0.39942306611962441
0.39942306611962441
0.39942306611962441
0.39942306611962441
0.39942306611962441
0.39942306611962441
0.39942306611962441
0.39942306611962441
0.39942306611962441
0.39942306611962441
0.39942306611962441
0.39942306611962441
0.39942306611962441
0.39942306611962441
0.39942306611962441
0.39942306611962441
0.39942306611962441
0.39942306611962441
0.39942306611962441
0.39942306611962441
0.39942306611962441
0.39942306611962441
0.39942306611962441
0.39942306611962441
0.39942306611962441
0.39942306611962441
0.39942306611962441
0.39942306611962441
0.39942306611962441
0.39942306611962441
0.39942306611962441
0.39942306611962441
0.39942306611962441
0.39942306611962441
0.39942306611962441
0.39942306611962441
0.39942306611962441
0.39942306611962441
0.39942306611962441
0.39942306611962441
0.39942306611962441
0.39942306611962441
0.39942306611962441
0.39942306611962441
0.39942306611962441
0.39942306611962441
0.39942306611962441
0.39942306611962441
0.39942306611962441
0.39942306611962441
0.39942306611962441
0.39942306611962441
0.39942306611962441
0.39942306611962441
0.39942306611962441
0.39942306611962441
0.39942306611962441
0.39942306611962441
0.39942306611962441
0.39942306611962441
0.39942306611962441
0.39942306611962441
0.39942306611962441
0.39942306611962441
0.39942306611962441
0.39942306611962441
0.39942306611962441
0.39942306611962441
0.39942306611962441
0.39942306611962441
0.39942306611962441
0.39942306611962441
0.39942306611962441
0.39942306611962441
0.39942306611962441
0.39942306611962441
0.39942306611962441
0.39942306611962441
0.39942306611962441
0.39942306611962441
0.39942306611962441
0.39942306611962441
0.39942306611962441
0.39942306611962441
0.39942306611962441
0.39942306611962441
0.39942306611962441
0.39942306611962441
VECTORS v float
-6.5310922068400823e-05 -0.08863619060454811 0
-7.318455539749298e-05 -0.10048538894146201 0
-7.9472810062372704e-05 -0.11049069918602236 0
-8.577898211169769e-05 -0.12137073203931047 0
-9.1991944633876743e-05 -0.13329881801328511 0
-9.8089545050248088e-05 -0.14652650670689624 0
-0.00010388236583446247 -0.16153143158740796 0
-0.00010957993938172218 -0.17899569289628633 0
-0.00011527539849316988 -0.19980755840082867 0
-0.00012183403020066078 -0.2252188646089745 0
-0.00012939441230339375 -0.25705287749461919 0
-0.00013818664148915882 -0.29798853936268688 0
-0.00014922697081878506 -0.35225981035626586 0
-0.00016153648409236018 -0.42880055037336762 0
-0.00018112909634689645 -0.5485819006178021 0
-0.00021563382101209532 -0.78364707007185308 0
-0.00027980050707209435 -1.3816591862855114 0
-0.00024196988182797365 -2.1341429062723085 0
-8.7145090379881578e-05 -2.3486959839989434 0
-1.4537785386696433e-05 -2.3678293331160609 0
-1.7300134117663226e-06 -2.3621994701551392 0
-1.7662599850028217e-07 -2.3525543621612544 0
-1.5115819225759565e-08 -2.3414180000799538 0
-9.339225522864728e-10 -2.3302342954651132 0
-6.6116304830807818e-18 -2.1900015534996684 0
-3.776508035557792e-05 -0.092805704429086644 0
-4.365507971651603e-05 -0.10526483096336624 0
-4.7648520052354731e-05 -0.11592663814021237 0
-5.1744411589242626e-05 -0.12729920873443407 0
-5.5487282722474385e-05 -0.13967260423429423 0
-5.9133647583576117e-05 -0.15338027384237354 0
-6.2834731138013537e-05 -0.16891909119747694 0
-6.6123194564468449e-05 -0.18700044092983478 0
-7.1121923528536494e-05 -0.20855199119400478 0
-7.6524692243822609e-05 -0.23490247286361104 0
-8.1956266423927515e-05 -0.26790259558293783 0
-8.8388005350326689e-05 -0.31025021871519792 0
-9.5845819235053725e-05 -0.36607016398543507 0
-0.00010531787778387463 -0.4440572541870294 0
-0.0001175749499723926 -0.5632731364937531 0
-0.00013661826000775 -0.77957919826927069 0
-0.00017629494457131455 -1.2977494853010125 0
-0.00019001755883930868 -2.0701857338853125 0
-7.7980785634538418e-05 -2.3400813708130692 0
-1.4677686302522125e-05 -2.3666031367942253 0
-1.7415784162206763e-06 -2.3617888959807587 0
-1.8528527166770761e-07 -2.3522635123573927 0
-1.6472873304439977e-08 -2.3413106298734196 0
-1.0621580720473895e-09 -2.3304806321873035 0
-1.3036194563881252e-17 -2.1910437353839289 0
-1.6876748972651405e-05 -0.09341635896057579 0
-1.9372005856198413e-05 -0.10593005628439242 0
-2.1350360694961889e-05 -0.11665640974863536 0
-2.2981788283868779e-05 -0.12812547957165457 0
-2.518458254785534e-05 -0.14062957760228262 0
-2.1519631047033278e-05 -0.15450074042195758 0
-2.2900657698922272e-05 -0.17025556384905555 0
-2.5380683052479637e-05 -0.18861453711579801 0
-2.9609781669408844e-05 -0.21049906247533368 0
-3.2510617987279004e-05 -0.23725158277352662 0
-3.7038012325813547e-05 -0.27072716379622414 0
-4.0617597017449781e-05 -0.31359913935754719 0
-4.5919603784245127e-05 -0.36990249523908147 0
-5.2890723535602034e-05 -0.44814311551951336 0
-6.0556729221247569e-05 -0.56676001333371884 0
-7.0846833333124666e-05 -0.77861120897901714 0
-8.1978201455920502e-05 -1.2763427199727055 0
-7.0102272442817886e-05 -2.0453103708843061 0
-3.2050473034441695e-05 -2.335868711922358 0
-8.3182701942802567e-06 -2.3658114293195851 0
-1.1286156250740611e-06 -2.3613501048754668 0
-1.3454947357835525e-07 -2.3518558015705859 0
-1.2962735079865886e-08 -2.3409365851703843 0
-8.8409729148912652e-10 -2.3302172533146068 0
-2.3476295961566926e-17 -2.1926586955050058 0
-3.9874730018310674e-06 -0.093431043426786542 0
-5.0682073427573683e-06 -0.10596859429706319 0
-5.6558906552850994e-06 -0.11671685916682674 0
-5.9770993573974736e-06 -0.1282113809835343 0
-7.6393152363835997e-06 -0.14074737463060416 0
-8.3945827304896468e-06 -0.15465755426623312 0
-8.1534691816425286e-06 -0.1704597759819535 0
-9.4650723978738203e-06 -0.18888383728158428 0
-1.1315474030815837e-05 -0.2108466089064733 0
-1.2593796910063031e-05 -0.2376947971968473 0
-1.401730676297993e-05 -0.27128497816713232 0
-1.6170726567776405e-05 -0.31428582734077298 0
-1.8608136896443707e-05 -0.37070907411772108 0
-2.2363303003584343e-05 -0.44903145478499012 0
-2.6808189830082116e-05 -0.5675195173310813 0
-3.0591408927497196e-05 -0.7782456219855598 0
-3.3966072778339473e-05 -1.2702987746178529 0
-2.3967699167221541e-05 -2.0366499307772523 0
-1.0991137629810963e-05 -2.3338802681882149 0
-3.1265091037085356e-06 -2.3653061510858495 0
-5.4138918558806307e-07 -2.3609653289707113 0
-7.5484611238983857e-08 -2.3514465471056951 0
-8.1264909708242815e-09 -2.340497426182186 0
-5.9916289810579509e-10 -2.3297664313192707 0
-3.0992970647915448e-17 -2.1942952475048978 0
1.2366677332232673e-08 -0.093374706620312428 0
2.4137458055825129e-08 -0.10592065323902192 0
-2.23563163515151e-08 -0.11667646690327993 0
4.5426714194655155e-07 -0.1281784005558837 0
3.1178652476597312e-07 -0.14072249627273298 0
-1.429122265516246e-06 -0.15464352881089682 0
-1.8388147951787922e-06 -0.17046079524898972 0
-3.0350110604230934e-06 -0.18890215767676186 0
-2.7391800730563506e-06 -0.21088699099777411 0
-3.4705263110345453e-06 -0.23775963864435545 0
-4.6342663835153937e-06 -0.2713782968024761 0
-5.695168242874309e-06 -0.31440719900223968 0
-6.2438647827105497e-06 -0.37085551715498732 0
-8.9186276695002254e-06 -0.44918439981237945 0
-9.920877899692788e-06 -0.56760386534311502 0
-1.1017166872715546e-05 -0.77791953088366961 0
-1.0898044000418633e-05 -1.2680565850035435 0
-7.2186464990823672e-06 -2.0336147586238162 0
-3.2655207178765957e-06 -2.333049084758076 0
-1.0295048752059021e-06 -2.3649946237139714 0
-2.1604003102353582e-07 -2.3606720221721185 0
-3.4992880663859395e-08 -2.3511057261460939 0
-4.2447980633029497e-09 -2.3401079046098081 0
-3.426131438471053e-10 -2.3293309783916629 0
-2.9543573505474066e-17 -2.1955840398152082 0
1.3078141802922566e-06 -0.093337908616281162 0
1.2521269486897097e-06 -0.10588489896306362 0
1.8252421675321701e-06 -0.11664236036774292 0
1.3707746502176716e-06 -0.12814728153142502 0
5.5974424484254484e-07 -0.14069556931336208 0
7.4590250247250992e-07 -0.15461822857055629 0
7.3313627073757668e-07 -0.17043920098791435 0
2.5935218132480413e-07 -0.1888849398884761 0
-8.8993623322709989e-08 -0.21087492730002572 0
1.3178607133850303e-06 -0.23775539864112563 0
2.1223820469235271e-07 -0.27138101232186562 0
2.0831467225615446e-07 -0.31441607826553658 0
-4.6020941945030957e-08 -0.37086855891997467 0
-3.6676674752844596e-07 -0.4491914401930383 0
-7.4547169781147856e-07 -0.5675748807459039 0
-1.5938941120003345e-06 -0.77772786962182727 0
-2.1245650634669315e-06 -1.2671830311168781 0
-1.8924379475702188e-06 -2.0325173846956477 0
-9.2687013522112944e-07 -2.3327049699670832 0
-2.8874051775332829e-07 -2.3648112167349131 0
-7.4494880206579287e-08 -2.3604740655160832 0
-1.3842527807131417e-08 -2.3508657057688023 0
-1.8820145446093115e-09 -2.3398247397990652 0
-1.6613910053165362e-10 -2.3290075129538046 0
-2.0635346400071611e-17 -2.196418966091942 0
3.863986466188284e-06 -0.093317754421646901 0
4.2291892525883335e-06 -0.10586514632753223 0
4.6603797887151417e-06 -0.11662371041343489 0
5.9070792466304933e-06 -0.12812857351175608 0
6.6718357137696367e-06 -0.14067645467604536 0
6.9500901463289133e-06 -0.15460021096161569 0
7.3107377220416812e-06 -0.17042360899901104 0
7.5924132958643082e-06 -0.18887081709588063 0
7.2793129173877743e-06 -0.21086338055653459 0
6.8332409805110438e-06 -0.23774565334110151 0
6.5789519278414246e-06 -0.27137496172868369 0
6.1599979794782228e-06 -0.31441274321142992 0
5.9772558749561742e-06 -0.37086123357671408 0
6.7362943426890386e-06 -0.44918203103643578 0
6.1367268584383987e-06 -0.56754966637788618 0
4.6440392106406403e-06 -0.77763662531168976 0
2.7486688445215712e-06 -1.2668468051155364 0
1.2625774964761101e-06 -2.0321194481318989 0
5.7043738547109723e-07 -2.3325653413877787 0
-3.7465714450014875e-08 -2.3647153663831304 0
-1.7017276861193616e-08 -2.3603620610234368 0
-4.2333224416349334e-09 -2.3507274618672351 0
-6.4903832951230658e-10 -2.3396599457965035 0
-6.1569504431875494e-11 -2.3288191490984498 0
-9.3785870364430447e-18 -2.1968577400355871 0
2.3141359476479574e-06 -0.093312322248318438 0
2.7440041199236379e-06 -0.10585942465122154 0
4.90300990014683e-06 -0.11661582528452374 0
5.4406836111989801e-06 -0.12812050054765337 0
6.4969752075207975e-06 -0.14066897166484052 0
7.286283125905012e-06 -0.15459309735540283 0
8.3094984190298335e-06 -0.17041578261810117 0
8.3950003168318253e-06 -0.18886472457696299 0
7.841409222498632e-06 -0.21085922139653443 0
7.7911084484295465e-06 -0.2377423304003467 0
7.4408190253950052e-06 -0.27137147565721731 0
7.6774072375544401e-06 -0.31441110318363169 0
6.9963369395798996e-06 -0.37085853406148378 0
7.6375616396176952e-06 -0.44917839535317361 0
7.9472983957020585e-06 -0.56754045415272047 0
6.216374085399112e-06 -0.7776108881859054 0
3.6610682682743909e-06 -1.2667524735504507 0
2.724212108029298e-06 -2.032016654017303 0
9.7706029888756783e-07 -2.3325285871568049 0
2.7332623203482736e-07 -2.3646858738762782 0
8.0880672556421925e-09 -2.3603260838334386 0
4.2778757867627988e-10 -2.350682787429899 0
4.1215116770268072e-11 -2.3396066118694527 0
4.4781987812185679e-12 -2.3287584017161027 0
1.48194819455511e-18 -2.1969909715796208 0
2.1957578319980515e-06 -0.093318651604506017 0
2.2692294384076063e-06 -0.1058673661335495 0
2.6667163984589498e-06 -0.1166252188697226 0
2.7712420513694974e-06 -0.1281284576419788 0
2.8177969905656239e-06 -0.14067632371535441 0
3.1809644477379258e-06 -0.1545997015412211 0
3.9876950569698983e-06 -0.17042136559536747 0
2.6774991103198182e-06 -0.18886801112365301 0
3.6520617413653941e-06 -0.21086084387244344 0
3.7675369913644452e-06 -0.23774379439190912 0
5.0182742729619776e-06 -0.27137284659209476 0
5.6184048452697283e-06 -0.31441223085052822 0
6.1499029248464453e-06 -0.37086261650733182 0
7.006297780291991e-06 -0.44917831343472042 0
7.0975655475468437e-06 -0.56754952461527364 0
7.3926274008618294e-06 -0.77763760011519878 0
6.8375507505971496e-06 -1.2668342863395097 0
3.9290957611336774e-06 -2.0321164119398962 0
2.799945153203382e-07 -2.3325666922244532 0
9.7670877669555039e-08 -2.3647155991080573 0
2.6471868211094164e-08 -2.3603620971216785 0
5.0100992502409371e-09 -2.3507274653686703 0
7.3556851350148692e-10 -2.3396599461208356 0
7.0600692399551661e-11 -2.3288191491224222 0
1.2170666465947108e-17 -2.1968577400355871 0
4.0388661417268799e-06 -0.093338992974621601 0
5.0282690125960957e-06 -0.10588582713657911 0
5.3800620291279813e-06 -0.11664402350637938 0
5.7532277815072331e-06 -0.12814807903030548 0
6.4515399392802977e-06 -0.1406957332635759 0
6.7757305789057738e-06 -0.15461839541278971 0
7.8333290850504827e-06 -0.17043884282392313 0
1.0071651077991721e-05 -0.1888839402072636 0
9.5260975300476213e-06 -0.21087460310438583 0
9.591747169769833e-06 -0.23775532521608925 0
9.6841190656259423e-06 -0.27138180405834089 0
1.0905634396961414e-05 -0.31441861406088356 0
1.0773553293109337e-05 -0.37086818519845099 0
1.1742625545344724e-05 -0.44919249409252787 0
1.3120509360898766e-05 -0.56757199335493325 0
1.2960779312179116e-05 -0.77772322105020741 0
1.0416248445996659e-05 -1.267170174990488 0
2.9385727218110647e-06 -2.0325108332221569 0
9.0138917081759861e-07 -2.3327054524551412 0
3.0887436684014021e-07 -2.3648114788029 0
7.981268438053599e-08 -2.3604741116340655 0
1.4661198564459937e-08 -2.3508657112694138 0
1.9782640366680403e-09 -2.3398247403800529 0
1.7487618597107197e-10 -2.3290075129992061 0
2.2908797888349836e-17 -2.1964189660919424 0
5.3171570246229263e-06 -0.093376063078634775 0
5.9002677421229301e-06 -0.10592151463766319 0
6.6362073010033926e-06 -0.11667799028023146 0
7.5345373438535281e-06 -0.12818043851759467 0
8.3579986859486901e-06 -0.14072532409241242 0
9.3619457604864689e-06 -0.15464552639321974 0
1.0079794494404812e-05 -0.17046293192309317 0
1.0828656732349385e-05 -0.18890302959695865 0
1.1940040059446328e-05 -0.21088807819392441 0
1.3629857643607608e-05 -0.23776167489215244 0
1.4831637850761751e-05 -0.27138201953924868 0
1.5855569937989757e-05 -0.3144111947012696 0
1.8216941534725856e-05 -0.37085534532005904 0
1.9751021156716886e-05 -0.44918038916368003 0
2.1522753594056059e-05 -0.56759803905786121 0
2.2805908737550523e-05 -0.77791026209344416 0
2.1359278020545499e-05 -1.2680395199955514 0
1.1423292935710349e-05 -2.0336060127792237 0
3.967131295955494e-06 -2.3330489717252401 0
1.1232718929042752e-06 -2.3649948539902077 0
2.2578789663601841e-07 -2.3606720703207773 0
3.60467759568577e-08 -2.3511057329857898 0
4.3399005338499355e-09 -2.3401079053946545 0
3.4945612548773889e-10 -2.3293309784548306 0
3.1027321005545426e-17 -2.1955840398152087 0
7.6164668921291188e-06 -0.093428843397285313 0
1.0380201814952661e-05 -0.10596584625341149 0
1.1694800179214469e-05 -0.11671489250911404 0
1.286244422958252e-05 -0.12821001759887141 0
1.389722238175839e-05 -0.14074728566619893 0
1.5057869096153895e-05 -0.15465689010108113 0
1.5925032346025378e-05 -0.17046035094002801 0
1.6663694383449946e-05 -0.18888434780968227 0
1.8126147013762135e-05 -0.21084927449815624 0
2.0604070049435183e-05 -0.23769823809572335 0
2.2140593541692315e-05 -0.27128861317107933 0
2.4521221105496889e-05 -0.31428907262287714 0
2.8278021432009754e-05 -0.3707105283332402 0
3.1687175909358169e-05 -0.4490317346490883 0
3.5857765301536274e-05 -0.56751781476169039 0
4.071604398982309e-05 -0.77823518933358904 0
4.1487301758186694e-05 -1.2702798238350068 0
2.9647149980055281e-05 -2.0366417219285022 0
1.2161137799109686e-05 -2.3338810349159345 0
3.3078686648342037e-06 -2.3653066073668798 0
5.5590496669800889e-07 -2.3609653988419841 0
7.6502811887607688e-08 -2.3514465561029878 0
8.1830292333735272e-09 -2.3404974271586507 0
6.0154520723551444e-10 -2.3297664313956794 0
3.1675428778164314e-17 -2.1942952475048982 0
1.7241690411019841e-05 -0.0934150952746923 0
2.0040086690226196e-05 -0.10592931386026277 0
2.1926622209004602e-05 -0.11665555453743792 0
2.4328544604323164e-05 -0.12812511088977327 0
2.6311793831083715e-05 -0.14062913879416283 0
2.9103107091301737e-05 -0.1545014071716565 0
3.1085973468661046e-05 -0.17025529463282985 0
3.4197872112711439e-05 -0.18861514464321291 0
3.637185501682244e-05 -0.21050086892878431 0
3.944427673343607e-05 -0.23725385792369011 0
4.275542503434771e-05 -0.27072990112362444 0
4.7393129407621139e-05 -0.31360183789767088 0
5.2223446707376619e-05 -0.36990246216900313 0
5.856934790973527e-05 -0.44814677670459224 0
6.6651368541505482e-05 -0.56675766120253379 0
7.7503393693944679e-05 -0.77860096376768695 0
9.0340724667483145e-05 -1.2763234399975321 0
7.6467932763590432e-05 -2.0453055469678989 0
3.3901997770684067e-05 -2.3358722650698542 0
8.5114411339971327e-06 -2.3658123946708791 0
1.1375499502834179e-06 -2.3613502155494022 0
1.3473233340521311e-07 -2.3518558132952618 0
1.2931170273659073e-08 -2.3409365862987972 0
8.7992764442517434e-10 -2.3302172533976062 0
2.3643936796856733e-17 -2.1926586955050062 0
3.8451243692482265e-05 -0.092805530525360128 0
4.396181420191148e-05 -0.10526437540073043 0
4.7952405300249882e-05 -0.11592595900022416 0
5.2036793584545342e-05 -0.1272979910769102 0
5.5899445253785103e-05 -0.13967198225896094 0
5.9846078425855446e-05 -0.15337980722144423 0
6.4337605515814021e-05 -0.16891941215732306 0
6.7582608632995203e-05 -0.18700229984368258 0
7.1686777395151769e-05 -0.20855474265155838 0
7.6767082469724008e-05 -0.23490483539429752 0
8.2971479470844053e-05 -0.26790515235374091 0
8.9312177114487249e-05 -0.31025262624239258 0
9.7492958832470962e-05 -0.36607107594871297 0
0.00010731490765294992 -0.44405872729741119 0
0.00012066192220773322 -0.56327242923472909 0
0.00014217114197504274 -0.77956736378227831 0
0.00018410197660441037 -1.297731371301295 0
0.0001945958316784133 -2.070193355362862 0
7.8191500624794397e-05 -2.3400890999285173 0
1.4579712537967674e-05 -2.3666045383520209 0
1.7308492623664235e-06 -2.3617890331927787 0
1.8400158644465647e-07 -2.3522635252732695 0
1.6337984445298437e-08 -2.3413106310151264 0
1.0520370011302291e-09 -2.3304806322669576 0
1.3019574641164205e-17 -2.1910437353839294 0
6.4472580259764177e-05 -0.088638198547902988 0
7.1459361483349799e-05 -0.10048639715605744 0
7.7060275963586968e-05 -0.11049129487100165 0
8.2579901716458727e-05 -0.12137113377103452 0
8.8398565135912395e-05 -0.13329932921499263 0
9.3908679578711104e-05 -0.14652705527087356 0
9.9241198192366158e-05 -0.16153145335100988 0
0.00010439833482509128 -0.17899598105543815 0
0.00011026710648838229 -0.19980746695259918 0
0.0001164029340651093 -0.22521833101808156 0
0.00012378842109954984 -0.25705126924082344 0
0.00013242250419389585 -0.29798536202332104 0
0.00014023878572916798 -0.3522566638751779 0
0.00015275853185250989 -0.42879656256354221 0
0.00016965395422336102 -0.54857537420517744 0
0.0001976761572233608 -0.78363681614842196 0
0.00024920352931122726 -1.3816715171202605 0
0.00022948696892521775 -2.1341697570359242 0
8.4624628849050071e-05 -2.3487048256001781 0
1.4236668094427609e-05 -2.367830441738827 0
1.7069453180784329e-06 -2.3621995805559393 0
1.7462341195267383e-07 -2.3525543727310443 0
1.4946086157135826e-08 -2.3414180009962355 0
9.2274174824768663e-10 -2.3302342955270605 0
6.5678827869729691e-18 -2.1900015534996689 0
-0 -0 0
-0 -0 0
-0 -0 0
-0 -0 0
-0 -0 0
-0 -0 0
4.321792590682381e-05 0.058565396207698406 0
7.8147968791857631e-05 0.10974802067109142 0
9.8277622881986002e-05 0.15896279466936614 0
-0 -0 0
-0 -0 0
-0 -0 0
7.0394785443659389e-05 0.096891581268979288 0
8.0010136159524547e-05 0.11888664418106976 0
9.7678863411956334e-05 0.16917889487576565 0
-0 -0 0
-0 -0 0
-0 -0 0
5.4239132313237779e-05 0.099531890784685384 0
6.3867357802492906e-05 0.12123718225948159 0
7.9156236628491648e-05 0.17192823229152632 0
-0 -0 0
-0 -0 0
-0 -0 0
2.9882978428891987e-05 0.10176677393783666 0
3.5314107420684484e-05 0.12319020204048148 0
4.4536976125160683e-05 0.17416171057240432 0
-0 -0 0
-0 -0 0
-0 -0 0
1.1449722950286753e-05 0.10206498319799409 0
1.3922519368252217e-05 0.12360085200173269 0
1.8229644180718785e-05 0.1746260251708795 0
-0 -0 0
-0 -0 0
-0 -0 0
2.1783454870666381e-06 0.10203029926559386 0
3.3707883840600942e-06 0.12357440904560965 0
5.6169082306251323e-06 0.17453390865693974 0
-0 -0 0
-0 -0 0
-0 -0 0
-7.5867737719590657e-07 0.10197394947767463 0
-4.231956521939646e-07 0.12351193701494738 0
5.0587545755353393e-07 0.17442974939051731 0
-0 -0 0
-0 -0 0
-0 -0 0
-2.7399741482197507e-06 0.10194048363831419 0
-3.0651433474412515e-06 0.12347305257260104 0
-3.3479111415162944e-06 0.17437041546484749 0
-0 -0 0
-0 -0 0
-0 -0 0
-3.516614181500552e-06 0.10192544304978964 0
-4.7186640475131342e-06 0.12345540917247715 0
-5.9719017511294584e-06 0.17434507647278755 0
-0 -0 0
-0 -0 0
-0 -0 0
-2.5713231917884951e-06 0.1019261242923869 0
-3.6847954003194696e-06 0.1234556740486922 0
-4.9679180994438029e-06 0.17434461594108502 0
-0 -0 0
-0 -0 0
-0 -0 0
-3.4555271778785167e-06 0.10194180226417787 0
-4.2174427377190166e-06 0.12347370276337738 0
-5.5494098098134821e-06 0.17436981923305159 0
-0 -0 0
-0 -0 0
-0 -0 0
-5.2186126808502573e-06 0.10197523507701668 0
-6.5202318787014276e-06 0.1235128091859075 0
-8.806607286859636e-06 0.17442985659003613 0
-0 -0 0
-0 -0 0
-0 -0 0
-7.5516890067430412e-06 0.10202961869472671 0
-9.8098467068636952e-06 0.12357399864807804 0
-1.3387682679978526e-05 0.17453402009217206 0
-0 -0 0
-0 -0 0
-0 -0 0
-1.4248381548818459e-05 0.10206274842044109 0
-1.8043147665512084e-05 0.12359913427288623 0
-2.4025250027975701e-05 0.17462565846743183 0
-0 -0 0
-0 -0 0
-0 -0 0
-3.0434356379838601e-05 0.10176571473495656 0
-3.6531840207921771e-05 0.12318913741568072 0
-4.6867709472873297e-05 0.17416159529384445 0
-0 -0 0
-0 -0 0
-0 -0 0
-5.3823856042395284e-05 0.09953244307522055 0
-6.279898564128993e-05 0.12123757263514374 0
-7.7587135914718107e-05 0.17192894195328978 0
-0 -0 0
-0 -0 0
-0 -0 0
-6.9102665020549266e-05 0.096893128927576996 0
-7.7699206886186557e-05 0.11888743889745237 0
-9.4103836005857955e-05 0.16917853866288982 0
-0 -0 0
-0 -0 0
-0 -0 0
-4.2812710845794339e-05 0.058559922054824368 0
-7.6021066399866002e-05 0.10974846472587164 0
-9.4573522827201418e-05 0.15896000872429489 0
-0 -0 0
-0 -0 0
-0 -0 0
-0 -0 0
-0 -0 0
-0 -0 0
-0 -0 0
-0 -0 0
-0 -0 0
-0 -0 0
-0 -0 0
-0 -0 0
-0 -0 0
-0 -0 0
-0 -0 0
-0 -0 0
-0 -0 0
-0 -0 0
-0 -0 0
-0 -0 0
-0 -0 0
-0 -0 0
-0 -0 0
-0 -0 0
-0 -0 0
-0 -0 0
-0 -0 0
-0 -0 0
-0 -0 0
-0 -0 0
-0 -0 0
-0 -0 0
-0 -0 0
-0 -0 0
-0 -0 0
-0 -0 0
-0 -0 0
-0 -0 0
-0 -0 0
-0 -0 0
-0 -0 0
-0 -0 0
-0 -0 0
-0 -0 0
-0 -0 0
-0 -0 0
-0 -0 0
-0 -0 0
-0 -0 0
-0 -0 0
-0 -0 0
-0 -0 0
-0 -0 0
-0 -0 0
-0 -0 0
-0 -0 0
-0 -0 0
-0 -0 0
-0 -0 0
-0 -0 0
-0 -0 0
-0 -0 0
-0 -0 0
-0 -0 0
-0 -0 0
-0 -0 0
-0 -0 0
-0 -0 0
-0 -0 0
-0 -0 0
-0 -0 0
-0 -0 0
-0 -0 0
-0 -0 0
-0 -0 0
-0 -0 0
-0 -0 0
-0 -0 0
-0 -0 0
-0 -0 0
-0 -0 0
-0 -0 0
-0 -0 0
-0 -0 0
-0 -0 0
-0 -0 0
-0 -0 0
-0 -0 0
-0 -0 0
-0 -0 0
-0 -0 0
-0 -0 0
-0 -0 0
-0 -0 0
-0 -0 0
-0 -0 0
-0 -0 0
-0 -0 0
-0 -0 0
-0 -0 0
-0 -0 0
-0 -0 0
-0 -0 0
-0 -0 0
-0 -0 0
-0 -0 0
-0 -0 0
-0 -0 0
-0 -0 0
-0 -0 0
-0 -0 0
-0 -0 0
-0 -0 0
-0 -0 0
-0 -0 0
-0 -0 0
-0 -0 0
-0 -0 0
-0 -0 0
-0 -0 0
-0 -0 0
-0 -0 0
-0 -0 0
-0 -0 0
-0 -0 0
-0 -0 0
-0 -0 0
-0 -0 0
-0 -0 0
-0 -0 0
-0 -0 0
-0 -0 0
-0 -0 0
-0 -0 0
-0 -0 0
-0 -0 0
-0 -0 0
-0 -0 0
-0 -0 0
-0 -0 0
-0 -0 0
-0 -0 0
-0 -0 0
-0 -0 0
-0 -0 0
-0 -0 0
-0 -0 0
-0 -0 0
-0 -0 0
-0 -0 0
-0 -0 0
-0 -0 0
-0 -0 0
-0 -0 0
-0 -0 0
-0 -0 0
-0 -0 0
-0 -0 0
-0 -0 0
-0 -0 0
-0 -0 0
-0 -0 0
-0 -0 0
-0 -0 0
-0 -0 0
-0 -0 0
-0 -0 0
-0 -0 0
-0 -0 0
-0 -0 0
-0 -0 0
-0 -0 0
-0 -0 0
-0 -0 0
-0 -0 0
-0 -0 0
-0 -0 0
-0 -0 0
-0 -0 0
-0 -0 0
-0 -0 0
-0 -0 0
-0 -0 0
-0 -0 0
-0 -0 0
-0 -0 0
-0 -0 0
-0 -0 0
-0 -0 0
-0 -0 0
-0 -0 0
-0 -0 0
-0 -0 0
-0 -0 0
-0 -0 0
