# vtk DataFile Version 3.0
SPH particles (WCSPH) - legacy PolyData
ASCII
DATASET POLYDATA
POINTS 872 float
4.8914085225532435e-05 4.6771094360439984e-05 0
0.072532463301523506 0.045832427980595426 0
0.09673723509143882 0.059015233894446517 0
0.11742496745779016 0.05839894178295349 0
0.13867800632310431 0.055941661258149138 0
0.16235085769190569 0.060293759962126013 0
0.18430133716424246 0.058891084135185193 0
0.2047752819619362 0.061395277110987925 0
0.22891430246083211 0.060983495560491215 0
0.24719163277889225 0.062072394459070326 0
0.27310705265384788 0.064219869148073178 0
0.28728511381707428 0.055849829920907895 0
0.3130510180755135 0.062546550078218105 0
0.32782019076138108 0.062559200602788731 0
0.37807905235994071 0.067633120143291536 0
0.39289431472816805 0.047892776811607495 0
0.046146170209915446 0.071167485752919146 0
0.080150201760865777 0.078866925549723507 0
0.090710699814060672 0.073331056195245714 0
0.1219392176708796 0.07821958239107292 0
0.13899059255572352 0.07735009120224827 0
0.16146885133564542 0.07701986976050626 0
0.18298525687509229 0.079783574744832275 0
0.20248232462231111 0.077049054874717277 0
0.22670820361477209 0.0796635992872958 0
0.24538913616407534 0.077760097305358072 0
0.27181613544553651 0.078507265217553968 0
0.28914287587807158 0.082435068949095844 0
0.31421044059245234 0.078247168299490619 0
0.34015057691337636 0.086875423617023897 0
0.36828016543766834 0.078702195073798525 0
0.38822662826979915 0.079990649483718507 0
0.059735674477753756 0.093028146966151193 0
0.075111423142392109 0.088472941638642125 0
0.10668963630113852 0.10360762243022283 0
0.11642805238498771 0.091107462460539843 0
0.14515697237248251 0.099474488479790235 0
0.16068544713437743 0.096845071932703128 0
0.18535508814465337 0.098927032188984868 0
0.20413965783173973 0.098836698209081128 0
0.22713823944961509 0.10027261908379757 0
0.24807750145757021 0.098792046806620154 0
0.2686008233062212 0.10284674822030893 0
0.29395153249167516 0.09492716030280611 0
0.31419792337697022 0.10445492063635561 0
0.33861299394815908 0.084807999390022815 0
0.36116957367329 0.10382384641680877 0
0.38223188215268927 0.086508640156587602 0
0.057545496442779412 0.11302015837306885 0
0.081077633763894527 0.1194638604428046 0
0.093142032626973362 0.11328508253098823 0
0.12265958447392061 0.11865493182244696 0
0.14000573706628655 0.1143118313009298 0
0.16416985211395527 0.1161670825845897 0
0.18257803658171531 0.11581314267099978 0
0.205161857067859 0.11498407701610779 0
0.22666372405024407 0.11594300996569612 0
0.24762256107733366 0.11544404739900992 0
0.27068347614808252 0.11421615586025245 0
0.29198618090679923 0.11856510788562276 0
0.31297514188704312 0.10919226518978942 0
0.33590661344238892 0.12766901282410842 0
0.35286793574730674 0.10748540872437444 0
0.37539108254960762 0.12621386617112318 0
0.055518676191268428 0.13201080161372192 0
0.079811918187481568 0.13340082945296219 0
0.10112115516261541 0.13706783987706617 0
0.11885040861679298 0.13364812827809575 0
0.14437104603511242 0.13754076818433722 0
0.16164209135534077 0.13502152191832498 0
0.18480159603948776 0.13677352742431026 0
0.20490843712062012 0.13656875175213118 0
0.22595167514531714 0.13744875319486957 0
0.24826073774781965 0.13723146429236704 0
0.26702412505289247 0.13889219983504816 0
0.29168529320856368 0.13407967541121224 0
0.30952457899865582 0.13851936612270513 0
0.33470759889281793 0.12655948581445281 0
0.3589484951928289 0.13630545278084127 0
0.37587016278664886 0.12034870152842717 0
0.05748195381180414 0.15492420996872361 0
0.079781404179223053 0.15634974111012953 0
0.097430859204854878 0.15424526212248749 0
0.12204793427953137 0.1586250161094345 0
0.14003250556841876 0.15465596867991205 0
0.16440678700009231 0.15691722594248786 0
0.18309774580882016 0.15475240619005073 0
0.20617720618544688 0.15586278222832836 0
0.22711353009656018 0.15364774504083015 0
0.24825639395692908 0.1556632302952568 0
0.2707265305976968 0.15179761064074099 0
0.29081583984924503 0.15699152508467398 0
0.31224172404244976 0.14989069100930213 0
0.33244713369933393 0.16185285419124584 0
0.35289310248003436 0.14940817989692162 0
0.37289490725109414 0.16443572999948539 0
0.056544122476802613 0.17290873649762142 0
0.08191597503428906 0.1737530577247611 0
0.098972621529358082 0.17423550177354094 0
0.12208449098770563 0.17271169814730677 0
0.14184492799557624 0.17499539358338792 0
0.16321554519257866 0.1741693874632502 0
0.18367346165557627 0.17487468296472014 0
0.20523636225776773 0.1753048685719428 0
0.22572188925779529 0.17524858037534255 0
0.24754584265917212 0.17558644118129693 0
0.26712542890913482 0.17553652578901827 0
0.28973492184685978 0.17319730214348858 0
0.30935481753009864 0.17441840321457755 0
0.33129031139934545 0.16728669605523055 0
0.35309692544070315 0.1715760826069182 0
0.37446397836965128 0.16071242349474194 0
0.055882422174953594 0.19414991722214867 0
0.08110478722008721 0.19439917948782426 0
0.098700187351972959 0.19357788487987052 0
0.12246541371713601 0.1955806224313634 0
0.14065007331691848 0.19308932848301733 0
0.16439878244770217 0.19522123701789568 0
0.18329615875169378 0.19279065747803414 0
0.2061044423579422 0.19452352818107432 0
0.2267597471235567 0.19189239050214535 0
0.2478614902797654 0.19391158681790238 0
0.2699485003852668 0.19093081601865561 0
0.28947966082980847 0.19460474516853721 0
0.31180250601286302 0.19016408098225368 0
0.3297454753447715 0.19793833652298448 0
0.35191743160350569 0.18918049508976256 0
0.37493552835839505 0.19824170844370217 0
0.056441334053068913 0.21281483624043693 0
0.081985193498885112 0.21267347847390231 0
0.098091249131085592 0.21276716403887988 0
0.12310697439921571 0.21246480710511972 0
0.14085858162068673 0.21293028921931276 0
0.16410793546462196 0.21311503183477246 0
0.183078064038251 0.21306775807159253 0
0.20554487506674568 0.21374196276468338 0
0.2255532833045478 0.21340745526962818 0
0.24714039434814516 0.21384160587074233 0
0.26758621709841379 0.21350334886685421 0
0.28843849475220618 0.21239951498609985 0
0.30867101777221773 0.21238773184134563 0
0.32958180358129829 0.20797859395111173 0
0.34736757655163608 0.21041624772850437 0
0.37649761678633392 0.20442324414076588 0
0.055644028329201796 0.23267589845331724 0
0.081741682950660838 0.23303895677568928 0
0.098678862734894623 0.23272628858814243 0
0.12276344347131887 0.23344435240223663 0
0.1406480031655748 0.23222526448868622 0
0.16437456689755048 0.23308151626063756 0
0.18311156432347681 0.23167472372862577 0
0.20593776120554005 0.23266637374827157 0
0.22620026783235722 0.23105677609409689 0
0.24742526806810405 0.23227459857924995 0
0.26938889751058803 0.23064780496542259 0
0.28833448808633505 0.23262900095575667 0
0.3114085162349014 0.23037884260219368 0
0.32850303934731478 0.23488563874416965 0
0.34881884590789314 0.22902780414492246 0
0.37735209576461332 0.23353204707928193 0
0.056230048354037387 0.25185788364062367 0
0.08190126300557618 0.25136200985679574 0
0.097869204156846551 0.25115928761952327 0
0.12325888744047769 0.25115877362687089 0
0.14041406070579587 0.25119636540593149 0
0.16439050836682872 0.25168992423099917 0
0.18290549612183069 0.25156420059491397 0
0.20566759168437115 0.2520969245541036 0
0.22565848952745085 0.25189237771893225 0
0.247012368690738 0.25226627189228756 0
0.26805097803652234 0.25202913580760572 0
0.28770595902342133 0.25140608986927876 0
0.30881911137945273 0.25145591006410023 0
0.32831000758635015 0.24886076682973843 0
0.34436108763193723 0.25052747390447072 0
0.37813475071111113 0.24764467507342691 0
0.055897283675361426 0.27110675060018652 0
0.081864148546164722 0.27158096675548493 0
0.098182986947524378 0.27155194911257391 0
0.12297168606128892 0.27178341161777203 0
0.14050474393446996 0.27124732376083405 0
0.16438665950481113 0.27144479189729692 0
0.18293709330699165 0.27072742003625977 0
0.20579111945847114 0.27106983375929355 0
0.22589971100167219 0.27026618893913196 0
0.24714111793112803 0.27069652914861908 0
0.26894546736446412 0.27001073587957808 0
0.28768995514886125 0.27107442709398177 0
0.31056374549193377 0.26993915817373709 0
0.32800613916611077 0.27221486272796153 0
0.34592062431819498 0.26944290780170832 0
0.37843375747491326 0.27130451296053343 0
0.056054362706242956 0.29039352609611591 0
0.081901919473375329 0.28980990334539181 0
0.097913919828287607 0.28970170408435886 0
0.12314522839418725 0.2896731470515585 0
0.14041531901214177 0.2898466529732705 0
0.16440556200339848 0.29011520499793114 0
0.18287865332121006 0.29029463350916479 0
0.20569896868314247 0.29047620060230361 0
0.22575958364487886 0.29064538736481804 0
0.24698396151254945 0.29073534674900164 0
0.26855559118072725 0.29081360315484056 0
0.2875023070747274 0.29023730901838363 0
0.30960050335343303 0.29068625187971442 0
0.32788979690727382 0.28897073559694197 0
0.34428737748446475 0.29040671165254872 0
0.37863899759787512 0.28874695302681613 0
0.056056223502978467 0.30953115933705089 0
0.081901818976252719 0.3101074211783309 0
0.097915854019973714 0.31021843473751243 0
0.12314454648926398 0.31024497870913575 0
0.14041565508495338 0.31007196164060269 0
0.16440453095541085 0.30980169653868372 0
0.18287853871784573 0.3096218970978451 0
0.2056977988416408 0.30943946999359295 0
0.22575895081077862 0.30926864461457965 0
0.2469824298895261 0.30917799530649687 0
0.26855518669541212 0.30909760564401334 0
0.28750006082400881 0.30967301589834878 0
0.30959935193010818 0.30922110160338295 0
0.32788847398858745 0.31093392558061528 0
0.34428683599086785 0.3094965453996168 0
0.3786377196206453 0.31115285389616215 0
0.055899460067488055 0.32881793713190921 0
0.081863141557097216 0.32833680684572109 0
0.098182348351130239 0.32836823452694947 0
0.12297063022533671 0.3281358018838515 0
0.14050388004516551 0.32867309809047446 0
0.16438481720884238 0.32847432613378746 0
0.18293692404631107 0.32919170832391381 0
0.2057888279754341 0.32884819817467648 0
0.22589871863800617 0.32965025169575973 0
0.24713861610683036 0.32921890940825654 0
0.2689439470969468 0.32990175450478149 0
0.28768715570007702 0.32883672034283412 0
0.31056010492528441 0.32996840304666497 0
0.32800255111956017 0.32769105102673751 0
0.34591645392106485 0.33045951020250675 0
0.37842933280504903 0.32859631729041133 0
0.056236052225589223 0.34806663243277031 0
0.081900473917052435 0.34855402837086563 0
0.097874030964852365 0.34876185874970922 0
0.12325661182904291 0.34876005676337191 0
0.14041429034692252 0.34872184949217006 0
0.16438638395785679 0.34822571579285938 0
0.18290548936030401 0.34835069332763974 0
0.20566267465979154 0.34781744494355904 0
0.22565673186371241 0.34802010741348177 0
0.24700641443397789 0.34764613803558309 0
0.26804860970897076 0.34788112035650337 0
0.28769842761642395 0.34850348573732787 0
0.30881354058057892 0.34845145665137556 0
0.32830292679938866 0.35104342446337394 0
0.34435533697700804 0.34937603952318413 0
0.37812793905572628 0.3522539081690465 0
0.055649431241876345 0.36724989648652367 0
0.081739735440297556 0.36687948172871349 0
0.098681746775744053 0.3671948015685087 0
0.12275970062292943 0.36647686341587854 0
0.14064604330411926 0.36769832565160315 0
0.16436940874662206 0.36684135793474348 0
0.18311122746857073 0.3682489416381608 0
0.20593186192125174 0.36725563012291362 0
0.22619748555250449 0.36886385364775409 0
0.24741809673948861 0.36764403404096901 0
0.2693843837612992 0.36926561457539631 0
0.28832739258940709 0.36728419856518379 0
0.3113999072045609 0.36952935218946398 0
0.328494021202897 0.36502098452680765 0
0.34881095976396453 0.37087424311440315 0
0.37734222650500365 0.3663720754976692 0
0.05645220847284415 0.3871084688176275 0
0.081983596451698545 0.38724045192316586 0
0.098102136953661601 0.38715434533259047 0
0.12310258939679626 0.38745173494835 0
0.14086109220809445 0.38698726322043075 0
0.1640997601538576 0.38679971142705999 0
0.18307930549175691 0.38684580328332696 0
0.20553518856796066 0.38617159998412742 0
0.2255516045696408 0.38650366913357498 0
0.24712759356427239 0.38607080056295701 0
0.26758211034464308 0.3864074266615723 0
0.28842669998885806 0.38751108433404829 0
0.30866013856247637 0.38752126478398347 0
0.3295684152410509 0.39192737683422707 0
0.34735555336493706 0.38948814119014402 0
0.3764851022208589 0.39547296072041072 0
0.055889795206277827 0.40577859122498633 0
0.08109888512156381 0.40551980080134176 0
0.098709587050476721 0.40634358884529642 0
0.12245440170418599 0.40434041579750718 0
0.14065035226315117 0.40683055677890068 0
0.1643913883434214 0.40470008460188678 0
0.18329622169073093 0.40713671511349392 0
0.20609475054360984 0.40540003442251199 0
0.22675665605139064 0.40803389981228111 0
0.2478493484520489 0.40601290759404496 0
0.26994055123131361 0.40898830425978011 0
0.28946879654003305 0.40531359790833005 0
0.31178779918597505 0.40974855069467475 0
0.32972861757159067 0.40197081477771474 0
0.35190866562789885 0.41072504146687333 0
0.3749194521445664 0.40167035630404591 0
0.056563745979160203 0.42701497509624248 0
0.081910648008774151 0.42616928128741499 0
0.098989873361378058 0.42569086399858336 0
0.1220712534148671 0.42720824522792478 0
0.14184721868211364 0.42492359464550883 0
0.16320934094996048 0.42574527079692664 0
0.18367852909829147 0.42503784389138805 0
0.20522133514327581 0.42461076669434866 0
0.22572604073792535 0.42466172057730844 0
0.24752599348615811 0.42432766514860532 0
0.26712064758730247 0.42437745508545044 0
0.28971841139592713 0.42671571508746742 0
0.30933907051376131 0.42549486950326637 0
0.33126918863634008 0.43262491187052138 0
0.35307689392219055 0.42833568724785898 0
0.37443962950589249 0.43918529528054961 0
0.057493354926280327 0.44501142042639547 0
0.079772818097553891 0.44357206241819608 0
0.097454745685178437 0.44567639832597528 0
0.12202541573943058 0.44130187683702188 0
0.14003729968043557 0.44527059097091315 0
0.16439301310729609 0.44301013021239632 0
0.18310040266405653 0.44516815342349209 0
0.2061631296304379 0.44405940209268907 0
0.22710943650764356 0.44626955779820854 0
0.24824683499703692 0.44425739857267016 0
0.27071695935193174 0.44813277765450499 0
0.29079930591452124 0.44293323648728095 0
0.31221939400145254 0.45002937170980312 0
0.33242126218307305 0.43805948088225449 0
0.35288779865641123 0.45049720603894672 0
0.37286538066701785 0.43548284778970958 0
0.055555890867206983 0.46792829915231288 0
0.079780540516709769 0.46653390675544459 0
0.1011393042710471 0.46284009993513842 0
0.11883821805308839 0.4662651382574004 0
0.14437907118208471 0.46237522583091101 0
0.16162544367745793 0.46489877662518986 0
0.18480807761948165 0.46314414272311144 0
0.20488998322133503 0.46335024013566301 0
0.22595334137158088 0.46246998486244989 0
0.24825257876744647 0.46268648412583835 0
0.26702622542549775 0.4610281731587329 0
0.2916599128261177 0.46583881836471025 0
0.30950339077319078 0.46140103043705055 0
0.33467346439250878 0.47335736107620052 0
0.35891001526541516 0.46361082963962991 0
0.37582883011278251 0.47953956147923893 0
0.057568285336596775 0.486927865981861 0
0.081022167419733726 0.48046990374723508 0
0.093153528066173039 0.48662966242093092 0
0.12265787204030004 0.48127500373182686 0
0.14002618246128459 0.48564656941783885 0
0.16415147755749443 0.48379803239874053 0
0.18257962306792244 0.48415180502448774 0
0.20514620503778325 0.48497306208091923 0
0.22665777541417195 0.48402062642558635 0
0.24760653536568319 0.48449719591956114 0
0.27067742095663977 0.48572327534583037 0
0.29196097127668108 0.4813642760425158 0
0.31293517501354773 0.49074378455841117 0
0.33587314624032433 0.47225089089872141 0
0.35285903046283273 0.49242089497739666 0
0.37535806482591383 0.47371170466809442 0
0.059793747527142518 0.50692729285811067 0
0.075068834833064854 0.51150503831867267 0
0.10670326832428136 0.4963460102989587 0
0.1164529221028387 0.50883018549196379 0
0.14519240154591162 0.50044516905777869 0
0.16066138479987746 0.50307306125416518 0
0.18536736058481892 0.50098817896708936 0
0.20411488677424031 0.50109053948541904 0
0.22713911417897265 0.49964561787032091 0
0.24804468916608399 0.50113479923184623 0
0.26860465730108046 0.49708290901965846 0
0.29390808595682355 0.50498148179829072 0
0.31418348972290733 0.49546049596612535 0
0.33854591786178184 0.51511087118050236 0
0.36114295372502603 0.49608279270026273 0
0.3821576562742281 0.51341152188523154 0
0.046164832196745796 0.52885885316405024 0
0.08012485900616774 0.52112123713495695 0
0.09068040221082467 0.52669031548772327 0
0.12192885037108049 0.52181217370606081 0
0.13898764195236707 0.5226737647989369 0
0.16144643646920179 0.52297343267786678 0
0.18298853448710645 0.52021088148120365 0
0.20245926010232443 0.52294102120773056 0
0.22670535983969239 0.52031239523281581 0
0.24536873044435989 0.52220040283810543 0
0.27181623058744508 0.52145036168357661 0
0.28910350093903414 0.51749640922450735 0
0.31414182873761815 0.52172561399561046 0
0.34008969163690594 0.51304957445759047 0
0.36826825196944607 0.52118520191404838 0
0.38820174478099201 0.5199851812723757 0
4.4835311057371321e-05 0.59995120541259195 0
0.072460476521250039 0.55415868006998703 0
0.096762788253634602 0.54091079850676971 0
0.11740004548893654 0.54153762714133191 0
0.13870793770491738 0.54397004479018696 0
0.16230887646522055 0.53964637624278156 0
0.18432553010211869 0.5410435354963079 0
0.20472598351559818 0.53853984483692885 0
0.2289159578488992 0.53898351336950812 0
0.24712025546269323 0.53786124410824465 0
0.2731055667094886 0.53576608977962892 0
0.28720292754431753 0.54407636231526835 0
0.31306419455135664 0.53745373401975705 0
0.32769843450620528 0.53729878038573697 0
0.37808796950782353 0.53233871291972568 0
0.39273607249701931 0.55205995828770127 0
0 0 0
0 0.02 0
0 0.040000000000000001 0
0 0.059999999999999998 0
0 0.080000000000000002 0
0 0.10000000000000001 0
0 0.12 0
0 0.14000000000000001 0
0 0.16 0
0 0.17999999999999999 0
0 0.20000000000000001 0
0 0.22 0
0 0.23999999999999999 0
0 0.26000000000000001 0
0 0.28000000000000003 0
0 0.29999999999999999 0
0 0.32000000000000001 0
0 0.34000000000000002 0
0 0.35999999999999999 0
0 0.38 0
0 0.40000000000000002 0
0 0.41999999999999998 0
0 0.44 0
0 0.46000000000000002 0
0 0.47999999999999998 0
0 0.5 0
0 0.52000000000000002 0
0 0.54000000000000004 0
0 0.56000000000000005 0
0 0.57999999999999996 0
0 0.59999999999999998 0
0.02 0 0
0.02 0.02 0
0.02 0.040000000000000001 0
0.02 0.059999999999999998 0
0.02 0.080000000000000002 0
0.02 0.10000000000000001 0
0.02 0.12 0
0.02 0.14000000000000001 0
0.02 0.16 0
0.02 0.17999999999999999 0
0.02 0.20000000000000001 0
0.02 0.22 0
0.02 0.23999999999999999 0
0.02 0.26000000000000001 0
0.02 0.28000000000000003 0
0.02 0.29999999999999999 0
0.02 0.32000000000000001 0
0.02 0.34000000000000002 0
0.02 0.35999999999999999 0
0.02 0.38 0
0.02 0.40000000000000002 0
0.02 0.41999999999999998 0
0.02 0.44 0
0.02 0.46000000000000002 0
0.02 0.47999999999999998 0
0.02 0.5 0
0.02 0.52000000000000002 0
0.02 0.54000000000000004 0
0.02 0.56000000000000005 0
0.02 0.57999999999999996 0
0.02 0.59999999999999998 0
0.040000000000000001 0 0
0.040000000000000001 0.02 0
0.040000000000000001 0.040000000000000001 0
0.040000000000000001 0.059999999999999998 0
0.040000000000000001 0.080000000000000002 0
0.040000000000000001 0.10000000000000001 0
0.040000000000000001 0.12 0
0.040000000000000001 0.14000000000000001 0
0.040000000000000001 0.16 0
0.040000000000000001 0.17999999999999999 0
0.040000000000000001 0.20000000000000001 0
0.040000000000000001 0.22 0
0.040000000000000001 0.23999999999999999 0
0.040000000000000001 0.26000000000000001 0
0.040000000000000001 0.28000000000000003 0
0.040000000000000001 0.29999999999999999 0
0.040000000000000001 0.32000000000000001 0
0.040000000000000001 0.34000000000000002 0
0.040000000000000001 0.35999999999999999 0
0.040000000000000001 0.38 0
0.040000000000000001 0.40000000000000002 0
0.040000000000000001 0.41999999999999998 0
0.040000000000000001 0.44 0
0.040000000000000001 0.46000000000000002 0
0.040000000000000001 0.47999999999999998 0
0.040000000000000001 0.5 0
0.040000000000000001 0.52000000000000002 0
0.040000000000000001 0.54000000000000004 0
0.040000000000000001 0.56000000000000005 0
0.040000000000000001 0.57999999999999996 0
0.040000000000000001 0.59999999999999998 0
0.059999999999999998 0 0
0.059999999999999998 0.02 0
0.059999999999999998 0.040000000000000001 0
0.059999999999999998 0.56000000000000005 0
0.059999999999999998 0.57999999999999996 0
0.059999999999999998 0.59999999999999998 0
0.080000000000000002 0 0
0.080000000000000002 0.02 0
0.080000000000000002 0.040000000000000001 0
0.080000000000000002 0.56000000000000005 0
0.080000000000000002 0.57999999999999996 0
0.080000000000000002 0.59999999999999998 0
0.10000000000000001 0 0
0.10000000000000001 0.02 0
0.10000000000000001 0.040000000000000001 0
0.10000000000000001 0.56000000000000005 0
0.10000000000000001 0.57999999999999996 0
0.10000000000000001 0.59999999999999998 0
0.12 0 0
0.12 0.02 0
0.12 0.040000000000000001 0
0.12 0.56000000000000005 0
0.12 0.57999999999999996 0
0.12 0.59999999999999998 0
0.14000000000000001 0 0
0.14000000000000001 0.02 0
0.14000000000000001 0.040000000000000001 0
0.14000000000000001 0.56000000000000005 0
0.14000000000000001 0.57999999999999996 0
0.14000000000000001 0.59999999999999998 0
0.16 0 0
0.16 0.02 0
0.16 0.040000000000000001 0
0.16 0.56000000000000005 0
0.16 0.57999999999999996 0
0.16 0.59999999999999998 0
0.17999999999999999 0 0
0.17999999999999999 0.02 0
0.17999999999999999 0.040000000000000001 0
0.17999999999999999 0.56000000000000005 0
0.17999999999999999 0.57999999999999996 0
0.17999999999999999 0.59999999999999998 0
0.20000000000000001 0 0
0.20000000000000001 0.02 0
0.20000000000000001 0.040000000000000001 0
0.20000000000000001 0.56000000000000005 0
0.20000000000000001 0.57999999999999996 0
0.20000000000000001 0.59999999999999998 0
0.22 0 0
0.22 0.02 0
0.22 0.040000000000000001 0
0.22 0.56000000000000005 0
0.22 0.57999999999999996 0
0.22 0.59999999999999998 0
0.23999999999999999 0 0
0.23999999999999999 0.02 0
0.23999999999999999 0.040000000000000001 0
0.23999999999999999 0.56000000000000005 0
0.23999999999999999 0.57999999999999996 0
0.23999999999999999 0.59999999999999998 0
0.26000000000000001 0 0
0.26000000000000001 0.02 0
0.26000000000000001 0.040000000000000001 0
0.26000000000000001 0.56000000000000005 0
0.26000000000000001 0.57999999999999996 0
0.26000000000000001 0.59999999999999998 0
0.28000000000000003 0 0
0.28000000000000003 0.02 0
0.28000000000000003 0.040000000000000001 0
0.28000000000000003 0.56000000000000005 0
0.28000000000000003 0.57999999999999996 0
0.28000000000000003 0.59999999999999998 0
0.29999999999999999 0 0
0.29999999999999999 0.02 0
0.29999999999999999 0.040000000000000001 0
0.29999999999999999 0.56000000000000005 0
0.29999999999999999 0.57999999999999996 0
0.29999999999999999 0.59999999999999998 0
0.32000000000000001 0 0
0.32000000000000001 0.02 0
0.32000000000000001 0.040000000000000001 0
0.32000000000000001 0.56000000000000005 0
0.32000000000000001 0.57999999999999996 0
0.32000000000000001 0.59999999999999998 0
0.34000000000000002 0 0
0.34000000000000002 0.02 0
0.34000000000000002 0.040000000000000001 0
0.34000000000000002 0.56000000000000005 0
0.34000000000000002 0.57999999999999996 0
0.34000000000000002 0.59999999999999998 0
0.35999999999999999 0 0
0.35999999999999999 0.02 0
0.35999999999999999 0.040000000000000001 0
0.35999999999999999 0.56000000000000005 0
0.35999999999999999 0.57999999999999996 0
0.35999999999999999 0.59999999999999998 0
0.38 0 0
0.38 0.02 0
0.38 0.040000000000000001 0
0.38 0.56000000000000005 0
0.38 0.57999999999999996 0
0.38 0.59999999999999998 0
0.40000000000000002 0 0
0.40000000000000002 0.02 0
0.40000000000000002 0.040000000000000001 0
0.40000000000000002 0.56000000000000005 0
0.40000000000000002 0.57999999999999996 0
0.40000000000000002 0.59999999999999998 0
0.41999999999999998 0 0
0.41999999999999998 0.02 0
0.41999999999999998 0.040000000000000001 0
0.41999999999999998 0.56000000000000005 0
0.41999999999999998 0.57999999999999996 0
0.41999999999999998 0.59999999999999998 0
0.44 0 0
0.44 0.02 0
0.44 0.040000000000000001 0
0.44 0.56000000000000005 0
0.44 0.57999999999999996 0
0.44 0.59999999999999998 0
0.46000000000000002 0 0
0.46000000000000002 0.02 0
0.46000000000000002 0.040000000000000001 0
0.46000000000000002 0.56000000000000005 0
0.46000000000000002 0.57999999999999996 0
0.46000000000000002 0.59999999999999998 0
0.47999999999999998 0 0
0.47999999999999998 0.02 0
0.47999999999999998 0.040000000000000001 0
0.47999999999999998 0.56000000000000005 0
0.47999999999999998 0.57999999999999996 0
0.47999999999999998 0.59999999999999998 0
0.5 0 0
0.5 0.02 0
0.5 0.040000000000000001 0
0.5 0.56000000000000005 0
0.5 0.57999999999999996 0
0.5 0.59999999999999998 0
0.52000000000000002 0 0
0.52000000000000002 0.02 0
0.52000000000000002 0.040000000000000001 0
0.52000000000000002 0.56000000000000005 0
0.52000000000000002 0.57999999999999996 0
0.52000000000000002 0.59999999999999998 0
0.54000000000000004 0 0
0.54000000000000004 0.02 0
0.54000000000000004 0.040000000000000001 0
0.54000000000000004 0.56000000000000005 0
0.54000000000000004 0.57999999999999996 0
0.54000000000000004 0.59999999999999998 0
0.56000000000000005 0 0
0.56000000000000005 0.02 0
0.56000000000000005 0.040000000000000001 0
0.56000000000000005 0.56000000000000005 0
0.56000000000000005 0.57999999999999996 0
0.56000000000000005 0.59999999999999998 0
0.57999999999999996 0 0
0.57999999999999996 0.02 0
0.57999999999999996 0.040000000000000001 0
0.57999999999999996 0.56000000000000005 0
0.57999999999999996 0.57999999999999996 0
0.57999999999999996 0.59999999999999998 0
0.59999999999999998 0 0
0.59999999999999998 0.02 0
0.59999999999999998 0.040000000000000001 0
0.59999999999999998 0.56000000000000005 0
0.59999999999999998 0.57999999999999996 0
0.59999999999999998 0.59999999999999998 0
0.62 0 0
0.62 0.02 0
0.62 0.040000000000000001 0
0.62 0.56000000000000005 0
0.62 0.57999999999999996 0
0.62 0.59999999999999998 0
0.64000000000000001 0 0
0.64000000000000001 0.02 0
0.64000000000000001 0.040000000000000001 0
0.64000000000000001 0.56000000000000005 0
0.64000000000000001 0.57999999999999996 0
0.64000000000000001 0.59999999999999998 0
0.66000000000000003 0 0
0.66000000000000003 0.02 0
0.66000000000000003 0.040000000000000001 0
0.66000000000000003 0.56000000000000005 0
0.66000000000000003 0.57999999999999996 0
0.66000000000000003 0.59999999999999998 0
0.68000000000000005 0 0
0.68000000000000005 0.02 0
0.68000000000000005 0.040000000000000001 0
0.68000000000000005 0.56000000000000005 0
0.68000000000000005 0.57999999999999996 0
0.68000000000000005 0.59999999999999998 0
0.70000000000000007 0 0
0.70000000000000007 0.02 0
0.70000000000000007 0.040000000000000001 0
0.70000000000000007 0.56000000000000005 0
0.70000000000000007 0.57999999999999996 0
0.70000000000000007 0.59999999999999998 0
0.71999999999999997 0 0
0.71999999999999997 0.02 0
0.71999999999999997 0.040000000000000001 0
0.71999999999999997 0.56000000000000005 0
0.71999999999999997 0.57999999999999996 0
0.71999999999999997 0.59999999999999998 0
0.73999999999999999 0 0
0.73999999999999999 0.02 0
0.73999999999999999 0.040000000000000001 0
0.73999999999999999 0.56000000000000005 0
0.73999999999999999 0.57999999999999996 0
0.73999999999999999 0.59999999999999998 0
0.76000000000000001 0 0
0.76000000000000001 0.02 0
0.76000000000000001 0.040000000000000001 0
0.76000000000000001 0.56000000000000005 0
0.76000000000000001 0.57999999999999996 0
0.76000000000000001 0.59999999999999998 0
0.78000000000000003 0 0
0.78000000000000003 0.02 0
0.78000000000000003 0.040000000000000001 0
0.78000000000000003 0.56000000000000005 0
0.78000000000000003 0.57999999999999996 0
0.78000000000000003 0.59999999999999998 0
0.80000000000000004 0 0
0.80000000000000004 0.02 0
0.80000000000000004 0.040000000000000001 0
0.80000000000000004 0.56000000000000005 0
0.80000000000000004 0.57999999999999996 0
0.80000000000000004 0.59999999999999998 0
0.82000000000000006 0 0
0.82000000000000006 0.02 0
0.82000000000000006 0.040000000000000001 0
0.82000000000000006 0.56000000000000005 0
0.82000000000000006 0.57999999999999996 0
0.82000000000000006 0.59999999999999998 0
0.83999999999999997 0 0
0.83999999999999997 0.02 0
0.83999999999999997 0.040000000000000001 0
0.83999999999999997 0.56000000000000005 0
0.83999999999999997 0.57999999999999996 0
0.83999999999999997 0.59999999999999998 0
0.85999999999999999 0 0
0.85999999999999999 0.02 0
0.85999999999999999 0.040000000000000001 0
0.85999999999999999 0.56000000000000005 0
0.85999999999999999 0.57999999999999996 0
0.85999999999999999 0.59999999999999998 0
0.88 0 0
0.88 0.02 0
0.88 0.040000000000000001 0
0.88 0.56000000000000005 0
0.88 0.57999999999999996 0
0.88 0.59999999999999998 0
0.90000000000000002 0 0
0.90000000000000002 0.02 0
0.90000000000000002 0.040000000000000001 0
0.90000000000000002 0.56000000000000005 0
0.90000000000000002 0.57999999999999996 0
0.90000000000000002 0.59999999999999998 0
0.92000000000000004 0 0
0.92000000000000004 0.02 0
0.92000000000000004 0.040000000000000001 0
0.92000000000000004 0.56000000000000005 0
0.92000000000000004 0.57999999999999996 0
0.92000000000000004 0.59999999999999998 0
0.94000000000000006 0 0
0.94000000000000006 0.02 0
0.94000000000000006 0.040000000000000001 0
0.94000000000000006 0.56000000000000005 0
0.94000000000000006 0.57999999999999996 0
0.94000000000000006 0.59999999999999998 0
0.95999999999999996 0 0
0.95999999999999996 0.02 0
0.95999999999999996 0.040000000000000001 0
0.95999999999999996 0.059999999999999998 0
0.95999999999999996 0.080000000000000002 0
0.95999999999999996 0.10000000000000001 0
0.95999999999999996 0.12 0
0.95999999999999996 0.14000000000000001 0
0.95999999999999996 0.16 0
0.95999999999999996 0.17999999999999999 0
0.95999999999999996 0.20000000000000001 0
0.95999999999999996 0.22 0
0.95999999999999996 0.23999999999999999 0
0.95999999999999996 0.26000000000000001 0
0.95999999999999996 0.28000000000000003 0
0.95999999999999996 0.29999999999999999 0
0.95999999999999996 0.32000000000000001 0
0.95999999999999996 0.34000000000000002 0
0.95999999999999996 0.35999999999999999 0
0.95999999999999996 0.38 0
0.95999999999999996 0.40000000000000002 0
0.95999999999999996 0.41999999999999998 0
0.95999999999999996 0.44 0
0.95999999999999996 0.46000000000000002 0
0.95999999999999996 0.47999999999999998 0
0.95999999999999996 0.5 0
0.95999999999999996 0.52000000000000002 0
0.95999999999999996 0.54000000000000004 0
0.95999999999999996 0.56000000000000005 0
0.95999999999999996 0.57999999999999996 0
0.95999999999999996 0.59999999999999998 0
0.97999999999999998 0 0
0.97999999999999998 0.02 0
0.97999999999999998 0.040000000000000001 0
0.97999999999999998 0.059999999999999998 0
0.97999999999999998 0.080000000000000002 0
0.97999999999999998 0.10000000000000001 0
0.97999999999999998 0.12 0
0.97999999999999998 0.14000000000000001 0
0.97999999999999998 0.16 0
0.97999999999999998 0.17999999999999999 0
0.97999999999999998 0.20000000000000001 0
0.97999999999999998 0.22 0
0.97999999999999998 0.23999999999999999 0
0.97999999999999998 0.26000000000000001 0
0.97999999999999998 0.28000000000000003 0
0.97999999999999998 0.29999999999999999 0
0.97999999999999998 0.32000000000000001 0
0.97999999999999998 0.34000000000000002 0
0.97999999999999998 0.35999999999999999 0
0.97999999999999998 0.38 0
0.97999999999999998 0.40000000000000002 0
0.97999999999999998 0.41999999999999998 0
0.97999999999999998 0.44 0
0.97999999999999998 0.46000000000000002 0
0.97999999999999998 0.47999999999999998 0
0.97999999999999998 0.5 0
0.97999999999999998 0.52000000000000002 0
0.97999999999999998 0.54000000000000004 0
0.97999999999999998 0.56000000000000005 0
0.97999999999999998 0.57999999999999996 0
0.97999999999999998 0.59999999999999998 0
1 0 0
1 0.02 0
1 0.040000000000000001 0
1 0.059999999999999998 0
1 0.080000000000000002 0
1 0.10000000000000001 0
1 0.12 0
1 0.14000000000000001 0
1 0.16 0
1 0.17999999999999999 0
1 0.20000000000000001 0
1 0.22 0
1 0.23999999999999999 0
1 0.26000000000000001 0
1 0.28000000000000003 0
1 0.29999999999999999 0
1 0.32000000000000001 0
1 0.34000000000000002 0
1 0.35999999999999999 0
1 0.38 0
1 0.40000000000000002 0
1 0.41999999999999998 0
1 0.44 0
1 0.46000000000000002 0
1 0.47999999999999998 0
1 0.5 0
1 0.52000000000000002 0
1 0.54000000000000004 0
1 0.56000000000000005 0
1 0.57999999999999996 0
1 0.59999999999999998 0
VERTICES 872 1744
1 0
1 1
1 2
1 3
1 4
1 5
1 6
1 7
1 8
1 9
1 10
1 11
1 12
1 13
1 14
1 15
1 16
1 17
1 18
1 19
1 20
1 21
1 22
1 23
1 24
1 25
1 26
1 27
1 28
1 29
1 30
1 31
1 32
1 33
1 34
1 35
1 36
1 37
1 38
1 39
1 40
1 41
1 42
1 43
1 44
1 45
1 46
1 47
1 48
1 49
1 50
1 51
1 52
1 53
1 54
1 55
1 56
1 57
1 58
1 59
1 60
1 61
1 62
1 63
1 64
1 65
1 66
1 67
1 68
1 69
1 70
1 71
1 72
1 73
1 74
1 75
1 76
1 77
1 78
1 79
1 80
1 81
1 82
1 83
1 84
1 85
1 86
1 87
1 88
1 89
1 90
1 91
1 92
1 93
1 94
1 95
1 96
1 97
1 98
1 99
1 100
1 101
1 102
1 103
1 104
1 105
1 106
1 107
1 108
1 109
1 110
1 111
1 112
1 113
1 114
1 115
1 116
1 117
1 118
1 119
1 120
1 121
1 122
1 123
1 124
1 125
1 126
1 127
1 128
1 129
1 130
1 131
1 132
1 133
1 134
1 135
1 136
1 137
1 138
1 139
1 140
1 141
1 142
1 143
1 144
1 145
1 146
1 147
1 148
1 149
1 150
1 151
1 152
1 153
1 154
1 155
1 156
1 157
1 158
1 159
1 160
1 161
1 162
1 163
1 164
1 165
1 166
1 167
1 168
1 169
1 170
1 171
1 172
1 173
1 174
1 175
1 176
1 177
1 178
1 179
1 180
1 181
1 182
1 183
1 184
1 185
1 186
1 187
1 188
1 189
1 190
1 191
1 192
1 193
1 194
1 195
1 196
1 197
1 198
1 199
1 200
1 201
1 202
1 203
1 204
1 205
1 206
1 207
1 208
1 209
1 210
1 211
1 212
1 213
1 214
1 215
1 216
1 217
1 218
1 219
1 220
1 221
1 222
1 223
1 224
1 225
1 226
1 227
1 228
1 229
1 230
1 231
1 232
1 233
1 234
1 235
1 236
1 237
1 238
1 239
1 240
1 241
1 242
1 243
1 244
1 245
1 246
1 247
1 248
1 249
1 250
1 251
1 252
1 253
1 254
1 255
1 256
1 257
1 258
1 259
1 260
1 261
1 262
1 263
1 264
1 265
1 266
1 267
1 268
1 269
1 270
1 271
1 272
1 273
1 274
1 275
1 276
1 277
1 278
1 279
1 280
1 281
1 282
1 283
1 284
1 285
1 286
1 287
1 288
1 289
1 290
1 291
1 292
1 293
1 294
1 295
1 296
1 297
1 298
1 299
1 300
1 301
1 302
1 303
1 304
1 305
1 306
1 307
1 308
1 309
1 310
1 311
1 312
1 313
1 314
1 315
1 316
1 317
1 318
1 319
1 320
1 321
1 322
1 323
1 324
1 325
1 326
1 327
1 328
1 329
1 330
1 331
1 332
1 333
1 334
1 335
1 336
1 337
1 338
1 339
1 340
1 341
1 342
1 343
1 344
1 345
1 346
1 347
1 348
1 349
1 350
1 351
1 352
1 353
1 354
1 355
1 356
1 357
1 358
1 359
1 360
1 361
1 362
1 363
1 364
1 365
1 366
1 367
1 368
1 369
1 370
1 371
1 372
1 373
1 374
1 375
1 376
1 377
1 378
1 379
1 380
1 381
1 382
1 383
1 384
1 385
1 386
1 387
1 388
1 389
1 390
1 391
1 392
1 393
1 394
1 395
1 396
1 397
1 398
1 399
1 400
1 401
1 402
1 403
1 404
1 405
1 406
1 407
1 408
1 409
1 410
1 411
1 412
1 413
1 414
1 415
1 416
1 417
1 418
1 419
1 420
1 421
1 422
1 423
1 424
1 425
1 426
1 427
1 428
1 429
1 430
1 431
1 432
1 433
1 434
1 435
1 436
1 437
1 438
1 439
1 440
1 441
1 442
1 443
1 444
1 445
1 446
1 447
1 448
1 449
1 450
1 451
1 452
1 453
1 454
1 455
1 456
1 457
1 458
1 459
1 460
1 461
1 462
1 463
1 464
1 465
1 466
1 467
1 468
1 469
1 470
1 471
1 472
1 473
1 474
1 475
1 476
1 477
1 478
1 479
1 480
1 481
1 482
1 483
1 484
1 485
1 486
1 487
1 488
1 489
1 490
1 491
1 492
1 493
1 494
1 495
1 496
1 497
1 498
1 499
1 500
1 501
1 502
1 503
1 504
1 505
1 506
1 507
1 508
1 509
1 510
1 511
1 512
1 513
1 514
1 515
1 516
1 517
1 518
1 519
1 520
1 521
1 522
1 523
1 524
1 525
1 526
1 527
1 528
1 529
1 530
1 531
1 532
1 533
1 534
1 535
1 536
1 537
1 538
1 539
1 540
1 541
1 542
1 543
1 544
1 545
1 546
1 547
1 548
1 549
1 550
1 551
1 552
1 553
1 554
1 555
1 556
1 557
1 558
1 559
1 560
1 561
1 562
1 563
1 564
1 565
1 566
1 567
1 568
1 569
1 570
1 571
1 572
1 573
1 574
1 575
1 576
1 577
1 578
1 579
1 580
1 581
1 582
1 583
1 584
1 585
1 586
1 587
1 588
1 589
1 590
1 591
1 592
1 593
1 594
1 595
1 596
1 597
1 598
1 599
1 600
1 601
1 602
1 603
1 604
1 605
1 606
1 607
1 608
1 609
1 610
1 611
1 612
1 613
1 614
1 615
1 616
1 617
1 618
1 619
1 620
1 621
1 622
1 623
1 624
1 625
1 626
1 627
1 628
1 629
1 630
1 631
1 632
1 633
1 634
1 635
1 636
1 637
1 638
1 639
1 640
1 641
1 642
1 643
1 644
1 645
1 646
1 647
1 648
1 649
1 650
1 651
1 652
1 653
1 654
1 655
1 656
1 657
1 658
1 659
1 660
1 661
1 662
1 663
1 664
1 665
1 666
1 667
1 668
1 669
1 670
1 671
1 672
1 673
1 674
1 675
1 676
1 677
1 678
1 679
1 680
1 681
1 682
1 683
1 684
1 685
1 686
1 687
1 688
1 689
1 690
1 691
1 692
1 693
1 694
1 695
1 696
1 697
1 698
1 699
1 700
1 701
1 702
1 703
1 704
1 705
1 706
1 707
1 708
1 709
1 710
1 711
1 712
1 713
1 714
1 715
1 716
1 717
1 718
1 719
1 720
1 721
1 722
1 723
1 724
1 725
1 726
1 727
1 728
1 729
1 730
1 731
1 732
1 733
1 734
1 735
1 736
1 737
1 738
1 739
1 740
1 741
1 742
1 743
1 744
1 745
1 746
1 747
1 748
1 749
1 750
1 751
1 752
1 753
1 754
1 755
1 756
1 757
1 758
1 759
1 760
1 761
1 762
1 763
1 764
1 765
1 766
1 767
1 768
1 769
1 770
1 771
1 772
1 773
1 774
1 775
1 776
1 777
1 778
1 779
1 780
1 781
1 782
1 783
1 784
1 785
1 786
1 787
1 788
1 789
1 790
1 791
1 792
1 793
1 794
1 795
1 796
1 797
1 798
1 799
1 800
1 801
1 802
1 803
1 804
1 805
1 806
1 807
1 808
1 809
1 810
1 811
1 812
1 813
1 814
1 815
1 816
1 817
1 818
1 819
1 820
1 821
1 822
1 823
1 824
1 825
1 826
1 827
1 828
1 829
1 830
1 831
1 832
1 833
1 834
1 835
1 836
1 837
1 838
1 839
1 840
1 841
1 842
1 843
1 844
1 845
1 846
1 847
1 848
1 849
1 850
1 851
1 852
1 853
1 854
1 855
1 856
1 857
1 858
1 859
1 860
1 861
1 862
1 863
1 864
1 865
1 866
1 867
1 868
1 869
1 870
1 871
POINT_DATA 872
SCALARS is_boundary int 1
LOOKUP_TABLE default
0
0
0
0
0
0
0
0
0
0
0
0
0
0
0
0
0
0
0
0
0
0
0
0
0
0
0
0
0
0
0
0
0
0
0
0
0
0
0
0
0
0
0
0
0
0
0
0
0
0
0
0
0
0
0
0
0
0
0
0
0
0
0
0
0
0
0
0
0
0
0
0
0
0
0
0
0
0
0
0
0
0
0
0
0
0
0
0
0
0
0
0
0
0
0
0
0
0
0
0
0
0
0
0
0
0
0
0
0
0
0
0
0
0
0
0
0
0
0
0
0
0
0
0
0
0
0
0
0
0
0
0
0
0
0
0
0
0
0
0
0
0
0
0
0
0
0
0
0
0
0
0
0
0
0
0
0
0
0
0
0
0
0
0
0
0
0
0
0
0
0
0
0
0
0
0
0
0
0
0
0
0
0
0
0
0
0
0
0
0
0
0
0
0
0
0
0
0
0
0
0
0
0
0
0
0
0
0
0
0
0
0
0
0
0
0
0
0
0
0
0
0
0
0
0
0
0
0
0
0
0
0
0
0
0
0
0
0
0
0
0
0
0
0
0
0
0
0
0
0
0
0
0
0
0
0
0
0
0
0
0
0
0
0
0
0
0
0
0
0
0
0
0
0
0
0
0
0
0
0
0
0
0
0
0
0
0
0
0
0
0
0
0
0
0
0
0
0
0
0
0
0
0
0
0
0
0
0
0
0
0
0
0
0
0
0
0
0
0
0
0
0
0
0
0
0
0
0
0
0
0
0
0
0
0
0
0
0
0
0
0
0
0
0
0
0
0
0
0
0
0
0
0
0
0
0
0
0
0
0
0
0
0
0
0
0
0
0
0
0
0
0
0
0
0
0
0
0
0
0
0
0
0
0
0
0
0
0
0
0
0
0
0
0
0
0
0
0
0
0
0
0
0
0
0
0
0
0
0
0
0
0
0
0
0
0
1
1
1
1
1
1
1
1
1
1
1
1
1
1
1
1
1
1
1
1
1
1
1
1
1
1
1
1
1
1
1
1
1
1
1
1
1
1
1
1
1
1
1
1
1
1
1
1
1
1
1
1
1
1
1
1
1
1
1
1
1
1
1
1
1
1
1
1
1
1
1
1
1
1
1
1
1
1
1
1
1
1
1
1
1
1
1
1
1
1
1
1
1
1
1
1
1
1
1
1
1
1
1
1
1
1
1
1
1
1
1
1
1
1
1
1
1
1
1
1
1
1
1
1
1
1
1
1
1
1
1
1
1
1
1
1
1
1
1
1
1
1
1
1
1
1
1
1
1
1
1
1
1
1
1
1
1
1
1
1
1
1
1
1
1
1
1
1
1
1
1
1
1
1
1
1
1
1
1
1
1
1
1
1
1
1
1
1
1
1
1
1
1
1
1
1
1
1
1
1
1
1
1
1
1
1
1
1
1
1
1
1
1
1
1
1
1
1
1
1
1
1
1
1
1
1
1
1
1
1
1
1
1
1
1
1
1
1
1
1
1
1
1
1
1
1
1
1
1
1
1
1
1
1
1
1
1
1
1
1
1
1
1
1
1
1
1
1
1
1
1
1
1
1
1
1
1
1
1
1
1
1
1
1
1
1
1
1
1
1
1
1
1
1
1
1
1
1
1
1
1
1
1
1
1
1
1
1
1
1
1
1
1
1
1
1
1
1
1
1
1
1
1
1
1
1
1
1
1
1
1
1
1
1
1
1
1
1
1
1
1
1
1
1
1
1
1
1
1
1
1
1
1
1
1
1
1
1
1
1
1
1
1
1
1
1
1
1
1
1
1
1
1
1
1
1
1
1
1
1
1
1
1
1
1
1
1
1
1
1
1
1
1
1
1
1
1
1
1
1
1
1
1
1
1
1
1
1
1
1
1
1
1
1
1
1
1
1
1
1
1
1
1
1
1
1
1
1
1
1
1
1
1
1
1
1
1
1
1
1
1
1
1
1
1
1
1
1
1
1
1
1
1
1
1
1
SCALARS rho float 1
LOOKUP_TABLE default
1000.1503660124021
1020.790983594404
1002.3562173797015
993.75713686777272
1001.182598931242
987.8416057797225
1004.0308519352237
986.65117623728827
1008.848467059596
985.11553315031233
1010.6837153836598
986.29198186598671
1012.5484574855244
987.85255958237644
1001.6295747804327
1000.1863456321478
1022.2044678431603
1008.002238376659
995.7008813400746
1002.2828855426313
993.95119183534189
999.2811500346105
995.41974993042265
999.34981526940055
992.63159037266848
1001.3020676583334
993.44368570940674
994.77497741553736
998.70633302444514
994.01438692771319
992.69800761944191
1000.3777681521265
1001.9145472872356
996.39670449592711
994.43030990360558
991.25707287505759
999.73205510075582
992.7465766274197
995.00083253754337
993.51665389589823
997.89406927340588
992.14308264246404
999.56835956692885
996.71691979764933
992.59848087222974
997.61802337270399
1004.4714714214613
1004.4316019844281
1000.7750158963042
998.79373443687973
996.48842351405403
1007.2498605410366
992.27415604122086
997.80684768722267
997.63205588089261
995.26654668427602
996.00725371122257
994.71187335717013
996.64095388725434
986.88259436598184
1007.321260420145
990.09108988078549
1000.5348235394908
990.79407451826785
1003.6274362854575
995.71800850372756
1005.0102014994349
985.45302583974058
994.87049776973083
994.04135133792147
990.01523761192584
992.57426308695176
991.52965830780647
990.93850469480719
994.91285762452685
994.41395359047817
998.64750411348234
983.34484345670921
1013.3214716264135
990.69519335080599
999.56724789274574
991.85781478998729
1002.5186547938847
992.75246983647196
1004.8528882278845
990.04549723811726
1003.1486189605107
990.66724722584229
1001.0163789374651
990.22852180218217
998.79074976780805
984.35751365992871
998.03722755459091
991.95448471394639
996.0397041921766
993.7460346551685
1008.0663768607521
1002.7467508925887
1001.5610954395569
995.188597916248
998.0095220621796
989.72018992268295
996.84306932966774
986.79206651198797
993.36627085147688
988.03614981553062
992.16580393468075
993.00095946957163
994.98251742994989
992.34900202170343
1002.9130368835303
994.53122188089822
1003.9566652804539
990.12598969113321
1007.1338035867715
988.52828932852128
1006.8041525992486
988.87843134569994
1004.1728055947802
987.88004500596207
1003.6602546997393
984.84719037323691
1001.8188923655581
979.44984914224119
998.02618927090759
981.91953894726191
993.00851616000409
999.98870213763678
1012.1370879349944
1002.3975644932784
1006.4914546240627
996.61759111997617
1003.0974393474759
989.4861644820146
1000.4986109123281
985.80557331772025
995.34333176597545
985.28635758918256
991.98933716285092
988.98240333904675
994.56739606679787
994.10518389707795
1001.5274771661974
978.17452063023711
1010.3838898717623
993.32506642949613
1007.8317378857085
990.90176146220426
1006.2712711038276
989.50947979812827
1004.2287530037064
986.48081269005752
1003.1569069698457
982.10320465792756
1001.0840007317047
977.20402643921443
996.55622798922252
971.97158375225922
998.17150060327185
973.29806798463733
1014.9686151067157
1000.4509117950278
1010.7171950278153
995.60696044056147
1006.6631051482767
989.56719835859815
1002.9335806563398
985.26980475287803
997.77011636778104
982.66328539220297
993.867630653285
982.99556166336163
994.5108135562358
991.19087369539341
999.37449381159081
955.8164501303479
1014.8884089442977
996.57785526413647
1009.2920066499248
993.51252265439928
1006.5993181879692
990.0386593595648
1004.1550352616812
985.68924547341896
1001.5760095984203
981.12274715100682
998.28511237843077
977.03362408422015
995.97282999432014
968.04819439795983
1001.769673745059
936.38911574740496
1016.3227990530336
998.61941474912055
1011.2350161772097
994.83242119874978
1007.3563505475853
989.95204478497874
1004.0292641980542
985.2286992849331
999.93127237000431
981.14007333664051
995.84506137570429
978.99847456883879
994.03935797693589
979.50429656516087
999.09181476707579
931.8895530977934
1016.3003589761848
998.61496642052907
1011.2305366013543
994.82472726875983
1007.3244932166516
989.90819400319117
1003.9768017048393
985.17221300411029
999.87906335969694
981.09132396641758
995.8094976482746
978.97217884974702
994.03813664350309
979.489291931465
999.10561188524048
931.87409308016345
1014.8595544238067
996.55657049142474
1009.2684999713141
993.49209182582172
1006.6160864913624
990.05646830528178
1004.2015733249999
985.72866775026102
1001.6246553526956
981.16216654039874
998.3194643172817
977.05412386190756
995.98000381012957
968.04656854942641
1001.7663262074157
936.39926430582113
1014.8976889581839
1000.4373366994361
1010.6870910303818
995.56968031826784
1006.6098989651084
989.4932376829297
1002.8546566686052
985.19012213786971
997.69977569640014
982.60291041609332
993.82357548551227
982.96217412525414
994.50360956510383
991.18554286037897
999.38256381388294
955.80833048138777
1010.2971209404952
993.25895783308385
1007.7731148135872
990.85417104024611
1006.2755583159795
989.50604579382207
1004.2887082413232
986.5060123497999
1003.2198191290099
982.13340490302824
1001.1233679651858
977.22326196590609
996.56689307683257
971.95936204316172
998.17365896935371
973.29364143985219
1012.0208322177166
1002.3823138029786
1006.4431548084965
996.54597215067065
1003.0096084668069
989.3742678708312
1000.3750894993294
985.70825712928161
995.23288681497752
985.22545278334769
991.92142637662164
988.94918606001011
994.54489279082759
994.10613791678895
1001.5204414823776
978.17493219636663
1003.8035672801041
990.01140052742676
1007.0150440601348
988.46238707008672
1006.7968933201195
988.88431771347518
1004.2374105392129
987.90869352935704
1003.7387100677012
984.87004647707363
1001.868051365075
979.4735157254654
998.03443933020719
981.91635736016974
992.99321658522126
1000.0033902710474
1007.9004102265976
1002.7451981195254
1001.5028489889991
995.07594507352405
997.86143771394825
989.56116024607797
996.67701768473898
986.68677897211637
993.20184764152862
988.00545088879903
992.0566435971989
992.98473203243861
994.92499244210546
992.4079299579397
1002.8370654851176
994.57500039974684
999.377190564226
991.68927617262682
1002.3194049550661
992.70497426692259
1004.8464165649327
990.10382884866431
1003.16970964738
990.73732183489301
1001.0636189246966
990.27128511462251
998.83526427787001
984.39975846890923
998.05340933490379
991.92478624453247
996.05322863776178
993.81171011446816
1003.3804085766775
995.70402813721705
1005.010688182765
985.25658205088268
994.66317509260966
993.89412285633853
989.80315625677656
992.51624570311117
991.33068693818086
990.94149139487763
994.78010375201484
994.40768283153307
998.58268267675294
983.38478098742382
1013.22904624207
990.69907258547244
1000.4869584933571
998.69261617175323
996.04595376662405
1007.2203796183767
992.19651052430117
997.94930234607421
997.54757476107307
995.40497828572927
995.96435712733478
994.7820571310798
996.65580046151274
986.96288869909154
1007.3671314126732
990.15191750767224
1000.5953011385758
990.82515193912502
1001.7337296447058
996.41514021088835
994.49398960506164
990.79123375250367
999.68477371392146
992.51679922517371
994.92870587984874
993.40523397272216
997.80862770716919
992.16025738394137
999.46302869798467
996.67801722135198
992.48705522704029
997.69840307712695
1004.4526587096159
1004.4978739484559
1021.8682317456479
1007.6103667177694
995.75937858312773
1002.1909924101401
994.03772607980807
999.21201469894049
995.39013472932891
999.43037164743305
992.53012272867079
1001.4297344174981
993.24930650677493
995.03183237830297
998.76973978578826
993.93605668402461
992.63875454446918
1000.4048401648706
1000.1502884180425
1020.4539986284029
1002.2290379034336
993.46977185232538
1001.0234337717819
987.79676351177602
1003.9353376020296
986.66489336530515
1008.8360833097535
985.14231825335992
1010.8039201692279
986.19665640563255
1012.1807667965629
988.1747187947783
1001.6033832196538
1000.1712016301462
1000
1000
1000
1000
1000
1000
1000
1000
1000
1000
1000
1000
1000
1000
1000
1000
1000
1000
1000
1000
1000
1000
1000
1000
1000
1000
1000
1000
1000
1000
1000
1000
1000
1000
1000
1000
1000
1000
1000
1000
1000
1000
1000
1000
1000
1000
1000
1000
1000
1000
1000
1000
1000
1000
1000
1000
1000
1000
1000
1000
1000
1000
1000
1000
1000
1000
1000
1000
1000
1000
1000
1000
1000
1000
1000
1000
1000
1000
1000
1000
1000
1000
1000
1000
1000
1000
1000
1000
1000
1000
1000
1000
1000
1000
1000
1000
1000
1000
1000
1000
1000
1000
1000
1000
1000
1000
1000
1000
1000
1000
1000
1000
1000
1000
1000
1000
1000
1000
1000
1000
1000
1000
1000
1000
1000
1000
1000
1000
1000
1000
1000
1000
1000
1000
1000
1000
1000
1000
1000
1000
1000
1000
1000
1000
1000
1000
1000
1000
1000
1000
1000
1000
1000
1000
1000
1000
1000
1000
1000
1000
1000
1000
1000
1000
1000
1000
1000
1000
1000
1000
1000
1000
1000
1000
1000
1000
1000
1000
1000
1000
1000
1000
1000
1000
1000
1000
1000
1000
1000
1000
1000
1000
1000
1000
1000
1000
1000
1000
1000
1000
1000
1000
1000
1000
1000
1000
1000
1000
1000
1000
1000
1000
1000
1000
1000
1000
1000
1000
1000
1000
1000
1000
1000
1000
1000
1000
1000
1000
1000
1000
1000
1000
1000
1000
1000
1000
1000
1000
1000
1000
1000
1000
1000
1000
1000
1000
1000
1000
1000
1000
1000
1000
1000
1000
1000
1000
1000
1000
1000
1000
1000
1000
1000
1000
1000
1000
1000
1000
1000
1000
1000
1000
1000
1000
1000
1000
1000
1000
1000
1000
1000
1000
1000
1000
1000
1000
1000
1000
1000
1000
1000
1000
1000
1000
1000
1000
1000
1000
1000
1000
1000
1000
1000
1000
1000
1000
1000
1000
1000
1000
1000
1000
1000
1000
1000
1000
1000
1000
1000
1000
1000
1000
1000
1000
1000
1000
1000
1000
1000
1000
1000
1000
1000
1000
1000
1000
1000
1000
1000
1000
1000
1000
1000
1000
1000
1000
1000
1000
1000
1000
1000
1000
1000
1000
1000
1000
1000
1000
1000
1000
1000
1000
1000
1000
1000
1000
1000
1000
1000
1000
1000
1000
1000
1000
1000
1000
1000
1000
1000
1000
1000
1000
1000
1000
1000
1000
1000
1000
1000
1000
1000
1000
1000
1000
1000
1000
1000
1000
1000
1000
1000
1000
1000
1000
1000
1000
1000
1000
1000
1000
1000
1000
1000
1000
1000
1000
1000
1000
1000
1000
1000
1000
1000
1000
1000
1000
1000
1000
1000
1000
1000
1000
1000
1000
1000
1000
1000
1000
1000
1000
1000
1000
1000
1000
1000
1000
1000
1000
1000
1000
1000
1000
1000
1000
1000
1000
SCALARS p float 1
LOOKUP_TABLE default
42282.785484216372
980572.50508324837
22438.514994309338
-202066.34779184408
36865.828829074286
-205948.86395454031
39583.017183727767
-205948.86395454031
98849.548957758525
-205948.86395454031
186817.20431134323
-205948.86395454031
294126.72490239888
-205948.86395454031
90551.671557584414
126548.72015912319
1029744.3197727015
299709.68458308536
-66958.390451481522
-89973.850082386823
-205948.86395454031
-205948.86395454031
-205948.86395454031
-195797.70234564677
-205948.86395454031
5667.32097787165
-205948.86395454031
-143931.95761664066
-102128.80898900243
-205948.86395454031
-203886.22670364444
-137426.38080920881
17971.584925068295
-48883.851212940805
-205948.86395454031
-205948.86395454031
-97347.644449273459
-173890.30505276332
-106385.38399145224
-166558.4085489306
-62670.291865349383
-168455.16233394749
-42521.976329049954
-53293.989391262468
-121040.46850256869
-174356.79906085064
164709.03317774687
243345.5823330493
-41085.658328028228
-89570.850464118645
-205948.86395454031
98345.047888614063
-205948.86395454031
-179376.66975975694
-124459.95545468875
-205948.86395454031
-144553.81982195645
-154340.19574336332
-118768.26164608427
-205948.86395454031
160881.65359593529
-191505.90292766155
101477.18917252384
-205948.86395454031
123013.87320603586
-205948.86395454031
29930.613737896121
-205948.86395454031
-205948.86395454031
-205948.86395454031
-205948.86395454031
-205948.86395454031
-205948.86395454031
-205948.86395454031
-138077.31244836861
-75678.174312306379
-43874.272154213824
-205948.86395454031
426970.51281672425
-205948.86395454031
-90990.124438160739
-205948.86395454031
75359.211819162156
-205948.86395454031
33494.602711139327
-205948.86395454031
-19903.55488192982
-205948.86395454031
-27223.723359361578
-205948.86395454031
-45460.163292505182
-205948.86395454031
-57182.974339302666
-54204.542849602498
-43048.283876018708
-205948.86395454031
249504.7583241851
91921.758456920274
113614.90794420079
-140513.50370959844
-11506.152219289717
-205948.86395454031
-70741.297295359196
-205948.86395454031
-165546.91100454144
-205948.86395454031
-205948.86395454031
-61465.491311618374
-130786.25122029058
-129989.62644690239
89886.077305699437
-205948.86395454031
136673.32298762983
-205948.86395454031
193390.68399283895
-205948.86395454031
141829.5795213175
-205948.86395454031
72812.200373035055
-205948.86395454031
59495.777150116046
-205948.86395454031
9955.8752488476202
-205948.86395454031
-205948.86395454031
-205948.86395454031
-205948.86395454031
-205948.86395454031
337851.46034792502
107366.83299891588
299590.41916660964
-35185.312934819638
162338.73626274327
-205948.86395454031
55987.626824431871
-205948.86395454031
-80424.936136731194
-205948.86395454031
-205948.86395454031
-63316.383515077578
-205948.86395454031
883.61285932497049
-205948.86395454031
-205948.86395454031
377044.81022147223
-110649.41503204103
276280.04391640116
-170185.40246939319
192398.35331302002
-205948.86395454031
117605.65185667151
-205948.86395454031
84840.255861672078
-205948.86395454031
-1697.2243053955951
-205948.86395454031
-205948.86395454031
-205948.86395454031
-205948.86395454031
-205948.86395454031
432625.07065961848
117085.00850667201
388851.34921927995
-32576.25555863342
240075.50608185813
-205948.86395454031
124917.04549452529
-205948.86395454031
-2628.5098408805557
-205948.86395454031
-175091.34993417462
-139617.40442427312
-205948.86395454031
16711.914460599852
-205948.86395454031
-205948.86395454031
496272.61674267065
54368.062153025516
344764.41849588044
-76168.898853763938
233262.0988896999
-205948.86395454031
147619.08162234293
-205948.86395454031
80614.421543934615
-205948.86395454031
-57623.193001351232
-205948.86395454031
-205948.86395454031
-152645.0092144029
-205948.86395454031
-205948.86395454031
502229.58152170404
108911.21859479116
394133.6616652364
-39667.085201867732
254030.5688704254
-205948.86395454031
150738.80096225496
-205948.86395454031
53090.790210465821
-205948.86395454031
-107970.0107183256
-203597.16593573443
-205948.86395454031
-97458.811461613543
-205948.86395454031
-205948.86395454031
501631.51009548147
108599.75998395725
393659.79888747266
-40128.064760756097
253250.54427711503
-205948.86395454031
149779.45099207916
-205948.86395454031
52244.621015819044
-205948.86395454031
-108533.26785939152
-204005.98488707858
-205948.86395454031
-97716.5439316337
-205948.86395454031
-205948.86395454031
495614.45654067077
54312.218402159458
344486.03699340462
-76318.3061814135
233648.00543785939
-205948.86395454031
148333.99303802161
-205948.86395454031
81310.009225019821
-205948.86395454031
-57152.334911965125
-205948.86395454031
-205948.86395454031
-152771.58021380316
-205948.86395454031
-205948.86395454031
430639.05418384401
116386.37050362978
387784.57972762414
-33419.510070360971
238751.98246523552
-205948.86395454031
123495.24186435193
-205948.86395454031
-3834.3099686245273
-205948.86395454031
-175842.73621764992
-140149.56059654462
-205948.86395454031
16463.09774321123
-205948.86395454031
-205948.86395454031
375165.3731356209
-111867.64279235661
275129.86327381287
-170917.43279385357
192401.69484072927
-205948.86395454031
118261.72332270061
-205948.86395454031
85590.440205928389
-205948.86395454031
-1171.7704346006278
-205948.86395454031
-205948.86395454031
-205948.86395454031
-205948.86395454031
-205948.86395454031
334340.73125394812
106431.07863295219
297987.40303453943
-36188.415064303881
160274.54459308548
-205948.86395454031
53709.620258961964
-205948.86395454031
-82322.577740473818
-205948.86395454031
-205948.86395454031
-63826.807679799589
-205948.86395454031
676.34717112679755
-205948.86395454031
-205948.86395454031
133580.31841291589
-205948.86395454031
190699.29089806238
-205948.86395454031
140909.21088993907
-205948.86395454031
73530.898590660974
-205948.86395454031
60578.230306678022
-205948.86395454031
10768.266252844311
-205948.86395454031
-205948.86395454031
-205948.86395454031
-205948.86395454031
-205948.86395454031
244590.30352031146
90249.71659570084
112423.73410006204
-143664.85398917049
-16403.893016430389
-205948.86395454031
-73453.456343749131
-205948.86395454031
-168287.18486765379
-205948.86395454031
-205948.86395454031
-61751.41031508179
-131681.00546309704
-129479.59169392964
88564.090214275348
-205948.86395454031
-94899.874963919894
-205948.86395454031
70524.090463369808
-205948.86395454031
31545.790150214947
-205948.86395454031
-20363.07663105895
-205948.86395454031
-26832.509952953937
-205948.86395454031
-44480.150304775125
-205948.86395454031
-56993.33434017223
-55005.191252520497
-43323.028930968205
-205948.86395454031
116895.94760021403
-205948.86395454031
28873.016706113078
-205948.86395454031
-205948.86395454031
-205948.86395454031
-205948.86395454031
-205948.86395454031
-205948.86395454031
-205948.86395454031
-140396.29491883196
-75755.700825917345
-45304.104426635233
-205948.86395454031
424512.87759160262
-205948.86395454031
-47110.639117816732
-94359.887919047353
-205948.86395454031
93479.116317275402
-205948.86395454031
-176446.99614795792
-125963.34969899662
-205948.86395454031
-144988.97628099137
-153500.4849471412
-118219.12910970209
-205948.86395454031
161601.62885057885
-190489.46779769537
100286.36614525608
-205948.86395454031
13012.549677950348
-49620.716185069039
-205948.86395454031
-205948.86395454031
-100060.44683228561
-181466.4402879565
-110451.72384139385
-171125.21788432894
-64753.784051258917
-170666.46377672121
-45026.214552449201
-53622.887845063466
-124115.50430610977
-174699.40878728608
164507.38095730531
244148.82234583271
1014894.2071742382
293036.98612974945
-66587.17946231534
-94926.25798738614
-205948.86395454031
-205948.86395454031
-205948.86395454031
-191420.07784070933
-205948.86395454031
8113.1383898437325
-205948.86395454031
-138387.36732552186
-98853.067736567536
-205948.86395454031
-204676.65212484388
-136883.16998659444
42282.414582677207
965459.54772439983
17051.891679865315
-205948.86395454031
32210.941525692528
-205948.86395454031
37249.6190481132
-205948.86395454031
98883.876453868725
-205948.86395454031
190489.23989482279
-205948.86395454031
287937.1652826466
-205948.86395454031
87185.507557390709
124665.43327165463
0
0
0
0
0
0
0
0
0
0
0
0
0
0
0
0
0
0
0
0
0
0
0
0
0
0
0
0
0
0
0
0
0
0
0
0
0
0
0
0
0
0
0
0
0
0
0
0
0
0
0
0
0
0
0
0
0
0
0
0
0
0
0
0
0
0
0
0
0
0
0
0
0
0
0
0
0
0
0
0
0
0
0
0
0
0
0
0
0
0
0
0
0
0
0
0
0
0
0
0
0
0
0
0
0
0
0
0
0
0
0
0
0
0
0
0
0
0
0
0
0
0
0
0
0
0
0
0
0
0
0
0
0
0
0
0
0
0
0
0
0
0
0
0
0
0
0
0
0
0
0
0
0
0
0
0
0
0
0
0
0
0
0
0
0
0
0
0
0
0
0
0
0
0
0
0
0
0
0
0
0
0
0
0
0
0
0
0
0
0
0
0
0
0
0
0
0
0
0
0
0
0
0
0
0
0
0
0
0
0
0
0
0
0
0
0
0
0
0
0
0
0
0
0
0
0
0
0
0
0
0
0
0
0
0
0
0
0
0
0
0
0
0
0
0
0
0
0
0
0
0
0
0
0
0
0
0
0
0
0
0
0
0
0
0
0
0
0
0
0
0
0
0
0
0
0
0
0
0
0
0
0
0
0
0
0
0
0
0
0
0
0
0
0
0
0
0
0
0
0
0
0
0
0
0
0
0
0
0
0
0
0
0
0
0
0
0
0
0
0
0
0
0
0
0
0
0
0
0
0
0
0
0
0
0
0
0
0
0
0
0
0
0
0
0
0
0
0
0
0
0
0
0
0
0
0
0
0
0
0
0
0
0
0
0
0
0
0
0
0
0
0
0
0
0
0
0
0
0
0
0
0
0
0
0
0
0
0
0
0
0
0
0
0
0
0
0
0
0
0
0
0
0
0
0
0
0
0
0
0
0
0
0
0
0
0
0
0
0
0
0
0
0
0
0
0
0
0
0
0
0
0
0
0
0
0
0
0
0
0
0
0
0
0
0
0
0
0
0
0
0
0
0
0
0
0
SCALARS m float 1
LOOKUP_TABLE default
0.40000000000000002
0.40000000000000002
0.40000000000000002
0.40000000000000002
0.40000000000000002
0.40000000000000002
0.40000000000000002
0.40000000000000002
0.40000000000000002
0.40000000000000002
0.40000000000000002
0.40000000000000002
0.40000000000000002
0.40000000000000002
0.40000000000000002
0.40000000000000002
0.40000000000000002
0.40000000000000002
0.40000000000000002
0.40000000000000002
0.40000000000000002
0.40000000000000002
0.40000000000000002
0.40000000000000002
0.40000000000000002
0.40000000000000002
0.40000000000000002
0.40000000000000002
0.40000000000000002
0.40000000000000002
0.40000000000000002
0.40000000000000002
0.40000000000000002
0.40000000000000002
0.40000000000000002
0.40000000000000002
0.40000000000000002
0.40000000000000002
0.40000000000000002
0.40000000000000002
0.40000000000000002
0.40000000000000002
0.40000000000000002
0.40000000000000002
0.40000000000000002
0.40000000000000002
0.40000000000000002
0.40000000000000002
0.40000000000000002
0.40000000000000002
0.40000000000000002
0.40000000000000002
0.40000000000000002
0.40000000000000002
0.40000000000000002
0.40000000000000002
0.40000000000000002
0.40000000000000002
0.40000000000000002
0.40000000000000002
0.40000000000000002
0.40000000000000002
0.40000000000000002
0.40000000000000002
0.40000000000000002
0.40000000000000002
0.40000000000000002
0.40000000000000002
0.40000000000000002
0.40000000000000002
0.40000000000000002
0.40000000000000002
0.40000000000000002
0.40000000000000002
0.40000000000000002
0.40000000000000002
0.40000000000000002
0.40000000000000002
0.40000000000000002
0.40000000000000002
0.40000000000000002
0.40000000000000002
0.40000000000000002
0.40000000000000002
0.40000000000000002
0.40000000000000002
0.40000000000000002
0.40000000000000002
0.40000000000000002
0.40000000000000002
0.40000000000000002
0.40000000000000002
0.40000000000000002
0.40000000000000002
0.40000000000000002
0.40000000000000002
0.40000000000000002
0.40000000000000002
0.40000000000000002
0.40000000000000002
0.40000000000000002
0.40000000000000002
0.40000000000000002
0.40000000000000002
0.40000000000000002
0.40000000000000002
0.40000000000000002
0.40000000000000002
0.40000000000000002
0.40000000000000002
0.40000000000000002
0.40000000000000002
0.40000000000000002
0.40000000000000002
0.40000000000000002
0.40000000000000002
0.40000000000000002
0.40000000000000002
0.40000000000000002
0.40000000000000002
0.40000000000000002
0.40000000000000002
0.40000000000000002
0.40000000000000002
0.40000000000000002
0.40000000000000002
0.40000000000000002
0.40000000000000002
0.40000000000000002
0.40000000000000002
0.40000000000000002
0.40000000000000002
0.40000000000000002
0.40000000000000002
0.40000000000000002
0.40000000000000002
0.40000000000000002
0.40000000000000002
0.40000000000000002
0.40000000000000002
0.40000000000000002
0.40000000000000002
0.40000000000000002
0.40000000000000002
0.40000000000000002
0.40000000000000002
0.40000000000000002
0.40000000000000002
0.40000000000000002
0.40000000000000002
0.40000000000000002
0.40000000000000002
0.40000000000000002
0.40000000000000002
0.40000000000000002
0.40000000000000002
0.40000000000000002
0.40000000000000002
0.40000000000000002
0.40000000000000002
0.40000000000000002
0.40000000000000002
0.40000000000000002
0.40000000000000002
0.40000000000000002
0.40000000000000002
0.40000000000000002
0.40000000000000002
0.40000000000000002
0.40000000000000002
0.40000000000000002
0.40000000000000002
0.40000000000000002
0.40000000000000002
0.40000000000000002
0.40000000000000002
0.40000000000000002
0.40000000000000002
0.40000000000000002
0.40000000000000002
0.40000000000000002
0.40000000000000002
0.40000000000000002
0.40000000000000002
0.40000000000000002
0.40000000000000002
0.40000000000000002
0.40000000000000002
0.40000000000000002
0.40000000000000002
0.40000000000000002
0.40000000000000002
0.40000000000000002
0.40000000000000002
0.40000000000000002
0.40000000000000002
0.40000000000000002
0.40000000000000002
0.40000000000000002
0.40000000000000002
0.40000000000000002
0.40000000000000002
0.40000000000000002
0.40000000000000002
0.40000000000000002
0.40000000000000002
0.40000000000000002
0.40000000000000002
0.40000000000000002
0.40000000000000002
0.40000000000000002
0.40000000000000002
0.40000000000000002
0.40000000000000002
0.40000000000000002
0.40000000000000002
0.40000000000000002
0.40000000000000002
0.40000000000000002
0.40000000000000002
0.40000000000000002
0.40000000000000002
0.40000000000000002
0.40000000000000002
0.40000000000000002
0.40000000000000002
0.40000000000000002
0.40000000000000002
0.40000000000000002
0.40000000000000002
0.40000000000000002
0.40000000000000002
0.40000000000000002
0.40000000000000002
0.40000000000000002
0.40000000000000002
0.40000000000000002
0.40000000000000002
0.40000000000000002
0.40000000000000002
0.40000000000000002
0.40000000000000002
0.40000000000000002
0.40000000000000002
0.40000000000000002
0.40000000000000002
0.40000000000000002
0.40000000000000002
0.40000000000000002
0.40000000000000002
0.40000000000000002
0.40000000000000002
0.40000000000000002
0.40000000000000002
0.40000000000000002
0.40000000000000002
0.40000000000000002
0.40000000000000002
0.40000000000000002
0.40000000000000002
0.40000000000000002
0.40000000000000002
0.40000000000000002
0.40000000000000002
0.40000000000000002
0.40000000000000002
0.40000000000000002
0.40000000000000002
0.40000000000000002
0.40000000000000002
0.40000000000000002
0.40000000000000002
0.40000000000000002
0.40000000000000002
0.40000000000000002
0.40000000000000002
0.40000000000000002
0.40000000000000002
0.40000000000000002
0.40000000000000002
0.40000000000000002
0.40000000000000002
0.40000000000000002
0.40000000000000002
0.40000000000000002
0.40000000000000002
0.40000000000000002
0.40000000000000002
0.40000000000000002
0.40000000000000002
0.40000000000000002
0.40000000000000002
0.40000000000000002
0.40000000000000002
0.40000000000000002
0.40000000000000002
0.40000000000000002
0.40000000000000002
0.40000000000000002
0.40000000000000002
0.40000000000000002
0.40000000000000002
0.40000000000000002
0.40000000000000002
0.40000000000000002
0.40000000000000002
0.40000000000000002
0.40000000000000002
0.40000000000000002
0.40000000000000002
0.40000000000000002
0.40000000000000002
0.40000000000000002
0.40000000000000002
0.40000000000000002
0.40000000000000002
0.40000000000000002
0.40000000000000002
0.40000000000000002
0.40000000000000002
0.40000000000000002
0.40000000000000002
0.40000000000000002
0.40000000000000002
0.40000000000000002
0.40000000000000002
0.40000000000000002
0.40000000000000002
0.40000000000000002
0.40000000000000002
0.40000000000000002
0.40000000000000002
0.40000000000000002
0.40000000000000002
0.40000000000000002
0.40000000000000002
0.40000000000000002
0.40000000000000002
0.40000000000000002
0.40000000000000002
0.40000000000000002
0.40000000000000002
0.40000000000000002
0.40000000000000002
0.40000000000000002
0.40000000000000002
0.40000000000000002
0.40000000000000002
0.40000000000000002
0.40000000000000002
0.40000000000000002
0.40000000000000002
0.40000000000000002
0.40000000000000002
0.40000000000000002
0.40000000000000002
0.40000000000000002
0.40000000000000002
0.40000000000000002
0.40000000000000002
0.40000000000000002
0.40000000000000002
0.40000000000000002
0.40000000000000002
0.40000000000000002
0.40000000000000002
0.40000000000000002
0.40000000000000002
0.40000000000000002
0.40000000000000002
0.40000000000000002
0.40000000000000002
0.40000000000000002
0.40000000000000002
0.40000000000000002
0.40000000000000002
0.40000000000000002
0.40000000000000002
0.40000000000000002
0.40000000000000002
0.40000000000000002
0.40000000000000002
0.40000000000000002
0.40000000000000002
0.40000000000000002
0.40000000000000002
0.40000000000000002
0.40000000000000002
0.40000000000000002
0.40000000000000002
0.40000000000000002
0.40000000000000002
0.40000000000000002
0.40000000000000002
0.40000000000000002
0.40000000000000002
0.40000000000000002
0.40000000000000002
0.40000000000000002
0.40000000000000002
0.40000000000000002
0.40000000000000002
0.40000000000000002
0.40000000000000002
0.40000000000000002
0.40000000000000002
0.40000000000000002
0.40000000000000002
0.40000000000000002
0.40000000000000002
0.40000000000000002
0.40000000000000002
0.40000000000000002
0.40000000000000002
0.40000000000000002
0.40000000000000002
0.40000000000000002
0.40000000000000002
0.40000000000000002
0.40000000000000002
0.40000000000000002
0.40000000000000002
0.40000000000000002
0.40000000000000002
0.40000000000000002
0.40000000000000002
0.40000000000000002
0.40000000000000002
0.40000000000000002
0.40000000000000002
0.40000000000000002
0.40000000000000002
0.40000000000000002
0.40000000000000002
0.40000000000000002
0.40000000000000002
0.40000000000000002
0.40000000000000002
0.40000000000000002
0.40000000000000002
0.40000000000000002
0.40000000000000002
0.40000000000000002
0.40000000000000002
0.40000000000000002
0.40000000000000002
0.40000000000000002
0.40000000000000002
0.40000000000000002
0.40000000000000002
0.40000000000000002
0.40000000000000002
0.40000000000000002
0.40000000000000002
0.40000000000000002
0.40000000000000002
0.40000000000000002
0.40000000000000002
0.40000000000000002
0.40000000000000002
0.40000000000000002
0.40000000000000002
0.40000000000000002
0.40000000000000002
0.40000000000000002
0.40000000000000002
0.40000000000000002
0.40000000000000002
0.40000000000000002
0.40000000000000002
0.40000000000000002
0.40000000000000002
0.40000000000000002
0.40000000000000002
0.40000000000000002
0.40000000000000002
0.40000000000000002
0.40000000000000002
0.40000000000000002
0.40000000000000002
0.40000000000000002
0.40000000000000002
0.40000000000000002
0.40000000000000002
0.40000000000000002
0.40000000000000002
0.40000000000000002
0.40000000000000002
0.40000000000000002
0.40000000000000002
0.40000000000000002
0.40000000000000002
0.40000000000000002
0.40000000000000002
0.40000000000000002
0.40000000000000002
0.40000000000000002
0.40000000000000002
0.40000000000000002
0.40000000000000002
0.40000000000000002
0.40000000000000002
0.40000000000000002
0.40000000000000002
0.40000000000000002
0.40000000000000002
0.40000000000000002
0.40000000000000002
0.40000000000000002
0.40000000000000002
0.40000000000000002
0.40000000000000002
0.40000000000000002
0.40000000000000002
0.40000000000000002
0.40000000000000002
0.40000000000000002
0.40000000000000002
0.40000000000000002
0.40000000000000002
0.40000000000000002
0.40000000000000002
0.40000000000000002
0.40000000000000002
0.40000000000000002
0.40000000000000002
0.40000000000000002
0.40000000000000002
0.40000000000000002
0.40000000000000002
0.40000000000000002
0.40000000000000002
0.40000000000000002
0.40000000000000002
0.40000000000000002
0.40000000000000002
0.40000000000000002
0.40000000000000002
0.40000000000000002
0.40000000000000002
0.40000000000000002
0.40000000000000002
0.40000000000000002
0.40000000000000002
0.40000000000000002
0.40000000000000002
0.40000000000000002
0.40000000000000002
0.40000000000000002
0.40000000000000002
0.40000000000000002
0.40000000000000002
0.40000000000000002
0.40000000000000002
0.40000000000000002
0.40000000000000002
0.40000000000000002
0.40000000000000002
0.40000000000000002
0.40000000000000002
0.40000000000000002
0.40000000000000002
0.40000000000000002
0.40000000000000002
0.40000000000000002
0.40000000000000002
0.40000000000000002
0.40000000000000002
0.40000000000000002
0.40000000000000002
0.40000000000000002
0.40000000000000002
0.40000000000000002
0.40000000000000002
0.40000000000000002
0.40000000000000002
0.40000000000000002
0.40000000000000002
0.40000000000000002
0.40000000000000002
0.40000000000000002
0.40000000000000002
0.40000000000000002
0.40000000000000002
0.40000000000000002
0.40000000000000002
0.40000000000000002
0.40000000000000002
0.40000000000000002
0.40000000000000002
0.40000000000000002
0.40000000000000002
0.40000000000000002
0.40000000000000002
0.40000000000000002
0.40000000000000002
0.40000000000000002
0.40000000000000002
0.40000000000000002
0.40000000000000002
0.40000000000000002
0.40000000000000002
0.40000000000000002
0.40000000000000002
0.40000000000000002
0.40000000000000002
0.40000000000000002
0.40000000000000002
0.40000000000000002
0.40000000000000002
0.40000000000000002
0.40000000000000002
0.40000000000000002
0.40000000000000002
0.40000000000000002
0.40000000000000002
0.40000000000000002
0.40000000000000002
0.40000000000000002
0.40000000000000002
0.40000000000000002
0.40000000000000002
0.40000000000000002
0.40000000000000002
0.40000000000000002
0.40000000000000002
0.40000000000000002
0.40000000000000002
0.40000000000000002
0.40000000000000002
0.40000000000000002
0.40000000000000002
0.40000000000000002
0.40000000000000002
0.40000000000000002
0.40000000000000002
0.40000000000000002
0.40000000000000002
0.40000000000000002
0.40000000000000002
0.40000000000000002
0.40000000000000002
0.40000000000000002
0.40000000000000002
0.40000000000000002
0.40000000000000002
0.40000000000000002
0.40000000000000002
0.40000000000000002
0.40000000000000002
0.40000000000000002
0.40000000000000002
0.40000000000000002
0.40000000000000002
0.40000000000000002
0.40000000000000002
0.40000000000000002
0.40000000000000002
0.40000000000000002
0.40000000000000002
0.40000000000000002
0.40000000000000002
0.40000000000000002
0.40000000000000002
0.40000000000000002
0.40000000000000002
0.40000000000000002
0.40000000000000002
0.40000000000000002
0.40000000000000002
0.40000000000000002
0.40000000000000002
0.40000000000000002
0.40000000000000002
0.40000000000000002
0.40000000000000002
0.40000000000000002
0.40000000000000002
0.40000000000000002
0.40000000000000002
0.40000000000000002
0.40000000000000002
0.40000000000000002
0.40000000000000002
0.40000000000000002
0.40000000000000002
0.40000000000000002
0.40000000000000002
0.40000000000000002
0.40000000000000002
0.40000000000000002
0.40000000000000002
0.40000000000000002
0.40000000000000002
0.40000000000000002
0.40000000000000002
0.40000000000000002
0.40000000000000002
0.40000000000000002
0.40000000000000002
0.40000000000000002
0.40000000000000002
0.40000000000000002
0.40000000000000002
0.40000000000000002
0.40000000000000002
0.40000000000000002
0.40000000000000002
0.40000000000000002
0.40000000000000002
0.40000000000000002
0.40000000000000002
0.40000000000000002
0.40000000000000002
0.40000000000000002
0.40000000000000002
0.40000000000000002
0.40000000000000002
0.40000000000000002
0.40000000000000002
0.40000000000000002
0.40000000000000002
0.40000000000000002
0.40000000000000002
0.40000000000000002
0.40000000000000002
0.40000000000000002
0.40000000000000002
0.40000000000000002
0.40000000000000002
0.40000000000000002
0.40000000000000002
0.40000000000000002
0.40000000000000002
0.40000000000000002
0.40000000000000002
0.40000000000000002
0.40000000000000002
0.40000000000000002
0.40000000000000002
0.40000000000000002
0.40000000000000002
0.40000000000000002
0.40000000000000002
0.40000000000000002
0.40000000000000002
0.40000000000000002
0.40000000000000002
0.40000000000000002
0.40000000000000002
0.40000000000000002
0.40000000000000002
0.40000000000000002
0.40000000000000002
0.40000000000000002
0.40000000000000002
0.40000000000000002
0.40000000000000002
0.40000000000000002
0.40000000000000002
0.40000000000000002
0.40000000000000002
0.40000000000000002
0.40000000000000002
0.40000000000000002
0.40000000000000002
0.40000000000000002
0.40000000000000002
0.40000000000000002
0.40000000000000002
0.40000000000000002
0.40000000000000002
0.40000000000000002
0.40000000000000002
0.40000000000000002
0.40000000000000002
0.40000000000000002
0.40000000000000002
0.40000000000000002
0.40000000000000002
0.40000000000000002
0.40000000000000002
0.40000000000000002
0.40000000000000002
0.40000000000000002
0.40000000000000002
0.40000000000000002
0.40000000000000002
0.40000000000000002
0.40000000000000002
0.40000000000000002
0.40000000000000002
0.40000000000000002
0.40000000000000002
0.40000000000000002
0.40000000000000002
0.40000000000000002
0.40000000000000002
0.40000000000000002
0.40000000000000002
0.40000000000000002
0.40000000000000002
0.40000000000000002
0.40000000000000002
0.40000000000000002
0.40000000000000002
0.40000000000000002
0.40000000000000002
0.40000000000000002
0.40000000000000002
0.40000000000000002
0.40000000000000002
0.40000000000000002
0.40000000000000002
0.40000000000000002
0.40000000000000002
0.40000000000000002
0.40000000000000002
0.40000000000000002
0.40000000000000002
0.40000000000000002
0.40000000000000002
0.40000000000000002
0.40000000000000002
0.40000000000000002
0.40000000000000002
0.40000000000000002
0.40000000000000002
0.40000000000000002
0.40000000000000002
0.40000000000000002
0.40000000000000002
0.40000000000000002
0.40000000000000002
0.40000000000000002
0.40000000000000002
0.40000000000000002
0.40000000000000002
0.40000000000000002
0.40000000000000002
0.40000000000000002
0.40000000000000002
0.40000000000000002
0.40000000000000002
0.40000000000000002
0.40000000000000002
0.40000000000000002
0.40000000000000002
0.40000000000000002
0.40000000000000002
0.40000000000000002
0.40000000000000002
0.40000000000000002
0.40000000000000002
0.40000000000000002
0.40000000000000002
0.40000000000000002
0.40000000000000002
0.40000000000000002
0.40000000000000002
0.40000000000000002
0.40000000000000002
0.40000000000000002
0.40000000000000002
0.40000000000000002
0.40000000000000002
0.40000000000000002
0.40000000000000002
0.40000000000000002
0.40000000000000002
0.40000000000000002
0.40000000000000002
VECTORS v float
-0.096533144895821044 -0.10116939569547417 0
10.928330140564537 0.24773782170858372 0
2.7659098884861617 -0.35072189404147147 0
6.7035963782573971 -0.32898030692390312 0
1.6966875863906372 -1.9075972525397076 0
6.8615931423389718 1.4893024684369078 0
5.5955069596291844 -0.35329756276428315 0
7.0610217011365854 2.1117798881393495 0
7.9037379836726016 0.07395626254373866 0
8.8902230287065755 2.2131241753474233 0
10.07446615693682 2.1294920555939041 0
9.8786302194789375 -2.4814119299327055 0
6.1840790020232159 0.68842090200668227 0
10.741981838538067 3.5594360690167752 0
12.843513297866108 5.7871703696973977 0
13.995364164168057 -4.2219725390433398 0
0.79920458589196919 10.051804940380585 0
7.7620782082906263 6.9624423061060066 0
1.008619560193653 1.2172283341860215 0
5.4166629113483653 3.6581651342669916 0
3.442147320796217 2.9822130776131521 0
4.8805541134979649 2.0747179923360606 0
5.8265773809794439 3.8118149718653105 0
5.0255604297229546 1.5035348918567732 0
7.5872569543179624 3.6009553598921729 0
7.0977935862222541 0.93385224672903822 0
11.042825469846058 3.0889196613689074 0
8.6810149289347667 1.9646634443848816 0
10.159330859497466 4.1225992093887083 0
13.772665980809135 4.2427317768060684 0
13.847904760285363 2.7823755041880145 0
13.000529772876952 2.8176165820788435 0
0.13639728159275133 -0.025266927110306536 0
2.4977597233930986 -0.62379495706455224 0
4.6332573926131406 2.8350483310581427 0
3.6212459698903214 -3.5304733023131143 0
6.5231759121985071 0.46842868343099459 0
5.0817964612744939 -1.1756207515909254 0
6.7971499642489492 -0.30848026594775863 0
5.7224878778997157 -0.15985641652004157 0
7.6294911889569521 0.045781738766626501 0
7.3781824342400766 0.64128515886194282 0
7.6677942836387532 1.5184443577167102 0
10.254679920331915 -1.8760409472042545 0
10.051119777257469 2.941387342481566 0
13.662774988554199 -6.5714924347527903 0
8.6817144635827042 4.2696331336141826 0
14.920934639690261 -1.128462259047665 0
-1.0532774484379104 3.5520199791303977 0
6.5700575044483323 4.4188107026003625 0
-2.3423820274558307 2.0954292858822763 0
5.2703104513481316 2.7106175169410984 0
4.7286906775912492 0.12695388387473364 0
5.8199029069266146 0.68553876856528695 0
4.8451826140367 0.40631978693625437 0
6.4472192443833531 -0.68800041136291368 0
7.1792661880183362 0.68150114522908223 0
8.0717349312407904 -0.86250666071764459 0
9.4025719207324379 -0.094361660508306106 0
10.715073663204793 0.84815016541826482 0
9.9256537073477293 -2.8919758655464802 0
12.397696980657793 7.0486957700974013 0
5.2523455666185637 -4.2682091640949951 0
10.748533560073032 7.4565083165573229 0
-2.0387439390284499 -2.0861931376024225 0
4.9800233639553229 -0.48765335113991265 0
1.0401668968530446 -0.57302431818076016 0
3.5026210063228684 -0.20849870011700244 0
5.8937060867255475 0.085596838547978782 0
4.8004234577308118 -1.4840329355652639 0
6.0610714006672799 -0.79339151536085473 0
6.7289705622922646 -0.87572602501806718 0
6.8696215379682073 -0.46074115950056765 0
8.2332528682977859 0.3873920979589332 0
6.7659207984551299 0.85548509183850807 0
9.5944912310837207 -0.78769356148596581 0
8.2517931234788779 0.9618564188177342 0
11.45349137425516 -4.166376500472591 0
10.83999507707977 1.2456556591624148 0
12.658643379694446 -7.5683867967604055 0
-1.0134478525123831 1.7932808180652877 0
3.9197983979242275 1.2462341179343424 0
-1.7168945996212499 1.2709367645393774 0
5.0719450671665189 3.7088632228272549 0
1.4956634081793283 0.51997943596131946 0
6.1248439124341028 1.8233643392359009 0
4.1396942838989697 0.085864877726013811 0
7.2156050613184268 0.56428362303479451 0
7.5422384340934272 -0.66084590504031104 0
8.8897721915708487 0.14852618071623064 0
9.8862581365820379 -1.2991160163498612 0
10.9165896517361 1.0642452187459746 0
10.156303623396589 -1.5611432929763511 0
11.284649530534681 4.9340429569335837 0
7.8900405029474143 -0.67138678870658408 0
11.871001363178038 9.3929794522298877 0
-1.9351496657607292 -1.8175453776339763 0
4.7262971723928331 -0.15243741815665723 0
0.25649531454609209 -0.9610957865063503 0
5.3507427041793818 -1.4903166538550061 0
2.8592148734206657 -0.61281540045392524 0
5.7974460101745073 -0.95310023179897962 0
4.6232381617365927 -0.85324520817976435 0
7.168381902902806 -0.30266063461202641 0
6.6659677697985424 -0.61968381478304901 0
8.5380235220940772 0.29615637614620505 0
7.2061685784241361 -0.19388034919851069 0
9.6706135288202599 -0.48336157845158922 0
9.0003129806459317 -0.30658300338820743 0
9.9807289860746646 -3.1169280991828212 0
8.822987151682101 -0.91679931591764929 0
13.466075686259618 -7.5658325651586118 0
-2.4383413186040372 0.77198279029141614 0
5.1642549256031325 0.75607914893433348 0
-0.96201774798779693 -0.19577340441892022 0
5.4567007566588819 1.1850707370604354 0
1.2856109742611015 -0.87784550061522093 0
6.1298798641144217 0.9558489136188113 0
3.9010697780670514 -1.0207344324778793 0
7.1648391097474464 0.12622943382682955 0
7.3567885589228226 -1.5866203372393652 0
8.8561877871383725 -0.47129610939792788 0
9.8495437107206705 -1.6883455107317902 0
10.665264980113449 0.59818653486281992 0
11.051329475712343 -1.2129612546805681 0
10.28235086302826 3.9448858123185859 0
8.0761623829572482 -1.1672834502833549 0
15.729254918096872 6.4287906121656597 0
-2.0429682429987448 -1.1632729962491193 0
4.0992582034607947 -0.61816768021699819 0
-0.8052782603858728 -0.72698883846863371 0
5.3963450043523089 -0.74749462924633869 0
2.035960674945088 -0.6356115506072183 0
6.3029008885421085 -0.46614134183522554 0
3.7909297859383799 -0.75306119109702796 0
7.5000027865181513 -0.080221240621593665 0
6.4317869489489938 -0.47289138347842208 0
8.8043253283759118 0.23935602499885836 0
8.2193876212492079 -0.083204396276525067 0
9.6437161074306861 -0.2090015065722812 0
9.2280225690754794 -0.90379217639060316 0
10.246520113536722 -2.8709903905119636 0
4.4286498834978429 -1.8997437463798552 0
17.513673500858538 -5.4485153099258499 0
-2.4210178472283967 0.014311008987970553 0
5.2996742676028967 0.66291522347928011 0
-0.754676791779056 -0.037508479701878872 0
5.4640826893430692 0.70199074174629605 0
1.2776945314255688 -0.41216417848139991 0
6.0863790621543865 0.14778729253788653 0
3.6227603005822178 -0.80419808816928584 0
7.2153775850079755 -0.33040434240331507 0
6.9983454072220388 -1.2366908935282213 0
8.9142063666884255 -0.55717891071819459 0
10.083101069825373 -1.077027916373809 0
9.9027951535409766 0.41471934117499376 0
11.516951242692016 -0.72481224493574214 0
10.026707702630009 2.8862707475587164 0
5.3364586498517861 -2.0240963323456076 0
20.163943029581471 2.9585647695723294 0
-2.196046279777407 -0.55385005918633912 0
4.1487318524468932 -0.94617957279126252 0
-1.0185257354050874 -0.97835562431674727 0
5.3456987463263532 -1.0145359157294789 0
1.5001742574316217 -0.82826740224800521 0
6.3297841735083091 -0.38904540374936264 0
3.5202970824968083 -0.58335222443114143 0
7.4930274801953614 -0.059702018806902575 0
6.6478258323455552 -0.25450889823489692 0
9.0259044570153861 0.31590232718608346 0
9.3170421663436862 0.19061731163361328 0
9.3521342380956067 0.050560530196926107 0
9.7614880260000731 -0.32241133300010411 0
9.8848482609650272 -1.7527742709217899 0
1.6179848529969312 -0.65414334627830162 0
21.397281048375618 -2.3803759962080462 0
-2.3076118115948621 -0.15450723008636946 0
4.8016842505530439 0.65074731645458339 0
-0.87921956804154178 0.3514163055133494 0
5.3188522150188309 0.68609640414542705 0
1.4125407546858555 0.12168181433993494 0
6.1198460979424905 0.23746713970911168 0
3.4587423093636369 -0.24745776172415795 0
7.3003876448278193 -0.18529095339072385 0
6.8665058089903184 -0.63967300875404121 0
9.050887004870253 -0.54885468954875671 0
10.286685316601963 -0.72639637337002561 0
9.4547970200304903 0.18323545062055629 0
11.292131993910338 -0.38104278385050899 0
10.046323070780714 1.6276224320930868 0
2.7950862888742862 -0.91010273571728351 0
22.450631775338518 1.1273759621364179 0
-2.2917319129663962 -0.088043189682567205 0
4.4583092555770474 -0.82858709778531081 0
-0.98545591373286578 -0.74485111258699654 0
5.3059105192090916 -0.89015576759577109 0
1.4747485087029564 -0.56898130087476451 0
6.2144222300498226 -0.34504494320981371 0
3.4346159707221839 -0.24214050263908776 0
7.3784334922366579 0.024342242430032454 0
6.786365316354142 0.080757987346275734 0
9.0449591934021623 0.38983147905955828 0
10.141245625105919 0.33833254395298529 0
9.3433479123382828 0.095224417604298645 0
10.628646758554726 0.16271338977188027 0
9.9262293496285086 -1.0462186999698562 0
1.3217377152204506 0.09676372118924903 0
22.827462884175542 -1.1804449484529 0
-2.2913690088005332 0.053611910670308793 0
4.4593321930404421 0.78634231965168988 0
-0.98454745333060423 0.70571668470430249 0
5.3065781715883684 0.84741052840632369 0
1.4727557579099666 0.52638526153454945 0
6.2138243529631199 0.29755597865727595 0
3.4338127600604276 0.19572547948574359 0
7.3772922801126768 -0.073198864941912953 0
6.7857361240726206 -0.12983375558627891 0
9.0432536549021645 -0.44035106039826355 0
10.142204744317953 -0.38902238729454053 0
9.340318890748371 -0.14612842696349768 0
10.627520991283824 -0.21599757905963918 0
9.9253159624639213 0.99145937383081639 0
1.3207036084475989 -0.15331786979747838 0
22.826778580314912 1.121722625851735 0
-2.3091907225804924 0.11990398315102196 0
4.8002252829602057 -0.69324846168495069 0
-0.88221052896527086 -0.39266273510969291 0
5.3170892028213022 -0.72935377085968311 0
1.409080698487013 -0.16321376896265299 0
6.1174735685770907 -0.28261217631305652 0
3.4588860641841706 0.20395318603324514 0
7.2983361502068727 0.13915284825261479 0
6.8660720649571658 0.59364751860205345 0
9.0493466096608248 0.50086818744113448 0
10.28697921104548 0.67712767168664401 0
9.4536479752007736 -0.23396721315069915 0
11.289782966834723 0.32740714800482251 0
10.044353637424393 -1.6825594728918478 0
2.7913089026065774 0.85217959026024037 0
22.447645174538792 -1.1853298010243514 0
-2.1963033036568387 0.51936296895498646 0
4.1494097389440485 0.90434302464229654 0
-1.0189402358235091 0.94171843728074522 0
5.3457683322685243 0.97244045723742478 0
1.4936872649903905 0.78494766603892174 0
6.3260122353714738 0.3390827045062722 0
3.5192259086848816 0.53395980606418103 0
7.4882949435201374 0.0080571791411132923 0
6.6467841979179463 0.20211124742291478 0
9.0203033899139129 -0.36889265695849005 0
9.3183507378601433 -0.24463082818542503 0
9.3449483819071499 -0.10475270553558794 0
9.7569878667589229 0.26737423934378607 0
9.8803042363720728 1.6958069665479765 0
1.6127589196261176 0.596777380597728 0
21.393394915784846 2.3205829104985303 0
-2.421656617408515 -0.049519403839551668 0
5.2978760645239253 -0.70773468098899728 0
-0.75893860328442231 -0.0061800561432590051 0
5.4592122942666812 -0.7459847232163821 0
1.2688952918855088 0.37202260871103288 0
6.0800985381720025 -0.1897769052334457 0
3.6225211222619911 0.76515817329034563 0
7.2098597781097968 0.28786045660132997 0
6.9966729289725986 1.194991168369858 0
8.9075154132295822 0.51083328897468694 0
10.081998718486783 1.0246678313497701 0
9.9000588096863122 -0.4658150496764451 0
11.510599879740639 0.67123685378412867 0
10.021634113232833 -2.9420143106206109 0
5.3312269704545496 1.9655530281892357 0
20.1577653981719 -3.0138868029901333 0
-2.044576019142152 1.1244389645821884 0
4.0990084723868776 0.56587787236297493 0
-0.80153685434675048 0.68678971469065675 0
5.3947210265807071 0.69816910405958743 0
2.0306802409171172 0.59001626843748289 0
6.2942537450574907 0.41319613840162478 0
3.7910779005214752 0.6996557938810678 0
7.4900334688130314 0.024963228764790898 0
6.4317806332251921 0.4156076854366772 0
8.7887890942943372 -0.29522427022344278 0
8.2199955170285115 0.027265750191357158 0
9.6372844558572286 0.15388390961814838 0
9.2197579980276796 0.84911958484320849 0
10.238237259217323 2.8154631586981593 0
4.4195734149030601 1.8425285676549543 0
17.506936984400426 5.3877191709931784 0
-2.4420535840030118 -0.80914530091575387 0
5.1539195041264643 -0.80372044916762087 0
-0.95838858411853001 0.14803740855457048 0
5.443476231186585 -1.2279935193430243 0
1.2784960468157647 0.83705476613835217 0
6.1177615396044116 -1.0030630199981103 0
3.9012732483616475 0.98148147227949978 0
7.1554153319988787 -0.17092846264220346 0
7.3560065006455719 1.5492679166303496 0
8.843460197861944 0.43001817565048878 0
9.8469617118593895 1.6420703787959456 0
10.663484443466224 -0.64513723942322887 0
11.040053999193084 1.1660581826955003 0
10.271612615554385 -3.9996220421863571 0
8.0735220995898747 1.1168182084783624 0
15.718437840733515 -6.477960404496832 0
-1.9321255928979335 1.7774452274698982 0
4.7192764525493658 0.11118264813725687 0
0.27138248915457464 0.92525437015884338 0
5.342316861085818 1.4442698758074028 0
2.8479483975655366 0.56508720283922131 0
5.7837886478882377 0.89637633692041474 0
4.6289044377948487 0.79706043571220353 0
7.1528027596425447 0.24747596146103198 0
6.6753891868003628 0.55878488606189169 0
8.5138749482282456 -0.35308742943189064 0
7.2068719761574815 0.13992606556834836 0
9.6660510295160318 0.4279707225899505 0
8.9890044821028621 0.25387828639576215 0
9.9704659928019765 3.066423820581178 0
8.8104475512510803 0.87103816839395554 0
13.444749904494696 7.5115530139018114 0
-1.0140270443115225 -1.8324185332915008 0
3.9054771444388416 -1.3002022705429463 0
-1.6948453440257334 -1.3312676261063432 0
5.0416219447724764 -3.7659994238470946 0
1.4936201987335336 -0.58586139608098076 0
6.1057963201811196 -1.8764928931902576 0
4.1431147008141593 -0.14984838442123627 0
7.2004949576557413 -0.62188927889955181 0
7.5420734932617499 0.59527546619363902 0
8.8857985552167182 -0.20120088202098502 0
9.8843835457663474 1.2687015838746931 0
10.911142564159567 -1.1056218860654827 0
10.140906750164811 1.5202775384028415 0
11.271537834810646 -4.9899171758812919 0
7.8990960158919634 0.61780901848360292 0
11.845473190909285 -9.4409432125364017 0
-2.0173087999049253 2.0681218488021029 0
4.9199274089286913 0.46229759696206629 0
1.0533005724433799 0.48994347640215058 0
3.481821198729933 0.15169935075391078 0
5.8929876474983613 -0.15179473833826657 0
4.7789009608157444 1.4211411259267221 0
6.0715828968981276 0.73620516502079991 0
6.7098410726993887 0.81783684821677816 0
6.8758487327168352 0.4067652849887412 0
8.2411398344192062 -0.44822227629194483 0
6.7769233258507056 -0.90808420179860405 0
9.5828541941510359 0.7332148778595341 0
8.2347589638981358 -1.0116138479619887 0
11.438424517649214 4.1181554575479842 0
10.810255187971432 -1.2948889188881518 0
12.624971950108351 7.5021672153361161 0
-1.0347802707841258 -3.5884899290920536 0
6.4800256069672431 -4.468573249530043 0
-2.3579664857284586 -2.1709614664396657 0
5.2763745393093933 -2.7611963584109773 0
4.7405819276025021 -0.13195422211517774 0
5.8011344960549556 -0.66594683930859178 0
4.8538291823110589 -0.39289639941266213 0
6.4282197724257824 0.69193493183827981 0
7.1742233170837855 -0.67721757119094106 0
8.0622244742979543 0.83869139283252914 0
9.4093481574804496 0.062885251540974615 0
10.700553341139027 -0.88931692689340658 0
9.8991197701781903 2.8609825898582959 0
12.384471631173543 -7.0993176573965702 0
5.2603563377807188 4.2083214083322522 0
10.724308882805568 -7.5043885711746796 0
0.16785131907864626 0.012864032305689665 0
2.4183866531157023 0.64883607914016261 0
4.6481807495666043 -2.8719258116671691 0
3.6532469801254526 3.5086780849978063 0
6.5748833254841959 -0.53174927212401912 0
5.0503043648513231 1.1012862611650447 0
6.8084838664198948 0.23422088314783529 0
5.6930151213104656 0.083095333171527397 0
7.6285839352146603 -0.11292761381492622 0
7.3555496262221789 -0.70757563408300284 0
7.6735726193499723 -1.571899481351221 0
10.238371148429392 1.7808456589209678 0
10.040541531275039 -3.0059626851293548 0
13.623997619306357 6.5192177594951595 0
8.6616516841387199 -4.3358719526788008 0
14.873825025653865 1.0972112276179127 0
0.72025571775017561 -10.032848731945686 0
7.7370168633114078 -6.9574584716750749 0
0.94974248166386732 -1.1519950924160276 0
5.4158623276839712 -3.5778570933499299 0
3.429038556387896 -2.9228525409634627 0
4.8513513089107496 -2.0730418715555756 0
5.8226708799434803 -3.8077263422541519 0
5.0025508189414598 -1.5029669386477884 0
7.5908778846158649 -3.61657318227555 0
7.0883671780871786 -0.96399009807966674 0
11.047036033999586 -3.1272599061753232 0
8.6671508482780109 -2.0163743436683279 0
10.11130128161377 -4.1103218353622788 0
13.731699323735752 -4.3102778698093633 0
13.862894035983746 -2.8494867565416331 0
12.992449548775904 -2.8241479700059107 0
-0.10185222396416493 0.094842383021381094 0
10.887795059176627 -0.16377511379242904 0
2.7620845357743153 0.31119469611398354 0
6.6770293974587336 0.26479140640264176 0
1.7051826614318784 1.8388315399243145 0
6.8081371380784033 -1.5372308851448264 0
5.6150306546259143 0.31150482629408782 0
7.0097128618749931 -2.1529464028935772 0
7.905403465109182 -0.082272994201358474 0
8.8281804085198186 -2.2617868540684301 0
10.070649605263428 -2.1185575025126329 0
9.8484891168640338 2.4290529370525085 0
6.2277587076371832 -0.65429819940852851 0
10.636903363386198 -3.6796408432378191 0
12.890359899602958 -5.8024681782084047 0
13.882765160636678 4.2317533932417959 0
0 0 0
0 0 0
0 0 0
0 0 0
0 0 0
0 0 0
0 0 0
0 0 0
0 0 0
0 0 0
0 0 0
0 0 0
0 0 0
0 0 0
0 0 0
0 0 0
0 0 0
0 0 0
0 0 0
0 0 0
0 0 0
0 0 0
0 0 0
0 0 0
0 0 0
0 0 0
0 0 0
0 0 0
0 0 0
0 0 0
0 0 0
0 0 0
0 0 0
0 0 0
0 0 0
0 0 0
0 0 0
0 0 0
0 0 0
0 0 0
0 0 0
0 0 0
0 0 0
0 0 0
0 0 0
0 0 0
0 0 0
0 0 0
0 0 0
0 0 0
0 0 0
0 0 0
0 0 0
0 0 0
0 0 0
0 0 0
0 0 0
0 0 0
0 0 0
0 0 0
0 0 0
0 0 0
0 0 0
0 0 0
0 0 0
0 0 0
0 0 0
0 0 0
0 0 0
0 0 0
0 0 0
0 0 0
0 0 0
0 0 0
0 0 0
0 0 0
0 0 0
0 0 0
0 0 0
0 0 0
0 0 0
0 0 0
0 0 0
0 0 0
0 0 0
0 0 0
0 0 0
0 0 0
0 0 0
0 0 0
0 0 0
0 0 0
0 0 0
0 0 0
0 0 0
0 0 0
0 0 0
0 0 0
0 0 0
0 0 0
0 0 0
0 0 0
0 0 0
0 0 0
0 0 0
0 0 0
0 0 0
0 0 0
0 0 0
0 0 0
0 0 0
0 0 0
0 0 0
0 0 0
0 0 0
0 0 0
0 0 0
0 0 0
0 0 0
0 0 0
0 0 0
0 0 0
0 0 0
0 0 0
0 0 0
0 0 0
0 0 0
0 0 0
0 0 0
0 0 0
0 0 0
0 0 0
0 0 0
0 0 0
0 0 0
0 0 0
0 0 0
0 0 0
0 0 0
0 0 0
0 0 0
0 0 0
0 0 0
0 0 0
0 0 0
0 0 0
0 0 0
0 0 0
0 0 0
0 0 0
0 0 0
0 0 0
0 0 0
0 0 0
0 0 0
0 0 0
0 0 0
0 0 0
0 0 0
0 0 0
0 0 0
0 0 0
0 0 0
0 0 0
0 0 0
0 0 0
0 0 0
0 0 0
0 0 0
0 0 0
0 0 0
0 0 0
0 0 0
0 0 0
0 0 0
0 0 0
0 0 0
0 0 0
0 0 0
0 0 0
0 0 0
0 0 0
0 0 0
0 0 0
0 0 0
0 0 0
0 0 0
0 0 0
0 0 0
0 0 0
0 0 0
0 0 0
0 0 0
0 0 0
0 0 0
0 0 0
0 0 0
0 0 0
0 0 0
0 0 0
0 0 0
0 0 0
0 0 0
0 0 0
0 0 0
0 0 0
0 0 0
0 0 0
0 0 0
0 0 0
0 0 0
0 0 0
0 0 0
0 0 0
0 0 0
0 0 0
0 0 0
0 0 0
0 0 0
0 0 0
0 0 0
0 0 0
0 0 0
0 0 0
0 0 0
0 0 0
0 0 0
0 0 0
0 0 0
0 0 0
0 0 0
0 0 0
0 0 0
0 0 0
0 0 0
0 0 0
0 0 0
0 0 0
0 0 0
0 0 0
0 0 0
0 0 0
0 0 0
0 0 0
0 0 0
0 0 0
0 0 0
0 0 0
0 0 0
0 0 0
0 0 0
0 0 0
0 0 0
0 0 0
0 0 0
0 0 0
0 0 0
0 0 0
0 0 0
0 0 0
0 0 0
0 0 0
0 0 0
0 0 0
0 0 0
0 0 0
0 0 0
0 0 0
0 0 0
0 0 0
0 0 0
0 0 0
0 0 0
0 0 0
0 0 0
0 0 0
0 0 0
0 0 0
0 0 0
0 0 0
0 0 0
0 0 0
0 0 0
0 0 0
0 0 0
0 0 0
0 0 0
0 0 0
0 0 0
0 0 0
0 0 0
0 0 0
0 0 0
0 0 0
0 0 0
0 0 0
0 0 0
0 0 0
0 0 0
0 0 0
0 0 0
0 0 0
0 0 0
0 0 0
0 0 0
0 0 0
0 0 0
0 0 0
0 0 0
0 0 0
0 0 0
0 0 0
0 0 0
0 0 0
0 0 0
0 0 0
0 0 0
0 0 0
0 0 0
0 0 0
0 0 0
0 0 0
0 0 0
0 0 0
0 0 0
0 0 0
0 0 0
0 0 0
0 0 0
0 0 0
0 0 0
0 0 0
0 0 0
0 0 0
0 0 0
0 0 0
0 0 0
0 0 0
0 0 0
0 0 0
0 0 0
0 0 0
0 0 0
0 0 0
0 0 0
0 0 0
0 0 0
0 0 0
0 0 0
0 0 0
0 0 0
0 0 0
0 0 0
0 0 0
0 0 0
0 0 0
0 0 0
0 0 0
0 0 0
0 0 0
0 0 0
0 0 0
0 0 0
0 0 0
0 0 0
0 0 0
0 0 0
0 0 0
0 0 0
0 0 0
0 0 0
0 0 0
0 0 0
0 0 0
0 0 0
0 0 0
0 0 0
0 0 0
0 0 0
0 0 0
0 0 0
0 0 0
0 0 0
0 0 0
0 0 0
0 0 0
0 0 0
0 0 0
0 0 0
0 0 0
0 0 0
0 0 0
0 0 0
0 0 0
0 0 0
0 0 0
0 0 0
0 0 0
0 0 0
0 0 0
0 0 0
0 0 0
0 0 0
0 0 0
0 0 0
0 0 0
0 0 0
0 0 0
0 0 0
0 0 0
0 0 0
0 0 0
0 0 0
0 0 0
0 0 0
0 0 0
0 0 0
0 0 0
0 0 0
0 0 0
0 0 0
0 0 0
0 0 0
0 0 0
0 0 0
0 0 0
0 0 0
0 0 0
0 0 0
0 0 0
0 0 0
0 0 0
0 0 0
0 0 0
0 0 0
0 0 0
0 0 0
0 0 0
0 0 0
0 0 0
0 0 0
0 0 0
0 0 0
0 0 0
0 0 0
0 0 0
0 0 0
0 0 0
0 0 0
0 0 0
0 0 0
0 0 0
0 0 0
0 0 0
0 0 0
0 0 0
